<?xml version="1.0" encoding="UTF-8" standalone="no"?>
<svg
   xmlns:dc="http://purl.org/dc/elements/1.1/"
   xmlns:cc="http://creativecommons.org/ns#"
   xmlns:rdf="http://www.w3.org/1999/02/22-rdf-syntax-ns#"
   xmlns:svg="http://www.w3.org/2000/svg"
   xmlns="http://www.w3.org/2000/svg"
   xmlns:xlink="http://www.w3.org/1999/xlink"
   xmlns:sodipodi="http://sodipodi.sourceforge.net/DTD/sodipodi-0.dtd"
   xmlns:inkscape="http://www.inkscape.org/namespaces/inkscape"
   width="880"
   height="800"
   version="1.1"
   id="svg89"
   sodipodi:docname="map-building-warehouse-floor-02.svg"
   inkscape:version="0.92.2 (5c3e80d, 2017-08-06)">
  <metadata
     id="metadata93">
    <rdf:RDF>
      <cc:Work
         rdf:about="">
        <dc:format>image/svg+xml</dc:format>
        <dc:type
           rdf:resource="http://purl.org/dc/dcmitype/StillImage" />
        <dc:title />
      </cc:Work>
    </rdf:RDF>
  </metadata>
  <sodipodi:namedview
     pagecolor="#ffffff"
     bordercolor="#666666"
     borderopacity="1"
     objecttolerance="10"
     gridtolerance="10"
     guidetolerance="10"
     inkscape:pageopacity="0"
     inkscape:pageshadow="2"
     inkscape:window-width="1920"
     inkscape:window-height="1017"
     id="namedview91"
     showgrid="true"
     inkscape:zoom="0.32272728"
     inkscape:cx="1103.6702"
     inkscape:cy="245.71639"
     inkscape:window-x="1912"
     inkscape:window-y="-8"
     inkscape:window-maximized="1"
     inkscape:current-layer="svg89">
    <inkscape:grid
       type="xygrid"
       id="grid900"
       empspacing="8"
       spacingy="4"
       spacingx="4" />
  </sodipodi:namedview>
  <defs
     id="defs79">
    <pattern
       inkscape:collect="always"
       xlink:href="#pattern1626"
       id="pattern1702"
       patternTransform="matrix(0.63636075,-0.63636075,0.63636075,0.63636075,656,940)" />
    <pattern
       inkscape:collect="always"
       xlink:href="#pattern1626"
       id="pattern1700"
       patternTransform="matrix(-0.63636075,0.63636075,-0.63636075,-0.63636075,1104,-140)" />
    <pattern
       inkscape:collect="always"
       xlink:href="#h"
       id="pattern1626"
       patternTransform="matrix(0.63636075,-0.63636075,0.63636075,0.63636075,640,992)" />
    <pattern
       xlink:href="#a"
       id="h"
       patternTransform="matrix(0.63636075,-0.63636075,0.63636075,0.63636075,-319.99988,-4.97859e-5)" />
    <pattern
       xlink:href="#b"
       id="j"
       patternTransform="matrix(.625 0 0 .625 2160 -183)" />
    <pattern
       xlink:href="#c"
       id="f"
       patternTransform="translate(2248 -159) scale(.53217)" />
    <pattern
       xlink:href="#d"
       id="c"
       patternTransform="translate(2248 344) scale(.53217)" />
    <pattern
       xlink:href="#e"
       id="d"
       patternTransform="translate(2248 -159) scale(.53217)" />
    <pattern
       patternUnits="userSpaceOnUse"
       width="128"
       height="128"
       patternTransform="translate(2248 -159)"
       id="e">
      <path
         fill="#999"
         stroke-width="15.118"
         stroke-miterlimit="10"
         d="M0 0h128v128H0z"
         id="path7" />
      <path
         d="M0 0v2.34L125.66 128H128v-2.34L2.34 0z"
         fill="#191919"
         stroke-width="1.7"
         id="path9" />
      <path
         d="M125.66 0L0 125.66V128h2.34L128 2.34V0z"
         fill="#191919"
         stroke-width="1.7"
         id="path11" />
    </pattern>
    <clipPath
       id="i">
      <path
         stroke-miterlimit="10"
         d="m 1800,-503 h 200 v 800 h -200 z"
         id="path14"
         inkscape:connector-curvature="0"
         style="fill:url(#f);stroke-width:5.78100014;stroke-miterlimit:10" />
    </clipPath>
    <pattern
       patternUnits="userSpaceOnUse"
       width="128"
       height="128"
       patternTransform="translate(2160 -183)"
       id="b">
      <path
         fill="#999"
         stroke-width="15.118"
         stroke-miterlimit="10"
         d="M0 0h128v128H0z"
         id="path17" />
      <path
         d="M0 0v2.34L125.66 128H128v-2.34L2.34 0z"
         fill="#191919"
         fill-opacity=".457"
         stroke-width="1.7"
         id="path19" />
      <path
         d="M125.66 0L0 125.66V128h2.34L128 2.34V0z"
         fill="#191919"
         fill-opacity=".451"
         stroke-width="1.7"
         id="path21" />
    </pattern>
    <pattern
       xlink:href="#g"
       id="l"
       patternTransform="matrix(.625 0 0 .625 2160 -183)" />
    <pattern
       patternUnits="userSpaceOnUse"
       width="128"
       height="128"
       patternTransform="translate(2160 -183)"
       id="g">
      <path
         fill="#999"
         stroke-width="15.118"
         stroke-miterlimit="10"
         d="M0 0h128v128H0z"
         id="path25" />
      <path
         d="M0 0v2.34L125.66 128H128v-2.34L2.34 0z"
         fill="#191919"
         fill-opacity=".457"
         stroke-width="1.7"
         id="path27" />
      <path
         d="M125.66 0L0 125.66V128h2.34L128 2.34V0z"
         fill="#191919"
         fill-opacity=".451"
         stroke-width="1.7"
         id="path29" />
    </pattern>
    <clipPath
       id="k">
      <path
         stroke-miterlimit="10"
         d="m 1800,-503 h 200 v 800 h -200 z"
         id="path32"
         inkscape:connector-curvature="0"
         style="fill:url(#f);stroke-width:5.78100014;stroke-miterlimit:10" />
    </clipPath>
    <pattern
       patternUnits="userSpaceOnUse"
       width="176"
       height="176"
       patternTransform="translate(-320)"
       id="a">
      <path
         fill="#3e4246"
         stroke-width="20.787"
         stroke-miterlimit="10"
         d="M0 0h176v176H0z"
         id="path35" />
      <g
         fill="#cebbb4"
         fill-opacity=".071"
         stroke-opacity=".49"
         id="g73">
        <path
           transform="rotate(180 0 -497.26) scale(3.77953)"
           stroke-width=".723"
           d="M-20.108-295.942h2.117v14.817h-2.117z"
           id="path37" />
        <path
           transform="matrix(0 -3.77953 3.77953 0 0 -994.52)"
           stroke-width=".723"
           d="M-288.533 0h2.117v14.817h-2.117z"
           id="path39" />
        <path
           transform="rotate(180 0 -497.26) scale(3.77953)"
           stroke-width=".723"
           d="M-8.467-283.242h2.117v14.817h-2.117z"
           id="path41" />
        <path
           transform="matrix(0 -3.77953 3.77953 0 0 -994.52)"
           stroke-width=".723"
           d="M-277.95 11.642h2.117v14.817h-2.117zm-10.583 11.641h2.117V38.1h-2.117z"
           id="path43" />
        <path
           transform="rotate(180 0 -497.26) scale(3.77953)"
           stroke-width=".723"
           d="M-31.75-283.242h2.117v14.817h-2.117z"
           id="path45" />
        <path
           transform="rotate(180 0 -497.26) scale(3.77953)"
           stroke-width=".58"
           d="M-20.108-272.658h2.117v9.525h-2.117z"
           id="path47" />
        <path
           transform="matrix(0 -3.77953 3.77953 0 0 -994.52)"
           stroke-width=".723"
           d="M-265.25 0h2.117v14.817h-2.117zm0 23.283h2.117V38.1h-2.117z"
           id="path49" />
        <path
           transform="matrix(0 -3.77953 3.77953 0 0 -994.52)"
           stroke-width=".335"
           d="M-277.95 0h2.117v3.175h-2.117z"
           id="path51" />
        <path
           transform="rotate(180 0 -497.26) scale(3.77953)"
           stroke-width=".58"
           d="M-43.392-272.658h2.117v9.525h-2.117z"
           id="path53" />
        <path
           transform="matrix(0 -3.77953 3.77953 0 0 -994.52)"
           stroke-width=".641"
           d="M-277.95 34.925h2.117v11.642h-2.117z"
           id="path55" />
        <path
           transform="rotate(180 0 -497.26) scale(3.77953)"
           stroke-width=".725"
           d="M-43.406-295.942h2.131v14.817h-2.131z"
           id="path57" />
        <path
           stroke-width=".723"
           d="M29.633 291.708h2.117v14.817h-2.117z"
           transform="translate(0 -994.52) scale(3.77953)"
           id="path59" />
        <path
           transform="matrix(0 3.77953 -3.77953 0 0 -994.52)"
           stroke-width=".641"
           d="M299.117-46.567h2.117v11.642h-2.117z"
           id="path61" />
        <path
           stroke-width=".432"
           d="M41.275 304.408h2.117v5.292h-2.117z"
           transform="translate(0 -994.52) scale(3.77953)"
           id="path63" />
        <path
           transform="matrix(0 3.77953 -3.77953 0 0 -994.52)"
           stroke-width=".723"
           d="M299.117-26.458h2.117v14.817h-2.117z"
           id="path65" />
        <path
           stroke-width=".432"
           d="M17.992 304.408h2.117v5.292h-2.117z"
           transform="translate(0 -994.52) scale(3.77953)"
           id="path67" />
        <path
           transform="matrix(0 3.77953 -3.77953 0 0 -994.52)"
           stroke-width=".335"
           d="M299.117-3.175h2.117V0h-2.117z"
           id="path69" />
        <path
           stroke-width=".725"
           d="M6.35 291.708h2.131v14.817H6.35z"
           transform="translate(0 -994.52) scale(3.77953)"
           id="path71" />
      </g>
    </pattern>
    <clipPath
       id="m">
      <path
         d="m 160,0 v 256 h 32 V 32 h 1376 v 224 h 32 V 0 Z m 0,544 V 800 H 1600 V 544 h -32 V 768 H 192 V 544 Z"
         stroke-miterlimit="10"
         id="path76"
         inkscape:connector-curvature="0"
         style="fill:#6b6b6b;stroke-width:15.11800003;stroke-miterlimit:10" />
    </clipPath>
  </defs>
  <path
     d="M 160,0 H 1600 V 800 H 160 Z"
     id="path81"
     inkscape:connector-curvature="0"
     style="fill:url(#pattern1702)" />
  <path
     clip-path="url(#i)"
     d="m 1800,-503 h 160 v 800 h -160 z"
     transform="translate(-200,503)"
     id="path83"
     inkscape:connector-curvature="0"
     style="fill:url(#j)" />
  <path
     transform="translate(-1840,503)"
     clip-path="url(#k)"
     d="m 1840,-503 h 160 v 800 h -160 z"
     id="path85"
     inkscape:connector-curvature="0"
     style="fill:url(#l)" />
  <path
     stroke-miterlimit="10"
     d="m 160,0 v 256 h 32 V 32 h 1376 v 224 h 32 V 0 Z m 0,544 V 800 H 1600 V 544 h -32 V 768 H 192 V 544 Z"
     clip-path="url(#m)"
     id="path87"
     inkscape:connector-curvature="0"
     style="fill:#6b6b6b;stroke:#000000;stroke-width:16;stroke-miterlimit:10" />
  <rect
     style="fill:#464646;fill-opacity:1;stroke:none;stroke-width:8;stroke-linecap:round;stroke-linejoin:miter;stroke-miterlimit:4;stroke-dasharray:none;stroke-opacity:1"
     id="rect1686"
     width="32"
     height="28"
     x="780"
     y="864" />
  <path
     style="fill:url(#pattern1700)"
     inkscape:connector-curvature="0"
     id="path1698"
     d="M 1599.5672,800 H 880 V 0 h 719.5672 z"
     sodipodi:nodetypes="ccccc" />
</svg>
