<?xml version="1.0" encoding="UTF-8" standalone="no"?>
<svg
   xmlns:dc="http://purl.org/dc/elements/1.1/"
   xmlns:cc="http://creativecommons.org/ns#"
   xmlns:rdf="http://www.w3.org/1999/02/22-rdf-syntax-ns#"
   xmlns:svg="http://www.w3.org/2000/svg"
   xmlns="http://www.w3.org/2000/svg"
   xmlns:xlink="http://www.w3.org/1999/xlink"
   xmlns:sodipodi="http://sodipodi.sourceforge.net/DTD/sodipodi-0.dtd"
   xmlns:inkscape="http://www.inkscape.org/namespaces/inkscape"
   width="315"
   height="255"
   viewBox="0 0 83.34375 67.4685"
   version="1.1"
   id="svg30"
   sodipodi:docname="map-building-shack-ceiling-01.svg"
   inkscape:version="0.92.2 (5c3e80d, 2017-08-06)">
  <metadata
     id="metadata34">
    <rdf:RDF>
      <cc:Work
         rdf:about="">
        <dc:format>image/svg+xml</dc:format>
        <dc:type
           rdf:resource="http://purl.org/dc/dcmitype/StillImage" />
        <dc:title />
      </cc:Work>
    </rdf:RDF>
  </metadata>
  <sodipodi:namedview
     pagecolor="#ffffff"
     bordercolor="#666666"
     borderopacity="1"
     objecttolerance="10"
     gridtolerance="10"
     guidetolerance="10"
     inkscape:pageopacity="0"
     inkscape:pageshadow="2"
     inkscape:window-width="1920"
     inkscape:window-height="1017"
     id="namedview32"
     showgrid="false"
     inkscape:zoom="1.352381"
     inkscape:cx="44.455379"
     inkscape:cy="245.03095"
     inkscape:window-x="1912"
     inkscape:window-y="-8"
     inkscape:window-maximized="1"
     inkscape:current-layer="svg30" />
  <defs
     id="defs24">
    <pattern
       xlink:href="#a"
       id="i"
       patternTransform="translate(31.846 83.128) scale(.19735)" />
    <pattern
       xlink:href="#b"
       id="a"
       patternTransform="translate(0 -380) scale(.74587)" />
    <pattern
       xlink:href="#c"
       id="b"
       patternTransform="translate(31.846 83.128) scale(.19735)" />
    <pattern
       xlink:href="#d"
       id="c"
       patternTransform="translate(0 -380) scale(.74587)" />
    <pattern
       xlink:href="#e"
       id="d"
       patternTransform="translate(31.846 83.128) scale(.19735)" />
    <pattern
       xlink:href="#f"
       id="e"
       patternTransform="translate(-89.163 99.11) scale(.19735)" />
    <pattern
       xlink:href="#g"
       id="f"
       patternTransform="translate(0 -380) scale(.74587)" />
    <pattern
       xlink:href="#h"
       id="g"
       patternTransform="translate(31.846 83.128) scale(.19735)" />
    <pattern
       patternUnits="userSpaceOnUse"
       width="320"
       height="320"
       patternTransform="translate(42.43 83.128) scale(.26458)"
       id="h">
      <path
         fill="#665a4e"
         stroke-width="37.795"
         stroke-miterlimit="10"
         d="M0 0h320v320H0z"
         id="path10" />
      <path
         fill-opacity=".354"
         stroke-width="12.316"
         stroke-miterlimit="10"
         d="M80 0h4v320h-4zM0 0h4v320H0z"
         id="path12" />
      <path
         transform="rotate(90)"
         fill-opacity=".354"
         stroke-width="6.002"
         stroke-miterlimit="10"
         d="M0-80h4v76H0zm240-80h4v76h-4z"
         id="path14" />
      <path
         fill-opacity=".354"
         stroke-width="12.316"
         stroke-miterlimit="10"
         d="M160 0h4v320h-4zm80 0h4v320h-4z"
         id="path16" />
      <path
         transform="rotate(90)"
         fill-opacity=".354"
         stroke-width="6.002"
         stroke-miterlimit="10"
         d="M80-240h4v76h-4zm80-80h4v76h-4z"
         id="path18" />
    </pattern>
    <clipPath
       id="j">
      <path
         d="m 87.867,204.569 -3.576,5.452 -0.657,6.35 -4.87,1.534 -6.342,2.7 11.148,2.116 4.234,10.584 3.31,-8.467 3.103,-2.117 7.711,-2.116 -7.711,-3.022 -4.233,-2.164 z m -56.02,-20.9 H 142.97 v 73.025 H 31.846 Z"
         id="path21"
         inkscape:connector-curvature="0"
         style="fill:url(#i);stroke-width:0.26499999" />
    </clipPath>
  </defs>
  <g
     id="g843"
     transform="translate(0,4.234205)">
    <path
       style="fill-opacity:0.39500002;stroke-width:0.7500034"
       inkscape:connector-curvature="0"
       id="path26"
       d="m 42.015378,11.441417 -2.682024,4.089 -0.492754,4.7625 -3.651783,1.14975 -4.756543,2.025 8.361075,1.58775 3.174779,7.93725 2.482522,-6.3495 2.328021,-1.58775 5.782552,-1.58775 -5.782552,-2.26575 -3.175529,-1.623 z" />
    <path
       style="fill:url(#b);stroke:#191919;stroke-width:2.1170001"
       inkscape:connector-curvature="0"
       id="path28"
       transform="matrix(0.75000675,0,0,0.75,-23.884715,-141.98608)"
       clip-path="url(#j)"
       d="m 87.867,204.569 -3.576,5.452 -0.657,6.35 -4.87,1.534 -6.342,2.7 11.148,2.116 4.234,10.584 3.31,-8.467 3.103,-2.117 7.711,-2.116 -7.711,-3.022 -4.233,-2.164 z m -56.02,-20.9 H 142.97 v 73.025 H 31.846 Z" />
  </g>
</svg>
