<svg width="46" height="46" viewBox="0 0 46 46" fill="none" xmlns="http://www.w3.org/2000/svg">
<mask id="mask0_1154_2625" style="mask-type:alpha" maskUnits="userSpaceOnUse" x="0" y="0" width="46" height="46">
<rect x="0.875244" y="0.197266" width="45.0985" height="45.0985" fill="#C4C4C4"/>
</mask>
<g mask="url(#mask0_1154_2625)">
<path d="M33.1839 15.1879C33.1839 15.1879 30.3972 13.0065 27.1075 12.7573L26.811 13.351C29.7847 14.0795 31.1495 15.121 32.5762 16.4031C30.1171 15.1478 27.6908 13.9726 23.4617 13.9726C19.2326 13.9726 16.8063 15.1478 14.3472 16.4031C15.7739 15.121 17.3975 13.9629 20.1124 13.351L19.8159 12.7573C16.3645 13.0824 13.7396 15.1879 13.7396 15.1879C13.7396 15.1879 10.6279 19.7002 10.0938 28.5558C13.2291 32.1731 17.993 32.2016 17.993 32.2016L18.9895 30.8745C17.2979 30.2864 15.3899 29.237 13.7396 27.3405C15.7071 28.8293 18.6766 30.3787 23.4617 30.3787C28.2468 30.3787 31.2163 28.8293 33.1839 27.3405C31.5341 29.237 29.6262 30.2864 27.9339 30.8745L28.9304 32.2016C28.9304 32.2016 33.6943 32.1731 36.8297 28.5558C36.2956 19.7002 33.1839 15.1879 33.1839 15.1879ZM19.5121 26.1253C18.3369 26.1253 17.3854 25.0376 17.3854 23.6947C17.3854 22.3519 18.3369 21.2642 19.5121 21.2642C20.6872 21.2642 21.6388 22.3519 21.6388 23.6947C21.6388 25.0376 20.6872 26.1253 19.5121 26.1253ZM27.4113 26.1253C26.2362 26.1253 25.2846 25.0376 25.2846 23.6947C25.2846 22.3519 26.2362 21.2642 27.4113 21.2642C28.5865 21.2642 29.5381 22.3519 29.5381 23.6947C29.5381 25.0376 28.5865 26.1253 27.4113 26.1253Z" fill="white"/>
</g>
</svg>
