<svg width="25" height="18" viewBox="0 0 25 18" fill="none" xmlns="http://www.w3.org/2000/svg">
<path fill-rule="evenodd" clip-rule="evenodd" d="M12.5262 0.32251C17.7434 0.32251 24.6995 7.69377 24.6995 9.16169C24.6995 10.6296 17.7434 18.0009 12.5262 18.0009C7.30914 18.0009 0.353027 10.6296 0.353027 9.16169C0.353027 7.69377 7.30914 0.32251 12.5262 0.32251ZM5.45793 9.16169C5.45793 12.7025 8.5994 16.233 12.5262 16.233C16.4531 16.233 19.5946 12.7025 19.5946 9.16169C19.5946 7.56652 18.957 5.97347 17.8973 4.70436C17.9803 4.99502 18.0251 5.30495 18.0251 5.62666C18.0251 7.28969 16.8273 8.63784 15.3497 8.63784C13.872 8.63784 12.6742 7.28969 12.6742 5.62666C12.6742 4.04864 13.7527 2.75413 15.1254 2.62591C14.3222 2.28393 13.4458 2.09034 12.5262 2.09034C8.5994 2.09034 5.45793 5.62082 5.45793 9.16169Z" fill="white"/>
</svg>
