<svg width="26" height="26" viewBox="0 0 26 26" fill="none" xmlns="http://www.w3.org/2000/svg">
<path d="M9.64218 12.9767C9.64218 13.8056 9.97156 14.6004 10.5577 15.1865C11.1435 15.7726 11.9384 16.1017 12.7672 16.1017C13.596 16.1017 14.3909 15.7726 14.977 15.1865C15.5631 14.6004 15.8925 13.8055 15.8925 12.9767C15.8925 12.1479 15.5631 11.353 14.977 10.7669C14.3909 10.1808 13.596 9.85171 12.7672 9.85171C11.9391 9.85371 11.1452 10.1836 10.5596 10.7692C9.97402 11.3548 9.64422 12.1484 9.64218 12.9767Z" fill="#FF0000"/>
<path d="M12.767 22.3519C10.2809 22.3499 7.89758 21.3607 6.14067 19.6016C4.38407 17.8425 3.39796 15.4577 3.39917 12.9715C3.40042 10.4855 4.38906 8.10184 6.14763 6.34454C7.90621 4.58724 10.2908 3.60055 12.7771 3.60132C15.2632 3.60182 17.6473 4.58999 19.4047 6.34806C21.1625 8.10612 22.1499 10.4905 22.1499 12.9763C22.1519 15.4645 21.1637 17.8517 19.4034 19.6103C17.6431 21.3691 15.2556 22.3559 12.767 22.3519ZM12.767 4.85434C10.6129 4.85434 8.54685 5.71017 7.02379 7.23322C5.50047 8.75654 4.6449 10.8226 4.6449 12.9767C4.6449 15.1308 5.50047 17.1968 7.02379 18.7201C8.54685 20.2432 10.6129 21.099 12.767 21.099C14.9213 21.099 16.9871 20.2432 18.5104 18.7201C20.0335 17.1968 20.8893 15.1308 20.8893 12.9767C20.8933 10.8213 20.0387 8.75309 18.5146 7.22901C16.9905 5.70492 14.9224 4.85038 12.767 4.85434Z" fill="#FF0000"/>
<path d="M22.15 12.3502H25.2751V13.6034H22.15V12.3502ZM0.27457 12.3502H3.39964V13.6034H0.26709L0.27457 12.3502ZM12.1412 22.352H13.3943V25.4771L12.1412 25.4773V22.352ZM12.1412 0.476562H13.3943V3.60163L12.1412 3.60188V0.476562Z" fill="#FF0000"/>
</svg>
