<svg width="23" height="33" viewBox="0 0 23 33" fill="none" xmlns="http://www.w3.org/2000/svg">
<path fill-rule="evenodd" clip-rule="evenodd" d="M0.762695 1.27307C0.762695 1.11056 0.894435 0.978821 1.05694 0.978821H22.0256C22.1881 0.978821 22.3198 1.11056 22.3198 1.27307V32.3714L11.5413 26.3084L0.762695 32.3714V1.27307ZM2.14581 2.40983C2.14581 2.33388 2.20738 2.27231 2.28333 2.27231H20.7991C20.875 2.27231 20.9366 2.33388 20.9366 2.40983V5.03445H2.14581V2.40983ZM7.16914 10.6399C8.33494 9.47409 9.91611 8.81915 11.5648 8.81915C13.2135 8.81915 14.7947 9.47409 15.9605 10.6399C17.1263 11.8057 17.7812 13.3869 17.7812 15.0356C17.7788 15.9413 17.5785 16.8355 17.1943 17.6558C16.8115 17.472 16.3924 17.376 15.9677 17.3748C15.2121 17.3748 14.4875 17.6744 13.9533 18.2077C13.419 18.7411 13.1189 19.4644 13.1189 20.2187C13.1194 20.4889 13.1584 20.7578 13.2349 21.017C12.6915 21.1708 12.1296 21.2499 11.5648 21.252C10.9998 21.2498 10.4378 21.1706 9.8942 21.0165C9.97063 20.7574 10.0097 20.4888 10.0102 20.2187C10.0102 19.4644 9.71007 18.7411 9.17582 18.2077C8.64157 17.6744 7.91697 17.3748 7.16143 17.3748C6.73676 17.3757 6.31765 17.4713 5.93479 17.6548C5.55093 16.8348 5.3508 15.9409 5.34839 15.0356C5.34839 13.3869 6.00333 11.8057 7.16914 10.6399ZM8.49297 22.1797C8.93008 21.7434 9.1757 21.1517 9.17583 20.5347C9.1757 19.9177 8.93008 19.3256 8.49297 18.8893C8.05587 18.453 7.46307 18.2079 6.84492 18.2077C6.22668 18.2077 5.63375 18.4528 5.19654 18.8891C4.75934 19.3254 4.51365 19.9172 4.51352 20.5342C4.51352 21.1514 4.75915 21.7433 5.19637 22.1797C5.41286 22.3958 5.66987 22.5672 5.95273 22.6841C6.23559 22.801 6.53875 22.8612 6.84492 22.8612C7.46307 22.8611 8.05587 22.616 8.49297 22.1797ZM17.7812 22.1797C18.2184 21.7434 18.4641 21.1516 18.4642 20.5346C18.4641 19.9175 18.2184 19.3252 17.7812 18.889C17.344 18.4527 16.7511 18.2076 16.1328 18.2076C15.5147 18.2077 14.9219 18.4529 14.4848 18.8891C14.0477 19.3254 13.8021 19.9171 13.8019 20.5341C13.8019 21.1511 14.0475 21.743 14.4846 22.1793C14.9217 22.6157 15.5146 22.8609 16.1328 22.8611C16.7511 22.8611 17.344 22.616 17.7812 22.1797Z" fill="white"/>
</svg>
