<svg width="27" height="29" viewBox="0 0 27 29" fill="none" xmlns="http://www.w3.org/2000/svg">
<path d="M5.54961 0.917239L2.24507 0.862305L2.07563 11.7147L12.928 11.5452L12.873 8.2382L7.68745 8.33665C9.21209 7.18237 11.2261 6.28902 13.5341 6.28902C19.2543 6.28902 23.1392 11.253 23.1392 15.8941C23.1392 20.5351 19.2541 25.4992 13.5341 25.4992C7.81394 25.4992 3.92901 20.5352 3.92901 15.8941V15.3941H0.623535V15.8941C0.623535 22.1264 5.80613 28.8045 13.534 28.8045C21.2618 28.8045 26.4444 22.1264 26.4444 15.8941C26.4444 9.66388 21.2637 2.94527 13.5339 2.94527C10.2888 2.94527 7.53405 4.16253 5.48132 5.79536L5.54961 0.917239Z" fill="#193F3D"/>
</svg>
