<svg width="22" height="23" viewBox="0 0 22 23" fill="none" xmlns="http://www.w3.org/2000/svg">
<path d="M18.9473 21.7963C19.5374 22.3777 20.4871 22.3706 21.0685 21.7805C21.6499 21.1904 21.6429 20.2406 21.0527 19.6592L18.9473 21.7963ZM14.1216 8.5483C14.1216 11.4887 11.7419 13.8688 8.81081 13.8688V16.8688C13.4028 16.8688 17.1216 13.1416 17.1216 8.5483H14.1216ZM8.81081 13.8688C5.87974 13.8688 3.5 11.4887 3.5 8.5483H0.5C0.5 13.1416 4.21886 16.8688 8.81081 16.8688V13.8688ZM3.5 8.5483C3.5 5.60784 5.87974 3.22778 8.81081 3.22778V0.227783C4.21886 0.227783 0.5 3.95502 0.5 8.5483H3.5ZM8.81081 3.22778C11.7419 3.22778 14.1216 5.60784 14.1216 8.5483H17.1216C17.1216 3.95502 13.4028 0.227783 8.81081 0.227783V3.22778ZM14.4473 17.363L18.9473 21.7963L21.0527 19.6592L16.5527 15.2259L14.4473 17.363Z" fill="#073969"/>
</svg>
