<svg width="113" height="174" viewBox="0 0 113 174" fill="none" xmlns="http://www.w3.org/2000/svg">
<path fill-rule="evenodd" clip-rule="evenodd" d="M22.7359 18.0541C27.8111 8.86975 39.3709 5.53863 48.5553 10.6139L51.8873 12.4552C61.0717 17.5304 64.4028 29.0902 59.3275 38.2746L46.7669 61.0047C46.5773 61.3478 46.3787 61.6826 46.1715 62.0092C46.1389 62.071 46.1059 62.133 46.0723 62.1952C36.6439 79.6494 40.0278 102.567 45.511 111.999C45.964 112.624 46.3839 113.284 46.7669 113.977L59.3275 136.707C64.4028 145.891 61.0717 157.451 51.8873 162.526L48.5553 164.368C39.3709 169.443 27.8112 166.112 22.7359 156.927L11.6859 136.931C10.7399 135.684 9.8604 133.976 9.15859 132.056C8.67448 130.848 8.32319 129.613 8.09947 128.369C7.36785 124.932 7.30168 121.328 8.3975 118.665C9.5787 115.794 12.0892 108.611 11.7515 103.417C11.6891 102.456 11.4102 101.084 11.0715 99.4171C10.4282 96.2518 9.56953 92.0261 9.56954 87.5511C9.56956 83.0644 10.473 78.3368 11.1173 74.9658C11.4742 73.098 11.7516 71.6466 11.7516 70.8834C11.7516 68.3709 10.8405 65.8486 9.81401 63.0072C9.06164 60.9244 8.24732 58.6702 7.68445 56.1225C6.88971 52.5255 7.31544 49.0795 8.21949 46.0031C8.60109 44.2202 9.24781 42.4626 10.1752 40.7843L11.0548 39.1926C11.0667 39.1695 11.0785 39.1465 11.0903 39.1235C11.0912 39.1236 11.092 39.1237 11.0928 39.1238L22.7359 18.0541Z" fill="url(#paint0_linear)"/>
<path d="M48.5553 10.6139L50.7318 6.67526L48.5553 10.6139ZM22.7359 18.0541L18.7972 15.8777L18.7972 15.8777L22.7359 18.0541ZM51.8873 12.4552L49.7108 16.3938L51.8873 12.4552ZM59.3275 38.2746L55.3889 36.0981L59.3275 38.2746ZM46.7669 61.0047L42.8282 58.8282L42.8282 58.8282L46.7669 61.0047ZM46.1715 62.0092L42.3717 59.5985L42.2749 59.7511L42.1906 59.911L46.1715 62.0092ZM46.0723 62.1952L50.0316 64.3339L50.0316 64.3338L46.0723 62.1952ZM45.511 111.999L41.6207 114.26L41.7343 114.456L41.8669 114.639L45.511 111.999ZM46.7669 113.977L50.7055 111.8L50.7055 111.8L46.7669 113.977ZM59.3275 136.707L63.2662 134.53H63.2662L59.3275 136.707ZM51.8873 162.526L49.7108 158.588L49.7108 158.588L51.8873 162.526ZM48.5553 164.368L46.3788 160.429L46.3788 160.429L48.5553 164.368ZM22.7359 156.927L18.7972 159.104L22.7359 156.927ZM11.6859 136.931L15.6246 134.754L15.4676 134.47L15.2714 134.212L11.6859 136.931ZM9.15859 132.056L13.3851 130.511L13.3613 130.446L13.3355 130.381L9.15859 132.056ZM8.09947 128.369L12.5285 127.572L12.5158 127.502L12.5008 127.432L8.09947 128.369ZM8.3975 118.665L4.23596 116.952L8.3975 118.665ZM11.7515 103.417L16.2421 103.125L11.7515 103.417ZM11.0715 99.4171L15.4814 98.5209L11.0715 99.4171ZM9.56954 87.5511L14.0695 87.5511L9.56954 87.5511ZM11.1173 74.9658L15.5373 75.8105L15.5373 75.8105L11.1173 74.9658ZM11.7516 70.8834L7.2516 70.8835L7.2516 70.8835L11.7516 70.8834ZM9.81401 63.0072L5.58169 64.5361L9.81401 63.0072ZM7.68445 56.1225L12.0785 55.1517L12.0785 55.1517L7.68445 56.1225ZM8.21949 46.0031L12.5369 47.2718L12.5845 47.1099L12.6198 46.9449L8.21949 46.0031ZM10.1752 40.7843L6.23659 38.6078L6.23658 38.6078L10.1752 40.7843ZM11.0548 39.1926L14.9934 41.3691L15.0261 41.3099L15.057 41.2498L11.0548 39.1926ZM11.0903 39.1235L11.6511 34.6586L8.53033 34.2667L7.08995 37.0627L11.0903 39.1235ZM11.0928 39.1238L10.5321 43.5888L13.5569 43.9686L15.0314 41.3003L11.0928 39.1238ZM50.7318 6.67526C39.3721 0.397942 25.0745 4.51802 18.7972 15.8777L26.6745 20.2306C30.5477 13.2215 39.3697 10.6793 46.3788 14.5525L50.7318 6.67526ZM54.0638 8.51651L50.7318 6.67526L46.3788 14.5525L49.7108 16.3938L54.0638 8.51651ZM63.2661 40.4511C69.5435 29.0914 65.4234 14.7938 54.0638 8.51651L49.7108 16.3938C56.7199 20.267 59.2621 29.0889 55.3889 36.0981L63.2661 40.4511ZM50.7055 63.1812L63.2661 40.4511L55.3889 36.0981L42.8282 58.8282L50.7055 63.1812ZM49.9713 64.42C50.2271 64.0168 50.472 63.6038 50.7055 63.1812L42.8282 58.8282C42.6826 59.0918 42.5303 59.3485 42.3717 59.5985L49.9713 64.42ZM42.1906 59.911C42.1652 59.9592 42.1394 60.0077 42.113 60.0565L50.0316 64.3338C50.0724 64.2583 50.1126 64.1829 50.1524 64.1074L42.1906 59.911ZM42.113 60.0564C36.9155 69.6782 35.3285 80.6253 35.7032 90.2799C36.0751 99.8616 38.4039 108.727 41.6207 114.26L49.4014 109.737C47.1349 105.839 45.0302 98.5296 44.6964 89.9309C44.3655 81.4052 45.8007 72.1663 50.0316 64.3339L42.113 60.0564ZM41.8669 114.639C42.2126 115.116 42.5341 115.621 42.8282 116.153L50.7055 111.8C50.2337 110.946 49.7155 110.132 49.1552 109.359L41.8669 114.639ZM42.8282 116.153L55.3889 138.883L63.2662 134.53L50.7055 111.8L42.8282 116.153ZM55.3889 138.883C59.2621 145.892 56.72 154.714 49.7108 158.588L54.0638 166.465C65.4234 160.188 69.5435 145.89 63.2662 134.53L55.3889 138.883ZM49.7108 158.588L46.3788 160.429L50.7318 168.306L54.0638 166.465L49.7108 158.588ZM46.3788 160.429C39.3697 164.302 30.5478 161.76 26.6745 154.751L18.7972 159.104C25.0745 170.463 39.3721 174.583 50.7318 168.306L46.3788 160.429ZM26.6745 154.751L15.6246 134.754L7.74729 139.107L18.7972 159.104L26.6745 154.751ZM15.2714 134.212C14.6713 133.42 13.9823 132.145 13.3851 130.511L4.93205 133.601C5.7385 135.807 6.80845 137.947 8.10048 139.65L15.2714 134.212ZM13.3355 130.381C12.9661 129.46 12.6987 128.519 12.5285 127.572L3.67048 129.165C3.94768 130.707 4.38283 132.236 4.98169 133.73L13.3355 130.381ZM12.5008 127.432C11.8516 124.382 11.9618 121.828 12.559 120.377L4.23596 116.952C2.6416 120.828 2.88406 125.482 3.69809 129.306L12.5008 127.432ZM12.559 120.377C13.2108 118.793 14.2041 116.086 14.9978 113.05C15.7718 110.089 16.4577 106.442 16.2421 103.125L7.26103 103.709C7.38302 105.585 6.98249 108.126 6.29044 110.773C5.61793 113.346 4.76543 115.666 4.23596 116.952L12.559 120.377ZM16.2421 103.125C16.1548 101.783 15.7909 100.044 15.4814 98.5209L6.66163 100.313C7.02944 102.123 7.22338 103.13 7.26103 103.709L16.2421 103.125ZM15.4814 98.5209C14.8312 95.3216 14.0695 91.5132 14.0695 87.5511L5.06954 87.5511C5.06953 92.5391 6.02529 97.1819 6.66163 100.313L15.4814 98.5209ZM14.0695 87.5511C14.0696 83.5584 14.8812 79.2435 15.5373 75.8105L6.69727 74.1211C6.06487 77.4302 5.06956 82.5704 5.06954 87.5511L14.0695 87.5511ZM15.5373 75.8105C15.7122 74.8953 15.8831 74.0026 16.0084 73.2419C16.1225 72.5498 16.2516 71.6712 16.2516 70.8834L7.2516 70.8835C7.2516 70.8589 7.24205 71.0875 7.12816 71.7789C7.02556 72.4016 6.87933 73.1684 6.69727 74.1211L15.5373 75.8105ZM16.2516 70.8834C16.2516 67.4313 15.0032 64.1273 14.0463 61.4783L5.58169 64.5361C6.67767 67.57 7.25159 69.3105 7.2516 70.8835L16.2516 70.8834ZM14.0463 61.4783C13.2856 59.3724 12.5699 57.3761 12.0785 55.1517L3.29042 57.0934C3.92471 59.9642 4.83769 62.4765 5.58169 64.5361L14.0463 61.4783ZM12.0785 55.1517C11.4928 52.5009 11.7785 49.8525 12.5369 47.2718L3.90205 44.7343C2.85234 48.3064 2.28662 52.5501 3.29042 57.0934L12.0785 55.1517ZM6.23658 38.6078C5.09317 40.677 4.2922 42.8511 3.81915 45.0612L12.6198 46.9449C12.91 45.5893 13.4024 44.2482 14.1139 42.9608L6.23658 38.6078ZM7.11614 37.0161L6.23659 38.6078L14.1139 42.9608L14.9934 41.3691L7.11614 37.0161ZM15.057 41.2498C15.0683 41.2278 15.0796 41.206 15.0907 41.1843L7.08995 37.0627C7.07745 37.087 7.06497 37.1113 7.05253 37.1355L15.057 41.2498ZM10.5296 43.5885C10.5263 43.588 10.5235 43.5877 10.5245 43.5878C10.5245 43.5878 10.5255 43.5879 10.5267 43.5881C10.5279 43.5882 10.5298 43.5885 10.5321 43.5888L11.6535 34.6589C11.6568 34.6593 11.6596 34.6597 11.6587 34.6596C11.6586 34.6596 11.6576 34.6594 11.6565 34.6593C11.6552 34.6591 11.6533 34.6589 11.6511 34.6586L10.5296 43.5885ZM18.7972 15.8777L7.15416 36.9474L15.0314 41.3003L26.6745 20.2306L18.7972 15.8777Z" fill="black"/>
<path d="M61.7533 43.0153L52.6163 30.7755C43.463 36.1786 44.9431 44.6296 46.8273 48.1797L61.7533 43.0153Z" fill="url(#paint1_linear)" stroke="black" stroke-width="5"/>
<path d="M61.7532 131.856L52.6163 144.096C43.463 138.692 44.943 130.241 46.8273 126.691L61.7532 131.856Z" fill="url(#paint2_linear)" stroke="black" stroke-width="5"/>
<path d="M40.0857 5.46616L31.3519 19.6633C39.3687 27.4342 46.9227 22.7719 49.6976 19.4694L40.0857 5.46616Z" fill="url(#paint3_linear)" stroke="black" stroke-width="5"/>
<path d="M40.0857 169.406L31.3519 155.209C39.3687 147.438 46.9227 152.1 49.6976 155.403L40.0857 169.406Z" fill="url(#paint4_linear)" stroke="black" stroke-width="5"/>
<path d="M4.41459 73.9386L20.7586 77.2115C25.2699 66.9987 18.2789 61.5284 14.2194 60.0698L4.41459 73.9386Z" fill="url(#paint5_linear)" stroke="black" stroke-width="5"/>
<path d="M4.4146 100.456L20.7586 97.183C25.2699 107.396 18.2789 112.866 14.2194 114.325L4.4146 100.456Z" fill="url(#paint6_linear)" stroke="black" stroke-width="5"/>
<path d="M8.73127 32.2045L16.2327 45.5096C26.0003 41.3179 25.6101 32.7472 24.194 28.9858L8.73127 32.2045Z" fill="url(#paint7_linear)" stroke="black" stroke-width="5"/>
<path d="M8.73127 142.667L16.2327 129.362C26.0003 133.553 25.6101 142.124 24.194 145.885L8.73127 142.667Z" fill="url(#paint8_linear)" stroke="black" stroke-width="5"/>
<path d="M107.498 87.4163C103.957 77.671 94.4229 56.3218 84.6104 48.8882" stroke="black"/>
<path d="M46.7106 53.7026L80.3726 41.8799C89.1303 50.5827 106.875 71.8637 107.795 87.3647" stroke="black"/>
<path d="M78.6747 135.663L42.9284 123.109L43.0131 51.6005L78.6747 39.2071C91.2812 50.9388 107.795 87.3622 107.795 87.3622C98.5885 107.681 91.8489 118.012 78.6747 135.663Z" fill="url(#paint9_linear)"/>
<path d="M78.6747 135.663L42.9284 123.109L43.0131 51.6005L78.6747 39.2071C91.2812 50.9388 107.795 87.3622 107.795 87.3622C98.5885 107.681 91.8489 118.012 78.6747 135.663Z" fill="#C6C6C6" fill-opacity="0.5"/>
<path d="M78.6747 135.663L42.9284 123.109L43.0131 51.6005L78.6747 39.2071C91.2812 50.9388 107.795 87.3622 107.795 87.3622C98.5885 107.681 91.8489 118.012 78.6747 135.663Z" stroke="black" stroke-width="9"/>
<path d="M66.8459 127.917L36.8409 117.379L36.912 57.356L66.8459 46.9531C77.4277 56.8006 91.2891 87.3739 91.2891 87.3739C83.5613 104.429 77.9042 113.101 66.8459 127.917Z" fill="url(#paint10_linear)" stroke="black" stroke-width="9"/>
<mask id="path-15-inside-1" fill="white">
<path fill-rule="evenodd" clip-rule="evenodd" d="M47.1922 46.1323L78.2422 86.9828L50.019 130.119C30.7593 125.64 16.409 108.369 16.409 87.746C16.409 68.1454 29.3718 51.5724 47.1922 46.1323Z"/>
</mask>
<path fill-rule="evenodd" clip-rule="evenodd" d="M47.1922 46.1323L78.2422 86.9828L50.019 130.119C30.7593 125.64 16.409 108.369 16.409 87.746C16.409 68.1454 29.3718 51.5724 47.1922 46.1323Z" fill="url(#paint11_linear)"/>
<path fill-rule="evenodd" clip-rule="evenodd" d="M47.1922 46.1323L78.2422 86.9828L50.019 130.119C30.7593 125.64 16.409 108.369 16.409 87.746C16.409 68.1454 29.3718 51.5724 47.1922 46.1323Z" fill="#C6C6C6" fill-opacity="0.5"/>
<path d="M78.2422 86.9828L85.7734 91.9104L89.2516 86.5943L85.4073 81.5367L78.2422 86.9828ZM47.1922 46.1323L54.3573 40.6862L50.5624 35.6935L44.5644 37.5245L47.1922 46.1323ZM50.019 130.119L47.9805 138.885L54.1067 140.31L57.5502 135.046L50.019 130.119ZM85.4073 81.5367L54.3573 40.6862L40.027 51.5785L71.077 92.429L85.4073 81.5367ZM57.5502 135.046L85.7734 91.9104L70.711 82.0553L42.4878 125.191L57.5502 135.046ZM52.0575 121.353C36.7831 117.801 25.409 104.091 25.409 87.746L7.40899 87.746C7.409 112.647 24.7355 133.479 47.9805 138.885L52.0575 121.353ZM25.409 87.746C25.409 72.2139 35.6791 59.057 49.8199 54.7402L44.5644 37.5245C23.0645 44.0878 7.40899 64.0769 7.40899 87.746L25.409 87.746Z" fill="black" mask="url(#path-15-inside-1)"/>
<path d="M72.0466 87.2481L106.67 87.248" stroke="black" stroke-width="9"/>
<defs>
<linearGradient id="paint0_linear" x1="61.7012" y1="18.53" x2="11.8511" y2="152.825" gradientUnits="userSpaceOnUse">
<stop stop-color="#9D9D9D"/>
<stop offset="0.0989583" stop-color="#E3E3E3"/>
<stop offset="0.128224" stop-color="#AEAEAE"/>
<stop offset="0.279799" stop-color="#D0D0D0"/>
<stop offset="0.366549" stop-color="#9A9898"/>
<stop offset="0.572917" stop-color="#878787"/>
<stop offset="0.807292" stop-color="#575252"/>
<stop offset="0.885417" stop-color="#959595"/>
<stop offset="1" stop-color="#363636"/>
</linearGradient>
<linearGradient id="paint1_linear" x1="59.2041" y1="35.828" x2="47.9103" y2="46.466" gradientUnits="userSpaceOnUse">
<stop stop-color="#C4C4C4"/>
<stop offset="0.921527" stop-color="#686868"/>
</linearGradient>
<linearGradient id="paint2_linear" x1="59.2041" y1="139.043" x2="47.9103" y2="128.405" gradientUnits="userSpaceOnUse">
<stop stop-color="#C4C4C4"/>
<stop offset="0.921527" stop-color="#686868"/>
</linearGradient>
<linearGradient id="paint3_linear" x1="47.8577" y1="15.4339" x2="36.5585" y2="17.2051" gradientUnits="userSpaceOnUse">
<stop stop-color="#C4C4C4"/>
<stop offset="0.921527" stop-color="#686868"/>
</linearGradient>
<linearGradient id="paint4_linear" x1="47.8577" y1="159.438" x2="36.5585" y2="157.667" gradientUnits="userSpaceOnUse">
<stop stop-color="#C4C4C4"/>
<stop offset="0.921527" stop-color="#686868"/>
</linearGradient>
<linearGradient id="paint5_linear" x1="11.0715" y1="63.1941" x2="16.6484" y2="73.1794" gradientUnits="userSpaceOnUse">
<stop stop-color="#C4C4C4"/>
<stop offset="0.921527" stop-color="#686868"/>
</linearGradient>
<linearGradient id="paint6_linear" x1="11.0715" y1="111.2" x2="16.6484" y2="101.215" gradientUnits="userSpaceOnUse">
<stop stop-color="#C4C4C4"/>
<stop offset="0.921527" stop-color="#686868"/>
</linearGradient>
<linearGradient id="paint7_linear" x1="17.7949" y1="29.7991" x2="17.0115" y2="40.3942" gradientUnits="userSpaceOnUse">
<stop stop-color="#C4C4C4"/>
<stop offset="0.921527" stop-color="#686868"/>
</linearGradient>
<linearGradient id="paint8_linear" x1="17.7949" y1="145.072" x2="17.0115" y2="134.477" gradientUnits="userSpaceOnUse">
<stop stop-color="#C4C4C4"/>
<stop offset="0.921527" stop-color="#686868"/>
</linearGradient>
<linearGradient id="paint9_linear" x1="79.921" y1="43.1184" x2="67.4543" y2="135.664" gradientUnits="userSpaceOnUse">
<stop stop-color="#B5B5B5"/>
<stop offset="0.140625" stop-color="#939393"/>
<stop offset="0.2849" stop-color="#D2D2D2"/>
<stop offset="0.502144" stop-color="#B5B5B5"/>
<stop offset="0.570486" stop-color="#D2D2D2"/>
<stop offset="0.809219" stop-color="#5B5B5B"/>
<stop offset="0.972069" stop-color="#919090"/>
</linearGradient>
<linearGradient id="paint10_linear" x1="78.2007" y1="52.5759" x2="54.5569" y2="118.349" gradientUnits="userSpaceOnUse">
<stop stop-color="#C4C4C4"/>
<stop offset="0.287698" stop-color="#D1D1D1"/>
<stop offset="0.508807" stop-color="#D2D2D2"/>
<stop offset="0.884694" stop-color="#777777"/>
<stop offset="1" stop-color="#AFAFAF"/>
</linearGradient>
<linearGradient id="paint11_linear" x1="62.8323" y1="65.4618" x2="35.7322" y2="112.488" gradientUnits="userSpaceOnUse">
<stop stop-color="#C4C4C4"/>
<stop offset="0.166667" stop-color="#AFAFAF"/>
<stop offset="0.307292" stop-color="#D2D2D2"/>
<stop offset="0.578125" stop-color="#676767"/>
<stop offset="0.921527" stop-color="#686868"/>
</linearGradient>
</defs>
</svg>
