<svg width="149" height="149" viewBox="0 0 149 149" fill="none" xmlns="http://www.w3.org/2000/svg">
<path d="M141.443 78.0637C143.658 41.3705 115.75 9.82637 79.1087 7.60787C42.467 5.38936 10.9671 33.3366 8.75168 70.0298C6.53622 106.723 34.4441 138.267 71.0858 140.486C107.727 142.704 139.227 114.757 141.443 78.0637Z" fill="#DAA047"/>
<path fill-rule="evenodd" clip-rule="evenodd" d="M14.1389 74.0404C14.1389 107.76 41.4348 135.091 75.0979 135.094C108.761 135.097 136.057 107.77 136.057 74.0506C136.057 40.3309 108.761 13 75.0978 12.9972C41.4348 12.9944 14.1389 40.3207 14.1389 74.0404ZM75.0979 146.117C35.3436 146.114 3.12305 113.84 3.12304 74.0395C3.12304 34.239 35.3436 1.9703 75.0978 1.97361C114.852 1.97693 147.073 34.251 147.073 74.0515C147.073 113.852 114.852 146.121 75.0979 146.117Z" fill="black"/>
</svg>
