<svg width="77" height="78" viewBox="0 0 77 78" fill="none" xmlns="http://www.w3.org/2000/svg">
<path d="M38.995 69.2195C55.9459 69.2195 69.6873 55.7155 69.6873 39.0575C69.6873 22.3995 55.9459 8.89551 38.995 8.89551C22.0441 8.89551 8.30273 22.3995 8.30273 39.0575C8.30273 55.7155 22.0441 69.2195 38.995 69.2195Z" fill="#CA0000"/>
<path fill-rule="evenodd" clip-rule="evenodd" d="M63.7614 38.8727C63.7614 24.9233 52.4526 13.6109 38.5 13.6081C24.5474 13.6052 13.2386 24.9131 13.2386 38.8625C13.2386 52.8119 24.5474 64.1243 38.5 64.1271C52.4526 64.13 63.7614 52.8221 63.7614 38.8727ZM38.5 2.3676C58.6573 2.37169 75 18.7156 75 38.875C75 59.0344 58.6573 75.3717 38.5 75.3676C18.3427 75.3635 2 59.0197 2 38.8602C2 18.7008 18.3427 2.36352 38.5 2.3676Z" fill="black"/>
</svg>
