<svg width="163" height="130" viewBox="0 0 163 130" fill="none" xmlns="http://www.w3.org/2000/svg">
<path fill-rule="evenodd" clip-rule="evenodd" d="M29.5551 64.929C29.5551 56.831 22.9903 50.2662 14.8923 50.2662C6.79425 50.2662 0.229492 56.831 0.229492 64.929C0.229492 73.027 6.79425 79.5918 14.8923 79.5918C22.9903 79.5918 29.5551 73.027 29.5551 64.929ZM22.0613 64.9291C22.0613 60.9701 18.8519 57.7606 14.8929 57.7606C10.9338 57.7606 7.72438 60.9701 7.72438 64.9291C7.72438 68.8882 10.9338 72.0976 14.8929 72.0976C18.8519 72.0976 22.0613 68.8882 22.0613 64.9291Z" fill="#C4C4C4"/>
<path d="M98.0435 129.445C148.32 129.445 162.5 100.56 162.5 64.929C162.5 29.2976 148.32 0.412676 98.0435 0.412675C62.4451 0.412675 14.8945 21.0579 14.8945 64.929C14.8945 108.8 62.4451 129.445 98.0435 129.445Z" fill="#BE1A1A"/>
<path d="M95.7026 129.416L95.7026 0.442108C92.0964 0.531998 88.3837 0.828644 84.624 1.3345L84.624 128.524C88.3837 129.029 92.0964 129.326 95.7026 129.416Z" fill="#F3C449"/>
<rect x="41.4497" y="100.934" width="71.6848" height="83.7409" rx="9.28644" transform="rotate(-90 41.4497 100.934)" fill="#032020" stroke="#640000" stroke-width="2.93256"/>
<path fill-rule="evenodd" clip-rule="evenodd" d="M78.0289 50.9154L71.1038 57.8405L67.6846 54.4213L74.6097 47.4962L67.6846 40.571L71.1038 37.1518L78.0289 44.077L84.9541 37.1518L88.3733 40.571L81.4481 47.4962L88.3733 54.4213L84.9541 57.8405L78.0289 50.9154ZM78.0289 86.1061L71.1038 93.0313L67.6846 89.6121L74.6097 82.6869L67.6846 75.7617L71.1038 72.3425L78.0289 79.2677L84.9541 72.3425L88.3733 75.7617L81.4481 82.6869L88.3733 89.6121L84.9541 93.0313L78.0289 86.1061ZM99.6636 52.8877L99.6636 77.3105L94.8281 77.3105L94.8281 52.8877L99.6636 52.8877Z" fill="#00FFA3"/>
<circle cx="144.253" cy="64.9295" r="6.5168" transform="rotate(-90 144.253 64.9295)" fill="#FFD25E" stroke="#5E0909" stroke-width="1.95504"/>
<circle cx="140.017" cy="85.4568" r="6.5168" transform="rotate(-90 140.017 85.4568)" fill="#FFD25E" stroke="#5E0909" stroke-width="1.95504"/>
<circle cx="140.017" cy="44.4011" r="6.5168" transform="rotate(-90 140.017 44.4011)" fill="#FFD25E" stroke="#5E0909" stroke-width="1.95504"/>
</svg>
