<svg width="78" height="77" viewBox="0 0 78 77" fill="none" xmlns="http://www.w3.org/2000/svg">
<path d="M7.49999 38.9876C7.49999 56.1084 21.3792 69.9904 38.5 69.9938C55.6208 69.9972 69.5 56.1208 69.5 39C69.5 21.8792 55.6208 7.99723 38.5 7.99381C21.3792 7.99038 7.5 21.8668 7.49999 38.9876Z" fill="#BFD4EC"/>
<path fill-rule="evenodd" clip-rule="evenodd" d="M64.2614 38.4977C64.2614 24.5483 52.9526 13.2359 39 13.2331C25.0474 13.2302 13.7386 24.5381 13.7386 38.4875C13.7386 52.4369 25.0474 63.7493 39 63.7521C52.9526 63.755 64.2614 52.4471 64.2614 38.4977ZM39 1.9926C59.1573 1.99669 75.5 18.3406 75.5 38.5C75.5 58.6594 59.1573 74.9967 39 74.9926C18.8427 74.9885 2.5 58.6447 2.5 38.4852C2.5 18.3258 18.8427 1.98852 39 1.9926Z" fill="black"/>
</svg>
