<svg width="77" height="77" viewBox="0 0 77 77" fill="none" xmlns="http://www.w3.org/2000/svg">
<path d="M13 39.0104C13 24.651 24.6406 13.0081 39 13.0052C53.3594 13.0023 65 24.6406 65 39C65 53.3594 53.3594 65.0023 39 65.0052C24.6406 65.0081 13 53.3698 13 39.0104Z" fill="#8A510F"/>
<path d="M57.9288 39.0376C57.9288 49.4931 49.453 57.9688 38.9976 57.9688C28.5422 57.9688 20.0664 49.4931 20.0664 39.0376C20.0664 28.5822 28.5422 20.1064 38.9976 20.1064C49.453 20.1064 57.9288 28.5822 57.9288 39.0376Z" fill="url(#paint0_radial_1161_335)"/>
<path d="M48.4902 14.8055C45.5622 13.6696 42.3565 13.0386 39.0246 13.0386C35.6927 13.0386 32.487 13.6696 29.5337 14.8055C30.4172 14.7045 31.3259 14.654 32.2598 14.654C34.6073 14.654 36.8538 14.9822 38.9993 15.6132C49.1969 18.5412 56.6432 27.9311 56.6432 39.0627C56.6432 48.8059 48.7426 56.7065 38.9993 56.7065C29.2561 56.7065 21.3555 48.8059 21.3555 39.0627C21.3555 50.1942 28.8017 59.5841 38.9993 62.5121C41.1449 63.1179 43.4166 63.4713 45.7388 63.4713C46.6475 63.4713 47.5562 63.4208 48.4649 63.3198C58.1577 59.5336 64.9982 50.1185 64.9982 39.0879C65.0234 28.0321 58.1577 18.5917 48.4902 14.8055Z" fill="url(#paint1_linear_1161_335)"/>
<path d="M39.0241 21.419C48.7673 21.419 56.668 29.3197 56.668 39.0629C56.668 27.9314 49.2217 18.5415 39.0241 15.6135C36.8785 15.0077 34.6068 14.6543 32.2846 14.6543C31.3759 14.6543 30.4672 14.7048 29.5585 14.8057C19.8657 18.592 13 28.0323 13 39.0629C13 50.0935 19.8657 59.5086 29.5332 63.2949C32.4613 64.4307 35.667 65.0618 38.9988 65.0618C42.3307 65.0618 45.5364 64.4307 48.4644 63.2949C47.581 63.3958 46.6723 63.4463 45.7383 63.4463C43.3909 63.4463 41.1444 63.1182 38.9988 62.4871C28.8012 59.5591 21.355 50.1692 21.355 39.0377C21.3802 29.3197 29.2808 21.419 39.0241 21.419Z" fill="url(#paint2_linear_1161_335)"/>
<path fill-rule="evenodd" clip-rule="evenodd" d="M63.8977 39.0022C63.8977 52.7702 52.7419 63.9178 39 63.9205C25.2581 63.9233 14.1023 52.7801 14.1023 39.0122C14.1023 25.2442 25.2581 14.0966 39 14.0939C52.7419 14.0911 63.8977 25.2343 63.8977 39.0022ZM39 75.0072C58.891 75.0032 75 58.8736 75 39C75 19.1264 58.891 3.00322 39 3.00719C19.1091 3.01117 3 19.1408 3 39.0144C3 58.8879 19.1091 75.0112 39 75.0072Z" fill="black"/>
<defs>
<radialGradient id="paint0_radial_1161_335" cx="0" cy="0" r="1" gradientUnits="userSpaceOnUse" gradientTransform="translate(38.9976 39.0376) rotate(90) scale(18.9312)">
<stop stop-color="#250418"/>
<stop offset="1" stop-color="#1D1565"/>
</radialGradient>
<linearGradient id="paint1_linear_1161_335" x1="43.2014" y1="63.4401" x2="43.2014" y2="13.0386" gradientUnits="userSpaceOnUse">
<stop stop-color="#662D91"/>
<stop offset="1" stop-color="#9E005D"/>
</linearGradient>
<linearGradient id="paint2_linear_1161_335" x1="34.8266" y1="14.6642" x2="34.8266" y2="65.0657" gradientUnits="userSpaceOnUse">
<stop stop-color="#662D91"/>
<stop offset="1" stop-color="#1B1464"/>
</linearGradient>
</defs>
</svg>
