<svg width="78" height="77" viewBox="0 0 78 77" fill="none" xmlns="http://www.w3.org/2000/svg">
<path d="M12.8763 39.0989C12.8763 45.008 12.5733 50.311 17.6743 54.1494C19.543 55.5636 22.2703 60.3111 24.0885 61.8262C28.7855 65.7151 35.0986 66.6242 41.6643 66.6242C47.5734 66.6242 50.3007 63.4424 54.7956 60.2101C57.3714 58.3414 60.8058 56.9777 62.6239 54.3009C64.3411 51.6747 63.8866 48.6444 64.6441 45.513C65.1492 43.4423 66.6644 40.6645 66.8664 38.4928C67.5229 32.3817 65.7048 30.311 64.0381 26.3211C59.8967 16.4221 57.7754 19.7049 54.7451 17.3817C52.6239 15.7655 52.2199 14.6544 49.6946 13.6948C46.7148 12.5332 43.331 11.119 40.0481 11.9271C33.634 13.5433 30.2501 11.9776 26.3107 14.1493C22.5733 16.22 21.8157 22.1291 17.4723 23.9473C14.1895 25.311 11.9167 31.7251 12.9773 33.3413C14.0379 34.9575 12.8763 37.2807 12.8763 39.0989Z" fill="#C098A4"/>
<path d="M53.8413 22.6849C52.1747 23.897 49.7504 23.998 47.8817 24.9071C45.811 25.9677 46.013 28.998 44.5484 30.6142C43.1847 32.1294 40.71 32.9879 38.6898 32.3314C35.912 31.4223 35.0534 29.4021 33.3362 27.2304C31.316 24.6546 28.7908 25.6142 26.013 25.7657C23.5382 25.9172 21.114 24.301 19.2958 22.7354C22.1241 20.3111 23.1847 15.8667 26.316 14.099C30.2554 11.8768 33.6898 13.4424 40.0534 11.8768C43.3363 11.0687 46.6696 12.5333 49.6999 13.695C52.2252 14.6546 52.6292 15.7152 54.7504 17.3818C55.508 17.9879 56.2656 18.2404 56.9727 18.3919C56.3666 20.1091 55.306 21.6243 53.8413 22.6849Z" fill="#9A718E"/>
<path d="M45.0019 56.4221C44.4969 55.1594 43.4363 54.8059 42.4261 54.0988C38.3857 51.4221 40.1534 46.2705 44.3959 45.1089C46.214 44.6039 48.2342 44.8564 50.1029 44.9069C53.2343 45.0079 53.9413 42.4826 55.6585 40.4119C57.3252 38.4422 59.7494 37.5331 62.1737 36.8261C63.7393 36.3715 64.8505 35.6644 66.1131 34.6038C66.1636 34.5533 66.4666 34.3008 66.8707 33.9473C67.0222 35.2099 67.0727 36.624 66.8707 38.4422C66.6181 40.6645 65.1535 43.3917 64.6484 45.4625C63.8909 48.6443 64.3454 51.6241 62.5777 54.2504C60.7595 56.9271 57.3252 58.2908 54.7494 60.1595C51.9211 62.1797 49.7999 64.1999 47.1736 65.412C46.1635 64.0989 45.507 62.5837 45.507 60.8665C45.507 59.4019 45.608 57.8867 45.0019 56.4221Z" fill="#9A718E"/>
<path d="M36.764 54.8061C36.7135 54.8061 36.7135 54.8061 36.764 54.8061C36.764 54.8566 36.764 54.9071 36.8145 54.9071C37.4711 55.3111 37.9257 55.8162 38.2287 56.4222C38.6327 56.6748 39.0368 56.9273 39.3903 57.3313C41.5115 59.5031 41.158 63.1899 38.2792 64.4526C35.9055 65.5132 32.3196 65.4122 30.2489 63.695C28.0266 61.8768 29.1378 58.5435 30.1479 56.3717C31.3095 53.998 34.6428 52.5839 36.764 54.8061Z" fill="#9A718E"/>
<path d="M52.1693 27.2305C52.4723 26.5739 52.8258 25.9174 53.4319 25.4123C54.543 24.5032 57.0178 24.3517 58.2804 25.0588C60.1996 26.1194 59.6945 28.8467 58.937 30.4123C59.0885 30.0588 58.8865 31.3214 58.8865 31.4224C58.7854 31.877 58.6339 32.3315 58.4824 32.7861C58.1794 33.6952 57.5228 34.4528 56.6642 34.9073C55.9572 35.2608 55.1996 35.4124 54.442 35.5639C53.937 35.6649 53.2804 36.2709 52.7248 36.473C50.9571 37.18 49.0379 36.6245 48.2299 34.8063C47.0177 32.1295 49.2905 28.3416 52.1693 27.2305Z" fill="#9A718E"/>
<path d="M14.9978 26.9777C15.3513 27.9373 15.7048 28.8969 16.4624 29.6544C17.9776 31.3211 20.3008 31.9777 22.2705 33.0383C25.5534 34.7555 30.9069 35.4625 31.614 40.0585C31.8665 41.7252 30.9574 42.7858 29.6948 43.7454C29.1897 44.1494 28.6847 44.8565 28.1291 45.109C27.018 45.6141 25.3008 46.2706 25.1493 47.6343C24.8968 49.8565 25.4523 51.8767 24.8463 54.099C24.3412 56.0181 22.8766 56.6242 21.2604 57.2303C21.1089 57.4323 20.9069 57.5838 20.7049 57.7353C19.5937 56.2202 18.4826 54.7555 17.5735 54.099C12.4725 50.2606 12.7755 44.9575 12.7755 39.0484C12.7755 37.2302 13.9877 34.907 12.8766 33.2908C12.119 32.1292 13.0786 28.4928 14.8968 26.0181C14.9978 26.3716 14.9978 26.6746 14.9978 26.9777Z" fill="#9A718E"/>
<path d="M12.9759 33.341C11.9153 31.7248 14.1881 25.3107 17.4709 23.947C21.8143 22.1288 22.5719 16.2702 26.2588 14.149C28.6831 12.8359 30.8548 12.8864 33.6831 12.7349C29.6427 15.8662 23.077 21.3713 22.9255 24.3006C22.7234 28.543 24.4406 29.1996 22.0669 33.8965C19.7436 38.5935 19.0871 41.1188 20.8042 45.8158C22.5214 50.5127 28.279 48.5935 30.6023 51.3713C32.9255 54.1491 32.1174 55.6138 38.6831 56.6744C45.2993 57.7855 49.3397 55.8663 54.6932 53.5431C59.9963 51.2198 58.5316 50.3612 59.9963 46.3208C60.8549 43.9976 64.1882 42.8865 66.4609 40.3612C65.9054 42.0784 64.9963 43.9976 64.6428 45.5127C63.8852 48.6946 64.3397 51.6744 62.572 54.3006C60.7539 56.9774 57.3195 58.3411 54.7437 60.2097C50.2993 63.4421 47.572 66.6239 41.6124 66.6239C35.0467 66.6239 28.7336 65.7148 24.0366 61.8259C22.2184 60.3108 19.5416 55.5633 17.6224 54.1491C12.5214 50.3107 12.8244 45.0077 12.8244 39.0986C12.8749 37.2804 14.0365 34.9571 12.9759 33.341Z" fill="#9A718E" fill-opacity="0.5"/>
<path opacity="0.3" d="M60.6529 34.7555C58.5317 35.8161 54.8953 38.3919 54.2387 40.5131C53.5822 42.6343 51.0569 46.2707 47.4205 46.6747C43.7841 47.0788 41.4609 47.9373 39.0872 44.5535C36.7639 41.1191 32.9255 43.0383 30.5518 41.1191C28.2286 39.1999 28.6326 33.4424 29.2892 30.0585C29.9457 26.6242 29.2892 24.9575 31.4104 23.8969C33.5316 22.8363 34.1882 20.715 35.9053 18.5938C37.168 16.9777 43.4306 13.9979 46.5619 12.5332C47.6225 12.8867 48.6832 13.2908 49.6933 13.6948C52.2185 14.6544 52.6226 15.715 54.7438 17.3817C57.7741 19.7049 59.8448 16.4221 64.0367 26.3211C64.6428 27.6848 65.1983 28.8464 65.7539 30.0585C64.3903 32.5838 62.0165 34.0484 60.6529 34.7555Z" fill="white"/>
<path opacity="0.3" d="M52.7738 18.7959C51.5112 17.5333 49.1374 17.2807 46.1576 18.1393C43.1778 18.9979 42.5213 21.3211 41.9152 23.6949C41.2586 26.0181 42.1172 29.8565 44.2384 31.5737C46.3597 33.2909 50.8546 33.8969 53.3799 31.5737C55.9556 29.2505 57.6223 30.3111 56.8142 26.4727C55.9556 22.6343 54.0364 20.0585 52.7738 18.7959Z" fill="white"/>
<path fill-rule="evenodd" clip-rule="evenodd" d="M64.7141 39.0027C64.7141 52.7707 53.5583 63.9183 39.8164 63.921C26.0745 63.9238 14.9187 52.7806 14.9187 39.0127C14.9187 25.2447 26.0745 14.0971 39.8164 14.0943C53.5584 14.0916 64.7141 25.2348 64.7141 39.0027ZM39.8164 75.0077C59.7074 75.0037 75.8164 58.874 75.8164 39.0005C75.8164 19.1269 59.7074 3.00371 39.8164 3.00768C19.9255 3.01166 3.81641 19.1413 3.81641 39.0149C3.81641 58.8884 19.9255 75.0117 39.8164 75.0077Z" fill="black"/>
</svg>
