<svg width="74" height="73" viewBox="0 0 74 73" fill="none" xmlns="http://www.w3.org/2000/svg">
<path d="M36.9719 67.0621C53.8072 67.0621 67.4577 53.437 67.461 36.6297C67.4644 19.8223 53.8194 6.19727 36.984 6.19727C20.1487 6.19727 6.49825 19.8223 6.49489 36.6297C6.49153 53.437 20.1365 67.0621 36.9719 67.0621Z" fill="url(#paint0_linear)"/>
<path fill-rule="evenodd" clip-rule="evenodd" d="M36.9831 11.7452C23.2032 11.7452 12.0459 22.895 12.0432 36.6295C12.0404 50.364 23.1932 61.5138 36.9731 61.5138C50.753 61.5138 61.9103 50.364 61.913 36.6295C61.9158 22.895 50.763 11.7452 36.9831 11.7452ZM0.946909 36.6295C0.950883 16.7493 17.0945 0.648926 36.9853 0.648926C56.8761 0.648926 73.0133 16.7493 73.0093 36.6295C73.0053 56.5097 56.8617 72.61 36.9709 72.61C17.0801 72.61 0.942935 56.5097 0.946909 36.6295Z" fill="black"/>
<defs>
<linearGradient id="paint0_linear" x1="67.939" y1="21" x2="13.9462" y2="57.0108" gradientUnits="userSpaceOnUse">
<stop stop-color="#77002D"/>
<stop offset="1" stop-color="#BB0046"/>
</linearGradient>
</defs>
</svg>
