<svg width="149" height="149" viewBox="0 0 149 149" fill="none" xmlns="http://www.w3.org/2000/svg">
<path d="M141.399 78.0314C143.614 41.3713 115.692 9.85458 79.0316 7.63677C42.3717 5.41895 10.8572 33.3399 8.64192 70C6.42667 106.66 34.3496 138.177 71.0095 140.395C107.669 142.612 139.184 114.691 141.399 78.0314Z" fill="url(#paint0_linear)"/>
<path fill-rule="evenodd" clip-rule="evenodd" d="M13.6506 74.622C13.6506 108.308 40.956 135.612 74.6309 135.615C108.306 135.617 135.611 108.318 135.611 74.6322C135.611 40.9461 108.306 13.6425 74.6309 13.6397C40.956 13.6368 13.6506 40.9359 13.6506 74.622ZM74.6309 146.627C34.8627 146.624 2.63086 114.382 2.63086 74.6211C2.63085 34.8603 34.8627 2.62378 74.6309 2.6271C114.399 2.63042 146.631 34.8723 146.631 74.6331C146.631 114.394 114.399 146.63 74.6309 146.627Z" fill="black"/>
<defs>
<linearGradient id="paint0_linear" x1="107.131" y1="19.8789" x2="53.6392" y2="139.383" gradientUnits="userSpaceOnUse">
<stop stop-color="#8A9BF6"/>
<stop offset="1" stop-color="#7C11FF"/>
</linearGradient>
</defs>
</svg>
