<svg width="77" height="78" viewBox="0 0 77 78" fill="none" xmlns="http://www.w3.org/2000/svg">
<path d="M6.99999 39.6208C6.99999 22.5 20.8792 8.61801 38 8.61459C55.1208 8.61117 69 22.4876 69 39.6084C69 56.7292 55.1208 70.6112 38 70.6146C20.8792 70.618 7 56.7416 6.99999 39.6208Z" fill="url(#paint0_linear)"/>
<path d="M38.5 64.6211C52.5833 64.6211 64 53.2044 64 39.1211C64 25.0378 52.5833 13.6211 38.5 13.6211C24.4167 13.6211 13 25.0378 13 39.1211C13 53.2044 24.4167 64.6211 38.5 64.6211Z" fill="#758078"/>
<path fill-rule="evenodd" clip-rule="evenodd" d="M63.7614 39.1188C63.7614 25.1694 52.4526 13.857 38.5 13.8542C24.5474 13.8513 13.2386 25.1592 13.2386 39.1086C13.2386 53.058 24.5474 64.3704 38.5 64.3732C52.4526 64.3761 63.7614 53.0682 63.7614 39.1188ZM38.5 2.6137C58.6573 2.61778 75 18.9616 75 39.1211C75 59.2805 58.6573 75.6178 38.5 75.6137C18.3427 75.6096 2 59.2658 2 39.1063C2 18.9469 18.3427 2.60961 38.5 2.6137Z" fill="black"/>
<defs>
<linearGradient id="paint0_linear" x1="24.5807" y1="13.5227" x2="46.1167" y2="70.629" gradientUnits="userSpaceOnUse">
<stop stop-color="#8A9BF6"/>
<stop offset="1" stop-color="#7C11FF"/>
</linearGradient>
</defs>
</svg>
