<svg width="78" height="78" viewBox="0 0 78 78" fill="none" xmlns="http://www.w3.org/2000/svg">
<path d="M9.45839 57.913C9.34553 59.6728 9.50792 61.2912 10.0499 62.6886C11.5737 66.6179 16.3335 67.4737 19.9748 68.2867C25.4435 69.5076 33.2169 70.5801 41.4766 70.5801C50.8004 70.5801 59.1858 68.8055 67.7555 65.4063C74.3157 61.839 73.7952 49.67 72.7019 41.1226C70.3674 22.8718 69.4665 20.2308 60.5161 14.3911C49.6252 7.28534 32.7931 7.61774 21.3524 9.6185L21.3505 9.61882C16.9212 10.3977 12.927 16.0736 9.79601 18.9202C5.85968 22.4996 9.19041 26.8756 11.2966 30.3185L6.38557 33.9943C2.87883 36.6137 3.71107 42.7292 4.21525 46.4139C4.72891 50.1681 6.0669 54.7287 9.45839 57.913Z" fill="black"/>
<path d="M67.2949 55.1073L63.8938 26.8472C63.8938 26.8472 56.5044 9.3043 22.3403 15.2817L13.6584 23.1737L16.6515 28.0626L16.654 28.0614C17.3245 27.8686 18.0635 27.5302 18.8434 27.1732C20.2939 26.5076 22.0629 25.6966 23.965 25.6966C25.255 25.6966 26.6085 26.0722 27.9595 27.1209C29.5369 28.3438 30.7125 30.2446 31.4701 32.3681L38.072 34.9084C39.1755 35.3326 39.7266 36.5716 39.3011 37.6763C38.8757 38.781 37.6341 39.3296 36.5332 38.9054L32.4541 37.3342C32.5611 39.3457 32.3185 41.264 31.6915 42.7406C31.23 43.8292 29.9735 44.3367 28.885 43.8739C27.7965 43.4112 27.289 42.1547 27.7505 41.0662C28.3924 39.5572 28.3439 37.0431 27.7381 34.7778C27.6871 34.6534 27.651 34.5277 27.6236 34.3959C27.1347 32.7625 26.3572 31.2995 25.3347 30.5034C24.1566 29.5928 23.0507 29.9548 20.6261 31.0657C20.075 31.3169 19.504 31.562 18.9206 31.7897L9.82316 38.5981C9.82316 38.5981 8.19726 52.0993 15.6911 55.2056C15.6911 55.2056 14.4161 60.5349 15.9026 61.1507C22.2632 63.7855 49.2668 68.3286 65.1528 60.2799C66.2263 59.7362 67.2936 56.8324 67.2949 55.1073ZM61.3536 54.7851C61.4867 54.7503 61.621 54.7353 61.7516 54.7353C62.4682 54.7353 63.1201 55.2168 63.3067 55.9433C63.5256 56.8016 63.0081 57.6786 62.1497 57.8963C34.1012 65.073 18.9256 58.8169 18.2936 58.547C17.4775 58.1999 17.0981 57.2557 17.4452 56.4409C17.7923 55.6248 18.7352 55.2454 19.5538 55.5924C19.6993 55.6546 34.3574 61.6906 61.3536 54.7851Z" fill="#583111"/>
<path d="M9.67808 41.3468C10.4989 42.4601 11.6465 43.2918 12.6815 43.8655C15.8322 45.613 24.8921 41.8351 28.1978 37.6475C28.1484 36.7085 27.9928 35.7221 27.7405 34.7789C27.6895 34.6545 27.6535 34.5288 27.6261 34.397C27.1372 32.7636 26.3597 31.3006 25.3371 30.5045C24.1591 29.5939 23.0531 29.9559 20.6286 31.0668C20.0775 31.3181 19.5065 31.5631 18.923 31.7908L9.82561 38.5992C9.82561 38.5992 9.69297 39.7007 9.67808 41.3468Z" fill="#894D20"/>
<path d="M30.0036 29.3759L33.1988 29.985C33.1988 29.985 56.3315 25.4921 64.4004 31.0372L63.8963 26.8484C63.8963 26.8484 56.5069 9.30542 22.3428 15.2829L13.6609 23.1748L16.654 28.0637L16.6564 28.0625C17.3261 27.87 18.064 27.5322 18.8429 27.1757L18.8459 27.1743C20.2964 26.5087 22.0654 25.6977 23.9675 25.6977C25.2575 25.6977 26.611 26.0734 27.962 27.122C28.7412 27.7262 29.4224 28.4957 30.0036 29.3759Z" fill="#894D20"/>
<path d="M61.3561 54.7846C61.4892 54.7498 61.6235 54.7349 61.7542 54.7349C62.4707 54.7349 63.1226 55.2163 63.3092 55.9428C63.5281 56.8012 63.0106 57.6782 62.1523 57.8959C34.1037 65.0725 18.9281 58.8165 18.2961 58.5465C17.4801 58.1994 17.1006 57.2552 17.4477 56.4404C17.7948 55.6243 18.7378 55.2449 19.5563 55.592C19.7019 55.6542 34.3599 61.6901 61.3561 54.7846Z" fill="#010101"/>
<path d="M48.1371 18.5261C48.2677 18.5261 48.402 18.5473 48.5327 18.592C56.8078 21.3761 60.9702 26.7365 62.4481 36.5194L62.5016 36.8777C63.2156 41.5862 63.8887 46.0348 63.8887 51.0021C63.8887 51.69 63.3326 52.2461 62.6447 52.2461C61.9567 52.2461 61.4007 51.69 61.4007 51.0021C61.4007 46.2226 60.7401 41.8636 60.0422 37.2496L59.9887 36.8914C58.6502 28.0465 55.1023 23.4275 47.7378 20.9494C47.0871 20.7305 46.7363 20.0264 46.9553 19.3745C47.1319 18.8545 47.6171 18.5261 48.1371 18.5261Z" fill="#B28832"/>
</svg>
