<svg width="77" height="77" viewBox="0 0 77 77" fill="none" xmlns="http://www.w3.org/2000/svg">
<path d="M13 39.0104C13 24.651 24.6406 13.0081 39 13.0052C53.3594 13.0023 65 24.6406 65 39C65 53.3594 53.3594 65.0023 39 65.0052C24.6406 65.0081 13 53.3698 13 39.0104Z" fill="#8A510F"/>
<path d="M13 39.0104C13 24.651 24.6406 13.0081 39 13.0052C53.3594 13.0023 65 24.6406 65 39C65 53.3594 53.3594 65.0023 39 65.0052C24.6406 65.0081 13 53.3698 13 39.0104Z" fill="url(#paint0_linear)"/>
<path fill-rule="evenodd" clip-rule="evenodd" d="M63.8977 39.0022C63.8977 52.7702 52.7419 63.9178 39 63.9205C25.2581 63.9233 14.1023 52.7801 14.1023 39.0122C14.1023 25.2442 25.2581 14.0966 39 14.0939C52.7419 14.0911 63.8977 25.2343 63.8977 39.0022ZM39 75.0072C58.891 75.0032 75 58.8736 75 39C75 19.1264 58.891 3.00322 39 3.00719C19.1091 3.01117 3 19.1408 3 39.0144C3 58.8879 19.1091 75.0112 39 75.0072Z" fill="black"/>
<defs>
<linearGradient id="paint0_linear" x1="58" y1="18.5" x2="18" y2="55" gradientUnits="userSpaceOnUse">
<stop stop-color="#B00000"/>
<stop offset="1" stop-color="#650000"/>
</linearGradient>
</defs>
</svg>
