<svg width="149" height="149" viewBox="0 0 149 149" fill="none" xmlns="http://www.w3.org/2000/svg">
<path d="M141.641 74.0576C141.641 37.3307 111.868 7.55556 75.1406 7.55299C38.4137 7.55042 8.64062 37.3214 8.64062 74.0483C8.64062 110.775 38.4137 140.55 75.1406 140.553C111.868 140.556 141.641 110.785 141.641 74.0576Z" fill="url(#paint0_linear)" stroke="#080E02" stroke-width="11.014" stroke-miterlimit="10"/>
<path fill-rule="evenodd" clip-rule="evenodd" d="M13.7697 74.4169C13.7697 108.103 41.0752 135.407 74.75 135.409C108.425 135.412 135.73 108.113 135.73 74.4271C135.73 40.741 108.425 13.4374 74.75 13.4346C41.0752 13.4318 13.7697 40.7309 13.7697 74.4169ZM74.75 146.422C34.9818 146.419 2.75 114.177 2.75 74.416C2.75 34.6552 34.9818 2.4187 74.75 2.42202C114.518 2.42534 146.75 34.6672 146.75 74.428C146.75 114.189 114.518 146.425 74.75 146.422Z" fill="black"/>
<defs>
<linearGradient id="paint0_linear" x1="8.64062" y1="74.0483" x2="141.641" y2="74.0483" gradientUnits="userSpaceOnUse">
<stop stop-color="#0A253A"/>
<stop offset="1" stop-color="#134870"/>
</linearGradient>
</defs>
</svg>
