<svg width="134" height="133" viewBox="0 0 134 133" fill="none" xmlns="http://www.w3.org/2000/svg">
<path d="M66.9219 0.00145721L66.9219 66.751L133.422 66.751C133.422 29.905 103.871 -0.000388658 67.4181 -0.000389093C67.2526 -0.000389095 67.0872 0.000228884 66.9219 0.00145721Z" fill="#3DC9F5"/>
<path d="M66.9218 0.00145801L66.9218 66.751L0.421875 66.751C0.421875 29.905 29.9727 -0.000388746 66.4256 -0.000388311C66.5911 -0.000388309 66.7566 0.000229674 66.9218 0.00145801Z" fill="#FFE70B"/>
<path d="M66.9219 132.998L66.9219 66.2486L133.422 66.2486C133.422 103.095 103.871 133 67.4181 133C67.2526 133 67.0872 132.999 66.9219 132.998Z" fill="#FFE70B"/>
<path d="M66.9218 132.998L66.9218 66.2486L0.421876 66.2486C0.421875 103.095 29.9727 133 66.4256 133C66.5911 133 66.7566 132.999 66.9218 132.998Z" fill="#3DC9F5"/>
</svg>
