<svg width="148" height="148" viewBox="0 0 148 148" fill="none" xmlns="http://www.w3.org/2000/svg">
<path d="M140.542 78.2578C142.757 41.5877 114.847 10.0634 78.2034 7.84631C41.5594 5.62921 10.0574 33.5589 7.84179 70.2289C5.62618 106.899 33.536 138.423 70.18 140.64C106.824 142.858 138.326 114.928 140.542 78.2578Z" fill="#C02727"/>
<path fill-rule="evenodd" clip-rule="evenodd" d="M13.229 74.2382C13.229 107.937 40.5267 135.25 74.192 135.253C107.857 135.256 135.155 107.947 135.155 74.2483C135.155 40.5499 107.857 13.2362 74.192 13.2334C40.5267 13.2306 13.229 40.5397 13.229 74.2382ZM74.192 146.27C34.4351 146.266 2.2124 114.013 2.2124 74.2372C2.2124 34.4618 34.4351 2.2135 74.192 2.21682C113.949 2.22014 146.172 34.4738 146.172 74.2493C146.172 114.025 113.949 146.273 74.192 146.27Z" fill="black"/>
</svg>
