<svg width="133" height="133" viewBox="0 0 133 133" fill="none" xmlns="http://www.w3.org/2000/svg">
<mask id="mask0" mask-type="alpha" maskUnits="userSpaceOnUse" x="0" y="0" width="133" height="133">
<path d="M133 66.5C133 103.227 103.207 133 66.5 133C29.7925 133 -9.45589e-07 103.227 -2.11203e-06 66.5C-3.27848e-06 29.7731 29.7925 3.27971e-06 66.5 2.11323e-06C103.207 9.46741e-07 133 29.7731 133 66.5Z" fill="#EDEB7F"/>
</mask>
<g mask="url(#mask0)">
<path d="M-25.6566 -5.60742C-12.5104 -0.892021 -2.34729 7.03289 5.18402 14.5271C1.88665 16.8484 -1.1072 19.4624 -3.74119 22.1892C-3.79755 22.3689 -4.03385 22.4922 -4.09022 22.6719C-8.17668 27.5091 -11.8252 33.4707 -11.8252 33.4707C-16.6119 42.4308 -19.2849 52.8434 -19.4843 64.8214C-19.7509 76.3836 -17.5309 86.9492 -12.8916 96.1023C-9.73508 102.422 -5.53151 107.293 -5.53151 107.293C-2.91267 110.286 0.122394 113.212 3.45013 115.834C-4.4063 123.24 -15.12 130.933 -28.8797 135.105C-28.8797 135.105 -1.10233 144.212 29.7511 129.018C39.3441 131.83 49.9278 133.373 61.2659 133.771C83.2224 134.341 104.036 127.842 119.916 115.65C135.852 103.278 144.795 86.7391 145.302 68.7387C145.753 50.9179 137.508 33.7255 122.006 20.7703C106.683 7.87155 86.272 0.482851 64.3155 -0.0873705C52.7411 -0.362083 41.9645 0.600371 32.3456 2.91285C2.46969 -13.3661 -25.6566 -5.60742 -25.6566 -5.60742Z" fill="#B33E36"/>
<path d="M98.6095 52.5144C98.5857 54.4808 98.5618 56.4472 98.5943 58.2338C95.6308 49.4089 89.9422 44.8613 86.2091 42.9009C84.8823 42.09 83.3301 41.9979 81.7887 42.5014C80.2474 43.0049 79.1331 44.0371 78.3223 45.3618C66.5745 68.3243 77.0217 88.5762 77.5724 89.3411C79.1116 91.9951 82.2941 93.1907 85.1297 91.7114C88.8541 89.9188 94.7399 85.6459 98.0416 77.0095C97.8942 78.7398 97.8704 80.7062 97.8465 82.6725C97.6514 88.3355 97.4174 101.684 106.46 103.731C111.071 104.782 115.526 103.811 119.229 100.827C122.11 98.5728 124.024 95.6203 125.151 92.0261C125.771 90.0493 126.031 87.9597 126.168 85.6339C126.27 84.6789 126.192 83.6675 126.057 82.8358C125.075 71.4741 125.192 64.7997 126.718 53.6326C126.82 52.6777 126.922 51.7227 127.024 50.7677C127.265 44.3294 125.019 38.8877 120.781 35.3872C117.206 32.2921 112.651 31.0609 108.016 31.9758C99.0387 33.5026 98.8046 46.8514 98.6095 52.5144Z" fill="#E3E190"/>
<path d="M15.9587 65.8708C2.23805 62.3569 -8.49958 55.6335 -17.1886 46.7893C-18.7559 52.4166 -19.48 58.5059 -19.7769 65.1239C-20.0176 71.5621 -19.3693 77.687 -17.9558 83.2624C-8.80517 74.8815 2.23375 68.6719 15.9587 65.8708Z" fill="#E3E190"/>
<path d="M70.2211 81.904C69.8743 79.2291 69.4255 77.5093 69.4255 77.5093C69.4255 77.5093 29.0353 56.9456 6.0687 86.0613C6.0687 86.0613 14.517 84.9607 23.943 85.1537C16.0649 91.3678 8.72444 100.909 3.45001 115.835C-4.40643 123.24 -15.1201 130.933 -28.8798 135.105C-28.8798 135.105 -1.10246 144.212 29.751 129.019C49.5417 122.001 59.7503 112.768 65.2567 104.033C80.805 116.213 98.547 111.316 98.547 111.316C79.0121 106.176 72.2742 89.8512 70.2211 81.904Z" fill="#E3E190"/>
<path d="M66.6592 27.0973C61.7164 17.6515 51.7679 8.41224 32.2893 3.09239C2.46976 -13.3663 -25.6565 -5.60758 -25.6565 -5.60758C-12.5104 -0.892175 -2.34723 7.03273 5.18408 14.5269C9.921 29.0401 16.9559 38.7473 24.8254 45.1632C15.8719 44.7236 7.90925 43.0157 7.90925 43.0157C27.2817 71.9886 65.4345 58.0975 69.8787 56.5306C70.115 56.4073 70.2949 56.4638 70.2949 56.4638C70.2949 56.4638 72.5516 29.7349 98.2368 22.1975C98.2932 22.0178 80.9976 15.4088 66.6592 27.0973Z" fill="#E3E190"/>
<path d="M54.4501 100.051C48.4624 105.279 39.9794 107.75 29.3611 107.578C31.7067 98.8391 39.5241 82.7367 63.7308 82.4336C62.8052 87.2753 60.4942 94.6433 54.4501 100.051Z" fill="#393535"/>
<path d="M55.9803 33.419C50.2137 27.86 42.0493 24.9045 31.1947 24.8556C33.2585 33.3983 40.3 50.016 64.5392 51.4996C63.7327 46.5094 61.7469 38.9781 55.9803 33.419Z" fill="#393535"/>
<path d="M104.279 52.7128C104.21 55.4544 104.32 58.2525 104.251 60.9941C104.294 63.3764 104.338 65.7586 104.257 67.9047C104.177 70.0508 104.041 72.3766 103.904 74.7024C103.655 77.3876 103.585 80.1293 103.516 82.8709C103.217 92.6464 104.62 97.6262 107.555 98.3495C110.49 99.0727 113.28 98.3687 115.633 96.5405C118.57 94.1062 120.35 90.322 120.443 85.614C120.489 84.8387 120.534 84.0634 120.343 83.4114C119.418 71.8701 119.58 64.4204 120.983 53.0172C121.028 52.2419 121.074 51.4666 121.119 50.6914C121.212 45.9833 119.652 42.1382 116.864 39.6847C114.503 37.7599 111.804 36.9134 108.834 37.5609C106.156 37.9055 104.578 42.9373 104.279 52.7128Z" fill="#393535"/>
<path d="M82.7714 86.6284C86.9684 84.5893 93.316 79.4742 94.8877 67.5319C93.8947 55.5747 87.8918 50.1389 83.6752 47.8295C73.0764 68.3889 82.7714 86.6284 82.7714 86.6284Z" fill="#393535"/>
</g>
</svg>
