<svg width="73" height="73" viewBox="0 0 73 73" fill="none" xmlns="http://www.w3.org/2000/svg">
<path d="M36.8078 66.69C53.6431 66.69 67.2936 53.065 67.297 36.2576C67.3003 19.4503 53.6553 5.8252 36.82 5.8252C19.9846 5.8252 6.33419 19.4503 6.33083 36.2576C6.32747 53.065 19.9725 66.69 36.8078 66.69Z" fill="#F8C137"/>
<path fill-rule="evenodd" clip-rule="evenodd" d="M36.819 11.3736C23.0391 11.3736 11.8819 22.5234 11.8791 36.2579C11.8764 49.9924 23.0292 61.1422 36.8091 61.1422C50.5889 61.1422 61.7462 49.9924 61.749 36.2579C61.7517 22.5234 50.5989 11.3736 36.819 11.3736ZM0.782847 36.2579C0.786821 16.3777 16.9305 0.277344 36.8212 0.277344C56.712 0.277344 72.8492 16.3777 72.8452 36.2579C72.8413 56.1381 56.6976 72.2385 36.8069 72.2385C16.9161 72.2385 0.778873 56.1381 0.782847 36.2579Z" fill="black"/>
</svg>
