<svg width="133" height="134" viewBox="0 0 133 134" fill="none" xmlns="http://www.w3.org/2000/svg">
<path d="M66.5 133.242C29.7731 133.242 3.55541e-07 103.45 7.93604e-07 66.7422C1.23167e-06 30.0347 29.7731 0.242188 66.5 0.242188C103.227 0.242189 133 30.0347 133 66.7422C133 103.45 103.227 133.242 66.5 133.242Z" fill="#212124"/>
<mask id="mask0" mask-type="alpha" maskUnits="userSpaceOnUse" x="0" y="0" width="133" height="134">
<path d="M66.5 133.242C29.7731 133.242 3.55541e-07 103.45 7.93604e-07 66.7422C1.23167e-06 30.0347 29.7731 0.242188 66.5 0.242188C103.227 0.242189 133 30.0347 133 66.7422C133 103.45 103.227 133.242 66.5 133.242Z" fill="#2A292E"/>
</mask>
<g mask="url(#mask0)">
<path d="M73.6691 61.4496L26.4355 72.4846L38.7664 83.1031L64.0552 72.0681L75.5501 114.75L32.0367 125.577C36.76 128.326 41.8596 130.533 47.21 132.073L90.5979 121.829L73.6691 61.4496Z" fill="#00FFFF"/>
<path d="M68.0684 20.434L98.1641 125.911L81.1516 133.157L81.2352 133.24C90.6819 131.158 99.4181 127.161 106.984 121.664L85.9168 27.9294L82.2802 28.7206L80.9008 23.3905L99.9615 23.3905L99.9615 26.5969L92.0195 28.2625L96.7011 56.0373L110.704 54.0801L107.235 11.6477C102.595 8.23308 97.5371 5.40147 92.1031 3.19449L68.361 9.64889L68.0684 20.434Z" fill="#F22200"/>
<path d="M126.044 100.386C128.761 95.6386 130.935 90.5584 132.439 85.1867L120.986 85.4365L126.044 100.386Z" fill="white"/>
<path d="M135.032 66.532C135.032 63.0341 134.781 59.6195 134.238 56.2466L130.769 42.8797C129.431 39.2986 127.801 35.8423 125.92 32.5943L132.984 83.1885C134.322 77.8584 135.032 72.2785 135.032 66.532Z" fill="white"/>
<path d="M97.3281 61.5332L112.501 117.166C116.64 113.46 120.318 109.213 123.411 104.59L114.048 79.8554L128.26 79.3141L121.99 26.4296C119.566 23.0983 116.849 19.9752 113.839 17.1436L116.807 59.3263L97.3281 61.5332Z" fill="#83F416"/>
<path d="M80.3572 -0.345473C75.8846 -1.26158 71.2866 -1.71965 66.5215 -1.76129L66.9395 2.69434L80.3572 -0.345473Z" fill="#83F416"/>
<path d="M40.2309 14.8941L16.9485 19.3497C14.2316 22.1813 11.7654 25.2211 9.5918 28.4691L16.5723 66.5293L68.9472 54.5782L58.9153 30.4263L29.6556 33.7576L30.7842 39.046L47.7548 41.836L23.2603 45.4588L17.7009 29.0938L60.8799 21.057L59.6259 -1.34602C52.729 -0.638122 46.1246 1.06918 39.9801 3.6093L40.2309 14.8941Z" fill="#FF6700"/>
<path d="M35.1735 5.77385C30.7427 8.06412 26.6045 10.7708 22.8008 13.9355L35.2571 11.3122L35.1735 5.77385Z" fill="#D5E500"/>
<path d="M5.91263 34.5047C1.23107 43.2494 -1.5695 53.1183 -2.0293 63.5703L9.84179 60.9886L5.91263 34.5047Z" fill="#D5E500"/>
<path d="M20.7933 91.8069L34.0856 86.2687L21.8383 72.9434L12.099 74.6091L10.7614 65.9477L-2.0293 68.696C-1.9039 73.11 -1.3187 77.3991 -0.399112 81.5632L3.90625 81.2301L3.90625 94.4303C7.20842 101.801 11.8064 108.505 17.4075 114.21L29.6548 109.296L20.7933 91.8069Z" fill="#83F416"/>
<path d="M60.8381 79.3131L28.2344 94.5954L37.1795 108.462L53.8994 103.757L48.8834 92.0969L55.864 89.89L61.1725 106.546L29.6974 114.875L21.6719 118.206C23.1767 119.497 24.765 120.746 26.3534 121.912L70.6192 111.002L60.8381 79.3131Z" fill="#C300F2"/>
</g>
</svg>
