<svg width="77" height="78" viewBox="0 0 77 78" fill="none" xmlns="http://www.w3.org/2000/svg">
<path d="M63.999 39.7819C63.999 25.4225 52.3584 13.7795 37.999 13.7767C23.6396 13.7738 11.999 25.4121 11.999 39.7715C11.999 54.1309 23.6396 65.7738 37.999 65.7767C52.3584 65.7795 63.999 54.1413 63.999 39.7819Z" fill="url(#paint0_linear_1762_315)"/>
<path d="M63.999 39.7819C63.999 25.4225 52.3584 13.7795 37.999 13.7767C23.6396 13.7738 11.999 25.4121 11.999 39.7715C11.999 54.1309 23.6396 65.7738 37.999 65.7767C52.3584 65.7795 63.999 54.1413 63.999 39.7819Z" fill="#D5D5D5"/>
<circle cx="38.0219" cy="39.5742" r="28.4258" fill="url(#paint1_radial_1762_315)"/>
<path d="M38.1953 37.8319C37.0347 37.8876 36.6302 39.0583 37.2446 39.7789C37.5121 40.0937 37.8755 40.23 38.2286 40.2191C38.8 40.2014 39.3444 39.7981 39.4116 39.1417C39.4672 38.6235 39.126 37.8777 38.1959 37.832L38.1953 37.8319Z" fill="#FF9FA5" fill-opacity="0.5"/>
<path d="M41.3661 39.7789C41.6294 40.0933 41.9862 40.2297 42.3325 40.2191C42.8942 40.202 43.4285 39.7986 43.4926 39.1417C43.5431 38.626 43.2044 37.8777 42.292 37.832L42.2915 37.8319C41.1537 37.8876 40.7618 39.0583 41.3661 39.7789Z" fill="#FF9FA5" fill-opacity="0.5"/>
<path d="M39.8237 42.9395C40.0791 43.2423 40.4226 43.3793 40.7603 43.3784C41.3389 43.3768 41.9002 42.9704 41.9705 42.2998C42.0261 41.7764 41.6873 41.0203 40.7644 40.9748L40.763 40.9749L40.7621 40.9748C39.6336 41.0345 39.2274 42.2294 39.8237 42.9395Z" fill="#FF9FA5" fill-opacity="0.5"/>
<path d="M36.322 43.7157C36.7027 44.1607 37.2761 44.2476 37.7396 44.0654C37.7583 44.0582 37.7767 44.0505 37.795 44.0423C38.1612 43.8781 38.448 43.5412 38.4965 43.0785C38.5521 42.5579 38.2061 41.8049 37.2717 41.7562C37.2712 41.7561 37.2707 41.7561 37.2702 41.7561C36.1298 41.8142 35.7177 43.0077 36.322 43.7157Z" fill="#FF9FA5" fill-opacity="0.5"/>
<path d="M34.4654 39.617C33.3604 39.6726 32.9735 40.8054 33.5576 41.5058C34.2277 42.3073 35.5273 41.9205 35.6335 40.8888C35.6866 40.3856 35.3605 39.66 34.4654 39.617Z" fill="#FF9FA5" fill-opacity="0.5"/>
<path d="M34.4803 36.1479C33.3779 36.201 32.9885 37.3186 33.5675 38.0064C34.2174 38.7776 35.5347 38.3907 35.6409 37.397C35.694 36.9065 35.3704 36.1934 34.4803 36.1479Z" fill="#FF9FA5" fill-opacity="0.5"/>
<path d="M37.2773 34.0188C36.1673 34.0719 35.7805 35.1769 36.3645 35.8571C37.022 36.6207 38.3469 36.2389 38.4481 35.2553C38.4986 34.7673 38.1699 34.0618 37.2773 34.0188Z" fill="#FF9FA5" fill-opacity="0.5"/>
<path d="M40.741 34.7774C40.4113 34.7934 40.1466 34.9048 39.9535 35.0713C39.5039 35.459 39.4424 36.1457 39.8509 36.6233C40.3147 37.1675 41.0739 37.1534 41.5293 36.7579C41.732 36.5819 41.8745 36.3304 41.9041 36.019C41.9547 35.5284 41.6234 34.8179 40.741 34.7774Z" fill="#FF9FA5" fill-opacity="0.5"/>
<path d="M45.4344 39.7561C46.0943 40.5576 47.3586 40.1708 47.4547 39.1366C47.5027 38.6334 47.1765 37.9077 46.3093 37.8622C45.227 37.9178 44.8579 39.0557 45.4344 39.7561Z" fill="#FF9FA5" fill-opacity="0.5"/>
<path d="M44.6378 43.2633C45.2927 44.0623 46.567 43.6754 46.6732 42.6438C46.7263 42.1381 46.4052 41.4048 45.5329 41.3593C44.4658 41.4124 44.0764 42.5755 44.6378 43.2633Z" fill="#FF9FA5" fill-opacity="0.5"/>
<path d="M44.4404 45.4302C44.496 44.9295 44.1774 44.2064 43.2924 44.1634C42.2127 44.2165 41.8158 45.3644 42.3822 46.0421C43.0396 46.8285 44.3266 46.4466 44.4404 45.4302Z" fill="#FF9FA5" fill-opacity="0.5"/>
<path d="M39.1084 47.5668C39.7657 48.3312 41.0385 47.9751 41.1834 47.0055C41.1857 46.9904 41.1876 46.9753 41.1893 46.96C41.245 46.4644 40.9213 45.7463 40.0262 45.7007C39.5631 45.7242 39.2243 45.9405 39.0309 46.2331C39.0207 46.2485 39.0109 46.2641 39.0015 46.2799C38.9778 46.3197 38.9567 46.3608 38.9383 46.4029C38.7739 46.7783 38.819 47.2307 39.1084 47.5668Z" fill="#FF9FA5" fill-opacity="0.5"/>
<path d="M37.5432 46.9624C37.5963 46.4668 37.26 45.7487 36.3548 45.7032C35.2549 45.7563 34.863 46.8942 35.4471 47.5667C36.1222 48.3506 37.437 47.9713 37.5432 46.9624Z" fill="#FF9FA5" fill-opacity="0.5"/>
<path d="M34.2098 45.4276C34.2578 44.9371 33.9316 44.2266 33.0517 44.1861C31.9897 44.2392 31.613 45.3644 32.1794 46.0294C32.8393 46.8031 34.1112 46.4289 34.2098 45.4276Z" fill="#FF9FA5" fill-opacity="0.5"/>
<path d="M31.9119 42.6386C31.9599 42.1532 31.6439 41.4477 30.7943 41.4047C29.7601 41.4578 29.3909 42.5729 29.9371 43.2379C30.5768 44.0066 31.8133 43.6323 31.9119 42.6386Z" fill="#FF9FA5" fill-opacity="0.5"/>
<path d="M31.1123 39.1316C31.1654 38.6487 30.8569 37.9483 30.0124 37.9053C28.9656 37.9584 28.5964 39.0532 29.1426 39.7258C29.7722 40.5046 31.0061 40.1304 31.1123 39.1316Z" fill="#FF9FA5" fill-opacity="0.5"/>
<path d="M29.9851 36.2465C30.5818 36.9772 31.8132 36.6106 31.9194 35.6725C31.9725 35.2072 31.6766 34.5347 30.8498 34.4942C29.8258 34.5448 29.4541 35.5966 29.9851 36.2465Z" fill="#FF9FA5" fill-opacity="0.5"/>
<path d="M32.2253 33.5308C32.8448 34.2742 34.1217 33.9051 34.233 32.9493C34.2886 32.479 33.9801 31.7963 33.123 31.7533C32.061 31.8038 31.6741 32.8734 32.2253 33.5308Z" fill="#FF9FA5" fill-opacity="0.5"/>
<path d="M35.4976 32.0238C36.1272 32.7545 37.3991 32.3904 37.5002 31.4524C37.5508 30.9896 37.2347 30.3221 36.3775 30.2816C35.3206 30.3297 34.9439 31.379 35.4976 32.0238Z" fill="#FF9FA5" fill-opacity="0.5"/>
<path d="M39.1337 32.0238C39.781 32.7672 41.0199 32.4107 41.111 31.4524C41.1539 30.9896 40.8354 30.3221 39.9908 30.2816C38.9314 30.3297 38.5723 31.379 39.1337 32.0238Z" fill="#FF9FA5" fill-opacity="0.5"/>
<path d="M42.3622 33.5434C43.0297 34.3171 44.2864 33.9454 44.3723 32.9492C44.4128 32.4688 44.0841 31.7709 43.2168 31.7279C42.1624 31.781 41.7983 32.8885 42.3622 33.5434Z" fill="#FF9FA5" fill-opacity="0.5"/>
<path d="M46.6106 35.6776C46.6511 35.1946 46.3249 34.4942 45.4753 34.4513C44.4159 34.5044 44.0644 35.5992 44.6333 36.2743C45.2882 37.0506 46.5272 36.6764 46.6106 35.6776Z" fill="#FF9FA5" fill-opacity="0.5"/>
<path d="M51.3157 39.1316C51.3562 38.6487 51.0502 37.9483 50.2361 37.9053C49.2196 37.9584 48.8782 39.0532 49.4193 39.7258C50.0439 40.4995 51.2298 40.1278 51.3157 39.1316Z" fill="#FF9FA5" fill-opacity="0.5"/>
<path d="M50.8046 42.7068C50.8551 42.2188 50.5568 41.5134 49.7401 41.4704C48.7337 41.5235 48.3671 42.6411 48.8955 43.3011C49.5074 44.0672 50.7034 43.693 50.8046 42.7068Z" fill="#FF9FA5" fill-opacity="0.5"/>
<path d="M48.2006 44.7221C47.1993 44.7752 46.8225 45.8625 47.3409 46.5072C47.9402 47.2532 49.1362 46.8891 49.2499 45.9257C49.3056 45.4529 49.0173 44.7651 48.2006 44.7221Z" fill="#FF9FA5" fill-opacity="0.5"/>
<path d="M46.8481 48.5123C46.9087 48.0294 46.6104 47.3315 45.7583 47.2885C44.719 47.3416 44.3246 48.4466 44.8606 49.1014C45.4827 49.86 46.7267 49.4908 46.8481 48.5123Z" fill="#FF9FA5" fill-opacity="0.5"/>
<path d="M43.7255 50.252C43.7811 49.7842 43.4853 49.1066 42.6407 49.0661C41.6091 49.1167 41.2197 50.1888 41.7583 50.826C42.3803 51.5567 43.6117 51.1977 43.7255 50.252Z" fill="#FF9FA5" fill-opacity="0.5"/>
<path d="M40.2181 51.0181C40.2385 50.8398 40.2054 50.6306 40.1086 50.4381C39.9529 50.1285 39.6326 49.8622 39.1056 49.8373C38.1546 49.8832 37.7524 50.7681 38.102 51.4037C38.1372 51.4677 38.1801 51.5292 38.2307 51.587C38.8679 52.3178 40.1119 51.9612 40.2181 51.0181Z" fill="#FF9FA5" fill-opacity="0.5"/>
<path d="M36.5695 50.7603C36.615 50.3027 36.3015 49.6402 35.457 49.5997C34.4355 49.6503 34.0764 50.6971 34.6226 51.3191C35.2547 52.0398 36.4734 51.6908 36.5695 50.7603Z" fill="#FF9FA5" fill-opacity="0.5"/>
<path d="M33.1738 49.4935C33.2168 49.0333 32.9007 48.3658 32.0688 48.3253C31.0599 48.3759 30.7135 49.4303 31.2571 50.0574C31.8893 50.7831 33.0878 50.4316 33.1738 49.4935Z" fill="#FF9FA5" fill-opacity="0.5"/>
<path d="M30.3318 47.3113C30.3723 46.846 30.0587 46.1684 29.2344 46.1279C28.2382 46.1785 27.8968 47.2481 28.4354 47.8827C29.0625 48.6185 30.2509 48.262 30.3318 47.3113Z" fill="#FF9FA5" fill-opacity="0.5"/>
<path d="M28.2527 44.3756C28.2932 43.9155 27.9973 43.2505 27.2084 43.21C26.2476 43.258 25.9138 44.3124 26.4296 44.937C27.0238 45.6627 28.1693 45.3112 28.2527 44.3756Z" fill="#FF9FA5" fill-opacity="0.5"/>
<path d="M26.167 39.7561C25.196 39.8066 24.8572 40.8535 25.3705 41.5008C25.9571 42.2391 27.0975 41.8826 27.1936 40.9293C27.2391 40.4666 26.9508 39.7965 26.167 39.7561Z" fill="#FF9FA5" fill-opacity="0.5"/>
<path d="M26.215 36.1832C25.2466 36.2338 24.8951 37.2629 25.3958 37.8975C25.9723 38.6283 27.1152 38.2768 27.2239 37.3362C27.2719 36.8836 26.9938 36.2237 26.215 36.1832Z" fill="#FF9FA5" fill-opacity="0.5"/>
<path d="M26.4978 34.5069C27.049 35.1997 28.202 34.8533 28.3158 33.9632C28.3714 33.5207 28.1034 32.881 27.3322 32.8406C26.3891 32.8886 26.0174 33.9051 26.4978 34.5069Z" fill="#FF9FA5" fill-opacity="0.5"/>
<path d="M29.3909 29.9858C28.4174 30.0339 28.0482 31.0276 28.5413 31.6395C29.0975 32.3298 30.2708 31.9859 30.3871 31.0984C30.4453 30.6609 30.1747 30.0238 29.3909 29.9858Z" fill="#FF9FA5" fill-opacity="0.5"/>
<path d="M32.2022 27.8872C31.2515 27.9327 30.8798 28.9163 31.3627 29.4979C31.9215 30.1705 33.0897 29.8367 33.201 28.9694C33.2541 28.5421 32.981 27.9251 32.2022 27.8872Z" fill="#FF9FA5" fill-opacity="0.5"/>
<path d="M35.5196 26.6634C34.5411 26.7089 34.1871 27.6698 34.6953 28.2615C35.2718 28.934 36.4476 28.6003 36.5487 27.7381C36.5942 27.3133 36.3085 26.7014 35.5196 26.6634Z" fill="#FF9FA5" fill-opacity="0.5"/>
<path d="M39.0772 26.4054C38.1063 26.4509 37.7573 27.4345 38.2706 28.0161C38.8623 28.6887 40.0431 28.3524 40.1266 27.4876C40.1695 27.0603 39.8687 26.4433 39.0772 26.4054Z" fill="#FF9FA5" fill-opacity="0.5"/>
<path d="M42.5269 27.1462C41.5711 27.1917 41.2424 28.1803 41.7582 28.767C42.3701 29.4598 43.5105 29.126 43.5788 28.236C43.6142 27.8061 43.3108 27.1841 42.5269 27.1462Z" fill="#FF9FA5" fill-opacity="0.5"/>
<path d="M45.5985 28.7949C44.6199 28.8429 44.2963 29.8746 44.8298 30.4865C45.4468 31.192 46.6276 30.8405 46.6883 29.9327C46.7186 29.4852 46.4 28.8354 45.5985 28.7949Z" fill="#FF9FA5" fill-opacity="0.5"/>
<path d="M48.0466 31.3182C47.0731 31.3663 46.7672 32.3802 47.3007 33.0023C47.9151 33.7204 49.0479 33.3765 49.1086 32.451C49.139 32.006 48.8279 31.3587 48.0466 31.3182Z" fill="#FF9FA5" fill-opacity="0.5"/>
<path d="M48.8728 36.1808C49.4923 36.9242 50.6504 36.5651 50.7212 35.6068C50.7541 35.1416 50.4456 34.469 49.6491 34.4285C48.6528 34.4791 48.3317 35.5335 48.8728 36.1808Z" fill="#FF9FA5" fill-opacity="0.5"/>
<path d="M55.0736 39.1265C55.1115 38.6637 54.8233 37.9937 54.0622 37.9507C53.0887 38.0013 52.7853 39.1568 53.3719 39.7738C53.9813 40.416 55.0003 40.0292 55.0736 39.1265Z" fill="#FF9FA5" fill-opacity="0.5"/>
<path d="M54.704 42.7246C54.752 42.2568 54.4764 41.5791 53.7103 41.5387C52.7772 41.5893 52.4308 42.6614 52.9214 43.296C53.4903 44.0369 54.6054 43.6753 54.704 42.7246Z" fill="#FF9FA5" fill-opacity="0.5"/>
<path d="M53.5206 46.1027C53.5763 45.6476 53.3133 44.9876 52.5522 44.9471C51.6192 44.9952 51.2601 46.0395 51.738 46.659C52.2892 47.3771 53.4068 47.0281 53.5206 46.1027Z" fill="#FF9FA5" fill-opacity="0.5"/>
<path d="M51.629 49.0864C51.6897 48.6337 51.4293 47.9789 50.653 47.9384C49.7048 47.9864 49.328 49.0231 49.8085 49.6376C50.3647 50.3506 51.5051 50.0042 51.629 49.0864Z" fill="#FF9FA5" fill-opacity="0.5"/>
<path d="M49.1134 51.539C49.1766 51.0915 48.9136 50.4467 48.1323 50.4062C47.174 50.4543 46.7947 51.4783 47.2777 52.0827C47.8365 52.7805 48.9844 52.4392 49.1134 51.539Z" fill="#FF9FA5" fill-opacity="0.5"/>
<path d="M46.1019 53.3569C46.1626 52.922 45.8971 52.2899 45.1158 52.252C44.16 52.3 43.7833 53.2988 44.2738 53.8879C44.8352 54.5681 45.9806 54.2343 46.1019 53.3569Z" fill="#FF9FA5" fill-opacity="0.5"/>
<path d="M42.7798 54.4721C42.8355 54.0372 42.5548 53.4025 41.7558 53.3646C40.7772 53.4101 40.4081 54.414 40.9138 55.0056C41.4979 55.6883 42.666 55.3546 42.7798 54.4721Z" fill="#FF9FA5" fill-opacity="0.5"/>
<path d="M39.2474 54.8513C39.2954 54.4164 39.0021 53.7868 38.1905 53.7464C37.1968 53.7944 36.8377 54.7907 37.3662 55.3823C37.968 56.06 39.1463 55.7287 39.2474 54.8513Z" fill="#FF9FA5" fill-opacity="0.5"/>
<path d="M35.6614 54.4721C35.7044 54.0422 35.401 53.4151 34.5969 53.3772C33.626 53.4253 33.2922 54.4139 33.8156 55.0005C34.4199 55.6782 35.5755 55.3469 35.6614 54.4721Z" fill="#FF9FA5" fill-opacity="0.5"/>
<path d="M32.2483 53.3544C32.2837 52.9271 31.9828 52.3101 31.204 52.2722C30.2659 52.3177 29.9575 53.2963 30.4733 53.8753C31.0675 54.5454 32.18 54.2192 32.2483 53.3544Z" fill="#FF9FA5" fill-opacity="0.5"/>
<path d="M29.2417 51.539C29.272 51.0915 28.961 50.4467 28.1696 50.4062C27.2087 50.4543 26.9003 51.4783 27.4312 52.0827C28.0431 52.7805 29.1785 52.4392 29.2417 51.539Z" fill="#FF9FA5" fill-opacity="0.5"/>
<path d="M26.66 49.0838C26.6904 48.6464 26.392 48.0117 25.6309 47.9713C25.012 48.0036 24.6744 48.4692 24.6741 48.9514C24.674 49.1864 24.7539 49.4252 24.9204 49.6199C25.507 50.3102 26.5968 49.9739 26.66 49.0838Z" fill="#FF9FA5" fill-opacity="0.5"/>
<path d="M24.7107 46.0976C24.7111 46.0924 24.7114 46.0873 24.7117 46.0821C24.7368 45.6478 24.4516 45.0301 23.722 44.9901C22.8269 45.0381 22.526 46.0369 23.014 46.6311C23.0289 46.6492 23.0441 46.6666 23.0596 46.6833C23.6355 47.3034 24.6442 46.9618 24.7107 46.0976Z" fill="#FF9FA5" fill-opacity="0.5"/>
<path d="M23.5326 42.7195C23.5419 42.616 23.5342 42.5018 23.5077 42.3868C23.4197 42.005 23.1241 41.6153 22.5566 41.5842C21.6564 41.6323 21.3378 42.6589 21.8182 43.2682C22.0412 43.5507 22.3459 43.6658 22.6369 43.644C22.6651 43.6419 22.6932 43.6385 22.7211 43.6339C23.092 43.5719 23.4246 43.2872 23.5142 42.8456C23.5224 42.8049 23.5286 42.7628 23.5326 42.7195Z" fill="#FF9FA5" fill-opacity="0.5"/>
<path d="M23.153 39.1239C23.201 38.6789 22.938 38.0367 22.2022 37.9962C21.2869 38.0443 20.9584 39.0505 21.4337 39.67C21.9774 40.3805 23.0544 40.0393 23.153 39.1239Z" fill="#FF9FA5" fill-opacity="0.5"/>
<path d="M21.8862 36.1099C22.3995 36.7876 23.4867 36.4488 23.5955 35.5764C23.6511 35.144 23.4008 34.5195 22.6751 34.4816C21.7724 34.5296 21.4285 35.5081 21.8862 36.1099Z" fill="#FF9FA5" fill-opacity="0.5"/>
<path d="M24.8191 32.2691C24.8772 31.8549 24.6426 31.2563 23.9362 31.2173L23.9352 31.2173L23.9341 31.2173C23.0694 31.2628 22.7103 32.2135 23.1402 32.7799C23.2234 32.8886 23.3228 32.9699 23.431 33.0261C23.9674 33.3041 24.7223 32.9634 24.8191 32.2691Z" fill="#FF9FA5" fill-opacity="0.5"/>
<path d="M25.8964 28.2993C24.9811 28.3448 24.6145 29.2956 25.0645 29.8822C25.5728 30.5447 26.6803 30.2134 26.8092 29.3638C26.8699 28.9441 26.6297 28.3347 25.8964 28.2993Z" fill="#FF9FA5" fill-opacity="0.5"/>
<path d="M28.4351 25.9326C27.5147 25.9781 27.148 26.9111 27.6007 27.4876C28.1139 28.14 29.229 27.8138 29.3529 26.9769C29.4136 26.5647 29.1709 25.968 28.4351 25.9326Z" fill="#FF9FA5" fill-opacity="0.5"/>
<path d="M31.4134 24.2132C30.5183 24.2562 30.1719 25.1462 30.6195 25.6949C31.1277 26.3169 32.2099 26.0084 32.3237 25.2094C32.3768 24.815 32.1315 24.246 31.4134 24.2132Z" fill="#FF9FA5" fill-opacity="0.5"/>
<path d="M34.7081 23.1183C33.8029 23.1613 33.454 24.0766 33.9167 24.6202C34.4552 25.2499 35.5678 24.9388 35.6689 24.1297C35.717 23.7302 35.4515 23.1512 34.7081 23.1183Z" fill="#FF9FA5" fill-opacity="0.5"/>
<path d="M38.1826 22.7466C37.2596 22.7896 36.9208 23.7125 37.4088 24.2587C37.9702 24.8908 39.0954 24.5748 39.1763 23.7631C39.2167 23.3611 38.9335 22.782 38.1826 22.7466Z" fill="#FF9FA5" fill-opacity="0.5"/>
<path d="M41.6264 23.1057C40.7161 23.1487 40.4051 24.0741 40.8982 24.6253C41.4671 25.26 42.567 24.9439 42.6302 24.1272C42.6631 23.7252 42.3698 23.1411 41.6264 23.1057Z" fill="#FF9FA5" fill-opacity="0.5"/>
<path d="M44.8958 24.193C44.0083 24.2359 43.72 25.1589 44.2131 25.7076C44.7795 26.3397 45.8517 26.0261 45.8972 25.2094C45.92 24.8074 45.624 24.2258 44.8958 24.193Z" fill="#FF9FA5" fill-opacity="0.5"/>
<path d="M47.8569 25.9224C46.9568 25.9679 46.6786 26.9262 47.1843 27.4926C47.7684 28.15 48.8481 27.8213 48.886 26.9768C48.9037 26.5621 48.5978 25.9603 47.8569 25.9224Z" fill="#FF9FA5" fill-opacity="0.5"/>
<path d="M50.3772 28.2564C49.4341 28.3044 49.1559 29.2956 49.6894 29.9075C50.2887 30.5978 51.3987 30.2539 51.4392 29.3664C51.4569 28.9289 51.1408 28.2968 50.3772 28.2564Z" fill="#FF9FA5" fill-opacity="0.5"/>
<path d="M51.7199 32.8785C52.3318 33.4802 53.3053 33.1187 53.3482 32.2741C53.3685 31.8418 53.0676 31.2147 52.3318 31.1768C51.3912 31.2248 51.1358 32.302 51.7199 32.8785Z" fill="#FF9FA5" fill-opacity="0.5"/>
<path d="M52.9396 36.2112C53.554 36.8357 54.5528 36.459 54.6084 35.5816C54.6362 35.1315 54.3404 34.4791 53.5869 34.4387C52.626 34.4892 52.3504 35.6119 52.9396 36.2112Z" fill="#FF9FA5" fill-opacity="0.5"/>
<path d="M57.1386 39.7434C57.2096 39.8201 57.2865 39.8815 57.3667 39.9284C57.9293 40.2573 58.6588 39.8782 58.7164 39.1214C58.7295 38.9566 58.7006 38.7647 58.6231 38.5864C58.4913 38.2832 58.219 38.0191 57.7732 37.9937C56.8705 38.0468 56.5924 39.1543 57.1386 39.7434Z" fill="#FF9FA5" fill-opacity="0.5"/>
<path d="M57.5155 41.5944C56.6052 41.6449 56.3018 42.76 56.8378 43.3517C57.3916 43.9636 58.3473 43.5919 58.4358 42.7322C58.4788 42.2821 58.226 41.6323 57.5155 41.5944Z" fill="#FF9FA5" fill-opacity="0.5"/>
<path d="M55.822 46.7145C56.3198 47.3857 57.3246 47.0793 57.4702 46.2372C57.4733 46.2195 57.4759 46.2016 57.4782 46.1835C57.503 45.9895 57.469 45.7563 57.3613 45.5539C57.3597 45.5509 57.3581 45.5479 57.3565 45.545C57.329 45.4945 57.2969 45.446 57.2598 45.4007C57.1155 45.2236 56.897 45.0936 56.5907 45.076C56.2197 45.0966 55.9451 45.2922 55.7869 45.5555C55.5764 45.9061 55.5723 46.3767 55.822 46.7145Z" fill="#FF9FA5" fill-opacity="0.5"/>
<path d="M55.045 48.2468C54.1575 48.2948 53.7883 49.2987 54.2308 49.8929C54.7416 50.5806 55.8111 50.2469 55.9426 49.3568C56.0058 48.9194 55.7707 48.2873 55.045 48.2468Z" fill="#FF9FA5" fill-opacity="0.5"/>
<path d="M53.8422 52.156C53.9104 51.7262 53.6778 51.1041 52.9496 51.0662C52.0545 51.1143 51.6777 52.0979 52.1152 52.682C52.6209 53.3571 53.7031 53.0258 53.8422 52.156Z" fill="#FF9FA5" fill-opacity="0.5"/>
<path d="M49.5461 55.0234C50.0543 55.6859 51.1441 55.3622 51.2857 54.5076C51.3565 54.0853 51.1214 53.4709 50.3881 53.4355C49.4854 53.4785 49.1061 54.4469 49.5461 55.0234Z" fill="#FF9FA5" fill-opacity="0.5"/>
<path d="M48.3874 56.3534C48.4557 55.9286 48.2129 55.3091 47.4518 55.2711C46.5213 55.3167 46.137 56.2952 46.5997 56.8717C47.1282 57.5367 48.2483 57.2105 48.3874 56.3534Z" fill="#FF9FA5" fill-opacity="0.5"/>
<path d="M45.1537 57.6479C45.2144 57.2433 44.9691 56.6592 44.2333 56.6238C43.3332 56.6668 42.9741 57.5922 43.4292 58.1409C43.9552 58.768 45.0323 58.4595 45.1537 57.6479Z" fill="#FF9FA5" fill-opacity="0.5"/>
<path d="M41.7856 58.3787C41.7919 58.33 41.7938 58.2786 41.7908 58.2259C41.7687 57.8385 41.4855 57.3782 40.8222 57.3471C40.1239 57.3796 39.7557 57.9201 39.8247 58.4201C39.8257 58.4273 39.8267 58.4345 39.8279 58.4417C39.853 58.5949 39.9196 58.7436 40.0308 58.8718C40.5795 59.5039 41.6794 59.1954 41.7856 58.3787Z" fill="#FF9FA5" fill-opacity="0.5"/>
<path d="M37.2972 57.4962C36.3642 57.5392 36.0355 58.4672 36.5311 59.0184C37.1 59.6505 38.2075 59.3395 38.2985 58.5228C38.3441 58.1207 38.0634 57.5316 37.2972 57.4962Z" fill="#FF9FA5" fill-opacity="0.5"/>
<path d="M33.7858 57.0638C32.878 57.1068 32.5771 58.0297 33.0727 58.5759C33.6442 59.2055 34.7213 58.8995 34.7921 58.0854C34.8275 57.6833 34.5393 57.1018 33.7858 57.0638Z" fill="#FF9FA5" fill-opacity="0.5"/>
<path d="M30.4355 56.0601C29.5606 56.1031 29.285 57.0108 29.773 57.5494C30.3369 58.1714 31.3711 57.868 31.4242 57.0639C31.452 56.6695 31.1637 56.0955 30.4355 56.0601Z" fill="#FF9FA5" fill-opacity="0.5"/>
<path d="M27.33 54.462C26.4526 54.5049 26.1871 55.4354 26.6853 55.9867C27.2567 56.6239 28.2884 56.3103 28.3339 55.4911C28.3516 55.0865 28.0557 54.4974 27.33 54.462Z" fill="#FF9FA5" fill-opacity="0.5"/>
<path d="M24.5508 52.3431C23.6835 52.3861 23.423 53.3317 23.9186 53.8931C24.4901 54.5404 25.5091 54.2243 25.547 53.3874C25.5672 52.9752 25.2714 52.3785 24.5508 52.3431Z" fill="#FF9FA5" fill-opacity="0.5"/>
<path d="M23.1732 50.8058C23.1934 50.3911 22.9052 49.7893 22.1972 49.7514C21.3451 49.7969 21.0872 50.7476 21.5701 51.3115C22.1289 51.9638 23.1327 51.6478 23.1732 50.8058Z" fill="#FF9FA5" fill-opacity="0.5"/>
<path d="M21.335 47.812C21.3602 47.3796 21.0745 46.7525 20.3589 46.7146C20.3584 46.7146 20.3578 46.7146 20.3573 46.7147C20.301 46.7177 20.2472 46.7247 20.196 46.7353C19.4206 46.8953 19.2336 47.8755 19.7622 48.4112C20.3463 49.0004 21.2869 48.6413 21.335 47.812Z" fill="#FF9FA5" fill-opacity="0.5"/>
<path d="M20.018 44.4795C20.0198 44.4543 20.0206 44.4285 20.0203 44.4022C20.0157 43.9888 19.7473 43.4482 19.1103 43.4149C18.243 43.463 17.9851 44.5073 18.5135 45.0635C18.5346 45.0858 18.5563 45.1067 18.5784 45.1262C19.1259 45.6098 19.9621 45.2572 20.018 44.4795Z" fill="#FF9FA5" fill-opacity="0.5"/>
<path d="M17.8757 41.5183C17.9089 41.5551 17.9437 41.5881 17.9796 41.6175C18.5168 42.0585 19.3168 41.697 19.3903 40.9267C19.4281 40.5291 19.2136 39.9677 18.6346 39.8662C18.5949 39.8593 18.5535 39.8545 18.5104 39.852C17.6481 39.8976 17.3675 40.9545 17.8757 41.5183Z" fill="#FF9FA5" fill-opacity="0.5"/>
<path d="M17.9141 37.9052C18.0869 38.0983 18.3044 38.1879 18.5207 38.191C18.5472 38.1915 18.5737 38.1906 18.6002 38.1885C19.0011 38.1554 19.3789 37.8299 19.4388 37.3236C19.4607 37.1428 19.4294 36.9268 19.3322 36.7372C19.2103 36.4996 18.9847 36.3035 18.6305 36.2701C18.63 36.27 18.6295 36.27 18.629 36.2699C18.6149 36.2686 18.6007 36.2675 18.5862 36.2667L18.5857 36.2667C18.5852 36.2667 18.5847 36.2667 18.5841 36.2667C17.727 36.3147 17.421 37.3539 17.9141 37.9052Z" fill="#FF9FA5" fill-opacity="0.5"/>
<path d="M18.5738 34.34C19.0315 34.9721 20.0302 34.656 20.1465 33.8418C20.2047 33.4373 19.9873 32.8532 19.3248 32.8178C18.7375 32.8501 18.4002 33.32 18.4 33.7917C18.3999 33.9425 18.4343 34.0935 18.5061 34.2304C18.5258 34.2681 18.5484 34.3047 18.5738 34.34Z" fill="#FF9FA5" fill-opacity="0.5"/>
<path d="M21.517 30.5978C21.5235 30.5568 21.5273 30.5139 21.5281 30.47L21.5281 30.4693C21.5283 30.4578 21.5283 30.4462 21.5281 30.4345C21.5207 30.0469 21.2811 29.592 20.6851 29.5611C20.0832 29.5932 19.7271 30.0616 19.7122 30.5355C19.7059 30.7345 19.7598 30.9345 19.881 31.1035C20.3463 31.7458 21.3855 31.4246 21.517 30.5978Z" fill="#FF9FA5" fill-opacity="0.5"/>
<path d="M21.8002 28.1553C22.2452 28.7647 23.2541 28.4612 23.3881 27.6774C23.4538 27.2905 23.2516 26.7292 22.5916 26.6938C21.78 26.7343 21.4159 27.6268 21.8002 28.1553Z" fill="#FF9FA5" fill-opacity="0.5"/>
<path d="M24.1672 25.6367C24.6122 26.2385 25.6262 25.9401 25.7627 25.1689C25.8285 24.7896 25.6262 24.2384 24.9637 24.2055C24.1495 24.246 23.7829 25.1183 24.1672 25.6367Z" fill="#FF9FA5" fill-opacity="0.5"/>
<path d="M26.9154 23.5912C27.368 24.1828 28.3845 23.8895 28.516 23.1284C28.5792 22.7568 28.3694 22.2156 27.7044 22.1827C26.8851 22.2231 26.526 23.0829 26.9154 23.5912Z" fill="#FF9FA5" fill-opacity="0.5"/>
<path d="M29.9673 22.0538C30.43 22.6303 31.4389 22.3446 31.5552 21.6063C31.6134 21.2422 31.3934 20.7162 30.7284 20.6834C29.9142 20.7213 29.5703 21.5582 29.9673 22.0538Z" fill="#FF9FA5" fill-opacity="0.5"/>
<path d="M33.2143 21.0753C33.7023 21.6543 34.7264 21.3661 34.825 20.6252C34.873 20.2611 34.6379 19.7352 33.9577 19.7023C33.1283 19.7402 32.7946 20.5772 33.2143 21.0753Z" fill="#FF9FA5" fill-opacity="0.5"/>
<path d="M36.6027 20.6555C37.1185 21.237 38.1577 20.9488 38.2386 20.2029C38.2791 19.8362 38.0212 19.3052 37.3284 19.2749C36.4585 19.3128 36.1475 20.1447 36.6027 20.6555Z" fill="#FF9FA5" fill-opacity="0.5"/>
<path d="M40.0282 20.7973C40.5541 21.3763 41.5706 21.088 41.6287 20.3446C41.6566 19.978 41.3885 19.4445 40.7033 19.4141C39.8613 19.4521 39.5756 20.2966 40.0282 20.7973Z" fill="#FF9FA5" fill-opacity="0.5"/>
<path d="M43.353 21.5052C43.8891 22.0893 44.8853 21.7985 44.9207 21.0475C44.9384 20.6784 44.6603 20.1423 43.9801 20.112C43.1533 20.1499 42.8928 20.9995 43.353 21.5052Z" fill="#FF9FA5" fill-opacity="0.5"/>
<path d="M46.4714 22.7922C47.0378 23.4117 48.0669 23.1032 48.0896 22.3067C48.0997 21.9148 47.7988 21.3484 47.0934 21.313C46.2387 21.356 45.9834 22.2562 46.4714 22.7922Z" fill="#FF9FA5" fill-opacity="0.5"/>
<path d="M49.9731 23.1032C49.1008 23.1462 48.8934 24.1196 49.4522 24.6355C50.0287 25.169 50.939 24.8378 50.9516 24.0919C50.9592 23.7 50.6583 23.1386 49.9731 23.1032Z" fill="#FF9FA5" fill-opacity="0.5"/>
<path d="M53.5156 26.37C53.5206 25.968 53.2172 25.3864 52.5269 25.351C51.647 25.3965 51.4422 26.3978 52.0086 26.9314C52.6053 27.4927 53.5055 27.1564 53.5156 26.37Z" fill="#FF9FA5" fill-opacity="0.5"/>
<path d="M54.6661 28.0212C53.7583 28.0692 53.5409 29.1261 54.1224 29.6875C54.7343 30.2791 55.6648 29.9226 55.6825 29.0958C55.6826 29.0909 55.6827 29.0861 55.6827 29.0812C55.6827 29.0807 55.6827 29.0801 55.6827 29.0796C55.6826 29.0313 55.6786 28.9808 55.6704 28.9292C55.6064 28.5283 55.2918 28.0543 54.6661 28.0212Z" fill="#FF9FA5" fill-opacity="0.5"/>
<path d="M56.3095 31.1363C56.309 31.1363 56.3084 31.1363 56.3079 31.1364C55.442 31.1831 55.2201 32.2138 55.7684 32.7646C55.9819 32.9791 56.2399 33.0658 56.4811 33.0486C56.8883 33.0194 57.2479 32.6938 57.2653 32.1856C57.278 31.7709 56.9897 31.1742 56.3095 31.1363Z" fill="#FF9FA5" fill-opacity="0.5"/>
<path d="M57.3615 34.4714C56.79 34.5023 56.4833 34.9574 56.4829 35.4304C56.4826 35.6942 56.5775 35.9635 56.7749 36.1681C57.3514 36.7673 58.2743 36.4058 58.3173 35.5638C58.3425 35.1339 58.0593 34.5094 57.3615 34.4714Z" fill="#FF9FA5" fill-opacity="0.5"/>
<path d="M62.239 39.1189C62.2694 38.6941 62.019 38.0771 61.3641 38.0417C60.5297 38.0898 60.2794 39.1492 60.7826 39.7131C61.311 40.2997 62.1809 39.9457 62.239 39.1189Z" fill="#FF9FA5" fill-opacity="0.5"/>
<path d="M60.5377 43.3264C61.0484 43.9105 61.9309 43.5565 62.0118 42.7322C62.0548 42.3024 61.8196 41.6804 61.1673 41.645C60.3253 41.693 60.0446 42.7601 60.5377 43.3264Z" fill="#FF9FA5" fill-opacity="0.5"/>
<path d="M61.2124 46.2266C61.2655 45.8094 61.0481 45.2076 60.3982 45.1697C59.5638 45.2177 59.2579 46.2519 59.7332 46.8031C60.2238 47.372 61.1088 47.0256 61.2124 46.2266Z" fill="#FF9FA5" fill-opacity="0.5"/>
<path d="M59.915 49.5061C59.9807 49.0813 59.7708 48.4694 59.0957 48.4315C58.2664 48.477 57.9124 49.448 58.3144 50.022C58.7797 50.6895 59.781 50.3658 59.915 49.5061Z" fill="#FF9FA5" fill-opacity="0.5"/>
<path d="M57.3006 51.4455C56.4662 51.491 56.0945 52.4417 56.4914 53.0056C56.9491 53.6554 57.9605 53.3368 58.1072 52.4974C58.1805 52.0827 57.9782 51.4809 57.3006 51.4455Z" fill="#FF9FA5" fill-opacity="0.5"/>
<path d="M55.0807 54.103C54.2311 54.1459 53.8468 55.0916 54.2463 55.6529C54.7065 56.2977 55.7407 55.9817 55.8949 55.1498C55.9733 54.7351 55.771 54.1384 55.0807 54.103Z" fill="#FF9FA5" fill-opacity="0.5"/>
<path d="M52.4986 56.424C51.6819 56.4645 51.3127 57.3545 51.6971 57.8779C52.1396 58.4823 53.1333 58.1864 53.285 57.4051C53.3583 57.0208 53.1636 56.4594 52.4986 56.424Z" fill="#FF9FA5" fill-opacity="0.5"/>
<path d="M49.6343 58.2523C48.7796 58.2953 48.4029 59.198 48.81 59.7315C49.2778 60.3434 50.3119 60.0425 50.4611 59.2511C50.537 58.8591 50.3296 58.2877 49.6343 58.2523Z" fill="#FF9FA5" fill-opacity="0.5"/>
<path d="M46.5396 59.6936C45.7077 59.7341 45.3537 60.5938 45.7608 61.1071C46.2286 61.6911 47.2324 61.4029 47.3639 60.6469C47.4296 60.2726 47.2198 59.729 46.5396 59.6936Z" fill="#FF9FA5" fill-opacity="0.5"/>
<path d="M43.2801 60.6316C42.4153 60.6721 42.1422 61.504 42.4659 61.9819C42.9185 62.6519 44.0184 62.394 44.1448 61.5874C44.203 61.2107 43.9754 60.6645 43.2801 60.6316Z" fill="#FF9FA5" fill-opacity="0.5"/>
<path d="M39.899 61.107C39.0797 61.1449 38.7358 61.9288 39.11 62.4497C39.5905 63.1147 40.6954 62.8568 40.8016 62.0577C40.8497 61.6835 40.6019 61.1424 39.899 61.107Z" fill="#FF9FA5" fill-opacity="0.5"/>
<path d="M36.4481 61.107C35.5833 61.1475 35.2849 62.0072 35.7477 62.5154C36.2812 63.0995 37.3103 62.8138 37.3887 62.0577C37.4291 61.6835 37.1636 61.1424 36.4481 61.107Z" fill="#FF9FA5" fill-opacity="0.5"/>
<path d="M33.0375 60.6418C32.1955 60.6823 31.9275 61.5369 32.3952 62.0426C32.9313 62.6242 33.9275 62.3384 33.9832 61.5875C34.0135 61.2158 33.7379 60.6747 33.0375 60.6418Z" fill="#FF9FA5" fill-opacity="0.5"/>
<path d="M29.7527 59.7037C28.931 59.7442 28.6882 60.5963 29.156 61.0995C29.6946 61.6785 30.658 61.3928 30.6959 60.6469C30.7161 60.2752 30.4354 59.7366 29.7527 59.7037Z" fill="#FF9FA5" fill-opacity="0.5"/>
<path d="M26.6423 58.2852C25.8206 58.3256 25.5905 59.1979 26.0684 59.7163C26.6171 60.3105 27.5779 60.0197 27.6032 59.2511C27.6158 58.8692 27.325 58.318 26.6423 58.2852Z" fill="#FF9FA5" fill-opacity="0.5"/>
<path d="M23.76 56.4571C22.9737 56.4976 22.7638 57.3522 23.224 57.8605C23.755 58.4446 24.6726 58.1587 24.6878 57.4052C24.6954 57.031 24.4124 56.49 23.76 56.4571Z" fill="#FF9FA5" fill-opacity="0.5"/>
<path d="M21.1655 54.1459C20.3159 54.1914 20.1263 55.17 20.6775 55.6908C21.2439 56.2269 22.1061 55.8982 22.1187 55.1447C22.1288 54.7527 21.8381 54.1813 21.1655 54.1459Z" fill="#FF9FA5" fill-opacity="0.5"/>
<path d="M18.9355 51.4885C18.1036 51.534 17.9089 52.5201 18.4449 53.0435C18.9987 53.5846 19.8483 53.2559 19.866 52.4948C19.8786 52.0978 19.5954 51.5239 18.9355 51.4885Z" fill="#FF9FA5" fill-opacity="0.5"/>
<path d="M18.0456 49.501C18.0608 49.0964 17.7877 48.5123 17.1328 48.4769C16.3034 48.5225 16.0961 49.5263 16.622 50.0623C17.1657 50.6136 18.0178 50.2798 18.0456 49.501Z" fill="#FF9FA5" fill-opacity="0.5"/>
<path d="M16.6673 46.219C16.69 45.8271 16.4423 45.2582 15.8228 45.2228C15.0364 45.2683 14.8162 46.2442 15.3042 46.7626C15.8099 47.3012 16.6243 46.975 16.6673 46.219Z" fill="#FF9FA5" fill-opacity="0.5"/>
<path d="M15.8779 42.7271C15.9108 42.3226 15.6756 41.7359 15.0511 41.7005C14.2546 41.746 14.0093 42.7524 14.4872 43.2885C14.9854 43.8397 15.8147 43.5059 15.8779 42.7271Z" fill="#FF9FA5" fill-opacity="0.5"/>
<path d="M14.2446 39.6727C14.7251 40.2289 15.562 39.8926 15.6455 39.1138C15.6884 38.7143 15.471 38.1328 14.8515 38.0974C14.0601 38.1404 13.7845 39.1417 14.2446 39.6727Z" fill="#FF9FA5" fill-opacity="0.5"/>
<path d="M15.9798 35.5512C16.0329 35.1618 15.8331 34.598 15.2238 34.5651C14.4424 34.6081 14.1441 35.579 14.584 36.0949C15.0442 36.6334 15.8786 36.3072 15.9798 35.5512Z" fill="#FF9FA5" fill-opacity="0.5"/>
<path d="M15.436 32.5953C15.8482 33.1996 16.7483 32.9088 16.8722 32.13C16.9329 31.7533 16.7483 31.2096 16.1491 31.1768C15.4133 31.2172 15.0846 32.082 15.436 32.5953Z" fill="#FF9FA5" fill-opacity="0.5"/>
<path d="M16.8261 29.4043C17.2282 29.9986 18.1688 29.7002 18.3079 28.9366C18.3761 28.5598 18.1991 28.0137 17.5872 27.9808C16.8312 28.0212 16.4797 28.8885 16.8261 29.4043Z" fill="#FF9FA5" fill-opacity="0.5"/>
<path d="M18.6924 26.4839C19.0868 27.0655 20.0325 26.7747 20.1817 26.0288C20.255 25.6596 20.083 25.1261 19.4711 25.0932C18.7176 25.1337 18.351 25.9807 18.6924 26.4839Z" fill="#FF9FA5" fill-opacity="0.5"/>
<path d="M20.9433 23.9122C21.3428 24.4887 22.3037 24.203 22.4554 23.4596C22.5313 23.0955 22.3593 22.5645 21.7373 22.5316C20.9737 22.5721 20.602 23.4141 20.9433 23.9122Z" fill="#FF9FA5" fill-opacity="0.5"/>
<path d="M23.5473 21.6947C23.9367 22.2408 24.8672 21.9703 25.0113 21.2673C25.0821 20.9235 24.9127 20.4228 24.3109 20.3925C23.5701 20.4304 23.2135 21.2244 23.5473 21.6947Z" fill="#FF9FA5" fill-opacity="0.5"/>
<path d="M26.3645 19.9222C26.7741 20.4734 27.7299 20.2004 27.8664 19.4924C27.9347 19.146 27.7501 18.6428 27.1332 18.6099C26.3695 18.6504 26.013 19.4494 26.3645 19.9222Z" fill="#FF9FA5" fill-opacity="0.5"/>
<path d="M29.4115 18.5594C29.8261 19.0904 30.7592 18.8274 30.8805 18.1473C30.9387 17.8135 30.7465 17.328 30.1371 17.3002C29.3862 17.3331 29.0549 18.1017 29.4115 18.5594Z" fill="#FF9FA5" fill-opacity="0.5"/>
<path d="M32.5743 17.6567C33.0142 18.1902 33.9624 17.9273 34.0636 17.242C34.1142 16.9083 33.9042 16.4228 33.2771 16.395C32.516 16.4304 32.1975 17.199 32.5743 17.6567Z" fill="#FF9FA5" fill-opacity="0.5"/>
<path d="M35.8437 17.2066C36.314 17.7426 37.2774 17.4796 37.3583 16.7893C37.3988 16.453 37.1661 15.965 36.5239 15.9347C35.74 15.9726 35.4417 16.7489 35.8437 17.2066Z" fill="#FF9FA5" fill-opacity="0.5"/>
<path d="M39.1712 17.2066C39.6567 17.7401 40.5998 17.4771 40.6554 16.7893C40.6833 16.453 40.4355 15.965 39.8008 15.9347C39.0245 15.9726 38.754 16.7489 39.1712 17.2066Z" fill="#FF9FA5" fill-opacity="0.5"/>
<path d="M42.4385 17.6617C42.9367 18.1977 43.8571 17.9297 43.8899 17.2445C43.9051 16.9057 43.6447 16.4177 43.0176 16.3873C42.2514 16.4227 42.0112 17.2015 42.4385 17.6617Z" fill="#FF9FA5" fill-opacity="0.5"/>
<path d="M45.6092 18.5645C46.1098 19.1005 47.0049 18.835 47.015 18.1473C47.0226 17.8084 46.7521 17.3204 46.1376 17.2901C45.3917 17.3255 45.1793 18.1043 45.6092 18.5645Z" fill="#FF9FA5" fill-opacity="0.5"/>
<path d="M48.6633 20.0007C49.2145 20.4937 50.0591 20.1878 50.0565 19.4975C50.054 19.1384 49.7632 18.6175 49.1235 18.5847C48.3068 18.6251 48.1298 19.5228 48.6633 20.0007Z" fill="#FF9FA5" fill-opacity="0.5"/>
<path d="M51.5082 21.7656C52.0442 22.2511 52.8508 21.9502 52.8407 21.27C52.8331 20.916 52.5474 20.4053 51.9279 20.3749C51.1466 20.4154 50.9898 21.2979 51.5082 21.7656Z" fill="#FF9FA5" fill-opacity="0.5"/>
<path d="M54.059 23.9932C54.6204 24.5116 55.4624 24.1905 55.4472 23.4648C55.4396 23.0855 55.1362 22.5368 54.4914 22.5039C53.6722 22.5469 53.5129 23.4901 54.059 23.9932Z" fill="#FF9FA5" fill-opacity="0.5"/>
<path d="M56.3096 26.5748C56.8659 27.1033 57.7104 26.7746 57.6978 26.0337C57.6902 25.6469 57.3918 25.0881 56.747 25.0527C55.9328 25.0956 55.771 26.0615 56.3096 26.5748Z" fill="#FF9FA5" fill-opacity="0.5"/>
<path d="M59.5634 28.9416C59.5634 28.5472 59.2701 27.9732 58.6253 27.9378C57.8111 27.9833 57.6367 28.9695 58.1702 29.4954C58.734 30.0491 59.5659 29.7179 59.5634 28.9416Z" fill="#FF9FA5" fill-opacity="0.5"/>
<path d="M59.5813 32.6964C60.1249 33.2527 60.9543 32.9189 60.9669 32.1376C60.9745 31.7381 60.6989 31.1591 60.0617 31.1237C59.2525 31.1692 59.0629 32.1654 59.5813 32.6964Z" fill="#FF9FA5" fill-opacity="0.5"/>
<path d="M60.4615 36.1327C60.9975 36.7041 61.8471 36.3603 61.88 35.5562C61.8977 35.144 61.6322 34.5447 60.9875 34.5093C60.1682 34.5548 59.9482 35.584 60.4615 36.1327Z" fill="#FF9FA5" fill-opacity="0.5"/>
<path d="M64.2947 39.6802C64.7777 40.2441 65.5741 39.9027 65.6247 39.1138C65.6525 38.7067 65.4199 38.1201 64.8206 38.0847C64.057 38.1302 63.8295 39.1416 64.2947 39.6802Z" fill="#FF9FA5" fill-opacity="0.5"/>
<path d="M64.6689 41.6929C63.9003 41.7384 63.6398 42.7574 64.0899 43.2985C64.5577 43.8598 65.3668 43.521 65.4427 42.7321C65.4831 42.3225 65.2682 41.7283 64.6689 41.6929Z" fill="#FF9FA5" fill-opacity="0.5"/>
<path d="M64.0136 45.2405C63.25 45.286 62.9592 46.2721 63.3891 46.8006C63.8341 47.3442 64.6483 47.013 64.7494 46.2494C64.8025 45.8498 64.6078 45.2759 64.0136 45.2405Z" fill="#FF9FA5" fill-opacity="0.5"/>
<path d="M62.8786 48.611C62.1201 48.654 61.8065 49.6123 62.2212 50.1206C62.6485 50.644 63.4602 50.3279 63.5816 49.587C63.6448 49.2052 63.4678 48.6464 62.8786 48.611Z" fill="#FF9FA5" fill-opacity="0.5"/>
<path d="M61.3031 51.7186C60.5572 51.7591 60.2058 52.6466 60.5496 53.1725C60.9466 53.7794 61.8594 53.4835 62.0061 52.6997C62.0819 52.3153 61.9125 51.754 61.3031 51.7186Z" fill="#FF9FA5" fill-opacity="0.5"/>
<path d="M59.3359 54.5758C58.5824 54.6163 58.2183 55.4861 58.5571 55.9994C58.9491 56.591 59.8694 56.3003 60.0287 55.5366C60.1097 55.1574 59.9453 54.6087 59.3359 54.5758Z" fill="#FF9FA5" fill-opacity="0.5"/>
<path d="M57.0357 57.1068C56.2695 57.1473 55.8953 58.0095 56.2366 58.5202C56.6286 59.1069 57.5692 58.8186 57.7361 58.0601C57.8195 57.6833 57.6552 57.1397 57.0357 57.1068Z" fill="#FF9FA5" fill-opacity="0.5"/>
<path d="M54.4511 59.3193C53.6875 59.3598 53.3158 60.1942 53.6572 60.6873C54.0491 61.2536 54.9821 60.9755 55.149 60.2422C55.2299 59.8781 55.0681 59.3522 54.4511 59.3193Z" fill="#FF9FA5" fill-opacity="0.5"/>
<path d="M51.6445 61.1576C50.8759 61.1956 50.5118 62.0173 50.8607 62.5028C51.2602 63.0591 52.1983 62.786 52.3576 62.0679C52.4334 61.7089 52.2666 61.1905 51.6445 61.1576Z" fill="#FF9FA5" fill-opacity="0.5"/>
<path d="M48.6611 62.6014C47.8697 62.6393 47.5056 63.4662 47.8772 63.9567C48.2995 64.5155 49.2603 64.2399 49.4121 63.5167C49.4879 63.1577 49.3033 62.6343 48.6611 62.6014Z" fill="#FF9FA5" fill-opacity="0.5"/>
<path d="M45.5354 63.7089C44.7819 63.7443 44.4507 64.4573 44.7617 64.9428C45.1536 65.5547 46.1549 65.317 46.2915 64.5838C46.3572 64.2374 46.165 63.7392 45.5354 63.7089Z" fill="#FF9FA5" fill-opacity="0.5"/>
<path d="M42.3121 64.3889C41.508 64.4268 41.2552 65.1879 41.5561 65.6254C41.9758 66.2347 42.9948 65.9996 43.1136 65.2663C43.1693 64.9199 42.9569 64.4193 42.3121 64.3889Z" fill="#FF9FA5" fill-opacity="0.5"/>
<path d="M39.0071 64.6823C39.0064 64.6823 39.0058 64.6823 39.0051 64.6824C38.2455 64.719 37.9328 65.4362 38.284 65.9162C38.5777 66.3145 39.1198 66.3501 39.4849 66.1209C39.676 66.0009 39.8187 65.8083 39.8517 65.5571C39.8947 65.2133 39.662 64.7126 39.0071 64.6823Z" fill="#FF9FA5" fill-opacity="0.5"/>
<path d="M35.657 64.5939C34.8555 64.6293 34.5976 65.4005 35.035 65.8733C35.5256 66.4043 36.4586 66.1439 36.5243 65.4586C36.5597 65.1173 36.3119 64.6242 35.657 64.5939Z" fill="#FF9FA5" fill-opacity="0.5"/>
<path d="M32.3618 64.1032C31.588 64.1411 31.3529 64.925 31.7903 65.3903C32.291 65.9212 33.2013 65.6608 33.2442 64.973C33.267 64.6292 33.0066 64.1336 32.3618 64.1032Z" fill="#FF9FA5" fill-opacity="0.5"/>
<path d="M29.1633 63.2284C28.4073 63.2638 28.2024 64.0477 28.6424 64.5129C29.1481 65.0439 30.0306 64.7835 30.0508 64.0957C30.0609 63.7544 29.7929 63.2588 29.1633 63.2284Z" fill="#FF9FA5" fill-opacity="0.5"/>
<path d="M26.0858 61.9389C25.3197 61.9768 25.1275 62.791 25.5877 63.2714C26.1136 63.8227 27.0037 63.5521 27.0062 62.8365C27.0087 62.4825 26.7255 61.9693 26.0858 61.9389Z" fill="#FF9FA5" fill-opacity="0.5"/>
<path d="M23.1727 60.3131C22.4066 60.3536 22.2599 61.2184 22.7732 61.6786C23.2992 62.1489 24.0704 61.8606 24.0653 61.1956C24.0602 60.8492 23.7821 60.346 23.1727 60.3131Z" fill="#FF9FA5" fill-opacity="0.5"/>
<path d="M20.4576 58.2927C19.6965 58.3332 19.5574 59.2131 20.0707 59.6834C20.5966 60.1638 21.3629 59.8706 21.3528 59.1929C21.3452 58.839 21.0644 58.3256 20.4576 58.2927Z" fill="#FF9FA5" fill-opacity="0.5"/>
<path d="M17.9977 55.9183C17.2417 55.9588 17.1001 56.859 17.6109 57.3368C18.1317 57.8274 18.8928 57.529 18.8827 56.8362C18.8777 56.4746 18.5995 55.9512 17.9977 55.9183Z" fill="#FF9FA5" fill-opacity="0.5"/>
<path d="M15.8483 53.2281C15.1049 53.2685 14.9582 54.1763 15.4538 54.6592C15.962 55.1548 16.713 54.8539 16.7105 54.156C16.708 53.7869 16.4374 53.2584 15.8483 53.2281Z" fill="#FF9FA5" fill-opacity="0.5"/>
<path d="M14.0633 50.2091C13.3022 50.2521 13.1379 51.2003 13.6335 51.7035C14.1442 52.2219 14.9154 51.9058 14.923 51.175C14.9281 50.7958 14.6626 50.242 14.0633 50.2091Z" fill="#FF9FA5" fill-opacity="0.5"/>
<path d="M12.7003 47.0003C11.9797 47.0433 11.8001 47.9612 12.2578 48.4517C12.7306 48.9574 13.469 48.6489 13.4917 47.9384C13.5044 47.5692 13.2667 47.0332 12.7003 47.0003Z" fill="#FF9FA5" fill-opacity="0.5"/>
<path d="M12.5682 44.5021C12.5909 44.1203 12.3659 43.5691 11.7944 43.5362C11.0662 43.5792 10.8563 44.5274 11.3064 45.0305C11.7717 45.5514 12.5252 45.2354 12.5682 44.5021Z" fill="#FF9FA5" fill-opacity="0.5"/>
<path d="M12.1258 40.9167C12.1612 40.5324 11.9538 39.9736 11.3874 39.9407C10.6643 39.9837 10.4266 40.942 10.8539 41.4553C11.2989 41.9863 12.06 41.6651 12.1258 40.9167Z" fill="#FF9FA5" fill-opacity="0.5"/>
<path d="M12.1941 37.3136C12.2396 36.9343 12.0525 36.3882 11.4886 36.3553C10.7655 36.3983 10.4974 37.3414 10.9071 37.8421C11.3344 38.368 12.103 38.0494 12.1941 37.3136Z" fill="#FF9FA5" fill-opacity="0.5"/>
<path d="M12.7527 33.8014C12.8083 33.4348 12.6389 32.9038 12.0852 32.8709C11.3696 32.9114 11.0763 33.8267 11.4657 34.3122C11.8753 34.8229 12.644 34.517 12.7527 33.8014Z" fill="#FF9FA5" fill-opacity="0.5"/>
<path d="M13.7898 30.4435C13.8556 30.0895 13.7013 29.5762 13.1577 29.5459C12.4548 29.5863 12.1412 30.4687 12.5104 30.939C12.8972 31.4346 13.6634 31.1388 13.7898 30.4435Z" fill="#FF9FA5" fill-opacity="0.5"/>
<path d="M15.2896 27.3004C15.3629 26.9439 15.2188 26.4306 14.66 26.3977C13.9697 26.4357 13.6233 27.2524 13.9242 27.7379C14.2731 28.2967 15.1404 28.0185 15.2896 27.3004Z" fill="#FF9FA5" fill-opacity="0.5"/>
<path d="M17.1378 24.4078C17.2162 24.069 17.0796 23.5785 16.536 23.5507C15.8634 23.5861 15.5119 24.3649 15.7977 24.825C16.1314 25.3586 16.981 25.0931 17.1378 24.4078Z" fill="#FF9FA5" fill-opacity="0.5"/>
<path d="M19.3703 21.8161C19.4537 21.4697 19.3147 20.9666 18.7432 20.9362C18.0352 20.9741 17.6584 21.7706 17.9568 22.2435C18.3032 22.7921 19.2009 22.5191 19.3703 21.8161Z" fill="#FF9FA5" fill-opacity="0.5"/>
<path d="M21.8099 19.538C21.8882 19.2118 21.7542 18.739 21.2005 18.7111C20.5051 18.7465 20.1511 19.4849 20.4444 19.9425C20.7807 20.4609 21.648 20.203 21.8099 19.538Z" fill="#FF9FA5" fill-opacity="0.5"/>
<path d="M24.4809 17.6086C24.5568 17.2925 24.4152 16.8374 23.869 16.8096C23.1939 16.8424 22.8424 17.5681 23.1332 17.998C23.472 18.4986 24.3292 18.2508 24.4809 17.6086Z" fill="#FF9FA5" fill-opacity="0.5"/>
<path d="M27.3478 16.0359C27.4186 15.7173 27.2644 15.2571 26.7005 15.2293C26.0026 15.2647 25.6562 15.9955 25.9647 16.4278C26.3237 16.9335 27.2037 16.6858 27.3478 16.0359Z" fill="#FF9FA5" fill-opacity="0.5"/>
<path d="M30.3417 14.8297C30.4049 14.5086 30.2329 14.0459 29.6489 14.0181C28.9307 14.0535 28.5945 14.7893 28.9232 15.2292C29.31 15.74 30.2102 15.4871 30.3417 14.8297Z" fill="#FF9FA5" fill-opacity="0.5"/>
<path d="M33.3832 13.9903C33.4337 13.6843 33.2491 13.2418 32.6802 13.2165C31.9849 13.2494 31.6815 13.9523 32.0177 14.3695C32.4122 14.8575 33.2795 14.6173 33.3832 13.9903Z" fill="#FF9FA5" fill-opacity="0.5"/>
<path d="M36.534 13.5251C36.5744 13.2217 36.3696 12.7817 35.7931 12.7564C35.0902 12.7893 34.8096 13.4872 35.1686 13.8994C35.5858 14.3849 36.453 14.1471 36.534 13.5251Z" fill="#FF9FA5" fill-opacity="0.5"/>
<path d="M39.7249 13.434C39.7527 13.128 39.5276 12.683 38.9461 12.6577C38.233 12.6906 37.9802 13.3961 38.3595 13.8133C38.8019 14.2988 39.6692 14.0585 39.7249 13.434Z" fill="#FF9FA5" fill-opacity="0.5"/>
<path d="M42.8582 13.7121C42.8708 13.4036 42.6332 12.9586 42.0567 12.9333C41.3563 12.9662 41.1363 13.6742 41.5257 14.0939C41.9859 14.5844 42.8304 14.3417 42.8582 13.7121Z" fill="#FF9FA5" fill-opacity="0.5"/>
<path d="M45.9227 14.3645C45.9252 14.0585 45.6749 13.6135 45.1111 13.5857C44.4233 13.6186 44.2362 14.324 44.6357 14.7438C45.1009 15.2292 45.9177 14.989 45.9227 14.3645Z" fill="#FF9FA5" fill-opacity="0.5"/>
<path d="M47.6821 15.8463C48.1954 16.2989 48.9691 16.0183 48.9539 15.3887C48.9463 15.0625 48.6707 14.5897 48.0816 14.5593C48.0588 14.5593 48.026 14.5618 48.0032 14.5618C47.361 14.6276 47.1688 15.3963 47.6821 15.8463Z" fill="#FF9FA5" fill-opacity="0.5"/>
<path d="M50.6027 17.2344C51.1109 17.6795 51.8543 17.4039 51.8265 16.7793C51.8113 16.4557 51.5332 15.9853 50.9618 15.955C50.939 15.9575 50.9086 15.9575 50.8859 15.9601C50.2613 16.0233 50.0919 16.7844 50.6027 17.2344Z" fill="#FF9FA5" fill-opacity="0.5"/>
<path d="M54.6053 18.534C54.5851 18.1901 54.2892 17.6945 53.6975 17.6642C52.9491 17.7021 52.8353 18.5618 53.3486 19.0169C53.8821 19.4898 54.6457 19.1965 54.6053 18.534Z" fill="#FF9FA5" fill-opacity="0.5"/>
<path d="M57.1538 20.6353C57.1336 20.2915 56.8428 19.7959 56.2638 19.7655C55.5355 19.8035 55.4294 20.6606 55.9325 21.1158C56.4534 21.5886 57.1943 21.2953 57.1538 20.6353Z" fill="#FF9FA5" fill-opacity="0.5"/>
<path d="M59.4805 23.0754C59.4603 22.724 59.172 22.2157 58.5955 22.1854C57.8698 22.2233 57.7611 23.1007 58.2617 23.5685C58.7801 24.0489 59.5184 23.748 59.4805 23.0754Z" fill="#FF9FA5" fill-opacity="0.5"/>
<path d="M61.5437 25.8264C61.526 25.4522 61.2352 24.9136 60.6359 24.8807C59.8824 24.9237 59.7585 25.8542 60.2743 26.3498C60.8154 26.8681 61.574 26.5571 61.5437 25.8264Z" fill="#FF9FA5" fill-opacity="0.5"/>
<path d="M63.1822 28.8455C63.1746 28.4813 62.9065 27.9554 62.3351 27.9251C61.6195 27.9655 61.4828 28.8732 61.9633 29.3561C62.4715 29.8618 63.1999 29.5585 63.1822 28.8455Z" fill="#FF9FA5" fill-opacity="0.5"/>
<path d="M63.2071 32.6381C63.7128 33.1691 64.4663 32.8505 64.4689 32.1046C64.4689 31.7228 64.2084 31.1716 63.6243 31.1387C62.8885 31.1817 62.7242 32.1324 63.2071 32.6381Z" fill="#FF9FA5" fill-opacity="0.5"/>
<path d="M63.9968 36.0973C64.4924 36.6435 65.2687 36.3148 65.2914 35.5461C65.3041 35.1516 65.0563 34.5802 64.4646 34.5473C63.7136 34.5928 63.5215 35.5739 63.9968 36.0973Z" fill="#FF9FA5" fill-opacity="0.5"/>
<path fill-rule="evenodd" clip-rule="evenodd" d="M39.4849 66.1209C39.6746 66.0005 39.816 65.808 39.8489 65.5572C39.8944 65.2135 39.6619 64.713 39.0051 64.6824L39.0071 64.6823C39.662 64.7126 39.8947 65.2133 39.8517 65.5571C39.8187 65.8083 39.676 66.0009 39.4849 66.1209ZM20.1465 33.8418C20.2047 33.4373 19.9873 32.8532 19.3248 32.8178C19.9873 32.8532 20.2022 33.4398 20.1465 33.8418ZM19.7122 30.5355C19.7059 30.7345 19.7598 30.9345 19.881 31.1035C20.3463 31.7458 21.3855 31.4246 21.517 30.5978C21.5235 30.5568 21.5273 30.5139 21.5281 30.47L21.5281 30.4693C21.5283 30.4578 21.5283 30.4462 21.5281 30.4345C21.5217 30.0464 21.2825 29.5895 20.6851 29.5585M19.7122 30.5355C19.7063 30.734 19.7602 30.9331 19.8811 31.1009C20.3463 31.7457 21.3855 31.4246 21.517 30.5952C21.5235 30.555 21.5272 30.513 21.5281 30.47M19.3322 36.7372C19.2103 36.4996 18.9847 36.3035 18.6305 36.2701C18.63 36.27 18.6295 36.27 18.629 36.2699C18.9836 36.3036 19.2096 36.4996 19.3322 36.7372ZM18.5862 36.2667L18.5857 36.2667L18.5841 36.2667C17.727 36.3147 17.421 37.3539 17.9141 37.9052C18.0869 38.0983 18.3044 38.1879 18.5207 38.191C18.5472 38.1915 18.5737 38.1906 18.6002 38.1885C18.3591 38.2078 18.1098 38.1214 17.9164 37.9052C17.4208 37.354 17.7267 36.315 18.5862 36.2667ZM18.6346 39.8662C18.5949 39.8593 18.5535 39.8545 18.5104 39.852C17.6481 39.8976 17.3675 40.9545 17.8757 41.5183C17.9089 41.5551 17.9437 41.5881 17.9796 41.6175C17.9438 41.5881 17.9091 41.5551 17.8759 41.5185C17.3677 40.9546 17.6484 39.8977 18.5106 39.8522C18.5537 39.8546 18.595 39.8593 18.6346 39.8662ZM18.5784 45.1262C19.1259 45.6098 19.9621 45.2572 20.018 44.4795C20.0198 44.4543 20.0206 44.4285 20.0203 44.4022C20.0201 44.3735 20.0186 44.3442 20.0158 44.3146C20.0212 44.3715 20.0217 44.4269 20.0176 44.4794C19.9594 45.2559 19.128 45.6085 18.5784 45.1262ZM20.3589 46.7146L20.3573 46.7147C20.301 46.7177 20.2472 46.7247 20.196 46.7353C20.2477 46.7246 20.302 46.7176 20.3589 46.7146ZM23.5955 35.5764C23.4867 36.4462 22.3995 36.785 21.8862 36.1099C22.3995 36.7876 23.4867 36.4488 23.5955 35.5764ZM23.9362 31.2173L23.9352 31.2173L23.9341 31.2173C23.0694 31.2628 22.7103 32.2135 23.1402 32.7799C23.2234 32.8886 23.3228 32.9699 23.431 33.0261C23.3237 32.9698 23.2253 32.8885 23.1429 32.7799C22.7131 32.2136 23.0694 31.2632 23.9362 31.2173ZM23.5142 42.8456C23.5224 42.8049 23.5286 42.7628 23.5326 42.7195C23.5419 42.616 23.5342 42.5018 23.5077 42.3868C23.5341 42.5018 23.5416 42.616 23.5322 42.7195C23.5284 42.7628 23.5223 42.8049 23.5142 42.8456ZM24.7117 46.0821C24.7355 45.6455 24.4476 45.0301 23.7219 44.9927C22.8268 45.0382 22.5284 46.0395 23.0164 46.6337C23.0305 46.6509 23.0449 46.6674 23.0596 46.6833C23.0441 46.6666 23.0289 46.6492 23.014 46.6311C22.526 46.0369 22.8269 45.0381 23.722 44.9901C24.4516 45.0301 24.7368 45.6478 24.7117 46.0821ZM24.9204 49.6199C24.7539 49.4252 24.674 49.1864 24.6741 48.9514C24.6742 49.186 24.7542 49.4247 24.9204 49.6199ZM56.7749 36.1681C56.5778 35.9629 56.4829 35.6938 56.4829 35.4304C56.4826 35.6942 56.5775 35.9635 56.7749 36.1681ZM57.1415 39.746C57.2117 39.8214 57.2875 39.8819 57.3667 39.9284C57.2865 39.8815 57.2096 39.8201 57.1386 39.7434C56.5924 39.1543 56.8705 38.0468 57.7732 37.9937C58.219 38.0191 58.4913 38.2832 58.6231 38.5864C58.4905 38.2845 58.219 38.0226 57.7762 37.9987C56.8709 38.0493 56.5953 39.1568 57.1415 39.746ZM56.4811 33.0486C56.8883 33.0194 57.2479 32.6938 57.2653 32.1856C57.278 31.7709 56.9897 31.1742 56.3095 31.1363L56.3079 31.1364C56.9875 31.1722 57.2755 31.7711 57.2629 32.1856C57.247 32.6935 56.8884 33.0191 56.4811 33.0486ZM57.2598 45.4007C57.1155 45.2236 56.897 45.0936 56.5907 45.076C56.2197 45.0966 55.9451 45.2922 55.7869 45.5555C55.9452 45.2927 56.2197 45.0981 56.5903 45.0786C56.8972 45.0951 57.1156 45.2241 57.2598 45.4007ZM57.4702 46.2372C57.4733 46.2195 57.4759 46.2016 57.4782 46.1835C57.503 45.9895 57.469 45.7563 57.3613 45.5539C57.3597 45.5509 57.3581 45.5479 57.3565 45.545C57.468 45.7497 57.503 45.9879 57.4778 46.1861C57.4756 46.2034 57.4731 46.2204 57.4702 46.2372ZM55.6827 29.0812C55.6827 29.0807 55.6827 29.0801 55.6827 29.0796C55.6826 29.0313 55.6786 28.9808 55.6704 28.9292C55.6786 28.9814 55.6827 29.0325 55.6827 29.0812ZM39.9535 35.0713C39.5066 35.4595 39.4462 36.1442 39.8539 36.6207C40.3166 37.1637 41.0735 37.1509 41.5293 36.7579C41.0739 37.1534 40.3147 37.1675 39.8509 36.6233C39.4424 36.1457 39.5039 35.459 39.9535 35.0713ZM42.292 37.832C41.1531 37.8888 40.762 39.0586 41.3685 39.7788C41.6312 40.0925 41.9869 40.229 42.3325 40.2191C41.9862 40.2297 41.6294 40.0933 41.3661 39.7789C40.7618 39.0583 41.1537 37.8876 42.2915 37.8319L42.292 37.832ZM40.7603 43.3784C41.3389 43.3768 41.9002 42.9704 41.9705 42.2998C42.0261 41.7764 41.6873 41.0203 40.7644 40.9748L40.763 40.9749L40.7621 40.9748C41.6847 41.0206 42.0234 41.7765 41.9678 42.2998C41.8992 42.9696 41.3387 43.3759 40.7603 43.3784ZM41.189 46.9624C41.2446 46.4643 40.9184 45.7462 40.0259 45.7032C39.563 45.7256 39.2244 45.9409 39.0309 46.2331C39.2243 45.9405 39.5631 45.7242 40.0262 45.7007C40.9213 45.7463 41.245 46.4644 41.1893 46.96C41.1876 46.9753 41.1857 46.9904 41.1834 47.0055C41.1855 46.9912 41.1874 46.9769 41.189 46.9624ZM38.1959 37.832L38.1953 37.8319C37.0347 37.8876 36.6302 39.0583 37.2446 39.7789C37.5121 40.0937 37.8755 40.23 38.2286 40.2191C38.2808 40.2176 38.3328 40.2128 38.3841 40.205C37.9857 40.2659 37.5534 40.1395 37.247 39.7788C36.6329 39.0586 37.0342 37.8913 38.1959 37.832ZM38.4481 35.2553C38.3444 36.2389 37.0194 36.6207 36.3645 35.8571C37.022 36.6207 38.3469 36.2389 38.4481 35.2553ZM37.2717 41.7562C36.1293 41.8147 35.7174 43.0079 36.3241 43.7158C36.7042 44.1587 37.2765 44.2461 37.7396 44.0654C37.2761 44.2476 36.7027 44.1607 36.322 43.7157C35.7177 43.0077 36.1298 41.8142 37.2702 41.7561L37.2717 41.7562ZM40.1086 50.4381C39.9526 50.1296 39.6336 49.8647 39.108 49.8399C38.1592 49.8834 37.7567 50.7662 38.102 51.4037C37.7524 50.7681 38.1546 49.8832 39.1056 49.8373C39.6326 49.8622 39.9529 50.1285 40.1086 50.4381ZM41.7908 58.2259C41.7676 57.839 41.4842 57.3807 40.8223 57.3496C40.1277 57.382 39.7585 57.9201 39.8247 58.4201C39.7557 57.9201 40.1239 57.3796 40.8222 57.3471C41.4855 57.3782 41.7687 57.8385 41.7908 58.2259Z" fill="#FF9FA5" fill-opacity="0.5"/>
<path fill-rule="evenodd" clip-rule="evenodd" d="M13.1013 39.7737C13.1013 53.5417 24.2571 64.6893 37.999 64.692C51.741 64.6948 62.8968 53.5516 62.8968 39.7837C62.8968 26.0157 51.741 14.8681 37.999 14.8653C24.2571 14.8626 13.1013 26.0058 13.1013 39.7737ZM37.999 75.7787C18.1081 75.7747 1.99902 59.645 1.99902 39.7715C1.99902 19.8979 18.1081 3.7747 37.999 3.77868C57.89 3.78265 73.999 19.9123 73.999 39.7859C73.999 59.6594 57.89 75.7827 37.999 75.7787Z" fill="black"/>
<defs>
<linearGradient id="paint0_linear_1762_315" x1="11.999" y1="39.7715" x2="58.999" y2="55.7715" gradientUnits="userSpaceOnUse">
<stop stop-color="#B00000"/>
<stop offset="0.234375" stop-color="#D8B500"/>
<stop offset="0.520833" stop-color="#00A807"/>
<stop offset="0.776042" stop-color="#750093"/>
<stop offset="1" stop-color="#C40098"/>
</linearGradient>
<radialGradient id="paint1_radial_1762_315" cx="0" cy="0" r="1" gradientUnits="userSpaceOnUse" gradientTransform="translate(38.0219 39.5742) rotate(90) scale(28.4258)">
<stop stop-color="#9B0021"/>
<stop offset="1" stop-color="#3A0007"/>
</radialGradient>
</defs>
</svg>
