<svg width="78" height="78" viewBox="0 0 78 78" fill="none" xmlns="http://www.w3.org/2000/svg">
<path d="M13.0586 39.5807C13.0586 25.2213 24.6992 13.5784 39.0586 13.5755C53.418 13.5726 65.0586 25.2109 65.0586 39.5703C65.0586 53.9297 53.418 65.5726 39.0586 65.5755C24.6992 65.5784 13.0586 53.9401 13.0586 39.5807Z" fill="#8A510F"/>
<path d="M13.0586 39.5807C13.0586 25.2213 24.6992 13.5784 39.0586 13.5755C53.418 13.5726 65.0586 25.2109 65.0586 39.5703C65.0586 53.9297 53.418 65.5726 39.0586 65.5755C24.6992 65.5784 13.0586 53.9401 13.0586 39.5807Z" fill="#D5D5D5"/>
<path d="M65.0551 39.5629C65.0551 25.2131 53.4223 13.5779 39.0725 13.5751C24.7227 13.5722 13.0898 25.2027 13.0898 39.5525C13.0898 53.9023 24.7227 65.5375 39.0725 65.5403C53.4223 65.5432 65.0551 53.9127 65.0551 39.5629Z" fill="#FF1723"/>
<path d="M39.0406 56.4777C48.3742 56.4777 55.9406 48.9113 55.9406 39.5777C55.9406 30.2441 48.3742 22.6777 39.0406 22.6777C29.707 22.6777 22.1406 30.2441 22.1406 39.5777C22.1406 48.9113 29.707 56.4777 39.0406 56.4777Z" fill="white"/>
<path d="M47.4406 39.5777C47.4406 44.2777 43.6406 47.9777 39.0406 47.9777C34.4406 47.9777 30.6406 44.1777 30.6406 39.5777C30.6406 34.9777 34.4406 31.1777 39.0406 31.1777C43.6406 31.1777 47.4406 34.8777 47.4406 39.5777Z" fill="#FF1723"/>
<path fill-rule="evenodd" clip-rule="evenodd" d="M63.9563 39.5725C63.9563 53.3405 52.8005 64.4881 39.0586 64.4908C25.3167 64.4936 14.1609 53.3504 14.1609 39.5825C14.1609 25.8145 25.3167 14.6669 39.0586 14.6642C52.8005 14.6614 63.9563 25.8046 63.9563 39.5725ZM39.0586 75.5775C58.9495 75.5735 75.0586 59.4439 75.0586 39.5703C75.0586 19.6968 58.9495 3.57353 39.0586 3.57751C19.1677 3.58148 3.0586 19.7111 3.0586 39.5847C3.05859 59.4583 19.1676 75.5815 39.0586 75.5775Z" fill="black"/>
</svg>
