<svg width="78" height="77" viewBox="0 0 78 77" fill="none" xmlns="http://www.w3.org/2000/svg">
<path d="M38.8993 66.3589C54.2813 66.3589 66.7508 54.1098 66.7508 38.9998C66.7508 23.8897 54.2813 11.6406 38.8993 11.6406C23.5174 11.6406 11.0479 23.8897 11.0479 38.9998C11.0479 54.1098 23.5174 66.3589 38.8993 66.3589Z" fill="#C6E300"/>
<mask id="mask0" mask-type="alpha" maskUnits="userSpaceOnUse" x="11" y="11" width="56" height="56">
<path d="M38.8993 66.3589C54.2813 66.3589 66.7508 54.1098 66.7508 38.9998C66.7508 23.8897 54.2813 11.6406 38.8993 11.6406C23.5174 11.6406 11.0479 23.8897 11.0479 38.9998C11.0479 54.1098 23.5174 66.3589 38.8993 66.3589Z" fill="#C6E300"/>
</mask>
<g mask="url(#mask0)">
<path fill-rule="evenodd" clip-rule="evenodd" d="M60.6749 23.039C42.3444 27.9488 26.7778 18.4819 21.1972 13.0842L24.6734 9.49023C29.4955 14.1543 43.3299 22.5086 59.3813 18.2092L60.6749 23.039ZM23.9282 45.1722C28.9783 43.1992 34.948 42.9242 40.6624 47.135C44.9085 50.2638 49.1227 52.5978 52.7206 54.1411C56.3967 55.7178 59.1957 56.3686 60.6678 56.3686V61.3686C58.1749 61.3686 54.6275 60.3995 50.7496 58.7362C46.7935 57.0393 42.2461 54.5128 37.6963 51.1602C33.6902 48.2082 29.6192 48.3169 25.7476 49.8294C21.7609 51.3869 18.1504 54.3981 15.6215 56.927L12.0859 53.3915C14.8013 50.6762 18.9933 47.1001 23.9282 45.1722Z" fill="#FBFFCC"/>
</g>
<path fill-rule="evenodd" clip-rule="evenodd" d="M64.2387 38.5027C64.2387 52.4619 52.9279 63.7644 38.9951 63.7671C25.0623 63.7699 13.7516 52.472 13.7516 38.5128C13.7516 24.5537 25.0623 13.2512 38.9951 13.2484C52.9279 13.2456 64.2387 24.5436 64.2387 38.5027ZM38.9951 75.0078C59.1623 75.0038 75.4951 58.6501 75.4951 38.5005C75.4951 18.3509 59.1623 2.00374 38.9951 2.00778C18.8279 2.01181 2.49511 18.3655 2.49511 38.5151C2.49511 58.6647 18.8279 75.0118 38.9951 75.0078Z" fill="black"/>
</svg>
