<svg width="149" height="149" viewBox="0 0 149 149" fill="none" xmlns="http://www.w3.org/2000/svg">
<path d="M141.659 77.9748C143.874 41.3147 115.951 9.79794 79.2914 7.58013C42.6315 5.36231 11.1169 33.2833 8.90169 69.9433C6.68644 106.603 34.6094 138.12 71.2693 140.338C107.929 142.556 139.444 114.635 141.659 77.9748Z" fill="#BC261A"/>
<path fill-rule="evenodd" clip-rule="evenodd" d="M13.9103 74.3232C13.9104 108.009 41.2158 135.313 74.8906 135.316C108.565 135.319 135.871 108.019 135.871 74.3334C135.871 40.6473 108.565 13.3436 74.8906 13.3408C41.2158 13.338 13.9103 40.6371 13.9103 74.3232ZM74.8906 146.328C35.1225 146.325 2.89062 114.083 2.89062 74.3223C2.89062 34.5614 35.1225 2.32495 74.8906 2.32827C114.659 2.33159 146.891 34.5734 146.891 74.3343C146.891 114.095 114.659 146.332 74.8906 146.328Z" fill="black"/>
</svg>
