<svg width="78" height="78" viewBox="0 0 78 78" fill="none" xmlns="http://www.w3.org/2000/svg">
<path d="M39.4304 76.2285C48.9664 76.2285 56.6246 73.3371 61.8709 67.3678C67.394 61.0822 69.1811 53.0299 69.2545 44.992C69.3279 36.9592 67.6914 28.7022 66.1356 21.7876L66.1351 21.7856C64.1986 13.2206 60.325 7.47404 53.9373 5.08504C53.2014 4.80969 52.4169 4.46849 51.5557 4.08916L51.3329 3.99096C50.551 3.64622 49.7127 3.27663 48.8641 2.93857C47.028 2.2071 44.9244 1.52928 42.7938 1.52928C41.7343 1.52928 40.7831 1.82543 39.9978 2.42028C39.8269 2.54972 39.6708 2.68802 39.5281 2.83247C39.2524 2.54147 38.9257 2.27346 38.5375 2.05367C37.5853 1.51454 36.4967 1.39688 35.3674 1.61568C32.5558 2.15715 29.8739 3.22087 27.3929 4.20497C26.62 4.51153 25.8666 4.81037 25.1348 5.08328L25.1327 5.08404C18.7456 7.47401 14.8696 13.2201 12.9351 21.7849C11.3397 28.8264 9.54771 36.9324 9.51225 44.8256C9.47663 52.7555 11.2104 60.6759 16.8438 67.2043C22.0903 73.2821 29.8014 76.2285 39.4304 76.2285Z" fill="black"/>
<path d="M52.4467 12.7529C54.1384 17.5055 55.4559 25.0568 56.0195 28.6061C50.4266 26.939 45.1553 26.2925 40.3647 26.2925C33.6862 26.2925 27.9398 27.5328 23.5391 28.959C24.1911 25.6057 26.0554 16.6059 28.1034 12.0774C30.103 11.3183 32.0576 10.42 34.0951 9.76493L36.8243 20.2403C37.1458 21.475 38.2595 22.3354 39.5355 22.3354C40.8094 22.3354 41.9231 21.4738 42.2446 20.2403L44.9761 9.76493C47.4638 10.5609 50.1554 11.4717 52.4467 12.7529Z" fill="#231D1A"/>
<path d="M60.4034 33.7395C61.8576 43.2808 63.0534 54.5166 56.1628 62.3547C48.4475 71.1348 30.2321 71.0965 22.5911 62.2393C16.2099 54.8437 16.7897 43.73 18.3842 34.6739C24.405 31.7957 40.9113 25.7289 60.4034 33.7395Z" fill="#F7F7F7"/>
<path d="M52.0323 61.2174C50.0875 58.9039 33.2622 52.4895 33.0385 57.2255C32.7703 62.8881 28.6993 63.9623 26.2902 64.598C25.8422 64.7162 25.4516 64.8193 25.1537 64.9339C28.7083 67.5633 33.4634 68.9111 39.3765 68.9111C43.4954 68.9111 47.0422 68.2434 50.0279 66.963C51.9311 64.7338 53.1306 62.5203 52.0323 61.2174Z" fill="#463E3A"/>
<path d="M31.2132 35.0886C33.7651 38.5296 29.8193 43.7198 23.1069 43.35C19.7867 43.1667 18.8082 46.1133 18.139 48.1288C17.9093 48.8203 17.7161 49.4023 17.4772 49.7104C16.887 44.7046 17.3827 40.127 17.6772 38.126L17.6775 38.1244C17.682 38.0947 17.6908 38.0378 17.693 38.0091C17.7829 37.4088 17.8683 36.949 17.9144 36.7141C17.938 36.6264 17.9583 36.5376 17.9762 36.4465L18.2595 34.8379C20.1785 33.9217 23.1474 32.684 26.9459 31.6745C28.6996 32.4322 30.1835 33.6969 31.2132 35.0886Z" fill="#463E3A"/>
<path d="M47.4019 37.2021C47.4019 34.6111 50.227 34.6608 54.0211 34.7277C54.6517 34.7388 55.3092 34.7503 55.9849 34.7503C57.7217 34.7503 59.337 35.082 60.6883 35.6474L60.8997 37.0279C60.9829 37.5 61.0773 38.0913 61.1762 38.8501C61.3808 40.4251 61.591 42.778 61.5606 45.4726C60.1419 46.59 58.3129 47.3611 56.2647 47.3611C51.523 47.3611 47.4019 40.2239 47.4019 37.2021Z" fill="#463E3A"/>
<path d="M19.5335 27.9796C19.3933 28.8845 19.2559 29.7706 19.1055 30.6214C20.3771 30.0791 21.8538 29.5055 23.5444 28.9588C24.1964 25.6055 26.0607 16.6057 28.1087 12.0771C21.6085 14.5934 20.502 21.7318 19.5335 27.9796Z" fill="#5C524E"/>
<path d="M56.0216 28.6049C57.2719 28.978 58.5379 29.4015 59.8207 29.8821C59.7561 29.4548 59.6922 29.0161 59.627 28.5687C58.7956 22.8615 57.7578 15.7373 52.4488 12.7518C54.1394 17.5043 55.4569 25.0567 56.0216 28.6049Z" fill="#5C524E"/>
</svg>
