<svg width="72" height="73" viewBox="0 0 72 73" fill="none" xmlns="http://www.w3.org/2000/svg">
<path d="M4.99999 36.9944C4.99999 53.8357 18.6553 67.4911 35.5 67.4944C52.3447 67.4978 66 53.8479 66 37.0066C66 20.1653 52.3447 6.50997 35.5 6.5066C18.6553 6.50324 5 20.1531 4.99999 36.9944Z" fill="#838495"/>
<path fill-rule="evenodd" clip-rule="evenodd" d="M60.9154 36.5052C60.9154 22.7497 49.7614 11.5945 36 11.5917C22.2386 11.589 11.0846 22.7397 11.0846 36.4953C11.0846 50.2509 22.2386 61.4061 36 61.4088C49.7614 61.4116 60.9154 50.2608 60.9154 36.5052ZM36 0.507456C55.8812 0.511428 72 16.6281 72 36.5075C72 56.3868 55.8812 72.497 36 72.4931C16.1188 72.4891 -2.44723e-06 56.3724 -1.57651e-06 36.4931C-7.0578e-07 16.6138 16.1188 0.503484 36 0.507456Z" fill="black"/>
</svg>
