<svg width="77" height="77" viewBox="0 0 77 77" fill="none" xmlns="http://www.w3.org/2000/svg">
<path d="M43.3477 44.0413C29.733 47.076 22.5996 36.9765 18.0325 35.2038C7.65331 31.1752 9.64348 53.8981 21.6288 63.286C32.0506 71.4491 50.239 70.8491 55.5335 62.938C60.828 55.0268 58.0163 40.7717 43.3477 44.0413Z" fill="#E4A13C"/>
<path fill-rule="evenodd" clip-rule="evenodd" d="M6.28851 44.781C7.10461 52.2028 11.1112 61.6362 18.4304 67.3691C24.7661 72.3317 33.1554 74.4609 40.5978 74.3255C47.762 74.1951 55.7909 71.8776 59.8431 65.8228C63.388 60.5259 64.3357 53.0932 61.6515 47.1597C60.2514 44.0648 57.8274 41.3401 54.2958 39.7657C50.801 38.2077 46.6929 37.9826 42.219 38.9799C37.0209 40.1385 33.1714 38.8495 29.9108 36.9466C28.249 35.9768 26.7911 34.8773 25.2749 33.734C25.2239 33.6956 25.1728 33.6571 25.1217 33.6185C25.0632 33.5744 25.0036 33.5294 24.9429 33.4836C23.6263 32.4895 21.781 31.0963 19.9087 30.3695C17.8964 29.5885 15.6156 29.2371 13.328 29.872C10.9702 30.5265 9.25922 32.0478 8.15139 33.793C6.1242 36.9866 5.8926 41.1804 6.28851 44.781ZM15.7392 39.9153C15.7392 39.9154 15.7426 39.9159 15.7491 39.9163C15.7424 39.9154 15.7391 39.9152 15.7392 39.9153ZM16.6271 40.2917C17.0513 40.5554 17.7334 41.0381 18.8779 41.9008C18.9614 41.9638 19.0466 42.0281 19.1334 42.0936C20.5802 43.1858 22.4768 44.6174 24.6828 45.9049C29.5343 48.7362 36.0589 50.9796 44.4755 49.1036C47.336 48.466 49.0801 48.7967 50.0725 49.2392C51.0282 49.6652 51.7267 50.3857 52.2013 51.4349C53.2664 53.7892 52.9727 57.4397 51.2232 60.0539C49.9808 61.9103 46.2683 63.8484 40.4091 63.955C34.8282 64.0566 28.9125 62.4042 24.8263 59.2036C20.1602 55.5488 17.1791 48.9267 16.5986 43.6473C16.4274 42.0906 16.503 40.9927 16.6271 40.2917Z" fill="black"/>
<path d="M33.1158 47.5163C36.74 30.3251 24.0048 21.469 21.7269 15.7383C16.5501 2.7145 45.0225 4.92793 56.9291 19.9057C67.2825 32.9297 66.765 55.8515 56.9291 62.6238C47.0932 69.3962 29.2111 66.0383 33.1158 47.5163Z" fill="#E4A13C"/>
<path fill-rule="evenodd" clip-rule="evenodd" d="M33.439 2.16145C42.4803 3.06748 53.987 7.87075 60.9889 16.6788C67.0522 24.306 69.7582 34.522 69.6862 43.6503C69.6164 52.4971 66.8666 62.0784 59.8703 66.8956C53.618 71.2006 44.7897 72.4065 37.7699 69.2976C34.1317 67.6864 30.9495 64.8844 29.0864 60.7924C27.2408 56.7386 26.8959 51.8805 28.0414 46.4467C29.5157 39.4534 27.722 34.2668 25.1754 29.9774C23.8984 27.8265 22.4605 25.9481 21.0205 24.0671C20.9666 23.9967 20.9126 23.9262 20.8587 23.8557C20.8141 23.7975 20.769 23.7386 20.7235 23.6791C19.4328 21.9938 17.7694 19.8219 16.9077 17.6542C15.9787 15.317 15.5832 12.7604 16.2518 10.2362C16.9393 7.64041 18.5827 5.72141 20.5325 4.4475C24.1373 2.09221 29.0294 1.71955 33.439 2.16145ZM26.3151 13.065C26.3443 13.2276 26.4083 13.4755 26.5464 13.8229C26.7933 14.4441 27.488 15.4513 29.0957 17.5523C29.1738 17.6542 29.2532 17.7579 29.334 17.8633C30.7237 19.6773 32.4963 21.9909 34.0942 24.6824C37.5787 30.5515 40.3404 38.3885 38.1906 48.5863C37.3837 52.4136 37.8098 54.921 38.5263 56.4945C39.2253 58.0298 40.3962 59.1169 41.9699 59.8138C45.3739 61.3213 50.4046 60.82 53.9882 58.3526C56.8278 56.3975 59.2547 51.1317 59.3143 43.5685C59.3717 36.2869 57.1598 28.53 52.8696 23.1332C47.965 16.9635 39.2822 13.1711 32.4048 12.482C29.0352 12.1443 27.0624 12.6496 26.3151 13.065ZM26.2925 12.8184C26.2926 12.8185 26.2925 12.8215 26.2917 12.8272C26.292 12.8213 26.2924 12.8184 26.2925 12.8184Z" fill="black"/>
<path d="M46.8065 37.5731C48.0146 32.1568 43.7695 29.3665 43.0102 27.5609C41.2846 23.4575 50.7754 24.1549 54.7443 28.8739C58.1954 32.9774 58.0229 40.1993 54.7443 42.3331C51.4656 44.4668 45.5049 43.4089 46.8065 37.5731Z" fill="#FFD99F"/>
</svg>
