<svg width="126" height="102" viewBox="0 0 126 102" fill="none" xmlns="http://www.w3.org/2000/svg">
<path d="M50.8498 99.1626C77.4688 99.1626 99.047 77.5836 99.0461 50.9646C99.0452 24.3456 77.4654 2.7666 50.8464 2.7666C24.2274 2.7666 2.64919 24.3456 2.65012 50.9646C2.65105 77.5836 24.2308 99.1626 50.8498 99.1626Z" fill="url(#paint0_radial_1359_386)"/>
<path fill-rule="evenodd" clip-rule="evenodd" d="M50.8488 5.06934C25.4995 5.06934 4.9506 25.619 4.95148 50.9683C4.95237 76.3175 25.5027 96.8672 50.852 96.8672C76.2013 96.8672 96.7502 76.3175 96.7493 50.9683C96.7484 25.619 76.1981 5.06934 50.8488 5.06934ZM0.353329 50.9683C0.352353 23.0795 22.9599 0.47119 50.8486 0.471189C78.7374 0.471187 101.346 23.0795 101.347 50.9683C101.348 78.857 78.7409 101.465 50.8522 101.465C22.9634 101.465 0.354305 78.857 0.353329 50.9683Z" fill="white"/>
<path d="M123.135 46.6821C125.96 48.0046 125.96 52.0226 123.135 53.3452L109.97 59.5079C107.531 60.6497 104.732 58.8695 104.732 56.1764L104.732 43.8509C104.732 41.1577 107.531 39.3775 109.97 40.5193L123.135 46.6821Z" fill="#FF881B"/>
<path fill-rule="evenodd" clip-rule="evenodd" d="M108.8 57.0093L121.965 50.8465C122.672 50.5159 122.672 49.5114 121.965 49.1807L108.8 43.018C108.191 42.7326 107.491 43.1776 107.491 43.8509L107.491 56.1764C107.491 56.8497 108.191 57.2947 108.8 57.0093ZM123.135 53.3452C125.96 52.0226 125.96 48.0046 123.135 46.6821L109.97 40.5193C107.531 39.3775 104.732 41.1577 104.732 43.8509L104.732 56.1764C104.732 58.8695 107.531 60.6497 109.97 59.5079L123.135 53.3452Z" fill="black"/>
<defs>
<radialGradient id="paint0_radial_1359_386" cx="0" cy="0" r="1" gradientUnits="userSpaceOnUse" gradientTransform="translate(50.8481 50.9646) rotate(89.998) scale(48.198)">
<stop offset="0.479167" stop-color="white"/>
<stop offset="1" stop-color="#8ABFF0"/>
</radialGradient>
</defs>
</svg>
