<svg width="78" height="78" viewBox="0 0 78 78" fill="none" xmlns="http://www.w3.org/2000/svg">
<path d="M64.2646 39.5807C64.2646 25.2213 52.624 13.5784 38.2646 13.5755C23.9052 13.5726 12.2646 25.2109 12.2646 39.5703C12.2646 53.9297 23.9052 65.5726 38.2646 65.5755C52.6241 65.5784 64.2646 53.9401 64.2646 39.5807Z" fill="url(#paint0_linear_2067_819)"/>
<path d="M64.2646 39.5807C64.2646 25.2213 52.624 13.5784 38.2646 13.5755C23.9052 13.5726 12.2646 25.2109 12.2646 39.5703C12.2646 53.9297 23.9052 65.5726 38.2646 65.5755C52.6241 65.5784 64.2646 53.9401 64.2646 39.5807Z" fill="#D5D5D5"/>
<path d="M12.2642 39.5629C12.2642 25.2131 23.897 13.5779 38.2469 13.5751C52.5967 13.5722 64.2295 25.2027 64.2295 39.5525C64.2295 53.9023 52.5967 65.5375 38.2469 65.5403C23.897 65.5432 12.2642 53.9127 12.2642 39.5629Z" fill="#676767"/>
<path d="M37.5966 16.1304C25.2992 16.2543 15.4462 26.317 15.58 38.6005C15.6934 49.5433 23.6622 58.547 34.0863 60.2981L33.485 64.1253C21.5929 62.0833 12.5031 51.7922 12.3724 39.3109C12.2399 26.46 21.6462 15.734 33.9915 13.8756C35.1575 13.7003 36.3599 13.5927 37.5786 13.581C38.7854 13.5713 39.9806 13.6376 41.1542 13.7939C53.5398 15.406 63.162 25.9264 63.2945 38.7773C63.4232 51.2466 54.5532 61.7203 42.7155 64.0219L42.0502 60.2147C52.4107 58.2158 60.188 49.064 60.0766 38.1331C59.9329 25.8637 49.8702 16.0107 37.5966 16.1304Z" fill="url(#paint1_linear_2067_819)"/>
<path d="M37.5966 16.13C25.2991 16.2539 15.4461 26.3166 15.5799 38.6C15.6934 49.5429 23.6622 58.5466 34.0863 60.2977L35.1926 53.3752L40.8548 53.3166L42.0642 60.2242C52.4247 58.2252 60.2021 49.0734 60.0906 38.1426C59.9329 25.8632 49.8702 16.0102 37.5966 16.13ZM28.6017 43.7776L28.1289 42.2433L46.6421 42.0522L46.2038 43.5948L28.6017 43.7776Z" fill="#FEEDC6"/>
<path d="M39.2728 13.5975L39.2841 41.6275L39.8064 41.6221L39.6949 13.69L39.6927 13.1387L40.2415 13.1901L40.5462 13.2187L40.9977 13.261L40.9996 13.7144L41.1137 41.6086L46.6374 41.5516L47.3065 41.5447L47.1235 42.1883L46.685 43.7307L46.5828 44.09L46.2092 44.0939L28.6073 44.2767L28.2341 44.2806L28.1242 43.9239L27.6518 42.3898L27.4547 41.7496L28.1245 41.7427L34.1688 41.6803L34.0704 13.8037L34.0688 13.3538L34.5161 13.3049L34.8204 13.2717L35.3727 13.2114L35.3747 13.7669L35.476 41.6668L35.5698 41.6659L35.6921 13.6526L35.6942 13.1936L36.1516 13.1564L36.4441 13.1326L36.9869 13.0884L36.9846 13.6331L36.8652 41.6525L37.9763 41.641L37.9691 13.5978L37.969 13.0977H38.4691H38.7728H39.2726L39.2728 13.5975ZM43.1976 63.9481L43.1979 63.9498L43.4383 65.3515L43.5375 65.93L42.9505 65.936L33.2502 66.0339L32.657 66.0399L32.7515 65.4542L32.9785 64.0484L32.9788 64.0466L34.674 53.3006L34.7399 52.8829L35.1627 52.8786L40.8253 52.8198L41.2498 52.8154L41.323 53.2336L43.1976 63.9481Z" fill="#394D4B" stroke="#394D4B"/>
<path fill-rule="evenodd" clip-rule="evenodd" d="M13.3669 39.5725C13.3669 53.3405 24.5227 64.4881 38.2646 64.4908C52.0066 64.4936 63.1624 53.3504 63.1624 39.5825C63.1624 25.8145 52.0066 14.6669 38.2646 14.6642C24.5227 14.6614 13.3669 25.8046 13.3669 39.5725ZM38.2646 75.5775C18.3737 75.5735 2.26465 59.4439 2.26465 39.5703C2.26465 19.6968 18.3737 3.57353 38.2646 3.57751C58.1556 3.58148 74.2646 19.7111 74.2646 39.5847C74.2646 59.4583 58.1556 75.5815 38.2646 75.5775Z" fill="black"/>
<defs>
<linearGradient id="paint0_linear_2067_819" x1="12.2646" y1="39.5703" x2="59.2647" y2="55.5703" gradientUnits="userSpaceOnUse">
<stop stop-color="#B00000"/>
<stop offset="0.234375" stop-color="#D8B500"/>
<stop offset="0.520833" stop-color="#00A807"/>
<stop offset="0.776042" stop-color="#750093"/>
<stop offset="1" stop-color="#C40098"/>
</linearGradient>
<linearGradient id="paint1_linear_2067_819" x1="67.7928" y1="64.7995" x2="12.7073" y2="17.4687" gradientUnits="userSpaceOnUse">
<stop offset="0.0559" stop-color="#EAB692"/>
<stop offset="0.5953" stop-color="#F6D9B5"/>
<stop offset="1" stop-color="#FEEFCB"/>
</linearGradient>
</defs>
</svg>
