<svg width="149" height="149" viewBox="0 0 149 149" fill="none" xmlns="http://www.w3.org/2000/svg">
<path d="M141.54 78.463C143.755 41.803 115.832 10.2862 79.1723 8.06841C42.5123 5.85059 10.9978 33.7716 8.78255 70.4316C6.5673 107.092 34.4902 138.608 71.1501 140.826C107.81 143.044 139.325 115.123 141.54 78.463Z" fill="#00F0FF"/>
<path fill-rule="evenodd" clip-rule="evenodd" d="M13.7912 74.8115C13.7912 108.498 41.0967 135.801 74.7715 135.804C108.446 135.807 135.752 108.508 135.752 74.8216C135.752 41.1356 108.446 13.8319 74.7715 13.8291C41.0967 13.8263 13.7912 41.1254 13.7912 74.8115ZM74.7715 146.817C35.0033 146.813 2.77148 114.571 2.77148 74.8105C2.77148 35.0497 35.0033 2.81324 74.7715 2.81655C114.54 2.81987 146.771 35.0617 146.771 74.8226C146.771 114.583 114.54 146.82 74.7715 146.817Z" fill="black"/>
</svg>
