<svg width="149" height="149" viewBox="0 0 149 149" fill="none" xmlns="http://www.w3.org/2000/svg">
<path d="M141.032 78.1466C143.247 41.4866 115.324 9.96982 78.6644 7.752C42.0045 5.53419 10.49 33.4552 8.27474 70.1152C6.05949 106.775 33.9824 138.292 70.6423 140.51C107.302 142.728 138.817 114.807 141.032 78.1466Z" fill="#ED937F"/>
<mask id="mask0" mask-type="alpha" maskUnits="userSpaceOnUse" x="8" y="7" width="134" height="134">
<path d="M8.26367 73.9941C8.26367 37.2672 38.0562 7.49414 74.7637 7.49414C111.471 7.49414 141.264 37.2672 141.264 73.9941C141.264 110.721 111.471 140.494 74.7637 140.494C38.0562 140.494 8.26367 110.721 8.26367 73.9941Z" fill="#ED937F"/>
</mask>
<g mask="url(#mask0)">
<path d="M157.816 -4.33496H0.357422V153.124H157.816V-4.33496Z" fill="url(#paint0_radial)"/>
<path d="M157.814 -4.33496H0.355469V153.124H157.814V-4.33496Z" fill="url(#paint1_radial)"/>
<path opacity="0.32" d="M140.464 136.937C140.464 136.937 140.212 136.37 140.086 136.213C139.928 136.055 139.361 135.835 139.361 135.835C139.361 135.835 139.928 135.583 140.086 135.457C140.243 135.299 140.464 134.732 140.464 134.732C140.464 134.732 140.715 135.299 140.841 135.457C140.999 135.614 141.566 135.835 141.566 135.835C141.566 135.835 140.999 136.087 140.841 136.213C140.715 136.37 140.464 136.937 140.464 136.937Z" fill="url(#paint2_radial)"/>
<path opacity="0.32" d="M106.987 114.955C106.987 114.955 106.735 114.389 106.609 114.231C106.452 114.074 105.885 113.853 105.885 113.853C105.885 113.853 106.452 113.601 106.609 113.475C106.767 113.318 106.987 112.751 106.987 112.751C106.987 112.751 107.239 113.318 107.365 113.475C107.491 113.633 108.089 113.853 108.089 113.853C108.089 113.853 107.522 114.105 107.365 114.231C107.239 114.389 106.987 114.955 106.987 114.955Z" fill="url(#paint3_radial)"/>
<path opacity="0.32" d="M104.405 127.332C104.405 127.332 103.995 126.387 103.744 126.136C103.492 125.884 102.547 125.474 102.547 125.474C102.547 125.474 103.492 125.065 103.744 124.813C103.995 124.561 104.405 123.616 104.405 123.616C104.405 123.616 104.814 124.561 105.066 124.813C105.318 125.065 106.263 125.474 106.263 125.474C106.263 125.474 105.318 125.884 105.066 126.136C104.814 126.387 104.405 127.332 104.405 127.332Z" fill="url(#paint4_radial)"/>
<path opacity="0.32" d="M103.051 105.446C103.051 105.446 102.642 104.501 102.39 104.249C102.138 103.997 101.193 103.588 101.193 103.588C101.193 103.588 102.138 103.178 102.39 102.926C102.642 102.674 103.051 101.729 103.051 101.729C103.051 101.729 103.461 102.674 103.713 102.926C103.965 103.178 104.909 103.588 104.909 103.588C104.909 103.588 103.965 103.997 103.713 104.249C103.461 104.469 103.051 105.446 103.051 105.446Z" fill="url(#paint5_radial)"/>
<path opacity="0.5" d="M108.688 108.059C109.036 108.059 109.318 107.777 109.318 107.43C109.318 107.082 109.036 106.8 108.688 106.8C108.341 106.8 108.059 107.082 108.059 107.43C108.059 107.777 108.341 108.059 108.688 108.059Z" fill="url(#paint6_radial)"/>
<path opacity="0.5" d="M101.729 128.812C101.729 128.812 101.603 129.127 101.509 129.222C101.415 129.316 101.1 129.442 101.1 129.442C101.1 129.442 101.415 129.568 101.509 129.663C101.603 129.757 101.729 130.072 101.729 130.072C101.729 130.072 101.855 129.757 101.95 129.663C102.044 129.568 102.359 129.442 102.359 129.442C102.359 129.442 102.044 129.316 101.95 129.222C101.887 129.127 101.729 128.812 101.729 128.812Z" fill="url(#paint7_radial)"/>
<path opacity="0.5" d="M110.2 120.436C110.2 120.436 110.074 120.75 109.98 120.845C109.885 120.939 109.57 121.065 109.57 121.065C109.57 121.065 109.885 121.191 109.98 121.286C110.074 121.38 110.2 121.695 110.2 121.695C110.2 121.695 110.326 121.38 110.421 121.286C110.515 121.191 110.83 121.065 110.83 121.065C110.83 121.065 110.515 120.939 110.421 120.845C110.358 120.75 110.2 120.436 110.2 120.436Z" fill="url(#paint8_radial)"/>
<path opacity="0.5" d="M141.438 129.442C141.438 129.442 141.312 129.757 141.218 129.852C141.124 129.946 140.809 130.072 140.809 130.072C140.809 130.072 141.124 130.198 141.218 130.293C141.312 130.387 141.438 130.702 141.438 130.702C141.438 130.702 141.564 130.387 141.659 130.293C141.753 130.198 142.068 130.072 142.068 130.072C142.068 130.072 141.753 129.946 141.659 129.852C141.596 129.757 141.438 129.442 141.438 129.442Z" fill="url(#paint9_radial)"/>
<path d="M109.097 135.016C109.097 135.142 109.034 135.237 108.908 135.237C108.782 135.237 108.688 135.174 108.688 135.048C108.688 134.922 108.751 134.827 108.877 134.827C109.003 134.827 109.097 134.922 109.097 135.016ZM110.42 131.143C110.199 131.174 110.01 131.363 110.042 131.584C110.073 131.804 110.262 131.993 110.483 131.961C110.703 131.93 110.892 131.741 110.861 131.521C110.861 131.269 110.64 131.111 110.42 131.143ZM111.679 135.961C111.239 135.992 110.892 136.402 110.924 136.843C110.955 137.284 111.364 137.63 111.805 137.598C112.246 137.567 112.593 137.158 112.561 136.717C112.53 136.276 112.12 135.929 111.679 135.961ZM104.657 137.535C104.436 137.567 104.247 137.756 104.279 137.976C104.31 138.197 104.499 138.386 104.72 138.354C104.94 138.323 105.129 138.134 105.098 137.913C105.066 137.693 104.877 137.504 104.657 137.535Z" fill="url(#paint10_radial)"/>
<path opacity="0.32" d="M142.133 37.0765C142.133 37.0765 141.882 36.5096 141.756 36.3522C141.598 36.1947 141.031 35.9743 141.031 35.9743C141.031 35.9743 141.598 35.7223 141.756 35.5964C141.913 35.4389 142.133 34.8721 142.133 34.8721C142.133 34.8721 142.385 35.4389 142.511 35.5964C142.669 35.7538 143.236 35.9743 143.236 35.9743C143.236 35.9743 142.669 36.2262 142.511 36.3522C142.385 36.4782 142.133 37.0765 142.133 37.0765Z" fill="url(#paint11_radial)"/>
<path opacity="0.32" d="M108.657 15.0638C108.657 15.0638 108.405 14.4969 108.279 14.3395C108.122 14.182 107.555 13.9616 107.555 13.9616C107.555 13.9616 108.122 13.7097 108.279 13.5837C108.436 13.4262 108.657 12.8594 108.657 12.8594C108.657 12.8594 108.909 13.4262 109.035 13.5837C109.192 13.7411 109.759 13.9616 109.759 13.9616C109.759 13.9616 109.192 14.2135 109.035 14.3395C108.909 14.4969 108.657 15.0638 108.657 15.0638Z" fill="url(#paint12_radial)"/>
<path opacity="0.32" d="M106.075 27.4719C106.075 27.4719 105.665 26.5271 105.413 26.2752C105.162 26.0233 104.217 25.6139 104.217 25.6139C104.217 25.6139 105.162 25.2045 105.413 24.9525C105.665 24.7006 106.075 23.7559 106.075 23.7559C106.075 23.7559 106.484 24.7006 106.736 24.9525C106.988 25.2045 107.933 25.6139 107.933 25.6139C107.933 25.6139 106.988 26.0233 106.736 26.2752C106.484 26.4956 106.075 27.4719 106.075 27.4719Z" fill="url(#paint13_radial)"/>
<path opacity="0.5" d="M110.356 8.16787C110.704 8.16787 110.986 7.88589 110.986 7.53804C110.986 7.19019 110.704 6.9082 110.356 6.9082C110.009 6.9082 109.727 7.19019 109.727 7.53804C109.727 7.88589 110.009 8.16787 110.356 8.16787Z" fill="url(#paint14_radial)"/>
<path opacity="0.5" d="M120.403 40.7617C120.403 40.7617 120.277 41.0766 120.183 41.1711C120.088 41.2656 119.773 41.3916 119.773 41.3916C119.773 41.3916 120.088 41.5175 120.183 41.612C120.277 41.7065 120.403 42.0214 120.403 42.0214C120.403 42.0214 120.529 41.7065 120.624 41.612C120.718 41.5175 121.033 41.3916 121.033 41.3916C121.033 41.3916 120.718 41.2656 120.624 41.1711C120.529 41.0766 120.403 40.7617 120.403 40.7617Z" fill="url(#paint15_radial)"/>
<path opacity="0.5" d="M103.397 28.9521C103.397 28.9521 103.271 29.2671 103.177 29.3615C103.082 29.456 102.768 29.582 102.768 29.582C102.768 29.582 103.082 29.7079 103.177 29.8024C103.271 29.8969 103.397 30.2118 103.397 30.2118C103.397 30.2118 103.523 29.8969 103.618 29.8024C103.712 29.7079 104.027 29.582 104.027 29.582C104.027 29.582 103.712 29.456 103.618 29.3615C103.555 29.2671 103.397 28.9521 103.397 28.9521Z" fill="url(#paint16_radial)"/>
<path opacity="0.5" d="M111.868 20.5439C111.868 20.5439 111.742 20.8589 111.648 20.9533C111.553 21.0478 111.238 21.1738 111.238 21.1738C111.238 21.1738 111.553 21.2998 111.648 21.3942C111.742 21.4887 111.868 21.8036 111.868 21.8036C111.868 21.8036 111.994 21.4887 112.089 21.3942C112.183 21.2998 112.498 21.1738 112.498 21.1738C112.498 21.1738 112.183 21.0478 112.089 20.9533C111.994 20.8589 111.868 20.5439 111.868 20.5439Z" fill="url(#paint17_radial)"/>
<path d="M110.767 35.1555C110.767 35.2815 110.704 35.3759 110.578 35.3759C110.452 35.3759 110.358 35.3129 110.358 35.187C110.358 35.061 110.421 34.9665 110.547 34.9665C110.673 34.935 110.767 35.0295 110.767 35.1555ZM112.09 31.2505C111.869 31.282 111.68 31.471 111.712 31.6914C111.743 31.9118 111.932 32.1008 112.153 32.0693C112.373 32.0378 112.562 31.8489 112.531 31.6284C112.531 31.408 112.31 31.219 112.09 31.2505ZM113.318 36.1002C112.877 36.1317 112.531 36.5411 112.562 36.982C112.594 37.4229 113.003 37.7693 113.444 37.7378C113.885 37.7063 114.231 37.2969 114.2 36.856C114.168 36.3837 113.79 36.0688 113.318 36.1002ZM106.327 37.6433C106.106 37.6748 105.917 37.8638 105.949 38.0842C105.98 38.3047 106.169 38.4936 106.39 38.4621C106.61 38.4306 106.799 38.2417 106.768 38.0212C106.736 37.8008 106.547 37.6433 106.327 37.6433Z" fill="url(#paint18_radial)"/>
<path opacity="0.32" d="M22.495 29.96C22.495 29.96 22.558 30.5898 22.6525 30.7473C22.7469 30.9362 23.2193 31.3456 23.2193 31.3456C23.2193 31.3456 22.5895 31.4086 22.432 31.5031C22.2746 31.5975 21.8337 32.0699 21.8337 32.0699C21.8337 32.0699 21.7707 31.4401 21.6762 31.2826C21.5818 31.0937 21.1094 30.6843 21.1094 30.6843C21.1094 30.6843 21.7392 30.6213 21.8967 30.5268C22.0856 30.4323 22.495 29.96 22.495 29.96Z" fill="url(#paint19_radial)"/>
<path opacity="0.32" d="M33.0126 6.02637C33.0126 6.02637 33.0756 6.6562 33.1701 6.81366C33.2645 7.00261 33.7369 7.412 33.7369 7.412C33.7369 7.412 33.1071 7.47498 32.9496 7.56946C32.7607 7.66393 32.3513 8.13631 32.3513 8.13631C32.3513 8.13631 32.2883 7.50648 32.1938 7.34902C32.0993 7.16007 31.627 6.75068 31.627 6.75068C31.627 6.75068 32.2568 6.68769 32.4142 6.59322C32.6032 6.49874 33.0126 6.02637 33.0126 6.02637Z" fill="url(#paint20_radial)"/>
<path opacity="0.32" d="M58.5849 36.8564C58.5849 36.8564 58.6478 37.4863 58.7423 37.6437C58.8368 37.8327 59.3092 38.2421 59.3092 38.2421C59.3092 38.2421 58.6793 38.3051 58.5219 38.3995C58.3329 38.494 57.9235 38.9664 57.9235 38.9664C57.9235 38.9664 57.8606 38.3366 57.7661 38.1791C57.6716 37.9901 57.1992 37.5808 57.1992 37.5808C57.1992 37.5808 57.8291 37.5178 57.9865 37.4233C58.207 37.3288 58.5849 36.8564 58.5849 36.8564Z" fill="url(#paint21_radial)"/>
<path d="M64.6934 25.7715C64.6934 25.7715 64.8194 26.8107 64.9769 27.0941C65.1343 27.4091 65.9216 28.0704 65.9216 28.0704C65.9216 28.0704 64.8824 28.1963 64.599 28.3538C64.284 28.5113 63.6227 29.2986 63.6227 29.2986C63.6227 29.2986 63.4967 28.2593 63.3393 27.9759C63.1818 27.661 62.3945 26.9997 62.3945 26.9997C62.3945 26.9997 63.4338 26.8737 63.7172 26.7162C64.0321 26.5588 64.6934 25.7715 64.6934 25.7715Z" fill="url(#paint22_radial)"/>
<path opacity="0.32" d="M59.5919 47.123C59.5919 47.123 59.7178 48.1623 59.8753 48.4457C60.0327 48.7606 60.82 49.4219 60.82 49.4219C60.82 49.4219 59.7808 49.5479 59.4974 49.7054C59.1825 49.8628 58.5211 50.6501 58.5211 50.6501C58.5211 50.6501 58.3952 49.6109 58.2377 49.3275C58.0803 49.0125 57.293 48.3512 57.293 48.3512C57.293 48.3512 58.3322 48.2253 58.6156 48.0678C58.899 47.9103 59.5919 47.123 59.5919 47.123Z" fill="url(#paint23_radial)"/>
<path d="M21.4551 10.2148C21.4551 10.2148 21.5811 11.2541 21.7386 11.5375C21.896 11.8524 22.6833 12.5137 22.6833 12.5137C22.6833 12.5137 21.6441 12.6397 21.3607 12.7972C21.0458 12.9546 20.3844 13.7419 20.3844 13.7419C20.3844 13.7419 20.2585 12.7027 20.101 12.4193C19.9435 12.1043 19.1562 11.443 19.1562 11.443C19.1562 11.443 20.1955 11.3171 20.4789 11.1596C20.7623 11.0021 21.4551 10.2148 21.4551 10.2148Z" fill="url(#paint24_radial)"/>
<path opacity="0.5" d="M54.7744 44.1942C55.1222 44.1942 55.4042 43.9123 55.4042 43.5644C55.4042 43.2166 55.1222 42.9346 54.7744 42.9346C54.4265 42.9346 54.1445 43.2166 54.1445 43.5644C54.1445 43.9123 54.4265 44.1942 54.7744 44.1942Z" fill="url(#paint25_radial)"/>
<path opacity="0.5" d="M54.8684 8.86051C54.8684 8.86051 55.0888 8.60857 55.1833 8.54559C55.2778 8.48261 55.6242 8.45111 55.6242 8.45111C55.6242 8.45111 55.3722 8.23067 55.3093 8.1362C55.2463 8.04172 55.2148 7.69531 55.2148 7.69531C55.2148 7.69531 54.9943 7.94725 54.8999 8.01023C54.8054 8.07321 54.459 8.10471 54.459 8.10471C54.459 8.10471 54.7109 8.32515 54.7739 8.41962C54.8369 8.5141 54.8684 8.86051 54.8684 8.86051Z" fill="url(#paint26_radial)"/>
<path opacity="0.5" d="M67.6848 25.1105C67.6848 25.1105 67.9052 24.8586 67.9997 24.7956C68.0942 24.7326 68.4406 24.7011 68.4406 24.7011C68.4406 24.7011 68.1887 24.4807 68.1257 24.3862C68.0627 24.2917 68.0312 23.9453 68.0312 23.9453C68.0312 23.9453 67.8107 24.1972 67.7163 24.2602C67.6218 24.3232 67.2754 24.3547 67.2754 24.3547C67.2754 24.3547 67.5273 24.5751 67.5903 24.6696C67.6218 24.7641 67.6848 25.1105 67.6848 25.1105Z" fill="url(#paint27_radial)"/>
<path opacity="0.5" d="M57.136 30.6838C57.136 30.6838 57.3564 30.4318 57.4509 30.3688C57.5454 30.3059 57.8918 30.2744 57.8918 30.2744C57.8918 30.2744 57.6398 30.0539 57.5768 29.9594C57.5139 29.865 57.4824 29.5186 57.4824 29.5186C57.4824 29.5186 57.2619 29.7705 57.1674 29.8335C57.073 29.8965 56.7266 29.9279 56.7266 29.9279C56.7266 29.9279 56.9785 30.1484 57.0415 30.2429C57.073 30.3373 57.136 30.6838 57.136 30.6838Z" fill="url(#paint28_radial)"/>
<path opacity="0.5" d="M14.9367 37.423C14.9367 37.423 15.1572 37.1711 15.2517 37.1081C15.3461 37.0451 15.6925 37.0136 15.6925 37.0136C15.6925 37.0136 15.4406 36.7932 15.3776 36.6987C15.3146 36.6042 15.2831 36.2578 15.2831 36.2578C15.2831 36.2578 15.0627 36.5097 14.9682 36.5727C14.8738 36.6357 14.5273 36.6672 14.5273 36.6672C14.5273 36.6672 14.7793 36.8876 14.8423 36.9821C14.9052 37.0766 14.9367 37.423 14.9367 37.423Z" fill="url(#paint29_radial)"/>
<path opacity="0.5" d="M29.8957 12.923C29.8957 12.923 30.1162 12.6711 30.2106 12.6081C30.3051 12.5451 30.6515 12.5136 30.6515 12.5136C30.6515 12.5136 30.3996 12.2932 30.3366 12.1987C30.2736 12.1042 30.2421 11.7578 30.2421 11.7578C30.2421 11.7578 30.0217 12.0097 29.9272 12.0727C29.8327 12.1357 29.4863 12.1672 29.4863 12.1672C29.4863 12.1672 29.7383 12.3876 29.8012 12.4821C29.8327 12.5766 29.8957 12.923 29.8957 12.923Z" fill="url(#paint30_radial)"/>
<path d="M23.7233 20.6068C23.6918 20.7013 23.5658 20.7642 23.4714 20.7328C23.3769 20.7013 23.3139 20.5753 23.3454 20.4808C23.3769 20.3863 23.5029 20.3234 23.5973 20.3549C23.6918 20.3549 23.7548 20.4808 23.7233 20.6068ZM26.4001 17.4576C26.1797 17.3946 25.9592 17.5206 25.8962 17.741C25.8332 17.9615 25.9592 18.1819 26.1797 18.2449C26.4001 18.3079 26.6205 18.1819 26.6835 17.9615C26.715 17.7725 26.589 17.5521 26.4001 17.4576ZM25.7388 22.4333C25.2979 22.3073 24.857 22.5593 24.6995 22.9687C24.5736 23.4096 24.8255 23.8504 25.2349 24.0079C25.6758 24.1339 26.1167 23.8819 26.2741 23.4725C26.4001 23.0317 26.1482 22.5593 25.7388 22.4333ZM18.6216 21.2681C18.4012 21.2051 18.1808 21.3311 18.1178 21.5515C18.0548 21.772 18.1808 21.9924 18.4012 22.0554C18.6216 22.1184 18.8421 21.9924 18.9051 21.772C18.9681 21.5515 18.8421 21.3311 18.6216 21.2681Z" fill="url(#paint31_radial)"/>
<path opacity="0.32" d="M74.2674 9.48988C74.2674 9.48988 73.6376 9.48988 73.4486 9.55286C73.2597 9.61584 72.7873 10.0252 72.7873 10.0252C72.7873 10.0252 72.7873 9.3954 72.7243 9.20645C72.6613 9.0175 72.252 8.54513 72.252 8.54513C72.252 8.54513 72.8818 8.54512 73.0707 8.48214C73.2597 8.41916 73.7321 8.00977 73.7321 8.00977C73.7321 8.00977 73.7321 8.6396 73.795 8.82855C73.858 9.04899 74.2674 9.48988 74.2674 9.48988Z" fill="url(#paint32_radial)"/>
<path opacity="0.32" d="M93.9809 11.096C93.9809 11.096 92.9417 11.0645 92.6268 11.1905C92.3119 11.3164 91.5246 12.0093 91.5246 12.0093C91.5246 12.0093 91.5561 10.97 91.4301 10.6551C91.3041 10.3402 90.6113 9.55291 90.6113 9.55291C90.6113 9.55291 91.6506 9.5844 91.9655 9.45843C92.2804 9.33247 93.0677 8.63965 93.0677 8.63965C93.0677 8.63965 93.0362 9.67888 93.1622 9.99379C93.2881 10.3402 93.9809 11.096 93.9809 11.096Z" fill="url(#paint33_radial)"/>
<path opacity="0.5" d="M90.1719 19.0952C90.1719 19.0952 90.3923 19.3471 90.4553 19.4731C90.4868 19.5676 90.4868 19.914 90.4868 19.914C90.4868 19.914 90.7387 19.6935 90.8647 19.6305C90.9592 19.5991 91.3056 19.5991 91.3056 19.5991C91.3056 19.5991 91.0851 19.3471 91.0221 19.2212C90.9907 19.1267 90.9907 18.7803 90.9907 18.7803C90.9907 18.7803 90.7387 19.0007 90.6128 19.0637C90.5183 19.1267 90.1719 19.0952 90.1719 19.0952Z" fill="url(#paint34_radial)"/>
<path d="M83.3999 11.978C83.3054 11.915 83.2424 11.8206 83.3054 11.6946C83.3684 11.6001 83.4629 11.5371 83.5889 11.6001C83.6833 11.6631 83.7463 11.7576 83.6833 11.8836C83.6204 11.978 83.4944 12.0095 83.3999 11.978ZM86.1397 15.0327C86.2342 14.8123 86.1397 14.5918 85.9507 14.4974C85.7303 14.4029 85.5099 14.4974 85.4154 14.6863C85.3209 14.9068 85.4154 15.1272 85.6043 15.2217C85.7933 15.3162 86.0452 15.2532 86.1397 15.0327ZM81.3215 13.7101C81.5104 13.3007 81.3215 12.7968 80.9121 12.6079C80.5027 12.4189 79.9988 12.6079 79.8099 13.0173C79.6209 13.4267 79.8099 13.9305 80.2192 14.1195C80.6286 14.3084 81.1325 14.1195 81.3215 13.7101ZM83.4314 6.84488C83.5259 6.62444 83.4314 6.404 83.2425 6.30952C83.022 6.21505 82.8016 6.30953 82.7071 6.49848C82.6126 6.71892 82.7071 6.93936 82.896 7.03383C83.085 7.1598 83.3369 7.06533 83.4314 6.84488Z" fill="url(#paint35_radial)"/>
<path opacity="0.5" d="M37.2323 24.1025C37.2323 24.1025 36.9489 24.4175 36.7915 24.4804C36.6655 24.5434 36.2246 24.5749 36.2246 24.5749C36.2246 24.5749 36.5395 24.8583 36.6025 25.0158C36.6655 25.1418 36.697 25.5826 36.697 25.5826C36.697 25.5826 36.9804 25.2677 37.1379 25.2047C37.2638 25.1418 37.7047 25.1103 37.7047 25.1103C37.7047 25.1103 37.3898 24.8268 37.3268 24.6694C37.2638 24.5434 37.2323 24.1025 37.2323 24.1025Z" fill="url(#paint36_radial)"/>
<path d="M45.4852 14.8441C45.5482 14.7182 45.6741 14.6552 45.8316 14.6867C45.9576 14.7497 46.0205 14.8756 45.989 15.0331C45.9261 15.1591 45.8001 15.222 45.6426 15.1905C45.5167 15.1276 45.4537 14.9701 45.4852 14.8441ZM41.9266 18.6231C42.21 18.7176 42.4935 18.5917 42.5879 18.3082C42.6824 18.0248 42.5565 17.7414 42.273 17.6469C41.9896 17.5524 41.7062 17.6784 41.6117 17.9618C41.5172 18.2137 41.6747 18.5287 41.9266 18.6231ZM43.0603 12.4193C43.5957 12.6082 44.194 12.3248 44.383 11.7894C44.5719 11.2541 44.2885 10.6557 43.7531 10.4668C43.2178 10.2778 42.6194 10.5613 42.4305 11.0966C42.2415 11.632 42.525 12.1988 43.0603 12.4193ZM51.941 14.3088C52.2244 14.4033 52.5078 14.2773 52.6023 13.9939C52.6968 13.7104 52.5708 13.427 52.2874 13.3325C52.004 13.2381 51.7205 13.364 51.6261 13.6475C51.5316 13.9309 51.6576 14.2143 51.941 14.3088Z" fill="url(#paint37_radial)"/>
<path opacity="0.5" d="M125.189 28.1016C125.189 28.1016 125.283 28.5424 125.252 28.6684C125.22 28.7944 125 29.1723 125 29.1723C125 29.1723 125.441 29.0778 125.567 29.1093C125.693 29.1408 126.071 29.3612 126.071 29.3612C126.071 29.3612 125.976 28.9204 126.008 28.7944C126.039 28.6684 126.26 28.2905 126.26 28.2905C126.26 28.2905 125.819 28.385 125.693 28.3535C125.567 28.322 125.189 28.1016 125.189 28.1016Z" fill="url(#paint38_radial)"/>
<path d="M122.228 16.0403C122.134 15.9144 122.165 15.7569 122.291 15.6939C122.417 15.5995 122.575 15.6309 122.638 15.7569C122.732 15.8829 122.701 16.0403 122.575 16.1033C122.48 16.1663 122.323 16.1663 122.228 16.0403ZM123.299 21.1105C123.519 20.953 123.582 20.6066 123.425 20.3862C123.268 20.1658 122.921 20.1028 122.701 20.2602C122.48 20.4177 122.417 20.7641 122.575 20.9845C122.764 21.2365 123.079 21.268 123.299 21.1105ZM118.859 16.6387C119.331 16.2923 119.426 15.6624 119.111 15.1901C118.764 14.7177 118.134 14.6232 117.662 14.9381C117.19 15.2845 117.095 15.9144 117.41 16.3867C117.725 16.8906 118.386 16.9851 118.859 16.6387ZM125.44 10.4348C125.661 10.2774 125.724 9.93095 125.566 9.7105C125.409 9.49006 125.063 9.42708 124.842 9.58454C124.622 9.742 124.559 10.0884 124.716 10.3088C124.905 10.5608 125.22 10.5923 125.44 10.4348Z" fill="url(#paint39_radial)"/>
<path d="M62.4257 17.0482C62.4572 16.9222 62.5517 16.8592 62.6776 16.8907C62.8036 16.9222 62.8666 17.0167 62.8351 17.1427C62.8036 17.2686 62.7091 17.3316 62.5831 17.3001C62.4887 17.2686 62.4257 17.1427 62.4257 17.0482ZM60.0323 20.3863C60.2528 20.4493 60.4732 20.2918 60.5362 20.0714C60.5992 19.851 60.4417 19.6305 60.2213 19.5675C60.0008 19.5045 59.7804 19.662 59.7174 19.8824C59.6859 20.1029 59.8119 20.3233 60.0323 20.3863ZM60.2843 15.3791C60.7251 15.4736 61.166 15.1902 61.2605 14.7493C61.355 14.3084 61.0715 13.8675 60.6307 13.7731C60.1898 13.6786 59.7489 13.962 59.6544 14.4029C59.5599 14.8438 59.8119 15.2847 60.2843 15.3791ZM67.4329 15.946C67.6533 16.009 67.8738 15.8515 67.9367 15.6311C67.9997 15.4106 67.8423 15.1902 67.6218 15.1272C67.4014 15.0642 67.1809 15.2217 67.118 15.4421C67.0865 15.6626 67.2124 15.883 67.4329 15.946Z" fill="url(#paint40_radial)"/>
<path opacity="0.32" d="M18.8739 106.894C18.8739 106.894 18.9369 107.523 19.0314 107.681C19.1258 107.87 19.5982 108.279 19.5982 108.279C19.5982 108.279 18.9684 108.342 18.8109 108.437C18.622 108.531 18.2126 109.003 18.2126 109.003C18.2126 109.003 18.1496 108.374 18.0551 108.216C17.9607 108.027 17.4883 107.618 17.4883 107.618C17.4883 107.618 18.1181 107.555 18.2756 107.46C18.4645 107.366 18.8739 106.894 18.8739 106.894Z" fill="url(#paint41_radial)"/>
<path opacity="0.32" d="M29.3915 82.96C29.3915 82.96 29.4545 83.5898 29.549 83.7473C29.6434 83.9362 30.1158 84.3456 30.1158 84.3456C30.1158 84.3456 29.486 84.4086 29.3285 84.5031C29.1396 84.5975 28.7302 85.0699 28.7302 85.0699C28.7302 85.0699 28.6672 84.4401 28.5727 84.2826C28.4782 84.0937 28.0059 83.6843 28.0059 83.6843C28.0059 83.6843 28.6357 83.6213 28.7932 83.5268C28.9821 83.4323 29.3915 82.96 29.3915 82.96Z" fill="url(#paint42_radial)"/>
<path d="M123.647 124.183C123.647 124.183 123.71 124.812 123.805 124.97C123.899 125.159 124.372 125.568 124.372 125.568C124.372 125.568 123.742 125.631 123.584 125.726C123.395 125.82 122.986 126.293 122.986 126.293C122.986 126.293 122.923 125.663 122.829 125.505C122.734 125.316 122.262 124.907 122.262 124.907C122.262 124.907 122.892 124.844 123.049 124.749C123.238 124.655 123.647 124.183 123.647 124.183Z" fill="url(#paint43_radial)"/>
<path opacity="0.32" d="M129.725 113.098C129.725 113.098 129.851 114.137 130.008 114.42C130.166 114.735 130.953 115.397 130.953 115.397C130.953 115.397 129.914 115.523 129.63 115.68C129.315 115.837 128.654 116.625 128.654 116.625C128.654 116.625 128.528 115.586 128.371 115.302C128.213 114.987 127.426 114.326 127.426 114.326C127.426 114.326 128.465 114.2 128.748 114.042C129.063 113.885 129.725 113.098 129.725 113.098Z" fill="url(#paint44_radial)"/>
<path opacity="0.32" d="M55.9708 124.025C55.9708 124.025 56.0967 125.065 56.2542 125.348C56.4116 125.663 57.1989 126.324 57.1989 126.324C57.1989 126.324 56.1597 126.45 55.8763 126.608C55.5614 126.765 54.9 127.552 54.9 127.552C54.9 127.552 54.7741 126.513 54.6166 126.23C54.4592 125.915 53.6719 125.254 53.6719 125.254C53.6719 125.254 54.7111 125.128 54.9945 124.97C55.2779 124.813 55.9708 124.025 55.9708 124.025Z" fill="url(#paint45_radial)"/>
<path opacity="0.32" d="M17.834 87.1484C17.834 87.1484 17.96 88.1877 18.1175 88.4711C18.2749 88.786 19.0622 89.4473 19.0622 89.4473C19.0622 89.4473 18.023 89.5733 17.7396 89.7308C17.4247 89.8882 16.7633 90.6755 16.7633 90.6755C16.7633 90.6755 16.6374 89.6363 16.4799 89.3529C16.3224 89.0379 15.5352 88.3766 15.5352 88.3766C15.5352 88.3766 16.5744 88.2506 16.8578 88.0932C17.1412 87.9357 17.834 87.1484 17.834 87.1484Z" fill="url(#paint46_radial)"/>
<path opacity="0.5" d="M51.1533 121.128C51.5011 121.128 51.7831 120.846 51.7831 120.498C51.7831 120.15 51.5011 119.868 51.1533 119.868C50.8054 119.868 50.5234 120.15 50.5234 120.498C50.5234 120.846 50.8054 121.128 51.1533 121.128Z" fill="url(#paint47_radial)"/>
<path opacity="0.5" d="M26.6203 68.2853C26.6203 68.2853 26.8408 68.0334 26.9352 67.9704C27.0297 67.9074 27.3761 67.8759 27.3761 67.8759C27.3761 67.8759 27.1242 67.6555 27.0612 67.561C26.9982 67.4665 26.9667 67.1201 26.9667 67.1201C26.9667 67.1201 26.7463 67.3721 26.6518 67.435C26.5573 67.498 26.2109 67.5295 26.2109 67.5295C26.2109 67.5295 26.4629 67.75 26.5259 67.8444C26.5888 67.9389 26.6203 68.2853 26.6203 68.2853Z" fill="url(#paint48_radial)"/>
<path opacity="0.5" d="M64.0637 102.044C64.0637 102.044 64.2841 101.792 64.3786 101.729C64.4731 101.666 64.8195 101.635 64.8195 101.635C64.8195 101.635 64.5676 101.414 64.5046 101.32C64.4416 101.225 64.4101 100.879 64.4101 100.879C64.4101 100.879 64.1897 101.131 64.0952 101.194C64.0007 101.257 63.6543 101.288 63.6543 101.288C63.6543 101.288 63.9062 101.509 63.9692 101.603C64.0007 101.698 64.0637 102.044 64.0637 102.044Z" fill="url(#paint49_radial)"/>
<path opacity="0.5" d="M122.167 118.011C122.167 118.011 122.388 117.759 122.482 117.696C122.577 117.633 122.923 117.602 122.923 117.602C122.923 117.602 122.671 117.381 122.608 117.287C122.545 117.192 122.514 116.846 122.514 116.846C122.514 116.846 122.293 117.098 122.199 117.161C122.104 117.224 121.758 117.255 121.758 117.255C121.758 117.255 122.01 117.476 122.073 117.57C122.104 117.664 122.167 118.011 122.167 118.011Z" fill="url(#paint50_radial)"/>
<path opacity="0.5" d="M11.3156 114.358C11.3156 114.358 11.5361 114.106 11.6306 114.043C11.725 113.98 12.0714 113.948 12.0714 113.948C12.0714 113.948 11.8195 113.728 11.7565 113.633C11.6935 113.539 11.6621 113.192 11.6621 113.192C11.6621 113.192 11.4416 113.444 11.3471 113.507C11.2527 113.57 10.9062 113.602 10.9062 113.602C10.9062 113.602 11.1582 113.822 11.2212 113.917C11.2842 114.011 11.3156 114.358 11.3156 114.358Z" fill="url(#paint51_radial)"/>
<path opacity="0.5" d="M26.2746 89.8566C26.2746 89.8566 26.4951 89.6047 26.5895 89.5417C26.684 89.4787 27.0304 89.4472 27.0304 89.4472C27.0304 89.4472 26.7785 89.2268 26.7155 89.1323C26.6525 89.0378 26.621 88.6914 26.621 88.6914C26.621 88.6914 26.4006 88.9433 26.3061 89.0063C26.2116 89.0693 25.8652 89.1008 25.8652 89.1008C25.8652 89.1008 26.1172 89.3212 26.1802 89.4157C26.2116 89.5102 26.2746 89.8566 26.2746 89.8566Z" fill="url(#paint52_radial)"/>
<path d="M45.8307 65.4825C45.7992 65.577 45.6733 65.64 45.5788 65.6085C45.4843 65.577 45.4213 65.451 45.4528 65.3566C45.4843 65.2621 45.6103 65.1991 45.7048 65.2306C45.7992 65.2621 45.8622 65.388 45.8307 65.4825ZM48.476 62.3648C48.2556 62.3019 48.0351 62.4278 47.9722 62.6483C47.9092 62.8687 48.0351 63.0892 48.2556 63.1521C48.476 63.2151 48.6965 63.0891 48.7595 62.8687C48.8224 62.6483 48.6965 62.4278 48.476 62.3648ZM47.8462 67.309C47.4053 67.1831 46.9644 67.435 46.807 67.8444C46.681 68.2853 46.9329 68.7262 47.3423 68.8836C47.7832 69.0096 48.2241 68.7577 48.3815 68.3483C48.5075 67.9074 48.2556 67.4665 47.8462 67.309ZM40.7291 66.1439C40.5086 66.0809 40.2882 66.2068 40.2252 66.4273C40.1622 66.6477 40.2882 66.8682 40.5086 66.9311C40.7291 66.9941 40.9495 66.8682 41.0125 66.6477C41.0755 66.4273 40.9495 66.2383 40.7291 66.1439Z" fill="url(#paint53_radial)"/>
<path opacity="0.32" d="M78.5505 118.168C78.5505 118.168 78.3615 117.57 78.2355 117.412C78.1096 117.255 77.5742 116.94 77.5742 116.94C77.5742 116.94 78.1726 116.751 78.33 116.625C78.4875 116.499 78.8024 115.964 78.8024 115.964C78.8024 115.964 78.9913 116.562 79.1173 116.72C79.2433 116.877 79.7786 117.192 79.7786 117.192C79.7786 117.192 79.1803 117.381 79.0228 117.507C78.8654 117.633 78.5505 118.168 78.5505 118.168Z" fill="url(#paint54_radial)"/>
<path opacity="0.32" d="M83.149 137.41C83.149 137.41 82.8341 136.402 82.6452 136.15C82.4247 135.898 81.543 135.363 81.543 135.363C81.543 135.363 82.5507 135.048 82.8026 134.859C83.0546 134.639 83.5899 133.757 83.5899 133.757C83.5899 133.757 83.9048 134.765 84.0938 135.017C84.3142 135.268 85.196 135.804 85.196 135.804C85.196 135.804 84.1883 136.119 83.9363 136.308C83.6529 136.528 83.149 137.41 83.149 137.41Z" fill="url(#paint55_radial)"/>
<path opacity="0.5" d="M84.6594 109.477C84.6594 109.477 84.5019 109.791 84.4074 109.854C84.313 109.917 83.998 110.012 83.998 110.012C83.998 110.012 84.313 110.169 84.376 110.264C84.4389 110.358 84.5334 110.673 84.5334 110.673C84.5334 110.673 84.6909 110.358 84.7853 110.295C84.8798 110.232 85.1947 110.138 85.1947 110.138C85.1947 110.138 84.8798 109.98 84.8168 109.886C84.7538 109.791 84.6594 109.477 84.6594 109.477Z" fill="url(#paint56_radial)"/>
<path opacity="0.5" d="M74.3625 136.275C74.3625 136.275 74.205 136.59 74.1106 136.653C74.0161 136.716 73.7012 136.811 73.7012 136.811C73.7012 136.811 74.0161 136.968 74.0791 137.063C74.1421 137.157 74.2365 137.472 74.2365 137.472C74.2365 137.472 74.394 137.157 74.4885 137.094C74.5829 137.031 74.8979 136.937 74.8979 136.937C74.8979 136.937 74.5829 136.779 74.52 136.685C74.457 136.59 74.3625 136.275 74.3625 136.275Z" fill="url(#paint57_radial)"/>
<path d="M79.0549 127.615C79.0549 127.489 79.1809 127.426 79.2754 127.426C79.4013 127.426 79.4643 127.552 79.4643 127.647C79.4643 127.773 79.3383 127.836 79.2439 127.836C79.1179 127.836 79.0234 127.741 79.0549 127.615ZM76.9765 131.174C77.1969 131.205 77.4173 131.048 77.4173 130.827C77.4488 130.607 77.2914 130.386 77.0709 130.386C76.8505 130.355 76.63 130.512 76.63 130.733C76.5986 130.953 76.756 131.142 76.9765 131.174ZM76.7245 126.166C77.1654 126.229 77.5748 125.883 77.6378 125.442C77.7008 125.001 77.3544 124.592 76.9135 124.529C76.4726 124.466 76.0632 124.812 76.0002 125.253C75.9687 125.726 76.2836 126.135 76.7245 126.166ZM83.9046 126.041C84.1251 126.072 84.3455 125.915 84.3455 125.694C84.377 125.474 84.2196 125.253 83.9991 125.253C83.7787 125.222 83.5582 125.379 83.5582 125.6C83.5267 125.82 83.6842 126.009 83.9046 126.041Z" fill="url(#paint58_radial)"/>
<path opacity="0.32" d="M16.1344 50.1146C16.1344 50.1146 15.9455 49.5162 15.8195 49.3588C15.6936 49.2013 15.1582 48.8864 15.1582 48.8864C15.1582 48.8864 15.7565 48.6974 15.914 48.5715C16.0715 48.4455 16.3864 47.9102 16.3864 47.9102C16.3864 47.9102 16.5753 48.5085 16.7013 48.666C16.8273 48.8234 17.3626 49.1383 17.3626 49.1383C17.3626 49.1383 16.7643 49.3273 16.6068 49.4532C16.4494 49.5792 16.1344 50.1146 16.1344 50.1146Z" fill="url(#paint59_radial)"/>
<path opacity="0.32" d="M16.3864 76.0325C16.3864 76.0325 16.1975 75.4342 16.0715 75.2767C15.9455 75.1193 15.4102 74.8044 15.4102 74.8044C15.4102 74.8044 16.0085 74.6154 16.166 74.4895C16.3234 74.3635 16.6383 73.8281 16.6383 73.8281C16.6383 73.8281 16.8273 74.4265 16.9533 74.5839C17.0792 74.7414 17.6146 75.0563 17.6146 75.0563C17.6146 75.0563 17.0162 75.2453 16.8588 75.3712C16.7013 75.4972 16.3864 76.0325 16.3864 76.0325Z" fill="url(#paint60_radial)"/>
<path d="M26.9987 69.8278C26.9987 69.8278 26.6837 68.8201 26.4948 68.5682C26.2743 68.3162 25.3926 67.7809 25.3926 67.7809C25.3926 67.7809 26.4003 67.466 26.6522 67.277C26.9042 67.0566 27.4395 66.1748 27.4395 66.1748C27.4395 66.1748 27.7545 67.1825 27.9434 67.4345C28.1639 67.6864 29.0456 68.2218 29.0456 68.2218C29.0456 68.2218 28.0379 68.5367 27.786 68.7256C27.534 68.9461 26.9987 69.8278 26.9987 69.8278Z" fill="url(#paint61_radial)"/>
<path opacity="0.5" d="M28.509 41.8955C28.509 41.8955 28.3515 42.2104 28.257 42.2734C28.1626 42.3364 27.8477 42.4309 27.8477 42.4309C27.8477 42.4309 28.1626 42.5883 28.2256 42.6828C28.2885 42.7773 28.383 43.0922 28.383 43.0922C28.383 43.0922 28.5405 42.7773 28.6349 42.7143C28.7294 42.6513 29.0443 42.5568 29.0443 42.5568C29.0443 42.5568 28.7294 42.3994 28.6664 42.3049C28.6035 42.2104 28.509 41.8955 28.509 41.8955Z" fill="url(#paint62_radial)"/>
<path opacity="0.5" d="M18.2121 68.6943C18.2121 68.6943 18.0546 69.0093 17.9602 69.0722C17.8657 69.1352 17.5508 69.2297 17.5508 69.2297C17.5508 69.2297 17.8657 69.3872 17.9287 69.4816C17.9917 69.5761 18.0861 69.891 18.0861 69.891C18.0861 69.891 18.2436 69.5761 18.3381 69.5131C18.4325 69.4501 18.7475 69.3557 18.7475 69.3557C18.7475 69.3557 18.4326 69.1982 18.3696 69.1037C18.3066 69.0093 18.2121 68.6943 18.2121 68.6943Z" fill="url(#paint63_radial)"/>
<path d="M16.6369 59.5624C16.6369 59.4364 16.7629 59.3734 16.8574 59.3734C16.9834 59.3734 17.0463 59.4994 17.0463 59.5938C17.0463 59.6883 16.9204 59.7828 16.8259 59.7828C16.6999 59.7513 16.6055 59.6568 16.6369 59.5624ZM14.5585 63.0894C14.7789 63.1209 14.9994 62.9635 14.9994 62.743C15.0309 62.5226 14.8734 62.3021 14.653 62.3021C14.4325 62.2706 14.2121 62.4281 14.2121 62.6485C14.1806 62.869 14.338 63.0894 14.5585 63.0894ZM14.3066 58.1137C14.7474 58.1767 15.1568 57.8303 15.2198 57.3894C15.2828 56.9485 14.9364 56.5392 14.4955 56.4762C14.0546 56.4132 13.6452 56.7596 13.5822 57.2005C13.5508 57.6414 13.8657 58.0508 14.3066 58.1137ZM21.4867 57.9878C21.7071 58.0193 21.9276 57.8618 21.9276 57.6414C21.959 57.4209 21.8016 57.2005 21.5811 57.2005C21.3607 57.169 21.1403 57.3264 21.1403 57.5469C21.1403 57.7673 21.2662 57.9563 21.4867 57.9878Z" fill="url(#paint64_radial)"/>
<path opacity="0.32" d="M87.2106 27.6605C87.2106 27.6605 87.0217 27.0621 86.8957 26.9047C86.7697 26.7472 86.2344 26.4323 86.2344 26.4323C86.2344 26.4323 86.8327 26.2433 86.9902 26.1174C87.1476 25.9914 87.4625 25.4561 87.4625 25.4561C87.4625 25.4561 87.6515 26.0544 87.7775 26.2119C87.9034 26.3693 88.4388 26.6842 88.4388 26.6842C88.4388 26.6842 87.8405 26.8732 87.683 26.9991C87.5255 27.1251 87.2106 27.6605 87.2106 27.6605Z" fill="url(#paint65_radial)"/>
<path opacity="0.32" d="M100.279 64.097C100.279 64.097 100.09 63.4986 99.9641 63.3412C99.8381 63.1837 99.3027 62.8688 99.3027 62.8688C99.3027 62.8688 99.9011 62.6799 100.059 62.5539C100.216 62.4279 100.531 61.8926 100.531 61.8926C100.531 61.8926 100.72 62.4909 100.846 62.6484C100.972 62.8058 101.507 63.1208 101.507 63.1208C101.507 63.1208 100.909 63.3097 100.751 63.4357C100.594 63.5616 100.279 64.097 100.279 64.097Z" fill="url(#paint66_radial)"/>
<path d="M110.924 57.8933C110.924 57.8933 110.61 56.8855 110.421 56.6336C110.2 56.3817 109.318 55.8463 109.318 55.8463C109.318 55.8463 110.326 55.5314 110.578 55.3424C110.83 55.122 111.365 54.2402 111.365 54.2402C111.365 54.2402 111.68 55.248 111.869 55.4999C112.09 55.7518 112.971 56.2872 112.971 56.2872C112.971 56.2872 111.964 56.6021 111.712 56.7911C111.46 57.0115 110.924 57.8933 110.924 57.8933Z" fill="url(#paint67_radial)"/>
<path opacity="0.5" d="M93.2883 18.9688C93.2883 18.9688 93.1308 19.2837 93.0364 19.3467C92.9419 19.4096 92.627 19.5041 92.627 19.5041C92.627 19.5041 92.9419 19.6616 93.0049 19.756C93.0678 19.8505 93.1623 20.1654 93.1623 20.1654C93.1623 20.1654 93.3198 19.8505 93.4142 19.7875C93.5087 19.7246 93.8236 19.6301 93.8236 19.6301C93.8236 19.6301 93.5087 19.4726 93.4457 19.3781C93.4142 19.2837 93.2883 18.9688 93.2883 18.9688Z" fill="url(#paint68_radial)"/>
<path opacity="0.5" d="M102.138 56.7588C102.138 56.7588 101.98 57.0737 101.886 57.1367C101.791 57.1997 101.477 57.2942 101.477 57.2942C101.477 57.2942 101.791 57.4516 101.854 57.5461C101.917 57.6406 102.012 57.9555 102.012 57.9555C102.012 57.9555 102.169 57.6406 102.264 57.5776C102.358 57.5146 102.673 57.4201 102.673 57.4201C102.673 57.4201 102.358 57.2627 102.295 57.1682C102.232 57.1052 102.138 56.7588 102.138 56.7588Z" fill="url(#paint69_radial)"/>
<path d="M106.83 48.0992C106.83 47.9733 106.956 47.9103 107.051 47.9103C107.177 47.9103 107.24 48.0362 107.24 48.1307C107.24 48.2252 107.114 48.3197 107.019 48.3197C106.893 48.3197 106.799 48.2252 106.83 48.0992ZM104.752 51.6578C104.972 51.6893 105.193 51.5318 105.193 51.3114C105.224 51.0909 105.067 50.8705 104.846 50.8705C104.626 50.839 104.405 50.9965 104.405 51.2169C104.374 51.4373 104.531 51.6263 104.752 51.6578ZM104.5 46.6821C104.941 46.7451 105.35 46.3987 105.413 45.9578C105.476 45.5169 105.13 45.1075 104.689 45.0445C104.248 44.9815 103.839 45.328 103.776 45.7688C103.744 46.2097 104.059 46.6191 104.5 46.6821ZM111.712 46.5246C111.932 46.5561 112.152 46.3987 112.152 46.1782C112.184 45.9578 112.026 45.7373 111.806 45.7373C111.586 45.7059 111.365 45.8633 111.365 46.0838C111.302 46.3042 111.46 46.5246 111.712 46.5246Z" fill="url(#paint70_radial)"/>
<path d="M34.1784 76.473C34.2098 76.347 34.3043 76.284 34.4303 76.3155C34.5563 76.347 34.6192 76.4415 34.5878 76.5675C34.5563 76.6934 34.4618 76.7564 34.3358 76.7249C34.2098 76.6934 34.1469 76.599 34.1784 76.473ZM31.785 79.8111C32.0054 79.8741 32.2259 79.7166 32.2889 79.4962C32.3518 79.2758 32.1944 79.0553 31.9739 78.9923C31.7535 78.9293 31.5331 79.0868 31.4701 79.3072C31.4071 79.5592 31.5645 79.7481 31.785 79.8111ZM32.0054 74.8039C32.4463 74.8984 32.8872 74.615 32.9817 74.1741C33.0761 73.7332 32.7927 73.2923 32.3518 73.1979C31.911 73.1034 31.4701 73.3868 31.3756 73.8277C31.2811 74.2686 31.5645 74.7095 32.0054 74.8039ZM39.1855 75.3708C39.406 75.4338 39.6264 75.2763 39.6894 75.0559C39.7524 74.8354 39.5949 74.615 39.3745 74.552C39.154 74.489 38.9336 74.6465 38.8706 74.8669C38.8076 75.1188 38.9651 75.3393 39.1855 75.3708Z" fill="url(#paint71_radial)"/>
<path d="M17.236 137.032C17.236 137.032 17.0471 136.433 16.9211 136.276C16.7951 136.118 16.2598 135.803 16.2598 135.803C16.2598 135.803 16.8581 135.614 17.0156 135.488C17.173 135.363 17.4879 134.827 17.4879 134.827C17.4879 134.827 17.6769 135.425 17.8029 135.583C17.9288 135.74 18.4642 136.055 18.4642 136.055C18.4642 136.055 17.8658 136.244 17.7084 136.37C17.5509 136.496 17.236 137.032 17.236 137.032Z" fill="url(#paint72_radial)"/>
<path d="M27.8795 130.828C27.8795 130.828 27.5646 129.82 27.3756 129.568C27.1552 129.316 26.2734 128.781 26.2734 128.781C26.2734 128.781 27.2812 128.466 27.5331 128.277C27.785 128.057 28.3204 127.175 28.3204 127.175C28.3204 127.175 28.6353 128.183 28.8243 128.434C29.0447 128.686 29.9265 129.222 29.9265 129.222C29.9265 129.222 28.9187 129.537 28.6668 129.726C28.3834 129.915 27.8795 130.828 27.8795 130.828Z" fill="url(#paint73_radial)"/>
<path opacity="0.5" d="M19.0949 129.662C19.0949 129.662 18.9375 129.977 18.843 130.04C18.7485 130.103 18.4336 130.197 18.4336 130.197C18.4336 130.197 18.7485 130.355 18.8115 130.449C18.8745 130.544 18.969 130.859 18.969 130.859C18.969 130.859 19.1264 130.544 19.2209 130.481C19.3154 130.418 19.6303 130.323 19.6303 130.323C19.6303 130.323 19.3154 130.166 19.2524 130.072C19.1894 130.009 19.0949 129.662 19.0949 129.662Z" fill="url(#paint74_radial)"/>
<path d="M35.0612 137.472C35.0927 137.346 35.1871 137.283 35.3131 137.315C35.4391 137.346 35.5021 137.441 35.4706 137.566C35.4391 137.692 35.3446 137.755 35.2186 137.724C35.0927 137.692 35.0297 137.567 35.0612 137.472ZM32.6363 140.81C32.8567 140.873 33.0772 140.716 33.1402 140.495C33.2032 140.275 33.0457 140.054 32.8253 139.991C32.6048 139.928 32.3844 140.086 32.3214 140.306C32.2899 140.527 32.4159 140.747 32.6363 140.81ZM32.8882 135.803C33.3291 135.897 33.77 135.614 33.8645 135.173C33.959 134.732 33.6755 134.291 33.2346 134.197C32.7938 134.102 32.3529 134.386 32.2584 134.827C32.1639 135.268 32.4474 135.708 32.8882 135.803ZM40.0369 136.37C40.2573 136.433 40.4777 136.275 40.5407 136.055C40.6037 135.834 40.4463 135.614 40.2258 135.551C40.0054 135.488 39.7849 135.646 39.7219 135.866C39.6904 136.086 39.8164 136.307 40.0369 136.37Z" fill="url(#paint75_radial)"/>
<path opacity="0.32" d="M134.511 73.3242C134.511 73.3242 134.574 73.9541 134.668 74.1115C134.763 74.3005 135.235 74.7099 135.235 74.7099C135.235 74.7099 134.605 74.7728 134.448 74.8673C134.259 74.9618 133.849 75.4342 133.849 75.4342C133.849 75.4342 133.786 74.8043 133.692 74.6469C133.597 74.4579 133.125 74.0485 133.125 74.0485C133.125 74.0485 133.755 73.9855 133.912 73.8911C134.101 73.7966 134.511 73.3242 134.511 73.3242Z" fill="url(#paint76_radial)"/>
<path d="M140.619 62.2383C140.619 62.2383 140.745 63.2775 140.903 63.5609C141.06 63.8759 141.847 64.5372 141.847 64.5372C141.847 64.5372 140.808 64.6631 140.525 64.8206C140.21 64.9781 139.548 65.7654 139.548 65.7654C139.548 65.7654 139.423 64.7261 139.265 64.4427C139.108 64.1278 138.32 63.4665 138.32 63.4665C138.32 63.4665 139.36 63.3405 139.643 63.183C139.926 63.0256 140.619 62.2383 140.619 62.2383Z" fill="url(#paint77_radial)"/>
<path d="M126.797 95.085C126.797 95.085 126.923 96.1242 127.08 96.4076C127.238 96.7225 128.025 97.3839 128.025 97.3839C128.025 97.3839 126.986 97.5098 126.702 97.6673C126.388 97.8247 125.726 98.612 125.726 98.612C125.726 98.612 125.6 97.5728 125.443 97.2894C125.285 96.9745 124.498 96.3131 124.498 96.3131C124.498 96.3131 125.537 96.1872 125.821 96.0297C126.136 95.9037 126.797 95.085 126.797 95.085Z" fill="url(#paint78_radial)"/>
<path opacity="0.5" d="M130.7 80.661C131.048 80.661 131.33 80.379 131.33 80.0312C131.33 79.6834 131.048 79.4014 130.7 79.4014C130.352 79.4014 130.07 79.6834 130.07 80.0312C130.07 80.379 130.352 80.661 130.7 80.661Z" fill="url(#paint79_radial)"/>
<path opacity="0.5" d="M122.103 56.8537C122.103 56.8537 122.323 56.6017 122.418 56.5388C122.512 56.4758 122.859 56.4443 122.859 56.4443C122.859 56.4443 122.607 56.2238 122.544 56.1294C122.481 56.0349 122.449 55.6885 122.449 55.6885C122.449 55.6885 122.229 55.9404 122.134 56.0034C122.04 56.0664 121.693 56.0979 121.693 56.0979C121.693 56.0979 121.945 56.3183 122.008 56.4128C122.071 56.5073 122.103 56.8537 122.103 56.8537Z" fill="url(#paint80_radial)"/>
<path opacity="0.5" d="M133.03 67.1515C133.03 67.1515 133.251 66.8996 133.345 66.8366C133.44 66.7736 133.786 66.7421 133.786 66.7421C133.786 66.7421 133.534 66.5217 133.471 66.4272C133.408 66.3327 133.377 65.9863 133.377 65.9863C133.377 65.9863 133.156 66.2383 133.062 66.3012C132.967 66.3642 132.621 66.3957 132.621 66.3957C132.621 66.3957 132.873 66.6162 132.936 66.7106C132.999 66.8051 133.03 67.1515 133.03 67.1515Z" fill="url(#paint81_radial)"/>
<path d="M138.352 53.516C138.384 53.39 138.478 53.327 138.604 53.3585C138.73 53.39 138.793 53.4845 138.762 53.6104C138.73 53.7364 138.636 53.7994 138.51 53.7679C138.384 53.7364 138.321 53.6104 138.352 53.516ZM135.959 56.8541C136.179 56.9171 136.4 56.7596 136.463 56.5392C136.526 56.3187 136.368 56.0983 136.148 56.0353C135.927 55.9723 135.707 56.1298 135.644 56.3502C135.581 56.5707 135.738 56.7911 135.959 56.8541ZM136.179 51.8469C136.62 51.9414 137.061 51.658 137.155 51.2171C137.25 50.7762 136.967 50.3353 136.526 50.2408C136.085 50.1464 135.644 50.4298 135.549 50.8707C135.455 51.3115 135.738 51.7524 136.179 51.8469ZM143.359 52.4138C143.58 52.4767 143.8 52.3193 143.863 52.0988C143.926 51.8784 143.769 51.658 143.548 51.595C143.328 51.532 143.107 51.6894 143.044 51.9099C142.981 52.1618 143.139 52.3508 143.359 52.4138Z" fill="url(#paint82_radial)"/>
<path opacity="0.25" d="M89.0346 -3.67383C89.0346 -3.67383 89.0346 7.14593 77.7851 8.52026C66.5357 9.8946 57.8056 3.47271 48.1775 11.044C38.5244 18.6404 49.1004 52.6739 38.7738 57.7214C28.4473 62.769 4.10266 56.1222 2.95527 44.153C1.80788 32.2088 -11.7363 66.4672 -11.7363 66.4672C-11.7363 66.4672 20.8646 84.4085 41.7421 71.065C62.6196 57.7214 52.2931 39.5552 55.7353 30.3597C59.1775 21.1641 68.1321 16.5664 84.894 18.1656C101.656 19.7648 110.137 -0.45039 110.137 -0.45039L89.0346 -3.67383ZM12.1593 69.5657C-7.07193 62.719 8.89178 59.6205 8.89178 59.6205C8.89178 59.6205 18.8192 64.2932 26.9008 64.1183C34.9575 63.9684 45.0596 56.1972 46.1321 60.2202C47.2047 64.2433 31.4156 76.3874 12.1593 69.5657ZM75.9393 13.4429C71.275 17.0161 60.4246 15.6418 56.0097 20.4395C55.436 21.0642 55.0119 21.7888 54.6128 22.5385C53.0414 25.562 52.3181 28.9354 51.1457 32.1338C50.6469 33.4832 49.4745 37.0314 47.7285 34.8825C47.1298 34.1578 46.7308 33.1833 46.4564 32.0589C45.733 29.1353 45.9076 25.2871 46.182 23.0632C46.6809 19.0901 48.2024 14.7922 51.5947 12.3684C58.7285 7.22089 80.6037 9.86961 75.9393 13.4429ZM82.1752 15.5668C79.4813 15.5668 77.3112 14.9172 77.3112 14.1175C77.3112 13.3179 79.4813 12.6683 82.1752 12.6683C84.869 12.6683 87.0391 13.3179 87.0391 14.1175C87.0391 14.9172 84.869 15.5668 82.1752 15.5668Z" fill="url(#paint83_radial)"/>
<path opacity="0.25" d="M117.786 98.321C123.796 90.8014 135.194 86.0456 141.405 83.9043L141.38 80.0947C141.38 80.0947 113.92 89.158 107.261 106.488C100.601 123.818 98.3817 128.449 85.6618 132.682C72.9419 136.915 62.4418 127.652 54.5605 114.331C46.6792 101.035 16.2014 95.7812 5.30224 106.065C-5.59693 116.348 2.48392 126.432 2.48392 126.432C2.48392 126.432 22.686 112.314 36.4035 116.746C50.121 121.178 49.5225 137.313 69.5251 140.525C70.0738 140.625 70.5975 140.699 71.1462 140.774C68.4775 139.554 66.9312 137.836 66.8564 136.467C66.6818 133.205 70.8469 135.197 70.8469 135.197C70.8469 135.197 84.9884 139.181 93.3436 132.657C101.674 126.133 106.936 114.904 109.48 119.261C112.024 123.594 99.8781 136.267 87.7319 140.625C87.4825 140.724 87.2331 140.799 86.9837 140.874C99.2795 139.156 109.43 132.831 115.591 121.353C124.47 104.82 141.629 105.019 141.629 105.019L141.554 95.4078C128.909 98.0471 109.83 108.281 117.786 98.321ZM30.3678 110.447C19.4936 110.995 0.987466 118.041 11.8617 105.019C11.8617 105.019 34.7076 97.9475 46.3051 110.447C57.9026 122.946 41.267 109.899 30.3678 110.447ZM53.5379 127.627C52.6151 128.25 50.4951 126.756 48.7992 124.266C47.1032 121.776 46.4797 119.261 47.4025 118.639C48.3253 118.016 50.4453 119.51 52.1412 122C53.8372 124.49 54.4608 127.005 53.5379 127.627ZM126.315 106.463C119.058 111.343 113.271 111.891 117.237 107.185C121.228 102.479 126.665 102.479 126.665 102.479C126.665 102.479 133.548 101.583 126.315 106.463Z" fill="url(#paint84_radial)"/>
<path opacity="0.25" d="M107.036 54.1874C92.2603 53.7871 144.112 4.53308 144.112 4.53308L140.787 3.23231C131.787 12.4127 111.636 32.3245 109.386 28.6973C107.161 25.0952 125.362 8.18524 133.962 0.505705L132.962 0.105469C132.962 0.105469 86.01 36.1517 96.1354 57.4143C106.261 78.6768 158.263 44.2565 158.263 44.2565L159.263 16.7153C159.263 16.6903 121.812 54.6126 107.036 54.1874ZM115.186 28.6973C120.511 25.7956 108.236 43.406 104.836 40.8295C101.436 38.253 115.186 28.6973 115.186 28.6973ZM107.986 61.2165C107.711 62.1921 106.036 62.5923 104.236 62.092C102.436 61.5917 101.186 60.416 101.436 59.4405C101.711 58.4649 103.386 58.0647 105.186 58.565C106.986 59.0653 108.236 60.2409 107.986 61.2165ZM121.011 59.4155C102.761 63.4678 104.861 56.0135 118.261 53.4369C131.662 50.8604 143.137 35.9766 143.137 35.9766L146.538 45.1821C146.538 45.1821 139.262 55.3631 121.011 59.4155Z" fill="url(#paint85_radial)"/>
</g>
<path fill-rule="evenodd" clip-rule="evenodd" d="M13.2834 74.4951C13.2834 108.181 40.5889 135.485 74.2637 135.488C107.938 135.49 135.244 108.191 135.244 74.5052C135.244 40.8192 107.938 13.5155 74.2637 13.5127C40.5889 13.5099 13.2834 40.809 13.2834 74.4951ZM74.2637 146.5C34.4955 146.497 2.26367 114.255 2.26367 74.4941C2.26367 34.7333 34.4955 2.49683 74.2637 2.50015C114.032 2.50346 146.264 34.7453 146.264 74.5062C146.264 114.267 114.032 146.503 74.2637 146.5Z" fill="black"/>
<defs>
<radialGradient id="paint0_radial" cx="0" cy="0" r="1" gradientUnits="userSpaceOnUse" gradientTransform="translate(79.0805 74.3831) scale(98.1628)">
<stop offset="0.0592593" stop-color="#560000"/>
<stop offset="0.963" stop-color="#0E0000"/>
</radialGradient>
<radialGradient id="paint1_radial" cx="0" cy="0" r="1" gradientUnits="userSpaceOnUse" gradientTransform="translate(79.0786 74.3831) scale(98.1628)">
<stop offset="0.0592593" stop-color="#200000"/>
<stop offset="0.963"/>
</radialGradient>
<radialGradient id="paint2_radial" cx="0" cy="0" r="1" gradientUnits="userSpaceOnUse" gradientTransform="translate(140.46 135.832) scale(1.10719)">
<stop offset="0.0592593" stop-color="#E47E99"/>
<stop offset="0.5259" stop-color="#E43D99"/>
<stop offset="0.9926" stop-color="#B30058"/>
</radialGradient>
<radialGradient id="paint3_radial" cx="0" cy="0" r="1" gradientUnits="userSpaceOnUse" gradientTransform="translate(106.986 113.841) scale(1.10719)">
<stop offset="0.0592593" stop-color="#E47E99"/>
<stop offset="0.5259" stop-color="#E43D99"/>
<stop offset="0.9926" stop-color="#B30058"/>
</radialGradient>
<radialGradient id="paint4_radial" cx="0" cy="0" r="1" gradientUnits="userSpaceOnUse" gradientTransform="translate(104.397 125.493) scale(1.84567)">
<stop offset="0.0592593" stop-color="#E47E99"/>
<stop offset="0.5259" stop-color="#E43D99"/>
<stop offset="0.9926" stop-color="#B30058"/>
</radialGradient>
<radialGradient id="paint5_radial" cx="0" cy="0" r="1" gradientUnits="userSpaceOnUse" gradientTransform="translate(103.044 103.585) scale(1.84566)">
<stop offset="0.0592593" stop-color="#E47E99"/>
<stop offset="0.5259" stop-color="#E43D99"/>
<stop offset="0.9926" stop-color="#B30058"/>
</radialGradient>
<radialGradient id="paint6_radial" cx="0" cy="0" r="1" gradientUnits="userSpaceOnUse" gradientTransform="translate(125.624 96.5383) rotate(180) scale(48.296)">
<stop offset="0.0592593" stop-color="#0A1656"/>
<stop offset="0.8889" stop-color="#4478AD"/>
</radialGradient>
<radialGradient id="paint7_radial" cx="0" cy="0" r="1" gradientUnits="userSpaceOnUse" gradientTransform="translate(125.624 96.5386) rotate(180) scale(48.2953)">
<stop offset="0.0592593" stop-color="#0A1656"/>
<stop offset="0.8889" stop-color="#4478AD"/>
</radialGradient>
<radialGradient id="paint8_radial" cx="0" cy="0" r="1" gradientUnits="userSpaceOnUse" gradientTransform="translate(125.623 96.5377) rotate(180) scale(48.296)">
<stop offset="0.0592593" stop-color="#0A1656"/>
<stop offset="0.8889" stop-color="#4478AD"/>
</radialGradient>
<radialGradient id="paint9_radial" cx="0" cy="0" r="1" gradientUnits="userSpaceOnUse" gradientTransform="translate(125.622 96.5379) rotate(180) scale(48.296)">
<stop offset="0.0592593" stop-color="#0A1656"/>
<stop offset="0.8889" stop-color="#4478AD"/>
</radialGradient>
<radialGradient id="paint10_radial" cx="0" cy="0" r="1" gradientUnits="userSpaceOnUse" gradientTransform="translate(108.413 134.739) rotate(180) scale(3.88702)">
<stop offset="0.0592593" stop-color="#0A1656"/>
<stop offset="0.8889" stop-color="#4478AD"/>
</radialGradient>
<radialGradient id="paint11_radial" cx="0" cy="0" r="1" gradientUnits="userSpaceOnUse" gradientTransform="translate(142.125 35.956) scale(1.10719)">
<stop offset="0.0592593" stop-color="#E47E99"/>
<stop offset="0.5259" stop-color="#E43D99"/>
<stop offset="0.9926" stop-color="#B30058"/>
</radialGradient>
<radialGradient id="paint12_radial" cx="0" cy="0" r="1" gradientUnits="userSpaceOnUse" gradientTransform="translate(108.651 13.9661) scale(1.10719)">
<stop offset="0.0592593" stop-color="#E47E99"/>
<stop offset="0.5259" stop-color="#E43D99"/>
<stop offset="0.9926" stop-color="#B30058"/>
</radialGradient>
<radialGradient id="paint13_radial" cx="0" cy="0" r="1" gradientUnits="userSpaceOnUse" gradientTransform="translate(106.062 25.6178) scale(1.84566)">
<stop offset="0.0592593" stop-color="#E47E99"/>
<stop offset="0.5259" stop-color="#E43D99"/>
<stop offset="0.9926" stop-color="#B30058"/>
</radialGradient>
<radialGradient id="paint14_radial" cx="0" cy="0" r="1" gradientUnits="userSpaceOnUse" gradientTransform="translate(127.286 -3.33668) rotate(180) scale(48.2947)">
<stop offset="0.0592593" stop-color="#0A1656"/>
<stop offset="0.8889" stop-color="#4478AD"/>
</radialGradient>
<radialGradient id="paint15_radial" cx="0" cy="0" r="1" gradientUnits="userSpaceOnUse" gradientTransform="translate(127.287 -3.33672) rotate(180) scale(48.2951)">
<stop offset="0.0592593" stop-color="#0A1656"/>
<stop offset="0.8889" stop-color="#4478AD"/>
</radialGradient>
<radialGradient id="paint16_radial" cx="0" cy="0" r="1" gradientUnits="userSpaceOnUse" gradientTransform="translate(127.287 -3.33687) rotate(180) scale(48.2953)">
<stop offset="0.0592593" stop-color="#0A1656"/>
<stop offset="0.8889" stop-color="#4478AD"/>
</radialGradient>
<radialGradient id="paint17_radial" cx="0" cy="0" r="1" gradientUnits="userSpaceOnUse" gradientTransform="translate(127.286 -3.33694) rotate(180) scale(48.2952)">
<stop offset="0.0592593" stop-color="#0A1656"/>
<stop offset="0.8889" stop-color="#4478AD"/>
</radialGradient>
<radialGradient id="paint18_radial" cx="0" cy="0" r="1" gradientUnits="userSpaceOnUse" gradientTransform="translate(110.078 34.8633) rotate(180) scale(3.88702)">
<stop offset="0.0592593" stop-color="#0A1656"/>
<stop offset="0.8889" stop-color="#4478AD"/>
</radialGradient>
<radialGradient id="paint19_radial" cx="0" cy="0" r="1" gradientUnits="userSpaceOnUse" gradientTransform="translate(22.158 31.0306) scale(1.05878)">
<stop offset="0.0592593" stop-color="#E47E99"/>
<stop offset="0.5259" stop-color="#E43D99"/>
<stop offset="0.9926" stop-color="#B30058"/>
</radialGradient>
<radialGradient id="paint20_radial" cx="0" cy="0" r="1" gradientUnits="userSpaceOnUse" gradientTransform="translate(32.6933 7.0957) scale(1.05878)">
<stop offset="0.0592593" stop-color="#E47E99"/>
<stop offset="0.5259" stop-color="#E43D99"/>
<stop offset="0.9926" stop-color="#B30058"/>
</radialGradient>
<radialGradient id="paint21_radial" cx="0" cy="0" r="1" gradientUnits="userSpaceOnUse" gradientTransform="translate(58.2746 37.9118) scale(1.05882)">
<stop offset="0.0592593" stop-color="#E47E99"/>
<stop offset="0.5259" stop-color="#E43D99"/>
<stop offset="0.9926" stop-color="#B30058"/>
</radialGradient>
<radialGradient id="paint22_radial" cx="0" cy="0" r="1" gradientUnits="userSpaceOnUse" gradientTransform="translate(64.1565 27.5268) scale(1.76502)">
<stop offset="0.0592593" stop-color="#E47E99"/>
<stop offset="0.5259" stop-color="#E43D99"/>
<stop offset="0.9926" stop-color="#B30058"/>
</radialGradient>
<radialGradient id="paint23_radial" cx="0" cy="0" r="1" gradientUnits="userSpaceOnUse" gradientTransform="translate(59.0454 48.8734) scale(1.76501)">
<stop offset="0.0592593" stop-color="#E47E99"/>
<stop offset="0.5259" stop-color="#E43D99"/>
<stop offset="0.9926" stop-color="#B30058"/>
</radialGradient>
<radialGradient id="paint24_radial" cx="0" cy="0" r="1" gradientUnits="userSpaceOnUse" gradientTransform="translate(20.9022 11.9849) scale(1.76502)">
<stop offset="0.0592593" stop-color="#E47E99"/>
<stop offset="0.5259" stop-color="#E43D99"/>
<stop offset="0.9926" stop-color="#B30058"/>
</radialGradient>
<radialGradient id="paint25_radial" cx="0" cy="0" r="1" gradientUnits="userSpaceOnUse" gradientTransform="translate(35.3933 49.0105) rotate(17.0016) scale(48.2955)">
<stop offset="0.0592593" stop-color="#0A1656"/>
<stop offset="0.8889" stop-color="#4478AD"/>
</radialGradient>
<radialGradient id="paint26_radial" cx="0" cy="0" r="1" gradientUnits="userSpaceOnUse" gradientTransform="translate(35.3931 49.01) rotate(17.0017) scale(48.2947 48.2949)">
<stop offset="0.0592593" stop-color="#0A1656"/>
<stop offset="0.8889" stop-color="#4478AD"/>
</radialGradient>
<radialGradient id="paint27_radial" cx="0" cy="0" r="1" gradientUnits="userSpaceOnUse" gradientTransform="translate(35.3921 49.0107) rotate(17.0016) scale(48.2957 48.2956)">
<stop offset="0.0592593" stop-color="#0A1656"/>
<stop offset="0.8889" stop-color="#4478AD"/>
</radialGradient>
<radialGradient id="paint28_radial" cx="0" cy="0" r="1" gradientUnits="userSpaceOnUse" gradientTransform="translate(35.3927 49.01) rotate(17.0016) scale(48.296)">
<stop offset="0.0592593" stop-color="#0A1656"/>
<stop offset="0.8889" stop-color="#4478AD"/>
</radialGradient>
<radialGradient id="paint29_radial" cx="0" cy="0" r="1" gradientUnits="userSpaceOnUse" gradientTransform="translate(35.3924 49.0097) rotate(17.0016) scale(48.2949 48.2948)">
<stop offset="0.0592593" stop-color="#0A1656"/>
<stop offset="0.8889" stop-color="#4478AD"/>
</radialGradient>
<radialGradient id="paint30_radial" cx="0" cy="0" r="1" gradientUnits="userSpaceOnUse" gradientTransform="translate(35.393 49.0104) rotate(17.0016) scale(48.2956 48.2954)">
<stop offset="0.0592593" stop-color="#0A1656"/>
<stop offset="0.8889" stop-color="#4478AD"/>
</radialGradient>
<radialGradient id="paint31_radial" cx="0" cy="0" r="1" gradientUnits="userSpaceOnUse" gradientTransform="translate(22.3905 20.7437) rotate(180) scale(3.82124)">
<stop offset="0.0592593" stop-color="#0A1656"/>
<stop offset="0.8889" stop-color="#4478AD"/>
</radialGradient>
<radialGradient id="paint32_radial" cx="0" cy="0" r="1" gradientUnits="userSpaceOnUse" gradientTransform="translate(73.2677 9.03523) scale(1.00616)">
<stop offset="0.0592593" stop-color="#E47E99"/>
<stop offset="0.5259" stop-color="#E43D99"/>
<stop offset="0.9926" stop-color="#B30058"/>
</radialGradient>
<radialGradient id="paint33_radial" cx="0" cy="0" r="1" gradientUnits="userSpaceOnUse" gradientTransform="translate(92.3103 10.332) scale(1.67725)">
<stop offset="0.0592593" stop-color="#E47E99"/>
<stop offset="0.5259" stop-color="#E43D99"/>
<stop offset="0.9926" stop-color="#B30058"/>
</radialGradient>
<radialGradient id="paint34_radial" cx="0" cy="0" r="1" gradientUnits="userSpaceOnUse" gradientTransform="translate(53.6839 19.7514) rotate(114.671) scale(48.2955 48.2957)">
<stop offset="0.0592593" stop-color="#0A1656"/>
<stop offset="0.8889" stop-color="#4478AD"/>
</radialGradient>
<radialGradient id="paint35_radial" cx="0" cy="0" r="1" gradientUnits="userSpaceOnUse" gradientTransform="translate(83.4312 10.6381) rotate(-82.3342) scale(3.82125)">
<stop offset="0.0592593" stop-color="#0A1656"/>
<stop offset="0.8889" stop-color="#4478AD"/>
</radialGradient>
<radialGradient id="paint36_radial" cx="0" cy="0" r="1" gradientUnits="userSpaceOnUse" gradientTransform="translate(32.5433 -21.6909) rotate(-160.177) scale(60.9284)">
<stop offset="0.0592593" stop-color="#0A1656"/>
<stop offset="0.8889" stop-color="#4478AD"/>
</radialGradient>
<radialGradient id="paint37_radial" cx="0" cy="0" r="1" gradientUnits="userSpaceOnUse" gradientTransform="translate(47.1736 14.7337) rotate(2.82006) scale(4.82087)">
<stop offset="0.0592593" stop-color="#0A1656"/>
<stop offset="0.8889" stop-color="#4478AD"/>
</radialGradient>
<radialGradient id="paint38_radial" cx="0" cy="0" r="1" gradientUnits="userSpaceOnUse" gradientTransform="translate(84.8053 5.96056) rotate(144.417) scale(60.9287)">
<stop offset="0.0592593" stop-color="#0A1656"/>
<stop offset="0.8889" stop-color="#4478AD"/>
</radialGradient>
<radialGradient id="paint39_radial" cx="0" cy="0" r="1" gradientUnits="userSpaceOnUse" gradientTransform="translate(123.095 14.5989) rotate(-52.5823) scale(4.82081)">
<stop offset="0.0592593" stop-color="#0A1656"/>
<stop offset="0.8889" stop-color="#4478AD"/>
</radialGradient>
<radialGradient id="paint40_radial" cx="0" cy="0" r="1" gradientUnits="userSpaceOnUse" gradientTransform="translate(63.7784 17.0703) rotate(180) scale(3.75954)">
<stop offset="0.0592593" stop-color="#0A1656"/>
<stop offset="0.8889" stop-color="#4478AD"/>
</radialGradient>
<radialGradient id="paint41_radial" cx="0" cy="0" r="1" gradientUnits="userSpaceOnUse" gradientTransform="translate(18.538 107.959) scale(1.05881)">
<stop offset="0.0592593" stop-color="#E47E99"/>
<stop offset="0.5259" stop-color="#E43D99"/>
<stop offset="0.9926" stop-color="#B30058"/>
</radialGradient>
<radialGradient id="paint42_radial" cx="0" cy="0" r="1" gradientUnits="userSpaceOnUse" gradientTransform="translate(29.0733 84.0237) scale(1.05881)">
<stop offset="0.0592593" stop-color="#E47E99"/>
<stop offset="0.5259" stop-color="#E43D99"/>
<stop offset="0.9926" stop-color="#B30058"/>
</radialGradient>
<radialGradient id="paint43_radial" cx="0" cy="0" r="1" gradientUnits="userSpaceOnUse" gradientTransform="translate(123.31 125.25) scale(1.05882)">
<stop offset="0.0592593" stop-color="#E47E99"/>
<stop offset="0.5259" stop-color="#E43D99"/>
<stop offset="0.9926" stop-color="#B30058"/>
</radialGradient>
<radialGradient id="paint44_radial" cx="0" cy="0" r="1" gradientUnits="userSpaceOnUse" gradientTransform="translate(129.192 114.865) scale(1.76501)">
<stop offset="0.0592593" stop-color="#E47E99"/>
<stop offset="0.5259" stop-color="#E43D99"/>
<stop offset="0.9926" stop-color="#B30058"/>
</radialGradient>
<radialGradient id="paint45_radial" cx="0" cy="0" r="1" gradientUnits="userSpaceOnUse" gradientTransform="translate(55.4254 125.802) scale(1.76501)">
<stop offset="0.0592593" stop-color="#E47E99"/>
<stop offset="0.5259" stop-color="#E43D99"/>
<stop offset="0.9926" stop-color="#B30058"/>
</radialGradient>
<radialGradient id="paint46_radial" cx="0" cy="0" r="1" gradientUnits="userSpaceOnUse" gradientTransform="translate(17.2821 88.9129) scale(1.76502)">
<stop offset="0.0592593" stop-color="#E47E99"/>
<stop offset="0.5259" stop-color="#E43D99"/>
<stop offset="0.9926" stop-color="#B30058"/>
</radialGradient>
<radialGradient id="paint47_radial" cx="0" cy="0" r="1" gradientUnits="userSpaceOnUse" gradientTransform="translate(31.7729 125.938) rotate(17.0016) scale(48.2961)">
<stop offset="0.0592593" stop-color="#0A1656"/>
<stop offset="0.8889" stop-color="#4478AD"/>
</radialGradient>
<radialGradient id="paint48_radial" cx="0" cy="0" r="1" gradientUnits="userSpaceOnUse" gradientTransform="translate(7.13234 108.446) rotate(17.0017) scale(48.2957 48.2959)">
<stop offset="0.0592593" stop-color="#0A1656"/>
<stop offset="0.8889" stop-color="#4478AD"/>
</radialGradient>
<radialGradient id="paint49_radial" cx="0" cy="0" r="1" gradientUnits="userSpaceOnUse" gradientTransform="translate(31.7717 125.938) rotate(17.0016) scale(48.2954)">
<stop offset="0.0592593" stop-color="#0A1656"/>
<stop offset="0.8889" stop-color="#4478AD"/>
</radialGradient>
<radialGradient id="paint50_radial" cx="0" cy="0" r="1" gradientUnits="userSpaceOnUse" gradientTransform="translate(100.429 136.349) rotate(17.0015) scale(48.2959 48.2955)">
<stop offset="0.0592593" stop-color="#0A1656"/>
<stop offset="0.8889" stop-color="#4478AD"/>
</radialGradient>
<radialGradient id="paint51_radial" cx="0" cy="0" r="1" gradientUnits="userSpaceOnUse" gradientTransform="translate(31.7731 125.939) rotate(17.0015) scale(48.2963 48.296)">
<stop offset="0.0592593" stop-color="#0A1656"/>
<stop offset="0.8889" stop-color="#4478AD"/>
</radialGradient>
<radialGradient id="paint52_radial" cx="0" cy="0" r="1" gradientUnits="userSpaceOnUse" gradientTransform="translate(31.7731 125.939) rotate(17.0016) scale(48.2957)">
<stop offset="0.0592593" stop-color="#0A1656"/>
<stop offset="0.8889" stop-color="#4478AD"/>
</radialGradient>
<radialGradient id="paint53_radial" cx="0" cy="0" r="1" gradientUnits="userSpaceOnUse" gradientTransform="translate(44.4941 65.6393) rotate(180) scale(3.82124)">
<stop offset="0.0592593" stop-color="#0A1656"/>
<stop offset="0.8889" stop-color="#4478AD"/>
</radialGradient>
<radialGradient id="paint54_radial" cx="0" cy="0" r="1" gradientUnits="userSpaceOnUse" gradientTransform="translate(78.691 117.071) scale(1.09982)">
<stop offset="0.0592593" stop-color="#E47E99"/>
<stop offset="0.5259" stop-color="#E43D99"/>
<stop offset="0.9926" stop-color="#B30058"/>
</radialGradient>
<radialGradient id="paint55_radial" cx="0" cy="0" r="1" gradientUnits="userSpaceOnUse" gradientTransform="translate(83.3596 135.578) scale(1.83335)">
<stop offset="0.0592593" stop-color="#E47E99"/>
<stop offset="0.5259" stop-color="#E43D99"/>
<stop offset="0.9926" stop-color="#B30058"/>
</radialGradient>
<radialGradient id="paint56_radial" cx="0" cy="0" r="1" gradientUnits="userSpaceOnUse" gradientTransform="translate(62.4314 101.772) rotate(-173.385) scale(48.2953 48.2957)">
<stop offset="0.0592593" stop-color="#0A1656"/>
<stop offset="0.8889" stop-color="#4478AD"/>
</radialGradient>
<radialGradient id="paint57_radial" cx="0" cy="0" r="1" gradientUnits="userSpaceOnUse" gradientTransform="translate(62.4316 101.771) rotate(-173.385) scale(48.2952)">
<stop offset="0.0592593" stop-color="#0A1656"/>
<stop offset="0.8889" stop-color="#4478AD"/>
</radialGradient>
<radialGradient id="paint58_radial" cx="0" cy="0" r="1" gradientUnits="userSpaceOnUse" gradientTransform="translate(80.1889 127.855) rotate(180) scale(3.77724)">
<stop offset="0.0592593" stop-color="#0A1656"/>
<stop offset="0.8889" stop-color="#4478AD"/>
</radialGradient>
<radialGradient id="paint59_radial" cx="0" cy="0" r="1" gradientUnits="userSpaceOnUse" gradientTransform="translate(16.2773 49.004) scale(1.09982)">
<stop offset="0.0592593" stop-color="#E47E99"/>
<stop offset="0.5259" stop-color="#E43D99"/>
<stop offset="0.9926" stop-color="#B30058"/>
</radialGradient>
<radialGradient id="paint60_radial" cx="0" cy="0" r="1" gradientUnits="userSpaceOnUse" gradientTransform="translate(16.5024 74.9358) scale(1.09982)">
<stop offset="0.0592593" stop-color="#E47E99"/>
<stop offset="0.5259" stop-color="#E43D99"/>
<stop offset="0.9926" stop-color="#B30058"/>
</radialGradient>
<radialGradient id="paint61_radial" cx="0" cy="0" r="1" gradientUnits="userSpaceOnUse" gradientTransform="translate(27.2187 68.0006) scale(1.83339)">
<stop offset="0.0592593" stop-color="#E47E99"/>
<stop offset="0.5259" stop-color="#E43D99"/>
<stop offset="0.9926" stop-color="#B30058"/>
</radialGradient>
<radialGradient id="paint62_radial" cx="0" cy="0" r="1" gradientUnits="userSpaceOnUse" gradientTransform="translate(6.29046 34.1947) rotate(-173.385) scale(48.2954)">
<stop offset="0.0592593" stop-color="#0A1656"/>
<stop offset="0.8889" stop-color="#4478AD"/>
</radialGradient>
<radialGradient id="paint63_radial" cx="0" cy="0" r="1" gradientUnits="userSpaceOnUse" gradientTransform="translate(6.29033 34.194) rotate(-173.385) scale(48.2952 48.2954)">
<stop offset="0.0592593" stop-color="#0A1656"/>
<stop offset="0.8889" stop-color="#4478AD"/>
</radialGradient>
<radialGradient id="paint64_radial" cx="0" cy="0" r="1" gradientUnits="userSpaceOnUse" gradientTransform="translate(17.7731 59.7895) rotate(180) scale(3.77724)">
<stop offset="0.0592593" stop-color="#0A1656"/>
<stop offset="0.8889" stop-color="#4478AD"/>
</radialGradient>
<radialGradient id="paint65_radial" cx="0" cy="0" r="1" gradientUnits="userSpaceOnUse" gradientTransform="translate(87.3477 26.5587) scale(1.09982)">
<stop offset="0.0592593" stop-color="#E47E99"/>
<stop offset="0.5259" stop-color="#E43D99"/>
<stop offset="0.9926" stop-color="#B30058"/>
</radialGradient>
<radialGradient id="paint66_radial" cx="0" cy="0" r="1" gradientUnits="userSpaceOnUse" gradientTransform="translate(100.421 63.0072) scale(1.09982)">
<stop offset="0.0592593" stop-color="#E47E99"/>
<stop offset="0.5259" stop-color="#E43D99"/>
<stop offset="0.9926" stop-color="#B30058"/>
</radialGradient>
<radialGradient id="paint67_radial" cx="0" cy="0" r="1" gradientUnits="userSpaceOnUse" gradientTransform="translate(111.139 56.0729) rotate(180) scale(1.83339)">
<stop offset="0.0592593" stop-color="#66B0D8"/>
<stop offset="1" stop-color="#3F1F7D"/>
</radialGradient>
<radialGradient id="paint68_radial" cx="0" cy="0" r="1" gradientUnits="userSpaceOnUse" gradientTransform="translate(71.0881 11.2597) rotate(-173.385) scale(48.2957 48.2955)">
<stop offset="0.0592593" stop-color="#0A1656"/>
<stop offset="0.8889" stop-color="#4478AD"/>
</radialGradient>
<radialGradient id="paint69_radial" cx="0" cy="0" r="1" gradientUnits="userSpaceOnUse" gradientTransform="translate(90.2103 22.2645) rotate(-173.385) scale(48.296 48.2962)">
<stop offset="0.0592593" stop-color="#0A1656"/>
<stop offset="0.8889" stop-color="#4478AD"/>
</radialGradient>
<radialGradient id="paint70_radial" cx="0" cy="0" r="1" gradientUnits="userSpaceOnUse" gradientTransform="translate(107.968 48.3503) rotate(180) scale(3.77724)">
<stop offset="0.0592593" stop-color="#0A1656"/>
<stop offset="0.8889" stop-color="#4478AD"/>
</radialGradient>
<radialGradient id="paint71_radial" cx="0" cy="0" r="1" gradientUnits="userSpaceOnUse" gradientTransform="translate(35.5188 76.5058) rotate(180) scale(3.75954)">
<stop offset="0.0592593" stop-color="#0A1656"/>
<stop offset="0.8889" stop-color="#4478AD"/>
</radialGradient>
<radialGradient id="paint72_radial" cx="0" cy="0" r="1" gradientUnits="userSpaceOnUse" gradientTransform="translate(17.3725 135.921) scale(1.09982)">
<stop offset="0.0592593" stop-color="#E47E99"/>
<stop offset="0.5259" stop-color="#E43D99"/>
<stop offset="0.9926" stop-color="#B30058"/>
</radialGradient>
<radialGradient id="paint73_radial" cx="0" cy="0" r="1" gradientUnits="userSpaceOnUse" gradientTransform="translate(28.0885 128.987) rotate(180) scale(1.83339)">
<stop offset="0.0592593" stop-color="#66B0D8"/>
<stop offset="1" stop-color="#3F1F7D"/>
</radialGradient>
<radialGradient id="paint74_radial" cx="0" cy="0" r="1" gradientUnits="userSpaceOnUse" gradientTransform="translate(7.16256 95.1795) rotate(-173.385) scale(48.295 48.2952)">
<stop offset="0.0592593" stop-color="#0A1656"/>
<stop offset="0.8889" stop-color="#4478AD"/>
</radialGradient>
<radialGradient id="paint75_radial" cx="0" cy="0" r="1" gradientUnits="userSpaceOnUse" gradientTransform="translate(36.3907 137.491) rotate(180) scale(3.75951)">
<stop offset="0.0592593" stop-color="#0A1656"/>
<stop offset="0.8889" stop-color="#4478AD"/>
</radialGradient>
<radialGradient id="paint76_radial" cx="0" cy="0" r="1" gradientUnits="userSpaceOnUse" gradientTransform="translate(134.189 74.3845) scale(1.05882)">
<stop offset="0.0592593" stop-color="#E47E99"/>
<stop offset="0.5259" stop-color="#E43D99"/>
<stop offset="0.9926" stop-color="#B30058"/>
</radialGradient>
<radialGradient id="paint77_radial" cx="0" cy="0" r="1" gradientUnits="userSpaceOnUse" gradientTransform="translate(140.071 63.9986) rotate(180) scale(1.76502)">
<stop offset="0.0592593" stop-color="#66B0D8"/>
<stop offset="1" stop-color="#3F1F7D"/>
</radialGradient>
<radialGradient id="paint78_radial" cx="0" cy="0" r="1" gradientUnits="userSpaceOnUse" gradientTransform="translate(126.266 96.8629) scale(1.76501)">
<stop offset="0.0592593" stop-color="#E47E99"/>
<stop offset="0.5259" stop-color="#E43D99"/>
<stop offset="0.9926" stop-color="#B30058"/>
</radialGradient>
<radialGradient id="paint79_radial" cx="0" cy="0" r="1" gradientUnits="userSpaceOnUse" gradientTransform="translate(111.308 85.482) rotate(17.0016) scale(48.2959)">
<stop offset="0.0592593" stop-color="#0A1656"/>
<stop offset="0.8889" stop-color="#4478AD"/>
</radialGradient>
<radialGradient id="paint80_radial" cx="0" cy="0" r="1" gradientUnits="userSpaceOnUse" gradientTransform="translate(102.611 96.9999) rotate(17.0017) scale(48.2955 48.2957)">
<stop offset="0.0592593" stop-color="#0A1656"/>
<stop offset="0.8889" stop-color="#4478AD"/>
</radialGradient>
<radialGradient id="paint81_radial" cx="0" cy="0" r="1" gradientUnits="userSpaceOnUse" gradientTransform="translate(111.308 85.4821) rotate(17.0018) scale(48.2946 48.2949)">
<stop offset="0.0592593" stop-color="#0A1656"/>
<stop offset="0.8889" stop-color="#4478AD"/>
</radialGradient>
<radialGradient id="paint82_radial" cx="0" cy="0" r="1" gradientUnits="userSpaceOnUse" gradientTransform="translate(139.694 53.543) rotate(180) scale(3.75954)">
<stop offset="0.0592593" stop-color="#0A1656"/>
<stop offset="0.8889" stop-color="#4478AD"/>
</radialGradient>
<radialGradient id="paint83_radial" cx="0" cy="0" r="1" gradientUnits="userSpaceOnUse" gradientTransform="translate(49.2101 36.1616) scale(51.4571 51.5491)">
<stop offset="0.0814815" stop-color="#F128C5"/>
<stop offset="1" stop-color="#C11BB9"/>
</radialGradient>
<radialGradient id="paint84_radial" cx="0" cy="0" r="1" gradientUnits="userSpaceOnUse" gradientTransform="translate(70.5878 110.515) scale(54.6277 54.5364)">
<stop offset="0.0814815" stop-color="#F128C5"/>
<stop offset="1" stop-color="#C11BB9"/>
</radialGradient>
<radialGradient id="paint85_radial" cx="0" cy="0" r="1" gradientUnits="userSpaceOnUse" gradientTransform="translate(126.986 32.216) scale(32.195 32.2127)">
<stop offset="0.0814815" stop-color="#F128C5"/>
<stop offset="1" stop-color="#C11BB9"/>
</radialGradient>
</defs>
</svg>
