<svg width="134" height="134" viewBox="0 0 134 134" fill="none" xmlns="http://www.w3.org/2000/svg">
<path d="M0.771484 67.3105C0.771484 30.5836 30.564 0.810547 67.2715 0.810547C103.979 0.810547 133.771 30.5836 133.771 67.3105C133.771 104.037 103.979 133.811 67.2715 133.811C30.564 133.811 0.771484 104.037 0.771484 67.3105Z" fill="#0B0B0B"/>
<path d="M6.77148 67.3105C6.77148 33.8973 33.876 6.81055 67.2715 6.81055C100.667 6.81055 127.771 33.8973 127.771 67.3105C127.771 100.724 100.667 127.811 67.2715 127.811C33.876 127.811 6.77148 100.724 6.77148 67.3105Z" stroke="#00F0FF" stroke-width="3" stroke-miterlimit="10"/>
<path d="M12.7715 67.3105C12.7715 37.211 37.1879 12.8105 67.2715 12.8105C97.3551 12.8105 121.771 37.211 121.771 67.3105C121.771 97.4101 97.3551 121.811 67.2715 121.811C37.1879 121.811 12.7715 97.4101 12.7715 67.3105Z" stroke="#00F0FF" stroke-width="3" stroke-miterlimit="10"/>
<path d="M18.7715 67.3105C18.7715 40.5247 40.4999 18.8105 67.2715 18.8105C94.0431 18.8105 115.771 40.5247 115.771 67.3105C115.771 94.0964 94.0431 115.811 67.2715 115.811C40.4999 115.811 18.7715 94.0964 18.7715 67.3105Z" stroke="#00F0FF" stroke-width="3" stroke-miterlimit="10"/>
<path d="M24.7715 67.3105C24.7715 43.8384 43.8118 24.8105 67.2715 24.8105C90.7312 24.8105 109.771 43.8384 109.771 67.3105C109.771 90.7827 90.7312 109.811 67.2715 109.811C43.8118 109.811 24.7715 90.7827 24.7715 67.3105Z" stroke="#00F0FF" stroke-width="3" stroke-miterlimit="10"/>
<path d="M30.7715 67.3105C30.7715 47.1522 47.1238 30.8105 67.2715 30.8105C87.4192 30.8105 103.771 47.1522 103.771 67.3105C103.771 87.4689 87.4192 103.811 67.2715 103.811C47.1238 103.811 30.7715 87.4689 30.7715 67.3105Z" stroke="#00F0FF" stroke-width="3" stroke-miterlimit="10"/>
<path d="M36.7715 67.3105C36.7715 50.4659 50.4357 36.8105 67.2715 36.8105C84.1072 36.8105 97.7715 50.4659 97.7715 67.3105C97.7715 84.1552 84.1072 97.8105 67.2715 97.8105C50.4357 97.8105 36.7715 84.1552 36.7715 67.3105Z" stroke="#00F0FF" stroke-width="3" stroke-miterlimit="10"/>
<path d="M42.7715 67.3105C42.7715 53.7796 53.7477 42.8105 67.2715 42.8105C80.7953 42.8105 91.7715 53.7796 91.7715 67.3105C91.7715 80.8415 80.7953 91.8105 67.2715 91.8105C53.7477 91.8105 42.7715 80.8415 42.7715 67.3105Z" stroke="#00F0FF" stroke-width="3" stroke-miterlimit="10"/>
<path d="M48.7715 67.3105C48.7715 57.0933 57.0596 48.8105 67.2715 48.8105C77.4833 48.8105 85.7715 57.0933 85.7715 67.3105C85.7715 77.5278 77.4833 85.8105 67.2715 85.8105C57.0596 85.8105 48.7715 77.5278 48.7715 67.3105Z" stroke="#00F0FF" stroke-width="3" stroke-miterlimit="10"/>
<path d="M54.7715 67.3105C54.7715 60.407 60.3716 54.8105 67.2715 54.8105C74.1714 54.8105 79.7715 60.407 79.7715 67.3105C79.7715 74.2141 74.1714 79.8105 67.2715 79.8105C60.3716 79.8105 54.7715 74.2141 54.7715 67.3105Z" stroke="#00F0FF" stroke-width="3" stroke-miterlimit="10"/>
<path d="M60.7715 67.3105C60.7715 63.7207 63.6835 60.8105 67.2715 60.8105C70.8594 60.8105 73.7715 63.7207 73.7715 67.3105C73.7715 70.9004 70.8594 73.8105 67.2715 73.8105C63.6835 73.8105 60.7715 70.9004 60.7715 67.3105Z" stroke="#00F0FF" stroke-width="3" stroke-miterlimit="10"/>
</svg>
