<svg width="77" height="72" viewBox="0 0 77 72" fill="none" xmlns="http://www.w3.org/2000/svg">
<path d="M62.5389 23.1449L68.5903 29.823L70.7227 40.7015L69.3599 56.3051L68.2016 58.1448L49.3273 66.3895H33.1105L27.1824 63.7322H19.9598L13.0097 57.6679L6.40031 44.9942L10.3929 23.6388L15.9196 19.5209L16.326 17.2994L18.5475 15.2133L25.9175 11.2515L36.7683 7.07812L42.7153 10.2083L52.1055 16.5724L59.5132 17.3025L62.5389 23.1449Z" fill="#99958D"/>
<path fill-rule="evenodd" clip-rule="evenodd" d="M54.7512 16.8331L59.9948 19.4387L51.7306 27.5124L42.5639 22.1932L32.9224 20.8633L23.4312 12.5878L24.285 12.1288L36.9595 7.99219L46.2765 12.6219L52.1053 16.5723L54.7512 16.8331Z" fill="#A8A59F"/>
<path d="M39.3129 35.961L41.2761 38.2551L40.3055 43.0635L31.5481 39.5561L30.754 34.5049L39.3129 35.961Z" fill="#A8A59F"/>
<path fill-rule="evenodd" clip-rule="evenodd" d="M6.46671 44.6403L25.9011 32.54L30.8739 34.5505L31.5658 39.5665L22.2657 47.794L12.9754 57.6031L6.40035 44.9952L6.46671 44.6403Z" fill="#605D59"/>
<path fill-rule="evenodd" clip-rule="evenodd" d="M19.8795 63.6631L29.5992 55.0049L27.3014 63.7865L27.1825 63.7332H19.9598L19.8795 63.6631Z" fill="#605D59"/>
<path fill-rule="evenodd" clip-rule="evenodd" d="M25.674 11.3818L19.4532 24.122L10.467 23.5831L15.9197 19.5203L16.326 17.2988L18.5476 15.2127L25.674 11.3818Z" fill="#615E5A"/>
<path fill-rule="evenodd" clip-rule="evenodd" d="M21.1157 63.7332V49.3379H39.2936V66.3906H33.1105L27.1825 63.7332H21.1157Z" fill="#514E48"/>
<path d="M36.0973 54.2138L39.2936 42.5681L31.4769 39.5303L22.2046 47.695L29.7048 55.0369L36.0973 54.2138Z" fill="#706C64"/>
<path fill-rule="evenodd" clip-rule="evenodd" d="M33.063 66.3683L35.9691 54.1778L39.2572 42.6748L44.0011 51.4036L49.3405 66.3838L49.3273 66.3895H33.1104L33.063 66.3683Z" fill="#605D59"/>
<path fill-rule="evenodd" clip-rule="evenodd" d="M12.9849 57.6214L22.2944 47.7646L29.7159 54.9552L20.0702 63.7332H19.9598L13.0097 57.6689L12.9849 57.6214Z" fill="#7C7973"/>
<path d="M54.9295 45.4148L55.5455 32.1289L40.7638 37.6723L39.0921 42.5116L43.7553 51.3101L54.9295 45.4148Z" fill="#7C7973"/>
<path fill-rule="evenodd" clip-rule="evenodd" d="M49.3744 66.3688L43.7963 51.2424L54.7857 43.9986L64.5031 40.8892L70.6906 40.5371L70.7228 40.7013L69.36 56.3049L68.2016 58.1446L49.3744 66.3688Z" fill="#706C64"/>
<path fill-rule="evenodd" clip-rule="evenodd" d="M10.6992 23.4102L19.4038 23.8809L26.0734 32.5832L10.6379 45.16H6.48707L6.40035 44.9937L10.3929 23.6383L10.6992 23.4102Z" fill="#706C64"/>
<path fill-rule="evenodd" clip-rule="evenodd" d="M37.1256 0.994141L23.5982 6.19695L15.2788 10.6691L11.1953 14.5037L10.853 16.3746L5.33632 20.485L0.592316 45.8595L8.57247 61.1617L17.8789 69.2819H25.9954L31.9234 71.9393H50.4866L71.9882 62.5469L74.772 58.1256L76.3199 40.4031L73.7396 27.2401L67.1356 19.9522L63.056 12.0746L54.0525 11.1872L45.5735 5.44067L37.1256 0.994141ZM36.411 13.1617L39.8572 14.9756L50.1585 21.9572L55.9704 22.53L57.9421 26.3372L63.4409 32.4055L65.1256 40.9995L63.9967 53.925L48.168 60.8393H34.2975L28.3695 58.1819H22.0407L17.4469 54.1736L12.2083 44.1284L15.4495 26.7922L20.9862 22.6668L21.4567 20.0946L21.8162 19.757L28.2368 16.3056L36.411 13.1617Z" fill="black"/>
</svg>
