<svg width="78" height="78" viewBox="0 0 78 78" fill="none" xmlns="http://www.w3.org/2000/svg">
<path d="M64.0586 39.5807C64.0586 25.2213 52.418 13.5784 38.0586 13.5755C23.6992 13.5726 12.0586 25.2109 12.0586 39.5703C12.0586 53.9297 23.6992 65.5726 38.0586 65.5755C52.418 65.5784 64.0586 53.9401 64.0586 39.5807Z" fill="url(#paint0_linear_2067_535)"/>
<path d="M64.0586 39.5807C64.0586 25.2213 52.418 13.5784 38.0586 13.5755C23.6992 13.5726 12.0586 25.2109 12.0586 39.5703C12.0586 53.9297 23.6992 65.5726 38.0586 65.5755C52.418 65.5784 64.0586 53.9401 64.0586 39.5807Z" fill="#D5D5D5"/>
<path d="M12.0582 39.5629C12.0582 25.2131 23.691 13.5779 38.0408 13.5751C52.3906 13.5722 64.0234 25.2027 64.0234 39.5525C64.0234 53.9023 52.3906 65.5375 38.0408 65.5403C23.691 65.5432 12.0582 53.9127 12.0582 39.5629Z" fill="#FF1723"/>
<path d="M38.0406 56.4777C47.3742 56.4777 54.9406 48.9113 54.9406 39.5777C54.9406 30.2441 47.3742 22.6777 38.0406 22.6777C28.707 22.6777 21.1406 30.2441 21.1406 39.5777C21.1406 48.9113 28.707 56.4777 38.0406 56.4777Z" fill="white"/>
<path d="M46.4406 39.5777C46.4406 44.2777 42.6406 47.9777 38.0406 47.9777C33.4406 47.9777 29.6406 44.1777 29.6406 39.5777C29.6406 34.9777 33.4406 31.1777 38.0406 31.1777C42.6406 31.1777 46.4406 34.8777 46.4406 39.5777Z" fill="#FF1723"/>
<path fill-rule="evenodd" clip-rule="evenodd" d="M13.1609 39.5725C13.1609 53.3405 24.3167 64.4881 38.0586 64.4908C51.8005 64.4936 62.9563 53.3504 62.9563 39.5825C62.9563 25.8145 51.8005 14.6669 38.0586 14.6642C24.3166 14.6614 13.1609 25.8046 13.1609 39.5725ZM38.0586 75.5775C18.1676 75.5735 2.05859 59.4439 2.05859 39.5703C2.05859 19.6968 18.1676 3.57353 38.0586 3.57751C57.9495 3.58148 74.0586 19.7111 74.0586 39.5847C74.0586 59.4583 57.9495 75.5815 38.0586 75.5775Z" fill="black"/>
<defs>
<linearGradient id="paint0_linear_2067_535" x1="12.0586" y1="39.5703" x2="59.0586" y2="55.5703" gradientUnits="userSpaceOnUse">
<stop stop-color="#B00000"/>
<stop offset="0.234375" stop-color="#D8B500"/>
<stop offset="0.520833" stop-color="#00A807"/>
<stop offset="0.776042" stop-color="#750093"/>
<stop offset="1" stop-color="#C40098"/>
</linearGradient>
</defs>
</svg>
