<svg width="134" height="134" viewBox="0 0 134 134" fill="none" xmlns="http://www.w3.org/2000/svg">
<path d="M0.105466 67.0486C0.105464 103.776 29.8785 133.548 66.6055 133.546C103.332 133.545 133.105 103.771 133.105 67.0439C133.105 30.317 103.332 0.544984 66.6055 0.546265C29.8785 0.547546 0.105467 30.3216 0.105466 67.0486Z" fill="#617700"/>
<path d="M61.5763 19.315L65.4728 10.999L75.2139 16.8692L84.468 11.9774L83.981 20.7826L93.7221 17.3583L94.2092 28.1202L107.847 25.6743L107.36 35.4579L117.588 40.3497L113.204 53.0683L124.894 56.0034C123.108 60.4059 119.341 69.309 118.562 69.7003C117.783 70.0917 125.214 77.3222 127 79.1158L116.127 84.3756V95.1376L106.873 98.0726L106.386 108.835H96.6445L90.7998 119.107L83.4939 113.237L76.1881 123.999L64.4987 117.151L53.7834 123.021L50.8611 113.237L36.7364 115.683L39.6587 104.921L24.0729 106.878L29.9176 93.1808L14.3317 90.2458L20.1764 80.9514L10.4353 75.0813L16.767 67.2544L8 63.8302L14.8188 55.5142L10.4353 49.644L19.6894 44.2631L17.2541 34.9687L29.4305 33.9904V22.7393L41.1199 28.1202L39.6587 17.3583L53.7834 19.8042L53.2964 10.999L61.5763 19.315Z" fill="#92B302"/>
<path d="M94.829 44.3781L101.706 43.4015L102.09 52.0381L109.054 55.8929L103.299 59.2419L109.543 64.0164L102.963 68.7982L110.223 76.4581L103.851 80.2137L105.057 88.7536L95.2005 91.2498L98.2521 99.9063C94.7277 100.599 87.5356 101.903 86.9621 101.569C86.3886 101.236 85.4815 104.916 85.0997 106.798L76.6893 106.118L69.9048 110.59L64.1738 105.922L57.185 110.084L53.1001 103.887L44.173 104.437L44.8099 97.3499L34.9617 97.1738L34.3772 86.8912L26.1832 82.5133L31.1254 76.5887L23.6603 68.6188L31.6703 66.0061L23.9009 56.9034L34.9867 54.9303L30.3011 43.7948L38.6114 43.6511L38.2271 35.0145L45.8165 35.7905L44.2988 28.79L52.4008 29.6726L54.2632 24.4445L61.5361 28.0961L66.3742 22.6846L72.0972 30.0248L79.1901 25.3496L80.6997 35.0224L86.8715 29.6209L91.2527 39.6234L96.5994 35.6547L94.829 44.3781Z" fill="#AFD50C"/>
<path d="M86.8515 70.7879L89.8382 73.3215L86.3408 76.7174L87.3234 81.0972L83.7565 79.9247L84.0814 84.3449L79.6014 83.3611L79.0907 89.2906L75.1214 88.0104L71.9722 91.7163L67.2291 88.4955L64.7222 93.0235C63.1102 91.7972 59.8677 89.2529 59.7934 88.8863C59.7191 88.5198 57.8281 89.5152 56.8918 90.0588L54.029 86.2585L49.6032 85.0726L49.4252 80.9085L45.0536 79.5204L46.1368 75.4776L42.5621 71.9199L45.7887 69.5346L42.1753 65.3166L46.2917 61.2199L45.0692 56.1259L49.4176 55.9912L49.9825 49.8595L54.0834 52.2583L55.0119 45.5741L59.9948 49.5092L62.9351 43.3641L66.1075 46.8139L69.6048 43.418L72.1195 46.9083L74.5027 43.6471L77.1643 47.3934L80.0659 46.221L81.2497 50.6546L85.3428 50.6681L84.3911 55.8295L89.0181 57.0693L85.5053 61.3277L90.0936 61.9072L87.517 67.4998L91.1923 68.2679L86.8515 70.7879Z" fill="#C2E42A"/>
</svg>
