<svg width="137" height="171" viewBox="0 0 137 171" fill="none" xmlns="http://www.w3.org/2000/svg">
<path d="M27.2986 121.957C27.2986 121.957 26.7057 134.29 25.1641 139.863C31.212 138.559 34.651 132.748 34.651 132.748C34.651 132.748 35.7183 142.116 34.651 145.674C38.5644 144.132 42.9521 139.863 42.9521 139.863C42.9521 139.863 42.122 150.773 42.122 154.094C48.2885 153.857 53.3878 147.809 53.3878 147.809C53.3878 147.809 53.6249 159.074 53.1506 165.004C61.926 162.869 66.7881 154.924 66.7881 154.924C66.7881 154.924 71.413 166.545 79.3583 170.696C83.746 164.648 82.2044 153.501 82.2044 153.501C82.2044 153.501 90.5055 159.312 97.6207 161.209C101.06 154.212 98.2137 145.674 98.2137 145.674C98.2137 145.674 112.563 153.145 116.713 150.062C117.662 148.52 118.966 142.591 120.034 139.27C162.691 146.958 112.223 109.326 98.3322 89.5824L35.5997 90.5311L27.2986 121.957Z" fill="#D1BFB3"/>
<path d="M27.2986 49.3818C27.2986 49.3818 26.7057 37.0488 25.1641 31.4752C31.212 32.7796 34.651 38.5904 34.651 38.5904C34.651 38.5904 35.7183 29.222 34.651 25.6644C38.5644 27.2061 42.9521 31.4752 42.9521 31.4752C42.9521 31.4752 42.122 20.5652 42.122 17.2448C48.2885 17.4819 53.3878 23.5299 53.3878 23.5299C53.3878 23.5299 53.6249 12.2641 53.1506 6.33474C61.926 8.46931 66.7881 16.4146 66.7881 16.4146C66.7881 16.4146 71.1758 4.91171 79.2397 0.642578C83.6275 6.69052 82.0858 17.8377 82.0858 17.8377C82.0858 17.8377 90.3869 12.0269 97.5021 10.1295C100.941 17.1262 98.0951 25.6644 98.0951 25.6644C98.0951 25.6644 108.412 14.6358 112.563 17.8377C113.63 19.4979 114.579 24.5971 115.409 30.4079C154.48 33.8054 111.012 60.3072 98.2137 81.6375L35.4811 80.6888L27.2986 49.3818Z" fill="#D1BFB3"/>
<path d="M31.3306 123.143C31.3306 123.143 30.3819 125.278 30.5005 127.412C30.6191 129.903 31.3306 131.919 31.3306 131.919L35.1254 126.701C35.1254 126.701 37.26 130.496 37.8529 132.749C38.4458 135.002 39.2759 138.322 39.2759 138.322C39.2759 138.322 41.4105 132.274 41.4105 130.614C43.6637 131.682 43.6637 134.053 44.3752 135.951C44.9681 137.848 46.154 142.473 46.154 142.473L50.3045 135.713C50.3045 135.713 51.2532 136.781 52.0833 139.508C52.7949 142.236 53.3878 145.793 53.3878 145.793C53.3878 145.793 55.8781 140.813 56.471 139.034C59.3171 142.117 60.8588 150.063 60.8588 150.063C60.8588 150.063 63.8234 147.691 64.6536 144.37C65.1279 142.473 64.0606 137.374 64.0606 137.374C64.0606 137.374 67.7368 142.236 70.4643 143.896C73.1918 145.556 78.0539 146.149 78.0539 146.149L73.5476 140.338C73.5476 140.338 78.4096 141.88 81.3743 141.761C83.2717 141.643 86.4736 141.168 86.4736 141.168L80.6628 136.069C80.6628 136.069 91.3356 135.713 92.9959 136.069C94.6561 136.425 98.4509 137.848 98.4509 137.848C98.4509 137.848 97.3836 133.46 94.7747 131.326C97.6208 130.377 99.6367 130.021 101.06 129.073C105.685 125.989 106.752 122.906 106.752 122.906C106.752 122.906 99.0438 124.685 95.4862 123.38C94.8932 122.906 103.194 118.281 101.771 109.624C100.348 100.967 51.7276 84.7211 51.7276 84.7211L31.3306 123.143Z" fill="#A6897E"/>
<path d="M31.3306 48.1975C31.3306 48.1975 30.3819 46.0629 30.5005 43.9284C30.6191 41.438 31.3306 39.4221 31.3306 39.4221L35.1254 44.6399C35.1254 44.6399 37.26 40.8451 37.8529 38.592C38.4458 36.3388 39.2759 33.0184 39.2759 33.0184C39.2759 33.0184 41.4105 39.0663 41.4105 40.7265C43.6637 39.6592 43.6637 37.2875 44.3752 35.3901C44.9681 33.4927 46.154 28.8678 46.154 28.8678L50.3045 35.6273C50.3045 35.6273 51.2532 34.56 52.0833 31.8325C52.9134 29.105 53.625 25.5474 53.625 25.5474C53.625 25.5474 56.1153 30.528 56.7082 32.3068C59.5543 29.2236 61.0959 21.2783 61.0959 21.2783C61.0959 21.2783 64.0606 23.65 64.8907 26.9704C65.3651 28.8678 64.2978 33.9671 64.2978 33.9671C64.2978 33.9671 67.974 29.105 70.7015 27.4448C73.429 25.7846 78.2911 25.1916 78.2911 25.1916L73.7848 31.0024C73.7848 31.0024 78.6468 29.4608 81.6115 29.5793C83.5089 29.6979 86.7107 30.1723 86.7107 30.1723L80.9 35.2715C80.9 35.2715 91.5728 35.6273 93.233 35.2715C94.8932 34.9158 98.688 33.4927 98.688 33.4927C98.688 33.4927 97.6207 37.8804 95.0118 40.015C97.8579 40.9637 99.8739 41.3195 101.297 42.2682C105.922 45.3514 106.989 48.4347 106.989 48.4347C106.989 48.4347 99.281 46.6559 95.7233 47.9603C95.1304 48.4347 103.432 53.0596 102.008 61.7164C100.23 70.4919 51.609 86.7383 51.609 86.7383L31.3306 48.1975Z" fill="#A6897E"/>
<path d="M37.8528 106.306C37.8528 106.306 33.3465 124.687 16.6257 127.296C0.0235049 129.786 -3.5341 122.79 5.24133 106.306C17.1 84.1302 29.9074 87.332 29.9074 87.332L37.8528 106.306Z" fill="#D1BFB3"/>
<path d="M37.8528 61.2433C37.8528 61.2433 33.3465 42.8623 16.6257 40.2534C0.0235054 37.763 -3.5341 44.7597 5.24133 61.2433C17.1 83.419 29.9074 80.2172 29.9074 80.2172L37.8528 61.2433Z" fill="#D1BFB3"/>
<path d="M14.1363 124.212C14.1363 124.212 23.3861 121.959 27.2995 116.978C31.2128 111.997 31.2128 109.27 31.2128 109.27L24.572 104.645C24.572 104.645 17.8125 109.151 15.3222 112.235C12.9504 115.199 14.1363 124.212 14.1363 124.212Z" fill="#C0A799"/>
<path d="M14.1363 43.6929C14.1363 43.6929 23.3861 45.9461 27.2995 50.9267C31.2128 55.9074 31.2128 58.6349 31.2128 58.6349L24.572 63.2598C24.572 63.2598 17.8125 58.7535 15.3222 55.6702C12.9504 52.7055 14.1363 43.6929 14.1363 43.6929Z" fill="#C0A799"/>
<path d="M29.9072 111.642C29.9072 111.642 27.6541 115.2 22.792 117.334C17.93 119.469 16.5069 120.655 16.5069 120.655C16.5069 120.655 17.8114 115.2 18.4043 113.895C11.0519 116.623 6.90137 121.604 6.90137 121.604C6.90137 121.604 8.20582 113.895 12.7121 107.492C17.337 101.088 23.9779 96.7002 23.9779 96.7002L29.9072 111.642Z" fill="#A6897E"/>
<path d="M29.9072 57.5668C29.9072 57.5668 27.6541 54.0092 22.792 51.8747C17.93 49.8587 16.5069 48.5542 16.5069 48.5542C16.5069 48.5542 17.8114 54.0092 18.4043 55.3137C11.0519 52.5862 6.90137 47.6055 6.90137 47.6055C6.90137 47.6055 8.20582 55.3137 12.7121 61.7174C17.337 68.1211 23.9779 72.5088 23.9779 72.5088L29.9072 57.5668Z" fill="#A6897E"/>
<path d="M54.0991 96.6998C56.8266 92.905 58.9612 89.2288 59.0798 87.8058C59.1984 86.3827 60.0285 81.8764 57.301 78.2002C54.5735 74.6426 47.1025 62.7839 44.4936 59.9378C42.7148 58.0404 36.4297 55.9059 32.6349 54.72C26.4684 58.0404 19.3531 67.4088 19.2345 86.027C19.116 102.036 23.978 110.812 29.9074 114.606C29.9074 114.606 39.0386 114.132 43.0705 111.523C47.1025 108.796 51.3716 100.613 54.0991 96.6998Z" fill="#D1BFB3"/>
<path d="M40.9354 116.623C45.6789 115.674 51.0153 113.184 55.7588 103.934C59.1978 97.1747 66.1944 93.4985 66.7874 86.0275C67.1431 80.4539 63.1112 77.1335 58.0119 69.7811C51.0153 59.7012 49.2365 55.7878 38.9194 53.6533C37.2592 53.2975 35.006 53.6533 32.7529 54.8391C36.5477 56.025 42.7142 58.1596 44.6116 60.057C47.2205 62.903 54.6915 74.6432 57.419 78.3194C60.1465 81.877 59.3164 86.5019 59.1978 87.9249C59.0792 89.3479 56.8261 92.9056 54.2171 96.8189C51.4896 100.614 47.3391 108.915 43.1886 111.524C39.1566 114.133 30.0254 114.607 30.0254 114.607C33.4644 116.86 37.3778 117.334 40.9354 116.623Z" fill="#C0A799"/>
<path d="M42.2405 98.8354C42.2405 98.8354 38.0899 108.204 34.6509 105.595C31.3305 102.986 34.8881 96.3451 42.2405 98.8354Z" fill="#89301E"/>
<path d="M42.2405 73.5751C42.2405 73.5751 38.0899 64.2067 34.6509 66.8156C31.3305 69.4245 34.8881 76.0654 42.2405 73.5751Z" fill="#89301E"/>
<path d="M57.894 79.9788C55.6408 81.0461 55.6408 90.2959 57.894 91.2446C60.1471 92.3119 62.0445 90.4145 62.0445 90.4145C62.0445 90.4145 59.1984 90.2959 60.6215 88.6357C62.0445 86.9755 63.5861 87.687 63.9419 85.7896C63.9419 85.671 63.8233 85.671 63.8233 85.5524C63.8233 85.4338 63.9419 85.4338 63.9419 85.3153C63.4676 83.4179 62.0445 84.0108 60.6215 82.4692C59.1984 80.8089 62.0445 80.6904 62.0445 80.6904C62.0445 80.6904 60.2657 78.9116 57.894 79.9788Z" fill="#89301E"/>
<path d="M25.5198 103.577C26.2313 106.897 29.9075 107.49 29.9075 107.49C29.9075 107.49 28.8402 101.917 30.7376 98.1219C32.8722 93.8527 37.2599 92.0739 37.2599 92.0739C37.2599 92.0739 22.5551 89.7022 25.5198 103.577Z" fill="#E1CEC2"/>
<path d="M25.5198 68.5931C26.2313 65.2727 29.9075 64.6797 29.9075 64.6797C29.9075 64.6797 28.8402 70.2533 30.7376 74.0481C32.8722 78.3172 37.2599 80.096 37.2599 80.096C37.2599 80.096 22.5551 82.4678 25.5198 68.5931Z" fill="#E1CEC2"/>
</svg>
