<svg width="77" height="78" viewBox="0 0 77 78" fill="none" xmlns="http://www.w3.org/2000/svg">
<path d="M38.995 69.823C55.9459 69.823 69.6873 56.319 69.6873 39.661C69.6873 23.003 55.9459 9.49902 38.995 9.49902C22.0441 9.49902 8.30273 23.003 8.30273 39.661C8.30273 56.319 22.0441 69.823 38.995 69.823Z" fill="#040D1F"/>
<path fill-rule="evenodd" clip-rule="evenodd" d="M63.7614 39.4767C63.7614 25.5273 52.4526 14.2149 38.5 14.2121C24.5474 14.2092 13.2386 25.5171 13.2386 39.4665C13.2386 53.4159 24.5474 64.7283 38.5 64.7311C52.4526 64.734 63.7614 53.4261 63.7614 39.4767ZM38.5 2.97161C58.6573 2.97569 75 19.3196 75 39.479C75 59.6385 58.6573 75.9757 38.5 75.9716C18.3427 75.9675 2 59.6237 2 39.4642C2 19.3048 18.3427 2.96752 38.5 2.97161Z" fill="black"/>
</svg>
