<svg width="77" height="78" viewBox="0 0 77 78" fill="none" xmlns="http://www.w3.org/2000/svg">
<path d="M13 39.8448C13 25.4854 24.6406 13.8425 39 13.8397C53.3594 13.8368 65 25.4751 65 39.8345C65 54.1939 53.3594 65.8368 39 65.8397C24.6406 65.8425 13 54.2043 13 39.8448Z" fill="#8A510F"/>
<path d="M13 39.8448C13 25.4854 24.6406 13.8425 39 13.8397C53.3594 13.8368 65 25.4751 65 39.8345C65 54.1939 53.3594 65.8368 39 65.8397C24.6406 65.8425 13 54.2043 13 39.8448Z" fill="url(#paint0_radial_1585_2001)"/>
<path fill-rule="evenodd" clip-rule="evenodd" d="M63.8977 39.8367C63.8977 53.6046 52.7419 64.7523 39 64.755C25.2581 64.7578 14.1023 53.6146 14.1023 39.8466C14.1023 26.0787 25.2581 14.9311 39 14.9283C52.7419 14.9256 63.8977 26.0687 63.8977 39.8367ZM39 75.8417C58.891 75.8377 75 59.708 75 39.8345C75 19.9609 58.891 3.83769 39 3.84167C19.1091 3.84564 3 19.9753 3 39.8489C3 59.7224 19.1091 75.8456 39 75.8417Z" fill="black"/>
<defs>
<radialGradient id="paint0_radial_1585_2001" cx="0" cy="0" r="1" gradientUnits="userSpaceOnUse" gradientTransform="translate(39 39.8397) rotate(179.989) scale(26)">
<stop stop-color="white"/>
<stop offset="0.25" stop-color="#FFC022"/>
<stop offset="0.692708" stop-color="#FF5E3E"/>
<stop offset="0.848958" stop-color="#D13100"/>
<stop offset="0.932292" stop-color="#5B3B14"/>
</radialGradient>
</defs>
</svg>
