<svg width="134" height="134" viewBox="0 0 134 134" fill="none" xmlns="http://www.w3.org/2000/svg">
<path d="M0.363281 66.7422C0.363281 30.0153 30.1558 0.242187 66.8633 0.242187C103.571 0.242187 133.363 30.0153 133.363 66.7422C133.363 103.469 103.571 133.242 66.8633 133.242C30.1558 133.242 0.363281 103.469 0.363281 66.7422Z" fill="#0ADBD5"/>
<path d="M18.3633 67.2422C18.3633 40.1802 40.3157 18.2422 67.3633 18.2422C94.4109 18.2422 116.363 40.1802 116.363 67.2422C116.363 94.3041 94.4109 116.242 67.3633 116.242C40.3157 116.242 18.3633 94.3041 18.3633 67.2422Z" fill="#022120"/>
<path d="M70.9438 46.2244C73.4153 46.7156 74.9743 47.8869 75.0884 47.9247C75.6967 48.3781 75.8488 49.2849 75.3926 49.9272C74.9743 50.5695 74.1378 50.6828 73.4914 50.2672C72.4647 49.5493 69.689 48.6048 67.2555 49.0582C64.822 49.5116 62.8448 50.2294 62.1223 54.2722C61.666 56.8415 59.6888 57.0682 58.2439 57.2571C56.6469 57.446 54.6697 57.7105 52.5023 60.1664C51.6658 61.111 51.0194 62.3578 50.335 63.6424C49.9928 64.2847 49.6506 64.9648 49.2703 65.6449C51.3997 66.6651 55.088 67.4963 57.2933 67.4207C60.031 67.3452 62.6166 66.4006 64.784 64.7003L65.2403 64.3225L65.8106 64.4359C66.8372 64.6248 67.8639 64.7381 68.8905 64.7003C68.7384 64.2092 68.6244 63.5291 68.6244 62.8868C68.6624 60.1286 69.727 58.0505 71.4381 56.6148C74.4039 54.1589 77.674 54.7256 79.4231 54.839C81.1341 54.9523 82.503 55.0657 84.4802 55.2546C87.4841 55.5569 91.2484 55.9725 92.5792 55.6702C96.6858 54.7256 96.6097 52.6476 96.6097 51.8541C96.5717 51.0607 97.1801 50.4184 97.9025 50.3806C98.663 50.3428 99.2714 50.9851 99.3094 51.7785C99.3854 53.7433 98.663 57.2571 93.1496 58.4661C91.4005 58.844 87.7502 58.4661 84.214 58.0883C82.2748 57.8994 80.868 57.7105 79.309 57.6727C77.75 57.6349 74.8602 57.3704 73.1111 58.844C72.0085 59.7508 71.4381 61.1487 71.324 63.0379C71.286 63.718 71.9704 65.2671 73.3773 66.0605C74.442 66.5517 75.6207 66.7784 76.8375 66.7406C78.5865 66.7029 80.2596 66.0605 81.6284 64.927L82.465 64.2092L83.3015 64.927C84.8604 66.2872 86.7996 66.9673 88.7769 66.9296C90.4499 66.8918 92.0469 66.2872 93.3777 65.2671L94.2142 64.6248L95.0127 65.3049C96.5337 66.5895 98.4729 67.2696 100.412 67.194C105.203 67.1185 108.435 63.7936 108.321 59.2596C108.207 56.1236 106.914 53.7433 103.834 52.4586C104.671 49.2471 101.895 45.5443 99.1193 44.7131C96.2675 43.8441 92.8074 44.3731 88.4727 48.0002C87.8263 48.5292 87.2559 49.0959 86.7616 49.7005C86.2673 50.305 85.4308 50.3428 84.8604 49.8138C84.5562 49.5493 84.4041 49.1715 84.4041 48.7937C84.4041 48.4536 84.5182 48.0758 84.7464 47.8113C85.3547 47.0934 86.0392 46.4134 86.7996 45.771C89.9176 43.2018 93.4157 42.2572 95.7732 41.955C92.0469 36.5142 85.1266 35.7963 81.3623 38.29C76.5333 35.0407 70.6396 39.9902 70.9438 46.2244Z" fill="#EF7197"/>
<path d="M47.9398 62.2821C48.5482 60.8463 49.4227 59.4483 50.4874 58.2015C53.3391 54.9899 56.0388 54.6499 57.8639 54.4232C59.3469 54.2343 59.3469 54.1587 59.4229 53.7053C59.8412 51.3628 60.6016 49.7759 61.5522 48.6802C60.9439 47.2822 60.6777 45.9598 60.6397 44.6752C60.5256 40.9724 62.2747 38.1765 62.3507 37.9876C62.769 37.3453 63.6055 37.1563 64.2139 37.6097C64.8223 38.0631 65.0124 38.9321 64.5941 39.5745C64.48 39.7256 62.4268 43.1638 63.7956 46.9799C64.5941 46.6021 66.2291 45.8842 68.1683 45.922C68.0543 39.9523 71.6285 34.3982 77.5982 34.1337C66.1151 26.3504 55.3544 35.6072 52.3125 46.1865C51.476 49.0202 48.6242 51.0605 45.6584 51.0983C45.126 51.0983 44.3656 51.0227 43.491 50.7204C43.2629 51.8539 42.8826 53.1763 42.2743 54.4988C44.3275 54.1587 46.0386 54.4232 46.1527 54.461C46.8751 54.5743 47.4074 55.2922 47.2934 56.0856C47.1793 56.8791 46.4949 57.408 45.7724 57.2947C45.7344 57.2947 41.4377 56.6524 39.4225 58.5415C38.3578 59.5617 36.5707 60.544 34.5935 60.8463C33.871 60.9597 33.1866 60.3929 33.0726 59.6372C33.0726 59.5995 33.0726 59.5239 33.0726 59.4861C33.0345 58.7682 33.5288 58.1259 34.2513 58.0126C40.0309 57.1814 40.8294 51.2872 41.0195 49.2091C40.0689 48.2646 39.1563 46.9044 38.4719 44.8641C38.4339 44.7129 38.3959 44.5618 38.3959 44.4485C38.3578 43.8439 38.7381 43.2772 39.3084 43.0505C39.9928 42.786 40.7913 43.1638 41.0195 43.9195C41.9701 46.7532 43.6431 48.3401 45.6584 48.3023C47.4455 48.3023 49.2706 46.9799 49.8029 45.3553C51.6281 39.4611 54.6319 35.1538 58.7005 32.4712C49.6128 29.033 45.7724 36.514 46.3428 41.2747C46.4188 42.0303 45.9245 42.786 45.1641 42.8616C44.4036 42.9371 43.7572 42.4082 43.6431 41.6147C43.6051 41.2369 43.5671 40.8591 43.5671 40.4812C43.529 38.8188 43.7952 37.383 44.2135 36.0984C39.1944 34.9649 30.8292 40.0656 34.2893 49.398C27.7112 50.5693 24.6693 60.204 30.9052 65.7581C36.989 71.1611 45.8105 67.3828 47.9398 62.2821Z" fill="#EF7197"/>
<path d="M89.5374 69.1594C89.1951 69.1594 88.8529 69.1972 88.5487 69.2727C90.0317 70.3684 91.2864 71.6153 91.9328 72.4087C92.199 72.7488 92.4652 73.051 92.6933 73.3533C95.0888 76.3759 96.3056 77.8873 100.336 77.6228C101.059 77.585 101.667 78.1517 101.743 78.9074C101.781 79.7009 101.249 80.3432 100.526 80.3809C95.1648 80.721 93.3017 78.3784 90.7161 75.1291C90.4879 74.8268 90.2218 74.5246 89.9556 74.1845C88.967 72.9755 87.1799 71.4264 85.4688 70.444H85.4308L84.8224 70.1417C83.6817 69.575 82.465 69.3105 81.2482 69.3483C80.0695 69.3861 78.9288 69.6883 77.9021 70.2551L77.3698 70.5196L76.8375 70.2929C75.3926 69.6883 73.9097 69.4239 72.3507 69.4616C71.0959 69.4994 69.9172 69.7639 68.7384 70.2173C70.0312 71.2374 71.1339 72.5599 71.9705 74.1467C73.1872 76.4137 73.7576 79.0585 73.4914 81.0233C76.6854 83.8192 78.5105 87.6731 78.6626 91.9426C78.6626 91.9803 78.6626 92.0181 78.6626 92.0559C78.7387 94.5118 78.0542 99.3102 75.1644 101.464C80.3737 102.408 84.6703 100.519 85.811 95.1163C90.1077 96.1743 94.1002 93.4539 95.5071 90.9602C92.5032 89.9401 90.8682 88.2776 89.5754 86.5018C88.7008 87.1441 86.3434 88.6932 83.7958 88.731C83.0733 88.731 82.503 88.1265 82.465 87.3708C82.465 87.3708 82.465 87.3708 82.465 87.333C82.465 86.5774 83.0353 85.9351 83.7578 85.9351C85.5449 85.8973 87.37 84.726 88.0544 84.2348C86.5715 82.0056 84.9745 79.9276 80.944 78.6051C80.4117 78.4162 80.0315 77.8873 80.0315 77.3205C80.0315 77.1694 80.0315 77.0183 80.0695 76.8671C80.2976 76.1492 81.0201 75.7336 81.7045 75.9603C86.9137 77.6606 88.8529 80.6076 90.564 83.2147C92.0089 85.4061 93.2637 87.333 96.5337 88.3909L97.6364 88.6177C98.2828 88.731 98.9292 88.8066 99.5756 88.7688C104.557 88.6932 108.511 84.2348 108.359 78.9074C108.207 73.58 103.948 69.3861 98.9292 69.5372C97.6364 69.575 96.4196 69.8773 95.2789 70.4818L94.6325 70.8218L94.0241 70.444C92.6553 69.5372 91.1343 69.1216 89.5374 69.1594Z" fill="#EF7197"/>
<path d="M57.2547 102.369C55.8858 101.236 54.7451 100.027 54.555 99.8002C54.3268 99.5357 54.2128 99.2335 54.1747 98.8934C54.1747 98.5156 54.2888 98.1378 54.555 97.8355C55.0873 97.3065 55.8858 97.3443 56.4181 97.8733C56.9505 98.4778 58.3193 99.8002 59.5741 100.745L59.6121 100.707L60.3726 101.198C62.1597 102.332 64.213 102.898 66.2663 102.861C69.042 102.785 71.6656 101.538 73.6048 99.4224C73.6809 99.309 73.7949 99.2335 73.871 99.1201L73.947 99.0068C75.3159 97.3065 76.0763 94.7751 76.0003 92.0925C75.9243 89.9389 75.2018 85.8961 71.2093 82.7223L70.4108 82.08L70.753 81.0976C71.0572 80.2286 70.9051 77.9238 69.6504 75.5057C68.7378 73.8055 66.9887 71.803 64.0609 71.0095C59.422 69.7627 56.7223 73.3143 55.8098 74.5611C55.3915 75.1657 54.6691 75.4679 54.0227 75.0901C53.6044 74.8256 53.3763 74.41 53.3382 73.9188C53.3382 73.6921 53.3763 73.4277 53.4903 73.201C54.0227 72.143 55.1634 70.7073 56.8364 69.6116C55.8098 69.2715 54.7451 69.1204 53.6804 69.1582C51.5891 69.2337 49.6499 69.9516 47.9769 71.3118L47.4826 71.7274C46.1898 72.8987 44.935 74.5234 43.9464 75.7702C43.4901 76.3747 43.0719 76.9037 42.6916 77.3193C39.3836 81.1732 35.315 80.4175 33.642 79.4729C33.2237 79.2462 32.9576 78.7551 32.9576 78.3017C32.9576 78.075 32.9956 77.8483 33.1097 77.6216C33.4519 76.9415 34.2124 76.677 34.8588 77.0548C35.201 77.2437 38.0527 78.6417 40.7904 75.4679C41.1327 75.0901 41.5129 74.5989 41.9312 74.0322C42.6916 73.0876 43.5662 71.9163 44.5548 70.8584C44.1745 70.8206 43.7943 70.7828 43.4141 70.7828C42.4255 70.8206 41.4368 71.0851 40.5243 71.5385L39.9159 71.8786L39.3075 71.5385C38.0147 70.7828 36.5698 70.405 35.1249 70.4428C30.6762 70.5939 27.216 74.5234 27.3681 79.2085C27.4822 82.4956 29.3073 85.3671 32.1591 86.7273L32.6534 86.954L32.8435 87.5207C33.3758 89.0698 34.4025 90.3545 35.6953 91.2235C35.8093 90.0522 36.1896 88.9187 36.798 87.9363C37.9387 86.0472 39.8399 84.8759 41.9312 84.6492C43.8704 84.4603 46.0377 85.0271 47.7107 85.7071C47.3305 84.5359 47.1024 83.289 47.0643 82.1933C47.0263 81.0221 47.1784 79.9641 47.4826 79.2085C47.7488 78.4906 48.5092 78.1505 49.1937 78.4528C49.8781 78.7551 50.1823 79.5485 49.9161 80.2664C49.3458 81.8155 49.8401 86.6895 52.8439 88.352C55.9238 90.0522 57.5208 90.5056 59.0798 89.8633C60.5627 89.2588 61.095 88.0497 61.2852 87.1429C61.6274 85.4804 61.057 83.5913 59.8022 82.1933C59.3079 81.6266 59.3079 80.7576 59.8403 80.2286C60.3726 79.6996 61.2091 79.7374 61.7034 80.3042C63.2624 82.0422 64.0609 84.3092 63.9848 86.5006C66.4184 87.1429 68.7758 86.5762 68.7758 86.5762C69.4602 86.3872 70.1827 86.8406 70.3728 87.5963C70.5249 88.3142 70.1066 89.0698 69.4222 89.2588C69.2701 89.2965 66.4564 90.0144 63.3765 89.1832C62.7301 90.6567 61.5513 91.828 60.0304 92.4325C56.7984 93.7549 53.8706 92.168 49.3458 89.4477C49.3458 89.4477 45.1632 87.1051 42.1973 87.4074C40.8665 87.5585 39.6878 88.2764 39.0033 89.4477C34.5926 97.0798 47.0643 106.11 57.2547 102.369Z" fill="#EF7197"/>
</svg>
