<svg width="73" height="73" viewBox="0 0 73 73" fill="none" xmlns="http://www.w3.org/2000/svg">
<path d="M36.8 67.2696C53.6353 67.2696 67.2858 53.6446 67.2891 36.8372C67.2925 20.0298 53.6475 6.40479 36.8122 6.40479C19.9768 6.40479 6.32638 20.0298 6.32302 36.8372C6.31966 53.6446 19.9647 67.2696 36.8 67.2696Z" fill="#2B405C"/>
<path fill-rule="evenodd" clip-rule="evenodd" d="M36.8112 11.9527C23.0313 11.9527 11.874 23.1025 11.8713 36.837C11.8686 50.5715 23.0214 61.7213 36.8013 61.7213C50.5811 61.7213 61.7384 50.5715 61.7412 36.837C61.7439 23.1025 50.5911 11.9527 36.8112 11.9527ZM0.775034 36.837C0.779008 16.9568 16.9226 0.856445 36.8134 0.856445C56.7042 0.856445 72.8414 16.9568 72.8374 36.837C72.8335 56.7172 56.6898 72.8176 36.799 72.8176C16.9083 72.8176 0.77106 56.7172 0.775034 36.837Z" fill="black"/>
</svg>
