<svg width="40" height="151" viewBox="0 0 40 151" fill="none" xmlns="http://www.w3.org/2000/svg">
<path fill-rule="evenodd" clip-rule="evenodd" d="M26.4926 8.52859C26.5237 8.51141 26.5516 8.49683 26.5764 8.48445C27.1484 8.9611 30.2943 12.393 31.5336 28.9806C32.4869 42.327 31.8196 59.4866 29.627 77.4088C27.4344 95.3311 24.0025 112.205 19.8079 124.884C14.7553 140.709 10.9421 143.187 10.1795 143.569C9.91851 143.351 9.12182 142.519 8.21486 140.102C5.41392 139.645 2.67177 139.013 -5.57342e-07 138.218C1.94787 146.247 5.01228 150.445 9.32148 150.909C12.9441 151.386 16.2806 149.098 19.5219 144.045C21.8098 140.423 24.0978 135.37 26.2904 128.888C30.8663 115.541 34.5842 97.5237 36.9675 78.2668C39.3508 59.0099 39.9227 40.611 38.7788 26.5973C37.4441 10.2004 33.7262 1.81126 27.5297 1.04861C23.9028 0.602233 20.5045 2.89929 17.2392 8.01628C17.8234 8.0011 18.4095 7.99347 18.9974 7.99347C20.6375 7.99347 22.1341 8.04191 23.4967 8.13777L26.4963 8.49301L26.4926 8.52859Z" fill="url(#paint0_radial)"/>
<path fill-rule="evenodd" clip-rule="evenodd" d="M25.4973 1.12123C26.165 0.93045 26.7853 0.987929 27.5484 1.08331C33.7485 1.8464 37.4686 10.1133 38.804 26.4244C39.9486 40.4462 39.3763 58.8558 36.9917 78.1239C34.607 97.392 30.8869 115.42 26.3084 128.774C24.1145 135.26 21.8252 140.316 19.5359 143.941C16.2989 149.327 12.9682 151.405 9.34357 150.928C8.97892 150.88 8.33066 150.752 8.16797 150.69C10.9342 150.213 13.622 147.851 16.1974 143.845C18.4867 140.221 20.776 135.165 22.9698 128.679C27.5484 115.325 31.2685 97.2966 33.6531 78.0285C36.0378 58.7604 36.7055 40.3508 35.4655 26.329C34.1301 10.9718 31.0297 2.7428 25.4973 1.12123Z" fill="url(#paint1_radial)"/>
<path d="M4.72656 139.434C5.69186 142.212 6.72377 144.24 7.00098 144.471C7.28718 144.375 9.00098 144.471 10.2995 143.563C10.1233 143.181 8.49005 140.632 8.2961 140.113C7.09517 139.919 5.90502 139.692 4.72656 139.434Z" fill="url(#paint2_radial)"/>
<path fill-rule="evenodd" clip-rule="evenodd" d="M23.4192 7.63216C23.3486 7.69101 23.2331 7.84146 23.0781 8.11623C23.8212 8.17818 25.3113 8.42943 26.7146 8.59944C25.8597 7.7941 24.5036 7.68663 23.8525 7.6321C23.6579 7.61579 23.4851 7.65412 23.4192 7.63216Z" fill="url(#paint3_radial)"/>
<defs>
<radialGradient id="paint0_radial" cx="0" cy="0" r="1" gradientUnits="userSpaceOnUse" gradientTransform="translate(18.4339 76.0184) rotate(-57.1935) scale(55.4105)">
<stop offset="0.0814815" stop-color="#DFAB45"/>
<stop offset="1" stop-color="#E64A24"/>
</radialGradient>
<radialGradient id="paint1_radial" cx="0" cy="0" r="1" gradientUnits="userSpaceOnUse" gradientTransform="translate(12.9849 163.595) rotate(-78.3248) scale(155.721 155.777)">
<stop offset="0.0814815" stop-color="#DFAB45"/>
<stop offset="1" stop-color="#E64A24"/>
</radialGradient>
<radialGradient id="paint2_radial" cx="0" cy="0" r="1" gradientUnits="userSpaceOnUse" gradientTransform="translate(4.00098 158.471) rotate(-83.9273) scale(23.6316)">
<stop offset="0.0814815" stop-color="#DFAB45"/>
<stop offset="1" stop-color="#E64A24"/>
</radialGradient>
<radialGradient id="paint3_radial" cx="0" cy="0" r="1" gradientUnits="userSpaceOnUse" gradientTransform="translate(20.4192 -6.36815) rotate(83.9273) scale(23.6316)">
<stop offset="0.0814815" stop-color="#DFAB45"/>
<stop offset="1" stop-color="#E64A24"/>
</radialGradient>
</defs>
</svg>
