<svg width="148" height="149" viewBox="0 0 148 149" fill="none" xmlns="http://www.w3.org/2000/svg">
<path d="M140.768 77.8869C142.984 41.2268 115.061 9.71005 78.4008 7.49224C41.7409 5.27442 10.2263 33.1954 8.01107 69.8555C5.79582 106.516 33.7187 138.032 70.3786 140.25C107.039 142.468 138.553 114.547 140.768 77.8869Z" fill="#CF044D"/>
<path fill-rule="evenodd" clip-rule="evenodd" d="M13.0197 74.2353C13.0197 107.921 40.3252 135.225 74 135.228C107.675 135.231 134.98 107.932 134.98 74.2455C134.98 40.5594 107.675 13.2557 74 13.2529C40.3252 13.2501 13.0197 40.5492 13.0197 74.2353ZM74 146.24C34.2318 146.237 2 113.995 2 74.2344C2 34.4735 34.2318 2.23706 74 2.24038C113.768 2.2437 146 34.4856 146 74.2464C146 114.007 113.768 146.244 74 146.24Z" fill="black"/>
</svg>
