<svg width="77" height="78" viewBox="0 0 77 78" fill="none" xmlns="http://www.w3.org/2000/svg">
<path d="M6.99999 39.2718C6.99999 56.3926 20.8792 70.2746 38 70.278C55.1208 70.2814 69 56.405 69 39.2842C69 22.1634 55.1208 8.28141 38 8.27798C20.8792 8.27456 7 22.151 6.99999 39.2718Z" fill="#F5901A"/>
<path fill-rule="evenodd" clip-rule="evenodd" d="M63.7614 38.7819C63.7614 24.8325 52.4526 13.5201 38.5 13.5172C24.5474 13.5144 13.2386 24.8223 13.2386 38.7717C13.2386 52.7211 24.5474 64.0335 38.5 64.0363C52.4526 64.0392 63.7614 52.7313 63.7614 38.7819ZM38.5 2.27678C58.6573 2.28087 75 18.6247 75 38.7842C75 58.9436 58.6573 75.2809 38.5 75.2768C18.3427 75.2727 2 58.9288 2 38.7694C2 18.6099 18.3427 2.2727 38.5 2.27678Z" fill="black"/>
</svg>
