<svg width="77" height="77" viewBox="0 0 77 77" fill="none" xmlns="http://www.w3.org/2000/svg">
<path fill-rule="evenodd" clip-rule="evenodd" d="M38.9889 17.884C37.1594 16.1549 34.838 15.0876 32.2864 15.0051C29.0278 14.8999 26.0456 16.422 23.9251 18.9352C23.4908 18.7785 23.0412 18.6519 22.5778 18.5581C16.9502 17.4189 11.4212 21.5393 10.2285 27.7613C9.6109 30.983 10.277 34.1364 11.8442 36.5867C10.7327 39.4034 10.1205 42.483 10.1205 45.7095C10.1205 59.1248 20.7034 70 33.7581 70C46.797 70 57.3701 59.1511 57.3958 45.7583C60.831 43.3828 62.6952 38.8105 61.7593 34.1117C60.9272 29.934 58.0979 26.742 54.6221 25.5249C54.1841 23.4904 53.1557 21.5008 51.5541 19.855C47.9548 16.1562 42.6657 15.4325 38.9889 17.884Z" fill="url(#paint0_radial)"/>
<path fill-rule="evenodd" clip-rule="evenodd" d="M32.1219 20.091C30.5141 20.0393 28.8941 20.771 27.6175 22.2776L25.4217 24.8686L22.2593 23.7323C22.0451 23.6553 21.8217 23.5926 21.589 23.5457C18.9446 23.0127 15.7324 24.934 14.9958 28.76C14.6259 30.6814 15.0372 32.4846 15.8987 33.8257L17.3199 36.0382L16.3475 38.4917C15.4676 40.712 14.9805 43.1437 14.9805 45.7044C14.9805 56.3123 23.385 64.9117 33.7525 64.9117C44.1074 64.9117 52.5042 56.3331 52.5245 45.7432L52.5297 43.0639L54.7021 41.5682C56.4079 40.3937 57.5578 37.9249 57 35.1367C56.5067 32.6703 54.8665 30.9486 53.083 30.3268L50.4586 29.4117L49.8597 26.6418C49.6248 25.5553 49.0574 24.4266 48.1109 23.4581C45.8964 21.1923 43.1327 21.1911 41.6808 22.155L38.4739 24.284L35.6603 21.6362C34.6183 20.6557 33.3963 20.132 32.1219 20.091ZM22.4089 13.4701C25.1611 11.2331 28.6275 9.88532 32.4317 10.0077C35.0393 10.0916 37.4585 10.8588 39.5651 12.1158C44.8872 10.3769 50.9524 12.0985 55.0827 16.3246C56.682 17.9609 57.8972 19.8594 58.7001 21.8814C62.6892 24.135 65.6756 28.1958 66.6594 33.1137C67.7886 38.7583 66.0545 44.4519 62.2807 48.2131C61.0369 63.2184 48.7394 75 33.7525 75C17.9397 75 5.12082 61.8839 5.12082 45.7044C5.12082 42.6831 5.56937 39.7616 6.40421 37.0099C5.06841 33.9246 4.63611 30.373 5.32207 26.8101C6.90782 18.5736 14.2018 12.4403 22.4089 13.4701Z" fill="black"/>
<path fill-rule="evenodd" clip-rule="evenodd" d="M57.3797 39.4065L59.4156 39.9416L60.365 36.0126L63.6717 40L75 29.7802L60.6191 26L59.3586 31.2165L56.6995 28.01L55 29.5432L58.6883 33.9907L57.3797 39.4065Z" fill="black"/>
<path fill-rule="evenodd" clip-rule="evenodd" d="M49.4049 25L49.9819 24.7054L48.1766 20.8771L53.2964 21.8636L57 6L43.6578 12.8128L46.3209 18.46L40.4601 17.3308L40 19.3016L47.3891 20.7254L49.4049 25Z" fill="black"/>
<path fill-rule="evenodd" clip-rule="evenodd" d="M25.8471 22L24.6101 20.2996L27.8786 17.9582L23 16.3521L28.2624 2L37 14.0107L32.6604 17.1194L36.5836 18.411L35.7941 20.5641L30.3525 18.7726L25.8471 22Z" fill="black"/>
<path fill-rule="evenodd" clip-rule="evenodd" d="M13.3166 30L11.2482 29.533L12.2134 25.5176L7.41416 27.593L2 13L16.6098 16.2986L15.3284 21.6299L19.1878 19.9609L20 22.1501L14.6469 24.4651L13.3166 30Z" fill="black"/>
<defs>
<radialGradient id="paint0_radial" cx="0" cy="0" r="1" gradientUnits="userSpaceOnUse" gradientTransform="translate(39.9697 33.2444) rotate(137.59) scale(30.2818 46.4479)">
<stop stop-color="#5C522F"/>
<stop offset="0.421021" stop-color="#483F20"/>
<stop offset="1" stop-color="#483F20"/>
</radialGradient>
</defs>
</svg>
