<svg width="62" height="80" viewBox="0 0 62 80" fill="none" xmlns="http://www.w3.org/2000/svg">
<path d="M50.1248 13.3032C48.9601 12.2001 47.3368 11.723 45.7605 12.0202C44.1841 12.3174 42.846 13.3529 42.1629 14.8043L28.6597 43.4932C27.6748 45.5855 28.2534 48.0802 30.0586 49.5256L38.4998 56.284C39.7162 57.258 41.3173 57.6091 42.8297 57.2335C44.3421 56.858 45.5929 55.7988 46.2125 54.3689L54.5695 35.0838C54.5699 35.0829 54.5703 35.082 54.5707 35.0811C57.8168 27.6091 56.0405 18.9052 50.1248 13.3032Z" fill="#FF6136" stroke="black" stroke-width="10" stroke-linejoin="round"/>
<path d="M46.6245 52.3815C46.6245 50.8633 45.9347 49.4273 44.7496 48.4784L38.4173 43.4084L41.5401 10.6503C41.6737 9.24839 41.21 7.85515 40.2629 6.81299C39.3157 5.77083 37.973 5.17639 36.5648 5.17578C28.8028 5.17243 21.427 8.56454 16.3767 14.4601C16.3764 14.4604 16.3762 14.4607 16.3759 14.461C16.3758 14.4611 16.3756 14.4613 16.3755 14.4614L14.6542 16.4697C14.6539 16.4699 14.6537 16.4702 14.6535 16.4705C14.6533 16.4707 14.6531 16.4709 14.6529 16.4712C1.7188 31.5503 2.11688 53.9213 15.5772 68.5316C15.5777 68.5321 15.5781 68.5326 15.5786 68.5331C15.5789 68.5334 15.5791 68.5337 15.5794 68.534L19.3668 72.6495C20.3135 73.6783 21.6478 74.2637 23.0459 74.2637H38.2454C40.139 74.2637 41.8702 73.1939 42.7173 71.5003C45.2843 66.3676 46.6229 60.7088 46.6245 54.9687V54.9672V52.3815Z" fill="#FF3F26" stroke="black" stroke-width="10" stroke-linejoin="round"/>
<path d="M19.8397 29.9464L17.3867 28.7356C18.5085 26.4578 19.9081 24.3277 21.554 22.3945L23.6363 24.173C22.1381 25.9338 20.863 27.8725 19.8397 29.9464Z" fill="#FF8D6E"/>
<path d="M25.3753 22.1545L23.2891 20.3854C24.5258 18.9299 25.9952 17.6903 27.6382 16.7148L29.0419 19.0666C27.6574 19.886 26.4192 20.9299 25.3753 22.1545Z" fill="#FF8D6E"/>
<path d="M17.0487 37.5391H14.3125V40.2753H17.0487V37.5391Z" fill="#FF8D6E"/>
<path d="M22.5214 40.2734H19.7852V43.0097H22.5214V40.2734Z" fill="#FF8D6E"/>
<path d="M19.7831 48.4805H17.0469V51.2167H19.7831V48.4805Z" fill="#FF8D6E"/>
<path d="M17.0487 43.0117H14.3125V45.748H17.0487V43.0117Z" fill="#FF8D6E"/>
</svg>
