<svg width="74" height="72" viewBox="0 0 74 72" fill="none" xmlns="http://www.w3.org/2000/svg">
<path d="M37.0205 66.4132C53.8558 66.4132 67.5062 52.7881 67.5096 35.9808C67.513 19.1734 53.868 5.54834 37.0326 5.54834C20.1973 5.54834 6.54684 19.1734 6.54348 35.9808C6.54012 52.7881 20.1851 66.4132 37.0205 66.4132Z" fill="#F8C574"/>
<path fill-rule="evenodd" clip-rule="evenodd" d="M37.0315 11.0963C23.2516 11.0963 12.0944 22.246 12.0916 35.9806C12.0889 49.7151 23.2417 60.8648 37.0216 60.8648C50.8014 60.8648 61.9587 49.7151 61.9615 35.9806C61.9642 22.246 50.8114 11.0963 37.0315 11.0963ZM0.995341 35.9806C0.999315 16.1003 17.143 2.99659e-09 37.0337 6.68947e-09C56.9245 1.03823e-08 73.0617 16.1003 73.0577 35.9806C73.0538 55.8608 56.9101 71.9611 37.0193 71.9611C17.1286 71.9611 0.991367 55.8608 0.995341 35.9806Z" fill="black"/>
</svg>
