<svg width="73" height="73" viewBox="0 0 73 73" fill="none" xmlns="http://www.w3.org/2000/svg">
<path d="M36.0324 66.505C52.8678 66.505 66.5182 52.8799 66.5216 36.0726C66.5249 19.2652 52.8799 5.64014 36.0446 5.64014C19.2093 5.64014 5.5588 19.2652 5.55544 36.0726C5.55208 52.8799 19.1971 66.505 36.0324 66.505Z" fill="#E8C22A"/>
<path fill-rule="evenodd" clip-rule="evenodd" d="M36.0436 11.1881C22.2637 11.1881 11.1065 22.3378 11.1037 36.0724C11.101 49.8069 22.2538 60.9566 36.0337 60.9566C49.8136 60.9566 60.9708 49.8069 60.9736 36.0724C60.9763 22.3378 49.8235 11.1881 36.0436 11.1881ZM0.00745613 36.0724C0.0114301 16.1921 16.1551 0.0917969 36.0458 0.0917969C55.9366 0.0917969 72.0738 16.1921 72.0698 36.0724C72.0659 55.9526 55.9222 72.0529 36.0315 72.0529C16.1407 72.0529 0.00348219 55.9526 0.00745613 36.0724Z" fill="#2C2408"/>
</svg>
