<svg width="144" height="140" viewBox="0 0 144 140" fill="none" xmlns="http://www.w3.org/2000/svg">
<mask id="mask0_1383_264" style="mask-type:alpha" maskUnits="userSpaceOnUse" x="0" y="0" width="144" height="140">
<rect width="144" height="140" fill="#C4C4C4"/>
</mask>
<g mask="url(#mask0_1383_264)">
<path fill-rule="evenodd" clip-rule="evenodd" d="M143.999 70.3703C144 82.4955 143.273 94.3165 137.874 104.276C130.168 118.488 117.581 130.179 102.503 136.357C94.2797 139.726 84.7403 139.785 75.304 139.785C66.6866 139.785 56.612 139.192 48.7539 136.357C36.533 131.948 26.8112 122.314 18.4541 112.676C7.94978 100.562 0.288208 87.2154 0.287618 70.3703C0.287054 54.2545 6.21478 40.3841 15.9255 28.5206C29.6328 11.7745 50.8778 -2.80539e-06 73.6264 -4.06682e-06C85.7508 -4.73912e-06 96.1387 4.36774 106.098 9.76709C118.365 16.4178 129.866 22.147 136.365 34.5074C141.503 44.2781 143.999 58.5647 143.999 70.3703Z" fill="#008C88"/>
<path d="M73.3484 136.024C110.075 136.024 139.847 106.251 139.846 69.5239C139.845 32.797 110.071 3.02392 73.3438 3.02392C36.6168 3.02392 6.84479 32.797 6.84608 69.5239C6.84736 106.251 36.6215 136.024 73.3484 136.024Z" fill="url(#paint0_radial_1383_264)"/>
</g>
<defs>
<radialGradient id="paint0_radial_1383_264" cx="0" cy="0" r="1" gradientUnits="userSpaceOnUse" gradientTransform="translate(73.3461 69.5239) rotate(89.998) scale(66.5)">
<stop offset="0.479167" stop-color="white"/>
<stop offset="1" stop-color="#8ABFF0"/>
</radialGradient>
</defs>
</svg>
