<svg width="134" height="133" viewBox="0 0 134 133" fill="none" xmlns="http://www.w3.org/2000/svg">
<circle cx="66.5039" cy="66.501" r="66.5" transform="rotate(-90 66.5039 66.501)" fill="black"/>
<path d="M133.004 66.501C133.004 29.774 103.231 0.000977001 66.5039 0.000976563C65.1785 0.000976547 63.8621 0.0397491 62.5559 0.116226C54.0727 3.09831 48.0039 11.0058 48.0039 20.2779C48.0039 30.1229 54.8483 38.5387 64.1371 40.9206C64.5445 40.9206 64.9519 40.8809 65.3593 40.8412C65.7667 40.8015 66.1741 40.7618 66.5816 40.7618C80.9222 40.7618 92.6554 52.0359 92.9814 66.0095C93.2802 65.893 93.5735 65.7765 93.8643 65.661C95.1598 65.1467 96.4063 64.6518 97.8702 64.2627C105.529 62.1985 113.678 63.31 120.522 67.121C125.514 69.9179 129.359 73.9255 131.911 78.5732C132.629 74.6583 133.004 70.6234 133.004 66.501Z" fill="#DF922F"/>
<path d="M122.12 102.974C110.235 121.06 89.7646 133.001 66.5056 133.001C49.7977 133.001 34.5289 126.839 22.8477 116.664C23.5439 116.718 24.2512 116.745 24.9585 116.745C29.9114 116.745 34.7095 115.497 39.1981 112.844C45.8535 108.944 50.4969 102.703 52.509 95.3697C52.9733 93.8095 53.2829 92.0932 53.4377 90.3769C57.1523 92.5613 61.3313 93.8095 65.9747 93.8095C76.4996 93.8095 85.4767 87.4125 89.1914 78.207C91.513 76.1787 94.299 74.4624 97.5494 73.6823C102.967 72.2781 108.693 73.0582 113.492 75.8667C122.98 81.311 126.548 93.1389 122.12 102.974Z" fill="#D93354"/>
<path d="M1.70276 51.4991C6.97142 28.6482 24.0159 10.3001 46.1024 3.18848C42.6262 8.06559 40.5241 14.0963 40.5241 20.5322C40.5241 30.5113 45.4543 39.3816 53.0038 44.6088C45.6084 49.2024 40.6782 57.2807 40.6782 66.7846C40.6782 72.3285 42.3729 77.3973 45.3003 81.5157C46.0706 85.0004 46.0706 88.6436 45.1462 92.1284C43.7596 97.6723 40.216 102.266 35.4398 105.117C26.9377 110.132 16.4183 108.407 9.92682 101.465C3.65851 91.3438 0.0303584 79.4153 0.00390625 66.6413C0.0144897 61.4344 0.601611 56.3662 1.70276 51.4991Z" fill="#65AFCD"/>
</svg>
