<svg width="73" height="73" viewBox="0 0 73 73" fill="none" xmlns="http://www.w3.org/2000/svg">
<path d="M66.504 36.0447C66.504 19.2094 52.8789 5.55894 36.0716 5.55558C19.2642 5.55222 5.63916 19.1972 5.63916 36.0326C5.63916 52.8679 19.2642 66.5183 36.0716 66.5217C52.8789 66.5251 66.504 52.8801 66.504 36.0447Z" fill="url(#paint0_linear)"/>
<path fill-rule="evenodd" clip-rule="evenodd" d="M11.1871 36.0335C11.1871 49.8134 22.3369 60.9707 36.0714 60.9734C49.8059 60.9762 60.9557 49.8233 60.9557 36.0435C60.9557 22.2636 49.8059 11.1063 36.0714 11.1036C22.3369 11.1008 11.1871 22.2536 11.1871 36.0335ZM36.0714 72.0697C16.1912 72.0657 0.0908196 55.9221 0.0908187 36.0313C0.0908179 16.1405 16.1912 0.00332448 36.0714 0.00729755C55.9516 0.0112706 72.0519 16.1549 72.0519 36.0457C72.0519 55.9365 55.9516 72.0737 36.0714 72.0697Z" fill="black"/>
<defs>
<linearGradient id="paint0_linear" x1="9.22716" y1="24.3723" x2="59.3155" y2="48.8216" gradientUnits="userSpaceOnUse">
<stop stop-color="#993D3D"/>
<stop offset="0.526042" stop-color="#9B6627"/>
<stop offset="1" stop-color="#8B8C40"/>
</linearGradient>
</defs>
</svg>
