<svg width="77" height="78" viewBox="0 0 77 78" fill="none" xmlns="http://www.w3.org/2000/svg">
<path d="M13 39.7819C13 25.4225 24.6406 13.7795 39 13.7767C53.3594 13.7738 65 25.4121 65 39.7715C65 54.1309 53.3594 65.7738 39 65.7767C24.6406 65.7795 13 54.1413 13 39.7819Z" fill="#8A510F"/>
<path d="M13 39.7819C13 25.4225 24.6406 13.7795 39 13.7767C53.3594 13.7738 65 25.4121 65 39.7715C65 54.1309 53.3594 65.7738 39 65.7767C24.6406 65.7795 13 54.1413 13 39.7819Z" fill="#D5D5D5"/>
<circle cx="38.875" cy="40.4258" r="28.4258" fill="url(#paint0_radial_1762_323)"/>
<path d="M39.0484 38.6835C37.8878 38.7391 37.4832 39.9098 38.0976 40.6305C38.3651 40.9453 38.7286 41.0816 39.0817 41.0707C39.653 41.0529 40.1974 40.6496 40.2646 39.9933C40.3202 39.475 39.979 38.7293 39.0489 38.6835L39.0484 38.6835Z" fill="#FF9FA5" fill-opacity="0.5"/>
<path d="M42.2191 40.6305C42.4824 40.9449 42.8392 41.0813 43.1856 41.0707C43.7472 41.0536 44.2815 40.6502 44.3456 39.9933C44.3962 39.4775 44.0575 38.7293 43.145 38.6835L43.1446 38.6835C42.0067 38.7391 41.6148 39.9098 42.2191 40.6305Z" fill="#FF9FA5" fill-opacity="0.5"/>
<path d="M40.6768 43.791C40.9321 44.0939 41.2757 44.2309 41.6133 44.23C42.1919 44.2284 42.7532 43.8219 42.8235 43.1513C42.8791 42.6279 42.5403 41.8719 41.6174 41.8264L41.616 41.8265L41.6152 41.8264C40.4866 41.886 40.0804 43.081 40.6768 43.791Z" fill="#FF9FA5" fill-opacity="0.5"/>
<path d="M37.175 44.5673C37.5557 45.0123 38.1292 45.0992 38.5926 44.917C38.6113 44.9097 38.6298 44.902 38.648 44.8939C39.0143 44.7297 39.301 44.3927 39.3496 43.9301C39.4052 43.4095 39.0592 42.6565 38.1247 42.6077C38.1242 42.6077 38.1237 42.6077 38.1232 42.6077C36.9829 42.6658 36.5707 43.8593 37.175 44.5673Z" fill="#FF9FA5" fill-opacity="0.5"/>
<path d="M35.3184 40.4685C34.2134 40.5242 33.8266 41.6569 34.4106 42.3573C35.0807 43.1589 36.3804 42.772 36.4866 41.7404C36.5397 41.2372 36.2135 40.5115 35.3184 40.4685Z" fill="#FF9FA5" fill-opacity="0.5"/>
<path d="M35.3333 36.9995C34.2309 37.0526 33.8415 38.1702 34.4205 38.8579C35.0704 39.6291 36.3877 39.2423 36.4939 38.2485C36.547 37.758 36.2234 37.045 35.3333 36.9995Z" fill="#FF9FA5" fill-opacity="0.5"/>
<path d="M38.1304 34.8704C37.0204 34.9235 36.6335 36.0285 37.2176 36.7086C37.875 37.4723 39.1999 37.0904 39.3011 36.1068C39.3517 35.6188 39.0229 34.9134 38.1304 34.8704Z" fill="#FF9FA5" fill-opacity="0.5"/>
<path d="M41.594 35.629C41.2643 35.645 40.9996 35.7563 40.8065 35.9229C40.357 36.3106 40.2954 36.9973 40.704 37.4748C41.1677 38.019 41.9269 38.005 42.3823 37.6095C42.585 37.4335 42.7275 37.182 42.7571 36.8705C42.8077 36.38 42.4765 35.6695 41.594 35.629Z" fill="#FF9FA5" fill-opacity="0.5"/>
<path d="M46.2874 40.6076C46.9474 41.4092 48.2116 41.0223 48.3077 39.9881C48.3558 39.485 48.0296 38.7593 47.1623 38.7138C46.0801 38.7694 45.7109 39.9072 46.2874 40.6076Z" fill="#FF9FA5" fill-opacity="0.5"/>
<path d="M45.4908 44.1148C46.1457 44.9138 47.4201 44.527 47.5263 43.4953C47.5794 42.9896 47.2582 42.2564 46.3859 42.2108C45.3189 42.2639 44.9295 43.4271 45.4908 44.1148Z" fill="#FF9FA5" fill-opacity="0.5"/>
<path d="M45.2934 46.2817C45.349 45.7811 45.0304 45.0579 44.1455 45.0149C43.0658 45.068 42.6688 46.216 43.2352 46.8936C43.8926 47.68 45.1796 47.2982 45.2934 46.2817Z" fill="#FF9FA5" fill-opacity="0.5"/>
<path d="M39.9614 48.4184C40.6187 49.1828 41.8915 48.8267 42.0365 47.857C42.0387 47.842 42.0407 47.8268 42.0424 47.8115C42.098 47.3159 41.7744 46.5978 40.8793 46.5523C40.4161 46.5758 40.0773 46.792 39.8839 47.0847C39.8737 47.1001 39.8639 47.1156 39.8545 47.1314C39.8309 47.1713 39.8098 47.2124 39.7913 47.2545C39.6269 47.6299 39.672 48.0822 39.9614 48.4184Z" fill="#FF9FA5" fill-opacity="0.5"/>
<path d="M38.3962 47.814C38.4493 47.3184 38.1131 46.6003 37.2078 46.5548C36.1079 46.6079 35.716 47.7457 36.3001 48.4183C36.9752 49.2022 38.29 48.8229 38.3962 47.814Z" fill="#FF9FA5" fill-opacity="0.5"/>
<path d="M35.0628 46.2792C35.1109 45.7886 34.7847 45.0781 33.9047 45.0377C32.8428 45.0908 32.466 46.216 33.0324 46.881C33.6923 47.6547 34.9642 47.2805 35.0628 46.2792Z" fill="#FF9FA5" fill-opacity="0.5"/>
<path d="M32.7649 43.4902C32.8129 43.0047 32.4969 42.2993 31.6473 42.2563C30.6131 42.3094 30.244 43.4245 30.7901 44.0895C31.4298 44.8581 32.6663 44.4839 32.7649 43.4902Z" fill="#FF9FA5" fill-opacity="0.5"/>
<path d="M31.9654 39.9832C32.0185 39.5002 31.71 38.7998 30.8654 38.7568C29.8186 38.8099 29.4495 39.9048 29.9956 40.5774C30.6252 41.3562 31.8592 40.9819 31.9654 39.9832Z" fill="#FF9FA5" fill-opacity="0.5"/>
<path d="M30.8381 37.098C31.4348 37.8288 32.6662 37.4621 32.7724 36.5241C32.8255 36.0588 32.5297 35.3862 31.7028 35.3458C30.6788 35.3963 30.3071 36.4482 30.8381 37.098Z" fill="#FF9FA5" fill-opacity="0.5"/>
<path d="M33.0784 34.3824C33.6979 35.1258 34.9748 34.7566 35.086 33.8008C35.1417 33.3305 34.8332 32.6478 33.976 32.6048C32.914 32.6554 32.5271 33.725 33.0784 34.3824Z" fill="#FF9FA5" fill-opacity="0.5"/>
<path d="M36.3506 32.8754C36.9802 33.6061 38.2521 33.242 38.3532 32.3039C38.4038 31.8412 38.0877 31.1737 37.2306 31.1332C36.1736 31.1813 35.7969 32.2306 36.3506 32.8754Z" fill="#FF9FA5" fill-opacity="0.5"/>
<path d="M39.9867 32.8754C40.634 33.6188 41.873 33.2622 41.964 32.3039C42.007 31.8412 41.6884 31.1737 40.8439 31.1332C39.7844 31.1813 39.4253 32.2306 39.9867 32.8754Z" fill="#FF9FA5" fill-opacity="0.5"/>
<path d="M43.2152 34.3949C43.8827 35.1687 45.1394 34.797 45.2254 33.8007C45.2658 33.3203 44.9371 32.6224 44.0698 32.5795C43.0154 32.6326 42.6513 33.7401 43.2152 34.3949Z" fill="#FF9FA5" fill-opacity="0.5"/>
<path d="M47.4636 36.5292C47.5041 36.0462 47.1779 35.3458 46.3283 35.3028C45.2689 35.3559 44.9174 36.4508 45.4863 37.1259C46.1412 37.9021 47.3802 37.5279 47.4636 36.5292Z" fill="#FF9FA5" fill-opacity="0.5"/>
<path d="M52.1688 39.9832C52.2092 39.5002 51.9033 38.7998 51.0891 38.7568C50.0726 38.8099 49.7313 39.9048 50.2724 40.5774C50.8969 41.3511 52.0828 40.9794 52.1688 39.9832Z" fill="#FF9FA5" fill-opacity="0.5"/>
<path d="M51.6576 43.5584C51.7082 43.0704 51.4098 42.3649 50.5931 42.322C49.5867 42.3751 49.2201 43.4927 49.7486 44.1526C50.3605 44.9188 51.5565 44.5445 51.6576 43.5584Z" fill="#FF9FA5" fill-opacity="0.5"/>
<path d="M49.0536 45.5737C48.0523 45.6268 47.6756 46.714 48.1939 47.3588C48.7932 48.1047 49.9892 47.7406 50.103 46.7772C50.1586 46.3044 49.8703 45.6167 49.0536 45.5737Z" fill="#FF9FA5" fill-opacity="0.5"/>
<path d="M47.7011 49.3639C47.7618 48.8809 47.4634 48.183 46.6113 48.1401C45.5721 48.1932 45.1776 49.2981 45.7137 49.953C46.3357 50.7116 47.5797 50.3424 47.7011 49.3639Z" fill="#FF9FA5" fill-opacity="0.5"/>
<path d="M44.5785 51.1036C44.6341 50.6358 44.3383 49.9581 43.4938 49.9177C42.4621 49.9682 42.0727 51.0403 42.6113 51.6775C43.2333 52.4083 44.4647 52.0492 44.5785 51.1036Z" fill="#FF9FA5" fill-opacity="0.5"/>
<path d="M41.0712 51.8697C41.0915 51.6913 41.0584 51.4821 40.9616 51.2897C40.806 50.9801 40.4856 50.7138 39.9586 50.6888C39.0076 50.7348 38.6054 51.6197 38.955 52.2552C38.9902 52.3192 39.0331 52.3807 39.0837 52.4386C39.7209 53.1693 40.965 52.8128 41.0712 51.8697Z" fill="#FF9FA5" fill-opacity="0.5"/>
<path d="M37.4226 51.6119C37.4681 51.1542 37.1545 50.4917 36.31 50.4513C35.2885 50.5019 34.9294 51.5487 35.4756 52.1707C36.1077 52.8913 37.3265 52.5424 37.4226 51.6119Z" fill="#FF9FA5" fill-opacity="0.5"/>
<path d="M34.0268 50.3451C34.0698 49.8849 33.7537 49.2174 32.9218 49.1769C31.9129 49.2275 31.5665 50.2819 32.1102 50.9089C32.7423 51.6346 33.9408 51.2832 34.0268 50.3451Z" fill="#FF9FA5" fill-opacity="0.5"/>
<path d="M31.1848 48.1628C31.2253 47.6976 30.9118 47.02 30.0875 46.9795C29.0912 47.0301 28.7499 48.0996 29.2884 48.7343C29.9155 49.4701 31.1039 49.1136 31.1848 48.1628Z" fill="#FF9FA5" fill-opacity="0.5"/>
<path d="M29.1057 45.2272C29.1462 44.767 28.8503 44.102 28.0614 44.0616C27.1006 44.1096 26.7668 45.164 27.2827 45.7885C27.8769 46.5142 29.0223 46.1628 29.1057 45.2272Z" fill="#FF9FA5" fill-opacity="0.5"/>
<path d="M27.02 40.6076C26.049 40.6582 25.7102 41.705 26.2235 42.3523C26.8101 43.0907 27.9505 42.7341 28.0466 41.7809C28.0921 41.3182 27.8039 40.6481 27.02 40.6076Z" fill="#FF9FA5" fill-opacity="0.5"/>
<path d="M27.068 37.0348C26.0996 37.0853 25.7481 38.1144 26.2488 38.7491C26.8253 39.4799 27.9682 39.1284 28.0769 38.1878C28.125 37.7352 27.8468 37.0752 27.068 37.0348Z" fill="#FF9FA5" fill-opacity="0.5"/>
<path d="M27.3508 35.3584C27.902 36.0512 29.055 35.7048 29.1688 34.8148C29.2245 34.3723 28.9564 33.7326 28.1852 33.6921C27.2421 33.7402 26.8704 34.7566 27.3508 35.3584Z" fill="#FF9FA5" fill-opacity="0.5"/>
<path d="M30.2439 30.8374C29.2704 30.8854 28.9012 31.8791 29.3943 32.491C29.9506 33.1813 31.1238 32.8375 31.2401 31.9499C31.2983 31.5125 31.0277 30.8753 30.2439 30.8374Z" fill="#FF9FA5" fill-opacity="0.5"/>
<path d="M33.0552 28.7388C32.1045 28.7843 31.7328 29.7679 32.2157 30.3494C32.7745 31.022 33.9427 30.6883 34.054 29.821C34.1071 29.3937 33.834 28.7767 33.0552 28.7388Z" fill="#FF9FA5" fill-opacity="0.5"/>
<path d="M36.3726 27.515C35.3941 27.5605 35.0401 28.5213 35.5483 29.113C36.1248 29.7856 37.3006 29.4518 37.4017 28.5896C37.4472 28.1648 37.1615 27.5529 36.3726 27.515Z" fill="#FF9FA5" fill-opacity="0.5"/>
<path d="M39.9303 27.257C38.9593 27.3025 38.6104 28.2861 39.1237 28.8676C39.7153 29.5402 40.8962 29.2039 40.9796 28.3392C41.0226 27.9118 40.7217 27.2949 39.9303 27.257Z" fill="#FF9FA5" fill-opacity="0.5"/>
<path d="M43.3799 27.9977C42.4242 28.0432 42.0954 29.0319 42.6113 29.6185C43.2232 30.3113 44.3635 29.9776 44.4318 29.0875C44.4672 28.6577 44.1638 28.0357 43.3799 27.9977Z" fill="#FF9FA5" fill-opacity="0.5"/>
<path d="M46.4515 29.6465C45.473 29.6945 45.1493 30.7261 45.6828 31.3381C46.2998 32.0435 47.4806 31.692 47.5413 30.7843C47.5716 30.3368 47.253 29.6869 46.4515 29.6465Z" fill="#FF9FA5" fill-opacity="0.5"/>
<path d="M48.8997 32.1698C47.9262 32.2178 47.6202 33.2318 48.1537 33.8538C48.7682 34.5719 49.901 34.228 49.9616 33.3026C49.992 32.8576 49.681 32.2103 48.8997 32.1698Z" fill="#FF9FA5" fill-opacity="0.5"/>
<path d="M49.7258 37.0324C50.3453 37.7758 51.5034 37.4167 51.5742 36.4584C51.6071 35.9931 51.2986 35.3206 50.5021 35.2801C49.5059 35.3307 49.1847 36.3851 49.7258 37.0324Z" fill="#FF9FA5" fill-opacity="0.5"/>
<path d="M55.9266 39.978C55.9645 39.5153 55.6763 38.8452 54.9152 38.8023C53.9417 38.8528 53.6383 40.0084 54.2249 40.6253C54.8343 41.2676 55.8533 40.8807 55.9266 39.978Z" fill="#FF9FA5" fill-opacity="0.5"/>
<path d="M55.557 43.5761C55.605 43.1083 55.3294 42.4307 54.5633 42.3902C53.6303 42.4408 53.2839 43.5129 53.7744 44.1476C54.3433 44.8884 55.4584 44.5269 55.557 43.5761Z" fill="#FF9FA5" fill-opacity="0.5"/>
<path d="M54.3737 46.9543C54.4293 46.4991 54.1663 45.8392 53.4052 45.7987C52.4722 45.8468 52.1131 46.891 52.591 47.5105C53.1423 48.2286 54.2599 47.8797 54.3737 46.9543Z" fill="#FF9FA5" fill-opacity="0.5"/>
<path d="M52.482 49.9379C52.5427 49.4853 52.2823 48.8304 51.506 48.79C50.5578 48.838 50.1811 49.8747 50.6615 50.4891C51.2178 51.2022 52.3581 50.8558 52.482 49.9379Z" fill="#FF9FA5" fill-opacity="0.5"/>
<path d="M49.9664 52.3906C50.0296 51.943 49.7667 51.2983 48.9854 51.2578C48.027 51.3059 47.6478 52.3299 48.1307 52.9342C48.6895 53.6321 49.8375 53.2907 49.9664 52.3906Z" fill="#FF9FA5" fill-opacity="0.5"/>
<path d="M46.955 54.2085C47.0157 53.7736 46.7502 53.1415 45.9688 53.1035C45.0131 53.1516 44.6363 54.1503 45.1268 54.7395C45.6882 55.4197 46.8336 55.0859 46.955 54.2085Z" fill="#FF9FA5" fill-opacity="0.5"/>
<path d="M43.6329 55.3237C43.6885 54.8888 43.4078 54.2541 42.6088 54.2162C41.6303 54.2617 41.2611 55.2655 41.7668 55.8572C42.3509 56.5399 43.5191 56.2061 43.6329 55.3237Z" fill="#FF9FA5" fill-opacity="0.5"/>
<path d="M40.1004 55.7029C40.1485 55.268 39.8552 54.6384 39.0435 54.5979C38.0498 54.646 37.6907 55.6422 38.2192 56.2339C38.821 56.9115 39.9993 56.5803 40.1004 55.7029Z" fill="#FF9FA5" fill-opacity="0.5"/>
<path d="M36.5145 55.3236C36.5575 54.8938 36.254 54.2667 35.45 54.2288C34.479 54.2768 34.1452 55.2655 34.6686 55.8521C35.273 56.5297 36.4285 56.1985 36.5145 55.3236Z" fill="#FF9FA5" fill-opacity="0.5"/>
<path d="M33.1013 54.206C33.1367 53.7787 32.8358 53.1617 32.0571 53.1238C31.119 53.1693 30.8105 54.1478 31.3263 54.7269C31.9205 55.3969 33.0331 55.0708 33.1013 54.206Z" fill="#FF9FA5" fill-opacity="0.5"/>
<path d="M30.0947 52.3906C30.125 51.943 29.814 51.2983 29.0226 51.2578C28.0618 51.3059 27.7533 52.3299 28.2843 52.9342C28.8962 53.6321 30.0315 53.2907 30.0947 52.3906Z" fill="#FF9FA5" fill-opacity="0.5"/>
<path d="M27.5131 49.9354C27.5434 49.498 27.245 48.8633 26.484 48.8228C25.8651 48.8551 25.5274 49.3208 25.5272 49.803C25.527 50.0379 25.607 50.2768 25.7734 50.4714C26.3601 51.1617 27.4499 50.8254 27.5131 49.9354Z" fill="#FF9FA5" fill-opacity="0.5"/>
<path d="M25.5637 46.9492C25.5641 46.944 25.5644 46.9388 25.5647 46.9336C25.5898 46.4994 25.3046 45.8816 24.5751 45.8417C23.68 45.8897 23.3791 46.8885 23.8671 47.4827C23.8819 47.5008 23.8971 47.5182 23.9127 47.5349C24.4885 48.1549 25.4972 47.8134 25.5637 46.9492Z" fill="#FF9FA5" fill-opacity="0.5"/>
<path d="M24.3856 43.5711C24.395 43.4676 24.3873 43.3533 24.3608 43.2384C24.2727 42.8565 23.9771 42.4669 23.4096 42.4358C22.5094 42.4838 22.1908 43.5104 22.6713 44.1198C22.8942 44.4023 23.1989 44.5173 23.4899 44.4956C23.5181 44.4935 23.5463 44.4901 23.5741 44.4854C23.945 44.4235 24.2777 44.1387 24.3672 43.6972C24.3754 43.6565 24.3816 43.6144 24.3856 43.5711Z" fill="#FF9FA5" fill-opacity="0.5"/>
<path d="M24.006 39.9755C24.054 39.5305 23.7911 38.8882 23.0553 38.8478C22.1399 38.8958 21.8114 39.9021 22.2868 40.5216C22.8304 41.2321 23.9074 40.8908 24.006 39.9755Z" fill="#FF9FA5" fill-opacity="0.5"/>
<path d="M22.7392 36.9615C23.2525 37.6391 24.3398 37.3003 24.4485 36.428C24.5041 35.9956 24.2538 35.371 23.5281 35.3331C22.6254 35.3812 22.2815 36.3597 22.7392 36.9615Z" fill="#FF9FA5" fill-opacity="0.5"/>
<path d="M25.6721 33.1207C25.7302 32.7064 25.4956 32.1078 24.7893 32.0688L24.7882 32.0689L24.7872 32.0688C23.9224 32.1143 23.5633 33.0651 23.9932 33.6314C24.0764 33.7402 24.1758 33.8215 24.2841 33.8776C24.8204 34.1556 25.5754 33.815 25.6721 33.1207Z" fill="#FF9FA5" fill-opacity="0.5"/>
<path d="M26.7495 29.1509C25.8341 29.1964 25.4675 30.1471 25.9176 30.7337C26.4258 31.3962 27.5333 31.065 27.6623 30.2154C27.7229 29.7957 27.4827 29.1863 26.7495 29.1509Z" fill="#FF9FA5" fill-opacity="0.5"/>
<path d="M29.2881 26.7842C28.3677 26.8297 28.0011 27.7627 28.4537 28.3392C28.967 28.9916 30.0821 28.6654 30.206 27.8284C30.2666 27.4163 30.0239 26.8196 29.2881 26.7842Z" fill="#FF9FA5" fill-opacity="0.5"/>
<path d="M32.2665 25.0647C31.3714 25.1077 31.025 25.9978 31.4725 26.5465C31.9808 27.1685 33.063 26.86 33.1767 26.061C33.2298 25.6665 32.9846 25.0976 32.2665 25.0647Z" fill="#FF9FA5" fill-opacity="0.5"/>
<path d="M35.5611 23.9699C34.6559 24.0128 34.307 24.9282 34.7697 25.4718C35.3083 26.1014 36.4208 25.7904 36.522 24.9813C36.57 24.5818 36.3045 24.0027 35.5611 23.9699Z" fill="#FF9FA5" fill-opacity="0.5"/>
<path d="M39.0356 23.5982C38.1127 23.6412 37.7739 24.5641 38.2619 25.1103C38.8232 25.7424 39.9484 25.4263 40.0293 24.6147C40.0698 24.2126 39.7866 23.6336 39.0356 23.5982Z" fill="#FF9FA5" fill-opacity="0.5"/>
<path d="M42.4794 23.9573C41.5692 24.0002 41.2582 24.9257 41.7512 25.4769C42.3201 26.1116 43.4201 25.7955 43.4833 24.9788C43.5161 24.5767 43.2228 23.9927 42.4794 23.9573Z" fill="#FF9FA5" fill-opacity="0.5"/>
<path d="M45.7488 25.0445C44.8613 25.0875 44.5731 26.0104 45.0661 26.5591C45.6325 27.1912 46.7047 26.8777 46.7502 26.061C46.773 25.6589 46.4771 25.0774 45.7488 25.0445Z" fill="#FF9FA5" fill-opacity="0.5"/>
<path d="M48.71 26.774C47.8098 26.8195 47.5317 27.7778 48.0374 28.3442C48.6215 29.0016 49.7011 28.6729 49.7391 27.8284C49.7568 27.4137 49.4508 26.8119 48.71 26.774Z" fill="#FF9FA5" fill-opacity="0.5"/>
<path d="M51.2302 29.1079C50.2871 29.156 50.009 30.1471 50.5425 30.759C51.1417 31.4493 52.2518 31.1055 52.2922 30.2179C52.3099 29.7805 51.9939 29.1484 51.2302 29.1079Z" fill="#FF9FA5" fill-opacity="0.5"/>
<path d="M52.5729 33.73C53.1848 34.3318 54.1583 33.9702 54.2013 33.1257C54.2215 32.6933 53.9206 32.0662 53.1848 32.0283C52.2442 32.0764 51.9888 33.1535 52.5729 33.73Z" fill="#FF9FA5" fill-opacity="0.5"/>
<path d="M53.7926 37.0627C54.407 37.6873 55.4058 37.3105 55.4614 36.4331C55.4892 35.983 55.1934 35.3307 54.4399 35.2902C53.479 35.3408 53.2034 36.4635 53.7926 37.0627Z" fill="#FF9FA5" fill-opacity="0.5"/>
<path d="M57.9916 40.595C58.0626 40.6717 58.1395 40.733 58.2198 40.78C58.7824 41.1089 59.5119 40.7297 59.5694 39.973C59.5825 39.8081 59.5536 39.6163 59.4761 39.4379C59.3444 39.1348 59.072 38.8707 58.6262 38.8452C57.7236 38.8983 57.4454 40.0058 57.9916 40.595Z" fill="#FF9FA5" fill-opacity="0.5"/>
<path d="M58.3685 42.4459C57.4582 42.4965 57.1548 43.6116 57.6908 44.2032C58.2446 44.8152 59.2004 44.4435 59.2889 43.5838C59.3319 43.1337 59.079 42.4838 58.3685 42.4459Z" fill="#FF9FA5" fill-opacity="0.5"/>
<path d="M56.6751 47.5661C57.1729 48.2372 58.1776 47.9308 58.3232 47.0888C58.3263 47.0711 58.329 47.0532 58.3313 47.0351C58.3561 46.8411 58.322 46.6079 58.2143 46.4054C58.2127 46.4025 58.2111 46.3995 58.2095 46.3965C58.182 46.346 58.1499 46.2976 58.1129 46.2522C57.9685 46.0752 57.75 45.9452 57.4437 45.9276C57.0728 45.9482 56.7981 46.1438 56.64 46.4071C56.4294 46.7576 56.4253 47.2282 56.6751 47.5661Z" fill="#FF9FA5" fill-opacity="0.5"/>
<path d="M55.898 49.0984C55.0105 49.1464 54.6413 50.1502 55.0838 50.7444C55.5946 51.4322 56.6642 51.0984 56.7956 50.2084C56.8589 49.771 56.6237 49.1388 55.898 49.0984Z" fill="#FF9FA5" fill-opacity="0.5"/>
<path d="M54.6952 53.0076C54.7635 52.5777 54.5308 51.9557 53.8026 51.9178C52.9075 51.9658 52.5308 52.9494 52.9682 53.5335C53.4739 54.2086 54.5561 53.8774 54.6952 53.0076Z" fill="#FF9FA5" fill-opacity="0.5"/>
<path d="M50.3991 55.875C50.9074 56.5374 51.9972 56.2138 52.1388 55.3591C52.2096 54.9369 51.9744 54.3225 51.2411 54.2871C50.3384 54.33 49.9592 55.2985 50.3991 55.875Z" fill="#FF9FA5" fill-opacity="0.5"/>
<path d="M49.2404 57.2049C49.3087 56.7801 49.066 56.1606 48.3049 56.1227C47.3744 56.1682 46.99 57.1468 47.4528 57.7233C47.9812 58.3883 49.1014 58.0621 49.2404 57.2049Z" fill="#FF9FA5" fill-opacity="0.5"/>
<path d="M46.0067 58.4994C46.0674 58.0949 45.8221 57.5108 45.0863 57.4754C44.1862 57.5184 43.8271 58.4438 44.2823 58.9925C44.8082 59.6196 45.8854 59.3111 46.0067 58.4994Z" fill="#FF9FA5" fill-opacity="0.5"/>
<path d="M42.6386 59.2303C42.645 59.1815 42.6468 59.1302 42.6438 59.0775C42.6217 58.6901 42.3385 58.2298 41.6752 58.1986C40.977 58.2311 40.6087 58.7717 40.6778 59.2717C40.6787 59.2789 40.6798 59.286 40.6809 59.2932C40.706 59.4465 40.7727 59.5951 40.8838 59.7233C41.4325 60.3555 42.5324 60.047 42.6386 59.2303Z" fill="#FF9FA5" fill-opacity="0.5"/>
<path d="M38.1503 58.3478C37.2172 58.3908 36.8885 59.3187 37.3841 59.8699C37.953 60.5021 39.0605 60.1911 39.1516 59.3743C39.1971 58.9723 38.9164 58.3832 38.1503 58.3478Z" fill="#FF9FA5" fill-opacity="0.5"/>
<path d="M34.6388 57.9154C33.7311 57.9584 33.4302 58.8813 33.9257 59.4275C34.4972 60.0571 35.5743 59.7511 35.6451 58.9369C35.6805 58.5349 35.3923 57.9533 34.6388 57.9154Z" fill="#FF9FA5" fill-opacity="0.5"/>
<path d="M31.2885 56.9116C30.4137 56.9546 30.1381 57.8624 30.6261 58.4009C31.1899 59.023 32.2241 58.7195 32.2772 57.9155C32.305 57.521 32.0168 56.947 31.2885 56.9116Z" fill="#FF9FA5" fill-opacity="0.5"/>
<path d="M28.1831 55.3135C27.3057 55.3565 27.0402 56.287 27.5383 56.8382C28.1097 57.4754 29.1414 57.1619 29.1869 56.3426C29.2046 55.9381 28.9088 55.3489 28.1831 55.3135Z" fill="#FF9FA5" fill-opacity="0.5"/>
<path d="M25.4038 53.1946C24.5365 53.2376 24.2761 54.1833 24.7717 54.7446C25.3431 55.3919 26.3621 55.0759 26.4 54.2389C26.4203 53.8268 26.1244 53.23 25.4038 53.1946Z" fill="#FF9FA5" fill-opacity="0.5"/>
<path d="M24.0262 51.6573C24.0465 51.2426 23.7582 50.6408 23.0502 50.6029C22.1981 50.6484 21.9402 51.5992 22.4231 52.163C22.9819 52.8154 23.9858 52.4993 24.0262 51.6573Z" fill="#FF9FA5" fill-opacity="0.5"/>
<path d="M22.188 48.6635C22.2133 48.2312 21.9275 47.6041 21.212 47.5662C21.2114 47.5662 21.2108 47.5662 21.2103 47.5662C21.154 47.5693 21.1002 47.5763 21.049 47.5868C20.2736 47.7469 20.0866 48.7271 20.6152 49.2628C21.1993 49.8519 22.1399 49.4929 22.188 48.6635Z" fill="#FF9FA5" fill-opacity="0.5"/>
<path d="M20.871 45.331C20.8728 45.3059 20.8736 45.2801 20.8733 45.2538C20.8687 44.8404 20.6004 44.2998 19.9633 44.2665C19.096 44.3146 18.8381 45.3588 19.3665 45.9151C19.3876 45.9374 19.4093 45.9583 19.4314 45.9778C19.979 46.4613 20.8151 46.1087 20.871 45.331Z" fill="#FF9FA5" fill-opacity="0.5"/>
<path d="M18.7287 42.3699C18.762 42.4066 18.7967 42.4396 18.8326 42.4691C19.3699 42.91 20.1698 42.5485 20.2433 41.7782C20.2812 41.3807 20.0666 40.8193 19.4877 40.7178C19.448 40.7108 19.4066 40.706 19.3634 40.7036C18.5012 40.7491 18.2205 41.806 18.7287 42.3699Z" fill="#FF9FA5" fill-opacity="0.5"/>
<path d="M18.7671 38.7567C18.94 38.9499 19.1574 39.0394 19.3737 39.0426C19.4002 39.043 19.4268 39.0422 19.4532 39.0401C19.8541 39.007 20.2319 38.6815 20.2918 38.1752C20.3137 37.9943 20.2825 37.7783 20.1852 37.5887C20.0633 37.3511 19.8378 37.155 19.4835 37.1216C19.483 37.1216 19.4825 37.1215 19.4821 37.1215C19.468 37.1202 19.4537 37.1191 19.4392 37.1183L19.4387 37.1183C19.4382 37.1183 19.4377 37.1183 19.4372 37.1182C18.58 37.1663 18.274 38.2055 18.7671 38.7567Z" fill="#FF9FA5" fill-opacity="0.5"/>
<path d="M19.4268 35.1915C19.8845 35.8237 20.8833 35.5076 20.9996 34.6934C21.0577 34.2888 20.8403 33.7047 20.1778 33.6693C19.5905 33.7017 19.2532 34.1716 19.253 34.6432C19.253 34.7941 19.2874 34.9451 19.3591 35.082C19.3788 35.1197 19.4014 35.1563 19.4268 35.1915Z" fill="#FF9FA5" fill-opacity="0.5"/>
<path d="M22.37 31.4494C22.3766 31.4083 22.3803 31.3655 22.3811 31.3215L22.3811 31.3208C22.3813 31.3093 22.3814 31.2977 22.3812 31.2861C22.3737 30.8985 22.1341 30.4436 21.5381 30.4127C20.9362 30.4447 20.5802 30.9132 20.5652 31.387C20.559 31.5861 20.6129 31.7861 20.734 31.9551C21.1993 32.5973 22.2385 32.2762 22.37 31.4494Z" fill="#FF9FA5" fill-opacity="0.5"/>
<path d="M22.6532 29.0069C23.0982 29.6162 24.1071 29.3128 24.2411 28.529C24.3069 28.1421 24.1046 27.5808 23.4446 27.5454C22.633 27.5858 22.2689 28.4784 22.6532 29.0069Z" fill="#FF9FA5" fill-opacity="0.5"/>
<path d="M25.0202 26.4882C25.4653 27.09 26.4792 26.7917 26.6157 26.0204C26.6815 25.6412 26.4792 25.0899 25.8167 25.0571C25.0025 25.0975 24.6359 25.9699 25.0202 26.4882Z" fill="#FF9FA5" fill-opacity="0.5"/>
<path d="M27.7684 24.4427C28.2211 25.0344 29.2375 24.7411 29.369 23.98C29.4322 23.6083 29.2224 23.0671 28.5574 23.0343C27.7381 23.0747 27.3791 23.9345 27.7684 24.4427Z" fill="#FF9FA5" fill-opacity="0.5"/>
<path d="M30.8203 22.9054C31.2831 23.4819 32.2919 23.1962 32.4082 22.4578C32.4664 22.0937 32.2464 21.5678 31.5814 21.5349C30.7672 21.5728 30.4234 22.4098 30.8203 22.9054Z" fill="#FF9FA5" fill-opacity="0.5"/>
<path d="M34.0673 21.9269C34.5553 22.5059 35.5794 22.2176 35.678 21.4768C35.726 21.1127 35.4909 20.5867 34.8107 20.5539C33.9814 20.5918 33.6476 21.4287 34.0673 21.9269Z" fill="#FF9FA5" fill-opacity="0.5"/>
<path d="M37.4557 21.507C37.9715 22.0886 39.0107 21.8003 39.0917 21.0544C39.1321 20.6878 38.8742 20.1568 38.1814 20.1264C37.3116 20.1644 37.0006 20.9963 37.4557 21.507Z" fill="#FF9FA5" fill-opacity="0.5"/>
<path d="M40.8812 21.6488C41.4072 22.2278 42.4236 21.9396 42.4818 21.1962C42.5096 20.8296 42.2416 20.2961 41.5563 20.2657C40.7143 20.3036 40.4286 21.1482 40.8812 21.6488Z" fill="#FF9FA5" fill-opacity="0.5"/>
<path d="M44.206 22.3567C44.7421 22.9408 45.7383 22.6501 45.7737 21.8991C45.7914 21.5299 45.5133 20.9939 44.8331 20.9635C44.0063 21.0015 43.7458 21.851 44.206 22.3567Z" fill="#FF9FA5" fill-opacity="0.5"/>
<path d="M47.3244 23.6438C47.8908 24.2633 48.9199 23.9548 48.9427 23.1583C48.9528 22.7664 48.6519 22.2 47.9464 22.1646C47.0918 22.2076 46.8364 23.1077 47.3244 23.6438Z" fill="#FF9FA5" fill-opacity="0.5"/>
<path d="M50.8261 23.9547C49.9538 23.9977 49.7464 24.9712 50.3053 25.487C50.8818 26.0205 51.792 25.6894 51.8047 24.9435C51.8123 24.5515 51.5114 23.9901 50.8261 23.9547Z" fill="#FF9FA5" fill-opacity="0.5"/>
<path d="M54.3686 27.2216C54.3736 26.8196 54.0702 26.238 53.3799 26.2026C52.5 26.2481 52.2952 27.2494 52.8616 27.7829C53.4583 28.3443 54.3585 28.008 54.3686 27.2216Z" fill="#FF9FA5" fill-opacity="0.5"/>
<path d="M55.5191 28.8727C54.6113 28.9208 54.3939 29.9777 54.9754 30.539C55.5873 31.1307 56.5178 30.7742 56.5355 29.9473C56.5356 29.9425 56.5357 29.9376 56.5357 29.9328C56.5357 29.9322 56.5357 29.9317 56.5357 29.9311C56.5356 29.8829 56.5316 29.8324 56.5234 29.7808C56.4594 29.3799 56.1448 28.9059 55.5191 28.8727Z" fill="#FF9FA5" fill-opacity="0.5"/>
<path d="M57.1626 31.9878C57.162 31.9879 57.1614 31.9879 57.1609 31.9879C56.295 32.0347 56.0731 33.0653 56.6215 33.6162C56.835 33.8306 57.0929 33.9174 57.3341 33.9001C57.7413 33.871 58.1009 33.5453 58.1184 33.0372C58.131 32.6225 57.8427 32.0258 57.1626 31.9878Z" fill="#FF9FA5" fill-opacity="0.5"/>
<path d="M58.2145 35.323C57.6431 35.3538 57.3363 35.8089 57.3359 36.282C57.3356 36.5458 57.4306 36.8151 57.6279 37.0196C58.2044 37.6189 59.1273 37.2573 59.1703 36.4153C59.1956 35.9855 58.9124 35.3609 58.2145 35.323Z" fill="#FF9FA5" fill-opacity="0.5"/>
<path d="M63.092 39.9704C63.1224 39.5457 62.8721 38.9287 62.2172 38.8933C61.3827 38.9413 61.1324 40.0008 61.6356 40.5647C62.1641 41.1513 63.0339 40.7973 63.092 39.9704Z" fill="#FF9FA5" fill-opacity="0.5"/>
<path d="M61.3907 44.178C61.9015 44.7621 62.7839 44.4081 62.8648 43.5838C62.9078 43.154 62.6727 42.5319 62.0203 42.4965C61.1783 42.5446 60.8976 43.6116 61.3907 44.178Z" fill="#FF9FA5" fill-opacity="0.5"/>
<path d="M62.0655 47.0781C62.1186 46.6609 61.9011 46.0592 61.2513 46.0212C60.4168 46.0693 60.1109 47.1034 60.5863 47.6547C61.0768 48.2236 61.9618 47.8772 62.0655 47.0781Z" fill="#FF9FA5" fill-opacity="0.5"/>
<path d="M60.768 50.3577C60.8337 49.9329 60.6239 49.321 59.9488 49.2831C59.1194 49.3286 58.7654 50.2995 59.1674 50.8735C59.6327 51.5411 60.634 51.2174 60.768 50.3577Z" fill="#FF9FA5" fill-opacity="0.5"/>
<path d="M58.1536 52.2971C57.3192 52.3426 56.9475 53.2933 57.3445 53.8572C57.8021 54.507 58.8136 54.1884 58.9602 53.3489C59.0335 52.9343 58.8313 52.3325 58.1536 52.2971Z" fill="#FF9FA5" fill-opacity="0.5"/>
<path d="M55.9338 54.9545C55.0842 54.9975 54.6998 55.9432 55.0993 56.5045C55.5595 57.1493 56.5937 56.8332 56.7479 56.0013C56.8263 55.5867 56.624 54.9899 55.9338 54.9545Z" fill="#FF9FA5" fill-opacity="0.5"/>
<path d="M53.3517 57.2756C52.5349 57.3161 52.1658 58.2061 52.5501 58.7295C52.9926 59.3338 53.9863 59.038 54.138 58.2567C54.2114 57.8723 54.0167 57.311 53.3517 57.2756Z" fill="#FF9FA5" fill-opacity="0.5"/>
<path d="M50.4873 59.1038C49.6327 59.1468 49.2559 60.0495 49.663 60.583C50.1308 61.1949 51.1649 60.894 51.3141 60.1026C51.39 59.7107 51.1826 59.1392 50.4873 59.1038Z" fill="#FF9FA5" fill-opacity="0.5"/>
<path d="M47.3926 60.5452C46.5607 60.5856 46.2067 61.4453 46.6138 61.9586C47.0816 62.5427 48.0854 62.2545 48.2169 61.4984C48.2827 61.1242 48.0728 60.5806 47.3926 60.5452Z" fill="#FF9FA5" fill-opacity="0.5"/>
<path d="M44.1331 61.4832C43.2683 61.5236 42.9953 62.3555 43.3189 62.8334C43.7715 63.5035 44.8714 63.2456 44.9979 62.439C45.056 62.0622 44.8285 61.5161 44.1331 61.4832Z" fill="#FF9FA5" fill-opacity="0.5"/>
<path d="M40.752 61.9586C39.9327 61.9965 39.5889 62.7803 39.9631 63.3012C40.4435 63.9662 41.5485 63.7083 41.6547 62.9093C41.7027 62.5351 41.4549 61.994 40.752 61.9586Z" fill="#FF9FA5" fill-opacity="0.5"/>
<path d="M37.3011 61.9586C36.4363 61.999 36.138 62.8587 36.6007 63.367C37.1342 63.9511 38.1633 63.6653 38.2417 62.9093C38.2822 62.5351 38.0167 61.994 37.3011 61.9586Z" fill="#FF9FA5" fill-opacity="0.5"/>
<path d="M33.8905 61.4934C33.0485 61.5338 32.7805 62.3885 33.2483 62.8942C33.7843 63.4757 34.7806 63.19 34.8362 62.439C34.8665 62.0673 34.5909 61.5262 33.8905 61.4934Z" fill="#FF9FA5" fill-opacity="0.5"/>
<path d="M30.6058 60.5553C29.784 60.5957 29.5413 61.4479 30.009 61.951C30.5476 62.5301 31.511 62.2443 31.5489 61.4984C31.5691 61.1267 31.2885 60.5882 30.6058 60.5553Z" fill="#FF9FA5" fill-opacity="0.5"/>
<path d="M27.4954 59.1367C26.6736 59.1772 26.4435 60.0495 26.9214 60.5679C27.4701 61.1621 28.4309 60.8713 28.4562 60.1026C28.4689 59.7208 28.1781 59.1696 27.4954 59.1367Z" fill="#FF9FA5" fill-opacity="0.5"/>
<path d="M24.6131 57.3087C23.8267 57.3492 23.6168 58.2038 24.077 58.712C24.608 59.2961 25.5256 59.0103 25.5408 58.2568C25.5484 57.8826 25.2654 57.3416 24.6131 57.3087Z" fill="#FF9FA5" fill-opacity="0.5"/>
<path d="M22.0185 54.9975C21.1689 55.043 20.9793 56.0215 21.5305 56.5424C22.0969 57.0784 22.9591 56.7497 22.9718 55.9962C22.9819 55.6043 22.6911 55.0329 22.0185 54.9975Z" fill="#FF9FA5" fill-opacity="0.5"/>
<path d="M19.7885 52.34C18.9566 52.3855 18.7619 53.3717 19.2979 53.8951C19.8517 54.4362 20.7013 54.1075 20.719 53.3464C20.7316 52.9494 20.4484 52.3754 19.7885 52.34Z" fill="#FF9FA5" fill-opacity="0.5"/>
<path d="M18.8986 50.3526C18.9138 49.948 18.6407 49.3639 17.9858 49.3285C17.1565 49.374 16.9491 50.3778 17.4751 50.9139C18.0187 51.4651 18.8708 51.1313 18.8986 50.3526Z" fill="#FF9FA5" fill-opacity="0.5"/>
<path d="M17.5203 47.0706C17.5431 46.6786 17.2953 46.1097 16.6758 46.0743C15.8894 46.1198 15.6692 47.0958 16.1572 47.6141C16.6629 48.1527 17.4773 47.8266 17.5203 47.0706Z" fill="#FF9FA5" fill-opacity="0.5"/>
<path d="M16.7309 43.5787C16.7638 43.1741 16.5287 42.5875 15.9041 42.5521C15.1076 42.5976 14.8624 43.604 15.3403 44.14C15.8384 44.6912 16.6677 44.3575 16.7309 43.5787Z" fill="#FF9FA5" fill-opacity="0.5"/>
<path d="M15.0977 40.5242C15.5781 41.0805 16.415 40.7442 16.4985 39.9654C16.5415 39.5659 16.324 38.9843 15.7045 38.9489C14.9131 38.9919 14.6375 39.9932 15.0977 40.5242Z" fill="#FF9FA5" fill-opacity="0.5"/>
<path d="M16.8328 36.4028C16.8859 36.0134 16.6862 35.4495 16.0768 35.4166C15.2955 35.4596 14.9971 36.4306 15.4371 36.9464C15.8973 37.485 16.7317 37.1588 16.8328 36.4028Z" fill="#FF9FA5" fill-opacity="0.5"/>
<path d="M16.289 33.4468C16.7012 34.0511 17.6014 33.7604 17.7253 32.9816C17.7859 32.6048 17.6014 32.0612 17.0021 32.0283C16.2663 32.0688 15.9376 32.9335 16.289 33.4468Z" fill="#FF9FA5" fill-opacity="0.5"/>
<path d="M17.6792 30.2559C18.0812 30.8501 19.0218 30.5517 19.1609 29.7881C19.2292 29.4114 19.0522 28.8652 18.4403 28.8323C17.6842 28.8728 17.3328 29.7401 17.6792 30.2559Z" fill="#FF9FA5" fill-opacity="0.5"/>
<path d="M19.5454 27.3355C19.9398 27.917 20.8855 27.6263 21.0347 26.8803C21.108 26.5112 20.9361 25.9777 20.3242 25.9448C19.5707 25.9852 19.204 26.8323 19.5454 27.3355Z" fill="#FF9FA5" fill-opacity="0.5"/>
<path d="M21.7964 24.7637C22.1959 25.3402 23.1567 25.0545 23.3084 24.3111C23.3843 23.947 23.2123 23.416 22.5903 23.3832C21.8267 23.4236 21.455 24.2656 21.7964 24.7637Z" fill="#FF9FA5" fill-opacity="0.5"/>
<path d="M24.4003 22.5462C24.7897 23.0924 25.7202 22.8218 25.8643 22.1189C25.9351 21.775 25.7657 21.2744 25.1639 21.244C24.4231 21.282 24.0666 22.0759 24.4003 22.5462Z" fill="#FF9FA5" fill-opacity="0.5"/>
<path d="M27.2175 20.7738C27.6271 21.325 28.5829 21.0519 28.7195 20.3439C28.7877 19.9975 28.6031 19.4943 27.9862 19.4615C27.2226 19.5019 26.866 20.3009 27.2175 20.7738Z" fill="#FF9FA5" fill-opacity="0.5"/>
<path d="M30.2645 19.411C30.6792 19.942 31.6122 19.679 31.7336 18.9988C31.7917 18.6651 31.5996 18.1796 30.9902 18.1518C30.2392 18.1846 29.908 18.9533 30.2645 19.411Z" fill="#FF9FA5" fill-opacity="0.5"/>
<path d="M33.4273 18.5083C33.8673 19.0418 34.8155 18.7788 34.9166 18.0936C34.9672 17.7598 34.7572 17.2743 34.1301 17.2465C33.369 17.2819 33.0506 18.0506 33.4273 18.5083Z" fill="#FF9FA5" fill-opacity="0.5"/>
<path d="M36.6967 18.0581C37.167 18.5942 38.1304 18.3312 38.2113 17.6409C38.2518 17.3046 38.0191 16.8166 37.3769 16.7863C36.5931 16.8242 36.2947 17.6005 36.6967 18.0581Z" fill="#FF9FA5" fill-opacity="0.5"/>
<path d="M40.0242 18.0581C40.5097 18.5916 41.4528 18.3287 41.5085 17.6409C41.5363 17.3046 41.2885 16.8166 40.6538 16.7863C39.8776 16.8242 39.607 17.6005 40.0242 18.0581Z" fill="#FF9FA5" fill-opacity="0.5"/>
<path d="M43.2916 18.5133C43.7897 19.0493 44.7101 18.7813 44.743 18.0961C44.7581 17.7572 44.4977 17.2692 43.8706 17.2389C43.1045 17.2743 42.8643 18.0531 43.2916 18.5133Z" fill="#FF9FA5" fill-opacity="0.5"/>
<path d="M46.4622 19.416C46.9629 19.9521 47.858 19.6866 47.8681 18.9988C47.8757 18.66 47.6051 18.172 46.9907 18.1416C46.2448 18.177 46.0324 18.9558 46.4622 19.416Z" fill="#FF9FA5" fill-opacity="0.5"/>
<path d="M49.5163 20.8522C50.0676 21.3453 50.9121 21.0393 50.9096 20.349C50.907 19.99 50.6163 19.4691 49.9765 19.4362C49.1598 19.4767 48.9828 20.3743 49.5163 20.8522Z" fill="#FF9FA5" fill-opacity="0.5"/>
<path d="M52.3612 22.6172C52.8972 23.1027 53.7038 22.8018 53.6937 22.1216C53.6861 21.7676 53.4004 21.2568 52.7809 21.2265C51.9996 21.267 51.8428 22.1494 52.3612 22.6172Z" fill="#FF9FA5" fill-opacity="0.5"/>
<path d="M54.9121 24.8448C55.4734 25.3632 56.3154 25.042 56.3002 24.3163C56.2927 23.9371 55.9892 23.3884 55.3444 23.3555C54.5252 23.3985 54.3659 24.3416 54.9121 24.8448Z" fill="#FF9FA5" fill-opacity="0.5"/>
<path d="M57.1626 27.4264C57.7189 27.9549 58.5634 27.6262 58.5508 26.8853C58.5432 26.4984 58.2448 25.9396 57.6001 25.9042C56.7859 25.9472 56.6241 26.9131 57.1626 27.4264Z" fill="#FF9FA5" fill-opacity="0.5"/>
<path d="M60.4164 29.7932C60.4164 29.3988 60.1231 28.8248 59.4783 28.7894C58.6642 28.8349 58.4897 29.821 59.0232 30.347C59.5871 30.9007 60.419 30.5695 60.4164 29.7932Z" fill="#FF9FA5" fill-opacity="0.5"/>
<path d="M60.4343 33.548C60.9779 34.1043 61.8073 33.7705 61.8199 32.9892C61.8275 32.5897 61.5519 32.0106 60.9147 31.9752C60.1056 32.0207 59.9159 33.017 60.4343 33.548Z" fill="#FF9FA5" fill-opacity="0.5"/>
<path d="M61.3145 36.9842C61.8505 37.5557 62.7001 37.2118 62.733 36.4077C62.7507 35.9956 62.4853 35.3962 61.8405 35.3608C61.0212 35.4064 60.8012 36.4356 61.3145 36.9842Z" fill="#FF9FA5" fill-opacity="0.5"/>
<path d="M65.1477 40.5318C65.6307 41.0956 66.4272 40.7543 66.4777 39.9654C66.5056 39.5583 66.2729 38.9717 65.6737 38.9363C64.91 38.9818 64.6825 39.9932 65.1477 40.5318Z" fill="#FF9FA5" fill-opacity="0.5"/>
<path d="M65.522 42.5444C64.7533 42.59 64.4928 43.6089 64.9429 44.1501C65.4107 44.7114 66.2198 44.3726 66.2957 43.5837C66.3361 43.174 66.1212 42.5798 65.522 42.5444Z" fill="#FF9FA5" fill-opacity="0.5"/>
<path d="M64.8666 46.092C64.103 46.1376 63.8122 47.1237 64.2421 47.6521C64.6871 48.1958 65.5013 47.8645 65.6024 47.1009C65.6555 46.7014 65.4608 46.1274 64.8666 46.092Z" fill="#FF9FA5" fill-opacity="0.5"/>
<path d="M63.7317 49.4626C62.9731 49.5056 62.6596 50.4639 63.0742 50.9721C63.5016 51.4955 64.3132 51.1795 64.4346 50.4386C64.4978 50.0568 64.3208 49.498 63.7317 49.4626Z" fill="#FF9FA5" fill-opacity="0.5"/>
<path d="M62.1562 52.5702C61.4102 52.6106 61.0588 53.4981 61.4027 54.0241C61.7996 54.6309 62.7124 54.3351 62.8591 53.5512C62.935 53.1669 62.7655 52.6056 62.1562 52.5702Z" fill="#FF9FA5" fill-opacity="0.5"/>
<path d="M60.1889 55.4274C59.4354 55.4678 59.0713 56.3376 59.4102 56.8509C59.8021 57.4426 60.7225 57.1518 60.8818 56.3882C60.9627 56.0089 60.7983 55.4602 60.1889 55.4274Z" fill="#FF9FA5" fill-opacity="0.5"/>
<path d="M57.8887 57.9584C57.1226 57.9988 56.7483 58.861 57.0897 59.3718C57.4816 59.9584 58.4222 59.6702 58.5891 58.9116C58.6725 58.5349 58.5082 57.9912 57.8887 57.9584Z" fill="#FF9FA5" fill-opacity="0.5"/>
<path d="M55.3042 60.1709C54.5405 60.2113 54.1688 61.0458 54.5102 61.5388C54.9021 62.1052 55.8351 61.8271 56.002 61.0938C56.0829 60.7297 55.9211 60.2038 55.3042 60.1709Z" fill="#FF9FA5" fill-opacity="0.5"/>
<path d="M52.4976 62.0092C51.7289 62.0471 51.3648 62.8689 51.7137 63.3544C52.1132 63.9107 53.0513 63.6376 53.2106 62.9195C53.2865 62.5604 53.1196 62.0421 52.4976 62.0092Z" fill="#FF9FA5" fill-opacity="0.5"/>
<path d="M49.5141 63.453C48.7227 63.4909 48.3586 64.3177 48.7303 64.8083C49.1525 65.3671 50.1134 65.0915 50.2651 64.3683C50.3409 64.0093 50.1564 63.4859 49.5141 63.453Z" fill="#FF9FA5" fill-opacity="0.5"/>
<path d="M46.3885 64.5604C45.635 64.5958 45.3037 65.3089 45.6147 65.7944C46.0066 66.4063 47.0079 66.1686 47.1445 65.4353C47.2102 65.0889 47.0181 64.5908 46.3885 64.5604Z" fill="#FF9FA5" fill-opacity="0.5"/>
<path d="M43.1651 65.2405C42.361 65.2784 42.1082 66.0395 42.4091 66.4769C42.8288 67.0863 43.8478 66.8512 43.9667 66.1179C44.0223 65.7715 43.8099 65.2708 43.1651 65.2405Z" fill="#FF9FA5" fill-opacity="0.5"/>
<path d="M39.8602 65.5338C39.8595 65.5339 39.8588 65.5339 39.8581 65.5339C39.0985 65.5705 38.7859 66.2878 39.137 66.7678C39.4308 67.166 39.9728 67.2016 40.3379 66.9724C40.5291 66.8524 40.6717 66.6598 40.7047 66.4087C40.7477 66.0648 40.5151 65.5642 39.8602 65.5338Z" fill="#FF9FA5" fill-opacity="0.5"/>
<path d="M36.5101 65.4454C35.7085 65.4808 35.4506 66.252 35.888 66.7249C36.3786 67.2559 37.3116 66.9954 37.3774 66.3102C37.4128 65.9688 37.165 65.4758 36.5101 65.4454Z" fill="#FF9FA5" fill-opacity="0.5"/>
<path d="M33.2148 64.9548C32.4411 64.9927 32.2059 65.7766 32.6434 66.2418C33.144 66.7728 34.0543 66.5124 34.0973 65.8246C34.12 65.4807 33.8596 64.9851 33.2148 64.9548Z" fill="#FF9FA5" fill-opacity="0.5"/>
<path d="M30.0163 64.08C29.2603 64.1154 29.0555 64.8992 29.4954 65.3645C30.0011 65.8955 30.8836 65.635 30.9038 64.9473C30.9139 64.6059 30.6459 64.1103 30.0163 64.08Z" fill="#FF9FA5" fill-opacity="0.5"/>
<path d="M26.9388 62.7905C26.1727 62.8284 25.9805 63.6426 26.4407 64.123C26.9667 64.6742 27.8567 64.4037 27.8592 63.6881C27.8618 63.3341 27.5786 62.8208 26.9388 62.7905Z" fill="#FF9FA5" fill-opacity="0.5"/>
<path d="M24.0258 61.1647C23.2596 61.2052 23.113 62.0699 23.6262 62.5301C24.1522 63.0004 24.9234 62.7122 24.9183 62.0472C24.9133 61.7008 24.6351 61.1976 24.0258 61.1647Z" fill="#FF9FA5" fill-opacity="0.5"/>
<path d="M21.3106 59.1443C20.5495 59.1848 20.4104 60.0647 20.9237 60.535C21.4497 61.0154 22.2159 60.7222 22.2058 60.0445C22.1982 59.6905 21.9174 59.1772 21.3106 59.1443Z" fill="#FF9FA5" fill-opacity="0.5"/>
<path d="M18.8508 56.7699C18.0947 56.8104 17.9531 57.7105 18.4639 58.1884C18.9848 58.6789 19.7459 58.3806 19.7357 57.6878C19.7307 57.3262 19.4526 56.8028 18.8508 56.7699Z" fill="#FF9FA5" fill-opacity="0.5"/>
<path d="M16.7013 54.0796C15.9579 54.1201 15.8112 55.0278 16.3068 55.5108C16.8151 56.0064 17.566 55.7055 17.5635 55.0076C17.561 54.6384 17.2904 54.11 16.7013 54.0796Z" fill="#FF9FA5" fill-opacity="0.5"/>
<path d="M14.9163 51.0607C14.1552 51.1037 13.9909 52.0519 14.4865 52.5551C14.9972 53.0734 15.7684 52.7573 15.776 52.0266C15.7811 51.6473 15.5156 51.0936 14.9163 51.0607Z" fill="#FF9FA5" fill-opacity="0.5"/>
<path d="M13.5533 47.8519C12.8327 47.8949 12.6532 48.8127 13.1108 49.3033C13.5837 49.809 14.322 49.5005 14.3447 48.79C14.3574 48.4208 14.1197 47.8848 13.5533 47.8519Z" fill="#FF9FA5" fill-opacity="0.5"/>
<path d="M13.4212 45.3536C13.4439 44.9718 13.2189 44.4206 12.6475 44.3877C11.9192 44.4307 11.7094 45.3789 12.1595 45.8821C12.6247 46.403 13.3782 46.0869 13.4212 45.3536Z" fill="#FF9FA5" fill-opacity="0.5"/>
<path d="M12.9788 41.7683C13.0142 41.3839 12.8069 40.8251 12.2405 40.7923C11.5173 40.8352 11.2796 41.7935 11.707 42.3068C12.152 42.8378 12.9131 42.5167 12.9788 41.7683Z" fill="#FF9FA5" fill-opacity="0.5"/>
<path d="M13.0471 38.1652C13.0926 37.7859 12.9055 37.2397 12.3416 37.2069C11.6185 37.2499 11.3505 38.193 11.7601 38.6936C12.1874 39.2196 12.9561 38.901 13.0471 38.1652Z" fill="#FF9FA5" fill-opacity="0.5"/>
<path d="M13.6057 34.653C13.6613 34.2863 13.4919 33.7554 12.9382 33.7225C12.2226 33.7629 11.9293 34.6783 12.3187 35.1637C12.7283 35.6745 13.497 35.3686 13.6057 34.653Z" fill="#FF9FA5" fill-opacity="0.5"/>
<path d="M14.6428 31.2951C14.7086 30.9411 14.5543 30.4278 14.0107 30.3974C13.3078 30.4379 12.9942 31.3203 13.3634 31.7906C13.7503 32.2862 14.5164 31.9904 14.6428 31.2951Z" fill="#FF9FA5" fill-opacity="0.5"/>
<path d="M16.1426 28.152C16.2159 27.7955 16.0718 27.2822 15.513 27.2493C14.8227 27.2872 14.4763 28.1039 14.7772 28.5894C15.1261 29.1482 15.9934 28.8701 16.1426 28.152Z" fill="#FF9FA5" fill-opacity="0.5"/>
<path d="M17.9908 25.2594C18.0692 24.9206 17.9327 24.43 17.389 24.4022C16.7164 24.4376 16.365 25.2164 16.6507 25.6766C16.9845 26.2101 17.834 25.9446 17.9908 25.2594Z" fill="#FF9FA5" fill-opacity="0.5"/>
<path d="M20.2233 22.6677C20.3068 22.3213 20.1677 21.8181 19.5962 21.7878C18.8883 21.8257 18.5115 22.6222 18.8098 23.095C19.1562 23.6437 20.0539 23.3706 20.2233 22.6677Z" fill="#FF9FA5" fill-opacity="0.5"/>
<path d="M22.6629 20.3895C22.7413 20.0634 22.6073 19.5905 22.0535 19.5627C21.3582 19.5981 21.0042 20.3364 21.2975 20.7941C21.6338 21.3124 22.5011 21.0545 22.6629 20.3895Z" fill="#FF9FA5" fill-opacity="0.5"/>
<path d="M25.3339 18.4601C25.4098 18.1441 25.2682 17.6889 24.722 17.6611C24.0469 17.694 23.6954 18.4197 23.9862 18.8495C24.3251 19.3502 25.1822 19.1024 25.3339 18.4601Z" fill="#FF9FA5" fill-opacity="0.5"/>
<path d="M28.2008 16.8875C28.2716 16.5689 28.1174 16.1087 27.5535 16.0809C26.8557 16.1163 26.5092 16.847 26.8177 17.2794C27.1768 17.7851 28.0567 17.5373 28.2008 16.8875Z" fill="#FF9FA5" fill-opacity="0.5"/>
<path d="M31.1947 15.6813C31.2579 15.3602 31.086 14.8974 30.5019 14.8696C29.7838 14.905 29.4475 15.6408 29.7762 16.0808C30.1631 16.5915 31.0632 16.3387 31.1947 15.6813Z" fill="#FF9FA5" fill-opacity="0.5"/>
<path d="M34.2362 14.8418C34.2868 14.5359 34.1022 14.0934 33.5333 14.0681C32.8379 14.101 32.5345 14.8039 32.8708 15.2211C33.2652 15.7091 34.1325 15.4689 34.2362 14.8418Z" fill="#FF9FA5" fill-opacity="0.5"/>
<path d="M37.387 14.3766C37.4274 14.0732 37.2226 13.6333 36.6461 13.608C35.9432 13.6408 35.6626 14.3388 36.0217 14.751C36.4389 15.2364 37.3061 14.9987 37.387 14.3766Z" fill="#FF9FA5" fill-opacity="0.5"/>
<path d="M40.5779 14.2856C40.6057 13.9796 40.3807 13.5346 39.7991 13.5093C39.0861 13.5422 38.8332 14.2476 39.2125 14.6648C39.655 15.1503 40.5223 14.9101 40.5779 14.2856Z" fill="#FF9FA5" fill-opacity="0.5"/>
<path d="M43.7112 14.5637C43.7239 14.2552 43.4862 13.8102 42.9097 13.7849C42.2093 13.8177 41.9893 14.5257 42.3787 14.9455C42.8389 15.436 43.6834 15.1933 43.7112 14.5637Z" fill="#FF9FA5" fill-opacity="0.5"/>
<path d="M46.7757 15.216C46.7783 14.9101 46.528 14.4651 45.9641 14.4372C45.2763 14.4701 45.0892 15.1756 45.4887 15.5953C45.954 16.0808 46.7707 15.8406 46.7757 15.216Z" fill="#FF9FA5" fill-opacity="0.5"/>
<path d="M48.5351 16.6979C49.0484 17.1505 49.8221 16.8698 49.807 16.2402C49.7994 15.9141 49.5238 15.4412 48.9346 15.4109C48.9119 15.4109 48.879 15.4134 48.8562 15.4134C48.214 15.4792 48.0218 16.2478 48.5351 16.6979Z" fill="#FF9FA5" fill-opacity="0.5"/>
<path d="M51.4557 18.086C51.964 18.531 52.7073 18.2554 52.6795 17.6309C52.6644 17.3072 52.3862 16.8369 51.8148 16.8066C51.792 16.8091 51.7617 16.8091 51.7389 16.8116C51.1144 16.8748 50.945 17.6359 51.4557 18.086Z" fill="#FF9FA5" fill-opacity="0.5"/>
<path d="M55.4583 19.3856C55.4381 19.0417 55.1422 18.5461 54.5506 18.5157C53.8021 18.5537 53.6883 19.4134 54.2016 19.8685C54.7352 20.3413 55.4988 20.048 55.4583 19.3856Z" fill="#FF9FA5" fill-opacity="0.5"/>
<path d="M58.0068 21.4869C57.9866 21.143 57.6958 20.6474 57.1168 20.6171C56.3886 20.655 56.2824 21.5122 56.7856 21.9673C57.3064 22.4402 58.0473 22.1468 58.0068 21.4869Z" fill="#FF9FA5" fill-opacity="0.5"/>
<path d="M60.3335 23.927C60.3133 23.5755 60.0251 23.0673 59.4486 23.037C58.7229 23.0749 58.6141 23.9523 59.1148 24.4201C59.6331 24.9005 60.3715 24.5996 60.3335 23.927Z" fill="#FF9FA5" fill-opacity="0.5"/>
<path d="M62.3967 26.678C62.379 26.3037 62.0882 25.7652 61.4889 25.7323C60.7354 25.7753 60.6116 26.7058 61.1274 27.2014C61.6685 27.7197 62.427 27.4087 62.3967 26.678Z" fill="#FF9FA5" fill-opacity="0.5"/>
<path d="M64.0352 29.697C64.0276 29.3329 63.7596 28.807 63.1881 28.7766C62.4725 28.8171 62.3359 29.7247 62.8163 30.2077C63.3245 30.7134 64.0529 30.4101 64.0352 29.697Z" fill="#FF9FA5" fill-opacity="0.5"/>
<path d="M64.0602 33.4897C64.5659 34.0207 65.3194 33.7021 65.3219 32.9562C65.3219 32.5744 65.0615 32.0232 64.4774 31.9903C63.7416 32.0333 63.5772 32.984 64.0602 33.4897Z" fill="#FF9FA5" fill-opacity="0.5"/>
<path d="M64.8498 36.9489C65.3454 37.495 66.1217 37.1663 66.1445 36.3976C66.1571 36.0032 65.9093 35.4317 65.3176 35.3989C64.5667 35.4444 64.3745 36.4255 64.8498 36.9489Z" fill="#FF9FA5" fill-opacity="0.5"/>
<path fill-rule="evenodd" clip-rule="evenodd" d="M40.3379 66.9724C40.5277 66.852 40.669 66.6595 40.7019 66.4088C40.7474 66.065 40.515 65.5646 39.8581 65.5339L39.8602 65.5338C40.5151 65.5642 40.7477 66.0648 40.7047 66.4087C40.6717 66.6598 40.5291 66.8524 40.3379 66.9724ZM20.9996 34.6934C21.0577 34.2888 20.8403 33.7047 20.1778 33.6693C20.8403 33.7047 21.0552 34.2914 20.9996 34.6934ZM20.5652 31.387C20.559 31.5861 20.6129 31.7861 20.734 31.9551C21.1993 32.5973 22.2385 32.2762 22.37 31.4494C22.3766 31.4083 22.3803 31.3655 22.3811 31.3215L22.3811 31.3208C22.3813 31.3093 22.3814 31.2977 22.3812 31.2861C22.3747 30.8979 22.1355 30.441 21.5381 30.4101M20.5652 31.387C20.5593 31.5855 20.6132 31.7846 20.7341 31.9525C21.1993 32.5972 22.2386 32.2761 22.37 31.4468C22.3765 31.4065 22.3802 31.3646 22.3811 31.3215M20.1852 37.5887C20.0633 37.3511 19.8378 37.155 19.4835 37.1216C19.483 37.1216 19.4825 37.1215 19.4821 37.1215C19.8367 37.1551 20.0626 37.3511 20.1852 37.5887ZM19.4392 37.1183L19.4387 37.1183L19.4372 37.1182C18.58 37.1663 18.274 38.2055 18.7671 38.7567C18.94 38.9499 19.1574 39.0394 19.3737 39.0426C19.4002 39.043 19.4268 39.0422 19.4532 39.0401C19.2121 39.0593 18.9628 38.9729 18.7694 38.7567C18.2739 38.2056 18.5797 37.1665 19.4392 37.1183ZM19.4877 40.7178C19.448 40.7108 19.4066 40.706 19.3634 40.7036C18.5012 40.7491 18.2205 41.806 18.7287 42.3699C18.762 42.4066 18.7967 42.4396 18.8326 42.4691C18.7968 42.4397 18.7621 42.4067 18.729 42.37C18.2207 41.8062 18.5014 40.7492 19.3636 40.7037C19.4067 40.7061 19.448 40.7109 19.4877 40.7178ZM19.4314 45.9778C19.979 46.4613 20.8151 46.1087 20.871 45.331C20.8728 45.3059 20.8736 45.2801 20.8733 45.2538C20.8731 45.2251 20.8716 45.1958 20.8688 45.1661C20.8742 45.223 20.8747 45.2785 20.8706 45.3309C20.8124 46.1074 19.9811 46.4601 19.4314 45.9778ZM21.212 47.5662L21.2103 47.5662C21.154 47.5693 21.1002 47.5763 21.049 47.5868C21.1008 47.5762 21.1551 47.5692 21.212 47.5662ZM24.4485 36.428C24.3398 37.2978 23.2525 37.6366 22.7392 36.9615C23.2525 37.6391 24.3398 37.3003 24.4485 36.428ZM24.7893 32.0688L24.7882 32.0689L24.7872 32.0688C23.9224 32.1143 23.5633 33.0651 23.9932 33.6314C24.0764 33.7402 24.1758 33.8215 24.2841 33.8776C24.1767 33.8214 24.0783 33.74 23.9959 33.6314C23.5661 33.0652 23.9224 32.1147 24.7893 32.0688ZM24.3672 43.6972C24.3754 43.6565 24.3816 43.6144 24.3856 43.5711C24.395 43.4676 24.3873 43.3533 24.3608 43.2384C24.3871 43.3533 24.3946 43.4675 24.3853 43.5711C24.3814 43.6144 24.3754 43.6564 24.3672 43.6972ZM25.5647 46.9336C25.5885 46.4971 25.3006 45.8816 24.5749 45.8442C23.6798 45.8897 23.3814 46.891 23.8695 47.4852C23.8836 47.5024 23.898 47.519 23.9127 47.5349C23.8971 47.5182 23.8819 47.5008 23.8671 47.4827C23.3791 46.8885 23.68 45.8897 24.5751 45.8417C25.3046 45.8816 25.5898 46.4994 25.5647 46.9336ZM25.7734 50.4714C25.607 50.2768 25.527 50.0379 25.5272 49.803C25.5273 50.0376 25.6072 50.2763 25.7734 50.4714ZM57.6279 37.0196C57.4308 36.8145 57.3359 36.5454 57.3359 36.282C57.3356 36.5458 57.4306 36.8151 57.6279 37.0196ZM57.9945 40.5975C58.0647 40.673 58.1406 40.7335 58.2198 40.78C58.1395 40.733 58.0626 40.6717 57.9916 40.595C57.4454 40.0058 57.7236 38.8983 58.6262 38.8452C59.072 38.8707 59.3444 39.1348 59.4761 39.4379C59.3435 39.1361 59.0721 38.8741 58.6292 38.8503C57.724 38.9009 57.4484 40.0084 57.9945 40.5975ZM57.3341 33.9001C57.7413 33.871 58.1009 33.5453 58.1184 33.0372C58.131 32.6225 57.8427 32.0258 57.1626 31.9878L57.1609 31.9879C57.8405 32.0237 58.1285 32.6227 58.1159 33.0372C58.1 33.5451 57.7415 33.8706 57.3341 33.9001ZM58.1129 46.2522C57.9685 46.0752 57.75 45.9452 57.4437 45.9276C57.0728 45.9482 56.7981 46.1438 56.64 46.4071C56.7982 46.1443 57.0727 45.9497 57.4433 45.9302C57.7503 45.9467 57.9687 46.0757 58.1129 46.2522ZM58.3232 47.0888C58.3263 47.0711 58.329 47.0532 58.3313 47.0351C58.3561 46.8411 58.322 46.6079 58.2143 46.4054C58.2127 46.4025 58.2111 46.3995 58.2095 46.3965C58.321 46.6013 58.356 46.8395 58.3308 47.0377C58.3286 47.0549 58.3261 47.0719 58.3232 47.0888ZM56.5357 29.9328C56.5357 29.9322 56.5357 29.9317 56.5357 29.9311C56.5356 29.8829 56.5316 29.8324 56.5234 29.7808C56.5317 29.833 56.5357 29.884 56.5357 29.9328ZM40.8065 35.9229C40.3597 36.311 40.2993 36.9957 40.7069 37.4723C41.1697 38.0153 41.9266 38.0025 42.3823 37.6095C41.9269 38.005 41.1677 38.019 40.704 37.4748C40.2954 36.9973 40.357 36.3106 40.8065 35.9229ZM43.145 38.6835C42.0062 38.7404 41.615 39.9102 42.2215 40.6304C42.4842 40.9441 42.84 41.0806 43.1856 41.0707C42.8392 41.0813 42.4824 40.9449 42.2191 40.6305C41.6148 39.9098 42.0067 38.7391 43.1446 38.6835L43.145 38.6835ZM41.6133 44.23C42.1919 44.2284 42.7532 43.8219 42.8235 43.1513C42.8791 42.6279 42.5403 41.8719 41.6174 41.8264L41.616 41.8265L41.6152 41.8264C42.5377 41.8722 42.8764 42.628 42.8208 43.1513C42.7522 43.8212 42.1918 44.2274 41.6133 44.23ZM42.042 47.8139C42.0976 47.3158 41.7715 46.5977 40.8789 46.5547C40.4161 46.5771 40.0774 46.7925 39.8839 47.0847C40.0773 46.792 40.4161 46.5758 40.8793 46.5523C41.7744 46.5978 42.098 47.3159 42.0424 47.8115C42.0407 47.8268 42.0387 47.842 42.0365 47.857C42.0385 47.8428 42.0404 47.8284 42.042 47.8139ZM39.0489 38.6835L39.0484 38.6835C37.8878 38.7391 37.4832 39.9098 38.0976 40.6305C38.3651 40.9453 38.7286 41.0816 39.0817 41.0707C39.1338 41.0691 39.1858 41.0644 39.2372 41.0566C38.8387 41.1174 38.4065 40.991 38.1 40.6304C37.4859 39.9101 37.8872 38.7428 39.0489 38.6835ZM39.3011 36.1068C39.1974 37.0904 37.8725 37.4723 37.2176 36.7086C37.875 37.4723 39.1999 37.0904 39.3011 36.1068ZM38.1247 42.6077C36.9823 42.6663 36.5704 43.8595 37.1771 44.5673C37.5572 45.0103 38.1295 45.0977 38.5926 44.917C38.1292 45.0992 37.5557 45.0123 37.175 44.5673C36.5707 43.8593 36.9829 42.6658 38.1232 42.6077L38.1247 42.6077ZM40.9616 51.2897C40.8056 50.9812 40.4866 50.7163 39.961 50.6914C39.0122 50.735 38.6097 51.6177 38.955 52.2552C38.6054 51.6197 39.0076 50.7348 39.9586 50.6888C40.4856 50.7138 40.806 50.9801 40.9616 51.2897ZM42.6438 59.0775C42.6206 58.6906 42.3372 58.2322 41.6754 58.2012C40.9807 58.2336 40.6116 58.7716 40.6778 59.2717C40.6087 58.7717 40.977 58.2311 41.6752 58.1986C42.3385 58.2298 42.6217 58.6901 42.6438 59.0775Z" fill="#FF9FA5" fill-opacity="0.5"/>
<path fill-rule="evenodd" clip-rule="evenodd" d="M63.8977 39.7737C63.8977 53.5417 52.7419 64.6893 39 64.692C25.2581 64.6948 14.1023 53.5516 14.1023 39.7837C14.1023 26.0157 25.2581 14.8681 39 14.8653C52.7419 14.8626 63.8977 26.0058 63.8977 39.7737ZM39 75.7787C58.891 75.7747 75 59.645 75 39.7715C75 19.8979 58.891 3.7747 39 3.77868C19.1091 3.78265 3 19.9123 3 39.7859C3 59.6594 19.1091 75.7827 39 75.7787Z" fill="black"/>
<defs>
<radialGradient id="paint0_radial_1762_323" cx="0" cy="0" r="1" gradientUnits="userSpaceOnUse" gradientTransform="translate(38.875 40.4258) rotate(90) scale(28.4258)">
<stop stop-color="#9B0021"/>
<stop offset="1" stop-color="#3A0007"/>
</radialGradient>
</defs>
</svg>
