<svg width="78" height="77" viewBox="0 0 78 77" fill="none" xmlns="http://www.w3.org/2000/svg">
<path d="M7.99023 38.9876C7.99023 56.1084 21.8694 69.9904 38.9902 69.9938C56.1111 69.9972 69.9902 56.1208 69.9902 39C69.9902 21.8792 56.1111 7.99723 38.9902 7.99381C21.8694 7.99038 7.99023 21.8668 7.99023 38.9876Z" fill="#FFAB1E"/>
<path fill-rule="evenodd" clip-rule="evenodd" d="M64.7517 38.4977C64.7517 24.5483 53.4428 13.2359 39.4902 13.2331C25.5377 13.2302 14.2288 24.5381 14.2288 38.4875C14.2288 52.4369 25.5377 63.7493 39.4902 63.7521C53.4428 63.755 64.7517 52.4471 64.7517 38.4977ZM39.4902 1.9926C59.6476 1.99669 75.9902 18.3406 75.9902 38.5C75.9902 58.6594 59.6476 74.9967 39.4902 74.9926C19.3329 74.9885 2.99023 58.6447 2.99023 38.4852C2.99023 18.3258 19.3329 1.98852 39.4902 1.9926Z" fill="black"/>
</svg>
