<svg width="69" height="77" viewBox="0 0 69 77" fill="none" xmlns="http://www.w3.org/2000/svg">
<path d="M58.9156 71.7551C61.677 71.7551 63.9156 69.5165 63.9156 66.7551V32.5061C63.9156 32.355 63.9088 32.204 63.8951 32.0535C63.4931 27.6315 61.7742 21.0474 57.4291 15.4424C52.9205 9.62634 45.7405 5.10547 35.219 5.10547C22.2561 5.10547 14.4728 11.1522 10.162 17.9919C6.06771 24.4882 5.22656 31.4461 5.22656 33.9872C5.22656 36.0451 5.38907 40.4933 8.1072 44.4845C10.3901 47.8367 14.005 50.2282 19.1113 51.1531V66.7551C19.1113 69.5165 21.3498 71.7551 24.1113 71.7551H58.9156Z" fill="#FF504F" stroke="black" stroke-width="10" stroke-linecap="round" stroke-linejoin="round"/>
<path d="M32.9982 29.9127C26.4816 29.9127 24.4822 35.4666 24.2971 38.2435L24.1042 46.5673C11.5154 47.1597 9.67152 38.7989 9.67188 33.9855C9.67188 18.5828 22.6083 11.6929 28.9919 10.6953C30.8432 11.1273 35.7751 13.0659 40.9588 17.509C46.1424 21.9521 47.9937 30.1442 47.9937 33.8004V43.5742C47.9937 44.6914 47.4434 45.4636 46.1424 45.4636C45.4019 45.4636 44.8465 44.4762 44.6614 43.9825C43.7974 41.9461 41.9815 37.1608 40.0331 33.9855C38.1968 30.993 34.6644 29.9744 32.9982 29.9127Z" fill="#C74145"/>
</svg>
