<svg width="149" height="149" viewBox="0 0 149 149" fill="none" xmlns="http://www.w3.org/2000/svg">
<path d="M140.827 77.8586C143.042 41.1985 115.119 9.68173 78.4594 7.46392C41.7995 5.2461 10.2849 33.1671 8.06966 69.8271C5.85441 106.487 33.7773 138.004 70.4372 140.222C107.097 142.44 138.612 114.519 140.827 77.8586Z" fill="#B70000"/>
<path fill-rule="evenodd" clip-rule="evenodd" d="M13.0783 74.207C13.0783 107.893 40.3838 135.197 74.0586 135.2C107.733 135.202 135.039 107.903 135.039 74.2171C135.039 40.5311 107.733 13.2274 74.0586 13.2246C40.3838 13.2218 13.0783 40.5209 13.0783 74.207ZM74.0586 146.212C34.2904 146.209 2.05859 113.967 2.05859 74.2061C2.05859 34.4452 34.2904 2.20874 74.0586 2.21206C113.827 2.21538 146.059 34.4572 146.059 74.2181C146.059 113.979 113.827 146.215 74.0586 146.212Z" fill="black"/>
</svg>
