<svg width="73" height="73" viewBox="0 0 73 73" fill="none" xmlns="http://www.w3.org/2000/svg">
<path d="M36.5939 66.9142C53.4293 66.9142 67.0797 53.2891 67.0831 36.4817C67.0864 19.6744 53.4414 6.04932 36.6061 6.04932C19.7708 6.04932 6.12032 19.6744 6.11696 36.4817C6.1136 53.2891 19.7586 66.9142 36.5939 66.9142Z" fill="#F1B644"/>
<path fill-rule="evenodd" clip-rule="evenodd" d="M36.6052 11.5972C22.8253 11.5972 11.668 22.747 11.6652 36.4815C11.6625 50.2161 22.8153 61.3658 36.5952 61.3658C50.3751 61.3658 61.5324 50.2161 61.5351 36.4815C61.5379 22.747 50.385 11.5972 36.6052 11.5972ZM0.56898 36.4815C0.572954 16.6013 16.7166 0.500977 36.6074 0.500977C56.4981 0.500977 72.6353 16.6013 72.6314 36.4815C72.6274 56.3617 56.4838 72.4621 36.593 72.4621C16.7022 72.4621 0.565006 56.3617 0.56898 36.4815Z" fill="black"/>
</svg>
