<svg width="77" height="78" viewBox="0 0 77 78" fill="none" xmlns="http://www.w3.org/2000/svg">
<path d="M64 39.5709C64 25.2115 52.3594 13.5686 38 13.5657C23.6406 13.5629 12 25.2011 12 39.5605C12 53.92 23.6406 65.5629 38 65.5657C52.3594 65.5686 64 53.9303 64 39.5709Z" fill="url(#paint0_linear_1762_419)"/>
<path d="M64 39.5709C64 25.2115 52.3594 13.5686 38 13.5657C23.6406 13.5629 12 25.2011 12 39.5605C12 53.92 23.6406 65.5629 38 65.5657C52.3594 65.5686 64 53.9303 64 39.5709Z" fill="#D5D5D5"/>
<path d="M11.9996 39.5531C11.9996 25.2033 23.6324 13.5682 37.9822 13.5653C52.332 13.5624 63.9648 25.1929 63.9648 39.5428C63.9648 53.8926 52.332 65.5277 37.9822 65.5306C23.6324 65.5334 11.9996 53.9029 11.9996 39.5531Z" fill="#3C2A63"/>
<path d="M53.5123 65.5897C54.0562 65.8021 54.6777 65.7451 55.18 65.424C55.7498 65.0563 56.0812 64.4089 56.0346 63.7356L53.4709 26.3522C53.4295 25.7463 53.0928 25.1973 52.5697 24.8865C52.0466 24.5758 51.4044 24.5447 50.8503 24.7985L24.2914 37.0058C23.6595 37.2959 23.24 37.9174 23.2141 38.6165C23.1882 39.3157 23.5508 39.9683 24.1619 40.305L41.4345 49.9745C42.3305 50.4717 43.4596 50.1558 43.9568 49.2598C44.454 48.3689 44.138 47.2347 43.242 46.7375L29.1495 38.8496L49.9543 29.2837L52.0984 60.597L12.6227 38.8134L58.1943 17.0867C59.1162 16.6465 59.5098 15.5381 59.0696 14.6162C58.6294 13.6943 57.521 13.3007 56.5991 13.7409L7.77499 37.0214C7.14831 37.3218 6.73915 37.9433 6.71844 38.6373C6.69772 39.3313 7.06544 39.9787 7.67659 40.3153L53.2845 65.4861C53.3622 65.5276 53.4347 65.5587 53.5123 65.5897Z" fill="#FBCE00"/>
<path fill-rule="evenodd" clip-rule="evenodd" d="M13.1023 39.5628C13.1023 53.3307 24.2581 64.4783 38 64.4811C51.7419 64.4838 62.8977 53.3407 62.8977 39.5727C62.8977 25.8048 51.7419 14.6571 38 14.6544C24.2581 14.6517 13.1023 25.7948 13.1023 39.5628ZM38 75.5677C18.109 75.5638 2 59.4341 2 39.5605C2 19.687 18.109 3.56377 38 3.56774C57.8909 3.57172 74 19.7014 74 39.5749C74 59.4485 57.8909 75.5717 38 75.5677Z" fill="black"/>
<defs>
<linearGradient id="paint0_linear_1762_419" x1="12" y1="39.5605" x2="59" y2="55.5605" gradientUnits="userSpaceOnUse">
<stop stop-color="#B00000"/>
<stop offset="0.234375" stop-color="#D8B500"/>
<stop offset="0.520833" stop-color="#00A807"/>
<stop offset="0.776042" stop-color="#750093"/>
<stop offset="1" stop-color="#C40098"/>
</linearGradient>
</defs>
</svg>
