<svg width="141" height="141" viewBox="0 0 141 141" fill="none" xmlns="http://www.w3.org/2000/svg">
<path d="M70.1843 137.085C106.911 137.085 136.683 107.312 136.682 70.5854C136.681 33.8585 106.907 4.08545 70.1797 4.08545C33.4528 4.08545 3.68073 33.8585 3.68201 70.5854C3.68329 107.312 33.4574 137.085 70.1843 137.085Z" fill="url(#paint0_linear)"/>
<mask id="mask0" mask-type="alpha" maskUnits="userSpaceOnUse" x="3" y="4" width="134" height="134">
<path d="M70.1843 137.085C106.911 137.085 136.683 107.312 136.682 70.5854C136.681 33.8585 106.907 4.08545 70.1797 4.08545C33.4528 4.08545 3.68073 33.8585 3.68201 70.5854C3.68329 107.312 33.4574 137.085 70.1843 137.085Z" fill="url(#paint1_linear)"/>
</mask>
<g mask="url(#mask0)">
<path d="M110.899 0.863656C72.1643 -21.5001 22.6337 -8.22848 0.2699 30.5068C-22.0939 69.242 -8.82222 118.773 29.913 141.136C68.6482 163.5 118.179 150.228 140.543 111.493C162.906 72.758 149.635 23.2274 110.899 0.863656ZM131.667 35.9457C144.792 58.967 143.374 86.288 130.481 107.454L87.6506 79.578C90.4461 74.0624 90.5643 67.3053 87.3897 61.5348L131.667 35.9457ZM71.0136 -1.21605L71.0164 51.5606C67.4593 51.4555 63.9433 52.3445 60.8636 54.1276C58.222 55.6495 55.9825 57.7808 54.332 60.344L8.80503 37.2076C14.788 26.1882 23.6182 16.496 35.272 9.76558C45.352 3.94515 59.3803 -0.887925 71.0154 -1.21497L71.0136 -1.21605ZM76.8657 59.8553C78.78 60.9711 80.3679 62.5698 81.4707 64.4915C84.9969 70.5506 82.9114 78.3222 76.8256 81.802C70.7718 85.3293 63.0033 83.2462 59.5264 77.1633C55.9972 71.1069 58.0774 63.335 64.16 59.8512C68.0871 57.5652 72.94 57.5668 76.8657 59.8553ZM70.9346 90.0964L70.9089 141.236C58.7128 140.833 44.0501 137.136 33.6117 130.743C24.0394 124.88 15.8438 116.714 9.78641 106.357L54.0376 80.8521C57.7172 86.8967 64.2658 90.2312 70.9346 90.0964Z" fill="black" fill-opacity="0.555556"/>
</g>
<defs>
<linearGradient id="paint0_linear" x1="70.1797" y1="4.08545" x2="70.1797" y2="137.085" gradientUnits="userSpaceOnUse">
<stop stop-color="#2A7AB6"/>
<stop offset="1" stop-color="#184669"/>
</linearGradient>
<linearGradient id="paint1_linear" x1="103" y1="16.0005" x2="38.9962" y2="123.998" gradientUnits="userSpaceOnUse">
<stop stop-color="#2A78B3"/>
<stop offset="1" stop-color="#184669"/>
</linearGradient>
</defs>
</svg>
