<svg width="141" height="141" viewBox="0 0 141 141" fill="none" xmlns="http://www.w3.org/2000/svg">
<mask id="mask0" mask-type="alpha" maskUnits="userSpaceOnUse" x="0" y="0" width="141" height="141">
<rect x="0.584259" y="0.531738" width="140" height="140" fill="#F1B644"/>
</mask>
<g mask="url(#mask0)">
</g>
<mask id="mask1" mask-type="alpha" maskUnits="userSpaceOnUse" x="4" y="4" width="134" height="134">
<path d="M70.5866 137.555C107.314 137.555 137.086 107.782 137.084 71.0547C137.083 34.3278 107.309 4.55469 70.582 4.55469C33.855 4.55469 4.08303 34.3278 4.08431 71.0547C4.08559 107.782 33.8597 137.555 70.5866 137.555Z" fill="#3CA3CF"/>
</mask>
<g mask="url(#mask1)">
<rect x="0.584259" y="0.531738" width="140" height="140" fill="#F1B644"/>
<path d="M99.7752 117.377L95.3835 111.155C94.9701 110.57 92.7715 110.423 91.7239 110.423H82.9402C79.134 110.423 78.4264 111.887 78.5484 112.619V116.279C78.5484 118.036 79.2804 119.695 79.6464 120.305C81.1103 122.501 84.2577 127.332 85.136 129.088C86.0144 130.845 87.9419 131.04 88.7958 130.918H99.4092C102.044 130.918 102.459 129.21 102.337 128.356C101.971 126.526 101.166 122.427 100.873 120.671C100.58 118.914 100.019 117.743 99.7752 117.377Z" fill="#B16F22"/>
<path d="M124.662 122.135H107.827C104.606 122.135 104.533 124.086 104.899 125.062C105.387 126.648 106.509 130.406 107.095 132.748C107.681 135.09 109.779 136.408 110.755 136.774C111.731 137.018 114.854 137.652 119.538 138.238C124.223 138.823 125.882 137.994 126.126 137.506C126.98 136.408 128.907 133.919 129.786 132.748C130.664 131.577 130.152 129.82 129.786 129.088C129.42 127.99 128.541 125.428 127.956 123.965C127.37 122.501 125.516 122.135 124.662 122.135Z" fill="#B16F22"/>
<path d="M52.93 118.475L55.8579 107.861C56.7365 105.812 58.9076 106.763 59.8834 107.495C60.4933 107.983 62.2988 109.399 64.6411 111.155C66.9834 112.912 68.3009 112.863 68.6669 112.619C69.6428 112.131 72.0339 111.009 73.7906 110.423C75.5473 109.838 75.9865 110.667 75.9865 111.155C75.8645 112.131 75.6937 114.522 75.9865 116.279C76.2793 118.036 75.3765 119.695 74.8885 120.305C72.3267 121.403 66.6906 123.891 64.6411 125.062C62.5916 126.234 60.3714 125.55 59.5174 125.062C58.4196 124.574 55.7847 123.452 54.028 122.867C52.2713 122.281 52.5641 119.695 52.93 118.475Z" fill="#B16F22"/>
<path d="M105.997 141.166H85.5019C86.5999 133.846 91.7239 133.846 96.8473 133.114C101.971 132.382 104.167 135.676 105.265 138.238C106.143 140.287 106.119 141.044 105.997 141.166Z" fill="#B16F22"/>
<path d="M146.621 141.532H129.054C128.688 141.41 128.688 140.287 131.615 136.774C135.275 132.382 140.765 133.846 144.425 135.31C147.352 136.481 147.108 139.946 146.621 141.532Z" fill="#B16F22"/>
<path d="M105.997 119.207C102.19 118.914 99.2871 112.497 98.3112 109.325C97.6607 107.495 98.3112 104.568 99.7752 101.274C100.946 98.6387 103.191 98.9559 104.167 99.4439C106.363 100.42 111.633 102.591 115.146 103.47C118.659 104.348 119.538 105.788 119.538 106.397C120.514 108.227 122.905 112.546 124.662 115.181C126.419 117.816 124.418 118.963 123.198 119.207C119.05 119.329 109.803 119.5 105.997 119.207Z" fill="#B16F22"/>
<path d="M56.9555 84.8046C54.9061 83.9262 45.1222 82.4867 40.4865 81.8768C36.9731 80.9984 37.3146 83.4627 37.9246 84.8046C38.2906 86.2685 39.3153 89.9283 40.4865 92.8561C41.6576 95.784 42.9263 97.0039 43.4143 97.2479C44.3903 97.6139 47.2937 98.5655 51.0999 99.4439C54.9061 100.322 55.8578 99.0779 55.8579 98.3459C56.5898 96.516 58.1999 92.2706 58.7854 89.9283C59.5174 87.0005 59.5174 85.9025 56.9555 84.8046Z" fill="#B16F22"/>
<path d="M74.5229 104.933V91.0262C74.5229 89.1962 71.229 88.0983 67.9352 86.2684C64.6414 84.4385 63.5435 84.0726 62.8115 85.9025C62.0795 87.7324 58.0538 99.4439 58.7857 101.64C59.5177 103.835 66.8373 107.861 69.7651 107.495C72.1074 107.203 73.9129 105.665 74.5229 104.933Z" fill="#B16F22"/>
<path d="M77.4507 104.933L76.3528 87.7324C81.4765 86.6344 82.9402 88.4643 83.3064 88.8303C83.5993 89.1231 85.3803 91.6362 86.2342 92.8561L97.9455 97.6138C97.5795 98.8338 96.701 101.859 96.1156 104.201C95.5303 106.544 92.9439 107.373 91.7239 107.495C89.6499 107.617 84.6236 107.935 81.1105 108.227C77.5973 108.52 77.2068 106.153 77.4507 104.933Z" fill="#B16F22"/>
<path d="M91.7239 75.289L85.5019 84.8046C84.3053 86.6347 87.6981 88.8303 90.9919 91.0262C93.627 92.7829 95.2617 92.0021 95.7497 91.3921C96.9695 89.9282 99.702 86.5612 100.873 84.8046C102.044 83.048 101.361 81.3887 100.873 80.7787C99.5312 79.5588 96.4814 76.8262 95.0177 75.655C93.554 74.4839 92.212 74.9231 91.7239 75.289Z" fill="#B16F22"/>
<path d="M125.028 80.0467C124.15 77.4117 122.222 76.7529 121.368 76.7529L106.229 82.5201C105.786 83.2816 104.24 85.8293 101.605 89.9283C98.9703 94.0273 100.019 95.0519 100.873 95.0519C103.191 96.1499 108.779 98.7118 112.585 100.176C116.391 101.639 118.318 100.054 118.806 99.0777C120.026 97.4918 122.979 93.6612 125.028 91.0262C127.078 88.3912 126.858 86.0244 126.492 85.1704C126.37 84.5605 125.906 82.6818 125.028 80.0467Z" fill="#B16F22"/>
<path d="M102.703 78.5828L93.5538 66.8715C92.09 64.9979 92.4559 63.163 92.8218 62.4797C96.6035 57.966 104.826 48.0601 107.461 44.5467C110.096 41.0333 112.707 43.0828 113.683 44.5467C114.659 46.2546 116.83 50.1828 117.708 52.2323C118.806 54.7941 118.074 57.356 116.61 59.1859C115.439 60.6498 115.879 62.7237 116.245 63.5776C116.489 64.4316 117.635 66.8715 120.27 69.7993C122.905 72.7271 121.368 73.9471 120.27 74.191C117.464 75.289 111.121 77.8508 108.193 79.3148C105.265 80.7787 103.313 79.4367 102.703 78.5828Z" fill="#B16F22"/>
<path d="M125.028 51.5004L119.538 59.9179C118.106 62.1138 120.27 64.3096 121.734 68.3354C122.905 71.556 125.394 71.6292 126.492 71.2633L131.616 68.7014C134.543 67.2375 134.543 65.1636 134.178 64.3096C133.446 61.5038 131.542 55.0138 129.786 51.5004C128.029 47.987 125.882 50.0364 125.028 51.5004Z" fill="#B16F22"/>
<path d="M148.085 66.5055V47.1086C143.327 46.0107 136.739 46.0107 134.543 49.3045C132.348 52.5983 135.641 62.4797 136.739 64.3096C137.618 65.7736 144.669 66.3835 148.085 66.5055Z" fill="#B16F22"/>
<path d="M142.961 69.4334C145.889 70.3117 147.597 72.4832 148.085 73.4591V100.176C145.279 96.7598 139.374 89.4891 138.203 87.7324C136.739 85.5364 135.275 85.9025 132.714 86.2684C130.664 86.5612 129.908 85.4145 129.786 84.8046C129.42 83.4626 128.395 80.1199 127.224 77.4849C126.053 74.8499 127.712 73.7031 128.688 73.4591C130.518 72.4832 134.69 70.3117 136.739 69.4334C139.301 68.3354 139.301 68.3354 142.961 69.4334Z" fill="#B16F22"/>
<path d="M135.275 89.9283L145.157 103.103C146.255 104.567 146.346 106.397 146.255 107.129C146.133 108.471 145.742 111.668 145.157 113.717C144.571 115.766 142.473 116.767 141.497 117.011H133.446C130.225 117.011 128.932 115.791 128.688 115.181C127.468 112.619 124.735 107.056 123.564 105.299C122.393 103.542 122.344 101.151 122.466 100.176C124.052 98.7117 127.883 94.9055 130.518 91.3921C133.153 87.8786 134.787 88.9523 135.275 89.9283Z" fill="#B16F22"/>
<path d="M145.157 119.207C146.914 118.621 147.841 119.695 148.085 120.305V131.65H140.399C135.422 131.65 133.202 130.43 132.714 129.82C132.226 128.6 131.103 125.575 130.518 123.232C129.932 120.89 131.738 120.305 132.714 120.305H137.105C139.057 120.183 143.4 119.792 145.157 119.207Z" fill="#B16F22"/>
<path d="M59.5174 141.532H81.1105C84.9167 135.969 84.1603 132.626 83.3064 131.65C82.8184 131.04 81.4032 128.868 79.6464 125.062C77.8895 121.256 75.7425 122.013 74.8885 122.867C71.9608 124.33 65.8125 127.478 64.6411 128.356C63.4697 129.235 60.7372 137.506 59.5174 141.532Z" fill="#B16F22"/>
<path d="M42.3167 141.531H56.2239C56.2239 140.921 56.5899 138.75 58.0538 134.944C59.8837 130.186 56.9555 127.624 54.028 125.794C51.6859 124.33 49.3923 125.184 48.5383 125.794C47.3184 126.892 44.2197 129.747 41.5847 132.382C38.9496 135.017 39.7546 137.384 40.4865 138.238L42.3167 141.531Z" fill="#B16F22"/>
<path d="M17.4301 141.531L37.5589 141.532C37.5589 137.872 35.363 133.846 32.4352 133.114C29.5074 132.382 25.1156 132.382 21.8218 133.846C19.1868 135.017 17.796 139.457 17.4301 141.531Z" fill="#B16F22"/>
<path d="M16.3321 132.382L13.7703 128.356C12.4893 126.343 10.4764 129.82 8.64654 132.382C7.18262 134.431 6.81665 135.92 6.81665 136.408V141.166L11.9404 141.532C12.4283 141.165 13.8435 139.848 15.6002 137.506C17.3569 135.163 16.8201 133.114 16.3321 132.382Z" fill="#B16F22"/>
<path d="M17.796 129.454L15.9661 126.16C15.2342 124.843 16.8811 123.903 17.796 123.598C19.5039 122.866 24.0177 120.963 28.4094 119.207C32.8012 117.45 34.6311 119.207 34.9971 120.305C35.485 120.915 36.9002 122.72 38.6569 125.062C40.8527 127.99 41.5847 129.454 38.6569 130.918C35.729 132.382 36.461 131.65 33.1672 130.918C29.8734 130.186 25.1156 131.65 21.8218 131.65C19.1868 131.65 18.04 130.186 17.796 129.454Z" fill="#B16F22"/>
<path d="M39.3888 122.135L36.461 117.377C35.729 114.815 38.6569 108.959 39.3888 104.933C39.9744 101.713 41.8287 101.396 42.6826 101.64C43.7806 102.006 46.7816 102.957 50.0022 103.835C53.2228 104.714 53.54 106.641 53.296 107.495C52.9301 108.715 51.9785 112.18 51.0999 116.279C50.0016 121.403 48.5383 121.402 44.8785 123.598C41.9507 125.355 39.9988 123.354 39.3888 122.135Z" fill="#B16F22"/>
<path d="M58.0538 78.5828L56.2239 69.4334C55.814 67.3839 53.1252 66.1395 51.8321 65.7736C49.6362 64.5536 44.5857 61.6746 41.9507 59.9179C38.6569 57.722 37.9246 59.1859 35.363 61.0158C33.3138 62.4798 33.0453 63.8217 33.1672 64.3096C33.4112 65.4076 34.1919 68.7014 35.363 73.0931C36.5342 77.4849 38.7789 78.3389 39.7548 78.2169C42.4386 78.5828 49.0507 79.6075 54.028 80.7787C59.0053 81.9498 58.7857 79.8027 58.0538 78.5828Z" fill="#B16F22"/>
<path d="M59.8834 76.7529L58.4198 67.2375C58.0257 64.6757 58.4198 65.0416 62.0795 62.8457C65.0074 61.089 70.1311 61.8698 72.327 62.4797C74.4008 63.0897 79.7928 64.7488 84.7703 66.5055C89.7478 68.2622 89.7721 71.6292 89.162 73.0931C88.918 73.4591 87.8444 75.2158 85.5019 79.3148C83.1594 83.4137 79.8902 84.1945 78.5484 84.0725C77.2066 83.9505 73.2053 83.487 67.9352 82.6086C62.6651 81.7302 60.3715 78.3388 59.8834 76.7529Z" fill="#B16F22"/>
<path d="M51.0999 61.0158L41.2187 54.0622C39.4622 52.8261 40.4869 50.3754 41.2187 49.3045C43.0486 46.1327 47.0744 39.0571 48.5383 36.1292C50.0022 33.2014 52.8081 32.2254 54.028 32.1035H62.8115C65.154 32.1035 65.7394 33.8114 65.7393 34.6653C65.6174 37.3492 65.2269 44.254 64.6411 50.4024C63.9089 58.088 61.3476 58.454 58.4198 61.3818C56.0775 63.7241 52.5639 62.1138 51.0999 61.0158Z" fill="#B16F22"/>
<path d="M66.8373 54.7942L68.3012 35.0313C68.6672 30.0906 72.327 30.6395 79.2806 29.9076C86.2342 29.1756 85.1363 35.7632 90.26 35.0313C95.3837 34.2993 95.7497 34.6653 100.141 37.5931C103.655 39.9354 103.557 41.7409 103.069 42.3509C99.6534 46.7426 92.3095 56.4045 90.26 59.9179C88.2105 63.4313 84.0383 63.0897 82.2084 62.4797C81.4765 61.9918 78.6218 60.6498 73.0589 59.1859C67.496 57.7219 66.5933 55.6481 66.8373 54.7942Z" fill="#B16F22"/>
<path d="M28.0435 42.7168C24.8228 42.424 15.4782 43.3268 11.2084 43.8147C8.28056 43.8147 8.76854 46.2546 9.3785 47.4745C10.5984 49.5484 13.4043 54.2086 14.8682 56.258C16.3321 58.3075 15.4782 63.4557 14.8682 65.7736C17.796 65.5296 24.3837 64.8952 27.3115 64.3096C30.2393 63.7241 35.1191 57.722 37.1929 54.7941C37.5589 53.4522 37.9981 50.3292 36.827 48.5725C35.363 46.3766 32.0692 43.0828 28.0435 42.7168Z" fill="#B16F22"/>
<path d="M11.2084 38.691V28.4436C11.794 24.6374 16.3321 25.1498 18.528 25.8817C19.6259 27.1017 22.7002 30.6395 26.2136 35.0313C30.6053 40.521 22.5538 40.1549 16.3321 40.5209C11.3548 40.8137 10.8424 39.423 11.2084 38.691Z" fill="#B16F22"/>
<path d="M35.363 40.5209L25.4816 29.1755C23.6517 25.5157 23.6517 12.3405 24.3837 9.77861C25.1156 7.21676 37.1929 3.19098 39.7548 3.92294C41.8043 4.50851 45.2445 9.29064 46.7084 11.6085C47.3184 14.4144 48.5383 21.1972 48.5383 25.8817C48.5383 31.7375 43.7806 37.5931 41.2187 41.2528C39.1692 44.1806 36.461 41.9848 35.363 40.5209Z" fill="#B16F22"/>
<path d="M51.0999 25.1498L49.6362 9.04669C50.3682 6.85079 54.028 3.92294 56.2239 2.45906C58.4198 0.995179 62.0795 6.11885 64.6411 8.31473C66.6904 10.0714 66.9591 11.9745 66.8373 12.7065C66.8373 13.8044 66.9105 17.1714 67.2033 21.856C67.496 26.5405 65.1294 28.1996 63.9094 28.4436H56.2239C52.4177 28.4436 51.222 26.2477 51.0999 25.1498Z" fill="#B16F22"/>
<path d="M69.7651 25.8817V15.2684C69.7651 10.8766 71.229 10.5106 77.4507 6.11888C83.6723 1.72713 88.4301 6.48486 93.9198 6.48486C99.4095 6.48486 100.873 7.21682 105.631 10.5106C109.437 13.1457 110.145 16.2443 110.023 17.4642C109.779 19.6601 109.145 25.5158 108.559 31.3715C107.827 38.6911 104.533 36.8612 101.971 34.2993C99.4095 31.7374 100.873 32.8354 95.0177 32.1035C89.162 31.3715 87.3321 30.6395 84.0383 28.0777C80.7445 25.5158 77.8167 26.9797 73.7909 27.3457C70.5703 27.6385 69.7651 26.4917 69.7651 25.8817Z" fill="#B16F22"/>
<path d="M110.023 36.1292L113.683 19.6601C114.073 17.9034 115.553 17.4643 116.245 17.4642C117.952 17.8302 122.539 18.7818 127.224 19.6601C131.908 20.5385 132.103 25.1498 131.615 27.3457C129.42 31.7374 124.516 41.8385 122.466 47.1086C120.417 52.3788 118.44 49.3045 117.708 47.1086C117.22 45.1567 115.513 41.1065 112.585 40.5209C109.657 39.9354 109.657 37.3492 110.023 36.1292Z" fill="#B16F22"/>
<path d="M112.585 13.8045L105.997 6.48486C103.362 3.55702 108.071 0.629189 110.755 -0.46875H123.198C124.296 0.995147 127.517 5.46006 131.615 11.6085C135.714 17.757 132.103 18.0742 129.786 17.4642C128.078 17.4642 123.491 17.2447 118.806 16.3663C114.122 15.488 112.707 14.2924 112.585 13.8045Z" fill="#B16F22"/>
<path d="M131.616 3.92294L128.688 -0.46875H146.255C144.669 0.995147 140.838 4.36213 138.203 6.11888C135.568 7.87563 132.714 5.3869 131.616 3.92294Z" fill="#B16F22"/>
<path d="M148.085 21.856V3.92294C136.739 8.31463 134.543 12.7065 136.739 16.3663C138.496 19.2942 141.619 20.7581 142.961 21.124L148.085 21.856Z" fill="#B16F22"/>
<path d="M148.085 41.2528V27.3457C148.085 23.3199 144.425 23.6859 140.399 23.6859C137.179 23.6859 135.642 26.1258 135.275 27.3457C133.69 30.2735 130.005 37.4467 127.956 42.7168C125.906 47.9869 130.274 47.8405 132.714 47.1086L148.085 41.2528Z" fill="#B16F22"/>
<path d="M85.1363 -0.46875H105.631C104.045 0.751182 99.4827 3.26424 93.9198 3.55702C88.3569 3.84981 85.7462 0.995168 85.1363 -0.46875Z" fill="#B16F22"/>
<path d="M59.5177 -0.46875H80.7445C79.0366 0.507187 74.962 3.04463 72.327 5.38692C69.0332 8.31478 67.5692 6.85084 65.7393 5.38692C64.2754 4.21579 60.9816 0.995168 59.5177 -0.46875Z" fill="#B16F22"/>
<path d="M41.9507 -0.46875H56.2239C49.2703 7.21682 46.7084 6.11888 44.8785 4.65496C43.4146 3.48383 42.3167 0.751182 41.9507 -0.46875Z" fill="#B16F22"/>
<path d="M17.0641 -0.46875H37.5589C30.2393 6.11888 26.2136 5.38692 24.3837 5.38692C22.9197 5.38692 18.894 1.48314 17.0641 -0.46875Z" fill="#B16F22"/>
<path d="M12.3063 -0.46875H6.81665C6.81665 0.0192227 7.32902 0.995168 9.3785 0.995168C11.428 0.995168 12.1843 0.0192227 12.3063 -0.46875Z" fill="#B16F22"/>
<path d="M6.08469 21.856V4.65496C10.1105 1.72713 13.7703 2.82507 17.796 4.65496C21.0166 6.11888 21.8218 8.19275 21.8218 9.04669C21.9438 10.5106 22.1146 14.39 21.8218 18.1962C21.529 22.0024 19.016 22.222 17.796 21.856H6.08469Z" fill="#B16F22"/>
<path d="M6.08469 41.2528V26.6137C8.64654 27.3457 7.91458 33.2014 7.91458 37.5931C7.91458 41.1065 6.69465 41.4969 6.08469 41.2528Z" fill="#B16F22"/>
<path d="M6.08469 66.8715V47.4745C10.8424 52.2323 11.9404 56.99 11.2084 62.4797C10.6228 66.8715 7.5486 67.2375 6.08469 66.8715Z" fill="#B16F22"/>
<path d="M6.08469 100.542V74.557C13.4043 86.2684 13.4043 91.7581 11.9404 94.3199C10.7692 96.3694 7.5486 99.3217 6.08469 100.542Z" fill="#B16F22"/>
<path d="M6.08469 130.918V122.135C8.64654 123.965 8.64654 125.794 8.64654 127.258C8.64654 128.429 6.93864 130.186 6.08469 130.918Z" fill="#B16F22"/>
<path d="M6.81665 115.547L7.5486 105.665C8.00405 99.5168 16.2779 97.0038 20.3579 96.5158C22.4318 97.1258 27.7507 98.5655 32.4352 99.4439C38.2909 100.542 35.729 104.933 35.363 109.325C35.0703 112.839 33.2892 114.449 32.4352 114.815C29.2634 116.035 22.0414 118.841 18.528 120.305C14.1362 122.135 10.8424 121.402 8.64654 120.305C6.88984 119.427 6.69465 116.767 6.81665 115.547Z" fill="#B16F22"/>
<path d="M36.461 87.7324C35.8754 82.4623 32.3132 73.8251 30.6053 70.1653C28.7754 66.5055 22.5538 69.4334 17.4301 69.4333C12.3063 69.4333 10.4764 70.1653 10.1105 72.7271C9.81768 74.7766 10.7204 78.9488 11.2084 80.7787C12.0624 82.6086 14.2826 87.1468 16.3321 90.6601C18.894 95.0518 24.0177 95.0519 31.3373 96.1498C38.6569 97.2478 37.1929 94.3199 36.461 87.7324Z" fill="#B16F22"/>
</g>
</svg>
