<svg width="78" height="86" viewBox="0 0 78 86" fill="none" xmlns="http://www.w3.org/2000/svg">
<path d="M74.6695 53.5005C74.6695 50.1405 73.5995 46.9805 71.7195 44.4005C71.7695 44.2105 71.8095 44.0205 71.8395 43.8305C71.9195 43.3705 71.9695 42.9005 71.9695 42.3405C71.9595 39.3105 71.0695 36.4205 69.4895 33.9705C69.5895 33.4405 69.6395 32.9105 69.6395 32.4105C69.6295 28.4805 67.9595 24.9005 65.2395 22.3905C65.2395 21.1905 64.9695 19.9805 64.4095 18.8405C63.7095 17.4105 62.7795 16.1305 61.6595 15.0305C61.6395 14.1905 61.4895 13.3405 61.1895 12.5305C59.9795 9.15049 57.5195 6.44049 54.2695 4.91049C52.9695 4.30049 51.5995 3.91049 50.2195 3.73049C47.6295 1.26049 44.2695 0.000488281 40.8895 0.000488281C38.0795 0.000488281 35.2595 0.870488 32.8495 2.64049C28.7495 2.64049 24.7095 4.51049 21.9895 8.06049C21.7795 8.34049 21.5995 8.62049 21.4295 8.91049C20.7895 10.0205 20.4395 11.2405 20.3695 12.4505C18.6595 13.7405 17.2595 15.4305 16.3495 17.3905C15.9595 18.2005 15.7195 19.0505 15.6195 19.9005C13.0995 21.3905 11.0295 23.6105 9.74953 26.3405C9.01953 27.8905 8.77953 29.6005 9.07953 31.2805C9.11953 31.5105 9.16953 31.7405 9.22953 31.9705C8.48953 32.9005 7.85953 33.9305 7.35953 35.0205C7.29953 35.1405 7.21953 35.3405 7.16953 35.4705C6.75953 36.5305 6.56953 37.6205 6.59953 38.6905C5.45953 39.9005 4.49953 41.3005 3.77953 42.8605C3.02953 44.4905 2.82953 46.2805 3.18953 48.0405C3.53953 49.7805 4.43953 51.3405 5.69953 52.5205C5.54953 52.8605 5.41953 53.2105 5.33953 53.4805C4.83953 55.0905 4.83953 56.7905 5.31953 58.3405C5.87953 60.2005 7.05953 61.8005 8.62953 62.8605C8.35953 64.9505 8.88953 67.0905 10.1395 68.8005C10.9895 69.9905 12.1395 70.9405 13.4095 71.5105L14.4395 72.0005C14.5095 72.0305 14.5795 72.0605 14.6495 72.0905L15.7495 72.6005C15.9895 74.0205 16.5895 75.3505 17.4995 76.4605C18.8795 78.1705 20.8495 79.2605 23.1095 79.5305L24.3095 79.6605C24.4895 79.6805 24.6695 79.6905 24.8495 79.7005L25.8695 79.8105C26.1395 80.8605 26.6495 81.8405 27.3695 82.6705C28.5895 84.0705 30.3095 84.9305 32.1595 85.0605L38.6295 85.5205C38.7895 85.5305 38.9595 85.5405 39.1195 85.5405C40.7995 85.5405 42.4295 84.9305 43.7095 83.8305C44.6395 83.0205 45.3295 82.0005 45.7295 80.8605L50.9995 80.0905C52.4095 79.8905 53.7195 79.3405 54.8295 78.5105L55.9695 78.7205C56.4695 78.8105 56.9795 78.8505 57.4695 78.8505C60.0295 78.8505 62.4595 77.6905 64.0595 75.6305C64.8995 74.5605 65.4695 73.2905 65.7095 71.9505C65.7295 71.8205 65.7495 71.7005 65.7595 71.6605C65.9295 70.6205 65.9995 69.5705 65.9495 68.5205C66.7095 68.1305 67.4195 67.6105 68.0395 66.9905C69.6295 65.3905 70.4995 63.2705 70.4895 61.0605C70.4895 60.9605 70.4895 60.8605 70.4895 60.7605C71.1195 60.4005 71.6995 59.9505 72.2195 59.4205C73.8195 57.8305 74.6895 55.7105 74.6695 53.5005Z" fill="black"/>
<path d="M14.1111 49.2689C13.2808 61.0754 23.6403 71.41 37.2495 72.3741C50.8587 73.3381 62.5522 64.5383 63.3825 52.7318C64.2127 40.9253 55.2508 10.7177 41.6468 9.77319C28.0428 8.82866 14.9413 37.4624 14.1111 49.2689Z" fill="#5E3C16"/>
<path d="M40.869 14.6992L45.7772 10.4253C46.2164 10.0358 46.269 9.3735 45.8795 8.93422C43.5214 6.2205 39.4182 5.92942 36.7045 8.28753C36.2652 8.67706 36.2127 9.33937 36.6022 9.77865L40.869 14.6992Z" fill="#AC6C2A"/>
<path d="M36.7102 8.30849C39.4239 5.95038 43.527 6.24146 45.8851 8.95518C46.2747 9.39446 46.215 10.0691 45.7828 10.4463L45.0875 11.0508C45.0562 10.9337 44.9929 10.8148 44.9154 10.7205C42.9944 8.50653 39.6492 8.27375 37.4352 10.1948C37.3338 10.2847 37.2572 10.3888 37.2124 10.4949L36.6079 9.79957C36.2183 9.36029 36.2657 8.67851 36.7102 8.30849Z" fill="#CF7C2F"/>
<path d="M48.0137 18.1152L54.057 15.9314C54.5999 15.7336 54.8789 15.1361 54.6812 14.5932C53.4737 11.2575 49.8021 9.53348 46.4612 10.7214C45.9183 10.9192 45.6392 11.5167 45.837 12.0596L48.0137 18.1152Z" fill="#9C6226"/>
<path d="M46.4612 10.7214C49.7969 9.51394 53.4809 11.2451 54.6812 14.5932C54.8789 15.1361 54.5999 15.7336 54.057 15.9314L53.2 16.2446C53.2076 16.1171 53.1957 15.9948 53.152 15.8706C52.1704 13.1436 49.1705 11.7414 46.4629 12.7178C46.3387 12.7615 46.2321 12.8319 46.1503 12.9166L45.837 12.0596C45.6392 11.5166 45.9183 10.9191 46.4612 10.7214Z" fill="#BF742B"/>
<path d="M33.151 17.5483L37.185 12.275C37.5468 11.7912 37.4594 11.1142 36.988 10.7595C34.0698 8.53047 29.9098 9.08058 27.6683 11.9917C27.3066 12.4755 27.3939 13.1525 27.8653 13.5072L33.151 17.5483Z" fill="#9C6226"/>
<path d="M27.6752 11.9796C29.9043 9.0613 34.0839 8.50596 36.995 10.7474C37.4787 11.1092 37.5661 11.7862 37.1919 12.2628L36.6165 13.0025C36.5656 12.8907 36.4757 12.7893 36.3715 12.7127C33.9917 10.8935 30.5992 11.3425 28.78 13.7223C28.7033 13.8264 28.6514 13.9449 28.6243 14.0776L27.8846 13.5022C27.4008 13.1404 27.3135 12.4633 27.6752 11.9796Z" fill="#BF742B"/>
<path d="M44.2311 24.7866L49.4486 20.2626C49.9145 19.8554 49.9638 19.1418 49.5567 18.6758C47.0487 15.7932 42.6906 15.4868 39.8079 17.9947C39.342 18.4018 39.2927 19.1155 39.6999 19.5814L44.2311 24.7866Z" fill="#9C6226"/>
<path d="M39.8151 17.9837C42.6978 15.4758 47.056 15.7822 49.5639 18.6649C49.971 19.1308 49.9218 19.8445 49.4559 20.2516L48.7196 20.8984C48.6759 20.7742 48.6198 20.6429 48.5299 20.5415C46.489 18.1924 42.9402 17.941 40.591 19.9818C40.4896 20.0717 40.4059 20.1883 40.354 20.3067L39.7071 19.5705C39.2876 19.0974 39.3368 18.3837 39.8151 17.9837Z" fill="#BF742B"/>
<path d="M29.0978 24.2627L31.8217 18.4309C32.0703 17.9147 31.8392 17.2866 31.3107 17.0309C28.0934 15.5197 24.2538 16.9145 22.7426 20.1317C22.4941 20.6479 22.7251 21.276 23.2536 21.5317L29.0978 24.2627Z" fill="#9C6226"/>
<path d="M22.7633 20.1275C24.2744 16.9102 28.1141 15.5155 31.3314 17.0267C31.8475 17.2752 32.0857 17.891 31.8424 18.4266L31.4472 19.2539C31.3697 19.1597 31.2655 19.083 31.1542 19.0188C28.5344 17.7866 25.4081 18.917 24.1688 21.5492C24.1169 21.6676 24.0897 21.8004 24.0892 21.9155L23.2619 21.5203C22.7386 21.2842 22.5199 20.6632 22.7633 20.1275Z" fill="#BF742B"/>
<path d="M51.4873 26.1572L57.6902 23.1256C58.2441 22.8517 58.4827 22.1814 58.2089 21.6275C56.5271 18.1993 52.3953 16.7868 48.9743 18.4562C48.4203 18.7301 48.1818 19.4004 48.4557 19.9543L51.4873 26.1572Z" fill="#7E4F1F"/>
<path d="M48.9606 18.4478C52.3888 16.766 56.5258 18.198 58.1952 21.619C58.4691 22.173 58.2428 22.8504 57.6765 23.1171L56.7995 23.5508C56.7948 23.4161 56.7706 23.2867 56.7145 23.1554C55.347 20.354 51.9864 19.2053 49.185 20.5728C49.066 20.636 48.9523 20.7188 48.8756 20.8229L48.442 19.9459C48.1681 19.392 48.4067 18.7217 48.9606 18.4478Z" fill="#A16125"/>
<path d="M37.2873 23.6143L41.4941 18.1273C41.8754 17.6384 41.7776 16.9223 41.2815 16.5534C38.2538 14.2282 33.913 14.8058 31.6001 17.8406C31.2189 18.3296 31.3167 19.0457 31.8128 19.4146L37.2873 23.6143Z" fill="#7E4F1F"/>
<path d="M31.5865 17.8321C33.9117 14.8044 38.2401 14.2196 41.2678 16.5448C41.7568 16.9261 41.8617 17.6298 41.4805 18.1188L40.8835 18.8956C40.8203 18.7766 40.7376 18.6629 40.6334 18.5862C38.1618 16.6975 34.6274 17.1636 32.7387 19.6352C32.6549 19.7517 32.603 19.8702 32.5759 20.0029L31.7991 19.406C31.303 19.0371 31.2052 18.3211 31.5865 17.8321Z" fill="#A16125"/>
<path d="M39.9267 32.1475L45.9214 26.9342C46.4549 26.4672 46.517 25.6455 46.05 25.112C43.1649 21.7972 38.1568 21.4454 34.8296 24.3233C34.2961 24.7904 34.234 25.612 34.701 26.1456L39.9267 32.1475Z" fill="#7E4F1F"/>
<path d="M34.8374 24.3107C38.1522 21.4256 43.1727 21.7846 46.0578 25.0994C46.5249 25.6329 46.4751 26.4617 45.9292 26.9216L45.0721 27.6636C45.0231 27.5199 44.9547 27.3814 44.8595 27.2605C42.5138 24.5539 38.423 24.27 35.7164 26.6157C35.5884 26.7232 35.4975 26.8521 35.4508 26.9901L34.7089 26.133C34.2418 25.5995 34.3039 24.7778 34.8374 24.3107Z" fill="#A16125"/>
<path d="M39.0269 40.9126L45.3719 35.4069C45.9392 34.9098 46.0104 34.0439 45.5133 33.4766C42.4732 29.9733 37.1659 29.5972 33.6555 32.6497C33.0882 33.1467 33.017 34.0126 33.514 34.5799L39.0269 40.9126Z" fill="#7E4F1F"/>
<path d="M33.6568 32.6495C37.1601 29.6093 42.4674 29.9855 45.5147 33.4764C46.0117 34.0437 45.9529 34.9167 45.3732 35.4066L44.4751 36.1909C44.4333 36.0348 44.3525 35.8892 44.245 35.7612C41.767 32.9123 37.4408 32.6079 34.5795 35.0787C34.4515 35.1862 34.3534 35.3275 34.2873 35.4706L33.503 34.5726C33.0254 34 33.0771 33.1394 33.6568 32.6495Z" fill="#A16125"/>
<path d="M48.1647 33.1611L53.9802 29.2296C54.5008 28.8706 54.6457 28.1626 54.2866 27.642C52.1185 24.4278 47.7539 23.59 44.5397 25.7581C44.0191 26.1172 43.8742 26.8251 44.2333 27.3457L48.1647 33.1611Z" fill="#7E4F1F"/>
<path d="M44.541 25.7582C47.7552 23.5901 52.1198 24.428 54.2879 27.6421C54.647 28.1628 54.5021 28.8707 53.9815 29.2298L53.1482 29.7876C53.1239 29.6582 53.0874 29.5216 53.0046 29.4079C51.236 26.7871 47.6749 26.0999 45.0542 27.8685C44.9404 27.9513 44.8514 28.0483 44.78 28.172L44.2222 27.3387C43.8826 26.8128 44.0151 26.0978 44.541 25.7582Z" fill="#A16125"/>
<path d="M55.0093 33.2197L61.6451 33.2085C62.2404 33.2059 62.7296 32.7297 62.727 32.1345C62.7167 28.4676 59.7468 25.4996 56.0799 25.5099C55.4847 25.5125 54.9954 25.9886 54.9981 26.5838L55.0093 33.2197Z" fill="#7E4F1F"/>
<path d="M56.0787 25.5102C59.7457 25.4999 62.7156 28.4679 62.7258 32.1348C62.7285 32.7301 62.2516 33.2133 61.644 33.2088L60.7033 33.21C60.7552 33.0915 60.7948 32.9659 60.7901 32.8313C60.7839 29.8428 58.3695 27.4264 55.3811 27.4326C55.2464 27.4373 55.117 27.4616 55.0052 27.5124L55.0041 26.5718C54.9942 25.9889 55.4835 25.5128 56.0787 25.5102Z" fill="#BF742B"/>
<path d="M32.2368 33.8262L37.0691 27.513C37.5003 26.9374 37.3888 26.1309 36.8327 25.6945C33.346 23.0218 28.36 23.6887 25.6873 27.1754C25.2561 27.7509 25.3676 28.5574 25.9237 28.9939L32.2368 33.8262Z" fill="#6E451B"/>
<path d="M25.6768 27.186C28.3495 23.6993 33.3355 23.0324 36.8222 25.7051C37.3978 26.1364 37.5022 26.9553 37.0585 27.5237L36.3779 28.417C36.3094 28.2785 36.2143 28.1576 36.0854 28.0667C33.2466 25.9 29.1769 26.4363 27.0102 29.2752C26.9193 29.4041 26.8531 29.5473 26.8188 29.6924L25.9255 29.0117C25.3447 28.561 25.2403 27.7421 25.6768 27.186Z" fill="#915821"/>
<path d="M23.8634 34.0381L27.1615 26.9546C27.4619 26.32 27.1748 25.5605 26.5402 25.2601C22.6245 23.4447 17.9865 25.137 16.1586 29.0455C15.8582 29.6801 16.1453 30.4396 16.7799 30.74L23.8634 34.0381Z" fill="#9C6226"/>
<path d="M16.1643 29.0646C17.9797 25.1489 22.6373 23.4514 26.5458 25.2792C27.1805 25.5796 27.4552 26.3319 27.1672 26.9737L26.7039 27.976C26.6088 27.8552 26.4923 27.7714 26.3491 27.7052C23.1617 26.2278 19.3806 27.6068 17.8909 30.787C17.8247 30.9302 17.8027 31.0825 17.8003 31.2295L16.798 30.7662C16.1386 30.4515 15.8639 29.6992 16.1643 29.0646Z" fill="#BF742B"/>
<path d="M49.8947 43.1636L56.2397 37.6578C56.807 37.1608 56.8782 36.2949 56.3812 35.7276C53.3411 32.2243 48.0337 31.8482 44.5305 34.8883C43.9632 35.3853 43.892 36.2513 44.389 36.8186L49.8947 43.1636Z" fill="#6E451B"/>
<path d="M44.5181 34.8803C48.0214 31.8401 53.3287 32.2163 56.3689 35.7195C56.8659 36.2868 56.8071 37.1599 56.2274 37.6498L55.3293 38.4341C55.2875 38.278 55.2067 38.1324 55.0992 38.0044C52.6213 35.1555 48.295 34.851 45.4337 37.3219C45.3057 37.4293 45.2076 37.5706 45.1415 37.7138L44.3572 36.8157C43.8796 36.2432 43.9508 35.3773 44.5181 34.8803Z" fill="#915821"/>
<path d="M55.292 43.4434L63.694 43.4294C64.4557 43.4239 65.0554 42.8137 65.0623 42.0591C65.0529 37.4196 61.2858 33.6616 56.6535 33.6587C55.8918 33.6641 55.2921 34.2744 55.2852 35.029L55.292 43.4434Z" fill="#7E4F1F"/>
<path d="M56.6477 33.6717C61.2871 33.6622 65.0542 37.4203 65.0565 42.0721C65.062 42.8339 64.4499 43.437 63.6882 43.4424L62.4977 43.4478C62.5639 43.3046 62.6054 43.1471 62.6097 42.9682C62.6 39.1861 59.5331 36.1291 55.7581 36.1265C55.5916 36.1293 55.4232 36.164 55.2847 36.2324L55.2793 35.042C55.2739 34.2803 55.8931 33.6648 56.6477 33.6717Z" fill="#A16125"/>
<path d="M29.5608 41.7974L35.9058 36.2916C36.4731 35.7946 36.5442 34.9287 36.0472 34.3614C33.0071 30.8581 27.6997 30.4819 24.1965 33.5221C23.6292 34.0191 23.558 34.885 24.055 35.4523L29.5608 41.7974Z" fill="#6E451B"/>
<path d="M24.1773 33.5263C27.6806 30.4861 32.9879 30.8623 36.028 34.3655C36.5251 34.9328 36.4663 35.8059 35.8866 36.2958L34.9885 37.0801C34.9467 36.924 34.8659 36.7784 34.7584 36.6504C32.2804 33.8015 27.9542 33.497 25.0929 35.9678C24.9649 36.0753 24.8668 36.2166 24.8006 36.3598L24.0163 35.4617C23.546 34.8768 23.61 34.0233 24.1773 33.5263Z" fill="#915821"/>
<path d="M22.0799 43.0176L25.6213 35.3984C25.9379 34.7072 25.6475 33.8964 24.9563 33.5797C20.7419 31.6248 15.7507 33.4431 13.7957 37.6575C13.4791 38.3487 13.7696 39.1596 14.4608 39.4762L22.0799 43.0176Z" fill="#7E4F1F"/>
<path d="M13.7954 37.6576C15.7504 33.4432 20.7415 31.6249 24.9559 33.5799C25.6471 33.8965 25.9376 34.7073 25.621 35.3986L25.1149 36.4751C25.0074 36.3471 24.8856 36.2438 24.73 36.1705C21.3006 34.5698 17.225 36.0591 15.6366 39.4957C15.5633 39.6513 15.5342 39.8159 15.537 39.9824L14.4605 39.4763C13.7888 39.1545 13.4859 38.3365 13.7954 37.6576Z" fill="#A16125"/>
<path d="M44.0678 50.0894L50.4466 44.5537C51.014 44.0566 51.0852 43.1907 50.5758 42.6163C47.5109 39.0987 42.184 38.7278 38.6612 41.7732C38.0939 42.2702 38.0228 43.1361 38.5322 43.7105L44.0678 50.0894Z" fill="#7E4F1F"/>
<path d="M38.6627 41.7736C42.1802 38.7087 47.5195 39.0868 50.5772 42.6167C51.0742 43.184 51.0154 44.0571 50.4481 44.5541L49.55 45.3384C49.5082 45.1823 49.4274 45.0367 49.3199 44.9087C46.8243 42.0331 42.4786 41.7339 39.603 44.2295C39.475 44.3369 39.3769 44.4782 39.3108 44.6214L38.5265 43.7233C38.0242 43.1365 38.083 42.2635 38.6627 41.7736Z" fill="#A16125"/>
<path d="M52.1248 53.2075L59.2326 48.637C59.8651 48.227 60.0567 47.3811 59.6415 46.7292C57.1258 42.8031 51.8963 41.6638 47.9631 44.1918C47.3306 44.6018 47.139 45.4476 47.5542 46.0996L52.1248 53.2075Z" fill="#6E451B"/>
<path d="M47.9794 44.2005C51.9055 41.6848 57.1227 42.817 59.6579 46.7378C60.0678 47.3703 59.8886 48.2234 59.249 48.6457L58.2506 49.2896C58.2283 49.1283 58.1741 48.965 58.0861 48.8318C56.026 45.6305 51.7751 44.7099 48.5738 46.77C48.4211 46.8632 48.3178 46.985 48.2393 47.121L47.5953 46.1226C47.1554 45.4563 47.3346 44.6033 47.9794 44.2005Z" fill="#915821"/>
<path d="M57.9386 54.6011L66.3848 54.5962C67.1466 54.5907 67.7658 53.9752 67.7603 53.2135C67.7528 48.5422 63.9733 44.7769 59.3091 44.7721C58.5474 44.7776 57.9282 45.3931 57.9336 46.1548L57.9386 54.6011Z" fill="#7E4F1F"/>
<path d="M59.3096 44.7721C63.9809 44.7646 67.7532 48.5422 67.7608 53.2135C67.7662 53.9753 67.147 54.5907 66.3853 54.5962L65.1825 54.5944C65.2487 54.4512 65.2901 54.2937 65.2944 54.1148C65.2918 50.3204 62.2073 47.2367 58.4129 47.2393C58.2464 47.2421 58.0779 47.2768 57.9395 47.3453L57.9412 46.1425C57.9286 45.3931 58.5479 44.7776 59.3096 44.7721Z" fill="#A16125"/>
<path d="M33.4741 49.4155L39.8529 43.8799C40.4202 43.3828 40.4914 42.5169 39.982 41.9425C36.9171 38.4249 31.5903 38.054 28.0675 41.0993C27.5002 41.5964 27.429 42.4623 27.9384 43.0367L33.4741 49.4155Z" fill="#6E451B"/>
<path d="M28.0739 41.0861C31.5914 38.0212 36.9306 38.3993 39.9884 41.9292C40.4854 42.4965 40.4266 43.3696 39.8593 43.8666L38.9612 44.6509C38.9194 44.4948 38.8386 44.3492 38.7311 44.2212C36.2355 41.3456 31.8897 41.0464 29.0142 43.542C28.8862 43.6494 28.7881 43.7907 28.7219 43.9339L27.9376 43.0358C27.4478 42.4562 27.4994 41.5955 28.0739 41.0861Z" fill="#915821"/>
<path d="M26.1112 51.3481L29.674 43.6919C29.9906 43.0007 29.7002 42.1898 29.009 41.8732C24.7822 39.9111 19.752 41.7399 17.7899 45.9666C17.4733 46.6579 17.7637 47.4687 18.4549 47.7853L26.1112 51.3481Z" fill="#7E4F1F"/>
<path d="M17.7759 45.9586C19.738 41.7318 24.7558 39.8959 28.995 41.8651C29.6862 42.1817 29.989 42.9997 29.66 43.6838L29.1539 44.7604C29.0464 44.6323 28.9246 44.5291 28.7691 44.4557C25.3201 42.8602 21.2321 44.3425 19.6295 47.8038C19.5562 47.9594 19.5271 48.124 19.5299 48.2905L18.4533 47.7844C17.7621 47.4678 17.4593 46.6498 17.7759 45.9586Z" fill="#A16125"/>
<path d="M18.5448 50.8882L22.1076 43.2319C22.4242 42.5407 22.1338 41.7299 21.4426 41.4132C17.2158 39.4512 12.1856 41.2799 10.2235 45.5067C9.90686 46.1979 10.1973 47.0087 10.8885 47.3254L18.5448 50.8882Z" fill="#7E4F1F"/>
<path d="M10.2154 45.4859C12.1775 41.2592 17.1953 39.4232 21.4344 41.3925C22.1257 41.7091 22.4285 42.5271 22.0995 43.2112L21.5934 44.2877C21.4859 44.1597 21.3641 44.0564 21.2085 43.9831C17.7596 42.3876 13.6716 43.8698 12.0689 47.3312C11.9956 47.4867 11.9666 47.6513 11.9694 47.8179L10.8928 47.3117C10.2016 46.9951 9.89876 46.1772 10.2154 45.4859Z" fill="#A16125"/>
<path d="M37.5171 58.3462L43.8959 52.8105C44.4632 52.3135 44.5343 51.4476 44.0249 50.8731C40.9601 47.3555 35.6332 46.9846 32.1105 50.03C31.5432 50.527 31.472 51.3929 31.9814 51.9674L37.5171 58.3462Z" fill="#7E4F1F"/>
<path d="M32.1097 50.0304C35.6272 46.9655 40.9664 47.3436 44.0242 50.8735C44.5212 51.4408 44.4624 52.3139 43.8951 52.8109L42.997 53.5952C42.9552 53.4391 42.8744 53.2935 42.7669 53.1655C40.2713 50.29 35.9255 49.9907 33.05 52.4863C32.922 52.5938 32.8239 52.735 32.7577 52.8782L31.9735 51.9802C31.4712 51.3934 31.5424 50.5274 32.1097 50.0304Z" fill="#A16125"/>
<path d="M48.4389 60.5947L54.8177 55.059C55.385 54.562 55.4562 53.6961 54.9468 53.1216C51.8819 49.6041 46.5551 49.2332 43.0323 52.2785C42.465 52.7756 42.3939 53.6415 42.9033 54.2159L48.4389 60.5947Z" fill="#6E451B"/>
<path d="M43.032 52.2785C46.5496 49.2136 51.8887 49.5917 54.9465 53.1216C55.4435 53.6889 55.3847 54.5619 54.8174 55.059L53.9194 55.8433C53.8775 55.6872 53.7967 55.5416 53.6892 55.4135C51.1936 52.538 46.8478 52.2388 43.9723 54.7343C43.8443 54.8418 43.7462 54.9831 43.68 55.1263L42.8958 54.2282C42.3935 53.6414 42.4576 52.7879 43.032 52.2785Z" fill="#915821"/>
<path d="M53.7628 62.1685L62.209 62.1635C62.9708 62.1581 63.59 61.5426 63.5845 60.7809C63.577 56.1095 59.7975 52.3443 55.1333 52.3395C54.3716 52.345 53.7524 52.9604 53.7578 53.7222L53.7628 62.1685Z" fill="#7E4F1F"/>
<path d="M55.1338 52.3395C59.8051 52.332 63.5775 56.1096 63.585 60.7809C63.5905 61.5426 62.9713 62.1581 62.2095 62.1636L61.0067 62.1618C61.0729 62.0186 61.1143 61.8611 61.1187 61.6822C61.1161 57.8878 58.0316 54.8041 54.2371 54.8067C54.0706 54.8095 53.9021 54.8442 53.7637 54.9127L53.7655 53.7098C53.7529 52.9605 54.3721 52.345 55.1338 52.3395Z" fill="#A16125"/>
<path d="M27.9995 59.2329L34.3783 53.6972C34.9456 53.2002 35.0168 52.3343 34.5074 51.7598C31.4425 48.2423 26.1157 47.8713 22.5929 50.9167C22.0256 51.4137 21.9544 52.2796 22.4638 52.8541L27.9995 59.2329Z" fill="#6E451B"/>
<path d="M22.5924 50.9167C26.1099 47.8518 31.4491 48.2299 34.5069 51.7598C35.0039 52.3271 34.9451 53.2001 34.3778 53.6972L33.4797 54.4814C33.4379 54.3254 33.3571 54.1798 33.2496 54.0517C30.754 51.1762 26.4082 50.877 23.5327 53.3725C23.4047 53.48 23.3066 53.6213 23.2404 53.7645L22.4561 52.8664C21.9539 52.2796 22.0127 51.4066 22.5924 50.9167Z" fill="#915821"/>
<path d="M20.4862 60.4531L24.049 52.7969C24.3656 52.1056 24.0752 51.2948 23.384 50.9782C19.1572 49.0161 14.127 50.8448 12.1649 55.0716C11.8483 55.7628 12.1387 56.5737 12.8299 56.8903L20.4862 60.4531Z" fill="#7E4F1F"/>
<path d="M12.168 55.0719C14.1301 50.8451 19.148 49.0092 23.3871 50.9784C24.0783 51.2951 24.3811 52.113 24.0521 52.7971L23.546 53.8737C23.4385 53.7456 23.3168 53.6424 23.1612 53.569C19.7122 51.9736 15.6243 53.4558 14.0216 56.9171C13.9483 57.0727 13.9192 57.2373 13.922 57.4038L12.8455 56.8977C12.1419 56.5739 11.839 55.7559 12.168 55.0719Z" fill="#A16125"/>
<path d="M37.5854 67.4561L43.9642 61.9204C44.5315 61.4234 44.6027 60.5574 44.0933 59.983C41.0284 56.4654 35.7016 56.0945 32.1788 59.1399C31.6115 59.6369 31.5403 60.5028 32.0497 61.0772L37.5854 67.4561Z" fill="#7E4F1F"/>
<path d="M32.1777 59.1388C35.6953 56.074 41.0345 56.452 44.0922 59.9819C44.5892 60.5492 44.5304 61.4223 43.9631 61.9193L43.065 62.7036C43.0232 62.5475 42.9424 62.4019 42.8349 62.2739C40.3394 59.3984 35.9936 59.0991 33.1252 61.5823C32.9972 61.6898 32.8991 61.8311 32.8329 61.9743L32.0486 61.0762C31.5516 60.5089 31.6104 59.6359 32.1777 59.1388Z" fill="#A16125"/>
<path d="M46.7456 68.8184L53.1244 63.2827C53.6917 62.7857 53.7629 61.9197 53.2535 61.3453C50.1886 57.8277 44.8618 57.4568 41.339 60.5022C40.7717 60.9992 40.7005 61.8651 41.2099 62.4396L46.7456 68.8184Z" fill="#6E451B"/>
<path d="M41.3521 60.5104C44.8697 57.4455 50.2089 57.8236 53.2667 61.3535C53.7637 61.9208 53.7048 62.7939 53.1375 63.2909L52.2395 64.0752C52.1977 63.9191 52.1168 63.7735 52.0093 63.6455C49.5138 60.7699 45.168 60.4707 42.2924 62.9663C42.1644 63.0737 42.0664 63.215 42.0002 63.3582L41.2159 62.4602C40.7137 61.8734 40.7725 61.0003 41.3521 60.5104Z" fill="#915821"/>
<path d="M49.0137 69.9626L57.3076 71.5353C58.0546 71.6698 58.7813 71.1823 58.9157 70.4354C59.7793 65.8547 56.7751 61.4322 52.1945 60.5686C51.4475 60.4342 50.7208 60.9217 50.5864 61.6686L49.0137 69.9626Z" fill="#7E4F1F"/>
<path d="M52.1937 60.5696C56.7744 61.4332 59.7909 65.8628 58.9149 70.4363C58.7805 71.1833 58.0538 71.6707 57.3069 71.5363L56.1298 71.3185C56.2207 71.1896 56.2941 71.0341 56.3232 70.8694C57.0271 67.1366 54.5755 63.5279 50.8427 62.8239C50.6781 62.7949 50.5115 62.7977 50.3555 62.8395L50.5733 61.6624C50.7272 60.9103 51.4539 60.4228 52.1937 60.5696Z" fill="#A16125"/>
<path d="M28.8491 67.5566L35.2279 62.0209C35.7952 61.5239 35.8664 60.658 35.357 60.0835C32.2921 56.566 26.9653 56.1951 23.4425 59.2404C22.8752 59.7375 22.804 60.6034 23.3134 61.1778L28.8491 67.5566Z" fill="#6E451B"/>
<path d="M23.4406 59.2399C26.9581 56.175 32.2973 56.5531 35.3551 60.083C35.8521 60.6503 35.7933 61.5234 35.226 62.0204L34.3279 62.8047C34.2861 62.6486 34.2053 62.503 34.0978 62.375C31.6022 59.4994 27.2564 59.2002 24.3809 61.6958C24.2529 61.8032 24.1548 61.9445 24.0886 62.0877L23.3044 61.1896C22.8145 60.61 22.8733 59.7369 23.4406 59.2399Z" fill="#915821"/>
<path d="M24.0897 68.438L27.6525 60.7817C27.9691 60.0905 27.6787 59.2797 26.9874 58.9631C22.7607 57.001 17.7305 58.8297 15.7684 63.0565C15.4518 63.7477 15.7422 64.5586 16.4335 64.8752L24.0897 68.438Z" fill="#7E4F1F"/>
<path d="M15.7564 63.0475C17.7185 58.8207 22.7363 56.9848 26.9755 58.954C27.6667 59.2706 27.9695 60.0886 27.6405 60.7727L27.1344 61.8493C27.0269 61.7212 26.9051 61.6179 26.7496 61.5446C23.3006 59.9491 19.2126 61.4314 17.61 64.8927C17.5367 65.0483 17.5076 65.2129 17.5104 65.3794L16.4338 64.8733C15.7426 64.5567 15.4398 63.7387 15.7564 63.0475Z" fill="#A16125"/>
<path d="M41.7333 74.0713L50.0981 72.865C50.8533 72.7567 51.3754 72.0523 51.26 71.3095C50.5968 66.6884 46.3101 63.4878 41.7013 64.1582C40.9462 64.2664 40.424 64.9709 40.5394 65.7136L41.7333 74.0713Z" fill="#5E3C16"/>
<path d="M41.6872 64.1491C46.3083 63.4859 50.5827 66.6794 51.2459 71.3005C51.3541 72.0556 50.8391 72.7477 50.084 72.856L48.8964 73.0278C48.9378 72.8704 48.9669 72.7057 48.9322 72.5373C48.3839 68.7741 44.8933 66.1651 41.1301 66.7135C40.9688 66.7358 40.8108 66.8095 40.6652 66.8903L40.5181 65.717C40.4099 64.9619 40.932 64.2574 41.6872 64.1491Z" fill="#6E451B"/>
<path d="M32.3431 73.1685L33.2379 64.7634C33.3157 64.0003 32.7802 63.3283 32.017 63.2505C27.3763 62.748 23.2197 66.12 22.7243 70.7484C22.6465 71.5115 23.182 72.1835 23.9452 72.2613L32.3431 73.1685Z" fill="#5E3C16"/>
<path d="M22.731 70.7694C23.2335 66.1287 27.3829 62.769 32.0237 63.2715C32.7868 63.3493 33.3347 64.0284 33.2446 64.7844L33.1152 65.9796C32.9792 65.901 32.8165 65.8401 32.6519 65.811C28.8752 65.4116 25.4866 68.1387 25.08 71.9277C25.0633 72.0995 25.0856 72.2608 25.147 72.4116L23.9518 72.2823C23.1958 72.1921 22.6479 71.513 22.731 70.7694Z" fill="#6E451B"/>
<path d="M36.8798 73.875L43.5212 68.6558C44.1185 68.1926 44.2215 67.3286 43.7459 66.7242C40.8624 63.0639 35.558 62.4256 31.8854 65.302C31.2881 65.7652 31.1851 66.6293 31.6606 67.2337L36.8798 73.875Z" fill="#5E3C16"/>
<path d="M31.899 65.3101C35.5593 62.4266 40.876 63.072 43.7596 66.7322C44.2228 67.3295 44.1197 68.1935 43.5348 68.6639L42.5944 69.4072C42.5526 69.2512 42.4913 69.1003 42.3909 68.9599C40.0429 65.9717 35.7105 65.4493 32.7223 67.7973C32.5943 67.9048 32.4839 68.039 32.4177 68.1821L31.6743 67.2418C31.1987 66.6373 31.3018 65.7733 31.899 65.3101Z" fill="#6E451B"/>
<path d="M41.7324 74.0718L32.3424 73.169L32.1074 68.6632L37.5865 67.4565L42.9049 70.527L41.7324 74.0718Z" fill="#5E3C16"/>
<path d="M33.1314 72.0599L39.5995 72.515L39.1966 78.2422L32.7285 77.7871L33.1314 72.0599Z" fill="#5E3C16"/>
</svg>
