<svg width="77" height="77" viewBox="0 0 77 77" fill="none" xmlns="http://www.w3.org/2000/svg">
<path fill-rule="evenodd" clip-rule="evenodd" d="M63.8977 39.0022C63.8977 52.7702 52.7419 63.9178 39 63.9205C25.2581 63.9233 14.1023 52.7801 14.1023 39.0122C14.1023 25.2442 25.2581 14.0966 39 14.0939C52.7419 14.0911 63.8977 25.2343 63.8977 39.0022ZM39 75.0072C58.891 75.0032 75 58.8736 75 39C75 19.1264 58.891 3.00322 39 3.00719C19.1091 3.01117 3 19.1408 3 39.0144C3 58.8879 19.1091 75.0112 39 75.0072Z" fill="black"/>
<path fill-rule="evenodd" clip-rule="evenodd" d="M67.5127 44.2144C67.2098 44.3637 66.6766 44.6264 65.9359 45.0706C64.853 45.7132 64.5823 46.3557 64.4131 46.6939C64.3116 47.0321 64.2439 47.9453 64.9545 48.4862C65.1576 48.6216 65.7328 48.926 66.3419 48.6892C66.0374 49.6024 65.6651 50.4817 65.2591 51.3272C64.9545 51.3609 64.3455 51.4963 63.3979 51.7668C62.1797 52.1388 61.7398 52.6799 61.5706 53.0181C61.4014 53.3563 61.0969 54.2018 61.6383 54.9119C61.7737 55.1148 62.2474 55.5207 62.8904 55.4869C62.3489 56.2647 61.7737 57.0426 61.1645 57.7528C60.9553 57.7319 60.6424 57.698 60.202 57.6831C59.9304 57.6741 59.6101 57.6722 59.2357 57.6851C57.9837 57.719 57.4085 58.1247 57.1377 58.4292C56.9009 58.6997 56.3933 59.4099 56.7317 60.2554C56.8331 60.4921 57.1715 60.9993 57.8145 61.1348C57.0701 61.7434 56.3256 62.3184 55.5473 62.8594C55.2766 62.7242 54.6675 62.5212 53.72 62.2846C52.5018 61.9802 51.8588 62.2507 51.5204 62.4537C51.2159 62.6228 50.5391 63.2315 50.6407 64.1108C50.6745 64.3476 50.8775 64.9563 51.4528 65.2268C50.6068 65.6326 49.7608 66.0047 48.8472 66.3429C48.5765 66.1399 48.0689 65.8018 47.189 65.3283C46.0724 64.7195 45.3956 64.7872 45.0234 64.9224C44.685 65.024 43.8729 65.4297 43.7375 66.309C43.7037 66.5458 43.7713 67.1545 44.245 67.5941C43.3314 67.7632 42.3839 67.8986 41.4364 67.9661C41.2334 67.7295 40.8274 67.2559 40.1167 66.5795C39.2031 65.7004 38.5263 65.5988 38.1202 65.6327C37.7818 65.6665 36.902 65.8356 36.5297 66.6472C36.4283 66.8502 36.2929 67.4589 36.6651 68C35.7176 67.9323 34.7701 67.7971 33.8565 67.628C33.7212 67.3575 33.4504 66.7825 32.9429 65.937C32.2661 64.8549 31.6231 64.5504 31.2509 64.4828C30.9125 64.3813 30.0327 64.3137 29.4574 65.024C29.3221 65.1931 29.0514 65.7679 29.2544 66.3767C28.3407 66.0722 27.461 65.7004 26.615 65.2945C26.5811 64.9563 26.4458 64.3476 26.1751 63.4005C25.8028 62.183 25.2614 61.7434 24.923 61.5743C24.5846 61.4052 23.7387 61.1009 23.028 61.642C22.8249 61.7773 22.4189 62.2507 22.4528 62.8933C21.6745 62.3521 20.8961 61.7773 20.1856 61.1684C20.2194 60.8641 20.287 60.2554 20.2532 59.2747C20.2532 57.9895 19.8472 57.4483 19.5426 57.1778C19.3057 56.941 18.5613 56.4338 17.7153 56.7719C17.4785 56.8396 16.9709 57.1778 16.8355 57.8204C16.2263 57.1101 15.6511 56.3662 15.1097 55.5883C15.2112 55.2839 15.4142 54.6752 15.6511 53.7282C15.9557 52.5108 15.685 51.8682 15.4819 51.53C15.3127 51.2256 14.7036 50.5492 13.8238 50.6508C13.587 50.6508 12.9778 50.8874 12.7071 51.4624C12.3011 50.5831 11.9627 49.7376 11.6243 48.8244C11.8273 48.5878 12.1657 48.0466 12.6395 47.2012C13.2486 46.0852 13.1808 45.375 13.0455 45.0029C12.9102 44.6647 12.5379 43.8531 11.6581 43.7178C11.4212 43.684 10.8121 43.7178 10.3723 44.2251C10.2031 43.312 10.0677 42.3651 10 41.418L10.0012 41.417C10.2385 41.2138 10.7119 40.808 11.3874 40.0991C12.2672 39.1859 12.4026 38.5096 12.3687 38.1038C12.3687 37.7318 12.1995 36.8524 11.3874 36.5142C11.1505 36.4129 10.5415 36.2776 10 36.6495C10.0677 35.7026 10.2031 34.7557 10.5076 33.8764L10.6227 33.8194C10.9256 33.6702 11.4588 33.4074 12.1995 32.9632C13.2824 32.2868 13.587 31.6443 13.6546 31.2723C13.7562 30.9341 13.8238 30.0211 13.1132 29.4799C12.9102 29.3108 12.3349 29.0402 11.7258 29.2431C12.0303 28.3301 12.4026 27.4508 12.8087 26.6053C13.1132 26.5714 13.7223 26.4362 14.6698 26.1655C15.888 25.7936 16.3279 25.2525 16.4971 24.9143C16.6663 24.5761 16.9709 23.7306 16.4294 23.0204C16.2941 22.8175 15.8203 22.4117 15.1774 22.4454C15.7188 21.6676 16.2941 20.8899 16.9031 20.1796C17.2415 20.2472 17.8506 20.281 18.832 20.2472C20.084 20.2472 20.6593 19.8414 20.93 19.5371C21.1669 19.3003 21.6745 18.5562 21.3361 17.7107C21.2345 17.4741 20.8961 16.9668 20.2532 16.8315C20.9638 16.2227 21.7083 15.6479 22.4866 15.1067C22.7573 15.2081 23.3664 15.4111 24.3139 15.6479C25.5321 15.9522 26.1751 15.6816 26.5134 15.4788C26.818 15.3097 27.4947 14.7008 27.3932 13.8215C27.3594 13.5849 27.1564 12.976 26.5811 12.7055C27.4271 12.2996 28.2731 11.9614 29.1867 11.6233C29.4574 11.8262 29.965 12.1644 30.8449 12.6378C31.9615 13.2467 32.6383 13.179 33.0105 13.0437C33.3489 12.9423 34.161 12.5364 34.2964 11.6571C34.3302 11.4205 34.2625 10.8116 33.7888 10.372C34.7025 10.2029 35.65 10.0677 36.5975 10C36.8005 10.2368 37.2065 10.7102 37.9172 11.3866C38.8308 12.266 39.5076 12.3673 39.9136 12.3673C40.252 12.3673 41.1319 12.1982 41.4364 11.488C41.5379 11.2514 41.6733 10.6425 41.3011 10.1014L41.3075 10.1019C42.2529 10.2033 43.1982 10.3047 44.1097 10.4734L44.1666 10.5882C44.3159 10.8909 44.5787 11.4238 45.0234 12.1644C45.7001 13.2467 46.343 13.551 46.7153 13.6187C47.0537 13.7201 47.9335 13.7878 48.5088 13.0776C48.6441 12.9085 48.9148 12.3335 48.7118 11.7248C49.6255 12.0292 50.5053 12.4012 51.3512 12.8069C51.3851 13.1114 51.5204 13.7201 51.7912 14.667C52.1634 15.8845 52.7048 16.3243 53.0432 16.4934C53.3816 16.6625 54.2275 16.9668 54.9382 16.4257C55.1412 16.2904 55.5473 15.817 55.5134 15.1743C56.2918 15.7154 57.0701 16.2904 57.7806 16.8991C57.7469 17.2373 57.6791 17.8461 57.713 18.8269C57.713 20.1119 58.1529 20.6531 58.4236 20.9235C58.6605 21.1603 59.4049 21.6676 60.2509 21.3294C60.4878 21.2281 60.9953 20.8899 61.1308 20.2472C61.7398 20.9574 62.3151 21.7015 62.8565 22.4793C62.755 22.7499 62.552 23.3586 62.3151 24.3055C62.0444 25.523 62.2812 26.1655 62.4843 26.5037C62.6535 26.8082 63.2625 27.4846 64.1424 27.3831C64.3792 27.3492 64.9545 27.1464 65.2591 26.5714C65.6651 27.4508 66.0035 28.2962 66.3419 29.2093C66.1389 29.4461 65.8005 29.9872 65.3268 30.8327C64.7176 31.9487 64.7853 32.625 64.9207 32.9971C65.0222 33.3353 65.4283 34.1469 66.3081 34.2821C66.545 34.316 67.154 34.2485 67.5939 33.7749C67.7631 34.688 67.8986 35.6349 67.9662 36.582L67.965 36.5829C67.7277 36.7862 67.2543 37.192 66.5788 37.9009C65.699 38.8141 65.5636 39.4904 65.5975 39.8962C65.6313 40.2344 65.8005 41.1137 66.6127 41.4857C66.8495 41.5871 67.4586 41.7224 68 41.3505C67.9324 41.9815 67.8648 42.6124 67.777 43.2333C67.7332 43.5443 67.6842 43.8528 67.6278 44.1574L67.5127 44.2144ZM39 44C42 44 44 41.6149 44 39C44 36.3851 42 34 39.1015 34C36 34 34 36.3851 34 39C34 41.6149 36 44 39 44Z" fill="url(#paint0_radial)"/>
<path fill-rule="evenodd" clip-rule="evenodd" d="M39 64C52.8071 64 64 52.8072 64 39C64 25.1928 52.8071 14 39 14C25.1929 14 14 25.1928 14 39C14 52.8072 25.1929 64 39 64ZM39 43.8611C41.6847 43.8611 43.8611 41.6847 43.8611 39C43.8611 36.3153 41.6847 34.1389 39 34.1389C36.3153 34.1389 34.1389 36.3153 34.1389 39C34.1389 41.6847 36.3153 43.8611 39 43.8611Z" fill="url(#paint1_angular)"/>
<defs>
<radialGradient id="paint0_radial" cx="0" cy="0" r="1" gradientUnits="userSpaceOnUse" gradientTransform="translate(39.0032 38.9809) scale(29.0005 28.9836)">
<stop offset="0.2527" stop-color="#2E2E2E"/>
<stop offset="0.7903" stop-color="#373737"/>
<stop offset="0.8387" stop-color="#838383"/>
<stop offset="0.9409" stop-color="#9E9E9E"/>
<stop offset="0.9731" stop-color="#DEDEDE"/>
<stop offset="1" stop-color="#787878"/>
</radialGradient>
<radialGradient id="paint1_angular" cx="0" cy="0" r="1" gradientUnits="userSpaceOnUse" gradientTransform="translate(39 39) rotate(90) scale(25)">
<stop stop-color="#C4C4C4"/>
<stop offset="0.246705" stop-color="#525252"/>
<stop offset="0.489583" stop-color="#C4C4C4"/>
<stop offset="0.749722" stop-color="#525252"/>
<stop offset="1" stop-color="#C4C4C4"/>
</radialGradient>
</defs>
</svg>
