<svg width="69" height="77" viewBox="0 0 69 77" fill="none" xmlns="http://www.w3.org/2000/svg">
<path d="M10.307 71.7551C7.54562 71.7551 5.30704 69.5165 5.30704 66.7551V32.5061C5.30704 32.355 5.31389 32.204 5.32758 32.0535C5.72958 27.6315 7.44847 21.0474 11.7935 15.4424C16.3021 9.62634 23.4822 5.10547 34.0036 5.10547C46.9666 5.10547 54.7499 11.1522 59.0607 17.9919C63.1549 24.4882 63.9961 31.4461 63.9961 33.9872C63.9961 36.0451 63.8336 40.4933 61.1155 44.4845C58.8325 47.8367 55.2177 50.2282 50.1114 51.1531V66.7551C50.1114 69.5165 47.8728 71.7551 45.1114 71.7551H10.307Z" fill="#C74145" stroke="black" stroke-width="10" stroke-linecap="round" stroke-linejoin="round"/>
<path d="M36.2245 29.9127C42.741 29.9127 44.7404 35.4666 44.9256 38.2435L45.1184 46.5673C57.7073 47.1597 59.5511 38.7989 59.5508 33.9855C59.5508 18.5828 46.6143 11.6929 40.2308 10.6953C38.3795 11.1273 33.4475 13.0659 28.2639 17.509C23.0803 21.9521 21.229 30.1442 21.229 33.8004V43.5742C21.229 44.6914 21.7793 45.4636 23.0803 45.4636C23.8208 45.4636 24.3762 44.4762 24.5613 43.9825C25.4252 41.9461 27.2412 37.1608 29.1895 33.9855C31.0258 30.993 34.5583 29.9744 36.2245 29.9127Z" fill="#FF504F"/>
</svg>
