<svg width="77" height="77" viewBox="0 0 77 77" fill="none" xmlns="http://www.w3.org/2000/svg">
<path d="M17.5151 39.9605C15.1356 38.7024 12.5382 37.0345 11.1438 34.4084L11.1437 34.4084L11.1373 34.3959C10.0076 32.1942 10.22 29.9525 10.8531 27.9185C11.3124 26.4429 12.0355 24.9639 12.6825 23.6407C12.9055 23.1845 13.1195 22.7468 13.3105 22.3341L13.3147 22.3251L13.319 22.3162C13.42 22.1089 13.5228 21.894 13.6282 21.6737C14.2676 20.3374 15.0015 18.8035 15.9912 17.5726C17.1902 16.0813 18.8345 14.9381 21.2292 14.9381C24.1955 14.9381 26.8994 16.9413 28.6305 18.8489L28.6322 18.8509L29.5943 19.9168C30.0628 17.3153 30.8822 14.4151 32.8672 12.3597L32.8693 12.3576C34.4537 10.7269 36.4092 10.1437 38.3567 10.0246C40.1514 9.91482 42.0227 10.1966 43.6662 10.4441C43.7716 10.46 43.876 10.4757 43.9794 10.4912C44.3934 10.5453 44.847 10.5926 45.3242 10.6424C46.6247 10.7781 48.1004 10.9321 49.4265 11.2919C51.3079 11.8025 53.1475 12.7803 54.1995 14.8782C55.7463 17.9628 54.5713 21.5897 53.1297 24.111L52.4988 25.2993C55.1299 24.9386 58.1242 24.8152 60.7416 26.0433L60.7417 26.0433L60.7527 26.0486C64.32 27.7763 65.2492 31.5158 65.7718 34.5552C65.9088 35.3405 66.0726 36.1232 66.2404 36.925C66.2829 37.1279 66.3256 37.3321 66.3682 37.5378C66.5771 38.5462 66.7808 39.5817 66.9174 40.6257L66.9186 40.6352L66.9197 40.6447C67.1041 42.3 67.0392 44.3224 65.9844 46.0053L65.9844 46.0053L65.98 46.0122C64.8791 47.7372 63.1453 48.6606 61.3445 49.061C59.5631 49.457 57.6496 49.3603 56.0093 48.991L54.6771 48.7813C55.1661 49.7689 55.6292 50.8232 55.9777 51.9079C56.5447 53.6732 56.8328 55.5928 56.3844 57.4919C55.9197 59.6387 54.5864 61.1547 53.0659 62.3064C51.8127 63.2557 50.3528 64.0126 49.0672 64.679C48.8168 64.8088 48.5731 64.9352 48.3387 65.0589L48.3349 65.0609C47.8939 65.2912 47.4497 65.5442 46.9831 65.8105L46.9522 65.8281C46.5003 66.086 46.0277 66.3556 45.5447 66.6102C44.5578 67.1305 43.4762 67.6164 42.291 67.8626L42.2827 67.8643L42.2742 67.8659C40.1672 68.2661 37.9186 67.7737 36.2595 66.3262L36.2594 66.3263L36.249 66.317C34.2332 64.508 33.3976 61.6902 33.1215 59.3296L32.9069 57.9748C31.5876 59.2329 30.062 60.4745 28.3927 61.311C26.0518 62.4841 23.3504 62.8917 20.5762 61.3829L20.572 61.3806C19.191 60.6209 18.0014 59.614 16.9049 58.5765C16.4227 58.1202 15.9492 57.6489 15.4855 57.1873C15.4221 57.1241 15.3588 57.0612 15.2958 56.9985C14.7675 56.4731 14.2488 55.9614 13.7173 55.4739L13.6934 55.452L13.671 55.4285C11.8905 53.5687 9.5504 51.0337 10.0747 47.6808C10.4334 45.3344 11.8825 43.6279 13.2387 42.4991C14.5018 41.4478 15.774 40.8242 16.2235 40.6038C16.2586 40.5866 16.2887 40.5719 16.3134 40.5596L17.5151 39.9605Z" fill="#F26869" stroke="#F26869" stroke-width="2"/>
<path fill-rule="evenodd" clip-rule="evenodd" d="M11.7597 33.4543C11.7959 33.5216 11.833 33.5883 11.8711 33.6543C12.4591 34.6749 13.2594 35.537 14.172 36.2859C15.7967 37.6192 17.7774 38.5939 19.5501 39.4662L16.5401 40.9474C16.5142 40.9602 16.4833 40.9752 16.4478 40.9924C15.7197 41.3452 13.0526 42.6376 11.6269 45.0167C11.2224 45.6918 10.9178 46.4544 10.7859 47.3079C10.3432 50.0961 12.2908 52.2743 14.1499 54.1912C14.7696 54.7523 15.3684 55.3407 15.9659 55.9277C17.5023 57.4374 19.0295 58.938 20.878 59.9418C22.4775 60.8004 24.0483 60.9539 25.5497 60.6555C26.5704 60.4526 27.559 60.0408 28.5027 59.4997C28.6633 59.4076 28.8226 59.3118 28.9806 59.2126C30.6849 58.1424 32.2302 56.6818 33.5374 55.3239L34.0685 58.6348C34.3068 60.6675 34.9728 62.9107 36.3862 64.483C36.548 64.663 36.7195 64.8342 36.9014 64.9953C38.3178 66.2151 40.2654 66.6507 42.1245 66.3022C43.7084 65.9775 45.1447 65.1684 46.5435 64.3806C47.021 64.1116 47.4941 63.8451 47.9673 63.6012C48.2171 63.471 48.4725 63.3402 48.7311 63.2078C51.5884 61.7442 54.85 60.0736 55.5806 56.7179C55.6304 56.5111 55.6702 56.3032 55.7006 56.0945C55.8571 55.0201 55.7657 53.9248 55.5177 52.8405C55.4583 52.5805 55.3898 52.3211 55.3136 52.0628C54.7814 50.2593 53.8717 48.5082 53.0133 46.9594L56.3774 47.4822C58.3903 47.935 60.8143 47.9466 62.7753 47.1107C63.8329 46.6599 64.7558 45.9627 65.4071 44.9554C66.2924 43.5613 66.3809 41.8187 66.2039 40.2504C66.0445 39.048 65.7896 37.8456 65.5346 36.6432C65.3646 35.8416 65.1947 35.04 65.053 34.2384C64.5219 31.1889 63.6366 27.9651 60.5381 26.4839C60.5241 26.4774 60.51 26.4709 60.4959 26.4645C59.4304 25.9782 58.2882 25.7302 57.1201 25.6357C56.9891 25.6251 56.8578 25.6165 56.7262 25.6096C54.7258 25.5055 52.6666 25.8205 50.8002 26.1354L52.3936 23.173C53.4368 21.3762 54.2399 19.1542 54.0603 17.0636C53.996 16.3156 53.8059 15.5844 53.456 14.8956C51.9354 11.9024 48.4559 11.5442 45.3728 11.2267C44.866 11.1745 44.3699 11.1234 43.895 11.0619C43.7952 11.0472 43.6949 11.0323 43.5942 11.0173C40.1364 10.5042 36.2294 9.92446 33.563 12.6043C33.5545 12.6129 33.5459 12.6216 33.5374 12.6302C32.6856 13.5008 32.0641 14.5504 31.5968 15.6818C31.5929 15.6912 31.589 15.7006 31.5852 15.71C30.7978 17.6288 30.4508 19.7801 30.1733 21.6918L27.7831 19.0779C26.4079 17.5819 24.5001 16.1442 22.4468 15.6694C21.9887 15.5635 21.5233 15.5055 21.055 15.5055C17.2745 15.5055 15.7066 18.7346 14.2972 21.6372C14.1885 21.8612 14.0807 22.0832 13.9729 22.3017C13.7612 22.753 13.5323 23.2152 13.2992 23.686C11.777 26.7599 10.0708 30.2054 11.7597 33.4543ZM26.2282 7.83317C26.5474 7.43731 26.8892 7.05071 27.2554 6.67645L27.2645 6.6672L27.2736 6.65797C30.6147 3.26347 34.6629 2.23165 37.8834 2.0372C40.5626 1.87542 43.2395 2.27959 44.7984 2.51496C44.901 2.53045 44.9987 2.5452 45.0913 2.55902C45.2024 2.57194 45.3699 2.58864 45.5825 2.60984C46.8004 2.73125 49.4998 3.00033 51.5632 3.55304C54.6315 4.3749 58.8443 6.30924 61.2563 11.057C62.4811 13.4679 62.8812 15.883 62.8083 18.1288C63.2913 18.3005 63.7731 18.4959 64.2515 18.7175L64.3001 18.74L64.3484 18.7631C71.7988 22.3247 73.1436 29.8888 73.6468 32.7772C73.7607 33.4208 73.8926 34.0435 74.0568 34.8185C74.1027 35.0353 74.1512 35.264 74.2025 35.5084C74.4189 36.54 74.6745 37.8037 74.8517 39.1402L74.8624 39.2213L74.8716 39.3025C75.1281 41.5747 75.2375 45.6702 72.8026 49.5046L72.7838 49.5342L72.7647 49.5636C70.5772 52.9469 67.3976 54.7474 64.4879 55.6171C64.4519 56.5812 64.3283 57.582 64.088 58.6072C63.0799 63.1035 60.2502 66.0059 57.8795 67.7785C56.0232 69.1665 53.8254 70.2825 52.5784 70.9157C52.3741 71.0194 52.1953 71.1102 52.0478 71.1871L52.0308 71.1959L52.0139 71.2047C51.7163 71.3581 51.3906 71.5401 50.9005 71.8161L50.8395 71.8504C50.4029 72.0964 49.8265 72.4212 49.2219 72.7358C47.9639 73.3904 46.132 74.2482 43.9032 74.7052L43.8299 74.7202L43.7563 74.734C39.5639 75.52 34.8149 74.6037 31.1585 71.4549L31.1127 71.4154L31.0673 71.3753C30.1342 70.5487 29.3514 69.6492 28.6946 68.7167C25.1887 69.7314 20.9822 69.7749 16.7019 67.4771L16.6834 67.4672L16.665 67.4572C14.4203 66.2382 12.6615 64.7202 11.3779 63.5213C10.8141 62.9947 10.2615 62.4516 9.79962 61.9976C9.73636 61.9354 9.67479 61.8749 9.61513 61.8163C9.08333 61.2943 8.65648 60.8803 8.24528 60.508L8.03696 60.3193L7.8415 60.1178C7.77907 60.0534 7.70764 59.9809 7.6283 59.9003C5.99877 58.2453 1.03198 53.2008 2.16687 45.9987C2.6058 43.1826 3.78827 40.9229 5.11622 39.1811C4.73362 38.6427 4.3763 38.073 4.05213 37.4703L4.02358 37.4173L3.99579 37.3638C1.58401 32.7243 2.25177 28.2396 3.20921 25.2032C3.87688 23.0858 5.05751 20.7159 5.70311 19.42C5.85387 19.1174 5.97545 18.8733 6.05451 18.7047L6.0906 18.6278L6.12822 18.5515C6.1875 18.4314 6.25899 18.2818 6.34225 18.1076C6.93351 16.8703 8.11869 14.3901 9.74672 12.3913C12.0054 9.61816 15.7031 6.92214 21.055 6.92214C22.9309 6.92214 24.6623 7.27414 26.2282 7.83317Z" fill="black"/>
<path d="M29 39C29 42.866 32.3579 46 36.5 46C40.6421 46 44 42.866 44 39C44 35.134 40.6421 32 36.5 32C32.3579 32 29 35.134 29 39Z" fill="#6CADB0"/>
<path d="M17 27.5C17 29.433 18.567 31 20.5 31C22.433 31 24 29.433 24 27.5C24 25.567 22.433 24 20.5 24C18.567 24 17 25.567 17 27.5Z" fill="#674965"/>
<path d="M39 19.5C39 21.433 40.567 23 42.5 23C44.433 23 46 21.433 46 19.5C46 17.567 44.433 16 42.5 16C40.567 16 39 17.567 39 19.5Z" fill="#674965"/>
<path d="M52 37.5C52 39.433 53.567 41 55.5 41C57.433 41 59 39.433 59 37.5C59 35.567 57.433 34 55.5 34C53.567 34 52 35.567 52 37.5Z" fill="#674965"/>
<path d="M41 56.5C41 58.433 42.567 60 44.5 60C46.433 60 48 58.433 48 56.5C48 54.567 46.433 53 44.5 53C42.567 53 41 54.567 41 56.5Z" fill="#674965"/>
<path d="M17 50.5C17 52.433 18.567 54 20.5 54C22.433 54 24 52.433 24 50.5C24 48.567 22.433 47 20.5 47C18.567 47 17 48.567 17 50.5Z" fill="#674965"/>
</svg>
