<svg width="135" height="134" viewBox="0 0 135 134" fill="none" xmlns="http://www.w3.org/2000/svg">
<path d="M67.3215 133.179C104.048 133.179 133.821 103.406 133.819 66.6787C133.818 29.9518 104.044 0.178705 67.3169 0.178707C30.59 0.178709 0.817936 29.9518 0.819221 66.6787C0.820506 103.406 30.5946 133.179 67.3215 133.179Z" fill="#E8E8E8"/>
<mask id="mask0" mask-type="alpha" maskUnits="userSpaceOnUse" x="1" y="0" width="134" height="134">
<path d="M67.6155 133.11C104.342 133.11 134.114 103.337 134.113 66.6103C134.112 29.8834 104.338 0.110346 67.6108 0.110348C30.8839 0.11035 1.11188 29.8834 1.11317 66.6104C1.11445 103.337 30.8886 133.11 67.6155 133.11Z" fill="#E8E8E8"/>
</mask>
<g mask="url(#mask0)">
<path fill-rule="evenodd" clip-rule="evenodd" d="M59.7175 66.1838L2.85888 123.042L12.041 132.225L78.0818 66.1838L12.041 0.143073L2.85887 9.32521L59.7175 66.1838Z" fill="#C72F2B"/>
</g>
</svg>
