<svg width="77" height="78" viewBox="0 0 77 78" fill="none" xmlns="http://www.w3.org/2000/svg">
<path d="M13.001 39.7809C13.001 25.4215 24.6416 13.7786 39.001 13.7757C53.3604 13.7728 65.001 25.4111 65.001 39.7705C65.001 54.1299 53.3604 65.7728 39.001 65.7757C24.6416 65.7786 13.001 54.1403 13.001 39.7809Z" fill="#8A510F"/>
<path d="M13.001 39.7809C13.001 25.4215 24.6416 13.7786 39.001 13.7757C53.3604 13.7728 65.001 25.4111 65.001 39.7705C65.001 54.1299 53.3604 65.7728 39.001 65.7757C24.6416 65.7786 13.001 54.1403 13.001 39.7809Z" fill="#D5D5D5"/>
<path d="M64.9975 39.7631C64.9975 25.4133 53.3647 13.7781 39.0149 13.7753C24.665 13.7724 13.0322 25.4029 13.0322 39.7527C13.0322 54.1025 24.6651 65.7377 39.0149 65.7405C53.3647 65.7434 64.9975 54.1129 64.9975 39.7631Z" fill="#E47E99"/>
<path d="M29.9531 65.8499C31.8299 67.6974 37.5535 65.6982 39.4017 67.4828L66.8105 40.074C64.9954 38.1953 66.9049 32.5919 65.0751 30.7279L29.9531 65.8499Z" fill="#951B70"/>
<path d="M14.6542 58.9008C16.4938 60.7551 18.3559 62.6173 20.2279 64.4696L63.8097 20.8878C61.9701 19.0336 60.108 17.1714 58.2586 15.327L14.6542 58.9008Z" fill="#951B70"/>
<path d="M11.6354 39.7464C13.4505 41.6252 11.4433 47.3261 13.2908 49.203L48.4325 14.0613C46.5557 12.2139 40.9523 14.1234 39.0784 12.3034L11.6354 39.7464Z" fill="#951B70"/>
<path d="M29.9503 65.848C31.8272 67.6955 37.5508 65.6963 39.399 67.4809L66.8077 40.0721C64.9927 38.1934 66.9022 32.59 65.0724 30.726L29.9503 65.848Z" fill="#951B70"/>
<path fill-rule="evenodd" clip-rule="evenodd" d="M63.8987 39.7727C63.8987 53.5407 52.7429 64.6883 39.001 64.691C25.259 64.6938 14.1032 53.5506 14.1032 39.7827C14.1032 26.0147 25.259 14.8671 39.001 14.8644C52.7429 14.8616 63.8987 26.0048 63.8987 39.7727ZM39.001 75.7777C58.8919 75.7737 75.001 59.6441 75.001 39.7705C75.001 19.8969 58.8919 3.77373 39.001 3.7777C19.11 3.78168 3.00098 19.9113 3.00098 39.7849C3.00098 59.6585 19.11 75.7817 39.001 75.7777Z" fill="black"/>
</svg>
