<svg width="77" height="77" viewBox="0 0 77 77" fill="none" xmlns="http://www.w3.org/2000/svg">
<path d="M38.6558 68.8718C55.5005 68.8718 69.1585 55.2165 69.1619 38.3718C69.1652 21.5271 55.5127 7.87183 38.668 7.87183C21.8233 7.87183 8.16524 21.5271 8.16187 38.3718C8.1585 55.2165 21.8111 68.8718 38.6558 68.8718Z" fill="#F4B4FF"/>
<path fill-rule="evenodd" clip-rule="evenodd" d="M38.6189 13.4044C24.8567 13.4044 13.6981 24.5609 13.6953 38.323C13.6926 52.0851 24.8468 63.2416 38.6089 63.2416C52.3711 63.2416 63.5297 52.0851 63.5324 38.323C63.5352 24.5609 52.381 13.4044 38.6189 13.4044ZM2.6139 38.323C2.61787 18.4407 18.7388 2.323 38.6211 2.323C58.5033 2.323 74.6179 18.4407 74.6139 38.323C74.6099 58.2052 58.4889 74.323 38.6067 74.323C18.7244 74.323 2.60992 58.2052 2.6139 38.323Z" fill="black"/>
</svg>
