<svg width="134" height="134" viewBox="0 0 134 134" fill="none" xmlns="http://www.w3.org/2000/svg">
<mask id="mask0" mask-type="alpha" maskUnits="userSpaceOnUse" x="0" y="0" width="134" height="134">
<path d="M67.2402 133.971C30.5133 133.971 0.740233 104.178 0.740231 67.4707C0.74023 30.7632 30.5133 0.970702 67.2402 0.9707C103.967 0.970699 133.74 30.7632 133.74 67.4707C133.74 104.178 103.967 133.971 67.2402 133.971Z" fill="#ED937F"/>
</mask>
<g mask="url(#mask0)">
<path d="M-11.0899 -15.5806L-11.0898 141.878L146.369 141.878L146.369 -15.5806L-11.0899 -15.5806Z" fill="url(#paint0_radial)"/>
<path opacity="0.32" d="M130.183 1.77084C130.183 1.77084 129.616 2.02277 129.459 2.14874C129.301 2.3062 129.081 2.87305 129.081 2.87305C129.081 2.87305 128.829 2.3062 128.703 2.14874C128.545 1.99128 127.979 1.77084 127.979 1.77084C127.979 1.77084 128.545 1.5189 128.703 1.39293C128.86 1.23547 129.081 0.668627 129.081 0.668627C129.081 0.668627 129.333 1.23547 129.459 1.39293C129.616 1.5189 130.183 1.77084 130.183 1.77084Z" fill="url(#paint1_radial)"/>
<path opacity="0.32" d="M108.201 35.2474C108.201 35.2474 107.634 35.4993 107.476 35.6253C107.319 35.7828 107.098 36.3496 107.098 36.3496C107.098 36.3496 106.846 35.7828 106.72 35.6253C106.563 35.4678 105.996 35.2474 105.996 35.2474C105.996 35.2474 106.563 34.9955 106.72 34.8695C106.878 34.7435 107.098 34.1452 107.098 34.1452C107.098 34.1452 107.35 34.712 107.476 34.8695C107.634 34.9955 108.201 35.2474 108.201 35.2474Z" fill="url(#paint2_radial)"/>
<path opacity="0.32" d="M120.577 37.8295C120.577 37.8295 119.633 38.2389 119.381 38.4908C119.129 38.7427 118.719 39.6875 118.719 39.6875C118.719 39.6875 118.31 38.7427 118.058 38.4908C117.806 38.2389 116.861 37.8295 116.861 37.8295C116.861 37.8295 117.806 37.4201 118.058 37.1682C118.31 36.9162 118.719 35.9715 118.719 35.9715C118.719 35.9715 119.129 36.9162 119.381 37.1682C119.633 37.4201 120.577 37.8295 120.577 37.8295Z" fill="url(#paint3_radial)"/>
<path opacity="0.32" d="M98.6906 39.183C98.6906 39.183 97.7459 39.5924 97.4939 39.8443C97.242 40.0963 96.8326 41.041 96.8326 41.041C96.8326 41.041 96.4232 40.0963 96.1713 39.8443C95.9194 39.5924 94.9746 39.183 94.9746 39.183C94.9746 39.183 95.9194 38.7736 96.1713 38.5217C96.4232 38.2697 96.8326 37.325 96.8326 37.325C96.8326 37.325 97.242 38.2697 97.4939 38.5217C97.7144 38.7736 98.6906 39.183 98.6906 39.183Z" fill="url(#paint4_radial)"/>
<path opacity="0.5" d="M101.305 33.5459C101.305 33.1981 101.023 32.9161 100.675 32.9161C100.327 32.9161 100.045 33.1981 100.045 33.5459C100.045 33.8938 100.327 34.1758 100.675 34.1758C101.023 34.1758 101.305 33.8938 101.305 33.5459Z" fill="url(#paint5_radial)"/>
<path opacity="0.5" d="M122.057 40.5059C122.057 40.5059 122.372 40.6319 122.466 40.7263C122.561 40.8208 122.686 41.1357 122.686 41.1357C122.686 41.1357 122.812 40.8208 122.907 40.7263C123.001 40.6319 123.316 40.5059 123.316 40.5059C123.316 40.5059 123.001 40.3799 122.907 40.2855C122.812 40.191 122.686 39.8761 122.686 39.8761C122.686 39.8761 122.561 40.191 122.466 40.2855C122.372 40.3484 122.057 40.5059 122.057 40.5059Z" fill="url(#paint6_radial)"/>
<path opacity="0.5" d="M113.68 32.0352C113.68 32.0352 113.995 32.1612 114.089 32.2557C114.184 32.3501 114.31 32.665 114.31 32.665C114.31 32.665 114.435 32.3501 114.53 32.2557C114.624 32.1612 114.939 32.0352 114.939 32.0352C114.939 32.0352 114.624 31.9092 114.53 31.8148C114.435 31.7203 114.31 31.4054 114.31 31.4054C114.31 31.4054 114.184 31.7203 114.089 31.8148C113.995 31.8778 113.68 32.0352 113.68 32.0352Z" fill="url(#paint7_radial)"/>
<path opacity="0.5" d="M122.687 0.79497C122.687 0.79497 123.002 0.920941 123.097 1.01542C123.191 1.10989 123.317 1.4248 123.317 1.4248C123.317 1.4248 123.443 1.10989 123.538 1.01542C123.632 0.920941 123.947 0.79497 123.947 0.79497C123.947 0.79497 123.632 0.669019 123.538 0.574544C123.443 0.480069 123.317 0.165136 123.317 0.165136C123.317 0.165136 123.191 0.480069 123.097 0.574544C123.002 0.637527 122.687 0.79497 122.687 0.79497Z" fill="url(#paint8_radial)"/>
<path d="M128.26 33.1363C128.386 33.1363 128.481 33.1993 128.481 33.3253C128.481 33.4512 128.418 33.5457 128.292 33.5457C128.166 33.5457 128.071 33.4827 128.071 33.3568C128.071 33.2308 128.166 33.1363 128.26 33.1363ZM124.387 31.8137C124.418 32.0341 124.607 32.2231 124.828 32.1916C125.048 32.1601 125.237 31.9711 125.206 31.7507C125.174 31.5302 124.985 31.3413 124.765 31.3728C124.513 31.3728 124.355 31.5932 124.387 31.8137ZM129.205 30.554C129.237 30.9949 129.646 31.3413 130.087 31.3098C130.528 31.2783 130.874 30.8689 130.843 30.428C130.811 29.9872 130.402 29.6407 129.961 29.6722C129.52 29.7037 129.174 30.1131 129.205 30.554ZM130.78 37.5767C130.811 37.7971 131 37.9861 131.221 37.9546C131.441 37.9231 131.63 37.7341 131.598 37.5137C131.567 37.2932 131.378 37.1043 131.158 37.1358C130.937 37.1673 130.748 37.3562 130.78 37.5767Z" fill="url(#paint9_radial)"/>
<path opacity="0.32" d="M30.3216 0.101892C30.3216 0.101892 29.7548 0.35381 29.5973 0.479777C29.4398 0.637235 29.2194 1.2041 29.2194 1.2041C29.2194 1.2041 28.9675 0.637235 28.8415 0.479777C28.684 0.322318 28.1172 0.101892 28.1172 0.101892C28.1172 0.101892 28.684 -0.150046 28.8415 -0.276013C28.999 -0.433471 29.2194 -1.00032 29.2194 -1.00032C29.2194 -1.00032 29.4713 -0.433471 29.5973 -0.276013C29.7233 -0.150046 30.3216 0.101892 30.3216 0.101892Z" fill="url(#paint10_radial)"/>
<path opacity="0.32" d="M8.30989 33.5785C8.30989 33.5785 7.74304 33.8304 7.58558 33.9563C7.42812 34.1138 7.20768 34.6807 7.20768 34.6807C7.20768 34.6807 6.95575 34.1138 6.82978 33.9563C6.67232 33.7989 6.10547 33.5785 6.10547 33.5785C6.10547 33.5785 6.67232 33.3265 6.82978 33.2005C6.98724 33.0431 7.20768 32.4762 7.20768 32.4762C7.20768 32.4762 7.45961 33.0431 7.58558 33.2005C7.74304 33.3265 8.30989 33.5785 8.30989 33.5785Z" fill="url(#paint11_radial)"/>
<path opacity="0.32" d="M20.718 36.1605C20.718 36.1605 19.7732 36.5699 19.5213 36.8219C19.2694 37.0738 18.86 38.0186 18.86 38.0186C18.86 38.0186 18.4506 37.0738 18.1986 36.8219C17.9467 36.5699 17.002 36.1605 17.002 36.1605C17.002 36.1605 17.9467 35.7512 18.1986 35.4992C18.4506 35.2473 18.86 34.3025 18.86 34.3025C18.86 34.3025 19.2694 35.2473 19.5213 35.4992C19.7417 35.7512 20.718 36.1605 20.718 36.1605Z" fill="url(#paint12_radial)"/>
<path opacity="0.5" d="M1.41201 31.878C1.41201 31.5301 1.13003 31.2481 0.782178 31.2481C0.43433 31.2481 0.152344 31.5301 0.152344 31.878C0.152344 32.2258 0.43433 32.5078 0.782178 32.5078C1.13003 32.5078 1.41201 32.2258 1.41201 31.878Z" fill="url(#paint13_radial)"/>
<path opacity="0.5" d="M34.0059 21.8321C34.0059 21.8321 34.3208 21.9581 34.4152 22.0525C34.5097 22.147 34.6357 22.4619 34.6357 22.4619C34.6357 22.4619 34.7617 22.147 34.8561 22.0525C34.9506 21.9581 35.2655 21.8321 35.2655 21.8321C35.2655 21.8321 34.9506 21.7061 34.8561 21.6116C34.7617 21.5172 34.6357 21.2022 34.6357 21.2022C34.6357 21.2022 34.5097 21.5172 34.4152 21.6116C34.3208 21.7061 34.0059 21.8321 34.0059 21.8321Z" fill="url(#paint14_radial)"/>
<path opacity="0.5" d="M22.1973 38.837C22.1973 38.837 22.5122 38.9629 22.6067 39.0574C22.7011 39.1519 22.8271 39.4668 22.8271 39.4668C22.8271 39.4668 22.9531 39.1519 23.0475 39.0574C23.142 38.9629 23.4569 38.837 23.4569 38.837C23.4569 38.837 23.142 38.711 23.0475 38.6165C22.9531 38.5221 22.8271 38.2071 22.8271 38.2071C22.8271 38.2071 22.7011 38.5221 22.6067 38.6165C22.5122 38.6795 22.1973 38.837 22.1973 38.837Z" fill="url(#paint15_radial)"/>
<path opacity="0.5" d="M13.7891 30.3663C13.7891 30.3663 14.104 30.4922 14.1985 30.5867C14.2929 30.6812 14.4189 30.9961 14.4189 30.9961C14.4189 30.9961 14.5449 30.6812 14.6393 30.5867C14.7338 30.4922 15.0487 30.3663 15.0487 30.3663C15.0487 30.3663 14.7338 30.2403 14.6393 30.1458C14.5449 30.0513 14.4189 29.7364 14.4189 29.7364C14.4189 29.7364 14.2929 30.0513 14.1985 30.1458C14.104 30.2403 13.7891 30.3663 13.7891 30.3663Z" fill="url(#paint16_radial)"/>
<path d="M28.4006 31.4674C28.5266 31.4674 28.6211 31.5304 28.6211 31.6563C28.6211 31.7823 28.5581 31.8768 28.4321 31.8768C28.3061 31.8768 28.2117 31.8138 28.2117 31.6878C28.1802 31.5619 28.2746 31.4674 28.4006 31.4674ZM24.4956 30.1447C24.5271 30.3652 24.7161 30.5541 24.9365 30.5226C25.157 30.4911 25.3459 30.3022 25.3144 30.0818C25.2829 29.8613 25.094 29.6724 24.8735 29.7039C24.6531 29.7039 24.4641 29.9243 24.4956 30.1447ZM29.3454 28.9166C29.3769 29.3574 29.7862 29.7038 30.2271 29.6724C30.668 29.6409 31.0144 29.2315 30.9829 28.7906C30.9514 28.3497 30.542 28.0033 30.1012 28.0348C29.6288 28.0663 29.3139 28.4442 29.3454 28.9166ZM30.8885 35.9077C30.9199 36.1282 31.1089 36.3171 31.3293 36.2856C31.5498 36.2541 31.7387 36.0652 31.7072 35.8447C31.6757 35.6243 31.4868 35.4353 31.2664 35.4668C31.0459 35.4983 30.8885 35.6873 30.8885 35.9077Z" fill="url(#paint17_radial)"/>
<path opacity="0.32" d="M23.2051 119.739C23.2051 119.739 23.8349 119.676 23.9924 119.582C24.1813 119.487 24.5907 119.015 24.5907 119.015C24.5907 119.015 24.6537 119.645 24.7482 119.802C24.8426 119.96 25.315 120.401 25.315 120.401C25.315 120.401 24.6852 120.464 24.5277 120.558C24.3388 120.653 23.9294 121.125 23.9294 121.125C23.9294 121.125 23.8664 120.495 23.7719 120.338C23.6775 120.149 23.2051 119.739 23.2051 119.739Z" fill="url(#paint18_radial)"/>
<path opacity="0.32" d="M-0.728516 109.222C-0.728516 109.222 -0.0986814 109.159 0.0587771 109.064C0.247727 108.97 0.657118 108.497 0.657118 108.497C0.657118 108.497 0.720101 109.127 0.814576 109.285C0.909052 109.474 1.38143 109.883 1.38143 109.883C1.38143 109.883 0.751594 109.946 0.594135 110.041C0.405185 110.135 -0.00420761 110.607 -0.00420761 110.607C-0.00420761 110.607 -0.0671911 109.978 -0.161666 109.82C-0.256141 109.631 -0.728516 109.222 -0.728516 109.222Z" fill="url(#paint19_radial)"/>
<path opacity="0.32" d="M30.1016 83.6495C30.1016 83.6495 30.7314 83.5865 30.8889 83.4921C31.0778 83.3976 31.4872 82.9252 31.4872 82.9252C31.4872 82.9252 31.5502 83.555 31.6447 83.7125C31.7391 83.9015 32.2115 84.3108 32.2115 84.3108C32.2115 84.3108 31.5817 84.3738 31.4242 84.4683C31.2353 84.5628 30.8259 85.0352 30.8259 85.0352C30.8259 85.0352 30.7629 84.4053 30.6684 84.2479C30.5739 84.0274 30.1016 83.6495 30.1016 83.6495Z" fill="url(#paint20_radial)"/>
<path d="M19.0156 77.54C19.0156 77.54 20.0549 77.414 20.3383 77.2565C20.6532 77.0991 21.3145 76.3118 21.3145 76.3118C21.3145 76.3118 21.4405 77.351 21.5979 77.6344C21.7554 77.9494 22.5427 78.6107 22.5427 78.6107C22.5427 78.6107 21.5035 78.7367 21.22 78.8941C20.9051 79.0516 20.2438 79.8389 20.2438 79.8389C20.2438 79.8389 20.1178 78.7996 19.9604 78.5162C19.8029 78.2013 19.0156 77.54 19.0156 77.54Z" fill="url(#paint21_radial)"/>
<path opacity="0.32" d="M40.3672 82.6415C40.3672 82.6415 41.4064 82.5156 41.6898 82.3581C42.0048 82.2007 42.6661 81.4134 42.6661 81.4134C42.6661 81.4134 42.792 82.4526 42.9495 82.736C43.107 83.0509 43.8943 83.7123 43.8943 83.7123C43.8943 83.7123 42.855 83.8382 42.5716 83.9957C42.2567 84.1531 41.5954 84.9404 41.5954 84.9404C41.5954 84.9404 41.4694 83.9012 41.3119 83.6178C41.1545 83.3344 40.3672 82.6415 40.3672 82.6415Z" fill="url(#paint22_radial)"/>
<path d="M3.45898 120.778C3.45898 120.778 4.49821 120.652 4.78164 120.495C5.09655 120.337 5.75788 119.55 5.75788 119.55C5.75788 119.55 5.88385 120.589 6.04131 120.873C6.19876 121.188 6.98606 121.849 6.98606 121.849C6.98606 121.849 5.94683 121.975 5.6634 122.132C5.34849 122.29 4.68716 123.077 4.68716 123.077C4.68716 123.077 4.56119 122.038 4.40374 121.754C4.24628 121.471 3.45898 120.778 3.45898 120.778Z" fill="url(#paint23_radial)"/>
<path opacity="0.5" d="M37.4394 87.461C37.4394 87.1131 37.1574 86.8312 36.8095 86.8312C36.4617 86.8312 36.1797 87.1131 36.1797 87.461C36.1797 87.8088 36.4617 88.0908 36.8095 88.0908C37.1574 88.0908 37.4394 87.8088 37.4394 87.461Z" fill="url(#paint24_radial)"/>
<path opacity="0.5" d="M2.10465 87.366C2.10465 87.366 1.85271 87.1456 1.78973 87.0511C1.72675 86.9566 1.69525 86.6102 1.69525 86.6102C1.69525 86.6102 1.47481 86.8621 1.38034 86.9251C1.28586 86.9881 0.939453 87.0196 0.939453 87.0196C0.939453 87.0196 1.19139 87.24 1.25437 87.3345C1.31735 87.429 1.34885 87.7754 1.34885 87.7754C1.34885 87.7754 1.56929 87.5235 1.66376 87.4605C1.75824 87.3975 2.10465 87.366 2.10465 87.366Z" fill="url(#paint25_radial)"/>
<path opacity="0.5" d="M18.3546 74.5486C18.3546 74.5486 18.1027 74.3282 18.0397 74.2337C17.9767 74.1392 17.9453 73.7928 17.9453 73.7928C17.9453 73.7928 17.7248 74.0447 17.6303 74.1077C17.5359 74.1707 17.1895 74.2022 17.1895 74.2022C17.1895 74.2022 17.4414 74.4227 17.5044 74.5171C17.5674 74.6116 17.5988 74.958 17.5988 74.958C17.5988 74.958 17.8193 74.7061 17.9138 74.6431C18.0082 74.6116 18.3546 74.5486 18.3546 74.5486Z" fill="url(#paint26_radial)"/>
<path opacity="0.5" d="M23.9289 85.0984C23.9289 85.0984 23.6769 84.878 23.614 84.7835C23.551 84.689 23.5195 84.3426 23.5195 84.3426C23.5195 84.3426 23.299 84.5945 23.2046 84.6575C23.1101 84.7205 22.7637 84.752 22.7637 84.752C22.7637 84.752 23.0156 84.9725 23.0786 85.0669C23.1416 85.1614 23.1731 85.5078 23.1731 85.5078C23.1731 85.5078 23.3935 85.2559 23.488 85.1929C23.5825 85.1614 23.9289 85.0984 23.9289 85.0984Z" fill="url(#paint27_radial)"/>
<path opacity="0.5" d="M30.6691 127.297C30.6691 127.297 30.4172 127.076 30.3542 126.982C30.2912 126.887 30.2597 126.541 30.2597 126.541C30.2597 126.541 30.0393 126.793 29.9448 126.856C29.8503 126.919 29.5039 126.95 29.5039 126.95C29.5039 126.95 29.7558 127.171 29.8188 127.265C29.8818 127.36 29.9133 127.706 29.9133 127.706C29.9133 127.706 30.1337 127.454 30.2282 127.391C30.3227 127.328 30.6691 127.297 30.6691 127.297Z" fill="url(#paint28_radial)"/>
<path opacity="0.5" d="M6.16715 112.339C6.16715 112.339 5.91521 112.118 5.85223 112.024C5.78924 111.929 5.75775 111.583 5.75775 111.583C5.75775 111.583 5.53731 111.835 5.44284 111.898C5.34836 111.961 5.00195 111.992 5.00195 111.992C5.00195 111.992 5.25389 112.213 5.31687 112.307C5.37985 112.402 5.41135 112.748 5.41135 112.748C5.41135 112.748 5.63179 112.496 5.72626 112.433C5.82074 112.402 6.16715 112.339 6.16715 112.339Z" fill="url(#paint29_radial)"/>
<path d="M13.8509 118.511C13.9454 118.543 14.0084 118.669 13.9769 118.763C13.9454 118.857 13.8194 118.92 13.725 118.889C13.6305 118.857 13.5675 118.732 13.599 118.637C13.599 118.543 13.725 118.48 13.8509 118.511ZM10.7018 115.834C10.6388 116.055 10.7647 116.275 10.9852 116.338C11.2056 116.401 11.4261 116.275 11.4891 116.055C11.552 115.834 11.4261 115.614 11.2056 115.551C11.0167 115.519 10.7962 115.645 10.7018 115.834ZM15.6774 116.496C15.5515 116.936 15.8034 117.377 16.2128 117.535C16.6537 117.661 17.0946 117.409 17.252 116.999C17.378 116.559 17.1261 116.118 16.7167 115.96C16.2758 115.834 15.8034 116.086 15.6774 116.496ZM14.5123 123.613C14.4493 123.833 14.5752 124.054 14.7957 124.117C15.0161 124.18 15.2366 124.054 15.2995 123.833C15.3625 123.613 15.2366 123.392 15.0161 123.329C14.7957 123.266 14.5752 123.392 14.5123 123.613Z" fill="url(#paint30_radial)"/>
<path opacity="0.32" d="M2.73597 67.966C2.73597 67.966 2.73597 68.5958 2.79895 68.7848C2.86194 68.9737 3.27133 69.4461 3.27133 69.4461C3.27133 69.4461 2.6415 69.4461 2.45255 69.5091C2.2636 69.5721 1.79122 69.9814 1.79122 69.9814C1.79122 69.9814 1.79122 69.3516 1.72824 69.1627C1.66525 68.9737 1.25586 68.5013 1.25586 68.5013C1.25586 68.5013 1.88569 68.5013 2.07464 68.4384C2.29509 68.3754 2.73597 67.966 2.73597 67.966Z" fill="url(#paint31_radial)"/>
<path opacity="0.32" d="M4.34112 48.2525C4.34112 48.2525 4.30963 49.2917 4.43559 49.6066C4.56156 49.9215 5.25438 50.7088 5.25438 50.7088C5.25438 50.7088 4.21515 50.6773 3.90024 50.8033C3.58532 50.9293 2.79803 51.6221 2.79803 51.6221C2.79803 51.6221 2.82952 50.5828 2.70355 50.2679C2.57758 49.953 1.88477 49.1657 1.88477 49.1657C1.88477 49.1657 2.92399 49.1972 3.23891 49.0712C3.58532 48.9453 4.34112 48.2525 4.34112 48.2525Z" fill="url(#paint32_radial)"/>
<path opacity="0.5" d="M12.3403 52.0635C12.3403 52.0635 12.5922 51.843 12.7182 51.7801C12.8127 51.7486 13.1591 51.7486 13.1591 51.7486C13.1591 51.7486 12.9386 51.4966 12.8757 51.3707C12.8442 51.2762 12.8442 50.9298 12.8442 50.9298C12.8442 50.9298 12.5922 51.1502 12.4663 51.2132C12.3718 51.2447 12.0254 51.2447 12.0254 51.2447C12.0254 51.2447 12.2458 51.4966 12.3088 51.6226C12.3718 51.7171 12.3403 52.0635 12.3403 52.0635Z" fill="url(#paint33_radial)"/>
<path d="M5.22315 58.8345C5.16017 58.9289 5.06569 58.9919 4.93973 58.9289C4.84525 58.866 4.78227 58.7715 4.84525 58.6455C4.90823 58.551 5.00271 58.4881 5.12868 58.551C5.22315 58.614 5.25464 58.74 5.22315 58.8345ZM8.27785 56.0947C8.0574 56.0002 7.83696 56.0947 7.74249 56.2836C7.64801 56.5041 7.74249 56.7245 7.93144 56.819C8.15188 56.9135 8.37232 56.819 8.4668 56.63C8.56127 56.4411 8.49829 56.1892 8.27785 56.0947ZM6.95519 60.9129C6.5458 60.724 6.04193 60.9129 5.85298 61.3223C5.66403 61.7317 5.85298 62.2356 6.26238 62.4245C6.67177 62.6135 7.17564 62.4245 7.36459 62.0151C7.55354 61.6057 7.36459 61.1019 6.95519 60.9129ZM0.0900012 58.803C-0.130441 58.7085 -0.350884 58.803 -0.445359 58.9919C-0.539834 59.2124 -0.445357 59.4328 -0.256407 59.5273C-0.0359651 59.6218 0.184476 59.5273 0.278951 59.3383C0.404918 59.1494 0.310443 58.8974 0.0900012 58.803Z" fill="url(#paint34_radial)"/>
<path opacity="0.5" d="M17.3477 105.001C17.3477 105.001 17.6626 105.284 17.7256 105.442C17.7885 105.568 17.82 106.009 17.82 106.009C17.82 106.009 18.1035 105.694 18.2609 105.631C18.3869 105.568 18.8278 105.536 18.8278 105.536C18.8278 105.536 18.5128 105.253 18.4499 105.096C18.3869 104.97 18.3554 104.529 18.3554 104.529C18.3554 104.529 18.072 104.844 17.9145 104.907C17.7885 104.97 17.3477 105.001 17.3477 105.001Z" fill="url(#paint35_radial)"/>
<path d="M8.08828 96.7502C7.96231 96.6872 7.89933 96.5612 7.93082 96.4038C7.9938 96.2778 8.11977 96.2148 8.27723 96.2463C8.40319 96.3093 8.46618 96.4353 8.43469 96.5927C8.3717 96.7187 8.21424 96.7817 8.08828 96.7502ZM11.8673 100.309C11.9618 100.025 11.8358 99.7419 11.5524 99.6474C11.2689 99.5529 10.9855 99.6789 10.891 99.9623C10.7966 100.246 10.9225 100.529 11.206 100.624C11.4579 100.718 11.7728 100.561 11.8673 100.309ZM5.66341 99.175C5.85236 98.6397 5.56894 98.0413 5.03358 97.8524C4.49822 97.6634 3.89988 97.9469 3.71093 98.4822C3.52198 99.0176 3.8054 99.6159 4.34076 99.8049C4.87612 99.9938 5.44297 99.7104 5.66341 99.175ZM7.55292 90.2944C7.64739 90.0109 7.52142 89.7275 7.238 89.633C6.95457 89.5386 6.67115 89.6645 6.57667 89.948C6.4822 90.2314 6.60817 90.5148 6.89159 90.6093C7.17502 90.7038 7.45844 90.5778 7.55292 90.2944Z" fill="url(#paint36_radial)"/>
<path opacity="0.5" d="M21.3477 17.0445C21.3477 17.0445 21.7885 16.95 21.9145 16.9815C22.0405 17.013 22.4184 17.2334 22.4184 17.2334C22.4184 17.2334 22.3239 16.7925 22.3554 16.6666C22.3869 16.5406 22.6073 16.1627 22.6073 16.1627C22.6073 16.1627 22.1664 16.2572 22.0405 16.2257C21.9145 16.1942 21.5366 15.9737 21.5366 15.9737C21.5366 15.9737 21.6311 16.4146 21.5996 16.5406C21.5681 16.6666 21.3477 17.0445 21.3477 17.0445Z" fill="url(#paint37_radial)"/>
<path d="M9.28546 20.0051C9.15949 20.0996 9.00203 20.0681 8.93905 19.9421C8.84457 19.8161 8.87606 19.6587 9.00203 19.5957C9.128 19.5012 9.28546 19.5327 9.34844 19.6587C9.41142 19.7532 9.41142 19.9106 9.28546 20.0051ZM14.3556 18.9344C14.1982 18.7139 13.8518 18.6509 13.6313 18.8084C13.4109 18.9659 13.3479 19.3123 13.5053 19.5327C13.6628 19.7532 14.0092 19.8161 14.2297 19.6587C14.4816 19.4697 14.5131 19.1548 14.3556 18.9344ZM9.8838 23.3747C9.53739 22.9023 8.90756 22.8079 8.43518 23.1228C7.9628 23.4692 7.86833 24.099 8.18325 24.5714C8.52965 25.0438 9.15949 25.1382 9.63186 24.8233C10.1357 24.5084 10.2302 23.8471 9.8838 23.3747ZM3.67993 16.7929C3.52247 16.5725 3.17606 16.5095 2.95562 16.667C2.73518 16.8244 2.6722 17.1708 2.82965 17.3913C2.98711 17.6117 3.33352 17.6747 3.55396 17.5172C3.8059 17.3283 3.83739 17.0134 3.67993 16.7929Z" fill="url(#paint38_radial)"/>
<path d="M10.2933 79.8077C10.1673 79.7762 10.1044 79.6817 10.1359 79.5558C10.1673 79.4298 10.2618 79.3668 10.3878 79.3983C10.5137 79.4298 10.5767 79.5243 10.5452 79.6503C10.5137 79.7447 10.3878 79.8077 10.2933 79.8077ZM13.6314 82.2011C13.6944 81.9806 13.537 81.7602 13.3165 81.6972C13.0961 81.6342 12.8756 81.7917 12.8126 82.0121C12.7497 82.2326 12.9071 82.453 13.1276 82.516C13.348 82.5475 13.5684 82.4215 13.6314 82.2011ZM8.62425 81.9491C8.71872 81.5083 8.4353 81.0674 7.99441 80.9729C7.55353 80.8784 7.11265 81.1619 7.01817 81.6027C6.92369 82.0436 7.20712 82.4845 7.648 82.579C8.08889 82.6735 8.52977 82.4215 8.62425 81.9491ZM9.1911 74.8005C9.25408 74.5801 9.09662 74.3596 8.87618 74.2967C8.65574 74.2337 8.4353 74.3911 8.37231 74.6116C8.30933 74.832 8.46679 75.0525 8.68723 75.1154C8.90767 75.1469 9.12811 75.021 9.1911 74.8005Z" fill="url(#paint39_radial)"/>
<path opacity="0.32" d="M100.139 123.36C100.139 123.36 100.769 123.297 100.926 123.203C101.115 123.109 101.524 122.636 101.524 122.636C101.524 122.636 101.587 123.266 101.682 123.423C101.776 123.612 102.249 124.022 102.249 124.022C102.249 124.022 101.619 124.085 101.461 124.179C101.272 124.274 100.863 124.746 100.863 124.746C100.863 124.746 100.8 124.116 100.706 123.959C100.611 123.77 100.139 123.36 100.139 123.36Z" fill="url(#paint40_radial)"/>
<path opacity="0.32" d="M76.2051 112.842C76.2051 112.842 76.8349 112.779 76.9924 112.684C77.1813 112.59 77.5907 112.118 77.5907 112.118C77.5907 112.118 77.6537 112.747 77.7482 112.905C77.8426 113.094 78.315 113.503 78.315 113.503C78.315 113.503 77.6852 113.566 77.5277 113.661C77.3388 113.755 76.9294 114.228 76.9294 114.228C76.9294 114.228 76.8664 113.598 76.7719 113.44C76.6774 113.251 76.2051 112.842 76.2051 112.842Z" fill="url(#paint41_radial)"/>
<path d="M117.428 18.588C117.428 18.588 118.058 18.525 118.215 18.4305C118.404 18.3361 118.813 17.8637 118.813 17.8637C118.813 17.8637 118.876 18.4935 118.971 18.651C119.065 18.8399 119.538 19.2493 119.538 19.2493C119.538 19.2493 118.908 19.3123 118.75 19.4068C118.561 19.5013 118.152 19.9736 118.152 19.9736C118.152 19.9736 118.089 19.3438 117.995 19.1863C117.9 18.9974 117.428 18.588 117.428 18.588Z" fill="url(#paint42_radial)"/>
<path opacity="0.32" d="M106.344 12.5107C106.344 12.5107 107.383 12.3847 107.666 12.2273C107.981 12.0698 108.643 11.2825 108.643 11.2825C108.643 11.2825 108.769 12.3217 108.926 12.6052C109.084 12.9201 109.871 13.5814 109.871 13.5814C109.871 13.5814 108.832 13.7074 108.548 13.8648C108.233 14.0223 107.572 14.8096 107.572 14.8096C107.572 14.8096 107.446 13.7704 107.289 13.4869C107.131 13.172 106.344 12.5107 106.344 12.5107Z" fill="url(#paint43_radial)"/>
<path opacity="0.32" d="M117.271 86.2636C117.271 86.2636 118.311 86.1376 118.594 85.9802C118.909 85.8227 119.57 85.0354 119.57 85.0354C119.57 85.0354 119.696 86.0747 119.854 86.3581C120.011 86.673 120.799 87.3343 120.799 87.3343C120.799 87.3343 119.759 87.4603 119.476 87.6177C119.161 87.7752 118.5 88.5625 118.5 88.5625C118.5 88.5625 118.374 87.5233 118.216 87.2399C118.059 86.9564 117.271 86.2636 117.271 86.2636Z" fill="url(#paint44_radial)"/>
<path opacity="0.32" d="M80.3945 124.4C80.3945 124.4 81.4338 124.274 81.7172 124.117C82.0321 123.959 82.6934 123.172 82.6934 123.172C82.6934 123.172 82.8194 124.211 82.9769 124.495C83.1343 124.81 83.9216 125.471 83.9216 125.471C83.9216 125.471 82.8824 125.597 82.599 125.754C82.284 125.912 81.6227 126.699 81.6227 126.699C81.6227 126.699 81.4967 125.66 81.3393 125.377C81.1818 125.093 80.3945 124.4 80.3945 124.4Z" fill="url(#paint45_radial)"/>
<path opacity="0.5" d="M114.373 91.0811C114.373 90.7333 114.091 90.4513 113.743 90.4513C113.395 90.4513 113.113 90.7333 113.113 91.0811C113.113 91.429 113.395 91.7109 113.743 91.7109C114.091 91.7109 114.373 91.429 114.373 91.0811Z" fill="url(#paint46_radial)"/>
<path opacity="0.5" d="M61.5304 115.614C61.5304 115.614 61.2785 115.394 61.2155 115.299C61.1525 115.205 61.121 114.858 61.121 114.858C61.121 114.858 60.9006 115.11 60.8061 115.173C60.7117 115.236 60.3652 115.268 60.3652 115.268C60.3652 115.268 60.6172 115.488 60.6802 115.583C60.7431 115.677 60.7746 116.023 60.7746 116.023C60.7746 116.023 60.9951 115.772 61.0895 115.709C61.184 115.646 61.5304 115.614 61.5304 115.614Z" fill="url(#paint47_radial)"/>
<path opacity="0.5" d="M95.2902 78.1707C95.2902 78.1707 95.0383 77.9502 94.9753 77.8558C94.9123 77.7613 94.8808 77.4149 94.8808 77.4149C94.8808 77.4149 94.6604 77.6668 94.5659 77.7298C94.4714 77.7928 94.125 77.8243 94.125 77.8243C94.125 77.8243 94.3769 78.0447 94.4399 78.1392C94.5029 78.2337 94.5344 78.5801 94.5344 78.5801C94.5344 78.5801 94.7548 78.3281 94.8493 78.2652C94.9438 78.2337 95.2902 78.1707 95.2902 78.1707Z" fill="url(#paint48_radial)"/>
<path opacity="0.5" d="M111.255 20.0681C111.255 20.0681 111.003 19.8477 110.94 19.7532C110.877 19.6587 110.846 19.3123 110.846 19.3123C110.846 19.3123 110.625 19.5643 110.531 19.6273C110.436 19.6902 110.09 19.7217 110.09 19.7217C110.09 19.7217 110.342 19.9422 110.405 20.0367C110.468 20.1311 110.499 20.4775 110.499 20.4775C110.499 20.4775 110.72 20.2256 110.814 20.1626C110.909 20.1311 111.255 20.0681 111.255 20.0681Z" fill="url(#paint49_radial)"/>
<path opacity="0.5" d="M107.603 130.919C107.603 130.919 107.351 130.698 107.288 130.604C107.225 130.509 107.193 130.163 107.193 130.163C107.193 130.163 106.973 130.415 106.878 130.478C106.784 130.541 106.437 130.572 106.437 130.572C106.437 130.572 106.689 130.793 106.752 130.887C106.815 130.982 106.847 131.328 106.847 131.328C106.847 131.328 107.067 131.076 107.162 131.013C107.256 130.95 107.603 130.919 107.603 130.919Z" fill="url(#paint50_radial)"/>
<path opacity="0.5" d="M83.1027 115.96C83.1027 115.96 82.8508 115.739 82.7878 115.645C82.7248 115.55 82.6933 115.204 82.6933 115.204C82.6933 115.204 82.4729 115.456 82.3784 115.519C82.2839 115.582 81.9375 115.613 81.9375 115.613C81.9375 115.613 82.1894 115.834 82.2524 115.928C82.3154 116.023 82.3469 116.369 82.3469 116.369C82.3469 116.369 82.5673 116.117 82.6618 116.054C82.7563 116.023 83.1027 115.96 83.1027 115.96Z" fill="url(#paint51_radial)"/>
<path d="M58.7276 96.4037C58.8221 96.4351 58.8851 96.5611 58.8536 96.6556C58.8221 96.7501 58.6962 96.813 58.6017 96.7816C58.5072 96.7501 58.4442 96.6241 58.4757 96.5296C58.5072 96.4351 58.6332 96.3722 58.7276 96.4037ZM55.61 93.7583C55.547 93.9788 55.6729 94.1992 55.8934 94.2622C56.1138 94.3252 56.3343 94.1992 56.3973 93.9788C56.4602 93.7583 56.3343 93.5379 56.1138 93.4749C55.8934 93.4119 55.6729 93.5379 55.61 93.7583ZM60.5542 94.3882C60.4282 94.8291 60.6801 95.27 61.0895 95.4274C61.5304 95.5534 61.9713 95.3014 62.1287 94.892C62.2547 94.4512 62.0028 94.0103 61.5934 93.8528C61.1525 93.7269 60.7116 93.9788 60.5542 94.3882ZM59.389 101.505C59.326 101.726 59.452 101.946 59.6724 102.009C59.8928 102.072 60.1133 101.946 60.1763 101.726C60.2392 101.505 60.1133 101.285 59.8928 101.222C59.6724 101.159 59.4834 101.285 59.389 101.505Z" fill="url(#paint52_radial)"/>
<path opacity="0.32" d="M111.413 63.6839C111.413 63.6839 110.815 63.8729 110.658 63.9988C110.5 64.1248 110.185 64.6602 110.185 64.6602C110.185 64.6602 109.996 64.0618 109.87 63.9044C109.744 63.7469 109.209 63.432 109.209 63.432C109.209 63.432 109.807 63.243 109.965 63.1171C110.122 62.9911 110.437 62.4557 110.437 62.4557C110.437 62.4557 110.626 63.0541 110.752 63.2115C110.878 63.369 111.413 63.6839 111.413 63.6839Z" fill="url(#paint53_radial)"/>
<path opacity="0.32" d="M130.655 59.0863C130.655 59.0863 129.647 59.4012 129.395 59.5902C129.143 59.8106 128.608 60.6924 128.608 60.6924C128.608 60.6924 128.293 59.6846 128.104 59.4327C127.884 59.1808 127.002 58.6454 127.002 58.6454C127.002 58.6454 128.01 58.3305 128.262 58.1416C128.514 57.9211 129.049 57.0394 129.049 57.0394C129.049 57.0394 129.364 58.0471 129.553 58.299C129.773 58.5824 130.655 59.0863 130.655 59.0863Z" fill="url(#paint54_radial)"/>
<path opacity="0.5" d="M102.721 57.575C102.721 57.575 103.036 57.7325 103.099 57.8269C103.162 57.9214 103.256 58.2363 103.256 58.2363C103.256 58.2363 103.414 57.9214 103.508 57.8584C103.602 57.7954 103.917 57.701 103.917 57.701C103.917 57.701 103.602 57.5435 103.539 57.449C103.477 57.3546 103.382 57.0396 103.382 57.0396C103.382 57.0396 103.225 57.3546 103.13 57.4175C103.036 57.4805 102.721 57.575 102.721 57.575Z" fill="url(#paint55_radial)"/>
<path opacity="0.5" d="M129.521 67.8729C129.521 67.8729 129.836 68.0303 129.899 68.1248C129.962 68.2193 130.057 68.5342 130.057 68.5342C130.057 68.5342 130.214 68.2193 130.309 68.1563C130.403 68.0933 130.718 67.9988 130.718 67.9988C130.718 67.9988 130.403 67.8414 130.34 67.7469C130.277 67.6524 130.183 67.3375 130.183 67.3375C130.183 67.3375 130.025 67.6524 129.931 67.7154C129.836 67.7784 129.521 67.8729 129.521 67.8729Z" fill="url(#paint56_radial)"/>
<path d="M120.861 63.1795C120.735 63.1795 120.672 63.0535 120.672 62.959C120.672 62.8331 120.798 62.7701 120.893 62.7701C121.019 62.7701 121.082 62.896 121.082 62.9905C121.082 63.1165 120.987 63.211 120.861 63.1795ZM124.42 65.2579C124.451 65.0375 124.294 64.817 124.073 64.817C123.853 64.7855 123.632 64.943 123.632 65.1634C123.601 65.3839 123.758 65.6043 123.979 65.6043C124.199 65.6358 124.388 65.4784 124.42 65.2579ZM119.413 65.5099C119.476 65.069 119.129 64.6596 118.688 64.5966C118.247 64.5336 117.838 64.88 117.775 65.3209C117.712 65.7618 118.058 66.1712 118.499 66.2342C118.972 66.2657 119.381 65.9507 119.413 65.5099ZM119.287 58.3297C119.318 58.1093 119.161 57.8889 118.94 57.8889C118.72 57.8574 118.499 58.0148 118.499 58.2353C118.468 58.4557 118.625 58.6761 118.846 58.6761C119.066 58.7076 119.255 58.5502 119.287 58.3297Z" fill="url(#paint57_radial)"/>
<path opacity="0.32" d="M43.3587 126.1C43.3587 126.1 42.7604 126.289 42.6029 126.415C42.4455 126.541 42.1305 127.076 42.1305 127.076C42.1305 127.076 41.9416 126.478 41.8156 126.32C41.6897 126.163 41.1543 125.848 41.1543 125.848C41.1543 125.848 41.7526 125.659 41.9101 125.533C42.0676 125.407 42.3825 124.872 42.3825 124.872C42.3825 124.872 42.5714 125.47 42.6974 125.628C42.8234 125.785 43.3587 126.1 43.3587 126.1Z" fill="url(#paint58_radial)"/>
<path opacity="0.32" d="M69.2767 125.848C69.2767 125.848 68.6783 126.037 68.5209 126.163C68.3634 126.289 68.0485 126.824 68.0485 126.824C68.0485 126.824 67.8596 126.226 67.7336 126.068C67.6076 125.911 67.0723 125.596 67.0723 125.596C67.0723 125.596 67.6706 125.407 67.8281 125.281C67.9855 125.155 68.3004 124.62 68.3004 124.62C68.3004 124.62 68.4894 125.218 68.6154 125.376C68.7413 125.533 69.2767 125.848 69.2767 125.848Z" fill="url(#paint59_radial)"/>
<path d="M63.073 115.236C63.073 115.236 62.0652 115.551 61.8133 115.74C61.5614 115.96 61.026 116.842 61.026 116.842C61.026 116.842 60.7111 115.834 60.5221 115.582C60.3017 115.33 59.4199 114.795 59.4199 114.795C59.4199 114.795 60.4277 114.48 60.6796 114.291C60.9315 114.071 61.4669 113.189 61.4669 113.189C61.4669 113.189 61.7818 114.196 61.9708 114.448C62.1912 114.7 63.073 115.236 63.073 115.236Z" fill="url(#paint60_radial)"/>
<path opacity="0.5" d="M35.1406 113.724C35.1406 113.724 35.4555 113.882 35.5185 113.976C35.5815 114.071 35.676 114.386 35.676 114.386C35.676 114.386 35.8334 114.071 35.9279 114.008C36.0224 113.945 36.3373 113.85 36.3373 113.85C36.3373 113.85 36.0224 113.693 35.9594 113.598C35.8964 113.504 35.802 113.189 35.802 113.189C35.802 113.189 35.6445 113.504 35.55 113.567C35.4555 113.63 35.1406 113.724 35.1406 113.724Z" fill="url(#paint61_radial)"/>
<path opacity="0.5" d="M61.9395 124.022C61.9395 124.022 62.2544 124.18 62.3174 124.274C62.3803 124.369 62.4748 124.684 62.4748 124.684C62.4748 124.684 62.6323 124.369 62.7267 124.306C62.8212 124.243 63.1361 124.148 63.1361 124.148C63.1361 124.148 62.8212 123.991 62.7582 123.896C62.6953 123.802 62.6008 123.487 62.6008 123.487C62.6008 123.487 62.4433 123.802 62.3489 123.865C62.2544 123.928 61.9395 124.022 61.9395 124.022Z" fill="url(#paint62_radial)"/>
<path d="M52.8065 125.596C52.6805 125.596 52.6175 125.47 52.6175 125.376C52.6175 125.25 52.7435 125.187 52.838 125.187C52.9325 125.187 53.0269 125.313 53.0269 125.408C52.9954 125.533 52.901 125.628 52.8065 125.596ZM56.3336 127.675C56.3651 127.454 56.2076 127.234 55.9872 127.234C55.7667 127.203 55.5463 127.36 55.5463 127.58C55.5148 127.801 55.6722 128.021 55.8927 128.021C56.1131 128.053 56.3336 127.895 56.3336 127.675ZM51.3579 127.927C51.4209 127.486 51.0744 127.077 50.6336 127.014C50.1927 126.951 49.7833 127.297 49.7203 127.738C49.6573 128.179 50.0037 128.588 50.4446 128.651C50.8855 128.683 51.2949 128.368 51.3579 127.927ZM51.2319 120.747C51.2634 120.526 51.1059 120.306 50.8855 120.306C50.6651 120.274 50.4446 120.432 50.4446 120.652C50.4131 120.873 50.5706 121.093 50.791 121.093C51.0115 121.093 51.2004 120.967 51.2319 120.747Z" fill="url(#paint63_radial)"/>
<path opacity="0.32" d="M20.9056 55.0238C20.9056 55.0238 20.3073 55.2127 20.1498 55.3387C19.9923 55.4646 19.6774 56 19.6774 56C19.6774 56 19.4885 55.4017 19.3625 55.2442C19.2365 55.0867 18.7012 54.7718 18.7012 54.7718C18.7012 54.7718 19.2995 54.5829 19.457 54.4569C19.6144 54.3309 19.9293 53.7956 19.9293 53.7956C19.9293 53.7956 20.1183 54.3939 20.2443 54.5514C20.3702 54.7088 20.9056 55.0238 20.9056 55.0238Z" fill="url(#paint64_radial)"/>
<path opacity="0.32" d="M57.3411 41.9544C57.3411 41.9544 56.7428 42.1434 56.5853 42.2693C56.4279 42.3953 56.113 42.9307 56.113 42.9307C56.113 42.9307 55.924 42.3323 55.798 42.1749C55.6721 42.0174 55.1367 41.7025 55.1367 41.7025C55.1367 41.7025 55.7351 41.5135 55.8925 41.3876C56.05 41.2616 56.3649 40.7262 56.3649 40.7262C56.3649 40.7262 56.5538 41.3246 56.6798 41.482C56.8058 41.6395 57.3411 41.9544 57.3411 41.9544Z" fill="url(#paint65_radial)"/>
<path d="M51.1374 31.3109C51.1374 31.3109 50.1297 31.6258 49.8777 31.8148C49.6258 32.0352 49.0905 32.917 49.0905 32.917C49.0905 32.917 48.7755 31.9093 48.5866 31.6573C48.3661 31.4054 47.4844 30.87 47.4844 30.87C47.4844 30.87 48.4921 30.5551 48.744 30.3662C48.996 30.1457 49.5313 29.264 49.5313 29.264C49.5313 29.264 49.8463 30.2717 50.0352 30.5236C50.2556 30.7756 51.1374 31.3109 51.1374 31.3109Z" fill="url(#paint66_radial)"/>
<path opacity="0.5" d="M12.2148 48.9461C12.2148 48.9461 12.5298 49.1035 12.5927 49.198C12.6557 49.2925 12.7502 49.6074 12.7502 49.6074C12.7502 49.6074 12.9077 49.2925 13.0021 49.2295C13.0966 49.1665 13.4115 49.0721 13.4115 49.0721C13.4115 49.0721 13.0966 48.9146 13.0336 48.8201C12.9706 48.7257 12.8762 48.4107 12.8762 48.4107C12.8762 48.4107 12.7187 48.7257 12.6242 48.7886C12.5298 48.8201 12.2148 48.9461 12.2148 48.9461Z" fill="url(#paint67_radial)"/>
<path opacity="0.5" d="M50.0039 40.0965C50.0039 40.0965 50.3188 40.2539 50.3818 40.3484C50.4448 40.4429 50.5393 40.7578 50.5393 40.7578C50.5393 40.7578 50.6967 40.4429 50.7912 40.3799C50.8857 40.3169 51.2006 40.2224 51.2006 40.2224C51.2006 40.2224 50.8857 40.065 50.8227 39.9705C50.7597 39.876 50.6652 39.5611 50.6652 39.5611C50.6652 39.5611 50.5078 39.876 50.4133 39.939C50.3503 40.002 50.0039 40.0965 50.0039 40.0965Z" fill="url(#paint68_radial)"/>
<path d="M41.3434 35.4041C41.2174 35.4041 41.1544 35.2781 41.1544 35.1836C41.1544 35.0577 41.2804 34.9947 41.3749 34.9947C41.4693 34.9947 41.5638 35.1206 41.5638 35.2151C41.5638 35.3411 41.4693 35.4356 41.3434 35.4041ZM44.9019 37.4825C44.9334 37.2621 44.776 37.0416 44.5555 37.0416C44.3351 37.0102 44.1146 37.1676 44.1146 37.388C44.0831 37.6085 44.2406 37.8289 44.461 37.8289C44.6815 37.8604 44.8704 37.703 44.9019 37.4825ZM39.9262 37.7345C39.9892 37.2936 39.6428 36.8842 39.2019 36.8212C38.761 36.7582 38.3517 37.1046 38.2887 37.5455C38.2257 37.9864 38.5721 38.3958 39.013 38.4588C39.4539 38.4903 39.8633 38.1753 39.9262 37.7345ZM39.7688 30.5229C39.8003 30.3024 39.6428 30.082 39.4224 30.082C39.2019 30.0505 38.9815 30.2079 38.9815 30.4284C38.95 30.6488 39.1075 30.8693 39.3279 30.8693C39.5483 30.9322 39.7688 30.7748 39.7688 30.5229Z" fill="url(#paint69_radial)"/>
<path d="M69.7191 108.055C69.5931 108.024 69.5301 107.929 69.5616 107.803C69.5931 107.677 69.6876 107.614 69.8136 107.646C69.9395 107.677 70.0025 107.772 69.971 107.898C69.9395 108.024 69.8451 108.087 69.7191 108.055ZM73.0572 110.448C73.1202 110.228 72.9627 110.008 72.7423 109.945C72.5219 109.882 72.3014 110.039 72.2384 110.259C72.1754 110.48 72.3329 110.7 72.5533 110.763C72.8053 110.826 72.9942 110.669 73.0572 110.448ZM68.05 110.228C68.1445 109.787 67.8611 109.346 67.4202 109.252C66.9793 109.157 66.5384 109.441 66.444 109.882C66.3495 110.322 66.6329 110.763 67.0738 110.858C67.5147 110.952 67.9556 110.669 68.05 110.228ZM68.6169 103.048C68.6799 102.827 68.5224 102.607 68.302 102.544C68.0815 102.481 67.8611 102.638 67.7981 102.859C67.7351 103.079 67.8926 103.3 68.113 103.363C68.3649 103.426 68.5854 103.268 68.6169 103.048Z" fill="url(#paint70_radial)"/>
<path d="M130.277 124.998C130.277 124.998 129.678 125.187 129.521 125.313C129.363 125.439 129.049 125.975 129.049 125.975C129.049 125.975 128.86 125.376 128.734 125.219C128.608 125.061 128.072 124.746 128.072 124.746C128.072 124.746 128.671 124.557 128.828 124.432C128.986 124.306 129.3 123.77 129.3 123.77C129.3 123.77 129.489 124.369 129.615 124.526C129.741 124.683 130.277 124.998 130.277 124.998Z" fill="url(#paint71_radial)"/>
<path d="M124.073 114.354C124.073 114.354 123.065 114.669 122.813 114.858C122.561 115.078 122.026 115.96 122.026 115.96C122.026 115.96 121.711 114.952 121.522 114.7C121.302 114.448 120.42 113.913 120.42 113.913C120.42 113.913 121.428 113.598 121.68 113.409C121.932 113.189 122.467 112.307 122.467 112.307C122.467 112.307 122.782 113.315 122.971 113.567C123.16 113.85 124.073 114.354 124.073 114.354Z" fill="url(#paint72_radial)"/>
<path opacity="0.5" d="M122.908 123.139C122.908 123.139 123.223 123.297 123.286 123.391C123.349 123.486 123.444 123.801 123.444 123.801C123.444 123.801 123.601 123.486 123.695 123.423C123.79 123.36 124.105 123.265 124.105 123.265C124.105 123.265 123.79 123.108 123.727 123.013C123.664 122.919 123.57 122.604 123.57 122.604C123.57 122.604 123.412 122.919 123.318 122.982C123.255 123.045 122.908 123.139 122.908 123.139Z" fill="url(#paint73_radial)"/>
<path d="M130.717 107.174C130.591 107.143 130.528 107.048 130.56 106.922C130.591 106.796 130.686 106.733 130.812 106.765C130.938 106.796 131.001 106.891 130.969 107.017C130.938 107.143 130.812 107.206 130.717 107.174ZM134.055 109.599C134.118 109.379 133.961 109.158 133.74 109.095C133.52 109.032 133.299 109.19 133.236 109.41C133.173 109.631 133.331 109.851 133.551 109.914C133.772 109.945 133.992 109.819 134.055 109.599ZM129.048 109.347C129.143 108.906 128.859 108.465 128.418 108.371C127.977 108.276 127.536 108.56 127.442 109.001C127.348 109.442 127.631 109.882 128.072 109.977C128.513 110.071 128.954 109.788 129.048 109.347ZM129.615 102.198C129.678 101.978 129.52 101.758 129.3 101.695C129.08 101.632 128.859 101.789 128.796 102.01C128.733 102.23 128.891 102.45 129.111 102.513C129.332 102.545 129.552 102.419 129.615 102.198Z" fill="url(#paint74_radial)"/>
<path opacity="0.32" d="M66.5684 7.72373C66.5684 7.72373 67.1982 7.66075 67.3557 7.56627C67.5446 7.4718 67.954 6.99943 67.954 6.99943C67.954 6.99943 68.017 7.62926 68.1115 7.78672C68.2059 7.97567 68.6783 8.38507 68.6783 8.38507C68.6783 8.38507 68.0485 8.44805 67.891 8.54253C67.7021 8.637 67.2927 9.10937 67.2927 9.10937C67.2927 9.10937 67.2297 8.47954 67.1352 8.32208C67.0407 8.13313 66.5684 7.72373 66.5684 7.72373Z" fill="url(#paint75_radial)"/>
<path d="M55.4844 1.61419C55.4844 1.61419 56.5236 1.48822 56.807 1.33076C57.1219 1.1733 57.7833 0.38601 57.7833 0.38601C57.7833 0.38601 57.9092 1.42524 58.0667 1.70867C58.2242 2.02358 59.0115 2.6849 59.0115 2.6849C59.0115 2.6849 57.9722 2.81088 57.6888 2.96833C57.3739 3.12579 56.7126 3.91309 56.7126 3.91309C56.7126 3.91309 56.5866 2.87386 56.4291 2.59043C56.2717 2.307 55.4844 1.61419 55.4844 1.61419Z" fill="url(#paint76_radial)"/>
<path d="M88.3301 15.4384C88.3301 15.4384 89.3693 15.3124 89.6527 15.155C89.9676 14.9975 90.629 14.2102 90.629 14.2102C90.629 14.2102 90.7549 15.2495 90.9124 15.5329C91.0699 15.8478 91.8571 16.5091 91.8571 16.5091C91.8571 16.5091 90.8179 16.6351 90.5345 16.7926C90.2196 16.95 89.5583 17.7373 89.5583 17.7373C89.5583 17.7373 89.4323 16.6981 89.2748 16.4147C89.1489 16.0997 88.3301 15.4384 88.3301 15.4384Z" fill="url(#paint77_radial)"/>
<path opacity="0.5" d="M73.9062 11.5342C73.9062 11.1864 73.6242 10.9044 73.2763 10.9044C72.9285 10.9044 72.6465 11.1864 72.6465 11.5342C72.6465 11.8821 72.9285 12.1641 73.2763 12.1641C73.6242 12.1641 73.9062 11.8821 73.9062 11.5342Z" fill="url(#paint78_radial)"/>
<path opacity="0.5" d="M50.0988 20.1316C50.0988 20.1316 49.8469 19.9112 49.7839 19.8167C49.7209 19.7222 49.6894 19.3758 49.6894 19.3758C49.6894 19.3758 49.469 19.6278 49.3745 19.6907C49.28 19.7537 48.9336 19.7852 48.9336 19.7852C48.9336 19.7852 49.1855 20.0057 49.2485 20.1001C49.3115 20.1946 49.343 20.541 49.343 20.541C49.343 20.541 49.5634 20.2891 49.6579 20.2261C49.7524 20.1631 50.0988 20.1316 50.0988 20.1316Z" fill="url(#paint79_radial)"/>
<path opacity="0.5" d="M60.3957 9.20389C60.3957 9.20389 60.1437 8.98345 60.0807 8.88898C60.0178 8.7945 59.9863 8.4481 59.9863 8.4481C59.9863 8.4481 59.7658 8.70004 59.6714 8.76302C59.5769 8.826 59.2305 8.85749 59.2305 8.85749C59.2305 8.85749 59.4824 9.07793 59.5454 9.17241C59.6084 9.26688 59.6399 9.61328 59.6399 9.61328C59.6399 9.61328 59.8603 9.36135 59.9548 9.29836C60.0492 9.23538 60.3957 9.20389 60.3957 9.20389Z" fill="url(#paint80_radial)"/>
<path d="M46.7601 3.88123C46.6341 3.84974 46.5712 3.75524 46.6026 3.62928C46.6341 3.50331 46.7286 3.44033 46.8546 3.47182C46.9805 3.50331 47.0435 3.5978 47.012 3.72377C46.9805 3.84974 46.8546 3.91272 46.7601 3.88123ZM50.0982 6.27459C50.1612 6.05415 50.0038 5.83371 49.7833 5.77073C49.5629 5.70775 49.3424 5.86521 49.2794 6.08565C49.2165 6.30609 49.3739 6.52652 49.5944 6.58951C49.8148 6.65249 50.0352 6.49503 50.0982 6.27459ZM45.091 6.05414C45.1855 5.61326 44.9021 5.17238 44.4612 5.07791C44.0203 4.98343 43.5794 5.26686 43.485 5.70774C43.3905 6.14863 43.6739 6.5895 44.1148 6.68398C44.5557 6.77845 44.9966 6.49503 45.091 6.05414ZM45.6579 -1.12596C45.7209 -1.34641 45.5634 -1.56684 45.343 -1.62982C45.1225 -1.69281 44.9021 -1.53535 44.8391 -1.31491C44.7761 -1.09446 44.9336 -0.874029 45.154 -0.811046C45.406 -0.748062 45.5949 -0.905521 45.6579 -1.12596Z" fill="url(#paint81_radial)"/>
<path opacity="0.25" d="M-10.4277 53.1998C-10.4277 53.1998 0.392019 53.1998 1.76635 64.4492C3.14069 75.6986 -3.2812 84.4288 4.29013 94.0569C11.8865 103.71 45.92 93.134 50.9675 103.461C56.0151 113.787 49.3683 138.132 37.3991 139.279C25.4549 140.426 59.7133 153.971 59.7133 153.971C59.7133 153.971 77.6546 121.37 64.3111 100.492C50.9675 79.6147 32.8013 89.9413 23.6058 86.4991C14.4102 83.0569 9.81246 74.1023 11.4117 57.3404C13.0109 40.5785 -7.2043 32.0978 -7.2043 32.0978L-10.4277 53.1998ZM62.8118 130.075C55.9651 149.306 52.8666 133.343 52.8666 133.343C52.8666 133.343 57.5393 123.415 57.3644 115.334C57.2145 107.277 49.4433 97.1748 53.4663 96.1023C57.4894 95.0297 69.6335 110.819 62.8118 130.075ZM6.68897 66.295C10.2622 70.9594 8.8879 81.8098 13.6856 86.2247C14.3103 86.7984 15.0349 87.2224 15.7846 87.6215C18.8081 89.193 22.1815 89.9163 25.3799 91.0887C26.7293 91.5875 30.2775 92.7599 28.1286 94.5059C27.4039 95.1045 26.4294 95.5036 25.3049 95.778C22.3814 96.5014 18.5332 96.3268 16.3093 96.0524C12.3362 95.5535 8.03831 94.032 5.61449 90.6397C0.466983 83.5059 3.1157 61.6306 6.68897 66.295ZM8.81294 60.0592C8.81294 62.7531 8.16325 64.9231 7.36364 64.9231C6.56403 64.9231 5.91434 62.7531 5.91434 60.0592C5.91434 57.3653 6.56403 55.1953 7.36364 55.1953C8.16325 55.1953 8.81294 57.3653 8.81294 60.0592Z" fill="url(#paint82_radial)"/>
<path opacity="0.25" d="M91.5661 24.4497C84.0465 18.4389 79.2907 7.04091 77.1494 0.830627L73.3398 0.85556C73.3398 0.85556 82.4032 28.3155 99.733 34.9747C117.063 41.6339 121.694 43.8537 125.927 56.5735C130.16 69.2934 120.897 79.7935 107.576 87.6748C94.2801 95.5562 89.0264 126.034 99.3097 136.933C109.593 147.832 119.677 139.751 119.677 139.751C119.677 139.751 105.559 119.549 109.992 105.832C114.424 92.1143 130.558 92.7129 133.77 72.7103C133.87 72.1616 133.945 71.6378 134.019 71.0891C132.799 73.7578 131.081 75.3042 129.712 75.379C126.45 75.5536 128.442 71.3884 128.442 71.3884C128.442 71.3884 132.426 57.2469 125.902 48.8917C119.379 40.5615 108.149 35.299 112.506 32.755C116.839 30.211 129.512 42.3572 133.87 54.5034C133.969 54.7529 134.044 55.0023 134.119 55.2517C132.401 42.9558 126.076 32.8049 114.598 26.6445C98.0648 17.7655 98.264 0.606154 98.264 0.606154L88.6529 0.680969C91.2922 13.326 101.526 32.4058 91.5661 24.4497ZM103.692 111.868C104.24 122.742 111.286 141.248 98.264 130.374C98.264 130.374 91.1926 107.528 103.692 95.9303C116.191 84.3328 103.144 100.968 103.692 111.868ZM120.872 88.6974C121.495 89.6202 120.001 91.7402 117.511 93.4362C115.021 95.1322 112.506 95.7557 111.884 94.8329C111.261 93.9101 112.755 91.7901 115.245 90.0941C117.735 88.3981 120.25 87.7746 120.872 88.6974ZM99.7081 15.9199C104.588 23.1777 105.136 28.964 100.43 24.9984C95.7242 21.0078 95.7242 15.5707 95.7242 15.5707C95.7242 15.5707 94.8279 8.68703 99.7081 15.9199Z" fill="url(#paint83_radial)"/>
<path opacity="0.25" d="M47.4315 35.1975C47.0313 49.9731 -2.22278 -1.87904 -2.22278 -1.87904L-3.52355 1.44609C5.65687 10.4465 25.5686 30.5973 21.9415 32.8474C18.3394 35.0725 1.42938 16.8717 -6.25016 8.27138L-6.65039 9.27142C-6.65039 9.27142 29.3959 56.2234 50.6584 46.098C71.921 35.9726 37.5007 -16.0297 37.5007 -16.0297L9.9594 -17.0297C9.93439 -17.0297 47.8568 20.4219 47.4315 35.1975ZM21.9415 27.0472C19.0398 21.7219 36.6502 33.9975 34.0736 37.3976C31.4971 40.7978 21.9415 27.0472 21.9415 27.0472ZM54.4607 34.2475C55.4362 34.5225 55.8365 36.1976 55.3362 37.9976C54.8359 39.7977 53.6602 41.0478 52.6846 40.7978C51.709 40.5227 51.3088 38.8477 51.8091 37.0476C52.3094 35.2475 53.4851 33.9975 54.4607 34.2475ZM52.6596 21.2219C56.712 39.4727 49.2576 37.3726 46.6811 23.972C44.1046 10.5715 29.2208 -0.904012 29.2208 -0.904012L38.4262 -4.30415C38.4262 -4.30415 48.6072 2.97115 52.6596 21.2219Z" fill="url(#paint84_radial)"/>
</g>
<defs>
<radialGradient id="paint0_radial" cx="0" cy="0" r="1" gradientUnits="userSpaceOnUse" gradientTransform="translate(67.6283 63.1548) rotate(-90) scale(98.1628)">
<stop offset="0.0592593" stop-color="#560000"/>
<stop offset="0.963" stop-color="#0E0000"/>
</radialGradient>
<radialGradient id="paint1_radial" cx="0" cy="0" r="1" gradientUnits="userSpaceOnUse" gradientTransform="translate(129.078 1.7743) rotate(-90) scale(1.10719)">
<stop offset="0.0592593" stop-color="#E47E99"/>
<stop offset="0.5259" stop-color="#E43D99"/>
<stop offset="0.9926" stop-color="#B30058"/>
</radialGradient>
<radialGradient id="paint2_radial" cx="0" cy="0" r="1" gradientUnits="userSpaceOnUse" gradientTransform="translate(107.086 35.2481) rotate(-90) scale(1.10719)">
<stop offset="0.0592593" stop-color="#E47E99"/>
<stop offset="0.5259" stop-color="#E43D99"/>
<stop offset="0.9926" stop-color="#B30058"/>
</radialGradient>
<radialGradient id="paint3_radial" cx="0" cy="0" r="1" gradientUnits="userSpaceOnUse" gradientTransform="translate(118.738 37.837) rotate(-90) scale(1.84567)">
<stop offset="0.0592593" stop-color="#E47E99"/>
<stop offset="0.5259" stop-color="#E43D99"/>
<stop offset="0.9926" stop-color="#B30058"/>
</radialGradient>
<radialGradient id="paint4_radial" cx="0" cy="0" r="1" gradientUnits="userSpaceOnUse" gradientTransform="translate(96.8304 39.1902) rotate(-90) scale(1.84566)">
<stop offset="0.0592593" stop-color="#E47E99"/>
<stop offset="0.5259" stop-color="#E43D99"/>
<stop offset="0.9926" stop-color="#B30058"/>
</radialGradient>
<radialGradient id="paint5_radial" cx="0" cy="0" r="1" gradientUnits="userSpaceOnUse" gradientTransform="translate(89.7834 16.6108) rotate(90) scale(48.296)">
<stop offset="0.0592593" stop-color="#0A1656"/>
<stop offset="0.8889" stop-color="#4478AD"/>
</radialGradient>
<radialGradient id="paint6_radial" cx="0" cy="0" r="1" gradientUnits="userSpaceOnUse" gradientTransform="translate(89.7828 16.6112) rotate(90) scale(48.2953)">
<stop offset="0.0592593" stop-color="#0A1656"/>
<stop offset="0.8889" stop-color="#4478AD"/>
</radialGradient>
<radialGradient id="paint7_radial" cx="0" cy="0" r="1" gradientUnits="userSpaceOnUse" gradientTransform="translate(89.7818 16.612) rotate(90) scale(48.296)">
<stop offset="0.0592593" stop-color="#0A1656"/>
<stop offset="0.8889" stop-color="#4478AD"/>
</radialGradient>
<radialGradient id="paint8_radial" cx="0" cy="0" r="1" gradientUnits="userSpaceOnUse" gradientTransform="translate(89.783 16.6116) rotate(90) scale(48.296)">
<stop offset="0.0592593" stop-color="#0A1656"/>
<stop offset="0.8889" stop-color="#4478AD"/>
</radialGradient>
<radialGradient id="paint9_radial" cx="0" cy="0" r="1" gradientUnits="userSpaceOnUse" gradientTransform="translate(127.983 33.8202) rotate(90) scale(3.88702)">
<stop offset="0.0592593" stop-color="#0A1656"/>
<stop offset="0.8889" stop-color="#4478AD"/>
</radialGradient>
<radialGradient id="paint10_radial" cx="0" cy="0" r="1" gradientUnits="userSpaceOnUse" gradientTransform="translate(29.2012 0.110457) rotate(-90) scale(1.10719)">
<stop offset="0.0592593" stop-color="#E47E99"/>
<stop offset="0.5259" stop-color="#E43D99"/>
<stop offset="0.9926" stop-color="#B30058"/>
</radialGradient>
<radialGradient id="paint11_radial" cx="0" cy="0" r="1" gradientUnits="userSpaceOnUse" gradientTransform="translate(7.21218 33.5843) rotate(-90) scale(1.10719)">
<stop offset="0.0592593" stop-color="#E47E99"/>
<stop offset="0.5259" stop-color="#E43D99"/>
<stop offset="0.9926" stop-color="#B30058"/>
</radialGradient>
<radialGradient id="paint12_radial" cx="0" cy="0" r="1" gradientUnits="userSpaceOnUse" gradientTransform="translate(18.8639 36.1731) rotate(-90) scale(1.84566)">
<stop offset="0.0592593" stop-color="#E47E99"/>
<stop offset="0.5259" stop-color="#E43D99"/>
<stop offset="0.9926" stop-color="#B30058"/>
</radialGradient>
<radialGradient id="paint13_radial" cx="0" cy="0" r="1" gradientUnits="userSpaceOnUse" gradientTransform="translate(-10.0925 14.9484) rotate(90) scale(48.2947)">
<stop offset="0.0592593" stop-color="#0A1656"/>
<stop offset="0.8889" stop-color="#4478AD"/>
</radialGradient>
<radialGradient id="paint14_radial" cx="0" cy="0" r="1" gradientUnits="userSpaceOnUse" gradientTransform="translate(-10.0926 14.948) rotate(90) scale(48.2951)">
<stop offset="0.0592593" stop-color="#0A1656"/>
<stop offset="0.8889" stop-color="#4478AD"/>
</radialGradient>
<radialGradient id="paint15_radial" cx="0" cy="0" r="1" gradientUnits="userSpaceOnUse" gradientTransform="translate(-10.0918 14.9474) rotate(90) scale(48.2953)">
<stop offset="0.0592593" stop-color="#0A1656"/>
<stop offset="0.8889" stop-color="#4478AD"/>
</radialGradient>
<radialGradient id="paint16_radial" cx="0" cy="0" r="1" gradientUnits="userSpaceOnUse" gradientTransform="translate(-10.0918 14.9482) rotate(90) scale(48.2952)">
<stop offset="0.0592593" stop-color="#0A1656"/>
<stop offset="0.8889" stop-color="#4478AD"/>
</radialGradient>
<radialGradient id="paint17_radial" cx="0" cy="0" r="1" gradientUnits="userSpaceOnUse" gradientTransform="translate(28.1084 32.1563) rotate(90) scale(3.88702)">
<stop offset="0.0592593" stop-color="#0A1656"/>
<stop offset="0.8889" stop-color="#4478AD"/>
</radialGradient>
<radialGradient id="paint18_radial" cx="0" cy="0" r="1" gradientUnits="userSpaceOnUse" gradientTransform="translate(24.2757 120.076) rotate(-90) scale(1.05878)">
<stop offset="0.0592593" stop-color="#E47E99"/>
<stop offset="0.5259" stop-color="#E43D99"/>
<stop offset="0.9926" stop-color="#B30058"/>
</radialGradient>
<radialGradient id="paint19_radial" cx="0" cy="0" r="1" gradientUnits="userSpaceOnUse" gradientTransform="translate(0.340816 109.541) rotate(-90) scale(1.05878)">
<stop offset="0.0592593" stop-color="#E47E99"/>
<stop offset="0.5259" stop-color="#E43D99"/>
<stop offset="0.9926" stop-color="#B30058"/>
</radialGradient>
<radialGradient id="paint20_radial" cx="0" cy="0" r="1" gradientUnits="userSpaceOnUse" gradientTransform="translate(31.1569 83.9598) rotate(-90) scale(1.05882)">
<stop offset="0.0592593" stop-color="#E47E99"/>
<stop offset="0.5259" stop-color="#E43D99"/>
<stop offset="0.9926" stop-color="#B30058"/>
</radialGradient>
<radialGradient id="paint21_radial" cx="0" cy="0" r="1" gradientUnits="userSpaceOnUse" gradientTransform="translate(20.7709 78.0769) rotate(-90) scale(1.76502)">
<stop offset="0.0592593" stop-color="#E47E99"/>
<stop offset="0.5259" stop-color="#E43D99"/>
<stop offset="0.9926" stop-color="#B30058"/>
</radialGradient>
<radialGradient id="paint22_radial" cx="0" cy="0" r="1" gradientUnits="userSpaceOnUse" gradientTransform="translate(42.1176 83.188) rotate(-90) scale(1.76501)">
<stop offset="0.0592593" stop-color="#E47E99"/>
<stop offset="0.5259" stop-color="#E43D99"/>
<stop offset="0.9926" stop-color="#B30058"/>
</radialGradient>
<radialGradient id="paint23_radial" cx="0" cy="0" r="1" gradientUnits="userSpaceOnUse" gradientTransform="translate(5.22907 121.331) rotate(-90) scale(1.76502)">
<stop offset="0.0592593" stop-color="#E47E99"/>
<stop offset="0.5259" stop-color="#E43D99"/>
<stop offset="0.9926" stop-color="#B30058"/>
</radialGradient>
<radialGradient id="paint24_radial" cx="0" cy="0" r="1" gradientUnits="userSpaceOnUse" gradientTransform="translate(42.2556 106.842) rotate(-72.9984) scale(48.2955)">
<stop offset="0.0592593" stop-color="#0A1656"/>
<stop offset="0.8889" stop-color="#4478AD"/>
</radialGradient>
<radialGradient id="paint25_radial" cx="0" cy="0" r="1" gradientUnits="userSpaceOnUse" gradientTransform="translate(42.2542 106.841) rotate(-72.9983) scale(48.2947 48.2949)">
<stop offset="0.0592593" stop-color="#0A1656"/>
<stop offset="0.8889" stop-color="#4478AD"/>
</radialGradient>
<radialGradient id="paint26_radial" cx="0" cy="0" r="1" gradientUnits="userSpaceOnUse" gradientTransform="translate(42.2549 106.841) rotate(-72.9984) scale(48.2957 48.2956)">
<stop offset="0.0592593" stop-color="#0A1656"/>
<stop offset="0.8889" stop-color="#4478AD"/>
</radialGradient>
<radialGradient id="paint27_radial" cx="0" cy="0" r="1" gradientUnits="userSpaceOnUse" gradientTransform="translate(42.2551 106.842) rotate(-72.9984) scale(48.296)">
<stop offset="0.0592593" stop-color="#0A1656"/>
<stop offset="0.8889" stop-color="#4478AD"/>
</radialGradient>
<radialGradient id="paint28_radial" cx="0" cy="0" r="1" gradientUnits="userSpaceOnUse" gradientTransform="translate(42.2558 106.841) rotate(-72.9984) scale(48.2949 48.2948)">
<stop offset="0.0592593" stop-color="#0A1656"/>
<stop offset="0.8889" stop-color="#4478AD"/>
</radialGradient>
<radialGradient id="paint29_radial" cx="0" cy="0" r="1" gradientUnits="userSpaceOnUse" gradientTransform="translate(42.2546 106.841) rotate(-72.9984) scale(48.2956 48.2954)">
<stop offset="0.0592593" stop-color="#0A1656"/>
<stop offset="0.8889" stop-color="#4478AD"/>
</radialGradient>
<radialGradient id="paint30_radial" cx="0" cy="0" r="1" gradientUnits="userSpaceOnUse" gradientTransform="translate(13.9879 119.844) rotate(90) scale(3.82124)">
<stop offset="0.0592593" stop-color="#0A1656"/>
<stop offset="0.8889" stop-color="#4478AD"/>
</radialGradient>
<radialGradient id="paint31_radial" cx="0" cy="0" r="1" gradientUnits="userSpaceOnUse" gradientTransform="translate(2.28132 68.9657) rotate(-90) scale(1.00616)">
<stop offset="0.0592593" stop-color="#E47E99"/>
<stop offset="0.5259" stop-color="#E43D99"/>
<stop offset="0.9926" stop-color="#B30058"/>
</radialGradient>
<radialGradient id="paint32_radial" cx="0" cy="0" r="1" gradientUnits="userSpaceOnUse" gradientTransform="translate(3.57707 49.9231) rotate(-90) scale(1.67725)">
<stop offset="0.0592593" stop-color="#E47E99"/>
<stop offset="0.5259" stop-color="#E43D99"/>
<stop offset="0.9926" stop-color="#B30058"/>
</radialGradient>
<radialGradient id="paint33_radial" cx="0" cy="0" r="1" gradientUnits="userSpaceOnUse" gradientTransform="translate(12.9965 88.5514) rotate(24.6712) scale(48.2955 48.2957)">
<stop offset="0.0592593" stop-color="#0A1656"/>
<stop offset="0.8889" stop-color="#4478AD"/>
</radialGradient>
<radialGradient id="paint34_radial" cx="0" cy="0" r="1" gradientUnits="userSpaceOnUse" gradientTransform="translate(3.88321 58.8031) rotate(-172.334) scale(3.82125)">
<stop offset="0.0592593" stop-color="#0A1656"/>
<stop offset="0.8889" stop-color="#4478AD"/>
</radialGradient>
<radialGradient id="paint35_radial" cx="0" cy="0" r="1" gradientUnits="userSpaceOnUse" gradientTransform="translate(-28.4458 109.69) rotate(109.823) scale(60.9284)">
<stop offset="0.0592593" stop-color="#0A1656"/>
<stop offset="0.8889" stop-color="#4478AD"/>
</radialGradient>
<radialGradient id="paint36_radial" cx="0" cy="0" r="1" gradientUnits="userSpaceOnUse" gradientTransform="translate(7.97781 95.0618) rotate(-87.1799) scale(4.82087)">
<stop offset="0.0592593" stop-color="#0A1656"/>
<stop offset="0.8889" stop-color="#4478AD"/>
</radialGradient>
<radialGradient id="paint37_radial" cx="0" cy="0" r="1" gradientUnits="userSpaceOnUse" gradientTransform="translate(-0.793348 57.4281) rotate(54.417) scale(60.9287)">
<stop offset="0.0592593" stop-color="#0A1656"/>
<stop offset="0.8889" stop-color="#4478AD"/>
</radialGradient>
<radialGradient id="paint38_radial" cx="0" cy="0" r="1" gradientUnits="userSpaceOnUse" gradientTransform="translate(7.84403 19.138) rotate(-142.582) scale(4.82081)">
<stop offset="0.0592593" stop-color="#0A1656"/>
<stop offset="0.8889" stop-color="#4478AD"/>
</radialGradient>
<radialGradient id="paint39_radial" cx="0" cy="0" r="1" gradientUnits="userSpaceOnUse" gradientTransform="translate(10.3154 78.4549) rotate(90) scale(3.75954)">
<stop offset="0.0592593" stop-color="#0A1656"/>
<stop offset="0.8889" stop-color="#4478AD"/>
</radialGradient>
<radialGradient id="paint40_radial" cx="0" cy="0" r="1" gradientUnits="userSpaceOnUse" gradientTransform="translate(101.204 123.696) rotate(-90) scale(1.05881)">
<stop offset="0.0592593" stop-color="#E47E99"/>
<stop offset="0.5259" stop-color="#E43D99"/>
<stop offset="0.9926" stop-color="#B30058"/>
</radialGradient>
<radialGradient id="paint41_radial" cx="0" cy="0" r="1" gradientUnits="userSpaceOnUse" gradientTransform="translate(77.2688 113.16) rotate(-90) scale(1.05881)">
<stop offset="0.0592593" stop-color="#E47E99"/>
<stop offset="0.5259" stop-color="#E43D99"/>
<stop offset="0.9926" stop-color="#B30058"/>
</radialGradient>
<radialGradient id="paint42_radial" cx="0" cy="0" r="1" gradientUnits="userSpaceOnUse" gradientTransform="translate(118.495 18.9253) rotate(-90) scale(1.05882)">
<stop offset="0.0592593" stop-color="#E47E99"/>
<stop offset="0.5259" stop-color="#E43D99"/>
<stop offset="0.9926" stop-color="#B30058"/>
</radialGradient>
<radialGradient id="paint43_radial" cx="0" cy="0" r="1" gradientUnits="userSpaceOnUse" gradientTransform="translate(108.111 13.0431) rotate(-90) scale(1.76501)">
<stop offset="0.0592593" stop-color="#E47E99"/>
<stop offset="0.5259" stop-color="#E43D99"/>
<stop offset="0.9926" stop-color="#B30058"/>
</radialGradient>
<radialGradient id="paint44_radial" cx="0" cy="0" r="1" gradientUnits="userSpaceOnUse" gradientTransform="translate(119.048 86.809) rotate(-90) scale(1.76501)">
<stop offset="0.0592593" stop-color="#E47E99"/>
<stop offset="0.5259" stop-color="#E43D99"/>
<stop offset="0.9926" stop-color="#B30058"/>
</radialGradient>
<radialGradient id="paint45_radial" cx="0" cy="0" r="1" gradientUnits="userSpaceOnUse" gradientTransform="translate(82.159 124.952) rotate(-90) scale(1.76502)">
<stop offset="0.0592593" stop-color="#E47E99"/>
<stop offset="0.5259" stop-color="#E43D99"/>
<stop offset="0.9926" stop-color="#B30058"/>
</radialGradient>
<radialGradient id="paint46_radial" cx="0" cy="0" r="1" gradientUnits="userSpaceOnUse" gradientTransform="translate(119.183 110.461) rotate(-72.9984) scale(48.2961)">
<stop offset="0.0592593" stop-color="#0A1656"/>
<stop offset="0.8889" stop-color="#4478AD"/>
</radialGradient>
<radialGradient id="paint47_radial" cx="0" cy="0" r="1" gradientUnits="userSpaceOnUse" gradientTransform="translate(101.691 135.102) rotate(-72.9983) scale(48.2957 48.2959)">
<stop offset="0.0592593" stop-color="#0A1656"/>
<stop offset="0.8889" stop-color="#4478AD"/>
</radialGradient>
<radialGradient id="paint48_radial" cx="0" cy="0" r="1" gradientUnits="userSpaceOnUse" gradientTransform="translate(119.184 110.463) rotate(-72.9984) scale(48.2954)">
<stop offset="0.0592593" stop-color="#0A1656"/>
<stop offset="0.8889" stop-color="#4478AD"/>
</radialGradient>
<radialGradient id="paint49_radial" cx="0" cy="0" r="1" gradientUnits="userSpaceOnUse" gradientTransform="translate(129.594 41.8066) rotate(-72.9985) scale(48.2959 48.2955)">
<stop offset="0.0592593" stop-color="#0A1656"/>
<stop offset="0.8889" stop-color="#4478AD"/>
</radialGradient>
<radialGradient id="paint50_radial" cx="0" cy="0" r="1" gradientUnits="userSpaceOnUse" gradientTransform="translate(119.184 110.461) rotate(-72.9985) scale(48.2963 48.296)">
<stop offset="0.0592593" stop-color="#0A1656"/>
<stop offset="0.8889" stop-color="#4478AD"/>
</radialGradient>
<radialGradient id="paint51_radial" cx="0" cy="0" r="1" gradientUnits="userSpaceOnUse" gradientTransform="translate(119.185 110.461) rotate(-72.9984) scale(48.2957)">
<stop offset="0.0592593" stop-color="#0A1656"/>
<stop offset="0.8889" stop-color="#4478AD"/>
</radialGradient>
<radialGradient id="paint52_radial" cx="0" cy="0" r="1" gradientUnits="userSpaceOnUse" gradientTransform="translate(58.8844 97.7403) rotate(90) scale(3.82124)">
<stop offset="0.0592593" stop-color="#0A1656"/>
<stop offset="0.8889" stop-color="#4478AD"/>
</radialGradient>
<radialGradient id="paint53_radial" cx="0" cy="0" r="1" gradientUnits="userSpaceOnUse" gradientTransform="translate(110.316 63.5433) rotate(-90) scale(1.09982)">
<stop offset="0.0592593" stop-color="#E47E99"/>
<stop offset="0.5259" stop-color="#E43D99"/>
<stop offset="0.9926" stop-color="#B30058"/>
</radialGradient>
<radialGradient id="paint54_radial" cx="0" cy="0" r="1" gradientUnits="userSpaceOnUse" gradientTransform="translate(128.823 58.8758) rotate(-90) scale(1.83335)">
<stop offset="0.0592593" stop-color="#E47E99"/>
<stop offset="0.5259" stop-color="#E43D99"/>
<stop offset="0.9926" stop-color="#B30058"/>
</radialGradient>
<radialGradient id="paint55_radial" cx="0" cy="0" r="1" gradientUnits="userSpaceOnUse" gradientTransform="translate(95.0157 79.803) rotate(96.6155) scale(48.2953 48.2957)">
<stop offset="0.0592593" stop-color="#0A1656"/>
<stop offset="0.8889" stop-color="#4478AD"/>
</radialGradient>
<radialGradient id="paint56_radial" cx="0" cy="0" r="1" gradientUnits="userSpaceOnUse" gradientTransform="translate(95.0169 79.8038) rotate(96.6154) scale(48.2952)">
<stop offset="0.0592593" stop-color="#0A1656"/>
<stop offset="0.8889" stop-color="#4478AD"/>
</radialGradient>
<radialGradient id="paint57_radial" cx="0" cy="0" r="1" gradientUnits="userSpaceOnUse" gradientTransform="translate(121.101 62.0455) rotate(90) scale(3.77724)">
<stop offset="0.0592593" stop-color="#0A1656"/>
<stop offset="0.8889" stop-color="#4478AD"/>
</radialGradient>
<radialGradient id="paint58_radial" cx="0" cy="0" r="1" gradientUnits="userSpaceOnUse" gradientTransform="translate(42.2482 125.957) rotate(-90) scale(1.09982)">
<stop offset="0.0592593" stop-color="#E47E99"/>
<stop offset="0.5259" stop-color="#E43D99"/>
<stop offset="0.9926" stop-color="#B30058"/>
</radialGradient>
<radialGradient id="paint59_radial" cx="0" cy="0" r="1" gradientUnits="userSpaceOnUse" gradientTransform="translate(68.18 125.732) rotate(-90) scale(1.09982)">
<stop offset="0.0592593" stop-color="#E47E99"/>
<stop offset="0.5259" stop-color="#E43D99"/>
<stop offset="0.9926" stop-color="#B30058"/>
</radialGradient>
<radialGradient id="paint60_radial" cx="0" cy="0" r="1" gradientUnits="userSpaceOnUse" gradientTransform="translate(61.2457 115.016) rotate(-90) scale(1.83339)">
<stop offset="0.0592593" stop-color="#E47E99"/>
<stop offset="0.5259" stop-color="#E43D99"/>
<stop offset="0.9926" stop-color="#B30058"/>
</radialGradient>
<radialGradient id="paint61_radial" cx="0" cy="0" r="1" gradientUnits="userSpaceOnUse" gradientTransform="translate(27.4398 135.943) rotate(96.6154) scale(48.2954)">
<stop offset="0.0592593" stop-color="#0A1656"/>
<stop offset="0.8889" stop-color="#4478AD"/>
</radialGradient>
<radialGradient id="paint62_radial" cx="0" cy="0" r="1" gradientUnits="userSpaceOnUse" gradientTransform="translate(27.4391 135.944) rotate(96.6155) scale(48.2952 48.2954)">
<stop offset="0.0592593" stop-color="#0A1656"/>
<stop offset="0.8889" stop-color="#4478AD"/>
</radialGradient>
<radialGradient id="paint63_radial" cx="0" cy="0" r="1" gradientUnits="userSpaceOnUse" gradientTransform="translate(53.0336 124.46) rotate(90) scale(3.77724)">
<stop offset="0.0592593" stop-color="#0A1656"/>
<stop offset="0.8889" stop-color="#4478AD"/>
</radialGradient>
<radialGradient id="paint64_radial" cx="0" cy="0" r="1" gradientUnits="userSpaceOnUse" gradientTransform="translate(19.8039 54.8867) rotate(-90) scale(1.09982)">
<stop offset="0.0592593" stop-color="#E47E99"/>
<stop offset="0.5259" stop-color="#E43D99"/>
<stop offset="0.9926" stop-color="#B30058"/>
</radialGradient>
<radialGradient id="paint65_radial" cx="0" cy="0" r="1" gradientUnits="userSpaceOnUse" gradientTransform="translate(56.2513 41.8129) rotate(-90) scale(1.09982)">
<stop offset="0.0592593" stop-color="#E47E99"/>
<stop offset="0.5259" stop-color="#E43D99"/>
<stop offset="0.9926" stop-color="#B30058"/>
</radialGradient>
<radialGradient id="paint66_radial" cx="0" cy="0" r="1" gradientUnits="userSpaceOnUse" gradientTransform="translate(49.317 31.0968) rotate(90) scale(1.83339)">
<stop offset="0.0592593" stop-color="#66B0D8"/>
<stop offset="1" stop-color="#3F1F7D"/>
</radialGradient>
<radialGradient id="paint67_radial" cx="0" cy="0" r="1" gradientUnits="userSpaceOnUse" gradientTransform="translate(4.50584 71.1463) rotate(96.6154) scale(48.2957 48.2955)">
<stop offset="0.0592593" stop-color="#0A1656"/>
<stop offset="0.8889" stop-color="#4478AD"/>
</radialGradient>
<radialGradient id="paint68_radial" cx="0" cy="0" r="1" gradientUnits="userSpaceOnUse" gradientTransform="translate(15.5097 52.0241) rotate(96.6155) scale(48.296 48.2962)">
<stop offset="0.0592593" stop-color="#0A1656"/>
<stop offset="0.8889" stop-color="#4478AD"/>
</radialGradient>
<radialGradient id="paint69_radial" cx="0" cy="0" r="1" gradientUnits="userSpaceOnUse" gradientTransform="translate(41.5945 34.2666) rotate(90) scale(3.77724)">
<stop offset="0.0592593" stop-color="#0A1656"/>
<stop offset="0.8889" stop-color="#4478AD"/>
</radialGradient>
<radialGradient id="paint70_radial" cx="0" cy="0" r="1" gradientUnits="userSpaceOnUse" gradientTransform="translate(69.7519 106.715) rotate(90) scale(3.75954)">
<stop offset="0.0592593" stop-color="#0A1656"/>
<stop offset="0.8889" stop-color="#4478AD"/>
</radialGradient>
<radialGradient id="paint71_radial" cx="0" cy="0" r="1" gradientUnits="userSpaceOnUse" gradientTransform="translate(129.166 124.862) rotate(-90) scale(1.09982)">
<stop offset="0.0592593" stop-color="#E47E99"/>
<stop offset="0.5259" stop-color="#E43D99"/>
<stop offset="0.9926" stop-color="#B30058"/>
</radialGradient>
<radialGradient id="paint72_radial" cx="0" cy="0" r="1" gradientUnits="userSpaceOnUse" gradientTransform="translate(122.232 114.145) rotate(90) scale(1.83339)">
<stop offset="0.0592593" stop-color="#66B0D8"/>
<stop offset="1" stop-color="#3F1F7D"/>
</radialGradient>
<radialGradient id="paint73_radial" cx="0" cy="0" r="1" gradientUnits="userSpaceOnUse" gradientTransform="translate(88.4256 135.072) rotate(96.6155) scale(48.295 48.2952)">
<stop offset="0.0592593" stop-color="#0A1656"/>
<stop offset="0.8889" stop-color="#4478AD"/>
</radialGradient>
<radialGradient id="paint74_radial" cx="0" cy="0" r="1" gradientUnits="userSpaceOnUse" gradientTransform="translate(130.736 105.845) rotate(90) scale(3.75951)">
<stop offset="0.0592593" stop-color="#0A1656"/>
<stop offset="0.8889" stop-color="#4478AD"/>
</radialGradient>
<radialGradient id="paint75_radial" cx="0" cy="0" r="1" gradientUnits="userSpaceOnUse" gradientTransform="translate(67.6287 8.04521) rotate(-90) scale(1.05882)">
<stop offset="0.0592593" stop-color="#E47E99"/>
<stop offset="0.5259" stop-color="#E43D99"/>
<stop offset="0.9926" stop-color="#B30058"/>
</radialGradient>
<radialGradient id="paint76_radial" cx="0" cy="0" r="1" gradientUnits="userSpaceOnUse" gradientTransform="translate(57.2447 2.16227) rotate(90) scale(1.76502)">
<stop offset="0.0592593" stop-color="#66B0D8"/>
<stop offset="1" stop-color="#3F1F7D"/>
</radialGradient>
<radialGradient id="paint77_radial" cx="0" cy="0" r="1" gradientUnits="userSpaceOnUse" gradientTransform="translate(90.108 15.9695) rotate(-90) scale(1.76501)">
<stop offset="0.0592593" stop-color="#E47E99"/>
<stop offset="0.5259" stop-color="#E43D99"/>
<stop offset="0.9926" stop-color="#B30058"/>
</radialGradient>
<radialGradient id="paint78_radial" cx="0" cy="0" r="1" gradientUnits="userSpaceOnUse" gradientTransform="translate(78.7271 30.9267) rotate(-72.9984) scale(48.2959)">
<stop offset="0.0592593" stop-color="#0A1656"/>
<stop offset="0.8889" stop-color="#4478AD"/>
</radialGradient>
<radialGradient id="paint79_radial" cx="0" cy="0" r="1" gradientUnits="userSpaceOnUse" gradientTransform="translate(90.245 39.6234) rotate(-72.9983) scale(48.2955 48.2957)">
<stop offset="0.0592593" stop-color="#0A1656"/>
<stop offset="0.8889" stop-color="#4478AD"/>
</radialGradient>
<radialGradient id="paint80_radial" cx="0" cy="0" r="1" gradientUnits="userSpaceOnUse" gradientTransform="translate(78.7262 30.9264) rotate(-72.9982) scale(48.2946 48.2949)">
<stop offset="0.0592593" stop-color="#0A1656"/>
<stop offset="0.8889" stop-color="#4478AD"/>
</radialGradient>
<radialGradient id="paint81_radial" cx="0" cy="0" r="1" gradientUnits="userSpaceOnUse" gradientTransform="translate(46.7872 2.53967) rotate(90) scale(3.75954)">
<stop offset="0.0592593" stop-color="#0A1656"/>
<stop offset="0.8889" stop-color="#4478AD"/>
</radialGradient>
<radialGradient id="paint82_radial" cx="0" cy="0" r="1" gradientUnits="userSpaceOnUse" gradientTransform="translate(29.4077 93.0242) rotate(-90) scale(51.4571 51.5491)">
<stop offset="0.0814815" stop-color="#F128C5"/>
<stop offset="1" stop-color="#C11BB9"/>
</radialGradient>
<radialGradient id="paint83_radial" cx="0" cy="0" r="1" gradientUnits="userSpaceOnUse" gradientTransform="translate(103.76 71.6475) rotate(-90) scale(54.6277 54.5364)">
<stop offset="0.0814815" stop-color="#F128C5"/>
<stop offset="1" stop-color="#C11BB9"/>
</radialGradient>
<radialGradient id="paint84_radial" cx="0" cy="0" r="1" gradientUnits="userSpaceOnUse" gradientTransform="translate(25.4601 15.2473) rotate(-90) scale(32.195 32.2127)">
<stop offset="0.0814815" stop-color="#F128C5"/>
<stop offset="1" stop-color="#C11BB9"/>
</radialGradient>
</defs>
</svg>
