<svg width="77" height="78" viewBox="0 0 77 78" fill="none" xmlns="http://www.w3.org/2000/svg">
<path d="M6.99999 39.9417C6.99999 57.0625 20.8792 70.9445 38 70.9479C55.1208 70.9513 69 57.0749 69 39.9541C69 22.8333 55.1208 8.95133 38 8.94791C20.8792 8.94449 7 22.8209 6.99999 39.9417Z" fill="#CE1C7D"/>
<path fill-rule="evenodd" clip-rule="evenodd" d="M63.7614 39.4518C63.7614 25.5024 52.4526 14.19 38.5 14.1872C24.5474 14.1843 13.2386 25.4922 13.2386 39.4416C13.2386 53.391 24.5474 64.7034 38.5 64.7062C52.4526 64.7091 63.7614 53.4012 63.7614 39.4518ZM38.5 2.94671C58.6573 2.95079 75 19.2947 75 39.4541C75 59.6135 58.6573 75.9508 38.5 75.9467C18.3427 75.9426 2 59.5988 2 39.4393C2 19.2799 18.3427 2.94262 38.5 2.94671Z" fill="black"/>
</svg>
