<svg width="134" height="133" viewBox="0 0 134 133" fill="none" xmlns="http://www.w3.org/2000/svg">
<path d="M56.511 16.7442C50.1549 18.0737 44.1142 20.6143 38.7186 24.2273C30.2096 29.9477 23.6168 38.0937 19.7958 47.608C18.6242 50.5146 17.7272 53.5245 17.1165 56.5982C16.97 57.3203 16.8444 58.0425 16.7397 58.7855L16.6455 59.4658L16.4466 61.0566L16.3734 61.7788C16.3106 62.4486 16.2583 63.1184 16.2269 63.7987L16.2269 64.0289C16.185 64.8592 16.1641 65.693 16.1641 66.5303C16.1641 67.3675 16.178 68.2432 16.2059 69.1572L16.2059 69.377C16.2059 70.0991 16.3106 70.8213 16.3734 71.5434L16.4571 72.3074L16.6769 73.9819L16.7816 74.7041C16.9072 75.4786 17.0432 76.2426 17.2002 76.9961C17.8868 80.2628 18.8965 83.4531 20.2145 86.52C25.54 98.9087 35.5471 108.69 48.0543 113.731C50.9548 114.895 53.9577 115.785 57.0238 116.39C65.2324 118.026 73.7182 117.611 81.7278 115.181C89.7375 112.751 97.0234 108.381 102.939 102.459C107.793 97.5916 111.619 91.7973 114.19 85.4211C115.357 82.531 116.254 79.539 116.869 76.4833C117.016 75.7611 117.141 75.039 117.246 74.2959L117.34 73.6156L117.539 72.0248L117.612 71.3027C117.675 70.605 117.727 69.9282 117.769 69.2723C117.769 68.3618 117.842 67.4513 117.842 66.5303C117.856 56.4686 114.872 46.6309 109.271 38.2725C105.452 32.5568 100.514 27.6754 94.7542 23.9238C89.1664 20.2679 82.9119 17.7509 76.3493 16.517C69.7867 15.2832 63.045 15.3569 56.511 16.7338L56.511 16.7442ZM16.8548 58.1053L16.7711 58.5658L16.8548 58.1053ZM16.6036 59.7379L16.4676 60.8787L16.6036 59.7379ZM16.3629 61.8311C16.3001 62.473 16.2513 63.1149 16.2164 63.7568C16.2513 63.1079 16.3001 62.466 16.3629 61.8311ZM16.2059 69.3979C16.2059 70.0886 16.3001 70.7794 16.3734 71.4911C16.3176 70.7864 16.2617 70.0886 16.2059 69.3979ZM16.478 72.4539L16.635 73.668L16.478 72.4539ZM16.8234 74.9029L16.9072 75.3739L16.8234 74.9029ZM117.12 74.9029L117.204 74.4424L117.12 74.9029ZM117.371 73.2703L117.518 72.119L117.371 73.2703ZM117.612 71.1771C117.675 70.5352 117.724 69.8898 117.759 69.2409C117.727 69.9212 117.727 70.5596 117.623 71.2504L117.612 71.1771Z" fill="#0EC885"/>
<path d="M88.1282 115.906C84.884 117.283 81.5114 118.335 78.0598 119.046C76.6155 119.346 75.1503 119.59 73.6641 119.779L75.2654 132.484C77.1004 132.254 78.9111 131.954 80.6973 131.584C84.969 130.688 89.1411 129.37 93.152 127.649C93.8846 127.335 94.6068 127 95.3289 126.655L89.8761 115.142C89.3109 115.373 88.7248 115.645 88.1282 115.906Z" fill="#F7FAF6"/>
<path d="M103.451 10.9074L96.4492 21.5931C101.192 24.6903 105.407 28.5276 108.935 32.959L118.91 24.9735C114.543 19.4885 109.328 14.7364 103.462 10.897L103.451 10.9074Z" fill="#F7FAF6"/>
<path d="M116.868 86.4893C115.892 88.9259 114.738 91.2872 113.414 93.5537L124.456 99.9902C127.998 93.9388 130.549 87.36 132.012 80.5028L119.516 77.8131C118.882 80.7752 117.996 83.6778 116.868 86.4893Z" fill="#F7FAF6"/>
<path d="M45.8543 17.123C49.0978 15.7446 52.4706 14.6929 55.9227 13.9832C57.367 13.6832 58.8323 13.439 60.3185 13.2506L58.7276 0.576478C56.8926 0.806726 55.0819 1.10675 53.2957 1.47654C49.0241 2.37283 44.8521 3.691 40.841 5.41169C40.1084 5.72567 39.3862 6.06057 38.6641 6.45828L44.1064 17.9707C44.6821 17.6567 45.2577 17.3846 45.8543 17.123Z" fill="#F7FAF6"/>
<path d="M17.125 46.5292C18.1019 44.0931 19.2563 41.7319 20.5788 39.4647L9.53701 33.0387C5.99674 39.0908 3.44577 45.6694 1.98047 52.5261L14.4875 55.2158C15.118 52.2505 16.0003 49.3444 17.125 46.5292Z" fill="#F7FAF6"/>
<path d="M58.7187 0.544263L60.3096 13.2184C58.8234 13.3998 57.3581 13.644 55.9138 13.951C52.4617 14.6606 49.089 15.7124 45.8454 17.0907C45.2488 17.3419 44.6627 17.6245 44.0766 17.8966L38.6343 6.38419C27.4937 11.6378 18.03 19.8803 11.2967 30.194C10.6897 31.1289 10.1036 32.0778 9.53843 33.0407L20.5802 39.4772C17.7212 44.3497 15.6645 49.6503 14.4889 55.176L1.98189 52.5281L1.77257 53.5119C0.0278139 62.3344 0.0776467 71.4179 1.91909 80.2207C3.65837 88.5121 6.97333 96.3925 11.684 103.434C12.7306 105.025 13.8923 106.574 15.0855 108.049L25.0597 100.064C26.2936 101.61 27.6108 103.088 29.0054 104.491C31.6372 107.121 34.5344 109.471 37.6504 111.503L37.5458 111.43L30.5439 122.115L30.68 122.21C41.4776 129.264 54.0994 133.014 66.9975 133C69.7615 133 72.5228 132.828 75.2657 132.487L73.6748 119.813C75.161 119.632 76.6298 119.387 78.0811 119.08C81.5326 118.369 84.9052 117.317 88.1495 115.941C88.7461 115.689 89.3322 115.407 89.9078 115.135L95.3606 126.647C106.508 121.39 115.976 113.14 122.709 102.816C123.316 101.888 123.902 100.943 124.467 99.9802L113.425 93.5437C114.75 91.2776 115.904 88.9163 116.879 86.4793C118.093 83.4442 119.569 77.531 119.516 77.7926L132.013 80.4824L132.222 79.4986C133.971 70.6768 133.924 61.5933 132.086 52.7897C130.348 44.4981 127.033 36.6175 122.321 29.5765C121.275 27.9857 120.113 26.4367 118.92 24.9611L108.946 32.936C105.418 28.5047 101.202 24.6674 96.4596 21.5701L103.461 10.8845L103.325 10.7903C92.5265 3.73841 79.9055 -0.011417 67.0079 2.76104e-05C64.2363 0.00976284 61.4679 0.191526 58.7187 0.544263ZM92.4825 27.4205C97.7735 30.8645 102.31 35.3473 105.816 40.597C109.226 45.6921 111.596 51.4097 112.793 57.4224C113.989 63.4351 113.987 69.6247 112.787 75.6367C111.617 81.4664 109.343 87.0187 106.088 91.9948C101.048 99.7198 93.8389 105.785 85.3655 109.431C78.3056 112.46 70.6057 113.696 62.9524 113.028C55.299 112.359 47.9299 109.808 41.502 105.6C36.2133 102.158 31.6773 97.679 28.1681 92.4344C23.081 84.8384 20.3424 75.9131 20.294 66.7712C20.2456 57.6293 22.8895 48.6755 27.896 41.0261C31.341 35.736 35.8237 31.1999 41.0729 27.6926C48.669 22.6056 57.5946 19.8672 66.7367 19.8188C75.8788 19.7704 84.8329 22.4142 92.4825 27.4205Z" fill="#2ACEB1"/>
<path d="M29.0176 104.493C27.623 103.09 26.3058 101.612 25.0719 100.066L15.0977 108.041C19.4635 113.526 24.6787 118.279 30.5457 122.117L37.5475 111.432C34.4752 109.415 31.6171 107.09 29.0176 104.493Z" fill="#F7FAF6"/>
<path d="M58.1434 24.5124C52.7953 25.6282 47.7111 27.7599 43.1664 30.7919C38.3387 34.0286 34.219 38.2124 31.0571 43.0893C27.9725 47.8057 25.8493 53.0847 24.8094 58.6235C23.7695 64.1623 23.8333 69.8519 24.9972 75.3659C25.5759 78.123 26.4279 80.8155 27.5405 83.4037C32.0411 93.8498 40.486 102.095 51.0369 106.345C53.4832 107.333 56.0166 108.089 58.6039 108.605C64.6565 109.817 70.8994 109.709 76.9063 108.288C82.9133 106.867 88.5429 104.167 93.4111 100.372C98.2793 96.5767 102.271 91.776 105.115 86.2974C107.958 80.8187 109.586 74.7911 109.888 68.6259C109.784 70.7001 109.528 72.7638 109.124 74.8008C108.063 80.097 105.999 85.1415 103.043 89.6623C98.4695 96.6794 91.9272 102.191 84.2355 105.508C77.816 108.264 70.8139 109.389 63.854 108.781C56.8941 108.173 50.1931 105.851 44.3491 102.022C39.5478 98.9046 35.4284 94.8458 32.2398 90.0914C28.57 84.585 26.2402 78.2961 25.4366 71.728C24.633 65.1598 25.378 58.4947 27.612 52.2661C29.846 46.0375 33.507 40.4182 38.302 35.858C43.0969 31.2977 48.8928 27.9231 55.2257 26.0042C61.5586 24.0852 68.2529 23.6752 74.7727 24.807C81.2924 25.9388 87.4568 28.5808 92.7725 32.5218C98.0881 36.4629 102.408 41.5933 105.385 47.5028C108.362 53.4122 109.915 59.9366 109.919 66.5537C109.921 60.1662 108.497 53.8588 105.751 48.0919C103.004 42.3249 99.0051 37.2437 94.0448 33.2192C89.0845 29.1947 83.2882 26.3284 77.079 24.8293C70.8697 23.3302 64.4041 23.2363 58.1539 24.5543L58.1434 24.5124Z" fill="#81FFF7"/>
<path d="M41.0419 106.325C46.1104 109.634 51.7666 111.939 57.704 113.117C67.1121 114.97 76.8601 113.949 85.68 110.186C92.7733 107.159 99.0195 102.444 103.875 96.4522C108.731 90.4603 112.049 83.3728 113.541 75.8062C115.404 66.4999 114.435 56.8486 110.758 48.0989C107.08 39.3491 100.864 31.9027 92.912 26.7214C90.2989 25.0154 87.5221 23.5745 84.6229 22.4199C77.4169 19.5384 69.6146 18.4665 61.8985 19.298C54.1823 20.1295 46.7875 22.8391 40.361 27.1898C33.9345 31.5405 28.672 37.3997 25.0339 44.2548C21.3959 51.1098 19.4932 58.752 19.4922 66.5125C19.5009 72.9372 20.8037 79.2943 23.3228 85.2045C24.475 87.8938 25.8766 90.4691 27.5092 92.8969C31.0892 98.2445 35.7181 102.809 41.1152 106.314L41.0419 106.325ZM26.8499 83.6974C25.7238 81.0609 24.8614 78.3195 24.2752 75.5132C22.5104 67.0845 23.2676 58.3228 26.4522 50.3219C28.6383 44.8347 31.9179 39.8495 36.0915 35.6697C42.1461 29.6447 49.8296 25.5206 58.1972 23.8043C66.5647 22.0881 75.2514 22.8547 83.189 26.0097C89.8617 28.6764 95.7712 32.952 100.391 38.4556C105.011 43.9593 108.198 50.5201 109.668 57.5538C111.451 65.985 110.708 74.7545 107.533 82.766C104.868 89.4395 100.593 95.3498 95.0888 99.9698C89.5847 104.59 83.0229 107.776 75.9883 109.245C67.5417 111.016 58.7601 110.255 50.744 107.057C45.4176 104.931 40.5644 101.773 36.4636 97.764C32.3628 93.7549 29.0955 88.9743 26.8499 83.6974Z" fill="url(#paint0_linear_1153:838)"/>
<path d="M43.1749 30.8346L41.0817 27.6948C38.5355 29.3986 36.1623 31.3475 33.9961 33.5138L36.665 36.1826C38.656 34.1927 40.8363 32.4015 43.1749 30.8346Z" fill="#156D6D"/>
<path d="M50.1063 27.0653L48.6515 23.5906C46.0152 24.7229 43.4891 26.0963 41.1055 27.6933L43.1987 30.833C45.3813 29.3688 47.6935 28.1076 50.1063 27.0653Z" fill="#E2ECE6"/>
<path d="M58.1412 24.5076L57.3667 20.8131C54.3763 21.448 51.456 22.377 48.6484 23.5866L50.1346 27.0508C52.7133 25.9417 55.3952 25.0898 58.1412 24.5076Z" fill="#156D6D"/>
<path d="M97.3297 36.1826L99.9985 33.5138C97.7091 31.2312 95.191 29.1901 92.4838 27.4227L90.3906 30.5625C92.891 32.1919 95.2163 34.0753 97.3297 36.1826Z" fill="#E2ECE6"/>
<path d="M51.0392 106.34L49.6367 109.846C52.3002 110.919 55.0577 111.743 57.8736 112.306L58.6167 108.601C56.0258 108.085 53.4889 107.329 51.0392 106.34Z" fill="#E2ECE6"/>
<path d="M75.8633 108.509L76.6378 112.203C79.6385 111.574 82.5694 110.648 85.3875 109.44L83.9013 105.965C81.3128 107.077 78.6203 107.929 75.8633 108.509Z" fill="#156D6D"/>
<path d="M58.6025 108.606L57.8594 112.311C60.8646 112.91 63.9215 113.211 66.9858 113.211L66.9858 109.433C64.171 109.433 61.363 109.156 58.6025 108.606Z" fill="#156D6D"/>
<path d="M66.9961 109.433L66.9961 113.211C70.2333 113.197 73.4603 112.846 76.6249 112.164L75.8609 108.512C72.9459 109.126 69.975 109.434 66.9961 109.433Z" fill="#E2ECE6"/>
<path d="M83.8789 105.966L85.3651 109.44C88.0012 108.308 90.5273 106.934 92.9112 105.338L90.8179 102.198C88.6256 103.665 86.3028 104.926 83.8789 105.966Z" fill="#E2ECE6"/>
<path d="M97.3281 96.8514L99.997 99.5098C102.28 97.2206 104.321 94.7025 106.088 91.9953L102.948 89.9021C101.32 92.4064 99.4365 94.7353 97.3281 96.8514Z" fill="#E2ECE6"/>
<path d="M90.8164 102.199L92.9096 105.339C95.4556 103.631 97.8287 101.679 99.9952 99.5094L97.3263 96.8406C95.3362 98.8347 93.1558 100.629 90.8164 102.199Z" fill="#156D6D"/>
<path d="M102.93 89.943L106.07 92.0361C107.747 89.4717 109.167 86.7478 110.308 83.9042L106.802 82.5017C105.758 85.1031 104.461 87.5955 102.93 89.943Z" fill="#156D6D"/>
<path d="M43.562 102.452L41.4687 105.591C44.0342 107.267 46.758 108.687 49.6009 109.83L51.0034 106.324C48.4021 105.28 45.9097 103.983 43.562 102.452Z" fill="#156D6D"/>
<path d="M24.0751 66.5101L20.2969 66.5101C20.3108 69.7472 20.6616 72.9741 21.3435 76.1387L25.038 75.3642C24.4108 72.4542 24.0881 69.4869 24.0751 66.5101Z" fill="#E2ECE6"/>
<path d="M27.5412 83.4007L24.0664 84.8555C25.1983 87.4919 26.5717 90.018 28.1691 92.4014L31.309 90.3082C29.8438 88.1261 28.5826 85.8139 27.5412 83.4007Z" fill="#E2ECE6"/>
<path d="M24.9953 75.3639L21.3008 76.1384C21.9316 79.1285 22.8572 82.0488 24.0638 84.8564L27.5281 83.3703C26.4211 80.7918 25.5727 78.1099 24.9953 75.3639Z" fill="#156D6D"/>
<path d="M36.6545 96.8492L33.9961 99.5075C36.2853 101.79 38.8035 103.832 41.5108 105.599L43.604 102.459C41.1001 100.834 38.7712 98.9539 36.6545 96.8492Z" fill="#E2ECE6"/>
<path d="M31.3078 90.3312L28.168 92.4244C29.8756 94.9706 31.8281 97.3437 33.9976 99.5098L36.6665 96.841C34.6723 94.8509 32.8776 92.6706 31.3078 90.3312Z" fill="#156D6D"/>
<path d="M58.1417 24.5127C61.0498 23.9003 64.0137 23.5916 66.9856 23.5917L66.9856 19.8135C63.7519 19.8291 60.5285 20.1799 57.3672 20.8601L58.1417 24.5127Z" fill="#E2ECE6"/>
<path d="M75.3795 24.4297L76.1226 20.7248C73.1173 20.1259 70.0604 19.8244 66.9961 19.8247L66.9961 23.6029C69.8109 23.6037 72.6188 23.8806 75.3795 24.4297Z" fill="#156D6D"/>
<path d="M36.6559 36.1822L33.9975 33.5134C31.7149 35.8029 29.6737 38.3209 27.9062 41.0279L31.0461 43.1211C32.6718 40.6209 34.5517 38.2956 36.6559 36.1822Z" fill="#E2ECE6"/>
<path d="M82.9498 26.6768L84.3523 23.1707C81.6923 22.0978 78.9383 21.2744 76.1259 20.7112L75.3828 24.4161C77.9696 24.9343 80.5027 25.691 82.9498 26.6768Z" fill="#E2ECE6"/>
<path d="M106.832 82.4706L110.338 83.873C111.412 81.21 112.236 78.4525 112.798 75.6364L109.093 74.8934C108.575 77.4837 107.819 80.0203 106.832 82.4706Z" fill="#E2ECE6"/>
<path d="M31.0544 43.0871L27.9146 40.9939C26.2376 43.5586 24.8178 46.2824 23.6758 49.1259L27.1819 50.5283C28.2266 47.9274 29.5236 45.4351 31.0544 43.0871Z" fill="#156D6D"/>
<path d="M27.1649 50.556L23.6588 49.1535C22.5858 51.8135 21.7624 54.5674 21.1992 57.3797L24.9042 58.1123C25.4223 55.529 26.1791 52.9994 27.1649 50.556Z" fill="#E2ECE6"/>
<path d="M90.4219 30.5771L92.5151 27.4374C89.9504 25.7605 87.2264 24.3408 84.3829 23.1987L82.9805 26.7048C85.5815 27.7494 88.0738 29.0464 90.4219 30.5771Z" fill="#156D6D"/>
<path d="M109.917 66.5117L113.695 66.5117C113.681 63.2746 113.331 60.0477 112.649 56.8831L108.996 57.6471C109.61 60.562 109.919 63.5329 109.917 66.5117Z" fill="#E2ECE6"/>
<path d="M24.902 58.1181L21.197 57.3855C20.598 60.3906 20.2965 63.4475 20.2969 66.5117L24.0751 66.5117C24.0744 63.6935 24.3514 60.882 24.902 58.1181Z" fill="#156D6D"/>
<path d="M109.082 74.9073L112.787 75.6504C113.385 72.6451 113.686 69.5884 113.687 66.5242L109.909 66.5242C109.908 69.3389 109.631 72.1467 109.082 74.9073Z" fill="#156D6D"/>
<path d="M108.996 57.6484L112.691 56.874C112.059 53.8728 111.13 50.9419 109.917 48.1245L106.453 49.6107C107.565 52.1992 108.417 54.8916 108.996 57.6484Z" fill="#156D6D"/>
<path d="M106.442 49.6309L109.907 48.1447C108.774 45.5087 107.4 42.9827 105.804 40.5988L102.664 42.692C104.134 44.8838 105.399 47.2066 106.442 49.6309Z" fill="#E2ECE6"/>
<path d="M102.676 42.6885L105.816 40.5953C104.111 38.0499 102.163 35.6769 99.997 33.5099L97.3281 36.1787C99.3181 38.1697 101.109 40.3499 102.676 42.6885Z" fill="#156D6D"/>
<path d="M33.0977 108.183C34.5175 109.339 35.9951 110.422 37.5248 111.428C35.9955 110.421 34.5179 109.339 33.0977 108.183Z" fill="#F8FAF8"/>
<path d="M31.0156 106.392C31.6436 106.957 32.282 107.501 32.9309 108.035C32.282 107.501 31.6436 106.957 31.0156 106.392Z" fill="#F8FAF8"/>
<path d="M94.9216 125.776C94.2099 126.111 93.4982 126.446 92.7761 126.76C88.8218 128.453 84.7094 129.75 80.4993 130.632C78.741 131.002 76.9548 131.298 75.1406 131.522L75.2662 132.484C77.1013 132.254 78.9119 131.954 80.6981 131.584C84.9698 130.688 89.1419 129.37 93.1528 127.649C93.8855 127.335 94.6076 127 95.3298 126.655L94.9216 125.776Z" fill="url(#paint1_linear_1153:838)"/>
<path d="M113.32 20.1865C115.023 21.8964 116.631 23.6993 118.134 25.5869L118.888 24.9799C114.521 19.4948 109.306 14.7427 103.44 10.9033L102.906 11.7092C106.658 14.1722 110.147 17.0128 113.32 20.1865Z" fill="url(#paint2_linear_1153:838)"/>
<path d="M127.827 90.885C126.645 93.8549 125.246 96.7338 123.641 99.4983L124.478 99.9902C128.02 93.9388 130.571 87.36 132.034 80.5028L131.092 80.304C130.306 83.9173 129.214 87.4571 127.827 90.885Z" fill="url(#paint3_linear_1153:838)"/>
<path d="M41.21 6.26857C45.1638 4.57407 49.2763 3.27689 53.4867 2.3962C55.2451 2.02641 57.0313 1.72988 58.8454 1.50661L58.7198 0.543753C56.8847 0.774002 55.0741 1.07402 53.2879 1.44382C49.0163 2.3401 44.8443 3.65828 40.8332 5.37897C40.1006 5.69294 39.3784 6.02785 38.6562 6.42555L39.0644 7.30469C39.7761 6.90699 40.4878 6.57208 41.21 6.26857Z" fill="url(#paint4_linear_1153:838)"/>
<path d="M6.15645 42.1449C7.3397 39.1754 8.73892 36.2965 10.3429 33.5315L9.50561 33.0501C5.97733 39.1009 3.43702 45.6758 1.98047 52.527L2.92242 52.7363C3.69708 49.1203 4.77902 45.5769 6.15645 42.1449Z" fill="url(#paint5_linear_1153:838)"/>
<path d="M75.1393 131.524C68.1663 132.391 61.0996 132.137 54.207 130.771C45.9973 129.142 38.1791 125.944 31.1815 121.352L31.0455 121.257L30.5117 122.063L30.6478 122.157C41.4486 129.236 54.0826 133.005 66.9966 133C69.7606 133 72.522 132.829 75.2649 132.487L75.1393 131.524Z" fill="url(#paint6_linear_1153:838)"/>
<path d="M123.61 99.5069C123.058 100.456 122.483 101.391 121.883 102.312C115.249 112.485 105.913 120.61 94.9219 125.776L95.3301 126.655C106.478 121.398 115.946 113.148 122.678 102.825C123.285 101.897 123.871 100.951 124.436 99.9883L123.61 99.5069Z" fill="#22B096"/>
<path d="M118.145 25.5871C119.317 27.0523 120.447 28.5699 121.494 30.1293C131.132 44.5868 134.643 62.2761 131.259 79.3188L131.06 80.2816L132.002 80.4805L132.211 79.4967C133.959 70.6749 133.913 61.5914 132.075 52.7879C130.337 44.4962 127.022 36.6156 122.31 29.5746C121.263 27.9838 120.102 26.4349 118.909 24.9592L118.145 25.5871Z" fill="#22B096"/>
<path d="M58.7187 0.543036L58.8443 1.50589C65.8167 0.633664 72.8837 0.884535 79.7766 2.24897C87.9858 3.87965 95.8037 7.07777 102.802 11.6682L102.938 11.752L103.472 10.9461L103.336 10.8519C92.537 3.79998 79.916 0.0501595 67.0184 0.0616089C64.2445 0.0500848 61.4727 0.21087 58.7187 0.543036Z" fill="#22B096"/>
<path d="M10.3764 33.5723C10.9276 32.6234 11.5032 31.6884 12.1033 30.7674C16.9439 23.3289 23.2423 16.9488 30.6178 12.0126C33.3107 10.2142 36.134 8.61897 39.064 7.2402L38.6558 6.36107C27.5049 11.6172 18.0333 19.8675 11.2974 30.1918C10.6903 31.1267 10.1042 32.0756 9.53906 33.0385L10.3764 33.5723Z" fill="url(#paint7_linear_1153:838)"/>
<path d="M15.8508 107.44C14.6786 105.975 13.5482 104.457 12.5016 102.898C5.29515 92.131 1.45515 79.4637 1.4703 66.5079C1.47014 62.2071 1.89079 57.9166 2.72624 53.6978L2.93556 52.7349L1.99361 52.5256L1.78429 53.5094C0.0395338 62.3319 0.0893665 71.4154 1.93081 80.2182C3.67009 88.5096 6.98505 96.3899 11.6957 103.431C12.7423 105.022 13.9041 106.571 15.0972 108.047L15.8508 107.44Z" fill="url(#paint8_linear_1153:838)"/>
<path d="M20.6656 112.844C18.9628 111.134 17.3556 109.331 15.8512 107.444L15.0977 108.051C19.4643 113.533 24.6795 118.282 30.5457 122.117L31.0794 121.311C27.3287 118.851 23.8393 116.014 20.6656 112.844Z" fill="url(#paint9_linear_1153:838)"/>
<path d="M125.742 52.3792C125.742 50.8821 124.528 49.6685 123.031 49.6685C121.534 49.6685 120.32 50.8821 120.32 52.3792C120.32 53.8762 121.534 55.0898 123.031 55.0898C124.528 55.0898 125.742 53.8762 125.742 52.3792Z" fill="#F8FAF8"/>
<path d="M13.6715 79.8636C13.6715 78.3665 12.4578 77.1529 10.9607 77.1529C9.46363 77.1529 8.25 78.3665 8.25 79.8636C8.25 81.3606 9.46363 82.5742 10.9607 82.5742C12.4578 82.5742 13.6715 81.3606 13.6715 79.8636Z" fill="#F8FAF8"/>
<path d="M59.5465 123.225C59.5465 121.728 58.3328 120.514 56.8357 120.514C55.3386 120.514 54.125 121.728 54.125 123.225C54.125 124.722 55.3386 125.936 56.8357 125.936C58.3328 125.936 59.5465 124.722 59.5465 123.225Z" fill="#F8FAF8"/>
<path d="M109.679 108.13C109.679 106.633 108.466 105.42 106.969 105.42C105.471 105.42 104.258 106.633 104.258 108.13C104.258 109.627 105.471 110.841 106.969 110.841C108.466 110.841 109.679 109.627 109.679 108.13Z" fill="#F8FAF8"/>
<path d="M82.9605 10.5804C82.9605 9.08331 81.7469 7.86971 80.2498 7.86971C78.7527 7.86971 77.5391 9.08331 77.5391 10.5804C77.5391 12.0774 78.7527 13.291 80.2498 13.291C81.7469 13.291 82.9605 12.0774 82.9605 10.5804Z" fill="#F8FAF8"/>
<path d="M31.2886 23.9349C31.2886 22.4378 30.075 21.2242 28.5779 21.2242C27.0808 21.2242 25.8672 22.4378 25.8672 23.9349C25.8672 25.4319 27.0808 26.6455 28.5779 26.6455C30.075 26.6455 31.2886 25.4319 31.2886 23.9349Z" fill="#F8FAF8"/>
<path d="M90.4435 30.5572C85.8643 27.5729 80.7553 25.4945 75.3932 24.4347C66.8953 22.7522 58.0877 23.6676 50.1175 27.0616C47.69 28.0928 45.3635 29.3471 43.168 30.8084C42.6552 31.1538 42.1214 31.5201 41.6399 31.855L41.1794 32.2004C40.8236 32.4725 40.4573 32.7446 40.1328 33.0376L39.6514 33.4249C39.2118 33.7912 38.7827 34.1575 38.3536 34.5447L38.1861 34.7017C37.6628 35.1727 37.1395 35.6541 36.6581 36.1565C36.1766 36.6588 35.6115 37.203 35.1196 37.7787L35.0044 37.9147C34.5962 38.3752 34.1985 38.8357 33.8113 39.3067L33.3926 39.8509C33.0996 40.2277 32.8065 40.6044 32.524 40.9812L32.1576 41.4731C31.7704 42.0069 31.3936 42.5197 31.0378 43.0953C28.052 47.6736 25.9734 52.7828 24.9151 58.1452C23.2326 66.6428 24.148 75.4502 27.5421 83.4202C28.5725 85.848 29.8269 88.1745 31.289 90.3695C36.8696 98.6838 45.1762 104.791 54.7768 107.637C64.3773 110.484 74.6703 109.892 83.8812 105.964C86.3094 104.93 88.636 103.672 90.8307 102.206C91.3436 101.861 91.8773 101.505 92.3588 101.16L92.8193 100.814C93.1821 100.542 93.531 100.263 93.8659 99.9772L94.3369 99.5899C94.7765 99.2271 95.2091 98.8538 95.6347 98.4701C96.2068 97.9607 96.7685 97.4305 97.3197 96.8793C101.838 92.3638 105.291 86.8966 107.427 80.8767C109.562 74.8568 110.327 68.4359 109.665 62.0827C109.003 55.7295 106.931 49.6043 103.601 44.1539C100.27 38.7034 95.7639 34.0654 90.4121 30.5782L90.4435 30.5572ZM42.09 31.6038L41.7655 31.8236L42.09 31.6038ZM40.9701 32.4306L40.1956 33.0272L40.9701 32.4306ZM39.5781 33.5295C39.1595 33.8749 38.7513 34.2308 38.3431 34.5761C38.7478 34.2063 39.1595 33.847 39.5781 33.4981L39.5781 33.5295ZM34.9835 37.967C34.5962 38.4066 34.2195 38.8462 33.8532 39.2962C34.216 38.8218 34.5893 38.3682 34.973 37.9357L34.9835 37.967ZM33.3194 39.9556L32.6914 40.7719L33.3194 39.9556ZM32.0634 41.6196L31.8332 41.9441L32.0634 41.6196ZM91.8983 101.453L92.2227 101.223L91.8983 101.453ZM93.0182 100.626L93.7926 100.029L93.0182 100.626ZM94.4102 99.5062C94.8288 99.1573 95.244 98.8085 95.6556 98.4596C95.244 98.8224 94.8288 99.1713 94.4102 99.5062Z" fill="#DDE3DF"/>
<path d="M58.341 25.4124C53.1055 26.516 48.131 28.6159 43.6884 31.5977C36.635 36.3117 31.1645 43.0403 27.9893 50.9072C27.0254 53.2999 26.2861 55.777 25.7809 58.3066C25.6658 58.9031 25.5611 59.4997 25.4669 60.1067L25.3832 60.6718L25.2157 61.9905L25.1529 62.5871C25.1006 63.1418 25.0587 63.6965 25.0273 64.2616L25.0273 64.45C25.0273 65.1477 25.0273 65.8455 25.0273 66.5432C25.0273 67.2758 25.0273 68.0084 25.0797 68.7305L25.0797 68.9085C25.0797 69.5085 25.125 70.1051 25.2157 70.6981L25.289 71.3261L25.4774 72.7076L25.5611 73.3041C25.6658 73.9425 25.7809 74.5705 25.9065 75.1984C27.0103 80.4337 29.1103 85.408 32.092 89.8506C36.8028 96.9027 43.5279 102.373 51.3915 105.549C57.7221 108.085 64.5764 109.036 71.3582 108.319C78.14 107.602 84.644 105.239 90.3046 101.436C95.0273 98.2808 99.0612 94.2007 102.163 89.4425C105.091 84.966 107.137 79.9715 108.191 74.7275C108.306 74.1309 108.411 73.5344 108.505 72.9273L108.589 72.3622L108.756 71.0435L108.819 70.4469C108.875 69.8957 108.917 69.3376 108.945 68.7724C108.945 68.0293 109.008 67.2758 109.008 66.5118C109.008 60.2617 107.613 54.0904 104.925 48.4478C102.237 42.8053 98.3235 37.8338 93.4699 33.8959C88.6163 29.9579 82.945 27.1529 76.8695 25.6852C70.794 24.2176 64.4676 24.1244 58.3515 25.4124L58.341 25.4124ZM25.6239 59.5729L25.5611 59.9497L25.6239 59.5729ZM25.4146 60.923L25.2995 61.865L25.4146 60.923ZM25.2157 62.6499C25.2157 63.1732 25.1215 63.6965 25.1006 64.2407L25.2157 62.6499ZM25.3309 71.4307L25.4669 72.4773L25.3309 71.4307ZM25.6239 73.4402L25.6972 73.8274L25.6239 73.4402ZM108.453 73.4402L108.516 73.0529L108.453 73.4402ZM108.662 72.0901L108.777 71.1377L108.662 72.0901ZM108.861 70.3632L108.987 68.7724C108.903 69.3271 108.861 69.8609 108.809 70.3841L108.861 70.3632Z" fill="#F5F8F5"/>
<path fill-rule="evenodd" clip-rule="evenodd" d="M37.4141 66.6439L37.6712 67.0481C44.5049 77.5189 57.4373 89.7533 73.8967 91.0024C75.489 91.2761 77.1214 91.2057 78.6842 90.7959C80.2469 90.3861 81.7039 89.6464 82.9569 88.6266C84.2099 87.6067 85.2301 86.3304 85.9487 84.8834C86.6673 83.4364 87.0678 81.8523 87.1231 80.2377C87.2817 78.4839 86.9825 76.7191 86.2548 75.1156C85.5271 73.5121 84.3958 72.1248 82.9715 71.0894C80.6569 69.6198 77.0931 69.2157 78.7464 68.9953C85.0289 68.1135 91.0542 70.7588 96.308 72.1549C95.7258 70.3641 95.4403 68.4901 95.463 66.6072C95.4429 64.7244 95.7283 62.8509 96.308 61.0595C91.0542 62.4556 85.0289 65.0641 78.7464 64.2191C77.0931 63.9986 80.6569 63.5945 82.9715 62.1249C84.3985 61.092 85.5318 59.7052 86.2598 58.1011C86.9878 56.4969 87.2853 54.7308 87.1231 52.9767C87.0729 51.3589 86.6762 49.7707 85.9598 48.3192C85.2434 46.8678 84.224 45.587 82.9703 44.5632C81.7167 43.5394 80.258 42.7964 78.6927 42.3844C77.1274 41.9725 75.492 41.9011 73.8967 42.1752C57.621 43.4243 44.5048 55.6587 37.8549 66.1663L37.5978 66.5337L37.4141 66.6439Z" fill="#063737"/>
<defs>
<linearGradient id="paint0_linear_1153:838" x1="101.754" y1="32.9438" x2="34.5526" y2="100.147" gradientUnits="userSpaceOnUse">
<stop stop-color="#77E5CB"/>
<stop offset="0.36" stop-color="#5CCFD6"/>
<stop offset="1" stop-color="#23B6AD"/>
</linearGradient>
<linearGradient id="paint1_linear_1153:838" x1="85.0774" y1="134.212" x2="83.9273" y2="130.326" gradientUnits="userSpaceOnUse">
<stop stop-color="#A9A5A6"/>
<stop offset="0.26" stop-color="#C9C6C7"/>
<stop offset="0.57" stop-color="#E6E5E5"/>
<stop offset="0.82" stop-color="#F8F8F8"/>
<stop offset="1" stop-color="white"/>
</linearGradient>
<linearGradient id="paint2_linear_1153:838" x1="53047.8" y1="-18714.2" x2="52968.7" y2="-18635" gradientUnits="userSpaceOnUse">
<stop stop-color="#A9A5A6"/>
<stop offset="0.26" stop-color="#C9C6C7"/>
<stop offset="0.57" stop-color="#E6E5E5"/>
<stop offset="0.82" stop-color="#F8F8F8"/>
<stop offset="1" stop-color="white"/>
</linearGradient>
<linearGradient id="paint3_linear_1153:838" x1="27472.5" y1="16177.3" x2="27399.5" y2="16149.1" gradientUnits="userSpaceOnUse">
<stop stop-color="#A9A5A6"/>
<stop offset="0.26" stop-color="#C9C6C7"/>
<stop offset="0.57" stop-color="#E6E5E5"/>
<stop offset="0.82" stop-color="#F8F8F8"/>
<stop offset="1" stop-color="white"/>
</linearGradient>
<linearGradient id="paint4_linear_1153:838" x1="28088.2" y1="-26590.1" x2="28098.8" y2="-26544.5" gradientUnits="userSpaceOnUse">
<stop stop-color="#A9A5A6"/>
<stop offset="0.26" stop-color="#C9C6C7"/>
<stop offset="0.57" stop-color="#E6E5E5"/>
<stop offset="0.82" stop-color="#F8F8F8"/>
<stop offset="1" stop-color="white"/>
</linearGradient>
<linearGradient id="paint5_linear_1153:838" x1="-52134.4" y1="-37340" x2="-52008.8" y2="-37288" gradientUnits="userSpaceOnUse">
<stop stop-color="#A9A5A6"/>
<stop offset="0.26" stop-color="#C9C6C7"/>
<stop offset="0.57" stop-color="#E6E5E5"/>
<stop offset="0.82" stop-color="#F8F8F8"/>
<stop offset="1" stop-color="white"/>
</linearGradient>
<linearGradient id="paint6_linear_1153:838" x1="52.5428" y1="136.338" x2="50.2194" y2="143.025" gradientUnits="userSpaceOnUse">
<stop stop-color="#5FE1CA"/>
<stop offset="1" stop-color="#93E15F"/>
</linearGradient>
<linearGradient id="paint7_linear_1153:838" x1="-432.964" y1="109069" x2="-548.61" y2="108868" gradientUnits="userSpaceOnUse">
<stop stop-color="#5FE1C2"/>
<stop offset="1" stop-color="#5FD9E1"/>
</linearGradient>
<linearGradient id="paint8_linear_1153:838" x1="118690" y1="-22037.9" x2="118443" y2="-21968.5" gradientUnits="userSpaceOnUse">
<stop stop-color="#5FE19B"/>
<stop offset="1" stop-color="#5FE1CA"/>
</linearGradient>
<linearGradient id="paint9_linear_1153:838" x1="-59645.9" y1="13336.1" x2="-59561.5" y2="13244.9" gradientUnits="userSpaceOnUse">
<stop stop-color="#A9A5A6"/>
<stop offset="0.26" stop-color="#C9C6C7"/>
<stop offset="0.57" stop-color="#E6E5E5"/>
<stop offset="0.82" stop-color="#F8F8F8"/>
<stop offset="1" stop-color="white"/>
</linearGradient>
</defs>
</svg>
