<svg width="78" height="78" viewBox="0 0 78 78" fill="none" xmlns="http://www.w3.org/2000/svg">
<path d="M16.1671 33.5374C16.1671 20.9082 26.532 10.6682 39.3179 10.6657C52.1038 10.6632 62.4688 20.8991 62.4688 33.5283C62.4688 46.1574 51.9598 57.3326 39.1739 57.3352C26.3881 57.3377 16.1671 46.1666 16.1671 33.5374Z" fill="#5E3114"/>
<path d="M32.9855 25.2309C34.7296 30.7184 34.1902 36.5439 34.0687 39.5952C34.0237 45.1785 33.7036 44.9413 31.793 50.4628L31.5075 50.505C30.9817 45.0062 32.8055 45.1898 32.6415 39.8064C32.6865 36.5975 31.5133 31.0255 32.2056 25.5154C32.3381 25.1578 32.909 25.0733 32.9855 25.2309Z" fill="#4B2417"/>
<path d="M26.5783 29.0522C27.0837 33.8781 26.7327 38.8307 27.6001 41.3977C28.1054 46.2236 29.2685 45.2599 29.7739 50.0858C29.8504 50.2435 29.4885 50.128 29.4885 50.128C27.2704 45.5556 27.1166 46.7079 26.4023 42.0819C25.7439 39.3151 25.0856 34.1738 25.9309 28.979C25.778 28.6637 26.4253 28.7369 26.5783 29.0522Z" fill="#4B2417"/>
<path d="M23.314 16.0161C29.5132 21.8581 31.5687 30.5103 30.1935 37.1354L29.9081 37.1777C29.5761 33.3401 29.3207 29.6601 28.1325 25.9492C27.0412 23.0689 25.1701 20.4731 23.5079 17.6773C22.8661 20.1381 22.2242 22.599 22.0207 25.3329C21.8937 28.2245 22.985 31.1048 22.858 33.9964C22.9345 34.1541 22.5726 34.0387 22.5726 34.0387C19.1923 28.9623 19.6907 21.791 22.6871 16.6158C22.6106 16.4582 22.6106 16.4582 22.5341 16.3005C22.3047 15.8275 23.161 15.7007 23.314 16.0161Z" fill="#4B2417"/>
<path d="M31.9544 14.9062C37.0063 18.3832 38.9389 22.9979 39.2148 27.3508L38.9294 27.393C38.0061 22.967 34.6668 19.2365 31.251 15.3483C31.0981 15.033 31.5925 14.7908 31.9544 14.9062Z" fill="#4B2417"/>
<path d="M34.6913 60.8517C34.8853 62.5129 35.6501 64.0896 36.1295 65.7085C36.4504 64.4781 36.4095 63.1323 35.7211 61.7133L36.0065 61.671C37.0008 63.7207 37.3478 65.6972 37.1238 67.7582C36.9913 68.1158 36.135 68.2426 35.982 67.9272C34.2639 65.6467 33.764 63.3548 34.1204 60.9362C34.3294 60.7363 34.6148 60.6941 34.6913 60.8517Z" fill="#4B2417"/>
<path d="M42.9283 42.0046C40.2602 46.321 39.4162 51.2418 38.8402 53.7964C37.6387 58.4458 37.9575 58.2939 38.3212 63.1559L38.5492 63.2314C40.2067 58.7331 38.6493 58.6276 39.9802 54.1741C40.6548 51.4992 42.8668 47.0317 43.5137 42.3515C43.4828 42.0354 43.0268 41.8843 42.9283 42.0046Z" fill="#85594A"/>
<path d="M47.0854 50.5552C45.5943 54.4968 44.7872 58.665 43.4964 60.6769C42.0053 64.6185 41.2519 63.6525 39.7609 67.5941C39.6623 67.7144 39.9888 67.6697 39.9888 67.6697C42.8479 64.1813 42.7201 65.1613 44.3406 61.4155C45.502 59.2078 47.1903 55.0256 47.64 50.586C47.8372 50.3454 47.2826 50.3146 47.0854 50.5552Z" fill="#85594A"/>
<path d="M58.7628 24.9298C52.3113 28.9105 48.6821 35.8146 48.3557 41.5186L48.5836 41.5942C49.7112 38.4498 50.7402 35.4258 52.5517 32.508C54.0983 30.2673 56.2303 28.3734 58.2329 26.2837C58.2206 28.421 58.2083 30.5583 57.7709 32.8606C57.2349 35.2832 55.6883 37.524 55.1523 39.9466C55.0537 40.0669 55.3803 40.0221 55.3803 40.0221C59.3177 36.2791 60.4944 30.245 59.151 25.5172C59.2496 25.397 59.2496 25.397 59.3482 25.2767C59.6439 24.9158 58.9599 24.6892 58.7628 24.9298Z" fill="#85594A"/>
<path d="M50.6131 18.6175C50.0832 19.9715 49.0973 21.1744 48.3394 22.4528C48.3456 21.3842 48.6783 20.2708 49.5656 19.1882L49.3376 19.1127C48.0559 20.6764 47.3288 22.271 47.0578 24.0166C47.0886 24.3327 47.7726 24.5593 47.9698 24.3188C49.9046 22.6655 50.8288 20.8303 51.0691 18.7686C50.9397 18.5728 50.7117 18.4972 50.6131 18.6175Z" fill="#85594A"/>
<path d="M27.113 52.8452C36.1221 58.2484 44.6864 57.3051 51.9766 52.7104V73.8761H26.9766L27.113 52.8452Z" fill="#C4C4C4"/>
<path d="M50.8223 66.4731H28.6797V60.3013H50.8223V66.4731Z" stroke="#5E3114" stroke-width="4"/>
<path fill-rule="evenodd" clip-rule="evenodd" d="M55.5387 62.2338C65.6824 56.6141 72.5342 45.8897 72.5342 33.5923C72.5342 15.4801 57.6708 0.78593 39.3179 0.789551C20.965 0.793176 6.10156 15.4932 6.10156 33.6054C6.10156 46.042 13.1095 56.8672 23.443 62.429L23.4645 72.3458C23.4705 75.103 25.7073 77.3349 28.4645 77.3349H50.4963C53.2495 77.3349 55.4847 75.1091 55.4962 72.3559L55.5387 62.2338ZM55.5772 49.6356C59.7247 45.5283 62.2905 39.8589 62.2905 33.5943C62.2905 21.0466 51.9973 10.8911 39.3179 10.8936C26.6385 10.8961 16.3454 21.0557 16.3454 33.6034C16.3454 40.065 19.075 45.8923 23.4545 50.0246C26.2788 52.4786 27.8188 53.4605 30.4753 54.6168V67.9207C30.4753 69.3014 31.5946 70.4207 32.9753 70.4207H45.9753C47.356 70.4207 48.4753 69.3014 48.4753 67.9207V54.6168C51.3451 53.1746 52.8905 52.1192 55.5772 49.6356Z" fill="black"/>
</svg>
