<svg width="77" height="77" viewBox="0 0 77 77" fill="none" xmlns="http://www.w3.org/2000/svg">
<path fill-rule="evenodd" clip-rule="evenodd" d="M13.1023 39.0022C13.1023 52.7702 24.2581 63.9178 38 63.9205C51.7419 63.9233 62.8977 52.7801 62.8977 39.0122C62.8977 25.2442 51.7419 14.0966 38 14.0939C24.2581 14.0911 13.1023 25.2343 13.1023 39.0022ZM38 75.0072C18.109 75.0032 2 58.8736 2 39C2 19.1264 18.109 3.00322 38 3.00719C57.8909 3.01117 74 19.1408 74 39.0144C74 58.8879 57.8909 75.0112 38 75.0072Z" fill="black"/>
<path fill-rule="evenodd" clip-rule="evenodd" d="M66.5127 44.2144C66.2098 44.3637 65.6766 44.6264 64.9359 45.0706C63.853 45.7132 63.5823 46.3557 63.4131 46.6939C63.3116 47.0321 63.2439 47.9453 63.9545 48.4862C64.1576 48.6216 64.7328 48.926 65.3419 48.6892C65.0374 49.6024 64.6651 50.4817 64.2591 51.3272C63.9545 51.3609 63.3455 51.4963 62.3979 51.7668C61.1797 52.1388 60.7398 52.6799 60.5706 53.0181C60.4014 53.3563 60.0969 54.2018 60.6383 54.9119C60.7737 55.1148 61.2474 55.5207 61.8904 55.4869C61.3489 56.2647 60.7737 57.0426 60.1645 57.7528C59.9553 57.7319 59.6424 57.698 59.202 57.6831C58.9304 57.6741 58.6101 57.6722 58.2357 57.6851C56.9837 57.719 56.4085 58.1247 56.1377 58.4292C55.9009 58.6997 55.3933 59.4099 55.7317 60.2554C55.8331 60.4921 56.1715 60.9993 56.8145 61.1348C56.0701 61.7434 55.3256 62.3184 54.5473 62.8594C54.2766 62.7242 53.6675 62.5212 52.72 62.2846C51.5018 61.9802 50.8588 62.2507 50.5204 62.4537C50.2159 62.6228 49.5391 63.2315 49.6407 64.1108C49.6745 64.3476 49.8775 64.9563 50.4528 65.2268C49.6068 65.6326 48.7608 66.0047 47.8472 66.3429C47.5765 66.1399 47.0689 65.8018 46.189 65.3283C45.0724 64.7195 44.3956 64.7872 44.0234 64.9224C43.685 65.024 42.8729 65.4297 42.7375 66.309C42.7037 66.5458 42.7713 67.1545 43.245 67.5941C42.3314 67.7632 41.3839 67.8986 40.4364 67.9661C40.2334 67.7295 39.8274 67.2559 39.1167 66.5795C38.2031 65.7004 37.5263 65.5988 37.1202 65.6327C36.7818 65.6665 35.902 65.8356 35.5297 66.6472C35.4283 66.8502 35.2929 67.4589 35.6651 68C34.7176 67.9323 33.7701 67.7971 32.8565 67.628C32.7212 67.3575 32.4504 66.7825 31.9429 65.937C31.2661 64.8549 30.6231 64.5504 30.2509 64.4828C29.9125 64.3813 29.0327 64.3137 28.4574 65.024C28.3221 65.1931 28.0514 65.7679 28.2544 66.3767C27.3407 66.0722 26.461 65.7004 25.615 65.2945C25.5811 64.9563 25.4458 64.3476 25.1751 63.4005C24.8028 62.183 24.2614 61.7434 23.923 61.5743C23.5846 61.4052 22.7387 61.1009 22.028 61.642C21.8249 61.7773 21.4189 62.2507 21.4528 62.8933C20.6745 62.3521 19.8961 61.7773 19.1856 61.1684C19.2194 60.8641 19.287 60.2554 19.2532 59.2747C19.2532 57.9895 18.8472 57.4483 18.5426 57.1778C18.3057 56.941 17.5613 56.4338 16.7153 56.7719C16.4785 56.8396 15.9709 57.1778 15.8355 57.8204C15.2263 57.1101 14.6511 56.3662 14.1097 55.5883C14.2112 55.2839 14.4142 54.6752 14.6511 53.7282C14.9557 52.5108 14.685 51.8682 14.4819 51.53C14.3127 51.2256 13.7036 50.5492 12.8238 50.6508C12.587 50.6508 11.9778 50.8874 11.7071 51.4624C11.3011 50.5831 10.9627 49.7376 10.6243 48.8244C10.8273 48.5878 11.1657 48.0466 11.6395 47.2012C12.2486 46.0852 12.1808 45.375 12.0455 45.0029C11.9102 44.6647 11.5379 43.8531 10.6581 43.7178C10.4212 43.684 9.8121 43.7178 9.37226 44.2251C9.20307 43.312 9.06766 42.3651 9 41.418L9.00124 41.417C9.23851 41.2138 9.71189 40.808 10.3874 40.0991C11.2672 39.1859 11.4026 38.5096 11.3687 38.1038C11.3687 37.7318 11.1995 36.8524 10.3874 36.5142C10.1505 36.4129 9.54146 36.2776 9 36.6495C9.06766 35.7026 9.20307 34.7557 9.50758 33.8764L9.62275 33.8194C9.92562 33.6702 10.4588 33.4074 11.1995 32.9632C12.2824 32.2868 12.587 31.6443 12.6546 31.2723C12.7562 30.9341 12.8238 30.0211 12.1132 29.4799C11.9102 29.3108 11.3349 29.0402 10.7258 29.2431C11.0303 28.3301 11.4026 27.4508 11.8087 26.6053C12.1132 26.5714 12.7223 26.4362 13.6698 26.1655C14.888 25.7936 15.3279 25.2525 15.4971 24.9143C15.6663 24.5761 15.9709 23.7306 15.4294 23.0204C15.2941 22.8175 14.8203 22.4117 14.1774 22.4454C14.7188 21.6676 15.2941 20.8899 15.9031 20.1796C16.2415 20.2472 16.8506 20.281 17.832 20.2472C19.084 20.2472 19.6593 19.8414 19.93 19.5371C20.1669 19.3003 20.6745 18.5562 20.3361 17.7107C20.2345 17.4741 19.8961 16.9668 19.2532 16.8315C19.9638 16.2227 20.7083 15.6479 21.4866 15.1067C21.7573 15.2081 22.3664 15.4111 23.3139 15.6479C24.5321 15.9522 25.1751 15.6816 25.5134 15.4788C25.818 15.3097 26.4947 14.7008 26.3932 13.8215C26.3594 13.5849 26.1564 12.976 25.5811 12.7055C26.4271 12.2996 27.2731 11.9614 28.1867 11.6233C28.4574 11.8262 28.965 12.1644 29.8449 12.6378C30.9615 13.2467 31.6383 13.179 32.0105 13.0437C32.3489 12.9423 33.161 12.5364 33.2964 11.6571C33.3302 11.4205 33.2625 10.8116 32.7888 10.372C33.7025 10.2029 34.65 10.0677 35.5975 10C35.8005 10.2368 36.2065 10.7102 36.9172 11.3866C37.8308 12.266 38.5076 12.3673 38.9136 12.3673C39.252 12.3673 40.1319 12.1982 40.4364 11.488C40.5379 11.2514 40.6733 10.6425 40.3011 10.1014L40.3075 10.1019C41.2529 10.2033 42.1982 10.3047 43.1097 10.4734L43.1666 10.5882C43.3159 10.8909 43.5787 11.4238 44.0234 12.1644C44.7001 13.2467 45.343 13.551 45.7153 13.6187C46.0537 13.7201 46.9335 13.7878 47.5088 13.0776C47.6441 12.9085 47.9148 12.3335 47.7118 11.7248C48.6255 12.0292 49.5053 12.4012 50.3512 12.8069C50.3851 13.1114 50.5204 13.7201 50.7912 14.667C51.1634 15.8845 51.7048 16.3243 52.0432 16.4934C52.3816 16.6625 53.2275 16.9668 53.9382 16.4257C54.1412 16.2904 54.5473 15.817 54.5134 15.1743C55.2918 15.7154 56.0701 16.2904 56.7806 16.8991C56.7469 17.2373 56.6791 17.8461 56.713 18.8269C56.713 20.1119 57.1529 20.6531 57.4236 20.9235C57.6605 21.1603 58.4049 21.6676 59.2509 21.3294C59.4878 21.2281 59.9953 20.8899 60.1308 20.2472C60.7398 20.9574 61.3151 21.7015 61.8565 22.4793C61.755 22.7499 61.552 23.3586 61.3151 24.3055C61.0444 25.523 61.2812 26.1655 61.4843 26.5037C61.6535 26.8082 62.2625 27.4846 63.1424 27.3831C63.3792 27.3492 63.9545 27.1464 64.2591 26.5714C64.6651 27.4508 65.0035 28.2962 65.3419 29.2093C65.1389 29.4461 64.8005 29.9872 64.3268 30.8327C63.7176 31.9487 63.7853 32.625 63.9207 32.9971C64.0222 33.3353 64.4283 34.1469 65.3081 34.2821C65.545 34.316 66.154 34.2485 66.5939 33.7749C66.7631 34.688 66.8986 35.6349 66.9662 36.582L66.965 36.5829C66.7277 36.7862 66.2543 37.192 65.5788 37.9009C64.699 38.8141 64.5636 39.4904 64.5975 39.8962C64.6313 40.2344 64.8005 41.1137 65.6127 41.4857C65.8495 41.5871 66.4586 41.7224 67 41.3505C66.9324 41.9815 66.8648 42.6124 66.777 43.2333C66.7332 43.5443 66.6842 43.8528 66.6278 44.1574L66.5127 44.2144ZM38 44C41 44 43 41.6149 43 39C43 36.3851 41 34 38.1015 34C35 34 33 36.3851 33 39C33 41.6149 35 44 38 44Z" fill="url(#paint0_radial)"/>
<path fill-rule="evenodd" clip-rule="evenodd" d="M38 64C51.8071 64 63 52.8072 63 39C63 25.1928 51.8071 14 38 14C24.1929 14 13 25.1928 13 39C13 52.8072 24.1929 64 38 64ZM38 43.8611C40.6847 43.8611 42.8611 41.6847 42.8611 39C42.8611 36.3153 40.6847 34.1389 38 34.1389C35.3153 34.1389 33.1389 36.3153 33.1389 39C33.1389 41.6847 35.3153 43.8611 38 43.8611Z" fill="url(#paint1_angular)"/>
<defs>
<radialGradient id="paint0_radial" cx="0" cy="0" r="1" gradientUnits="userSpaceOnUse" gradientTransform="translate(38.0032 38.9809) scale(29.0005 28.9836)">
<stop offset="0.2527" stop-color="#2E2E2E"/>
<stop offset="0.7903" stop-color="#373737"/>
<stop offset="0.8387" stop-color="#838383"/>
<stop offset="0.9409" stop-color="#9E9E9E"/>
<stop offset="0.9731" stop-color="#DEDEDE"/>
<stop offset="1" stop-color="#787878"/>
</radialGradient>
<radialGradient id="paint1_angular" cx="0" cy="0" r="1" gradientUnits="userSpaceOnUse" gradientTransform="translate(38 39) rotate(90) scale(25)">
<stop stop-color="#C4C4C4"/>
<stop offset="0.246705" stop-color="#525252"/>
<stop offset="0.489583" stop-color="#C4C4C4"/>
<stop offset="0.749722" stop-color="#525252"/>
<stop offset="1" stop-color="#C4C4C4"/>
</radialGradient>
</defs>
</svg>
