<svg width="141" height="141" viewBox="0 0 141 141" fill="none" xmlns="http://www.w3.org/2000/svg">
<path d="M70.7761 136.598C107.503 136.598 137.275 106.825 137.274 70.0977C137.273 33.3707 107.498 3.59766 70.7715 3.59766C34.0445 3.59766 4.27252 33.3707 4.27381 70.0977C4.27509 106.825 34.0492 136.598 70.7761 136.598Z" fill="url(#paint0_linear)"/>
<path fill-rule="evenodd" clip-rule="evenodd" d="M40.9963 129.573L57.706 100.631H83.8409L100.552 129.575C103.152 128.271 105.655 126.8 108.047 125.179L91.0114 95.6717L103.724 73.6525H137.18C137.242 72.4753 137.273 71.2901 137.273 70.0975C137.273 68.3697 137.207 66.6574 137.078 64.9628H104.193L91.2459 42.538L107.389 14.578C104.978 12.985 102.458 11.5447 99.8412 10.2711L84.3098 37.1722L57.2369 37.1722L41.7046 10.2695C39.0882 11.5431 36.5677 12.9833 34.1571 14.5762L49.3564 40.9021L35.4649 64.9628H4.46856C4.33921 66.6574 4.27338 68.3697 4.27344 70.0975C4.27348 71.2901 4.30491 72.4753 4.36696 73.6525H35.9335L49.5909 97.3077L33.5007 125.177C35.8926 126.799 38.3957 128.269 40.9963 129.573ZM84.2617 43.9035L98.6944 68.9018L84.2617 93.9001H55.3961L40.9633 68.9018L55.3961 43.9035H84.2617Z" fill="url(#paint1_linear)"/>
<defs>
<linearGradient id="paint0_linear" x1="25.3223" y1="21.2023" x2="114.761" y2="117.289" gradientUnits="userSpaceOnUse">
<stop stop-color="#6D5C3E"/>
<stop offset="1" stop-color="#CEAF75"/>
</linearGradient>
<linearGradient id="paint1_linear" x1="17.5616" y1="28.7854" x2="121.741" y2="108.161" gradientUnits="userSpaceOnUse">
<stop stop-color="#3E3523"/>
<stop offset="1" stop-color="#705F40"/>
</linearGradient>
</defs>
</svg>
