<svg width="78" height="78" viewBox="0 0 78 78" fill="none" xmlns="http://www.w3.org/2000/svg">
<path d="M7.11328 39.723C7.11328 56.8438 20.9925 70.7257 38.1133 70.7292C55.2341 70.7326 69.1133 56.8562 69.1133 39.7354C69.1133 22.6145 55.2341 8.73258 38.1133 8.72916C20.9925 8.72574 7.11328 22.6021 7.11328 39.723Z" fill="#12827A"/>
<path fill-rule="evenodd" clip-rule="evenodd" d="M63.8747 39.2331C63.8747 25.2837 52.5658 13.9712 38.6133 13.9684C24.6607 13.9656 13.3518 25.2734 13.3518 39.2228C13.3518 53.1722 24.6607 64.4847 38.6133 64.4875C52.5658 64.4903 63.8747 53.1825 63.8747 39.2331ZM38.6133 2.72796C58.7706 2.73204 75.1133 19.0759 75.1133 39.2354C75.1133 59.3948 58.7706 75.732 38.6133 75.728C18.4559 75.7239 2.11328 59.38 2.11328 39.2206C2.11328 19.0611 18.4559 2.72387 38.6133 2.72796Z" fill="black"/>
<path d="M39.2895 9.03101C39.1264 8.62057 38.5501 8.60783 38.3689 9.01064L30.9559 25.493C30.5544 26.4561 31.3804 27.4493 32.5697 27.4335L44.1191 27.2802C45.3084 27.2644 46.1465 26.2491 45.7566 25.2965L39.2895 9.03101Z" fill="#FFF7E7"/>
<path d="M9.22926 19.8393C9.05225 19.7043 8.80235 19.8537 8.83492 20.0739C9.94671 27.5893 10.944 31.6573 14.7775 36.8038C15.3357 37.8144 16.7321 37.8848 17.5059 36.9414L24.9664 31.1505C25.7401 30.207 25.4263 28.8165 24.3533 28.4337C18.4179 28.7685 15.141 24.3457 9.22926 19.8393Z" fill="#FFF7E7"/>
<path d="M67.739 19.8393C67.916 19.7043 68.1659 19.8537 68.1333 20.0739C67.0215 27.5893 66.0243 31.6573 62.1907 36.8038C61.6326 37.8144 60.2361 37.8848 59.4623 36.9414L52.0019 31.1505C51.2281 30.207 51.5419 28.8165 52.615 28.4337C58.5503 28.7685 61.8273 24.3457 67.739 19.8393Z" fill="#FFF7E7"/>
</svg>
