<svg width="149" height="149" viewBox="0 0 149 149" fill="none" xmlns="http://www.w3.org/2000/svg">
<path d="M74.561 140.383C111.288 140.383 141.063 110.61 141.066 73.8828C141.068 37.1559 111.297 7.38281 74.5703 7.38281C37.8434 7.38281 8.06823 37.1559 8.06566 73.8828C8.06309 110.61 37.8341 140.383 74.561 140.383Z" fill="#663F2E"/>
<path fill-rule="evenodd" clip-rule="evenodd" d="M13.1955 74.247C13.1955 107.933 40.501 135.237 74.1758 135.24C107.851 135.242 135.156 107.943 135.156 74.2572C135.156 40.5711 107.851 13.2675 74.1758 13.2647C40.501 13.2618 13.1955 40.5609 13.1955 74.247ZM74.1758 146.252C34.4076 146.249 2.17578 114.007 2.17578 74.2461C2.17578 34.4853 34.4076 2.24878 74.1758 2.2521C113.944 2.25542 146.176 34.4973 146.176 74.2581C146.176 114.019 113.944 146.255 74.1758 146.252Z" fill="black"/>
</svg>
