<svg width="73" height="73" viewBox="0 0 73 73" fill="none" xmlns="http://www.w3.org/2000/svg">
<path d="M5.5503 36.5276C5.55029 53.369 19.2056 67.0243 36.0503 67.0276C52.895 67.031 66.5503 53.3811 66.5503 36.5398C66.5503 19.6985 52.895 6.04317 36.0503 6.0398C19.2056 6.03643 5.5503 19.6863 5.5503 36.5276Z" fill="#A3A3A3"/>
<path fill-rule="evenodd" clip-rule="evenodd" d="M61.0001 36.5388C61.0001 22.7637 49.8306 11.5926 36.0501 11.5899C22.2696 11.5871 11.1001 22.7537 11.1001 36.5288C11.1001 50.3039 22.2696 61.4749 36.0501 61.4777C49.8306 61.4805 61.0001 50.3139 61.0001 36.5388ZM36.0501 0.489864C55.9589 0.493844 72.1001 16.6334 72.1001 36.541C72.1001 56.4485 55.9589 72.5817 36.0501 72.5777C16.1413 72.5737 9.67265e-05 56.4341 9.76002e-05 36.5266C9.84739e-05 16.619 16.1413 0.485884 36.0501 0.489864Z" fill="black"/>
</svg>
