<svg width="77" height="77" viewBox="0 0 77 77" fill="none" xmlns="http://www.w3.org/2000/svg">
<mask id="mask0" mask-type="alpha" maskUnits="userSpaceOnUse" x="0" y="0" width="77" height="77">
<rect width="77" height="77" fill="#C4C4C4"/>
</mask>
<g mask="url(#mask0)">
<path d="M7.06928 39.0007C7.06928 56.0759 20.9143 69.9208 37.9929 69.9242C55.0715 69.9276 68.9165 56.0882 68.9165 39.0131C68.9165 21.9379 55.0715 8.09294 37.9929 8.08952C20.9143 8.08611 7.06928 21.9255 7.06928 39.0007Z" fill="white"/>
<path fill-rule="evenodd" clip-rule="evenodd" d="M63.7614 38.5124C63.7614 24.563 52.4526 13.2505 38.5 13.2477C24.5474 13.2449 13.2386 24.5527 13.2386 38.5021C13.2386 52.4515 24.5474 63.764 38.5 63.7668C52.4526 63.7696 63.7614 52.4618 63.7614 38.5124ZM38.5 2.00725C58.6573 2.01134 75 18.3552 75 38.5146C75 58.6741 58.6573 75.0113 38.5 75.0073C18.3427 75.0032 2 58.6593 2 38.4999C2 18.3404 18.3427 2.00317 38.5 2.00725Z" fill="black"/>
</g>
</svg>
