<svg width="73" height="88" viewBox="0 0 73 88" fill="none" xmlns="http://www.w3.org/2000/svg">
<path fill-rule="evenodd" clip-rule="evenodd" d="M15.9728 28.4918C9.81063 34.0689 5.93848 42.1371 5.93848 51.112C5.93848 67.9473 19.5635 81.5978 36.3709 81.6012C53.1783 81.6045 66.8033 67.9595 66.8033 51.1242C66.8033 42.2889 63.0507 34.3309 57.055 28.7622L36.3787 8.08594L15.9728 28.4918Z" fill="#8CC853"/>
<path d="M15.9728 28.4918L19.6971 32.6067L19.7995 32.514L19.8973 32.4162L15.9728 28.4918ZM5.93848 51.112H11.4885H5.93848ZM36.3709 81.6012L36.372 76.0511L36.3709 81.6012ZM57.055 28.7622L53.1305 32.6867L53.203 32.7591L53.278 32.8288L57.055 28.7622ZM36.3787 8.08594L40.3031 4.16149L36.3787 0.237052L32.4542 4.16149L36.3787 8.08594ZM12.2486 24.3769C4.97155 30.963 0.388475 40.506 0.388476 51.112H11.4885C11.4885 43.7683 14.6497 37.1748 19.6971 32.6067L12.2486 24.3769ZM0.388476 51.112C0.388476 71.0034 16.489 87.1472 36.3698 87.1512L36.372 76.0511C22.6381 76.0484 11.4885 64.8913 11.4885 51.112H0.388476ZM36.3698 87.1512C56.2515 87.1551 72.3533 71.0164 72.3533 51.1242H61.2533C61.2533 64.9026 50.1051 76.0539 36.372 76.0511L36.3698 87.1512ZM72.3533 51.1242C72.3533 40.6837 67.912 31.2713 60.8319 24.6956L53.278 32.8288C58.1895 37.3904 61.2533 43.8942 61.2533 51.1242H72.3533ZM60.9794 24.8378L40.3031 4.16149L32.4542 12.0104L53.1305 32.6867L60.9794 24.8378ZM32.4542 4.16149L12.0484 24.5673L19.8973 32.4162L40.3031 12.0104L32.4542 4.16149Z" fill="black"/>
<rect x="35.3035" y="37.8184" width="2.13517" height="40.2889" fill="#1C6C0F"/>
<rect x="43.8877" y="47.2725" width="2.13517" height="9.91221" transform="rotate(60 43.8877 47.2725)" fill="#1C6C0F"/>
<rect x="48.2937" y="61.7207" width="2.13517" height="15" transform="rotate(60 48.2937 61.7207)" fill="#1C6C0F"/>
<rect width="2.13517" height="10.2225" transform="matrix(-0.5 0.866025 0.866025 0.5 28.5854 39.7324)" fill="#1C6C0F"/>
<rect width="2.13517" height="15" transform="matrix(-0.5 0.866025 0.866025 0.5 24.4482 54.6582)" fill="#1C6C0F"/>
<path d="M15.9728 28.4918L19.6971 32.6067L19.7995 32.514L19.8973 32.4162L15.9728 28.4918ZM5.93848 51.112H11.4885H5.93848ZM36.3709 81.6012L36.372 76.0511L36.3709 81.6012ZM57.055 28.7622L53.1305 32.6867L53.203 32.7591L53.278 32.8288L57.055 28.7622ZM36.3787 8.08594L40.3031 4.16149L36.3787 0.237052L32.4542 4.16149L36.3787 8.08594ZM12.2486 24.3769C4.97155 30.963 0.388475 40.506 0.388476 51.112H11.4885C11.4885 43.7683 14.6497 37.1748 19.6971 32.6067L12.2486 24.3769ZM0.388476 51.112C0.388476 71.0034 16.489 87.1472 36.3698 87.1512L36.372 76.0511C22.6381 76.0484 11.4885 64.8913 11.4885 51.112H0.388476ZM36.3698 87.1512C56.2515 87.1551 72.3533 71.0164 72.3533 51.1242H61.2533C61.2533 64.9026 50.1051 76.0539 36.372 76.0511L36.3698 87.1512ZM72.3533 51.1242C72.3533 40.6837 67.912 31.2713 60.8319 24.6956L53.278 32.8288C58.1895 37.3904 61.2533 43.8942 61.2533 51.1242H72.3533ZM60.9794 24.8378L40.3031 4.16149L32.4542 12.0104L53.1305 32.6867L60.9794 24.8378ZM32.4542 4.16149L12.0484 24.5673L19.8973 32.4162L40.3031 12.0104L32.4542 4.16149Z" fill="black"/>
</svg>
