<svg width="141" height="141" viewBox="0 0 141 141" fill="none" xmlns="http://www.w3.org/2000/svg">
<mask id="mask0" mask-type="alpha" maskUnits="userSpaceOnUse" x="0" y="0" width="141" height="141">
<rect x="0.5" y="0.406921" width="140" height="140" fill="#C4C4C4"/>
</mask>
<g mask="url(#mask0)">
<path d="M70.5037 140.407C108.552 140.407 139.395 109.067 139.393 70.407C139.391 31.747 108.545 0.406984 70.4965 0.406983C32.4479 0.406983 1.60514 31.747 1.60714 70.407C1.60915 109.067 32.4552 140.407 70.5037 140.407Z" fill="#866958"/>
<mask id="mask1" mask-type="alpha" maskUnits="userSpaceOnUse" x="1" y="0" width="139" height="141">
<path d="M70.5037 140.407C108.552 140.407 139.395 109.067 139.393 70.407C139.391 31.747 108.545 0.406984 70.4965 0.406983C32.4479 0.406983 1.60514 31.747 1.60714 70.407C1.60915 109.067 32.4552 140.407 70.5037 140.407Z" fill="url(#paint0_linear)"/>
<path d="M70.5037 140.407C108.552 140.407 139.395 109.067 139.393 70.407C139.391 31.747 108.545 0.406984 70.4965 0.406983C32.4479 0.406983 1.60514 31.747 1.60714 70.407C1.60915 109.067 32.4552 140.407 70.5037 140.407Z" fill="#866958"/>
</mask>
<g mask="url(#mask1)">
<path d="M81.181 126.179C119.23 126.179 150.073 94.8386 150.072 56.1787C150.07 17.5188 119.225 -13.8213 81.1762 -13.8213C43.1276 -13.8213 12.2843 17.5188 12.2856 56.1787C12.2869 94.8386 43.1324 126.179 81.181 126.179Z" fill="url(#paint1_linear)"/>
</g>
<mask id="mask2" mask-type="alpha" maskUnits="userSpaceOnUse" x="1" y="0" width="139" height="141">
<path d="M70.5037 140.407C108.552 140.407 139.395 109.067 139.393 70.407C139.391 31.747 108.545 0.406984 70.4965 0.406983C32.4479 0.406983 1.60514 31.747 1.60714 70.407C1.60915 109.067 32.4552 140.407 70.5037 140.407Z" fill="url(#paint2_linear)"/>
<path d="M70.5037 140.407C108.552 140.407 139.395 109.067 139.393 70.407C139.391 31.747 108.545 0.406984 70.4965 0.406983C32.4479 0.406983 1.60514 31.747 1.60714 70.407C1.60915 109.067 32.4552 140.407 70.5037 140.407Z" fill="#866958"/>
</mask>
<g mask="url(#mask2)">
<path opacity="0.8" d="M139.857 72.7097C38.6626 142.94 6.33255 32.5363 17.9604 23.277C9.47533 27.7468 6.60818 26.4207 9.43658 41.1048C20.4436 98.2493 64.1189 133.364 137.343 86.118C139.857 80.052 143.97 69.8549 139.857 72.7097Z" fill="#866958"/>
</g>
<path d="M70.5037 140.407C108.552 140.407 139.395 109.067 139.393 70.407C139.391 31.747 108.545 0.406984 70.4965 0.406983C32.4479 0.406983 1.60514 31.747 1.60714 70.407C1.60915 109.067 32.4552 140.407 70.5037 140.407Z" fill="#866958"/>
<mask id="mask3" mask-type="alpha" maskUnits="userSpaceOnUse" x="1" y="0" width="139" height="141">
<path d="M70.5037 140.407C108.552 140.407 139.395 109.067 139.393 70.407C139.391 31.747 108.545 0.406984 70.4965 0.406983C32.4479 0.406983 1.60514 31.747 1.60714 70.407C1.60915 109.067 32.4552 140.407 70.5037 140.407Z" fill="url(#paint3_linear)"/>
<path d="M70.5037 140.407C108.552 140.407 139.395 109.067 139.393 70.407C139.391 31.747 108.545 0.406984 70.4965 0.406983C32.4479 0.406983 1.60514 31.747 1.60714 70.407C1.60915 109.067 32.4552 140.407 70.5037 140.407Z" fill="#866958"/>
</mask>
<g mask="url(#mask3)">
<path d="M81.181 126.179C119.23 126.179 150.073 94.8386 150.072 56.1787C150.07 17.5188 119.225 -13.8213 81.1762 -13.8213C43.1276 -13.8213 12.2843 17.5188 12.2856 56.1787C12.2869 94.8386 43.1324 126.179 81.181 126.179Z" fill="url(#paint4_linear)"/>
</g>
<mask id="mask4" mask-type="alpha" maskUnits="userSpaceOnUse" x="1" y="0" width="139" height="141">
<path d="M70.5037 140.407C108.552 140.407 139.395 109.067 139.393 70.407C139.391 31.747 108.545 0.406984 70.4965 0.406983C32.4479 0.406983 1.60514 31.747 1.60714 70.407C1.60915 109.067 32.4552 140.407 70.5037 140.407Z" fill="url(#paint5_linear)"/>
<path d="M70.5037 140.407C108.552 140.407 139.395 109.067 139.393 70.407C139.391 31.747 108.545 0.406984 70.4965 0.406983C32.4479 0.406983 1.60514 31.747 1.60714 70.407C1.60915 109.067 32.4552 140.407 70.5037 140.407Z" fill="#866958"/>
</mask>
<g mask="url(#mask4)">
<path opacity="0.8" d="M139.857 72.7097C38.6626 142.94 6.33255 32.5363 17.9604 23.277C9.47533 27.7468 6.60818 26.4207 9.43658 41.1048C20.4436 98.2493 64.1189 133.364 137.343 86.118C139.857 80.052 143.97 69.8549 139.857 72.7097Z" fill="#866958"/>
</g>
</g>
<defs>
<linearGradient id="paint0_linear" x1="25.0996" y1="117.891" x2="119.401" y2="26.2579" gradientUnits="userSpaceOnUse">
<stop stop-color="white"/>
<stop offset="1" stop-color="#5F5F5F"/>
</linearGradient>
<linearGradient id="paint1_linear" x1="95.3802" y1="9.66158" x2="44.2584" y2="115.442" gradientUnits="userSpaceOnUse">
<stop stop-color="white"/>
<stop offset="0.962281" stop-color="#E4DDC3"/>
</linearGradient>
<linearGradient id="paint2_linear" x1="25.0996" y1="117.891" x2="119.401" y2="26.2579" gradientUnits="userSpaceOnUse">
<stop stop-color="white"/>
<stop offset="1" stop-color="#5F5F5F"/>
</linearGradient>
<linearGradient id="paint3_linear" x1="25.0996" y1="117.891" x2="119.401" y2="26.2579" gradientUnits="userSpaceOnUse">
<stop stop-color="white"/>
<stop offset="1" stop-color="#5F5F5F"/>
</linearGradient>
<linearGradient id="paint4_linear" x1="95.3802" y1="9.66158" x2="44.2584" y2="115.442" gradientUnits="userSpaceOnUse">
<stop stop-color="white"/>
<stop offset="0.962281" stop-color="#E4DDC3"/>
</linearGradient>
<linearGradient id="paint5_linear" x1="25.0996" y1="117.891" x2="119.401" y2="26.2579" gradientUnits="userSpaceOnUse">
<stop stop-color="white"/>
<stop offset="1" stop-color="#5F5F5F"/>
</linearGradient>
</defs>
</svg>
