<svg width="123" height="160" viewBox="0 0 123 160" fill="none" xmlns="http://www.w3.org/2000/svg">
<path d="M15.2324 93.3452L18.3841 79.8046L41.4964 79.8046L39.3953 68.4819L39.5511 68.5095C35.9358 67.4986 31.9486 66.1853 28.0727 64.5134C30.4073 62.6457 32.3917 60.5446 32.3917 60.5446C32.3917 60.5446 34.1426 61.7119 38.695 63.4628C43.2475 65.2138 45.582 64.5134 45.582 64.5134C45.582 64.5134 27.6058 55.5253 22.7032 51.323C22.7032 51.323 20.7188 43.2687 22.7032 37.549C23.4035 35.3312 24.8043 32.7631 25.8548 31.0122C26.6719 32.1795 27.7225 33.5803 28.8898 34.981C28.4229 36.7319 27.8392 39.6502 27.956 42.2182C28.1894 46.0702 29.24 51.323 29.24 51.323C29.24 51.323 31.1076 42.5684 32.1582 38.7163C33.2088 39.7669 34.2593 40.8174 35.4266 41.868C35.1932 43.152 35.0764 44.5528 34.9597 46.0702C34.7262 50.8561 35.6601 55.642 35.6601 55.642C35.6601 55.642 37.7612 49.2219 39.3954 44.903C40.2125 45.4866 41.0296 46.0702 41.9634 46.6539C44.2165 48.1491 46.2467 49.4682 48.063 50.627C51.7871 51.2063 55.3872 51.2063 55.3872 51.2063C55.3872 51.2063 50.3678 47.5877 47.0994 43.8524C43.831 40.1171 40.0957 33.1133 40.0957 32.9966C39.9789 32.7631 39.8622 32.5297 39.7455 32.1795C41.0295 31.1289 44.5314 27.7438 47.2161 24.0085C48.7336 21.7906 50.4845 17.9386 51.8853 14.5534C52.2355 16.0709 52.5857 17.7051 52.9359 19.456C52.5857 22.1408 51.7686 26.81 50.8347 29.4947C48.9671 34.6308 47.0994 37.6658 47.0994 37.6658C51.8853 35.3312 53.8697 30.0784 53.8697 30.0784C53.8697 30.0784 53.753 33.697 52.4689 36.0315C51.3017 38.1327 49.434 42.4516 49.434 42.4516C49.434 42.4516 53.9864 40.2338 57.3716 34.8643C57.9552 36.3817 58.6556 37.7825 59.2392 38.9498C62.2006 44.1322 65.5889 49.1982 67.9272 52.5591C67.2966 50.7096 66.5795 48.4159 65.776 45.6038C64.0251 39.1837 63.3247 33.2305 63.0913 28.5614L63.208 28.6781C63.208 28.6781 71.1456 22.7249 76.1649 16.8885C78.0326 14.6706 80.7173 10.8186 82.9352 7.31671C82.1181 10.4684 81.1842 14.4371 80.2504 18.5227L79.8354 19.0336C78.3813 20.824 76.5826 23.0387 74.8809 25.0595C71.0288 29.7286 65.8928 33.5807 65.8928 33.5807C65.8928 33.5807 73.5969 31.5965 78.3827 27.2775C78.0326 29.2619 77.6824 31.2462 77.3322 32.9971C77.1571 33.0554 77.0112 33.143 76.8653 33.2305C76.7194 33.318 76.5735 33.4056 76.3984 33.464C71.9627 35.7985 67.527 36.7324 67.527 36.7324C70.6787 37.6662 74.1805 36.9658 76.982 35.9153C76.982 36.1487 76.9528 36.3822 76.9236 36.6157C76.8945 36.8491 76.8653 37.0826 76.8653 37.316L76.8646 37.324C76.7481 38.7221 76.6316 40.12 76.5151 41.4015C72.1961 42.6855 68.2273 42.919 68.2273 42.919C68.2273 42.919 73.0132 44.6699 76.2816 44.4365C75.9315 51.7904 76.0482 56.693 76.0482 56.693L68.6595 53.6052C69.9637 55.4568 70.7954 56.5758 70.7954 56.5758L62.9773 62.0602C63.0262 62.0115 62.3193 61.5347 61.0831 60.7009L61.0817 60.7C60.6209 60.3892 60.0866 60.0289 59.4906 59.6226L53.0833 71.1356C58.5485 72.2791 62.2742 73.1511 62.2742 73.1511L62.2742 84.357C62.2742 84.357 58.4927 85.3764 53.2682 86.7055L59.4583 97.8283C59.9742 97.473 60.4444 97.1514 60.8612 96.8664L60.8628 96.8653C62.2351 95.9268 63.0292 95.3837 62.9772 95.3319L70.7954 100.816C70.7954 100.816 64.3753 109.454 59.2392 118.442C58.6556 119.61 57.9552 121.01 57.3716 122.528C53.9864 117.158 49.434 114.941 49.434 114.941C49.434 114.941 51.3017 119.259 52.4689 121.361C53.753 123.695 53.8697 127.314 53.8697 127.314C53.8697 127.314 51.8853 122.061 47.0994 119.726C47.0994 119.726 48.9671 122.761 50.8347 127.897C51.7686 130.582 52.5857 135.251 52.9359 137.936C52.5857 139.687 52.2355 141.321 51.8853 142.839C50.4846 139.454 48.7336 135.602 47.2161 133.384C44.5314 129.648 41.0295 126.263 39.7455 125.213C39.8622 124.862 39.979 124.629 40.0957 124.396C40.0957 124.279 43.831 117.275 47.0994 113.54C50.3678 109.804 55.3872 106.186 55.3872 106.186C55.3872 106.186 51.7999 106.186 48.0829 106.762C46.2616 107.918 44.2247 109.238 41.9634 110.738C41.0296 111.322 40.2125 111.906 39.3954 112.489C37.7612 108.17 35.5433 101.75 35.5433 101.75C35.5433 101.75 34.6095 106.536 34.9597 111.439C35.0764 112.956 35.1932 114.357 35.4266 115.641C34.2593 116.691 33.2088 117.742 32.1582 118.793C31.1077 114.941 29.24 106.186 29.24 106.186C29.24 106.186 28.1894 111.439 27.956 115.291C27.8392 117.859 28.4229 120.777 28.8898 122.528C27.7225 123.929 26.672 125.329 25.8549 126.497C24.8043 124.746 23.4035 122.178 22.7032 119.96C20.7188 114.24 22.7032 106.186 22.7032 106.186C27.6058 101.984 45.582 92.9955 45.582 92.9955C45.582 92.9955 43.2475 92.2951 38.695 94.046C34.1426 95.797 32.3917 96.9643 32.3917 96.9643C32.3917 96.9643 30.4073 94.8631 28.0727 92.9955C28.9373 92.614 29.8075 92.2516 30.6779 91.9076C28.862 92.2451 27.2562 92.5021 25.9715 92.6448C25.3908 92.701 24.807 92.7602 24.2222 92.8195L24.2208 92.8197C21.162 93.1299 18.0739 93.4431 15.2324 93.3452Z" fill="#D1BFB3"/>
<path d="M68.2274 106.886L76.0482 103.617C76.0482 103.617 75.9315 108.403 76.1649 115.757C72.8965 115.524 68.1106 117.275 68.1106 117.275C68.1106 117.275 72.0794 117.508 76.3984 118.792C76.5151 120.076 76.6318 121.477 76.7486 122.878C76.7486 123.111 76.7777 123.345 76.8069 123.578C76.8361 123.811 76.8653 124.045 76.8653 124.278C74.0638 123.228 70.5619 122.527 67.4102 123.461C67.4102 123.461 71.8459 124.395 76.2816 126.73C76.4567 126.788 76.6026 126.876 76.7486 126.963C76.8945 127.051 77.0404 127.138 77.2155 127.197C77.5657 128.948 77.9159 130.932 78.266 132.916C73.4802 128.597 65.776 126.613 65.776 126.613C65.776 126.613 70.9121 130.465 74.7642 135.134C76.4652 137.154 78.2631 139.368 79.7168 141.158L79.7181 141.159L79.7191 141.161L80.1337 141.671C81.0675 145.756 82.0014 149.725 82.8185 152.877C80.6006 149.492 77.9158 145.523 76.1649 143.422C71.1456 137.585 63.208 131.632 63.208 131.632L63.0913 131.749C63.3247 127.08 64.0251 121.127 65.776 114.707C66.7099 111.438 67.527 108.87 68.2274 106.886Z" fill="#D1BFB3"/>
<path d="M81.7679 53.3074L77.0987 46.3037C77.5657 44.3193 78.3828 41.7513 79.4333 38.4829C81.5344 32.1795 84.2192 26.9267 86.6705 22.8412L86.6705 22.9579C86.6705 22.9579 96.5925 22.491 103.946 20.3899C106.748 19.5728 111.067 17.8218 114.802 16.1876C113.8 17.1401 112.668 18.1788 111.462 19.2851C109.861 20.7545 108.129 22.3437 106.398 24.0085C105.658 24.2302 104.849 24.4754 103.999 24.7329C102.165 25.2885 100.141 25.9014 98.2267 26.4598C92.3902 28.2107 85.9701 28.5609 85.9701 28.5609C85.9701 28.5609 93.4408 31.2457 99.8609 30.3118C99.0706 31.1021 98.3436 31.8607 97.647 32.5877C97.0061 33.2565 96.3906 33.8989 95.7754 34.5141C95.6003 34.5141 95.4253 34.4849 95.2502 34.4557C95.0752 34.4265 94.8999 34.3973 94.7248 34.3973C89.8222 33.9304 85.5032 32.1795 85.5032 32.1795C87.6043 34.7475 90.8727 36.0316 93.791 36.7319C93.6159 36.907 93.47 37.082 93.3242 37.2571C93.1784 37.432 93.032 37.6076 92.8571 37.7825C91.9233 38.9498 91.1062 40.0003 90.2891 41.0509C85.9701 39.6501 82.585 37.7825 82.585 37.7825C82.585 37.7825 85.6199 41.868 88.4214 43.5022C84.3359 49.2219 81.7679 53.3074 81.7679 53.3074Z" fill="#D1BFB3"/>
<path d="M81.7679 103.15L77.0987 110.154C77.5657 112.138 78.3828 114.706 79.4333 117.975C81.5344 124.278 84.2192 129.531 86.6705 133.616L86.6705 133.5C86.6705 133.5 96.5925 134.083 103.946 136.184C106.748 137.002 111.067 138.753 114.802 140.387C113.799 139.434 112.667 138.395 111.462 137.289C109.86 135.819 108.129 134.231 106.398 132.566C105.659 132.344 104.849 132.099 103.999 131.842L103.997 131.841C102.163 131.285 100.141 130.673 98.2267 130.115C92.3902 128.364 85.9701 128.013 85.9701 128.013C85.9701 128.013 93.4408 125.329 99.8609 126.263C99.0705 125.472 98.3434 124.713 97.6467 123.986C97.0062 123.318 96.3902 122.675 95.7754 122.06C95.6003 122.06 95.4252 122.089 95.2501 122.119C95.075 122.148 94.8999 122.177 94.7248 122.177C89.8222 122.644 85.5032 124.395 85.5032 124.395C87.6043 121.827 90.8728 120.543 93.791 119.842C93.6159 119.667 93.4701 119.492 93.3242 119.317C93.1783 119.142 93.0322 118.967 92.8571 118.792C91.9233 117.625 91.1062 116.574 90.2891 115.523C86.0869 116.807 82.7017 118.675 82.7017 118.675C82.7017 118.675 85.7367 114.59 88.5382 112.955C84.3359 107.236 81.7679 103.15 81.7679 103.15Z" fill="#D1BFB3"/>
<path d="M20.0178 66.0316L29.006 75.0197L29.5896 66.9654C28.9574 66.9022 28.3247 66.8046 27.7111 66.71C27.192 66.63 26.6858 66.552 26.2045 66.4985C25.2567 66.4427 24.2816 66.3603 23.2933 66.2767L23.2918 66.2766C22.2115 66.1852 21.1147 66.0925 20.0178 66.0316Z" fill="#D1BFB3"/>
<path d="M37.6439 68.249C36.8268 68.1322 36.0389 68.0155 35.251 67.8988C34.4631 67.782 33.6751 67.6653 32.858 67.5486L35.7763 75.136L37.6439 68.249Z" fill="#D1BFB3"/>
<path d="M44.297 109.571C43.9468 109.863 43.6258 110.155 43.3048 110.446C42.9838 110.738 42.6628 111.03 42.3126 111.322C45.4643 110.271 48.3825 109.338 48.3825 109.338L44.297 109.571Z" fill="#D1BFB3"/>
<path d="M44.297 47.8212C43.9468 47.5294 43.6258 47.2375 43.3048 46.9457C42.9838 46.6539 42.6628 46.3621 42.3126 46.0702C45.4643 47.1208 48.3825 48.0546 48.3825 48.0546L44.297 47.8212Z" fill="#D1BFB3"/>
<path d="M11.1481 66.2637C5.07818 67.3143 0.409025 70.6995 0.875941 79.4541C1.45959 88.559 5.66183 91.9441 11.3815 92.9947L14.0663 79.5708L11.1481 66.2637Z" fill="#A6897E"/>
<path d="M24.8053 91.2437C24.8053 91.2437 25.9726 89.2594 26.3228 85.8742C26.673 82.4891 26.3228 80.9716 26.3228 80.9716C26.3228 80.9716 23.9882 84.3567 24.8053 91.2437Z" fill="#A6897E"/>
<path d="M29.4743 91.2437C29.4743 91.2437 33.7932 83.7731 31.2252 80.9716C29.4743 83.5396 29.4743 91.2437 29.4743 91.2437Z" fill="#A6897E"/>
<path d="M11.265 105.952C10.9908 106.409 10.7882 106.938 10.6011 107.426L10.6 107.428C10.5485 107.563 10.4982 107.694 10.4479 107.82C8.34676 113.656 10.4479 120.777 13.4828 124.278C16.868 128.131 22.8211 131.399 22.8211 131.399C22.8211 131.399 23.8717 129.415 25.9728 126.496C24.9223 124.745 23.6383 122.177 22.8211 119.96C20.8368 114.24 22.8211 106.185 22.8211 106.185C22.8211 106.185 18.7356 103.034 15.0003 101.516C13.4828 102.8 12.1988 104.318 11.265 105.952Z" fill="#A6897E"/>
<path d="M49.5519 115.056C49.5519 115.056 51.4195 119.375 52.5868 121.476C53.7541 123.694 53.9876 127.429 53.9876 127.429C53.9876 127.429 52.0032 122.176 47.2173 119.842C47.2173 119.842 49.0849 122.877 50.9526 128.013C51.8864 130.698 52.7035 135.367 53.0537 138.052C54.221 133.032 55.8552 127.196 57.6061 122.76C54.1043 117.274 49.5519 115.056 49.5519 115.056Z" fill="#A6897E"/>
<path d="M34.0273 120.776C31.576 124.395 29.9418 128.13 29.9418 131.749L29.9417 131.974C29.9397 136.121 29.9373 140.812 36.1284 144.939C36.1868 144.998 36.2743 145.056 36.3619 145.114C36.4494 145.173 36.537 145.231 36.5953 145.289C42.782 149.142 50.4861 149.842 50.4861 149.842C50.4861 149.842 50.953 146.924 51.8868 142.838C50.4861 139.453 48.7351 135.601 47.2177 133.383C44.7036 129.726 41.2944 126.629 39.9475 125.405L39.8637 125.329C40.6808 123.695 41.2645 122.761 41.2645 122.761C41.2645 122.761 37.8793 120.309 34.0273 120.776Z" fill="#A6897E"/>
<path d="M38.8124 117.04C38.8124 117.04 41.2638 116.223 43.0147 115.873C44.8824 115.523 46.1664 115.056 46.1664 115.056C46.1664 115.056 44.4154 114.122 41.4972 115.056C38.579 115.99 38.8124 117.04 38.8124 117.04Z" fill="#A6897E"/>
<path d="M57.7231 118.675C57.7231 118.675 55.8554 114.823 54.5714 113.306C53.2874 111.788 52.7038 110.504 52.7038 110.504C52.7038 110.504 54.338 110.271 56.2056 113.189C58.0733 116.107 57.7231 118.675 57.7231 118.675Z" fill="#A6897E"/>
<path d="M13.4828 33.1132C10.4479 36.6151 8.34676 43.7355 10.4479 49.572C10.6813 50.2723 10.9148 50.856 11.265 51.4396C12.1988 53.0738 13.4828 54.7081 14.8836 56.1088C18.7356 54.4746 22.7044 51.4396 22.7044 51.4396C22.7044 51.4396 20.72 43.3853 22.7044 37.6656C23.4048 35.4478 24.8055 32.8797 25.8561 31.1288C23.755 28.2106 22.7044 26.2262 22.7044 26.2262C22.7044 26.2262 16.868 29.1444 13.4828 33.1132Z" fill="#A6897E"/>
<path d="M41.7314 49.5715C41.7314 49.5715 41.1478 51.9061 41.7314 55.0578C42.3151 58.2095 43.5991 60.8942 43.5991 60.8942C43.5991 60.8942 43.8325 58.6764 43.5991 55.6414C43.3656 52.7232 41.7314 49.5715 41.7314 49.5715Z" fill="#A6897E"/>
<path d="M49.5519 42.3339C49.5519 42.3339 51.4195 38.0149 52.5868 35.9138C53.7541 33.6959 53.9876 29.9606 53.9876 29.9606C53.9876 29.9606 52.0032 35.2134 47.2173 37.548C47.2173 37.548 49.0849 34.513 50.9526 29.377C51.8864 26.6922 52.7035 22.023 53.0537 19.3383C54.221 24.3576 55.8552 30.1941 57.6061 34.6298C54.1043 40.2327 49.5519 42.3339 49.5519 42.3339Z" fill="#A6897E"/>
<path d="M36.5953 12.102C36.3619 12.2187 36.2451 12.3355 36.1284 12.4522C29.9373 16.5796 29.9396 21.27 29.9417 25.4174L29.9418 25.6425C29.9418 29.1444 31.576 32.8797 34.0273 36.6151C37.8793 37.1987 41.1477 34.7474 41.1477 34.7474C41.1477 34.7474 40.5641 33.8136 39.747 32.1794C41.031 31.0121 44.4162 27.8604 47.1009 24.1251C48.6184 21.9072 50.3693 18.0552 51.7701 14.67C50.8362 10.5845 50.3693 7.66629 50.3693 7.66629C50.3693 7.66629 42.782 8.1332 36.5953 12.102Z" fill="#A6897E"/>
<path d="M57.7231 38.8321C57.7231 38.8321 55.8554 42.6842 54.5714 44.2016C53.2874 45.7191 52.7038 47.0031 52.7038 47.0031C52.7038 47.0031 54.338 47.2366 56.2056 44.3184C58.0733 41.2834 57.7231 38.8321 57.7231 38.8321Z" fill="#A6897E"/>
<path d="M63.0929 131.632C62.7427 131.865 60.2914 133.616 58.1903 137.935C58.2046 138.022 58.219 138.11 58.2336 138.199C58.3375 138.835 58.4525 139.539 58.6572 140.153C59.1241 142.254 59.7077 144.005 60.4081 145.639C63.7932 154.394 68.9293 157.779 76.4 159.063C80.4855 159.764 84.4543 159.297 84.4543 159.297C84.4543 159.297 83.7539 156.612 82.8201 152.76L82.4601 152.21C80.3282 148.954 77.9277 145.287 76.0498 143.188C71.1472 137.585 63.2096 131.515 63.0929 131.632Z" fill="#A6897E"/>
<path d="M74.7658 135.134C76.4675 137.155 78.2662 139.37 79.7203 141.16L80.1353 141.671C79.5346 139.168 79.0198 136.579 78.5172 134.052L78.5158 134.045L78.5129 134.031C78.431 133.618 78.3493 133.208 78.2676 132.799C73.4817 128.48 65.7776 126.496 65.7776 126.496C65.7776 126.496 70.9137 130.465 74.7658 135.134Z" fill="#A6897E"/>
<path d="M63.0929 28.5606C62.7427 28.3272 60.2914 26.5762 58.1902 22.2573C58.2046 22.1711 58.219 22.0831 58.2336 21.9938C58.3375 21.3575 58.4524 20.6536 58.6572 20.0394C59.1241 17.9383 59.7077 16.1874 60.4081 14.5532C63.7932 5.68178 68.9293 2.41334 76.4 1.0126C80.4855 0.312237 84.4543 0.779141 84.4543 0.779141C84.4543 0.779141 83.7539 3.46392 82.82 7.31598L82.46 7.86572C80.3282 11.1221 77.9277 14.7889 76.0498 16.8878C71.1472 22.7242 63.2096 28.6774 63.0929 28.5606Z" fill="#A6897E"/>
<path d="M79.7192 19.1504L79.7202 19.1492L80.1353 18.6381C79.5346 21.1409 79.0198 23.7296 78.5172 26.2568L78.5166 26.2599C78.4334 26.6782 78.3505 27.0953 78.2676 27.5095C73.4817 31.8285 65.7776 33.8129 65.7776 33.8129C65.7776 33.8129 70.9137 29.8441 74.7658 25.1749C76.4671 23.1546 78.2653 20.9406 79.7192 19.1504Z" fill="#A6897E"/>
<path d="M67.5286 36.9646C67.5286 36.9646 72.081 36.0308 76.4 33.6962C76.7501 33.4628 76.9836 33.346 77.3338 33.2293C77.2171 34.2792 77.1005 35.2126 76.9838 36.1458L76.9836 36.1475C74.1821 37.1981 70.5635 37.8985 67.5286 36.9646Z" fill="#A6897E"/>
<path d="M86.555 22.7242L86.5376 22.6733C86.3603 22.1569 85.41 19.3896 85.9713 14.7866C86.4382 14.203 87.0219 13.6193 87.6055 13.1524C89.123 11.7517 90.6405 10.5844 92.0412 9.53381C99.7453 4.04755 105.932 4.1643 112.819 7.19924C116.671 8.95018 119.706 11.4015 119.706 11.4015C119.706 11.4015 117.722 13.1524 114.687 15.9539C110.951 17.5881 106.632 19.339 103.831 20.1562C96.5936 22.374 86.6717 22.8409 86.555 22.7242Z" fill="#A6897E"/>
<path d="M98.228 26.3426C100.142 25.7843 102.166 25.1714 104 24.6157C104.85 24.3583 105.66 24.1131 106.399 23.8913L106.398 23.8923C104.181 25.9929 101.963 28.0941 99.8622 30.1947C93.4422 31.1285 85.9715 28.4438 85.9715 28.4438C85.9715 28.4438 92.3916 28.0936 98.228 26.3426Z" fill="#A6897E"/>
<path d="M85.6215 32.1787C85.6215 32.1787 89.8238 33.9296 94.8431 34.3965C95.0182 34.3965 95.1933 34.4257 95.3684 34.4549C95.5435 34.4841 95.7186 34.5133 95.8937 34.5133C95.5581 34.9048 95.2225 35.2695 94.8998 35.6203C94.549 36.0015 94.2133 36.3664 93.9093 36.7311C90.9911 36.0307 87.7227 34.7467 85.6215 32.1787Z" fill="#A6897E"/>
<path d="M86.555 133.733L86.5376 133.784C86.3603 134.3 85.41 137.068 85.9713 141.67C86.4382 142.254 87.0219 142.838 87.6055 143.305C89.123 144.705 90.6405 145.873 92.0412 146.923C99.7453 152.41 105.932 152.293 112.819 149.258C116.671 147.507 119.706 145.056 119.706 145.056C119.706 145.056 117.722 143.305 114.687 140.503C110.951 138.869 106.632 137.118 103.831 136.301C96.5936 134.083 86.6717 133.616 86.555 133.733Z" fill="#A6897E"/>
<path d="M98.228 130.115C100.143 130.673 102.166 131.286 104 131.842L104.003 131.842C104.852 132.1 105.661 132.345 106.399 132.566C104.181 130.465 101.963 128.364 99.8622 126.263C93.4422 125.329 85.9715 128.014 85.9715 128.014C85.9715 128.014 92.3916 128.364 98.228 130.115Z" fill="#A6897E"/>
<path d="M24.8053 78.7547C24.8053 78.7547 19.2023 74.4357 17.8016 71.284C16.4008 68.1323 16.2841 66.6148 16.2841 66.6148C16.2841 66.6148 19.786 70.7004 21.3035 73.1517C22.8209 75.603 24.8053 78.7547 24.8053 78.7547Z" fill="#A6897E"/>
<path d="M36.0118 89.96C36.0118 89.96 39.1634 89.6098 41.498 90.0767C44.9999 90.777 47.4512 91.4774 47.4512 91.4774C47.4512 91.4774 45.9337 89.7265 44.1828 89.3763C41.8482 88.7927 40.3307 88.7927 40.3307 88.7927L36.0118 89.96Z" fill="#A6897E"/>
<path d="M41.7314 107.819C41.7314 107.819 41.1478 105.485 41.7314 102.333C42.3151 99.1815 43.5991 96.4968 43.5991 96.4968C43.5991 96.4968 43.8325 98.7146 43.5991 101.75C43.3656 104.785 41.7314 107.819 41.7314 107.819Z" fill="#A6897E"/>
<path d="M36.0118 67.4317C36.0118 67.4317 39.1634 67.7819 41.498 67.315C44.9999 66.6146 47.4512 65.9143 47.4512 65.9143C47.4512 65.9143 45.9337 67.6652 44.1828 68.0154C41.8482 68.599 40.3307 68.599 40.3307 68.599L36.0118 67.4317Z" fill="#A6897E"/>
<path d="M38.8124 40.3505C38.8124 40.3505 41.2638 41.1676 43.0147 41.5178C44.8824 41.868 46.1664 42.3349 46.1664 42.3349C46.1664 42.3349 44.4154 43.2687 41.4972 42.3349C38.579 41.4011 38.8124 40.3505 38.8124 40.3505Z" fill="#A6897E"/>
<path d="M67.5286 123.228C67.5286 123.228 72.081 124.162 76.4 126.497C76.7501 126.73 76.9836 126.847 77.3338 126.963C77.2171 125.914 77.1005 124.98 76.9838 124.047L76.9836 124.045C74.1821 123.111 70.5635 122.294 67.5286 123.228Z" fill="#A6897E"/>
<path d="M85.6215 124.279C85.6215 124.279 89.8238 122.528 94.8431 122.061C95.0182 122.061 95.1933 122.032 95.3683 122.003C95.5434 121.974 95.7186 121.944 95.8937 121.944C95.5581 121.553 95.2225 121.188 94.8997 120.837C94.5489 120.456 94.2133 120.091 93.9093 119.727C90.9911 120.427 87.7227 121.711 85.6215 124.279Z" fill="#A6897E"/>
<path d="M20.0198 66.0306C16.9849 65.7971 13.9499 65.7971 11.1484 66.264L14.0667 79.5711L11.3819 92.995C12.6659 93.2284 13.9499 93.3451 15.2339 93.3451L18.3856 79.8046L41.4979 79.8046L39.3968 68.4819C38.8132 68.3652 38.1128 68.2484 37.5292 68.1317L35.6615 74.902L32.7433 67.3146C31.576 67.1979 30.5254 66.9644 29.4749 66.8477L28.8912 74.902L20.0198 66.0306Z" fill="#C0A799"/>
<path d="M44.2994 79.8046L53.4043 79.8046L52.7039 77.9369C52.8207 77.9369 48.8519 76.6529 44.2994 79.8046Z" fill="#C0A799"/>
<path d="M27.9574 115.29C27.8407 117.858 28.4243 120.776 28.8912 122.527C29.8251 121.36 30.9923 120.076 32.1596 118.909C31.1091 115.057 29.2414 106.302 29.2414 106.302C29.2414 106.302 28.1909 111.438 27.9574 115.29Z" fill="#C0A799"/>
<path d="M34.9611 111.438C35.0779 112.956 35.1946 114.356 35.428 115.64C36.5953 114.59 37.9961 113.539 39.2801 112.489C37.6459 108.17 35.5448 101.75 35.5448 101.75C35.5448 101.75 34.7277 106.536 34.9611 111.438Z" fill="#C0A799"/>
<path d="M45.5835 92.8782C45.5835 92.8782 43.3656 92.1778 38.6965 93.9288C34.144 95.6797 32.3931 96.847 32.3931 96.847C32.3931 96.847 30.292 94.7459 28.0741 92.8782C23.1715 94.9793 18.3856 97.7808 14.8838 101.283C18.7358 102.917 22.7046 105.952 22.7046 105.952C27.6072 101.983 45.5835 92.8782 45.5835 92.8782Z" fill="#C0A799"/>
<path d="M42.5485 87.6254C42.5485 87.6254 50.2526 85.8745 54.4549 85.8745C58.6571 85.8745 55.7389 83.5399 55.272 83.4232C54.805 83.1897 45.1165 85.2908 42.5485 87.6254Z" fill="#C0A799"/>
<path d="M55.3887 106.185C55.3887 106.185 51.3032 106.185 47.3344 106.886C46.2838 107.703 45.2333 108.637 44.2994 109.57L48.385 109.454C48.385 109.454 45.4667 110.271 42.3151 111.438C39.1634 114.473 36.2451 117.625 34.0273 120.893C37.8794 120.31 41.1478 122.761 41.1478 122.761C41.1478 122.761 43.9493 117.508 47.2177 113.773C50.6028 110.037 55.3887 106.185 55.3887 106.185Z" fill="#C0A799"/>
<path d="M50.2526 136.301C50.2526 136.068 48.7351 129.998 46.5173 126.496C44.2994 122.994 43.9493 122.644 43.9493 122.644C43.9493 122.644 46.7508 123.578 48.385 126.73C50.0192 129.998 50.2526 136.301 50.2526 136.301Z" fill="#C0A799"/>
<path d="M55.3887 108.403C55.3887 108.403 57.6065 111.672 58.5404 113.539C59.4742 115.407 60.2913 117.158 60.2913 117.158L63.2095 111.555C63.2095 111.555 62.2757 106.535 57.7233 105.602C59.2407 108.053 59.8244 110.854 59.8244 110.854C59.8244 110.854 58.5404 108.403 55.3887 108.403Z" fill="#C0A799"/>
<path d="M51.4199 103.617C51.4199 103.617 55.3887 103.15 59.2407 100.466C63.0928 97.7808 62.3924 96.3801 62.3924 96.3801C62.3924 96.3801 54.805 100.466 51.4199 103.617Z" fill="#C0A799"/>
<path d="M27.9574 42.1012C27.8407 39.5331 28.4243 36.6149 28.8912 34.864C29.8251 36.0313 30.9923 37.3153 32.1596 38.4826C31.1091 42.3346 29.2414 51.0893 29.2414 51.0893C29.2414 51.0893 28.1909 45.9532 27.9574 42.1012Z" fill="#C0A799"/>
<path d="M34.9611 45.9532C35.0779 44.4357 35.1946 43.035 35.428 41.751C36.5953 42.8015 37.9961 43.8521 39.2801 44.9027C37.6459 49.2216 35.5448 55.6417 35.5448 55.6417C35.5448 55.6417 34.7277 50.8558 34.9611 45.9532Z" fill="#C0A799"/>
<path d="M45.5835 64.5131C45.5835 64.5131 43.3656 65.2135 38.6965 63.4625C34.144 61.7116 32.3931 60.5443 32.3931 60.5443C32.3931 60.5443 30.292 62.6454 28.0741 64.5131C23.1715 62.412 18.3856 59.6105 14.8838 56.1086C18.7358 54.4744 22.7046 51.4395 22.7046 51.4395C27.6072 55.525 45.5835 64.5131 45.5835 64.5131Z" fill="#C0A799"/>
<path d="M55.3887 51.206C55.3887 51.206 51.3032 51.206 47.3344 50.5056C46.2838 49.6885 45.2333 48.7547 44.2994 47.8209L48.385 47.9376C48.385 47.9376 45.4667 47.1205 42.315 45.9532C39.1634 42.9183 36.2451 39.7666 34.0273 36.4982C37.8793 37.0818 41.1478 34.6305 41.1478 34.6305C41.1478 34.6305 43.9493 39.8833 47.2177 43.6186C50.6028 47.4707 55.3887 51.206 55.3887 51.206Z" fill="#C0A799"/>
<path d="M50.2526 21.09C50.2526 21.3234 48.7351 27.3933 46.5173 30.8952C44.2994 34.3971 43.9493 34.7472 43.9493 34.7472C43.9493 34.7472 46.7507 33.8134 48.385 30.6617C50.0192 27.51 50.2526 21.09 50.2526 21.09Z" fill="#C0A799"/>
<path d="M55.3887 48.9882C55.3887 48.9882 57.6065 45.7198 58.5404 43.8521C59.4742 41.9844 60.2913 40.2335 60.2913 40.2335L63.2095 45.8365C63.2095 45.8365 62.2757 50.8558 57.7233 51.7896C59.2407 49.3383 59.8244 46.5368 59.8244 46.5368C59.8244 46.5368 58.5404 48.9882 55.3887 48.9882Z" fill="#C0A799"/>
<path d="M51.4199 53.774C51.4199 53.774 55.3887 54.241 59.2407 56.9257C63.0928 59.6105 62.3924 61.0112 62.3924 61.0112C62.3924 61.0112 54.805 56.9257 51.4199 53.774Z" fill="#C0A799"/>
<path d="M68.2289 117.041C68.2289 117.041 72.0809 117.275 76.5166 118.559C76.3999 117.508 76.3999 116.457 76.3999 115.524C73.0147 115.29 68.2289 117.041 68.2289 117.041Z" fill="#C0A799"/>
<path d="M63.0928 131.632C63.3262 126.963 64.0266 121.01 65.7776 114.59C66.7114 111.321 67.5285 108.753 68.2289 106.769L65.7776 107.82C65.7776 107.82 55.8556 122.994 58.1902 137.819C60.2913 133.617 62.7426 131.866 63.0928 131.632Z" fill="#C0A799"/>
<path d="M68.2289 43.2684C68.2289 43.2684 72.0809 43.035 76.5166 41.751C76.3999 42.8015 76.3999 43.8521 76.3999 44.7859C73.0147 44.9026 68.2289 43.2684 68.2289 43.2684Z" fill="#C0A799"/>
<path d="M63.0928 28.5606C63.3262 33.2298 64.0266 39.1829 65.7776 45.603C66.7114 48.8714 67.5285 51.4395 68.2289 53.4239L65.7776 52.3733C65.7776 52.3733 55.8556 37.1985 58.1902 22.374C60.2913 26.5762 62.7426 28.3271 63.0928 28.5606Z" fill="#C0A799"/>
<path d="M86.5553 22.7242C84.2207 26.8097 81.4192 32.0625 79.3181 38.3658C78.2675 41.5175 77.4504 44.2023 76.9835 46.1867L75.5828 43.9688C75.5828 43.9688 75.8162 25.8758 85.9717 14.7866C85.388 19.5725 86.4386 22.374 86.5553 22.7242Z" fill="#C0A799"/>
<path d="M86.5553 133.733C84.2207 129.648 81.4192 124.395 79.3181 118.092C78.2675 114.94 77.4504 112.255 76.9835 110.271L75.5828 112.489C75.5828 112.489 75.8162 130.582 85.9717 141.671C85.388 136.885 86.4386 134.084 86.5553 133.733Z" fill="#C0A799"/>
<path d="M93.2068 133.741C63.1074 133.741 38.707 109.325 38.707 79.2415C38.707 49.158 63.1074 24.7417 93.2068 24.7417C123.306 24.7417 122.209 49.158 122.209 79.2415C122.209 109.325 123.306 133.741 93.2068 133.741Z" fill="#C4765E"/>
<path fill-rule="evenodd" clip-rule="evenodd" d="M76.569 131.153C81.8138 132.834 87.4044 133.741 93.2068 133.741C96.1259 133.741 98.9914 133.512 101.786 133.069C95.1046 124.192 81.6803 102.904 81.6803 75.4869C81.6803 51.0332 92.1666 33.8422 99.2582 25.0741C97.2713 24.8545 95.2522 24.7417 93.2068 24.7417C87.1207 24.7417 81.2677 25.74 75.8023 27.5814C68.3028 38.7383 61.0391 55.2909 61.0391 77.7079C61.0391 103.16 69.211 120.615 76.569 131.153Z" fill="white"/>
<path fill-rule="evenodd" clip-rule="evenodd" d="M79.6757 132.048C84.0022 133.154 88.5359 133.742 93.2068 133.742C96.2898 133.742 99.3131 133.486 102.257 132.994L90.5263 113.91L82.8271 88.8144L82.8271 67.048L90.5263 42.1744L100.909 25.2831C98.3929 24.9269 95.8214 24.7427 93.2068 24.7427C88.9849 24.7427 84.8751 25.2231 80.9291 26.1321L90.5263 42.1744L65.6257 47.2826L81.3645 65.3687L61.0391 79.043L81.397 90.4564L65.6257 108.58L90.5263 113.91L79.6757 132.048Z" fill="#EC0002"/>
<path fill-rule="evenodd" clip-rule="evenodd" d="M106.976 131.986C105.324 132.416 103.642 132.771 101.934 133.046C95.2459 124.155 81.8459 102.88 81.8459 75.4876C81.8459 51.0491 92.3191 33.8644 99.4104 25.0912C101.209 25.2951 102.981 25.5866 104.722 25.9612C98.5478 33.9828 86.094 53.3724 87.5796 77.7085C89.2575 105.196 102.99 126.372 106.976 131.986ZM67.7244 31.0569C70.2762 29.7041 72.9482 28.5482 75.7202 27.6092C68.2505 38.7525 61.0408 55.3751 61.0408 77.7085C61.0408 103.176 69.2227 120.637 76.6311 131.173C74.0539 130.351 71.56 129.342 69.1652 128.163C62.4739 117.177 55.6348 100.398 55.6348 77.7085C55.6348 56.2969 61.5729 41.0781 67.7244 31.0569Z" fill="#3E84FF"/>
</svg>
