<svg width="134" height="134" viewBox="0 0 134 134" fill="none" xmlns="http://www.w3.org/2000/svg">
<path d="M0.0146484 67.1943C0.0146484 30.4442 29.8052 0.652344 66.5103 0.652344C103.215 0.652344 133.006 30.4442 133.006 67.1943C133.006 103.944 103.215 133.736 66.5103 133.736C29.8052 133.736 0.0146484 103.944 0.0146484 67.1943Z" fill="#323071"/>
<path fill-rule="evenodd" clip-rule="evenodd" d="M79.4763 132.445L76.8914 132.899C73.9023 129.918 70.9899 126.847 68.7296 123.157C68.4784 122.755 68.1435 122.357 67.8055 121.955C66.724 120.668 65.6114 119.345 67.1119 117.735C68.8966 115.816 71.1161 117.255 72.8364 118.37C72.9467 118.442 73.0549 118.512 73.1609 118.58C78.3471 121.96 82.9889 125.885 86.8966 130.498L84.4066 131.275C82.7795 129.205 80.9468 127.291 78.7878 125.622C76.2557 123.65 73.7939 121.749 71.2618 119.848C71.0612 119.948 70.8288 120.032 70.6402 120.101C70.432 120.177 70.2771 120.233 70.2771 120.27L70.2932 120.36C70.4289 121.109 70.5746 121.914 70.9804 122.524C73.3033 126.273 76.3291 129.415 79.4763 132.445Z" fill="#DAA047"/>
<path fill-rule="evenodd" clip-rule="evenodd" d="M132.192 77.0787L132.632 74.0546C129.924 74.0596 129.407 71.7221 128.374 65.339C128.093 63.7193 128.304 62.5925 130.062 62.0996C130.969 61.8427 131.875 61.5848 132.782 61.3262L132.537 59.2638C130.423 59.9253 128.308 60.5712 126.194 61.1841L126.075 61.2181C125.074 61.5069 123.434 61.9798 123.029 60.7615C122.633 59.4596 123.782 59.2497 124.76 59.0711C124.998 59.0275 125.227 58.9858 125.42 58.9305C126.862 58.4728 128.321 58.0679 129.781 57.6629C130.579 57.4414 131.378 57.2199 132.173 56.9897L131.856 54.6725C129.594 55.4076 127.331 56.1753 125.068 56.943C123.662 57.4203 122.255 57.8977 120.848 58.3671C119.09 58.9305 117.472 59.1418 116.98 56.8883C116.563 55.1142 116.262 53.2627 115.962 51.4199C115.857 50.7756 115.753 50.1324 115.643 49.4938C114.805 49.4317 114.611 48.5739 114.426 47.756C114.191 46.7207 113.971 45.7492 112.478 46.5361C110.78 47.4683 111.471 49.0409 112.092 50.4562C112.268 50.8584 112.439 51.248 112.548 51.6065C114.037 56.9532 115.607 62.2727 117.174 67.5818C118.124 70.8039 119.074 74.0222 120.004 77.2406C120.637 79.5645 121.692 80.3392 124.084 79.635C126.782 78.7689 129.486 77.9209 132.192 77.0787ZM121.692 75.4096C121.827 75.7703 122.107 76.0733 122.401 76.3925C122.566 76.5718 122.736 76.7562 122.888 76.9589C123.105 76.7777 123.359 76.6339 123.565 76.5177C123.759 76.408 123.909 76.323 123.943 76.2546C123.029 72.8039 122.044 69.3532 121.059 65.9729C120.989 65.832 119.863 65.7616 119.863 65.7616C119.374 67.5251 119.906 69.0842 120.441 70.6521C120.675 71.3382 120.909 72.0261 121.059 72.7335C121.133 73.0303 121.19 73.3446 121.248 73.664C121.354 74.2538 121.464 74.8613 121.692 75.4096ZM125.772 75.6208C125.983 75.9729 126.827 76.0434 127.319 75.9729C128.234 75.8321 128.374 75.0574 128.163 74.2828C127.6 72.264 126.975 70.2452 126.35 68.2264C126.037 67.217 125.725 66.2076 125.42 65.1982C125.334 64.9838 125.17 64.7955 124.96 64.5538C124.825 64.3985 124.671 64.2213 124.506 64.001C124.36 64.2204 124.205 64.4145 124.068 64.5862C123.81 64.9105 123.616 65.1549 123.662 65.339C123.758 66.1473 123.822 66.9593 123.885 67.7691C124.098 70.4868 124.309 73.1792 125.772 75.6208Z" fill="#DAA047"/>
<path d="M72.1043 92.3114C65.0706 92.3114 58.0369 92.241 51.0735 92.3114C48.1897 92.3114 46.0093 91.8889 46.0796 88.2269C46.1499 80.6212 45.9389 73.0155 45.9389 65.3393C45.9389 64.3534 45.5873 62.8041 47.0643 62.8041C48.4007 62.8041 48.2601 64.3534 48.2601 65.3393C48.4711 72.2408 48.7524 79.1423 48.8228 86.1142C48.8228 88.6494 49.8075 89.7058 52.3396 89.6353C64.0155 89.2832 75.7618 89.072 87.508 88.8607C89.6885 88.7903 90.1105 87.8043 89.6181 85.9733C86.453 73.5789 83.2175 61.2548 80.0523 48.8603C79.7006 47.4519 78.7159 46.7476 77.1685 46.7476C73.8627 46.818 70.6272 46.7476 67.3213 46.8181C66.3366 46.8181 65.4223 47.0293 65.2816 48.2969C65.2112 49.7054 66.1256 50.3392 67.251 50.1279C76.6762 48.2969 79.2083 53.6491 80.3337 61.6069C81.2481 68.438 83.2878 75.1282 84.8352 81.8184C85.4683 84.424 84.5539 85.4804 81.8811 85.5508C73.089 85.6917 64.2969 85.9029 55.5751 86.1846C52.9023 86.255 51.6362 85.3395 51.7066 82.593C51.7769 76.9592 51.6362 71.3253 51.6362 65.6915C51.6362 64.7055 51.3549 63.1562 52.832 63.2971C54.1684 63.3675 53.9573 64.9168 53.9573 65.9027C54.0277 70.6915 54.0277 75.5507 54.1684 80.3395C54.2387 81.6071 54.098 83.5085 56.2081 83.2973C58.3182 83.086 57.8962 81.3958 57.8259 80.0578C57.7555 78.1564 57.6852 76.3254 57.4038 74.4239C56.8412 70.9028 57.6852 69.0718 61.8351 68.9309C72.3153 68.5788 72.4559 68.3675 74.2847 78.7902C74.9177 82.593 76.6058 83.9311 80.0523 83.0156C83.7098 82.0296 81.5997 79.3536 81.1777 77.5226C79.6303 70.6915 77.7312 63.8605 76.2541 57.0294C75.5508 53.7899 74.0737 52.9449 70.9085 53.1561C66.829 53.4378 61.6944 54.5646 62.3274 47.311C62.5384 45.1983 63.0308 44.2124 65.1409 44.2828C65.4926 44.2828 65.8443 44.2828 66.196 44.2828C81.2481 44.2828 81.1777 44.2828 85.0462 58.8604C87.508 68.3675 89.9698 77.9451 92.6426 87.3818C93.4867 90.41 92.713 91.5368 89.6181 91.4663C83.7802 91.3959 77.9422 92.3114 72.1043 92.3114ZM60.2877 77.6634C60.991 79.2831 59.0919 82.5226 61.4131 82.7339C64.0859 82.9451 62.2571 79.7761 62.8198 78.2268C63.1011 77.4521 62.9605 76.3254 64.0859 76.5366C65.4926 76.7479 64.9299 78.2268 65.3519 79.1423C65.8443 80.2691 65.0002 82.593 66.9697 82.3818C68.4467 82.2409 67.5324 80.1986 67.7434 79.0014C67.9544 77.9451 67.1807 76.2549 68.8688 76.1845C70.2052 76.1845 69.8535 77.7338 70.1348 78.7198C70.4865 80.0578 69.5018 82.7339 71.4009 82.4522C73.5813 82.1001 71.6119 79.7761 71.7526 78.2972C71.8229 77.7338 71.4009 77.1704 71.4712 76.6071C71.6119 70.6915 67.673 71.114 63.5935 71.2549C58.7403 71.607 60.6393 75.1282 60.2877 77.6634Z" fill="#1588C7"/>
<path d="M33.8427 105.834C33.8427 106.538 33.8427 107.172 33.8427 107.876C33.8427 108.158 33.913 108.369 33.913 108.651C33.0689 114.003 35.2494 115.2 40.5247 114.778C52.0599 113.933 51.9896 114.214 51.8489 102.665C51.7786 99.9889 51.6379 97.1719 48.0507 98.1578C44.7449 99.0029 38.9069 94.9184 38.6256 102.595C38.3442 109.003 39.7509 110.482 45.4482 109.003C46.433 108.792 47.3473 108.51 47.277 107.313C47.2067 106.045 47.1363 104.778 46.7143 103.58C46.5736 103.299 44.9559 103.299 44.1822 103.651C43.4085 103.933 43.9008 104.566 44.4635 104.918C45.1669 105.341 46.1516 105.764 45.4482 106.679C45.1669 107.102 44.1822 107.102 43.5491 107.102C42.4941 107.102 41.228 106.961 41.0874 105.623C41.017 104.285 40.8763 102.313 41.5797 101.679C43.3381 100.2 45.7999 100.834 47.9804 101.045C49.7388 101.256 49.3168 102.735 49.3168 103.792C49.3168 106.186 50.8642 109.989 48.7541 110.693C45.3779 111.82 41.2984 111.538 37.7112 110.904C35.5307 110.552 36.5155 107.665 36.4451 105.904C36.2341 96.1156 36.3044 96.1156 45.7296 95.9043C54.2403 95.7635 54.2403 95.7635 53.8183 104.426C53.748 105.13 53.6777 105.834 53.6777 106.538C53.8183 116.961 53.8183 116.468 43.2678 117.102C34.8274 117.665 27.7233 115.904 21.5337 110.13C19.916 108.651 19.0719 107.242 19.1422 105.059C19.2126 87.4535 19.2126 69.9182 19.2126 52.3124C19.2126 51.256 19.2126 49.7067 20.4786 49.918C21.9557 50.1292 21.393 51.8194 21.393 52.9462C21.393 69.566 21.393 86.2563 21.3227 102.876C21.3227 103.792 21.3227 104.778 21.393 105.693C21.604 107.524 23.0811 108.58 24.4879 108.51C26.1056 108.44 25.3319 106.609 25.3319 105.623C25.3319 89.2141 25.1912 72.8055 25.1209 56.3969C25.1209 55.411 24.6285 53.7912 25.9649 53.7208C27.653 53.6504 27.231 55.411 27.231 56.4673C27.5123 73.7914 27.7233 91.1859 27.864 108.51C27.864 110.904 28.286 112.665 30.7478 113.44C30.8885 113.228 31.0995 112.947 31.2402 112.735C31.3105 112.313 31.3105 111.82 31.3809 111.397C32.2113 107.148 31.2306 73.1644 31.5169 63.0149C31.5441 62.0487 32.5927 61.7341 33.2197 62.4691C33.3928 62.6721 33.4955 62.9065 33.5023 63.1733C33.6179 67.7224 34.2819 104.075 33.8427 105.834Z" fill="#DAA047"/>
<path fill-rule="evenodd" clip-rule="evenodd" d="M0.575195 75.9189C4.87029 76.2593 9.09459 77.1788 12.9527 79.5647C15.8366 81.3253 16.6806 83.7197 15.5552 86.7479C14.5258 89.4762 12.4537 88.7595 10.6854 88.1479C10.3997 88.0491 10.122 87.953 9.85792 87.8746C7.46144 87.1444 5.10784 86.5343 2.7897 86.1377C1.72845 83.1793 0.871177 78.0925 0.575195 75.9189Z" fill="#1588C7"/>
<path d="M104.392 44.6353C105.939 44.2832 107.205 45.1987 107.838 47.5931C111.425 60.4101 115.083 73.2271 118.881 86.0441C119.444 87.9456 118.881 88.9315 117.193 89.5653C112.621 91.3259 108.049 93.0865 103.477 94.9175C101.789 95.5513 100.875 95.0583 100.382 93.2977C96.2325 78.7906 92.0123 64.3538 87.7921 49.8466C87.0887 47.3114 88.0031 46.0438 90.6056 45.8325C94.9665 45.4804 99.257 45.0578 104.392 44.6353ZM100.453 56.3256C101.086 56.4664 102.282 55.4805 102.915 56.8889C102.985 57.0298 102.141 57.5932 101.648 57.8044C100.382 58.4382 97.8503 57.734 98.624 60.4805C99.3977 63.0158 101.226 61.4664 102.704 61.3256C103.759 61.1848 105.095 60.9735 105.236 62.3819C105.376 63.6496 104.04 63.5087 103.126 63.6496C101.789 63.8608 99.9604 63.72 100.382 65.9031C100.804 68.0158 102.563 67.5933 104.04 67.5228C105.095 67.5228 106.783 66.5369 106.994 68.1566C107.205 69.4947 105.376 69.0017 104.532 69.4243C103.477 69.9172 101.508 69.6355 102.141 71.6074C102.633 73.0863 104.04 72.4525 105.165 72.2412C106.361 72.0299 108.26 71.1848 108.612 72.5229C109.104 74.4243 106.853 74.1426 105.658 74.4947C104.251 74.9173 102.774 74.9877 103.196 77.1004C103.618 78.9314 104.954 78.9314 106.431 78.861C107.627 78.7906 109.456 77.7342 109.808 79.3539C110.159 80.9032 108.049 80.8328 106.924 81.1849C105.447 81.6075 104.673 82.2413 105.236 83.9314C105.869 85.7624 106.994 85.2695 108.33 84.9174C109.737 84.5653 111.636 83.5089 112.41 85.3399C113.043 86.8892 113.535 88.016 115.223 87.1005C117.052 86.185 115.927 84.6357 115.575 83.3681C112.621 73.0158 109.315 62.7341 106.783 52.241C105.517 46.9593 102.704 46.3255 98.413 47.4522C97.2876 47.7339 95.3885 47.3114 95.4588 49.2128C95.5292 51.1847 97.0766 51.4664 98.7647 51.3255C99.468 51.2551 100.593 50.6917 100.734 51.9593C100.804 52.3114 99.8197 52.8044 99.257 53.1565C98.3427 53.7199 96.6546 53.579 97.0766 55.3396C97.7096 57.1706 99.1164 56.3256 100.453 56.3256ZM104.251 89.0723C100.593 76.537 96.6546 63.0158 92.7157 49.4945C92.5047 48.7903 92.0827 48.086 91.2386 48.4382C89.9726 48.9311 90.5353 50.0579 90.7463 50.8325C94.4038 64.0017 98.1316 77.1708 101.859 90.4104C102.071 91.185 102.352 92.1005 103.407 91.9597C104.532 91.8188 104.532 90.9033 104.251 89.0723Z" fill="#CE4452"/>
<path fill-rule="evenodd" clip-rule="evenodd" d="M41.2988 49.2818C39.9624 59.0002 40.103 59.0002 50.9349 58.296C51.1847 58.296 51.4896 58.2841 51.8348 58.2707C52.9478 58.2275 54.4793 58.168 55.9288 58.4368C59.938 58.9298 60.5007 56.9579 59.8677 53.648C58.2891 45.2675 56.7488 36.8677 55.2068 28.4588C53.7945 20.7569 52.3808 13.0473 50.9349 5.33773C50.8961 5.0915 50.8715 4.82142 50.8464 4.5446C50.7832 3.84931 50.7162 3.11155 50.4091 2.60254L47.9112 3.30149C47.8536 3.65193 47.8365 4.0313 47.8205 4.38764C47.8085 4.65401 47.7971 4.90752 47.7698 5.12646C45.519 19.8449 43.3385 34.5634 41.2988 49.2818ZM43.4792 55.479C43.2682 54.634 43.0572 53.7185 42.8462 52.6621C43.619 48.1647 46.614 45.228 49.622 42.2787C50.9944 40.9331 52.3694 39.5848 53.5374 38.0845C53.6077 37.9437 54.5221 38.0845 54.5924 38.2254C55.3661 40.1972 56.2102 42.662 54.9441 44.2817C52.4884 47.4266 49.7082 50.2929 46.9422 53.1445C46.3015 53.805 45.6616 54.4647 45.0266 55.1269C44.8504 55.3034 44.4809 55.3417 44.1085 55.3803C43.8863 55.4033 43.6631 55.4264 43.4792 55.479ZM53.4102 30.9181C53.5827 31.6296 53.7605 32.363 54.0297 32.9436C52.3493 36.0186 49.8572 38.5678 47.3401 41.1426C46.802 41.693 46.2627 42.2447 45.73 42.8029C45.2376 43.3662 44.7453 42.9437 44.7453 42.169C44.8156 36.676 46.363 31.4647 51.0756 28.5774C52.6139 27.6334 52.9969 29.2132 53.4102 30.9181ZM46.7955 28.1841C46.8195 27.7929 46.8454 27.3701 46.574 27.3098C46.996 24.1407 47.4884 21.0421 50.5129 19.7745C51.6383 19.2815 51.6383 21.2534 51.6383 22.1689C51.5679 25.1266 49.5282 27.0985 47.4181 28.6478C46.7349 29.1708 46.7635 28.7055 46.7955 28.1841ZM56.6895 48.3758C56.739 48.5407 56.7885 48.706 56.8432 48.8593C55.0848 51.7466 52.834 54.141 49.8095 55.7607C49.2468 56.0424 48.1918 55.479 48.8951 54.634C50.8646 52.2396 52.834 49.8452 55.0848 47.6621C56.154 46.5915 56.4206 47.4798 56.6895 48.3758Z" fill="#DAA047"/>
<path fill-rule="evenodd" clip-rule="evenodd" d="M99.4655 20.1281C103.508 19.9128 106.603 18.3026 108.399 15.5387L106.224 13.7954C106.015 13.8731 105.78 13.9206 105.514 13.9308C104.286 13.9764 103.094 14.3906 101.898 14.806C99.3977 15.6747 96.8816 16.5489 93.9793 14.0717C93.34 13.5276 92.3376 13.9434 91.0446 14.4798C89.4924 15.1236 87.5215 15.9412 85.2575 15.4801C87.2269 17.2407 87.5786 17.8041 86.8049 17.945C86.1719 18.0858 85.0465 17.8745 84.9058 17.5928C84.4568 16.2441 83.4154 16.0102 82.3731 15.7761C81.6194 15.6068 80.8652 15.4374 80.3339 14.8463C80.1229 14.6351 79.2788 14.7759 78.9975 14.9872C78.4278 15.4539 78.7352 15.7297 79.0493 16.0114C79.1617 16.1122 79.275 16.2138 79.3492 16.3252C79.7712 16.8886 80.6856 18.2267 79.5602 18.0154C77.1687 17.5928 73.2299 16.6773 72.8078 15.1985C71.8935 11.8886 70.4867 11.8181 68.1656 12.8745C66.7589 13.5787 66.0555 13.0858 65.3521 11.959C64.3392 10.3532 65.251 9.48275 66.1576 8.61731C66.7619 8.04048 67.3638 7.46588 67.3919 6.67725C67.7255 6.70294 68.0591 6.69114 68.3892 6.67947C68.9641 6.65913 69.5286 6.63917 70.0647 6.8181C71.4347 7.22959 70.7534 7.84145 70.0753 8.45042C69.3608 9.09208 68.6499 9.73053 70.3461 10.128C71.4587 10.3879 71.9065 9.57091 72.3389 8.78172C72.7266 8.07426 73.102 7.38917 73.9332 7.52233C74.6366 7.66317 75.2696 9.07164 75.6213 9.98714C76.8171 12.9449 78.9975 12.5928 80.4746 10.8322C84.6948 5.69133 88.6336 7.80402 92.4318 11.0435C94.4013 12.8041 96.0894 11.7477 96.7224 10.4097C97.1568 9.53968 97.5656 8.94053 97.9602 8.56868C95.4178 7.20855 91.5765 5.50703 89.8864 4.8584C82.7742 4.95985 75.1175 4.68321 68.0249 4.00117C63.9454 3.64905 62.3277 5.40963 62.187 9.07164C61.9056 15.128 67.4622 19.9872 74.918 20.3393C83.1474 20.7619 91.3064 20.621 99.4655 20.1281Z" fill="#DAA047"/>
<path fill-rule="evenodd" clip-rule="evenodd" d="M57.8769 1.21962C57.3163 1.7598 56.8036 2.42006 56.3486 3.22708C56.2783 3.79046 56.2079 4.35385 55.9969 4.84681C54.3792 11.537 57.474 20.0582 62.9603 23.8611C64.0857 24.7062 65.3517 25.4104 66.8288 24.4949C66.6589 24.2681 66.4941 24.0211 66.3276 23.7714C65.8735 23.0907 65.4066 22.3907 64.789 22.0301C62.3273 20.692 60.7798 18.5793 59.4434 16.2554C55.8563 10.0581 58.5994 0.691842 64.156 0.903112C67.8275 1.04249 71.4947 1.15169 75.1597 1.22753C69.1862 0.21084 61.1489 0.798636 57.8769 1.21962ZM113.306 19.9652L111.626 18.3336C108.659 22.5614 103.628 25.3075 97.6364 25.2695C88.9146 25.1991 80.1225 25.2695 71.3304 25.34C70.4863 25.34 68.8686 25.7625 68.8686 25.9033C68.9207 27.1568 69.7467 27.0933 70.5143 27.0343C70.7817 27.0137 71.042 26.9937 71.26 27.0301C79.4894 28.5794 87.7892 28.4386 96.089 27.8048C104.457 27.1544 110.106 24.6127 113.306 19.9652Z" fill="#DAA047"/>
<path d="M79.7011 94.494C83.7806 94.2827 88.6339 94.1419 93.3464 93.7898C96.5819 93.5081 97.7073 94.7053 97.7073 97.9447C97.7777 106.959 97.9183 106.959 88.7745 107.241C79.7714 107.522 70.7683 107.804 61.8355 108.227C57.8263 108.367 57.4043 106.536 57.2636 102.874C56.9119 95.1982 61.1321 94.2827 67.1108 94.5644C71.0496 94.6349 75.0588 94.494 79.7011 94.494ZM87.9305 100.198C88.5635 101.536 86.6644 104.353 89.4076 104.212C91.3067 104.142 90.3923 101.466 90.3219 99.987C90.2516 98.7898 91.0957 96.6067 88.9855 96.6771C86.8754 96.818 88.1415 98.9307 87.9305 100.198ZM85.6797 100.55C85.328 99.3532 86.4534 97.3109 84.5543 97.0292C83.0069 96.818 82.9366 98.649 83.2883 99.6349C83.7806 101.255 82.3035 104.142 84.6247 104.424C86.2424 104.565 85.3984 101.959 85.6797 100.55ZM76.1139 101.607C75.1995 100.41 77.2393 97.8039 74.5665 97.5222C73.2301 97.3814 73.3708 99.1419 73.6521 99.987C74.1445 101.607 72.7377 104.212 75.2699 104.635C76.6063 104.776 75.9029 102.734 76.1139 101.607ZM80.8968 100.973C80.0528 100.057 82.0222 97.5926 79.4901 97.5926C77.9427 97.5926 78.5757 99.7053 78.5757 100.832C78.5757 102.1 77.9427 104.212 79.7714 104.283C81.6002 104.353 80.5451 102.311 80.8968 100.973ZM71.4717 101.043C70.9793 100.057 72.1047 97.8743 70.1353 97.8039C68.4472 97.7335 68.9395 99.7757 68.9395 100.903C69.0099 102.241 68.1658 104.494 70.2759 104.565C71.8233 104.565 71.1903 102.452 71.4717 101.043ZM61.7652 101.325C61.5542 100.128 62.3279 98.2264 60.8508 97.9447C59.5144 97.663 59.7254 99.4236 59.8661 100.339C60.0068 101.607 59.2331 103.79 60.7101 104.001C62.1872 104.353 61.4135 102.311 61.7652 101.325ZM95.4565 101.959C94.5422 100.691 96.3006 98.0152 94.0498 97.0997C92.8541 96.6067 92.9948 98.4377 93.2058 99.1419C93.6981 100.903 92.01 103.367 94.3312 104.424C95.3862 104.776 95.5269 103.297 95.4565 101.959ZM66.2667 100.903C65.7744 99.8462 67.1811 97.8743 65.2117 97.8039C63.7346 97.7335 64.0863 99.5645 64.1566 100.621C64.2973 102.029 63.5236 104.424 65.282 104.424C67.1108 104.424 65.7744 102.1 66.2667 100.903Z" fill="#CE4452"/>
<path fill-rule="evenodd" clip-rule="evenodd" d="M30.339 11.349C29.8891 13.5816 29.4392 15.8394 28.9893 18.156C29.9826 21.5376 30.976 24.9536 31.974 28.3855C33.4492 33.4586 34.9346 38.5664 36.445 43.6492C36.5856 44.1422 37.5 44.8464 37.922 44.776C39.1083 44.512 39.2448 43.4444 39.373 42.442C39.3817 42.3745 39.3902 42.3073 39.3991 42.2407C40.2077 36.2571 41.0162 30.291 41.8248 24.3249L41.8257 24.3183C42.6346 18.3498 43.4435 12.3814 44.2524 6.39533C44.273 6.27159 44.3011 6.13577 44.3306 5.9934C44.4374 5.47773 44.5621 4.87612 44.4107 4.45117L42.371 5.17709C42.3564 5.31234 42.346 5.44901 42.3358 5.58211C42.3214 5.7713 42.3076 5.95327 42.2829 6.11363C41.837 9.05487 41.4205 12.0059 41.0041 14.9558C40.3039 19.9164 39.6041 24.8738 38.7661 29.7758C38.6739 30.3849 38.6494 31.1488 38.6241 31.9356C38.553 34.1509 38.476 36.5481 36.867 36.1843C34.6162 35.621 34.5459 31.0434 35.0382 27.9448C35.0708 27.7492 35.1335 27.5537 35.1984 27.3511C35.2738 27.116 35.3521 26.8716 35.3899 26.6068L38.2233 6.95107L36.1685 7.98693C35.8597 9.65684 35.5575 11.335 35.2544 13.0177C34.8833 15.078 34.511 17.1452 34.1239 19.2123C33.9432 20.1619 33.7046 21.0824 33.4638 22.0112C33.3296 22.529 33.1947 23.0493 33.0688 23.5786C31.8731 22.0997 31.3807 20.3391 31.3104 18.4377C31.3104 17.9095 31.4291 17.3813 31.5478 16.8532C31.5873 16.6771 31.6269 16.5011 31.6621 16.325C32.0137 14.2475 32.383 12.17 32.7523 10.0926L32.8009 9.81891L30.339 11.349Z" fill="#1588C7"/>
<path d="M80.8983 109.636C92.0115 108.932 92.0818 108.932 92.7149 119.988C92.8556 121.96 94.1216 124.636 92.0818 125.833C90.1124 126.96 88.6353 124.425 87.0176 123.439C81.672 120.129 76.3967 116.678 71.1215 113.228C70.3478 112.664 69.2224 111.678 69.2927 110.974C69.4334 109.495 71.0511 109.707 72.1062 109.707C75.0603 109.566 77.9441 109.636 80.8983 109.636ZM87.2286 111.467C85.2592 112.03 81.672 110.833 81.7423 115.34C81.7423 117.312 82.516 119.002 84.3448 118.65C86.9472 118.157 90.0421 117.664 90.3938 114.002C90.5344 112.101 89.6201 111.185 87.2286 111.467Z" fill="#1588C7"/>
<path d="M54.0131 132.57C55.8419 128.485 55.7859 127.735 56.7003 123.299C56.9113 122.313 57.9663 121.186 56.4189 120.693C54.8715 120.2 54.4495 121.609 54.0978 122.735C52.7614 126.82 52.6401 127.847 51.3037 132.002L51.3043 132.001L54.0131 132.57Z" fill="#CE4452"/>
<path d="M81.0378 39.564C77.5209 39.564 74.0041 39.4232 70.4872 39.564C60.8511 39.9866 59.9367 34.7048 59.4443 26.6062C59.4443 26.0428 60.007 25.4794 60.2884 24.916C60.6401 25.4794 61.1324 25.9724 61.3434 26.5357C64.2976 37.4513 64.2976 37.4513 75.7625 37.5218C84.3436 37.5218 92.8544 37.5218 101.435 37.5218C109.384 37.5218 110.509 36.4654 111.494 28.3668C111.634 27.1696 111.283 24.9864 112.689 25.1273C114.448 25.3386 113.604 27.4512 113.463 28.7189C112.549 37.8035 110.65 39.4936 101.506 39.564C94.6128 39.6345 87.8604 39.564 81.0378 39.564Z" fill="#1588C7"/>
<path fill-rule="evenodd" clip-rule="evenodd" d="M109.101 103.227C107.062 102.523 105.655 103.157 105.936 105.692C106.38 110.378 106.788 115.099 107.187 119.854L109.583 117.874C109.57 116.05 109.578 114.225 109.585 112.4C109.589 111.291 109.594 110.182 109.594 109.073C108.539 106.678 109.312 106.115 111.704 106.889C113.805 107.715 115.931 108.467 118.081 109.162L119.825 106.889C116.266 105.653 112.697 104.427 109.101 103.227Z" fill="#1588C7"/>
<path fill-rule="evenodd" clip-rule="evenodd" d="M47.008 118.58C46.0344 118.686 45.0635 118.792 44.1788 118.792C43.0182 118.757 41.8576 118.757 40.6883 118.757C39.5189 118.757 38.3408 118.757 37.1451 118.722C36.0197 118.651 35.035 118.722 34.4723 119.848C33.8392 121.186 34.7536 122.031 35.668 122.806C36.1418 123.193 36.6156 123.582 37.0902 123.972C39.2928 125.782 41.5123 127.605 43.8271 129.285C44.3395 129.649 44.8106 129.978 45.2444 130.27C46.2809 130.596 48.5891 131.311 49.5301 131.558C50.2521 130.881 50.6071 129.162 51.0014 126.186C51.1341 125.203 51.7075 124.18 52.2567 123.2C53.1629 121.582 54.0034 120.082 52.6895 119.074C51.4218 118.097 49.2078 118.339 47.008 118.58Z" fill="#DAA047"/>
<path d="M61.0168 133.509C62.1422 130.692 63.6523 125.542 64.6371 122.655C64.9184 121.88 65.3404 121.035 64.2854 120.542C63.3007 120.19 62.6676 120.753 62.3863 121.598C60.9092 125.753 59.6127 129.647 58.3467 133.238C59.4624 133.4 59.9578 133.403 61.0168 133.509Z" fill="#1588C7"/>
<path fill-rule="evenodd" clip-rule="evenodd" d="M17.7342 46.9597C19.352 47.8752 20.196 47.3118 19.8443 44.2132C19.6825 43.0922 19.5154 41.9272 19.3432 40.7261C18.6174 35.6643 17.7997 29.9617 16.8902 24.213C16.8587 23.9292 16.7285 23.589 16.5375 23.2744C13.9738 26.0304 10.8676 30.6995 9.63487 32.6895C10.392 31.6135 11.2952 30.5834 12.1864 29.567C12.7657 28.9062 13.34 28.2513 13.8657 27.5933C14.9911 26.1849 15.3428 27.7342 15.4834 28.5793C16.1165 32.7342 16.7495 36.8892 17.2419 40.3399C17.3825 42.9456 16.8198 44.0019 14.7097 42.9456C14.1291 42.6549 13.4754 42.3775 12.807 42.0939C10.3991 41.0721 7.80144 39.9698 7.74639 37.8751C7.72771 36.8094 7.97178 35.8083 8.38779 34.8532C7.58982 36.3387 5.91863 39.5339 5.61768 40.4309C5.64682 40.4477 5.67646 40.4643 5.70662 40.4808C9.71582 42.6639 13.725 44.847 17.7342 46.9597Z" fill="#1588C7"/>
<path fill-rule="evenodd" clip-rule="evenodd" d="M0.410934 59.9404L0.690203 57.8115C2.84245 57.9848 4.98654 58.3969 7.11539 59.2823C11.6873 61.1837 13.6567 66.3246 11.4763 72.8035C10.1632 76.8073 7.33073 75.9938 4.65495 75.2253C4.17742 75.0881 3.70488 74.9524 3.24686 74.8458C2.66788 74.7126 2.0889 74.5751 1.50953 74.4375C1.14165 74.3501 0.773611 74.2626 0.405321 74.1763L0.198242 71.7142C0.977724 71.8939 1.76679 72.082 2.55626 72.2702L2.5598 72.271C2.81233 72.3312 3.06489 72.3914 3.3172 72.4514C3.71215 72.5468 4.13346 72.6898 4.56226 72.8353C6.34804 73.4413 8.26353 74.0913 8.94415 71.5359C9.85853 68.1556 10.7026 64.071 6.48236 61.8879C4.55177 60.9045 2.50702 60.313 0.410934 59.9404Z" fill="#CE4452"/>
<path d="M19.1421 24.0702C19.2124 22.7321 19.0014 21.4645 20.2675 21.3941C21.5335 21.2532 21.5335 22.5913 21.6742 23.4363C22.4479 28.2955 23.5733 33.1547 23.714 38.0139C23.925 44.2816 27.5825 47.2394 32.6468 49.6338C34.4755 50.4788 37.9924 51.4648 36.7966 53.6479C35.6713 55.6902 33.3501 52.5211 31.5214 51.9577C23.4326 49.2817 21.6039 42.9436 21.1819 35.3379C20.9708 31.3942 19.7751 27.5209 19.1421 24.0702Z" fill="#CE4452"/>
<path d="M69.7147 65.9717C66.3385 65.5492 63.525 64.7745 63.6657 60.8308C63.8064 57.3801 65.7758 55.4082 69.2927 55.5491C72.4578 55.6899 75.2009 56.6758 75.0603 60.5491C74.9196 63.9294 72.9502 65.8308 69.7147 65.9717ZM72.6688 60.3378C72.4578 58.366 71.1917 57.8026 69.5037 57.873C67.6046 57.9434 66.4088 58.7885 66.5495 60.8308C66.6902 62.7322 67.8859 63.366 69.6443 63.366C71.6138 63.366 72.5282 62.2393 72.6688 60.3378Z" fill="#1588C7"/>
<path d="M115.644 49.5647C115.714 48.4379 115.573 47.1703 115.855 46.114C116.558 43.6491 118.035 41.8181 120.849 42.5224C123.381 43.1562 124.014 45.128 123.24 47.452C122.396 50.0577 120.637 51.2548 117.894 50.2689C117.121 49.9872 116.347 49.7055 115.644 49.5647C115.573 49.4943 115.644 49.5647 115.644 49.5647Z" fill="#1588C7"/>
<path d="M17.8065 55.3393C17.8768 57.8746 16.6108 59.4239 14.0786 59.283C11.6168 59.1422 10.2804 57.452 10.3508 55.0576C10.4211 52.5224 12.0389 51.3252 14.5007 51.3252C16.9625 51.466 17.9472 53.0154 17.8065 55.3393Z" fill="#1588C7"/>
<path d="M96.4426 33.5802C96.1612 35.2704 95.2468 34.4957 94.4028 34.1436C89.8309 32.0309 85.259 31.3971 80.6168 33.8619C80.1947 34.0732 79.632 33.8619 79.0693 33.8619C79.3507 33.369 79.4914 32.8056 79.843 32.4535C82.7972 29.214 92.996 29.3549 95.8095 32.7352C96.0205 32.9464 96.2315 33.2281 96.4426 33.5802Z" fill="#1588C7"/>
<path d="M60.43 111.959C62.9621 111.959 64.0171 113.508 64.0171 115.762C64.0171 117.875 62.6807 119.001 60.641 118.931C58.3198 118.931 56.8428 117.663 56.8428 115.269C56.8428 113.086 58.1792 111.959 60.43 111.959Z" fill="#1588C7"/>
<path d="M6.69374 67.1004C6.41239 68.6497 6.97508 70.692 4.93531 71.1849C4.02093 71.4666 3.73959 70.1286 4.02094 69.4243C4.86498 67.5229 3.31757 64.5651 5.42767 63.8609C7.04542 63.2975 6.27171 65.9032 6.69374 67.1004Z" fill="#CE4452"/>
<path d="M31.8746 97.2422C31.8041 97.7348 31.6632 98.2275 31.5928 98.7201C31.6632 98.2275 31.7337 97.7348 31.8746 97.2422Z" fill="#CE4452"/>
<path d="M31.4512 112.734C31.3103 112.946 31.0989 113.228 30.958 113.439C31.1694 113.228 31.3103 112.946 31.4512 112.734Z" fill="#CE4452"/>
<path d="M33.9132 108.58C33.9132 108.298 33.8428 108.086 33.8428 107.805C33.9132 108.086 33.9132 108.368 33.9132 108.58Z" fill="#CE4452"/>
</svg>
