<svg width="77" height="78" viewBox="0 0 77 78" fill="none" xmlns="http://www.w3.org/2000/svg">
<path d="M38.4878 68.5835C55.8847 68.5835 69.9906 54.5972 69.994 37.3441C69.9968 23.4458 60.8473 11.6672 48.1949 7.61227C45.1409 6.63353 41.8827 30.9474 38.5 30.9474C35.1174 30.9474 31.8594 6.63353 28.8051 7.61227C16.151 11.6672 6.99682 23.4458 6.99403 37.3441C6.99057 54.5972 21.0908 68.5835 38.4878 68.5835Z" fill="#E6B87C"/>
<path fill-rule="evenodd" clip-rule="evenodd" d="M26.5922 10.6602C26.5938 10.6626 26.5955 10.6651 26.5973 10.6677C26.5782 10.6427 26.577 10.6378 26.5922 10.6602ZM27.4065 12.5521C28.0891 14.4685 28.8062 17.1031 29.5952 20.0079L29.609 20.0589C30.3974 22.9615 31.2576 26.1286 32.1509 28.5712C32.5924 29.7783 33.1248 31.0452 33.7756 32.0763C34.0994 32.5893 34.566 33.2288 35.2161 33.7787C35.8723 34.3338 36.9897 35.0202 38.4984 35.0202C40.0073 35.0202 41.1251 34.3337 41.7816 33.7783C42.432 33.2282 42.8987 32.5885 43.2226 32.0753C43.8735 31.044 44.4059 29.777 44.8474 28.5699C45.7409 26.1271 46.6012 22.9598 47.3896 20.057L47.4033 20.0064C48.192 17.1026 48.9089 14.4689 49.5913 12.5527C59.1565 16.7758 65.8188 26.2931 65.8166 37.3465C65.8136 52.325 53.5781 64.4674 38.4878 64.4674C23.3975 64.4674 11.1669 52.325 11.1699 37.3465C11.1721 26.2926 17.8388 16.7749 27.4065 12.5521ZM50.4061 10.6592C50.4213 10.6368 50.42 10.6417 50.401 10.6668C50.4027 10.6641 50.4044 10.6616 50.4061 10.6592ZM38.4995 21.5506C38.1704 20.3956 37.8348 19.1634 37.49 17.8938L37.4337 17.6865C36.6607 14.8398 35.8333 11.7929 34.9935 9.50777C34.5776 8.37629 34.0511 7.12243 33.3738 6.12462C33.0435 5.63798 32.4869 4.92185 31.6366 4.37217C30.6649 3.74399 29.1991 3.28986 27.5752 3.8107C13.3184 8.38323 2.99637 21.6634 2.99323 37.3465C2.98933 56.8074 18.8801 72.5835 38.4862 72.5835C58.0923 72.5835 73.9893 56.8074 73.9932 37.3465C73.9964 21.6634 63.6797 8.38323 49.4247 3.8107C47.801 3.28986 46.3349 3.74393 45.3626 4.37253C44.512 4.92249 43.9552 5.63893 43.6249 6.12566C42.9475 7.12366 42.4209 8.37767 42.0051 9.50915C41.1654 11.7942 40.338 14.8409 39.5651 17.6873L39.5086 17.8952C39.1639 19.1643 38.8284 20.396 38.4995 21.5506ZM36.2577 27.8219C36.2518 27.8303 36.2487 27.8342 36.2487 27.834C36.2486 27.8338 36.2516 27.8296 36.2577 27.8219ZM40.7411 27.8211C40.7472 27.8288 40.7501 27.833 40.7501 27.8332C40.7501 27.8334 40.747 27.8295 40.7411 27.8211Z" fill="black"/>
<path d="M38.991 71.5835C53.3504 71.5835 64.993 61.2657 64.9956 48.5381C64.9977 38.2852 57.4455 29.5961 47.0021 26.6047C44.4814 25.8827 41.7925 43.8192 39.0004 43.8192C36.2084 43.8192 33.5189 25.8827 30.9979 26.6047C20.5533 29.5961 12.9977 38.2852 12.9956 48.5381C12.993 61.2657 24.6316 71.5835 38.991 71.5835Z" fill="#A0683E"/>
<path fill-rule="evenodd" clip-rule="evenodd" d="M43.3851 45.4232C42.9721 46.0075 41.5493 47.92 38.9988 47.92C36.4488 47.92 35.0267 46.0082 34.6139 45.4242C34.0011 44.5573 33.5203 43.5238 33.1432 42.6033C32.383 40.7475 31.6589 38.3667 31.017 36.2565L30.994 36.1811C30.4497 34.3915 29.9628 32.7968 29.5071 31.5382C22.0185 34.6734 17.1823 41.2869 17.1809 48.5467C17.1789 58.5451 26.4831 67.4335 38.991 67.4335C51.4989 67.4335 60.8067 58.5451 60.8087 48.5467C60.8102 41.2874 55.9773 34.6742 48.4908 31.5388C48.0354 32.797 47.5488 34.3909 47.0049 36.1795L46.982 36.2548C46.3402 38.365 45.616 40.7459 44.8558 42.6019C44.4788 43.5224 43.998 44.5561 43.3851 45.4232ZM42.7593 24.765C43.17 24.2245 45.0674 21.9068 48.105 22.7768C59.9402 26.1667 68.9973 36.1991 68.9948 48.5467C68.9917 63.9112 55.0975 75.5835 38.9894 75.5835C22.8812 75.5835 8.99171 63.9112 8.99479 48.5467C8.99727 36.1991 18.0583 26.1667 29.8949 22.7768C32.9322 21.9069 34.8289 24.2239 35.2394 24.7639C35.89 25.6199 36.3727 26.6615 36.7276 27.5237C37.4445 29.2654 38.1426 31.5613 38.7718 33.6301C38.7908 33.6927 38.8098 33.7551 38.8287 33.8173C38.8862 34.0062 38.9432 34.1934 38.9997 34.3787C39.0561 34.1939 39.1129 34.0073 39.1702 33.8189C39.1891 33.7566 39.2081 33.694 39.2272 33.6313C39.8562 31.5626 40.5543 29.2669 41.271 27.5252C41.6259 26.6629 42.1085 25.6212 42.7593 24.765ZM36.6908 40.7337C36.6106 40.8472 36.6155 40.8132 36.7084 40.7078C36.7019 40.7177 36.696 40.7263 36.6908 40.7337ZM41.2911 40.7069C41.3841 40.8123 41.389 40.8464 41.3086 40.7327C41.3034 40.7253 41.2976 40.7167 41.2911 40.7069Z" fill="black"/>
</svg>
