<svg width="78" height="78" viewBox="0 0 78 78" fill="none" xmlns="http://www.w3.org/2000/svg">
<mask id="mask0" mask-type="alpha" maskUnits="userSpaceOnUse" x="12" y="12" width="54" height="54">
<path d="M12.2637 38.9941C12.2637 24.3586 24.1359 12.4941 38.7637 12.4941C53.3915 12.4941 65.2637 24.3586 65.2637 38.9941C65.2637 53.6297 53.3915 65.4941 38.7637 65.4941C24.1359 65.4941 12.2637 53.6297 12.2637 38.9941Z" fill="#ED937F"/>
</mask>
<g mask="url(#mask0)">
<path d="M71.858 7.78027L9.11133 7.78027L9.11133 70.5269L71.858 70.5269L71.858 7.78027Z" fill="url(#paint0_radial)"/>
<path opacity="0.32" d="M64.9451 64.0767C64.9451 64.0767 64.8447 63.8508 64.7945 63.7881C64.7317 63.7253 64.5059 63.6375 64.5059 63.6375C64.5059 63.6375 64.7317 63.5371 64.7945 63.4869C64.8572 63.4241 64.9451 63.1982 64.9451 63.1982C64.9451 63.1982 65.0455 63.4241 65.0957 63.4869C65.1584 63.5496 65.3843 63.6375 65.3843 63.6375C65.3843 63.6375 65.1584 63.7379 65.0957 63.7881C65.0455 63.8508 64.9451 64.0767 64.9451 64.0767Z" fill="url(#paint1_radial)"/>
<path opacity="0.32" d="M51.6033 55.3169C51.6033 55.3169 51.5029 55.091 51.4527 55.0283C51.3899 54.9655 51.1641 54.8777 51.1641 54.8777C51.1641 54.8777 51.3899 54.7773 51.4527 54.7271C51.5154 54.6644 51.6033 54.4385 51.6033 54.4385C51.6033 54.4385 51.7037 54.6644 51.7539 54.7271C51.8041 54.7899 52.0425 54.8777 52.0425 54.8777C52.0425 54.8777 51.8166 54.9781 51.7539 55.0283C51.7037 55.091 51.6033 55.3169 51.6033 55.3169Z" fill="url(#paint2_radial)"/>
<path opacity="0.32" d="M50.5744 60.2484C50.5744 60.2484 50.4113 59.8719 50.3109 59.7715C50.2105 59.6711 49.834 59.508 49.834 59.508C49.834 59.508 50.2105 59.3448 50.3109 59.2445C50.4113 59.1441 50.5744 58.7676 50.5744 58.7676C50.5744 58.7676 50.7375 59.1441 50.8379 59.2445C50.9383 59.3448 51.3148 59.508 51.3148 59.508C51.3148 59.508 50.9383 59.6711 50.8379 59.7715C50.7375 59.8719 50.5744 60.2484 50.5744 60.2484Z" fill="url(#paint3_radial)"/>
<path opacity="0.32" d="M50.0353 51.5267C50.0353 51.5267 49.8722 51.1502 49.7718 51.0498C49.6714 50.9495 49.2949 50.7863 49.2949 50.7863C49.2949 50.7863 49.6714 50.6232 49.7718 50.5228C49.8722 50.4224 50.0353 50.0459 50.0353 50.0459C50.0353 50.0459 50.1985 50.4224 50.2989 50.5228C50.3993 50.6232 50.7757 50.7863 50.7757 50.7863C50.7757 50.7863 50.3993 50.9495 50.2989 51.0498C50.1985 51.1377 50.0353 51.5267 50.0353 51.5267Z" fill="url(#paint4_radial)"/>
<path opacity="0.5" d="M52.2822 52.5684C52.4209 52.5684 52.5332 52.456 52.5332 52.3174C52.5332 52.1788 52.4209 52.0664 52.2822 52.0664C52.1436 52.0664 52.0312 52.1788 52.0312 52.3174C52.0312 52.456 52.1436 52.5684 52.2822 52.5684Z" fill="url(#paint5_radial)"/>
<path opacity="0.5" d="M49.5088 60.8389C49.5088 60.8389 49.4586 60.9644 49.421 61.002C49.3833 61.0397 49.2578 61.0899 49.2578 61.0899C49.2578 61.0899 49.3833 61.14 49.421 61.1777C49.4586 61.2153 49.5088 61.3408 49.5088 61.3408C49.5088 61.3408 49.559 61.2153 49.5966 61.1777C49.6343 61.14 49.7598 61.0899 49.7598 61.0899C49.7598 61.0899 49.6343 61.0397 49.5966 61.002C49.5715 60.9644 49.5088 60.8389 49.5088 60.8389Z" fill="url(#paint6_radial)"/>
<path opacity="0.5" d="M52.8838 57.501C52.8838 57.501 52.8336 57.6265 52.796 57.6641C52.7583 57.7018 52.6328 57.752 52.6328 57.752C52.6328 57.752 52.7583 57.8022 52.796 57.8398C52.8336 57.8775 52.8838 58.0029 52.8838 58.0029C52.8838 58.0029 52.934 57.8775 52.9716 57.8398C53.0093 57.8022 53.1348 57.752 53.1348 57.752C53.1348 57.752 53.0093 57.7018 52.9716 57.6641C52.9465 57.6265 52.8838 57.501 52.8838 57.501Z" fill="url(#paint7_radial)"/>
<path opacity="0.5" d="M65.333 61.0898C65.333 61.0898 65.2828 61.2153 65.2452 61.253C65.2075 61.2906 65.082 61.3408 65.082 61.3408C65.082 61.3408 65.2075 61.391 65.2452 61.4287C65.2828 61.4663 65.333 61.5918 65.333 61.5918C65.333 61.5918 65.3832 61.4663 65.4209 61.4287C65.4585 61.391 65.584 61.3408 65.584 61.3408C65.584 61.3408 65.4585 61.2906 65.4209 61.253C65.3958 61.2153 65.333 61.0898 65.333 61.0898Z" fill="url(#paint8_radial)"/>
<path d="M52.4449 63.3108C52.4449 63.361 52.4198 63.3986 52.3696 63.3986C52.3194 63.3986 52.2817 63.3735 52.2817 63.3233C52.2817 63.2731 52.3068 63.2355 52.357 63.2355C52.4072 63.2355 52.4449 63.2731 52.4449 63.3108ZM52.9719 61.7672C52.8841 61.7798 52.8088 61.8551 52.8213 61.9429C52.8339 62.0308 52.9092 62.106 52.997 62.0935C53.0849 62.081 53.1602 62.0057 53.1476 61.9178C53.1476 61.8174 53.0598 61.7547 52.9719 61.7672ZM53.4739 63.6873C53.2982 63.6998 53.1602 63.863 53.1727 64.0386C53.1853 64.2143 53.3484 64.3524 53.5241 64.3398C53.6998 64.3273 53.8378 64.1641 53.8253 63.9884C53.8127 63.8128 53.6496 63.6747 53.4739 63.6873ZM50.6754 64.3147C50.5876 64.3273 50.5123 64.4026 50.5248 64.4904C50.5374 64.5783 50.6127 64.6536 50.7005 64.641C50.7883 64.6285 50.8636 64.5532 50.8511 64.4653C50.8385 64.3775 50.7632 64.3022 50.6754 64.3147Z" fill="url(#paint9_radial)"/>
<path opacity="0.32" d="M65.6091 24.2827C65.6091 24.2827 65.5088 24.0569 65.4586 23.9941C65.3958 23.9314 65.1699 23.8435 65.1699 23.8435C65.1699 23.8435 65.3958 23.7431 65.4586 23.6929C65.5213 23.6302 65.6091 23.4043 65.6091 23.4043C65.6091 23.4043 65.7095 23.6302 65.7597 23.6929C65.8225 23.7557 66.0484 23.8435 66.0484 23.8435C66.0484 23.8435 65.8225 23.9439 65.7597 23.9941C65.7095 24.0443 65.6091 24.2827 65.6091 24.2827Z" fill="url(#paint10_radial)"/>
<path opacity="0.32" d="M52.2693 15.5103C52.2693 15.5103 52.1689 15.2844 52.1187 15.2217C52.056 15.1589 51.8301 15.0711 51.8301 15.0711C51.8301 15.0711 52.056 14.9707 52.1187 14.9205C52.1815 14.8577 52.2693 14.6318 52.2693 14.6318C52.2693 14.6318 52.3697 14.8577 52.4199 14.9205C52.4826 14.9832 52.7085 15.0711 52.7085 15.0711C52.7085 15.0711 52.4826 15.1715 52.4199 15.2217C52.3697 15.2844 52.2693 15.5103 52.2693 15.5103Z" fill="url(#paint11_radial)"/>
<path opacity="0.32" d="M51.2404 20.4554C51.2404 20.4554 51.0773 20.079 50.9769 19.9786C50.8765 19.8782 50.5 19.715 50.5 19.715C50.5 19.715 50.8765 19.5519 50.9769 19.4515C51.0773 19.3511 51.2404 18.9746 51.2404 18.9746C51.2404 18.9746 51.4036 19.3511 51.5039 19.4515C51.6043 19.5519 51.9808 19.715 51.9808 19.715C51.9808 19.715 51.6043 19.8782 51.5039 19.9786C51.4036 20.0664 51.2404 20.4554 51.2404 20.4554Z" fill="url(#paint12_radial)"/>
<path opacity="0.5" d="M52.9463 12.7617C53.0849 12.7617 53.1973 12.6494 53.1973 12.5108C53.1973 12.3721 53.0849 12.2598 52.9463 12.2598C52.8077 12.2598 52.6953 12.3721 52.6953 12.5108C52.6953 12.6494 52.8077 12.7617 52.9463 12.7617Z" fill="url(#paint13_radial)"/>
<path opacity="0.5" d="M56.9502 25.751C56.9502 25.751 56.9 25.8765 56.8624 25.9141C56.8247 25.9518 56.6992 26.002 56.6992 26.002C56.6992 26.002 56.8247 26.0522 56.8624 26.0898C56.9 26.1275 56.9502 26.2529 56.9502 26.2529C56.9502 26.2529 57.0004 26.1275 57.038 26.0898C57.0757 26.0522 57.2012 26.002 57.2012 26.002C57.2012 26.002 57.0757 25.9518 57.038 25.9141C57.0004 25.8765 56.9502 25.751 56.9502 25.751Z" fill="url(#paint14_radial)"/>
<path opacity="0.5" d="M50.1729 21.0449C50.1729 21.0449 50.1227 21.1704 50.085 21.2081C50.0474 21.2457 49.9219 21.2959 49.9219 21.2959C49.9219 21.2959 50.0474 21.3461 50.085 21.3838C50.1227 21.4214 50.1729 21.5469 50.1729 21.5469C50.1729 21.5469 50.2231 21.4214 50.2607 21.3838C50.2984 21.3461 50.4238 21.2959 50.4238 21.2959C50.4238 21.2959 50.2984 21.2457 50.2607 21.2081C50.2356 21.1704 50.1729 21.0449 50.1729 21.0449Z" fill="url(#paint15_radial)"/>
<path opacity="0.5" d="M53.5498 17.6943C53.5498 17.6943 53.4996 17.8198 53.462 17.8575C53.4243 17.8951 53.2988 17.9453 53.2988 17.9453C53.2988 17.9453 53.4243 17.9955 53.462 18.0332C53.4996 18.0708 53.5498 18.1963 53.5498 18.1963C53.5498 18.1963 53.6 18.0708 53.6377 18.0332C53.6753 17.9955 53.8008 17.9453 53.8008 17.9453C53.8008 17.9453 53.6753 17.8951 53.6377 17.8575C53.6 17.8198 53.5498 17.6943 53.5498 17.6943Z" fill="url(#paint16_radial)"/>
<path d="M53.1109 23.5175C53.1109 23.5676 53.0858 23.6053 53.0356 23.6053C52.9854 23.6053 52.9477 23.5802 52.9477 23.53C52.9477 23.4798 52.9728 23.4422 53.023 23.4422C53.0732 23.4296 53.1109 23.4673 53.1109 23.5175ZM53.6379 21.9613C53.5501 21.9739 53.4748 22.0492 53.4874 22.137C53.4999 22.2249 53.5752 22.3002 53.663 22.2876C53.7509 22.2751 53.8262 22.1998 53.8136 22.1119C53.8136 22.0241 53.7258 21.9488 53.6379 21.9613ZM54.1274 23.8939C53.9517 23.9065 53.8136 24.0696 53.8262 24.2453C53.8387 24.421 54.0019 24.559 54.1776 24.5465C54.3533 24.5339 54.4913 24.3708 54.4787 24.1951C54.4662 24.0069 54.3156 23.8814 54.1274 23.8939ZM51.3414 24.5088C51.2536 24.5214 51.1783 24.5967 51.1908 24.6845C51.2034 24.7724 51.2787 24.8477 51.3665 24.8351C51.4544 24.8226 51.5297 24.7473 51.5171 24.6594C51.5046 24.5716 51.4293 24.5088 51.3414 24.5088Z" fill="url(#paint17_radial)"/>
<path opacity="0.32" d="M17.935 21.4463C17.935 21.4463 17.9601 21.6973 17.9977 21.76C18.0354 21.8353 18.2236 21.9985 18.2236 21.9985C18.2236 21.9985 17.9726 22.0236 17.9099 22.0612C17.8471 22.0989 17.6714 22.2871 17.6714 22.2871C17.6714 22.2871 17.6463 22.0361 17.6087 21.9734C17.5711 21.8981 17.3828 21.7349 17.3828 21.7349C17.3828 21.7349 17.6338 21.7098 17.6965 21.6722C17.7718 21.6345 17.935 21.4463 17.935 21.4463Z" fill="url(#paint18_radial)"/>
<path opacity="0.32" d="M22.1264 11.9092C22.1264 11.9092 22.1515 12.1602 22.1891 12.2229C22.2268 12.2982 22.415 12.4613 22.415 12.4613C22.415 12.4613 22.164 12.4864 22.1013 12.5241C22.026 12.5617 21.8629 12.75 21.8629 12.75C21.8629 12.75 21.8378 12.499 21.8001 12.4363C21.7625 12.361 21.5742 12.1978 21.5742 12.1978C21.5742 12.1978 21.8252 12.1727 21.888 12.1351C21.9632 12.0974 22.1264 11.9092 22.1264 11.9092Z" fill="url(#paint19_radial)"/>
<path opacity="0.32" d="M32.3158 24.1943C32.3158 24.1943 32.3409 24.4453 32.3786 24.5081C32.4162 24.5834 32.6045 24.7465 32.6045 24.7465C32.6045 24.7465 32.3535 24.7716 32.2907 24.8093C32.2154 24.8469 32.0523 25.0351 32.0523 25.0351C32.0523 25.0351 32.0272 24.7842 31.9896 24.7214C31.9519 24.6461 31.7637 24.483 31.7637 24.483C31.7637 24.483 32.0147 24.4579 32.0774 24.4202C32.1653 24.3826 32.3158 24.1943 32.3158 24.1943Z" fill="url(#paint20_radial)"/>
<path d="M34.7501 19.7773C34.7501 19.7773 34.8003 20.1915 34.863 20.3044C34.9258 20.4299 35.2395 20.6934 35.2395 20.6934C35.2395 20.6934 34.8254 20.7436 34.7124 20.8064C34.5869 20.8691 34.3234 21.1829 34.3234 21.1829C34.3234 21.1829 34.2732 20.7687 34.2105 20.6558C34.1477 20.5303 33.834 20.2668 33.834 20.2668C33.834 20.2668 34.2481 20.2166 34.3611 20.1538C34.4866 20.0911 34.7501 19.7773 34.7501 19.7773Z" fill="url(#paint21_radial)"/>
<path opacity="0.32" d="M32.7169 28.2861C32.7169 28.2861 32.7671 28.7003 32.8298 28.8132C32.8926 28.9387 33.2063 29.2022 33.2063 29.2022C33.2063 29.2022 32.7922 29.2524 32.6792 29.3152C32.5537 29.3779 32.2902 29.6917 32.2902 29.6917C32.2902 29.6917 32.24 29.2775 32.1773 29.1646C32.1145 29.0391 31.8008 28.7756 31.8008 28.7756C31.8008 28.7756 32.2149 28.7254 32.3279 28.6626C32.4408 28.5999 32.7169 28.2861 32.7169 28.2861Z" fill="url(#paint22_radial)"/>
<path d="M17.5196 13.5781C17.5196 13.5781 17.5698 13.9923 17.6326 14.1052C17.6953 14.2307 18.009 14.4942 18.009 14.4942C18.009 14.4942 17.5949 14.5444 17.482 14.6072C17.3565 14.6699 17.0929 14.9837 17.0929 14.9837C17.0929 14.9837 17.0427 14.5695 16.98 14.4566C16.9172 14.3311 16.6035 14.0675 16.6035 14.0675C16.6035 14.0675 17.0176 14.0174 17.1306 13.9546C17.2435 13.8919 17.5196 13.5781 17.5196 13.5781Z" fill="url(#paint23_radial)"/>
<path opacity="0.5" d="M30.7979 27.1182C30.9365 27.1182 31.0488 27.0058 31.0488 26.8672C31.0488 26.7286 30.9365 26.6162 30.7979 26.6162C30.6592 26.6162 30.5469 26.7286 30.5469 26.8672C30.5469 27.0058 30.6592 27.1182 30.7979 27.1182Z" fill="url(#paint24_radial)"/>
<path opacity="0.5" d="M30.835 13.0385C30.835 13.0385 30.9229 12.9381 30.9605 12.9131C30.9982 12.888 31.1362 12.8754 31.1362 12.8754C31.1362 12.8754 31.0358 12.7876 31.0107 12.7499C30.9856 12.7123 30.9731 12.5742 30.9731 12.5742C30.9731 12.5742 30.8852 12.6746 30.8476 12.6997C30.8099 12.7248 30.6719 12.7374 30.6719 12.7374C30.6719 12.7374 30.7723 12.8252 30.7974 12.8629C30.8225 12.9005 30.835 13.0385 30.835 13.0385Z" fill="url(#paint25_radial)"/>
<path opacity="0.5" d="M35.9424 19.5141C35.9424 19.5141 36.0303 19.4137 36.0679 19.3886C36.1056 19.3635 36.2436 19.351 36.2436 19.351C36.2436 19.351 36.1432 19.2631 36.1181 19.2255C36.093 19.1878 36.0805 19.0498 36.0805 19.0498C36.0805 19.0498 35.9926 19.1502 35.955 19.1753C35.9173 19.2004 35.7793 19.2129 35.7793 19.2129C35.7793 19.2129 35.8797 19.3008 35.9048 19.3384C35.9173 19.3761 35.9424 19.5141 35.9424 19.5141Z" fill="url(#paint26_radial)"/>
<path opacity="0.5" d="M31.7393 21.7348C31.7393 21.7348 31.8272 21.6344 31.8648 21.6093C31.9025 21.5842 32.0405 21.5717 32.0405 21.5717C32.0405 21.5717 31.9401 21.4838 31.915 21.4462C31.8899 21.4086 31.8774 21.2705 31.8774 21.2705C31.8774 21.2705 31.7895 21.3709 31.7519 21.396C31.7142 21.4211 31.5762 21.4336 31.5762 21.4336C31.5762 21.4336 31.6766 21.5215 31.7017 21.5591C31.7142 21.5968 31.7393 21.7348 31.7393 21.7348Z" fill="url(#paint27_radial)"/>
<path opacity="0.5" d="M14.9229 24.4204C14.9229 24.4204 15.0108 24.32 15.0484 24.2949C15.086 24.2698 15.2241 24.2572 15.2241 24.2572C15.2241 24.2572 15.1237 24.1694 15.0986 24.1317C15.0735 24.0941 15.061 23.9561 15.061 23.9561C15.061 23.9561 14.9731 24.0564 14.9355 24.0815C14.8978 24.1066 14.7598 24.1192 14.7598 24.1192C14.7598 24.1192 14.8602 24.207 14.8853 24.2447C14.9104 24.2823 14.9229 24.4204 14.9229 24.4204Z" fill="url(#paint28_radial)"/>
<path opacity="0.5" d="M20.8838 14.6567C20.8838 14.6567 20.9717 14.5563 21.0093 14.5312C21.047 14.5061 21.185 14.4936 21.185 14.4936C21.185 14.4936 21.0846 14.4057 21.0595 14.3681C21.0344 14.3304 21.0219 14.1924 21.0219 14.1924C21.0219 14.1924 20.934 14.2928 20.8964 14.3179C20.8587 14.343 20.7207 14.3555 20.7207 14.3555C20.7207 14.3555 20.8211 14.4434 20.8462 14.481C20.8587 14.5187 20.8838 14.6567 20.8838 14.6567Z" fill="url(#paint29_radial)"/>
<path d="M18.4238 17.7194C18.4113 17.7571 18.3611 17.7821 18.3234 17.7696C18.2858 17.757 18.2607 17.7069 18.2732 17.6692C18.2858 17.6316 18.336 17.6065 18.3736 17.619C18.4113 17.619 18.4364 17.6692 18.4238 17.7194ZM19.4905 16.4645C19.4027 16.4394 19.3148 16.4896 19.2897 16.5774C19.2646 16.6653 19.3148 16.7531 19.4027 16.7782C19.4905 16.8033 19.5784 16.7531 19.6035 16.6653C19.616 16.59 19.5658 16.5021 19.4905 16.4645ZM19.227 18.4473C19.0513 18.3971 18.8756 18.4975 18.8129 18.6606C18.7627 18.8363 18.8631 19.012 19.0262 19.0747C19.2019 19.1249 19.3776 19.0245 19.4403 18.8614C19.4905 18.6857 19.3901 18.4975 19.227 18.4473ZM16.3908 17.9829C16.303 17.9578 16.2152 18.008 16.1901 18.0959C16.165 18.1837 16.2152 18.2716 16.303 18.2967C16.3908 18.3218 16.4787 18.2716 16.5038 18.1837C16.5289 18.0959 16.4787 18.008 16.3908 17.9829Z" fill="url(#paint30_radial)"/>
<path opacity="0.32" d="M38.5668 13.289C38.5668 13.289 38.3158 13.289 38.2405 13.3141C38.1652 13.3392 37.977 13.5024 37.977 13.5024C37.977 13.5024 37.977 13.2514 37.9519 13.1761C37.9268 13.1008 37.7637 12.9126 37.7637 12.9126C37.7637 12.9126 38.0147 12.9126 38.09 12.8875C38.1652 12.8624 38.3535 12.6992 38.3535 12.6992C38.3535 12.6992 38.3535 12.9502 38.3786 13.0255C38.4037 13.1133 38.5668 13.289 38.5668 13.289Z" fill="url(#paint31_radial)"/>
<path opacity="0.32" d="M46.4209 13.929C46.4209 13.929 46.0068 13.9165 45.8813 13.9667C45.7558 14.0169 45.4421 14.293 45.4421 14.293C45.4421 14.293 45.4546 13.8788 45.4044 13.7534C45.3542 13.6279 45.0781 13.3141 45.0781 13.3141C45.0781 13.3141 45.4923 13.3267 45.6177 13.2765C45.7432 13.2263 46.057 12.9502 46.057 12.9502C46.057 12.9502 46.0444 13.3643 46.0946 13.4898C46.1448 13.6279 46.4209 13.929 46.4209 13.929Z" fill="url(#paint32_radial)"/>
<path opacity="0.5" d="M44.9023 17.1167C44.9023 17.1167 44.9902 17.2171 45.0153 17.2673C45.0278 17.3049 45.0278 17.443 45.0278 17.443C45.0278 17.443 45.1282 17.3551 45.1784 17.33C45.2161 17.3175 45.3541 17.3175 45.3541 17.3175C45.3541 17.3175 45.2663 17.2171 45.2412 17.1669C45.2286 17.1293 45.2286 16.9912 45.2286 16.9912C45.2286 16.9912 45.1282 17.0791 45.078 17.1042C45.0404 17.1293 44.9023 17.1167 44.9023 17.1167Z" fill="url(#paint33_radial)"/>
<path d="M42.2041 14.2805C42.1664 14.2554 42.1413 14.2177 42.1664 14.1675C42.1915 14.1299 42.2292 14.1048 42.2794 14.1299C42.317 14.155 42.3421 14.1926 42.317 14.2428C42.2919 14.2805 42.2417 14.293 42.2041 14.2805ZM43.2959 15.4978C43.3335 15.4099 43.2959 15.3221 43.2206 15.2844C43.1327 15.2468 43.0449 15.2844 43.0072 15.3597C42.9696 15.4476 43.0072 15.5354 43.0825 15.5731C43.1578 15.6107 43.2582 15.5856 43.2959 15.4978ZM41.3758 14.9707C41.4511 14.8076 41.3758 14.6068 41.2127 14.5315C41.0495 14.4562 40.8487 14.5315 40.7734 14.6946C40.6981 14.8578 40.7734 15.0585 40.9366 15.1338C41.0997 15.2091 41.3005 15.1338 41.3758 14.9707ZM42.2166 12.2349C42.2543 12.1471 42.2166 12.0593 42.1413 12.0216C42.0535 11.984 41.9656 12.0216 41.928 12.0969C41.8903 12.1847 41.928 12.2726 42.0033 12.3102C42.0786 12.3604 42.179 12.3228 42.2166 12.2349Z" fill="url(#paint34_radial)"/>
<path opacity="0.5" d="M23.8078 19.1123C23.8078 19.1123 23.6949 19.2378 23.6321 19.2629C23.5819 19.288 23.4062 19.3005 23.4062 19.3005C23.4062 19.3005 23.5317 19.4135 23.5568 19.4762C23.5819 19.5264 23.5945 19.7021 23.5945 19.7021C23.5945 19.7021 23.7074 19.5766 23.7702 19.5515C23.8204 19.5264 23.9961 19.5139 23.9961 19.5139C23.9961 19.5139 23.8706 19.4009 23.8455 19.3382C23.8204 19.288 23.8078 19.1123 23.8078 19.1123Z" fill="url(#paint35_radial)"/>
<path d="M27.0956 15.423C27.1207 15.3728 27.1709 15.3477 27.2337 15.3602C27.2839 15.3853 27.309 15.4355 27.2964 15.4983C27.2713 15.5485 27.2211 15.5736 27.1584 15.561C27.1082 15.5359 27.0831 15.4732 27.0956 15.423ZM25.6776 16.9289C25.7905 16.9665 25.9034 16.9163 25.9411 16.8034C25.9787 16.6905 25.9285 16.5775 25.8156 16.5399C25.7027 16.5022 25.5897 16.5524 25.5521 16.6654C25.5144 16.7658 25.5772 16.8912 25.6776 16.9289ZM26.1293 14.4567C26.3427 14.532 26.5811 14.419 26.6564 14.2057C26.7317 13.9924 26.6188 13.7539 26.4054 13.6786C26.1921 13.6033 25.9536 13.7163 25.8783 13.9296C25.803 14.1429 25.916 14.3688 26.1293 14.4567ZM29.6682 15.2096C29.7812 15.2473 29.8941 15.1971 29.9318 15.0841C29.9694 14.9712 29.9192 14.8583 29.8063 14.8206C29.6933 14.783 29.5804 14.8332 29.5427 14.9461C29.5051 15.059 29.5553 15.172 29.6682 15.2096Z" fill="url(#paint36_radial)"/>
<path opacity="0.5" d="M58.8585 20.7061C58.8585 20.7061 58.8961 20.8817 58.8836 20.9319C58.871 20.9821 58.7832 21.1327 58.7832 21.1327C58.7832 21.1327 58.9589 21.0951 59.0091 21.1076C59.0593 21.1202 59.2099 21.208 59.2099 21.208C59.2099 21.208 59.1722 21.0323 59.1848 20.9821C59.1973 20.9319 59.2852 20.7814 59.2852 20.7814C59.2852 20.7814 59.1095 20.819 59.0593 20.8064C59.0091 20.7939 58.8585 20.7061 58.8585 20.7061Z" fill="url(#paint37_radial)"/>
<path d="M57.6787 15.8995C57.6411 15.8493 57.6536 15.7865 57.7038 15.7614C57.754 15.7238 57.8168 15.7363 57.8419 15.7865C57.8795 15.8367 57.867 15.8995 57.8168 15.9246C57.7791 15.9497 57.7164 15.9497 57.6787 15.8995ZM58.1054 17.9199C58.1932 17.8572 58.2183 17.7191 58.1556 17.6313C58.0929 17.5434 57.9548 17.5183 57.867 17.5811C57.7791 17.6438 57.754 17.7819 57.8168 17.8697C57.8921 17.9701 58.0176 17.9826 58.1054 17.9199ZM56.3359 16.1379C56.5242 15.9999 56.5618 15.7489 56.4363 15.5606C56.2983 15.3724 56.0473 15.3347 55.8591 15.4602C55.6708 15.5983 55.6332 15.8493 55.7587 16.0375C55.8842 16.2383 56.1477 16.2759 56.3359 16.1379ZM58.9588 13.6657C59.0466 13.6029 59.0717 13.4649 59.009 13.377C58.9462 13.2892 58.8082 13.2641 58.7203 13.3268C58.6325 13.3896 58.6074 13.5276 58.6701 13.6155C58.7454 13.7159 58.8709 13.7284 58.9588 13.6657Z" fill="url(#paint38_radial)"/>
<path d="M33.8465 16.3007C33.8591 16.2505 33.8967 16.2254 33.9469 16.2379C33.9971 16.2505 34.0222 16.2881 34.0097 16.3383C33.9971 16.3885 33.9595 16.4136 33.9093 16.401C33.8716 16.3885 33.8465 16.3383 33.8465 16.3007ZM32.8928 17.6309C32.9806 17.656 33.0685 17.5932 33.0936 17.5054C33.1187 17.4175 33.0559 17.3297 32.9681 17.3046C32.8802 17.2795 32.7924 17.3422 32.7673 17.4301C32.7548 17.5179 32.805 17.6058 32.8928 17.6309ZM32.9932 15.6355C33.1689 15.6732 33.3446 15.5602 33.3822 15.3846C33.4199 15.2089 33.3069 15.0332 33.1312 14.9955C32.9555 14.9579 32.7799 15.0708 32.7422 15.2465C32.7046 15.4222 32.805 15.5979 32.9932 15.6355ZM35.8419 15.8614C35.9297 15.8865 36.0176 15.8238 36.0427 15.7359C36.0678 15.6481 36.005 15.5602 35.9172 15.5351C35.8293 15.51 35.7415 15.5728 35.7164 15.6606C35.7038 15.7485 35.754 15.8363 35.8419 15.8614Z" fill="url(#paint39_radial)"/>
<path opacity="0.32" d="M16.4916 52.1045C16.4916 52.1045 16.5167 52.3555 16.5544 52.4182C16.592 52.4935 16.7803 52.6567 16.7803 52.6567C16.7803 52.6567 16.5293 52.6818 16.4665 52.7194C16.3912 52.7571 16.2281 52.9453 16.2281 52.9453C16.2281 52.9453 16.203 52.6943 16.1653 52.6316C16.1277 52.5563 15.9395 52.3931 15.9395 52.3931C15.9395 52.3931 16.1904 52.368 16.2532 52.3304C16.3285 52.2927 16.4916 52.1045 16.4916 52.1045Z" fill="url(#paint40_radial)"/>
<path opacity="0.32" d="M20.683 42.5664C20.683 42.5664 20.7081 42.8174 20.7458 42.8801C20.7834 42.9554 20.9717 43.1186 20.9717 43.1186C20.9717 43.1186 20.7207 43.1437 20.6579 43.1813C20.5826 43.219 20.4195 43.4072 20.4195 43.4072C20.4195 43.4072 20.3944 43.1562 20.3567 43.0935C20.3191 43.0182 20.1309 42.855 20.1309 42.855C20.1309 42.855 20.3818 42.8299 20.4446 42.7923C20.5199 42.7546 20.683 42.5664 20.683 42.5664Z" fill="url(#paint41_radial)"/>
<path d="M58.2436 58.9941C58.2436 58.9941 58.2687 59.2451 58.3063 59.3079C58.344 59.3832 58.5322 59.5463 58.5322 59.5463C58.5322 59.5463 58.2812 59.5714 58.2185 59.6091C58.1432 59.6467 57.98 59.8349 57.98 59.8349C57.98 59.8349 57.9549 59.584 57.9173 59.5212C57.8796 59.4459 57.6914 59.2828 57.6914 59.2828C57.6914 59.2828 57.9424 59.2577 58.0051 59.22C58.0804 59.1824 58.2436 58.9941 58.2436 58.9941Z" fill="url(#paint42_radial)"/>
<path opacity="0.32" d="M60.6641 54.5762C60.6641 54.5762 60.7143 54.9903 60.7771 55.1032C60.8398 55.2287 61.1536 55.4923 61.1536 55.4923C61.1536 55.4923 60.7394 55.5425 60.6265 55.6052C60.501 55.668 60.2375 55.9817 60.2375 55.9817C60.2375 55.9817 60.1873 55.5676 60.1245 55.4546C60.0618 55.3291 59.748 55.0656 59.748 55.0656C59.748 55.0656 60.1622 55.0154 60.2751 54.9527C60.4006 54.8899 60.6641 54.5762 60.6641 54.5762Z" fill="url(#paint43_radial)"/>
<path opacity="0.32" d="M31.2735 58.9316C31.2735 58.9316 31.3237 59.3458 31.3865 59.4587C31.4492 59.5842 31.7629 59.8477 31.7629 59.8477C31.7629 59.8477 31.3488 59.8979 31.2359 59.9607C31.1104 60.0234 30.8468 60.3372 30.8468 60.3372C30.8468 60.3372 30.7966 59.923 30.7339 59.8101C30.6712 59.6846 30.3574 59.4211 30.3574 59.4211C30.3574 59.4211 30.7715 59.3709 30.8845 59.3081C30.9974 59.2454 31.2735 58.9316 31.2735 58.9316Z" fill="url(#paint44_radial)"/>
<path opacity="0.32" d="M16.0763 44.2363C16.0763 44.2363 16.1265 44.6505 16.1892 44.7634C16.2519 44.8889 16.5657 45.1524 16.5657 45.1524C16.5657 45.1524 16.1516 45.2026 16.0386 45.2654C15.9131 45.3281 15.6496 45.6419 15.6496 45.6419C15.6496 45.6419 15.5994 45.2277 15.5366 45.1148C15.4739 44.9893 15.1602 44.7258 15.1602 44.7258C15.1602 44.7258 15.5743 44.6756 15.6872 44.6128C15.8002 44.5501 16.0763 44.2363 16.0763 44.2363Z" fill="url(#paint45_radial)"/>
<path opacity="0.5" d="M29.3545 57.7764C29.4931 57.7764 29.6055 57.664 29.6055 57.5254C29.6055 57.3868 29.4931 57.2744 29.3545 57.2744C29.2159 57.2744 29.1035 57.3868 29.1035 57.5254C29.1035 57.664 29.2159 57.7764 29.3545 57.7764Z" fill="url(#paint46_radial)"/>
<path opacity="0.5" d="M19.5792 36.7192C19.5792 36.7192 19.667 36.6188 19.7047 36.5937C19.7423 36.5686 19.8803 36.5561 19.8803 36.5561C19.8803 36.5561 19.7799 36.4682 19.7548 36.4306C19.7297 36.3929 19.7172 36.2549 19.7172 36.2549C19.7172 36.2549 19.6294 36.3553 19.5917 36.3804C19.5541 36.4055 19.416 36.418 19.416 36.418C19.416 36.418 19.5164 36.5059 19.5415 36.5435C19.5666 36.5812 19.5792 36.7192 19.5792 36.7192Z" fill="url(#paint47_radial)"/>
<path opacity="0.5" d="M34.4991 50.1714C34.4991 50.1714 34.5869 50.071 34.6246 50.0459C34.6622 50.0208 34.8003 50.0082 34.8003 50.0082C34.8003 50.0082 34.6999 49.9204 34.6748 49.8827C34.6497 49.8451 34.6371 49.707 34.6371 49.707C34.6371 49.707 34.5493 49.8074 34.5116 49.8325C34.474 49.8576 34.3359 49.8702 34.3359 49.8702C34.3359 49.8702 34.4363 49.958 34.4614 49.9957C34.474 50.0333 34.4991 50.1714 34.4991 50.1714Z" fill="url(#paint48_radial)"/>
<path opacity="0.5" d="M57.6534 56.5346C57.6534 56.5346 57.7412 56.4342 57.7789 56.4091C57.8165 56.384 57.9546 56.3715 57.9546 56.3715C57.9546 56.3715 57.8542 56.2837 57.8291 56.246C57.804 56.2084 57.7914 56.0703 57.7914 56.0703C57.7914 56.0703 57.7036 56.1707 57.6659 56.1958C57.6283 56.2209 57.4902 56.2335 57.4902 56.2335C57.4902 56.2335 57.5906 56.3213 57.6157 56.3589C57.6283 56.3966 57.6534 56.5346 57.6534 56.5346Z" fill="url(#paint49_radial)"/>
<path opacity="0.5" d="M13.4795 55.0786C13.4795 55.0786 13.5674 54.9782 13.605 54.9531C13.6427 54.928 13.7807 54.9154 13.7807 54.9154C13.7807 54.9154 13.6803 54.8276 13.6552 54.7899C13.6301 54.7523 13.6176 54.6143 13.6176 54.6143C13.6176 54.6143 13.5297 54.7147 13.4921 54.7398C13.4545 54.7648 13.3164 54.7774 13.3164 54.7774C13.3164 54.7774 13.4168 54.8652 13.4419 54.9029C13.467 54.9405 13.4795 55.0786 13.4795 55.0786Z" fill="url(#paint50_radial)"/>
<path opacity="0.5" d="M19.4405 45.3149C19.4405 45.3149 19.5283 45.2145 19.566 45.1894C19.6036 45.1643 19.7417 45.1518 19.7417 45.1518C19.7417 45.1518 19.6413 45.0639 19.6162 45.0263C19.5911 44.9886 19.5785 44.8506 19.5785 44.8506C19.5785 44.8506 19.4907 44.951 19.453 44.9761C19.4154 45.0012 19.2773 45.0137 19.2773 45.0137C19.2773 45.0137 19.3777 45.1016 19.4028 45.1392C19.4154 45.1769 19.4405 45.3149 19.4405 45.3149Z" fill="url(#paint51_radial)"/>
<path d="M27.2344 35.6024C27.2218 35.64 27.1716 35.6651 27.134 35.6526C27.0963 35.64 27.0712 35.5898 27.0838 35.5522C27.0963 35.5145 27.1465 35.4894 27.1842 35.502C27.2218 35.5145 27.2469 35.5647 27.2344 35.6024ZM28.2885 34.36C28.2007 34.3349 28.1128 34.3851 28.0877 34.4729C28.0626 34.5608 28.1128 34.6486 28.2007 34.6737C28.2885 34.6988 28.3764 34.6486 28.4015 34.5608C28.4266 34.4729 28.3764 34.3851 28.2885 34.36ZM28.0375 36.3302C27.8618 36.28 27.6862 36.3804 27.6234 36.5436C27.5732 36.7192 27.6736 36.8949 27.8368 36.9577C28.0124 37.0079 28.1881 36.9075 28.2509 36.7443C28.3011 36.5687 28.2007 36.393 28.0375 36.3302ZM25.2014 35.8659C25.1135 35.8408 25.0257 35.891 25.0006 35.9788C24.9755 36.0667 25.0257 36.1545 25.1135 36.1796C25.2014 36.2047 25.2892 36.1545 25.3143 36.0667C25.3394 35.9788 25.2892 35.9035 25.2014 35.8659Z" fill="url(#paint52_radial)"/>
<path opacity="0.32" d="M40.2718 56.5972C40.2718 56.5972 40.1965 56.3588 40.1463 56.296C40.0962 56.2333 39.8828 56.1078 39.8828 56.1078C39.8828 56.1078 40.1212 56.0325 40.184 55.9823C40.2467 55.9321 40.3722 55.7188 40.3722 55.7188C40.3722 55.7188 40.4475 55.9572 40.4977 56.0199C40.5479 56.0827 40.7613 56.2082 40.7613 56.2082C40.7613 56.2082 40.5228 56.2835 40.4601 56.3337C40.3973 56.3839 40.2718 56.5972 40.2718 56.5972Z" fill="url(#paint53_radial)"/>
<path opacity="0.32" d="M42.1049 64.2643C42.1049 64.2643 41.9794 63.8627 41.9041 63.7623C41.8162 63.6619 41.4648 63.4486 41.4648 63.4486C41.4648 63.4486 41.8664 63.3231 41.9668 63.2478C42.0672 63.16 42.2806 62.8086 42.2806 62.8086C42.2806 62.8086 42.406 63.2102 42.4813 63.3106C42.5692 63.411 42.9206 63.6243 42.9206 63.6243C42.9206 63.6243 42.519 63.7498 42.4186 63.8251C42.3056 63.9129 42.1049 64.2643 42.1049 64.2643Z" fill="url(#paint54_radial)"/>
<path opacity="0.5" d="M42.7069 53.1338C42.7069 53.1338 42.6441 53.2593 42.6065 53.2844C42.5689 53.3095 42.4434 53.3471 42.4434 53.3471C42.4434 53.3471 42.5689 53.4099 42.594 53.4475C42.6191 53.4852 42.6567 53.6107 42.6567 53.6107C42.6567 53.6107 42.7194 53.4852 42.7571 53.4601C42.7947 53.435 42.9202 53.3973 42.9202 53.3973C42.9202 53.3973 42.7947 53.3346 42.7696 53.2969C42.7445 53.2593 42.7069 53.1338 42.7069 53.1338Z" fill="url(#paint55_radial)"/>
<path opacity="0.5" d="M38.6034 63.8125C38.6034 63.8125 38.5406 63.938 38.503 63.9631C38.4653 63.9882 38.3398 64.0258 38.3398 64.0258C38.3398 64.0258 38.4653 64.0886 38.4904 64.1262C38.5155 64.1639 38.5532 64.2894 38.5532 64.2894C38.5532 64.2894 38.6159 64.1639 38.6536 64.1388C38.6912 64.1137 38.8167 64.076 38.8167 64.076C38.8167 64.076 38.6912 64.0133 38.6661 63.9756C38.641 63.938 38.6034 63.8125 38.6034 63.8125Z" fill="url(#paint56_radial)"/>
<path d="M40.474 60.3617C40.474 60.3115 40.5242 60.2864 40.5619 60.2864C40.6121 60.2864 40.6371 60.3366 40.6371 60.3742C40.6371 60.4244 40.587 60.4495 40.5493 60.4495C40.4991 60.4495 40.4615 60.4119 40.474 60.3617ZM39.6458 61.7798C39.7336 61.7923 39.8214 61.7296 39.8214 61.6417C39.834 61.5539 39.7712 61.466 39.6834 61.466C39.5956 61.4535 39.5077 61.5162 39.5077 61.6041C39.4952 61.6919 39.5579 61.7672 39.6458 61.7798ZM39.5454 59.7844C39.721 59.8095 39.8842 59.6715 39.9093 59.4958C39.9344 59.3201 39.7963 59.157 39.6207 59.1319C39.445 59.1068 39.2818 59.2448 39.2567 59.4205C39.2442 59.6087 39.3697 59.7719 39.5454 59.7844ZM42.4066 59.7342C42.4945 59.7468 42.5823 59.684 42.5823 59.5962C42.5948 59.5083 42.5321 59.4205 42.4443 59.4205C42.3564 59.4079 42.2686 59.4707 42.2686 59.5585C42.256 59.6464 42.3188 59.7217 42.4066 59.7342Z" fill="url(#paint57_radial)"/>
<path opacity="0.32" d="M15.4007 29.4781C15.4007 29.4781 15.3255 29.2396 15.2753 29.1769C15.2251 29.1141 15.0117 28.9886 15.0117 28.9886C15.0117 28.9886 15.2502 28.9133 15.3129 28.8631C15.3757 28.8129 15.5011 28.5996 15.5011 28.5996C15.5011 28.5996 15.5764 28.838 15.6266 28.9008C15.6768 28.9635 15.8902 29.089 15.8902 29.089C15.8902 29.089 15.6517 29.1643 15.589 29.2145C15.5262 29.2647 15.4007 29.4781 15.4007 29.4781Z" fill="url(#paint58_radial)"/>
<path opacity="0.32" d="M15.5004 39.8062C15.5004 39.8062 15.4251 39.5678 15.3749 39.505C15.3247 39.4423 15.1113 39.3168 15.1113 39.3168C15.1113 39.3168 15.3498 39.2415 15.4125 39.1913C15.4753 39.1411 15.6008 38.9277 15.6008 38.9277C15.6008 38.9277 15.676 39.1662 15.7262 39.2289C15.7764 39.2917 15.9898 39.4172 15.9898 39.4172C15.9898 39.4172 15.7513 39.4925 15.6886 39.5427C15.6259 39.5928 15.5004 39.8062 15.5004 39.8062Z" fill="url(#paint59_radial)"/>
<path d="M19.7299 37.3337C19.7299 37.3337 19.6044 36.9321 19.5291 36.8317C19.4412 36.7313 19.0898 36.5179 19.0898 36.5179C19.0898 36.5179 19.4914 36.3925 19.5918 36.3172C19.6922 36.2293 19.9056 35.8779 19.9056 35.8779C19.9056 35.8779 20.031 36.2795 20.1063 36.3799C20.1942 36.4803 20.5456 36.6936 20.5456 36.6936C20.5456 36.6936 20.144 36.8191 20.0436 36.8944C19.9432 36.9823 19.7299 37.3337 19.7299 37.3337Z" fill="url(#paint60_radial)"/>
<path opacity="0.5" d="M20.3319 26.2021C20.3319 26.2021 20.2691 26.3276 20.2315 26.3527C20.1939 26.3778 20.0684 26.4155 20.0684 26.4155C20.0684 26.4155 20.1939 26.4782 20.219 26.5159C20.244 26.5535 20.2817 26.679 20.2817 26.679C20.2817 26.679 20.3444 26.5535 20.3821 26.5284C20.4197 26.5033 20.5452 26.4657 20.5452 26.4657C20.5452 26.4657 20.4197 26.4029 20.3946 26.3653C20.3695 26.3276 20.3319 26.2021 20.3319 26.2021Z" fill="url(#paint61_radial)"/>
<path opacity="0.5" d="M16.2284 36.8818C16.2284 36.8818 16.1656 37.0073 16.128 37.0324C16.0903 37.0575 15.9648 37.0952 15.9648 37.0952C15.9648 37.0952 16.0903 37.1579 16.1154 37.1956C16.1405 37.2332 16.1782 37.3587 16.1782 37.3587C16.1782 37.3587 16.2409 37.2332 16.2786 37.2081C16.3162 37.183 16.4417 37.1454 16.4417 37.1454C16.4417 37.1454 16.3162 37.0826 16.2911 37.045C16.266 37.0073 16.2284 36.8818 16.2284 36.8818Z" fill="url(#paint62_radial)"/>
<path d="M15.601 33.2426C15.601 33.1924 15.6512 33.1673 15.6888 33.1673C15.739 33.1673 15.7641 33.2175 15.7641 33.2551C15.7641 33.2928 15.7139 33.3304 15.6763 33.3304C15.6261 33.3179 15.5884 33.2802 15.601 33.2426ZM14.7727 34.6481C14.8606 34.6606 14.9484 34.5979 14.9484 34.51C14.9609 34.4222 14.8982 34.3343 14.8104 34.3343C14.7225 34.3218 14.6347 34.3845 14.6347 34.4724C14.6221 34.5602 14.6849 34.6481 14.7727 34.6481ZM14.6723 32.6653C14.848 32.6904 15.0111 32.5523 15.0362 32.3767C15.0613 32.201 14.9233 32.0378 14.7476 32.0127C14.5719 31.9876 14.4088 32.1257 14.3837 32.3014C14.3711 32.477 14.4966 32.6402 14.6723 32.6653ZM17.5336 32.6151C17.6214 32.6276 17.7092 32.5649 17.7092 32.477C17.7218 32.3892 17.6591 32.3014 17.5712 32.3014C17.4834 32.2888 17.3955 32.3516 17.3955 32.4394C17.3955 32.5272 17.4457 32.6025 17.5336 32.6151Z" fill="url(#paint63_radial)"/>
<path opacity="0.32" d="M43.723 20.5298C43.723 20.5298 43.6477 20.2914 43.5975 20.2286C43.5473 20.1659 43.334 20.0404 43.334 20.0404C43.334 20.0404 43.5724 19.9651 43.6352 19.9149C43.6979 19.8647 43.8234 19.6514 43.8234 19.6514C43.8234 19.6514 43.8987 19.8898 43.9489 19.9526C43.9991 20.0153 44.2124 20.1408 44.2124 20.1408C44.2124 20.1408 43.974 20.2161 43.9113 20.2663C43.8485 20.3165 43.723 20.5298 43.723 20.5298Z" fill="url(#paint64_radial)"/>
<path opacity="0.32" d="M48.932 35.0494C48.932 35.0494 48.8567 34.8109 48.8065 34.7482C48.7563 34.6854 48.543 34.5599 48.543 34.5599C48.543 34.5599 48.7814 34.4846 48.8442 34.4344C48.9069 34.3842 49.0324 34.1709 49.0324 34.1709C49.0324 34.1709 49.1077 34.4093 49.1579 34.4721C49.2081 34.5348 49.4214 34.6603 49.4214 34.6603C49.4214 34.6603 49.183 34.7356 49.1202 34.7858C49.0575 34.836 48.932 35.0494 48.932 35.0494Z" fill="url(#paint65_radial)"/>
<path d="M53.1732 32.5778C53.1732 32.5778 53.0477 32.1762 52.9724 32.0758C52.8846 31.9754 52.5332 31.7621 52.5332 31.7621C52.5332 31.7621 52.9348 31.6366 53.0352 31.5613C53.1356 31.4735 53.3489 31.1221 53.3489 31.1221C53.3489 31.1221 53.4744 31.5236 53.5497 31.624C53.6375 31.7244 53.9889 31.9378 53.9889 31.9378C53.9889 31.9378 53.5873 32.0633 53.487 32.1386C53.3866 32.2264 53.1732 32.5778 53.1732 32.5778Z" fill="url(#paint66_radial)"/>
<path opacity="0.5" d="M46.1444 17.0664C46.1444 17.0664 46.0817 17.1919 46.044 17.217C46.0064 17.2421 45.8809 17.2797 45.8809 17.2797C45.8809 17.2797 46.0064 17.3425 46.0315 17.3801C46.0566 17.4178 46.0942 17.5433 46.0942 17.5433C46.0942 17.5433 46.1569 17.4178 46.1946 17.3927C46.2322 17.3676 46.3577 17.3299 46.3577 17.3299C46.3577 17.3299 46.2322 17.2672 46.2071 17.2295C46.1946 17.1919 46.1444 17.0664 46.1444 17.0664Z" fill="url(#paint67_radial)"/>
<path opacity="0.5" d="M49.6717 32.126C49.6717 32.126 49.609 32.2515 49.5713 32.2766C49.5337 32.3017 49.4082 32.3393 49.4082 32.3393C49.4082 32.3393 49.5337 32.4021 49.5588 32.4397C49.5839 32.4774 49.6215 32.6029 49.6215 32.6029C49.6215 32.6029 49.6843 32.4774 49.7219 32.4523C49.7596 32.4272 49.8851 32.3895 49.8851 32.3895C49.8851 32.3895 49.7596 32.3268 49.7345 32.2891C49.7094 32.264 49.6717 32.126 49.6717 32.126Z" fill="url(#paint68_radial)"/>
<path d="M51.5424 28.6743C51.5424 28.6241 51.5926 28.599 51.6302 28.599C51.6804 28.599 51.7055 28.6492 51.7055 28.6869C51.7055 28.7245 51.6553 28.7622 51.6177 28.7622C51.5675 28.7622 51.5298 28.7245 51.5424 28.6743ZM50.7141 30.0924C50.802 30.105 50.8898 30.0422 50.8898 29.9544C50.9024 29.8665 50.8396 29.7787 50.7518 29.7787C50.6639 29.7661 50.5761 29.8289 50.5761 29.9167C50.5635 30.0046 50.6263 30.0799 50.7141 30.0924ZM50.6137 28.1096C50.7894 28.1347 50.9526 27.9967 50.9776 27.821C51.0027 27.6453 50.8647 27.4822 50.689 27.4571C50.5133 27.432 50.3502 27.57 50.3251 27.7457C50.3125 27.9214 50.438 28.0845 50.6137 28.1096ZM53.4875 28.0469C53.5754 28.0594 53.6632 27.9967 53.6632 27.9088C53.6758 27.821 53.613 27.7331 53.5252 27.7331C53.4373 27.7206 53.3495 27.7833 53.3495 27.8712C53.3244 27.959 53.3871 28.0469 53.4875 28.0469Z" fill="url(#paint69_radial)"/>
<path d="M22.5909 39.9813C22.6035 39.9311 22.6411 39.906 22.6913 39.9186C22.7415 39.9311 22.7666 39.9688 22.7541 40.019C22.7415 40.0692 22.7039 40.0943 22.6537 40.0817C22.6035 40.0692 22.5784 40.0315 22.5909 39.9813ZM21.6372 41.3115C21.725 41.3366 21.8129 41.2739 21.838 41.1861C21.8631 41.0982 21.8003 41.0104 21.7125 40.9853C21.6246 40.9602 21.5368 41.0229 21.5117 41.1108C21.4866 41.2111 21.5493 41.2864 21.6372 41.3115ZM21.725 39.3162C21.9007 39.3539 22.0764 39.2409 22.1141 39.0652C22.1517 38.8895 22.0388 38.7138 21.8631 38.6762C21.6874 38.6385 21.5117 38.7515 21.474 38.9272C21.4364 39.1029 21.5493 39.2786 21.725 39.3162ZM24.5863 39.5421C24.6741 39.5672 24.762 39.5044 24.7871 39.4166C24.8122 39.3288 24.7494 39.2409 24.6616 39.2158C24.5737 39.1907 24.4859 39.2535 24.4608 39.3413C24.4357 39.4417 24.4984 39.5295 24.5863 39.5421Z" fill="url(#paint70_radial)"/>
<path d="M15.8382 64.1138C15.8382 64.1138 15.763 63.8754 15.7128 63.8126C15.6626 63.7499 15.4492 63.6244 15.4492 63.6244C15.4492 63.6244 15.6877 63.5491 15.7504 63.4989C15.8132 63.4487 15.9386 63.2354 15.9386 63.2354C15.9386 63.2354 16.0139 63.4738 16.0641 63.5365C16.1143 63.5993 16.3277 63.7248 16.3277 63.7248C16.3277 63.7248 16.0892 63.8001 16.0265 63.8503C15.9637 63.9005 15.8382 64.1138 15.8382 64.1138Z" fill="url(#paint71_radial)"/>
<path d="M20.0814 61.6422C20.0814 61.6422 19.9559 61.2407 19.8806 61.1403C19.7928 61.0399 19.4414 60.8265 19.4414 60.8265C19.4414 60.8265 19.843 60.701 19.9434 60.6257C20.0438 60.5379 20.2571 60.1865 20.2571 60.1865C20.2571 60.1865 20.3826 60.5881 20.4579 60.6885C20.5457 60.7889 20.8971 61.0022 20.8971 61.0022C20.8971 61.0022 20.4956 61.1277 20.3952 61.203C20.2822 61.2783 20.0814 61.6422 20.0814 61.6422Z" fill="url(#paint72_radial)"/>
<path opacity="0.5" d="M16.5799 61.1777C16.5799 61.1777 16.5172 61.3032 16.4795 61.3283C16.4419 61.3534 16.3164 61.3911 16.3164 61.3911C16.3164 61.3911 16.4419 61.4538 16.467 61.4915C16.4921 61.5291 16.5297 61.6546 16.5297 61.6546C16.5297 61.6546 16.5925 61.5291 16.6301 61.504C16.6678 61.4789 16.7933 61.4413 16.7933 61.4413C16.7933 61.4413 16.6678 61.3785 16.6427 61.3409C16.6176 61.3158 16.5799 61.1777 16.5799 61.1777Z" fill="url(#paint73_radial)"/>
<path d="M22.9425 64.2899C22.955 64.2397 22.9927 64.2146 23.0429 64.2272C23.0931 64.2397 23.1182 64.2774 23.1056 64.3276C23.0931 64.3778 23.0554 64.4029 23.0052 64.3903C22.955 64.3778 22.9299 64.3276 22.9425 64.2899ZM21.9762 65.6201C22.064 65.6452 22.1519 65.5825 22.177 65.4946C22.2021 65.4068 22.1393 65.319 22.0515 65.2939C21.9636 65.2688 21.8758 65.3315 21.8507 65.4194C21.8381 65.5072 21.8883 65.595 21.9762 65.6201ZM22.0766 63.6248C22.2523 63.6624 22.428 63.5495 22.4656 63.3738C22.5033 63.1981 22.3903 63.0224 22.2146 62.9848C22.0389 62.9471 21.8632 63.0601 21.8256 63.2358C21.788 63.4115 21.9009 63.5871 22.0766 63.6248ZM24.9253 63.8507C25.0131 63.8758 25.101 63.813 25.1261 63.7252C25.1512 63.6373 25.0884 63.5495 25.0006 63.5244C24.9127 63.4993 24.8249 63.5621 24.7998 63.6499C24.7872 63.7377 24.8374 63.8256 24.9253 63.8507Z" fill="url(#paint74_radial)"/>
<path opacity="0.32" d="M62.5717 38.7266C62.5717 38.7266 62.5968 38.9775 62.6345 39.0403C62.6721 39.1156 62.8603 39.2787 62.8603 39.2787C62.8603 39.2787 62.6094 39.3038 62.5466 39.3415C62.4713 39.3791 62.3082 39.5674 62.3082 39.5674C62.3082 39.5674 62.2831 39.3164 62.2454 39.2536C62.2078 39.1783 62.0195 39.0152 62.0195 39.0152C62.0195 39.0152 62.2705 38.9901 62.3333 38.9524C62.4086 38.9148 62.5717 38.7266 62.5717 38.7266Z" fill="url(#paint75_radial)"/>
<path d="M65.0059 34.3096C65.0059 34.3096 65.0561 34.7237 65.1189 34.8366C65.1816 34.9621 65.4954 35.2257 65.4954 35.2257C65.4954 35.2257 65.0812 35.2759 64.9683 35.3386C64.8428 35.4014 64.5793 35.7151 64.5793 35.7151C64.5793 35.7151 64.5291 35.301 64.4663 35.188C64.4036 35.0625 64.0898 34.799 64.0898 34.799C64.0898 34.799 64.504 34.7488 64.6169 34.6861C64.7299 34.6233 65.0059 34.3096 65.0059 34.3096Z" fill="url(#paint76_radial)"/>
<path d="M59.4981 47.3984C59.4981 47.3984 59.5483 47.8126 59.6111 47.9255C59.6738 48.051 59.9876 48.3145 59.9876 48.3145C59.9876 48.3145 59.5734 48.3647 59.4605 48.4275C59.335 48.4902 59.0715 48.804 59.0715 48.804C59.0715 48.804 59.0213 48.3898 58.9585 48.2769C58.8958 48.1514 58.582 47.8879 58.582 47.8879C58.582 47.8879 58.9962 47.8377 59.1091 47.7749C59.2346 47.7247 59.4981 47.3984 59.4981 47.3984Z" fill="url(#paint77_radial)"/>
<path opacity="0.5" d="M61.0537 41.6504C61.1923 41.6504 61.3047 41.538 61.3047 41.3994C61.3047 41.2608 61.1923 41.1484 61.0537 41.1484C60.9151 41.1484 60.8027 41.2608 60.8027 41.3994C60.8027 41.538 60.9151 41.6504 61.0537 41.6504Z" fill="url(#paint78_radial)"/>
<path opacity="0.5" d="M57.628 32.1635C57.628 32.1635 57.7158 32.0631 57.7535 32.0381C57.7911 32.013 57.9292 32.0004 57.9292 32.0004C57.9292 32.0004 57.8288 31.9126 57.8037 31.8749C57.7786 31.8373 57.766 31.6992 57.766 31.6992C57.766 31.6992 57.6782 31.7996 57.6405 31.8247C57.6029 31.8498 57.4648 31.8624 57.4648 31.8624C57.4648 31.8624 57.5652 31.9502 57.5903 31.9879C57.6154 32.0255 57.628 32.1635 57.628 32.1635Z" fill="url(#paint79_radial)"/>
<path opacity="0.5" d="M61.9815 36.2671C61.9815 36.2671 62.0693 36.1667 62.107 36.1416C62.1446 36.1165 62.2827 36.1039 62.2827 36.1039C62.2827 36.1039 62.1823 36.0161 62.1572 35.9784C62.1321 35.9408 62.1195 35.8027 62.1195 35.8027C62.1195 35.8027 62.0317 35.9031 61.994 35.9282C61.9564 35.9533 61.8184 35.9659 61.8184 35.9659C61.8184 35.9659 61.9188 36.0537 61.9439 36.0914C61.969 36.129 61.9815 36.2671 61.9815 36.2671Z" fill="url(#paint80_radial)"/>
<path d="M64.1026 30.8329C64.1152 30.7827 64.1528 30.7576 64.203 30.7701C64.2532 30.7827 64.2783 30.8203 64.2658 30.8705C64.2532 30.9207 64.2156 30.9458 64.1654 30.9333C64.1152 30.9207 64.0901 30.8705 64.1026 30.8329ZM63.1489 32.1631C63.2367 32.1882 63.3246 32.1255 63.3497 32.0376C63.3748 31.9498 63.312 31.8619 63.2242 31.8368C63.1363 31.8117 63.0485 31.8745 63.0234 31.9623C62.9983 32.0502 63.0611 32.138 63.1489 32.1631ZM63.2367 30.1678C63.4124 30.2054 63.5881 30.0925 63.6258 29.9168C63.6634 29.7411 63.5505 29.5654 63.3748 29.5277C63.1991 29.4901 63.0234 29.603 62.9858 29.7787C62.9481 29.9544 63.0611 30.1301 63.2367 30.1678ZM66.098 30.3937C66.1858 30.4188 66.2737 30.356 66.2988 30.2682C66.3239 30.1803 66.2611 30.0925 66.1733 30.0674C66.0854 30.0423 65.9976 30.105 65.9725 30.1929C65.9474 30.2933 66.0101 30.3686 66.098 30.3937Z" fill="url(#paint81_radial)"/>
<path opacity="0.25" d="M44.4498 8.04395C44.4498 8.04395 44.4498 12.3556 39.9669 12.9032C35.4841 13.4509 32.0052 10.8918 28.1684 13.909C24.3217 16.9361 28.5362 30.4983 24.4211 32.5097C20.306 34.5212 10.6047 31.8724 10.1475 27.1028C9.69029 22.343 4.29297 35.9949 4.29297 35.9949C4.29297 35.9949 17.2843 43.1444 25.6039 37.8271C33.9235 32.5097 29.8085 25.2706 31.1802 21.6062C32.5518 17.9418 36.1202 16.1096 42.7998 16.7469C49.4793 17.3842 52.8589 9.32847 52.8589 9.32847L44.4498 8.04395ZM13.8153 37.2296C6.15171 34.5012 12.5132 33.2665 12.5132 33.2665C12.5132 33.2665 16.4692 35.1286 19.6897 35.0589C22.9003 34.9991 26.9259 31.9023 27.3533 33.5055C27.7807 35.1087 21.4888 39.948 13.8153 37.2296ZM39.2314 14.8649C37.3727 16.2888 33.0488 15.7412 31.2895 17.653C31.0609 17.902 30.8919 18.1907 30.7329 18.4894C30.1067 19.6943 29.8184 21.0386 29.3512 22.3132C29.1524 22.8509 28.6853 24.2648 27.9895 23.4085C27.7509 23.1197 27.5919 22.7314 27.4825 22.2833C27.1943 21.1182 27.2639 19.5848 27.3732 18.6986C27.572 17.1153 28.1783 15.4026 29.5301 14.4367C32.3729 12.3855 41.0901 13.441 39.2314 14.8649ZM41.7164 15.7113C40.6428 15.7113 39.7781 15.4524 39.7781 15.1337C39.7781 14.8151 40.6428 14.5562 41.7164 14.5562C42.7898 14.5562 43.6546 14.8151 43.6546 15.1337C43.6546 15.4524 42.7898 15.7113 41.7164 15.7113Z" fill="url(#paint82_radial)"/>
<path opacity="0.25" d="M55.9065 48.6879C58.3017 45.6914 62.8438 43.7962 65.3186 42.9429L65.3086 41.4248C65.3086 41.4248 54.366 45.0365 51.7123 51.9424C49.0586 58.8483 48.174 60.6938 43.1052 62.3806C38.0364 64.0674 33.8522 60.3763 30.7115 55.0679C27.5708 49.7694 15.4255 47.6758 11.0822 51.7737C6.73897 55.8716 9.95916 59.8901 9.95916 59.8901C9.95916 59.8901 18.0096 54.2642 23.476 56.0304C28.9424 57.7965 28.7038 64.2261 36.6748 65.5061C36.8934 65.5458 37.1022 65.5756 37.3208 65.6053C36.2574 65.1191 35.6412 64.4345 35.6113 63.8888C35.5418 62.589 37.2016 63.3827 37.2016 63.3827C37.2016 63.3827 42.8369 64.9703 46.1664 62.3707C49.486 59.771 51.5831 55.2961 52.5968 57.0325C53.6106 58.759 48.7704 63.8094 43.9302 65.5458C43.8308 65.5855 43.7314 65.6152 43.632 65.645C48.5318 64.9604 52.577 62.4401 55.0319 57.866C58.5701 51.2776 65.408 51.357 65.408 51.357L65.3782 47.527C60.3392 48.5787 52.736 52.6568 55.9065 48.6879ZM21.0708 53.52C16.7375 53.7383 9.36282 56.5463 13.6962 51.357C13.6962 51.357 22.8002 48.5391 27.4217 53.52C32.0433 58.501 25.4141 53.3017 21.0708 53.52ZM30.304 60.3664C29.9363 60.6144 29.0914 60.0191 28.4156 59.0269C27.7398 58.0347 27.4913 57.0325 27.859 56.7844C28.2268 56.5364 29.0716 57.1317 29.7474 58.1239C30.4233 59.1162 30.6717 60.1183 30.304 60.3664ZM59.3056 51.9325C56.4134 53.8772 54.1075 54.0955 55.6878 52.2202C57.278 50.3449 59.4447 50.3449 59.4447 50.3449C59.4447 50.3449 62.1878 49.9877 59.3056 51.9325Z" fill="url(#paint83_radial)"/>
<path opacity="0.25" d="M51.6228 31.1012C45.7347 30.9417 66.3976 11.3142 66.3976 11.3142L65.0726 10.7958C61.486 14.4542 53.4559 22.389 52.5593 20.9436C51.6726 19.5081 58.9255 12.7696 62.3527 9.7093L61.9542 9.5498C61.9542 9.5498 43.244 23.9141 47.279 32.3871C51.3139 40.8602 72.0366 27.1438 72.0366 27.1438L72.4351 16.1687C72.4351 16.1588 57.5108 31.2707 51.6228 31.1012ZM54.8706 20.9436C56.9927 19.7872 52.101 26.8049 50.746 25.7782C49.3911 24.7514 54.8706 20.9436 54.8706 20.9436ZM52.0013 33.9023C51.8918 34.2911 51.2242 34.4506 50.5069 34.2512C49.7896 34.0519 49.2915 33.5833 49.3911 33.1946C49.5007 32.8058 50.1682 32.6463 50.8855 32.8457C51.6028 33.0451 52.101 33.5136 52.0013 33.9023ZM57.192 33.1846C49.9191 34.7995 50.756 31.8289 56.0961 30.8022C61.4361 29.7755 66.0091 23.8443 66.0091 23.8443L67.364 27.5127C67.364 27.5127 64.4648 31.5697 57.192 33.1846Z" fill="url(#paint84_radial)"/>
</g>
<path fill-rule="evenodd" clip-rule="evenodd" d="M64.0251 38.9919C64.0251 25.0425 52.7162 13.73 38.7637 13.7272C24.8111 13.7244 13.5022 25.0322 13.5022 38.9816C13.5022 52.931 24.8111 64.2435 38.7637 64.2463C52.7162 64.2491 64.0251 52.9413 64.0251 38.9919ZM38.7637 2.48675C58.921 2.49083 75.2637 18.8347 75.2637 38.9941C75.2637 59.1536 58.921 75.4908 38.7637 75.4867C18.6063 75.4827 2.26367 59.1388 2.26367 38.9794C2.26367 18.8199 18.6063 2.48266 38.7637 2.48675Z" fill="black"/>
<defs>
<radialGradient id="paint0_radial" cx="0" cy="0" r="1" gradientUnits="userSpaceOnUse" gradientTransform="translate(40.4822 39.1491) scale(39.1175)">
<stop offset="0.0592593" stop-color="#9F00AD"/>
<stop offset="0.963" stop-color="#110043"/>
</radialGradient>
<radialGradient id="paint1_radial" cx="0" cy="0" r="1" gradientUnits="userSpaceOnUse" gradientTransform="translate(64.9437 63.6362) scale(0.441209)">
<stop offset="0.0592593" stop-color="#E47E99"/>
<stop offset="0.5259" stop-color="#E43D99"/>
<stop offset="0.9926" stop-color="#B30058"/>
</radialGradient>
<radialGradient id="paint2_radial" cx="0" cy="0" r="1" gradientUnits="userSpaceOnUse" gradientTransform="translate(51.603 54.873) scale(0.441209)">
<stop offset="0.0592593" stop-color="#E47E99"/>
<stop offset="0.5259" stop-color="#E43D99"/>
<stop offset="0.9926" stop-color="#B30058"/>
</radialGradient>
<radialGradient id="paint3_radial" cx="0" cy="0" r="1" gradientUnits="userSpaceOnUse" gradientTransform="translate(50.5714 59.5156) scale(0.735492)">
<stop offset="0.0592593" stop-color="#E47E99"/>
<stop offset="0.5259" stop-color="#E43D99"/>
<stop offset="0.9926" stop-color="#B30058"/>
</radialGradient>
<radialGradient id="paint4_radial" cx="0" cy="0" r="1" gradientUnits="userSpaceOnUse" gradientTransform="translate(50.0325 50.7854) scale(0.73549)">
<stop offset="0.0592593" stop-color="#E47E99"/>
<stop offset="0.5259" stop-color="#E43D99"/>
<stop offset="0.9926" stop-color="#B30058"/>
</radialGradient>
<radialGradient id="paint5_radial" cx="0" cy="0" r="1" gradientUnits="userSpaceOnUse" gradientTransform="translate(59.0308 47.9772) rotate(180) scale(19.2458)">
<stop offset="0.0592593" stop-color="#0A1656"/>
<stop offset="0.8889" stop-color="#4478AD"/>
</radialGradient>
<radialGradient id="paint6_radial" cx="0" cy="0" r="1" gradientUnits="userSpaceOnUse" gradientTransform="translate(59.0307 47.9779) rotate(180) scale(19.2455)">
<stop offset="0.0592593" stop-color="#0A1656"/>
<stop offset="0.8889" stop-color="#4478AD"/>
</radialGradient>
<radialGradient id="paint7_radial" cx="0" cy="0" r="1" gradientUnits="userSpaceOnUse" gradientTransform="translate(59.0299 47.9778) rotate(180) scale(19.2458)">
<stop offset="0.0592593" stop-color="#0A1656"/>
<stop offset="0.8889" stop-color="#4478AD"/>
</radialGradient>
<radialGradient id="paint8_radial" cx="0" cy="0" r="1" gradientUnits="userSpaceOnUse" gradientTransform="translate(59.0302 47.9775) rotate(180) scale(19.2458)">
<stop offset="0.0592593" stop-color="#0A1656"/>
<stop offset="0.8889" stop-color="#4478AD"/>
</radialGradient>
<radialGradient id="paint9_radial" cx="0" cy="0" r="1" gradientUnits="userSpaceOnUse" gradientTransform="translate(52.1723 63.2004) rotate(180) scale(1.54896)">
<stop offset="0.0592593" stop-color="#0A1656"/>
<stop offset="0.8889" stop-color="#4478AD"/>
</radialGradient>
<radialGradient id="paint10_radial" cx="0" cy="0" r="1" gradientUnits="userSpaceOnUse" gradientTransform="translate(65.6057 23.8363) scale(0.441209)">
<stop offset="0.0592593" stop-color="#E47E99"/>
<stop offset="0.5259" stop-color="#E43D99"/>
<stop offset="0.9926" stop-color="#B30058"/>
</radialGradient>
<radialGradient id="paint11_radial" cx="0" cy="0" r="1" gradientUnits="userSpaceOnUse" gradientTransform="translate(52.267 15.0729) scale(0.441209)">
<stop offset="0.0592593" stop-color="#E47E99"/>
<stop offset="0.5259" stop-color="#E43D99"/>
<stop offset="0.9926" stop-color="#B30058"/>
</radialGradient>
<radialGradient id="paint12_radial" cx="0" cy="0" r="1" gradientUnits="userSpaceOnUse" gradientTransform="translate(51.2354 19.7166) scale(0.73549)">
<stop offset="0.0592593" stop-color="#E47E99"/>
<stop offset="0.5259" stop-color="#E43D99"/>
<stop offset="0.9926" stop-color="#B30058"/>
</radialGradient>
<radialGradient id="paint13_radial" cx="0" cy="0" r="1" gradientUnits="userSpaceOnUse" gradientTransform="translate(59.6927 8.17722) rotate(180) scale(19.2453)">
<stop offset="0.0592593" stop-color="#0A1656"/>
<stop offset="0.8889" stop-color="#4478AD"/>
</radialGradient>
<radialGradient id="paint14_radial" cx="0" cy="0" r="1" gradientUnits="userSpaceOnUse" gradientTransform="translate(59.6935 8.17791) rotate(180) scale(19.2454)">
<stop offset="0.0592593" stop-color="#0A1656"/>
<stop offset="0.8889" stop-color="#4478AD"/>
</radialGradient>
<radialGradient id="paint15_radial" cx="0" cy="0" r="1" gradientUnits="userSpaceOnUse" gradientTransform="translate(59.6928 8.17787) rotate(180) scale(19.2455)">
<stop offset="0.0592593" stop-color="#0A1656"/>
<stop offset="0.8889" stop-color="#4478AD"/>
</radialGradient>
<radialGradient id="paint16_radial" cx="0" cy="0" r="1" gradientUnits="userSpaceOnUse" gradientTransform="translate(59.6939 8.17789) rotate(180) scale(19.2454)">
<stop offset="0.0592593" stop-color="#0A1656"/>
<stop offset="0.8889" stop-color="#4478AD"/>
</radialGradient>
<radialGradient id="paint17_radial" cx="0" cy="0" r="1" gradientUnits="userSpaceOnUse" gradientTransform="translate(52.8363 23.401) rotate(180) scale(1.54896)">
<stop offset="0.0592593" stop-color="#0A1656"/>
<stop offset="0.8889" stop-color="#4478AD"/>
</radialGradient>
<radialGradient id="paint18_radial" cx="0" cy="0" r="1" gradientUnits="userSpaceOnUse" gradientTransform="translate(17.8007 21.8729) scale(0.421921)">
<stop offset="0.0592593" stop-color="#E47E99"/>
<stop offset="0.5259" stop-color="#E43D99"/>
<stop offset="0.9926" stop-color="#B30058"/>
</radialGradient>
<radialGradient id="paint19_radial" cx="0" cy="0" r="1" gradientUnits="userSpaceOnUse" gradientTransform="translate(21.9992 12.3353) scale(0.421921)">
<stop offset="0.0592593" stop-color="#E47E99"/>
<stop offset="0.5259" stop-color="#E43D99"/>
<stop offset="0.9926" stop-color="#B30058"/>
</radialGradient>
<radialGradient id="paint20_radial" cx="0" cy="0" r="1" gradientUnits="userSpaceOnUse" gradientTransform="translate(32.1922 24.6149) scale(0.421934)">
<stop offset="0.0592593" stop-color="#E47E99"/>
<stop offset="0.5259" stop-color="#E43D99"/>
<stop offset="0.9926" stop-color="#B30058"/>
</radialGradient>
<radialGradient id="paint21_radial" cx="0" cy="0" r="1" gradientUnits="userSpaceOnUse" gradientTransform="translate(34.5361 20.4768) scale(0.703353)">
<stop offset="0.0592593" stop-color="#E47E99"/>
<stop offset="0.5259" stop-color="#E43D99"/>
<stop offset="0.9926" stop-color="#B30058"/>
</radialGradient>
<radialGradient id="paint22_radial" cx="0" cy="0" r="1" gradientUnits="userSpaceOnUse" gradientTransform="translate(32.4991 28.9836) scale(0.703351)">
<stop offset="0.0592593" stop-color="#E47E99"/>
<stop offset="0.5259" stop-color="#E43D99"/>
<stop offset="0.9926" stop-color="#B30058"/>
</radialGradient>
<radialGradient id="paint23_radial" cx="0" cy="0" r="1" gradientUnits="userSpaceOnUse" gradientTransform="translate(17.2993 14.2835) scale(0.703352)">
<stop offset="0.0592593" stop-color="#E47E99"/>
<stop offset="0.5259" stop-color="#E43D99"/>
<stop offset="0.9926" stop-color="#B30058"/>
</radialGradient>
<radialGradient id="paint24_radial" cx="0" cy="0" r="1" gradientUnits="userSpaceOnUse" gradientTransform="translate(23.0746 29.0374) rotate(17.0016) scale(19.2456)">
<stop offset="0.0592593" stop-color="#0A1656"/>
<stop offset="0.8889" stop-color="#4478AD"/>
</radialGradient>
<radialGradient id="paint25_radial" cx="0" cy="0" r="1" gradientUnits="userSpaceOnUse" gradientTransform="translate(23.0742 29.038) rotate(17.0017) scale(19.2452)">
<stop offset="0.0592593" stop-color="#0A1656"/>
<stop offset="0.8889" stop-color="#4478AD"/>
</radialGradient>
<radialGradient id="paint26_radial" cx="0" cy="0" r="1" gradientUnits="userSpaceOnUse" gradientTransform="translate(23.0739 29.0383) rotate(17.0016) scale(19.2457)">
<stop offset="0.0592593" stop-color="#0A1656"/>
<stop offset="0.8889" stop-color="#4478AD"/>
</radialGradient>
<radialGradient id="paint27_radial" cx="0" cy="0" r="1" gradientUnits="userSpaceOnUse" gradientTransform="translate(23.0747 29.0378) rotate(17.0016) scale(19.2458)">
<stop offset="0.0592593" stop-color="#0A1656"/>
<stop offset="0.8889" stop-color="#4478AD"/>
</radialGradient>
<radialGradient id="paint28_radial" cx="0" cy="0" r="1" gradientUnits="userSpaceOnUse" gradientTransform="translate(23.0744 29.0377) rotate(17.0016) scale(19.2454)">
<stop offset="0.0592593" stop-color="#0A1656"/>
<stop offset="0.8889" stop-color="#4478AD"/>
</radialGradient>
<radialGradient id="paint29_radial" cx="0" cy="0" r="1" gradientUnits="userSpaceOnUse" gradientTransform="translate(23.0745 29.0374) rotate(17.0016) scale(19.2456)">
<stop offset="0.0592593" stop-color="#0A1656"/>
<stop offset="0.8889" stop-color="#4478AD"/>
</radialGradient>
<radialGradient id="paint30_radial" cx="0" cy="0" r="1" gradientUnits="userSpaceOnUse" gradientTransform="translate(17.8927 17.774) rotate(180) scale(1.52275)">
<stop offset="0.0592593" stop-color="#0A1656"/>
<stop offset="0.8889" stop-color="#4478AD"/>
</radialGradient>
<radialGradient id="paint31_radial" cx="0" cy="0" r="1" gradientUnits="userSpaceOnUse" gradientTransform="translate(38.1684 13.1079) scale(0.400951)">
<stop offset="0.0592593" stop-color="#E47E99"/>
<stop offset="0.5259" stop-color="#E43D99"/>
<stop offset="0.9926" stop-color="#B30058"/>
</radialGradient>
<radialGradient id="paint32_radial" cx="0" cy="0" r="1" gradientUnits="userSpaceOnUse" gradientTransform="translate(45.7552 13.6246) scale(0.668378)">
<stop offset="0.0592593" stop-color="#E47E99"/>
<stop offset="0.5259" stop-color="#E43D99"/>
<stop offset="0.9926" stop-color="#B30058"/>
</radialGradient>
<radialGradient id="paint33_radial" cx="0" cy="0" r="1" gradientUnits="userSpaceOnUse" gradientTransform="translate(30.362 17.3782) rotate(114.671) scale(19.2456)">
<stop offset="0.0592593" stop-color="#0A1656"/>
<stop offset="0.8889" stop-color="#4478AD"/>
</radialGradient>
<radialGradient id="paint34_radial" cx="0" cy="0" r="1" gradientUnits="userSpaceOnUse" gradientTransform="translate(42.2165 13.7465) rotate(-82.3342) scale(1.52276)">
<stop offset="0.0592593" stop-color="#0A1656"/>
<stop offset="0.8889" stop-color="#4478AD"/>
</radialGradient>
<radialGradient id="paint35_radial" cx="0" cy="0" r="1" gradientUnits="userSpaceOnUse" gradientTransform="translate(21.9393 0.863799) rotate(-160.177) scale(24.2797)">
<stop offset="0.0592593" stop-color="#0A1656"/>
<stop offset="0.8889" stop-color="#4478AD"/>
</radialGradient>
<radialGradient id="paint36_radial" cx="0" cy="0" r="1" gradientUnits="userSpaceOnUse" gradientTransform="translate(27.7684 15.379) rotate(2.82006) scale(1.9211)">
<stop offset="0.0592593" stop-color="#0A1656"/>
<stop offset="0.8889" stop-color="#4478AD"/>
</radialGradient>
<radialGradient id="paint37_radial" cx="0" cy="0" r="1" gradientUnits="userSpaceOnUse" gradientTransform="translate(42.7658 11.8829) rotate(144.417) scale(24.2799)">
<stop offset="0.0592593" stop-color="#0A1656"/>
<stop offset="0.8889" stop-color="#4478AD"/>
</radialGradient>
<radialGradient id="paint38_radial" cx="0" cy="0" r="1" gradientUnits="userSpaceOnUse" gradientTransform="translate(58.0243 15.3251) rotate(-52.5823) scale(1.92107)">
<stop offset="0.0592593" stop-color="#0A1656"/>
<stop offset="0.8889" stop-color="#4478AD"/>
</radialGradient>
<radialGradient id="paint39_radial" cx="0" cy="0" r="1" gradientUnits="userSpaceOnUse" gradientTransform="translate(34.3856 16.3094) rotate(180) scale(1.49816)">
<stop offset="0.0592593" stop-color="#0A1656"/>
<stop offset="0.8889" stop-color="#4478AD"/>
</radialGradient>
<radialGradient id="paint40_radial" cx="0" cy="0" r="1" gradientUnits="userSpaceOnUse" gradientTransform="translate(16.3578 52.5289) scale(0.421933)">
<stop offset="0.0592593" stop-color="#E47E99"/>
<stop offset="0.5259" stop-color="#E43D99"/>
<stop offset="0.9926" stop-color="#B30058"/>
</radialGradient>
<radialGradient id="paint41_radial" cx="0" cy="0" r="1" gradientUnits="userSpaceOnUse" gradientTransform="translate(20.5562 42.9903) scale(0.421933)">
<stop offset="0.0592593" stop-color="#E47E99"/>
<stop offset="0.5259" stop-color="#E43D99"/>
<stop offset="0.9926" stop-color="#B30058"/>
</radialGradient>
<radialGradient id="paint42_radial" cx="0" cy="0" r="1" gradientUnits="userSpaceOnUse" gradientTransform="translate(58.1092 59.4195) scale(0.421934)">
<stop offset="0.0592593" stop-color="#E47E99"/>
<stop offset="0.5259" stop-color="#E43D99"/>
<stop offset="0.9926" stop-color="#B30058"/>
</radialGradient>
<radialGradient id="paint43_radial" cx="0" cy="0" r="1" gradientUnits="userSpaceOnUse" gradientTransform="translate(60.452 55.2805) scale(0.703349)">
<stop offset="0.0592593" stop-color="#E47E99"/>
<stop offset="0.5259" stop-color="#E43D99"/>
<stop offset="0.9926" stop-color="#B30058"/>
</radialGradient>
<radialGradient id="paint44_radial" cx="0" cy="0" r="1" gradientUnits="userSpaceOnUse" gradientTransform="translate(31.0562 59.6395) scale(0.703351)">
<stop offset="0.0592593" stop-color="#E47E99"/>
<stop offset="0.5259" stop-color="#E43D99"/>
<stop offset="0.9926" stop-color="#B30058"/>
</radialGradient>
<radialGradient id="paint45_radial" cx="0" cy="0" r="1" gradientUnits="userSpaceOnUse" gradientTransform="translate(15.8563 44.9395) scale(0.703352)">
<stop offset="0.0592593" stop-color="#E47E99"/>
<stop offset="0.5259" stop-color="#E43D99"/>
<stop offset="0.9926" stop-color="#B30058"/>
</radialGradient>
<radialGradient id="paint46_radial" cx="0" cy="0" r="1" gradientUnits="userSpaceOnUse" gradientTransform="translate(21.6315 59.6932) rotate(17.0016) scale(19.2458)">
<stop offset="0.0592593" stop-color="#0A1656"/>
<stop offset="0.8889" stop-color="#4478AD"/>
</radialGradient>
<radialGradient id="paint47_radial" cx="0" cy="0" r="1" gradientUnits="userSpaceOnUse" gradientTransform="translate(11.8133 52.7232) rotate(17.0017) scale(19.2457)">
<stop offset="0.0592593" stop-color="#0A1656"/>
<stop offset="0.8889" stop-color="#4478AD"/>
</radialGradient>
<radialGradient id="paint48_radial" cx="0" cy="0" r="1" gradientUnits="userSpaceOnUse" gradientTransform="translate(21.6308 59.6929) rotate(17.0016) scale(19.2455)">
<stop offset="0.0592593" stop-color="#0A1656"/>
<stop offset="0.8889" stop-color="#4478AD"/>
</radialGradient>
<radialGradient id="paint49_radial" cx="0" cy="0" r="1" gradientUnits="userSpaceOnUse" gradientTransform="translate(48.9907 63.8425) rotate(17.0015) scale(19.2457 19.2456)">
<stop offset="0.0592593" stop-color="#0A1656"/>
<stop offset="0.8889" stop-color="#4478AD"/>
</radialGradient>
<radialGradient id="paint50_radial" cx="0" cy="0" r="1" gradientUnits="userSpaceOnUse" gradientTransform="translate(21.6318 59.6936) rotate(17.0015) scale(19.2459 19.2458)">
<stop offset="0.0592593" stop-color="#0A1656"/>
<stop offset="0.8889" stop-color="#4478AD"/>
</radialGradient>
<radialGradient id="paint51_radial" cx="0" cy="0" r="1" gradientUnits="userSpaceOnUse" gradientTransform="translate(21.6316 59.6935) rotate(17.0016) scale(19.2457)">
<stop offset="0.0592593" stop-color="#0A1656"/>
<stop offset="0.8889" stop-color="#4478AD"/>
</radialGradient>
<radialGradient id="paint52_radial" cx="0" cy="0" r="1" gradientUnits="userSpaceOnUse" gradientTransform="translate(26.7017 35.6648) rotate(180) scale(1.52275)">
<stop offset="0.0592593" stop-color="#0A1656"/>
<stop offset="0.8889" stop-color="#4478AD"/>
</radialGradient>
<radialGradient id="paint53_radial" cx="0" cy="0" r="1" gradientUnits="userSpaceOnUse" gradientTransform="translate(40.3279 56.1598) scale(0.438273)">
<stop offset="0.0592593" stop-color="#E47E99"/>
<stop offset="0.5259" stop-color="#E43D99"/>
<stop offset="0.9926" stop-color="#B30058"/>
</radialGradient>
<radialGradient id="paint54_radial" cx="0" cy="0" r="1" gradientUnits="userSpaceOnUse" gradientTransform="translate(42.1888 63.5344) scale(0.730583)">
<stop offset="0.0592593" stop-color="#E47E99"/>
<stop offset="0.5259" stop-color="#E43D99"/>
<stop offset="0.9926" stop-color="#B30058"/>
</radialGradient>
<radialGradient id="paint55_radial" cx="0" cy="0" r="1" gradientUnits="userSpaceOnUse" gradientTransform="translate(33.8491 50.0634) rotate(-173.385) scale(19.2455 19.2456)">
<stop offset="0.0592593" stop-color="#0A1656"/>
<stop offset="0.8889" stop-color="#4478AD"/>
</radialGradient>
<radialGradient id="paint56_radial" cx="0" cy="0" r="1" gradientUnits="userSpaceOnUse" gradientTransform="translate(33.8489 50.0625) rotate(-173.385) scale(19.2454)">
<stop offset="0.0592593" stop-color="#0A1656"/>
<stop offset="0.8889" stop-color="#4478AD"/>
</radialGradient>
<radialGradient id="paint57_radial" cx="0" cy="0" r="1" gradientUnits="userSpaceOnUse" gradientTransform="translate(40.9259 60.4573) rotate(180) scale(1.50522)">
<stop offset="0.0592593" stop-color="#0A1656"/>
<stop offset="0.8889" stop-color="#4478AD"/>
</radialGradient>
<radialGradient id="paint58_radial" cx="0" cy="0" r="1" gradientUnits="userSpaceOnUse" gradientTransform="translate(15.4577 29.0355) scale(0.438273)">
<stop offset="0.0592593" stop-color="#E47E99"/>
<stop offset="0.5259" stop-color="#E43D99"/>
<stop offset="0.9926" stop-color="#B30058"/>
</radialGradient>
<radialGradient id="paint59_radial" cx="0" cy="0" r="1" gradientUnits="userSpaceOnUse" gradientTransform="translate(15.5466 39.3692) scale(0.438273)">
<stop offset="0.0592593" stop-color="#E47E99"/>
<stop offset="0.5259" stop-color="#E43D99"/>
<stop offset="0.9926" stop-color="#B30058"/>
</radialGradient>
<radialGradient id="paint60_radial" cx="0" cy="0" r="1" gradientUnits="userSpaceOnUse" gradientTransform="translate(19.8175 36.6055) scale(0.730597)">
<stop offset="0.0592593" stop-color="#E47E99"/>
<stop offset="0.5259" stop-color="#E43D99"/>
<stop offset="0.9926" stop-color="#B30058"/>
</radialGradient>
<radialGradient id="paint61_radial" cx="0" cy="0" r="1" gradientUnits="userSpaceOnUse" gradientTransform="translate(11.4779 23.1334) rotate(-173.385) scale(19.2455)">
<stop offset="0.0592593" stop-color="#0A1656"/>
<stop offset="0.8889" stop-color="#4478AD"/>
</radialGradient>
<radialGradient id="paint62_radial" cx="0" cy="0" r="1" gradientUnits="userSpaceOnUse" gradientTransform="translate(11.4776 23.1336) rotate(-173.385) scale(19.2455)">
<stop offset="0.0592593" stop-color="#0A1656"/>
<stop offset="0.8889" stop-color="#4478AD"/>
</radialGradient>
<radialGradient id="paint63_radial" cx="0" cy="0" r="1" gradientUnits="userSpaceOnUse" gradientTransform="translate(16.0537 33.3331) rotate(180) scale(1.50522)">
<stop offset="0.0592593" stop-color="#0A1656"/>
<stop offset="0.8889" stop-color="#4478AD"/>
</radialGradient>
<radialGradient id="paint64_radial" cx="0" cy="0" r="1" gradientUnits="userSpaceOnUse" gradientTransform="translate(43.7776 20.0908) scale(0.438273)">
<stop offset="0.0592593" stop-color="#E47E99"/>
<stop offset="0.5259" stop-color="#E43D99"/>
<stop offset="0.9926" stop-color="#B30058"/>
</radialGradient>
<radialGradient id="paint65_radial" cx="0" cy="0" r="1" gradientUnits="userSpaceOnUse" gradientTransform="translate(48.9884 34.6151) scale(0.438273)">
<stop offset="0.0592593" stop-color="#E47E99"/>
<stop offset="0.5259" stop-color="#E43D99"/>
<stop offset="0.9926" stop-color="#B30058"/>
</radialGradient>
<radialGradient id="paint66_radial" cx="0" cy="0" r="1" gradientUnits="userSpaceOnUse" gradientTransform="translate(53.2585 31.8524) rotate(180) scale(0.730597)">
<stop offset="0.0592593" stop-color="#66B0D8"/>
<stop offset="1" stop-color="#3F1F7D"/>
</radialGradient>
<radialGradient id="paint67_radial" cx="0" cy="0" r="1" gradientUnits="userSpaceOnUse" gradientTransform="translate(37.2977 13.9944) rotate(-173.385) scale(19.2456)">
<stop offset="0.0592593" stop-color="#0A1656"/>
<stop offset="0.8889" stop-color="#4478AD"/>
</radialGradient>
<radialGradient id="paint68_radial" cx="0" cy="0" r="1" gradientUnits="userSpaceOnUse" gradientTransform="translate(44.9186 18.3802) rotate(-173.385) scale(19.2458)">
<stop offset="0.0592593" stop-color="#0A1656"/>
<stop offset="0.8889" stop-color="#4478AD"/>
</radialGradient>
<radialGradient id="paint69_radial" cx="0" cy="0" r="1" gradientUnits="userSpaceOnUse" gradientTransform="translate(51.9957 28.7744) rotate(180) scale(1.50522)">
<stop offset="0.0592593" stop-color="#0A1656"/>
<stop offset="0.8889" stop-color="#4478AD"/>
</radialGradient>
<radialGradient id="paint70_radial" cx="0" cy="0" r="1" gradientUnits="userSpaceOnUse" gradientTransform="translate(23.1251 39.9944) rotate(180) scale(1.49816)">
<stop offset="0.0592593" stop-color="#0A1656"/>
<stop offset="0.8889" stop-color="#4478AD"/>
</radialGradient>
<radialGradient id="paint71_radial" cx="0" cy="0" r="1" gradientUnits="userSpaceOnUse" gradientTransform="translate(15.8926 63.6713) scale(0.438273)">
<stop offset="0.0592593" stop-color="#E47E99"/>
<stop offset="0.5259" stop-color="#E43D99"/>
<stop offset="0.9926" stop-color="#B30058"/>
</radialGradient>
<radialGradient id="paint72_radial" cx="0" cy="0" r="1" gradientUnits="userSpaceOnUse" gradientTransform="translate(20.1647 60.9086) rotate(180) scale(0.730597)">
<stop offset="0.0592593" stop-color="#66B0D8"/>
<stop offset="1" stop-color="#3F1F7D"/>
</radialGradient>
<radialGradient id="paint73_radial" cx="0" cy="0" r="1" gradientUnits="userSpaceOnUse" gradientTransform="translate(11.8249 47.4365) rotate(-173.385) scale(19.2454)">
<stop offset="0.0592593" stop-color="#0A1656"/>
<stop offset="0.8889" stop-color="#4478AD"/>
</radialGradient>
<radialGradient id="paint74_radial" cx="0" cy="0" r="1" gradientUnits="userSpaceOnUse" gradientTransform="translate(23.4723 64.2975) rotate(180) scale(1.49815)">
<stop offset="0.0592593" stop-color="#0A1656"/>
<stop offset="0.8889" stop-color="#4478AD"/>
</radialGradient>
<radialGradient id="paint75_radial" cx="0" cy="0" r="1" gradientUnits="userSpaceOnUse" gradientTransform="translate(62.4436 39.1491) scale(0.421934)">
<stop offset="0.0592593" stop-color="#E47E99"/>
<stop offset="0.5259" stop-color="#E43D99"/>
<stop offset="0.9926" stop-color="#B30058"/>
</radialGradient>
<radialGradient id="paint76_radial" cx="0" cy="0" r="1" gradientUnits="userSpaceOnUse" gradientTransform="translate(64.7875 35.0111) rotate(180) scale(0.703353)">
<stop offset="0.0592593" stop-color="#66B0D8"/>
<stop offset="1" stop-color="#3F1F7D"/>
</radialGradient>
<radialGradient id="paint77_radial" cx="0" cy="0" r="1" gradientUnits="userSpaceOnUse" gradientTransform="translate(59.2865 48.1069) scale(0.703351)">
<stop offset="0.0592593" stop-color="#E47E99"/>
<stop offset="0.5259" stop-color="#E43D99"/>
<stop offset="0.9926" stop-color="#B30058"/>
</radialGradient>
<radialGradient id="paint78_radial" cx="0" cy="0" r="1" gradientUnits="userSpaceOnUse" gradientTransform="translate(53.3259 43.5715) rotate(17.0016) scale(19.2457)">
<stop offset="0.0592593" stop-color="#0A1656"/>
<stop offset="0.8889" stop-color="#4478AD"/>
</radialGradient>
<radialGradient id="paint79_radial" cx="0" cy="0" r="1" gradientUnits="userSpaceOnUse" gradientTransform="translate(49.8606 48.1617) rotate(17.0017) scale(19.2456)">
<stop offset="0.0592593" stop-color="#0A1656"/>
<stop offset="0.8889" stop-color="#4478AD"/>
</radialGradient>
<radialGradient id="paint80_radial" cx="0" cy="0" r="1" gradientUnits="userSpaceOnUse" gradientTransform="translate(53.3252 43.5717) rotate(17.0018) scale(19.2452 19.2453)">
<stop offset="0.0592593" stop-color="#0A1656"/>
<stop offset="0.8889" stop-color="#4478AD"/>
</radialGradient>
<radialGradient id="paint81_radial" cx="0" cy="0" r="1" gradientUnits="userSpaceOnUse" gradientTransform="translate(64.6372 30.8437) rotate(180) scale(1.49816)">
<stop offset="0.0592593" stop-color="#0A1656"/>
<stop offset="0.8889" stop-color="#4478AD"/>
</radialGradient>
<radialGradient id="paint82_radial" cx="0" cy="0" r="1" gradientUnits="userSpaceOnUse" gradientTransform="translate(28.5799 23.9182) scale(20.5055 20.5421)">
<stop offset="0.0814815" stop-color="#F128C5"/>
<stop offset="1" stop-color="#C11BB9"/>
</radialGradient>
<radialGradient id="paint83_radial" cx="0" cy="0" r="1" gradientUnits="userSpaceOnUse" gradientTransform="translate(37.0983 53.5471) scale(21.7689 21.7325)">
<stop offset="0.0814815" stop-color="#F128C5"/>
<stop offset="1" stop-color="#C11BB9"/>
</radialGradient>
<radialGradient id="paint84_radial" cx="0" cy="0" r="1" gradientUnits="userSpaceOnUse" gradientTransform="translate(59.5728 22.3457) scale(12.8296 12.8366)">
<stop offset="0.0814815" stop-color="#F128C5"/>
<stop offset="1" stop-color="#C11BB9"/>
</radialGradient>
</defs>
</svg>
