<svg width="134" height="134" viewBox="0 0 134 134" fill="none" xmlns="http://www.w3.org/2000/svg">
<path d="M0.00195312 67C0.00195312 30.2731 29.7945 0.5 66.502 0.5C103.209 0.5 133.002 30.2731 133.002 67C133.002 103.727 103.209 133.5 66.502 133.5C29.7945 133.5 0.00195312 103.727 0.00195312 67Z" fill="#800708"/>
<path d="M82.4078 47.8587V40.6992H76.08V35.3116H68.559V27.7905H68.1613V27.3928H62.4482V19.8717H55.2526V13.5439H48.0931V15.3157H45.9959V13.5439H38.8365V19.8717H33.4126V27.3928H25.8916V27.7905H25.53V35.3116H17.9728V40.6992H11.645V47.8587H13.4168V49.9559H11.645V57.1153H17.9728V64.3109H25.53V70.0602H25.8916V70.4218H33.4126V77.979H38.8365V84.3068H45.9959V82.535H48.0931V84.3068H55.2526V77.979H62.4482V70.4218H68.1613V70.0602H68.559V64.3109H76.08V57.1153H82.4078V49.9559H80.636V47.8587H82.4078Z" fill="#EA4325"/>
<path d="M82.4078 47.8587V40.6992H76.08V35.3116H68.559V27.7905H68.1613V27.3928H62.4482V19.8717H55.2526V13.5439H48.0931V15.3157H45.9959V13.5439H38.8365V19.8717H33.4126V27.3928H25.8916V27.7905H25.53V35.3116H17.9728V40.6992H11.645V47.8587H13.4168V49.9559H11.645V57.1153H17.9728V64.3109H25.53V70.0602H25.8916V70.4218H33.4126V77.979H38.8365V84.3068H45.9959V82.535H48.0931V84.3068H55.2526V77.979H62.4482V70.4218H68.1613V70.0602H68.559V64.3109H76.08V57.1153H82.4078V49.9559H80.636V47.8587H82.4078Z" fill="#EA4325"/>
<path d="M82.4078 47.8587V40.6992H76.08V35.3116H68.559V27.7905H68.1613V27.3928H62.4482V19.8717H55.2526V13.5439H48.0931V15.3157H45.9959V13.5439H38.8365V19.8717H33.4126V27.3928H25.8916V27.7905H25.53V35.3116H17.9728V40.6992H11.645V47.8587H13.4168V49.9559H11.645V57.1153H17.9728V64.3109H25.53V70.0602H25.8916V70.4218H33.4126V77.979H38.8365V84.3068H45.9959V82.535H48.0931V84.3068H55.2526V77.979H62.4482V70.4218H68.1613V70.0602H68.559V64.3109H76.08V57.1153H82.4078V49.9559H80.636V47.8587H82.4078Z" fill="#EA4325"/>
<path d="M120.98 85.4261V78.2666H114.652V72.8789H107.095V65.3579H106.733V64.9602H101.02V57.4391H93.8243V51.1113H86.6649V52.8831H84.5315V51.1113H77.3721V57.4391H71.9844V64.9602H64.4634V65.3579H64.1018V72.8789H56.5446V78.2666H50.2168V85.4261H51.9886V87.5233H50.2168V94.6827H56.5446V101.878H64.1018V107.628H64.4634V107.989H71.9844V115.546H77.3721V121.874H84.5315V120.102H86.6649V121.874H93.8243V115.546H101.02V107.989H106.733V107.628H107.095V101.878H114.652V94.6827H120.98V87.5233H119.208V85.4261H120.98Z" fill="#EA4325"/>
<path d="M121.997 41.1321V33.9727H115.669V28.585H108.112V21.064H107.75V20.7024H102.037V13.1452H94.8414V6.81738H87.682V8.58916H85.5486V6.81738H78.3892V13.1452H73.0015V20.7024H65.4805V21.064H65.1189V28.585H57.5617V33.9727H51.2339V41.1321H53.0057V43.2655H51.2339V50.4249H57.5617V57.6205H65.1189V63.3336H65.4805V63.7314H73.0015V71.2524H78.3892V77.5802H85.5486V75.8084H87.682V77.5802H94.8414V71.2524H102.037V63.7314H107.75V63.3336H108.112V57.6205H115.669V50.4249H121.997V43.2655H120.225V41.1321H121.997Z" fill="#EA4325"/>
<path d="M77.7384 84.7385V77.5791H71.3745V72.1914H63.8534V64.6704H63.4557V64.3088H57.7426V56.7516H50.547V50.4238H43.3876V52.1956H41.2903V50.4238H34.1309V56.7516H28.7071V64.3088H21.186V64.6704H20.8244V72.1914H13.2672V77.5791H6.93945V84.7385H8.71123V86.8719H6.93945V94.0314H13.2672V101.227H20.8244V106.94H21.186V107.302H28.7071V114.859H34.1309V121.187H41.2903V119.415H43.3876V121.187H50.547V114.859H57.7426V107.302H63.4557V106.94H63.8534V101.227H71.3745V94.0314H77.7384V86.8719H75.9666V84.7385H77.7384Z" fill="#EA4325"/>
<path d="M117.955 65.0715V53.9707H108.156V45.618H96.4404V33.9749H95.8618V33.3963H87.0029V21.6809H75.866V11.8818H64.7652V14.6299H61.4748V11.8818H50.4102V21.6809H42.0213V33.3963H30.3782V33.9749H29.7997V45.618H18.1204V53.9707H8.28516V65.0715H11.0332V68.3619H8.28516V79.4265H18.1204V90.5996H29.7997V99.4585H30.3782V100.037H42.0213V111.716H50.4102V121.552H61.4748V118.803H64.7652V121.552H75.866V111.716H87.0029V100.037H95.8618V99.4585H96.4404V90.5996H108.156V79.4265H117.955V68.3619H115.207V65.0715H117.955Z" fill="#CE2527"/>
<path d="M103.769 65.5049V57.2607H96.5015V51.0776H87.8234V42.4356H87.3895V42.0017H80.8086V33.3236H72.5644V26.0557H64.3202V28.0806H61.8975V26.0557H53.6533V33.3236H47.4701V42.0017H38.8282V42.4356H38.3943V51.0776H29.7162V57.2607H22.4482V65.5049H24.4731V67.9276H22.4482V76.1356H29.7162V84.416H38.3943V90.9969H38.8282V91.4308H47.4701V100.109H53.6533V107.377H61.8975V105.316H64.3202V107.377H72.5644V100.109H80.8086V91.4308H87.3895V90.9969H87.8234V84.416H96.5015V76.1356H103.769V67.9276H101.745V65.5049H103.769Z" fill="#FFE500"/>
<path d="M64.0053 96.2036H69.9715V90.9244H74.4913V84.6328H80.7468V84.3435H81.0722V79.5705H87.3639V73.5682H92.6431V67.602H91.1605V65.8302H92.6431V59.864H87.3639V55.3441H81.0722V49.0886H80.7468V48.7632H74.4913V42.4716H69.9715V37.1924H64.0053V38.6749H62.2335V37.1924H56.2673V42.4716H50.2649V48.7632H45.492V49.0886H45.1665V55.3441H38.8749V59.864H33.5957V65.8302H35.0782V67.602H33.5957V73.5682H38.8749V79.5705H45.1665V84.3435H45.492V84.6328H50.2649V90.9244H56.2673V96.2036H62.2335V94.7572H64.0053V96.2036Z" fill="#FFF8AC"/>
<path d="M28.0037 47.2051H20.1934V55.0154H28.0037V47.2051Z" fill="#EA4325"/>
<path d="M31.2772 30.7188H26.7573V35.2386H31.2772V30.7188Z" fill="#FFE500"/>
<path d="M54.2843 8.79688H43.979V19.1021H54.2843V8.79688Z" fill="#FFE500"/>
<path d="M36.5515 22.1846H33.5503V25.1858H36.5515V22.1846Z" fill="#FFE500"/>
<path d="M11.0292 63.0625H3.7251V70.3666H11.0292V63.0625Z" fill="#EA4325"/>
<path d="M53.0354 117.969H45.2251V125.779H53.0354V117.969Z" fill="#EA4325"/>
<path d="M31.2772 98.1533H26.7573V102.673H31.2772V98.1533Z" fill="#FFE500"/>
<path d="M36.5515 108.206H33.5503V111.207H36.5515V108.206Z" fill="#FFE500"/>
<path d="M108.593 39.5518H116.403V31.7415H108.593V39.5518Z" fill="#EA4325"/>
<path d="M92.2648 35.2822H96.7847V30.7624H92.2648V35.2822Z" fill="#FFE500"/>
<path d="M94.5453 26.459H104.851V16.1537H94.5453V26.459Z" fill="#FFE500"/>
<path d="M86.9788 25.2012H89.98V22.2H86.9788V25.2012Z" fill="#FFE500"/>
<path d="M108.593 101.665H116.403V93.8547H108.593V101.665Z" fill="#EA4325"/>
<path d="M92.2648 102.681H96.7847V98.1608H92.2648V102.681Z" fill="#FFE500"/>
<path d="M94.5453 117.289H104.851V106.984H94.5453V117.289Z" fill="#FFE500"/>
<path d="M86.9788 111.245H89.98V108.244H86.9788V111.245Z" fill="#FFE500"/>
<path d="M15.8689 61.9941H6.75684V71.1062H15.8689V61.9941Z" fill="#FFE500"/>
<path d="M121.052 62.3193H111.94V71.4314H121.052V62.3193Z" fill="#FFE500"/>
<path d="M67.6738 17.9099V8.79785L58.5618 8.79785V17.9099H67.6738Z" fill="#FFE500"/>
<path d="M67.6738 124.653V115.541H58.5618V124.653H67.6738Z" fill="#FFE500"/>
</svg>
