<svg width="77" height="77" viewBox="0 0 77 77" fill="none" xmlns="http://www.w3.org/2000/svg">
<path d="M7.95557 38.2274C7.95556 21.3827 21.6109 7.72784 38.4556 7.72843C55.3002 7.72902 68.9556 21.3848 68.9556 38.2295C68.9556 55.0742 55.3003 68.729 38.4556 68.7284C21.6109 68.7278 7.95557 55.0721 7.95557 38.2274Z" fill="url(#paint0_radial)"/>
<mask id="mask0" mask-type="alpha" maskUnits="userSpaceOnUse" x="0" y="0" width="77" height="77">
<rect x="0.955566" y="0.729492" width="76" height="76" fill="#C4C4C4"/>
</mask>
<g mask="url(#mask0)">
<path d="M48.0624 50.7758C50.5885 49.8285 50.2727 48.2496 49.3255 44.4604C48.4966 41.145 49.7226 38.1922 49.9363 37.1883C50.493 34.9753 47.5507 32.7992 46.01 31.9877C43.5891 30.4089 38.1158 27.0618 35.5897 26.3039C32.432 25.3567 31.4847 28.8301 31.0111 29.3037C30.5374 29.7774 27.8534 37.1979 27.2219 38.7767C26.5904 40.3555 26.1167 44.3026 26.1167 47.1445C26.1167 49.9864 29.748 51.4073 32.9057 52.0389C36.0633 52.6704 39.8525 52.3546 41.7471 52.0388C43.6416 51.723 45.5363 51.7231 48.0624 50.7758Z" fill="url(#paint1_radial)"/>
<path d="M23.6904 46.4398C23.2168 45.0188 24.6377 39.8087 26.2166 36.651C25.9008 33.4934 23.3747 33.8091 18.7961 33.6513C14.2175 33.4934 12.165 42.1769 12.3229 44.861C12.4492 47.0082 15.3226 50.5974 16.7436 52.1236C18.3762 53.9205 19.3773 54.6811 21.3222 55.4391C24.2606 55.4176 25.3843 54.8827 25.1114 51.6499C24.7956 50.3869 24.0694 47.5765 23.6904 46.4398Z" fill="url(#paint2_radial)"/>
<path d="M30.2787 24.2659C31.0681 22.5292 31.6996 22.845 33.5942 21.8977C34.3521 18.1085 32.0154 17.3717 30.7523 17.477C29.384 18.0032 26.4895 19.2137 25.858 19.8452C25.0686 20.6346 24.437 22.845 21.5951 24.108C18.7532 25.3711 19.7005 26.9499 18.7532 29.4761C17.8059 32.0022 19.8584 30.5812 20.9636 30.4234C22.0688 30.2655 24.7528 30.7391 25.5422 30.897C26.3316 31.0549 27.7526 29.9497 28.2262 29.4761C28.6999 29.0024 29.4893 26.0026 30.2787 24.2659Z" fill="url(#paint3_radial)"/>
<path d="M44.6933 27.5605C42.3743 26.19 37.6001 24.5013 36.1353 23.4198C34.3035 21.0425 37.0933 20.1558 37.824 18.6455C38.5547 17.1353 40.1721 18.4149 41.2244 18.5512L41.2244 18.5512C42.2768 18.6876 44.3813 18.9603 47.1548 16.8232C49.9283 14.6861 49.2885 15.4948 52.6272 14.5009C55.9659 13.5069 55.6803 18.4631 56.9015 20.0479C58.1227 21.6328 56.7067 24.3025 54.4658 25.0821C52.2249 25.8616 53.9332 26.4397 53.615 28.895C53.3604 30.8593 52.5758 32.3269 52.2153 32.8151C51.031 32.7805 47.0123 28.9309 44.6933 27.5605Z" fill="url(#paint4_radial)"/>
<path d="M44.0523 16.1315C45.3154 15.4999 46.8942 14.8684 48.3152 13.7632C50.715 12.8791 51.3149 11.0791 50.3677 9.81616C49.4204 8.55319 47.1784 7.70053 46.4206 7.44792C45.4733 7.13216 42.7893 6.02698 41.3683 6.81639C39.9474 7.6058 39.3159 8.86887 38.8422 9.34252C38.3686 9.81616 38.5264 10.6056 38.2107 11.5529C37.8949 12.5002 37.4213 13.2896 37.4213 14.2369C37.4213 15.1842 39.4737 15.6578 40.5789 16.4472C41.6841 17.2367 42.7893 16.763 44.0523 16.1315Z" fill="url(#paint5_radial)"/>
<path d="M22.6258 20.8673C24.2046 19.2884 23.5731 18.0254 23.8888 16.1308C23.0994 11.5522 20.5733 12.8152 20.0996 13.2889C19.626 13.7625 17.4156 15.0256 16.3105 16.1308C15.2053 17.236 14.8895 18.499 14.258 19.1306C13.6264 19.7621 12.837 22.4461 13.4686 22.7619C14.1001 23.0776 17.0999 22.9197 18.2051 23.0776C19.3102 23.2355 21.0469 22.4461 22.6258 20.8673Z" fill="url(#paint6_radial)"/>
<path d="M24.3629 13.1315C23.4156 10.9212 24.0471 11.5527 25.4681 10.1318C26.8553 8.9928 34.4675 5.86899 35.8884 6.34264C37.3094 6.81629 37.3094 8.07935 37.1515 8.23723C37.0252 8.36354 36.4673 11.658 36.2041 13.2894C35.8884 14.5525 35.1935 16.5101 33.6778 16.7627C31.7832 17.0785 31.1519 15.184 27.8363 16.605C24.5208 18.0259 24.9944 17.2365 24.8366 16.4471C24.6787 15.6577 25.3102 15.3419 24.3629 13.1315Z" fill="url(#paint7_radial)"/>
<path d="M7.14409 29.6997C7.14409 28.7524 9.8281 25.4369 10.6175 24.9632C13.933 23.2265 15.6698 24.9633 16.3014 25.5948C16.9329 26.2263 17.0907 26.3842 16.775 27.9631C16.4593 29.5419 14.7225 30.6471 14.091 31.5944C13.4595 32.5417 11.8806 36.015 11.4069 36.8044C10.9333 37.5939 6.98621 37.7517 6.35468 37.1202C5.72314 36.4887 7.14409 30.647 7.14409 29.6997Z" fill="url(#paint8_radial)"/>
<path d="M5.98361 39.9968C6.59054 39.0336 8.18511 39.6243 9.91718 39.4217C11.4792 38.7498 10.6786 44.4561 11.3505 46.0181C12.0225 47.5801 12.8808 50.2429 13.3746 51.0199C13.7696 51.6415 13.793 52.957 13.7553 53.5371C12.8568 53.4023 10.8964 52.9158 10.2424 52.0482C9.42476 50.9637 8.27523 49.256 7.11757 47.2327C5.95992 45.2093 5.37668 40.9601 5.98361 39.9968Z" fill="url(#paint9_radial)"/>
<path d="M40.6159 61.5702C38.4028 61.8661 38.1378 63.2531 36.7365 64.5668C34.5839 68.6842 37.358 69.2143 38.0219 69.1256C38.6858 69.0368 41.209 69.3752 42.7582 69.1681C44.3074 68.9609 45.3251 68.1491 46.2104 68.0307C47.0956 67.9123 49.3525 66.259 49.0424 65.6246C48.7323 64.9903 46.2529 63.2944 45.4706 62.4979C44.6883 61.7015 42.8291 61.2742 40.6159 61.5702Z" fill="url(#paint10_radial)"/>
<path d="M34.5399 66.6641C33.9506 68.9956 33.8322 68.1103 31.8404 68.3767C30.0467 68.4394 22.1015 66.2997 21.26 65.0607C20.4185 63.8216 21.1854 62.818 21.4067 62.7884C21.5838 62.7647 24.0273 60.4857 25.227 59.3492C26.2447 58.5373 27.9854 57.4037 29.3431 58.1232C31.0403 59.0226 30.3917 60.9113 33.8889 61.7953C37.3861 62.6793 36.5305 63.0189 36.1766 63.7421C35.8228 64.4652 35.1292 64.3326 34.5399 66.6641Z" fill="url(#paint11_radial)"/>
<path d="M58.281 63.9532C57.7059 64.7059 53.5601 65.7108 52.6453 65.6078C48.9564 64.9748 48.6309 62.5402 48.5125 61.655C48.3941 60.7698 48.3646 60.5485 49.574 59.4857C50.7835 58.4228 52.8345 58.5992 53.9115 58.2299C54.9884 57.8606 58.3519 56.0594 59.2075 55.7197C60.0632 55.38 63.2953 57.6511 63.4137 58.5363C63.532 59.4216 58.8562 63.2005 58.281 63.9532Z" fill="url(#paint12_radial)"/>
<path d="M65.4546 56.4759C64.3875 56.8728 63.4791 55.4353 61.9799 54.5446C60.3307 54.1301 64.4315 50.0821 64.846 48.4329C65.2604 46.7838 66.1952 44.1469 66.2746 43.2297C66.3381 42.496 67.1182 41.4365 67.5004 40.9985C68.1324 41.6511 69.3947 43.2279 69.3877 44.3144C69.3789 45.6725 69.2555 47.7274 68.9468 50.038C68.6382 52.3485 66.5217 56.079 65.4546 56.4759Z" fill="url(#paint13_radial)"/>
<path d="M50.5705 40.9187C50.5705 43.129 50.7284 44.55 51.36 45.813C51.5178 51.3389 54.9914 49.4445 55.1491 48.3392C55.3069 47.2339 55.6229 47.2341 56.2544 45.9711C56.886 44.708 57.991 44.8657 59.5699 43.9185C61.1487 42.9712 61.1487 41.0766 61.1487 39.8135C61.1487 38.5504 60.9908 36.1822 60.2014 35.7085C59.412 35.2349 57.5174 33.0245 56.8859 32.0772C56.2543 31.1299 53.7282 32.393 53.2545 32.5509C52.7809 32.7088 51.8336 34.9191 51.8336 35.5507C51.8336 36.1822 50.5705 38.7083 50.5705 40.9187Z" fill="url(#paint14_radial)"/>
<path d="M60.6243 28.3211C60.8246 29.1008 62.8358 31.2056 64.1653 32.3986C66.1253 33.5575 66.7389 33.2081 67.3183 32.2281C67.8978 31.2481 67.2501 30.9669 66.8666 29.7227C66.4831 28.4786 66.6278 25.3085 66.3934 23.8981C66.159 22.4878 63.4149 18.5252 60.9905 17.5496C58.566 16.5739 58.8174 18.2995 59.1498 18.5978C59.4822 18.896 61.6254 20.5194 58.89 22.5647C56.1546 24.61 56.3549 25.3897 55.8095 27.0003C55.2642 28.611 57.0751 29.9361 57.9698 28.939C58.8646 27.9419 60.4241 27.5413 60.6243 28.3211Z" fill="url(#paint15_radial)"/>
<path d="M63.9905 33.8138C62.4116 33.1823 61.7801 31.6034 61.1486 30.9719C59.293 28.7223 57.6753 31.2877 58.3068 31.9193C58.9383 32.5508 59.0961 33.0244 60.5171 34.1296C61.9382 35.2349 61.7802 35.3927 62.096 36.9715C62.4117 38.5504 63.6748 37.6031 64.1485 37.1294C64.6221 36.6558 66.043 38.3924 67.1481 38.866C68.2533 39.3397 67.7797 39.1818 68.5691 37.4451C69.2006 36.0557 68.4112 34.9716 67.9375 34.6032C67.1481 34.5506 65.2535 34.319 63.9905 33.8138Z" fill="url(#paint16_radial)"/>
<path d="M60.8336 44.2342C62.2545 43.4447 62.4124 42.3396 62.5703 40.9186C63.2019 37.761 66.991 39.024 65.412 40.9184C63.833 42.8129 64.149 46.6022 63.8332 47.5495C63.5174 48.4968 62.8859 48.8126 61.465 50.5493C60.044 52.286 60.8334 53.3912 59.5704 54.6543C58.3073 55.9173 57.0442 55.6016 55.3075 54.1806C53.5708 52.7597 54.3604 51.3389 54.9919 51.0231C55.6234 50.7073 56.5708 48.497 57.0444 47.7076C57.518 46.9181 59.4126 45.0236 60.8336 44.2342Z" fill="url(#paint17_radial)"/>
<path d="M51.6766 57.8118C55.3079 57.654 53.8869 54.6542 52.7817 53.2332C51.7577 51.4152 51.0451 51.4966 50.4136 52.1282C49.7821 52.7597 48.6769 53.2333 47.4138 52.6018C46.1507 51.9703 43.6246 53.2333 43.7825 54.0228C43.9404 54.8122 43.9404 59.2329 44.5719 60.1802C45.2035 61.1275 47.4138 60.4959 47.8875 59.3908C48.3611 58.2856 48.0453 57.9697 51.6766 57.8118Z" fill="url(#paint18_radial)"/>
<path d="M42.5191 59.0762C42.5191 58.7604 42.677 55.7606 42.0454 54.1818C40.3088 52.4451 40.1508 53.866 39.3614 53.7081C38.572 53.5502 37.151 54.3396 35.4143 54.4975C33.6776 54.6554 33.5197 55.129 32.5724 56.0763C31.6251 57.0236 32.5724 59.234 33.2039 59.8655C33.8355 60.4971 35.0986 61.1286 35.7301 61.4444C36.2353 61.6969 37.5194 61.2338 38.0983 60.9707C38.6772 60.8128 39.993 60.4655 40.6245 60.3392C41.4139 60.1813 42.5191 59.3919 42.5191 59.0762Z" fill="url(#paint19_radial)"/>
<path d="M30.5196 56.2336C30.2039 55.6021 31.3091 54.1811 30.8354 53.3917C28.9409 52.1287 26.2567 51.9707 26.2567 53.5495C26.2567 55.1283 25.941 56.7072 26.5725 56.3914C27.204 56.0756 28.4672 57.023 29.4145 57.3388C30.3618 57.6545 30.8354 56.8651 30.5196 56.2336Z" fill="url(#paint20_radial)"/>
<path d="M20.416 61.9177C20.5739 61.7598 22.3106 59.7073 23.2579 59.0758C23.2053 58.6022 22.9107 57.5919 22.1529 57.3392C21.2056 57.0235 19.9425 57.0235 18.5216 56.5498C17.1007 56.0762 18.0479 56.0761 16.1533 55.4446C14.2587 54.813 13.9429 55.4446 13.4693 55.9182C12.9956 56.3919 14.1009 58.4444 15.0482 59.3917C15.9955 60.339 17.2582 61.286 18.6792 62.0754C20.1001 62.8648 20.2581 62.0756 20.416 61.9177Z" fill="url(#paint21_radial)"/>
</g>
<defs>
<radialGradient id="paint0_radial" cx="0" cy="0" r="1" gradientUnits="userSpaceOnUse" gradientTransform="translate(38.4556 38.2284) rotate(-179.998) scale(30.5)">
<stop stop-color="#1AFFE3"/>
<stop offset="1" stop-color="#1A68FF"/>
</radialGradient>
<radialGradient id="paint1_radial" cx="0" cy="0" r="1" gradientUnits="userSpaceOnUse" gradientTransform="translate(37.8183 41.6466) rotate(135) scale(13.1046 14.0849)">
<stop stop-color="#202020"/>
<stop offset="1" stop-color="#04216B"/>
</radialGradient>
<radialGradient id="paint2_radial" cx="0" cy="0" r="1" gradientUnits="userSpaceOnUse" gradientTransform="translate(21.3111 43.6711) rotate(135) scale(9.23915 10.0357)">
<stop stop-color="#202020"/>
<stop offset="1" stop-color="#04216B"/>
</radialGradient>
<radialGradient id="paint3_radial" cx="0" cy="0" r="1" gradientUnits="userSpaceOnUse" gradientTransform="translate(26.3466 25.1062) rotate(135) scale(9.5204 4.41905)">
<stop stop-color="#202020"/>
<stop offset="1" stop-color="#04216B"/>
</radialGradient>
<radialGradient id="paint4_radial" cx="0" cy="0" r="1" gradientUnits="userSpaceOnUse" gradientTransform="translate(48.4141 23.0103) rotate(142.384) scale(9.97622 10.0868)">
<stop stop-color="#202020"/>
<stop offset="1" stop-color="#04216B"/>
</radialGradient>
<radialGradient id="paint5_radial" cx="0" cy="0" r="1" gradientUnits="userSpaceOnUse" gradientTransform="translate(43.5357 11.7942) rotate(135) scale(6.26221 5.25091)">
<stop stop-color="#202020"/>
<stop offset="1" stop-color="#04216B"/>
</radialGradient>
<radialGradient id="paint6_radial" cx="0" cy="0" r="1" gradientUnits="userSpaceOnUse" gradientTransform="translate(19.0075 18.9597) rotate(135) scale(6.61942 3.9074)">
<stop stop-color="#202020"/>
<stop offset="1" stop-color="#04216B"/>
</radialGradient>
<radialGradient id="paint7_radial" cx="0" cy="0" r="1" gradientUnits="userSpaceOnUse" gradientTransform="translate(30.9913 12.1699) rotate(135) scale(7.82809 5.5231)">
<stop stop-color="#202020"/>
<stop offset="1" stop-color="#04216B"/>
</radialGradient>
<radialGradient id="paint8_radial" cx="0" cy="0" r="1" gradientUnits="userSpaceOnUse" gradientTransform="translate(10.9174 30.9469) rotate(135) scale(7.59152 4.50122)">
<stop stop-color="#202020"/>
<stop offset="1" stop-color="#04216B"/>
</radialGradient>
<radialGradient id="paint9_radial" cx="0" cy="0" r="1" gradientUnits="userSpaceOnUse" gradientTransform="translate(10.5786 46.0047) rotate(133.525) scale(4.6347 7.49064)">
<stop stop-color="#202020"/>
<stop offset="1" stop-color="#04216B"/>
</radialGradient>
<radialGradient id="paint10_radial" cx="0" cy="0" r="1" gradientUnits="userSpaceOnUse" gradientTransform="translate(42.3328 65.2828) rotate(-7.61576) scale(6.61942 3.9074)">
<stop stop-color="#202020"/>
<stop offset="1" stop-color="#04216B"/>
</radialGradient>
<radialGradient id="paint11_radial" cx="0" cy="0" r="1" gradientUnits="userSpaceOnUse" gradientTransform="translate(28.6893 63.4037) rotate(-7.61576) scale(7.82809 5.5231)">
<stop stop-color="#202020"/>
<stop offset="1" stop-color="#04216B"/>
</radialGradient>
<radialGradient id="paint12_radial" cx="0" cy="0" r="1" gradientUnits="userSpaceOnUse" gradientTransform="translate(56.04 60.6712) rotate(-7.61576) scale(7.59152 4.50122)">
<stop stop-color="#202020"/>
<stop offset="1" stop-color="#04216B"/>
</radialGradient>
<radialGradient id="paint13_radial" cx="0" cy="0" r="1" gradientUnits="userSpaceOnUse" gradientTransform="translate(65.4512 48.9123) rotate(-9.09104) scale(4.6347 7.49064)">
<stop stop-color="#202020"/>
<stop offset="1" stop-color="#04216B"/>
</radialGradient>
<radialGradient id="paint14_radial" cx="0" cy="0" r="1" gradientUnits="userSpaceOnUse" gradientTransform="translate(54.3834 40.367) rotate(135) scale(7.64449 6.36031)">
<stop stop-color="#202020"/>
<stop offset="1" stop-color="#04216B"/>
</radialGradient>
<radialGradient id="paint15_radial" cx="0" cy="0" r="1" gradientUnits="userSpaceOnUse" gradientTransform="translate(62.123 26.1277) rotate(131.904) scale(5.95629 8.00926)">
<stop stop-color="#202020"/>
<stop offset="1" stop-color="#04216B"/>
</radialGradient>
<radialGradient id="paint16_radial" cx="0" cy="0" r="1" gradientUnits="userSpaceOnUse" gradientTransform="translate(63.5543 34.5057) rotate(135) scale(3.04355 6.30447)">
<stop stop-color="#202020"/>
<stop offset="1" stop-color="#04216B"/>
</radialGradient>
<radialGradient id="paint17_radial" cx="0" cy="0" r="1" gradientUnits="userSpaceOnUse" gradientTransform="translate(61.0619 47.4425) rotate(135) scale(8.85519 4.04482)">
<stop stop-color="#202020"/>
<stop offset="1" stop-color="#04216B"/>
</radialGradient>
<radialGradient id="paint18_radial" cx="0" cy="0" r="1" gradientUnits="userSpaceOnUse" gradientTransform="translate(48.1215 56.0045) rotate(135) scale(5.47976 4.69724)">
<stop stop-color="#202020"/>
<stop offset="1" stop-color="#04216B"/>
</radialGradient>
<radialGradient id="paint19_radial" cx="0" cy="0" r="1" gradientUnits="userSpaceOnUse" gradientTransform="translate(37.886 57.285) rotate(135) scale(5.13544 4.63018)">
<stop stop-color="#202020"/>
<stop offset="1" stop-color="#04216B"/>
</radialGradient>
<radialGradient id="paint20_radial" cx="0" cy="0" r="1" gradientUnits="userSpaceOnUse" gradientTransform="translate(28.5784 54.893) rotate(135) scale(2.65751 2.90968)">
<stop stop-color="#202020"/>
<stop offset="1" stop-color="#04216B"/>
</radialGradient>
<radialGradient id="paint21_radial" cx="0" cy="0" r="1" gradientUnits="userSpaceOnUse" gradientTransform="translate(18.109 57.787) rotate(135) scale(3.299 4.61114)">
<stop stop-color="#202020"/>
<stop offset="1" stop-color="#04216B"/>
</radialGradient>
</defs>
</svg>
