<svg width="77" height="77" viewBox="0 0 77 77" fill="none" xmlns="http://www.w3.org/2000/svg">
<path d="M64 39.0104C64 24.651 52.3594 13.0081 38 13.0052C23.6406 13.0023 12 24.6406 12 39C12 53.3594 23.6406 65.0023 38 65.0052C52.3594 65.0081 64 53.3698 64 39.0104Z" fill="#D7322D"/>
<path d="M60 35.0106C60 20.6511 51.8594 13.5034 37.5 13.5005C23.1406 13.4976 12 22.6411 12 37.0005C12 51.3599 19.6406 61.0025 34 61.0054C48.3594 61.0082 60 49.37 60 35.0106Z" fill="#F04B37"/>
<path d="M33.7353 41.8353C33.7353 43.5506 35.0869 44.9412 36.7542 44.9412C38.4215 44.9412 39.7731 43.5506 39.7731 41.8353C39.7731 40.12 38.4215 38.7294 36.7542 38.7294C35.0869 38.7294 33.7353 40.12 33.7353 41.8353Z" fill="#FF8773"/>
<path d="M45.9798 25.9882C45.9798 27.7036 47.3314 29.0941 48.9987 29.0941C50.666 29.0941 52.0176 27.7036 52.0176 25.9882C52.0176 24.2729 50.666 22.8824 48.9987 22.8824C47.3314 22.8824 45.9798 24.2729 45.9798 25.9882Z" fill="#FF8773"/>
<path d="M46.7264 38C46.7264 39.0721 47.5712 39.9412 48.6132 39.9412C49.6553 39.9412 50.5 39.0721 50.5 38C50.5 36.9279 49.6553 36.0588 48.6132 36.0588C47.5712 36.0588 46.7264 36.9279 46.7264 38Z" fill="#FF8773"/>
<path d="M30.7165 20.9412C30.7165 22.0133 31.5612 22.8824 32.6033 22.8824C33.6453 22.8824 34.4901 22.0133 34.4901 20.9412C34.4901 19.8691 33.6453 19 32.6033 19C31.5612 19 30.7165 19.8691 30.7165 20.9412Z" fill="#FF8773"/>
<path d="M42.0372 50.8353C42.0372 51.4785 42.5441 52 43.1693 52C43.7945 52 44.3014 51.4785 44.3014 50.8353C44.3014 50.192 43.7945 49.6706 43.1693 49.6706C42.5441 49.6706 42.0372 50.192 42.0372 50.8353Z" fill="#FF8773"/>
<path d="M21.6599 32.9765C21.6599 33.6197 22.1667 34.1412 22.7919 34.1412C23.4172 34.1412 23.924 33.6197 23.924 32.9765C23.924 32.3332 23.4172 31.8118 22.7919 31.8118C22.1667 31.8118 21.6599 32.3332 21.6599 32.9765Z" fill="#FF8773"/>
<path d="M34.4901 32.9765C34.4901 33.6197 34.9969 34.1412 35.6221 34.1412C36.2474 34.1412 36.7542 33.6197 36.7542 32.9765C36.7542 32.3332 36.2474 31.8118 35.6221 31.8118C34.9969 31.8118 34.4901 32.3332 34.4901 32.9765Z" fill="#FF8773"/>
<path d="M26.9429 52C26.9429 53.0721 27.7876 53.9412 28.8297 53.9412C29.8717 53.9412 30.7165 53.0721 30.7165 52C30.7165 50.9279 29.8717 50.0588 28.8297 50.0588C27.7876 50.0588 26.9429 50.9279 26.9429 52Z" fill="#FF8773"/>
<path fill-rule="evenodd" clip-rule="evenodd" d="M13.1023 39.0022C13.1023 52.7702 24.2581 63.9178 38 63.9205C51.7419 63.9233 62.8977 52.7801 62.8977 39.0122C62.8977 25.2442 51.7419 14.0966 38 14.0939C24.2581 14.0911 13.1023 25.2343 13.1023 39.0022ZM38 75.0072C18.109 75.0032 2 58.8736 2 39C2 19.1264 18.109 3.00322 38 3.00719C57.8909 3.01117 74 19.1408 74 39.0144C74 58.8879 57.8909 75.0112 38 75.0072Z" fill="black"/>
</svg>
