<svg width="141" height="141" viewBox="0 0 141 141" fill="none" xmlns="http://www.w3.org/2000/svg">
<mask id="mask0" mask-type="alpha" maskUnits="userSpaceOnUse" x="4" y="4" width="134" height="134">
<path d="M70.9442 137.37C107.671 137.37 137.443 107.597 137.442 70.8704C137.441 34.1434 107.667 4.37036 70.9396 4.37036C34.2127 4.37036 4.44063 34.1434 4.44191 70.8704C4.4432 107.597 34.2173 137.37 70.9442 137.37Z" fill="#3CA3CF"/>
</mask>
<g mask="url(#mask0)">
<rect x="7.74556" y="154.298" width="20.7305" height="47.9762" transform="rotate(-90 7.74556 154.298)" fill="#218628"/>
<rect x="71.714" y="154.298" width="20.7305" height="47.9762" transform="rotate(-90 71.714 154.298)" fill="#C40C0E"/>
<path d="M110.213 154.298C111.102 154.199 112.879 152.975 112.879 150.843C112.879 148.71 111.102 147.486 110.213 147.388C111.102 147.486 112.879 147.013 112.879 143.933C112.879 141.305 111.586 140.431 110.654 140.414C110.494 140.445 110.344 140.463 110.213 140.478C110.344 140.434 110.494 140.411 110.654 140.414C111.586 140.237 112.879 139.65 112.879 137.022C112.879 133.942 111.102 133.666 110.213 133.567L124.725 133.567L124.725 154.298L110.213 154.298Z" fill="#E9C715"/>
<path d="M91.852 143.933C91.852 148.671 98.6634 149.559 98.6634 154.298L130.351 154.298L130.351 133.567L98.6634 133.567C98.6634 138.306 91.852 139.194 91.852 143.933Z" fill="black"/>
<path d="M94.2213 143.933C94.2213 148.671 101.033 149.559 101.033 154.298L132.721 154.298L132.721 133.567L101.033 133.567C101.033 138.306 94.2213 139.194 94.2213 143.933Z" fill="#E6C70D"/>
<path d="M96.5904 143.933C96.5904 148.671 103.402 149.559 103.402 154.298L135.09 154.298L135.09 133.567L103.402 133.567C103.402 138.306 96.5904 139.194 96.5904 143.933Z" fill="black"/>
<path d="M98.3675 143.933C98.3675 148.671 105.179 149.559 105.179 154.298L136.867 154.298L136.867 133.567L105.179 133.567C105.179 138.306 98.3675 139.194 98.3675 143.933Z" fill="#218628"/>
<path d="M111.409 133.567L127.105 133.567L127.105 154.298L111.409 154.298C111.409 151.04 108.436 149.856 108.436 149.856C108.436 149.856 111.409 149.276 111.409 144.081C111.409 138.633 108.436 138.306 108.436 138.306C108.436 138.306 111.409 138.306 111.409 133.567Z" fill="black"/>
<path d="M113.186 133.567L128.882 133.567L128.882 154.298L113.186 154.298C113.186 151.04 110.213 149.856 110.213 149.856C110.213 149.856 113.186 149.276 113.186 144.081C113.186 138.633 110.213 138.306 110.213 138.306C110.213 138.306 113.186 138.306 113.186 133.567Z" fill="#E6C70D"/>
<path d="M115.544 143.933C115.544 151.633 122.356 146.598 122.356 154.298L126.798 154.298L126.798 133.567L122.356 133.567C122.356 140.971 115.544 136.233 115.544 143.933Z" fill="black"/>
<path d="M117.913 143.933C117.913 150.152 124.725 146.598 124.725 154.298L156.413 154.298L156.413 133.567L124.725 133.567C124.725 141.563 117.913 137.713 117.913 143.933Z" fill="#C40C0E"/>
<path d="M32.6223 143.933C32.6223 158.444 13.3726 139.49 13.3726 154.298L-5.87717 154.298L-5.87718 133.567L13.3726 133.567C13.3726 148.671 32.6223 129.421 32.6223 143.933Z" fill="black"/>
<path d="M29.0684 143.933C29.0684 154.298 9.81864 136.233 9.81865 154.298L-9.43108 154.298L-9.43108 133.567L9.81864 133.567C9.81865 151.929 29.0684 133.567 29.0684 143.933Z" fill="#C40C0E"/>
<path d="M51.2798 142.452L41.803 154.298L74.0833 154.298C74.4782 153.212 76.3341 152.203 79.414 151.966C82.494 151.729 83.264 150.226 83.264 149.337C83.264 148.449 82.494 146.709 79.414 146.709C76.3341 146.709 74.3795 145.71 74.3795 144.081C74.3795 142.452 76.3341 141.452 79.414 141.452C82.494 141.452 83.264 139.527 83.264 138.824C83.264 138.121 83.6786 136.196 79.414 136.196C75.1495 136.196 73.9846 134.851 74.0833 133.567L44.1722 133.567L47.4296 137.936L40.3813 146.598L41.8028 148.375L49.8583 140.675L51.2798 142.452Z" fill="black"/>
<path d="M53.3526 144.821L45.6528 154.298L71.1216 154.298C71.5165 153.212 73.3724 151.277 76.4523 151.04C79.5323 150.803 80.3023 150.226 80.3023 149.337C80.3023 148.449 79.5323 147.486 76.4523 147.486C73.3724 147.486 71.4178 145.71 71.4178 144.081C71.4178 142.452 73.3724 140.379 76.4523 140.379C79.5323 140.379 80.3023 139.527 80.3023 138.824C80.3023 138.121 80.7169 136.825 76.4523 136.825C72.1878 136.825 71.0229 134.851 71.1216 133.567L45.6528 133.567L53.3526 143.044C57.5975 142.156 66.0871 140.971 66.0871 143.933C66.0871 146.786 57.4 146.006 53.3526 144.821Z" fill="#E6C70D"/>
<circle cx="130.055" cy="137.417" r="1.48075" transform="rotate(-90 130.055 137.417)" fill="#E6C70D"/>
<ellipse cx="140.124" cy="138.009" rx="1.48075" ry="5.62684" transform="rotate(-90 140.124 138.009)" fill="black"/>
<ellipse cx="61.0021" cy="137.98" rx="1.48075" ry="0.888449" transform="rotate(-150 61.0021 137.98)" fill="black"/>
<ellipse cx="72.8398" cy="138.804" rx="1.48075" ry="0.888449" transform="rotate(122.604 72.8398 138.804)" fill="black"/>
<ellipse rx="2.0192" ry="1.21152" transform="matrix(-0.538823 -0.842419 -0.842419 0.538823 88.0676 138.804)" fill="black"/>
<path d="M80.5937 139.118L72.9811 138.972L73.1432 138.33L81.045 138.413L80.5937 139.118Z" fill="black"/>
<ellipse cx="61.0021" cy="135.019" rx="1.48075" ry="0.888449" transform="rotate(-150 61.0021 135.019)" fill="black"/>
<path d="M38.2489 133.567C38.7395 133.567 38.8412 133.567 39.1373 133.567C39.1373 134.385 38.7395 135.048 38.2489 135.048C37.7582 135.048 37.3604 134.385 37.3604 133.567C37.6566 133.567 37.7582 133.567 38.2489 133.567Z" fill="#E6C70D"/>
<path d="M34.103 133.567C34.5937 133.567 34.6953 133.567 34.9914 133.567C34.9914 134.385 34.5937 135.048 34.103 135.048C33.6123 135.048 33.2145 134.385 33.2145 133.567C33.5107 133.567 33.6123 133.567 34.103 133.567Z" fill="#E6C70D"/>
<ellipse cx="36.1759" cy="135.64" rx="1.48075" ry="0.888449" transform="rotate(-90 36.1759 135.64)" fill="#E6C70D"/>
<path d="M18.9992 133.567C18.9992 134.712 18.071 135.64 16.9261 135.64C15.7812 135.64 14.8531 134.712 14.8531 133.567C15.7415 133.567 15.8896 133.567 16.9261 133.567C17.9626 133.567 17.8146 133.567 18.9992 133.567Z" fill="black"/>
<path d="M58.6834 133.567C58.6834 135.857 56.9597 137.713 54.8334 137.713C52.7071 137.713 50.9835 135.857 50.9835 133.567C52.6334 133.567 52.9084 133.567 54.8334 133.567C56.7584 133.567 56.4834 133.567 58.6834 133.567Z" fill="black"/>
<path d="M58.091 133.567C58.091 135.203 56.6325 136.529 54.8334 136.529C53.0342 136.529 51.5757 135.203 51.5757 133.567C52.9718 133.567 53.2045 133.567 54.8334 133.567C56.4622 133.567 56.2295 133.567 58.091 133.567Z" fill="#E6C70D"/>
<path d="M0.0457916 133.578L11.2995 133.578L11.5956 134.763C8.63413 134.171 0.0457917 136.117 0.0457916 133.578Z" fill="black"/>
<path d="M3.75955 138.103C3.4237 135.992 8.4542 137.104 10.9158 136.712L11.3011 137.914C9.32917 137.722 4.0954 140.215 3.75955 138.103Z" fill="black"/>
<rect x="7.74556" y="112.837" width="20.7305" height="47.9762" transform="rotate(-90 7.74556 112.837)" fill="#218628"/>
<rect x="71.714" y="112.837" width="20.7305" height="47.9762" transform="rotate(-90 71.714 112.837)" fill="#C40C0E"/>
<path d="M110.213 112.837C111.102 112.738 112.879 111.514 112.879 109.382C112.879 107.25 111.102 106.025 110.213 105.927C111.102 106.025 112.879 105.552 112.879 102.472C112.879 99.8441 111.586 98.9696 110.654 98.9533C110.494 98.9838 110.344 99.0021 110.213 99.0166C110.344 98.9731 110.494 98.9505 110.654 98.9533C111.586 98.7762 112.879 98.1891 112.879 95.5615C112.879 92.4816 111.102 92.2052 110.213 92.1064L124.725 92.1064L124.725 112.837L110.213 112.837Z" fill="#E9C715"/>
<path d="M91.852 102.472C91.852 107.21 98.6634 108.099 98.6634 112.837L130.351 112.837L130.351 92.1064L98.6634 92.1064C98.6634 96.8448 91.852 97.7333 91.852 102.472Z" fill="black"/>
<path d="M94.2213 102.472C94.2213 107.21 101.033 108.099 101.033 112.837L132.721 112.837L132.721 92.1064L101.033 92.1064C101.033 96.8448 94.2213 97.7333 94.2213 102.472Z" fill="#E6C70D"/>
<path d="M96.5904 102.472C96.5904 107.21 103.402 108.099 103.402 112.837L135.09 112.837L135.09 92.1064L103.402 92.1064C103.402 96.8448 96.5904 97.7333 96.5904 102.472Z" fill="black"/>
<path d="M98.3675 102.472C98.3675 107.21 105.179 108.099 105.179 112.837L136.867 112.837L136.867 92.1064L105.179 92.1064C105.179 96.8448 98.3675 97.7333 98.3675 102.472Z" fill="#218628"/>
<path d="M111.409 92.1064L127.105 92.1064L127.105 112.837L111.409 112.837C111.409 109.579 108.436 108.395 108.436 108.395C108.436 108.395 111.409 107.815 111.409 102.62C111.409 97.1718 108.436 96.8448 108.436 96.8448C108.436 96.8448 111.409 96.8448 111.409 92.1064Z" fill="black"/>
<path d="M113.186 92.1064L128.882 92.1064L128.882 112.837L113.186 112.837C113.186 109.579 110.213 108.395 110.213 108.395C110.213 108.395 113.186 107.815 113.186 102.62C113.186 97.1718 110.213 96.8448 110.213 96.8448C110.213 96.8448 113.186 96.8448 113.186 92.1064Z" fill="#E6C70D"/>
<path d="M115.544 102.472C115.544 110.172 122.356 105.137 122.356 112.837L126.798 112.837L126.798 92.1064L122.356 92.1064C122.356 99.5102 115.544 94.7718 115.544 102.472Z" fill="black"/>
<path d="M117.913 102.472C117.913 108.691 124.725 105.137 124.725 112.837L156.413 112.837L156.413 92.1064L124.725 92.1064C124.725 100.102 117.913 96.2525 117.913 102.472Z" fill="#C40C0E"/>
<path d="M32.6223 102.472C32.6223 116.983 13.3725 98.0294 13.3725 112.837L-5.87719 112.837L-5.87719 92.1064L13.3725 92.1064C13.3725 107.21 32.6223 87.9603 32.6223 102.472Z" fill="black"/>
<path d="M29.0684 102.472C29.0684 112.837 9.81864 94.7718 9.81865 112.837L-9.43108 112.837L-9.43108 92.1064L9.81864 92.1064C9.81865 110.468 29.0684 92.1064 29.0684 102.472Z" fill="#C40C0E"/>
<path d="M51.2798 100.991L41.803 112.837L74.0833 112.837C74.4782 111.751 76.3341 110.742 79.414 110.505C82.494 110.268 83.264 108.765 83.264 107.876C83.264 106.988 82.494 105.248 79.414 105.248C76.3341 105.248 74.3795 104.249 74.3795 102.62C74.3795 100.991 76.3341 99.9914 79.414 99.9914C82.494 99.9914 83.264 98.0664 83.264 97.3631C83.264 96.6597 83.6786 94.7348 79.414 94.7348C75.1495 94.7348 73.9846 93.3897 74.0833 92.1064L44.1722 92.1064L47.4296 96.4746L40.3813 105.137L41.8028 106.914L49.8583 99.214L51.2798 100.991Z" fill="black"/>
<path d="M53.3526 103.36L45.6528 112.837L71.1216 112.837C71.5165 111.751 73.3724 109.816 76.4523 109.579C79.5323 109.342 80.3023 108.765 80.3023 107.876C80.3023 106.988 79.5323 106.025 76.4523 106.025C73.3724 106.025 71.4178 104.249 71.4178 102.62C71.4178 100.991 73.3724 98.9179 76.4523 98.9179C79.5323 98.9179 80.3023 98.0664 80.3023 97.3631C80.3023 96.6597 80.7169 95.3641 76.4523 95.3641C72.1878 95.3641 71.0229 93.3897 71.1216 92.1064L45.6528 92.1064L53.3526 101.583C57.5975 100.695 66.0871 99.5102 66.0871 102.472C66.0871 105.325 57.4 104.545 53.3526 103.36Z" fill="#E6C70D"/>
<circle cx="122.948" cy="102.472" r="2.66535" transform="rotate(-90 122.948 102.472)" fill="black"/>
<circle cx="130.055" cy="108.395" r="1.48075" transform="rotate(-90 130.055 108.395)" fill="#E6C70D"/>
<circle cx="130.055" cy="95.9563" r="1.48075" transform="rotate(-90 130.055 95.9563)" fill="#E6C70D"/>
<ellipse cx="134.794" cy="102.472" rx="1.48075" ry="5.62684" transform="rotate(-90 134.794 102.472)" fill="black"/>
<ellipse cx="140.124" cy="108.395" rx="1.48075" ry="5.62684" transform="rotate(-90 140.124 108.395)" fill="black"/>
<ellipse cx="140.124" cy="96.5485" rx="1.48075" ry="5.62684" transform="rotate(-90 140.124 96.5485)" fill="black"/>
<ellipse cx="100.44" cy="102.472" rx="1.48075" ry="0.888449" transform="rotate(-90 100.44 102.472)" fill="black"/>
<ellipse cx="61.0021" cy="96.5195" rx="1.48075" ry="0.888449" transform="rotate(-150 61.0021 96.5195)" fill="black"/>
<ellipse cx="72.8398" cy="97.3432" rx="1.48075" ry="0.888449" transform="rotate(122.604 72.8398 97.3432)" fill="black"/>
<ellipse rx="2.0192" ry="1.21152" transform="matrix(-0.538823 -0.842419 -0.842419 0.538823 88.0676 97.3431)" fill="black"/>
<ellipse cx="88.0676" cy="108.114" rx="2.0192" ry="1.21152" transform="rotate(122.604 88.0676 108.114)" fill="black"/>
<ellipse cx="72.8398" cy="107.972" rx="1.48075" ry="0.888449" transform="rotate(122.604 72.8398 107.972)" fill="black"/>
<path d="M80.5937 97.6574L72.9811 97.5114L73.1432 96.8693L81.045 96.9518L80.5937 97.6574Z" fill="black"/>
<path d="M80.5937 108.286L72.9811 108.14L73.1432 107.498L81.045 107.58L80.5937 108.286Z" fill="black"/>
<ellipse cx="61.0021" cy="111.327" rx="1.48075" ry="0.888449" transform="rotate(-150 61.0021 111.327)" fill="black"/>
<ellipse cx="61.0021" cy="93.5581" rx="1.48075" ry="0.888449" transform="rotate(-150 61.0021 93.5581)" fill="black"/>
<ellipse cx="61.0021" cy="108.366" rx="1.48075" ry="0.888449" transform="rotate(-150 61.0021 108.366)" fill="black"/>
<ellipse cx="104.587" cy="102.472" rx="1.48075" ry="0.888449" transform="rotate(-90 104.587 102.472)" fill="black"/>
<path d="M38.2489 92.1064C38.7395 92.1064 38.8412 92.1064 39.1373 92.1064C39.1373 92.9242 38.7395 93.5872 38.2489 93.5872C37.7582 93.5872 37.3604 92.9242 37.3604 92.1064C37.6566 92.1064 37.7582 92.1064 38.2489 92.1064Z" fill="#E6C70D"/>
<path d="M38.2489 112.837C38.7395 112.837 38.8412 112.837 39.1373 112.837C39.1373 112.019 38.7395 111.356 38.2489 111.356C37.7582 111.356 37.3604 112.019 37.3604 112.837C37.6566 112.837 37.7582 112.837 38.2489 112.837Z" fill="#E6C70D"/>
<path d="M34.103 92.1064C34.5937 92.1064 34.6953 92.1064 34.9914 92.1064C34.9914 92.9242 34.5937 93.5872 34.103 93.5872C33.6123 93.5872 33.2145 92.9242 33.2145 92.1064C33.5107 92.1064 33.6123 92.1064 34.103 92.1064Z" fill="#E6C70D"/>
<path d="M34.103 112.837C34.5937 112.837 34.6953 112.837 34.9914 112.837C34.9914 112.019 34.5937 111.356 34.103 111.356C33.6123 111.356 33.2145 112.019 33.2145 112.837C33.5107 112.837 33.6123 112.837 34.103 112.837Z" fill="#E6C70D"/>
<ellipse cx="102.513" cy="100.399" rx="1.48075" ry="0.888449" transform="rotate(-90 102.513 100.399)" fill="black"/>
<ellipse cx="102.513" cy="104.545" rx="1.48075" ry="0.888449" transform="rotate(-90 102.513 104.545)" fill="black"/>
<ellipse cx="36.1759" cy="94.1794" rx="1.48075" ry="0.888449" transform="rotate(-90 36.1759 94.1794)" fill="#E6C70D"/>
<ellipse rx="1.48075" ry="0.888449" transform="matrix(4.37114e-08 1 1 -4.37114e-08 36.1759 110.764)" fill="#E6C70D"/>
<circle cx="25.2184" cy="102.472" r="2.07305" transform="rotate(-90 25.2184 102.472)" fill="black"/>
<path d="M18.9992 92.1064C18.9992 93.2513 18.071 94.1794 16.9261 94.1794C15.7812 94.1794 14.8531 93.2513 14.8531 92.1064C15.7415 92.1064 15.8896 92.1064 16.9261 92.1064C17.9626 92.1064 17.8146 92.1064 18.9992 92.1064Z" fill="black"/>
<path d="M58.6834 92.1063C58.6834 94.3962 56.9597 96.2524 54.8334 96.2524C52.7071 96.2524 50.9835 94.3962 50.9835 92.1063C52.6334 92.1063 52.9084 92.1063 54.8334 92.1063C56.7584 92.1063 56.4834 92.1063 58.6834 92.1063Z" fill="black"/>
<path d="M58.6834 112.837C58.6834 110.547 56.9597 108.691 54.8334 108.691C52.7071 108.691 50.9835 110.547 50.9835 112.837C52.6334 112.837 52.9084 112.837 54.8334 112.837C56.7584 112.837 56.4834 112.837 58.6834 112.837Z" fill="black"/>
<path d="M58.091 92.1064C58.091 93.742 56.6325 95.0679 54.8334 95.0679C53.0342 95.0679 51.5757 93.742 51.5757 92.1064C52.9718 92.1064 53.2045 92.1064 54.8334 92.1064C56.4622 92.1064 56.2295 92.1064 58.091 92.1064Z" fill="#E6C70D"/>
<path d="M58.091 112.837C58.091 111.201 56.6325 109.875 54.8334 109.875C53.0342 109.875 51.5757 111.201 51.5757 112.837C52.9718 112.837 53.2045 112.837 54.8334 112.837C56.4622 112.837 56.2295 112.837 58.091 112.837Z" fill="#E6C70D"/>
<path d="M18.9992 112.837C18.9992 111.692 18.071 110.764 16.9261 110.764C15.7812 110.764 14.8531 111.692 14.8531 112.837C15.7415 112.837 15.8896 112.837 16.9261 112.837C17.9626 112.837 17.8146 112.837 18.9992 112.837Z" fill="black"/>
<path d="M0.0457916 112.811L11.2995 112.811L11.5956 111.626C8.63413 112.219 0.0457915 110.273 0.0457916 112.811Z" fill="black"/>
<path d="M0.0457916 92.1174L11.2995 92.1174L11.5956 93.302C8.63413 92.7097 0.0457917 94.6559 0.0457916 92.1174Z" fill="black"/>
<path d="M3.75955 108.286C3.4237 110.398 8.4542 109.286 10.9158 109.677L11.3011 108.475C9.32917 108.667 4.0954 106.175 3.75955 108.286Z" fill="black"/>
<path d="M3.75955 96.6422C3.4237 94.5306 8.4542 95.6429 10.9158 95.2513L11.3011 96.453C9.32917 96.2615 4.0954 98.7538 3.75955 96.6422Z" fill="black"/>
<path d="M5.80229 103.787C4.9284 105.739 10.075 105.974 12.3499 106.993L13.0347 105.933C11.0809 105.604 6.67618 101.836 5.80229 103.787Z" fill="black"/>
<path d="M5.80229 101.141C4.9284 99.1896 10.075 98.9542 12.3499 97.9354L13.0347 98.9954C11.0809 99.3238 6.67618 103.092 5.80229 101.141Z" fill="black"/>
<rect x="7.74556" y="71.376" width="20.7305" height="47.9762" transform="rotate(-90 7.74556 71.376)" fill="#218628"/>
<rect x="71.714" y="71.376" width="20.7305" height="47.9762" transform="rotate(-90 71.714 71.376)" fill="#C40C0E"/>
<path d="M110.213 71.376C111.102 71.2773 112.879 70.0532 112.879 67.9209C112.879 65.7886 111.102 64.5645 110.213 64.4658C111.102 64.5645 112.879 64.0907 112.879 61.0107C112.879 58.3831 111.586 57.5087 110.654 57.4923C110.494 57.5228 110.344 57.5412 110.213 57.5557C110.344 57.5122 110.494 57.4895 110.654 57.4923C111.586 57.3153 112.879 56.7282 112.879 54.1006C112.879 51.0206 111.102 50.7442 110.213 50.6455L124.725 50.6455L124.725 71.376L110.213 71.376Z" fill="#E9C715"/>
<path d="M91.852 61.0107C91.852 65.7491 98.6634 66.6376 98.6634 71.376L130.351 71.376L130.351 50.6455L98.6634 50.6455C98.6634 55.3839 91.852 56.2723 91.852 61.0107Z" fill="black"/>
<path d="M94.2213 61.0107C94.2213 65.7491 101.033 66.6376 101.033 71.376L132.721 71.376L132.721 50.6455L101.033 50.6455C101.033 55.3839 94.2213 56.2723 94.2213 61.0107Z" fill="#E6C70D"/>
<path d="M96.5904 61.0107C96.5904 65.7491 103.402 66.6376 103.402 71.376L135.09 71.376L135.09 50.6455L103.402 50.6455C103.402 55.3839 96.5904 56.2723 96.5904 61.0107Z" fill="black"/>
<path d="M98.3675 61.0107C98.3675 65.7491 105.179 66.6376 105.179 71.376L136.867 71.376L136.867 50.6455L105.179 50.6455C105.179 55.3839 98.3675 56.2723 98.3675 61.0107Z" fill="#218628"/>
<path d="M111.409 50.6455L127.105 50.6455L127.105 71.376L111.409 71.376C111.409 68.1183 108.436 66.9337 108.436 66.9337C108.436 66.9337 111.409 66.3541 111.409 61.1588C111.409 55.7109 108.436 55.3839 108.436 55.3839C108.436 55.3839 111.409 55.3839 111.409 50.6455Z" fill="black"/>
<path d="M113.186 50.6455L128.882 50.6455L128.882 71.376L113.186 71.376C113.186 68.1183 110.213 66.9337 110.213 66.9337C110.213 66.9337 113.186 66.3541 113.186 61.1588C113.186 55.7109 110.213 55.3839 110.213 55.3839C110.213 55.3839 113.186 55.3839 113.186 50.6455Z" fill="#E6C70D"/>
<path d="M115.544 61.0107C115.544 68.7106 122.356 63.6761 122.356 71.376L126.798 71.376L126.798 50.6455L122.356 50.6455C122.356 58.0492 115.544 53.3108 115.544 61.0107Z" fill="black"/>
<path d="M117.913 61.0107C117.913 67.2299 124.725 63.6761 124.725 71.376L156.413 71.376L156.413 50.6455L124.725 50.6455C124.725 58.6415 117.913 54.7916 117.913 61.0107Z" fill="#C40C0E"/>
<path d="M32.6223 61.0107C32.6223 75.5221 13.3726 56.5685 13.3726 71.376L-5.87717 71.376L-5.87718 50.6455L13.3726 50.6455C13.3726 65.7491 32.6223 46.4994 32.6223 61.0107Z" fill="black"/>
<path d="M29.0684 61.0107C29.0684 71.376 9.81864 53.3108 9.81865 71.376L-9.43108 71.376L-9.43108 50.6455L9.81864 50.6455C9.81865 69.0068 29.0684 50.6455 29.0684 61.0107Z" fill="#C40C0E"/>
<path d="M51.2798 59.53L41.803 71.376L74.0833 71.376C74.4782 70.2901 76.3341 69.2807 79.414 69.0438C82.494 68.8069 83.264 67.3039 83.264 66.4155C83.264 65.527 82.494 63.7871 79.414 63.7871C76.3341 63.7871 74.3795 62.7876 74.3795 61.1588C74.3795 59.53 76.3341 58.5305 79.414 58.5305C82.494 58.5305 83.264 56.6055 83.264 55.9022C83.264 55.1988 83.6786 53.2738 79.414 53.2738C75.1495 53.2738 73.9846 51.9288 74.0833 50.6455L44.1722 50.6455L47.4296 55.0137L40.3813 63.6761L41.8028 65.453L49.8583 57.7531L51.2798 59.53Z" fill="black"/>
<path d="M53.3526 61.8992L45.6528 71.376L71.1216 71.376C71.5165 70.2901 73.3724 68.3552 76.4523 68.1183C79.5323 67.8814 80.3023 67.3039 80.3023 66.4155C80.3023 65.527 79.5323 64.5645 76.4523 64.5645C73.3724 64.5645 71.4178 62.7876 71.4178 61.1588C71.4178 59.53 73.3724 57.4569 76.4523 57.4569C79.5323 57.4569 80.3023 56.6055 80.3023 55.9022C80.3023 55.1988 80.7169 53.9031 76.4523 53.9031C72.1878 53.9031 71.0229 51.9288 71.1216 50.6455L45.6528 50.6455L53.3526 60.1223C57.5975 59.2338 66.0871 58.0492 66.0871 61.0107C66.0871 63.8636 57.4 63.0838 53.3526 61.8992Z" fill="#E6C70D"/>
<circle cx="122.948" cy="61.0107" r="2.66535" transform="rotate(-90 122.948 61.0107)" fill="black"/>
<circle cx="130.055" cy="66.9338" r="1.48075" transform="rotate(-90 130.055 66.9338)" fill="#E6C70D"/>
<circle cx="130.055" cy="54.4956" r="1.48075" transform="rotate(-90 130.055 54.4956)" fill="#E6C70D"/>
<ellipse cx="134.794" cy="61.0107" rx="1.48075" ry="5.62684" transform="rotate(-90 134.794 61.0107)" fill="black"/>
<ellipse cx="140.124" cy="66.9338" rx="1.48075" ry="5.62684" transform="rotate(-90 140.124 66.9338)" fill="black"/>
<ellipse cx="140.124" cy="55.0879" rx="1.48075" ry="5.62684" transform="rotate(-90 140.124 55.0879)" fill="black"/>
<ellipse cx="100.44" cy="61.0107" rx="1.48075" ry="0.888449" transform="rotate(-90 100.44 61.0107)" fill="black"/>
<ellipse cx="61.0021" cy="55.0588" rx="1.48075" ry="0.888449" transform="rotate(-150 61.0021 55.0588)" fill="black"/>
<ellipse cx="72.8398" cy="55.8822" rx="1.48075" ry="0.888449" transform="rotate(122.604 72.8398 55.8822)" fill="black"/>
<ellipse rx="2.0192" ry="1.21152" transform="matrix(-0.538823 -0.842419 -0.842419 0.538823 88.0676 55.8822)" fill="black"/>
<ellipse cx="88.0676" cy="66.653" rx="2.0192" ry="1.21152" transform="rotate(122.604 88.0676 66.653)" fill="black"/>
<ellipse cx="72.8398" cy="66.5109" rx="1.48075" ry="0.888449" transform="rotate(122.604 72.8398 66.5109)" fill="black"/>
<path d="M80.5937 56.1965L72.9811 56.0504L73.1432 55.4084L81.045 55.4909L80.5937 56.1965Z" fill="black"/>
<path d="M80.5937 66.8252L72.9811 66.6791L73.1432 66.037L81.045 66.1195L80.5937 66.8252Z" fill="black"/>
<ellipse cx="61.0021" cy="69.8662" rx="1.48075" ry="0.888449" transform="rotate(-150 61.0021 69.8662)" fill="black"/>
<ellipse cx="61.0021" cy="52.0971" rx="1.48075" ry="0.888449" transform="rotate(-150 61.0021 52.0971)" fill="black"/>
<ellipse cx="61.0021" cy="66.9048" rx="1.48075" ry="0.888449" transform="rotate(-150 61.0021 66.9048)" fill="black"/>
<ellipse cx="104.587" cy="61.0107" rx="1.48075" ry="0.888449" transform="rotate(-90 104.587 61.0107)" fill="black"/>
<path d="M38.2489 50.6455C38.7395 50.6455 38.8412 50.6455 39.1373 50.6455C39.1373 51.4633 38.7395 52.1262 38.2489 52.1262C37.7582 52.1262 37.3604 51.4633 37.3604 50.6455C37.6566 50.6455 37.7582 50.6455 38.2489 50.6455Z" fill="#E6C70D"/>
<path d="M38.2489 71.376C38.7395 71.376 38.8412 71.376 39.1373 71.376C39.1373 70.5582 38.7395 69.8953 38.2489 69.8953C37.7582 69.8953 37.3604 70.5582 37.3604 71.376C37.6566 71.376 37.7582 71.376 38.2489 71.376Z" fill="#E6C70D"/>
<path d="M34.103 50.6455C34.5937 50.6455 34.6953 50.6455 34.9914 50.6455C34.9914 51.4633 34.5937 52.1262 34.103 52.1262C33.6123 52.1262 33.2145 51.4633 33.2145 50.6455C33.5107 50.6455 33.6123 50.6455 34.103 50.6455Z" fill="#E6C70D"/>
<path d="M34.103 71.376C34.5937 71.376 34.6953 71.376 34.9914 71.376C34.9914 70.5582 34.5937 69.8953 34.103 69.8953C33.6123 69.8953 33.2145 70.5582 33.2145 71.376C33.5107 71.376 33.6123 71.376 34.103 71.376Z" fill="#E6C70D"/>
<ellipse cx="102.513" cy="58.9377" rx="1.48075" ry="0.888449" transform="rotate(-90 102.513 58.9377)" fill="black"/>
<ellipse cx="102.513" cy="63.0837" rx="1.48075" ry="0.888449" transform="rotate(-90 102.513 63.0837)" fill="black"/>
<ellipse cx="36.1759" cy="52.7185" rx="1.48075" ry="0.888449" transform="rotate(-90 36.1759 52.7185)" fill="#E6C70D"/>
<ellipse rx="1.48075" ry="0.888449" transform="matrix(4.37114e-08 1 1 -4.37114e-08 36.1759 69.303)" fill="#E6C70D"/>
<circle cx="25.2184" cy="61.0107" r="2.07305" transform="rotate(-90 25.2184 61.0107)" fill="black"/>
<path d="M18.9992 50.6455C18.9992 51.7904 18.071 52.7185 16.9261 52.7185C15.7812 52.7185 14.8531 51.7904 14.8531 50.6455C15.7415 50.6455 15.8896 50.6455 16.9261 50.6455C17.9626 50.6455 17.8146 50.6455 18.9992 50.6455Z" fill="black"/>
<path d="M58.6834 50.6454C58.6834 52.9352 56.9597 54.7915 54.8334 54.7915C52.7071 54.7915 50.9835 52.9352 50.9835 50.6454C52.6334 50.6454 52.9084 50.6454 54.8334 50.6454C56.7584 50.6454 56.4834 50.6454 58.6834 50.6454Z" fill="black"/>
<path d="M58.6834 71.3761C58.6834 69.0863 56.9597 67.23 54.8334 67.23C52.7071 67.23 50.9835 69.0863 50.9835 71.3761C52.6334 71.3761 52.9084 71.3761 54.8334 71.3761C56.7584 71.3761 56.4834 71.3761 58.6834 71.3761Z" fill="black"/>
<path d="M58.091 50.6454C58.091 52.281 56.6325 53.6069 54.8334 53.6069C53.0342 53.6069 51.5757 52.281 51.5757 50.6454C52.9718 50.6454 53.2045 50.6454 54.8334 50.6454C56.4622 50.6454 56.2295 50.6454 58.091 50.6454Z" fill="#E6C70D"/>
<path d="M58.091 71.376C58.091 69.7405 56.6325 68.4146 54.8334 68.4146C53.0342 68.4146 51.5757 69.7405 51.5757 71.376C52.9718 71.376 53.2045 71.376 54.8334 71.376C56.4622 71.376 56.2295 71.376 58.091 71.376Z" fill="#E6C70D"/>
<path d="M18.9992 71.376C18.9992 70.2311 18.071 69.303 16.9261 69.303C15.7812 69.303 14.8531 70.2311 14.8531 71.376C15.7415 71.376 15.8896 71.376 16.9261 71.376C17.9626 71.376 17.8146 71.376 18.9992 71.376Z" fill="black"/>
<path d="M0.0457916 71.3501L11.2995 71.3501L11.5956 70.1655C8.63413 70.7578 0.0457915 68.8117 0.0457916 71.3501Z" fill="black"/>
<path d="M0.0457916 50.6565L11.2995 50.6565L11.5956 51.8411C8.63413 51.2488 0.0457917 53.1949 0.0457916 50.6565Z" fill="black"/>
<path d="M3.75955 66.8253C3.4237 68.937 8.4542 67.8247 10.9158 68.2162L11.3011 67.0145C9.32917 67.206 4.0954 64.7137 3.75955 66.8253Z" fill="black"/>
<path d="M3.75955 55.1812C3.4237 53.0696 8.4542 54.1819 10.9158 53.7904L11.3011 54.9921C9.32917 54.8006 4.0954 57.2929 3.75955 55.1812Z" fill="black"/>
<path d="M5.80229 62.3265C4.9284 64.2779 10.075 64.5133 12.3499 65.5321L13.0347 64.4721C11.0809 64.1438 6.67618 60.3751 5.80229 62.3265Z" fill="black"/>
<path d="M5.80229 59.6803C4.9284 57.7289 10.075 57.4935 12.3499 56.4748L13.0347 57.5348C11.0809 57.8631 6.67618 61.6317 5.80229 59.6803Z" fill="black"/>
<rect x="7.74556" y="29.915" width="20.7305" height="47.9762" transform="rotate(-90 7.74556 29.915)" fill="#218628"/>
<rect x="71.714" y="29.915" width="20.7305" height="47.9762" transform="rotate(-90 71.714 29.915)" fill="#C40C0E"/>
<path d="M110.213 29.915C111.102 29.8163 112.879 28.5922 112.879 26.46C112.879 24.3277 111.102 23.1036 110.213 23.0049C111.102 23.1036 112.879 22.6298 112.879 19.5498C112.879 16.9222 111.586 16.0477 110.654 16.0314C110.494 16.0619 110.344 16.0802 110.213 16.0947C110.344 16.0512 110.494 16.0286 110.654 16.0314C111.586 15.8543 112.879 15.2672 112.879 12.6396C112.879 9.55968 111.102 9.28328 110.213 9.18456L124.725 9.18456L124.725 29.915L110.213 29.915Z" fill="#E9C715"/>
<path d="M91.852 19.5498C91.852 24.2882 98.6634 25.1766 98.6634 29.915L130.351 29.915L130.351 9.18456L98.6634 9.18456C98.6634 13.923 91.852 14.8114 91.852 19.5498Z" fill="black"/>
<path d="M94.2213 19.5498C94.2213 24.2882 101.033 25.1766 101.033 29.915L132.721 29.915L132.721 9.18456L101.033 9.18456C101.033 13.923 94.2213 14.8114 94.2213 19.5498Z" fill="#E6C70D"/>
<path d="M96.5904 19.5498C96.5904 24.2882 103.402 25.1766 103.402 29.915L135.09 29.915L135.09 9.18456L103.402 9.18456C103.402 13.923 96.5904 14.8114 96.5904 19.5498Z" fill="black"/>
<path d="M98.3675 19.5498C98.3675 24.2882 105.179 25.1766 105.179 29.915L136.867 29.915L136.867 9.18456L105.179 9.18456C105.179 13.923 98.3675 14.8114 98.3675 19.5498Z" fill="#218628"/>
<path d="M111.409 9.18456L127.105 9.18456L127.105 29.915L111.409 29.915C111.409 26.6574 108.436 25.4728 108.436 25.4728C108.436 25.4728 111.409 24.8931 111.409 19.6979C111.409 14.2499 108.436 13.923 108.436 13.923C108.436 13.923 111.409 13.923 111.409 9.18456Z" fill="black"/>
<path d="M113.186 9.18456L128.882 9.18456L128.882 29.915L113.186 29.915C113.186 26.6574 110.213 25.4728 110.213 25.4728C110.213 25.4728 113.186 24.8931 113.186 19.6979C113.186 14.2499 110.213 13.923 110.213 13.923C110.213 13.923 113.186 13.923 113.186 9.18456Z" fill="#E6C70D"/>
<path d="M115.544 19.5498C115.544 27.2497 122.356 22.2151 122.356 29.915L126.798 29.915L126.798 9.18456L122.356 9.18456C122.356 16.5883 115.544 11.8499 115.544 19.5498Z" fill="black"/>
<path d="M117.913 19.5498C117.913 25.7689 124.725 22.2151 124.725 29.915L156.413 29.915L156.413 9.18456L124.725 9.18456C124.725 17.1806 117.913 13.3307 117.913 19.5498Z" fill="#C40C0E"/>
<path d="M32.6223 19.5498C32.6223 34.0611 13.3725 15.1076 13.3725 29.915L-5.87719 29.915L-5.87719 9.18456L13.3725 9.18456C13.3725 24.2882 32.6223 5.03846 32.6223 19.5498Z" fill="black"/>
<path d="M29.0684 19.5498C29.0684 29.915 9.81864 11.8499 9.81865 29.915L-9.43108 29.915L-9.43108 9.18456L9.81864 9.18456C9.81865 27.5458 29.0684 9.18456 29.0684 19.5498Z" fill="#C40C0E"/>
<path d="M51.2798 18.0691L41.803 29.915L74.0833 29.915C74.4782 28.8292 76.3341 27.8198 79.414 27.5829C82.494 27.3459 83.264 25.843 83.264 24.9545C83.264 24.0661 82.494 22.3262 79.414 22.3262C76.3341 22.3262 74.3795 21.3267 74.3795 19.6979C74.3795 18.069 76.3341 17.0695 79.414 17.0695C82.494 17.0695 83.264 15.1446 83.264 14.4412C83.264 13.7379 83.6786 11.8129 79.414 11.8129C75.1495 11.8129 73.9846 10.4679 74.0833 9.18456L44.1722 9.18456L47.4296 13.5528L40.3813 22.2151L41.8028 23.992L49.8583 16.2922L51.2798 18.0691Z" fill="black"/>
<path d="M53.3526 20.4382L45.6527 29.915L71.1216 29.915C71.5165 28.8292 73.3724 26.8943 76.4523 26.6574C79.5323 26.4205 80.3023 25.843 80.3023 24.9545C80.3023 24.0661 79.5323 23.1036 76.4523 23.1036C73.3724 23.1036 71.4178 21.3267 71.4178 19.6979C71.4178 18.069 73.3724 15.996 76.4523 15.996C79.5323 15.996 80.3023 15.1446 80.3023 14.4412C80.3023 13.7379 80.7169 12.4422 76.4523 12.4422C72.1878 12.4422 71.0229 10.4679 71.1216 9.18456L45.6527 9.18456L53.3526 18.6613C57.5974 17.7729 66.0871 16.5883 66.0871 19.5498C66.0871 22.4027 57.4 21.6228 53.3526 20.4382Z" fill="#E6C70D"/>
<circle cx="122.948" cy="19.5497" r="2.66535" transform="rotate(-90 122.948 19.5497)" fill="black"/>
<circle cx="130.055" cy="25.4729" r="1.48075" transform="rotate(-90 130.055 25.4729)" fill="#E6C70D"/>
<circle cx="130.055" cy="13.0344" r="1.48075" transform="rotate(-90 130.055 13.0344)" fill="#E6C70D"/>
<ellipse cx="134.794" cy="19.5498" rx="1.48075" ry="5.62684" transform="rotate(-90 134.794 19.5498)" fill="black"/>
<ellipse cx="140.124" cy="25.4729" rx="1.48075" ry="5.62684" transform="rotate(-90 140.124 25.4729)" fill="black"/>
<ellipse cx="140.124" cy="13.6269" rx="1.48075" ry="5.62684" transform="rotate(-90 140.124 13.6269)" fill="black"/>
<ellipse cx="100.44" cy="19.5498" rx="1.48075" ry="0.888449" transform="rotate(-90 100.44 19.5498)" fill="black"/>
<ellipse cx="61.0021" cy="13.5979" rx="1.48075" ry="0.888449" transform="rotate(-150 61.0021 13.5979)" fill="black"/>
<ellipse cx="72.8398" cy="14.4213" rx="1.48075" ry="0.888449" transform="rotate(122.604 72.8398 14.4213)" fill="black"/>
<ellipse rx="2.0192" ry="1.21152" transform="matrix(-0.538823 -0.842419 -0.842419 0.538823 88.0676 14.4213)" fill="black"/>
<ellipse cx="88.0676" cy="25.192" rx="2.0192" ry="1.21152" transform="rotate(122.604 88.0676 25.192)" fill="black"/>
<ellipse cx="72.8398" cy="25.0499" rx="1.48075" ry="0.888449" transform="rotate(122.604 72.8398 25.0499)" fill="black"/>
<path d="M80.5937 14.7356L72.9811 14.5895L73.1432 13.9474L81.045 14.0299L80.5937 14.7356Z" fill="black"/>
<path d="M80.5937 25.3642L72.9811 25.2181L73.1432 24.5761L81.045 24.6586L80.5937 25.3642Z" fill="black"/>
<ellipse cx="61.0021" cy="28.4052" rx="1.48075" ry="0.888449" transform="rotate(-150 61.0021 28.4052)" fill="black"/>
<ellipse cx="61.0021" cy="10.6362" rx="1.48075" ry="0.888449" transform="rotate(-150 61.0021 10.6362)" fill="black"/>
<ellipse cx="61.0021" cy="25.4438" rx="1.48075" ry="0.888449" transform="rotate(-150 61.0021 25.4438)" fill="black"/>
<ellipse cx="104.587" cy="19.5498" rx="1.48075" ry="0.888449" transform="rotate(-90 104.587 19.5498)" fill="black"/>
<path d="M38.2488 9.18453C38.7395 9.18453 38.8411 9.18453 39.1373 9.18453C39.1373 10.0023 38.7395 10.6653 38.2488 10.6653C37.7582 10.6653 37.3604 10.0023 37.3604 9.18453C37.6565 9.18453 37.7582 9.18453 38.2488 9.18453Z" fill="#E6C70D"/>
<path d="M38.2488 29.9151C38.7395 29.9151 38.8411 29.9151 39.1373 29.9151C39.1373 29.0973 38.7395 28.4343 38.2488 28.4343C37.7582 28.4343 37.3604 29.0973 37.3604 29.9151C37.6565 29.9151 37.7582 29.9151 38.2488 29.9151Z" fill="#E6C70D"/>
<path d="M34.103 9.18453C34.5937 9.18453 34.6953 9.18453 34.9914 9.18453C34.9914 10.0023 34.5937 10.6653 34.103 10.6653C33.6123 10.6653 33.2145 10.0023 33.2145 9.18453C33.5107 9.18453 33.6123 9.18453 34.103 9.18453Z" fill="#E6C70D"/>
<path d="M34.103 29.9151C34.5937 29.9151 34.6953 29.9151 34.9914 29.9151C34.9914 29.0973 34.5937 28.4343 34.103 28.4343C33.6123 28.4343 33.2145 29.0973 33.2145 29.9151C33.5107 29.9151 33.6123 29.9151 34.103 29.9151Z" fill="#E6C70D"/>
<ellipse cx="102.513" cy="17.4768" rx="1.48075" ry="0.888449" transform="rotate(-90 102.513 17.4768)" fill="black"/>
<ellipse cx="102.513" cy="21.6228" rx="1.48075" ry="0.888449" transform="rotate(-90 102.513 21.6228)" fill="black"/>
<ellipse cx="36.1759" cy="11.2575" rx="1.48075" ry="0.888449" transform="rotate(-90 36.1759 11.2575)" fill="#E6C70D"/>
<ellipse rx="1.48075" ry="0.888449" transform="matrix(4.37114e-08 1 1 -4.37114e-08 36.1759 27.8421)" fill="#E6C70D"/>
<circle cx="25.2184" cy="19.5498" r="2.07305" transform="rotate(-90 25.2184 19.5498)" fill="black"/>
<path d="M18.9992 9.18452C18.9992 10.3294 18.071 11.2576 16.9261 11.2576C15.7812 11.2576 14.8531 10.3294 14.8531 9.18452C15.7415 9.18452 15.8896 9.18452 16.9261 9.18452C17.9626 9.18452 17.8146 9.18452 18.9992 9.18452Z" fill="black"/>
<path d="M58.6833 9.18447C58.6833 11.4743 56.9597 13.3306 54.8334 13.3306C52.7071 13.3306 50.9834 11.4743 50.9834 9.18447C52.6334 9.18447 52.9084 9.18447 54.8334 9.18447C56.7584 9.18447 56.4834 9.18447 58.6833 9.18447Z" fill="black"/>
<path d="M58.6833 29.9151C58.6833 27.6253 56.9597 25.769 54.8334 25.769C52.7071 25.769 50.9834 27.6253 50.9834 29.9151C52.6334 29.9151 52.9084 29.9151 54.8334 29.9151C56.7584 29.9151 56.4834 29.9151 58.6833 29.9151Z" fill="black"/>
<path d="M58.091 9.1845C58.091 10.8201 56.6325 12.146 54.8334 12.146C53.0342 12.146 51.5757 10.8201 51.5757 9.1845C52.9718 9.1845 53.2045 9.1845 54.8334 9.1845C56.4622 9.1845 56.2295 9.1845 58.091 9.1845Z" fill="#E6C70D"/>
<path d="M58.091 29.9151C58.091 28.2795 56.6325 26.9536 54.8334 26.9536C53.0342 26.9536 51.5757 28.2795 51.5757 29.9151C52.9718 29.9151 53.2045 29.9151 54.8334 29.9151C56.4622 29.9151 56.2295 29.9151 58.091 29.9151Z" fill="#E6C70D"/>
<path d="M18.9992 29.9151C18.9992 28.7702 18.071 27.842 16.9261 27.842C15.7812 27.842 14.8531 28.7702 14.8531 29.9151C15.7415 29.9151 15.8896 29.9151 16.9261 29.9151C17.9626 29.9151 17.8146 29.9151 18.9992 29.9151Z" fill="black"/>
<path d="M0.0457916 29.8892L11.2995 29.8892L11.5956 28.7046C8.63413 29.2969 0.0457915 27.3507 0.0457916 29.8892Z" fill="black"/>
<path d="M0.0457916 9.19556L11.2995 9.19554L11.5956 10.3802C8.63413 9.78786 0.0457917 11.734 0.0457916 9.19556Z" fill="black"/>
<path d="M3.75953 25.3644C3.42368 27.476 8.45419 26.3637 10.9158 26.7552L11.3011 25.5536C9.32916 25.7451 4.09539 23.2528 3.75953 25.3644Z" fill="black"/>
<path d="M3.75953 13.7203C3.42368 11.6087 8.45419 12.721 10.9158 12.3295L11.3011 13.5312C9.32916 13.3396 4.09539 15.8319 3.75953 13.7203Z" fill="black"/>
<path d="M5.80228 20.8656C4.92839 22.817 10.075 23.0524 12.3499 24.0711L13.0346 23.0111C11.0808 22.6828 6.67617 18.9142 5.80228 20.8656Z" fill="black"/>
<path d="M5.80228 18.2194C4.92839 16.2679 10.075 16.0326 12.3499 15.0138L13.0346 16.0738C11.0808 16.4021 6.67617 20.1708 5.80228 18.2194Z" fill="black"/>
<rect x="7.74556" y="133.567" width="20.7305" height="47.9762" transform="rotate(-90 7.74556 133.567)" fill="#218628"/>
<rect x="71.714" y="133.567" width="20.7305" height="47.9762" transform="rotate(-90 71.714 133.567)" fill="#C40C0E"/>
<path d="M110.213 133.567C111.102 133.469 112.879 132.245 112.879 130.112C112.879 127.98 111.102 126.756 110.213 126.657C111.102 126.756 112.879 126.282 112.879 123.202C112.879 120.575 111.586 119.7 110.654 119.684C110.494 119.714 110.344 119.733 110.213 119.747C110.344 119.704 110.494 119.681 110.654 119.684C111.586 119.507 112.879 118.92 112.879 116.292C112.879 113.212 111.102 112.936 110.213 112.837L124.725 112.837L124.725 133.567L110.213 133.567Z" fill="#E9C715"/>
<path d="M91.852 123.202C91.852 127.941 98.6634 128.829 98.6634 133.567L130.351 133.567L130.351 112.837L98.6634 112.837C98.6634 117.575 91.852 118.464 91.852 123.202Z" fill="black"/>
<path d="M94.2213 123.202C94.2213 127.941 101.033 128.829 101.033 133.567L132.721 133.567L132.721 112.837L101.033 112.837C101.033 117.575 94.2213 118.464 94.2213 123.202Z" fill="#E6C70D"/>
<path d="M96.5904 123.202C96.5904 127.941 103.402 128.829 103.402 133.567L135.09 133.567L135.09 112.837L103.402 112.837C103.402 117.575 96.5904 118.464 96.5904 123.202Z" fill="black"/>
<path d="M98.3675 123.202C98.3675 127.941 105.179 128.829 105.179 133.567L136.867 133.567L136.867 112.837L105.179 112.837C105.179 117.575 98.3675 118.464 98.3675 123.202Z" fill="#218628"/>
<path d="M111.409 112.837L127.105 112.837L127.105 133.567L111.409 133.567C111.409 130.31 108.436 129.125 108.436 129.125C108.436 129.125 111.409 128.545 111.409 123.35C111.409 117.902 108.436 117.575 108.436 117.575C108.436 117.575 111.409 117.575 111.409 112.837Z" fill="black"/>
<path d="M113.186 112.837L128.882 112.837L128.882 133.567L113.186 133.567C113.186 130.31 110.213 129.125 110.213 129.125C110.213 129.125 113.186 128.545 113.186 123.35C113.186 117.902 110.213 117.575 110.213 117.575C110.213 117.575 113.186 117.575 113.186 112.837Z" fill="#E6C70D"/>
<path d="M115.544 123.202C115.544 130.902 122.356 125.867 122.356 133.567L126.798 133.567L126.798 112.837L122.356 112.837C122.356 120.241 115.544 115.502 115.544 123.202Z" fill="black"/>
<path d="M117.913 123.202C117.913 129.421 124.725 125.867 124.725 133.567L156.413 133.567L156.413 112.837L124.725 112.837C124.725 120.833 117.913 116.983 117.913 123.202Z" fill="#C40C0E"/>
<path d="M32.6223 123.202C32.6223 137.713 13.3725 118.76 13.3725 133.567L-5.87719 133.567L-5.87719 112.837L13.3725 112.837C13.3725 127.941 32.6223 108.691 32.6223 123.202Z" fill="black"/>
<path d="M29.0684 123.202C29.0684 133.567 9.81864 115.502 9.81865 133.567L-9.43108 133.567L-9.43108 112.837L9.81864 112.837C9.81865 131.198 29.0684 112.837 29.0684 123.202Z" fill="#C40C0E"/>
<path d="M51.2798 121.721L41.803 133.567L74.0833 133.567C74.4782 132.481 76.3341 131.472 79.414 131.235C82.494 130.998 83.264 129.495 83.264 128.607C83.264 127.718 82.494 125.979 79.414 125.979C76.3341 125.979 74.3795 124.979 74.3795 123.35C74.3795 121.721 76.3341 120.722 79.414 120.722C82.494 120.722 83.264 118.797 83.264 118.094C83.264 117.39 83.6786 115.465 79.414 115.465C75.1495 115.465 73.9846 114.12 74.0833 112.837L44.1722 112.837L47.4296 117.205L40.3813 125.867L41.8028 127.644L49.8583 119.944L51.2798 121.721Z" fill="black"/>
<path d="M53.3526 124.091L45.6528 133.567L71.1216 133.567C71.5165 132.481 73.3724 130.547 76.4523 130.31C79.5323 130.073 80.3023 129.495 80.3023 128.607C80.3023 127.718 79.5323 126.756 76.4523 126.756C73.3724 126.756 71.4178 124.979 71.4178 123.35C71.4178 121.721 73.3724 119.648 76.4523 119.648C79.5323 119.648 80.3023 118.797 80.3023 118.094C80.3023 117.39 80.7169 116.095 76.4523 116.095C72.1878 116.095 71.0229 114.12 71.1216 112.837L45.6528 112.837L53.3526 122.314C57.5975 121.425 66.0871 120.241 66.0871 123.202C66.0871 126.055 57.4 125.275 53.3526 124.091Z" fill="#E6C70D"/>
<circle cx="122.948" cy="123.202" r="2.66535" transform="rotate(-90 122.948 123.202)" fill="black"/>
<circle cx="130.055" cy="129.125" r="1.48075" transform="rotate(-90 130.055 129.125)" fill="#E6C70D"/>
<circle cx="130.055" cy="116.687" r="1.48075" transform="rotate(-90 130.055 116.687)" fill="#E6C70D"/>
<ellipse cx="134.794" cy="123.202" rx="1.48075" ry="5.62684" transform="rotate(-90 134.794 123.202)" fill="black"/>
<ellipse cx="140.124" cy="129.125" rx="1.48075" ry="5.62684" transform="rotate(-90 140.124 129.125)" fill="black"/>
<ellipse cx="140.124" cy="117.279" rx="1.48075" ry="5.62684" transform="rotate(-90 140.124 117.279)" fill="black"/>
<ellipse cx="100.44" cy="123.202" rx="1.48075" ry="0.888449" transform="rotate(-90 100.44 123.202)" fill="black"/>
<ellipse cx="61.0021" cy="117.25" rx="1.48075" ry="0.888449" transform="rotate(-150 61.0021 117.25)" fill="black"/>
<ellipse cx="72.8398" cy="118.074" rx="1.48075" ry="0.888449" transform="rotate(122.604 72.8398 118.074)" fill="black"/>
<ellipse rx="2.0192" ry="1.21152" transform="matrix(-0.538823 -0.842419 -0.842419 0.538823 88.0676 118.074)" fill="black"/>
<ellipse cx="88.0676" cy="128.844" rx="2.0192" ry="1.21152" transform="rotate(122.604 88.0676 128.844)" fill="black"/>
<ellipse cx="72.8398" cy="128.702" rx="1.48075" ry="0.888449" transform="rotate(122.604 72.8398 128.702)" fill="black"/>
<path d="M80.5937 118.388L72.9811 118.242L73.1432 117.6L81.045 117.682L80.5937 118.388Z" fill="black"/>
<path d="M80.5937 129.017L72.9811 128.87L73.1432 128.228L81.045 128.311L80.5937 129.017Z" fill="black"/>
<ellipse cx="61.0021" cy="132.058" rx="1.48075" ry="0.888449" transform="rotate(-150 61.0021 132.058)" fill="black"/>
<ellipse cx="61.0021" cy="114.289" rx="1.48075" ry="0.888449" transform="rotate(-150 61.0021 114.289)" fill="black"/>
<ellipse cx="61.0021" cy="129.096" rx="1.48075" ry="0.888449" transform="rotate(-150 61.0021 129.096)" fill="black"/>
<ellipse cx="104.587" cy="123.202" rx="1.48075" ry="0.888449" transform="rotate(-90 104.587 123.202)" fill="black"/>
<path d="M38.2489 112.837C38.7395 112.837 38.8412 112.837 39.1373 112.837C39.1373 113.655 38.7395 114.318 38.2489 114.318C37.7582 114.318 37.3604 113.655 37.3604 112.837C37.6566 112.837 37.7582 112.837 38.2489 112.837Z" fill="#E6C70D"/>
<path d="M38.2489 133.567C38.7395 133.567 38.8412 133.567 39.1373 133.567C39.1373 132.75 38.7395 132.087 38.2489 132.087C37.7582 132.087 37.3604 132.75 37.3604 133.567C37.6566 133.567 37.7582 133.567 38.2489 133.567Z" fill="#E6C70D"/>
<path d="M34.103 112.837C34.5937 112.837 34.6953 112.837 34.9914 112.837C34.9914 113.655 34.5937 114.318 34.103 114.318C33.6123 114.318 33.2145 113.655 33.2145 112.837C33.5107 112.837 33.6123 112.837 34.103 112.837Z" fill="#E6C70D"/>
<path d="M34.103 133.567C34.5937 133.567 34.6953 133.567 34.9914 133.567C34.9914 132.75 34.5937 132.087 34.103 132.087C33.6123 132.087 33.2145 132.75 33.2145 133.567C33.5107 133.567 33.6123 133.567 34.103 133.567Z" fill="#E6C70D"/>
<ellipse cx="102.513" cy="121.129" rx="1.48075" ry="0.888449" transform="rotate(-90 102.513 121.129)" fill="black"/>
<ellipse cx="102.513" cy="125.275" rx="1.48075" ry="0.888449" transform="rotate(-90 102.513 125.275)" fill="black"/>
<ellipse cx="36.1759" cy="114.91" rx="1.48075" ry="0.888449" transform="rotate(-90 36.1759 114.91)" fill="#E6C70D"/>
<ellipse rx="1.48075" ry="0.888449" transform="matrix(4.37114e-08 1 1 -4.37114e-08 36.1759 131.494)" fill="#E6C70D"/>
<circle cx="25.2184" cy="123.202" r="2.07305" transform="rotate(-90 25.2184 123.202)" fill="black"/>
<path d="M18.9992 112.837C18.9992 113.982 18.071 114.91 16.9261 114.91C15.7812 114.91 14.8531 113.982 14.8531 112.837C15.7415 112.837 15.8896 112.837 16.9261 112.837C17.9626 112.837 17.8146 112.837 18.9992 112.837Z" fill="black"/>
<path d="M58.6834 112.837C58.6834 115.127 56.9597 116.983 54.8334 116.983C52.7071 116.983 50.9835 115.127 50.9835 112.837C52.6334 112.837 52.9084 112.837 54.8334 112.837C56.7584 112.837 56.4834 112.837 58.6834 112.837Z" fill="black"/>
<path d="M58.6834 133.567C58.6834 131.278 56.9597 129.421 54.8334 129.421C52.7071 129.421 50.9835 131.278 50.9835 133.567C52.6334 133.567 52.9084 133.567 54.8334 133.567C56.7584 133.567 56.4834 133.567 58.6834 133.567Z" fill="black"/>
<path d="M58.091 112.837C58.091 114.472 56.6325 115.798 54.8334 115.798C53.0342 115.798 51.5757 114.472 51.5757 112.837C52.9718 112.837 53.2045 112.837 54.8334 112.837C56.4622 112.837 56.2295 112.837 58.091 112.837Z" fill="#E6C70D"/>
<path d="M58.091 133.567C58.091 131.932 56.6325 130.606 54.8334 130.606C53.0342 130.606 51.5757 131.932 51.5757 133.567C52.9718 133.567 53.2045 133.567 54.8334 133.567C56.4622 133.567 56.2295 133.567 58.091 133.567Z" fill="#E6C70D"/>
<path d="M18.9992 133.567C18.9992 132.423 18.071 131.494 16.9261 131.494C15.7812 131.494 14.8531 132.423 14.8531 133.567C15.7415 133.567 15.8896 133.567 16.9261 133.567C17.9626 133.567 17.8146 133.567 18.9992 133.567Z" fill="black"/>
<path d="M0.0457916 133.542L11.2995 133.542L11.5956 132.357C8.63413 132.949 0.0457915 131.003 0.0457916 133.542Z" fill="black"/>
<path d="M0.0457916 112.848L11.2995 112.848L11.5956 114.032C8.63413 113.44 0.0457917 115.386 0.0457916 112.848Z" fill="black"/>
<path d="M3.75955 129.017C3.4237 131.128 8.4542 130.016 10.9158 130.408L11.3011 129.206C9.32917 129.397 4.0954 126.905 3.75955 129.017Z" fill="black"/>
<path d="M3.75955 117.373C3.4237 115.261 8.4542 116.373 10.9158 115.982L11.3011 117.184C9.32917 116.992 4.0954 119.484 3.75955 117.373Z" fill="black"/>
<path d="M5.80229 124.518C4.9284 126.469 10.075 126.705 12.3499 127.723L13.0347 126.663C11.0809 126.335 6.67618 122.566 5.80229 124.518Z" fill="black"/>
<path d="M5.80229 121.871C4.9284 119.92 10.075 119.685 12.3499 118.666L13.0347 119.726C11.0809 120.054 6.67618 123.823 5.80229 121.871Z" fill="black"/>
<rect x="7.74556" y="92.1064" width="20.7305" height="47.9762" transform="rotate(-90 7.74556 92.1064)" fill="#218628"/>
<rect x="71.714" y="92.1064" width="20.7305" height="47.9762" transform="rotate(-90 71.714 92.1064)" fill="#C40C0E"/>
<path d="M110.213 92.1064C111.102 92.0077 112.879 90.7836 112.879 88.6514C112.879 86.5191 111.102 85.295 110.213 85.1963C111.102 85.295 112.879 84.8212 112.879 81.7412C112.879 79.1136 111.586 78.2391 110.654 78.2228C110.494 78.2533 110.344 78.2716 110.213 78.2861C110.344 78.2426 110.494 78.22 110.654 78.2228C111.586 78.0457 112.879 77.4586 112.879 74.831C112.879 71.7511 111.102 71.4747 110.213 71.376L124.725 71.376L124.725 92.1064L110.213 92.1064Z" fill="#E9C715"/>
<path d="M91.852 81.7412C91.852 86.4796 98.6634 87.368 98.6634 92.1064L130.351 92.1064L130.351 71.376L98.6634 71.376C98.6634 76.1144 91.852 77.0028 91.852 81.7412Z" fill="black"/>
<path d="M94.2213 81.7412C94.2213 86.4796 101.033 87.368 101.033 92.1064L132.721 92.1064L132.721 71.376L101.033 71.376C101.033 76.1144 94.2213 77.0028 94.2213 81.7412Z" fill="#E6C70D"/>
<path d="M96.5904 81.7412C96.5904 86.4796 103.402 87.368 103.402 92.1064L135.09 92.1064L135.09 71.376L103.402 71.376C103.402 76.1144 96.5904 77.0028 96.5904 81.7412Z" fill="black"/>
<path d="M98.3675 81.7412C98.3675 86.4796 105.179 87.368 105.179 92.1064L136.867 92.1064L136.867 71.376L105.179 71.376C105.179 76.1144 98.3675 77.0028 98.3675 81.7412Z" fill="#218628"/>
<path d="M111.409 71.376L127.105 71.376L127.105 92.1064L111.409 92.1064C111.409 88.8488 108.436 87.6642 108.436 87.6642C108.436 87.6642 111.409 87.0845 111.409 81.8893C111.409 76.4413 108.436 76.1144 108.436 76.1144C108.436 76.1144 111.409 76.1144 111.409 71.376Z" fill="black"/>
<path d="M113.186 71.376L128.882 71.376L128.882 92.1064L113.186 92.1064C113.186 88.8488 110.213 87.6642 110.213 87.6642C110.213 87.6642 113.186 87.0845 113.186 81.8893C113.186 76.4413 110.213 76.1144 110.213 76.1144C110.213 76.1144 113.186 76.1144 113.186 71.376Z" fill="#E6C70D"/>
<path d="M115.544 81.7412C115.544 89.4411 122.356 84.4066 122.356 92.1064L126.798 92.1064L126.798 71.376L122.356 71.376C122.356 78.7797 115.544 74.0413 115.544 81.7412Z" fill="black"/>
<path d="M117.913 81.7412C117.913 87.9603 124.725 84.4066 124.725 92.1064L156.413 92.1064L156.413 71.376L124.725 71.376C124.725 79.372 117.913 75.5221 117.913 81.7412Z" fill="#C40C0E"/>
<path d="M32.6223 81.7412C32.6223 96.2525 13.3725 77.299 13.3725 92.1064L-5.87719 92.1064L-5.87719 71.376L13.3725 71.376C13.3725 86.4796 32.6223 67.2299 32.6223 81.7412Z" fill="black"/>
<path d="M29.0684 81.7412C29.0684 92.1064 9.81864 74.0413 9.81865 92.1064L-9.43108 92.1064L-9.43108 71.376L9.81864 71.376C9.81865 89.7372 29.0684 71.376 29.0684 81.7412Z" fill="#C40C0E"/>
<path d="M51.2798 80.2605L41.803 92.1064L74.0833 92.1064C74.4782 91.0206 76.3341 90.0112 79.414 89.7743C82.494 89.5373 83.264 88.0344 83.264 87.1459C83.264 86.2575 82.494 84.5176 79.414 84.5176C76.3341 84.5176 74.3795 83.5181 74.3795 81.8893C74.3795 80.2605 76.3341 79.261 79.414 79.261C82.494 79.261 83.264 77.336 83.264 76.6326C83.264 75.9293 83.6786 74.0043 79.414 74.0043C75.1495 74.0043 73.9846 72.6593 74.0833 71.376L44.1722 71.376L47.4296 75.7442L40.3813 84.4066L41.8028 86.1835L49.8583 78.4836L51.2798 80.2605Z" fill="black"/>
<path d="M53.3526 82.6297L45.6528 92.1064L71.1216 92.1064C71.5165 91.0206 73.3724 89.0857 76.4523 88.8488C79.5323 88.6119 80.3023 88.0344 80.3023 87.1459C80.3023 86.2575 79.5323 85.295 76.4523 85.295C73.3724 85.295 71.4178 83.5181 71.4178 81.8893C71.4178 80.2605 73.3724 78.1874 76.4523 78.1874C79.5323 78.1874 80.3023 77.336 80.3023 76.6326C80.3023 75.9293 80.7169 74.6336 76.4523 74.6336C72.1878 74.6336 71.0229 72.6593 71.1216 71.376L45.6528 71.376L53.3526 80.8528C57.5975 79.9643 66.0871 78.7797 66.0871 81.7412C66.0871 84.5941 57.4 83.8143 53.3526 82.6297Z" fill="#E6C70D"/>
<circle cx="122.948" cy="81.7411" r="2.66535" transform="rotate(-90 122.948 81.7411)" fill="black"/>
<circle cx="130.055" cy="87.6643" r="1.48075" transform="rotate(-90 130.055 87.6643)" fill="#E6C70D"/>
<circle cx="130.055" cy="75.2258" r="1.48075" transform="rotate(-90 130.055 75.2258)" fill="#E6C70D"/>
<ellipse cx="134.794" cy="81.7412" rx="1.48075" ry="5.62684" transform="rotate(-90 134.794 81.7412)" fill="black"/>
<ellipse cx="140.124" cy="87.6643" rx="1.48075" ry="5.62684" transform="rotate(-90 140.124 87.6643)" fill="black"/>
<ellipse cx="140.124" cy="75.8183" rx="1.48075" ry="5.62684" transform="rotate(-90 140.124 75.8183)" fill="black"/>
<ellipse cx="100.44" cy="81.7412" rx="1.48075" ry="0.888449" transform="rotate(-90 100.44 81.7412)" fill="black"/>
<ellipse cx="61.0021" cy="75.7893" rx="1.48075" ry="0.888449" transform="rotate(-150 61.0021 75.7893)" fill="black"/>
<ellipse cx="72.8398" cy="76.6127" rx="1.48075" ry="0.888449" transform="rotate(122.604 72.8398 76.6127)" fill="black"/>
<ellipse rx="2.0192" ry="1.21152" transform="matrix(-0.538823 -0.842419 -0.842419 0.538823 88.0676 76.6127)" fill="black"/>
<ellipse cx="88.0676" cy="87.3834" rx="2.0192" ry="1.21152" transform="rotate(122.604 88.0676 87.3834)" fill="black"/>
<ellipse cx="72.8398" cy="87.2413" rx="1.48075" ry="0.888449" transform="rotate(122.604 72.8398 87.2413)" fill="black"/>
<path d="M80.5937 76.927L72.9811 76.7809L73.1432 76.1388L81.045 76.2213L80.5937 76.927Z" fill="black"/>
<path d="M80.5937 87.5556L72.9811 87.4095L73.1432 86.7675L81.045 86.85L80.5937 87.5556Z" fill="black"/>
<ellipse cx="61.0021" cy="90.5966" rx="1.48075" ry="0.888449" transform="rotate(-150 61.0021 90.5966)" fill="black"/>
<ellipse cx="61.0021" cy="72.8276" rx="1.48075" ry="0.888449" transform="rotate(-150 61.0021 72.8276)" fill="black"/>
<ellipse cx="61.0021" cy="87.6352" rx="1.48075" ry="0.888449" transform="rotate(-150 61.0021 87.6352)" fill="black"/>
<ellipse cx="104.587" cy="81.7412" rx="1.48075" ry="0.888449" transform="rotate(-90 104.587 81.7412)" fill="black"/>
<path d="M38.2489 71.3759C38.7395 71.3759 38.8412 71.3759 39.1373 71.3759C39.1373 72.1937 38.7395 72.8567 38.2489 72.8567C37.7582 72.8567 37.3604 72.1937 37.3604 71.3759C37.6566 71.3759 37.7582 71.3759 38.2489 71.3759Z" fill="#E6C70D"/>
<path d="M38.2489 92.1065C38.7395 92.1065 38.8412 92.1065 39.1373 92.1065C39.1373 91.2887 38.7395 90.6257 38.2489 90.6257C37.7582 90.6257 37.3604 91.2887 37.3604 92.1065C37.6566 92.1065 37.7582 92.1065 38.2489 92.1065Z" fill="#E6C70D"/>
<path d="M34.103 71.3759C34.5937 71.3759 34.6953 71.3759 34.9914 71.3759C34.9914 72.1937 34.5937 72.8567 34.103 72.8567C33.6123 72.8567 33.2145 72.1937 33.2145 71.3759C33.5107 71.3759 33.6123 71.3759 34.103 71.3759Z" fill="#E6C70D"/>
<path d="M34.103 92.1065C34.5937 92.1065 34.6953 92.1065 34.9914 92.1065C34.9914 91.2887 34.5937 90.6257 34.103 90.6257C33.6123 90.6257 33.2145 91.2887 33.2145 92.1065C33.5107 92.1065 33.6123 92.1065 34.103 92.1065Z" fill="#E6C70D"/>
<ellipse cx="102.513" cy="79.6682" rx="1.48075" ry="0.888449" transform="rotate(-90 102.513 79.6682)" fill="black"/>
<ellipse cx="102.513" cy="83.8142" rx="1.48075" ry="0.888449" transform="rotate(-90 102.513 83.8142)" fill="black"/>
<ellipse cx="36.1759" cy="73.4489" rx="1.48075" ry="0.888449" transform="rotate(-90 36.1759 73.4489)" fill="#E6C70D"/>
<ellipse rx="1.48075" ry="0.888449" transform="matrix(4.37114e-08 1 1 -4.37114e-08 36.1759 90.0335)" fill="#E6C70D"/>
<circle cx="25.2184" cy="81.7412" r="2.07305" transform="rotate(-90 25.2184 81.7412)" fill="black"/>
<path d="M18.9992 71.3759C18.9992 72.5208 18.071 73.449 16.9261 73.449C15.7812 73.449 14.8531 72.5208 14.8531 71.3759C15.7415 71.3759 15.8896 71.3759 16.9261 71.3759C17.9626 71.3759 17.8146 71.3759 18.9992 71.3759Z" fill="black"/>
<path d="M58.6834 71.3759C58.6834 73.6657 56.9597 75.522 54.8334 75.522C52.7071 75.522 50.9835 73.6657 50.9835 71.3759C52.6334 71.3759 52.9084 71.3759 54.8334 71.3759C56.7584 71.3759 56.4834 71.3759 58.6834 71.3759Z" fill="black"/>
<path d="M58.6834 92.1065C58.6834 89.8167 56.9597 87.9604 54.8334 87.9604C52.7071 87.9604 50.9835 89.8167 50.9835 92.1065C52.6334 92.1065 52.9084 92.1065 54.8334 92.1065C56.7584 92.1065 56.4834 92.1065 58.6834 92.1065Z" fill="black"/>
<path d="M58.091 71.3759C58.091 73.0115 56.6325 74.3374 54.8334 74.3374C53.0342 74.3374 51.5757 73.0115 51.5757 71.3759C52.9718 71.3759 53.2045 71.3759 54.8334 71.3759C56.4622 71.3759 56.2295 71.3759 58.091 71.3759Z" fill="#E6C70D"/>
<path d="M58.091 92.1065C58.091 90.4709 56.6325 89.145 54.8334 89.145C53.0342 89.145 51.5757 90.4709 51.5757 92.1065C52.9718 92.1065 53.2045 92.1065 54.8334 92.1065C56.4622 92.1065 56.2295 92.1065 58.091 92.1065Z" fill="#E6C70D"/>
<path d="M18.9992 92.1065C18.9992 90.9616 18.071 90.0334 16.9261 90.0334C15.7812 90.0334 14.8531 90.9616 14.8531 92.1065C15.7415 92.1065 15.8896 92.1065 16.9261 92.1065C17.9626 92.1065 17.8146 92.1065 18.9992 92.1065Z" fill="black"/>
<path d="M0.0457916 92.0806L11.2995 92.0806L11.5956 90.896C8.63413 91.4883 0.0457915 89.5421 0.0457916 92.0806Z" fill="black"/>
<path d="M0.0457916 71.387L11.2995 71.3869L11.5956 72.5716C8.63413 71.9793 0.0457917 73.9254 0.0457916 71.387Z" fill="black"/>
<path d="M3.75955 87.5558C3.4237 89.6674 8.4542 88.5551 10.9158 88.9467L11.3011 87.745C9.32917 87.9365 4.0954 85.4442 3.75955 87.5558Z" fill="black"/>
<path d="M3.75955 75.9117C3.4237 73.8001 8.4542 74.9124 10.9158 74.5209L11.3011 75.7226C9.32917 75.531 4.0954 78.0233 3.75955 75.9117Z" fill="black"/>
<path d="M5.80229 83.0568C4.9284 85.0082 10.075 85.2436 12.3499 86.2623L13.0347 85.2023C11.0809 84.874 6.67618 81.1054 5.80229 83.0568Z" fill="black"/>
<path d="M5.80229 80.4108C4.9284 78.4594 10.075 78.224 12.3499 77.2052L13.0347 78.2652C11.0809 78.5935 6.67618 82.3622 5.80229 80.4108Z" fill="black"/>
<rect x="7.74556" y="50.6455" width="20.7305" height="47.9762" transform="rotate(-90 7.74556 50.6455)" fill="#218628"/>
<rect x="71.714" y="50.6455" width="20.7305" height="47.9762" transform="rotate(-90 71.714 50.6455)" fill="#C40C0E"/>
<path d="M110.213 50.6455C111.102 50.5468 112.879 49.3227 112.879 47.1904C112.879 45.0582 111.102 43.8341 110.213 43.7353C111.102 43.8341 112.879 43.3602 112.879 40.2803C112.879 37.6527 111.586 36.7782 110.654 36.7619C110.494 36.7924 110.344 36.8107 110.213 36.8252C110.344 36.7817 110.494 36.7591 110.654 36.7619C111.586 36.5848 112.879 35.9977 112.879 33.3701C112.879 30.2902 111.102 30.0137 110.213 29.915L124.725 29.915L124.725 50.6455L110.213 50.6455Z" fill="#E9C715"/>
<path d="M91.852 40.2803C91.852 45.0187 98.6634 45.9071 98.6634 50.6455L130.351 50.6455L130.351 29.915L98.6634 29.915C98.6634 34.6534 91.852 35.5419 91.852 40.2803Z" fill="black"/>
<path d="M94.2213 40.2803C94.2213 45.0187 101.033 45.9071 101.033 50.6455L132.721 50.6455L132.721 29.915L101.033 29.915C101.033 34.6534 94.2213 35.5419 94.2213 40.2803Z" fill="#E6C70D"/>
<path d="M96.5904 40.2803C96.5904 45.0187 103.402 45.9071 103.402 50.6455L135.09 50.6455L135.09 29.915L103.402 29.915C103.402 34.6534 96.5904 35.5419 96.5904 40.2803Z" fill="black"/>
<path d="M98.3675 40.2803C98.3675 45.0187 105.179 45.9071 105.179 50.6455L136.867 50.6455L136.867 29.915L105.179 29.915C105.179 34.6534 98.3675 35.5419 98.3675 40.2803Z" fill="#218628"/>
<path d="M111.409 29.915L127.105 29.915L127.105 50.6455L111.409 50.6455C111.409 47.3879 108.436 46.2033 108.436 46.2033C108.436 46.2033 111.409 45.6236 111.409 40.4283C111.409 34.9804 108.436 34.6534 108.436 34.6534C108.436 34.6534 111.409 34.6534 111.409 29.915Z" fill="black"/>
<path d="M113.186 29.915L128.882 29.915L128.882 50.6455L113.186 50.6455C113.186 47.3879 110.213 46.2033 110.213 46.2033C110.213 46.2033 113.186 45.6236 113.186 40.4283C113.186 34.9804 110.213 34.6534 110.213 34.6534C110.213 34.6534 113.186 34.6534 113.186 29.915Z" fill="#E6C70D"/>
<path d="M115.544 40.2803C115.544 47.9802 122.356 42.9456 122.356 50.6455L126.798 50.6455L126.798 29.915L122.356 29.915C122.356 37.3188 115.544 32.5804 115.544 40.2803Z" fill="black"/>
<path d="M117.913 40.2803C117.913 46.4994 124.725 42.9456 124.725 50.6455L156.413 50.6455L156.413 29.915L124.725 29.915C124.725 37.9111 117.913 34.0611 117.913 40.2803Z" fill="#C40C0E"/>
<path d="M32.6223 40.2803C32.6223 54.7916 13.3725 35.838 13.3725 50.6455L-5.87719 50.6455L-5.87719 29.915L13.3725 29.915C13.3725 45.0187 32.6223 25.7689 32.6223 40.2803Z" fill="black"/>
<path d="M29.0684 40.2803C29.0684 50.6455 9.81864 32.5804 9.81865 50.6455L-9.43108 50.6455L-9.43108 29.915L9.81864 29.915C9.81865 48.2763 29.0684 29.915 29.0684 40.2803Z" fill="#C40C0E"/>
<path d="M51.2798 38.7995L41.803 50.6455L74.0833 50.6455C74.4782 49.5596 76.3341 48.5502 79.414 48.3133C82.494 48.0764 83.264 46.5734 83.264 45.685C83.264 44.7965 82.494 43.0567 79.414 43.0567C76.3341 43.0567 74.3795 42.0572 74.3795 40.4283C74.3795 38.7995 76.3341 37.8 79.414 37.8C82.494 37.8 83.264 35.875 83.264 35.1717C83.264 34.4683 83.6786 32.5434 79.414 32.5434C75.1495 32.5434 73.9846 31.1983 74.0833 29.915L44.1722 29.915L47.4296 34.2832L40.3813 42.9456L41.8028 44.7225L49.8583 37.0226L51.2798 38.7995Z" fill="black"/>
<path d="M53.3526 41.1687L45.6527 50.6455L71.1216 50.6455C71.5165 49.5596 73.3724 47.6248 76.4523 47.3879C79.5323 47.1509 80.3023 46.5734 80.3023 45.685C80.3023 44.7965 79.5323 43.8341 76.4523 43.8341C73.3724 43.8341 71.4178 42.0572 71.4178 40.4283C71.4178 38.7995 73.3724 36.7265 76.4523 36.7265C79.5323 36.7265 80.3023 35.875 80.3023 35.1717C80.3023 34.4683 80.7169 33.1727 76.4523 33.1727C72.1878 33.1727 71.0229 31.1983 71.1216 29.915L45.6527 29.915L53.3526 39.3918C57.5974 38.5034 66.0871 37.3188 66.0871 40.2803C66.0871 43.1332 57.4 42.3533 53.3526 41.1687Z" fill="#E6C70D"/>
<circle cx="122.948" cy="40.2802" r="2.66535" transform="rotate(-90 122.948 40.2802)" fill="black"/>
<circle cx="130.055" cy="46.2033" r="1.48075" transform="rotate(-90 130.055 46.2033)" fill="#E6C70D"/>
<circle cx="130.055" cy="33.7651" r="1.48075" transform="rotate(-90 130.055 33.7651)" fill="#E6C70D"/>
<ellipse cx="134.794" cy="40.2802" rx="1.48075" ry="5.62684" transform="rotate(-90 134.794 40.2802)" fill="black"/>
<ellipse cx="140.124" cy="46.2033" rx="1.48075" ry="5.62684" transform="rotate(-90 140.124 46.2033)" fill="black"/>
<ellipse cx="140.124" cy="34.3574" rx="1.48075" ry="5.62684" transform="rotate(-90 140.124 34.3574)" fill="black"/>
<ellipse cx="100.44" cy="40.2802" rx="1.48075" ry="0.888449" transform="rotate(-90 100.44 40.2802)" fill="black"/>
<ellipse cx="61.0021" cy="34.3283" rx="1.48075" ry="0.888449" transform="rotate(-150 61.0021 34.3283)" fill="black"/>
<ellipse cx="72.8398" cy="35.1517" rx="1.48075" ry="0.888449" transform="rotate(122.604 72.8398 35.1517)" fill="black"/>
<ellipse rx="2.0192" ry="1.21152" transform="matrix(-0.538823 -0.842419 -0.842419 0.538823 88.0676 35.1517)" fill="black"/>
<ellipse cx="88.0676" cy="45.9225" rx="2.0192" ry="1.21152" transform="rotate(122.604 88.0676 45.9225)" fill="black"/>
<ellipse cx="72.8398" cy="45.7804" rx="1.48075" ry="0.888449" transform="rotate(122.604 72.8398 45.7804)" fill="black"/>
<path d="M80.5937 35.466L72.9811 35.3199L73.1432 34.6779L81.045 34.7604L80.5937 35.466Z" fill="black"/>
<path d="M80.5937 46.0947L72.9811 45.9486L73.1432 45.3065L81.045 45.389L80.5937 46.0947Z" fill="black"/>
<ellipse cx="61.0021" cy="49.1357" rx="1.48075" ry="0.888449" transform="rotate(-150 61.0021 49.1357)" fill="black"/>
<ellipse cx="61.0021" cy="31.3667" rx="1.48075" ry="0.888449" transform="rotate(-150 61.0021 31.3667)" fill="black"/>
<ellipse cx="61.0021" cy="46.1743" rx="1.48075" ry="0.888449" transform="rotate(-150 61.0021 46.1743)" fill="black"/>
<ellipse cx="104.587" cy="40.2802" rx="1.48075" ry="0.888449" transform="rotate(-90 104.587 40.2802)" fill="black"/>
<path d="M38.2488 29.915C38.7395 29.915 38.8411 29.915 39.1373 29.915C39.1373 30.7328 38.7395 31.3958 38.2488 31.3958C37.7582 31.3958 37.3604 30.7328 37.3604 29.915C37.6565 29.915 37.7582 29.915 38.2488 29.915Z" fill="#E6C70D"/>
<path d="M38.2488 50.6455C38.7395 50.6455 38.8411 50.6455 39.1373 50.6455C39.1373 49.8277 38.7395 49.1648 38.2488 49.1648C37.7582 49.1648 37.3604 49.8277 37.3604 50.6455C37.6565 50.6455 37.7582 50.6455 38.2488 50.6455Z" fill="#E6C70D"/>
<path d="M34.103 29.915C34.5937 29.915 34.6953 29.915 34.9914 29.915C34.9914 30.7328 34.5937 31.3958 34.103 31.3958C33.6123 31.3958 33.2145 30.7328 33.2145 29.915C33.5107 29.915 33.6123 29.915 34.103 29.915Z" fill="#E6C70D"/>
<path d="M34.103 50.6455C34.5937 50.6455 34.6953 50.6455 34.9914 50.6455C34.9914 49.8277 34.5937 49.1648 34.103 49.1648C33.6123 49.1648 33.2145 49.8277 33.2145 50.6455C33.5107 50.6455 33.6123 50.6455 34.103 50.6455Z" fill="#E6C70D"/>
<ellipse cx="102.513" cy="38.2072" rx="1.48075" ry="0.888449" transform="rotate(-90 102.513 38.2072)" fill="black"/>
<ellipse cx="102.513" cy="42.3532" rx="1.48075" ry="0.888449" transform="rotate(-90 102.513 42.3532)" fill="black"/>
<ellipse cx="36.1759" cy="31.988" rx="1.48075" ry="0.888449" transform="rotate(-90 36.1759 31.988)" fill="#E6C70D"/>
<ellipse rx="1.48075" ry="0.888449" transform="matrix(4.37114e-08 1 1 -4.37114e-08 36.1759 48.5725)" fill="#E6C70D"/>
<circle cx="25.2184" cy="40.2802" r="2.07305" transform="rotate(-90 25.2184 40.2802)" fill="black"/>
<path d="M18.9992 29.915C18.9992 31.0599 18.071 31.988 16.9261 31.988C15.7812 31.988 14.8531 31.0599 14.8531 29.915C15.7415 29.915 15.8896 29.915 16.9261 29.915C17.9626 29.915 17.8146 29.915 18.9992 29.915Z" fill="black"/>
<path d="M58.6833 29.9149C58.6833 32.2048 56.9597 34.061 54.8334 34.061C52.7071 34.061 50.9834 32.2048 50.9834 29.9149C52.6334 29.9149 52.9084 29.9149 54.8334 29.9149C56.7584 29.9149 56.4834 29.9149 58.6833 29.9149Z" fill="black"/>
<path d="M58.6833 50.6456C58.6833 48.3558 56.9597 46.4995 54.8334 46.4995C52.7071 46.4995 50.9834 48.3558 50.9834 50.6456C52.6334 50.6456 52.9084 50.6456 54.8334 50.6456C56.7584 50.6456 56.4834 50.6456 58.6833 50.6456Z" fill="black"/>
<path d="M58.091 29.915C58.091 31.5506 56.6325 32.8765 54.8334 32.8765C53.0342 32.8765 51.5757 31.5506 51.5757 29.915C52.9718 29.915 53.2045 29.915 54.8334 29.915C56.4622 29.915 56.2295 29.915 58.091 29.915Z" fill="#E6C70D"/>
<path d="M58.091 50.6456C58.091 49.01 56.6325 47.6841 54.8334 47.6841C53.0342 47.6841 51.5757 49.01 51.5757 50.6456C52.9718 50.6456 53.2045 50.6456 54.8334 50.6456C56.4622 50.6456 56.2295 50.6456 58.091 50.6456Z" fill="#E6C70D"/>
<path d="M18.9992 50.6456C18.9992 49.5006 18.071 48.5725 16.9261 48.5725C15.7812 48.5725 14.8531 49.5006 14.8531 50.6456C15.7415 50.6456 15.8896 50.6456 16.9261 50.6456C17.9626 50.6456 17.8146 50.6456 18.9992 50.6456Z" fill="black"/>
<path d="M0.0457916 50.6196L11.2995 50.6196L11.5956 49.435C8.63413 50.0273 0.0457915 48.0812 0.0457916 50.6196Z" fill="black"/>
<path d="M0.0457916 29.926L11.2995 29.926L11.5956 31.1106C8.63413 30.5183 0.0457917 32.4645 0.0457916 29.926Z" fill="black"/>
<path d="M3.75953 46.0949C3.42368 48.2065 8.45419 47.0942 10.9158 47.4857L11.3011 46.284C9.32916 46.4756 4.09539 43.9833 3.75953 46.0949Z" fill="black"/>
<path d="M3.75953 34.4508C3.42368 32.3392 8.45419 33.4515 10.9158 33.0599L11.3011 34.2616C9.32916 34.0701 4.09539 36.5624 3.75953 34.4508Z" fill="black"/>
<path d="M5.80228 41.5961C4.92839 43.5475 10.075 43.7829 12.3499 44.8016L13.0346 43.7416C11.0808 43.4133 6.67617 39.6447 5.80228 41.5961Z" fill="black"/>
<path d="M5.80228 38.9498C4.92839 36.9984 10.075 36.763 12.3499 35.7443L13.0346 36.8043C11.0808 37.1326 6.67617 40.9012 5.80228 38.9498Z" fill="black"/>
<rect x="7.74556" y="9.18457" width="20.7305" height="47.9762" transform="rotate(-90 7.74556 9.18457)" fill="#218628"/>
<rect x="71.714" y="9.18457" width="20.7305" height="47.9762" transform="rotate(-90 71.714 9.18457)" fill="#C40C0E"/>
<path d="M110.213 9.18457C111.102 9.08585 112.879 7.86177 112.879 5.72949C112.879 3.59721 111.102 2.37313 110.213 2.27441C111.102 2.37313 112.879 1.89929 112.879 -1.18067C112.879 -3.80826 111.586 -4.68275 110.654 -4.69907C110.494 -4.66858 110.344 -4.65025 110.213 -4.63575C110.344 -4.67925 110.494 -4.70187 110.654 -4.69907C111.586 -4.87614 112.879 -5.46323 112.879 -8.09083C112.879 -11.1708 111.102 -11.4472 110.213 -11.5459L124.725 -11.5459L124.725 9.18457L110.213 9.18457Z" fill="#E9C715"/>
<path d="M91.852 -1.18067C91.852 3.55773 98.6634 4.44617 98.6634 9.18457L130.351 9.18457L130.351 -11.5459L98.6634 -11.5459C98.6634 -6.80751 91.852 -5.91906 91.852 -1.18067Z" fill="black"/>
<path d="M94.2213 -1.18067C94.2213 3.55773 101.033 4.44617 101.033 9.18457L132.721 9.18457L132.721 -11.5459L101.033 -11.5459C101.033 -6.80751 94.2213 -5.91906 94.2213 -1.18067Z" fill="#E6C70D"/>
<path d="M96.5904 -1.18067C96.5904 3.55773 103.402 4.44617 103.402 9.18457L135.09 9.18457L135.09 -11.5459L103.402 -11.5459C103.402 -6.80751 96.5904 -5.91906 96.5904 -1.18067Z" fill="black"/>
<path d="M98.3675 -1.18067C98.3675 3.55773 105.179 4.44617 105.179 9.18457L136.867 9.18457L136.867 -11.5459L105.179 -11.5459C105.179 -6.80751 98.3675 -5.91906 98.3675 -1.18067Z" fill="#218628"/>
<path d="M111.409 -11.5459L127.105 -11.5459L127.105 9.18457L111.409 9.18457C111.409 5.92692 108.436 4.74233 108.436 4.74233C108.436 4.74233 111.409 4.16266 111.409 -1.03259C111.409 -6.48053 108.436 -6.80751 108.436 -6.80751C108.436 -6.80751 111.409 -6.80751 111.409 -11.5459Z" fill="black"/>
<path d="M113.186 -11.5459L128.882 -11.5459L128.882 9.18457L113.186 9.18457C113.186 5.92692 110.213 4.74233 110.213 4.74233C110.213 4.74233 113.186 4.16266 113.186 -1.03259C113.186 -6.48053 110.213 -6.80751 110.213 -6.80751C110.213 -6.80751 113.186 -6.80751 113.186 -11.5459Z" fill="#E6C70D"/>
<path d="M115.544 -1.18067C115.544 6.51922 122.356 1.48468 122.356 9.18457L126.798 9.18457L126.798 -11.5459L122.356 -11.5459C122.356 -4.14217 115.544 -8.88056 115.544 -1.18067Z" fill="black"/>
<path d="M117.913 -1.18067C117.913 5.03847 124.725 1.48468 124.725 9.18457L156.413 9.18457L156.413 -11.5459L124.725 -11.5459C124.725 -3.54987 117.913 -7.39981 117.913 -1.18067Z" fill="#C40C0E"/>
<path d="M32.6223 -1.18067C32.6223 13.3307 13.3725 -5.62291 13.3725 9.18457L-5.87719 9.18457L-5.87719 -11.5459L13.3725 -11.5459C13.3725 3.55773 32.6223 -15.692 32.6223 -1.18067Z" fill="black"/>
<path d="M29.0684 -1.18067C29.0684 9.18457 9.81864 -8.88056 9.81865 9.18457L-9.43108 9.18457L-9.43108 -11.5459L9.81864 -11.5459C9.81865 6.81537 29.0684 -11.5459 29.0684 -1.18067Z" fill="#C40C0E"/>
<path d="M51.2798 -2.66142L41.803 9.18457L74.0833 9.18457C74.4782 8.09869 76.3341 7.08931 79.414 6.85239C82.494 6.61547 83.264 5.11251 83.264 4.22406C83.264 3.33561 82.494 1.59573 79.414 1.59573C76.3341 1.59573 74.3795 0.596227 74.3795 -1.0326C74.3795 -2.66142 76.3341 -3.66092 79.414 -3.66092C82.494 -3.66092 83.264 -5.5859 83.264 -6.28925C83.264 -6.99261 83.6786 -8.91758 79.414 -8.91758C75.1495 -8.91758 73.9846 -10.2626 74.0833 -11.5459L44.1722 -11.5459L47.4296 -7.1777L40.3813 1.48468L41.8028 3.26158L49.8583 -4.43832L51.2798 -2.66142Z" fill="black"/>
<path d="M53.3526 -0.29222L45.6527 9.18457L71.1216 9.18457C71.5165 8.09869 73.3724 6.16384 76.4523 5.92692C79.5323 5.69 80.3023 5.11251 80.3023 4.22406C80.3023 3.33561 79.5323 2.37313 76.4523 2.37313C73.3724 2.37313 71.4178 0.596227 71.4178 -1.0326C71.4178 -2.66142 73.3724 -4.73447 76.4523 -4.73447C79.5323 -4.73447 80.3023 -5.5859 80.3023 -6.28925C80.3023 -6.99261 80.7169 -8.28826 76.4523 -8.28826C72.1878 -8.28826 71.0229 -10.2626 71.1216 -11.5459L45.6527 -11.5459L53.3526 -2.06912C57.5974 -2.95757 66.0871 -4.14217 66.0871 -1.18067C66.0871 1.67222 57.4 0.892378 53.3526 -0.29222Z" fill="#E6C70D"/>
<circle cx="130.055" cy="4.7424" r="1.48075" transform="rotate(-90 130.055 4.7424)" fill="#E6C70D"/>
<ellipse cx="140.124" cy="4.7424" rx="1.48075" ry="5.62684" transform="rotate(-90 140.124 4.7424)" fill="black"/>
<ellipse cx="88.0676" cy="4.46155" rx="2.0192" ry="1.21152" transform="rotate(122.604 88.0676 4.46155)" fill="black"/>
<ellipse cx="72.8398" cy="4.31948" rx="1.48075" ry="0.888449" transform="rotate(122.604 72.8398 4.31948)" fill="black"/>
<path d="M80.5937 4.63375L72.9811 4.48767L73.1432 3.84561L81.045 3.92811L80.5937 4.63375Z" fill="black"/>
<ellipse cx="61.0021" cy="7.67478" rx="1.48075" ry="0.888449" transform="rotate(-150 61.0021 7.67478)" fill="black"/>
<ellipse cx="61.0021" cy="4.71335" rx="1.48075" ry="0.888449" transform="rotate(-150 61.0021 4.71335)" fill="black"/>
<path d="M38.2488 9.18461C38.7395 9.18461 38.8411 9.18461 39.1373 9.18461C39.1373 8.36681 38.7395 7.70386 38.2488 7.70386C37.7582 7.70386 37.3604 8.36681 37.3604 9.18461C37.6565 9.18461 37.7582 9.18461 38.2488 9.18461Z" fill="#E6C70D"/>
<path d="M34.103 9.18461C34.5937 9.18461 34.6953 9.18461 34.9914 9.18461C34.9914 8.36681 34.5937 7.70386 34.103 7.70386C33.6123 7.70386 33.2145 8.36681 33.2145 9.18461C33.5107 9.18461 33.6123 9.18461 34.103 9.18461Z" fill="#E6C70D"/>
<ellipse rx="1.48075" ry="0.888449" transform="matrix(4.37114e-08 1 1 -4.37114e-08 36.1759 7.11161)" fill="#E6C70D"/>
<path d="M58.6833 9.18467C58.6833 6.89484 56.9597 5.03857 54.8334 5.03857C52.7071 5.03857 50.9834 6.89484 50.9834 9.18467C52.6334 9.18467 52.9084 9.18467 54.8334 9.18467C56.7584 9.18467 56.4834 9.18467 58.6833 9.18467Z" fill="black"/>
<path d="M58.091 9.18464C58.091 7.54905 56.6325 6.22314 54.8334 6.22314C53.0342 6.22314 51.5757 7.54905 51.5757 9.18464C52.9718 9.18464 53.2045 9.18464 54.8334 9.18464C56.4622 9.18464 56.2295 9.18464 58.091 9.18464Z" fill="#E6C70D"/>
<path d="M18.9992 9.18462C18.9992 8.03971 18.071 7.11157 16.9261 7.11157C15.7812 7.11157 14.8531 8.03971 14.8531 9.18462C15.7415 9.18462 15.8896 9.18462 16.9261 9.18462C17.9626 9.18462 17.8146 9.18462 18.9992 9.18462Z" fill="black"/>
<path d="M0.0457916 9.15869L11.2995 9.15871L11.5956 7.97409C8.63413 8.56639 0.0457915 6.62027 0.0457916 9.15869Z" fill="black"/>
<path d="M3.75953 4.63394C3.42368 6.74554 8.45419 5.63326 10.9158 6.02478L11.3011 4.82308C9.32916 5.01462 4.09539 2.52233 3.75953 4.63394Z" fill="black"/>
<path d="M5.80228 0.134889C4.92839 2.0863 10.075 2.3217 12.3499 3.34043L13.0346 2.28043C11.0808 1.95212 6.67617 -1.81652 5.80228 0.134889Z" fill="black"/>
</g>
</svg>
