<svg width="70" height="71" viewBox="0 0 70 71" fill="none" xmlns="http://www.w3.org/2000/svg">
<path d="M69.1191 35.9243C69.1191 16.5944 53.673 0.92487 34.6191 0.925542C15.5653 0.926213 0.119143 16.5968 0.119142 35.9268C0.119141 55.2567 15.5653 70.9262 34.6191 70.9255C53.673 70.9249 69.1191 55.2543 69.1191 35.9243Z" fill="url(#paint0_radial)"/>
<mask id="mask0" mask-type="alpha" maskUnits="userSpaceOnUse" x="0" y="0" width="70" height="71">
<path d="M69.1191 35.9233C69.1191 16.5934 53.673 0.923894 34.6191 0.924565C15.5653 0.925237 0.119143 16.5958 0.119142 35.9258C0.119141 55.2557 15.5653 70.9252 34.6191 70.9246C53.673 70.9239 69.1191 55.2533 69.1191 35.9233Z" fill="url(#paint1_radial)"/>
</mask>
<g mask="url(#mask0)">
<path d="M24.3318 51.0674C21.4786 49.9853 21.8353 48.1818 22.9052 43.8533C23.8414 40.066 22.4567 36.6929 22.2153 35.5463C21.5865 33.0182 24.9098 30.5324 26.65 29.6055C29.3844 27.802 35.5663 23.9785 38.4196 23.1128C41.9861 22.0307 43.0561 25.9985 43.591 26.5395C44.126 27.0806 47.1576 35.5571 47.8709 37.3607C48.5842 39.1642 49.1191 43.673 49.1191 46.9193C49.1191 50.1657 45.0176 51.7888 41.4511 52.5103C37.8846 53.2317 33.6048 52.871 31.4649 52.5102C29.325 52.1495 27.1851 52.1495 24.3318 51.0674Z" fill="url(#paint2_radial)"/>
<path d="M52.0265 45.6017C52.5716 43.9714 50.9362 37.9937 49.1191 34.3709C49.4826 30.7481 52.3899 31.1103 57.6594 30.9292C62.9289 30.7481 65.2911 40.7109 65.1094 43.7903C64.9641 46.2538 61.657 50.3717 60.0216 52.1228C58.1426 54.1844 56.9905 55.0571 54.7521 55.9268C51.3703 55.9021 50.077 55.2884 50.3911 51.5794C50.7545 50.1302 51.5904 46.9059 52.0265 45.6017Z" fill="url(#paint3_radial)"/>
<path d="M43.9847 20.4827C43.1036 18.5524 42.3988 18.9034 40.2843 17.8505C39.4385 13.6391 42.0464 12.8202 43.4561 12.9372C44.9832 13.5221 48.2137 14.8674 48.9185 15.5693C49.7996 16.4467 50.5044 18.9034 53.6762 20.3072C56.8479 21.711 55.7907 23.4658 56.8479 26.2734C57.9052 29.081 55.6145 27.5017 54.381 27.3263C53.1476 27.1508 50.152 27.6772 49.271 27.8527C48.3899 28.0282 46.804 26.7998 46.2754 26.2734C45.7468 25.747 44.8657 22.4129 43.9847 20.4827Z" fill="url(#paint4_radial)"/>
<path d="M28.6161 23.9442C31.272 22.3838 36.7399 20.4612 38.4175 19.2299C40.5154 16.5233 37.3203 15.5137 36.4835 13.7942C35.6466 12.0748 33.7941 13.5316 32.589 13.6869C31.3838 13.8421 28.9735 14.1526 25.7971 11.7195C22.6206 9.28629 23.3533 10.207 19.5296 9.07542C15.7058 7.9438 16.033 13.5865 14.6343 15.3909C13.2357 17.1954 14.8574 20.2349 17.4239 21.1225C19.9904 22.01 18.0338 22.6681 18.3983 25.4636C18.6898 27.7 19.5884 29.3709 20.0013 29.9268C21.3577 29.8874 25.9603 25.5045 28.6161 23.9442Z" fill="url(#paint5_radial)"/>
<path d="M28.6821 11.079C27.2655 10.3449 25.4947 9.61079 23.9011 8.32609C21.2096 7.29834 20.5368 5.20602 21.5991 3.7379C22.6615 2.26977 25.176 1.27862 26.026 0.98498C27.0884 0.617924 30.0986 -0.66677 31.6923 0.250869C33.286 1.16851 33.9943 2.63673 34.5255 3.18731C35.0567 3.7379 34.8796 4.65554 35.2338 5.7567C35.5879 6.85787 36.1191 7.77551 36.1191 8.87668C36.1191 9.97784 33.8172 10.5284 32.5777 11.4461C31.3382 12.3637 30.0986 11.8131 28.6821 11.079Z" fill="url(#paint6_radial)"/>
<path d="M52.542 16.3366C50.7634 14.5029 51.4749 13.036 51.1191 10.8356C52.0084 5.51793 54.8541 6.98487 55.3877 7.53497C55.9212 8.08507 58.4112 9.55201 59.6562 10.8356C60.9012 12.1191 61.2569 13.5861 61.9683 14.3196C62.6797 15.053 63.569 18.1703 62.8576 18.537C62.1462 18.9037 58.7669 18.7204 57.5219 18.9037C56.2769 19.0871 54.3205 18.1703 52.542 16.3366Z" fill="url(#paint7_radial)"/>
<path d="M50.6114 7.93707C51.6792 5.34754 50.9674 6.08741 49.3658 4.42271C47.8022 3.08835 39.2222 -0.571322 37.6206 -0.0164225C36.019 0.538477 36.019 2.01821 36.197 2.20318C36.3394 2.35115 36.9682 6.21074 37.2648 8.12204C37.6207 9.60177 38.4039 11.8952 40.1123 12.1911C42.2477 12.5611 42.9594 10.3416 46.6964 12.0063C50.4335 13.671 49.8996 12.7462 50.0776 11.8214C50.2555 10.8965 49.5437 10.5266 50.6114 7.93707Z" fill="url(#paint8_radial)"/>
<path d="M70.0563 26.1163C70.0563 25.0477 67.0574 21.3075 66.1754 20.7732C62.4709 18.814 60.5304 20.7733 59.8247 21.4857C59.1191 22.1981 58.9428 22.3762 59.2955 24.1572C59.6483 25.9383 61.5888 27.185 62.2944 28.2536C63 29.3222 64.7642 33.2404 65.2934 34.131C65.8226 35.0215 70.2327 35.1996 70.9384 34.4872C71.644 33.7748 70.0563 27.1849 70.0563 26.1163Z" fill="url(#paint9_radial)"/>
<path d="M71.8462 38.638C71.1657 37.5503 69.3781 38.2173 67.4363 37.9886C65.6851 37.2298 66.5827 43.673 65.8294 45.4368C65.0761 47.2006 64.1139 50.2072 63.5603 51.0845C63.1174 51.7864 63.0912 53.2718 63.1335 53.9268C64.1407 53.7746 66.3385 53.2252 67.0718 52.2456C67.9884 51.0211 69.2771 49.0928 70.5749 46.8082C71.8727 44.5236 72.5266 39.7256 71.8462 38.638Z" fill="url(#paint10_radial)"/>
<path d="M32.7718 63.0359C35.2983 63.3791 35.6009 64.9877 37.2005 66.5112C39.658 71.2863 36.4911 71.9012 35.7332 71.7982C34.9752 71.6953 32.0948 72.0878 30.3263 71.8475C28.5578 71.6073 27.3959 70.6657 26.3853 70.5284C25.3747 70.3912 22.7983 68.4737 23.1523 67.738C23.5063 67.0024 26.3367 65.0356 27.2298 64.1119C28.1229 63.1882 30.2454 62.6927 32.7718 63.0359Z" fill="url(#paint11_radial)"/>
<path d="M39.4089 68.965C40.0865 71.6336 40.2226 70.6204 42.5124 70.9252C44.5747 70.9971 53.7089 68.5479 54.6763 67.1296C55.6437 65.7113 54.7621 64.5626 54.5076 64.5287C54.3041 64.5016 51.4948 61.8931 50.1157 60.5922C48.9456 59.6628 46.9444 58.3653 45.3835 59.1889C43.4324 60.2184 44.178 62.3802 40.1574 63.392C36.1368 64.4039 37.1205 64.7927 37.5273 65.6203C37.9341 66.448 38.7314 66.2963 39.4089 68.965Z" fill="url(#paint12_radial)"/>
<path d="M12.9552 66.0857C13.6089 66.9195 18.3207 68.0327 19.3604 67.9187C23.5531 67.2174 23.9231 64.5204 24.0576 63.5398C24.1921 62.5591 24.2257 62.3141 22.8511 61.1366C21.4764 59.9592 19.1454 60.1546 17.9214 59.7455C16.6973 59.3365 12.8746 57.3411 11.9021 56.9648C10.9297 56.5885 7.25618 59.1043 7.12165 60.085C6.98712 61.0656 12.3015 65.2519 12.9552 66.0857Z" fill="url(#paint13_radial)"/>
<path d="M4.65915 57.8483C5.89089 58.3078 6.93942 56.6433 8.66999 55.612C10.5736 55.132 5.8401 50.4448 5.36167 48.5352C4.88325 46.6256 3.80424 43.5723 3.71264 42.5103C3.63935 41.6607 2.7388 40.4339 2.29769 39.9268C1.56813 40.6824 0.111047 42.5082 0.119174 43.7663C0.129333 45.3389 0.271818 47.7182 0.628073 50.3937C0.984328 53.0692 3.42741 57.3887 4.65915 57.8483Z" fill="url(#paint14_radial)"/>
<path d="M21.1191 39.2298C21.1191 41.7078 20.94 43.3007 20.2236 44.7167C20.0445 50.9114 16.1041 48.7876 15.9251 47.5486C15.7461 46.3095 15.3877 46.3097 14.6712 44.8938C13.9548 43.4778 12.7012 43.6547 10.9102 42.5927C9.11914 41.5308 9.11914 39.4068 9.11914 37.9909C9.11914 36.5749 9.29824 33.92 10.1938 33.3891C11.0893 32.8581 13.2385 30.3802 13.955 29.3182C14.6714 28.2562 17.5371 29.6722 18.0744 29.8492C18.6117 30.0262 19.6863 32.5041 19.6863 33.2121C19.6863 33.92 21.1191 36.7519 21.1191 39.2298Z" fill="url(#paint15_radial)"/>
<path d="M9.72236 25.4768C9.50246 26.361 7.29425 28.7478 5.8346 30.1007C3.68256 31.4148 3.00891 31.0186 2.3727 29.9073C1.73649 28.796 2.44759 28.4771 2.86867 27.0662C3.28976 25.6554 3.1308 22.0606 3.38816 20.4613C3.64552 18.862 6.65843 14.3685 9.32039 13.2621C11.9823 12.1557 11.7063 14.1126 11.3413 14.4508C10.9764 14.789 8.62322 16.6298 11.6266 18.9492C14.63 21.2685 14.4101 22.1527 15.0088 23.9791C15.6076 25.8055 13.6193 27.3081 12.6369 26.1775C11.6545 25.0468 9.94226 24.5926 9.72236 25.4768Z" fill="url(#paint16_radial)"/>
<path d="M6.54985 31.0777C8.33108 30.3785 9.04357 28.6303 9.75606 27.9311C11.8495 25.4403 13.6746 28.2808 12.9621 28.9801C12.2497 29.6793 12.0716 30.2037 10.4684 31.4275C8.86522 32.6513 9.04345 32.826 8.68721 34.5741C8.33096 36.3223 6.90598 35.2734 6.37161 34.7489C5.83724 34.2245 4.23425 36.1474 2.98739 36.6718C1.74053 37.1962 2.27491 37.0214 1.3843 35.0985C0.671809 33.5601 1.56242 32.3597 2.09679 31.9518C2.9874 31.8935 5.12487 31.6372 6.54985 31.0777Z" fill="url(#paint17_radial)"/>
<path d="M9.70651 42.9777C8.10589 42.0659 7.92805 40.7894 7.7502 39.1482C7.03879 35.5012 2.77052 36.9599 4.54916 39.148C6.32781 41.3361 5.97193 45.7128 6.32763 46.8069C6.68332 47.901 7.39471 48.2657 8.99532 50.2716C10.5959 52.2775 9.70671 53.554 11.1295 55.0129C12.5522 56.4717 13.975 56.107 15.9313 54.4658C17.8876 52.8246 16.9982 51.1836 16.2868 50.8189C15.5755 50.4542 14.5084 47.9012 13.9748 46.9894C13.4413 46.0776 11.3071 43.8894 9.70651 42.9777Z" fill="url(#paint18_radial)"/>
<path d="M19.8526 58.7543C15.5938 58.5773 17.2603 55.2151 18.5565 53.6225C19.7574 51.5848 20.5932 51.676 21.3339 52.3839C22.0745 53.0917 23.3707 53.6226 24.852 52.9148C26.3334 52.2069 29.296 53.6226 29.1108 54.5074C28.9257 55.3922 28.9257 60.347 28.185 61.4088C27.4444 62.4705 24.852 61.7627 24.2965 60.524C23.741 59.2853 24.1115 58.9313 19.8526 58.7543Z" fill="url(#paint19_radial)"/>
<path d="M30.1395 60.2499C30.1395 59.9036 29.9567 56.6143 30.6878 54.883C32.6984 52.9787 32.8813 54.5367 33.7953 54.3636C34.7092 54.1905 36.3543 55.0561 38.365 55.2292C40.3756 55.4024 40.5584 55.9217 41.6552 56.9605C42.7519 57.9992 41.6552 60.423 40.924 61.1155C40.1929 61.808 38.7305 62.5005 37.9994 62.8467C37.4145 63.1237 35.9278 62.6159 35.2576 62.3273C34.5873 62.1542 33.0641 61.7734 32.3329 61.6349C31.419 61.4618 30.1395 60.5961 30.1395 60.2499Z" fill="url(#paint20_radial)"/>
<path d="M43.575 57.5159C43.9055 56.7589 42.7488 55.0557 43.2445 54.1095C45.2273 52.5957 48.0365 52.4063 48.0365 54.2987C48.0365 56.1911 48.367 58.0835 47.706 57.7051C47.0451 57.3266 45.7231 58.4621 44.7317 58.8406C43.7402 59.2191 43.2445 58.2729 43.575 57.5159Z" fill="url(#paint21_radial)"/>
<path d="M55.2762 63.3711C55.1008 63.1967 53.1715 60.9293 52.1191 60.2317C52.1775 59.7085 52.5048 58.5924 53.3467 58.3133C54.399 57.9645 55.8022 57.9645 57.3807 57.4413C58.9592 56.918 57.9069 56.9179 60.0116 56.2203C62.1163 55.5226 62.4671 56.2203 62.9933 56.7435C63.5194 57.2668 62.2916 59.5342 61.2393 60.5807C60.1869 61.6271 58.7842 62.6732 57.2056 63.5453C55.6271 64.4173 55.4516 63.5455 55.2762 63.3711Z" fill="url(#paint22_radial)"/>
</g>
<defs>
<radialGradient id="paint0_radial" cx="0" cy="0" r="1" gradientUnits="userSpaceOnUse" gradientTransform="translate(34.6191 35.9255) scale(34.5 35)">
<stop stop-color="#FF0000"/>
<stop offset="1" stop-color="#B10000"/>
</radialGradient>
<radialGradient id="paint1_radial" cx="0" cy="0" r="1" gradientUnits="userSpaceOnUse" gradientTransform="translate(34.6191 35.9246) scale(34.5 35)">
<stop stop-color="#D3E21F"/>
<stop offset="1" stop-color="#568A00"/>
</radialGradient>
<radialGradient id="paint2_radial" cx="0" cy="0" r="1" gradientUnits="userSpaceOnUse" gradientTransform="translate(35.6191 37.9268) rotate(90) scale(15 13.5)">
<stop offset="0.364583" stop-color="#202020"/>
<stop offset="1" stop-color="#550000"/>
</radialGradient>
<radialGradient id="paint3_radial" cx="0" cy="0" r="1" gradientUnits="userSpaceOnUse" gradientTransform="translate(57.1191 43.4268) rotate(90) scale(12.5 8)">
<stop offset="0.364583" stop-color="#202020"/>
<stop offset="1" stop-color="#550000"/>
</radialGradient>
<radialGradient id="paint4_radial" cx="0" cy="0" r="1" gradientUnits="userSpaceOnUse" gradientTransform="translate(48.6191 20.4268) rotate(90) scale(7.5 8.5)">
<stop offset="0.364583" stop-color="#202020"/>
<stop offset="1" stop-color="#550000"/>
</radialGradient>
<radialGradient id="paint5_radial" cx="0" cy="0" r="1" gradientUnits="userSpaceOnUse" gradientTransform="translate(26.6191 19.4268) rotate(90) scale(10.5 12.5)">
<stop offset="0.364583" stop-color="#202020"/>
<stop offset="1" stop-color="#550000"/>
</radialGradient>
<radialGradient id="paint6_radial" cx="0" cy="0" r="1" gradientUnits="userSpaceOnUse" gradientTransform="translate(28.6191 5.92676) rotate(90) scale(6 7.5)">
<stop offset="0.364583" stop-color="#202020"/>
<stop offset="1" stop-color="#550000"/>
</radialGradient>
<radialGradient id="paint7_radial" cx="0" cy="0" r="1" gradientUnits="userSpaceOnUse" gradientTransform="translate(57.1191 12.9268) rotate(90) scale(6)">
<stop offset="0.364583" stop-color="#202020"/>
<stop offset="1" stop-color="#550000"/>
</radialGradient>
<radialGradient id="paint8_radial" cx="0" cy="0" r="1" gradientUnits="userSpaceOnUse" gradientTransform="translate(43.6191 6.42676) rotate(90) scale(6.5 7.5)">
<stop offset="0.364583" stop-color="#202020"/>
<stop offset="1" stop-color="#550000"/>
</radialGradient>
<radialGradient id="paint9_radial" cx="0" cy="0" r="1" gradientUnits="userSpaceOnUse" gradientTransform="translate(65.1191 27.4268) rotate(90) scale(7.5 6)">
<stop offset="0.364583" stop-color="#202020"/>
<stop offset="1" stop-color="#550000"/>
</radialGradient>
<radialGradient id="paint10_radial" cx="0" cy="0" r="1" gradientUnits="userSpaceOnUse" gradientTransform="translate(67.6191 45.9268) rotate(90) scale(8 4.5)">
<stop offset="0.364583" stop-color="#202020"/>
<stop offset="1" stop-color="#550000"/>
</radialGradient>
<radialGradient id="paint11_radial" cx="0" cy="0" r="1" gradientUnits="userSpaceOnUse" gradientTransform="translate(30.6191 67.4268) rotate(90) scale(4.5 7.5)">
<stop offset="0.364583" stop-color="#202020"/>
<stop offset="1" stop-color="#550000"/>
</radialGradient>
<radialGradient id="paint12_radial" cx="0" cy="0" r="1" gradientUnits="userSpaceOnUse" gradientTransform="translate(46.1191 64.9268) rotate(90) scale(6 9)">
<stop offset="0.364583" stop-color="#202020"/>
<stop offset="1" stop-color="#550000"/>
</radialGradient>
<radialGradient id="paint13_radial" cx="0" cy="0" r="1" gradientUnits="userSpaceOnUse" gradientTransform="translate(15.6191 62.4268) rotate(90) scale(5.5 8.5)">
<stop offset="0.364583" stop-color="#202020"/>
<stop offset="1" stop-color="#550000"/>
</radialGradient>
<radialGradient id="paint14_radial" cx="0" cy="0" r="1" gradientUnits="userSpaceOnUse" gradientTransform="translate(4.61914 48.9268) rotate(90) scale(9 4.5)">
<stop offset="0.364583" stop-color="#202020"/>
<stop offset="1" stop-color="#550000"/>
</radialGradient>
<radialGradient id="paint15_radial" cx="0" cy="0" r="1" gradientUnits="userSpaceOnUse" gradientTransform="translate(15.1191 38.9268) rotate(90) scale(10 6)">
<stop offset="0.364583" stop-color="#202020"/>
<stop offset="1" stop-color="#550000"/>
</radialGradient>
<radialGradient id="paint16_radial" cx="0" cy="0" r="1" gradientUnits="userSpaceOnUse" gradientTransform="translate(8.61914 21.9268) rotate(90) scale(9 6.5)">
<stop offset="0.364583" stop-color="#202020"/>
<stop offset="1" stop-color="#550000"/>
</radialGradient>
<radialGradient id="paint17_radial" cx="0" cy="0" r="1" gradientUnits="userSpaceOnUse" gradientTransform="translate(7.11914 31.9268) rotate(90) scale(5 6)">
<stop offset="0.364583" stop-color="#202020"/>
<stop offset="1" stop-color="#550000"/>
</radialGradient>
<radialGradient id="paint18_radial" cx="0" cy="0" r="1" gradientUnits="userSpaceOnUse" gradientTransform="translate(10.6191 46.4268) rotate(90) scale(9.5 6.5)">
<stop offset="0.364583" stop-color="#202020"/>
<stop offset="1" stop-color="#550000"/>
</radialGradient>
<radialGradient id="paint19_radial" cx="0" cy="0" r="1" gradientUnits="userSpaceOnUse" gradientTransform="translate(23.1191 56.9268) rotate(90) scale(5 6)">
<stop offset="0.364583" stop-color="#202020"/>
<stop offset="1" stop-color="#550000"/>
</radialGradient>
<radialGradient id="paint20_radial" cx="0" cy="0" r="1" gradientUnits="userSpaceOnUse" gradientTransform="translate(36.1191 58.4268) rotate(90) scale(4.5 6)">
<stop offset="0.364583" stop-color="#202020"/>
<stop offset="1" stop-color="#550000"/>
</radialGradient>
<radialGradient id="paint21_radial" cx="0" cy="0" r="1" gradientUnits="userSpaceOnUse" gradientTransform="translate(45.6191 55.9268) rotate(90) scale(3 2.5)">
<stop offset="0.364583" stop-color="#202020"/>
<stop offset="1" stop-color="#550000"/>
</radialGradient>
<radialGradient id="paint22_radial" cx="0" cy="0" r="1" gradientUnits="userSpaceOnUse" gradientTransform="translate(57.6191 59.9268) rotate(90) scale(4 5.5)">
<stop offset="0.364583" stop-color="#202020"/>
<stop offset="1" stop-color="#550000"/>
</radialGradient>
</defs>
</svg>
