<svg width="133" height="133" viewBox="0 0 133 133" fill="none" xmlns="http://www.w3.org/2000/svg">
<path d="M-5.93415e-10 66.5C-2.65681e-10 29.7731 29.7925 -2.68606e-10 66.5 -5.99557e-10C103.207 -9.30508e-10 133 29.7731 133 66.5C133 103.227 103.207 133 66.5 133C29.7925 133 -9.21149e-10 103.227 -5.93415e-10 66.5Z" fill="url(#paint0_radial_1151_578)"/>
<mask id="mask0_1151_578" style="mask-type:alpha" maskUnits="userSpaceOnUse" x="0" y="0" width="133" height="133">
<path d="M-5.93415e-10 66.5C-2.65681e-10 29.7731 29.7925 -2.68606e-10 66.5 -5.99557e-10C103.207 -9.30508e-10 133 29.7731 133 66.5C133 103.227 103.207 133 66.5 133C29.7925 133 -9.21149e-10 103.227 -5.93415e-10 66.5Z" fill="url(#paint1_radial_1151_578)"/>
</mask>
<g mask="url(#mask0_1151_578)">
<path d="M98.3508 67.5808C100.844 66.8548 103.777 66.7096 106.271 67.726C107.298 68.1616 108.178 68.5972 109.204 69.0328C110.084 69.4684 111.111 70.0492 111.991 70.63C113.751 71.7916 115.511 73.2436 116.978 74.8407C120.058 78.0351 122.698 82.2459 124.164 87.0375C125.778 91.829 126.364 97.3466 125.778 103.155C125.191 108.963 123.284 114.916 120.058 120.578C118.151 123.918 114.924 126.532 111.551 127.984C110.671 128.274 109.791 128.564 109.058 128.71C108.178 128.855 107.444 129 106.564 129C104.951 129 103.484 128.71 102.164 127.984C99.6708 126.677 98.4974 124.354 98.3508 121.74C98.2041 119.126 99.0841 116.513 100.697 113.899C102.751 110.705 104.217 107.365 104.951 103.881C105.684 100.396 105.831 96.911 105.244 93.7166C105.097 92.8454 104.951 92.1194 104.657 91.3934C104.511 90.9578 104.511 90.6675 104.364 90.2319C104.217 89.7963 104.071 89.5059 103.924 89.0703C103.631 88.3443 103.337 87.6183 103.044 86.8923C102.751 86.1663 102.311 85.5855 101.871 84.8595C100.257 82.2459 98.2041 80.0679 95.8574 78.1803C93.9507 76.5831 92.6307 74.9859 92.1907 73.6792C91.7507 72.2272 92.0441 70.9204 93.3641 69.7588C93.9507 69.178 94.6841 68.7424 95.5641 68.3068C96.4441 68.1616 97.3241 67.726 98.3508 67.5808Z" fill="url(#paint2_linear_1151_578)"/>
<path d="M81.9795 94.3959C83.7025 96.1555 85.2821 98.6484 85.7128 101.434C85.8564 102.461 86 103.487 86 104.514C86 105.54 86 106.713 86 107.74C85.8564 108.766 85.8564 109.939 85.5692 110.966C85.4256 112.139 85.1385 113.165 84.8513 114.192C83.559 118.591 81.2615 122.843 77.9589 126.656C74.6563 130.469 70.205 133.841 64.8922 136.187C59.7229 138.534 53.5485 140 47.0869 140C43.21 140 39.333 138.534 36.6048 136.334C33.733 134.135 32.0099 131.202 32.0099 128.269C31.8663 125.336 33.3022 123.283 35.4561 121.817C36.4612 121.084 37.7535 120.644 39.0458 120.351C40.3381 120.057 41.774 119.911 43.3535 120.057C47.0869 120.351 50.8203 119.764 54.1229 118.738C55.8459 118.151 57.4254 117.418 58.8613 116.685C59.5793 116.245 60.2973 115.805 61.0152 115.365C61.7332 114.925 62.3075 114.339 63.0255 113.899C64.3178 112.872 65.3229 111.699 66.3281 110.379C66.7588 109.793 67.3332 109.06 67.764 108.473C68.1948 107.74 68.6255 107.153 68.9127 106.42C70.3486 103.634 71.2102 100.701 71.6409 97.7685C71.7845 96.4488 72.0717 95.4223 72.5025 94.5425C72.6461 94.1026 72.9332 93.6627 73.0768 93.2228C73.2204 93.0761 73.364 92.9295 73.364 92.6362C73.5076 92.4896 73.6512 92.343 73.6512 92.1963C74.6563 91.1699 75.9487 90.73 77.5281 91.1699C77.9589 91.3165 78.2461 91.4631 78.6769 91.6098C79.1076 91.7564 79.3948 92.0497 79.8256 92.1963C80.5435 92.9295 81.2615 93.6627 81.9795 94.3959Z" fill="url(#paint3_linear_1151_578)"/>
<path d="M49.5169 94.9947C48.9337 97.4574 47.6216 100.065 45.2889 101.658C41.9356 104.121 38.1449 106.149 33.7711 107.163C29.3973 108.177 24.5861 108.322 19.6291 107.308C14.6721 106.294 9.56926 104.121 4.75805 100.644C0.0926304 97.1677 -4.2812 92.532 -7.63447 87.0273C-9.52979 83.6954 -10.4046 79.6393 -9.82138 76.0177C-9.82138 75.5831 -9.67559 75.1485 -9.52979 74.7139C-9.384 74.2794 -9.2382 73.8448 -9.2382 73.4102C-8.94661 72.541 -8.65503 71.8167 -8.21764 71.2372C-7.48867 69.9335 -6.32232 68.7746 -5.15596 68.0503C-2.82326 66.6016 -0.198958 66.7465 2.13375 67.9054C3.3001 68.4848 4.32066 69.354 5.19543 70.2232C5.63281 70.6578 6.07019 71.2372 6.50758 71.8167C6.94496 72.3961 7.23655 73.1204 7.67393 73.6999C9.27767 77.0317 11.6104 80.0739 14.2347 82.3917C16.859 84.7095 19.9206 86.5927 22.9823 87.6067C24.5861 88.1862 26.044 88.6208 27.6477 88.7656C29.2515 89.0553 30.8552 89.0553 32.3132 89.0553C33.7711 89.0553 35.3748 88.7656 36.8328 88.4759C38.2907 88.1862 39.7487 87.7516 41.0608 87.1721C42.2272 86.7375 43.3935 86.4478 44.2683 86.3029C44.7057 86.3029 45.2888 86.1581 45.7262 86.1581C46.1636 86.1581 46.601 86.1581 46.8926 86.3029C48.3505 86.5927 49.3711 87.4618 49.8085 89.2002C50.1001 91.0834 50.1001 92.9666 49.5169 94.9947Z" fill="url(#paint4_linear_1151_578)"/>
<path d="M33.769 66.4126C31.2649 67.1469 28.3188 67.2937 25.8146 66.2657C24.7835 65.8252 23.8997 65.3846 22.8686 64.9441C21.9848 64.5035 20.9536 63.9161 20.0698 63.3287C18.3022 62.1538 16.5345 60.6853 15.0615 59.0699C11.9681 55.8392 9.31668 51.5804 7.84365 46.7343C6.22331 41.8881 5.6341 36.3077 6.22331 30.4336C6.81253 24.5594 8.72747 18.5385 11.9681 12.8112C13.8831 9.43357 17.1238 6.79021 20.5117 5.32168C21.3955 5.02797 22.2794 4.73427 23.0159 4.58741C23.7524 4.14685 24.4889 4 25.3727 4C26.9931 4 28.4661 4.29371 29.7918 5.02797C32.296 6.34965 33.4744 8.6993 33.6217 11.3427C33.769 13.986 32.8852 16.6294 31.2649 19.2727C29.2026 22.5035 27.7296 25.8811 26.9931 29.4056C26.2566 32.9301 26.2566 36.4545 26.6985 39.6853C26.8458 40.5664 26.9931 41.3007 27.2877 42.035C27.435 42.4755 27.435 42.7692 27.5823 43.2098C27.7296 43.6503 27.8769 43.9441 28.0242 44.3846C28.3188 45.1189 28.6134 45.8531 28.908 46.5874C29.2026 47.3217 29.6445 47.9091 30.0864 48.6434C31.7068 51.2867 33.769 53.4895 36.1259 55.3986C38.0408 57.014 39.3665 58.6294 39.8085 59.951C40.2504 61.4196 39.9558 62.7413 38.63 63.9161C38.0408 64.5035 37.3043 64.944 36.4205 65.3846C35.684 65.8252 34.8001 66.1189 33.769 66.4126Z" fill="url(#paint5_linear_1151_578)"/>
<path d="M50.0099 38.7508C48.2914 36.9911 46.7161 34.4983 46.2864 31.7122C46.1432 30.6857 46 29.6593 46 28.6328C46 27.6063 46 26.4333 46 25.4068C46.1432 24.3803 46.1432 23.2072 46.4296 22.1808C46.5728 21.0077 46.8593 19.9812 47.1457 18.9548C48.4346 14.5556 50.7259 10.3032 54.0198 6.49061C57.3136 2.67805 61.7531 -0.694606 67.0519 -3.0408C72.3506 -5.53363 78.5087 -7 84.9531 -7C88.8198 -7 92.6864 -5.53363 95.4074 -3.33407C98.1284 -1.13452 99.8469 1.79822 99.9902 4.73096C100.133 7.66371 98.7013 9.71662 96.5531 11.183C95.5506 11.9162 94.2618 12.3561 92.9729 12.6494C91.684 12.9426 90.2519 13.0893 88.6766 12.9426C84.9531 12.6494 81.2297 13.2359 77.9358 14.2624C76.2173 14.8489 74.642 15.5821 73.2099 16.3153C72.4938 16.7552 71.7778 17.1951 71.0617 17.635C70.3457 18.0749 69.7729 18.6615 69.0568 19.1014C67.7679 20.1279 66.7654 21.301 65.763 22.6207C65.3333 23.2072 64.7605 23.9404 64.3309 24.527C63.9012 25.2602 63.4716 25.8467 63.1852 26.5799C61.7531 29.366 60.8938 32.2987 60.4642 35.2315C60.321 36.5512 60.0346 37.5777 59.6049 38.4575C59.4617 38.8974 59.1753 39.3373 59.0321 39.7772C58.8889 39.9239 58.7457 40.0705 58.7457 40.3638C58.6025 40.5104 58.4593 40.657 58.4593 40.8037C57.4568 41.8301 56.1679 42.2701 54.5926 41.8301C54.163 41.6835 53.8765 41.5369 53.4469 41.3902C53.0173 41.2436 52.7309 40.9503 52.3012 40.8037C51.5852 40.0705 50.8691 39.4839 50.0099 38.7508Z" fill="url(#paint6_linear_1151_578)"/>
<path d="M82.5453 38.0053C83.1279 35.5426 84.4387 32.9351 86.7689 31.3416C90.1187 28.8789 93.9054 26.8509 98.2747 25.8368C102.644 24.8228 107.45 24.6779 112.402 25.692C117.354 26.706 122.451 28.8789 127.257 32.3556C131.918 35.8324 136.287 40.468 139.637 45.9727C141.53 49.3046 142.404 53.3607 141.822 56.9823C141.822 57.4169 141.676 57.8515 141.53 58.2861C141.385 58.7206 141.239 59.1552 141.239 59.5898C140.948 60.459 140.656 61.1833 140.22 61.7628C139.491 63.0665 138.326 64.2254 137.161 64.9497C134.831 66.3984 132.209 66.2535 129.879 65.0946C128.714 64.5152 127.694 63.646 126.82 62.7768C126.384 62.3422 125.947 61.7628 125.51 61.1833C125.073 60.6039 124.781 59.8796 124.345 59.3001C122.742 55.9683 120.412 52.9261 117.791 50.6083C115.169 48.2905 112.111 46.4073 109.052 45.3933C107.45 44.8138 105.994 44.3792 104.392 44.2344C102.79 43.9447 101.187 43.9447 99.7311 43.9447C98.2747 43.9447 96.6726 44.2344 95.2162 44.5241C93.7598 44.8138 92.3033 45.2484 90.9926 45.8279C89.8274 46.2625 88.6623 46.5522 87.7884 46.6971C87.3515 46.6971 86.7689 46.8419 86.332 46.8419C85.8951 46.8419 85.4582 46.8419 85.1669 46.6971C83.7105 46.4073 82.691 45.5382 82.254 43.7998C81.8171 42.0614 81.9628 40.0334 82.5453 38.0053Z" fill="url(#paint7_linear_1151_578)"/>
</g>
<defs>
<radialGradient id="paint0_radial_1151_578" cx="0" cy="0" r="1" gradientUnits="userSpaceOnUse" gradientTransform="translate(66.5 66.5) rotate(90) scale(66.5)">
<stop stop-color="#231DD0"/>
<stop offset="1" stop-color="#06043A"/>
</radialGradient>
<radialGradient id="paint1_radial_1151_578" cx="0" cy="0" r="1" gradientUnits="userSpaceOnUse" gradientTransform="translate(66.5 66.5) rotate(90) scale(66.5)">
<stop stop-color="#231DD0"/>
<stop offset="1" stop-color="#06043A"/>
</radialGradient>
<linearGradient id="paint2_linear_1151_578" x1="92.0955" y1="98.063" x2="126.104" y2="98.063" gradientUnits="userSpaceOnUse">
<stop stop-color="#4CD9DF"/>
<stop offset="1" stop-color="#00C9D2"/>
</linearGradient>
<linearGradient id="paint3_linear_1151_578" x1="31.9341" y1="115.609" x2="86.0022" y2="115.609" gradientUnits="userSpaceOnUse">
<stop stop-color="#1E18CF"/>
<stop offset="1" stop-color="#625DDD"/>
</linearGradient>
<linearGradient id="paint4_linear_1151_578" x1="-9.96717" y1="87.5392" x2="50.0139" y2="87.5392" gradientUnits="userSpaceOnUse">
<stop stop-color="#4CD9DF"/>
<stop offset="1" stop-color="#00C9D2"/>
</linearGradient>
<linearGradient id="paint5_linear_1151_578" x1="5.83517" y1="35.5169" x2="39.9905" y2="35.5169" gradientUnits="userSpaceOnUse">
<stop stop-color="#1E18CF"/>
<stop offset="1" stop-color="#625DDD"/>
</linearGradient>
<linearGradient id="paint6_linear_1151_578" x1="46.0819" y1="17.4711" x2="100.007" y2="17.4711" gradientUnits="userSpaceOnUse">
<stop stop-color="#4CD9DF"/>
<stop offset="1" stop-color="#00C9D2"/>
</linearGradient>
<linearGradient id="paint7_linear_1151_578" x1="81.9887" y1="45.5402" x2="141.907" y2="45.5402" gradientUnits="userSpaceOnUse">
<stop stop-color="#1E18CF"/>
<stop offset="1" stop-color="#625DDD"/>
</linearGradient>
</defs>
</svg>
