<svg width="151" height="151" viewBox="0 0 151 151" fill="none" xmlns="http://www.w3.org/2000/svg">
<path d="M30.2402 132.842L76.3334 86.078L70.5248 80.1515L23.6064 128.713C27.362 131.973 29.8821 133.458 30.2402 132.842Z" fill="#2A54A8"/>
<path d="M70.3184 80.357L65.275 75.2112L17.5897 123.228C18.3546 125.124 19.9892 128.064 22.2233 130.094L70.3184 80.357Z" fill="#4EE5CD"/>
<path d="M71.4299 79.8443C66.0087 90.2325 37.2997 121.305 26.67 132.619C21.0695 131.294 19.0715 126.881 18.3695 125.132C48.2538 96.4324 61.0895 84.9266 71.4299 79.8443Z" fill="#4A81E6"/>
<path d="M26.3625 126.998L29.96 123.816L29.5829 121.386L27.4589 121.318L24.0673 124.705L26.02 124.945L26.3625 126.998Z" fill="white"/>
<path d="M34.5503 118.82L38.1478 115.638L37.7707 113.208L35.6467 113.14L32.2551 116.527L34.2078 116.767L34.5503 118.82Z" fill="white"/>
<path d="M42.8067 110.573L46.4041 107.391L46.0271 104.961L43.9031 104.893L40.5115 108.281L42.4642 108.52L42.8067 110.573Z" fill="white"/>
<path d="M51.7824 101.608L55.3799 98.4258L55.0028 95.9961L52.8788 95.9276L49.4872 99.3152L51.4399 99.5548L51.7824 101.608Z" fill="white"/>
<path d="M60.0388 93.3611L63.6362 90.1791L63.2592 87.7494L61.1352 87.6809L57.7436 91.0686L59.6963 91.3081L60.0388 93.3611Z" fill="white"/>
<path d="M26.0955 130.298L21.1617 129.794L20.9935 124.866L25.9835 124.978L26.0955 130.298Z" fill="#4EE5CD"/>
<path d="M34.6181 121.786L29.6843 121.282L29.5161 116.354L34.5061 116.466L34.6181 121.786Z" fill="#4EE5CD"/>
<path d="M42.9444 113.469L38.0105 112.965L37.8423 108.037L42.8324 108.149L42.9444 113.469Z" fill="#4EE5CD"/>
<path d="M51.3828 105.04L46.4489 104.537L46.2807 99.6086L51.2708 99.7205L51.3828 105.04Z" fill="#4EE5CD"/>
<path d="M60.0735 96.3599L55.1397 95.8562L54.9714 90.928L59.9615 91.04L60.0735 96.3599Z" fill="#4EE5CD"/>
<path d="M68.4558 87.9874L63.522 87.4837L63.3538 82.5555L68.3439 82.6674L68.4558 87.9874Z" fill="#4EE5CD"/>
<mask id="path-6-outside-1" maskUnits="userSpaceOnUse" x="14.0967" y="73.3616" width="64.3843" height="64.3091" fill="black">
<rect fill="white" x="14.0967" y="73.3616" width="64.3843" height="64.3091"/>
<path fill-rule="evenodd" clip-rule="evenodd" d="M31.5879 131.507C31.4669 131.091 31.3491 130.666 31.235 130.234C29.6102 130.351 28.0253 130.398 26.485 130.384L26.4853 130.392L26.2637 130.381C24.9358 130.364 23.6414 130.301 22.3833 130.2L21.4815 130.158C21.5121 130.444 21.5447 130.728 21.5791 131.011L20.2948 129.728C20.5774 129.762 20.862 129.795 21.1487 129.825L21.1068 128.932C21.0052 127.676 20.9425 126.383 20.9249 125.057L20.9141 124.827L20.9223 124.827C20.908 123.289 20.9547 121.706 21.0722 120.083C20.8809 120.033 20.6911 119.982 20.5028 119.93L20.8205 119.613C20.914 119.638 21.0078 119.664 21.1021 119.689C21.1123 119.559 21.1231 119.429 21.1342 119.299L21.3717 119.062C21.352 119.291 21.3338 119.519 21.3169 119.747C23.5012 120.325 25.8877 120.81 28.4486 121.14L29.6458 121.278C29.3593 118.264 29.2938 115.032 29.5405 111.625C29.3492 111.574 29.1593 111.523 28.9711 111.471L29.2888 111.154C29.3823 111.18 29.4761 111.205 29.5704 111.231C29.5806 111.101 29.5914 110.971 29.6025 110.841L29.9202 110.523C29.8977 110.786 29.877 111.047 29.8582 111.307C32.3599 111.966 35.1256 112.502 38.1134 112.823L38.1123 112.8C37.8273 109.792 37.7626 106.567 38.0088 103.166C37.8175 103.116 37.6276 103.065 37.4394 103.013L37.7571 102.696C37.8506 102.721 37.9444 102.747 38.0387 102.772C38.0489 102.643 38.0597 102.513 38.0708 102.382L38.3885 102.065C38.366 102.327 38.3453 102.589 38.3265 102.849C40.5268 103.428 42.9314 103.912 45.5117 104.239L46.5826 104.363C46.2959 101.348 46.2304 98.1163 46.4771 94.7079C46.2858 94.6575 46.0959 94.6064 45.9077 94.5547L46.2254 94.2373C46.3189 94.263 46.4127 94.2886 46.507 94.3139C46.5172 94.1842 46.528 94.0542 46.5391 93.924L46.8568 93.6066C46.8343 93.869 46.8136 94.1303 46.7948 94.3906C48.9731 94.964 51.3515 95.4442 53.9024 95.7708L55.0196 95.8997L54.9846 95.1555C54.8788 93.8631 54.8141 92.5321 54.7974 91.1658L54.7892 90.9915L54.7955 90.9918C54.7815 89.4828 54.8262 87.9311 54.9389 86.3408C54.7247 86.2847 54.5125 86.2277 54.3023 86.1699L54.6937 85.7789C54.7872 85.8046 54.881 85.8302 54.9753 85.8556C54.9855 85.7258 54.9962 85.5958 55.0074 85.4656L55.3251 85.1482C55.3026 85.4106 55.2819 85.6719 55.2631 85.9322C57.7423 86.5849 60.4808 87.1167 63.4378 87.4388C63.1467 84.3316 63.0909 80.9938 63.3698 77.4708C63.2756 77.4454 63.1817 77.4199 63.0883 77.3942L65.4298 75.0554L69.0619 78.6833C67.1746 78.3832 65.3915 78.0015 63.7249 77.5651C63.6034 79.2804 63.5609 80.9509 63.5859 82.5713L68.5578 82.8044L68.7905 87.7701C70.4128 87.795 72.0854 87.7526 73.8028 87.6313C73.3659 85.9666 72.9837 84.1856 72.6833 82.3004L76.7677 86.3801L74.1733 88.9714C74.0792 88.6478 73.9871 88.3192 73.8972 87.9859C70.3701 88.2645 67.0284 88.2087 63.9175 87.9179C64.24 90.8715 64.7725 93.6068 65.4259 96.0831C66.0153 96.0406 66.6099 95.9887 67.2095 95.9271L66.8918 96.2444C66.4257 96.2923 65.9626 96.3343 65.5026 96.3706C65.5926 96.704 65.6847 97.0325 65.7787 97.3562L65.3873 97.7471C65.2601 97.3093 65.1364 96.8625 65.0168 96.407C63.4246 96.5195 61.8709 96.5641 60.3601 96.5502L60.3604 96.5562L60.1942 96.5484C58.8262 96.5319 57.4936 96.4674 56.1995 96.3619L55.4464 96.3267L55.5713 97.4075C55.8984 99.9686 56.3809 102.356 56.9576 104.542C57.547 104.499 58.1416 104.447 58.7412 104.385L58.4235 104.703C57.9574 104.751 57.4943 104.793 57.0343 104.829C57.1243 105.162 57.2164 105.491 57.3104 105.815L56.9927 106.132C56.8718 105.716 56.754 105.291 56.6399 104.859C53.2274 105.105 49.9914 105.04 46.9735 104.753L47.0926 105.784C47.4198 108.376 47.9064 110.791 48.4893 113C49.0787 112.957 49.6733 112.905 50.2729 112.844L49.9552 113.161C49.4891 113.209 49.026 113.251 48.566 113.287C48.656 113.621 48.7481 113.949 48.8421 114.273L48.5244 114.59C48.4035 114.174 48.2857 113.75 48.1716 113.317C44.7701 113.563 41.5439 113.499 38.5344 113.215L38.504 113.213C38.8255 116.197 39.3617 118.96 40.021 121.458C40.6104 121.416 41.205 121.364 41.8046 121.302L41.4869 121.62C41.0208 121.667 40.5577 121.71 40.0978 121.746C40.1877 122.079 40.2798 122.408 40.3738 122.731L40.0562 123.049C39.9352 122.632 39.8174 122.208 39.7033 121.776C36.2941 122.022 33.061 121.957 30.0457 121.671L30.039 121.671L30.1772 122.866C30.5077 125.424 30.9931 127.808 31.572 129.99C32.1288 129.948 32.6902 129.899 33.2561 129.841L33.0186 130.078C32.5525 130.126 32.0894 130.168 31.6295 130.204C31.7194 130.538 31.8115 130.866 31.9055 131.19L31.5879 131.507ZM26.4737 130.144C27.9992 130.164 29.5689 130.125 31.1783 130.017C30.6618 128.026 30.2241 125.87 29.9109 123.571L26.3331 127.144L26.4737 130.144ZM28.1687 121.462C28.6603 121.525 29.1583 121.582 29.6626 121.633L29.6635 121.653L29.6829 121.654C29.7341 122.158 29.7915 122.655 29.8546 123.146L26.3116 126.684L26.2362 125.077L24.625 125.001L28.1687 121.462ZM24.1649 124.979L27.7432 121.406C25.4409 121.093 23.2826 120.656 21.2891 120.14C21.1809 121.747 21.1419 123.315 21.1626 124.839L24.1649 124.979ZM24.286 125.323L21.2691 125.182L21.4869 129.82L26.1303 130.037L25.9901 127.045L25.8677 125.444L24.286 125.323ZM30.245 121.342C30.1627 121.334 30.0806 121.326 29.9987 121.318C29.9906 121.238 29.9827 121.159 29.9749 121.079L29.769 116.692L33.648 116.874L34.3911 116.93L34.4498 117.698L34.6302 121.547L30.245 121.342ZM34.9712 121.604L34.833 118.654L38.3791 115.112C38.6885 117.384 39.1193 119.515 39.6276 121.485C38.035 121.59 36.4814 121.626 34.9712 121.604ZM38.1303 113.183L38.1309 113.196L38.1431 113.196L38.3162 114.694L34.8255 118.18L34.7874 117.682L34.7361 116.587L33.664 116.536L33.1396 116.496L36.6302 113.01L38.1303 113.183ZM29.8311 111.7C31.8039 112.208 33.9372 112.638 36.2111 112.947L32.6647 116.489L29.7119 116.351C29.6901 114.843 29.7267 113.291 29.8311 111.7ZM48.0959 113.027C46.5029 113.131 44.949 113.168 43.4386 113.146L43.3003 110.197L46.8474 106.654C47.1568 108.925 47.5876 111.056 48.0959 113.027ZM41.686 108.396L42.8468 108.484L42.9371 109.667L43.0976 113.09L38.7328 112.886C38.644 112.877 38.5554 112.869 38.467 112.86C38.4582 112.774 38.4497 112.687 38.4413 112.601L38.2363 108.234L41.686 108.396ZM43.2034 108.129L43.2748 109.651L43.2812 109.735L46.7912 106.229C46.7273 105.732 46.6693 105.228 46.6176 104.719C46.1069 104.667 45.6026 104.609 45.1048 104.545L41.5952 108.051L41.7022 108.059L43.2034 108.129ZM44.6794 104.489L41.1321 108.032L38.1802 107.894C38.1583 106.385 38.1949 104.833 38.2994 103.242C40.2722 103.75 42.4055 104.18 44.6794 104.489ZM56.5642 104.569C54.9806 104.672 53.4356 104.709 51.9336 104.688L51.7941 101.713L55.3157 98.1952C55.6251 100.467 56.0559 102.598 56.5642 104.569ZM55.0363 96.2551C54.5425 96.2047 54.0548 96.1484 53.5731 96.0866L50.0954 99.5603L51.0288 99.6139L51.6973 99.6453L51.732 100.386L51.7814 101.244L55.2595 97.7703C55.1977 97.2896 55.1414 96.8028 55.091 96.3101L55.0387 96.3077L55.0363 96.2551ZM53.1477 96.0305L49.6259 99.5481L46.6481 99.4085C46.6271 97.9083 46.6639 96.3652 46.7677 94.7835C48.7405 95.2912 50.8738 95.7214 53.1477 96.0305ZM46.7302 99.7503L51.0154 99.9513L51.3696 99.9716L51.3942 100.4L51.5914 104.606L46.9479 104.389L46.7302 99.7503ZM55.4036 95.9428C55.7189 95.9747 56.0366 96.0042 56.3567 96.0312L60.0054 96.2016L59.7992 91.8009L59.7815 91.5695L59.5775 91.554L55.1442 91.3461L55.3156 94.9974C55.3425 95.3149 55.3718 95.63 55.4036 95.9428ZM60.1113 91.2411L60.1368 91.785L60.2159 92.8197L63.654 89.3855C63.5902 88.8886 63.5322 88.3852 63.4804 87.8754C62.9697 87.8237 62.4654 87.7657 61.9677 87.7019L58.5299 91.1357L59.5935 91.2168L60.1113 91.2411ZM60.2082 93.3085L60.345 96.2288C61.8361 96.2512 63.3696 96.2166 64.9413 96.1161C64.4406 94.1643 64.0161 92.056 63.7103 89.8105L60.2082 93.3085ZM55.2301 86.4162C57.1839 86.9163 59.2944 87.3402 61.5422 87.6457L58.0399 91.1439L55.1172 91.0069C55.0949 89.5176 55.1295 87.986 55.2301 86.4162ZM68.4519 87.7639L68.2346 83.1272L63.592 82.9095L63.5932 82.9631L63.7269 85.81C63.7675 86.3754 63.816 86.9336 63.8719 87.4844C64.4252 87.5404 64.9861 87.589 65.5541 87.6297L68.4084 87.763L68.4519 87.7639Z"/>
</mask>
<path fill-rule="evenodd" clip-rule="evenodd" d="M31.5879 131.507C31.4669 131.091 31.3491 130.666 31.235 130.234C29.6102 130.351 28.0253 130.398 26.485 130.384L26.4853 130.392L26.2637 130.381C24.9358 130.364 23.6414 130.301 22.3833 130.2L21.4815 130.158C21.5121 130.444 21.5447 130.728 21.5791 131.011L20.2948 129.728C20.5774 129.762 20.862 129.795 21.1487 129.825L21.1068 128.932C21.0052 127.676 20.9425 126.383 20.9249 125.057L20.9141 124.827L20.9223 124.827C20.908 123.289 20.9547 121.706 21.0722 120.083C20.8809 120.033 20.6911 119.982 20.5028 119.93L20.8205 119.613C20.914 119.638 21.0078 119.664 21.1021 119.689C21.1123 119.559 21.1231 119.429 21.1342 119.299L21.3717 119.062C21.352 119.291 21.3338 119.519 21.3169 119.747C23.5012 120.325 25.8877 120.81 28.4486 121.14L29.6458 121.278C29.3593 118.264 29.2938 115.032 29.5405 111.625C29.3492 111.574 29.1593 111.523 28.9711 111.471L29.2888 111.154C29.3823 111.18 29.4761 111.205 29.5704 111.231C29.5806 111.101 29.5914 110.971 29.6025 110.841L29.9202 110.523C29.8977 110.786 29.877 111.047 29.8582 111.307C32.3599 111.966 35.1256 112.502 38.1134 112.823L38.1123 112.8C37.8273 109.792 37.7626 106.567 38.0088 103.166C37.8175 103.116 37.6276 103.065 37.4394 103.013L37.7571 102.696C37.8506 102.721 37.9444 102.747 38.0387 102.772C38.0489 102.643 38.0597 102.513 38.0708 102.382L38.3885 102.065C38.366 102.327 38.3453 102.589 38.3265 102.849C40.5268 103.428 42.9314 103.912 45.5117 104.239L46.5826 104.363C46.2959 101.348 46.2304 98.1163 46.4771 94.7079C46.2858 94.6575 46.0959 94.6064 45.9077 94.5547L46.2254 94.2373C46.3189 94.263 46.4127 94.2886 46.507 94.3139C46.5172 94.1842 46.528 94.0542 46.5391 93.924L46.8568 93.6066C46.8343 93.869 46.8136 94.1303 46.7948 94.3906C48.9731 94.964 51.3515 95.4442 53.9024 95.7708L55.0196 95.8997L54.9846 95.1555C54.8788 93.8631 54.8141 92.5321 54.7974 91.1658L54.7892 90.9915L54.7955 90.9918C54.7815 89.4828 54.8262 87.9311 54.9389 86.3408C54.7247 86.2847 54.5125 86.2277 54.3023 86.1699L54.6937 85.7789C54.7872 85.8046 54.881 85.8302 54.9753 85.8556C54.9855 85.7258 54.9962 85.5958 55.0074 85.4656L55.3251 85.1482C55.3026 85.4106 55.2819 85.6719 55.2631 85.9322C57.7423 86.5849 60.4808 87.1167 63.4378 87.4388C63.1467 84.3316 63.0909 80.9938 63.3698 77.4708C63.2756 77.4454 63.1817 77.4199 63.0883 77.3942L65.4298 75.0554L69.0619 78.6833C67.1746 78.3832 65.3915 78.0015 63.7249 77.5651C63.6034 79.2804 63.5609 80.9509 63.5859 82.5713L68.5578 82.8044L68.7905 87.7701C70.4128 87.795 72.0854 87.7526 73.8028 87.6313C73.3659 85.9666 72.9837 84.1856 72.6833 82.3004L76.7677 86.3801L74.1733 88.9714C74.0792 88.6478 73.9871 88.3192 73.8972 87.9859C70.3701 88.2645 67.0284 88.2087 63.9175 87.9179C64.24 90.8715 64.7725 93.6068 65.4259 96.0831C66.0153 96.0406 66.6099 95.9887 67.2095 95.9271L66.8918 96.2444C66.4257 96.2923 65.9626 96.3343 65.5026 96.3706C65.5926 96.704 65.6847 97.0325 65.7787 97.3562L65.3873 97.7471C65.2601 97.3093 65.1364 96.8625 65.0168 96.407C63.4246 96.5195 61.8709 96.5641 60.3601 96.5502L60.3604 96.5562L60.1942 96.5484C58.8262 96.5319 57.4936 96.4674 56.1995 96.3619L55.4464 96.3267L55.5713 97.4075C55.8984 99.9686 56.3809 102.356 56.9576 104.542C57.547 104.499 58.1416 104.447 58.7412 104.385L58.4235 104.703C57.9574 104.751 57.4943 104.793 57.0343 104.829C57.1243 105.162 57.2164 105.491 57.3104 105.815L56.9927 106.132C56.8718 105.716 56.754 105.291 56.6399 104.859C53.2274 105.105 49.9914 105.04 46.9735 104.753L47.0926 105.784C47.4198 108.376 47.9064 110.791 48.4893 113C49.0787 112.957 49.6733 112.905 50.2729 112.844L49.9552 113.161C49.4891 113.209 49.026 113.251 48.566 113.287C48.656 113.621 48.7481 113.949 48.8421 114.273L48.5244 114.59C48.4035 114.174 48.2857 113.75 48.1716 113.317C44.7701 113.563 41.5439 113.499 38.5344 113.215L38.504 113.213C38.8255 116.197 39.3617 118.96 40.021 121.458C40.6104 121.416 41.205 121.364 41.8046 121.302L41.4869 121.62C41.0208 121.667 40.5577 121.71 40.0978 121.746C40.1877 122.079 40.2798 122.408 40.3738 122.731L40.0562 123.049C39.9352 122.632 39.8174 122.208 39.7033 121.776C36.2941 122.022 33.061 121.957 30.0457 121.671L30.039 121.671L30.1772 122.866C30.5077 125.424 30.9931 127.808 31.572 129.99C32.1288 129.948 32.6902 129.899 33.2561 129.841L33.0186 130.078C32.5525 130.126 32.0894 130.168 31.6295 130.204C31.7194 130.538 31.8115 130.866 31.9055 131.19L31.5879 131.507ZM26.4737 130.144C27.9992 130.164 29.5689 130.125 31.1783 130.017C30.6618 128.026 30.2241 125.87 29.9109 123.571L26.3331 127.144L26.4737 130.144ZM28.1687 121.462C28.6603 121.525 29.1583 121.582 29.6626 121.633L29.6635 121.653L29.6829 121.654C29.7341 122.158 29.7915 122.655 29.8546 123.146L26.3116 126.684L26.2362 125.077L24.625 125.001L28.1687 121.462ZM24.1649 124.979L27.7432 121.406C25.4409 121.093 23.2826 120.656 21.2891 120.14C21.1809 121.747 21.1419 123.315 21.1626 124.839L24.1649 124.979ZM24.286 125.323L21.2691 125.182L21.4869 129.82L26.1303 130.037L25.9901 127.045L25.8677 125.444L24.286 125.323ZM30.245 121.342C30.1627 121.334 30.0806 121.326 29.9987 121.318C29.9906 121.238 29.9827 121.159 29.9749 121.079L29.769 116.692L33.648 116.874L34.3911 116.93L34.4498 117.698L34.6302 121.547L30.245 121.342ZM34.9712 121.604L34.833 118.654L38.3791 115.112C38.6885 117.384 39.1193 119.515 39.6276 121.485C38.035 121.59 36.4814 121.626 34.9712 121.604ZM38.1303 113.183L38.1309 113.196L38.1431 113.196L38.3162 114.694L34.8255 118.18L34.7874 117.682L34.7361 116.587L33.664 116.536L33.1396 116.496L36.6302 113.01L38.1303 113.183ZM29.8311 111.7C31.8039 112.208 33.9372 112.638 36.2111 112.947L32.6647 116.489L29.7119 116.351C29.6901 114.843 29.7267 113.291 29.8311 111.7ZM48.0959 113.027C46.5029 113.131 44.949 113.168 43.4386 113.146L43.3003 110.197L46.8474 106.654C47.1568 108.925 47.5876 111.056 48.0959 113.027ZM41.686 108.396L42.8468 108.484L42.9371 109.667L43.0976 113.09L38.7328 112.886C38.644 112.877 38.5554 112.869 38.467 112.86C38.4582 112.774 38.4497 112.687 38.4413 112.601L38.2363 108.234L41.686 108.396ZM43.2034 108.129L43.2748 109.651L43.2812 109.735L46.7912 106.229C46.7273 105.732 46.6693 105.228 46.6176 104.719C46.1069 104.667 45.6026 104.609 45.1048 104.545L41.5952 108.051L41.7022 108.059L43.2034 108.129ZM44.6794 104.489L41.1321 108.032L38.1802 107.894C38.1583 106.385 38.1949 104.833 38.2994 103.242C40.2722 103.75 42.4055 104.18 44.6794 104.489ZM56.5642 104.569C54.9806 104.672 53.4356 104.709 51.9336 104.688L51.7941 101.713L55.3157 98.1952C55.6251 100.467 56.0559 102.598 56.5642 104.569ZM55.0363 96.2551C54.5425 96.2047 54.0548 96.1484 53.5731 96.0866L50.0954 99.5603L51.0288 99.6139L51.6973 99.6453L51.732 100.386L51.7814 101.244L55.2595 97.7703C55.1977 97.2896 55.1414 96.8028 55.091 96.3101L55.0387 96.3077L55.0363 96.2551ZM53.1477 96.0305L49.6259 99.5481L46.6481 99.4085C46.6271 97.9083 46.6639 96.3652 46.7677 94.7835C48.7405 95.2912 50.8738 95.7214 53.1477 96.0305ZM46.7302 99.7503L51.0154 99.9513L51.3696 99.9716L51.3942 100.4L51.5914 104.606L46.9479 104.389L46.7302 99.7503ZM55.4036 95.9428C55.7189 95.9747 56.0366 96.0042 56.3567 96.0312L60.0054 96.2016L59.7992 91.8009L59.7815 91.5695L59.5775 91.554L55.1442 91.3461L55.3156 94.9974C55.3425 95.3149 55.3718 95.63 55.4036 95.9428ZM60.1113 91.2411L60.1368 91.785L60.2159 92.8197L63.654 89.3855C63.5902 88.8886 63.5322 88.3852 63.4804 87.8754C62.9697 87.8237 62.4654 87.7657 61.9677 87.7019L58.5299 91.1357L59.5935 91.2168L60.1113 91.2411ZM60.2082 93.3085L60.345 96.2288C61.8361 96.2512 63.3696 96.2166 64.9413 96.1161C64.4406 94.1643 64.0161 92.056 63.7103 89.8105L60.2082 93.3085ZM55.2301 86.4162C57.1839 86.9163 59.2944 87.3402 61.5422 87.6457L58.0399 91.1439L55.1172 91.0069C55.0949 89.5176 55.1295 87.986 55.2301 86.4162ZM68.4519 87.7639L68.2346 83.1272L63.592 82.9095L63.5932 82.9631L63.7269 85.81C63.7675 86.3754 63.816 86.9336 63.8719 87.4844C64.4252 87.5404 64.9861 87.589 65.5541 87.6297L68.4084 87.763L68.4519 87.7639Z" fill="black"/>
<path fill-rule="evenodd" clip-rule="evenodd" d="M31.5879 131.507C31.4669 131.091 31.3491 130.666 31.235 130.234C29.6102 130.351 28.0253 130.398 26.485 130.384L26.4853 130.392L26.2637 130.381C24.9358 130.364 23.6414 130.301 22.3833 130.2L21.4815 130.158C21.5121 130.444 21.5447 130.728 21.5791 131.011L20.2948 129.728C20.5774 129.762 20.862 129.795 21.1487 129.825L21.1068 128.932C21.0052 127.676 20.9425 126.383 20.9249 125.057L20.9141 124.827L20.9223 124.827C20.908 123.289 20.9547 121.706 21.0722 120.083C20.8809 120.033 20.6911 119.982 20.5028 119.93L20.8205 119.613C20.914 119.638 21.0078 119.664 21.1021 119.689C21.1123 119.559 21.1231 119.429 21.1342 119.299L21.3717 119.062C21.352 119.291 21.3338 119.519 21.3169 119.747C23.5012 120.325 25.8877 120.81 28.4486 121.14L29.6458 121.278C29.3593 118.264 29.2938 115.032 29.5405 111.625C29.3492 111.574 29.1593 111.523 28.9711 111.471L29.2888 111.154C29.3823 111.18 29.4761 111.205 29.5704 111.231C29.5806 111.101 29.5914 110.971 29.6025 110.841L29.9202 110.523C29.8977 110.786 29.877 111.047 29.8582 111.307C32.3599 111.966 35.1256 112.502 38.1134 112.823L38.1123 112.8C37.8273 109.792 37.7626 106.567 38.0088 103.166C37.8175 103.116 37.6276 103.065 37.4394 103.013L37.7571 102.696C37.8506 102.721 37.9444 102.747 38.0387 102.772C38.0489 102.643 38.0597 102.513 38.0708 102.382L38.3885 102.065C38.366 102.327 38.3453 102.589 38.3265 102.849C40.5268 103.428 42.9314 103.912 45.5117 104.239L46.5826 104.363C46.2959 101.348 46.2304 98.1163 46.4771 94.7079C46.2858 94.6575 46.0959 94.6064 45.9077 94.5547L46.2254 94.2373C46.3189 94.263 46.4127 94.2886 46.507 94.3139C46.5172 94.1842 46.528 94.0542 46.5391 93.924L46.8568 93.6066C46.8343 93.869 46.8136 94.1303 46.7948 94.3906C48.9731 94.964 51.3515 95.4442 53.9024 95.7708L55.0196 95.8997L54.9846 95.1555C54.8788 93.8631 54.8141 92.5321 54.7974 91.1658L54.7892 90.9915L54.7955 90.9918C54.7815 89.4828 54.8262 87.9311 54.9389 86.3408C54.7247 86.2847 54.5125 86.2277 54.3023 86.1699L54.6937 85.7789C54.7872 85.8046 54.881 85.8302 54.9753 85.8556C54.9855 85.7258 54.9962 85.5958 55.0074 85.4656L55.3251 85.1482C55.3026 85.4106 55.2819 85.6719 55.2631 85.9322C57.7423 86.5849 60.4808 87.1167 63.4378 87.4388C63.1467 84.3316 63.0909 80.9938 63.3698 77.4708C63.2756 77.4454 63.1817 77.4199 63.0883 77.3942L65.4298 75.0554L69.0619 78.6833C67.1746 78.3832 65.3915 78.0015 63.7249 77.5651C63.6034 79.2804 63.5609 80.9509 63.5859 82.5713L68.5578 82.8044L68.7905 87.7701C70.4128 87.795 72.0854 87.7526 73.8028 87.6313C73.3659 85.9666 72.9837 84.1856 72.6833 82.3004L76.7677 86.3801L74.1733 88.9714C74.0792 88.6478 73.9871 88.3192 73.8972 87.9859C70.3701 88.2645 67.0284 88.2087 63.9175 87.9179C64.24 90.8715 64.7725 93.6068 65.4259 96.0831C66.0153 96.0406 66.6099 95.9887 67.2095 95.9271L66.8918 96.2444C66.4257 96.2923 65.9626 96.3343 65.5026 96.3706C65.5926 96.704 65.6847 97.0325 65.7787 97.3562L65.3873 97.7471C65.2601 97.3093 65.1364 96.8625 65.0168 96.407C63.4246 96.5195 61.8709 96.5641 60.3601 96.5502L60.3604 96.5562L60.1942 96.5484C58.8262 96.5319 57.4936 96.4674 56.1995 96.3619L55.4464 96.3267L55.5713 97.4075C55.8984 99.9686 56.3809 102.356 56.9576 104.542C57.547 104.499 58.1416 104.447 58.7412 104.385L58.4235 104.703C57.9574 104.751 57.4943 104.793 57.0343 104.829C57.1243 105.162 57.2164 105.491 57.3104 105.815L56.9927 106.132C56.8718 105.716 56.754 105.291 56.6399 104.859C53.2274 105.105 49.9914 105.04 46.9735 104.753L47.0926 105.784C47.4198 108.376 47.9064 110.791 48.4893 113C49.0787 112.957 49.6733 112.905 50.2729 112.844L49.9552 113.161C49.4891 113.209 49.026 113.251 48.566 113.287C48.656 113.621 48.7481 113.949 48.8421 114.273L48.5244 114.59C48.4035 114.174 48.2857 113.75 48.1716 113.317C44.7701 113.563 41.5439 113.499 38.5344 113.215L38.504 113.213C38.8255 116.197 39.3617 118.96 40.021 121.458C40.6104 121.416 41.205 121.364 41.8046 121.302L41.4869 121.62C41.0208 121.667 40.5577 121.71 40.0978 121.746C40.1877 122.079 40.2798 122.408 40.3738 122.731L40.0562 123.049C39.9352 122.632 39.8174 122.208 39.7033 121.776C36.2941 122.022 33.061 121.957 30.0457 121.671L30.039 121.671L30.1772 122.866C30.5077 125.424 30.9931 127.808 31.572 129.99C32.1288 129.948 32.6902 129.899 33.2561 129.841L33.0186 130.078C32.5525 130.126 32.0894 130.168 31.6295 130.204C31.7194 130.538 31.8115 130.866 31.9055 131.19L31.5879 131.507ZM26.4737 130.144C27.9992 130.164 29.5689 130.125 31.1783 130.017C30.6618 128.026 30.2241 125.87 29.9109 123.571L26.3331 127.144L26.4737 130.144ZM28.1687 121.462C28.6603 121.525 29.1583 121.582 29.6626 121.633L29.6635 121.653L29.6829 121.654C29.7341 122.158 29.7915 122.655 29.8546 123.146L26.3116 126.684L26.2362 125.077L24.625 125.001L28.1687 121.462ZM24.1649 124.979L27.7432 121.406C25.4409 121.093 23.2826 120.656 21.2891 120.14C21.1809 121.747 21.1419 123.315 21.1626 124.839L24.1649 124.979ZM24.286 125.323L21.2691 125.182L21.4869 129.82L26.1303 130.037L25.9901 127.045L25.8677 125.444L24.286 125.323ZM30.245 121.342C30.1627 121.334 30.0806 121.326 29.9987 121.318C29.9906 121.238 29.9827 121.159 29.9749 121.079L29.769 116.692L33.648 116.874L34.3911 116.93L34.4498 117.698L34.6302 121.547L30.245 121.342ZM34.9712 121.604L34.833 118.654L38.3791 115.112C38.6885 117.384 39.1193 119.515 39.6276 121.485C38.035 121.59 36.4814 121.626 34.9712 121.604ZM38.1303 113.183L38.1309 113.196L38.1431 113.196L38.3162 114.694L34.8255 118.18L34.7874 117.682L34.7361 116.587L33.664 116.536L33.1396 116.496L36.6302 113.01L38.1303 113.183ZM29.8311 111.7C31.8039 112.208 33.9372 112.638 36.2111 112.947L32.6647 116.489L29.7119 116.351C29.6901 114.843 29.7267 113.291 29.8311 111.7ZM48.0959 113.027C46.5029 113.131 44.949 113.168 43.4386 113.146L43.3003 110.197L46.8474 106.654C47.1568 108.925 47.5876 111.056 48.0959 113.027ZM41.686 108.396L42.8468 108.484L42.9371 109.667L43.0976 113.09L38.7328 112.886C38.644 112.877 38.5554 112.869 38.467 112.86C38.4582 112.774 38.4497 112.687 38.4413 112.601L38.2363 108.234L41.686 108.396ZM43.2034 108.129L43.2748 109.651L43.2812 109.735L46.7912 106.229C46.7273 105.732 46.6693 105.228 46.6176 104.719C46.1069 104.667 45.6026 104.609 45.1048 104.545L41.5952 108.051L41.7022 108.059L43.2034 108.129ZM44.6794 104.489L41.1321 108.032L38.1802 107.894C38.1583 106.385 38.1949 104.833 38.2994 103.242C40.2722 103.75 42.4055 104.18 44.6794 104.489ZM56.5642 104.569C54.9806 104.672 53.4356 104.709 51.9336 104.688L51.7941 101.713L55.3157 98.1952C55.6251 100.467 56.0559 102.598 56.5642 104.569ZM55.0363 96.2551C54.5425 96.2047 54.0548 96.1484 53.5731 96.0866L50.0954 99.5603L51.0288 99.6139L51.6973 99.6453L51.732 100.386L51.7814 101.244L55.2595 97.7703C55.1977 97.2896 55.1414 96.8028 55.091 96.3101L55.0387 96.3077L55.0363 96.2551ZM53.1477 96.0305L49.6259 99.5481L46.6481 99.4085C46.6271 97.9083 46.6639 96.3652 46.7677 94.7835C48.7405 95.2912 50.8738 95.7214 53.1477 96.0305ZM46.7302 99.7503L51.0154 99.9513L51.3696 99.9716L51.3942 100.4L51.5914 104.606L46.9479 104.389L46.7302 99.7503ZM55.4036 95.9428C55.7189 95.9747 56.0366 96.0042 56.3567 96.0312L60.0054 96.2016L59.7992 91.8009L59.7815 91.5695L59.5775 91.554L55.1442 91.3461L55.3156 94.9974C55.3425 95.3149 55.3718 95.63 55.4036 95.9428ZM60.1113 91.2411L60.1368 91.785L60.2159 92.8197L63.654 89.3855C63.5902 88.8886 63.5322 88.3852 63.4804 87.8754C62.9697 87.8237 62.4654 87.7657 61.9677 87.7019L58.5299 91.1357L59.5935 91.2168L60.1113 91.2411ZM60.2082 93.3085L60.345 96.2288C61.8361 96.2512 63.3696 96.2166 64.9413 96.1161C64.4406 94.1643 64.0161 92.056 63.7103 89.8105L60.2082 93.3085ZM55.2301 86.4162C57.1839 86.9163 59.2944 87.3402 61.5422 87.6457L58.0399 91.1439L55.1172 91.0069C55.0949 89.5176 55.1295 87.986 55.2301 86.4162ZM68.4519 87.7639L68.2346 83.1272L63.592 82.9095L63.5932 82.9631L63.7269 85.81C63.7675 86.3754 63.816 86.9336 63.8719 87.4844C64.4252 87.5404 64.9861 87.589 65.5541 87.6297L68.4084 87.763L68.4519 87.7639Z" stroke="black" stroke-width="1.35152" mask="url(#path-6-outside-1)"/>
<path d="M16.4404 147.564C16.1822 147.822 15.8163 147.914 15.4918 147.823C12.4893 146.602 10.3336 145.295 8.56357 143.526C6.79033 141.754 5.34776 139.462 3.85521 136.184C3.76828 135.863 3.86154 135.502 4.11688 135.247L7.98497 131.384C9.81291 134.121 11.4582 136.275 13.3714 138.213C15.2906 140.157 17.4548 141.857 20.3004 143.709L16.4404 147.564Z" fill="#4A81E8" stroke="black" stroke-width="2.02728" stroke-linecap="round"/>
<path d="M10.5291 129.728L15.5592 124.704L20.601 130.945L20.669 131.029L20.7534 131.097L27.0017 136.133L21.9647 141.164C19.0891 139.641 17.0313 138.221 15.302 136.487C13.5693 134.749 12.1254 132.653 10.5291 129.728Z" fill="#4A81E8" stroke="black" stroke-width="2.02728" stroke-linecap="round"/>
<path d="M28.8123 134.578C22.6909 131.697 20.1473 129.088 17.1144 122.894L65.2184 74.8462L76.9163 86.5305L28.8123 134.578Z" stroke="black" stroke-width="2.02728"/>
<path d="M15.4881 121.123L16.0197 121.985L15.4881 121.123C14.4859 121.739 13.9356 123.082 14.5389 124.223C16.1962 127.358 17.7709 129.746 19.8119 131.791C21.8523 133.835 24.266 135.444 27.4772 137.149C28.6187 137.755 29.9648 137.208 30.5838 136.208C31.2186 135.183 31.0489 133.715 29.8436 133.075C26.8228 131.472 24.8045 130.089 23.167 128.449C21.5301 126.809 20.1808 124.818 18.6224 121.87C17.985 120.664 16.5161 120.491 15.4881 121.123Z" fill="#2E59A8" stroke="black" stroke-width="2.02728" stroke-linecap="round"/>
<path d="M8.43923 128.161L8.97086 129.023L8.43923 128.161C7.43709 128.777 6.88676 130.12 7.4901 131.261C9.14741 134.397 10.7221 136.784 12.7631 138.829C14.8035 140.873 17.2172 142.482 20.4284 144.187C21.5699 144.793 22.916 144.246 23.5349 143.246C24.1697 142.221 24.0001 140.753 22.7948 140.114C19.774 138.51 17.7557 137.128 16.1182 135.487C14.4812 133.847 13.132 131.856 11.5736 128.908C10.9362 127.702 9.46728 127.529 8.43923 128.161Z" fill="#2E59A8" stroke="black" stroke-width="2.02728" stroke-linecap="round"/>
<path d="M15.7611 140.98C13.9343 142.002 13.3018 143.436 13.4936 145.266C5.31287 139.393 6.52779 133.886 8.5873 131.971C8.20383 133.546 13.7373 139.135 15.7611 140.98Z" fill="black"/>
<path d="M21.8488 133.833C18.9851 134.797 18.1649 136.969 18.4725 138.27C13.2744 134.269 11.4778 130.148 11.2293 128.588L15.1914 124.63C15.234 127.141 19.6474 131.812 21.8488 133.833Z" fill="black"/>
<path d="M30.2411 18.9834L76.3344 65.7472L70.5258 71.6737L23.6074 23.1124C27.3629 19.8521 29.8831 18.3674 30.2411 18.9834Z" fill="#2A54A8"/>
<path d="M70.3213 71.4682L65.278 76.614L17.5927 28.5969C18.3575 26.7008 19.9921 23.7611 22.2262 21.7316L70.3213 71.4682Z" fill="#4EE5CD"/>
<path d="M71.4329 71.9809C66.0116 61.5927 37.3027 30.5202 26.6729 19.2061C21.0724 20.5312 19.0744 24.9439 18.3724 26.6929C48.2568 55.3928 61.0924 66.8986 71.4329 71.9809Z" fill="#4A81E6"/>
<path d="M26.3635 24.8272L29.9609 28.0092L29.5839 30.4389L27.4599 30.5074L24.0683 27.1197L26.021 26.8802L26.3635 24.8272Z" fill="white"/>
<path d="M34.5513 33.0054L38.1488 36.1875L37.7717 38.6172L35.6477 38.6856L32.2561 35.298L34.2088 35.0584L34.5513 33.0054Z" fill="white"/>
<path d="M42.8077 41.2521L46.4051 44.4342L46.028 46.8638L43.904 46.9323L40.5124 43.5447L42.4651 43.3051L42.8077 41.2521Z" fill="white"/>
<path d="M51.7834 50.2174L55.3809 53.3994L55.0038 55.8291L52.8798 55.8976L49.4882 52.51L51.4409 52.2704L51.7834 50.2174Z" fill="white"/>
<path d="M60.0398 58.4641L63.6372 61.6461L63.2602 64.0758L61.1361 64.1443L57.7445 60.7566L59.6973 60.5171L60.0398 58.4641Z" fill="white"/>
<path d="M26.0985 21.5272L21.1646 22.0309L20.9964 26.9591L25.9865 26.8472L26.0985 21.5272Z" fill="#4EE5CD"/>
<path d="M34.6211 30.0397L29.6872 30.5434L29.519 35.4716L34.5091 35.3596L34.6211 30.0397Z" fill="#4EE5CD"/>
<path d="M42.9473 38.3562L38.0135 38.8599L37.8453 43.7881L42.8353 43.6762L42.9473 38.3562Z" fill="#4EE5CD"/>
<path d="M51.3857 46.7847L46.4519 47.2885L46.2837 52.2166L51.2737 52.1047L51.3857 46.7847Z" fill="#4EE5CD"/>
<path d="M60.0764 55.4653L55.1426 55.969L54.9744 60.8972L59.9645 60.7852L60.0764 55.4653Z" fill="#4EE5CD"/>
<path d="M68.4588 63.8378L63.5249 64.3416L63.3567 69.2697L68.3468 69.1578L68.4588 63.8378Z" fill="#4EE5CD"/>
<mask id="path-18-outside-2" maskUnits="userSpaceOnUse" x="14.0957" y="14.1516" width="64.3842" height="64.3089" fill="black">
<rect fill="white" x="14.0957" y="14.1516" width="64.3842" height="64.3089"/>
<path fill-rule="evenodd" clip-rule="evenodd" d="M31.5869 20.3152C31.4659 20.7315 31.3481 21.1559 31.2341 21.5882C29.6092 21.4709 28.0243 21.4242 26.484 21.4385L26.4843 21.4306L26.2627 21.441C24.9349 21.4583 23.6404 21.5209 22.3823 21.6222L21.4806 21.6643C21.5111 21.3781 21.5437 21.0939 21.5781 20.8117L20.2938 22.0945C20.5764 22.0601 20.8611 22.0276 21.1478 21.997L21.1058 22.8901C21.0042 24.1466 20.9415 25.4394 20.9239 26.7656L20.9131 26.9953L20.9213 26.9949C20.9071 28.5334 20.9538 30.1163 21.0712 31.7392C20.8799 31.7896 20.6901 31.8406 20.5018 31.8924L20.8195 32.2097C20.913 32.184 21.0068 32.1585 21.1011 32.1331C21.1114 32.2629 21.1221 32.3929 21.1333 32.5231L21.3707 32.7603C21.3511 32.5313 21.3328 32.3032 21.316 32.0758C23.5002 31.4975 25.8868 31.0127 28.4477 30.6825L29.6449 30.5445C29.3583 33.5582 29.2928 36.7898 29.5395 40.1976C29.3482 40.2479 29.1584 40.299 28.9701 40.3508L29.2878 40.6681C29.3813 40.6424 29.4751 40.6169 29.5694 40.5915C29.5797 40.7213 29.5904 40.8513 29.6016 40.9815L29.9193 41.2988C29.8967 41.0365 29.8761 40.7752 29.8572 40.5149C32.3589 39.8563 35.1246 39.3207 38.1124 38.9996L38.1113 39.0222C37.8263 42.0305 37.7617 45.2555 38.0078 48.656C37.8165 48.7063 37.6267 48.7574 37.4384 48.8092L37.7561 49.1265C37.8496 49.1008 37.9434 49.0753 38.0377 49.0499C38.0479 49.1797 38.0587 49.3097 38.0699 49.4399L38.3876 49.7572C38.365 49.4949 38.3444 49.2336 38.3255 48.9733C40.5259 48.394 42.9304 47.9099 45.5107 47.5832L46.5816 47.4597C46.2949 50.4739 46.2294 53.706 46.4761 57.1144C46.2848 57.1647 46.095 57.2158 45.9067 57.2676L46.2244 57.5849C46.3179 57.5592 46.4117 57.5337 46.506 57.5083C46.5162 57.6381 46.527 57.7681 46.5382 57.8983L46.8559 58.2156C46.8333 57.9533 46.8127 57.692 46.7938 57.4317C48.9721 56.8582 51.3505 56.378 53.9015 56.0515L55.0186 55.9226L54.9837 56.6667C54.8779 57.9592 54.8131 59.2901 54.7964 60.6564L54.7882 60.8308L54.7945 60.8305C54.7806 62.3395 54.8253 63.8912 54.9379 65.4815C54.7238 65.5375 54.5115 65.5945 54.3013 65.6524L54.6927 66.0433C54.7862 66.0176 54.88 65.9921 54.9743 65.9667C54.9845 66.0965 54.9953 66.2265 55.0065 66.3567L55.3241 66.674C55.3016 66.4117 55.281 66.1504 55.2621 65.8901C57.7414 65.2374 60.4798 64.7055 63.4369 64.3834C63.1458 67.4907 63.09 70.8285 63.3688 74.3515C63.2746 74.3768 63.1807 74.4024 63.0873 74.4281L65.4288 76.7669L69.061 73.1389C67.1736 73.439 65.3905 73.8207 63.7239 74.2572C63.6024 72.5418 63.5599 70.8714 63.5849 69.251L68.5568 69.0178L68.7895 64.0522C70.4119 64.0273 72.0844 64.0697 73.8018 64.191C73.3649 65.8556 72.9827 67.6367 72.6823 69.5219L76.7667 65.4422L74.1723 62.8508C74.0783 63.1745 73.9862 63.503 73.8962 63.8364C70.3691 63.5578 67.0274 63.6136 63.9165 63.9043C64.239 60.9508 64.7715 58.2155 65.4249 55.7391C66.0143 55.7817 66.6089 55.8336 67.2085 55.8952L66.8908 55.5779C66.4247 55.53 65.9616 55.488 65.5017 55.4516C65.5916 55.1183 65.6837 54.7898 65.7778 54.4661L65.3863 54.0751C65.2591 54.513 65.1354 54.9598 65.0158 55.4153C63.4236 55.3028 61.87 55.2581 60.3591 55.2721L60.3594 55.2661L60.1932 55.2738C58.8252 55.2904 57.4926 55.3549 56.1985 55.4604L55.4454 55.4956L55.5704 54.4148C55.8974 51.8537 56.3799 49.4664 56.9567 47.2807C57.546 47.3233 58.1406 47.3752 58.7402 47.4368L58.4225 47.1195C57.9564 47.0716 57.4933 47.0296 57.0334 46.9932C57.1233 46.6599 57.2154 46.3314 57.3095 46.0077L56.9918 45.6904C56.8708 46.1067 56.753 46.5311 56.639 46.9634C53.2264 46.717 49.9904 46.7824 46.9725 47.0688L47.0917 46.0383C47.4188 43.4462 47.9055 41.0313 48.4884 38.8223C49.0777 38.8649 49.6723 38.9168 50.2719 38.9784L49.9542 38.6611C49.4881 38.6132 49.025 38.5712 48.5651 38.5348C48.655 38.2015 48.7471 37.873 48.8412 37.5493L48.5235 37.232C48.4025 37.6483 48.2847 38.0727 48.1707 38.505C44.7691 38.2594 41.543 38.3236 38.5334 38.6077L38.503 38.6091C38.8245 35.6249 39.3607 32.8626 40.0201 30.3639C40.6094 30.4065 41.204 30.4584 41.8036 30.52L41.4859 30.2027C41.0198 30.1548 40.5567 30.1128 40.0968 30.0764C40.1867 29.7431 40.2788 29.4146 40.3729 29.0909L40.0552 28.7736C39.9342 29.1899 39.8164 29.6143 39.7024 30.0466C36.2931 29.8004 33.0601 29.8655 30.0447 30.1512L30.038 30.1515L30.1762 28.956C30.5067 26.3981 30.9921 24.0143 31.571 21.8327C32.1278 21.8738 32.6892 21.9233 33.2551 21.9815L33.0176 21.7443C32.5515 21.6964 32.0884 21.6544 31.6285 21.618C31.7184 21.2847 31.8105 20.9562 31.9046 20.6325L31.5869 20.3152ZM26.4727 21.6785C27.9982 21.6579 29.5679 21.6968 31.1774 21.8049C30.6608 23.796 30.2232 25.9518 29.9099 28.2515L26.3321 24.6783L26.4727 21.6785ZM28.1677 30.3604C28.6593 30.2973 29.1574 30.24 29.6616 30.1888L29.6625 30.169L29.6819 30.1681C29.7332 29.6646 29.7905 29.1673 29.8536 28.6764L26.3106 25.1379L26.2352 26.7458L24.624 26.8213L28.1677 30.3604ZM24.1639 26.8429L27.7422 30.4166C25.4399 30.7295 23.2816 31.1666 21.2882 31.6825C21.1799 30.0751 21.141 28.5073 21.1616 26.9837L24.1639 26.8429ZM24.2851 26.4992L21.2682 26.6407L21.4859 22.002L26.1294 21.7852L25.9891 24.7777L25.8668 26.3786L24.2851 26.4992ZM30.244 30.4799C30.1617 30.4878 30.0796 30.496 29.9977 30.5043C29.9896 30.5838 29.9817 30.6634 29.974 30.7433L29.768 35.1306L33.6471 34.9487L34.3902 34.8921L34.4488 34.1247L34.6292 30.2751L30.244 30.4799ZM34.9703 30.2178L34.832 33.1683L38.3781 36.7103C38.6875 34.4387 39.1183 32.3076 39.6266 30.3369C38.034 30.2326 36.4804 30.196 34.9703 30.2178ZM38.1293 38.6395L38.1299 38.6265L38.1421 38.6259L38.3152 37.1286L34.8245 33.6419L34.7864 34.1407L34.7351 35.2357L33.6631 35.2859L33.1386 35.3259L36.6293 38.8125L38.1293 38.6395ZM29.8301 40.1219C31.8029 39.6143 33.9363 39.1841 36.2101 38.875L32.6638 35.3328L29.7109 35.4713C29.6891 36.9796 29.7257 38.5312 29.8301 40.1219ZM48.0949 38.7953C46.5019 38.6909 44.9481 38.6544 43.4376 38.6762L43.2994 41.6257L46.8464 45.1687C47.1558 42.8971 47.5866 40.766 48.0949 38.7953ZM41.6851 43.4263L42.8458 43.3378L42.9362 42.1554L43.0966 38.7326L38.7318 38.9364C38.643 38.9449 38.5544 38.9537 38.466 38.9627C38.4573 39.0487 38.4487 39.1348 38.4404 39.2212L38.2354 43.5881L41.6851 43.4263ZM43.2025 43.6931L43.2738 42.1714L43.2802 42.0877L46.7902 45.5936C46.7263 46.0905 46.6683 46.5939 46.6166 47.1037C46.1059 47.1554 45.6016 47.2134 45.1039 47.2772L41.5942 43.7717L41.7012 43.7635L43.2025 43.6931ZM44.6784 47.3334L41.1311 43.7903L38.1792 43.9287C38.1574 45.4373 38.194 46.9893 38.2984 48.5803C40.2712 48.0727 42.4046 47.6425 44.6784 47.3334ZM56.5632 47.2537C54.9796 47.15 53.4347 47.1132 51.9326 47.1342L51.7932 50.1096L55.3147 53.6271C55.6241 51.3555 56.0549 49.2244 56.5632 47.2537ZM55.0353 55.5672C54.5416 55.6176 54.0538 55.6739 53.5722 55.7356L50.0944 52.262L51.0278 52.2084L51.6963 52.177L51.731 51.4358L51.7804 50.578L55.2585 54.052C55.1967 54.5327 55.1404 55.0194 55.09 55.5122L55.0378 55.5146L55.0353 55.5672ZM53.1467 55.7918L49.6249 52.2741L46.6471 52.4138C46.6261 53.914 46.6629 55.4571 46.7667 57.0387C48.7395 56.5311 50.8729 56.1008 53.1467 55.7918ZM46.7292 52.072L51.0144 51.871L51.3686 51.8507L51.3933 51.4224L51.5904 47.2164L46.9469 47.4333L46.7292 52.072ZM55.4026 55.8795C55.7179 55.8475 56.0356 55.818 56.3558 55.791L60.0044 55.6206L59.7982 60.0214L59.7805 60.2527L59.5766 60.2683L55.1432 60.4762L55.3146 56.8249C55.3415 56.5074 55.3709 56.1922 55.4026 55.8795ZM60.1103 60.5812L60.1358 60.0373L60.2149 59.0026L63.653 62.4368C63.5892 62.9336 63.5312 63.4371 63.4795 63.9469C62.9688 63.9985 62.4645 64.0565 61.9667 64.1204L58.5289 60.6866L59.5926 60.6055L60.1103 60.5812ZM60.2072 58.5138L60.3441 55.5934C61.8352 55.5711 63.3686 55.6057 64.9404 55.7062C64.4396 57.658 64.0152 59.7663 63.7093 62.0118L60.2072 58.5138ZM55.2291 65.4061C57.1829 64.906 59.2935 64.4821 61.5413 64.1765L58.039 60.6783L55.1162 60.8154C55.0939 62.3047 55.1285 63.8363 55.2291 65.4061ZM68.4509 64.0584L68.2336 68.695L63.5911 68.9127L63.5922 68.8591L63.7259 66.0122C63.7665 65.4469 63.815 64.8886 63.8709 64.3378C64.4242 64.2818 64.9851 64.2332 65.5531 64.1926L68.4074 64.0593L68.4509 64.0584Z"/>
</mask>
<path fill-rule="evenodd" clip-rule="evenodd" d="M31.5869 20.3152C31.4659 20.7315 31.3481 21.1559 31.2341 21.5882C29.6092 21.4709 28.0243 21.4242 26.484 21.4385L26.4843 21.4306L26.2627 21.441C24.9349 21.4583 23.6404 21.5209 22.3823 21.6222L21.4806 21.6643C21.5111 21.3781 21.5437 21.0939 21.5781 20.8117L20.2938 22.0945C20.5764 22.0601 20.8611 22.0276 21.1478 21.997L21.1058 22.8901C21.0042 24.1466 20.9415 25.4394 20.9239 26.7656L20.9131 26.9953L20.9213 26.9949C20.9071 28.5334 20.9538 30.1163 21.0712 31.7392C20.8799 31.7896 20.6901 31.8406 20.5018 31.8924L20.8195 32.2097C20.913 32.184 21.0068 32.1585 21.1011 32.1331C21.1114 32.2629 21.1221 32.3929 21.1333 32.5231L21.3707 32.7603C21.3511 32.5313 21.3328 32.3032 21.316 32.0758C23.5002 31.4975 25.8868 31.0127 28.4477 30.6825L29.6449 30.5445C29.3583 33.5582 29.2928 36.7898 29.5395 40.1976C29.3482 40.2479 29.1584 40.299 28.9701 40.3508L29.2878 40.6681C29.3813 40.6424 29.4751 40.6169 29.5694 40.5915C29.5797 40.7213 29.5904 40.8513 29.6016 40.9815L29.9193 41.2988C29.8967 41.0365 29.8761 40.7752 29.8572 40.5149C32.3589 39.8563 35.1246 39.3207 38.1124 38.9996L38.1113 39.0222C37.8263 42.0305 37.7617 45.2555 38.0078 48.656C37.8165 48.7063 37.6267 48.7574 37.4384 48.8092L37.7561 49.1265C37.8496 49.1008 37.9434 49.0753 38.0377 49.0499C38.0479 49.1797 38.0587 49.3097 38.0699 49.4399L38.3876 49.7572C38.365 49.4949 38.3444 49.2336 38.3255 48.9733C40.5259 48.394 42.9304 47.9099 45.5107 47.5832L46.5816 47.4597C46.2949 50.4739 46.2294 53.706 46.4761 57.1144C46.2848 57.1647 46.095 57.2158 45.9067 57.2676L46.2244 57.5849C46.3179 57.5592 46.4117 57.5337 46.506 57.5083C46.5162 57.6381 46.527 57.7681 46.5382 57.8983L46.8559 58.2156C46.8333 57.9533 46.8127 57.692 46.7938 57.4317C48.9721 56.8582 51.3505 56.378 53.9015 56.0515L55.0186 55.9226L54.9837 56.6667C54.8779 57.9592 54.8131 59.2901 54.7964 60.6564L54.7882 60.8308L54.7945 60.8305C54.7806 62.3395 54.8253 63.8912 54.9379 65.4815C54.7238 65.5375 54.5115 65.5945 54.3013 65.6524L54.6927 66.0433C54.7862 66.0176 54.88 65.9921 54.9743 65.9667C54.9845 66.0965 54.9953 66.2265 55.0065 66.3567L55.3241 66.674C55.3016 66.4117 55.281 66.1504 55.2621 65.8901C57.7414 65.2374 60.4798 64.7055 63.4369 64.3834C63.1458 67.4907 63.09 70.8285 63.3688 74.3515C63.2746 74.3768 63.1807 74.4024 63.0873 74.4281L65.4288 76.7669L69.061 73.1389C67.1736 73.439 65.3905 73.8207 63.7239 74.2572C63.6024 72.5418 63.5599 70.8714 63.5849 69.251L68.5568 69.0178L68.7895 64.0522C70.4119 64.0273 72.0844 64.0697 73.8018 64.191C73.3649 65.8556 72.9827 67.6367 72.6823 69.5219L76.7667 65.4422L74.1723 62.8508C74.0783 63.1745 73.9862 63.503 73.8962 63.8364C70.3691 63.5578 67.0274 63.6136 63.9165 63.9043C64.239 60.9508 64.7715 58.2155 65.4249 55.7391C66.0143 55.7817 66.6089 55.8336 67.2085 55.8952L66.8908 55.5779C66.4247 55.53 65.9616 55.488 65.5017 55.4516C65.5916 55.1183 65.6837 54.7898 65.7778 54.4661L65.3863 54.0751C65.2591 54.513 65.1354 54.9598 65.0158 55.4153C63.4236 55.3028 61.87 55.2581 60.3591 55.2721L60.3594 55.2661L60.1932 55.2738C58.8252 55.2904 57.4926 55.3549 56.1985 55.4604L55.4454 55.4956L55.5704 54.4148C55.8974 51.8537 56.3799 49.4664 56.9567 47.2807C57.546 47.3233 58.1406 47.3752 58.7402 47.4368L58.4225 47.1195C57.9564 47.0716 57.4933 47.0296 57.0334 46.9932C57.1233 46.6599 57.2154 46.3314 57.3095 46.0077L56.9918 45.6904C56.8708 46.1067 56.753 46.5311 56.639 46.9634C53.2264 46.717 49.9904 46.7824 46.9725 47.0688L47.0917 46.0383C47.4188 43.4462 47.9055 41.0313 48.4884 38.8223C49.0777 38.8649 49.6723 38.9168 50.2719 38.9784L49.9542 38.6611C49.4881 38.6132 49.025 38.5712 48.5651 38.5348C48.655 38.2015 48.7471 37.873 48.8412 37.5493L48.5235 37.232C48.4025 37.6483 48.2847 38.0727 48.1707 38.505C44.7691 38.2594 41.543 38.3236 38.5334 38.6077L38.503 38.6091C38.8245 35.6249 39.3607 32.8626 40.0201 30.3639C40.6094 30.4065 41.204 30.4584 41.8036 30.52L41.4859 30.2027C41.0198 30.1548 40.5567 30.1128 40.0968 30.0764C40.1867 29.7431 40.2788 29.4146 40.3729 29.0909L40.0552 28.7736C39.9342 29.1899 39.8164 29.6143 39.7024 30.0466C36.2931 29.8004 33.0601 29.8655 30.0447 30.1512L30.038 30.1515L30.1762 28.956C30.5067 26.3981 30.9921 24.0143 31.571 21.8327C32.1278 21.8738 32.6892 21.9233 33.2551 21.9815L33.0176 21.7443C32.5515 21.6964 32.0884 21.6544 31.6285 21.618C31.7184 21.2847 31.8105 20.9562 31.9046 20.6325L31.5869 20.3152ZM26.4727 21.6785C27.9982 21.6579 29.5679 21.6968 31.1774 21.8049C30.6608 23.796 30.2232 25.9518 29.9099 28.2515L26.3321 24.6783L26.4727 21.6785ZM28.1677 30.3604C28.6593 30.2973 29.1574 30.24 29.6616 30.1888L29.6625 30.169L29.6819 30.1681C29.7332 29.6646 29.7905 29.1673 29.8536 28.6764L26.3106 25.1379L26.2352 26.7458L24.624 26.8213L28.1677 30.3604ZM24.1639 26.8429L27.7422 30.4166C25.4399 30.7295 23.2816 31.1666 21.2882 31.6825C21.1799 30.0751 21.141 28.5073 21.1616 26.9837L24.1639 26.8429ZM24.2851 26.4992L21.2682 26.6407L21.4859 22.002L26.1294 21.7852L25.9891 24.7777L25.8668 26.3786L24.2851 26.4992ZM30.244 30.4799C30.1617 30.4878 30.0796 30.496 29.9977 30.5043C29.9896 30.5838 29.9817 30.6634 29.974 30.7433L29.768 35.1306L33.6471 34.9487L34.3902 34.8921L34.4488 34.1247L34.6292 30.2751L30.244 30.4799ZM34.9703 30.2178L34.832 33.1683L38.3781 36.7103C38.6875 34.4387 39.1183 32.3076 39.6266 30.3369C38.034 30.2326 36.4804 30.196 34.9703 30.2178ZM38.1293 38.6395L38.1299 38.6265L38.1421 38.6259L38.3152 37.1286L34.8245 33.6419L34.7864 34.1407L34.7351 35.2357L33.6631 35.2859L33.1386 35.3259L36.6293 38.8125L38.1293 38.6395ZM29.8301 40.1219C31.8029 39.6143 33.9363 39.1841 36.2101 38.875L32.6638 35.3328L29.7109 35.4713C29.6891 36.9796 29.7257 38.5312 29.8301 40.1219ZM48.0949 38.7953C46.5019 38.6909 44.9481 38.6544 43.4376 38.6762L43.2994 41.6257L46.8464 45.1687C47.1558 42.8971 47.5866 40.766 48.0949 38.7953ZM41.6851 43.4263L42.8458 43.3378L42.9362 42.1554L43.0966 38.7326L38.7318 38.9364C38.643 38.9449 38.5544 38.9537 38.466 38.9627C38.4573 39.0487 38.4487 39.1348 38.4404 39.2212L38.2354 43.5881L41.6851 43.4263ZM43.2025 43.6931L43.2738 42.1714L43.2802 42.0877L46.7902 45.5936C46.7263 46.0905 46.6683 46.5939 46.6166 47.1037C46.1059 47.1554 45.6016 47.2134 45.1039 47.2772L41.5942 43.7717L41.7012 43.7635L43.2025 43.6931ZM44.6784 47.3334L41.1311 43.7903L38.1792 43.9287C38.1574 45.4373 38.194 46.9893 38.2984 48.5803C40.2712 48.0727 42.4046 47.6425 44.6784 47.3334ZM56.5632 47.2537C54.9796 47.15 53.4347 47.1132 51.9326 47.1342L51.7932 50.1096L55.3147 53.6271C55.6241 51.3555 56.0549 49.2244 56.5632 47.2537ZM55.0353 55.5672C54.5416 55.6176 54.0538 55.6739 53.5722 55.7356L50.0944 52.262L51.0278 52.2084L51.6963 52.177L51.731 51.4358L51.7804 50.578L55.2585 54.052C55.1967 54.5327 55.1404 55.0194 55.09 55.5122L55.0378 55.5146L55.0353 55.5672ZM53.1467 55.7918L49.6249 52.2741L46.6471 52.4138C46.6261 53.914 46.6629 55.4571 46.7667 57.0387C48.7395 56.5311 50.8729 56.1008 53.1467 55.7918ZM46.7292 52.072L51.0144 51.871L51.3686 51.8507L51.3933 51.4224L51.5904 47.2164L46.9469 47.4333L46.7292 52.072ZM55.4026 55.8795C55.7179 55.8475 56.0356 55.818 56.3558 55.791L60.0044 55.6206L59.7982 60.0214L59.7805 60.2527L59.5766 60.2683L55.1432 60.4762L55.3146 56.8249C55.3415 56.5074 55.3709 56.1922 55.4026 55.8795ZM60.1103 60.5812L60.1358 60.0373L60.2149 59.0026L63.653 62.4368C63.5892 62.9336 63.5312 63.4371 63.4795 63.9469C62.9688 63.9985 62.4645 64.0565 61.9667 64.1204L58.5289 60.6866L59.5926 60.6055L60.1103 60.5812ZM60.2072 58.5138L60.3441 55.5934C61.8352 55.5711 63.3686 55.6057 64.9404 55.7062C64.4396 57.658 64.0152 59.7663 63.7093 62.0118L60.2072 58.5138ZM55.2291 65.4061C57.1829 64.906 59.2935 64.4821 61.5413 64.1765L58.039 60.6783L55.1162 60.8154C55.0939 62.3047 55.1285 63.8363 55.2291 65.4061ZM68.4509 64.0584L68.2336 68.695L63.5911 68.9127L63.5922 68.8591L63.7259 66.0122C63.7665 65.4469 63.815 64.8886 63.8709 64.3378C64.4242 64.2818 64.9851 64.2332 65.5531 64.1926L68.4074 64.0593L68.4509 64.0584Z" fill="black"/>
<path fill-rule="evenodd" clip-rule="evenodd" d="M31.5869 20.3152C31.4659 20.7315 31.3481 21.1559 31.2341 21.5882C29.6092 21.4709 28.0243 21.4242 26.484 21.4385L26.4843 21.4306L26.2627 21.441C24.9349 21.4583 23.6404 21.5209 22.3823 21.6222L21.4806 21.6643C21.5111 21.3781 21.5437 21.0939 21.5781 20.8117L20.2938 22.0945C20.5764 22.0601 20.8611 22.0276 21.1478 21.997L21.1058 22.8901C21.0042 24.1466 20.9415 25.4394 20.9239 26.7656L20.9131 26.9953L20.9213 26.9949C20.9071 28.5334 20.9538 30.1163 21.0712 31.7392C20.8799 31.7896 20.6901 31.8406 20.5018 31.8924L20.8195 32.2097C20.913 32.184 21.0068 32.1585 21.1011 32.1331C21.1114 32.2629 21.1221 32.3929 21.1333 32.5231L21.3707 32.7603C21.3511 32.5313 21.3328 32.3032 21.316 32.0758C23.5002 31.4975 25.8868 31.0127 28.4477 30.6825L29.6449 30.5445C29.3583 33.5582 29.2928 36.7898 29.5395 40.1976C29.3482 40.2479 29.1584 40.299 28.9701 40.3508L29.2878 40.6681C29.3813 40.6424 29.4751 40.6169 29.5694 40.5915C29.5797 40.7213 29.5904 40.8513 29.6016 40.9815L29.9193 41.2988C29.8967 41.0365 29.8761 40.7752 29.8572 40.5149C32.3589 39.8563 35.1246 39.3207 38.1124 38.9996L38.1113 39.0222C37.8263 42.0305 37.7617 45.2555 38.0078 48.656C37.8165 48.7063 37.6267 48.7574 37.4384 48.8092L37.7561 49.1265C37.8496 49.1008 37.9434 49.0753 38.0377 49.0499C38.0479 49.1797 38.0587 49.3097 38.0699 49.4399L38.3876 49.7572C38.365 49.4949 38.3444 49.2336 38.3255 48.9733C40.5259 48.394 42.9304 47.9099 45.5107 47.5832L46.5816 47.4597C46.2949 50.4739 46.2294 53.706 46.4761 57.1144C46.2848 57.1647 46.095 57.2158 45.9067 57.2676L46.2244 57.5849C46.3179 57.5592 46.4117 57.5337 46.506 57.5083C46.5162 57.6381 46.527 57.7681 46.5382 57.8983L46.8559 58.2156C46.8333 57.9533 46.8127 57.692 46.7938 57.4317C48.9721 56.8582 51.3505 56.378 53.9015 56.0515L55.0186 55.9226L54.9837 56.6667C54.8779 57.9592 54.8131 59.2901 54.7964 60.6564L54.7882 60.8308L54.7945 60.8305C54.7806 62.3395 54.8253 63.8912 54.9379 65.4815C54.7238 65.5375 54.5115 65.5945 54.3013 65.6524L54.6927 66.0433C54.7862 66.0176 54.88 65.9921 54.9743 65.9667C54.9845 66.0965 54.9953 66.2265 55.0065 66.3567L55.3241 66.674C55.3016 66.4117 55.281 66.1504 55.2621 65.8901C57.7414 65.2374 60.4798 64.7055 63.4369 64.3834C63.1458 67.4907 63.09 70.8285 63.3688 74.3515C63.2746 74.3768 63.1807 74.4024 63.0873 74.4281L65.4288 76.7669L69.061 73.1389C67.1736 73.439 65.3905 73.8207 63.7239 74.2572C63.6024 72.5418 63.5599 70.8714 63.5849 69.251L68.5568 69.0178L68.7895 64.0522C70.4119 64.0273 72.0844 64.0697 73.8018 64.191C73.3649 65.8556 72.9827 67.6367 72.6823 69.5219L76.7667 65.4422L74.1723 62.8508C74.0783 63.1745 73.9862 63.503 73.8962 63.8364C70.3691 63.5578 67.0274 63.6136 63.9165 63.9043C64.239 60.9508 64.7715 58.2155 65.4249 55.7391C66.0143 55.7817 66.6089 55.8336 67.2085 55.8952L66.8908 55.5779C66.4247 55.53 65.9616 55.488 65.5017 55.4516C65.5916 55.1183 65.6837 54.7898 65.7778 54.4661L65.3863 54.0751C65.2591 54.513 65.1354 54.9598 65.0158 55.4153C63.4236 55.3028 61.87 55.2581 60.3591 55.2721L60.3594 55.2661L60.1932 55.2738C58.8252 55.2904 57.4926 55.3549 56.1985 55.4604L55.4454 55.4956L55.5704 54.4148C55.8974 51.8537 56.3799 49.4664 56.9567 47.2807C57.546 47.3233 58.1406 47.3752 58.7402 47.4368L58.4225 47.1195C57.9564 47.0716 57.4933 47.0296 57.0334 46.9932C57.1233 46.6599 57.2154 46.3314 57.3095 46.0077L56.9918 45.6904C56.8708 46.1067 56.753 46.5311 56.639 46.9634C53.2264 46.717 49.9904 46.7824 46.9725 47.0688L47.0917 46.0383C47.4188 43.4462 47.9055 41.0313 48.4884 38.8223C49.0777 38.8649 49.6723 38.9168 50.2719 38.9784L49.9542 38.6611C49.4881 38.6132 49.025 38.5712 48.5651 38.5348C48.655 38.2015 48.7471 37.873 48.8412 37.5493L48.5235 37.232C48.4025 37.6483 48.2847 38.0727 48.1707 38.505C44.7691 38.2594 41.543 38.3236 38.5334 38.6077L38.503 38.6091C38.8245 35.6249 39.3607 32.8626 40.0201 30.3639C40.6094 30.4065 41.204 30.4584 41.8036 30.52L41.4859 30.2027C41.0198 30.1548 40.5567 30.1128 40.0968 30.0764C40.1867 29.7431 40.2788 29.4146 40.3729 29.0909L40.0552 28.7736C39.9342 29.1899 39.8164 29.6143 39.7024 30.0466C36.2931 29.8004 33.0601 29.8655 30.0447 30.1512L30.038 30.1515L30.1762 28.956C30.5067 26.3981 30.9921 24.0143 31.571 21.8327C32.1278 21.8738 32.6892 21.9233 33.2551 21.9815L33.0176 21.7443C32.5515 21.6964 32.0884 21.6544 31.6285 21.618C31.7184 21.2847 31.8105 20.9562 31.9046 20.6325L31.5869 20.3152ZM26.4727 21.6785C27.9982 21.6579 29.5679 21.6968 31.1774 21.8049C30.6608 23.796 30.2232 25.9518 29.9099 28.2515L26.3321 24.6783L26.4727 21.6785ZM28.1677 30.3604C28.6593 30.2973 29.1574 30.24 29.6616 30.1888L29.6625 30.169L29.6819 30.1681C29.7332 29.6646 29.7905 29.1673 29.8536 28.6764L26.3106 25.1379L26.2352 26.7458L24.624 26.8213L28.1677 30.3604ZM24.1639 26.8429L27.7422 30.4166C25.4399 30.7295 23.2816 31.1666 21.2882 31.6825C21.1799 30.0751 21.141 28.5073 21.1616 26.9837L24.1639 26.8429ZM24.2851 26.4992L21.2682 26.6407L21.4859 22.002L26.1294 21.7852L25.9891 24.7777L25.8668 26.3786L24.2851 26.4992ZM30.244 30.4799C30.1617 30.4878 30.0796 30.496 29.9977 30.5043C29.9896 30.5838 29.9817 30.6634 29.974 30.7433L29.768 35.1306L33.6471 34.9487L34.3902 34.8921L34.4488 34.1247L34.6292 30.2751L30.244 30.4799ZM34.9703 30.2178L34.832 33.1683L38.3781 36.7103C38.6875 34.4387 39.1183 32.3076 39.6266 30.3369C38.034 30.2326 36.4804 30.196 34.9703 30.2178ZM38.1293 38.6395L38.1299 38.6265L38.1421 38.6259L38.3152 37.1286L34.8245 33.6419L34.7864 34.1407L34.7351 35.2357L33.6631 35.2859L33.1386 35.3259L36.6293 38.8125L38.1293 38.6395ZM29.8301 40.1219C31.8029 39.6143 33.9363 39.1841 36.2101 38.875L32.6638 35.3328L29.7109 35.4713C29.6891 36.9796 29.7257 38.5312 29.8301 40.1219ZM48.0949 38.7953C46.5019 38.6909 44.9481 38.6544 43.4376 38.6762L43.2994 41.6257L46.8464 45.1687C47.1558 42.8971 47.5866 40.766 48.0949 38.7953ZM41.6851 43.4263L42.8458 43.3378L42.9362 42.1554L43.0966 38.7326L38.7318 38.9364C38.643 38.9449 38.5544 38.9537 38.466 38.9627C38.4573 39.0487 38.4487 39.1348 38.4404 39.2212L38.2354 43.5881L41.6851 43.4263ZM43.2025 43.6931L43.2738 42.1714L43.2802 42.0877L46.7902 45.5936C46.7263 46.0905 46.6683 46.5939 46.6166 47.1037C46.1059 47.1554 45.6016 47.2134 45.1039 47.2772L41.5942 43.7717L41.7012 43.7635L43.2025 43.6931ZM44.6784 47.3334L41.1311 43.7903L38.1792 43.9287C38.1574 45.4373 38.194 46.9893 38.2984 48.5803C40.2712 48.0727 42.4046 47.6425 44.6784 47.3334ZM56.5632 47.2537C54.9796 47.15 53.4347 47.1132 51.9326 47.1342L51.7932 50.1096L55.3147 53.6271C55.6241 51.3555 56.0549 49.2244 56.5632 47.2537ZM55.0353 55.5672C54.5416 55.6176 54.0538 55.6739 53.5722 55.7356L50.0944 52.262L51.0278 52.2084L51.6963 52.177L51.731 51.4358L51.7804 50.578L55.2585 54.052C55.1967 54.5327 55.1404 55.0194 55.09 55.5122L55.0378 55.5146L55.0353 55.5672ZM53.1467 55.7918L49.6249 52.2741L46.6471 52.4138C46.6261 53.914 46.6629 55.4571 46.7667 57.0387C48.7395 56.5311 50.8729 56.1008 53.1467 55.7918ZM46.7292 52.072L51.0144 51.871L51.3686 51.8507L51.3933 51.4224L51.5904 47.2164L46.9469 47.4333L46.7292 52.072ZM55.4026 55.8795C55.7179 55.8475 56.0356 55.818 56.3558 55.791L60.0044 55.6206L59.7982 60.0214L59.7805 60.2527L59.5766 60.2683L55.1432 60.4762L55.3146 56.8249C55.3415 56.5074 55.3709 56.1922 55.4026 55.8795ZM60.1103 60.5812L60.1358 60.0373L60.2149 59.0026L63.653 62.4368C63.5892 62.9336 63.5312 63.4371 63.4795 63.9469C62.9688 63.9985 62.4645 64.0565 61.9667 64.1204L58.5289 60.6866L59.5926 60.6055L60.1103 60.5812ZM60.2072 58.5138L60.3441 55.5934C61.8352 55.5711 63.3686 55.6057 64.9404 55.7062C64.4396 57.658 64.0152 59.7663 63.7093 62.0118L60.2072 58.5138ZM55.2291 65.4061C57.1829 64.906 59.2935 64.4821 61.5413 64.1765L58.039 60.6783L55.1162 60.8154C55.0939 62.3047 55.1285 63.8363 55.2291 65.4061ZM68.4509 64.0584L68.2336 68.695L63.5911 68.9127L63.5922 68.8591L63.7259 66.0122C63.7665 65.4469 63.815 64.8886 63.8709 64.3378C64.4242 64.2818 64.9851 64.2332 65.5531 64.1926L68.4074 64.0593L68.4509 64.0584Z" stroke="black" stroke-width="1.35152" mask="url(#path-18-outside-2)"/>
<path d="M16.4428 4.25765C16.1843 3.99987 15.8182 3.90763 15.4935 3.99953C12.4888 5.21896 10.3317 6.52511 8.56035 8.29297C6.78586 10.064 5.34227 12.3544 3.84867 15.6294C3.76167 15.9509 3.85501 16.311 4.11053 16.5659L7.98134 20.4267C9.81057 17.6919 11.457 15.5386 13.3715 13.6025C15.2922 11.6601 17.4578 9.96106 20.3055 8.11042L16.4428 4.25765Z" fill="#4A81E8" stroke="black" stroke-width="2.02728" stroke-linecap="round"/>
<path d="M10.53 22.0964L15.5602 27.1207L20.602 20.8796L20.67 20.7954L20.7544 20.7274L27.0027 15.6915L21.9657 10.6604C19.0901 12.1828 17.0322 13.6028 15.303 15.3375C13.5703 17.0756 12.1264 19.1707 10.53 22.0964Z" fill="#4A81E8" stroke="black" stroke-width="2.02728" stroke-linecap="round"/>
<path d="M28.8132 17.2469C22.6919 20.1281 20.1483 22.7373 17.1153 28.9311L65.2194 76.979L76.9173 65.2947L28.8132 17.2469Z" stroke="black" stroke-width="2.02728"/>
<path d="M14.5389 27.6014C16.1962 24.4662 17.7709 22.0785 19.8119 20.0336C21.8523 17.9893 24.266 16.3805 27.4772 14.6759C28.6187 14.07 29.9648 14.617 30.5838 15.6166C31.2186 16.6418 31.0489 18.1095 29.8436 18.7493C26.8228 20.3528 24.8045 21.7352 23.167 23.3759C21.5301 25.0159 20.1808 27.0069 18.6224 29.9551C17.985 31.1608 16.5161 31.3342 15.4881 30.7022C14.4859 30.0861 13.9356 28.7428 14.5389 27.6014Z" fill="#2E59A8" stroke="black" stroke-width="2.02728" stroke-linecap="round"/>
<path d="M7.49108 20.5628C9.14839 17.4276 10.7231 15.04 12.7641 12.9951C14.8045 10.9507 17.2182 9.34192 20.4294 7.63731C21.5708 7.03139 22.917 7.57847 23.5359 8.57806C24.1707 9.60323 24.0011 11.0709 22.7958 11.7107C19.775 13.3143 17.7567 14.6967 16.1191 16.3373C14.4822 17.9773 13.133 19.9684 11.5745 22.9165C10.9372 24.1222 9.46825 24.2956 8.44021 23.6636C7.43807 23.0475 6.88774 21.7042 7.49108 20.5628Z" fill="#2E59A8" stroke="black" stroke-width="2.02728" stroke-linecap="round"/>
<path d="M15.7621 10.8446C13.9353 9.82241 13.3028 8.38824 13.4946 6.55831C5.31385 12.4315 6.52877 17.938 8.58828 19.8528C8.20481 18.2782 13.7383 12.6888 15.7621 10.8446Z" fill="black"/>
<path d="M21.8497 17.9909C18.9861 17.0276 18.1659 14.8549 18.4735 13.5547C13.2754 17.5551 11.4788 21.6761 11.2303 23.2365L15.1924 27.194C15.235 24.6831 19.6484 20.0124 21.8497 17.9909Z" fill="black"/>
<path d="M84.0691 142.204C47.2474 142.204 17.3975 112.369 17.3975 75.61C17.3975 38.8508 47.2473 9.01631 84.0691 9.01631C120.891 9.01631 150.741 38.8508 150.741 75.61C150.741 112.369 120.891 142.204 84.0691 142.204Z" fill="#040D1F"/>
<path d="M84.5713 137.196C116.686 137.196 145.729 109.605 145.729 75.6092C145.729 41.6139 116.686 14.0226 84.5713 14.0226" stroke="#2D57A9" stroke-width="4" stroke-miterlimit="10"/>
<path d="M81.6533 136.655C50.6839 136.655 22.6778 109.306 22.6778 75.6101C22.6778 41.9139 50.6839 14.5654 81.6533 14.5654" stroke="#50E4C2" stroke-width="4" stroke-miterlimit="10"/>
<path d="M131.86 81.3738C131.326 83.6552 128.337 91.9488 126.909 95.8104L130.505 91.3286L129.89 96.1357L133 92.4428L131.648 98.7202L135.514 92.983L133.658 100.623L137.991 94.6712L135.991 103.226L140.253 95.8928L137.3 105.452L142.407 96.8811L147.465 82.6779L144.445 87.178L145.886 81.7079L142.81 87.9301L143.571 78.531L140.781 86.6011L141.325 80.4127L138.357 86.8682L139.152 79.9984L136.291 86.6872L136.35 81.2877L133.722 87.8691L134.032 81.7882L131.208 87.3289L131.86 81.3738Z" fill="#2D57A9"/>
<path d="M131.86 68.5533C131.326 66.2719 128.337 57.9783 126.909 54.1167L130.505 58.5985L129.89 53.7914L133 57.4843L131.648 51.2069L135.514 56.9441L133.658 49.3038L137.991 55.2559L135.991 46.7009L140.253 54.0343L137.3 44.4754L142.407 53.046L147.465 67.2493L144.445 62.7491L145.886 68.2192L142.81 61.997L143.571 71.3962L140.781 63.326L141.325 69.5144L138.357 63.0589L139.152 69.9287L136.291 63.2399L136.35 68.6394L133.722 62.058L134.032 68.1389L131.208 62.5982L131.86 68.5533Z" fill="#2D57A9"/>
<mask id="mask0" mask-type="alpha" maskUnits="userSpaceOnUse" x="17" y="9" width="134" height="134">
<path d="M84.0691 142.204C47.2474 142.204 17.3975 112.369 17.3975 75.61C17.3975 38.8508 47.2473 9.01631 84.0691 9.01631C120.891 9.01631 150.741 38.8508 150.741 75.61C150.741 112.369 120.891 142.204 84.0691 142.204Z" fill="#040D1F"/>
</mask>
<g mask="url(#mask0)">
<path d="M98.1827 99.2228L85.4299 111.657L87.5553 127.125L83.608 129.854L82.0898 110.141C91.8063 98.0097 114.276 82.239 124.296 75.87L123.385 78.2963C112.697 85.5751 102.13 95.2802 98.1827 99.2228Z" fill="#4D84E8"/>
<path d="M83.9126 129.551L81.1795 131.371C81.1795 119.967 79.7623 113.982 79.0537 112.264L81.7868 109.837C83.7304 113.477 84.0138 124.496 83.9126 129.551Z" fill="#47E3C0"/>
<path d="M76.0176 112.567L77.8394 118.633C79.2969 124.698 78.9528 131.573 78.4467 133.19L81.4831 131.674C82.2118 126.094 80.5722 116.51 79.9649 112.567L109.39 85.9999C103.803 86.4852 84.7219 102.559 80.8758 106.198C77.9609 107.897 76.4224 111.152 76.0176 112.567Z" fill="black"/>
<path d="M73.8926 112.87L77.5362 115.903L76.3217 112.264C77.2933 109.352 85.6333 102.559 89.6818 99.526L113.669 81.329L96.9691 91.6406L88.4672 97.7063C84.4187 101.447 76.0788 109.231 75.1071 110.444C74.1355 111.657 73.8926 112.567 73.8926 112.87Z" fill="#47E3C0"/>
<path d="M71.1592 113.78C73.3454 115.721 76.9283 117.622 78.4465 118.33L78.4465 116.207L74.1956 112.87C84.3978 98.3129 104.155 85.575 112.758 81.0257C79.4789 96.0686 71.1592 109.13 71.1592 113.78Z" fill="black"/>
<path d="M102.193 123.258L89.4406 135.692L91.5661 151.16L87.6188 153.889L86.1006 134.176C95.817 122.044 118.286 106.274 128.306 99.9047L127.395 102.331C116.707 109.61 106.141 119.315 102.193 123.258Z" fill="#4D84E8"/>
<path d="M87.9233 153.586L85.1902 155.405C85.1902 144.002 83.773 138.017 83.0645 136.298L85.7976 133.872C87.7411 137.512 88.0245 148.531 87.9233 153.586Z" fill="#47E3C0"/>
<path d="M80.0283 136.602L81.8502 142.667C83.3076 148.733 82.9635 155.608 82.4574 157.225L85.4938 155.709C86.2225 150.128 84.5829 140.544 83.9756 136.602L113.401 110.035C107.814 110.52 88.7326 126.593 84.8865 130.233C81.9716 131.931 80.4332 135.186 80.0283 136.602Z" fill="black"/>
<path d="M77.9033 136.905L81.547 139.938L80.3324 136.299C81.3041 133.387 89.644 126.594 93.6925 123.561L117.68 105.364L100.98 115.675L92.478 121.741C88.4295 125.481 80.0895 133.266 79.1179 134.479C78.1462 135.692 77.9033 136.602 77.9033 136.905Z" fill="#47E3C0"/>
<path d="M75.1699 137.815C77.3561 139.756 80.9391 141.657 82.4572 142.364L82.4572 140.241L78.2063 136.905C88.4086 122.348 108.165 109.61 116.768 105.06C83.4896 120.103 75.1699 133.165 75.1699 137.815Z" fill="black"/>
<path d="M98.1827 52.7571L85.4299 40.3225L87.5553 24.855L83.608 22.1255L82.0898 41.8389C91.8063 53.9703 114.276 69.741 124.296 76.11L123.385 73.6837C112.697 66.4049 102.13 56.6998 98.1827 52.7571Z" fill="#4D84E8"/>
<path d="M83.9126 22.4291L81.1795 20.6094C81.1795 32.0128 79.7623 37.9976 79.0537 39.7162L81.7868 42.1425C83.7304 38.5031 84.0138 27.4838 83.9126 22.4291Z" fill="#47E3C0"/>
<path d="M76.0176 39.4128L77.8394 33.3472C79.2969 27.2815 78.9528 20.4071 78.4467 18.7896L81.4831 20.306C82.2118 25.8864 80.5722 35.4702 79.9649 39.4128L109.39 65.9801C103.803 65.4948 84.7219 49.4212 80.8758 45.7818C77.9609 44.0834 76.4224 40.8282 76.0176 39.4128Z" fill="black"/>
<path d="M73.8926 39.1095L77.5362 36.0767L76.3217 39.7161C77.2933 42.6276 85.6333 49.4211 89.6818 52.454L113.669 70.651L96.9691 60.3394L88.4672 54.2737C84.4187 50.5332 76.0788 42.7489 75.1071 41.5358C74.1355 40.3226 73.8926 39.4128 73.8926 39.1095Z" fill="#47E3C0"/>
<path d="M71.1592 38.1996C73.3454 36.2586 76.9283 34.3581 78.4465 33.6504L78.4465 35.7734L74.1956 39.1095C84.3978 53.6671 104.155 66.405 112.758 70.9543C79.4789 55.9114 71.1592 42.85 71.1592 38.1996Z" fill="black"/>
<path d="M102.193 28.723L89.4406 16.2883L91.5661 0.820861L87.6188 -1.90869L86.1006 17.8047C95.817 29.9361 118.286 45.7068 128.306 52.0758L127.395 49.6495C116.707 42.3707 106.141 32.6656 102.193 28.723Z" fill="#4D84E8"/>
<path d="M87.9233 -1.6051L85.1902 -3.4248C85.1902 7.97866 83.773 13.9635 83.0645 15.6821L85.7976 18.1083C87.7411 14.4689 88.0245 3.44962 87.9233 -1.6051Z" fill="#47E3C0"/>
<path d="M80.0283 15.3787L81.8502 9.31299C83.3076 3.24731 82.9635 -3.62712 82.4574 -5.24463L85.4938 -3.72821C86.2225 1.85221 84.5829 11.436 83.9756 15.3787L113.401 41.9459C107.814 41.4606 88.7326 25.387 84.8865 21.7476C81.9716 20.0492 80.4332 16.794 80.0283 15.3787Z" fill="black"/>
<path d="M77.9033 15.0753L81.547 12.0425L80.3324 15.6819C81.3041 18.5934 89.644 25.387 93.6925 28.4198L117.68 46.6168L100.98 36.3052L92.478 30.2395C88.4295 26.499 80.0895 18.7147 79.1179 17.5016C78.1462 16.2885 77.9033 15.3786 77.9033 15.0753Z" fill="#47E3C0"/>
<path d="M75.1699 14.1655C77.3561 12.2245 80.9391 10.3239 82.4572 9.61621L82.4572 11.7392L78.2063 15.0753C88.4086 29.6329 108.165 42.3708 116.768 46.9201C83.4896 31.8772 75.1699 18.8158 75.1699 14.1655Z" fill="black"/>
<path d="M35.1489 101.771L25.0255 86.6866C20.6214 71.0231 25.2027 57.176 28.0438 52.2104L30.5307 75.1574L35.1489 67.3507L37.5176 80.3618L41.4255 72.4369L47.1097 93.2547L41.4255 86.6866L43.9123 97.9861L33.8465 82.1361L35.1489 101.771Z" fill="#50E4C2"/>
</g>
</svg>
