<svg width="134" height="133" viewBox="0 0 134 133" fill="none" xmlns="http://www.w3.org/2000/svg">
<path d="M66.5049 133C103.232 133 133.004 103.227 133.002 66.5C133.001 29.7731 103.227 2.47861e-07 66.5 1.59675e-07C29.7731 7.1489e-08 0.00109298 29.7731 0.00244125 66.5C0.00378951 103.227 29.7779 133 66.5049 133Z" fill="#EA8611"/>
<mask id="mask0" mask-type="alpha" maskUnits="userSpaceOnUse" x="0" y="0" width="134" height="133">
<path d="M66.5049 133C103.232 133 133.004 103.227 133.002 66.5C133.001 29.7731 103.227 2.47861e-07 66.5 1.59675e-07C29.7731 7.1489e-08 0.00109298 29.7731 0.00244125 66.5C0.00378951 103.227 29.7779 133 66.5049 133Z" fill="#3CA3CF"/>
</mask>
<g mask="url(#mask0)">
<path d="M120.432 108.394C126.305 108.39 131.55 110.349 142.835 117.003C145.111 124.371 143.244 133.658 142.684 132.891C141.513 131.505 134.763 126.484 131.458 124.614C122.497 119.577 117.704 119.786 100.072 125.628C85.3696 130.581 70.5814 133.616 60.5538 133.883C54.8272 134.061 51.0396 134.573 37.2877 136.976C25.9218 139.004 25.504 139.025 24.2365 137.441C22.6035 135.363 18.7926 128.102 19.2856 127.86C19.4828 127.763 21.7928 127.731 24.3486 127.702C27.0515 127.723 34.2808 126.991 40.4302 126.054C52.8024 124.206 57.5736 123.579 64.3583 123.188C70.8237 122.771 81.1386 119.849 92.4477 115.214C105.358 109.975 111.265 108.545 120.432 108.394Z" fill="black"/>
<path d="M111.434 -30.3761C109.063 -25.5893 103.614 -16.3322 102.114 -14.2672C98.7669 -9.8458 93.2683 -6.05814 85.2714 -2.61297C72.2641 2.99151 61.1651 5.36444 52.4173 4.40913C49.5747 4.11506 44.6683 3.98948 41.4272 4.13263C35.5823 4.46809 23.7633 5.62506 23.0222 5.98908C22.38 6.30456 40.5717 9.38259 48.142 10.3126C60.5403 11.7085 73.3393 10.6739 82.6843 7.35136C85.8396 6.2844 92.2902 4.68547 97.0135 3.81429C101.737 2.94311 105.945 2.02289 106.439 1.78021C106.933 1.53754 108.761 -2.98241 110.548 -8.20729C112.386 -13.4564 114.517 -18.7296 115.244 -19.8715C116.897 -22.374 116.902 -22.7386 114.699 -28.5988L112.92 -33.2189L111.434 -30.3761Z" fill="black"/>
<path d="M120.286 -1.64414C119.086 0.657675 116.89 4.30459 115.323 6.35863C112.61 10.0762 112.363 10.1976 106.659 12.5713C103.474 13.8299 97.2568 15.7832 92.9659 16.9125C88.6013 18.0168 84.3335 19.3182 83.3452 19.8037C81.5663 20.6775 80.8051 20.501 67.9864 17.3804C61.8472 15.8708 48.905 15.746 36.0495 17.0463C25.5336 18.1147 23.9101 18.056 6.57959 15.9897C-8.88238 14.1063 -16.2538 12.8351 -24.0588 10.4315C-31.4957 8.15287 -39.4915 7.98333 -49.2028 9.94063C-67.0724 13.5205 -79.0154 14.556 -97.5653 14.1282L-110.407 13.832L-115.331 20.0419C-118.066 23.4646 -120.751 26.7403 -121.322 27.3264C-122.117 28.206 -121.453 28.3082 -117.833 27.9364C-115.297 27.7302 -110.375 27.7589 -106.787 28.1974C-99.7065 29.0002 -88.6593 29.1385 -82.1337 28.5626C-79.893 28.3792 -70.4803 26.8132 -61.2873 25.0494C-52.046 23.3841 -42.019 21.9444 -39.0905 21.9124C-36.0632 21.8318 -30.6471 21.4951 -27.051 21.074C-23.3319 20.6536 -16.0459 20.3769 -10.6821 20.4328L-1.06065 20.4153L-1.97471 23.7996C-2.50734 25.7123 -2.54481 27.2595 -2.07792 27.3359C-1.63624 27.4859 3.01563 27.3412 8.23424 27.1015C21.1088 26.4645 27.5306 26.5511 48.8546 27.7565C65.7758 28.7397 67.6191 28.9961 75.5451 31.646C80.1574 33.2941 86.2157 35.6384 89.0341 37.0058L94.1568 39.4427L86.452 42.7382C78.6243 46.0328 73.6921 47.3549 68.9182 47.3761C67.4661 47.4167 59.551 46.4126 51.393 45.0385C27.6299 41.2398 16.8982 41.6192 8.8606 46.4846C5.39746 48.6749 3.91705 49.1575 0.247357 49.5536C-2.19104 49.8341 -4.67895 50.1389 -5.36872 50.2331C-6.15732 50.3759 -6.4386 51.6759 -6.34516 55.238C-6.18628 59.8075 -6.08954 60.0045 -4.54164 60.2838C-2.3302 60.6651 15.3104 57.9928 23.6442 55.9783C27.5146 55.1167 32.0486 54.3572 33.6732 54.293C35.3956 54.3031 42.5954 55.4751 49.7198 56.8677C56.8442 58.2602 65.1525 59.3158 68.1546 59.3088C74.2576 59.2463 85.7226 56.4887 106.84 50.0295C114.092 47.8122 121.37 45.5214 123.023 45.0153C125.539 44.2686 126.769 44.3985 130.912 46.2157C133.635 47.2633 135.765 48.4793 135.664 48.7735C135.564 49.0676 131.459 51.4507 126.565 54.0994C117.864 58.8627 117.568 58.8854 107.239 61.2075C93.0653 64.1949 85.7017 64.9378 65.3265 65.0397C55.7788 65.0822 48.0511 65.209 48.1237 65.3568C48.3898 65.8987 71.2141 70.1586 73.8713 70.1987C75.3234 70.158 78.3285 69.7826 80.4241 69.3036C84.5658 68.3699 91.5562 68.116 91.9918 69.0028C92.3305 69.6925 99.2947 69.635 104.789 68.832C108.656 68.3389 111.075 67.395 125.553 60.4058L141.933 52.5435L140.726 49.7119C139.254 46.2154 135.295 34.0341 133.217 26.4323C132.308 23.3322 131.42 20.6497 131.026 20.5983C130.732 20.4983 129.985 21.5992 129.136 22.9943C127.984 25.5174 127.588 25.7116 121.959 27.9875C118.132 29.5616 115.469 30.2583 114.364 30.0063C101.913 27.0106 90.2808 23.1847 90.6339 22.1551C90.7852 21.7139 94.3361 20.8258 99.0667 20.092C110.401 18.3161 115.836 15.6462 120.389 9.67966C124.544 4.15294 125.127 2.09313 123.663 -2.38572L122.438 -6.00359L120.286 -1.64414Z" fill="black"/>
<path d="M168.319 100.451C166.703 98.2884 165.208 96.4977 165.134 96.4725C148.681 92.9148 141.6 91.5276 139.08 91.5336C136.462 91.4648 114.794 95.5803 115.013 96.0268C115.086 96.1757 117.258 96.4637 119.949 96.805C128.118 97.9036 132.95 99.3483 140.139 103.084C147.819 107.071 152.579 108.244 165.59 109.428L174.379 110.284L172.867 107.331C172.063 105.694 170.008 102.638 168.319 100.451Z" fill="black"/>
<path d="M143.057 59.923C141.047 59.1953 131.892 65.2234 119.144 75.7724C105.903 86.6865 100.744 90.3845 92.0397 95.0887C85.4071 98.6529 82.2035 100.104 78.2663 101.058C75.4362 101.774 68.8395 103.667 63.6198 105.374C52.1467 109.05 52.2937 109.1 37.2099 109.037C21.9047 109.022 10.3311 109.379 10.1306 109.967C10.0304 110.261 10.8069 111.717 11.9024 113.2C13.8244 115.992 13.8977 116.017 18.9087 116.128C31.6571 116.42 59.3613 113.897 69.8677 111.492C78.8483 109.469 87.489 106.878 94.2143 104.126C99.4867 101.904 100.523 101.272 105.32 96.7112C115.333 87.1989 123.303 82.1206 135.52 77.3442C139.166 75.921 143.603 73.7416 145.502 72.625L148.784 70.4616L146.239 65.2807C144.808 62.4924 143.4 59.9993 143.057 59.923Z" fill="black"/>
<path d="M127.548 130.388C123.313 128.898 113.905 129.641 104.806 132.264C101.591 133.227 93.6584 134.846 87.0375 135.882C57.0446 140.766 46.3721 142.438 39.7285 143.177C35.7515 143.715 32.5897 144.16 32.6627 144.309C32.6871 144.359 34.1087 145.876 35.7763 147.52C37.4682 149.212 39.2064 151.375 39.6692 152.317C40.7166 154.45 41.111 154.502 51.9289 153.251C61.0916 152.259 67.1717 150.873 93.6007 143.739C114.343 138.167 116.073 137.81 116.804 139.297C117.583 140.884 115.791 147.12 113.395 151.129C110.801 155.358 103.951 161.308 98.4051 164.032C86.2238 170.016 65.8177 169.39 50.0179 162.5C44.9481 160.312 44.8743 160.287 39.2625 161.751C36.1233 162.492 32.3185 163.13 30.7396 163.044C29.2101 162.933 27.2107 162.992 26.2472 163.158C24.5424 163.441 24.6649 163.565 28.0113 165.123C38.7136 170.269 50.985 173.228 73.1042 176.091C84.8421 177.589 88.3498 177.097 97.5105 172.597C109.271 166.882 114.365 161.487 123.257 145.177C125.654 140.798 128.497 136.324 129.639 135.27C130.831 134.193 131.579 132.963 131.384 132.566C131.189 132.17 129.444 131.119 127.548 130.388Z" fill="black"/>
<path d="M92.4739 79.1955C88.9128 79.7042 80.9004 80.7868 74.7682 81.442C68.5369 82.1459 57.2834 84.1383 49.5901 85.8704C41.8719 87.6768 32.8192 89.3945 29.3326 89.8046C22.8292 90.5802 10.644 90.4251 4.39382 89.4636C1.79987 89.0631 0.83531 89.2268 0.931746 89.9237C1.29425 92.2886 3.67175 98.0056 5.12283 100.084C6.69706 102.288 6.84519 102.339 15.7682 102.36C23.6284 102.344 26.7197 101.88 37.8272 99.2155C44.9766 97.5024 54.3514 95.5645 58.7289 94.8408C73.8398 92.4423 75.5964 92.0136 82.5051 88.434C86.1696 86.6339 91.2969 83.5571 93.9977 81.6723L98.904 78.1458L92.4739 79.1955Z" fill="black"/>
<path d="M59.4065 35.4887C48.4522 33.6381 26.921 33.8231 8.75711 36.0002C6.81608 36.1636 3.13392 36.1493 0.38808 35.7966L-4.51651 35.2889L-5.16893 39.0731C-5.59007 41.8323 -5.47883 42.9322 -4.74239 42.9351C-3.76174 43.061 0.594918 41.9541 8.99283 39.3481C13.2038 38.0697 16.5695 37.8141 29.3091 37.9369C37.6794 38.0183 46.1268 37.758 48.0691 37.4724C49.938 37.1621 54.9236 36.9615 59.0955 37.0999C63.218 37.2625 66.6065 37.178 66.6812 37.0806C66.6837 36.8363 63.4253 36.1884 59.4065 35.4887Z" fill="black"/>
<path d="M48.0182 77.1844C46.79 76.4367 44.4028 75.5828 42.5296 75.2747C40.6573 74.8434 34.9424 73.4747 29.721 72.1092C24.4996 70.7438 18.4892 69.2746 16.2963 68.8165C11.074 67.5744 -3.40608 66.7652 -4.15301 67.6234C-4.77466 68.2358 -3.3406 77.5412 -2.60217 77.7926C-1.44592 78.2686 28.1127 79.1016 37.7136 78.9914C43.9334 78.8838 49.239 78.9183 49.6091 78.9207C50.5719 78.8777 50.327 78.6295 48.0182 77.1844Z" fill="black"/>
</g>
</svg>
