<svg width="73" height="73" viewBox="0 0 73 73" fill="none" xmlns="http://www.w3.org/2000/svg">
<path d="M36.3684 66.7396C53.2037 66.7396 66.8541 53.1145 66.8575 36.3072C66.8609 19.4998 53.2159 5.87476 36.3805 5.87476C19.5452 5.87476 5.89474 19.4998 5.89138 36.3072C5.88802 53.1145 19.533 66.7396 36.3684 66.7396Z" fill="#714216"/>
<path fill-rule="evenodd" clip-rule="evenodd" d="M36.3796 11.4232C22.5997 11.4232 11.4424 22.5729 11.4397 36.3075C11.4369 50.042 22.5897 61.1917 36.3696 61.1917C50.1495 61.1917 61.3068 50.042 61.3095 36.3075C61.3123 22.5729 50.1594 11.4232 36.3796 11.4232ZM0.343394 36.3075C0.347368 16.4273 16.491 0.326904 36.3818 0.326904C56.2726 0.326904 72.4098 16.4273 72.4058 36.3075C72.4018 56.1877 56.2582 72.288 36.3674 72.288C16.4766 72.288 0.33942 56.1877 0.343394 36.3075Z" fill="black"/>
</svg>
