<svg width="77" height="77" viewBox="0 0 77 77" fill="none" xmlns="http://www.w3.org/2000/svg">
<path d="M63.1907 39.8561C64.8407 38.7002 66.4247 37.2176 67.4633 35.2616L67.4725 35.2442L67.4816 35.2266C68.9128 32.4373 68.5928 29.6543 67.8842 27.3778C67.3789 25.7541 66.557 24.0744 65.8995 22.7304C65.6918 22.3059 65.5005 21.9149 65.3407 21.5698L65.329 21.5444L65.3168 21.5194C65.2262 21.3335 65.1307 21.1332 65.0299 20.9219C64.3997 19.6007 63.5621 17.8445 62.4269 16.4325C60.9797 14.6325 58.8551 13.1186 55.7708 13.1186C52.8363 13.1186 50.2591 14.6387 48.3911 16.279C47.7948 14.4424 46.8891 12.5945 45.4416 11.0957L45.4416 11.0957L45.4357 11.0897C43.4403 9.03584 40.9961 8.34559 38.7544 8.20846C36.7585 8.08636 34.7057 8.39653 33.0956 8.63981C32.9844 8.65661 32.8753 8.67309 32.7685 8.68909C32.4463 8.73086 32.0614 8.77094 31.6352 8.81532C30.308 8.95353 28.5801 9.13346 27.097 9.53592C24.9416 10.1208 22.5455 11.3275 21.174 14.0626C19.5949 17.2116 20.284 20.6296 21.4016 23.2327C19.4582 23.2212 17.4019 23.4969 15.4855 24.3961L15.4698 24.4035L15.4542 24.411C10.9777 26.579 9.95223 31.2392 9.43534 34.2446C9.30417 34.9962 9.14844 35.7404 8.98162 36.5377C8.93843 36.7442 8.89448 36.9542 8.85003 37.1688C8.63987 38.1834 8.42433 39.2746 8.27845 40.3897L8.27496 40.4164L8.27198 40.4432C8.07082 42.2483 8.09435 44.7708 9.47394 46.9717L9.48003 46.9814L9.4862 46.9911C10.916 49.2314 13.1333 50.3642 15.2606 50.8372C16.6333 51.1424 18.0478 51.1955 19.38 51.0786C19.3493 51.1693 19.3193 51.2603 19.29 51.3515C18.6677 53.2888 18.2944 55.5608 18.8409 57.8934C19.4335 60.6071 21.119 62.4567 22.8355 63.7569C24.2254 64.8097 25.8523 65.6517 27.1329 66.3145C27.3727 66.4385 27.6002 66.5563 27.8119 66.668L27.8228 66.6738C28.2289 66.8859 28.6441 67.122 29.1152 67.3908L29.1552 67.4136C29.6008 67.668 30.0965 67.9508 30.6067 68.2198C31.6553 68.7726 32.911 69.3475 34.3389 69.6441L34.3625 69.649L34.3863 69.6535C36.9783 70.1458 39.8103 69.5526 41.9367 67.6973L41.9516 67.6844L41.9663 67.6712C43.8829 65.9513 44.8713 63.5832 45.3623 61.4318C46.1252 61.9929 46.9375 62.5095 47.7922 62.9378C50.5056 64.2975 53.8563 64.8505 57.2931 62.9813L57.2932 62.9813L57.305 62.9748C58.8864 62.1049 60.2076 60.975 61.3457 59.8981C61.8461 59.4246 62.3371 58.9358 62.7993 58.4757C62.8625 58.4128 62.9252 58.3504 62.9873 58.2886C63.5152 57.7637 64.0109 57.275 64.5127 56.8148L64.5801 56.7529L64.6434 56.6868L64.6964 56.6314C66.3794 54.8741 69.3974 51.7226 68.7235 47.4027C68.27 44.4439 66.4568 42.3753 64.9254 41.1007C64.3243 40.6004 63.7218 40.1857 63.1907 39.8561Z" fill="#F26869" stroke="#F26869" stroke-width="5.63908"/>
<path fill-rule="evenodd" clip-rule="evenodd" d="M65.2403 33.4543C65.2041 33.5216 65.167 33.5883 65.1289 33.6543C64.5409 34.6749 63.7406 35.537 62.828 36.2859C61.2033 37.6192 59.2226 38.5939 57.4499 39.4662L60.4599 40.9474C60.4858 40.9602 60.5167 40.9752 60.5522 40.9924C61.2803 41.3452 63.9474 42.6376 65.3731 45.0167C65.7776 45.6918 66.0822 46.4544 66.2141 47.3079C66.6568 50.0961 64.7092 52.2743 62.8501 54.1912C62.2304 54.7523 61.6316 55.3407 61.0341 55.9277C59.4977 57.4374 57.9705 58.938 56.122 59.9418C54.5225 60.8004 52.9517 60.9539 51.4503 60.6555C50.4296 60.4526 49.441 60.0408 48.4973 59.4997C48.3367 59.4076 48.1774 59.3118 48.0194 59.2126C46.3151 58.1424 44.7698 56.6818 43.4626 55.3239L42.9315 58.6348C42.6932 60.6675 42.0272 62.9107 40.6138 64.483C40.452 64.663 40.2805 64.8342 40.0986 64.9953C38.6822 66.2151 36.7346 66.6507 34.8755 66.3022C33.2916 65.9775 31.8553 65.1684 30.4565 64.3806C29.979 64.1116 29.5059 63.8451 29.0327 63.6012C28.7829 63.471 28.5275 63.3402 28.2689 63.2078C25.4116 61.7442 22.15 60.0736 21.4194 56.7179C21.3696 56.5111 21.3298 56.3032 21.2994 56.0945C21.1429 55.0201 21.2343 53.9248 21.4823 52.8405C21.5417 52.5805 21.6102 52.3211 21.6864 52.0628C22.2186 50.2593 23.1283 48.5082 23.9867 46.9594L20.6226 47.4822C18.6097 47.935 16.1857 47.9466 14.2247 47.1107C13.1671 46.6599 12.2442 45.9627 11.5929 44.9554C10.7076 43.5613 10.6191 41.8187 10.7961 40.2504C10.9555 39.048 11.2104 37.8456 11.4654 36.6432C11.6354 35.8416 11.8053 35.04 11.947 34.2384C12.4781 31.1889 13.3634 27.9651 16.4619 26.4839C16.4759 26.4774 16.49 26.4709 16.5041 26.4645C17.5696 25.9782 18.7118 25.7302 19.8799 25.6357C20.0109 25.6251 20.1422 25.6165 20.2738 25.6096C22.2742 25.5055 24.3334 25.8205 26.1998 26.1354L24.6064 23.173C23.5632 21.3762 22.7601 19.1542 22.9397 17.0636C23.004 16.3156 23.1941 15.5844 23.544 14.8956C25.0646 11.9024 28.5441 11.5442 31.6272 11.2267C32.134 11.1745 32.6301 11.1234 33.105 11.0619C33.2048 11.0472 33.3051 11.0323 33.4058 11.0173C36.8636 10.5042 40.7706 9.92446 43.437 12.6043C43.4455 12.6129 43.4541 12.6216 43.4626 12.6302C44.3144 13.5008 44.9359 14.5504 45.4032 15.6818C45.4071 15.6912 45.411 15.7006 45.4148 15.71C46.2022 17.6288 46.5492 19.7801 46.8267 21.6918L49.2169 19.0779C50.5921 17.5819 52.4999 16.1442 54.5532 15.6694C55.0113 15.5635 55.4767 15.5055 55.945 15.5055C59.7255 15.5055 61.2934 18.7346 62.7028 21.6372C62.8115 21.8612 62.9193 22.0832 63.0271 22.3017C63.2388 22.753 63.4677 23.2152 63.7008 23.686C65.223 26.7599 66.9292 30.2054 65.2403 33.4543ZM50.7718 7.83317C50.4526 7.43731 50.1108 7.05071 49.7446 6.67645L49.7355 6.6672L49.7264 6.65797C46.3853 3.26347 42.3371 2.23165 39.1166 2.0372C36.4374 1.87542 33.7605 2.27959 32.2016 2.51496C32.099 2.53045 32.0013 2.5452 31.9087 2.55902C31.7976 2.57194 31.6301 2.58864 31.4175 2.60984C30.1996 2.73125 27.5002 3.00033 25.4368 3.55304C22.3685 4.3749 18.1557 6.30924 15.7437 11.057C14.5189 13.4679 14.1188 15.883 14.1917 18.1288C13.7087 18.3005 13.2269 18.4959 12.7485 18.7175L12.6999 18.74L12.6516 18.7631C5.20121 22.3247 3.85639 29.8888 3.35323 32.7772C3.2393 33.4208 3.10737 34.0435 2.94321 34.8185C2.89728 35.0353 2.84883 35.264 2.79755 35.5084C2.58109 36.54 2.32546 37.8037 2.14834 39.1402L2.13759 39.2213L2.12842 39.3025C1.87191 41.5747 1.7625 45.6702 4.19744 49.5046L4.21623 49.5342L4.23526 49.5636C6.4228 52.9469 9.60244 54.7474 12.5121 55.6171C12.5481 56.5812 12.6717 57.582 12.912 58.6072C13.9201 63.1035 16.7498 66.0059 19.1205 67.7785C20.9768 69.1665 23.1746 70.2825 24.4216 70.9157C24.6259 71.0194 24.8047 71.1102 24.9522 71.1871L24.9692 71.1959L24.9861 71.2047C25.2837 71.3581 25.6094 71.5401 26.0995 71.8161L26.1605 71.8504C26.5971 72.0964 27.1735 72.4212 27.7781 72.7358C29.0361 73.3904 30.868 74.2482 33.0968 74.7052L33.1701 74.7202L33.2437 74.734C37.4361 75.52 42.1851 74.6037 45.8415 71.4549L45.8873 71.4154L45.9327 71.3753C46.8658 70.5487 47.6486 69.6492 48.3054 68.7167C51.8113 69.7314 56.0178 69.7749 60.2981 67.4771L60.3166 67.4672L60.335 67.4572C62.5797 66.2382 64.3385 64.7202 65.6221 63.5213C66.1859 62.9947 66.7385 62.4516 67.2004 61.9976C67.2636 61.9354 67.3252 61.8749 67.3849 61.8163C67.9167 61.2943 68.3435 60.8803 68.7547 60.508L68.963 60.3193L69.1585 60.1178C69.2209 60.0534 69.2924 59.9809 69.3717 59.9003C71.0012 58.2453 75.968 53.2008 74.8331 45.9987C74.3942 43.1826 73.2117 40.9229 71.8838 39.1811C72.2664 38.6427 72.6237 38.073 72.9479 37.4703L72.9764 37.4173L73.0042 37.3638C75.416 32.7243 74.7482 28.2396 73.7908 25.2032C73.1231 23.0858 71.9425 20.7159 71.2969 19.42C71.1461 19.1174 71.0246 18.8733 70.9455 18.7047L70.9094 18.6278L70.8718 18.5515C70.8125 18.4314 70.741 18.2818 70.6577 18.1076C70.0665 16.8703 68.8813 14.3901 67.2533 12.3913C64.9946 9.61816 61.2969 6.92214 55.945 6.92214C54.0691 6.92214 52.3377 7.27414 50.7718 7.83317Z" fill="black"/>
<path d="M48 39C48 42.866 44.6421 46 40.5 46C36.3579 46 33 42.866 33 39C33 35.134 36.3579 32 40.5 32C44.6421 32 48 35.134 48 39Z" fill="#6CADB0"/>
<path d="M60 27.5C60 29.433 58.433 31 56.5 31C54.567 31 53 29.433 53 27.5C53 25.567 54.567 24 56.5 24C58.433 24 60 25.567 60 27.5Z" fill="#674965"/>
<path d="M38 19.5C38 21.433 36.433 23 34.5 23C32.567 23 31 21.433 31 19.5C31 17.567 32.567 16 34.5 16C36.433 16 38 17.567 38 19.5Z" fill="#674965"/>
<path d="M25 37.5C25 39.433 23.433 41 21.5 41C19.567 41 18 39.433 18 37.5C18 35.567 19.567 34 21.5 34C23.433 34 25 35.567 25 37.5Z" fill="#674965"/>
<path d="M36 56.5C36 58.433 34.433 60 32.5 60C30.567 60 29 58.433 29 56.5C29 54.567 30.567 53 32.5 53C34.433 53 36 54.567 36 56.5Z" fill="#674965"/>
<path d="M60 50.5C60 52.433 58.433 54 56.5 54C54.567 54 53 52.433 53 50.5C53 48.567 54.567 47 56.5 47C58.433 47 60 48.567 60 50.5Z" fill="#674965"/>
</svg>
