<svg width="149" height="149" viewBox="0 0 149 149" fill="none" xmlns="http://www.w3.org/2000/svg">
<path d="M141.69 78.0314C143.905 41.3713 115.983 9.85458 79.3226 7.63677C42.6627 5.41895 11.1482 33.3399 8.93294 70C6.71769 106.66 34.6406 138.177 71.3005 140.395C107.96 142.612 139.475 114.691 141.69 78.0314Z" fill="url(#paint0_linear)"/>
<path fill-rule="evenodd" clip-rule="evenodd" d="M13.9416 74.622C13.9416 108.308 41.2471 135.612 74.9219 135.615C108.597 135.617 135.902 108.318 135.902 74.6322C135.902 40.9461 108.597 13.6425 74.9219 13.6397C41.2471 13.6368 13.9416 40.9359 13.9416 74.622ZM74.9219 146.627C35.1537 146.624 2.92187 114.382 2.92187 74.6211C2.92187 34.8603 35.1537 2.62378 74.9219 2.6271C114.69 2.63042 146.922 34.8723 146.922 74.6331C146.922 114.394 114.69 146.63 74.9219 146.627Z" fill="black"/>
<defs>
<linearGradient id="paint0_linear" x1="107.422" y1="19.8789" x2="53.9302" y2="139.383" gradientUnits="userSpaceOnUse">
<stop stop-color="#005D9B"/>
<stop offset="1" stop-color="#001CB0"/>
</linearGradient>
</defs>
</svg>
