<svg width="130" height="179" viewBox="0 0 130 179" fill="none" xmlns="http://www.w3.org/2000/svg">
<path d="M120.482 88.6955L120.175 89.5414L120.477 90.3891L126.731 107.917L76.5942 132.821L26.0915 118.089L12.1207 89.5599L26.0768 61.6139L76.5989 47.1616L126.713 71.5409L120.482 88.6955Z" fill="#F8C237" stroke="black" stroke-width="5"/>
<path d="M60.2858 152.382L35.7991 160.767L57.7114 140.622L74.2957 133.468L60.2858 152.382Z" fill="#F8C237" stroke="black" stroke-width="5"/>
<path d="M60.2858 27.1078L35.7991 18.7219L57.7114 38.8671L74.2957 46.0211L60.2858 27.1078Z" fill="#F8C237" stroke="black" stroke-width="5"/>
<path d="M85.7262 117.137L50.884 132.107L37.4556 89.5564L50.8798 47.8448L85.743 62.325L106.211 89.5578L85.7262 117.137Z" fill="#F8C237" stroke="black" stroke-width="5"/>
<path d="M51.8033 144.214L34.041 151.381L52.8003 131.58L85.8393 117.027L74.1699 133.03L51.8033 144.214Z" fill="#BFE8FF" stroke="black" stroke-width="5"/>
<path d="M51.8033 35.2755L34.041 28.1083L52.8003 47.9097L85.8393 62.4626L74.1699 46.4588L51.8033 35.2755Z" fill="#BFE8FF" stroke="black" stroke-width="5"/>
<path d="M37.1916 56.4502L49.6149 72.7545C56.9655 69.3754 57.606 62.8104 57.0075 59.9503L37.1916 56.4502Z" fill="#BFE8FF" stroke="black" stroke-width="5"/>
<path d="M37.1916 121.786L49.6149 105.482C56.9655 108.861 57.606 115.426 57.0075 118.286L37.1916 121.786Z" fill="#BFE8FF" stroke="black" stroke-width="5"/>
<path d="M64.3317 115.495L83.3317 89.8442L64.3317 64.4948L71.5192 89.8442L64.3317 115.495Z" fill="#64EEEE"/>
<path d="M77.3317 111.495L94.3317 89.8677L77.3317 68.4946L85.4775 89.8677L77.3317 111.495Z" fill="#64EEEE"/>
<path d="M35.4077 164.34L10.7991 172.767L32.7109 152.623L54.3376 143.306L35.4077 164.34Z" fill="#F8C237" stroke="black" stroke-width="5"/>
<path d="M35.4077 15.1495L10.7991 6.72188L32.7109 26.8667L54.3376 36.1828L35.4077 15.1495Z" fill="#F8C237" stroke="black" stroke-width="5"/>
<path d="M46.3317 88.9946L26.0947 81.4946C21.0906 88.1923 24.0097 94.2853 26.0947 96.4946L46.3317 88.9946Z" fill="#BFE8FF" stroke="black" stroke-width="5"/>
</svg>
