<svg width="77" height="77" viewBox="0 0 77 77" fill="none" xmlns="http://www.w3.org/2000/svg">
<path fill-rule="evenodd" clip-rule="evenodd" d="M68.2499 15.4972L74.9984 15.4972V60.4916L68.2499 60.4884V67.2547H61.4975V74.0031H16.5198L16.5129 67.2547H9.75134V60.4775L2.99902 60.4578V15.4897L9.75134 15.4929V8.74633H16.5129L16.5198 2H61.4975V8.74633H68.2499V15.4972Z" fill="black"/>
<path d="M52.4975 11V17.7463H59.2499V24.4972L65.9984 24.4972V51.4873L59.2499 51.4841V58.2547H52.4975V65.0031H25.5106L25.5038 58.2547H18.7513V51.5038L11.999 51.4841V24.4939L18.7513 24.4972V17.7463H25.5038L25.5106 11H52.4975Z" fill="#560614"/>
<path d="M18.749 51.5035H25.5015V58.251H52.4982V51.5035H59.2474V24.4969H52.4982V17.7461L25.5015 17.7494V24.4969H18.7523L18.749 51.5035Z" fill="#9B1535"/>
<path d="M25.5107 31.2422H32.25V44.7603H25.5107V31.2422Z" fill="#E11B43"/>
<path d="M32.25 44.7603L38.9961 44.7604V51.5046H32.2502L32.25 44.7603Z" fill="#E11B43"/>
</svg>
