<svg width="72" height="73" viewBox="0 0 72 73" fill="none" xmlns="http://www.w3.org/2000/svg">
<path d="M5.54824 36.0447C5.54824 19.2094 19.1733 5.55894 35.9807 5.55558C52.788 5.55222 66.4131 19.1972 66.4131 36.0326C66.4131 52.8679 52.788 66.5183 35.9807 66.5217C19.1733 66.5251 5.54824 52.8801 5.54824 36.0447Z" fill="url(#paint0_linear)"/>
<path fill-rule="evenodd" clip-rule="evenodd" d="M60.8647 36.0335C60.8647 49.8134 49.7149 60.9707 35.9804 60.9734C22.2459 60.9762 11.0961 49.8233 11.0961 36.0435C11.0961 22.2636 22.2459 11.1063 35.9804 11.1036C49.7149 11.1008 60.8647 22.2536 60.8647 36.0335ZM35.9804 72.0697C55.8606 72.0657 71.9609 55.9221 71.9609 36.0313C71.9609 16.1405 55.8606 0.00332448 35.9804 0.00729755C16.1002 0.0112706 -0.000173042 16.1549 -0.000173908 36.0457C-0.000174774 55.9365 16.1002 72.0737 35.9804 72.0697Z" fill="black"/>
<defs>
<linearGradient id="paint0_linear" x1="62.8251" y1="24.3723" x2="12.7367" y2="48.8216" gradientUnits="userSpaceOnUse">
<stop stop-color="#993D3D"/>
<stop offset="0.526042" stop-color="#9B6627"/>
<stop offset="1" stop-color="#8B8C40"/>
</linearGradient>
</defs>
</svg>
