<svg width="73" height="73" viewBox="0 0 73 73" fill="none" xmlns="http://www.w3.org/2000/svg">
<path d="M5.54981 36.5218C5.54981 53.3631 19.2051 67.0184 36.0498 67.0218C52.8945 67.0252 66.5498 53.3753 66.5498 36.534C66.5498 19.6926 52.8945 6.03731 36.0498 6.03394C19.2051 6.03057 5.54981 19.6804 5.54981 36.5218Z" fill="#EEC637"/>
<path d="M43.424 36.8894C47.7319 36.8894 51.2249 33.3972 51.2257 29.0892C51.2266 24.7813 47.735 21.2891 43.4271 21.2891C39.1192 21.2891 35.6263 24.7813 35.6254 29.0892C35.6245 33.3972 39.1161 36.8894 43.424 36.8894Z" fill="#FFE68F"/>
<path d="M24.5961 52.0967C26.1044 52.0967 27.3273 50.874 27.3276 49.3658C27.3279 47.8575 26.1055 46.6348 24.5972 46.6348C23.0889 46.6348 21.866 47.8575 21.8657 49.3658C21.8654 50.874 23.0878 52.0967 24.5961 52.0967Z" fill="#FFE68F"/>
<path fill-rule="evenodd" clip-rule="evenodd" d="M60.9996 36.5329C60.9996 22.7578 49.8302 11.5868 36.0496 11.584C22.2691 11.5813 11.0996 22.7478 11.0996 36.5229C11.0996 50.298 22.2691 61.4691 36.0496 61.4718C49.8302 61.4746 60.9996 50.308 60.9996 36.5329ZM36.0496 0.484005C55.9584 0.487984 72.0996 16.6276 72.0996 36.5351C72.0996 56.4427 55.9584 72.5758 36.0496 72.5718C16.1408 72.5679 -0.000391555 56.4283 -0.000390681 36.5207C-0.000389807 16.6132 16.1408 0.480025 36.0496 0.484005Z" fill="black"/>
</svg>
