<svg width="78" height="78" viewBox="0 0 78 78" fill="none" xmlns="http://www.w3.org/2000/svg">
<path d="M7.87304 39.6243C7.87304 56.7452 21.7522 70.6271 38.873 70.6305C55.9939 70.6339 69.873 56.7575 69.873 39.6367C69.873 22.5159 55.9939 8.63395 38.873 8.63052C21.7522 8.6271 7.87304 22.5035 7.87304 39.6243Z" fill="#F4B592"/>
<path fill-rule="evenodd" clip-rule="evenodd" d="M64.6345 39.1344C64.6345 25.185 53.3256 13.8726 39.373 13.8698C25.4205 13.8669 14.1116 25.1748 14.1116 39.1242C14.1116 53.0736 25.4205 64.386 39.373 64.3889C53.3256 64.3917 64.6345 53.0838 64.6345 39.1344ZM39.373 2.62932C59.5304 2.63341 75.873 18.9773 75.873 39.1367C75.873 59.2962 59.5304 75.6334 39.373 75.6293C19.2157 75.6252 2.87304 59.2814 2.87305 39.1219C2.87305 18.9625 19.2157 2.62524 39.373 2.62932Z" fill="black"/>
</svg>
