<svg width="77" height="77" viewBox="0 0 77 77" fill="none" xmlns="http://www.w3.org/2000/svg">
<rect x="45.811" y="15.0742" width="8.44898" height="29.4121" rx="4.22449" transform="rotate(45 45.811 15.0742)" fill="#70E5FF"/>
<rect x="25.0132" y="21.0488" width="8.44898" height="29.4121" rx="4.22449" transform="rotate(-45 25.0132 21.0488)" fill="#70E5FF"/>
<rect x="20.4639" y="34.5723" width="35.7457" height="27.2967" fill="#2B5AD2"/>
<rect x="17.2144" y="26.7725" width="42.2449" height="10.3987" fill="#0636B1"/>
<rect x="34.1123" y="26.7725" width="8.44898" height="35.0958" fill="#28C7EA"/>
<path fill-rule="evenodd" clip-rule="evenodd" d="M42.747 18.7423C43.5881 17.8966 44.711 17.506 45.8117 17.5713C46.7546 17.6273 47.6817 18.0177 48.4022 18.7423C49.9631 20.3119 49.9634 22.857 48.403 24.4278L48.4022 24.4286L45.8117 27.0329H58.4934V36.9295H55.4171V60.4357H21.5824V36.9295H18.5066V27.0329H31.3067L28.7172 24.4292C27.1555 22.8585 27.1549 20.3131 28.7166 18.7423C29.4369 18.0181 30.3638 17.628 31.3067 17.572C32.4075 17.5067 33.5302 17.8968 34.3714 18.7423L38.5592 22.9527L42.747 18.7423ZM55.8315 11.2723C51.1528 6.5675 44.0733 5.74852 38.5588 8.81532L55.8315 11.2723ZM55.8326 11.2734C57.3478 12.7973 58.4575 14.5741 59.1618 16.4686H69V47.4938H65.9237V71H11.0758V47.4938H8V16.4686H17.957C18.6614 14.5741 19.7712 12.7972 21.2862 11.2734L21.2873 11.2723C25.9661 6.56781 33.0449 5.74993 38.5588 8.81532" fill="black"/>
</svg>
