<svg width="77" height="77" viewBox="0 0 77 77" fill="none" xmlns="http://www.w3.org/2000/svg">
<path d="M64 39.0104C64 24.651 52.3594 13.0081 38 13.0052C23.6406 13.0023 12 24.6406 12 39C12 53.3594 23.6406 65.0023 38 65.0052C52.3594 65.0081 64 53.3698 64 39.0104Z" fill="url(#paint0_linear_1161_329)"/>
<path d="M56.9327 39.0372C56.9327 49.4926 48.4569 57.9683 38.0015 57.9683C27.5461 57.9683 19.0703 49.4926 19.0703 39.0372C19.0703 28.5817 27.5461 20.106 38.0015 20.106C48.4569 20.106 56.9327 28.5817 56.9327 39.0372Z" fill="url(#paint1_radial_1161_329)"/>
<path d="M47.4902 14.8055C44.5622 13.6696 41.3565 13.0386 38.0246 13.0386C34.6927 13.0386 31.487 13.6696 28.5337 14.8055C29.4172 14.7045 30.3259 14.654 31.2598 14.654C33.6073 14.654 35.8538 14.9822 37.9993 15.6132C48.1969 18.5412 55.6432 27.9311 55.6432 39.0627C55.6432 48.8059 47.7426 56.7065 37.9993 56.7065C28.2561 56.7065 20.3555 48.8059 20.3555 39.0627C20.3555 50.1942 27.8017 59.5841 37.9993 62.5121C40.1449 63.1179 42.4166 63.4713 44.7388 63.4713C45.6475 63.4713 46.5562 63.4208 47.4649 63.3198C57.1577 59.5336 63.9982 50.1185 63.9982 39.0879C64.0234 28.0321 57.1577 18.5917 47.4902 14.8055Z" fill="url(#paint2_linear_1161_329)"/>
<path d="M38.028 21.4186C47.7712 21.4186 55.6719 29.3192 55.6719 39.0624C55.6719 27.9309 48.2256 18.541 38.028 15.613C35.8825 15.0072 33.6107 14.6538 31.2885 14.6538C30.3798 14.6538 29.4711 14.7043 28.5624 14.8053C18.8696 18.5915 12.0039 28.0319 12.0039 39.0624C12.0039 50.093 18.8696 59.5081 28.5372 63.2944C31.4652 64.4302 34.6709 65.0613 38.0028 65.0613C41.3346 65.0613 44.5403 64.4302 47.4683 63.2944C46.5849 63.3953 45.6762 63.4458 44.7423 63.4458C42.3948 63.4458 40.1483 63.1177 38.0028 62.4866C27.8051 59.5586 20.3589 50.1687 20.3589 39.0372C20.3841 29.3192 28.2847 21.4186 38.028 21.4186Z" fill="url(#paint3_linear_1161_329)"/>
<path fill-rule="evenodd" clip-rule="evenodd" d="M13.1023 39.0022C13.1023 52.7702 24.2581 63.9178 38 63.9205C51.7419 63.9233 62.8977 52.7801 62.8977 39.0122C62.8977 25.2442 51.7419 14.0966 38 14.0939C24.2581 14.0911 13.1023 25.2343 13.1023 39.0022ZM38 75.0072C18.109 75.0032 2 58.8736 2 39C2 19.1264 18.109 3.00322 38 3.00719C57.8909 3.01117 74 19.1408 74 39.0144C74 58.8879 57.8909 75.0112 38 75.0072Z" fill="black"/>
<defs>
<linearGradient id="paint0_linear_1161_329" x1="12" y1="39" x2="59" y2="55" gradientUnits="userSpaceOnUse">
<stop stop-color="#B00000"/>
<stop offset="0.234375" stop-color="#D8B500"/>
<stop offset="0.520833" stop-color="#00A807"/>
<stop offset="0.776042" stop-color="#750093"/>
<stop offset="1" stop-color="#C40098"/>
</linearGradient>
<radialGradient id="paint1_radial_1161_329" cx="0" cy="0" r="1" gradientUnits="userSpaceOnUse" gradientTransform="translate(38.0015 39.0376) rotate(90) scale(18.9312)">
<stop stop-color="#250418"/>
<stop offset="1" stop-color="#1D1565"/>
</radialGradient>
<linearGradient id="paint2_linear_1161_329" x1="42.2053" y1="63.4401" x2="42.2053" y2="13.0386" gradientUnits="userSpaceOnUse">
<stop stop-color="#662D91"/>
<stop offset="1" stop-color="#9E005D"/>
</linearGradient>
<linearGradient id="paint3_linear_1161_329" x1="33.8305" y1="14.6642" x2="33.8305" y2="65.0657" gradientUnits="userSpaceOnUse">
<stop stop-color="#662D91"/>
<stop offset="1" stop-color="#1B1464"/>
</linearGradient>
</defs>
</svg>
