<svg width="149" height="149" viewBox="0 0 149 149" fill="none" xmlns="http://www.w3.org/2000/svg">
<path d="M141.132 78.2736C143.347 41.6135 115.424 10.0968 78.7641 7.87896C42.1041 5.66114 10.5896 33.5821 8.37435 70.2422C6.1591 106.902 34.082 138.419 70.7419 140.637C107.402 142.855 138.916 114.934 141.132 78.2736Z" fill="#613721"/>
<path fill-rule="evenodd" clip-rule="evenodd" d="M13.383 74.622C13.383 108.308 40.6885 135.612 74.3633 135.615C108.038 135.617 135.344 108.318 135.344 74.6322C135.344 40.9461 108.038 13.6425 74.3633 13.6397C40.6885 13.6368 13.383 40.9359 13.383 74.622ZM74.3633 146.627C34.5951 146.624 2.36328 114.382 2.36328 74.6211C2.36328 34.8603 34.5951 2.62378 74.3633 2.6271C114.131 2.63042 146.363 34.8723 146.363 74.6331C146.363 114.394 114.131 146.63 74.3633 146.627Z" fill="black"/>
</svg>
