<svg width="131" height="183" viewBox="0 0 131 183" fill="none" xmlns="http://www.w3.org/2000/svg">
<path d="M128.147 92.9175C128.765 82.6865 120.973 73.8908 110.742 73.2717C100.511 72.6526 91.716 80.4446 91.0979 90.6756C90.4799 100.907 98.2726 109.702 108.504 110.321C118.734 110.94 127.529 103.149 128.147 92.9175Z" fill="#E40000" stroke="black" stroke-width="5" stroke-miterlimit="10"/>
<path d="M119.081 83.3992C119.165 82.016 114.998 78.6384 109.774 78.3223C104.55 78.0062 100.248 80.8713 100.164 82.2545C100.081 83.6377 104.248 83.0152 109.472 83.3313C114.695 83.6474 118.998 84.7824 119.081 83.3992Z" fill="#EBB4B4"/>
<path d="M37.1209 62.7719C27.9118 60.9006 32.949 74.4069 36.6187 81.3939C36.3767 86.9352 13.7938 76.4971 16.626 41.1032C19.4582 5.70927 53.0571 6.51366 59.1003 10.5891C65.1436 14.6645 70.445 28.0772 55.7954 24.5862C41.1458 21.0951 36.5217 25.6762 35.2068 28.2592C33.8919 30.8422 36.6259 36.9158 46.4427 36.3926C56.2594 35.8693 59.9129 40.5119 59.6108 43.7319C59.3087 46.9519 51.5508 48.4962 45.4409 44.9269C39.331 41.3576 28.8324 39.6555 28.9123 47.3783C28.9922 55.1011 39.2331 55.0579 44.6346 53.8277C50.0361 52.5975 56.8011 55.8177 54.8933 60.1285C52.9854 64.4392 48.6322 65.111 37.1209 62.7719Z" fill="#82592D" stroke="black" stroke-width="5"/>
<path d="M37.1209 120.825C27.9118 122.697 32.949 109.19 36.6187 102.203C36.3766 96.662 13.7938 107.1 16.626 142.494C19.4582 177.888 53.057 177.084 59.1003 173.008C65.1436 168.933 70.445 155.52 55.7954 159.011C41.1458 162.502 36.5217 157.921 35.2068 155.338C33.8919 152.755 36.6259 146.681 46.4427 147.205C56.2594 147.728 59.9129 143.085 59.6108 139.865C59.3087 136.645 51.5508 135.101 45.4409 138.67C39.331 142.24 28.8324 143.942 28.9123 136.219C28.9922 128.496 39.2331 128.539 44.6346 129.769C50.036 131 56.8011 127.779 54.8933 123.469C52.9854 119.158 48.6322 118.486 37.1209 120.825Z" fill="#82592D" stroke="black" stroke-width="5"/>
</svg>
