<svg width="77" height="77" viewBox="0 0 77 77" fill="none" xmlns="http://www.w3.org/2000/svg">
<ellipse cx="40.1631" cy="31.341" rx="16.453" ry="21.1538" transform="rotate(-3.67456 40.1631 31.341)" fill="#CA2222"/>
<path d="M17.4575 32.1579C19.1243 30.0882 24.3305 31.1931 25.7675 33.1944C41.0102 44.3847 31.7053 50.7639 29.1676 49.4627C23.4732 46.5429 23.5582 41.5795 21.5031 40.1413C19.448 38.7031 15.1244 35.055 17.4575 32.1579Z" fill="#CA2222"/>
<rect x="23.7173" y="47.2363" width="31.339" height="18.0199" rx="6" fill="white"/>
<path fill-rule="evenodd" clip-rule="evenodd" d="M24.7063 50.7538C25.1357 49.5974 26.0151 48.6624 27.1295 48.1653C25.7394 46.879 24.9419 45.454 24.3238 44.1829C24.2036 43.9357 24.0902 43.6944 23.9806 43.461L23.9801 43.46C23.7663 43.0048 23.5667 42.5799 23.3588 42.2014C23.0431 41.6266 22.7082 41.1587 22.2752 40.8535C21.9646 40.6345 21.6004 40.3629 21.2156 40.0497C21.0353 39.9029 20.8504 39.747 20.6643 39.5831C18.7047 37.8568 16.6173 35.2435 18.358 33.0655C18.4139 32.9956 18.4738 32.9294 18.5376 32.8668C19.7747 31.6533 22.4458 31.8009 24.4101 32.6378C24.2583 28.7892 24.9359 25.1533 26.2455 22.023C28.7086 16.1355 33.4073 12.0362 39.0286 11.6727C47.8079 11.1047 55.5131 19.8645 56.2379 31.2383C56.3916 33.6498 56.2191 35.9852 55.7682 38.1737C54.9856 41.9725 53.3641 45.329 51.1532 47.8735C52.6711 48.1962 53.9103 49.281 54.4579 50.7117C54.6538 51.2235 54.7612 51.7796 54.7612 52.3609V60.7684C54.7612 63.301 52.7233 65.3544 50.2098 65.3544H28.9703C26.4569 65.3544 24.419 63.301 24.419 60.7684V52.3609C24.419 51.7955 24.5206 51.2539 24.7063 50.7538ZM14.2958 48.1756C13.9148 49.5078 13.7114 50.9124 13.7114 52.3609V60.7684C13.7114 69.0457 20.4087 76 28.9703 76H50.2098C58.7715 76 65.4687 69.0457 65.4687 60.7684V52.3609C65.4687 50.3237 65.0658 48.3708 64.3308 46.583C66.3801 41.6733 67.2799 36.1498 66.9241 30.5652L66.9241 30.5651C66.4256 22.7435 63.5137 15.4262 58.714 9.96943C53.9041 4.50103 46.7369 0.505815 38.3333 1.04953C25.5776 1.87445 17.665 11.759 14.8477 22.6696C13.1599 23.4303 11.437 24.6131 9.97489 26.4425M14.2958 48.1756C12.9617 47.0762 11.3384 45.5403 9.99276 43.6561C8.95197 42.1987 7.56638 39.8323 7.13303 36.7517C6.64178 33.2595 7.49399 29.5468 9.97449 26.443" fill="black"/>
</svg>
