<svg width="134" height="134" viewBox="0 0 134 134" fill="none" xmlns="http://www.w3.org/2000/svg">
<path d="M66.8125 0.22265C103.539 0.222653 133.312 30.0152 133.312 66.7227C133.312 103.43 103.539 133.223 66.8125 133.223C30.0856 133.223 0.31249 103.43 0.312493 66.7226C0.312497 30.0152 30.0856 0.222646 66.8125 0.22265Z" fill="#531D19"/>
<path d="M1.58544 53.7151C5.24039 35.3033 16.5011 19.6207 31.9569 10.0866C45.2425 2.34217 60.3716 -0.212871 73.075 0.517796C90.3255 2.13016 105.662 10.3354 116.543 22.585C123.016 29.9925 126.891 37.7258 129.122 43.4507C130.209 46.3579 131.098 49.3614 131.773 52.4447C130.758 54.0478 118.855 72.6371 108.724 79.6604C99.8258 85.8088 90.7706 90.5988 89.0378 90.8748C90.3701 93.0992 97.9792 107.355 83.9373 122.029C78.1356 128.173 71.0893 131.78 63.5853 133.15C37.7922 131.917 15.85 115.98 5.94652 93.5485C1.34762 81.5416 -0.859656 67.5885 1.58544 53.7151Z" fill="#FFBE82"/>
<path d="M8.49302 34.7513C13.4598 25.7147 20.4659 17.9555 28.8916 12.095C43.9464 2.30509 62.3441 -0.535631 76.3594 0.907456C79.876 1.41343 83.3037 2.1947 86.62 3.22869C61.5476 2.34271 36.0797 14.9854 23.1165 34.8149C8.26655 57.6362 10.0136 87.9985 26.0646 110.125C29.1219 114.392 32.8344 118.46 37.3112 121.536C47.0291 128.283 60.678 129.871 71.9246 125.604C81.3149 122.032 88.8491 114.491 92.0156 105.759C91.4697 110.721 89.2859 116.376 83.8263 122.131C78.1431 128.15 71.2658 131.734 63.9337 133.165C40.4862 132.167 20.1819 119.019 9.14739 99.8646C-1.15821 81.332 -2.65821 58.832 6.84179 38.336C7.36002 37.1063 7.91111 35.9117 8.49302 34.7513Z" fill="#D79E70"/>
<path d="M37.9609 6.79768C39.7704 5.92459 41.6255 5.13106 43.5217 4.42162C45.7743 5.52718 47.4163 7.12154 49.1819 8.83582C49.4794 9.12465 49.7804 9.41688 50.0884 9.71074C52.0538 11.596 53.91 13.5804 55.3295 15.8626C57.9367 20.2742 58.4712 25.2912 59.0054 30.3044C59.12 31.3799 59.2345 32.4552 59.3695 33.5243C60.3523 41.1645 62.6453 48.8046 66.2485 55.8495C67.8864 55.1549 68.7599 53.3689 68.6507 51.6821C68.5688 50.4914 68.1184 49.3007 67.668 48.1101C67.5179 47.7132 67.3677 47.3163 67.2313 46.9194C65.8118 42.9505 65.7026 38.7831 65.7026 34.6157C65.648 31.4406 65.6207 28.2903 65.5934 25.1399C65.5661 21.9896 65.5388 18.8393 65.4842 15.6641C65.4842 11.7944 65.2658 7.52784 62.2085 4.74959C61.9634 4.52687 61.7073 4.31415 61.4538 4.10357C60.5779 3.37601 59.7328 2.67404 59.4787 1.67368L59.4787 0.879892C65.1566 0.383777 70.6162 0.383778 75.4205 0.879893C76.2941 1.67368 77.1676 2.46746 77.9319 3.36047C78.9146 4.3527 79.7882 5.54338 80.1157 6.83328C80.4734 8.19847 80.1281 9.60626 79.7859 11.0008C79.6059 11.7348 79.4267 12.4651 79.3514 13.1836C79.1692 14.9215 79.5758 16.694 79.9771 18.4435C80.538 20.8889 81.0886 23.2892 80.0065 25.4872C79.6486 26.1843 79.1469 26.8378 78.6474 27.4885C78.0803 28.2273 77.5159 28.9625 77.1676 29.7538C76.1527 32.0018 76.796 34.3837 77.4492 36.8024C77.9204 38.5472 78.3968 40.311 78.2595 42.0575C78.0737 44.1679 77.0975 46.0629 76.1379 47.9258C75.9696 48.2525 75.8018 48.5782 75.6389 48.9039C73.1275 54.2619 72.1448 60.3145 72.9092 66.1687C73.0183 66.8632 73.1275 67.5578 73.7827 67.7562C74.7654 68.1531 75.6389 67.0617 76.0757 66.1687C77.0859 63.7971 78.161 61.4846 79.251 59.1401C79.5748 58.4437 79.8999 57.7445 80.2249 57.0401C80.3184 56.8343 80.412 56.6284 80.5057 56.4223C83.2561 50.3705 86.0516 44.2199 87.2131 37.7909C87.3144 37.1926 87.4053 36.5896 87.4962 35.9862C87.9932 32.687 88.4918 29.3775 90.7072 26.7771C91.4735 25.8275 92.4732 24.9587 93.4652 24.0966C95.5828 22.2562 97.6652 20.4463 97.3678 17.9463C97.2294 16.6884 96.4671 15.5192 95.7235 14.3787C94.7073 12.82 93.7261 11.315 94.4197 9.71075C94.8104 8.82317 95.9678 7.86143 96.9892 7.45536C102.211 10.12 107.033 13.4542 111.344 17.3447C111.885 21.909 108.503 28.7634 104.465 31.5398C104.078 31.8107 103.666 32.0669 103.251 32.3244C102.149 33.0099 101.03 33.7051 100.316 34.715C99.199 36.1479 99.0309 37.8682 98.8601 39.6166C98.747 40.7738 98.6327 41.9432 98.2413 43.0497C97.4638 45.1694 95.7035 46.8127 93.9293 48.4689C92.4645 49.8363 90.9903 51.2125 90.0521 52.8728C89.3161 54.3133 88.9617 55.8871 88.6084 57.456C88.2803 58.9131 87.9532 60.3659 87.3223 61.7036C86.7261 62.9497 85.8369 64.0775 84.9392 65.2161C84.1927 66.1628 83.4403 67.1171 82.8455 68.1531C81.5352 70.4353 81.3168 73.6104 83.5006 75.198C86.5833 73.8271 87.8537 70.9167 89.1577 67.9293C90.0245 65.9434 90.9062 63.9234 92.3451 62.299C92.9512 61.6564 93.6274 61.0775 94.2981 60.5033C95.0772 59.8363 95.8488 59.1758 96.4943 58.4293C97.9747 56.67 98.7425 54.56 99.51 52.451C100.214 50.5157 100.918 48.5812 102.172 46.9194C103.768 44.8586 106.01 43.3849 108.252 41.9113C108.925 41.4692 109.597 41.0271 110.252 40.5691C113.091 38.5847 115.712 35.9056 115.712 32.6313C115.712 31.8991 115.553 31.1669 115.392 30.423C115.226 29.6546 115.057 28.8736 115.057 28.067C115.057 27.3053 116.76 24.2888 117.284 23.4324C117.622 23.8264 117.956 24.2244 118.285 24.6263C118.519 24.9456 118.753 25.2635 118.987 25.5804C121.164 28.5375 123.272 31.4006 124.843 34.3359C123.315 38.9994 118.332 46.0264 114.402 49.4C113.711 49.9726 112.997 50.5227 112.284 51.0709C110.404 52.5177 108.541 53.9513 107.195 55.7502C106.198 57.0674 105.503 58.521 104.796 59.998C104.65 60.3013 104.505 60.6056 104.356 60.9099C101.299 66.6648 96.4943 71.4275 91.4715 75.8925C89.6153 77.5793 87.6499 79.3653 87.1039 81.7467C89.9429 82.6397 93.0002 80.8537 94.9656 78.77C95.6473 78.0474 96.2632 77.265 96.8773 76.4851C98.0338 75.0163 99.1836 73.5559 100.753 72.5189C101.454 72.0635 102.225 71.6917 103.001 71.3172C103.916 70.8757 104.839 70.4304 105.666 69.8399C107.746 68.3177 108.847 66.0734 109.957 63.8123C110.945 61.7993 111.94 59.773 113.637 58.2308C115.165 56.842 117.218 55.8976 119.242 54.9659C122.28 53.5678 125.255 52.1985 126.303 49.4C126.467 48.9039 127.02 47.5109 127.573 46.118C128.126 44.725 128.679 43.3321 128.843 42.8359C129.027 43.2659 129.201 43.6912 129.365 44.1099C130.35 46.8338 131.163 49.6402 131.789 52.516C131.827 52.7244 131.844 52.8359 131.844 52.8359C131.844 52.8359 119.424 72.4197 108.724 79.7622C99.8792 85.9141 90.8164 90.6768 89.0693 90.9744C89.2877 91.3713 89.7245 92.1651 90.2704 93.3558C90.0877 93.3779 89.9049 93.3998 89.7223 93.4216C86.6316 93.7908 83.5789 94.1555 81.2076 95.9356C81.6444 97.2255 83.5006 97.8208 85.0293 97.6224C85.8666 97.5137 86.6385 97.2561 87.4165 96.9965C88.0589 96.7821 88.7056 96.5663 89.3969 96.4317C89.9429 96.3325 90.598 96.3325 91.2531 96.3325C91.9083 98.5154 92.3451 101.194 92.2359 104.171C91.664 104.171 91.1753 104.096 90.6245 104.01C90.5444 103.998 90.4629 103.985 90.3796 103.973C87.1039 103.278 83.719 102.683 80.3341 102.087C79.8973 105.163 83.5006 107.346 86.6671 108.537C86.9521 108.648 87.2409 108.759 87.5313 108.87C88.7989 109.358 90.0983 109.857 91.2531 110.422C90.7072 111.911 90.1612 113.399 89.2877 114.986C87.8136 114.49 86.3123 114.019 84.8109 113.548C83.3095 113.076 81.8082 112.605 80.3341 112.109C79.8973 113.895 81.426 115.681 83.0639 116.673C83.6536 117.03 84.2654 117.348 84.8695 117.661C85.6076 118.043 86.3342 118.42 86.9947 118.856C86.2304 119.948 85.2477 121.039 84.1558 122.23C83.8828 122.478 83.6371 122.726 83.3914 122.974C83.1458 123.222 82.9001 123.47 82.6271 123.718C81.4897 123.157 80.4104 122.438 79.3488 121.73C76.8433 120.061 74.4366 118.457 71.5989 119.154C70.7253 121.535 73.1275 123.718 75.4205 125.107C75.7481 125.339 76.0878 125.559 76.4275 125.78C77.1069 126.221 77.7863 126.662 78.3687 127.191C75.5297 129.175 72.5816 130.763 69.4151 131.854C68.0886 130.507 67.1525 128.856 66.2082 127.19C65.831 126.525 65.4526 125.858 65.0474 125.206C64.5015 124.413 63.8463 123.52 62.8636 123.123C61.8809 122.825 60.4614 123.123 60.2431 124.115C60.1339 124.611 60.3522 125.107 60.5706 125.504C60.9543 126.376 61.4855 127.171 62.0161 127.965C62.6934 128.979 63.3698 129.991 63.7371 131.16C63.9369 131.795 63.9539 132.513 63.8719 133.163C61.5268 133.061 59.2132 132.837 56.9373 132.498C56.7456 131.784 56.6398 131.043 56.6398 130.366C56.5306 127.687 56.3122 124.214 53.6916 123.718C51.6502 125.378 52.1462 128.19 52.5787 130.643L52.5997 130.763C52.6674 131.07 52.7141 131.397 52.7398 131.734C49.8833 131.118 47.095 130.319 44.3879 129.349C44.4451 128.648 44.5662 127.954 44.738 127.29C44.7913 127.096 44.8482 126.896 44.9064 126.691C45.5647 124.375 46.3989 121.438 44.1921 120.344C42.6634 119.551 40.5888 120.444 39.7153 121.833C38.8417 123.222 38.8417 124.909 38.8417 126.496L38.8417 127.072C36.6682 126.063 34.5583 124.939 32.5197 123.71C33.0442 122.51 33.7082 121.355 34.3698 120.203C34.7412 119.557 35.1119 118.912 35.4568 118.261C35.7844 117.566 36.112 116.673 35.7844 115.979C34.9109 114.193 31.8535 115.483 30.98 117.269C30.552 118.144 30.2813 119.066 30.0137 119.979C29.8385 120.576 29.6646 121.169 29.4488 121.74C27.5049 120.417 25.6348 118.994 23.8459 117.477C24.0024 117.304 24.1609 117.135 24.3194 116.971C26.394 114.788 28.7962 112.903 31.4168 111.315C29.9973 109.827 27.0492 109.728 25.6297 111.216C25.1599 111.643 24.8585 112.274 24.5645 112.89C24.4486 113.132 24.3338 113.373 24.2102 113.597C23.7702 114.511 23.1131 115.392 22.3221 116.146C20.1476 114.187 18.103 112.086 16.2028 109.859C19.5326 107.526 23.2018 105.605 27.0492 104.171C28.1411 103.774 29.3422 103.278 29.7789 102.286C30.5433 100.599 28.1411 98.8131 26.1756 99.1107C24.2932 99.3958 22.9115 100.864 21.647 102.208C21.5913 102.267 21.5358 102.326 21.4805 102.385C21.4302 102.44 21.3798 102.495 21.3293 102.55C19.4215 104.632 17.339 106.904 14.723 108.062C12.6764 105.486 10.8167 102.756 9.16452 99.8909C9.47967 99.7015 9.69548 99.6045 10.0155 99.5076C12.8544 98.3169 15.7207 97.1015 18.5869 95.886C21.4532 94.6705 24.3194 93.455 27.1584 92.2643C29.0146 91.4705 31.0892 89.5853 29.7789 88.1962C28.7962 87.3032 27.0492 87.8985 25.8481 88.4939C24.101 89.3869 22.3267 90.2799 20.5523 91.1729C18.778 92.0659 17.0036 92.9589 15.2566 93.8519C12.8544 95.0426 10.343 96.2333 7.72246 96.6301C6.30298 93.0581 4.99268 89.2876 3.90078 85.4179C6.19378 84.3265 8.81436 84.0288 11.4349 83.8304C16.6761 83.3343 21.9172 82.9374 27.1584 83.5327C28.9054 83.7312 31.1984 83.7311 31.8535 82.2428C32.8363 80.2583 29.5605 78.77 27.1584 78.6708C21.2621 78.2739 15.2566 78.5715 9.46951 79.3653C7.17651 79.7622 4.77431 80.1591 2.48132 79.8614C1.82618 76.3886 1.28022 72.9158 0.952645 69.3438C3.24564 68.55 5.97541 68.4508 8.48679 68.55C17.3312 68.7485 26.0665 70.0384 34.4741 72.2213C34.5989 72.2496 34.7237 72.28 34.8485 72.3104C35.5972 72.4926 36.3459 72.6749 37.0947 72.4197C37.9682 72.2213 38.6234 71.229 38.0774 70.5345C37.859 70.336 37.6406 70.1376 37.4223 70.0384L37.197 69.9048C32.2459 66.9701 27.1811 63.968 21.4805 62.7951C21.2586 62.7548 21.0367 62.7163 20.8154 62.6778C19.4029 62.4327 18.0125 62.1914 16.7853 61.5052C16.0365 61.1083 15.4304 60.5818 14.8243 60.0553C14.3697 59.6604 13.9151 59.2656 13.4004 58.9254C11.0641 57.3502 8.18584 57.2377 5.26245 57.1233C3.95034 57.072 2.62913 57.0204 1.34374 56.8359C1.6253 53.0835 2.75181 49.2564 3.82543 45.609C3.97959 45.0852 4.13267 44.5652 4.28199 44.0496C4.30793 43.9782 4.334 43.9068 4.36016 43.8354C7.4081 43.7396 9.36541 44.5403 12.1993 45.8279C13.0728 46.2579 13.9342 46.6989 14.7956 47.1399C16.5184 48.0219 18.2412 48.9039 20.061 49.6976C21.0801 50.1186 22.1386 50.5039 23.2031 50.8913C24.6475 51.417 26.1029 51.9467 27.4859 52.5751C31.6481 54.441 35.1051 57.2296 38.5594 60.016C41.9017 62.712 45.2414 65.406 49.2148 67.2601C50.4159 67.8555 51.7262 68.3516 53.0365 68.1531C54.3468 67.9547 55.6571 66.9624 55.5479 65.7718C55.5479 65.1764 55.2203 64.6803 54.7835 64.1842C53.224 62.2783 50.7108 61.4314 48.2096 60.5886C45.6323 59.7201 43.0676 58.8558 41.5715 56.8417C40.7944 55.9002 40.4014 54.7842 40.0052 53.6593C39.7334 52.8874 39.46 52.1113 39.0601 51.3844C37.8084 49.1613 35.5488 47.6655 33.2852 46.1671C31.2047 44.7899 29.1209 43.4105 27.8135 41.4621C26.8308 40.073 26.3121 38.4606 25.7935 36.8482C25.2748 35.2359 24.7562 33.6235 23.7735 32.2344C22.4968 30.4186 20.8314 29.4088 19.1867 28.4117C17.6646 27.4888 16.1604 26.5768 14.9987 25.0467C17.3957 22.0709 20.0437 19.3057 22.9107 16.7833C23.4528 16.3488 24.0034 15.9241 24.5617 15.509C27.4285 16.5869 28.3962 17.8734 30.0122 20.0217C30.1812 20.2463 30.3572 20.4803 30.5433 20.7245C33.7671 24.9358 36.9084 29.1846 40.0432 33.4248C42.0048 36.078 43.9639 38.7278 45.9391 41.3629C48.1229 44.1411 50.1975 47.0186 52.2722 49.8961L55.5479 54.3611C55.5963 54.4198 55.6447 54.4806 55.6938 54.5423C55.9771 54.8982 56.2837 55.2835 56.749 55.4526C58.0593 56.0479 59.5879 54.8572 59.8063 53.5673C60.0247 52.2774 59.3695 51.0868 58.7144 49.8961L39.7153 17.1525C39.6087 16.9803 39.5035 16.8082 39.3985 16.6366C38.5354 15.2253 37.6933 13.8482 36.3304 12.7867C35.6283 12.2763 34.9043 12.0266 34.2203 11.7907C33.3085 11.4763 32.4676 11.1863 31.8437 10.3359C32.9915 9.7224 34.1426 9.03803 35.3047 8.34715C36.1827 7.82513 37.067 7.29939 37.9609 6.79768Z" fill="#712B23"/>
<path d="M37.9609 6.79768C39.7704 5.9246 41.6255 5.13106 43.5217 4.42162C45.7771 5.52846 47.4207 7.12383 49.1888 8.84006C49.4841 9.12676 49.783 9.41683 50.0887 9.70856C50.4163 10.0062 50.8531 10.4032 51.1806 10.8C47.1406 12.6853 43.3189 14.9674 39.7156 17.5472C39.661 17.4976 39.6337 17.4231 39.6065 17.3487C39.5792 17.2743 39.5519 17.1999 39.4973 17.1503C39.3907 16.9782 39.2854 16.806 39.1805 16.6344C38.3174 15.2231 37.4753 13.8461 36.1123 12.7845C35.4556 12.2729 34.7567 12.0237 34.0951 11.7878C33.2168 11.4746 32.4043 11.1849 31.8437 10.3359C32.9915 9.7224 34.1426 9.03803 35.3047 8.34715C36.1827 7.82513 37.067 7.29939 37.9609 6.79768Z" fill="#5E231F"/>
<path d="M15.2125 24.7827C17.3204 22.1928 19.6194 19.7645 22.0879 17.5193C22.9829 16.7632 23.9021 16.036 24.8437 15.3359C27.3171 16.266 28.1384 17.4554 29.3161 19.1611C29.6462 19.6391 30.0042 20.1576 30.4345 20.7223C30.762 21.1688 31.1169 21.6401 31.4718 22.1114C31.8266 22.5828 32.1815 23.0541 32.5091 23.5006C29.4517 26.378 26.6128 29.5532 24.2106 33.026C24.1014 32.7283 23.883 32.4306 23.6646 32.2322C22.3874 30.4155 20.822 29.3614 19.2759 28.3204C17.8184 27.3389 16.3781 26.3691 15.2125 24.7827Z" fill="#5E231F"/>
<path d="M4.28199 44.0496C4.30793 43.9782 4.334 43.9068 4.36016 43.8354C7.40771 43.7389 9.25659 44.3397 12.0904 45.6273C13.6191 46.3219 15.0386 47.0164 16.5673 47.8102C15.257 51.4815 14.3834 55.2519 13.7283 59.0224C13.6737 58.9728 13.5918 58.9232 13.5099 58.8736C13.428 58.824 13.3461 58.7744 13.2916 58.7248C11.009 57.1858 8.25865 57.1342 5.43704 57.0813C4.07434 57.0557 2.69502 57.0298 1.34374 56.8359C1.6253 53.0835 2.75181 49.2564 3.82543 45.609C3.97959 45.0852 4.13267 44.5652 4.28199 44.0496Z" fill="#5E231F"/>
<path d="M11.0542 102.971C10.3459 101.884 9.66849 100.775 9.0233 99.6448C9.29833 99.4847 9.50411 99.3958 9.79745 99.307C12.5271 98.2156 15.1131 97.5226 17.8428 96.332C18.7163 98.5149 19.9522 100.2 21.0441 102.284C20.6466 102.759 20.2853 103.219 19.9392 103.66C18.479 105.521 17.2919 107.034 14.8202 107.836C14.1202 106.691 13.2009 105.583 12.2667 104.457C11.8597 103.967 11.4499 103.473 11.0542 102.971Z" fill="#5E231F"/>
<path d="M26.3382 119.489C25.7499 119.037 25.1694 118.576 24.5969 118.105C24.2774 117.798 24.0733 117.726 23.5411 117.178L23.5093 117.145C23.5093 117.145 24.0796 116.616 24.3437 116.336C25.654 114.947 26.8141 114.389 28.3428 113.297C29.3255 114.488 30.1069 115.282 31.0896 116.373L30.762 116.969C30.3255 117.861 30.3141 118.406 30.3029 118.939C30.2917 119.472 30.2808 119.992 29.8437 120.836C29.705 121.088 29.692 121.217 29.6817 121.32C29.6694 121.442 29.6608 121.527 29.4466 121.739C28.9709 121.415 28.4995 121.085 28.0327 120.749C27.4832 120.304 26.949 119.884 26.8437 119.836C26.6581 119.709 26.4908 119.595 26.3382 119.489Z" fill="#5E231F"/>
<path d="M38.5145 126.919C36.326 125.888 34.2027 124.741 32.1527 123.487C32.6134 122.451 33.1855 121.442 33.7537 120.44C33.9599 120.076 34.1656 119.713 34.3653 119.35C35.2388 120.144 36.2214 120.838 37.204 121.533C37.477 121.731 37.7775 121.905 38.0778 122.079C38.378 122.252 38.6783 122.426 38.9513 122.624C38.5145 123.716 38.5145 125.006 38.5145 126.196L38.5145 126.919Z" fill="#5E231F"/>
<path d="M52.5322 131.689C49.6309 131.053 46.8004 130.229 44.0545 129.228C44.1087 128.5 44.2325 127.778 44.4108 127.089C44.4654 126.841 44.5473 126.569 44.6292 126.296C44.7111 126.023 44.793 125.75 44.8476 125.502C47.1406 126.395 49.5428 126.99 51.945 127.387C51.945 128.479 52.1633 129.57 52.3817 130.562C52.4598 130.917 52.5099 131.297 52.5322 131.689Z" fill="#5E231F"/>
<path d="M63.7636 133.158C61.4725 133.054 59.2116 132.835 56.9866 132.505C56.7641 131.767 56.6402 130.997 56.6402 130.265C56.6402 129.471 56.531 128.578 56.4218 127.784C58.278 127.883 60.1342 127.883 61.9905 127.685C62.1083 127.881 62.2296 128.077 62.3513 128.274C62.9064 129.172 63.4689 130.082 63.7375 131.058C63.9559 131.753 63.9559 132.547 63.8467 133.142C63.819 133.147 63.7913 133.153 63.7636 133.158Z" fill="#5E231F"/>
<path d="M75.2348 0.755165C75.3396 0.768419 75.4444 0.781917 75.549 0.795659C76.4162 1.58372 77.2827 2.3725 78.0415 3.25907C78.0415 3.30868 78.0688 3.33348 78.0961 3.35829C78.1234 3.38309 78.1507 3.4079 78.1507 3.45751C73.1279 3.8544 68.2144 4.74741 63.41 6.13653C63.0824 5.64042 62.6456 5.1443 62.2089 4.74741C61.9638 4.52469 61.7077 4.31197 61.4542 4.10139C60.5783 3.37383 59.7332 2.67186 59.4791 1.67149L59.4791 0.877709C65.0435 0.391511 70.3982 0.381793 75.2348 0.755165Z" fill="#5E231F"/>
<path d="M90.0524 109.924C90.38 110.023 90.7076 110.122 91.0351 110.321C90.5984 111.908 89.9432 113.397 89.0697 114.984L87.1043 114.389C88.1962 113 89.1789 111.511 90.0524 109.924Z" fill="#5E231F"/>
<path d="M82.2999 123.617C81.3172 123.121 80.2253 122.426 79.2426 121.731C81.0988 120.442 82.8459 119.052 84.3745 117.366C85.1389 117.762 85.9032 118.159 86.6675 118.655C85.794 119.846 84.8113 120.938 83.7194 122.128C83.2826 122.624 82.8459 123.121 82.2999 123.617Z" fill="#5E231F"/>
<path d="M19.3428 113.332C18.1187 112.189 17.3812 111.468 16.3428 109.832C18.8541 107.947 20.5081 107.122 23.2379 105.832C24.2206 107.42 25.1614 109.236 26.2533 110.724C26.2753 110.756 26.2115 110.686 26.2533 110.724C25.8428 111.332 25.7923 111.328 25.5739 111.527C25.1041 111.954 24.8027 112.585 24.5087 113.2C24.3928 113.443 24.2779 113.683 24.1544 113.908C24.0314 114.163 23.9395 114.366 23.8651 114.531C23.7125 114.868 23.6329 115.043 23.5093 115.177C23.3758 115.321 23.1906 115.418 22.8058 115.619L22.8044 115.619C22.6396 115.705 22.4383 115.81 22.189 115.946C21.5096 115.184 20.0494 113.992 19.3428 113.332Z" fill="#5E231F"/>
<path d="M69.3062 131.753C72.4728 130.661 75.4209 129.074 78.2599 127.089C77.3863 126.395 76.4036 125.7 75.4209 125.204C75.0933 125.006 74.7658 124.807 74.4382 124.51C74.2163 124.61 74.0014 124.711 73.79 124.811C73.1693 125.102 72.5784 125.379 71.9268 125.601C70.0706 126.296 68.1052 126.792 66.2489 127.189C67.1224 128.776 67.996 130.364 69.3062 131.753Z" fill="#5E231F"/>
<path d="M12.8548 68.5478C11.3261 68.4486 9.79746 68.3494 8.37798 68.3494C5.8666 68.2502 2.63577 68.5382 0.342767 69.332C0.670342 72.9041 1.18763 76.3592 1.84277 79.832C4.13576 80.1297 7.06769 79.5616 9.36069 79.1647C9.52886 79.1412 9.6955 79.1177 9.86098 79.0943L9.86205 79.0942C11.0929 78.9205 12.259 78.756 13.5099 78.6686C12.964 75.3942 12.8548 72.0206 12.8548 68.5478Z" fill="#5E231F"/>
<path d="M15.0386 93.6513C12.6364 94.8419 10.125 96.0326 7.50445 96.4295C5.69163 93.2048 4.04386 89.1025 2.84277 85.332C5.13576 84.2406 8.48717 83.9274 11.1077 83.729C12.1981 83.6299 13.1796 83.5308 14.161 83.4317L14.1651 83.4313C14.8202 86.6064 15.6937 89.6824 16.7856 92.7583C16.5127 92.9071 16.2124 93.0559 15.9121 93.2048C15.6118 93.3536 15.3116 93.5024 15.0386 93.6513Z" fill="#5E231F"/>
<path d="M75.4211 101.491C74.5476 97.7202 72.1454 94.0489 68.4329 92.2629C64.7204 90.4769 59.4793 90.973 56.9679 94.0489C54.4565 97.1248 55.9852 102.483 60.1344 103.376C58.169 101.888 58.2782 98.9108 60.0252 97.3233C61.7723 95.7357 64.7204 95.438 67.0134 96.4303C69.3064 97.4225 70.8351 99.5062 71.4902 101.689C72.6913 105.658 70.9443 110.321 66.9043 112.207C64.9388 113.199 62.5366 113.397 60.2436 113.397C53.4738 113.199 46.5948 110.321 42.5548 105.36C38.5147 100.399 37.532 93.3543 40.6985 87.7978C43.9743 82.1421 50.8533 78.8678 57.7323 77.6771C62.5366 76.8833 67.6686 76.7841 72.3638 78.1732C77.6049 79.6616 81.9725 82.7375 85.7942 86.2103C86.9953 87.3017 88.3056 88.8893 89.7251 90.5761C91.3629 90.2784 97.8051 86.9048 105.012 82.2414C103.811 80.8522 102.282 79.6616 100.862 78.4709C97.4776 75.8911 93.9835 73.4105 90.3802 71.1284C87.2137 69.1439 83.938 67.3579 80.3347 66.068C64.5021 60.6107 36.7677 63.389 30.7622 77.181C29.1243 80.8522 27.1589 87.5994 27.4865 91.5683C28.2508 99.5062 31.9633 107.246 38.4055 112.604C44.8478 117.962 54.129 120.641 62.6458 119.053C66.9042 118.259 71.0535 116.374 73.4557 113.1C75.9671 109.925 76.4038 105.46 75.4211 101.491Z" fill="#5E231F"/>
<path d="M51.2893 84.42C49.1055 85.5115 47.0309 86.7022 45.5022 88.389C43.8643 90.0758 42.8816 92.3579 43.3184 94.5408C43.4276 95.2354 43.7551 95.9299 44.3011 96.3268C44.8471 96.8229 45.7206 97.0214 46.3757 96.7237C47.3584 96.3268 47.5768 95.2354 47.7952 94.3423C48.9963 89.3812 53.8007 85.4123 59.3694 84.9162C60.6797 84.8169 62.2083 84.6185 62.7543 83.527C64.6105 79.1612 52.3812 83.8247 51.2893 84.42Z" fill="#A43D34"/>
<path d="M69.5241 83.1301C68.9781 82.4356 67.6679 82.4356 67.0127 83.0309C66.3576 83.6263 66.3576 84.7177 66.9035 85.5115C67.4495 86.2061 68.4322 86.7022 69.3057 86.7022C70.0701 86.8014 71.0528 86.6029 71.3803 85.9084C71.7079 85.4123 71.5987 84.7177 71.2711 84.2216C70.9436 83.7255 70.5068 83.3286 70.0701 82.9317L69.5241 83.1301Z" fill="#A43D34"/>
</svg>
