<svg width="73" height="73" viewBox="0 0 73 73" fill="none" xmlns="http://www.w3.org/2000/svg">
<path d="M36.0324 67.0621C52.8678 67.0621 66.5182 53.437 66.5216 36.6297C66.5249 19.8223 52.8799 6.19727 36.0446 6.19727C19.2093 6.19727 5.5588 19.8223 5.55544 36.6297C5.55208 53.437 19.1971 67.0621 36.0324 67.0621Z" fill="#5A6C52"/>
<path fill-rule="evenodd" clip-rule="evenodd" d="M36.0436 11.7452C22.2637 11.7452 11.1065 22.895 11.1037 36.6295C11.101 50.364 22.2538 61.5138 36.0337 61.5138C49.8136 61.5138 60.9708 50.364 60.9736 36.6295C60.9763 22.895 49.8235 11.7452 36.0436 11.7452ZM0.00745613 36.6295C0.0114301 16.7493 16.1551 0.648926 36.0458 0.648926C55.9366 0.648926 72.0738 16.7493 72.0698 36.6295C72.0659 56.5097 55.9222 72.61 36.0315 72.61C16.1407 72.61 0.00348219 56.5097 0.00745613 36.6295Z" fill="black"/>
</svg>
