<svg width="133" height="151" viewBox="0 0 133 151" fill="none" xmlns="http://www.w3.org/2000/svg">
<path d="M41.6467 0.743162C41.5264 0.743162 41.4302 0.743162 41.3099 0.743162C19.7527 0.743163 -5.84708e-06 16.9412 -4.78196e-06 41.3133C-3.93533e-06 60.686 13.401 71.9097 25.936 75.7342C13.401 79.5588 -2.62004e-06 90.7824 -1.77341e-06 110.155C-7.08291e-07 134.527 19.7527 150.725 41.3099 150.725C41.4302 150.725 41.5264 150.725 41.6467 150.725C46.3383 150.85 94.072 150.725 133 75.7592C94.096 0.74316 46.3383 0.618177 41.6467 0.743162Z" fill="#EB3F7C"/>
<path d="M116.495 102.756C122.077 95.0568 127.635 86.1328 133 75.7591C94.096 0.743001 46.3383 0.618019 41.6467 0.743003C41.5264 0.743003 41.4302 0.743003 41.3099 0.743003C38.5912 0.743004 35.8725 0.992966 33.25 1.51791C88.0812 25.1401 108.748 72.0345 116.495 102.756Z" fill="#DE4082"/>
<path d="M46.2191 146.576C46.2191 146.576 5.12572 147.101 4.64453 102.756C4.64453 102.756 11.6939 132.928 46.2191 146.576Z" fill="#FF87BD"/>
</svg>
