<svg width="72" height="102" viewBox="0 0 72 102" fill="none" xmlns="http://www.w3.org/2000/svg">
<rect width="37.3967" height="20.5205" transform="matrix(-1 0 0 1 51.6781 68.2109)" fill="#C20000"/>
<mask id="path-2-outside-1" maskUnits="userSpaceOnUse" x="-0.58316" y="-0.18042" width="73" height="103" fill="black">
<rect fill="white" x="-0.58316" y="-0.18042" width="73" height="103"/>
<path fill-rule="evenodd" clip-rule="evenodd" d="M25.6138 15.0913C25.6138 11.0752 22.3582 7.81958 18.3421 7.81958C14.326 7.81958 11.0704 11.0752 11.0704 15.0913V48.8852C10.681 49.3303 10.3258 49.8029 10.0073 50.2854C8.46462 52.624 7.43459 55.6948 7.43459 58.7213C7.43459 63.0985 7.84508 80.0635 9.74298 88.7317C10.5789 92.5489 14.078 94.6919 17.6338 94.6919H48.3884C51.7851 94.6919 55.0905 92.8027 56.4512 89.489C58.1444 85.3656 59.9321 76.0838 60.135 67.5993C61.6002 66.6732 62.6694 65.1396 62.9463 63.2908L64.3478 53.9369C64.8533 50.5621 62.5277 47.4167 59.1532 46.9114C56.8005 46.5587 54.5591 47.5825 53.2461 49.3786L53.7643 45.9202C54.3525 41.9944 51.6468 38.335 47.721 37.7468C43.7094 37.1458 39.9954 39.9814 39.5182 44.0096L39.2204 46.5234L39.771 38.7712C40.053 34.801 37.0893 31.3424 33.1226 31.0129C29.6979 30.7284 26.6362 32.8659 25.6138 35.988V15.0913ZM56.4669 68.5431C56.1632 75.9864 54.5651 84.5104 53.0879 88.1077C52.3561 89.89 50.5004 91.056 48.3884 91.056H17.6338C15.4222 91.056 13.6926 89.7708 13.2948 87.9539C11.4871 79.6988 11.0704 63.073 11.0704 58.7213C11.0704 56.4652 11.8579 54.0827 13.0421 52.2877C14.2849 50.4047 15.6254 49.6317 16.5242 49.6317C17.4913 49.6317 20.2131 49.9585 23.6995 50.4541C27.1136 50.9391 31.0868 51.5587 34.4323 52.0946C36.1155 52.3644 37.4811 53.3966 38.2421 54.7815L38.2315 54.8717L38.2944 54.8789C38.8337 55.9104 39.0418 57.128 38.8039 58.3679C38.2449 61.2813 35.43 63.1897 32.5167 62.6309L27.7742 61.7208L27.7447 61.7154L27.7153 61.7107L20.4436 60.5614C19.455 60.4054 18.5261 61.0777 18.3654 62.0659C18.205 63.0537 18.8737 63.9856 19.8611 64.1503C21.5027 64.4241 23.978 65.1731 25.9901 66.4743C28.0036 67.7763 29.2496 69.4106 29.2496 71.4467V72.026C29.2496 73.0298 30.0633 73.8439 31.0675 73.8439C32.0714 73.8439 32.8853 73.0298 32.8853 72.026V71.4467C32.8853 69.2612 32.087 67.468 30.9246 66.0275L31.8317 66.2016C34.3681 66.6881 36.86 66.0595 38.8011 64.6586L40.4586 65.4607C41.0829 65.7628 41.7443 65.9817 42.4258 66.1115C45.7635 66.7467 48.9944 65.1858 50.6577 62.4647C50.6971 65.4381 52.8844 68.0305 55.9209 68.4853C56.1037 68.5129 56.2858 68.5318 56.4669 68.5431ZM41.3388 61.8474C41.8247 61.0028 42.1806 60.064 42.3746 59.0529C42.6975 57.3698 42.5293 55.7068 41.9707 54.2125L43.1289 44.4372C43.3646 42.4469 45.1999 41.0456 47.1822 41.3425C49.1223 41.6332 50.4593 43.4413 50.1686 45.3814L48.1322 58.9736C47.7726 61.3736 45.4896 62.9934 43.1056 62.5396C42.7373 62.4695 42.3799 62.3513 42.0425 62.188L41.3388 61.8474ZM35.4292 48.5824C35.2901 48.5533 35.1495 48.5275 35.0076 48.5046C32.9056 48.1679 30.5505 47.797 28.237 47.4469L28.8973 38.0029C29.0387 35.9831 30.8039 34.4687 32.8216 34.6363C34.804 34.8009 36.2853 36.5294 36.1444 38.5136L35.4292 48.5824ZM21.9779 46.546C19.5503 46.222 17.5182 45.9958 16.5242 45.9958C15.893 45.9958 15.2858 46.1042 14.7063 46.2987V15.0913C14.7063 13.0833 16.334 11.4554 18.3421 11.4554C20.3502 11.4554 21.9779 13.0833 21.9779 15.0913V46.546ZM54.322 61.9986L55.7234 52.6447C55.9314 51.2558 57.2258 50.2989 58.6145 50.5068C60.0031 50.7152 60.9601 52.0095 60.752 53.398L59.3507 62.7523C59.1426 64.1408 57.8482 65.0978 56.4595 64.8898C55.0709 64.6819 54.1139 63.3875 54.322 61.9986Z"/>
</mask>
<path fill-rule="evenodd" clip-rule="evenodd" d="M25.6138 15.0913C25.6138 11.0752 22.3582 7.81958 18.3421 7.81958C14.326 7.81958 11.0704 11.0752 11.0704 15.0913V48.8852C10.681 49.3303 10.3258 49.8029 10.0073 50.2854C8.46462 52.624 7.43459 55.6948 7.43459 58.7213C7.43459 63.0985 7.84508 80.0635 9.74298 88.7317C10.5789 92.5489 14.078 94.6919 17.6338 94.6919H48.3884C51.7851 94.6919 55.0905 92.8027 56.4512 89.489C58.1444 85.3656 59.9321 76.0838 60.135 67.5993C61.6002 66.6732 62.6694 65.1396 62.9463 63.2908L64.3478 53.9369C64.8533 50.5621 62.5277 47.4167 59.1532 46.9114C56.8005 46.5587 54.5591 47.5825 53.2461 49.3786L53.7643 45.9202C54.3525 41.9944 51.6468 38.335 47.721 37.7468C43.7094 37.1458 39.9954 39.9814 39.5182 44.0096L39.2204 46.5234L39.771 38.7712C40.053 34.801 37.0893 31.3424 33.1226 31.0129C29.6979 30.7284 26.6362 32.8659 25.6138 35.988V15.0913ZM56.4669 68.5431C56.1632 75.9864 54.5651 84.5104 53.0879 88.1077C52.3561 89.89 50.5004 91.056 48.3884 91.056H17.6338C15.4222 91.056 13.6926 89.7708 13.2948 87.9539C11.4871 79.6988 11.0704 63.073 11.0704 58.7213C11.0704 56.4652 11.8579 54.0827 13.0421 52.2877C14.2849 50.4047 15.6254 49.6317 16.5242 49.6317C17.4913 49.6317 20.2131 49.9585 23.6995 50.4541C27.1136 50.9391 31.0868 51.5587 34.4323 52.0946C36.1155 52.3644 37.4811 53.3966 38.2421 54.7815L38.2315 54.8717L38.2944 54.8789C38.8337 55.9104 39.0418 57.128 38.8039 58.3679C38.2449 61.2813 35.43 63.1897 32.5167 62.6309L27.7742 61.7208L27.7447 61.7154L27.7153 61.7107L20.4436 60.5614C19.455 60.4054 18.5261 61.0777 18.3654 62.0659C18.205 63.0537 18.8737 63.9856 19.8611 64.1503C21.5027 64.4241 23.978 65.1731 25.9901 66.4743C28.0036 67.7763 29.2496 69.4106 29.2496 71.4467V72.026C29.2496 73.0298 30.0633 73.8439 31.0675 73.8439C32.0714 73.8439 32.8853 73.0298 32.8853 72.026V71.4467C32.8853 69.2612 32.087 67.468 30.9246 66.0275L31.8317 66.2016C34.3681 66.6881 36.86 66.0595 38.8011 64.6586L40.4586 65.4607C41.0829 65.7628 41.7443 65.9817 42.4258 66.1115C45.7635 66.7467 48.9944 65.1858 50.6577 62.4647C50.6971 65.4381 52.8844 68.0305 55.9209 68.4853C56.1037 68.5129 56.2858 68.5318 56.4669 68.5431ZM41.3388 61.8474C41.8247 61.0028 42.1806 60.064 42.3746 59.0529C42.6975 57.3698 42.5293 55.7068 41.9707 54.2125L43.1289 44.4372C43.3646 42.4469 45.1999 41.0456 47.1822 41.3425C49.1223 41.6332 50.4593 43.4413 50.1686 45.3814L48.1322 58.9736C47.7726 61.3736 45.4896 62.9934 43.1056 62.5396C42.7373 62.4695 42.3799 62.3513 42.0425 62.188L41.3388 61.8474ZM35.4292 48.5824C35.2901 48.5533 35.1495 48.5275 35.0076 48.5046C32.9056 48.1679 30.5505 47.797 28.237 47.4469L28.8973 38.0029C29.0387 35.9831 30.8039 34.4687 32.8216 34.6363C34.804 34.8009 36.2853 36.5294 36.1444 38.5136L35.4292 48.5824ZM21.9779 46.546C19.5503 46.222 17.5182 45.9958 16.5242 45.9958C15.893 45.9958 15.2858 46.1042 14.7063 46.2987V15.0913C14.7063 13.0833 16.334 11.4554 18.3421 11.4554C20.3502 11.4554 21.9779 13.0833 21.9779 15.0913V46.546ZM54.322 61.9986L55.7234 52.6447C55.9314 51.2558 57.2258 50.2989 58.6145 50.5068C60.0031 50.7152 60.9601 52.0095 60.752 53.398L59.3507 62.7523C59.1426 64.1408 57.8482 65.0978 56.4595 64.8898C55.0709 64.6819 54.1139 63.3875 54.322 61.9986Z" fill="white"/>
<path d="M11.0704 48.8852H18.3421V51.6175L16.5429 53.6737L11.0704 48.8852ZM10.0073 50.2854L3.93738 46.2813L3.93868 46.2793L10.0073 50.2854ZM9.74298 88.7317L2.63962 90.2871L2.63959 90.2869L9.74298 88.7317ZM56.4512 89.489L63.1778 92.2512L63.1778 92.2512L56.4512 89.489ZM60.135 67.5993L52.8654 67.4254L52.9585 63.5327L56.25 61.4524L60.135 67.5993ZM62.9463 63.2908L55.7549 62.2136L55.7549 62.2133L62.9463 63.2908ZM64.3478 53.9369L71.5393 55.0141L71.5392 55.0144L64.3478 53.9369ZM59.1532 46.9114L58.0761 54.1028L58.0751 54.1027L59.1532 46.9114ZM53.2461 49.3786L59.1165 53.67L46.0547 48.3011L53.2461 49.3786ZM53.7643 45.9202L60.9557 46.9976L60.9557 46.9977L53.7643 45.9202ZM47.721 37.7468L48.7984 30.5554L48.7985 30.5554L47.721 37.7468ZM39.5182 44.0096L46.7394 44.8651L46.7394 44.8651L39.5182 44.0096ZM39.2204 46.5234L46.4416 47.3789L31.967 46.0083L39.2204 46.5234ZM39.771 38.7712L32.5176 38.256L32.5176 38.2559L39.771 38.7712ZM33.1226 31.0129L32.5207 38.2597L32.5206 38.2596L33.1226 31.0129ZM25.6138 35.988L32.5243 38.251L18.3421 35.988H25.6138ZM56.4669 68.5431L56.9186 61.2855L64.0227 61.7276L63.7325 68.8396L56.4669 68.5431ZM53.0879 88.1077L46.3612 85.3458L46.3613 85.3456L53.0879 88.1077ZM13.2948 87.9539L20.3982 86.3984L20.3983 86.3988L13.2948 87.9539ZM13.0421 52.2877L6.97234 48.2833L6.97306 48.2822L13.0421 52.2877ZM23.6995 50.4541L22.6767 57.6535L22.6762 57.6534L23.6995 50.4541ZM34.4323 52.0946L35.5825 44.9145L35.583 44.9146L34.4323 52.0946ZM38.2421 54.7815L44.6149 51.2794L45.7369 53.321L45.4636 55.6346L38.2421 54.7815ZM38.2315 54.8717L37.3964 62.0952L30.1548 61.2581L31.01 54.0186L38.2315 54.8717ZM38.2944 54.8789L39.1294 47.6554L42.9542 48.0975L44.7383 51.5095L38.2944 54.8789ZM38.8039 58.3679L31.6625 56.9976V56.9976L38.8039 58.3679ZM32.5167 62.6309L31.1469 69.7724L31.1464 69.7723L32.5167 62.6309ZM27.7742 61.7208L29.0983 54.5707L29.1214 54.575L29.1446 54.5795L27.7742 61.7208ZM27.7447 61.7154L28.897 54.5356L28.9831 54.5494L29.0689 54.5653L27.7447 61.7154ZM27.7153 61.7107L28.8505 54.5281L28.859 54.5295L28.8675 54.5309L27.7153 61.7107ZM20.4436 60.5614L21.5769 53.3786L21.5788 53.3789L20.4436 60.5614ZM18.3654 62.0659L11.1876 60.9008L11.188 60.8987L18.3654 62.0659ZM19.8611 64.1503L18.6649 71.3229L18.6648 71.3229L19.8611 64.1503ZM25.9901 66.4743L22.0416 72.5806L22.0412 72.5803L25.9901 66.4743ZM30.9246 66.0275L25.2655 70.5938L12.7981 55.1426L32.2958 58.8863L30.9246 66.0275ZM31.8317 66.2016L30.462 73.3431L30.4605 73.3429L31.8317 66.2016ZM38.8011 64.6586L34.5456 58.7622L38.0634 56.2233L41.9686 58.113L38.8011 64.6586ZM40.4586 65.4607L37.2912 72.0062L37.2911 72.0062L40.4586 65.4607ZM42.4258 66.1115L41.0664 73.2549L41.0653 73.2547L42.4258 66.1115ZM50.6577 62.4647L44.4534 58.6721L57.5951 37.1739L57.9288 62.3684L50.6577 62.4647ZM55.9209 68.4853L56.9981 61.2939L57.0074 61.2953L55.9209 68.4853ZM41.3388 61.8474L38.1701 68.3923L31.1419 64.9897L35.0357 58.2213L41.3388 61.8474ZM42.3746 59.0529L35.2331 57.6831L35.2331 57.6827L42.3746 59.0529ZM41.9707 54.2125L35.1594 56.7588L34.5421 55.1076L34.7495 53.3569L41.9707 54.2125ZM43.1289 44.4372L50.35 45.2927L50.35 45.2927L43.1289 44.4372ZM47.1822 41.3425L48.2596 34.1511L48.2596 34.1511L47.1822 41.3425ZM50.1686 45.3814L42.9772 44.304L42.9772 44.3039L50.1686 45.3814ZM48.1322 58.9736L55.3237 60.051L55.3236 60.0512L48.1322 58.9736ZM43.1056 62.5396L41.7459 69.6831L41.7445 69.6828L43.1056 62.5396ZM42.0425 62.188L38.8757 68.7339L38.8738 68.733L42.0425 62.188ZM35.4292 48.5824L42.6826 49.0976L42.0926 57.4046L33.9409 55.7001L35.4292 48.5824ZM35.0076 48.5046L36.1577 41.3244L36.1664 41.3258L35.0076 48.5046ZM28.237 47.4469L27.1489 54.6367L20.5151 53.6327L20.9831 46.9398L28.237 47.4469ZM28.8973 38.0029L21.6433 37.4957L21.6434 37.4949L28.8973 38.0029ZM32.8216 34.6363L33.4235 27.3895L33.4236 27.3896L32.8216 34.6363ZM36.1444 38.5136L43.3977 39.0288V39.0288L36.1444 38.5136ZM21.9779 46.546H29.2496V54.8524L21.0161 53.7537L21.9779 46.546ZM14.7063 46.2987L17.02 53.1925L7.43459 56.4096V46.2987H14.7063ZM54.322 61.9986L47.1305 60.9214L47.1306 60.9212L54.322 61.9986ZM55.7234 52.6447L62.9148 53.7219L62.9148 53.7221L55.7234 52.6447ZM58.6145 50.5068L59.6915 43.3154L59.6934 43.3156L58.6145 50.5068ZM60.752 53.398L53.5606 52.3207L53.5606 52.3206L60.752 53.398ZM59.3507 62.7523L66.5421 63.8297L66.5421 63.8298L59.3507 62.7523ZM56.4595 64.8898L55.3825 72.0813L55.3825 72.0813L56.4595 64.8898ZM18.3421 15.0913V15.0913V0.547909C26.3743 0.547909 32.8854 7.05925 32.8854 15.0913H18.3421ZM18.3421 15.0913V15.0913H3.79876C3.79876 7.05925 10.3099 0.547909 18.3421 0.547909V15.0913ZM18.3421 15.0913V48.8852H3.79876V15.0913H18.3421ZM16.5429 53.6737C16.3883 53.8504 16.2299 54.0583 16.0759 54.2915L3.93868 46.2793C4.42174 45.5475 4.97379 44.8101 5.59794 44.0968L16.5429 53.6737ZM16.0772 54.2896C15.251 55.542 14.7063 57.2361 14.7063 58.7213H0.162918C0.162918 54.1535 1.67822 49.7059 3.93738 46.2813L16.0772 54.2896ZM14.7063 58.7213C14.7063 63.175 15.1404 79.3849 16.8464 87.1764L2.63959 90.2869C0.549713 80.742 0.162918 63.0219 0.162918 58.7213H14.7063ZM16.8463 87.1762C16.8558 87.2193 16.8597 87.2109 16.8435 87.1871C16.8316 87.1696 16.8356 87.1838 16.8838 87.218C16.9354 87.2548 17.0294 87.3078 17.1699 87.3513C17.3106 87.3949 17.4706 87.4202 17.6338 87.4202V101.964C11.4255 101.964 4.35818 98.1354 2.63962 90.2871L16.8463 87.1762ZM17.6338 87.4202H48.3884V101.964H17.6338V87.4202ZM48.3884 87.4202C48.7574 87.4202 49.0943 87.3133 49.3344 87.1635C49.5511 87.0283 49.6612 86.8813 49.7246 86.7268L63.1778 92.2512C60.5549 98.6385 54.3421 101.964 48.3884 101.964V87.4202ZM49.7246 86.7268C50.9675 83.7 52.6752 75.3757 52.8654 67.4254L67.4046 67.7731C67.1889 76.7919 65.3213 87.0312 63.1778 92.2512L49.7246 86.7268ZM56.25 61.4524C56.0051 61.6072 55.8042 61.8846 55.7549 62.2136L70.1377 64.368C69.5346 68.3946 67.1953 71.7392 64.0201 73.7461L56.25 61.4524ZM55.7549 62.2133L57.1564 52.8594L71.5392 55.0144L70.1377 64.3683L55.7549 62.2133ZM57.1564 52.8596C57.067 53.4561 57.4782 54.0133 58.0761 54.1028L60.2302 39.7199C67.5771 40.8202 72.6396 47.6681 71.5393 55.0141L57.1564 52.8596ZM58.0751 54.1027C58.5023 54.1667 58.8964 53.971 59.1165 53.67L47.3757 45.0873C50.2218 41.194 55.0987 38.9506 60.2312 39.72L58.0751 54.1027ZM46.0547 48.3011L46.5729 44.8427L60.9557 46.9977L60.4375 50.4561L46.0547 48.3011ZM46.5729 44.8428C46.5734 44.8391 46.5726 44.8429 46.5731 44.8521C46.5736 44.8609 46.575 44.8702 46.5772 44.8787C46.5813 44.8948 46.5865 44.9025 46.5884 44.9051C46.5903 44.9077 46.5962 44.9149 46.6104 44.9236C46.6179 44.9282 46.6263 44.9322 46.6346 44.9353C46.6433 44.9385 46.6472 44.9388 46.6435 44.9382L48.7985 30.5554C56.696 31.7387 62.1389 39.1002 60.9557 46.9976L46.5729 44.8428ZM46.6437 44.9382C46.6391 44.9376 46.6428 44.9385 46.6525 44.9379C46.6618 44.9374 46.6715 44.9358 46.6804 44.9334C46.6972 44.929 46.7048 44.9236 46.7069 44.922C46.7091 44.9203 46.7163 44.9144 46.725 44.8994C46.7297 44.8914 46.7338 44.8824 46.7367 44.8736C46.7398 44.8644 46.7399 44.8605 46.7394 44.8651L32.297 43.1541C33.257 35.0505 40.7284 29.3464 48.7984 30.5554L46.6437 44.9382ZM46.7394 44.8651L46.4416 47.3789L31.9992 45.6679L32.2971 43.1541L46.7394 44.8651ZM31.967 46.0083L32.5176 38.256L47.0244 39.2863L46.4738 47.0386L31.967 46.0083ZM32.5176 38.2559C32.5179 38.251 32.5179 38.2484 32.5179 38.2478C32.5178 38.2472 32.5178 38.2477 32.518 38.2492C32.5185 38.2526 32.5194 38.2564 32.5205 38.2597C32.5215 38.2626 32.5222 38.2637 32.5218 38.2631C32.5214 38.2624 32.5203 38.2606 32.5184 38.2585C32.5166 38.2563 32.515 38.255 32.5144 38.2544C32.5138 38.254 32.5148 38.2548 32.5175 38.2563C32.5206 38.2579 32.5242 38.2593 32.5274 38.2603C32.5289 38.2607 32.5294 38.2607 32.5288 38.2606C32.5282 38.2605 32.5256 38.2601 32.5207 38.2597L33.7246 23.7662C41.6596 24.4253 47.5886 31.344 47.0244 39.2864L32.5176 38.2559ZM32.5206 38.2596C32.5122 38.2589 32.5099 38.2594 32.5123 38.2592C32.5144 38.259 32.5178 38.2585 32.5214 38.2575C32.5286 38.2556 32.53 38.2539 32.5268 38.2561C32.5252 38.2571 32.5234 38.2586 32.5216 38.2603C32.5198 38.2619 32.5188 38.2631 32.5186 38.2635C32.5184 38.2637 32.5192 38.2628 32.5204 38.2604C32.5218 38.2578 32.5232 38.2545 32.5243 38.251L18.7032 33.725C20.7483 27.4798 26.8634 23.1962 33.7246 23.7662L32.5206 38.2596ZM18.3421 35.988V15.0913H32.8854V35.988H18.3421ZM63.7325 68.8396C63.412 76.6938 61.7458 86.1667 59.8146 90.8699L46.3613 85.3456C47.3843 82.8542 48.9143 75.279 49.2013 68.2467L63.7325 68.8396ZM59.8147 90.8697C57.8322 95.698 53.0905 98.3277 48.3884 98.3277V83.7844C47.9103 83.7844 46.8801 84.0821 46.3612 85.3458L59.8147 90.8697ZM48.3884 98.3277H17.6338V83.7844H48.3884V98.3277ZM17.6338 98.3277C12.6686 98.3277 7.45292 95.2712 6.19141 89.5091L20.3983 86.3988C20.1898 85.4465 19.6367 84.7215 19.0445 84.2934C18.4672 83.876 17.9347 83.7844 17.6338 83.7844V98.3277ZM6.19148 89.5094C4.19139 80.3759 3.79876 62.9923 3.79876 58.7213H18.3421C18.3421 63.1537 18.7828 79.0216 20.3982 86.3984L6.19148 89.5094ZM3.79876 58.7213C3.79876 54.9252 5.07084 51.1656 6.97234 48.2833L19.1119 56.292C18.6451 56.9997 18.3421 58.0053 18.3421 58.7213H3.79876ZM6.97306 48.2822C8.72227 45.6318 11.9743 42.36 16.5242 42.36V56.9034C17.3255 56.9034 17.9424 56.7357 18.3308 56.5899C18.7288 56.4405 18.9904 56.2763 19.1259 56.1799C19.3895 55.9925 19.3381 55.9494 19.1112 56.2931L6.97306 48.2822ZM16.5242 42.36C18.1318 42.36 21.4682 42.7922 24.7228 43.2548L22.6762 57.6534C20.965 57.4102 19.4801 57.2139 18.3283 57.0802C17.0325 56.9297 16.5207 56.9034 16.5242 56.9034V42.36ZM24.7223 43.2547C28.1995 43.7487 32.222 44.3761 35.5825 44.9145L33.2821 59.2747C29.9517 58.7412 26.0276 58.1295 22.6767 57.6535L24.7223 43.2547ZM35.583 44.9146C39.5812 45.5554 42.8234 48.0194 44.6149 51.2794L31.8693 58.2836C32.1387 58.7738 32.6498 59.1734 33.2815 59.2746L35.583 44.9146ZM45.4636 55.6346L45.4529 55.7247L31.01 54.0186L31.0207 53.9284L45.4636 55.6346ZM39.0665 47.6481L39.1294 47.6554L37.4593 62.1025L37.3964 62.0952L39.0665 47.6481ZM44.7383 51.5095C46.0139 53.9491 46.5027 56.833 45.9453 59.7381L31.6625 56.9976C31.5808 57.4231 31.6535 57.8717 31.8504 58.2483L44.7383 51.5095ZM45.9453 59.7381C44.6295 66.5958 38.0038 71.0877 31.1469 69.7724L33.8866 55.4894C32.8562 55.2918 31.8603 55.9668 31.6625 56.9976L45.9453 59.7381ZM31.1464 69.7723L26.4038 68.8622L29.1446 54.5795L33.8871 55.4895L31.1464 69.7723ZM26.4501 68.8709L26.4206 68.8655L29.0689 54.5653L29.0983 54.5707L26.4501 68.8709ZM26.5925 68.8952L26.563 68.8905L28.8675 54.5309L28.897 54.5356L26.5925 68.8952ZM26.5801 68.8932L19.3084 67.7439L21.5788 53.3789L28.8505 54.5281L26.5801 68.8932ZM19.3103 67.7442C22.2756 68.212 25.061 66.1955 25.5428 63.2331L11.188 60.8987C11.9911 55.9598 16.6345 52.5987 21.5769 53.3786L19.3103 67.7442ZM25.5431 63.2309C26.0245 60.2653 24.0175 57.4714 21.0575 56.9777L18.6648 71.3229C13.7298 70.4998 10.3856 65.8422 11.1876 60.9008L25.5431 63.2309ZM21.0574 56.9777C23.403 57.3689 26.8848 58.3931 29.939 60.3683L22.0412 72.5803C21.6143 72.3043 21.0258 72.0196 20.3409 71.775C19.6603 71.5319 19.0489 71.3869 18.6649 71.3229L21.0574 56.9777ZM29.9385 60.368C33.0123 62.3556 36.5213 65.9415 36.5213 71.4467H21.9779C21.9779 71.6929 22.0177 71.962 22.1026 72.2253C22.1859 72.4837 22.2913 72.6708 22.3673 72.7822C22.5006 72.9777 22.4948 72.8737 22.0416 72.5806L29.9385 60.368ZM36.5213 71.4467V72.026H21.9779V71.4467H36.5213ZM36.5213 72.026C36.5213 69.0147 34.0803 66.5722 31.0675 66.5722V81.1156C26.0463 81.1156 21.9779 77.0449 21.9779 72.026H36.5213ZM31.0675 66.5722C28.0547 66.5722 25.6137 69.0145 25.6137 72.026H40.157C40.157 77.0451 36.0882 81.1156 31.0675 81.1156V66.5722ZM25.6137 72.026V71.4467H40.157V72.026H25.6137ZM25.6137 71.4467C25.6137 71.2613 25.5837 71.1461 25.5492 71.0558C25.51 70.9533 25.4312 70.7991 25.2655 70.5938L36.5838 61.4612C38.6162 63.98 40.157 67.343 40.157 71.4467H25.6137ZM32.2958 58.8863L33.2028 59.0604L30.4605 73.3429L29.5535 73.1687L32.2958 58.8863ZM33.2014 59.0601C33.6912 59.1541 34.1608 59.0398 34.5456 58.7622L43.0566 70.555C39.5592 73.0791 35.0451 74.2222 30.462 73.3431L33.2014 59.0601ZM41.9686 58.113L43.626 58.9151L37.2911 72.0062L35.6336 71.2042L41.9686 58.113ZM43.626 58.9151C43.6774 58.94 43.7314 58.9577 43.7864 58.9682L41.0653 73.2547C39.7573 73.0056 38.4884 72.5856 37.2912 72.0062L43.626 58.9151ZM43.7853 58.968C43.9312 58.9958 44.0506 58.9768 44.1619 58.9262C44.2878 58.869 44.3903 58.7753 44.4534 58.6721L56.862 66.2574C53.6785 71.4652 47.4851 74.4764 41.0664 73.2549L43.7853 58.968ZM57.9288 62.3684C57.9217 61.8363 57.5426 61.3754 56.9981 61.2939L54.8436 75.6767C48.2263 74.6855 43.4725 69.04 43.3867 62.561L57.9288 62.3684ZM57.0074 61.2953C56.9695 61.2895 56.9394 61.2868 56.9186 61.2855L56.0152 75.8008C55.6322 75.7769 55.2379 75.7363 54.8343 75.6753L57.0074 61.2953ZM35.0357 58.2213C35.1239 58.068 35.1933 57.8906 35.2331 57.6831L49.5161 60.4226C49.168 62.2374 48.5255 63.9376 47.6419 65.4735L35.0357 58.2213ZM35.2331 57.6827C35.2977 57.3464 35.2635 57.0371 35.1594 56.7588L48.782 51.6661C49.7952 54.3765 50.0973 57.3933 49.516 60.423L35.2331 57.6827ZM34.7495 53.3569L35.9077 43.5816L50.35 45.2927L49.1919 55.068L34.7495 53.3569ZM35.9077 43.5817C36.6263 37.5162 42.2187 33.2461 48.2596 34.1511L46.1049 48.5339C48.181 48.845 50.103 47.3776 50.35 45.2927L35.9077 43.5817ZM48.2596 34.1511C54.1712 35.0367 58.2458 40.5469 57.36 46.4589L42.9772 44.3039C42.6728 46.3358 44.0734 48.2296 46.1049 48.5339L48.2596 34.1511ZM57.36 46.4588L55.3237 60.051L40.9408 57.8962L42.9772 44.304L57.36 46.4588ZM55.3236 60.0512C54.3523 66.5333 48.1859 70.9088 41.7459 69.6831L44.4652 55.3962C42.7932 55.078 41.1929 56.214 40.9409 57.896L55.3236 60.0512ZM41.7445 69.6828C40.7512 69.4935 39.7867 69.1747 38.8757 68.7339L45.2093 55.6422C44.9731 55.5279 44.7233 55.4454 44.4666 55.3965L41.7445 69.6828ZM38.8738 68.733L38.1701 68.3923L44.5074 55.3024L45.2111 55.6431L38.8738 68.733ZM33.9409 55.7001C33.9187 55.6955 33.8883 55.6897 33.8489 55.6833L36.1664 41.3258C36.4107 41.3653 36.6615 41.4111 36.9175 41.4646L33.9409 55.7001ZM33.8575 55.6847C31.7682 55.3501 29.435 54.9827 27.1489 54.6367L29.3252 40.2571C31.666 40.6114 34.043 40.9857 36.1577 41.3244L33.8575 55.6847ZM20.9831 46.9398L21.6433 37.4957L36.1513 38.51L35.491 47.9541L20.9831 46.9398ZM21.6434 37.4949C22.0679 31.4328 27.3662 26.8865 33.4235 27.3895L32.2198 41.883C34.2416 42.0509 36.0096 40.5334 36.1512 38.5108L21.6434 37.4949ZM33.4236 27.3896C39.3742 27.8838 43.8208 33.0723 43.3977 39.0288L28.8909 37.9985C28.7498 39.9865 30.2338 41.718 32.2197 41.883L33.4236 27.3896ZM43.3977 39.0288L42.6826 49.0976L28.1758 48.0672L28.8909 37.9985L43.3977 39.0288ZM21.0161 53.7537C19.8368 53.5964 18.7998 53.469 17.9634 53.3823C17.546 53.339 17.2045 53.3086 16.937 53.2895C16.8045 53.28 16.7018 53.2742 16.6258 53.2709C16.5471 53.2674 16.5164 53.2675 16.5242 53.2675V38.7242C18.0992 38.7242 20.6488 39.0325 22.9398 39.3382L21.0161 53.7537ZM16.5242 53.2675C16.738 53.2675 16.9113 53.2289 17.02 53.1925L12.3925 39.405C13.6603 38.9794 15.048 38.7242 16.5242 38.7242V53.2675ZM7.43459 46.2987V15.0913H21.9779V46.2987H7.43459ZM7.43459 15.0913C7.43459 9.06731 12.3179 4.18374 18.3421 4.18374V18.7271C20.3502 18.7271 21.9779 17.0992 21.9779 15.0913H7.43459ZM18.3421 4.18374C24.3663 4.18374 29.2496 9.06731 29.2496 15.0913H14.7063C14.7063 17.0992 16.334 18.7271 18.3421 18.7271V4.18374ZM29.2496 15.0913V46.546H14.7063V15.0913H29.2496ZM47.1306 60.9212L48.5319 51.5673L62.9148 53.7221L61.5134 63.076L47.1306 60.9212ZM48.5319 51.5675C49.335 46.2064 54.3317 42.5126 59.6915 43.3154L57.5374 57.6983C60.12 58.0851 62.5279 56.3052 62.9148 53.7219L48.5319 51.5675ZM59.6934 43.3156C65.052 44.1196 68.7466 49.1149 67.9434 54.4755L53.5606 52.3206C53.1735 54.9042 54.9541 57.3107 57.5356 57.698L59.6934 43.3156ZM67.9435 54.4754L66.5421 63.8297L52.1592 61.6749L53.5606 52.3207L67.9435 54.4754ZM66.5421 63.8298C65.7388 69.1909 60.7417 72.8839 55.3825 72.0813L57.5366 57.6984C54.9547 57.3117 52.5464 59.0908 52.1593 61.6748L66.5421 63.8298ZM55.3825 72.0813C50.0211 71.2783 46.3277 66.2811 47.1305 60.9214L61.5134 63.0758C61.9001 60.4939 60.1208 58.0854 57.5366 57.6984L55.3825 72.0813Z" fill="#C20000" mask="url(#path-2-outside-1)"/>
</svg>
