<svg width="78" height="78" viewBox="0 0 78 78" fill="none" xmlns="http://www.w3.org/2000/svg">
<path d="M9.1976 40.4066C9.1976 46.8679 8.86625 52.6664 14.4439 56.8635C16.4872 58.4098 19.4693 63.6008 21.4574 65.2576C26.5933 69.5098 33.4963 70.5039 40.6755 70.5039C47.1367 70.5039 50.1188 67.0248 55.0338 63.4904C57.8503 61.4471 61.6055 59.956 63.5936 57.0291C65.4712 54.1575 64.9742 50.844 65.8026 47.4201C66.3548 45.1559 68.0115 42.1186 68.2324 39.7439C68.9503 33.0618 66.9623 30.7976 65.1399 26.4349C60.6115 15.6109 58.292 19.2005 54.9786 16.6602C52.6592 14.893 52.2174 13.678 49.4562 12.6288C46.1979 11.3586 42.4979 9.81233 38.9083 10.6959C31.8948 12.4631 28.1948 10.7511 23.8873 13.1258C19.8007 15.39 18.9723 21.8512 14.223 23.8393C10.6334 25.3304 8.14833 32.3439 9.30804 34.111C10.4678 35.8782 9.1976 38.4185 9.1976 40.4066Z" fill="#00D277"/>
<path d="M49.7381 21.6309C50.8978 22.9011 51.3396 24.116 51.45 25.8832C51.5605 27.2638 50.3455 28.2579 49.2963 28.3131C48.1366 28.4235 47.3634 29.031 46.1485 29.031C44.8231 29.031 43.5529 29.031 42.2275 28.6996C39.5768 28.037 36.926 26.4355 34.9379 24.3922C33.5021 22.9563 33.6126 21.1339 33.3364 19.1458C33.1708 17.9309 32.1767 16.5503 31.6797 15.4458C31.1827 14.2309 30.9066 12.9607 30.9618 11.6353C33.1708 11.5801 35.6559 11.4697 38.8589 10.6965C42.5037 9.7577 46.1485 11.3592 49.4619 12.6294C49.8485 12.795 50.1799 12.9055 50.5112 13.0712C49.5172 14.3413 47.9709 15.3906 47.8052 17.2682C47.5843 19.0906 48.6888 20.5264 49.7381 21.6309Z" fill="#2A936B"/>
<path d="M59.2363 22.2384C59.0154 22.6249 58.6841 22.901 58.2423 23.1219C57.5244 23.3981 56.8617 23.3428 56.1438 23.3428C55.9781 23.3428 55.8124 23.3428 55.5915 23.3428C54.4318 23.4533 53.4378 22.2936 53.4378 21.2443C52.6646 20.3607 52.5542 18.7592 53.8244 17.8756C54.3766 17.4891 54.9841 17.3234 55.5915 17.2682C55.6468 17.2129 55.6468 17.1577 55.702 17.1577C57.6348 18.207 59.2916 17.5443 61.4453 19.9189C61.4453 19.9742 61.3901 19.9742 61.3901 20.0294C60.8931 20.913 60.1199 21.6861 59.2363 22.2384Z" fill="#2A936B"/>
<path d="M57.1358 35.7684C54.3194 37.0938 52.1656 37.7565 49.0731 37.646C47.6925 37.5908 46.4223 37.2042 45.0969 36.8177C43.8268 36.4311 42.5566 36.4863 41.2864 36.155C40.0163 35.8236 38.6357 36.3207 37.3655 36.0445C35.9849 35.7684 34.7147 35.3818 33.4446 34.7744C31.0147 33.6699 28.2535 32.1236 27.0386 29.6385C25.1057 25.6624 22.2893 20.416 23.5042 15.8876C23.6147 15.4458 24.2221 15.5011 24.3326 15.8876C25.0505 17.9862 25.3266 20.1951 25.9893 22.2937C26.9281 25.1101 27.8117 26.0489 30.2968 27.54C32.1192 28.6445 33.7759 29.9698 35.6536 31.0191C37.8073 32.234 40.0715 31.737 42.3357 32.3445C44.1029 32.7863 46.0357 32.8415 47.8581 33.3385C50.3432 34.0012 53.3254 32.1788 55.5343 31.1848C57.5224 30.3012 59.5657 29.3072 61.2777 27.9265C62.4926 27.043 63.3762 25.8832 64.4254 24.7788C64.6463 25.2758 64.8672 25.828 65.1434 26.3803C65.5852 27.4295 66.027 28.3683 66.4688 29.3072C64.0389 32.1788 60.615 34.1669 57.1358 35.7684Z" fill="#2A936B"/>
<path d="M20.3055 29.6386C21.7965 30.964 28.0369 39.9655 31.7369 41.07C35.6026 42.2297 39.137 42.6715 43.4997 44.3835C46.9788 45.7088 52.7222 41.7879 53.0535 43.6656C53.3848 45.5432 47.2549 50.5686 44.1624 50.5686C42.2847 50.5686 40.4623 50.9552 38.6399 51.0656C36.7623 51.1208 34.8295 51.0104 32.9518 51.0104C26.4354 50.9552 19.0905 48.4701 14.5069 43.6656C12.5188 41.567 10.9173 38.9715 9.81284 36.155C9.81284 35.4371 9.70238 34.7744 9.31581 34.167C8.15611 32.3998 10.6412 25.3863 14.2308 23.8952C16.992 22.7355 18.4278 20.0295 19.9741 17.5444C20.6368 20.3609 19.0353 28.5341 20.3055 29.6386Z" fill="#2A936B"/>
<path d="M37.8638 64.8719C34.6608 64.2093 31.5682 62.9391 28.7518 61.3376C26.9294 60.2883 21.2413 55.3734 20.6338 53.2196C19.9711 50.7897 27.0951 56.1465 27.9787 56.5331C29.6354 57.251 33.7772 56.0913 35.5444 56.4226C38.6922 57.0301 43.0549 56.5331 46.2027 55.8152C49.8475 55.042 53.4371 53.1092 56.6953 51.342C59.8431 49.63 63.4879 47.3106 64.8133 43.8315C65.3655 42.4509 66.2491 41.2911 67.1879 40.1867C67.5193 39.524 67.9059 38.9165 68.3477 38.3643C68.3477 38.8061 68.2924 39.2478 68.2372 39.6896C67.9611 42.1195 66.3596 45.1016 65.8073 47.3658C64.979 50.845 65.476 54.1032 63.5431 56.9749C61.5551 59.9018 57.7998 61.3928 54.9834 63.4361C54.3207 63.9331 53.658 64.4301 53.0505 64.8719C51.3386 65.0928 49.6266 65.3137 47.9146 65.4242C44.3803 65.866 41.343 65.5346 37.8638 64.8719Z" fill="#2A936B"/>
<path d="M16.602 56.6984C18.4796 57.8582 20.3573 59.0731 22.3453 60.0671C23.3394 60.5642 24.4991 60.8955 25.4931 61.3925C26.4872 61.8343 27.2051 62.8283 28.3096 63.1597C29.5797 63.5463 29.2484 65.2582 28.0335 65.3687C26.1006 65.5343 24.3886 64.4299 22.6215 63.9328C21.4065 63.6015 20.2468 63.1045 19.1423 62.6075C17.5408 60.5089 15.8289 57.9134 14.4483 56.8641C11.19 54.4342 9.97509 51.4521 9.47807 48.1387C10.8587 51.3417 13.6199 54.876 16.602 56.6984Z" fill="#2A936B"/>
<path d="M9.30984 34.1111C8.15013 32.3439 10.6352 25.3305 14.2248 23.8394C18.9741 21.8513 19.8025 15.4453 23.8338 13.1259C26.4846 11.69 28.8593 11.7453 31.9518 11.5796C27.5339 15.0035 20.3547 21.023 20.189 24.226C19.9681 28.8648 21.8458 29.5827 19.2502 34.7186C16.7099 39.8545 15.992 42.6157 17.8696 47.7515C19.7472 52.8874 26.0428 50.7889 28.5831 53.8262C31.1235 56.8636 30.2399 58.4651 37.419 59.6248C44.6534 60.8397 49.0714 58.7412 54.9252 56.2009C60.7789 53.6605 59.1222 52.7217 60.7789 48.3038C61.7178 45.7635 65.3626 44.5485 67.8477 41.7873C67.185 43.6649 66.1909 45.7635 65.8044 47.4202C64.976 50.8993 65.473 54.1576 63.5402 57.0292C61.5521 59.9561 57.7968 61.4472 54.9804 63.4905C50.1206 67.0248 47.1385 70.504 40.6221 70.504C33.4429 70.504 26.5398 69.5099 21.404 65.2577C19.4159 63.6009 16.489 58.4098 14.3905 56.8636C8.81282 52.6665 9.14417 46.8679 9.14417 40.4067C9.19939 38.4186 10.4696 35.8783 9.30984 34.1111Z" fill="#2A936B" fill-opacity="0.5"/>
<path opacity="0.3" d="M61.4419 35.6571C59.1224 36.8168 55.1463 39.6333 54.4284 41.9527C53.7105 44.2721 50.9492 48.2483 46.9731 48.6901C42.9969 49.1319 40.4566 50.0707 37.8611 46.3706C35.3208 42.6154 31.1237 44.7139 28.5282 42.6154C25.9878 40.5169 26.4296 34.2213 27.1476 30.5212C27.8655 26.766 27.1476 24.9436 29.467 23.7839C31.7864 22.6242 32.5043 20.3047 34.3819 17.9853C35.7626 16.2181 42.6104 12.9599 46.0343 11.3584C47.194 11.745 48.3537 12.1868 49.4582 12.6286C52.2194 13.6778 52.6612 14.8375 54.9806 16.6599C58.2941 19.2003 60.5583 15.6107 65.1419 26.4346C65.8046 27.9257 66.4121 29.1959 67.0195 30.5212C65.5285 33.2825 62.9329 34.884 61.4419 35.6571Z" fill="white"/>
<path opacity="0.3" d="M52.8224 18.2065C51.4418 16.8259 48.8463 16.5498 45.588 17.4886C42.3298 18.4274 41.6119 20.9678 40.9492 23.5633C40.2313 26.1036 41.1701 30.3007 43.4895 32.1783C45.8089 34.0559 50.7239 34.7186 53.4851 32.1783C56.3015 29.638 58.1239 30.7977 57.2404 26.6006C56.3015 22.4036 54.203 19.5871 52.8224 18.2065Z" fill="white"/>
<path fill-rule="evenodd" clip-rule="evenodd" d="M13.9187 39.8367C13.9187 53.6046 25.0745 64.7523 38.8164 64.755C52.5583 64.7578 63.7141 53.6146 63.7141 39.8466C63.7141 26.0787 52.5583 14.9311 38.8164 14.9283C25.0745 14.9256 13.9187 26.0687 13.9187 39.8367ZM38.8164 75.8417C18.9255 75.8377 2.81641 59.708 2.8164 39.8345C2.8164 19.9609 18.9255 3.83769 38.8164 3.84167C58.7073 3.84564 74.8164 19.9753 74.8164 39.8489C74.8164 59.7224 58.7074 75.8456 38.8164 75.8417Z" fill="black"/>
</svg>
