<svg width="134" height="133" viewBox="0 0 134 133" fill="none" xmlns="http://www.w3.org/2000/svg">
<path d="M67 133C30.2731 133 0.5 103.207 0.500001 66.5C0.500001 29.7925 30.2731 3.55833e-07 67 7.94775e-07C103.727 1.23372e-06 133.5 29.7925 133.5 66.5C133.5 103.207 103.727 133 67 133Z" fill="white"/>
<mask id="mask0" mask-type="alpha" maskUnits="userSpaceOnUse" x="0" y="0" width="134" height="133">
<path d="M67 133C30.2731 133 0.5 103.207 0.500001 66.5C0.500001 29.7925 30.2731 3.55833e-07 67 7.94775e-07C103.727 1.23372e-06 133.5 29.7925 133.5 66.5C133.5 103.207 103.727 133 67 133Z" fill="white"/>
</mask>
<g mask="url(#mask0)">
<path d="M34.5 127.5L37.5 121L43.5 122.5L42.75 117.75M42 113L42.75 117.75M42.75 117.75L49 117.75M-2 68L2.5 65.5L6 60.5M6 60.5L9 55.5L13.5 56.5M6 60.5L7.75 62.5M11.5 69L9.5 64.5L7.75 62.5M7.75 62.5L11.5 59.5M54 6.68784e-07L57.5 7.5M57.5 7.5L52.5 10L52.5 13.25M57.5 7.5L62 8.5L67 5L69.75 8.5M52.5 16.5L52.5 13.25M52.5 13.25L56.5 13.25M72.5 12L69.75 8.5M69.75 8.5L75 6M125 32.5L122.25 33M107 29L114.5 30L119.5 33.5L122.25 33M122.25 33L122.25 36.5L116.5 36.5L116.5 40.25M116.5 44L116.5 40.25M116.5 40.25L112.5 38.5M112.5 30L111.5 33.5M130.5 91.5L123 93L121 87M110.5 117.75L105.5 115.5L101 117.75L100 113.625M99 109.5L100 113.625M100 113.625L96 113M76 133L73 127L79 124M15.5 110.5L18 104.5M18 104.5L23.5 105.5L23.5 103L26.5 103M18 104.5L20.5 100.5L19 98.5L21 96.5M18 19.5L20.5 21L20.25 24.25M23.5 29L20 27.5L20.25 24.25M20.25 24.25L26.5 22.5M34.5 8.5L36 10L35 17L38.5 19.5M98 7.5L96 10L91 10L89 18M134.5 65L130.5 65.5L128.25 62.75M123 62.5L126 60L128.25 62.75M128.25 62.75L127 66.5" stroke="#FF7E7E" stroke-width="2"/>
</g>
<path d="M67 115C40.2142 115 18.5 93.2716 18.5 66.5C18.5 39.7284 40.2142 18 67 18C93.7858 18 115.5 39.7284 115.5 66.5C115.5 93.2716 93.7858 115 67 115Z" fill="#0153B4"/>
<path d="M67 115C40.2142 115 18.5 93.2716 18.5 66.5C18.5 39.7284 40.2142 18 67 18C93.7858 18 115.5 39.7284 115.5 66.5C115.5 93.2716 93.7858 115 67 115Z" fill="#0153B4"/>
<mask id="mask1" mask-type="alpha" maskUnits="userSpaceOnUse" x="18" y="18" width="98" height="97">
<path d="M67 115C40.2142 115 18.5 93.2716 18.5 66.5C18.5 39.7284 40.2142 18 67 18C93.7858 18 115.5 39.7284 115.5 66.5C115.5 93.2716 93.7858 115 67 115Z" fill="#0153B4"/>
<path d="M67 115C40.2142 115 18.5 93.2716 18.5 66.5C18.5 39.7284 40.2142 18 67 18C93.7858 18 115.5 39.7284 115.5 66.5C115.5 93.2716 93.7858 115 67 115Z" fill="#0153B4"/>
</mask>
<g mask="url(#mask1)">
<path d="M83.9182 28.2101C104.641 28.2101 115.501 48.3936 115.501 66.8713C115.501 85.349 104.641 104.789 83.9182 104.789C63.1959 104.789 81.1441 77.2801 81.1442 66.8713C81.1442 55.7191 63.1959 28.2101 83.9182 28.2101Z" fill="#067AF4"/>
</g>
<path d="M67 84.6348C56.9845 84.6348 48.8652 76.5102 48.8652 66.5C48.8652 56.4897 56.9845 48.3652 67 48.3652C77.0156 48.3652 85.1348 56.4897 85.1348 66.5C85.1348 76.5102 77.0156 84.6348 67 84.6348Z" fill="#00204D"/>
<path d="M46.3341 70.2959C36.5515 70.2959 28.6211 62.1714 28.6211 52.1611C28.6211 42.1509 36.5515 34.0263 46.3341 34.0263C56.1168 34.0263 64.0472 42.1509 64.0472 52.1611C64.0472 62.1714 56.1168 70.2959 46.3341 70.2959Z" fill="white" fill-opacity="0.75"/>
</svg>
