<svg width="72" height="102" viewBox="0 0 72 102" fill="none" xmlns="http://www.w3.org/2000/svg">
<path d="M22.8751 30C17.5751 30.8 13.2751 34.4 11.4751 39.2C11.4751 39.2 11.4751 39.2 11.3751 39.2C4.07515 40.3 -1.02485 47.1 0.175146 54.5L1.57515 63.9C1.97515 66.4 2.97515 68.6 4.47515 70.4C4.97515 78.6 6.67515 87.2 8.57515 91.8C11.1751 98.2 17.3751 101.5 23.3751 101.5H54.1751C60.3751 101.5 67.4751 97.7 69.1751 89.8C71.2751 80.3 71.6751 62.5 71.6751 58.2C71.6751 53.7 70.1751 49.4 68.0751 46V14.5C68.0751 6.5 61.5751 0 53.5751 0C45.5751 0 39.0751 6.5 39.0751 14.5V23.1C38.7751 23.1 38.4751 23.1 38.2751 23.1C33.5751 23.5 29.5751 26.1 27.1751 29.9C25.5751 29.8 24.1751 29.8 22.8751 30Z" fill="#00FFF0"/>
<path fill-rule="evenodd" clip-rule="evenodd" d="M46.3265 14.3737C46.3265 10.3577 49.582 7.10205 53.5982 7.10205C57.6143 7.10205 60.8698 10.3577 60.8698 14.3737L60.8698 48.1677C61.2592 48.6127 61.6145 49.0854 61.933 49.5679C63.4757 51.9064 64.5057 54.9773 64.5057 58.0037C64.5057 62.3809 64.0952 79.3459 62.1973 88.0141C61.3614 91.8314 57.8623 93.9743 54.3064 93.9743L23.5519 93.9743C20.1552 93.9743 16.8498 92.0852 15.4891 88.7715C13.7958 84.6481 12.0082 75.3663 11.8053 66.8817C10.3401 65.9557 9.27091 64.4221 8.99396 62.5733L7.59246 53.2193C7.08694 49.8446 9.4126 46.6992 12.7871 46.1938C15.1398 45.8411 17.3812 46.865 18.6942 48.6611L18.176 45.2027C17.5878 41.2768 20.2935 37.6175 24.2192 37.0293C28.2309 36.4283 31.9449 39.2638 32.4221 43.2921L32.7199 45.8059L32.1693 38.0537C31.8873 34.0834 34.851 30.6249 38.8176 30.2954C42.2424 30.0109 45.3041 32.1484 46.3265 35.2705L46.3265 14.3737ZM15.4734 67.8256C15.7771 75.2689 17.3752 83.7929 18.8524 87.3902C19.5841 89.1725 21.4399 90.3385 23.5519 90.3385L54.3064 90.3385C56.5181 90.3385 58.2477 89.0532 58.6454 87.2364C60.4532 78.9812 60.8698 62.3555 60.8698 58.0037C60.8698 55.7477 60.0823 53.3651 58.8981 51.5701C57.6554 49.6871 56.3149 48.9142 55.4161 48.9142C54.449 48.9142 51.7272 49.241 48.2408 49.7366C44.8267 50.2216 40.8534 50.8411 37.508 51.3771C35.8248 51.6468 34.4592 52.6791 33.6982 54.064L33.7088 54.1541L33.6459 54.1614C33.1066 55.1929 32.8985 56.4105 33.1364 57.6503C33.6954 60.5637 36.5103 62.4722 39.4235 61.9134L44.1661 61.0033L44.1955 60.9979L44.225 60.9931L51.4967 59.8438C52.4852 59.6879 53.4142 60.3601 53.5749 61.3483C53.7352 62.3362 53.0666 63.2681 52.0791 63.4328C50.4375 63.7066 47.9623 64.4555 45.9502 65.7568C43.9367 67.0588 42.6907 68.6931 42.6907 70.7292V71.3085C42.6907 72.3123 41.877 73.1264 40.8728 73.1264C39.8688 73.1264 39.0549 72.3123 39.0549 71.3085V70.7292C39.0549 68.5437 39.8533 66.7505 41.0156 65.31L40.1086 65.4841C37.5721 65.9706 35.0802 65.3419 33.1392 63.9411L31.4817 64.7431C30.8573 65.0453 30.1959 65.2641 29.5144 65.3939C26.1767 66.0291 22.9459 64.4683 21.2825 61.7472C21.2432 64.7206 19.0558 67.3129 16.0194 67.7678C15.8366 67.7954 15.6545 67.8143 15.4734 67.8256ZM30.6015 61.1298C30.1156 60.2852 29.7596 59.3465 29.5657 58.3353C29.2428 56.6523 29.4109 54.9893 29.9696 53.4949L28.8114 43.7196C28.5756 41.7294 26.7404 40.328 24.758 40.625C22.818 40.9156 21.481 42.7238 21.7716 44.6639L23.808 58.2561C24.1677 60.6561 26.4507 62.2759 28.8347 61.8221C29.203 61.7519 29.5604 61.6338 29.8978 61.4705L30.6015 61.1298ZM36.5111 47.8649C36.6502 47.8358 36.7908 47.81 36.9327 47.787C39.0347 47.4504 41.3898 47.0795 43.7033 46.7294L43.043 37.2853C42.9016 35.2656 41.1364 33.7512 39.1186 33.9187C37.1363 34.0834 35.655 35.8119 35.7959 37.7961L36.5111 47.8649ZM49.9623 45.8284C52.39 45.5045 54.4221 45.2783 55.4161 45.2783C56.0473 45.2783 56.6545 45.3867 57.234 45.5812L57.234 14.3737C57.234 12.3657 55.6063 10.7379 53.5982 10.7379C51.5901 10.7379 49.9623 12.3657 49.9623 14.3737L49.9623 45.8284ZM17.6183 61.2811L16.2169 51.9272C16.0089 50.5383 14.7144 49.5813 13.3258 49.7893C11.9372 49.9976 10.9802 51.292 11.1882 52.6805L12.5896 62.0348C12.7977 63.4233 14.0921 64.3803 15.4807 64.1723C16.8693 63.9643 17.8264 62.67 17.6183 61.2811Z" fill="black"/>
</svg>
