<svg width="134" height="134" viewBox="0 0 134 134" fill="none" xmlns="http://www.w3.org/2000/svg">
<path d="M0.550781 66.7227C0.550781 29.9957 30.3433 0.222656 67.0508 0.222656C103.758 0.222656 133.551 29.9957 133.551 66.7227C133.551 103.45 103.758 133.223 67.0508 133.223C30.3433 133.223 0.550781 103.45 0.550781 66.7227Z" fill="#2D2825"/>
<path d="M11.9211 90.6293C11.8265 91.8166 11.7027 93.085 11.7418 94.2083C11.7788 96.8776 12.2925 99.4531 13.4628 102.05C17.4023 111.115 28.5695 117.324 40.7356 119.831C40.9448 119.865 41.0494 119.882 41.154 119.9C43.7394 120.409 46.2787 120.738 48.9517 121.004C59.0161 121.964 69.484 121.187 79.6502 120.016C94.8849 118.3 111.836 114.889 120.242 104.753C123.403 100.889 124.949 96.5885 125.287 92.2622C125.849 84.5364 122.902 76.4078 119.768 69.1077C111.033 48.4335 102.054 27.204 83.805 10.8144C79.9567 7.3493 75.2887 4.00781 69.1815 3.43764C67.8973 3.31333 66.6593 3.36841 65.2876 3.48752L65.183 3.4704C63.4684 3.61927 61.8 3.94755 60.1316 4.27582C44.0922 7.9218 30.5423 18.5046 26.0039 30.8203C22.8243 39.6642 24.0203 48.9667 22.1249 57.9349C19.9479 68.9189 13.0865 79.9952 11.9211 90.6293Z" fill="#E8D7CC"/>
<path d="M56.9048 118.008C64.948 118.122 73.0736 117.39 79.3047 116.692C91.5285 115.342 108.752 112.406 116.524 103.111C124.324 93.7345 120.058 81.2662 115.447 70.3738C106.984 50.1737 98.2027 29.3201 80.2843 13.2424C77.2776 10.5165 73.208 7.35887 68.385 6.913C68.0712 6.86164 67.7283 6.89141 67.4145 6.84005C65.6536 6.80954 63.7761 7.10357 61.2589 7.63655C46.8879 10.9543 34.4785 20.521 30.5113 31.5556C28.7903 36.3427 28.4289 41.3523 28.0845 46.6225C27.8177 50.4448 27.6263 54.3655 26.7783 58.2645C25.7018 63.4148 23.6549 68.4922 21.6372 73.4885C17.7939 83.2547 14.1547 92.4529 17.7 100.765C20.8802 108.245 30.1649 114.146 42.4648 116.589C46.9037 117.488 51.6221 117.916 56.9048 118.008Z" fill="#8E2D2D"/>
<path d="M75.8996 81.5119C74.4745 82.3955 72.6432 82.8689 70.8994 83.0989C68.6789 83.4228 66.4121 83.5672 64.245 83.1265C62.2116 82.6218 60.307 81.4509 59.7862 79.8193C59.6012 79.1017 59.6838 78.2561 59.7371 77.4916C60.3903 71.6706 60.9388 65.8325 61.6211 59.9303C61.762 58.9224 61.8274 57.8163 62.7004 56.9282C64.1496 55.3613 66.9685 55.2214 69.3106 55.1752C70.1011 55.1328 70.9669 55.1886 71.6115 55.5519C71.9715 55.7826 72.1686 56.1585 72.3657 56.5344C73.5482 58.7899 74.806 61.1436 75.9885 63.3991C77.3218 65.851 78.6259 68.3841 79.215 71.0579C79.8041 73.7317 79.649 76.6273 77.9543 79.185C77.4997 80.1415 76.7896 80.8844 75.8996 81.5119Z" fill="#E8CEB3"/>
<path d="M45.6386 37.3463C46.9949 35.1962 48.8548 33.2612 50.71 31.3313C51.4389 30.573 52.1672 29.8153 52.8638 29.0458C53.3196 28.5445 53.7693 28.0353 54.2205 27.5242C56.019 25.4873 57.8435 23.421 60.1855 21.7156C63.1152 19.5823 67.2824 18.0818 71.0186 18.6821C74.648 19.2653 77.1593 21.6652 79.1068 24.0613C82.3882 28.0606 85.0157 32.302 86.7456 36.8333C85.5279 37.0716 84.5941 36.2272 83.9805 35.4342C81.7428 32.9046 79.6119 30.3922 77.4042 27.7806C74.8598 24.8546 71.3079 21.593 66.6339 22.3177C63.5278 22.7735 61.192 24.8286 59.2364 26.7712C51.8381 34.0023 44.276 41.9882 43.9863 50.7954C43.946 51.8306 43.6486 53.2584 42.2474 53.3805C42.2191 47.9074 42.4344 42.3867 45.6386 37.3463Z" fill="#933535"/>
<path d="M58.9756 95.6481C62.1013 96.0635 65.3307 95.888 68.4833 95.6133C66.9265 95.0681 65.1989 94.8435 63.4698 94.6186C61.6385 94.3805 59.8056 94.1422 58.1723 93.5226C53.7593 91.6852 52.533 87.3217 51.6902 83.4538C51.5487 82.6064 51.373 81.7753 51.1972 80.9441C51.0215 80.113 50.8458 79.2818 50.7043 78.4345C50.6348 78.0645 50.5642 77.6942 50.4935 77.3238L50.4928 77.32C49.8632 74.0185 49.2307 70.7023 49.3367 67.3646C49.5964 58.6394 55.2037 49.8185 64.193 43.7979C64.6635 43.4395 65.134 43.0811 65.0707 42.6369C65.021 41.8477 63.2995 41.9183 62.3419 42.3721C51.7452 46.9192 47.4385 56.817 46.3881 65.8492C46.0504 68.3122 45.8961 70.8915 46.4725 73.3277C46.8714 74.964 47.5821 76.5319 48.2898 78.0929C49.1841 80.0654 50.0733 82.027 50.3222 84.102C50.4587 84.963 50.4718 85.8524 50.4848 86.7418C50.511 88.5206 50.5371 90.2994 51.5507 91.8511C52.9479 93.8984 55.8799 95.1507 58.9756 95.6481Z" fill="#933535"/>
<path d="M94.0148 83.536C94.0445 86.1663 94.0759 88.9542 92.6219 91.4213C90.0551 95.9566 83.8058 98.5114 77.9203 100.691C75.8241 101.481 73.7619 102.255 71.6998 103.029L71.6946 103.031L71.6915 103.032C69.6275 103.807 67.5635 104.582 65.4654 105.373C78.7228 105.594 92.1663 97.5978 95.2386 87.6753C96.6123 83.2127 96.0984 78.7097 95.5835 74.1983C95.211 70.9335 94.8379 67.6644 95.1793 64.403C95.2048 64.0564 95.2427 63.7075 95.2806 63.3581C95.4115 62.1507 95.543 60.9381 95.1707 59.8011C94.6442 58.1541 93.2201 56.7969 91.766 55.5216C88.3375 52.5403 84.6354 49.6887 80.7063 47.1477C82.4604 48.992 84.2221 50.8157 85.9838 52.6395C87.7455 54.4633 89.5072 56.2871 91.2614 58.1314C92.1652 59.0578 93.069 59.9842 93.4556 61.088C93.7956 62.0106 93.7853 62.9638 93.775 63.9169C93.8373 67.1386 93.8655 70.3765 93.8936 73.6144C93.9218 76.8523 93.95 80.0901 94.0123 83.3118L94.0148 83.536Z" fill="#933535"/>
<path d="M85.1306 108.37C82.8343 108.812 80.3723 109.285 79.191 110.789C81.2113 110.283 83.2934 109.982 85.3911 109.679C88.3337 109.253 91.3072 108.824 94.1842 107.816C101.775 105.303 106.664 99.058 108.217 92.971C109.658 86.8915 108.438 80.729 107.253 74.745L107.239 74.6723L107.128 74.1489C106.463 70.9915 105.786 67.7787 104.4 64.8416C104.584 68.0395 104.794 71.2416 105.005 74.4437C105.216 77.6458 105.427 80.848 105.611 84.0458C105.807 86.5945 105.866 89.2081 105.392 91.7359C103.831 99.3841 95.5325 106.297 85.6538 108.268C85.4824 108.302 85.3093 108.335 85.1354 108.369L85.1328 108.369L85.1306 108.37Z" fill="#933535"/>
<path d="M94.5294 50.1477C95.1359 50.5862 95.8411 50.952 96.5421 51.3156C97.8032 51.9697 99.0502 52.6164 99.6824 53.6665C100.13 51.8288 98.5827 50.1913 96.8549 49.0457C96.4715 48.7915 96.0746 48.5436 95.6757 48.2945C94.2771 47.4211 92.8536 46.5321 91.8988 45.2981C91.7424 45.0961 91.6019 44.8866 91.4641 44.6811C91.1962 44.2817 90.9384 43.8975 90.5949 43.613C90.6416 43.7489 90.688 43.8854 90.7346 44.0221C91.5064 46.289 92.3086 48.6448 94.5294 50.1477Z" fill="#933535"/>
<path d="M86.3694 75.4862C86.3869 72.9717 86.221 70.341 85.9182 67.7751C85.876 67.2381 85.8675 66.8647 85.8611 66.581C85.8535 66.2495 85.8488 66.0406 85.7964 65.8367C85.7072 65.4889 85.4795 65.1555 84.8637 64.2535L84.7718 64.1189C83.4813 62.0887 81.2634 60.4303 78.4413 59.8033L78.8072 60.2754C80.7555 62.7867 82.6678 65.2515 83.5428 68.0879C84.6304 71.5244 84.1096 75.127 83.6 78.6521L83.5828 78.7709C83.5566 78.9202 83.5312 79.0696 83.5058 79.219C83.2295 80.8431 82.9542 82.462 81.7197 83.8532C81.0111 84.6573 80.0674 85.3375 79.1354 86.0094C77.7759 86.9892 76.4412 87.9513 75.8965 89.2541C79.6596 89.1643 83.1366 86.7717 84.692 84.0704C86.2475 81.3691 86.4453 78.3628 86.3694 75.4862Z" fill="#933535"/>
<path d="M23.0082 88.3073C21.4007 89.9418 22.1757 92.0443 22.8516 93.8782L22.8696 93.9271C24.073 96.8113 25.2764 99.6955 27.5442 102.143C30.5322 105.401 35.0686 107.519 39.7252 109.308C48.6714 112.655 59.0592 114.845 69.2747 113.188C70.3556 113.015 71.6604 111.922 70.6229 111.669C70.4094 111.634 70.3027 111.617 70.0591 111.665C60.995 112.031 51.9245 111.182 43.8655 108.498C35.8365 105.732 28.9857 100.986 25.8451 94.7524C25.6456 94.2479 25.457 93.7452 25.2696 93.2457C24.6308 91.5427 24.0059 89.877 23.0082 88.3073Z" fill="#933535"/>
<path d="M36.6702 87.7256C36.558 83.7147 37.0097 79.7076 37.8116 75.67C38.4054 75.5918 38.9993 75.5136 39.4864 75.4183C39.4222 77.7516 39.4348 80.184 39.4474 82.6165L39.4515 82.8838C39.495 85.7579 39.5396 88.699 40.5288 91.3836C42.4288 96.3761 47.8586 100.373 54.4936 101.7C52.0281 102.259 49.3127 101.649 47.3415 100.551C45.6372 99.6015 44.2048 98.3716 42.7899 97.1566C42.5682 96.9662 42.3469 96.7762 42.1251 96.5878C41.8869 96.4007 41.6459 96.2149 41.4049 96.0292C39.9587 94.9146 38.5126 93.8001 37.6695 92.3998C36.8393 90.9644 36.663 89.2868 36.6702 87.7256Z" fill="#933535"/>
<path d="M48.255 21.2746C42.7979 29.6856 37.3573 38.3596 36.4904 47.508C36.2473 49.9991 36.3389 52.4804 36.4309 54.9715C36.525 57.5226 36.6196 60.084 36.3555 62.6766C35.7567 67.7017 33.3163 73.1253 27.7708 76.2272C30.0941 71.7396 32.3408 67.1529 33.3064 62.3603C33.875 59.4358 33.9352 56.4296 33.9943 53.4846C34.0015 53.1239 34.0087 52.764 34.0168 52.4055C34.1253 46.8676 34.6142 41.2173 36.7343 35.7422C38.7177 30.332 42.439 25.1142 48.255 21.2746Z" fill="#933535"/>
<path d="M62.3869 33.0037C64.529 31.7854 67.5346 32.5287 69.6426 33.5618C73.6753 35.5118 76.9203 38.3768 78.9176 41.5622C77.363 41.486 76.109 40.5901 75.0684 39.7285C74.8897 39.5718 74.7115 39.4139 74.5329 39.2556C73.2573 38.1252 71.9575 36.9733 70.2957 36.0972C68.3711 35.1804 65.8091 34.7687 63.6804 35.6419C63.3303 35.7881 62.9856 35.972 62.6404 36.1561C61.8013 36.6037 60.9593 37.0529 60.0303 36.9651C60.3277 35.5373 60.822 33.8807 62.3869 33.0037Z" fill="#933535"/>
</svg>
