<svg width="149" height="148" viewBox="0 0 149 148" fill="none" xmlns="http://www.w3.org/2000/svg">
<path d="M141.268 77.6525C143.484 40.9924 115.561 9.47568 78.9008 7.25786C42.2409 5.04005 10.7263 32.961 8.51107 69.6211C6.29582 106.281 34.2187 137.798 70.8786 140.016C107.539 142.234 139.053 114.313 141.268 77.6525Z" fill="#FFCFBB"/>
<path fill-rule="evenodd" clip-rule="evenodd" d="M13.5197 74.0009C13.5197 107.687 40.8252 134.991 74.5 134.993C108.175 134.996 135.48 107.697 135.48 74.0111C135.48 40.325 108.175 13.0214 74.5 13.0186C40.8252 13.0158 13.5197 40.3148 13.5197 74.0009ZM74.5 146.006C34.7318 146.003 2.5 113.761 2.5 74C2.5 34.2392 34.7318 2.00269 74.5 2.00601C114.268 2.00932 146.5 34.2512 146.5 74.012C146.5 113.773 114.268 146.009 74.5 146.006Z" fill="black"/>
</svg>
