<svg width="78" height="78" viewBox="0 0 78 78" fill="none" xmlns="http://www.w3.org/2000/svg">
<path d="M38.4108 8.083C21.29 8.083 7.40806 21.9622 7.40463 39.083C7.40121 56.2038 21.2776 70.083 38.3984 70.083C55.5193 70.083 69.4012 56.2038 69.4046 39.083C69.4081 21.9622 55.5317 8.083 38.4108 8.083Z" fill="url(#paint0_linear_1546_408)"/>
<path fill-rule="evenodd" clip-rule="evenodd" d="M64.1677 38.5866C64.1677 24.6372 52.8588 13.3248 38.9062 13.3219C24.9537 13.3191 13.6448 24.6269 13.6448 38.5764C13.6448 52.5258 24.9537 63.8382 38.9062 63.841C52.8588 63.8438 64.1677 52.536 64.1677 38.5866ZM38.9062 2.08147C59.0636 2.08556 75.4062 18.4294 75.4062 38.5889C75.4062 58.7483 59.0636 75.0856 38.9062 75.0815C18.7489 75.0774 2.40625 58.7335 2.40625 38.5741C2.40625 18.4146 18.7489 2.07739 38.9062 2.08147Z" fill="black"/>
<defs>
<linearGradient id="paint0_linear_1546_408" x1="38.3984" y1="70.083" x2="38.3984" y2="8.08301" gradientUnits="userSpaceOnUse">
<stop stop-color="#803319"/>
<stop offset="0.244792" stop-color="#934222"/>
<stop offset="0.682292" stop-color="#A75530"/>
<stop offset="1" stop-color="#B5643C"/>
</linearGradient>
</defs>
</svg>
