<svg width="77" height="77" viewBox="0 0 77 77" fill="none" xmlns="http://www.w3.org/2000/svg">
<path d="M37.7961 64.9164C23.3262 64.9164 11.5961 53.1964 11.5961 38.7392C11.5961 24.2819 23.3262 12.562 37.7961 12.562C52.266 12.562 63.9961 24.2819 63.9961 38.7392C63.9961 53.1964 52.266 64.9164 37.7961 64.9164Z" fill="url(#paint0_radial_1161:909)"/>
<path d="M37.7969 64.9393C35.9711 64.9393 34.2138 64.7568 32.5021 64.3916C32.4793 64.3916 32.4793 64.3916 32.4793 64.3916C34.191 64.7339 35.9711 64.9393 37.7969 64.9393Z" fill="#005F85"/>
<path d="M32.1608 64.323H32.1836C30.4719 63.9579 28.8515 63.4101 27.2768 62.7026C27.2312 62.7026 27.2312 62.7026 27.2083 62.7026C28.8059 63.4101 30.4491 63.935 32.1608 64.323Z" fill="#005F85"/>
<path d="M26.955 62.5883C26.955 62.5883 26.9778 62.5883 27.0234 62.5883C25.4715 61.8808 24.0109 61.0136 22.6416 60.0322C22.5959 60.0322 22.5503 60.0322 22.5503 60.0322C23.9196 61.0136 25.4031 61.8808 26.955 62.5883Z" fill="#005F85"/>
<path d="M22.2993 59.8499C22.2993 59.8499 22.345 59.8499 22.3906 59.8499C21.0441 58.8457 19.7661 57.7046 18.6478 56.4722C18.5793 56.4722 18.5565 56.4722 18.5337 56.4722C19.6748 57.7046 20.93 58.8457 22.2993 59.8499Z" fill="#005F85"/>
<path d="M18.3273 56.2439C18.3273 56.2439 18.3729 56.2439 18.4414 56.2439C17.3231 54.9887 16.3189 53.6193 15.4517 52.1587C15.3832 52.1587 15.3376 52.1587 15.3148 52.1587C16.182 53.6193 17.1862 54.9887 18.3273 56.2439Z" fill="#005F85"/>
<path d="M15.156 51.8846C15.1789 51.8846 15.2017 51.8846 15.293 51.8846C14.4485 50.4012 13.7182 48.8493 13.1705 47.2061C13.0792 47.2061 13.0336 47.2061 13.0336 47.2061C13.5813 48.8493 14.2888 50.424 15.156 51.8846Z" fill="#005F85"/>
<path d="M12.9217 46.9324C12.9445 46.9324 12.9901 46.9324 13.0586 46.9324C12.5109 45.2892 12.1457 43.5775 11.9403 41.7974C11.849 41.7974 11.8034 41.7974 11.7805 41.7974C12.0088 43.5775 12.3967 45.2892 12.9217 46.9324Z" fill="#005F85"/>
<path d="M11.6174 38.7391C11.6174 39.6748 11.663 40.5877 11.7543 41.4777C11.7771 41.4777 11.8228 41.4777 11.9141 41.4777C11.8228 40.5877 11.7771 39.6748 11.7771 38.7391C11.7771 37.849 11.8228 36.9361 11.9141 36.0688C11.8228 36.0688 11.7771 36.0688 11.7543 36.0688C11.663 36.9589 11.6174 37.849 11.6174 38.7391Z" fill="#005F85"/>
<path d="M11.7805 35.7722C11.8034 35.7722 11.849 35.7722 11.9403 35.7722C12.1457 33.9921 12.5109 32.2804 13.0586 30.6372C12.9673 30.6372 12.9217 30.6372 12.9217 30.6372C12.3739 32.2804 11.9859 33.9921 11.7805 35.7722Z" fill="#005F85"/>
<path d="M13.0095 30.3407C13.0323 30.3407 13.078 30.3407 13.1464 30.3407C13.6942 28.6975 14.4017 27.1456 15.2461 25.6621C15.1776 25.6621 15.132 25.6621 15.1092 25.6621C14.2647 27.1227 13.5572 28.6975 13.0095 30.3407Z" fill="#005F85"/>
<path d="M15.2718 25.4107C15.2946 25.4107 15.3174 25.4107 15.4087 25.4107C16.276 23.9501 17.2801 22.5808 18.3984 21.3027C18.33 21.3027 18.2843 21.3027 18.2843 21.3027C17.1432 22.558 16.139 23.9273 15.2718 25.4107Z" fill="#005F85"/>
<path d="M18.4868 21.0748C18.4868 21.0748 18.5324 21.0748 18.6009 21.0748C19.742 19.8196 20.9972 18.6785 22.3438 17.6743C22.2981 17.6743 22.2525 17.6743 22.2525 17.6743C20.8831 18.7013 19.6279 19.8424 18.4868 21.0748Z" fill="#005F85"/>
<path d="M22.4839 17.5145C22.4839 17.5145 22.5295 17.5145 22.5752 17.5145C23.9445 16.5103 25.4051 15.6659 26.957 14.9355C26.9114 14.9355 26.8886 14.9355 26.8886 14.9355C25.3366 15.643 23.8532 16.5103 22.4839 17.5145Z" fill="#005F85"/>
<path d="M27.1615 14.8216C27.1615 14.8216 27.1843 14.8216 27.2299 14.8216C28.7818 14.1141 30.425 13.5663 32.1367 13.2012C32.1139 13.2012 32.1139 13.2012 32.1139 13.2012C30.3794 13.5663 28.7362 14.1141 27.1615 14.8216Z" fill="#005F85"/>
<path d="M32.3861 13.1097H32.409C34.1435 12.7674 35.9008 12.562 37.7266 12.562C35.9008 12.562 34.1206 12.7674 32.3861 13.1097Z" fill="#005F85"/>
<path d="M37.7969 64.9393C36.0624 64.9393 34.3735 64.7568 32.7531 64.3916C32.639 64.3916 32.5706 64.3916 32.5249 64.3916C34.2138 64.7339 35.9711 64.9393 37.7969 64.9393Z" fill="#005F85"/>
<path d="M32.206 64.323C32.2516 64.323 32.3429 64.323 32.457 64.323C30.8366 63.9579 29.2619 63.4101 27.7785 62.7026C27.5502 62.7026 27.3905 62.7026 27.2992 62.7026C28.8739 63.4101 30.4943 63.935 32.206 64.323Z" fill="#005F85"/>
<path d="M27.0246 62.5883C27.1159 62.5883 27.2757 62.5883 27.5039 62.5883C26.0205 61.8808 24.6283 61.0136 23.3274 60.0322C23.0079 60.0322 22.7797 60.0322 22.6428 60.0322C24.0121 61.0136 25.4727 61.8808 27.0246 62.5883Z" fill="#003C60"/>
<path d="M22.413 59.8499C22.5499 59.8499 22.7781 59.8499 23.0977 59.8499C21.7968 58.8457 20.61 57.7046 19.5146 56.4722C19.1038 56.4722 18.8071 56.4722 18.6473 56.4722C19.7884 57.7046 21.0436 58.8457 22.413 59.8499Z" fill="#00417B"/>
<path d="M18.4648 56.2439C18.6245 56.2439 18.9212 56.2439 19.332 56.2439C18.2594 54.9887 17.3008 53.6193 16.4792 52.1587C16 52.1587 15.6576 52.1587 15.4751 52.1587C16.3423 53.6193 17.3465 54.9887 18.4648 56.2439Z" fill="#003362"/>
<path d="M15.3161 51.8846C15.4987 51.8846 15.841 51.8846 16.3203 51.8846C15.4987 50.4012 14.8369 48.8493 14.2891 47.2061C13.7642 47.2061 13.3991 47.2061 13.1937 47.2061C13.7642 48.8493 14.4717 50.424 15.3161 51.8846Z" fill="#003067"/>
<path d="M13.1037 46.9324C13.3091 46.9324 13.6743 46.9324 14.1992 46.9324C13.6971 45.2892 13.332 43.5775 13.1266 41.7974C12.5788 41.7974 12.1909 41.7974 11.9626 41.7974C12.1909 43.5775 12.5788 45.2892 13.1037 46.9324Z" fill="#00445E"/>
<path d="M11.9376 41.4777C12.143 41.4777 12.5538 41.4777 13.1016 41.4777C13.0103 40.5877 12.9646 39.6748 12.9646 38.7391C12.9646 37.849 13.0103 36.9361 13.1016 36.0688C12.5538 36.0688 12.1658 36.0688 11.9376 36.0688C11.8463 36.9361 11.8007 37.849 11.8007 38.7391C11.8007 39.6748 11.8463 40.5877 11.9376 41.4777Z" fill="#007C9D"/>
<path d="M11.9855 35.7722C12.1909 35.7722 12.6017 35.7722 13.1494 35.7722C13.332 33.9921 13.6971 32.2804 14.1992 30.6372C13.6743 30.6372 13.3091 30.6372 13.1037 30.6372C12.556 32.2804 12.168 33.9921 11.9855 35.7722Z" fill="#003349"/>
<path d="M13.1696 30.3407C13.375 30.3407 13.7402 30.3407 14.2651 30.3407C14.79 28.6975 15.4747 27.1456 16.2734 25.6621C15.7942 25.6621 15.4518 25.6621 15.2693 25.6621C14.4477 27.1227 13.7173 28.6975 13.1696 30.3407Z" fill="#003C60"/>
<path d="M15.4321 25.4107C15.6147 25.4107 15.957 25.4107 16.4363 25.4107C17.2579 23.9501 18.2164 22.5808 19.2891 21.3027C18.8783 21.3027 18.5816 21.3027 18.4218 21.3027C17.3035 22.558 16.2993 23.9273 15.4321 25.4107Z" fill="#003362"/>
<path d="M18.6239 21.0748C18.7836 21.0748 19.0803 21.0748 19.4911 21.0748C20.5638 19.8196 21.7733 18.6785 23.0742 17.6743C22.7547 17.6743 22.5037 17.6743 22.3895 17.6743C20.9974 18.7013 19.7422 19.8424 18.6239 21.0748Z" fill="#004C84"/>
<path d="M22.5959 17.5145C22.7328 17.5145 22.961 17.5145 23.2806 17.5145C24.5814 16.5103 25.9736 15.6659 27.457 14.9355C27.2288 14.9355 27.0691 14.9355 26.9778 14.9355C25.4258 15.643 23.9652 16.5103 22.5959 17.5145Z" fill="#005F85"/>
<path d="M27.2523 14.8216C27.3436 14.8216 27.5034 14.8216 27.7316 14.8216C29.215 14.1141 30.7898 13.5663 32.4102 13.2012C32.296 13.2012 32.2048 13.2012 32.1591 13.2012C30.4474 13.5663 28.8042 14.1141 27.2523 14.8216Z" fill="#005F85"/>
<path d="M32.4318 13.1097C32.4774 13.1097 32.5687 13.1097 32.6828 13.1097C34.3032 12.7674 35.9921 12.562 37.7266 12.562C35.9008 12.562 34.1435 12.7674 32.4318 13.1097Z" fill="#005F85"/>
<path d="M37.7969 64.9393C36.2221 64.9393 34.693 64.7568 33.2096 64.3916C33.027 64.3916 32.8901 64.3916 32.776 64.3916C34.3735 64.7339 36.0624 64.9393 37.7969 64.9393Z" fill="#005F85"/>
<path d="M32.4778 64.323C32.5919 64.323 32.7516 64.323 32.957 64.323C31.4736 63.9579 30.0586 63.4101 28.7121 62.7026C28.3697 62.7026 28.0731 62.7026 27.8448 62.7026C29.3055 63.4101 30.8574 63.935 32.4778 64.323Z" fill="#0099CF"/>
<path d="M27.5474 62.5883C27.7757 62.5883 28.0952 62.5883 28.4375 62.5883C27.091 61.8808 25.8129 61.0136 24.6262 60.0322C24.1241 60.0322 23.6905 60.0322 23.3481 60.0322C24.6946 61.0136 26.0868 61.8808 27.5474 62.5883Z" fill="#005F85"/>
<path d="M23.1438 59.8499C23.4862 59.8499 23.9198 59.8499 24.4219 59.8499C23.2351 58.8457 22.1625 57.7046 21.1583 56.4722C20.5193 56.4722 19.9715 56.4722 19.5607 56.4722C20.679 57.7046 21.8658 58.8457 23.1438 59.8499Z" fill="#003362"/>
<path d="M19.4031 56.2439C19.8367 56.2439 20.3616 56.2439 21.0234 56.2439C20.0421 54.9887 19.1748 53.6193 18.4217 52.1587C17.6686 52.1587 17.0524 52.1587 16.5503 52.1587C17.3719 53.6193 18.3304 54.9887 19.4031 56.2439Z" fill="#004C84"/>
<path d="M16.4098 51.8846C16.9119 51.8846 17.5281 51.8846 18.2812 51.8846C17.5509 50.4012 16.9347 48.8493 16.4555 47.2061C15.6339 47.2061 14.9492 47.2061 14.4015 47.2061C14.9264 48.8493 15.5882 50.424 16.4098 51.8846Z" fill="#004C84"/>
<path d="M14.3132 46.9324C14.8609 46.9324 15.5456 46.9324 16.3672 46.9324C15.9107 45.2892 15.5684 43.5775 15.3858 41.7974C14.5186 41.7974 13.7883 41.7974 13.2177 41.7974C13.4231 43.5775 13.7883 45.2892 14.3132 46.9324Z" fill="#005781"/>
<path d="M13.2147 41.4777C13.7853 41.4777 14.5156 41.4777 15.3828 41.4777C15.2915 40.5877 15.2687 39.6748 15.2687 38.7391C15.2687 37.849 15.3143 36.9361 15.3828 36.0688C14.5156 36.0688 13.7853 36.0688 13.2147 36.0688C13.1234 36.9361 13.0778 37.849 13.0778 38.7391C13.0778 39.6748 13.1234 40.5877 13.2147 41.4777Z" fill="#003A7C"/>
<path d="M13.2405 35.7722C13.8111 35.7722 14.5414 35.7722 15.4087 35.7722C15.5912 33.9921 15.9107 32.2804 16.3672 30.6372C15.5456 30.6372 14.8381 30.6372 14.2904 30.6372C13.7883 32.2804 13.4231 33.9921 13.2405 35.7722Z" fill="#005781"/>
<path d="M14.3819 30.3407C14.9297 30.3407 15.6143 30.3407 16.4359 30.3407C16.9152 28.6975 17.5314 27.1456 18.2617 25.6621C17.5086 25.6621 16.8696 25.6621 16.3903 25.6621C15.5687 27.1227 14.9068 28.6975 14.3819 30.3407Z" fill="#003349"/>
<path d="M16.5262 25.4107C17.0283 25.4107 17.6445 25.4107 18.3976 25.4107C19.1508 23.9501 20.018 22.5808 20.9766 21.3027C20.3375 21.3027 19.7898 21.3027 19.3562 21.3027C18.2835 22.558 17.3478 23.9273 16.5262 25.4107Z" fill="#00394E"/>
<path d="M19.5367 21.0748C19.9703 21.0748 20.4952 21.0748 21.1342 21.0748C22.1156 19.8196 23.2111 18.6785 24.375 17.6743C23.8501 17.6743 23.4165 17.6743 23.0741 17.6743C21.8189 18.7013 20.6321 19.8424 19.5367 21.0748Z" fill="#005F85"/>
<path d="M23.328 17.5145C23.6703 17.5145 24.0811 17.5145 24.606 17.5145C25.7928 16.5103 27.0708 15.6659 28.3945 14.9355C28.0294 14.9355 27.7327 14.9355 27.4816 14.9355C26.021 15.643 24.6289 16.5103 23.328 17.5145Z" fill="#004568"/>
<path d="M27.7556 14.8216C27.9838 14.8216 28.2805 14.8216 28.6457 14.8216C29.9922 14.1141 31.4072 13.5663 32.8906 13.2012C32.708 13.2012 32.5483 13.2012 32.4114 13.2012C30.791 13.5663 29.2391 14.1141 27.7556 14.8216Z" fill="#003E72"/>
<path d="M32.7057 13.1097C32.8198 13.1097 32.9795 13.1097 33.1621 13.1097C34.6227 12.7674 36.1518 12.562 37.7266 12.562C35.9921 12.562 34.326 12.7674 32.7057 13.1097Z" fill="#005F85"/>
<path d="M37.7969 64.9393C36.4504 64.9393 35.1267 64.7568 33.8714 64.3916C33.6432 64.3916 33.4378 64.3916 33.2552 64.3916C34.7159 64.7339 36.2221 64.9393 37.7969 64.9393Z" fill="#0082D1"/>
<path d="M32.9788 64.323C33.1614 64.323 33.3896 64.323 33.6406 64.323C32.3854 63.9579 31.153 63.4101 29.9891 62.7026C29.5326 62.7026 29.1218 62.7026 28.7567 62.7026C30.1032 63.4101 31.5182 63.935 32.9788 64.323Z" fill="#0078BA"/>
<path d="M28.5071 62.5883C28.8723 62.5883 29.3059 62.5883 29.7852 62.5883C28.644 61.8808 27.5486 61.0136 26.5216 60.0322C25.8597 60.0322 25.2663 60.0322 24.7414 60.0322C25.9282 61.0136 27.1834 61.8808 28.5071 62.5883Z" fill="#004C84"/>
<path d="M24.5369 59.8499C25.0618 59.8499 25.678 59.8499 26.3398 59.8499C25.3357 58.8457 24.3999 57.7046 23.5555 56.4722C22.7111 56.4722 21.958 56.4722 21.2961 56.4722C22.2775 57.7046 23.3729 58.8457 24.5369 59.8499Z" fill="#003A56"/>
<path d="M21.1357 56.2439C21.7976 56.2439 22.5507 56.2439 23.418 56.2439C22.5735 54.9887 21.8432 53.6193 21.1814 52.1587C20.2 52.1587 19.31 52.1587 18.5568 52.1587C19.31 53.6193 20.1544 54.9887 21.1357 56.2439Z" fill="#00567E"/>
<path d="M18.419 51.8846C19.195 51.8846 20.0622 51.8846 21.0664 51.8846C20.4274 50.4012 19.9025 48.8493 19.4917 47.2061C18.3962 47.2061 17.4377 47.2061 16.5932 47.2061C17.0725 48.8493 17.6887 50.424 18.419 51.8846Z" fill="#003659"/>
<path d="M16.5274 46.9324C17.3718 46.9324 18.3531 46.9324 19.4258 46.9324C19.015 45.2892 18.7411 43.5775 18.5814 41.7974C17.4402 41.7974 16.4361 41.7974 15.546 41.7974C15.7286 43.5775 16.0481 45.2892 16.5274 46.9324Z" fill="#0069A7"/>
<path d="M15.5193 41.4777C16.4094 41.4777 17.4136 41.4777 18.5547 41.4777C18.4862 40.5877 18.4406 39.6748 18.4406 38.7391C18.4406 37.849 18.4634 36.9361 18.5319 36.0688C17.3908 36.0688 16.3637 36.0688 15.4965 36.0688C15.428 36.9361 15.3824 37.849 15.3824 38.7391C15.4052 39.6748 15.428 40.5877 15.5193 41.4777Z" fill="#004C84"/>
<path d="M15.5454 35.7722C16.4354 35.7722 17.4396 35.7722 18.5807 35.7722C18.7405 33.9921 19.0144 32.2804 19.4023 30.6372C18.3069 30.6372 17.3483 30.6372 16.5039 30.6372C16.0475 32.2804 15.728 33.9921 15.5454 35.7722Z" fill="#003A6E"/>
<path d="M16.5698 30.3407C17.4142 30.3407 18.3728 30.3407 19.4682 30.3407C19.879 28.6975 20.4039 27.1456 21.043 25.6621C20.0616 25.6621 19.1715 25.6621 18.3956 25.6621C17.6653 27.1227 17.0491 28.6975 16.5698 30.3407Z" fill="#0A347B"/>
<path d="M18.5328 25.4107C19.2859 25.4107 20.176 25.4107 21.1573 25.4107C21.7964 23.9501 22.5495 22.5808 23.3711 21.3027C22.5267 21.3027 21.7507 21.3027 21.0889 21.3027C20.1303 22.558 19.2631 23.9273 18.5328 25.4107Z" fill="#003659"/>
<path d="M21.2727 21.0748C21.9345 21.0748 22.6877 21.0748 23.5321 21.0748C24.3765 19.8196 25.3122 18.6785 26.3164 17.6743C25.6317 17.6743 25.0155 17.6743 24.4906 17.6743C23.3267 18.7013 22.254 19.8424 21.2727 21.0748Z" fill="#003E77"/>
<path d="M24.6946 17.5145C25.2195 17.5145 25.8128 17.5145 26.4747 17.5145C27.5017 16.5103 28.5743 15.6659 29.7383 14.9355C29.259 14.9355 28.8254 14.9355 28.4602 14.9355C27.1365 15.643 25.8813 16.5103 24.6946 17.5145Z" fill="#005F85"/>
<path d="M28.7131 14.8216C29.0782 14.8216 29.489 14.8216 29.9455 14.8216C31.1094 14.1141 32.319 13.5663 33.5742 13.2012C33.3232 13.2012 33.095 13.2012 32.9124 13.2012C31.4517 13.5663 30.0368 14.1141 28.7131 14.8216Z" fill="#005F85"/>
<path d="M33.1855 13.1097C33.3681 13.1097 33.5735 13.1097 33.8246 13.1097C35.0798 12.7674 36.4035 12.562 37.75 12.562C36.1753 12.562 34.6462 12.7674 33.1855 13.1097Z" fill="#005F85"/>
<path d="M37.7969 64.9393C36.7242 64.9393 35.6972 64.7568 34.6702 64.3916C34.3964 64.3916 34.1225 64.3916 33.8943 64.3916C35.1495 64.7339 36.4504 64.9393 37.7969 64.9393Z" fill="#005F85"/>
<path d="M33.6901 64.323C33.9412 64.323 34.215 64.323 34.5117 64.323C33.5075 63.9579 32.549 63.4101 31.6361 62.7026C31.0884 62.7026 30.5635 62.7026 30.0842 62.7026C31.2253 63.4101 32.4349 63.935 33.6901 64.323Z" fill="#005F85"/>
<path d="M29.8745 62.5883C30.3537 62.5883 30.8787 62.5883 31.4492 62.5883C30.5363 61.8808 29.6691 61.0136 28.8703 60.0322C28.0715 60.0322 27.3184 60.0322 26.6337 60.0322C27.6379 61.0136 28.7334 61.8808 29.8745 62.5883Z" fill="#005F85"/>
<path d="M26.475 59.8499C27.1596 59.8499 27.9128 59.8499 28.7344 59.8499C27.9356 58.8457 27.2053 57.7046 26.5206 56.4722C25.4936 56.4722 24.5579 56.4722 23.7135 56.4722C24.5351 57.7046 25.4708 58.8457 26.475 59.8499Z" fill="#006C96"/>
<path d="M23.5568 56.2439C24.424 56.2439 25.3825 56.2439 26.3867 56.2439C25.7249 54.9887 25.1315 53.6193 24.6294 52.1587C23.4426 52.1587 22.3472 52.1587 21.343 52.1587C22.0048 53.6193 22.7352 54.9887 23.5568 56.2439Z" fill="#003B5A"/>
<path d="M21.2494 51.8846C22.2535 51.8846 23.349 51.8846 24.5586 51.8846C24.0565 50.4012 23.6457 48.8493 23.3034 47.2061C22.0025 47.2061 20.7929 47.2061 19.6974 47.2061C20.0854 48.8493 20.6103 50.424 21.2494 51.8846Z" fill="#00446A"/>
<path d="M19.6056 46.9324C20.7011 46.9324 21.9335 46.9324 23.2344 46.9324C22.9149 45.2892 22.6866 43.5775 22.5725 41.7974C21.2032 41.7974 19.9251 41.7974 18.784 41.7974C18.9438 43.5775 19.2177 45.2892 19.6056 46.9324Z" fill="#009AC4"/>
<path d="M18.7623 41.4777C19.9262 41.4777 21.1814 41.4777 22.5508 41.4777C22.5051 40.5877 22.4595 39.6748 22.4595 38.7391C22.4595 37.849 22.4823 36.9361 22.528 36.0688C21.1586 36.0688 19.8806 36.0688 18.7395 36.0688C18.671 36.9361 18.6482 37.849 18.6482 38.7391C18.671 39.6748 18.6938 40.5877 18.7623 41.4777Z" fill="#0069A8"/>
<path d="M18.784 35.7722C19.9251 35.7722 21.2032 35.7722 22.5725 35.7722C22.6866 33.9921 22.9149 32.2804 23.2344 30.6372C21.9335 30.6372 20.7011 30.6372 19.6056 30.6372C19.1948 32.2804 18.921 33.9921 18.784 35.7722Z" fill="#00425C"/>
<path d="M19.6734 30.3407C20.7689 30.3407 21.9784 30.3407 23.2793 30.3407C23.5988 28.6975 24.0325 27.1456 24.5117 25.6621C23.325 25.6621 22.2067 25.6621 21.2025 25.6621C20.5863 27.1227 20.0842 28.6975 19.6734 30.3407Z" fill="#003B7C"/>
<path d="M21.343 25.4107C22.3472 25.4107 23.4426 25.4107 24.6294 25.4107C25.1315 23.9501 25.7249 22.5808 26.3867 21.3027C25.3597 21.3027 24.4012 21.3027 23.5339 21.3027C22.7123 22.558 21.9592 23.9273 21.343 25.4107Z" fill="#00435C"/>
<path d="M23.6705 21.0748C24.5377 21.0748 25.4735 21.0748 26.4776 21.0748C27.1395 19.8196 27.8926 18.6785 28.6914 17.6743C27.8698 17.6743 27.1167 17.6743 26.432 17.6743C25.4278 18.7013 24.5149 19.8424 23.6705 21.0748Z" fill="#00618A"/>
<path d="M26.6142 17.5145C27.2989 17.5145 28.052 17.5145 28.8508 17.5145C29.6495 16.5103 30.5168 15.6659 31.4297 14.9355C30.8591 14.9355 30.3114 14.9355 29.8321 14.9355C28.691 15.643 27.6184 16.5103 26.6142 17.5145Z" fill="#005576"/>
<path d="M30.0373 14.8216C30.5166 14.8216 31.0187 14.8216 31.5892 14.8216C32.5021 14.1141 33.4607 13.5663 34.4648 13.2012C34.1682 13.2012 33.8943 13.2012 33.6432 13.2012C32.388 13.5663 31.1784 14.1141 30.0373 14.8216Z" fill="#003A56"/>
<path d="M33.848 13.1097C34.0762 13.1097 34.3501 13.1097 34.6468 13.1097C35.651 12.7446 36.7008 12.562 37.7734 12.562C37.7734 12.562 37.7734 12.562 37.7506 12.562C36.4041 12.562 35.1032 12.7674 33.848 13.1097Z" fill="#005F85"/>
<path d="M37.7969 64.9393C37.0666 64.9393 36.3362 64.7568 35.6288 64.3916C35.3092 64.3916 35.0126 64.3916 34.7159 64.3916C35.72 64.7339 36.747 64.9393 37.7969 64.9393Z" fill="#0086C9"/>
<path d="M34.5571 64.323C34.8538 64.323 35.1733 64.323 35.5156 64.323C34.831 63.9579 34.1463 63.4101 33.5073 62.7026C32.8682 62.7026 32.2749 62.7026 31.7043 62.7026C32.6172 63.4101 33.5757 63.935 34.5571 64.323Z" fill="#0080AE"/>
<path d="M31.542 62.5883C32.1126 62.5883 32.7288 62.5883 33.3906 62.5883C32.7516 61.8808 32.1582 61.0136 31.5877 60.0322C30.6748 60.0322 29.8075 60.0322 28.9859 60.0322C29.8075 61.0136 30.652 61.8808 31.542 62.5883Z" fill="#005576"/>
<path d="M28.8721 59.8499C29.6937 59.8499 30.5838 59.8499 31.5195 59.8499C30.9718 58.8457 30.4469 57.7046 29.9904 56.4722C28.8265 56.4722 27.731 56.4722 26.704 56.4722C27.3659 57.7046 28.0962 58.8457 28.8721 59.8499Z" fill="#005F85"/>
<path d="M26.5892 56.2439C27.6162 56.2439 28.7345 56.2439 29.8984 56.2439C29.442 54.9887 29.0312 53.6193 28.666 52.1587C27.3195 52.1587 26.0415 52.1587 24.8319 52.1587C25.3568 53.6193 25.9274 54.9887 26.5892 56.2439Z" fill="#00639E"/>
<path d="M24.7641 51.8846C25.9737 51.8846 27.2518 51.8846 28.6211 51.8846C28.2788 50.4012 27.9821 48.8493 27.7538 47.2061C26.2704 47.2061 24.8554 47.2061 23.5317 47.2061C23.8512 48.8493 24.262 50.424 24.7641 51.8846Z" fill="#95F9FF"/>
<path d="M23.4615 46.9324C24.7852 46.9324 26.2001 46.9324 27.6836 46.9324C27.4554 45.2892 27.3184 43.5775 27.2271 41.7974C25.6752 41.7974 24.1918 41.7974 22.7996 41.7974C22.9366 43.5775 23.1648 45.2892 23.4615 46.9324Z" fill="#3FD4FF"/>
<path d="M22.8029 41.4777C24.1951 41.4777 25.6786 41.4777 27.2305 41.4777C27.1848 40.5877 27.162 39.6748 27.162 38.7391C27.162 37.849 27.1848 36.9361 27.2076 36.0688C25.6557 36.0688 24.1723 36.0688 22.7801 36.0688C22.7345 36.9361 22.7117 37.849 22.7117 38.7391C22.7345 39.6748 22.7573 40.5877 22.8029 41.4777Z" fill="#005E9A"/>
<path d="M22.8231 35.7722C24.2152 35.7722 25.6758 35.7722 27.2506 35.7722C27.3419 33.9921 27.4788 32.2804 27.707 30.6372C26.2236 30.6372 24.7858 30.6372 23.4621 30.6372C23.1426 32.2804 22.9372 33.9921 22.8231 35.7722Z" fill="#00376E"/>
<path d="M23.5083 30.3407C24.832 30.3407 26.247 30.3407 27.7304 30.3407C27.9586 28.6975 28.2553 27.1456 28.5977 25.6621C27.2283 25.6621 25.9503 25.6621 24.7407 25.6621C24.2386 27.1227 23.8278 28.6975 23.5083 30.3407Z" fill="#003766"/>
<path d="M24.8313 25.4107C26.018 25.4107 27.3189 25.4107 28.6654 25.4107C29.0078 23.9501 29.4186 22.5808 29.875 21.3027C28.7111 21.3027 27.5928 21.3027 26.5658 21.3027C25.9039 22.558 25.3334 23.9273 24.8313 25.4107Z" fill="#003067"/>
<path d="M26.6806 21.0748C27.7076 21.0748 28.8031 21.0748 29.967 21.0748C30.4234 19.8196 30.9484 18.6785 31.4961 17.6743C30.5604 17.6743 29.6703 17.6743 28.8487 17.6743C28.0499 18.7013 27.3196 19.8424 26.6806 21.0748Z" fill="#00567E"/>
<path d="M28.9853 17.5145C29.8069 17.5145 30.6742 17.5145 31.587 17.5145C32.1348 16.5103 32.751 15.6659 33.3672 14.9355C32.7053 14.9355 32.0891 14.9355 31.5186 14.9355C30.6285 15.643 29.7613 16.5103 28.9853 17.5145Z" fill="#005F85"/>
<path d="M31.6809 14.8216C32.2514 14.8216 32.8448 14.8216 33.4838 14.8216C34.1229 14.1141 34.7847 13.5663 35.4922 13.2012C35.1499 13.2012 34.8303 13.2012 34.5108 13.2012C33.5295 13.5663 32.5709 14.1141 31.6809 14.8216Z" fill="#005F85"/>
<path d="M34.6924 13.1097C34.9891 13.1097 35.2858 13.1097 35.6053 13.1097C36.3128 12.7446 37.0203 12.562 37.7734 12.562C37.7734 12.562 37.7734 12.562 37.7506 12.562C36.7008 12.562 35.6738 12.7674 34.6924 13.1097Z" fill="#005F85"/>
<path d="M37.7969 64.9393C37.4317 64.9393 37.0666 64.7568 36.7014 64.3916C36.3591 64.3916 36.0167 64.3916 35.6972 64.3916C36.3819 64.7339 37.0894 64.9393 37.7969 64.9393Z" fill="#005F85"/>
<path d="M35.5836 64.323C35.9259 64.323 36.2911 64.323 36.6562 64.323C36.3139 63.9579 35.9716 63.4101 35.6521 62.7026C34.9674 62.7026 34.2827 62.7026 33.6437 62.7026C34.2371 63.4101 34.8989 63.935 35.5836 64.323Z" fill="#005887"/>
<path d="M33.5046 62.5883C34.1664 62.5883 34.8511 62.5883 35.5586 62.5883C35.2391 61.8808 34.9424 61.0136 34.6457 60.0322C33.6415 60.0322 32.683 60.0322 31.7473 60.0322C32.3178 61.0136 32.8884 61.8808 33.5046 62.5883Z" fill="#0158A9"/>
<path d="M31.6809 59.8499C32.6166 59.8499 33.598 59.8499 34.625 59.8499C34.3511 58.8457 34.0773 57.7046 33.849 56.4722C32.571 56.4722 31.3614 56.4722 30.1975 56.4722C30.6311 57.7046 31.1332 58.8457 31.6809 59.8499Z" fill="#004568"/>
<path d="M30.1036 56.2439C31.2903 56.2439 32.5227 56.2439 33.8008 56.2439C33.5726 54.9887 33.3672 53.6193 33.1846 52.1587C31.7011 52.1587 30.2861 52.1587 28.9168 52.1587C29.2591 53.6193 29.6471 54.9887 30.1036 56.2439Z" fill="#57E1FF"/>
<path d="M28.85 51.8846C30.2194 51.8846 31.6572 51.8846 33.1406 51.8846C32.958 50.4012 32.8211 48.8493 32.707 47.2061C31.0866 47.2061 29.5119 47.2061 28.0056 47.2061C28.2338 48.8493 28.5077 50.424 28.85 51.8846Z" fill="#E5F8FF"/>
<path d="M27.9594 46.9324C29.4657 46.9324 31.0404 46.9324 32.6836 46.9324C32.5695 45.2892 32.501 43.5775 32.4554 41.7974C30.7437 41.7974 29.1005 41.7974 27.5258 41.7974C27.5942 43.5775 27.754 45.2892 27.9594 46.9324Z" fill="#95F9FF"/>
<path d="M27.504 41.4777C29.0787 41.4777 30.7219 41.4777 32.4336 41.4777C32.4108 40.5877 32.4108 39.6748 32.4108 38.7391C32.4108 37.849 32.4108 36.9361 32.4336 36.0688C30.7219 36.0688 29.0787 36.0688 27.504 36.0688C27.4583 36.9361 27.4583 37.849 27.4583 38.7391C27.4583 39.6748 27.4812 40.5877 27.504 41.4777Z" fill="#0BD6FC"/>
<path d="M27.5258 35.7722C29.1005 35.7722 30.7437 35.7722 32.4554 35.7722C32.501 33.9921 32.5695 32.2804 32.6836 30.6372C31.0404 30.6372 29.4657 30.6372 27.9594 30.6372C27.754 32.2804 27.5942 33.9921 27.5258 35.7722Z" fill="#003654"/>
<path d="M28.0056 30.3407C29.5119 30.3407 31.0866 30.3407 32.707 30.3407C32.8211 28.6975 32.958 27.1456 33.1406 25.6621C31.6572 25.6621 30.2194 25.6621 28.85 25.6621C28.5077 27.1227 28.211 28.6975 28.0056 30.3407Z" fill="#005278"/>
<path d="M28.8973 25.4107C30.2666 25.4107 31.6816 25.4107 33.165 25.4107C33.3476 23.9501 33.553 22.5808 33.7812 21.3027C32.5032 21.3027 31.2708 21.3027 30.084 21.3027C29.6504 22.558 29.2396 23.9273 28.8973 25.4107Z" fill="#0083A1"/>
<path d="M30.174 21.0748C31.338 21.0748 32.5704 21.0748 33.8256 21.0748C34.0538 19.8196 34.3277 18.6785 34.6016 17.6743C33.5746 17.6743 32.5932 17.6743 31.6575 17.6743C31.1098 18.7013 30.6077 19.8424 30.174 21.0748Z" fill="#1ABDE4"/>
<path d="M31.7473 17.5145C32.683 17.5145 33.6415 17.5145 34.6457 17.5145C34.9196 16.5103 35.2391 15.6659 35.5586 14.9355C34.8511 14.9355 34.1436 14.9355 33.4818 14.9355C32.8656 15.643 32.295 16.5103 31.7473 17.5145Z" fill="#005F85"/>
<path d="M33.5968 14.8216C34.2359 14.8216 34.9205 14.8216 35.6052 14.8216C35.9247 14.1141 36.267 13.5663 36.6094 13.2012C36.2442 13.2012 35.8791 13.2012 35.5367 13.2012C34.8749 13.5663 34.213 14.1141 33.5968 14.8216Z" fill="#005F85"/>
<path d="M35.6744 13.1097C35.9939 13.1097 36.3362 13.1097 36.7014 13.1097C37.0666 12.7446 37.4317 12.562 37.7969 12.562C37.7969 12.562 37.7969 12.562 37.7741 12.562C37.0437 12.562 36.3362 12.7674 35.6744 13.1097Z" fill="#005F85"/>
<path d="M37.7942 64.9393C37.817 64.9393 37.8398 64.7568 37.8398 64.3916C37.4747 64.3916 37.1095 64.3916 36.7444 64.3916C37.1095 64.7339 37.4519 64.9393 37.7942 64.9393Z" fill="#0080C9"/>
<path d="M36.7006 64.323C37.0657 64.323 37.4537 64.323 37.8645 64.323C37.8873 63.9579 37.8873 63.4101 37.9102 62.7026C37.1798 62.7026 36.4495 62.7026 35.742 62.7026C36.0616 63.4101 36.3811 63.935 36.7006 64.323Z" fill="#118ED2"/>
<path d="M35.6976 62.5883C36.4051 62.5883 37.1582 62.5883 37.9114 62.5883C37.9342 61.8808 37.9342 61.0136 37.957 60.0322C36.8844 60.0322 35.8574 60.0322 34.8304 60.0322C35.1042 61.0136 35.4009 61.8808 35.6976 62.5883Z" fill="#007CC0"/>
<path d="M34.7821 59.8499C35.8091 59.8499 36.8589 59.8499 37.9544 59.8499C37.9772 58.8457 37.9772 57.7046 38 56.4722C36.6535 56.4722 35.3298 56.4722 34.0517 56.4722C34.28 57.7046 34.531 58.8457 34.7821 59.8499Z" fill="#003349"/>
<path d="M34.0295 56.2439C35.3076 56.2439 36.6541 56.2439 38.0006 56.2439C38.0006 54.9887 38.0234 53.6193 38.0234 52.1587C36.4487 52.1587 34.9196 52.1587 33.4362 52.1587C33.5959 53.6193 33.8013 54.9887 34.0295 56.2439Z" fill="#004F82"/>
<path d="M33.4146 51.8846C34.9208 51.8846 36.4499 51.8846 38.0475 51.8846C38.0475 50.4012 38.0703 48.8493 38.0703 47.2061C36.3358 47.2061 34.647 47.2061 33.0038 47.2061C33.0951 48.8493 33.232 50.424 33.4146 51.8846Z" fill="#DEF6FF"/>
<path d="M32.9809 46.9324C34.6241 46.9324 36.313 46.9324 38.0703 46.9324C38.0703 45.2892 38.0703 43.5775 38.0703 41.7974C36.2445 41.7974 34.4872 41.7974 32.7527 41.7974C32.7984 43.5775 32.8668 45.2892 32.9809 46.9324Z" fill="#2CD9FF"/>
<path d="M32.7527 41.4777C34.4644 41.4777 36.2445 41.4777 38.0703 41.4777C38.0703 40.5877 38.0703 39.6748 38.0703 38.7391C38.0703 37.849 38.0703 36.9361 38.0703 36.0688C36.2445 36.0688 34.4644 36.0688 32.7527 36.0688C32.7299 36.9361 32.7299 37.849 32.7299 38.7391C32.7299 39.6748 32.7299 40.5877 32.7527 41.4777Z" fill="#0087B5"/>
<path d="M32.7527 35.7722C34.4644 35.7722 36.2445 35.7722 38.0703 35.7722C38.0703 33.9921 38.0703 32.2804 38.0703 30.6372C36.3358 30.6372 34.6241 30.6372 32.9809 30.6372C32.8668 32.2804 32.7984 33.9921 32.7527 35.7722Z" fill="#005F85"/>
<path d="M32.9803 30.3407C34.6235 30.3407 36.3124 30.3407 38.0469 30.3407C38.0469 28.6975 38.0241 27.1456 38.0241 25.6621C36.4493 25.6621 34.8974 25.6621 33.3911 25.6621C33.2314 27.1227 33.0944 28.6975 32.9803 30.3407Z" fill="#006696"/>
<path d="M33.4368 25.4107C34.9202 25.4107 36.4721 25.4107 38.0469 25.4107C38.0469 23.9501 38.0241 22.5808 38.0241 21.3027C36.6547 21.3027 35.331 21.3027 34.0301 21.3027C33.8019 22.558 33.5965 23.9273 33.4368 25.4107Z" fill="#007A9D"/>
<path d="M34.0517 21.0748C35.3298 21.0748 36.6535 21.0748 38 21.0748C38 19.8196 37.9772 18.6785 37.9544 17.6743C36.8589 17.6743 35.8091 17.6743 34.7821 17.6743C34.5082 18.7013 34.28 19.8424 34.0517 21.0748Z" fill="#25CBF4"/>
<path d="M34.8304 17.5145C35.8346 17.5145 36.8844 17.5145 37.957 17.5145C37.9342 16.5103 37.9342 15.6659 37.9114 14.9355C37.1582 14.9355 36.4051 14.9355 35.6748 14.9355C35.3781 15.643 35.1042 16.5103 34.8304 17.5145Z" fill="#0092AB"/>
<path d="M35.742 14.8216C36.4495 14.8216 37.1798 14.8216 37.9102 14.8216C37.8873 14.1141 37.8873 13.5663 37.8645 13.2012C37.4765 13.2012 37.0657 13.2012 36.7006 13.2012C36.3582 13.5663 36.0387 14.1141 35.742 14.8216Z" fill="#2AE0F9"/>
<path d="M36.7444 13.1097C37.1095 13.1097 37.4747 13.1097 37.8398 13.1097C37.817 12.7446 37.7942 12.562 37.7942 12.562H37.7714C37.429 12.562 37.0867 12.7674 36.7444 13.1097Z" fill="#006F9C"/>
<path d="M37.7943 64.9393C37.7943 64.9393 37.8171 64.9393 37.7943 64.9393C38.2051 64.9393 38.6159 64.7568 39.0039 64.3916C38.6616 64.3916 38.2964 64.3916 37.9084 64.3916C37.8856 64.7339 37.84 64.9393 37.7943 64.9393Z" fill="#2380D3"/>
<path d="M37.932 64.323C38.32 64.323 38.708 64.323 39.0731 64.323C39.4611 63.9579 39.8262 63.4101 40.1914 62.7026C39.5067 62.7026 38.7764 62.7026 38.0461 62.7026C38.0005 63.4101 37.9776 63.935 37.932 64.323Z" fill="#005F85"/>
<path d="M38.0477 62.5883C38.8008 62.5883 39.554 62.5883 40.2614 62.5883C40.6038 61.8808 40.9461 61.0136 41.2656 60.0322C40.2614 60.0322 39.2344 60.0322 38.1618 60.0322C38.1161 61.0136 38.0705 61.8808 38.0477 62.5883Z" fill="#0F67B8"/>
<path d="M38.1623 59.8499C39.2578 59.8499 40.3076 59.8499 41.3118 59.8499C41.6313 58.8457 41.9052 57.7046 42.1562 56.4722C40.901 56.4722 39.5773 56.4722 38.2308 56.4722C38.208 57.7046 38.1852 58.8457 38.1623 59.8499Z" fill="#00417B"/>
<path d="M38.231 56.2439C39.6003 56.2439 40.924 56.2439 42.202 56.2439C42.4531 54.9887 42.6813 53.6193 42.8867 52.1587C41.4033 52.1587 39.8742 52.1587 38.2994 52.1587C38.2766 53.6193 38.2538 54.9887 38.231 56.2439Z" fill="#0551A3"/>
<path d="M38.2973 51.8846C39.8721 51.8846 41.424 51.8846 42.9075 51.8846C43.09 50.4012 43.2726 48.8493 43.3867 47.2061C41.7663 47.2061 40.0775 47.2061 38.343 47.2061C38.343 48.8493 38.3202 50.424 38.2973 51.8846Z" fill="#45F5FF"/>
<path d="M38.366 46.9324C40.1005 46.9324 41.7893 46.9324 43.4325 46.9324C43.5467 45.2892 43.6379 43.5775 43.6836 41.7974C41.9719 41.7974 40.2146 41.7974 38.3888 41.7974C38.3888 43.5775 38.366 45.2892 38.366 46.9324Z" fill="#00A5DA"/>
<path d="M38.3894 41.4777C40.2152 41.4777 41.9725 41.4777 43.6842 41.4777C43.707 40.5877 43.707 39.6748 43.707 38.7391C43.707 37.849 43.707 36.9361 43.6842 36.0688C41.9725 36.0688 40.1924 36.0688 38.3894 36.0688C38.3894 36.9361 38.3894 37.849 38.3894 38.7391C38.3894 39.6748 38.3894 40.5877 38.3894 41.4777Z" fill="#006D99"/>
<path d="M38.3888 35.7722C40.2146 35.7722 41.9719 35.7722 43.6836 35.7722C43.6379 33.9921 43.5467 32.2804 43.4325 30.6372C41.7893 30.6372 40.1005 30.6372 38.366 30.6372C38.366 32.2804 38.3888 33.9921 38.3888 35.7722Z" fill="#00477E"/>
<path d="M38.3664 30.3407C40.1009 30.3407 41.7898 30.3407 43.4102 30.3407C43.296 28.6975 43.1135 27.1456 42.9309 25.6621C41.4474 25.6621 39.8955 25.6621 38.3208 25.6621C38.3208 27.1227 38.3436 28.6975 38.3664 30.3407Z" fill="#0081B4"/>
<path d="M38.2994 25.4107C39.8742 25.4107 41.4033 25.4107 42.8867 25.4107C42.6813 23.9501 42.4531 22.5808 42.202 21.3027C40.924 21.3027 39.6003 21.3027 38.231 21.3027C38.2766 22.558 38.2994 23.9273 38.2994 25.4107Z" fill="#0076A8"/>
<path d="M38.2308 21.0748C39.5773 21.0748 40.901 21.0748 42.1562 21.0748C41.9052 19.8196 41.6085 18.6785 41.3118 17.6743C40.2848 17.6743 39.235 17.6743 38.1395 17.6743C38.1852 18.7013 38.208 19.8424 38.2308 21.0748Z" fill="#4FD9FF"/>
<path d="M38.139 17.5145C39.2116 17.5145 40.2614 17.5145 41.2656 17.5145C40.9461 16.5103 40.6266 15.6659 40.2614 14.9355C39.554 14.9355 38.8008 14.9355 38.0477 14.9355C38.0933 15.643 38.1161 16.5103 38.139 17.5145Z" fill="#54E2FF"/>
<path d="M38.0467 14.8216C38.7999 14.8216 39.5074 14.8216 40.2148 14.8216C39.8497 14.1141 39.4845 13.5663 39.0966 13.2012C38.7314 13.2012 38.3434 13.2012 37.9326 13.2012C37.9783 13.5663 38.0011 14.1141 38.0467 14.8216Z" fill="#2EBBE7"/>
<path d="M37.9319 13.1097C38.3199 13.1097 38.685 13.1097 39.0273 13.1097C38.6394 12.7446 38.2286 12.562 37.8178 12.562C37.8178 12.562 37.8178 12.562 37.7949 12.562C37.8406 12.562 37.8862 12.7674 37.9319 13.1097Z" fill="#1078A1"/>
<path d="M37.8187 64.9393C38.5947 64.9393 39.3478 64.7568 40.0781 64.3916C39.7586 64.3916 39.4163 64.3916 39.0739 64.3916C38.6631 64.7339 38.2523 64.9393 37.8187 64.9393Z" fill="#005F85"/>
<path d="M39.1435 64.323C39.5086 64.323 39.8738 64.323 40.1933 64.323C40.9236 63.9579 41.6311 63.4101 42.293 62.7026C41.6539 62.7026 40.9921 62.7026 40.3074 62.7026C39.9423 63.4101 39.5543 63.935 39.1435 64.323Z" fill="#0075BB"/>
<path d="M40.3747 62.5883C41.0822 62.5883 41.7669 62.5883 42.4059 62.5883C43.0678 61.8808 43.7068 61.0136 44.2773 60.0322C43.3645 60.0322 42.4059 60.0322 41.4246 60.0322C41.105 61.0136 40.7399 61.8808 40.3747 62.5883Z" fill="#005886"/>
<path d="M41.4923 59.8499C42.4965 59.8499 43.4778 59.8499 44.3907 59.8499C44.9613 58.8457 45.509 57.7046 45.9883 56.4722C44.8472 56.4722 43.6376 56.4722 42.3824 56.4722C42.1085 57.7046 41.8118 58.8457 41.4923 59.8499Z" fill="#00446A"/>
<path d="M42.4298 56.2439C43.7078 56.2439 44.9174 56.2439 46.0813 56.2439C46.5606 54.9887 46.9942 53.6193 47.3594 52.1587C46.0129 52.1587 44.6207 52.1587 43.1373 52.1587C42.9318 53.6193 42.7036 54.9887 42.4298 56.2439Z" fill="#05396F"/>
<path d="M43.182 51.8846C44.6655 51.8846 46.0804 51.8846 47.427 51.8846C47.7921 50.4012 48.0888 48.8493 48.3398 47.2061C46.8564 47.2061 45.3045 47.2061 43.6841 47.2061C43.5472 48.8493 43.3874 50.424 43.182 51.8846Z" fill="#0094C0"/>
<path d="M43.7087 46.9324C45.3291 46.9324 46.9039 46.9324 48.3645 46.9324C48.5927 45.2892 48.7525 43.5775 48.8438 41.7974C47.2918 41.7974 45.6715 41.7974 43.9598 41.7974C43.937 43.5775 43.8457 45.2892 43.7087 46.9324Z" fill="#0095D2"/>
<path d="M43.9812 41.4777C45.67 41.4777 47.3132 41.4777 48.8651 41.4777C48.9108 40.5877 48.9336 39.6748 48.9336 38.7391C48.9336 37.849 48.9108 36.9361 48.8651 36.0688C47.3132 36.0688 45.67 36.0688 43.9812 36.0688C44.004 36.9361 44.004 37.849 44.004 38.7391C44.0268 39.6748 44.004 40.5877 43.9812 41.4777Z" fill="#004463"/>
<path d="M43.9793 35.7722C45.6682 35.7722 47.3114 35.7722 48.8633 35.7722C48.772 33.9921 48.6122 32.2804 48.384 30.6372C46.9006 30.6372 45.3486 30.6372 43.7054 30.6372C43.8424 32.2804 43.9337 33.9921 43.9793 35.7722Z" fill="#00426E"/>
<path d="M43.6841 30.3407C45.3045 30.3407 46.8564 30.3407 48.3398 30.3407C48.1116 28.6975 47.7921 27.1456 47.4498 25.6621C46.1033 25.6621 44.6883 25.6621 43.2048 25.6621C43.3874 27.1227 43.57 28.6975 43.6841 30.3407Z" fill="#009DC1"/>
<path d="M43.1607 25.4107C44.6213 25.4107 46.0363 25.4107 47.3828 25.4107C47.0177 23.9501 46.584 22.5808 46.1048 21.3027C44.9408 21.3027 43.7084 21.3027 42.4532 21.3027C42.7042 22.558 42.9553 23.9273 43.1607 25.4107Z" fill="#006C96"/>
<path d="M42.383 21.0748C43.6382 21.0748 44.8478 21.0748 46.0117 21.0748C45.5325 19.8196 44.9847 18.6785 44.4142 17.6743C43.4784 17.6743 42.5199 17.6743 41.4929 17.6743C41.8124 18.7013 42.1319 19.8424 42.383 21.0748Z" fill="#37DDFF"/>
<path d="M41.4486 17.5145C42.4528 17.5145 43.4113 17.5145 44.3242 17.5145C43.7308 16.5103 43.1146 15.6659 42.4528 14.9355C41.8138 14.9355 41.1291 14.9355 40.3988 14.9355C40.7639 15.643 41.1063 16.5103 41.4486 17.5145Z" fill="#73E7FF"/>
<path d="M40.3309 14.8216C41.0155 14.8216 41.7002 14.8216 42.3164 14.8216C41.6546 14.1141 40.9471 13.5663 40.2168 13.2012C39.8744 13.2012 39.5093 13.2012 39.1441 13.2012C39.5777 13.5663 39.9657 14.1141 40.3309 14.8216Z" fill="#42CBFC"/>
<path d="M39.0974 13.1097C39.4397 13.1097 39.7821 13.1097 40.1016 13.1097C39.3712 12.7446 38.6181 12.562 37.8422 12.562C37.8422 12.562 37.8422 12.562 37.8193 12.562C38.253 12.562 38.6866 12.7674 39.0974 13.1097Z" fill="#0076A6"/>
<path d="M37.8172 64.9393C38.9127 64.9393 39.9853 64.7568 41.0352 64.3916C40.7613 64.3916 40.4646 64.3916 40.1451 64.3916C39.392 64.7339 38.616 64.9393 37.8172 64.9393Z" fill="#005F85"/>
<path d="M40.2615 64.323C40.6038 64.323 40.9005 64.323 41.1972 64.323C42.2242 63.9579 43.2283 63.4101 44.1641 62.7026C43.6163 62.7026 43.0229 62.7026 42.4067 62.7026C41.7221 63.4101 41.0146 63.935 40.2615 64.323Z" fill="#005DB0"/>
<path d="M42.5184 62.5883C43.1574 62.5883 43.7736 62.5883 44.3214 62.5883C45.2571 61.8808 46.1471 61.0136 46.9688 60.0322C46.17 60.0322 45.3255 60.0322 44.4127 60.0322C43.8421 61.0136 43.2031 61.8808 42.5184 62.5883Z" fill="#005483"/>
<path d="M44.5529 59.8499C45.4658 59.8499 46.3331 59.8499 47.1318 59.8499C47.9534 58.8457 48.7066 57.7046 49.4141 56.4722C48.4099 56.4722 47.3372 56.4722 46.1961 56.4722C45.694 57.7046 45.1463 58.8457 44.5529 59.8499Z" fill="#003766"/>
<path d="M46.285 56.2439C47.4261 56.2439 48.5216 56.2439 49.5258 56.2439C50.2104 54.9887 50.8266 53.6193 51.3516 52.1587C50.1876 52.1587 48.9324 52.1587 47.6087 52.1587C47.2207 53.6193 46.7871 54.9887 46.285 56.2439Z" fill="#004867"/>
<path d="M47.6561 51.8846C49.0026 51.8846 50.2578 51.8846 51.4446 51.8846C51.9695 50.4012 52.3803 48.8493 52.7227 47.2061C51.4446 47.2061 50.0524 47.2061 48.5918 47.2061C48.3408 48.8493 48.0441 50.424 47.6561 51.8846Z" fill="#006E9F"/>
<path d="M48.6382 46.9324C50.0989 46.9324 51.491 46.9324 52.7919 46.9324C53.1114 45.2892 53.3396 43.5775 53.4766 41.7974C52.13 41.7974 50.6694 41.7974 49.1403 41.7974C49.049 43.5775 48.8665 45.2892 48.6382 46.9324Z" fill="#007AA5"/>
<path d="M49.1389 41.4777C50.668 41.4777 52.1286 41.4777 53.4751 41.4777C53.5208 40.5877 53.5664 39.6748 53.5664 38.7391C53.5664 37.849 53.5436 36.9361 53.4751 36.0688C52.1286 36.0688 50.668 36.0688 49.1389 36.0688C49.1845 36.9361 49.2073 37.849 49.2073 38.7391C49.2073 39.6748 49.1845 40.5877 49.1389 41.4777Z" fill="#005278"/>
<path d="M49.1403 35.7722C50.6694 35.7722 52.13 35.7722 53.4766 35.7722C53.3625 33.9921 53.1342 32.2804 52.8147 30.6372C51.5138 30.6372 50.1217 30.6372 48.6611 30.6372C48.8893 32.2804 49.049 33.9921 49.1403 35.7722Z" fill="#003876"/>
<path d="M48.6153 30.3407C50.0759 30.3407 51.468 30.3407 52.7461 30.3407C52.4038 28.6975 51.993 27.1456 51.468 25.6621C50.2813 25.6621 49.0261 25.6621 47.6795 25.6621C48.0447 27.1227 48.3642 28.6975 48.6153 30.3407Z" fill="#06C2FF"/>
<path d="M47.6093 25.4107C48.933 25.4107 50.1882 25.4107 51.375 25.4107C50.8501 23.9501 50.2339 22.5808 49.572 21.3027C48.5679 21.3027 47.4724 21.3027 46.3085 21.3027C46.7877 22.558 47.2442 23.9273 47.6093 25.4107Z" fill="#7CF2FF"/>
<path d="M46.2156 21.0748C47.3568 21.0748 48.4294 21.0748 49.4336 21.0748C48.7489 19.8196 47.9958 18.6785 47.1742 17.6743C46.3754 17.6743 45.5082 17.6743 44.5724 17.6743C45.1658 18.7013 45.7136 19.8424 46.2156 21.0748Z" fill="#78E7FF"/>
<path d="M44.483 17.5145C45.3959 17.5145 46.2403 17.5145 47.0391 17.5145C46.2175 16.5103 45.3274 15.6659 44.3917 14.9355C43.8211 14.9355 43.2049 14.9355 42.5659 14.9355C43.2277 15.643 43.8668 16.5103 44.483 17.5145Z" fill="#B1FFF8"/>
<path d="M42.4308 14.8216C43.0698 14.8216 43.6632 14.8216 44.2109 14.8216C43.2752 14.1141 42.271 13.5663 41.244 13.2012C40.9473 13.2012 40.6278 13.2012 40.2855 13.2012C41.0386 13.5663 41.7461 14.1141 42.4308 14.8216Z" fill="#006B8F"/>
<path d="M40.1691 13.1097C40.4887 13.1097 40.7853 13.1097 41.082 13.1097C40.055 12.7446 38.9824 12.562 37.8869 12.562C37.8869 12.562 37.8869 12.562 37.8641 12.562C38.64 12.562 39.416 12.7674 40.1691 13.1097Z" fill="#00ABD5"/>
<path d="M37.8192 64.9393C39.1886 64.9393 40.5351 64.7568 41.8359 64.3916C41.6077 64.3916 41.3567 64.3916 41.0828 64.3916C40.0102 64.7339 38.9375 64.9393 37.8192 64.9393Z" fill="#007CAD"/>
<path d="M41.2663 64.323C41.563 64.323 41.8141 64.323 42.0651 64.323C43.3432 63.9579 44.5984 63.4101 45.7852 62.7026C45.3287 62.7026 44.8266 62.7026 44.2789 62.7026C43.3203 63.4101 42.2933 63.935 41.2663 64.323Z" fill="#005F85"/>
<path d="M44.4396 62.5883C44.9874 62.5883 45.5123 62.5883 45.9687 62.5883C47.1327 61.8808 48.251 61.0136 49.3008 60.0322C48.6389 60.0322 47.9314 60.0322 47.1327 60.0322C46.2882 61.0136 45.3982 61.8808 44.4396 62.5883Z" fill="#00517E"/>
<path d="M47.2883 59.8499C48.0871 59.8499 48.8174 59.8499 49.4792 59.8499C50.5062 58.8457 51.4648 57.7046 52.332 56.4722C51.5104 56.4722 50.5975 56.4722 49.5934 56.4722C48.8859 57.7046 48.1099 58.8457 47.2883 59.8499Z" fill="#004867"/>
<path d="M49.7096 56.2439C50.7137 56.2439 51.6266 56.2439 52.4711 56.2439C53.3155 54.9887 54.0914 53.6193 54.7305 52.1587C53.7719 52.1587 52.6993 52.1587 51.5353 52.1587C51.0333 53.6193 50.4171 54.9887 49.7096 56.2439Z" fill="#004F84"/>
<path d="M51.6493 51.8846C52.8133 51.8846 53.8859 51.8846 54.8673 51.8846C55.5063 50.4012 56.054 48.8493 56.4648 47.2061C55.415 47.2061 54.2283 47.2061 52.9502 47.2061C52.6079 48.8493 52.1743 50.424 51.6493 51.8846Z" fill="#0080AE"/>
<path d="M53.0198 46.9324C54.2979 46.9324 55.4847 46.9324 56.5345 46.9324C56.9453 45.2892 57.2192 43.5775 57.3789 41.7974C56.2606 41.7974 55.0282 41.7974 53.7045 41.7974C53.5676 43.5775 53.3394 45.2892 53.0198 46.9324Z" fill="#006B94"/>
<path d="M53.7277 41.4777C55.0743 41.4777 56.3067 41.4777 57.425 41.4777C57.4934 40.5877 57.5391 39.6748 57.5391 38.7391C57.5391 37.849 57.4934 36.9361 57.4478 36.0688C56.3295 36.0688 55.0971 36.0688 53.7506 36.0688C53.7962 36.9361 53.8419 37.849 53.8419 38.7391C53.819 39.6748 53.7734 40.5877 53.7277 41.4777Z" fill="#004461"/>
<path d="M53.7045 35.7722C55.051 35.7722 56.2834 35.7722 57.3789 35.7722C57.2192 33.9921 56.9453 32.2804 56.5345 30.6372C55.4618 30.6372 54.2979 30.6372 53.0198 30.6372C53.3622 32.2804 53.5904 33.9921 53.7045 35.7722Z" fill="#004F79"/>
<path d="M52.9736 30.3407C54.2517 30.3407 55.4156 30.3407 56.4883 30.3407C56.0775 28.6975 55.5297 27.1456 54.8907 25.6621C53.9322 25.6621 52.8367 25.6621 51.6728 25.6621C52.1977 27.1227 52.6313 28.6975 52.9736 30.3407Z" fill="#57D9FF"/>
<path d="M51.5822 25.4107C52.7462 25.4107 53.8188 25.4107 54.7773 25.4107C54.1155 23.9501 53.3624 22.5808 52.5179 21.3027C51.6735 21.3027 50.7606 21.3027 49.7564 21.3027C50.4411 22.558 51.0573 23.9273 51.5822 25.4107Z" fill="#6EECFF"/>
<path d="M49.6168 21.0748C50.621 21.0748 51.5339 21.0748 52.3555 21.0748C51.4882 19.8196 50.5525 18.6785 49.5255 17.6743C48.8637 17.6743 48.1333 17.6743 47.3117 17.6743C48.1562 18.7013 48.9093 19.8424 49.6168 21.0748Z" fill="#ADFFFE"/>
<path d="M47.1756 17.5145C47.9744 17.5145 48.6819 17.5145 49.3438 17.5145C48.3167 16.5103 47.1985 15.6659 46.0345 14.9355C45.5781 14.9355 45.0532 14.9355 44.4826 14.9355C45.4183 15.643 46.3312 16.5103 47.1756 17.5145Z" fill="#41F0FF"/>
<path d="M44.3023 14.8216C44.8501 14.8216 45.3521 14.8216 45.8086 14.8216C44.6218 14.1141 43.3894 13.5663 42.1114 13.2012C41.8603 13.2012 41.5865 13.2012 41.3126 13.2012C42.3396 13.5663 43.3438 14.1141 44.3023 14.8216Z" fill="#008AB1"/>
<path d="M41.1069 13.1097C41.3807 13.1097 41.6318 13.1097 41.8828 13.1097C40.5819 12.7446 39.2582 12.562 37.8661 12.562C37.8661 12.562 37.8661 12.562 37.8433 12.562C38.9844 12.562 40.057 12.7674 41.1069 13.1097Z" fill="#005F85"/>
<path d="M37.8169 64.9393C39.4145 64.9393 40.9664 64.7568 42.4727 64.3916C42.2901 64.3916 42.1075 64.3916 41.8793 64.3916C40.5556 64.7339 39.2091 64.9393 37.8169 64.9393Z" fill="#005F85"/>
<path d="M42.086 64.323C42.3142 64.323 42.5425 64.323 42.725 64.323C44.2085 63.9579 45.6463 63.4101 47.0156 62.7026C46.6733 62.7026 46.2853 62.7026 45.8289 62.7026C44.6649 63.4101 43.4097 63.935 42.086 64.323Z" fill="#008CC4"/>
<path d="M46.0585 62.5883C46.5149 62.5883 46.9257 62.5883 47.268 62.5883C48.6374 61.8808 49.9154 61.0136 51.125 60.0322C50.6457 60.0322 50.0752 60.0322 49.4133 60.0322C48.3635 61.0136 47.2452 61.8808 46.0585 62.5883Z" fill="#004A8A"/>
<path d="M49.5963 59.8499C50.2581 59.8499 50.8287 59.8499 51.3308 59.8499C52.5175 58.8457 53.613 57.7046 54.6172 56.4722C54.001 56.4722 53.2707 56.4722 52.4719 56.4722C51.6046 57.7046 50.6461 58.8457 49.5963 59.8499Z" fill="#00425E"/>
<path d="M52.6292 56.2439C53.4508 56.2439 54.1811 56.2439 54.7973 56.2439C55.7787 54.9887 56.6687 53.6193 57.4219 52.1587C56.6916 52.1587 55.8471 52.1587 54.9114 52.1587C54.2496 53.6193 53.4736 54.9887 52.6292 56.2439Z" fill="#004FA4"/>
<path d="M55.0283 51.8846C55.9868 51.8846 56.8312 51.8846 57.5616 51.8846C58.3147 50.4012 58.9309 48.8493 59.4102 47.2061C58.6114 47.2061 57.6985 47.2061 56.6487 47.2061C56.215 48.8493 55.6901 50.424 55.0283 51.8846Z" fill="#005F91"/>
<path d="M56.7148 46.9324C57.7646 46.9324 58.7003 46.9324 59.4991 46.9324C59.9784 45.2892 60.2979 43.5775 60.4805 41.7974C59.636 41.7974 58.6775 41.7974 57.582 41.7974C57.4223 43.5775 57.1256 45.2892 56.7148 46.9324Z" fill="#00608C"/>
<path d="M57.6046 41.4777C58.7001 41.4777 59.6815 41.4777 60.5031 41.4777C60.5944 40.5877 60.6172 39.6748 60.6172 38.7391C60.6172 37.849 60.5715 36.9361 60.5031 36.0688C59.6587 36.0688 58.7001 36.0688 57.6046 36.0688C57.6731 36.9361 57.6959 37.849 57.6959 38.7391C57.7188 39.6748 57.6731 40.5877 57.6046 41.4777Z" fill="#004D71"/>
<path d="M57.582 35.7722C58.6775 35.7722 59.6589 35.7722 60.4805 35.7722C60.2979 33.9921 59.9784 32.2804 59.4991 30.6372C58.7003 30.6372 57.7646 30.6372 56.7148 30.6372C57.1484 32.2804 57.4223 33.9921 57.582 35.7722Z" fill="#007CC0"/>
<path d="M56.6682 30.3407C57.718 30.3407 58.6537 30.3407 59.4297 30.3407C58.9504 28.6975 58.3342 27.1456 57.5811 25.6621C56.8508 25.6621 56.0063 25.6621 55.0478 25.6621C55.6868 27.1227 56.2346 28.6975 56.6682 30.3407Z" fill="#00C2DF"/>
<path d="M54.9349 25.4107C55.8934 25.4107 56.7378 25.4107 57.4453 25.4107C56.6922 23.9501 55.8021 22.5808 54.8207 21.3027C54.2045 21.3027 53.4742 21.3027 52.6298 21.3027C53.5199 22.558 54.273 23.9273 54.9349 25.4107Z" fill="#51DCFF"/>
<path d="M52.4959 21.0748C53.3175 21.0748 54.025 21.0748 54.6641 21.0748C53.6599 19.8196 52.5644 18.6785 51.3777 17.6743C50.8756 17.6743 50.305 17.6743 49.6432 17.6743C50.6702 18.7013 51.6287 19.8424 52.4959 21.0748Z" fill="#99FFFE"/>
<path d="M49.4602 17.5145C50.0992 17.5145 50.6698 17.5145 51.1719 17.5145C49.9623 16.5103 48.6842 15.6659 47.3377 14.9355C46.9954 14.9355 46.5846 14.9355 46.1281 14.9355C47.2921 15.643 48.4104 16.5103 49.4602 17.5145Z" fill="#00ABD5"/>
<path d="M45.8992 14.8216C46.3556 14.8216 46.7436 14.8216 47.0859 14.8216C45.7166 14.1141 44.2788 13.5663 42.7953 13.2012C42.6128 13.2012 42.4074 13.2012 42.1563 13.2012C43.4572 13.5663 44.7124 14.1141 45.8992 14.8216Z" fill="#005F85"/>
<path d="M41.9262 13.1097C42.1544 13.1097 42.3598 13.1097 42.5195 13.1097C41.0133 12.7446 39.4613 12.562 37.8866 12.562C39.2559 12.562 40.6025 12.7674 41.9262 13.1097Z" fill="#00ABD5"/>
<path d="M37.8208 64.9393C39.5553 64.9393 41.267 64.7568 42.9102 64.3916C42.796 64.3916 42.6591 64.3916 42.4994 64.3916C40.9931 64.7339 39.4183 64.9393 37.8208 64.9393Z" fill="#005F85"/>
<path d="M42.7712 64.323C42.9538 64.323 43.0907 64.323 43.2049 64.323C44.8481 63.9579 46.4228 63.4101 47.9062 62.7026C47.7008 62.7026 47.427 62.7026 47.0846 62.7026C45.7153 63.4101 44.2547 63.935 42.7712 64.323Z" fill="#005F85"/>
<path d="M47.3358 62.5883C47.6781 62.5883 47.952 62.5883 48.1802 62.5883C49.6637 61.8808 51.0787 61.0136 52.4023 60.0322C52.1057 60.0322 51.6949 60.0322 51.2156 60.0322C50.006 61.0136 48.7051 61.8808 47.3358 62.5883Z" fill="#0073A1"/>
<path d="M51.4222 59.8499C51.9014 59.8499 52.3122 59.8499 52.6089 59.8499C53.9098 58.8457 55.1194 57.7046 56.2148 56.4722C55.8269 56.4722 55.3248 56.4722 54.7314 56.4722C53.7272 57.7046 52.6089 58.8457 51.4222 59.8499Z" fill="#00417B"/>
<path d="M54.9111 56.2439C55.5273 56.2439 56.0294 56.2439 56.4174 56.2439C57.49 54.9887 58.4714 53.6193 59.293 52.1587C58.8365 52.1587 58.266 52.1587 57.5585 52.1587C56.7825 53.6193 55.8924 54.9887 54.9111 56.2439Z" fill="#0063B2"/>
<path d="M57.6724 51.8846C58.3799 51.8846 58.9733 51.8846 59.4298 51.8846C60.2514 50.4012 60.936 48.8493 61.4609 47.2061C60.9588 47.2061 60.3198 47.2061 59.5439 47.2061C59.0646 48.8493 58.4256 50.424 57.6724 51.8846Z" fill="#0078BA"/>
<path d="M59.6353 46.9324C60.4112 46.9324 61.0731 46.9324 61.5524 46.9324C62.0773 45.2892 62.4424 43.5775 62.625 41.7974C62.1001 41.7974 61.4382 41.7974 60.6166 41.7974C60.4569 43.5775 60.1145 45.2892 59.6353 46.9324Z" fill="#00405E"/>
<path d="M60.6633 41.4777C61.4849 41.4777 62.1467 41.4777 62.6717 41.4777C62.7629 40.5877 62.8086 39.6748 62.8086 38.7391C62.8086 37.849 62.7629 36.9361 62.6717 36.0688C62.1467 36.0688 61.4849 36.0688 60.6633 36.0688C60.7318 36.9361 60.7774 37.849 60.7774 38.7391C60.7774 39.6748 60.7318 40.5877 60.6633 41.4777Z" fill="#00578C"/>
<path d="M60.6401 35.7722C61.4617 35.7722 62.1235 35.7722 62.6484 35.7722C62.4659 33.9921 62.1007 32.2804 61.5758 30.6372C61.0737 30.6372 60.4347 30.6372 59.6587 30.6372C60.138 32.2804 60.4575 33.9921 60.6401 35.7722Z" fill="#00417B"/>
<path d="M59.5673 30.3407C60.3433 30.3407 60.9823 30.3407 61.4844 30.3407C60.9595 28.6975 60.2748 27.1456 59.4532 25.6621C58.9967 25.6621 58.4262 25.6621 57.6959 25.6621C58.449 27.1227 59.088 28.6975 59.5673 30.3407Z" fill="#11C7F8"/>
<path d="M57.5819 25.4107C58.2894 25.4107 58.8828 25.4107 59.3164 25.4107C58.4948 23.9501 57.5134 22.5808 56.4408 21.3027C56.0528 21.3027 55.5507 21.3027 54.9345 21.3027C55.9387 22.558 56.806 23.9273 57.5819 25.4107Z" fill="#0BB1E3"/>
<path d="M54.7744 21.0748C55.3906 21.0748 55.8927 21.0748 56.2578 21.0748C55.1623 19.8196 53.9528 18.6785 52.6519 17.6743C52.3324 17.6743 51.9444 17.6743 51.4423 17.6743C52.6519 18.7013 53.7702 19.8424 54.7744 21.0748Z" fill="#41F0FF"/>
<path d="M51.239 17.5145C51.7183 17.5145 52.1291 17.5145 52.4258 17.5145C51.1021 16.5103 49.7099 15.6659 48.2265 14.9355C48.0211 14.9355 47.7244 14.9355 47.3821 14.9355C48.7514 15.643 50.0523 16.5103 51.239 17.5145Z" fill="#005F85"/>
<path d="M47.1315 14.8216C47.4739 14.8216 47.7477 14.8216 47.9531 14.8216C46.4469 14.1141 44.8949 13.5663 43.2517 13.2012C43.1376 13.2012 43.0007 13.2012 42.8181 13.2012C44.3244 13.5663 45.7622 14.1141 47.1315 14.8216Z" fill="#004871"/>
<path d="M42.5423 13.1097C42.7021 13.1097 42.8618 13.1097 42.9531 13.1097C41.3327 12.7674 39.6211 12.562 37.8866 12.562C39.4841 12.562 41.0361 12.7674 42.5423 13.1097Z" fill="#005F85"/>
<path d="M37.8191 64.9393C39.6449 64.9393 41.4022 64.7568 43.1367 64.3916C43.1139 64.3916 43.0454 64.3916 42.9313 64.3916C41.2881 64.7339 39.5764 64.9393 37.8191 64.9393Z" fill="#005F85"/>
<path d="M43.2042 64.323C43.3183 64.323 43.3868 64.323 43.4096 64.323C45.1213 63.9579 46.7645 63.4101 48.3164 62.7026C48.2479 62.7026 48.111 62.7026 47.9056 62.7026C46.445 63.4101 44.8474 63.935 43.2042 64.323Z" fill="#0086BD"/>
<path d="M48.204 62.5883C48.4094 62.5883 48.5464 62.5883 48.6148 62.5883C50.1667 61.8808 51.6502 61.0136 53.0195 60.0322C52.9282 60.0322 52.7228 60.0322 52.449 60.0322C51.1253 61.0136 49.7103 61.8808 48.204 62.5883Z" fill="#005F85"/>
<path d="M52.6761 59.8499C52.9728 59.8499 53.1782 59.8499 53.2695 59.8499C54.6388 58.8457 55.894 57.7046 57.0352 56.4722C56.921 56.4722 56.67 56.4722 56.3048 56.4722C55.1866 57.7046 53.977 58.8457 52.6761 59.8499Z" fill="#00417B"/>
<path d="M56.4642 56.2439C56.8293 56.2439 57.0804 56.2439 57.1945 56.2439C58.3128 54.9887 59.317 53.6193 60.207 52.1587C60.0701 52.1587 59.7734 52.1587 59.3398 52.1587C58.5182 53.6193 57.5596 54.9887 56.4642 56.2439Z" fill="#005487"/>
<path d="M59.4986 51.8846C59.9322 51.8846 60.2289 51.8846 60.3658 51.8846C61.2102 50.4012 61.9405 48.8493 62.4883 47.2061C62.3285 47.2061 62.009 47.2061 61.5526 47.2061C61.0048 48.8493 60.3202 50.424 59.4986 51.8846Z" fill="#006BA4"/>
<path d="M61.6452 46.9324C62.1245 46.9324 62.444 46.9324 62.5809 46.9324C63.1287 45.2892 63.4938 43.5775 63.6992 41.7974C63.5395 41.7974 63.1971 41.7974 62.7179 41.7974C62.5353 43.5775 62.1701 45.2892 61.6452 46.9324Z" fill="#005283"/>
<path d="M62.7645 41.4777C63.2666 41.4777 63.6089 41.4777 63.7459 41.4777C63.8372 40.5877 63.8828 39.6748 63.8828 38.7391C63.8828 37.849 63.8372 36.9361 63.7459 36.0688C63.5861 36.0688 63.2438 36.0688 62.7645 36.0688C62.8558 36.9361 62.9015 37.849 62.9015 38.7391C62.9015 39.6748 62.8558 40.5877 62.7645 41.4777Z" fill="#004479"/>
<path d="M62.7413 35.7722C63.2434 35.7722 63.5629 35.7722 63.7227 35.7722C63.5173 33.9921 63.1521 32.2804 62.6044 30.6372C62.4446 30.6372 62.1251 30.6372 61.6458 30.6372C62.1707 32.2804 62.5359 33.9921 62.7413 35.7722Z" fill="#0364A5"/>
<path d="M61.576 30.3407C62.0553 30.3407 62.3748 30.3407 62.5117 30.3407C61.964 28.6975 61.2565 27.1456 60.3892 25.6621C60.2523 25.6621 59.9556 25.6621 59.522 25.6621C60.3664 27.1227 61.0511 28.6975 61.576 30.3407Z" fill="#005C84"/>
<path d="M59.3867 25.4107C59.8203 25.4107 60.117 25.4107 60.2539 25.4107C59.3867 23.9501 58.3825 22.5808 57.2642 21.3027C57.1501 21.3027 56.899 21.3027 56.511 21.3027C57.6065 22.558 58.5651 23.9273 59.3867 25.4107Z" fill="#005C84"/>
<path d="M56.3283 21.0748C56.6934 21.0748 56.9445 21.0748 57.0586 21.0748C55.9175 19.8196 54.6623 18.6785 53.3157 17.6743C53.2244 17.6743 53.019 17.6743 52.7224 17.6743C54.0232 18.7013 55.2328 19.8424 56.3283 21.0748Z" fill="#0086BD"/>
<path d="M52.4926 17.5145C52.7892 17.5145 52.9718 17.5145 53.0859 17.5145C51.7166 16.5103 50.256 15.6659 48.7041 14.9355C48.6356 14.9355 48.4987 14.9355 48.2933 14.9355C49.7539 15.643 51.1689 16.5103 52.4926 17.5145Z" fill="#006C96"/>
<path d="M47.9994 14.8216C48.2048 14.8216 48.3417 14.8216 48.4102 14.8216C46.8582 14.1141 45.215 13.5663 43.5034 13.2012C43.4577 13.2012 43.3893 13.2012 43.2751 13.2012C44.9183 13.5663 46.4931 14.1141 47.9994 14.8216Z" fill="#007EA7"/>
<path d="M42.9782 13.1097C43.0923 13.1097 43.1608 13.1097 43.1836 13.1097C41.4719 12.7674 39.7146 12.562 37.8888 12.562C39.6461 12.562 41.335 12.7674 42.9782 13.1097Z" fill="#005F85"/>
<path d="M37.8191 64.9393C39.2569 64.9393 40.6719 64.8252 42.0412 64.597C42.4064 64.5285 42.7716 64.4601 43.1367 64.3916C43.1367 64.3916 43.1367 64.3916 43.1139 64.3916C41.425 64.7339 39.6449 64.9393 37.8191 64.9393Z" fill="#005F85"/>
<path d="M43.4343 64.323C43.4571 64.323 43.4571 64.323 43.4343 64.323C44.3472 64.1176 45.2144 63.8894 46.0817 63.5927C46.8576 63.3417 47.6336 63.045 48.3867 62.7026C48.3867 62.7026 48.3867 62.7026 48.3639 62.7026C46.7892 63.4101 45.146 63.935 43.4343 64.323Z" fill="#005F85"/>
<path d="M48.6356 62.5883C48.6584 62.5883 48.6584 62.5883 48.6584 62.5883C49.0464 62.4057 49.4572 62.2232 49.8452 62.0178C50.9635 61.4244 52.0589 60.7625 53.0859 60.0322C53.0859 60.0322 53.0631 60.0322 53.0403 60.0322C51.6481 61.0136 50.1875 61.8808 48.6356 62.5883Z" fill="#005F85"/>
<path d="M53.2713 59.8499C53.2941 59.8499 53.317 59.8499 53.317 59.8499C54.3896 59.0739 55.3938 58.2067 56.3295 57.2709C56.5806 57.0199 56.8544 56.746 57.1055 56.4722C57.1055 56.4722 57.0826 56.4722 57.0598 56.4722C55.8959 57.7046 54.6407 58.8457 53.2713 59.8499Z" fill="#005F85"/>
<path d="M57.2393 56.2439C57.2849 56.2439 57.3078 56.2439 57.3078 56.2439C57.8783 55.6049 58.4489 54.9202 58.951 54.2127C59.4302 53.5509 59.8867 52.8662 60.3203 52.1587C60.3203 52.1587 60.2975 52.1587 60.2518 52.1587C59.3618 53.6193 58.3576 54.9887 57.2393 56.2439Z" fill="#0091B9"/>
<path d="M60.3917 51.8846C60.4374 51.8846 60.4602 51.8846 60.4602 51.8846C60.6656 51.5195 60.871 51.1543 61.0764 50.7663C61.6698 49.6252 62.1718 48.4385 62.6055 47.2061C62.6055 47.2061 62.5826 47.2061 62.537 47.2061C61.9664 48.8493 61.259 50.424 60.3917 51.8846Z" fill="#005F85"/>
<path d="M62.6257 46.9325C62.6714 46.9325 62.6942 46.9325 62.6942 46.9325C63.105 45.6545 63.4245 44.3536 63.6527 43.0071C63.7212 42.6191 63.7669 42.2083 63.8125 41.8203C63.8125 41.8203 63.7897 41.8203 63.744 41.8203C63.5386 43.5776 63.1507 45.2893 62.6257 46.9325Z" fill="#005F85"/>
<path d="M63.7673 41.4777C63.8129 41.4777 63.8357 41.4777 63.8357 41.4777C63.927 40.5877 63.9727 39.6748 63.9727 38.7391C63.9727 37.849 63.927 36.9361 63.8357 36.0688C63.8357 36.0688 63.8129 36.0688 63.7673 36.0688C63.8585 36.9361 63.9042 37.849 63.9042 38.7391C63.927 39.6748 63.8585 40.5877 63.7673 41.4777Z" fill="#005F85"/>
<path d="M63.744 35.7721C63.7897 35.7721 63.8125 35.7721 63.8125 35.7721C63.7669 35.3385 63.7212 34.9277 63.6527 34.494C63.4473 33.1704 63.1278 31.8695 62.717 30.6143C62.717 30.6143 62.6942 30.6143 62.6486 30.6143C63.1735 32.2803 63.5386 33.992 63.744 35.7721Z" fill="#005F85"/>
<path d="M62.537 30.3407C62.5826 30.3407 62.6055 30.3407 62.6055 30.3407C62.1718 29.0855 61.6698 27.8759 61.0536 26.7119C60.871 26.3468 60.6656 26.0044 60.483 25.6621C60.483 25.6621 60.4602 25.6621 60.4145 25.6621C61.2818 27.1227 61.9893 28.6975 62.537 30.3407Z" fill="#005F85"/>
<path d="M60.2753 25.4107C60.3209 25.4107 60.3438 25.4107 60.3438 25.4107C59.9101 24.6804 59.4537 23.9729 58.9516 23.2883C58.4495 22.6036 57.9018 21.9418 57.354 21.3027C57.354 21.3027 57.3312 21.3027 57.2856 21.3027C58.4039 22.558 59.408 23.9273 60.2753 25.4107Z" fill="#005F85"/>
<path d="M57.0794 21.0748C57.125 21.0748 57.125 21.0748 57.125 21.0748L56.3034 20.2304C55.3905 19.3175 54.3863 18.4503 53.3593 17.6743H53.3137C54.683 18.7013 55.9382 19.8424 57.0794 21.0748Z" fill="#0081B5"/>
<path d="M53.0872 17.5145C53.11 17.5145 53.1328 17.5145 53.1328 17.5145C52.083 16.7613 50.9875 16.0767 49.8464 15.4833C49.4812 15.3007 49.0933 15.1181 48.7281 14.9355H48.7053C50.2344 15.643 51.7178 16.5103 53.0872 17.5145Z" fill="#005F85"/>
<path d="M48.4069 14.8216C48.4297 14.8216 48.4297 14.8216 48.4297 14.8216C47.6537 14.4792 46.8778 14.1825 46.079 13.9087C45.2346 13.6348 44.3901 13.3838 43.5229 13.2012C43.5229 13.2012 43.5229 13.2012 43.5001 13.2012C45.2117 13.5663 46.8549 14.1141 48.4069 14.8216Z" fill="#005F85"/>
<path d="M43.2031 13.1097C42.838 13.0185 42.45 12.95 42.062 12.9043C40.7155 12.6761 39.3233 12.562 37.9084 12.562C39.7113 12.562 41.4915 12.7674 43.2031 13.1097Z" fill="#005F85"/>
<path fill-rule="evenodd" clip-rule="evenodd" d="M13.1023 39.0022C13.1023 52.7702 24.2581 63.9178 38 63.9205C51.7419 63.9233 62.8977 52.7801 62.8977 39.0122C62.8977 25.2442 51.7419 14.0966 38 14.0939C24.2581 14.0911 13.1023 25.2343 13.1023 39.0022ZM38 75.0072C18.109 75.0032 2 58.8736 2 39C2 19.1264 18.109 3.00322 38 3.00719C57.8909 3.01117 74 19.1408 74 39.0144C74 58.8879 57.8909 75.0112 38 75.0072Z" fill="black"/>
<defs>
<radialGradient id="paint0_radial_1161:909" cx="0" cy="0" r="1" gradientUnits="userSpaceOnUse" gradientTransform="translate(30.6185 49.2725) rotate(180) scale(26.189 26.1843)">
<stop stop-color="white"/>
<stop offset="0.1058" stop-color="#F8FBFD"/>
<stop offset="0.2559" stop-color="#E6F0F9"/>
<stop offset="0.4324" stop-color="#C7DEF2"/>
<stop offset="0.6292" stop-color="#9DC5E9"/>
<stop offset="0.84" stop-color="#67A6DC"/>
<stop offset="1" stop-color="#398BD2"/>
</radialGradient>
</defs>
</svg>
