<svg width="73" height="88" viewBox="0 0 73 88" fill="none" xmlns="http://www.w3.org/2000/svg">
<path fill-rule="evenodd" clip-rule="evenodd" d="M56.8765 28.4918C63.0387 34.0689 66.9109 42.1371 66.9109 51.112C66.9109 67.9473 53.2858 81.5978 36.4785 81.6012C19.6711 81.6045 6.04604 67.9595 6.04604 51.1242C6.04604 42.2889 9.79863 34.3309 15.7944 28.7622L36.4707 8.08594L56.8765 28.4918Z" fill="#8CC853"/>
<path d="M56.8765 28.4918L53.1523 32.6067L53.0498 32.514L52.9521 32.4162L56.8765 28.4918ZM66.9109 51.112H61.3609H66.9109ZM36.4785 81.6012L36.4774 76.0511L36.4785 81.6012ZM15.7944 28.7622L19.7188 32.6867L19.6464 32.7591L19.5713 32.8288L15.7944 28.7622ZM36.4707 8.08594L32.5462 4.16149L36.4707 0.237052L40.3951 4.16149L36.4707 8.08594ZM60.6008 24.3769C67.8778 30.963 72.4609 40.506 72.4609 51.112H61.3609C61.3609 43.7683 58.1996 37.1748 53.1523 32.6067L60.6008 24.3769ZM72.4609 51.112C72.4609 71.0034 56.3604 87.1472 36.4796 87.1512L36.4774 76.0511C50.2113 76.0484 61.3609 64.8913 61.3609 51.112H72.4609ZM36.4796 87.1512C16.5979 87.1551 0.49604 71.0164 0.49604 51.1242H11.596C11.596 64.9026 22.7443 76.0539 36.4774 76.0511L36.4796 87.1512ZM0.49604 51.1242C0.49604 40.6837 4.9374 31.2713 12.0175 24.6956L19.5713 32.8288C14.6599 37.3904 11.596 43.8942 11.596 51.1242H0.49604ZM11.87 24.8378L32.5462 4.16149L40.3951 12.0104L19.7188 32.6867L11.87 24.8378ZM40.3951 4.16149L60.801 24.5673L52.9521 32.4162L32.5462 12.0104L40.3951 4.16149Z" fill="black"/>
<rect width="2.13517" height="40.2889" transform="matrix(-1 0 0 1 37.5459 37.8184)" fill="#1C6C0F"/>
<rect width="2.13517" height="9.91221" transform="matrix(-0.5 0.866025 0.866025 0.5 28.9619 47.2725)" fill="#1C6C0F"/>
<rect width="2.13517" height="15" transform="matrix(-0.5 0.866025 0.866025 0.5 24.5557 61.7207)" fill="#1C6C0F"/>
<rect x="44.2637" y="39.7324" width="2.13517" height="10.2225" transform="rotate(60 44.2637 39.7324)" fill="#1C6C0F"/>
<rect x="48.4011" y="54.6582" width="2.13517" height="15" transform="rotate(60 48.4011 54.6582)" fill="#1C6C0F"/>
<path d="M56.8765 28.4918L53.1523 32.6067L53.0498 32.514L52.9521 32.4162L56.8765 28.4918ZM66.9109 51.112H61.3609H66.9109ZM36.4785 81.6012L36.4774 76.0511L36.4785 81.6012ZM15.7944 28.7622L19.7188 32.6867L19.6464 32.7591L19.5713 32.8288L15.7944 28.7622ZM36.4707 8.08594L32.5462 4.16149L36.4707 0.237052L40.3951 4.16149L36.4707 8.08594ZM60.6008 24.3769C67.8778 30.963 72.4609 40.506 72.4609 51.112H61.3609C61.3609 43.7683 58.1996 37.1748 53.1523 32.6067L60.6008 24.3769ZM72.4609 51.112C72.4609 71.0034 56.3604 87.1472 36.4796 87.1512L36.4774 76.0511C50.2113 76.0484 61.3609 64.8913 61.3609 51.112H72.4609ZM36.4796 87.1512C16.5979 87.1551 0.49604 71.0164 0.49604 51.1242H11.596C11.596 64.9026 22.7443 76.0539 36.4774 76.0511L36.4796 87.1512ZM0.49604 51.1242C0.49604 40.6837 4.9374 31.2713 12.0175 24.6956L19.5713 32.8288C14.6599 37.3904 11.596 43.8942 11.596 51.1242H0.49604ZM11.87 24.8378L32.5462 4.16149L40.3951 12.0104L19.7188 32.6867L11.87 24.8378ZM40.3951 4.16149L60.801 24.5673L52.9521 32.4162L32.5462 12.0104L40.3951 4.16149Z" fill="black"/>
</svg>
