<svg width="141" height="141" viewBox="0 0 141 141" fill="none" xmlns="http://www.w3.org/2000/svg">
<mask id="mask0" mask-type="alpha" maskUnits="userSpaceOnUse" x="0" y="0" width="141" height="141">
<rect x="0.394531" y="0.599609" width="140" height="140" fill="#7E2A2A"/>
</mask>
<g mask="url(#mask0)">
<path d="M70.3972 137.1C107.124 137.1 136.896 107.327 136.895 70.5996C136.894 33.8727 107.12 4.09961 70.3926 4.09961C33.6656 4.09961 3.89362 33.8727 3.8949 70.5996C3.89618 107.327 33.6703 137.1 70.3972 137.1Z" fill="#FDFDFD"/>
<ellipse cx="60.2503" cy="18.6051" rx="5.53619" ry="3.1987" transform="rotate(120.988 60.2503 18.6051)" fill="#D1D1D1"/>
<ellipse cx="37.1871" cy="28.8746" rx="5.53619" ry="3.1987" transform="rotate(5.82192 37.1871 28.8746)" fill="#D1D1D1"/>
<path d="M58.5156 17.2661C48.9996 9.71886 37.1865 17.2661 37.1865 26.7822" stroke="#E6E6E6" stroke-width="7" stroke-linecap="round"/>
<path d="M58.3623 12.9865L54.9086 19.0184M50.6044 10.6817L50.123 17.6954M42.8855 12.4031L45.8207 18.7367M36.6983 17.5926L42.3354 21.7861M33.9357 24.1134L40.7882 25.4694" stroke="#D1D1D1"/>
<path fill-rule="evenodd" clip-rule="evenodd" d="M92.0495 133.49L80.1893 129.208C74.4887 127.15 72.2994 120.068 75.3658 114.84C81.5228 104.343 89.7281 87.2395 89.7281 70.6328C89.7281 53.8938 81.3916 36.2997 75.2191 25.5669C72.2055 20.3267 74.4753 13.3081 80.1828 11.3164L91.3011 7.43652C117.754 16.2252 136.834 41.1787 136.835 70.5894C136.836 99.7236 118.115 124.484 92.0495 133.49Z" fill="#001038"/>
</g>
</svg>
