<svg width="133" height="133" viewBox="0 0 133 133" fill="none" xmlns="http://www.w3.org/2000/svg">
<mask id="mask0" mask-type="alpha" maskUnits="userSpaceOnUse" x="0" y="0" width="133" height="133">
<rect width="133" height="133" fill="#C4C4C4"/>
</mask>
<g mask="url(#mask0)">
<g filter="url(#filter0_d)">
<path d="M2 66.5C2 30.8776 30.8965 2 66.5 2C102.104 2 131 30.8776 131 66.5C131 102.122 102.104 131 66.5 131C30.8965 131 2 102.122 2 66.5Z" fill="#2C2C2C"/>
<path d="M5 66.5C5 32.5351 32.5528 5 66.5 5C100.447 5 128 32.5351 128 66.5C128 100.465 100.447 128 66.5 128C32.5528 128 5 100.465 5 66.5Z" stroke="#8DFFF7" stroke-width="6"/>
</g>
</g>
<defs>
<filter id="filter0_d" x="0" y="0" width="133" height="133" filterUnits="userSpaceOnUse" color-interpolation-filters="sRGB">
<feFlood flood-opacity="0" result="BackgroundImageFix"/>
<feColorMatrix in="SourceAlpha" type="matrix" values="0 0 0 0 0 0 0 0 0 0 0 0 0 0 0 0 0 0 127 0"/>
<feOffset/>
<feGaussianBlur stdDeviation="1"/>
<feColorMatrix type="matrix" values="0 0 0 0 0 0 0 0 0 1 0 0 0 0 0.929293 0 0 0 1 0"/>
<feBlend mode="normal" in2="BackgroundImageFix" result="effect1_dropShadow"/>
<feBlend mode="normal" in="SourceGraphic" in2="effect1_dropShadow" result="shape"/>
</filter>
</defs>
</svg>
