<svg width="77" height="77" viewBox="0 0 77 77" fill="none" xmlns="http://www.w3.org/2000/svg">
<path d="M38.4393 8.00684L59.9582 16.9203L68.8717 38.4393L59.9582 59.9582L38.4393 68.8717L16.9203 59.9582L8.00684 38.4393L16.9203 16.9203L38.4393 8.00684Z" fill="#83609E"/>
<path fill-rule="evenodd" clip-rule="evenodd" d="M38.4397 2L64.2065 12.6729L74.8794 38.4397L64.2065 64.2065L38.4397 74.8794L12.6729 64.2065L2 38.4397L12.6729 12.6729L38.4397 2ZM21.1685 21.1685L14.0146 38.4397L21.1685 55.7109L38.4397 62.8648L55.7109 55.7109L62.8648 38.4397L55.7109 21.1685L38.4397 14.0146L21.1685 21.1685Z" fill="black"/>
<path d="M38.4398 20.6162L51.0429 25.8366L56.2633 38.4398L51.0429 51.0429L38.4398 56.2633L25.8366 51.0429L20.6162 38.4398L25.8366 25.8366L38.4398 20.6162Z" fill="#AE84B9"/>
<path d="M38.4399 26.8096L46.6638 30.216L50.0702 38.4399L46.6638 46.6638L38.4399 50.0702L30.216 46.6638L26.8096 38.4399L30.216 30.216L38.4399 26.8096Z" fill="#83609E"/>
<path d="M38.3698 33.8896L41.6178 35.2223L42.9632 38.4397L41.6178 41.6571L38.3698 42.9898L35.1217 41.6571L33.7764 38.4397L35.1217 35.2223L38.3698 33.8896Z" fill="#AE84B9"/>
</svg>
