<svg width="78" height="78" viewBox="0 0 78 78" fill="none" xmlns="http://www.w3.org/2000/svg">
<path d="M7.38671 39.8903C7.38671 22.7695 21.2659 8.88755 38.3867 8.88412C55.5075 8.8807 69.3867 22.7571 69.3867 39.8779C69.3867 56.9988 55.5075 70.8807 38.3867 70.8841C21.2659 70.8875 7.38671 57.0111 7.38671 39.8903Z" fill="url(#paint0_linear)"/>
<path d="M38.8867 64.8906C52.97 64.8906 64.3867 53.4739 64.3867 39.3906C64.3867 25.3074 52.97 13.8906 38.8867 13.8906C24.8035 13.8906 13.3867 25.3074 13.3867 39.3906C13.3867 53.4739 24.8035 64.8906 38.8867 64.8906Z" fill="#026794"/>
<path d="M38.4078 17.9014C24.7715 17.9014 16.7296 26.1616 17.4289 39.9285C18.1282 52.663 26.1701 58.8581 39.1071 59.8906C52.044 58.5139 59.3867 51.2863 59.3867 38.5518C59.0371 25.4732 51.3448 17.5572 38.4078 17.9014Z" fill="#0C7CAA"/>
<path d="M22.409 44.672C26.1755 55.0485 34.6823 58.8864 44.965 54.5518C54.4621 50.5023 56.955 42.6717 54.1674 32.5422C49.5465 23.0781 42.0185 19.487 32.3283 23.0044C22.4728 26.8829 18.5738 34.9227 22.409 44.672Z" fill="#31BED4"/>
<path d="M50.8637 44.2918C54.555 35.9919 51.7042 28.8611 43.1355 25.5601C35.1953 22.5387 29.2477 25.7565 25.1172 33.3512C22.4532 41.5981 24.8648 48.0238 32.6158 51.4709C40.6708 54.7984 47.5712 52.2592 50.8637 44.2918Z" fill="#F7FCFD"/>
<path fill-rule="evenodd" clip-rule="evenodd" d="M64.1482 39.3883C64.1482 25.4389 52.8393 14.1265 38.8867 14.1237C24.9342 14.1209 13.6253 25.4287 13.6253 39.3781C13.6253 53.3275 24.9342 64.6399 38.8867 64.6428C52.8393 64.6456 64.1482 53.3377 64.1482 39.3883ZM38.8867 2.88323C59.0441 2.88731 75.3867 19.2312 75.3867 39.3906C75.3867 59.5501 59.0441 75.8873 38.8867 75.8832C18.7294 75.8791 2.38672 59.5353 2.38672 39.3758C2.38672 19.2164 18.7294 2.87915 38.8867 2.88323Z" fill="black"/>
<defs>
<linearGradient id="paint0_linear" x1="24.9675" y1="13.7923" x2="46.5034" y2="70.8985" gradientUnits="userSpaceOnUse">
<stop stop-color="#8A9BF6"/>
<stop offset="1" stop-color="#7C11FF"/>
</linearGradient>
</defs>
</svg>
