<svg width="134" height="134" viewBox="0 0 134 134" fill="none" xmlns="http://www.w3.org/2000/svg">
<path d="M0.999512 67.4541C0.999512 30.7272 30.792 0.954102 67.4995 0.954102C104.207 0.954102 134 30.7272 134 67.4541C134 104.181 104.207 133.954 67.4995 133.954C30.792 133.954 0.999512 104.181 0.999512 67.4541Z" fill="url(#paint0_radial_1753_273)"/>
<mask id="path-2-outside-1_1753_273" maskUnits="userSpaceOnUse" x="0.0844727" y="65.0068" width="134" height="69" fill="black">
<rect fill="white" x="0.0844727" y="65.0068" width="134" height="69"/>
<path fill-rule="evenodd" clip-rule="evenodd" d="M132.307 76.4131L114.305 66.0672L114.201 66.0068H4.64066L2.08447 67.476C2.08457 67.7773 2.0867 68.0781 2.09085 68.3785L2.50851 68.1385H11.5155L8.9208 69.9788H2.13227C2.14195 70.2338 2.15309 70.4884 2.16568 70.7427H7.8468L5.42636 72.4622H2.27333C2.29256 72.7161 2.31323 72.9695 2.33534 73.2225H4.3492L2.46595 74.5591C2.49828 74.8584 2.53263 75.157 2.56899 75.455L5.71782 73.2189H16.2803V73.2225L13.616 75.6526L2.5921 75.6422C2.62401 75.8976 2.6574 76.1526 2.69225 76.4071L12.7796 76.4164L9.93143 79.0171H3.10358C3.1491 79.2722 3.1961 79.5268 3.24458 79.7809H9.09821L5.87307 82.7261H3.87748C3.93826 82.9802 4.00052 83.2336 4.06425 83.4864H5.03985L4.2503 84.2071C4.32686 84.4968 4.40535 84.7857 4.48576 85.0738L6.22472 83.4864H20.8234L17.3005 87.9167H5.35C5.43405 88.1721 5.51963 88.4267 5.60672 88.6806H16.6922L12.3234 94.1732H7.77454C7.88905 94.4286 8.00515 94.6833 8.12283 94.937H11.7182L9.49842 97.7265C9.63526 97.9881 9.77382 98.2486 9.91409 98.5081L12.7542 94.937H29.8272L26.5862 101.705H11.7608C11.9183 101.961 12.0776 102.215 12.2385 102.469H26.2219L21.4697 112.395H19.9714C20.2141 112.652 20.4588 112.907 20.7056 113.159H21.1054L20.9745 113.433C21.1803 113.641 21.3876 113.848 21.5962 114.053L22.0241 113.159H46.0005L43.9349 126.613H39.5522C40.1034 126.874 40.6589 127.128 41.2184 127.374H43.8176L43.6619 128.389C43.9293 128.493 44.1975 128.596 44.4665 128.698L44.6699 127.374H74.1746L74.9536 132.451C75.2331 132.419 75.512 132.385 75.7904 132.35L75.0268 127.374H93.7817C94.3413 127.128 94.8967 126.874 95.4479 126.613H74.9064L72.844 113.159H96.8203L101.653 123.254C101.888 123.109 102.123 122.963 102.356 122.816L97.7359 113.159H114.294C114.541 112.907 114.786 112.652 115.029 112.395H97.3747L92.6194 102.469H112.078L117.641 109.463C117.819 109.251 117.996 109.038 118.171 108.823L113.117 102.469H122.762C122.923 102.215 123.082 101.961 123.239 101.705H112.512L107.126 94.937H125.159L126.357 96.031C126.479 95.7803 126.6 95.5287 126.719 95.2762L126.347 94.937H126.877C126.995 94.6833 127.111 94.4286 127.226 94.1732H125.511L119.495 88.6806H129.393C129.48 88.4267 129.566 88.1721 129.65 87.9167H118.658L113.805 83.4864H127.586L130.399 85.4822C130.476 85.2129 130.551 84.9429 130.625 84.6722L128.955 83.4864H130.936C131 83.2336 131.062 82.9802 131.123 82.7261H127.877L123.73 79.7809H131.756C131.804 79.528 131.851 79.2746 131.896 79.0206H122.656V79.0171L119.143 76.523L130.944 76.5372L132.187 77.2513C132.229 76.9725 132.269 76.6931 132.307 76.4131ZM119.539 69.9788H109.924L107.332 68.1385H116.339L119.539 69.9788ZM66.8689 79.7809L67.3219 82.7261H51.5225L51.9756 79.7809H66.8689ZM52.0928 79.0171L52.4856 76.4555L66.362 76.4697L66.7549 79.0171H52.0928ZM68.171 82.7261L67.7211 79.7809H80.8435L82.2533 82.7261H68.171ZM82.6176 83.4864L84.7403 87.9167H68.9725L68.2914 83.4864H82.6176ZM50.6703 82.7261H36.5912L38.001 79.7809H51.1234L50.6703 82.7261ZM50.5531 83.4864L49.8719 87.9167H34.1042L36.2237 83.4864H50.5531ZM51.4053 83.4864H67.4392L68.1203 87.9167H50.7273L51.4053 83.4864ZM68.2344 88.6806L69.0771 94.1732H49.7642L50.6069 88.6806H68.2344ZM69.0866 88.6806H85.1014L87.731 94.1732H69.9293L69.0866 88.6806ZM86.0202 88.6806H101.11L105.479 94.1732H88.6497L86.0202 88.6806ZM85.6559 87.9167L83.5332 83.4864H96.9787L100.505 87.9167H85.6559ZM83.1721 82.7261L81.7622 79.7809H94.0355L96.3768 82.7261H83.1721ZM81.3948 79.0171L80.1845 76.4839L91.4218 76.4946L93.4273 79.0171H81.3948ZM80.476 79.0171H67.6039L67.2142 76.4733L79.2658 76.4839L80.476 79.0171ZM67.0938 75.7094L66.7137 73.2225H77.7039L78.8983 75.7201L67.0938 75.7094ZM66.2448 75.7059L52.5997 75.6917L52.9799 73.2225H65.8614L66.2448 75.7059ZM51.7506 75.6952L39.962 75.6846L41.1374 73.2261H52.1276L51.7506 75.6952ZM51.6334 76.4555L51.2406 79.0171H38.3685L39.6009 76.4413L51.6334 76.4555ZM37.4466 79.0171H25.414L27.4701 76.4306L38.679 76.4413L37.4466 79.0171ZM37.0822 79.7809L35.6724 82.7261H22.4677L24.8089 79.7809H37.0822ZM35.3081 83.4864L33.1886 87.9167H18.3396L21.8657 83.4864H35.3081ZM32.8211 88.6806L30.1916 94.1732H13.3593L17.7282 88.6806H32.8211ZM33.7398 88.6806H49.7547L48.912 94.1732H31.1103L33.7398 88.6806ZM48.7948 94.937L47.7556 101.705H27.505L30.746 94.937H48.7948ZM49.647 94.937H69.1943L70.2334 101.705H48.6079L49.647 94.937ZM70.0465 94.937H88.0953L91.3363 101.705H71.0857L70.0465 94.937ZM89.0141 94.937H106.087L111.473 101.705H92.2582L89.0141 94.937ZM106.521 94.1732L102.152 88.6806H118.31L124.326 94.1732H106.521ZM101.544 87.9167L98.021 83.4864H112.62L117.473 87.9167H101.544ZM97.4128 82.7261L95.0715 79.7809H108.558L111.783 82.7261H97.4128ZM94.4664 79.0171L92.461 76.4982L104.975 76.5088L107.722 79.0171H94.4664ZM91.8527 75.7343L89.8568 73.2261H101.376L104.139 75.7485L91.8527 75.7343ZM90.8136 75.7343L79.817 75.7201L78.6226 73.2225H88.8176L90.8136 75.7343ZM78.2583 72.4622L77.4378 70.7427H86.8471L88.2125 72.4622H78.2583ZM77.3396 72.4622H66.5996L66.3367 70.7427H76.519L77.3396 72.4622ZM65.7442 72.4622H53.0971L53.36 70.7427H65.4813L65.7442 72.4622ZM52.2449 72.4622H41.5018L42.3255 70.7427H52.5078L52.2449 72.4622ZM40.5862 72.4622H30.6319L31.9974 70.7427H41.4099L40.5862 72.4622ZM40.2218 73.2225L39.0465 75.681L28.0784 75.6704L30.0237 73.2225H40.2218ZM27.0393 75.6704L14.7977 75.6597L17.4652 73.2261H28.9845L27.0393 75.6704ZM26.4342 76.4306L24.3749 79.0171H11.1163L13.9613 76.4164L26.4342 76.4306ZM23.773 79.7809L21.4317 82.7261H7.06111L10.2831 79.7809H23.773ZM27.1407 102.469H47.6384L46.1145 112.395H22.3885L27.1407 102.469ZM48.4906 102.469H70.3507L71.8745 112.395H46.9668L48.4906 102.469ZM71.2029 102.469H91.7038L96.456 112.395H72.7299L71.2029 102.469ZM112.971 82.7261L109.746 79.7809H122.365L126.512 82.7261H112.971ZM108.91 79.0171L106.163 76.5088L117.771 76.5195L121.288 79.0171H108.91ZM105.33 75.745L102.567 73.2225H113.13L116.7 75.7556L105.33 75.745ZM101.731 72.4622L99.8491 70.7427H109.632L112.056 72.4622H101.731ZM100.543 72.4622H89.2517L87.8862 70.7427H98.661L100.543 72.4622ZM87.2779 69.9788L85.8143 68.1385H95.8097L97.8246 69.9788H87.2779ZM86.2388 69.9788H77.0703L76.1895 68.1385H84.7751L86.2388 69.9788ZM76.1515 69.9788H66.2163L65.9343 68.1385H75.2708L76.1515 69.9788ZM65.364 69.9788H53.4773L53.7592 68.1385H65.0789L65.364 69.9788ZM52.6282 69.9788H42.693L43.5737 68.1385H52.9102L52.6282 69.9788ZM41.7742 69.9788H32.6057L34.0693 68.1385H42.6549L41.7742 69.9788ZM31.5665 69.9788H21.0199L23.0348 68.1385H33.0302L31.5665 69.9788ZM30.9583 70.7427L29.5928 72.4622H18.3016L20.1866 70.7427H30.9583ZM17.1136 72.4622H6.79182L9.21226 70.7427H18.9954L17.1136 72.4622ZM46.8495 113.159H71.9918L74.0574 126.613H44.7871L46.8495 113.159ZM118.066 75.7592L114.492 73.2225H125.181L129.614 75.7698L118.066 75.7592ZM113.418 72.4622L110.998 70.7427H120.866L123.857 72.4622H113.418ZM108.558 69.9788H99.0127L96.9977 68.1385H105.967L108.558 69.9788ZM96.1614 67.3747L95.4992 66.7707H104.037L104.89 67.3747H96.1614ZM94.9733 67.3747H85.206L84.7244 66.7707H94.3112L94.9733 67.3747ZM84.17 67.3747H75.8252L75.5369 66.7707H83.6885L84.17 67.3747ZM74.9033 67.3747H65.8139L65.722 66.7707H74.615L74.9033 67.3747ZM64.9649 67.3747H53.8796L53.9715 66.7707H64.873L64.9649 67.3747ZM53.0274 67.3747H43.938L44.2263 66.7707H53.1161L53.0274 67.3747ZM43.0193 67.3747H34.6744L35.156 66.7707H43.3108L43.0193 67.3747ZM33.6353 67.3747H23.8712L24.5333 66.7707H34.12L33.6353 67.3747ZM22.6831 67.3747H13.9549L14.8072 66.7707H23.3452L22.6831 67.3747ZM21.8467 68.1385L19.8318 69.9788H10.2863L12.881 68.1385H21.8467ZM115.008 67.3747H106.255L105.403 66.7707H113.957L115.008 67.3747ZM4.88778 66.7707H13.4449L12.5927 67.3747H3.83596L4.88778 66.7707Z"/>
</mask>
<path fill-rule="evenodd" clip-rule="evenodd" d="M132.307 76.4131L114.305 66.0672L114.201 66.0068H4.64066L2.08447 67.476C2.08457 67.7773 2.0867 68.0781 2.09085 68.3785L2.50851 68.1385H11.5155L8.9208 69.9788H2.13227C2.14195 70.2338 2.15309 70.4884 2.16568 70.7427H7.8468L5.42636 72.4622H2.27333C2.29256 72.7161 2.31323 72.9695 2.33534 73.2225H4.3492L2.46595 74.5591C2.49828 74.8584 2.53263 75.157 2.56899 75.455L5.71782 73.2189H16.2803V73.2225L13.616 75.6526L2.5921 75.6422C2.62401 75.8976 2.6574 76.1526 2.69225 76.4071L12.7796 76.4164L9.93143 79.0171H3.10358C3.1491 79.2722 3.1961 79.5268 3.24458 79.7809H9.09821L5.87307 82.7261H3.87748C3.93826 82.9802 4.00052 83.2336 4.06425 83.4864H5.03985L4.2503 84.2071C4.32686 84.4968 4.40535 84.7857 4.48576 85.0738L6.22472 83.4864H20.8234L17.3005 87.9167H5.35C5.43405 88.1721 5.51963 88.4267 5.60672 88.6806H16.6922L12.3234 94.1732H7.77454C7.88905 94.4286 8.00515 94.6833 8.12283 94.937H11.7182L9.49842 97.7265C9.63526 97.9881 9.77382 98.2486 9.91409 98.5081L12.7542 94.937H29.8272L26.5862 101.705H11.7608C11.9183 101.961 12.0776 102.215 12.2385 102.469H26.2219L21.4697 112.395H19.9714C20.2141 112.652 20.4588 112.907 20.7056 113.159H21.1054L20.9745 113.433C21.1803 113.641 21.3876 113.848 21.5962 114.053L22.0241 113.159H46.0005L43.9349 126.613H39.5522C40.1034 126.874 40.6589 127.128 41.2184 127.374H43.8176L43.6619 128.389C43.9293 128.493 44.1975 128.596 44.4665 128.698L44.6699 127.374H74.1746L74.9536 132.451C75.2331 132.419 75.512 132.385 75.7904 132.35L75.0268 127.374H93.7817C94.3413 127.128 94.8967 126.874 95.4479 126.613H74.9064L72.844 113.159H96.8203L101.653 123.254C101.888 123.109 102.123 122.963 102.356 122.816L97.7359 113.159H114.294C114.541 112.907 114.786 112.652 115.029 112.395H97.3747L92.6194 102.469H112.078L117.641 109.463C117.819 109.251 117.996 109.038 118.171 108.823L113.117 102.469H122.762C122.923 102.215 123.082 101.961 123.239 101.705H112.512L107.126 94.937H125.159L126.357 96.031C126.479 95.7803 126.6 95.5287 126.719 95.2762L126.347 94.937H126.877C126.995 94.6833 127.111 94.4286 127.226 94.1732H125.511L119.495 88.6806H129.393C129.48 88.4267 129.566 88.1721 129.65 87.9167H118.658L113.805 83.4864H127.586L130.399 85.4822C130.476 85.2129 130.551 84.9429 130.625 84.6722L128.955 83.4864H130.936C131 83.2336 131.062 82.9802 131.123 82.7261H127.877L123.73 79.7809H131.756C131.804 79.528 131.851 79.2746 131.896 79.0206H122.656V79.0171L119.143 76.523L130.944 76.5372L132.187 77.2513C132.229 76.9725 132.269 76.6931 132.307 76.4131ZM119.539 69.9788H109.924L107.332 68.1385H116.339L119.539 69.9788ZM66.8689 79.7809L67.3219 82.7261H51.5225L51.9756 79.7809H66.8689ZM52.0928 79.0171L52.4856 76.4555L66.362 76.4697L66.7549 79.0171H52.0928ZM68.171 82.7261L67.7211 79.7809H80.8435L82.2533 82.7261H68.171ZM82.6176 83.4864L84.7403 87.9167H68.9725L68.2914 83.4864H82.6176ZM50.6703 82.7261H36.5912L38.001 79.7809H51.1234L50.6703 82.7261ZM50.5531 83.4864L49.8719 87.9167H34.1042L36.2237 83.4864H50.5531ZM51.4053 83.4864H67.4392L68.1203 87.9167H50.7273L51.4053 83.4864ZM68.2344 88.6806L69.0771 94.1732H49.7642L50.6069 88.6806H68.2344ZM69.0866 88.6806H85.1014L87.731 94.1732H69.9293L69.0866 88.6806ZM86.0202 88.6806H101.11L105.479 94.1732H88.6497L86.0202 88.6806ZM85.6559 87.9167L83.5332 83.4864H96.9787L100.505 87.9167H85.6559ZM83.1721 82.7261L81.7622 79.7809H94.0355L96.3768 82.7261H83.1721ZM81.3948 79.0171L80.1845 76.4839L91.4218 76.4946L93.4273 79.0171H81.3948ZM80.476 79.0171H67.6039L67.2142 76.4733L79.2658 76.4839L80.476 79.0171ZM67.0938 75.7094L66.7137 73.2225H77.7039L78.8983 75.7201L67.0938 75.7094ZM66.2448 75.7059L52.5997 75.6917L52.9799 73.2225H65.8614L66.2448 75.7059ZM51.7506 75.6952L39.962 75.6846L41.1374 73.2261H52.1276L51.7506 75.6952ZM51.6334 76.4555L51.2406 79.0171H38.3685L39.6009 76.4413L51.6334 76.4555ZM37.4466 79.0171H25.414L27.4701 76.4306L38.679 76.4413L37.4466 79.0171ZM37.0822 79.7809L35.6724 82.7261H22.4677L24.8089 79.7809H37.0822ZM35.3081 83.4864L33.1886 87.9167H18.3396L21.8657 83.4864H35.3081ZM32.8211 88.6806L30.1916 94.1732H13.3593L17.7282 88.6806H32.8211ZM33.7398 88.6806H49.7547L48.912 94.1732H31.1103L33.7398 88.6806ZM48.7948 94.937L47.7556 101.705H27.505L30.746 94.937H48.7948ZM49.647 94.937H69.1943L70.2334 101.705H48.6079L49.647 94.937ZM70.0465 94.937H88.0953L91.3363 101.705H71.0857L70.0465 94.937ZM89.0141 94.937H106.087L111.473 101.705H92.2582L89.0141 94.937ZM106.521 94.1732L102.152 88.6806H118.31L124.326 94.1732H106.521ZM101.544 87.9167L98.021 83.4864H112.62L117.473 87.9167H101.544ZM97.4128 82.7261L95.0715 79.7809H108.558L111.783 82.7261H97.4128ZM94.4664 79.0171L92.461 76.4982L104.975 76.5088L107.722 79.0171H94.4664ZM91.8527 75.7343L89.8568 73.2261H101.376L104.139 75.7485L91.8527 75.7343ZM90.8136 75.7343L79.817 75.7201L78.6226 73.2225H88.8176L90.8136 75.7343ZM78.2583 72.4622L77.4378 70.7427H86.8471L88.2125 72.4622H78.2583ZM77.3396 72.4622H66.5996L66.3367 70.7427H76.519L77.3396 72.4622ZM65.7442 72.4622H53.0971L53.36 70.7427H65.4813L65.7442 72.4622ZM52.2449 72.4622H41.5018L42.3255 70.7427H52.5078L52.2449 72.4622ZM40.5862 72.4622H30.6319L31.9974 70.7427H41.4099L40.5862 72.4622ZM40.2218 73.2225L39.0465 75.681L28.0784 75.6704L30.0237 73.2225H40.2218ZM27.0393 75.6704L14.7977 75.6597L17.4652 73.2261H28.9845L27.0393 75.6704ZM26.4342 76.4306L24.3749 79.0171H11.1163L13.9613 76.4164L26.4342 76.4306ZM23.773 79.7809L21.4317 82.7261H7.06111L10.2831 79.7809H23.773ZM27.1407 102.469H47.6384L46.1145 112.395H22.3885L27.1407 102.469ZM48.4906 102.469H70.3507L71.8745 112.395H46.9668L48.4906 102.469ZM71.2029 102.469H91.7038L96.456 112.395H72.7299L71.2029 102.469ZM112.971 82.7261L109.746 79.7809H122.365L126.512 82.7261H112.971ZM108.91 79.0171L106.163 76.5088L117.771 76.5195L121.288 79.0171H108.91ZM105.33 75.745L102.567 73.2225H113.13L116.7 75.7556L105.33 75.745ZM101.731 72.4622L99.8491 70.7427H109.632L112.056 72.4622H101.731ZM100.543 72.4622H89.2517L87.8862 70.7427H98.661L100.543 72.4622ZM87.2779 69.9788L85.8143 68.1385H95.8097L97.8246 69.9788H87.2779ZM86.2388 69.9788H77.0703L76.1895 68.1385H84.7751L86.2388 69.9788ZM76.1515 69.9788H66.2163L65.9343 68.1385H75.2708L76.1515 69.9788ZM65.364 69.9788H53.4773L53.7592 68.1385H65.0789L65.364 69.9788ZM52.6282 69.9788H42.693L43.5737 68.1385H52.9102L52.6282 69.9788ZM41.7742 69.9788H32.6057L34.0693 68.1385H42.6549L41.7742 69.9788ZM31.5665 69.9788H21.0199L23.0348 68.1385H33.0302L31.5665 69.9788ZM30.9583 70.7427L29.5928 72.4622H18.3016L20.1866 70.7427H30.9583ZM17.1136 72.4622H6.79182L9.21226 70.7427H18.9954L17.1136 72.4622ZM46.8495 113.159H71.9918L74.0574 126.613H44.7871L46.8495 113.159ZM118.066 75.7592L114.492 73.2225H125.181L129.614 75.7698L118.066 75.7592ZM113.418 72.4622L110.998 70.7427H120.866L123.857 72.4622H113.418ZM108.558 69.9788H99.0127L96.9977 68.1385H105.967L108.558 69.9788ZM96.1614 67.3747L95.4992 66.7707H104.037L104.89 67.3747H96.1614ZM94.9733 67.3747H85.206L84.7244 66.7707H94.3112L94.9733 67.3747ZM84.17 67.3747H75.8252L75.5369 66.7707H83.6885L84.17 67.3747ZM74.9033 67.3747H65.8139L65.722 66.7707H74.615L74.9033 67.3747ZM64.9649 67.3747H53.8796L53.9715 66.7707H64.873L64.9649 67.3747ZM53.0274 67.3747H43.938L44.2263 66.7707H53.1161L53.0274 67.3747ZM43.0193 67.3747H34.6744L35.156 66.7707H43.3108L43.0193 67.3747ZM33.6353 67.3747H23.8712L24.5333 66.7707H34.12L33.6353 67.3747ZM22.6831 67.3747H13.9549L14.8072 66.7707H23.3452L22.6831 67.3747ZM21.8467 68.1385L19.8318 69.9788H10.2863L12.881 68.1385H21.8467ZM115.008 67.3747H106.255L105.403 66.7707H113.957L115.008 67.3747ZM4.88778 66.7707H13.4449L12.5927 67.3747H3.83596L4.88778 66.7707Z" fill="url(#paint1_linear_1753_273)"/>
<path fill-rule="evenodd" clip-rule="evenodd" d="M132.307 76.4131L114.305 66.0672L114.201 66.0068H4.64066L2.08447 67.476C2.08457 67.7773 2.0867 68.0781 2.09085 68.3785L2.50851 68.1385H11.5155L8.9208 69.9788H2.13227C2.14195 70.2338 2.15309 70.4884 2.16568 70.7427H7.8468L5.42636 72.4622H2.27333C2.29256 72.7161 2.31323 72.9695 2.33534 73.2225H4.3492L2.46595 74.5591C2.49828 74.8584 2.53263 75.157 2.56899 75.455L5.71782 73.2189H16.2803V73.2225L13.616 75.6526L2.5921 75.6422C2.62401 75.8976 2.6574 76.1526 2.69225 76.4071L12.7796 76.4164L9.93143 79.0171H3.10358C3.1491 79.2722 3.1961 79.5268 3.24458 79.7809H9.09821L5.87307 82.7261H3.87748C3.93826 82.9802 4.00052 83.2336 4.06425 83.4864H5.03985L4.2503 84.2071C4.32686 84.4968 4.40535 84.7857 4.48576 85.0738L6.22472 83.4864H20.8234L17.3005 87.9167H5.35C5.43405 88.1721 5.51963 88.4267 5.60672 88.6806H16.6922L12.3234 94.1732H7.77454C7.88905 94.4286 8.00515 94.6833 8.12283 94.937H11.7182L9.49842 97.7265C9.63526 97.9881 9.77382 98.2486 9.91409 98.5081L12.7542 94.937H29.8272L26.5862 101.705H11.7608C11.9183 101.961 12.0776 102.215 12.2385 102.469H26.2219L21.4697 112.395H19.9714C20.2141 112.652 20.4588 112.907 20.7056 113.159H21.1054L20.9745 113.433C21.1803 113.641 21.3876 113.848 21.5962 114.053L22.0241 113.159H46.0005L43.9349 126.613H39.5522C40.1034 126.874 40.6589 127.128 41.2184 127.374H43.8176L43.6619 128.389C43.9293 128.493 44.1975 128.596 44.4665 128.698L44.6699 127.374H74.1746L74.9536 132.451C75.2331 132.419 75.512 132.385 75.7904 132.35L75.0268 127.374H93.7817C94.3413 127.128 94.8967 126.874 95.4479 126.613H74.9064L72.844 113.159H96.8203L101.653 123.254C101.888 123.109 102.123 122.963 102.356 122.816L97.7359 113.159H114.294C114.541 112.907 114.786 112.652 115.029 112.395H97.3747L92.6194 102.469H112.078L117.641 109.463C117.819 109.251 117.996 109.038 118.171 108.823L113.117 102.469H122.762C122.923 102.215 123.082 101.961 123.239 101.705H112.512L107.126 94.937H125.159L126.357 96.031C126.479 95.7803 126.6 95.5287 126.719 95.2762L126.347 94.937H126.877C126.995 94.6833 127.111 94.4286 127.226 94.1732H125.511L119.495 88.6806H129.393C129.48 88.4267 129.566 88.1721 129.65 87.9167H118.658L113.805 83.4864H127.586L130.399 85.4822C130.476 85.2129 130.551 84.9429 130.625 84.6722L128.955 83.4864H130.936C131 83.2336 131.062 82.9802 131.123 82.7261H127.877L123.73 79.7809H131.756C131.804 79.528 131.851 79.2746 131.896 79.0206H122.656V79.0171L119.143 76.523L130.944 76.5372L132.187 77.2513C132.229 76.9725 132.269 76.6931 132.307 76.4131ZM119.539 69.9788H109.924L107.332 68.1385H116.339L119.539 69.9788ZM66.8689 79.7809L67.3219 82.7261H51.5225L51.9756 79.7809H66.8689ZM52.0928 79.0171L52.4856 76.4555L66.362 76.4697L66.7549 79.0171H52.0928ZM68.171 82.7261L67.7211 79.7809H80.8435L82.2533 82.7261H68.171ZM82.6176 83.4864L84.7403 87.9167H68.9725L68.2914 83.4864H82.6176ZM50.6703 82.7261H36.5912L38.001 79.7809H51.1234L50.6703 82.7261ZM50.5531 83.4864L49.8719 87.9167H34.1042L36.2237 83.4864H50.5531ZM51.4053 83.4864H67.4392L68.1203 87.9167H50.7273L51.4053 83.4864ZM68.2344 88.6806L69.0771 94.1732H49.7642L50.6069 88.6806H68.2344ZM69.0866 88.6806H85.1014L87.731 94.1732H69.9293L69.0866 88.6806ZM86.0202 88.6806H101.11L105.479 94.1732H88.6497L86.0202 88.6806ZM85.6559 87.9167L83.5332 83.4864H96.9787L100.505 87.9167H85.6559ZM83.1721 82.7261L81.7622 79.7809H94.0355L96.3768 82.7261H83.1721ZM81.3948 79.0171L80.1845 76.4839L91.4218 76.4946L93.4273 79.0171H81.3948ZM80.476 79.0171H67.6039L67.2142 76.4733L79.2658 76.4839L80.476 79.0171ZM67.0938 75.7094L66.7137 73.2225H77.7039L78.8983 75.7201L67.0938 75.7094ZM66.2448 75.7059L52.5997 75.6917L52.9799 73.2225H65.8614L66.2448 75.7059ZM51.7506 75.6952L39.962 75.6846L41.1374 73.2261H52.1276L51.7506 75.6952ZM51.6334 76.4555L51.2406 79.0171H38.3685L39.6009 76.4413L51.6334 76.4555ZM37.4466 79.0171H25.414L27.4701 76.4306L38.679 76.4413L37.4466 79.0171ZM37.0822 79.7809L35.6724 82.7261H22.4677L24.8089 79.7809H37.0822ZM35.3081 83.4864L33.1886 87.9167H18.3396L21.8657 83.4864H35.3081ZM32.8211 88.6806L30.1916 94.1732H13.3593L17.7282 88.6806H32.8211ZM33.7398 88.6806H49.7547L48.912 94.1732H31.1103L33.7398 88.6806ZM48.7948 94.937L47.7556 101.705H27.505L30.746 94.937H48.7948ZM49.647 94.937H69.1943L70.2334 101.705H48.6079L49.647 94.937ZM70.0465 94.937H88.0953L91.3363 101.705H71.0857L70.0465 94.937ZM89.0141 94.937H106.087L111.473 101.705H92.2582L89.0141 94.937ZM106.521 94.1732L102.152 88.6806H118.31L124.326 94.1732H106.521ZM101.544 87.9167L98.021 83.4864H112.62L117.473 87.9167H101.544ZM97.4128 82.7261L95.0715 79.7809H108.558L111.783 82.7261H97.4128ZM94.4664 79.0171L92.461 76.4982L104.975 76.5088L107.722 79.0171H94.4664ZM91.8527 75.7343L89.8568 73.2261H101.376L104.139 75.7485L91.8527 75.7343ZM90.8136 75.7343L79.817 75.7201L78.6226 73.2225H88.8176L90.8136 75.7343ZM78.2583 72.4622L77.4378 70.7427H86.8471L88.2125 72.4622H78.2583ZM77.3396 72.4622H66.5996L66.3367 70.7427H76.519L77.3396 72.4622ZM65.7442 72.4622H53.0971L53.36 70.7427H65.4813L65.7442 72.4622ZM52.2449 72.4622H41.5018L42.3255 70.7427H52.5078L52.2449 72.4622ZM40.5862 72.4622H30.6319L31.9974 70.7427H41.4099L40.5862 72.4622ZM40.2218 73.2225L39.0465 75.681L28.0784 75.6704L30.0237 73.2225H40.2218ZM27.0393 75.6704L14.7977 75.6597L17.4652 73.2261H28.9845L27.0393 75.6704ZM26.4342 76.4306L24.3749 79.0171H11.1163L13.9613 76.4164L26.4342 76.4306ZM23.773 79.7809L21.4317 82.7261H7.06111L10.2831 79.7809H23.773ZM27.1407 102.469H47.6384L46.1145 112.395H22.3885L27.1407 102.469ZM48.4906 102.469H70.3507L71.8745 112.395H46.9668L48.4906 102.469ZM71.2029 102.469H91.7038L96.456 112.395H72.7299L71.2029 102.469ZM112.971 82.7261L109.746 79.7809H122.365L126.512 82.7261H112.971ZM108.91 79.0171L106.163 76.5088L117.771 76.5195L121.288 79.0171H108.91ZM105.33 75.745L102.567 73.2225H113.13L116.7 75.7556L105.33 75.745ZM101.731 72.4622L99.8491 70.7427H109.632L112.056 72.4622H101.731ZM100.543 72.4622H89.2517L87.8862 70.7427H98.661L100.543 72.4622ZM87.2779 69.9788L85.8143 68.1385H95.8097L97.8246 69.9788H87.2779ZM86.2388 69.9788H77.0703L76.1895 68.1385H84.7751L86.2388 69.9788ZM76.1515 69.9788H66.2163L65.9343 68.1385H75.2708L76.1515 69.9788ZM65.364 69.9788H53.4773L53.7592 68.1385H65.0789L65.364 69.9788ZM52.6282 69.9788H42.693L43.5737 68.1385H52.9102L52.6282 69.9788ZM41.7742 69.9788H32.6057L34.0693 68.1385H42.6549L41.7742 69.9788ZM31.5665 69.9788H21.0199L23.0348 68.1385H33.0302L31.5665 69.9788ZM30.9583 70.7427L29.5928 72.4622H18.3016L20.1866 70.7427H30.9583ZM17.1136 72.4622H6.79182L9.21226 70.7427H18.9954L17.1136 72.4622ZM46.8495 113.159H71.9918L74.0574 126.613H44.7871L46.8495 113.159ZM118.066 75.7592L114.492 73.2225H125.181L129.614 75.7698L118.066 75.7592ZM113.418 72.4622L110.998 70.7427H120.866L123.857 72.4622H113.418ZM108.558 69.9788H99.0127L96.9977 68.1385H105.967L108.558 69.9788ZM96.1614 67.3747L95.4992 66.7707H104.037L104.89 67.3747H96.1614ZM94.9733 67.3747H85.206L84.7244 66.7707H94.3112L94.9733 67.3747ZM84.17 67.3747H75.8252L75.5369 66.7707H83.6885L84.17 67.3747ZM74.9033 67.3747H65.8139L65.722 66.7707H74.615L74.9033 67.3747ZM64.9649 67.3747H53.8796L53.9715 66.7707H64.873L64.9649 67.3747ZM53.0274 67.3747H43.938L44.2263 66.7707H53.1161L53.0274 67.3747ZM43.0193 67.3747H34.6744L35.156 66.7707H43.3108L43.0193 67.3747ZM33.6353 67.3747H23.8712L24.5333 66.7707H34.12L33.6353 67.3747ZM22.6831 67.3747H13.9549L14.8072 66.7707H23.3452L22.6831 67.3747ZM21.8467 68.1385L19.8318 69.9788H10.2863L12.881 68.1385H21.8467ZM115.008 67.3747H106.255L105.403 66.7707H113.957L115.008 67.3747ZM4.88778 66.7707H13.4449L12.5927 67.3747H3.83596L4.88778 66.7707Z" stroke="url(#paint2_linear_1753_273)" stroke-width="2" mask="url(#path-2-outside-1_1753_273)"/>
<mask id="path-3-outside-2_1753_273" maskUnits="userSpaceOnUse" x="0.143555" y="0.464844" width="133" height="67" fill="black">
<rect fill="white" x="0.143555" y="0.464844" width="133" height="67"/>
<path fill-rule="evenodd" clip-rule="evenodd" d="M131.964 56.2831C131.919 56.0212 131.873 55.7598 131.824 55.499L130.944 55.981L119.142 55.9945L122.656 53.6192H131.448C131.396 53.3763 131.342 53.1338 131.287 52.8918H123.73L127.877 50.0868H130.583C130.516 49.8437 130.448 49.6012 130.379 49.3593H128.954L130.142 48.5562C130.065 48.3005 129.986 48.0455 129.906 47.7911L127.586 49.3593H113.804L118.658 45.14H129.008C128.92 44.8968 128.83 44.6543 128.739 44.4125H119.494L125.51 39.1815H126.503C126.29 38.7372 126.071 38.2958 125.848 37.8572L125.162 38.454H107.126L112.512 32.0083H122.483C122.327 31.7658 122.168 31.5244 122.009 31.2842H113.117L117.816 25.6572C117.643 25.449 117.468 25.2419 117.292 25.0358L112.074 31.2842H92.6158L97.3711 21.8305H114.371C114.133 21.5861 113.893 21.3436 113.652 21.103H97.7386L102.286 12.0511C102.054 11.9046 101.82 11.7596 101.585 11.6161L96.8167 21.103H72.8404L74.906 8.28935H95.4308C94.9062 8.04117 94.3778 7.79977 93.8457 7.56526H75.0232L75.8295 2.56545C75.5522 2.53018 75.2743 2.49664 74.9959 2.46484L74.1741 7.56526H44.6694L44.4522 6.21815C44.1839 6.31922 43.9165 6.42201 43.6499 6.52649L43.8172 7.56526H41.1535C40.6214 7.79977 40.093 8.04117 39.5685 8.28935H43.9313L45.9969 21.103H22.0205L21.7976 20.6592C21.4041 21.0436 21.0153 21.4329 20.6315 21.8271H21.4725L26.2246 31.2808H12.9928C12.8322 31.5222 12.6732 31.7647 12.5158 32.0083H26.5858L29.8268 38.454H12.7538L10.3611 35.5887C10.2218 35.8379 10.0841 36.0881 9.94793 36.3392L11.7178 38.4574H8.84955C8.73036 38.6979 8.6126 38.9393 8.49629 39.1815H12.3229L16.6918 44.4125H6.26011C6.16904 44.6543 6.07936 44.8968 5.99108 45.14H17.3L20.823 49.3593H6.22428L4.94977 48.2513C4.86643 48.523 4.78481 48.7954 4.70492 49.0685L5.03941 49.3593H4.62062C4.55109 49.6012 4.48292 49.8437 4.41612 50.0868H5.86946L9.0946 52.8918H3.712C3.65721 53.1326 3.60375 53.374 3.55162 53.6159H9.93099L12.7791 56.0926L3.06645 56.1012C3.0242 56.3424 2.98328 56.5842 2.94369 56.8263L13.6155 56.8167L16.2799 59.1311H5.71738V59.1345L2.88114 57.2163C2.83726 57.4953 2.79515 57.7748 2.75482 58.0549L4.35193 59.1345H2.60854C2.57779 59.3766 2.54837 59.6191 2.52027 59.862H5.42592L7.84636 61.4996H2.35166C2.32979 61.7417 2.30925 61.9842 2.29003 62.2271H8.92036L11.5151 63.9798H2.50808L2.18435 63.8026C2.169 64.0813 2.1554 64.3604 2.14355 64.64L4.64022 66.0066H114.2L114.305 65.949L131.964 56.2831ZM116.336 63.9798H107.329L109.92 62.2271H119.535L116.336 63.9798ZM51.9751 52.8918L51.5221 50.0868H67.3215L66.8685 52.8918H51.9751ZM66.7512 53.6159L66.3584 56.0419L52.482 56.0554L52.0892 53.6159H66.7512ZM82.2497 50.0868L80.8399 52.8918H67.7175L68.1674 50.0868H82.2497ZM68.2878 49.3593L68.9689 45.14H84.7367L82.614 49.3593H68.2878ZM51.1229 52.8918H38.0005L36.5907 50.0868H50.6699L51.1229 52.8918ZM36.2264 49.3593L34.1069 45.14H49.8747L50.5558 49.3593H36.2264ZM50.7237 45.14H68.1167L67.4356 49.3593H51.4017L50.7237 45.14ZM50.6065 44.4125L49.7638 39.1815H69.0767L68.2339 44.4125H50.6065ZM69.9289 39.1815H87.7306L85.101 44.4125H69.0862L69.9289 39.1815ZM88.6493 39.1815H105.478L101.11 44.4125H86.0198L88.6493 39.1815ZM100.504 45.14L96.9783 49.3593H83.5328L85.6554 45.14H100.504ZM96.3732 50.0868L94.0319 52.8918H81.7586L83.1685 50.0868H96.3732ZM93.4268 53.6159L91.4214 56.0182L80.1841 56.0284L81.3943 53.6159H93.4268ZM79.2653 56.0317L67.2138 56.0419L67.6035 53.6192H80.4755L79.2653 56.0317ZM78.8978 56.7558L77.7034 59.1345H66.7132L67.0934 56.766L78.8978 56.7558ZM65.861 59.1345H52.9794L52.5993 56.7829L66.2443 56.7694L65.861 59.1345ZM52.1304 59.1345H41.1402L39.9648 56.7931L51.7534 56.7829L52.1304 59.1345ZM39.5973 56.069L38.3649 53.6159H51.237L51.6298 56.0554L39.5973 56.069ZM38.6817 56.069L27.4729 56.0791L25.4168 53.6159H37.4493L38.6817 56.069ZM24.8085 52.8918L22.4672 50.0868H35.672L37.0818 52.8918H24.8085ZM21.8621 49.3593L18.336 45.14H33.185L35.3045 49.3593H21.8621ZM17.7309 44.4125L13.3621 39.1815H30.1943L32.8238 44.4125H17.7309ZM31.1099 39.1815H48.9116L49.7543 44.4125H33.7394L31.1099 39.1815ZM30.7456 38.4574L27.5046 32.0117H47.7552L48.7943 38.4574H30.7456ZM48.6074 32.0083H70.233L69.1939 38.454H49.6466L48.6074 32.0083ZM71.0852 32.0083H91.3359L88.0949 38.454H70.0461L71.0852 32.0083ZM92.2546 32.0083H111.469L106.083 38.454H89.0105L92.2546 32.0083ZM124.322 39.1815L118.306 44.4125H102.149L106.518 39.1815H124.322ZM117.473 45.14L112.619 49.3593H98.0206L101.544 45.14H117.473ZM111.783 50.0868L108.558 52.8918H95.0711L97.4123 50.0868H111.783ZM107.725 53.6159L104.978 56.0047L92.4637 56.0148L94.4691 53.6159H107.725ZM104.141 56.7321L101.379 59.1345H89.8595L91.8554 56.7457L104.141 56.7321ZM88.8172 59.1345H78.6222L79.8166 56.7558L90.8131 56.7423L88.8172 59.1345ZM88.2121 59.862L86.8466 61.4996H77.4373L78.2579 59.862H88.2121ZM76.5154 61.4996H66.3331L66.596 59.862H77.3359L76.5154 61.4996ZM65.4808 61.4996H53.3628L53.0998 59.862H65.747L65.4808 61.4996ZM52.5105 61.4996H42.3282L41.5045 59.862H52.2476L52.5105 61.4996ZM41.4094 61.4996H31.9969L30.6315 59.862H40.5857L41.4094 61.4996ZM30.0232 59.1345L28.078 56.8032L39.046 56.7931L40.2214 59.1345H30.0232ZM28.9841 59.1345H17.4648L14.7972 56.8167L27.0388 56.8066L28.9841 59.1345ZM13.964 56.0926L11.119 53.6159H24.3776L26.4369 56.0791L13.964 56.0926ZM10.2826 52.8918L7.06067 50.0868H21.4313L23.7725 52.8918H10.2826ZM22.388 21.8305H46.1141L47.638 31.2842H27.1402L22.388 21.8305ZM46.9663 21.8305H71.8741L70.3502 31.2842H48.4902L46.9663 21.8305ZM72.7263 21.8305H96.4524L91.7002 31.2842H71.1993L72.7263 21.8305ZM126.512 50.0868L122.364 52.8918H109.746L112.971 50.0868H126.512ZM121.29 53.6159L117.774 55.9945L106.166 56.0047L108.913 53.6159H121.29ZM116.697 56.722L113.126 59.1345H102.564L105.326 56.7321L116.697 56.722ZM112.052 59.862L109.629 61.4996H99.8455L101.727 59.862H112.052ZM98.6606 61.4996H87.8858L89.2512 59.862H100.542L98.6606 61.4996ZM95.8093 63.9764H85.8138L87.2775 62.2237H97.8242L95.8093 63.9764ZM84.7715 63.9798H76.1859L77.0666 62.2271H86.2352L84.7715 63.9798ZM75.2703 63.9798H65.9339L66.2158 62.2271H76.1511L75.2703 63.9798ZM65.0817 63.9798H53.7619L53.48 62.2271H65.3668L65.0817 63.9798ZM52.9097 63.9798H43.5733L42.6925 62.2271H52.6278L52.9097 63.9798ZM42.6545 63.9798H34.0689L32.6052 62.2271H41.7738L42.6545 63.9798ZM33.0298 63.9798H23.0343L21.0194 62.2271H31.5661L33.0298 63.9798ZM20.183 61.4996L18.298 59.862H29.5892L30.9546 61.4996H20.183ZM18.995 61.4996H9.21182L6.79138 59.862H17.1131L18.995 61.4996ZM44.7835 8.28935H74.0538L71.9882 21.103H46.846L44.7835 8.28935ZM129.616 56.7118L125.184 59.1379H114.495L118.068 56.722L129.616 56.7118ZM123.857 59.862L120.866 61.4996H110.997L113.418 59.862H123.857ZM105.963 63.9798H96.9941L99.0091 62.2271H108.555L105.963 63.9798ZM104.889 64.7039L104.037 65.2791H95.4988L96.1609 64.7039H104.889ZM94.3107 65.2791H84.724L85.2056 64.7039H94.9729L94.3107 65.2791ZM83.6849 65.2791H75.5333L75.8216 64.7039H84.1664L83.6849 65.2791ZM74.6145 65.2791H65.7216L65.8135 64.7039H74.9028L74.6145 65.2791ZM64.8726 65.2791H53.9711L53.8792 64.7039H64.9644L64.8726 65.2791ZM53.1188 65.2791H44.2291L43.9408 64.7039H53.0301L53.1188 65.2791ZM43.3103 65.2791H35.1556L34.674 64.7039H43.0189L43.3103 65.2791ZM34.1164 65.2791H24.5329L23.8707 64.7039H33.6349L34.1164 65.2791ZM23.3448 65.2791H14.8067L13.9545 64.7039H22.6827L23.3448 65.2791ZM12.8805 63.9798L10.2858 62.2271H19.8314L21.8463 63.9798H12.8805ZM113.956 65.2791H105.402L106.255 64.7039H115.008L113.956 65.2791ZM3.83236 64.7039H12.589L13.4413 65.2791H4.88417L3.83236 64.7039Z"/>
</mask>
<path fill-rule="evenodd" clip-rule="evenodd" d="M131.964 56.2831C131.919 56.0212 131.873 55.7598 131.824 55.499L130.944 55.981L119.142 55.9945L122.656 53.6192H131.448C131.396 53.3763 131.342 53.1338 131.287 52.8918H123.73L127.877 50.0868H130.583C130.516 49.8437 130.448 49.6012 130.379 49.3593H128.954L130.142 48.5562C130.065 48.3005 129.986 48.0455 129.906 47.7911L127.586 49.3593H113.804L118.658 45.14H129.008C128.92 44.8968 128.83 44.6543 128.739 44.4125H119.494L125.51 39.1815H126.503C126.29 38.7372 126.071 38.2958 125.848 37.8572L125.162 38.454H107.126L112.512 32.0083H122.483C122.327 31.7658 122.168 31.5244 122.009 31.2842H113.117L117.816 25.6572C117.643 25.449 117.468 25.2419 117.292 25.0358L112.074 31.2842H92.6158L97.3711 21.8305H114.371C114.133 21.5861 113.893 21.3436 113.652 21.103H97.7386L102.286 12.0511C102.054 11.9046 101.82 11.7596 101.585 11.6161L96.8167 21.103H72.8404L74.906 8.28935H95.4308C94.9062 8.04117 94.3778 7.79977 93.8457 7.56526H75.0232L75.8295 2.56545C75.5522 2.53018 75.2743 2.49664 74.9959 2.46484L74.1741 7.56526H44.6694L44.4522 6.21815C44.1839 6.31922 43.9165 6.42201 43.6499 6.52649L43.8172 7.56526H41.1535C40.6214 7.79977 40.093 8.04117 39.5685 8.28935H43.9313L45.9969 21.103H22.0205L21.7976 20.6592C21.4041 21.0436 21.0153 21.4329 20.6315 21.8271H21.4725L26.2246 31.2808H12.9928C12.8322 31.5222 12.6732 31.7647 12.5158 32.0083H26.5858L29.8268 38.454H12.7538L10.3611 35.5887C10.2218 35.8379 10.0841 36.0881 9.94793 36.3392L11.7178 38.4574H8.84955C8.73036 38.6979 8.6126 38.9393 8.49629 39.1815H12.3229L16.6918 44.4125H6.26011C6.16904 44.6543 6.07936 44.8968 5.99108 45.14H17.3L20.823 49.3593H6.22428L4.94977 48.2513C4.86643 48.523 4.78481 48.7954 4.70492 49.0685L5.03941 49.3593H4.62062C4.55109 49.6012 4.48292 49.8437 4.41612 50.0868H5.86946L9.0946 52.8918H3.712C3.65721 53.1326 3.60375 53.374 3.55162 53.6159H9.93099L12.7791 56.0926L3.06645 56.1012C3.0242 56.3424 2.98328 56.5842 2.94369 56.8263L13.6155 56.8167L16.2799 59.1311H5.71738V59.1345L2.88114 57.2163C2.83726 57.4953 2.79515 57.7748 2.75482 58.0549L4.35193 59.1345H2.60854C2.57779 59.3766 2.54837 59.6191 2.52027 59.862H5.42592L7.84636 61.4996H2.35166C2.32979 61.7417 2.30925 61.9842 2.29003 62.2271H8.92036L11.5151 63.9798H2.50808L2.18435 63.8026C2.169 64.0813 2.1554 64.3604 2.14355 64.64L4.64022 66.0066H114.2L114.305 65.949L131.964 56.2831ZM116.336 63.9798H107.329L109.92 62.2271H119.535L116.336 63.9798ZM51.9751 52.8918L51.5221 50.0868H67.3215L66.8685 52.8918H51.9751ZM66.7512 53.6159L66.3584 56.0419L52.482 56.0554L52.0892 53.6159H66.7512ZM82.2497 50.0868L80.8399 52.8918H67.7175L68.1674 50.0868H82.2497ZM68.2878 49.3593L68.9689 45.14H84.7367L82.614 49.3593H68.2878ZM51.1229 52.8918H38.0005L36.5907 50.0868H50.6699L51.1229 52.8918ZM36.2264 49.3593L34.1069 45.14H49.8747L50.5558 49.3593H36.2264ZM50.7237 45.14H68.1167L67.4356 49.3593H51.4017L50.7237 45.14ZM50.6065 44.4125L49.7638 39.1815H69.0767L68.2339 44.4125H50.6065ZM69.9289 39.1815H87.7306L85.101 44.4125H69.0862L69.9289 39.1815ZM88.6493 39.1815H105.478L101.11 44.4125H86.0198L88.6493 39.1815ZM100.504 45.14L96.9783 49.3593H83.5328L85.6554 45.14H100.504ZM96.3732 50.0868L94.0319 52.8918H81.7586L83.1685 50.0868H96.3732ZM93.4268 53.6159L91.4214 56.0182L80.1841 56.0284L81.3943 53.6159H93.4268ZM79.2653 56.0317L67.2138 56.0419L67.6035 53.6192H80.4755L79.2653 56.0317ZM78.8978 56.7558L77.7034 59.1345H66.7132L67.0934 56.766L78.8978 56.7558ZM65.861 59.1345H52.9794L52.5993 56.7829L66.2443 56.7694L65.861 59.1345ZM52.1304 59.1345H41.1402L39.9648 56.7931L51.7534 56.7829L52.1304 59.1345ZM39.5973 56.069L38.3649 53.6159H51.237L51.6298 56.0554L39.5973 56.069ZM38.6817 56.069L27.4729 56.0791L25.4168 53.6159H37.4493L38.6817 56.069ZM24.8085 52.8918L22.4672 50.0868H35.672L37.0818 52.8918H24.8085ZM21.8621 49.3593L18.336 45.14H33.185L35.3045 49.3593H21.8621ZM17.7309 44.4125L13.3621 39.1815H30.1943L32.8238 44.4125H17.7309ZM31.1099 39.1815H48.9116L49.7543 44.4125H33.7394L31.1099 39.1815ZM30.7456 38.4574L27.5046 32.0117H47.7552L48.7943 38.4574H30.7456ZM48.6074 32.0083H70.233L69.1939 38.454H49.6466L48.6074 32.0083ZM71.0852 32.0083H91.3359L88.0949 38.454H70.0461L71.0852 32.0083ZM92.2546 32.0083H111.469L106.083 38.454H89.0105L92.2546 32.0083ZM124.322 39.1815L118.306 44.4125H102.149L106.518 39.1815H124.322ZM117.473 45.14L112.619 49.3593H98.0206L101.544 45.14H117.473ZM111.783 50.0868L108.558 52.8918H95.0711L97.4123 50.0868H111.783ZM107.725 53.6159L104.978 56.0047L92.4637 56.0148L94.4691 53.6159H107.725ZM104.141 56.7321L101.379 59.1345H89.8595L91.8554 56.7457L104.141 56.7321ZM88.8172 59.1345H78.6222L79.8166 56.7558L90.8131 56.7423L88.8172 59.1345ZM88.2121 59.862L86.8466 61.4996H77.4373L78.2579 59.862H88.2121ZM76.5154 61.4996H66.3331L66.596 59.862H77.3359L76.5154 61.4996ZM65.4808 61.4996H53.3628L53.0998 59.862H65.747L65.4808 61.4996ZM52.5105 61.4996H42.3282L41.5045 59.862H52.2476L52.5105 61.4996ZM41.4094 61.4996H31.9969L30.6315 59.862H40.5857L41.4094 61.4996ZM30.0232 59.1345L28.078 56.8032L39.046 56.7931L40.2214 59.1345H30.0232ZM28.9841 59.1345H17.4648L14.7972 56.8167L27.0388 56.8066L28.9841 59.1345ZM13.964 56.0926L11.119 53.6159H24.3776L26.4369 56.0791L13.964 56.0926ZM10.2826 52.8918L7.06067 50.0868H21.4313L23.7725 52.8918H10.2826ZM22.388 21.8305H46.1141L47.638 31.2842H27.1402L22.388 21.8305ZM46.9663 21.8305H71.8741L70.3502 31.2842H48.4902L46.9663 21.8305ZM72.7263 21.8305H96.4524L91.7002 31.2842H71.1993L72.7263 21.8305ZM126.512 50.0868L122.364 52.8918H109.746L112.971 50.0868H126.512ZM121.29 53.6159L117.774 55.9945L106.166 56.0047L108.913 53.6159H121.29ZM116.697 56.722L113.126 59.1345H102.564L105.326 56.7321L116.697 56.722ZM112.052 59.862L109.629 61.4996H99.8455L101.727 59.862H112.052ZM98.6606 61.4996H87.8858L89.2512 59.862H100.542L98.6606 61.4996ZM95.8093 63.9764H85.8138L87.2775 62.2237H97.8242L95.8093 63.9764ZM84.7715 63.9798H76.1859L77.0666 62.2271H86.2352L84.7715 63.9798ZM75.2703 63.9798H65.9339L66.2158 62.2271H76.1511L75.2703 63.9798ZM65.0817 63.9798H53.7619L53.48 62.2271H65.3668L65.0817 63.9798ZM52.9097 63.9798H43.5733L42.6925 62.2271H52.6278L52.9097 63.9798ZM42.6545 63.9798H34.0689L32.6052 62.2271H41.7738L42.6545 63.9798ZM33.0298 63.9798H23.0343L21.0194 62.2271H31.5661L33.0298 63.9798ZM20.183 61.4996L18.298 59.862H29.5892L30.9546 61.4996H20.183ZM18.995 61.4996H9.21182L6.79138 59.862H17.1131L18.995 61.4996ZM44.7835 8.28935H74.0538L71.9882 21.103H46.846L44.7835 8.28935ZM129.616 56.7118L125.184 59.1379H114.495L118.068 56.722L129.616 56.7118ZM123.857 59.862L120.866 61.4996H110.997L113.418 59.862H123.857ZM105.963 63.9798H96.9941L99.0091 62.2271H108.555L105.963 63.9798ZM104.889 64.7039L104.037 65.2791H95.4988L96.1609 64.7039H104.889ZM94.3107 65.2791H84.724L85.2056 64.7039H94.9729L94.3107 65.2791ZM83.6849 65.2791H75.5333L75.8216 64.7039H84.1664L83.6849 65.2791ZM74.6145 65.2791H65.7216L65.8135 64.7039H74.9028L74.6145 65.2791ZM64.8726 65.2791H53.9711L53.8792 64.7039H64.9644L64.8726 65.2791ZM53.1188 65.2791H44.2291L43.9408 64.7039H53.0301L53.1188 65.2791ZM43.3103 65.2791H35.1556L34.674 64.7039H43.0189L43.3103 65.2791ZM34.1164 65.2791H24.5329L23.8707 64.7039H33.6349L34.1164 65.2791ZM23.3448 65.2791H14.8067L13.9545 64.7039H22.6827L23.3448 65.2791ZM12.8805 63.9798L10.2858 62.2271H19.8314L21.8463 63.9798H12.8805ZM113.956 65.2791H105.402L106.255 64.7039H115.008L113.956 65.2791ZM3.83236 64.7039H12.589L13.4413 65.2791H4.88417L3.83236 64.7039Z" fill="url(#paint3_linear_1753_273)"/>
<path fill-rule="evenodd" clip-rule="evenodd" d="M131.964 56.2831C131.919 56.0212 131.873 55.7598 131.824 55.499L130.944 55.981L119.142 55.9945L122.656 53.6192H131.448C131.396 53.3763 131.342 53.1338 131.287 52.8918H123.73L127.877 50.0868H130.583C130.516 49.8437 130.448 49.6012 130.379 49.3593H128.954L130.142 48.5562C130.065 48.3005 129.986 48.0455 129.906 47.7911L127.586 49.3593H113.804L118.658 45.14H129.008C128.92 44.8968 128.83 44.6543 128.739 44.4125H119.494L125.51 39.1815H126.503C126.29 38.7372 126.071 38.2958 125.848 37.8572L125.162 38.454H107.126L112.512 32.0083H122.483C122.327 31.7658 122.168 31.5244 122.009 31.2842H113.117L117.816 25.6572C117.643 25.449 117.468 25.2419 117.292 25.0358L112.074 31.2842H92.6158L97.3711 21.8305H114.371C114.133 21.5861 113.893 21.3436 113.652 21.103H97.7386L102.286 12.0511C102.054 11.9046 101.82 11.7596 101.585 11.6161L96.8167 21.103H72.8404L74.906 8.28935H95.4308C94.9062 8.04117 94.3778 7.79977 93.8457 7.56526H75.0232L75.8295 2.56545C75.5522 2.53018 75.2743 2.49664 74.9959 2.46484L74.1741 7.56526H44.6694L44.4522 6.21815C44.1839 6.31922 43.9165 6.42201 43.6499 6.52649L43.8172 7.56526H41.1535C40.6214 7.79977 40.093 8.04117 39.5685 8.28935H43.9313L45.9969 21.103H22.0205L21.7976 20.6592C21.4041 21.0436 21.0153 21.4329 20.6315 21.8271H21.4725L26.2246 31.2808H12.9928C12.8322 31.5222 12.6732 31.7647 12.5158 32.0083H26.5858L29.8268 38.454H12.7538L10.3611 35.5887C10.2218 35.8379 10.0841 36.0881 9.94793 36.3392L11.7178 38.4574H8.84955C8.73036 38.6979 8.6126 38.9393 8.49629 39.1815H12.3229L16.6918 44.4125H6.26011C6.16904 44.6543 6.07936 44.8968 5.99108 45.14H17.3L20.823 49.3593H6.22428L4.94977 48.2513C4.86643 48.523 4.78481 48.7954 4.70492 49.0685L5.03941 49.3593H4.62062C4.55109 49.6012 4.48292 49.8437 4.41612 50.0868H5.86946L9.0946 52.8918H3.712C3.65721 53.1326 3.60375 53.374 3.55162 53.6159H9.93099L12.7791 56.0926L3.06645 56.1012C3.0242 56.3424 2.98328 56.5842 2.94369 56.8263L13.6155 56.8167L16.2799 59.1311H5.71738V59.1345L2.88114 57.2163C2.83726 57.4953 2.79515 57.7748 2.75482 58.0549L4.35193 59.1345H2.60854C2.57779 59.3766 2.54837 59.6191 2.52027 59.862H5.42592L7.84636 61.4996H2.35166C2.32979 61.7417 2.30925 61.9842 2.29003 62.2271H8.92036L11.5151 63.9798H2.50808L2.18435 63.8026C2.169 64.0813 2.1554 64.3604 2.14355 64.64L4.64022 66.0066H114.2L114.305 65.949L131.964 56.2831ZM116.336 63.9798H107.329L109.92 62.2271H119.535L116.336 63.9798ZM51.9751 52.8918L51.5221 50.0868H67.3215L66.8685 52.8918H51.9751ZM66.7512 53.6159L66.3584 56.0419L52.482 56.0554L52.0892 53.6159H66.7512ZM82.2497 50.0868L80.8399 52.8918H67.7175L68.1674 50.0868H82.2497ZM68.2878 49.3593L68.9689 45.14H84.7367L82.614 49.3593H68.2878ZM51.1229 52.8918H38.0005L36.5907 50.0868H50.6699L51.1229 52.8918ZM36.2264 49.3593L34.1069 45.14H49.8747L50.5558 49.3593H36.2264ZM50.7237 45.14H68.1167L67.4356 49.3593H51.4017L50.7237 45.14ZM50.6065 44.4125L49.7638 39.1815H69.0767L68.2339 44.4125H50.6065ZM69.9289 39.1815H87.7306L85.101 44.4125H69.0862L69.9289 39.1815ZM88.6493 39.1815H105.478L101.11 44.4125H86.0198L88.6493 39.1815ZM100.504 45.14L96.9783 49.3593H83.5328L85.6554 45.14H100.504ZM96.3732 50.0868L94.0319 52.8918H81.7586L83.1685 50.0868H96.3732ZM93.4268 53.6159L91.4214 56.0182L80.1841 56.0284L81.3943 53.6159H93.4268ZM79.2653 56.0317L67.2138 56.0419L67.6035 53.6192H80.4755L79.2653 56.0317ZM78.8978 56.7558L77.7034 59.1345H66.7132L67.0934 56.766L78.8978 56.7558ZM65.861 59.1345H52.9794L52.5993 56.7829L66.2443 56.7694L65.861 59.1345ZM52.1304 59.1345H41.1402L39.9648 56.7931L51.7534 56.7829L52.1304 59.1345ZM39.5973 56.069L38.3649 53.6159H51.237L51.6298 56.0554L39.5973 56.069ZM38.6817 56.069L27.4729 56.0791L25.4168 53.6159H37.4493L38.6817 56.069ZM24.8085 52.8918L22.4672 50.0868H35.672L37.0818 52.8918H24.8085ZM21.8621 49.3593L18.336 45.14H33.185L35.3045 49.3593H21.8621ZM17.7309 44.4125L13.3621 39.1815H30.1943L32.8238 44.4125H17.7309ZM31.1099 39.1815H48.9116L49.7543 44.4125H33.7394L31.1099 39.1815ZM30.7456 38.4574L27.5046 32.0117H47.7552L48.7943 38.4574H30.7456ZM48.6074 32.0083H70.233L69.1939 38.454H49.6466L48.6074 32.0083ZM71.0852 32.0083H91.3359L88.0949 38.454H70.0461L71.0852 32.0083ZM92.2546 32.0083H111.469L106.083 38.454H89.0105L92.2546 32.0083ZM124.322 39.1815L118.306 44.4125H102.149L106.518 39.1815H124.322ZM117.473 45.14L112.619 49.3593H98.0206L101.544 45.14H117.473ZM111.783 50.0868L108.558 52.8918H95.0711L97.4123 50.0868H111.783ZM107.725 53.6159L104.978 56.0047L92.4637 56.0148L94.4691 53.6159H107.725ZM104.141 56.7321L101.379 59.1345H89.8595L91.8554 56.7457L104.141 56.7321ZM88.8172 59.1345H78.6222L79.8166 56.7558L90.8131 56.7423L88.8172 59.1345ZM88.2121 59.862L86.8466 61.4996H77.4373L78.2579 59.862H88.2121ZM76.5154 61.4996H66.3331L66.596 59.862H77.3359L76.5154 61.4996ZM65.4808 61.4996H53.3628L53.0998 59.862H65.747L65.4808 61.4996ZM52.5105 61.4996H42.3282L41.5045 59.862H52.2476L52.5105 61.4996ZM41.4094 61.4996H31.9969L30.6315 59.862H40.5857L41.4094 61.4996ZM30.0232 59.1345L28.078 56.8032L39.046 56.7931L40.2214 59.1345H30.0232ZM28.9841 59.1345H17.4648L14.7972 56.8167L27.0388 56.8066L28.9841 59.1345ZM13.964 56.0926L11.119 53.6159H24.3776L26.4369 56.0791L13.964 56.0926ZM10.2826 52.8918L7.06067 50.0868H21.4313L23.7725 52.8918H10.2826ZM22.388 21.8305H46.1141L47.638 31.2842H27.1402L22.388 21.8305ZM46.9663 21.8305H71.8741L70.3502 31.2842H48.4902L46.9663 21.8305ZM72.7263 21.8305H96.4524L91.7002 31.2842H71.1993L72.7263 21.8305ZM126.512 50.0868L122.364 52.8918H109.746L112.971 50.0868H126.512ZM121.29 53.6159L117.774 55.9945L106.166 56.0047L108.913 53.6159H121.29ZM116.697 56.722L113.126 59.1345H102.564L105.326 56.7321L116.697 56.722ZM112.052 59.862L109.629 61.4996H99.8455L101.727 59.862H112.052ZM98.6606 61.4996H87.8858L89.2512 59.862H100.542L98.6606 61.4996ZM95.8093 63.9764H85.8138L87.2775 62.2237H97.8242L95.8093 63.9764ZM84.7715 63.9798H76.1859L77.0666 62.2271H86.2352L84.7715 63.9798ZM75.2703 63.9798H65.9339L66.2158 62.2271H76.1511L75.2703 63.9798ZM65.0817 63.9798H53.7619L53.48 62.2271H65.3668L65.0817 63.9798ZM52.9097 63.9798H43.5733L42.6925 62.2271H52.6278L52.9097 63.9798ZM42.6545 63.9798H34.0689L32.6052 62.2271H41.7738L42.6545 63.9798ZM33.0298 63.9798H23.0343L21.0194 62.2271H31.5661L33.0298 63.9798ZM20.183 61.4996L18.298 59.862H29.5892L30.9546 61.4996H20.183ZM18.995 61.4996H9.21182L6.79138 59.862H17.1131L18.995 61.4996ZM44.7835 8.28935H74.0538L71.9882 21.103H46.846L44.7835 8.28935ZM129.616 56.7118L125.184 59.1379H114.495L118.068 56.722L129.616 56.7118ZM123.857 59.862L120.866 61.4996H110.997L113.418 59.862H123.857ZM105.963 63.9798H96.9941L99.0091 62.2271H108.555L105.963 63.9798ZM104.889 64.7039L104.037 65.2791H95.4988L96.1609 64.7039H104.889ZM94.3107 65.2791H84.724L85.2056 64.7039H94.9729L94.3107 65.2791ZM83.6849 65.2791H75.5333L75.8216 64.7039H84.1664L83.6849 65.2791ZM74.6145 65.2791H65.7216L65.8135 64.7039H74.9028L74.6145 65.2791ZM64.8726 65.2791H53.9711L53.8792 64.7039H64.9644L64.8726 65.2791ZM53.1188 65.2791H44.2291L43.9408 64.7039H53.0301L53.1188 65.2791ZM43.3103 65.2791H35.1556L34.674 64.7039H43.0189L43.3103 65.2791ZM34.1164 65.2791H24.5329L23.8707 64.7039H33.6349L34.1164 65.2791ZM23.3448 65.2791H14.8067L13.9545 64.7039H22.6827L23.3448 65.2791ZM12.8805 63.9798L10.2858 62.2271H19.8314L21.8463 63.9798H12.8805ZM113.956 65.2791H105.402L106.255 64.7039H115.008L113.956 65.2791ZM3.83236 64.7039H12.589L13.4413 65.2791H4.88417L3.83236 64.7039Z" stroke="url(#paint4_linear_1753_273)" stroke-width="2" mask="url(#path-3-outside-2_1753_273)"/>
<defs>
<radialGradient id="paint0_radial_1753_273" cx="0" cy="0" r="1" gradientUnits="userSpaceOnUse" gradientTransform="translate(67.4995 67.4537) scale(56.549 84.6546)">
<stop stop-color="#391A6A"/>
<stop offset="0.3401" stop-color="#331763"/>
<stop offset="0.824" stop-color="#230E51"/>
<stop offset="1" stop-color="#1C0A48"/>
</radialGradient>
<linearGradient id="paint1_linear_1753_273" x1="61.1076" y1="132.452" x2="61.1076" y2="66.0079" gradientUnits="userSpaceOnUse">
<stop stop-color="#DC1D80"/>
<stop offset="0.3743" stop-color="#DA1D7F" stop-opacity="0.6257"/>
<stop offset="0.519" stop-color="#D31C7D" stop-opacity="0.481"/>
<stop offset="0.6238" stop-color="#C71C79" stop-opacity="0.3762"/>
<stop offset="0.7095" stop-color="#B61A74" stop-opacity="0.2905"/>
<stop offset="0.7835" stop-color="#9F196D" stop-opacity="0.2165"/>
<stop offset="0.8493" stop-color="#841764" stop-opacity="0.1507"/>
<stop offset="0.9092" stop-color="#63155A" stop-opacity="0.0908"/>
<stop offset="0.9627" stop-color="#3E124F" stop-opacity="0.0373"/>
<stop offset="1" stop-color="#1F1045" stop-opacity="0"/>
</linearGradient>
<linearGradient id="paint2_linear_1753_273" x1="61.1076" y1="132.452" x2="61.1076" y2="66.0079" gradientUnits="userSpaceOnUse">
<stop stop-color="#DC1D80"/>
<stop offset="0.3743" stop-color="#DA1D7F" stop-opacity="0.6257"/>
<stop offset="0.519" stop-color="#D31C7D" stop-opacity="0.481"/>
<stop offset="0.6238" stop-color="#C71C79" stop-opacity="0.3762"/>
<stop offset="0.7095" stop-color="#B61A74" stop-opacity="0.2905"/>
<stop offset="0.7835" stop-color="#9F196D" stop-opacity="0.2165"/>
<stop offset="0.8493" stop-color="#841764" stop-opacity="0.1507"/>
<stop offset="0.9092" stop-color="#63155A" stop-opacity="0.0908"/>
<stop offset="0.9627" stop-color="#3E124F" stop-opacity="0.0373"/>
<stop offset="1" stop-color="#1F1045" stop-opacity="0"/>
</linearGradient>
<linearGradient id="paint3_linear_1753_273" x1="60.9846" y1="2.46484" x2="60.9846" y2="66.0066" gradientUnits="userSpaceOnUse">
<stop stop-color="#DC1D80"/>
<stop offset="0.3957" stop-color="#DA1D7F" stop-opacity="0.6043"/>
<stop offset="0.5383" stop-color="#D31C7D" stop-opacity="0.4617"/>
<stop offset="0.6399" stop-color="#C81C7A" stop-opacity="0.3601"/>
<stop offset="0.7222" stop-color="#B71A74" stop-opacity="0.2778"/>
<stop offset="0.7926" stop-color="#A1196D" stop-opacity="0.2074"/>
<stop offset="0.8549" stop-color="#851765" stop-opacity="0.1451"/>
<stop offset="0.9113" stop-color="#65155B" stop-opacity="0.0887"/>
<stop offset="0.9614" stop-color="#41124F" stop-opacity="0.0386"/>
<stop offset="1" stop-color="#1F1045" stop-opacity="0"/>
</linearGradient>
<linearGradient id="paint4_linear_1753_273" x1="60.9846" y1="2.46484" x2="60.9846" y2="66.0066" gradientUnits="userSpaceOnUse">
<stop stop-color="#DC1D80"/>
<stop offset="0.3957" stop-color="#DA1D7F" stop-opacity="0.6043"/>
<stop offset="0.5383" stop-color="#D31C7D" stop-opacity="0.4617"/>
<stop offset="0.6399" stop-color="#C81C7A" stop-opacity="0.3601"/>
<stop offset="0.7222" stop-color="#B71A74" stop-opacity="0.2778"/>
<stop offset="0.7926" stop-color="#A1196D" stop-opacity="0.2074"/>
<stop offset="0.8549" stop-color="#851765" stop-opacity="0.1451"/>
<stop offset="0.9113" stop-color="#65155B" stop-opacity="0.0887"/>
<stop offset="0.9614" stop-color="#41124F" stop-opacity="0.0386"/>
<stop offset="1" stop-color="#1F1045" stop-opacity="0"/>
</linearGradient>
</defs>
</svg>
