<svg width="78" height="77" viewBox="0 0 78 77" fill="none" xmlns="http://www.w3.org/2000/svg">
<path d="M7.92187 38.9876C7.92187 56.1084 21.801 69.9904 38.9219 69.9938C56.0427 69.9972 69.9219 56.1208 69.9219 39C69.9219 21.8792 56.0427 7.99723 38.9219 7.99381C21.801 7.99038 7.92187 21.8668 7.92187 38.9876Z" fill="#1D93B8"/>
<path fill-rule="evenodd" clip-rule="evenodd" d="M64.6833 38.4977C64.6833 24.5483 53.3744 13.2359 39.4219 13.2331C25.4693 13.2302 14.1604 24.5381 14.1604 38.4875C14.1604 52.4369 25.4693 63.7493 39.4219 63.7521C53.3744 63.755 64.6833 52.4471 64.6833 38.4977ZM39.4219 1.9926C59.5792 1.99669 75.9219 18.3406 75.9219 38.5C75.9219 58.6594 59.5792 74.9967 39.4219 74.9926C19.2645 74.9885 2.92187 58.6447 2.92187 38.4852C2.92187 18.3258 19.2645 1.98852 39.4219 1.9926Z" fill="black"/>
</svg>
