<svg width="151" height="111" viewBox="0 0 151 111" fill="none" xmlns="http://www.w3.org/2000/svg">
<path d="M38.0982 84.7637C33.3026 84.7982 29.0245 86.2128 25.8504 89.9389C23.4353 92.7679 22.1243 95.873 21.6758 99.1161C31.0945 106.499 42.9283 110.881 55.7971 110.881C66.3888 110.881 76.2906 107.914 84.6743 102.739C83.7083 102.394 82.8112 102.049 82.0867 101.807C77.4981 102.808 73.3925 103.946 69.2524 104.602C62.8353 105.602 56.8321 104.153 51.4845 100.393C48.4829 98.2881 46.2059 95.4935 44.2738 92.4229C43.4803 91.1464 43.1008 89.6629 42.5143 88.2828C42.7558 88.6278 42.9973 88.9728 43.2388 89.3178C42.8938 88.2828 42.6178 87.2478 42.2383 86.2473C42.0658 85.7643 41.8243 85.2467 41.4793 84.8672C40.8927 84.2117 39.8922 84.1082 38.8572 84.1772C39.0987 84.3152 39.3057 84.4532 39.5127 84.5912C39.0987 84.6257 38.6157 84.7292 38.0982 84.7637Z" fill="#0F432A"/>
<path d="M44.3071 92.3875C46.2046 95.4581 48.5162 98.2527 51.5177 100.357C56.8654 104.118 62.834 105.567 69.2857 104.566C73.4258 103.911 77.4969 102.807 82.12 101.772L84.7075 102.703C84.8455 102.6 85.018 102.496 85.156 102.427C85.6391 102.117 86.1566 101.806 86.6396 101.461C84.8455 100.081 83.017 98.7012 80.9814 97.6662C77.2899 99.0117 73.7708 100.84 69.8032 101.461C64.4556 102.255 59.4184 101.53 54.4848 99.3222C49.9652 97.3212 46.5841 94.1816 43.8931 90.145C43.6861 89.8345 43.5136 89.5585 43.3065 89.2825C43.065 88.9375 42.8235 88.5925 42.582 88.2474C43.134 89.6275 43.5481 91.111 44.3071 92.3875Z" fill="#00AE70"/>
<path d="M37.6164 26.2158C38.0994 26.2158 38.5824 26.3193 39.0655 26.4573C38.8584 26.5953 38.6169 26.7333 38.3754 26.8713C39.4105 26.9403 40.411 26.8713 40.9975 26.2158C41.3425 25.8362 41.584 25.3187 41.7565 24.8357C42.136 23.8352 42.412 22.7657 42.757 21.7652C42.5155 22.1102 42.274 22.4552 42.0325 22.8002C42.619 21.4201 43.033 19.9366 43.8266 18.6601C45.7586 15.5895 48.0702 12.8294 51.0717 10.7249C56.4539 6.9988 62.4225 5.58426 68.8397 6.61928C72.9798 7.3093 77.0509 8.44783 81.6395 9.48285C82.4675 9.20685 83.468 8.82734 84.5375 8.44783C76.1538 3.30721 66.2866 0.340136 55.7293 0.340136C42.7225 0.340137 30.7508 4.82524 21.332 12.3464C21.815 15.3825 23.0916 18.2806 25.3686 20.9371C28.5427 24.7322 32.8208 26.1468 37.6164 26.2158Z" fill="#0F432A"/>
<path fill-rule="evenodd" clip-rule="evenodd" d="M25.1236 24.7316C28.2976 27.0776 34.4733 28.9062 38.4064 26.8706C38.3963 26.8699 38.3862 26.8692 38.3761 26.8685C38.4313 26.837 38.4847 26.8073 38.5372 26.7781C38.7124 26.6806 38.877 26.589 39.0618 26.457C38.5787 26.3535 38.0957 26.25 37.6127 26.2155C32.8171 26.1465 28.539 24.6975 25.3994 20.9714C23.1569 18.2803 21.8803 15.3823 21.3628 12.3807C21.3283 12.4152 21.2938 12.4411 21.2593 12.467C21.2248 12.4928 21.1903 12.5187 21.1558 12.5532C21.157 12.5612 21.1581 12.5692 21.1592 12.5772C20.377 13.191 19.628 13.8384 18.8789 14.5193C19.7759 18.4869 21.777 22.2475 25.1236 24.7316ZM27.7785 23.7313C29.796 25.1763 32.1241 26.1272 34.5468 26.4142C32.1255 26.1221 29.7976 25.1714 27.7785 23.7313Z" fill="#259F73"/>
<path fill-rule="evenodd" clip-rule="evenodd" d="M21.5008 98.9427C21.5353 98.9772 21.5698 99.0031 21.6043 99.029C21.6388 99.0549 21.6733 99.0807 21.7078 99.1152C22.1564 95.8722 23.4674 92.7671 25.8824 89.938C29.0565 86.2119 33.3346 84.7974 38.1302 84.7629C38.6132 84.7629 39.0963 84.6594 39.5793 84.5559C39.4758 84.4869 39.3636 84.4179 39.2515 84.3489C39.1394 84.2799 39.0273 84.2109 38.9238 84.1419C35.0252 82.0718 28.8496 83.8659 25.641 86.1774C22.0874 88.765 20.0519 92.7671 19.1548 96.9762C19.9138 97.6662 20.7073 98.3217 21.5008 98.9427ZM21.8456 96.8395C21.7112 97.5113 21.5769 98.2158 21.5063 98.8893C21.5752 98.2158 21.6777 97.5113 21.8456 96.8395Z" fill="#259F73"/>
<path d="M51.1017 10.7245C48.1001 12.8291 45.7886 15.5891 43.8565 18.6597C43.063 19.9017 42.649 21.4198 42.0625 22.7998C42.304 22.4548 42.5455 22.1098 42.787 21.7648C42.994 21.4888 43.201 21.1783 43.3735 20.9023C46.0991 16.9002 49.5147 13.7951 54.0343 11.794C59.0024 9.62049 64.0395 8.89597 69.3872 9.75849C73.3548 10.3795 76.8738 12.2426 80.5654 13.6226C82.7045 12.5531 84.602 11.1385 86.4651 9.68949C85.9821 9.37899 85.499 9.06848 85.016 8.75797C84.878 8.65447 84.74 8.58547 84.602 8.48197C83.5325 8.86148 82.532 9.20648 81.704 9.51699C77.1153 8.48197 73.0442 7.34343 68.9041 6.65342C62.4525 5.54939 56.4838 6.96393 51.1017 10.7245Z" fill="#00AE70"/>
<path d="M69.0095 23.2829C67.871 25.422 68.147 27.63 68.492 29.8381C68.63 30.5281 69.044 31.0801 69.527 31.5631C71.3556 33.2882 72.4251 35.4617 73.1496 37.8423C73.1841 37.9803 73.2186 38.1528 73.2531 38.2908C73.3911 38.6358 73.4601 38.9808 73.4946 39.3258C73.5291 39.8778 73.8051 40.3263 73.9431 40.8438C74.0121 41.0853 74.0121 41.3269 74.0466 41.5684C74.1156 43.3969 75.0127 44.5009 76.1857 45.3635C76.0132 45.6395 76.0822 45.5705 75.9097 45.8465C69.665 43.4314 63.2824 41.3614 57.0722 38.8773C56.1752 38.4978 55.1747 38.3598 54.2087 38.2218C53.5876 38.2908 52.9666 38.2908 52.3111 38.2908C48.654 38.3253 45.1004 38.7048 41.9264 40.8438C39.7528 42.2929 38.5453 44.2594 38.6143 46.8815C38.6488 47.7095 38.5108 48.434 38.2003 49.2275C37.5103 50.9181 37.9933 51.8496 39.7528 52.2981C40.3738 52.4706 40.9948 52.6086 41.3743 53.1606C42.1334 54.2992 43.3064 54.9547 44.3759 55.7137C43.5134 56.3002 42.6854 56.8867 42.0644 57.7492C41.6849 58.3013 41.0638 58.4393 40.4428 58.6118C38.7178 59.0603 38.2003 59.9918 38.8903 61.6823C39.2008 62.4414 39.3388 63.2004 39.3043 64.0284C39.2353 66.6505 40.4083 68.617 42.5819 70.1005C45.7215 72.2396 49.275 72.6536 52.9321 72.7226C53.5531 72.7226 54.1742 72.7571 54.8297 72.8261C55.7957 72.7226 56.7962 72.5501 57.6932 72.2051C63.6619 69.859 69.7685 67.8925 75.7717 65.6499C76.0132 66.0294 75.9787 65.9604 76.2202 66.3399C75.3577 67.1335 74.7366 68.134 74.6676 69.6175C74.6331 69.859 74.5986 70.1005 74.5641 70.342C74.4261 70.8596 74.1501 71.3081 74.0811 71.8601C74.0466 72.2051 73.9776 72.5846 73.8396 72.8951C73.8051 73.0331 73.7706 73.1711 73.7361 73.3436C72.9771 75.6897 71.9076 77.8632 70.079 79.5883C69.5615 80.0713 69.182 80.6233 69.044 81.3133C68.699 83.5559 68.3885 85.7294 69.527 87.8685C71.5971 91.8706 76.0477 93.6646 80.3603 92.0431C86.5014 89.766 92.8496 88.179 99.1287 86.1434C99.5772 86.5574 99.1632 87.282 99.6807 87.765C100.474 88.1445 100.888 87.5235 101.164 86.9024C101.578 85.9709 102.337 85.5569 103.269 85.3499C111.549 83.5904 119.829 82.1068 128.282 81.6238C131.111 81.4513 133.906 81.0718 136.735 80.9338C137.011 80.8648 137.252 80.8303 137.735 80.6923C140.668 80.0023 144.877 74.6201 146.567 72.3086C149.12 68.7895 150.086 64.7874 150.431 60.4748C150.845 54.8167 149.879 49.0205 147.671 43.8109C145.946 39.7743 141.944 32.0461 137.218 30.9076C136.735 30.8041 136.493 30.7351 136.217 30.6661C133.388 30.5281 130.593 30.1141 127.764 29.9416C119.312 29.3896 111.032 27.837 102.751 26.043C101.785 25.836 101.061 25.422 100.647 24.4905C100.371 23.8694 99.9912 23.2139 99.1632 23.6279C98.6457 24.0764 99.0597 24.801 98.6112 25.215C92.3321 23.1449 85.9839 21.5234 79.8773 19.1773C75.5302 17.5213 71.1141 19.2808 69.0095 23.2829Z" fill="#69BC71"/>
<path d="M94.7117 92.181L90.2956 104.946L80.3594 97.5631L94.7117 92.181Z" fill="#F7F7F7"/>
<path d="M94.7125 92.181L90.2964 104.946L86.7773 95.1481L94.7125 92.181Z" fill="#E5E5E5"/>
<path d="M94.2632 19.1777L89.9161 6.37793L79.9453 13.6921L94.2632 19.1777Z" fill="#F7F7F7"/>
<path d="M94.2672 19.1777L89.9201 6.37793L86.332 16.1417L94.2672 19.1777Z" fill="#E5E5E5"/>
<path d="M107.792 25.2158L105.446 13.1405L94.3711 18.1087L107.792 25.2158Z" fill="#F7F7F7"/>
<path d="M107.79 25.2158L105.444 13.1405L101.27 21.7657L107.79 25.2158Z" fill="#E5E5E5"/>
<path d="M108.136 85.7987L105.79 97.874L94.7148 92.8714L108.136 85.7987Z" fill="#F7F7F7"/>
<path d="M108.134 85.7987L105.788 97.874L101.613 89.2488L108.134 85.7987Z" fill="#E5E5E5"/>
<path d="M80.8453 13.2093C79.1892 12.5193 77.5332 11.8638 75.9116 11.1738C69.1495 8.31021 62.3528 7.9997 55.4872 10.6563C49.4495 12.9678 44.7919 16.7629 42.1008 22.7661C41.6523 23.8701 41.2038 24.9396 40.7208 26.1471C40.2723 26.2506 39.7893 26.3541 39.3063 26.4576C37.0637 26.5956 34.8902 27.2857 32.6131 27.0441C26.4375 26.3541 22.4009 22.9041 19.9858 16.7629C19.7098 16.1074 19.6753 15.3139 18.9508 14.9344C18.9163 14.7964 18.8818 14.6239 18.8473 14.4859C7.60001 24.6291 0.527341 39.2919 0.527342 55.6108C0.527342 72.0677 7.70352 86.8341 19.1233 96.9773C19.1923 96.5978 19.2958 96.2528 19.3993 95.9078C20.0893 95.5283 20.1583 94.7348 20.4343 94.0793C22.8839 87.9726 26.9205 84.5225 33.1306 83.9015C35.3732 83.66 37.5812 84.3845 39.7893 84.5225C40.2723 84.626 40.7208 84.764 41.2038 84.8675C41.6868 86.0751 42.1353 87.1791 42.5838 88.2831C45.2059 94.3208 49.8635 98.1503 55.8667 100.496C62.7323 103.187 69.529 102.911 76.3257 100.117C77.9817 99.4269 79.6377 98.8059 81.2938 98.1158C81.3628 98.0813 121.28 84.212 121.729 84.1085C126.731 83.039 131.768 82.0385 136.771 81.0034C135.736 80.9689 134.667 80.7964 133.632 80.8999C126.904 81.5209 120.176 82.073 113.518 82.901C109.619 83.384 107.583 83.66 99.9932 85.454C97.1641 86.2821 94.4731 87.1101 91.782 87.9036C90.471 88.2831 89.1255 88.5936 87.8489 89.0421C85.3994 89.8701 82.9498 90.6637 80.5693 91.5952C75.7046 93.4582 70.702 91.1812 69.4255 86.2131C69.0115 84.626 69.46 82.832 69.529 81.1069C68.494 80.8999 67.8384 81.6935 67.1139 82.1765C61.9388 85.4195 55.5562 84.764 51.14 80.5549C50.4155 79.8649 49.7945 79.1404 49.5875 78.1399C48.587 76.5873 46.7929 76.1043 44.8264 76.6908C47.414 75.7248 50.1395 75.1383 52.6236 73.9653C52.9686 73.7928 55.3491 72.9647 54.2451 72.3782C54.0726 72.2747 53.8656 72.2747 53.6586 72.2747C52.4166 72.2402 51.1745 72.3092 49.9325 72.1712C47.7935 71.9297 45.6544 71.4122 43.7569 70.3772C41.4108 69.1007 39.5478 66.5476 39.5478 63.7875C39.5478 59.6819 43.2394 58.1639 45.3094 55.1968C44.9644 55.2658 38.8578 51.1257 38.8923 47.2616C38.9268 44.5016 40.7898 41.983 43.1359 40.7065C45.0334 39.6715 47.1725 39.1539 49.3115 38.9469C50.5535 38.8089 51.7956 38.8779 53.0376 38.8779C53.2446 38.8779 53.4516 38.8779 53.6241 38.7744C54.7281 38.1879 52.3476 37.3254 52.0026 37.1874C49.5185 35.9799 46.7929 35.3934 44.2399 34.3928C46.2064 35.0138 47.966 34.5308 49.001 32.9783C49.208 31.9778 49.829 31.2532 50.5535 30.5632C55.0041 26.3886 61.3523 25.8021 66.5274 29.0452C67.2519 29.5282 67.9074 30.3217 68.9425 30.1147C68.908 28.4242 68.4595 26.5956 68.8735 25.0086C70.1845 20.0405 75.1871 17.7634 80.0517 19.6955C82.4323 20.627 84.8819 21.455 87.3314 22.3175C88.6424 22.766 89.9535 23.0765 91.2645 23.4906C93.9556 24.3186 96.6466 25.1466 99.4412 26.0091C107.031 27.8377 109.067 28.1482 112.966 28.6657C119.659 29.5627 126.352 30.1492 133.08 30.8047C134.115 30.9082 135.184 30.7357 136.219 30.7012C131.216 29.6317 126.214 28.5967 121.211 27.4927C120.728 27.3892 80.9143 13.2093 80.8453 13.2093Z" fill="#03674F"/>
<path d="M74.2885 72.4824C72.391 75.9325 69.7689 79.4516 66.1808 81.4181C60.3502 84.6267 53.726 83.5227 49.3789 78.4856C49.7929 79.2446 50.1034 80.1071 50.6899 80.6936C55.6236 85.5927 62.6272 85.9722 68.4924 81.7286C68.8029 81.4871 69.1479 81.2801 69.4929 81.0731C70.2864 80.1071 71.1834 79.2446 71.8389 78.2096C72.7015 76.7605 74.3575 72.7584 74.2885 72.4824Z" fill="#00AE70"/>
<path d="M54.5214 72.6208C50.7263 74.1733 46.8967 75.6914 43.3086 77.1404C44.6886 77.0714 46.3792 77.0024 48.2422 76.8989C48.5872 77.3819 49.0012 77.9339 49.4152 78.486C50.8643 81.246 53.3483 82.5915 56.2119 83.2816C58.7995 83.9026 61.525 83.7646 64.0436 82.9021C66.5276 82.074 68.7702 80.556 70.5297 78.6585C72.4618 76.5884 73.8073 74.0008 74.6698 71.3098C74.9113 70.5853 75.1184 69.8607 75.2909 69.1362C75.3599 68.7567 75.4634 68.4117 75.5324 68.0322C75.5669 67.7562 75.5324 67.3422 75.7739 67.1697C77.5334 65.9967 79.3275 64.7891 81.1215 63.6161C81.087 63.5471 81.0525 63.4436 81.018 63.3746C72.1858 66.4452 63.3536 69.5157 54.5214 72.6208Z" fill="#002E0D"/>
<path d="M53.832 77.1401C58.2136 80.5212 68.4604 76.3466 69.8404 71.5165C68.5984 70.9645 55.1776 75.6566 53.832 77.1401Z" fill="#F7F7F7"/>
<path d="M73.7071 38.7383C71.8441 35.2537 69.222 31.7346 65.6684 29.7336C59.8378 26.4905 53.2136 27.56 48.832 32.5626C49.2805 31.8381 49.5565 30.9411 50.1431 30.3546C55.1112 25.49 62.1148 25.1795 67.9455 29.4231C68.256 29.6646 68.601 29.8716 68.946 30.1131C69.7395 31.0791 70.6366 31.9416 71.2576 33.0111C72.1201 34.4257 73.7761 38.4623 73.7071 38.7383Z" fill="#00AE70"/>
<path d="M53.94 38.4625C50.1449 36.9099 46.3498 35.3229 42.7617 33.8739C44.1418 33.9429 45.8323 34.0464 47.6608 34.1499C48.0403 33.6669 48.4199 33.1148 48.8339 32.5973C50.3174 29.8718 52.8015 28.5262 55.665 27.8707C58.2526 27.2842 60.9782 27.4222 63.4967 28.3192C65.9808 29.1817 68.1888 30.6998 69.9829 32.5973C71.9149 34.7019 73.2259 37.2894 74.0885 39.9805C74.33 40.705 74.537 41.4295 74.675 42.1541C74.744 42.5336 74.8475 42.8786 74.882 43.2581C74.9165 43.5341 74.882 43.9481 75.1235 44.1206C76.883 45.2936 78.6771 46.5012 80.4711 47.7087C80.4366 47.7777 80.4021 47.8812 80.3676 47.9502C71.5699 44.7761 62.7377 41.602 53.94 38.4625Z" fill="#002E0D"/>
<path d="M53.2852 33.9424C57.6668 30.5958 67.9135 34.8394 69.259 39.704C67.9825 40.187 54.6307 35.4259 53.2852 33.9424Z" fill="#F7F7F7"/>
<path d="M89.7148 55.6802C95.166 59.0958 100.376 61.9594 107.345 64.1674C114.797 66.548 121.387 67.997 130.184 68.6525C131.909 68.7905 133.565 68.1005 134.704 66.824C136.601 64.7194 139.189 60.9243 139.189 55.6802L89.7148 55.6802Z" fill="#E5E5E5"/>
<path d="M89.7148 55.6797C95.166 52.2641 100.376 49.6075 107.345 47.365C114.866 44.9844 121.456 43.5009 130.357 42.8799C132.013 42.7764 133.6 43.3629 134.738 44.5704C136.601 46.5025 139.051 50.0561 139.189 55.6797L89.7148 55.6797Z" fill="#F7F7F7"/>
<path d="M130.559 72.8253C134.043 75.5163 142.254 72.2042 143.358 68.3057C142.358 67.8916 131.628 71.6177 130.559 72.8253Z" fill="#002E0D"/>
<path d="M130.113 38.256C133.632 35.5649 141.809 38.9805 142.879 42.8446C141.878 43.2586 131.183 39.4635 130.113 38.256Z" fill="#002E0D"/>
</svg>
