<svg width="134" height="134" viewBox="0 0 134 134" fill="none" xmlns="http://www.w3.org/2000/svg">
<path d="M66.9219 133.637C30.1949 133.637 0.421875 103.844 0.421876 67.1367C0.421876 30.4292 30.1949 0.636719 66.9219 0.636719C103.649 0.63672 133.422 30.4292 133.422 67.1367C133.422 103.844 103.649 133.637 66.9219 133.637Z" fill="#F7F7F7"/>
<path d="M78.712 106.7C74.654 102.249 76.184 95.1593 72.942 90.2963C69.143 84.5953 61.289 84.0853 57.927 78.7263C54.874 73.8553 56.638 68.9973 52.038 64.3003C49.191 61.3923 37.577 67.5403 35.731 69.1933C23.094 80.5073 29.621 80.3383 35.003 89.9513C41.317 101.234 24.197 102.121 19.622 107.328C21.4 109.123 23.294 110.801 25.279 112.371C31.307 112.058 39.322 110.475 41.67 111.15C49.297 113.345 46.192 125.793 54.503 124.666C60.479 123.853 67.418 121.742 73.426 122.715C75.496 123.049 77.311 123.611 78.972 123.807C80.667 123.375 82.328 122.866 83.965 122.299C84.53 121.766 85.088 121.088 85.642 120.192C90.767 111.903 82.627 110.997 78.712 106.7Z" fill="#231D1A"/>
<path d="M78.972 83.6163C78.972 87.2513 84.443 90.4113 86.76 90.4113C89.077 90.4113 88.639 87.4643 88.639 83.8313C88.639 80.1963 86.76 77.2513 84.443 77.2513C82.126 77.2513 78.972 79.9833 78.972 83.6163Z" fill="#231D1A"/>
<path d="M34.339 55.4893C34.339 51.8563 30.143 55.1123 26.114 49.3413C24.788 47.4413 17.888 52.2863 17.888 55.9213C17.888 59.5563 19.767 62.5013 22.084 62.5013C24.402 62.5013 34.339 59.1243 34.339 55.4893Z" fill="#231D1A"/>
<path d="M77.151 15.7243C72.004 22.5483 77.987 32.8263 78.947 40.1523C79.849 47.0523 79.981 54.7853 85.248 60.3023C94.498 69.9953 96.163 60.5073 100.717 54.0583C106.414 46.0333 122.709 67.3143 123.149 57.8923C123.353 53.1933 114.401 45.3903 111.748 41.8983C109.729 39.2423 108.901 34.0913 105.108 33.0973C101.338 32.1093 98.251 36.5773 94.158 35.6953C86.85 34.1193 88.762 23.6013 86.711 18.5913C85.171 14.8273 82.583 12.1953 79.749 13.4563C78.897 13.8353 78.026 14.5653 77.151 15.7243Z" fill="#231D1A"/>
<path d="M71.862 54.1143C74.179 54.1143 73.742 51.1693 73.742 47.5343C73.742 43.9013 71.862 40.9543 69.546 40.9543C67.229 40.9543 64.075 43.6883 64.075 47.3213C64.075 50.9543 69.545 54.1143 71.862 54.1143Z" fill="#231D1A"/>
<path d="M17.888 34.7353C27.138 44.4303 28.663 25.1163 33.217 18.6653C38.914 10.6423 55.209 31.9233 55.649 22.4993C55.853 17.8003 46.901 9.99931 44.248 6.50531C43.903 6.05231 43.711 5.5523 43.598 5.0343C27.395 10.5793 14.227 22.6383 7.20703 38.0953C10.055 36.1613 14.428 31.1103 17.888 34.7353Z" fill="#231D1A"/>
</svg>
