<svg width="149" height="149" viewBox="0 0 149 149" fill="none" xmlns="http://www.w3.org/2000/svg">
<path d="M74.8071 140.773C111.534 140.773 141.309 111 141.312 74.2734C141.314 37.5465 111.543 7.77344 74.8164 7.77344C38.0895 7.77344 8.31432 37.5465 8.31175 74.2734C8.30918 111 38.0802 140.773 74.8071 140.773Z" fill="#F7F7F7"/>
<path fill-rule="evenodd" clip-rule="evenodd" d="M13.4416 74.6376C13.4416 108.324 40.7471 135.627 74.4219 135.63C108.097 135.633 135.402 108.334 135.402 74.6478C135.402 40.9617 108.097 13.6581 74.4219 13.6553C40.7471 13.6525 13.4416 40.9516 13.4416 74.6376ZM74.4219 146.643C34.6537 146.639 2.42187 114.398 2.42187 74.6367C2.42187 34.8759 34.6537 2.63941 74.4219 2.64272C114.19 2.64604 146.422 34.8879 146.422 74.6487C146.422 114.41 114.19 146.646 74.4219 146.643Z" fill="black"/>
</svg>
