<svg width="78" height="78" viewBox="0 0 78 78" fill="none" xmlns="http://www.w3.org/2000/svg">
<path d="M7.1914 39.6243C7.1914 56.7452 21.0706 70.6271 38.1914 70.6305C55.3122 70.6339 69.1914 56.7575 69.1914 39.6367C69.1914 22.5159 55.3122 8.63395 38.1914 8.63052C21.0706 8.6271 7.1914 22.5035 7.1914 39.6243Z" fill="#886D50"/>
<path fill-rule="evenodd" clip-rule="evenodd" d="M63.9528 39.1344C63.9528 25.185 52.644 13.8726 38.6914 13.8698C24.7388 13.8669 13.43 25.1748 13.43 39.1242C13.43 53.0736 24.7388 64.386 38.6914 64.3889C52.644 64.3917 63.9528 53.0838 63.9528 39.1344ZM38.6914 2.62932C58.8487 2.63341 75.1914 18.9773 75.1914 39.1367C75.1914 59.2962 58.8487 75.6334 38.6914 75.6293C18.5341 75.6252 2.1914 59.2814 2.1914 39.1219C2.19141 18.9625 18.5341 2.62524 38.6914 2.62932Z" fill="black"/>
</svg>
