<svg width="78" height="78" viewBox="0 0 78 78" fill="none" xmlns="http://www.w3.org/2000/svg">
<path d="M7.31249 39.2103C7.31249 56.3311 21.1917 70.213 38.3125 70.2165C55.4333 70.2199 69.3125 56.3435 69.3125 39.2227C69.3125 22.1018 55.4333 8.21988 38.3125 8.21646C21.1917 8.21304 7.3125 22.0894 7.31249 39.2103Z" fill="#5A9115"/>
<path d="M27.7706 24.5048C31.4518 35.2747 36.4717 45.3713 42.8301 54.7949C42.1608 46.7176 42.1608 38.6402 43.4994 30.8994C43.8341 28.8801 44.838 26.1876 46.846 25.8511C48.5192 25.8511 49.8579 27.1973 50.8618 28.5435C56.551 35.9478 62.2401 43.0154 67.9292 50.4197C65.9213 47.7272 65.5867 37.294 64.248 33.2553C62.2401 27.5339 59.5629 22.4855 57.5549 16.764C54.543 7.67703 53.8737 6.66736 43.4994 7.00391C38.8143 7.00391 33.7944 7.34047 29.4439 9.35981C14.7191 15.4178 13.7151 37.294 8.69531 50.4197C14.0498 41.3327 19.4043 31.5725 27.7706 24.5048Z" fill="#80AC29"/>
<path fill-rule="evenodd" clip-rule="evenodd" d="M64.0739 38.7204C64.0739 24.771 52.7651 13.4585 38.8125 13.4557C24.8599 13.4529 13.5511 24.7607 13.5511 38.7101C13.5511 52.6595 24.8599 63.972 38.8125 63.9748C52.7651 63.9776 64.0739 52.6698 64.0739 38.7204ZM38.8125 2.21526C58.9698 2.21935 75.3125 18.5632 75.3125 38.7227C75.3125 58.8821 58.9698 75.2193 38.8125 75.2153C18.6552 75.2112 2.3125 58.8673 2.3125 38.7079C2.3125 18.5484 18.6552 2.21118 38.8125 2.21526Z" fill="black"/>
</svg>
