<svg width="162" height="160" viewBox="0 0 162 160" fill="none" xmlns="http://www.w3.org/2000/svg">
<path d="M121.455 14.3351L121.455 0.578125L72.3113 0.578123L72.3113 14.3351L121.455 14.3351Z" fill="#F0534C"/>
<path d="M102.707 14.3351L102.707 0.578125L72.3523 0.578124L72.3523 14.3351L102.707 14.3351Z" fill="#00639F"/>
<path d="M121.455 159.778L121.455 146.021L72.3113 146.021L72.3113 159.778L121.455 159.778Z" fill="#F0534C"/>
<path d="M102.707 159.778L102.707 146.021L72.3523 146.021L72.3523 159.778L102.707 159.778Z" fill="#00639F"/>
<path d="M80.8711 159.784L80.8711 0.578125L64.9227 0.578124L64.9227 159.784L80.8711 159.784Z" fill="#3ABDAA"/>
<path d="M22.7488 54.5889L0.104492 54.5889L0.104492 68.5082L22.7488 68.5082L22.7488 54.5889Z" fill="#332A74"/>
<path d="M43.7858 43.9688L27.1475 43.9688L27.1475 79.0715L43.7857 79.0715L43.7858 43.9688Z" fill="#2E498F"/>
<path d="M31.8681 50.3574L21.2764 50.3574L21.2764 72.7177L31.8681 72.7177L31.8681 50.3574Z" fill="#2E498F"/>
<path d="M22.7341 91.9053L0.0898438 91.9053L0.0898431 105.825L22.7341 105.825L22.7341 91.9053Z" fill="#332A74"/>
<path d="M43.7711 81.2852L27.1328 81.2852L27.1328 116.388L43.7711 116.388L43.7711 81.2852Z" fill="#2E498F"/>
<path d="M31.8915 87.6738L21.2998 87.6738L21.2998 110.034L31.8915 110.034L31.8915 87.6738Z" fill="#2E498F"/>
<path d="M129.367 117.125L129.367 43.2676L31.4042 43.2676L31.4042 117.125L129.367 117.125Z" fill="#B71A2C"/>
<path d="M129.367 117.08L129.367 78.9336L31.4042 78.9336L31.4042 117.08L129.367 117.08Z" fill="#B71A2C"/>
<path d="M146.935 104.063L146.935 56.2988L54.8964 56.2988L54.8964 104.063L146.935 104.063Z" fill="#E8253A"/>
<path d="M161.91 92.3761L161.91 68.0273L74.8229 68.0273L74.8229 92.3761L161.91 92.3761Z" fill="#F0534C"/>
<path d="M122.671 99.5558L122.671 94.3208L129.935 94.3208L129.935 81.1725L129.935 80.8073L129.935 67.6996L122.671 67.6996L122.671 60.8008L108.386 60.8008L108.386 67.6996L101.081 67.6996L101.081 80.8073L101.081 81.1725L101.081 94.3208L108.386 94.3208L108.386 99.5558L122.671 99.5558Z" fill="#B7E1DE"/>
<path d="M96.6533 73.4665L96.6533 86.9395L115.321 86.9395L115.321 73.4665L96.6533 73.4665Z" fill="#B7E1DE"/>
<path d="M115.721 73.4665L115.721 86.9395L134.388 86.9395L134.388 73.4665L115.721 73.4665Z" fill="#B7E1DE"/>
<path d="M123.564 87.3399L123.564 84.8238L127.054 84.8238L127.054 78.6149L127.054 78.412L127.054 72.2031L123.564 72.2031L123.564 68.916L116.787 68.916L116.787 72.2031L113.337 72.2031L113.337 78.412L113.337 78.6149L113.337 84.8238L116.787 84.8238L116.787 87.3399L123.564 87.3399Z" fill="white"/>
<path d="M59.4082 3.72513L59.4082 12.166L84.6903 12.166L84.6903 3.72513L59.4082 3.72513Z" fill="#76CBC8"/>
<path d="M56.9307 10.3284L56.9307 20.3926L87.1636 20.3926L87.1636 10.3284L56.9307 10.3284Z" fill="#3ABDAA"/>
<path d="M89.1837 19.7754L54.8926 19.7754L54.8926 34.5469L89.1837 34.5469L89.1837 19.7754Z" fill="#00639F"/>
<path d="M44.9629 24.5291L44.9629 32.8076L99.1388 32.8076L99.1388 24.5291L44.9629 24.5291Z" fill="#76CBC8"/>
<path d="M39.6836 30.9732L39.6836 40.875L104.37 40.875L104.37 30.9732L39.6836 30.9732Z" fill="#2E498F"/>
<path d="M108.738 40.2422L35.3262 40.2422L35.3262 54.7703L108.738 54.7703L108.738 40.2422Z" fill="#B71A2C"/>
<path d="M84.6846 156.622L84.6846 148.181L59.4025 148.181L59.4025 156.622L84.6846 156.622Z" fill="#76CBC8"/>
<path d="M87.1582 150.034L87.1582 139.97L56.9252 139.97L56.9252 150.034L87.1582 150.034Z" fill="#3ABDAA"/>
<path d="M89.1866 125.86L54.8955 125.86L54.8955 140.632L89.1866 140.632L89.1866 125.86Z" fill="#00639F"/>
<path d="M99.1318 135.834L99.1318 127.556L44.9559 127.556L44.9559 135.834L99.1318 135.834Z" fill="#76CBC8"/>
<path d="M104.411 129.373L104.411 119.472L39.7247 119.472L39.7247 129.373L104.411 129.373Z" fill="#2E498F"/>
<path d="M108.764 105.554L35.3525 105.554L35.3525 120.082L108.764 120.082L108.764 105.554Z" fill="#B71A2C"/>
<path d="M108.764 105.554L35.3525 105.554L35.3525 120.082L108.764 120.082L108.764 105.554Z" fill="#B71A2C"/>
</svg>
