<svg width="149" height="149" viewBox="0 0 149 149" fill="none" xmlns="http://www.w3.org/2000/svg">
<path d="M141.155 78.3009C143.37 41.6409 115.447 10.1241 78.7875 7.9063C42.1276 5.68848 10.613 33.6095 8.39778 70.2695C6.18253 106.93 34.1054 138.446 70.7654 140.664C107.425 142.882 138.94 114.961 141.155 78.3009Z" fill="#1B2F55"/>
<path fill-rule="evenodd" clip-rule="evenodd" d="M13.4064 74.8915C13.4064 108.578 40.7119 135.881 74.3867 135.884C108.062 135.887 135.367 108.588 135.367 74.9017C135.367 41.2156 108.062 13.912 74.3867 13.9092C40.7119 13.9064 13.4064 41.2055 13.4064 74.8915ZM74.3867 146.897C34.6186 146.893 2.38672 114.651 2.38672 74.8906C2.38671 35.1298 34.6186 2.89331 74.3867 2.89663C114.155 2.89995 146.387 35.1418 146.387 74.9026C146.387 114.663 114.155 146.9 74.3867 146.897Z" fill="black"/>
</svg>
