<svg width="132" height="184" viewBox="0 0 132 184" fill="none" xmlns="http://www.w3.org/2000/svg">
<path d="M128.995 93.1524C129.613 82.9214 121.82 74.1257 111.589 73.5066C101.358 72.8875 92.5636 80.6794 91.9456 90.9104C91.3275 101.141 99.1203 109.937 109.351 110.556C119.582 111.175 128.377 103.383 128.995 93.1524Z" fill="#E40000" stroke="black" stroke-width="5" stroke-miterlimit="10"/>
<path d="M119.929 83.634C120.013 82.2508 115.846 78.8733 110.622 78.5572C105.398 78.2411 101.096 81.1061 101.012 82.4893C100.929 83.8725 105.096 83.2501 110.319 83.5662C115.543 83.8823 119.845 85.0172 119.929 83.634Z" fill="#EBB4B4"/>
<path d="M37.9685 63.0068C28.7595 61.1355 33.7966 74.6417 37.4664 81.6288C37.2243 87.1701 14.6415 76.732 17.4737 41.3381C20.3059 5.94414 53.9047 6.74853 59.948 10.824C65.9912 14.8994 71.2926 28.3121 56.643 24.821C41.9934 21.33 37.3693 25.9111 36.0544 28.4941C34.7395 31.077 37.4735 37.1506 47.2903 36.6274C57.1071 36.1042 60.7606 40.7467 60.4585 43.9668C60.1564 47.1868 52.3984 48.731 46.2885 45.1617C40.1787 41.5924 29.6801 39.8904 29.76 47.6132C29.8399 55.336 40.0808 55.2928 45.4823 54.0625C50.8837 52.8323 57.6488 56.0526 55.7409 60.3633C53.833 64.6741 49.4799 65.3459 37.9685 63.0068Z" fill="#82592D" stroke="black" stroke-width="5"/>
<path d="M37.9685 121.06C28.7595 122.931 33.7966 109.425 37.4664 102.438C37.2243 96.8968 14.6415 107.335 17.4737 142.729C20.3059 178.123 53.9047 177.318 59.948 173.243C65.9912 169.168 71.2926 155.755 56.643 159.246C41.9934 162.737 37.3693 158.156 36.0544 155.573C34.7395 152.99 37.4735 146.916 47.2903 147.439C57.1071 147.963 60.7606 143.32 60.4585 140.1C60.1564 136.88 52.3984 135.336 46.2885 138.905C40.1786 142.474 29.6801 144.176 29.76 136.454C29.8399 128.731 40.0808 128.774 45.4822 130.004C50.8837 131.235 57.6488 128.014 55.7409 123.704C53.833 119.393 49.4799 118.721 37.9685 121.06Z" fill="#82592D" stroke="black" stroke-width="5"/>
</svg>
