<svg width="77" height="77" viewBox="0 0 77 77" fill="none" xmlns="http://www.w3.org/2000/svg">
<path d="M69.4316 38.4658C69.4316 21.6211 55.7763 7.96308 38.9316 7.95971C22.087 7.95634 8.43164 21.6089 8.43164 38.4536C8.43164 55.2983 22.087 68.9563 38.9316 68.9597C55.7763 68.9631 69.4316 55.3105 69.4316 38.4658Z" fill="url(#paint0_linear)"/>
<path fill-rule="evenodd" clip-rule="evenodd" d="M13.9643 38.5027C13.9643 52.2648 25.1207 63.4235 38.8828 63.4262C52.645 63.429 63.8014 52.2748 63.8014 38.5127C63.8014 24.7505 52.6449 13.5919 38.8828 13.5891C25.1207 13.5864 13.9643 24.7406 13.9643 38.5027ZM38.8828 74.5077C19.0006 74.5037 2.88281 58.3827 2.88281 38.5005C2.88281 18.6182 19.0006 2.50371 38.8828 2.50768C58.7651 2.51166 74.8828 18.6326 74.8828 38.5149C74.8828 58.3971 58.7651 74.5117 38.8828 74.5077Z" fill="black"/>
<defs>
<linearGradient id="paint0_linear" x1="12.0276" y1="26.7868" x2="62.1951" y2="51.3156" gradientUnits="userSpaceOnUse">
<stop stop-color="#617594"/>
<stop offset="1" stop-color="#264067"/>
</linearGradient>
</defs>
</svg>
