<svg width="187" height="160" viewBox="0 0 187 160" fill="none" xmlns="http://www.w3.org/2000/svg">
<path d="M44.4852 122.216C43.2604 122.06 41.4859 122.637 40.1581 122.023C37.8915 121.468 36.3003 121.801 34.606 121.675C29.7066 121.053 25.2764 120.402 20.6631 119.995C30.5088 114.022 37.4475 103.579 49.7082 100.944C48.5635 100.086 46.6634 99.0424 46.0108 99.3162C35.6275 101.833 27.0642 106.096 18.5236 111.521C17.0353 112.312 15.0776 113.134 12.9141 113.038C20.7687 101.373 31.3819 91.3968 44.9022 85.8904C34.6794 87.0005 25.1773 91.3227 16.4308 95.8299C24.3201 81.1386 36.6048 70.1257 49.954 60.6745C42.724 58.1521 36.043 59.6671 30.5592 62.8051C30.8684 62.2737 31.1775 61.7423 31.4867 61.2109C33.8591 57.571 36.8508 54.3574 40.7158 52.0661C41.1336 51.807 40.6815 51.2771 40.2328 51.3985C37.4383 52.2029 34.2134 53.1044 31.031 52.8164C31.0963 52.7891 31.1329 52.7402 31.1982 52.7128C33.6791 51.2533 35.6014 49.1077 37.6302 47.1183C39.5021 45.2784 41.7094 43.7663 44.1009 42.5452C47.4038 40.8244 51.1633 39.866 55.0933 39.4553C52.6987 38.1171 50.7517 36.1225 48.9593 33.8621C50.2242 34.62 51.7192 35.1307 53.3298 35.3083C56.9655 35.7073 60.417 34.8614 63.5332 33.6876C65.5115 32.9578 67.4016 32.0475 69.2345 31.0943C76.0289 29.13 81.997 25.2866 88.2363 22.3336C94.9691 19.1401 102.145 16.9656 110.04 16.5143C116.17 16.1509 122.548 16.8889 128.766 18.6142C147.053 23.7434 168.013 39.198 177.497 55.0508C188.428 73.3252 189.302 93.9791 182.25 112.085C164.435 157.953 114.361 159.017 76.498 141.953C71.387 139.646 66.6847 136.615 61.8279 133.85C57.7518 130.64 53.6861 127.476 49.8299 123.973C48.446 122.896 46.4656 122.556 44.4852 122.216Z" fill="url(#paint0_linear_1549_1902)"/>
<path opacity="0.5" d="M44.4846 122.216C43.2598 122.06 41.4853 122.637 40.1575 122.023C38.9486 121.727 37.9424 121.697 37.0117 121.686C36.3272 121.287 35.5877 120.962 34.8402 120.706C40.2551 119.806 45.9285 119.635 51.6659 120.809C55.1573 121.519 58.6006 122.652 61.9304 124.233C63.8466 125.136 65.6896 126.137 67.4249 127.4C68.9884 128.535 70.5337 129.694 72.1889 130.706C72.4648 130.875 73.1871 130.806 72.9433 130.356C71.7657 128.29 70.1335 126.531 68.1715 125.213C74.1138 126.769 78.9841 131.185 83.7698 135.118C86.3395 137.237 88.9825 139.257 91.9082 140.841C93.8553 141.882 95.9181 142.589 98.0072 143.202C102.79 144.576 107.847 145.583 112.676 145.465C116.602 145.357 120.891 144.528 122.723 141.132C122.859 140.89 122.62 140.673 122.365 140.596C120.077 139.949 117.556 139.317 115.453 138.007C115.177 137.838 114.948 137.666 114.672 137.497C120.023 139.068 125.934 138.579 130.9 137.8C138.613 136.639 145.712 133.911 151.411 129.294C151.753 129.016 151.277 128.697 150.985 128.669C147.943 128.372 144.934 128.748 141.872 128.359C140.157 128.142 138.354 127.744 136.785 126.796C136.261 126.48 135.634 126.124 135.239 125.637C134.411 124.595 135.796 124.298 136.545 124.135C136.769 124.074 136.861 123.952 136.83 123.814C143.089 121.907 149.023 119.183 154.177 115.53C159.99 111.418 164.888 106.199 168.235 100.008C171.508 93.9145 173.768 86.9078 173.257 79.5406C173.025 75.8556 172.285 72.1327 171.039 68.4884C169.715 64.7093 167.814 61.2226 165.65 57.7292C163.078 53.5867 160.084 49.4709 156.263 46.3379C156.271 46.2676 156.251 46.1758 156.136 46.0899C151.225 41.49 146.005 37.0026 140.049 33.7949C135.119 31.1274 129.993 29.4962 124.716 28.7819C128.295 28.1839 132.313 27.9538 136.043 28.8819C137.939 29.6931 139.826 30.5746 141.696 31.4805C142.094 31.6648 142.669 31.2563 142.193 30.9373C140.372 29.6095 138.372 28.7583 136.303 28.2373C131.356 26.1294 126.332 24.4219 121.096 23.8911C113.806 23.1177 106.457 24.0931 99.7801 25.8404C93.0384 27.6152 87.0887 30.4801 81.1356 33.6478C78.0937 35.259 74.9397 36.9006 71.4389 37.6332C67.7321 38.4022 63.9041 37.7827 60.0109 37.1905C59.7659 37.1595 59.2702 37.2838 59.4934 37.642C61.5901 41.0466 65.3013 42.4181 68.7273 44.11C60.2539 43.3646 50.4206 42.2862 44.9204 48.4269C44.8654 48.5002 44.7921 48.5979 44.8413 48.7111C44.6089 48.8421 44.3765 48.9731 44.1441 49.1041C43.7732 49.3602 44.2963 49.6762 44.5699 49.7288C46.6888 49.9442 49.0928 49.8391 51.0158 51.0907C49.7725 51.9137 48.472 52.6938 47.2183 53.4709C44.3951 55.2079 41.5376 57.11 39.4629 59.6375C36.2576 60.0956 33.2536 61.2391 30.5586 62.8051C30.8677 62.2737 31.1769 61.7423 31.4861 61.2109C33.8585 57.571 36.8502 54.3574 40.7152 52.0661C41.133 51.807 40.6809 51.2771 40.2322 51.3985C37.4377 52.2029 34.2128 53.1044 31.0304 52.8165C31.0957 52.7891 31.1323 52.7402 31.1976 52.7128C33.6785 51.2533 35.6008 49.1077 37.6296 47.1183C39.5015 45.2784 41.7088 43.7663 44.1003 42.5452C47.4032 40.8244 51.1627 39.866 55.0927 39.4553C52.6981 38.1171 50.7511 36.1225 48.9587 33.8621C50.2236 34.62 51.7185 35.1307 53.3292 35.3084C56.9649 35.7073 60.4164 34.8614 63.5326 33.6876C65.5109 32.9578 67.401 32.0475 69.2339 31.0943C76.0283 29.13 81.9964 25.2866 88.2357 22.3336C94.9685 19.1401 102.144 16.9657 110.04 16.5143C116.17 16.1509 122.547 16.8889 128.765 18.6142C147.052 23.7434 168.013 39.198 177.496 55.0508C188.427 73.3252 189.301 93.9791 182.249 112.085C164.434 157.953 114.36 159.017 76.4974 141.953C71.3864 139.646 66.6841 136.615 61.8273 133.85C57.7512 130.64 53.6855 127.476 49.8293 123.973C48.4454 122.896 46.465 122.556 44.4846 122.216Z" fill="url(#paint1_linear_1549_1902)"/>
<path d="M68.4336 45.9898C68.4336 45.9898 60.6931 51.4807 59.3524 61.7336C58.6337 68.7129 58.7055 70.9422 58.1292 74.6317C57.5529 78.3212 58.9713 86.4455 59.1262 92.439C59.328 98.4296 58.0578 103.163 63.682 112C64.5198 113.506 64.5207 114.995 64.5377 116.344C64.5192 117.322 64.5271 118.206 64.8247 119.001C65.5754 120.862 67.7034 121.542 69.9896 120.7C72.2758 119.858 75.6523 123.344 75.6934 124.482C75.7242 125.574 76.2938 128.749 78.8374 129.054C81.428 129.356 84.1335 134.095 95.6413 137.65C99.4165 139.413 99.2388 141.379 102.979 141.818C106.719 142.257 111.888 144.188 114.424 143.609C116.959 143.031 123.756 144.045 126.572 144.821C129.388 145.597 146.566 144.514 151.975 138.495C156.314 135.453 157.633 132.74 161.092 131.824C164.552 130.908 163.335 128.774 165.436 129.014C167.537 129.254 168.24 128.674 168.575 125.186C168.974 123.462 177.626 116.518 179.413 98.8141C180.987 81.7521 179.711 78.5052 178.249 76.3403C177.678 75.4921 177.738 74.6972 177.826 73.9238C177.944 72.7529 178.036 71.6768 175.752 70.7272C174.461 65.7129 164.593 47.511 152.307 41.6543C151.271 38.206 146.971 35.0568 145.956 38.9135C143.07 35.489 137.308 30.1748 120.733 28.0091C116.061 27.0239 113.933 26.3437 113.223 26.0396C112.512 25.7354 112.113 27.4591 109.981 26.5465C107.848 25.6339 99.8945 23.5992 97.1582 25.9358C94.4219 28.2723 91.6607 28.3766 89.9907 27.0859C88.3207 25.7951 88.1351 26.8771 88.1749 28.4336C88.2148 29.9901 77.1343 32.8994 71.8067 40.658C70.2085 41.5965 66.6817 40.5159 66.7124 41.6076C66.6963 42.7022 69.3267 44.5607 68.4336 45.9898Z" fill="#BE8D4C"/>
<path opacity="0.6" d="M75.7085 124.458C75.6777 123.366 72.3195 119.855 70.0047 120.675C67.7185 121.518 65.5905 120.838 64.8397 118.977C64.5239 118.206 64.5343 117.298 64.5528 116.319C64.5644 114.992 64.5634 113.503 63.6971 111.975C58.0729 103.139 59.3248 98.4296 59.1413 92.4146C58.9394 86.424 57.568 78.2968 58.1443 74.6073C58.7206 70.9178 58.6488 68.6885 59.3675 61.7092C60.6899 51.4807 68.4486 45.9654 68.4486 45.9654C69.3417 44.5362 66.7113 42.6778 66.6989 41.5617C66.6681 40.47 70.1664 41.5291 71.7932 40.6121C77.1391 32.8291 88.2196 29.9198 88.1614 28.3877C88.1215 26.8312 88.3071 25.7492 89.9772 27.04C91.6472 28.3308 94.4553 28.2235 97.1446 25.8899C99.8809 23.5533 107.834 25.588 109.967 26.5006C112.1 27.4132 112.498 25.6895 113.209 25.9937C113.92 26.2979 116.03 27.0025 120.719 27.9632C137.294 30.1289 143.056 35.4431 145.943 38.8676C146.996 35.0782 151.268 38.206 152.304 41.6543C164.59 47.511 174.429 65.6914 175.767 70.7028C178.051 71.6524 177.959 72.7285 177.841 73.8994C177.771 74.6484 177.693 75.4677 178.265 76.3159C179.726 78.4807 181.002 81.7277 179.428 98.7897C177.641 116.493 168.989 123.438 168.59 125.162C168.236 128.674 167.552 129.229 165.451 128.989C163.35 128.75 164.567 130.883 161.107 131.8C157.648 132.716 156.329 135.428 151.99 138.471C146.599 144.465 129.403 145.573 126.587 144.797C123.771 144.02 116.974 143.006 114.439 143.585C111.903 144.164 106.734 142.233 102.994 141.794C99.2539 141.355 99.4315 139.389 95.6564 137.626C84.1486 134.07 81.443 129.331 78.8525 129.029C76.3089 128.724 75.7392 125.549 75.7085 124.458ZM87.7827 129.583C89.4825 130.476 91.2774 130.945 93.0403 131.695C94.8603 132.487 96.5888 133.402 98.3458 134.338C101.537 136.045 105.489 138.169 108.998 137.901C110.753 137.768 112.312 137.181 114.007 136.888C115.768 136.567 117.529 136.782 119.385 136.99C122.098 137.308 125.413 137.657 127.467 135.992C128.356 135.285 129.027 134.032 130.164 133.588C131.853 132.947 133.564 134.421 134.883 135.524C138.963 138.967 144.437 134.829 147.025 132.571C148.956 130.891 150.734 129.057 152.408 127.183C153.742 125.702 155.406 124.318 156.235 122.497C158.137 118.352 155.581 112.579 158.696 108.962C159.753 107.732 161.21 106.803 162.945 106.577C164.191 106.405 165.63 106.454 166.719 105.897C168.795 104.859 168.51 102.317 168.365 100.185C168.19 97.4973 167.987 94.7877 166.378 92.2831C165.399 90.7859 163.81 88.3731 164.748 86.8247C165.303 85.9055 166.462 85.5532 167.132 84.7198C167.673 84.0574 168.304 83.1567 167.89 82.159C167.468 81.2316 166.599 80.5419 165.806 79.8706C164.362 78.6353 162.361 77.249 161.482 75.5593C160.731 74.1175 161.005 72.7972 160.47 71.365C159.585 68.9078 157.14 69.7834 155.308 69.3637C153.779 69.018 151.774 66.4454 152.291 65.0399C152.683 63.9216 154.209 63.6159 155.235 63.2022C156.942 62.5361 158.96 61.4548 158.127 59.227C156.976 56.1118 154.354 53.229 151.661 51.0952C149.466 49.3722 147.095 47.8231 144.591 46.6315C143.443 46.0757 140.105 44.5643 139.345 46.0549C138.54 47.6646 141.655 49.3529 140.912 51.238C140.303 52.7656 137.662 51.8152 136.383 51.3142C132.454 49.8169 128.555 47.5032 125.095 45.0223C122.569 43.2038 120.739 40.9923 119.671 38.2442C119.373 37.4486 119.151 36.6714 118.872 35.8514C118.792 35.6005 118.704 35.4199 118.475 35.2482C117.442 34.3593 116.114 33.745 114.838 33.3601C111.718 32.3935 108.344 31.4661 105.206 31.059C101.852 30.6422 99.4002 31.1692 96.7625 32.7782C95.0258 33.8417 93.3715 34.3183 91.1839 34.433C89.888 34.4915 88.6391 34.547 87.4336 34.9022C84.0129 35.8858 81.5182 38.5562 78.3127 39.9683C72.9286 41.9599 73.5022 50.1375 72.8936 55.0623C72.6026 57.4773 72.0768 59.9071 70.8196 61.9409C70.2539 62.8143 69.7845 63.7979 68.9613 64.4781C68.1381 65.1582 67.3059 65.3736 66.1714 65.5149C64.8778 65.6896 64.2172 66.0338 63.6378 67.1639C62.9851 68.3918 62.6266 69.764 62.4193 71.1731C61.9839 73.8997 61.9549 76.7403 61.7748 79.5439C61.5247 83.0965 61.3583 86.5973 61.6268 90.2335C61.9056 93.9156 62.165 98.041 63.5805 101.698C64.8382 104.969 67.3884 107.531 69.0742 110.589C70.3995 112.995 70.0213 115.765 72.5762 117.605C75.6072 119.764 79.7649 119.944 82.2487 122.951C83.9083 125.15 85.1797 128.165 87.7827 129.583Z" fill="#A5773A"/>
<path d="M75.711 124.457C75.6928 123.527 73.2342 120.843 71.105 120.582C70.7376 120.535 70.3621 120.559 70.0358 120.696C69.1772 121.006 68.3896 121.102 67.6364 121.034C66.3645 120.881 65.3263 120.179 64.8709 118.997L64.8606 118.952C64.6535 118.453 64.5952 117.875 64.5838 117.294C64.5976 117.037 64.5644 116.783 64.5782 116.526L64.5965 116.502L64.5942 116.386C64.5977 116.083 64.5909 115.734 64.584 115.386C64.5636 114.34 64.4 113.187 63.7671 112.063L63.7385 112.042L63.6996 111.974C60.0246 106.203 59.3165 102.199 59.2048 98.4131C59.1763 97.4376 59.1948 96.4592 59.2132 95.4808C59.2317 94.5023 59.2501 93.5239 59.2113 92.5025C59.0974 88.6006 58.4489 83.8016 58.1942 79.9086C58.1336 79.2144 58.1016 78.5416 58.0983 77.8903L58.1166 77.8659C58.0733 76.6121 58.0997 75.5633 58.243 74.7166L58.2613 74.6922C58.8376 71.0027 58.7658 68.7735 59.4845 61.7941C60.8069 51.5657 68.5656 46.0504 68.5656 46.0504C68.6836 45.8335 68.7546 45.6196 68.75 45.3872C68.7158 44.5982 68.0508 43.756 67.5003 42.9996C67.1237 42.4881 66.833 42.0411 66.8159 41.6466C66.7851 40.5549 70.2834 41.6141 71.9102 40.6971C77.2561 32.914 88.3366 30.0047 88.2784 28.4727C88.266 27.3566 88.3336 26.4914 88.993 26.5661C89.238 26.5972 89.6077 26.76 90.0758 27.1493C90.6482 27.5786 91.3304 27.8613 92.0653 27.9546C93.5821 28.1382 95.4321 27.5794 97.2433 25.9993C98.5371 24.8706 101.11 24.7781 103.625 25.0616C106.31 25.3577 108.985 26.143 110.066 26.61C110.407 26.7513 110.709 26.8254 110.954 26.8564C112.226 27.0089 112.667 26.0038 113.185 26.0875L113.308 26.103C114.019 26.4072 116.128 27.1118 120.818 28.0726C137.393 30.2383 143.155 35.5524 146.041 38.977C146.4 37.6048 147.217 37.1112 148.122 37.217C149.761 37.4161 151.775 39.4996 152.41 41.6933C164.696 47.55 174.535 65.7305 175.874 70.7418L175.931 70.7848C177.59 71.4946 177.953 72.2628 177.969 73.0762C177.984 73.3545 177.951 73.6357 177.919 73.917L177.883 73.9658C177.851 74.2471 177.837 74.5039 177.852 74.7822C177.861 75.247 177.974 75.7517 178.275 76.2447L178.304 76.2661C179.194 77.5828 180.008 79.2999 180.161 84.2232C180.232 87.4065 180.076 91.9071 179.491 98.529L179.473 98.5534L179.457 98.694C177.67 116.398 169.018 123.342 168.619 125.066C168.265 128.579 167.581 129.134 165.48 128.894C163.379 128.654 164.596 130.788 161.136 131.704C157.677 132.62 156.358 135.333 152.019 138.375C146.95 144 131.533 145.298 127.304 144.797C127.012 144.769 126.785 144.714 126.634 144.677C125.217 144.301 122.83 143.846 120.456 143.554C118.082 143.261 115.777 143.174 114.486 143.465C113.849 143.598 113.041 143.602 112.137 143.497C109.424 143.179 105.829 142.01 103.023 141.698C99.2827 141.259 99.4604 139.293 95.6853 137.53C84.1775 133.975 81.4719 129.236 78.8814 128.934C76.3114 128.723 75.7418 125.548 75.711 124.457ZM70.3728 117.743C72.7837 117.032 79.2235 121.443 79.269 123.767C79.3431 126.112 87.1737 130.994 98.1604 136.257C109.147 141.521 111.481 137.814 123.078 140.177C134.675 142.541 140.129 138.846 147.07 136.686C153.982 134.505 157.675 129.642 164.142 124.418C170.61 119.193 177.095 102.38 176.942 86.4272C176.956 86.1704 176.923 85.9165 176.918 85.6842C176.455 70.1468 165.53 59.4342 158.029 50.7162C150.431 41.888 139.943 40.9671 138.054 37.1074C136.182 33.2232 120.052 30.7037 117.225 29.3463C114.379 28.0133 100.374 26.0578 97.9768 28.4195C95.608 30.8026 93.2323 32.8372 89.0311 32.3576C84.8299 31.8779 73.9922 42.8694 73.9922 42.8694C72.3503 45.4161 72.089 47.4337 72.1777 51.9654C72.1246 55.017 72.0173 61.5389 68.4787 62.7393C68.4272 62.5099 68.394 62.2561 68.3975 61.9533C68.3678 61.3968 68.448 60.6937 68.581 59.8011C69.2134 55.6194 70.1319 52.6064 70.0863 51.2364C70.0372 50.1691 69.4351 50.1373 67.6171 51.3689C63.5185 54.2101 62.1385 66.3037 61.5416 69.9014C60.9631 73.4747 61.1397 79.1411 61.2878 84.786C61.4645 90.4524 62.4249 99.1873 62.5275 102.508C62.6278 105.713 66.6235 110.58 66.6965 112.39L66.6724 112.601C66.6381 112.766 66.6323 112.953 66.6369 113.185C66.7591 115.109 68.2331 118.39 70.3728 117.743Z" fill="#836A31"/>
<path opacity="0.3" d="M75.413 52.1799C75.413 52.1799 76.6754 37.4411 94.0459 37.5323C111.416 37.6235 111.306 34.3729 121.82 43.3662C132.335 52.3595 145.69 56.1942 147.983 85.9264C150.246 115.637 141.219 131.727 118.778 133.328C96.3556 134.905 91.079 129.421 82.9924 121.065C76.0756 113.893 70.3354 108.251 67.7753 102.782C65.2152 97.3124 63.3937 81.5581 64.1424 73.2273C64.9196 64.918 69.9074 72.9336 70.8169 68.5017C71.6978 64.0484 74.6711 61.8133 75.413 52.1799Z" fill="#F0BD79"/>
<path d="M120.772 40.0588C119.204 37.7377 122.269 37.8236 123.68 37.851C123.896 37.8606 123.937 38.0442 123.731 38.0804C123.15 38.1404 121.408 38.0175 121.51 38.8953C121.579 39.5192 122.478 40.3467 122.892 40.8093C124.737 42.8801 126.783 44.6824 128.997 46.381C131 47.8834 133.437 48.9862 135.766 49.8167C136.049 49.9151 136.286 50.0165 136.57 50.1149C137.467 50.2911 138.371 50.3969 139.273 50.3866C140.298 50.3918 140.137 49.89 139.595 49.0633C138.45 47.2507 136.573 45.4611 134.919 44.0297C134.747 43.9009 135.074 43.7639 135.188 43.8498C137.502 45.356 140.121 46.6334 141.587 49.0307C142.324 50.1942 141.928 51.0801 140.779 51.4783C140.07 51.7092 139.251 51.6677 138.43 51.5101C135.005 51.3073 131.508 49.8292 128.5 47.8782C125.471 45.8355 122.765 43.0045 120.772 40.0588Z" fill="#684825"/>
<path d="M112.582 93.1856C113.183 90.7743 114.532 88.6183 116.47 87.2861C117.291 86.4898 118.456 85.951 119.465 85.6779C121.521 85.0828 123.873 85.1672 125.269 87.3595C126.549 89.3497 126.19 91.6759 125.663 93.5706C125.057 95.7495 123.842 97.548 121.871 98.6263C119.853 99.7076 116.919 100.102 114.571 98.7609C112.385 97.5027 112.149 95.0744 112.582 93.1856ZM117.699 88.0929C116.158 89.0743 115.459 90.8402 114.634 92.3582C113.889 93.7081 112.732 95.5495 113.892 97.2215C115.479 99.5181 118.559 98.9283 120.439 97.972C120.967 97.5665 121.437 97.1179 121.877 96.5318C122.665 95.4815 122.864 94.1427 123.168 92.8438C123.645 90.8358 123.626 87.4631 121.24 87.0086C119.954 87.113 118.803 87.3949 117.699 88.0929Z" fill="#684825"/>
<path d="M89.0962 119.61C90.0969 118.872 92.1001 119.421 93.325 119.576C96.6974 119.969 101.576 120.498 104.215 123.241C105.769 124.864 106.594 127.163 104.412 128.045C102.538 128.814 98.7638 127.587 97.4315 125.786C97.0939 125.342 98.0326 125.283 98.2902 125.476C99.8537 126.61 101.662 127.776 103.55 127.704C106.47 127.566 104.005 124.534 102.785 123.657C100.774 122.224 97.7274 121.695 95.4632 121.256C94.3688 121.046 93.2378 120.885 92.1354 120.745C91.6455 120.683 91.1269 120.599 90.637 120.537C89.6285 120.391 89.7245 121.455 90.1972 122.077C90.3322 122.255 89.9568 122.278 89.8423 122.193C88.8327 121.512 88.114 120.324 89.0962 119.61Z" fill="#684825"/>
<path d="M81.7087 101.438C81.608 101.096 82.1998 101.082 82.4368 101.183C82.9393 101.407 83.1991 101.717 83.5631 102.066C84.1766 102.679 84.3496 101.435 84.4081 101.059C84.691 99.6681 84.935 98.21 84.8688 96.7483C84.8094 95.6351 84.5154 94.5368 84.1561 93.4658C83.9798 93.1047 83.7853 92.7679 83.5804 92.3853C82.6099 90.8177 81.7046 89.2227 80.6035 87.7099C80.4009 87.4434 79.198 86.0069 79.0755 85.9913C78.6164 86.0668 78.9161 87.9326 78.9779 88.208C79.1643 89.5691 79.6507 90.888 79.9309 92.2431C79.9618 92.3808 79.6436 92.4474 79.5658 92.3127C78.6868 90.623 78.1319 88.6802 77.8345 86.9305C77.5496 85.3429 78.6293 84.3209 80.3337 85.4466C82.267 86.744 83.8109 89.276 84.9108 91.2077C85.3102 91.9271 85.6753 92.8116 85.8812 93.7293L85.9098 93.7508C86.8483 95.5996 86.8686 97.5994 86.5661 99.4335C86.3141 100.962 85.9807 102.658 84.3654 103.202C83.3191 103.524 81.9432 102.378 81.7087 101.438Z" fill="#684825"/>
<path d="M99.7379 55.8819C99.517 55.6399 99.351 55.3246 99.3911 54.9731C99.4371 53.481 101.348 52.6624 102.569 52.1665C103.697 51.6766 105.249 51.2762 106.49 52.245C107.502 53.0422 106.755 54.2759 106.251 54.8895C105.526 55.7961 104.601 56.5525 103.452 56.9507C102.416 57.3185 100.344 57.1002 99.7379 55.8819Z" fill="#684825"/>
<path d="M78.143 105.06C78.0195 104.509 78.8357 104.435 79.2135 104.527C80.2426 104.765 81.2808 105.467 81.6195 106.446C81.7935 106.691 81.9491 106.961 82.0029 107.306C82.0749 107.627 81.6445 107.724 81.3812 107.718C79.9686 107.574 78.4622 106.482 78.143 105.06Z" fill="#684825"/>
<path d="M77.8986 56.9793C78.7013 55.2533 82.7464 50.1584 85.292 52.4875C86.2775 53.3794 85.8274 54.8737 85.1564 56.126C84.3159 58.3197 82.5733 60.5238 79.8773 60.6007C77.2936 60.6473 77.1222 58.6105 77.8986 56.9793Z" fill="#684825"/>
<g opacity="0.7">
<path d="M114.3 86.8412C116.071 84.6586 119.603 83.1096 122.846 84.0918C123.148 84.1658 123.04 84.4285 122.777 84.4219C119.691 84.2442 117.441 85.9916 115.099 87.326C114.801 87.4844 114.007 87.232 114.3 86.8412Z" fill="#BE8D4C"/>
<path d="M78.2848 82.9932C78.1703 82.9073 78.3661 82.8252 78.4703 82.8651C80.1518 83.7829 82.0108 84.643 83.2709 86.1225C83.4632 86.343 82.9389 86.4459 82.7855 86.2927C81.3971 84.9841 79.8564 84.0575 78.2848 82.9932Z" fill="#BE8D4C"/>
<path d="M89.2131 118.44C90.62 118.77 92.1196 118.559 93.5689 118.654C94.8487 118.736 96.1388 118.864 97.4312 119.108C97.8559 119.198 97.6933 119.534 97.3545 119.509C95.9052 119.414 94.4537 119.203 92.9759 119.087C91.6674 118.983 90.4185 119.039 89.1501 118.583C89.0174 118.522 89.1376 118.421 89.2131 118.44Z" fill="#BE8D4C"/>
<path d="M98.8065 41.0255C103.079 41.2912 106.963 39.5105 111.308 40.6326C115.219 41.6192 118.8 44.5346 121.083 47.8111C121.963 49.0819 119.54 49.2114 118.811 48.9317C115.39 47.4721 112.433 44.7965 108.959 43.5265C105.56 42.2749 101.992 42.9187 98.5122 41.8352C97.7544 41.5339 98.2982 40.9877 98.8065 41.0255Z" fill="#BE8D4C"/>
</g>
<path d="M11.2602 142.484C13.6155 138.45 15.8769 134.422 18.9659 130.899C22.403 126.913 26.4925 123.607 31.0525 120.806C31.452 120.572 31.143 120.149 30.7103 120.13C26.9956 120.015 23.1766 120.814 19.8325 122.352C25.1768 117.85 31.1793 113.841 38.4831 112.45C43.6609 111.448 49.1397 111.894 54.5656 113.483C60.1243 115.134 65.5296 117.585 71.0883 119.236C71.466 119.328 71.8999 118.928 71.4524 118.631C65.8115 114.705 59.6588 111.999 53.3298 109.885C59.6281 110.907 65.8999 112.978 72.1386 114.795C77.1765 116.246 82.267 117.507 87.3737 118.627C92.5741 119.742 97.9131 120.732 103.111 120.776C107.069 120.806 111.648 120.424 114.177 117.588C114.352 117.415 114.291 117.139 113.978 117.019C107.622 114.465 101 113.277 94.4686 111.851C105.151 113.108 115.755 113.696 125.732 111.066C126.34 110.911 125.914 110.287 125.361 110.368C114.777 112.199 102.954 107.453 92.3736 104.211C86.0857 102.281 79.7921 100.537 73.4824 98.934C79.7042 98.4486 85.9775 98.1925 92.2245 98.0313C99.6917 97.793 107.349 97.6591 114.38 95.7963C118.944 94.6011 124.636 92.4969 126.655 88.1347C128.864 83.3417 122.784 80.0022 118.405 78.6263C111.748 76.5331 105.013 76.7485 98.3152 75.9609C102.244 75.0151 106.44 74.7272 110.469 74.124C114.47 73.4994 119.09 72.766 121.931 70.0505C122.125 69.8522 121.998 69.6042 121.732 69.4814C120.688 68.9655 119.608 68.4985 118.529 68.1476C123.076 67.093 128.28 66.951 131.535 63.744C131.637 63.6678 131.682 63.5487 131.622 63.3895C131.407 62.961 131.174 62.5569 130.893 62.1557C127.86 57.9725 122.015 56.1074 117.368 54.9113C111.936 53.5087 106.424 52.8092 100.964 52.3392C87.3792 51.1949 74.8392 53.9635 62.8794 58.0452C71.2426 52.6779 80.1231 47.8132 90.1469 45.1799C95.8789 43.6783 101.796 43.0026 107.991 43.0308C113.875 43.0553 119.776 43.4742 125.68 43.5905C125.991 43.5942 126.331 43.2004 125.922 42.9703C113.533 35.7007 98.6641 35.1958 86.203 38.6342C99.8698 32.9325 115.638 30.8677 131.639 34.9311C131.988 35.0022 132.469 34.5995 132.003 34.3264C119.275 27.0317 103.485 25.0724 91.2857 29.8905C96.6152 25.1101 104.801 22.6626 112.701 23.9327C113.267 24.0134 113.48 23.3717 112.857 23.2481C99.7146 20.6798 88.6236 25.4512 77.9492 30.3826C73.0127 32.6717 68.0155 35.2206 62.4725 36.2915C58.1841 37.1204 53.3429 37.0767 49.5152 34.5492C49.3229 34.3286 49.149 34.0836 48.9281 33.8416C50.1929 34.5995 51.6879 35.1102 53.2985 35.2878C56.9342 35.6868 60.3858 34.8409 63.502 33.6671C65.4802 32.9373 67.3703 32.027 69.2032 31.0737C75.9976 29.1095 81.9657 25.2661 88.205 22.3131C94.9378 19.1195 102.113 16.9451 110.009 16.4937C116.139 16.1304 122.516 16.8684 128.735 18.5937C147.021 23.7229 167.982 39.1775 177.465 55.0303C188.396 73.3047 189.271 93.9586 182.219 112.064C164.404 157.933 114.33 158.997 76.4667 141.932C69.8768 138.974 63.9292 134.742 57.4835 131.472C56.7051 131.079 55.9267 130.686 55.1403 130.363C54.8198 130.314 54.4809 130.288 54.1421 130.263C52.5201 129.505 50.9003 128.862 49.2176 128.363C45.7766 127.347 42.4168 127.117 39.1725 127.508C40.1548 126.794 41.5194 126.406 42.5863 126.175C44.4306 125.803 46.3183 125.731 48.2495 125.958C46.316 125.614 44.3585 125.482 42.4055 125.582C35.1752 125.921 29.2619 130.646 24.9547 135.315C20.5823 140.012 17.4975 145.674 12.2643 149.611C8.90184 152.127 5.00941 153.978 0.832031 155.195C5.35653 152.024 8.46748 147.221 11.2602 142.484Z" fill="#DB5910" fill-opacity="0.75"/>
<path opacity="0.5" d="M65.8164 131.924C74.0422 135.385 82.5266 139.573 91.2725 139.836C91.4133 139.827 91.5884 139.653 91.3984 139.549C85.7655 136.507 79.4638 134.833 74.274 130.902C84.6188 133.624 95.0536 139.504 105.499 138.217C105.639 138.208 105.692 138.019 105.559 137.958C99.6723 134.42 92.4237 133.83 87.1161 129.162C98.9524 132.697 112.185 140.332 123.644 136.142C123.775 136.087 123.734 135.904 123.601 135.842C120.651 134.469 117.212 134.523 114.404 132.723C117.485 132.133 120.744 132.02 123.917 131.844C127.813 131.598 131.719 131.398 135.543 130.831C141.484 129.945 149.326 128.194 150.507 121.79C150.515 121.72 150.447 121.631 150.372 121.612C143.144 119.206 135.607 121.147 128.488 118.06C132.444 116.6 137.157 116.815 140.722 114.566C140.871 114.486 140.689 114.312 140.585 114.272C137.334 113.36 134.038 113.521 130.818 112.747C140.729 109.609 152.804 109.01 159.94 101.463C159.977 101.415 160.003 101.32 159.946 101.277C157.153 98.8004 152.883 98.6509 149.627 98.4606C145.629 98.2474 141.339 98.5412 137.304 97.4229C143.683 94.8799 152.453 96.8398 157.595 92.0712C157.696 91.995 157.619 91.8603 157.514 91.8203C155.421 90.9751 152.994 90.8722 151.071 89.6206C154.035 87.8747 157.601 87.1146 160.827 85.7943C163.727 84.6109 166.581 83.0115 167.565 79.9711C167.591 79.8764 167.505 79.812 167.43 79.7935C156.668 75.004 145.202 77.8911 134.34 73.713C141.56 74.2815 149.529 75.6405 155.885 72.8895C156.015 72.8347 156.003 72.6726 155.841 72.5897C152.093 71.2671 148.293 70.134 144.714 68.2888C150.308 68.4014 155.999 68.6242 161.276 67.4304C161.435 67.3971 161.48 67.278 161.337 67.1706C153.574 61.4243 143.952 59.169 135.038 56.5667C144.159 56.2707 153.359 59.0877 162.321 62.2222C162.529 62.3021 162.788 62.0764 162.494 61.9321C161.174 61.2474 160.11 60.2209 158.846 59.463C162.529 59.4401 166.22 60.7198 169.877 61.7456C170.028 61.7826 170.214 61.6546 170.107 61.4984C165.23 55.7795 159.208 51.11 152.442 47.7905C145.913 44.5724 139.031 42.5399 132.135 40.7643C137.131 39.5883 142.585 40.6637 147.828 40.589C147.968 40.5802 148.144 40.4062 147.954 40.3019C145.882 39.1295 143.747 38.1007 141.507 37.4509C144.892 37.0512 148.404 37.8536 151.879 38.7047C152.03 38.7417 152.263 38.6108 152.109 38.4575C143.793 30.3494 130.9 23.2745 119.846 25.135C122.705 23.7681 126.379 24.2344 129.624 23.8436C129.764 23.8347 129.817 23.6453 129.684 23.5838C122.458 18.8507 113.582 18.6426 105.954 19.3331C99.8467 19.9044 93.9877 21.1581 88.1103 22.4363C88.1756 22.4089 88.2408 22.3815 88.2775 22.3326C95.0102 19.1391 102.186 16.9647 110.081 16.5133C116.212 16.1499 122.589 16.8879 128.807 18.6132C147.094 23.7424 168.054 39.1971 177.538 55.0498C188.469 73.3243 189.343 93.9781 182.291 112.084C164.476 157.952 114.402 159.016 76.5392 141.952C69.9492 138.993 64.0016 134.761 57.5559 131.491C56.7775 131.098 55.9992 130.705 55.2127 130.383C54.8922 130.333 54.5534 130.308 54.2145 130.283C52.5925 129.524 50.9728 128.882 49.29 128.383C46.9171 127.672 44.5612 127.355 42.2305 127.362C49.8479 125.672 58.1687 128.707 65.8164 131.924Z" fill="url(#paint2_radial_1549_1902)"/>
<path d="M113.924 3.58757C113.454 3.61717 113.013 3.66823 112.675 3.64306C110.062 3.6682 107.975 3.17156 105.597 1.69278C109.627 0.135598 113.474 0.311785 117.596 2.98366C118.129 3.34559 118.691 3.72898 119.235 4.13679C118.09 3.27824 115.66 3.47805 113.924 3.58757Z" fill="url(#paint3_linear_1549_1902)"/>
<path d="M31.309 76.1138C28.831 82.0407 26.0691 87.8691 22.0789 92.8908C22.0239 92.9641 21.969 93.0374 21.914 93.1106C20.0422 93.9965 18.2277 94.9254 16.4314 95.8298C20.4127 88.4353 25.5204 81.9237 31.309 76.1138Z" fill="url(#paint4_linear_1549_1902)"/>
<path d="M34.6864 85.8604C36.8364 84.3054 39.2074 82.9925 41.7729 82.0163C43.4146 81.3776 45.1466 81.0357 46.8707 80.7641C47.2565 80.7863 47.6239 80.8329 48.0097 80.8551C48.7916 80.9454 50.4549 80.9336 51.6088 81.3029C51.5435 81.3303 51.4782 81.3577 51.3947 81.4095C48.1583 82.6839 45.1634 84.2922 42.4752 86.2069C38.156 86.8981 33.9786 88.1155 29.9202 89.6513C31.4361 88.3457 33.0274 87.0587 34.6864 85.8604Z" fill="url(#paint5_linear_1549_1902)"/>
<path d="M36.6954 107.326C37.9832 107.338 39.2814 107.396 40.5818 107.57C41.1003 107.653 41.6086 107.691 42.1272 107.775C44.8104 108.49 47.4718 109.532 49.942 110.889C47.5163 110.367 44.9429 110.459 42.4988 110.916C37.4619 110.954 32.5724 112.286 28.5975 114.724C29.8773 114.807 31.2006 115.188 32.4712 115.76C32.7368 115.883 32.8719 116.06 32.8661 116.247C29.4489 116.928 26.5456 118.414 23.9044 120.326C22.8306 120.207 21.7099 120.092 20.6179 119.998C26.452 116.512 31.2401 111.44 36.6954 107.326Z" fill="url(#paint6_linear_1549_1902)"/>
<path d="M12.9141 113.038C19.7817 102.808 28.7807 93.9108 39.984 88.155C38.4212 89.4635 36.9546 90.8823 35.6311 92.4084C39.2442 90.6914 43.7065 90.1075 47.7864 90.1526C48.0211 90.1378 48.258 90.2392 48.4481 90.3436C45.7269 91.0504 42.9874 91.7816 40.7126 93.2048C38.7251 94.4238 37.0833 96.0165 35.5457 97.6492C34.0745 98.8356 32.6812 100.157 31.4206 101.539C30.1417 102.946 29.0528 104.458 28.0784 106.055C24.8592 107.724 21.7177 109.527 18.5991 111.539C17.0353 112.312 15.0776 113.134 12.9141 113.038Z" fill="url(#paint7_linear_1549_1902)"/>
<path d="M49.4586 123.694C53.6287 124.99 57.839 125.934 61.9222 127.584C66.5834 129.478 71.0567 132.337 75.4843 134.78C84.0453 139.522 92.888 143.292 101.825 147.057C102.27 147.238 101.722 147.552 101.466 147.475C96.9595 146.27 92.5135 144.805 88.1098 143.105C83.5837 141.389 79.1847 138.968 74.9288 136.653C70.6443 134.317 66.614 131.523 62.3192 129.142C58.1858 126.843 53.6504 125.616 49.2857 123.984C48.9262 123.867 49.2216 123.592 49.4586 123.694Z" fill="url(#paint8_linear_1549_1902)"/>
<path d="M176.943 66.58C169.681 52.7744 156.501 41.1337 142.156 34.2667C141.891 34.1438 142.235 33.9825 142.415 34.041C157.08 40.4224 171.393 51.9218 177.59 66.4926C177.689 66.7191 177.07 66.8279 176.943 66.58Z" fill="url(#paint9_linear_1549_1902)"/>
<path d="M155.178 137.805C159.968 134.758 164.478 131.309 168.288 127.183C172.08 123.081 175.069 118.262 177.336 113.093C179.425 108.401 180.751 103.175 181.655 97.9754C182.567 92.7057 182.713 87.2051 181.947 81.669C181.945 81.5528 182.197 81.5136 182.228 81.6513C184.283 92.5044 182.854 103.531 178.971 113.06C174.494 123.976 166.479 132.695 155.99 138.452C155.488 138.763 154.51 138.22 155.178 137.805Z" fill="url(#paint10_linear_1549_1902)"/>
<path d="M32.8306 128.628C32.3613 128.657 31.9205 128.708 31.5817 128.683C28.9693 128.708 26.8825 128.212 24.5039 126.733C28.5337 125.176 32.3812 125.352 36.5031 128.024C37.0365 128.386 37.5985 128.769 38.1422 129.177C36.9792 128.343 34.5672 128.518 32.8306 128.628Z" fill="url(#paint11_linear_1549_1902)"/>
<path d="M34.8308 106.466C41.4753 104.046 48.2341 102.666 55.9004 103.951C63.8872 105.285 71.8668 109.133 79.3782 112.592C93.2346 118.978 107.718 126.674 122.593 126.992C123.863 127.028 125.112 126.973 126.361 126.917C126.924 126.882 127.019 127.411 126.494 127.514C119.184 128.557 111.55 127.944 103.96 126.259C101.005 125.608 98.122 124.742 95.2259 123.715C98.2535 125.223 101.336 126.657 104.49 127.878C111.336 130.494 118.158 131.832 125.182 132.483C132.79 133.19 140.16 131.352 146.075 127.698C146.308 127.567 146.933 127.807 146.609 128.06C141.137 132.314 134.224 133.96 126.977 134.859C119.794 135.731 112.139 134.073 104.928 131.526C96.94 128.703 89.3783 124.596 81.9449 120.318C76.2135 117.049 70.5978 113.448 64.7382 110.35C63.1551 109.659 61.5537 108.992 59.9523 108.325C56.153 106.773 52.3445 105.711 48.4295 105.446C44.6553 105.172 40.9439 105.708 37.4248 106.465C36.6945 106.604 35.9744 106.789 35.2257 106.953C34.9258 106.995 34.3923 106.633 34.8308 106.466Z" fill="url(#paint12_linear_1549_1902)"/>
<path d="M35.9835 83.288C38.9979 81.2364 41.0635 78.2441 43.1496 75.3436C45.2907 72.3698 47.6138 69.5707 50.08 66.8789C55.4726 61.0009 61.45 55.7143 68.3398 51.4172C74.8952 47.3273 82.3915 44.2485 90.469 43.0177C97.4224 41.9742 104.772 42.9069 111.973 44.4538C114.352 44.9786 116.751 45.5951 119.132 46.2361C119.794 46.427 119.354 47.0132 118.854 46.9051C111.402 45.5136 104.005 44.0489 96.6871 44.743C88.9004 45.4668 81.4877 48.4938 74.9942 51.905C67.8115 55.6388 61.5009 60.7138 55.6173 65.9945C52.6612 68.6241 49.7829 71.3884 47.019 74.2386C44.467 76.866 42.1256 79.6896 39.1238 81.9032C38.2903 82.5375 37.3893 83.083 36.4494 83.5611C36.2742 83.735 35.6778 83.5167 35.9835 83.288Z" fill="url(#paint13_linear_1549_1902)"/>
<path d="M37.2951 90.7208C43.5595 88.092 48.4815 83.6165 54.1279 80.1424C59.0874 77.1072 64.3456 74.4488 69.9254 72.375C80.7302 68.3429 93.8837 66.1871 106.204 70.9247C107.558 71.4443 106.393 72.402 105.429 72.137C92.9824 68.6406 81.1363 70.3649 70.3052 74.4918C64.9783 76.5263 59.9342 79.0782 55.0537 81.8292C49.3272 85.0523 44.3092 89.4175 37.5549 91.0302C37.3775 91.0879 37.0157 90.8548 37.2951 90.7208Z" fill="url(#paint14_linear_1549_1902)"/>
<path d="M45.3538 97.5653C58.5981 92.8442 74.3369 96.4821 88.0994 102.874C89.37 103.445 87.7902 104.359 86.9957 104.107C80.187 101.977 73.4184 99.4951 66.5432 97.8113C59.3475 96.0778 52.0875 95.8609 45.5381 97.8562C45.3137 97.9169 45.0642 97.6534 45.3538 97.5653Z" fill="url(#paint15_linear_1549_1902)"/>
<path d="M40.9648 23.1736C43.6755 24.3289 45.8337 21.7496 47.9562 20.7083C48.4679 20.4433 49.0369 20.2213 49.6162 20.0452C51.3334 19.4249 53.2738 19.163 55.1558 19.277C56.8683 19.3784 58.6037 19.6878 60.2315 20.2599C62.0332 21.077 65.5634 22.8089 65.6663 24.2218C64.849 23.7615 63.987 23.4202 63.109 23.2197C60.3056 22.6053 57.85 23.435 55.859 24.9567C53.2384 26.9601 50.3247 29.3544 46.3045 27.5603C44.1331 26.5804 42.4379 24.9654 40.9648 23.1736Z" fill="url(#paint16_linear_1549_1902)"/>
<path d="M79.7288 152.545C78.0724 151.951 76.4481 151.076 74.7573 150.648C74.2285 150.518 73.7099 150.435 73.1833 150.421C73.3322 150.342 73.4627 150.287 73.5932 150.232C75.7855 149.396 78.3968 148.836 80.9278 148.979C83.7508 149.15 86.2187 150.39 88.516 152.037C85.7215 152.841 82.776 153.609 79.7288 152.545Z" fill="url(#paint17_linear_1549_1902)"/>
<path d="M102.607 33.038C108.699 30.2804 115.81 30.0414 122.893 30.8511C131.098 31.7764 139.28 33.9828 146.941 37.8973C154.764 41.8948 161.981 47.1172 167.87 53.6333C173.538 59.9073 178.022 67.1635 180.615 74.7949C180.794 75.2723 179.724 75.3863 179.491 74.9822C171.548 61.0101 159.537 49.4818 145.268 41.2604C138.434 37.317 131.324 34.6939 123.841 33.1648C116.801 31.7007 109.312 31.3121 102.973 33.5036C102.702 33.5672 102.215 33.2023 102.607 33.038Z" fill="url(#paint18_linear_1549_1902)"/>
<path d="M158.997 118.996C167.81 109.691 174.237 97.6051 172.147 83.5198C171.022 75.9587 167.542 68.616 162.696 62.0806C160.109 58.6139 157.157 55.2167 154.098 52.0823C150.721 48.5955 146.978 45.5972 142.586 43.5241C142.292 43.3798 142.673 43.1696 142.91 43.271C151.297 46.8141 157.672 53.695 163.388 60.5012C168.748 66.8878 172.563 74.0233 174.254 81.6651C177.358 95.7097 171.495 108.295 162.157 117.168C161.373 117.915 160.56 118.641 159.718 119.346C159.441 119.596 158.676 119.365 158.997 118.996Z" fill="url(#paint19_linear_1549_1902)"/>
<path d="M120.255 145.847C127.677 144.239 135.107 142.561 142.047 139.866C149.584 136.971 155.712 132.14 160.929 126.436C166.201 120.658 170.627 113.864 173.851 106.704C175.491 103.087 176.732 99.2853 177.766 95.4041C178.764 91.688 179.753 87.926 179.485 83.8708C179.452 83.617 180.034 83.557 180.049 83.8353C180.536 87.5974 179.976 91.1462 179.321 94.701C178.591 98.6562 177.641 102.486 176.267 106.225C173.51 113.775 169.171 120.634 164.083 126.702C159.104 132.624 153.084 137.611 145.712 140.821C138.602 143.922 130.688 145.352 122.798 146.571C122.104 146.661 121.421 146.798 120.727 146.888C119.903 147.033 119.376 146.066 120.255 145.847Z" fill="url(#paint20_linear_1549_1902)"/>
<path d="M77.8848 121.738C88.426 128.728 100.793 133.463 112.751 135.524C124.54 137.573 136.989 137.37 145.911 130.78C146.42 130.399 146.948 129.994 147.447 129.567C147.771 129.313 148.706 129.557 148.283 130.003C140.974 137.84 129.038 139.802 117.498 138.436C105.515 137.004 93.4659 132.203 82.7827 125.64C80.9089 124.502 79.1084 123.266 77.3445 121.981C77.0583 121.767 77.6559 121.566 77.8848 121.738Z" fill="url(#paint21_linear_1549_1902)"/>
<path d="M88.5768 24.0807C91.5773 23.24 94.4508 22.1513 97.4616 21.3564C100.509 20.5127 103.631 20.1064 106.937 19.991C113.719 19.7727 120.551 20.7379 127.38 22.4247C139.799 25.4808 152.617 32.1183 161.021 42.315C161.281 42.6244 160.514 42.8124 160.293 42.5704C151.454 33.1922 138.894 27.283 126.903 24.0137C120.383 22.2144 113.728 21.1915 107.184 21.0923C100.622 21.0175 94.8708 22.9625 88.7405 24.2798C88.5344 24.3161 88.3524 24.1414 88.5768 24.0807Z" fill="url(#paint22_linear_1549_1902)"/>
<path d="M90.4029 149.103C101.849 153.338 114.142 154.773 125.623 154.072C137.169 153.344 148.387 150.728 158.343 146.098C158.753 145.91 159.589 146.345 158.994 146.662C149.126 152.008 138.119 155.774 126.189 156.596C114.072 157.43 101.765 155.297 90.1464 149.445C89.795 149.258 90.1945 149.023 90.4029 149.103Z" fill="url(#paint23_linear_1549_1902)"/>
<path d="M73.0685 22.9419C82.8019 17.9536 92.905 13.1281 104.171 11.0447C109.612 10.0501 115.275 9.83251 121.011 10.4713C126.964 11.1197 133.547 12.7754 138.94 16.0187C139.71 16.482 138.77 16.9601 138.26 16.8062C132.37 15.0602 126.648 13.2105 120.638 12.5192C115.183 11.8627 109.728 12.1601 104.546 12.9291C93.4875 14.5572 83.4039 18.9394 73.8331 23.5917C73.3397 23.8322 72.4079 23.286 73.0685 22.9419Z" fill="url(#paint24_linear_1549_1902)"/>
<path d="M122.95 159.012C126.095 158.814 129.221 158.64 132.224 157.915C133.103 157.697 133.948 158.597 132.912 158.965C129.84 160.02 126.321 159.823 122.951 159.547C122.471 159.531 122.556 159.06 122.95 159.012Z" fill="url(#paint25_linear_1549_1902)"/>
<path d="M181.401 53.3627C176.011 43.9765 168.843 36.0053 160.653 28.564C156.318 24.6258 151.896 21.0421 146.957 17.9099C141.989 14.7562 136.759 12.1309 131.521 9.57595C131.094 9.37019 131.671 9.07785 131.965 9.22217C137.425 11.6002 142.831 14.0516 148.068 17.0254C153.333 20.0207 157.945 23.7088 162.488 27.727C170.731 34.9788 178.881 43.1905 182.724 53.2095C182.931 53.7084 181.674 53.8342 181.401 53.3627Z" fill="url(#paint26_linear_1549_1902)"/>
<path d="M144.825 20.3945C144.292 20.0326 145.028 19.7069 145.408 19.9156C147.574 21.0821 150.091 22.4358 151.835 24.164C152.381 24.688 151.335 25.01 150.898 24.7583C148.74 23.5215 146.891 21.7534 144.825 20.3945Z" fill="url(#paint27_linear_1549_1902)"/>
<defs>
<linearGradient id="paint0_linear_1549_1902" x1="40.0791" y1="126.204" x2="138.872" y2="30.0214" gradientUnits="userSpaceOnUse">
<stop stop-color="#EA9300"/>
<stop offset="1" stop-color="#D90011"/>
</linearGradient>
<linearGradient id="paint1_linear_1549_1902" x1="49.2798" y1="137.654" x2="145.188" y2="35.5744" gradientUnits="userSpaceOnUse">
<stop stop-color="#D90011"/>
<stop offset="1" stop-color="#F2C888"/>
</linearGradient>
<radialGradient id="paint2_radial_1549_1902" cx="0" cy="0" r="1" gradientUnits="userSpaceOnUse" gradientTransform="translate(53.0097 168.047) scale(160.186 192.724)">
<stop stop-color="#E28F81"/>
<stop offset="1" stop-color="#EA9300"/>
</radialGradient>
<linearGradient id="paint3_linear_1549_1902" x1="-1411.33" y1="673.509" x2="-451.994" y2="-804.94" gradientUnits="userSpaceOnUse">
<stop stop-color="#D90011"/>
<stop offset="0.9987" stop-color="#CB8906"/>
</linearGradient>
<linearGradient id="paint4_linear_1549_1902" x1="52.7236" y1="340.652" x2="206.438" y2="318.81" gradientUnits="userSpaceOnUse">
<stop stop-color="#D90011"/>
<stop offset="1" stop-color="#F2C888"/>
</linearGradient>
<linearGradient id="paint5_linear_1549_1902" x1="-1.83789" y1="132.337" x2="245.879" y2="68.3011" gradientUnits="userSpaceOnUse">
<stop stop-color="#D90011"/>
<stop offset="1" stop-color="#EA9300"/>
</linearGradient>
<linearGradient id="paint6_linear_1549_1902" x1="-7.19963" y1="117.444" x2="242.054" y2="43.098" gradientUnits="userSpaceOnUse">
<stop stop-color="#D90011"/>
<stop offset="1" stop-color="#EA9300"/>
</linearGradient>
<linearGradient id="paint7_linear_1549_1902" x1="4.04111" y1="154.177" x2="243.054" y2="116.888" gradientUnits="userSpaceOnUse">
<stop stop-color="#D90011"/>
<stop offset="1" stop-color="#EA9300"/>
</linearGradient>
<linearGradient id="paint8_linear_1549_1902" x1="-1130.03" y1="290.469" x2="-892.002" y2="-469.754" gradientUnits="userSpaceOnUse">
<stop stop-color="#D90011"/>
<stop offset="1" stop-color="#EA9300"/>
</linearGradient>
<linearGradient id="paint9_linear_1549_1902" x1="811.278" y1="-32.2363" x2="760.106" y2="281.877" gradientUnits="userSpaceOnUse">
<stop stop-color="#D90011"/>
<stop offset="1" stop-color="#F2C888"/>
</linearGradient>
<linearGradient id="paint10_linear_1549_1902" x1="172.575" y1="-196.012" x2="-50.7489" y2="-132.955" gradientUnits="userSpaceOnUse">
<stop stop-color="#D90011"/>
<stop offset="1" stop-color="#F2C888"/>
</linearGradient>
<linearGradient id="paint11_linear_1549_1902" x1="-997.488" y1="466.744" x2="-427.875" y2="-532.86" gradientUnits="userSpaceOnUse">
<stop stop-color="#D90011"/>
<stop offset="0.9987" stop-color="#CB8906"/>
</linearGradient>
<linearGradient id="paint12_linear_1549_1902" x1="142.585" y1="68.1377" x2="88.1529" y2="182.292" gradientUnits="userSpaceOnUse">
<stop stop-color="#D90011"/>
<stop offset="1" stop-color="#EA9300"/>
</linearGradient>
<linearGradient id="paint13_linear_1549_1902" x1="118.321" y1="32.0099" x2="-20.5486" y2="112.363" gradientUnits="userSpaceOnUse">
<stop stop-color="#D90011"/>
<stop offset="1" stop-color="#EA9300"/>
</linearGradient>
<linearGradient id="paint14_linear_1549_1902" x1="117.738" y1="47.3885" x2="-40.3344" y2="172.695" gradientUnits="userSpaceOnUse">
<stop stop-color="#D90011"/>
<stop offset="1" stop-color="#EA9300"/>
</linearGradient>
<linearGradient id="paint15_linear_1549_1902" x1="139.793" y1="63.1741" x2="-18.9867" y2="351.566" gradientUnits="userSpaceOnUse">
<stop stop-color="#D90011"/>
<stop offset="1" stop-color="#EA9300"/>
</linearGradient>
<linearGradient id="paint16_linear_1549_1902" x1="-426.755" y1="444.83" x2="628.86" y2="-521.963" gradientUnits="userSpaceOnUse">
<stop stop-color="#D90011"/>
<stop offset="0.9987" stop-color="#CB8906"/>
</linearGradient>
<linearGradient id="paint17_linear_1549_1902" x1="-183.82" y1="245.26" x2="913.148" y2="-1001.59" gradientUnits="userSpaceOnUse">
<stop stop-color="#D90011"/>
<stop offset="0.9987" stop-color="#CB8906"/>
</linearGradient>
<linearGradient id="paint18_linear_1549_1902" x1="-9.37559" y1="123.346" x2="171.632" y2="-302.988" gradientUnits="userSpaceOnUse">
<stop stop-color="#D90011"/>
<stop offset="1" stop-color="#EA9300"/>
</linearGradient>
<linearGradient id="paint19_linear_1549_1902" x1="41.5557" y1="139.043" x2="391.041" y2="-124.961" gradientUnits="userSpaceOnUse">
<stop stop-color="#D90011"/>
<stop offset="1" stop-color="#EA9300"/>
</linearGradient>
<linearGradient id="paint20_linear_1549_1902" x1="52.6217" y1="236.154" x2="374.113" y2="178.401" gradientUnits="userSpaceOnUse">
<stop stop-color="#D90011"/>
<stop offset="1" stop-color="#EA9300"/>
</linearGradient>
<linearGradient id="paint21_linear_1549_1902" x1="-134.766" y1="220.649" x2="220.847" y2="-170.561" gradientUnits="userSpaceOnUse">
<stop stop-color="#D90011"/>
<stop offset="1" stop-color="#EA9300"/>
</linearGradient>
<linearGradient id="paint22_linear_1549_1902" x1="157.613" y1="62.5712" x2="71.6531" y2="227.088" gradientUnits="userSpaceOnUse">
<stop stop-color="#D90011"/>
<stop offset="1" stop-color="#F2C888"/>
</linearGradient>
<linearGradient id="paint23_linear_1549_1902" x1="308.918" y1="-96.3031" x2="-47.7226" y2="308.867" gradientUnits="userSpaceOnUse">
<stop stop-color="#D90011"/>
<stop offset="1" stop-color="#F2C888"/>
</linearGradient>
<linearGradient id="paint24_linear_1549_1902" x1="274.53" y1="-165.927" x2="-133.847" y2="128.396" gradientUnits="userSpaceOnUse">
<stop stop-color="#D90011"/>
<stop offset="1" stop-color="#F2C888"/>
</linearGradient>
<linearGradient id="paint25_linear_1549_1902" x1="1029.15" y1="-1303.89" x2="-1430.92" y2="532.77" gradientUnits="userSpaceOnUse">
<stop stop-color="#D90011"/>
<stop offset="1" stop-color="#F2C888"/>
</linearGradient>
<linearGradient id="paint26_linear_1549_1902" x1="315.121" y1="50.3004" x2="281.678" y2="181.418" gradientUnits="userSpaceOnUse">
<stop stop-color="#D90011"/>
<stop offset="1" stop-color="#F2C888"/>
</linearGradient>
<linearGradient id="paint27_linear_1549_1902" x1="7579.2" y1="-1882.8" x2="6500.26" y2="2812.65" gradientUnits="userSpaceOnUse">
<stop stop-color="#D90011"/>
<stop offset="1" stop-color="#F2C888"/>
</linearGradient>
</defs>
</svg>
