<svg width="78" height="78" viewBox="0 0 78 78" fill="none" xmlns="http://www.w3.org/2000/svg">
<path d="M7.63085 39.6208C7.63085 22.5 21.51 8.61801 38.6309 8.61459C55.7517 8.61117 69.6309 22.4876 69.6309 39.6084C69.6309 56.7292 55.7517 70.6112 38.6309 70.6146C21.51 70.618 7.63085 56.7416 7.63085 39.6208Z" fill="url(#paint0_linear)"/>
<path fill-rule="evenodd" clip-rule="evenodd" d="M64.3923 39.1188C64.3923 25.1694 53.0834 13.857 39.1309 13.8542C25.1783 13.8513 13.8694 25.1592 13.8694 39.1086C13.8694 53.058 25.1783 64.3704 39.1309 64.3732C53.0834 64.3761 64.3923 53.0682 64.3923 39.1188ZM39.1309 2.6137C59.2882 2.61778 75.6309 18.9616 75.6309 39.1211C75.6309 59.2805 59.2882 75.6178 39.1309 75.6137C18.9735 75.6096 2.63086 59.2658 2.63086 39.1063C2.63086 18.9469 18.9735 2.60961 39.1309 2.6137Z" fill="black"/>
<defs>
<linearGradient id="paint0_linear" x1="25.2116" y1="13.5227" x2="46.7476" y2="70.629" gradientUnits="userSpaceOnUse">
<stop stop-color="#8A9BF6"/>
<stop offset="1" stop-color="#7C11FF"/>
</linearGradient>
</defs>
</svg>
