<svg width="73" height="73" viewBox="0 0 73 73" fill="none" xmlns="http://www.w3.org/2000/svg">
<path d="M36.3889 66.8561C53.2242 66.8561 66.8747 53.231 66.878 36.4236C66.8814 19.6163 53.2364 5.99121 36.401 5.99121C19.5657 5.99121 5.91525 19.6163 5.91189 36.4236C5.90853 53.231 19.5535 66.8561 36.3889 66.8561Z" fill="#BE7800"/>
<path fill-rule="evenodd" clip-rule="evenodd" d="M36.4001 11.5391C22.6202 11.5391 11.4629 22.6889 11.4602 36.4234C11.4574 50.1579 22.6102 61.3077 36.3901 61.3077C50.17 61.3077 61.3273 50.1579 61.33 36.4234C61.3328 22.6889 50.18 11.5391 36.4001 11.5391ZM0.363901 36.4234C0.367875 16.5432 16.5115 0.442871 36.4023 0.442871C56.2931 0.442871 72.4303 16.5432 72.4263 36.4234C72.4223 56.3036 56.2787 72.404 36.3879 72.404C16.4971 72.404 0.359928 56.3036 0.363901 36.4234Z" fill="black"/>
</svg>
