<svg width="134" height="134" viewBox="0 0 134 134" fill="none" xmlns="http://www.w3.org/2000/svg">
<path d="M67.2129 133.445C30.486 133.445 0.712889 103.653 0.712888 66.9453C0.712886 30.2378 30.4859 0.445311 67.2129 0.44531C103.94 0.445308 133.713 30.2378 133.713 66.9453C133.713 103.653 103.94 133.445 67.2129 133.445Z" fill="#320202"/>
<path d="M65.2129 126.444C34.0088 126.444 8.71289 100.908 8.71289 69.4443C8.71289 37.9808 34.0088 12.4443 65.2129 12.4443C96.417 12.4443 121.713 37.9808 121.713 69.4443C121.713 100.908 96.417 126.444 65.2129 126.444Z" fill="#750F0F"/>
<path d="M62.7129 115.444C38.4124 115.444 18.7129 95.956 18.7129 71.9443C18.7129 47.9327 38.4124 28.4443 62.7129 28.4443C87.0134 28.4443 106.713 47.9327 106.713 71.9443C106.713 95.956 87.0134 115.444 62.7129 115.444Z" fill="#8C3022"/>
<path d="M53.1443 110.932C37.4783 107.601 30.3984 92.8947 31.1446 89.3852C31.8908 85.8757 40.1821 94.8851 55.8481 98.2162C71.5141 101.547 83.2428 96.7948 82.4966 100.304C81.7503 103.814 68.8104 114.263 53.1443 110.932Z" fill="#B95B5A"/>
</svg>
