<svg width="141" height="141" viewBox="0 0 141 141" fill="none" xmlns="http://www.w3.org/2000/svg">
<mask id="mask0" mask-type="alpha" maskUnits="userSpaceOnUse" x="0" y="0" width="141" height="141">
<path d="M140.752 70.6614C140.752 32.003 109.412 0.665465 70.752 0.667018C32.092 0.668571 0.751949 32.0086 0.75195 70.667C0.751952 109.325 32.092 140.663 70.752 140.661C109.412 140.66 140.752 109.32 140.752 70.6614Z" fill="#3CA3CF"/>
</mask>
<g mask="url(#mask0)">
<path d="M70.3087 1.48215H14.4141V57.3897H70.3087V1.48215Z" fill="#007878"/>
<g style="mix-blend-mode:multiply">
<path d="M29.125 56.3203C35.5755 56.3203 40.8047 51.09 40.8047 44.6379C40.8047 38.1859 35.5755 32.9555 29.125 32.9555C22.6745 32.9555 17.4453 38.1859 17.4453 44.6379C17.4453 51.09 22.6745 56.3203 29.125 56.3203Z" stroke="#007878" stroke-width="1.56206" stroke-miterlimit="10"/>
</g>
<path d="M44.5595 9.20659L32.4023 4.45096L27.6478 16.6109L39.8049 21.3665L44.5595 9.20659Z" stroke="#E6E7E8" stroke-width="1.243" stroke-miterlimit="10"/>
<path d="M25.6108 22.0753L21.123 18.452L17.5006 22.9408L21.9883 26.564L25.6108 22.0753Z" stroke="#E6E7E8" stroke-width="0.548384" stroke-miterlimit="10"/>
<g style="mix-blend-mode:multiply">
<path d="M43.0586 34.9138L54.8452 36.9601L50.6657 26.0375L43.0586 34.9138Z" fill="#007878"/>
</g>
<path d="M41.0879 33.3259L52.8745 35.3684L48.695 24.4496L41.0879 33.3259Z" fill="#FF9600"/>
<g style="mix-blend-mode:multiply">
<path d="M58.2217 23.0444C62.7139 23.0444 66.3555 19.4019 66.3555 14.9087C66.3555 10.4155 62.7139 6.77304 58.2217 6.77304C53.7295 6.77304 50.0879 10.4155 50.0879 14.9087C50.0879 19.4019 53.7295 23.0444 58.2217 23.0444Z" stroke="#007878" stroke-width="1.09012" stroke-miterlimit="10"/>
</g>
<path d="M63.9145 43.0768L60.4106 46.8488L56.6433 43.3441L54.5059 45.6462L58.2731 49.1471L54.773 52.9153L57.0708 55.0532L60.5747 51.2851L64.342 54.786L66.4795 52.4877L62.7122 48.9829L66.2123 45.2148L63.9145 43.0768Z" fill="#2BCCB5"/>
<path d="M24.4355 22.5865L38.2145 16.5545" stroke="#FF9600" stroke-width="0.777708" stroke-miterlimit="10"/>
<path d="M25.625 25.1179L39.404 19.0858" stroke="#FF9600" stroke-width="0.777708" stroke-miterlimit="10"/>
<path d="M26.8145 27.6491L40.5935 21.6132" stroke="#FF9600" stroke-width="0.777708" stroke-miterlimit="10"/>
<path d="M28.002 30.1804L41.781 24.1445" stroke="#FF9600" stroke-width="0.777708" stroke-miterlimit="10"/>
<path d="M64.7051 36.6135V28.3557" stroke="#284664" stroke-width="2.17692" stroke-miterlimit="10" stroke-linecap="round"/>
<path d="M24.3967 12.2977L19.0684 5.99454" stroke="#284664" stroke-width="2.17692" stroke-miterlimit="10" stroke-linecap="round"/>
<path d="M30.0762 48.6049C33.8931 47.3106 34.7939 50.0022 38.5993 48.7041C42.4047 47.4061 41.4849 44.7184 45.2865 43.4203C49.0881 42.1223 50.008 44.8138 53.8096 43.5196C57.6113 42.2253 56.6952 39.53 60.4968 38.2358" stroke="#E6E7E8" stroke-width="0.990415" stroke-miterlimit="10" stroke-linecap="round"/>
<path d="M31.4238 52.5945C35.2407 51.3003 36.1415 53.9918 39.947 52.6937C43.7524 51.3957 42.8325 48.708 46.6342 47.4099C50.4358 46.1119 51.3557 48.8073 55.1573 47.5092C58.9589 46.2112 58.0429 43.5196 61.8445 42.2254" stroke="#E6E7E8" stroke-width="0.990415" stroke-miterlimit="10" stroke-linecap="round"/>
<path d="M14.4142 1.48215H-41.4805V57.3897H14.4142V1.48215Z" fill="#007878"/>
<g style="mix-blend-mode:multiply">
<path d="M2.32717 23.0444C6.81935 23.0444 10.461 19.4019 10.461 14.9087C10.461 10.4155 6.81935 6.77304 2.32717 6.77304C-2.16501 6.77304 -5.80664 10.4155 -5.80664 14.9087C-5.80664 19.4019 -2.16501 23.0444 2.32717 23.0444Z" stroke="#007878" stroke-width="1.09012" stroke-miterlimit="10"/>
</g>
<path d="M8.01998 43.0768L4.51607 46.8488L0.748791 43.3441L-1.38867 45.6462L2.37861 49.1471L-1.12149 52.9153L1.17628 55.0532L4.6802 51.2851L8.44747 54.786L10.5849 52.4877L6.81384 48.9829L10.3178 45.2148L8.01998 43.0768Z" fill="#2BCCB5"/>
<path d="M8.81055 36.6135V28.3557" stroke="#284664" stroke-width="2.17692" stroke-miterlimit="10" stroke-linecap="round"/>
<path d="M-25.832 48.6049C-22.0151 47.3106 -21.1143 50.0022 -17.3089 48.7041C-13.5034 47.4061 -14.4233 44.7184 -10.6217 43.4203C-6.82006 42.1223 -5.90019 44.8138 -2.09856 43.5196C1.70307 42.2253 0.787015 39.53 4.58865 38.2358" stroke="#E6E7E8" stroke-width="0.990415" stroke-miterlimit="10" stroke-linecap="round"/>
<path d="M-24.4648 52.5945C-20.6479 51.3003 -19.7472 53.9918 -15.9417 52.6937C-12.1363 51.3957 -13.0561 48.708 -9.25451 47.4099C-5.45287 46.1119 -4.533 48.8073 -0.731371 47.5092C3.07026 46.2112 2.1542 43.5196 5.95583 42.2254" stroke="#E6E7E8" stroke-width="0.990415" stroke-miterlimit="10" stroke-linecap="round"/>
<path d="M70.3087 -54.426H14.4141V1.48155H70.3087V-54.426Z" fill="#007878"/>
<g style="mix-blend-mode:multiply">
<path d="M29.125 0.413322C35.5755 0.413322 40.8047 -4.81707 40.8047 -11.2691C40.8047 -17.7211 35.5755 -22.9515 29.125 -22.9515C22.6745 -22.9515 17.4453 -17.7211 17.4453 -11.2691C17.4453 -4.81707 22.6745 0.413322 29.125 0.413322Z" stroke="#007878" stroke-width="1.56206" stroke-miterlimit="10"/>
</g>
<path d="M14.4142 -54.426H-41.4805V1.48155H14.4142V-54.426Z" fill="#007878"/>
<path d="M3.06641 12.6561L12.9407 2.77948" stroke="#E6E7E8" stroke-width="1.17321" stroke-miterlimit="10" stroke-linecap="round"/>
<path d="M182.096 1.48215H126.201V57.3897H182.096V1.48215Z" fill="#007878"/>
<g style="mix-blend-mode:multiply">
<path d="M140.91 56.3203C147.361 56.3203 152.59 51.09 152.59 44.6379C152.59 38.1859 147.361 32.9555 140.91 32.9555C134.46 32.9555 129.23 38.1859 129.23 44.6379C129.23 51.09 134.46 56.3203 140.91 56.3203Z" stroke="#007878" stroke-width="1.56206" stroke-miterlimit="10"/>
</g>
<path d="M156.347 9.20659L144.189 4.45096L139.435 16.6109L151.592 21.3665L156.347 9.20659Z" stroke="#E6E7E8" stroke-width="1.243" stroke-miterlimit="10"/>
<path d="M137.396 22.0753L132.908 18.452L129.286 22.9408L133.774 26.564L137.396 22.0753Z" stroke="#E6E7E8" stroke-width="0.548384" stroke-miterlimit="10"/>
<path d="M136.221 22.5865L150 16.5545" stroke="#FF9600" stroke-width="0.777708" stroke-miterlimit="10"/>
<path d="M137.412 25.1179L151.191 19.0858" stroke="#FF9600" stroke-width="0.777708" stroke-miterlimit="10"/>
<path d="M138.6 27.6491L152.379 21.6132" stroke="#FF9600" stroke-width="0.777708" stroke-miterlimit="10"/>
<path d="M139.787 30.1804L153.566 24.1445" stroke="#FF9600" stroke-width="0.777708" stroke-miterlimit="10"/>
<path d="M136.182 12.2977L130.854 5.99454" stroke="#284664" stroke-width="2.17692" stroke-miterlimit="10" stroke-linecap="round"/>
<path d="M126.201 1.48215H70.3066V57.3897H126.201V1.48215Z" fill="#007878"/>
<g style="mix-blend-mode:multiply">
<path d="M85.0176 56.3203C91.4681 56.3203 96.6973 51.09 96.6973 44.6379C96.6973 38.1859 91.4681 32.9555 85.0176 32.9555C78.5671 32.9555 73.3379 38.1859 73.3379 44.6379C73.3379 51.09 78.5671 56.3203 85.0176 56.3203Z" stroke="#007878" stroke-width="1.56206" stroke-miterlimit="10"/>
</g>
<path d="M100.45 9.20434L88.293 4.4487L83.5384 16.6086L95.6956 21.3643L100.45 9.20434Z" stroke="#E6E7E8" stroke-width="1.243" stroke-miterlimit="10"/>
<path d="M81.3813 22.2365L76.8828 18.6023L73.2494 23.1018L77.7479 26.7361L81.3813 22.2365Z" stroke="#E6E7E8" stroke-width="0.548384" stroke-miterlimit="10"/>
<g style="mix-blend-mode:multiply">
<path d="M98.9492 34.9138L110.736 36.9601L106.556 26.0375L98.9492 34.9138Z" fill="#007878"/>
</g>
<path d="M96.9785 33.3259L108.765 35.3684L104.586 24.4496L96.9785 33.3259Z" fill="#FF9600"/>
<g style="mix-blend-mode:multiply">
<path d="M114.114 23.0444C118.606 23.0444 122.248 19.4019 122.248 14.9087C122.248 10.4155 118.606 6.77304 114.114 6.77304C109.622 6.77304 105.98 10.4155 105.98 14.9087C105.98 19.4019 109.622 23.0444 114.114 23.0444Z" stroke="#007878" stroke-width="1.09012" stroke-miterlimit="10"/>
</g>
<path d="M119.807 43.0768L116.303 46.8488L112.536 43.3441L110.398 45.6462L114.166 49.1471L110.666 52.9153L112.963 55.0532L116.467 51.2851L120.235 54.786L122.372 52.4877L118.601 48.9829L122.105 45.2148L119.807 43.0768Z" fill="#2BCCB5"/>
<path d="M80.3262 22.5865L94.1052 16.5545" stroke="#FF9600" stroke-width="0.777708" stroke-miterlimit="10"/>
<path d="M81.5176 25.1179L95.2966 19.0858" stroke="#FF9600" stroke-width="0.777708" stroke-miterlimit="10"/>
<path d="M82.7051 27.6491L96.4841 21.6132" stroke="#FF9600" stroke-width="0.777708" stroke-miterlimit="10"/>
<path d="M83.8926 30.1804L97.6716 24.1445" stroke="#FF9600" stroke-width="0.777708" stroke-miterlimit="10"/>
<path d="M120.598 36.6135V28.3557" stroke="#284664" stroke-width="2.17692" stroke-miterlimit="10" stroke-linecap="round"/>
<path d="M80.2874 12.2977L74.959 5.99454" stroke="#284664" stroke-width="2.17692" stroke-miterlimit="10" stroke-linecap="round"/>
<path d="M85.9551 48.6049C89.772 47.3106 90.6728 50.0022 94.4782 48.7041C98.2837 47.4061 97.3638 44.7184 101.165 43.4203C104.967 42.1223 105.887 44.8138 109.689 43.5196C113.49 42.2253 112.574 39.53 116.376 38.2358" stroke="#E6E7E8" stroke-width="0.990415" stroke-miterlimit="10" stroke-linecap="round"/>
<path d="M87.3223 52.5945C91.1392 51.3003 92.04 53.9918 95.8454 52.6937C99.6508 51.3957 98.731 48.708 102.533 47.4099C106.334 46.1119 107.254 48.8073 111.056 47.5092C114.857 46.2112 113.941 43.5196 117.743 42.2254" stroke="#E6E7E8" stroke-width="0.990415" stroke-miterlimit="10" stroke-linecap="round"/>
<path d="M182.096 -54.426H126.201V1.48155H182.096V-54.426Z" fill="#007878"/>
<g style="mix-blend-mode:multiply">
<path d="M140.91 0.413322C147.361 0.413322 152.59 -4.81707 152.59 -11.2691C152.59 -17.7211 147.361 -22.9515 140.91 -22.9515C134.46 -22.9515 129.23 -17.7211 129.23 -11.2691C129.23 -4.81707 134.46 0.413322 140.91 0.413322Z" stroke="#007878" stroke-width="1.56206" stroke-miterlimit="10"/>
</g>
<path d="M126.201 -54.426H70.3066V1.48155H126.201V-54.426Z" fill="#007878"/>
<g style="mix-blend-mode:multiply">
<path d="M85.0176 0.413322C91.4681 0.413322 96.6973 -4.81707 96.6973 -11.2691C96.6973 -17.7211 91.4681 -22.9515 85.0176 -22.9515C78.5671 -22.9515 73.3379 -17.7211 73.3379 -11.2691C73.3379 -4.81707 78.5671 0.413322 85.0176 0.413322Z" stroke="#007878" stroke-width="1.56206" stroke-miterlimit="10"/>
</g>
<path d="M114.854 12.6561L124.728 2.77948" stroke="#E6E7E8" stroke-width="1.17321" stroke-miterlimit="10" stroke-linecap="round"/>
<path d="M70.3087 113.297H14.4141V169.205H70.3087V113.297Z" fill="#007878"/>
<path d="M44.5595 121.022L32.4023 116.266L27.6478 128.426L39.8049 133.182L44.5595 121.022Z" stroke="#E6E7E8" stroke-width="1.243" stroke-miterlimit="10"/>
<path d="M25.6108 133.89L21.123 130.267L17.5006 134.756L21.9883 138.379L25.6108 133.89Z" stroke="#E6E7E8" stroke-width="0.548384" stroke-miterlimit="10"/>
<g style="mix-blend-mode:multiply">
<path d="M43.0586 146.729L54.8452 148.775L50.6657 137.853L43.0586 146.729Z" fill="#007878"/>
</g>
<path d="M41.0879 145.141L52.8745 147.184L48.695 136.265L41.0879 145.141Z" fill="#FF9600"/>
<g style="mix-blend-mode:multiply">
<path d="M58.2217 134.86C62.7139 134.86 66.3555 131.217 66.3555 126.724C66.3555 122.231 62.7139 118.588 58.2217 118.588C53.7295 118.588 50.0879 122.231 50.0879 126.724C50.0879 131.217 53.7295 134.86 58.2217 134.86Z" stroke="#007878" stroke-width="1.09012" stroke-miterlimit="10"/>
</g>
<path d="M24.4355 134.402L38.2145 128.37" stroke="#FF9600" stroke-width="0.777708" stroke-miterlimit="10"/>
<path d="M25.625 136.933L39.404 130.901" stroke="#FF9600" stroke-width="0.777708" stroke-miterlimit="10"/>
<path d="M26.8145 139.464L40.5935 133.428" stroke="#FF9600" stroke-width="0.777708" stroke-miterlimit="10"/>
<path d="M28.002 141.995L41.781 135.96" stroke="#FF9600" stroke-width="0.777708" stroke-miterlimit="10"/>
<path d="M64.7051 148.429V140.171" stroke="#284664" stroke-width="2.17692" stroke-miterlimit="10" stroke-linecap="round"/>
<path d="M24.3967 124.113L19.0684 117.81" stroke="#284664" stroke-width="2.17692" stroke-miterlimit="10" stroke-linecap="round"/>
<path d="M14.4142 113.297H-41.4805V169.205H14.4142V113.297Z" fill="#007878"/>
<g style="mix-blend-mode:multiply">
<path d="M2.32717 134.86C6.81935 134.86 10.461 131.217 10.461 126.724C10.461 122.231 6.81935 118.588 2.32717 118.588C-2.16501 118.588 -5.80664 122.231 -5.80664 126.724C-5.80664 131.217 -2.16501 134.86 2.32717 134.86Z" stroke="#007878" stroke-width="1.09012" stroke-miterlimit="10"/>
</g>
<path d="M8.81055 148.429V140.171" stroke="#284664" stroke-width="2.17692" stroke-miterlimit="10" stroke-linecap="round"/>
<path d="M70.3087 57.3892H14.4141V113.297H70.3087V57.3892Z" fill="#007878"/>
<g style="mix-blend-mode:multiply">
<path d="M29.125 112.228C35.5755 112.228 40.8047 106.998 40.8047 100.546C40.8047 94.0941 35.5755 88.8637 29.125 88.8637C22.6745 88.8637 17.4453 94.0941 17.4453 100.546C17.4453 106.998 22.6745 112.228 29.125 112.228Z" stroke="#007878" stroke-width="1.56206" stroke-miterlimit="10"/>
</g>
<path d="M44.5634 65.1175L32.4062 60.3619L27.6517 72.5218L39.8088 77.2774L44.5634 65.1175Z" stroke="#E6E7E8" stroke-width="1.243" stroke-miterlimit="10"/>
<path d="M25.6108 77.9828L21.123 74.3595L17.5006 78.8483L21.9883 82.4716L25.6108 77.9828Z" stroke="#E6E7E8" stroke-width="0.548384" stroke-miterlimit="10"/>
<g style="mix-blend-mode:multiply">
<path d="M43.0586 90.8219L54.8452 92.8644L50.6657 81.9456L43.0586 90.8219Z" fill="#007878"/>
</g>
<path d="M41.0879 89.2335L52.8745 91.276L48.695 80.3572L41.0879 89.2335Z" fill="#FF9600"/>
<g style="mix-blend-mode:multiply">
<path d="M58.2217 78.9526C62.7139 78.9526 66.3555 75.3101 66.3555 70.8169C66.3555 66.3237 62.7139 62.6812 58.2217 62.6812C53.7295 62.6812 50.0879 66.3237 50.0879 70.8169C50.0879 75.3101 53.7295 78.9526 58.2217 78.9526Z" stroke="#007878" stroke-width="1.09012" stroke-miterlimit="10"/>
</g>
<path d="M63.9145 98.9844L60.4106 102.756L56.6433 99.2517L54.5059 101.55L58.2731 105.055L54.773 108.823L57.0708 110.961L60.5747 107.193L64.342 110.694L66.4795 108.395L62.7122 104.891L66.2123 101.122L63.9145 98.9844Z" fill="#2BCCB5"/>
<path d="M24.4355 78.4941L38.2145 72.462" stroke="#FF9600" stroke-width="0.777708" stroke-miterlimit="10"/>
<path d="M25.625 81.0254L39.404 74.9933" stroke="#FF9600" stroke-width="0.777708" stroke-miterlimit="10"/>
<path d="M26.8145 83.5572L40.5935 77.5213" stroke="#FF9600" stroke-width="0.777708" stroke-miterlimit="10"/>
<path d="M28.002 86.0879L41.781 80.052" stroke="#FF9600" stroke-width="0.777708" stroke-miterlimit="10"/>
<path d="M64.7051 92.5206V84.2666" stroke="#284664" stroke-width="2.17692" stroke-miterlimit="10" stroke-linecap="round"/>
<path d="M24.3967 68.2058L19.0684 61.9026" stroke="#284664" stroke-width="2.17692" stroke-miterlimit="10" stroke-linecap="round"/>
<path d="M30.0762 104.513C33.8931 103.219 34.7939 105.91 38.5993 104.612C42.4047 103.314 41.4849 100.626 45.2865 99.3284C49.0881 98.0304 50.008 100.722 53.8096 99.4277C57.6113 98.1335 56.6952 95.4381 60.4968 94.1439" stroke="#E6E7E8" stroke-width="0.990415" stroke-miterlimit="10" stroke-linecap="round"/>
<path d="M31.4238 108.503C35.2407 107.208 36.1415 109.9 39.947 108.602C43.7524 107.304 42.8325 104.616 46.6342 103.318C50.4358 102.02 51.3557 104.715 55.1573 103.417C58.9589 102.119 58.0429 99.4278 61.8445 98.1335" stroke="#E6E7E8" stroke-width="0.990415" stroke-miterlimit="10" stroke-linecap="round"/>
<path d="M14.4142 57.3892H-41.4805V113.297H14.4142V57.3892Z" fill="#007878"/>
<g style="mix-blend-mode:multiply">
<path d="M2.32717 78.9526C6.81935 78.9526 10.461 75.3101 10.461 70.8169C10.461 66.3237 6.81935 62.6812 2.32717 62.6812C-2.16501 62.6812 -5.80664 66.3237 -5.80664 70.8169C-5.80664 75.3101 -2.16501 78.9526 2.32717 78.9526Z" stroke="#007878" stroke-width="1.09012" stroke-miterlimit="10"/>
</g>
<path d="M8.01998 98.9844L4.51607 102.756L0.748791 99.2517L-1.38867 101.55L2.37861 105.055L-1.12149 108.823L1.17628 110.961L4.6802 107.193L8.44747 110.694L10.5849 108.395L6.81384 104.891L10.3178 101.122L8.01998 98.9844Z" fill="#2BCCB5"/>
<path d="M8.81055 92.5206V84.2666" stroke="#284664" stroke-width="2.17692" stroke-miterlimit="10" stroke-linecap="round"/>
<path d="M-25.832 104.513C-22.0151 103.219 -21.1143 105.91 -17.3089 104.612C-13.5034 103.314 -14.4233 100.626 -10.6217 99.3284C-6.82006 98.0304 -5.90019 100.722 -2.09856 99.4277C1.70307 98.1335 0.787015 95.4381 4.58865 94.1439" stroke="#E6E7E8" stroke-width="0.990415" stroke-miterlimit="10" stroke-linecap="round"/>
<path d="M-24.4648 108.503C-20.6479 107.208 -19.7472 109.9 -15.9417 108.602C-12.1363 107.304 -13.0561 104.616 -9.25451 103.318C-5.45287 102.02 -4.533 104.715 -0.731371 103.417C3.07026 102.119 2.1542 99.4278 5.95583 98.1335" stroke="#E6E7E8" stroke-width="0.990415" stroke-miterlimit="10" stroke-linecap="round"/>
<path d="M3.06641 124.471L12.9407 114.595" stroke="#E6E7E8" stroke-width="1.17321" stroke-miterlimit="10" stroke-linecap="round"/>
<g style="mix-blend-mode:multiply">
<path d="M16.8652 110.216L25.3197 109.369L20.3806 102.691L16.8652 110.216Z" fill="#007878"/>
</g>
<path d="M15.2129 109.502L23.6711 108.655L18.7283 101.977L15.2129 109.502Z" fill="#FF9600"/>
<path d="M182.096 113.297H126.201V169.205H182.096V113.297Z" fill="#007878"/>
<path d="M156.347 121.022L144.189 116.266L139.435 128.426L151.592 133.182L156.347 121.022Z" stroke="#E6E7E8" stroke-width="1.243" stroke-miterlimit="10"/>
<path d="M137.396 133.89L132.908 130.267L129.286 134.756L133.774 138.379L137.396 133.89Z" stroke="#E6E7E8" stroke-width="0.548384" stroke-miterlimit="10"/>
<path d="M136.221 134.402L150 128.37" stroke="#FF9600" stroke-width="0.777708" stroke-miterlimit="10"/>
<path d="M137.412 136.933L151.191 130.901" stroke="#FF9600" stroke-width="0.777708" stroke-miterlimit="10"/>
<path d="M138.6 139.464L152.379 133.428" stroke="#FF9600" stroke-width="0.777708" stroke-miterlimit="10"/>
<path d="M139.787 141.995L153.566 135.96" stroke="#FF9600" stroke-width="0.777708" stroke-miterlimit="10"/>
<path d="M136.182 124.113L130.854 117.81" stroke="#284664" stroke-width="2.17692" stroke-miterlimit="10" stroke-linecap="round"/>
<path d="M126.201 113.297H70.3066V169.205H126.201V113.297Z" fill="#007878"/>
<path d="M100.45 121.019L88.293 116.264L83.5384 128.424L95.6956 133.179L100.45 121.019Z" stroke="#E6E7E8" stroke-width="1.243" stroke-miterlimit="10"/>
<path d="M81.3813 134.052L76.8828 130.417L73.2494 134.917L77.7479 138.551L81.3813 134.052Z" stroke="#E6E7E8" stroke-width="0.548384" stroke-miterlimit="10"/>
<g style="mix-blend-mode:multiply">
<path d="M98.9492 146.729L110.736 148.775L106.556 137.853L98.9492 146.729Z" fill="#007878"/>
</g>
<path d="M96.9785 145.141L108.765 147.184L104.586 136.265L96.9785 145.141Z" fill="#FF9600"/>
<g style="mix-blend-mode:multiply">
<path d="M114.114 134.86C118.606 134.86 122.248 131.217 122.248 126.724C122.248 122.231 118.606 118.588 114.114 118.588C109.622 118.588 105.98 122.231 105.98 126.724C105.98 131.217 109.622 134.86 114.114 134.86Z" stroke="#007878" stroke-width="1.09012" stroke-miterlimit="10"/>
</g>
<path d="M80.3262 134.402L94.1052 128.37" stroke="#FF9600" stroke-width="0.777708" stroke-miterlimit="10"/>
<path d="M81.5176 136.933L95.2966 130.901" stroke="#FF9600" stroke-width="0.777708" stroke-miterlimit="10"/>
<path d="M82.7051 139.464L96.4841 133.428" stroke="#FF9600" stroke-width="0.777708" stroke-miterlimit="10"/>
<path d="M83.8926 141.995L97.6716 135.96" stroke="#FF9600" stroke-width="0.777708" stroke-miterlimit="10"/>
<path d="M120.598 148.429V140.171" stroke="#284664" stroke-width="2.17692" stroke-miterlimit="10" stroke-linecap="round"/>
<path d="M80.2874 124.113L74.959 117.81" stroke="#284664" stroke-width="2.17692" stroke-miterlimit="10" stroke-linecap="round"/>
<path d="M182.096 57.3892H126.201V113.297H182.096V57.3892Z" fill="#007878"/>
<g style="mix-blend-mode:multiply">
<path d="M140.91 112.228C147.361 112.228 152.59 106.998 152.59 100.546C152.59 94.0941 147.361 88.8637 140.91 88.8637C134.46 88.8637 129.23 94.0941 129.23 100.546C129.23 106.998 134.46 112.228 140.91 112.228Z" stroke="#007878" stroke-width="1.56206" stroke-miterlimit="10"/>
</g>
<path d="M156.349 65.1175L144.191 60.3619L139.437 72.5218L151.594 77.2774L156.349 65.1175Z" stroke="#E6E7E8" stroke-width="1.243" stroke-miterlimit="10"/>
<path d="M137.396 77.9828L132.908 74.3595L129.286 78.8483L133.774 82.4716L137.396 77.9828Z" stroke="#E6E7E8" stroke-width="0.548384" stroke-miterlimit="10"/>
<path d="M136.221 78.4941L150 72.462" stroke="#FF9600" stroke-width="0.777708" stroke-miterlimit="10"/>
<path d="M137.412 81.0254L151.191 74.9933" stroke="#FF9600" stroke-width="0.777708" stroke-miterlimit="10"/>
<path d="M138.6 83.5572L152.379 77.5213" stroke="#FF9600" stroke-width="0.777708" stroke-miterlimit="10"/>
<path d="M139.787 86.0879L153.566 80.052" stroke="#FF9600" stroke-width="0.777708" stroke-miterlimit="10"/>
<path d="M136.182 68.2058L130.854 61.9026" stroke="#284664" stroke-width="2.17692" stroke-miterlimit="10" stroke-linecap="round"/>
<path d="M126.201 57.3892H70.3066V113.297H126.201V57.3892Z" fill="#007878"/>
<g style="mix-blend-mode:multiply">
<path d="M85.0176 112.228C91.4681 112.228 96.6973 106.998 96.6973 100.546C96.6973 94.0941 91.4681 88.8637 85.0176 88.8637C78.5671 88.8637 73.3379 94.0941 73.3379 100.546C73.3379 106.998 78.5671 112.228 85.0176 112.228Z" stroke="#007878" stroke-width="1.56206" stroke-miterlimit="10"/>
</g>
<path d="M100.45 65.1153L88.293 60.3596L83.5384 72.5196L95.6956 77.2752L100.45 65.1153Z" stroke="#E6E7E8" stroke-width="1.243" stroke-miterlimit="10"/>
<path d="M81.5034 77.9828L77.0156 74.3595L73.3932 78.8483L77.8809 82.4716L81.5034 77.9828Z" stroke="#E6E7E8" stroke-width="0.548384" stroke-miterlimit="10"/>
<g style="mix-blend-mode:multiply">
<path d="M98.9492 90.8219L110.736 92.8644L106.556 81.9456L98.9492 90.8219Z" fill="#007878"/>
</g>
<path d="M96.9785 89.2335L108.765 91.276L104.586 80.3572L96.9785 89.2335Z" fill="#FF9600"/>
<g style="mix-blend-mode:multiply">
<path d="M114.114 78.9526C118.606 78.9526 122.248 75.3101 122.248 70.8169C122.248 66.3237 118.606 62.6812 114.114 62.6812C109.622 62.6812 105.98 66.3237 105.98 70.8169C105.98 75.3101 109.622 78.9526 114.114 78.9526Z" stroke="#007878" stroke-width="1.09012" stroke-miterlimit="10"/>
</g>
<path d="M119.807 98.9844L116.303 102.756L112.536 99.2517L110.398 101.55L114.166 105.055L110.666 108.823L112.963 110.961L116.467 107.193L120.235 110.694L122.372 108.395L118.601 104.891L122.105 101.122L119.807 98.9844Z" fill="#2BCCB5"/>
<path d="M80.3262 78.4941L94.1052 72.462" stroke="#FF9600" stroke-width="0.777708" stroke-miterlimit="10"/>
<path d="M81.5176 81.0254L95.2966 74.9933" stroke="#FF9600" stroke-width="0.777708" stroke-miterlimit="10"/>
<path d="M82.7051 83.5572L96.4841 77.5213" stroke="#FF9600" stroke-width="0.777708" stroke-miterlimit="10"/>
<path d="M83.8926 86.0879L97.6716 80.052" stroke="#FF9600" stroke-width="0.777708" stroke-miterlimit="10"/>
<path d="M120.598 92.5206V84.2666" stroke="#284664" stroke-width="2.17692" stroke-miterlimit="10" stroke-linecap="round"/>
<path d="M80.2874 68.2058L74.959 61.9026" stroke="#284664" stroke-width="2.17692" stroke-miterlimit="10" stroke-linecap="round"/>
<path d="M85.9551 104.513C89.772 103.219 90.6728 105.91 94.4782 104.612C98.2837 103.314 97.3638 100.626 101.165 99.3284C104.967 98.0304 105.887 100.722 109.689 99.4277C113.49 98.1335 112.574 95.4381 116.376 94.1439" stroke="#E6E7E8" stroke-width="0.990415" stroke-miterlimit="10" stroke-linecap="round"/>
<path d="M87.3223 108.503C91.1392 107.208 92.04 109.9 95.8454 108.602C99.6508 107.304 98.731 104.616 102.533 103.318C106.334 102.02 107.254 104.715 111.056 103.417C114.857 102.119 113.941 99.4278 117.743 98.1335" stroke="#E6E7E8" stroke-width="0.990415" stroke-miterlimit="10" stroke-linecap="round"/>
<path d="M114.854 124.471L124.728 114.595" stroke="#E6E7E8" stroke-width="1.17321" stroke-miterlimit="10" stroke-linecap="round"/>
<g style="mix-blend-mode:multiply">
<path d="M128.652 110.216L137.107 109.369L132.168 102.691L128.652 110.216Z" fill="#007878"/>
</g>
<path d="M127 109.502L135.458 108.655L130.515 101.977L127 109.502Z" fill="#FF9600"/>
</g>
</svg>
