<svg width="72" height="72" viewBox="0 0 72 72" fill="none" xmlns="http://www.w3.org/2000/svg">
<path d="M4.99999 36.4944C4.99999 53.3357 18.6553 66.9911 35.5 66.9944C52.3447 66.9978 66 53.3479 66 36.5066C66 19.6653 52.3447 6.00997 35.5 6.0066C18.6553 6.00324 5 19.6531 4.99999 36.4944Z" fill="#4E6BA8"/>
<path fill-rule="evenodd" clip-rule="evenodd" d="M60.9154 36.0052C60.9154 22.2497 49.7614 11.0945 36 11.0917C22.2386 11.089 11.0846 22.2397 11.0846 35.9953C11.0846 49.7509 22.2386 60.9061 36 60.9088C49.7614 60.9116 60.9154 49.7608 60.9154 36.0052ZM36 0.00745574C55.8812 0.011428 72 16.1281 72 36.0075C72 55.8868 55.8812 71.997 36 71.9931C16.1188 71.9891 -2.44727e-06 55.8724 -1.57653e-06 35.9931C-7.0579e-07 16.1138 16.1188 0.00348354 36 0.00745574Z" fill="black"/>
</svg>
