<svg width="78" height="78" viewBox="0 0 78 78" fill="none" xmlns="http://www.w3.org/2000/svg">
<path d="M13.2646 39.5807C13.2647 25.2213 24.9052 13.5784 39.2647 13.5755C53.6241 13.5726 65.2647 25.2109 65.2646 39.5703C65.2646 53.9297 53.6241 65.5726 39.2646 65.5755C24.9052 65.5784 13.2646 53.9401 13.2646 39.5807Z" fill="#8A510F"/>
<path d="M13.2646 39.5807C13.2647 25.2213 24.9052 13.5784 39.2647 13.5755C53.6241 13.5726 65.2647 25.2109 65.2646 39.5703C65.2646 53.9297 53.6241 65.5726 39.2646 65.5755C24.9052 65.5784 13.2646 53.9401 13.2646 39.5807Z" fill="#D5D5D5"/>
<path d="M65.2612 39.5629C65.2612 25.2131 53.6284 13.5779 39.2785 13.5751C24.9287 13.5722 13.2959 25.2027 13.2959 39.5525C13.2959 53.9023 24.9287 65.5375 39.2785 65.5403C53.6284 65.5432 65.2612 53.9127 65.2612 39.5629Z" fill="#676767"/>
<path d="M39.0703 16.1304C51.3678 16.2543 61.2208 26.317 61.087 38.6005C60.9735 49.5433 53.0048 58.547 42.5807 60.2981L43.182 64.1253C55.0741 62.0833 64.1639 51.7922 64.2946 39.3109C64.4271 26.46 55.0208 15.734 42.6755 13.8756C41.5094 13.7003 40.3071 13.5927 39.0884 13.581C37.8816 13.5713 36.6864 13.6376 35.5128 13.7939C23.1272 15.406 13.5049 25.9264 13.3725 38.7773C13.2438 51.2466 22.1138 61.7203 33.9515 64.0219L34.6168 60.2147C24.2563 58.2158 16.479 49.064 16.5904 38.1331C16.7341 25.8637 26.7968 16.0107 39.0703 16.1304Z" fill="url(#paint0_linear_2067_827)"/>
<path d="M39.0704 16.13C51.3679 16.2539 61.2208 26.3166 61.0871 38.6C60.9736 49.5429 53.0048 58.5466 42.5807 60.2977L41.4744 53.3752L35.8122 53.3166L34.6028 60.2242C24.2422 58.2252 16.4649 49.0734 16.5764 38.1426C16.7341 25.8632 26.7968 16.0102 39.0704 16.13ZM48.0653 43.7776L48.538 42.2433L30.0249 42.0522L30.4632 43.5948L48.0653 43.7776Z" fill="#FEEDC6"/>
<path d="M37.3942 13.5975L37.3829 41.6275L36.8606 41.6221L36.9721 13.69L36.9743 13.1387L36.4255 13.1901L36.1208 13.2187L35.6693 13.261L35.6674 13.7144L35.5533 41.6086L30.0296 41.5516L29.3605 41.5447L29.5435 42.1883L29.982 43.7307L30.0842 44.09L30.4578 44.0939L48.0597 44.2767L48.4329 44.2806L48.5428 43.9239L49.0152 42.3898L49.2123 41.7496L48.5425 41.7427L42.4982 41.6803L42.5966 13.8037L42.5982 13.3538L42.1509 13.3049L41.8466 13.2717L41.2943 13.2114L41.2923 13.7669L41.191 41.6668L41.0972 41.6659L40.9748 13.6526L40.9728 13.1936L40.5154 13.1564L40.2229 13.1326L39.6801 13.0884L39.6824 13.6331L39.8018 41.6525L38.6907 41.641L38.6979 13.5978L38.698 13.0977H38.1979H37.8942H37.3944L37.3942 13.5975ZM33.4694 63.9481L33.4691 63.9498L33.2287 65.3515L33.1295 65.93L33.7165 65.936L43.4168 66.0339L44.01 66.0399L43.9155 65.4542L43.6885 64.0484L43.6882 64.0466L41.993 53.3006L41.9271 52.8829L41.5043 52.8786L35.8417 52.8198L35.4172 52.8154L35.344 53.2336L33.4694 63.9481Z" fill="#394D4B" stroke="#394D4B"/>
<path fill-rule="evenodd" clip-rule="evenodd" d="M64.1624 39.5725C64.1624 53.3405 53.0066 64.4881 39.2646 64.4908C25.5227 64.4936 14.3669 53.3504 14.3669 39.5825C14.3669 25.8145 25.5227 14.6669 39.2647 14.6642C53.0066 14.6614 64.1624 25.8046 64.1624 39.5725ZM39.2646 75.5775C59.1556 75.5735 75.2646 59.4439 75.2647 39.5703C75.2647 19.6968 59.1556 3.57353 39.2647 3.57751C19.3737 3.58148 3.26465 19.7111 3.26465 39.5847C3.26465 59.4583 19.3737 75.5815 39.2646 75.5775Z" fill="black"/>
<defs>
<linearGradient id="paint0_linear_2067_827" x1="8.87423" y1="64.7995" x2="63.9597" y2="17.4687" gradientUnits="userSpaceOnUse">
<stop offset="0.0559" stop-color="#EAB692"/>
<stop offset="0.5953" stop-color="#F6D9B5"/>
<stop offset="1" stop-color="#FEEFCB"/>
</linearGradient>
</defs>
</svg>
