<svg width="134" height="134" viewBox="0 0 134 134" fill="none" xmlns="http://www.w3.org/2000/svg">
<mask id="mask0" mask-type="alpha" maskUnits="userSpaceOnUse" x="0" y="0" width="134" height="134">
<path d="M133.625 66.8987C133.625 30.1717 103.852 0.399722 67.125 0.401002C30.3981 0.402282 0.625007 30.1764 0.625005 66.9033C0.625002 103.63 30.3981 133.402 67.125 133.401C103.852 133.4 133.625 103.626 133.625 66.8987Z" fill="#3CA3CF"/>
</mask>
<g mask="url(#mask0)">
<rect x="-6.375" y="137.402" width="146" height="146" transform="rotate(-90 -6.375 137.402)" fill="#222222"/>
<path d="M-3.84933 99.3906C-5.25412 99.3906 -8.9668 92.2628 -8.9668 90.5562C-8.9668 88.8495 -3.0466 81.7217 -1.03975 81.7217C0.967096 81.7217 3.67634 89.1507 3.67634 90.5562C3.67634 91.9616 -2.44454 99.3906 -3.84933 99.3906Z" fill="#B70000"/>
<path d="M-8.9668 71.3808C-8.9668 71.3808 -2.84591 80.3156 -1.24044 79.1109C0.365042 77.9062 5.08113 73.5894 5.08113 71.3808C5.08113 69.1721 0.365038 63.249 -1.94283 63.249C-4.25071 63.249 -8.9668 71.3808 -8.9668 71.3808Z" fill="#8D1010"/>
<path d="M-8.16406 53.2097C-8.16406 55.3179 -4.05003 61.4417 -1.94284 60.8394C0.164344 60.237 3.77667 53.9124 4.17804 52.5069C4.57941 51.1014 -0.136676 45.1784 -1.34078 45.5799C-2.54489 45.9815 -8.16406 51.2018 -8.16406 53.2097Z" fill="#8D1010"/>
<path d="M-6.96041 36.2433C-6.96041 36.2433 -3.1474 43.3711 -1.44158 43.3711C0.264245 43.3711 5.08068 37.9499 5.08068 36.2433C5.08068 34.5366 0.264246 29.0151 -0.939863 29.9186C-2.14397 30.8221 -7.86349 34.637 -6.96041 36.2433Z" fill="#5E0F0F"/>
<path d="M4.30769 112.705C4.30769 112.705 7.71933 119.13 9.32481 119.13C10.8299 119.13 15.1447 114.311 15.1447 112.705C15.1447 111.099 10.8299 106.179 9.72618 106.983C8.62241 107.886 3.50495 111.299 4.30769 112.705Z" fill="#8D1010"/>
<path d="M9.09426 104.21C7.89015 104.21 4.47852 97.7849 4.47852 96.279C4.47852 94.7732 9.79666 88.3481 11.6028 88.3481C13.409 88.3481 15.9175 94.9739 15.9175 96.279C15.8172 97.4837 10.2984 104.21 9.09426 104.21Z" fill="#8D1010"/>
<path d="M4.37891 79.0107C4.37891 79.0107 9.89773 87.042 11.3025 85.9377C12.7073 84.8334 17.022 80.9182 17.022 79.0107C17.022 77.0029 12.7073 71.6822 10.7005 71.6822C8.69363 71.6822 4.37891 79.0107 4.37891 79.0107Z" fill="#8D1010"/>
<path d="M5.18164 62.6482C5.18164 64.5557 8.79396 70.0772 10.8008 69.4748C12.8077 68.9729 16.0186 63.2506 16.3196 61.9455C16.721 60.7408 12.4063 55.3197 11.3025 55.7212C10.1988 56.1228 5.18164 60.8412 5.18164 62.6482Z" fill="#5E0F0F"/>
<path d="M6.28425 47.2878C6.28425 47.2878 9.69589 53.7129 11.3014 53.7129C12.8065 53.7129 17.1212 48.8941 17.1212 47.2878C17.1212 45.6816 12.8065 40.7624 11.7027 41.5655C10.599 42.4691 5.48151 45.8823 6.28425 47.2878Z" fill="#5E0F0F"/>
<path d="M9.09426 38.7529C7.89015 38.7529 4.47852 32.3279 4.47852 30.822C4.47852 29.3161 9.79666 22.8911 11.6028 22.8911C13.409 22.8911 15.9175 29.5169 15.9175 30.822C15.8172 32.0267 10.2984 38.7529 9.09426 38.7529Z" fill="#8D1010"/>
<path d="M4.37891 13.5537C4.37891 13.5537 9.89773 21.585 11.3025 20.4807C12.7073 19.3764 17.022 15.4611 17.022 13.5537C17.022 11.5459 12.7073 6.2251 10.7005 6.2251C8.69363 6.2251 4.37891 13.5537 4.37891 13.5537Z" fill="#5E0F0F"/>
<path d="M20.123 127.908C20.123 127.908 25.1402 135.136 26.3443 134.132C27.6487 133.128 31.4617 129.614 31.4617 127.908C31.4617 126.101 27.6487 121.282 25.7422 121.282C24.0364 121.282 20.123 127.908 20.123 127.908Z" fill="#5E0F0F"/>
<path d="M18.4258 114.348C18.4258 116.055 21.7371 120.974 23.4429 120.572C25.2491 120.071 28.0586 114.951 28.46 113.846C28.761 112.742 24.948 107.923 23.9446 108.224C22.9412 108.526 18.4258 112.642 18.4258 114.348Z" fill="#5E0F0F"/>
<path d="M19.4291 100.595C19.4291 100.595 22.5398 106.418 23.9445 106.418C25.3493 106.418 29.2627 102.001 29.2627 100.595C29.2627 99.1898 25.3493 94.7725 24.3459 95.4753C23.2421 96.178 18.6264 99.2902 19.4291 100.595Z" fill="#5E0F0F"/>
<path d="M21.939 92.8633C20.8352 92.8633 17.7246 87.0406 17.7246 85.7355C17.7246 84.33 22.541 78.6077 24.1465 78.6077C25.752 78.6077 27.9595 84.6312 27.9595 85.7355C28.0599 86.7394 23.0428 92.8633 21.939 92.8633Z" fill="#5E0F0F"/>
<path d="M17.7246 70.1762C17.7246 70.1762 22.7417 77.4043 23.9458 76.4004C25.2503 75.3965 29.0633 71.8828 29.0633 70.1762C29.0633 68.3691 25.2503 63.5503 23.3438 63.5503C21.638 63.5503 17.7246 70.1762 17.7246 70.1762Z" fill="#5E0F0F"/>
<path d="M18.4258 55.4176C18.4258 57.1242 21.7371 62.0434 23.4429 61.6418C25.2491 61.1399 28.0586 56.0199 28.46 54.9156C28.761 53.8113 24.948 48.9925 23.9446 49.2937C22.9412 49.4945 18.4258 53.7109 18.4258 55.4176Z" fill="#5E0F0F"/>
<path d="M19.4291 41.565C19.4291 41.565 22.5398 47.3877 23.9445 47.3877C25.3493 47.3877 29.2627 42.9705 29.2627 41.565C29.2627 40.1595 25.3493 35.7423 24.3459 36.4451C23.2421 37.2482 18.6264 40.2599 19.4291 41.565Z" fill="#8D1010"/>
<path d="M21.939 33.835C20.8352 33.835 17.7246 28.0122 17.7246 26.7072C17.7246 25.3017 22.541 19.5794 24.1465 19.5794C25.752 19.5794 27.9595 25.6029 27.9595 26.7072C28.0599 27.8115 23.0428 33.835 21.939 33.835Z" fill="#8D1010"/>
<path d="M17.7246 11.1459C17.7246 11.1459 22.7417 18.3741 23.9458 17.3702C25.2503 16.3662 29.0633 12.8525 29.0633 11.1459C29.0633 9.33881 25.2503 4.52003 23.3438 4.52003C21.638 4.62042 17.7246 11.1459 17.7246 11.1459Z" fill="#8D1010"/>
<path d="M11.416 1.37265C11.416 3.0793 14.7273 7.99847 16.4331 7.59691C18.2393 7.09495 21.0489 1.975 21.4502 0.870688C21.7513 -0.233619 17.9383 -5.05242 16.9348 -4.75125C15.9314 -4.55047 11.416 -0.334012 11.416 1.37265Z" fill="#8D1010"/>
<path d="M30.6016 117.166C30.6016 118.672 33.6118 123.19 35.117 122.688C36.7224 122.286 39.3313 117.668 39.6324 116.564C39.9334 115.56 36.4214 111.243 35.6187 111.544C34.7156 111.846 30.6016 115.66 30.6016 117.166Z" fill="#5E0F0F"/>
<path d="M32.474 105.211C32.474 105.211 35.2836 110.432 36.4877 110.432C37.6918 110.432 41.2038 106.516 41.2038 105.211C41.2038 103.906 37.6918 99.9909 36.7887 100.593C35.986 101.296 31.8719 104.107 32.474 105.211Z" fill="#5E0F0F"/>
<path d="M-2.91273 21.5843C-2.91273 21.5843 -0.10315 26.8047 1.10096 26.8047C2.30506 26.8047 5.81704 22.8894 5.81704 21.5843C5.81704 20.2792 2.30507 16.3639 1.40199 16.9663C0.59925 17.669 -3.51479 20.48 -2.91273 21.5843Z" fill="#5E0F0F"/>
<path d="M9.0775 124.701C9.0775 124.701 11.8871 129.921 13.0912 129.921C14.2953 129.921 17.8073 126.006 17.8073 124.701C17.8073 123.395 14.2953 119.48 13.3922 120.083C12.5895 120.785 8.47545 123.596 9.0775 124.701Z" fill="#5E0F0F"/>
<path d="M33.058 128.297C33.058 128.297 35.8676 133.518 37.0717 133.518C38.2758 133.518 41.7877 129.602 41.7877 128.297C41.7877 126.992 38.2758 123.077 37.3727 123.679C36.57 124.382 32.4559 127.193 33.058 128.297Z" fill="#5E0F0F"/>
<path d="M34.781 98.2871C33.7776 98.2871 31.0684 93.0668 31.0684 91.8621C31.0684 90.6574 35.3831 85.437 36.8882 85.437C38.3933 85.437 40.4002 90.8581 40.4002 91.8621C40.2998 92.866 35.7844 98.2871 34.781 98.2871Z" fill="#5E0F0F"/>
<path d="M30.9688 77.9055C30.9688 77.9055 35.4842 84.4309 36.5879 83.5274C37.792 82.6239 41.2037 79.5118 41.2037 77.9055C41.2037 76.2992 37.6917 71.9824 36.0862 71.9824C34.4807 71.9824 30.9688 77.9055 30.9688 77.9055Z" fill="#5E0F0F"/>
<path d="M31.5723 64.6556C31.5723 66.1614 34.5825 70.6791 36.0877 70.1771C37.6931 69.7755 40.302 65.1575 40.6031 64.0532C40.9041 63.0493 37.3921 58.7325 36.5894 59.0336C35.6863 59.3348 31.5723 63.0493 31.5723 64.6556Z" fill="#8D1010"/>
<path d="M32.474 52.2064C32.474 52.2064 35.2836 57.4268 36.4877 57.4268C37.6918 57.4268 41.2038 53.5115 41.2038 52.2064C41.2038 50.9013 37.6918 46.986 36.7887 47.5884C35.986 48.2911 31.8719 51.0017 32.474 52.2064Z" fill="#8D1010"/>
<path d="M23.8264 -0.401932C23.8264 -0.401932 26.126 4.02344 27.1115 4.02344C28.097 4.02344 30.9715 0.704414 30.9715 -0.401932C30.9715 -1.50828 28.097 -4.82732 27.3579 -4.3167C26.7009 -3.72098 23.3336 -1.42318 23.8264 -0.401932Z" fill="#8D1010"/>
<path d="M34.781 45.1787C33.7776 45.1787 31.0684 39.9583 31.0684 38.7536C31.0684 37.5489 35.3831 32.3286 36.8882 32.3286C38.3933 32.3286 40.4002 37.7497 40.4002 38.7536C40.2998 39.7575 35.7844 45.1787 34.781 45.1787Z" fill="#8D1010"/>
<path d="M30.9688 24.8C30.9688 24.8 35.4842 31.3255 36.5879 30.422C37.792 29.5184 41.2037 26.4063 41.2037 24.8C41.2037 23.1938 37.6917 18.877 36.0862 18.877C34.4807 18.877 30.9688 24.8 30.9688 24.8Z" fill="#B70000"/>
<path d="M-6.56836 107.427C-6.56836 107.427 -2.05295 113.952 -0.949188 113.049C0.254919 112.145 3.66655 109.033 3.66655 107.427C3.66655 105.821 0.154578 101.504 -1.4509 101.504C-3.05637 101.504 -6.56836 107.427 -6.56836 107.427Z" fill="#B70000"/>
<path d="M31.5723 11.5472C31.5723 13.0531 34.5825 17.5707 36.0877 17.0687C37.6931 16.6671 40.302 12.0491 40.6031 10.9448C40.9041 9.94092 37.3921 5.62409 36.5894 5.92527C35.6863 6.22644 31.5723 10.0413 31.5723 11.5472Z" fill="#8D1010"/>
<path d="M32.474 -0.902012C32.474 -0.902012 35.2836 4.31836 36.4877 4.31836C37.6918 4.31836 41.2038 0.403078 41.2038 -0.902012C41.2038 -2.2071 37.6918 -6.12235 36.7887 -5.52C35.986 -4.81726 31.8719 -2.00632 32.474 -0.902012Z" fill="#8D1010"/>
<path d="M43.1113 129.107C43.1113 129.107 48.1284 136.335 49.3325 135.331C50.637 134.327 54.45 130.813 54.45 129.107C54.45 127.3 50.637 122.481 48.7305 122.481C47.0247 122.481 43.1113 129.107 43.1113 129.107Z" fill="#8D1010"/>
<path d="M43.8145 114.348C43.8145 116.055 47.1257 120.974 48.8316 120.572C50.6377 120.071 53.4473 114.951 53.8487 113.846C54.1497 112.742 50.3367 107.923 49.3333 108.224C48.3299 108.526 43.8145 112.642 43.8145 114.348Z" fill="#8D1010"/>
<path d="M44.8159 100.595C44.8159 100.595 47.9265 106.418 49.3313 106.418C50.7361 106.418 54.6494 102.001 54.6494 100.595C54.6494 99.1898 50.7361 94.7725 49.7326 95.4753C48.6289 96.178 44.0131 99.2902 44.8159 100.595Z" fill="#5E0F0F"/>
<path d="M47.3257 92.8633C46.2219 92.8633 43.1113 87.0406 43.1113 85.7355C43.1113 84.33 47.9277 78.6077 49.5332 78.6077C51.1387 78.6077 53.3462 84.6312 53.3462 85.7355C53.4466 86.7394 48.4295 92.8633 47.3257 92.8633Z" fill="#8D1010"/>
<path d="M43.1113 70.1762C43.1113 70.1762 48.1284 77.4043 49.3325 76.4004C50.637 75.3965 54.45 71.8828 54.45 70.1762C54.45 68.3691 50.637 63.5503 48.7305 63.5503C47.0247 63.5503 43.1113 70.1762 43.1113 70.1762Z" fill="#8D1010"/>
<path d="M43.8145 55.4176C43.8145 57.1242 47.1257 62.0434 48.8316 61.6418C50.6377 61.1399 53.4473 56.0199 53.8487 54.9156C54.1497 53.8113 50.3367 48.9925 49.3333 49.2937C48.3299 49.4945 43.8145 53.7109 43.8145 55.4176Z" fill="#8D1010"/>
<path d="M44.8159 41.565C44.8159 41.565 47.9265 47.3877 49.3313 47.3877C50.7361 47.3877 54.6494 42.9705 54.6494 41.565C54.6494 40.1595 50.7361 35.7423 49.7326 36.4451C48.6289 37.2482 44.0131 40.2599 44.8159 41.565Z" fill="#B70000"/>
<path d="M47.3257 33.835C46.2219 33.835 43.1113 28.0122 43.1113 26.7072C43.1113 25.3017 47.9277 19.5794 49.5332 19.5794C51.1387 19.5794 53.3462 25.6029 53.3462 26.7072C53.4466 27.8115 48.4295 33.835 47.3257 33.835Z" fill="#B70000"/>
<path d="M43.1113 11.1459C43.1113 11.1459 48.1284 18.3741 49.3325 17.3702C50.637 16.3662 54.45 12.8525 54.45 11.1459C54.45 9.33881 50.637 4.52003 48.7305 4.52003C47.0247 4.62042 43.1113 11.1459 43.1113 11.1459Z" fill="#B70000"/>
<path d="M43.8145 -3.51212C43.8145 -1.80546 47.1257 3.11371 48.8316 2.71214C50.6377 2.21018 53.4473 -2.90977 53.8487 -4.01408C54.1497 -5.11839 50.3367 -9.93719 49.3333 -9.63601C48.3299 -9.43523 43.8145 -5.21878 43.8145 -3.51212Z" fill="#8D1010"/>
<path d="M55.9551 128.203C55.9551 130.11 59.5674 135.632 61.5743 135.03C63.5811 134.427 66.7921 128.805 67.0931 127.5C67.4945 126.295 63.1797 120.874 62.076 121.276C60.9722 121.677 55.9551 126.295 55.9551 128.203Z" fill="#8D1010"/>
<path d="M57.0576 112.843C57.0576 112.843 60.4692 119.268 62.0747 119.268C63.5799 119.268 67.8946 114.449 67.8946 112.843C67.8946 111.236 63.5798 106.317 62.4761 107.12C61.3723 108.024 56.1545 111.437 57.0576 112.843Z" fill="#8D1010"/>
<path d="M59.8677 104.21C58.6636 104.21 55.252 97.7849 55.252 96.279C55.252 94.7732 60.5701 88.3481 62.3763 88.3481C64.1824 88.3481 66.691 94.9739 66.691 96.279C66.5906 97.4837 61.0718 104.21 59.8677 104.21Z" fill="#8D1010"/>
<path d="M55.1523 79.0107C55.1523 79.0107 60.6712 87.042 62.076 85.9377C63.4808 84.8334 67.7955 80.9182 67.7955 79.0107C67.7955 77.0029 63.4807 71.6822 61.4739 71.6822C59.4671 71.6822 55.1523 79.0107 55.1523 79.0107Z" fill="#8D1010"/>
<path d="M55.9551 62.6482C55.9551 64.5557 59.5674 70.0772 61.5743 69.4748C63.5811 68.8725 66.7921 63.2506 67.0931 61.9455C67.4945 60.7408 63.1797 55.3197 62.076 55.7212C60.9722 56.1228 55.9551 60.8412 55.9551 62.6482Z" fill="#8D1010"/>
<path d="M57.0576 47.2878C57.0576 47.2878 60.4692 53.7129 62.0747 53.7129C63.5799 53.7129 67.8946 48.8941 67.8946 47.2878C67.8946 45.6816 63.5798 40.7624 62.4761 41.5655C61.3723 42.4691 56.1545 45.8823 57.0576 47.2878Z" fill="#B70000"/>
<path d="M59.8677 38.7529C58.6636 38.7529 55.252 32.3279 55.252 30.822C55.252 29.3161 60.5701 22.8911 62.3763 22.8911C64.1824 22.8911 66.691 29.5169 66.691 30.822C66.5906 32.0267 61.0718 38.7529 59.8677 38.7529Z" fill="#B70000"/>
<path d="M55.1523 13.5537C55.1523 13.5537 60.6712 21.585 62.076 20.4807C63.4808 19.3764 67.7955 15.4611 67.7955 13.5537C67.7955 11.5459 63.4807 6.2251 61.4739 6.2251C59.4671 6.2251 55.1523 13.5537 55.1523 13.5537Z" fill="#B70000"/>
<path d="M55.9551 -2.80883C55.9551 -0.901389 59.5674 4.62016 61.5743 4.01781C63.5811 3.41546 66.7921 -2.20646 67.0931 -3.51155C67.4945 -4.71624 63.1797 -10.1374 62.076 -9.73583C60.9722 -9.33426 55.9551 -4.71626 55.9551 -2.80883Z" fill="#B70000"/>
<path d="M67.9961 125.994C67.9961 128.102 72.1101 134.226 74.2173 133.624C76.4249 133.021 79.9368 126.697 80.3382 125.291C80.7396 123.886 76.0235 117.963 74.8194 118.364C73.6153 118.766 67.9961 123.986 67.9961 125.994Z" fill="#8D1010"/>
<path d="M69.1998 109.027C69.1998 109.027 73.0128 116.155 74.7186 116.155C76.4244 116.155 81.2408 110.734 81.2408 109.027C81.2408 107.321 76.4244 101.799 75.2203 102.703C74.0162 103.606 68.2967 107.421 69.1998 109.027Z" fill="#8D1010"/>
<path d="M62.2408 139.579C62.2408 139.579 66.0538 146.707 67.7596 146.707C69.4654 146.707 74.2818 141.286 74.2818 139.579C74.2818 137.873 69.4654 132.351 68.2613 133.255C67.0572 134.158 61.3377 137.973 62.2408 139.579Z" fill="#8D1010"/>
<path d="M72.3089 99.3906C70.9041 99.3906 67.1914 92.2628 67.1914 90.5562C67.1914 88.8495 73.1116 81.7217 75.1184 81.7217C77.1253 81.7217 79.8345 89.1507 79.8345 90.5562C79.8345 91.9616 73.7137 99.3906 72.3089 99.3906Z" fill="#8D1010"/>
<path d="M67.1914 71.3808C67.1914 71.3808 73.3123 80.3156 74.9178 79.1109C76.5232 77.9062 81.2393 73.5894 81.2393 71.3808C81.2393 69.1721 76.5232 63.249 74.2154 63.249C71.9075 63.249 67.1914 71.3808 67.1914 71.3808Z" fill="#8D1010"/>
<path d="M67.9961 53.2097C67.9961 55.3179 72.1101 61.4417 74.2173 60.8394C76.4249 60.237 79.9368 53.9124 80.3382 52.5069C80.7396 51.1014 76.0235 45.1784 74.8194 45.5799C73.6153 45.9815 67.9961 51.2018 67.9961 53.2097Z" fill="#B70000"/>
<path d="M69.1998 36.2433C69.1998 36.2433 73.0128 43.3711 74.7186 43.3711C76.4244 43.3711 81.2408 37.9499 81.2408 36.2433C81.2408 34.5366 76.4244 29.0151 75.2203 29.9186C74.0162 30.8221 68.2967 34.637 69.1998 36.2433Z" fill="#B70000"/>
<path d="M72.3089 26.6055C70.9041 26.6055 67.1914 19.4777 67.1914 17.771C67.1914 16.0643 73.1116 8.93655 75.1184 8.93655C77.1253 8.93655 79.8345 16.3655 79.8345 17.771C79.8345 19.1765 73.7137 26.6055 72.3089 26.6055Z" fill="#B70000"/>
<path d="M67.1914 -1.40147C67.1914 -1.40147 73.3123 7.5334 74.9178 6.3287C76.5232 5.124 81.2393 0.807146 81.2393 -1.40147C81.2393 -3.61009 76.5232 -9.53318 74.2154 -9.53318C71.9075 -9.53318 67.1914 -1.40147 67.1914 -1.40147Z" fill="#7E0000"/>
<path d="M80.6387 134.327C80.6387 136.435 84.7527 142.559 86.8599 141.957C88.9671 141.354 92.5794 135.03 92.9808 133.624C93.3822 132.219 88.6661 126.295 87.462 126.697C86.3582 127.099 80.6387 132.219 80.6387 134.327Z" fill="#8D1010"/>
<path d="M81.9434 117.259C81.9434 117.259 85.7564 124.387 87.4623 124.387C89.1681 124.387 93.9845 118.966 93.9845 117.259C93.9845 115.452 89.1681 110.031 87.964 110.934C86.6595 111.838 81.0404 115.653 81.9434 117.259Z" fill="#8D1010"/>
<path d="M85.053 107.723C83.6482 107.723 79.9355 100.595 79.9355 98.8882C79.9355 97.1816 85.8557 90.0537 87.8626 90.0537C89.8694 90.0537 92.5787 97.4827 92.5787 98.8882C92.5787 100.193 86.3574 107.723 85.053 107.723Z" fill="#8D1010"/>
<path d="M79.8359 79.7128C79.8359 79.7128 85.9568 88.6477 87.5623 87.443C89.1678 86.2383 93.8839 81.9214 93.8839 79.7128C93.8839 77.5042 89.1678 71.5811 86.8599 71.5811C84.6524 71.5811 79.8359 79.7128 79.8359 79.7128Z" fill="#8D1010"/>
<path d="M80.6387 61.5416C80.6387 63.6499 84.7527 69.7738 86.8599 69.1714C88.9671 68.5691 92.5794 62.2444 92.9808 60.8389C93.3822 59.4334 88.6661 53.5103 87.462 53.9118C86.3582 54.3134 80.6387 59.4334 80.6387 61.5416Z" fill="#B70000"/>
<path d="M81.9434 44.4767C81.9434 44.4767 85.7564 51.6045 87.4623 51.6045C89.1681 51.6045 93.9845 46.1833 93.9845 44.4767C93.9845 42.6696 89.1681 37.2485 87.964 38.152C86.6595 39.0555 81.0404 42.8704 81.9434 44.4767Z" fill="#B70000"/>
<path d="M85.053 34.9385C83.6482 34.9385 79.9355 27.8107 79.9355 26.104C79.9355 24.3974 85.8557 17.2696 87.8626 17.2696C89.8694 17.2696 92.5787 24.6986 92.5787 26.104C92.5787 27.4091 86.3574 34.9385 85.053 34.9385Z" fill="#B70000"/>
<path d="M79.8359 6.93059C79.8359 6.93059 85.9568 15.8654 87.5623 14.6607C89.1678 13.456 93.8839 9.13921 93.8839 6.93059C93.8839 4.72197 89.1678 -1.20115 86.8599 -1.20115C84.6524 -1.20115 79.8359 6.93059 79.8359 6.93059Z" fill="#7E0000"/>
<path d="M93.3828 125.994C93.3828 128.102 97.4968 134.226 99.604 133.624C101.812 133.021 105.324 126.697 105.725 125.291C106.126 123.886 101.41 117.963 100.206 118.364C99.002 118.766 93.3828 123.986 93.3828 125.994Z" fill="#8D1010"/>
<path d="M94.5865 109.027C94.5865 109.027 98.3995 116.155 100.105 116.155C101.811 116.155 106.628 110.734 106.628 109.027C106.628 107.321 101.811 101.799 100.607 102.703C99.4029 103.606 93.6834 107.421 94.5865 109.027Z" fill="#8D1010"/>
<path d="M91.5223 143.528C91.5223 143.528 97.4371 149.038 99.0511 148.486C100.665 147.934 103.468 141.246 102.915 139.631C102.363 138.016 96.0186 134.351 95.1718 135.596C94.3249 136.84 90.148 142.301 91.5223 143.528Z" fill="#8D1010"/>
<path d="M97.6956 99.3906C96.2908 99.3906 92.5781 92.2628 92.5781 90.5562C92.5781 88.8495 98.4983 81.7217 100.505 81.7217C102.512 81.7217 105.221 89.1507 105.221 90.5562C105.221 91.9616 99.1004 99.3906 97.6956 99.3906Z" fill="#8D1010"/>
<path d="M92.5781 71.3808C92.5781 71.3808 98.699 80.3156 100.304 79.1109C101.91 77.9062 106.626 73.5894 106.626 71.3808C106.626 69.1721 101.91 63.249 99.6021 63.249C97.2942 63.249 92.5781 71.3808 92.5781 71.3808Z" fill="#B70000"/>
<path d="M93.3828 53.2097C93.3828 55.3179 97.4968 61.4417 99.604 60.8394C101.812 60.237 105.324 53.9124 105.725 52.5069C106.126 51.1014 101.41 45.1784 100.206 45.5799C99.002 45.9815 93.3828 51.2018 93.3828 53.2097Z" fill="#B70000"/>
<path d="M94.5865 36.2433C94.5865 36.2433 98.3995 43.3711 100.105 43.3711C101.811 43.3711 106.628 37.9499 106.628 36.2433C106.628 34.5366 101.811 29.0151 100.607 29.9186C99.4029 30.8221 93.6834 34.637 94.5865 36.2433Z" fill="#B70000"/>
<path d="M97.6956 26.6055C96.2908 26.6055 92.5781 19.4777 92.5781 17.771C92.5781 16.0643 98.4983 8.93655 100.505 8.93655C102.512 8.93655 105.221 16.3655 105.221 17.771C105.221 19.1765 99.1004 26.6055 97.6956 26.6055Z" fill="#7E0000"/>
<path d="M92.5781 -1.40147C92.5781 -1.40147 98.699 7.5334 100.304 6.3287C101.91 5.124 106.626 0.807146 106.626 -1.40147C106.626 -3.61009 101.91 -9.53318 99.6021 -9.53318C97.2942 -9.53318 92.5781 -1.40147 92.5781 -1.40147Z" fill="#7E0000"/>
<path d="M106.727 128.203C106.727 130.11 110.339 135.632 112.346 135.03C114.353 134.427 117.564 128.805 117.865 127.5C118.266 126.295 113.951 120.874 112.847 121.276C111.744 121.677 106.727 126.295 106.727 128.203Z" fill="#7E0000"/>
<path d="M107.73 112.843C107.73 112.843 111.142 119.268 112.747 119.268C114.252 119.268 118.567 114.449 118.567 112.843C118.567 111.236 114.252 106.317 113.149 107.12C112.145 108.024 106.927 111.437 107.73 112.843Z" fill="#B70000"/>
<path d="M110.542 104.21C109.337 104.21 105.926 97.7849 105.926 96.279C105.926 94.7732 111.244 88.3481 113.05 88.3481C114.856 88.3481 117.365 94.9739 117.365 96.279C117.365 97.4837 111.846 104.21 110.542 104.21Z" fill="#8D1010"/>
<path d="M105.926 79.0107C105.926 79.0107 111.445 87.042 112.849 85.9377C114.254 84.8334 118.569 80.9182 118.569 79.0107C118.569 77.0029 114.254 71.6822 112.247 71.6822C110.241 71.6822 105.926 79.0107 105.926 79.0107Z" fill="#B70000"/>
<path d="M106.727 62.6482C106.727 64.5557 110.339 70.0772 112.346 69.4748C114.353 68.8725 117.564 63.2506 117.865 61.9455C118.266 60.7408 113.951 55.3197 112.847 55.7212C111.744 56.1228 106.727 60.8412 106.727 62.6482Z" fill="#B70000"/>
<path d="M107.73 47.2878C107.73 47.2878 111.142 53.7129 112.747 53.7129C114.252 53.7129 118.567 48.8941 118.567 47.2878C118.567 45.6816 114.252 40.7624 113.149 41.5655C112.145 42.4691 106.927 45.8823 107.73 47.2878Z" fill="#B70000"/>
<path d="M110.542 38.7529C109.337 38.7529 105.926 32.3279 105.926 30.822C105.926 29.3161 111.244 22.8911 113.05 22.8911C114.856 22.8911 117.365 29.5169 117.365 30.822C117.365 32.0267 111.846 38.7529 110.542 38.7529Z" fill="#7E0000"/>
<path d="M105.926 13.5537C105.926 13.5537 111.445 21.585 112.849 20.4807C114.254 19.3764 118.569 15.4611 118.569 13.5537C118.569 11.5459 114.254 6.2251 112.247 6.2251C110.241 6.2251 105.926 13.5537 105.926 13.5537Z" fill="#7E0000"/>
<path d="M106.727 -2.80883C106.727 -0.901389 110.339 4.62016 112.346 4.01781C114.353 3.41546 117.564 -2.20646 117.865 -3.51155C118.266 -4.71624 113.951 -10.1374 112.847 -9.73583C111.744 -9.33426 106.727 -4.71626 106.727 -2.80883Z" fill="#7E0000"/>
<path d="M119.973 114.348C119.973 116.055 123.284 120.974 124.99 120.572C126.796 120.071 129.606 114.951 130.007 113.846C130.308 112.742 126.495 107.923 125.491 108.224C124.488 108.526 119.973 112.642 119.973 114.348Z" fill="#B70000"/>
<path d="M120.877 100.595C120.877 100.595 123.988 106.418 125.392 106.418C126.797 106.418 130.711 102.001 130.711 100.595C130.711 99.1898 126.797 94.7725 125.794 95.4753C124.79 96.178 120.175 99.2902 120.877 100.595Z" fill="#B70000"/>
<path d="M123.484 92.8633C122.38 92.8633 119.27 87.0406 119.27 85.7355C119.27 84.33 124.086 78.6077 125.691 78.6077C127.297 78.6077 129.504 84.6312 129.504 85.7355C129.504 86.7394 124.588 92.8633 123.484 92.8633Z" fill="#B70000"/>
<path d="M119.27 70.1762C119.27 70.1762 124.287 77.4043 125.491 76.4004C126.795 75.3965 130.608 71.8828 130.608 70.1762C130.608 68.3691 126.795 63.5503 124.889 63.5503C123.083 63.5503 119.27 70.1762 119.27 70.1762Z" fill="#B70000"/>
<path d="M119.973 55.4176C119.973 57.1242 123.284 62.0434 124.99 61.6418C126.796 61.1399 129.606 56.0199 130.007 54.9156C130.308 53.8113 126.495 48.9925 125.491 49.2937C124.488 49.4945 119.973 53.7109 119.973 55.4176Z" fill="#B70000"/>
<path d="M120.877 41.565C120.877 41.565 123.988 47.3877 125.392 47.3877C126.797 47.3877 130.711 42.9705 130.711 41.565C130.711 40.1595 126.797 35.7423 125.794 36.4451C124.79 37.2482 120.175 40.2599 120.877 41.565Z" fill="#7E0000"/>
<path d="M123.484 33.835C122.38 33.835 119.27 28.0122 119.27 26.7072C119.27 25.3017 124.086 19.5794 125.691 19.5794C127.297 19.5794 129.504 25.6029 129.504 26.7072C129.504 27.8115 124.588 33.835 123.484 33.835Z" fill="#7E0000"/>
<path d="M119.27 11.1459C119.27 11.1459 124.287 18.3741 125.491 17.3702C126.795 16.3662 130.608 12.8525 130.608 11.1459C130.608 9.33881 126.795 4.52003 124.889 4.52003C123.083 4.62042 119.27 11.1459 119.27 11.1459Z" fill="#7E0000"/>
<path d="M136.328 98.2871C135.324 98.2871 132.615 93.0668 132.615 91.8621C132.615 90.6574 136.93 85.437 138.435 85.437C139.94 85.437 141.947 90.8581 141.947 91.8621C141.746 92.866 137.331 98.2871 136.328 98.2871Z" fill="#7E0000"/>
<path d="M132.516 77.9055C132.516 77.9055 137.031 84.4309 138.135 83.5274C139.339 82.6239 142.751 79.5118 142.751 77.9055C142.751 76.2992 139.239 71.9824 137.633 71.9824C136.028 71.9824 132.516 77.9055 132.516 77.9055Z" fill="#7E0000"/>
<path d="M133.117 64.6556C133.117 66.1614 136.127 70.6791 137.633 70.1771C139.238 69.7755 141.847 65.1575 142.148 64.0532C142.449 63.0493 138.937 58.7325 138.134 59.0336C137.231 59.3348 133.117 63.0493 133.117 64.6556Z" fill="#7E0000"/>
<path d="M131.318 106.375C131.318 107.881 134.329 112.399 135.834 111.897C137.439 111.495 140.048 106.877 140.349 105.773C140.65 104.769 137.138 100.452 136.335 100.753C135.432 101.055 131.318 104.769 131.318 106.375Z" fill="#7E0000"/>
<path d="M134.02 52.2064C134.02 52.2064 136.83 57.4268 138.034 57.4268C139.238 57.4268 142.75 53.5115 142.75 52.2064C142.75 50.9013 139.238 46.986 138.335 47.5884C137.532 48.2911 133.318 51.0017 134.02 52.2064Z" fill="#7E0000"/>
<path d="M136.328 45.1787C135.324 45.1787 132.615 39.9583 132.615 38.7536C132.615 37.5489 136.93 32.3286 138.435 32.3286C139.94 32.3286 141.947 37.7497 141.947 38.7536C141.746 39.7575 137.331 45.1787 136.328 45.1787Z" fill="#7E0000"/>
<path d="M132.516 24.8C132.516 24.8 137.031 31.3255 138.135 30.422C139.339 29.5184 142.751 26.4063 142.751 24.8C142.751 23.1938 139.239 18.877 137.633 18.877C136.028 18.877 132.516 24.8 132.516 24.8Z" fill="#7E0000"/>
</g>
</svg>
