<svg width="73" height="73" viewBox="0 0 73 73" fill="none" xmlns="http://www.w3.org/2000/svg">
<path d="M36.0324 66.9698C52.8678 66.9698 66.5182 53.3448 66.5216 36.5374C66.5249 19.73 52.8799 6.10498 36.0446 6.10498C19.2093 6.10498 5.5588 19.73 5.55544 36.5374C5.55208 53.3448 19.1971 66.9698 36.0324 66.9698Z" fill="#AA6D16"/>
<path fill-rule="evenodd" clip-rule="evenodd" d="M36.0436 11.6529C22.2637 11.6529 11.1065 22.8027 11.1037 36.5372C11.101 50.2717 22.2538 61.4215 36.0337 61.4215C49.8136 61.4215 60.9708 50.2717 60.9736 36.5372C60.9763 22.8027 49.8235 11.6529 36.0436 11.6529ZM0.00745613 36.5372C0.0114301 16.657 16.1551 0.556641 36.0458 0.556641C55.9366 0.556641 72.0738 16.657 72.0698 36.5372C72.0659 56.4174 55.9222 72.5178 36.0315 72.5178C16.1407 72.5178 0.00348219 56.4174 0.00745613 36.5372Z" fill="#201404"/>
</svg>
