<svg width="93" height="106" viewBox="0 0 93 106" fill="none" xmlns="http://www.w3.org/2000/svg">
<path d="M63.6813 63.7881C63.1953 63.2681 62.8753 62.4621 62.8753 61.5501C62.8753 60.0701 63.7033 58.8621 64.7513 58.7361L64.7513 55.4571L63.4943 54.4531C61.0593 62.9491 43.7193 69.0511 38.1353 69.0511C31.7703 69.0511 26.7843 61.7681 26.7843 52.4671C26.7843 43.1681 31.7693 35.8831 38.1353 35.8831C43.6053 35.8831 60.3573 41.7371 63.3303 49.9591L64.7513 48.8261L64.7513 45.3941C63.7033 45.2671 62.8753 44.0621 62.8753 42.5801C62.8753 42.3201 62.9093 42.0721 62.9563 41.8321C60.5373 38.7191 57.2683 36.1911 53.5933 34.7251C51.4113 33.8541 47.7573 32.7431 44.5663 32.4121C30.4433 32.7071 19.0723 41.5861 19.0723 52.4651C19.0723 63.5331 30.8323 72.5371 45.2873 72.5371C45.3143 72.5371 45.3423 72.5351 45.3703 72.5351C52.1193 71.7841 59.5993 68.8551 63.6813 63.7881ZM20.1183 52.0171C20.1283 51.9101 21.2643 41.1631 32.5263 35.9781C32.7773 35.8631 33.0743 35.9721 33.1893 36.2241C33.2203 36.2901 33.2353 36.3631 33.2353 36.4331C33.2353 36.6211 33.1273 36.8021 32.9443 36.8861C22.2003 41.8331 21.1233 52.0091 21.1133 52.1111C21.0883 52.3861 20.8433 52.5881 20.5683 52.5621C20.2943 52.5361 20.0883 52.2941 20.1183 52.0171Z" fill="#231D1A"/>
<path d="M64.1523 61.5524C64.1523 61.6164 64.1713 61.6714 64.1783 61.7344C64.1713 61.6714 64.1523 61.6164 64.1523 61.5524Z" fill="#231D1A"/>
<path d="M38.1361 38.8828C33.6101 38.8828 29.7852 45.1038 29.7852 52.4668C29.7852 59.8298 33.6091 66.0508 38.1361 66.0508C42.6601 66.0508 57.1271 60.8168 60.2011 54.7148C59.4981 54.2638 59.0061 53.2828 59.0061 52.1428C59.0061 51.1408 59.3841 50.2637 59.9511 49.7578C56.4031 43.8578 42.5461 38.8828 38.1361 38.8828ZM54.6782 55.3498C51.7172 58.6388 45.1001 60.4358 40.9731 61.5788C39.1591 62.0788 38.0321 62.0728 37.3681 61.7238C35.1511 60.5618 38.0812 55.5948 37.8842 52.9598C37.6942 50.4048 30.5701 43.7668 35.6981 42.3348C39.4542 41.2878 46.5332 45.2118 49.8022 46.7958C53.1012 48.3928 58.2342 51.3988 54.6782 55.3498Z" fill="#231D1A"/>
<path d="M35.697 42.3333C30.568 43.7653 37.692 50.4033 37.883 52.9583C38.08 55.5933 35.151 60.5603 37.367 61.7223C38.031 62.0723 39.158 62.0773 40.972 61.5773C45.099 60.4343 51.716 58.6383 54.677 55.3483C58.234 51.3973 53.101 48.3913 49.8 46.7933C46.532 45.2103 39.453 41.2863 35.697 42.3333ZM52.113 54.3703C52.245 54.5483 52.308 54.7553 52.308 54.9623C52.308 55.2693 52.167 55.5693 51.902 55.7673C51.459 56.0953 50.832 55.9993 50.504 55.5563C50.475 55.5173 48.59 53.0193 45.502 51.0463L40.05 57.6613C39.699 58.0873 39.069 58.1473 38.643 57.7963C38.217 57.4463 38.155 56.8143 38.507 56.3903L43.733 50.0523C42.369 49.3943 40.84 48.8983 39.184 48.7393C38.635 48.6883 38.235 48.2123 38.284 47.6493C38.336 47.1003 38.824 46.6963 39.374 46.7493C46.949 47.4683 51.906 54.0873 52.113 54.3703Z" fill="#3E3633"/>
<path d="M4.98343 53.4501L4.98242 53.5811L5.01242 53.9741C6.17842 74.9721 10.3954 88.4211 17.9054 95.0891C23.4254 99.9911 30.9524 101.759 43.0734 100.995C67.3574 99.4641 87.9844 72.4701 88.9074 51.1081L88.8834 50.9201C86.8234 29.7071 64.8244 4.08815 40.5934 4.08815C21.2224 4.08915 5.17242 7.80215 4.98343 53.4501ZM40.9894 83.5661C40.5694 82.8511 40.8074 81.9311 41.5204 81.5131C46.3644 78.6631 47.6744 76.5231 47.8464 75.4431C47.0014 75.5021 46.1494 75.5371 45.2854 75.5371C29.1764 75.5371 16.0704 65.1871 16.0704 52.4651C16.0704 39.7461 29.1754 29.3991 45.2854 29.3991C46.1484 29.3991 47.0014 29.4341 47.8464 29.4931C47.8424 29.4721 47.8484 29.4581 47.8484 29.4381C47.6474 28.3421 46.3104 26.2251 41.5334 23.4151C40.8194 22.9951 40.5824 22.0751 41.0014 21.3601C41.4214 20.6471 42.3414 20.4091 43.0554 20.8291C47.6194 23.5151 50.2124 26.1861 50.7614 28.7671C50.8374 29.1281 50.8684 29.4581 50.8684 29.7591C50.8684 29.7801 50.8644 29.7961 50.8634 29.8161C50.8634 29.8161 50.8574 29.8241 50.8564 29.8261C50.9224 29.8361 50.9884 29.8491 51.0554 29.8591C51.4074 29.9161 51.7584 29.9741 52.1064 30.0391C52.2214 30.0621 52.3354 30.0881 52.4504 30.1111C52.7484 30.1701 53.0454 30.2301 53.3394 30.2971C53.3824 30.3071 53.4254 30.3181 53.4694 30.3281C53.8314 30.4121 54.1924 30.4981 54.5484 30.5941C54.5814 30.6021 54.6144 30.6141 54.6484 30.6211C55.0134 30.7191 55.3774 30.8201 55.7354 30.9301C55.7684 30.9401 55.8004 30.9511 55.8334 30.9611C56.1914 31.0701 56.5474 31.1861 56.8964 31.3051C56.9874 31.3361 57.0754 31.3712 57.1664 31.4032C57.8384 31.6411 58.5004 31.8951 59.1454 32.1711C59.1844 32.1871 59.2204 32.2041 59.2584 32.2201C59.5844 32.3631 59.9074 32.5051 60.2264 32.6561C60.3664 32.7221 60.5024 32.7931 60.6404 32.8611C60.8544 32.9651 61.0704 33.0681 61.2804 33.1771C61.5514 33.3181 61.8194 33.4641 62.0854 33.6131C62.1554 33.6541 62.2304 33.6911 62.3014 33.7301C62.5074 33.8471 62.7074 33.9701 62.9094 34.0911C63.0364 34.1671 63.1674 34.2411 63.2934 34.3201C63.4684 34.4271 63.6364 34.5411 63.8084 34.6521C63.9554 34.7481 64.1054 34.8401 64.2504 34.9371C66.9734 36.7751 69.2594 39.0031 70.9804 41.5071C71.2884 40.4741 72.0224 39.7431 72.8784 39.7431C74.0094 39.7431 74.9324 41.0161 74.9324 42.5831C74.9324 44.0461 74.1234 45.2371 73.0934 45.3881C73.6764 46.8121 74.0824 48.2961 74.3054 49.8261L75.2444 50.5761C75.6134 49.8101 76.2414 49.3051 76.9544 49.3051C78.0864 49.3051 79.0074 50.5781 79.0074 52.1451C79.0074 53.7121 78.0874 54.9851 76.9544 54.9851C76.2414 54.9851 75.6134 54.4791 75.2444 53.7141L74.3984 54.3901C74.2384 55.9131 73.8884 57.3961 73.3714 58.8221C74.2644 59.1271 74.9324 60.2261 74.9324 61.5561C74.9324 63.1201 74.0114 64.3961 72.8784 64.3961C72.1724 64.3961 71.5494 63.9001 71.1794 63.1481C67.1194 69.2591 59.6904 73.7651 50.8524 75.1171C50.8534 75.1381 50.8584 75.1541 50.8584 75.1741C50.8584 75.4751 50.8274 75.8072 50.7514 76.1662C50.2024 78.7482 47.6084 81.4181 43.0444 84.1051C42.3294 84.5191 41.4094 84.2801 40.9894 83.5661ZM40.4174 99.7261C39.8184 99.7261 39.3334 99.2401 39.3334 98.6421C39.3334 98.0421 39.8184 97.5581 40.4174 97.5581C41.0164 97.5581 41.5014 98.0421 41.5014 98.6421C41.5014 99.2391 41.0154 99.7261 40.4174 99.7261ZM86.7304 52.4131L86.7374 52.5521L86.7064 52.6891C77.7154 91.8861 44.9264 98.5621 44.5964 98.6251C44.0544 98.7291 43.5314 98.3711 43.4274 97.8301C43.3204 97.2911 43.6794 96.7641 44.2214 96.6601C44.5384 96.5991 75.9874 90.1441 84.7234 52.3891C84.5474 50.2391 81.6534 22.6061 50.3294 9.24312C49.8194 9.02611 49.5874 8.43413 49.8024 7.93013C50.0194 7.42212 50.6064 7.18615 51.1154 7.40315C84.7384 21.7472 86.7144 52.1091 86.7304 52.4131Z" fill="#231D1A"/>
<path d="M73.6553 61.5528C73.6553 61.6548 73.6333 61.7478 73.6133 61.8418C73.6333 61.7478 73.6553 61.6538 73.6553 61.5528Z" fill="#231D1A"/>
<path d="M72.1074 61.5994C72.1094 61.6464 72.1214 61.6894 72.1274 61.7344C72.1214 61.6894 72.1094 61.6464 72.1074 61.5994Z" fill="#231D1A"/>
<path d="M1.00201 51.444L0.832029 51.444L0.982023 53.592L0.976011 54.0879L1.01501 56.186L1.13803 56.1799C2.53603 77.4459 7.03802 90.789 15.249 98.082C23.286 105.219 33.952 105.578 43.325 104.988C55.669 104.209 67.892 97.5089 77.746 86.1249C86.265 76.2789 91.793 64.0899 92.78 53.1269L92.905 51.16C92.892 50.937 92.873 50.596 92.861 50.504C90.579 27.182 67.261 0.0899553 40.592 0.0899565C16.644 0.0899575 1.62701 8.74596 1.00201 51.444ZM88.884 50.9219L88.908 51.11C87.985 72.471 67.358 99.4649 43.074 100.997C30.953 101.761 23.426 99.993 17.906 95.091C10.396 88.423 6.17903 74.9739 5.01303 53.9759L4.98303 53.5829L4.98404 53.452C5.17204 7.80395 21.222 4.09093 40.593 4.09093C64.825 4.08993 86.824 29.7089 88.884 50.9219Z" fill="#040101"/>
<path d="M92.9153 51.0153L92.9062 51.1603C92.9102 51.2283 92.9133 51.2873 92.9153 51.3223L92.9153 51.0153Z" fill="#010101"/>
<path d="M38.2832 47.6514C38.2342 48.2144 38.6352 48.6905 39.1832 48.7415C40.8392 48.8995 42.3682 49.3955 43.7322 50.0545L38.5062 56.3925C38.1532 56.8165 38.2162 57.4495 38.6422 57.7985C39.0682 58.1505 39.6992 58.0895 40.0492 57.6635L45.5012 51.0485C48.5892 53.0215 50.4742 55.5195 50.5032 55.5585C50.8312 56.0015 51.4582 56.0975 51.9012 55.7695C52.1672 55.5725 52.3072 55.2715 52.3072 54.9645C52.3072 54.7575 52.2442 54.5505 52.1122 54.3725C51.9052 54.0895 46.9482 47.4705 39.3722 46.7515C38.8232 46.6975 38.3352 47.1024 38.2832 47.6514Z" fill="#010101"/>
<path d="M65.7076 61.5524C65.7076 61.6164 65.6886 61.6714 65.6816 61.7344C65.6886 61.6714 65.7076 61.6164 65.7076 61.5524Z" fill="#894D20"/>
<path d="M45.3691 72.5352C56.5511 72.5082 66.1041 67.0941 69.8291 59.5121L68.9021 58.7722L66.8161 60.4382C66.9221 60.7802 66.9821 61.1551 66.9821 61.5511C66.9821 63.1151 66.0601 64.3912 64.9291 64.3912C64.4571 64.3912 64.0281 64.1611 63.6801 63.7891C59.5981 68.8561 52.1181 71.7852 45.3691 72.5352Z" fill="#894D20"/>
<path d="M65.7071 42.58C65.7071 42.685 65.6851 42.779 65.6641 42.875C65.6841 42.779 65.7071 42.686 65.7071 42.58Z" fill="#894D20"/>
<path d="M64.1523 42.58C64.1523 42.685 64.1743 42.779 64.1953 42.875C64.1753 42.779 64.1523 42.686 64.1523 42.58Z" fill="#894D20"/>
<path d="M64.2509 43.0742C64.2399 43.0472 64.2228 43.0272 64.2148 42.9982C64.2228 43.0282 64.2399 43.0472 64.2509 43.0742Z" fill="#894D20"/>
<path d="M62.9574 41.832C63.1974 40.631 63.9864 39.7401 64.9314 39.7401C65.2894 39.7401 65.6234 39.881 65.9164 40.105C61.1134 35.417 53.6544 32.398 45.2874 32.398C45.0454 32.398 44.8074 32.406 44.5664 32.412C47.7574 32.742 51.4124 33.853 53.5934 34.725C57.2694 36.192 60.5384 38.719 62.9574 41.832Z" fill="#894D20"/>
<path d="M65.6454 42.9982C65.6374 43.0272 65.6204 43.0472 65.6094 43.0742C65.6204 43.0472 65.6384 43.0282 65.6454 42.9982Z" fill="#894D20"/>
<path d="M66.771 43.8087L68.9019 45.5117L69.591 44.9607C68.74 43.3537 67.631 41.8457 66.293 40.4747C66.713 40.9957 66.981 41.7427 66.981 42.5797C66.982 43.0237 66.902 43.4357 66.771 43.8087Z" fill="#894D20"/>
<path d="M70.2924 46.4398L68.9034 47.5468L66.0273 45.2498L66.0273 45.2518L68.9034 47.5488L70.2924 46.4398Z" fill="#894D20"/>
<path d="M50.7494 76.1604C50.8254 75.8014 50.8564 75.4694 50.8564 75.1684C50.8564 75.1484 50.8513 75.1334 50.8503 75.1114C59.6883 73.7594 67.1184 69.2544 71.1774 63.1424C71.5474 63.8944 72.1703 64.3904 72.8763 64.3904C74.0093 64.3904 74.9304 63.1154 74.9304 61.5504C74.9304 60.2204 74.2624 59.1204 73.3694 58.8164C73.8874 57.3904 74.2364 55.9084 74.3964 54.3844L75.2423 53.7084C75.6113 54.4744 76.2394 54.9794 76.9524 54.9794C78.0854 54.9794 79.0053 53.7064 79.0053 52.1394C79.0053 50.5724 78.0844 49.2994 76.9524 49.2994C76.2394 49.2994 75.6113 49.8054 75.2423 50.5704L74.3033 49.8204C74.0803 48.2914 73.6744 46.8064 73.0914 45.3824C74.1214 45.2324 74.9304 44.0404 74.9304 42.5774C74.9304 41.0114 74.0073 39.7374 72.8763 39.7374C72.0203 39.7374 71.2854 40.4674 70.9784 41.5014C69.2564 38.9974 66.9704 36.7694 64.2483 34.9314C64.1023 34.8334 63.9534 34.7424 63.8064 34.6464C63.6344 34.5354 63.4663 34.4214 63.2913 34.3144C63.1653 34.2364 63.0343 34.1624 62.9073 34.0854C62.7053 33.9644 62.5053 33.8414 62.2993 33.7244C62.2283 33.6854 62.1533 33.6484 62.0833 33.6074C61.8173 33.4594 61.5503 33.3124 61.2783 33.1714C61.0674 33.0624 60.8524 32.9584 60.6384 32.8554C60.5004 32.7874 60.3644 32.7164 60.2244 32.6504C59.9064 32.5004 59.5823 32.3574 59.2563 32.2144C59.2183 32.1984 59.1823 32.1814 59.1433 32.1654C58.4983 31.8904 57.8364 31.6364 57.1644 31.3974C57.0734 31.3664 56.9853 31.3314 56.8943 31.2994C56.5443 31.1804 56.1894 31.0654 55.8314 30.9554C55.7994 30.9454 55.7674 30.9344 55.7334 30.9244C55.3754 30.8154 55.0114 30.7134 54.6464 30.6154C54.6134 30.6074 54.5804 30.5954 54.5464 30.5884C54.1904 30.4924 53.8293 30.4064 53.4673 30.3224C53.4233 30.3124 53.3803 30.3014 53.3373 30.2914C53.0433 30.2254 52.7464 30.1644 52.4484 30.1054C52.3334 30.0824 52.2194 30.0564 52.1044 30.0334C51.7564 29.9694 51.4053 29.9104 51.0533 29.8534C50.9863 29.8434 50.9204 29.8304 50.8544 29.8204C50.8554 29.8184 50.8614 29.8104 50.8614 29.8104C50.8624 29.7904 50.8664 29.7754 50.8664 29.7534C50.8664 29.4524 50.8354 29.1224 50.7594 28.7614C50.2104 26.1814 47.6173 23.5094 43.0533 20.8234C42.3393 20.4034 41.4194 20.6414 40.9994 21.3544C40.5804 22.0694 40.8173 22.9894 41.5313 23.4094C46.3083 26.2204 47.6453 28.3374 47.8463 29.4324C47.8483 29.4464 47.8544 29.4634 47.8564 29.4794L47.8574 29.4914L47.8444 29.4874C46.9994 29.4284 46.1474 29.3934 45.2834 29.3934C29.1744 29.3934 16.0684 39.7414 16.0684 52.4594C16.0684 65.1824 29.1734 75.5314 45.2834 75.5314C46.1464 75.5314 46.9994 75.4964 47.8444 75.4374C47.6724 76.5174 46.3623 78.6584 41.5183 81.5074C40.8053 81.9254 40.5674 82.8454 40.9874 83.5604C41.4074 84.2754 42.3273 84.5134 43.0403 84.0934C47.6063 81.4124 50.2004 78.7424 50.7494 76.1604ZM73.6544 42.5804C73.6544 43.1744 73.3063 43.6564 72.8773 43.6564C72.4483 43.6564 72.1003 43.1744 72.1003 42.5804C72.1003 41.9864 72.4483 41.5044 72.8773 41.5044C73.3063 41.5044 73.6544 41.9864 73.6544 42.5804ZM68.9033 56.7354L66.0273 59.0324L66.0273 54.4384L63.1504 52.1434L66.0273 49.8464L66.0273 45.2524L66.0273 45.2504L68.9033 47.5474L70.2924 46.4404L71.7794 45.2524L71.7794 49.8464L74.6563 52.1434L71.7794 54.4384L71.7794 59.0324L68.9033 56.7354ZM64.1794 61.7354C64.1714 61.6724 64.1533 61.6184 64.1533 61.5534C64.1533 61.5514 64.1533 61.5514 64.1533 61.5514C64.1533 60.9574 64.5014 60.4774 64.9304 60.4774C65.3594 60.4774 65.7074 60.9574 65.7074 61.5514C65.7074 61.5514 65.7074 61.5514 65.7074 61.5534C65.7074 61.6174 65.6884 61.6724 65.6814 61.7354C65.6174 62.2394 65.3134 62.6284 64.9304 62.6284C64.5474 62.6284 64.2434 62.2384 64.1794 61.7354ZM61.0583 53.2194C60.6283 53.2194 60.2804 52.7374 60.2804 52.1434C60.2804 51.5494 60.6293 51.0674 61.0583 51.0674C61.4863 51.0674 61.8354 51.5494 61.8354 52.1434C61.8354 52.7374 61.4873 53.2194 61.0583 53.2194ZM59.9503 49.7584C59.3833 50.2644 59.0053 51.1414 59.0053 52.1434C59.0053 53.2844 59.4973 54.2644 60.2003 54.7154C57.1263 60.8174 42.6593 66.0514 38.1353 66.0514C33.6093 66.0514 29.7844 59.8304 29.7844 52.4674C29.7844 45.1044 33.6083 38.8834 38.1353 38.8834C42.5453 38.8834 56.4023 43.8584 59.9503 49.7584ZM69.5923 44.9614L68.9033 45.5124L66.7724 43.8094C66.9034 43.4364 66.9834 43.0244 66.9834 42.5804C66.9834 41.7424 66.7143 40.9964 66.2953 40.4754C67.6323 41.8464 68.7413 43.3544 69.5923 44.9614ZM65.7074 42.5804C65.7074 42.6854 65.6854 42.7794 65.6644 42.8754C65.6554 42.9164 65.6574 42.9614 65.6454 42.9984C65.6374 43.0274 65.6203 43.0474 65.6093 43.0744C65.4793 43.4144 65.2283 43.6564 64.9294 43.6564C64.6304 43.6564 64.3794 43.4144 64.2494 43.0744C64.2384 43.0474 64.2213 43.0274 64.2133 42.9984C64.2013 42.9614 64.2034 42.9164 64.1944 42.8754C64.1734 42.7794 64.1514 42.6864 64.1514 42.5804C64.1514 41.9864 64.4993 41.5044 64.9283 41.5044C65.3573 41.5044 65.7074 41.9864 65.7074 42.5804ZM72.8773 60.4774C73.3073 60.4774 73.6544 60.9574 73.6544 61.5514C73.6544 61.5514 73.6544 61.5514 73.6544 61.5534C73.6544 61.6554 73.6324 61.7484 73.6124 61.8424C73.5184 62.2934 73.2313 62.6274 72.8773 62.6274C72.4943 62.6274 72.1903 62.2384 72.1263 61.7344C72.1203 61.6894 72.1084 61.6464 72.1064 61.5994C72.1064 61.5814 72.0994 61.5684 72.0994 61.5504C72.0994 60.9574 72.4473 60.4774 72.8773 60.4774ZM77.7303 52.1434C77.7303 52.7354 77.3824 53.2174 76.9534 53.2174C76.5244 53.2174 76.1764 52.7354 76.1764 52.1434C76.1764 51.5474 76.5244 51.0674 76.9534 51.0674C77.3824 51.0674 77.7303 51.5474 77.7303 52.1434ZM19.0713 52.4654C19.0713 41.5864 30.4424 32.7074 44.5654 32.4124C44.8054 32.4064 45.0443 32.3984 45.2863 32.3984C53.6533 32.3984 61.1123 35.4184 65.9153 40.1054C65.6223 39.8804 65.2884 39.7404 64.9304 39.7404C63.9864 39.7404 63.1974 40.6314 62.9564 41.8324C62.9094 42.0724 62.8754 42.3204 62.8754 42.5804C62.8754 44.0624 63.7033 45.2684 64.7513 45.3944L64.7513 48.8264L63.3304 49.9594C60.3564 41.7364 43.6043 35.8834 38.1353 35.8834C31.7703 35.8834 26.7844 43.1684 26.7844 52.4674C26.7844 61.7684 31.7693 69.0514 38.1353 69.0514C43.7193 69.0514 61.0604 62.9494 63.4944 54.4534L64.7513 55.4574L64.7513 58.7364C63.7033 58.8634 62.8754 60.0704 62.8754 61.5504C62.8754 62.4624 63.1944 63.2694 63.6814 63.7884C64.0294 64.1594 64.4584 64.3904 64.9304 64.3904C66.0614 64.3904 66.9834 63.1154 66.9834 61.5504C66.9834 61.1544 66.9234 60.7794 66.8174 60.4374L68.9033 58.7714L69.8304 59.5114C66.1054 67.0934 56.5524 72.5074 45.3704 72.5344C45.3424 72.5344 45.3144 72.5364 45.2874 72.5364C30.8314 72.5374 19.0713 63.5334 19.0713 52.4654Z" fill="#040101"/>
<path d="M49.8021 7.92983C49.5871 8.43383 49.8201 9.02588 50.3291 9.24288C81.6521 22.6059 84.5471 50.2389 84.7231 52.3889C75.9871 90.1449 44.5381 96.5999 44.2211 96.6599C43.6791 96.7639 43.3201 97.2909 43.4271 97.8299C43.5311 98.3709 44.0541 98.7279 44.5961 98.6249C44.9261 98.5619 77.7151 91.8869 86.7061 52.6889L86.7371 52.5518L86.7301 52.4129C86.7131 52.1079 84.7381 21.7468 51.1141 7.40084C50.6051 7.18584 50.0181 7.42183 49.8021 7.92983Z" fill="#5E5E5E"/>
<path d="M41.502 98.6426C41.502 98.0439 41.0167 97.5586 40.418 97.5586C39.8193 97.5586 39.334 98.0439 39.334 98.6426C39.334 99.2413 39.8193 99.7266 40.418 99.7266C41.0167 99.7266 41.502 99.2413 41.502 98.6426Z" fill="#5E5E5E"/>
<path d="M21.1132 52.1112C21.1232 52.0092 22.2002 41.8342 32.9442 36.8862C33.1272 36.8022 33.2351 36.6202 33.2351 36.4332C33.2351 36.3632 33.2202 36.2902 33.1892 36.2242C33.0742 35.9722 32.7772 35.8632 32.5262 35.9782C21.2642 41.1642 20.1281 51.9102 20.1181 52.0172C20.0881 52.2942 20.2942 52.5372 20.5682 52.5622C20.8442 52.5882 21.0882 52.3872 21.1132 52.1112Z" fill="#3E3633"/>
<path d="M71.7794 59.0312L71.7794 54.4383L74.6564 52.1432L71.7794 49.8463L71.7794 45.2523L70.2924 46.4402L68.9034 47.5493L66.0274 45.2523L66.0274 49.8463L63.1504 52.1432L66.0274 54.4383L66.0274 59.0312L68.9034 56.7353L71.7794 59.0312Z" fill="#FDB71E"/>
<path d="M61.8372 52.1428C61.8372 51.5485 61.4889 51.0668 61.0592 51.0668C60.6296 51.0668 60.2812 51.5485 60.2812 52.1428C60.2812 52.737 60.6296 53.2187 61.0592 53.2187C61.4889 53.2187 61.8372 52.737 61.8372 52.1428Z" fill="#FDB71E"/>
<path d="M77.7298 52.1428C77.7298 51.5496 77.3819 51.0688 76.9528 51.0688C76.5237 51.0688 76.1758 51.5496 76.1758 52.1428C76.1758 52.7359 76.5237 53.2168 76.9528 53.2168C77.3819 53.2168 77.7298 52.7359 77.7298 52.1428Z" fill="#FDB71E"/>
<path d="M73.6536 42.5803C73.6536 41.986 73.3057 41.5043 72.8766 41.5043C72.4475 41.5043 72.0996 41.986 72.0996 42.5803C72.0996 43.1745 72.4475 43.6562 72.8766 43.6562C73.3057 43.6562 73.6536 43.1745 73.6536 42.5803Z" fill="#FDB71E"/>
<path d="M64.1523 42.5803C64.1523 42.6853 64.1743 42.7792 64.1953 42.8752C64.2043 42.9162 64.2024 42.9613 64.2144 42.9983C64.2224 43.0273 64.2394 43.0473 64.2504 43.0743C64.3804 43.4143 64.6314 43.6562 64.9304 43.6562C65.2294 43.6562 65.4804 43.4143 65.6104 43.0743C65.6214 43.0473 65.6384 43.0273 65.6464 42.9983C65.6584 42.9613 65.6563 42.9162 65.6653 42.8752C65.6863 42.7792 65.7083 42.6863 65.7083 42.5803C65.7083 41.9863 65.3604 41.5043 64.9314 41.5043C64.5024 41.5043 64.1523 41.9863 64.1523 42.5803Z" fill="#FDB71E"/>
<path d="M72.0996 61.5519C72.0996 61.5699 72.1066 61.5829 72.1066 61.6009C72.1086 61.6479 72.1206 61.6909 72.1266 61.7359C72.1906 62.2399 72.4946 62.6289 72.8776 62.6289C73.2316 62.6289 73.5196 62.2949 73.6126 61.8439C73.6326 61.7499 73.6546 61.6559 73.6546 61.5549C73.6546 61.5529 73.6546 61.5529 73.6546 61.5529C73.6546 60.9589 73.3066 60.4789 72.8776 60.4789C72.4486 60.4789 72.0996 60.9579 72.0996 61.5519Z" fill="#FDB71E"/>
<path d="M65.6804 61.7359C65.6884 61.6729 65.7064 61.6189 65.7064 61.5539C65.7064 61.5519 65.7064 61.5519 65.7064 61.5519C65.7064 60.9579 65.3584 60.4779 64.9294 60.4779C64.5004 60.4779 64.1523 60.9579 64.1523 61.5519C64.1523 61.5519 64.1523 61.5519 64.1523 61.5539C64.1523 61.6179 64.1713 61.6729 64.1783 61.7359C64.2423 62.2399 64.5464 62.6289 64.9294 62.6289C65.3124 62.6289 65.6164 62.2389 65.6804 61.7359Z" fill="#FDB71E"/>
</svg>
