<svg width="77" height="77" viewBox="0 0 77 77" fill="none" xmlns="http://www.w3.org/2000/svg">
<path d="M76.5215 38.7993C76.5215 17.8167 59.5083 0.803529 38.5215 0.799335C17.5347 0.795141 0.521482 17.8015 0.521483 38.7842C0.521484 59.7668 17.5347 76.78 38.5215 76.7842C59.5083 76.7884 76.5215 59.782 76.5215 38.7993Z" fill="#3CA3CF"/>
<mask id="mask0" mask-type="alpha" maskUnits="userSpaceOnUse" x="7" y="7" width="63" height="63">
<path d="M69.7671 38.7909C69.7671 21.6276 55.8238 7.71447 38.6238 7.71507C21.4238 7.71567 7.48047 21.6298 7.48047 38.7931C7.48047 55.9565 21.4238 69.8696 38.6238 69.869C55.8238 69.8684 69.7671 55.9543 69.7671 38.7909Z" fill="#3CA3CF"/>
</mask>
<g mask="url(#mask0)">
<path d="M51.1257 30.2054H47.7912L49.6135 32.0243C49.688 32.1079 49.7276 32.2168 49.7243 32.3286C49.721 32.4404 49.675 32.5467 49.5958 32.6258C49.5166 32.7049 49.41 32.7508 49.298 32.7541C49.186 32.7574 49.0769 32.7178 48.9932 32.6435L46.5634 30.2183H44.5472L48.334 33.9981C48.4085 34.0817 48.4481 34.1905 48.4448 34.3023C48.4415 34.4141 48.3955 34.5205 48.3163 34.5996C48.237 34.6787 48.1305 34.7246 48.0185 34.7278C47.9065 34.7311 47.7974 34.6916 47.7137 34.6173L43.3711 30.2054H41.2385L47.1191 36.075C47.1936 36.1586 47.2332 36.2675 47.2299 36.3793C47.2266 36.4911 47.1806 36.5974 47.1014 36.6765C47.0221 36.7556 46.9156 36.8015 46.8036 36.8048C46.6916 36.8081 46.5825 36.7685 46.4988 36.6942L40.0366 30.2441H38.4081L42.195 34.0239C42.2694 34.1075 42.309 34.2163 42.3057 34.3281C42.3024 34.4399 42.2565 34.5463 42.1772 34.6254C42.098 34.7045 41.9914 34.7504 41.8794 34.7536C41.7674 34.7569 41.6584 34.7174 41.5746 34.6431L37.1803 30.2441H36.5599L34.7117 32.0888V34.5528H40.3597L35.5518 35.5332L36.9994 36.978H45.7492L39.1965 39.1582L40.3597 40.3192H46.1498L41.3419 41.2996L42.6732 42.6542H46.111L45.9559 46.5243L42.0786 46.6662V43.2347L40.6957 41.8802L39.7135 46.6791V40.8997L38.5503 39.7387L36.3661 46.2792V37.494L34.9185 36.0492L33.9363 40.8481V35.2752H31.8167H31.4677L31.2222 35.5074L30.5501 36.1782L29.6196 37.107V39.2356L34.0268 43.6346C34.1012 43.7182 34.1408 43.8271 34.1375 43.9389C34.1342 44.0507 34.0883 44.157 34.009 44.2361C33.9298 44.3152 33.8232 44.3611 33.7112 44.3644C33.5992 44.3677 33.4902 44.3281 33.4064 44.2538L29.6196 40.474V42.0737L36.0817 48.5238C36.1562 48.6074 36.1958 48.7163 36.1925 48.8281C36.1892 48.9399 36.1432 49.0462 36.064 49.1253C35.9847 49.2044 35.8782 49.2503 35.7662 49.2536C35.6542 49.2569 35.5451 49.2173 35.4614 49.143L29.5808 43.2863V45.3632L33.988 49.7493C34.0624 49.833 34.1021 49.9418 34.0988 50.0536C34.0955 50.1654 34.0495 50.2718 33.9702 50.3509C33.891 50.43 33.7845 50.4758 33.6725 50.4791C33.5604 50.4824 33.4514 50.4429 33.3676 50.3686L29.5808 46.5888V48.6657L32.3207 51.4006C32.3952 51.4842 32.4348 51.593 32.4315 51.7049C32.4282 51.8167 32.3822 51.923 32.303 52.0021C32.2238 52.0812 32.1172 52.1271 32.0052 52.1304C31.8932 52.1337 31.7841 52.0941 31.7004 52.0198L29.2447 49.5687C29.1765 49.5826 29.1062 49.5826 29.038 49.5687L26.5694 52.0327C26.4856 52.107 26.3766 52.1466 26.2646 52.1433C26.1525 52.14 26.046 52.0941 25.9668 52.015C25.8875 51.9359 25.8416 51.8296 25.8383 51.7178C25.835 51.6059 25.8746 51.4971 25.949 51.4135L28.689 48.6786V46.6146L24.9668 50.3944C24.883 50.4687 24.774 50.5082 24.6619 50.5049C24.5499 50.5016 24.4434 50.4558 24.3642 50.3767C24.2849 50.2976 24.2389 50.1912 24.2356 50.0794C24.2323 49.9676 24.272 49.8588 24.3464 49.7751L28.7536 45.389V43.3121L22.873 49.1688C22.7893 49.2431 22.6802 49.2827 22.5682 49.2794C22.4562 49.2761 22.3497 49.2302 22.2704 49.1511C22.1912 49.072 22.1452 48.9657 22.1419 48.8539C22.1386 48.7421 22.1782 48.6332 22.2527 48.5496L28.7148 42.0995V40.4869L24.928 44.2667C24.8442 44.341 24.7352 44.3806 24.6232 44.3773C24.5112 44.374 24.4046 44.3281 24.3254 44.249C24.2461 44.1699 24.2002 44.0636 24.1969 43.9518C24.1936 43.84 24.2332 43.7311 24.3076 43.6475L28.7148 39.2485V37.1199L27.8618 36.204L27.1898 35.5332L26.9313 35.301H24.4757V40.9384L23.4934 36.1395L21.9942 37.494V46.2276L19.81 39.6871L18.6468 40.8481V46.6275L17.6645 41.8286L16.3075 43.1831V46.6146L12.3526 46.5243L12.2104 42.6542H15.6483L17.0054 41.2996L12.1975 40.3192H17.9876L19.1508 39.1582L12.5982 36.978H21.3997L22.8472 35.5332L18.0393 34.5528H23.6873V32.3984C23.6873 32.321 23.6873 32.1662 23.6873 32.0501L23.4546 31.805L22.6921 31.1213L21.7615 30.1925H19.6807L15.2735 34.5915C15.1897 34.6658 15.0807 34.7053 14.9687 34.702C14.8567 34.6988 14.7501 34.6529 14.6709 34.5738C14.5916 34.4947 14.5457 34.3883 14.5424 34.2765C14.5391 34.1647 14.5787 34.0559 14.6531 33.9723L18.44 30.1925H16.8503L10.3881 36.6426C10.3043 36.7169 10.1953 36.7565 10.0833 36.7532C9.97125 36.7499 9.86473 36.704 9.78548 36.6249C9.70624 36.5458 9.66026 36.4395 9.65696 36.3277C9.65367 36.2159 9.69329 36.107 9.76774 36.0234L15.6354 30.1538H13.5417L9.14737 34.5528C9.0636 34.6271 8.95455 34.6666 8.84253 34.6633C8.73051 34.6601 8.62399 34.6142 8.54474 34.5351C8.4655 34.456 8.41952 34.3496 8.41623 34.2378C8.41293 34.126 8.45256 34.0172 8.527 33.9336L12.3526 30.2054H10.233L7.49305 32.9402C7.40906 33.0027 7.30548 33.0332 7.20097 33.0261C7.09646 33.0191 6.99791 32.9751 6.92307 32.9019C6.84823 32.8288 6.80202 32.7313 6.79279 32.6272C6.78355 32.5231 6.81188 32.4191 6.87268 32.3339L9.32831 29.8829C9.31439 29.8148 9.31439 29.7446 9.32831 29.6765L6.87268 27.1738C6.79824 27.0902 6.75861 26.9813 6.76191 26.8695C6.76521 26.7577 6.81118 26.6514 6.89042 26.5723C6.96967 26.4932 7.0762 26.4473 7.18822 26.444C7.30024 26.4407 7.40928 26.4803 7.49305 26.5546L10.233 29.2894H12.3526L8.4753 25.5613C8.40086 25.4776 8.36123 25.3688 8.36453 25.257C8.36783 25.1452 8.4138 25.0388 8.49304 24.9597C8.57229 24.8806 8.67882 24.8348 8.79084 24.8315C8.90286 24.8282 9.0119 24.8677 9.09567 24.942L13.49 29.341H15.5708L9.76774 23.4714C9.69329 23.3878 9.65367 23.2789 9.65696 23.1671C9.66026 23.0553 9.70624 22.949 9.78548 22.8699C9.86473 22.7908 9.97125 22.7449 10.0833 22.7416C10.1953 22.7383 10.3043 22.7779 10.3881 22.8522L16.8503 29.3023H18.4529L14.6661 25.5226C14.5916 25.4389 14.552 25.3301 14.5553 25.2183C14.5586 25.1065 14.6046 25.0001 14.6838 24.921C14.7631 24.8419 14.8696 24.7961 14.9816 24.7928C15.0936 24.7895 15.2027 24.829 15.2864 24.9033L19.6936 29.3023H21.8262L22.6921 28.4638L23.3642 27.793L23.5968 27.535C23.5968 27.4189 23.5968 27.2512 23.5968 27.1996V25.0194H18.0264L22.8343 24.039L21.3997 22.5942H12.6369L19.1896 20.414L18.0264 19.253H12.2492L17.0571 18.2726L15.6871 16.8535H12.2492L12.3526 12.9834L16.2299 12.8415V16.273L17.0959 17.1373L17.587 17.6276L18.5692 12.8286V18.608L19.7324 19.769L21.9166 13.2286V22.0137L23.3642 23.4585L24.3464 18.6596V24.297H26.5694H26.9184L27.1639 24.0648L27.8618 23.3037L28.7924 22.3749V21.7557L24.3852 17.3696C24.3107 17.2859 24.2711 17.1771 24.2744 17.0653C24.2777 16.9535 24.3237 16.8471 24.4029 16.768C24.4822 16.6889 24.5887 16.6431 24.7007 16.6398C24.8127 16.6365 24.9218 16.676 25.0056 16.7503L28.7924 20.5301V18.9563L22.3302 12.5061C22.2558 12.4225 22.2161 12.3137 22.2194 12.2019C22.2227 12.0901 22.2687 11.9837 22.348 11.9046C22.4272 11.8255 22.5337 11.7796 22.6457 11.7764C22.7578 11.7731 22.8668 11.8126 22.9506 11.8869L28.8312 17.7566V15.6538L24.424 11.2548C24.3495 11.1712 24.3099 11.0623 24.3132 10.9505C24.3165 10.8387 24.3625 10.7324 24.4417 10.6533C24.5209 10.5742 24.6275 10.5283 24.7395 10.525C24.8515 10.5217 24.9606 10.5613 25.0443 10.6356L28.8312 14.4154V12.3513L26.0912 9.61647C26.0168 9.53285 25.9771 9.42401 25.9804 9.3122C25.9837 9.20038 26.0297 9.09406 26.1089 9.01496C26.1882 8.93586 26.2947 8.88997 26.4067 8.88668C26.5188 8.88339 26.6278 8.92294 26.7116 8.99725L28.8312 11.1129V7.82332C28.8489 7.72151 28.902 7.6292 28.9812 7.56267C29.0604 7.49614 29.1606 7.45966 29.2641 7.45966C29.3677 7.45966 29.4679 7.49614 29.5471 7.56267C29.6263 7.6292 29.6794 7.72151 29.6971 7.82332V11.1387L31.7391 9.01015C31.8229 8.93584 31.932 8.89629 32.044 8.89958C32.156 8.90287 32.2625 8.94876 32.3418 9.02786C32.421 9.10695 32.467 9.21328 32.4703 9.3251C32.4736 9.43691 32.434 9.54575 32.3595 9.62937L29.6196 12.3642V14.4412L33.4064 10.6614C33.4902 10.5871 33.5992 10.5475 33.7112 10.5508C33.8232 10.5541 33.9298 10.6 34.009 10.6791C34.0883 10.7582 34.1342 10.8645 34.1375 10.9763C34.1408 11.0881 34.1012 11.197 34.0268 11.2806L29.6196 15.6796V17.7566L35.5001 11.8869C35.5839 11.8126 35.693 11.7731 35.805 11.7764C35.917 11.7796 36.0235 11.8255 36.1028 11.9046C36.182 11.9837 36.228 12.0901 36.2313 12.2019C36.2346 12.3137 36.195 12.4225 36.1205 12.5061L29.6583 18.9563V20.5559L33.4452 16.7761C33.5289 16.7018 33.638 16.6623 33.75 16.6656C33.862 16.6689 33.9685 16.7147 34.0478 16.7938C34.127 16.8729 34.173 16.9793 34.1763 17.0911C34.1796 17.2029 34.14 17.3117 34.0655 17.3954L29.6583 21.7815V22.4007L30.5889 23.3295L31.2609 24.0003L31.5194 24.2325H33.9751V18.6338L34.9573 23.4327L36.379 22.0137V13.2544L38.5632 19.7948L39.7264 18.6338V12.8544L40.7087 17.6534L42.0786 16.2988V12.8673L45.9559 12.9834L46.0981 16.8535H42.6732L41.8072 17.7179L41.3161 18.2081L46.124 19.1885H40.3338L39.1707 20.3495L45.7233 22.5297H36.9864L35.5389 23.9745L40.3468 24.9549H34.6988V27.1738C34.6988 27.2512 34.6988 27.406 34.6988 27.5221L34.9315 27.7672L35.6165 28.4638L36.547 29.3926H37.1674L41.5617 24.9936C41.6454 24.9193 41.7545 24.8798 41.8665 24.8831C41.9785 24.8864 42.085 24.9323 42.1643 25.0113C42.2435 25.0904 42.2895 25.1968 42.2928 25.3086C42.2961 25.4204 42.2565 25.5292 42.182 25.6129L38.3952 29.3926H40.0107L46.4729 22.9425C46.5567 22.8682 46.6657 22.8286 46.7777 22.8319C46.8898 22.8352 46.9963 22.8811 47.0755 22.9602C47.1548 23.0393 47.2008 23.1456 47.2041 23.2574C47.2074 23.3692 47.1677 23.4781 47.0933 23.5617L41.2127 29.4314H43.3711L47.7783 25.0323C47.862 24.958 47.9711 24.9185 48.0831 24.9218C48.1951 24.9251 48.3017 24.971 48.3809 25.05C48.4602 25.1291 48.5061 25.2355 48.5094 25.3473C48.5127 25.4591 48.4731 25.5679 48.3986 25.6516L44.6118 29.4314H46.0852C46.1036 29.3633 46.1392 29.3012 46.1886 29.2507L49.0578 26.3869C49.1416 26.3126 49.2506 26.273 49.3626 26.2763C49.4746 26.2796 49.5812 26.3255 49.6604 26.4046C49.7397 26.4837 49.7856 26.59 49.7889 26.7018C49.7922 26.8136 49.7526 26.9225 49.6782 27.0061L47.2484 29.4314H51.1257C51.196 29.4688 51.2547 29.5245 51.2957 29.5927C51.3367 29.6609 51.3583 29.7389 51.3583 29.8184C51.3583 29.8979 51.3367 29.9759 51.2957 30.044C51.2547 30.1122 51.196 30.168 51.1257 30.2054V30.2054ZM22.9894 29.341H24.6566L25.1607 28.8379C25.2942 28.6877 25.4366 28.5455 25.5872 28.4122L25.6518 28.3477C25.6542 28.3177 25.6542 28.2875 25.6518 28.2574C25.6399 28.0555 25.6399 27.853 25.6518 27.6511V26.9416L24.4757 25.7677V26.374C24.5613 26.8648 24.5613 27.3667 24.4757 27.8575C24.3076 28.2574 23.7519 28.6315 23.4546 28.9282L22.9894 29.341ZM24.4757 33.2111V33.8175L25.6518 32.6435V31.934C25.6399 31.7321 25.6399 31.5296 25.6518 31.3277C25.6542 31.2976 25.6542 31.2674 25.6518 31.2374L25.5872 31.1729C25.4366 31.0396 25.2942 30.8975 25.1607 30.7472L24.6566 30.2441H23.054L23.4805 30.6698C23.7907 30.9665 24.3335 31.3277 24.5015 31.7405C24.5949 32.2166 24.608 32.7049 24.5403 33.1853L24.4757 33.2111ZM28.689 34.2561L28.1849 33.753C28.0344 33.6197 27.892 33.4775 27.7584 33.3272L27.6938 33.2627H27.6034C27.401 33.2746 27.1982 33.2746 26.9959 33.2627H26.2851L26.0524 33.4949L25.109 34.4367H25.7164C26.2081 34.3512 26.711 34.3512 27.2027 34.4367C27.6034 34.6044 27.9782 35.1591 28.2754 35.4558L28.7019 35.8815L28.689 34.2561ZM26.5694 28.6831C26.4456 28.9292 26.2743 29.1484 26.0654 29.3281H28.1462L26.6728 27.8575C26.6948 28.1369 26.6597 28.4178 26.5694 28.6831V28.6831ZM26.0654 30.2054C26.2741 30.3854 26.4453 30.6045 26.5694 30.8504C26.66 31.1156 26.6952 31.3966 26.6728 31.676L28.1462 30.2054H26.0654ZM28.7665 30.8246L27.2673 32.3339C27.5448 32.2939 27.828 32.329 28.0872 32.4357C28.3464 32.5424 28.5721 32.7166 28.7407 32.9402L28.7665 30.8246ZM28.7665 26.6449C28.5862 26.8532 28.3667 27.0241 28.1203 27.148C27.8546 27.2384 27.5731 27.2736 27.2932 27.2512L28.7665 28.7218V26.6449ZM28.7665 23.652L28.34 24.0777C28.0428 24.3873 27.6809 24.9291 27.2673 25.0968C26.7756 25.1824 26.2727 25.1824 25.781 25.0968H25.1477L26.3238 26.2708H27.0347C27.237 26.2589 27.4398 26.2589 27.6421 26.2708H27.7326L27.7972 26.2063C27.9304 26.0557 28.0728 25.9135 28.2237 25.7806L28.7278 25.2774L28.7665 23.652ZM29.6325 25.3161L30.1365 25.8193C30.2874 25.9522 30.4299 26.0944 30.563 26.245L30.6277 26.3095H30.7181C30.9204 26.2976 31.1233 26.2976 31.3256 26.3095H32.0364L33.2125 25.1355H32.6051C32.1133 25.2211 31.6105 25.2211 31.1188 25.1355C30.7181 24.9678 30.3433 24.4131 30.0461 24.1164L29.6196 23.6907L29.6325 25.3161ZM31.7262 27.8962L30.2528 29.3668H32.3466C32.1379 29.1869 31.9666 28.9677 31.8425 28.7218C31.7465 28.4444 31.7113 28.1497 31.7391 27.8575L31.7262 27.8962ZM30.2528 30.2441L31.7391 31.7405V31.0439C31.7368 31.0181 31.7368 30.9922 31.7391 30.9665V30.9665L32.2561 30.4505L30.2528 30.2441ZM29.6325 28.7605L31.1059 27.2899C30.8284 27.3299 30.5452 27.2948 30.286 27.1881C30.0268 27.0815 29.8011 26.9072 29.6325 26.6836V28.7605ZM29.6325 32.9402C29.8128 32.7319 30.0324 32.561 30.2787 32.4371C30.5404 32.3484 30.8173 32.3133 31.0929 32.3339L29.6196 30.8633L29.6325 32.9402ZM33.2254 34.4496L32.0493 33.2756H31.3385C31.1362 33.2875 30.9334 33.2875 30.731 33.2756H30.6406L30.576 33.3401C30.4424 33.4904 30.3 33.6326 30.1495 33.7659L29.6454 34.269V35.9331L30.0719 35.5074C30.3692 35.1978 30.731 34.656 31.1446 34.4883C31.6364 34.4035 32.1391 34.4035 32.6309 34.4883L33.2254 34.4496ZM35.3321 30.2441H33.652L32.6568 31.2374V32.6435L32.8894 32.8757L33.8329 33.8175V31.8695C33.8298 31.8438 33.8298 31.8178 33.8329 31.7921V31.7921L35.3321 30.2441ZM35.3321 29.3797L34.9056 28.954C34.5954 28.6573 34.0526 28.2961 33.8846 27.8833C33.7989 27.3925 33.7989 26.8906 33.8846 26.3998V25.7935L32.7085 26.9674V27.6769C32.7204 27.8788 32.7204 28.0813 32.7085 28.2832C32.706 28.3133 32.706 28.3435 32.7085 28.3735L32.7731 28.438C32.924 28.571 33.0664 28.7131 33.1996 28.8637L33.7037 29.3668L35.3321 29.3797Z" fill="#7FDAE8"/>
<path d="M12.2466 -5.07739C12.2483 -5.03227 12.2409 -4.98727 12.2248 -4.94507C12.2087 -4.90288 12.1842 -4.86436 12.1528 -4.83184C12.1215 -4.79931 12.0838 -4.77345 12.0422 -4.75579C12.0005 -4.73813 11.9558 -4.72905 11.9105 -4.72908H9.19642L10.6569 -3.27135C10.7118 -3.20451 10.7399 -3.11966 10.7357 -3.03329C10.7314 -2.94693 10.6951 -2.86523 10.6339 -2.80409C10.5726 -2.74294 10.4908 -2.70673 10.4042 -2.70249C10.3177 -2.69825 10.2327 -2.72628 10.1657 -2.78114L8.20124 -4.72908H6.5857L9.62292 -1.69751C9.67788 -1.63067 9.70597 -1.54582 9.70172 -1.45945C9.69747 -1.37309 9.66119 -1.29139 9.59993 -1.23025C9.53867 -1.16911 9.45682 -1.13289 9.3703 -1.12865C9.28377 -1.12441 9.19876 -1.15244 9.1318 -1.2073L5.60345 -4.72908H3.9362L8.65359 -0.0204697C8.70855 0.0463696 8.73664 0.131224 8.73239 0.217588C8.72814 0.303952 8.69186 0.385651 8.6306 0.446793C8.56935 0.507935 8.48749 0.544149 8.40097 0.548391C8.31444 0.552633 8.22943 0.524599 8.16247 0.469742L2.99273 -4.69038H1.70029L4.69874 -1.71041C4.76558 -1.6454 4.80381 -1.55656 4.80503 -1.46342C4.80624 -1.37027 4.77033 -1.28047 4.7052 -1.21375C4.64008 -1.14703 4.55106 -1.10887 4.45775 -1.10766C4.36443 -1.10645 4.27446 -1.14229 4.20761 -1.2073L0.718038 -4.72908H0.175215L-1.31109 -3.25845V-1.2718H3.21244L-0.664868 -0.484881L0.498324 0.676147H7.51625L2.26896 2.41769L3.19951 3.34651H7.83936L3.96205 4.13343L5.08647 5.24286H7.83936L7.72304 8.37763L4.59535 8.46794V5.72017L3.5097 4.62364L2.72131 8.49374V3.84962L1.77784 2.9208L0.033047 8.15833V1.16636L-1.13015 0.00533087L-1.86683 3.84962V-0.665485H-3.90888L-4.11567 -0.484881L-4.64557 0.0827327L-5.38226 0.818051V2.52089L-1.86683 6.04268C-1.81187 6.10952 -1.78379 6.19437 -1.78804 6.28074C-1.79229 6.3671 -1.82857 6.4488 -1.88982 6.50994C-1.95108 6.57108 -2.03293 6.6073 -2.11946 6.61154C-2.20598 6.61578 -2.291 6.58775 -2.35796 6.53289L-5.39518 3.51422V4.80425L-0.22544 9.96437C-0.170481 10.0312 -0.142395 10.1161 -0.146645 10.2024C-0.150894 10.2888 -0.187175 10.3705 -0.248432 10.4316C-0.309688 10.4928 -0.391539 10.529 -0.478064 10.5332C-0.564589 10.5375 -0.649601 10.5094 -0.716565 10.4546L-5.39518 5.78467V7.43591L-1.86683 10.9577C-1.81187 11.0245 -1.78379 11.1094 -1.78804 11.1958C-1.79229 11.2821 -1.82857 11.3638 -1.88982 11.425C-1.95108 11.4861 -2.03293 11.5223 -2.11946 11.5266C-2.20598 11.5308 -2.291 11.5028 -2.35796 11.4479L-5.39518 8.42924V10.0934L-3.15927 12.2864C-3.10431 12.3533 -3.07622 12.4381 -3.08047 12.5245C-3.08472 12.6109 -3.121 12.6925 -3.18226 12.7537C-3.24352 12.8148 -3.32537 12.851 -3.41189 12.8553C-3.49842 12.8595 -3.58343 12.8315 -3.65039 12.7766L-5.65367 10.8158H-5.74414V-5.07739H12.2466ZM-4.89113 -4.72908L-3.5987 -3.43905V-4.08407C-3.6007 -4.10552 -3.6007 -4.12712 -3.5987 -4.14857V-4.14857L-3.15927 -4.72908H-4.89113ZM-5.39518 -2.57473C-5.24674 -2.74165 -5.06664 -2.87757 -4.86528 -2.97464C-4.65314 -3.04497 -4.42884 -3.07131 -4.20614 -3.05204L-5.39518 -4.23887V-2.57473ZM-2.51305 -1.3621L-3.45653 -2.30383H-4.0252C-4.18878 -2.29477 -4.35274 -2.29477 -4.51633 -2.30383H-4.58095C-4.69039 -2.18106 -4.80691 -2.06476 -4.92991 -1.95552L-5.33056 -1.55561V-0.265576L-4.9816 -0.613884C-4.80066 -0.755788 -4.4517 -1.2073 -4.18029 -1.3363C-3.78689 -1.40445 -3.38466 -1.40445 -2.99125 -1.3363L-2.51305 -1.3621ZM-0.81996 -4.72908H-2.1124L-2.95248 -3.92926V-2.79404L-2.75861 -2.60053L-1.99608 -1.83941V-3.40035C-1.99878 -3.42177 -1.99878 -3.44344 -1.99608 -3.46485V-3.46485H-1.86683L-0.81996 -4.72908Z" fill="white"/>
<path d="M64.0476 -5.07739V10.8158L62.0831 12.7766C62.0162 12.8315 61.9312 12.8595 61.8446 12.8553C61.7581 12.851 61.6763 12.8148 61.615 12.7537C61.5537 12.6925 61.5175 12.6109 61.5132 12.5245C61.509 12.4381 61.5371 12.3533 61.592 12.2864L63.7892 10.0934V8.42924L60.7519 11.4608C60.685 11.5157 60.6 11.5437 60.5134 11.5395C60.4269 11.5352 60.345 11.499 60.2838 11.4379C60.2225 11.3767 60.1863 11.295 60.182 11.2087C60.1778 11.1223 60.2058 11.0374 60.2608 10.9706L63.7504 7.43591V5.78467L59.033 10.4933C58.966 10.5481 58.881 10.5762 58.7945 10.5719C58.708 10.5677 58.6261 10.5315 58.5649 10.4703C58.5036 10.4092 58.4673 10.3275 58.4631 10.2411C58.4588 10.1548 58.4869 10.0699 58.5419 10.0031L63.7116 4.84295V3.55292L60.7132 6.53289C60.6809 6.56847 60.642 6.59735 60.5985 6.6179C60.5551 6.63845 60.508 6.65026 60.46 6.65266C60.412 6.65506 60.364 6.64799 60.3187 6.63187C60.2735 6.61574 60.2318 6.59088 60.1962 6.55869C60.1605 6.5265 60.1316 6.48762 60.111 6.44427C60.0904 6.40092 60.0786 6.35394 60.0762 6.30603C60.0738 6.25811 60.0809 6.21019 60.097 6.16501C60.1132 6.11982 60.1381 6.07825 60.1703 6.04268L63.6987 2.52089V0.818051L63.0008 0.0827327L62.4579 -0.459081L62.2512 -0.639685H60.2867V3.87542L59.4983 0.00533087L58.3351 1.16636V8.15833L56.5774 2.9079L55.6468 3.83672V8.46794L54.8584 4.59784L53.7082 5.72017V8.46794L50.5675 8.35183L50.5158 5.24286H53.2687L54.3673 4.15923L50.49 3.37231H55.1298L56.0604 2.44349L50.826 0.676147H57.8439L59.0071 -0.484881L55.1298 -1.2718H59.6534V-2.97464C59.6534 -2.97464 59.6534 -3.16815 59.6534 -3.25845L59.4724 -3.45195L58.8779 -3.99377L58.1929 -4.72908H56.474L52.9456 -1.2073C52.8788 -1.13716 52.7868 -1.0964 52.6898 -1.09398C52.5929 -1.09156 52.4989 -1.12768 52.4286 -1.1944C52.3584 -1.26112 52.3175 -1.35296 52.3151 -1.44973C52.3127 -1.5465 52.3489 -1.64027 52.4157 -1.71041L55.4917 -4.72908H54.1993L49.0295 0.431041C48.9639 0.472475 48.8864 0.490894 48.8091 0.483383C48.7318 0.475872 48.6593 0.44286 48.6029 0.389571C48.5466 0.336281 48.5096 0.265756 48.498 0.189154C48.4863 0.112552 48.5005 0.0342483 48.5384 -0.03337L53.217 -4.72908H51.5498L48.0214 -1.2073C47.9545 -1.15244 47.8695 -1.12441 47.7829 -1.12865C47.6964 -1.13289 47.6146 -1.16911 47.5533 -1.23025C47.492 -1.29139 47.4558 -1.37309 47.4515 -1.45945C47.4473 -1.54582 47.4754 -1.63067 47.5303 -1.69751L50.5675 -4.72908H48.9003L46.7032 -2.49733C46.6362 -2.44247 46.5512 -2.41444 46.4646 -2.41868C46.3781 -2.42292 46.2963 -2.45914 46.235 -2.52028C46.1738 -2.58142 46.1375 -2.66312 46.1332 -2.74948C46.129 -2.83585 46.1571 -2.9207 46.212 -2.98754L48.1765 -4.99999C48.1738 -5.02572 48.1738 -5.05167 48.1765 -5.07739H64.0476ZM61.5791 -4.72908C61.7455 -4.58517 61.8816 -4.40979 61.9797 -4.21307C62.0502 -4.00132 62.0766 -3.77744 62.0573 -3.55516L63.2463 -4.74198L61.5791 -4.72908ZM60.3642 -2.34253V-1.85231L61.3077 -2.79404V-3.37455C61.2985 -3.53783 61.2985 -3.70149 61.3077 -3.86476C61.3104 -3.89049 61.3104 -3.91643 61.3077 -3.94217V-3.94217C61.185 -4.05177 61.0685 -4.16805 60.9587 -4.29047L60.5193 -4.72908H59.2269L59.5758 -4.38078C59.8214 -4.13567 60.2608 -3.85186 60.39 -3.52935C60.4541 -3.13594 60.4497 -2.73446 60.3771 -2.34253H60.3642ZM63.7375 -1.50401L63.3368 -1.90392C63.2141 -2.01352 63.0977 -2.1298 62.9878 -2.25222V-2.25222H62.9103C62.7467 -2.24311 62.5828 -2.24311 62.4192 -2.25222H61.8505L61.6566 -2.05872L60.8941 -1.2976H61.3852C61.7786 -1.36575 62.1809 -1.36575 62.5743 -1.2976C62.8974 -1.1686 63.1946 -0.717087 63.4273 -0.484881L63.7762 -0.136573L63.7375 -1.50401ZM63.7375 -4.23887L62.5484 -3.05204C62.7711 -3.07059 62.9953 -3.04427 63.2076 -2.97464C63.4048 -2.87701 63.5806 -2.74105 63.7245 -2.57473L63.7375 -4.23887Z" fill="white"/>
<path d="M64.0476 46.6778V64.5834H48.1636C48.16 64.5534 48.16 64.5231 48.1636 64.4931L46.212 62.571C46.1571 62.5041 46.129 62.4193 46.1332 62.3329C46.1375 62.2465 46.1738 62.1648 46.235 62.1037C46.2963 62.0425 46.3781 62.0063 46.4646 62.0021C46.5512 61.9979 46.6362 62.0259 46.7032 62.0807L48.9003 64.2738H50.5675L47.5303 61.2422C47.46 61.1772 47.4185 61.087 47.4149 60.9914C47.4113 60.8959 47.4458 60.8028 47.5109 60.7327C47.5761 60.6625 47.6664 60.6211 47.7622 60.6175C47.8579 60.6138 47.9512 60.6483 48.0214 60.7133L51.5498 64.2351H53.217L48.5384 59.5652C48.4835 59.4983 48.4554 59.4135 48.4596 59.3271C48.4639 59.2408 48.5001 59.1591 48.5614 59.0979C48.6227 59.0368 48.7045 59.0006 48.791 58.9963C48.8776 58.9921 48.9626 59.0201 49.0295 59.075L54.1993 64.2351H55.4917L52.4157 61.2422C52.3608 61.1754 52.3327 61.0905 52.3369 61.0042C52.3412 60.9178 52.3775 60.8361 52.4387 60.775C52.5 60.7138 52.5818 60.6776 52.6683 60.6734C52.7549 60.6691 52.8399 60.6972 52.9068 60.752L56.4352 64.2738H58.1412L58.8779 63.5385L59.4207 62.9967L59.6017 62.7903C59.6017 62.6871 59.6017 62.5581 59.6017 62.5194V60.8165H55.0781L58.9554 60.0296L57.7923 58.8686H50.826L56.0862 57.1141L55.1557 56.1853H50.5158L54.3931 55.3984L53.2816 54.2632H50.5158L50.6322 51.1284L53.7082 51.0639V53.8116L54.4061 54.5083L54.8067 54.9082L55.5951 51.0381V55.6693L56.5257 56.5981L58.2834 51.3477V58.3525L59.4466 59.5136L60.235 55.6435V60.1586H62.2124L62.4062 59.978L62.9491 59.4362L63.6858 58.7009V58.1977L60.1703 54.7018C60.1154 54.6349 60.0873 54.5501 60.0915 54.4637C60.0958 54.3773 60.1321 54.2956 60.1933 54.2345C60.2546 54.1734 60.3364 54.1371 60.423 54.1329C60.5095 54.1287 60.5945 54.1567 60.6615 54.2116L63.6987 57.2431V55.9531L58.5289 50.793C58.474 50.7261 58.4459 50.6413 58.4501 50.5549C58.4544 50.4686 58.4907 50.3868 58.5519 50.3257C58.6132 50.2646 58.695 50.2284 58.7816 50.2241C58.8681 50.2199 58.9531 50.2479 59.0201 50.3028L63.7375 55.0114V53.3085L60.1703 49.7867C60.1154 49.7199 60.0873 49.6351 60.0915 49.5487C60.0958 49.4623 60.1321 49.3806 60.1933 49.3195C60.2546 49.2583 60.3364 49.2221 60.423 49.2179C60.5095 49.2136 60.5945 49.2417 60.6615 49.2965L63.6987 52.3281V50.6511L61.5015 48.458C61.4466 48.3912 61.4185 48.3063 61.4227 48.22C61.427 48.1336 61.4633 48.0519 61.5245 47.9908C61.5858 47.9296 61.6676 47.8934 61.7542 47.8892C61.8407 47.8849 61.9257 47.9129 61.9927 47.9678L63.6987 49.6706V47.0132C63.6986 46.968 63.7077 46.9233 63.7254 46.8818C63.7431 46.8402 63.769 46.8026 63.8016 46.7713C63.8342 46.74 63.8728 46.7156 63.9151 46.6995C63.9573 46.6834 64.0024 46.676 64.0476 46.6778V46.6778ZM61.2689 63.4482C61.2598 63.2849 61.2598 63.1212 61.2689 62.958V62.3903L60.3254 61.4486V61.9388C60.3937 62.3315 60.3937 62.733 60.3254 63.1257C60.1962 63.4482 59.7438 63.7449 59.5112 63.9771L59.1622 64.3254H60.4547L60.8553 63.9255C60.9648 63.8027 61.0813 63.6864 61.2043 63.5772V63.5772C61.2605 63.5301 61.3011 63.4672 61.3206 63.3966L61.2689 63.4482ZM63.2076 64.3254L62.0185 63.1386C62.0476 63.362 62.0176 63.5891 61.9314 63.7973C61.8452 64.0055 61.7059 64.1876 61.5274 64.3254H63.2076ZM63.6987 62.1581C63.5545 62.3242 63.3788 62.4601 63.1817 62.5581C62.9696 62.6284 62.7453 62.6547 62.5226 62.6355L63.7116 63.8223L63.6987 62.1581ZM63.6987 59.7587L63.3497 60.107C63.1042 60.3521 62.8198 60.7907 62.4967 60.9197C62.1032 60.9871 61.7011 60.9871 61.3077 60.9197H60.8166L61.76 61.8614H62.3287C62.4923 61.8523 62.6562 61.8523 62.8198 61.8614H62.8974C63.0076 61.7394 63.124 61.6231 63.2463 61.5131L63.647 61.1132L63.6987 59.7587Z" fill="white"/>
<path d="M12.2466 64.5834H-5.74414V46.6778C-5.69894 46.676 -5.65385 46.6834 -5.61157 46.6995C-5.5693 46.7156 -5.53071 46.74 -5.49813 46.7713C-5.46554 46.8026 -5.43963 46.8402 -5.42194 46.8818C-5.40425 46.9233 -5.39515 46.968 -5.39518 47.0132V49.6706L-3.68917 47.9678C-3.6222 47.9129 -3.53719 47.8849 -3.45067 47.8892C-3.36414 47.8934 -3.28229 47.9296 -3.22103 47.9908C-3.15978 48.0519 -3.1235 48.1336 -3.11925 48.22C-3.115 48.3063 -3.14308 48.3912 -3.19804 48.458L-5.39518 50.6511V52.3152L-2.35796 49.2836C-2.291 49.2288 -2.20598 49.2007 -2.11946 49.205C-2.03293 49.2092 -1.95108 49.2454 -1.88982 49.3066C-1.82857 49.3677 -1.79229 49.4494 -1.78804 49.5358C-1.78379 49.6222 -1.81187 49.707 -1.86683 49.7738L-5.39518 53.3085V54.9727L-0.677792 50.2641C-0.610828 50.2092 -0.525816 50.1812 -0.439291 50.1854C-0.352766 50.1897 -0.270915 50.2259 -0.209659 50.287C-0.148403 50.3481 -0.112121 50.4298 -0.107871 50.5162C-0.103622 50.6026 -0.131708 50.6874 -0.186667 50.7543L-5.35641 55.9144V57.2044L-2.35796 54.2632C-2.291 54.2083 -2.20598 54.1803 -2.11946 54.1845C-2.03293 54.1887 -1.95108 54.225 -1.88982 54.2861C-1.82857 54.3472 -1.79229 54.4289 -1.78804 54.5153C-1.78379 54.6017 -1.81187 54.6865 -1.86683 54.7534L-5.39518 58.2235V58.7267L-4.64557 59.4233L-4.10275 59.9651L-3.89596 60.1457H-1.86683V55.6822L-1.07845 59.5523L0.084745 58.3913V51.3735L1.84246 56.6239L2.77301 55.6951V51.0639L3.5614 54.934L4.59535 53.8245V51.0639L7.73596 51.18L7.83936 54.2632H5.08647L4.38856 54.9598L3.9879 55.3597L7.86521 56.1466H3.21244L2.28189 57.0754L7.5421 58.8299H0.524173L-0.639019 59.9909L3.23829 60.7778H-1.31109V62.4806C-1.31109 62.4806 -1.31109 62.6742 -1.31109 62.7645L-1.13015 62.9709L-0.587322 63.5127L0.149366 64.248H0.718038L4.20761 60.7133C4.27458 60.6585 4.35959 60.6304 4.44612 60.6347C4.53264 60.6389 4.61449 60.6751 4.67575 60.7363C4.737 60.7974 4.77329 60.8791 4.77754 60.9655C4.78179 61.0518 4.7537 61.1367 4.69874 61.2035L1.66152 64.2738H2.95395L8.12369 59.1137C8.19066 59.0588 8.27567 59.0308 8.3622 59.035C8.44872 59.0393 8.53057 59.0755 8.59183 59.1366C8.65309 59.1978 8.68937 59.2795 8.69362 59.3658C8.69787 59.4522 8.66978 59.537 8.61482 59.6039L3.9362 64.2738H5.60345L9.1318 60.7133C9.19876 60.6585 9.28377 60.6304 9.3703 60.6347C9.45682 60.6389 9.53867 60.6751 9.59993 60.7363C9.66119 60.7974 9.69747 60.8791 9.70172 60.9655C9.70597 61.0518 9.67788 61.1367 9.62292 61.2035L6.5857 64.2738H7.76181C7.77616 64.2211 7.80272 64.1725 7.83936 64.1319L10.1399 61.8356C10.2069 61.7808 10.2919 61.7527 10.3784 61.757C10.4649 61.7612 10.5468 61.7974 10.608 61.8586C10.6693 61.9197 10.7056 62.0014 10.7098 62.0878C10.7141 62.1742 10.686 62.259 10.631 62.3258L8.67944 64.2738H11.8847C11.9288 64.2703 11.9733 64.2755 12.0154 64.2892C12.0575 64.3029 12.0965 64.3247 12.1301 64.3535C12.1638 64.3822 12.1914 64.4174 12.2113 64.4568C12.2313 64.4963 12.2433 64.5393 12.2466 64.5834V64.5834ZM-5.39518 61.0487L-4.99453 61.4486C-4.87189 61.5582 -4.7554 61.6745 -4.64557 61.7969V61.7969H-4.4517C-4.28812 61.7879 -4.12416 61.7879 -3.96058 61.7969H-3.39191L-2.44843 60.8552H-2.99125C-3.3847 60.9229 -3.78684 60.9229 -4.18029 60.8552C-4.4517 60.7133 -4.80066 60.3005 -5.04623 60.0554L-5.39518 59.7071V61.0487ZM-5.39518 63.7836L-4.20614 62.5968C-4.42883 62.6153 -4.65299 62.589 -4.86528 62.5194C-5.06664 62.4223 -5.24674 62.2864 -5.39518 62.1194V63.7836ZM-3.15927 64.2738C-3.3265 64.1256 -3.46268 63.9459 -3.55992 63.7449C-3.63039 63.5331 -3.65677 63.3093 -3.63747 63.087L-4.82651 64.2738H-3.15927ZM-0.755339 64.2738L-1.1043 63.9255C-1.34986 63.6804 -1.78929 63.3966 -1.91853 63.0741C-1.9863 62.6813 -1.9863 62.28 -1.91853 61.8872V61.397L-2.86201 62.3387V62.9064C-2.85291 63.0696 -2.85291 63.2333 -2.86201 63.3966C-2.86479 63.4223 -2.86479 63.4482 -2.86201 63.474V63.474C-2.73937 63.5836 -2.62288 63.6999 -2.51305 63.8223L-2.1124 64.2222L-0.755339 64.2738Z" fill="white"/>
<path d="M64.0863 23.806V35.7388L58.1152 29.7788L64.0863 23.806Z" fill="white"/>
<path d="M35.1523 64.6227H23.1973L29.1812 58.6628L35.1523 64.6227Z" fill="white"/>
<path d="M82.0786 -5.07739C82.0803 -5.03227 82.0729 -4.98727 82.0568 -4.94507C82.0407 -4.90288 82.0162 -4.86436 81.9849 -4.83184C81.9535 -4.79931 81.9158 -4.77345 81.8742 -4.75579C81.8326 -4.73813 81.7878 -4.72905 81.7426 -4.72908H79.0284L80.4889 -3.27135C80.5439 -3.20451 80.5719 -3.11966 80.5677 -3.03329C80.5634 -2.94693 80.5272 -2.86523 80.4659 -2.80409C80.4047 -2.74294 80.3228 -2.70673 80.2363 -2.70249C80.1498 -2.69825 80.0647 -2.72628 79.9978 -2.78114L78.0333 -4.72908H76.4177L79.455 -1.69751C79.5099 -1.63067 79.538 -1.54582 79.5337 -1.45945C79.5295 -1.37309 79.4932 -1.29139 79.432 -1.23025C79.3707 -1.16911 79.2889 -1.13289 79.2023 -1.12865C79.1158 -1.12441 79.0308 -1.15244 78.9638 -1.2073L75.4355 -4.72908H73.7682L78.4856 -0.0204697C78.5406 0.0463696 78.5687 0.131224 78.5644 0.217588C78.5602 0.303952 78.5239 0.385651 78.4626 0.446793C78.4014 0.507935 78.3195 0.544149 78.233 0.548391C78.1465 0.552633 78.0615 0.524599 77.9945 0.469742L72.8248 -4.69038H71.5323L74.5308 -1.71041C74.5976 -1.6454 74.6358 -1.55656 74.6371 -1.46342C74.6383 -1.37027 74.6024 -1.28047 74.5372 -1.21375C74.4721 -1.14703 74.3831 -1.10887 74.2898 -1.10766C74.1965 -1.10645 74.1065 -1.14229 74.0396 -1.2073L70.5501 -4.72908H70.0072L68.5209 -3.25845V-1.2718H73.0445L69.1672 -0.484881L70.3304 0.676147H77.3483L72.101 2.41769L73.0315 3.34651H77.6714L73.7941 4.13343L74.9185 5.24286H77.6714L77.5551 8.37763L74.4274 8.46794V5.72017L73.3417 4.62364L72.5533 8.49374V3.84962L71.6099 2.9208L69.8651 8.15833V1.16636L68.7019 0.00533087L67.9652 3.84962V-0.665485H65.9231L65.7164 -0.484881L65.1865 0.0827327L64.4498 0.818051V2.52089L67.9652 6.04268C68.0202 6.10952 68.0482 6.19437 68.044 6.28074C68.0397 6.3671 68.0035 6.4488 67.9422 6.50994C67.881 6.57108 67.7991 6.6073 67.7126 6.61154C67.626 6.61578 67.541 6.58775 67.4741 6.53289L64.4368 3.51422V4.80425L69.6066 9.96437C69.6616 10.0312 69.6896 10.1161 69.6854 10.2024C69.6811 10.2888 69.6449 10.3705 69.5836 10.4316C69.5223 10.4928 69.4405 10.529 69.354 10.5332C69.2674 10.5375 69.1824 10.5094 69.1155 10.4546L64.4368 5.78467V7.43591L67.9652 10.9577C68.0202 11.0245 68.0482 11.1094 68.044 11.1958C68.0397 11.2821 68.0035 11.3638 67.9422 11.425C67.881 11.4861 67.7991 11.5223 67.7126 11.5266C67.626 11.5308 67.541 11.5028 67.4741 11.4479L64.4368 8.42924V10.0934L66.6728 12.2864C66.7277 12.3533 66.7558 12.4381 66.7516 12.5245C66.7473 12.6109 66.711 12.6925 66.6498 12.7537C66.5885 12.8148 66.5067 12.851 66.4201 12.8553C66.3336 12.8595 66.2486 12.8315 66.1816 12.7766L64.1784 10.8158H64.0879V-5.07739H82.0786ZM64.9409 -4.72908L66.2333 -3.43905V-4.08407C66.2313 -4.10552 66.2313 -4.12712 66.2333 -4.14857V-4.14857L66.6728 -4.72908H64.9409ZM64.4368 -2.57473C64.5853 -2.74165 64.7654 -2.87757 64.9667 -2.97464C65.1789 -3.04497 65.4032 -3.07131 65.6259 -3.05204L64.4368 -4.23887V-2.57473ZM67.319 -1.3621L66.3755 -2.30383H65.8068C65.6432 -2.29477 65.4793 -2.29477 65.3157 -2.30383H65.2511C65.1416 -2.18106 65.0251 -2.06476 64.9021 -1.95552L64.5015 -1.55561V-0.265576L64.8504 -0.613884C65.0314 -0.755788 65.3803 -1.2073 65.6517 -1.3363C66.0451 -1.40445 66.4474 -1.40445 66.8408 -1.3363L67.319 -1.3621ZM69.0121 -4.72908H67.7196L66.8796 -3.92926V-2.79404L67.0734 -2.60053L67.836 -1.83941V-3.40035C67.8333 -3.42177 67.8333 -3.44344 67.836 -3.46485V-3.46485H67.9652L69.0121 -4.72908Z" fill="white"/>
<path d="M82.0786 64.5834H64.0879V46.6778C64.1331 46.676 64.1782 46.6834 64.2205 46.6995C64.2627 46.7156 64.3013 46.74 64.3339 46.7713C64.3665 46.8026 64.3924 46.8402 64.4101 46.8818C64.4278 46.9233 64.4369 46.968 64.4368 47.0132V49.6706L66.1429 47.9678C66.2098 47.9129 66.2948 47.8849 66.3814 47.8892C66.4679 47.8934 66.5497 47.9296 66.611 47.9908C66.6723 48.0519 66.7085 48.1336 66.7128 48.22C66.717 48.3063 66.6889 48.3912 66.634 48.458L64.4368 50.6511V52.3152L67.4741 49.2836C67.541 49.2288 67.626 49.2007 67.7126 49.205C67.7991 49.2092 67.881 49.2454 67.9422 49.3066C68.0035 49.3677 68.0397 49.4494 68.044 49.5358C68.0482 49.6222 68.0202 49.707 67.9652 49.7738L64.4368 53.3085V54.9727L69.1542 50.2641C69.2212 50.2092 69.3062 50.1812 69.3927 50.1854C69.4793 50.1897 69.5611 50.2259 69.6224 50.287C69.6836 50.3481 69.7199 50.4298 69.7242 50.5162C69.7284 50.6026 69.7003 50.6874 69.6454 50.7543L64.4756 55.9144V57.2044L67.4741 54.2632C67.541 54.2083 67.626 54.1803 67.7126 54.1845C67.7991 54.1887 67.881 54.225 67.9422 54.2861C68.0035 54.3472 68.0397 54.4289 68.044 54.5153C68.0482 54.6017 68.0202 54.6865 67.9652 54.7534L64.4368 58.2235V58.7267L65.1865 59.4233L65.7293 59.9651L65.9361 60.1457H67.9652V55.6822L68.7536 59.5523L69.9168 58.3913V51.3735L71.6745 56.6239L72.605 55.6951V51.0639L73.3934 54.934L74.4274 53.8245V51.0639L77.568 51.18L77.6714 54.2632H74.9185L74.2206 54.9598L73.8199 55.3597L77.6972 56.1466H73.0445L72.1139 57.0754L77.3741 58.8299H70.3562L69.193 59.9909L73.0703 60.7778H68.5209V62.4806C68.5209 62.4806 68.5209 62.6742 68.5209 62.7645L68.7019 62.9709L69.2447 63.5127L69.9814 64.248H70.5501L74.0396 60.7133C74.1066 60.6585 74.1916 60.6304 74.2781 60.6347C74.3647 60.6389 74.4465 60.6751 74.5078 60.7363C74.569 60.7974 74.6053 60.8791 74.6096 60.9655C74.6138 61.0518 74.5857 61.1367 74.5308 61.2035L71.4935 64.2738H72.786L77.9557 59.1137C78.0227 59.0588 78.1077 59.0308 78.1942 59.035C78.2808 59.0393 78.3626 59.0755 78.4239 59.1366C78.4851 59.1978 78.5214 59.2795 78.5256 59.3658C78.5299 59.4522 78.5018 59.537 78.4469 59.6039L73.7682 64.2738H75.4355L78.9638 60.7133C79.0308 60.6585 79.1158 60.6304 79.2023 60.6347C79.2889 60.6389 79.3707 60.6751 79.432 60.7363C79.4932 60.7974 79.5295 60.8791 79.5337 60.9655C79.538 61.0518 79.5099 61.1367 79.455 61.2035L76.4177 64.2738H77.5938C77.6082 64.2211 77.6348 64.1725 77.6714 64.1319L79.9719 61.8356C80.0389 61.7808 80.1239 61.7527 80.2104 61.757C80.297 61.7612 80.3788 61.7974 80.4401 61.8586C80.5013 61.9197 80.5376 62.0014 80.5418 62.0878C80.5461 62.1742 80.518 62.259 80.4631 62.3258L78.5115 64.2738H81.7167C81.7609 64.2703 81.8053 64.2755 81.8474 64.2892C81.8895 64.3029 81.9285 64.3247 81.9622 64.3535C81.9958 64.3822 82.0234 64.4174 82.0434 64.4568C82.0634 64.4963 82.0753 64.5393 82.0786 64.5834V64.5834ZM64.4368 61.0487L64.8375 61.4486C64.9601 61.5582 65.0766 61.6745 65.1865 61.7969V61.7969H65.3803C65.5439 61.7879 65.7079 61.7879 65.8715 61.7969H66.4401L67.3836 60.8552H66.8408C66.4473 60.9229 66.0452 60.9229 65.6517 60.8552C65.3803 60.7133 65.0314 60.3005 64.7858 60.0554L64.4368 59.7071V61.0487ZM64.4368 63.7836L65.6259 62.5968C65.4032 62.6153 65.179 62.589 64.9667 62.5194C64.7654 62.4223 64.5853 62.2864 64.4368 62.1194V63.7836ZM66.6728 64.2738C66.5055 64.1256 66.3694 63.9459 66.2721 63.7449C66.2016 63.5331 66.1753 63.3093 66.1946 63.087L65.0055 64.2738H66.6728ZM69.0767 64.2738L68.7277 63.9255C68.4822 63.6804 68.0427 63.3966 67.9135 63.0741C67.8457 62.6813 67.8457 62.28 67.9135 61.8872V61.397L66.97 62.3387V62.9064C66.9791 63.0696 66.9791 63.2333 66.97 63.3966C66.9672 63.4223 66.9672 63.4482 66.97 63.474V63.474C67.0927 63.5836 67.2092 63.6999 67.319 63.8223L67.7196 64.2222L69.0767 64.2738Z" fill="white"/>
<path d="M70.0589 29.7788L64.0879 35.7388V23.806L70.0589 29.7788Z" fill="white"/>
<path d="M12.2466 64.6228C12.2483 64.6679 12.2409 64.7129 12.2248 64.7551C12.2087 64.7973 12.1842 64.8358 12.1528 64.8684C12.1215 64.9009 12.0838 64.9267 12.0422 64.9444C12.0005 64.9621 11.9558 64.9711 11.9105 64.9711H9.19642L10.6569 66.4288C10.7118 66.4957 10.7399 66.5805 10.7357 66.6669C10.7314 66.7533 10.6951 66.835 10.6339 66.8961C10.5726 66.9573 10.4908 66.9935 10.4042 66.9977C10.3177 67.0019 10.2327 66.9739 10.1657 66.9191L8.20124 64.9711H6.5857L9.62292 68.0027C9.67788 68.0695 9.70597 68.1544 9.70172 68.2407C9.69747 68.3271 9.66119 68.4088 9.59993 68.4699C9.53867 68.5311 9.45682 68.5673 9.3703 68.5715C9.28377 68.5758 9.19876 68.5478 9.1318 68.4929L5.60345 64.9711H3.9362L8.65359 69.6797C8.70855 69.7466 8.73664 69.8314 8.73239 69.9178C8.72814 70.0041 8.69186 70.0858 8.6306 70.147C8.56935 70.2081 8.48749 70.2443 8.40097 70.2486C8.31444 70.2528 8.22943 70.2248 8.16247 70.1699L2.99273 65.0098H1.70029L4.69874 67.9898C4.76558 68.0548 4.80381 68.1436 4.80503 68.2368C4.80624 68.3299 4.77033 68.4197 4.7052 68.4864C4.64008 68.5532 4.55106 68.5913 4.45775 68.5925C4.36443 68.5937 4.27446 68.5579 4.20761 68.4929L0.718038 64.9711H0.175215L-1.31109 66.4417V68.4284H3.21244L-0.664868 69.2153L0.498324 70.3763H7.51625L2.26896 72.1179L3.19951 73.0467H7.83936L3.96205 73.8336L5.08647 74.9431H7.83936L7.72304 78.0778L4.59535 78.1681V75.4204L3.5097 74.3238L2.72131 78.1939V73.5498L1.77784 72.621L0.033047 77.8585V70.8666L-1.13015 69.7055L-1.86683 73.5498V69.0347H-3.90888L-4.11567 69.2153L-4.64557 69.7829L-5.38226 70.5182V72.2211L-1.86683 75.7429C-1.81187 75.8097 -1.78379 75.8946 -1.78804 75.9809C-1.79229 76.0673 -1.82857 76.149 -1.88982 76.2101C-1.95108 76.2713 -2.03293 76.3075 -2.11946 76.3117C-2.20598 76.316 -2.291 76.2879 -2.35796 76.2331L-5.39518 73.2144V74.5044L-0.22544 79.6646C-0.170481 79.7314 -0.142395 79.8163 -0.146645 79.9026C-0.150894 79.989 -0.187175 80.0707 -0.248432 80.1318C-0.309688 80.193 -0.391539 80.2292 -0.478064 80.2334C-0.564589 80.2377 -0.649601 80.2096 -0.716565 80.1548L-5.39518 75.4849V77.1361L-1.86683 80.6579C-1.81187 80.7247 -1.78379 80.8096 -1.78804 80.8959C-1.79229 80.9823 -1.82857 81.064 -1.88982 81.1252C-1.95108 81.1863 -2.03293 81.2225 -2.11946 81.2268C-2.20598 81.231 -2.291 81.203 -2.35796 81.1481L-5.39518 78.1294V79.7936L-3.15927 81.9866C-3.10431 82.0535 -3.07622 82.1383 -3.08047 82.2247C-3.08472 82.311 -3.121 82.3927 -3.18226 82.4539C-3.24352 82.515 -3.32537 82.5512 -3.41189 82.5555C-3.49842 82.5597 -3.58343 82.5317 -3.65039 82.4768L-5.65367 80.516H-5.74414V64.6228H12.2466ZM-4.89113 64.9711L-3.5987 66.2611V65.6161C-3.6007 65.5947 -3.6007 65.5731 -3.5987 65.5516V65.5516L-3.15927 64.9711H-4.89113ZM-5.39518 67.1255C-5.24674 66.9585 -5.06664 66.8226 -4.86528 66.7256C-4.65314 66.6552 -4.42884 66.6289 -4.20614 66.6482L-5.39518 65.4613V67.1255ZM-2.51305 68.3381L-3.45653 67.3964H-4.0252C-4.18878 67.4054 -4.35274 67.4054 -4.51633 67.3964H-4.58095C-4.69039 67.5191 -4.80691 67.6354 -4.92991 67.7447L-5.33056 68.1446V69.4346L-4.9816 69.0863C-4.80066 68.9444 -4.4517 68.4929 -4.18029 68.3639C-3.78689 68.2957 -3.38466 68.2957 -2.99125 68.3639L-2.51305 68.3381ZM-0.81996 64.9711H-2.1124L-2.95248 65.7709V66.9062L-2.75861 67.0997L-1.99608 67.8608V66.2998C-1.99878 66.2784 -1.99878 66.2568 -1.99608 66.2353V66.2353H-1.86683L-0.81996 64.9711Z" fill="white"/>
<path d="M64.0476 64.6228V80.516L62.0831 82.4768C62.0162 82.5317 61.9312 82.5597 61.8446 82.5555C61.7581 82.5512 61.6763 82.515 61.615 82.4539C61.5537 82.3927 61.5175 82.311 61.5132 82.2247C61.509 82.1383 61.5371 82.0535 61.592 81.9866L63.7892 79.7936V78.1294L60.7519 81.161C60.685 81.2159 60.6 81.2439 60.5134 81.2397C60.4269 81.2354 60.345 81.1992 60.2838 81.1381C60.2225 81.0769 60.1863 80.9952 60.182 80.9089C60.1778 80.8225 60.2058 80.7376 60.2608 80.6708L63.7504 77.1361V75.4849L59.033 80.1935C58.966 80.2483 58.881 80.2764 58.7945 80.2721C58.708 80.2679 58.6261 80.2317 58.5649 80.1705C58.5036 80.1094 58.4673 80.0277 58.4631 79.9413C58.4588 79.855 58.4869 79.7701 58.5419 79.7033L63.7116 74.5431V73.2531L60.7132 76.2331C60.6809 76.2687 60.642 76.2975 60.5985 76.3181C60.5551 76.3386 60.508 76.3505 60.46 76.3529C60.412 76.3553 60.364 76.3482 60.3187 76.3321C60.2735 76.3159 60.2318 76.2911 60.1962 76.2589C60.1605 76.2267 60.1316 76.1878 60.111 76.1445C60.0904 76.1011 60.0786 76.0541 60.0762 76.0062C60.0738 75.9583 60.0809 75.9104 60.097 75.8652C60.1132 75.82 60.1381 75.7784 60.1703 75.7429L63.6987 72.2211V70.5182L63.0008 69.7829L62.4579 69.2411L62.2512 69.0605H60.2867V73.5756L59.4983 69.7055L58.3351 70.8666V77.8585L56.5774 72.6081L55.6468 73.5369V78.1681L54.8584 74.298L53.7082 75.4204V78.1681L50.5675 78.052L50.5158 74.9431H53.2687L54.3673 73.8594L50.49 73.0725H55.1298L56.0604 72.1437L50.826 70.3763H57.8439L59.0071 69.2153L55.1298 68.4284H59.6534V66.7256C59.6534 66.7256 59.6534 66.532 59.6534 66.4417L59.4724 66.2482L58.8779 65.7064L58.1929 64.9711H56.474L52.9456 68.4929C52.8788 68.563 52.7868 68.6038 52.6898 68.6062C52.5929 68.6086 52.4989 68.5725 52.4286 68.5058C52.3584 68.4391 52.3175 68.3472 52.3151 68.2505C52.3127 68.1537 52.3489 68.0599 52.4157 67.9898L55.4917 64.9711H54.1993L49.0295 70.1312C48.9639 70.1727 48.8864 70.1911 48.8091 70.1836C48.7318 70.1761 48.6593 70.1431 48.6029 70.0898C48.5466 70.0365 48.5096 69.966 48.498 69.8893C48.4863 69.8127 48.5005 69.7344 48.5384 69.6668L53.217 64.9711H51.5498L48.0214 68.4929C47.9545 68.5478 47.8695 68.5758 47.7829 68.5715C47.6964 68.5673 47.6146 68.5311 47.5533 68.4699C47.492 68.4088 47.4558 68.3271 47.4515 68.2407C47.4473 68.1544 47.4754 68.0695 47.5303 68.0027L50.5675 64.9711H48.9003L46.7032 67.2029C46.6362 67.2577 46.5512 67.2858 46.4646 67.2815C46.3781 67.2773 46.2963 67.2411 46.235 67.1799C46.1738 67.1188 46.1375 67.0371 46.1332 66.9507C46.129 66.8643 46.1571 66.7795 46.212 66.7127L48.1765 64.7002C48.1738 64.6745 48.1738 64.6485 48.1765 64.6228H64.0476ZM61.5791 64.9711C61.7455 65.115 61.8816 65.2904 61.9797 65.4871C62.0502 65.6989 62.0766 65.9228 62.0573 66.145L63.2463 64.9582L61.5791 64.9711ZM60.3642 67.3577V67.8479L61.3077 66.9062V66.3256C61.2985 66.1624 61.2985 65.9987 61.3077 65.8354C61.3104 65.8097 61.3104 65.7838 61.3077 65.758V65.758C61.185 65.6484 61.0685 65.5321 60.9587 65.4097L60.5193 64.9711H59.2269L59.5758 65.3194C59.8214 65.5645 60.2608 65.8483 60.39 66.1708C60.4541 66.5643 60.4497 66.9657 60.3771 67.3577H60.3642ZM63.7375 68.1962L63.3368 67.7963C63.2141 67.6867 63.0977 67.5704 62.9878 67.448V67.448H62.9103C62.7467 67.4571 62.5828 67.4571 62.4192 67.448H61.8505L61.6566 67.6415L60.8941 68.4026H61.3852C61.7786 68.3344 62.1809 68.3344 62.5743 68.4026C62.8974 68.5316 63.1946 68.9831 63.4273 69.2153L63.7762 69.5636L63.7375 68.1962ZM63.7375 65.4613L62.5484 66.6482C62.7711 66.6296 62.9953 66.6559 63.2076 66.7256C63.4048 66.8232 63.5806 66.9591 63.7245 67.1255L63.7375 65.4613Z" fill="white"/>
<path d="M35.1523 64.6228L29.1812 70.5827L23.1973 64.6228H35.1523Z" fill="white"/>
<path d="M82.0786 64.6228C82.0803 64.6679 82.0729 64.7129 82.0568 64.7551C82.0407 64.7973 82.0162 64.8358 81.9849 64.8684C81.9535 64.9009 81.9158 64.9267 81.8742 64.9444C81.8326 64.9621 81.7878 64.9711 81.7426 64.9711H79.0284L80.4889 66.4288C80.5439 66.4957 80.5719 66.5805 80.5677 66.6669C80.5634 66.7533 80.5272 66.835 80.4659 66.8961C80.4047 66.9573 80.3228 66.9935 80.2363 66.9977C80.1498 67.0019 80.0647 66.9739 79.9978 66.9191L78.0333 64.9711H76.4177L79.455 68.0027C79.5099 68.0695 79.538 68.1544 79.5337 68.2407C79.5295 68.3271 79.4932 68.4088 79.432 68.4699C79.3707 68.5311 79.2889 68.5673 79.2023 68.5715C79.1158 68.5758 79.0308 68.5478 78.9638 68.4929L75.4355 64.9711H73.7682L78.4856 69.6797C78.5406 69.7466 78.5687 69.8314 78.5644 69.9178C78.5602 70.0041 78.5239 70.0858 78.4626 70.147C78.4014 70.2081 78.3195 70.2443 78.233 70.2486C78.1465 70.2528 78.0615 70.2248 77.9945 70.1699L72.8248 65.0098H71.5323L74.5308 67.9898C74.5976 68.0548 74.6358 68.1436 74.6371 68.2368C74.6383 68.3299 74.6024 68.4197 74.5372 68.4864C74.4721 68.5532 74.3831 68.5913 74.2898 68.5925C74.1965 68.5937 74.1065 68.5579 74.0396 68.4929L70.5501 64.9711H70.0072L68.5209 66.4417V68.4284H73.0445L69.1672 69.2153L70.3304 70.3763H77.3483L72.101 72.1179L73.0315 73.0467H77.6714L73.7941 73.8336L74.9185 74.9431H77.6714L77.5551 78.0778L74.4274 78.1681V75.4204L73.3417 74.3238L72.5533 78.1939V73.5498L71.6099 72.621L69.8651 77.8585V70.8666L68.7019 69.7055L67.9652 73.5498V69.0347H65.9231L65.7164 69.2153L65.1865 69.7829L64.4498 70.5182V72.2211L67.9652 75.7429C68.0202 75.8097 68.0482 75.8946 68.044 75.9809C68.0397 76.0673 68.0035 76.149 67.9422 76.2101C67.881 76.2713 67.7991 76.3075 67.7126 76.3117C67.626 76.316 67.541 76.2879 67.4741 76.2331L64.4368 73.2144V74.5044L69.6066 79.6646C69.6616 79.7314 69.6896 79.8163 69.6854 79.9026C69.6811 79.989 69.6449 80.0707 69.5836 80.1318C69.5223 80.193 69.4405 80.2292 69.354 80.2334C69.2674 80.2377 69.1824 80.2096 69.1155 80.1548L64.4368 75.4849V77.1361L67.9652 80.6579C68.0202 80.7247 68.0482 80.8096 68.044 80.8959C68.0397 80.9823 68.0035 81.064 67.9422 81.1252C67.881 81.1863 67.7991 81.2225 67.7126 81.2268C67.626 81.231 67.541 81.203 67.4741 81.1481L64.4368 78.1294V79.7936L66.6728 81.9866C66.7277 82.0535 66.7558 82.1383 66.7516 82.2247C66.7473 82.311 66.711 82.3927 66.6498 82.4539C66.5885 82.515 66.5067 82.5512 66.4201 82.5555C66.3336 82.5597 66.2486 82.5317 66.1816 82.4768L64.1784 80.516H64.0879V64.6228H82.0786ZM64.9409 64.9711L66.2333 66.2611V65.6161C66.2313 65.5947 66.2313 65.5731 66.2333 65.5516V65.5516L66.6728 64.9711H64.9409ZM64.4368 67.1255C64.5853 66.9585 64.7654 66.8226 64.9667 66.7256C65.1789 66.6552 65.4032 66.6289 65.6259 66.6482L64.4368 65.4613V67.1255ZM67.319 68.3381L66.3755 67.3964H65.8068C65.6432 67.4054 65.4793 67.4054 65.3157 67.3964H65.2511C65.1416 67.5191 65.0251 67.6354 64.9021 67.7447L64.5015 68.1446V69.4346L64.8504 69.0863C65.0314 68.9444 65.3803 68.4929 65.6517 68.3639C66.0451 68.2957 66.4474 68.2957 66.8408 68.3639L67.319 68.3381ZM69.0121 64.9711H67.7196L66.8796 65.7709V66.9062L67.0734 67.0997L67.836 67.8608V66.2998C67.8333 66.2784 67.8333 66.2568 67.836 66.2353V66.2353H67.9652L69.0121 64.9711Z" fill="white"/>
</g>
<path d="M38.5215 6.79933C56.1957 6.80287 70.5215 21.1304 70.5215 38.7982C70.5215 56.4659 56.1957 70.7877 38.5215 70.7842C20.8472 70.7806 6.52148 56.4532 6.52148 38.7854C6.52148 21.1176 20.8472 6.7958 38.5215 6.79933Z" stroke="#333333" stroke-width="12" stroke-miterlimit="10"/>
</svg>
