<svg width="77" height="77" viewBox="0 0 77 77" fill="none" xmlns="http://www.w3.org/2000/svg">
<path d="M6.99999 38.9876C6.99999 56.1084 20.8792 69.9904 38 69.9938C55.1208 69.9972 69 56.1208 69 39C69 21.8792 55.1208 7.99723 38 7.99381C20.8792 7.99038 7 21.8668 6.99999 38.9876Z" fill="#AA0000"/>
<path fill-rule="evenodd" clip-rule="evenodd" d="M63.7614 38.4977C63.7614 24.5483 52.4526 13.2359 38.5 13.2331C24.5474 13.2302 13.2386 24.5381 13.2386 38.4875C13.2386 52.4369 24.5474 63.7493 38.5 63.7521C52.4526 63.755 63.7614 52.4471 63.7614 38.4977ZM38.5 1.9926C58.6573 1.99669 75 18.3406 75 38.5C75 58.6594 58.6573 74.9967 38.5 74.9926C18.3427 74.9885 2 58.6447 2 38.4852C2 18.3258 18.3427 1.98852 38.5 1.9926Z" fill="black"/>
</svg>
