<svg width="78" height="78" viewBox="0 0 78 78" fill="none" xmlns="http://www.w3.org/2000/svg">
<path d="M7.92187 39.6208C7.92187 22.5 21.801 8.61801 38.9219 8.61459C56.0427 8.61117 69.9219 22.4876 69.9219 39.6084C69.9219 56.7292 56.0427 70.6112 38.9219 70.6146C21.801 70.618 7.92187 56.7416 7.92187 39.6208Z" fill="url(#paint0_linear)"/>
<path fill-rule="evenodd" clip-rule="evenodd" d="M64.6833 39.1188C64.6833 25.1694 53.3744 13.857 39.4219 13.8542C25.4693 13.8513 14.1604 25.1592 14.1604 39.1086C14.1604 53.058 25.4693 64.3704 39.4219 64.3732C53.3744 64.3761 64.6833 53.0682 64.6833 39.1188ZM39.4219 2.6137C59.5792 2.61778 75.9219 18.9616 75.9219 39.1211C75.9219 59.2805 59.5792 75.6178 39.4219 75.6137C19.2645 75.6096 2.92187 59.2658 2.92187 39.1063C2.92187 18.9469 19.2645 2.60961 39.4219 2.6137Z" fill="black"/>
<defs>
<linearGradient id="paint0_linear" x1="25.5026" y1="13.5227" x2="47.0386" y2="70.629" gradientUnits="userSpaceOnUse">
<stop stop-color="#88A9FF"/>
<stop offset="1" stop-color="#1154FF"/>
</linearGradient>
</defs>
</svg>
