<svg width="78" height="78" viewBox="0 0 78 78" fill="none" xmlns="http://www.w3.org/2000/svg">
<path d="M7.11328 39.723C7.11328 56.8438 20.9925 70.7257 38.1133 70.7292C55.2341 70.7326 69.1133 56.8562 69.1133 39.7354C69.1133 22.6145 55.2341 8.73258 38.1133 8.72916C20.9925 8.72574 7.11328 22.6021 7.11328 39.723Z" fill="url(#paint0_radial_1546_969)"/>
<path fill-rule="evenodd" clip-rule="evenodd" d="M63.8747 39.2331C63.8747 25.2837 52.5658 13.9712 38.6133 13.9684C24.6607 13.9656 13.3518 25.2734 13.3518 39.2228C13.3518 53.1722 24.6607 64.4847 38.6133 64.4875C52.5658 64.4903 63.8747 53.1825 63.8747 39.2331ZM38.6133 2.72796C58.7706 2.73204 75.1133 19.0759 75.1133 39.2354C75.1133 59.3948 58.7706 75.732 38.6133 75.728C18.4559 75.7239 2.11328 59.38 2.11328 39.2206C2.11328 19.0611 18.4559 2.72387 38.6133 2.72796Z" fill="black"/>
<defs>
<radialGradient id="paint0_radial_1546_969" cx="0" cy="0" r="1" gradientUnits="userSpaceOnUse" gradientTransform="translate(38.1133 39.7292) rotate(-179.989) scale(31)">
<stop stop-color="#FFCD1A"/>
<stop offset="1" stop-color="#FF6C1A"/>
</radialGradient>
</defs>
</svg>
