<svg width="73" height="73" viewBox="0 0 73 73" fill="none" xmlns="http://www.w3.org/2000/svg">
<path d="M36.4411 66.5064C53.2765 66.5064 66.9269 52.8814 66.9303 36.074C66.9336 19.2667 53.2886 5.6416 36.4533 5.6416C19.618 5.6416 5.96751 19.2667 5.96415 36.074C5.96079 52.8814 19.6058 66.5064 36.4411 66.5064Z" fill="url(#paint0_linear)"/>
<path fill-rule="evenodd" clip-rule="evenodd" d="M36.4522 11.1895C22.6723 11.1895 11.515 22.3393 11.5123 36.0738C11.5095 49.8083 22.6624 60.9581 36.4422 60.9581C50.2221 60.9581 61.3794 49.8083 61.3821 36.0738C61.3849 22.3393 50.2321 11.1895 36.4522 11.1895ZM0.41601 36.0738C0.419984 16.1936 16.5636 0.0932617 36.4544 0.0932617C56.3452 0.0932617 72.4824 16.1936 72.4784 36.0738C72.4744 55.954 56.3308 72.0544 36.44 72.0544C16.5492 72.0544 0.412036 55.954 0.41601 36.0738Z" fill="black"/>
<defs>
<linearGradient id="paint0_linear" x1="55.7412" y1="12.3735" x2="16.7916" y2="55.127" gradientUnits="userSpaceOnUse">
<stop stop-color="#725627"/>
<stop offset="1" stop-color="#C59544"/>
</linearGradient>
</defs>
</svg>
