<svg width="149" height="149" viewBox="0 0 149 149" fill="none" xmlns="http://www.w3.org/2000/svg">
<path d="M141.69 77.6525C143.905 40.9924 115.983 9.47568 79.3226 7.25786C42.6627 5.04005 11.1482 32.961 8.93294 69.6211C6.71769 106.281 34.6406 137.798 71.3005 140.016C107.96 142.234 139.475 114.313 141.69 77.6525Z" fill="#8B9661"/>
<path fill-rule="evenodd" clip-rule="evenodd" d="M13.9416 74.2431C13.9416 107.929 41.2471 135.233 74.9219 135.236C108.597 135.238 135.902 107.939 135.902 74.2533C135.902 40.5672 108.597 13.2636 74.9219 13.2608C41.2471 13.2579 13.9416 40.557 13.9416 74.2431ZM74.9219 146.248C35.1537 146.245 2.92187 114.003 2.92187 74.2422C2.92187 34.4814 35.1537 2.24488 74.9219 2.24819C114.69 2.25151 146.922 34.4934 146.922 74.2542C146.922 114.015 114.69 146.252 74.9219 146.248Z" fill="black"/>
</svg>
