<svg width="78" height="77" viewBox="0 0 78 77" fill="none" xmlns="http://www.w3.org/2000/svg">
<path d="M16.5089 33.2029C16.5089 20.5738 26.8738 10.3338 39.6597 10.3312C52.4456 10.3287 62.8105 20.5646 62.8105 33.1938C62.8105 45.823 52.3016 56.9982 39.5157 57.0007C26.7299 57.0032 16.5089 45.8321 16.5089 33.2029Z" fill="#FFF500"/>
<path d="M45.449 61.7302C45.449 61.7302 43.6257 51.3898 46.523 44.7864C48.2277 40.9012 53.2727 36.9957 52.4914 32.5642C51.71 28.133 48.2345 25.699 43.3105 26.5674" stroke="#A09D49" stroke-width="4" stroke-linecap="round"/>
<path d="M34.4436 61.7302C34.4436 61.7302 36.2669 51.3898 33.3695 44.7864C31.6649 40.9012 26.6198 36.9957 27.4012 32.5642C28.1826 28.133 31.658 25.699 36.582 26.5674" stroke="#A09D49" stroke-width="4" stroke-linecap="round"/>
<path d="M27.4567 52.5102C36.4658 57.9135 45.0302 56.9702 52.3203 52.3755V73.5411H27.3203L27.4567 52.5102Z" fill="#C4C4C4"/>
<path d="M51.1641 66.1381H29.0215V59.9663H51.1641V66.1381Z" stroke="#626262" stroke-width="4"/>
<path fill-rule="evenodd" clip-rule="evenodd" d="M55.8825 61.8988C66.0262 56.2792 72.878 45.5547 72.878 33.2573C72.878 15.1452 58.0146 0.450969 39.6617 0.454591C21.3088 0.458215 6.44531 15.1583 6.44531 33.2704C6.44531 45.7071 13.4532 56.5322 23.7867 62.0941L23.819 77H55.8191L55.8825 61.8988ZM55.9209 49.3006C60.0684 45.1934 62.6342 39.524 62.6342 33.2593C62.6342 20.7117 52.341 10.5561 39.6617 10.5586C26.9823 10.5611 16.6891 20.7207 16.6891 33.2684C16.6891 39.73 19.4188 45.5573 23.7983 49.6896C26.6225 52.1436 28.1625 53.1256 30.819 54.2818V70.0858H48.819V54.2818C51.6889 52.8397 53.2343 51.7843 55.9209 49.3006Z" fill="black"/>
</svg>
