<svg width="93" height="120" viewBox="0 0 93 120" fill="none" xmlns="http://www.w3.org/2000/svg">
<path d="M64.2688 77.2973C65.2008 75.8673 65.8648 74.3913 66.3018 72.8973C67.6048 68.4633 66.8588 63.8683 64.7568 59.8543C62.3508 55.2583 58.1768 51.4223 53.2788 49.4673C51.0968 48.5963 47.4428 47.4853 44.2518 47.1543C30.1288 47.4493 18.7578 56.3283 18.7578 67.2073C18.7578 78.2753 30.5178 87.2793 44.9728 87.2793C44.9998 87.2793 45.0278 87.2773 45.0558 87.2773C52.3358 86.4693 60.4708 83.1233 64.2688 77.2973ZM19.8028 66.7603C19.8128 66.6533 20.9508 55.9063 32.2118 50.7213C32.4628 50.6063 32.7598 50.7153 32.8748 50.9673C32.9058 51.0333 32.9208 51.1063 32.9208 51.1763C32.9208 51.3643 32.8128 51.5453 32.6298 51.6293C21.8868 56.5763 20.8088 66.7523 20.7988 66.8543C20.7728 67.1293 20.5288 67.3313 20.2538 67.3053C19.9788 67.2793 19.7738 67.0223 19.8028 66.7603ZM26.4708 67.2093C26.4708 57.9103 31.4558 50.6253 37.8218 50.6253C43.8328 50.6253 63.4758 57.6933 63.4758 67.2093C63.4758 76.7253 43.8318 83.7933 37.8218 83.7933C31.4558 83.7933 26.4708 76.5103 26.4708 67.2093Z" fill="#894D20"/>
<path d="M60.4757 67.209C60.4757 60.205 42.8947 53.625 37.8217 53.625C33.2957 53.625 29.4707 59.846 29.4707 67.209C29.4707 74.572 33.2947 80.793 37.8217 80.793C42.8947 80.793 60.4757 74.213 60.4757 67.209ZM37.0527 76.465C34.8357 75.303 37.7657 70.336 37.5687 67.701C37.3787 65.146 30.2547 58.508 35.3827 57.076C39.1387 56.029 46.2177 59.953 49.4867 61.537C52.7877 63.135 57.9207 66.141 54.3637 70.092C51.4027 73.381 44.7857 75.178 40.6587 76.321C38.8437 76.821 37.7167 76.815 37.0527 76.465Z" fill="#894D20"/>
<path d="M54.3616 70.0915C57.9186 66.1405 52.7856 63.1345 49.4846 61.5365C46.2156 59.9525 39.1366 56.0285 35.3806 57.0755C30.2516 58.5075 37.3756 65.1455 37.5666 67.7005C37.7636 70.3355 34.8346 75.3025 37.0506 76.4645C37.7146 76.8145 38.8416 76.8195 40.6556 76.3195C44.7836 75.1775 51.4006 73.3805 54.3616 70.0915ZM39.7336 72.4045C39.3826 72.8305 38.7526 72.8905 38.3266 72.5395C37.9006 72.1895 37.8386 71.5575 38.1906 71.1335L43.4166 64.7955C42.0526 64.1375 40.5236 63.6415 38.8676 63.4825C38.3186 63.4315 37.9186 62.9555 37.9676 62.3925C38.0196 61.8435 38.5076 61.4395 39.0576 61.4925C46.6336 62.2115 51.5906 68.8305 51.7976 69.1135C51.9296 69.2915 51.9926 69.4985 51.9926 69.7055C51.9926 70.0125 51.8516 70.3125 51.5866 70.5105C51.1436 70.8385 50.5166 70.7425 50.1886 70.2995C50.1596 70.2605 48.2746 67.7625 45.1866 65.7895L39.7336 72.4045Z" fill="#B28832"/>
<path d="M34.818 21.5547C34.742 20.7147 34.689 19.8557 34.653 18.9787C33.985 19.0177 33.323 19.0687 32.668 19.1287C33.395 19.8637 34.113 20.6717 34.818 21.5547Z" fill="#583111"/>
<path d="M4.66894 68.1943L4.66797 68.3253L4.69797 68.7182C5.86397 89.7162 10.0809 103.165 17.5909 109.833C23.1109 114.735 30.6379 116.503 42.7589 115.739C67.0429 114.208 87.67 87.2142 88.593 65.8522L88.569 65.6643C86.715 46.5743 68.711 23.9243 47.465 19.5823C47.799 20.8033 48.087 22.0943 48.305 23.4783L48.3899 24.0113L46.943 25.5153L49.5489 25.8222L49.6769 25.8713C50.3169 26.1173 57.773 34.0193 53.711 44.6233L53.508 45.1542C65.464 48.0452 74.188 56.8343 74.188 67.2073C74.188 78.4263 63.994 87.7953 50.538 89.8533C50.539 89.8743 50.5439 89.8903 50.5439 89.9103C50.5439 90.2113 50.5129 90.5433 50.4369 90.9023C49.8879 93.4843 47.2939 96.1543 42.7299 98.8413C42.0169 99.2613 41.0969 99.0233 40.6769 98.3083C40.2569 97.5933 40.4949 96.6733 41.2079 96.2553C46.0519 93.4053 47.362 91.2653 47.534 90.1853C46.689 90.2443 45.837 90.2793 44.973 90.2793C28.864 90.2793 15.758 79.9293 15.758 67.2073C15.758 55.3913 27.0719 45.6273 41.5949 44.2993C38.3959 43.2193 35.703 41.6603 35.653 41.6313C28.325 37.1923 24.7719 30.7702 21.5609 21.9043C11.5539 26.6823 4.79094 38.6593 4.66894 68.1943ZM40.103 114.469C39.504 114.469 39.019 113.983 39.019 113.385C39.019 112.785 39.504 112.301 40.103 112.301C40.702 112.301 41.187 112.785 41.187 113.385C41.187 113.983 40.701 114.469 40.103 114.469ZM84.409 67.1313C84.232 64.9813 81.3379 37.3483 50.0139 23.9853C49.5039 23.7683 49.272 23.1763 49.487 22.6723C49.704 22.1643 50.292 21.9282 50.8 22.1452C84.423 36.4912 86.3999 66.8523 86.4149 67.1573L86.4229 67.2962L86.392 67.4333C77.401 106.63 44.613 113.306 44.283 113.369C43.74 113.473 43.2169 113.115 43.1129 112.574C43.0089 112.037 43.365 111.508 43.908 111.404C44.224 111.342 75.671 104.887 84.409 67.1313Z" fill="#583111"/>
<path d="M88.5686 65.6641L88.5926 65.8521C87.6696 87.2131 67.0426 114.207 42.7586 115.739C30.6376 116.503 23.1106 114.735 17.5906 109.833C10.0806 103.165 5.86363 89.7161 4.69763 68.7181L4.66763 68.3252L4.66864 68.1941C4.79064 38.6591 11.5536 26.6821 21.5596 21.9051C21.4716 21.6631 21.3836 21.4252 21.2956 21.1782C21.2866 21.1552 20.8246 19.9261 19.9456 18.4611C8.09161 24.0721 1.10763 37.3711 0.685636 66.1861L0.515623 66.1861L0.665617 68.3342L0.659635 68.8302L0.698637 70.9282L0.821623 70.9221C2.21962 92.1881 6.72162 105.531 14.9326 112.824C22.9696 119.961 33.6356 120.32 43.0086 119.73C55.3526 118.951 67.5756 112.251 77.4296 100.867C85.9486 91.0211 91.4766 78.8321 92.4636 67.8691L92.5886 65.9021C92.5756 65.6791 92.5566 65.3381 92.5446 65.2461C90.4256 43.5921 70.1696 18.7011 45.9366 15.2501C46.5186 16.5661 47.0326 18.0101 47.4616 19.5821C68.7106 23.9241 86.7156 46.5751 88.5686 65.6641Z" fill="#341B06"/>
<path d="M92.6008 65.7574L92.5918 65.9025C92.5958 65.9705 92.5988 66.0295 92.6008 66.0645L92.6008 65.7574Z" fill="#010101"/>
<path d="M32.6666 19.1289C33.3216 19.0679 33.9836 19.0179 34.6516 18.9789C34.5976 17.7019 34.5786 16.3889 34.5916 15.0279C32.5276 15.1729 30.5426 15.4109 28.6406 15.7579C29.9826 16.6699 31.3376 17.7859 32.6666 19.1289Z" fill="#010101"/>
<path d="M63.4757 67.209C63.4757 57.693 43.8317 50.625 37.8217 50.625C31.4567 50.625 26.4707 57.91 26.4707 67.209C26.4707 76.51 31.4557 83.793 37.8217 83.793C43.8317 83.793 63.4757 76.725 63.4757 67.209ZM29.4707 67.209C29.4707 59.846 33.2947 53.625 37.8217 53.625C42.8947 53.625 60.4757 60.205 60.4757 67.209C60.4757 74.213 42.8947 80.793 37.8217 80.793C33.2947 80.793 29.4707 74.573 29.4707 67.209Z" fill="#341B06"/>
<path d="M50.1878 70.2987C50.5158 70.7417 51.1428 70.8377 51.5858 70.5097C51.8518 70.3127 51.9918 70.0117 51.9918 69.7047C51.9918 69.4977 51.9288 69.2907 51.7968 69.1127C51.5898 68.8297 46.6328 62.2107 39.0568 61.4917C38.5068 61.4387 38.0188 61.8437 37.9668 62.3917C37.9178 62.9547 38.3188 63.4307 38.8668 63.4817C40.5228 63.6397 42.0518 64.1357 43.4158 64.7947L38.1898 71.1327C37.8368 71.5567 37.8998 72.1897 38.3258 72.5387C38.7518 72.8907 39.3828 72.8297 39.7328 72.4037L45.1848 65.7887C48.2738 67.7617 50.1588 70.2597 50.1878 70.2987Z" fill="#341B06"/>
<path d="M40.4864 37.1484C39.4234 35.7424 38.5434 34.3164 37.8124 32.8534L36.9414 33.7224C38.1714 35.0074 39.3594 36.1424 40.4864 37.1484Z" fill="#894D20"/>
<path d="M35.3951 35.2731L33.3691 37.2981C34.4041 38.1891 35.5311 39.0151 36.7791 39.7711C38.0631 40.5481 41.1391 42.0271 43.9911 42.7461C41.6551 41.1111 38.6621 38.6951 35.3951 35.2731Z" fill="#894D20"/>
<path d="M37.8127 32.8537C37.4477 32.1217 37.1097 31.3827 36.8187 30.6307L34.6367 31.1897C35.4157 32.0917 36.1857 32.9337 36.9417 33.7227L37.8127 32.8537Z" fill="#B28832"/>
<path d="M30.2794 25.6192C31.5144 27.3652 32.7524 28.9552 33.9694 30.4082L35.5854 26.5662C35.5744 26.5172 35.5614 26.4702 35.5504 26.4212C34.5524 24.7632 33.5004 23.3192 32.4184 22.0642L29.3164 25.1662C29.6844 25.1402 30.0534 25.2982 30.2794 25.6192Z" fill="#B28832"/>
<path d="M28.5049 26.8749C28.3539 26.6619 28.2949 26.4139 28.3129 26.1719L26.4609 28.0239C28.2799 31.6999 30.4369 34.7739 33.3679 37.2969L35.3939 35.2719C33.1829 32.9549 30.8469 30.1839 28.5049 26.8749Z" fill="#B28832"/>
<path d="M25.3812 16.3241C23.1492 15.1171 21.0472 14.4611 19.3242 14.1091C20.9472 15.7141 22.0672 17.6731 22.7092 18.9961L25.3812 16.3241Z" fill="#FFE2B3"/>
<path d="M28.7639 25.3594C28.9329 25.2404 29.1259 25.1794 29.3189 25.1664L32.4209 22.0644C30.1129 19.3884 27.6789 17.5624 25.3829 16.3224L22.7109 18.9944C23.1349 19.8674 23.3519 20.4654 23.3579 20.4844C24.3349 23.2364 25.3339 25.7464 26.4619 28.0234L28.3139 26.1714C28.3349 25.8574 28.4869 25.5564 28.7639 25.3594Z" fill="#DBB36B"/>
<path d="M51.9607 43.0449C54.3067 35.8969 50.8396 30.4789 49.2426 28.4839L44.7227 30.4919C47.4327 36.9709 50.3827 41.1019 51.9607 43.0449Z" fill="#894D20"/>
<path d="M42.7225 31.3814L40.1035 32.5454C40.7495 33.7464 41.5055 34.9224 42.3995 36.0764C43.3175 37.2644 45.6575 39.7484 48.0605 41.4434C46.4685 39.0794 44.5425 35.7484 42.7225 31.3814Z" fill="#894D20"/>
<path d="M49.2415 28.4861C49.0535 28.2521 48.8875 28.0601 48.7635 27.9221L43.4805 27.3031C43.8835 28.4241 44.2995 29.4871 44.7215 30.4941L49.2415 28.4861Z" fill="#B28832"/>
<path d="M40.6816 19.769C41.0316 19.878 41.3197 20.156 41.4167 20.537C41.9417 22.611 42.5246 24.539 43.1396 26.332L46.0687 23.287C45.7317 21.338 45.2586 19.5801 44.6896 17.9901L40.6816 19.769Z" fill="#B28832"/>
<path d="M42.7223 31.3819C41.4903 28.4249 40.3053 25.0009 39.3093 21.0709C39.2443 20.8169 39.2793 20.5649 39.3823 20.3439L36.9883 21.4079C37.3653 25.4919 38.2743 29.1349 40.1023 32.5449L42.7223 31.3819Z" fill="#B28832"/>
<path d="M35.3281 5.85782C36.2661 7.93782 36.6071 10.1708 36.7311 11.6328L40.1841 10.0998C38.5341 8.17182 36.8101 6.80482 35.3281 5.85782Z" fill="#FFE2B3"/>
<path d="M40.0954 19.7482C40.2964 19.6972 40.4974 19.7112 40.6824 19.7682L44.6904 17.9892C43.5004 14.6612 41.8824 12.0852 40.1854 10.1002L36.7324 11.6332C36.8144 12.6002 36.8014 13.2372 36.8004 13.2582C36.7234 16.1782 36.7554 18.8772 36.9884 21.4082L39.3824 20.3442C39.5154 20.0612 39.7664 19.8322 40.0954 19.7482Z" fill="#DBB36B"/>
<path d="M31.0742 3.79526C34.6762 6.37326 34.6272 13.1082 34.6262 13.1642C34.6092 13.7952 34.5983 14.4143 34.5923 15.0273C34.5783 16.3883 34.5983 17.7012 34.6523 18.9782C34.6883 19.8552 34.7413 20.7143 34.8173 21.5543C34.1123 20.6713 33.3933 19.8632 32.6673 19.1282C31.3383 17.7842 29.9832 16.6692 28.6422 15.7572C21.7162 11.0442 15.1853 11.5382 14.7923 11.5732L8.53125 12.1322L14.6153 13.7083C17.0203 14.3333 18.8233 16.5892 19.9463 18.4602C20.8253 19.9252 21.2873 21.1532 21.2963 21.1772C21.3843 21.4232 21.4722 21.6612 21.5602 21.9042C24.7712 30.7692 28.3243 37.1913 35.6523 41.6313C35.7033 41.6603 38.3952 43.2193 41.5942 44.2993C42.7022 44.1973 43.8293 44.1412 44.9723 44.1412C45.3833 44.1412 45.7853 44.1702 46.1913 44.1862C45.5483 43.7912 44.8162 43.3212 43.9912 42.7452C41.1392 42.0262 38.0633 40.5482 36.7793 39.7702C35.5313 39.0142 34.4043 38.1882 33.3693 37.2972C30.4373 34.7742 28.2812 31.6993 26.4622 28.0243C25.3342 25.7473 24.3352 23.2373 23.3582 20.4853C23.3512 20.4653 23.1342 19.8682 22.7112 18.9952C22.0692 17.6732 20.9493 15.7142 19.3263 14.1082C21.0493 14.4602 23.1502 15.1162 25.3832 16.3232C27.6792 17.5632 30.1133 19.3892 32.4213 22.0652C33.5033 23.3212 34.5553 24.7642 35.5533 26.4222C35.5643 26.4712 35.5773 26.5183 35.5883 26.5673L33.9723 30.4092C34.1963 30.6752 34.4173 30.9342 34.6393 31.1902L36.8213 30.6313C37.1123 31.3833 37.4502 32.1212 37.8152 32.8542C38.5452 34.3172 39.4263 35.7433 40.4893 37.1493C40.5533 37.2353 40.6123 37.3232 40.6793 37.4092C40.7353 37.4792 45.3492 43.2102 49.8712 44.8912L50.3993 44.5902C49.7893 43.8542 48.9802 42.8092 48.0602 41.4442C45.6572 39.7492 43.3173 37.2642 42.3993 36.0772C41.5053 34.9232 40.7502 33.7472 40.1032 32.5462C38.2752 29.1362 37.3663 25.4932 36.9893 21.4092C36.7563 18.8782 36.7232 16.1792 36.8012 13.2592C36.8022 13.2382 36.8152 12.6012 36.7332 11.6342C36.6092 10.1712 36.2673 7.93925 35.3303 5.85925C36.8113 6.80625 38.5362 8.17325 40.1862 10.1013C41.8832 12.0853 43.5003 14.6622 44.6913 17.9902C45.2603 19.5802 45.7332 21.3382 46.0703 23.2872L43.1413 26.3322C43.2543 26.6602 43.3692 26.9823 43.4832 27.3033L48.7663 27.9222C48.8903 28.0612 49.0553 28.2522 49.2443 28.4862C50.8413 30.4802 54.3073 35.8982 51.9622 43.0472C52.6613 43.9082 53.0952 44.3482 53.1122 44.3652C53.3252 44.5762 53.4183 44.8573 53.4193 45.1353C53.4482 45.1433 53.4792 45.1512 53.5092 45.1562L53.7122 44.6252C57.7742 34.0212 50.3173 26.1193 49.6783 25.8733L49.5503 25.8242L46.9442 25.5172L48.3913 24.0132L48.3062 23.4803C48.0882 22.0953 47.8002 20.8043 47.4662 19.5843C47.0362 18.0123 46.5233 16.5683 45.9413 15.2523C41.2603 4.64726 32.4622 1.99623 32.0092 1.86523L25.9662 0.138244L31.0742 3.79526Z" fill="#3C2010"/>
<path d="M64.2677 77.2973C60.4697 83.1233 52.3347 86.4693 45.0547 87.2773C56.8927 87.2503 66.9027 81.1813 70.1077 72.8963L66.3007 72.8963C65.8627 74.3913 65.1987 75.8683 64.2677 77.2973Z" fill="#B28832"/>
<path d="M64.757 59.8535L69.356 59.8535C65.515 52.4155 56.038 47.1405 44.973 47.1405C44.731 47.1405 44.493 47.1485 44.252 47.1545C47.443 47.4845 51.098 48.5955 53.279 49.4675C58.177 51.4215 62.351 55.2575 64.757 59.8535Z" fill="#B28832"/>
<path d="M66.3009 72.8965L70.1078 72.8965C70.8058 71.0915 71.1869 69.1835 71.1869 67.2075C71.1869 64.6115 70.5329 62.1335 69.3549 59.8535L64.7559 59.8535C66.8569 63.8675 67.6039 68.4625 66.3009 72.8965Z" fill="#DBB36B"/>
<path d="M15.7578 67.2074C15.7578 79.9304 28.8628 90.2794 44.9728 90.2794C45.8358 90.2794 46.6888 90.2444 47.5338 90.1854C47.3618 91.2654 46.0518 93.4065 41.2078 96.2555C40.4948 96.6735 40.2568 97.5935 40.6768 98.3085C41.0968 99.0235 42.0168 99.2615 42.7298 98.8415C47.2938 96.1535 49.8878 93.4845 50.4368 90.9025C50.5128 90.5435 50.5438 90.2115 50.5438 89.9105C50.5438 89.8905 50.5388 89.8754 50.5378 89.8534C63.9938 87.7944 74.1878 78.4254 74.1878 67.2074C74.1878 56.8344 65.4638 48.0454 53.5078 45.1544C53.4778 45.1484 53.4468 45.1404 53.4178 45.1334C53.4168 44.8564 53.3238 44.5745 53.1108 44.3635C53.0928 44.3455 52.6598 43.9065 51.9608 43.0455C50.3828 41.1025 47.4328 36.9715 44.7238 30.4925C44.3018 29.4845 43.8858 28.4224 43.4828 27.3014C43.3688 26.9814 43.2538 26.6585 43.1408 26.3305C42.5268 24.5375 41.9438 22.6095 41.4178 20.5355C41.3198 20.1545 41.0318 19.8774 40.6828 19.7674C40.4978 19.7104 40.2968 19.6975 40.0958 19.7475C39.7668 19.8315 39.5158 20.0604 39.3828 20.3434C39.2788 20.5644 39.2438 20.8165 39.3098 21.0705C40.3058 25.0005 41.4908 28.4245 42.7228 31.3815C44.5428 35.7485 46.4688 39.0784 48.0608 41.4444C48.9808 42.8095 49.7898 43.8544 50.3998 44.5904L49.8718 44.8914C45.3498 43.2094 40.7348 37.4794 40.6798 37.4094C40.6128 37.3234 40.5538 37.2355 40.4898 37.1495C39.3628 36.1435 38.1748 35.0084 36.9448 33.7234C36.1888 32.9344 35.4198 32.0925 34.6398 31.1905C34.4178 30.9345 34.1968 30.6744 33.9728 30.4094C32.7548 28.9564 31.5178 27.3664 30.2828 25.6204C30.0558 25.3004 29.6868 25.1414 29.3208 25.1674C29.1288 25.1814 28.9348 25.2415 28.7658 25.3605C28.4898 25.5575 28.3368 25.8585 28.3148 26.1735C28.2968 26.4155 28.3558 26.6635 28.5068 26.8765C30.8488 30.1855 33.1848 32.9565 35.3968 35.2725C38.6648 38.6945 41.6578 41.1104 43.9928 42.7454C44.8178 43.3214 45.5508 43.7925 46.1928 44.1865C45.7868 44.1705 45.3848 44.1414 44.9738 44.1414C43.8308 44.1414 42.7038 44.1985 41.5958 44.2995C27.0718 45.6275 15.7578 55.3914 15.7578 67.2074ZM18.7578 67.2074C18.7578 56.3284 30.1288 47.4494 44.2518 47.1544C44.4918 47.1484 44.7308 47.1405 44.9728 47.1405C56.0368 47.1405 65.5148 52.4154 69.3558 59.8534C70.5338 62.1324 71.1878 64.6114 71.1878 67.2074C71.1878 69.1844 70.8068 71.0924 70.1088 72.8964C66.9038 81.1814 56.8938 87.2505 45.0558 87.2775C45.0278 87.2775 44.9998 87.2794 44.9728 87.2794C30.5178 87.2804 18.7578 78.2764 18.7578 67.2074Z" fill="#341B06"/>
<path d="M43.1118 112.574C43.2158 113.115 43.7388 113.472 44.2818 113.369C44.6118 113.306 77.3998 106.631 86.3908 67.433L86.4218 67.296L86.4138 67.157C86.3978 66.852 84.4218 36.491 50.7988 22.145C50.2908 21.928 49.7028 22.165 49.4858 22.672C49.2708 23.176 49.5038 23.768 50.0128 23.985C81.3358 37.348 84.2308 64.981 84.4078 67.131C75.6698 104.887 44.2218 111.342 43.9058 111.402C43.3638 111.507 43.0078 112.037 43.1118 112.574Z" fill="#894D20"/>
<path d="M41.1875 113.385C41.1875 112.786 40.7022 112.301 40.1035 112.301C39.5049 112.301 39.0195 112.786 39.0195 113.385C39.0195 113.983 39.5049 114.469 40.1035 114.469C40.7022 114.469 41.1875 113.983 41.1875 113.385Z" fill="#894D20"/>
<path d="M20.7974 66.8536C20.8074 66.7516 21.8854 56.5765 32.6284 51.6285C32.8114 51.5445 32.9194 51.3625 32.9194 51.1755C32.9194 51.1055 32.9044 51.0326 32.8734 50.9666C32.7584 50.7146 32.4614 50.6056 32.2104 50.7206C20.9494 55.9066 19.8114 66.6526 19.8014 66.7596C19.7734 67.0216 19.9774 67.2795 20.2524 67.3045C20.5274 67.3295 20.7704 67.1286 20.7974 66.8536Z" fill="#B28832"/>
</svg>
