<svg width="133" height="133" viewBox="0 0 133 133" fill="none" xmlns="http://www.w3.org/2000/svg">
<path d="M-5.93415e-10 66.5C-2.65681e-10 29.7731 29.7925 -2.68606e-10 66.5 -5.99557e-10C103.207 -9.30508e-10 133 29.7731 133 66.5C133 103.227 103.207 133 66.5 133C29.7925 133 -9.21149e-10 103.227 -5.93415e-10 66.5Z" fill="#FF9100"/>
<path d="M52.3892 5.9962V15.2577H33.8467V24.5186L24.5853 24.5175V33.7951L15.3238 33.7952L15.2776 52.3181H15.3238L15.2776 52.3331H15.3129L15.3269 52.3342L15.2776 52.3331L15.2776 52.3181H6.04936L6 52.3342H6.05196L6.10184 80.1172H15.3628V98.6562L24.6242 98.6563V107.917H33.8462L33.8987 117.194H52.4346V126.455H80.251V117.194H98.7934L98.7939 107.917H108.072L108.003 98.6562H117.316L117.33 80.1166H126.591V52.3342H126.539V52.3181H117.281V33.7952H108.003V24.5175L98.7415 24.5186V15.2577H80.2385L80.2055 5.99609L52.3892 5.9962Z" fill="#FFCE00"/>
<path d="M89.4856 43.0569H80.208L80.2535 89.3793H89.531V107.918H52.4366V98.657H61.698L61.6526 52.3349H52.3911V33.7959H89.4856V43.0569Z" fill="#FFDE52"/>
<path d="M43.1628 89.3787H52.4373L52.3918 52.3182H61.6528H61.6982V98.6562H52.4404V107.917H43.1628V89.3787Z" fill="white"/>
<path d="M89.4863 24.5176V33.7952H52.3918L52.3913 43.0562H43.1304V24.5176H89.4863Z" fill="white"/>
<path d="M52.3901 24.5187V15.2578H80.2064V24.5187H52.3901Z" fill="#EF9F00"/>
<path d="M80.2519 107.916H52.4355V117.194H80.2519V107.916Z" fill="#EF9F00"/>
<path d="M43.1611 89.3783H52.4387L52.4878 43.0563L43.1252 43.0568L43.1611 24.5187H33.8996L33.8477 52.3344H43.1252L43.1611 80.1173H33.8996L33.8477 107.917L43.1252 107.916L43.1611 89.3783Z" fill="#EF9F00"/>
<path d="M98.7424 24.5177H89.4814L89.5334 43.0563L80.2069 43.0568L80.2064 89.3783H89.53L89.4814 107.917L98.7943 107.916L98.7424 80.1173H89.4814L89.5334 52.3344H98.7424V24.5177Z" fill="#EF9F00"/>
</svg>
