<svg width="149" height="149" viewBox="0 0 149 149" fill="none" xmlns="http://www.w3.org/2000/svg">
<path d="M140.77 78.299C142.986 41.6389 115.063 10.1222 78.4027 7.90435C41.7428 5.68653 10.2283 33.6075 8.01302 70.2676C5.79777 106.928 33.7207 138.444 70.3806 140.662C107.041 142.88 138.555 114.959 140.77 78.299Z" fill="white"/>
<path fill-rule="evenodd" clip-rule="evenodd" d="M13.0217 74.6474C13.0217 108.333 40.3271 135.637 74.002 135.64C107.677 135.643 134.982 108.344 134.982 74.6576C134.982 40.9715 107.677 13.6679 74.0019 13.665C40.3271 13.6622 13.0217 40.9613 13.0217 74.6474ZM74.002 146.652C34.2338 146.649 2.00195 114.407 2.00195 74.6465C2.00195 34.8857 34.2338 2.64917 74.0019 2.65249C113.77 2.65581 146.002 34.8977 146.002 74.6585C146.002 114.419 113.77 146.656 74.002 146.652Z" fill="black"/>
</svg>
