<svg width="78" height="78" viewBox="0 0 78 78" fill="none" xmlns="http://www.w3.org/2000/svg">
<path d="M7.61328 39.6243C7.61328 56.7452 21.4925 70.6271 38.6133 70.6305C55.7341 70.6339 69.6133 56.7575 69.6133 39.6367C69.6133 22.5159 55.7341 8.63395 38.6133 8.63052C21.4925 8.6271 7.61328 22.5035 7.61328 39.6243Z" fill="#471A0B"/>
<path fill-rule="evenodd" clip-rule="evenodd" d="M64.3747 39.1344C64.3747 25.185 53.0658 13.8726 39.1133 13.8698C25.1607 13.8669 13.8518 25.1748 13.8518 39.1242C13.8518 53.0736 25.1607 64.386 39.1133 64.3889C53.0658 64.3917 64.3747 53.0838 64.3747 39.1344ZM39.1133 2.62932C59.2706 2.63341 75.6133 18.9773 75.6133 39.1367C75.6133 59.2962 59.2706 75.6334 39.1133 75.6293C18.9559 75.6252 2.61328 59.2814 2.61328 39.1219C2.61328 18.9625 18.9559 2.62524 39.1133 2.62932Z" fill="black"/>
</svg>
