<svg width="78" height="78" viewBox="0 0 78 78" fill="none" xmlns="http://www.w3.org/2000/svg">
<path d="M7.63085 39.2298C7.63085 56.3506 21.51 70.2326 38.6309 70.236C55.7517 70.2394 69.6309 56.363 69.6309 39.2422C69.6309 22.1214 55.7517 8.23941 38.6309 8.23599C21.51 8.23257 7.63085 22.109 7.63085 39.2298Z" fill="url(#paint0_radial)"/>
<path fill-rule="evenodd" clip-rule="evenodd" d="M64.3923 38.7399C64.3923 24.7905 53.0834 13.4781 39.1309 13.4752C25.1783 13.4724 13.8694 24.7803 13.8694 38.7297C13.8694 52.6791 25.1783 63.9915 39.1309 63.9943C53.0834 63.9972 64.3923 52.6893 64.3923 38.7399ZM39.1309 2.23479C59.2882 2.23888 75.6309 18.5827 75.6309 38.7422C75.6309 58.9016 59.2882 75.2389 39.1309 75.2348C18.9735 75.2307 2.63086 58.8868 2.63086 38.7274C2.63086 18.5679 18.9735 2.23071 39.1309 2.23479Z" fill="black"/>
<defs>
<radialGradient id="paint0_radial" cx="0" cy="0" r="1" gradientUnits="userSpaceOnUse" gradientTransform="translate(38.6309 39.236) rotate(-179.989) scale(31)">
<stop stop-color="#EF3F49"/>
<stop offset="1" stop-color="#FC8059"/>
</radialGradient>
</defs>
</svg>
