<svg width="73" height="73" viewBox="0 0 73 73" fill="none" xmlns="http://www.w3.org/2000/svg">
<path d="M36.7834 66.5055C53.6187 66.5055 67.2692 52.8804 67.2725 36.073C67.2759 19.2657 53.6309 5.64063 36.7956 5.64063C19.9602 5.64063 6.30978 19.2657 6.30642 36.073C6.30306 52.8804 19.9481 66.5055 36.7834 66.5055Z" fill="#C3AE85"/>
<path fill-rule="evenodd" clip-rule="evenodd" d="M36.7946 11.1881C23.0147 11.1881 11.8574 22.3378 11.8547 36.0724C11.852 49.8069 23.0048 60.9566 36.7847 60.9566C50.5645 60.9566 61.7218 49.8069 61.7246 36.0724C61.7273 22.3378 50.5745 11.1881 36.7946 11.1881ZM0.758433 36.0724C0.762407 16.1921 16.906 0.0917969 36.7968 0.0917969C56.6876 0.0917969 72.8248 16.1921 72.8208 36.0724C72.8169 55.9526 56.6732 72.0529 36.7824 72.0529C16.8917 72.0529 0.754459 55.9526 0.758433 36.0724Z" fill="black"/>
</svg>
