<svg width="148" height="149" viewBox="0 0 148 149" fill="none" xmlns="http://www.w3.org/2000/svg">
<path d="M78.4041 8.23797C41.744 6.02318 10.2269 33.9464 8.00861 70.6063C5.79033 107.266 33.7109 138.78 70.371 140.995C107.031 143.21 138.548 115.287 140.767 78.6268C142.985 41.9669 115.064 10.4528 78.4041 8.23797Z" fill="#040D1F"/>
<mask id="mask0" mask-type="alpha" maskUnits="userSpaceOnUse" x="7" y="8" width="134" height="134">
<path d="M78.4041 8.23797C41.744 6.02318 10.2269 33.9464 8.00861 70.6063C5.79033 107.266 33.7109 138.78 70.371 140.995C107.031 143.21 138.548 115.287 140.767 78.6268C142.985 41.9669 115.064 10.4528 78.4041 8.23797Z" fill="#040D1F"/>
</mask>
<g mask="url(#mask0)">
<path d="M54.9323 146.231L51.8302 173.798L69.6108 190.751L67.549 197.909L46.3198 175.154C46.0679 150.887 57.5748 109.857 63.3597 92.3756L64.652 96.2342C58.959 115.477 55.8001 137.584 54.9323 146.231Z" fill="#4D84E8"/>
<path d="M41.4047 183.987L49.5664 189.683C57.2898 195.729 63.6419 204.506 64.6252 206.981L66.7853 202.192C62.1694 194.634 50.7642 184.441 46.1531 180.182L55.4014 119.185C49.1582 125.166 42.0248 163.303 40.9803 171.48C39.1454 176.376 40.4987 181.858 41.4047 183.987Z" fill="black"/>
<path d="M39.1458 186.408L46.514 186.623L41.4709 183.322C39.774 178.809 43.12 162.425 45.0051 154.798L55.9503 109.324L46.0101 138.087L41.753 153.733C40.5644 162.23 38.1936 179.83 38.2188 182.257C38.244 184.684 38.8473 186.036 39.1458 186.408Z" fill="#47E3C0"/>
<path d="M36.7529 190.16C41.2932 190.437 47.4739 189.319 49.9967 188.725L47.9072 186.117L39.51 186.116C37.4544 158.399 48.6834 123.71 54.5549 109.829C29.3283 160.383 32.1758 184.447 36.7529 190.16Z" fill="black"/>
<path d="M57.0868 55.7878L49.9594 14.5875L75.1995 -12.5069L71.4585 -23.0923L41.5474 13.0387C43.3339 49.5747 64.3086 110.281 74.5726 136.068L76.1726 130.147C65.8897 101.702 59.1642 68.722 57.0868 55.7878Z" fill="#4D84E8"/>
<path d="M71.6192 -22.0959L68.9327 -29.2892C53.2953 -7.20951 42.4016 2.47546 38.7014 4.8516L40.5562 13.2193C49.2317 8.78237 64.8797 -12.1729 71.6192 -22.0959Z" fill="#47E3C0"/>
<path d="M33.3622 0.187623L45.1341 -9.11057C56.2151 -18.898 64.9895 -32.6705 66.2481 -36.4819L69.9255 -29.4686C63.6548 -17.6852 47.4041 -1.33055 40.8462 5.48794L60.2042 96.4394C50.277 87.9979 36.141 31.2539 33.8396 19.0428C30.6419 11.8403 32.189 3.47163 33.3622 0.187623Z" fill="black"/>
<path d="M29.7474 -3.25422L40.8145 -4.23387L33.5211 1.18196C31.3708 8.12402 37.8671 32.4765 41.384 43.7849L61.9101 111.228L44.3875 68.838L36.586 45.6774C34.0394 32.9988 28.9017 6.72804 28.723 3.07445C28.5444 -0.579144 29.3315 -2.66699 29.7474 -3.25422Z" fill="#47E3C0"/>
<path d="M25.8125 -8.68528C32.6191 -9.50796 42.0184 -8.37685 45.8673 -7.70846L42.9561 -3.59789L30.3217 -2.84644C29.7022 39.0396 49.6929 90.2318 59.7657 110.592C17.2985 36.7801 19.4355 0.318828 25.8125 -8.68528Z" fill="black"/>
</g>
<path fill-rule="evenodd" clip-rule="evenodd" d="M13.0197 74.9799C13.0197 108.666 40.3252 135.97 74 135.972C107.675 135.975 134.98 108.676 134.98 74.9901C134.98 41.304 107.675 14.0004 74 13.9976C40.3252 13.9948 13.0197 41.2938 13.0197 74.9799ZM74 146.985C34.2318 146.982 2 114.74 2 74.979C2 35.2182 34.2318 2.98169 74 2.98501C113.768 2.98833 146 35.2302 146 74.991C146 114.752 113.768 146.988 74 146.985Z" fill="black"/>
</svg>
