<svg width="30" height="151" viewBox="0 0 30 151" fill="none" xmlns="http://www.w3.org/2000/svg">
<rect x="29.4296" y="133.404" width="13" height="29.025" rx="3" transform="rotate(90 29.4296 133.404)" fill="#D1D1D1"/>
<path d="M9.87508 150.507C8.77051 150.507 7.87508 149.612 7.87508 148.507L7.87508 146.404L21.9591 146.404L21.9591 148.507C21.9591 149.612 21.0637 150.507 19.9591 150.507L9.87508 150.507Z" fill="#FF9600"/>
<rect x="29.4295" y="4.53076" width="13" height="29.0247" rx="3" transform="rotate(90 29.4295 4.53076)" fill="#D1D1D1"/>
<path d="M19.9591 0.427978C21.0637 0.427978 21.9591 1.32341 21.9591 2.42798L21.9591 4.53087L7.87509 4.53087L7.87509 2.42798C7.87509 1.32341 8.77052 0.427978 9.87509 0.427978L19.9591 0.427978Z" fill="#FF9600"/>
</svg>
