<svg width="73" height="73" viewBox="0 0 73 73" fill="none" xmlns="http://www.w3.org/2000/svg">
<path d="M6.01953 36.656C6.01953 53.4974 19.6748 67.1527 36.5195 67.1561C53.3642 67.1594 67.0195 53.5096 67.0195 36.6682C67.0195 19.8269 53.3642 6.17159 36.5195 6.16822C19.6749 6.16485 6.01953 19.8147 6.01953 36.656Z" fill="#008883"/>
<mask id="mask0_1318_2788" style="mask-type:alpha" maskUnits="userSpaceOnUse" x="6" y="6" width="62" height="62">
<path d="M6.01953 36.6565C6.01953 53.4979 19.6748 67.1532 36.5195 67.1566C53.3642 67.1599 67.0195 53.5101 67.0195 36.6687C67.0195 19.8274 53.3642 6.17208 36.5195 6.16871C19.6749 6.16534 6.01953 19.8152 6.01953 36.6565Z" fill="#008883"/>
</mask>
<g mask="url(#mask0_1318_2788)">
<path d="M-24.0609 103.21L95.3281 103.21L95.3281 -16.1786L-24.0609 -16.1786L-24.0609 103.21Z" fill="#00826A"/>
<mask id="mask1_1318_2788" style="mask-type:alpha" maskUnits="userSpaceOnUse" x="-25" y="-17" width="121" height="121">
<path d="M-24.0609 103.21L95.3281 103.21L95.3281 -16.1786L-24.0609 -16.1786L-24.0609 103.21Z" fill="#848484"/>
</mask>
<g mask="url(#mask1_1318_2788)">
<path d="M33.5267 67.7915C35.2168 67.2492 37.0358 67.1234 38.657 66.3984C40.2782 65.6734 41.7226 64.0617 41.4259 62.3061C41.0453 60.0802 38.1536 58.9179 37.8629 56.677C37.5243 54.0766 40.9315 51.9286 40.2602 49.3972C39.9156 48.124 38.5671 47.3211 37.2636 47.2402C35.96 47.1593 34.6685 47.6566 33.4818 48.2348C32.2951 48.813 31.1414 49.4901 29.8618 49.8046C26.7873 50.5626 23.6438 49.1485 20.77 47.8184C17.8962 46.4882 14.6688 45.1821 11.6512 46.1467C9.52354 46.8298 7.75551 48.5913 5.51701 48.7261C3.99471 48.819 2.53834 48.127 1.24079 47.3151C-0.05676 46.5032 -1.30636 45.5805 -2.75974 45.1192C-4.21312 44.6578 -5.97515 44.7686 -7.04196 45.8591C-8.1657 47.0065 -8.15371 48.9778 -7.23974 50.2959C-6.32576 51.6141 -4.69558 52.3181 -3.09237 52.393C-1.82478 52.4619 -0.539224 52.1893 0.707384 52.42C1.95399 52.6506 3.22757 53.6183 3.14966 54.8975C3.1137 55.4637 2.81403 55.985 2.76309 56.5482C2.63123 58.0101 4.19249 59.1036 5.64886 59.2804C7.63864 59.523 9.59246 58.7142 11.4384 57.9322C13.2843 57.1503 15.2471 56.3565 17.2339 56.6351C19.2207 56.9137 21.1296 58.7022 20.7969 60.6764C20.6052 61.7759 19.7871 62.6566 18.927 63.3726C18.067 64.0886 17.1141 64.7178 16.4668 65.6285C15.8195 66.5392 15.5678 67.8424 16.1941 68.7591C17.123 70.0893 19.1907 69.7777 20.6291 69.0168C21.5012 68.5554 22.568 67.9772 23.395 68.5135C24.0603 68.9449 24.1622 69.8975 23.9554 70.6615C23.7486 71.4254 23.2782 72.1294 23.1044 72.8993C22.9518 73.6374 23.0369 74.4048 23.3475 75.0916C23.6582 75.7783 24.1783 76.349 24.8334 76.722C27.6803 78.2618 29.9817 75.6285 29.9547 72.9263C29.9277 70.2241 30.6859 68.7052 33.5267 67.7915Z" fill="#112E2E"/>
<path d="M21.8588 16.5469C23.5489 17.0892 25.3678 17.215 26.989 17.94C28.6102 18.6649 30.0546 20.2767 29.7579 22.0322C29.3774 24.2581 26.4856 25.4205 26.1949 27.6614C25.8563 30.2617 29.2635 32.4097 28.5922 34.9412C28.2476 36.2144 26.8991 37.0173 25.5956 37.0982C24.292 37.1791 23.0005 36.6818 21.8138 36.1036C20.6271 35.5254 19.4734 34.8483 18.1939 34.5338C15.1193 33.7758 11.9758 35.1899 9.10201 36.52C6.22822 37.8501 3.00082 39.1563 -0.0168087 38.1917C-2.14443 37.5086 -3.91246 35.7471 -6.15096 35.6123C-7.67326 35.5194 -9.12962 36.2114 -10.4272 37.0233C-11.7247 37.8352 -12.9743 38.7579 -14.4277 39.2192C-15.8811 39.6806 -17.6431 39.5697 -18.7099 38.4793C-19.8337 37.3319 -19.8217 35.3606 -18.9077 34.0425C-17.9937 32.7243 -16.3635 32.0203 -14.7603 31.9454C-13.4928 31.8765 -12.2072 32.1491 -10.9606 31.9184C-9.71398 31.6877 -8.4404 30.7201 -8.51831 29.4409C-8.55427 28.8747 -8.85394 28.3534 -8.90488 27.7902C-9.03673 26.3282 -7.47548 25.2348 -6.01911 25.058C-4.02933 24.8154 -2.07551 25.6242 -0.229573 26.4061C1.61637 27.188 3.57918 27.9819 5.56596 27.7033C7.55274 27.4247 9.4616 25.6362 9.12898 23.662C8.93719 22.5625 8.1191 21.6817 7.25906 20.9657C6.39903 20.2497 5.44609 19.6206 4.79881 18.7099C4.15153 17.7992 3.89982 16.496 4.52612 15.5793C5.45508 14.2491 7.52277 14.5607 8.96116 15.3216C9.83319 15.783 10.9 16.3612 11.7271 15.8249C12.3923 15.3935 12.4942 14.4409 12.2874 13.6769C12.0807 12.913 11.6102 12.209 11.4364 11.439C11.2838 10.701 11.369 9.93355 11.6796 9.24682C11.9902 8.5601 12.5104 7.98934 13.1655 7.61639C16.0123 6.07654 18.3137 8.70986 18.2867 11.4121C18.2598 14.1143 19.0179 15.6332 21.8588 16.5469Z" fill="#112E2E"/>
<path d="M52.0983 63.3032C50.4082 62.7609 48.5892 62.6351 46.968 61.9101C45.3468 61.1852 43.9024 59.5734 44.1991 57.8179C44.5797 55.592 47.4714 54.4296 47.7621 52.1887C48.1007 49.5884 44.6935 47.4404 45.3648 44.9089C45.7094 43.6357 47.0579 42.8328 48.3614 42.7519C49.665 42.671 50.9565 43.1683 52.1432 43.7465C53.3299 44.3247 54.4836 45.0018 55.7632 45.3163C58.8377 46.0743 61.9812 44.6602 64.855 43.3301C67.7288 42 70.9562 40.6938 73.9738 41.6584C76.1015 42.3415 77.8695 44.103 80.108 44.2378C81.6303 44.3307 83.0867 43.6387 84.3842 42.8268C85.6818 42.0149 86.9314 41.0922 88.3847 40.6309C89.8381 40.1695 91.6001 40.2804 92.667 41.3708C93.7907 42.5182 93.7787 44.4895 92.8647 45.8076C91.9508 47.1258 90.3206 47.8298 88.7174 47.9047C87.4498 47.9736 86.1642 47.701 84.9176 47.9317C83.671 48.1624 82.3974 49.13 82.4753 50.4092C82.5113 50.9754 82.811 51.4967 82.8619 52.0599C82.9938 53.5219 81.4325 54.6153 79.9761 54.7921C77.9864 55.0347 76.0325 54.2259 74.1866 53.444C72.3407 52.6621 70.3779 51.8682 68.3911 52.1468C66.4043 52.4254 64.4954 54.2139 64.8281 56.1881C65.0198 57.2876 65.8379 58.1684 66.698 58.8844C67.558 59.6004 68.5109 60.2295 69.1582 61.1402C69.8055 62.0509 70.0572 63.3541 69.4309 64.2708C68.502 65.601 66.4343 65.2894 64.9959 64.5285C64.1238 64.0671 63.057 63.4889 62.23 64.0252C61.5647 64.4566 61.4628 65.4092 61.6696 66.1732C61.8764 66.9371 62.3468 67.6411 62.5206 68.411C62.6732 69.1491 62.5881 69.9165 62.2775 70.6033C61.9668 71.29 61.4467 71.8608 60.7916 72.2337C57.9447 73.7736 55.6433 71.1402 55.6703 68.438C55.6973 65.7358 54.9391 64.2169 52.0983 63.3032Z" fill="#112E2E"/>
<path d="M51.1998 13.854C49.5097 14.3963 47.6908 14.5221 46.0696 15.2471C44.4484 15.9721 43.004 17.5838 43.3007 19.3394C43.6812 21.5653 46.573 22.7276 46.8637 24.9685C47.2023 27.5689 43.7951 29.7169 44.4664 32.2483C44.811 33.5215 46.1595 34.3244 47.463 34.4053C48.7666 34.4862 50.0581 33.9889 51.2448 33.4107C52.4315 32.8325 53.5852 32.1555 54.8647 31.8409C57.9393 31.083 61.0828 32.497 63.9566 33.8271C66.8304 35.1573 70.0578 36.4634 73.0754 35.4988C75.203 34.8157 76.9711 33.0542 79.2096 32.9194C80.7319 32.8265 82.1882 33.5186 83.4858 34.3304C84.7833 35.1423 86.0329 36.065 87.4863 36.5263C88.9397 36.9877 90.7017 36.8769 91.7685 35.7864C92.8923 34.639 92.8803 32.6677 91.9663 31.3496C91.0523 30.0314 89.4221 29.3274 87.8189 29.2525C86.5513 29.1836 85.2658 29.4562 84.0192 29.2256C82.7726 28.9949 81.499 28.0272 81.5769 26.748C81.6129 26.1818 81.9125 25.6605 81.9635 25.0973C82.0953 23.6354 80.5341 22.5419 79.0777 22.3651C77.0879 22.1225 75.1341 22.9314 73.2882 23.7133C71.4422 24.4952 69.4794 25.2891 67.4926 25.0104C65.5059 24.7318 63.597 22.9433 63.9296 20.9691C64.1214 19.8696 64.9395 18.9889 65.7995 18.2729C66.6596 17.5569 67.6125 16.9277 68.2598 16.017C68.9071 15.1063 69.1588 13.8031 68.5325 12.8864C67.6035 11.5563 65.5358 11.8678 64.0974 12.6288C63.2254 13.0901 62.1586 13.6683 61.3315 13.132C60.6663 12.7006 60.5644 11.748 60.7711 10.984C60.9779 10.2201 61.4484 9.5161 61.6222 8.74618C61.7748 8.0081 61.6896 7.24068 61.379 6.55395C61.0684 5.86722 60.5482 5.29647 59.8931 4.92352C57.0463 3.38367 54.7449 6.01699 54.7718 8.71922C54.7988 11.4214 54.0407 12.9403 51.1998 13.854Z" fill="#112E2E"/>
<path d="M26.0015 83.0839C26.0721 84.2544 26.5008 85.3766 27.2314 86.3033C27.9619 87.23 28.9602 87.918 30.0954 88.277L30.952 88.546C31.6644 88.7677 32.4549 88.9893 33.1402 88.7322C34.3575 88.2829 34.601 86.5391 33.8856 85.4809C33.1703 84.4228 31.8658 83.8908 30.6094 83.5509C29.353 83.211 28.0274 82.9597 26.9694 82.2267C25.9114 81.4937 25.208 80.0395 25.7941 78.8986C26.3803 77.7577 27.8561 77.471 29.1005 77.1695C30.3449 76.868 31.8057 76.1439 31.8477 74.87C31.8748 73.8473 30.8739 73.0256 29.8459 72.8542C28.8179 72.6828 27.7809 72.9902 26.777 73.268C25.7731 73.5458 24.7091 73.803 23.7051 73.537C22.3616 73.1793 21.4328 71.9616 20.8587 70.7143C20.2846 69.467 19.957 68.1074 19.2266 66.9369C18.4962 65.7665 17.2368 64.7704 15.8511 64.9004C14.6488 65.0128 13.6509 65.9349 12.4546 66.1005C11.2042 66.2748 9.96883 65.5803 9.12422 64.6581C8.2796 63.7359 7.72954 62.5891 7.07729 61.531C6.26273 60.2009 5.24078 58.9447 3.87617 58.1644C2.51155 57.3841 0.753184 57.1447 -0.656518 57.8422C-2.06622 58.5398 -2.9439 60.2984 -2.35777 61.7408C-1.91292 62.8344 -0.821832 63.5142 0.0287955 64.3359C0.879423 65.1576 1.53168 66.5143 0.837343 67.4837C0.0949229 68.5359 -1.49813 68.2936 -2.79962 68.2847C-3.80523 68.2393 -4.79718 68.5276 -5.61602 69.1034C-6.40052 69.7094 -6.87844 70.7557 -6.61393 71.7044C-6.37347 72.5616 -5.61301 73.1675 -4.86758 73.6729C-4.12216 74.1784 -3.33465 74.672 -2.91685 75.4464C-2.80558 75.6537 -2.73775 75.8809 -2.71736 76.1145C-2.69697 76.348 -2.72444 76.5833 -2.79816 76.8062C-2.87186 77.0292 -2.99031 77.2353 -3.14648 77.4125C-3.30265 77.5896 -3.49338 77.7341 -3.70736 77.8375C-4.49187 78.2129 -5.26735 79.0198 -5.90758 79.5666C-6.60191 80.1577 -7.10988 81.0237 -6.98965 81.9105C-6.81832 83.2198 -5.35151 84.0533 -4.01094 84.0356C-2.67038 84.0179 -1.42599 83.3765 -0.226695 82.7824C0.972603 82.1883 2.26207 81.6001 3.59963 81.7183C6.47314 81.9578 8.10827 85.0997 10.6902 86.3529C11.7365 86.8385 12.9055 87.009 14.0501 86.8428C15.1946 86.6766 16.2636 86.1812 17.1225 85.4189C18.2527 84.3873 18.908 82.9568 19.8758 81.7775C20.8437 80.5981 22.3886 79.6228 23.8705 80.0632C25.1269 80.4385 25.8993 81.7597 26.0045 83.0454L26.0015 83.0839Z" fill="#52DED6"/>
<path d="M53.8297 59.7445C53.9002 60.915 54.3289 62.0372 55.0595 62.964C55.79 63.8907 56.7883 64.5787 57.9235 64.9377L58.7801 65.2066C59.4925 65.4283 60.283 65.65 60.9683 65.3928C62.1857 64.9436 62.4291 63.1997 61.7138 62.1416C60.9984 61.0834 59.6939 60.5514 58.4375 60.2115C57.1811 59.8716 55.8555 59.6204 54.7975 58.8874C53.7395 58.1544 53.0361 56.7002 53.6223 55.5593C54.2084 54.4184 55.6842 54.1317 56.9286 53.8302C58.173 53.5287 59.6338 52.8045 59.6759 51.5306C59.7029 50.508 58.702 49.6863 57.674 49.5149C56.6461 49.3434 55.6091 49.6508 54.6052 49.9287C53.6012 50.2065 52.5372 50.4636 51.5333 50.1976C50.1897 49.84 49.2609 48.6222 48.6868 47.3749C48.1127 46.1276 47.7851 44.768 47.0547 43.5976C46.3243 42.4271 45.0649 41.431 43.6792 41.5611C42.4769 41.6734 41.479 42.5956 40.2827 42.7611C39.0323 42.9355 37.797 42.2409 36.9523 41.3187C36.1077 40.3965 35.5577 39.2497 34.9054 38.1916C34.0909 36.8615 33.0689 35.6054 31.7043 34.8251C30.3397 34.0448 28.5813 33.8054 27.1716 34.5029C25.7619 35.2004 24.8842 36.9591 25.4704 38.4015C25.9152 39.4951 27.0063 40.1749 27.8569 40.9966C28.7075 41.8182 29.3598 43.1749 28.6655 44.1444C27.923 45.1966 26.33 44.9542 25.0285 44.9454C24.0229 44.8999 23.0309 45.1883 22.2121 45.7641C21.4276 46.37 20.9497 47.4163 21.2142 48.3651C21.4547 49.2222 22.2151 49.8282 22.9605 50.3336C23.706 50.839 24.4935 51.3326 24.9113 52.107C25.0225 52.3143 25.0904 52.5415 25.1108 52.7751C25.1312 53.0087 25.1037 53.2439 25.03 53.4669C24.9563 53.6898 24.8378 53.896 24.6816 54.0731C24.5255 54.2503 24.3347 54.3948 24.1208 54.4982C23.3363 54.8735 22.5608 55.6804 21.9205 56.2272C21.2262 56.8184 20.7182 57.6844 20.8385 58.5711C21.0098 59.8805 22.4766 60.714 23.8172 60.6962C25.1577 60.6785 26.4021 60.0371 27.6014 59.443C28.8007 58.8489 30.0902 58.2608 31.4278 58.379C34.3013 58.6184 35.9364 61.7603 38.5183 63.0135C39.5646 63.4992 40.7336 63.6696 41.8782 63.5034C43.0228 63.3372 44.0918 62.8418 44.9507 62.0795C46.0808 61.048 46.7361 59.6174 47.7039 58.4381C48.6718 57.2588 50.2167 56.2834 51.6986 56.7238C52.955 57.0992 53.7275 58.4204 53.8327 59.7061L53.8297 59.7445Z" fill="#52DED6"/>
<path d="M34.9781 4.84533C35.0487 3.67482 35.4774 2.55262 36.2079 1.62589C36.9385 0.699164 37.9368 0.0111834 39.0719 -0.347824L39.9286 -0.616793C40.6409 -0.83847 41.4315 -1.06015 42.1168 -0.803001C43.3341 -0.353736 43.5776 1.39012 42.8622 2.44826C42.1468 3.5064 40.8423 4.03842 39.5859 4.37833C38.3295 4.71823 37.004 4.96947 35.946 5.70248C34.8879 6.43549 34.1846 7.88969 34.7707 9.03059C35.3568 10.1715 36.8327 10.4582 38.077 10.7597C39.3214 11.0612 40.7822 11.7853 40.8243 13.0592C40.8514 14.0819 39.8504 14.9036 38.8225 15.075C37.7945 15.2464 36.7575 14.939 35.7536 14.6612C34.7497 14.3834 33.6856 14.1262 32.6817 14.3922C31.3381 14.7499 30.4094 15.9676 29.8353 17.2149C29.2612 18.4622 28.9335 19.8218 28.2031 20.9923C27.4727 22.1627 26.2133 23.1588 24.8277 23.0288C23.6254 22.9164 22.6274 21.9943 21.4312 21.8287C20.1808 21.6544 18.9454 22.3489 18.1008 23.2711C17.2562 24.1933 16.7061 25.3401 16.0539 26.3982C15.2393 27.7283 14.2173 28.9845 12.8527 29.7648C11.4881 30.5451 9.72975 30.7845 8.32004 30.087C6.91035 29.3894 6.03266 27.6308 6.61879 26.1884C7.06364 25.0948 8.15473 24.415 9.00536 23.5933C9.85599 22.7716 10.5082 21.4149 9.81391 20.4455C9.07149 19.3933 7.47843 19.6356 6.17694 19.6445C5.17133 19.6899 4.17938 19.4016 3.36054 18.8258C2.57604 18.2198 2.09813 17.1735 2.36263 16.2248C2.60309 15.3676 3.36355 14.7617 4.10898 14.2563C4.85441 13.7508 5.64192 13.2572 6.05972 12.4828C6.17098 12.2755 6.23882 12.0483 6.2592 11.8147C6.27959 11.5812 6.25212 11.3459 6.17841 11.123C6.1047 10.9 5.98625 10.6939 5.83008 10.5167C5.67391 10.3396 5.48319 10.1951 5.2692 10.0917C4.4847 9.71631 3.70921 8.90941 3.06898 8.36261C2.37465 7.77147 1.86668 6.90545 1.98691 6.01874C2.15824 4.70937 3.62505 3.87586 4.96562 3.8936C6.30619 3.91133 7.55057 4.55272 8.74987 5.14681C9.94917 5.7409 11.2386 6.32909 12.5762 6.21086C15.4497 5.97145 17.0848 2.82955 19.6668 1.57633C20.7131 1.09069 21.8821 0.920236 23.0266 1.08643C24.1712 1.25263 25.2402 1.74805 26.0991 2.51033C27.2293 3.54187 27.8845 4.97242 28.8524 6.15175C29.8202 7.33107 31.3652 8.30645 32.847 7.86605C34.1034 7.49067 34.8759 6.16948 34.9811 4.88375L34.9781 4.84533Z" fill="#52DED6"/>
<path d="M20.2664 35.9179C20.3094 35.1821 20.5703 34.4767 21.015 33.8942C21.4597 33.3117 22.0673 32.8793 22.7583 32.6536L23.2797 32.4845C23.7133 32.3452 24.1945 32.2059 24.6117 32.3675C25.3527 32.6499 25.5009 33.746 25.0654 34.4111C24.63 35.0763 23.8359 35.4107 23.0712 35.6243C22.3064 35.838 21.4995 35.9959 20.8555 36.4567C20.2115 36.9174 19.7834 37.8315 20.1402 38.5486C20.4969 39.2657 21.3953 39.446 22.1527 39.6355C22.9102 39.825 23.7993 40.2801 23.8249 41.0809C23.8414 41.7237 23.2322 42.2402 22.6064 42.3479C21.9807 42.4557 21.3495 42.2625 20.7384 42.0878C20.1273 41.9132 19.4797 41.7516 18.8686 41.9188C18.0508 42.1436 17.4854 42.909 17.136 43.693C16.7865 44.477 16.5871 45.3317 16.1425 46.0674C15.6979 46.8031 14.9313 47.4292 14.0879 47.3474C13.356 47.2768 12.7486 46.6972 12.0204 46.5932C11.2593 46.4835 10.5074 46.9201 9.99324 47.4998C9.47913 48.0794 9.14431 48.8003 8.74729 49.4654C8.25147 50.3015 7.62941 51.091 6.79878 51.5815C5.96814 52.072 4.89783 52.2225 4.03975 51.784C3.18167 51.3456 2.64743 50.2401 3.00421 49.3335C3.27498 48.6461 3.93912 48.2188 4.4569 47.7023C4.97467 47.1858 5.37169 46.3331 4.94906 45.7237C4.49715 45.0623 3.52747 45.2146 2.73525 45.2202C2.12314 45.2488 1.51935 45.0675 1.02093 44.7056C0.543403 44.3247 0.2525 43.667 0.413503 43.0706C0.559871 42.5319 1.02276 42.151 1.47649 41.8333C1.93023 41.5156 2.40959 41.2054 2.6639 40.7186C2.73163 40.5883 2.77292 40.4455 2.78533 40.2986C2.79774 40.1518 2.78101 40.004 2.73615 39.8638C2.69128 39.7237 2.61919 39.5941 2.52412 39.4827C2.42906 39.3714 2.31297 39.2806 2.18272 39.2156C1.70519 38.9796 1.23316 38.4724 0.843455 38.1287C0.420819 37.7572 0.11162 37.2128 0.184803 36.6554C0.28909 35.8324 1.18193 35.3085 1.99793 35.3196C2.81393 35.3308 3.57138 35.7339 4.30138 36.1074C5.03139 36.4808 5.81628 36.8505 6.63045 36.7762C8.37954 36.6257 9.37484 34.6508 10.9465 33.8631C11.5833 33.5578 12.2949 33.4507 12.9916 33.5551C13.6883 33.6596 14.339 33.971 14.8618 34.4502C15.5497 35.0986 15.9486 35.9978 16.5377 36.739C17.1268 37.4803 18.0672 38.0934 18.9692 37.8166C19.734 37.5807 20.2042 36.7502 20.2682 35.942L20.2664 35.9179Z" fill="#52DED6"/>
<path d="M56.9321 82.1864C56.8615 83.3569 56.4328 84.4791 55.7022 85.4058C54.9717 86.3326 53.9734 87.0206 52.8382 87.3796L51.9816 87.6485C51.2692 87.8702 50.4787 88.0919 49.7934 87.8347C48.5761 87.3855 48.3326 85.6416 49.048 84.5835C49.7633 83.5253 51.0678 82.9933 52.3242 82.6534C53.5806 82.3135 54.9062 82.0623 55.9642 81.3293C57.0222 80.5962 57.7256 79.142 57.1395 78.0011C56.5533 76.8603 55.0775 76.5735 53.8331 76.2721C52.5887 75.9706 51.1279 75.2464 51.0859 73.9725C51.0588 72.9499 52.0597 72.1282 53.0877 71.9568C54.1157 71.7853 55.1526 72.0927 56.1566 72.3706C57.1605 72.6484 58.2245 72.9055 59.2285 72.6395C60.572 72.2819 61.5008 71.0641 62.0749 69.8168C62.649 68.5695 62.9766 67.2099 63.707 66.0395C64.4374 64.869 65.6968 63.8729 67.0825 64.003C68.2848 64.1153 69.2827 65.0375 70.479 65.203C71.7294 65.3774 72.9648 64.6828 73.8094 63.7606C74.654 62.8384 75.204 61.6916 75.8563 60.6335C76.6709 59.3034 77.6928 58.0473 79.0574 57.267C80.422 56.4867 82.1804 56.2472 83.5901 56.9448C84.9998 57.6423 85.8775 59.401 85.2914 60.8433C84.8465 61.937 83.7554 62.6168 82.9048 63.4384C82.0542 64.2601 81.4019 65.6168 82.0963 66.5863C82.8387 67.6385 84.4317 67.3961 85.7332 67.3873C86.7388 67.3418 87.7308 67.6302 88.5496 68.206C89.3341 68.8119 89.812 69.8582 89.5475 70.807C89.3071 71.6641 88.5466 72.2701 87.8012 72.7755C87.0558 73.2809 86.2682 73.7745 85.8504 74.5489C85.7392 74.7562 85.6713 74.9834 85.651 75.217C85.6306 75.4506 85.658 75.6858 85.7317 75.9088C85.8055 76.1317 85.9239 76.3379 86.0801 76.515C86.2362 76.6922 86.427 76.8367 86.641 76.9401C87.4255 77.3154 88.2009 78.1223 88.8412 78.6691C89.5355 79.2603 90.0435 80.1263 89.9232 81.013C89.7519 82.3224 88.2851 83.1559 86.9445 83.1381C85.604 83.1204 84.3596 82.479 83.1603 81.8849C81.961 81.2908 80.6715 80.7027 79.334 80.8209C76.4605 81.0603 74.8253 84.2022 72.2434 85.4554C71.1971 85.9411 70.0281 86.1115 68.8835 85.9453C67.739 85.7791 66.6699 85.2837 65.8111 84.5214C64.6809 83.4899 64.0256 82.0593 63.0578 80.88C62.0899 79.7007 60.545 78.7253 59.0631 79.1657C57.8067 79.5411 57.0343 80.8623 56.929 82.148L56.9321 82.1864Z" fill="#52DED6"/>
<path d="M46.1586 3.04992C46.088 1.87941 45.6594 0.757209 44.9288 -0.169519C44.1983 -1.09625 43.1999 -1.78423 42.0648 -2.14323L41.2081 -2.4122C40.4958 -2.63388 39.7053 -2.85556 39.0199 -2.59841C37.8026 -2.14915 37.5591 -0.405287 38.2745 0.652851C38.9899 1.71099 40.2944 2.24301 41.5508 2.58292C42.8072 2.92282 44.1327 3.17406 45.1908 3.90707C46.2488 4.64008 46.9521 6.09428 46.366 7.23518C45.7799 8.37608 44.3041 8.66278 43.0597 8.96426C41.8153 9.26574 40.3545 9.98989 40.3124 11.2638C40.2854 12.2865 41.2863 13.1081 42.3143 13.2796C43.3422 13.451 44.3792 13.1436 45.3831 12.8658C46.3871 12.5879 47.4511 12.3308 48.455 12.5968C49.7986 12.9544 50.7274 14.1722 51.3015 15.4195C51.8756 16.6668 52.2032 18.0264 52.9336 19.1969C53.664 20.3673 54.9234 21.3634 56.3091 21.2333C57.5114 21.121 58.5093 20.1989 59.7056 20.0333C60.956 19.8589 62.1913 20.5535 63.0359 21.4757C63.8806 22.3979 64.4306 23.5447 65.0829 24.6028C65.8974 25.9329 66.9194 27.1891 68.284 27.9694C69.6486 28.7497 71.407 28.9891 72.8167 28.2915C74.2264 27.594 75.1041 25.8354 74.5179 24.393C74.0731 23.2994 72.982 22.6196 72.1314 21.7979C71.2807 20.9762 70.6285 19.6195 71.3228 18.6501C72.0652 17.5978 73.6583 17.8402 74.9598 17.8491C75.9654 17.8945 76.9573 17.6062 77.7762 17.0303C78.5607 16.4244 79.0386 15.3781 78.7741 14.4293C78.5336 13.5722 77.7732 12.9663 77.0277 12.4608C76.2823 11.9554 75.4948 11.4618 75.077 10.6874C74.9657 10.4801 74.8979 10.2529 74.8775 10.0193C74.8571 9.78574 74.8846 9.55051 74.9583 9.32756C75.032 9.1046 75.1505 8.89845 75.3066 8.72131C75.4628 8.54417 75.6535 8.39964 75.8675 8.29628C76.652 7.9209 77.4275 7.114 78.0677 6.5672C78.7621 5.97606 79.27 5.11004 79.1498 4.22333C78.9785 2.91396 77.5117 2.08045 76.1711 2.09819C74.8305 2.11592 73.5862 2.75731 72.3869 3.3514C71.1876 3.94549 69.8981 4.53368 68.5605 4.41545C65.687 4.17604 64.0519 1.03414 61.4699 -0.219077C60.4237 -0.704723 59.2547 -0.875174 58.1101 -0.708977C56.9655 -0.54278 55.8965 -0.0473624 55.0376 0.714922C53.9075 1.74646 53.2522 3.17701 52.2843 4.35633C51.3165 5.53566 49.7715 6.51104 48.2897 6.07064C47.0333 5.69526 46.2608 4.37407 46.1556 3.08834L46.1586 3.04992Z" fill="#52DED6"/>
<path d="M64.3097 -6.00481C63.4634 -5.83043 62.5992 -5.55684 61.9674 -4.96155C61.3356 -4.36626 60.9959 -3.38012 61.3714 -2.59242C61.8929 -1.49203 63.4575 -1.28158 64.0922 -0.250345C64.9534 1.12664 63.7048 2.8644 63.7018 4.49393C63.7026 5.0527 63.8555 5.60053 64.1437 6.07767C64.4319 6.55481 64.8445 6.94294 65.3364 7.19976C65.8283 7.45657 66.3806 7.5722 66.9332 7.53403C67.4857 7.49587 68.0173 7.30537 68.4699 6.98332C69.5129 6.2347 69.9987 4.87877 71.0089 4.09407C72.4215 2.98466 74.4956 3.23721 76.0959 4.04296C77.6962 4.8487 79.0283 6.11444 80.566 7.02542C82.1037 7.93639 84.0735 8.46854 85.6768 7.6628C86.985 7.01038 87.745 5.65144 88.5436 4.44884C89.3423 3.24623 90.4538 2.02258 91.8962 1.93539C93.6842 1.82415 95.5289 3.47773 97.0785 2.57879C98.1037 1.97748 98.2944 0.42913 97.6328 -0.560012C96.9712 -1.54915 95.7017 -1.98811 94.5216 -1.90994C93.3415 -1.83177 92.2359 -1.30863 91.2078 -0.728378C90.8472 -0.485161 90.4418 -0.317489 90.0158 -0.23531C89.8025 -0.199526 89.5835 -0.233289 89.3906 -0.331695C89.1976 -0.4301 89.0408 -0.588019 88.9429 -0.782496C88.7343 -1.32968 89.2052 -1.89791 89.2558 -2.48117C89.3453 -3.50639 88.0966 -4.18587 87.0893 -4.0145C86.0821 -3.84312 85.2655 -3.15764 84.3715 -2.68562C83.6206 -2.29477 82.6222 -2.0302 81.8266 -2.4451C81.1054 -2.8179 80.9325 -3.72286 80.259 -4.16182C79.2458 -4.82926 78.0061 -4.30613 76.8737 -4.46247C74.7876 -4.74207 72.7433 -5.68612 70.6156 -6.02886C68.5293 -6.40389 66.3931 -6.39574 64.3097 -6.00481Z" fill="#112E2E"/>
<path d="M36.8157 34.1017C35.9956 33.8295 35.1104 33.6343 34.2656 33.834C33.4208 34.0336 32.6335 34.7178 32.5649 35.5877C32.4663 36.8014 33.716 37.7659 33.7501 38.9764C33.8075 40.5995 31.8572 41.4801 31.0399 42.8899C30.7612 43.3742 30.6196 43.925 30.6307 44.4824C30.6417 45.0397 30.805 45.5821 31.1025 46.0505C31.4001 46.5188 31.8206 46.8951 32.3183 47.1384C32.8159 47.3816 33.3715 47.4824 33.9245 47.4298C35.2021 47.303 36.3007 46.3716 37.568 46.1971C39.346 45.9426 41.0159 47.1984 41.9989 48.6963C42.982 50.1943 43.5027 51.9565 44.3789 53.5143C45.2551 55.0721 46.695 56.5178 48.4863 56.6217C49.9455 56.7108 51.2831 55.9139 52.576 55.2717C53.869 54.6295 55.4435 54.1256 56.7362 54.7713C58.3403 55.569 59.111 57.9233 60.9025 57.9196C62.091 57.9115 63.0303 56.6659 62.9519 55.4785C62.8736 54.2911 61.9936 53.2762 60.9325 52.7538C59.8715 52.2315 58.6524 52.1317 57.4719 52.1202C57.038 52.1505 56.6031 52.0931 56.193 51.9512C55.9905 51.8756 55.8177 51.7368 55.6998 51.5551C55.5819 51.3734 55.5251 51.1583 55.5375 50.9409C55.6305 50.3627 56.3224 50.106 56.6579 49.6263C57.2479 48.7831 56.5063 47.5703 55.5483 47.2151C54.5903 46.8599 53.5404 47.0453 52.5301 47.007C51.6844 46.97 50.6875 46.7 50.2059 45.9429C49.7677 45.2594 50.0705 44.3893 49.7067 43.6724C49.163 42.5877 47.8278 42.4209 46.9252 41.7193C45.2585 40.4342 43.9601 38.5944 42.2887 37.2337C40.6695 35.8658 38.8154 34.8048 36.8157 34.1017Z" fill="#112E2E"/>
<path d="M8.60236 63.1539C10.3884 63.0099 12.1834 63.3623 13.9754 63.2734C15.7674 63.1845 17.6947 62.5073 18.5757 60.9138C18.9005 60.3246 19.0555 59.654 19.0231 58.979C18.9907 58.304 18.7721 57.6521 18.3925 57.098C18.0128 56.544 17.4875 56.1104 16.8768 55.847C16.2662 55.5836 15.5951 55.5012 14.9406 55.6091C13.7168 55.8114 12.6765 56.6541 11.4708 56.9391C9.52844 57.3988 7.58007 56.363 5.82715 55.3885C4.07422 54.414 2.07775 53.4364 0.165468 54.0095C-1.63857 54.5488 -2.82624 56.317 -4.55511 57.0433C-7.17397 58.1435 -10.0514 56.5959 -12.7966 55.8788C-14.333 55.4774 -15.9927 55.3456 -17.4871 55.8788C-18.9814 56.412 -20.2713 57.7451 -20.4517 59.3539C-20.6321 60.9628 -19.4414 62.6973 -17.8569 62.78C-16.7474 62.8382 -15.7522 62.1671 -14.784 61.6063C-13.6745 60.975 -12.4568 60.4694 -11.1759 60.4694C-9.89507 60.4694 -8.58112 61.0608 -7.95873 62.1886C-7.44157 63.1232 -7.31529 64.4655 -6.32607 64.8363C-5.67361 65.0815 -4.955 64.7474 -4.38372 64.346C-3.81244 63.9445 -3.2562 63.4542 -2.57968 63.3408C-1.90317 63.2274 -1.05827 63.7269 -1.13344 64.4318C-1.20563 64.7404 -1.33974 65.0305 -1.52733 65.2837C-1.88637 65.9043 -2.02402 66.6324 -1.91699 67.3445C-1.80997 68.0567 -1.46483 68.7094 -0.939987 69.192C-0.415142 69.6747 0.257189 69.9577 0.96324 69.9933C1.66929 70.0288 2.36571 69.8147 2.93467 69.3871C4.43804 68.2654 3.68334 66.8251 4.31175 65.4308C4.98526 63.9261 7.1471 63.2887 8.60236 63.1539Z" fill="#2AB79D"/>
<path d="M50.7899 72.3515C52.5759 72.4955 54.3709 72.1431 56.1629 72.232C57.9549 72.3208 59.8822 72.9981 60.7632 74.5916C61.088 75.1808 61.243 75.8514 61.2106 76.5264C61.1782 77.2013 60.9596 77.8533 60.58 78.4073C60.2003 78.9614 59.675 79.395 59.0643 79.6584C58.4537 79.9217 57.7826 80.0042 57.1281 79.8962C55.9043 79.694 54.864 78.8513 53.6583 78.5663C51.7159 78.1066 49.7676 79.1424 48.0146 80.1169C46.2617 81.0914 44.2653 82.069 42.353 81.4959C40.5489 80.9566 39.3613 79.1883 37.6324 78.4621C35.0135 77.3619 32.1361 78.9095 29.3909 79.6266C27.8545 80.028 26.1948 80.1598 24.7004 79.6266C23.2061 79.0933 21.9162 77.7603 21.7358 76.1514C21.5554 74.5426 22.7461 72.8081 24.3306 72.7254C25.4401 72.6671 26.4353 73.3382 27.4035 73.899C28.513 74.5303 29.7307 75.036 31.0116 75.036C32.2924 75.036 33.6064 74.4445 34.2288 73.3168C34.7459 72.3821 34.8722 71.0399 35.8614 70.6691C36.5139 70.4239 37.2325 70.758 37.8038 71.1594C38.3751 71.5608 38.9313 72.0512 39.6078 72.1645C40.2843 72.2779 41.1292 71.7784 41.0541 71.0736C40.9819 70.765 40.8478 70.4749 40.6602 70.2217C40.3011 69.601 40.1635 68.873 40.2705 68.1608C40.3775 67.4486 40.7227 66.796 41.2475 66.3134C41.7724 65.8307 42.4447 65.5476 43.1507 65.5121C43.8568 65.4766 44.5532 65.6907 45.1222 66.1183C46.6255 67.2399 45.8708 68.6802 46.4993 70.0746C47.1728 71.5792 49.3346 72.2166 50.7899 72.3515Z" fill="#2AB79D"/>
<path d="M56.382 42.5074C54.596 42.3634 52.801 42.7158 51.009 42.6269C49.217 42.5381 47.2897 41.8608 46.4087 40.2673C46.0839 39.6781 45.9288 39.0075 45.9612 38.3325C45.9937 37.6575 46.2123 37.0056 46.5919 36.4516C46.9716 35.8975 47.4969 35.4639 48.1075 35.2005C48.7181 34.9372 49.3893 34.8547 50.0438 34.9626C51.2676 35.1649 52.3079 36.0076 53.5136 36.2926C55.4559 36.7523 57.4043 35.7165 59.1572 34.742C60.9102 33.7675 62.9066 32.7899 64.8189 33.363C66.6229 33.9023 67.8106 35.6705 69.5395 36.3968C72.1583 37.497 75.0358 35.9494 77.7809 35.2323C79.3174 34.8309 80.9771 34.6991 82.4714 35.2323C83.9658 35.7655 85.2557 37.0986 85.4361 38.7074C85.6165 40.3163 84.4258 42.0508 82.8413 42.1335C81.7318 42.1918 80.7366 41.5206 79.7684 40.9598C78.6589 40.3286 77.4412 39.8229 76.1603 39.8229C74.8794 39.8229 73.5655 40.4144 72.9431 41.5421C72.4259 42.4768 72.2997 43.819 71.3104 44.1898C70.658 44.435 69.9394 44.1009 69.3681 43.6995C68.7968 43.298 68.2406 42.8077 67.5641 42.6943C66.8875 42.581 66.0426 43.0805 66.1178 43.7853C66.19 44.0939 66.3241 44.384 66.5117 44.6372C66.8707 45.2579 67.0084 45.9859 66.9014 46.6981C66.7943 47.4102 66.4492 48.0629 65.9244 48.5455C65.3995 49.0282 64.7272 49.3112 64.0211 49.3468C63.3151 49.3823 62.6187 49.1682 62.0497 48.7406C60.5463 47.619 61.301 46.1787 60.6726 44.7843C59.9991 43.2797 57.8373 42.6422 56.382 42.5074Z" fill="#52DED6"/>
<path d="M-12.7391 19.168C-14.5251 19.024 -16.3201 19.3764 -18.1121 19.2876C-19.9041 19.1987 -21.8314 18.5214 -22.7124 16.9279C-23.0372 16.3387 -23.1923 15.6681 -23.1598 14.9932C-23.1274 14.3182 -22.9088 13.6662 -22.5292 13.1122C-22.1495 12.5582 -21.6242 12.1246 -21.0136 11.8612C-20.4029 11.5978 -19.7318 11.5153 -19.0773 11.6233C-17.8535 11.8255 -16.8132 12.6683 -15.6075 12.9533C-13.6652 13.4129 -11.7168 12.3772 -9.96387 11.4026C-8.21094 10.4281 -6.21447 9.45057 -4.30219 10.0236C-2.49815 10.563 -1.31048 12.3312 0.418389 13.0575C3.03725 14.1576 5.9147 12.6101 8.65984 11.893C10.1963 11.4915 11.856 11.3597 13.3503 11.893C14.8447 12.4262 16.1346 13.7592 16.315 15.3681C16.4954 16.9769 15.3047 18.7114 13.7202 18.7942C12.6107 18.8524 11.6155 18.1813 10.6473 17.6205C9.53781 16.9892 8.32008 16.4836 7.03922 16.4836C5.75835 16.4836 4.44441 17.075 3.82201 18.2027C3.30485 19.1374 3.17857 20.4797 2.18936 20.8505C1.53689 21.0956 0.818285 20.7616 0.247005 20.3601C-0.324275 19.9587 -0.88052 19.4684 -1.55703 19.355C-2.23355 19.2416 -3.07844 19.7411 -3.00328 20.4459C-2.93109 20.7546 -2.79697 21.0446 -2.60939 21.2979C-2.25035 21.9185 -2.1127 22.6465 -2.21972 23.3587C-2.32675 24.0709 -2.67188 24.7235 -3.19673 25.2062C-3.72158 25.6888 -4.39391 25.9719 -5.09996 26.0074C-5.80601 26.043 -6.50243 25.8288 -7.07139 25.4012C-8.57475 24.2796 -7.82006 22.8393 -8.44847 21.445C-9.12198 19.9403 -11.2838 19.3029 -12.7391 19.168Z" fill="#52DED6"/>
<path d="M30.3469 22.0824C28.5609 22.2265 26.7658 21.8741 24.9738 21.9629C23.1818 22.0518 21.2545 22.729 20.3735 24.3226C20.0488 24.9117 19.8937 25.5824 19.9261 26.2573C19.9585 26.9323 20.1771 27.5843 20.5568 28.1383C20.9364 28.6923 21.4618 29.1259 22.0724 29.3893C22.683 29.6527 23.3541 29.7351 24.0087 29.6272C25.2324 29.4249 26.2727 28.5822 27.4784 28.2972C29.4208 27.8375 31.3691 28.8733 33.1221 29.8478C34.875 30.8223 36.8715 31.7999 38.7838 31.2269C40.5878 30.6875 41.7755 28.9193 43.5043 28.193C46.1232 27.0929 49.0006 28.6404 51.7458 29.3575C53.2822 29.759 54.9419 29.8907 56.4363 29.3575C57.9306 28.8243 59.2205 27.4913 59.4009 25.8824C59.5813 24.2735 58.3907 22.539 56.8061 22.4563C55.6966 22.3981 54.7014 23.0692 53.7332 23.63C52.6238 24.2613 51.406 24.7669 50.1252 24.7669C48.8443 24.7669 47.5303 24.1755 46.9079 23.0478C46.3908 22.1131 46.2645 20.7708 45.2753 20.4C44.6228 20.1549 43.9042 20.4889 43.3329 20.8904C42.7617 21.2918 42.2054 21.7821 41.5289 21.8955C40.8524 22.0089 40.0075 21.5094 40.0827 20.8045C40.1549 20.4959 40.289 20.2058 40.4765 19.9526C40.8356 19.332 40.9732 18.604 40.8662 17.8918C40.7592 17.1796 40.4141 16.527 39.8892 16.0443C39.3644 15.5617 38.692 15.2786 37.986 15.2431C37.2799 15.2075 36.5835 15.4217 36.0146 15.8493C34.5112 16.9709 35.2659 18.4112 34.6375 19.8055C33.964 21.3102 31.8021 21.9476 30.3469 22.0824Z" fill="#2AB79D"/>
<path d="M6.9275 74.6905C7.60454 75.0396 8.31644 75.3768 9.07484 75.3827C9.83324 75.3887 10.6439 74.9739 10.8764 74.2339C11.1379 73.4073 10.612 72.539 10.025 71.9093C9.43806 71.2797 8.73487 70.6859 8.51985 69.8444C8.27867 68.8925 8.72906 67.9227 9.02835 66.9887C9.32764 66.0547 9.409 64.8611 8.65932 64.2494C7.62198 63.4049 5.98024 64.4016 4.80341 63.7809C3.62659 63.1602 3.69342 61.3937 3.44353 60.0359C3.23633 58.994 2.74323 58.0347 2.02242 57.2712C1.30161 56.5077 0.383182 55.9719 -0.624497 55.727C-2.03087 55.4047 -3.80627 55.918 -4.23051 57.3324C-4.52108 58.344 -4.02711 59.454 -3.27743 60.1762C-2.52775 60.8983 -1.56305 61.331 -0.66227 61.8293C0.45353 62.441 1.53446 63.196 2.26962 64.2524C3.00477 65.3087 3.35055 66.7231 2.90888 67.9436C2.23765 69.8056 -0.91507 69.5848 1.42404 71.2946C3.17117 72.5696 5.01107 73.7049 6.9275 74.6905Z" fill="#2AB79D"/>
<path d="M6.9275 11.4433C7.60454 11.0942 8.31644 10.757 9.07484 10.751C9.83324 10.7451 10.6439 11.1599 10.8764 11.8999C11.1379 12.7265 10.612 13.5948 10.025 14.2244C9.43806 14.8541 8.73487 15.4479 8.51985 16.2894C8.27867 17.2413 8.72906 18.2111 9.02835 19.1451C9.32764 20.0791 9.409 21.2727 8.65932 21.8844C7.62198 22.7289 5.98024 21.7322 4.80341 22.3529C3.62659 22.9736 3.69342 24.7401 3.44353 26.0979C3.23633 27.1398 2.74323 28.0991 2.02242 28.8626C1.30161 29.626 0.383182 30.1619 -0.624497 30.4068C-2.03087 30.7291 -3.80627 30.2158 -4.23051 28.8014C-4.52108 27.7898 -4.02711 26.6797 -3.27743 25.9576C-2.52775 25.2355 -1.56305 24.8028 -0.66227 24.3045C0.45353 23.6927 1.53446 22.9378 2.26962 21.8814C3.00477 20.8251 3.35055 19.4107 2.90888 18.1902C2.23765 16.3282 -0.91507 16.549 1.42404 14.8391C3.17117 13.5642 5.01107 12.4289 6.9275 11.4433Z" fill="#2AB79D"/>
<path d="M68.8264 69.3047C68.1494 69.6538 67.4375 69.991 66.6791 69.997C65.9207 70.003 65.11 69.5882 64.8775 68.8482C64.616 68.0216 65.1419 67.1532 65.7289 66.5236C66.3158 65.894 67.019 65.3002 67.2341 64.4587C67.4752 63.5068 67.0248 62.537 66.7256 61.603C66.4263 60.669 66.3449 59.4753 67.0946 58.8636C68.1319 58.0191 69.7737 59.0158 70.9505 58.3951C72.1273 57.7745 72.0605 56.0079 72.3104 54.6502C72.5176 53.6083 73.0107 52.649 73.7315 51.8855C74.4523 51.122 75.3707 50.5862 76.3784 50.3413C77.7848 50.019 79.5602 50.5322 79.9844 51.9467C80.275 52.9582 79.781 54.0683 79.0313 54.7904C78.2817 55.5126 77.317 55.9453 76.4162 56.4436C75.3004 57.0553 74.2194 57.8103 73.4843 58.8666C72.7491 59.923 72.4034 61.3374 72.845 62.5578C73.5163 64.4199 76.669 64.1991 74.3299 65.9089C72.5827 67.1839 70.7428 68.3191 68.8264 69.3047Z" fill="#2AB79D"/>
<path d="M64.3342 11.4433C63.6572 11.0942 62.9453 10.757 62.1869 10.751C61.4285 10.7451 60.6178 11.1599 60.3853 11.8999C60.1238 12.7265 60.6497 13.5948 61.2367 14.2244C61.8237 14.8541 62.5268 15.4479 62.7419 16.2894C62.983 17.2413 62.5327 18.2111 62.2334 19.1451C61.9341 20.0791 61.8527 21.2727 62.6024 21.8844C63.6397 22.7289 65.2815 21.7322 66.4583 22.3529C67.6351 22.9736 67.5683 24.7401 67.8182 26.0979C68.0254 27.1398 68.5185 28.0991 69.2393 28.8626C69.9601 29.626 70.8785 30.1619 71.8862 30.4068C73.2926 30.7291 75.068 30.2158 75.4922 28.8014C75.7828 27.7898 75.2888 26.6797 74.5391 25.9576C73.7895 25.2355 72.8248 24.8028 71.924 24.3045C70.8082 23.6927 69.7273 22.9378 68.9921 21.8814C68.257 20.8251 67.9112 19.4107 68.3528 18.1902C69.0241 16.3282 72.1768 16.549 69.8377 14.8391C68.0905 13.5642 66.2507 12.4289 64.3342 11.4433Z" fill="#2AB79D"/>
<path d="M14.5418 67.9371C14.5982 68.7371 15.6025 68.7938 16.2235 68.97C17.6616 69.3819 21.0162 72.1523 22.1929 70.2118C22.49 69.7372 22.4395 69.1252 22.6802 68.6237C23.2388 67.4505 24.8611 67.4624 26.1566 67.4296C27.4521 67.3967 28.807 67.1042 29.8202 66.2802C30.5028 65.7242 30.9517 64.93 31.0771 64.0562C31.0886 63.9704 31.118 63.888 31.1633 63.8144C31.2743 63.6179 31.4145 63.4397 31.5792 63.286C32.3964 62.5665 33.3888 62.0919 34.2534 61.4321C35.1181 60.7724 35.9263 59.9007 36.0659 58.817C36.2056 57.7334 35.4212 56.4975 34.3337 56.5034C33.6384 56.5034 33.0441 56.9751 32.4677 57.3662C31.8912 57.7573 31.1662 58.1035 30.5215 57.8379C29.7519 57.5214 29.5201 56.5243 28.8724 56.0019C27.9156 55.2317 26.4508 55.781 25.5772 56.6437C25.1234 57.0541 24.8026 57.5917 24.6561 58.1871C24.5882 58.4852 24.6066 58.7965 24.7093 59.0843C24.812 59.3721 24.9946 59.6243 25.2355 59.8111C26.0942 60.3903 27.4788 59.8111 28.1593 60.6082C28.2191 60.6808 28.2623 60.7657 28.2858 60.8569C28.3093 60.9481 28.3125 61.0434 28.2952 61.136C28.2779 61.2286 28.2405 61.3163 28.1857 61.3927C28.1309 61.4692 28.06 61.5326 27.978 61.5784C27.8931 61.6247 27.8125 61.6787 27.7373 61.7396C27.1431 62.2173 26.9173 63.0054 26.4983 63.6383C25.6485 64.9189 24.0856 65.4832 22.6356 65.9698C21.0727 66.4892 19.4504 67.0176 17.8161 66.8265C16.9842 66.7429 14.4289 66.2981 14.5418 67.9371Z" fill="#112E2E"/>
<path d="M19.9246 1.14156C19.981 0.341506 20.9853 0.284786 21.6063 0.108654C23.0445 -0.303314 26.3991 -3.07365 27.5757 -1.13322C27.8728 -0.658564 27.8223 -0.0465817 28.063 0.454945C28.6216 1.62816 30.2439 1.61622 31.5394 1.64906C32.8349 1.68189 34.1898 1.97445 35.203 2.79839C35.8857 3.3544 36.3345 4.14858 36.4599 5.02242C36.4715 5.1082 36.5008 5.19058 36.5461 5.26423C36.6571 5.46067 36.7974 5.63886 36.9621 5.79262C37.7792 6.51208 38.7716 6.98673 39.6362 7.64648C40.5009 8.30623 41.3091 9.17793 41.4487 10.2616C41.5884 11.3452 40.804 12.5811 39.7165 12.5752C39.0212 12.5752 38.4269 12.1035 37.8505 11.7124C37.274 11.3214 36.5491 10.9751 35.9043 11.2408C35.1347 11.5572 34.9029 12.5543 34.2552 13.0767C33.2984 13.8469 31.8336 13.2976 30.96 12.4349C30.5062 12.0246 30.1854 11.4869 30.0389 10.8915C29.971 10.5935 29.9894 10.2821 30.0921 9.99431C30.1948 9.70651 30.3774 9.45428 30.6183 9.26749C31.477 8.68834 32.8617 9.26749 33.5421 8.47042C33.6019 8.39786 33.6451 8.31295 33.6686 8.22172C33.6921 8.1305 33.6953 8.0352 33.678 7.9426C33.6607 7.84999 33.6233 7.76234 33.5685 7.68589C33.5137 7.60943 33.4428 7.54603 33.3608 7.5002C33.2759 7.4539 33.1954 7.39994 33.1202 7.339C32.5259 6.86135 32.3001 6.07324 31.8811 5.44036C31.0313 4.15968 29.4684 3.59546 28.0184 3.10886C26.4555 2.58942 24.8332 2.06103 23.199 2.25208C22.367 2.33567 19.8117 2.78048 19.9246 1.14156Z" fill="#112E2E"/>
<path d="M64.802 79.6065C64.7455 80.4065 63.7412 80.4633 63.1202 80.6394C61.6821 81.0514 58.3275 83.8217 57.1509 81.8813C56.8537 81.4066 56.9042 80.7946 56.6636 80.2931C56.105 79.1199 54.4826 79.1318 53.1871 79.099C51.8916 79.0662 50.5367 78.7736 49.5235 77.9497C48.8409 77.3937 48.3921 76.5995 48.2667 75.7256C48.2551 75.6398 48.2257 75.5575 48.1805 75.4838C48.0695 75.2874 47.9292 75.1092 47.7645 74.9554C46.9474 74.236 45.955 73.7613 45.0903 73.1016C44.2257 72.4418 43.4175 71.5701 43.2778 70.4865C43.1382 69.4028 43.9226 68.1669 45.0101 68.1729C45.7054 68.1729 46.2996 68.6445 46.8761 69.0356C47.4525 69.4267 48.1775 69.773 48.8223 69.5073C49.5919 69.1908 49.8236 68.1938 50.4714 67.6713C51.4281 66.9011 52.893 67.4504 53.7665 68.3132C54.2203 68.7235 54.5412 69.2611 54.6876 69.8566C54.7556 70.1546 54.7371 70.4659 54.6344 70.7537C54.5318 71.0415 54.3492 71.2938 54.1082 71.4806C53.2495 72.0597 51.8649 71.4806 51.1845 72.2776C51.1247 72.3502 51.0815 72.4351 51.058 72.5263C51.0345 72.6175 51.0313 72.7128 51.0486 72.8055C51.0659 72.8981 51.1033 72.9857 51.1581 73.0622C51.2129 73.1386 51.2838 73.202 51.3657 73.2478C51.4506 73.2941 51.5312 73.3481 51.6064 73.409C52.2007 73.8867 52.4265 74.6748 52.8454 75.3077C53.6952 76.5884 55.2581 77.1526 56.7081 77.6392C58.271 78.1586 59.8934 78.687 61.5276 78.496C62.3596 78.4124 64.9149 77.9676 64.802 79.6065Z" fill="#112E2E"/>
<path d="M64.802 7.42476C64.7455 6.62471 63.7412 6.56799 63.1202 6.39186C61.6821 5.97989 58.3275 3.20955 57.1509 5.14998C56.8537 5.62464 56.9042 6.23662 56.6636 6.73815C56.105 7.91136 54.4826 7.89942 53.1871 7.93226C51.8916 7.9651 50.5367 8.25766 49.5235 9.08159C48.8409 9.6376 48.3921 10.4318 48.2667 11.3056C48.2551 11.3914 48.2257 11.4738 48.1805 11.5474C48.0695 11.7439 47.9292 11.9221 47.7645 12.0758C46.9474 12.7953 45.955 13.2699 45.0903 13.9297C44.2257 14.5894 43.4175 15.4611 43.2778 16.5448C43.1382 17.6284 43.9226 18.8644 45.0101 18.8584C45.7054 18.8584 46.2996 18.3867 46.8761 17.9956C47.4525 17.6046 48.1775 17.2583 48.8223 17.524C49.5919 17.8404 49.8236 18.8375 50.4714 19.3599C51.4281 20.1301 52.893 19.5808 53.7665 18.7181C54.2203 18.3078 54.5412 17.7701 54.6876 17.1747C54.7556 16.8767 54.7371 16.5653 54.6344 16.2775C54.5318 15.9897 54.3492 15.7375 54.1082 15.5507C53.2495 14.9715 51.8649 15.5507 51.1845 14.7536C51.1247 14.6811 51.0815 14.5961 51.058 14.5049C51.0345 14.4137 51.0313 14.3184 51.0486 14.2258C51.0659 14.1332 51.1033 14.0455 51.1581 13.9691C51.2129 13.8926 51.2838 13.8292 51.3657 13.7834C51.4506 13.7371 51.5312 13.6831 51.6064 13.6222C52.2007 13.1446 52.4265 12.3564 52.8454 11.7236C53.6952 10.4429 55.2581 9.87866 56.7081 9.39206C58.271 8.87262 59.8934 8.34423 61.5276 8.53529C62.3596 8.61888 64.9149 9.06368 64.802 7.42476Z" fill="#112E2E"/>
</g>
</g>
<path fill-rule="evenodd" clip-rule="evenodd" d="M61.4703 36.6672C61.4703 22.8921 50.3009 11.721 36.5203 11.7183C22.7398 11.7155 11.5703 22.8821 11.5703 36.6572C11.5703 50.4323 22.7398 61.6034 36.5203 61.6061C50.3009 61.6089 61.4703 50.4423 61.4703 36.6672ZM36.5203 0.618282C56.4291 0.622262 72.5703 16.7619 72.5703 36.6694C72.5703 56.577 56.4291 72.7101 36.5203 72.7061C16.6115 72.7021 0.470312 56.5625 0.470312 36.655C0.470313 16.7474 16.6115 0.614302 36.5203 0.618282Z" fill="black"/>
</svg>
