<svg width="73" height="73" viewBox="0 0 73 73" fill="none" xmlns="http://www.w3.org/2000/svg">
<path d="M36.3744 66.5337C18.4287 66.5337 3.87789 52.3181 3.87432 34.7822C3.87144 20.656 13.3096 8.68437 26.3611 4.56294C29.5114 3.56815 32.8724 28.2806 36.3618 28.2806C39.8511 28.2806 43.2118 3.56815 46.3625 4.56294C59.4158 8.68437 68.8588 20.656 68.8616 34.7822C68.8652 52.3181 54.3202 66.5337 36.3744 66.5337Z" fill="#454545"/>
<path fill-rule="evenodd" clip-rule="evenodd" d="M48.6084 6.82159C48.6084 6.82116 48.603 6.82769 48.5926 6.84244C48.6033 6.8294 48.6085 6.82202 48.6084 6.82159ZM47.9198 8.26521C47.8752 8.3789 47.8288 8.49991 47.7808 8.62851C47.0368 10.6223 46.2589 13.4378 45.409 16.5194L45.399 16.5556C44.5819 19.5185 43.6985 22.7216 42.7839 25.1839C42.3316 26.4017 41.798 27.646 41.1588 28.6433C40.8402 29.1405 40.3966 29.7344 39.7939 30.2365C39.1839 30.7446 38.1854 31.3387 36.86 31.3387C35.5345 31.3387 34.5357 30.7445 33.9254 30.2361C33.3224 29.7338 32.8787 29.1397 32.56 28.6424C31.9207 27.645 31.387 26.4006 30.9347 25.1827C30.0201 22.7202 29.1366 19.5168 28.3194 16.5539L28.3095 16.5182C27.4596 13.4365 26.6817 10.621 25.9377 8.62729C25.89 8.49932 25.8438 8.37888 25.7994 8.26568C15.3087 12.5104 7.9881 22.5916 7.99048 34.2841C7.99364 49.7709 20.8592 62.4411 36.8712 62.4411C52.8832 62.4411 65.7436 49.7709 65.7405 34.2841C65.7381 22.5912 58.4128 12.5097 47.9198 8.26521ZM25.1103 6.82075C25.1103 6.82119 25.1155 6.82856 25.1262 6.84161C25.1158 6.82685 25.1104 6.82032 25.1103 6.82075ZM36.859 20.5032C37.4068 18.7589 37.9654 16.742 38.5455 14.6387L38.5997 14.4421C39.401 11.5363 40.2502 8.4568 41.1091 6.1553C41.5357 5.01208 42.0607 3.78989 42.7188 2.83507C43.0416 2.36669 43.5609 1.71592 44.333 1.22442C45.2079 0.667431 46.4956 0.281426 47.9164 0.730175C62.3447 5.28721 72.8552 18.5517 72.8584 34.2841C72.8624 53.8158 56.6863 69.5337 36.8727 69.5337C17.0591 69.5337 0.876486 53.8158 0.872505 34.2841C0.869298 18.5517 11.3745 5.28722 25.8009 0.730177C27.2215 0.281432 28.5095 0.667377 29.3849 1.22474C30.1572 1.71647 30.6767 2.36752 30.9996 2.83598C31.6577 3.79098 32.1827 5.0133 32.6093 6.15652C33.4682 8.45796 34.3173 11.5373 35.1187 14.443L35.173 14.6399C35.7529 16.7428 36.3114 18.7592 36.859 20.5032ZM38.6292 24.9279C38.6313 24.9306 38.6324 24.9318 38.6324 24.9318C38.6324 24.9318 38.6313 24.9304 38.6292 24.9279ZM35.0885 24.9278C35.0868 24.93 35.0859 24.9311 35.0859 24.9311C35.0859 24.9311 35.0868 24.9301 35.0885 24.9278Z" fill="black"/>
<path d="M37.37 69.5337C22.7373 69.5337 10.873 58.9866 10.8704 45.9761C10.8683 35.4954 18.5641 26.6132 29.2062 23.5554C31.7749 22.8173 34.5151 41.1524 37.3603 41.1524C40.2054 41.1524 42.9461 22.8173 45.5151 23.5554C56.1584 26.6132 63.8579 35.4954 63.86 45.9761C63.8627 58.9866 52.0027 69.5337 37.37 69.5337Z" fill="#82592D"/>
<path fill-rule="evenodd" clip-rule="evenodd" d="M32.3709 41.9806C32.8025 42.5814 34.1038 44.2576 36.3624 44.2576C38.6206 44.2576 39.9213 42.5821 40.3528 41.9814C40.9506 41.1491 41.4307 40.1397 41.8178 39.2098C42.5976 37.3365 43.3437 34.9227 44.0139 32.7545L44.033 32.6928C44.6887 30.5718 45.2729 28.6883 45.8231 27.2996C54.2132 30.4767 59.6905 37.6147 59.6921 45.4837C59.6942 56.0288 49.7245 65.3741 36.3708 65.3742C23.017 65.3742 13.0435 56.0288 13.0413 45.4837C13.0397 37.6151 18.5136 30.4774 26.9016 27.3001C27.4515 28.6885 28.0354 30.5713 28.6907 32.6914L28.7097 32.7527C29.3798 34.9209 30.1259 37.3351 30.9058 39.2086C31.2928 40.1384 31.7729 41.1481 32.3709 41.9806ZM31.9044 21.5021C31.473 20.9435 29.7717 18.9494 27.1059 19.7008C15.0803 23.0902 5.87015 33.1231 5.87266 45.4837C5.8758 60.8631 20.0023 72.5337 36.3722 72.5337C52.7421 72.5337 66.8639 60.8631 66.8608 45.4837C66.8582 33.1231 57.644 23.0902 45.617 19.7008C42.9514 18.9495 41.2508 20.943 40.8196 21.5012C40.1919 22.3138 39.7132 23.3223 39.3483 24.1947C38.6139 25.9506 37.8951 28.2762 37.2381 30.4021L37.1833 30.5795C36.9007 31.4938 36.6277 32.3743 36.3616 33.1985C36.0957 32.3747 35.8229 31.4947 35.5404 30.5809L35.4855 30.4031C34.8286 28.2774 34.11 25.9519 33.3757 24.196C33.0109 23.3236 32.5322 22.315 31.9044 21.5021ZM38.2649 37.8931C38.265 37.8894 38.242 37.8574 38.1956 37.8082C38.2415 37.8722 38.2648 37.8968 38.2649 37.8931ZM34.5276 37.8074C34.4811 37.8566 34.4581 37.8886 34.4582 37.8923C34.4583 37.896 34.4816 37.8714 34.5276 37.8074Z" fill="black"/>
</svg>
