<svg width="149" height="149" viewBox="0 0 149 149" fill="none" xmlns="http://www.w3.org/2000/svg">
<path d="M140.829 78.299C143.044 41.6389 115.121 10.1222 78.4613 7.90435C41.8014 5.68653 10.2869 33.6075 8.07161 70.2676C5.85636 106.928 33.7793 138.444 70.4392 140.662C107.099 142.88 138.614 114.959 140.829 78.299Z" fill="black"/>
<path fill-rule="evenodd" clip-rule="evenodd" d="M13.0803 74.6474C13.0803 108.333 40.3857 135.637 74.0605 135.64C107.735 135.643 135.041 108.344 135.041 74.6576C135.041 40.9715 107.735 13.6679 74.0605 13.665C40.3857 13.6622 13.0803 40.9613 13.0803 74.6474ZM74.0605 146.652C34.2924 146.649 2.06055 114.407 2.06054 74.6465C2.06054 34.8857 34.2924 2.64917 74.0605 2.65249C113.829 2.65581 146.061 34.8977 146.061 74.6585C146.061 114.419 113.829 146.656 74.0605 146.652Z" fill="black"/>
</svg>
