<svg width="78" height="77" viewBox="0 0 78 77" fill="none" xmlns="http://www.w3.org/2000/svg">
<path d="M66.7448 40.0989C66.7448 46.008 67.0478 51.311 61.9468 55.1494C60.0781 56.5636 57.3508 61.3111 55.5326 62.8262C50.8356 66.7151 44.5225 67.6242 37.9568 67.6242C32.0477 67.6242 29.3204 64.4424 24.8255 61.2101C22.2497 59.3414 18.8153 57.9777 16.9972 55.3009C15.28 52.6747 15.7345 49.6444 14.9769 46.513C14.4719 44.4423 12.9567 41.6645 12.7547 39.4928C12.0982 33.3817 13.9163 31.311 15.583 27.3211C19.7244 17.4221 21.8457 20.7049 24.876 18.3817C26.9972 16.7655 27.4012 15.6544 29.9265 14.6948C32.9063 13.5332 36.2901 12.119 39.573 12.9271C45.9871 14.5433 49.371 12.9776 53.3104 15.1493C57.0478 17.22 57.8053 23.1291 62.1488 24.9473C65.4316 26.311 67.7044 32.7251 66.6438 34.3413C65.5831 35.9575 66.7448 38.2807 66.7448 40.0989Z" fill="#C098A4"/>
<path d="M25.7798 23.6849C27.4464 24.897 29.8707 24.998 31.7394 25.9071C33.8101 26.9677 33.6081 29.998 35.0727 31.6142C36.4364 33.1294 38.9111 33.9879 40.9313 33.3314C43.7091 32.4223 44.5677 30.4021 46.2849 28.2304C48.3051 25.6546 50.8303 26.6142 53.6081 26.7657C56.0829 26.9172 58.5071 25.301 60.3253 23.7354C57.497 21.3111 56.4364 16.8667 53.3051 15.099C49.3657 12.8768 45.9313 14.4424 39.5677 12.8768C36.2848 12.0687 32.9515 13.5333 29.9212 14.695C27.3959 15.6546 26.9919 16.7152 24.8707 18.3818C24.1131 18.9879 23.3555 19.2404 22.6484 19.3919C23.2545 21.1091 24.3151 22.6243 25.7798 23.6849Z" fill="#9A718E"/>
<path d="M34.6192 57.4221C35.1242 56.1594 36.1848 55.8059 37.1949 55.0988C41.2354 52.4221 39.4677 47.2705 35.2252 46.1089C33.4071 45.6039 31.3868 45.8564 29.5182 45.9069C26.3868 46.0079 25.6798 43.4826 23.9626 41.4119C22.2959 39.4422 19.8717 38.5331 17.4474 37.8261C15.8818 37.3715 14.7706 36.6644 13.508 35.6038C13.4575 35.5533 13.1545 35.3008 12.7504 34.9473C12.5989 36.2099 12.5484 37.624 12.7504 39.4422C13.003 41.6645 14.4676 44.3917 14.9727 46.4625C15.7302 49.6443 15.2757 52.6241 17.0434 55.2504C18.8616 57.9271 22.2959 59.2908 24.8717 61.1595C27.7 63.1797 29.8212 65.1999 32.4475 66.412C33.4576 65.0989 34.1141 63.5837 34.1141 61.8665C34.1141 60.4019 34.0131 58.8867 34.6192 57.4221Z" fill="#9A718E"/>
<path d="M42.8571 55.8061C42.9076 55.8061 42.9076 55.8061 42.8571 55.8061C42.8571 55.8566 42.8571 55.9071 42.8065 55.9071C42.15 56.3111 41.6954 56.8162 41.3924 57.4222C40.9884 57.6748 40.5843 57.9273 40.2308 58.3313C38.1096 60.5031 38.4631 64.1899 41.3419 65.4526C43.7156 66.5132 47.3015 66.4122 49.3722 64.695C51.5945 62.8768 50.4833 59.5435 49.4732 57.3717C48.3116 54.998 44.9783 53.5839 42.8571 55.8061Z" fill="#9A718E"/>
<path d="M27.4518 28.2305C27.1488 27.5739 26.7953 26.9174 26.1892 26.4123C25.0781 25.5032 22.6033 25.3517 21.3407 26.0588C19.4215 27.1194 19.9266 29.8467 20.6841 31.4123C20.5326 31.0588 20.7346 32.3214 20.7346 32.4224C20.8356 32.877 20.9872 33.3315 21.1387 33.7861C21.4417 34.6952 22.0983 35.4528 22.9569 35.9073C23.6639 36.2608 24.4215 36.4124 25.1791 36.5639C25.6841 36.6649 26.3407 37.2709 26.8963 37.473C28.6639 38.18 30.5831 37.6245 31.3912 35.8063C32.6034 33.1295 30.3306 29.3416 27.4518 28.2305Z" fill="#9A718E"/>
<path d="M64.6233 27.9777C64.2698 28.9373 63.9163 29.8969 63.1587 30.6544C61.6435 32.3211 59.3203 32.9777 57.3506 34.0383C54.0677 35.7555 48.7142 36.4625 48.0071 41.0585C47.7546 42.7252 48.6637 43.7858 49.9263 44.7454C50.4314 45.1494 50.9364 45.8565 51.492 46.109C52.6031 46.6141 54.3203 47.2706 54.4718 48.6343C54.7243 50.8565 54.1688 52.8767 54.7748 55.099C55.2799 57.0181 56.7445 57.6242 58.3607 58.2303C58.5122 58.4323 58.7142 58.5838 58.9162 58.7353C60.0274 57.2202 61.1385 55.7555 62.0476 55.099C67.1486 51.2606 66.8456 45.9575 66.8456 40.0484C66.8456 38.2302 65.6334 35.907 66.7445 34.2908C67.5021 33.1292 66.5425 29.4928 64.7243 27.0181C64.6233 27.3716 64.6233 27.6746 64.6233 27.9777Z" fill="#9A718E"/>
<path d="M66.6452 34.341C67.7058 32.7248 65.433 26.3107 62.1502 24.947C57.8067 23.1288 57.0492 17.2702 53.3623 15.149C50.938 13.8359 48.7663 13.8864 45.938 13.7349C49.9784 16.8662 56.5441 22.3713 56.6956 25.3006C56.8977 29.543 55.1805 30.1996 57.5542 34.8965C59.8775 39.5935 60.534 42.1188 58.8168 46.8158C57.0997 51.5127 51.3421 49.5935 49.0188 52.3713C46.6956 55.1491 47.5037 56.6138 40.938 57.6744C34.3218 58.7855 30.2814 56.8663 24.9279 54.5431C19.6248 52.2198 21.0895 51.3612 19.6248 47.3208C18.7662 44.9976 15.4329 43.8865 13.1602 41.3612C13.7157 43.0784 14.6248 44.9976 14.9783 46.5127C15.7359 49.6946 15.2814 52.6744 17.0491 55.3006C18.8672 57.9774 22.3016 59.3411 24.8774 61.2097C29.3218 64.4421 32.0491 67.6239 38.0087 67.6239C44.5744 67.6239 50.8875 66.7148 55.5845 62.8259C57.4027 61.3108 60.0795 56.5633 61.9987 55.1491C67.0997 51.3107 66.7967 46.0077 66.7967 40.0986C66.7462 38.2804 65.5845 35.9571 66.6452 34.341Z" fill="#9A718E" fill-opacity="0.5"/>
<path opacity="0.3" d="M18.9682 35.7555C21.0894 36.8161 24.7258 39.3919 25.3824 41.5131C26.0389 43.6343 28.5642 47.2707 32.2006 47.6747C35.8369 48.0788 38.1602 48.9373 40.5339 45.5535C42.8572 42.1191 46.6956 44.0383 49.0693 42.1191C51.3925 40.1999 50.9885 34.4424 50.3319 31.0585C49.6754 27.6242 50.3319 25.9575 48.2107 24.8969C46.0895 23.8363 45.4329 21.715 43.7158 19.5938C42.4531 17.9777 36.1905 14.9979 33.0592 13.5332C31.9986 13.8867 30.9379 14.2908 29.9278 14.6948C27.4026 15.6544 26.9985 16.715 24.8773 18.3817C21.847 20.7049 19.7763 17.4221 15.5844 27.3211C14.9783 28.6848 14.4227 29.8464 13.8672 31.0585C15.2308 33.5838 17.6046 35.0484 18.9682 35.7555Z" fill="white"/>
<path opacity="0.3" d="M26.8473 19.7959C28.1099 18.5333 30.4837 18.2807 33.4635 19.1393C36.4433 19.9979 37.0998 22.3211 37.7059 24.6949C38.3625 27.0181 37.5039 30.8565 35.3827 32.5737C33.2614 34.2909 28.7665 34.8969 26.2412 32.5737C23.6655 30.2505 21.9988 31.3111 22.8069 27.4727C23.6655 23.6343 25.5846 21.0585 26.8473 19.7959Z" fill="white"/>
<path fill-rule="evenodd" clip-rule="evenodd" d="M13.9187 39.0027C13.9187 52.7707 25.0745 63.9183 38.8164 63.921C52.5583 63.9238 63.7141 52.7806 63.7141 39.0127C63.7141 25.2447 52.5583 14.0971 38.8164 14.0943C25.0745 14.0916 13.9187 25.2348 13.9187 39.0027ZM38.8164 75.0077C18.9255 75.0037 2.81641 58.874 2.8164 39.0005C2.8164 19.1269 18.9255 3.00371 38.8164 3.00768C58.7073 3.01166 74.8164 19.1413 74.8164 39.0149C74.8164 58.8884 58.7074 75.0117 38.8164 75.0077Z" fill="black"/>
</svg>
