<svg width="78" height="78" viewBox="0 0 78 78" fill="none" xmlns="http://www.w3.org/2000/svg">
<path d="M2.49512 38.6894C2.49512 18.531 18.8367 2.18613 38.9951 2.1821C59.1535 2.17807 75.4951 18.5164 75.4951 38.6748C75.4951 58.8332 59.1535 75.1781 38.9951 75.1821C18.8367 75.1861 2.49512 58.8478 2.49512 38.6894Z" fill="url(#paint0_linear)"/>
<path d="M38.995 68.844C55.9459 68.844 69.6873 55.34 69.6873 38.682C69.6873 22.024 55.9459 8.52002 38.995 8.52002C22.0441 8.52002 8.30273 22.024 8.30273 38.682C8.30273 55.34 22.0441 68.844 38.995 68.844Z" fill="#F08300"/>
<path d="M38.995 60.3743C50.9754 60.3743 60.6873 50.6624 60.6873 38.682C60.6873 26.7017 50.9754 16.9897 38.995 16.9897C27.0147 16.9897 17.3027 26.7017 17.3027 38.682C17.3027 50.6624 27.0147 60.3743 38.995 60.3743Z" fill="#FFFBD6"/>
<path d="M35.9085 26.6068C35.7201 25.4295 35.673 24.1579 35.4376 22.9806C34.9195 20.5788 32.7061 21.3323 31.0107 21.9916C28.9857 22.7922 23.2873 26.1359 24.8885 29.0086C25.6891 30.4685 27.5257 31.3633 28.9386 32.211C30.7281 33.2942 32.5648 34.2361 34.2602 35.4605C34.7312 35.8373 35.155 36.2611 35.673 36.5908C38.8284 38.71 36.8033 31.3633 36.5678 30.2802C36.3324 29.1028 36.0969 27.8313 35.9085 26.6068Z" fill="#F18B2D"/>
<path d="M35.4851 37.7213C35.5793 37.3917 35.3909 37.0149 34.6845 36.5911C33.1304 35.6021 31.4821 34.6131 29.928 33.6241C28.4681 32.7293 26.914 31.9287 25.4541 31.034C24.7476 30.6101 23.5703 29.6211 22.7226 30.0921C21.1685 30.9869 20.933 34.6131 20.7917 36.1672C20.6504 37.7213 20.2737 41.9127 22.7226 41.8185C22.7697 41.8185 22.7697 41.8185 22.7697 41.8185C23.5703 41.536 24.3709 41.2534 25.1715 40.9708C26.8669 40.4057 28.6094 39.9348 30.3519 39.4638C31.1996 39.2754 35.1084 38.8045 35.4851 37.7213Z" fill="#F18B2D"/>
<path d="M36.7102 39.181C36.5689 39.134 36.3334 38.9927 36.098 39.0869C32.142 40.0758 28.0448 41.0177 24.1831 42.3835C23.5238 42.6189 22.8645 42.8544 22.2052 43.0428C22.0639 43.2782 21.8755 43.4666 21.7342 43.7021C21.4046 44.2672 21.64 45.0678 21.8284 45.633C22.111 46.3865 22.4406 47.0458 22.8645 47.7051C23.4296 48.5528 23.9476 49.4947 24.5599 50.2953C25.3605 51.3785 26.7262 53.2151 28.2332 53.1209C30.0699 52.9797 30.9176 50.2011 31.7182 48.9296C32.8485 47.14 33.8845 45.3033 35.0619 43.5608C35.5799 42.8544 38.3585 39.7462 36.7102 39.181Z" fill="#F18B2D"/>
<path d="M41.8428 55.4286C41.8428 55.3344 41.8428 55.2873 41.8898 55.2402C41.8428 55.146 41.8428 55.0989 41.7957 55.0048C41.7486 54.9106 41.7957 54.8635 41.8428 54.8164C40.7596 50.2011 39.7235 45.5859 38.7345 40.9236C38.6874 40.8765 38.6403 40.8765 38.5932 40.7823C38.4049 40.3114 38.0281 40.4055 37.6985 40.6881C35.8618 43.5609 34.1193 46.5278 32.2826 49.4005C31.6704 50.3424 31.0582 51.3314 30.4459 52.3204C30.4459 52.3675 30.4459 52.4146 30.3989 52.4617C30.3518 52.5559 30.2576 52.65 30.2105 52.6971C29.975 53.5919 29.7395 54.5809 30.7756 55.1931C31.2936 55.4757 31.8117 55.7112 32.3768 55.8995C33.3187 56.2292 34.2606 56.5589 35.2496 56.7472C37.2746 57.1711 39.5822 57.4537 41.5602 56.6531C41.8428 56.3234 41.984 55.9466 41.8428 55.4286Z" fill="#F18B2D"/>
<path d="M55.3117 34.0951C56.0181 33.6713 56.2536 32.9177 56.2065 32.1642C55.2646 29.7624 53.8988 27.6432 52.1093 25.8065C50.979 24.8175 49.6604 24.1582 47.8708 24.3466C47.8237 24.3466 47.8237 24.3937 47.7766 24.3937C45.469 28.3967 42.973 32.3055 40.4299 36.2143C39.7706 37.2975 41.1834 37.2033 41.8427 37.062C45.7986 36.2143 49.7546 35.3667 53.6634 34.566C54.1814 34.4719 54.6995 34.3306 55.2175 34.2364C55.2175 34.1422 55.2646 34.0951 55.3117 34.0951Z" fill="#F18B2D"/>
<path d="M46.7406 24.2993C47.0232 23.2162 46.7877 22.1801 45.2807 21.3795C43.3027 20.626 41.1835 20.2021 38.97 20.2021C38.5933 20.2021 38.2636 20.2021 37.934 20.2492C36.427 20.3434 36.0502 22.133 36.1444 23.3104C36.3328 25.4296 36.8508 27.5488 37.1805 29.6681C37.5572 31.6931 37.934 33.7182 38.3578 35.7432C38.7346 37.7212 40.6654 34.5188 40.9951 34.0008C42.3608 31.7402 43.7737 29.5268 45.1394 27.3134C45.7516 26.3715 46.5051 25.2883 46.7406 24.2993Z" fill="#F18B2D"/>
<path d="M56.0652 45.8211C56.4891 44.785 56.8187 43.7489 57.0542 42.6186C57.478 39.9814 57.3839 36.9673 56.6303 35.4132C56.3007 35.0836 55.8297 34.8481 55.2175 34.801C55.1704 34.801 55.1233 34.801 55.1233 34.7539C54.6995 34.8481 54.2756 34.9423 53.8518 35.0365C49.8959 35.8842 45.94 36.6848 42.0311 37.5325C41.9369 37.5325 41.8428 37.5796 41.7486 37.5796C41.7015 37.5796 41.7015 37.6267 41.6544 37.6267C41.5602 37.6267 41.466 37.6737 41.3718 37.6737C40.9951 37.7208 40.1474 38.0505 40.0532 38.4744C39.9119 39.1337 40.948 39.5104 41.3718 39.793C44.8097 41.7239 48.2005 43.7489 51.4971 45.9152C52.2035 46.3862 52.9099 46.81 53.6163 47.281C54.6053 47.6106 55.453 46.9513 56.0652 45.8211Z" fill="#F18B2D"/>
<path d="M43.6325 56.1349C44.9511 56.2291 46.2697 55.6639 47.4942 54.9575C47.6355 54.8633 47.7768 54.7691 47.918 54.6749C47.9651 54.6279 48.0122 54.6279 48.0122 54.6279C48.5774 54.2982 49.0954 53.9214 49.6134 53.5447C51.1675 52.4615 52.4391 51.0016 53.7106 49.5888C53.7106 49.0236 53.4752 48.4585 52.91 47.9405C52.8629 47.8934 52.8629 47.8934 52.8629 47.8463C52.0152 47.3282 51.1675 46.7631 50.3199 46.198C47.1645 44.0787 43.8679 42.2892 40.5713 40.4054C40.4301 40.3112 40.2417 40.217 40.1004 40.1228C39.5824 39.9815 39.394 40.7351 39.4882 41.206C39.4882 41.2531 39.4882 41.3002 39.4882 41.3002C40.4772 45.9625 41.5603 50.6248 42.6435 55.2872C42.879 55.7581 43.2086 56.0407 43.6325 56.1349C43.5854 56.1349 43.5854 56.1349 43.6325 56.1349Z" fill="#F18B2D"/>
<path fill-rule="evenodd" clip-rule="evenodd" d="M64.2387 38.6844C64.2387 52.6435 52.9279 63.946 38.9951 63.9488C25.0623 63.9516 13.7516 52.6536 13.7516 38.6945C13.7516 24.7353 25.0623 13.4328 38.9951 13.4301C52.9279 13.4273 64.2387 24.7252 64.2387 38.6844ZM38.9951 75.1894C59.1623 75.1854 75.4951 58.8317 75.4951 38.6821C75.4951 18.5325 59.1623 2.18539 38.9951 2.18942C18.8279 2.19345 2.49511 18.5471 2.49511 38.6967C2.49511 58.8463 18.8279 75.1935 38.9951 75.1894Z" fill="black"/>
<defs>
<linearGradient id="paint0_linear" x1="71.1917" y1="24.7129" x2="11.1553" y2="54.067" gradientUnits="userSpaceOnUse">
<stop stop-color="#F2D254"/>
<stop offset="0.526042" stop-color="#C2368C"/>
<stop offset="1" stop-color="#693E8E"/>
</linearGradient>
</defs>
</svg>
