<svg width="77" height="77" viewBox="0 0 77 77" fill="none" xmlns="http://www.w3.org/2000/svg">
<path d="M6.99999 38.9876C6.99999 56.1084 20.8792 69.9904 38 69.9938C55.1208 69.9972 69 56.1208 69 39C69 21.8792 55.1208 7.99723 38 7.99381C20.8792 7.99038 7 21.8668 6.99999 38.9876Z" fill="#ED937F"/>
<path d="M57.0413 62.4933C57.1808 62.3306 57.2505 62.1215 57.297 61.9355C57.5758 61.9355 57.8547 61.8658 58.0871 61.7031C58.4125 61.494 58.6216 61.1454 58.6913 60.7968C59.5047 60.9595 60.3879 60.7271 60.9921 60.0764C61.5266 59.5186 61.7358 58.7982 61.666 58.101C61.759 57.9151 61.8287 57.7291 61.852 57.5432C61.9914 57.4967 62.1076 57.427 62.2238 57.3341C62.9442 57.2876 63.6414 56.9157 64.083 56.265C64.571 55.5678 64.6407 54.708 64.3619 53.9643C64.5478 53.8713 64.7105 53.7319 64.8267 53.546C65.0591 53.2206 65.1288 52.8488 65.0823 52.5002C65.8957 52.384 66.6394 51.8495 67.0112 51.0361C67.3366 50.2924 67.2668 49.5022 66.9183 48.8283C66.9183 48.6888 66.9183 48.5494 66.895 48.41C67.0809 48.2705 67.2436 48.0846 67.3366 47.8522C67.3366 47.829 67.3598 47.8057 67.3598 47.8057C67.9873 47.5036 68.4986 46.9226 68.6845 46.1789C68.8936 45.3423 68.6612 44.4824 68.1035 43.8782C68.1035 43.8549 68.1035 43.8317 68.1035 43.8085C68.2197 43.669 68.2894 43.5064 68.3359 43.3437C68.4056 43.2275 68.4521 43.1345 68.4753 42.9951C68.5683 42.6232 68.4986 42.2282 68.3359 41.926C69.0563 41.5077 69.5676 40.7641 69.5908 39.8577C69.6141 39.207 69.3817 38.5795 68.9866 38.1147C69.3817 37.6499 69.5908 37.0224 69.5443 36.3717C69.5211 36.1858 69.4979 36.0231 69.4514 35.8604C69.4746 35.6978 69.4746 35.5118 69.4514 35.3259C69.3584 34.4428 68.8239 33.7224 68.0802 33.3505C68.1732 33.0949 68.1964 32.7928 68.1267 32.4907C67.9873 32.0026 67.5922 31.6308 67.1274 31.4914C66.8253 31.3984 66.5232 31.4449 66.2908 31.5378C66.2675 31.4449 66.2443 31.3519 66.2211 31.259C66.2443 31.259 66.2675 31.259 66.2675 31.259C67.0345 31.0963 67.5225 30.3526 67.383 29.6089C67.3133 29.2603 67.1274 28.9815 66.8718 28.7723C66.9415 28.5399 66.9647 28.2843 66.895 28.0054V27.9821C67.2204 27.3314 67.2668 26.5413 66.9415 25.8441C66.8253 25.5884 66.6626 25.356 66.4767 25.1469C66.4302 24.868 66.3605 24.6124 66.2211 24.3567C65.826 23.613 65.1055 23.125 64.3386 23.0321C64.2921 22.9856 64.2689 22.9159 64.2224 22.8694C64.1992 22.7067 64.1527 22.544 64.083 22.4046C63.9436 22.1489 63.7576 21.9398 63.502 21.8003C63.7576 21.0334 63.6414 20.1503 63.1069 19.4764C62.6189 18.8489 61.8752 18.5235 61.1083 18.5235C61.2013 17.7798 60.9688 17.0129 60.3879 16.4319C59.7139 15.7812 58.7611 15.5721 57.9244 15.8277C57.8547 15.6185 57.7385 15.4326 57.5758 15.2699C57.3667 15.0608 57.1343 14.9446 56.8786 14.8749C56.8089 14.7819 56.7392 14.6889 56.6462 14.596C56.5068 14.4566 56.3441 14.3636 56.1814 14.3171C56.1814 13.4805 55.7631 12.6671 55.0195 12.2023C54.9265 12.1326 54.8103 12.0861 54.7173 12.0396C54.6244 11.9699 54.5314 11.9002 54.4385 11.8304C53.6715 11.3657 52.742 11.3889 51.9983 11.784C51.9286 11.691 51.8356 11.6213 51.7194 11.5516C51.5335 11.4354 51.3011 11.3657 51.0919 11.3424C51.0454 11.2959 50.999 11.2727 50.9292 11.2495C50.4412 10.9706 49.837 11.0171 49.3954 11.3192C49.3025 10.9009 49.0468 10.529 48.6285 10.3431C48.4891 10.2734 48.3496 10.2269 48.2102 10.2269C48.094 10.1339 47.9778 10.041 47.8383 9.9945C47.6524 9.90154 47.4665 9.8783 47.2573 9.8783C46.932 9.73886 46.5834 9.73886 46.258 9.85506C46.0024 8.97195 45.282 8.25151 44.3291 8.06559C44.3059 8.06559 44.3059 8.06559 44.2826 8.06559C44.2594 8.06559 44.2594 8.06559 44.2362 8.04235C43.2601 7.85644 42.3073 8.29799 41.7495 9.06491C41.5636 8.87899 41.3079 8.71631 41.0058 8.66983C40.8199 8.62335 40.634 8.64659 40.4481 8.66983C40.0065 8.69307 39.5882 8.92547 39.3558 9.27407C39.1234 8.92547 38.7516 8.64659 38.31 8.62335C37.8684 8.57687 37.5199 8.69307 37.241 8.92547C37.0551 8.80927 36.8227 8.71631 36.567 8.71631C36.5438 8.71631 36.5438 8.71631 36.5205 8.71631C36.4276 8.69307 36.3346 8.66983 36.2417 8.66983C35.8698 8.66983 35.5212 8.78603 35.2656 9.01843C35.2423 9.01843 35.2191 9.01843 35.1959 9.01843C34.6381 8.27475 33.7085 7.87968 32.7324 8.06559C32.4536 8.11207 32.1979 8.22827 31.9655 8.36771C31.6867 8.34447 31.4078 8.36771 31.1289 8.43743C30.269 8.64659 29.6183 9.29731 29.3627 10.0875C28.9908 10.2734 28.7352 10.622 28.619 11.0171C28.2704 10.7614 27.8288 10.6685 27.3873 10.7847C27.1316 10.8544 26.9225 10.9938 26.7366 11.1797C26.6204 11.1797 26.5042 11.203 26.3647 11.2495C25.9697 11.3889 25.6443 11.6678 25.5049 12.0396C25.2725 11.9466 24.9703 11.9466 24.6682 12.0628C24.3196 12.2023 24.0407 12.4579 23.9013 12.7833C23.0879 12.272 22.0421 12.272 21.1822 12.8298C20.4153 13.3643 20.0203 14.2474 20.09 15.1073C20.0203 15.2467 19.9505 15.3861 19.9273 15.5488C19.6484 15.5488 19.3695 15.6185 19.1371 15.7812C18.9047 15.9439 18.7188 16.1531 18.6259 16.4087C17.766 16.1763 16.8132 16.3855 16.1392 17.0827C15.4652 17.7798 15.3026 18.7559 15.5814 19.5926C15.5582 19.6855 15.5582 19.7552 15.535 19.8482C14.6054 19.6623 13.6061 20.0341 13.0251 20.8707C12.4673 21.6609 12.4441 22.6835 12.8856 23.4736C12.7229 23.5666 12.5835 23.706 12.4673 23.8687C12.3046 24.1011 12.2117 24.38 12.2117 24.6356C11.3286 24.7053 10.4919 25.2398 10.1201 26.1229C9.77148 26.9363 9.88768 27.8195 10.3292 28.4934C10.306 28.6793 10.306 28.8885 10.3525 29.0744C10.3292 29.1209 10.3292 29.1441 10.306 29.1674C9.42289 29.3765 8.70245 30.0505 8.44681 30.9801C8.21441 31.9329 8.56301 32.909 9.26021 33.49C9.07429 33.6759 8.91161 33.8851 8.84189 34.1639C8.74893 34.4893 8.79541 34.8379 8.93485 35.1168C8.12145 35.5118 7.5637 36.302 7.51722 37.2548C7.49398 37.9056 7.72638 38.533 8.12145 38.9978C7.72638 39.4626 7.51722 40.0901 7.5637 40.7408C7.58694 40.9267 7.61018 41.0894 7.65666 41.2521C7.63342 41.4148 7.63342 41.6007 7.65666 41.7866C7.74962 42.7627 8.42357 43.5528 9.28345 43.8782C9.12077 44.2035 9.07429 44.5986 9.19049 44.9937C9.28345 45.2493 9.46937 45.4817 9.70176 45.6444C10.1666 45.9698 10.5616 45.993 10.9102 45.8768C10.9335 45.9698 10.9567 46.0395 10.98 46.1325C10.2595 46.3184 9.79472 47.0388 9.93416 47.7825C10.0039 48.1543 10.213 48.4564 10.4919 48.6424C10.4919 48.6656 10.4919 48.6888 10.4919 48.7121C9.93416 49.4093 9.79472 50.3853 10.1898 51.2685C10.306 51.5241 10.4687 51.7565 10.6546 51.9657C10.7011 52.2445 10.7708 52.5002 10.9102 52.7558C11.2821 53.4762 11.9793 53.941 12.7229 54.0805C12.7462 54.127 12.7462 54.1502 12.7694 54.1967C12.8856 54.4523 13.0715 54.6615 13.3039 54.8009C13.3272 54.8242 13.3272 54.8706 13.3504 54.8939C13.4201 55.0566 13.5363 55.196 13.6525 55.3122C13.3969 56.0791 13.5131 56.9622 14.0476 57.6594C14.5356 58.2869 15.2793 58.6122 16.0462 58.6122C15.9533 59.3559 16.1857 60.1228 16.7667 60.7038C17.4639 61.401 18.4864 61.5869 19.3463 61.2616C19.3695 61.5869 19.509 61.8891 19.7414 62.1215C19.9041 62.2841 20.09 62.4003 20.2991 62.4701C20.3689 62.6095 20.4618 62.7257 20.578 62.8419C20.6942 62.9581 20.8336 63.0278 20.9731 63.0975C21.066 63.818 21.4611 64.5152 22.1351 64.9335C22.228 65.0032 22.3442 65.0497 22.4372 65.0962C22.5302 65.1659 22.6231 65.2356 22.7161 65.3053C23.483 65.7701 24.4126 65.7469 25.1563 65.3518C25.2725 65.5377 25.4351 65.7236 25.6211 65.8398C25.7605 65.9328 25.8999 65.9793 26.0394 66.0258C26.1091 66.0955 26.202 66.1652 26.295 66.2117C26.783 66.4906 27.3873 66.4441 27.8288 66.142C27.9218 66.5603 28.1774 66.9321 28.5958 67.118C28.8514 67.2342 29.1303 67.2807 29.3859 67.2342C29.4556 67.2807 29.5021 67.304 29.5718 67.3272C29.6648 67.3737 29.7345 67.3969 29.8275 67.4201C29.8972 67.4666 29.9669 67.5131 30.0366 67.5363C30.3387 67.6758 30.6641 67.6758 30.9662 67.6061C31.2683 68.3497 31.9423 68.9307 32.8022 69.0934C32.8254 69.0934 32.8254 69.0934 32.8486 69.0934C32.8719 69.0934 32.8719 69.0934 32.8951 69.1167C33.9177 69.3026 34.917 68.8378 35.4515 68.0011C35.6374 68.3033 35.9163 68.5124 36.2417 68.6286C36.3346 68.6751 36.4508 68.7216 36.567 68.7216C37.1248 68.8145 37.6825 68.5821 37.9846 68.1173C38.217 68.4659 38.5889 68.7448 39.0304 68.7681C39.379 68.7913 39.6812 68.6983 39.96 68.5357C40.146 68.6519 40.3784 68.7216 40.6108 68.7448C40.8199 68.7448 41.0291 68.7216 41.1917 68.6286C41.4474 68.6286 41.703 68.5589 41.9122 68.4195C42.0284 68.4659 42.1678 68.5124 42.3073 68.5357C42.865 69.0005 43.6087 69.2096 44.3524 69.0702C44.6312 69.0237 44.8869 68.9075 45.1193 68.7681C45.3982 68.7913 45.677 68.7681 45.9559 68.6983C46.6996 68.5124 47.2806 68.0011 47.6059 67.3737H47.6292C48.1869 67.2575 48.6053 66.8391 48.7215 66.3046C49.0701 66.5603 49.5116 66.6532 49.9532 66.537C50.1623 66.4673 50.3482 66.3744 50.5109 66.2349C50.6271 66.2349 50.7666 66.2117 50.8828 66.1652C51.2778 66.0258 51.6032 65.7469 51.7426 65.375C52.0215 65.4448 52.3236 65.4448 52.6025 65.3286C52.9976 65.1659 53.2997 64.8638 53.4159 64.4687C54.1828 64.8405 55.1124 64.794 55.8793 64.2828C56.5998 63.8877 56.9716 63.2137 57.0413 62.4933Z" fill="#895046"/>
<path d="M14.4667 57.38C14.0484 56.8455 13.9322 56.1483 14.1646 55.4976L14.2575 55.1954L14.0251 54.9863C13.9786 54.9398 13.9554 54.9166 13.9089 54.8701C13.8624 54.8236 13.8392 54.7771 13.816 54.7074C13.816 54.6842 13.7927 54.6609 13.7927 54.6609L13.723 54.5215L13.5836 54.4285C13.4906 54.382 13.4209 54.2891 13.3512 54.2194C13.3047 54.1729 13.2814 54.1032 13.235 54.0334C13.235 54.0102 13.2117 53.987 13.2117 53.9637L13.1188 53.6848L12.8399 53.6384C12.3519 53.5454 11.8871 53.2898 11.5849 52.8947C11.5152 52.8017 11.4455 52.6855 11.3758 52.5693C11.2828 52.3602 11.2131 52.151 11.1666 51.9186L11.1434 51.7559L11.0272 51.6397C10.9807 51.5933 10.9342 51.5468 10.8877 51.4771C10.7948 51.3609 10.7018 51.2214 10.6553 51.082C10.3532 50.408 10.4462 49.6179 10.911 49.0369L11.0504 48.8742L10.9807 48.3862L10.818 48.27C10.7483 48.2235 10.6786 48.1538 10.6321 48.084C10.5391 47.9678 10.4927 47.8516 10.4462 47.7122C10.3532 47.2242 10.6553 46.7594 11.1201 46.6432L11.6082 46.527L11.399 45.7833L11.2828 45.2953L10.7948 45.4347C10.6089 45.4812 10.3532 45.5044 10.0046 45.272C9.93491 45.2255 9.86519 45.1558 9.79547 45.0861C9.74899 45.0164 9.70251 44.9467 9.67927 44.8769C9.56307 44.5516 9.65603 44.3192 9.72575 44.1565L9.98139 43.6685L9.44687 43.4826C9.09827 43.3431 8.77292 43.134 8.54052 42.8318C8.30812 42.5297 8.16868 42.1811 8.1222 41.8093C8.09896 41.6698 8.09896 41.5304 8.1222 41.391V41.298L8.09896 41.2051C8.05248 41.0656 8.02924 40.9262 8.02924 40.7867C7.98276 40.2755 8.14544 39.7874 8.4708 39.3923L8.72644 39.067L8.44756 38.7649C8.42432 38.7416 8.40108 38.7184 8.37784 38.6719C8.07572 38.3001 7.93628 37.8353 7.95952 37.3705C7.98276 36.6268 8.42432 35.9761 9.09827 35.6507L9.26095 35.581L9.33067 35.3951L9.40039 35.1859V34.9303C9.33067 34.7909 9.26095 34.5585 9.33067 34.3028C9.37715 34.1401 9.47011 33.9775 9.60955 33.8613L10.0279 33.4894L9.58631 33.1408C9.47011 33.0479 9.37715 32.9549 9.28419 32.8387C8.91235 32.3507 8.77292 31.7232 8.91235 31.119C9.09827 30.3985 9.65603 29.8408 10.3997 29.6549L10.6089 29.6084L10.8645 29.1668L10.818 28.9809C10.7948 28.8647 10.7715 28.7253 10.7948 28.6091L10.818 28.4231L10.7018 28.2605C10.33 27.6795 10.2603 26.9823 10.5391 26.3548C10.8413 25.6808 11.492 25.216 12.2124 25.1696L12.654 25.1463L12.6772 24.7048C12.6772 24.5189 12.7469 24.3562 12.8399 24.1935C12.9096 24.1005 13.0026 24.0076 13.1188 23.9379L13.5138 23.7055L13.2814 23.2871C12.9328 22.6132 12.9561 21.823 13.3976 21.1956C13.8392 20.5448 14.6294 20.2195 15.4195 20.3589L15.954 20.4519L15.9773 19.8941C15.9773 19.8476 16.0005 19.7779 16.0005 19.7314L16.0237 19.592L15.9773 19.4526C15.7449 18.7321 15.9075 17.9652 16.4188 17.4307C16.9301 16.8962 17.697 16.687 18.4174 16.8962L18.8358 17.0124L18.9984 16.6173C19.0682 16.4546 19.1844 16.3152 19.3238 16.199C19.4865 16.106 19.6492 16.0363 19.8351 16.0363H20.2302L20.3231 15.6412C20.3464 15.5483 20.3928 15.4321 20.4393 15.3624L20.5323 15.2229L20.509 15.0602C20.4393 14.3398 20.7879 13.6426 21.3921 13.2243C22.0429 12.7827 22.9027 12.7595 23.5767 13.1778L24.0415 13.4799L24.2739 12.9686C24.3668 12.7595 24.5528 12.5968 24.7619 12.5039C24.9478 12.4341 25.1338 12.4109 25.3197 12.4806L25.738 12.5968L25.9007 12.2017C26.0169 11.9461 26.2028 11.7602 26.4584 11.6905C26.5282 11.6672 26.6211 11.644 26.6908 11.644H26.9L27.0394 11.5045C27.1556 11.3883 27.2951 11.2954 27.4577 11.2489C27.7366 11.1792 28.0155 11.2257 28.2479 11.3883L28.8521 11.8299L29.0148 11.1095C29.0845 10.8538 29.2472 10.6214 29.5029 10.5052L29.6888 10.4123L29.7585 10.2263C29.9676 9.57563 30.5022 9.06435 31.1761 8.90168C31.3853 8.8552 31.6177 8.83196 31.8501 8.8552L32.0128 8.87844L32.1522 8.80872C32.3381 8.69252 32.5705 8.6228 32.7797 8.57632C33.5233 8.43688 34.267 8.71576 34.7318 9.31999L34.8713 9.50591L35.3825 9.55239L35.5452 9.41295C35.7311 9.25027 35.9403 9.18055 36.1727 9.18055C36.2424 9.18055 36.2889 9.18055 36.3586 9.20379L36.4051 9.22703H36.498H36.5213C36.6607 9.22703 36.8002 9.27351 36.9396 9.36647L37.2417 9.55239L37.5206 9.34323C37.7065 9.20379 37.9389 9.13407 38.1713 9.15731C38.427 9.18055 38.6361 9.29675 38.7988 9.50591C38.822 9.52915 38.8453 9.55239 38.8453 9.59887L39.2403 10.2263L39.6587 9.59887C39.8213 9.36647 40.1002 9.20379 40.3791 9.20379H40.4256H40.4721C40.5883 9.18055 40.7277 9.18055 40.8439 9.20379C41.0298 9.22703 41.1925 9.31999 41.3319 9.45943L41.7502 9.87775L42.0988 9.41295C42.5404 8.78548 43.3306 8.46012 44.0975 8.59956H44.144C44.1672 8.59956 44.1904 8.59956 44.2137 8.59956C44.6785 8.69252 45.12 8.94816 45.3989 9.31999C45.5616 9.52915 45.6778 9.76155 45.7475 10.0172L45.8869 10.5285L46.375 10.3658C46.5841 10.2961 46.8165 10.2961 47.0257 10.389L47.1187 10.4355H47.2116C47.351 10.4355 47.4673 10.4587 47.5835 10.5052C47.6764 10.5517 47.7461 10.5982 47.8158 10.6679L47.932 10.7609L48.0715 10.7841C48.1644 10.8073 48.2574 10.8306 48.3504 10.8771C48.4898 10.9468 48.5828 11.0165 48.6757 11.1327C48.7687 11.2489 48.8152 11.3651 48.8616 11.5045L49.0243 12.225L49.6286 11.8067C49.9307 11.5975 50.3025 11.5743 50.6279 11.7602C50.6743 11.7834 50.6976 11.8067 50.7208 11.8299L50.837 11.9229L50.9765 11.9461C51.1159 11.9693 51.2553 11.9926 51.3948 12.0855C51.4645 12.132 51.511 12.1785 51.5807 12.225L51.8363 12.5039L52.1617 12.3179C52.7892 11.9926 53.5096 11.9926 54.1138 12.3644C54.1836 12.4109 54.2533 12.4574 54.3462 12.5271L54.3927 12.5736L54.4624 12.5968C54.5554 12.6433 54.6484 12.6898 54.7181 12.7362C54.9272 12.8524 55.0899 13.0151 55.2294 13.201C55.5082 13.5496 55.6477 13.9912 55.6477 14.4328V14.7814L55.973 14.8976C56.0892 14.944 56.1822 15.0138 56.2751 15.0835C56.2984 15.1067 56.3449 15.1532 56.3681 15.1764C56.3913 15.1997 56.4146 15.2229 56.4146 15.2462L56.5308 15.4088L56.7399 15.4553C56.9259 15.5018 57.0653 15.5715 57.2047 15.7109C57.228 15.7342 57.2512 15.7574 57.2745 15.8039C57.3442 15.8969 57.3907 15.9898 57.4139 16.0828L57.5533 16.5476L58.0181 16.4081C58.7153 16.199 59.4822 16.3849 59.9935 16.8962C60.0632 16.9659 60.1097 17.0356 60.1794 17.0821C60.5048 17.5004 60.6442 18.0349 60.5745 18.5694L60.5048 19.1272H61.0626C61.69 19.1272 62.271 19.4061 62.6661 19.8941C63.0844 20.4286 63.2006 21.1258 62.9915 21.7533L62.852 22.1484L63.2006 22.3575C63.3168 22.4273 63.4098 22.497 63.4795 22.5899C63.526 22.6364 63.5492 22.6829 63.5725 22.7526C63.6189 22.8456 63.6422 22.9385 63.6654 23.0547L63.6887 23.2174L63.8049 23.3336C63.8281 23.3569 63.8281 23.3801 63.8513 23.3801C63.8513 23.4033 63.8746 23.4033 63.8746 23.4266L63.9908 23.6125L64.1999 23.6357C64.7345 23.7055 65.1992 23.9611 65.5246 24.3794C65.5943 24.4724 65.664 24.5886 65.7338 24.7048C65.8267 24.9139 65.8964 25.1231 65.9429 25.3555L65.9662 25.5182L66.0824 25.6344C66.1288 25.6808 66.1753 25.7273 66.2218 25.797C66.3148 25.9132 66.4077 26.0527 66.4542 26.1921C66.7098 26.7499 66.6866 27.3773 66.4077 27.9119L66.3148 28.0745L66.3612 28.2605V28.2837C66.4077 28.4231 66.3845 28.6091 66.338 28.7485L66.245 29.0739L66.5007 29.283C66.5704 29.3295 66.6169 29.376 66.6634 29.4457C66.7563 29.5619 66.8028 29.6781 66.8493 29.8175C66.8958 30.0499 66.8493 30.3056 66.7098 30.5147C66.5704 30.7239 66.3612 30.8633 66.1288 30.9098H66.1056L65.5711 31.0028L65.7105 31.5373C65.7338 31.607 65.9197 32.3274 65.9197 32.3274L66.431 32.1415C66.6169 32.0718 66.8028 32.0718 66.9887 32.1183C67.1979 32.1648 67.3606 32.281 67.5 32.4436C67.5697 32.5366 67.6162 32.6528 67.6627 32.7458C67.7092 32.9317 67.7092 33.1176 67.6394 33.3035L67.4768 33.7218L67.8718 33.9077C68.1507 34.0472 68.3831 34.2331 68.569 34.4655C68.8014 34.7676 68.9409 35.1162 68.9873 35.4881C69.0106 35.6275 69.0106 35.7669 68.9873 35.9064V35.9993L69.0106 36.0923C69.0571 36.2317 69.0803 36.3712 69.0803 36.5106C69.1268 37.0219 68.9641 37.5099 68.6387 37.905L68.3831 38.2304L68.662 38.5325C68.6852 38.5557 68.7085 38.579 68.7317 38.6254C69.0338 38.9973 69.1733 39.4621 69.15 39.9269C69.1268 40.6241 68.7317 41.2283 68.1275 41.5769L67.6859 41.8325L67.9416 42.2508C68.0578 42.46 68.1042 42.7156 68.0345 42.948C68.0113 43.0178 67.988 43.0875 67.9416 43.1572L67.9183 43.2037L67.8951 43.2502C67.8486 43.3664 67.8021 43.4593 67.7324 43.5523L67.6162 43.6917L67.6394 44.1333L67.7556 44.2727C67.8021 44.3192 67.8254 44.3424 67.8486 44.3889C68.2204 44.8769 68.3599 45.5044 68.2204 46.1087C68.081 46.6897 67.6859 47.1545 67.1514 47.4101L66.9887 47.5031L66.8958 47.7122C66.826 47.8516 66.7331 47.9911 66.5936 48.084L66.338 48.2002L66.4077 48.5256C66.431 48.6186 66.431 48.7115 66.431 48.8045V48.9439L66.5007 49.0601C66.8028 49.6179 66.826 50.2454 66.5936 50.8263C66.3148 51.4538 65.7338 51.8954 65.0598 52.0116L64.5718 52.0813L64.6415 52.5693C64.688 52.8017 64.6183 53.0574 64.4788 53.2665C64.4091 53.3827 64.2929 53.4757 64.1767 53.5454L63.8049 53.7546L63.9675 54.1496C64.1999 54.7771 64.1302 55.4511 63.7351 56.0088C63.3865 56.4969 62.852 56.8222 62.2245 56.8687H62.0851L61.9689 56.9617C61.8992 57.0081 61.8062 57.0546 61.7365 57.1011L61.4576 57.2173L61.4344 57.5194C61.4112 57.6589 61.3879 57.7751 61.3182 57.8913L61.2252 58.0307L61.2485 58.1934C61.295 58.7744 61.109 59.3554 60.714 59.7737C60.2259 60.285 59.552 60.4941 58.8548 60.3547L58.3667 60.2617L58.2738 60.7498C58.2273 60.9822 58.0879 61.1913 57.8787 61.3308C57.716 61.4237 57.5533 61.4934 57.3674 61.4934H56.9723L56.8794 61.8885C56.8561 62.028 56.7864 62.1441 56.7167 62.2603L56.6237 62.3765L56.6005 62.516C56.554 63.1202 56.2287 63.6547 55.7174 63.9801C55.1364 64.3752 54.3695 64.4217 53.742 64.1195L53.254 63.8871L53.0681 64.3984C52.9751 64.6541 52.7892 64.8632 52.5335 64.9562C52.3476 65.0259 52.1617 65.0491 51.9758 64.9794L51.5575 64.8632L51.3948 65.2583C51.2786 65.5139 51.0927 65.6998 50.837 65.7696C50.7673 65.7928 50.6743 65.816 50.6046 65.816H50.442L50.3025 65.9322C50.1863 66.0252 50.0701 66.0949 49.9539 66.1182C49.675 66.1879 49.3962 66.1414 49.1638 65.9787L48.5595 65.5372L48.3968 66.2576C48.3039 66.6062 48.025 66.8851 47.6764 66.9548L47.3975 67.0013L47.2813 67.2337C47.0257 67.7682 46.5377 68.1633 45.9567 68.3027C45.7475 68.3492 45.5151 68.3724 45.2827 68.3492L45.12 68.326L44.9806 68.3957C44.7714 68.5119 44.5623 68.5816 44.3531 68.6281C43.7721 68.7443 43.1679 68.5816 42.7031 68.2098L42.5869 68.1168L42.4474 68.0936C42.3545 68.0703 42.2848 68.0471 42.1918 68.0238L41.9594 67.9076L41.727 68.0471C41.5876 68.14 41.4249 68.1865 41.2622 68.1865H41.1693L41.0763 68.2098C40.9601 68.2562 40.8207 68.2795 40.6812 68.2795C40.5418 68.2795 40.4023 68.233 40.2629 68.14L39.984 67.9774L39.7284 68.1633C39.5889 68.2562 39.403 68.3492 39.1241 68.326C38.8685 68.3027 38.6593 68.1865 38.4967 67.9774C38.4734 67.9541 38.4502 67.9309 38.4502 67.8844L38.0551 67.2569L37.6368 67.8844C37.4276 68.1865 37.079 68.326 36.7072 68.2795C36.6375 68.2795 36.5678 68.2562 36.498 68.2098L36.4748 68.1865H36.4516C36.2656 68.14 36.103 68.0238 35.9868 67.8844C35.9635 67.8612 35.9403 67.8147 35.917 67.7914L35.4987 67.1175L35.0804 67.7914C34.6389 68.4886 33.8255 68.8372 33.0353 68.6745H32.9888C32.9656 68.6745 32.9424 68.6745 32.9191 68.6745C32.4543 68.5816 32.0128 68.3259 31.7106 67.9309C31.5944 67.7914 31.5015 67.6287 31.4318 67.4661L31.2691 67.071L30.8508 67.1872C30.6416 67.2337 30.4324 67.2337 30.2465 67.1407C30.2 67.1175 30.1536 67.0942 30.1071 67.071L30.0374 67.0245L29.9444 67.0013C29.8747 66.978 29.8282 66.978 29.7817 66.9548C29.7353 66.9316 29.6888 66.9083 29.6655 66.8851L29.5261 66.7921L29.3402 66.8154C29.1543 66.8386 28.9916 66.8154 28.8289 66.7224C28.6895 66.6527 28.5965 66.583 28.5035 66.4668C28.4106 66.3506 28.3641 66.2344 28.3176 66.0949L28.1549 65.3745L27.5507 65.7928C27.2486 66.002 26.8768 66.0252 26.5514 65.8393C26.5049 65.816 26.4352 65.7696 26.3887 65.7231L26.2958 65.6301L26.1796 65.6069C26.0866 65.5836 25.9936 65.5372 25.9007 65.4907C25.8077 65.4442 25.738 65.3512 25.6683 65.2815C25.645 65.2583 25.6218 65.2118 25.5986 65.1886L25.3662 64.7935L24.9711 64.9329C24.3436 65.2583 23.6232 65.2351 23.0189 64.8865C22.9492 64.84 22.8795 64.7935 22.7865 64.7238L22.7401 64.6773L22.6936 64.6541C22.6006 64.6076 22.5077 64.5611 22.4379 64.5146C22.2288 64.3984 22.0661 64.2357 21.9267 64.0498C21.6943 63.7709 21.5548 63.4223 21.5083 63.0505L21.4851 62.7716L21.2295 62.6554C21.1365 62.6089 21.0436 62.5625 20.9738 62.4927C20.9506 62.4695 20.9041 62.423 20.8809 62.3998C20.8576 62.3533 20.8112 62.3068 20.7879 62.2603L20.695 62.0977L20.509 62.028C20.3696 61.9815 20.2534 61.9118 20.1604 61.7956C20.1372 61.7723 20.114 61.7491 20.0907 61.7026C19.9745 61.5632 19.928 61.4005 19.9048 61.2146L19.8351 60.5871L19.2308 60.7962C18.5104 61.0519 17.697 60.8892 17.1393 60.3314C17.0695 60.2617 17.0231 60.192 16.9533 60.1455C16.628 59.7272 16.4885 59.1927 16.5583 58.6582L16.628 58.1004H16.0702C15.4427 58.1469 14.8618 57.868 14.4667 57.38Z" fill="#66342B"/>
<path d="M14.6755 57.2414C14.3037 56.7766 14.2107 56.1492 14.3966 55.5914L14.5593 55.1266L14.2107 54.8013C14.1875 54.778 14.1642 54.7548 14.141 54.7083C14.1177 54.6851 14.0945 54.6386 14.0713 54.5921L13.9783 54.3365L13.7691 54.197C13.6994 54.1505 13.6297 54.1041 13.5832 54.0343C13.56 53.9879 13.5135 53.9414 13.5135 53.8949C13.5135 53.8717 13.4903 53.8484 13.4903 53.8484L13.3508 53.4534L12.9325 53.3836C12.491 53.3139 12.0959 53.0815 11.8402 52.7329C11.7705 52.64 11.724 52.547 11.6543 52.454C11.5614 52.2914 11.5149 52.0822 11.4684 51.8963L11.4452 51.6639L11.2825 51.5012C11.236 51.4547 11.2128 51.4082 11.1663 51.3618C11.0733 51.2456 11.0036 51.1294 10.9571 51.0132C10.6783 50.4089 10.7712 49.735 11.1663 49.2005L11.3522 48.9448L11.2592 48.2476L11.0036 48.0617C10.9571 48.0152 10.9107 47.9687 10.8642 47.9223C10.7945 47.8293 10.748 47.7363 10.748 47.6434C10.6783 47.2948 10.8874 46.9462 11.2592 46.8532L12.0029 46.6673L11.724 45.6912L11.5381 44.9708L10.8177 45.18C10.6783 45.2264 10.5156 45.2497 10.2367 45.0405C10.167 44.994 10.1205 44.9476 10.074 44.9011C10.0275 44.8546 10.0043 44.8081 10.0043 44.7616C9.93458 44.5757 9.95782 44.3898 10.0508 44.2271L10.4459 43.4835L9.6557 43.2046C9.33034 43.0884 9.0747 42.9025 8.86554 42.6236C8.65639 42.3679 8.54019 42.0658 8.51695 41.7405C8.49371 41.6243 8.49371 41.4848 8.51695 41.3686L8.54019 41.2292L8.49371 41.0898C8.44723 40.9736 8.44723 40.8341 8.42399 40.7179C8.40075 40.2764 8.54019 39.8348 8.81906 39.4862L9.21414 38.9982L8.81906 38.5334C8.79582 38.5101 8.77258 38.4869 8.74934 38.4637C8.49371 38.1383 8.35427 37.72 8.37751 37.3249C8.40075 36.6742 8.79582 36.0932 9.37682 35.8143L9.63246 35.6981V35.4192L9.74866 35.1171L9.63246 34.8382C9.58598 34.722 9.5395 34.5594 9.58598 34.3734C9.60922 34.2572 9.67894 34.141 9.7719 34.0481L10.3994 33.4903L9.74866 32.9558C9.6557 32.8861 9.56274 32.7931 9.49302 32.6769C9.16766 32.2354 9.05146 31.7009 9.16766 31.1663C9.33034 30.5389 9.81838 30.0276 10.4691 29.8881L10.7712 29.8184L11.143 29.191L11.0733 28.9121C11.0501 28.8191 11.0501 28.7262 11.0501 28.6332L11.0966 28.3543L10.9339 28.1219C10.6085 27.6106 10.5388 27.0064 10.7945 26.4487C11.0501 25.8444 11.6311 25.4493 12.2818 25.4029L12.9325 25.3564L12.9558 24.7057C12.9558 24.5662 13.0022 24.45 13.072 24.3338C13.1184 24.2641 13.1882 24.1944 13.2811 24.1479L13.8853 23.7761L13.56 23.1486C13.2346 22.5676 13.2811 21.8704 13.653 21.3126C14.048 20.7549 14.7452 20.4528 15.4192 20.5922L16.2326 20.7549L16.2791 19.9183C16.2791 19.8718 16.2791 19.8253 16.3023 19.8021L16.3488 19.5929L16.2791 19.3837C16.0699 18.7563 16.2093 18.0823 16.6741 17.6175C17.1157 17.1527 17.7896 16.9668 18.4171 17.1527L19.0446 17.3386L19.3002 16.7344C19.3467 16.6182 19.4397 16.502 19.5559 16.4323C19.6721 16.3626 19.8115 16.3161 19.9277 16.3161H20.5319L20.6481 15.7351C20.6714 15.6654 20.6946 15.5956 20.7179 15.5259L20.8341 15.3168L20.8108 15.0844C20.7643 14.4569 21.0432 13.8294 21.5777 13.4808C22.1587 13.0857 22.9024 13.0857 23.4834 13.4576L24.1806 13.8991L24.5292 13.1555C24.5989 12.9928 24.7384 12.8766 24.901 12.8069C25.0405 12.7604 25.1799 12.7371 25.3194 12.7836L25.9236 12.9463L26.1792 12.3653C26.2489 12.1794 26.4116 12.04 26.5975 11.9935C26.644 11.9702 26.7137 11.9702 26.7602 11.9702L27.0623 11.947L27.2715 11.7378C27.3645 11.6449 27.4574 11.5752 27.5736 11.5519C27.7828 11.5054 27.9919 11.5287 28.1546 11.6681L29.061 12.3421L29.3166 11.2498C29.3631 11.0639 29.4793 10.9012 29.6652 10.8082L29.9441 10.6688L30.037 10.3899C30.223 9.80893 30.6878 9.36737 31.292 9.22793C31.4779 9.18145 31.6871 9.15821 31.873 9.18145L32.1054 9.20469L32.3145 9.08849C32.4772 8.99553 32.6631 8.92581 32.8723 8.87933C33.523 8.76313 34.1737 8.99553 34.592 9.53005L34.8012 9.80893L35.5216 9.87865L35.754 9.66949C35.8935 9.55329 36.0562 9.48357 36.2188 9.50681C36.2653 9.50681 36.3118 9.50681 36.3583 9.53005L36.4512 9.55329H36.5674H36.5907C36.6604 9.55329 36.7766 9.59977 36.8696 9.64625L37.3111 9.92513L37.7062 9.59977C37.8456 9.48357 38.0083 9.43709 38.1942 9.46033C38.3801 9.48357 38.5428 9.57653 38.659 9.71597C38.6823 9.73921 38.6823 9.76245 38.7055 9.78569L39.3097 10.7385L39.9372 9.80893C40.0534 9.62301 40.2626 9.53005 40.4717 9.50681H40.5414L40.6112 9.48357C40.7041 9.46033 40.7971 9.46033 40.89 9.48357C41.0295 9.50681 41.1457 9.57653 41.2386 9.66949L41.8661 10.297L42.3774 9.57653C42.7725 9.01877 43.4697 8.73989 44.1204 8.85609H44.1436C44.1901 8.85609 44.2133 8.87933 44.2366 8.87933C44.6317 8.94905 45.0035 9.18145 45.2591 9.50681C45.3986 9.69273 45.5148 9.90189 45.5613 10.111L45.7704 10.878L46.5141 10.6223C46.6768 10.5758 46.8394 10.5758 46.9789 10.6223L47.1183 10.6688H47.2578C47.3507 10.6688 47.4437 10.692 47.5366 10.7153C47.6064 10.7385 47.6528 10.785 47.7226 10.8315L47.8852 10.9942L48.1176 11.0174C48.1874 11.0174 48.2571 11.0406 48.3268 11.0871C48.4198 11.1336 48.4895 11.2033 48.5592 11.273C48.6289 11.3428 48.6754 11.459 48.6986 11.5519L48.931 12.6442L49.8374 11.9935C50.0465 11.8308 50.3487 11.8308 50.5578 11.9702C50.5811 11.9935 50.6043 11.9935 50.6275 12.0167L50.7902 12.1561L50.9994 12.1794C51.1156 12.1794 51.2085 12.2259 51.3015 12.2723C51.348 12.2956 51.3944 12.3421 51.4409 12.3885L51.836 12.7836L52.324 12.528C52.8818 12.2491 53.5093 12.2491 54.0438 12.5745C54.1135 12.6209 54.16 12.6674 54.253 12.7139L54.3227 12.7836L54.4156 12.8301C54.5086 12.8766 54.5783 12.8998 54.648 12.9463C54.8339 13.0625 54.9734 13.2019 55.1128 13.3646C55.3452 13.6667 55.4847 14.0618 55.4847 14.4569V14.9682L55.9495 15.1541C56.0424 15.1773 56.1121 15.2238 56.1586 15.2935C56.1819 15.3168 56.2051 15.34 56.2283 15.3632C56.2516 15.3865 56.2516 15.4097 56.2748 15.433L56.4375 15.6886L56.7396 15.7583C56.8791 15.7816 56.9953 15.8513 57.0882 15.9442C57.1115 15.9675 57.1347 15.9907 57.1347 16.014C57.1812 16.0837 57.2276 16.1534 57.2509 16.2231L57.4833 16.8971L58.1805 16.6879C58.7847 16.502 59.4587 16.6647 59.9235 17.1062C59.97 17.1527 60.0397 17.2224 60.0862 17.2689C60.365 17.6408 60.5045 18.1055 60.4347 18.5703L60.3418 19.407H61.1784C61.7362 19.407 62.2475 19.6394 62.5728 20.0809C62.9447 20.5457 63.0376 21.15 62.8517 21.7077L62.6658 22.2887L63.2003 22.5908C63.27 22.6373 63.3397 22.6838 63.4094 22.7535C63.4327 22.8 63.4559 22.8232 63.4792 22.8697C63.5024 22.9394 63.5256 23.0092 63.5489 23.1021L63.5721 23.3345L63.7348 23.5204C63.7348 23.5437 63.758 23.5437 63.758 23.5669L63.7813 23.5902L63.9672 23.8458L64.2926 23.8923C64.7574 23.962 65.1524 24.1944 65.4546 24.543C65.5243 24.6359 65.5708 24.7289 65.6405 24.8219C65.7334 24.9845 65.7799 25.1937 65.8264 25.3796L65.8496 25.612L66.0123 25.7747C66.0588 25.8212 66.082 25.8677 66.1285 25.9141C66.2215 26.0303 66.2912 26.1465 66.3377 26.2627C66.5468 26.7508 66.5468 27.3085 66.2912 27.7733L66.1517 28.029L66.2447 28.3078V28.3311C66.2679 28.424 66.2679 28.5402 66.2215 28.6564L66.082 29.1445L66.4771 29.4466C66.5236 29.4698 66.5701 29.5163 66.5933 29.5628C66.663 29.6558 66.7095 29.7487 66.7095 29.8417C66.756 30.0276 66.7095 30.1903 66.6165 30.3529C66.5236 30.4924 66.3609 30.6086 66.1982 30.6318H66.175L65.3616 30.748L65.5708 31.5382C65.594 31.6079 65.7799 32.3283 65.7799 32.3283L65.8496 32.584L66.6165 32.2819C66.756 32.2354 66.8722 32.2354 67.0116 32.2586C67.1511 32.3051 67.2905 32.3981 67.3835 32.5143C67.4299 32.584 67.4764 32.6537 67.4997 32.7466C67.5461 32.8861 67.5229 33.0255 67.4764 33.165L67.244 33.7924L67.8483 34.0946C68.0807 34.2108 68.2898 34.3734 68.4525 34.6058C68.6617 34.8615 68.7779 35.1636 68.8011 35.489C68.8243 35.6052 68.8243 35.7446 68.8011 35.8608L68.7779 36.0002L68.8243 36.1397C68.8708 36.2559 68.8941 36.3953 68.8941 36.5115C68.9173 36.9531 68.7779 37.3946 68.499 37.7432L68.1039 38.2313L68.499 38.6961C68.5222 38.7193 68.5455 38.7425 68.5687 38.7658C68.8243 39.0911 68.9638 39.5094 68.9405 39.9045C68.9173 40.5088 68.5919 41.0665 68.0574 41.3686L67.4067 41.7405L67.7785 42.3912C67.8715 42.5539 67.8947 42.7398 67.8483 42.9025C67.8483 42.9489 67.825 42.9954 67.7785 43.0651L67.7321 43.1349L67.7088 43.2046C67.6856 43.2975 67.6391 43.3673 67.5926 43.437L67.4299 43.6461L67.4532 44.2736L67.6391 44.4828C67.6623 44.506 67.7088 44.5525 67.7321 44.599C68.0574 45.0405 68.1969 45.575 68.0574 46.1096C67.9412 46.6208 67.5926 47.0392 67.1278 47.2483L66.8722 47.3645L66.756 47.6666C66.7095 47.7596 66.6398 47.8525 66.5468 47.9223L66.1517 48.2011L66.2679 48.6659C66.2912 48.7357 66.2912 48.8054 66.2912 48.8751L66.2679 49.0843L66.3609 49.2702C66.6165 49.7582 66.663 50.316 66.4306 50.8272C66.1982 51.385 65.687 51.7801 65.0827 51.8498L64.339 51.966L64.4552 52.7097C64.4785 52.8956 64.432 53.0583 64.339 53.221C64.2693 53.3139 64.1996 53.3604 64.1066 53.4069L63.5489 53.709L63.7813 54.3132C63.9904 54.8477 63.9207 55.4752 63.5954 55.94C63.2932 56.3816 62.8052 56.6604 62.2707 56.6837L62.0615 56.7069L61.8756 56.8464C61.8291 56.8928 61.7594 56.9161 61.6897 56.9393L61.2714 57.102L61.2249 57.5668C61.2249 57.6598 61.1784 57.7527 61.1319 57.8457L61.0157 58.0548L61.039 58.2872C61.0855 58.7985 60.9228 59.3098 60.5509 59.6816C60.1326 60.1232 59.5284 60.3091 58.9242 60.1929L58.2037 60.0302L58.0643 60.7739C58.041 60.9598 57.9248 61.0993 57.7854 61.2155C57.6692 61.2852 57.5298 61.3317 57.4136 61.3317H56.8093L56.6931 61.9127C56.6699 62.0056 56.6234 62.0986 56.5769 62.1915L56.4375 62.3542L56.4143 62.5634C56.3678 63.0979 56.0889 63.5627 55.6473 63.8648C55.1361 64.2134 54.4621 64.2599 53.9044 63.981L53.1607 63.6324L52.8818 64.3993C52.8121 64.5852 52.6726 64.7247 52.4867 64.8176C52.3473 64.8641 52.2078 64.8874 52.0684 64.8409L51.4642 64.6782L51.2085 65.2592C51.1388 65.4451 50.9761 65.5845 50.7902 65.631C50.7437 65.6543 50.674 65.6543 50.6043 65.6543H50.3487L50.1627 65.8169C50.093 65.8867 50.0001 65.9331 49.9071 65.9564C49.6979 66.0029 49.4888 65.9796 49.3261 65.8402L48.4198 65.1662L48.1641 66.2585C48.0944 66.5141 47.8852 66.7233 47.6296 66.7698C47.5599 66.7698 47.4902 66.793 47.374 66.8163L47.2578 66.8395L47.0951 67.1649C46.8627 67.6297 46.4444 67.9782 45.9331 68.1177C45.7472 68.1642 45.5612 68.1874 45.3521 68.1642L45.1197 68.1409L44.9105 68.2571C44.7479 68.3501 44.5619 68.4198 44.3528 68.4663C43.8415 68.5592 43.307 68.4198 42.9119 68.0944L42.7492 67.955L42.5401 67.9318C42.4704 67.9318 42.4239 67.9085 42.3542 67.8853L41.9823 67.7226L41.657 67.9318C41.564 68.0015 41.4478 68.0247 41.3084 68.0247H41.1689L41.0527 68.0712C40.9598 68.1177 40.8668 68.1177 40.7738 68.1177C40.6809 68.1177 40.5647 68.0712 40.4717 68.0247L40.0766 67.7923L39.6816 68.048C39.5886 68.1177 39.4259 68.1874 39.24 68.1642C39.0541 68.1409 38.8914 68.048 38.7752 67.9085C38.752 67.8853 38.752 67.862 38.7287 67.8388L38.1245 66.886L37.497 67.8156C37.3576 68.0247 37.0787 68.1409 36.8231 68.0944C36.7766 68.0944 36.7301 68.0712 36.6604 68.048L36.6139 68.0247L36.5674 68.0015C36.428 67.955 36.3118 67.8853 36.2421 67.7691C36.2188 67.7459 36.2188 67.7226 36.1956 67.6994L35.5914 66.6768L34.9406 67.6761C34.5456 68.2804 33.8484 68.5825 33.1512 68.4663H33.1279C33.0815 68.4663 33.0582 68.443 33.035 68.443C32.6399 68.3733 32.2681 68.1409 31.9892 67.7923C31.8962 67.6761 31.8033 67.5367 31.7568 67.3973L31.5011 66.793L30.8737 66.9557C30.7342 67.0022 30.5716 66.9789 30.4321 66.9325C30.4089 66.9092 30.3624 66.9092 30.3392 66.886L30.223 66.8163L30.1068 66.793C30.0603 66.793 30.0138 66.7698 29.9906 66.7465C29.9673 66.7233 29.9208 66.7233 29.8976 66.7001L29.6652 66.5606L29.4096 66.6071C29.2701 66.6303 29.1539 66.6071 29.0377 66.5374C28.9448 66.4909 28.875 66.4212 28.8053 66.3515C28.7356 66.2817 28.6891 66.1655 28.6659 66.0726L28.4335 64.9803L27.5271 65.631C27.318 65.7937 27.0159 65.7937 26.8067 65.6543C26.7602 65.631 26.737 65.6078 26.6905 65.5613L26.5511 65.4219L26.3651 65.3754C26.2954 65.3521 26.2257 65.3289 26.156 65.2824C26.0863 65.2359 26.0398 65.1895 25.9933 65.1197C25.9701 65.0965 25.9468 65.0733 25.9468 65.05L25.5982 64.4458L24.9708 64.7711C24.4362 65.05 23.7855 65.05 23.251 64.7247C23.1813 64.6782 23.1348 64.6317 23.0418 64.5852L22.9721 64.5155L22.8792 64.469C22.7862 64.4226 22.7165 64.3993 22.6468 64.3528C22.4609 64.2366 22.3214 64.0972 22.182 63.9345C21.9728 63.6789 21.8566 63.3768 21.8101 63.0514L21.7637 62.6331L21.3918 62.4704C21.3221 62.4472 21.2524 62.4007 21.2059 62.3542C21.1827 62.331 21.1594 62.3077 21.1362 62.2845C21.1129 62.2612 21.0897 62.2148 21.0665 62.1915L20.927 61.9359L20.6481 61.8429C20.5552 61.8197 20.4622 61.75 20.3925 61.6803C20.3693 61.657 20.346 61.6338 20.346 61.6105C20.2763 61.5176 20.2298 61.3781 20.2066 61.2619L20.1136 60.3091L19.2305 60.6345C18.5798 60.8669 17.8826 60.7042 17.3946 60.2394C17.3481 60.1929 17.2784 60.1232 17.2319 60.0767C16.953 59.7049 16.8136 59.2401 16.8833 58.7753L16.9762 57.9386H16.1396C15.5121 57.9154 15.0009 57.6598 14.6755 57.2414Z" fill="#774338"/>
<path opacity="0.6" d="M21.4142 51.9655C21.1585 51.6401 21.0888 51.1753 21.2283 50.7803L21.3445 50.4549L21.0888 50.2225C21.0656 50.1993 21.0423 50.176 21.0423 50.1528C21.0191 50.1295 20.9959 50.1063 20.9959 50.0831L20.9261 49.8971L20.7867 49.8042C20.7402 49.7809 20.6937 49.7345 20.6705 49.688C20.6473 49.6647 20.624 49.6183 20.624 49.595C20.624 49.5718 20.624 49.5718 20.6008 49.5485L20.4846 49.2697L20.1825 49.2232C19.8571 49.1767 19.5782 49.014 19.3923 48.7584C19.3458 48.6887 19.2994 48.619 19.2761 48.5492C19.2064 48.433 19.1599 48.2936 19.1599 48.1542L19.1367 47.9915L19.0205 47.8753C18.9972 47.852 18.9508 47.8056 18.9275 47.7823C18.8578 47.7126 18.8113 47.6196 18.7648 47.5267C18.5789 47.1084 18.6254 46.5971 18.9275 46.2253L19.067 46.0393L18.9972 45.5513L18.8113 45.4119C18.7648 45.3886 18.7416 45.3421 18.7184 45.3189C18.6719 45.2492 18.6486 45.2027 18.6254 45.1097C18.5789 44.8541 18.7416 44.5985 18.974 44.552L19.5085 44.4125L19.3226 43.7153L19.1832 43.2041L18.6719 43.3435C18.5789 43.3668 18.4627 43.39 18.2536 43.2506C18.2071 43.2273 18.1838 43.1808 18.1374 43.1576C18.1141 43.1344 18.0909 43.0879 18.0909 43.0646C18.0444 42.9252 18.0444 42.809 18.1141 42.6696L18.393 42.135L17.8352 41.9259C17.6029 41.8562 17.4169 41.6935 17.2543 41.5076C17.1148 41.3216 17.0219 41.1125 16.9986 40.8801C16.9986 40.7871 16.9986 40.6942 16.9986 40.6012V40.5082L16.9754 40.4153C16.9521 40.3223 16.9289 40.2294 16.9289 40.1597C16.9057 39.8343 16.9986 39.5322 17.2078 39.2765L17.4867 38.9279L17.1845 38.6026C17.1613 38.5793 17.1613 38.5793 17.1381 38.5561C16.9521 38.3237 16.8592 38.0216 16.8824 37.7427C16.9057 37.2779 17.1845 36.8596 17.6029 36.6504L17.7888 36.5575L17.8817 36.3716L17.9514 36.1392L17.8585 35.9532C17.812 35.8835 17.7888 35.7673 17.8352 35.6279C17.8585 35.5349 17.905 35.4652 17.9747 35.3955L18.4162 34.9772L17.9514 34.5821C17.8817 34.5356 17.812 34.4659 17.7655 34.3962C17.5331 34.0941 17.4402 33.699 17.5331 33.3039C17.6493 32.8391 17.9979 32.4905 18.4627 32.3743L18.6719 32.3278L18.9275 31.8863L18.881 31.6771C18.8578 31.6074 18.8578 31.5377 18.881 31.468L18.9275 31.2588L18.8113 31.0961C18.5789 30.7475 18.5324 30.2827 18.6951 29.8876C18.881 29.4693 19.2994 29.1672 19.7642 29.144L20.229 29.0975L20.2522 28.6327C20.2522 28.5397 20.2987 28.4468 20.3452 28.3771C20.3916 28.3306 20.4381 28.2841 20.4846 28.2376L20.9261 27.982L20.6937 27.5404C20.4614 27.1221 20.4846 26.6108 20.7635 26.2157C21.0423 25.7974 21.5536 25.6115 22.0417 25.7045L22.6227 25.8207L22.6691 25.2164C22.6691 25.1932 22.6691 25.1467 22.6924 25.1235L22.7389 24.984L22.6924 24.8446C22.5529 24.403 22.6459 23.915 22.9713 23.5664C23.2966 23.2178 23.7846 23.1016 24.2262 23.2178L24.6678 23.3572L24.8537 22.9157C24.9002 22.8227 24.9466 22.753 25.0396 22.7065C25.1093 22.6601 25.2255 22.6136 25.3185 22.6136H25.7368L25.8298 22.1953C25.853 22.1488 25.853 22.0791 25.8762 22.0558L25.9692 21.9164L25.853 21.7072C25.8065 21.2424 26.0157 20.8009 26.4107 20.5452C26.8291 20.2664 27.3636 20.2664 27.7819 20.522L28.2932 20.8473L28.5488 20.3128C28.5953 20.1966 28.6883 20.1037 28.8045 20.0572C28.8974 20.0107 28.9904 20.0107 29.1066 20.034L29.5481 20.1502L29.734 19.7318C29.7805 19.5924 29.8967 19.4994 30.0362 19.453C30.0826 19.4297 30.1059 19.4297 30.1524 19.4297H30.3615L30.501 19.267C30.5707 19.1973 30.6404 19.1508 30.7101 19.1276C30.8496 19.0811 31.0122 19.1044 31.1284 19.1973L31.7792 19.6854L31.9418 18.9184C31.9651 18.779 32.058 18.6628 32.1975 18.5931L32.3834 18.5001L32.4531 18.291C32.5925 17.8726 32.9179 17.5705 33.3362 17.4543C33.4757 17.4311 33.6151 17.4078 33.7545 17.4311L33.9172 17.4543L34.0567 17.3614C34.1729 17.2917 34.3123 17.2452 34.4517 17.2219C34.9165 17.129 35.3813 17.3149 35.6834 17.6867L35.8461 17.8959L36.3574 17.9424L36.5201 17.7797C36.613 17.6867 36.7292 17.6635 36.8454 17.6635C36.8687 17.6635 36.9152 17.6635 36.9384 17.6867L37.0081 17.71H37.1011C37.1476 17.71 37.2405 17.7332 37.3102 17.7797L37.6356 17.9656L37.9145 17.7332C38.0074 17.6635 38.1469 17.617 38.2631 17.6402C38.4025 17.6635 38.5187 17.71 38.5884 17.8262C38.5884 17.8494 38.6117 17.8494 38.6117 17.8726L39.03 18.5466L39.4948 17.8726C39.5877 17.7564 39.7272 17.6635 39.8666 17.6635H39.9131H39.9596C40.0293 17.6402 40.099 17.6402 40.1455 17.6635C40.2385 17.6867 40.3314 17.7332 40.4011 17.8029L40.8427 18.2445L41.2145 17.7332C41.4934 17.3381 41.9814 17.129 42.4695 17.2219H42.4927C42.5392 17.2219 42.5392 17.2219 42.5624 17.2219C42.8413 17.2684 43.1202 17.4311 43.3061 17.6867C43.3991 17.8262 43.492 17.9656 43.5385 18.1283L43.7012 18.6628L44.2357 18.4769C44.3519 18.4304 44.4681 18.4304 44.5843 18.4769L44.6773 18.5234H44.7702C44.8399 18.5234 44.9097 18.5466 44.9561 18.5698C45.0026 18.5931 45.0491 18.6163 45.0723 18.6628L45.1885 18.779L45.3512 18.8022C45.3977 18.8022 45.4442 18.8255 45.4907 18.8487C45.5604 18.872 45.6069 18.9184 45.6533 18.9882C45.6998 19.0346 45.7231 19.1044 45.7463 19.1973L45.909 19.9875L46.5597 19.5227C46.7224 19.4065 46.9315 19.4065 47.0942 19.4994C47.1174 19.4994 47.1407 19.5227 47.1407 19.5459L47.2569 19.6389L47.4196 19.6621C47.4893 19.6621 47.559 19.6854 47.6287 19.7318C47.652 19.7551 47.6984 19.7783 47.7217 19.8016L48.0006 20.0804L48.3492 19.8945C48.7442 19.6854 49.209 19.6854 49.5809 19.9178C49.6273 19.941 49.6738 19.9875 49.7203 20.0107L49.7668 20.0572L49.8365 20.0804C49.9062 20.1037 49.9527 20.1269 49.9992 20.1734C50.1154 20.2431 50.2316 20.3593 50.3245 20.4755C50.4872 20.6847 50.5802 20.9635 50.5802 21.2424V21.6143L50.9288 21.7537C50.9985 21.7769 51.045 21.8002 51.0915 21.8467C51.1147 21.8699 51.1147 21.8699 51.1379 21.8931C51.1379 21.9164 51.1612 21.9164 51.1612 21.9396L51.2774 22.1255L51.4865 22.172C51.5795 22.1953 51.6725 22.2417 51.7189 22.3115C51.7422 22.3347 51.7422 22.3347 51.7654 22.3579C51.7887 22.4044 51.8351 22.4509 51.8351 22.4974L51.9978 22.9854L52.4858 22.846C52.9274 22.7065 53.4154 22.8227 53.7408 23.1481C53.7873 23.1946 53.8105 23.2178 53.857 23.2643C54.0662 23.5199 54.1591 23.8685 54.1126 24.1939L54.0429 24.7981H54.6472C55.0422 24.7981 55.4141 24.9608 55.6465 25.2862C55.9021 25.6115 55.9718 26.0531 55.8556 26.4714L55.7162 26.8897L56.088 27.0989C56.1345 27.1221 56.2042 27.1686 56.2275 27.2151C56.2507 27.2383 56.2739 27.2615 56.2739 27.308C56.2972 27.3545 56.3204 27.401 56.3204 27.4707L56.3437 27.6334L56.4599 27.7496L56.4831 27.7728L56.5063 27.7961L56.6458 27.982L56.8782 28.0052C57.2035 28.0517 57.5057 28.2144 57.7148 28.47C57.7613 28.5397 57.8078 28.6095 57.831 28.6792C57.9007 28.7954 57.9472 28.9348 57.9472 29.0742L57.9705 29.2369L58.0867 29.3531C58.1099 29.3764 58.1331 29.4228 58.1796 29.4461C58.2493 29.5158 58.2958 29.6088 58.3423 29.7017C58.505 30.0503 58.4817 30.4454 58.319 30.794L58.2261 30.9799L58.2958 31.1891V31.2123C58.319 31.282 58.319 31.375 58.2726 31.4447L58.1796 31.7933L58.4585 32.0257C58.4817 32.0489 58.5282 32.0722 58.5514 32.1187C58.5979 32.1884 58.6212 32.2349 58.6444 32.3278C58.6676 32.444 58.6444 32.5835 58.5747 32.6997C58.505 32.8159 58.3888 32.8856 58.2726 32.9088H58.2493L57.6683 33.0018L57.8078 33.5595C57.831 33.606 57.9472 34.1405 57.9472 34.1405L57.9937 34.3265L58.5514 34.1173C58.6444 34.0708 58.7374 34.0708 58.8303 34.0941C58.9465 34.1173 59.0395 34.187 59.1092 34.28C59.1557 34.3265 59.1789 34.3729 59.1789 34.4427C59.2022 34.5356 59.2022 34.6518 59.1557 34.7448L58.993 35.1863L59.4113 35.3955C59.574 35.4884 59.7367 35.6046 59.8529 35.7441C59.9923 35.93 60.0853 36.1392 60.1085 36.3716C60.1085 36.4645 60.1085 36.5575 60.1085 36.6504V36.7434L60.1318 36.8364C60.155 36.9293 60.1782 37.0223 60.1782 37.092C60.2015 37.4174 60.1085 37.7195 59.8994 37.9751L59.6205 38.3237L59.9226 38.6491C59.9458 38.6723 59.9458 38.6723 59.9691 38.6955C60.155 38.9279 60.248 39.2301 60.2247 39.5089C60.2015 39.9505 59.9691 40.3456 59.5972 40.5547L59.1324 40.8104L59.4113 41.2752C59.481 41.3914 59.5043 41.5076 59.4578 41.647C59.4578 41.6702 59.4346 41.7167 59.4113 41.7632L59.3881 41.8097L59.3648 41.8562C59.3416 41.9259 59.3184 41.9724 59.2719 42.0188L59.1557 42.1815L59.1789 42.6231L59.3184 42.7625C59.3416 42.7858 59.3648 42.809 59.3881 42.8322C59.6205 43.1344 59.7134 43.5294 59.6205 43.9245C59.5275 44.2963 59.2951 44.5752 58.9465 44.7379L58.7606 44.8309L58.6676 45.04C58.6444 45.1097 58.5747 45.1795 58.505 45.2259L58.2261 45.4351L58.2958 45.7837C58.2958 45.8302 58.319 45.8767 58.319 45.9231V46.0858L58.3888 46.2253C58.5747 46.5738 58.5979 46.9689 58.4352 47.3408C58.2493 47.7358 57.9007 48.0147 57.4592 48.0844L56.9247 48.1542L57.0176 48.6887C57.0409 48.8281 57.0176 48.9443 56.9247 49.0605C56.8782 49.1302 56.8317 49.1767 56.762 49.2L56.3437 49.4091L56.5063 49.8507C56.6458 50.2457 56.5993 50.6873 56.3669 51.0127C56.1577 51.338 55.8091 51.5239 55.4141 51.5472H55.2514L55.1352 51.6401C55.0887 51.6634 55.0655 51.6866 55.019 51.7099L54.7169 51.8261L54.6704 52.1514C54.6704 52.2211 54.6472 52.2909 54.6007 52.3373L54.5077 52.4768L54.531 52.6395C54.5774 53.0113 54.438 53.3599 54.1824 53.6388C53.8802 53.9641 53.4387 54.0803 53.0204 53.9874L52.4858 53.8712L52.3929 54.4057C52.3697 54.5219 52.2999 54.6381 52.1837 54.7078C52.114 54.7543 51.9978 54.8008 51.9049 54.8008H51.4865L51.3936 55.2191C51.3703 55.2888 51.3471 55.3585 51.3006 55.405L51.2077 55.5212L51.1844 55.6839C51.1379 56.0557 50.952 56.4043 50.6267 56.6135C50.2548 56.8691 49.79 56.8923 49.3717 56.7064L48.8372 56.4508L48.6513 57.0085C48.6048 57.148 48.5118 57.2409 48.3724 57.3107C48.2794 57.3571 48.1865 57.3571 48.0703 57.3339L47.6287 57.2177L47.4428 57.636C47.3963 57.7755 47.2801 57.8684 47.1407 57.9149C47.0942 57.9381 47.0477 57.9381 47.0245 57.9381H46.8386L46.6991 58.0543C46.6526 58.1008 46.5829 58.1473 46.5132 58.1473C46.3738 58.1938 46.2111 58.1705 46.0949 58.0776L45.4442 57.5895L45.2583 58.3797C45.2118 58.5656 45.0723 58.705 44.8864 58.7515C44.8399 58.7515 44.7702 58.7748 44.7005 58.7748L44.6075 58.798L44.4913 59.0304C44.3287 59.379 44.0265 59.6114 43.6547 59.7044C43.5153 59.7276 43.3758 59.7508 43.2364 59.7276L43.0737 59.7044L42.9343 59.7973C42.8181 59.867 42.6786 59.9135 42.5392 59.9368C42.1674 60.0065 41.7955 59.9135 41.4934 59.6811L41.3772 59.5882L41.2378 59.5649C41.1913 59.5649 41.1448 59.5417 41.0983 59.5184L40.8427 59.4022L40.6103 59.5649C40.5406 59.6114 40.4476 59.6346 40.3547 59.6346H40.2617L40.1687 59.6811C40.099 59.7044 40.0293 59.7276 39.9596 59.7276C39.8899 59.7276 39.8201 59.7044 39.7272 59.6579L39.4483 59.4952L39.1694 59.6811C39.0997 59.7276 38.9835 59.7741 38.8441 59.7741C38.7046 59.7508 38.5884 59.7044 38.5187 59.5882C38.5187 59.5649 38.4955 59.5649 38.4955 59.5417L38.0771 58.8677L37.6124 59.5417C37.4962 59.7044 37.3102 59.7741 37.1243 59.7508C37.1011 59.7508 37.0546 59.7276 37.0081 59.7044L36.9849 59.6811H36.9616C36.8687 59.6579 36.7757 59.5882 36.7292 59.5184C36.706 59.4952 36.706 59.4952 36.706 59.472L36.2644 58.7283L35.7996 59.4487C35.5208 59.8903 35.0095 60.0994 34.4982 60.0065H34.475C34.4285 60.0065 34.4285 60.0065 34.4053 60.0065C34.1264 59.96 33.8475 59.7973 33.6616 59.5417C33.5919 59.4487 33.5454 59.3558 33.4989 59.2396L33.313 58.8212L32.8714 58.9374C32.7552 58.9607 32.6623 58.9607 32.5461 58.9142C32.5228 58.9142 32.4996 58.891 32.4763 58.8677L32.4066 58.8212L32.3137 58.798C32.2904 58.798 32.2439 58.7748 32.2207 58.7748C32.1975 58.7748 32.1742 58.7515 32.151 58.7283L31.9883 58.6353L31.8024 58.6586C31.7094 58.6818 31.6165 58.6586 31.5235 58.6121C31.4538 58.5888 31.4073 58.5424 31.3608 58.4726C31.3144 58.4262 31.2911 58.3564 31.2679 58.2635L31.1052 57.4733L30.4545 57.9381C30.2918 58.0543 30.0826 58.0543 29.92 57.9614C29.8967 57.9381 29.8735 57.9149 29.827 57.8917L29.734 57.7987L29.5946 57.7755C29.5481 57.7522 29.5016 57.7522 29.4552 57.7057C29.4087 57.6825 29.3622 57.636 29.339 57.5895C29.3157 57.5663 29.3157 57.5431 29.2925 57.5431L29.0369 57.1015L28.5953 57.3339C28.2002 57.5431 27.7354 57.5198 27.3636 57.3107C27.3171 57.2874 27.2706 57.2409 27.2241 57.2177L27.1777 57.1712L27.1079 57.148C27.0382 57.1247 26.9917 57.1015 26.9453 57.055C26.8291 56.9853 26.7129 56.8691 26.6199 56.7529C26.4805 56.567 26.3875 56.3578 26.3643 56.1254L26.341 55.8233L26.0622 55.7071C26.0157 55.6839 25.9692 55.6606 25.9227 55.6141C25.8995 55.5909 25.8995 55.5909 25.8762 55.5677C25.853 55.5444 25.853 55.5212 25.8298 55.4979L25.7368 55.312L25.5276 55.2423C25.4579 55.2191 25.3882 55.1726 25.3417 55.1261C25.3185 55.1029 25.3185 55.1029 25.2952 55.0796C25.2488 55.0099 25.2023 54.917 25.2023 54.824L25.1326 54.15L24.4818 54.3824C24.017 54.5451 23.529 54.4289 23.1804 54.1036C23.1339 54.0571 23.1107 54.0338 23.0642 53.9874C22.8551 53.7317 22.7621 53.3831 22.8086 53.0578L22.8783 52.4535H22.2741C22.0184 52.4535 21.6698 52.2676 21.4142 51.9655Z" fill="#68362E"/>
<path opacity="0.6" d="M63.4779 53.4761L63.3385 53.081L63.7103 52.8719C63.8265 52.8021 63.9427 52.7092 64.0124 52.6162C64.1519 52.4303 64.1984 52.1747 64.1751 51.9423L64.1054 51.4542L64.5934 51.3845C65.2674 51.2915 65.8252 50.85 66.104 50.2458C66.3364 49.688 66.3132 49.0605 66.0343 48.526L65.9646 48.4098V48.2704C65.9646 48.1774 65.9646 48.0845 65.9414 48.0147L65.8716 47.7126L66.1273 47.5267C66.2435 47.4337 66.3597 47.3175 66.4062 47.1781L66.4759 46.9689L66.6385 46.8992C67.1498 46.6436 67.5217 46.1788 67.6611 45.621C67.8005 45.04 67.6843 44.4358 67.3125 43.9478C67.2893 43.9013 67.2428 43.878 67.2195 43.8316L67.1033 43.6921L67.0801 43.2738L67.1963 43.1344C67.266 43.0414 67.3125 42.9484 67.359 42.8322L67.3822 42.7858L67.4055 42.7393C67.4519 42.6463 67.4752 42.5999 67.4984 42.5301C67.5681 42.2977 67.5217 42.0653 67.4055 41.8562L67.1498 41.4379L67.5681 41.2055C68.1491 40.8801 68.521 40.2759 68.5442 39.6019C68.5675 39.1371 68.428 38.6956 68.1259 38.3237C68.1027 38.3005 68.0794 38.2772 68.0562 38.254L67.8005 37.9519L68.0562 37.6498C68.3815 37.2547 68.521 36.7899 68.4977 36.2786C68.4977 36.1392 68.4745 35.9997 68.428 35.8603L68.4048 35.7673V35.6744C68.428 35.5349 68.428 35.3955 68.4048 35.2561C68.3583 34.8842 68.2189 34.5589 68.0097 34.28C67.8238 34.0476 67.5914 33.8617 67.3357 33.7222L66.9407 33.5363L67.1033 33.1412C67.1731 32.9553 67.1731 32.7694 67.1266 32.5835C67.1033 32.4673 67.0569 32.3743 66.9639 32.2814C66.8477 32.1187 66.6618 32.0025 66.4759 31.956C66.29 31.9095 66.1273 31.9095 65.9414 31.9792L65.4533 32.1652C65.4533 32.1652 65.2674 31.468 65.2674 31.375L65.128 30.8637L65.6392 30.7708H65.6625C65.8949 30.7243 66.104 30.5849 66.2202 30.3989C66.3597 30.1898 66.4062 29.9574 66.3597 29.725C66.3364 29.5855 66.2667 29.4693 66.197 29.3531C66.1505 29.3067 66.104 29.2369 66.0343 29.1905L65.7787 28.9813L65.8716 28.6792C65.9181 28.5165 65.9181 28.3538 65.8949 28.2144V28.1911L65.8484 28.0052L65.9414 27.8426C66.197 27.308 66.2202 26.7038 65.9878 26.1693C65.9181 26.0298 65.8484 25.8904 65.7554 25.7742C65.709 25.7277 65.6625 25.6812 65.616 25.6348L65.4998 25.5186L65.4766 25.3559C65.4533 25.1235 65.3836 24.9143 65.2906 24.7284C65.2442 24.6122 65.1744 24.5193 65.1047 24.4263C64.8026 24.0312 64.3378 23.7756 63.8265 23.7059L63.6174 23.6826L63.5012 23.5199C63.5012 23.4967 63.4779 23.4967 63.4779 23.4735C63.4547 23.4502 63.4547 23.427 63.4315 23.427L63.3153 23.3108L63.292 23.1481C63.2688 23.0319 63.2455 22.9389 63.1991 22.846C63.1758 22.7995 63.1293 22.7298 63.1061 22.6833C63.0364 22.5903 62.9434 22.5206 62.8505 22.4509L62.5019 22.265L62.6181 21.8932C62.8272 21.2657 62.711 20.5917 62.3159 20.0804C61.9441 19.5924 61.3863 19.3368 60.7589 19.3368H60.2244L60.2941 18.8023C60.3638 18.291 60.2244 17.7797 59.899 17.3614C59.8525 17.2917 59.7828 17.2219 59.7363 17.1755C59.225 16.6874 58.5046 16.5015 57.8074 16.7107L57.3659 16.8501L57.2264 16.4085C57.2032 16.3156 57.1567 16.2226 57.087 16.1297C57.0637 16.1064 57.0405 16.0832 57.0173 16.06C56.9011 15.9438 56.7384 15.8508 56.5757 15.8276L56.3898 15.7811L56.2736 15.6184C56.2503 15.5952 56.2271 15.5719 56.2271 15.5487C56.2039 15.5022 56.1806 15.479 56.1341 15.4557C56.0412 15.386 55.9482 15.3163 55.832 15.2698L55.5299 15.1536V14.8282C55.5299 14.3867 55.3905 13.9684 55.1116 13.6198C54.9721 13.4338 54.8095 13.2944 54.6003 13.1782C54.5306 13.1317 54.4609 13.0853 54.3447 13.062L54.2982 13.0388L54.2517 12.9923C54.1588 12.9226 54.089 12.8761 54.0193 12.8296C53.4383 12.481 52.7179 12.4578 52.1137 12.7831L51.7883 12.9458L51.5327 12.6902C51.4862 12.6205 51.4165 12.574 51.3467 12.5507C51.2305 12.481 51.0911 12.4345 50.9517 12.4113L50.8122 12.3881L50.696 12.2951C50.6728 12.2719 50.6263 12.2486 50.6031 12.2254C50.3009 12.0395 49.9291 12.0627 49.627 12.2719L49.046 12.6902L48.9066 11.993C48.8833 11.8535 48.8136 11.7373 48.7439 11.6211C48.6509 11.5049 48.558 11.4352 48.4185 11.3655C48.3256 11.319 48.2326 11.2958 48.1396 11.2958L48.0002 11.2725L47.884 11.1796C47.8143 11.1099 47.7446 11.0634 47.6516 11.0401C47.5354 10.9937 47.4192 10.9704 47.2798 10.9704H47.1868L47.0938 10.9239C46.8847 10.8542 46.6755 10.831 46.4664 10.9007L45.9783 11.0634L45.8389 10.5753C45.7692 10.3197 45.653 10.1106 45.4903 9.90139C45.2114 9.52956 44.7931 9.27392 44.3283 9.18096C44.3051 9.18096 44.3051 9.18096 44.2586 9.18096H44.2121C43.4684 9.04152 42.7015 9.34364 42.2832 9.97111L41.9578 10.4359L41.5628 10.0408C41.4233 9.90139 41.2839 9.83167 41.098 9.78519C40.9818 9.76195 40.8656 9.76195 40.7494 9.78519H40.7029H40.6564C40.3775 9.78519 40.1219 9.94787 39.9592 10.1803L39.5409 10.7845L39.1458 10.157C39.1458 10.1338 39.1458 10.1106 39.1226 10.0873C38.9599 9.90139 38.7507 9.76195 38.5183 9.73871C38.2859 9.71547 38.0535 9.78519 37.8676 9.92463L37.612 10.1338L37.3331 9.97111C37.1937 9.90139 37.0775 9.85491 36.938 9.83167H36.9148H36.8451L36.7986 9.80843C36.7289 9.78519 36.6824 9.78519 36.6127 9.78519C36.3803 9.78519 36.1711 9.85491 36.0084 10.0176L35.8458 10.157L35.3577 10.1106L35.2183 9.92463C34.7767 9.34364 34.0331 9.06476 33.3126 9.2042C33.1035 9.25068 32.8943 9.3204 32.7084 9.4366L32.5689 9.50632H32.4063C32.1971 9.48308 31.9647 9.50632 31.7555 9.5528C31.1048 9.71547 30.5936 10.2035 30.3844 10.831L30.3147 11.0169L30.1288 11.1099C29.8964 11.2261 29.7337 11.4352 29.664 11.6909L29.5013 12.3881L28.9203 11.9697C28.8971 11.9465 28.8506 11.9233 28.8041 11.9C26.085 21.8234 27.921 32.8391 34.7302 41.5773C41.8649 50.7338 52.7876 55.1958 63.5709 54.4754C63.6406 54.1501 63.6174 53.8015 63.4779 53.4761Z" fill="#844D44"/>
<g opacity="0.2">
<path opacity="0.2" d="M63.1758 56.1957C63.2687 56.126 63.3385 56.033 63.4082 55.94L63.2223 55.8936L63.1758 56.1957Z" fill="black"/>
<path opacity="0.2" d="M20.8342 15.0609L20.8575 15.2933L20.7413 15.5025C20.6948 15.5722 20.6715 15.6419 20.6715 15.7117L20.5553 16.2927H19.9511C19.8117 16.2927 19.6722 16.3391 19.5793 16.4089C19.4631 16.4786 19.3933 16.5948 19.3236 16.711L19.2539 16.8736C19.6257 16.5948 20.0905 16.5018 20.5553 16.5715L21.3687 16.7342L21.4152 15.8976C21.4152 15.8511 21.4152 15.8046 21.4385 15.7814L21.4849 15.5722L21.4152 15.3631C21.2061 14.7356 21.3455 14.0616 21.8103 13.5968C21.9962 13.3877 22.2518 13.2482 22.5075 13.1553C22.1821 13.1785 21.88 13.2715 21.6011 13.4574C21.0899 13.806 20.7877 14.4102 20.8342 15.0609Z" fill="black"/>
<path opacity="0.2" d="M56.3203 62.2149L56.4597 62.0523C56.5295 61.9825 56.5527 61.8896 56.5759 61.7734L56.6921 61.1924H57.2964C57.4358 61.1924 57.552 61.1459 57.6682 61.0762C57.8077 60.9832 57.9239 60.8205 57.9471 60.6346L58.0865 59.8909L58.807 60.0536C59.1323 60.1233 59.4577 60.1001 59.7598 59.9839C59.4809 60.0071 59.1788 59.9374 58.9232 59.8212L58.1795 59.4726L57.9006 60.2395C57.8309 60.4255 57.6915 60.5649 57.5055 60.6579C57.3661 60.7043 57.2267 60.7276 57.0872 60.6811L56.483 60.5184L56.2273 61.0994C56.1576 61.2853 55.9949 61.4248 55.809 61.4713C55.7626 61.4945 55.6928 61.4945 55.6231 61.4945H55.3675L55.1816 61.6572C55.1118 61.7269 55.0189 61.7734 54.9259 61.7966C54.7168 61.8431 54.5076 61.8199 54.3449 61.6804L53.4386 61.0065L53.1829 62.0987C53.1132 62.3544 52.9041 62.5635 52.6484 62.61C52.5787 62.61 52.509 62.6332 52.3928 62.6565L52.2766 62.6797L52.1139 63.0051C51.8815 63.4699 51.4632 63.8185 50.9519 63.9579C50.766 64.0044 50.5801 64.0276 50.3709 64.0044L50.1385 63.9812L49.9294 64.0974C49.7667 64.1903 49.5808 64.26 49.3716 64.3065C48.8603 64.3995 48.3258 64.26 47.9307 63.9347L47.768 63.7952L47.5589 63.772C47.4892 63.772 47.4427 63.7488 47.373 63.7255L47.0011 63.5628L46.6758 63.772C46.5828 63.8417 46.4666 63.865 46.3272 63.865H46.1877L46.0715 63.9114C45.9786 63.9579 45.8856 63.9579 45.7927 63.9579C45.6997 63.9579 45.5835 63.9114 45.4905 63.865L45.0955 63.6326L44.7004 63.8882C44.6074 63.9579 44.4448 64.0276 44.2588 64.0044C44.0729 63.9812 43.9102 63.8882 43.794 63.7488C43.7708 63.7255 43.7708 63.7023 43.7476 63.679L43.1433 62.7262L42.5158 63.6558C42.3764 63.865 42.0975 63.9812 41.8419 63.9347C41.7954 63.9347 41.7489 63.9114 41.6792 63.8882L41.6327 63.865L41.5863 63.8417C41.4468 63.7952 41.3306 63.7255 41.2609 63.6093C41.2377 63.5861 41.2377 63.5628 41.2144 63.5396L40.6102 62.5171L39.9595 63.5164C39.5644 64.1206 38.8672 64.4227 38.17 64.3065H38.1468C38.1003 64.3065 38.077 64.2833 38.0538 64.2833C37.6587 64.2136 37.2869 63.9812 37.008 63.6326C36.915 63.5164 36.8221 63.3769 36.7756 63.2375L36.52 62.6333L35.8925 62.7959C35.7531 62.8424 35.5904 62.8192 35.4509 62.7727C35.4277 62.7494 35.3812 62.7495 35.358 62.7262L35.2418 62.6565L35.1256 62.6333C35.0791 62.6333 35.0326 62.61 35.0094 62.5868C34.9861 62.5635 34.9397 62.5635 34.9164 62.5403L34.684 62.4009L34.4284 62.4473C34.2889 62.4706 34.1727 62.4473 34.0565 62.3776C33.9636 62.3311 33.8939 62.2614 33.8241 62.1917C33.7544 62.122 33.7079 62.0058 33.6847 61.9128L33.4523 60.8205L32.546 61.4713C32.3368 61.6339 32.0347 61.6339 31.8255 61.4945C31.779 61.4713 31.7558 61.448 31.7093 61.4015L31.5699 61.2621L31.384 61.2156C31.3142 61.1924 31.2445 61.1691 31.1748 61.1227C31.1051 61.0762 31.0586 61.0297 31.0121 60.96C30.9889 60.9367 30.9656 60.9135 30.9656 60.8903L30.617 60.286L29.9896 60.6114C29.4551 60.8903 28.8043 60.8903 28.2698 60.5649C28.2001 60.5184 28.1536 60.4719 28.0607 60.4255L27.9909 60.3557L27.898 60.3093C27.805 60.2628 27.7353 60.2395 27.6656 60.1931C27.4797 60.0769 27.3402 59.9374 27.2008 59.7747C26.9916 59.5191 26.8754 59.217 26.829 58.8916L26.7825 58.4733L26.4106 58.3106C26.3409 58.2874 26.2712 58.2409 26.2247 58.1944C26.2015 58.1712 26.1782 58.148 26.155 58.1247C26.1318 58.1015 26.1085 58.055 26.0853 58.0318L25.9458 57.7761L25.667 57.6832C25.574 57.6599 25.481 57.5902 25.4113 57.5205C25.3881 57.4972 25.3648 57.474 25.3648 57.4508C25.2951 57.3578 25.2486 57.2184 25.2254 57.1022L25.1324 56.1493L24.2493 56.4747C23.5986 56.7071 22.9014 56.5444 22.4134 56.0796C22.3669 56.0331 22.2972 55.9634 22.2507 55.9169C21.9718 55.5451 21.8324 55.0803 21.9021 54.6155L21.9951 53.7789H21.1584C20.6007 53.7789 20.0894 53.5465 19.764 53.1049C19.3922 52.6401 19.2992 52.0126 19.4852 51.4549L19.6478 50.9901L19.2992 50.6647C19.276 50.6415 19.2528 50.6183 19.2295 50.5718C19.2063 50.5485 19.183 50.5021 19.1598 50.4556L19.0668 50.1999L18.8577 50.0605C18.788 50.014 18.7182 49.9675 18.6718 49.8978C18.6485 49.8513 18.602 49.8049 18.602 49.7584C18.602 49.7351 18.5788 49.7119 18.5788 49.7119L18.4394 49.3168L18.0211 49.2471C17.5795 49.1774 17.1844 48.945 16.9288 48.5964C16.8591 48.5034 16.8126 48.4105 16.7429 48.3175C16.6499 48.1548 16.6034 47.9457 16.5569 47.7598L16.5337 47.5274L16.371 47.3647C16.3245 47.3182 16.3013 47.2717 16.2548 47.2252C16.1619 47.109 16.0921 46.9928 16.0457 46.8766C15.7668 46.2724 15.8597 45.5984 16.2548 45.0639L16.4407 44.8083L16.3478 44.1111L16.0921 43.9252C16.0457 43.8787 15.9992 43.8322 15.9527 43.7857C15.883 43.6928 15.8365 43.5998 15.8365 43.5069C15.7668 43.1583 15.9759 42.8097 16.3478 42.7167L17.0915 42.5308L16.8126 41.5547L16.6034 40.997L15.883 41.2061C15.7435 41.2526 15.5809 41.2758 15.302 41.0667C15.2323 41.0202 15.1858 40.9737 15.1393 40.9272C15.0928 40.8808 15.0696 40.8343 15.0696 40.7878C14.9999 40.6019 15.0231 40.416 15.1161 40.2533L15.5111 39.5096L14.721 39.2307C14.3956 39.1145 14.14 38.9286 13.9308 38.6497C13.7217 38.3941 13.6055 38.092 13.5822 37.7666C13.559 37.6504 13.559 37.511 13.5822 37.3948L13.6055 37.2553L13.559 37.1159C13.5125 36.9997 13.5125 36.8603 13.4893 36.7441C13.466 36.3025 13.6055 35.861 13.8844 35.5124L14.2794 35.0243L13.8844 34.5595C13.8611 34.5363 13.8379 34.513 13.8146 34.4898C13.559 34.1644 13.4196 33.7461 13.4428 33.351C13.466 32.7003 13.8611 32.1193 14.4421 31.8405L14.6978 31.7243L14.814 31.4454L14.9302 31.1433L14.814 30.8644C14.7675 30.7482 14.721 30.5855 14.7675 30.3996C14.7907 30.2834 14.8604 30.1672 14.9534 30.0742L15.5809 29.5165L14.9302 28.982C14.8372 28.9122 14.7442 28.8193 14.6745 28.7031C14.3492 28.2615 14.233 27.727 14.3492 27.1925C14.5118 26.565 14.9999 26.0537 15.6506 25.9143L15.9527 25.8446L16.3245 25.2171L16.2548 24.915C16.2316 24.822 16.2316 24.7291 16.2316 24.6361L16.2781 24.3572L16.1154 24.1248C15.79 23.6136 15.7203 23.0093 15.9759 22.4516C16.2316 21.8473 16.8126 21.4523 17.4633 21.4058L18.114 21.3593L18.1373 20.7086C18.1373 20.5691 18.1837 20.4529 18.2535 20.3367C18.2999 20.267 18.3697 20.1973 18.4626 20.1508L19.0668 19.779L18.695 19.1283C18.3697 18.5473 18.4161 17.8501 18.788 17.2923C18.8112 17.2691 18.8112 17.2458 18.8344 17.2226L18.4394 17.1064C17.8119 16.9205 17.1379 17.1064 16.6964 17.5712C16.2316 18.036 16.0921 18.7332 16.3013 19.3374L16.371 19.5466L16.3245 19.7557C16.3245 19.8022 16.3013 19.8255 16.3013 19.8719L16.2548 20.7086L15.4414 20.5459C14.7675 20.4297 14.0703 20.7086 13.6752 21.2663C13.3034 21.8008 13.2569 22.5213 13.5822 23.1023L13.9076 23.7298L13.3034 24.1016C13.2336 24.1481 13.1639 24.2178 13.0942 24.2875C13.0245 24.4037 12.978 24.5199 12.978 24.6593L12.9548 25.3101L12.3041 25.3565C11.6533 25.403 11.0956 25.7981 10.8167 26.4023C10.5843 26.9601 10.6308 27.5643 10.9561 28.0756L11.1188 28.308L11.0723 28.5869C11.0491 28.6798 11.0723 28.7728 11.0956 28.8658L11.1653 29.1679L10.7935 29.7954L10.4913 29.8651C9.81739 30.051 9.32935 30.539 9.16667 31.1665C9.02723 31.701 9.14343 32.2355 9.49203 32.6771C9.56175 32.7701 9.65471 32.863 9.74767 32.956L10.3984 33.4905L9.77091 34.0482C9.67795 34.1412 9.60823 34.2574 9.58499 34.3736C9.53851 34.5595 9.58499 34.7222 9.63147 34.8384L9.74767 35.1173L9.63147 35.4194L9.51527 35.6983L9.25963 35.8145C8.67864 36.0933 8.28356 36.6743 8.26032 37.3251C8.23708 37.7434 8.37652 38.1385 8.63216 38.4638C8.6554 38.4871 8.67864 38.5103 8.70188 38.5335L9.09695 38.9983L8.70188 39.4864C8.423 39.835 8.28356 40.2765 8.3068 40.7181C8.3068 40.8343 8.33004 40.9737 8.37652 41.0899L8.423 41.2294L8.39976 41.3688C8.37652 41.485 8.37652 41.6244 8.39976 41.7406C8.423 42.066 8.56244 42.3681 8.74836 42.6237C8.95751 42.8794 9.23639 43.0885 9.53851 43.2047L10.3287 43.4836L9.93359 44.2273C9.84063 44.39 9.84063 44.5759 9.88711 44.7618C9.91035 44.8083 9.93359 44.8548 9.95683 44.9013C10.0033 44.9477 10.0498 44.9942 10.1195 45.0407C10.3984 45.2498 10.5611 45.2034 10.7005 45.1801L11.4209 44.971L11.6069 45.6914L11.8857 46.6675L11.1421 46.8534C10.7935 46.9464 10.5611 47.295 10.6308 47.6436C10.654 47.7365 10.7005 47.8295 10.747 47.9224C10.7935 47.9689 10.8399 48.0154 10.8864 48.0619L11.1421 48.2478L11.235 48.945L11.0491 49.2006C10.654 49.7119 10.5611 50.4091 10.8399 51.0133C10.8864 51.1295 10.9561 51.2457 11.0491 51.3619C11.0956 51.4084 11.1188 51.4549 11.1653 51.5014L11.328 51.664L11.3512 51.8964C11.3745 52.1056 11.4442 52.2915 11.5371 52.4542C11.5836 52.5472 11.6533 52.6401 11.7231 52.7331C12.0019 53.0817 12.3738 53.3141 12.8153 53.3838L13.2336 53.4535L13.3731 53.8486C13.3731 53.8718 13.3963 53.8951 13.3963 53.8951C13.4196 53.9416 13.4428 53.988 13.466 54.0345C13.5125 54.1042 13.5822 54.1507 13.652 54.1972L13.8611 54.3366L13.9541 54.5923C13.9773 54.6387 14.0006 54.662 14.0238 54.7085C14.047 54.7317 14.0703 54.7549 14.0935 54.8014L14.4421 55.1268L14.2794 55.5916C14.0935 56.1493 14.1865 56.7768 14.5583 57.2416C14.9069 57.6832 15.4182 57.9156 15.9527 57.9156H16.7893L16.6964 58.7522C16.6267 59.217 16.7661 59.6818 17.045 60.0536C17.0915 60.1233 17.1379 60.1698 17.2077 60.2163C17.6957 60.6811 18.3929 60.8438 19.0436 60.6114L19.9267 60.286L20.0197 61.2389C20.0429 61.3551 20.0894 61.4945 20.1591 61.5875C20.1824 61.6107 20.1824 61.6339 20.2056 61.6572C20.2753 61.7269 20.3683 61.7966 20.4612 61.8199L20.7401 61.9128L20.8796 62.1685C20.9028 62.2149 20.926 62.2382 20.9493 62.2614C20.9725 62.2847 20.9958 62.3079 21.019 62.3311C21.0655 62.3776 21.1352 62.4241 21.2049 62.4473L21.5767 62.61L21.6232 63.0283C21.6697 63.3537 21.7859 63.6558 21.9951 63.9114C22.1113 64.0741 22.2739 64.2136 22.4599 64.3298C22.5296 64.3762 22.5993 64.3995 22.6923 64.446L22.7852 64.4924L22.8549 64.5622C22.9247 64.6319 22.9944 64.6784 23.0641 64.7016C23.5986 65.0037 24.2261 65.027 24.7838 64.7481L25.4113 64.4227L25.7599 65.027C25.7832 65.0502 25.7832 65.0734 25.8064 65.0967C25.8529 65.1664 25.9226 65.2129 25.9691 65.2593C26.0388 65.3058 26.1085 65.3291 26.1782 65.3523L26.3642 65.3988L26.5036 65.5382C26.5501 65.5847 26.5733 65.6079 26.6198 65.6312C26.8522 65.7706 27.1311 65.7474 27.3402 65.6079L28.2466 64.9572L28.479 66.0495C28.5022 66.1425 28.5487 66.2587 28.6184 66.3284C28.6881 66.3981 28.7579 66.4678 28.8508 66.5143C28.967 66.5608 29.1065 66.584 29.2227 66.584L29.4783 66.5375L29.7107 66.677C29.7339 66.7002 29.7572 66.7235 29.8037 66.7235C29.8501 66.7467 29.8734 66.7467 29.9199 66.7699L30.0361 66.7932L30.1523 66.8629C30.1987 66.8861 30.222 66.9094 30.2452 66.9094C30.3846 66.9791 30.5473 66.9791 30.6868 66.9326L31.3142 66.7699L31.5699 67.3742C31.6396 67.5136 31.7093 67.6531 31.8023 67.7693C32.0579 68.0946 32.4298 68.327 32.8481 68.42C32.8713 68.42 32.8946 68.42 32.941 68.4432H32.9643C33.6615 68.5826 34.3819 68.2573 34.7537 67.6531L35.4045 66.6537L36.0087 67.6763C36.0319 67.6995 36.0319 67.7228 36.0552 67.746C36.1481 67.8622 36.2643 67.9319 36.3805 67.9784L36.427 68.0017L36.4735 68.0249C36.5432 68.0481 36.5897 68.0714 36.6362 68.0714C36.8918 68.1179 37.1707 68.0017 37.3101 67.7925L37.9376 66.8629L38.5418 67.8157C38.5651 67.839 38.5651 67.8622 38.5883 67.8855C38.7045 68.0249 38.8672 68.1178 39.0531 68.1411C39.239 68.1643 39.4017 68.0946 39.4947 68.0249L39.8897 67.7693L40.2848 68.0017C40.3778 68.0714 40.494 68.0946 40.5869 68.0946C40.6799 68.0946 40.7729 68.0714 40.8658 68.0481L40.982 68.0017H41.1215C41.2609 68.0017 41.3771 67.9552 41.4701 67.9087L41.7954 67.6995L42.1672 67.8622C42.2137 67.8855 42.2834 67.9087 42.3532 67.9087L42.5623 67.9319L42.725 68.0714C43.1201 68.3967 43.6546 68.5362 44.1659 68.4432C44.3518 68.3967 44.5377 68.327 44.7236 68.2341L44.9328 68.1179L45.1652 68.1411C45.3743 68.1643 45.5603 68.1411 45.7462 68.0946C46.2575 67.9784 46.6758 67.6298 46.9082 67.1418L47.0709 66.8164L47.1871 66.7932C47.3033 66.7699 47.3962 66.7467 47.4427 66.7467C47.6983 66.7002 47.9075 66.4911 47.9772 66.2354L48.2328 65.1432L49.1392 65.8171C49.3019 65.9333 49.511 65.9798 49.7202 65.9333C49.8132 65.9101 49.9061 65.8636 49.9758 65.7939L50.1618 65.6312H50.4174C50.4871 65.6312 50.5336 65.6079 50.6033 65.6079C50.7892 65.5382 50.9287 65.422 51.0216 65.2361L51.2773 64.6551L51.8815 64.8178C52.0209 64.8643 52.1604 64.841 52.2998 64.7946C52.4857 64.7248 52.6252 64.5854 52.6949 64.3762L52.9738 63.6093L53.7174 63.9579C54.2752 64.2136 54.9492 64.1671 55.4604 63.8417C55.902 63.5396 56.1809 63.0748 56.2273 62.5403L56.3203 62.2149Z" fill="black"/>
</g>
<path fill-rule="evenodd" clip-rule="evenodd" d="M63.7614 38.4977C63.7614 24.5483 52.4526 13.2359 38.5 13.2331C24.5474 13.2302 13.2386 24.5381 13.2386 38.4875C13.2386 52.4369 24.5474 63.7493 38.5 63.7521C52.4526 63.755 63.7614 52.4471 63.7614 38.4977ZM38.5 1.9926C58.6573 1.99669 75 18.3406 75 38.5C75 58.6594 58.6573 74.9967 38.5 74.9926C18.3427 74.9885 2 58.6447 2 38.4852C2 18.3258 18.3427 1.98852 38.5 1.9926Z" fill="black"/>
</svg>
