<svg width="78" height="78" viewBox="0 0 78 78" fill="none" xmlns="http://www.w3.org/2000/svg">
<path d="M37.2947 16.1211L53.3527 26.7533L61.1523 48.2975L50.8293 58.0903L35.6889 62.8468L20.319 58.3701L13.8958 50.8156V41.8622L21.0072 23.116L37.2947 16.1211Z" fill="#686D84"/>
<path fill-rule="evenodd" clip-rule="evenodd" d="M38.4124 3.66895L12.3769 14.8502L2.89482 39.8457V54.8597L14.0747 68.0085L35.8084 74.3388L56.5528 67.8218L73.9453 51.3226L62.4568 19.589L38.4124 3.66895ZM61.1514 48.2973L53.3518 26.7531L37.2937 16.1209L21.0062 23.1158L13.8948 41.862V50.8154L20.318 58.3699L35.6879 62.8466L50.8284 58.0901L61.1514 48.2973Z" fill="black"/>
<path d="M13.8968 50.8154L18.9436 36.2661L24.4492 44.1004L20.32 58.3699L13.8968 50.8154Z" fill="#777E94"/>
<path d="M42.5697 27.3125L52.2046 42.981L53.3516 26.7529L42.5697 27.3125Z" fill="#82889C"/>
<path d="M37.5229 18.0796L41.1933 18.6392L53.3516 26.7532L42.5697 27.3128L29.9527 29.2714L29.4939 20.5977L37.5229 18.0796Z" fill="#C3C4C8"/>
<path d="M52.2057 42.9814L50.8293 58.0904L61.1523 48.2975L52.2057 42.9814Z" fill="#585E77"/>
<path d="M52.2067 42.981L53.3537 26.7529L56.3359 43.5406L52.2067 42.981Z" fill="#777E94"/>
<path d="M52.207 42.981L43.9486 46.3385L42.5722 27.3125L52.207 42.981Z" fill="#777E94"/>
<path d="M43.9492 46.3379L35.6908 62.8458L32.4792 44.939L43.9492 46.3379Z" fill="#6D758C"/>
<path d="M43.9486 46.339L50.8306 58.0904L52.207 42.9814L43.9486 46.339Z" fill="#636880"/>
<path d="M21.0066 23.1158L29.4945 20.5977L29.9533 29.2713L42.5703 27.3127L32.4767 44.9398L18.942 36.2662L21.0066 23.1158Z" fill="#959AAB"/>
</svg>
