<svg width="134" height="134" viewBox="0 0 134 134" fill="none" xmlns="http://www.w3.org/2000/svg">
<mask id="mask0_2024_5179" style="mask-type:alpha" maskUnits="userSpaceOnUse" x="0" y="0" width="134" height="134">
<path d="M66.6025 133.637C29.8756 133.637 0.102539 103.844 0.10254 67.1367C0.10254 30.4292 29.8756 0.636719 66.6025 0.63672C103.329 0.63672 133.103 30.4292 133.103 67.1367C133.103 103.844 103.329 133.637 66.6025 133.637Z" fill="#EDEB7F"/>
</mask>
<g mask="url(#mask0_2024_5179)">
<path d="M134.794 65.465C134.794 26.7102 104.346 -4.70679 66.7857 -4.70679C29.2257 -4.70679 -1.22265 26.7102 -1.22266 65.465C-1.22266 104.22 29.2257 135.637 66.7857 135.637C104.346 135.637 134.794 104.22 134.794 65.465Z" fill="#567000"/>
<path d="M58.8609 123.064L62.3889 113.518L54.918 113.622L58.8609 123.064Z" fill="#799E00"/>
<path d="M32.4021 122.856L40.9107 111.546L30.4307 109.99L32.4021 122.856Z" fill="#799E00"/>
<path d="M121.534 111.858L118.11 102.312L111.78 105.114L121.534 111.858Z" fill="#799E00"/>
<path d="M92.4802 122.649L92.8953 109.679L82.7266 111.962L92.4802 122.649Z" fill="#799E00"/>
<path d="M128.174 89.6531C128.174 74.6389 100.719 62.4674 66.8509 62.4674C32.9828 62.4674 5.52734 74.6389 5.52734 89.6531C5.52734 104.667 32.9828 116.839 66.8509 116.839C100.719 116.839 128.174 104.667 128.174 89.6531Z" fill="#799E00"/>
<path d="M58.8609 11.9356L62.3889 21.3779L54.918 21.2742L58.8609 11.9356Z" fill="#799E00"/>
<path d="M5.42383 25.7354L17.564 29.6784L12.791 33.9326L5.42383 25.7354Z" fill="#799E00"/>
<path d="M32.4021 12.0387L40.9107 23.3488L30.4307 24.9053L32.4021 12.0387Z" fill="#799E00"/>
<path d="M121.534 23.0378L118.11 32.584L111.78 29.7824L121.534 23.0378Z" fill="#799E00"/>
<path d="M92.4802 12.3503L92.8953 25.2168L82.7266 23.0378L92.4802 12.3503Z" fill="#799E00"/>
<path d="M128.174 44.8279C128.174 29.8137 100.719 17.6422 66.8509 17.6422C32.9828 17.6422 5.52734 29.8137 5.52734 44.8279C5.52734 59.8422 32.9828 72.0137 66.8509 72.0137C100.719 72.0137 128.174 59.8422 128.174 44.8279Z" fill="#799E00"/>
<path d="M38.6272 101.274L44.5417 92.5584L37.2783 91.5208L38.6272 101.274Z" fill="#88B200"/>
<path d="M12.583 97.2275L23.9969 87.4739L14.2432 84.361L12.583 97.2275Z" fill="#88B200"/>
<path d="M102.96 99.5107L102.234 89.7571L95.1777 91.521L102.96 99.5107Z" fill="#88B200"/>
<path d="M71.6244 105.84L75.4636 93.1808L64.8799 93.9072L71.6244 105.84Z" fill="#88B200"/>
<path d="M38.6272 33.3105L44.5417 42.1303L37.2783 43.168L38.6272 33.3105Z" fill="#88B200"/>
<path d="M12.583 37.3571L23.9969 47.2145L14.2432 50.2236L12.583 37.3571Z" fill="#88B200"/>
<path d="M102.96 35.0742L102.234 44.9316L95.1777 43.0639L102.96 35.0742Z" fill="#88B200"/>
<path d="M71.6244 28.8481L75.4636 41.4033L64.8799 40.7807L71.6244 28.8481Z" fill="#88B200"/>
<path d="M137.409 67.2401C137.409 52.2258 105.587 40.0543 66.3321 40.0543C27.0772 40.0543 -4.74512 52.2258 -4.74512 67.2401C-4.74512 82.2543 27.0772 94.4258 66.3321 94.4258C105.587 94.4258 137.409 82.2543 137.409 67.2401Z" fill="#88B200"/>
<path d="M137.409 67.2406C137.409 64.6045 105.587 62.4675 66.3321 62.4675C27.0772 62.4675 -4.74512 64.6045 -4.74512 67.2406C-4.74512 69.8767 27.0772 72.0137 66.3321 72.0137C105.587 72.0137 137.409 69.8767 137.409 67.2406Z" fill="#A1C42D"/>
<path d="M60.7796 60.0629L68.2786 60.7638C68.6356 60.7638 68.6356 61.1143 68.6356 61.1143L63.9934 66.7216C63.6364 67.0721 63.9934 67.4226 64.3505 67.0721L70.064 62.5161C70.4211 62.5161 70.4211 62.5161 70.4211 62.8666L71.1353 70.2262C71.1353 70.5767 71.8495 70.5767 71.8495 70.2262L72.5637 62.8666C72.5637 62.5161 72.9208 62.5161 72.9208 62.5161L78.6342 67.0721C78.9913 67.4226 79.3484 67.0721 78.9913 66.7216L74.3491 61.1143C74.3491 60.7638 74.3491 60.7638 74.7062 60.7638L82.2052 60.0629C82.5623 60.0629 82.5623 59.362 82.2052 59.362L74.7062 58.6611C74.3491 58.6611 74.3491 58.3106 74.3491 58.3106L78.9913 52.7032C79.3484 52.3528 78.9913 52.0023 78.6342 52.3528L72.9208 56.9088C72.5637 56.9088 72.5637 56.9088 72.5637 56.5583L71.1353 49.8996C71.1353 49.5491 70.4211 49.5491 70.4211 49.8996L69.7069 57.2592C69.7069 57.6097 69.3498 57.6097 69.3498 57.6097L63.6364 53.0537C63.2793 52.7032 62.9222 53.0537 63.2793 53.4042L67.9215 59.0115C67.9215 59.362 67.9215 59.362 67.5644 59.362L60.0654 60.0629C60.4225 59.362 60.4225 60.0629 60.7796 60.0629Z" fill="#648200"/>
<path d="M21.8167 88.599L29.3157 89.2999C29.6728 89.2999 29.6728 89.6504 29.6728 89.6504L25.0306 95.2578C24.6735 95.6082 25.0306 95.9587 25.3876 95.6082L31.1011 91.0522C31.4582 91.0522 31.4582 91.0523 31.4582 91.4027L32.1724 98.7624C32.1724 99.1128 32.8866 99.1128 32.8866 98.7624L33.6008 91.4027C33.6008 91.0523 33.9579 91.0522 33.9579 91.0522L39.6713 95.6082C40.0284 95.9587 40.3855 95.6082 40.0284 95.2578L35.3862 89.6504C35.3862 89.3 35.3862 89.2999 35.7433 89.2999L43.2423 88.599C43.5994 88.599 43.5994 87.8981 43.2423 87.8981L35.7433 87.1972C35.3862 87.1972 35.3862 86.8467 35.3862 86.8467L40.0284 81.2394C40.3855 80.8889 40.0284 80.5385 39.6713 80.8889L33.9579 85.4449C33.6008 85.4449 33.6008 85.4449 33.6008 85.0944L32.1724 78.4357C32.1724 78.0852 31.4582 78.0852 31.4582 78.4357L30.744 85.7954C30.744 86.1458 30.3869 86.1458 30.3869 86.1458L24.6735 81.5898C24.3164 81.2394 23.9593 81.5898 24.3164 81.9403L28.9586 87.5477C28.9586 87.8981 28.9586 87.8981 28.6015 87.8981L21.1025 88.599C21.4596 87.8981 21.4596 88.599 21.8167 88.599Z" fill="#648200"/>
<path d="M64.8675 113.838L72.3664 114.539C72.7235 114.539 72.7235 114.89 72.7235 114.89L68.0813 120.497C67.7242 120.847 68.0813 121.198 68.4384 120.847L74.1519 116.292C74.509 116.292 74.509 116.292 74.509 116.642L75.2232 124.002C75.2232 124.352 75.9374 124.352 75.9374 124.002L76.6516 116.642C76.6516 116.292 77.0087 116.292 77.0087 116.292L82.7221 120.847C83.0792 121.198 83.4363 120.847 83.0792 120.497L78.437 114.89C78.437 114.539 78.437 114.539 78.7941 114.539L86.2931 113.838C86.6501 113.838 86.6501 113.137 86.2931 113.137L78.7941 112.436C78.437 112.436 78.437 112.086 78.437 112.086L83.0792 106.479C83.4363 106.128 83.0792 105.778 82.7221 106.128L77.0087 110.684C76.6516 110.684 76.6516 110.684 76.6516 110.334L75.2232 103.675C75.2232 103.324 74.509 103.324 74.509 103.675L73.7948 111.035C73.7948 111.385 73.4377 111.385 73.4377 111.385L67.7242 106.829C67.3672 106.479 67.0101 106.829 67.3672 107.18L72.0094 112.787C72.0094 113.137 72.0094 113.137 71.6523 113.137L64.1533 113.838C64.5104 113.137 64.5104 113.838 64.8675 113.838Z" fill="#648200"/>
<path d="M101.46 77.0629L108.959 77.7638C109.316 77.7638 109.316 78.1143 109.316 78.1143L104.674 83.7216C104.317 84.0721 104.674 84.4226 105.031 84.0721L110.745 79.5161C111.102 79.5161 111.102 79.5161 111.102 79.8666L111.816 87.2262C111.816 87.5767 112.53 87.5767 112.53 87.2262L113.244 79.8666C113.244 79.5161 113.601 79.5161 113.601 79.5161L119.315 84.0721C119.672 84.4226 120.029 84.0721 119.672 83.7216L115.03 78.1143C115.03 77.7638 115.03 77.7638 115.387 77.7638L122.886 77.0629C123.243 77.0629 123.243 76.362 122.886 76.362L115.387 75.6611C115.03 75.6611 115.03 75.3106 115.03 75.3106L119.672 69.7032C120.029 69.3528 119.672 69.0023 119.315 69.3528L113.601 73.9088C113.244 73.9088 113.244 73.9088 113.244 73.5583L111.816 66.8996C111.816 66.5491 111.102 66.5491 111.102 66.8996L110.388 74.2592C110.388 74.6097 110.031 74.6097 110.031 74.6097L104.317 70.0537C103.96 69.7032 103.603 70.0537 103.96 70.4042L108.602 76.0115C108.602 76.362 108.602 76.362 108.245 76.362L100.746 77.0629C101.103 76.362 101.103 77.0629 101.46 77.0629Z" fill="#648200"/>
<path d="M64.8675 23.9252L72.3664 24.6261C72.7235 24.6261 72.7235 24.9766 72.7235 24.9766L68.0813 30.5839C67.7242 30.9344 68.0813 31.2849 68.4384 30.9344L74.1519 26.3784C74.509 26.3784 74.509 26.3784 74.509 26.7289L75.2232 34.0885C75.2232 34.439 75.9374 34.439 75.9374 34.0885L76.6516 26.7289C76.6516 26.3784 77.0087 26.3784 77.0087 26.3784L82.7221 30.9344C83.0792 31.2849 83.4363 30.9344 83.0792 30.5839L78.437 24.9766C78.437 24.6261 78.437 24.6261 78.7941 24.6261L86.2931 23.9252C86.6501 23.9252 86.6501 23.2243 86.2931 23.2243L78.7941 22.5234C78.437 22.5234 78.437 22.1729 78.437 22.1729L83.0792 16.5655C83.4363 16.2151 83.0792 15.8646 82.7221 16.2151L77.0087 20.7711C76.6516 20.7711 76.6516 20.7711 76.6516 20.4206L75.2232 13.7619C75.2232 13.4114 74.509 13.4114 74.509 13.7619L73.7948 21.1215C73.7948 21.472 73.4377 21.472 73.4377 21.472L67.7242 16.916C67.3672 16.5655 67.0101 16.916 67.3672 17.2665L72.0094 22.8738C72.0094 23.2243 72.0094 23.2243 71.6523 23.2243L64.1533 23.9252C64.5104 23.2243 64.5104 23.9252 64.8675 23.9252Z" fill="#648200"/>
<path d="M23.6136 36.3637L31.1125 37.0646C31.4696 37.0646 31.4696 37.4151 31.4696 37.4151L26.8274 43.0224C26.4703 43.3729 26.8274 43.7233 27.1845 43.3729L32.898 38.8169C33.2551 38.8169 33.2551 38.8169 33.2551 39.1674L33.9693 46.527C33.9693 46.8775 34.6835 46.8775 34.6835 46.527L35.3977 39.1674C35.3977 38.8169 35.7547 38.8169 35.7547 38.8169L41.4682 43.3729C41.8253 43.7233 42.1824 43.3729 41.8253 43.0224L37.1831 37.4151C37.1831 37.0646 37.1831 37.0646 37.5402 37.0646L45.0392 36.3637C45.3962 36.3637 45.3962 35.6628 45.0392 35.6628L37.5402 34.9618C37.1831 34.9618 37.1831 34.6114 37.1831 34.6114L41.8253 29.004C42.1824 28.6536 41.8253 28.3031 41.4682 28.6536L35.7547 33.2095C35.3977 33.2095 35.3977 33.2095 35.3977 32.8591L33.9693 26.2003C33.9693 25.8499 33.2551 25.8499 33.2551 26.2003L32.5409 33.56C32.5409 33.9105 32.1838 33.9105 32.1838 33.9105L26.4703 29.3545C26.1132 29.004 25.7562 29.3545 26.1132 29.7049L30.7554 35.3123C30.7554 35.6628 30.7555 35.6628 30.3984 35.6628L22.8994 36.3637C23.2565 35.6628 23.2565 36.3637 23.6136 36.3637Z" fill="#648200"/>
<path d="M84.6572 91.2118C88.9513 91.2118 94.6257 96.7329 94.6257 96.7329C94.6257 96.7329 88.9513 102.407 84.6572 102.407C80.363 102.407 77.6025 99.9534 77.6025 96.7329C77.6025 93.6656 80.363 91.2118 84.6572 91.2118Z" fill="#D46CA6"/>
<path d="M83.4298 97.6539C87.1105 95.5068 94.7786 97.5005 94.7786 97.5005C94.7786 97.5005 92.6315 105.169 88.9509 107.316C85.2702 109.309 81.5895 108.543 80.0559 105.935C78.5223 103.328 79.7492 99.8009 83.4298 97.6539Z" fill="#FFB3DE"/>
<path d="M85.4243 103.787C87.5714 100.107 95.2394 97.9597 95.2394 97.9597C95.2394 97.9597 97.2331 105.628 95.0861 109.308C92.939 112.989 89.4117 114.216 86.6512 112.682C84.044 111.149 83.2772 107.468 85.4243 103.787Z" fill="#FF8CCC"/>
<path d="M90.1777 108.082C90.1777 103.788 95.6987 98.1136 95.6987 98.1136C95.6987 98.1136 101.22 103.788 101.22 108.082C101.22 112.376 98.766 115.137 95.6987 115.137C92.7849 115.137 90.1777 112.376 90.1777 108.082Z" fill="#FFB3DE"/>
<path d="M96.6197 109.308C94.4727 105.628 96.4664 97.9597 96.4664 97.9597C96.4664 97.9597 104.134 100.107 106.281 103.787C108.275 107.468 107.662 111.149 104.901 112.682C102.294 114.216 98.7668 112.989 96.6197 109.308Z" fill="#FF8CCC"/>
<path d="M102.754 107.316C99.0728 105.169 96.9258 97.5005 96.9258 97.5005C96.9258 97.5005 104.594 95.5068 108.275 97.6539C111.955 99.8009 113.182 103.328 111.648 105.935C110.115 108.696 106.434 109.463 102.754 107.316Z" fill="#FFB3DE"/>
<path d="M107.048 102.562C102.753 102.562 97.0791 97.0405 97.0791 97.0405C97.0791 97.0405 102.753 91.5195 107.048 91.5195C111.342 91.5195 114.102 93.9733 114.102 97.0405C114.102 99.9544 111.342 102.562 107.048 102.562Z" fill="#ED7EBC"/>
<path d="M108.428 96.1205C104.747 98.2676 97.0791 96.2739 97.0791 96.2739C97.0791 96.2739 99.2262 88.6058 102.907 86.4587C106.588 84.3117 110.268 85.0785 111.802 87.6856C113.182 90.4461 112.109 93.9735 108.428 96.1205Z" fill="#FFB3DE"/>
<path d="M106.281 89.9857C104.134 93.6664 96.4664 95.8135 96.4664 95.8135C96.4664 95.8135 94.4727 88.1454 96.6197 84.4647C98.7668 80.7841 102.294 79.5572 104.901 81.0908C107.662 82.6244 108.429 86.3051 106.281 89.9857Z" fill="#FF8CCC"/>
<path d="M101.527 85.6917C101.527 89.9858 96.0064 95.6602 96.0064 95.6602C96.0064 95.6602 90.4854 89.9858 90.4854 85.6917C90.4854 81.3975 92.9391 78.637 96.0064 78.637C99.0736 78.637 101.527 81.3975 101.527 85.6917Z" fill="#FFB3DE"/>
<path d="M95.0861 84.3114C97.2331 87.9921 95.2394 95.6602 95.2394 95.6602C95.2394 95.6602 87.5714 93.5131 85.4243 89.8324C83.2772 86.1518 84.044 82.4711 86.6512 80.9375C89.4117 79.5572 92.939 80.6307 95.0861 84.3114Z" fill="#FF8CCC"/>
<path d="M88.9509 86.4587C92.6315 88.6058 94.7786 96.2739 94.7786 96.2739C94.7786 96.2739 87.1105 98.2676 83.4298 96.1205C79.7492 93.9735 78.5223 90.4461 80.0559 87.839C81.5895 85.0785 85.2702 84.3117 88.9509 86.4587Z" fill="#FFB3DE"/>
<path d="M85.2706 99.9544C88.0311 97.3473 95.0858 97.654 95.0858 97.654C95.0858 97.654 94.779 104.709 92.0185 107.162C89.258 109.77 85.8841 109.77 84.0438 107.776C82.0501 105.782 82.5101 102.408 85.2706 99.9544Z" fill="#ED7EBC"/>
<path d="M88.1842 104.861C89.2578 101.334 95.5456 97.9601 95.5456 97.9601C95.5456 97.9601 98.6128 104.095 97.5393 107.775C96.4657 111.303 93.5519 113.143 90.9447 112.223C88.3376 111.456 87.1107 108.389 88.1842 104.861Z" fill="#D46CA6"/>
<path d="M98.9199 107.469C96.3128 104.708 96.6195 97.6535 96.6195 97.6535C96.6195 97.6535 103.674 97.9602 106.128 100.721C108.735 103.481 108.735 106.855 106.741 108.696C104.748 110.689 101.527 110.229 98.9199 107.469Z" fill="#D46CA6"/>
<path d="M103.827 104.554C100.3 103.481 96.9258 97.193 96.9258 97.193C96.9258 97.193 103.214 93.9724 106.741 95.0459C110.268 96.1195 112.109 99.0333 111.188 101.64C110.422 104.401 107.508 105.628 103.827 104.554Z" fill="#FF8CCC"/>
<path d="M106.434 93.8193C103.674 96.4265 96.6191 96.1197 96.6191 96.1197C96.6191 96.1197 96.9259 89.0651 99.6864 86.6113C102.447 84.0042 105.821 84.0042 107.661 85.9979C109.655 87.9916 109.348 91.2122 106.434 93.8193Z" fill="#ED7EBC"/>
<path d="M103.52 88.9122C102.447 92.4395 96.1591 95.8135 96.1591 95.8135C96.1591 95.8135 92.9385 89.5257 94.0121 85.9984C95.0856 82.471 97.9995 80.6307 100.607 81.5509C103.367 82.3177 104.747 85.2315 103.52 88.9122Z" fill="#D46CA6"/>
<path d="M98.6135 86.1517C99.3803 89.8324 95.6996 95.8135 95.6996 95.8135C95.6996 95.8135 89.8719 91.9794 88.9517 88.2988C88.1849 84.6181 89.7185 81.7042 92.3257 81.0908C95.0862 80.4773 97.6933 82.471 98.6135 86.1517Z" fill="#ED7EBC"/>
<path d="M85.117 94.1258C88.7977 93.359 94.7788 97.0397 94.7788 97.0397C94.7788 97.0397 90.9447 103.021 87.2641 103.788C83.5834 104.554 80.6695 103.021 80.0561 100.414C79.4426 97.6531 81.4363 95.046 85.117 94.1258Z" fill="#FF8CCC"/>
<path d="M92.7858 86.1517C95.3929 88.9122 95.0862 95.9668 95.0862 95.9668C95.0862 95.9668 88.0316 95.6601 85.5778 92.8996C82.9707 90.1391 82.9707 86.7651 84.9644 84.9248C86.9581 83.0844 90.332 83.3912 92.7858 86.1517Z" fill="#D46CA6"/>
<path d="M106.588 99.4935C102.907 100.26 96.9258 96.5797 96.9258 96.5797C96.9258 96.5797 100.76 90.7519 104.44 89.8318C108.121 89.065 111.035 90.5986 111.648 93.2057C112.262 95.9662 110.268 98.7267 106.588 99.4935Z" fill="#D46CA6"/>
<path d="M87.8779 89.2188C91.4052 90.2923 94.7791 96.5801 94.7791 96.5801C94.7791 96.5801 88.4913 99.8007 84.964 98.7272C81.4367 97.6537 79.5964 94.7398 80.5165 92.1327C81.2833 89.3722 84.3506 87.9919 87.8779 89.2188Z" fill="#ED7EBC"/>
<path d="M93.2457 107.622C92.4789 103.942 96.1596 97.9605 96.1596 97.9605C96.1596 97.9605 101.987 101.795 102.907 105.475C103.674 109.156 101.987 112.07 99.3802 112.683C96.773 113.297 94.0125 111.303 93.2457 107.622Z" fill="#ED7EBC"/>
<path d="M98.9196 97.1935C98.9196 95.4995 97.5464 94.1263 95.8524 94.1263C94.1584 94.1263 92.7852 95.4995 92.7852 97.1935C92.7852 98.8875 94.1584 100.261 95.8524 100.261C97.5464 100.261 98.9196 98.8875 98.9196 97.1935Z" fill="#FFB735"/>
<g style="mix-blend-mode:multiply">
<path d="M84.6572 91.2118C88.9513 91.2118 94.6257 96.7329 94.6257 96.7329C94.6257 96.7329 88.9513 102.407 84.6572 102.407C80.363 102.407 77.6025 99.9534 77.6025 96.7329C77.6025 93.6656 80.363 91.2118 84.6572 91.2118Z" fill="#D46CA6"/>
<path d="M83.4298 97.6539C87.1105 95.5068 94.7786 97.5005 94.7786 97.5005C94.7786 97.5005 92.6315 105.169 88.9509 107.316C85.2702 109.309 81.5895 108.543 80.0559 105.935C78.5223 103.328 79.7492 99.8009 83.4298 97.6539Z" fill="#FFB3DE"/>
<path d="M85.4243 103.787C87.5714 100.107 95.2394 97.9597 95.2394 97.9597C95.2394 97.9597 97.2331 105.628 95.0861 109.308C92.939 112.989 89.4117 114.216 86.6512 112.682C84.044 111.149 83.2772 107.468 85.4243 103.787Z" fill="#FF8CCC"/>
<path d="M90.1777 108.082C90.1777 103.788 95.6987 98.1136 95.6987 98.1136C95.6987 98.1136 101.22 103.788 101.22 108.082C101.22 112.376 98.766 115.137 95.6987 115.137C92.7849 115.137 90.1777 112.376 90.1777 108.082Z" fill="#FFB3DE"/>
<path d="M96.6197 109.308C94.4727 105.628 96.4664 97.9597 96.4664 97.9597C96.4664 97.9597 104.134 100.107 106.281 103.787C108.275 107.468 107.662 111.149 104.901 112.682C102.294 114.216 98.7668 112.989 96.6197 109.308Z" fill="#FF8CCC"/>
<path d="M102.754 107.316C99.0728 105.169 96.9258 97.5005 96.9258 97.5005C96.9258 97.5005 104.594 95.5068 108.275 97.6539C111.955 99.8009 113.182 103.328 111.648 105.935C110.115 108.696 106.434 109.463 102.754 107.316Z" fill="#FFB3DE"/>
<path d="M107.048 102.562C102.753 102.562 97.0791 97.0405 97.0791 97.0405C97.0791 97.0405 102.753 91.5195 107.048 91.5195C111.342 91.5195 114.102 93.9733 114.102 97.0405C114.102 99.9544 111.342 102.562 107.048 102.562Z" fill="#ED7EBC"/>
<path d="M108.428 96.1205C104.747 98.2676 97.0791 96.2739 97.0791 96.2739C97.0791 96.2739 99.2262 88.6058 102.907 86.4587C106.588 84.3117 110.268 85.0785 111.802 87.6856C113.182 90.4461 112.109 93.9735 108.428 96.1205Z" fill="#FFB3DE"/>
<path d="M106.281 89.9857C104.134 93.6664 96.4664 95.8135 96.4664 95.8135C96.4664 95.8135 94.4727 88.1454 96.6197 84.4647C98.7668 80.7841 102.294 79.5572 104.901 81.0908C107.662 82.6244 108.429 86.3051 106.281 89.9857Z" fill="#FF8CCC"/>
<path d="M101.527 85.6917C101.527 89.9858 96.0064 95.6602 96.0064 95.6602C96.0064 95.6602 90.4854 89.9858 90.4854 85.6917C90.4854 81.3975 92.9391 78.637 96.0064 78.637C99.0736 78.637 101.527 81.3975 101.527 85.6917Z" fill="#FFB3DE"/>
<path d="M95.0861 84.3114C97.2331 87.9921 95.2394 95.6602 95.2394 95.6602C95.2394 95.6602 87.5714 93.5131 85.4243 89.8324C83.2772 86.1518 84.044 82.4711 86.6512 80.9375C89.4117 79.5572 92.939 80.6307 95.0861 84.3114Z" fill="#FF8CCC"/>
<path d="M88.9509 86.4587C92.6315 88.6058 94.7786 96.2739 94.7786 96.2739C94.7786 96.2739 87.1105 98.2676 83.4298 96.1205C79.7492 93.9735 78.5223 90.4461 80.0559 87.839C81.5895 85.0785 85.2702 84.3117 88.9509 86.4587Z" fill="#FFB3DE"/>
<path d="M85.2706 99.9544C88.0311 97.3473 95.0858 97.654 95.0858 97.654C95.0858 97.654 94.779 104.709 92.0185 107.162C89.258 109.77 85.8841 109.77 84.0438 107.776C82.0501 105.782 82.5101 102.408 85.2706 99.9544Z" fill="#ED7EBC"/>
<path d="M88.1842 104.861C89.2578 101.334 95.5456 97.9601 95.5456 97.9601C95.5456 97.9601 98.6128 104.095 97.5393 107.775C96.4657 111.303 93.5519 113.143 90.9447 112.223C88.3376 111.456 87.1107 108.389 88.1842 104.861Z" fill="#D46CA6"/>
<path d="M98.9199 107.469C96.3128 104.708 96.6195 97.6535 96.6195 97.6535C96.6195 97.6535 103.674 97.9602 106.128 100.721C108.735 103.481 108.735 106.855 106.741 108.696C104.748 110.689 101.527 110.229 98.9199 107.469Z" fill="#D46CA6"/>
<path d="M103.827 104.554C100.3 103.481 96.9258 97.193 96.9258 97.193C96.9258 97.193 103.214 93.9724 106.741 95.0459C110.268 96.1195 112.109 99.0333 111.188 101.64C110.422 104.401 107.508 105.628 103.827 104.554Z" fill="#FF8CCC"/>
<path d="M106.434 93.8193C103.674 96.4265 96.6191 96.1197 96.6191 96.1197C96.6191 96.1197 96.9259 89.0651 99.6864 86.6113C102.447 84.0042 105.821 84.0042 107.661 85.9979C109.655 87.9916 109.348 91.2122 106.434 93.8193Z" fill="#ED7EBC"/>
<path d="M103.52 88.9122C102.447 92.4395 96.1591 95.8135 96.1591 95.8135C96.1591 95.8135 92.9385 89.5257 94.0121 85.9984C95.0856 82.471 97.9995 80.6307 100.607 81.5509C103.367 82.3177 104.747 85.2315 103.52 88.9122Z" fill="#D46CA6"/>
<path d="M98.6135 86.1517C99.3803 89.8324 95.6996 95.8135 95.6996 95.8135C95.6996 95.8135 89.8719 91.9794 88.9517 88.2988C88.1849 84.6181 89.7185 81.7042 92.3257 81.0908C95.0862 80.4773 97.6933 82.471 98.6135 86.1517Z" fill="#ED7EBC"/>
<path d="M85.117 94.1258C88.7977 93.359 94.7788 97.0397 94.7788 97.0397C94.7788 97.0397 90.9447 103.021 87.2641 103.788C83.5834 104.554 80.6695 103.021 80.0561 100.414C79.4426 97.6531 81.4363 95.046 85.117 94.1258Z" fill="#FF8CCC"/>
<path d="M92.7858 86.1517C95.3929 88.9122 95.0862 95.9668 95.0862 95.9668C95.0862 95.9668 88.0316 95.6601 85.5778 92.8996C82.9707 90.1391 82.9707 86.7651 84.9644 84.9248C86.9581 83.0844 90.332 83.3912 92.7858 86.1517Z" fill="#D46CA6"/>
<path d="M106.588 99.4935C102.907 100.26 96.9258 96.5797 96.9258 96.5797C96.9258 96.5797 100.76 90.7519 104.44 89.8318C108.121 89.065 111.035 90.5986 111.648 93.2057C112.262 95.9662 110.268 98.7267 106.588 99.4935Z" fill="#D46CA6"/>
<path d="M87.8779 89.2188C91.4052 90.2923 94.7791 96.5801 94.7791 96.5801C94.7791 96.5801 88.4913 99.8007 84.964 98.7272C81.4367 97.6537 79.5964 94.7398 80.5165 92.1327C81.2833 89.3722 84.3506 87.9919 87.8779 89.2188Z" fill="#ED7EBC"/>
<path d="M93.2457 107.622C92.4789 103.942 96.1596 97.9605 96.1596 97.9605C96.1596 97.9605 101.987 101.795 102.907 105.475C103.674 109.156 101.987 112.07 99.3802 112.683C96.773 113.297 94.0125 111.303 93.2457 107.622Z" fill="#ED7EBC"/>
<path d="M98.9196 97.1935C98.9196 95.4995 97.5464 94.1263 95.8524 94.1263C94.1584 94.1263 92.7852 95.4995 92.7852 97.1935C92.7852 98.8875 94.1584 100.261 95.8524 100.261C97.5464 100.261 98.9196 98.8875 98.9196 97.1935Z" fill="#FFB735"/>
</g>
<path d="M47.3843 17.0572C50.1754 19.0274 51.4889 25.2664 51.4889 25.2664C51.4889 25.2664 45.2499 26.4157 42.4587 24.4455C39.6676 22.4752 38.8467 19.6841 40.3243 17.5497C41.6378 15.5795 44.5931 15.0869 47.3843 17.0572Z" fill="#FFE863"/>
<path d="M42.9515 30.8484C44.9217 28.0572 50.9965 26.7438 50.9965 26.7438C50.9965 26.7438 52.1458 32.9828 50.3398 35.7739C48.3696 38.5651 45.5785 39.386 43.4441 38.0725C41.4738 36.759 40.9813 33.6395 42.9515 30.8484Z" fill="#FFE863"/>
<path d="M56.5787 34.4601C53.9518 32.3257 53.1309 26.0867 53.1309 26.0867C53.1309 26.0867 59.3699 25.4299 62.161 27.5643C64.788 29.6987 65.2805 32.6541 63.8029 34.6243C62.3252 36.5945 59.3699 36.5945 56.5787 34.4601Z" fill="#FFFAB3"/>
<path d="M43.608 20.6683C47.0558 20.8325 51.1605 25.5938 51.1605 25.5938C51.1605 25.5938 46.3991 29.6984 42.9512 29.5343C39.6675 29.3701 37.5331 27.2357 37.6973 24.7729C37.8615 22.3101 40.3243 20.5041 43.608 20.6683Z" fill="#FFFAB3"/>
<path d="M47.2202 34.4604C47.3844 31.0125 52.1458 26.9079 52.1458 26.9079C52.1458 26.9079 56.2504 31.6693 56.0862 35.1171C55.7578 38.4008 53.6234 40.5352 51.1607 40.371C48.6979 40.2068 46.8919 37.7441 47.2202 34.4604Z" fill="#FFFAB3"/>
<path d="M60.5193 31.0131C57.0714 30.8489 52.9668 26.0875 52.9668 26.0875C52.9668 26.0875 57.7282 21.9829 61.176 22.1471C64.6239 22.3113 66.7583 24.6099 66.5941 26.9085C66.2657 29.3712 63.803 31.1773 60.5193 31.0131Z" fill="#FFDD87"/>
<path d="M61.8329 26.0872C58.7134 27.5648 52.8027 25.5946 52.8027 25.5946C52.8027 25.5946 54.9371 19.684 58.0566 18.2063C61.1761 16.7287 63.9673 17.5496 65.1166 19.684C66.1017 21.8184 64.9524 24.6095 61.8329 26.0872Z" fill="#FFFAB3"/>
<path d="M52.4737 15.7433C53.9514 18.8628 51.9812 24.7734 51.9812 24.7734C51.9812 24.7734 46.0705 22.639 44.5928 19.5195C43.1152 16.4 43.9361 13.6089 46.0705 12.4596C48.2049 11.6387 50.8319 12.788 52.4737 15.7433Z" fill="#FFFAB3"/>
<path d="M60.5189 20.9969C58.7129 23.7881 52.4739 25.1016 52.4739 25.1016C52.4739 25.1016 51.3246 18.8625 53.2948 16.0714C55.265 13.2803 58.0561 12.4593 60.1905 13.937C62.1607 15.2505 62.4891 18.2058 60.5189 20.9969Z" fill="#FFE863"/>
<path d="M51.8171 35.4455C50.3395 32.326 52.3097 26.4154 52.3097 26.4154C52.3097 26.4154 58.2203 28.5498 59.698 31.6693C61.1756 34.7888 60.3547 37.5799 58.2203 38.7292C56.0859 39.7143 53.2948 38.565 51.8171 35.4455Z" fill="#FFE863"/>
<path d="M57.3991 17.2209C57.2349 20.6688 52.4735 24.7734 52.4735 24.7734C52.4735 24.7734 48.3689 20.0121 48.5331 16.5642C48.6973 13.1163 50.9959 10.9819 53.2945 11.1461C55.7572 11.4745 57.5633 13.7731 57.3991 17.2209Z" fill="#FFDD87"/>
<path d="M42.294 25.5945C45.4136 24.1169 51.3242 26.0871 51.3242 26.0871C51.3242 26.0871 49.1898 32.1619 46.2345 33.6396C43.115 35.1172 40.1596 34.2963 39.1745 32.1619C38.0252 29.8633 39.1745 27.2364 42.294 25.5945Z" fill="#FFDD87"/>
<path d="M54.2129 25.3007C53.8592 23.8003 52.3563 22.8707 50.856 23.2243C49.3556 23.578 48.426 25.0809 48.7796 26.5812C49.1333 28.0816 50.6362 29.0112 52.1365 28.6576C53.6369 28.3039 54.5665 26.801 54.2129 25.3007Z" fill="#FFB3DE"/>
<g style="mix-blend-mode:multiply">
<path d="M47.3843 17.0572C50.1754 19.0274 51.4889 25.2664 51.4889 25.2664C51.4889 25.2664 45.2499 26.4157 42.4587 24.4455C39.6676 22.4752 38.8467 19.6841 40.3243 17.5497C41.6378 15.5795 44.5931 15.0869 47.3843 17.0572Z" fill="#FFE863"/>
<path d="M42.9515 30.8484C44.9217 28.0572 50.9965 26.7438 50.9965 26.7438C50.9965 26.7438 52.1458 32.9828 50.3398 35.7739C48.3696 38.5651 45.5785 39.386 43.4441 38.0725C41.4738 36.759 40.9813 33.6395 42.9515 30.8484Z" fill="#FFE863"/>
<path d="M56.5787 34.4601C53.9518 32.3257 53.1309 26.0867 53.1309 26.0867C53.1309 26.0867 59.3699 25.4299 62.161 27.5643C64.788 29.6987 65.2805 32.6541 63.8029 34.6243C62.3252 36.5945 59.3699 36.5945 56.5787 34.4601Z" fill="#FFFAB3"/>
<path d="M43.608 20.6683C47.0558 20.8325 51.1605 25.5938 51.1605 25.5938C51.1605 25.5938 46.3991 29.6984 42.9512 29.5343C39.6675 29.3701 37.5331 27.2357 37.6973 24.7729C37.8615 22.3101 40.3243 20.5041 43.608 20.6683Z" fill="#FFFAB3"/>
<path d="M47.2202 34.4604C47.3844 31.0125 52.1458 26.9079 52.1458 26.9079C52.1458 26.9079 56.2504 31.6693 56.0862 35.1171C55.7578 38.4008 53.6234 40.5352 51.1607 40.371C48.6979 40.2068 46.8919 37.7441 47.2202 34.4604Z" fill="#FFFAB3"/>
<path d="M60.5193 31.0131C57.0714 30.8489 52.9668 26.0875 52.9668 26.0875C52.9668 26.0875 57.7282 21.9829 61.176 22.1471C64.6239 22.3113 66.7583 24.6099 66.5941 26.9085C66.2657 29.3712 63.803 31.1773 60.5193 31.0131Z" fill="#FFDD87"/>
<path d="M61.8329 26.0872C58.7134 27.5648 52.8027 25.5946 52.8027 25.5946C52.8027 25.5946 54.9371 19.684 58.0566 18.2063C61.1761 16.7287 63.9673 17.5496 65.1166 19.684C66.1017 21.8184 64.9524 24.6095 61.8329 26.0872Z" fill="#FFFAB3"/>
<path d="M52.4737 15.7433C53.9514 18.8628 51.9812 24.7734 51.9812 24.7734C51.9812 24.7734 46.0705 22.639 44.5928 19.5195C43.1152 16.4 43.9361 13.6089 46.0705 12.4596C48.2049 11.6387 50.8319 12.788 52.4737 15.7433Z" fill="#FFFAB3"/>
<path d="M60.5189 20.9969C58.7129 23.7881 52.4739 25.1016 52.4739 25.1016C52.4739 25.1016 51.3246 18.8625 53.2948 16.0714C55.265 13.2803 58.0561 12.4593 60.1905 13.937C62.1607 15.2505 62.4891 18.2058 60.5189 20.9969Z" fill="#FFE863"/>
<path d="M51.8171 35.4455C50.3395 32.326 52.3097 26.4154 52.3097 26.4154C52.3097 26.4154 58.2203 28.5498 59.698 31.6693C61.1756 34.7888 60.3547 37.5799 58.2203 38.7292C56.0859 39.7143 53.2948 38.565 51.8171 35.4455Z" fill="#FFE863"/>
<path d="M57.3991 17.2209C57.2349 20.6688 52.4735 24.7734 52.4735 24.7734C52.4735 24.7734 48.3689 20.0121 48.5331 16.5642C48.6973 13.1163 50.9959 10.9819 53.2945 11.1461C55.7572 11.4745 57.5633 13.7731 57.3991 17.2209Z" fill="#FFDD87"/>
<path d="M42.294 25.5945C45.4136 24.1169 51.3242 26.0871 51.3242 26.0871C51.3242 26.0871 49.1898 32.1619 46.2345 33.6396C43.115 35.1172 40.1596 34.2963 39.1745 32.1619C38.0252 29.8633 39.1745 27.2364 42.294 25.5945Z" fill="#FFDD87"/>
<path d="M54.2129 25.3007C53.8592 23.8003 52.3563 22.8707 50.856 23.2243C49.3556 23.578 48.426 25.0809 48.7796 26.5812C49.1333 28.0816 50.6362 29.0112 52.1365 28.6576C53.6369 28.3039 54.5665 26.801 54.2129 25.3007Z" fill="#FFB3DE"/>
</g>
</g>
</svg>
