<svg width="135" height="134" viewBox="0 0 135 134" fill="none" xmlns="http://www.w3.org/2000/svg">
<path d="M39.6383 6.29375C45.7488 3.34629 52.1829 1.5131 58.8687 0.650429C70.7304 -0.895195 82.2687 0.434762 93.1959 5.21542C114.08 14.3094 127.559 29.9454 132.627 52.1951C137.408 73.1509 132.699 92.3454 119.184 109.06C108.508 122.251 94.5618 130.267 77.7037 132.711C56.9636 135.731 38.5959 130.231 22.9599 116.32C11.17 105.789 4.053 92.5251 1.68065 76.8172C-0.619814 61.5048 2.11198 47.055 9.7682 33.5758C9.84009 33.432 9.94793 33.2882 10.0558 33.1444L39.6383 6.29375Z" fill="#3A3939"/>
<path d="M42.8027 9.56562C51.6091 5.75548 60.8469 3.88636 70.4442 4.49742C93.0534 5.97115 110.271 16.5389 121.881 36.0569C126.662 44.1085 129.142 52.9509 129.861 62.2965C131.766 87.7453 117.927 111.828 94.8866 123.043C87.7695 126.494 80.2571 128.579 72.3492 129.082C50.9262 130.304 33.2773 122.72 19.4386 106.437C11.6386 97.2347 7.14554 86.4513 5.70775 74.4458C4.12619 61.5417 6.42665 49.3205 12.3935 37.7822C12.6451 37.279 13.0045 36.7758 13.2921 36.3085C17.8091 29.0836 30.0349 13.6202 42.8027 9.56562Z" fill="#F85046"/>
<circle cx="67.7481" cy="66.6581" r="49.2442" transform="rotate(-90 67.7481 66.6581)" fill="#F4B45A"/>
<path d="M28.9266 67.0177C28.9266 88.4576 46.3071 105.838 67.7469 105.838C89.1868 105.838 106.567 88.4576 106.567 67.0177C106.567 45.5779 89.1868 28.1975 67.7469 28.1975C66.5558 28.1975 65.5902 27.2319 65.5902 26.0408C65.5902 24.8497 66.5558 23.8841 67.7469 23.8841C91.569 23.8841 110.881 43.1957 110.881 67.0177C110.881 90.8398 91.569 110.151 67.7469 110.151C43.9249 110.151 24.6133 90.8398 24.6133 67.0177C24.6133 65.8266 25.5789 64.861 26.77 64.861C27.9611 64.861 28.9266 65.8266 28.9266 67.0177Z" fill="#FEDF77"/>
<path d="M37.5534 67.0177C37.5534 83.6932 51.0715 97.2113 67.7469 97.2113C84.4224 97.2113 97.9405 83.6932 97.9405 67.0177C97.9405 52.711 87.9879 40.7235 74.6263 37.6109C73.0161 37.2358 71.7879 37.1635 70.9772 37.359C70.6074 37.4482 70.3867 37.5786 70.244 37.7107C70.1078 37.8367 69.9439 38.0547 69.8237 38.484C69.7387 38.7877 69.7805 38.9696 69.8778 39.1529C70.0075 39.3974 70.2919 39.7223 70.8177 40.0863C71.8863 40.8262 73.4097 41.3614 74.5991 41.6824C85.7663 44.6959 93.9866 54.8941 93.9866 67.0177C93.9866 81.5095 82.2387 93.2574 67.7469 93.2574C53.2552 93.2574 41.5073 81.5095 41.5073 67.0177C41.5073 65.8266 42.4729 64.861 43.664 64.861C44.8551 64.861 45.8207 65.8266 45.8207 67.0177C45.8207 79.1273 55.6374 88.944 67.7469 88.944C79.8565 88.944 89.6732 79.1273 89.6732 67.0177C89.6732 56.8926 82.8083 48.3653 73.4753 45.8468C72.1487 45.4887 70.0488 44.8003 68.3623 43.6326C67.5105 43.0428 66.6343 42.243 66.0674 41.1743C65.468 40.0444 65.2771 38.7247 65.6701 37.321C65.9777 36.2227 66.5219 35.2784 67.314 34.5452C68.0996 33.818 69.0273 33.3922 69.9659 33.1659C71.7719 32.7303 73.8003 32.9896 75.6049 33.41C90.8757 36.9674 102.254 50.6612 102.254 67.0177C102.254 86.0754 86.8046 101.525 67.7469 101.525C48.6893 101.525 33.24 86.0754 33.24 67.0177C33.24 65.8266 34.2056 64.861 35.3967 64.861C36.5878 64.861 37.5534 65.8266 37.5534 67.0177Z" fill="#FEDF77"/>
<path d="M67.7469 54.4371C74.695 54.4371 80.3276 60.0696 80.3276 67.0177C80.3276 68.2088 81.2931 69.1744 82.4842 69.1744C83.6754 69.1744 84.6409 68.2088 84.6409 67.0177C84.6409 57.6874 77.0772 50.1237 67.7469 50.1237C58.4166 50.1237 50.8529 57.6874 50.8529 67.0177C50.8529 76.348 58.4166 83.9117 67.7469 83.9117C68.938 83.9117 69.9036 82.9462 69.9036 81.7551C69.9036 80.564 68.938 79.5984 67.7469 79.5984C60.7988 79.5984 55.1663 73.9658 55.1663 67.0177C55.1663 60.0696 60.7988 54.4371 67.7469 54.4371Z" fill="#FEDF77"/>
<path d="M108.222 80.845C108.869 82.7501 108.833 84.5473 107.251 86.2008C109.624 87.0634 110.774 88.681 110.702 91.0533C110.271 92.8146 109.264 94.1086 107.467 94.7916C108.653 96.6247 109.193 98.5298 107.863 100.435C106.676 102.124 105.023 102.592 102.974 102.088C103.405 104.209 102.938 105.934 101.177 107.085C99.3077 108.271 97.5105 107.804 95.6773 106.617C94.9225 108.307 93.7003 109.457 91.8672 109.852C89.4589 109.924 87.8773 108.738 87.0146 106.438C85.3252 107.947 83.5639 108.055 81.6948 107.372C80.4368 106.545 79.7538 105.323 79.4303 103.886C79.5022 103.31 79.5741 102.771 79.646 102.088C77.5612 102.699 75.9796 101.945 74.6497 100.435C73.4995 98.8292 73.3198 98.1103 74.1824 96.4091C74.5418 95.8699 74.9013 95.3307 75.1169 95.0432C73.859 94.6955 72.9603 94.3361 72.3132 92.2754C71.7022 90.6939 71.9179 89.1842 72.7805 87.7823C73.5354 87.2432 74.2902 86.704 75.1529 86.057C74.0027 84.4754 73.4635 82.6422 74.6137 80.7372C75.728 78.8681 77.4893 78.3289 79.6819 78.7962C79.2506 76.6754 79.7179 74.9141 81.5151 73.7999C83.4202 72.6137 85.2893 72.9731 86.9427 74.339C87.5538 73.4763 88.1289 72.6856 88.704 71.8948C90.1418 71.0321 91.6156 70.7805 93.1971 71.3916C94.0957 72.2902 94.9944 73.2247 95.9649 74.1952C96.3243 73.9436 96.8275 73.6201 97.3308 73.2607C98.6608 72.4098 100.458 73.0582 101.321 73.7639C102.902 75.0579 103.549 76.6754 103.046 78.7243C103.513 78.3407 103.949 78.26 104.807 78.5086C106.173 78.904 107.359 79.6588 108.222 80.845Z" fill="#F4FAFA"/>
<path d="M70.3349 49.8601C71.0897 51.2619 71.0178 52.6278 70.0473 53.9218C68.1063 55.3596 67.1358 55.3596 65.2307 53.9218C64.2243 52.6278 64.2243 51.2619 64.9432 49.8601C66.8842 48.0628 68.3579 48.0628 70.3349 49.8601Z" fill="#66964B"/>
<path d="M65.1948 68.9826C65.7339 68.6232 66.2731 68.2637 66.8482 67.9043C69.7238 67.6167 71.0897 69.8453 70.8381 71.4628C70.6584 72.7928 69.9035 73.7633 68.5736 74.1946C67.2796 74.626 66.2012 74.2306 65.3026 73.2601C64.404 72.2896 64.1883 71.1393 64.6915 69.9172C64.7994 69.5937 65.015 69.2702 65.1948 68.9826Z" fill="#66964B"/>
<path d="M65.1938 68.982C62.3901 69.3055 60.8804 66.9691 61.2399 65.2797C61.4915 63.9498 62.3182 63.0152 63.6482 62.6558C64.9422 62.2963 66.0205 62.7277 66.8832 63.7341C67.7818 64.7406 67.8537 65.8908 67.3505 67.1129C67.2426 67.4005 67.027 67.6521 66.8472 67.9037C66.2721 68.2631 65.733 68.6226 65.1938 68.982Z" fill="#8DD15F"/>
<path d="M72.7062 54.9636C74.3958 52.4603 77.7385 53.8853 78.2417 56.4373C78.3855 57.2281 78.2417 58.3912 77.8463 58.9894C75.7975 60.7148 74.2878 60.7867 72.8141 59.241C71.6638 58.0549 71.6279 56.7608 72.7062 54.9636Z" fill="#8DD15F"/>
<path d="M74.0721 69.018C74.0362 67.2926 75.5459 65.747 77.2712 65.747C78.9965 65.747 80.5422 67.2567 80.5062 68.982C80.5062 70.6355 79.0325 72.1452 77.379 72.1811C75.6896 72.253 74.1081 70.7433 74.0721 69.018Z" fill="#8DD15F"/>
<path d="M90.3183 79.7309C98.4777 79.7309 104.337 87.0637 102.575 94.1448C101.245 99.4286 95.5303 102.556 90.534 100.723C86.0409 99.0692 84.2436 93.4618 87.0114 89.6876C88.1976 88.0701 89.887 87.3153 91.8999 87.3153C93.0141 87.3153 93.8768 87.8904 93.9847 89.1485C94.0925 90.3706 93.4814 91.2692 92.3671 91.5568C90.498 92.06 89.851 92.671 89.9588 93.8213C90.1026 95.5107 91.4685 96.8406 93.122 96.9485C96.5008 97.2001 99.2326 93.8572 98.4418 90.3706C97.3994 85.4821 92.9063 82.93 87.9459 84.5475C86.3644 85.0508 84.9266 86.0213 83.4888 86.9199C82.3386 87.6388 81.2602 87.7107 80.4694 86.848C79.6787 85.9853 79.7506 84.6554 80.6851 83.7208C83.5966 80.9531 87.1192 79.8747 90.3183 79.7309Z" fill="#F4ABDE"/>
<path d="M36.2967 46.349C36.2967 46.349 36.2967 46.3489 16.3477 25.1417L37.5908 4.67676C38.2019 5.17998 38.9208 5.7551 39.6037 6.33022C40.682 7.40856 41.7244 8.4869 42.8028 9.56524C43.7373 10.5717 44.636 11.6141 45.6065 12.5846C47.9788 14.921 50.3871 17.2574 52.7595 19.5579C54.8443 21.6786 56.9291 23.7994 59.0498 25.956C54.9161 30.0897 50.8544 34.1514 46.8286 38.1772C46.8286 38.1772 40.2147 45.5223 36.2967 46.349Z" fill="#64964B"/>
<path d="M3.26172 26.1715C10.4866 18.9466 17.6037 11.8296 24.7926 4.64062C31.5317 11.3797 38.1697 18.2243 44.9935 24.8775C45.964 25.8121 45.8562 26.3512 44.9576 27.2139C38.4493 33.4841 30.162 39.9084 24.7926 47.0675C17.2796 40.4244 10.5108 33.0754 3.26172 26.1715Z" fill="#8CD15F"/>
<path d="M15.518 59.2042C13.2175 55.7175 13.0737 52.0871 15.518 48.6724C20.0611 42.2654 27.8006 38.6387 35.3235 37.1341C39.2774 36.3074 43.0875 36.6309 46.8258 38.2125C53.0083 41.4116 56.423 46.4079 56.9262 53.3811C56.9262 59.2042 54.6617 63.9489 50.1686 67.6512C44.5167 70.9482 39.873 71.5063 33.4544 70.383C25.87 69.0557 19.6455 65.4852 15.518 59.2042Z" fill="#F4FAFA"/>
<path d="M39.6389 43.1367C45.5698 43.1367 50.4223 47.9893 50.3863 53.9561C50.3504 59.887 45.4979 64.7035 39.531 64.6676C33.6721 64.6316 28.8555 59.8151 28.8555 53.9201C28.8914 47.9893 33.708 43.1367 39.6389 43.1367Z" fill="#FE911A"/>
</svg>
