<svg width="78" height="78" viewBox="0 0 78 78" fill="none" xmlns="http://www.w3.org/2000/svg">
<path d="M7.17578 39.4105C7.17578 56.5313 21.055 70.4132 38.1758 70.4167C55.2966 70.4201 69.1758 56.5437 69.1758 39.4229C69.1758 22.302 55.2966 8.42008 38.1758 8.41666C21.055 8.41324 7.17578 22.2896 7.17578 39.4105Z" fill="#9D664F"/>
<path fill-rule="evenodd" clip-rule="evenodd" d="M63.9372 38.9206C63.9372 24.9712 52.6283 13.6587 38.6758 13.6559C24.7232 13.6531 13.4143 24.9609 13.4143 38.9103C13.4143 52.8597 24.7232 64.1722 38.6758 64.175C52.6283 64.1778 63.9372 52.87 63.9372 38.9206ZM38.6758 2.41546C58.8331 2.41954 75.1758 18.7634 75.1758 38.9229C75.1758 59.0823 58.8331 75.4195 38.6758 75.4155C18.5184 75.4114 2.17578 59.0675 2.17578 38.9081C2.17578 18.7486 18.5184 2.41137 38.6758 2.41546Z" fill="black"/>
</svg>
