<svg width="149" height="149" viewBox="0 0 149 149" fill="none" xmlns="http://www.w3.org/2000/svg">
<path d="M141.268 77.8507C143.484 41.1907 115.561 9.67392 78.9008 7.4561C42.2409 5.23829 10.7263 33.1593 8.51107 69.8193C6.29582 106.479 34.2187 137.996 70.8786 140.214C107.539 142.432 139.053 114.511 141.268 77.8507Z" fill="#153445"/>
<path fill-rule="evenodd" clip-rule="evenodd" d="M13.5197 74.1992C13.5197 107.885 40.8252 135.189 74.5 135.192C108.175 135.195 135.48 107.895 135.48 74.2093C135.48 40.5233 108.175 13.2196 74.5 13.2168C40.8252 13.214 13.5197 40.5131 13.5197 74.1992ZM74.5 146.204C34.7318 146.201 2.5 113.959 2.5 74.1982C2.5 34.4374 34.7318 2.20093 74.5 2.20425C114.268 2.20756 146.5 34.4494 146.5 74.2103C146.5 113.971 114.268 146.208 74.5 146.204Z" fill="black"/>
</svg>
