<svg width="73" height="72" viewBox="0 0 73 72" fill="none" xmlns="http://www.w3.org/2000/svg">
<path d="M36.4411 66.4254C53.2765 66.4254 66.9269 52.8003 66.9303 35.993C66.9336 19.1856 53.2886 5.56055 36.4533 5.56055C19.618 5.56055 5.96751 19.1856 5.96415 35.993C5.96079 52.8003 19.6058 66.4254 36.4411 66.4254Z" fill="url(#paint0_linear)"/>
<path fill-rule="evenodd" clip-rule="evenodd" d="M36.4522 11.1085C22.6723 11.1085 11.515 22.2582 11.5123 35.9928C11.5095 49.7273 22.6624 60.8771 36.4422 60.8771C50.2221 60.8771 61.3794 49.7273 61.3821 35.9928C61.3849 22.2582 50.2321 11.1085 36.4522 11.1085ZM0.41601 35.9928C0.419984 16.1126 16.5636 0.012207 36.4544 0.012207C56.3452 0.012207 72.4824 16.1126 72.4784 35.9928C72.4744 55.873 56.3308 71.9733 36.44 71.9733C16.5492 71.9733 0.412036 55.873 0.41601 35.9928Z" fill="black"/>
<defs>
<linearGradient id="paint0_linear" x1="55.7412" y1="12.2925" x2="16.7916" y2="55.046" gradientUnits="userSpaceOnUse">
<stop stop-color="#4F6727"/>
<stop offset="1" stop-color="#87AF43"/>
</linearGradient>
</defs>
</svg>
