<svg width="77" height="77" viewBox="0 0 77 77" fill="none" xmlns="http://www.w3.org/2000/svg">
<path d="M33.6523 44.0413C47.267 47.076 54.4004 36.9765 58.9675 35.2038C69.3467 31.1752 67.3565 53.8981 55.3712 63.286C44.9494 71.4491 26.761 70.8491 21.4665 62.938C16.172 55.0268 18.9837 40.7717 33.6523 44.0413Z" fill="#E4A13C"/>
<path fill-rule="evenodd" clip-rule="evenodd" d="M70.7115 44.781C69.8954 52.2028 65.8888 61.6362 58.5696 67.3691C52.2339 72.3317 43.8446 74.4609 36.4022 74.3255C29.238 74.1951 21.2091 71.8776 17.1569 65.8228C13.612 60.5259 12.6643 53.0932 15.3485 47.1597C16.7486 44.0648 19.1726 41.3401 22.7042 39.7657C26.199 38.2077 30.3071 37.9826 34.781 38.9799C39.9791 40.1385 43.8286 38.8495 47.0892 36.9466C48.751 35.9768 50.2089 34.8773 51.7251 33.734C51.7761 33.6956 51.8272 33.6571 51.8783 33.6185C51.9368 33.5744 51.9964 33.5294 52.0571 33.4836C53.3737 32.4895 55.219 31.0963 57.0913 30.3695C59.1036 29.5885 61.3844 29.2371 63.672 29.872C66.0298 30.5265 67.7408 32.0478 68.8486 33.793C70.8758 36.9866 71.1074 41.1804 70.7115 44.781ZM61.2608 39.9153C61.2608 39.9154 61.2574 39.9159 61.2509 39.9163C61.2576 39.9154 61.2609 39.9152 61.2608 39.9153ZM60.3729 40.2917C59.9487 40.5554 59.2666 41.0381 58.1221 41.9008C58.0386 41.9638 57.9534 42.0281 57.8666 42.0936C56.4198 43.1858 54.5232 44.6174 52.3172 45.9049C47.4657 48.7362 40.9411 50.9796 32.5245 49.1036C29.664 48.466 27.9199 48.7967 26.9275 49.2392C25.9718 49.6652 25.2733 50.3857 24.7987 51.4349C23.7336 53.7892 24.0273 57.4397 25.7768 60.0539C27.0192 61.9103 30.7317 63.8484 36.5909 63.955C42.1718 64.0566 48.0875 62.4042 52.1737 59.2036C56.8398 55.5488 59.8209 48.9267 60.4014 43.6473C60.5726 42.0906 60.497 40.9927 60.3729 40.2917Z" fill="black"/>
<path d="M43.8842 47.5163C40.26 30.3251 52.9952 21.469 55.2731 15.7383C60.4499 2.7145 31.9775 4.92793 20.0709 19.9057C9.71752 32.9297 10.235 55.8515 20.0709 62.6238C29.9068 69.3962 47.7889 66.0383 43.8842 47.5163Z" fill="#E4A13C"/>
<path fill-rule="evenodd" clip-rule="evenodd" d="M43.561 2.16145C34.5197 3.06748 23.013 7.87075 16.0111 16.6788C9.94784 24.306 7.24185 34.522 7.31382 43.6503C7.38358 52.4971 10.1334 62.0784 17.1297 66.8956C23.382 71.2006 32.2103 72.4065 39.2301 69.2976C42.8683 67.6864 46.0505 64.8844 47.9136 60.7924C49.7592 56.7386 50.1041 51.8805 48.9586 46.4467C47.4843 39.4534 49.278 34.2668 51.8246 29.9774C53.1016 27.8265 54.5395 25.9481 55.9795 24.0671C56.0334 23.9967 56.0874 23.9262 56.1413 23.8557C56.1859 23.7975 56.231 23.7386 56.2765 23.6791C57.5672 21.9938 59.2306 19.8219 60.0923 17.6542C61.0213 15.317 61.4168 12.7604 60.7482 10.2362C60.0607 7.64041 58.4173 5.72141 56.4675 4.4475C52.8627 2.09221 47.9706 1.71955 43.561 2.16145ZM50.6849 13.065C50.6557 13.2276 50.5917 13.4755 50.4536 13.8229C50.2067 14.4441 49.512 15.4513 47.9043 17.5523C47.8262 17.6542 47.7468 17.7579 47.666 17.8633C46.2763 19.6773 44.5037 21.9909 42.9058 24.6824C39.4213 30.5515 36.6596 38.3885 38.8094 48.5863C39.6163 52.4136 39.1902 54.921 38.4737 56.4945C37.7747 58.0298 36.6038 59.1169 35.0301 59.8138C31.6261 61.3213 26.5954 60.82 23.0118 58.3526C20.1722 56.3975 17.7453 51.1317 17.6857 43.5685C17.6283 36.2869 19.8402 28.53 24.1304 23.1332C29.035 16.9635 37.7178 13.1711 44.5952 12.482C47.9648 12.1443 49.9376 12.6496 50.6849 13.065ZM50.7075 12.8184C50.7074 12.8185 50.7075 12.8215 50.7083 12.8272C50.708 12.8213 50.7076 12.8184 50.7075 12.8184Z" fill="black"/>
<path d="M30.1935 37.5731C28.9854 32.1568 33.2305 29.3665 33.9898 27.5609C35.7154 23.4575 26.2246 24.1549 22.2557 28.8739C18.8046 32.9774 18.9771 40.1993 22.2557 42.3331C25.5344 44.4668 31.4951 43.4089 30.1935 37.5731Z" fill="#FFD99F"/>
</svg>
