<svg width="78" height="78" viewBox="0 0 78 78" fill="none" xmlns="http://www.w3.org/2000/svg">
<path d="M7.11328 39.6917C7.11328 56.8125 20.9925 70.6945 38.1133 70.6979C55.2341 70.7013 69.1133 56.8249 69.1133 39.7041C69.1133 22.5833 55.2341 8.70133 38.1133 8.69791C20.9925 8.69449 7.11328 22.5709 7.11328 39.6917Z" fill="#A0683E"/>
<path fill-rule="evenodd" clip-rule="evenodd" d="M63.8747 39.2018C63.8747 25.2524 52.5658 13.94 38.6133 13.9372C24.6607 13.9343 13.3518 25.2422 13.3518 39.1916C13.3518 53.141 24.6607 64.4534 38.6133 64.4562C52.5658 64.4591 63.8747 53.1512 63.8747 39.2018ZM38.6133 2.69671C58.7706 2.70079 75.1133 19.0447 75.1133 39.2041C75.1133 59.3635 58.7706 75.7008 38.6133 75.6967C18.4559 75.6926 2.11328 59.3488 2.11328 39.1893C2.11328 19.0299 18.4559 2.69262 38.6133 2.69671Z" fill="black"/>
</svg>
