<svg width="148" height="148" viewBox="0 0 148 148" fill="none" xmlns="http://www.w3.org/2000/svg">
<path d="M140.541 78.2568C142.757 41.5867 114.847 10.0624 78.2029 7.84534C41.5589 5.62823 10.0569 33.5579 7.8413 70.228C5.62569 106.898 33.5355 138.422 70.1795 140.639C106.824 142.857 138.326 114.927 140.541 78.2568Z" fill="#C02727"/>
<path fill-rule="evenodd" clip-rule="evenodd" d="M13.229 74.2372C13.229 107.936 40.5267 135.249 74.192 135.252C107.857 135.255 135.155 107.946 135.155 74.2474C135.155 40.5489 107.857 13.2353 74.192 13.2324C40.5267 13.2296 13.229 40.5387 13.229 74.2372ZM74.192 146.269C34.4351 146.265 2.2124 114.012 2.2124 74.2363C2.2124 34.4608 34.4351 2.21253 74.192 2.21584C113.949 2.21916 146.172 34.4728 146.172 74.2483C146.172 114.024 113.949 146.272 74.192 146.269Z" fill="black"/>
</svg>
