<svg width="78" height="78" viewBox="0 0 78 78" fill="none" xmlns="http://www.w3.org/2000/svg">
<path d="M39.4519 76.7987C48.9878 76.7987 56.646 73.9073 61.8924 67.9381C67.4155 61.6524 69.2025 53.6002 69.2759 45.5623C69.3493 37.5294 67.7128 29.2725 66.157 22.3579L66.1565 22.3559C64.22 13.7909 60.3465 8.04435 53.9587 5.65535C53.2228 5.38 52.4383 5.0388 51.5771 4.65947L51.3543 4.56127C50.5724 4.21653 49.7342 3.84694 48.8856 3.50888C47.0495 2.77741 44.9458 2.09959 42.8152 2.09959C41.7557 2.09959 40.8046 2.39574 40.0192 2.99059C39.8483 3.12003 39.6922 3.25833 39.5495 3.40278C39.2739 3.11178 38.9471 2.84377 38.559 2.62399C37.6068 2.08485 36.5182 1.96719 35.3888 2.18599C32.5772 2.72746 29.8954 3.79119 27.4143 4.77528C26.6414 5.08184 25.888 5.38067 25.1562 5.65358L25.1542 5.65435C18.7671 8.04431 14.8911 13.7904 12.9566 22.3552C11.3611 29.3967 9.56919 37.5026 9.53374 45.3958C9.49812 53.3257 11.2319 61.2462 16.8653 67.7745C22.1118 73.8524 29.8228 76.7987 39.4519 76.7987Z" fill="black"/>
<path d="M52.4681 13.3233C54.1599 18.0758 55.4774 25.6271 56.0409 29.1764C50.4481 27.5093 45.1768 26.8628 40.3861 26.8628C33.7077 26.8628 27.9613 28.1031 23.5605 29.5293C24.2126 26.1761 26.0768 17.1762 28.1249 12.6477C30.1245 11.8886 32.0791 10.9904 34.1166 10.3353L36.8458 20.8106C37.1673 22.0453 38.2809 22.9057 39.557 22.9057C40.8309 22.9057 41.9445 22.0442 42.2661 20.8106L44.9975 10.3353C47.4852 11.1312 50.1768 12.0421 52.4681 13.3233Z" fill="#231D1A"/>
<path d="M60.4248 34.3099C61.879 43.8512 63.0749 55.087 56.1843 62.925C48.4689 71.7052 30.2536 71.6668 22.6126 62.8096C16.2314 55.414 16.8112 44.3003 18.4057 35.2443C24.4265 32.366 40.9328 26.2993 60.4248 34.3099Z" fill="#3A2017"/>
<path d="M19.5531 28.5499C19.4128 29.4548 19.2754 30.3409 19.125 31.1917C20.3966 30.6494 21.8733 30.0758 23.5639 29.5291C24.216 26.1758 26.0802 17.176 28.1282 12.6475C21.628 15.1637 20.5215 22.3021 19.5531 28.5499Z" fill="#5C524E"/>
<path d="M56.0411 29.1752C57.2914 29.5483 58.5574 29.9718 59.8402 30.4524C59.7756 30.0251 59.7117 29.5864 59.6465 29.139C58.8151 23.4318 57.7773 16.3076 52.4683 13.3221C54.1589 18.0746 55.4764 25.627 56.0411 29.1752Z" fill="#5C524E"/>
</svg>
