<svg width="141" height="141" viewBox="0 0 141 141" fill="none" xmlns="http://www.w3.org/2000/svg">
<mask id="mask0" mask-type="alpha" maskUnits="userSpaceOnUse" x="3" y="3" width="134" height="134">
<path d="M70.3447 136.757C107.072 136.757 136.844 106.984 136.842 70.2566C136.841 33.5297 107.067 3.75659 70.3401 3.75659C33.6132 3.75659 3.84113 33.5297 3.84241 70.2566C3.84369 106.984 33.6178 136.757 70.3447 136.757Z" fill="#3CA3CF"/>
</mask>
<g mask="url(#mask0)">
<path d="M147.927 -5.8877H0.720459V146.245H147.927V-5.8877Z" fill="#23344B"/>
<path d="M138.758 67.5733C137.183 67.1104 136.165 66.0305 135.516 64.5752C135.136 63.7241 134.829 62.8421 134.49 61.973C135.924 61.8985 137.291 62.4153 138.715 62.4359L138.758 67.5733Z" fill="#56ABBD"/>
<path d="M84.7073 23.4245H89.1707C91.6743 23.4245 93.8393 22.7586 95.4092 20.5962C96.3224 19.3388 97.1767 19.1382 98.5208 19.8968C100.229 20.8584 101.773 20.8687 103.42 19.7836C104.839 18.8477 106.332 19.0303 107.781 19.8428C106.958 20.8944 107.142 22.2289 108.271 23.4837C108.92 24.2062 109.667 24.8439 109.949 25.8518C110.128 26.4972 109.967 26.7415 109.328 26.7286C109.03 26.7479 108.731 26.7479 108.433 26.7286C106.745 26.4715 105.793 27.3457 105.278 28.8345C105.165 29.1636 105.126 29.4516 104.726 29.6059C102.733 30.3438 100.778 31.2026 98.5696 31.1229C97.9307 31.1023 97.3022 30.9555 96.7201 30.6909C95.0116 29.9196 94.9475 29.5827 96.2968 28.3434C96.8098 27.8703 96.7098 27.572 96.1275 27.3149C94.6501 26.6657 93.1274 26.1251 91.5717 25.6975C89.4914 25.1061 87.4136 24.5045 85.3281 23.9285C85.0202 23.8565 84.7458 23.8077 84.7073 23.4245Z" fill="#56ABBD"/>
<path d="M127.03 96.1915C126.987 95.8957 126.987 95.595 127.03 95.2992C127.823 92.7974 126.643 91.0721 124.891 89.5036C123.926 88.6589 123.055 87.7114 122.295 86.6778C121.805 86.0068 121.578 85.1794 121.655 84.3518C121.733 83.5242 122.11 82.7537 122.716 82.1858C123.998 80.9593 125.468 80.2239 127.264 80.2034C127.849 81.1393 128.29 82.1832 129.303 82.7875C129.544 84.0731 129.998 85.189 131.355 85.6802C132.204 87.6446 133.664 89.2054 134.826 90.9641C135.595 92.134 136.539 93.1857 137.109 94.4893C137.979 96.4872 137.196 99.5547 135.49 100.771C135.539 100.566 135.598 100.363 135.667 100.164C136.632 97.7805 135.944 96.6492 133.464 96.1349C131.286 95.6952 129.17 96.0835 127.03 96.1915Z" fill="#56ABBD"/>
<path d="M126.022 115.63C126.312 117.085 126.358 118.458 125.253 119.682C124.463 120.549 123.506 120.631 122.467 120.569C121.428 120.508 120.771 121.071 120.671 121.989C120.574 122.953 120.181 124.177 121.615 124.658C121.964 125.779 122.911 125.902 123.855 125.964C127.338 126.193 130.642 125.614 133.687 123.799C135.036 122.994 136.35 122.835 137.681 124.03C138.125 124.429 138.312 124.725 138.31 125.265C138.297 127.664 138.31 130.063 138.31 132.464C138.31 134.069 137.458 134.696 135.844 134.372C134.88 134.179 134.469 133.446 133.992 132.742C132.71 130.842 131.909 130.554 129.673 131.091C128.888 131.296 128.162 131.68 127.551 132.215C125.666 133.757 123.555 134.416 121.138 133.688C120.525 131.703 118.942 130.813 117.124 130.384C114.697 129.811 112.745 130.716 111.203 132.657C110.788 133.171 110.493 133.817 109.874 134.2C109.209 134.64 108.403 134.817 107.615 134.695C106.826 134.573 106.111 134.162 105.609 133.541C104.718 132.513 104.711 130.502 105.824 129.404C106.83 128.412 106.414 127.928 105.48 127.401C104.623 126.918 103.759 126.432 102.782 126.265C100.886 125.936 99.4469 126.625 98.2233 128.134C94.3756 132.886 88.7322 134.891 82.8322 133.603C81.7138 133.346 80.6723 132.888 80.621 131.492C80.5749 130.299 81.3778 129.435 82.8348 129.065C83.234 128.913 83.6549 128.826 84.0815 128.808C87.1238 129.047 89.1015 127.283 90.9408 125.229C91.1973 124.938 91.4923 124.645 91.3102 124.218C91.128 123.791 90.7381 123.938 90.4149 123.902C88.4756 123.678 86.5107 123.532 84.8202 122.405C83.5633 121.567 82.5885 120.539 82.6809 118.872C84.0122 119.148 85.0178 118.746 85.5924 117.456C86.1054 117.432 85.7976 116.147 86.9134 116.831C89.1734 118.212 91.1178 116.867 91.1383 114.123C91.1383 113.406 90.928 112.853 90.3303 112.501C89.6864 112.123 89.0938 112.395 88.5346 112.758C87.034 113.786 86.0823 113.457 85.4154 111.763C85.1717 111.143 85.1717 110.4 84.5894 109.93C85.7771 108.608 85.7514 107.785 84.4637 105.893C86.5877 104.172 88.568 104.255 90.9331 105.785C93.0288 107.145 94.6295 108.976 95.9378 110.984C96.8894 112.444 97.4769 114.175 98.4363 115.679C98.7466 116.165 98.9057 116.797 99.588 116.965C99.6599 117.651 100.181 117.965 100.691 118.276C102.512 119.419 104.709 119.798 106.806 119.333C109.354 118.806 111.78 118.001 113.953 116.53C114.44 116.671 114.979 116.728 115.405 116.975C117.888 118.402 120.166 118.201 122.285 116.242C122.581 116 122.906 115.797 123.252 115.635C124.17 115.136 125.104 115.028 126.022 115.63Z" fill="#56ABBD"/>
<path d="M42.138 67.3754C41.1786 66.4137 40.7528 65.0329 39.6344 64.1921C39.3625 63.989 39.1598 63.6933 38.8853 63.4953C37.6027 62.5697 36.6947 62.8294 36.1021 64.295C35.3479 66.1669 35.6635 68.0079 36.4407 69.7564C36.8978 70.7587 37.2536 71.8044 37.5027 72.8779C37.7721 74.0838 38.3287 74.9683 39.7421 75.0994C40.7348 75.1894 42.5228 77.8738 42.3612 78.8561C42.2175 79.7174 41.7763 80.1417 40.8221 80.2343C37.8707 80.4882 35.1367 81.8935 33.2086 84.1477C32.843 84.5973 32.6286 85.1512 32.5959 85.7303C32.5632 86.3094 32.7139 86.884 33.0265 87.3721C33.2548 87.7192 33.678 87.9506 33.6601 88.4443C33.2086 88.4289 32.8623 88.1743 32.5083 87.93C31.1898 87.0712 29.8969 86.1739 28.5476 85.3588C28.1864 85.1207 27.7612 84.9987 27.3289 85.0093C26.8967 85.0199 26.4779 85.1624 26.1287 85.4179C25.8043 85.6671 25.5526 85.9989 25.3996 86.3788C25.2467 86.7587 25.1981 87.1727 25.2591 87.5778C25.3976 88.9251 25.9106 90.1362 27.1316 90.9076C27.5241 91.1647 27.9602 91.3704 28.0346 91.9104L26.1671 98.4645C24.9769 98.6008 24.5485 98.048 24.6742 96.8909C24.7204 96.2515 24.7204 95.6096 24.6742 94.9702C24.5818 92.5429 23.2916 91.1981 20.8982 90.9898C20.2236 90.9307 19.549 90.8433 18.882 90.7327C17.3968 90.4627 16.6605 89.2362 16.9042 87.7269C17.1402 86.2767 17.9303 85.0219 18.2099 83.5975C18.5434 81.9236 17.9534 81.0262 16.2963 80.6097C15.5938 80.4341 14.8597 80.4279 14.1544 80.5917C13.1591 80.8102 12.1612 81.0442 11.13 80.9902C10.8581 79.9617 11.3865 79.7226 12.2946 79.7251C16.3527 79.738 20.4109 79.7251 24.469 79.7251C25.2811 79.7602 26.0936 79.6638 26.8751 79.4397C29.0222 78.7352 29.5173 76.8016 27.9679 75.1354C26.9957 74.0864 25.7464 73.5695 24.3766 73.2764C21.9038 72.7416 19.4463 73.1813 16.9863 73.405C15.0676 73.5798 13.1565 73.6904 11.3198 72.9164C11.3096 72.4865 11.4132 72.0616 11.62 71.6848C13.5054 67.7688 11.012 64.0224 7.42074 62.9631C4.80938 62.1917 2.16467 62.598 -0.467217 62.4874L-0.454391 62.4643C-0.454391 57.1195 -0.458667 51.7755 -0.467217 46.4324C-0.467217 45.9413 -0.279958 45.4039 -0.751953 44.9848C-0.751953 44.8203 -0.751953 44.6557 -0.751953 44.4911C1.55672 45.2214 3.83717 46.0159 6.31001 45.8488C6.77431 46.9235 6.9667 48.1783 8.25442 48.6951C8.89572 48.9523 9.51393 48.996 10.0501 48.5023C10.2952 48.289 10.4607 47.9984 10.5195 47.6784C10.5782 47.3583 10.5267 47.0278 10.3733 46.741C10.1629 46.2756 9.9218 45.8256 9.69606 45.3654C10.9145 44.6506 12.2612 44.2649 13.5926 43.8457C14.6469 43.5141 15.6447 43.7686 16.2963 44.5091C17.5789 45.9542 18.5075 47.7026 20.0158 48.9728C20.0748 49.0217 20.0158 49.2145 20.0158 49.3431C18.8358 49.4768 17.9816 50.1711 17.2762 51.0427C16.4476 52.0712 16.7144 53.6628 17.7892 53.92C18.8122 54.1774 19.8723 54.2531 20.9213 54.1437C22.9735 53.9277 25.0615 53.5883 27.0444 54.5499C26.2441 55.4216 25.218 55.7481 24.0739 55.8355C22.7375 55.9307 21.4446 55.6658 20.1441 55.4164C19.1334 55.2236 18.1099 55.1593 17.1556 55.7018C16.3579 56.1672 15.873 56.828 15.9089 57.782C15.9577 58.7899 16.6605 59.2836 17.5045 59.5819C18.2388 59.8112 19.0059 59.9172 19.7747 59.8956C22.4091 59.8956 24.9281 59.2939 27.4138 58.4917C27.7345 60.1321 28.9273 61.0783 30.174 61.9834C31.6566 63.0608 33.2727 62.5517 33.9191 60.8264C34.3095 59.8819 34.4848 58.8621 34.4322 57.8411C34.603 57.8293 34.7744 57.8293 34.9452 57.8411C37.7874 58.2397 40.2552 57.7177 41.8712 55.0436C41.9482 54.915 42.1277 54.8533 42.2765 54.7633C42.61 54.7968 42.982 54.7479 43.2718 54.879C44.8289 55.581 46.1243 55.1927 47.2607 54.0099C49.241 54.9562 51.3393 55.1207 53.4967 55.0384C54.7972 54.9947 55.518 55.6993 55.4334 56.7252C55.3231 58.07 54.1097 59.3247 52.7451 59.3865C51.8094 59.4518 50.8694 59.4078 49.9439 59.2553C48.3868 58.9571 46.8656 59.0548 45.6857 60.3327C44.5724 61.5257 44.7494 62.8062 46.1679 63.6033C46.8733 64.0019 47.6506 64.2899 48.3098 64.7501C49.4283 65.5215 49.3359 67.0257 48.1354 67.6916C47.1529 68.2367 46.1269 68.5479 44.9648 68.1313C44.0439 67.7945 43.0846 67.6196 42.138 67.3754Z" fill="#56ABBD"/>
<path d="M39.3676 130.873C39.2958 130.235 39.2189 129.608 38.8546 129.044C37.9901 127.682 36.7255 127.342 35.6917 128.489C33.7345 130.662 32.357 130.595 29.2326 128.867C29.4891 128.684 29.3968 128.517 29.1941 128.378C28.7548 128.12 28.3332 127.832 27.932 127.517C27.0316 126.697 25.9337 125.923 26.3724 124.432C26.7931 123.01 28.286 121.948 29.8431 121.84C31.3129 121.739 32.6982 122.171 34.109 122.454C35.3198 122.711 36.5767 122.879 37.7387 122.351C39.1188 121.721 39.9345 120.639 39.8525 119.027C43.1872 117.556 46.4681 117.06 49.6412 119.443C51.0957 120.536 52.7964 120.305 54.4535 120.305C56.2491 120.305 57.2367 120.948 57.4317 122.259C57.6497 123.73 56.6083 125.031 54.9819 125.501C53.2479 126.015 51.6959 125.406 50.1466 124.825C48.6998 124.28 47.2659 123.781 45.6857 123.91C44.3569 124.018 43.1051 124.995 42.7639 126.224C42.469 127.283 42.864 128.183 43.9055 128.445C44.8828 128.702 45.8935 128.985 46.9273 128.679C47.011 128.648 47.0967 128.622 47.1838 128.602C47.8328 128.504 48.7408 128.602 48.846 129.093C48.9717 129.682 48.0457 129.638 47.5634 129.808C44.9008 130.736 42.1586 131.001 39.3676 130.873Z" fill="#56ABBD"/>
<path d="M47.7867 -2.33684C49.8389 -1.62717 51.9141 -0.945784 53.9586 -0.194975C54.6974 0.0775789 55.0437 0.108434 54.9847 -0.858361C54.9381 -1.26846 55.0166 -1.68308 55.2098 -2.04755C55.4031 -2.41202 55.702 -2.70922 56.0672 -2.89994C57.0214 -3.4142 58.0321 -2.97451 58.4092 -1.90229C58.6247 -1.28519 58.617 -0.359536 59.5943 -0.562666C60.6204 -0.781223 60.8333 -1.66574 60.7102 -2.58625C60.5588 -3.69703 60.487 -4.78725 60.8435 -5.86975H62.8957C63.3509 -4.81425 63.6308 -3.6912 63.7243 -2.54511C63.832 -1.82773 64.127 -1.14891 64.8145 -0.925213C65.5635 -0.680944 65.4917 -0.305539 65.3762 0.298708C64.9761 2.38143 65.8611 4.20703 67.7106 5.25867C68.2236 5.55437 68.7725 5.81407 69.2497 6.15861C70.3604 6.94799 70.6785 8.11535 70.1629 9.3187C69.917 9.89161 69.4801 10.3611 68.927 10.6467C68.3739 10.9324 67.739 11.0165 67.1308 10.8846C66.1997 10.7072 65.5071 10.1621 64.9017 9.47554C63.2984 7.65766 61.2104 6.59059 59.0017 5.80121C56.7187 4.98869 55.2514 5.88606 54.8205 8.26705C54.5999 9.48326 54.5075 10.7226 54.3587 11.9517C54.2074 12.2576 54.0791 12.5765 53.9047 12.867C52.9992 14.3789 51.596 14.4921 50.4622 13.1704C49.9165 12.507 49.5618 11.7069 49.4362 10.8563C49.2694 9.93323 49.2104 8.99215 49.0847 8.06135C48.8846 6.5623 48.2074 5.40523 46.7504 4.79585C46.3588 4.62733 45.9878 4.41423 45.6448 4.16074C44.3904 3.24023 43.9928 0.818103 44.7675 -1.1952C45.3267 -2.69938 46.5888 -2.45511 47.7867 -2.33684Z" fill="#56ABBD"/>
<path d="M45.7191 103.391C44.2595 104.623 45.0829 106.22 45.0881 107.665C45.0881 108.58 45.419 109.477 45.2394 110.424C45.0188 111.586 44.3288 112.079 43.1873 112.095C42.4655 112.083 41.7437 112.109 41.0248 112.175C40.4985 112.228 39.9942 112.414 39.5581 112.714C39.122 113.014 38.7681 113.419 38.5289 113.892C37.9184 113.717 37.2924 113.576 36.6973 113.355C35.7277 112.995 34.8453 113.219 34.0244 113.73C32.8906 114.435 32.8572 115.443 33.8525 116.337C34.0582 116.552 34.3057 116.723 34.5797 116.838C34.8537 116.954 35.1483 117.012 35.4455 117.009C35.4199 117.304 35.189 117.397 34.9812 117.546C34.6016 117.803 34.1527 118.166 34.3168 118.649C34.4112 118.911 34.5834 119.139 34.8104 119.3C35.0374 119.461 35.3083 119.549 35.5866 119.552C37.0436 119.647 38.4263 119.181 39.8499 119.037C39.932 120.649 39.1163 121.732 37.7362 122.362C36.5742 122.889 35.3173 122.712 34.1065 122.465C32.6956 122.182 31.3104 121.75 29.8406 121.85C28.2835 121.958 26.7906 123.02 26.3699 124.442C25.9312 125.926 27.0291 126.7 27.9295 127.528C28.3307 127.842 28.7523 128.13 29.1916 128.389C29.3942 128.528 29.4789 128.695 29.2301 128.877C26.1339 127.692 24.7666 128.266 23.4122 131.33C23.1377 131.953 22.8992 132.598 22.6427 133.218C22.2594 134.172 21.6417 135.013 20.847 135.663C19.6542 136.586 18.446 136.468 17.4841 135.306C16.8587 134.5 16.3476 133.611 15.9655 132.665C16.3287 132.438 16.6195 132.112 16.8036 131.724C16.9877 131.337 17.0574 130.905 17.0044 130.479C16.9556 129.798 17.0044 129.111 16.989 128.422C16.9351 126.507 15.6217 125.504 13.7748 125.957C10.8864 126.651 7.73635 125.573 6.17159 123.092C5.5739 122.143 5.34046 122.598 4.93517 123.041C4.37262 123.684 3.66832 124.188 2.87804 124.511C2.08775 124.835 1.23317 124.97 0.381956 124.905C-0.3876 124.856 -0.4466 125.136 -0.441469 125.741C-0.423513 128.134 -0.349123 130.531 -0.469686 132.92C-0.531251 134.154 -0.0515606 134.923 0.84882 135.583C1.24759 135.828 1.61169 136.126 1.93133 136.468C2.44437 137.139 2.63163 136.62 2.88045 136.26C2.8548 137.633 3.18571 138.962 3.35244 140.314C2.32637 140.33 1.30029 140.291 0.289609 140.381C-0.613337 140.458 -0.846769 140.16 -0.846769 139.258C-0.803161 133.704 -0.846769 128.15 -0.813422 122.596C-0.79803 120.122 -0.980159 117.646 -0.697988 115.178H-0.59025H-0.482512C0.312696 114.854 0.70517 114.131 1.16947 113.488C4.35287 109.079 5.46103 109.94 8.5726 111.131C13.9954 113.203 19.4362 108.446 19.3464 103.867C20.8496 104.273 22.34 104.733 23.8586 105.075C25.7209 105.494 26.9368 106.618 27.6602 108.328C28.0022 109.106 28.3553 109.878 28.7196 110.642C29.2993 111.83 31.0283 112.895 31.9312 112.509C33.1394 111.995 33.3959 110.907 33.4267 109.66C33.4678 108.097 33.3805 106.556 32.6572 105.176C32.0697 104.062 31.3079 103.049 31.5669 101.686L31.726 101.499C32.0184 101.46 32.1056 101.265 32.1056 101.002C32.7238 100.951 32.6341 100.514 32.5956 100.105L32.7726 99.6937C33.4601 99.5111 33.7833 99.1049 33.5678 98.372L33.5806 98.3489C34.0193 98.4338 34.1937 98.2769 34.0449 97.8346L34.0962 97.8012C35.0248 98.1252 35.8919 97.485 36.823 97.6547C36.8579 97.6484 36.8939 97.6523 36.9267 97.666C36.9594 97.6797 36.9876 97.7025 37.0077 97.7318C37.0077 98.5032 37.3361 98.858 38.1338 98.5777L38.1672 98.6137C38.0312 99.2488 38.2595 99.5085 38.9085 99.3363L38.9316 99.38C38.9034 99.5625 38.9855 99.6371 39.165 99.6371L39.0958 99.6962L39.1727 99.6474C39.1599 99.8274 39.242 99.9045 39.4292 99.8917C39.4139 100.19 39.6139 100.239 39.8448 100.252C39.8961 100.956 40.3578 101.067 40.9324 101C42.6716 101.494 44.4134 101.998 45.7191 103.391Z" fill="#832368"/>
<path d="M41.364 6.43889C37.2058 8.68875 33.0682 10.9875 28.5252 12.3991C26.6834 12.9699 25.1187 12.5534 23.7873 11.08C22.9229 10.1261 22.1277 8.97416 20.5834 8.99987C18.975 9.02816 17.7104 10.1364 17.8643 11.4323C18.0182 12.7282 19.2264 13.5407 20.8348 13.2322C21.412 13.1216 21.7326 13.317 21.7454 13.785C21.7634 14.3635 21.6762 15.0218 20.8989 15.1606C20.0293 15.3149 19.2085 15.0295 18.385 14.8161C17.2179 14.5127 16.0995 14.5589 15.0785 15.2583C14.1499 15.8986 14.2192 16.7342 15.2504 17.2048C16.0199 17.5596 16.8254 17.863 17.7155 17.755C18.0135 17.7319 18.3128 17.7319 18.6108 17.755C20.5218 17.8142 21.7814 18.8401 21.589 20.1771C21.3812 21.6042 19.4086 22.8538 17.8618 22.5221C16.7792 22.2907 15.7019 22.0413 14.6245 21.7868C12.4492 21.2725 10.8331 21.8588 10.1046 23.4195C9.34789 25.0497 9.95327 27.261 11.4924 28.472C11.9618 28.8423 12.4338 29.2023 12.9058 29.5648C12.7185 30.0354 11.9746 30.1639 12.1363 30.8505C11.6232 30.4648 11.1615 29.9865 10.5227 29.8425C7.81904 29.2434 6.50823 27.7418 6.9597 24.8286C7.14183 23.6458 6.38253 22.931 5.14098 22.8307C4.42786 22.7741 3.68396 22.7741 3.10679 22.2342C3.29918 21.8022 3.50439 21.4139 4.03795 21.2802C5.18459 20.9922 6.02084 20.2517 6.81092 19.3903C7.45991 18.691 8.29103 17.9607 7.89343 16.9991C7.53174 16.1197 6.46462 16.5542 5.6925 16.4848C4.4689 15.5 3.21709 14.5512 2.03454 13.5201C1.2419 12.8311 1.15468 11.1752 1.59846 10.0464C2.04223 8.91759 2.88105 9.16443 3.71217 9.275C4.00874 9.30583 4.30741 9.311 4.60486 9.29042C6.35945 9.21586 7.90369 7.64482 7.74208 6.05835C7.59587 4.63644 6.39023 3.58736 4.1893 4.02705C2.65018 4.33046 1.17264 4.93213 -0.428041 4.92699C-0.428041 1.84148 -0.428041 -1.22861 -0.443432 -4.30641C-0.443432 -4.75638 -0.284391 -5.25778 -0.699951 -5.63061C0.521078 -6.10629 1.79598 -5.74889 3.04522 -5.84917C3.46591 -5.88259 3.49157 -5.49948 3.55826 -5.23721C3.89943 -4.13928 4.63821 -3.54275 5.75663 -3.36019C7.32652 -3.10306 8.09864 -2.08741 8.32182 -0.572938C8.42699 0.147015 8.51677 0.86954 8.66042 1.58178C9.05033 3.50765 10.0636 4.5053 11.7386 4.66729C13.5035 4.837 14.5886 4.12476 15.3735 2.27602C15.6557 1.60749 15.8866 0.913251 16.2303 0.273007C17.0435 -1.28261 18.2414 -1.784 19.9652 -1.43431C21.0272 -1.20804 21.9532 -0.662932 22.9177 -0.220675C23.8822 0.221582 24.7903 0.609842 25.8626 0.499278C27.6402 0.31929 28.5227 -0.884061 28.1405 -2.62223C27.4504 -5.85945 27.4504 -5.85945 30.7056 -5.85945H60.8312C60.4747 -4.77695 60.5465 -3.68674 60.6978 -2.57595C60.821 -1.65544 60.608 -0.776068 59.582 -0.552368C58.6046 -0.346667 58.6123 -1.27489 58.3968 -1.892C58.0198 -2.96421 57.0091 -3.40133 56.0548 -2.88965C55.6897 -2.69892 55.3907 -2.40172 55.1975 -2.03725C55.0042 -1.67278 54.9257 -1.25816 54.9723 -0.848063C55.0339 0.118731 54.6876 0.0878761 53.9463 -0.184678C51.8941 -0.935486 49.8419 -1.61687 47.7744 -2.32654C48.603 -2.9385 49.57 -3.01821 50.5551 -3.06706C53.0484 -3.18791 55.3135 -4.05186 57.4811 -5.25264C51.2272 -5.37348 44.9655 -5.37348 38.7065 -5.37348C38.2088 -5.37348 38.0626 -5.06236 37.9369 -4.67924C37.3572 -2.98478 36.0105 -2.36511 34.3918 -1.9897C32.8886 -1.63487 31.3341 -1.53716 29.9412 -0.608936C28.1738 0.568702 28.084 2.33002 28.7228 3.59508C29.2974 4.73158 31.2879 4.96042 32.8861 4.14533C34.0224 3.56422 35.1049 2.8597 36.367 2.582C37.801 2.25802 39.5248 3.51023 39.1605 4.87299C38.7475 6.41575 39.6094 6.15863 40.4226 6.19462C40.7509 6.1972 41.11 6.12777 41.364 6.43889Z" fill="#832368"/>
<path d="M100.332 41.4237C101.489 40.5649 101.517 39.4541 101.035 38.2327C99.8523 35.2372 101.22 33.2368 104.495 33.1828C105.478 33.1674 106.46 33.1828 107.443 33.1828C108.792 33.1828 109.934 32.7148 110.777 31.622C111.916 30.1615 113.412 29.7707 115.19 30.0793C116.729 30.3544 117.388 31.4497 117.734 32.7842C118.034 33.9336 117.306 34.6535 115.898 34.7204C114.407 34.7924 112.901 34.5404 111.429 34.8438C109.269 35.2912 108.305 37.3019 108.954 39.4335C109.813 42.2619 113.314 42.9253 115.744 42.0279C119.019 40.8169 121.074 38.3793 122.893 35.5818C123.768 34.2344 124.904 33.0671 126.707 33.1956C128.86 33.3499 130.091 34.8387 131.068 36.5383C132.169 38.4539 133.156 40.4286 135.337 41.4031C137.001 42.1462 138.289 41.4031 138.292 39.6212C138.292 37.6953 138.292 35.7643 138.292 33.841C138.292 33.3885 138.169 32.8742 138.712 32.5965C138.751 36.5537 138.841 40.5109 138.674 44.4655C138.633 44.4655 138.576 44.4475 138.548 44.4655C136.288 46.1548 133.931 46.3708 131.173 45.5994C129.157 45.0337 126.948 45.6534 124.83 45.7794C120.807 46.016 116.962 45.5223 113.34 43.5733C111.755 42.717 109.985 42.7067 108.14 42.8276C105.898 42.9742 103.546 43.4987 101.373 42.3133C100.949 42.1221 100.588 41.8135 100.332 41.4237V41.4237Z" fill="#832368"/>
<path d="M15.9731 132.655C16.3553 133.601 16.8663 134.49 17.4917 135.295C18.4537 136.457 19.6619 136.581 20.8547 135.653C21.6494 135.002 22.2671 134.161 22.6503 133.207C22.9273 132.588 23.1633 131.942 23.4199 131.32C24.7743 128.255 26.1415 127.682 29.2377 128.867C32.3518 130.595 33.7396 130.667 35.6968 128.489C36.7229 127.342 38.0055 127.682 38.8597 129.045C39.2163 129.608 39.2932 130.235 39.3728 130.873C39.0803 132.899 37.6515 133.989 36.038 134.904C35.2325 135.357 34.3937 135.756 33.5729 136.19C32.3282 136.624 31.1537 137.238 30.0868 138.013C29.2172 138.604 28.3373 139.227 28.0757 140.361L3.36265 140.325C3.19591 138.972 2.865 137.643 2.89066 136.27C2.67327 134.395 2.00034 132.601 0.930852 131.048C0.266469 130.04 0.828245 129.883 1.63371 129.847C2.63157 129.8 3.39087 130.418 4.1989 130.862C4.23893 130.954 4.30291 131.034 4.38413 131.093C4.46536 131.152 4.56086 131.188 4.66064 131.197L4.62985 131.161L4.92228 131.441H4.88637L5.73288 132.377L5.75597 132.403C7.71321 134.717 9.77306 135.069 11.6251 132.611C12.0197 132.165 12.4485 131.75 12.9077 131.372C14.3724 130.711 15.2061 131.6 15.9731 132.655Z" fill="#832368"/>
<path d="M138.72 5.68297C138.737 9.11132 138.756 12.5397 138.777 15.968C138.721 15.9758 138.665 15.9758 138.61 15.968C138.097 15.9423 137.863 15.4538 137.458 15.2326C136.039 14.4613 134.711 13.4328 132.93 13.893C131.194 13.4945 129.339 13.6127 127.957 12.0263C126.441 10.2984 125.527 10.5684 124.509 12.7025C123.627 14.5487 123.275 14.6361 121.587 13.4328C122.706 10.8435 120.984 8.0331 118.252 8.00482C117.319 7.99196 116.38 8.0511 115.474 7.74769C116.272 4.88074 117.288 4.01165 120.233 3.61825C122.498 3.31741 124.801 3.13999 126.779 1.79522C128.246 1.75665 129.68 1.8235 130.799 2.98571C131.178 3.37912 131.453 3.84966 131.927 4.18392C133.467 5.27157 135.219 5.46955 137.03 5.44898C137.45 6.48777 138.169 5.48498 138.72 5.68297Z" fill="#832368"/>
<path d="M137.024 5.42586C135.213 5.45414 133.472 5.24844 131.922 4.1608C131.448 3.82653 131.173 3.35599 130.793 2.96259C129.675 1.80038 128.241 1.73352 126.774 1.77209C127.6 -0.367196 126.335 -1.46255 124.368 -1.29285C122.929 -1.16943 121.5 -0.956015 120.04 -0.994584C118.663 -1.03058 117.86 -1.73768 117.252 -2.85361C116.644 -3.96953 117.426 -4.58407 118.157 -5.39144H89.5889V-5.80027C89.9711 -5.81827 90.3584 -5.8517 90.7381 -5.8517C106.338 -5.85513 121.933 -5.86713 137.525 -5.8877C138.517 -5.8877 138.83 -5.664 138.807 -4.62263C138.717 -1.37256 138.748 1.88266 138.733 5.14816C138.189 5.35974 137.607 5.45435 137.024 5.42586V5.42586Z" fill="#832368"/>
<path d="M121.587 13.4224C123.275 14.6257 123.626 14.5383 124.509 12.6921C125.535 10.558 126.44 10.288 127.956 12.0159C129.349 13.6023 131.194 13.4841 132.93 13.88C133.375 14.1265 133.751 14.48 134.026 14.9085C135.242 16.837 136.542 17.251 138.781 16.4513C138.781 21.1156 138.788 25.7807 138.802 30.4467C138.842 30.8754 138.753 31.3063 138.545 31.6835C137.473 32.0691 136.493 33.0951 135.234 32.154C135.07 31.9817 134.903 31.8095 134.739 31.6397C134.229 30.5684 134.111 29.3517 134.405 28.202C134.616 27.3072 134.757 26.4021 134.918 25.4893C134.934 25.3144 134.949 25.137 134.962 24.975C135.098 24.0005 134.944 23.1057 134.226 22.3704C133.751 21.4396 132.907 20.9664 131.984 20.6296C130.652 20.1411 129.347 20.2671 128.028 20.7762C127.133 21.1233 126.143 21.5167 125.463 20.3468C125.44 19.7708 125.501 19.0868 124.852 18.8503C124.203 18.6137 123.79 19.1331 123.388 19.5548C122.5 20.1385 121.618 20.1334 120.807 19.4365C120.226 18.9669 119.759 18.3706 119.441 17.693C119.124 17.0153 118.965 16.2741 118.976 15.5257C119.014 13.9109 119.973 13.1652 121.587 13.4224Z" fill="#832368"/>
<path d="M1.00005 18.0252C0.515226 17.4904 0.179186 16.7396 -0.700673 16.7396L-0.716064 16.4824C-0.31846 16.1559 -0.441589 15.7111 -0.441589 15.2868C-0.441589 11.903 -0.441589 8.52095 -0.441589 5.1406C-0.441589 5.0686 -0.423633 4.99661 -0.415937 4.92204C1.17704 4.92204 2.66229 4.32551 4.2014 4.0221C6.40233 3.58241 7.60797 4.63149 7.75419 6.05339C7.91579 7.63986 6.37155 9.2109 4.61696 9.28547C4.31951 9.30604 4.02084 9.30088 3.72428 9.27004C2.88289 9.15948 2.05434 8.91521 1.61056 10.0414C1.16678 11.1676 1.254 12.8261 2.04664 13.5152C3.22919 14.5437 4.48101 15.4951 5.7046 16.4799C4.11931 16.9761 2.45194 17.1818 1.00005 18.0252Z" fill="#832368"/>
<path d="M2.27252 39.8372L2.34178 39.7704C2.55982 40.1406 2.90869 40.1072 3.25755 40.0789C5.48072 41.0817 6.50679 43.005 6.33578 45.8489C3.8655 46.016 1.57735 45.2215 -0.723619 44.4912V44.2341C-0.489976 43.7492 -0.370336 43.2171 -0.373894 42.6787C-0.377451 42.1402 -0.504111 41.6097 -0.744141 41.128C-0.744141 40.8709 -0.744141 40.6292 -0.744141 40.3798C0.211832 39.9872 1.24001 39.8022 2.27252 39.8372V39.8372Z" fill="#832368"/>
<path d="M28.063 140.35C28.3195 139.216 29.2045 138.594 30.0741 138.003C31.141 137.227 32.3155 136.613 33.5602 136.18C34.6889 137.033 36.1895 137.278 37.1232 138.494C37.567 139.075 37.8594 139.597 37.7748 140.317L28.063 140.35Z" fill="#832368"/>
<path d="M138.782 16.4361C136.542 17.2435 135.242 16.8295 134.026 14.8934C133.751 14.4648 133.375 14.1113 132.93 13.8649C134.711 13.3943 136.039 14.446 137.458 15.207C137.863 15.423 138.089 15.9167 138.61 15.9424L138.784 16.1996C138.776 16.2782 138.775 16.3573 138.782 16.4361Z" fill="#832368"/>
<path d="M135.231 32.1388C136.491 33.0798 137.471 32.0539 138.543 31.6682C138.669 31.8996 138.833 32.1233 138.72 32.4139C138.148 32.1105 137.802 32.7121 137.317 32.7661C136.532 32.851 135.621 33.4038 135.231 32.1388Z" fill="#832368"/>
<path d="M42.138 67.3752C43.0846 67.6195 44.0517 67.7943 44.9597 68.1235C46.1218 68.54 47.1478 68.2289 48.1303 67.6838C49.3282 67.0178 49.4129 65.5213 48.3047 64.7423C47.6455 64.282 46.8682 63.994 46.1628 63.5955C44.7443 62.7984 44.5673 61.5179 45.6806 60.3248C46.8708 59.0392 48.3817 58.9492 49.9388 59.2475C50.8643 59.3999 51.8043 59.4439 52.7399 59.3786C54.1046 59.3169 55.3051 58.0621 55.4283 56.7173C55.5129 55.6888 54.7921 54.9869 53.4915 55.0306C51.3342 55.1052 49.2359 54.9406 47.2556 54.0021C47.5275 52.7319 48.3047 51.616 48.3714 50.284L48.4535 50.2558C48.4848 50.269 48.5186 50.2752 48.5526 50.2738C48.5865 50.2724 48.6198 50.2636 48.6499 50.2479C48.68 50.2321 48.7063 50.21 48.7269 50.1829C48.7475 50.1558 48.7619 50.1245 48.769 50.0912C49.554 49.6952 50.3543 49.8598 51.1316 50.0912C52.0704 50.3689 52.9785 50.7494 53.9199 51.0169C55.0486 51.3357 56.2286 51.5542 57.1264 50.5026C58.0678 49.415 57.837 48.1885 57.3137 47.0108C57.0688 46.4141 56.6607 45.8989 56.1363 45.5246C53.4967 43.7248 50.9802 41.7577 48.9332 39.261C48.8459 39.1643 48.7478 39.0781 48.6408 39.0039C46.6015 37.4612 44.8546 37.5666 43.0948 39.405C42.0808 40.5059 40.9063 41.4465 39.6113 42.1949C38.4159 41.7037 37.7592 40.5775 36.8076 39.8036C35.9611 39.1145 35.289 38.0294 34.1962 37.8597C32.4239 37.5574 30.6054 37.679 28.8888 38.2145C26.457 39.0219 24.528 38.2891 22.7939 36.7386C21.8705 35.9055 20.7777 35.0853 20.6033 33.6685C22.3296 34.2651 24.0304 34.9542 25.7901 35.4401C29.2993 36.3838 32.8751 36.0547 36.4484 35.8335C39.8524 35.6227 43.2667 35.4864 46.5578 36.6821C48.1668 37.2362 49.834 37.6029 51.5266 37.7749C53.6993 38.032 55.5488 37.2349 57.17 35.8438C58.1038 35.0365 58.9657 34.1519 59.8506 33.2906C61.0127 32.1515 62.462 31.4907 63.955 31.0407C65.3107 30.6506 66.5153 29.8549 67.4077 28.76C67.7104 28.3949 67.7591 28.5646 67.8361 28.8654C67.359 30.763 66.4278 32.4498 65.2991 34.008C63.27 36.8132 61.1538 39.5542 59.1042 42.344C58.3577 43.3571 58.9144 44.4576 60.197 44.581C60.5174 44.6027 60.8389 44.5608 61.1431 44.4575C61.4473 44.3542 61.7282 44.1917 61.9695 43.9793L63.6779 42.6525C63.7061 43.5422 63.6446 44.4036 64.0473 45.2829C65.0734 47.5482 67.1255 48.3556 69.2315 49.1141C71.1734 49.8161 72.3482 51.1711 72.9562 53.1459C73.7591 55.7557 73.3025 58.4118 73.4102 61.0448C73.4872 62.9347 74.4363 64.2486 76.1909 64.7345C76.7039 64.8785 77.3196 64.5726 77.7762 65.0405C76.1652 67.5912 72.6894 67.8355 70.232 65.5779C68.3055 63.814 67.3615 61.4845 66.4611 59.1215C66.2923 58.5938 66.0759 58.0826 65.8147 57.5941C65.2324 56.6325 64.5911 55.6914 63.2495 55.7943C61.9079 55.8971 61.1563 56.7868 60.6612 57.8358C59.2196 60.8931 59.4248 63.9632 61.2589 66.7478C63.093 69.5325 65.825 70.5919 69.0905 70.4222C69.3983 70.4067 69.7985 70.0545 70.0037 70.4942C70.0895 70.6919 70.1269 70.9074 70.1126 71.1226C70.0983 71.3377 70.0328 71.5464 69.9216 71.7309C69.3129 72.8272 68.3146 73.6534 67.1255 74.0451C65.9547 74.4426 64.8669 75.0527 63.9165 75.845C62.9237 76.696 62.6339 77.8891 63.229 78.7942C63.76 79.5964 65.0246 79.761 66.1123 79.0976C66.9408 78.5834 67.7694 78.1077 68.4209 77.3106C68.7635 76.897 69.1841 76.5551 69.6586 76.3045C70.1331 76.0539 70.6522 75.8995 71.1862 75.8501C72.5689 75.6984 73.1588 76.2358 73.1794 77.65C73.1794 78.0768 73.1794 78.5062 73.1794 78.9356C71.2093 78.5756 69.7651 79.7379 68.2542 80.6789C65.8788 82.1574 64.5219 82.0957 62.3543 80.2933C61.1409 79.2879 59.9302 78.2722 58.7835 77.1923C56.952 75.467 54.9665 75.5467 52.8836 76.5726C52.114 76.9455 51.3958 77.38 50.5493 77.5471C49.1102 77.83 47.9507 77.4854 46.8451 76.4132C44.2389 73.8985 42.9999 70.7487 42.138 67.3752Z" fill="#832368"/>
<path d="M90.533 71.8161C90.6715 71.7364 90.8254 71.559 90.9459 71.5898C94.1678 72.1349 97.0614 71.0936 99.9087 69.7745C101.417 69.0777 102.923 68.3654 104.475 67.7792C105.946 67.1924 107.535 66.9607 109.113 67.103C111.144 67.3164 112.391 66.4164 113.191 64.5703C113.845 63.0661 114.818 61.7599 116.462 61.1608C116.998 61.2836 117.495 61.54 117.906 61.9063C118.317 62.2726 118.63 62.7369 118.814 63.2563C117.965 64.4777 116.7 65.2131 115.526 66.0487C113.835 67.2547 112.324 68.5917 111.752 70.7104C111.149 72.9449 112.352 74.9736 114.574 75.2744C115.632 75.4067 116.704 75.3886 117.757 75.2204C119.581 74.9427 121.397 74.9273 123.144 75.619C122.631 76.8455 121.649 77.5011 120.443 77.9331C117.668 78.9153 115.767 80.8001 115.313 83.739C114.897 86.462 115.392 88.951 117.86 90.7869C120.258 92.5687 120.805 94.1295 120.012 96.1299C119.625 97.1259 119.107 98.0658 118.473 98.9249C117.465 100.295 116.182 101.46 115.395 103.003C113.461 102.489 111.532 101.902 109.52 101.81C106.34 101.663 103.274 101.234 100.512 99.4212C99.96 99.0426 99.3214 98.811 98.6559 98.748C97.9904 98.685 97.3198 98.7928 96.7074 99.0612C95.5915 99.5369 95.5556 99.8711 96.4893 100.604C97.2768 101.224 97.6103 102.106 97.6847 103.067C97.7284 103.664 97.6973 104.263 97.5923 104.852C97.1306 107.438 98.0695 109.339 100.27 110.709C101.386 111.403 102.556 112.046 103.418 113.085C102.715 114.972 101.799 116.649 99.5445 116.983C98.8621 116.826 98.7031 116.193 98.3927 115.697C97.4333 114.193 96.8536 112.463 95.8942 111.002C94.5859 108.994 92.9853 107.163 90.8895 105.803C88.5347 104.273 86.5441 104.191 84.4201 105.911L82.6193 104.934C81.8113 103.306 80.3645 102.62 78.6869 102.322C77.3838 102.098 76.0396 102.003 74.9109 101.244C73.9516 100.599 73.4257 99.5934 73.7566 98.4724C74.0516 97.467 74.9853 97.1867 76.0191 97.1559C77.0529 97.125 78.0713 97.3847 79.0512 96.8987C79.5175 96.9122 79.9781 97.0052 80.4133 97.1739C83.7891 98.2024 87.152 98.5546 90.456 96.8576C91.0083 96.5794 91.4981 96.1909 91.8951 95.716C92.2921 95.2411 92.588 94.6898 92.7647 94.0961C93.3803 92.1959 94.4166 91.6611 96.3431 92.1805C97.9002 92.6022 99.4931 92.8927 101.045 93.3247C102.841 93.8235 104.493 93.3967 106.07 92.597C107.54 91.8514 108.079 90.4732 108.292 88.9253C108.505 87.3774 107.54 86.4209 106.411 85.8603C105.172 85.2432 103.744 85.2304 102.307 85.4695C100.05 85.8423 97.8822 85.7112 96.261 83.7107C95.7121 83.0319 95.2503 82.3428 95.1836 81.448C94.9254 80.6098 94.6689 79.7724 94.4141 78.9359L94.6296 78.6788C95.0785 79.0696 95.4735 79.5607 95.9865 79.8307C97.2409 80.4967 98.2465 79.9001 98.308 78.5451C98.3057 78.0487 98.444 77.5619 98.7069 77.1413C98.9699 76.7206 99.3466 76.3836 99.7933 76.1692C100.717 75.7064 101.54 76.015 102.297 76.5883C103.438 77.4523 104.226 78.6453 105.093 79.7484C105.96 80.8515 106.901 81.9263 108.251 82.4945C109.846 83.1682 111.503 82.6642 112.263 81.286C112.955 80.0261 112.555 78.6891 110.895 77.7866C108.843 76.6706 107.455 75.0353 106.391 73.0271C106.085 72.4633 105.724 71.931 105.314 71.4381C104.103 69.9571 102.725 69.6177 100.978 70.4096C100.05 70.8339 99.1828 71.379 98.2773 71.8752C95.6813 73.3485 93.0981 73.4643 90.533 71.8161Z" fill="#832368"/>
<path d="M50.5648 100.563C49.5182 99.6832 48.2561 99.3078 46.9581 99.0198C44.9675 98.557 43.4387 97.657 42.764 95.5409C42.3408 94.2167 41.4814 93.885 40.1347 94.1833C39.7602 94.2681 39.3959 94.3941 39.024 94.4892C36.9 95.0446 35.897 94.4172 35.4686 92.2574C35.2121 90.8972 34.6991 89.6733 33.26 89.2104C31.7748 88.7322 30.6076 89.4676 29.5507 90.3958C29.0146 90.8715 28.5452 91.4243 28.045 91.9385C27.9706 91.3986 27.5319 91.1852 27.142 90.9357C25.921 90.1644 25.408 88.9533 25.2694 87.606C25.2085 87.2009 25.257 86.7869 25.41 86.407C25.5629 86.0271 25.8147 85.6953 26.139 85.4461C26.4883 85.1906 26.9071 85.0481 27.3393 85.0375C27.7716 85.0269 28.1967 85.1489 28.558 85.387C29.9073 86.1918 31.2002 87.0891 32.5187 87.9582C32.8727 88.1922 33.219 88.4468 33.6704 88.4725C33.7115 88.8762 33.8474 89.0716 34.2348 88.7296C35.4917 90.3778 37.5233 90.6812 39.2215 91.522C42.5203 93.1522 46.1013 93.9518 49.7106 94.5252C52.5323 94.9752 55.3899 94.5612 58.2321 94.6332C60.1329 94.6795 60.8281 95.8726 59.9174 97.549C59.6871 97.9832 59.3659 98.3623 58.9759 98.6605C58.5858 98.9587 58.1361 99.169 57.6575 99.2769C55.7003 99.7912 53.702 99.8297 51.6986 99.7732C51.0983 99.7295 50.5468 99.7398 50.5648 100.563Z" fill="#832368"/>
<path d="M90.0789 74.796C91.2614 74.2406 92.1105 74.8294 92.8416 75.6625C93.6265 76.5573 94.0831 77.6629 94.6372 78.7043L94.4217 78.9614C93.8779 78.658 93.6086 77.9715 92.916 77.8763C92.1641 76.6858 91.2028 75.6421 90.0789 74.796V74.796Z" fill="#832368"/>
<path d="M84.2073 83.8133C84.2499 82.906 84.5141 82.0231 84.9768 81.2421C85.8156 81.3732 86.7724 81.908 86.7878 82.5277C86.8032 83.3402 85.6951 83.4765 84.9384 83.6719C84.7024 83.749 84.4535 83.7722 84.2073 83.8133Z" fill="#832368"/>
<path d="M92.9133 77.8684C93.6059 77.9635 93.8753 78.6398 94.4191 78.9535C94.6756 79.7917 94.9321 80.6291 95.1887 81.4656C93.9522 80.5734 93.6008 79.1129 92.9133 77.8684Z" fill="#832368"/>
<path d="M34.2296 88.704C33.8423 89.0409 33.7166 88.8455 33.6653 88.4469C33.7737 88.4354 33.8832 88.4531 33.9824 88.4983C34.0817 88.5435 34.167 88.6146 34.2296 88.704Z" fill="#832368"/>
<path d="M50.8315 100.843L50.5544 100.537L50.8315 100.843Z" fill="#832368"/>
<path d="M89.5889 -5.38879H118.157C117.426 -4.58142 116.662 -3.9386 117.252 -2.85096C117.842 -1.76331 118.663 -1.02793 120.04 -0.991935C121.5 -0.953366 122.929 -1.16678 124.368 -1.2902C126.335 -1.45991 127.6 -0.364547 126.774 1.77474C124.796 3.1118 122.493 3.29693 120.23 3.59777C117.283 3.99117 116.267 4.86026 115.469 7.74007C113.943 8.37775 112.432 9.06427 110.785 9.34454C107.404 9.90765 105.001 9.53996 103.78 5.87076C103.67 5.45385 103.427 5.08425 103.089 4.81827C102.75 4.5523 102.334 4.40451 101.904 4.39743C100.84 4.32801 99.7599 4.27658 98.7723 4.79598C98.2208 5.08653 97.6333 5.08139 97.0459 5.17138C95.5068 5.40794 94.2729 4.84483 93.1622 3.86004C92.9903 2.58983 93.5059 1.64875 94.5012 0.8928C95.0758 0.455686 95.7351 -0.068852 95.3478 -0.889085C95.171 -1.25736 94.8873 -1.56347 94.5339 -1.76721C94.1805 -1.97096 93.7739 -2.06282 93.3674 -2.03073C93.2413 -2.04495 93.1139 -2.04495 92.9878 -2.03073C90.8228 -1.50105 89.2323 -2.90495 89.5889 -5.38879Z" fill="#832368"/>
<path d="M93.1622 3.86511C94.2729 4.84991 95.4991 5.40787 97.0459 5.17646C97.6333 5.08646 98.2207 5.0916 98.7723 4.80105C99.7599 4.2868 100.84 4.33308 101.904 4.40251C102.334 4.40928 102.749 4.55632 103.088 4.8213C103.426 5.08629 103.669 5.45474 103.78 5.8707C105.001 9.53989 107.404 9.90758 110.785 9.33162C112.432 9.05135 113.943 8.36482 115.469 7.72715C116.375 8.04084 117.313 7.98427 118.247 7.98427C120.984 8.02027 122.705 10.8127 121.582 13.4122C119.974 13.1551 119.017 13.9007 118.989 15.4872C118.977 16.2357 119.137 16.9769 119.454 17.6545C119.771 18.3321 120.239 18.9284 120.82 19.3981C121.631 20.0949 122.513 20.1001 123.401 19.5164C124.029 19.9458 124.683 20.3083 125.476 20.3083C126.156 21.4783 127.146 21.0797 128.041 20.7377C129.36 20.2235 130.665 20.1026 131.997 20.5912C132.92 20.928 133.764 21.4011 134.239 22.3319C132.82 20.9074 131.345 21.9025 129.878 22.2162C125.061 23.2762 120.066 23.2261 115.272 22.0697C113.784 21.7097 112.209 21.4268 110.862 20.5732C112.694 19.8892 113.122 19.1384 112.637 17.2511C112.31 15.834 111.719 14.4915 110.895 13.2939C109.233 11.0055 106.932 10.9592 105.193 13.1628C105.008 13.3968 104.834 13.6411 104.652 13.8776C103.254 15.6775 102.433 15.9655 100.242 15.3484C99.8342 15.2327 99.4366 15.0912 99.0365 14.9473C99.5495 13.0857 98.7107 11.926 96.7278 11.8232C94.7449 11.7203 92.7492 11.9543 90.7663 12.2191C89.3375 12.412 87.8805 12.5277 86.4671 12.1009C84.5432 11.5172 84.1584 10.337 85.4102 8.7428C86.6396 7.14741 88.2422 5.88015 90.0763 5.05304C91.0844 4.61849 92.131 4.26109 93.1622 3.86511Z" fill="#832368"/>
<path d="M55.9901 12.61C55.3591 12.61 54.6716 12.7308 54.3484 11.9517C54.4972 10.7227 54.5895 9.48331 54.8101 8.2671C55.2411 5.88612 56.7084 4.98874 58.9914 5.80126C61.2128 6.59064 63.3009 7.65772 64.8913 9.4756C65.4967 10.1621 66.1893 10.7072 67.1205 10.8847C67.73 11.0175 68.3666 10.9333 68.9209 10.6465C69.4752 10.3598 69.9125 9.88851 70.1576 9.31361C70.6707 8.11026 70.3552 6.9429 69.2444 6.15353C68.7596 5.80898 68.2184 5.54928 67.7053 5.25359C65.8558 4.20194 64.9708 2.37634 65.371 0.293621C65.4864 -0.310626 65.5583 -0.68603 64.8092 -0.9303C64.1218 -1.154 63.8268 -1.83281 63.719 -2.5502C64.8554 -3.23672 65.8712 -2.71733 66.6254 -1.98195C69.0084 0.332189 71.5659 0.519891 74.4774 -0.860876C75.8036 -1.49084 77.176 -2.12594 78.7433 -2.06937C80.403 -2.00766 82.037 -0.830021 82.3346 0.813015C82.6809 2.77232 82.4731 4.73676 81.111 6.26152C78.1226 9.60416 74.7314 12.5251 70.781 14.6824C67.9593 16.2252 66.1636 15.7109 64.2705 13.1139C62.516 10.7252 61.9619 10.5427 59.0966 11.53C58.0577 11.8823 57.0239 12.25 55.9901 12.61Z" fill="#832368"/>
<path d="M81.8727 19.1849C80.5081 18.0767 79.128 18.2875 77.7684 19.1618C76.904 19.7094 76.1088 20.3394 75.2238 20.8537C74.0284 21.5582 72.7586 21.9233 71.376 21.337C73.6256 21.2188 74.78 19.4343 76.2498 18.1281C76.9732 17.4853 77.6145 16.7396 78.7073 16.7088C80.3516 16.6599 81.4726 17.511 81.8727 19.1849Z" fill="#832368"/>
<path d="M95.4965 15.968C94.2447 17.3513 92.9647 18.673 90.8381 18.2821C91.6821 16.4591 93.8753 15.3689 95.4965 15.968Z" fill="#832368"/>
<path d="M68.2005 23.1677C68.1646 24.785 68.5186 26.4178 68.0209 28.0197C66.8743 26.3175 66.9307 24.5665 68.2005 23.1677Z" fill="#832368"/>
<path d="M84.1943 58.1368C83.276 56.9026 82.7168 55.6273 83.6813 54.1436C84.3919 53.0457 85.6642 52.858 86.6159 53.7425C87.1198 54.202 87.5848 54.7025 88.0062 55.239C89.081 56.6583 90.0173 56.9437 91.4949 56.2264C92.4645 55.7584 93.034 54.1693 92.7775 52.8837C92.521 51.6675 92.0438 50.6339 90.9023 49.9782C90.515 49.7545 90.1328 49.4202 90.1148 48.8777C91.3102 49.1888 92.5671 49.104 93.7574 49.5051C95.5915 50.1222 96.2148 50.9604 96.279 52.876C96.3739 55.6375 95.73 58.1188 93.8215 60.2015C92.6723 61.4537 91.2563 61.9783 89.5889 61.9577L87.3239 60.9292C86.5543 59.6796 85.7412 58.4968 84.1943 58.1368Z" fill="#832368"/>
<path d="M79.8129 42.0407C79.7089 41.9748 79.6282 41.8778 79.5822 41.7633C79.5361 41.6489 79.5271 41.5229 79.5564 41.4031C79.8232 41.5394 79.8052 41.7965 79.8129 42.0407Z" fill="#832368"/>
<path d="M125.999 58.3938C125.807 58.2704 125.486 58.2138 125.709 57.8641C125.95 57.9541 125.991 58.1598 125.999 58.3938Z" fill="#832368"/>
<path d="M82.7066 77.0947V77.3724C82.4424 77.2721 82.5578 77.1821 82.7066 77.0947Z" fill="#832368"/>
<path d="M90.0773 71.5982L89.8506 71.451C90.0721 71.2728 90.0335 71.5078 90.0773 71.5982Z" fill="#832368"/>
<path d="M20.3595 48.9779C20.9136 50.3612 21.4061 50.5798 22.7888 50.0398C23.1043 49.9164 23.4044 49.7519 23.7174 49.6156C25.4617 48.8596 26.8187 49.1733 27.7396 50.5464C28.5912 51.8166 28.3527 53.2128 27.0598 54.5498C25.0769 53.5882 22.976 53.9276 20.9367 54.1436C19.8877 54.253 18.8276 54.1773 17.8046 53.9199C16.7298 53.6627 16.463 52.0686 17.2916 51.0426C17.997 50.171 18.8512 49.4767 20.0312 49.343C20.2569 49.325 20.3005 49.1373 20.3595 48.9779Z" fill="#832368"/>
<path d="M20.3596 48.9779C20.3006 49.145 20.2569 49.325 20.0312 49.343C20.0312 49.2144 20.0979 49.0216 20.0312 48.9727C18.5229 47.7025 17.5943 45.9541 16.3117 44.509C15.655 43.7685 14.6623 43.5139 13.608 43.8456C12.2741 44.2648 10.9299 44.6504 9.71146 45.3653C9.1051 44.92 8.5925 44.359 8.20312 43.7145C10.0295 43.6219 11.1249 42.7194 11.3506 40.8553C12.7717 41.2024 14.2262 41.8246 15.4293 40.3616C18.0278 41.2435 20.4186 42.3594 21.1804 45.3653C21.218 45.5567 21.3201 45.7293 21.4695 45.8543C21.6189 45.9792 21.8067 46.049 22.0013 46.0518C21.301 46.9466 20.5904 47.826 20.3596 48.9779Z" fill="#832368"/>
<path d="M27.4292 58.4737C29.6272 57.4647 32.1022 57.2353 34.4475 57.8232C34.5002 58.8441 34.3249 59.864 33.9345 60.8084C33.2881 62.5337 31.672 63.0428 30.1893 61.9655C28.9427 61.0604 27.7498 60.1142 27.4292 58.4737Z" fill="#832368"/>
<path d="M42.2791 54.7479C42.3949 54.5407 42.5594 54.365 42.7583 54.236C42.9573 54.1069 43.1846 54.0285 43.4206 54.0074C45.0289 53.8762 46.0396 52.9017 46.9015 51.6572C47.2863 51.1019 47.707 50.5439 48.3791 50.2791C48.3124 51.6084 47.5351 52.7243 47.2632 53.9945C46.1268 55.1773 44.8314 55.5656 43.2743 54.8636C42.9845 54.7325 42.6125 54.7942 42.2791 54.7479Z" fill="#832368"/>
<path d="M4.19381 130.852C3.37808 130.407 2.61879 129.79 1.62862 129.837C0.823155 129.873 0.261379 130.029 0.925763 131.037C1.99525 132.591 2.66818 134.384 2.88557 136.26C2.62905 136.62 2.46231 137.139 1.93645 136.468C1.61444 136.125 1.24772 135.828 0.846242 135.583C-0.0541391 134.923 -0.533829 134.154 -0.472265 132.92C-0.351701 130.531 -0.426091 128.134 -0.444048 125.741C-0.444048 125.136 -0.392744 124.856 0.379378 124.905C1.23059 124.97 2.08517 124.835 2.87546 124.511C3.66575 124.188 4.37004 123.684 4.93259 123.041C5.33789 122.598 5.57132 122.143 6.16901 123.092C7.73377 125.573 10.8838 126.651 13.7722 125.957C15.6217 125.512 16.9351 126.507 16.9967 128.417C17.0198 129.101 16.9633 129.788 17.0121 130.474C17.0651 130.9 16.9954 131.332 16.8113 131.719C16.6272 132.107 16.3364 132.433 15.9732 132.66C15.2036 131.606 14.3725 130.716 12.8949 131.374C11.9561 130.937 11.0018 131.138 10.0347 131.266C8.55463 131.464 7.28743 132.434 5.75345 132.405L5.73036 132.38C5.7124 131.827 5.59184 131.366 4.88385 131.444H4.91976L4.62476 131.161L4.65555 131.194C4.59911 130.94 4.41185 130.875 4.19381 130.852Z" fill="#832368"/>
<path d="M134.923 25.4816C134.754 26.3867 134.613 27.2995 134.41 28.1943C134.116 29.344 134.234 30.5607 134.744 31.632C134.487 31.614 134.213 31.6629 134.059 31.398C133.515 30.4621 134.126 26.3584 134.923 25.4816Z" fill="#832368"/>
<path d="M134.231 22.3369C134.949 23.0723 135.103 23.9671 134.967 24.9416C134.706 24.0777 134.285 23.26 134.231 22.3369Z" fill="#832368"/>
<path d="M1.00024 18.025C2.45214 17.1713 4.11951 16.9656 5.68684 16.4591C6.4564 16.5362 7.52608 16.1017 7.88777 16.9733C8.28538 17.935 7.45426 18.6652 6.80527 19.3646C6.01519 20.2157 5.17894 20.9665 4.0323 21.2545C3.49874 21.3882 3.29352 21.7687 3.10113 22.2084C1.79545 21.1336 1.65693 19.4546 1.00024 18.025Z" fill="#832368"/>
<path d="M118.301 134.969C119.357 134.864 120.35 134.412 121.123 133.683C123.539 134.411 125.65 133.755 127.536 132.21C128.146 131.676 128.873 131.291 129.657 131.086C131.894 130.549 132.692 130.829 133.977 132.737C134.454 133.441 134.864 134.174 135.829 134.367C137.442 134.691 138.292 134.064 138.294 132.459C138.294 130.06 138.294 127.661 138.294 125.26C138.294 124.72 138.109 124.424 137.666 124.025C136.334 122.83 135.021 122.997 133.672 123.794C130.627 125.609 127.323 126.188 123.839 125.959C122.895 125.897 121.949 125.774 121.6 124.653C121.926 123.192 123.211 122.197 124.968 122.107C126.412 122.035 127.844 121.83 129.298 121.822C130.478 121.822 131.555 121.405 132.099 120.158C132.643 118.911 132.42 117.844 131.612 116.816C130.95 115.98 130.304 115.134 129.621 114.316C127.677 111.982 127.438 109.817 129.108 107.415C130.419 105.533 132.335 104.24 134.046 102.687C134.259 103.16 133.977 103.35 133.82 103.589C132.456 105.646 131.55 107.852 131.589 110.408C131.653 114.586 134.695 116.996 138.715 115.954C138.715 123.82 138.715 131.685 138.769 139.551C138.769 140.435 138.309 140.366 137.743 140.366C133.264 140.366 128.786 140.366 124.309 140.366C123.842 140.366 123.372 140.392 122.906 140.407L120.597 140.327C120.62 140.245 120.62 140.132 120.674 140.088C122.818 138.422 122.726 137.561 120.417 136.09C119.732 135.655 118.655 135.987 118.301 134.969Z" fill="#832368"/>
<path d="M118.301 134.968C118.655 135.997 119.732 135.655 120.422 136.092C122.731 137.563 122.831 138.424 120.679 140.09C120.625 140.134 120.625 140.247 120.602 140.33L118.55 140.412H114.959L92.013 140.363C91.287 140.363 90.5611 140.342 89.8351 140.33C89.7915 139.178 90.6406 138.553 91.3742 137.943C93.8214 135.886 96.461 134.315 99.8034 134.148C101.761 134.051 103.138 134.866 104.09 136.38C105.372 138.393 107.119 138.399 108.964 137.38C110.68 136.432 112.419 135.498 114.274 134.986C115.52 134.642 116.952 134.953 118.301 134.968Z" fill="#832368"/>
<path d="M5.75098 132.387C7.29009 132.415 8.55216 131.446 10.0323 131.248C10.9994 131.119 11.9536 130.919 12.8925 131.356C12.4333 131.735 12.0044 132.149 11.6099 132.595C9.76806 135.053 7.70822 134.709 5.75098 132.387Z" fill="#832368"/>
<path d="M4.88135 131.418C5.58934 131.341 5.7099 131.801 5.72786 132.354L4.88135 131.418Z" fill="#832368"/>
<path d="M4.19385 130.852C4.41189 130.875 4.59915 130.939 4.65558 131.184C4.55584 131.176 4.46017 131.14 4.37883 131.082C4.2975 131.024 4.23355 130.944 4.19385 130.852V130.852Z" fill="#832368"/>
<path d="M4.62476 131.161L4.91719 131.441L4.62476 131.161Z" fill="#832368"/>
<path d="M11.3584 40.8553C11.1327 42.7194 10.0373 43.622 8.21091 43.7145C7.55679 42.8891 7.16431 42.0175 7.939 41.0687C8.61365 40.2459 9.83467 40.1919 11.3584 40.8553Z" fill="#832368"/>
<path d="M125.481 20.3185C124.688 20.3185 124.034 19.9559 123.406 19.5265C123.808 19.1049 124.242 18.5906 124.87 18.822C125.499 19.0534 125.458 19.7425 125.481 20.3185Z" fill="#832368"/>
<path d="M48.4612 50.2482L48.7767 50.0836C48.7696 50.1169 48.7552 50.1482 48.7346 50.1753C48.714 50.2024 48.6877 50.2246 48.6576 50.2403C48.6274 50.256 48.5942 50.2648 48.5602 50.2662C48.5263 50.2676 48.4925 50.2614 48.4612 50.2482V50.2482Z" fill="#832368"/>
<path d="M84.5869 109.953C85.1692 110.423 85.1692 111.167 85.4129 111.786C86.0798 113.481 87.0315 113.799 88.5322 112.781C89.0837 112.408 89.6762 112.136 90.3278 112.524C90.9255 112.876 91.1435 113.429 91.1358 114.147C91.1153 116.89 89.1709 118.235 86.911 116.854C85.7951 116.17 86.0952 117.456 85.5899 117.479C85.6463 115.718 85.241 115.083 83.6403 114.504C82.7656 114.188 81.8319 113.99 81.1726 113.252C80.2851 112.257 80.5236 111.195 81.7831 110.755C82.6938 110.423 83.648 110.213 84.5869 109.953Z" fill="#832368"/>
<path d="M84.0097 49.0189C82.8836 48.6563 81.7909 48.9957 80.8238 49.4457C76.9375 51.2456 75.3779 49.3943 73.6566 46.1031C72.9897 44.8303 72.5228 43.4547 71.6481 42.2873C71.348 41.8888 71.0273 41.5982 70.522 41.5545C71.2915 40.4643 72.3356 40.0632 73.6207 40.3074C74.9803 40.5646 75.7857 41.4594 76.1115 42.7527C76.3167 43.573 76.368 44.4343 76.5014 45.2726C76.5675 45.8204 76.6773 46.3621 76.8298 46.8925C77.4454 48.7669 78.5715 49.3377 80.4698 48.79C81.678 48.4481 82.899 47.831 84.0097 49.0189Z" fill="#832368"/>
<path d="M85.0588 50.0375C84.4457 50.1815 84.4662 49.7572 84.4585 49.3586C84.5993 49.4249 84.7252 49.5193 84.8284 49.636C84.9316 49.7528 85.01 49.8893 85.0588 50.0375Z" fill="#832368"/>
<path d="M69.2726 42.856C69.2161 43.1337 69.016 43.1774 68.7595 43.1851C68.809 43.0902 68.8824 43.0099 68.9724 42.9521C69.0624 42.8944 69.1658 42.8613 69.2726 42.856V42.856Z" fill="#832368"/>
<path d="M69.8422 42.213C69.8037 42.4187 69.737 42.6013 69.4907 42.6347C69.6062 42.4933 69.7242 42.3519 69.8422 42.213Z" fill="#832368"/>
<path d="M70.2834 41.8247C70.2603 42.0818 70.0781 42.1435 69.8704 42.1821L70.2834 41.8247Z" fill="#832368"/>
<path d="M84.456 49.3584C84.2303 49.343 84.025 49.2993 83.9917 49.019C84.0935 49.0247 84.1915 49.0597 84.2739 49.12C84.3563 49.1802 84.4195 49.263 84.456 49.3584V49.3584Z" fill="#832368"/>
<path d="M70.5397 41.5754C70.5379 41.649 70.5082 41.7191 70.4568 41.7716C70.4054 41.8241 70.336 41.8551 70.2627 41.8583L70.5397 41.5754Z" fill="#832368"/>
<path d="M85.5515 50.6056L85.2693 50.3176L85.5515 50.6056Z" fill="#832368"/>
<path d="M69.5214 42.6038C69.4265 42.6989 69.3342 42.7966 69.2393 42.8943C69.3316 42.7966 69.4393 42.7092 69.5214 42.6038Z" fill="#832368"/>
<path d="M85.8413 50.8806L85.5027 50.5901L85.8413 50.8806Z" fill="#832368"/>
<path d="M85.2974 50.3407C85.2232 50.3368 85.1532 50.305 85.1013 50.2516C85.0495 50.1983 85.0197 50.1272 85.0178 50.0527C85.1127 50.1479 85.2051 50.243 85.2974 50.3407Z" fill="#832368"/>
<path d="M135.483 100.781L135.39 101.11L135.29 101.049L135.48 100.779L135.483 100.781Z" fill="#832368"/>
<path d="M59.317 140.327H37.7695C37.8541 139.607 37.5617 139.085 37.1179 138.504C36.1842 137.28 34.6835 137.036 33.5549 136.19C34.3757 135.766 35.2145 135.367 36.02 134.904C37.6412 133.989 39.07 132.899 39.3547 130.873C42.1457 131.001 44.8879 130.736 47.5428 129.819C48.0302 129.649 48.9562 129.693 48.8254 129.104C48.7202 128.613 47.7993 128.515 47.1632 128.613C47.0761 128.633 46.9904 128.659 46.9067 128.69C45.8806 128.996 44.8545 128.703 43.8849 128.456C42.8434 128.199 42.4484 127.294 42.7434 126.234C43.0845 125.003 44.3363 124.025 45.6651 123.92C47.2453 123.791 48.6792 124.29 50.126 124.835C51.6651 125.417 53.2273 126.018 54.9613 125.512C56.5877 125.041 57.6291 123.74 57.4111 122.269C57.2161 120.958 56.2414 120.315 54.4329 120.315C52.7758 120.315 51.0751 120.547 49.6206 119.454C46.4475 117.07 43.1615 117.566 39.8319 119.037C38.4082 119.181 37.0256 119.647 35.5685 119.551C35.2902 119.549 35.0194 119.461 34.7924 119.3C34.5653 119.139 34.3931 118.911 34.2988 118.649C34.1346 118.166 34.5835 117.798 34.9631 117.546C35.1837 117.397 35.4018 117.304 35.4274 117.008C37.3898 116.903 38.3338 115.947 38.5057 113.892C38.7449 113.419 39.0988 113.014 39.5349 112.714C39.971 112.414 40.4753 112.228 41.0016 112.175C41.7205 112.109 42.4423 112.083 43.164 112.095C44.2953 112.079 44.9853 111.581 45.2162 110.423C45.3958 109.477 45.0674 108.58 45.0648 107.665C45.0648 106.219 44.2363 104.623 45.6959 103.391C46.6142 103.905 47.4146 104.641 48.5304 104.738C49.4565 104.821 50.326 104.738 50.9443 103.944C51.5625 103.149 51.4573 102.285 51.0597 101.424C50.9725 101.234 50.893 101.038 50.8032 100.846L50.5261 100.537V100.565C50.5082 99.7425 51.0597 99.7322 51.6548 99.7502C53.6582 99.8067 55.6565 99.7502 57.6137 99.2539C58.0923 99.146 58.542 98.9357 58.9321 98.6375C59.3221 98.3393 59.6433 97.9602 59.8737 97.526C60.7843 95.8496 60.0892 94.6565 58.1884 94.6102C55.3461 94.5382 52.4885 94.9522 49.6668 94.5022C46.0576 93.9288 42.4843 93.1292 39.1777 91.499C37.4796 90.6582 35.448 90.3548 34.191 88.7066C34.1284 88.6172 34.0431 88.5461 33.9438 88.5009C33.8446 88.4557 33.7351 88.4379 33.6267 88.4495C33.6446 87.9558 33.2214 87.7244 32.9931 87.3773C32.6805 86.8892 32.5298 86.3146 32.5625 85.7355C32.5952 85.1564 32.8097 84.6025 33.1752 84.1529C35.1033 81.8987 37.8373 80.4934 40.7887 80.2394C41.7327 80.1443 42.1739 79.7252 42.3278 78.8612C42.4894 77.879 40.7015 75.1946 39.7087 75.1046C38.2953 74.9735 37.7387 74.0761 37.4693 72.8831C37.2202 71.8096 36.8645 70.7639 36.4073 69.7615C35.6378 68.0131 35.3146 66.1618 36.0687 64.3002C36.6613 62.8346 37.5565 62.5749 38.852 63.5005C39.1264 63.6985 39.3291 63.9942 39.601 64.1973C40.7194 65.0381 41.1401 66.4189 42.1046 67.3806C42.9665 70.7541 44.2055 73.9038 46.7912 76.4083C47.8968 77.4805 49.0563 77.825 50.4954 77.5422C51.3419 77.3751 52.0704 76.9405 52.8297 76.5677C54.9177 75.5392 56.9032 75.462 58.7296 77.1874C59.8762 78.2673 61.087 79.2829 62.3003 80.2883C64.4782 82.0882 65.8352 82.1525 68.2003 80.674C69.7112 79.7329 71.1554 78.5707 73.1254 78.9307C74.349 78.8767 75.2289 79.5272 75.9471 80.3911C78.0993 82.9624 80.821 84.1118 84.1558 83.8186C84.4123 83.7775 84.6508 83.7544 84.892 83.6926C85.6487 83.4972 86.7569 83.361 86.7415 82.5484C86.7415 81.921 85.7693 81.3862 84.9304 81.2628C84.8637 80.7151 84.3302 80.6097 84.0147 80.3012C83.181 79.4783 82.2344 78.7121 82.691 77.3185C83.1015 77.4291 83.2348 77.8327 83.5119 78.0899C84.9869 79.4501 87.1339 79.9489 87.7547 77.1899C87.8694 76.6174 88.1439 76.0892 88.5462 75.6668C88.9486 75.2444 89.4622 74.9452 90.0275 74.8038C91.1498 75.6479 92.1102 76.6889 92.862 77.8764C93.5495 79.1209 93.9009 80.5814 95.1425 81.4762C95.2092 82.371 95.6709 83.0601 96.2198 83.7389C97.841 85.7394 100.009 85.8705 102.266 85.4977C103.695 85.2585 105.124 85.2714 106.37 85.8885C107.499 86.449 108.463 87.4158 108.251 88.9534C108.038 90.4911 107.499 91.8795 106.029 92.6252C104.452 93.4249 102.805 93.8517 101.004 93.3529C99.452 92.9209 97.859 92.6304 96.3019 92.2087C94.3755 91.6944 93.3391 92.2241 92.7235 94.1243C92.5469 94.718 92.2509 95.2693 91.8539 95.7442C91.4569 96.2191 90.9671 96.6076 90.4148 96.8858C87.1108 98.5828 83.7453 98.2203 80.3721 97.2021C79.937 97.0334 79.4763 96.9404 79.01 96.9269C78.9895 96.3998 78.52 96.4333 78.202 96.279C76.6757 95.5333 75.0339 95.6259 73.405 95.6362C73.3717 94.1397 72.597 93.0649 71.4555 92.1984C70.5156 91.5241 69.4561 91.0354 68.3337 90.7585C66.0535 90.1297 64.0232 88.8094 62.521 86.9787C61.636 85.9348 60.7099 84.9217 59.5428 84.176C58.8245 83.7209 57.8677 83.073 57.2213 83.6129C56.5748 84.1529 57.0802 85.2251 57.4162 85.9965C58.1294 87.619 59.335 88.9175 60.3508 90.3445C61.6873 92.219 63.2956 93.9108 64.1986 96.0707C65.5274 99.2154 64.5603 101.108 61.2589 101.828C60.2995 102.039 59.3299 102.208 58.4808 102.753C56.8724 103.782 56.6518 105.068 57.8087 106.597C57.1777 107.456 56.5261 108.31 55.913 109.169C55.0101 110.411 55.3436 112.241 56.5825 112.876C56.0156 116.427 57.7907 118.664 61.2563 118.664C62.2183 118.664 63.1776 118.407 64.1396 118.256C64.9091 119.747 64.6526 121.202 64.1088 122.709C63.6548 123.995 63.2212 125.28 63.3546 126.702C63.4778 128.029 63.9472 128.582 65.276 128.528C66.7031 128.453 68.1261 128.739 69.4136 129.361C69.8013 129.543 70.2336 129.609 70.6577 129.549C71.1092 130.392 71.6274 131.166 72.6381 131.413C73.2178 133.092 73.9207 134.709 73.7154 136.594C73.5282 138.35 72.9869 139.273 71.2554 139.877C71.1531 139.903 71.0601 139.957 70.9874 140.033C70.9147 140.11 70.8653 140.206 70.845 140.309L65.2016 140.394L64.432 140.32C64.3499 139.87 64.0062 139.831 63.6625 139.862C62.839 139.936 62.0464 139.702 61.2845 139.499C60.3354 139.237 59.7377 139.486 59.317 140.327Z" fill="#63A73C"/>
<path d="M100.332 41.4236C98.5901 42.0715 96.915 42.8918 94.9886 42.9663C92.9364 43.0486 91.6538 42.0561 90.992 40.2588C90.6842 39.4334 90.2224 39.0066 89.4118 38.8163C89.074 38.7553 88.7572 38.6093 88.4909 38.3921C87.4238 37.3636 86.2182 37.6387 85.0792 38.0835C83.6787 38.6338 82.2447 38.6389 80.8031 38.5643C79.8591 38.5129 79.4589 38.7983 79.5667 39.778C79.597 40.3322 79.5927 40.8879 79.5538 41.4416C79.2665 41.3439 79.2306 41.0636 79.1383 40.8373C78.4354 39.1274 79.0126 37.5538 79.7154 36.0265C80.621 34.0441 80.6928 32.2313 79.2717 30.3852C78.1302 28.899 78.2789 27.2611 79.4256 25.7569C80.7543 24.0213 82.5859 23.3836 84.7073 23.4247C84.7458 23.8027 85.0202 23.8516 85.3281 23.939C87.4136 24.515 89.4914 25.1166 91.5717 25.708C93.124 26.1369 94.6432 26.6783 96.1173 27.3279C96.6996 27.585 96.8022 27.8756 96.2866 28.3564C94.9373 29.5958 95.004 29.9378 96.7098 30.704C97.292 30.9685 97.9205 31.1153 98.5593 31.136C100.758 31.2157 102.712 30.3646 104.716 29.6189C105.116 29.4698 105.154 29.1818 105.267 28.8475C105.78 27.3588 106.735 26.4948 108.422 26.7417C108.721 26.761 109.02 26.761 109.318 26.7417C109.956 26.7417 110.118 26.5103 109.938 25.8649C109.656 24.8569 108.912 24.2193 108.261 23.4967C107.132 22.242 106.947 20.9075 107.771 19.8558C108.771 20.2312 109.774 20.6015 110.867 20.5809C112.214 21.4346 113.789 21.7174 115.277 22.0774C120.072 23.2338 125.066 23.2839 129.883 22.224C131.35 21.9103 132.825 20.9152 134.244 22.3397C134.298 23.2628 134.718 24.0804 134.98 24.9444C134.967 25.1192 134.952 25.2966 134.936 25.4586C134.138 26.3483 133.528 30.452 134.064 31.3725C134.218 31.6296 134.5 31.5885 134.749 31.6065C134.913 31.7813 135.08 31.9536 135.244 32.1208C135.626 33.3858 136.545 32.833 137.33 32.7481C137.814 32.6941 138.161 32.0925 138.733 32.3959C138.747 32.407 138.758 32.421 138.766 32.4371C138.773 32.4531 138.777 32.4707 138.777 32.4884C138.777 32.5062 138.773 32.5238 138.766 32.5398C138.758 32.5559 138.747 32.5699 138.733 32.581C138.189 32.8587 138.315 33.373 138.312 33.8255C138.312 35.7514 138.312 37.6824 138.312 39.6057C138.312 41.3876 137.029 42.1307 135.357 41.3876C133.177 40.4131 132.189 38.4383 131.088 36.5228C130.109 34.8129 128.877 33.3241 126.728 33.1801C124.932 33.0516 123.788 34.2086 122.913 35.5662C121.094 38.3638 119.04 40.8013 115.764 42.0124C113.345 42.9098 109.833 42.2541 108.974 39.418C108.325 37.2864 109.289 35.2757 111.449 34.8283C112.922 34.5249 114.428 34.7769 115.918 34.7049C117.326 34.638 118.055 33.9181 117.755 32.7687C117.408 31.4342 116.757 30.3389 115.21 30.0637C113.432 29.7501 111.937 30.1409 110.798 31.6065C109.946 32.6993 108.805 33.1493 107.463 33.1673C106.481 33.1673 105.498 33.1673 104.516 33.1673C101.24 33.2213 99.8727 35.2243 101.055 38.2172C101.517 39.4463 101.489 40.5571 100.332 41.4236Z" fill="#63A73C"/>
<path d="M47.7868 -2.33674C46.5888 -2.45502 45.3319 -2.69928 44.7521 -1.19767C43.9826 0.813059 44.375 3.23776 45.6294 4.15827C45.9725 4.41175 46.3434 4.62485 46.735 4.79337C48.1921 5.40276 48.8693 6.55983 49.0693 8.05888C49.195 8.98967 49.254 9.93075 49.4208 10.8538C49.5464 11.7044 49.9012 12.5045 50.4469 13.168C51.5935 14.4896 52.9838 14.3765 53.8893 12.8646C54.0638 12.574 54.192 12.2552 54.3434 11.9492C54.6666 12.7206 55.3541 12.5997 55.9851 12.6074C55.4721 15.549 56.4648 16.85 59.4789 17.2357C60.4495 17.3541 61.4129 17.5258 62.3647 17.75C64.5066 18.2642 65.4917 20.0821 64.5733 22.0388C63.4006 24.6231 61.4765 26.7919 59.0531 28.2613C57.3164 29.3078 54.6922 28.8861 53.0454 27.6905C51.2498 26.3791 49.8338 24.6487 48.0843 23.2782C46.1681 21.7791 44.0185 20.8329 41.6713 20.6478C39.2729 20.4601 36.8744 20.1335 34.4144 20.4858C32.3392 20.7534 30.2302 20.5279 28.258 19.8275C26.3674 19.177 25.6133 18.1588 25.7287 16.4849C25.8236 15.1144 27.078 13.9779 28.7454 13.6205C29.8125 13.3891 30.8334 13.5228 31.9005 13.5871C35.8817 13.8288 39.8167 13.4405 43.6158 12.142C44.6757 11.8028 45.6171 11.1678 46.3297 10.3113C46.7246 9.8568 46.978 9.29633 47.0587 8.69911C47.1393 8.10189 47.0438 7.49406 46.7838 6.95066C46.2707 5.81416 45.1318 5.54932 43.5619 5.81674C42.7923 5.9453 42.0972 6.24099 41.3635 6.44669C41.107 6.13557 40.7504 6.21014 40.417 6.18957C39.6038 6.14071 38.7419 6.41841 39.1549 4.86794C39.5192 3.50517 37.7953 2.25297 36.3614 2.57694C35.0993 2.86493 34.0168 3.55917 32.8804 4.14027C31.2875 4.95536 29.2892 4.72652 28.7171 3.59002C28.0784 2.32496 28.1682 0.563647 29.9356 -0.613991C31.3285 -1.54222 32.883 -1.6425 34.3862 -1.99476C36.0048 -2.37788 37.3516 -2.98984 37.9313 -4.6843C38.0621 -5.06742 38.2083 -5.37854 38.7009 -5.37854C44.9599 -5.37854 51.219 -5.37854 57.496 -5.25512C55.3207 -4.05434 53.0556 -3.19811 50.57 -3.06955C49.5824 -3.02841 48.6153 -2.9487 47.7868 -2.33674Z" fill="#63A73C"/>
<path d="M20.6034 33.6661C20.7779 35.0829 21.8706 35.9031 22.7941 36.7362C24.5153 38.279 26.4572 39.0195 28.889 38.2121C30.6055 37.6766 32.424 37.555 34.1963 37.8573C35.2891 38.027 35.9612 39.1121 36.8077 39.8012C37.7594 40.5725 38.4161 41.7013 39.6115 42.1924C38.8419 42.6553 38.0723 43.0898 37.3361 43.5861C34.4247 45.5454 31.4978 46.0545 28.281 44.1492C26.5931 43.1515 24.8232 43.5346 23.3276 44.8691C22.8847 45.2651 22.4427 45.6628 22.0014 46.0622C21.8067 46.0571 21.6197 45.9852 21.4716 45.8583C21.3236 45.7314 21.2235 45.5574 21.1883 45.3654C20.4187 42.3596 18.0357 41.2513 15.4371 40.3617C16.299 38.2198 16.0836 37.3636 14.1802 36.2142C13.0849 35.5534 12.7616 34.5686 12.7026 33.4321C12.6761 32.5407 12.482 31.6622 12.1306 30.8429C11.9741 30.1641 12.718 30.0355 12.9002 29.5573C15.5705 30.7272 18.2255 31.9434 20.6034 33.6661Z" fill="#63A73C"/>
<path d="M85.8412 50.8807C86.2831 51.2059 86.7478 51.4989 87.2315 51.7575C88.2089 52.1972 88.9836 51.8758 89.4299 50.9193C89.7582 50.2173 89.6556 49.6696 88.7142 49.6002C87.5365 49.4877 86.4079 49.0714 85.4385 48.3917C85.6539 48.0163 85.9387 48.2066 86.208 48.294C87.4637 48.701 88.7773 48.899 90.0969 48.8802C90.1148 49.4228 90.497 49.757 90.8844 49.9807C92.0259 50.6364 92.4979 51.6701 92.7595 52.8863C93.0314 54.1719 92.4568 55.7507 91.4769 56.2289C89.9994 56.9463 89.0631 56.6609 87.9883 55.2416C87.5668 54.7051 87.1018 54.2046 86.5979 53.7451C85.6463 52.8554 84.3739 53.0483 83.6634 54.1462C82.7065 55.6298 83.2658 56.9052 84.1764 58.1394C84.804 59.4508 85.922 60.4615 87.288 60.9523L89.553 61.9808C90.0276 62.5902 90.7843 62.5156 91.4128 62.7239C92.9288 63.2176 94.1011 64.1381 94.6013 65.632C94.9245 66.5937 94.845 67.689 93.8677 68.4167C92.8903 69.1444 90.9972 69.1238 89.8814 68.3421C88.7655 67.5605 87.6522 66.7814 86.5466 65.9817C85.4444 65.1584 84.0928 64.7407 82.7194 64.7989C81.0597 64.8504 79.3974 64.7732 77.7506 65.0689C77.294 64.6009 76.6886 64.9069 76.1653 64.7629C74.4159 64.277 73.4616 62.9631 73.3846 61.0732C73.2769 58.4402 73.7335 55.7841 72.9306 53.1743C72.3227 51.1944 71.1478 49.8445 69.206 49.1425C67.1307 48.366 65.0786 47.5509 64.0525 45.2805C63.6498 44.4011 63.7113 43.5397 63.6831 42.6501C64.563 41.9481 65.253 41.5599 66.0764 42.9072C66.651 43.8483 67.8259 43.5037 68.7801 43.1643C69.0136 43.1643 69.2239 43.1129 69.2932 42.8352L69.2598 42.8738C69.3547 42.7761 69.4471 42.6784 69.542 42.5832L69.5112 42.6141C69.7677 42.5807 69.8242 42.3981 69.8626 42.1924L69.8909 42.1615C70.0986 42.123 70.2808 42.0561 70.3039 41.8041L70.2833 41.8376C70.3567 41.8343 70.426 41.8033 70.4774 41.7508C70.5289 41.6984 70.5585 41.6283 70.5604 41.5547L70.5424 41.5419C71.0555 41.5856 71.3684 41.8761 71.6685 42.2747C72.5433 43.442 73.0101 44.8177 73.6771 46.0904C75.3983 49.3739 76.958 51.233 80.8442 49.4331C81.8113 48.9831 82.8964 48.6437 84.0302 49.0062H84.0122C84.0456 49.2865 84.2508 49.3302 84.4765 49.3456C84.4765 49.7442 84.4637 50.1685 85.0768 50.0245L85.0357 50.0399C85.0376 50.1144 85.0674 50.1854 85.1192 50.2388C85.1711 50.2922 85.2411 50.324 85.3153 50.3279L85.2871 50.3047L85.5693 50.5927L85.5206 50.5773L85.8412 50.8807Z" fill="#63A73C"/>
<path d="M125.699 57.9029C124.95 57.8695 124.581 57.2241 124.05 56.8487C122.531 55.7816 120.928 55.6736 120.081 56.6404C119.171 57.6689 119.44 59.5511 120.705 60.8136C121.623 61.7289 122.818 62.2535 123.873 62.9786C124.927 63.7037 125.845 64.6087 126.104 65.9767C126.181 66.3778 126.179 66.6838 125.645 66.5938C124.729 66.4421 124.137 67.0617 123.465 67.4937C123.016 66.0487 121.751 65.2978 120.718 64.3928C120.189 63.9274 119.74 63.1303 118.814 63.2563C118.63 62.7369 118.317 62.2725 117.906 61.9062C117.495 61.5399 116.998 61.2835 116.462 61.1607C116.582 60.289 115.89 59.7645 115.536 59.1165C114.692 57.5738 114.702 55.9333 115.202 54.3983C116.044 51.8039 118.83 51.0171 121.428 52.5058C123.544 53.7169 124.735 55.7353 125.699 57.9029Z" fill="#63A73C"/>
<path d="M26.1775 98.4851C26.0108 99.4904 25.785 100.493 25.6901 101.506C25.5413 103.049 26.0518 103.514 27.6038 103.327C29.0411 103.122 30.4045 102.56 31.5695 101.691C31.313 103.054 32.0826 104.067 32.6597 105.181C33.3908 106.561 33.478 108.102 33.4293 109.665C33.3985 110.912 33.142 111.997 31.9338 112.514C31.0206 112.9 29.3019 111.835 28.7222 110.647C28.3511 109.886 27.9979 109.115 27.6628 108.333C26.9265 106.615 25.7235 105.505 23.8611 105.08C22.3426 104.738 20.8522 104.278 19.349 103.872C17.9458 102.09 17.6944 99.9738 17.4507 97.8088C17.1455 95.091 15.9116 93.7848 13.8313 93.6279C13.4644 93.0057 13.0617 92.3963 12.7411 91.7586C12.534 91.3737 12.4061 90.951 12.3648 90.5157C12.3236 90.0803 12.3698 89.6411 12.5009 89.2239C12.6319 88.8068 12.8451 88.4203 13.1278 88.0872C13.4105 87.7541 13.757 87.4812 14.1468 87.2846C14.8676 86.9195 15.7346 86.6958 15.6859 85.6545C15.6372 84.6131 14.9882 83.9677 14.1032 83.5049C13.1387 83.0035 11.9972 82.7489 11.3969 81.705C11.2897 81.4778 11.2038 81.2411 11.1404 80.9979C12.1665 81.0519 13.1694 80.8179 14.1647 80.5994C14.8701 80.4356 15.6041 80.4418 16.3067 80.6174C17.9612 81.0313 18.5538 81.9313 18.2203 83.6052C17.9356 85.0296 17.1506 86.2844 16.9146 87.7346C16.6581 89.2439 17.4071 90.4704 18.8924 90.7404C19.5593 90.8613 20.234 90.9487 20.9086 90.9975C23.3019 91.2058 24.5922 92.5403 24.6846 94.9779C24.7307 95.6173 24.7307 96.2592 24.6846 96.8986C24.5486 98.0685 24.9873 98.6213 26.1775 98.4851Z" fill="#63A73C"/>
<path d="M-0.408179 67.7609C-0.41844 66.0056 -0.430411 64.2477 -0.444092 62.4872C2.18779 62.5978 4.8325 62.1915 7.44386 62.9629C11.0351 64.0223 13.5285 67.7686 11.6431 71.6846C11.4363 72.0614 11.3327 72.4864 11.3429 72.9163C9.95518 72.7106 8.91884 71.9032 8.08516 70.8593C7.09243 69.6199 5.84575 69.0028 4.28868 68.8023C2.73161 68.6017 1.07963 68.4654 -0.408179 67.7609Z" fill="#63A73C"/>
<path d="M118.476 104.954C117.632 104.034 116.57 103.46 115.436 102.997C116.205 101.455 117.488 100.29 118.514 98.9195C119.149 98.0604 119.666 97.1205 120.053 96.1245C120.846 94.1112 120.31 92.5633 117.901 90.7814C115.433 88.9455 114.938 86.4565 115.354 83.7336C115.805 80.7946 117.706 78.9099 120.484 77.9277C121.69 77.5008 122.672 76.8452 123.185 75.6135C123.683 75.5415 123.819 75.125 123.988 74.7522C124.329 74.0065 124.653 73.2531 124.984 72.5049C126.343 73.2763 127.841 73.5668 129.365 73.7905C130.417 73.9371 131.484 74.0811 132.382 74.729C133.492 75.5313 133.554 76.6395 132.512 77.4983C131.861 78.0357 131.14 78.4908 130.46 78.9819L127.297 80.2212C125.502 80.2418 124.032 80.9772 122.749 82.2037C122.143 82.7663 121.763 83.5311 121.679 84.3547C121.596 85.1784 121.815 86.0043 122.295 86.6777C123.056 87.7123 123.928 88.6607 124.894 89.5061C126.646 91.0745 127.826 92.7999 127.033 95.3017C126.989 95.5975 126.989 95.8981 127.033 96.1939C126.097 99.0686 123.875 100.871 121.59 102.56C120.533 103.337 119.548 104.201 118.476 104.954Z" fill="#63A73C"/>
<path d="M62.888 -5.87244L88.9631 -5.85958C89.1734 -5.85958 89.3863 -5.81844 89.5967 -5.79787V-5.38904C89.2324 -2.9052 90.8228 -1.50129 92.9879 -2.03097C93.114 -2.04519 93.2414 -2.04519 93.3675 -2.03097C93.7745 -2.06262 94.1816 -1.97 94.535 -1.76531C94.8885 -1.56061 95.1719 -1.25343 95.3478 -0.884188C95.7352 -0.0639548 95.0759 0.460583 94.5013 0.897697C93.506 1.65365 92.9904 2.59473 93.1623 3.86493C92.1362 4.26091 91.0845 4.61831 90.0841 5.06314C88.25 5.89026 86.6474 7.15751 85.418 8.7529C84.1559 10.3471 84.551 11.5273 86.4749 12.111C87.8883 12.5378 89.3453 12.4221 90.7741 12.2293C92.757 11.9721 94.7348 11.7279 96.7356 11.8333C98.7365 11.9387 99.5573 13.0958 99.0443 14.9574C97.6847 14.6797 96.5176 15.0705 95.4992 15.9859C93.878 15.3765 91.6848 16.4667 90.8408 18.3C89.1042 17.1815 87.9986 18.1534 86.7057 19.3028C84.9332 20.879 83.5711 20.717 81.8755 19.1871C81.4753 17.5158 80.3543 16.6621 78.7152 16.711C77.6224 16.7418 76.9811 17.4823 76.2577 18.1303C74.7904 19.4365 73.6361 21.2158 71.3839 21.3392C68.9931 21.3212 68.8366 21.4112 68.1979 23.1751C66.9281 24.5687 66.864 26.3198 68.0183 28.0271C68.0389 28.3228 68.0773 28.6262 67.8311 28.8653C67.7541 28.5645 67.7054 28.3948 67.4027 28.7599C66.5103 29.8548 65.3057 30.6505 63.9499 31.0406C62.4467 31.4931 60.9974 32.1514 59.8456 33.2905C58.9632 34.1518 58.0987 35.0363 57.165 35.8437C55.5566 37.2348 53.7071 38.037 51.5216 37.7747C49.829 37.6028 48.1618 37.2361 46.5528 36.682C43.2617 35.4863 39.8474 35.6226 36.4434 35.8334C32.8701 36.0546 29.2943 36.3837 25.7851 35.44C24.0254 34.9669 22.3246 34.265 20.5983 33.6684C18.2203 31.9457 15.5756 30.7295 12.9027 29.5544C12.4307 29.1919 11.9587 28.8319 11.4893 28.4616C9.95017 27.2506 9.34478 25.0393 10.1015 23.4091C10.83 21.8483 12.4461 21.2672 14.6214 21.7763C15.6988 22.0335 16.7761 22.2906 17.8586 22.5117C19.3978 22.8434 21.3781 21.5938 21.5859 20.1667C21.7782 18.8297 20.5187 17.8037 18.6077 17.7446C18.3097 17.7215 18.0104 17.7215 17.7124 17.7446C16.8223 17.8526 16.0245 17.5492 15.2473 17.1944C14.2212 16.7238 14.1468 15.8882 15.0754 15.2479C16.1015 14.5408 17.2148 14.5022 18.3819 14.8057C19.2054 15.0191 20.0262 15.3045 20.8958 15.1502C21.6654 15.0114 21.7603 14.3531 21.7423 13.7746C21.7423 13.3066 21.4089 13.1112 20.8317 13.2218C19.2233 13.5277 18.01 12.7538 17.8612 11.4219C17.7124 10.09 18.9745 9.02546 20.5829 8.99975C22.122 8.97403 22.9223 10.126 23.7868 11.0799C25.1181 12.5532 26.6829 12.9698 28.5247 12.399C33.0676 10.9873 37.2053 8.68862 41.3635 6.43877C42.0971 6.23307 42.7948 5.93737 43.5618 5.80881C45.1317 5.55168 46.2784 5.80881 46.7837 6.94274C47.0454 7.48707 47.1418 8.09644 47.0611 8.69523C46.9804 9.29402 46.7261 9.85588 46.3297 10.3111C45.6146 11.1701 44.6694 11.8062 43.6054 12.1444C39.8064 13.4429 35.8714 13.8311 31.8902 13.5894C30.8231 13.5252 29.8022 13.3915 28.735 13.6229C27.0677 13.9803 25.8133 15.1168 25.7184 16.4873C25.6029 18.1689 26.3571 19.1871 28.2477 19.8299C30.2199 20.5303 32.3289 20.7558 34.4041 20.4881C36.8641 20.141 39.2626 20.4624 41.661 20.6501C44.0107 20.8353 46.1604 21.7815 48.074 23.2805C49.8235 24.651 51.2292 26.3815 53.0351 27.6928C54.6819 28.8885 57.3061 29.3101 59.0427 28.2636C61.4662 26.7943 63.3903 24.6254 64.563 22.0412C65.4814 20.0845 64.4963 18.2794 62.3544 17.7523C61.4026 17.5281 60.4392 17.3565 59.4686 17.2381C56.4545 16.8472 55.4617 15.5462 55.9748 12.6098C57.0008 12.2498 58.0423 11.8821 59.0787 11.5299C61.9696 10.5682 62.5134 10.7251 64.268 13.1138C66.1688 15.7107 67.9516 16.225 70.7785 14.6822C74.7289 12.5249 78.12 9.60913 81.1085 6.26135C82.4706 4.73659 82.6784 2.77215 82.3321 0.812846C82.0422 -0.830191 80.4082 -2.01554 78.7408 -2.06954C77.1735 -2.12611 75.8011 -1.49101 74.4749 -0.861046C71.5634 0.519722 69.0059 0.332019 66.6229 -1.98212C65.8687 -2.7175 64.8529 -3.23689 63.7165 -2.55037C63.6228 -3.69558 63.3429 -4.81774 62.888 -5.87244V-5.87244Z" fill="#D98C41"/>
<path d="M82.7425 77.3054C82.2859 78.699 83.2324 79.4652 84.0661 80.2881C84.3816 80.5966 84.9152 80.702 84.9819 81.2497C84.5192 82.0307 84.2549 82.9136 84.2123 83.821C80.8776 84.1141 78.1636 82.9519 76.0037 80.3935C75.2752 79.5295 74.3954 78.879 73.182 78.933C73.182 78.5062 73.182 78.0768 73.182 77.6474C73.1615 76.2409 72.5715 75.7035 71.1889 75.8475C70.6528 75.8959 70.1317 76.05 69.6553 76.3011C69.179 76.5522 68.7569 76.8953 68.4133 77.3105C67.7643 78.1076 66.9358 78.5962 66.1047 79.0976C65.0145 79.7609 63.7524 79.5964 63.2214 78.7941C62.6211 77.8891 62.9161 76.696 63.9089 75.8449C64.8593 75.0527 65.9471 74.4425 67.1179 74.045C68.307 73.6533 69.3053 72.8271 69.914 71.7309C70.0252 71.5463 70.0907 71.3377 70.105 71.1225C70.1193 70.9073 70.0819 70.6918 69.9961 70.4941C69.7908 70.0544 69.3907 70.4067 69.0828 70.4221C65.8174 70.5918 63.0624 69.4939 61.2513 66.7478C59.4403 64.0017 59.1992 60.893 60.6536 57.8358C61.1487 56.7867 61.9362 55.8996 63.2419 55.7942C64.5476 55.6888 65.2222 56.6299 65.8071 57.5941C66.0683 58.0825 66.2847 58.5937 66.4535 59.1214C67.3539 61.4844 68.2979 63.814 70.2244 65.5779C72.6818 67.8354 76.1576 67.5912 77.7686 65.0405C79.4154 64.7448 81.0777 64.8219 82.7373 64.7705C84.1108 64.7122 85.4623 65.1299 86.5646 65.9533C87.6651 66.7529 88.7809 67.532 89.8994 68.3137C91.0178 69.0953 92.9032 69.1236 93.8856 68.3882C94.8681 67.6529 94.9425 66.5652 94.6193 65.6036C94.1063 64.1097 92.9468 63.1892 91.4308 62.6955C90.8023 62.4872 90.0456 62.5618 89.571 61.9524C91.2333 61.973 92.6492 61.4381 93.8036 60.1962C95.7121 58.1135 96.3559 55.6322 96.261 52.8707C96.1969 50.9551 95.5735 50.1169 93.7394 49.4998C92.5492 49.0986 91.2922 49.1835 90.0969 48.8724C88.7802 48.892 87.4692 48.6957 86.2157 48.2913C85.9387 48.2038 85.654 48.0136 85.4462 48.389C83.1784 46.6572 81.2678 44.5002 79.8207 42.038C79.8207 41.7808 79.8207 41.5237 79.5642 41.4003V41.4337C79.6031 40.88 79.6074 40.3244 79.577 39.7701C79.4693 38.7905 79.8695 38.505 80.8135 38.5565C82.2551 38.631 83.689 38.6259 85.0896 38.0756C86.2286 37.6308 87.4342 37.3531 88.5013 38.3842C88.7675 38.6014 89.0844 38.7474 89.4222 38.8085C90.2303 38.9987 90.7048 39.4256 91.0024 40.2509C91.6745 42.0508 92.9468 43.0407 94.9989 42.9585C96.9254 42.8813 98.5902 42.0611 100.342 41.4157C100.602 41.8087 100.969 42.1185 101.399 42.3079C103.572 43.5036 105.924 42.979 108.166 42.8222C110.01 42.7013 111.78 42.7116 113.366 43.5679C116.988 45.5246 120.833 46.0106 124.855 45.774C126.974 45.648 129.183 45.0283 131.199 45.594C133.946 46.3654 136.314 46.1494 138.574 44.4601C138.602 44.4395 138.658 44.4601 138.699 44.4601C138.746 47.1188 138.791 49.7757 138.835 52.431V55.5165C138.835 56.7164 138.835 57.9164 138.835 59.1163L138.72 62.4178C137.296 62.3972 135.929 61.8804 134.495 61.955C133.533 60.1885 131.868 59.7977 130.057 59.6408C128.626 59.5123 127.138 59.4994 126.007 58.3758C126.007 58.1495 125.958 57.9438 125.717 57.8461V57.8924C124.753 55.7248 123.562 53.7063 121.446 52.4927C118.847 51.0039 116.059 51.7908 115.22 54.3852C114.72 55.9279 114.707 57.5607 115.554 59.1034C115.908 59.7514 116.6 60.2759 116.48 61.1476C114.836 61.7467 113.863 63.0529 113.209 64.5571C112.409 66.4032 111.157 67.3032 109.131 67.0898C107.553 66.9475 105.964 67.1792 104.493 67.766C102.941 68.3523 101.435 69.0645 99.9267 69.7613C97.0793 71.0804 94.1858 72.1217 90.9639 71.5766C90.8433 71.556 90.6894 71.7232 90.5509 71.8029L90.0943 71.5843C90.0507 71.4866 90.0943 71.2604 89.8686 71.4378C89.2529 71.1549 88.6373 70.8669 88.0191 70.5892C85.4539 69.4322 82.9862 70.5893 82.1653 73.2608C81.742 74.6467 82.2038 75.8578 82.7245 77.0817C82.5757 77.1691 82.468 77.2591 82.7245 77.3594L82.7425 77.3054Z" fill="#D98C41"/>
<path d="M72.6383 131.418C75.3805 130.963 76.5861 129.181 76.0269 126.458C75.6832 124.781 74.7443 123.4 73.9388 121.94C73.4643 121.068 73.0282 120.176 73.2488 119.137C73.6156 117.417 75.4497 116.293 77.2787 116.589C79.2719 116.911 80.8033 118.296 82.6656 118.903C82.5732 120.569 83.548 121.598 84.805 122.436C86.4954 123.562 88.4604 123.709 90.3996 123.933C90.7228 123.969 91.1256 123.845 91.2949 124.249C91.4642 124.653 91.1872 124.969 90.9255 125.259C89.0863 127.316 87.1085 129.078 84.0662 128.839C83.6396 128.857 83.2188 128.944 82.8195 129.096C81.3625 129.476 80.5596 130.33 80.6058 131.523C80.6571 132.919 81.6985 133.39 82.8169 133.634C88.7169 134.92 94.3603 132.917 98.2081 128.165C99.4291 126.656 100.871 125.967 102.766 126.296C103.744 126.463 104.608 126.949 105.465 127.432C106.399 127.946 106.814 128.443 105.809 129.435C104.695 130.533 104.703 132.546 105.593 133.572C106.098 134.192 106.814 134.602 107.603 134.722C108.392 134.841 109.197 134.663 109.862 134.22C110.48 133.845 110.775 133.21 111.19 132.678C112.73 130.736 114.684 129.831 117.111 130.405C118.93 130.834 120.512 131.724 121.125 133.709C120.352 134.438 119.36 134.89 118.304 134.994C116.954 134.979 115.523 134.668 114.271 135.012C112.417 135.526 110.68 136.457 108.961 137.406C107.12 138.435 105.37 138.419 104.087 136.406C103.126 134.891 101.758 134.076 99.801 134.174C96.4663 134.341 93.819 135.925 91.3718 137.969C90.6433 138.579 89.7943 139.203 89.8327 140.355L70.8503 140.33C70.8707 140.226 70.9201 140.13 70.9928 140.054C71.0655 139.977 71.1585 139.923 71.2608 139.898C72.9923 139.293 73.5335 138.37 73.7208 136.614C73.9183 134.704 73.218 133.086 72.6383 131.418Z" fill="#D98C41"/>
<path d="M64.1909 118.25C66.4586 117.479 68.5107 118.315 69.8343 120.511C70.9989 122.457 70.9656 124.583 70.8194 126.736C70.7552 127.672 70.7168 128.607 70.668 129.543C70.2439 129.604 69.8116 129.538 69.4239 129.356C68.151 128.742 66.7458 128.456 65.335 128.523C64.0062 128.577 63.5394 128.024 63.4137 126.697C63.2803 125.283 63.7138 123.979 64.1678 122.704C64.6963 121.197 64.9579 119.742 64.1909 118.25Z" fill="#D98C41"/>
<path d="M82.6192 104.934C80.5953 104.713 78.5457 105.106 76.5269 104.656C72.8433 103.831 71.3529 100.892 72.8998 97.4436C73.1692 96.8648 73.3532 96.2498 73.4461 95.618C75.075 95.618 76.7168 95.5151 78.243 96.2608C78.5611 96.4151 79.0305 96.3816 79.0511 96.9087C78.0737 97.3844 77.0323 97.1376 76.019 97.1659C75.0058 97.1942 74.0566 97.477 73.7565 98.4798C73.4256 99.6009 73.9515 100.606 74.9109 101.252C76.0395 102.01 77.3837 102.105 78.6868 102.329C80.3644 102.62 81.8112 103.314 82.6192 104.934Z" fill="#D98C41"/>
<path d="M57.8602 106.587C58.563 107.065 59.3275 107.479 59.9534 108.042C60.5151 108.557 60.9974 109.21 60.7229 110.076C60.4664 110.871 59.7661 110.994 59.0761 111.038C57.8473 111.115 57.2394 111.979 56.6366 112.871C55.3976 112.236 55.0641 110.405 55.9671 109.163C56.5904 108.299 57.2291 107.446 57.8602 106.587Z" fill="#D98C41"/>
<path d="M35.4558 117.019C35.1586 117.022 34.8639 116.964 34.5899 116.849C34.316 116.733 34.0685 116.563 33.8628 116.348C32.8675 115.453 32.9008 114.445 34.0346 113.74C34.8555 113.226 35.7379 113.005 36.7076 113.365C37.3027 113.586 37.9286 113.728 38.5391 113.902C38.3621 115.944 37.4181 116.901 35.4558 117.019Z" fill="#D98C41"/>
<path d="M13.839 93.6203C15.9143 93.7772 17.1532 95.0834 17.4585 97.8012C17.715 99.9662 17.9536 102.082 19.3567 103.864C19.4465 108.444 14.0058 113.201 8.58295 111.128C5.47137 109.938 4.36321 109.071 1.17981 113.486C0.715514 114.129 0.32304 114.851 -0.472168 115.175C-0.472168 107.119 -0.466183 99.0706 -0.454212 91.0311C0.843773 91.8487 1.95963 91.6765 3.13705 90.6608C5.15585 88.9278 7.72874 89.7917 8.43673 92.3579C8.59577 92.9338 8.67786 93.5304 8.78047 94.1217C9.11394 96.009 10.2247 97.0684 11.6971 96.891C13.1233 96.7316 13.9031 95.5359 13.839 93.6203Z" fill="#D98C41"/>
<path d="M138.733 115.959C134.713 117.001 131.671 114.591 131.607 110.413C131.568 107.857 132.474 105.664 133.838 103.594C133.995 103.355 134.277 103.165 134.064 102.692C132.353 104.234 130.437 105.538 129.126 107.42C127.451 109.822 127.69 111.987 129.639 114.321C130.322 115.139 130.968 115.985 131.63 116.821C132.438 117.849 132.656 118.929 132.117 120.163C131.578 121.398 130.496 121.819 129.316 121.827C127.861 121.827 126.43 122.04 124.986 122.112C123.229 122.202 121.944 123.197 121.618 124.658C120.184 124.177 120.576 122.953 120.674 121.989C120.766 121.071 121.443 120.508 122.469 120.57C123.496 120.631 124.465 120.549 125.255 119.683C126.371 118.464 126.325 117.086 126.025 115.63C126.233 115.669 126.446 115.692 126.651 115.751C127.184 115.905 127.787 116.157 128.19 115.628C128.593 115.098 128.267 114.555 128.021 114.059C127.692 113.406 127.235 112.826 126.678 112.352C126.121 111.879 125.475 111.523 124.778 111.305C121.641 110.238 119.24 108.531 118.509 105.078C118.509 105.037 118.488 104.995 118.478 104.954C119.55 104.201 120.53 103.337 121.59 102.555C123.875 100.866 126.097 99.0636 127.033 96.1889C129.172 96.0835 131.289 95.6952 133.446 96.1426C135.926 96.6569 136.614 97.7882 135.649 100.172C135.58 100.371 135.521 100.573 135.472 100.779L135.283 101.049L135.383 101.11L135.475 100.781C137.181 99.565 137.963 96.4974 137.094 94.4996C136.524 93.1959 135.58 92.1443 134.811 90.9744C133.651 89.2156 132.189 87.6549 131.34 85.6904C133.743 85.9038 135.655 87.0095 137.165 88.8814C137.637 89.4702 138.204 89.9844 138.728 90.5295C138.757 93.3477 138.786 96.164 138.815 98.9787V114.921L138.733 115.959Z" fill="#D98C41"/>
<path d="M124.96 72.51C124.629 73.2582 124.306 74.0116 123.965 74.7573C123.796 75.1301 123.66 75.5466 123.162 75.6186C121.405 74.927 119.589 74.9424 117.775 75.2201C116.722 75.3882 115.65 75.4064 114.592 75.2741C112.363 74.9732 111.16 72.9445 111.77 70.7101C112.342 68.5914 113.853 67.2543 115.544 66.0484C116.718 65.2127 117.983 64.4774 118.832 63.256C119.758 63.13 120.207 63.9271 120.736 64.3925C121.762 65.2976 123.044 66.0484 123.483 67.4934C122.539 69.7073 122.857 70.7358 124.96 72.51Z" fill="#D98C41"/>
<path d="M103.459 113.079C104.021 113.607 104.403 114.299 104.549 115.057C105.18 117.522 106.65 117.978 109.187 117.273C110.126 117.016 111.042 116.666 111.973 116.371C112.296 116.261 112.639 116.219 112.979 116.246C113.32 116.273 113.651 116.37 113.953 116.53C111.78 118.001 109.354 118.806 106.806 119.333C104.709 119.803 102.512 119.428 100.688 118.289C100.175 117.978 99.6624 117.664 99.5854 116.977C101.84 116.643 102.756 114.962 103.459 113.079Z" fill="#D98C41"/>
<path d="M84.1943 58.1367C85.7334 58.5096 86.5543 59.6949 87.3059 60.9497C85.9399 60.4589 84.822 59.4482 84.1943 58.1367V58.1367Z" fill="#D98C41"/>
<path d="M129.303 82.7977C128.295 82.1935 127.849 81.1496 127.264 80.2136L130.427 78.964C129.978 80.2239 129.342 81.4247 129.303 82.7977Z" fill="#D98C41"/>
<path d="M11.3429 72.9164C13.1796 73.6878 15.0906 73.5798 17.0094 73.405C19.4694 73.1813 21.9268 72.7416 24.3997 73.2764C25.7592 73.5695 27.0085 74.0863 27.9909 75.1354C29.5301 76.8016 29.0452 78.7352 26.8982 79.4397C26.1139 79.6684 25.2979 79.7682 24.4818 79.7354C20.4236 79.7354 16.3655 79.7586 12.3074 79.7354C11.407 79.7354 10.8709 79.9668 11.1428 81.0005C11.2062 81.2437 11.2921 81.4804 11.3993 81.7076C11.9996 82.7515 13.1411 83.0061 14.1056 83.5075C14.9906 83.9703 15.6267 84.6234 15.6883 85.657C15.7499 86.6907 14.8803 86.9221 14.1492 87.2872C13.7599 87.4842 13.4139 87.7574 13.1317 88.0907C12.8495 88.424 12.6369 88.8106 12.5063 89.2277C12.3757 89.6448 12.3299 90.0839 12.3715 90.5191C12.4131 90.9542 12.5414 91.3766 12.7486 91.7612C13.0821 92.3989 13.472 93.0083 13.8388 93.6305C13.9029 95.5358 13.1231 96.7315 11.7046 96.9012C10.2322 97.0786 9.12143 96.0192 8.78795 94.1319C8.68535 93.5405 8.60326 92.944 8.44422 92.368C7.73623 89.7968 5.16334 88.938 3.14454 90.671C1.95942 91.6995 0.835871 91.8589 -0.446723 91.0413L-0.687851 90.7713L-0.710938 67.743L-0.408245 67.761C1.07956 68.4656 2.70076 68.5967 4.28861 68.8024C5.87646 69.0081 7.09236 69.6201 8.08509 70.8594C8.91878 71.9034 9.95511 72.7107 11.3429 72.9164Z" fill="#CEB949"/>
<path d="M3.10117 22.2264C3.67834 22.7664 4.42224 22.7664 5.13536 22.8229C6.37691 22.9232 7.13621 23.638 6.95408 24.8208C6.50261 27.734 7.81342 29.2357 10.5171 29.8348C11.1559 29.9788 11.6227 30.457 12.1306 30.8427C12.482 31.6621 12.6761 32.5405 12.7027 33.432C12.7617 34.5685 13.0849 35.5533 14.1802 36.2141C16.0836 37.3634 16.2991 38.2197 15.4372 40.3615C14.2341 41.8246 12.7796 41.2023 11.3585 40.8552C9.83479 40.1918 8.61376 40.2458 7.93911 41.0686C7.16956 42.0174 7.5569 42.8891 8.21102 43.7144C8.6004 44.3589 9.11299 44.9199 9.71935 45.3652C9.94509 45.8254 10.1862 46.2754 10.3966 46.7408C10.5499 47.0276 10.6015 47.3582 10.5428 47.6782C10.484 47.9983 10.3185 48.2888 10.0733 48.5021C9.54236 48.9958 8.92415 48.9521 8.27772 48.695C6.99512 48.1807 6.7976 46.9234 6.33074 45.8486C6.50175 42.9996 5.47568 41.0763 3.25251 40.0787C2.99905 39.8601 2.67045 39.7494 2.33674 39.7701L2.26748 39.837C2.19511 39.7291 2.09106 39.6463 1.96974 39.6003C1.84842 39.5542 1.71582 39.5471 1.59027 39.5799C-0.133533 40.0015 -0.16688 38.9473 -0.228445 37.6874C-0.320792 35.8438 -0.187402 33.9719 -0.700439 32.1618C-0.700439 27.0192 -0.700439 21.8707 -0.700439 16.7162C0.17942 16.7393 0.515459 17.4901 1.00028 18.025C1.65697 19.4546 1.79549 21.1336 3.10117 22.2264Z" fill="#CEB949"/>
<path d="M82.6193 104.934L84.4611 105.908C85.7436 107.801 85.7744 108.623 84.5867 109.945C83.6479 110.202 82.6936 110.415 81.765 110.737C80.5055 111.177 80.267 112.239 81.1545 113.234C81.8138 113.972 82.7475 114.17 83.6222 114.486C85.2229 115.064 85.6282 115.699 85.5692 117.461C84.9972 118.746 83.9916 119.153 82.6603 118.878C80.7928 118.278 79.2614 116.892 77.2734 116.563C75.4444 116.268 73.6103 117.391 73.2435 119.112C73.0229 120.14 73.459 121.043 73.9335 121.914C74.7287 123.375 75.6779 124.743 76.0216 126.432C76.5808 129.155 75.3752 130.937 72.633 131.392C71.6223 131.135 71.0939 130.363 70.6527 129.528C70.7014 128.592 70.7399 127.656 70.804 126.72C70.9502 124.568 70.9836 122.441 69.819 120.495C68.5056 118.299 66.4534 117.466 64.1755 118.235C63.2136 118.379 62.2542 118.644 61.2923 118.644C57.8267 118.644 56.0516 116.407 56.6185 112.856C57.2213 111.963 57.8293 111.099 59.058 111.022C59.748 110.979 60.4483 110.855 60.7049 110.061C60.9819 109.194 60.4996 108.536 59.9353 108.027C59.3094 107.464 58.545 107.05 57.8421 106.571C56.6852 105.029 56.9058 103.764 58.5142 102.727C59.3633 102.182 60.3329 102.013 61.2923 101.802C64.5937 101.082 65.5608 99.1894 64.232 96.0447C63.3188 93.8848 61.7104 92.1878 60.3842 90.3185C59.3581 88.8914 58.1627 87.593 57.4496 85.9705C57.1136 85.1991 56.58 84.15 57.2547 83.5869C57.9293 83.0238 58.8579 83.6949 59.5762 84.15C60.7433 84.8931 61.6694 85.9088 62.5544 86.9527C64.0566 88.7834 66.0869 90.1037 68.3671 90.7325C69.4895 91.0094 70.5489 91.4981 71.4889 92.1724C72.6304 93.0363 73.4051 94.1137 73.4384 95.6102C73.3455 96.242 73.1615 96.857 72.8921 97.4358C71.3529 100.884 72.8356 103.823 76.5192 104.648C78.5457 105.114 80.5953 104.72 82.6193 104.934Z" fill="#CEB949"/>
<path d="M90.5329 71.8158C93.098 73.464 95.6812 73.3586 98.2823 71.9033C99.1775 71.407 100.055 70.8619 100.983 70.4376C102.73 69.6405 104.108 69.98 105.319 71.4661C105.729 71.9591 106.09 72.4913 106.396 73.0552C107.461 75.0633 108.848 76.6987 110.9 77.8146C112.56 78.7171 112.953 80.0542 112.268 81.3141C111.498 82.6923 109.851 83.1962 108.256 82.5226C106.906 81.9543 105.973 80.895 105.098 79.7765C104.223 78.658 103.443 77.4803 102.302 76.6164C101.545 76.043 100.722 75.7344 99.7983 76.1973C99.3517 76.4116 98.9749 76.7487 98.712 77.1693C98.449 77.5899 98.3107 78.0768 98.3131 78.5731C98.2515 79.9307 97.2459 80.5273 95.9916 79.8587C95.4785 79.5888 95.0835 79.0874 94.6346 78.7068C94.0831 77.6655 93.6265 76.5598 92.839 75.665C92.1079 74.8319 91.2588 74.2431 90.0762 74.7985C89.511 74.9399 88.9973 75.2391 88.595 75.6615C88.1927 76.0839 87.9182 76.6121 87.8035 77.1846C87.1827 79.9436 85.0356 79.4448 83.5607 78.0846C83.2836 77.8274 83.1502 77.4186 82.7398 77.3132L82.6962 77.38V77.1024C82.1832 75.8784 81.7137 74.6674 82.137 73.2815C82.9578 70.5996 85.4256 69.4529 87.9907 70.6099C88.609 70.8876 89.2246 71.1756 89.8402 71.4584L90.066 71.605L90.5329 71.8158Z" fill="#CEB949"/>
<path d="M31.731 101.504L31.572 101.691C30.407 102.56 29.0436 103.122 27.6062 103.327C26.0671 103.514 25.554 103.046 25.6926 101.506C25.7875 100.493 26.0132 99.4903 26.1799 98.4849L28.0474 91.9308C28.5604 91.4165 29.017 90.8611 29.5532 90.388C30.61 89.4546 31.7772 88.7244 33.2624 89.2027C34.7092 89.6655 35.2017 90.8894 35.4711 92.2496C35.8994 94.4095 36.9024 95.0369 39.0264 94.4815C39.3984 94.3863 39.7626 94.2603 40.1371 94.1755C41.489 93.8772 42.3432 94.2089 42.7665 95.5331C43.4411 97.6493 44.9699 98.5492 46.9605 99.012C48.2431 99.3103 49.5257 99.6857 50.5672 100.555V100.529L50.8442 100.835C50.9289 101.028 51.0084 101.223 51.1007 101.414C51.4983 102.275 51.6138 103.134 50.9853 103.933C50.3568 104.733 49.4975 104.81 48.5715 104.728C47.4556 104.63 46.6553 103.887 45.7369 103.381C44.4313 101.99 42.6895 101.486 40.94 100.994L39.8524 100.246L39.4266 99.894L39.1701 99.6497L39.0931 99.6986L39.1624 99.6394C39.0828 99.5571 39.0059 99.4723 38.9289 99.3823L38.9058 99.3386L38.1645 98.616L38.1312 98.5801C37.8588 98.1816 37.463 97.8843 37.005 97.7341C36.9849 97.7048 36.9568 97.682 36.924 97.6683C36.8913 97.6546 36.8553 97.6507 36.8203 97.657C35.8764 97.0502 34.9631 97.009 34.0935 97.8035L34.0448 97.837C33.9337 97.8824 33.8341 97.9521 33.7533 98.0411C33.6725 98.1301 33.6126 98.236 33.5779 98.3512L33.5651 98.3769C33.1316 98.7138 32.9495 99.2049 32.7699 99.696L32.5929 100.107L32.103 101.005C31.9875 101.172 31.8567 101.334 31.731 101.504Z" fill="#CEB949"/>
<path d="M63.6753 42.6552L61.9669 43.9948C61.7256 44.2073 61.4448 44.3698 61.1406 44.473C60.8364 44.5763 60.5148 44.6183 60.1944 44.5965C58.9118 44.4731 58.3551 43.3726 59.1016 42.3595C61.1538 39.5697 63.2675 36.8287 65.2965 34.0235C66.4252 32.4602 67.3487 30.7734 67.8335 28.881C68.09 28.6418 68.0413 28.3384 68.0208 28.0427C68.5184 26.4408 68.1644 24.8081 68.2003 23.1908C68.8391 21.4269 68.9955 21.3369 71.3837 21.3549C72.7587 21.9411 74.0284 21.576 75.2315 20.8715C76.1062 20.3572 76.9117 19.7273 77.7685 19.1796C79.1357 18.3054 80.5158 18.0945 81.8728 19.2027C83.5684 20.7326 84.9305 20.8946 86.703 19.3184C87.9856 18.1691 89.1015 17.1972 90.8381 18.3157C92.9647 18.7013 94.2447 17.3797 95.4965 16.0015C96.5226 15.0939 97.682 14.703 99.0416 14.973C99.4418 15.1067 99.8394 15.2584 100.247 15.3741C102.438 15.9912 103.259 15.7135 104.657 13.9034C104.839 13.6668 105.013 13.4225 105.198 13.1886C106.937 10.985 109.238 11.0313 110.9 13.3197C111.721 14.5103 112.312 15.8447 112.642 17.2537C113.127 19.141 112.699 19.8918 110.867 20.5758C109.774 20.5964 108.771 20.2261 107.771 19.8507C106.332 19.0382 104.839 18.8556 103.41 19.7916C101.763 20.8766 100.219 20.8663 98.5106 19.9047C97.1664 19.1333 96.3122 19.3467 95.399 20.6041C93.8291 22.7639 91.6641 23.4325 89.1605 23.4325H84.6971C82.5757 23.3913 80.7441 24.029 79.4153 25.7646C78.2687 27.2585 78.1199 28.8964 79.2614 30.3929C80.6825 32.239 80.6107 34.0518 79.7052 36.0342C79.0023 37.5615 78.4226 39.1352 79.128 40.8451C79.2204 41.0713 79.2563 41.3593 79.5436 41.4493V41.4159C79.5143 41.5357 79.5233 41.6617 79.5694 41.7761C79.6154 41.8906 79.6961 41.9876 79.8001 42.0535C81.2472 44.5158 83.1578 46.6727 85.4256 48.4046C86.395 49.0842 87.5236 49.5006 88.7013 49.6131C89.6427 49.6825 89.7454 50.2302 89.417 50.9321C88.9707 51.8886 88.196 52.2177 87.2186 51.7703C86.7349 51.5118 86.2703 51.2188 85.8283 50.8935L85.4897 50.603L85.5385 50.6184L85.2563 50.3304L85.2845 50.3536C85.1921 50.2559 85.0998 50.1607 85.0049 50.0656L85.0459 50.0502C84.9972 49.9021 84.9188 49.7655 84.8156 49.6487C84.7124 49.532 84.5865 49.4376 84.4457 49.3714V49.3714C84.4092 49.2759 84.346 49.1931 84.2636 49.1329C84.1812 49.0726 84.0832 49.0376 83.9814 49.032H83.9993C82.8886 47.844 81.6676 48.4611 80.4594 48.8108C78.5611 49.3585 77.435 48.7877 76.8194 46.9132C76.6669 46.3829 76.5571 45.8412 76.491 45.2933C76.3525 44.4551 76.3063 43.5937 76.1011 42.7735C75.7753 41.4879 74.9699 40.5879 73.6103 40.3282C72.3277 40.084 71.2734 40.4851 70.5116 41.5727L70.5295 41.5881L70.2525 41.871L70.273 41.8376L69.8703 42.195L69.8421 42.2258L69.4881 42.6475L69.5214 42.6167L69.2392 42.9046L69.2726 42.8686C69.1659 42.8739 69.0624 42.9071 68.9724 42.9648C68.8824 43.0225 68.809 43.1028 68.7596 43.1978C67.8053 43.5269 66.6304 43.8714 66.0558 42.9406C65.2452 41.565 64.5655 41.9533 63.6753 42.6552Z" fill="#CEB949"/>
<path d="M138.83 69.9235C138.818 76.1974 138.805 82.4704 138.792 88.7425C138.792 89.3391 138.756 89.933 138.735 90.5424C138.222 89.9973 137.645 89.4831 137.173 88.8943C135.662 87.0224 133.751 85.9167 131.348 85.7033C129.998 85.2122 129.552 84.086 129.295 82.8106C129.334 81.4376 129.957 80.2394 130.419 78.9872C131.109 78.4961 131.83 78.041 132.471 77.5036C133.513 76.6448 133.451 75.5365 132.34 74.7343C131.443 74.0864 130.375 73.9424 129.324 73.7958C127.8 73.585 126.302 73.297 124.942 72.5102C122.839 70.7437 122.526 69.6972 123.447 67.4936C124.119 67.0617 124.711 66.442 125.627 66.5937C126.161 66.6837 126.163 66.3777 126.086 65.9766C125.83 64.6087 124.94 63.7242 123.855 62.9785C122.77 62.2328 121.605 61.7289 120.687 60.8135C119.422 59.551 119.148 57.6791 120.063 56.6403C120.91 55.6735 122.513 55.7815 124.032 56.8486C124.563 57.224 124.932 57.8771 125.681 57.9028V57.8565C125.463 58.2062 125.779 58.2628 125.971 58.3862C127.102 59.5099 128.59 59.5227 130.021 59.6513C131.832 59.8159 133.497 60.2067 134.459 61.9654C134.8 62.8345 135.108 63.7165 135.485 64.5675C136.134 66.0203 137.153 67.1028 138.728 67.5656L138.797 68.3884C138.828 68.9053 138.83 69.4144 138.83 69.9235Z" fill="#CEB949"/>
<path d="M22.0014 46.0518C22.4426 45.6541 22.8846 45.2564 23.3276 44.8587C24.8231 43.5243 26.5931 43.1411 28.2809 44.1388C31.4977 46.0441 34.4374 45.535 37.3361 43.5757C38.0748 43.0794 38.8521 42.6449 39.6114 42.1821C40.9081 41.4391 42.0852 40.5037 43.1026 39.4077C44.8623 37.5692 46.6092 37.4509 48.6485 39.0066C48.7556 39.0807 48.8537 39.167 48.941 39.2637C50.9931 41.7604 53.5044 43.7171 56.144 45.5273C56.6684 45.9015 57.0766 46.4167 57.3214 47.0135C57.8345 48.2014 58.0756 49.4176 57.1342 50.5052C56.2338 51.5466 55.0564 51.328 53.9277 51.0195C52.9863 50.7624 52.0782 50.3715 51.1393 50.0938C50.3698 49.8624 49.5617 49.6979 48.7768 50.0938L48.4613 50.2584L48.3792 50.2892C47.7071 50.5464 47.2864 51.1121 46.9016 51.6674C46.0397 52.9119 45.0291 53.8864 43.4207 54.0176C43.1847 54.0387 42.9574 54.1171 42.7585 54.2462C42.5596 54.3752 42.395 54.5509 42.2792 54.7581C42.1407 54.8481 41.9508 54.9098 41.8739 55.0384C40.2655 57.7125 37.7978 58.2345 34.9479 57.8359C34.7771 57.8241 34.6056 57.8241 34.4348 57.8359C32.0895 57.2481 29.6145 57.4775 27.4165 58.4864C24.9308 59.2887 22.4118 59.8878 19.7774 59.8903C19.0085 59.912 18.2414 59.806 17.5072 59.5767C16.6632 59.2861 15.968 58.7924 15.9116 57.7768C15.868 56.8228 16.3605 56.162 17.1583 55.6966C18.1125 55.1438 19.1361 55.2184 20.1467 55.4112C21.4473 55.6683 22.7401 55.9255 24.0766 55.8303C25.2207 55.7532 26.2468 55.4266 27.0471 54.5447C28.3297 53.2076 28.5862 51.8114 27.7269 50.5412C26.806 49.1682 25.449 48.8545 23.7047 49.6104C23.3917 49.7467 23.0916 49.9113 22.7761 50.0347C21.3934 50.5747 20.9009 50.3561 20.3468 48.9728C20.5905 47.826 21.3011 46.9466 22.0014 46.0518Z" fill="#CEB949"/>
<path d="M126.022 115.63C125.099 115.028 124.17 115.136 123.252 115.63C122.904 115.795 122.579 116.002 122.282 116.247C120.163 118.207 117.886 118.407 115.402 116.98C114.974 116.723 114.438 116.677 113.951 116.535C113.648 116.375 113.317 116.279 112.977 116.251C112.636 116.224 112.294 116.266 111.97 116.376C111.039 116.671 110.123 117.019 109.184 117.278C106.647 117.983 105.178 117.535 104.547 115.062C104.4 114.304 104.019 113.612 103.456 113.085C102.594 112.056 101.425 111.403 100.309 110.709C98.1079 109.338 97.1691 107.438 97.6308 104.851C97.7358 104.263 97.7668 103.663 97.7231 103.067C97.6487 102.105 97.3153 101.223 96.5278 100.604C95.594 99.8708 95.6299 99.5366 96.7458 99.0609C97.3583 98.7925 98.0288 98.6847 98.6943 98.7477C99.3598 98.8107 99.9984 99.0423 100.55 99.4209C103.313 101.221 106.378 101.663 109.559 101.81C111.57 101.902 113.499 102.483 115.433 103.003C116.567 103.465 117.629 104.031 118.473 104.959C118.473 105.001 118.496 105.042 118.504 105.083C119.235 108.536 121.636 110.243 124.773 111.31C125.47 111.528 126.116 111.884 126.673 112.358C127.23 112.831 127.686 113.411 128.015 114.064C128.272 114.56 128.564 115.136 128.185 115.633C127.805 116.129 127.179 115.91 126.646 115.756C126.443 115.692 126.23 115.669 126.022 115.63Z" fill="#CEB949"/>
</g>
</svg>
