<svg width="77" height="78" viewBox="0 0 77 78" fill="none" xmlns="http://www.w3.org/2000/svg">
<path d="M64 39.9445C64 25.5851 52.3594 13.9421 38 13.9393C23.6406 13.9364 12 25.5747 12 39.9341C12 54.2935 23.6406 65.9364 38 65.9393C52.3594 65.9421 64 54.3039 64 39.9445Z" fill="#DB7600"/>
<path d="M50.3813 53.3279C60.5349 43.1743 60.5366 26.7103 50.385 16.5547C46.5 12.6697 29.1575 11.7804 19.0039 21.9341C8.85029 32.0877 9.72528 49.4341 13.6154 53.3242C23.767 63.4799 40.2277 63.4815 50.3813 53.3279Z" fill="#FF8A00"/>
<path d="M22.0627 30.8702C23.2018 32.0093 24.7492 30.0312 26.9243 27.857C29.0994 25.6828 31.0786 24.1357 29.9395 22.9966C28.8004 21.8575 26.1137 22.6966 23.9386 24.8709C21.7635 27.0451 20.9236 29.7311 22.0627 30.8702Z" fill="#FFBC6D"/>
<path d="M20.2719 33.2546C22.0148 34.9975 24.3823 31.9709 27.7103 28.6442C31.0383 25.3175 34.0667 22.9505 32.3238 21.2076C30.5809 19.4646 26.47 20.7486 23.142 24.0753C19.814 27.402 18.529 31.5117 20.2719 33.2546Z" fill="#FFBC6D"/>
<path fill-rule="evenodd" clip-rule="evenodd" d="M13.1023 39.9363C13.1023 53.7043 24.2581 64.8519 38 64.8546C51.7419 64.8574 62.8977 53.7142 62.8977 39.9463C62.8977 26.1783 51.7419 15.0307 38 15.0279C24.2581 15.0252 13.1023 26.1684 13.1023 39.9363ZM38 75.9413C18.109 75.9373 2 59.8076 2 39.9341C2 20.0605 18.109 3.9373 38 3.94128C57.8909 3.94525 74 20.0749 74 39.9485C74 59.822 57.8909 75.9453 38 75.9413Z" fill="black"/>
</svg>
