<svg width="77" height="77" viewBox="0 0 77 77" fill="none" xmlns="http://www.w3.org/2000/svg">
<mask id="mask0" mask-type="alpha" maskUnits="userSpaceOnUse" x="0" y="0" width="77" height="77">
<rect x="0.756836" y="0.194824" width="76" height="76" fill="#C4C4C4"/>
</mask>
<g mask="url(#mask0)">
<path d="M38.7512 68.6253C55.5865 68.6253 69.237 55.0003 69.2403 38.1929C69.2437 21.3856 55.5987 7.7605 38.7633 7.7605C21.928 7.7605 8.27755 21.3856 8.27419 38.1929C8.27083 55.0003 21.9158 68.6253 38.7512 68.6253Z" fill="#80752B"/>
<path fill-rule="evenodd" clip-rule="evenodd" d="M38.7614 13.3089C24.9815 13.3089 13.8242 24.4587 13.8215 38.1932C13.8188 51.9277 24.9716 63.0775 38.7515 63.0775C52.5313 63.0775 63.6886 51.9277 63.6914 38.1932C63.6941 24.4587 52.5413 13.3089 38.7614 13.3089ZM2.72523 38.1932C2.7292 18.313 18.8728 2.21265 38.7636 2.21265C58.6544 2.21265 74.7916 18.313 74.7876 38.1932C74.7836 58.0734 58.64 74.1738 38.7492 74.1738C18.8585 74.1738 2.72126 58.0734 2.72523 38.1932Z" fill="#333019"/>
</g>
</svg>
