<svg width="149" height="149" viewBox="0 0 149 149" fill="none" xmlns="http://www.w3.org/2000/svg">
<path d="M140.804 78.6466C143.019 41.9866 115.096 10.4698 78.4359 8.252C41.776 6.03419 10.2615 33.9552 8.04622 70.6152C5.83097 107.275 33.7539 138.792 70.4138 141.01C107.074 143.228 138.588 115.307 140.804 78.6466Z" fill="url(#paint0_linear)"/>
<path fill-rule="evenodd" clip-rule="evenodd" d="M13.0549 74.9951C13.0549 108.681 40.3603 135.985 74.0352 135.988C107.71 135.99 135.015 108.691 135.015 75.0052C135.015 41.3192 107.71 14.0155 74.0352 14.0127C40.3603 14.0099 13.0549 41.309 13.0549 74.9951ZM74.0352 147C34.267 146.997 2.03515 114.755 2.03515 74.9941C2.03515 35.2333 34.267 2.99683 74.0351 3.00015C113.803 3.00346 146.035 35.2453 146.035 75.0062C146.035 114.767 113.803 147.003 74.0352 147Z" fill="black"/>
<defs>
<linearGradient id="paint0_linear" x1="70.8675" y1="133.502" x2="95.2968" y2="10.5515" gradientUnits="userSpaceOnUse">
<stop stop-color="#7D0000"/>
<stop offset="1" stop-color="#222222"/>
</linearGradient>
</defs>
</svg>
