<svg width="77" height="77" viewBox="0 0 77 77" fill="none" xmlns="http://www.w3.org/2000/svg">
<path d="M37.9948 65.0049C52.3542 65.0049 63.9971 53.3643 64 39.0049C64.0029 24.6455 52.3646 13.0049 38.0052 13.0049C23.6458 13.0049 12.0029 24.6455 12 39.0049C11.9971 53.3643 23.6354 65.0049 37.9948 65.0049Z" fill="url(#paint0_linear_1161_827)"/>
<path fill-rule="evenodd" clip-rule="evenodd" d="M13.1023 39.0022C13.1023 52.7702 24.2581 63.9178 38 63.9205C51.7419 63.9233 62.8977 52.7801 62.8977 39.0122C62.8977 25.2442 51.7419 14.0966 38 14.0939C24.2581 14.0911 13.1023 25.2343 13.1023 39.0022ZM38 75.0072C18.109 75.0032 2 58.8736 2 39C2 19.1264 18.109 3.00322 38 3.00719C57.8909 3.01117 74 19.1408 74 39.0144C74 58.8879 57.8909 75.0112 38 75.0072Z" fill="black"/>
<path d="M39.0615 64.7552C39.2268 66.352 39.3639 68.0295 39.6219 70.6547C45.6868 64.4488 50.9573 58.9607 56.3085 53.5009C54.6351 49.7466 52.8555 45.7749 51.1821 42.0206C48.9158 45.3917 46.7839 48.8997 44.5176 52.2708C42.8965 55.8677 41.2754 59.4646 39.6543 63.0615C39.3478 63.6785 39.2309 64.2713 39.0615 64.7552Z" fill="#5F0664"/>
<path d="M44.8127 52.465C47.079 49.0939 48.8347 45.6332 51.101 42.2621C52.7181 37.1248 54.4158 32.0157 56.0329 26.8783C51.21 33.1568 45.8049 40.3192 40.982 46.5977C41.9215 48.8276 44.8127 52.465 44.8127 52.465Z" fill="#FF95E7"/>
<path d="M56.0322 26.8796C54.4151 32.0169 52.7174 37.126 51.1003 42.2634C52.7737 46.0176 54.5278 49.8001 56.2012 53.5543C57.2618 44.0579 58.3225 34.5615 59.7341 21.4762C57 25.4078 56.5564 26.1578 56.0322 26.8796Z" fill="#E105B0"/>
<path d="M44.8134 52.4646C44.8134 52.4646 41.9505 48.7467 40.9828 46.5974C36.3696 51.5008 37.4833 56.5981 38.6647 62.5339C38.9591 62.7275 39.3573 63.1385 39.6517 63.332C41.2728 59.7351 43.1923 56.0616 44.8134 52.4646Z" fill="#E105B0"/>
<path d="M39.6511 63.3323C39.3568 63.1388 38.9584 62.7277 38.6641 62.5342C38.7608 63.2923 38.9898 64.1872 39.0866 64.9453C39.3648 64.409 39.4535 63.8969 39.6511 63.3323Z" fill="#FF00C1"/>
<path d="M33.3385 51.6714C33.042 52.9007 32.7661 54.1889 32.2921 56.2086C26.9127 52.0005 22.2461 48.2712 17.4985 44.5702C19.4467 41.5711 21.5167 38.3974 23.4649 35.3983C25.3858 37.7715 27.1641 40.2602 29.0849 42.6334C30.3582 45.2332 31.6316 47.833 32.905 50.4328C33.1511 50.8763 33.2146 51.3175 33.3385 51.6714Z" fill="#6E32BB"/>
<path d="M28.7784 42.8062C26.8575 40.433 25.4415 37.9483 23.5207 35.5752C22.382 31.8027 21.1623 28.0586 20.0236 24.2862C24.1873 28.655 28.843 33.6471 33.0067 38.0159C31.9025 39.7927 28.7784 42.8062 28.7784 42.8062Z" fill="#BF87EB"/>
<path d="M20.0238 24.2869C21.1625 28.0594 22.3821 31.8035 23.5209 35.5759C21.5727 38.575 19.5435 41.6025 17.5953 44.6016C17.3684 37.4645 17.1415 30.3275 16.8775 20.4889C19.2062 23.249 19.5745 23.7821 20.0238 24.2869Z" fill="#9B05E1"/>
<path d="M28.7814 42.8055C28.7814 42.8055 31.8848 39.733 33.0096 38.0152C37.0858 41.3553 35.5686 45.3291 33.9144 49.9467C33.6113 50.119 33.1886 50.4656 32.8855 50.6379C31.6122 48.0381 30.0547 45.4053 28.7814 42.8055Z" fill="#9B05E1"/>
<path d="M32.8812 50.6384C33.1843 50.4662 33.6071 50.1196 33.9102 49.9473C33.7516 50.5324 33.4527 51.2329 33.2941 51.8181C33.0686 51.4335 33.0257 51.0513 32.8812 50.6384Z" fill="#710256"/>
<path d="M35.2398 64.7982C36.0398 66.4982 36.8398 68.2983 38.1398 71.0983C42.4398 61.8983 46.1398 53.7982 49.9398 45.6982C46.6398 42.1982 43.1384 38.499 39.8384 34.999C38.6384 39.599 37.6398 44.2983 36.4398 48.8983C36.0398 53.4983 35.6398 58.0982 35.2398 62.6982C35.1398 63.4982 35.2398 64.1982 35.2398 64.7982Z" fill="#8A0292"/>
<path d="M36.8398 48.999C38.0398 44.399 38.6412 39.8975 39.8412 35.2975C39.6412 28.9975 39.5412 22.6975 39.3412 16.3975C36.4412 25.1975 33.2398 35.199 30.3398 43.999C32.2398 46.099 36.8398 48.999 36.8398 48.999Z" fill="#A687EB"/>
<path d="M39.3398 16.399C39.5398 22.699 39.6398 28.999 39.8398 35.299C43.1398 38.799 46.5398 42.299 49.8398 45.799C47.3398 34.899 44.8398 23.999 41.3398 8.99902C39.8398 14.399 39.6398 15.399 39.3398 16.399Z" fill="#E105B0"/>
<path d="M36.8387 48.999C36.8387 48.999 32.2389 45.999 30.3389 43.999C27.1389 51.199 30.3399 56.399 33.9399 62.499C34.3399 62.599 34.9387 62.899 35.3387 62.999C35.7387 58.399 36.4387 53.599 36.8387 48.999Z" fill="#E105B0"/>
<path d="M35.3403 62.999C34.9403 62.899 34.3414 62.599 33.9414 62.499C34.3414 63.299 34.9403 64.199 35.3403 64.999C35.4403 64.299 35.3403 63.699 35.3403 62.999Z" fill="#710256"/>
<path d="M32.668 62.999C38.168 64.499 45.168 63.499 49.668 61.999L38.168 72.999L32.668 62.999Z" fill="black"/>
<defs>
<linearGradient id="paint0_linear_1161_827" x1="38.0078" y1="13.0049" x2="38.0078" y2="65.0049" gradientUnits="userSpaceOnUse">
<stop stop-color="#3F00C6"/>
<stop offset="1"/>
</linearGradient>
</defs>
</svg>
