<svg width="134" height="133" viewBox="0 0 134 133" fill="none" xmlns="http://www.w3.org/2000/svg">
<path d="M66.5285 132.951C103.242 132.951 133.004 103.189 133.002 66.4755C133.001 29.7621 103.238 1.75468e-08 66.5238 1.13038e-08C29.8101 5.0609e-09 0.0487382 29.7621 0.0500201 66.4755C0.051302 103.189 29.8147 132.951 66.5285 132.951Z" fill="#333333"/>
<mask id="mask0" mask-type="alpha" maskUnits="userSpaceOnUse" x="0" y="0" width="134" height="133">
<path d="M66.5285 132.951C103.242 132.951 133.004 103.189 133.002 66.4755C133.001 29.7621 103.238 1.75468e-08 66.5238 1.13038e-08C29.8101 5.0609e-09 0.0487382 29.7621 0.0500201 66.4755C0.051302 103.189 29.8147 132.951 66.5285 132.951Z" fill="#3CA3CF"/>
</mask>
<g mask="url(#mask0)">
<path d="M0.047699 132.951L133 132.951L133 0.000289917L0.0477106 0.000278294L0.047699 132.951Z" fill="#848484"/>
<mask id="mask1" mask-type="alpha" maskUnits="userSpaceOnUse" x="0" y="0" width="133" height="133">
<path d="M0.047699 132.951L133 132.951L133 0.000289917L0.0477106 0.000278294L0.047699 132.951Z" fill="#848484"/>
</mask>
<g mask="url(#mask1)">
<path d="M64.3096 93.6488C66.1876 93.0461 68.2088 92.9062 70.0103 92.1004C71.8117 91.2946 73.4167 89.5032 73.087 87.5519C72.6641 85.0779 69.4508 83.7859 69.1279 81.2952C68.7516 78.4049 72.5376 76.0175 71.7917 73.2038C71.4088 71.7886 69.9104 70.8962 68.4619 70.8063C67.0134 70.7164 65.5782 71.2691 64.2596 71.9118C62.941 72.5545 61.659 73.307 60.2372 73.6566C56.8208 74.4991 53.3278 72.9274 50.1344 71.449C46.9411 69.9705 43.3549 68.5187 40.0017 69.5909C37.6375 70.3501 35.6729 72.308 33.1856 72.4579C31.494 72.5611 29.8757 71.7919 28.4339 70.8895C26.9921 69.9872 25.6035 68.9616 23.9885 68.4488C22.3736 67.936 20.4156 68.0592 19.2302 69.2713C17.9815 70.5466 17.9948 72.7376 19.0104 74.2027C20.026 75.6678 21.8375 76.4503 23.6189 76.5336C25.0274 76.6102 26.4559 76.3071 27.8412 76.5635C29.2264 76.8199 30.6416 77.8955 30.555 79.3173C30.515 79.9466 30.182 80.526 30.1254 81.152C29.9789 82.777 31.7138 83.9923 33.3321 84.1888C35.5431 84.4585 37.7141 83.5595 39.7653 82.6904C41.8165 81.8213 43.9975 80.9389 46.2052 81.2486C48.4129 81.5583 50.534 83.5461 50.1644 85.7405C49.9513 86.9625 49.0423 87.9415 48.0866 88.7373C47.1309 89.5331 46.072 90.2324 45.3528 91.2447C44.6335 92.2569 44.3538 93.7054 45.0498 94.7243C46.082 96.2027 48.3796 95.8564 49.9779 95.0107C50.9469 94.4979 52.1323 93.8552 53.0514 94.4513C53.7906 94.9308 53.9038 95.9896 53.6741 96.8387C53.4443 97.6878 52.9215 98.4703 52.7284 99.3261C52.5588 100.146 52.6534 100.999 52.9986 101.763C53.3438 102.526 53.9218 103.16 54.6497 103.575C57.8131 105.286 60.3704 102.36 60.3404 99.3561C60.3104 96.3526 61.1529 94.6644 64.3096 93.6488Z" fill="#232323"/>
<path d="M50.8119 36.0788C52.6899 36.6815 54.7111 36.8213 56.5126 37.6271C58.314 38.4329 59.919 40.2244 59.5893 42.1756C59.1665 44.6497 55.9532 45.9416 55.6302 48.4323C55.2539 51.3226 59.0399 53.7101 58.294 56.5238C57.9111 57.9389 56.4127 58.8313 54.9642 58.9212C53.5157 59.0111 52.0806 58.4584 50.7619 57.8157C49.4433 57.1731 48.1613 56.4205 46.7395 56.0709C43.3231 55.2285 39.8301 56.8001 36.6368 58.2786C33.4434 59.757 29.8572 61.2088 26.5041 60.1366C24.1399 59.3774 22.1753 57.4195 19.6879 57.2697C17.9963 57.1664 16.378 57.9356 14.9362 58.838C13.4944 59.7404 12.1058 60.7659 10.4909 61.2787C8.87588 61.7915 6.91794 61.6683 5.73251 60.4563C4.48382 59.181 4.49714 56.9899 5.51274 55.5248C6.52834 54.0597 8.33977 53.2772 10.1212 53.194C11.5298 53.1174 12.9583 53.4204 14.3435 53.164C15.7287 52.9076 17.1439 51.8321 17.0573 50.4102C17.0173 49.7809 16.6844 49.2015 16.6277 48.5755C16.4812 46.9506 18.2161 45.7352 19.8344 45.5387C22.0454 45.269 24.2165 46.1681 26.2676 47.0372C28.3188 47.9062 30.4999 48.7886 32.7075 48.479C34.9152 48.1693 37.0363 46.1814 36.6667 43.9871C36.4536 42.765 35.5446 41.7861 34.5889 40.9902C33.6332 40.1944 32.5743 39.4951 31.8551 38.4829C31.1359 37.4706 30.8562 36.0222 31.5521 35.0032C32.5843 33.5248 34.8819 33.8711 36.4803 34.7169C37.4492 35.2297 38.6347 35.8723 39.5537 35.2763C40.2929 34.7968 40.4061 33.7379 40.1764 32.8888C39.9466 32.0397 39.4238 31.2572 39.2307 30.4014C39.0612 29.5811 39.1558 28.7281 39.5009 27.9648C39.8461 27.2015 40.4241 26.5671 41.152 26.1526C44.3154 24.4411 46.8727 27.368 46.8427 30.3715C46.8127 33.375 47.6552 35.0632 50.8119 36.0788Z" fill="#232323"/>
<path d="M84.4555 88.2494C82.5775 87.6467 80.5563 87.5068 78.7548 86.701C76.9534 85.8952 75.3484 84.1038 75.678 82.1525C76.1009 79.6784 79.3142 78.3865 79.6372 75.8958C80.0135 73.0055 76.2275 70.618 76.9733 67.8044C77.3563 66.3892 78.8547 65.4968 80.3032 65.4069C81.7517 65.317 83.1868 65.8697 84.5054 66.5124C85.8241 67.155 87.106 67.9076 88.5279 68.2572C91.9443 69.0996 95.4373 67.528 98.6306 66.0495C101.824 64.5711 105.41 63.1193 108.763 64.1915C111.128 64.9507 113.092 66.9086 115.58 67.0585C117.271 67.1617 118.889 66.3925 120.331 65.4901C121.773 64.5878 123.162 63.5622 124.777 63.0494C126.392 62.5366 128.349 62.6598 129.535 63.8718C130.784 65.1472 130.77 67.3382 129.755 68.8033C128.739 70.2684 126.928 71.0509 125.146 71.1342C123.738 71.2107 122.309 70.9077 120.924 71.1641C119.539 71.4205 118.124 72.496 118.21 73.9179C118.25 74.5472 118.583 75.1266 118.64 75.7526C118.786 77.3775 117.051 78.5929 115.433 78.7894C113.222 79.0591 111.051 78.16 109 77.291C106.949 76.4219 104.768 75.5395 102.56 75.8492C100.352 76.1588 98.231 78.1467 98.6007 80.3411C98.8138 81.5631 99.7228 82.5421 100.678 83.3379C101.634 84.1337 102.693 84.833 103.412 85.8452C104.132 86.8575 104.411 88.306 103.715 89.3249C102.683 90.8033 100.385 90.457 98.7871 89.6113C97.8181 89.0985 96.6327 88.4558 95.7137 89.0518C94.9745 89.5313 94.8612 90.5902 95.091 91.4393C95.3208 92.2884 95.8436 93.0709 96.0367 93.9267C96.2062 94.747 96.1116 95.6 95.7665 96.3633C95.4213 97.1266 94.8433 97.761 94.1154 98.1755C90.952 99.887 88.3947 96.9601 88.4247 93.9567C88.4546 90.9532 87.6122 89.265 84.4555 88.2494Z" fill="#232323"/>
<path d="M84.0198 33.8053C82.1418 34.408 80.1206 34.5479 78.3192 35.3537C76.5177 36.1595 74.9127 37.9509 75.2424 39.9022C75.6653 42.3762 78.8786 43.6682 79.2016 46.1589C79.5778 49.0492 75.7918 51.4366 76.5377 54.2503C76.9206 55.6655 78.4191 56.5579 79.8675 56.6478C81.316 56.7377 82.7512 56.185 84.0698 55.5423C85.3884 54.8996 86.6704 54.1471 88.0922 53.7975C91.5087 52.955 95.0017 54.5267 98.195 56.0051C101.388 57.4836 104.975 58.9354 108.328 57.8632C110.692 57.104 112.656 55.1461 115.144 54.9962C116.835 54.893 118.454 55.6622 119.896 56.5646C121.337 57.4669 122.726 58.4925 124.341 59.0053C125.956 59.5181 127.914 59.3949 129.099 58.1828C130.348 56.9075 130.335 54.7165 129.319 53.2514C128.303 51.7863 126.492 51.0038 124.71 50.9205C123.302 50.8439 121.873 51.147 120.488 50.8906C119.103 50.6342 117.688 49.5586 117.774 48.1368C117.814 47.5075 118.147 46.9281 118.204 46.3021C118.351 44.6771 116.616 43.4618 114.997 43.2653C112.786 42.9956 110.615 43.8946 108.564 44.7637C106.513 45.6328 104.332 46.5152 102.124 46.2055C99.9165 45.8958 97.7954 43.908 98.165 41.7136C98.3781 40.4916 99.2872 39.5126 100.243 38.7168C101.198 37.921 102.257 37.2217 102.977 36.2094C103.696 35.1972 103.976 33.7487 103.28 32.7298C102.247 31.2514 99.9498 31.5977 98.3515 32.4434C97.3825 32.9562 96.1971 33.5989 95.278 33.0028C94.5388 32.5233 94.4256 31.4645 94.6554 30.6154C94.8851 29.7663 95.4079 28.9838 95.601 28.128C95.7706 27.3076 95.676 26.4547 95.3308 25.6914C94.9857 24.9281 94.4077 24.2937 93.6797 23.8792C90.5164 22.1676 87.9591 25.0946 87.989 28.098C88.019 31.1015 87.1765 32.7897 84.0198 33.8053Z" fill="#232323"/>
<path d="M34.5371 5.41027C32.5591 5.56677 30.5712 5.18384 28.5866 5.28041C26.602 5.37697 24.4676 6.11286 23.492 7.84436C23.1323 8.48454 22.9606 9.2132 22.9965 9.94662C23.0324 10.68 23.2744 11.3884 23.6949 11.9904C24.1154 12.5924 24.6971 13.0636 25.3734 13.3498C26.0496 13.636 26.7929 13.7255 27.5177 13.6083C28.873 13.3885 30.0251 12.4728 31.3604 12.1631C33.5115 11.6636 35.6692 12.7891 37.6105 13.848C39.5518 14.9069 41.7628 15.9691 43.8806 15.3464C45.8785 14.7604 47.1938 12.8391 49.1084 12.0499C52.0087 10.8545 55.1954 12.5361 58.2355 13.3152C59.9371 13.7514 61.7752 13.8946 63.4301 13.3152C65.085 12.7358 66.5135 11.2874 66.7133 9.53923C66.9131 7.79108 65.5945 5.90641 63.8397 5.81651C62.6109 5.75324 61.5088 6.48247 60.4366 7.09182C59.2078 7.77776 57.8593 8.32718 56.4407 8.32718C55.0222 8.32718 53.5671 7.68453 52.8778 6.45916C52.3051 5.44357 52.1652 3.98511 51.0697 3.5822C50.3471 3.31582 49.5513 3.67877 48.9186 4.11498C48.286 4.55118 47.6699 5.08395 46.9207 5.20715C46.1715 5.33035 45.2358 4.7876 45.3191 4.02174C45.399 3.68638 45.5475 3.3712 45.7553 3.09605C46.1529 2.42168 46.3054 1.63064 46.1868 0.856798C46.0683 0.0829526 45.6861 -0.62619 45.1048 -1.15064C44.5236 -1.67509 43.779 -1.98263 42.9971 -2.02125C42.2152 -2.05987 41.4439 -1.82718 40.8138 -1.36256C39.1489 -0.143847 39.9847 1.42116 39.2887 2.93622C38.5429 4.57115 36.1487 5.26376 34.5371 5.41027Z" fill="#BBBBBB"/>
<path d="M55.3514 110.582C55.4296 111.901 55.9045 113.165 56.7138 114.209C57.5231 115.253 58.6291 116.028 59.8866 116.432L60.8357 116.735C61.6248 116.985 62.5006 117.235 63.2598 116.945C64.6084 116.439 64.8781 114.474 64.0856 113.282C63.2931 112.09 61.8479 111.491 60.456 111.108C59.0642 110.725 57.5957 110.442 56.4236 109.616C55.2515 108.79 54.4723 107.152 55.1216 105.867C55.771 104.582 57.4059 104.259 58.7845 103.919C60.163 103.579 61.7813 102.763 61.8279 101.328C61.8579 100.176 60.7491 99.2505 59.6103 99.0574C58.4715 98.8643 57.3227 99.2106 56.2105 99.5236C55.0983 99.8366 53.9196 100.126 52.8074 99.8266C51.319 99.4237 50.29 98.0518 49.654 96.6466C49.018 95.2414 48.6551 93.7097 47.8459 92.3911C47.0368 91.0725 45.6416 89.9504 44.1065 90.0969C42.7746 90.2234 41.6691 91.2623 40.3438 91.4488C38.9586 91.6453 37.59 90.8627 36.6544 89.8238C35.7187 88.7849 35.1093 87.493 34.3867 86.3009C33.4843 84.8025 32.3522 83.3873 30.8404 82.5083C29.3287 81.6292 27.3807 81.3595 25.819 82.1453C24.2574 82.9311 23.285 84.9124 23.9344 86.5373C24.4272 87.7694 25.6359 88.5352 26.5783 89.4609C27.5206 90.3866 28.2432 91.915 27.474 93.0071C26.6515 94.1926 24.8867 93.9195 23.4449 93.9095C22.3308 93.8583 21.2319 94.1832 20.3248 94.8319C19.4557 95.5145 18.9263 96.6932 19.2193 97.7621C19.4857 98.7278 20.3281 99.4104 21.1539 99.9798C21.9797 100.549 22.8522 101.105 23.315 101.978C23.4383 102.211 23.5134 102.467 23.536 102.73C23.5586 102.993 23.5282 103.258 23.4465 103.51C23.3648 103.761 23.2336 103.993 23.0606 104.193C22.8876 104.392 22.6763 104.555 22.4393 104.671C21.5702 105.094 20.7111 106.003 20.0018 106.619C19.2326 107.285 18.6699 108.261 18.8031 109.26C18.9929 110.735 20.6178 111.674 22.1029 111.654C23.5881 111.634 24.9666 110.912 26.2952 110.242C27.6238 109.573 29.0523 108.91 30.5341 109.043C33.7174 109.313 35.5289 112.853 38.3892 114.265C39.5483 114.812 40.8433 115.004 42.1113 114.817C43.3793 114.629 44.5636 114.071 45.5151 113.212C46.7671 112.05 47.493 110.439 48.5652 109.11C49.6374 107.781 51.3489 106.683 52.9905 107.179C54.3824 107.602 55.2382 109.09 55.3547 110.539L55.3514 110.582Z" fill="#E85F0A"/>
<path d="M86.5549 84.242C86.6331 85.5607 87.108 86.8249 87.9173 87.869C88.7267 88.913 89.8326 89.688 91.0902 90.0925L92.0392 90.3955C92.8284 90.6452 93.7041 90.895 94.4633 90.6053C95.8119 90.0992 96.0816 88.1346 95.2891 86.9425C94.4966 85.7504 93.0515 85.1511 91.6596 84.7681C90.2677 84.3852 88.7992 84.1022 87.6271 83.2764C86.455 82.4506 85.6759 80.8123 86.3252 79.527C86.9745 78.2417 88.6094 77.9187 89.988 77.5791C91.3666 77.2394 92.9849 76.4236 93.0315 74.9885C93.0614 73.8364 91.9526 72.9107 90.8138 72.7176C89.675 72.5244 88.5262 72.8707 87.414 73.1837C86.3019 73.4967 85.1231 73.7864 84.0109 73.4867C82.5225 73.0838 81.4936 71.712 80.8576 70.3068C80.2216 68.9016 79.8586 67.3699 79.0495 66.0513C78.2403 64.7327 76.8451 63.6105 75.3101 63.757C73.9781 63.8836 72.8726 64.9225 71.5473 65.1089C70.1621 65.3054 68.7936 64.5229 67.8579 63.484C66.9222 62.4451 66.3128 61.1531 65.5903 59.9611C64.6879 58.4627 63.5557 57.0475 62.044 56.1684C60.5322 55.2893 58.5843 55.0196 57.0226 55.8055C55.4609 56.5913 54.4886 58.5725 55.1379 60.1975C55.6307 61.4295 56.8394 62.1954 57.7818 63.1211C58.7241 64.0467 59.4467 65.5751 58.6775 66.6673C57.855 67.8527 56.0902 67.5797 54.6484 67.5697C53.5344 67.5185 52.4355 67.8433 51.5283 68.492C50.6593 69.1746 50.1298 70.3534 50.4228 71.4223C50.6892 72.3879 51.5317 73.0705 52.3575 73.6399C53.1833 74.2093 54.0557 74.7654 54.5185 75.6378C54.6418 75.8714 54.7169 76.1273 54.7395 76.3905C54.7621 76.6536 54.7317 76.9186 54.65 77.1698C54.5684 77.421 54.4372 77.6532 54.2641 77.8528C54.0911 78.0523 53.8798 78.2152 53.6428 78.3316C52.7737 78.7545 51.9146 79.6635 51.2053 80.2795C50.4362 80.9455 49.8734 81.9211 50.0066 82.9201C50.1964 84.3952 51.8214 85.3342 53.3065 85.3142C54.7916 85.2942 56.1701 84.5717 57.4987 83.9024C58.8274 83.2331 60.2559 82.5705 61.7376 82.7036C64.921 82.9734 66.7324 86.5129 69.5927 87.9248C70.7518 88.4719 72.0469 88.6639 73.3148 88.4767C74.5828 88.2895 75.7671 87.7313 76.7186 86.8726C77.9706 85.7105 78.6965 84.0988 79.7687 82.7702C80.8409 81.4417 82.5525 80.3428 84.1941 80.839C85.5859 81.2618 86.4417 82.7503 86.5583 84.1987L86.5549 84.242Z" fill="#E85F0A"/>
<path d="M65.6355 23.3654C65.7137 22.0467 66.1886 20.7825 66.9979 19.7385C67.8072 18.6944 68.9132 17.9194 70.1707 17.5149L71.1197 17.2119C71.9089 16.9622 72.7847 16.7124 73.5439 17.0021C74.8924 17.5083 75.1622 19.4729 74.3697 20.6649C73.5772 21.857 72.132 22.4564 70.7401 22.8393C69.3483 23.2222 67.8798 23.5053 66.7077 24.331C65.5356 25.1568 64.7564 26.7951 65.4057 28.0804C66.055 29.3657 67.69 29.6887 69.0685 30.0283C70.4471 30.368 72.0654 31.1838 72.112 32.6189C72.142 33.771 71.0332 34.6967 69.8944 34.8899C68.7555 35.083 67.6068 34.7367 66.4946 34.4237C65.3824 34.1107 64.2037 33.821 63.0915 34.1207C61.603 34.5236 60.5741 35.8955 59.9381 37.3006C59.3021 38.7058 58.9392 40.2375 58.13 41.5561C57.3209 42.8747 55.9257 43.9969 54.3906 43.8504C53.0587 43.7238 51.9532 42.6849 50.6279 42.4985C49.2427 42.302 47.8741 43.0845 46.9384 44.1234C46.0027 45.1623 45.3934 46.4543 44.6708 47.6464C43.7684 49.1448 42.6363 50.5599 41.1245 51.439C39.6128 52.3181 37.6648 52.5878 36.1031 51.802C34.5414 51.0161 33.5691 49.0349 34.2184 47.4099C34.7113 46.1779 35.92 45.4121 36.8623 44.4864C37.8047 43.5607 38.5273 42.0323 37.7581 40.9401C36.9356 39.7547 35.1708 40.0278 33.729 40.0377C32.6149 40.0889 31.516 39.7641 30.6089 39.1154C29.7398 38.4328 29.2104 37.254 29.5034 36.1852C29.7698 35.2195 30.6122 34.5369 31.438 33.9675C32.2638 33.3981 33.1362 32.842 33.5991 31.9696C33.7224 31.736 33.7975 31.4801 33.8201 31.2169C33.8427 30.9538 33.8122 30.6888 33.7306 30.4376C33.6489 30.1864 33.5177 29.9542 33.3447 29.7546C33.1717 29.5551 32.9604 29.3923 32.7233 29.2758C31.8543 28.8529 30.9952 27.9439 30.2859 27.3279C29.5167 26.6619 28.954 25.6863 29.0872 24.6873C29.277 23.2122 30.9019 22.2732 32.387 22.2932C33.8721 22.3132 35.2507 23.0358 36.5793 23.705C37.9079 24.3743 39.3364 25.037 40.8182 24.9038C44.0015 24.6341 45.8129 21.0945 48.6733 19.6826C49.8324 19.1355 51.1274 18.9435 52.3954 19.1307C53.6634 19.318 54.8476 19.8761 55.7991 20.7349C57.0512 21.897 57.7771 23.5086 58.8493 24.8372C59.9215 26.1658 61.633 27.2646 63.2746 26.7685C64.6665 26.3456 65.5223 24.8572 65.6388 23.4087L65.6355 23.3654Z" fill="#E85F0A"/>
<path d="M49.7 57.9531C49.7484 57.1485 50.0427 56.3771 50.5442 55.7401C51.0457 55.1031 51.731 54.6302 52.5102 54.3834L53.0982 54.1986C53.5872 54.0462 54.1299 53.8938 54.6003 54.0706C55.4359 54.3794 55.6031 55.5781 55.112 56.3054C54.6209 57.0327 53.7255 57.3984 52.863 57.6321C52.0006 57.8657 51.0906 58.0384 50.3644 58.5423C49.6381 59.0461 49.1553 60.0457 49.5576 60.8299C49.96 61.6142 50.973 61.8112 51.8272 62.0185C52.6814 62.2257 53.6842 62.7235 53.7131 63.5991C53.7317 64.3021 53.0446 64.8669 52.3389 64.9847C51.6333 65.1025 50.9214 64.8912 50.2323 64.7003C49.5432 64.5093 48.8128 64.3325 48.1236 64.5154C47.2013 64.7612 46.5638 65.5983 46.1697 66.4556C45.7756 67.313 45.5507 68.2476 45.0493 69.0521C44.5479 69.8566 43.6834 70.5413 42.7322 70.4519C41.9069 70.3747 41.2219 69.7408 40.4007 69.6271C39.5424 69.5072 38.6944 69.9846 38.1146 70.6185C37.5348 71.2524 37.1572 72.0407 36.7095 72.768C36.1503 73.6823 35.4488 74.5457 34.512 75.0821C33.5753 75.6185 32.3683 75.783 31.4006 75.3036C30.4329 74.8241 29.8304 73.6152 30.2328 72.6238C30.5381 71.8721 31.2871 71.4048 31.871 70.84C32.4549 70.2752 32.9027 69.3426 32.4261 68.6762C31.9164 67.953 30.8229 68.1196 29.9295 68.1257C29.2392 68.1569 28.5582 67.9587 27.9962 67.5629C27.4576 67.1464 27.1296 66.4272 27.3111 65.775C27.4762 65.1858 27.9982 64.7693 28.5099 64.4219C29.0216 64.0745 29.5622 63.7352 29.849 63.2029C29.9254 63.0604 29.9719 62.9042 29.9859 62.7437C29.9999 62.5831 29.9811 62.4214 29.9305 62.2682C29.8799 62.1149 29.7986 61.9732 29.6914 61.8515C29.5842 61.7297 29.4532 61.6304 29.3063 61.5593C28.7678 61.3013 28.2355 60.7466 27.796 60.3708C27.3194 59.9644 26.9707 59.3692 27.0532 58.7597C27.1708 57.8596 28.1777 57.2867 29.098 57.2989C30.0182 57.3111 30.8724 57.752 31.6956 58.1603C32.5189 58.5687 33.4041 58.973 34.3222 58.8917C36.2947 58.7272 37.4172 56.5675 39.1895 55.7061C39.9078 55.3722 40.7102 55.2551 41.4959 55.3693C42.2816 55.4836 43.0154 55.8241 43.605 56.3481C44.3808 57.0571 44.8306 58.0405 45.495 58.8511C46.1594 59.6617 47.2199 60.3322 48.2371 60.0295C49.0996 59.7714 49.6298 58.8633 49.702 57.9795L49.7 57.9531Z" fill="#E85F0A"/>
<path d="M86.8186 111.942C86.8671 111.138 87.1613 110.366 87.6628 109.729C88.1643 109.092 88.8496 108.619 89.6288 108.373L90.2169 108.188C90.7059 108.035 91.2485 107.883 91.719 108.06C92.5546 108.369 92.7217 109.567 92.2307 110.295C91.7396 111.022 90.8441 111.388 89.9817 111.621C89.1192 111.855 88.2093 112.028 87.483 112.532C86.7567 113.035 86.2739 114.035 86.6763 114.819C87.0786 115.603 88.0917 115.8 88.9459 116.008C89.8001 116.215 90.8028 116.713 90.8317 117.588C90.8503 118.291 90.1632 118.856 89.4576 118.974C88.7519 119.092 88.0401 118.881 87.351 118.69C86.6618 118.499 85.9314 118.322 85.2423 118.505C84.32 118.75 83.6824 119.588 83.2883 120.445C82.8942 121.302 82.6693 122.237 82.168 123.041C81.6666 123.846 80.802 124.531 79.8509 124.441C79.0255 124.364 78.3405 123.73 77.5193 123.616C76.661 123.496 75.813 123.974 75.2332 124.608C74.6534 125.242 74.2758 126.03 73.8281 126.757C73.2689 127.672 72.5674 128.535 71.6307 129.071C70.694 129.608 69.4869 129.772 68.5192 129.293C67.5516 128.813 66.9491 127.604 67.3514 126.613C67.6568 125.861 68.4058 125.394 68.9897 124.829C69.5736 124.264 70.0213 123.332 69.5447 122.666C69.0351 121.942 67.9415 122.109 67.0481 122.115C66.3578 122.146 65.6769 121.948 65.1148 121.552C64.5763 121.136 64.2482 120.416 64.4298 119.764C64.5948 119.175 65.1169 118.759 65.6286 118.411C66.1403 118.064 66.6808 117.724 66.9676 117.192C67.044 117.05 67.0906 116.894 67.1046 116.733C67.1186 116.572 67.0997 116.411 67.0491 116.257C66.9985 116.104 66.9172 115.962 66.81 115.841C66.7028 115.719 66.5719 115.62 66.425 115.549C65.8865 115.291 65.3541 114.736 64.9147 114.36C64.438 113.954 64.0893 113.358 64.1719 112.749C64.2895 111.849 65.2964 111.276 66.2166 111.288C67.1368 111.3 67.991 111.741 68.8143 112.15C69.6375 112.558 70.5227 112.962 71.4409 112.881C73.4134 112.716 74.5358 110.557 76.3082 109.695C77.0264 109.362 77.8289 109.244 78.6146 109.359C79.4002 109.473 80.1341 109.813 80.7236 110.337C81.4994 111.046 81.9492 112.03 82.6136 112.84C83.278 113.651 84.3385 114.321 85.3557 114.019C86.2182 113.761 86.7485 112.853 86.8207 111.969L86.8186 111.942Z" fill="#E85F0A"/>
<path d="M80.4829 -11.7283C80.5611 -13.047 81.036 -14.3113 81.8454 -15.3553C82.6547 -16.3993 83.7606 -17.1744 85.0182 -17.5788L85.9672 -17.8818C86.7564 -18.1316 87.6321 -18.3813 88.3913 -18.0916C89.7399 -17.5855 90.0096 -15.6209 89.2171 -14.4288C88.4246 -13.2368 86.9795 -12.6374 85.5876 -12.2545C84.1957 -11.8715 82.7273 -11.5885 81.5552 -10.7627C80.383 -9.93691 79.6039 -8.29865 80.2532 -7.01334C80.9025 -5.72804 82.5375 -5.40505 83.916 -5.06541C85.2946 -4.72576 86.9129 -3.90996 86.9595 -2.47482C86.9895 -1.3227 85.8806 -0.397018 84.7418 -0.203888C83.603 -0.0107588 82.4542 -0.357059 81.342 -0.670062C80.2299 -0.983064 79.0511 -1.27276 77.9389 -0.973075C76.4505 -0.570168 75.4216 0.801713 74.7856 2.20689C74.1496 3.61207 73.7866 5.14378 72.9775 6.46239C72.1683 7.78099 70.7731 8.90313 69.2381 8.75662C67.9061 8.63009 66.8006 7.59119 65.4754 7.40472C64.0901 7.20826 62.7216 7.99077 61.7859 9.02967C60.8502 10.0686 60.2408 11.3605 59.5183 12.5526C58.6159 14.051 57.4837 15.4662 55.972 16.3453C54.4602 17.2243 52.5123 17.494 50.9506 16.7082C49.3889 15.9224 48.4166 13.9411 49.0659 12.3162C49.5587 11.0842 50.7674 10.3183 51.7098 9.39262C52.6521 8.46693 53.3747 6.93855 52.6055 5.84637C51.783 4.66096 50.0182 4.93401 48.5764 4.944C47.4624 4.9952 46.3635 4.67034 45.4564 4.02164C44.5873 3.33903 44.0578 2.16028 44.3508 1.09141C44.6172 0.125765 45.4597 -0.556847 46.2855 -1.12624C47.1113 -1.69564 47.9837 -2.25172 48.4465 -3.12413C48.5698 -3.35771 48.645 -3.61365 48.6675 -3.8768C48.6901 -4.13995 48.6597 -4.40495 48.578 -4.65613C48.4964 -4.9073 48.3652 -5.13954 48.1922 -5.3391C48.0191 -5.53866 47.8079 -5.70149 47.5708 -5.81794C46.7017 -6.24082 45.8426 -7.14986 45.1334 -7.76588C44.3642 -8.43184 43.8014 -9.40747 43.9346 -10.4064C44.1244 -11.8815 45.7494 -12.8205 47.2345 -12.8005C48.7196 -12.7806 50.0981 -12.058 51.4268 -11.3887C52.7554 -10.7194 54.1839 -10.0568 55.6656 -10.19C58.849 -10.4597 60.6604 -13.9993 63.5207 -15.4111C64.6798 -15.9582 65.9749 -16.1503 67.2428 -15.963C68.5108 -15.7758 69.6951 -15.2177 70.6466 -14.3589C71.8986 -13.1968 72.6245 -11.5852 73.6967 -10.2566C74.7689 -8.92798 76.4805 -7.82914 78.1221 -8.32529C79.514 -8.74817 80.3697 -10.2366 80.4863 -11.6851L80.4829 -11.7283Z" fill="#232323"/>
<path d="M90.2086 109.887C90.1304 111.205 89.6555 112.469 88.8462 113.513C88.0369 114.558 86.9309 115.333 85.6734 115.737L84.7244 116.04C83.9352 116.29 83.0595 116.54 82.3003 116.25C80.9517 115.744 80.682 113.779 81.4745 112.587C82.267 111.395 83.7121 110.796 85.104 110.413C86.4959 110.03 87.9643 109.747 89.1364 108.921C90.3085 108.095 91.0877 106.457 90.4384 105.172C89.7891 103.886 88.1541 103.563 86.7756 103.224C85.397 102.884 83.7787 102.068 83.7321 100.633C83.7021 99.4809 84.811 98.5552 85.9498 98.3621C87.0886 98.169 88.2374 98.5153 89.3495 98.8283C90.4617 99.1413 91.6405 99.431 92.7526 99.1313C94.2411 98.7284 95.27 97.3565 95.906 95.9513C96.542 94.5461 96.9049 93.0144 97.7141 91.6958C98.5232 90.3772 99.9184 89.2551 101.453 89.4016C102.785 89.5281 103.891 90.567 105.216 90.7535C106.601 90.9499 107.97 90.1674 108.906 89.1285C109.841 88.0896 110.451 86.7977 111.173 85.6056C112.076 84.1072 113.208 82.692 114.72 81.8129C116.231 80.9339 118.179 80.6642 119.741 81.45C121.303 82.2358 122.275 84.2171 121.626 85.842C121.133 87.074 119.924 87.8399 118.982 88.7656C118.039 89.6913 117.317 91.2197 118.086 92.3118C118.909 93.4972 120.673 93.2242 122.115 93.2142C123.229 93.163 124.328 93.4879 125.235 94.1366C126.104 94.8192 126.634 95.9979 126.341 97.0668C126.074 98.0324 125.232 98.715 124.406 99.2844C123.58 99.8538 122.708 100.41 122.245 101.282C122.122 101.516 122.047 101.772 122.024 102.035C122.001 102.298 122.032 102.563 122.114 102.814C122.195 103.066 122.326 103.298 122.499 103.497C122.672 103.697 122.884 103.86 123.121 103.976C123.99 104.399 124.849 105.308 125.558 105.924C126.327 106.59 126.89 107.566 126.757 108.565C126.567 110.04 124.942 110.979 123.457 110.959C121.972 110.939 120.593 110.216 119.265 109.547C117.936 108.878 116.508 108.215 115.026 108.348C111.843 108.618 110.031 112.157 107.171 113.569C106.012 114.116 104.717 114.308 103.449 114.121C102.181 113.934 100.996 113.376 100.045 112.517C98.793 111.355 98.067 109.743 96.9948 108.415C95.9226 107.086 94.2111 105.987 92.5695 106.483C91.1776 106.906 90.3218 108.395 90.2053 109.843L90.2086 109.887Z" fill="#E85F0A"/>
<path d="M78.0627 21.9347C77.9845 20.6161 77.5096 19.3518 76.7003 18.3078C75.891 17.2638 74.785 16.4887 73.5274 16.0843L72.5784 15.7813C71.7893 15.5315 70.9135 15.2818 70.1543 15.5715C68.8057 16.0776 68.536 18.0422 69.3285 19.2343C70.121 20.4263 71.5662 21.0257 72.958 21.4086C74.3499 21.7916 75.8184 22.0746 76.9905 22.9004C78.1626 23.7262 78.9418 25.3644 78.2924 26.6497C77.6431 27.935 76.0082 28.258 74.6296 28.5977C73.2511 28.9373 71.6328 29.7531 71.5861 31.1883C71.5562 32.3404 72.665 33.2661 73.8038 33.4592C74.9426 33.6523 76.0914 33.306 77.2036 32.993C78.3157 32.68 79.4945 32.3903 80.6067 32.69C82.0951 33.0929 83.124 34.4648 83.76 35.87C84.396 37.2752 84.759 38.8069 85.5681 40.1255C86.3773 41.4441 87.7725 42.5662 89.3076 42.4197C90.6395 42.2932 91.745 41.2543 93.0703 41.0678C94.4555 40.8713 95.824 41.6539 96.7597 42.6928C97.6954 43.7317 98.3048 45.0236 99.0274 46.2157C99.9297 47.7141 101.062 49.1293 102.574 50.0083C104.085 50.8874 106.033 51.1571 107.595 50.3713C109.157 49.5855 110.129 47.6042 109.48 45.9793C108.987 44.7472 107.778 43.9814 106.836 43.0557C105.893 42.13 105.171 40.6016 105.94 39.5095C106.763 38.324 108.527 38.5971 109.969 38.6071C111.083 38.6583 112.182 38.3334 113.089 37.6847C113.958 37.0021 114.488 35.8234 114.195 34.7545C113.928 33.7889 113.086 33.1062 112.26 32.5368C111.434 31.9674 110.562 31.4114 110.099 30.539C109.976 30.3054 109.901 30.0494 109.878 29.7863C109.855 29.5231 109.886 29.2581 109.968 29.007C110.049 28.7558 110.18 28.5235 110.353 28.324C110.526 28.1244 110.738 27.9616 110.975 27.8451C111.844 27.4223 112.703 26.5132 113.412 25.8972C114.181 25.2312 114.744 24.2556 114.611 23.2567C114.421 21.7816 112.796 20.8426 111.311 20.8625C109.826 20.8825 108.447 21.6051 107.119 22.2744C105.79 22.9437 104.362 23.6063 102.88 23.4731C99.6967 23.2034 97.8852 19.6638 95.0249 18.252C93.8658 17.7049 92.5708 17.5128 91.3028 17.7001C90.0348 17.8873 88.8505 18.4454 87.899 19.3042C86.647 20.4663 85.9211 22.0779 84.8489 23.4065C83.7767 24.7351 82.0651 25.8339 80.4235 25.3378C79.0317 24.9149 78.1759 23.4265 78.0594 21.978L78.0627 21.9347Z" fill="#E85F0A"/>
<path d="M47.1037 125.456C48.0494 125.262 49.015 124.959 49.721 124.3C50.4269 123.641 50.8065 122.549 50.3869 121.676C49.8042 120.457 48.0561 120.224 47.3468 119.082C46.3845 117.557 47.7797 115.633 47.783 113.828C47.7821 113.209 47.6113 112.602 47.2893 112.074C46.9672 111.545 46.5062 111.115 45.9566 110.831C45.407 110.547 44.7898 110.419 44.1724 110.461C43.555 110.503 42.961 110.714 42.4553 111.071C41.2898 111.9 40.7471 113.402 39.6182 114.271C38.0399 115.499 35.7223 115.22 33.9342 114.327C32.1461 113.435 30.6576 112.033 28.9394 111.024C27.2212 110.015 25.0202 109.426 23.2288 110.318C21.767 111.041 20.9179 112.546 20.0255 113.878C19.1331 115.21 17.891 116.565 16.2794 116.662C14.2815 116.785 12.2203 114.953 10.4888 115.949C9.34333 116.615 9.13022 118.33 9.86944 119.425C10.6087 120.521 12.0272 121.007 13.3458 120.92C14.6644 120.834 15.8998 120.254 17.0486 119.612C17.4515 119.342 17.9045 119.157 18.3805 119.066C18.6188 119.026 18.8635 119.063 19.0791 119.172C19.2947 119.281 19.4699 119.456 19.5793 119.672C19.8123 120.278 19.2862 120.907 19.2296 121.553C19.1297 122.688 20.5249 123.441 21.6504 123.251C22.7759 123.061 23.6883 122.302 24.6872 121.779C25.5264 121.347 26.6418 121.054 27.5309 121.513C28.3367 121.926 28.5299 122.928 29.2824 123.414C30.4146 124.154 31.7998 123.574 33.0651 123.747C35.396 124.057 37.6803 125.103 40.0578 125.482C42.3889 125.898 44.7758 125.888 47.1037 125.456Z" fill="#232323"/>
<path d="M58.4194 141.597C58.6125 142.542 58.9155 143.508 59.5748 144.214C60.2341 144.92 61.3263 145.299 62.1987 144.88C63.4174 144.297 63.6505 142.549 64.7927 141.84C66.3177 140.877 68.2424 142.273 70.0472 142.276C70.666 142.275 71.2728 142.104 71.8012 141.782C72.3297 141.46 72.7595 140.999 73.044 140.449C73.3284 139.9 73.4565 139.283 73.4142 138.665C73.3719 138.048 73.161 137.454 72.8043 136.948C71.9751 135.783 70.4734 135.24 69.6043 134.111C68.3756 132.533 68.6553 130.215 69.5477 128.427C70.4401 126.639 71.8419 125.151 72.8509 123.432C73.8598 121.714 74.4492 119.513 73.5568 117.722C72.8342 116.26 71.3291 115.411 69.9972 114.519C68.6653 113.626 67.31 112.384 67.2135 110.773C67.0903 108.775 68.9217 106.714 67.926 104.982C67.2601 103.837 65.5452 103.623 64.4497 104.363C63.3542 105.102 62.868 106.52 62.9546 107.839C63.0412 109.158 63.6206 110.393 64.2632 111.542C64.5326 111.945 64.7183 112.398 64.8093 112.874C64.849 113.112 64.8116 113.357 64.7026 113.572C64.5936 113.788 64.4187 113.963 64.2033 114.072C63.5973 114.305 62.9679 113.779 62.3219 113.723C61.1865 113.623 60.4339 115.018 60.6237 116.144C60.8135 117.269 61.5727 118.181 62.0955 119.18C62.5284 120.019 62.8214 121.135 62.3619 122.024C61.949 122.83 60.9467 123.023 60.4605 123.775C59.7213 124.908 60.3007 126.293 60.1276 127.558C59.8179 129.889 58.7723 132.173 58.3927 134.551C57.9774 136.882 57.9864 139.269 58.4194 141.597Z" fill="#232323"/>
<path d="M47.1037 7.0601C48.0494 7.25323 49.015 7.55624 49.721 8.21554C50.4269 8.87484 50.8065 9.96702 50.3869 10.8394C49.8042 12.0581 48.0561 12.2912 47.3468 13.4333C46.3845 14.9584 47.7797 16.883 47.783 18.6878C47.7821 19.3066 47.6113 19.9134 47.2893 20.4418C46.9672 20.9703 46.5062 21.4001 45.9566 21.6846C45.407 21.969 44.7898 22.0971 44.1724 22.0548C43.555 22.0125 42.961 21.8015 42.4553 21.4449C41.2898 20.6157 40.7471 19.114 39.6182 18.2449C38.0399 17.0162 35.7223 17.2959 33.9342 18.1883C32.1461 19.0807 30.6576 20.4826 28.9394 21.4915C27.2212 22.5004 25.0202 23.0898 23.2288 22.1974C21.767 21.4748 20.9179 19.9698 20.0255 18.6378C19.1331 17.3059 17.891 15.9507 16.2794 15.8541C14.2815 15.7309 12.2203 17.5623 10.4888 16.5667C9.34333 15.9007 9.13022 14.1859 9.86944 13.0904C10.6087 11.9949 12.0272 11.5087 13.3458 11.5953C14.6644 11.6819 15.8998 12.2613 17.0486 12.9039C17.4515 13.1733 17.9045 13.359 18.3805 13.45C18.6188 13.4896 18.8635 13.4522 19.0791 13.3433C19.2947 13.2343 19.4699 13.0594 19.5793 12.844C19.8123 12.238 19.2862 11.6086 19.2296 10.9626C19.1297 9.82717 20.5249 9.07464 21.6504 9.26443C22.7759 9.45423 23.6883 10.2134 24.6872 10.7362C25.5264 11.1691 26.6418 11.4621 27.5309 11.0026C28.3367 10.5897 28.5299 9.58743 29.2824 9.10127C30.4146 8.36206 31.7998 8.94144 33.0651 8.76829C35.396 8.45862 37.6803 7.41306 40.0578 7.03346C42.3889 6.6181 44.7758 6.62713 47.1037 7.0601Z" fill="#232323"/>
<path d="M86.3104 125.456C85.3647 125.262 84.399 124.959 83.6931 124.3C82.9872 123.641 82.6076 122.549 83.0271 121.676C83.6099 120.457 85.358 120.224 86.0673 119.082C87.0296 117.557 85.6344 115.633 85.6311 113.828C85.632 113.209 85.8028 112.602 86.1248 112.074C86.4469 111.545 86.9079 111.115 87.4575 110.831C88.0071 110.547 88.6243 110.419 89.2417 110.461C89.8591 110.503 90.4531 110.714 90.9588 111.071C92.1243 111.9 92.667 113.402 93.7958 114.271C95.3742 115.499 97.6918 115.22 99.4799 114.327C101.268 113.435 102.756 112.033 104.475 111.024C106.193 110.015 108.394 109.426 110.185 110.318C111.647 111.041 112.496 112.546 113.389 113.878C114.281 115.21 115.523 116.565 117.135 116.662C119.133 116.785 121.194 114.953 122.925 115.949C124.071 116.615 124.284 118.33 123.545 119.425C122.805 120.521 121.387 121.007 120.068 120.92C118.75 120.834 117.514 120.254 116.366 119.612C115.963 119.342 115.51 119.157 115.034 119.066C114.795 119.026 114.551 119.063 114.335 119.172C114.119 119.281 113.944 119.456 113.835 119.672C113.602 120.278 114.128 120.907 114.184 121.553C114.284 122.688 112.889 123.441 111.764 123.251C110.638 123.061 109.726 122.302 108.727 121.779C107.888 121.347 106.772 121.054 105.883 121.513C105.077 121.926 104.884 122.928 104.132 123.414C103 124.154 101.614 123.574 100.349 123.747C98.0181 124.057 95.7338 125.103 93.3563 125.482C91.0252 125.898 88.6383 125.888 86.3104 125.456Z" fill="#232323"/>
<path d="M70.3194 14.2251C69.3737 14.0319 68.4081 13.7289 67.7022 13.0696C66.9962 12.4103 66.6166 11.3181 67.0362 10.4457C67.6189 9.22702 69.3671 8.99393 70.0763 7.85181C71.0387 6.32676 69.6435 4.40213 69.6401 2.59737C69.641 1.97851 69.8118 1.37178 70.1339 0.843336C70.4559 0.314888 70.9169 -0.114989 71.4666 -0.399417C72.0162 -0.683847 72.6334 -0.811908 73.2508 -0.769639C73.8682 -0.727369 74.4621 -0.516391 74.9679 -0.15971C76.1333 0.669412 76.6761 2.17116 77.8049 3.04023C79.3832 4.26893 81.7008 3.98923 83.4889 3.09684C85.2771 2.20445 86.7655 0.802604 88.4837 -0.206328C90.2019 -1.21526 92.4029 -1.80464 94.1944 -0.912248C95.6562 -0.189681 96.5053 1.31539 97.3977 2.64732C98.2901 3.97924 99.5321 5.33447 101.144 5.43103C103.142 5.55424 105.203 3.72284 106.934 4.71846C108.08 5.38442 108.293 7.09927 107.554 8.19477C106.814 9.29028 105.396 9.77643 104.077 9.68986C102.759 9.60328 101.523 9.0239 100.375 8.38124C99.9716 8.11187 99.5187 7.92617 99.0426 7.83516C98.8043 7.79552 98.5596 7.83292 98.344 7.9419C98.1285 8.05089 97.9532 8.22579 97.8439 8.44118C97.6108 9.04721 98.1369 9.67654 98.1935 10.3225C98.2934 11.458 96.8982 12.2105 95.7727 12.0207C94.6472 11.8309 93.7349 11.0717 92.7359 10.5489C91.8968 10.1161 90.7813 9.82305 89.8922 10.2826C89.0864 10.6955 88.8933 11.6977 88.1407 12.1839C87.0086 12.9231 85.6234 12.3437 84.358 12.5169C82.0271 12.8265 79.7429 13.8721 77.3654 14.2517C75.0343 14.6671 72.6473 14.658 70.3194 14.2251Z" fill="#BBBBBB"/>
<path d="M98.6646 11.1294C97.7189 11.3226 96.7532 11.6256 96.0473 12.2849C95.3414 12.9442 94.9618 14.0364 95.3814 14.9088C95.9641 16.1275 97.7122 16.3606 98.4215 17.5027C99.3838 19.0277 97.9886 20.9524 97.9853 22.7571C97.9862 23.376 98.157 23.9827 98.479 24.5112C98.8011 25.0396 99.2621 25.4695 99.8117 25.7539C100.361 26.0383 100.979 26.1664 101.596 26.1241C102.213 26.0819 102.807 25.8709 103.313 25.5142C104.478 24.6851 105.021 23.1833 106.15 22.3143C107.728 21.0856 110.046 21.3653 111.834 22.2577C113.622 23.15 115.111 24.5519 116.829 25.5608C118.547 26.5698 120.748 27.1591 122.54 26.2667C124.001 25.5442 124.85 24.0391 125.743 22.7072C126.635 21.3753 127.877 20.02 129.489 19.9235C131.487 19.8003 133.548 21.6316 135.28 20.636C136.425 19.9701 136.638 18.2552 135.899 17.1597C135.16 16.0642 133.741 15.5781 132.423 15.6646C131.104 15.7512 129.869 16.3306 128.72 16.9732C128.317 17.2426 127.864 17.4283 127.388 17.5193C127.149 17.559 126.905 17.5216 126.689 17.4126C126.474 17.3036 126.298 17.1287 126.189 16.9133C125.956 16.3073 126.482 15.678 126.539 15.032C126.639 13.8965 125.243 13.144 124.118 13.3338C122.992 13.5236 122.08 14.2828 121.081 14.8055C120.242 15.2384 119.126 15.5314 118.237 15.0719C117.432 14.659 117.238 13.6568 116.486 13.1706C115.354 12.4314 113.969 13.0108 112.703 12.8376C110.372 12.528 108.088 11.4824 105.711 11.1028C103.379 10.6874 100.992 10.6965 98.6646 11.1294Z" fill="#232323"/>
<path d="M68.1936 56.0074C67.278 55.7019 66.2903 55.4815 65.3493 55.6995C64.4082 55.9175 63.5334 56.6735 63.4605 57.6388C63.3558 58.9856 64.7533 60.0616 64.7964 61.4053C64.8673 63.2072 62.6967 64.1764 61.7914 65.7377C61.4827 66.2741 61.3273 66.8849 61.342 67.5036C61.3567 68.1223 61.5409 68.725 61.8747 69.2462C62.2085 69.7673 62.679 70.1868 63.2348 70.4589C63.7906 70.731 64.4105 70.8452 65.0268 70.7892C66.4507 70.6539 67.6716 69.6247 69.0837 69.4365C71.065 69.1616 72.9322 70.5626 74.0346 72.2294C75.1369 73.8963 75.725 75.8546 76.7086 77.5874C77.6921 79.3203 79.3035 80.9312 81.3012 81.0541C82.9284 81.1592 84.4163 80.2803 85.8551 79.573C87.2939 78.8658 89.0472 78.3131 90.4912 79.0353C92.283 79.9275 93.1524 82.5441 95.1497 82.5477C96.4747 82.5437 97.5167 81.1651 97.4243 79.8468C97.3318 78.5284 96.3464 77.3981 95.1612 76.8138C93.9759 76.2295 92.6164 76.1136 91.3002 76.0957C90.8165 76.1276 90.3314 76.0619 89.8736 75.9027C89.6475 75.8179 89.4542 75.6631 89.322 75.461C89.1898 75.2588 89.1255 75.0197 89.1385 74.7785C89.2397 74.1371 90.01 73.8552 90.382 73.324C91.0362 72.3906 90.2042 71.0413 89.1346 70.643C88.065 70.2446 86.8953 70.4459 85.7688 70.3992C84.8256 70.3545 83.7131 70.0505 83.1729 69.208C82.6815 68.4475 83.0153 67.483 82.6067 66.6857C81.9958 65.4795 80.5065 65.2886 79.4973 64.506C77.6335 63.0724 76.1781 61.0248 74.3089 59.5073C72.4978 57.9821 70.4261 56.7964 68.1936 56.0074Z" fill="#232323"/>
<path d="M0.475362 124.104C1.05461 124.314 1.60591 124.595 2.11698 124.939C2.34253 124.894 2.56496 124.834 2.78294 124.76C5.65993 123.801 7.14504 120.374 6.75211 117.364C6.45909 115.127 4.77419 110.445 2.16027 110.122C1.45444 110.059 0.743355 110.09 0.0458163 110.215L0.0458151 123.957C0.188998 124.004 0.332179 124.05 0.475362 124.104Z" fill="#232323"/>
<path d="M0.475362 8.41195C1.05461 8.20136 1.60591 7.92068 2.11698 7.57617C2.34253 7.62202 2.56496 7.68208 2.78294 7.75598C5.65993 8.71497 7.14504 12.1413 6.75211 15.1515C6.45909 17.3891 4.77419 22.0708 2.16027 22.3938C1.45444 22.4569 0.743355 22.4255 0.0458163 22.3006L0.0458151 8.55847C0.188998 8.51185 0.332179 8.46523 0.475362 8.41195Z" fill="#232323"/>
<path d="M132.939 124.104C132.359 124.314 131.808 124.595 131.297 124.939C131.072 124.894 130.849 124.834 130.631 124.76C127.754 123.801 126.269 120.374 126.662 117.364C126.955 115.127 128.64 110.445 131.254 110.122C131.96 110.059 132.671 110.09 133.368 110.215L133.368 123.957C133.225 124.004 133.082 124.05 132.939 124.104Z" fill="#232323"/>
<path d="M132.939 8.41195C132.359 8.20136 131.808 7.92068 131.297 7.57617C131.072 7.62202 130.849 7.68208 130.631 7.75598C127.754 8.71497 126.269 12.1413 126.662 15.1515C126.955 17.3891 128.64 22.0708 131.254 22.3938C131.96 22.4569 132.671 22.4255 133.368 22.3006L133.368 8.55847C133.225 8.51185 133.082 8.46523 132.939 8.41195Z" fill="#232323"/>
<path d="M1.13208 87.2734C2.4174 87.3633 3.8226 86.6741 4.21552 85.4454C4.60844 84.2167 3.9458 82.8581 4.32873 81.6361C4.90479 79.7913 7.40883 79.3318 8.46439 77.7135C9.37011 76.3184 8.88063 74.2539 7.55535 73.2549C6.23007 72.256 4.30209 72.2227 2.82032 72.9919C1.75144 73.548 0.912316 74.4437 0.0465575 75.2961L0.0465565 87.047C0.397195 87.1687 0.762029 87.2448 1.13208 87.2734Z" fill="#E85F0A"/>
<path d="M1.13208 45.2432C2.4174 45.1533 3.8226 45.8425 4.21552 47.0712C4.60844 48.2999 3.9458 49.6585 4.32873 50.8805C4.90479 52.7253 7.40883 53.1848 8.46439 54.8031C9.37011 56.1982 8.88063 58.2627 7.55535 59.2617C6.23007 60.2606 4.30209 60.2939 2.82032 59.5247C1.75144 58.9686 0.912316 58.0729 0.0465575 57.2205L0.0465565 45.4696C0.397195 45.3479 0.762029 45.2718 1.13208 45.2432Z" fill="#E85F0A"/>
<path d="M132.282 87.2734C130.997 87.3633 129.591 86.6741 129.199 85.4454C128.806 84.2167 129.468 82.8581 129.085 81.6361C128.509 79.7913 126.005 79.3318 124.95 77.7135C124.044 76.3184 124.533 74.2539 125.859 73.2549C127.184 72.256 129.112 72.2227 130.594 72.9919C131.663 73.548 132.502 74.4437 133.368 75.2961L133.368 87.047C133.017 87.1687 132.652 87.2448 132.282 87.2734Z" fill="#E85F0A"/>
<path d="M132.282 45.2432C130.997 45.1533 129.591 45.8425 129.199 47.0712C128.806 48.2999 129.468 49.6585 129.085 50.8805C128.509 52.7253 126.005 53.1848 124.95 54.8031C124.044 56.1982 124.533 58.2627 125.859 59.2617C127.184 60.2606 129.112 60.2939 130.594 59.5247C131.663 58.9686 132.502 58.0729 133.368 57.2205L133.368 45.4696C133.017 45.3479 132.652 45.2718 132.282 45.2432Z" fill="#E85F0A"/>
<path d="M2.85305 107.152C3.63223 105.487 3.68218 103.593 4.35147 101.885C5.26385 99.5537 5.07072 97.6924 4.31485 95.3315C4.12644 94.577 3.79649 93.8652 3.34253 93.2337C2.84972 92.6344 2.04723 92.2348 1.29801 92.4246C0.825295 92.5971 0.397404 92.8736 0.0459929 93.2337L0.0459914 109.623C1.26804 109.327 2.30362 108.314 2.85305 107.152Z" fill="#BBBBBB"/>
<path d="M2.85305 25.3643C3.63223 27.0292 3.68218 28.9238 4.35147 30.632C5.26385 32.9629 5.07072 34.8243 4.31485 37.1851C4.12644 37.9396 3.79649 38.6514 3.34253 39.2829C2.84972 39.8822 2.04723 40.2818 1.29801 40.092C0.825295 39.9196 0.397404 39.643 0.0459929 39.2829L0.0459914 22.8936C1.26804 23.1899 2.30362 24.2022 2.85305 25.3643Z" fill="#BBBBBB"/>
<path d="M130.561 107.152C129.782 105.487 129.732 103.593 129.063 101.885C128.15 99.5537 128.343 97.6924 129.099 95.3315C129.288 94.577 129.618 93.8652 130.072 93.2337C130.564 92.6344 131.367 92.2348 132.116 92.4246C132.589 92.5971 133.017 92.8736 133.368 93.2337L133.368 109.623C132.146 109.327 131.11 108.314 130.561 107.152Z" fill="#BBBBBB"/>
<path d="M130.561 25.3643C129.782 27.0292 129.732 28.9238 129.063 30.632C128.15 32.9629 128.343 34.8243 129.099 37.1851C129.288 37.9396 129.618 38.6514 130.072 39.2829C130.564 39.8822 131.367 40.2818 132.116 40.092C132.589 39.9196 133.017 39.643 133.368 39.2829L133.368 22.8936C132.146 23.1899 131.11 24.2022 130.561 25.3643Z" fill="#BBBBBB"/>
<path d="M31.9698 132.279C31.9698 132.241 31.9786 132.204 31.9964 132.166C32.2395 131.004 31.78 129.635 30.6978 129.169C29.9685 128.836 29.1261 128.983 28.3402 129.116L27.7309 129.216C25.4499 129.579 23.0225 129.768 21.0712 128.606C19.6161 127.744 18.6504 126.275 17.3484 125.183C16.007 124.075 14.3498 123.419 12.6134 123.309C11.398 123.235 9.97949 123.572 9.47003 124.674C8.80406 126.106 10.136 127.671 11.4679 128.473C13.0307 129.393 14.7865 129.936 16.5959 130.058C17.2619 130.101 17.9278 130.095 18.5239 130.368C19.1199 130.641 19.6061 131.297 19.4263 131.926C19.2464 132.555 18.5705 132.832 17.9711 133.048L17.5316 133.191L31.6035 133.191C31.765 132.905 31.8882 132.598 31.9698 132.279Z" fill="#232323"/>
<path d="M31.9698 0.237562C31.9698 0.2753 31.9786 0.313038 31.9964 0.350776C32.2395 1.51288 31.78 2.88143 30.6978 3.3476C29.9685 3.68058 29.1261 3.53407 28.3402 3.40088L27.7309 3.30098C25.4499 2.93804 23.0225 2.74824 21.0712 3.91034C19.6161 4.77276 18.6504 6.2412 17.3484 7.33338C16.007 8.44149 14.3498 9.0976 12.6134 9.20806C11.398 9.28132 9.97949 8.94501 9.47003 7.84284C8.80406 6.41103 10.136 4.84602 11.4679 4.04353C13.0307 3.12344 14.7865 2.58072 16.5959 2.45854C17.2619 2.41526 17.9278 2.42192 18.5239 2.14887C19.1199 1.87583 19.6061 1.21986 19.4263 0.590523C19.2464 -0.0388106 18.5705 -0.315184 17.9711 -0.531622L17.5316 -0.674803L31.6035 -0.674805C31.765 -0.388044 31.8882 -0.0812945 31.9698 0.237562Z" fill="#232323"/>
<path d="M101.445 132.279C101.445 132.241 101.436 132.204 101.418 132.166C101.175 131.004 101.635 129.635 102.717 129.169C103.446 128.836 104.289 128.983 105.075 129.116L105.684 129.216C107.965 129.579 110.392 129.768 112.344 128.606C113.799 127.744 114.764 126.275 116.066 125.183C117.408 124.075 119.065 123.419 120.801 123.309C122.017 123.235 123.435 123.572 123.945 124.674C124.611 126.106 123.279 127.671 121.947 128.473C120.384 129.393 118.628 129.936 116.819 130.058C116.153 130.101 115.487 130.095 114.891 130.368C114.295 130.641 113.809 131.297 113.988 131.926C114.168 132.555 114.844 132.832 115.444 133.048L115.883 133.191L101.811 133.191C101.65 132.905 101.527 132.598 101.445 132.279Z" fill="#232323"/>
<path d="M101.445 0.237562C101.445 0.2753 101.436 0.313038 101.418 0.350776C101.175 1.51288 101.635 2.88143 102.717 3.3476C103.446 3.68058 104.289 3.53407 105.075 3.40088L105.684 3.30098C107.965 2.93804 110.392 2.74824 112.344 3.91034C113.799 4.77276 114.764 6.2412 116.066 7.33338C117.408 8.44149 119.065 9.0976 120.801 9.20806C122.017 9.28132 123.435 8.94501 123.945 7.84284C124.611 6.41103 123.279 4.84602 121.947 4.04353C120.384 3.12344 118.628 2.58072 116.819 2.45854C116.153 2.41526 115.487 2.42192 114.891 2.14887C114.295 1.87583 113.809 1.21986 113.988 0.590523C114.168 -0.0388106 114.844 -0.315184 115.444 -0.531622L115.883 -0.674803L101.811 -0.674805C101.65 -0.388044 101.527 -0.0812945 101.445 0.237562Z" fill="#232323"/>
<path d="M5.33406 129.395C4.82779 127.574 3.68689 125.994 2.11743 124.94C1.60636 124.596 1.05506 124.315 0.475816 124.104C0.335963 124.054 0.192782 124.004 0.0462688 123.961L0.046268 133.191L5.13426 133.191C5.61483 131.982 5.68503 130.648 5.33406 129.395Z" fill="#E85F0A"/>
<path d="M5.33406 3.12117C4.82779 4.94249 3.68689 6.52273 2.11743 7.57646C1.60636 7.92097 1.05506 8.20164 0.475816 8.41224C0.335963 8.46219 0.192782 8.51213 0.0462688 8.55542L0.046268 -0.674804L5.13426 -0.674805C5.61483 0.534486 5.68503 1.86812 5.33406 3.12117Z" fill="#E85F0A"/>
<path d="M128.08 129.395C128.586 127.574 129.727 125.994 131.297 124.94C131.808 124.596 132.359 124.315 132.938 124.104C133.078 124.054 133.221 124.004 133.368 123.961L133.368 133.191L128.28 133.191C127.799 131.982 127.729 130.648 128.08 129.395Z" fill="#E85F0A"/>
<path d="M128.08 3.12117C128.586 4.94249 129.727 6.52273 131.297 7.57646C131.808 7.92097 132.359 8.20164 132.938 8.41224C133.078 8.46219 133.221 8.51213 133.368 8.55542L133.368 -0.674804L128.28 -0.674805C127.799 0.534486 127.729 1.86812 128.08 3.12117Z" fill="#E85F0A"/>
<path d="M36.2914 88.4071C38.2693 88.2506 40.2572 88.6335 42.2418 88.537C44.2264 88.4404 46.3608 87.7045 47.3365 85.973C47.6961 85.3328 47.8679 84.6042 47.832 83.8708C47.7961 83.1374 47.554 82.4289 47.1335 81.827C46.7131 81.225 46.1313 80.7538 45.4551 80.4676C44.7788 80.1814 44.0356 80.0918 43.3107 80.2091C41.9554 80.4289 40.8033 81.3446 39.4681 81.6543C37.317 82.1537 35.1592 81.0283 33.2179 79.9694C31.2766 78.9105 29.0656 77.8483 26.9479 78.471C24.9499 79.057 23.6347 80.9783 21.72 81.7675C18.8197 82.9629 15.6331 81.2813 12.5929 80.5022C10.8914 80.066 9.05329 79.9228 7.39835 80.5022C5.74342 81.0815 4.31493 82.53 4.11514 84.2782C3.91535 86.0263 5.23396 87.911 6.98878 88.0009C8.21749 88.0641 9.31967 87.3349 10.3919 86.7256C11.6206 86.0396 12.9692 85.4902 14.3877 85.4902C15.8062 85.4902 17.2613 86.1329 17.9506 87.3582C18.5234 88.3738 18.6632 89.8323 19.7587 90.2352C20.4813 90.5016 21.2771 90.1386 21.9098 89.7024C22.5425 89.2662 23.1585 88.7334 23.9077 88.6102C24.6569 88.487 25.5926 89.0298 25.5094 89.7956C25.4294 90.131 25.2809 90.4462 25.0731 90.7213C24.6755 91.3957 24.5231 92.1867 24.6416 92.9606C24.7601 93.7344 25.1424 94.4436 25.7236 94.968C26.3048 95.4925 27.0494 95.8 27.8314 95.8386C28.6133 95.8773 29.3845 95.6446 30.0146 95.1799C31.6796 93.9612 30.8438 92.3962 31.5397 90.8812C32.2856 89.2462 34.6797 88.5536 36.2914 88.4071Z" fill="#BBBBBB"/>
<path d="M65.3114 136.324C67.2893 136.168 69.2773 136.551 71.2618 136.454C73.2464 136.357 75.3808 135.622 76.3565 133.89C76.7162 133.25 76.8879 132.521 76.852 131.788C76.8161 131.054 76.574 130.346 76.1536 129.744C75.7331 129.142 75.1513 128.671 74.4751 128.385C73.7988 128.098 73.0556 128.009 72.3307 128.126C70.9755 128.346 69.8233 129.262 68.4881 129.571C66.337 130.071 64.1793 128.945 62.238 127.886C60.2967 126.827 58.0857 125.765 55.9679 126.388C53.97 126.974 52.6547 128.895 50.74 129.684C47.8397 130.88 44.6531 129.198 41.6129 128.419C39.9114 127.983 38.0733 127.84 36.4184 128.419C34.7635 128.999 33.335 130.447 33.1352 132.195C32.9354 133.943 34.254 135.828 36.0088 135.918C37.2375 135.981 38.3397 135.252 39.4119 134.643C40.6406 133.957 41.9892 133.407 43.4077 133.407C44.8262 133.407 46.2814 134.05 46.9706 135.275C47.5434 136.291 47.6832 137.749 48.7788 138.152C49.5013 138.419 50.2972 138.056 50.9298 137.619C51.5625 137.183 52.1785 136.65 52.9277 136.527C53.6769 136.404 54.6126 136.947 54.5294 137.713C54.4494 138.048 54.3009 138.363 54.0932 138.638C53.6956 139.313 53.5431 140.104 53.6616 140.878C53.7802 141.651 54.1624 142.361 54.7436 142.885C55.3249 143.409 56.0695 143.717 56.8514 143.756C57.6333 143.794 58.4046 143.562 59.0347 143.097C60.6996 141.878 59.8638 140.313 60.5597 138.798C61.3056 137.163 63.6998 136.471 65.3114 136.324Z" fill="#BBBBBB"/>
<path d="M83.5333 98.545C85.5112 98.7015 87.4991 98.3186 89.4837 98.4152C91.4683 98.5117 93.6027 99.2476 94.5784 100.979C94.938 101.619 95.1098 102.348 95.0739 103.081C95.038 103.815 94.7959 104.523 94.3754 105.125C93.955 105.727 93.3732 106.198 92.697 106.485C92.0207 106.771 91.2775 106.86 90.5526 106.743C89.1973 106.523 88.0452 105.608 86.71 105.298C84.5589 104.798 82.4011 105.924 80.4598 106.983C78.5186 108.042 76.3075 109.104 74.1898 108.481C72.1919 107.895 70.8766 105.974 68.9619 105.185C66.0616 103.989 62.875 105.671 59.8348 106.45C58.1333 106.886 56.2952 107.029 54.6403 106.45C52.9853 105.871 51.5568 104.422 51.357 102.674C51.1573 100.926 52.4759 99.0412 54.2307 98.9513C55.4594 98.888 56.5616 99.6172 57.6338 100.227C58.8625 100.913 60.2111 101.462 61.6296 101.462C63.0481 101.462 64.5033 100.819 65.1925 99.5939C65.7653 98.5783 65.9051 97.1199 67.0006 96.717C67.7232 96.4506 68.519 96.8135 69.1517 97.2497C69.7844 97.6859 70.4004 98.2187 71.1496 98.3419C71.8988 98.4651 72.8345 97.9224 72.7513 97.1565C72.6713 96.8211 72.5228 96.506 72.3151 96.2308C71.9174 95.5564 71.765 94.7654 71.8835 93.9916C72.002 93.2177 72.3843 92.5086 72.9655 91.9841C73.5468 91.4597 74.2913 91.1521 75.0733 91.1135C75.8552 91.0749 76.6264 91.3076 77.2565 91.7722C78.9215 92.9909 78.0857 94.5559 78.7816 96.071C79.5275 97.7059 81.9216 98.3985 83.5333 98.545Z" fill="#BBBBBB"/>
<path d="M89.8776 65.4608C87.8997 65.3043 85.9118 65.6873 83.9272 65.5907C81.9426 65.4941 79.8082 64.7582 78.8325 63.0267C78.4728 62.3866 78.3011 61.6579 78.337 60.9245C78.3729 60.1911 78.615 59.4827 79.0354 58.8807C79.4559 58.2787 80.0377 57.8075 80.7139 57.5213C81.3902 57.2351 82.1334 57.1456 82.8583 57.2628C84.2135 57.4826 85.3657 58.3983 86.7009 58.708C88.852 59.2074 91.0097 58.082 92.951 57.0231C94.8923 55.9642 97.1033 54.902 99.2211 55.5247C101.219 56.1107 102.534 58.032 104.449 58.8212C107.349 60.0166 110.536 58.335 113.576 57.5559C115.278 57.1197 117.116 56.9765 118.771 57.5559C120.426 58.1353 121.854 59.5837 122.054 61.3319C122.254 63.08 120.935 64.9647 119.18 65.0546C117.951 65.1179 116.849 64.3886 115.777 63.7793C114.548 63.0933 113.2 62.5439 111.781 62.5439C110.363 62.5439 108.908 63.1866 108.218 64.4119C107.646 65.4275 107.506 66.886 106.41 67.2889C105.688 67.5553 104.892 67.1923 104.259 66.7561C103.627 66.3199 103.01 65.7871 102.261 65.6639C101.512 65.5407 100.576 66.0835 100.66 66.8494C100.74 67.1847 100.888 67.4999 101.096 67.775C101.493 68.4494 101.646 69.2404 101.527 70.0143C101.409 70.7881 101.027 71.4973 100.445 72.0217C99.8641 72.5462 99.1195 72.8537 98.3376 72.8923C97.5557 72.931 96.7844 72.6983 96.1543 72.2337C94.4894 71.0149 95.3252 69.4499 94.6293 67.9349C93.8834 66.2999 91.4892 65.6073 89.8776 65.4608Z" fill="#E85F0A"/>
<path d="M12.9412 39.8163C10.9633 39.6598 8.97539 40.0427 6.99081 39.9462C5.00622 39.8496 2.8718 39.1137 1.89615 37.3822C1.53649 36.742 1.36474 36.0134 1.40064 35.2799C1.43654 34.5465 1.67863 33.8381 2.09909 33.2361C2.51955 32.6341 3.10133 32.163 3.77756 31.8768C4.4538 31.5906 5.19706 31.501 5.92193 31.6183C7.27717 31.8381 8.4293 32.7538 9.76457 33.0634C11.9156 33.5629 14.0734 32.4374 16.0147 31.3786C17.956 30.3197 20.167 29.2575 22.2848 29.8802C24.2827 30.4662 25.598 32.3875 27.5126 33.1767C30.4129 34.3721 33.5996 32.6905 36.6397 31.9113C38.3413 31.4751 40.1793 31.3319 41.8343 31.9113C43.4892 32.4907 44.9177 33.9392 45.1175 35.6873C45.3173 37.4355 43.9987 39.3201 42.2438 39.4101C41.0151 39.4733 39.9129 38.7441 38.8407 38.1347C37.612 37.4488 36.2634 36.8994 34.8449 36.8994C33.4264 36.8994 31.9713 37.542 31.282 38.7674C30.7093 39.783 30.5694 41.2415 29.4739 41.6444C28.7513 41.9107 27.9555 41.5478 27.3228 41.1116C26.6901 40.6754 26.0741 40.1426 25.3249 40.0194C24.5757 39.8962 23.64 40.439 23.7233 41.2048C23.8032 41.5402 23.9517 41.8554 24.1595 42.1305C24.5571 42.8049 24.7095 43.5959 24.591 44.3698C24.4725 45.1436 24.0903 45.8528 23.509 46.3772C22.9278 46.9016 22.1832 47.2092 21.4013 47.2478C20.6193 47.2864 19.8481 47.0537 19.218 46.5891C17.5531 45.3704 18.3889 43.8054 17.6929 42.2903C16.947 40.6554 14.5529 39.9628 12.9412 39.8163Z" fill="#E85F0A"/>
<path d="M60.1846 42.5294C58.2067 42.6859 56.2188 42.303 54.2342 42.3995C52.2496 42.4961 50.1152 43.232 49.1396 44.9635C48.7799 45.6037 48.6081 46.3323 48.644 47.0658C48.6799 47.7992 48.922 48.5076 49.3425 49.1096C49.763 49.7116 50.3447 50.1827 51.021 50.4689C51.6972 50.7551 52.4405 50.8447 53.1653 50.7274C54.5206 50.5076 55.6727 49.5919 57.008 49.2823C59.1591 48.7828 61.3168 49.9083 63.2581 50.9671C65.1994 52.026 67.4104 53.0882 69.5282 52.4656C71.5261 51.8795 72.8414 49.9582 74.756 49.169C77.6563 47.9736 80.843 49.6552 83.8831 50.4344C85.5847 50.8706 87.4227 51.0138 89.0777 50.4344C90.7326 49.855 92.1611 48.4065 92.3609 46.6584C92.5607 44.9102 91.2421 43.0256 89.4872 42.9356C88.2585 42.8724 87.1564 43.6016 86.0841 44.211C84.8554 44.8969 83.5068 45.4463 82.0883 45.4463C80.6698 45.4463 79.2147 44.8037 78.5254 43.5783C77.9527 42.5627 77.8128 41.1043 76.7173 40.7013C75.9947 40.435 75.1989 40.7979 74.5662 41.2341C73.9336 41.6703 73.3175 42.2031 72.5683 42.3263C71.8191 42.4495 70.8834 41.9067 70.9667 41.1409C71.0466 40.8055 71.1951 40.4903 71.4029 40.2152C71.8005 39.5408 71.9529 38.7498 71.8344 37.9759C71.7159 37.2021 71.3337 36.493 70.7524 35.9685C70.1712 35.4441 69.4266 35.1365 68.6447 35.0979C67.8627 35.0593 67.0915 35.292 66.4614 35.7566C64.7965 36.9753 65.6323 38.5403 64.9363 40.0554C64.1904 41.6903 61.7963 42.3829 60.1846 42.5294Z" fill="#BBBBBB"/>
<path d="M11.4204 68.4285C13.8319 69.0963 16.391 69.0009 18.7461 68.1555C21.31 67.2264 23.8008 65.3917 26.4779 65.9178C27.5002 66.1176 28.5358 66.7936 28.7156 67.8192C28.8821 68.7582 28.2627 69.6938 27.4569 70.2C26.6511 70.7061 25.6788 70.8659 24.7398 71.0191C23.844 70.6561 23.1548 71.2022 22.2957 71.6451C21.4366 72.088 20.6008 72.644 19.6318 72.7739C18.4863 72.9171 17.3775 72.401 16.252 72.1479C14.5871 71.7716 12.8456 71.9681 11.134 71.9814C9.4225 71.9947 7.60773 71.785 6.25249 70.7394C4.76738 69.5939 4.13138 67.1698 5.61982 65.8446C5.78654 65.6901 5.98766 65.5774 6.20653 65.5161C6.42541 65.4547 6.65574 65.4463 6.8785 65.4916C7.74759 65.6881 7.79088 66.6238 8.31366 67.1565C8.57347 67.3821 8.89227 67.5289 9.2326 67.5796C9.57293 67.6304 9.92067 67.5829 10.235 67.4429C10.3493 67.3956 10.4606 67.3411 10.568 67.2797C10.7148 67.197 10.8864 67.1694 11.0518 67.2016C11.2172 67.2339 11.3657 67.3241 11.4708 67.4559C11.5758 67.5878 11.6304 67.7527 11.6248 67.9212C11.6192 68.0896 11.5539 68.2506 11.4404 68.3752L11.4204 68.4285Z" fill="#232323"/>
<path d="M18.0277 106.469C19.4129 106.136 20.848 106.099 22.2499 105.85C23.6518 105.6 25.0769 105.121 26.0692 104.102C27.0615 103.083 27.4977 101.421 26.7752 100.192C25.5997 98.1945 22.2932 98.3877 21.1144 96.3964C19.9357 94.4052 21.6672 91.9511 21.4907 89.6569C21.372 88.6173 20.8683 87.6599 20.0787 86.9733C19.2892 86.2868 18.2712 85.9208 17.2252 85.9475C15.7334 86.0407 14.2816 86.9464 12.8298 86.6135C11.4479 86.2805 10.6088 84.9286 9.67976 83.853C8.75074 82.7775 7.18572 81.8552 5.97365 82.5944C4.87481 83.2603 4.87148 84.9585 5.55742 86.054C6.24337 87.1496 7.39883 87.8422 8.40444 88.658C9.41005 89.4738 10.3491 90.5859 10.3058 91.8779C10.2658 93.06 9.42337 94.0356 8.73742 95.0012C8.05148 95.9669 7.47541 97.2355 8.00153 98.2944C8.58758 99.4732 10.2059 99.7296 11.0317 100.755C11.3127 101.145 11.4977 101.596 11.5718 102.071C11.6459 102.546 11.6068 103.032 11.4579 103.489C11.1503 104.401 10.6583 105.239 10.0127 105.953C9.23356 106.895 8.37113 107.771 7.68186 108.783C6.99258 109.796 6.49644 110.984 6.5597 112.203C6.63296 113.661 7.80839 115.383 9.45333 115.157C10.8053 114.97 10.7353 113.938 10.9717 112.826C11.701 109.516 14.851 107.218 18.0277 106.469Z" fill="#BBBBBB"/>
<path d="M18.0277 26.0465C19.4129 26.3795 20.848 26.4161 22.2499 26.6659C23.6518 26.9156 25.0769 27.3951 26.0692 28.414C27.0615 29.4329 27.4977 31.0945 26.7752 32.3232C25.5997 34.3211 22.2932 34.128 21.1144 36.1192C19.9357 38.1104 21.6672 40.5645 21.4907 42.8587C21.372 43.8983 20.8683 44.8557 20.0787 45.5423C19.2892 46.2289 18.2712 46.5949 17.2252 46.5681C15.7334 46.4749 14.2816 45.5692 12.8298 45.9022C11.4479 46.2352 10.6088 47.5871 9.67976 48.6626C8.75074 49.7381 7.18572 50.6605 5.97365 49.9212C4.87481 49.2553 4.87148 47.5571 5.55742 46.4616C6.24337 45.3661 7.39883 44.6735 8.40444 43.8577C9.41005 43.0419 10.3491 41.9297 10.3058 40.6377C10.2658 39.4557 9.42337 38.48 8.73742 37.5144C8.05148 36.5487 7.47541 35.2801 8.00153 34.2212C8.58758 33.0425 10.2059 32.7861 11.0317 31.7605C11.3127 31.3704 11.4977 30.9196 11.5718 30.4446C11.6459 29.9696 11.6068 29.4838 11.4579 29.0267C11.1503 28.1149 10.6583 27.2762 10.0127 26.5627C9.23356 25.6203 8.37113 24.7446 7.68186 23.7323C6.99258 22.7201 6.49644 21.5313 6.5597 20.3126C6.63296 18.8541 7.80839 17.1326 9.45333 17.3591C10.8053 17.5455 10.7353 18.5778 10.9717 19.6899C11.701 22.9998 14.851 25.2973 18.0277 26.0465Z" fill="#BBBBBB"/>
<path d="M115.386 106.469C114.001 106.136 112.566 106.099 111.164 105.85C109.762 105.6 108.337 105.121 107.345 104.102C106.353 103.083 105.916 101.421 106.639 100.192C107.814 98.1945 111.121 98.3877 112.3 96.3964C113.478 94.4052 111.747 91.9511 111.923 89.6569C112.042 88.6173 112.546 87.6599 113.335 86.9733C114.125 86.2868 115.143 85.9208 116.189 85.9475C117.681 86.0407 119.132 86.9464 120.584 86.6135C121.966 86.2805 122.805 84.9286 123.734 83.853C124.663 82.7775 126.228 81.8552 127.44 82.5944C128.539 83.2603 128.543 84.9585 127.857 86.054C127.171 87.1496 126.015 87.8422 125.01 88.658C124.004 89.4738 123.065 90.5859 123.108 91.8779C123.148 93.06 123.991 94.0356 124.677 95.0012C125.363 95.9669 125.939 97.2355 125.413 98.2944C124.827 99.4732 123.208 99.7296 122.382 100.755C122.101 101.145 121.916 101.596 121.842 102.071C121.768 102.546 121.807 103.032 121.956 103.489C122.264 104.401 122.756 105.239 123.401 105.953C124.181 106.895 125.043 107.771 125.732 108.783C126.422 109.796 126.918 110.984 126.854 112.203C126.781 113.661 125.606 115.383 123.961 115.157C122.609 114.97 122.679 113.938 122.442 112.826C121.713 109.516 118.563 107.218 115.386 106.469Z" fill="#BBBBBB"/>
<path d="M115.386 26.0465C114.001 26.3795 112.566 26.4161 111.164 26.6659C109.762 26.9156 108.337 27.3951 107.345 28.414C106.353 29.4329 105.916 31.0945 106.639 32.3232C107.814 34.3211 111.121 34.128 112.3 36.1192C113.478 38.1104 111.747 40.5645 111.923 42.8587C112.042 43.8983 112.546 44.8557 113.335 45.5423C114.125 46.2289 115.143 46.5949 116.189 46.5681C117.681 46.4749 119.132 45.5692 120.584 45.9022C121.966 46.2352 122.805 47.5871 123.734 48.6626C124.663 49.7381 126.228 50.6605 127.44 49.9212C128.539 49.2553 128.543 47.5571 127.857 46.4616C127.171 45.3661 126.015 44.6735 125.01 43.8577C124.004 43.0419 123.065 41.9297 123.108 40.6377C123.148 39.4557 123.991 38.48 124.677 37.5144C125.363 36.5487 125.939 35.2801 125.413 34.2212C124.827 33.0425 123.208 32.7861 122.382 31.7605C122.101 31.3704 121.916 30.9196 121.842 30.4446C121.768 29.9696 121.807 29.4838 121.956 29.0267C122.264 28.1149 122.756 27.2762 123.401 26.5627C124.181 25.6203 125.043 24.7446 125.732 23.7323C126.422 22.7201 126.918 21.5313 126.854 20.3126C126.781 18.8541 125.606 17.1326 123.961 17.3591C122.609 17.5455 122.679 18.5778 122.442 19.6899C121.713 22.9998 118.563 25.2973 115.386 26.0465Z" fill="#BBBBBB"/>
<path d="M12.7002 101.365C14.0321 101.135 15.4573 101.155 16.6593 100.529C17.8614 99.9027 18.7039 98.2745 17.9147 97.1723C17.3087 96.3232 16.0533 96.2233 15.0577 96.5363C14.0621 96.8493 13.193 97.4753 12.214 97.8383C11.235 98.2012 10.003 98.2245 9.28042 97.472C8.63776 96.806 8.61445 95.7638 8.18157 94.9446C7.85731 94.3207 7.3087 93.8429 6.64621 93.6072C5.98373 93.3716 5.25657 93.3957 4.61115 93.6747C3.96574 93.9538 3.45001 94.4669 3.16781 95.111C2.88561 95.755 2.85789 96.482 3.09025 97.1457C3.47984 98.2711 4.57868 99.1435 4.59866 100.336C4.61864 101.444 3.69295 102.304 3.08358 103.229C2.41762 104.261 1.5785 106.805 2.46091 107.958C3.49649 109.309 4.60865 107.958 5.17472 107.015C6.8796 104.172 9.31705 101.944 12.7002 101.365Z" fill="#232323"/>
<path d="M48.4611 129.396C49.7931 129.166 51.2182 129.186 52.4203 128.56C53.6224 127.934 54.4648 126.306 53.6757 125.204C53.0696 124.354 51.8143 124.255 50.8187 124.568C49.823 124.881 48.9539 125.507 47.975 125.87C46.996 126.232 45.764 126.256 45.0414 125.503C44.3987 124.837 44.3754 123.795 43.9425 122.976C43.6183 122.352 43.0697 121.874 42.4072 121.638C41.7447 121.403 41.0175 121.427 40.3721 121.706C39.7267 121.985 39.211 122.498 38.9288 123.142C38.6466 123.786 38.6189 124.513 38.8512 125.177C39.2408 126.302 40.3397 127.175 40.3596 128.367C40.3796 129.476 39.4539 130.335 38.8446 131.26C38.1786 132.293 37.3395 134.837 38.2219 135.989C39.2575 137.341 40.3696 135.989 40.9357 135.046C42.6406 132.203 45.078 129.975 48.4611 129.396Z" fill="#232323"/>
<path d="M12.7002 31.1511C14.0321 31.3809 15.4573 31.3609 16.6593 31.9869C17.8614 32.6129 18.7039 34.2412 17.9147 35.3433C17.3087 36.1924 16.0533 36.2923 15.0577 35.9793C14.0621 35.6663 13.193 35.0403 12.214 34.6774C11.235 34.3144 10.003 34.2911 9.28042 35.0437C8.63776 35.7096 8.61445 36.7518 8.18157 37.571C7.85731 38.1949 7.3087 38.6728 6.64621 38.9084C5.98373 39.144 5.25657 39.1199 4.61115 38.8409C3.96574 38.5619 3.45001 38.0487 3.16781 37.4047C2.88561 36.7606 2.85789 36.0336 3.09025 35.37C3.47984 34.2445 4.57868 33.3721 4.59866 32.18C4.61864 31.0712 3.69295 30.2121 3.08358 29.2864C2.41762 28.2542 1.5785 25.7102 2.46091 24.5581C3.49649 23.2062 4.60865 24.5581 5.17472 25.5004C6.8796 28.3441 9.31705 30.5717 12.7002 31.1511Z" fill="#232323"/>
<path d="M120.714 101.365C119.382 101.135 117.957 101.155 116.755 100.529C115.553 99.9027 114.71 98.2745 115.499 97.1723C116.105 96.3232 117.361 96.2233 118.356 96.5363C119.352 96.8493 120.221 97.4753 121.2 97.8383C122.179 98.2012 123.411 98.2245 124.134 97.472C124.776 96.806 124.8 95.7638 125.233 94.9446C125.557 94.3207 126.105 93.8429 126.768 93.6072C127.43 93.3716 128.158 93.3957 128.803 93.6747C129.448 93.9538 129.964 94.4669 130.246 95.111C130.528 95.755 130.556 96.482 130.324 97.1457C129.934 98.2711 128.835 99.1435 128.815 100.336C128.795 101.444 129.721 102.304 130.331 103.229C130.996 104.261 131.836 106.805 130.953 107.958C129.918 109.309 128.805 107.958 128.239 107.015C126.534 104.172 124.097 101.944 120.714 101.365Z" fill="#232323"/>
<path d="M12.3165 86.8782C10.9846 86.6484 9.55942 86.6684 8.35735 86.0424C7.15527 85.4164 6.31282 83.7881 7.10199 82.686C7.70803 81.8369 8.96338 81.737 9.959 82.05C10.9546 82.363 11.8237 82.989 12.8027 83.3519C13.7817 83.7149 15.0137 83.7382 15.7363 82.9856C16.3789 82.3197 16.4022 81.2775 16.8351 80.4583C17.1594 79.8344 17.708 79.3565 18.3705 79.1209C19.033 78.8853 19.7601 78.9094 20.4055 79.1884C21.051 79.4674 21.5667 79.9806 21.8489 80.6246C22.1311 81.2687 22.1588 81.9957 21.9264 82.6593C21.5369 83.7848 20.438 84.6572 20.418 85.8493C20.3981 86.9581 21.3237 87.8172 21.9331 88.7429C22.5991 89.7751 23.4382 92.3191 22.5558 93.4712C21.5202 94.8231 20.408 93.4712 19.842 92.5289C18.1371 89.6852 15.6996 87.4576 12.3165 86.8782Z" fill="#232323"/>
<path d="M120.714 31.1511C119.382 31.3809 117.957 31.3609 116.755 31.9869C115.553 32.6129 114.71 34.2412 115.499 35.3433C116.105 36.1924 117.361 36.2923 118.356 35.9793C119.352 35.6663 120.221 35.0403 121.2 34.6774C122.179 34.3144 123.411 34.2911 124.134 35.0437C124.776 35.7096 124.8 36.7518 125.233 37.571C125.557 38.1949 126.105 38.6728 126.768 38.9084C127.43 39.144 128.158 39.1199 128.803 38.8409C129.448 38.5619 129.964 38.0487 130.246 37.4047C130.528 36.7606 130.556 36.0336 130.324 35.37C129.934 34.2445 128.835 33.3721 128.815 32.18C128.795 31.0712 129.721 30.2121 130.331 29.2864C130.996 28.2542 131.836 25.7102 130.953 24.5581C129.918 23.2062 128.805 24.5581 128.239 25.5004C126.534 28.3441 124.097 30.5717 120.714 31.1511Z" fill="#232323"/>
<path d="M34.8471 101.474C35.623 101.864 36.4388 102.24 37.3079 102.247C38.1769 102.254 39.106 101.791 39.3724 100.965C39.672 100.043 39.0693 99.0737 38.3967 98.3711C37.7241 97.6685 36.9183 97.0059 36.6719 96.0669C36.3955 95.0047 36.9116 93.9225 37.2546 92.8803C37.5975 91.838 37.6908 90.5061 36.8317 89.8235C35.6429 88.8812 33.7616 89.9933 32.413 89.3007C31.0644 88.6081 31.141 86.6369 30.8546 85.1218C30.6172 83.9592 30.0521 82.8887 29.2261 82.0367C28.4001 81.1848 27.3476 80.5869 26.1928 80.3136C24.5812 79.9539 22.5467 80.5267 22.0605 82.105C21.7275 83.2338 22.2936 84.4725 23.1527 85.2783C24.0118 86.0841 25.1173 86.5669 26.1496 87.123C27.4282 87.8056 28.6669 88.6481 29.5094 89.8268C30.3518 91.0056 30.7481 92.5839 30.2419 93.9458C29.4727 96.0236 25.8599 95.7772 28.5404 97.6852C30.5425 99.1079 32.6509 100.375 34.8471 101.474Z" fill="#BBBBBB"/>
<path d="M34.8471 31.0421C35.623 30.6525 36.4388 30.2763 37.3079 30.2696C38.1769 30.2629 39.106 30.7258 39.3724 31.5516C39.672 32.4739 39.0693 33.4429 38.3967 34.1455C37.7241 34.8481 36.9183 35.5107 36.6719 36.4497C36.3955 37.5119 36.9116 38.5941 37.2546 39.6363C37.5975 40.6786 37.6908 42.0105 36.8317 42.6931C35.6429 43.6354 33.7616 42.5233 32.413 43.2159C31.0644 43.9085 31.141 45.8797 30.8546 47.3948C30.6172 48.5574 30.0521 49.6279 29.2261 50.4799C28.4001 51.3318 27.3476 51.9297 26.1928 52.203C24.5812 52.5627 22.5467 51.9899 22.0605 50.4116C21.7275 49.2828 22.2936 48.0441 23.1527 47.2383C24.0118 46.4325 25.1173 45.9497 26.1496 45.3936C27.4282 44.711 28.6669 43.8685 29.5094 42.6898C30.3518 41.511 30.7481 39.9327 30.2419 38.5708C29.4727 36.493 25.8599 36.7394 28.5404 34.8314C30.5425 33.4087 32.6509 32.1419 34.8471 31.0421Z" fill="#BBBBBB"/>
<path d="M103.86 95.5018C103.084 95.8914 102.268 96.2677 101.399 96.2743C100.53 96.281 99.6011 95.8182 99.3347 94.9924C99.035 94.07 99.6377 93.101 100.31 92.3984C100.983 91.6959 101.789 91.0332 102.035 90.0942C102.312 89.032 101.795 87.9498 101.452 86.9076C101.11 85.8654 101.016 84.5334 101.875 83.8508C103.064 82.9085 104.945 84.0207 106.294 83.3281C107.643 82.6355 107.566 80.6642 107.852 79.1491C108.09 77.9865 108.655 76.916 109.481 76.0641C110.307 75.2121 111.359 74.6142 112.514 74.3409C114.126 73.9813 116.16 74.554 116.647 76.1323C116.98 77.2611 116.413 78.4998 115.554 79.3056C114.695 80.1115 113.59 80.5943 112.557 81.1504C111.279 81.833 110.04 82.6754 109.198 83.8542C108.355 85.0329 107.959 86.6112 108.465 87.9731C109.234 90.0509 112.847 89.8045 110.167 91.7125C108.165 93.1352 106.056 94.402 103.86 95.5018Z" fill="#BBBBBB"/>
<path d="M98.5676 31.0421C97.7918 30.6525 96.976 30.2763 96.1069 30.2696C95.2378 30.2629 94.3088 30.7258 94.0424 31.5516C93.7427 32.4739 94.3454 33.4429 95.018 34.1455C95.6907 34.8481 96.4965 35.5107 96.7429 36.4497C97.0193 37.5119 96.5031 38.5941 96.1602 39.6363C95.8172 40.6786 95.724 42.0105 96.5831 42.6931C97.7718 43.6354 99.6532 42.5233 101.002 43.2159C102.35 43.9085 102.274 45.8797 102.56 47.3948C102.798 48.5574 103.363 49.6279 104.189 50.4799C105.015 51.3318 106.067 51.9297 107.222 52.203C108.834 52.5627 110.868 51.9899 111.354 50.4116C111.687 49.2828 111.121 48.0441 110.262 47.2383C109.403 46.4325 108.297 45.9497 107.265 45.3936C105.987 44.711 104.748 43.8685 103.905 42.6898C103.063 41.511 102.667 39.9327 103.173 38.5708C103.942 36.493 107.555 36.7394 104.874 34.8314C102.872 33.4087 100.764 32.1419 98.5676 31.0421Z" fill="#BBBBBB"/>
<path d="M93.0598 124.95C92.284 124.561 91.4682 124.184 90.5991 124.178C89.73 124.171 88.801 124.634 88.5346 125.46C88.2349 126.382 88.8376 127.351 89.5102 128.054C90.1828 128.756 90.9887 129.419 91.2351 130.358C91.5115 131.42 90.9953 132.502 90.6524 133.545C90.3094 134.587 90.2161 135.919 91.0752 136.601C92.264 137.544 94.1454 136.431 95.4939 137.124C96.8425 137.817 96.7659 139.788 97.0523 141.303C97.2898 142.466 97.8548 143.536 98.6808 144.388C99.5068 145.24 100.559 145.838 101.714 146.111C103.326 146.471 105.36 145.898 105.846 144.32C106.179 143.191 105.613 141.952 104.754 141.147C103.895 140.341 102.79 139.858 101.757 139.302C100.479 138.619 99.24 137.777 98.3976 136.598C97.5551 135.419 97.1589 133.841 97.665 132.479C98.4342 130.401 102.047 130.648 99.3665 128.74C97.3644 127.317 95.256 126.05 93.0598 124.95Z" fill="#BBBBBB"/>
<path d="M43.2425 93.3575C43.3058 94.2498 44.4313 94.3131 45.1272 94.5096C46.7388 94.9691 50.4982 98.0591 51.8169 95.8948C52.1498 95.3653 52.0932 94.6827 52.3629 94.1233C52.989 92.8147 54.807 92.828 56.2589 92.7914C57.7107 92.7548 59.2291 92.4284 60.3646 91.5094C61.1295 90.8892 61.6325 90.0034 61.7731 89.0287C61.786 88.933 61.8189 88.8411 61.8696 88.759C61.994 88.5399 62.1512 88.3411 62.3358 88.1696C63.2515 87.3671 64.3637 86.8377 65.3327 86.1018C66.3017 85.3659 67.2074 84.3936 67.3639 83.1849C67.5204 81.9762 66.6413 80.5976 65.4226 80.6043C64.6434 80.6043 63.9774 81.1304 63.3314 81.5666C62.6855 82.0028 61.873 82.3891 61.1504 82.0927C60.288 81.7398 60.0282 80.6276 59.3023 80.0449C58.2301 79.1858 56.5885 79.7985 55.6095 80.7608C55.101 81.2185 54.7414 81.8181 54.5773 82.4823C54.5012 82.8147 54.5218 83.162 54.6369 83.483C54.752 83.804 54.9566 84.0854 55.2266 84.2937C56.1889 84.9397 57.7406 84.2937 58.5032 85.1828C58.5702 85.2637 58.6186 85.3584 58.6449 85.4602C58.6713 85.5619 58.6748 85.6682 58.6555 85.7715C58.6361 85.8748 58.5942 85.9726 58.5328 86.0579C58.4713 86.1431 58.3919 86.2138 58.3001 86.265C58.2049 86.3166 58.1146 86.3768 58.0303 86.4448C57.3644 86.9775 57.1113 87.8566 56.6418 88.5625C55.6895 89.991 53.938 90.6204 52.313 91.1631C50.5615 91.7425 48.7434 92.3319 46.912 92.1188C45.9796 92.0255 43.116 91.5294 43.2425 93.3575Z" fill="#232323"/>
<path d="M48.6436 19.4961C48.7068 18.6037 49.8323 18.5404 50.5283 18.344C52.1399 17.8844 55.8993 14.7944 57.2179 16.9587C57.5509 17.4882 57.4943 18.1708 57.764 18.7302C58.39 20.0388 60.2081 20.0255 61.6599 20.0621C63.1117 20.0988 64.6301 20.4251 65.7656 21.3441C66.5306 21.9643 67.0336 22.8501 67.1741 23.8248C67.1871 23.9205 67.22 24.0124 67.2707 24.0945C67.3951 24.3136 67.5523 24.5124 67.7369 24.6839C68.6526 25.4864 69.7648 26.0158 70.7337 26.7517C71.7027 27.4876 72.6084 28.4599 72.7649 29.6686C72.9214 30.8773 72.0424 32.2559 70.8236 32.2492C70.0445 32.2492 69.3785 31.7231 68.7325 31.2869C68.0865 30.8507 67.274 30.4644 66.5515 30.7608C65.689 31.1138 65.4293 32.2259 64.7034 32.8086C63.6312 33.6677 61.9896 33.055 61.0106 32.0927C60.5021 31.6351 60.1425 31.0354 59.9784 30.3712C59.9022 30.0388 59.9229 29.6915 60.038 29.3705C60.1531 29.0495 60.3577 28.7681 60.6277 28.5598C61.59 27.9138 63.1417 28.5598 63.9042 27.6707C63.9713 27.5898 64.0197 27.4951 64.046 27.3933C64.0723 27.2916 64.0759 27.1853 64.0565 27.082C64.0371 26.9787 63.9952 26.8809 63.9338 26.7957C63.8724 26.7104 63.7929 26.6397 63.7011 26.5886C63.6059 26.5369 63.5157 26.4767 63.4314 26.4087C62.7654 25.876 62.5124 24.9969 62.0429 24.291C61.0905 22.8625 59.339 22.2332 57.7141 21.6904C55.9626 21.111 54.1445 20.5216 52.3131 20.7348C51.3807 20.828 48.517 21.3241 48.6436 19.4961Z" fill="#232323"/>
<path d="M99.4769 106.22C99.4137 107.112 98.2882 107.175 97.5922 107.372C95.9806 107.831 92.2212 110.921 90.9026 108.757C90.5696 108.228 90.6262 107.545 90.3565 106.986C89.7305 105.677 87.9124 105.69 86.4606 105.654C85.0088 105.617 83.4904 105.291 82.3549 104.372C81.5899 103.752 81.087 102.866 80.9464 101.891C80.9334 101.795 80.9005 101.703 80.8498 101.621C80.7254 101.402 80.5682 101.203 80.3836 101.032C79.4679 100.229 78.3558 99.7 77.3868 98.9641C76.4178 98.2282 75.5121 97.2559 75.3556 96.0472C75.1991 94.8385 76.0781 93.4599 77.2969 93.4666C78.0761 93.4666 78.742 93.9927 79.388 94.4289C80.034 94.8651 80.8465 95.2514 81.5691 94.955C82.4315 94.6021 82.6912 93.4899 83.4171 92.9072C84.4893 92.0481 86.1309 92.6608 87.1099 93.6231C87.6185 94.0808 87.978 94.6804 88.1422 95.3446C88.2183 95.677 88.1976 96.0243 88.0825 96.3453C87.9675 96.6663 87.7628 96.9477 87.4928 97.156C86.5305 97.802 84.9788 97.156 84.2163 98.0451C84.1492 98.126 84.1008 98.2207 84.0745 98.3225C84.0482 98.4242 84.0446 98.5305 84.064 98.6338C84.0834 98.7371 84.1253 98.8349 84.1867 98.9202C84.2481 99.0054 84.3276 99.0761 84.4194 99.1273C84.5146 99.1789 84.6048 99.2391 84.6891 99.3071C85.3551 99.8398 85.6082 100.719 86.0777 101.425C87.03 102.853 88.7815 103.483 90.4065 104.025C92.158 104.605 93.976 105.194 95.8075 104.981C96.7398 104.888 99.6035 104.392 99.4769 106.22Z" fill="#232323"/>
<path d="M97.0746 138.575C97.0114 139.468 95.8859 139.531 95.19 139.727C93.5783 140.187 89.8189 143.277 88.5003 141.113C88.1673 140.583 88.2239 139.9 87.9542 139.341C87.3282 138.032 85.5101 138.046 84.0583 138.009C82.6065 137.973 81.0881 137.646 79.9526 136.727C79.1876 136.107 78.6847 135.221 78.5441 134.246C78.5311 134.151 78.4982 134.059 78.4475 133.977C78.3231 133.758 78.1659 133.559 77.9813 133.387C77.0656 132.585 75.9535 132.055 74.9845 131.32C74.0155 130.584 73.1098 129.611 72.9533 128.403C72.7968 127.194 73.6759 125.815 74.8946 125.822C75.6738 125.822 76.3397 126.348 76.9857 126.784C77.6317 127.221 78.4442 127.607 79.1668 127.31C80.0292 126.958 80.2889 125.845 81.0148 125.263C82.087 124.404 83.7286 125.016 84.7076 125.979C85.2162 126.436 85.5757 127.036 85.7399 127.7C85.816 128.032 85.7953 128.38 85.6802 128.701C85.5652 129.022 85.3605 129.303 85.0906 129.511C84.1282 130.157 82.5765 129.511 81.814 130.401C81.7469 130.481 81.6985 130.576 81.6722 130.678C81.6459 130.78 81.6423 130.886 81.6617 130.989C81.6811 131.093 81.723 131.19 81.7844 131.276C81.8458 131.361 81.9253 131.432 82.0171 131.483C82.1123 131.534 82.2026 131.595 82.2868 131.663C82.9528 132.195 83.2059 133.074 83.6754 133.78C84.6277 135.209 86.3792 135.838 88.0042 136.381C89.7557 136.96 91.5738 137.55 93.4052 137.337C94.3375 137.243 97.2012 136.747 97.0746 138.575Z" fill="#232323"/>
<path d="M99.4769 26.2968C99.4137 25.4045 98.2882 25.3412 97.5922 25.1447C95.9806 24.6852 92.2212 21.5952 90.9026 23.7595C90.5696 24.289 90.6262 24.9716 90.3565 25.531C89.7305 26.8396 87.9124 26.8263 86.4606 26.8629C85.0088 26.8995 83.4904 27.2259 82.3549 28.1449C81.5899 28.7651 81.087 29.6509 80.9464 30.6256C80.9334 30.7213 80.9005 30.8132 80.8498 30.8953C80.7254 31.1144 80.5682 31.3132 80.3836 31.4847C79.4679 32.2872 78.3558 32.8166 77.3868 33.5525C76.4178 34.2884 75.5121 35.2607 75.3556 36.4694C75.1991 37.6781 76.0781 39.0567 77.2969 39.05C78.0761 39.05 78.742 38.5239 79.388 38.0877C80.034 37.6515 80.8465 37.2652 81.5691 37.5616C82.4315 37.9145 82.6912 39.0267 83.4171 39.6094C84.4893 40.4685 86.1309 39.8558 87.1099 38.8935C87.6185 38.4358 87.978 37.8362 88.1422 37.172C88.2183 36.8396 88.1976 36.4923 88.0825 36.1713C87.9675 35.8503 87.7628 35.5689 87.4928 35.3606C86.5305 34.7146 84.9788 35.3606 84.2163 34.4715C84.1492 34.3906 84.1008 34.2959 84.0745 34.1941C84.0482 34.0924 84.0446 33.9861 84.064 33.8828C84.0834 33.7795 84.1253 33.6817 84.1867 33.5964C84.2481 33.5112 84.3276 33.4405 84.4194 33.3893C84.5146 33.3377 84.6048 33.2775 84.6891 33.2095C85.3551 32.6768 85.6082 31.7977 86.0777 31.0918C87.03 29.6633 88.7815 29.0339 90.4065 28.4912C92.158 27.9118 93.976 27.3224 95.8075 27.5355C96.7398 27.6288 99.6035 28.1249 99.4769 26.2968Z" fill="#232323"/>
<path d="M0.0461693 83.7227C0.552559 83.5571 1.01013 83.2688 1.37811 82.8835C3.04303 81.2186 2.28715 78.0886 3.96206 76.4404C4.72126 75.6945 5.81678 75.4414 6.78244 74.9819C7.74809 74.5224 8.71375 73.6999 8.6638 72.6344C8.60719 71.4656 7.40179 70.7364 6.33291 70.2736C4.31832 69.4082 2.22983 68.7261 0.0927881 68.2357L0.0561594 68.2357L0.0461693 83.7227Z" fill="#232323"/>
<path d="M0.0461693 48.793C0.552559 48.9585 1.01013 49.2468 1.37811 49.6321C3.04303 51.297 2.28715 54.427 3.96206 56.0753C4.72126 56.8211 5.81678 57.0742 6.78244 57.5337C7.74809 57.9932 8.71375 58.8157 8.6638 59.8812C8.60719 61.05 7.40179 61.7792 6.33291 62.2421C4.31832 63.1074 2.22983 63.7895 0.0927881 64.2799L0.0561594 64.2799L0.0461693 48.793Z" fill="#232323"/>
<path d="M133.368 83.7227C132.862 83.5571 132.404 83.2688 132.036 82.8835C130.371 81.2186 131.127 78.0886 129.452 76.4404C128.693 75.6945 127.597 75.4414 126.632 74.9819C125.666 74.5224 124.7 73.6999 124.75 72.6344C124.807 71.4656 126.012 70.7364 127.081 70.2736C129.096 69.4082 131.184 68.7261 133.321 68.2357L133.358 68.2357L133.368 83.7227Z" fill="#232323"/>
<path d="M133.368 48.793C132.862 48.9585 132.404 49.2468 132.036 49.6321C130.371 51.297 131.127 54.427 129.452 56.0753C128.693 56.8211 127.597 57.0742 126.632 57.5337C125.666 57.9932 124.7 58.8157 124.75 59.8812C124.807 61.05 126.012 61.7792 127.081 62.2421C129.096 63.1074 131.184 63.7895 133.321 64.2799L133.358 64.2799L133.368 48.793Z" fill="#BBBBBB"/>
<path d="M23.928 128.435C25.2 128.831 26.7084 129.271 27.7573 128.435C28.8961 127.54 28.6131 125.578 27.5076 124.643C26.402 123.707 24.817 123.577 23.3752 123.74C22.5494 123.833 21.6903 124.007 20.9012 123.74C19.729 123.344 19.0831 122.125 18.4837 121.043C17.8843 119.961 17.0385 118.799 15.8198 118.712C14.1815 118.576 12.9195 120.394 11.2746 120.427C10.1491 120.447 9.19676 119.631 8.11789 119.318C6.27982 118.789 4.17536 119.944 3.45612 121.722C2.73687 123.5 3.39285 125.668 4.83134 126.927C5.91353 127.873 7.61842 128.485 9.06357 128.215C10.2257 127.999 11.1081 127.217 12.3168 127.07C16.0962 126.564 20.3284 127.313 23.928 128.435Z" fill="#E85F0A"/>
<path d="M23.928 4.08038C25.2 3.68413 26.7084 3.2446 27.7573 4.08038C28.8961 4.9761 28.6131 6.93735 27.5076 7.87303C26.402 8.80871 24.817 8.93857 23.3752 8.77541C22.5494 8.68217 21.6903 8.50902 20.9012 8.77541C19.729 9.17166 19.0831 10.3904 18.4837 11.4726C17.8843 12.5547 17.0385 13.7168 15.8198 13.8034C14.1815 13.9399 12.9195 12.1219 11.2746 12.0886C10.1491 12.0686 9.19676 12.8844 8.11789 13.1974C6.27982 13.7268 4.17536 12.5714 3.45612 10.7933C2.73687 9.01516 3.39285 6.84745 4.83134 5.58879C5.91353 4.64312 7.61842 4.03044 9.06357 4.30015C10.2257 4.51659 11.1081 5.29909 12.3168 5.4456C16.0962 5.95173 20.3284 5.20253 23.928 4.08038Z" fill="#E85F0A"/>
<path d="M109.486 128.435C108.214 128.831 106.706 129.271 105.657 128.435C104.518 127.54 104.801 125.578 105.907 124.643C107.012 123.707 108.597 123.577 110.039 123.74C110.865 123.833 111.724 124.007 112.513 123.74C113.685 123.344 114.331 122.125 114.93 121.043C115.53 119.961 116.376 118.799 117.594 118.712C119.233 118.576 120.495 120.394 122.139 120.427C123.265 120.447 124.217 119.631 125.296 119.318C127.134 118.789 129.239 119.944 129.958 121.722C130.677 123.5 130.021 125.668 128.583 126.927C127.501 127.873 125.796 128.485 124.351 128.215C123.188 127.999 122.306 127.217 121.097 127.07C117.318 126.564 113.086 127.313 109.486 128.435Z" fill="#E85F0A"/>
<path d="M109.486 4.08038C108.214 3.68413 106.706 3.2446 105.657 4.08038C104.518 4.9761 104.801 6.93735 105.907 7.87303C107.012 8.80871 108.597 8.93857 110.039 8.77541C110.865 8.68217 111.724 8.50902 112.513 8.77541C113.685 9.17166 114.331 10.3904 114.93 11.4726C115.53 12.5547 116.376 13.7168 117.594 13.8034C119.233 13.9399 120.495 12.1219 122.139 12.0886C123.265 12.0686 124.217 12.8844 125.296 13.1974C127.134 13.7268 129.239 12.5714 129.958 10.7933C130.677 9.01516 130.021 6.84745 128.583 5.58879C127.501 4.64312 125.796 4.03044 124.351 4.30015C123.188 4.51659 122.306 5.29909 121.097 5.4456C117.318 5.95173 113.086 5.20253 109.486 4.08038Z" fill="#E85F0A"/>
</g>
</g>
</svg>
