<svg width="119" height="139" viewBox="0 0 119 139" fill="none" xmlns="http://www.w3.org/2000/svg">
<path d="M36.002 118.92C21.9825 115.814 13.1355 101.931 16.2415 87.9116C16.6425 86.1014 17.2227 84.3776 17.9595 82.7547C17.1499 78.6091 16.7257 74.3261 16.7257 69.9445C16.7257 66.7247 16.9548 63.558 17.3976 60.46C9.64977 66.1324 3.83878 74.5466 1.59659 84.667C-3.30137 106.775 10.6498 128.667 32.7574 133.565C41.3943 135.478 50.0009 134.511 57.568 131.312C50.6184 128.401 44.2676 124.345 38.7519 119.379C37.8379 119.276 36.9203 119.123 36.002 118.92Z" fill="#170404"/>
<path d="M5.72656 106.728L14.348 102.494L16.1727 106.21L7.55129 110.443L5.72656 106.728Z" fill="url(#paint0_linear)"/>
<path fill-rule="evenodd" clip-rule="evenodd" d="M0.373047 104.9L16.1754 97.1405L21.5264 108.037L5.72402 115.797L0.373047 104.9ZM5.72663 106.728L7.55136 110.444L16.1728 106.21L14.3481 102.494L5.72663 106.728Z" fill="url(#paint1_linear)"/>
<path d="M14.7266 119.937L22.0119 113.677L23.3079 115.186L16.0226 121.445L14.7266 119.937Z" fill="url(#paint2_linear)"/>
<path fill-rule="evenodd" clip-rule="evenodd" d="M9.08594 119.509L22.4393 108.036L28.9486 115.613L15.5953 127.085L9.08594 119.509ZM22.0119 113.677L14.7266 119.936L16.0227 121.445L23.308 115.185L22.0119 113.677Z" fill="url(#paint3_linear)"/>
<circle cx="82.7266" cy="69.4443" r="26" transform="rotate(-90 82.7266 69.4443)" fill="#051E1D"/>
<circle cx="82.667" cy="69.626" r="22.5615" transform="rotate(-90 82.667 69.626)" fill="#023C3D"/>
<path d="M95.0293 54.569C102.48 60.7127 104.565 70.4887 101.837 73.7968C99.1092 77.1048 95.798 68.8156 88.3475 62.6719C80.8971 56.5282 72.1289 54.8565 74.8567 51.5485C77.5846 48.2405 87.5788 48.4253 95.0293 54.569Z" fill="#03464C"/>
<path d="M72.1771 81.9022C64.9979 75.9149 62.3081 67.5745 63.6749 65.9356C65.0417 64.2967 68.3458 71.9005 75.525 77.8878C82.7042 83.875 91.0397 85.9784 89.6729 87.6173C88.3061 89.2562 79.3563 87.8894 72.1771 81.9022Z" fill="#366C6E"/>
<path d="M69.5186 85.8465C65.8062 82.7505 64.1692 78.5949 65.116 77.4597C66.0627 76.3245 68.1252 79.9698 71.8376 83.0659C75.55 86.1619 79.5065 87.5362 78.5597 88.6715C77.613 89.8067 73.231 88.9426 69.5186 85.8465Z" fill="#6E9B9E"/>
<path d="M48.2266 69.4443C48.2266 70.2721 48.2557 71.0934 48.3132 71.9071C49.5194 88.999 63.1719 102.651 80.2638 103.858C81.0775 103.915 81.8988 103.944 82.7266 103.944C83.5544 103.944 84.3756 103.915 85.1893 103.858C102.281 102.651 115.934 88.999 117.14 71.9071C117.197 71.0934 117.227 70.2721 117.227 69.4443C117.227 68.6165 117.197 67.7953 117.14 66.9816C115.934 49.8897 102.281 36.2372 85.1893 35.0309C84.3756 34.9735 83.5544 34.9443 82.7266 34.9443C81.8987 34.9443 81.0775 34.9735 80.2638 35.0309C63.1719 36.2372 49.5194 49.8897 48.3132 66.9816C48.2557 67.7953 48.2266 68.6165 48.2266 69.4443ZM78.8694 73.3015L78.8694 95.9546C67.1639 94.2669 57.904 85.007 56.2163 73.3015L78.8694 73.3015ZM78.8694 65.5872L56.2163 65.5872C57.904 53.8817 67.1639 44.6218 78.8694 42.9341L78.8694 65.5872ZM109.237 73.3015C107.549 85.007 98.2892 94.2669 86.5837 95.9546L86.5837 73.3015L109.237 73.3015ZM86.5837 42.9341C98.2892 44.6218 107.549 53.8817 109.237 65.5872L86.5837 65.5872L86.5837 42.9341Z" fill="url(#paint4_linear)" stroke="url(#paint5_linear)" stroke-width="3"/>
<path d="M68.7266 129.444L98.7266 129.444L98.7266 134.444L68.7266 134.444L68.7266 129.444Z" fill="url(#paint6_linear)"/>
<path fill-rule="evenodd" clip-rule="evenodd" d="M64.7266 125.444L102.727 125.444L102.727 138.444L64.7266 138.444L64.7266 125.444ZM68.7266 129.444L68.7266 134.444L98.7266 134.444L98.7266 129.444L68.7266 129.444Z" fill="url(#paint7_linear)"/>
<path d="M68.7266 4.62109L98.7266 4.62109L98.7266 10.6211L68.7266 10.6211L68.7266 4.62109Z" fill="url(#paint8_linear)"/>
<path fill-rule="evenodd" clip-rule="evenodd" d="M64.7266 0.621094L102.727 0.621094L102.727 14.6211L64.7266 14.6211L64.7266 0.621094ZM68.7266 4.62109L68.7266 10.6211L98.7266 10.6211L98.7266 4.62109L68.7266 4.62109Z" fill="url(#paint9_linear)"/>
<defs>
<linearGradient id="paint0_linear" x1="13.2467" y1="103.364" x2="14.0273" y2="108.423" gradientUnits="userSpaceOnUse">
<stop stop-color="#FAA70E"/>
<stop offset="0.447917" stop-color="#FFD17B"/>
<stop offset="1" stop-color="#FCB93D"/>
</linearGradient>
<linearGradient id="paint1_linear" x1="7.0043" y1="106.8" x2="11.524" y2="110.386" gradientUnits="userSpaceOnUse">
<stop stop-color="#AE7100"/>
<stop offset="0.536458" stop-color="#E09100"/>
<stop offset="1" stop-color="#AE7100"/>
</linearGradient>
<linearGradient id="paint2_linear" x1="21.0637" y1="114.679" x2="22.4183" y2="116.838" gradientUnits="userSpaceOnUse">
<stop stop-color="#FAA70E"/>
<stop offset="0.447917" stop-color="#FFD17B"/>
<stop offset="1" stop-color="#FCB93D"/>
</linearGradient>
<linearGradient id="paint3_linear" x1="15.769" y1="119.439" x2="18.1748" y2="121.217" gradientUnits="userSpaceOnUse">
<stop stop-color="#AE7100"/>
<stop offset="0.536458" stop-color="#E09100"/>
<stop offset="1" stop-color="#AE7100"/>
</linearGradient>
<linearGradient id="paint4_linear" x1="54.4408" y1="45.8729" x2="110.423" y2="86.5336" gradientUnits="userSpaceOnUse">
<stop stop-color="#FAA70E"/>
<stop offset="0.447917" stop-color="#FFD17B"/>
<stop offset="1" stop-color="#FCB93D"/>
</linearGradient>
<linearGradient id="paint5_linear" x1="59.7444" y1="94.7836" x2="105.709" y2="44.105" gradientUnits="userSpaceOnUse">
<stop stop-color="#AE7100"/>
<stop offset="0.536458" stop-color="#E09100"/>
<stop offset="1" stop-color="#AE7100"/>
</linearGradient>
<linearGradient id="paint6_linear" x1="94.4408" y1="129.801" x2="93.668" y2="136.186" gradientUnits="userSpaceOnUse">
<stop stop-color="#FAA70E"/>
<stop offset="0.447917" stop-color="#FFD17B"/>
<stop offset="1" stop-color="#FCB93D"/>
</linearGradient>
<linearGradient id="paint7_linear" x1="72.2087" y1="130.203" x2="73.5801" y2="137.666" gradientUnits="userSpaceOnUse">
<stop stop-color="#AE7100"/>
<stop offset="0.536458" stop-color="#E09100"/>
<stop offset="1" stop-color="#AE7100"/>
</linearGradient>
<linearGradient id="paint8_linear" x1="94.4408" y1="5.04967" x2="93.3349" y2="12.6631" gradientUnits="userSpaceOnUse">
<stop stop-color="#FAA70E"/>
<stop offset="0.447917" stop-color="#FFD17B"/>
<stop offset="1" stop-color="#FCB93D"/>
</linearGradient>
<linearGradient id="paint9_linear" x1="72.2087" y1="5.53181" x2="74.1556" y2="14.3607" gradientUnits="userSpaceOnUse">
<stop stop-color="#AE7100"/>
<stop offset="0.536458" stop-color="#E09100"/>
<stop offset="1" stop-color="#AE7100"/>
</linearGradient>
</defs>
</svg>
