<svg width="77" height="77" viewBox="0 0 77 77" fill="none" xmlns="http://www.w3.org/2000/svg">
<path d="M63.8339 20.292C63.9346 19.3985 64.027 18.7342 63.8246 17.8363C63.1823 14.986 62.1733 12.3377 59.2368 11.9625C59.1549 11.9521 59.073 11.9423 58.9911 11.9334C57.7783 11.8005 56.7263 11.9196 55.5228 11.9425C52.8148 11.9938 50.612 13.4153 48.0142 13.8707C45.557 14.3014 43.2058 12.7865 41.0407 11.9425C38.941 11.1239 36.5759 10.7293 34.3531 11.2057C32.2549 11.6555 30.2165 12.3031 28.1267 12.761C26.447 13.1291 24.736 13.6222 22.9888 13.4068C21.9149 13.2745 20.9427 12.9046 19.8987 12.6337C18.8787 12.369 18.0131 11.6982 17.0115 11.4513C16.8772 11.4182 16.7338 11.3903 16.583 11.368C13.4112 10.8983 13.7202 14.5018 13.4921 17.6564C13.4887 17.7043 13.4842 17.7521 13.4786 17.8C13.3474 18.9274 13.0253 20.124 12.6853 21.2017C12.0252 23.2939 11.7032 25.3067 11.274 27.423C10.9108 29.2136 11.0086 30.9223 11.4308 32.6801C11.8997 34.6323 13.183 36.2615 13.5524 38.2647C14.2847 42.2365 11.8921 46.1226 11.191 49.9251C10.683 52.6799 11.2798 55.3514 11.9128 58.0118C12.64 61.0686 15.1575 63.5092 18.1407 62.4113C20.4329 61.5677 22.7016 60.5555 25.1289 61.3035C28.2837 62.2756 30.8007 64.7092 34.3623 63.8775C36.6722 63.338 38.9181 62.6491 41.2067 62.0402C43.5901 61.406 45.8006 61.9705 48.1342 62.4586C50.119 62.8737 52.0535 63.7392 53.9547 64.4141C54.9243 64.7583 56.002 64.7967 57.0171 64.9507C58.3123 65.1472 59.5032 64.7283 60.6504 64.1862C61.7628 63.6606 62.8402 62.8196 62.8929 61.6044C62.928 60.7928 62.7145 60.0138 62.4963 59.457C62.0666 58.3604 61.6249 57.2615 61.371 56.1099C60.8257 53.6365 60.6278 51.4319 61.5831 49.0246C62.3669 47.0495 63.5618 45.4545 64.5626 43.6219C65.5695 41.778 64.6058 39.7257 63.9907 37.9736C63.1859 35.6811 62.2561 33.4463 61.6293 31.0974C61.3363 29.9998 61.1431 28.9417 60.9651 27.8231C60.8157 26.8841 61.1122 26.2334 61.3341 25.3582C61.7925 23.5503 63.6213 22.1782 63.8339 20.292Z" fill="#F7EC60"/>
<path fill-rule="evenodd" clip-rule="evenodd" d="M45.135 3.63325C41.8409 2.34647 37.44 1.4098 32.7677 2.43938L32.7603 2.44101L32.729 2.44817C31.5346 2.72148 30.2935 3.00549 29.2325 3.29243C28.2544 3.55693 27.4544 3.73345 26.6153 3.91836L26.5214 3.93905L26.4301 3.96921C26.4046 3.97764 26.3957 3.9796 26.2867 4.0036L26.2468 4.0124C26.1926 4.02433 26.1061 4.04336 25.9995 4.07436C25.9169 4.0834 25.8434 4.09541 25.7813 4.10734C25.7071 4.12158 25.6401 4.13752 25.5854 4.15165H24.1039L23.7309 3.96678C23.6469 3.92582 23.5565 3.88572 23.4858 3.85469C23.4317 3.83099 23.3689 3.80379 23.3078 3.77737L23.2226 3.74048C23.0371 3.66003 22.8661 3.58414 22.7264 3.5149L22.6571 3.48051L22.5851 3.45195C22.5436 3.43549 22.4987 3.41748 22.4506 3.39816C22.0016 3.21789 21.2694 2.92396 20.3636 2.72203C20.1597 2.67192 19.9394 2.62339 19.746 2.58078L19.7336 2.57803C19.5179 2.5305 19.3334 2.48974 19.1754 2.45055L19.0973 2.43119L19.0178 2.41857C16.3195 1.99048 12.7697 2.29919 9.64775 4.73156L9.64132 4.73657L9.63493 4.74164C6.87321 6.93246 5.78968 9.75953 5.36263 11.3475C4.95579 12.8604 4.74036 14.501 4.74036 15.5213C4.74036 15.6415 4.7279 15.7844 4.70516 15.9873L4.69796 16.0509C4.68908 16.129 4.67847 16.2223 4.67038 16.3052C4.65994 16.4122 4.64715 16.5634 4.64715 16.723V16.8154C4.64715 16.9115 4.64709 16.9813 4.64598 17.0444C4.64489 17.1057 4.643 17.1445 4.64098 17.1705L4.63978 17.1844L4.62696 17.2225L4.60959 17.2914C4.57555 17.4265 4.54485 17.5729 4.51977 17.6931L4.50966 17.7416C4.48586 17.8558 4.4626 17.9675 4.43519 18.0898C4.37413 18.3623 4.29685 18.6667 4.18351 19.0039L4.17575 19.027L4.16861 19.0503C3.49928 21.231 3.02009 23.4045 2.72768 25.125C2.66121 25.3854 2.54517 25.8404 2.51212 26.2883C1.82709 29.6256 2.14967 32.7196 2.72821 35.4924L2.72954 35.4987C3.11823 37.3295 3.85254 38.9483 4.27427 39.8041V39.8064L4.3023 39.862C4.34764 39.9841 4.40245 40.0939 4.4613 40.1911C4.47114 40.2074 4.481 40.2231 4.49083 40.2384C4.56067 40.3955 4.60134 40.5989 4.58558 40.8351C4.49359 41.1394 4.41055 41.4823 4.33374 41.8517C4.25647 42.0848 4.20369 42.2548 4.15963 42.3967C4.08685 42.6312 4.03781 42.7892 3.94152 43.0279L3.89453 43.1444L3.86384 43.2661C3.84917 43.3243 3.82014 43.4097 3.73685 43.6221L3.70817 43.695C3.6368 43.8761 3.54094 44.1194 3.4459 44.3998C3.03356 45.5297 2.64026 47.0077 2.3486 48.5502C1.47447 53.1731 2.4515 57.4886 3.02059 60.0022L3.07264 60.2324C3.08225 60.336 3.10554 60.504 3.16975 60.695C3.20001 60.785 3.24364 60.8926 3.30634 61.0077C4.10018 64.0902 5.93784 67.4213 8.88648 69.7441C12.3327 72.5163 17.3055 73.7968 22.4541 71.8823L22.5457 71.8482L22.6322 71.8053C22.6322 71.8053 22.645 71.7993 22.6773 71.7858C22.7144 71.7703 22.7567 71.7535 22.8181 71.7291L22.8382 71.7212C22.8946 71.6989 22.9767 71.6664 23.067 71.6277C23.2469 71.5712 23.3909 71.4996 23.4912 71.4421C23.569 71.4128 23.637 71.3859 23.6936 71.3634L23.7371 71.3461C23.8743 71.4247 23.9939 71.4738 24.055 71.498C24.0834 71.5093 24.1114 71.5198 24.1248 71.5249L24.1282 71.5262L24.147 71.5334C24.4267 71.6718 24.7631 71.8281 25.0938 71.9817L25.1797 72.0217C25.554 72.1956 25.9301 72.3713 26.2791 72.5443L26.3238 72.5665L26.3695 72.5862C28.6845 73.5843 32.5782 74.8561 37.3357 73.7054C38.1628 73.5122 39.0521 73.2736 39.8988 73.0435L40.239 72.951C40.9754 72.7506 41.6692 72.5618 42.2937 72.407C42.9428 72.2461 43.4498 72.071 43.8632 71.9282L43.923 71.9076H44.2315C44.2459 71.91 44.2733 71.9149 44.3174 71.9243C44.3648 71.9344 44.4114 71.945 44.4746 71.9593C44.5 71.965 44.528 71.9714 44.5599 71.9786C44.6392 71.9965 44.7308 72.0168 44.8331 72.0379C44.9634 72.0747 45.0816 72.0992 45.1754 72.1164C45.2927 72.138 45.4075 72.1542 45.4824 72.1648L45.493 72.1663C45.5818 72.1789 45.6247 72.1852 45.659 72.1915L45.6629 72.1923L45.9203 72.2773H46.0998L46.1097 72.2795C46.2059 72.3007 46.3744 72.3373 46.5897 72.3567C47.1637 72.5053 47.6505 72.6669 48.5687 72.9979L48.5924 73.0065L48.6163 73.0144C48.757 73.0609 48.8969 73.1169 49.1043 73.1999C49.217 73.245 49.3496 73.2981 49.5129 73.3619C49.9068 73.5158 50.3894 73.6935 50.9553 73.8512C52.3445 74.3681 53.6897 74.5687 54.3489 74.6621L54.3651 74.6644L54.3813 74.6664C54.9585 74.7379 55.2074 74.7629 55.3965 74.7703L55.4375 74.7804L55.6488 74.8327L55.7409 74.8461C60.0906 75.4773 63.4727 74.0151 65.1002 73.2116C66.8079 72.4591 72.6462 69.2519 72.9747 62.1946L72.9752 62.1832C73.0802 59.5807 72.4631 57.3914 71.9203 56.0831C71.753 55.6188 71.6286 55.2787 71.5347 55.0221C71.3694 54.5703 71.2989 54.3777 71.2561 54.2231C71.0817 53.2716 71.0306 52.988 71.0209 52.8311C71.0426 52.7861 71.0637 52.742 71.0845 52.6984L71.0863 52.6945C71.2335 52.3862 71.3714 52.0974 71.6679 51.627L71.7148 51.5525L72.0107 50.9658C72.3696 50.3451 72.9012 49.4669 73.3458 48.7615L73.3812 48.7053L73.4125 48.6467C75.3624 44.9945 75.1311 41.4702 74.7154 39.304C74.4585 37.9472 73.9047 36.4605 73.6496 35.7755C73.6179 35.6903 73.5907 35.6175 73.5694 35.5589C73.509 35.3175 73.4148 35.1287 73.3434 35.0068C73.0117 34.1053 72.7528 33.4203 72.497 32.744C72.3116 32.1942 72.1469 31.7478 72.0003 31.3505C71.7253 30.6055 71.5139 30.0328 71.3506 29.2768L71.3439 29.2461L71.3363 29.2157C71.3011 29.0761 71.2651 28.9179 71.2277 28.744L71.2987 28.6736L71.2987 28.5111C71.9516 27.5163 73.2008 25.4352 73.6236 22.7062C73.7105 22.5277 73.7451 22.3857 73.7568 22.338L73.7579 22.3333C73.7939 22.1868 73.8046 22.0659 73.8087 22.0138C73.811 21.9837 73.8126 21.9539 73.8136 21.9266C73.9163 20.9932 74.1009 18.9626 73.59 16.5308L73.5851 16.5076L73.5796 16.4844C73.2042 14.9021 72.4958 12.04 70.8182 9.44076L70.8128 9.43244L70.8074 9.42418C68.8318 6.43407 65.5953 3.80961 60.945 3.10219L60.0192 2.94997C59.1958 2.94997 58.3086 2.97391 57.5499 2.99707L57.1203 3.01038C56.5431 3.02842 56.0954 3.04241 55.8244 3.04241H55.5126L55.4805 3.04351C52.5427 3.14396 50.1245 3.93225 48.7551 4.41486C48.6263 4.44791 48.496 4.48384 48.3669 4.52335L46.9113 4.42896C46.743 4.35822 46.5207 4.25689 46.2389 4.12714L46.1725 4.09657C45.8696 3.95703 45.5189 3.79552 45.1861 3.65407L45.1607 3.64329L45.135 3.63325ZM32.3576 14.6243C33.3758 14.3489 34.374 14.079 35.4592 13.8096C37.1308 13.4565 39.0633 13.7288 40.9696 14.4675C41.1365 14.5336 41.281 14.5888 41.4089 14.6376C41.7497 14.7677 41.9729 14.853 42.1874 14.9806L42.2852 15.0388L42.3894 15.0847L42.5892 15.173C44.1404 15.8595 46.4332 16.8742 48.8299 16.5177L48.8584 16.5134L48.8868 16.5083C50.0688 16.2952 51.2202 15.8799 52.2013 15.526L52.2433 15.5109C52.4358 15.4472 52.6205 15.3851 52.7986 15.3251C54.0393 14.9078 54.9632 14.597 56.0108 14.597H57.0362C57.3561 14.597 57.6963 14.5839 57.9819 14.573C58.1 14.5684 58.2088 14.5643 58.3029 14.5615C58.6654 14.5509 58.9616 14.5534 59.254 14.5857L59.3567 14.597H59.6062C60.374 14.721 60.8724 15.0966 61.2864 15.7298C61.7737 16.4751 62.1161 17.5523 62.3837 18.923L62.3885 18.948L62.3941 18.9728C62.4996 19.4434 62.4628 19.7714 62.3663 20.6321L62.3497 20.7803V20.8749C62.2905 21.309 62.0371 21.7594 61.3817 22.688L61.3538 22.7275L61.328 22.7684C61.2766 22.85 61.2092 22.9535 61.1336 23.0695C60.9618 23.3333 60.7477 23.662 60.5825 23.9465C60.3174 24.4031 60.0288 24.9815 59.8772 25.658L59.8524 25.7686L59.7657 25.9406L59.7181 26.1058C59.7056 26.1491 59.6919 26.1953 59.6774 26.2441C59.5076 26.8161 59.2268 27.7616 59.4959 28.9221C59.6817 30.0238 59.8759 31.0796 60.1681 32.2385L60.174 32.2618L60.1805 32.285C60.6636 34.0096 61.2407 35.6309 61.7941 37.186L61.8238 37.2693L61.8479 37.3251C61.9518 37.5655 62.0444 37.8374 62.1657 38.1983L62.1754 38.2271C62.2855 38.5548 62.423 38.9637 62.5937 39.3587L62.6152 39.4086L62.6294 39.4366V39.5017L62.7356 39.8004C63.0255 40.6147 63.263 41.3028 63.3604 41.9527C63.4515 42.5605 63.3922 42.9733 63.2304 43.2896C63.1662 43.4002 63.0932 43.5219 63.0148 43.6525C62.7521 44.0902 62.4291 44.6283 62.178 45.1831C62.0892 45.3327 61.9938 45.49 61.8942 45.6543C61.3485 46.5546 60.6741 47.6672 60.2287 48.8949C59.1135 51.7854 59.3799 54.3291 59.9704 56.9642L59.9757 56.9879L59.9817 57.0115C60.2687 58.1501 60.6433 59.1903 60.9924 60.1432C61.0218 60.2866 61.0724 60.4517 61.1599 60.6252C61.1845 60.6739 61.21 60.7193 61.2356 60.7612C61.3903 61.2336 61.4621 61.5162 61.4289 61.8127L61.4254 61.8439L61.423 61.8751C61.4167 61.9559 61.3835 62.0839 61.1934 62.2832C60.9877 62.4988 60.6581 62.7298 60.2109 62.9515C59.2404 63.4327 58.4445 63.6178 57.7858 63.5174L57.6449 63.4959H57.525C57.5138 63.4942 57.4757 63.4891 57.3893 63.4748L57.3654 63.4708C57.2596 63.4531 57.0488 63.4178 56.8069 63.4068C56.0571 63.3128 55.6069 63.2408 55.2537 63.0907L55.1824 63.0604L55.1089 63.0361C54.8566 62.9527 54.623 62.8686 54.3641 62.7752L54.3554 62.7721C54.1186 62.6867 53.8598 62.5934 53.5768 62.499C52.1288 61.9268 50.6764 61.4476 49.2201 61.0625L48.9841 61.0001H48.876C48.827 60.9881 48.7482 60.9694 48.6638 60.9537C48.6043 60.9427 48.5314 60.9309 48.4478 60.922L48.2669 60.8827C46.2889 60.4526 43.9835 59.9514 41.3784 60.6874C40.9196 60.791 40.4932 60.9154 40.1257 61.0225L40.1036 61.029C39.6992 61.1469 39.3619 61.2446 39.0134 61.3214L38.9752 61.3298L38.9375 61.3398C38.2727 61.5156 37.6573 61.6909 37.0512 61.8636C36.2494 62.092 35.4637 62.3159 34.6019 62.5299C32.9159 62.9104 31.6374 62.33 29.6086 61.3722L29.5595 61.3478C28.6734 60.9083 27.6201 60.386 26.5336 60.0623C23.7884 59.2353 21.2153 60.1658 19.2978 60.8592L19.0107 60.9628L18.9356 61.0001H18.8512L18.5347 61.1178C17.7118 61.4238 17.041 61.2666 16.433 60.7882C15.7571 60.2565 15.1477 59.2908 14.849 58.0698C14.1978 55.3947 13.7387 53.1529 14.1233 50.8071C14.3841 49.6099 14.7333 48.3964 15.1784 47.0722L15.1938 47.0265C16.0004 44.6271 17.019 41.5974 16.4553 38.574C16.2203 37.2951 15.6575 36.0911 15.1896 35.161C14.8297 34.3577 14.5201 33.6584 14.2857 32.9036C13.9679 31.3717 13.8991 29.9702 14.127 28.5094C14.2198 28.0494 14.3015 27.6488 14.3795 27.3394L14.3975 27.2678L14.4098 27.195C14.6744 25.6208 15.0267 24.1317 15.4689 22.6367C15.864 21.4561 16.1842 20.2054 16.2931 18.9101L16.2995 18.8335V18.5717C16.2995 18.5063 16.3086 18.4101 16.3359 18.1529L16.3361 18.1512C16.358 17.9447 16.3905 17.6387 16.3926 17.3118C16.416 16.6167 16.4381 16.0083 16.4939 15.4623C16.5513 14.9012 16.6346 14.521 16.7313 14.2754C16.766 14.1871 16.7949 14.1349 16.8135 14.1066C16.8646 14.0985 16.9702 14.0917 17.154 14.1162C17.2454 14.1442 17.3905 14.1829 17.5704 14.2065C17.5787 14.2092 17.588 14.2125 17.5984 14.2162C17.6533 14.2359 17.7226 14.2643 17.8183 14.307C17.8851 14.3368 17.9433 14.3638 18.0123 14.3957C18.0531 14.4146 18.0979 14.4354 18.1503 14.4594C18.2753 14.5167 18.4272 14.585 18.5901 14.6496C18.7016 14.6938 18.7831 14.7318 18.8988 14.7857C18.9802 14.8236 19.0788 14.8695 19.2166 14.931C19.4531 15.0365 19.7959 15.1815 20.1914 15.2738C20.341 15.3208 20.4945 15.3643 20.6173 15.399L20.6347 15.404C20.8084 15.4532 20.9297 15.4879 21.0234 15.5189L21.0619 15.5316L21.1008 15.5426C21.7889 15.7376 22.6406 15.952 23.5258 16.0617C25.1055 16.2575 26.6363 15.9499 27.8569 15.7047C28.0757 15.6608 28.2846 15.6188 28.4819 15.5821L28.6071 15.5588L28.7279 15.5189C28.746 15.5129 28.76 15.5086 28.8768 15.4854L28.891 15.4826C28.987 15.4636 29.143 15.4328 29.3312 15.3782C30.2225 15.2111 31.0611 14.9803 31.8505 14.7631C32.0218 14.7159 32.1909 14.6694 32.3576 14.6243ZM16.7786 14.1148C16.7786 14.1148 16.7818 14.1136 16.7839 14.1127C16.7772 14.1145 16.7744 14.1161 16.7744 14.1161C16.7744 14.1161 16.7759 14.1158 16.7786 14.1148Z" fill="black"/>
<path d="M22.3816 25.7085C21.9776 26.1936 21.5121 27.0498 21.5145 27.2834C21.5181 27.626 21.7896 27.8322 21.9415 27.9406C22.1025 28.0555 22.2914 28.0918 22.5043 28.0524C22.953 27.9695 23.4885 27.5452 23.8128 26.8848C23.969 26.5665 24.1253 26.1604 24.1435 25.8086C24.1521 25.6369 24.1266 25.501 24.0731 25.3987C24.0485 25.3521 24.0152 25.3064 23.9677 25.2639C23.9182 25.2194 23.8534 25.1786 23.7675 25.1437C23.2858 24.9482 22.8277 25.1728 22.3816 25.7085Z" fill="#8C8C06"/>
<path d="M36.4499 54.5239C36.4664 54.4247 36.4679 54.3233 36.4473 54.2249C36.2917 53.4816 35.8831 52.8676 35.1016 52.5284C34.6692 52.3407 34.149 52.3752 33.6352 52.5794C33.122 52.7836 32.6554 53.1429 32.3575 53.5371C31.8666 54.1865 31.3915 54.9908 31.1702 55.8005C30.9502 56.6057 30.989 57.3778 31.462 58.0275C31.6971 58.3503 32.0676 58.6377 32.4876 58.8155C32.9082 58.9936 33.3471 59.0494 33.7213 58.9537C34.7957 58.6786 35.383 58.069 35.7576 57.2671C36.1213 56.4888 36.2795 55.5429 36.4499 54.5239Z" fill="#8C8C06"/>
<path d="M56.3676 50.994L56.3662 50.9886C55.9468 49.7382 53.3178 48.5158 51.2032 49.0404C50.2825 49.2687 49.2301 49.839 48.5858 50.5936C48.2667 50.9675 48.0598 51.3723 48.0021 51.7909C47.9453 52.2034 48.0291 52.6592 48.3423 53.1528C48.768 53.8236 49.5614 54.5836 50.4742 55.1819C51.3917 55.7833 52.3725 56.1839 53.1612 56.2021C53.3444 56.2064 53.5177 56.2137 53.6824 56.2206C54.6312 56.2608 55.2954 56.289 55.9471 55.6422C56.5881 55.0064 56.7999 54.2862 56.7984 53.4933C56.797 52.7099 56.5885 51.8769 56.3676 50.994Z" fill="#8C8C06"/>
<path d="M58.9374 40.1936C58.1912 39.6891 57.2792 39.3888 56.3895 39.5414C56.3414 39.5496 56.294 39.559 56.2475 39.5697C55.9955 39.6277 55.8037 39.7156 55.6793 39.8293C55.5667 39.9322 55.4906 40.0721 55.4906 40.2947C55.4906 40.5293 55.5312 40.7216 55.6035 40.8861C55.6547 41.0026 55.7218 41.1052 55.8018 41.1991C56.0052 41.4378 56.3063 41.6374 56.705 41.8469C57.0335 42.0195 57.8391 42.262 58.5996 42.2954C58.9783 42.312 59.3106 42.2748 59.5548 42.1765C59.7861 42.0833 59.9213 41.9448 59.9745 41.74C60.0164 41.5785 60.0066 41.4187 59.946 41.2557C59.9121 41.1643 59.8623 41.0718 59.7967 40.9773C59.6088 40.7065 59.3054 40.4425 58.9374 40.1936Z" fill="#8C8C06"/>
<path d="M55.1779 20.9265C54.6901 20.671 54.0881 20.5467 53.7615 20.9877C53.6441 21.1463 53.6056 21.3332 53.643 21.5449C53.722 21.9909 54.144 22.5265 54.8063 22.8551C55.1254 23.0133 55.5332 23.1726 55.8875 23.1942C56.0605 23.2046 56.1977 23.1807 56.3013 23.1286C56.3978 23.08 56.4909 22.9943 56.5615 22.8281C56.7634 22.3522 56.5418 21.8953 56.0065 21.4473C55.7991 21.2737 55.4871 21.0885 55.1779 20.9265Z" fill="#8C8C06"/>
<path d="M21.3468 49.8437C21.4036 49.907 21.4594 49.9707 21.5145 50.0348C21.598 50.1319 21.6333 50.2635 21.7083 50.3672C21.7859 50.4745 21.8627 50.5791 21.9381 50.6819L21.9653 50.7189C22.1704 50.9984 22.3647 51.2631 22.5381 51.5248C22.7816 51.8922 22.9621 52.2226 23.0533 52.5284C23.1421 52.8263 23.1424 53.0879 23.0405 53.3368C22.9362 53.5918 22.7074 53.8759 22.2576 54.1813C21.446 54.7322 20.2315 54.921 19.3063 54.6034C18.5068 54.3288 17.81 53.7148 17.3961 52.9596C16.9833 52.2062 16.866 51.3404 17.1741 50.5543C17.4266 49.91 17.7738 49.4277 18.2012 49.1292C18.6215 48.8358 19.1477 48.6997 19.8077 48.7933C20.3478 48.8699 20.8363 49.275 21.3468 49.8437Z" fill="#8C8C06"/>
<path d="M42.6536 39.1984C42.3773 38.5833 41.7736 38.1498 41.1583 37.8656C40.7229 37.6644 40.3068 37.6015 39.9211 37.7291C39.7464 37.7869 39.5914 37.8338 39.45 37.8764C39.1679 37.9618 38.9401 38.0307 38.7184 38.1373C38.4204 38.2805 38.1578 38.4865 37.8978 38.9058C36.842 40.6082 36.9472 42.3223 37.6898 44.2645C37.9688 44.9943 38.676 45.7628 39.522 46.224C40.3697 46.6861 41.2624 46.7937 41.9553 46.3736C43.1128 45.6718 43.3916 44.3846 43.2158 42.8965C43.041 41.4156 43.129 40.2567 42.6536 39.1984Z" fill="#8C8C06"/>
<path d="M38.685 21.2979C38.5719 19.7285 37.548 18.3469 36.1793 17.5523C35.2947 17.0387 34.34 16.8381 33.1014 17.1453C32.1807 17.3737 31.1283 17.9439 30.484 18.6985C30.1649 19.0725 29.9579 19.4772 29.9003 19.8958C29.8435 20.3084 29.9272 20.7642 30.2404 21.2578C30.6662 21.9286 31.4595 22.6886 32.3723 23.2869C33.2899 23.8883 34.2707 24.2889 35.0594 24.3071C35.2426 24.3114 35.4158 24.3187 35.5805 24.3256C36.5294 24.3657 37.1935 24.394 37.8453 23.7472C38.4863 23.1113 38.6981 22.3912 38.6966 21.5983C38.6964 21.5028 38.6925 21.4022 38.685 21.2979Z" fill="#8C8C06"/>
<path d="M51.9471 34.3361C52.2993 32.5894 52.0246 31.0168 51.4155 29.4845C50.9754 28.3774 50.3182 27.3457 49.3801 26.604C49.2152 26.4737 49.0546 26.3587 48.9071 26.2672C48.3639 25.9302 47.7795 25.7903 47.1188 25.992C46.1534 26.2868 45.5152 27.3008 45.2249 28.3296C45.003 29.1156 45.0052 29.9384 45.1097 30.786C45.187 31.4132 45.3168 32.0335 45.4476 32.6579C45.4951 32.8852 45.5429 33.1129 45.5881 33.3419C45.8555 34.6924 46.8101 36.2799 47.9225 37.0411C48.4863 37.4268 48.975 37.5668 49.389 37.5573C49.801 37.5478 50.1769 37.3889 50.5162 37.1083C51.2087 36.5352 51.7174 35.4756 51.9471 34.3361Z" fill="#8C8C06"/>
<path d="M27.9162 39.2953C28.1142 38.1604 27.7472 37.0886 26.5314 36.4873C26.4657 36.4548 26.3984 36.4241 26.3298 36.3954C25.9569 36.2398 25.5889 36.1651 25.241 36.1731C24.9263 36.1803 24.5782 36.2554 24.1496 36.4774C23.777 36.6704 23.4882 36.8581 23.2631 37.0443C23.0219 37.2437 22.8529 37.4416 22.731 37.6427C22.4821 38.053 22.4099 38.5071 22.4198 39.0536C22.4279 39.5038 22.7959 40.4279 23.5197 41.1053C23.8801 41.4425 24.2962 41.6868 24.7385 41.7955C25.1576 41.8985 25.5644 41.8749 26.0137 41.7157C26.5667 41.5197 26.9807 41.2217 27.2979 40.8045C27.6245 40.3754 27.8184 39.8553 27.9162 39.2953Z" fill="#8C8C06"/>
<path d="M44.0171 56.1859C43.5302 56.3158 43.07 56.5897 42.8113 57.0191C42.7973 57.0423 42.7841 57.0656 42.7717 57.089C42.7047 57.216 42.6725 57.3286 42.6757 57.4223C42.6786 57.507 42.7107 57.5899 42.8057 57.6709C42.8883 57.7414 42.9687 57.7898 43.0485 57.8211C43.1339 57.8546 43.2187 57.8687 43.305 57.8694C43.4809 57.8708 43.6757 57.8169 43.9102 57.7256C44.1035 57.6505 44.5002 57.4002 44.7913 57.0928C44.9362 56.9398 45.0413 56.7866 45.0882 56.6482C45.1327 56.5171 45.1228 56.4099 45.0547 56.313C44.9709 56.1938 44.8432 56.129 44.6644 56.1101C44.4804 56.0905 44.2573 56.1218 44.0171 56.1859Z" fill="#8C8C06"/>
<path d="M44.3645 19.2376C44.628 18.6733 44.6807 18.0996 44.3529 17.7034C44.3351 17.682 44.3166 17.6614 44.2972 17.6417C44.1917 17.5349 44.0742 17.4697 43.9497 17.4482C43.837 17.4287 43.701 17.4414 43.5115 17.5231C43.3467 17.5942 43.2125 17.6686 43.1011 17.7471C42.9817 17.831 42.8882 17.9195 42.8107 18.0132C42.6527 18.2041 42.5498 18.4304 42.4601 18.7099C42.3863 18.9401 42.359 19.4385 42.4998 19.8373C42.5699 20.0358 42.6755 20.191 42.8136 20.279C42.9443 20.3624 43.0923 20.3803 43.2785 20.3321C43.5077 20.2729 43.705 20.1513 43.8884 19.9619C44.0771 19.767 44.2344 19.516 44.3645 19.2376Z" fill="#8C8C06"/>
<path d="M36.1637 31.9878C36.4272 31.4235 36.4799 30.8499 36.1521 30.4537C36.1343 30.4323 36.1158 30.4117 36.0964 30.392C35.9909 30.2852 35.8734 30.22 35.7489 30.1985C35.6363 30.179 35.5002 30.1917 35.3107 30.2734C35.1459 30.3444 35.0117 30.4189 34.9003 30.4973C34.7809 30.5813 34.6874 30.6698 34.6099 30.7634C34.4519 30.9544 34.349 31.1807 34.2593 31.4601C34.1855 31.6904 34.1582 32.1888 34.299 32.5876C34.3691 32.7861 34.4747 32.9413 34.6128 33.0293C34.7435 33.1127 34.8915 33.1306 35.0777 33.0824C35.3069 33.0231 35.5042 32.9016 35.6876 32.7121C35.8763 32.5173 36.0336 32.2662 36.1637 31.9878Z" fill="#8C8C06"/>
</svg>
