<svg width="162" height="157" viewBox="0 0 162 157" fill="none" xmlns="http://www.w3.org/2000/svg">
<mask id="mask0_1359_384" style="mask-type:alpha" maskUnits="userSpaceOnUse" x="-2" y="-2" width="163" height="161">
<mask id="path-1-outside-1_1359_384" maskUnits="userSpaceOnUse" x="-1.13672" y="-1.95166" width="162" height="161" fill="black">
<rect fill="white" x="-1.13672" y="-1.95166" width="162" height="161"/>
<path fill-rule="evenodd" clip-rule="evenodd" d="M158.091 0.0483398L0.863281 0.0483417L0.863283 156.884H158.091V0.0483398ZM153.777 71.5245C153.778 108.251 124.006 138.025 87.2792 138.025C50.5522 138.025 20.7781 108.251 20.7768 71.5246C20.7755 34.7976 50.5476 5.02455 87.2745 5.02455C124.001 5.02455 153.776 34.7976 153.777 71.5245Z"/>
</mask>
<path fill-rule="evenodd" clip-rule="evenodd" d="M158.091 0.0483398L0.863281 0.0483417L0.863283 156.884H158.091V0.0483398ZM153.777 71.5245C153.778 108.251 124.006 138.025 87.2792 138.025C50.5522 138.025 20.7781 108.251 20.7768 71.5246C20.7755 34.7976 50.5476 5.02455 87.2745 5.02455C124.001 5.02455 153.776 34.7976 153.777 71.5245Z" fill="#C4C4C4"/>
<path d="M0.863281 0.0483417L0.863281 -1.95166H-1.13672V0.0483417L0.863281 0.0483417ZM158.091 0.0483398H160.091V-1.95166H158.091V0.0483398ZM0.863283 156.884H-1.13672V158.884H0.863283V156.884ZM158.091 156.884V158.884H160.091V156.884H158.091ZM87.2792 138.025V136.025V138.025ZM153.777 71.5245L151.777 71.5246L153.777 71.5245ZM20.7768 71.5246L18.7768 71.5246L20.7768 71.5246ZM0.863281 2.04834L158.091 2.04834V-1.95166L0.863281 -1.95166L0.863281 2.04834ZM2.86328 156.884L2.86328 0.0483417L-1.13672 0.0483417L-1.13672 156.884H2.86328ZM158.091 154.884H0.863283V158.884H158.091V154.884ZM156.091 0.0483398V156.884H160.091V0.0483398H156.091ZM87.2792 140.025C125.111 140.025 155.778 109.356 155.777 71.5245L151.777 71.5246C151.778 107.147 122.901 136.025 87.2792 136.025V140.025ZM18.7768 71.5246C18.7782 109.356 49.4477 140.025 87.2792 140.025V136.025C51.6568 136.025 22.7781 107.147 22.7768 71.5245L18.7768 71.5246ZM87.2745 3.02455C49.443 3.02455 18.7755 33.6931 18.7768 71.5246L22.7768 71.5245C22.7756 35.9021 51.6522 7.02455 87.2745 7.02455V3.02455ZM155.777 71.5245C155.775 33.693 125.106 3.02455 87.2745 3.02455V7.02455C122.897 7.02455 151.776 35.9022 151.777 71.5246L155.777 71.5245Z" fill="black" mask="url(#path-1-outside-1_1359_384)"/>
</mask>
<g mask="url(#mask0_1359_384)">
<path d="M36.2861 115.614C36.5327 114.146 35.1034 111.596 33.8613 110.144C32.8676 108.982 30.3834 106.077 29.0563 106.457C21.7644 109.173 14.7209 112.178 8.99442 117.076C7.25912 118.56 5.43705 120.118 3.82596 121.747C2.78478 122.637 1.69428 123.822 1.73355 125.8C1.77283 127.778 3.97118 130.173 5.46171 131.916C6.70382 133.368 9.13872 136.567 10.6904 137.503C12.118 138.294 13.1829 136.377 13.877 135.784C20.0748 130.735 26.7319 126.048 32.9297 120.999C34.5782 119.589 36.0158 118.109 36.2861 115.614Z" fill="#008883"/>
<path d="M36.284 115.613C36.5306 114.145 35.1012 111.595 33.8591 110.143C32.8654 108.981 30.3812 106.076 29.0541 106.456C28.3226 106.83 27.5536 106.985 26.822 107.359C26.6485 107.508 27.4193 109.112 27.5435 109.257C29.6314 112.752 24.6246 117.788 21.9348 120.089C19.6296 122.311 17.1135 124.463 15.0567 126.977C12.7396 129.712 10.6709 132.739 9.18587 136.272C9.76948 136.779 10.1421 137.215 10.5641 137.357C11.9916 138.148 13.0565 136.231 13.7506 135.637C19.9484 130.589 26.6055 125.902 32.8033 120.853C34.5761 119.588 36.0136 118.107 36.284 115.613Z" fill="#00706C"/>
<path d="M68.5611 141.865C72.017 140.893 81.9563 139.975 81.9563 139.975C81.9602 139.975 84.4363 138.69 83.8152 137.964C83.8152 137.964 81.2984 137.681 79.9511 137.575C77.3808 137.51 68.889 134.737 63.8133 130.526C60.134 127.07 57.5245 123.155 55.2046 121.618C52.6573 119.522 50.5247 117.322 48.2678 114.977C45.7626 112.342 43.1541 109.291 40.9394 106.408C39.8215 105.1 38.7762 103.878 37.6583 102.571C36.3075 100.467 36.2485 100.462 35.0484 98.4701C34.0758 97.0387 32.9008 96.2148 31.7619 95.1771C30.3745 93.8488 27.612 91.0584 26.5362 89.2123C25.4604 87.3662 24.1751 83.7446 23.181 81.0729C23.162 79.5803 20.6548 71.2603 20.2 70.1404C19.6631 68.3364 13.7374 79.0844 13.7374 79.0844C13.7374 79.0844 10.5548 84.1098 10.2203 86.6591C9.86466 89.4779 11.0016 92.2777 12.3048 94.6837C13.1322 96.2394 14.1049 97.6708 14.9323 99.2264C18.3872 105.325 22.8377 110.823 27.724 115.949C29.1114 117.277 30.2293 118.584 31.7619 119.788C34.164 122.009 36.9807 124.127 39.0923 126.596C43.3365 131.265 46.2525 137.321 51.0987 141.223C53.5218 143.175 56.9406 144.526 60.134 143.555C62.6223 142.936 66.234 142.52 68.5611 141.865Z" fill="#009691"/>
<path d="M25.5317 153.982C25.8414 153.466 25.9025 152.66 26.0879 151.998C26.3345 150.53 26.7921 149.133 27.2497 147.735C28.3758 145.012 29.8371 142.505 31.7578 140.36C32.8483 139.176 33.9388 137.992 35.1535 136.953C36.455 135.84 37.9674 134.798 39.2689 133.685C40.3101 132.794 41.3513 131.904 42.6409 131.304C43.546 130.782 44.4511 130.259 45.3936 129.956C46.4229 129.579 47.4522 129.201 48.3573 128.679C49.8205 127.93 51.0352 126.892 51.9147 125.637C53.5377 123.494 53.26 118.954 51.048 115.313C50.352 114.148 49.5693 113.057 48.7373 112.26C47.9052 111.463 46.9864 110.74 46.0676 110.016C45.6083 109.655 44.4785 108.861 44.3661 108.202C43.9424 106.302 42.3769 104.12 40.49 102.967C39.7329 102.609 39.1 102.396 38.3803 102.257C37.5 102.087 37.5271 102.035 36.2765 100.118C36.8483 101.138 37.0039 102.931 37.2523 103.221C37.9976 104.093 38.6186 104.819 39.2771 105.765C40.3457 107.366 38.4113 108.266 37.804 108.785C36.0687 110.269 34.3708 111.972 32.6355 113.456C30.8134 115.015 29.2024 116.644 27.5045 118.347C26.5875 119.383 25.6331 120.199 24.7161 121.235C23.5389 122.493 22.4858 123.896 21.5195 125.226C19.5002 127.958 17.8535 131.127 16.1693 134.076C15.1912 135.918 14.213 137.761 13.4458 139.674C12.864 140.926 12.3197 142.398 12.3215 144.156C12.7608 149.061 20.6455 155.646 24.2796 154.802C25.086 154.867 25.3089 154.425 25.5317 153.982Z" fill="#00B3AD"/>
</g>
<path d="M159.549 67.3408C162.374 68.6633 162.374 72.6813 159.549 74.0039L146.384 80.1666C143.945 81.3084 141.146 79.5282 141.146 76.8351L141.146 64.5096C141.146 61.8164 143.945 60.0362 146.384 61.178L159.549 67.3408Z" fill="#FF881B"/>
<path fill-rule="evenodd" clip-rule="evenodd" d="M145.215 77.6679L158.379 71.5052C159.086 71.1746 159.086 70.1701 158.379 69.8394L145.215 63.6767C144.605 63.3912 143.905 63.8363 143.905 64.5096L143.905 76.8351C143.905 77.5084 144.605 77.9534 145.215 77.6679ZM159.549 74.0039C162.374 72.6813 162.374 68.6633 159.549 67.3408L146.384 61.178C143.945 60.0362 141.146 61.8164 141.146 64.5096L141.146 76.8351C141.146 79.5282 143.945 81.3084 146.384 80.1666L159.549 74.0039Z" fill="black"/>
</svg>
