<svg width="77" height="77" viewBox="0 0 77 77" fill="none" xmlns="http://www.w3.org/2000/svg">
<path fill-rule="evenodd" clip-rule="evenodd" d="M20.9026 26.2095C15.4354 30.9131 12 37.7175 12 45.2866C12 59.4849 24.0883 70.9972 39 71C53.9117 71.0028 66 59.4951 66 45.2968C66 37.8455 62.6707 31.134 57.3511 26.4376L39.0069 9L20.9026 26.2095Z" fill="#FBCF36"/>
<path fill-rule="evenodd" clip-rule="evenodd" d="M39.0069 2L60.8232 22.6041C67.0792 28.1242 71 36.0038 71 44.7406C71 61.4483 56.6802 75.0033 38.999 75C21.3186 74.9967 7 61.4373 7 44.7304C7 35.8658 11.0361 27.8854 17.4527 22.3566L39.0069 2ZM39.0069 15.1847L24.2627 29.1097L24.1716 29.1876C19.6829 33.0244 16.8715 38.5623 16.8715 44.7304C16.8715 56.3037 26.7871 65.6747 39.001 65.677C51.2141 65.6793 61.1285 56.3132 61.1285 44.7406C61.1285 38.668 58.4038 33.2055 54.0359 29.3741L53.9691 29.3156L39.0069 15.1847Z" fill="black"/>
<path d="M34 68L39.4854 15L45 68H34Z" fill="#D9A521"/>
<path d="M13.6197 62.2968L38.8187 15.1118L23.9548 66.0631L13.6197 62.2968Z" fill="#D9A521"/>
<path d="M64.3803 62.2968L39.1813 15.1118L54.0452 66.0631L64.3803 62.2968Z" fill="#D9A521"/>
<path fill-rule="evenodd" clip-rule="evenodd" d="M39.0069 2L60.8232 22.6041C67.0792 28.1242 71 36.0038 71 44.7406C71 61.4483 56.6802 75.0033 38.999 75C21.3186 74.9967 7 61.4373 7 44.7304C7 35.8658 11.0361 27.8854 17.4527 22.3566L39.0069 2ZM39.0069 15.1847L24.2627 29.1097L24.1716 29.1876C19.6829 33.0244 16.8715 38.5623 16.8715 44.7304C16.8715 56.3037 26.7871 65.6747 39.001 65.677C51.2141 65.6793 61.1285 56.3132 61.1285 44.7406C61.1285 38.668 58.4038 33.2055 54.0359 29.3741L53.9691 29.3156L39.0069 15.1847Z" fill="#333333"/>
<path fill-rule="evenodd" clip-rule="evenodd" d="M39.0069 2L60.8232 22.6041C67.0792 28.1242 71 36.0038 71 44.7406C71 61.4483 56.6802 75.0033 38.999 75C21.3186 74.9967 7 61.4373 7 44.7304C7 35.8658 11.0361 27.8854 17.4527 22.3566L39.0069 2ZM39.0069 15.1847L24.2627 29.1097L24.1716 29.1876C19.6829 33.0244 16.8715 38.5623 16.8715 44.7304C16.8715 56.3037 26.7871 65.6747 39.001 65.677C51.2141 65.6793 61.1285 56.3132 61.1285 44.7406C61.1285 38.668 58.4038 33.2055 54.0359 29.3741L53.9691 29.3156L39.0069 15.1847Z" fill="black"/>
</svg>
