<svg width="78" height="78" viewBox="0 0 78 78" fill="none" xmlns="http://www.w3.org/2000/svg">
<path d="M13.0508 39.5807C13.0508 25.2213 24.6914 13.5784 39.0508 13.5755C53.4102 13.5726 65.0508 25.2109 65.0508 39.5703C65.0508 53.9297 53.4102 65.5726 39.0508 65.5755C24.6914 65.5784 13.0508 53.9401 13.0508 39.5807Z" fill="#8A510F"/>
<path d="M13.0508 39.5807C13.0508 25.2213 24.6914 13.5784 39.0508 13.5755C53.4102 13.5726 65.0508 25.2109 65.0508 39.5703C65.0508 53.9297 53.4102 65.5726 39.0508 65.5755C24.6914 65.5784 13.0508 53.9401 13.0508 39.5807Z" fill="#D5D5D5"/>
<path d="M65.0473 39.5629C65.0473 25.2131 53.4145 13.5779 39.0647 13.5751C24.7149 13.5722 13.082 25.2027 13.082 39.5525C13.082 53.9023 24.7149 65.5375 39.0647 65.5403C53.4145 65.5432 65.0473 53.9127 65.0473 39.5629Z" fill="#FF8B3B"/>
<path d="M30.4527 13.5703L17.5527 13.5703V65.5802H30.4527V13.5703Z" fill="#3E84FF"/>
<path d="M54.4531 13.5703L60.8531 13.5703V65.5802H54.4531V13.5703Z" fill="#3E84FF"/>
<path d="M29.6533 13.5703L42.5533 13.5703V65.5802H29.6533L29.6533 13.5703Z" fill="#FF1723"/>
<path fill-rule="evenodd" clip-rule="evenodd" d="M63.9485 39.5725C63.9485 53.3405 52.7927 64.4881 39.0508 64.4908C25.3088 64.4936 14.153 53.3504 14.153 39.5825C14.153 25.8145 25.3088 14.6669 39.0508 14.6642C52.7927 14.6614 63.9485 25.8046 63.9485 39.5725ZM39.0508 75.5775C58.9417 75.5735 75.0508 59.4439 75.0508 39.5703C75.0508 19.6968 58.9417 3.57353 39.0508 3.57751C19.1598 3.58148 3.05078 19.7111 3.05078 39.5847C3.05078 59.4583 19.1598 75.5815 39.0508 75.5775Z" fill="black"/>
</svg>
