<svg width="82" height="60" viewBox="0 0 82 60" fill="none" xmlns="http://www.w3.org/2000/svg">
<mask id="mask0_1212:2404" style="mask-type:alpha" maskUnits="userSpaceOnUse" x="0" y="0" width="82" height="60">
<path d="M82 9.5C77.2 7.9 72 2.5 70 0L0 21L35.5 59.5L82 9.5Z" fill="black"/>
</mask>
<g mask="url(#mask0_1212:2404)">
<path d="M56.631 29.3088L100.195 -16.258C101.159 -17.2664 101.141 -18.8603 100.155 -19.8468C99.1721 -20.8294 97.586 -20.8517 96.5763 -19.897L50.5195 23.6431C52.2514 26.258 54.4827 28.0882 56.631 29.3088Z" fill="#66130E"/>
<path d="M50.5179 23.6406C52.2498 26.2557 54.4811 28.0859 56.6295 29.3066L36.2489 50.6242C34.7393 52.2031 32.2264 52.2314 30.6818 50.6868L29.2497 49.2546C27.699 47.7039 27.7344 45.179 29.3281 43.6725L50.5179 23.6406Z" fill="#2B0604"/>
<path d="M43.0544 17.9987L102.501 -2.98478C103.816 -3.44906 104.52 -4.87933 104.085 -6.20495C103.652 -7.52541 102.247 -8.26159 100.915 -7.86569L40.1602 10.1837C40.5245 13.2989 41.6888 15.9395 43.0544 17.9987Z" fill="#831F1A"/>
<path d="M40.1597 10.1826C40.5242 13.298 41.6885 15.9386 43.0541 17.9978L15.2433 27.8146C13.1834 28.5417 10.9286 27.4321 10.2479 25.3564L9.61686 23.4319C8.93354 21.3481 10.1054 19.1113 12.2076 18.4868L40.1597 10.1826Z" fill="#3E0C09"/>
</g>
</svg>
