<svg width="149" height="149" viewBox="0 0 149 149" fill="none" xmlns="http://www.w3.org/2000/svg">
<path d="M74.7299 140.773C111.457 140.773 141.232 111 141.235 74.2734C141.237 37.5465 111.466 7.77344 74.7393 7.77344C38.0123 7.77344 8.23717 37.5465 8.2346 74.2734C8.23203 111 38.003 140.773 74.7299 140.773Z" fill="#0B4071"/>
<path fill-rule="evenodd" clip-rule="evenodd" d="M13.3645 74.6376C13.3645 108.324 40.6699 135.627 74.3447 135.63C108.02 135.633 135.325 108.334 135.325 74.6478C135.325 40.9617 108.02 13.6581 74.3447 13.6553C40.6699 13.6525 13.3644 40.9516 13.3645 74.6376ZM74.3447 146.643C34.5766 146.639 2.34473 114.398 2.34472 74.6367C2.34472 34.8759 34.5766 2.63941 74.3447 2.64272C114.113 2.64604 146.345 34.8879 146.345 74.6487C146.345 114.41 114.113 146.646 74.3447 146.643Z" fill="black"/>
</svg>
