<svg width="73" height="72" viewBox="0 0 73 72" fill="none" xmlns="http://www.w3.org/2000/svg">
<path d="M36.8718 66.4132C53.7071 66.4132 67.3576 52.7881 67.3609 35.9808C67.3643 19.1734 53.7193 5.54834 36.884 5.54834C20.0486 5.54834 6.39817 19.1734 6.39481 35.9808C6.39145 52.7881 20.0365 66.4132 36.8718 66.4132Z" fill="url(#paint0_linear)"/>
<path fill-rule="evenodd" clip-rule="evenodd" d="M36.8828 11.0963C23.103 11.0963 11.9457 22.246 11.9429 35.9806C11.9402 49.7151 23.093 60.8648 36.8729 60.8648C50.6528 60.8648 61.8101 49.7151 61.8128 35.9806C61.8155 22.246 50.6627 11.0963 36.8828 11.0963ZM0.846674 35.9806C0.850648 16.1003 16.9943 2.99659e-09 36.8851 6.68947e-09C56.7758 1.03823e-08 72.913 16.1003 72.9091 35.9806C72.9051 55.8608 56.7615 71.9611 36.8707 71.9611C16.9799 71.9611 0.8427 55.8608 0.846674 35.9806Z" fill="black"/>
<defs>
<linearGradient id="paint0_linear" x1="56.1718" y1="12.2803" x2="17.2223" y2="55.0338" gradientUnits="userSpaceOnUse">
<stop stop-color="#666021"/>
<stop offset="1" stop-color="#B4AA3A"/>
</linearGradient>
</defs>
</svg>
