<svg width="134" height="134" viewBox="0 0 134 134" fill="none" xmlns="http://www.w3.org/2000/svg">
<path d="M66.1235 129.927C100.917 129.927 129.123 101.721 129.121 66.9268C129.12 32.1328 100.913 3.92676 66.1191 3.92676C31.3252 3.92676 3.12013 32.1328 3.12134 66.9268C3.12256 101.721 31.3296 129.927 66.1235 129.927Z" fill="url(#paint0_radial)"/>
<mask id="mask0" mask-type="alpha" maskUnits="userSpaceOnUse" x="0" y="0" width="134" height="134">
<rect x="0.119141" y="0.926758" width="133" height="133" fill="#C4C4C4"/>
</mask>
<g mask="url(#mask0)">
<mask id="mask1" mask-type="alpha" maskUnits="userSpaceOnUse" x="3" y="3" width="127" height="127">
<path d="M66.1235 129.927C100.917 129.927 129.123 101.721 129.121 66.9268C129.12 32.1328 100.913 3.92676 66.1191 3.92676C31.3252 3.92676 3.12013 32.1328 3.12134 66.9268C3.12256 101.721 31.3296 129.927 66.1235 129.927Z" fill="url(#paint1_radial)"/>
</mask>
<g mask="url(#mask1)">
<path d="M36.9002 69.8325C34.6412 64.8658 37.352 63.0597 44.1289 58.9961C50.0585 55.4405 52.5293 49.4652 53.6597 47.7242C56.0296 43.7637 63.353 44.8593 66.7185 45.9021C72.4412 47.1062 85.0613 50.1464 89.76 52.6749C95.6333 55.8355 92.0189 62.1567 92.0189 63.5112C92.0189 64.8658 85.242 79.3143 83.8866 82.4749C82.5313 85.6355 77.5615 91.9567 73.4954 96.0204C69.4292 100.084 62.2005 96.9234 56.779 93.3113C51.3575 89.6991 46.3877 83.8294 44.1289 80.6688C41.87 77.5082 39.1592 74.7991 36.9002 69.8325Z" fill="url(#paint2_radial)"/>
<path d="M77.8646 98.9779C80.5345 97.6367 85.8741 88.2479 88.099 81.5416C92.9937 77.5179 96.1085 81.5416 102.783 87.8008C109.458 94.06 100.113 109.261 96.1085 112.838C92.9047 115.699 83.7976 116.712 79.6445 116.861C74.8117 117.094 72.329 116.754 68.5202 115.073C64.4099 110.882 63.58 108.534 68.5202 104.343C70.7451 103.002 75.7288 100.051 77.8646 98.9779Z" fill="url(#paint3_radial)"/>
<path d="M99.6665 57.192C101.031 53.6272 99.6665 53.1816 98.3023 49.1711C102.668 42.7545 107.094 45.0122 108.761 46.9431C109.974 49.6167 112.399 55.4096 112.399 57.192C112.399 59.42 110.126 63.4305 112.399 69.2233C114.673 75.0161 111.035 75.9074 108.761 80.809C106.488 85.7106 105.578 80.809 104.214 79.0266C102.85 77.2442 98.3023 74.1249 96.9381 73.2337C95.5739 72.3425 95.1191 68.7777 95.1191 67.4409C95.1191 66.1041 98.3023 60.7568 99.6665 57.192Z" fill="url(#paint4_radial)"/>
<path d="M74.832 41.8655C80.1325 43.2047 89.4155 47.5694 93.074 48.1091C99.1235 47.3296 96.3941 42.1204 97.5177 38.9424C98.6412 35.7644 94.4786 35.2897 92.7718 33.993L92.7717 33.9929C91.0649 32.6962 87.6514 30.1029 86.7441 23.1423C85.8368 16.1817 85.5919 18.2354 82.2288 12.0968C78.8657 5.95812 72.1463 13.3959 68.1133 13.9156C64.0802 14.4353 62.2725 20.2291 64.3681 24.5089C66.4637 28.7887 63.1798 27.1897 60.1045 31.1248C57.6443 34.2728 56.6595 37.4666 56.4746 38.67C58.2246 40.2981 69.5315 40.5263 74.832 41.8655Z" fill="url(#paint5_radial)"/>
<path d="M91.9291 25.8195C90.9936 23.1454 89.5904 20.0255 89.1226 16.46C86.8775 11.8248 88.6551 8.43761 91.9291 7.99192C95.2031 7.54623 99.7872 9.50726 101.284 10.2204C103.155 11.1117 108.768 13.3402 109.703 16.46C110.639 19.5798 109.703 22.254 109.703 23.591C109.703 24.9281 108.3 25.8195 107.365 27.6022C106.429 29.385 105.961 31.1678 104.558 32.5048C103.155 33.8419 99.413 31.6134 96.6065 31.1678C93.8001 30.7221 92.8646 28.4936 91.9291 25.8195Z" fill="url(#paint6_radial)"/>
<path d="M117.119 62.9597C117.119 58.406 119.862 57.4953 122.148 54.3077C129.919 48.8433 131.748 54.3077 131.748 55.6738C131.748 57.0399 133.119 62.049 133.119 65.2366C133.119 68.4241 131.748 70.701 131.748 72.5225C131.748 74.3439 129.005 79.353 127.633 78.8976C126.262 78.4423 122.148 73.8886 120.319 72.5225C118.491 71.1564 117.119 67.5134 117.119 62.9597Z" fill="url(#paint7_radial)"/>
<path d="M124.1 50.8964C128.547 49.0709 126.768 49.0709 126.768 44.9636C126.418 41.3127 120.097 25.7962 117.429 24.4271C114.761 23.058 112.982 24.8835 112.982 25.3398C112.982 25.7049 109.128 31.2726 107.201 34.0108C105.867 36.2927 104.089 40.1262 105.868 42.6818C108.091 45.8764 111.648 44.0509 114.316 50.8964C116.985 57.7419 117.429 55.9164 118.763 55.0037C120.097 54.091 119.653 52.7219 124.1 50.8964Z" fill="url(#paint8_radial)"/>
<path d="M125.217 99.0738C126.557 97.7062 127.449 89.0444 127.003 87.2209C124.771 79.9268 119.86 79.9268 118.074 79.9268C116.288 79.9268 115.842 79.9268 114.056 82.6621C112.27 85.3973 113.163 89.5003 112.717 91.7797C112.27 94.0591 109.592 101.353 109.145 103.177C108.699 105 114.056 110.927 115.842 110.927C117.628 110.927 123.878 100.441 125.217 99.0738Z" fill="url(#paint9_radial)"/>
<path d="M113.884 117.748C114.39 115.472 111.296 114.02 109.133 111.217C107.875 107.98 100.921 117.417 97.757 118.709C94.5926 120.001 89.6048 122.621 87.8051 123.032C86.3653 123.362 84.468 125.236 83.6994 126.132C85.1616 127.238 88.6249 129.371 90.7798 129.06C93.4735 128.671 97.52 127.859 102.025 126.601C106.53 125.343 113.377 120.025 113.884 117.748Z" fill="url(#paint10_radial)"/>
<path d="M26.3959 98.1789C29.1708 101.789 27.5418 104.171 27.6641 108.081C24.8059 117.115 20.0199 113.888 19.1875 112.805C18.355 111.722 14.2105 108.58 12.2681 106.053C10.3257 103.525 10.0302 100.89 8.92028 99.4462C7.81031 98.002 6.94197 92.3711 8.31149 91.9025C9.68102 91.434 15.732 92.5556 18.0205 92.5326C20.3091 92.5096 23.621 94.5684 26.3959 98.1789Z" fill="url(#paint11_radial)"/>
<path d="M29.5714 114.025C27.1429 118.163 28.5592 117.087 31.0621 120.343C33.5651 123.027 48.0535 131.505 51.0123 130.977C53.9711 130.448 54.2751 127.925 53.997 127.563C53.7746 127.274 53.4505 120.528 53.3163 117.191C52.9882 114.574 52.0682 110.459 49.0945 109.509C45.3774 108.321 43.6574 111.92 37.3614 108.107C31.0655 104.293 31.8238 106.009 31.3177 107.54C30.8116 109.071 32 109.887 29.5714 114.025Z" fill="url(#paint12_radial)"/>
<path d="M1.63289 74.4838C1.39984 76.3783 5.96714 83.7862 7.43384 84.962C13.656 89.3951 17.5666 86.4242 18.9886 85.3439C20.4105 84.2637 20.7659 83.9937 20.5211 80.7446C20.2764 77.4954 17.065 74.7825 16.0315 72.7051C14.998 70.6278 12.6859 63.2241 11.9302 61.5082C11.1745 59.7923 3.29717 58.3341 1.87523 59.4144C0.453276 60.4946 1.86594 72.5892 1.63289 74.4838Z" fill="url(#paint13_radial)"/>
<path d="M2.65256 53.7251C3.63691 55.8361 6.98528 55.1173 10.4162 56.0308C13.3909 57.8367 13.1756 46.1492 14.9073 43.2107C16.639 40.2722 19.0138 35.1789 20.1958 33.764C21.1414 32.632 21.5096 29.9985 21.5755 28.8232C19.7373 28.8307 15.6792 29.2334 14.1531 30.7833C12.2453 32.7207 9.51844 35.8117 6.69814 39.5339C3.87784 43.2562 1.66821 51.6141 2.65256 53.7251Z" fill="url(#paint14_radial)"/>
<path d="M47.8325 52.6842C44.6379 55.8533 42.356 57.6642 39.6178 58.5696C31.4032 66.2659 29.121 58.5696 30.4905 56.7587C31.8599 54.9478 31.4029 54.4951 32.3156 51.7788C33.2283 49.0624 31.4032 47.7043 30.4905 44.0825C29.5777 40.4607 32.3159 37.7444 34.1414 35.9335C35.9669 34.1226 39.6178 30.9535 41.4433 31.4062C43.2688 31.859 49.2016 31.4062 51.4834 30.9535C53.7653 30.5008 55.5907 35.9335 56.0471 36.8389C56.5035 37.7444 54.678 42.2716 53.7653 43.177C52.8525 44.0825 51.027 49.5152 47.8325 52.6842Z" fill="url(#paint15_radial)"/>
<path d="M50.4589 19.0283C49.0738 19.8548 43.2591 19.9926 39.6959 19.801C35.2908 18.6631 34.9187 17.2917 35.4863 15.0698C36.0538 12.8478 37.3656 13.3689 39.6659 12.1411C41.9662 10.9133 46.2436 6.18799 48.5683 4.51108C50.893 2.83418 60.3686 1.09123 65.1703 3.15138C69.972 5.21153 67.1774 7.31366 66.2866 7.26576C65.3958 7.21786 60.0754 6.48128 61.0451 13.2907C62.0148 20.1002 60.6298 20.9267 59.1225 23.999C57.6153 27.0714 53.1857 26.3827 53.3323 23.6877C53.4789 20.9926 51.8439 18.2018 50.4589 19.0283Z" fill="url(#paint16_radial)"/>
<path d="M38.492 23.3542C41.7149 24.6747 44.9377 23.3542 46.7794 23.3542C52.765 22.805 51.3832 28.6362 49.5416 28.6362C47.6999 28.6362 46.7794 29.0764 43.0958 28.6362C39.4123 28.196 39.4125 28.6362 36.6501 30.3969C33.8876 32.1576 33.4272 29.0764 33.4272 27.7559C33.4272 26.4353 28.8234 26.8755 26.5213 25.9952C24.2193 25.1148 25.1401 25.555 26.5213 22.0337C27.6263 19.2166 30.3581 18.8058 31.5858 18.9525C32.8136 19.9795 35.9137 22.2978 38.492 23.3542Z" fill="url(#paint17_radial)"/>
<path d="M26.9254 42.6435C26.0422 39.4665 27.367 37.651 29.1334 35.3817C32.6663 29.9353 25.6006 26.3044 25.1594 31.2969C24.7183 36.2894 18.9769 41.2819 18.0936 43.0974C17.2104 44.9128 17.652 46.2744 17.2104 50.813C16.7688 55.3517 14.1191 55.8055 14.1191 59.4364C14.1191 63.0673 16.3272 64.4289 20.7433 64.8828C25.1594 65.3366 26.0422 62.1596 25.6006 60.798C25.159 59.4364 26.9254 54.8978 27.367 53.0823C27.8087 51.2669 27.8086 45.8205 26.9254 42.6435Z" fill="url(#paint18_radial)"/>
<path d="M21.9504 74.8333C16.9831 69.2103 23.3051 66.8674 26.9177 66.3988C30.9822 65.2204 31.8848 66.3988 31.8848 68.2731C31.8848 70.1474 32.788 72.4904 35.4974 73.4275C38.2069 74.3647 40.0132 79.9877 38.6584 80.9248C37.3037 81.862 30.9817 88.4222 28.7238 88.8907C26.4659 89.3593 24.208 85.1421 25.1112 82.7992C26.0143 80.4563 26.9177 80.4563 21.9504 74.8333Z" fill="url(#paint19_radial)"/>
<path d="M32.2989 90.3181C32.757 89.8615 36.88 85.2963 40.0868 83.9268C45.126 83.9268 43.2938 86.2094 44.6681 87.1224C46.0425 88.0355 46.9587 91.2311 49.2493 93.9702C51.5399 96.7094 51.0817 97.6224 51.0817 100.362C51.0817 103.101 46.5006 104.927 44.6681 104.927C42.8357 104.927 40.0868 104.014 38.7126 103.557C37.6132 103.192 36.4221 100.666 35.9639 99.4485C35.3531 98.3833 33.9481 95.9789 33.2151 94.8833C32.2989 93.5137 31.8407 90.7746 32.2989 90.3181Z" fill="url(#paint20_radial)"/>
<path d="M53.3339 103.548C54.7151 103.086 55.1755 99.3889 57.0172 98.9268C61.6213 99.851 65.7655 103.548 63.4633 105.858C61.1612 108.169 59.3195 110.941 58.8591 109.555C58.3987 108.169 55.1755 107.707 53.3339 106.782C51.4922 105.858 51.9526 104.01 53.3339 103.548Z" fill="url(#paint21_radial)"/>
<path d="M60.2407 129.663C60.2407 129.189 60.7007 123.504 60.2407 121.135C61.0072 120.503 62.9082 119.429 64.3802 120.187C66.2203 121.135 68.0603 123.03 70.8203 124.451C73.5804 125.873 72.2006 124.451 75.8807 126.346C79.5607 128.242 79.1007 129.663 79.1007 131.084C79.1007 132.505 74.5004 133.927 71.7404 133.927C68.9803 133.927 65.7612 133.453 62.5412 132.505C59.3211 131.558 60.2407 130.137 60.2407 129.663Z" fill="url(#paint22_radial)"/>
</g>
</g>
<defs>
<radialGradient id="paint0_radial" cx="0" cy="0" r="1" gradientUnits="userSpaceOnUse" gradientTransform="translate(66.1213 66.9268) rotate(89.998) scale(63)">
<stop stop-color="#FF0000"/>
<stop offset="1" stop-color="#B10000"/>
</radialGradient>
<radialGradient id="paint1_radial" cx="0" cy="0" r="1" gradientUnits="userSpaceOnUse" gradientTransform="translate(66.1213 66.9268) rotate(89.998) scale(63)">
<stop stop-color="#D3E21F"/>
<stop offset="1" stop-color="#568A00"/>
</radialGradient>
<radialGradient id="paint2_radial" cx="0" cy="0" r="1" gradientUnits="userSpaceOnUse" gradientTransform="translate(64.6191 71.4268) rotate(90) scale(26.5 28.5)">
<stop offset="0.364583" stop-color="#202020"/>
<stop offset="1" stop-color="#550000"/>
</radialGradient>
<radialGradient id="paint3_radial" cx="0" cy="0" r="1" gradientUnits="userSpaceOnUse" gradientTransform="translate(85.1191 98.4268) rotate(90) scale(18.5 20)">
<stop offset="0.364583" stop-color="#202020"/>
<stop offset="1" stop-color="#550000"/>
</radialGradient>
<radialGradient id="paint4_radial" cx="0" cy="0" r="1" gradientUnits="userSpaceOnUse" gradientTransform="translate(104.119 63.9268) rotate(90) scale(19 9)">
<stop offset="0.364583" stop-color="#202020"/>
<stop offset="1" stop-color="#550000"/>
</radialGradient>
<radialGradient id="paint5_radial" cx="0" cy="0" r="1" gradientUnits="userSpaceOnUse" gradientTransform="translate(76.0361 30.1392) rotate(82.5737) scale(20 20.5)">
<stop offset="0.364583" stop-color="#202020"/>
<stop offset="1" stop-color="#550000"/>
</radialGradient>
<radialGradient id="paint6_radial" cx="0" cy="0" r="1" gradientUnits="userSpaceOnUse" gradientTransform="translate(99.1191 20.4268) rotate(90) scale(12.5 11)">
<stop offset="0.364583" stop-color="#202020"/>
<stop offset="1" stop-color="#550000"/>
</radialGradient>
<radialGradient id="paint7_radial" cx="0" cy="0" r="1" gradientUnits="userSpaceOnUse" gradientTransform="translate(125.119 65.4268) rotate(90) scale(13.5 8)">
<stop offset="0.364583" stop-color="#202020"/>
<stop offset="1" stop-color="#550000"/>
</radialGradient>
<radialGradient id="paint8_radial" cx="0" cy="0" r="1" gradientUnits="userSpaceOnUse" gradientTransform="translate(116.119 39.9268) rotate(90) scale(16 11)">
<stop offset="0.364583" stop-color="#202020"/>
<stop offset="1" stop-color="#550000"/>
</radialGradient>
<radialGradient id="paint9_radial" cx="0" cy="0" r="1" gradientUnits="userSpaceOnUse" gradientTransform="translate(118.119 95.4268) rotate(90) scale(15.5 9)">
<stop offset="0.364583" stop-color="#202020"/>
<stop offset="1" stop-color="#550000"/>
</radialGradient>
<radialGradient id="paint10_radial" cx="0" cy="0" r="1" gradientUnits="userSpaceOnUse" gradientTransform="translate(98.8682 119.808) rotate(91.4838) scale(9.5 15)">
<stop offset="0.364583" stop-color="#202020"/>
<stop offset="1" stop-color="#550000"/>
</radialGradient>
<radialGradient id="paint11_radial" cx="0" cy="0" r="1" gradientUnits="userSpaceOnUse" gradientTransform="translate(18.5224 101.062) rotate(-127.544) scale(13.5 7.99988)">
<stop offset="0.364583" stop-color="#202020"/>
<stop offset="1" stop-color="#550000"/>
</radialGradient>
<radialGradient id="paint12_radial" cx="0" cy="0" r="1" gradientUnits="userSpaceOnUse" gradientTransform="translate(42.6105 117.895) rotate(-127.543) scale(16 10.9998)">
<stop offset="0.364583" stop-color="#202020"/>
<stop offset="1" stop-color="#550000"/>
</radialGradient>
<radialGradient id="paint13_radial" cx="0" cy="0" r="1" gradientUnits="userSpaceOnUse" gradientTransform="translate(9.50736 73.0815) rotate(-127.544) scale(15.5 8.99986)">
<stop offset="0.364583" stop-color="#202020"/>
<stop offset="1" stop-color="#550000"/>
</radialGradient>
<radialGradient id="paint14_radial" cx="0" cy="0" r="1" gradientUnits="userSpaceOnUse" gradientTransform="translate(13.3529 43.0117) rotate(-126.067) scale(9.5 14.9998)">
<stop offset="0.364583" stop-color="#202020"/>
<stop offset="1" stop-color="#550000"/>
</radialGradient>
<radialGradient id="paint15_radial" cx="0" cy="0" r="1" gradientUnits="userSpaceOnUse" gradientTransform="translate(43.1191 46.4268) rotate(90) scale(15.5 13)">
<stop offset="0.364583" stop-color="#202020"/>
<stop offset="1" stop-color="#550000"/>
</radialGradient>
<radialGradient id="paint16_radial" cx="0" cy="0" r="1" gradientUnits="userSpaceOnUse" gradientTransform="translate(51.4443 13.7682) rotate(93.1135) scale(12 16)">
<stop offset="0.364583" stop-color="#202020"/>
<stop offset="1" stop-color="#550000"/>
</radialGradient>
<radialGradient id="paint17_radial" cx="0" cy="0" r="1" gradientUnits="userSpaceOnUse" gradientTransform="translate(38.1191 24.9268) rotate(90) scale(6 13)">
<stop offset="0.364583" stop-color="#202020"/>
<stop offset="1" stop-color="#550000"/>
</radialGradient>
<radialGradient id="paint18_radial" cx="0" cy="0" r="1" gradientUnits="userSpaceOnUse" gradientTransform="translate(22.1191 46.9268) rotate(90) scale(18 8)">
<stop offset="0.364583" stop-color="#202020"/>
<stop offset="1" stop-color="#550000"/>
</radialGradient>
<radialGradient id="paint19_radial" cx="0" cy="0" r="1" gradientUnits="userSpaceOnUse" gradientTransform="translate(29.6191 77.4268) rotate(90) scale(11.5 9.5)">
<stop offset="0.364583" stop-color="#202020"/>
<stop offset="1" stop-color="#550000"/>
</radialGradient>
<radialGradient id="paint20_radial" cx="0" cy="0" r="1" gradientUnits="userSpaceOnUse" gradientTransform="translate(41.6191 94.4268) rotate(90) scale(10.5 9.5)">
<stop offset="0.364583" stop-color="#202020"/>
<stop offset="1" stop-color="#550000"/>
</radialGradient>
<radialGradient id="paint21_radial" cx="0" cy="0" r="1" gradientUnits="userSpaceOnUse" gradientTransform="translate(58.1191 104.427) rotate(90) scale(5.5 6)">
<stop offset="0.364583" stop-color="#202020"/>
<stop offset="1" stop-color="#550000"/>
</radialGradient>
<radialGradient id="paint22_radial" cx="0" cy="0" r="1" gradientUnits="userSpaceOnUse" gradientTransform="translate(69.6191 126.927) rotate(90) scale(7 9.5)">
<stop offset="0.364583" stop-color="#202020"/>
<stop offset="1" stop-color="#550000"/>
</radialGradient>
</defs>
</svg>
