<svg width="78" height="78" viewBox="0 0 78 78" fill="none" xmlns="http://www.w3.org/2000/svg">
<path d="M68.9519 40.5653C68.9519 46.8424 69.2738 52.4758 63.855 56.5532C61.87 58.0554 58.9728 63.0986 57.0414 64.7081C52.0519 68.8392 45.3455 69.805 38.3709 69.805C32.0938 69.805 29.1967 66.425 24.4218 62.9913C21.6856 61.0062 18.0373 59.5577 16.1059 56.7142C14.2818 53.9243 14.7646 50.7053 13.9599 47.3789C13.4233 45.1793 11.8138 42.2285 11.5992 39.9215C10.9018 33.4297 12.8332 31.2301 14.6037 26.9917C19.003 16.4761 21.2564 19.9634 24.4754 17.4955C26.7287 15.7787 27.1579 14.5983 29.8405 13.579C33.0059 12.345 36.6005 10.8428 40.0878 11.7012C46.9014 13.418 50.496 11.7548 54.6808 14.0618C58.6509 16.2615 59.4557 22.5386 64.0697 24.4701C67.557 25.9186 69.9712 32.7323 68.8446 34.4491C67.7179 36.1659 68.9519 38.6339 68.9519 40.5653Z" fill="#FF4200"/>
<path d="M59.5151 46.7349C57.2081 45.018 54.7401 44.5352 52.7014 46.3056C51.7357 47.1641 51.1455 48.398 50.2335 49.3101C49.3751 50.1149 48.7313 51.939 49.8043 53.1193L49.9116 53.2266C50.4481 53.8168 51.3065 54.4069 52.0576 54.1923C52.2722 54.1387 52.4332 54.085 52.5941 54.0314C52.8624 54.246 53.1843 54.3533 53.5062 54.4606C54.7401 54.8361 55.7595 54.4069 56.7252 53.8168C57.2617 53.4948 58.7639 53.9777 59.5687 53.6558C60.91 53.1729 61.7147 52.0463 61.822 50.4368C61.9293 48.8809 60.6954 47.5396 59.5151 46.7349Z" fill="#CC1F00"/>
<path d="M60.2585 25.7038C57.8979 23.9333 54.3569 24.9527 52.8547 27.2597C51.9427 28.6546 51.4061 30.5324 51.4061 32.3028C50.9233 32.9467 50.5477 33.6978 50.4404 34.3952C50.1722 36.0047 51.5134 38.0435 53.3912 37.346C53.9277 37.1314 54.3033 37.0778 54.8934 37.0778C55.0544 37.0778 55.269 37.0778 55.43 37.0778C56.0201 37.0241 56.1274 37.0778 55.8055 37.1314C56.7176 37.7752 58.0052 37.4533 58.7563 36.7559C59.5074 36.0584 59.9366 36.1657 60.956 35.5219C62.2436 34.6635 63.1557 33.966 63.5849 32.4101C64.175 30.0495 62.029 27.0451 60.2585 25.7038Z" fill="#CC1F00"/>
<path d="M34.9944 42.5504C33.9751 40.7799 30.8097 38.6875 28.771 38.6875C27.2151 38.6875 25.6592 39.8142 24.4252 41.1018C23.5668 41.6383 23.2986 42.3894 22.3865 42.9796C21.0989 43.838 20.0795 45.1256 19.3284 46.4132C18.3091 48.1837 16.6995 50.8662 18.5773 52.744C19.2748 53.4415 20.4551 53.5488 21.3671 53.7097C22.8157 53.9243 24.2643 54.5681 25.6592 54.9973C27.0005 55.4265 27.9125 56.9288 29.5221 56.8214C31.4535 56.6605 32.3656 55.5875 33.9751 54.5681C34.7262 54.0853 35.6919 54.3535 36.443 53.6024C37.1941 52.8513 38.2135 51.7783 38.5354 50.7053C39.3401 47.5935 36.2821 44.8573 34.9944 42.5504Z" fill="#CC1F00"/>
<path d="M22.1157 33.536C21.7402 33.4287 21.2036 33.4287 20.7744 33.536C20.6135 33.5897 20.5062 33.6433 20.3989 33.697C20.3452 33.697 20.2379 33.7506 20.1843 33.7506C20.0233 33.8043 19.8087 33.9116 19.6478 34.0189C18.9503 33.697 18.1456 33.8579 17.609 34.6627C17.3944 35.0383 17.2871 35.5748 17.1798 36.1113C17.0725 36.5405 16.9652 37.0233 16.9116 37.4525C16.8579 37.6135 16.8579 37.7745 16.8579 37.9354C16.7506 38.7938 17.5017 39.5986 18.2529 39.7595C18.5748 39.8668 18.9503 39.8132 19.2186 39.7595C19.8087 39.9741 20.3452 40.0278 21.0427 39.9205C22.384 39.7059 23.2424 38.6329 23.6179 37.3989C24.0471 36.004 23.7252 33.9652 22.1157 33.536Z" fill="#CC1F00"/>
<path d="M44.2219 60.2012C43.5244 59.4501 43.0952 58.7526 42.1295 58.3771C41.1638 58.0015 39.7689 58.0551 39.0714 58.9672C38.5349 59.6647 38.213 60.5231 37.5155 61.0596C37.0863 61.3815 36.7108 61.7034 36.4425 62.0253C35.5841 62.1863 34.8867 63.152 35.4768 64.0104C35.9597 64.7078 36.3889 65.137 37.2473 65.4053C37.4082 65.459 37.6228 65.459 37.7838 65.459C38.1057 65.7809 38.5886 65.9955 39.1251 66.0491C40.1444 66.1028 41.1638 66.1028 42.1832 66.371C43.0416 66.6393 44.4365 66.5856 45.2413 66.1564C48.0311 64.4932 45.6168 61.7034 44.2219 60.2012Z" fill="#CC1F00"/>
<path d="M65.4687 41.3162C65.0932 40.5114 64.2347 39.9749 63.3227 40.0286C62.8398 40.0822 62.4106 40.1895 62.0351 40.4578C61.8741 40.5651 61.7668 40.6187 61.6059 40.7261C61.5522 40.7797 61.4986 40.7797 61.4986 40.7797C60.8011 40.887 60.2109 41.4235 60.2109 42.1746C60.2109 42.7111 60.5865 43.3013 61.0693 43.5159C61.3376 43.7305 61.6595 43.8914 61.9814 43.8914C62.8935 43.9451 64.2884 44.8035 65.1468 43.8914C65.8443 43.1403 65.8443 42.2283 65.4687 41.3162Z" fill="#CC1F00"/>
<path d="M40.249 14.5981C39.4443 13.9543 38.3176 14.2762 37.7274 14.0616C36.4398 13.5788 35.7424 13.5251 34.4011 13.6861C32.4697 13.9007 31.2894 14.92 30.6455 16.3686C27.5338 17.6562 23.6709 20.3387 25.3878 23.7187C26.4071 25.7038 29.4116 25.6502 31.0747 26.8305C33.1135 28.3327 35.3668 28.9229 37.4592 27.0987C38.5859 26.133 37.7811 22.753 39.3906 21.4654C43.1462 18.5146 42.6097 16.4222 40.249 14.5981Z" fill="#CC1F00"/>
<path d="M44.1158 20.4994C43.6329 20.7676 43.311 21.1432 42.9355 21.5187C42.6135 21.6797 42.3989 21.9479 42.238 22.2698C42.1843 22.3235 42.1843 22.3235 42.1307 22.3771C41.7015 22.7527 41.7015 23.5038 41.9697 23.933C42.238 24.3622 42.6672 24.5232 43.0964 24.5232C43.472 24.7378 43.9012 24.7914 44.4377 24.7378C45.457 24.6305 46.2618 24.2013 47.0666 23.6111C47.764 23.1282 48.2469 22.0016 47.6567 21.2505C46.691 20.0165 45.4034 19.7482 44.1158 20.4994Z" fill="#CC1F00"/>
<path d="M36.0109 20.4996C35.689 18.8901 34.9379 17.5488 33.1674 17.3342C32.4699 17.2269 31.7188 17.7634 31.1823 18.139C30.6995 18.4609 29.841 18.7292 29.5191 18.7828C28.0169 18.8901 26.9976 20.3923 27.8023 21.7872C28.0169 22.1628 28.3388 22.4311 28.6607 22.592L28.7144 22.6457C30.0556 24.0406 31.6652 24.738 33.5429 24.2015C35.2061 23.665 36.3864 22.3238 36.0109 20.4996Z" fill="#DE3D10"/>
<path d="M57.6306 31.9274C57.0941 31.3909 56.5039 31.3373 55.8065 31.4446C55.6992 31.4446 55.6992 31.4446 55.6455 31.4446C55.6455 31.4446 55.6992 31.4446 55.8065 31.4446C55.7528 31.4446 55.6992 31.4446 55.5919 31.4446C54.5189 31.0154 53.1239 31.8201 53.2312 33.0005C53.0703 33.1614 52.963 33.376 52.8557 33.537C52.4801 34.2344 52.5338 34.8782 52.8557 35.5757C53.0703 36.0049 53.6604 36.2195 54.0897 36.0586C54.2506 36.0049 54.4116 35.9512 54.5189 35.8439C54.6262 35.8439 54.7335 35.8976 54.8408 35.8976C54.9481 35.8976 55.109 35.8976 55.2163 35.8439C55.8065 35.8439 56.3966 35.7366 56.8795 35.4684C57.6843 35.0392 58.1671 34.1808 58.1671 33.2151C58.1671 32.7322 58.0062 32.303 57.6306 31.9274Z" fill="#DE3D10"/>
<path d="M33.8666 44.5884C32.9008 42.3351 30.0037 41.2621 27.7504 41.8522C26.5164 42.1742 25.3361 42.7643 24.3704 43.5691C23.4583 44.3202 22.9218 45.4468 22.0097 46.1443C21.2586 46.7881 21.5269 47.7002 22.117 48.2367C22.278 49.1487 23.0828 49.8999 24.1021 49.9535C25.4434 50.0072 26.731 50.2754 28.0723 50.3291C29.2526 50.3827 30.3793 49.8999 31.5059 49.6316C34.0812 48.9878 34.8859 47.0027 33.8666 44.5884Z" fill="#DE3D10"/>
<path d="M22.3283 35.7366C22.221 35.2537 21.7381 34.8245 21.3089 34.7172C20.8797 34.6099 20.5042 34.6636 20.1823 34.8782C19.8067 34.8782 19.4848 34.9318 19.1092 35.0928C18.4654 35.361 18.1435 36.1658 18.1972 36.8633C18.2508 37.7217 18.8946 38.5801 19.8603 38.5264C20.2359 38.5264 20.5578 38.4728 20.9334 38.4728C21.7381 38.4191 22.5965 37.7753 22.4892 36.9169C22.4356 36.4877 22.3819 36.1121 22.3283 35.7366Z" fill="#DE3D10"/>
<path d="M43.9541 62.2398C43.6322 61.7033 43.3103 61.2205 42.8811 60.7913C42.5592 60.4694 42.1836 60.1475 41.7007 60.1475C41.2179 60.2011 40.9496 60.3621 40.6814 60.6303C40.5741 60.7376 40.5204 60.7913 40.4131 60.8986C40.3058 60.9522 40.2522 61.0059 40.1449 61.0595C39.5547 61.3814 39.5547 62.2935 40.0912 62.669C39.9303 63.3129 40.2522 64.0103 41.0569 64.3322C41.5398 64.5468 42.2373 64.3859 42.7738 64.3859C43.7931 64.3322 44.4906 63.2056 43.9541 62.2398Z" fill="#DE3D10"/>
<path d="M68.8424 34.4486C69.9691 32.7318 67.5548 25.9181 64.0675 24.4695C59.4536 22.5381 58.6488 16.3146 54.7323 14.0613C52.1571 12.6664 49.8501 12.72 46.8456 12.5591C51.1377 15.8854 58.1123 21.7334 58.2733 24.8451C58.4879 29.3518 56.6637 30.0492 59.1853 35.0387C61.6532 40.0283 62.3507 42.7108 60.5266 47.7003C58.7025 52.6898 52.5863 50.6511 50.1183 53.6019C47.6504 56.5527 48.5088 58.1086 41.5342 59.2352C34.506 60.4155 30.2139 58.3768 24.5269 55.9089C18.84 53.4409 20.4495 52.5289 18.84 48.2368C17.9279 45.7689 14.3869 44.5886 11.9727 41.906C12.6165 43.7302 13.5822 45.7689 13.9577 47.3784C14.7625 50.7584 14.2796 53.9238 16.1574 56.7136C18.0888 59.5571 21.7371 61.0057 24.4733 62.9908C29.1945 66.4244 32.0917 69.8044 38.4225 69.8044C45.3971 69.8044 52.1034 68.8387 57.0929 64.7076C59.0244 63.0981 61.8679 58.0549 63.9066 56.5527C69.3253 52.4752 69.0034 46.8419 69.0034 40.5648C68.9498 38.6333 67.7158 36.1654 68.8424 34.4486Z" fill="#CC1F00" fill-opacity="0.5"/>
<path opacity="0.3" d="M18.1961 35.9515C20.4494 37.0781 24.3123 39.8143 25.0097 42.0677C25.7072 44.321 28.3897 48.1839 32.2526 48.6131C36.1154 49.0423 38.5834 49.9543 41.1049 46.3597C43.5729 42.7115 47.6503 44.7502 50.1719 42.7115C52.6398 40.6727 52.2106 34.5566 51.5132 30.962C50.8157 27.3137 51.5132 25.5432 49.2598 24.4166C47.0065 23.2899 46.3091 21.0366 44.4849 18.7296C43.1437 17.0128 36.491 13.8474 33.1646 12.2915C32.038 12.6671 30.9113 13.0963 29.8383 13.5255C27.1557 14.5448 26.7265 15.6715 24.4732 17.442C21.2542 19.9099 19.0545 16.4226 14.6015 26.9382C13.9577 28.4404 13.3675 29.6207 12.7773 30.9083C14.2259 33.6445 16.7475 35.2004 18.1961 35.9515Z" fill="white"/>
<path opacity="0.3" d="M26.5687 18.9975C27.91 17.6563 30.4316 17.388 33.597 18.3001C36.7624 19.2121 37.4598 21.6801 38.1037 24.2017C38.8011 26.6696 37.889 30.7471 35.6357 32.5712C33.3824 34.3953 28.6075 35.0391 25.9249 32.5712C23.1887 30.1032 21.4183 31.2299 22.2767 27.1524C23.1887 23.075 25.2275 20.3388 26.5687 18.9975Z" fill="white"/>
<path fill-rule="evenodd" clip-rule="evenodd" d="M64.7141 39.8367C64.7141 53.6046 53.5583 64.7523 39.8164 64.755C26.0745 64.7578 14.9187 53.6146 14.9187 39.8466C14.9187 26.0787 26.0745 14.9311 39.8164 14.9283C53.5584 14.9256 64.7141 26.0687 64.7141 39.8367ZM39.8164 75.8417C59.7074 75.8377 75.8164 59.708 75.8164 39.8345C75.8164 19.9609 59.7074 3.83769 39.8164 3.84167C19.9255 3.84564 3.81641 19.9753 3.81641 39.8489C3.81641 59.7224 19.9255 75.8456 39.8164 75.8417Z" fill="black"/>
</svg>
