<svg width="134" height="133" viewBox="0 0 134 133" fill="none" xmlns="http://www.w3.org/2000/svg">
<path d="M67.4219 133C30.6949 133 0.921875 103.207 0.921876 66.5C0.921876 29.7925 30.6949 3.55833e-07 67.4219 7.94775e-07C104.149 1.23372e-06 133.922 29.7925 133.922 66.5C133.922 103.207 104.149 133 67.4219 133Z" fill="#D52525"/>
<path d="M67.4219 133L67.4219 0C104.149 4.38614e-07 133.922 29.7925 133.922 66.5C133.922 103.207 104.149 133 67.4219 133Z" fill="#2595D4"/>
<path d="M0.921876 66.5L49.4608 48.539L67.4219 7.94181e-07L85.3829 48.539L133.922 66.5L85.3829 84.461L67.4219 133L49.4608 84.461L0.921876 66.5Z" fill="#FDFDFD"/>
</svg>
