<svg width="135" height="144" viewBox="0 0 135 144" fill="none" xmlns="http://www.w3.org/2000/svg">
<path d="M3.78529 68.0464C5.64933 68.0464 7.16043 69.6611 7.16043 71.6528C7.16043 73.6445 5.64933 75.2591 3.78529 75.2591C1.92125 75.2591 0.410153 73.6445 0.410153 71.6528C0.410153 69.6611 1.92125 68.0464 3.78529 68.0464Z" fill="#D9D9D9"/>
<path d="M38.6353 10.7619C39.5673 12.4868 39.0142 14.6924 37.3999 15.6883C35.7856 16.6841 33.7214 16.0932 32.7894 14.3683C31.8573 12.6434 32.4104 10.4378 34.0247 9.44189C35.639 8.44603 37.7033 9.03702 38.6353 10.7619Z" fill="#D9D9D9"/>
<path d="M102.489 14.3682C101.557 16.0931 99.4925 16.6841 97.8782 15.6882C96.2639 14.6924 95.7108 12.4868 96.6428 10.7619C97.5749 9.037 99.6391 8.44601 101.253 9.44187C102.868 10.4377 103.421 12.6433 102.489 14.3682Z" fill="#D9D9D9"/>
<path d="M131.493 75.2591C129.629 75.2591 128.118 73.6444 128.118 71.6527C128.118 69.661 129.629 68.0464 131.493 68.0464C133.357 68.0464 134.868 69.661 134.868 71.6527C134.868 73.6444 133.357 75.2591 131.493 75.2591Z" fill="#D9D9D9"/>
<path d="M96.6432 132.544C95.7112 130.819 96.2643 128.613 97.8786 127.617C99.4929 126.621 101.557 127.212 102.489 128.937C103.421 130.662 102.868 132.868 101.254 133.864C99.6395 134.859 97.5753 134.268 96.6432 132.544Z" fill="#D9D9D9"/>
<path d="M32.7897 128.937C33.7218 127.212 35.786 126.621 37.4003 127.617C39.0146 128.613 39.5677 130.819 38.6357 132.544C37.7036 134.269 35.6394 134.859 34.0251 133.864C32.4108 132.868 31.8577 130.662 32.7897 128.937Z" fill="#D9D9D9"/>
<path d="M5.88213 53.9401C7.70543 54.3542 8.86933 56.2692 8.48178 58.2175C8.09422 60.1657 6.30197 61.4093 4.47866 60.9952C2.65536 60.5811 1.49145 58.6661 1.87901 56.7178C2.26657 54.7696 4.05882 53.526 5.88213 53.9401Z" fill="#D9D9D9"/>
<path d="M51.1172 5.64915C51.6932 7.54341 50.723 9.57794 48.9502 10.1934C47.1774 10.8089 45.2733 9.77225 44.6973 7.878C44.1213 5.98375 45.0915 3.9492 46.8643 3.33372C48.6371 2.71824 50.5412 3.75491 51.1172 5.64915Z" fill="#D9D9D9"/>
<path d="M112.874 23.3628C111.627 24.8429 109.492 24.9624 108.107 23.6297C106.722 22.297 106.61 20.0167 107.857 18.5365C109.105 17.0564 111.239 16.9369 112.624 18.2696C114.009 19.6024 114.121 21.8826 112.874 23.3628Z" fill="#D9D9D9"/>
<path d="M129.396 89.3654C127.573 88.9513 126.409 87.0362 126.797 85.088C127.184 83.1398 128.977 81.8962 130.8 82.3103C132.623 82.7244 133.787 84.6394 133.4 86.5876C133.012 88.5359 131.22 89.7795 129.396 89.3654Z" fill="#D9D9D9"/>
<path d="M84.1613 137.656C83.5853 135.762 84.5555 133.728 86.3283 133.112C88.1011 132.497 90.0052 133.533 90.5812 135.427C91.1572 137.322 90.187 139.356 88.4142 139.972C86.6414 140.587 84.7373 139.551 84.1613 137.656Z" fill="#D9D9D9"/>
<path d="M22.4046 119.943C23.6519 118.463 25.786 118.343 27.1713 119.676C28.5565 121.009 28.6683 123.289 27.4211 124.769C26.1738 126.249 24.0397 126.369 22.6544 125.036C21.2692 123.703 21.1573 121.423 22.4046 119.943Z" fill="#D9D9D9"/>
<path d="M10.6787 40.6074C12.3815 41.4175 13.1474 43.5492 12.3892 45.3688C11.631 47.1883 9.63596 48.0066 7.93308 47.1965C6.23019 46.3864 5.46435 44.2547 6.22253 42.4351C6.9807 40.6156 8.97578 39.7973 10.6787 40.6074Z" fill="#D9D9D9"/>
<path d="M64.3215 3.42093C64.5163 5.40175 63.1714 7.17628 61.3176 7.38447C59.4638 7.59266 57.803 6.15567 57.6082 4.17485C57.4133 2.19403 58.7582 0.419477 60.612 0.211286C62.4658 0.00309482 64.1266 1.44009 64.3215 3.42093Z" fill="#D9D9D9"/>
<path d="M121.283 34.4663C119.774 35.637 117.664 35.2798 116.568 33.6684C115.472 32.0571 115.807 29.8018 117.315 28.6311C118.823 27.4604 120.934 27.8176 122.029 29.4289C123.125 31.0403 122.791 33.2956 121.283 34.4663Z" fill="#D9D9D9"/>
<path d="M124.6 102.698C122.897 101.888 122.131 99.7563 122.889 97.9367C123.647 96.1172 125.643 95.2989 127.345 96.109C129.048 96.9191 129.814 99.0508 129.056 100.87C128.298 102.69 126.303 103.508 124.6 102.698Z" fill="#D9D9D9"/>
<path d="M70.957 139.885C70.7622 137.904 72.1071 136.129 73.9609 135.921C75.8147 135.713 77.4755 137.15 77.6703 139.131C77.8652 141.111 76.5203 142.886 74.6665 143.094C72.8127 143.302 71.1519 141.865 70.957 139.885Z" fill="#D9D9D9"/>
<path d="M13.996 108.838C15.504 107.667 17.6147 108.025 18.7104 109.636C19.806 111.247 19.4717 113.503 17.9637 114.673C16.4557 115.844 14.3449 115.487 13.2493 113.876C12.1536 112.264 12.4879 110.009 13.996 108.838Z" fill="#D9D9D9"/>
<path d="M17.9645 28.6318C19.4725 29.8026 19.8068 32.0579 18.7112 33.6692C17.6155 35.2805 15.5048 35.6378 13.9968 34.467C12.4887 33.2963 12.1544 31.041 13.2501 29.4297C14.3457 27.8183 16.4564 27.4611 17.9645 28.6318Z" fill="#D9D9D9"/>
<path d="M77.6708 4.17523C77.4759 6.15605 75.8152 7.59304 73.9614 7.38485C72.1075 7.17666 70.7626 5.40211 70.9575 3.42129C71.1523 1.44047 72.8131 0.00347584 74.6669 0.211667C76.5208 0.419873 77.8656 2.19441 77.6708 4.17523Z" fill="#D9D9D9"/>
<path d="M127.346 47.1961C125.643 48.0063 123.648 47.188 122.89 45.3684C122.132 43.5489 122.898 41.4171 124.6 40.607C126.303 39.7969 128.298 40.6152 129.057 42.4347C129.815 44.2543 129.049 46.386 127.346 47.1961Z" fill="#D9D9D9"/>
<path d="M117.314 114.674C115.806 113.503 115.472 111.248 116.567 109.636C117.663 108.025 119.774 107.668 121.282 108.838C122.79 110.009 123.124 112.264 122.028 113.876C120.933 115.487 118.822 115.844 117.314 114.674Z" fill="#D9D9D9"/>
<path d="M57.6077 139.13C57.8025 137.149 59.4633 135.712 61.3171 135.921C63.171 136.129 64.5158 137.903 64.321 139.884C64.1262 141.865 62.4654 143.302 60.6116 143.094C58.7577 142.886 57.4129 141.111 57.6077 139.13Z" fill="#D9D9D9"/>
<path d="M7.93246 96.1094C9.63534 95.2992 11.6304 96.1175 12.3886 97.9371C13.1468 99.7566 12.3809 101.888 10.678 102.698C8.97516 103.509 6.98008 102.69 6.22191 100.871C5.46374 99.0512 6.22957 96.9195 7.93246 96.1094Z" fill="#D9D9D9"/>
<path d="M27.4212 18.5362C28.6684 20.0163 28.5566 22.2966 27.1714 23.6294C25.7861 24.9621 23.652 24.8426 22.4047 23.3624C21.1574 21.8823 21.2693 19.602 22.6545 18.2693C24.0398 16.9365 26.1739 17.0561 27.4212 18.5362Z" fill="#D9D9D9"/>
<path d="M90.5808 7.87828C90.0048 9.77253 88.1007 10.8092 86.3279 10.1937C84.5551 9.57823 83.5849 7.54368 84.1609 5.64944C84.737 3.75518 86.6411 2.71853 88.4139 3.33403C90.1867 3.9495 91.1569 5.98404 90.5808 7.87828Z" fill="#D9D9D9"/>
<path d="M130.799 60.9948C128.976 61.4089 127.184 60.1653 126.796 58.2171C126.409 56.2689 127.573 54.3538 129.396 53.9397C131.219 53.5256 133.012 54.7693 133.399 56.7175C133.787 58.6657 132.623 60.5807 130.799 60.9948Z" fill="#D9D9D9"/>
<path d="M107.857 124.769C106.61 123.289 106.722 121.009 108.107 119.676C109.492 118.343 111.626 118.463 112.874 119.943C114.121 121.423 114.009 123.703 112.624 125.036C111.239 126.369 109.105 126.249 107.857 124.769Z" fill="#D9D9D9"/>
<path d="M44.6977 135.427C45.2737 133.533 47.1778 132.496 48.9506 133.112C50.7234 133.727 51.6936 135.762 51.1176 137.656C50.5415 139.55 48.6374 140.587 46.8646 139.971C45.0918 139.356 44.1216 137.321 44.6977 135.427Z" fill="#D9D9D9"/>
<path d="M4.4791 82.3107C6.30241 81.8966 8.09466 83.1402 8.48222 85.0884C8.86977 87.0366 7.70587 88.9516 5.88256 89.3657C4.05926 89.7799 2.267 88.5362 1.87945 86.588C1.49189 84.6398 2.6558 82.7248 4.4791 82.3107Z" fill="#D9D9D9"/>
<path d="M131.119 64.3529C127.582 27.5451 96.4774 1.05239 61.6439 5.17984C26.8104 9.30728 1.43912 42.4919 4.97555 79.2997C8.51198 116.108 39.6169 142.6 74.4504 138.473C109.284 134.345 134.655 101.161 131.119 64.3529Z" fill="#FFC462"/>
<path d="M129.634 64.6074C126.214 29.0125 96.1379 3.39225 62.4575 7.38307C28.777 11.3739 4.24603 43.4645 7.66593 79.0594C11.0858 114.654 41.1616 140.275 74.842 136.284C108.522 132.293 133.053 100.202 129.634 64.6074Z" fill="#F1A425"/>
<path d="M68.0794 108.444C87.9772 108.456 104.283 91.4059 104.51 70.3542C104.737 49.3025 88.7779 32.228 68.8801 32.216C48.9823 32.204 32.6767 49.2544 32.4494 70.3061C32.233 91.3458 48.1816 108.432 68.0794 108.444Z" fill="#D9301C"/>
<path d="M68.1308 103.722C85.563 103.732 99.848 88.7946 100.047 70.3515C100.246 51.9085 86.2644 36.9498 68.8323 36.9393C51.4001 36.9288 37.115 51.8664 36.916 70.3094C36.7264 88.742 50.6987 103.711 68.1308 103.722Z" fill="#24994D"/>
<path d="M96.0298 67.0134C94.461 50.6849 80.6622 38.9324 65.2092 40.7635C49.7563 42.5945 38.501 57.3157 40.0698 73.6441C41.6386 89.9726 55.4375 101.725 70.8904 99.8941C86.3433 98.063 97.5986 83.3419 96.0298 67.0134Z" fill="#F5AA66"/>
<path d="M72.076 85.5534C84.2957 80.8422 92.3008 71.3481 89.949 64.3428C87.5973 57.3374 75.7834 55.4734 63.5545 60.1846C51.3348 64.8958 43.3297 74.3899 45.6815 81.3953C48.0332 88.4006 59.8471 90.2646 72.076 85.5534Z" fill="#D47940"/>
<path d="M66.573 46.584C85.5712 46.8708 93.401 57.5837 93.2534 70.9287C93.1151 84.2634 81.3196 97.6186 65.7891 97.6084C60.0159 97.6084 54.6761 96.1029 50.2401 93.5424C55.0081 97.6289 61.0857 100.087 67.735 100.087C83.2656 100.097 95.9925 86.7829 96.1677 70.3551C96.3429 53.9274 83.8927 40.5926 68.3621 40.5824C55.294 40.5721 44.2455 50.0048 40.9531 62.7762C45.6197 54.7877 55.4046 46.4202 66.573 46.584Z" fill="#D47940"/>
<path d="M8.8868 78.8345C8.61522 76.0079 8.52538 73.204 8.60728 70.4359L18.7942 70.445C18.714 72.8369 18.7868 75.2611 19.0216 77.7056C19.0698 78.207 19.1245 78.706 19.1856 79.2025L9.13079 81.0045C9.03811 80.2856 8.95671 79.5622 8.8868 78.8345Z" fill="#E62425"/>
<path d="M20.9768 87.9203L11.3447 91.4439C12.3706 94.8725 13.6647 98.1605 15.1989 101.284L24.1146 96.1179C22.8629 93.513 21.8093 90.774 20.9768 87.9203Z" fill="#E62425"/>
<path d="M28.5974 103.731L20.6396 110.338C22.6869 113.169 24.9563 115.8 27.4176 118.207L34.1808 110.344C32.1513 108.317 30.2818 106.106 28.5974 103.731Z" fill="#E62425"/>
<path d="M40.8226 115.918L35.4025 124.766C38.1994 126.681 41.1554 128.349 44.2408 129.744L48.166 120.16C45.6005 118.965 43.1445 117.544 40.8226 115.918Z" fill="#E62425"/>
<path d="M56.1666 123.048L53.7834 133.068C56.9776 133.868 60.2647 134.391 63.6181 134.614L64.3997 124.433C61.5907 124.215 58.8389 123.747 56.1666 123.048Z" fill="#E62425"/>
<path d="M72.8204 124.331L73.5929 134.394C73.7474 134.377 73.9021 134.359 74.0568 134.341C77.2274 133.965 80.3145 133.333 83.3013 132.466L80.9982 122.782C78.6191 123.451 76.1654 123.942 73.6488 124.24C73.3724 124.273 73.0962 124.303 72.8204 124.331Z" fill="#E62425"/>
<path d="M88.9091 119.787L92.6228 128.854C95.6228 127.382 98.4821 125.658 101.179 123.711L96.1478 115.498C93.8657 117.126 91.4467 118.563 88.9091 119.787Z" fill="#E62425"/>
<path d="M102.697 109.937L108.873 117.118C111.246 114.719 113.43 112.121 115.402 109.353L108.229 103.398C106.558 105.731 104.708 107.919 102.697 109.937Z" fill="#E62425"/>
<path d="M112.732 95.8973L120.695 100.511C122.21 97.4518 123.495 94.2544 124.526 90.9475L115.967 87.8163C115.098 90.6114 114.013 93.3133 112.732 95.8973Z" fill="#E62425"/>
<path d="M117.91 79.1788L126.835 80.7783C127.326 77.3982 127.56 73.9424 127.518 70.4369L118.457 70.445C118.504 73.4054 118.316 76.324 117.91 79.1788Z" fill="#E62425"/>
<path d="M117.623 61.6504L126.585 60.0607C126.004 56.6198 125.162 53.2897 124.084 50.091L115.462 53.262C116.39 55.9517 117.117 58.7537 117.623 61.6504Z" fill="#E62425"/>
<path d="M111.975 45.3118L120.033 40.6617C118.446 37.6648 116.634 34.8299 114.623 32.1794L107.367 38.224C109.077 40.4362 110.62 42.8051 111.975 45.3118Z" fill="#E62425"/>
<path d="M101.677 31.9984L107.947 24.7332C105.564 22.4807 103.009 20.4349 100.309 18.6181L95.2285 26.9427C97.5058 28.4412 99.6626 30.1326 101.677 31.9984Z" fill="#E62425"/>
<path d="M88.0353 23.0355L91.8028 13.8789C88.9033 12.5718 85.8899 11.5051 82.787 10.6999L80.4811 20.4637C83.0789 21.1085 85.6038 21.9716 88.0353 23.0355Z" fill="#E62425"/>
<path d="M72.5578 19.2059L73.3496 9.09878C70.2452 8.84315 67.0815 8.84404 63.8799 9.11957L64.6775 19.3013C67.3404 19.0475 69.9729 19.0206 72.5578 19.2059Z" fill="#E62425"/>
<path d="M56.8069 20.718L54.4481 10.7304C51.3315 11.5352 48.3182 12.5938 45.4265 13.8823L49.3397 23.3931C51.733 22.3064 54.227 21.4082 56.8069 20.718Z" fill="#E62425"/>
<path d="M42.2488 27.3513L36.8917 18.574C34.1666 20.3798 31.5933 22.4075 29.1921 24.6301L35.8963 32.3987C37.878 30.55 40.001 28.8603 42.2488 27.3513Z" fill="#E62425"/>
<path d="M30.2659 38.5617L22.4038 32.0119C20.3337 34.6576 18.4648 37.478 16.8187 40.4444L25.6569 45.5449C27.0171 43.0903 28.5593 40.755 30.2659 38.5617Z" fill="#E62425"/>
<path d="M22.0893 53.3811L12.5304 49.8652C11.3555 53.1037 10.4264 56.4599 9.76506 59.9051L19.7872 61.6829C20.3422 58.8348 21.1154 56.0599 22.0893 53.3811Z" fill="#E62425"/>
<path d="M19.1913 79.2569L9.13453 81.0408C9.59729 84.6149 10.3388 88.0782 11.3334 91.4089L20.9606 87.8679C20.1559 85.0994 19.5593 82.2231 19.1913 79.2569Z" fill="#18A24F"/>
<path d="M24.1369 96.1659L15.2137 101.315C16.7765 104.492 18.5878 107.499 20.618 110.309L28.566 103.688C26.8999 101.334 25.4155 98.8196 24.1369 96.1659Z" fill="#18A24F"/>
<path d="M34.2167 110.381L27.4415 118.231C29.9038 120.637 32.5577 122.817 35.3731 124.747L40.7796 115.888C38.448 114.252 36.252 112.409 34.2167 110.381Z" fill="#18A24F"/>
<path d="M48.2111 120.182L44.2711 129.758C47.3142 131.131 50.4829 132.24 53.749 133.06L56.1167 123.035C53.3906 122.318 50.7475 121.36 48.2111 120.182Z" fill="#18A24F"/>
<path d="M64.4491 124.437L63.6517 134.616C66.8994 134.831 70.2093 134.765 73.5572 134.398L72.7689 124.336C69.9556 124.617 67.1755 124.645 64.4491 124.437Z" fill="#18A24F"/>
<path d="M81.0464 122.768L83.3343 132.456C86.542 131.522 89.6339 130.318 92.5895 128.87L88.8617 119.809C86.3652 121.01 83.7543 122.004 81.0464 122.768Z" fill="#18A24F"/>
<path d="M96.1894 115.467L101.208 123.69C103.926 121.725 106.48 119.533 108.846 117.144L102.659 109.975C100.655 111.982 98.4919 113.822 96.1894 115.467Z" fill="#18A24F"/>
<path d="M108.26 103.354L115.423 109.322C117.393 106.556 119.152 103.62 120.677 100.545L112.707 95.9457C111.417 98.5429 109.928 101.021 108.26 103.354Z" fill="#18A24F"/>
<path d="M115.982 87.7638L124.537 90.9103C125.554 87.6433 126.325 84.2696 126.828 80.8168L117.902 79.2333C117.484 82.1516 116.838 85.003 115.982 87.7638Z" fill="#18A24F"/>
<path d="M118.455 70.3892L127.516 70.3973C127.493 68.5486 127.393 66.6861 127.213 64.8137C127.06 63.2211 126.852 61.649 126.591 60.0995L117.632 61.7051C117.875 63.0998 118.066 64.5165 118.204 65.9531C118.347 67.4402 118.43 68.9198 118.455 70.3892Z" fill="#18A24F"/>
<path d="M115.443 53.2091L124.07 50.0532C122.968 46.7902 121.619 43.664 120.05 40.6964L112 45.3605C113.341 47.8477 114.496 50.47 115.443 53.2091Z" fill="#18A24F"/>
<path d="M107.332 38.1798L114.598 32.1477C112.581 29.4922 110.364 27.0221 107.974 24.7601L101.717 32.0357C103.74 33.914 105.62 35.9684 107.332 38.1798Z" fill="#18A24F"/>
<path d="M95.1815 26.9122L100.276 18.5959C97.5974 16.7963 94.7761 15.222 91.8375 13.8948L88.0847 23.0573C90.5538 24.1411 92.9266 25.4321 95.1815 26.9122Z" fill="#18A24F"/>
<path d="M80.4268 20.4503L82.7481 10.6898C79.7061 9.90266 76.5782 9.36674 73.3876 9.10177L72.6116 19.2096C75.2737 19.4036 77.8851 19.8225 80.4268 20.4503Z" fill="#18A24F"/>
<path d="M64.6217 19.3063L63.84 9.1227C63.2422 9.17456 62.6431 9.23599 62.0428 9.30712C59.4653 9.61252 56.9431 10.0875 54.4851 10.7204L56.8593 20.7035C59.0403 20.1227 61.2824 19.6905 63.5768 19.4186C63.9256 19.3773 64.2739 19.3399 64.6217 19.3063Z" fill="#18A24F"/>
<path d="M49.2881 23.4159L45.3897 13.898C42.4339 15.2176 39.6053 16.7774 36.9234 18.5521L42.2942 27.32C44.5099 25.8362 46.8465 24.5279 49.2881 23.4159Z" fill="#18A24F"/>
<path d="M35.8543 32.4368L29.1624 24.6565C26.7337 26.9076 24.4814 29.3583 22.4269 31.9809L30.2996 38.517C31.9951 36.3427 33.8524 34.3085 35.8543 32.4368Z" fill="#18A24F"/>
<path d="M25.6286 45.594L16.7989 40.4781C15.148 43.4575 13.7218 46.584 12.5425 49.8289L22.1076 53.328C23.0859 50.6455 24.2655 48.0598 25.6286 45.594Z" fill="#18A24F"/>
<path d="M19.7756 61.7376L9.75693 59.9421C9.10481 63.3498 8.71457 66.8444 8.60742 70.3983L18.7951 70.3892C18.8965 67.4488 19.2291 64.5575 19.7756 61.7376Z" fill="#18A24F"/>
</svg>
