<svg width="149" height="149" viewBox="0 0 149 149" fill="none" xmlns="http://www.w3.org/2000/svg">
<path d="M75.2016 140.773C111.929 140.773 141.704 111 141.706 74.2734C141.709 37.5465 111.938 7.77344 75.2109 7.77344C38.484 7.77344 8.70885 37.5465 8.70628 74.2734C8.70371 111 38.4747 140.773 75.2016 140.773Z" fill="#481D17"/>
<path fill-rule="evenodd" clip-rule="evenodd" d="M13.8361 74.6376C13.8361 108.324 41.1416 135.627 74.8164 135.63C108.491 135.633 135.797 108.334 135.797 74.6478C135.797 40.9617 108.491 13.6581 74.8164 13.6553C41.1416 13.6525 13.8361 40.9516 13.8361 74.6376ZM74.8164 146.643C35.0482 146.639 2.8164 114.398 2.8164 74.6367C2.8164 34.8759 35.0482 2.63941 74.8164 2.64272C114.585 2.64604 146.816 34.8879 146.816 74.6487C146.816 114.41 114.585 146.646 74.8164 146.643Z" fill="black"/>
</svg>
