<svg width="78" height="78" viewBox="0 0 78 78" fill="none" xmlns="http://www.w3.org/2000/svg">
<path d="M7.31249 39.2103C7.31249 56.3311 21.1917 70.213 38.3125 70.2165C55.4333 70.2199 69.3125 56.3435 69.3125 39.2227C69.3125 22.1018 55.4333 8.21988 38.3125 8.21646C21.1917 8.21304 7.3125 22.0894 7.31249 39.2103Z" fill="#A53E35"/>
<path fill-rule="evenodd" clip-rule="evenodd" d="M64.0739 38.7204C64.0739 24.771 52.7651 13.4585 38.8125 13.4557C24.8599 13.4529 13.5511 24.7607 13.5511 38.7101C13.5511 52.6595 24.8599 63.972 38.8125 63.9748C52.7651 63.9776 64.0739 52.6698 64.0739 38.7204ZM38.8125 2.21526C58.9698 2.21935 75.3125 18.5632 75.3125 38.7227C75.3125 58.8821 58.9698 75.2193 38.8125 75.2153C18.6552 75.2112 2.3125 58.8673 2.3125 38.7079C2.3125 18.5484 18.6552 2.21118 38.8125 2.21526Z" fill="black"/>
</svg>
