<svg width="78" height="78" viewBox="0 0 78 78" fill="none" xmlns="http://www.w3.org/2000/svg">
<path d="M7.07421 39.6243C7.07421 56.7452 20.9534 70.6271 38.0742 70.6305C55.195 70.6339 69.0742 56.7575 69.0742 39.6367C69.0742 22.5159 55.195 8.63395 38.0742 8.63052C20.9534 8.6271 7.07421 22.5035 7.07421 39.6243Z" fill="#D9A487"/>
<path fill-rule="evenodd" clip-rule="evenodd" d="M63.8357 39.1344C63.8357 25.185 52.5268 13.8726 38.5742 13.8698C24.6217 13.8669 13.3128 25.1748 13.3128 39.1242C13.3128 53.0736 24.6217 64.386 38.5742 64.3889C52.5268 64.3917 63.8357 53.0838 63.8357 39.1344ZM38.5742 2.62932C58.7316 2.63341 75.0742 18.9773 75.0742 39.1367C75.0742 59.2962 58.7316 75.6334 38.5742 75.6293C18.4169 75.6252 2.07422 59.2814 2.07422 39.1219C2.07422 18.9625 18.4169 2.62524 38.5742 2.62932Z" fill="black"/>
</svg>
