<svg width="148" height="149" viewBox="0 0 148 149" fill="none" xmlns="http://www.w3.org/2000/svg">
<path d="M140.768 78.0314C142.984 41.3713 115.061 9.85458 78.4008 7.63677C41.7409 5.41895 10.2263 33.3399 8.01107 70C5.79582 106.66 33.7187 138.177 70.3786 140.395C107.039 142.612 138.553 114.691 140.768 78.0314Z" fill="#682D07"/>
<path fill-rule="evenodd" clip-rule="evenodd" d="M13.0197 74.622C13.0197 108.308 40.3252 135.612 74 135.615C107.675 135.617 134.98 108.318 134.98 74.6322C134.98 40.9461 107.675 13.6425 74 13.6397C40.3252 13.6368 13.0197 40.9359 13.0197 74.622ZM74 146.627C34.2318 146.624 2 114.382 2 74.6211C2 34.8603 34.2318 2.62378 74 2.6271C113.768 2.63042 146 34.8723 146 74.6331C146 114.394 113.768 146.63 74 146.627Z" fill="black"/>
</svg>
