<svg width="149" height="149" viewBox="0 0 149 149" fill="none" xmlns="http://www.w3.org/2000/svg">
<path d="M74.9985 140.773C111.725 140.773 141.501 111 141.503 74.2734C141.506 37.5465 111.735 7.77344 75.0078 7.77344C38.2809 7.77344 8.50573 37.5465 8.50316 74.2734C8.50059 111 38.2716 140.773 74.9985 140.773Z" fill="#471A0B"/>
<path fill-rule="evenodd" clip-rule="evenodd" d="M13.633 74.6376C13.633 108.324 40.9385 135.627 74.6133 135.63C108.288 135.633 135.594 108.334 135.594 74.6478C135.594 40.9617 108.288 13.6581 74.6133 13.6553C40.9385 13.6525 13.633 40.9516 13.633 74.6376ZM74.6133 146.643C34.8451 146.639 2.61328 114.398 2.61328 74.6367C2.61328 34.8759 34.8451 2.63941 74.6133 2.64272C114.381 2.64604 146.613 34.8879 146.613 74.6487C146.613 114.41 114.381 146.646 74.6133 146.643Z" fill="black"/>
</svg>
