<svg width="77" height="78" viewBox="0 0 77 78" fill="none" xmlns="http://www.w3.org/2000/svg">
<path fill-rule="evenodd" clip-rule="evenodd" d="M69.4813 45.853C71.3043 48.077 72.5265 50.8159 72.8932 53.8238C74.9692 56.17 76.2294 59.2549 76.2294 62.6342C76.2294 69.98 70.2746 75.9348 62.9288 75.9348H15.076C7.73013 75.9348 1.77539 69.98 1.77539 62.6342C1.77539 59.2547 3.03568 56.1697 5.11192 53.8234C5.47945 50.8089 6.70622 48.0647 8.53594 45.8382C8.76037 43.8943 8.98585 41.9409 9.21194 39.9812C8.92169 38.7223 8.83463 37.4033 8.9757 36.0725C9.10991 34.8064 9.36351 32.5387 9.50153 31.31C9.66175 29.8836 10.0664 28.5422 10.67 27.3238C11.0373 24.129 11.4036 20.9367 11.767 17.7609C12.6692 9.88091 19.3389 3.93457 27.2669 3.93457L50.744 3.93457C58.6763 3.93457 65.3379 9.88474 66.2432 17.7545L66.2433 17.7556C66.6129 20.9711 66.9826 24.1823 67.3525 27.3914C67.9381 28.5918 68.331 29.9089 68.4888 31.3056L68.9794 35.6493C69.1351 37.0275 69.0517 38.3702 68.7651 39.6397C69.0027 41.7 69.2417 43.773 69.4813 45.853ZM23.4679 64.9348H27.0514H23.4679Z" fill="black"/>
<path d="M59.8809 58.667C59.0211 51.166 58.1506 43.6219 57.3053 36.2911C56.6414 30.5384 55.9776 24.7821 55.3144 19.0114C55.0472 16.6886 53.0815 14.9344 50.7431 14.9344L27.2661 14.9344C24.9271 14.9344 22.9608 16.688 22.6948 19.0114C21.439 29.9848 20.1491 41.153 18.9048 51.9299L18.1271 58.667L59.8809 58.667Z" fill="#BD003B"/>
<path d="M61.9844 60.8018C62 60.6478 62.0078 55.732 62.0078 55.732C62.0078 53.1906 59.948 51.1308 57.4066 51.1308L20.5968 51.1308C18.0553 51.1308 15.9955 53.1906 15.9955 55.732C15.9955 55.732 16.0033 60.6478 16.0189 60.8018L61.9844 60.8018Z" fill="#E50048"/>
<path d="M57.057 37.996C57.6527 37.9945 58.1149 37.4757 58.0481 36.8838L57.5574 32.5401C57.5003 32.0345 57.0726 31.6523 56.5637 31.6523L21.425 31.6523C20.9161 31.6523 20.4887 32.032 20.4319 32.5377C20.293 33.7748 20.0434 36.0065 19.9136 37.2318C19.8611 37.7269 20.1998 38.0931 20.6976 38.0918L57.057 37.996Z" fill="#E50048"/>
<path d="M15.0751 60.3333L62.9279 60.3333C64.1986 60.3333 65.2285 61.3632 65.2285 62.634C65.2285 63.9047 64.1986 64.9346 62.9279 64.9346L15.0751 64.9346C13.8044 64.9346 12.7745 63.9047 12.7745 62.634C12.7745 61.3632 13.8044 60.3333 15.0751 60.3333Z" fill="#F6EFEA"/>
</svg>
