<svg width="77" height="77" viewBox="0 0 77 77" fill="none" xmlns="http://www.w3.org/2000/svg">
<mask id="mask0" mask-type="alpha" maskUnits="userSpaceOnUse" x="0" y="0" width="77" height="77">
<path d="M76.7519 38.7897C76.7519 17.8082 59.7388 0.80024 38.7519 0.801358C17.7651 0.802476 0.751951 17.8123 0.751952 38.7938C0.751953 59.7753 17.7651 76.7832 38.7519 76.7821C59.7388 76.781 76.7519 59.7712 76.7519 38.7897Z" fill="#3CA3CF"/>
</mask>
<g mask="url(#mask0)">
<path d="M26.6194 -45.8732H-47.5332V28.2807H26.6194V-45.8732Z" fill="#007878"/>
<g style="mix-blend-mode:multiply">
<path d="M-9.5332 -1.53053L6.10345 1.18365L0.55872 -13.3038L-9.5332 -1.53053Z" fill="#007878"/>
</g>
<path d="M18.1382 9.29663L13.4898 14.2996L8.49191 9.65109L5.65625 12.7045L10.6541 17.348L6.01071 22.346L9.05905 25.1817L13.7075 20.1837L18.7054 24.8272L21.541 21.7788L16.5432 17.1303L21.1866 12.1323L18.1382 9.29663Z" fill="#2BCCB5"/>
<path d="M19.1875 0.723876V-10.2291" stroke="#284664" stroke-width="2.17692" stroke-miterlimit="10" stroke-linecap="round"/>
<path d="M-26.7559 16.6288C-21.6922 14.9122 -20.4972 18.4822 -15.4487 16.7605C-10.4002 15.0388 -11.6205 11.4739 -6.57709 9.75221C-1.53366 8.03053 -0.313315 11.6005 4.73011 9.88386C9.77354 8.16724 8.55826 4.59223 13.6017 2.87561" stroke="#E6E7E8" stroke-width="0.990415" stroke-miterlimit="10" stroke-linecap="round"/>
<path d="M-24.9668 21.9205C-19.9031 20.2039 -18.7081 23.7739 -13.6596 22.0522C-8.6111 20.3305 -9.83145 16.7656 -4.78802 15.0439C0.25541 13.3222 1.47575 16.8973 6.51918 15.1756C11.5626 13.4539 10.3473 9.88395 15.3908 8.16733" stroke="#E6E7E8" stroke-width="0.990415" stroke-miterlimit="10" stroke-linecap="round"/>
<path d="M100.77 -45.8732H26.6172V28.2807H100.77V-45.8732Z" fill="#007878"/>
<g style="mix-blend-mode:multiply">
<path d="M46.1316 26.8623C54.6892 26.8623 61.6265 19.9249 61.6265 11.3672C61.6265 2.80948 54.6892 -4.12793 46.1316 -4.12793C37.574 -4.12793 30.6367 2.80948 30.6367 11.3672C30.6367 19.9249 37.574 26.8623 46.1316 26.8623Z" stroke="#007878" stroke-width="1.56206" stroke-miterlimit="10"/>
</g>
<g style="mix-blend-mode:multiply">
<path d="M64.6152 -1.53053L80.2519 1.18365L74.7072 -13.3038L64.6152 -1.53053Z" fill="#007878"/>
</g>
<path d="M47.375 16.6288C52.4387 14.9122 53.6337 18.4822 58.6822 16.7605C63.7307 15.0388 62.5103 11.4739 67.5538 9.75221C72.5972 8.03053 73.8175 11.6005 78.861 9.88386C83.9044 8.16724 82.6891 4.59223 87.7325 2.87561" stroke="#E6E7E8" stroke-width="0.990415" stroke-miterlimit="10" stroke-linecap="round"/>
<path d="M49.1914 21.9205C54.2551 20.2039 55.4501 23.7739 60.4986 22.0522C65.5471 20.3305 64.3268 16.7656 69.3702 15.0439C74.4136 13.3222 75.634 16.8973 80.6774 15.1756C85.7208 13.4539 84.5055 9.88395 89.549 8.16733" stroke="#E6E7E8" stroke-width="0.990415" stroke-miterlimit="10" stroke-linecap="round"/>
<path d="M26.6194 28.28H-47.5332V102.434H26.6194V28.28Z" fill="#007878"/>
<g style="mix-blend-mode:multiply">
<path d="M-9.5332 72.6241L6.10345 75.3332L0.55872 60.8509L-9.5332 72.6241Z" fill="#007878"/>
</g>
<path d="M-12.1445 70.5172L3.49211 73.2263L-2.05262 58.744L-12.1445 70.5172Z" fill="#FF9600"/>
<g style="mix-blend-mode:multiply">
<path d="M10.5837 56.8809C16.5432 56.8809 21.3744 52.0497 21.3744 46.09C21.3744 40.1304 16.5432 35.2991 10.5837 35.2991C4.62413 35.2991 -0.207031 40.1304 -0.207031 46.09C-0.207031 52.0497 4.62413 56.8809 10.5837 56.8809Z" stroke="#007878" stroke-width="1.09012" stroke-miterlimit="10"/>
</g>
<path d="M19.1875 74.8772V63.9293" stroke="#284664" stroke-width="2.17692" stroke-miterlimit="10" stroke-linecap="round"/>
<path d="M-26.7559 90.7835C-21.6922 89.0669 -20.4972 92.6368 -15.4487 90.9151C-10.4002 89.1935 -11.6205 85.6286 -6.57709 83.9069C-1.53366 82.1852 -0.313315 85.7552 4.73011 84.0385C9.77354 82.3219 8.55826 78.7469 13.6017 77.0303" stroke="#E6E7E8" stroke-width="0.990415" stroke-miterlimit="10" stroke-linecap="round"/>
<path d="M100.77 28.28H26.6172V102.434H100.77V28.28Z" fill="#007878"/>
<g style="mix-blend-mode:multiply">
<path d="M46.1316 101.017C54.6892 101.017 61.6265 94.0796 61.6265 85.5219C61.6265 76.9641 54.6892 70.0267 46.1316 70.0267C37.574 70.0267 30.6367 76.9641 30.6367 85.5219C30.6367 94.0796 37.574 101.017 46.1316 101.017Z" stroke="#007878" stroke-width="1.56206" stroke-miterlimit="10"/>
</g>
<path d="M66.6087 38.5277L50.4805 32.22L44.1729 48.3485L60.3011 54.6562L66.6087 38.5277Z" stroke="#E6E7E8" stroke-width="1.243" stroke-miterlimit="10"/>
<path d="M41.4717 55.5951L35.5176 50.7889L30.7113 56.7434L36.6654 61.5496L41.4717 55.5951Z" stroke="#E6E7E8" stroke-width="0.548384" stroke-miterlimit="10"/>
<g style="mix-blend-mode:multiply">
<path d="M64.6152 72.6241L80.2519 75.3332L74.7072 60.8509L64.6152 72.6241Z" fill="#007878"/>
</g>
<path d="M62.002 70.5172L77.6386 73.2263L72.0939 58.744L62.002 70.5172Z" fill="#FF9600"/>
<g style="mix-blend-mode:multiply">
<path d="M84.7341 56.8809C90.6936 56.8809 95.5248 52.0497 95.5248 46.09C95.5248 40.1304 90.6936 35.2991 84.7341 35.2991C78.7745 35.2991 73.9434 40.1304 73.9434 46.09C73.9434 52.0497 78.7745 56.8809 84.7341 56.8809Z" stroke="#007878" stroke-width="1.09012" stroke-miterlimit="10"/>
</g>
<path d="M39.9102 56.2729L58.19 48.2722" stroke="#FF9600" stroke-width="0.777708" stroke-miterlimit="10"/>
<path d="M41.4902 59.6304L59.7701 51.6296" stroke="#FF9600" stroke-width="0.777708" stroke-miterlimit="10"/>
<path d="M43.0645 62.9884L61.3443 54.9826" stroke="#FF9600" stroke-width="0.777708" stroke-miterlimit="10"/>
<path d="M44.6406 66.3451L62.9205 58.3393" stroke="#FF9600" stroke-width="0.777708" stroke-miterlimit="10"/>
<path d="M39.858 42.6268L32.7891 34.2665" stroke="#284664" stroke-width="2.17692" stroke-miterlimit="10" stroke-linecap="round"/>
<path d="M47.375 90.7835C52.4387 89.0669 53.6337 92.6368 58.6822 90.9151C63.7307 89.1935 62.5103 85.6286 67.5538 83.9069C72.5972 82.1852 73.8175 85.7552 78.861 84.0385C83.9044 82.3219 82.6891 78.7469 87.7325 77.0303" stroke="#E6E7E8" stroke-width="0.990415" stroke-miterlimit="10" stroke-linecap="round"/>
</g>
<path d="M38.752 6.79933C56.4262 6.80286 70.752 21.1303 70.752 38.7981C70.752 56.4659 56.4262 70.7877 38.752 70.7841C21.0777 70.7806 6.75195 56.4531 6.75195 38.7853C6.75195 21.1176 21.0777 6.7958 38.752 6.79933Z" stroke="#333333" stroke-width="12" stroke-miterlimit="10"/>
</svg>
