<svg width="77" height="78" viewBox="0 0 77 78" fill="none" xmlns="http://www.w3.org/2000/svg">
<path d="M64 39.7809C64 25.4215 52.3594 13.7786 38 13.7757C23.6406 13.7728 12 25.4111 12 39.7705C12 54.1299 23.6406 65.7728 38 65.7757C52.3594 65.7786 64 54.1403 64 39.7809Z" fill="url(#paint0_linear_1762_474)"/>
<path d="M64 39.7809C64 25.4215 52.3594 13.7786 38 13.7757C23.6406 13.7728 12 25.4111 12 39.7705C12 54.1299 23.6406 65.7728 38 65.7757C52.3594 65.7786 64 54.1403 64 39.7809Z" fill="#D5D5D5"/>
<path d="M11.9996 39.7631C11.9996 25.4133 23.6324 13.7781 37.9822 13.7753C52.332 13.7724 63.9648 25.4029 63.9648 39.7527C63.9648 54.1025 52.332 65.7377 37.9822 65.7405C23.6324 65.7434 11.9996 54.1129 11.9996 39.7631Z" fill="#25A558"/>
<path d="M47.7843 65.8509C45.9074 67.6984 40.1838 65.6992 38.3356 67.4837L10.9269 40.075C12.7419 38.1962 10.8324 32.5929 12.6622 30.7288L47.7843 65.8509Z" fill="#00E5B9"/>
<path d="M63.0831 58.9018C61.2435 60.7561 59.3814 62.6182 57.5094 64.4706L13.9276 20.8888C15.7672 19.0346 17.6293 17.1724 19.4787 15.3279L63.0831 58.9018Z" fill="#00E5B9"/>
<path d="M66.1019 39.7474C64.2868 41.6262 66.294 47.3271 64.4465 49.2039L29.3048 14.0623C31.1817 12.2148 36.785 14.1243 38.6589 12.3044L66.1019 39.7474Z" fill="#00E5B9"/>
<path d="M47.787 65.849C45.9101 67.6965 40.1865 65.6973 38.3383 67.4819L10.9296 40.0731C12.7446 38.1944 10.8351 32.591 12.6649 30.727L47.787 65.849Z" fill="#00E5B9"/>
<path fill-rule="evenodd" clip-rule="evenodd" d="M13.1023 39.7727C13.1023 53.5407 24.2581 64.6883 38 64.691C51.7419 64.6938 62.8977 53.5506 62.8977 39.7827C62.8977 26.0147 51.7419 14.8671 38 14.8644C24.2581 14.8616 13.1023 26.0048 13.1023 39.7727ZM38 75.7777C18.109 75.7737 2 59.6441 2 39.7705C2 19.8969 18.109 3.77373 38 3.7777C57.8909 3.78168 74 19.9113 74 39.7849C74 59.6585 57.8909 75.7817 38 75.7777Z" fill="black"/>
<defs>
<linearGradient id="paint0_linear_1762_474" x1="12" y1="39.7705" x2="59" y2="55.7705" gradientUnits="userSpaceOnUse">
<stop stop-color="#B00000"/>
<stop offset="0.234375" stop-color="#D8B500"/>
<stop offset="0.520833" stop-color="#00A807"/>
<stop offset="0.776042" stop-color="#750093"/>
<stop offset="1" stop-color="#C40098"/>
</linearGradient>
</defs>
</svg>
