<svg width="149" height="149" viewBox="0 0 149 149" fill="none" xmlns="http://www.w3.org/2000/svg">
<path d="M140.827 78.09C143.042 41.4299 115.119 9.91318 78.4594 7.69536C41.7995 5.47755 10.2849 33.3985 8.06966 70.0586C5.85441 106.719 33.7773 138.235 70.4372 140.453C107.097 142.671 138.612 114.75 140.827 78.09Z" fill="#363636"/>
<path fill-rule="evenodd" clip-rule="evenodd" d="M13.0783 74.4384C13.0783 108.125 40.3838 135.428 74.0586 135.431C107.733 135.434 135.039 108.135 135.039 74.4486C135.039 40.7625 107.733 13.4589 74.0586 13.4561C40.3838 13.4533 13.0783 40.7523 13.0783 74.4384ZM74.0586 146.444C34.2904 146.44 2.05859 114.198 2.05859 74.4375C2.05859 34.6767 34.2904 2.44019 74.0586 2.44351C113.827 2.44682 146.059 34.6887 146.059 74.4495C146.059 114.21 113.827 146.447 74.0586 146.444Z" fill="black"/>
</svg>
