<svg width="149" height="149" viewBox="0 0 149 149" fill="none" xmlns="http://www.w3.org/2000/svg">
<path d="M141.268 78.3507C143.484 41.6907 115.561 10.1739 78.9008 7.9561C42.2409 5.73829 10.7263 33.6593 8.51107 70.3193C6.29582 106.979 34.2187 138.496 70.8786 140.714C107.539 142.932 139.053 115.011 141.268 78.3507Z" fill="#909090"/>
<path fill-rule="evenodd" clip-rule="evenodd" d="M13.5197 74.6992C13.5197 108.385 40.8252 135.689 74.5 135.692C108.175 135.695 135.48 108.395 135.48 74.7093C135.48 41.0233 108.175 13.7196 74.5 13.7168C40.8252 13.714 13.5197 41.0131 13.5197 74.6992ZM74.5 146.704C34.7318 146.701 2.5 114.459 2.5 74.6982C2.5 34.9374 34.7318 2.70093 74.5 2.70425C114.268 2.70756 146.5 34.9494 146.5 74.7103C146.5 114.471 114.268 146.708 74.5 146.704Z" fill="black"/>
</svg>
