<svg width="77" height="78" viewBox="0 0 77 78" fill="none" xmlns="http://www.w3.org/2000/svg">
<path d="M6.99999 39.222C6.99999 56.3428 20.8792 70.2248 38 70.2282C55.1208 70.2316 69 56.3552 69 39.2344C69 22.1135 55.1208 8.2316 38 8.22818C20.8792 8.22476 7 22.1012 6.99999 39.222Z" fill="#CF044D"/>
<path fill-rule="evenodd" clip-rule="evenodd" d="M63.7614 38.7321C63.7614 24.7827 52.4526 13.4703 38.5 13.4674C24.5474 13.4646 13.2386 24.7725 13.2386 38.7219C13.2386 52.6713 24.5474 63.9837 38.5 63.9865C52.4526 63.9893 63.7614 52.6815 63.7614 38.7321ZM38.5 2.22698C58.6573 2.23106 75 18.5749 75 38.7344C75 58.8938 58.6573 75.2311 38.5 75.227C18.3427 75.2229 2 58.879 2 38.7196C2 18.5601 18.3427 2.2229 38.5 2.22698Z" fill="black"/>
</svg>
