<svg width="149" height="149" viewBox="0 0 149 149" fill="none" xmlns="http://www.w3.org/2000/svg">
<path d="M74.5766 140.773C111.304 140.773 141.079 111 141.081 74.2734C141.084 37.5465 111.313 7.77344 74.5859 7.77344C37.859 7.77344 8.08385 37.5465 8.08128 74.2734C8.07871 111 37.8497 140.773 74.5766 140.773Z" fill="#634B32"/>
<path fill-rule="evenodd" clip-rule="evenodd" d="M13.2111 74.6376C13.2111 108.324 40.5166 135.627 74.1914 135.63C107.866 135.633 135.172 108.334 135.172 74.6478C135.172 40.9617 107.866 13.6581 74.1914 13.6553C40.5166 13.6525 13.2111 40.9516 13.2111 74.6376ZM74.1914 146.643C34.4232 146.639 2.1914 114.398 2.1914 74.6367C2.1914 34.8759 34.4232 2.63941 74.1914 2.64272C113.96 2.64604 146.191 34.8879 146.191 74.6487C146.191 114.41 113.96 146.646 74.1914 146.643Z" fill="black"/>
</svg>
