<svg width="78" height="78" viewBox="0 0 78 78" fill="none" xmlns="http://www.w3.org/2000/svg">
<path d="M75.4951 38.6967C75.4951 18.5383 59.1535 2.19345 38.9951 2.18942C18.8367 2.18539 2.49511 18.5237 2.49512 38.6821C2.49512 58.8405 18.8367 75.1854 38.9951 75.1894C59.1535 75.1935 75.4951 58.8551 75.4951 38.6967Z" fill="url(#paint0_linear)"/>
<path d="M38.9952 68.844C22.0443 68.844 8.30292 55.34 8.30292 38.682C8.30292 22.024 22.0443 8.52002 38.9952 8.52002C55.9461 8.52002 69.6875 22.024 69.6875 38.682C69.6875 55.34 55.9461 68.844 38.9952 68.844Z" fill="#F08300"/>
<path d="M38.9952 60.3743C27.0149 60.3743 17.3029 50.6624 17.3029 38.682C17.3029 26.7017 27.0149 16.9897 38.9952 16.9897C50.9755 16.9897 60.6875 26.7017 60.6875 38.682C60.6875 50.6624 50.9755 60.3743 38.9952 60.3743Z" fill="#FFFBD6"/>
<path d="M42.0817 26.6068C42.2701 25.4295 42.3172 24.1579 42.5527 22.9806C43.0707 20.5788 45.2841 21.3323 46.9795 21.9916C49.0046 22.7922 54.703 26.1359 53.1018 29.0086C52.3012 30.4685 50.4645 31.3633 49.0517 32.211C47.2621 33.2942 45.4254 34.2361 43.73 35.4605C43.2591 35.8373 42.8352 36.2611 42.3172 36.5908C39.1619 38.71 41.1869 31.3633 41.4224 30.2802C41.6579 29.1028 41.8933 27.8313 42.0817 26.6068Z" fill="#F18B2D"/>
<path d="M42.5051 37.7213C42.4109 37.3917 42.5993 37.0149 43.3057 36.5911C44.8598 35.6021 46.5081 34.6131 48.0622 33.6241C49.5221 32.7293 51.0763 31.9287 52.5362 31.034C53.2426 30.6101 54.4199 29.6211 55.2676 30.0921C56.8218 30.9869 57.0572 34.6131 57.1985 36.1672C57.3398 37.7213 57.7165 41.9127 55.2676 41.8185C55.2205 41.8185 55.2205 41.8185 55.2205 41.8185C54.4199 41.536 53.6193 41.2534 52.8187 40.9708C51.1233 40.4057 49.3809 39.9348 47.6384 39.4638C46.7907 39.2754 42.8819 38.8045 42.5051 37.7213Z" fill="#F18B2D"/>
<path d="M41.28 39.181C41.4213 39.134 41.6568 38.9927 41.8923 39.0869C45.8482 40.0758 49.9454 41.0177 53.8071 42.3835C54.4664 42.6189 55.1258 42.8544 55.7851 43.0428C55.9264 43.2782 56.1147 43.4666 56.256 43.7021C56.5857 44.2672 56.3502 45.0678 56.1618 45.633C55.8793 46.3865 55.5496 47.0458 55.1258 47.7051C54.5606 48.5528 54.0426 49.4947 53.4304 50.2953C52.6298 51.3785 51.264 53.2151 49.757 53.1209C47.9203 52.9797 47.0726 50.2011 46.272 48.9296C45.1418 47.14 44.1057 45.3033 42.9283 43.5608C42.4103 42.8544 39.6318 39.7462 41.28 39.181Z" fill="#F18B2D"/>
<path d="M36.1475 55.4286C36.1475 55.3344 36.1475 55.2873 36.1004 55.2402C36.1475 55.146 36.1475 55.0989 36.1946 55.0048C36.2417 54.9106 36.1946 54.8635 36.1475 54.8164C37.2307 50.2011 38.2667 45.5859 39.2557 40.9236C39.3028 40.8765 39.3499 40.8765 39.397 40.7823C39.5854 40.3114 39.9621 40.4055 40.2918 40.6881C42.1285 43.5609 43.8709 46.5278 45.7076 49.4005C46.3198 50.3424 46.9321 51.3314 47.5443 52.3204C47.5443 52.3675 47.5443 52.4146 47.5914 52.4617C47.6385 52.5559 47.7327 52.65 47.7798 52.6971C48.0152 53.5919 48.2507 54.5809 47.2146 55.1931C46.6966 55.4757 46.1786 55.7112 45.6134 55.8995C44.6715 56.2292 43.7297 56.5589 42.7407 56.7472C40.7156 57.1711 38.408 57.4537 36.43 56.6531C36.1475 56.3234 36.0062 55.9466 36.1475 55.4286Z" fill="#F18B2D"/>
<path d="M22.6786 34.0951C21.9721 33.6713 21.7367 32.9177 21.7838 32.1642C22.7257 29.7624 24.0914 27.6432 25.881 25.8065C27.0112 24.8175 28.3299 24.1582 30.1194 24.3466C30.1665 24.3466 30.1665 24.3937 30.2136 24.3937C32.5213 28.3967 35.0172 32.3055 37.5603 36.2143C38.2197 37.2975 36.8068 37.2033 36.1475 37.062C32.1916 36.2143 28.2357 35.3667 24.3269 34.566C23.8088 34.4719 23.2908 34.3306 22.7727 34.2364C22.7727 34.1422 22.7257 34.0951 22.6786 34.0951Z" fill="#F18B2D"/>
<path d="M31.2496 24.2993C30.9671 23.2162 31.2025 22.1801 32.7096 21.3795C34.6875 20.626 36.8068 20.2021 39.0202 20.2021C39.3969 20.2021 39.7266 20.2021 40.0563 20.2492C41.5633 20.3434 41.94 22.133 41.8458 23.3104C41.6575 25.4296 41.1394 27.5488 40.8098 29.6681C40.433 31.6931 40.0563 33.7182 39.6324 35.7432C39.2557 37.7212 37.3248 34.5188 36.9951 34.0008C35.6294 31.7402 34.2166 29.5268 32.8508 27.3134C32.2386 26.3715 31.4851 25.2883 31.2496 24.2993Z" fill="#F18B2D"/>
<path d="M21.925 45.8211C21.5012 44.785 21.1715 43.7489 20.936 42.6186C20.5122 39.9814 20.6064 36.9673 21.3599 35.4132C21.6896 35.0836 22.1605 34.8481 22.7727 34.801C22.8198 34.801 22.8669 34.801 22.8669 34.7539C23.2908 34.8481 23.7146 34.9423 24.1385 35.0365C28.0944 35.8842 32.0503 36.6848 35.9591 37.5325C36.0533 37.5325 36.1475 37.5796 36.2417 37.5796C36.2888 37.5796 36.2888 37.6267 36.3359 37.6267C36.43 37.6267 36.5242 37.6737 36.6184 37.6737C36.9952 37.7208 37.8429 38.0505 37.9371 38.4744C38.0783 39.1337 37.0423 39.5104 36.6184 39.793C33.1805 41.7239 29.7898 43.7489 26.4932 45.9152C25.7867 46.3862 25.0803 46.81 24.3739 47.281C23.3849 47.6106 22.5372 46.9513 21.925 45.8211Z" fill="#F18B2D"/>
<path d="M34.3578 56.1349C33.0391 56.2291 31.7205 55.6639 30.496 54.9575C30.3548 54.8633 30.2135 54.7691 30.0722 54.6749C30.0251 54.6279 29.978 54.6279 29.978 54.6279C29.4129 54.2982 28.8948 53.9214 28.3768 53.5447C26.8227 52.4615 25.5511 51.0016 24.2796 49.5888C24.2796 49.0236 24.5151 48.4585 25.0802 47.9405C25.1273 47.8934 25.1273 47.8934 25.1273 47.8463C25.975 47.3282 26.8227 46.7631 27.6704 46.198C30.8257 44.0787 34.1223 42.2892 37.4189 40.4054C37.5602 40.3112 37.7485 40.217 37.8898 40.1228C38.4079 39.9815 38.5962 40.7351 38.5021 41.206C38.5021 41.2531 38.5021 41.3002 38.5021 41.3002C37.5131 45.9625 36.4299 50.6248 35.3467 55.2872C35.1113 55.7581 34.7816 56.0407 34.3578 56.1349C34.4049 56.1349 34.4049 56.1349 34.3578 56.1349Z" fill="#F18B2D"/>
<path fill-rule="evenodd" clip-rule="evenodd" d="M13.7516 38.6844C13.7516 52.6435 25.0623 63.946 38.9951 63.9488C52.9279 63.9516 64.2387 52.6536 64.2387 38.6945C64.2387 24.7353 52.9279 13.4328 38.9951 13.4301C25.0623 13.4273 13.7516 24.7252 13.7516 38.6844ZM38.9951 75.1894C18.8279 75.1854 2.49512 58.8317 2.49512 38.6821C2.49511 18.5325 18.8279 2.18539 38.9951 2.18942C59.1623 2.19345 75.4951 18.5471 75.4951 38.6967C75.4951 58.8463 59.1623 75.1935 38.9951 75.1894Z" fill="black"/>
<defs>
<linearGradient id="paint0_linear" x1="6.79849" y1="24.7202" x2="66.835" y2="54.0743" gradientUnits="userSpaceOnUse">
<stop stop-color="#F2D254"/>
<stop offset="0.526042" stop-color="#C2368C"/>
<stop offset="1" stop-color="#693E8E"/>
</linearGradient>
</defs>
</svg>
