<svg width="78" height="78" viewBox="0 0 78 78" fill="none" xmlns="http://www.w3.org/2000/svg">
<path d="M7.52734 39.595C7.52734 56.7159 21.4065 70.5978 38.5273 70.6012C55.6482 70.6047 69.5273 56.7283 69.5273 39.6074C69.5273 22.4866 55.6482 8.60465 38.5273 8.60123C21.4065 8.59781 7.52734 22.4742 7.52734 39.595Z" fill="#FF8B3B"/>
<path fill-rule="evenodd" clip-rule="evenodd" d="M64.2888 39.1051C64.2888 25.1557 52.9799 13.8433 39.0273 13.8405C25.0748 13.8377 13.7659 25.1455 13.7659 39.0949C13.7659 53.0443 25.0748 64.3567 39.0273 64.3596C52.9799 64.3624 64.2888 53.0545 64.2888 39.1051ZM39.0273 2.60003C59.1847 2.60411 75.5273 18.948 75.5273 39.1074C75.5273 59.2669 59.1847 75.6041 39.0273 75.6C18.87 75.5959 2.52734 59.2521 2.52735 39.0926C2.52735 18.9332 18.87 2.59594 39.0273 2.60003Z" fill="black"/>
</svg>
