<svg width="77" height="77" viewBox="0 0 77 77" fill="none" xmlns="http://www.w3.org/2000/svg">
<mask id="mask0" mask-type="alpha" maskUnits="userSpaceOnUse" x="8" y="9" width="60" height="60">
<path d="M68 39.006C68 22.4374 54.5685 9.00331 38 9C21.4315 8.99669 8 22.4255 8 38.994C8 55.5626 21.4315 68.9967 38 69C54.5685 69.0033 68 55.5745 68 39.006Z" fill="url(#paint0_radial)"/>
<path d="M8 39.0008H68V68.9948H8V39.0008Z" fill="url(#paint1_radial)"/>
</mask>
<g mask="url(#mask0)">
<rect x="7" y="9" width="12" height="60" fill="#9A1039"/>
<rect x="19" y="9" width="12" height="60" fill="#D23C45"/>
<rect x="31" y="9" width="12" height="60" fill="#9A1039"/>
<rect x="44" y="9" width="12" height="60" fill="#D23C45"/>
<rect x="56" y="9" width="12" height="60" fill="#9A1039"/>
</g>
<path fill-rule="evenodd" clip-rule="evenodd" d="M2 38.994C2 19.1204 18.1093 2.99603 38.0012 3C57.8897 3.00397 73.9961 19.1295 74 38.9988V74.994H38.6718C38.4479 74.998 38.2235 75 37.9988 75C37.779 75 37.5596 74.9979 37.3406 74.994H2L2 38.994ZM37.9988 14.6632C24.5766 14.6605 13.6795 25.5445 13.6795 38.994L13.6795 63.3307H37.4541L37.512 63.3319C37.6747 63.3351 37.8377 63.3368 38.0012 63.3368C38.168 63.3368 38.3344 63.3352 38.5001 63.3319L38.5582 63.3307H62.3205V39.0011C62.3205 39.0007 62.3205 39.0003 62.3205 39C62.3173 25.5523 51.42 14.6659 37.9988 14.6632Z" fill="black"/>
<defs>
<radialGradient id="paint0_radial" cx="0" cy="0" r="1" gradientUnits="userSpaceOnUse" gradientTransform="translate(24.3099 35.0963) rotate(40.0028) scale(33.9321 33.866)">
<stop stop-color="#C08F46"/>
<stop offset="1" stop-color="#8C5A10"/>
</radialGradient>
<radialGradient id="paint1_radial" cx="0" cy="0" r="1" gradientUnits="userSpaceOnUse" gradientTransform="translate(24.3099 35.0963) rotate(40.0028) scale(33.9321 33.866)">
<stop stop-color="#C08F46"/>
<stop offset="1" stop-color="#8C5A10"/>
</radialGradient>
</defs>
</svg>
