<svg width="120" height="150" viewBox="0 0 120 150" fill="none" xmlns="http://www.w3.org/2000/svg">
<path fill-rule="evenodd" clip-rule="evenodd" d="M4.14409 104.104C6.43926 114.039 23.2083 112.241 18.5817 95.6038C10.1065 65.1266 21.6758 48.2004 27.6758 36.5562C13.1661 42.4222 -6.00188 60.1847 4.14409 104.104Z" fill="url(#paint0_linear)"/>
<path d="M13.0862 44.9968C12.9564 44.3899 13.8846 43.5405 14.4775 43.7234L20.8054 45.6758C21.239 45.8096 21.1601 46.4382 20.6511 46.904L15.7088 51.4273C15.1998 51.893 14.5667 51.9162 14.4717 51.4724L13.0862 44.9968Z" fill="#FFCC6B"/>
<path d="M2.9041 63.4523C2.48971 62.9904 2.87259 61.7918 3.47803 61.6557L9.93895 60.203C10.3817 60.1034 10.6257 60.6881 10.4158 61.3453L8.37704 67.7273C8.1671 68.3845 7.62928 68.7194 7.32625 68.3816L2.9041 63.4523Z" fill="#FFCC6B"/>
<path d="M0.729927 83.6824C0.143583 83.4792 -0.102438 82.2453 0.361149 81.8328L5.30833 77.4306C5.64733 77.1289 6.14419 77.522 6.27909 78.1986L7.5891 84.7691C7.724 85.4457 7.41589 85.9993 6.98712 85.8507L0.729927 83.6824Z" fill="#FFCC6B"/>
<path d="M105.231 68.693C105.231 68.693 104.879 70.1035 105.937 70.1035L118.455 65.6957C118.455 65.6957 120.571 65.1667 119.689 64.1089C118.984 63.051 106.113 58.1142 101.352 48.7696C96.592 39.425 94.4763 27.9646 97.4736 23.3804C97.4736 23.3804 69.7924 25.6725 61.5056 2.22279C61.5056 2.22279 45.6374 9.80428 33.1191 6.45432C33.1191 6.45432 29.4165 -0.0692825 27.3008 0.107025C27.3008 0.107025 43.3453 40.4828 55.1583 51.7669C55.1583 51.7669 52.5136 57.2326 53.9241 56.88C55.511 56.7037 57.4504 53.8827 57.4504 53.8827C57.4504 53.8827 98.7078 45.2433 105.231 68.693Z" fill="#B6252D"/>
<path d="M82.3101 35.7213C80.3706 37.4844 78.4312 39.2476 76.4917 41.187C75.6102 42.0686 70.3208 46.3001 72.7892 47.358C73.847 47.8869 75.0812 47.7106 76.3154 47.7106C80.7233 47.8869 84.9548 48.0632 89.1863 49.1211C93.4178 50.179 97.2967 51.9422 100.647 54.4105C103.644 56.5263 106.112 59.171 108.228 62.1683C109.462 63.9315 110.873 66.2235 110.697 68.5156L118.454 65.6946C118.454 65.6946 120.57 65.1657 119.689 64.1078C118.983 63.0499 106.112 58.1131 101.352 48.7685C97.1204 40.3055 94.8283 30.0793 96.7678 24.7899C91.831 28.1398 86.8942 31.6661 82.3101 35.7213Z" fill="#FFCC6B"/>
<path d="M60.8006 11.5677C60.448 16.6808 59.5664 21.7939 59.5664 26.907C59.5664 29.199 59.5664 31.6674 60.0953 33.9595C60.2717 35.1937 60.6243 36.2516 60.8006 37.3095C60.9769 38.0147 61.1532 38.8963 61.6822 39.6015C62.9164 41.541 65.5611 40.8357 67.3242 39.7779C69.0873 38.8963 70.4978 37.4858 72.0847 36.4279C80.0188 31.1385 88.4818 26.7307 97.4738 23.557C97.4738 23.557 97.4738 23.3807 97.6501 23.3807C97.6501 23.3807 70.1452 25.6728 61.8585 2.5757C61.1532 5.57303 60.9769 8.57036 60.8006 11.5677Z" fill="#FFCC6B"/>
<path d="M38.938 16.8589C40.8775 20.5614 42.6406 24.4403 44.5801 28.3192C45.8143 30.7876 46.5195 33.4323 48.1063 35.7244C48.459 36.2534 48.9879 36.9586 49.5168 37.4876C50.0458 37.8402 50.9273 38.1928 51.4563 37.6639C52.1615 36.606 51.9852 35.0192 51.8089 33.9613C51.6326 32.0218 51.6326 29.9061 51.9852 27.9666C52.1615 25.6745 52.6905 23.3825 53.2194 21.2667C54.2773 17.0352 55.8641 12.8036 57.4509 8.57212C58.1562 6.80899 58.8615 4.69323 60.272 3.1064C60.272 2.93009 60.4483 2.93009 60.4483 2.75378C56.5694 4.3406 43.6985 9.27738 33.296 6.45637C33.296 6.45637 33.1197 6.28005 32.9434 5.75111C34.7065 9.63001 36.9986 13.1563 38.938 16.8589Z" fill="#FFCC6B"/>
<path d="M58.1562 53.002C58.1562 53.002 58.6852 52.473 59.5668 51.4151C59.9194 50.8862 60.4483 50.3572 61.1536 49.8283C61.8588 49.1231 62.5641 48.4178 63.2693 47.7125C64.1509 47.0073 65.0325 46.1257 65.914 45.2442C66.7956 44.3626 67.8535 43.481 68.9114 42.5995C69.9693 41.7179 71.0271 40.8363 72.2613 39.9547C73.4955 39.0732 74.5534 38.1916 75.7876 37.31C77.0218 36.4285 78.0797 35.5469 79.3139 34.6653C80.5481 33.7838 81.7823 33.0785 82.8401 32.3733C84.0743 31.668 85.1322 30.9628 86.1901 30.2575C87.248 29.5522 88.3059 29.0233 89.1874 28.4944C93.0663 26.2023 95.5347 24.9681 95.5347 24.9681C95.5347 24.9681 93.2427 26.7312 89.5401 29.3759C88.6585 30.0812 87.6006 30.7864 86.719 31.4917C85.6612 32.197 84.6033 33.0785 83.5454 33.7838C82.4875 34.489 81.2533 35.3706 80.0191 36.2522C78.7849 37.1337 77.7271 38.0153 76.4929 38.8969C75.2587 39.7784 74.2008 40.66 72.9666 41.5416C71.7324 42.4231 70.6745 43.3047 69.6166 44.01C68.5588 44.8915 67.5009 45.5968 66.443 46.4784C65.3851 47.1836 64.5035 48.0652 63.622 48.5941C62.7404 49.2994 62.0352 49.8283 61.3299 50.5336C60.6246 51.0625 60.0957 51.5914 59.5668 51.9441C59.0378 52.2967 58.6852 52.6493 58.3326 52.8256L58.1562 53.002Z" fill="#6C0D11"/>
<path d="M56.3933 51.0635C56.3933 51.0635 56.0407 50.3582 55.688 49.124C55.5117 48.4188 55.3354 47.7135 55.1591 46.832C54.9828 46.303 54.9828 45.9504 54.8065 45.4214C54.6301 44.8925 54.6301 44.3636 54.4538 43.8346C54.2775 42.7767 54.1012 41.5425 53.9249 40.132C53.9249 39.4268 53.7486 38.7215 53.7486 38.1926C53.7486 37.4873 53.5723 36.7821 53.5723 36.0768C53.5723 35.3716 53.5723 34.6663 53.5723 33.9611C53.5723 33.2558 53.5723 32.5506 53.5723 31.669C53.5723 30.9637 53.5723 30.0822 53.7486 29.3769C53.7486 28.6717 53.9249 27.7901 53.9249 27.0848L54.1012 25.8506C54.1012 25.498 54.2775 25.1454 54.2775 24.6164C54.4538 23.9112 54.4538 23.0296 54.6301 22.3244C54.6301 21.9717 54.8065 21.6191 54.8065 21.2665C54.8065 20.9139 54.9828 20.5612 54.9828 20.2086C55.1591 19.5033 55.3354 18.7981 55.5117 18.0928C55.688 17.3876 55.8643 16.6823 56.0407 15.9771C56.217 15.2718 56.3933 14.5666 56.5696 14.0376C56.7459 13.3324 56.9222 12.8034 57.0985 12.0982C57.2748 11.5692 57.4512 10.864 57.8038 10.335C58.1564 9.27715 58.509 8.21928 59.038 7.33771C59.3906 6.45614 59.7432 5.75088 60.0959 5.04563C60.6248 3.81143 60.9774 3.10618 60.9774 3.10618C60.9774 3.10618 60.8011 3.81144 60.2722 5.22195C60.0959 5.9272 59.7432 6.63245 59.5669 7.51402C59.3906 7.86665 59.2143 8.39559 59.2143 8.92453C59.038 9.45347 58.8617 9.98241 58.6854 10.5114C58.3327 11.5692 57.9801 12.8034 57.8038 14.0376C57.6275 14.7429 57.4512 15.2718 57.2748 15.9771C57.2748 16.3297 57.0985 16.6823 57.0985 17.035C57.0985 17.3876 56.9222 17.7402 56.9222 18.0928C56.7459 18.7981 56.7459 19.5033 56.5696 20.2086C56.3933 20.9139 56.217 21.6191 56.217 22.3244C56.0407 23.0296 56.0407 23.7349 55.8643 24.6164C55.8643 24.9691 55.688 25.3217 55.688 25.6743L55.688 26.9085C55.688 27.6138 55.5117 28.4953 55.5117 29.2006C55.5117 29.9058 55.5117 30.7874 55.3354 31.4927C55.3354 32.1979 55.1591 32.9032 55.1591 33.7847C55.1591 34.49 55.1591 35.1953 55.1591 35.9005C55.1591 36.6058 55.1591 37.311 55.1591 38.0163C55.1591 38.7215 55.1591 39.4268 55.1591 39.9557C55.1591 40.661 55.1591 41.1899 55.3354 41.8952C55.3354 42.6004 55.3354 43.1294 55.5117 43.6583C55.5117 44.1872 55.688 44.7162 55.688 45.2451C55.688 45.7741 55.8643 46.303 55.8643 46.6556C56.0407 47.5372 56.0407 48.4188 56.217 48.9477C56.3933 49.653 56.3933 50.1819 56.3933 50.5345C56.3933 50.8872 56.3933 51.0635 56.3933 51.0635Z" fill="#6C0D11"/>
<path d="M106.113 68.6914C106.113 68.6914 105.584 58.2889 92.8894 53.1758C80.1948 48.0627 60.4477 52.6469 60.4477 52.6469C60.4477 52.6469 59.0372 52.8232 59.9188 51.9416C60.8003 51.06 72.966 42.0681 72.966 42.0681C72.966 42.0681 64.8555 48.9443 65.9134 49.6495C66.9713 50.3548 81.7816 47.0048 94.2999 52.4706C106.818 58.2889 106.466 65.8704 106.113 68.6914Z" fill="#EF504D"/>
<path d="M62.3884 47.536C62.3884 47.536 57.099 51.4149 56.9226 49.2992C56.7463 47.1834 53.0438 29.1994 61.3305 6.63129C61.3305 6.63129 53.5727 47.0071 62.3884 47.536Z" fill="#EF504D"/>
<path d="M41.0534 24.6148C39.4666 21.6175 37.8798 18.4439 36.293 15.2702C35.2351 12.9781 34.0009 10.6861 32.4141 8.74662C32.4141 9.27556 32.7667 9.8045 32.7667 9.8045C42.2876 33.7831 54.4533 49.6514 54.4533 49.6514C54.4533 49.6514 50.398 42.0699 46.1665 33.9595C44.4034 30.9621 42.6402 27.7885 41.0534 24.6148Z" fill="#EF504D"/>
<path d="M105.231 80.514C105.231 80.514 104.879 79.1035 105.937 79.1035L118.455 83.5114C118.455 83.5114 120.571 84.0403 119.689 85.0982C118.984 86.1561 106.113 91.0928 101.352 100.437C96.592 109.782 94.4762 121.242 97.4736 125.827C97.4736 125.827 69.7924 123.535 61.5056 146.984C61.5056 146.984 45.6374 139.403 33.1191 142.753C33.1191 142.753 29.4165 149.276 27.3008 149.1C27.3008 149.1 43.3453 108.724 55.1583 97.4401C55.1583 97.4401 52.5136 91.9744 53.9241 92.327C55.511 92.5033 57.4504 95.3244 57.4504 95.3244C57.4504 95.3244 98.7078 103.964 105.231 80.514Z" fill="#B6252D"/>
<path d="M82.3101 113.486C80.3706 111.723 78.4312 109.959 76.4917 108.02C75.6102 107.138 70.3208 102.907 72.7892 101.849C73.847 101.32 75.0812 101.496 76.3154 101.496C80.7233 101.32 84.9548 101.144 89.1863 100.086C93.4178 99.028 97.2967 97.2649 100.647 94.7965C103.644 92.6807 106.112 90.036 108.228 87.0387C109.462 85.2756 110.873 82.9835 110.697 80.6914L118.454 83.5124C118.454 83.5124 120.57 84.0414 119.689 85.0992C118.983 86.1571 106.112 91.0939 101.352 100.439C97.1204 108.902 94.8283 119.128 96.7678 124.417C91.831 121.067 86.8942 117.541 82.3101 113.486Z" fill="#FFCC6B"/>
<path d="M60.8006 137.639C60.448 132.526 59.5664 127.413 59.5664 122.3C59.5664 120.008 59.5664 117.54 60.0953 115.248C60.2717 114.013 60.6243 112.955 60.8006 111.898C60.9769 111.192 61.1532 110.311 61.6822 109.605C62.9164 107.666 65.5611 108.371 67.3242 109.429C69.0873 110.311 70.4978 111.721 72.0847 112.779C80.0188 118.069 88.4818 122.476 97.4738 125.65C97.4738 125.65 97.4738 125.826 97.6501 125.826C97.6501 125.826 70.1452 123.534 61.8585 146.631C61.1532 143.634 60.9769 140.637 60.8006 137.639Z" fill="#FFCC6B"/>
<path d="M38.938 132.348C40.8775 128.646 42.6406 124.767 44.5801 120.888C45.8142 118.419 46.5195 115.775 48.1063 113.483C48.459 112.954 48.9879 112.248 49.5168 111.719C50.0458 111.367 50.9273 111.014 51.4563 111.543C52.1615 112.601 51.9852 114.188 51.8089 115.246C51.6326 117.185 51.6326 119.301 51.9852 121.24C52.1615 123.532 52.6905 125.825 53.2194 127.94C54.2773 132.172 55.8641 136.403 57.4509 140.635C58.1562 142.398 58.8615 144.514 60.272 146.101C60.272 146.277 60.4483 146.277 60.4483 146.453C56.5694 144.866 43.6985 139.93 33.296 142.751C33.296 142.751 33.1197 142.927 32.9434 143.456C34.7065 139.577 36.9986 136.051 38.938 132.348Z" fill="#FFCC6B"/>
<path d="M58.1562 96.2051C58.1562 96.2051 58.6852 96.734 59.5668 97.7919C59.9194 98.3208 60.4483 98.8498 61.1536 99.3787C61.8588 100.084 62.5641 100.789 63.2693 101.494C64.1509 102.2 65.0325 103.081 65.914 103.963C66.7956 104.844 67.8535 105.726 68.9114 106.608C69.9693 107.489 71.0271 108.371 72.2613 109.252C73.4955 110.134 74.5534 111.015 75.7876 111.897C77.0218 112.779 78.0797 113.66 79.3139 114.542C80.5481 115.423 81.7823 116.129 82.8401 116.834C84.0743 117.539 85.1322 118.244 86.1901 118.95C87.248 119.655 88.3059 120.184 89.1874 120.713C93.0663 123.005 95.5347 124.239 95.5347 124.239C95.5347 124.239 93.2427 122.476 89.5401 119.831C88.6585 119.126 87.6006 118.421 86.719 117.715C85.6612 117.01 84.6033 116.129 83.5454 115.423C82.4875 114.718 81.2533 113.836 80.0191 112.955C78.7849 112.073 77.7271 111.192 76.4929 110.31C75.2587 109.429 74.2008 108.547 72.9666 107.665C71.7324 106.784 70.6745 105.902 69.6166 105.197C68.5588 104.316 67.5009 103.61 66.443 102.729C65.3851 102.023 64.5035 101.142 63.622 100.613C62.7404 99.9077 62.0352 99.3787 61.3299 98.6735C60.6246 98.1445 60.0957 97.6156 59.5668 97.263C59.0378 96.9103 58.6852 96.5577 58.3326 96.3814L58.1562 96.2051Z" fill="#6C0D11"/>
<path d="M56.3933 98.1436C56.3933 98.1436 56.0407 98.8488 55.688 100.083C55.5117 100.788 55.3354 101.494 55.1591 102.375C54.9828 102.904 54.9828 103.257 54.8065 103.786C54.6301 104.315 54.6301 104.843 54.4538 105.372C54.2775 106.43 54.1012 107.664 53.9249 109.075C53.9249 109.78 53.7486 110.486 53.7486 111.014C53.7486 111.72 53.5723 112.425 53.5723 113.13C53.5723 113.835 53.5723 114.541 53.5723 115.246C53.5723 115.951 53.5723 116.656 53.5723 117.538C53.5723 118.243 53.5723 119.125 53.7486 119.83C53.7486 120.535 53.9249 121.417 53.9249 122.122L54.1012 123.356C54.1012 123.709 54.2775 124.062 54.2775 124.591C54.4538 125.296 54.4538 126.177 54.6301 126.883C54.6301 127.235 54.8065 127.588 54.8065 127.941C54.8065 128.293 54.9828 128.646 54.9828 128.998C55.1591 129.704 55.3354 130.409 55.5117 131.114C55.688 131.819 55.8643 132.525 56.0407 133.23C56.217 133.935 56.3933 134.64 56.5696 135.169C56.7459 135.875 56.9222 136.404 57.0985 137.109C57.2748 137.638 57.4512 138.343 57.8038 138.872C58.1564 139.93 58.509 140.988 59.038 141.869C59.3906 142.751 59.7432 143.456 60.0959 144.161C60.6248 145.396 60.9774 146.101 60.9774 146.101C60.9774 146.101 60.8011 145.396 60.2722 143.985C60.0959 143.28 59.7432 142.575 59.5669 141.693C59.3906 141.34 59.2143 140.811 59.2143 140.283C59.038 139.754 58.8617 139.225 58.6854 138.696C58.3327 137.638 57.9801 136.404 57.8038 135.169C57.6275 134.464 57.4512 133.935 57.2748 133.23C57.2748 132.877 57.0985 132.525 57.0985 132.172C57.0985 131.819 56.9222 131.467 56.9222 131.114C56.7459 130.409 56.7459 129.704 56.5696 128.998C56.3933 128.293 56.217 127.588 56.217 126.883C56.0407 126.177 56.0407 125.472 55.8643 124.591C55.8643 124.238 55.688 123.885 55.688 123.533L55.688 122.299C55.688 121.593 55.5117 120.712 55.5117 120.006C55.5117 119.301 55.5117 118.42 55.3354 117.714C55.3354 117.009 55.1591 116.304 55.1591 115.422C55.1591 114.717 55.1591 114.012 55.1591 113.307C55.1591 112.601 55.1591 111.896 55.1591 111.191C55.1591 110.486 55.1591 109.78 55.1591 109.251C55.1591 108.546 55.1591 108.017 55.3354 107.312C55.3354 106.607 55.3354 106.078 55.5117 105.549C55.5117 105.02 55.688 104.491 55.688 103.962C55.688 103.433 55.8643 102.904 55.8643 102.551C56.0407 101.67 56.0407 100.788 56.217 100.259C56.3933 99.5541 56.3933 99.0251 56.3933 98.6725C56.3933 98.3199 56.3933 98.1436 56.3933 98.1436Z" fill="#6C0D11"/>
<path d="M106.113 80.5156C106.113 80.5156 105.584 90.9181 92.8894 96.0312C80.1948 101.144 60.4477 96.5602 60.4477 96.5602C60.4477 96.5602 59.0372 96.3838 59.9188 97.2654C60.8003 98.147 72.966 107.139 72.966 107.139C72.966 107.139 64.8555 100.263 65.9134 99.5575C66.9713 98.8522 81.7816 102.202 94.2999 96.7365C106.818 90.9181 106.466 83.3366 106.113 80.5156Z" fill="#EF504D"/>
<path d="M62.3884 101.671C62.3884 101.671 57.099 97.7921 56.9226 99.9079C56.7463 102.024 53.0438 120.008 61.3305 142.576C61.3305 142.576 53.5727 102.2 62.3884 101.671Z" fill="#EF504D"/>
<path d="M41.0534 124.592C39.4666 127.59 37.8798 130.763 36.293 133.937C35.2351 136.229 34.0009 138.521 32.4141 140.46C32.4141 139.931 32.7667 139.403 32.7667 139.403C42.2876 115.424 54.4533 99.5557 54.4533 99.5557C54.4533 99.5557 50.398 107.137 46.1665 115.248C44.4034 118.245 42.6402 121.419 41.0534 124.592Z" fill="#EF504D"/>
<defs>
<linearGradient id="paint0_linear" x1="1.30078" y1="69.1035" x2="41.3008" y2="73.1035" gradientUnits="userSpaceOnUse">
<stop stop-color="#7D0000"/>
<stop offset="1" stop-color="#222222"/>
</linearGradient>
</defs>
</svg>
