<svg width="149" height="149" viewBox="0 0 149 149" fill="none" xmlns="http://www.w3.org/2000/svg">
<path d="M141.566 77.7326C143.781 41.0725 115.859 9.55576 79.1986 7.33794C42.5387 5.12012 11.0242 33.0411 8.80892 69.7012C6.59367 106.361 34.5166 137.878 71.1765 140.096C107.836 142.314 139.351 114.393 141.566 77.7326Z" fill="#E85F0A"/>
<path fill-rule="evenodd" clip-rule="evenodd" d="M13.8176 74.081C13.8176 107.767 41.123 135.071 74.7979 135.074C108.473 135.076 135.778 107.777 135.778 74.0912C135.778 40.4051 108.473 13.1015 74.7978 13.0986C41.123 13.0958 13.8176 40.3949 13.8176 74.081ZM74.7979 146.086C35.0297 146.083 2.79785 113.841 2.79785 74.0801C2.79785 34.3192 35.0297 2.08277 74.7978 2.08608C114.566 2.0894 146.798 34.3313 146.798 74.0921C146.798 113.853 114.566 146.089 74.7979 146.086Z" fill="black"/>
</svg>
