<svg width="148" height="148" viewBox="0 0 148 148" fill="none" xmlns="http://www.w3.org/2000/svg">
<path d="M140.35 78.0146C142.565 41.3445 114.656 9.82025 78.0115 7.60315C41.3675 5.38605 9.8655 33.3157 7.6499 69.9858C5.43429 106.656 33.3441 138.18 69.9881 140.397C106.632 142.614 138.134 114.685 140.35 78.0146Z" fill="#BA2B28"/>
<path fill-rule="evenodd" clip-rule="evenodd" d="M13.0371 73.995C13.0371 107.693 40.3348 135.007 74.0001 135.01C107.665 135.013 134.963 107.704 134.963 74.0052C134.963 40.3067 107.665 12.9931 74.0001 12.9903C40.3348 12.9874 13.0371 40.2966 13.0371 73.995ZM74.0001 146.027C34.2432 146.023 2.02051 113.77 2.0205 73.9941C2.0205 34.2187 34.2432 1.97034 74.0001 1.97366C113.757 1.97697 145.98 34.2307 145.98 74.0061C145.98 113.782 113.757 146.03 74.0001 146.027Z" fill="black"/>
</svg>
