<svg width="77" height="78" viewBox="0 0 77 78" fill="none" xmlns="http://www.w3.org/2000/svg">
<path d="M6.99999 39.4876C6.99999 56.6084 20.8792 70.4904 38 70.4938C55.1208 70.4972 69 56.6208 69 39.5C69 22.3792 55.1208 8.49723 38 8.49381C20.8792 8.49038 7 22.3668 6.99999 39.4876Z" fill="#A0D080"/>
<path d="M46 39L46 8L31 8L31 39L46 39Z" fill="#FFF89F"/>
<path fill-rule="evenodd" clip-rule="evenodd" d="M63.7614 38.9977C63.7614 25.0483 52.4526 13.7359 38.5 13.7331C24.5474 13.7302 13.2386 25.0381 13.2386 38.9875C13.2386 52.9369 24.5474 64.2493 38.5 64.2521C52.4526 64.255 63.7614 52.9471 63.7614 38.9977ZM38.5 2.4926C58.6573 2.49669 75 18.8406 75 39C75 59.1594 58.6573 75.4967 38.5 75.4926C18.3427 75.4885 2 59.1447 2 38.9852C2 18.8258 18.3427 2.48852 38.5 2.4926Z" fill="black"/>
</svg>
