<svg width="117" height="114" viewBox="0 0 117 114" fill="none" xmlns="http://www.w3.org/2000/svg">
<path d="M86.8856 33.5448C86.4026 33.8598 85.9646 34.1908 85.5586 34.5308L87.5656 37.4378L88.9406 37.4588L88.5086 40.9528L91.5066 48.8768C91.5066 48.8768 94.0556 49.9798 94.0516 50.1668C94.0496 50.3548 92.3426 51.5148 92.1516 51.6748C91.9626 51.8348 94.5126 52.5498 94.5126 52.5498L93.0596 53.5278L95.7846 55.1338L93.2556 56.9668L94.1756 58.0458L92.4746 58.8938L94.1386 60.3578L91.7406 61.8198L89.4906 69.7228L90.4356 73.1748L88.9356 73.1518L87.3656 76.9258C88.1396 77.7788 89.3566 78.7048 91.2836 79.4918C91.4186 79.5468 91.5436 79.6208 91.6566 79.7108C91.8186 79.8418 92.6126 80.4938 93.4256 81.4248C93.4866 80.7968 93.4676 80.1038 93.3186 79.3798C93.2856 79.3218 93.2586 79.2658 93.2246 79.2088C93.0636 78.9448 93.0126 78.6528 93.0186 78.3638C92.8936 78.0418 92.7416 77.7168 92.5496 77.3908C92.1796 76.7618 92.3166 75.9578 92.8716 75.4868C93.4266 75.0158 94.2426 75.0108 94.8026 75.4778C94.8246 75.4968 96.8976 77.1668 99.8046 77.5448C99.3226 76.5828 98.8296 75.3688 98.5056 73.9668C98.3496 73.2668 98.7076 72.5398 99.3726 72.2528C100.039 71.9658 100.814 72.1948 101.216 72.7978C101.253 72.8458 102.367 74.2668 105.312 73.2718C104.557 72.5148 103.784 71.5388 103.374 70.4298C102.187 69.5148 98.4376 66.3988 97.4946 62.8328C97.4946 62.8328 102.058 65.8328 105.558 67.4578L105.36 67.8128C106.046 68.0478 108.129 68.6138 109.909 67.5168C109.327 67.3208 108.688 67.0318 108.032 66.6528C104.248 66.1938 101.621 63.8948 101.621 63.8948C104.835 64.0918 107.572 63.7048 108.579 63.5338C109.867 62.7568 111.435 61.5958 112.541 60.3658C110.737 60.7688 105.565 61.6358 102.809 59.0828C102.809 59.0828 105.747 59.2708 106.559 58.0828C106.559 58.0828 103.496 56.3948 102.809 54.5198C102.809 54.5198 104.872 52.2208 106.684 51.8078C106.684 51.8078 104.621 49.1448 101.621 49.0818C101.621 49.0818 104.785 46.9298 110.328 47.5778C109.051 46.7988 107.598 46.1608 106.459 45.7768C105.58 45.7858 102.694 45.8828 99.4116 46.7148C99.4116 46.7148 102.01 43.3868 106.324 42.5168C106.706 42.2298 107.083 41.9708 107.442 41.7668C106.488 41.4098 105.545 41.4598 104.75 41.6378C104.624 41.7068 104.541 41.7578 104.52 41.7718C104.232 41.9538 103.898 42.0308 103.565 42.0208C103.471 42.0618 103.384 42.1008 103.305 42.1398L103.326 42.1898C103.199 42.2338 103.068 42.2828 102.939 42.3298C102.835 42.3888 102.76 42.4338 102.743 42.4458C102.514 42.5938 102.255 42.6738 101.992 42.6848C98.6006 44.0148 94.8376 45.9738 94.8376 45.9738C95.9166 43.1068 98.8956 40.7418 100.605 39.5698C100.863 38.6198 101.344 37.7258 101.841 36.9888C100.642 36.8258 99.7916 36.9718 99.1896 37.2148C99.1656 37.2528 99.1496 37.2818 99.1446 37.2908C98.9116 37.7598 98.4546 38.0678 97.9486 38.1678C97.9166 38.2188 97.8986 38.2518 97.8936 38.2628C97.5836 38.9018 96.8606 39.2558 96.1716 39.0838C95.4826 38.9118 94.9856 38.2848 95.0256 37.5928C95.0796 36.1538 95.3336 34.8668 95.6266 33.8308C92.8216 34.7498 91.1256 36.7878 91.1046 36.8138C90.6426 37.3778 89.8416 37.5288 89.2066 37.1698C88.5706 36.8108 88.2876 36.0458 88.5306 35.3608C88.5936 35.1828 88.6446 35.0068 88.6916 34.8338C88.6736 34.6168 88.6886 34.3968 88.7676 34.1828C88.8066 34.0778 88.8336 33.9738 88.8666 33.8698C88.9706 32.8978 88.8486 32.0038 88.6246 31.2388C88.0026 32.3058 87.3476 33.0968 87.2136 33.2558C87.1156 33.3688 87.0066 33.4648 86.8856 33.5448Z" fill="#7D8286"/>
<path d="M101.617 49.0837C104.617 49.1467 106.68 51.8098 106.68 51.8098C104.867 52.2228 102.805 54.5218 102.805 54.5218C103.493 56.3968 106.555 58.0847 106.555 58.0847C105.742 59.2727 102.805 59.0847 102.805 59.0847C105.562 61.6377 110.734 60.7718 112.537 60.3678C112.719 60.1648 112.889 59.9618 113.042 59.7568C112.11 59.5938 111.034 59.2727 110.045 58.6537C109.625 58.3907 109.362 57.9387 109.341 57.4447C109.324 56.9417 109.544 56.4777 109.94 56.1807L112.475 54.2797L109.625 52.8928C109.18 52.6758 108.87 52.2537 108.798 51.7647C108.721 51.2737 108.9 50.7817 109.261 50.4447C110.115 49.6517 111.112 49.1318 111.994 48.7958C111.518 48.3638 110.94 47.9567 110.324 47.5807C104.781 46.9307 101.617 49.0837 101.617 49.0837Z" fill="#B4B9BC"/>
<path d="M101.617 63.8973C101.617 63.8973 104.244 66.1963 108.028 66.6553C107.954 66.6123 107.882 66.5833 107.807 66.5373C107.349 66.2573 107.081 65.7353 107.09 65.2153C107.105 64.6783 107.406 64.1903 107.88 63.9353C108.097 63.8183 108.331 63.6833 108.574 63.5373C107.568 63.7073 104.831 64.0943 101.617 63.8973Z" fill="#B4B9BC"/>
<path d="M97.4922 62.8337C98.4352 66.3987 102.184 69.5157 103.371 70.4307C103.235 70.0627 103.14 69.6817 103.098 69.2877C103.052 68.7567 103.268 68.2467 103.69 67.9307C104.112 67.6147 104.669 67.5427 105.159 67.7427C105.197 67.7587 105.269 67.7847 105.357 67.8147L105.555 67.4597C102.055 65.8337 97.4922 62.8337 97.4922 62.8337Z" fill="#B4B9BC"/>
<path d="M99.4082 46.7178C102.69 45.8858 105.576 45.7878 106.455 45.7798C106.349 45.7428 106.234 45.7018 106.134 45.6708C105.621 45.5098 105.233 45.0878 105.116 44.5638C104.998 44.0348 105.173 43.4918 105.569 43.1298C105.82 42.9008 106.071 42.7088 106.32 42.5208C102.006 43.3898 99.4082 46.7178 99.4082 46.7178Z" fill="#B4B9BC"/>
<path d="M103.303 42.1421C103.153 42.2141 103.03 42.2791 102.938 42.3311C103.066 42.2841 103.198 42.2351 103.325 42.1911L103.303 42.1421Z" fill="#B4B9BC"/>
<path d="M94.8359 45.9756C94.8359 45.9756 98.5999 44.0166 101.99 42.6866C101.743 42.6986 101.493 42.6526 101.263 42.5406C100.788 42.3106 100.47 41.8466 100.425 41.3206C100.373 40.7316 100.446 40.1416 100.602 39.5716C98.8939 40.7436 95.9149 43.1086 94.8359 45.9756Z" fill="#B4B9BC"/>
<path d="M90.4348 73.1748L89.4898 69.7228L91.7398 61.8198L94.1378 60.3578L92.4738 58.8938L94.1748 58.0458L93.2548 56.9668L95.7838 55.1338L93.0588 53.5278L94.5118 52.5498C94.5118 52.5498 91.9608 51.8348 92.1508 51.6748C92.3418 51.5148 94.0488 50.3548 94.0508 50.1668C94.0548 49.9788 91.5058 48.8768 91.5058 48.8768L88.5078 40.9528L88.9398 37.4588L87.5648 37.4378L85.5578 34.5308C85.1718 34.8528 84.8218 35.1848 84.5078 35.5258C87.3118 46.0288 88.1928 54.2338 88.1928 60.3768C88.1928 68.4658 86.6768 72.9828 86.0478 74.5118C86.1228 74.9198 86.3988 75.8648 87.3628 76.9268L88.9328 73.1528L90.4348 73.1748Z" fill="#5E5E5E"/>
<path d="M87.7966 26.1413C87.2126 26.3643 86.7876 26.9363 86.8326 27.5513C86.8146 28.5653 85.8326 30.1853 85.0496 31.1603C83.8816 31.9443 82.8956 32.8103 82.0896 33.7333C81.5066 34.0623 81.1926 34.7513 81.3806 35.4303C88.6776 62.0723 83.1886 73.5813 83.1146 73.7293C82.8906 74.1673 82.9076 74.6613 83.1086 75.0693C83.3916 76.5183 84.6146 79.9313 89.9316 82.1783C90.7356 82.8623 92.1716 84.3413 92.3656 85.3823C92.4796 85.9973 92.9636 86.4773 93.5786 86.5853C94.1946 86.6943 94.8126 86.4103 95.1316 85.8723C95.2206 85.7233 96.7386 83.0883 96.4086 79.7563C98.0886 80.3993 100.261 80.8603 102.694 80.4863C103.226 80.4043 103.674 80.0433 103.867 79.5393C104.059 79.0343 103.967 78.4673 103.624 78.0513C103.616 78.0413 103.195 77.5153 102.703 76.6133C104.247 76.7613 106.273 76.4043 108.838 74.9303C109.29 74.6703 109.575 74.1943 109.59 73.6723C109.627 73.1433 109.349 72.6593 108.912 72.3733C108.531 72.1253 107.966 71.6823 107.439 71.1563C109.763 71.1533 112.442 70.2633 114.147 67.2413C114.418 66.7613 114.405 66.1733 114.112 65.7073C113.819 65.2413 113.296 64.9733 112.747 65.0073C112.74 65.0073 112.413 65.0213 111.889 64.9323C113.855 63.5003 116.282 61.2703 116.81 58.7023C116.91 58.2373 116.776 57.7533 116.459 57.3993C116.142 57.0453 115.676 56.8623 115.203 56.9053C115.193 56.9063 114.701 56.9443 114.021 56.8703L116.241 55.2053C116.254 55.1953 116.262 55.1833 116.275 55.1723C116.336 55.1243 116.391 55.0693 116.444 55.0113C116.466 54.9873 116.492 54.9643 116.512 54.9383C116.568 54.8693 116.616 54.7913 116.659 54.7093C116.722 54.5913 116.772 54.4693 116.802 54.3403C116.827 54.2303 116.84 54.1173 116.84 54.0063L116.84 54.0053L116.84 54.0043C116.84 53.9993 116.838 53.9953 116.838 53.9903C116.836 53.8463 116.813 53.7053 116.771 53.5693C116.757 53.5223 116.731 53.4793 116.712 53.4333C116.672 53.3383 116.628 53.2463 116.57 53.1623C116.557 53.1433 116.553 53.1223 116.54 53.1043C116.49 53.0383 116.433 52.9803 116.374 52.9233C116.364 52.9143 116.356 52.9023 116.347 52.8933C116.249 52.8053 116.141 52.7353 116.027 52.6763C116.016 52.6703 116.008 52.6613 115.997 52.6553L113.503 51.4413C114.159 51.2383 114.65 51.1813 114.657 51.1803C115.13 51.1333 115.553 50.8663 115.796 50.4573C116.041 50.0503 116.076 49.5523 115.894 49.1113C114.888 46.6923 112.086 44.9623 109.885 43.9283C110.384 43.7403 110.709 43.6893 110.71 43.6893C111.255 43.6193 111.718 43.2553 111.916 42.7433C112.112 42.2303 112.016 41.6503 111.659 41.2303C109.413 38.5873 106.618 38.2213 104.336 38.6573C104.752 38.0433 105.222 37.5013 105.545 37.1843C105.92 36.8213 106.079 36.2893 105.965 35.7803C105.852 35.2713 105.482 34.8573 104.987 34.6883C102.19 33.7293 100.133 33.7613 98.6446 34.2003C98.9586 33.2183 99.2726 32.6223 99.2776 32.6133C99.5346 32.1383 99.5176 31.5633 99.2336 31.1063C98.9496 30.6483 98.4406 30.3773 97.9016 30.3983C95.4416 30.4923 93.3966 31.3583 91.8696 32.3073C91.5586 28.9663 89.5696 26.6733 89.4556 26.5443C89.0416 26.0793 88.3796 25.9183 87.7966 26.1413ZM88.8626 33.8723C88.8296 34.1863 88.7746 34.5083 88.6876 34.8373C88.6406 35.0113 88.5886 35.1873 88.5266 35.3643C88.2836 36.0493 88.5666 36.8133 89.2026 37.1733C89.8386 37.5313 90.6396 37.3813 91.1006 36.8173C91.1216 36.7913 92.8186 34.7533 95.6226 33.8343C95.3296 34.8703 95.0756 36.1563 95.0216 37.5963C94.9816 38.2883 95.4776 38.9153 96.1676 39.0873C96.8556 39.2593 97.5796 38.9043 97.8896 38.2663C97.8946 38.2553 97.9116 38.2223 97.9446 38.1713C98.0696 37.9733 98.4316 37.5213 99.1856 37.2183C99.7886 36.9763 100.638 36.8293 101.837 36.9923C101.34 37.7293 100.858 38.6233 100.601 39.5733C100.446 40.1433 100.372 40.7333 100.424 41.3223C100.469 41.8473 100.787 42.3113 101.262 42.5423C101.491 42.6543 101.741 42.7003 101.989 42.6883C102.252 42.6763 102.511 42.5973 102.74 42.4493C102.758 42.4373 102.833 42.3913 102.936 42.3333C103.028 42.2803 103.151 42.2163 103.301 42.1443C103.38 42.1053 103.467 42.0663 103.561 42.0253C103.885 41.8833 104.289 41.7463 104.747 41.6423C105.542 41.4643 106.485 41.4133 107.439 41.7713C107.08 41.9753 106.703 42.2343 106.321 42.5213C106.072 42.7093 105.821 42.9013 105.57 43.1303C105.174 43.4913 104.999 44.0343 105.117 44.5643C105.233 45.0883 105.622 45.5103 106.135 45.6713C106.236 45.7023 106.35 45.7433 106.456 45.7803C107.595 46.1643 109.048 46.8013 110.325 47.5813C110.941 47.9573 111.519 48.3643 111.995 48.7963C111.112 49.1333 110.116 49.6523 109.262 50.4453C108.901 50.7823 108.722 51.2743 108.799 51.7653C108.871 52.2543 109.181 52.6763 109.626 52.8933L112.476 54.2803L109.941 56.1813C109.545 56.4783 109.326 56.9423 109.342 57.4453C109.363 57.9393 109.626 58.3913 110.046 58.6543C111.035 59.2723 112.111 59.5933 113.043 59.7573C112.89 59.9623 112.72 60.1653 112.538 60.3683C111.433 61.5973 109.864 62.7593 108.576 63.5363C108.333 63.6823 108.098 63.8173 107.882 63.9343C107.408 64.1893 107.107 64.6773 107.092 65.2143C107.083 65.7353 107.351 66.2563 107.809 66.5363C107.884 66.5823 107.955 66.6113 108.03 66.6543C108.686 67.0333 109.325 67.3223 109.907 67.5183C108.127 68.6153 106.044 68.0493 105.358 67.8143C105.27 67.7843 105.198 67.7573 105.16 67.7423C104.671 67.5433 104.113 67.6143 103.691 67.9303C103.269 68.2463 103.053 68.7563 103.099 69.2873C103.141 69.6813 103.237 70.0613 103.372 70.4303C103.781 71.5383 104.555 72.5153 105.31 73.2723C102.366 74.2673 101.251 72.8463 101.214 72.7983C100.813 72.1953 100.037 71.9663 99.3706 72.2533C98.7056 72.5403 98.3476 73.2673 98.5036 73.9673C98.8276 75.3693 99.3196 76.5833 99.8026 77.5453C96.8956 77.1673 94.8236 75.4963 94.8006 75.4783C94.2406 75.0113 93.4256 75.0153 92.8696 75.4873C92.3136 75.9593 92.1776 76.7623 92.5476 77.3913C92.7386 77.7163 92.8916 78.0413 93.0166 78.3643C93.1496 78.7073 93.2466 79.0473 93.3166 79.3803C93.4656 80.1043 93.4846 80.7973 93.4236 81.4253C92.6106 80.4943 91.8176 79.8423 91.6546 79.7113C91.5416 79.6213 91.4166 79.5473 91.2816 79.4923C89.3546 78.7053 88.1376 77.7783 87.3636 76.9263C86.3986 75.8633 86.1236 74.9193 86.0486 74.5113C86.6776 72.9833 88.1936 68.4653 88.1936 60.3763C88.1936 54.2333 87.3126 46.0283 84.5086 35.5253C84.8216 35.1843 85.1726 34.8523 85.5586 34.5303C85.9646 34.1903 86.4026 33.8593 86.8856 33.5443C87.0066 33.4653 87.1156 33.3683 87.2096 33.2583C87.3436 33.1003 87.9986 32.3093 88.6206 31.2413C88.8456 32.0053 88.9676 32.9003 88.8626 33.8723Z" fill="#464646"/>
<path d="M26.8242 56.8657C26.8242 59.6767 27.9982 62.3527 30.0442 64.2087C34.4022 68.1607 41.3262 69.4597 47.6822 67.5187C51.6352 66.3117 59.1122 62.5317 59.1142 56.8677C59.1142 54.6437 56.7572 51.3767 54.5712 49.6237C51.6732 47.2977 47.0982 45.7817 42.3402 45.5717C37.1072 45.3417 32.5402 46.7057 29.8122 49.3167C27.8292 51.2117 26.8242 53.7527 26.8242 56.8657Z" fill="#EFC59F"/>
<path d="M30.9727 56.7909C30.9727 58.8789 31.8447 60.8679 33.3647 62.2469C36.6027 65.1839 41.7477 66.1479 46.4707 64.7059C49.4087 63.8089 54.9627 60.9999 54.9627 56.7919C54.9627 55.1399 53.2127 52.7119 51.5897 51.4089C49.4357 49.6799 46.0367 48.5549 42.5017 48.3979C38.6127 48.2269 35.2187 49.2409 33.1917 51.1809C31.7187 52.5899 30.9727 54.4769 30.9727 56.7909Z" fill="#B89A7B"/>
<path d="M20.4883 56.9751C20.4883 68.8411 29.1013 77.4541 40.9673 77.4541C52.8213 77.4541 67.8623 67.8111 67.8623 56.9751C67.8623 45.9461 53.6243 36.4961 41.9673 36.4961C31.5833 36.4961 20.4883 41.8761 20.4883 56.9751ZM57.0733 46.5021C59.1613 48.1771 63.1123 52.4991 63.1123 56.8651C63.1103 64.8541 54.1453 69.7241 48.8483 71.3431C41.1733 73.6881 32.7363 72.0501 27.3543 67.1701C24.4743 64.5581 22.8223 60.8011 22.8223 56.8641C22.8223 52.6761 24.2823 49.0671 27.0453 46.4241C30.5583 43.0631 36.1963 41.2951 42.5143 41.5731C48.0933 41.8201 53.5343 43.6631 57.0733 46.5021Z" fill="#EFC59F"/>
<path d="M54.1543 34.6961L52.6113 34.5121C53.1913 34.7261 53.7673 34.9581 54.3403 35.2021C54.2913 35.0711 54.2443 34.9392 54.1923 34.7962C54.1783 34.7612 54.1663 34.7301 54.1543 34.6961Z" fill="#B89A7B"/>
<path d="M33.7346 32.2733C32.9706 33.1253 32.2406 33.7403 31.5566 34.1963C33.4696 33.5083 35.5356 33.0203 37.7416 32.7493L33.7346 32.2733Z" fill="#B89A7B"/>
<path d="M27.9685 24.3405C28.3925 24.0275 28.7395 23.7965 28.9295 23.6755C29.6265 23.2295 30.5535 23.4335 30.9995 24.1305C31.4445 24.8265 31.2435 25.7545 30.5455 26.2025C29.9605 26.5775 29.2855 27.0935 28.6565 27.6615C28.6475 27.6705 28.6435 27.6825 28.6355 27.6905C28.6255 27.6995 28.6135 27.7015 28.6035 27.7105C27.4525 28.7625 26.4735 29.9895 26.5275 30.8715C26.5735 31.5155 27.3755 32.0395 28.0935 32.3835C28.3265 32.3895 29.8415 32.3555 31.9445 29.7475L32.4655 29.1015L55.4135 31.8245C55.4175 31.8245 55.4195 31.8275 55.4235 31.8275C55.8535 31.8785 56.1265 32.0285 56.3415 32.3065C56.3535 32.3185 56.3625 32.3295 56.3745 32.3425C56.4355 32.4245 56.4895 32.5195 56.5445 32.6225C56.5855 32.6975 56.6245 32.7685 56.6515 32.8515C56.7625 33.1035 56.8745 33.4035 57.0085 33.7685C57.2605 34.4585 57.8305 36.0225 58.0285 36.4625C58.6595 37.2355 59.7965 38.0365 60.6985 38.1005C61.0425 38.1245 61.2865 38.0405 61.5115 37.8205C62.6955 36.6635 62.3375 34.8325 61.5525 33.6025C61.2085 33.8575 60.9295 34.0465 60.7655 34.1545C60.0745 34.6085 59.1465 34.4165 58.6915 33.7235C58.2385 33.0355 58.4275 32.1025 59.1195 31.6475C60.7855 30.5495 63.1665 28.2825 63.0825 26.9305C63.0275 26.2875 62.2195 25.7725 61.4945 25.4375C61.2625 25.4345 59.7485 25.4875 57.6785 28.1215C57.2295 28.6915 56.3995 29.2305 55.7745 28.9155C55.7745 28.9155 34.4655 26.0595 34.4085 26.0515C33.5695 25.9315 33.3855 25.5165 32.8385 24.2825C32.5785 23.6955 32.0485 22.5015 31.8815 22.1855C31.2675 21.3945 30.1185 20.5545 29.2035 20.4785C28.8575 20.4505 28.6135 20.5315 28.3845 20.7495C27.3775 21.7095 27.4605 23.1635 27.9685 24.3405Z" fill="#C6C2A9"/>
<path d="M4.61328 56.8751L4.61328 56.9861C4.61328 86.2911 21.6723 109.247 43.4493 109.247C70.7153 109.247 83.5513 74.4911 86.5903 55.8451C84.1703 38.8901 70.4673 4.49707 42.9693 4.49707C21.5033 4.49707 4.65628 27.5031 4.61328 56.8751ZM34.3253 20.4441C34.5033 20.6801 34.6793 21.0351 35.5813 23.0671C35.5993 23.1091 35.6173 23.1491 35.6353 23.1891C39.1253 23.6571 52.8213 25.4941 55.6513 25.8731C59.1163 21.7421 62.0613 22.4651 62.3953 22.5661L62.5653 22.6291C65.2843 23.8251 65.9733 25.4941 66.0713 26.6841C66.0813 26.7951 66.0853 26.9081 66.0853 27.0191C66.0853 28.7261 65.0173 30.3361 63.8233 31.6041C64.7213 32.8321 65.2743 34.3791 65.2743 35.9151C65.2743 37.3791 64.7763 38.8271 63.6123 39.9661C63.4213 40.1541 63.2143 40.3131 62.9973 40.4541C68.2433 44.8031 71.8643 50.5981 71.8643 56.9771C71.8643 69.6651 56.1323 80.5981 42.5533 81.4041C41.8123 84.0171 39.8693 89.1391 35.5773 91.5001C34.6093 92.0331 33.3933 91.6801 32.8613 90.7121C32.3273 89.7441 32.6813 88.5261 33.6493 87.9961C36.2113 86.5871 37.6583 83.4761 38.3853 81.3341C25.7343 80.1221 16.4893 70.0571 16.4893 56.9761C16.4893 46.8461 21.1333 39.1621 28.9843 35.2891C27.9793 35.4671 27.3093 35.2921 27.1613 35.2451L26.9923 35.1801C24.2893 33.9511 23.6203 32.2751 23.5363 31.0841C23.4123 29.3381 24.4433 27.6981 25.6483 26.3961C24.2353 24.0011 24.0743 20.7181 26.3113 18.5801C27.1643 17.7661 28.2493 17.3891 29.4523 17.4891C31.4153 17.6541 33.3143 19.0911 34.3253 20.4441Z" fill="#B89A7B"/>
<path d="M37.0285 53.0244C36.9475 53.9114 37.5925 54.6894 38.4735 54.7724C39.3285 54.8544 40.1345 55.0634 40.8925 55.3444L37.3875 59.5974C36.8245 60.2804 36.9216 61.2894 37.6056 61.8544C38.2896 62.4194 39.2995 62.3214 39.8625 61.6374L43.7736 56.8944C45.7526 58.3004 46.9556 59.8794 46.9846 59.9174C47.5096 60.6284 48.5115 60.7784 49.2245 60.2544C49.6505 59.9404 49.8765 59.4544 49.8765 58.9614C49.8765 58.6324 49.7746 58.2984 49.5636 58.0124C49.4446 57.8504 47.4736 55.2284 44.2136 53.3674C44.2036 53.3614 44.1956 53.3554 44.1866 53.3504C42.6496 52.4774 40.8295 51.7734 38.7766 51.5784C37.8956 51.4964 37.1125 52.1424 37.0285 53.0244Z" fill="#010101"/>
<path d="M27.0453 46.4252C24.2823 49.0692 22.8223 52.6782 22.8223 56.8652C22.8223 60.8022 24.4743 64.5582 27.3543 67.1712C32.7363 72.0512 41.1723 73.6892 48.8483 71.3442C54.1453 69.7262 63.1103 64.8562 63.1123 56.8662C63.1123 52.5002 59.1613 48.1782 57.0733 46.5032C53.5343 43.6632 48.0933 41.8202 42.5143 41.5742C36.1973 41.2962 30.5583 43.0642 27.0453 46.4252ZM42.3383 45.5712C47.0963 45.7812 51.6713 47.2972 54.5693 49.6232C56.7553 51.3762 59.1123 54.6442 59.1123 56.8672C59.1103 62.5312 51.6333 66.3112 47.6803 67.5182C41.3243 69.4592 34.4003 68.1612 30.0423 64.2082C27.9963 62.3532 26.8223 59.6762 26.8223 56.8652C26.8223 53.7522 27.8273 51.2122 29.8093 49.3152C32.5383 46.7052 37.1053 45.3402 42.3383 45.5712Z" fill="#010101"/>
<path d="M43.668 36.4729C43.668 36.4729 63.227 42.9699 65.609 56.8829C63.226 70.7969 43.668 77.2939 43.668 77.2939C66.412 76.6479 69.65 57.4129 69.734 56.8959L69.738 56.8959C69.738 56.8959 69.736 56.8849 69.736 56.8829C69.736 56.8819 69.738 56.8709 69.738 56.8709L69.734 56.8709C69.65 56.3539 66.412 37.1199 43.668 36.4729Z" fill="#B89A7B"/>
<path d="M25.6473 26.3967C24.4423 27.6987 23.4113 29.3377 23.5353 31.0847C23.6193 32.2747 24.2883 33.9517 26.9913 35.1807L27.1603 35.2457C27.3083 35.2927 27.9783 35.4677 28.9833 35.2897C21.1313 39.1617 16.4883 46.8467 16.4883 56.9767C16.4883 70.0577 25.7333 80.1227 38.3843 81.3327C37.6563 83.4757 36.2093 86.5857 33.6483 87.9947C32.6803 88.5247 32.3263 89.7427 32.8603 90.7107C33.3923 91.6787 34.6083 92.0317 35.5763 91.4987C39.8683 89.1387 41.8113 84.0167 42.5523 81.4027C56.1303 80.5967 71.8633 69.6637 71.8633 56.9757C71.8633 50.5957 68.2423 44.8007 62.9963 40.4527C63.2133 40.3107 63.4203 40.1517 63.6113 39.9647C64.7753 38.8257 65.2733 37.3777 65.2733 35.9137C65.2733 34.3787 64.7203 32.8307 63.8223 31.6027C65.0153 30.3347 66.0843 28.7247 66.0843 27.0177C66.0843 26.9067 66.0803 26.7936 66.0703 26.6826C65.9723 25.4936 65.2833 23.8247 62.5643 22.6277L62.3943 22.5647C62.0603 22.4627 59.1153 21.7407 55.6503 25.8717C52.8203 25.4927 39.1243 23.6557 35.6343 23.1877C35.6163 23.1477 35.5983 23.1077 35.5803 23.0657C34.6793 21.0337 34.5023 20.6787 34.3243 20.4427C33.3133 19.0897 31.4153 17.6527 29.4513 17.4887C28.2493 17.3877 27.1633 17.7646 26.3103 18.5797C24.0733 20.7187 24.2343 24.0027 25.6473 26.3967ZM33.7343 32.2737L37.7413 32.7497C35.5363 33.0207 33.4703 33.5097 31.5563 34.1967C32.2403 33.7407 32.9703 33.1257 33.7343 32.2737ZM67.8623 56.9757C67.8623 67.8127 52.8213 77.4547 40.9673 77.4547C29.1013 77.4547 20.4883 68.8417 20.4883 56.9757C20.4883 41.8757 31.5843 36.4967 41.9673 36.4967C53.6243 36.4967 67.8623 45.9467 67.8623 56.9757ZM52.6103 34.5127L54.1533 34.6967C54.1653 34.7307 54.1763 34.7617 54.1903 34.7977C54.2433 34.9417 54.2903 35.0727 54.3383 35.2037C53.7673 34.9597 53.1903 34.7267 52.6103 34.5127ZM31.8793 22.1857C32.0463 22.5007 32.5763 23.6957 32.8363 24.2827C33.3833 25.5157 33.5673 25.9306 34.4063 26.0517C34.4633 26.0597 55.7723 28.9157 55.7723 28.9157C56.3973 29.2307 57.2273 28.6917 57.6763 28.1217C59.7463 25.4877 61.2603 25.4347 61.4923 25.4377C62.2173 25.7727 63.0253 26.2887 63.0803 26.9306C63.1643 28.2827 60.7833 30.5497 59.1173 31.6477C58.4263 32.1027 58.2363 33.0357 58.6893 33.7237C59.1443 34.4157 60.0723 34.6087 60.7633 34.1547C60.9273 34.0477 61.2063 33.8577 61.5503 33.6027C62.3353 34.8317 62.6933 36.6637 61.5093 37.8207C61.2843 38.0417 61.0403 38.1257 60.6963 38.1007C59.7943 38.0377 58.6573 37.2367 58.0263 36.4627C57.8293 36.0227 57.2583 34.4587 57.0063 33.7687C56.8713 33.4037 56.7603 33.1037 56.6493 32.8517C56.6223 32.7697 56.5833 32.6987 56.5423 32.6227C56.4873 32.5187 56.4333 32.4247 56.3723 32.3427C56.3603 32.3297 56.3513 32.3187 56.3393 32.3067C56.1243 32.0297 55.8513 31.8787 55.4213 31.8277C55.4173 31.8277 55.4153 31.8247 55.4113 31.8247L32.4633 29.1017L31.9423 29.7477C29.8393 32.3547 28.3253 32.3897 28.0913 32.3837C27.3723 32.0397 26.5703 31.5157 26.5253 30.8717C26.4713 29.9897 27.4503 28.7626 28.6013 27.7106C28.6113 27.7016 28.6233 27.6997 28.6333 27.6907C28.6423 27.6816 28.6463 27.6697 28.6543 27.6617C29.2833 27.0937 29.9583 26.5777 30.5433 26.2027C31.2413 25.7547 31.4423 24.8267 30.9973 24.1307C30.5513 23.4337 29.6243 23.2297 28.9273 23.6757C28.7373 23.7967 28.3903 24.0276 27.9663 24.3407C27.4583 23.1627 27.3753 21.7086 28.3803 20.7496C28.6093 20.5306 28.8543 20.4497 29.1993 20.4787C30.1173 20.5546 31.2653 21.3947 31.8793 22.1857Z" fill="#886D50"/>
<path d="M59.9217 101.784C59.9217 101.51 59.6996 101.288 59.4257 101.288C59.1518 101.288 58.9297 101.51 58.9297 101.784C58.9297 102.058 59.1518 102.28 59.4257 102.28C59.6996 102.28 59.9217 102.058 59.9217 101.784Z" fill="#EFC59F"/>
<path d="M55.7342 29.9991C55.7342 29.7252 55.5121 29.5031 55.2382 29.5031C54.9642 29.5031 54.7422 29.7252 54.7422 29.9991C54.7422 30.273 54.9642 30.4951 55.2382 30.4951C55.5121 30.4951 55.7342 30.273 55.7342 29.9991Z" fill="white"/>
<path d="M62.4432 27.1573C62.4432 26.8834 62.2211 26.6613 61.9472 26.6613C61.6732 26.6613 61.4512 26.8834 61.4512 27.1573C61.4512 27.4313 61.6732 27.6533 61.9472 27.6533C62.2211 27.6533 62.4432 27.4313 62.4432 27.1573Z" fill="white"/>
<path d="M28.2342 30.6983C28.2342 30.4244 28.0121 30.2023 27.7382 30.2023C27.4642 30.2023 27.2422 30.4244 27.2422 30.6983C27.2422 30.9723 27.4642 31.1943 27.7382 31.1943C28.0121 31.1943 28.2342 30.9723 28.2342 30.6983Z" fill="white"/>
<path d="M60.5454 11.9047C60.3814 12.1237 60.4224 12.4367 60.6434 12.6047C60.8274 12.7437 79.0104 25.7707 84.0824 55.8257C79.0104 85.8807 60.8264 99.9077 60.6434 100.047C60.4224 100.214 60.3814 100.528 60.5454 100.747C60.7114 100.968 61.0244 101.012 61.2444 100.846C61.4324 100.705 79.9614 86.4357 85.0844 55.9087C85.0884 55.8817 85.0904 55.8547 85.0904 55.8287C85.0904 55.8277 85.0904 55.8277 85.0904 55.8267L85.0904 55.8257L85.0904 55.8247C85.0904 55.8237 85.0904 55.8237 85.0904 55.8227C85.0904 55.7967 85.0884 55.7697 85.0844 55.7427C79.9614 25.2167 61.4324 11.9467 61.2444 11.8057C61.0234 11.6397 60.7114 11.6837 60.5454 11.9047Z" fill="#EFC59F"/>
<path d="M34.3223 27.1572L53.4753 29.6982" stroke="white" stroke-miterlimit="10" stroke-linecap="round" stroke-linejoin="round"/>
<path d="M85.7313 74.8811C87.9603 68.7861 89.5943 62.4301 90.5863 56.1801L90.6333 55.8881L90.5923 55.5951C89.6883 48.9811 87.6313 41.5871 84.5043 34.4161L83.2013 31.5791C75.2673 15.0741 61.5663 0.496079 42.9673 0.496079C19.2623 0.496079 0.658329 25.2581 0.611329 56.8681L0.611329 56.9851C0.611329 72.0891 4.86933 86.1521 12.6013 96.5831C20.5673 107.329 31.5223 113.247 43.4483 113.247C62.5403 113.247 76.5423 97.4781 84.4153 78.2741L85.7313 74.8811ZM86.5893 55.8441C83.5503 74.4911 70.7143 109.247 43.4483 109.247C21.6703 109.247 4.61233 86.2911 4.61233 56.9861L4.61233 56.8751C4.65533 27.5041 21.5033 4.49707 42.9683 4.49707C70.4663 4.49707 84.1693 38.8891 86.5893 55.8441Z" fill="#886D50"/>
</svg>
