<svg width="149" height="149" viewBox="0 0 149 149" fill="none" xmlns="http://www.w3.org/2000/svg">
<path d="M140.77 78.3507C142.986 41.6907 115.063 10.1739 78.4027 7.9561C41.7428 5.73829 10.2283 33.6593 8.01302 70.3193C5.79777 106.979 33.7207 138.496 70.3806 140.714C107.041 142.932 138.555 115.011 140.77 78.3507Z" fill="url(#paint0_linear)"/>
<path fill-rule="evenodd" clip-rule="evenodd" d="M13.0217 74.6992C13.0217 108.385 40.3271 135.689 74.002 135.692C107.677 135.695 134.982 108.395 134.982 74.7093C134.982 41.0233 107.677 13.7196 74.0019 13.7168C40.3271 13.714 13.0217 41.0131 13.0217 74.6992ZM74.002 146.704C34.2338 146.701 2.00195 114.459 2.00195 74.6982C2.00195 34.9374 34.2338 2.70093 74.0019 2.70425C113.77 2.70756 146.002 34.9494 146.002 74.7103C146.002 114.471 113.77 146.708 74.002 146.704Z" fill="black"/>
<defs>
<linearGradient id="paint0_linear" x1="8.01302" y1="70.3193" x2="140.771" y2="78.3414" gradientUnits="userSpaceOnUse">
<stop stop-color="#F1B644"/>
<stop offset="1" stop-color="#B16F22"/>
</linearGradient>
</defs>
</svg>
