<svg width="77" height="78" viewBox="0 0 77 78" fill="none" xmlns="http://www.w3.org/2000/svg">
<path d="M7.88809 39.8489C7.88809 23.0136 21.5131 9.36314 38.3205 9.35978C55.1279 9.35642 68.7529 23.0014 68.7529 39.8368C68.7529 56.6721 55.1279 70.3225 38.3205 70.3259C21.5131 70.3293 7.88809 56.6843 7.88809 39.8489Z" fill="white"/>
<path d="M35.1992 19.7849C35.2365 19.6067 35.2569 19.4245 35.2569 19.241C35.2569 18.5346 34.97 17.839 34.4681 17.3406C33.9661 16.8386 33.2741 16.5518 32.5677 16.5518C31.8578 16.5518 31.1657 16.8386 30.6638 17.3406C30.1654 17.839 29.8785 18.531 29.8785 19.241C29.8785 19.9473 30.1654 20.6429 30.6638 21.1413C30.7251 21.2026 30.7896 21.2607 30.8563 21.3156C30.6899 21.6652 30.5942 22.0549 30.5942 22.4676C30.5942 23.9528 31.7982 25.1568 33.2834 25.1568H35.0762C36.5613 25.1568 37.7654 23.9528 37.7654 22.4676C37.7654 21.0241 36.6269 19.8494 35.1992 19.7849Z" fill="black"/>
<path d="M34.3612 30.1769C33.6512 30.1769 32.9592 30.4637 32.4572 30.9657C31.9588 31.4641 31.672 32.1597 31.672 32.8661C31.672 33.5724 31.9588 34.268 32.4572 34.7664C32.9592 35.2684 33.6512 35.5552 34.3612 35.5552C35.0675 35.5552 35.7595 35.2684 36.2615 34.7664C36.7635 34.268 37.0503 33.5724 37.0503 32.8661C37.0503 32.1561 36.7635 31.4641 36.2615 30.9657C35.7595 30.4637 35.0675 30.1769 34.3612 30.1769Z" fill="black"/>
<path d="M42.6068 14.4004C41.8969 14.4004 41.2049 14.6872 40.7029 15.1856C40.2045 15.6876 39.9177 16.3832 39.9177 17.0896C39.9177 17.7959 40.2045 18.4915 40.7029 18.9899C41.2049 19.4919 41.8969 19.7788 42.6068 19.7788C43.3132 19.7788 44.0052 19.4919 44.5072 18.9899C45.0092 18.4915 45.296 17.7959 45.296 17.0896C45.296 16.3832 45.0092 15.6876 44.5072 15.1856C44.0052 14.6872 43.3132 14.4004 42.6068 14.4004Z" fill="black"/>
<path d="M20.4841 29.388C20.9825 28.8896 21.2729 28.194 21.2729 27.4876C21.2729 26.7777 20.9825 26.0856 20.4841 25.5872C19.9821 25.0853 19.2901 24.7984 18.5837 24.7984C17.8738 24.7984 17.1818 25.0853 16.6798 25.5872C16.1814 26.0856 15.8945 26.7812 15.8945 27.4876C15.8945 28.194 16.1814 28.8896 16.6798 29.388C17.1818 29.8899 17.8738 30.1768 18.5837 30.1768C19.2901 30.1768 19.9821 29.8899 20.4841 29.388Z" fill="black"/>
<path d="M28.9824 39.4992C28.2725 39.4992 27.5805 39.786 27.0785 40.288C26.5801 40.7864 26.2897 41.4784 26.2897 42.1884C26.2897 42.8947 26.5801 43.5904 27.0785 44.0887C27.5805 44.5907 28.2725 44.8776 28.9824 44.8776C29.6888 44.8776 30.3808 44.5907 30.8828 44.0887C31.3848 43.5904 31.6716 42.8947 31.6716 42.1884C31.6716 41.4784 31.3848 40.7864 30.8828 40.288C30.3808 39.786 29.6888 39.4992 28.9824 39.4992Z" fill="black"/>
<path d="M21.9639 39.0118C21.1998 37.7382 19.5479 37.3251 18.2743 38.0896C17.0007 38.8537 16.5877 40.5055 17.3521 41.7791L18.4278 43.5719C18.9319 44.4124 19.8226 44.8778 20.7362 44.8778C21.207 44.8778 21.6842 44.7541 22.1174 44.4941C23.391 43.7301 23.804 42.0782 23.0396 40.8046L21.9639 39.0118Z" fill="black"/>
<path d="M54.7899 22.5983C54.792 22.5546 54.7963 22.5115 54.7963 22.4671C54.7963 20.9819 53.5923 19.7779 52.1071 19.7779H50.4936C49.0085 19.7779 47.8044 20.9819 47.8044 22.4671C47.8044 23.9522 49.0085 25.1563 50.4936 25.1563H50.8626C50.9063 25.8024 51.1828 26.4212 51.6389 26.8777C52.1408 27.3797 52.8329 27.6665 53.5428 27.6665C54.2492 27.6665 54.9412 27.3797 55.4432 26.8777C55.9451 26.3793 56.232 25.6837 56.232 24.9773C56.232 24.271 55.9451 23.5754 55.4432 23.077C55.2503 22.8841 55.0287 22.7238 54.7899 22.5983Z" fill="black"/>
<path d="M28.4852 60.0902C27.9056 60.5001 27.5062 61.1339 27.3863 61.8336C27.2671 62.5283 27.4346 63.2619 27.8425 63.8385C28.2504 64.4152 28.8862 64.8175 29.5809 64.9366C30.2806 65.0566 31.0113 64.8912 31.5909 64.4813C32.1676 64.0734 32.5669 63.4396 32.6869 62.7399C32.806 62.0452 32.6415 61.3096 32.2336 60.7329C31.8236 60.1533 31.1869 59.756 30.4922 59.6369C29.7925 59.5169 29.0619 59.6823 28.4852 60.0902Z" fill="black"/>
<path d="M43.6138 45.4696C43.6086 45.4622 43.6044 45.4538 43.5993 45.4465C43.1914 44.8698 42.5555 44.4675 41.8579 44.3505C41.1582 44.2305 40.4276 44.3959 39.8509 44.8038C39.2712 45.2137 38.8719 45.8475 38.7519 46.5472C38.6328 47.2419 38.7982 47.9725 39.2082 48.5522C39.616 49.1289 40.2519 49.5311 40.9466 49.6502C41.5278 49.7499 42.1295 49.6498 42.6492 49.3788C42.6544 49.3862 42.6584 49.3943 42.6638 49.4019C43.0717 49.9786 43.7075 50.3809 44.4022 50.5C45.1019 50.62 45.8326 50.4546 46.4122 50.0446C46.9889 49.6367 47.3882 49.003 47.5082 48.3033C47.6282 47.6036 47.4628 46.8729 47.0549 46.2962C46.647 45.7195 46.0112 45.3173 45.3135 45.2002C44.7328 45.1006 44.132 45.2006 43.6138 45.4696Z" fill="black"/>
<path d="M32.4903 49.1472L30.923 50.0361C29.6298 50.7671 29.1778 52.4101 29.9107 53.702C30.6435 54.994 32.2846 55.4472 33.5766 54.7144L35.1438 53.8255C35.2231 53.7805 35.2995 53.7321 35.3727 53.6804C36.4869 52.8923 36.844 51.3723 36.1564 50.1599C35.4234 48.8676 33.7822 48.4144 32.4903 49.1472Z" fill="black"/>
<path d="M51.6267 59.1369C50.2902 59.7826 49.7299 61.3915 50.3765 62.7286L51.326 64.6921C51.9725 66.029 53.5806 66.589 54.9178 65.9423C55.0543 65.8765 55.1827 65.8002 55.3027 65.7153C56.3565 64.97 56.7486 63.5509 56.168 62.3506L55.2184 60.3871C54.5718 59.05 52.9638 58.4903 51.6267 59.1369Z" fill="black"/>
<path d="M22.8855 50.8919C22.1756 50.8919 21.4836 51.1787 20.9816 51.6807C20.4832 52.1791 20.1963 52.8747 20.1963 53.5811C20.1963 54.2874 20.4832 54.983 20.9816 55.4814C21.4836 55.9834 22.1756 56.2703 22.8855 56.2703C23.5919 56.2703 24.2839 55.9834 24.7859 55.4814C25.2878 54.983 25.5747 54.2874 25.5747 53.5811C25.5747 52.8711 25.2878 52.1791 24.7859 51.6807C24.2839 51.1787 23.5919 50.8919 22.8855 50.8919Z" fill="black"/>
<path d="M59.9792 45.6846L58.7242 44.7882C57.5159 43.9251 55.836 44.2052 54.973 45.4135C54.1096 46.6222 54.3896 48.3017 55.5983 49.1647L56.8533 50.0611C57.3269 50.3996 57.873 50.562 58.4141 50.562C59.2531 50.562 60.0799 50.1705 60.6045 49.4358C61.4679 48.2271 61.1879 46.5476 59.9792 45.6846Z" fill="black"/>
<path d="M48.2056 32.0875C47.6259 32.4974 47.2266 33.1312 47.1066 33.8309C46.9875 34.5256 47.1529 35.2562 47.5629 35.8359C47.9707 36.4125 48.6066 36.8148 49.3013 36.9339C50.001 37.0539 50.7316 36.8885 51.3112 36.4786C51.8879 36.0707 52.2873 35.4369 52.4073 34.7372C52.5293 34.0404 52.3618 33.3069 51.9539 32.7302C51.544 32.1506 50.9102 31.7512 50.2126 31.6342C49.5129 31.5142 48.7823 31.6796 48.2056 32.0875Z" fill="black"/>
<path fill-rule="evenodd" clip-rule="evenodd" d="M63.2045 39.8377C63.2045 53.6176 52.0547 64.7749 38.3202 64.7776C24.5857 64.7804 13.4359 53.6275 13.4359 39.8477C13.4359 26.0678 24.5857 14.9105 38.3202 14.9078C52.0547 14.905 63.2045 26.0578 63.2045 39.8377ZM38.3202 75.8739C58.2004 75.8699 74.3008 59.7263 74.3008 39.8355C74.3008 19.9447 58.2004 3.80752 38.3202 3.8115C18.44 3.81547 2.33967 19.9591 2.33967 39.8499C2.33967 59.7407 18.44 75.8779 38.3202 75.8739Z" fill="black"/>
</svg>
