<svg width="78" height="77" viewBox="0 0 78 77" fill="none" xmlns="http://www.w3.org/2000/svg">
<path d="M39.4905 12.1255C54.0566 12.1255 65.8647 23.9337 65.8647 38.4998C65.8647 53.0659 54.0566 64.874 39.4905 64.874C24.9244 64.874 13.1162 53.0659 13.1162 38.4998C13.1162 23.9337 24.9244 12.1255 39.4905 12.1255Z" fill="url(#paint0_radial)"/>
<path opacity="0.4" d="M18.2716 46.0974C19.6554 47.0471 21.392 48.4309 21.3106 50.3032C21.2564 52.0126 20.3881 54.2376 18.9228 54.9702C16.4265 51.8769 14.6357 48.241 13.7402 44.2252C15.3954 44.5236 17.1591 45.3376 18.2716 46.0974Z" fill="white"/>
<path opacity="0.4" d="M37.2114 58.4978C37.9711 59.5018 39.6263 62.2694 40.4403 64.82C40.1147 64.8472 39.7891 64.8472 39.4635 64.8472C34.8236 64.8472 30.4279 63.6261 26.6562 61.5097C27.6602 56.9783 33.7111 53.885 37.2114 58.4978Z" fill="white"/>
<path opacity="0.4" d="M47.6585 54.9702C48.8252 52.1754 51.0231 51.0358 53.8993 50.5745C55.5544 50.3303 59.706 50.1946 62.6093 51.1172C60.0044 55.8656 56.0157 59.6915 51.1587 62.1064C48.2825 60.994 46.1932 58.4705 47.6585 54.9702Z" fill="white"/>
<path opacity="0.4" d="M35.5019 49.2994C32.8428 49.0552 30.048 47.9426 29.2882 45.3921C28.3114 42.136 30.1294 38.9613 33.5482 38.3915C36.8586 37.8488 40.5217 39.1784 41.6342 42.6244C42.9637 46.803 39.5991 49.7064 35.5019 49.2994Z" fill="white"/>
<path opacity="0.4" d="M54.0072 37.9033C51.2667 32.0424 58.7285 29.4647 64.0739 29.0034C65.2136 31.9339 65.8376 35.1357 65.8376 38.446C65.8376 39.5585 65.7562 40.6439 65.6206 41.7292C61.659 42.6518 55.2825 40.6167 54.0072 37.9033Z" fill="white"/>
<path opacity="0.4" d="M54.8488 19.5874C54.1433 21.1341 52.5153 22.6807 51.1314 20.6457C49.9647 18.9091 51.4842 16.8198 53.3836 16.0872C54.1162 16.5484 54.8488 17.0368 55.5543 17.5795C55.3643 18.2579 55.1473 18.9362 54.8488 19.5874Z" fill="white"/>
<path opacity="0.4" d="M39.6262 16.7384C40.5216 20.8899 40.0603 26.371 36.0445 28.8131C31.1604 31.7707 24.8382 29.8713 22.7217 24.5259C21.9619 22.6265 21.7449 20.6186 22.0162 18.7192C26.2491 14.9747 31.7031 12.5598 37.7268 12.1528C38.6765 13.618 39.3277 15.3546 39.6262 16.7384Z" fill="white"/>
<path opacity="0.4" d="M18.6246 34.2129C18.2719 36.6821 15.3957 37.6046 13.1436 36.9806C13.3064 34.1315 13.9304 31.391 14.9073 28.8675C16.9152 30.1699 18.8417 32.7205 18.6246 34.2129Z" fill="white"/>
<path opacity="0.4" d="M46.0571 33.9144C45.026 34.24 43.6964 34.6198 42.8553 33.6159C41.987 32.6119 41.39 30.9567 41.987 29.6814C42.801 27.9177 45.6229 27.4293 46.8982 28.976C48.1193 30.4955 48.2007 33.1817 46.0571 33.9144Z" fill="white"/>
<path fill-rule="evenodd" clip-rule="evenodd" d="M14.2467 38.4949C14.2467 52.4541 25.5574 63.7565 39.4902 63.7593C53.423 63.7621 64.7338 52.4642 64.7338 38.505C64.7338 24.5458 53.423 13.2434 39.4902 13.2406C25.5574 13.2378 14.2467 24.5358 14.2467 38.4949ZM39.4902 75C19.323 74.9959 2.99023 58.6423 2.99023 38.4927C2.99023 18.3431 19.323 1.99593 39.4902 1.99996C59.6574 2.00399 75.9902 18.3577 75.9902 38.5073C75.9902 58.6568 59.6574 75.004 39.4902 75Z" fill="black"/>
<defs>
<radialGradient id="paint0_radial" cx="0" cy="0" r="1" gradientUnits="userSpaceOnUse" gradientTransform="translate(15.3588 64.191) scale(60.9995)">
<stop offset="0.2326" stop-color="#C30F8F"/>
<stop offset="0.387" stop-color="#D71D86"/>
<stop offset="0.5968" stop-color="#EC2C7D"/>
<stop offset="0.8031" stop-color="#F93578"/>
<stop offset="1" stop-color="#FD3876"/>
</radialGradient>
</defs>
</svg>
