<svg width="77" height="78" viewBox="0 0 77 78" fill="none" xmlns="http://www.w3.org/2000/svg">
<path d="M54.7016 18.0577C54.622 17.9982 54.5324 17.9288 54.4527 17.8693C54.3631 17.9982 54.2735 18.1172 54.174 18.2361C53.6563 18.8606 52.9893 19.3761 52.1829 19.7132C49.5347 20.8235 45.5923 20.3377 44.4673 17.681C44.308 17.3043 43.7605 17.3043 43.6908 16.9276C43.2129 17.4133 42.6355 17.8198 41.9685 18.0973C40.3856 18.7615 38.6633 18.5831 37.2894 17.7603C36.6722 17.3935 36.1246 16.8978 35.6866 16.2832C35.6368 17.6711 36.0051 18.2064 35.129 19.2175C34.5815 19.852 33.8846 20.3675 33.0782 20.7045C30.1015 21.9536 26.6071 20.4071 25.283 17.2646C25.1835 17.0366 25.1038 16.7987 25.0341 16.5608C25.0341 16.5509 25.0242 16.5409 25.0242 16.531C13.7446 23.0341 9.24467 36.645 14.4315 48.9176C20.0564 62.2409 35.4576 68.4962 48.8378 62.8952C50.7991 62.0724 52.601 61.0414 54.2437 59.8419C63.801 52.8432 67.6737 40.0056 62.8751 28.6351C61.0532 24.3129 58.1861 20.7342 54.7016 18.0577ZM46.7272 35.3959C48.1807 38.8457 47.2449 42.7119 44.6565 45.1307C43.9198 45.8246 43.0437 46.3996 42.0481 46.816C37.5881 48.6796 32.451 46.5979 30.5794 42.1567C28.7077 37.7156 30.7984 32.6004 35.2585 30.7367C35.2684 30.7367 35.2684 30.7268 35.2784 30.7268C39.7385 28.8829 44.8556 30.9647 46.7272 35.3959Z" fill="#E4B987"/>
<path d="M52.8901 15.7085C52.8005 15.8374 52.7109 15.9563 52.6113 16.0753C52.7905 16.0257 52.9598 15.9662 53.139 15.8968C53.0494 15.8374 52.9697 15.7779 52.8901 15.7085Z" fill="#D77C9C"/>
<path d="M53.1381 15.9066C52.9689 15.976 52.7897 16.0355 52.6105 16.0851C52.0928 16.7096 51.4258 17.2251 50.6194 17.5621C47.9712 18.6724 44.9049 17.4134 43.7799 14.7567C43.6206 14.38 43.5111 13.9934 43.4415 13.6167C42.9636 14.1024 42.3862 14.5089 41.7191 14.7864C40.1362 15.4506 38.4139 15.2722 37.04 14.4494C36.4328 14.0727 35.8852 13.5671 35.4472 12.9624C35.3974 14.3503 34.8897 15.6588 34.0036 16.67C33.4561 17.3044 32.7592 17.8199 31.9528 18.1569C28.9761 19.406 25.4817 17.8595 24.1576 14.717C24.058 14.489 23.9784 14.2511 23.9087 14.0132C14.5107 21.0516 10.7276 33.7802 15.4863 45.0614C21.1112 58.3848 36.5124 64.6401 49.8926 59.0391C50.8583 58.6327 70.9784 47.5398 61.3017 26.4741C59.3504 22.2114 56.6226 18.5733 53.1381 15.9066ZM45.1638 33.2449C46.6173 36.6947 45.6814 40.5608 43.093 42.9797C42.3563 43.6736 41.4802 44.2486 40.4847 44.6649C36.0246 46.5286 30.8875 44.4468 29.0159 40.0057C27.1442 35.5646 29.2349 30.4493 33.695 28.5857C33.7049 28.5857 33.7049 28.5757 33.7149 28.5757C38.165 26.722 43.2921 28.8137 45.1638 33.2449Z" fill="#E15789"/>
<path d="M52.8901 15.7085C52.8005 15.8374 52.7109 15.9563 52.6113 16.0753C52.7905 16.0257 52.9598 15.9662 53.139 15.8968C53.0494 15.8374 52.9697 15.7779 52.8901 15.7085Z" fill="#D77C9C"/>
<path d="M31.4427 49.7723L30.8242 51.0381L34.7542 52.942L35.3726 51.6763L31.4427 49.7723Z" fill="#A1C6D9"/>
<path d="M37.7421 17.4586L34.2305 20.0493L35.072 21.1804L38.5837 18.5897L37.7421 17.4586Z" fill="#A1C6D9"/>
<path d="M22.7337 40.8391L21.5078 45.0161L22.8647 45.411L24.0906 41.234L22.7337 40.8391Z" fill="#F4D331"/>
<path d="M58.3259 29.3866L54.1836 30.7749L54.6346 32.1091L58.7769 30.7208L58.3259 29.3866Z" fill="#A1C6D9"/>
<path d="M25.6914 25.928L21.4258 26.875L21.7334 28.2489L25.999 27.3019L25.6914 25.928Z" fill="#C72B2C"/>
<path d="M53.7752 41.1373L53.6562 42.54L58.0114 42.9063L58.1304 41.5035L53.7752 41.1373Z" fill="#F4D331"/>
<path d="M45.431 49.3055L44.2051 53.4824L45.5619 53.8773L46.7879 49.7003L45.431 49.3055Z" fill="#C72B2C"/>
<path d="M48.8392 21.7351L47.6133 25.9121L48.9701 26.307L50.1961 22.13L48.8392 21.7351Z" fill="#F4D331"/>
<path d="M42.9247 43.3966C39.7563 46.3145 34.0585 46.3531 31.1406 43.1846C28.2227 40.0161 29.1895 34.8404 32.358 31.9225C35.5264 29.0045 41.547 28.9672 44.4649 32.1356C47.3828 35.3041 46.0932 40.4786 42.9247 43.3966Z" fill="black"/>
<path fill-rule="evenodd" clip-rule="evenodd" d="M58.6056 7.62375C57.1932 8.52758 55.5143 9.05153 53.7129 9.05153C49.5134 9.05153 45.9786 6.20351 44.9354 2.3335C43.7136 4.78285 41.1837 6.46533 38.2603 6.46533C35.6787 6.46533 33.4034 5.15312 32.0653 3.15873C31.1265 6.26134 28.2454 8.51962 24.8361 8.51962C22.346 8.51962 20.1376 7.31471 18.7619 5.45608C18.2822 5.80127 17.8039 6.16127 17.327 6.53622C7.59703 14.9971 2.29102 27.6937 2.29102 39.2813C2.29102 43.2981 3.72572 51.2609 8.61254 58.668C13.8573 66.6177 23.0068 73.7318 37.3524 74.6102C48.9617 75.3209 58.1917 69.9764 64.301 63.4667C70.1936 57.1878 74.0636 48.9252 74.5855 41.6186C74.7854 38.8193 74.9948 33.6056 72.9747 27.3969C70.9267 21.1024 66.7993 14.4127 59.2978 8.18799C59.0677 7.99707 58.8369 7.80898 58.6056 7.62375ZM27.4324 18.1575C27.9109 18.3347 28.4053 18.4455 28.9001 18.5059C29.6644 18.5992 30.4297 18.572 31.1392 18.4834C32.4122 18.3242 33.2862 17.7412 33.9176 16.9932C34.684 16.0852 35.0929 14.9341 35.4237 14.0027C35.4722 13.8662 35.519 13.7344 35.565 13.6088C35.6067 13.4951 35.6477 13.3864 35.6887 13.2839C35.7759 13.3972 35.8632 13.5055 35.9507 13.6088C37.6505 15.6182 39.3902 15.7768 40.8012 15.3289C41.7213 15.0368 42.5016 14.4868 43.0398 14.0241C43.0612 14.0057 43.0822 13.9875 43.1028 13.9694C43.2007 13.8835 43.2607 13.8187 43.3203 13.7544C43.3518 13.7204 43.3831 13.6865 43.4199 13.6497C43.4199 14.1684 43.6087 14.6117 43.8115 15.0563C44.625 16.8398 46.7587 17.985 47.7125 18.1584C47.8418 18.1819 47.9695 18.2012 48.0956 18.2165C49.4582 18.3822 50.6351 18.0847 51.4848 17.6036C52.337 17.1211 52.8602 16.4539 52.912 15.8836C55.9734 18.4239 58.2555 20.9764 59.9515 23.4471C65.025 30.8377 64.8544 37.4965 64.6109 40.9061C63.946 50.2139 53.8671 65.6787 37.9437 64.7038C16.1633 63.3703 12.291 43.8309 12.291 39.2813C12.291 33.7209 13.9413 27.7119 17.0463 22.4017C18.8493 19.318 21.1429 16.47 23.8888 14.0823C24.6043 16.4078 25.9413 17.6051 27.4324 18.1575Z" fill="black"/>
</svg>
