<svg width="149" height="149" viewBox="0 0 149 149" fill="none" xmlns="http://www.w3.org/2000/svg">
<path d="M8.67383 74.0034C8.67382 110.73 38.4469 140.505 75.1738 140.508C111.901 140.511 141.674 110.74 141.674 74.0127C141.674 37.2858 111.901 7.51061 75.1738 7.50804C38.4469 7.50547 8.67383 37.2765 8.67383 74.0034Z" fill="url(#paint0_linear)"/>
<path fill-rule="evenodd" clip-rule="evenodd" d="M13.8049 74.372C13.8049 108.058 41.1103 135.362 74.7852 135.365C108.46 135.367 135.765 108.068 135.765 74.3822C135.765 40.6961 108.46 13.3925 74.7852 13.3897C41.1103 13.3868 13.8049 40.6859 13.8049 74.372ZM74.7852 146.377C35.017 146.374 2.78515 114.132 2.78515 74.3711C2.78515 34.6103 35.017 2.37378 74.7851 2.3771C114.553 2.38042 146.785 34.6223 146.785 74.3831C146.785 114.144 114.553 146.38 74.7852 146.377Z" fill="black"/>
<defs>
<linearGradient id="paint0_linear" x1="141.674" y1="74.0127" x2="8.67383" y2="74.0127" gradientUnits="userSpaceOnUse">
<stop stop-color="#FF8ED2"/>
<stop offset="1" stop-color="#FF43B4"/>
</linearGradient>
</defs>
</svg>
