<svg width="133" height="134" viewBox="0 0 133 134" fill="none" xmlns="http://www.w3.org/2000/svg">
<path d="M-5.93415e-10 66.6475C-2.65681e-10 29.9205 29.7925 0.147461 66.5 0.147461C103.207 0.147461 133 29.9205 133 66.6475C133 103.374 103.207 133.147 66.5 133.147C29.7925 133.147 -9.21149e-10 103.374 -5.93415e-10 66.6475Z" fill="#1F0956"/>
<path d="M24.5967 118.282C23.5213 117.407 22.4709 116.507 21.4581 115.569L21.4581 17.7377C22.4709 16.8 23.5213 15.8998 24.5967 15.0247L24.5967 118.282ZM31.987 9.81118C30.8116 10.5238 29.6736 11.274 28.5482 12.0491L28.5482 121.258C29.6737 122.045 30.8241 122.783 31.987 123.496L31.987 9.81118ZM92.3097 127.959C116.219 117.882 133 94.2274 133 66.6596C133 39.0918 116.219 15.4373 92.3097 5.36032L92.3097 127.959ZM39.3773 5.93543C38.1018 6.49805 36.8639 7.11066 35.6384 7.74828L35.6384 125.558C36.8639 126.196 38.1143 126.809 39.3773 127.371L39.3773 5.93543ZM17.2065 22.026C16.2311 23.1137 15.2807 24.2265 14.3679 25.3642L14.3679 107.943C15.2807 109.093 16.2186 110.206 17.2065 111.281L17.2065 22.026ZM68.9384 133.097L68.9384 0.196835C68.1381 0.171826 67.3253 0.146817 66.5125 0.146817C65.6622 0.146817 64.8244 0.159329 63.9865 0.196836L63.9865 133.097C64.8119 133.135 65.6622 133.147 66.5 133.147C67.3128 133.147 68.1256 133.135 68.9384 133.097ZM7.29024 96.953C8.07803 98.4908 8.91585 99.9911 9.81619 101.454L9.81619 31.8779C8.91585 33.3407 8.07803 34.841 7.29024 36.3788L7.29024 96.953ZM91.0967 4.86023C89.1835 4.09758 87.2203 3.42244 85.2195 2.83484L85.2195 130.472C87.2203 129.884 89.171 129.209 91.0967 128.447L91.0967 4.86023ZM2.42591 48.7812C0.850316 54.4698 -3.17679e-06 60.4709 -2.90627e-06 66.6596C-2.63576e-06 72.8483 0.850317 78.8495 2.42591 84.5256L2.42591 48.7812ZM46.7676 3.1474C45.4046 3.57248 44.0541 4.03506 42.7161 4.54767L42.7161 128.772C44.0416 129.272 45.3921 129.747 46.7676 130.172L46.7676 3.1474ZM83.7065 2.40976C81.8808 1.92216 80.0176 1.50958 78.1419 1.17201L78.1419 132.135C80.0301 131.797 81.8808 131.385 83.7065 130.897L83.7065 2.40976ZM54.1579 1.30954C52.6948 1.58459 51.2318 1.90967 49.8062 2.28473L49.8062 131.035C51.2443 131.41 52.6948 131.735 54.1579 132.01L54.1579 1.30954ZM76.3287 0.884457C74.5905 0.621899 72.8399 0.434369 71.0642 0.321851L71.0642 132.997C72.8399 132.872 74.5905 132.685 76.3287 132.435L76.3287 0.884457ZM61.5481 0.34686C59.985 0.459378 58.422 0.634412 56.8964 0.859464L56.8964 132.46C58.4345 132.685 59.9851 132.847 61.5481 132.972L61.5481 0.34686Z" fill="url(#paint0_linear_1757_726)"/>
<defs>
<linearGradient id="paint0_linear_1757_726" x1="-2.90644e-06" y1="66.6558" x2="133.008" y2="66.6558" gradientUnits="userSpaceOnUse">
<stop stop-color="#2CB5FF"/>
<stop offset="0.5214" stop-color="#630596"/>
<stop offset="0.5723" stop-color="#720996"/>
<stop offset="0.6697" stop-color="#981395"/>
<stop offset="0.8023" stop-color="#D52494"/>
<stop offset="0.8652" stop-color="#F52C94"/>
</linearGradient>
</defs>
</svg>
