<svg width="134" height="134" viewBox="0 0 134 134" fill="none" xmlns="http://www.w3.org/2000/svg">
<mask id="mask0" mask-type="alpha" maskUnits="userSpaceOnUse" x="0" y="0" width="134" height="134">
<path d="M0.384766 67.3906C0.384766 30.6637 30.1773 0.890625 66.8848 0.890625C103.592 0.890625 133.385 30.6637 133.385 67.3906C133.385 104.118 103.592 133.891 66.8848 133.891C30.1773 133.891 0.384766 104.118 0.384766 67.3906Z" fill="url(#paint0_linear)"/>
</mask>
<g mask="url(#mask0)">
<path d="M21.2467 67.2517L21.2302 67.2821L21.2179 67.3144C12.952 89.1889 16.9967 109.552 29.0609 128.655C29.2372 128.944 29.4207 129.276 29.621 129.64C29.7261 129.83 29.8358 130.029 29.9516 130.235C30.2803 130.818 30.648 131.435 31.0524 131.959C31.4507 132.475 31.9228 132.952 32.4774 133.194C33.072 133.455 33.7183 133.426 34.3582 133.01L34.3588 133.01C35.0469 132.561 35.3917 131.978 35.4135 131.309C35.4339 130.684 35.168 130.067 34.8389 129.521C34.5049 128.966 34.0639 128.418 33.6544 127.926C33.5791 127.836 33.5052 127.747 33.4332 127.661C33.1021 127.266 32.8101 126.917 32.5982 126.609C23.8592 113.798 19.8941 99.9111 21.1839 84.4327L21.1846 84.4242L21.1851 84.4157C21.4807 78.4047 22.8534 72.8172 26.0654 67.7261C26.1076 67.6592 26.1452 67.5883 26.1769 67.5142L25.7174 67.3172L26.1769 67.5141L26.6039 66.5179C26.9567 65.6946 26.5141 64.7476 25.6562 64.4903L24.4741 64.1357C23.8155 63.9381 23.1151 64.214 22.7542 64.7857C22.656 64.9412 22.5556 65.0987 22.4538 65.2582C22.0511 65.8894 21.6283 66.5522 21.2467 67.2517Z" fill="#026794" stroke="#026794"/>
<path d="M40.3566 45.1896L40.6603 45.5868L40.3566 45.1896C39.3375 45.9689 38.3156 46.7513 37.2932 47.5566C36.7784 47.962 36.7384 48.5801 36.8498 49.0624C36.962 49.5479 37.2459 50.0248 37.5832 50.3539C37.8302 50.5948 38.1734 50.8529 38.5493 51.0021C38.9196 51.149 39.4241 51.2254 39.8684 50.9153C46.3124 46.4174 53.3822 43.5724 61.0884 41.8804C61.6349 41.7701 62.2894 41.4702 62.8181 41.1553C63.0874 40.9949 63.34 40.8212 63.5428 40.6512C63.724 40.4993 63.9371 40.293 64.0317 40.0582L63.5679 39.8714L64.0317 40.0582C64.111 39.8612 64.0736 39.6746 64.0614 39.6138L64.0608 39.6105C63.9581 39.0962 63.7386 38.6913 63.4151 38.4012C63.0945 38.1137 62.7089 37.9722 62.3283 37.9168C61.5895 37.8091 60.7873 38.0135 60.2211 38.2188C53.6686 40.403 47.2152 42.6856 40.7674 44.9671C40.6197 45.0193 40.481 45.0944 40.3566 45.1896Z" fill="#026794" stroke="#026794"/>
<path d="M38.0223 51.6388C38.3075 51.4214 38.4771 51.0652 38.3666 50.7241C38.0174 49.6468 37.0912 49.4352 35.9982 49.4737C35.7948 49.4808 35.6006 49.5588 35.4428 49.6873C30.7541 53.5041 26.924 58.0097 24.1109 63.4417C23.8279 63.9881 24.1199 64.6508 24.7093 64.8276C25.0682 64.9353 25.4271 65.043 25.786 65.1506C26.2492 65.2896 26.7443 65.0764 26.972 64.6498C29.7439 59.4567 33.4538 55.1197 38.0223 51.6388Z" fill="#1297C5"/>
<path d="M121.776 117.246C121.726 117.279 121.742 117.333 121.784 117.291C121.836 117.239 121.881 117.187 121.923 117.137C121.982 117.066 121.989 117.079 121.918 117.138C121.871 117.177 121.824 117.213 121.776 117.246Z" fill="#178BBA"/>
<path d="M122.271 35.7721C122.763 36.5582 123.278 37.3679 123.792 38.1758L123.812 38.207C124.323 39.0107 124.833 39.8125 125.32 40.591C125.361 40.6562 125.407 40.7179 125.456 40.7755L125.835 40.4494L125.456 40.7755C138.545 55.9882 139.957 80.4221 128.742 102.159C128.624 102.382 128.506 102.603 128.39 102.82C127.719 104.075 127.103 105.229 126.807 106.177C126.633 106.739 126.544 107.301 126.671 107.811C126.806 108.355 127.166 108.765 127.725 109.03C128.385 109.343 129.06 108.986 129.38 108.501C137.101 96.8338 141.585 82.8475 141.585 67.791C141.585 39.5807 125.874 15.0631 102.715 2.40278C101.53 1.75449 100.172 2.9097 100.725 4.1933C102.223 7.67239 104.253 10.9499 106.475 14.0771C110.189 19.4991 114.18 24.8688 118.154 30.2152C119.533 32.0699 120.909 33.9218 122.271 35.7721Z" fill="#1D3767" stroke="#1D3767"/>
<path d="M-6.61218 59.5356L-5.62551 59.6916C-4.93333 56.3296 -3.94467 52.964 -2.75682 49.6933C2.52645 39.6286 8.39567 30.1859 16.1406 21.8424C30.4209 8.26106 46.8231 1.74566 66.5757 5.95739C66.6803 5.97969 66.7826 5.98944 66.8769 5.99212C67.2104 6.00162 67.4914 6.0593 67.862 6.1354C67.9288 6.14911 67.9985 6.16342 68.0719 6.17815C68.9979 6.42366 69.9056 6.96335 70.8583 7.60699C71.0941 7.76626 71.3338 7.93289 71.5768 8.10175C72.295 8.60083 73.0411 9.1194 73.7949 9.52514C74.8166 10.0751 75.9262 10.4623 77.136 10.3476C78.3536 10.2321 79.5913 9.61677 80.8853 8.32345C81.3278 7.88124 81.407 7.22588 81.1756 6.69168C80.9867 6.25543 80.7978 5.79238 80.6066 5.32337C80.3378 4.66423 80.0642 3.99332 79.7788 3.36847C79.7655 3.33948 79.7542 3.3077 79.7453 3.27327C79.6676 2.97585 79.578 2.70022 79.4302 2.42796C79.3784 2.3325 79.3505 2.25943 79.3393 2.19857C78.908 -0.149326 78.5532 -2.42001 78.2745 -4.61357C78.1898 -5.28027 77.6719 -5.8204 76.994 -5.91097C73.8062 -6.33683 70.5427 -6.50919 67.2848 -6.50919C29.0272 -6.50919 -2.48435 22.3852 -6.61218 59.5356Z" fill="#1D3767" stroke="#1D3767"/>
<path d="M101.609 127.423L101.609 127.422L101.597 127.427C79.6061 136.343 58.3607 130.107 45.4985 111.11L45.4978 111.109C41.579 105.352 41.832 97.1482 45.0197 89.6361C48.2034 82.1336 54.2629 75.4546 61.7522 72.7618C62.4659 72.5087 63.396 72.3823 64.4332 72.2542C64.4957 72.2465 64.5586 72.2388 64.6217 72.231C65.5807 72.1132 66.6092 71.9869 67.5179 71.7352C68.4837 71.4676 69.4047 71.0357 69.9786 70.2333C70.5659 69.4123 70.7165 68.3105 70.3706 66.8738L70.3695 66.8696C70.0636 65.6458 69.4141 64.8272 68.5282 64.3285C67.6639 63.8421 66.6189 63.6848 65.55 63.6783C64.4774 63.6718 63.3289 63.8178 62.2321 63.9789C61.9946 64.0138 61.76 64.0494 61.529 64.0843C60.6782 64.2131 59.8748 64.3348 59.1451 64.3924L59.1451 64.3922L59.133 64.3935C57.6377 64.5482 56.2067 64.9821 54.8093 65.4796C54.2976 65.6618 53.7959 65.8503 53.2967 66.0378C52.4113 66.3704 51.5338 66.7 50.6226 66.9863C50.5955 66.9948 50.5645 67.0016 50.5301 67.0059L50.5926 67.502L50.53 67.0059C47.0395 67.4462 44.3782 69.3994 42.2555 72.0027C42.2353 72.0275 42.2118 72.0515 42.1874 72.0725C31.1411 81.5519 31.4924 93.7797 33.8934 106.285C36.2868 118.75 41.9349 129.424 48.8574 139.463C49.0654 139.765 49.3777 139.98 49.7357 140.066C55.3609 141.416 61.1754 142.091 67.0845 142.091C70.2789 142.091 73.4678 141.828 76.5654 141.468L76.5077 140.972L76.5654 141.468C76.8083 141.44 77.0691 141.261 77.109 140.955C83.4277 139.558 88.4574 138.418 93.3969 137.278L93.4297 137.27L93.4612 137.259C97.9615 135.558 102.162 133.462 106.259 130.97C106.452 130.853 106.573 130.648 106.584 130.424C106.708 129.163 106.661 128.24 106.432 127.596C106.314 127.264 106.14 126.988 105.9 126.784C105.658 126.578 105.378 126.472 105.089 126.433C104.54 126.359 103.93 126.528 103.371 126.728C103.082 126.831 102.783 126.952 102.49 127.072L102.416 127.102C102.145 127.213 101.877 127.322 101.609 127.423Z" fill="#1D3767" stroke="#1D3767"/>
<path d="M95.1859 2.59082C96.4676 2.59082 96.5943 1.69246 96.6453 0.718185C96.6681 0.284629 96.4143 -0.122382 96.0135 -0.289363C95.5386 -0.487257 95.0636 -0.685151 94.5887 -0.883045C93.948 -1.14998 93.2718 -0.593758 93.3859 0.0908203C93.4859 1.09082 94.4859 2.59082 95.1859 2.59082Z" fill="#076492"/>
<path d="M123.084 68.5913L123.084 68.6017L123.085 68.6121C123.582 80.5448 121.49 91.5673 112.345 100.024L112.326 100.042L112.309 100.061C106.496 106.662 99.2033 110.217 90.6874 111.901L90.6863 111.901C89.1922 112.2 87.6781 112.528 86.1686 112.855C84.9046 113.129 83.6438 113.402 82.4007 113.656C81.7632 113.787 81.2778 114.313 81.2083 114.965C81.1846 115.188 81.1608 115.414 81.1371 115.639C81.1266 115.739 81.1161 115.839 81.1056 115.938C81.0131 116.815 81.6974 117.604 82.6027 117.584C93.0225 117.352 101.975 112.594 110.711 107.891C110.821 107.832 110.924 107.758 111.016 107.674C122.152 97.4011 127.989 84.889 127.184 69.4683C127.18 69.3829 127.177 69.297 127.174 69.2105C127.138 68.2738 127.1 67.2747 126.89 66.348C126.658 65.3184 126.207 64.3366 125.288 63.5676C124.837 63.1897 124.282 63.2003 123.862 63.4509C123.457 63.6921 123.177 64.1494 123.166 64.676C123.157 65.0714 123.146 65.4695 123.135 65.8692C123.11 66.7726 123.084 67.6841 123.084 68.5913Z" fill="#026794" stroke="#026794"/>
<path d="M79.1622 3.40004C79.1776 3.46064 79.1984 3.51973 79.2244 3.5766C79.7163 4.65365 80.143 5.79593 80.6172 6.89077C80.7758 7.257 80.7145 7.68808 80.4322 7.9702C75.485 12.9146 72.162 6.75895 68.0852 5.69122C67.5852 5.59121 67.1852 5.59121 66.6852 5.49121C46.6852 1.19121 30.0851 7.79121 15.6852 21.4912C7.88515 29.8912 1.98515 39.3912 -3.31485 49.4912C-4.50518 52.7646 -5.49873 56.1365 -6.29548 59.4115C-6.3084 59.4646 -6.31687 59.5185 -6.32091 59.5731C-6.51887 62.2478 -6.71485 65.0195 -6.71485 67.7912C-6.71485 84.5812 -1.17048 99.9656 8.26209 112.357C8.94897 113.26 10.2716 112.455 9.87296 111.393C6.73874 103.045 4.61722 94.3828 3.88515 85.1912C3.48515 72.3912 5.08515 59.9912 11.7852 48.6912C13.7852 46.0912 15.5852 43.2912 17.8852 40.8912C20.0003 38.6799 20.9138 39.6114 20.6256 42.086C20.6025 42.2847 20.5115 42.471 20.3771 42.6192C9.38327 54.7404 6.6017 69.5013 6.58523 85.1509C6.58513 85.2438 6.59819 85.3365 6.62332 85.426C6.79788 86.0473 6.97243 86.7351 7.14699 87.3565C7.17212 87.4459 7.185 87.5384 7.18531 87.6313C7.18708 88.1696 7.20953 88.6506 7.49317 89.1225C7.60374 89.3064 7.69146 89.5076 7.70471 89.7218C8.45981 101.927 12.7938 112.777 18.5004 123.138C18.5564 123.239 18.6298 123.33 18.7173 123.407C26.8375 130.479 36.3975 135.767 47.0068 138.803C47.8953 139.057 48.5907 138.058 48.0748 137.291C41.7711 127.92 36.7101 117.872 34.4852 106.191C32.0904 93.7186 31.7865 81.7438 42.6137 72.4524C42.6605 72.4122 42.7047 72.3669 42.7437 72.319C44.8118 69.7805 47.2704 67.9231 50.6864 67.5029C50.7517 67.4949 50.8166 67.4812 50.8792 67.4608C53.6478 66.5578 56.4176 65.089 59.2852 64.8912C63.0852 64.5912 68.8852 62.5912 69.9852 66.9912C71.3852 72.3912 64.7852 71.1912 61.6852 72.2912C46.4852 77.7912 37.1852 99.4912 45.1852 111.391C58.0852 130.591 79.5852 136.891 101.785 127.891C104.185 126.891 106.585 125.291 106.085 130.291C106.085 130.335 106.133 130.361 106.17 130.338C111.92 126.759 117.177 122.392 121.745 117.335C121.761 117.318 121.753 117.291 121.731 117.292C121.699 117.293 121.677 117.255 121.702 117.235C121.893 117.089 122.058 116.944 122.275 116.798C122.282 116.793 122.288 116.788 122.293 116.783C124.269 114.634 126.098 112.337 127.779 109.893C128.175 109.316 127.743 108.583 127.348 108.006C126.633 106.96 127.879 104.979 129.185 102.291C140.471 80.3184 138.989 55.752 125.834 40.3484C125.802 40.3103 125.772 40.27 125.745 40.2276C124.756 38.6462 123.672 36.97 122.685 35.3912C117.385 28.1912 111.985 21.0912 106.785 13.7912C104.072 10.0127 101.735 6.14039 100.319 2.08323C100.232 1.83284 100.052 1.62426 99.814 1.50715C99.2015 1.20574 98.6103 0.925624 98.0126 0.638911C97.3747 0.332973 96.7172 0.768184 96.5922 1.4645C96.4827 2.07389 96.1686 2.53337 95.1852 2.59121C94.5852 2.59121 93.4851 1.09121 93.2852 0.0912127C93.2188 -0.240681 93.1524 -0.572575 93.086 -0.93372C93.0208 -1.2885 92.7757 -1.58536 92.436 -1.70685C89.8864 -2.6187 87.2223 -3.46187 84.4887 -4.10071C83.696 -4.28597 83.0444 -3.473 83.3402 -2.71453C85.0179 1.58813 86.0613 6.21724 89.5124 9.71797C89.5604 9.7666 89.604 9.81997 89.6415 9.87706C91.7227 13.0484 93.8039 16.2198 95.8851 19.3912C98.7529 23.05 101.621 26.7089 104.585 30.3677C104.651 30.4495 104.704 30.5413 104.742 30.6396C107.015 36.5645 109.384 42.4894 111.656 48.4142C111.675 48.4655 111.691 48.5186 111.702 48.5724C113.568 57.7848 112.573 66.1094 104.531 72.2804C104.436 72.3532 104.326 72.4086 104.212 72.4431C99.5939 73.8358 95.0642 75.8658 89.9578 75.398C89.9096 75.3936 89.8609 75.3924 89.8126 75.3948C83.7368 75.6896 77.6614 75.4948 71.6852 76.3912C62.5852 77.6912 56.6852 83.4912 53.1852 91.7912C52.41 93.5999 52.0799 95.7796 49.9587 96.2855C49.3577 96.4289 48.8945 95.8361 49.0326 95.2339C52.5435 79.9173 63.8729 72.4936 83.4852 72.5912C85.5375 72.5912 87.6855 72.6867 89.7422 72.7844C89.837 72.7889 89.932 72.7799 90.0243 72.7577C92.881 72.072 95.8315 71.48 98.6852 70.7912C110.845 67.4024 109.594 57.9535 108.694 48.6828C108.688 48.6218 108.677 48.5616 108.66 48.5027C106.572 41.2582 104.081 34.1177 98.7408 28.4501C98.7039 28.411 98.67 28.3689 98.6398 28.3244C97.0182 25.9381 95.3966 23.4623 93.775 21.0708C93.652 20.8893 93.4725 20.7537 93.2645 20.6843C93.172 20.6535 93.0796 20.6227 92.9871 20.5919C92.7907 20.5264 92.6194 20.4015 92.4968 20.2347C90.3796 17.3548 88.1756 14.4724 86.0616 11.4988C86.0108 11.4274 85.9699 11.3497 85.9389 11.2678C84.022 6.20897 79.6938 1.75212 79.8187 -3.9222C79.8307 -4.4697 79.4483 -4.96703 78.9099 -5.06681C78.8554 -5.07691 78.801 -5.08709 78.7465 -5.09728C78.1076 -5.21698 77.56 -4.68419 77.6449 -4.03968C77.9053 -2.06221 78.2266 -0.0238379 78.6088 2.07547C78.6572 2.34127 78.8316 2.56926 78.9584 2.80777C79.0506 2.98098 79.1086 3.18837 79.1622 3.40004ZM111.062 86.4813C111.433 87.2886 112.568 87.5686 113.088 86.8485C113.857 85.7834 114.627 84.7184 115.396 83.6533C115.519 83.4829 115.583 83.2773 115.614 83.0695C115.628 82.9772 115.645 82.8849 115.659 82.7926C115.688 82.5973 115.745 82.4043 115.84 82.2309C115.952 82.0246 116.044 81.8328 116.185 81.6912C118.485 79.3912 116.785 72.7912 119.285 73.9912C122.485 75.5912 119.385 80.8912 118.485 84.5912C116.52 92.6483 110.403 97.7125 104.879 103.199C104.69 103.386 104.436 103.493 104.171 103.485C103.779 103.474 103.387 103.449 102.995 103.428C102.402 103.396 101.929 102.872 102.086 102.3C102.448 100.989 103.214 100.003 104.485 98.8912C106.708 96.9245 109.882 95.5427 110.505 92.3075C110.654 91.5325 109.763 91.117 109.122 91.5773C101.845 96.8018 93.8403 99.9168 84.6202 99.3005C84.531 99.2945 84.4404 99.3001 84.3527 99.3178C79.6974 100.258 75.6124 101.584 77.1347 107.277C77.2931 107.869 76.9359 108.52 76.3243 108.481C74.2523 108.348 73.8711 106.396 73.7852 104.591C73.4881 100.532 76.2296 98.6293 79.5836 97.3303C79.6509 97.3042 79.7212 97.2858 79.7925 97.2751C83.7283 96.6847 87.665 96.0944 91.6978 95.504C91.7559 95.4955 91.8153 95.4922 91.874 95.4937C98.3298 95.662 103.203 92.4693 107.085 87.6912C108.991 85.2514 110.258 84.7299 111.062 86.4813ZM68.617 105.349C68.5959 105.504 68.6126 105.67 68.6673 105.817C70.8895 111.771 75.9512 113.468 81.6095 114.364C81.7255 114.382 81.8441 114.379 81.9592 114.356C84.9012 113.764 87.8432 113.08 90.7852 112.491C99.3852 110.791 106.885 107.091 112.685 100.491C121.985 91.7912 123.985 80.6912 123.585 68.6912C123.511 67.3605 123.547 66.0297 123.61 64.699C123.644 64.0108 124.365 63.5645 124.899 63.9998C126.56 65.3539 126.518 67.5073 126.685 69.5912C127.583 84.8478 121.719 97.2209 110.679 107.404C110.617 107.462 110.547 107.511 110.473 107.551C101.311 112.431 92.2411 117.291 81.4852 117.291C74.9323 116.596 68.8724 115.014 66.6329 107.749C66.6012 107.646 66.587 107.536 66.5906 107.429C66.6844 104.611 66.7782 101.708 66.872 98.8858C66.8804 98.6322 66.985 98.3914 67.1643 98.212C69.0085 96.3681 70.8526 94.5281 72.6968 92.7704C72.8202 92.6528 72.9718 92.569 73.1369 92.5265C76.9086 91.5564 80.7696 90.497 84.5395 89.5286C84.6361 89.5038 84.7358 89.4937 84.8354 89.4982C86.8853 89.5914 88.9352 89.6007 90.9852 89.9912C91.5597 90.1061 92.0683 90.5842 92.5677 91.1219C93.0736 91.6666 92.881 92.6353 92.2092 92.9535C91.7996 93.1475 91.3897 93.3411 90.9635 93.5184C90.846 93.5673 90.7203 93.5913 90.5931 93.5909C81.0967 93.5628 70.4961 91.5097 68.617 105.349ZM70.7852 85.8912C72.5669 85.5672 74.2831 85.3089 75.6681 86.3911C76.2001 86.8068 75.9278 87.5905 75.282 87.7875C72.5133 88.6324 69.797 89.4773 67.0127 90.3222C66.8631 90.3676 66.7262 90.4474 66.613 90.5552C64.6138 92.4589 62.7007 94.2766 60.6999 96.182C60.6239 96.2543 60.5591 96.339 60.51 96.4317C55.333 106.207 60.3372 118.309 71.1852 121.991C87.7852 127.591 112.385 117.891 120.785 102.591C127.485 93.2912 129.685 82.4912 129.485 71.3912C129.396 61.4737 127.87 51.7956 121.126 44.1402C120.449 43.372 119.34 44.0703 119.664 45.0417C120.366 47.1534 121.082 49.2766 121.838 51.3611C121.869 51.4475 121.913 51.5293 121.965 51.6048C123.374 53.6355 123.487 55.8598 123.099 58.1185C122.979 58.8234 122.176 59.086 121.614 58.6438C120.477 57.749 119.535 57.3841 119.385 60.6912C119.187 65.6441 117.125 70.1065 114.753 74.3698C114.708 74.4504 114.651 74.5255 114.585 74.5905C103.7 85.3809 89.744 83.6906 76.2852 83.4912C76.0294 83.4912 75.7603 83.3577 75.4876 83.1639C74.8432 82.7058 75.003 81.5087 75.7016 81.1385C76.1214 80.916 76.5435 80.7354 76.9852 80.6912C84.3852 80.1912 91.8852 80.0912 99.2852 79.4912C102.785 79.1912 105.985 77.7912 108.785 75.4912C118.594 68.2585 116.328 57.6882 116.772 47.8652C116.78 47.6856 116.741 47.5074 116.657 47.3484C114.795 43.825 112.842 40.2103 110.985 36.6912C110.285 35.1912 107.585 33.3912 109.485 32.0912C111.785 30.4912 112.285 33.8912 113.585 35.1912C114.385 35.9912 114.985 36.9912 115.685 37.9912C115.874 38.3148 116.063 38.6383 116.251 38.9618C116.738 39.7957 117.929 39.5027 118.222 38.5828C118.634 37.29 119.53 36.9498 121.885 39.4912C122.858 40.5614 123.736 41.6316 124.704 42.7018C124.758 42.7612 124.805 42.8275 124.843 42.898C135.484 62.5631 135.067 82.4268 125.085 102.091C113.919 124.223 83.4721 133.037 62.0817 120.804C61.9525 120.73 61.8398 120.625 61.7562 120.502C51.0178 104.666 55.1474 88.9789 70.7852 85.8912ZM13.5852 71.5912C10.8852 70.1912 14.2852 65.0912 15.5852 61.7912C17.8852 55.9912 20.4852 50.2912 24.6852 45.4912C28.0522 42.5203 31.3212 39.5493 34.6864 36.5783C34.7519 36.5205 34.8253 36.4712 34.9036 36.4325C51.3646 28.2812 67.9246 26.2161 84.3852 36.5912C85.9606 37.5759 87.1483 39.2393 88.521 40.6267C88.5636 40.6697 88.6106 40.7086 88.6602 40.7434C91.5094 42.7432 92.8912 45.7198 93.5852 48.9912C94.3852 52.3912 94.2852 55.9912 90.9851 57.8912C87.9851 59.5912 85.4851 56.9912 83.7852 54.8912C81.8852 52.3912 75.6851 51.3912 77.9851 48.3912C80.0851 45.6912 83.5852 50.6912 86.2852 52.4912C86.977 52.9755 87.8125 53.2684 88.6591 53.5684C89.2487 53.7774 89.9204 53.4296 90.1073 52.8327C90.432 51.7961 90.7762 50.7643 90.4851 49.8912C89.5166 47.0823 88.0789 44.461 86.8082 41.7548C86.7275 41.5828 86.5984 41.4354 86.438 41.3335C68.4222 29.8887 50.6123 29.6413 34.6852 40.5912C27.1269 46.5583 21.25 53.8111 18.6283 63.3333C18.5996 63.4374 18.5554 63.5377 18.4916 63.6249C18.3415 63.8304 18.1914 63.9971 18.0412 64.2096C18.0032 64.2634 17.9619 64.3138 17.9168 64.3618C15.7932 66.6245 16.1579 72.8776 13.5852 71.5912ZM26.5852 65.2912C26.2948 65.9687 26.0045 66.6462 25.7141 67.3236C25.6948 67.3686 25.6722 67.4122 25.6466 67.454C22.4731 72.6379 20.9839 78.4153 20.6852 84.3912C19.2852 99.9912 23.3852 113.991 32.1852 126.891C33.2852 128.591 36.4852 131.091 34.0852 132.591C32.0852 133.891 30.5852 130.091 29.4852 128.391C17.5008 109.316 13.4956 89.2435 21.6532 67.5759C21.6743 67.5199 21.7006 67.4654 21.7315 67.4143C22.321 66.4399 23.0005 65.4656 23.5852 64.4912C26.4852 58.5912 30.5852 53.6912 35.6852 49.4912C37.3398 48.2259 38.9944 46.9606 40.649 45.6031C40.7391 45.5292 40.8414 45.4713 40.9513 45.4324C47.3959 43.152 53.8414 40.8725 60.3852 38.6912C61.4851 38.2912 63.2852 37.9912 63.5852 39.7912C63.6852 40.1912 61.9851 41.1912 60.9851 41.3912C52.7851 43.0912 45.1852 46.2912 38.4852 51.2912C33.4852 54.9912 29.4852 59.6912 26.5852 65.2912ZM85.0852 25.1912C84.8204 25.0588 84.8921 24.9693 85.1517 25.1115C85.3219 25.2047 85.4987 25.298 85.6852 25.3912C86.352 25.677 87.0188 26.0535 87.5992 26.3479C87.6564 26.3769 87.7107 26.4108 87.7615 26.4499C90.2908 28.3941 92.9128 30.3383 95.4437 32.2825C95.5373 32.3544 95.6172 32.4424 95.6807 32.5419C97.3667 35.1845 99.5038 37.6452 100.485 40.4912C103.285 48.3912 105.085 56.5912 98.6852 63.5912C93.9852 68.7912 88.0852 67.2912 82.5852 64.4912C77.3852 61.6912 73.0851 56.8912 66.4851 57.1912C66.2443 57.1912 65.9873 57.0623 65.7271 56.8821C65.1519 56.4836 65.1481 55.4974 65.6909 55.0557C66.04 54.7717 66.401 54.5392 66.7852 54.4912C71.5852 53.8912 75.3852 56.6912 79.2852 58.8912C84.6852 61.9912 90.1852 67.4912 96.2852 61.6912C102.185 56.1912 99.9851 48.7912 97.7852 41.9912C96.8023 39.0428 95.4332 36.191 92.7284 34.3851C92.6344 34.3223 92.5497 34.2452 92.4794 34.1566C89.6874 30.6387 85.8313 28.5749 81.5852 27.2912C64.3852 20.8912 47.7852 20.2912 32.3852 32.1912C31.8063 32.5771 31.2274 32.963 30.6486 33.2591C30.6064 33.2807 30.5627 33.2992 30.5172 33.3122C30.2393 33.3918 29.955 33.3987 29.5852 33.4912C27.2852 33.8912 25.5852 38.5912 23.7852 36.1912C22.0649 33.8975 26.2817 32.6998 27.706 30.6778C27.8326 30.4981 27.9943 30.3436 28.1933 30.2506C28.9663 29.8897 29.7394 29.4718 30.5124 29.1238C30.5608 29.102 30.608 29.0763 30.6525 29.0474C48.1321 17.692 66.4092 18.0004 85.0852 25.1912ZM78.2852 15.8912C79.5852 16.3912 81.6852 17.8912 81.5852 18.1912C80.5852 20.4912 78.7852 18.8912 77.3851 18.5912C48.6851 10.5912 25.8851 19.6912 9.78515 45.5912C5.68515 52.7912 1.68515 60.0912 -0.014847 68.3912C-0.314847 69.8912 -0.114846 72.6912 -1.91485 72.3912C-4.41485 71.9912 -3.11485 69.3912 -2.71485 67.7912C2.08515 45.9912 13.8852 29.2912 33.7852 18.5912C48.2852 12.1912 63.0852 9.99121 78.2852 15.8912Z" fill="#024F7F"/>
<path d="M122.155 38.8552L122.155 38.8551L122.147 38.8469C121.224 37.8761 120.47 37.2685 119.84 36.9855C119.52 36.8414 119.201 36.7675 118.893 36.7985C118.573 36.8305 118.307 36.9709 118.098 37.1792C117.712 37.5646 117.533 38.1736 117.427 38.7533C117.317 39.3567 117.268 40.0554 117.223 40.7155C117.186 41.2729 117.597 41.8604 118.238 41.8875C118.268 41.8888 118.281 41.8936 118.287 41.8966C118.296 41.9004 118.315 41.9105 118.349 41.9413C127.019 49.7805 128.886 60.4191 128.985 71.2961C129.084 82.2275 126.898 92.9149 120.376 102.204L120.36 102.227L120.346 102.252C116.218 109.82 108.078 116.03 98.877 119.651C89.6757 123.272 79.5013 124.269 71.3449 121.518L71.3432 121.517C60.8716 118.027 55.928 106.155 61.0507 96.6654L60.6107 96.4279L61.0507 96.6654C61.0735 96.6232 61.1045 96.5826 61.1417 96.5471C62.1555 95.5817 63.1416 94.6436 64.1279 93.7055C65.0956 92.785 66.0635 91.8644 67.0577 90.9176C67.1143 90.8637 67.1829 90.8237 67.2578 90.801C68.8295 90.3241 70.3824 89.8463 71.9343 89.3688C73.1301 89.0008 74.3253 88.6331 75.5279 88.2661C76.0082 88.1195 76.3641 87.7507 76.4953 87.3162C76.6314 86.8654 76.5198 86.3443 76.0759 85.9974C74.4881 84.7568 72.5377 85.0829 70.7956 85.3996L70.7956 85.3996L70.7888 85.4009C62.7556 86.977 57.6217 91.794 55.8969 98.2499C54.179 104.68 55.8685 112.636 61.2441 120.488C61.3693 120.67 61.5369 120.826 61.7312 120.937C83.3656 133.312 114.134 124.41 125.431 102.017C135.482 82.1177 135.907 62.1799 125.183 42.3604C125.125 42.2542 125.055 42.1553 124.975 42.0667C124.508 41.551 124.063 41.0348 123.613 40.5137L123.575 40.47C123.113 39.9354 122.646 39.3957 122.155 38.8552Z" fill="#026794" stroke="#026794"/>
<path d="M81.6201 27.8632L81.6104 27.8596C65.0158 21.6849 49.0872 20.97 34.2623 31.6622C33.7899 32.0028 33.2433 31.9251 32.841 31.7169C32.4421 31.5104 32.0978 31.1402 31.9296 30.7127C31.7765 30.3236 31.6652 29.7887 31.6782 29.2841C31.6904 28.8098 31.8204 28.1826 32.3486 27.8553C49.2813 17.3621 67.033 17.8157 85.0891 24.6808C85.1592 24.6609 85.2237 24.6566 85.2694 24.6578C85.3967 24.6612 85.5089 24.7028 85.5967 24.7512C85.7755 24.8497 85.9549 24.9504 86.1255 25.0524C86.3314 25.1556 86.5381 25.2643 86.747 25.3741C87.1444 25.5831 87.5495 25.7962 87.972 25.9836L87.7692 26.4406L87.972 25.9836C88.0819 26.0324 88.1891 26.0944 88.2893 26.1714C89.5483 27.1389 90.8305 28.1067 92.1148 29.076L92.1382 29.0936C93.4142 30.0566 94.6921 31.0211 95.9479 31.9858C96.0889 32.0941 96.2079 32.2257 96.3018 32.3727L95.8803 32.6417L96.3018 32.3728C96.7881 33.1351 97.2963 33.8592 97.8105 34.5921C98.1934 35.1377 98.5797 35.6882 98.9628 36.2627C99.8384 37.5758 100.646 38.9445 101.157 40.428L101.158 40.4293C103.858 48.329 105.763 56.7954 99.2564 64.0255L99.2525 64.0299C96.801 66.69 94.0351 67.6446 91.1586 67.5658C88.3127 67.4879 85.3847 66.3997 82.5676 65.0414L82.5576 65.0366L82.5477 65.0313C81.2231 64.318 79.9608 63.4801 78.7229 62.6408C78.5657 62.5342 78.409 62.4277 78.2526 62.3214C77.171 61.586 76.1043 60.8608 75.0047 60.2086C72.4958 58.7205 69.8701 57.6467 66.7075 57.7905L66.6961 57.791L66.6848 57.791C66.2815 57.791 65.9159 57.5826 65.642 57.3929C65.1914 57.0807 64.9961 56.5644 64.9894 56.092C64.9827 55.62 65.1618 55.1039 65.5749 54.7677C65.9356 54.4743 66.3901 54.1615 66.9227 54.0949L66.924 54.0947C71.3767 53.5495 74.9717 55.7082 78.2866 57.6987C78.7749 57.9919 79.257 58.2814 79.735 58.5581L81.6201 27.8632ZM81.6201 27.8632L81.63 27.8665M81.6201 27.8632L81.63 27.8665M81.63 27.8665C85.8271 29.233 89.4875 31.1602 92.2906 34.5758L92.6771 34.2586M81.63 27.8665L92.6771 34.2586M92.6771 34.2586L92.2906 34.5758C92.3963 34.7046 92.5214 34.8144 92.6578 34.9024C95.3093 36.6139 96.6325 39.4206 97.5072 42.2392L97.5072 42.2392M92.6771 34.2586L97.5072 42.2392M97.5072 42.2392L97.5097 42.247M97.5072 42.2392L97.5097 42.247M97.5097 42.247C98.6126 45.6056 99.6871 49.0632 99.7724 52.3664M97.5097 42.247L99.7724 52.3664M99.7724 52.3664C99.857 55.6402 98.9692 58.743 96.1416 61.4273L99.7724 52.3664ZM85.6257 24.9565C85.6713 25.0265 85.7348 25.1878 85.6663 25.3632C85.565 25.3053 85.4611 25.2473 85.3559 25.1894L85.3582 25.1842L85.5084 24.8438C85.5107 24.8449 85.5212 24.8501 85.5362 24.8609C85.5595 24.8776 85.5937 24.9075 85.6257 24.9565Z" fill="#026794" stroke="#026794"/>
<path d="M11.9268 117.65L12.2959 117.313L11.9268 117.65C12.5543 118.337 13.2003 119.013 13.8586 119.679C14.4598 120.287 15.2643 120.212 15.7876 119.816C16.3062 119.422 16.605 118.674 16.2347 117.922C11.9173 109.15 8.81978 99.9632 8.20088 89.8504C8.18323 89.5621 8.08087 89.3068 7.96187 89.0991L7.52802 89.3476L7.96187 89.099C7.71347 88.6655 7.68671 88.2758 7.68491 87.7296C7.68446 87.5916 7.66532 87.4542 7.62796 87.3212C7.54165 87.014 7.45569 86.6916 7.36873 86.3655C7.33532 86.2403 7.30176 86.1144 7.26798 85.9887C7.09172 85.3326 6.50149 84.9017 5.85311 84.8727C5.65727 84.8639 5.46317 84.8531 5.26597 84.8422C5.17595 84.8372 5.08529 84.8321 4.99351 84.8272C4.0961 84.7793 3.39905 85.5414 3.47937 86.4158C4.48022 97.3123 7.419 107.468 11.6603 117.239L12.1026 117.047L11.6603 117.239C11.7257 117.39 11.8155 117.529 11.9268 117.65Z" fill="#026794" stroke="#026794"/>
<path d="M11.389 48.3862L11.3706 48.4101L11.3553 48.436C4.73969 59.5936 3.05865 71.7009 3.36161 84.3354C3.37943 85.0786 3.95047 85.7192 4.72437 85.7589C5.01045 85.7736 5.29517 85.7816 5.57774 85.7859C6.41705 85.7987 7.08284 85.1146 7.08913 84.2943C7.20619 69.0282 10.071 54.7368 20.7328 42.9713C20.944 42.7383 21.0887 42.434 21.1142 42.1003C21.165 41.4365 21.1472 40.8465 21.0435 40.3713C20.9435 39.9131 20.7402 39.4579 20.3288 39.2215C19.8884 38.9684 19.3935 39.0645 18.952 39.3032C18.5115 39.5414 18.0319 39.9649 17.5129 40.5574C15.9424 42.2713 14.5145 44.1977 13.1139 46.0873C12.537 46.8656 11.9647 47.6377 11.389 48.3862Z" fill="#1299C7" stroke="#1299C7"/>
<path d="M109.878 47.9848C109.003 47.9989 108.308 48.7504 108.394 49.6358C108.834 54.1307 109.219 58.4825 108.084 62.1177C107.522 63.9194 106.586 65.5377 105.094 66.9038C103.601 68.2711 101.527 69.4064 98.6589 70.2069C97.2063 70.5574 95.7505 70.878 94.289 71.1999C93.0758 71.4671 91.8588 71.7352 90.6365 72.0219C89.9559 72.1815 89.4958 72.7839 89.4647 73.4547C89.4556 73.6505 89.4446 73.8421 89.4336 74.0342C89.4275 74.1416 89.4213 74.2492 89.4155 74.3579C89.3731 75.1452 89.9717 75.82 90.7682 75.8537C94.7284 76.0212 98.4242 74.7885 102.063 73.5748C102.834 73.3178 103.602 73.0617 104.369 72.8198C104.533 72.7681 104.69 72.6874 104.829 72.5811C108.818 69.5218 111.128 65.9272 112.22 61.9518C113.31 57.9874 113.18 53.6762 112.349 49.1862C112.206 48.4159 111.501 47.9207 110.76 47.9573C110.463 47.9719 110.169 47.9802 109.878 47.9848Z" fill="#1299C7" stroke="#1299C7"/>
<path d="M77.6957 48.0771L77.6957 48.0771L77.6929 48.0806C77.3681 48.4902 77.1645 48.904 77.1012 49.3265C77.0367 49.7564 77.1237 50.1534 77.3103 50.5104C77.6657 51.1902 78.3915 51.7383 79.1422 52.2137C79.5282 52.4582 79.9455 52.6979 80.3601 52.9348C80.3866 52.95 80.4132 52.9652 80.4398 52.9803C80.8308 53.2037 81.2189 53.4254 81.5914 53.6546C82.3961 54.1498 83.0712 54.6473 83.4866 55.1938L83.487 55.1943C84.2976 56.2583 85.3971 57.4993 86.7116 58.2504C88.0533 59.0171 89.6444 59.2822 91.3312 58.3263L91.3312 58.3263L91.3342 58.3246C93.1186 57.2972 94.0466 55.7959 94.4109 54.1094C94.7707 52.4437 94.5794 50.6107 94.1714 48.8768L94.1706 48.8735C93.4055 45.7173 92.1687 42.7391 89.4682 40.6451C89.0138 40.2928 88.4244 40.275 87.9504 40.479C87.8319 40.53 87.7133 40.5794 87.5917 40.6301L87.5534 40.646C86.795 40.9621 86.4798 41.8297 86.8086 42.5597C87.1504 43.3185 87.5039 44.0638 87.8553 44.8046C88.6782 46.5393 89.4894 48.2493 90.1111 50.0517C90.2185 50.3756 90.2174 50.7565 90.1347 51.2113C90.0565 51.6416 89.9149 52.093 89.7609 52.5838C89.7506 52.6168 89.7402 52.65 89.7297 52.6834C89.6244 53.0197 89.2472 53.1956 88.9503 53.0792C88.1325 52.7585 87.3614 52.4528 86.64 52.061C85.9833 51.6364 85.279 51.0235 84.5367 50.3543C84.4256 50.2542 84.3137 50.1528 84.2011 50.0508C83.5683 49.4775 82.9148 48.8855 82.277 48.395C81.5342 47.8236 80.7457 47.335 79.9648 47.1903C79.5633 47.1159 79.1536 47.1304 78.7552 47.2785C78.3571 47.4265 78.004 47.6954 77.6957 48.0771Z" fill="#1299C7" stroke="#1299C7"/>
<path d="M31.1148 28.8754C30.7892 28.7861 30.4637 28.8395 30.1956 28.9642C29.8358 29.1315 29.4772 29.3106 29.1258 29.4863L29.1136 29.4924C28.7643 29.6671 28.4222 29.8382 28.081 29.9974C27.7831 30.1365 27.5589 30.359 27.3965 30.5897C27.0874 31.0284 26.6097 31.4438 26.0472 31.8716C25.8496 32.0218 25.6355 32.1777 25.4182 32.3359C25.0493 32.6045 24.6709 32.88 24.3474 33.1467C23.8287 33.5745 23.3279 34.0729 23.103 34.6701C22.8573 35.3226 22.9697 36.0049 23.4844 36.6911C23.7387 37.0302 24.02 37.2845 24.3391 37.4311C24.6678 37.5822 25.0017 37.6026 25.3218 37.5292C25.9173 37.3926 26.4546 36.9302 26.9121 36.4823C27.1057 36.2928 27.3024 36.0875 27.4956 35.8858C27.5402 35.8393 27.5846 35.7929 27.6287 35.747C27.8678 35.4983 28.1034 35.2576 28.3421 35.0392C28.8295 34.5931 29.2767 34.291 29.7075 34.196C29.719 34.1935 29.737 34.1914 29.8009 34.1875C30.0627 34.1716 30.3259 34.1019 30.5674 34.0379C30.593 34.0311 30.6184 34.0244 30.6434 34.0178C30.8055 33.9753 30.9623 33.9066 31.1056 33.8113C31.5022 33.5472 31.8865 33.2951 32.2673 33.076C32.6663 32.8466 33.0072 32.4263 33.0325 31.8869C33.0625 31.2493 32.9866 30.6054 32.6878 30.0575C32.3786 29.4909 31.8595 29.0797 31.1148 28.8754Z" fill="#1299C7" stroke="#1299C7"/>
<path d="M94.2258 20.9973L93.9721 20.5665L94.2258 20.9973C94.4612 20.8587 94.7035 20.7133 94.9437 20.5692C95.0047 20.5326 95.0656 20.4961 95.1262 20.4598C95.8602 20.0199 96.0949 19.0511 95.62 18.3275L89.9634 9.70789C89.9032 9.61622 89.8339 9.53296 89.7592 9.45896C87.9248 7.64186 86.7852 5.46048 85.8472 3.11287C85.4323 2.07445 85.06 1.01229 84.6826 -0.0644781C84.6328 -0.206623 84.5829 -0.349022 84.5328 -0.491654C84.1048 -1.71009 83.6633 -2.9423 83.1466 -4.14663C82.9579 -4.58655 82.5641 -4.91031 82.0872 -5.00083C81.8328 -5.04911 81.5783 -5.09265 81.3326 -5.13466C81.2507 -5.14866 81.1699 -5.1625 81.0903 -5.17628C80.2461 -5.32254 79.3244 -4.74076 79.3168 -3.77317C79.2937 -0.849791 80.3986 1.72384 81.7063 4.16312C82.0891 4.87702 82.4863 5.57536 82.8802 6.26795C83.8513 7.97518 84.8025 9.64746 85.4677 11.4316C85.5161 11.5617 85.5824 11.6868 85.667 11.8021C86.4458 12.8629 87.2339 13.92 88.0241 14.98C89.3851 16.8057 90.7524 18.6397 92.0889 20.5149C92.2733 20.7736 92.5351 20.9679 92.8375 21.0687L93.0033 21.124C93.4072 21.2586 93.8534 21.2166 94.2258 20.9973Z" fill="#1299C7" stroke="#1299C7"/>
<path d="M116.017 37.5386L116 37.5098L115.98 37.4835C115.717 37.1458 115.471 36.796 115.214 36.4316C115.137 36.3227 115.06 36.2125 114.98 36.1009C114.641 35.6226 114.278 35.1294 113.859 34.6583L113.859 34.6583L113.853 34.6514C113.601 34.3793 113.372 33.984 113.116 33.5092C113.083 33.4485 113.05 33.3865 113.016 33.3235C112.799 32.918 112.561 32.4737 112.291 32.0987C111.98 31.6661 111.573 31.2453 111.011 31.0796C110.427 30.9076 109.796 31.0439 109.12 31.4665L109.111 31.472L109.103 31.4779C108.531 31.8692 108.222 32.3592 108.206 32.9322C108.19 33.4614 108.43 33.9612 108.702 34.3852C108.949 34.7709 109.267 35.1591 109.559 35.5155C109.592 35.5568 109.626 35.5976 109.659 35.638C109.987 36.0404 110.266 36.3951 110.44 36.718C112.196 40.3266 114.14 43.8382 116.082 47.3345C116.247 47.6318 116.504 47.8301 116.687 47.9634C116.956 48.1609 117.162 48.5068 117.356 49.0021C117.448 49.2366 117.53 49.4852 117.617 49.7486L117.626 49.7754C117.715 50.0435 117.81 50.3269 117.918 50.5965C118.131 51.1243 118.432 51.688 118.963 52.0324C119.52 52.3939 120.223 52.4492 121.092 52.193C121.899 51.9546 122.211 51.0863 121.978 50.3862C121.853 50.0089 121.727 49.6303 121.602 49.2507C120.778 46.7635 119.94 44.2358 119.05 41.758C118.941 41.4559 118.71 41.2737 118.514 41.1659C118.348 41.0745 118.17 41.0157 118.022 40.9755L117.029 39.2731L116.017 37.5386Z" fill="#1299C7" stroke="#1299C7"/>
<path d="M111.279 88.4985L111.274 88.5061L111.269 88.5139C111.067 88.8161 110.886 89.1014 110.707 89.3813C110.593 89.5606 110.481 89.7377 110.365 89.9155C110.173 90.2103 110.097 90.5538 110.116 90.8837C110.233 92.8533 109.427 94.1687 108.25 95.2905C107.652 95.8601 106.966 96.3726 106.251 96.8945C106.188 96.9405 106.125 96.9866 106.062 97.0327C105.415 97.504 104.751 97.9886 104.155 98.515C102.921 99.5851 102.031 100.698 101.612 102.164C101.339 103.118 102.137 103.883 102.968 103.927C103.046 103.931 103.125 103.936 103.204 103.94C103.52 103.958 103.844 103.976 104.167 103.985C104.567 103.996 104.944 103.839 105.222 103.572C105.745 103.07 106.272 102.57 106.802 102.068C111.722 97.4048 116.752 92.638 118.747 85.5646C118.955 84.828 118.554 84.0842 117.876 83.8019C117.666 83.7144 117.449 83.6233 117.232 83.5318C116.987 83.4285 116.74 83.3247 116.499 83.2247C115.858 82.9583 115.125 83.1744 114.722 83.7314L113.001 86.1149L111.279 88.4985Z" fill="#1299C7" stroke="#1299C7"/>
<path d="M80.4558 117.591C81.2762 117.68 82.0008 117.081 82.0866 116.27C82.1018 116.126 82.1167 115.985 82.1316 115.843C82.1474 115.693 82.1631 115.544 82.1791 115.393C82.2635 114.595 81.7093 113.879 80.9293 113.741C76.0633 112.879 71.7919 111.294 69.5937 106.721C69.1663 105.831 67.9625 105.461 67.1643 106.202C66.9883 106.365 66.8142 106.527 66.6405 106.684C66.2097 107.076 66.014 107.7 66.2209 108.283C67.4197 111.661 69.4274 113.835 71.9333 115.24C74.4218 116.635 77.3764 117.258 80.4558 117.591Z" fill="#1299C7" stroke="#1299C7"/>
<path d="M73.287 104.626L73.2875 104.633L73.2882 104.64C73.3734 105.492 73.5006 106.509 73.9016 107.336C74.1063 107.759 74.3901 108.149 74.7906 108.446C75.1943 108.744 75.6904 108.928 76.2869 108.973C76.8026 109.012 77.211 108.747 77.4414 108.382C77.6645 108.029 77.7322 107.573 77.6184 107.147C77.2776 105.873 77.2402 104.866 77.41 104.061C77.5783 103.263 77.9557 102.636 78.4955 102.122C79.6013 101.068 81.3981 100.475 83.5218 100.004C83.9451 99.9097 84.3067 99.6383 84.5022 99.2794C84.7049 98.9072 84.7299 98.4271 84.4336 98.0111C83.8331 97.1677 82.9934 96.9265 82.197 96.8634C81.8251 96.8339 81.4435 96.8417 81.0929 96.8489C81.0752 96.8492 81.0576 96.8496 81.04 96.8499C80.6641 96.8575 80.3246 96.8622 80.0096 96.8305C79.7719 96.8066 79.5048 96.823 79.2444 96.9256C77.583 97.58 76.0132 98.3904 74.8983 99.6021C73.7632 100.836 73.1316 102.45 73.287 104.626Z" fill="#1299C7" stroke="#1299C7"/>
<path d="M117.328 84.6244C118.182 84.9706 119.112 84.4702 119.378 83.6343C119.569 83.0339 119.792 82.4137 120.021 81.7772C120.13 81.4747 120.24 81.1686 120.349 80.8591C120.682 79.9113 120.997 78.9446 121.18 78.0359C121.361 77.1328 121.424 76.2377 121.211 75.4502C120.991 74.6375 120.485 73.9701 119.61 73.5439C119.243 73.3542 118.852 73.2574 118.476 73.378C118.093 73.5008 117.862 73.8049 117.718 74.1079C117.574 74.4109 117.485 74.7817 117.42 75.1655C117.353 75.5545 117.307 75.9923 117.263 76.4424C117.253 76.5477 117.243 76.6538 117.232 76.7605C117.154 77.5807 117.073 78.436 116.9 79.228C116.704 80.1283 116.405 80.8642 115.932 81.3373C115.723 81.5464 115.521 81.8331 115.387 82.138C115.308 82.3174 115.29 82.4986 115.279 82.6033L115.279 82.6038C115.277 82.6279 115.274 82.653 115.27 82.6794C115.187 83.2966 115.517 83.8677 116.085 84.1099C116.489 84.2819 116.906 84.4534 117.328 84.6244Z" fill="#026794" stroke="#026794"/>
<path d="M106.596 87.4785C102.777 92.1772 98.0401 95.256 91.7896 95.0937C91.702 95.0915 91.6123 95.0964 91.5227 95.1099C89.2358 95.4529 86.949 95.7959 84.6433 96.1389C84.3148 96.1877 84.0352 96.3272 83.8225 96.5447C83.6135 96.7584 83.4925 97.0233 83.4343 97.2914C83.3202 97.8172 83.4331 98.4115 83.6795 98.904C83.7788 99.1024 83.9334 99.331 84.1251 99.5199C84.3056 99.6977 84.5876 99.9075 84.9422 99.9267C94.6886 100.457 103.081 96.9603 110.664 91.0858C110.792 90.987 110.903 90.8672 110.993 90.7311C111.156 90.4832 111.311 90.2405 111.463 90.0018C111.574 89.8262 111.685 89.6527 111.796 89.481C111.993 89.1788 112.083 88.8077 112.023 88.4355C111.863 87.4356 111.648 86.6381 111.354 86.066C111.059 85.4935 110.634 85.0573 110.028 84.9837C109.456 84.9141 108.89 85.194 108.362 85.6084C107.822 86.0327 107.235 86.6677 106.596 87.4785Z" fill="#026794" stroke="#026794"/>
<path d="M91.028 89.4123L91.0169 89.409L91.0056 89.4061C89.4476 89.0166 87.759 88.9774 86.1518 88.94C85.6777 88.929 85.2107 88.9181 84.7562 88.8985C84.6086 88.8921 84.4598 88.907 84.3144 88.9443C82.4292 89.4286 80.5218 89.9354 78.6164 90.4419L78.5559 90.458C76.67 90.9593 74.7864 91.46 72.9249 91.9389L73.0494 92.4231L72.9249 91.9389C72.6648 92.0058 72.4274 92.1411 72.2373 92.3312C70.4002 94.1682 68.5675 95.998 66.7357 97.747C66.4517 98.0182 66.2841 98.3901 66.271 98.784C66.2256 100.152 66.1801 101.538 66.1346 102.925C66.1097 103.685 66.0848 104.446 66.0599 105.203C66.0166 106.517 67.5301 107.208 68.5003 106.332C68.5425 106.294 68.5847 106.256 68.6269 106.218C68.9031 105.972 69.0811 105.629 69.1319 105.27C69.6068 101.914 70.6039 99.5699 71.9399 97.9258C73.2725 96.2859 74.9727 95.3044 76.9236 94.7227C78.8835 94.1383 81.0875 93.9601 83.4098 93.9281C84.5691 93.9121 85.7498 93.9324 86.9394 93.9548C87.0037 93.956 87.0681 93.9573 87.1325 93.9585C88.256 93.9797 89.3868 94.0012 90.5015 93.9929C90.6876 93.9915 90.8736 93.9554 91.0495 93.8823C91.4904 93.6991 91.9125 93.4996 92.3224 93.3054C93.2957 92.8444 93.5698 91.4777 92.8115 90.69C92.3224 90.182 91.737 89.625 91.028 89.4123Z" fill="#026794" stroke="#026794"/>
<path d="M24.2542 45.0155L24.23 45.0368L24.2087 45.0611C19.9498 49.9285 17.3245 55.6955 15.021 61.5041C14.7541 62.1609 14.3963 62.9047 14.0135 63.7005C13.9409 63.8515 13.8674 64.0044 13.7934 64.1588C13.3342 65.118 12.8616 66.1322 12.5146 67.096C12.1709 68.0509 11.9301 69.0092 11.9764 69.8461C12.0246 70.7165 12.3899 71.4857 13.2549 71.9343C13.6573 72.1429 14.06 72.2359 14.4523 72.165C14.8475 72.0936 15.1572 71.8694 15.3974 71.5893C15.8531 71.058 16.1491 70.2149 16.4015 69.3712C16.4941 69.0621 16.5818 68.7486 16.67 68.4339C16.8359 67.8413 17.0031 67.2442 17.2056 66.6627C17.513 65.7802 17.8711 65.0346 18.3429 64.5396C18.5504 64.3309 18.7436 64.0516 18.9094 63.8049C19.0011 63.6683 19.0679 63.5188 19.1102 63.3651C21.6936 53.9834 27.484 46.9144 34.9835 40.8919C42.8318 35.5003 51.1225 32.8645 59.6588 32.962C68.2039 33.0596 77.0298 35.8967 85.9357 41.5067C86.3845 41.7894 86.9437 41.8078 87.4061 41.6084C88.3605 41.1968 88.5828 39.9948 87.9063 39.2447C87.7983 39.1249 87.6898 39.0036 87.5806 38.8815C86.673 37.8666 85.7135 36.7938 84.5507 36.0668C67.895 25.5691 51.2393 27.6846 34.5839 35.8828C34.465 35.9413 34.3538 36.0158 34.2545 36.1035C32.5874 37.5753 30.9441 39.0469 29.3023 40.5171L29.2524 40.5619C27.5935 42.0474 25.936 43.5315 24.2542 45.0155Z" fill="#026794" stroke="#026794"/>
<path d="M-2.09773 72.6838L-2.09773 72.6838C-2.79472 72.5676 -3.30918 72.2751 -3.62408 71.8073C-3.92882 71.3545 -3.99271 70.8159 -3.96476 70.3129C-3.93668 69.8074 -3.8121 69.2776 -3.67872 68.7949C-3.61804 68.5753 -3.55836 68.3742 -3.50211 68.1845C-3.42764 67.9335 -3.35917 67.7027 -3.30229 67.4761C1.52773 45.5476 13.4117 28.7251 33.3433 17.7526L33.3656 17.7403L33.389 17.7304C48.0633 11.4988 63.0039 9.26228 78.364 15.2239L-2.09773 72.6838ZM-2.09773 72.6838L-2.09351 72.6845M-2.09773 72.6838L-2.09351 72.6845M-2.09351 72.6845C-1.48393 72.7807 -0.978379 72.6293 -0.605728 72.2566M-2.09351 72.6845L-0.605728 72.2566M-0.605728 72.2566C-0.262947 71.9139 -0.085862 71.435 0.0211772 70.9801M-0.605728 72.2566L0.0211772 70.9801M0.0211772 70.9801C0.130171 70.5169 0.182569 70.003 0.226055 69.5371M0.0211772 70.9801L0.226055 69.5371M0.226055 69.5371C0.230453 69.4899 0.234756 69.4434 0.239004 69.3974M0.226055 69.5371L0.239004 69.3974M0.239004 69.3974C0.278247 68.9729 0.312835 68.5987 0.374538 68.2898M0.239004 69.3974L0.374538 68.2898M0.374538 68.2898C2.0559 60.0819 6.01209 52.9503 10.115 45.6451C18.1211 32.7691 27.793 24.131 38.9818 19.6802C50.1719 15.2289 62.9315 14.9451 77.1492 18.8719C77.4124 18.9474 77.6925 19.0666 78.014 19.2035C78.0733 19.2288 78.134 19.2546 78.1963 19.2809C78.5764 19.4414 79.0094 19.6152 79.4443 19.6949C79.8873 19.7761 80.3748 19.768 80.8384 19.5209C81.2988 19.2755 81.662 18.8336 81.9403 18.1961C82.04 17.9773 81.9563 17.7816 81.9346 17.7332C81.8999 17.6557 81.8531 17.5906 81.8172 17.5451C81.7421 17.4499 81.6401 17.3478 81.5314 17.2483C81.3092 17.0449 80.999 16.7982 80.6522 16.5477C79.966 16.0522 79.0755 15.4979 78.3654 15.2245L0.374538 68.2898Z" fill="#026794" stroke="#026794"/>
<path d="M111.63 47.0535L111.164 47.2334L111.63 47.0535C110.644 44.4973 109.647 41.95 108.649 39.4042C107.495 36.4556 106.34 33.5089 105.206 30.5522C105.153 30.4126 105.079 30.2817 104.986 30.1639C102.281 26.7119 99.5714 23.2566 96.7797 19.8008C96.3403 19.2569 95.5673 19.0769 94.9336 19.4238C94.6972 19.5532 94.4666 19.686 94.2392 19.8253C93.5124 20.2704 93.3697 21.2136 93.819 21.8795C94.4819 22.8618 95.1488 23.8621 95.8166 24.8638C96.6539 26.1197 97.4926 27.3777 98.3266 28.6051C98.3722 28.6722 98.4229 28.7349 98.4773 28.7926L98.8412 28.4497L98.4773 28.7926C103.576 34.2038 106.049 40.9046 108.097 48.0028C108.283 48.6452 108.87 49.0908 109.541 49.0908L109.543 49.0908L109.544 49.0908L109.545 49.0908L109.547 49.0908L109.548 49.0908L109.549 49.0908L109.551 49.0908L109.552 49.0908L109.553 49.0908L109.555 49.0908L109.556 49.0908L109.558 49.0908L109.559 49.0908L109.56 49.0908L109.562 49.0908L109.563 49.0908L109.564 49.0908L109.566 49.0908L109.567 49.0908L109.568 49.0908L109.57 49.0908L109.571 49.0908L109.572 49.0908L109.574 49.0908L109.575 49.0908L109.577 49.0908L109.578 49.0908L109.579 49.0908L109.581 49.0908L109.582 49.0908L109.583 49.0908L109.585 49.0908L109.586 49.0908L109.587 49.0908L109.589 49.0908L109.59 49.0908L109.591 49.0908L109.593 49.0908L109.594 49.0908L109.596 49.0908L109.597 49.0908L109.598 49.0908L109.6 49.0908L109.601 49.0908L109.602 49.0908L109.604 49.0908L109.605 49.0908L109.606 49.0908L109.608 49.0908L109.609 49.0908L109.61 49.0908L109.612 49.0908L109.613 49.0908L109.615 49.0908L109.616 49.0908L109.617 49.0908L109.619 49.0908L109.62 49.0908L109.621 49.0908L109.623 49.0908L109.624 49.0908L109.625 49.0908L109.627 49.0908L109.628 49.0908L109.629 49.0908L109.631 49.0908L109.632 49.0908L109.634 49.0908L109.635 49.0908L109.636 49.0908L109.638 49.0908L109.639 49.0908L109.64 49.0908L109.642 49.0908L109.643 49.0908L109.644 49.0908L109.646 49.0908L109.647 49.0908L109.648 49.0908L109.65 49.0908L109.651 49.0908L109.653 49.0908L109.654 49.0908L109.655 49.0908L109.657 49.0908L109.658 49.0908L109.659 49.0908L109.661 49.0908L109.662 49.0908L109.663 49.0908L109.665 49.0908L109.666 49.0908L109.667 49.0908L109.669 49.0908L109.67 49.0908L109.671 49.0908L109.673 49.0908L109.674 49.0908L109.676 49.0908L109.677 49.0908L109.678 49.0908L109.68 49.0908L109.681 49.0908L109.682 49.0908L109.684 49.0908L109.685 49.0908L109.686 49.0908L109.688 49.0908L109.689 49.0908L109.69 49.0908L109.692 49.0908L109.693 49.0908L109.695 49.0908L109.696 49.0908L109.697 49.0908L109.699 49.0908L109.7 49.0908L109.701 49.0908L109.703 49.0908L109.704 49.0908L109.705 49.0908L109.707 49.0908L109.708 49.0908L109.709 49.0908L109.711 49.0908L109.712 49.0908L109.713 49.0908L109.715 49.0908L109.716 49.0908L109.718 49.0908L109.719 49.0908L109.72 49.0908L109.722 49.0908L109.723 49.0908L109.724 49.0908L109.726 49.0908L109.727 49.0908L109.728 49.0908L109.73 49.0908L109.731 49.0908L109.732 49.0908L109.734 49.0908L109.735 49.0908L109.736 49.0908L109.738 49.0908L109.739 49.0908L109.741 49.0908L109.742 49.0908L109.743 49.0908L109.745 49.0908L109.746 49.0908L109.747 49.0908L109.749 49.0908L109.75 49.0908L109.751 49.0908L109.753 49.0908L109.754 49.0908L109.755 49.0908L109.757 49.0908L109.758 49.0908L109.759 49.0908L109.761 49.0908L109.762 49.0908L109.764 49.0908L109.765 49.0908L109.766 49.0908L109.768 49.0908L109.769 49.0908L109.77 49.0908L109.772 49.0908L109.773 49.0908L109.774 49.0908L109.776 49.0908L109.777 49.0908L109.778 49.0908L109.78 49.0908L109.781 49.0908L109.782 49.0908L109.784 49.0908L109.785 49.0908L109.787 49.0908L109.788 49.0908L109.789 49.0908L109.791 49.0908L109.792 49.0908L109.793 49.0908L109.795 49.0908L109.796 49.0908L109.797 49.0908L109.799 49.0908L109.8 49.0908L109.801 49.0908L109.803 49.0908L109.804 49.0908L109.805 49.0908L109.807 49.0908L109.808 49.0908L109.809 49.0908L109.811 49.0908L109.812 49.0908L109.814 49.0908L109.815 49.0908L109.816 49.0908L109.818 49.0908L109.819 49.0908L109.82 49.0908L109.822 49.0908L109.823 49.0908L109.824 49.0908L109.826 49.0908L109.827 49.0908L109.828 49.0908L109.83 49.0908L109.831 49.0908L109.832 49.0908L109.834 49.0908L109.835 49.0908L109.837 49.0908L109.838 49.0908L109.839 49.0908L109.841 49.0908L109.842 49.0908L109.843 49.0908L109.845 49.0908L109.846 49.0908L109.847 49.0908L109.849 49.0908L109.85 49.0908L109.851 49.0908L109.853 49.0908L109.854 49.0908L109.855 49.0908L109.857 49.0908L109.858 49.0908L109.859 49.0908L109.861 49.0908L109.862 49.0908L109.864 49.0908L109.865 49.0908L109.866 49.0908L109.868 49.0908L109.869 49.0908L109.87 49.0908L109.872 49.0908L109.873 49.0908L109.874 49.0908L109.876 49.0908L109.877 49.0908L109.878 49.0908L109.88 49.0908L109.881 49.0908L109.882 49.0908L109.884 49.0908L109.885 49.0908L109.886 49.0908L109.888 49.0908L109.889 49.0908L109.89 49.0908L109.892 49.0908L109.893 49.0908L109.895 49.0908L109.896 49.0908L109.897 49.0908L109.899 49.0908L109.9 49.0908L109.901 49.0908L109.903 49.0908L109.904 49.0908L109.905 49.0908L109.907 49.0908L109.908 49.0908L109.909 49.0908L109.911 49.0908L109.912 49.0908L109.913 49.0908L109.915 49.0908L109.916 49.0908L109.917 49.0908L109.919 49.0908L109.92 49.0908L109.921 49.0908L109.923 49.0908L109.924 49.0908L109.926 49.0908L109.927 49.0908L109.928 49.0908L109.93 49.0908L109.931 49.0908L109.932 49.0908L109.934 49.0908L109.935 49.0908L109.936 49.0908L109.938 49.0908L109.939 49.0908L109.94 49.0908L109.942 49.0908L109.943 49.0908L109.944 49.0908L109.946 49.0908L109.947 49.0908L109.948 49.0908L109.95 49.0908L109.951 49.0908L109.952 49.0908L109.954 49.0908L109.955 49.0908L109.956 49.0908L109.958 49.0908L109.959 49.0908L109.961 49.0908L109.962 49.0908L109.963 49.0908L109.965 49.0908L109.966 49.0908L109.967 49.0908L109.969 49.0908L109.97 49.0908L109.971 49.0908L109.973 49.0908L109.974 49.0908L109.975 49.0908L109.977 49.0908L109.978 49.0908L109.979 49.0908L109.981 49.0908L109.982 49.0908L109.983 49.0908L109.985 49.0908L109.986 49.0908L109.987 49.0908L109.989 49.0908L109.99 49.0908L109.991 49.0908L109.993 49.0908L109.994 49.0908L109.995 49.0908L109.997 49.0908L109.998 49.0908L110 49.0908L110.001 49.0908L110.002 49.0908L110.004 49.0908L110.005 49.0908L110.006 49.0908L110.008 49.0908L110.009 49.0908L110.01 49.0908L110.012 49.0908L110.013 49.0908L110.014 49.0908L110.016 49.0908L110.017 49.0908L110.018 49.0908L110.02 49.0908L110.021 49.0908L110.022 49.0908L110.024 49.0908L110.025 49.0908L110.026 49.0908L110.028 49.0908L110.029 49.0908L110.03 49.0908L110.032 49.0908L110.033 49.0908L110.034 49.0908L110.036 49.0908L110.037 49.0908L110.038 49.0908L110.04 49.0908L110.041 49.0908L110.043 49.0908L110.044 49.0908L110.045 49.0908L110.047 49.0908L110.048 49.0908L110.049 49.0908L110.051 49.0908L110.052 49.0908L110.053 49.0908L110.055 49.0908L110.056 49.0908L110.057 49.0908L110.059 49.0908L110.06 49.0908L110.061 49.0908L110.063 49.0908L110.064 49.0908L110.065 49.0908L110.067 49.0908L110.068 49.0908L110.069 49.0908L110.071 49.0908L110.072 49.0908L110.073 49.0908L110.075 49.0908L110.076 49.0908L110.077 49.0908L110.079 49.0908L110.08 49.0908L110.081 49.0908L110.083 49.0908L110.084 49.0908L110.085 49.0908L110.087 49.0908L110.088 49.0908L110.089 49.0908L110.091 49.0908L110.092 49.0908L110.094 49.0908L110.095 49.0908L110.096 49.0908L110.098 49.0908L110.099 49.0908L110.1 49.0908L110.102 49.0908L110.103 49.0908L110.104 49.0908L110.106 49.0908L110.107 49.0908L110.108 49.0908L110.11 49.0908L110.111 49.0908L110.112 49.0908L110.114 49.0908L110.115 49.0908L110.116 49.0908L110.118 49.0908L110.119 49.0908L110.12 49.0908L110.122 49.0908L110.123 49.0908L110.124 49.0908L110.126 49.0908L110.127 49.0908L110.128 49.0908L110.13 49.0908L110.131 49.0908L110.132 49.0908L110.134 49.0908L110.135 49.0908L110.136 49.0908L110.138 49.0908L110.139 49.0908L110.14 49.0908L110.142 49.0908L110.143 49.0908L110.144 49.0908L110.146 49.0908L110.147 49.0908L110.148 49.0908L110.15 49.0908L110.151 49.0908L110.152 49.0908L110.154 49.0908L110.155 49.0908L110.156 49.0908L110.158 49.0908L110.159 49.0908L110.16 49.0908L110.162 49.0908L110.163 49.0908L110.164 49.0908L110.166 49.0908L110.167 49.0908L110.168 49.0908L110.17 49.0908L110.171 49.0908L110.173 49.0908L110.174 49.0908L110.175 49.0908L110.177 49.0908L110.178 49.0908L110.179 49.0908L110.181 49.0908L110.182 49.0908L110.183 49.0908L110.185 49.0908L110.186 49.0908L110.187 49.0908L110.189 49.0908L110.19 49.0908L110.191 49.0908L110.193 49.0908L110.194 49.0908L110.195 49.0908L110.197 49.0908L110.198 49.0908L110.199 49.0908L110.201 49.0908L110.202 49.0908L110.203 49.0908L110.205 49.0908L110.206 49.0908L110.207 49.0908L110.209 49.0908L110.21 49.0908L110.211 49.0908L110.213 49.0908L110.214 49.0908L110.215 49.0908L110.217 49.0908L110.218 49.0908L110.219 49.0908L110.221 49.0908L110.222 49.0908L110.223 49.0908L110.225 49.0908L110.226 49.0908L110.227 49.0908L110.229 49.0908L110.23 49.0908L110.231 49.0908C111.283 49.0908 112.009 48.0361 111.63 47.0535Z" fill="#026794" stroke="#026794"/>
<path d="M53.6447 91.8881L53.6447 91.8881L83.4852 72.4911L83.4876 71.9912C83.4873 71.9912 83.4869 71.9911 83.4865 71.9911C73.6242 71.9422 65.7813 73.8068 59.9483 77.6496C54.1025 81.5008 50.3275 87.3046 48.5469 95.0217C48.4422 95.4755 48.5616 95.9361 48.8376 96.2619C49.1214 96.5969 49.5769 96.7902 50.0804 96.6628C51.2883 96.3569 51.9973 95.558 52.4905 94.6543C52.7342 94.2078 52.9308 93.7261 53.1107 93.2579C53.1615 93.1256 53.2107 92.9954 53.2592 92.8668C53.3862 92.5302 53.5088 92.2053 53.6447 91.8881Z" fill="#026794" stroke="#026794"/>
<path d="M108.388 74.8879L108.377 74.8959L108.367 74.9045C105.628 77.1543 102.526 78.5991 99.1559 78.7917L99.1558 78.7916L99.144 78.7925C94.9218 79.1349 90.6896 79.3457 86.4529 79.5568C83.2539 79.7162 80.0523 79.8757 76.8507 80.092L76.8426 80.0926L76.8346 80.0934C76.2396 80.1529 75.6976 80.3876 75.2059 80.6461C74.6946 80.9149 74.4273 81.4332 74.3815 81.9298C74.3357 82.4271 74.5048 82.9881 74.9749 83.3384C75.2963 83.5779 75.6904 83.8254 76.1137 83.8859L76.1452 83.8904L76.177 83.8908C77.6038 83.912 79.0404 83.9506 80.4819 83.9893C92.5436 84.3132 104.949 84.6464 114.837 74.8453C114.936 74.7472 115.021 74.6344 115.089 74.5125C117.467 70.237 119.58 65.6885 119.784 60.6127C119.821 59.8034 119.905 59.2543 120.014 58.8958C120.127 58.5255 120.24 58.4453 120.263 58.4331L120.263 58.433C120.27 58.4295 120.324 58.4002 120.508 58.4798C120.695 58.5608 120.925 58.7166 121.204 58.9365C122.028 59.5841 123.299 59.2263 123.493 58.1034C123.853 56.0165 123.8 53.9211 122.671 51.872C122.283 51.1681 121.458 51.0398 120.845 51.2285C120.283 51.4015 119.933 51.369 119.704 51.2748C119.473 51.1803 119.281 50.99 119.102 50.6795C118.919 50.3626 118.777 49.9696 118.622 49.5192C118.611 49.4876 118.6 49.4558 118.589 49.4237C118.448 49.0162 118.294 48.567 118.091 48.1698C117.97 47.9336 117.787 47.7399 117.543 47.641C117.297 47.5412 117.04 47.5598 116.822 47.6549C116.398 47.8402 116.135 48.2937 116.118 48.7924C116.065 50.2932 116.064 51.8202 116.063 53.3375C116.062 54.2258 116.061 55.1107 116.05 55.9851C116.02 58.3694 115.914 60.709 115.533 62.9581C114.775 67.4367 112.928 71.553 108.388 74.8879Z" fill="#026794" stroke="#026794"/>
</g>
<defs>
<linearGradient id="paint0_linear" x1="109.885" y1="17.8906" x2="31.8848" y2="120.391" gradientUnits="userSpaceOnUse">
<stop stop-color="#05FBED"/>
<stop offset="1" stop-color="#CE87FE"/>
</linearGradient>
</defs>
</svg>
