<svg width="148" height="148" viewBox="0 0 148 148" fill="none" xmlns="http://www.w3.org/2000/svg">
<path d="M140.767 77.6541C142.982 40.994 115.059 9.47689 78.399 7.25861C41.7392 5.04033 10.225 32.9609 8.01022 69.621C5.79544 106.281 33.7187 137.798 70.3786 140.017C107.038 142.235 138.553 114.314 140.767 77.6541Z" fill="url(#paint0_linear)"/>
<path fill-rule="evenodd" clip-rule="evenodd" d="M13.0197 74.0009C13.0197 107.687 40.3252 134.991 74 134.993C107.675 134.996 134.98 107.697 134.98 74.0111C134.98 40.325 107.675 13.0214 74 13.0186C40.3252 13.0158 13.0197 40.3148 13.0197 74.0009ZM74 146.006C34.2318 146.003 2 113.761 2 74C2 34.2392 34.2318 2.00269 74 2.00601C113.768 2.00932 146 34.2512 146 74.012C146 113.773 113.768 146.009 74 146.006Z" fill="black"/>
<defs>
<linearGradient id="paint0_linear" x1="8.01022" y1="69.621" x2="140.768" y2="77.6415" gradientUnits="userSpaceOnUse">
<stop stop-color="#C38DEB"/>
<stop offset="1" stop-color="#5989EA"/>
</linearGradient>
</defs>
</svg>
