<svg width="134" height="134" viewBox="0 0 134 134" fill="none" xmlns="http://www.w3.org/2000/svg">
<path d="M66.9219 133.926C30.1949 133.926 0.421875 104.159 0.421876 67.4824C0.421876 30.8061 30.1949 1.03897 66.9219 1.03897C103.649 1.03897 133.422 30.8061 133.422 67.4824C133.422 104.159 103.649 133.926 66.9219 133.926Z" fill="#815000"/>
<path d="M65.8244 0.938248C66.1909 0.932495 66.558 0.929596 66.9258 0.929596C70.4851 0.929596 73.9801 1.20064 77.3906 1.72286L77.3906 63.8739L66.8128 74.281C64.2943 76.7589 64.2943 80.9713 66.8128 83.4492C69.3314 85.927 73.6128 85.927 76.1314 83.4492L77.3906 82.2102L77.3906 90.635L66.8128 101.042C64.2943 103.52 64.2943 107.732 66.8128 110.21C69.3314 112.688 73.6128 112.688 76.1314 110.21L77.3906 108.971L77.3906 117.396L66.8128 127.803C65.1924 129.398 64.6145 131.71 65.0794 133.816C57.469 133.615 50.1725 132.175 43.3906 129.693L43.3906 32.4049C43.3906 18.018 52.6933 5.61407 65.8244 0.938248Z" fill="#CE7F00"/>
<path d="M59.3906 70.8706C59.3906 71.3945 59.3906 71.9185 59.3906 72.4424C59.3906 73.4903 59.3906 74.8002 59.1137 75.848C59.1137 76.372 58.8368 76.8959 58.8368 77.1579C58.5599 78.4678 58.5599 79.5157 58.2829 80.8255L58.2829 81.0875C55.7906 91.8283 49.9752 101.259 41.3906 108.333L41.3906 113.834L59.3906 113.834L59.3906 70.8706Z" fill="#815000"/>
<path d="M52.8628 132.442C48.5338 131.511 44.3614 130.158 40.3906 128.429L40.3906 126.828L57.3906 126.828C56.3024 128.991 54.7502 130.894 52.8628 132.442Z" fill="#815000"/>
<path d="M36.9813 126.826C33.2337 124.934 29.6896 122.698 26.3906 120.159L26.3906 113.837L35.0272 113.837C37.2551 112.392 39.3762 110.751 41.3906 108.841L41.3906 113.837L82.3906 113.837C82.3906 121.023 76.7638 126.826 69.7973 126.826L36.9813 126.826Z" fill="#E0CFA3"/>
<path d="M113.391 48.6254C89.803 46.7824 70.504 31.2483 63.535 9.92186L56.8339 9.92186C45.5762 9.92186 38.071 18.8737 35.3906 27.8255C43.4319 32.828 49.8649 40.2001 54.1535 48.8887L113.391 48.6254Z" fill="#EA9600"/>
<path d="M21.3616 115.879C15.1963 110.082 10.1385 103.122 6.53906 95.3522C20.3001 95.274 31.8893 84.4139 31.8893 70.8699L54.3893 70.8699L53.5917 76.098C51.5083 94.0763 38.5427 110.402 21.3616 115.879Z" fill="#CE7F00"/>
<path d="M8.84766 35.1042C11.8482 29.745 15.5702 24.8431 19.8824 20.5302C25.518 21.9915 30.8154 24.3804 35.5588 27.4239C43.6838 32.9114 50.1838 40.3196 54.5171 49.3741C57.4963 56.2335 59.3921 63.9161 59.3921 71.873L32.8505 71.873C32.8505 62.5442 27.9755 54.5872 20.9338 49.9228L20.9338 32.0883C16.6322 32.0883 12.5415 33.1564 8.84766 35.1042Z" fill="#9B5F00"/>
<path d="M77.2266 90.7246L80.6979 87.2562C82.1856 85.7698 83.9213 85.2743 85.9049 85.522C84.4172 83.0446 82.9295 80.5672 81.9377 77.842L77.2266 82.3014L77.2266 90.7246Z" fill="#815000"/>
<path d="M110.204 117.927C101.848 125.094 91.6904 130.223 80.5039 132.544L89.8722 123.184C92.3517 120.706 92.3517 116.495 89.8722 114.017C87.3926 111.54 83.1774 111.54 80.6979 114.017L77.2266 117.486L77.2266 109.062L89.8722 96.4275C90.864 95.6842 91.3599 94.4455 91.6079 93.2068C96.8149 98.9049 103.014 103.612 110.204 106.833L110.204 117.927Z" fill="#815000"/>
<path d="M118.129 109.874C115.719 112.777 113.067 115.472 110.203 117.928L110.203 106.84C112.752 108.069 115.394 109.081 118.129 109.874Z" fill="#CE7F00"/>
<path d="M77.2266 1.83652C105.069 6.1662 127.195 27.7622 132.307 55.3057L105.493 55.3057C105.493 39.6979 92.8476 27.063 77.2266 27.063L77.2266 1.83652Z" fill="#CE4A00"/>
<path d="M77.2266 55.3057L105.493 55.3057C105.493 39.6979 92.8476 27.063 77.2266 27.063L77.2266 55.3057Z" fill="#A52B00"/>
<path d="M132.308 55.3043C133.041 59.2539 133.424 63.3257 133.424 67.4864C133.424 72.9915 132.657 78.7429 131.393 83.8594C116.796 83.8594 105.492 70.1485 105.492 55.3043L132.308 55.3043Z" fill="#EA9600"/>
<path fill-rule="evenodd" clip-rule="evenodd" d="M7.38965 58.8783L7.38965 58.884L0.974573 58.884C0.609926 61.7001 0.421875 64.5713 0.421875 67.4861C0.421875 77.6254 2.69734 87.2366 6.76613 95.8369C6.97296 95.8473 7.18085 95.8525 7.38965 95.8525C21.2194 95.8525 32.3896 84.5174 32.3896 70.4833C32.3896 61.3072 28.3055 53.4767 21.3906 48.8886L21.3906 58.884L7.38965 58.8783ZM32.3896 70.4833C32.3896 76.9606 27.3365 82.0884 20.9535 82.0884C14.5705 82.0884 9.51731 76.9606 9.51731 70.4833C9.51731 64.0061 15.0076 58.884 21.3906 58.884C27.7736 58.884 32.3896 64.0061 32.3896 70.4833Z" fill="#EA9600"/>
<path d="M26.3926 120.16C24.3257 118.553 22.0882 116.619 20.2266 114.784C38.0952 109.786 51.3273 94.5525 53.4647 76.21L54.2729 71.8734L59.3921 71.8734L59.3921 72.475C59.3921 73.0085 59.3248 73.6088 59.2574 74.2091C59.19 74.8094 59.1227 75.4096 59.1227 75.9432C59.1227 76.0537 59.0765 76.21 59.0223 76.3931C58.9457 76.652 58.8533 76.9646 58.8533 77.2772C58.7253 77.9109 58.6581 78.5446 58.5939 79.1497C58.523 79.8183 58.4558 80.452 58.3144 81.0122L58.3144 81.279C54.5464 98.3631 42.5804 112.18 26.3926 118.33L26.3926 120.16Z" fill="#FFC022"/>
<path d="M65.1062 133.905C65.7101 133.922 66.316 133.93 66.9238 133.93C71.5795 133.93 76.1235 133.451 80.5092 132.541L89.8724 123.186C92.352 120.709 92.352 116.497 89.8724 114.02C87.3929 111.542 83.1777 111.542 80.6982 114.02L66.8128 127.893C65.2173 129.487 64.6485 131.799 65.1062 133.905Z" fill="#815000"/>
<path d="M80.6982 87.2614L66.8128 101.135C64.3332 103.612 64.3332 107.824 66.8128 110.301C69.2923 112.779 73.5075 112.779 75.9871 110.301L89.8724 96.4278C90.8643 95.4369 91.3602 94.4459 91.6081 93.2072C89.3765 90.7298 87.3929 88.2524 85.9052 85.5272C83.9216 85.2794 81.9379 85.7749 80.6982 87.2614Z" fill="#815000"/>
<path d="M66.8128 83.5433C64.3332 81.0659 64.3332 76.8543 66.8128 74.3768L77.7227 63.4762C78.4666 68.431 79.7064 73.3859 81.69 77.8452L75.9871 83.5433C73.5075 86.0207 69.2923 86.0207 66.8128 83.5433Z" fill="#815000"/>
<path d="M131.43 83.6922C129.456 91.5572 126.078 98.8674 121.577 105.341C100.941 100.21 85.0139 82.369 82.9295 60.5017L82.4336 55.2991L105.493 55.2991C105.493 70.3463 117.106 82.4929 131.43 83.6922Z" fill="#CE7F00"/>
<path d="M121.574 105.343C120.503 106.884 119.367 108.378 118.172 109.821C115.326 109.013 112.575 108.004 109.956 106.831C102.766 103.611 96.5669 98.9034 91.3599 93.2053C89.3763 90.9757 87.3926 88.2505 85.657 85.5253C84.1692 83.0479 82.9295 80.5705 81.6897 77.8453C79.7061 73.3859 78.4663 68.4311 77.7225 63.4763C77.7033 63.2654 77.6841 63.056 77.665 62.8479C77.4376 60.3662 77.3906 57.8976 77.3906 55.3833L82.3906 55.3833C84.4749 77.0414 100.939 100.216 121.574 105.343Z" fill="#EA9600"/>
<path d="M21.3906 76.8691C25.2795 76.8691 28.3906 73.9827 28.3906 70.3747C28.3906 66.7666 25.2795 63.8802 21.3906 63.8802L21.3906 76.8691Z" fill="#D13100"/>
<path d="M21.3906 57.8855L21.3906 65.1468C24.4139 65.1468 26.8325 67.4704 26.8325 70.3749C26.8325 73.2794 24.4139 75.603 21.3906 75.603L21.3906 82.8643C28.6464 82.8643 34.3906 77.3457 34.3906 70.3749C34.3906 63.4041 28.3441 57.8855 21.3906 57.8855Z" fill="#FFC022"/>
<path d="M16.2303 58.8808L0.976563 58.8808C1.44456 55.2666 2.20343 51.7432 3.22897 48.3349C6.87743 42.0765 13.6708 37.8986 21.3916 37.8986L21.3916 82.8604C14.1358 82.8604 8.3916 77.3418 8.3916 70.371C8.3916 65.1686 11.5909 60.7752 16.2303 58.8808Z" fill="#2E1D0A"/>
<path d="M21.3916 31.9068L21.3916 39.6526C10.6986 39.6526 2.14411 48.1998 2.14411 58.8838L0.976562 58.8838C2.07929 50.3678 4.79702 42.3557 8.81296 35.165C12.4303 33.0647 16.911 31.9068 21.3916 31.9068Z" fill="#A52B00"/>
</svg>
