<svg width="149" height="149" viewBox="0 0 149 149" fill="none" xmlns="http://www.w3.org/2000/svg">
<path d="M140.871 78.2892C143.086 41.6292 115.163 10.1124 78.5033 7.89458C41.8434 5.67676 10.3289 33.5977 8.1136 70.2578C5.89835 106.918 33.8213 138.435 70.4812 140.652C107.141 142.87 138.656 114.949 140.871 78.2892Z" fill="#425501"/>
<path fill-rule="evenodd" clip-rule="evenodd" d="M13.1223 74.6376C13.1223 108.324 40.4277 135.627 74.1025 135.63C107.777 135.633 135.083 108.334 135.083 74.6478C135.083 40.9617 107.777 13.6581 74.1025 13.6553C40.4277 13.6525 13.1223 40.9516 13.1223 74.6376ZM74.1025 146.643C34.3344 146.639 2.10254 114.398 2.10254 74.6367C2.10253 34.8759 34.3344 2.63941 74.1025 2.64272C113.871 2.64604 146.103 34.8879 146.103 74.6487C146.103 114.41 113.871 146.646 74.1025 146.643Z" fill="black"/>
</svg>
