<svg width="78" height="77" viewBox="0 0 78 77" fill="none" xmlns="http://www.w3.org/2000/svg">
<path d="M29.4083 71.2854C32.6421 72.227 36.3471 72.6119 40.5066 72.4252C52.1483 71.8792 59.8996 67.8011 63.5374 60.2945C70.4341 46.1028 59.6719 22.7042 49.2492 11.2717C44.6253 6.19755 40.6218 3.9709 37.338 4.65055C26.2343 6.94939 11.7991 34.8285 14.7203 53.8917C16.1127 62.9523 21.2148 68.8994 29.4083 71.2854Z" fill="black"/>
<path d="M40.7538 76.9486C53.6362 76.3445 63.4879 71.6625 68.1155 62.1148C72.2916 53.5168 70.9178 42.8149 67.6591 33.3938C64.3498 23.8265 58.758 14.5891 53.1042 8.38723C50.6129 5.65346 48.0505 3.41292 45.4062 1.94282C42.7437 0.462578 39.57 -0.457848 36.2237 0.234732C31.7612 1.15864 27.8792 4.33683 24.8108 7.79632C21.5974 11.4194 18.6306 16.0864 16.185 21.1766C11.3405 31.2599 8.13625 43.8684 9.76756 54.5141C11.3751 64.9748 17.5381 72.5861 27.8779 75.597C31.793 76.7371 36.1169 77.1567 40.7538 76.9486Z" fill="black"/>
<path d="M40.3921 70.4088C87.855 68.1984 49.4802 4.21046 37.8341 6.61905C22.8221 9.723 -2.61842 72.4088 40.3921 70.4088Z" fill="#3D3A2F"/>
<path d="M41.1152 69.7179C41.1152 69.7179 39.9591 4.52461 38.5547 7.24857C37.1503 9.97253 36.8697 69.0368 38.6413 70.0584C40.413 71.0799 41.1152 69.7179 41.1152 69.7179Z" fill="#FF8B00"/>
<path d="M35.5547 7.70166C35.5547 7.70166 19.6926 47.3479 27.7071 68.0033C27.7071 68.0033 21.0071 65.0541 19.5547 62.0535C19.5547 60.2665 22.4241 16.0826 35.5547 7.70166Z" fill="#FF8B00"/>
<path d="M42.6218 8.63077C55.7651 19.398 58.0866 51.5406 58.5547 62.9593C56.1991 65.2179 53.2245 68.2362 49.0062 69.298L48.3993 68.9726C59.8625 44.7191 43.3483 12.9369 40.5547 7.70166C41.2094 7.8923 41.8984 8.20201 42.6218 8.63077Z" fill="#FF8B00"/>
</svg>
