<svg width="77" height="78" viewBox="0 0 77 78" fill="none" xmlns="http://www.w3.org/2000/svg">
<path d="M13 39.5709C13 25.2115 24.6406 13.5686 39 13.5657C53.3594 13.5629 65 25.2011 65 39.5605C65 53.92 53.3594 65.5629 39 65.5657C24.6406 65.5686 13 53.9303 13 39.5709Z" fill="#8A510F"/>
<path d="M13 39.5709C13 25.2115 24.6406 13.5686 39 13.5657C53.3594 13.5629 65 25.2011 65 39.5605C65 53.92 53.3594 65.5629 39 65.5657C24.6406 65.5686 13 53.9303 13 39.5709Z" fill="#D5D5D5"/>
<path d="M64.9965 39.5521C64.9965 25.2023 53.3637 13.5672 39.0139 13.5643C24.6641 13.5615 13.0312 25.192 13.0312 39.5418C13.0312 53.8916 24.6641 65.5267 39.0139 65.5296C53.3637 65.5325 64.9965 53.902 64.9965 39.5521Z" fill="#3C2A63"/>
<path d="M22.222 65.5897C21.6782 65.8021 21.0567 65.7451 20.5543 65.424C19.9846 65.0563 19.6532 64.4089 19.6998 63.7356L22.2635 26.3522C22.3049 25.7463 22.6415 25.1973 23.1646 24.8865C23.6877 24.5758 24.33 24.5447 24.8841 24.7985L51.443 37.0058C52.0748 37.2959 52.4943 37.9174 52.5202 38.6165C52.5461 39.3157 52.1836 39.9683 51.5724 40.305L34.2999 49.9745C33.4039 50.4717 32.2748 50.1558 31.7776 49.2598C31.2804 48.3689 31.5963 47.2347 32.4923 46.7375L46.5849 38.8496L25.7801 29.2837L23.6359 60.597L63.1117 38.8134L17.54 17.0867C16.6182 16.6465 16.2245 15.5381 16.6648 14.6162C17.105 13.6943 18.2133 13.3007 19.1352 13.7409L67.9594 37.0214C68.5861 37.3218 68.9952 37.9433 69.0159 38.6373C69.0367 39.3313 68.6689 39.9787 68.0578 40.3153L22.4499 65.4861C22.3722 65.5276 22.2997 65.5587 22.222 65.5897Z" fill="#FBCE00"/>
<path fill-rule="evenodd" clip-rule="evenodd" d="M63.8977 39.5628C63.8977 53.3307 52.7419 64.4783 39 64.4811C25.2581 64.4838 14.1023 53.3407 14.1023 39.5727C14.1023 25.8048 25.2581 14.6571 39 14.6544C52.7419 14.6517 63.8977 25.7948 63.8977 39.5628ZM39 75.5677C58.891 75.5638 75 59.4341 75 39.5605C75 19.687 58.891 3.56377 39 3.56774C19.1091 3.57172 3 19.7014 3 39.5749C3 59.4485 19.1091 75.5717 39 75.5677Z" fill="black"/>
</svg>
