<svg width="78" height="78" viewBox="0 0 78 78" fill="none" xmlns="http://www.w3.org/2000/svg">
<path d="M11.6754 27.5565C10.5936 30.6705 10.0478 33.9231 10.0478 37.2618C10.0478 53.3042 23.0397 66.5966 38.9301 66.8895C39.0513 66.8964 39.1735 66.9004 39.2946 66.9004L39.471 66.9004C39.5912 66.9004 39.7153 66.8964 39.7577 66.8925C55.7269 66.5966 68.7188 53.3042 68.7188 37.2618C68.7188 33.9291 68.17 30.6765 67.0863 27.5565L75.3984 27.5565L70.3286 10.4029L42.7212 10.4029L42.7222 21.0938L42.7281 21.2601C42.8837 24.5255 45.7063 25.713 46.9329 26.2285L46.9359 26.2295C47.5004 26.5719 48.1605 27.5159 48.8994 29.0378C49.6176 30.5162 49.9969 32.1568 49.9969 33.7826C49.9969 39.6892 45.2403 44.5488 39.4375 44.617C33.5548 44.5498 28.7687 39.6892 28.7687 33.7826C28.7687 32.1578 29.149 30.5162 29.8652 29.0388C30.6081 27.5129 31.2672 26.5679 31.8248 26.2305L31.8524 26.2196C33.0573 25.712 35.8789 24.5235 36.0395 21.166L36.0444 10.4019L8.43507 10.4019L3.3652 27.5555L11.6754 27.5555L11.6754 27.5565ZM11.3867 19.3809L12.4439 15.7998L30.6702 15.7998L30.6702 19.3987L11.3867 19.3809ZM11.2547 20.4585L30.7746 20.4773L31.6544 20.4783C31.8238 20.6179 31.9351 20.8227 31.9233 21.0602C31.8948 21.6767 31.2741 21.9795 30.2574 22.4059C30.1647 22.4445 30.0899 22.4742 30.0514 22.495C28.1924 23.437 27.0426 25.4141 26.1638 27.224C25.1727 29.2654 24.6496 31.5324 24.6496 33.7836C24.6496 41.9463 31.2632 48.6623 39.3922 48.7563C47.5034 48.6623 54.117 41.9453 54.117 33.7836C54.117 31.5334 53.5939 29.2654 52.6018 27.224C51.723 25.4141 50.5742 23.437 48.7152 22.493C48.6777 22.4742 48.6028 22.4445 48.5093 22.4059C47.4945 21.9785 46.8728 21.6767 46.8443 21.0602C46.8314 20.8237 46.9447 20.6179 47.1142 20.4783L48.0176 20.4773L67.5129 20.4585L68.8222 20.4576L68.6183 19.7678L68.7877 19.7174L69.8774 23.4192L60.5228 23.4192L60.5593 23.4746C63.2056 27.6208 64.5976 32.3844 64.5976 37.2638C64.5976 49.1887 56.2845 59.3136 45.1763 62.0348C45.6935 61.6044 46.0738 61.0196 46.2521 60.2448C46.3211 59.942 46.3694 59.6204 46.3694 59.2542C46.3694 58.7446 46.3694 58.4389 46.3093 58.1915C46.2058 57.767 45.9024 57.5235 45.4738 57.5235C45.2482 57.5235 44.999 57.5859 44.6206 57.6779C43.7773 57.8828 42.2079 58.2657 39.3843 58.2657C36.7439 58.2657 35.2454 57.9609 34.3489 57.7798C33.9469 57.6977 33.6799 57.6433 33.4484 57.6433C32.4888 57.6433 32.4888 58.4725 32.4888 59.4353C32.4888 59.7371 32.5243 60.0073 32.5765 60.2626C32.7292 61.0285 33.0908 61.6084 33.5933 62.0358C22.4841 59.3156 14.168 49.1907 14.168 37.2638C14.168 32.3844 15.5601 27.6228 18.1965 23.4905L18.2448 23.4212L8.88728 23.4212L9.98086 19.7154L10.1533 19.7669L9.94835 20.4585L11.2547 20.4585ZM48.0974 19.3978L48.0974 15.7988L66.3218 15.7988L67.3799 19.3799L48.0974 19.3978ZM33.5607 59.4343C33.5607 59.1701 33.5607 58.903 33.5755 58.7328C33.7095 58.7516 33.9056 58.7902 34.1322 58.8357C35.0671 59.0257 36.6316 59.3443 39.3813 59.3443C42.334 59.3443 43.9842 58.9416 44.8709 58.7258C45.0216 58.6892 45.1684 58.6536 45.2827 58.6289C45.2916 58.7921 45.2916 59.0257 45.2916 59.2523C45.2916 61.9933 42.3724 62.2209 39.3813 62.2209C36.4366 62.2219 33.5617 62.0071 33.5607 59.4343ZM45.4768 58.6031C45.4758 58.6031 45.4748 58.6031 45.4728 58.6031L45.4728 58.0658L45.4728 58.0648L45.4728 58.0658L45.4768 58.6031Z" fill="#010101"/>
<path d="M20.9411 21.9796L19.3913 24.2812C16.9136 28.1642 15.5993 32.6586 15.5993 37.2629C15.5993 48.0261 22.7765 57.2337 32.5744 60.2627C32.5222 60.0064 32.4867 59.7363 32.4867 59.4354C32.4867 58.4726 32.4867 57.6434 33.4463 57.6434C33.6778 57.6434 33.9448 57.6978 34.3468 57.7799C35.2433 57.962 36.7428 58.2658 39.3821 58.2658C42.2057 58.2658 43.7752 57.8829 44.6185 57.678C44.9968 57.585 45.2471 57.5237 45.4717 57.5237C45.9002 57.5237 46.2027 57.7671 46.3071 58.1916C46.3672 58.439 46.3672 58.7457 46.3672 59.2544C46.3672 59.6205 46.319 59.9421 46.25 60.2449C56.0153 57.1971 63.164 48.0033 63.164 37.2629C63.164 32.6596 61.8497 28.1652 59.3621 24.2674L57.8222 21.9796L67.959 21.9796L67.5117 20.4586L48.0165 20.4774C48.0785 20.5309 48.1337 20.5903 48.1751 20.6605C48.3761 20.7892 48.8815 21.0039 49.0598 21.0761C49.1968 21.1345 49.3051 21.18 49.3583 21.2077C51.6125 22.3497 52.9622 24.6859 53.8893 26.5928C54.9769 28.8281 55.5513 31.3148 55.5513 33.7837C55.5513 42.7311 48.3022 50.0923 39.393 50.1952C30.467 50.0923 23.2179 42.7291 23.2179 33.7837C23.2179 31.3158 23.7913 28.8291 24.8799 26.5928C25.804 24.685 27.1567 22.3497 29.4109 21.2077C29.4641 21.181 29.5715 21.1335 29.7084 21.0761C29.8887 21.0029 30.3931 20.7892 30.5931 20.6605C30.6375 20.5853 30.7074 20.5329 30.7764 20.4774L11.2565 20.4586L10.8083 21.9786L20.9411 21.9786L20.9411 21.9796ZM20.2209 27.8534C21.5243 27.8534 22.5854 28.9182 22.5854 30.2273C22.5854 31.5375 21.5243 32.6022 20.2209 32.6022C18.9175 32.6022 17.8574 31.5365 17.8574 30.2273C17.8574 28.9192 18.9175 27.8534 20.2209 27.8534ZM60.9108 30.2283C60.9108 31.5385 59.8498 32.6032 58.5463 32.6032C57.2419 32.6032 56.1818 31.5375 56.1818 30.2283C56.1818 28.9202 57.2419 27.8544 58.5463 27.8544C59.8498 27.8535 60.9108 28.9182 60.9108 30.2283ZM57.8291 46.9584C56.5257 46.9584 55.4666 45.8927 55.4666 44.5825C55.4656 43.2744 56.5247 42.2096 57.8291 42.2096C59.1325 42.2096 60.1936 43.2744 60.1936 44.5825C60.1936 45.8927 59.1325 46.9584 57.8291 46.9584ZM54.6449 50.6998C54.6449 52.008 53.5839 53.0747 52.2814 53.0747C50.978 53.0747 49.9159 52.008 49.9159 50.6998C49.915 49.3897 50.978 48.324 52.2814 48.324C53.5829 48.324 54.6449 49.3897 54.6449 50.6998ZM26.4878 53.0747C25.1824 53.0747 24.1223 52.008 24.1223 50.6998C24.1223 49.3897 25.1824 48.324 26.4878 48.324C27.7912 48.324 28.8513 49.3897 28.8513 50.6998C28.8513 52.008 27.7912 53.0747 26.4878 53.0747ZM18.5726 44.5815C18.5726 43.2734 19.6327 42.2086 20.9362 42.2086C22.2396 42.2086 23.3006 43.2734 23.3006 44.5815C23.3006 45.8917 22.2396 46.9574 20.9362 46.9574C19.6327 46.9574 18.5726 45.8927 18.5726 44.5815ZM19.1096 35.1612C20.413 35.1612 21.4731 36.2259 21.4731 37.5351C21.4731 38.8432 20.413 39.908 19.1096 39.908C17.8062 39.908 16.7471 38.8432 16.7471 37.5351C16.7461 36.2259 17.8062 35.1612 19.1096 35.1612ZM59.6567 39.909C58.3532 39.909 57.2922 38.8442 57.2922 37.536C57.2922 36.2269 58.3532 35.1621 59.6567 35.1621C60.9611 35.1621 62.0212 36.2269 62.0212 37.536C62.0212 38.8442 60.9611 39.909 59.6567 39.909Z" fill="#758B94"/>
<path d="M9.98136 19.7157L8.88778 23.4215L18.2453 23.4215L18.197 23.4908C15.5606 27.6231 14.1685 32.3847 14.1685 37.2641C14.1685 49.191 22.4836 59.3159 33.5938 62.0361C33.0913 61.6077 32.7297 61.0288 32.577 60.2629C22.7792 57.2339 15.602 48.0263 15.602 37.2631C15.602 32.6588 16.9162 28.1644 19.394 24.2814L20.9437 21.9798L10.8089 21.9798L11.2572 20.4598L9.94984 20.4588L10.1548 19.7672L9.98136 19.7157Z" fill="#20343C"/>
<path d="M57.822 21.9808L59.3619 24.2686C61.8495 28.1653 63.1638 32.6598 63.1638 37.2641C63.1638 48.0045 56.0151 57.1983 46.2498 60.2461C46.0715 61.0209 45.6922 61.6057 45.1739 62.0361C56.2821 59.3149 64.5953 49.191 64.5953 37.2651C64.5953 32.3857 63.2032 27.6231 60.5569 23.4759L60.5205 23.4205L69.875 23.4205L68.7854 19.7187L68.6159 19.7691L68.8199 20.4588L67.5105 20.4598L67.9578 21.9808L57.822 21.9808Z" fill="#20343C"/>
<path d="M29.7059 21.0763C29.569 21.1337 29.4616 21.1802 29.4084 21.2079C27.1542 22.3498 25.8025 24.6861 24.8774 26.5929C23.7898 28.8293 23.2154 31.315 23.2154 33.7839C23.2154 42.7293 30.4645 50.0924 39.3905 50.1953C48.2997 50.0924 55.5488 42.7313 55.5488 33.7839C55.5488 31.316 54.9744 28.8283 53.8868 26.5929C52.9607 24.6851 51.61 22.3498 49.3558 21.2079C49.3026 21.1812 49.1943 21.1347 49.0573 21.0763C48.878 21.004 48.3736 20.7893 48.1726 20.6607C48.1312 20.5904 48.0751 20.531 48.014 20.4776L47.1106 20.4786C46.9401 20.6181 46.8278 20.8239 46.8406 21.0604C46.8692 21.6769 47.4908 21.9797 48.5056 22.4062C48.5992 22.4448 48.6741 22.4745 48.7115 22.4933C50.5716 23.4373 51.7203 25.4144 52.5981 27.2243C53.5902 29.2657 54.1134 31.5327 54.1134 33.7839C54.1134 41.9456 47.4997 48.6625 39.3885 48.7565C31.2596 48.6625 24.6459 41.9465 24.6459 33.7839C24.6459 31.5337 25.1691 29.2666 26.1602 27.2242C27.04 25.4144 28.1897 23.4373 30.0478 22.4953C30.0862 22.4745 30.1611 22.4448 30.2537 22.4062C31.2704 21.9787 31.8911 21.6769 31.9197 21.0604C31.9315 20.8229 31.8192 20.6181 31.6507 20.4786L30.7709 20.4776C30.7029 20.532 30.632 20.5845 30.5877 20.6607C30.3906 20.7893 29.8862 21.0021 29.7059 21.0763Z" fill="#B2CCD6"/>
<path d="M20.2201 28.9318C19.5068 28.9318 18.9285 29.5126 18.9285 30.2291C18.9285 30.9456 19.5068 31.5264 20.2201 31.5264C20.9335 31.5264 21.5117 30.9456 21.5117 30.2291C21.5117 29.5126 20.9335 28.9318 20.2201 28.9318Z" fill="#4E5E62"/>
<path d="M17.856 30.2286C17.856 31.5378 18.9161 32.6035 20.2195 32.6035C21.5229 32.6035 22.584 31.5388 22.584 30.2286C22.584 28.9195 21.5229 27.8547 20.2195 27.8547C18.9161 27.8547 17.856 28.9195 17.856 30.2286ZM20.2195 28.9323C20.9328 28.9323 21.5111 29.5142 21.5111 30.2286C21.5111 30.9441 20.9328 31.5249 20.2195 31.5249C19.5072 31.5249 18.9279 30.9441 18.9279 30.2286C18.9279 29.5132 19.5082 28.9323 20.2195 28.9323Z" fill="#010101"/>
<path d="M19.1098 36.2395C18.397 36.2395 17.8192 36.8198 17.8192 37.5357C17.8192 38.2517 18.397 38.832 19.1098 38.832C19.8226 38.832 20.4004 38.2517 20.4004 37.5357C20.4004 36.8198 19.8226 36.2395 19.1098 36.2395Z" fill="#4E5E62"/>
<path d="M19.1091 39.9092C20.4126 39.9092 21.4727 38.8444 21.4727 37.5363C21.4727 36.2271 20.4126 35.1624 19.1091 35.1624C17.8057 35.1624 16.7456 36.2271 16.7466 37.5363C16.7466 38.8444 17.8057 39.9092 19.1091 39.9092ZM20.4008 37.5353C20.4008 38.2497 19.8215 38.8316 19.1091 38.8316C18.3978 38.8316 17.8185 38.2497 17.8185 37.5353C17.8185 36.8198 18.3978 36.237 19.1091 36.237C19.8215 36.238 20.4008 36.8208 20.4008 37.5353Z" fill="#010101"/>
<path d="M20.9369 43.2854C20.2247 43.2854 19.6473 43.8653 19.6473 44.5807C19.6473 45.2961 20.2247 45.876 20.9369 45.876C21.6492 45.876 22.2266 45.2961 22.2266 44.5807C22.2266 43.8653 21.6492 43.2854 20.9369 43.2854Z" fill="#4E5E62"/>
<path d="M23.3027 44.5821C23.3027 43.274 22.2417 42.2092 20.9382 42.2092C19.6348 42.2092 18.5747 43.274 18.5747 44.5821C18.5747 45.8923 19.6348 46.958 20.9382 46.958C22.2417 46.958 23.3027 45.8933 23.3027 44.5821ZM19.6486 44.5811C19.6486 43.8667 20.2259 43.2858 20.9382 43.2858C21.6505 43.2858 22.2289 43.8667 22.2289 44.5811C22.2289 45.2966 21.6505 45.8784 20.9382 45.8784C20.2279 45.8784 19.6486 45.2966 19.6486 44.5811Z" fill="#010101"/>
<path d="M26.4887 49.4025C25.7754 49.4025 25.1971 49.9824 25.1971 50.6998C25.1981 51.4152 25.7754 51.9961 26.4887 51.9961C27.199 51.9961 27.7773 51.4152 27.7773 50.6998C27.7764 49.9824 27.198 49.4025 26.4887 49.4025Z" fill="#4E5E62"/>
<path d="M28.8516 50.7003C28.8516 49.3902 27.7915 48.3244 26.4881 48.3244C25.1827 48.3244 24.1226 49.3902 24.1226 50.7003C24.1226 52.0085 25.1827 53.0752 26.4881 53.0752C27.7915 53.0752 28.8516 52.0085 28.8516 50.7003ZM27.7757 50.6993C27.7757 51.4148 27.1974 51.9956 26.4871 51.9956C25.7738 51.9956 25.1965 51.4148 25.1955 50.6993C25.1955 49.9819 25.7738 49.402 26.4871 49.402C27.1974 49.403 27.7757 49.9829 27.7757 50.6993Z" fill="#010101"/>
<path d="M30.6699 19.3984L30.6699 15.8005L12.4436 15.8005L11.3855 19.3816L30.6699 19.3984Z" fill="#4E5E62"/>
<path d="M58.5463 28.9328C57.8341 28.9328 57.2567 29.5128 57.2567 30.2281C57.2567 30.9435 57.8341 31.5234 58.5463 31.5234C59.2585 31.5234 59.8359 30.9435 59.8359 30.2281C59.8359 29.5128 59.2585 28.9328 58.5463 28.9328Z" fill="#4E5E62"/>
<path d="M56.1812 30.2286C56.1812 31.5378 57.2412 32.6035 58.5457 32.6035C59.8491 32.6035 60.9102 31.5388 60.9102 30.2286C60.9102 28.9195 59.8491 27.8547 58.5457 27.8547C57.2412 27.8538 56.1812 28.9195 56.1812 30.2286ZM58.5466 28.9323C59.258 28.9323 59.8363 29.5142 59.8363 30.2286C59.8363 30.9441 59.259 31.5249 58.5466 31.5249C57.8343 31.5249 57.257 30.9441 57.256 30.2286C57.256 29.5132 57.8343 28.9323 58.5466 28.9323Z" fill="#010101"/>
<path d="M59.6547 36.2395C58.9419 36.2395 58.3641 36.8198 58.3641 37.5357C58.3641 38.2517 58.9419 38.832 59.6547 38.832C60.3675 38.832 60.9453 38.2517 60.9453 37.5357C60.9453 36.8198 60.3675 36.2395 59.6547 36.2395Z" fill="#4E5E62"/>
<path d="M59.657 35.1614C58.3536 35.1614 57.2925 36.2261 57.2925 37.5353C57.2925 38.8435 58.3536 39.9082 59.657 39.9082C60.9614 39.9082 62.0215 38.8435 62.0215 37.5353C62.0215 36.2261 60.9614 35.1614 59.657 35.1614ZM58.3664 37.5353C58.3664 36.8199 58.9447 36.237 59.657 36.237C60.3693 36.237 60.9486 36.8199 60.9486 37.5353C60.9486 38.2497 60.3693 38.8316 59.657 38.8316C58.9447 38.8316 58.3664 38.2497 58.3664 37.5353Z" fill="#010101"/>
<path d="M57.8285 43.2853C57.1157 43.2853 56.5379 43.8657 56.5379 44.5816C56.5379 45.2976 57.1157 45.8779 57.8285 45.8779C58.5413 45.8779 59.1191 45.2976 59.1191 44.5816C59.1191 43.8657 58.5413 43.2853 57.8285 43.2853Z" fill="#4E5E62"/>
<path d="M60.1934 44.5821C60.1934 43.274 59.1323 42.2092 57.8289 42.2092C56.5244 42.2092 55.4654 43.274 55.4663 44.5821C55.4663 45.8923 56.5254 46.958 57.8289 46.958C59.1323 46.958 60.1934 45.8933 60.1934 44.5821ZM56.5392 44.5811C56.5392 43.8667 57.1175 43.2858 57.8289 43.2858C58.5421 43.2858 59.1205 43.8667 59.1205 44.5811C59.1205 45.2966 58.5421 45.8784 57.8289 45.8784C57.1175 45.8784 56.5392 45.2966 56.5392 44.5811Z" fill="#010101"/>
<path d="M52.2797 49.4025C51.5669 49.4025 50.9891 49.9829 50.9891 50.6988C50.9891 51.4148 51.5669 51.9951 52.2797 51.9951C52.9925 51.9951 53.5703 51.4148 53.5703 50.6988C53.5703 49.9829 52.9925 49.4025 52.2797 49.4025Z" fill="#4E5E62"/>
<path d="M52.281 48.3244C50.9776 48.3244 49.9146 49.3902 49.9155 50.7003C49.9155 52.0085 50.9776 53.0752 52.281 53.0752C53.5835 53.0752 54.6445 52.0085 54.6445 50.7003C54.6455 49.3902 53.5835 48.3244 52.281 48.3244ZM52.281 51.9956C51.5687 51.9956 50.9894 51.4148 50.9894 50.6993C50.9894 49.9819 51.5687 49.402 52.281 49.402C52.9933 49.402 53.5716 49.9829 53.5716 50.6993C53.5716 51.4148 52.9933 51.9956 52.281 51.9956Z" fill="#010101"/>
<path d="M67.3809 19.3816L66.3228 15.8005L48.0984 15.8005L48.0984 19.3984L67.3809 19.3816Z" fill="#4E5E62"/>
<path d="M45.4695 58.6035L45.4746 58.6035L45.4746 58.0662L45.4695 58.0662L45.4695 58.6035Z" fill="#4E5E62"/>
<path d="M45.291 59.2541C45.291 59.0274 45.291 58.7939 45.2822 58.6306C45.1679 58.6544 45.0211 58.691 44.8703 58.7276C43.9836 58.9433 42.3334 59.3461 39.3808 59.3461C36.6311 59.3461 35.0666 59.0284 34.1316 58.8375C33.905 58.791 33.708 58.7524 33.575 58.7345C33.5602 58.9047 33.5602 59.1719 33.5602 59.4361C33.5612 62.0089 36.436 62.2227 39.3808 62.2227C42.3728 62.2227 45.291 61.9941 45.291 59.2541Z" fill="#4E5E62"/>
</svg>
