<svg width="231" height="141" viewBox="0 0 231 141" fill="none" xmlns="http://www.w3.org/2000/svg">
<path d="M222.095 55.1738C221.883 56.2099 221.838 56.9565 221.337 57.8254C221.916 58.1599 222.618 58.9512 222.573 59.6978C222.946 78.4507 197.303 88.7493 181.949 89.9254C177.425 90.4031 172.778 90.4239 168.009 89.9878C161.58 89.7518 154.617 88.4347 148.11 86.9953C150.374 81.7367 151.891 76.4334 151.915 71.0405C152.183 66.5613 151.249 62.1597 149.523 58.4598C148.989 57.3788 148.164 56.1306 147.63 55.0496C147.218 54.4255 147.095 53.9686 146.683 53.3445C148.711 54.5151 151.028 55.853 153.513 56.9011C160.052 60.2906 167.048 63.5575 173.8 65.9108C187.303 70.6172 200.239 72.2927 208.397 66.1893C211.852 63.5496 214.194 59.4945 215.466 53.2774C216.314 49.1327 222.943 51.029 222.095 55.1738Z" fill="#90542A"/>
<path d="M208.108 66.0241C207.272 67.4724 205.979 69.043 204.564 70.1568C198.69 75.6482 190.099 76.4811 182.589 76.7796C172.382 77.066 162.02 74.9456 152.494 71.377C152.205 71.2097 152.205 71.2097 151.915 71.0425C152.184 66.5633 151.249 62.1617 149.524 58.4619C148.989 57.3809 148.165 56.1327 147.63 55.0517C149.536 55.7654 151.441 56.4791 153.513 56.9032C160.053 60.2926 167.049 63.5596 173.801 65.9128C187.304 70.6193 200.24 72.2948 208.108 66.0241Z" fill="#74421E"/>
<path d="M215.962 45.0592C212.352 45.292 210.178 49.0575 210.288 52.2108C210.399 55.3642 211.79 59.6434 214.687 61.3157C216.425 62.319 218.375 62.2862 219.623 61.4621C220.826 61.3845 222.364 60.7276 223.2 59.2793C225.162 56.55 224.016 53.1846 222.824 50.5658C221.343 47.7797 219.116 44.9488 215.962 45.0592Z" fill="#804B24"/>
<path d="M215.954 55.1059C215.33 55.518 214.995 56.0973 215.24 57.0111C216.187 58.7162 219.25 60.0988 220.588 57.7816C220.755 57.492 220.923 57.2023 220.633 57.0351C220.511 56.5782 220.388 56.1213 219.809 55.7869C219.809 55.7869 219.809 55.7869 219.519 55.6196C218.695 54.3714 217.202 54.2818 215.954 55.1059Z" fill="#5E3114"/>
<path d="M213.576 49.8681C213.576 49.8681 213.409 50.1577 213.698 50.325C213.654 51.0715 213.776 51.5284 214.355 51.8628C215.224 52.3645 215.971 52.4093 216.885 52.1645C217.174 52.3317 217.341 52.0421 217.631 52.2093C218.545 51.9645 218.59 51.2179 218.467 50.761C218.467 50.761 218.467 50.761 218.634 50.4714C218.357 47.6077 214.212 46.7595 213.576 49.8681Z" fill="#5E3114"/>
<path d="M120.465 95.6895C120.465 99.4931 121.068 103.804 122.474 107.481C124.684 113.44 127.899 122.061 137.945 126.372C140.958 127.64 144.575 128.654 148.794 128.907C150 129.034 151.004 129.034 152.21 129.034C173.708 129.668 186.968 119.018 189.982 110.016C193.197 100.634 190.183 98.9859 190.183 98.9859C190.183 98.9859 188.576 107.481 177.927 116.102C176.119 117.623 174.11 118.765 171.9 119.652C167.078 121.554 161.653 122.315 156.63 122.061C150.401 121.681 144.575 119.906 141.36 117.116C140.757 116.482 140.155 115.848 139.552 115.215C135.132 109.382 136.337 100.634 136.94 92.7734C134.411 95.6895 127.438 96.7045 120.465 95.6895Z" fill="#E6B87C"/>
<path d="M131.11 106.973C133.521 112.425 136.535 118.638 144.572 121.807C151.604 124.597 161.248 124.597 168.079 121.554C169.284 121.047 170.49 120.413 171.695 119.652C166.873 121.554 161.449 122.315 156.426 122.061C150.197 121.681 144.371 119.906 141.156 117.116C140.553 116.482 139.95 115.848 139.348 115.215C134.928 109.382 136.133 100.634 136.736 92.7734C135.537 95.7994 129.341 96.0694 126.805 96.0694C129.341 101.775 129.101 102.156 131.11 106.973Z" fill="#F0CC98"/>
<path d="M120.469 46.1455C120.469 42.3419 121.072 38.0312 122.478 34.3544C124.688 28.3955 127.903 19.774 137.949 15.4633C140.962 14.1955 144.579 13.1812 148.798 12.9276C150.004 12.8008 151.008 12.8008 152.214 12.8008C173.712 12.1669 186.972 22.8169 189.986 31.8187C193.201 41.2008 190.187 42.849 190.187 42.849C190.187 42.849 188.58 34.3544 177.931 25.733C176.123 24.2115 174.114 23.0705 171.903 22.183C167.081 20.2812 161.657 19.5205 156.634 19.774C150.405 20.1544 144.579 21.9294 141.364 24.7187C140.761 25.3526 140.159 25.9865 139.556 26.6205C135.136 32.4526 136.341 41.2008 136.944 49.0615C134.415 46.1455 127.442 45.1304 120.469 46.1455Z" fill="#E6B87C"/>
<path d="M131.114 34.8615C133.525 29.4097 136.539 23.1972 144.575 20.0276C151.608 17.2383 161.252 17.2383 168.083 20.2812C169.288 20.7883 170.494 21.4222 171.699 22.183C166.877 20.2812 161.452 19.5205 156.43 19.774C150.201 20.1544 144.375 21.9294 141.16 24.7187C140.557 25.3526 139.954 25.9865 139.352 26.6205C134.931 32.4526 136.137 41.2008 136.74 49.0615C135.541 46.0356 129.345 45.7656 126.809 45.7656C129.345 40.0602 129.105 39.6794 131.114 34.8615Z" fill="#F0CC98"/>
<path d="M64.2063 140.775C69.3732 138.868 74.5401 137.438 79.435 136.246C82.1544 136.008 84.8738 135.531 87.5932 135.292C86.2335 135.769 85.1458 136.484 84.058 137.199C83.5141 137.438 84.058 138.153 84.6019 137.915C92.4882 135.292 100.918 133.862 109.077 131.955C117.507 130.286 124.305 128.379 127.841 126.472C138.446 120.274 144.973 111.215 147.42 101.441C155.035 82.1314 152.587 58.5308 147.964 39.6979C145.517 30.1623 139.262 20.8651 128.656 15.1438C125.121 13.2366 118.323 11.5679 109.892 9.89918C101.734 7.99206 93.304 6.56172 85.4177 3.93943C84.6019 3.70104 84.33 4.41621 84.8738 4.6546C85.9616 5.36977 87.3213 5.84655 88.4091 6.32333C85.6897 6.08494 82.9703 5.60816 80.2508 5.36977C75.084 4.17782 70.189 2.74748 65.0221 0.840358C64.4783 0.601968 64.2063 1.07875 64.7502 1.31714C66.9257 2.50909 69.1012 3.46265 71.5487 4.41621C59.5833 3.22426 49.5215 2.2707 45.1704 2.2707C43.8107 2.2707 42.9949 3.70104 44.0827 4.41621C47.6179 6.56172 51.4251 8.70723 54.9603 10.8527C55.7761 11.3295 59.0394 12.9982 60.3991 14.667C60.1272 14.667 59.8552 14.667 59.3114 14.667C53.3287 15.1438 47.346 15.3821 41.3632 15.6205C40.0035 15.6205 39.4597 17.0509 40.8194 17.5277C49.2495 21.1035 55.7761 24.6794 56.32 25.1561C45.7143 25.1561 42.7229 28.9704 34.0208 33.4998C32.9331 33.9766 33.7489 35.4069 34.8366 35.1685C40.8194 34.215 44.8985 37.314 50.6092 39.4595C41.9071 39.6979 31.0295 40.6515 23.6871 44.4657C22.8712 44.9425 23.4151 45.8961 24.2309 46.1345C28.8539 47.088 29.9417 47.8032 34.0208 50.1871C33.7489 50.1871 33.7489 50.4255 33.4769 50.4255C33.205 50.6639 32.9331 50.9023 32.6611 51.1407C25.8626 52.0942 19.0641 52.8094 11.9936 53.0478C10.3619 53.0478 9.54611 54.9549 11.1778 55.6701C14.9849 57.3388 18.7921 59.4843 22.8712 61.3914C16.3446 64.7289 13.3533 64.0137 7.37059 69.0199C2.74759 73.0725 1.93176 74.7413 0.572049 76.6484C0.300107 77.1252 0.572049 77.6019 1.11593 77.6019C8.18641 78.7939 15.5288 80.4626 22.8712 81.1778C19.0641 83.0849 15.2569 85.2304 11.1778 86.8992C9.54611 87.6143 10.3619 89.5214 11.9936 89.5214C19.0641 89.7598 25.8626 90.2366 32.6611 91.1902C32.9331 91.4286 33.205 91.667 33.4769 91.9054C33.7489 91.9054 33.7489 92.1437 33.7489 92.1437C29.6698 94.5276 25.0468 94.5276 20.9676 96.4348C20.1518 96.9115 19.8799 97.8651 20.9676 98.1035C29.1259 100.249 41.3632 102.395 50.0654 102.633C44.3546 104.778 40.0035 109.785 33.7489 109.546C32.3892 109.546 32.1172 110.977 33.205 111.215C42.451 115.029 44.8985 117.175 55.5042 116.936C54.9603 117.413 52.7848 119.32 42.9949 120.512C41.6352 120.751 41.6352 122.181 42.7229 122.419C48.1618 124.088 52.5128 126.949 58.4955 127.187C58.7675 127.187 59.0394 127.187 59.5833 127.187C58.2236 128.617 57.6797 130.525 56.8639 131.001C53.0567 133.147 52.2409 135.292 48.7057 137.438C47.6179 138.153 48.4337 139.583 49.7934 139.583C54.1445 139.345 58.7675 138.391 70.7329 137.199C68.2854 138.153 66.1099 139.107 63.9344 140.299C63.3905 140.537 63.9344 140.775 64.2063 140.775Z" fill="#663A1D"/>
<path d="M103.365 112.642C103.908 112.404 103.365 111.927 102.821 111.927C92.4869 115.742 83.2409 119.317 71.8194 119.317C63.6611 119.317 73.1791 116.218 75.8985 114.55C80.7934 111.689 85.6884 109.067 90.5833 105.968C90.8553 105.729 90.5833 105.252 90.3114 105.491C81.8812 109.543 73.451 114.311 65.5647 119.079C65.0208 119.317 65.2928 120.033 65.8367 120.033C78.6179 120.986 92.7589 119.556 103.365 112.642Z" fill="#5E3114"/>
<path d="M120.5 115.744C120.772 115.506 120.228 115.029 119.956 115.267C112.886 120.512 105.543 124.564 96.8412 126.948C91.1304 128.379 92.2182 128.379 96.2973 125.518C99.0167 123.611 101.736 121.465 104.184 119.32C104.456 119.081 103.912 118.843 103.912 119.081C99.8326 122.657 95.4815 125.756 90.5866 128.379C90.3146 128.617 90.5866 129.094 90.8585 129.094C101.736 127.187 112.614 122.896 120.5 115.744Z" fill="#5E3114"/>
<path d="M69.6468 95.7163C70.1907 95.7163 70.1907 95.0011 69.6468 94.7627C60.6727 92.6172 51.1548 92.8556 41.9088 93.8092C46.2598 91.1869 50.6109 89.2798 55.5058 87.1342C56.0497 86.8959 55.5058 86.1807 54.962 86.4191C54.69 86.6575 54.1461 86.8959 53.8742 87.1342C53.6022 86.6575 53.0584 86.6575 52.5145 87.1342C51.6987 87.3726 50.6109 87.611 49.7951 88.0878C48.4354 88.5646 47.3476 89.0414 45.9879 89.7565C42.9965 91.1869 40.5491 92.8556 37.8297 94.7627C37.0138 95.2395 37.8297 96.1931 38.6455 96.1931C49.2512 94.5243 59.313 95.0011 69.6468 95.7163Z" fill="#5E3114"/>
<path d="M109.622 25.8688C110.166 26.1072 109.622 26.584 109.078 26.584C99.0167 22.5314 89.4987 18.9555 78.0772 18.9555C69.9189 18.9555 79.4369 22.0546 82.1563 23.7233C87.0513 26.584 91.9462 29.2063 96.8411 32.3054C97.1131 32.5438 96.8411 33.0205 96.5692 32.7821C88.139 28.7295 79.7088 23.9617 71.8225 19.1939C71.2787 18.9555 71.5506 18.2403 72.0945 18.2403C84.8757 17.2868 99.0167 18.7171 109.622 25.8688Z" fill="#5E3114"/>
<path d="M133.281 27.7776C133.553 28.016 133.009 28.4927 132.737 28.2544C125.667 23.0098 118.325 18.9571 109.622 16.5732C103.912 15.1429 104.999 15.1429 109.079 18.0036C111.798 19.9107 114.517 22.0562 116.965 24.2017C117.237 24.4401 116.693 24.6785 116.693 24.4401C112.614 20.8643 108.263 17.7652 103.368 15.1429C103.096 14.9045 103.368 14.4277 103.64 14.4277C114.517 16.3349 125.123 20.6259 133.281 27.7776Z" fill="#5E3114"/>
<path d="M118.594 59.2434C118.866 59.4818 118.322 59.9586 118.05 59.7202C110.979 54.4756 103.637 50.423 94.935 48.0391C89.2242 46.6087 90.312 46.6087 94.3911 49.4694C97.1105 51.3765 99.8299 53.522 102.277 55.6675C102.549 55.9059 102.005 56.1443 102.005 55.9059C97.9263 52.3301 93.5753 49.231 88.6803 46.6087C88.4084 46.3703 88.6803 45.8936 88.9523 45.8936C99.8299 47.8007 110.708 52.0917 118.594 59.2434Z" fill="#5E3114"/>
<path d="M87.8693 33.0279C88.1413 33.0279 88.1413 33.5047 87.8693 33.5047C83.5183 33.5047 79.4391 33.0279 75.0881 33.0279C72.9126 33.0279 70.737 32.7895 68.5615 33.0279C67.2018 33.0279 63.6666 32.5511 67.4737 33.2663C74.5442 34.4582 82.1586 38.0341 88.1413 41.3715C88.4132 41.6099 88.1413 42.0867 87.8693 41.8483C87.3254 41.6099 86.7816 41.3715 86.5096 41.1331C86.2377 41.6099 85.6938 41.3715 84.878 40.6564C83.7902 40.1796 82.7024 39.7028 81.8866 39.226C79.983 38.2725 77.8075 37.5573 75.632 36.8421C71.8248 35.4118 68.0176 34.4582 64.2104 33.2663C63.6666 33.0279 63.9385 32.5511 64.2104 32.5511C72.0967 31.8359 79.983 31.5975 87.8693 33.0279Z" fill="#5E3114"/>
<path d="M143.889 53.7664C144.161 54.0048 143.617 54.2432 143.617 54.0048C140.353 51.6209 137.09 49.237 133.555 46.8531C131.923 45.6611 130.292 44.4692 128.388 43.5156C127.3 42.8004 124.853 40.6549 127.3 43.0388C132.195 47.5682 136.002 54.4816 138.45 60.4413C138.722 60.9181 137.906 61.1565 137.906 60.6797C137.634 60.2029 137.362 59.7261 137.362 59.2494C136.818 59.4877 136.546 59.011 136.546 58.0574C136.002 57.1038 135.459 56.1503 134.915 55.4351C133.827 53.7664 132.739 51.8593 131.651 50.1905C129.476 47.0915 127.3 44.2308 124.853 41.3701C124.581 40.8933 125.125 40.6549 125.397 40.8933C131.651 44.7076 138.45 48.5218 143.889 53.7664Z" fill="#5E3114"/>
<path d="M60.3976 56.1474C60.6696 56.3858 61.2135 55.909 60.9415 55.6706C56.3185 51.8563 51.1516 48.9957 45.1689 46.8502C48.7041 46.6118 51.9674 46.8501 55.7746 47.0885C56.3185 47.0885 56.3185 46.6118 55.7746 46.6118C55.5027 46.6118 55.2307 46.6118 54.9588 46.6118C54.9588 46.3734 54.6869 46.135 54.143 46.135C53.5991 45.8966 52.7833 45.8966 52.2394 45.8966C51.4236 45.8966 50.3358 45.6582 49.52 45.6582C47.3444 45.6582 45.1689 45.8966 42.9934 46.135C42.4495 46.135 42.4495 47.0885 42.9934 47.0885C49.248 49.234 54.6869 52.3331 60.3976 56.1474Z" fill="#5E3114"/>
<path d="M90.0413 68.5393C90.5852 68.5393 90.5852 69.2545 90.0413 69.4928C81.0672 71.6384 71.5493 71.4 62.3033 70.4464C66.6544 73.0687 71.0054 74.9758 75.9004 77.1213C76.4442 77.3597 75.9004 78.0749 75.3565 77.8365C75.0845 77.5981 74.5407 77.3597 74.2687 77.1213C73.9968 77.5981 73.4529 77.5981 72.909 77.1213C72.0932 76.8829 71.0054 76.6445 70.1896 76.1678C68.8299 75.691 67.7421 75.2142 66.3824 74.499C63.3911 73.0687 60.9436 71.4 58.2242 69.4928C57.4084 69.0161 58.2242 68.0625 59.04 68.0625C69.6457 69.9696 79.7075 69.4928 90.0413 68.5393Z" fill="#5E3114"/>
<path d="M110.711 82.6101C110.983 82.3717 110.439 81.8949 110.167 82.1333C103.097 87.3779 95.7543 91.4305 87.0522 93.8144C81.3414 95.2448 82.4292 95.2448 86.5083 92.3841C89.2277 90.477 91.9471 88.3315 94.3946 86.186C94.6665 85.9476 94.1226 85.7092 94.1226 85.9476C90.0435 89.5234 85.6924 92.6225 80.7975 95.2448C80.5256 95.4832 80.7975 95.96 81.0694 95.96C91.9471 94.0528 102.553 89.7618 110.711 82.6101Z" fill="#5E3114"/>
<path d="M136.27 101.444C136.542 101.444 136.27 100.967 135.998 100.967C131.919 101.921 127.84 102.874 123.489 103.828C121.313 104.305 119.41 104.781 117.234 105.02C115.875 105.258 112.611 106.212 116.147 105.02C122.673 102.636 129.472 97.6296 134.367 93.3386C134.639 93.1002 134.095 92.6235 133.823 92.8618C133.279 93.1002 133.007 93.577 132.463 93.8154C132.191 93.3386 131.647 93.8154 131.103 94.769C130.287 95.4841 129.2 95.9609 128.384 96.6761C126.48 97.868 124.849 99.06 122.945 100.252C119.682 102.159 116.147 104.066 112.611 105.735C112.067 105.973 112.339 106.45 112.883 106.45C120.77 105.258 128.656 104.066 136.27 101.444Z" fill="#5E3114"/>
<path d="M47.3457 78.5533C47.8895 78.7917 48.1615 78.0765 47.6176 77.8381C39.4594 73.7855 30.4853 71.64 21.2393 70.6864C26.1342 69.0177 31.0292 68.3025 36.468 67.3489C37.0119 67.3489 36.7399 66.3954 36.1961 66.3954C35.6522 66.3954 35.3802 66.6338 34.8364 66.6338C34.5644 66.157 34.0205 65.9186 33.4767 66.157C32.3889 66.157 31.5731 66.3954 30.4853 66.3954C29.1256 66.6338 27.7659 66.8722 26.4062 67.1106C23.1429 67.8257 20.1515 68.7793 17.1602 70.2096C16.3444 70.6864 16.8882 71.64 17.7041 71.64C28.0378 72.5935 37.5558 75.4542 47.3457 78.5533Z" fill="#5E3114"/>
<path d="M142.54 108.915C145.4 110.513 145.726 107.201 146.353 106.811C155.464 101.272 162.202 91.5344 163.106 82.8619C166.585 76.1004 165.109 67.964 162.987 61.7167C160.045 53.4124 154.49 46.1949 146.375 40.3012C144.642 38.9481 140.669 40.3411 141.489 42.3981C141.649 43.1092 141.863 44.0574 142.023 44.7686C135.588 39.9909 127.668 36.5443 118.494 33.8781C115.847 33.2289 114.287 35.8219 115.628 37.0145C117.468 38.8417 119.255 40.4318 121.436 42.1824C112.689 41.4127 103.869 41.9048 94.3496 44.049C91.2898 44.7382 90.9106 47.8126 93.844 48.1482C99.0309 48.9725 102.911 50.3402 106.845 51.945C97.2384 52.1162 86.286 55.8285 78.7673 60.5111C76.5476 61.7583 78.0481 63.6621 80.1948 63.6767C90.3016 64.1401 96.4158 67.4955 103.657 71.0952C95.3904 72.459 87.0511 75.0846 78.3914 76.2879C75.9582 76.5869 76.0987 78.797 77.3323 79.5155C84.2866 83.4289 92.0473 86.1643 100.721 88.1959C100.095 88.5861 99.8614 89.1368 99.6282 89.6875C98.2683 89.9938 96.5684 90.3767 95.1551 90.4459C91.9885 90.661 90.8225 93.4145 92.8962 94.691C100.584 98.6882 108.971 101.033 118.451 101.887C116.858 102.744 115.605 103.525 113.619 104.221C111.632 104.918 111.326 106.73 112.613 107.686C119.708 113.809 132.194 113.736 142.54 108.915Z" fill="#A0683E"/>
<path d="M133.918 63.1225C123.112 64.3112 114.865 64.176 106.731 59.7812C106.337 59.6207 106.051 59.9344 106.104 60.1714C112.485 64.7121 124.719 66.689 133.918 63.1225Z" fill="#804B24"/>
<path d="M122.805 49.8429C118.338 45.8676 110.11 44.2335 102.578 45.6812C102.238 45.7578 102.291 45.9948 102.631 45.9183C110.431 45.6559 116.744 46.7246 122.519 50.1565C122.572 50.3936 122.859 50.08 122.805 49.8429Z" fill="#804B24"/>
<path d="M134.995 72.2515C134.941 72.0144 134.888 71.7774 134.601 72.091C130.555 74.7459 127.296 77.7218 122.357 79.5816C117.131 81.7551 111.584 82.5062 105.931 82.7833C105.591 82.8598 105.358 83.4105 105.698 83.334C115.231 84.4246 131.05 80.1143 134.995 72.2515Z" fill="#804B24"/>
<path d="M147.733 74.8687C147.68 74.6316 147.34 74.7082 147.393 74.9453C146.28 77.9358 145.794 80.536 143.609 83.5192C141.423 86.5024 138.397 88.9276 134.584 91.0318C134.297 91.3454 134.744 91.7429 135.084 91.6664C142.243 88.5593 150.374 80.2517 147.733 74.8687Z" fill="#804B24"/>
<path d="M159.58 84.6541C161.48 81.9846 160.785 78.9029 157.925 77.3054C157.532 77.1449 157.585 77.382 157.638 77.619C158.852 79.8364 158.993 82.0465 158.847 84.5702C158.56 84.8839 159.294 84.9678 159.58 84.6541Z" fill="#804B24"/>
<path d="M150.266 49.6372C149.872 49.4768 149.246 49.867 149.299 50.104C150.207 54.134 150.668 57.7664 148.016 61.8509C152.581 58.3317 154.18 52.7409 150.266 49.6372Z" fill="#804B24"/>
<path d="M137.055 57.5915C143.02 50.7681 139.971 41.9898 129.65 40.5781C129.31 40.6547 129.024 40.9683 129.364 40.8918C137.285 44.3384 140.033 50.1955 135.928 57.3471C135.695 57.8978 136.428 57.9817 137.055 57.5915Z" fill="#804B24"/>
<path d="M134.813 97.8993C135.31 97.7872 135.193 97.267 134.696 97.379C130.024 97.5203 125.39 97.835 121.059 97.1706C116.479 96.5621 112.987 94.9799 108.787 93.7391C108.499 93.6217 108.29 93.8512 108.329 94.0246C113.598 98.8513 126.225 100.38 134.813 97.8993Z" fill="#804B24"/>
</svg>
