<svg xmlns="http://www.w3.org/2000/svg" width="128" height="128"><g fill="#fbdd56"><path d="M115.92 49.223c4.278 4.278.21 15.282-5.696 21.188-4.278 4.278-11.214 4.278-15.491 0-4.278-4.277-4.278-11.213 0-15.49 5.906-5.907 16.91-9.975 21.188-5.698zM12.079 49.223c-4.278 4.278-.21 15.282 5.697 21.188 4.278 4.278 11.213 4.278 15.49 0 4.278-4.277 4.278-11.213 0-15.49-5.905-5.907-16.91-9.975-21.187-5.698z"/></g><path d="M115.92 49.223c4.279 4.278.21 15.282-5.696 21.188-4.278 4.278-11.214 4.278-15.491 0-4.278-4.277-4.278-11.213 0-15.49 5.906-5.907 16.91-9.975 21.188-5.698zM12.079 49.223c-4.278 4.278-.21 15.282 5.697 21.188 4.278 4.278 11.213 4.278 15.49 0 4.278-4.277 4.278-11.213 0-15.49-5.905-5.907-16.91-9.975-21.187-5.698z" opacity=".1"/><path d="M64 7.812c-23.39 0-41.45 20.558-38.439 43.752l3.867 29.781C31.684 98.718 46.48 111.72 64 111.72c17.518 0 32.316-13 34.572-30.374l3.867-29.781C105.45 28.37 87.389 7.812 64 7.812z" fill="#fbdd56"/><g stroke="#1c1c1c" stroke-width="9.112" fill="#1c1c1c"><path d="M45.123 41.152c-.909 0-1.646-.737-1.646-1.646V36.32a1.646 1.646 0 1 1 3.292 0v3.186c0 .91-.737 1.646-1.646 1.646zM82.877 41.152c-.91 0-1.646-.737-1.646-1.646V36.32a1.646 1.646 0 1 1 3.292 0v3.186c0 .91-.737 1.646-1.646 1.646z" stroke-width="1.99999288"/></g><path d="M56.462 8.542c-19.585 3.847-33.58 22.39-30.9 43.022l3.866 29.781C31.684 98.718 46.48 111.72 64 111.72c2.706 0 5.346-.311 7.886-.9C37.6 85.15 26.153 30.23 56.462 8.542z" opacity=".05"/><path d="M113.707 60.015l-16.033 8.431a7.099 7.099 0 0 1-6.48.066l-22.211-11.11a11.138 11.138 0 0 0-9.966 0l-22.211 11.11a7.099 7.099 0 0 1-6.48-.066l-16.033-8.431c-2.945-1.548-6.48.586-6.481 3.913V64c0 31.032 25.156 56.188 56.188 56.188 31.032 0 56.188-25.156 56.188-56.188v-.072c0-3.327-3.536-5.461-6.48-3.913z" fill="#eaeaea"/><path d="M43.14 65.343l-6.334 3.169a7.099 7.099 0 0 1-6.48-.066l-16.033-8.431c-2.945-1.548-6.48.586-6.481 3.913V64c0 31.032 25.156 56.188 56.188 56.188 11.331 0 21.877-3.357 30.703-9.127-32.59 4.945-47.016-17.433-51.562-45.718z" opacity=".1"/><path d="M62.825 36.198l-5.045 6.871a2.504 2.504 0 0 0 .449 3.433l3.5 2.817a3.623 3.623 0 0 0 4.543 0l3.5-2.817a2.505 2.505 0 0 0 .448-3.433l-5.045-6.871a1.457 1.457 0 0 0-2.35 0z" fill="#c27c59"/><path d="M63.48 35.7c-.25.095-.48.26-.655.498l-5.045 6.871a2.504 2.504 0 0 0 .449 3.433l3.499 2.817c.99.797 2.295.999 3.445.605-3.922-1.386-2.83-9.818-1.692-14.225z" opacity=".1"/></svg>