<svg width="129" height="129" viewBox="0 0 129 129" fill="none" xmlns="http://www.w3.org/2000/svg">
<path d="M64.7255 122.847C96.7271 122.847 122.67 96.9051 122.67 64.9035C122.67 32.9019 96.7271 6.95947 64.7255 6.95947C32.7239 6.95947 6.78152 32.9019 6.78152 64.9035C6.78152 96.9051 32.7239 122.847 64.7255 122.847Z" stroke="#0094FF" stroke-width="8" stroke-linejoin="round"/>
<path d="M90.7815 59.9033C91.8861 59.9033 92.7815 59.0079 92.7815 57.9033C92.7815 56.7988 91.8861 55.9033 90.7815 55.9033C89.677 55.9033 88.7815 56.7988 88.7815 57.9033C88.7815 59.0079 89.677 59.9033 90.7815 59.9033Z" fill="#0094FF"/>
<path d="M37.7815 59.9033C38.8861 59.9033 39.7815 59.0079 39.7815 57.9033C39.7815 56.7988 38.8861 55.9033 37.7815 55.9033C36.677 55.9033 35.7815 56.7988 35.7815 57.9033C35.7815 59.0079 36.677 59.9033 37.7815 59.9033Z" fill="#0094FF"/>
<path d="M91.7815 72.9033C100.618 72.9033 107.782 65.7399 107.782 56.9033C107.782 48.0668 100.618 40.9033 91.7815 40.9033C82.945 40.9033 75.7815 48.0668 75.7815 56.9033C75.7815 65.7399 82.945 72.9033 91.7815 72.9033Z" stroke="#0094FF" stroke-width="8"/>
<path d="M110.782 40.9033C117.409 40.9033 122.782 35.5307 122.782 28.9033C122.782 22.2759 113.407 15.4033 110.782 1.90332C107.407 15.0283 98.7815 22.2759 98.7815 28.9033C98.7815 35.5307 104.154 40.9033 110.782 40.9033Z" fill="#94D2FF"/>
<path d="M14.002 91.4033C20.6294 91.4033 26.002 86.0307 26.002 79.4033C26.002 72.7759 16.627 65.9033 14.002 52.4033C10.627 65.5283 2.00201 72.7759 2.00201 79.4033C2.00201 86.0307 7.3746 91.4033 14.002 91.4033Z" fill="#94D2FF"/>
<path d="M113.782 111.903C120.409 111.903 125.782 106.531 125.782 99.9033C125.782 93.2759 116.407 86.4033 113.782 72.9033C110.407 86.0283 101.782 93.2759 101.782 99.9033C101.782 106.531 107.154 111.903 113.782 111.903Z" fill="#94D2FF"/>
<path d="M83.3552 97.9033H45.7815C45.7815 91.4033 51.6815 79.9033 65.2815 79.9033C78.8815 79.9033 83.3306 92.2367 83.3552 97.9033Z" fill="#0094FF"/>
<path d="M37.7815 71.9033C46.0658 71.9033 52.7815 65.1876 52.7815 56.9033C52.7815 48.619 46.0658 41.9033 37.7815 41.9033C29.4973 41.9033 22.7815 48.619 22.7815 56.9033C22.7815 65.1876 29.4973 71.9033 37.7815 71.9033Z" stroke="#0094FF" stroke-width="8"/>
</svg>
