<svg width="129" height="129" viewBox="0 0 129 129" fill="none" xmlns="http://www.w3.org/2000/svg">
<mask id="mask0" mask-type="alpha" maskUnits="userSpaceOnUse" x="0" y="0" width="129" height="129">
<rect x="0.480469" y="0.383301" width="128" height="128" fill="#C4C4C4"/>
</mask>
<g mask="url(#mask0)">
<path d="M17.0379 83.9972C11.8912 83.9972 8.24717 83.49 6.10584 82.4757C3.96451 81.4614 2.59331 79.6958 1.99224 77.1788C1.42873 74.6242 1.14697 70.2852 1.14697 64.1617C1.14697 58.0383 1.42873 53.7181 1.99224 51.2011C2.59331 48.6465 3.96451 46.8621 6.10584 45.8477C8.24717 44.8334 11.8912 44.3263 17.0379 44.3263C22.147 44.3263 25.7722 44.8334 27.9136 45.8477C30.0925 46.8621 31.4637 48.6465 32.0272 51.2011C32.6282 53.7181 32.9288 58.0383 32.9288 64.1617C32.9288 70.2852 32.6282 74.6242 32.0272 77.1788C31.4637 79.6958 30.0925 81.4614 27.9136 82.4757C25.7722 83.49 22.147 83.9972 17.0379 83.9972ZM17.0379 79.4891C20.8697 79.4891 23.4619 79.2449 24.8143 78.7566C26.1667 78.2682 27.0495 77.0473 27.4628 75.0938C27.876 73.1403 28.0826 69.4963 28.0826 64.1617C28.0826 58.8272 27.876 55.1832 27.4628 53.2297C27.0495 51.2762 26.1667 50.0553 24.8143 49.5669C23.4619 49.0785 20.8697 48.8343 17.0379 48.8343C13.206 48.8343 10.5951 49.0785 9.20513 49.5669C7.85271 50.0553 6.96988 51.2762 6.55664 53.2297C6.14341 55.1832 5.93679 58.8272 5.93679 64.1617C5.93679 69.4963 6.14341 73.1403 6.55664 75.0938C6.96988 77.0473 7.85271 78.2682 9.20513 78.7566C10.5951 79.2449 13.206 79.4891 17.0379 79.4891ZM53.5404 83.9972C49.5207 83.9972 46.6468 83.6027 44.9187 82.8138C43.1906 81.9873 42.0824 80.6161 41.594 78.7002C41.1432 76.7467 40.9178 73.5723 40.9178 69.1769C40.9178 64.7816 41.1432 61.626 41.594 59.71C42.0824 57.7565 43.1906 56.3853 44.9187 55.5964C46.6468 54.7699 49.5207 54.3567 53.5404 54.3567C57.5225 54.3567 60.3776 54.7699 62.1057 55.5964C63.8338 56.3853 64.9232 57.7565 65.374 59.71C65.8624 61.626 66.1066 64.7816 66.1066 69.1769C66.1066 73.5723 65.8624 76.7467 65.374 78.7002C64.9232 80.6161 63.8338 81.9873 62.1057 82.8138C60.3776 83.6027 57.5225 83.9972 53.5404 83.9972ZM53.5404 79.8272C56.2828 79.8272 58.1799 79.5831 59.2318 79.0947C60.2837 78.6063 60.9223 77.7235 61.1477 76.4462C61.4107 75.1313 61.5422 72.7083 61.5422 69.1769C61.5422 65.6456 61.4107 63.2413 61.1477 61.9641C60.9223 60.6492 60.2837 59.7476 59.2318 59.2592C58.1799 58.7708 56.2828 58.5267 53.5404 58.5267C50.798 58.5267 48.8821 58.7708 47.7926 59.2592C46.7407 59.7476 46.0833 60.6492 45.8203 61.9641C45.5949 63.2413 45.4822 65.6456 45.4822 69.1769C45.4822 72.7083 45.5949 75.1313 45.8203 76.4462C46.0833 77.7235 46.7407 78.6063 47.7926 79.0947C48.8821 79.5831 50.798 79.8272 53.5404 79.8272ZM77.1034 58.9775H71.2429V54.8075H77.1034V50.5249C77.1034 47.82 77.479 45.8477 78.2304 44.608C78.9817 43.3683 80.1463 42.5794 81.7241 42.2413C83.3019 41.9032 85.7626 41.7341 89.1061 41.7341V45.5096C86.9272 45.5096 85.3306 45.6223 84.3162 45.8477C83.3019 46.0356 82.6069 46.4113 82.2313 46.9748C81.8556 47.5383 81.6678 48.4399 81.6678 49.6796V54.8075H89.1061V58.9775H81.6678V83.5464H77.1034V58.9775ZM98.8023 61.795V47.3129H93.3927V44.7771H106.917V47.3129H101.394V61.795H98.8023ZM109.903 61.795V44.7771H113.172L118.976 57.3996H119.258L124.949 44.7771H128.161V61.795H125.682V49.2288H125.456L119.878 61.795H118.187L112.552 49.2851H112.327V61.795H109.903Z" fill="white"/>
</g>
</svg>
