<svg width="128" height="129" viewBox="0 0 128 129" fill="none" xmlns="http://www.w3.org/2000/svg">
<mask id="mask0_1585_2159" style="mask-type:alpha" maskUnits="userSpaceOnUse" x="0" y="0" width="128" height="129">
<rect y="0.827148" width="128" height="128" fill="#C4C4C4"/>
</mask>
<g mask="url(#mask0_1585_2159)">
<path d="M46.5645 103.074L31.8534 92.4275L31.0189 92.9596L19.7535 100.143L28.832 114.381L24.3467 117.241L1.46767 81.3584L17.9484 70.8499C20.7995 69.032 23.2435 68.1095 25.2802 68.0824C27.3169 68.0553 29.049 68.6626 30.4765 69.9042C31.8818 71.1111 33.3382 72.8967 34.8457 75.261C36.442 77.7644 37.4514 80.1529 37.8741 82.4265C38.2967 84.7001 37.5887 86.8877 35.7499 88.9894L51.3627 100.015L46.5645 103.074ZM27.4107 89.8317C29.6359 88.4129 31.1149 87.1275 31.8476 85.9757C32.5929 84.7669 32.8054 83.6044 32.4849 82.4882C32.1993 81.3499 31.4911 79.8942 30.3605 78.1209C29.2298 76.3477 28.2261 75.0803 27.3494 74.3189C26.4727 73.5575 25.3749 73.2549 24.0562 73.411C22.7376 73.5671 21.0177 74.3214 18.8968 75.6737L8.41377 82.3579L17.2927 96.2831L27.4107 89.8317ZM62.6667 93.394C59.607 95.3449 57.027 96.2074 54.9268 95.9816C52.8266 95.7558 50.8454 94.1825 48.9831 91.2619C47.6751 89.2105 46.9098 87.4733 46.6871 86.0503C46.4423 84.5925 46.7384 83.2544 47.5754 82.0361C48.3903 80.7829 49.8755 79.4691 52.0313 78.0946C54.1522 76.7422 57.517 74.6946 62.1258 71.9516L61.0616 70.2826C59.6871 68.1269 58.5141 66.7475 57.5426 66.1443C56.5837 65.4841 55.4878 65.376 54.2547 65.8199C53.0343 66.2068 51.155 67.2095 48.6168 68.8278C47.3999 69.6038 46.0013 70.5934 44.421 71.7966C42.8186 72.965 41.6271 73.8959 40.8465 74.5892L38.6517 71.147C41.0882 68.9089 44.1318 66.6259 47.7826 64.2981C50.9466 62.2806 53.4931 61.0971 55.422 60.7475C57.3857 60.3757 59.0828 60.7363 60.5133 61.8293C61.9438 62.9223 63.5347 64.8422 65.2861 67.589L75.9608 84.3306L72.1535 86.7581L69.5506 83.1361L69.2377 83.3356C69.5716 85.4701 69.0989 87.3365 67.8195 88.9348C66.5748 90.5109 64.8572 91.9973 62.6667 93.394ZM62.0554 88.8687C63.7939 87.7603 65.1023 86.7059 65.9806 85.7057C66.8716 84.6486 67.2501 83.4781 67.1161 82.1942C66.9816 80.3726 66.205 78.3492 64.7861 76.1239L63.9215 74.7679L55.0553 80.4212C53.5949 81.3523 52.5947 82.1612 52.0545 82.848C51.5269 83.4779 51.3235 84.1944 51.4444 84.9976C51.5653 85.8008 52.0581 86.8804 52.9227 88.2364C53.7651 89.5577 54.5423 90.4315 55.2543 90.8578C56.0011 91.2619 56.8693 91.3197 57.8589 91.031C58.8834 90.7201 60.2822 89.9994 62.0554 88.8687ZM60.7506 56.6163L65.1316 53.8229L85.3185 71.1015L85.6836 70.8687L78.4831 45.3098L82.499 42.7492L102.686 60.0278L103.051 59.795L95.8505 34.236L100.127 31.5092L108.586 63.5283L103.683 66.6543L85.0254 50.9683L84.6603 51.201L91.1141 74.6686L86.2116 77.7945L60.7506 56.6163ZM106.145 27.6722L109.612 32.6503L109.925 32.4507C109.221 29.9655 109.327 27.8686 110.242 26.1599C111.193 24.4291 112.868 22.7988 115.267 21.2691L117.927 25.4415C115.563 26.949 113.981 28.4954 113.182 30.0806C112.361 31.631 112.178 33.3375 112.632 35.1999C113.121 37.0401 114.196 39.2641 115.859 41.8718L123.574 53.9716L119.35 56.6652L102.39 30.0665L106.145 27.6722Z" fill="white"/>
</g>
</svg>
