<svg width="129" height="133" viewBox="0 0 129 133" fill="none" xmlns="http://www.w3.org/2000/svg">
<path d="M64.3164 120.059C96.3489 120.059 122.316 94.0911 122.316 62.0586C122.316 30.0261 96.3489 4.05859 64.3164 4.05859C32.2839 4.05859 6.31641 30.0261 6.31641 62.0586C6.31641 94.0911 32.2839 120.059 64.3164 120.059Z" stroke="#75FA4C" stroke-width="8" stroke-linejoin="round"/>
<path d="M42.3164 50.0586C47.287 50.0586 51.3164 46.0292 51.3164 41.0586C51.3164 36.088 47.287 32.0586 42.3164 32.0586C37.3458 32.0586 33.3164 36.088 33.3164 41.0586C33.3164 46.0292 37.3458 50.0586 42.3164 50.0586Z" fill="#75FA56"/>
<path d="M17.8164 27.0586C24.1677 27.0586 29.3164 21.9099 29.3164 15.5586C29.3164 9.20732 24.1677 4.05859 17.8164 4.05859C11.4651 4.05859 6.31641 9.20732 6.31641 15.5586C6.31641 21.9099 11.4651 27.0586 17.8164 27.0586Z" fill="#75FA56"/>
<path d="M15.3164 39.0586C20.287 39.0586 24.3164 35.0292 24.3164 30.0586C24.3164 25.088 20.287 21.0586 15.3164 21.0586C10.3458 21.0586 6.31641 25.088 6.31641 30.0586C6.31641 35.0292 10.3458 39.0586 15.3164 39.0586Z" fill="#75FA56"/>
<path d="M23.316 33.0586C26.6295 33.0586 29.3157 30.5962 29.3157 27.5586C29.3157 24.521 26.6295 22.0586 23.316 22.0586C20.0025 22.0586 17.3164 24.521 17.3164 27.5586C17.3164 30.5962 20.0025 33.0586 23.316 33.0586Z" fill="#75FA56"/>
<path d="M29.8161 27.0586C32.8535 27.0586 35.3157 24.3723 35.3157 21.0586C35.3157 17.7449 32.8535 15.0586 29.8161 15.0586C26.7787 15.0586 24.3164 17.7449 24.3164 21.0586C24.3164 24.3723 26.7787 27.0586 29.8161 27.0586Z" fill="#75FA56"/>
<path d="M33.3164 22.0586C38.287 22.0586 42.3164 18.0292 42.3164 13.0586C42.3164 8.08803 38.287 4.05859 33.3164 4.05859C28.3458 4.05859 24.3164 8.08803 24.3164 13.0586C24.3164 18.0292 28.3458 22.0586 33.3164 22.0586Z" fill="#75FA56"/>
<path d="M110.816 27.0586C104.465 27.0586 99.3159 21.9099 99.3159 15.5586C99.3159 9.20732 104.465 4.05859 110.816 4.05859C117.168 4.05859 122.316 9.20732 122.316 15.5586C122.316 21.9099 117.168 27.0586 110.816 27.0586Z" fill="#75FA56"/>
<path d="M113.316 39.0586C108.346 39.0586 104.316 35.0292 104.316 30.0586C104.316 25.088 108.346 21.0586 113.316 21.0586C118.287 21.0586 122.316 25.088 122.316 30.0586C122.316 35.0292 118.287 39.0586 113.316 39.0586Z" fill="#75FA56"/>
<path d="M105.316 33.0586C102.002 33.0586 99.3161 30.5962 99.3161 27.5586C99.3161 24.521 102.002 22.0586 105.316 22.0586C108.63 22.0586 111.316 24.521 111.316 27.5586C111.316 30.5962 108.63 33.0586 105.316 33.0586Z" fill="#75FA56"/>
<path d="M98.8163 27.0586C95.7787 27.0586 93.3162 24.3723 93.3162 21.0586C93.3162 17.7449 95.7787 15.0586 98.8163 15.0586C101.854 15.0586 104.316 17.7449 104.316 21.0586C104.316 24.3723 101.854 27.0586 98.8163 27.0586Z" fill="#75FA56"/>
<path d="M95.3162 22.0586C90.3455 22.0586 86.316 18.0292 86.316 13.0586C86.316 8.08803 90.3455 4.05859 95.3162 4.05859C100.287 4.05859 104.316 8.08803 104.316 13.0586C104.316 18.0292 100.287 22.0586 95.3162 22.0586Z" fill="#75FA56"/>
<path d="M86.3164 50.0586C91.287 50.0586 95.3164 46.0292 95.3164 41.0586C95.3164 36.088 91.287 32.0586 86.3164 32.0586C81.3458 32.0586 77.3164 36.088 77.3164 41.0586C77.3164 46.0292 81.3458 50.0586 86.3164 50.0586Z" fill="#75FA56"/>
<path d="M64.3164 79.0586C70.3915 79.0586 75.3164 74.1337 75.3164 68.0586C75.3164 61.9835 70.3915 57.0586 64.3164 57.0586C58.2413 57.0586 53.3164 61.9835 53.3164 68.0586C53.3164 74.1337 58.2413 79.0586 64.3164 79.0586Z" fill="#75FA56"/>
<path d="M29.3164 85.0586C36.4961 85.0586 42.3164 79.2383 42.3164 72.0586C42.3164 64.8789 36.4961 59.0586 29.3164 59.0586C22.1367 59.0586 16.3164 64.8789 16.3164 72.0586C16.3164 79.2383 22.1367 85.0586 29.3164 85.0586Z" fill="#75FA56"/>
<path d="M98.3164 85.0586C105.496 85.0586 111.316 79.2383 111.316 72.0586C111.316 64.8789 105.496 59.0586 98.3164 59.0586C91.1367 59.0586 85.3164 64.8789 85.3164 72.0586C85.3164 79.2383 91.1367 85.0586 98.3164 85.0586Z" fill="#75FA56"/>
<path d="M32.3164 81.0586C50.8164 90.9115 75.8164 90.9115 97.3164 81.5512C81.3164 113.573 44.3164 109.632 32.3164 81.0586Z" fill="#75FA56"/>
</svg>
