<svg width="128" height="129" viewBox="0 0 128 129" fill="none" xmlns="http://www.w3.org/2000/svg">
<path d="M100.705 37.6081C101.093 38.662 101.993 39.4453 102.24 40.5921C102.51 41.8559 103.657 41.0645 104.67 41.4158C102.631 42.6594 100.838 43.782 99.0134 44.852C98.2462 45.3002 98.0282 45.6838 98.5288 46.5721C104.053 56.3882 104.444 66.5595 100.503 77.0014C97.1964 84.2615 92.2298 90.0154 85.1191 93.7787C72.6946 100.356 58.0453 98.9108 47.1552 89.9387C45.8389 88.8525 45.2372 88.9979 44.1834 90.1648C40.5372 94.2067 36.7214 98.0992 33.0994 102.165C31.9446 103.461 31.5126 103.167 30.701 101.919C28.682 98.822 26.5904 95.7694 24.3979 92.7935C23.558 91.6548 23.8124 91.1904 24.8986 90.5322C31.4439 86.5509 37.953 82.509 44.47 78.4793C45.1484 78.0593 45.7824 77.5667 46.4324 77.1104C51.0477 74.3324 55.667 71.5503 60.8032 68.4613C54.1851 67.6013 48.8834 65.3482 44.6881 61.0115C36.6729 52.7339 35.1507 42.8775 38.0579 32.0762C39.1845 27.8849 41.2398 24.1338 43.8078 20.6289C44.6841 19.4337 45.2049 19.3126 46.4001 20.3261C58.0938 30.2269 69.848 40.055 81.586 49.8993C82.2442 50.4485 82.9225 50.9734 83.609 51.5185C84.0653 51.1026 83.8593 50.719 83.7786 50.3839C82.5995 45.4859 83.7422 41.2422 87.7074 38.0967C91.4909 35.0965 95.666 34.8422 99.93 37.2487C100.027 37.3012 100.184 37.2487 100.314 37.2406L100.338 37.172C100.209 37.596 100.394 37.6969 100.774 37.596L100.705 37.6081ZM84.0612 51.7002C84.0208 51.7325 83.9522 51.7608 83.9482 51.7971C83.9441 51.8335 83.9966 51.8819 84.0249 51.9223C84.0652 51.89 84.1339 51.8617 84.1379 51.8254C84.146 51.789 84.0895 51.7406 84.0612 51.7002Z" fill="url(#paint0_linear_1710_427)"/>
<path d="M112.544 48.4982C112.035 53.2023 111.546 53.0569 107.654 51.4418C104.589 50.1739 103.576 46.1926 105.243 43.1682C105.51 42.6877 105.809 42.498 106.342 42.4899C109.81 42.4334 112.62 45.1428 112.544 48.4982Z" fill="#2DB431"/>
<path d="M110.939 36.6956C110.967 38.864 108.851 41.105 107.026 41.109C106.655 41.109 106.36 41 106.194 40.6729C105.476 39.2758 104.955 37.8384 105.593 36.2596C106.243 34.6565 107.692 34.0751 109.17 33.6148C110.111 33.324 110.22 34.2285 110.462 34.8019C110.749 35.4762 111.003 36.1788 110.939 36.6956Z" fill="#2DB431"/>
<path d="M100.31 37.2366C100.277 36.1141 99.7766 35.036 100.083 33.8771C100.342 32.9121 100.798 32.5164 101.824 32.8879C103.011 33.3199 104.069 33.8448 104.352 35.2177C104.549 36.1747 104.517 37.2084 103.887 37.915C103.225 38.6579 102.409 37.8827 101.662 37.7131C101.351 37.6404 101.024 37.6404 100.701 37.6041L100.766 37.5879C100.806 37.2568 100.637 37.1397 100.33 37.1639L100.31 37.2366Z" fill="#2DB431"/>
<path d="M84.0592 51.7002C84.0874 51.7406 84.1439 51.789 84.1359 51.8254C84.1318 51.8617 84.0632 51.89 84.0228 51.9223C83.9945 51.8819 83.938 51.8334 83.9461 51.7971C83.9542 51.7567 84.0188 51.7285 84.0592 51.7002Z" fill="#005BBB"/>
<path d="M100.338 37.1679C100.645 37.1436 100.811 37.2607 100.774 37.5918C100.391 37.6887 100.209 37.5918 100.338 37.1679Z" fill="#005BBB"/>
<defs>
<linearGradient id="paint0_linear_1710_427" x1="111.162" y1="73.3804" x2="29.2519" y2="45.5616" gradientUnits="userSpaceOnUse">
<stop offset="0.46875" stop-color="#FFD500"/>
<stop offset="0.46885" stop-color="#0056B1"/>
</linearGradient>
</defs>
</svg>
