<svg width="129" height="129" viewBox="0 0 129 129" fill="none" xmlns="http://www.w3.org/2000/svg">
<mask id="mask0_2067_14702" style="mask-type:alpha" maskUnits="userSpaceOnUse" x="0" y="0" width="129" height="129">
<rect x="0.201172" y="0.505859" width="128" height="128" fill="#C4C4C4"/>
</mask>
<g mask="url(#mask0_2067_14702)">
<path d="M107.487 66.6498C107.487 90.2486 88.3052 109.43 64.7065 109.43C41.1077 109.43 21.9258 90.2486 21.9258 66.6498C21.9258 43.051 41.1077 23.8691 64.7065 23.8691C88.4314 23.8691 107.487 43.051 107.487 66.6498Z" stroke="#F5BB5B" stroke-width="3.2259" stroke-miterlimit="10"/>
<path d="M64.2051 12.7651L77.4558 42.7999L110.141 39.2664L90.7064 65.7677L110.141 92.3952L77.4558 88.7355L64.2051 118.897L50.9545 88.7355L18.2695 92.3952L37.7038 65.7677L18.2695 39.2664L50.9545 42.7999L64.2051 12.7651Z" fill="#F5BB5B"/>
<path d="M64.2043 28.7905L73.4167 49.7392L96.2583 47.3414L82.7553 65.7662L96.2583 84.3171L73.4167 81.7931L64.2043 102.868L54.992 81.7931L32.1504 84.3171L45.6534 65.7662L32.1504 47.3414L54.992 49.7392L64.2043 28.7905Z" fill="#FFF784"/>
<path d="M70.2594 12.512C70.2594 15.7931 67.6093 18.5695 64.202 18.5695C60.7947 18.5695 58.1445 15.9193 58.1445 12.512C58.1445 9.23092 60.7947 6.45459 64.202 6.45459C67.6093 6.45459 70.2594 9.23092 70.2594 12.512Z" fill="#FFF784"/>
<path d="M70.2594 116.5C70.2594 119.781 67.6093 122.557 64.202 122.557C60.7947 122.557 58.1445 119.907 58.1445 116.5C58.1445 113.219 60.7947 110.442 64.202 110.442C67.6093 110.442 70.2594 113.219 70.2594 116.5Z" fill="#FFF784"/>
<path d="M112.283 43.8084C109.381 45.449 105.721 44.4394 104.081 41.5369C102.44 38.6344 103.45 34.9747 106.352 33.3341C109.255 31.6936 112.914 32.7031 114.555 35.6057C116.196 38.382 115.186 42.1679 112.283 43.8084Z" fill="#FFF784"/>
<path d="M22.1819 95.8026C19.2794 97.4431 15.6197 96.4336 13.9791 93.531C12.3386 90.6285 13.3482 86.9688 16.2507 85.3283C19.1532 83.6877 22.8129 84.6973 24.4535 87.5998C26.094 90.3761 25.0844 94.0358 22.1819 95.8026Z" fill="#FFF784"/>
<path d="M16.1237 43.8084C19.0262 45.449 22.686 44.4394 24.3265 41.5369C25.9671 38.6344 24.9575 34.9747 22.055 33.3341C19.1524 31.6936 15.4927 32.7031 13.8522 35.6057C12.2116 38.382 13.2212 42.1679 16.1237 43.8084Z" fill="#FFF784"/>
<path d="M106.225 95.8026C109.128 97.4431 112.788 96.4336 114.428 93.531C116.069 90.6285 115.059 86.9688 112.157 85.3283C109.254 83.6877 105.594 84.6973 103.954 87.5998C102.313 90.5023 103.323 94.0358 106.225 95.8026Z" fill="#FFF784"/>
</g>
</svg>
