<svg width="129" height="129" viewBox="0 0 129 129" fill="none" xmlns="http://www.w3.org/2000/svg">
<mask id="mask0_1585_2203" style="mask-type:alpha" maskUnits="userSpaceOnUse" x="0" y="0" width="129" height="129">
<rect x="0.632812" y="0.827148" width="128" height="128" fill="#C4C4C4"/>
</mask>
<g mask="url(#mask0_1585_2203)">
<path fill-rule="evenodd" clip-rule="evenodd" d="M23.0391 27.2972C23.8468 38.2012 24.2506 51.5283 23.4429 62.8362C27.4814 59.6053 31.9238 56.7784 36.77 55.163C39.1931 53.9514 44.8471 48.7013 48.0779 45.8744C62.2127 32.9511 72.7129 22.4509 86.04 4.27761C67.0589 3.87375 35.1546 6.29687 28.693 7.91227C26.2699 13.9701 24.2506 20.4317 23.0391 27.2972Z" fill="url(#paint0_radial_1585_2203)"/>
<path fill-rule="evenodd" clip-rule="evenodd" d="M88.0588 4.27809C74.3278 23.2591 63.4238 32.9516 48.8851 46.2787C46.0581 48.7018 43.2312 51.5288 40.0004 54.3557C39.5965 54.7596 38.7888 55.1635 39.1927 55.5673C39.1927 56.375 54.539 60.8174 56.1544 61.2212C63.0199 62.8366 70.2893 63.2405 77.9625 64.0482C80.7894 64.452 96.1358 56.7789 105.828 46.6826C103.809 26.49 100.174 7.91276 98.1551 5.0858C96.1358 4.68194 92.5011 4.27809 88.0588 4.27809Z" fill="url(#paint1_radial_1585_2203)"/>
<path fill-rule="evenodd" clip-rule="evenodd" d="M72.3031 100.798C56.5528 97.5676 38.7834 93.1252 24.6485 85.8559C25.0524 93.529 25.4562 100.395 25.0524 105.645C25.8601 108.875 29.8986 114.125 30.3025 114.529C32.3217 116.549 39.1872 120.183 42.8219 121.395C58.976 119.376 75.9377 117.76 92.8995 117.76C88.0533 114.933 81.5917 111.299 80.784 110.895C79.1686 108.875 75.13 104.029 72.3031 100.798Z" fill="url(#paint2_radial_1585_2203)"/>
<path fill-rule="evenodd" clip-rule="evenodd" d="M78.3668 65.6635C71.0975 64.8558 63.8281 63.6442 56.5588 62.0288C49.6933 60.4134 43.2317 58.3942 37.1739 56.3749C35.1546 56.3749 27.4814 60.8173 23.0391 64.8558C23.4429 70.9136 23.8468 77.3752 24.2506 83.8369C38.7893 91.1062 56.5588 96.3563 72.7129 99.9909H73.1157L72.7118 98.7794C71.9041 92.7216 71.5003 86.26 73.1157 80.2022C74.325 74.5585 76.3392 70.122 79.5597 65.286C79.1639 65.4148 78.7662 65.5406 78.3668 65.6635ZM73.8308 100.798C76.4839 103.757 79.4763 106.688 82.8081 109.28C86.3415 112.028 92.1649 115.921 95.826 116.878L95.7324 116.953C97.7517 115.337 100.579 112.914 101.79 111.299C103.332 95.8849 104.167 80.2356 105.015 64.3511C105.278 59.4265 105.542 54.4793 105.829 49.5094C98.7497 56.5885 90.2957 61.6051 80.784 64.8765C78.5715 67.6323 74.1956 74.5555 74.3918 80.2022C73.6635 83.1306 72.5315 91.3495 73.8308 100.798Z" fill="url(#paint3_radial_1585_2203)"/>
<g filter="url(#filter0_i_1585_2203)">
<path d="M44.0358 68.4908C44.0358 66.8754 44.4396 60.8176 44.4396 59.2022C44.4396 54.7598 44.4396 34.1633 44.4396 29.721C44.8435 28.9133 48.882 27.2979 49.6897 27.2979C50.4974 27.2979 55.7475 27.2979 56.5552 27.2979C58.1706 27.2979 63.0168 27.2979 63.4207 27.2979C64.6322 27.2979 76.7478 27.7017 77.9594 27.7017C78.3632 27.7017 78.767 27.7017 78.767 27.7017C81.9979 27.7017 87.6518 28.1056 87.6518 31.7402C87.6518 32.1441 87.6518 32.5479 87.6518 32.9518C87.6518 33.3556 87.2479 35.7787 87.2479 36.1826C87.6518 36.1826 87.6518 41.0288 87.6518 41.4327C87.2479 46.2789 82.4017 47.0866 78.3632 47.0866C74.7285 47.0866 71.0939 46.2789 67.4592 46.2789H67.0553C67.0553 47.4905 66.6515 53.5482 66.6515 54.7598C66.6515 55.1636 66.2476 57.1829 66.2476 57.5868C67.0553 57.5868 70.2862 57.9906 70.69 57.9906C70.69 57.9906 70.69 57.9906 71.0939 57.9906C73.1131 58.3945 78.767 58.7983 78.767 61.6253C78.767 64.0484 78.3632 66.4715 77.9594 69.2985C77.5555 71.7216 77.5555 78.1832 73.517 78.1832C69.8823 78.1832 68.6707 77.7794 65.4399 76.9717H65.0361C65.0361 78.9909 64.6322 87.8757 64.6322 89.4911C64.6322 90.2988 64.2284 94.7412 64.2284 95.5489C63.8245 97.1643 63.0168 97.972 60.9976 98.7797C60.5937 98.7797 57.3629 98.7797 56.959 98.7797C56.5552 98.7797 56.1513 98.7797 55.7475 98.7797C51.709 98.7797 42.8242 99.1835 42.8242 93.9334C42.8242 85.0487 43.6319 76.5678 44.0358 68.4908Z" fill="#433227"/>
</g>
</g>
<defs>
<filter id="filter0_i_1585_2203" x="42.8242" y="27.2979" width="44.8281" height="71.489" filterUnits="userSpaceOnUse" color-interpolation-filters="sRGB">
<feFlood flood-opacity="0" result="BackgroundImageFix"/>
<feBlend mode="normal" in="SourceGraphic" in2="BackgroundImageFix" result="shape"/>
<feColorMatrix in="SourceAlpha" type="matrix" values="0 0 0 0 0 0 0 0 0 0 0 0 0 0 0 0 0 0 127 0" result="hardAlpha"/>
<feOffset dx="2.6188" dy="2.6188"/>
<feComposite in2="hardAlpha" operator="arithmetic" k2="-1" k3="1"/>
<feColorMatrix type="matrix" values="0 0 0 0 0 0 0 0 0 0 0 0 0 0 0 0 0 0 0.25 0"/>
<feBlend mode="normal" in2="shape" result="effect1_innerShadow_1585_2203"/>
</filter>
<radialGradient id="paint0_radial_1585_2203" cx="0" cy="0" r="1" gradientUnits="userSpaceOnUse" gradientTransform="translate(98.954 38.1829) scale(165.789 252.227)">
<stop stop-color="#A99A93"/>
<stop offset="1" stop-color="#7D6E67"/>
</radialGradient>
<radialGradient id="paint1_radial_1585_2203" cx="0" cy="0" r="1" gradientUnits="userSpaceOnUse" gradientTransform="translate(30.668 122.832) scale(182.446 288.253)">
<stop stop-color="#A99A93"/>
<stop offset="1" stop-color="#7D6E67"/>
</radialGradient>
<radialGradient id="paint2_radial_1585_2203" cx="0" cy="0" r="1" gradientUnits="userSpaceOnUse" gradientTransform="translate(14.6523 294.597) scale(219.784 597.323)">
<stop stop-color="#A99A93"/>
<stop offset="1" stop-color="#61524B"/>
</radialGradient>
<radialGradient id="paint3_radial_1585_2203" cx="0" cy="0" r="1" gradientUnits="userSpaceOnUse" gradientTransform="translate(40.9937 36.8505) scale(145.342)">
<stop stop-color="#A99A93"/>
<stop offset="1" stop-color="#61524B"/>
</radialGradient>
</defs>
</svg>
