<svg width="128" height="128" viewBox="0 0 128 128" fill="none" xmlns="http://www.w3.org/2000/svg">
<mask id="mask0" mask-type="alpha" maskUnits="userSpaceOnUse" x="0" y="0" width="128" height="128">
<rect width="128" height="128" fill="#C4C4C4"/>
</mask>
<g mask="url(#mask0)">
<path d="M118.559 52.4049H111.981C109.473 48.0371 104.774 45 99.2235 45H84.1608C80.0936 45 75.9993 46.6916 73.2303 49.8842C71.4099 48.2569 69.01 47.2651 66.3819 47.2651H60.6181C57.99 47.2651 55.5901 48.2569 53.7697 49.8842C51.0005 46.6916 46.9064 45 42.8392 45H27.7765C22.2256 45 17.5273 48.0373 15.0189 52.4049H8.44118C6.54073 52.4049 5 53.9456 5 55.846C5 57.7464 6.54073 59.2871 8.44118 59.2871H13.0769C13.0267 61.1441 13.1767 61.5559 14.4623 69.2685C16.4093 80.9509 31.3479 85.5378 42.5304 81.6393C50.3058 78.9287 57.2127 70.1017 57.2127 57.5523C57.2127 55.6746 58.7404 54.147 60.6181 54.147H66.3819C68.2596 54.147 69.7873 55.6746 69.7873 57.5523C69.7873 70.0902 76.6864 78.9259 84.4696 81.6393C95.6521 85.5378 110.591 80.9509 112.538 69.2685C113.797 61.7103 113.974 61.1595 113.923 59.2871H118.559C120.459 59.2871 122 57.7464 122 55.846C122 53.9456 120.459 52.4049 118.559 52.4049Z" fill="black"/>
</g>
</svg>
