<svg width="129" height="129" viewBox="0 0 129 129" fill="none" xmlns="http://www.w3.org/2000/svg">
<path d="M101.721 36.6201C100.072 36.6201 98.4705 36.8086 96.9158 37.1384C92.1105 25.0544 80.3328 16.5273 66.5528 16.5273C49.3574 16.5273 35.2712 29.8126 33.9757 46.6783H21.3264C11.598 46.6783 3.73047 54.5458 3.73047 64.2742C3.73047 74.0026 11.598 81.8701 21.3264 81.8701H101.721C114.206 81.8701 124.334 71.7413 124.334 59.2569C124.334 46.749 114.206 36.6201 101.721 36.6201Z" fill="#DCF3F4"/>
<path d="M74.3965 59.2334C74.3965 60.529 75.4565 61.589 76.752 61.589C78.0476 61.589 79.1076 60.529 79.1076 59.2334C79.1076 48.3979 86.7395 39.3291 96.939 37.1384C96.939 37.1384 96.939 37.1384 96.9155 37.1384C96.3266 35.6309 95.6199 34.194 94.8191 32.8042C83.0649 35.8664 74.3965 46.5606 74.3965 59.2334Z" fill="#B0CDCF"/>
<path d="M101.721 36.6201C100.072 36.6201 98.4701 36.8086 96.9154 37.1384C92.1101 25.0544 80.3324 16.5273 66.5525 16.5273C64.8565 16.5273 63.1605 16.6687 61.5352 16.9042C73.1009 18.6944 82.6644 26.562 86.8808 37.1384C88.4355 36.8086 90.0372 36.6201 91.6861 36.6201C104.171 36.6201 114.299 46.749 114.299 59.2334C114.299 71.7178 104.171 81.8466 91.6861 81.8466H101.721C114.205 81.8466 124.334 71.7178 124.334 59.2334C124.334 46.749 114.205 36.6201 101.721 36.6201Z" fill="#B0CDCF"/>
<path d="M28.8645 94.6607C27.8517 94.6607 27.0508 93.8362 27.0508 92.8469V90.3265C27.0508 89.3136 27.8752 88.5127 28.8645 88.5127C29.8539 88.5127 30.6783 89.3371 30.6783 90.3265V92.8469C30.6783 93.8598 29.8539 94.6607 28.8645 94.6607Z" fill="#67D5FF"/>
<path d="M99.2024 94.6607C98.1896 94.6607 97.3887 93.8362 97.3887 92.8469V90.3265C97.3887 89.3136 98.2131 88.5127 99.2024 88.5127C100.215 88.5127 101.016 89.3371 101.016 90.3265V92.8469C101.04 93.8598 100.215 94.6607 99.2024 94.6607Z" fill="#67D5FF"/>
<path d="M64.0345 99.7014C63.0216 99.7014 62.2207 98.877 62.2207 97.8877V95.3672C62.2207 94.3544 63.0451 93.5535 64.0345 93.5535C65.0474 93.5535 65.8482 94.3779 65.8482 95.3672V97.8877C65.8482 98.877 65.0474 99.7014 64.0345 99.7014Z" fill="#67D5FF"/>
<path d="M46.4368 106.314C45.4239 106.314 44.623 105.49 44.623 104.501V96.9456C44.623 95.9327 45.4475 95.1318 46.4368 95.1318C47.4261 95.1318 48.2506 95.9563 48.2506 96.9456V104.501C48.2741 105.49 47.4497 106.314 46.4368 106.314Z" fill="#67D5FF"/>
<path d="M81.6302 107.314C80.6173 107.314 79.8164 106.49 79.8164 105.501V96.9456C79.8164 95.9327 80.6408 95.1318 81.6302 95.1318C82.6195 95.1318 83.4439 95.9563 83.4439 96.9456V105.501C83.4439 106.49 82.6195 107.314 81.6302 107.314Z" fill="#67D5FF"/>
</svg>
