<svg width="128" height="128" viewBox="0 0 128 128" fill="none" xmlns="http://www.w3.org/2000/svg">
<path fill-rule="evenodd" clip-rule="evenodd" d="M19.1087 40.6228C20.7236 17.9247 40.1326 0 63.8383 0C87.544 0 106.953 17.9247 108.568 40.6228H108.677V84.6814L108.677 84.6946L108.677 84.7078V85.1289L108.668 85.132C108.439 91.0672 103.554 95.8084 97.5629 95.8084C94.336 95.8084 91.4303 94.4331 89.4 92.2367L89.3358 92.2604C87.2981 89.7489 84.1868 88.1437 80.7007 88.1437C77.1506 88.1437 73.9893 89.8082 71.9547 92.3993L71.8858 92.3598C69.8616 94.4844 67.0046 95.8084 63.8384 95.8084C60.5206 95.8084 57.5424 94.3546 55.506 92.0493L55.4783 92.0997C53.4397 89.6806 50.3874 88.1437 46.9761 88.1437C43.5263 88.1437 40.4436 89.7155 38.4052 92.182L38.3464 92.1607C36.3132 94.4013 33.3778 95.8084 30.1138 95.8084C24.1223 95.8084 19.2382 91.0672 19.0085 85.132L19.0001 85.1289V84.6946V43.7581L19 43.6886L19.0001 43.6191V40.6228H19.1087Z" fill="white"/>
<path d="M78.2151 55.3607C77.8605 55.3607 77.5205 55.2242 77.2696 54.9812C77.0188 54.7383 76.8778 54.4087 76.8776 54.065V51.9136C76.8893 51.5775 77.0353 51.259 77.2847 51.0253C77.5341 50.7916 77.8675 50.661 78.2144 50.661C78.5613 50.661 78.8946 50.7916 79.144 51.0253C79.3934 51.259 79.5394 51.5775 79.5511 51.9136V54.065C79.5511 54.4087 79.4103 54.7384 79.1596 54.9815C78.909 55.2246 78.569 55.3613 78.2144 55.3615L78.2151 55.3607ZM49.4623 55.3607C49.1079 55.3605 48.7681 55.2239 48.5176 54.9809C48.2671 54.738 48.1264 54.4085 48.1264 54.065V51.9136C48.1221 51.7409 48.1535 51.5691 48.2188 51.4083C48.284 51.2476 48.3818 51.1011 48.5063 50.9774C48.6308 50.8538 48.7795 50.7556 48.9438 50.6885C49.1081 50.6215 49.2845 50.5869 49.4627 50.5869C49.641 50.5869 49.8174 50.6215 49.9817 50.6885C50.1459 50.7556 50.2947 50.8538 50.4192 50.9774C50.5437 51.1011 50.6415 51.2476 50.7067 51.4083C50.7719 51.5691 50.8034 51.7409 50.7991 51.9136V54.065C50.7991 54.4088 50.6582 54.7386 50.4073 54.9817C50.1565 55.2249 49.8163 55.3615 49.4616 55.3615L49.4623 55.3607ZM63.8387 56.7179C62.1084 56.7179 60.3788 56.1749 58.935 55.0888C58.67 54.8734 58.5013 54.5669 58.4644 54.2335C58.4276 53.9001 58.5254 53.5659 58.7373 53.3009C58.9492 53.036 59.2588 52.8609 59.6011 52.8125C59.9433 52.764 60.2917 52.846 60.5729 53.0412C61.507 53.7441 62.6558 54.1256 63.8384 54.1256C65.0209 54.1256 66.1698 53.7441 67.1038 53.0412C67.3849 52.844 67.7341 52.7604 68.0777 52.8081C68.4212 52.8558 68.7321 53.031 68.9448 53.2968C69.1575 53.5626 69.2553 53.8981 69.2175 54.2325C69.1798 54.5669 69.0094 54.8739 68.7425 55.0888C67.3403 56.1454 65.6148 56.7189 63.8387 56.7187V56.7179Z" fill="#57565C"/>
<mask id="mask0" mask-type="alpha" maskUnits="userSpaceOnUse" x="19" y="0" width="54" height="96">
<path d="M19 0H72.6527L44.9409 95.8084H19V0Z" fill="#C4C4C4"/>
</mask>
<g mask="url(#mask0)">
<path fill-rule="evenodd" clip-rule="evenodd" d="M63.8383 0C39.3375 0 19.4265 19.1472 19.0068 42.9222H19.0001V43.6191L19 43.6886L19.0001 43.7581V84.6946V85.624L19.0395 85.6377C19.5182 91.3343 24.2935 95.8084 30.1138 95.8084C31.1773 95.8084 32.2059 95.659 33.1797 95.3801C28.6669 94.0877 25.3291 90.0137 25.1402 85.132L25.1318 85.1289V84.6946V40.6228H25.2408C26.7855 18.9114 44.6109 1.56742 66.9044 0.100537C65.8912 0.0338725 64.8688 0 63.8383 0ZM100.629 95.3801C98.6476 94.8127 96.8929 93.7093 95.5317 92.2367L95.4675 92.2604C93.4298 89.7489 90.3185 88.1437 86.8324 88.1437C85.7689 88.1437 84.7403 88.2931 83.7665 88.572C86.0527 89.2267 88.0373 90.5953 89.4637 92.4211L89.5462 92.3919C91.5686 94.4977 94.4127 95.8084 97.5629 95.8084C98.6264 95.8084 99.655 95.659 100.629 95.3801ZM66.9043 95.3801C64.8399 94.7889 63.0214 93.6157 61.6378 92.0493L61.6101 92.0998C59.5714 89.6806 56.5191 88.1437 53.1078 88.1437C52.0443 88.1437 51.0158 88.2931 50.042 88.572C52.229 89.1983 54.1401 90.4779 55.5505 92.1862L55.5809 92.1331C57.615 94.3898 60.561 95.8084 63.8384 95.8084C64.9018 95.8084 65.9304 95.659 66.9043 95.3801Z" fill="#D7D7D7"/>
</g>
<ellipse cx="64.3233" cy="118.036" rx="38.3234" ry="9.96407" fill="#8A88A0"/>
</svg>
