<svg width="128" height="128" viewBox="0 0 128 128" fill="none" xmlns="http://www.w3.org/2000/svg">
<mask id="mask0_1773_1019" style="mask-type:alpha" maskUnits="userSpaceOnUse" x="0" y="0" width="128" height="128">
<rect width="128" height="128" fill="#C4C4C4"/>
</mask>
<g mask="url(#mask0_1773_1019)">
<path d="M123.032 54.7598V63.9085H113.932H113.883V54.7598H123.032Z" fill="#CC0000"/>
<path d="M123.032 45.6113H113.883V54.7765H123.032V45.6113Z" fill="#CC0000"/>
<path d="M123.032 36.4629H113.883V45.6116H123.032V36.4629Z" fill="#CC0000"/>
<path d="M123.032 27.2979H113.883V36.463H123.032V27.2979Z" fill="#CC0000"/>
<path d="M113.932 63.9087V73.0738H104.783V63.9087H113.883H113.932Z" fill="#CC0000"/>
<path d="M113.882 54.7598V63.9085H104.783H104.717V54.7598H113.882Z" fill="#E60000"/>
<path d="M113.882 45.6113H104.717V54.7765H113.882V45.6113Z" fill="#E60000"/>
<path d="M113.882 36.4629H104.717V45.6116H113.882V36.4629Z" fill="#E60000"/>
<path d="M113.882 27.2979H104.717V36.463H113.882V27.2979Z" fill="#E60000"/>
<path d="M113.882 18.1484H104.717V27.2971H113.882V18.1484Z" fill="#CC0000"/>
<path d="M104.783 73.0732H95.6182V82.2219H104.783V73.0732Z" fill="#CC0000"/>
<path d="M104.783 63.9087V73.0738H95.6182V63.9087H104.718H104.783Z" fill="#E60000"/>
<path d="M104.718 54.7598V63.9085H95.6181H95.5688V54.7598H104.718Z" fill="#E60000"/>
<path d="M104.718 45.6113H95.5688V54.7765H104.718V45.6113Z" fill="#E60000"/>
<path d="M104.718 36.4629H95.5688V45.6116H104.718V36.4629Z" fill="#E60000"/>
<path d="M104.718 27.2979H95.5688V36.463H104.718V27.2979Z" fill="#E60000"/>
<path d="M104.718 18.1484H95.5688V27.2971H104.718V18.1484Z" fill="#E60000"/>
<path d="M104.718 9H95.5688V18.1487H104.718V9Z" fill="#CC0000"/>
<path d="M95.6184 82.2227H86.4697V91.3714H95.6184V82.2227Z" fill="#CC0000"/>
<path d="M95.6184 73.0732H86.4697V82.2219H95.6184V73.0732Z" fill="#E60000"/>
<path d="M95.6184 63.9087V73.0738H86.4697V63.9087H95.5692H95.6184Z" fill="#E60000"/>
<path d="M95.5691 54.7598V63.9085H86.4697H86.4204V54.7598H95.5691Z" fill="#FF3939"/>
<path d="M95.5691 45.6113H86.4204V54.7765H95.5691V45.6113Z" fill="#FF3939"/>
<path d="M95.5691 36.4629H86.4204V45.6116H95.5691V36.4629Z" fill="#FF3939"/>
<path d="M95.5691 27.2979H86.4204V36.463H95.5691V27.2979Z" fill="#FF3939"/>
<path d="M95.5691 18.1484H86.4204V27.2971H95.5691V18.1484Z" fill="#E60000"/>
<path d="M95.5691 9H86.4204V18.1487H95.5691V9Z" fill="#CC0000"/>
<path d="M86.4693 91.3711H77.3042V100.536H86.4693V91.3711Z" fill="#CC0000"/>
<path d="M86.4693 82.2227H77.3042V91.3714H86.4693V82.2227Z" fill="#E60000"/>
<path d="M86.4693 73.0732H77.3042V82.2219H86.4693V73.0732Z" fill="#E60000"/>
<path d="M86.4693 63.9087V73.0738H77.3042V63.9087H86.42H86.4693Z" fill="#FF3939"/>
<path d="M86.4205 54.7598V63.9085H77.3046H77.2554V54.7598H86.4205Z" fill="#FF3939"/>
<path d="M86.4205 45.6113H77.2554V54.7765H86.4205V45.6113Z" fill="#FF3939"/>
<path d="M86.4205 36.4629H77.2554V45.6116H86.4205V36.4629Z" fill="#FF3939"/>
<path d="M86.4205 27.2979H77.2554V36.463H86.4205V27.2979Z" fill="#FF3939"/>
<path d="M86.4205 18.1484H77.2554V27.2971H86.4205V18.1484Z" fill="#CC0000"/>
<path d="M77.3045 100.536H68.1558V109.685H77.3045V100.536Z" fill="#CC0000"/>
<path d="M77.3045 91.3711H68.1558V100.536H77.3045V91.3711Z" fill="#E60000"/>
<path d="M77.3045 82.2227H68.1558V91.3714H77.3045V82.2227Z" fill="#E60000"/>
<path d="M77.3045 73.0732H68.1558V82.2219H77.3045V73.0732Z" fill="#FF3939"/>
<path d="M77.3045 63.9087V73.0738H68.1558V63.9087H77.2552H77.3045Z" fill="#FF3939"/>
<path d="M77.2547 54.7598V63.9085H68.1552H68.1224H68.106V54.7598H77.2547Z" fill="#FF3939"/>
<path d="M77.2547 45.6113H68.106V54.7765H77.2547V45.6113Z" fill="#FF3939"/>
<path d="M77.2547 36.4629H68.106V45.6116H77.2547V36.4629Z" fill="#FF3939"/>
<path d="M77.2547 27.2979H68.106V36.463H77.2547V27.2979Z" fill="#CC0000"/>
<path d="M68.1233 109.685H58.9746V118.85H68.1233V109.685Z" fill="#CC0000"/>
<path d="M68.1233 100.536H58.9746V109.685H68.1233V100.536Z" fill="#E60000"/>
<path d="M68.1233 91.3711H58.9746V100.536H68.1233V91.3711Z" fill="#E60000"/>
<path d="M68.1233 82.2227H58.9746V91.3714H68.1233V82.2227Z" fill="#FF3939"/>
<path d="M68.1233 73.0732H58.9746V82.2219H68.1233V73.0732Z" fill="#FF3939"/>
<path d="M68.1233 63.9087V73.0738H58.9746V63.9087H68.0904H68.1069H68.1233Z" fill="#FF3939"/>
<path d="M68.0906 54.7598V63.9085H58.9747H58.9419V54.7598H68.0906Z" fill="#FF3939"/>
<path d="M68.0906 45.6113H58.9419V54.7765H68.0906V45.6113Z" fill="#FF3939"/>
<path d="M68.0906 36.4629H58.9419V45.6116H68.0906V36.4629Z" fill="#CC0000"/>
<path d="M58.9739 100.536H49.8252V109.685H58.9739V100.536Z" fill="#CC0000"/>
<path d="M58.9739 91.3711H49.8252V100.536H58.9739V91.3711Z" fill="#E60000"/>
<path d="M58.9739 82.2227H49.8252V91.3714H58.9739V82.2227Z" fill="#FF3939"/>
<path d="M58.9739 73.0732H49.8252V82.2219H58.9739V73.0732Z" fill="#FF3939"/>
<path d="M58.9739 63.9087V73.0738H49.8252V63.9087H58.9411H58.9739Z" fill="#FF3939"/>
<path d="M58.9415 54.7598V63.9085H49.8256H49.7764V54.7598H58.9415Z" fill="#FF3939"/>
<path d="M58.9415 45.6113H49.7764V54.7765H58.9415V45.6113Z" fill="#FF3939"/>
<path d="M58.9415 36.4629H49.7764V45.6116H58.9415V36.4629Z" fill="#E60000"/>
<path d="M58.9415 27.2979H49.7764V36.463H58.9415V27.2979Z" fill="#CC0000"/>
<path d="M49.8253 91.3711H40.6602V100.536H49.8253V91.3711Z" fill="#CC0000"/>
<path d="M49.8253 82.2227H40.6602V91.3714H49.8253V82.2227Z" fill="#E60000"/>
<path d="M49.8253 73.0732H40.6602V82.2219H49.8253V73.0732Z" fill="#FF3939"/>
<path d="M49.8253 63.9087V73.0738H40.6602V63.9087H49.776H49.8253Z" fill="#FF3939"/>
<path d="M49.7762 54.7598V63.9085H40.6603H40.6274V54.7598H49.7762Z" fill="#FF3939"/>
<path d="M49.7762 45.6113H40.6274V54.7765H49.7762V45.6113Z" fill="#FF3939"/>
<path d="M49.7762 36.4629H40.6274V45.6116H49.7762V36.4629Z" fill="#FF3939"/>
<path d="M49.7762 27.2979H40.6274V36.463H49.7762V27.2979Z" fill="#E60000"/>
<path d="M49.7762 18.1484H40.6274V27.2971H49.7762V18.1484Z" fill="#CC0000"/>
<path d="M40.6604 82.2227H31.5117V91.3714H40.6604V82.2227Z" fill="#CC0000"/>
<path d="M40.6604 73.0732H31.5117V82.2219H40.6604V73.0732Z" fill="#E60000"/>
<path d="M40.6604 63.9087V73.0738H31.5117V63.9087H40.6275H40.6604Z" fill="#FF3939"/>
<path d="M40.628 54.7598V63.9085H31.5122H31.4629V54.7598H40.628Z" fill="#FF3939"/>
<path d="M40.628 45.6113H31.4629V54.7765H40.628V45.6113Z" fill="#FFAEAE"/>
<path d="M40.628 36.4629H31.4629V45.6116H40.628V36.4629Z" fill="#FFAEAE"/>
<path d="M40.628 27.2979H31.4629V36.463H40.628V27.2979Z" fill="#FF3939"/>
<path d="M40.628 18.1484H31.4629V27.2971H40.628V18.1484Z" fill="#FF3939"/>
<path d="M40.628 9H31.4629V18.1487H40.628V9Z" fill="#CC0000"/>
<path d="M31.5284 73.0732H22.3633V82.2219H31.5284V73.0732Z" fill="#CC0000"/>
<path d="M31.512 63.9087V73.0738H22.3633V63.9087H31.4627H31.512Z" fill="#FF3939"/>
<path d="M31.4622 54.7598V63.9085H22.3627H22.3135V54.7598H31.4622Z" fill="#FF3939"/>
<path d="M31.4622 45.6113H22.3135V54.7765H31.4622V45.6113Z" fill="#FFAEAE"/>
<path d="M31.4622 36.4629H22.3135V45.6116H31.4622V36.4629Z" fill="#FFAEAE"/>
<path d="M31.4622 27.2979H22.3135V36.463H31.4622V27.2979Z" fill="#FF3939"/>
<path d="M31.4622 18.1484H22.3135V27.2971H31.4622V18.1484Z" fill="#FF3939"/>
<path d="M31.4622 9H22.3135V18.1487H31.4622V9Z" fill="#CC0000"/>
<path d="M22.3625 63.9087V73.0738H13.2139V63.9087H22.3133H22.3625Z" fill="#CC0000"/>
<path d="M22.3138 54.7598V63.9085H13.2144H13.165V54.7598H22.3138Z" fill="#FF3939"/>
<path d="M22.3138 45.6113H13.165V54.7765H22.3138V45.6113Z" fill="#FF3939"/>
<path d="M22.3138 36.4629H13.165V45.6116H22.3138V36.4629Z" fill="#FF3939"/>
<path d="M22.3138 27.2979H13.165V36.463H22.3138V27.2979Z" fill="#FF3939"/>
<path d="M22.3138 18.1484H13.165V27.2971H22.3138V18.1484Z" fill="#CC0000"/>
<path d="M13.1651 54.7598V63.9085H4.04927H4V54.7598H13.1651Z" fill="#CC0000"/>
<path d="M13.1651 45.6113H4V54.7765H13.1651V45.6113Z" fill="#CC0000"/>
<path d="M13.1651 36.4629H4V45.6116H13.1651V36.4629Z" fill="#CC0000"/>
<path d="M13.1651 27.2979H4V36.463H13.1651V27.2979Z" fill="#CC0000"/>
</g>
</svg>
