<svg width="128" height="128" viewBox="0 0 128 128" fill="none" xmlns="http://www.w3.org/2000/svg">
<mask id="mask0" mask-type="alpha" maskUnits="userSpaceOnUse" x="0" y="0" width="128" height="128">
<rect width="128" height="128" fill="#C4C4C4"/>
</mask>
<g mask="url(#mask0)">
<path d="M16.8387 56.2127C20.1084 33.3213 39.9639 15.7143 63.9658 15.7143C88.0095 15.7143 107.892 33.3825 111.11 56.3318C111.252 57.3477 112.199 58.0568 113.224 57.9157C114.249 57.7745 114.965 56.8365 114.822 55.8206C111.351 31.0606 89.9059 12 63.9658 12C38.0706 12 16.6553 30.9947 13.1277 55.6921C12.9826 56.7076 13.6958 57.6474 14.7205 57.7912C15.7453 57.9349 16.6936 57.2282 16.8387 56.2127Z" fill="#FFC700"/>
<path d="M63.9658 110.057C56.7902 110.057 49.9902 108.485 43.8932 105.671L42.3108 109.038C48.8932 112.076 56.2323 113.771 63.9658 113.771C71.6994 113.771 79.0385 112.076 85.6209 109.038L84.0385 105.671C77.9415 108.485 71.1415 110.057 63.9658 110.057Z" fill="#FFC700"/>
<path d="M37.9797 43.3576C37.9797 44.5574 38.9625 45.5524 40.1476 45.5524C41.3328 45.5524 42.3156 44.5574 42.3156 43.3576C42.3156 41.6603 43.6742 40.2848 45.3507 40.2848C47.0273 40.2848 48.3859 41.6603 48.3859 43.3576C48.3859 44.5574 49.3687 45.5524 50.5538 45.5524C51.739 45.5524 52.7218 44.5574 52.7218 43.3576C52.7218 39.2606 49.4265 35.8952 45.3507 35.8952C41.275 35.8952 37.9797 39.2313 37.9797 43.3576Z" fill="#FFC700"/>
<path fill-rule="evenodd" clip-rule="evenodd" d="M111.312 59.8648C111.886 59.7905 113.448 59.7558 115.11 60.2114C119.483 61.6724 121.682 66.4019 120.107 70.6114L115.86 81.9276C116.459 82.819 116.859 83.8343 117.034 84.8743C119.208 84.0571 121.732 84.181 123.905 85.419C127.803 87.6229 129.153 92.5505 126.929 96.3886L123.106 103.025C122.306 104.411 121.157 105.501 119.758 106.194C116.734 112.187 110.513 116 103.741 116C97.3197 116 91.6977 112.657 88.5244 107.63C87.9821 107.076 87.149 105.154 86.8003 104.263C85.7474 101.415 85.7344 98.9683 85.73 98.1451C85.7294 98.0305 85.7289 97.9474 85.7259 97.8991C84.2267 96.3886 83.4021 94.3581 83.4021 92.2781C83.4021 89.48 84.9013 86.979 87.0751 85.5676V66.1295C87.0751 61.6971 90.7232 58.0819 95.1958 58.0819C99.6684 58.0819 103.316 61.6971 103.316 66.1295V69.1257L104.866 65.0152C105.915 62.2667 108.389 60.2857 111.312 59.8648ZM89.6987 100.103C90.5983 106.937 96.5451 112.286 103.741 112.286C108.114 112.286 112.187 110.28 114.835 106.987C111.487 106.467 108.714 103.916 108.089 100.425C105.89 101.242 103.516 101.069 101.517 100.029C100.793 100.227 100.018 100.326 99.3186 100.326H91.6227C90.9731 100.326 90.2984 100.251 89.6987 100.103ZM111.237 82.5219C109.163 81.3581 106.49 82.0514 105.29 84.1314L104.266 85.8895C107.32 88.2051 107.418 91.5819 107.435 92.1878L107.436 92.2115C107.436 92.2252 107.437 92.237 107.437 92.2468C107.438 92.262 107.438 92.2726 107.439 92.2781C107.414 94.0362 106.94 95.6705 105.765 97.181C107.214 97.0324 108.389 96.1905 109.038 95.0514L112.861 88.4152C114.061 86.3352 113.311 83.7105 111.237 82.5219ZM99.3436 96.6362C101.742 96.6114 103.666 94.68 103.691 92.3029C103.691 89.901 101.742 87.9695 99.3436 87.9695H91.6477C89.224 87.9695 87.275 89.9257 87.275 92.2781V92.3029C87.275 94.6552 89.199 96.6362 91.6227 96.6362H99.3436ZM99.6434 84.2552V66.1295C99.6434 63.7524 97.7195 61.7962 95.2958 61.7962C92.872 61.7962 90.9231 63.7524 90.9231 66.1295V84.28C91.3512 84.2353 97.8952 84.2511 99.36 84.2546C99.5196 84.255 99.6189 84.2552 99.6434 84.2552ZM123.681 94.5562C124.88 92.501 124.155 89.8514 122.056 88.6629C119.958 87.4743 117.309 88.2171 116.11 90.2724C114.542 92.991 113.608 94.6018 113.043 95.5764L113.042 95.5784C112.277 96.899 112.189 97.0501 112.118 97.2084C112.108 97.231 112.098 97.2537 112.087 97.28C111.187 99.2857 111.937 101.688 113.911 102.802C115.985 103.99 118.658 103.272 119.858 101.192L123.681 94.5562ZM112.911 79.2038L116.609 69.3238C117.459 67.0952 116.31 64.619 114.036 63.8019C111.812 62.96 109.288 64.099 108.439 66.3276L103.391 79.7981V80.5409C105.84 78.139 109.688 77.4952 112.911 79.2038Z" fill="#FFC700"/>
<path fill-rule="evenodd" clip-rule="evenodd" d="M41.1247 104.263C42.1742 101.403 42.1906 98.7893 42.195 98.0811V98.0808C42.1957 97.9798 42.196 97.9176 42.1992 97.8991C43.6734 96.3886 44.5229 94.3829 44.5229 92.2781V92.2533C44.5229 89.5543 43.1487 87.0286 40.8499 85.5429V66.1048C40.8499 65.4114 40.7499 64.7429 40.6 64.099C39.7005 60.6324 36.5272 58.0571 32.7542 58.0571C28.2816 58.0571 24.6336 61.6724 24.6336 66.1048V69.101L23.0844 64.9905C22.0599 62.2171 19.5863 60.2362 16.6378 59.84C14.9562 59.8796 13.4385 60.0876 12.8899 60.1867L12.665 60.261C8.46722 61.7962 6.31837 66.4267 7.89253 70.5867L12.1403 81.9029C11.5656 82.7943 11.1658 83.8095 10.9659 84.8495C8.71709 84.0324 6.24341 84.181 4.09456 85.3943C0.196649 87.5981 -1.15263 92.501 1.07118 96.3638L4.96909 103.025C5.76867 104.436 6.96803 105.501 8.3173 106.194C11.3407 112.187 17.5624 116 24.3337 116C30.7303 116 36.3773 112.657 39.5506 107.63C39.897 107.094 40.6968 105.669 41.1247 104.263ZM13.2397 106.987C15.8883 110.28 19.9611 112.286 24.3337 112.286C31.4799 112.286 37.4767 106.987 38.3762 100.103C37.7515 100.251 37.0769 100.326 36.4522 100.326H28.7564C28.0318 100.326 27.2822 100.227 26.5575 100.029C24.6086 101.044 22.2349 101.242 19.9861 100.425C19.3614 103.817 16.6628 106.467 13.2397 106.987ZM22.7846 84.1562C21.6102 82.1009 18.9366 81.3581 16.8377 82.5467C14.8388 83.6857 13.9893 86.3105 15.2136 88.4648L19.0366 95.101C19.6862 96.24 20.8606 97.0572 22.3098 97.2305C21.2104 95.8191 20.6357 94.0857 20.6357 92.3276C20.6357 89.8267 21.8101 87.4495 23.809 85.9391L22.7846 84.1562ZM36.4772 87.9943H28.7564C26.3576 87.9943 24.4087 89.9257 24.4587 92.3524C24.4587 94.6552 26.3327 96.6362 28.7813 96.661H36.5022C38.9259 96.6362 40.8249 94.7048 40.8499 92.3524V92.3276C40.8499 89.9505 38.9009 87.9943 36.4772 87.9943ZM32.8042 61.7962C30.3805 61.7962 28.4315 63.7524 28.4315 66.1295C28.4315 72.1714 28.4315 78.2381 28.4565 84.2552H36.5022C36.7271 84.2552 37.0019 84.2552 37.1769 84.28V66.1295C37.1769 63.7276 35.2279 61.7962 32.8042 61.7962ZM19.6362 66.3276C18.8117 64.0743 16.2631 62.96 14.0392 63.7771C11.7655 64.619 10.6161 67.0952 11.4656 69.3238L15.1636 79.2038C18.3369 77.52 22.1849 78.1143 24.6835 80.5409V79.7981L19.6362 66.3276ZM11.9654 90.2724C10.766 88.1924 8.11741 87.4743 6.01853 88.6629C3.91966 89.8514 3.19504 92.501 4.3944 94.5562L8.21736 101.192C9.59162 103.545 12.8149 104.09 14.8888 102.282C16.1881 101.143 16.6628 99.3352 16.1381 97.701C16.1188 97.6054 16.0847 97.5246 16.0471 97.4357L16.0371 97.4121C16.0338 97.4043 16.0305 97.3964 16.0272 97.3884L16.0187 97.3678L16.0132 97.3543C16.0132 97.3543 15.9882 97.3295 15.9882 97.3048C15.9382 97.1562 15.8633 97.0324 15.7883 96.9086L11.9654 90.2724Z" fill="#FFC700"/>
<path d="M64.0907 49.5616C65.5551 49.5616 66.9621 48.9192 67.9383 47.7802C68.7136 46.8749 70.0918 46.7873 70.982 47.5758C71.8721 48.3643 71.9582 49.7661 71.183 50.6714C69.4027 52.7741 66.8185 53.9714 64.0907 53.9714C61.3629 53.9714 58.7787 52.7449 56.9984 50.6714C56.2232 49.7661 56.3093 48.3643 57.1994 47.5758C58.0896 46.7873 59.4678 46.8749 60.2431 47.7802C61.2193 48.9192 62.6263 49.5616 64.0907 49.5616Z" fill="#FFC700"/>
<path d="M76.6281 45.5524C77.8133 45.5524 78.7961 44.5574 78.7961 43.3576C78.7961 41.6603 80.1546 40.2848 81.8312 40.2848C83.5078 40.2848 84.8663 41.6603 84.8663 43.3576C84.8663 44.5574 85.8491 45.5524 87.0343 45.5524C88.2195 45.5524 89.2023 44.5574 89.2023 43.3576C89.2023 39.2606 85.907 35.8952 81.8312 35.8952C77.7843 35.8952 74.4601 39.2313 74.4601 43.3576C74.4601 44.5574 75.4429 45.5524 76.6281 45.5524Z" fill="#FFC700"/>
</g>
</svg>
