<svg width="129" height="129" viewBox="0 0 129 129" fill="none" xmlns="http://www.w3.org/2000/svg">
<mask id="mask0_2067_14821" style="mask-type:alpha" maskUnits="userSpaceOnUse" x="0" y="0" width="129" height="129">
<rect x="0.134766" y="0.426758" width="128" height="128" fill="#C4C4C4"/>
</mask>
<g mask="url(#mask0_2067_14821)">
<path d="M63.7409 122.495C96.0164 122.495 122.181 96.3309 122.181 64.0553C122.181 31.7797 96.0164 5.61523 63.7409 5.61523C31.4653 5.61523 5.30078 31.7797 5.30078 64.0553C5.30078 96.3309 31.4653 122.495 63.7409 122.495Z" fill="#FF8B3B"/>
<path d="M51.3281 118.175C51.3281 118.175 56.0464 110.905 59.6182 109.221C63.19 107.537 63.3223 112.368 59.3536 114.629C55.4291 116.845 51.3281 118.175 51.3281 118.175Z" fill="#E67628"/>
<path d="M67.6437 119.859C67.6437 119.859 64.9097 114.673 65.0861 111.969C65.2625 109.265 66.4972 107.891 67.6437 109.797C68.7902 111.703 67.6437 119.859 67.6437 119.859Z" fill="#E67628"/>
<path d="M18.6529 31.3885C18.6529 31.3885 22.9302 37.6825 26.1933 37.6825C29.4564 37.6825 30.6911 34.5355 26.1933 32.7625C21.6955 30.9896 18.6529 31.3885 18.6529 31.3885Z" fill="#E67628"/>
<path d="M13.3172 43.2673C13.3172 43.2673 16.5363 52.0877 18.8293 51.4229C21.1222 50.7137 21.0341 47.5667 18.6088 45.971C16.1394 44.3754 13.3172 43.2673 13.3172 43.2673Z" fill="#E67628"/>
<path d="M7.9375 63.213C7.9375 63.213 11.6416 58.8693 14.8165 58.7806C18.0355 58.692 18.6088 58.7806 18.6088 58.7806C18.6088 58.7806 13.3172 64.587 7.9375 63.213Z" fill="#E67628"/>
<path d="M10.4069 68.7535C10.4069 68.7535 14.8165 76.1112 18.3442 74.2053C21.8719 72.2994 13.6259 68.9751 10.4069 68.7535Z" fill="#E67628"/>
<path d="M23.7239 87.0149C23.7239 87.0149 21.3868 91.3586 19.7994 94.1067C18.2119 96.8548 17.5505 98.5834 17.5505 98.5834C17.5505 98.5834 26.061 94.6386 25.3996 91.0927C24.694 87.5911 23.7239 87.0149 23.7239 87.0149Z" fill="#E67628"/>
<path d="M38.4079 14.1909C38.4079 14.1909 36.7764 18.2243 36.7764 21.2827C36.7764 24.341 38.0111 26.9561 38.4079 26.7345C38.7607 26.5129 40.9214 24.6513 40.9214 24.6513C40.9214 24.6513 38.0111 15.6979 38.4079 14.1909Z" fill="#E67628"/>
<path d="M108.785 31.3885C108.785 31.3885 104.508 37.6825 101.245 37.6825C97.9818 37.6825 96.7472 34.5355 101.245 32.7625C105.743 30.9896 108.785 31.3885 108.785 31.3885Z" fill="#E67628"/>
<path d="M114.121 43.2673C114.121 43.2673 110.902 52.0877 108.609 51.4229C106.316 50.7137 106.404 47.5667 108.83 45.971C111.299 44.3754 114.121 43.2673 114.121 43.2673Z" fill="#E67628"/>
<path d="M119.545 63.213C119.545 63.213 115.841 58.8693 112.666 58.7806C109.447 58.692 108.874 58.7806 108.874 58.7806C108.874 58.7806 114.121 64.587 119.545 63.213Z" fill="#E67628"/>
<path d="M117.075 68.7535C117.075 68.7535 112.666 76.1112 109.138 74.2053C105.566 72.2994 113.856 68.9751 117.075 68.7535Z" fill="#E67628"/>
<path d="M103.758 87.0149C103.758 87.0149 106.096 91.3586 107.683 94.1067C109.27 96.8548 109.932 98.5834 109.932 98.5834C109.932 98.5834 101.421 94.6386 102.083 91.0927C102.788 87.5911 103.758 87.0149 103.758 87.0149Z" fill="#E67628"/>
<path d="M89.0744 14.1909C89.0744 14.1909 90.706 18.2243 90.706 21.2827C90.706 24.341 89.4713 26.9561 89.0744 26.7345C88.7217 26.5129 86.561 24.6513 86.561 24.6513C86.561 24.6513 89.4272 15.6979 89.0744 14.1909Z" fill="#E67628"/>
<path d="M51.3281 9.93577C51.3281 9.93577 56.0464 17.2049 59.6182 18.8892C63.19 20.5735 63.3223 15.7422 59.3536 13.4817C55.4291 11.2212 51.3281 9.93577 51.3281 9.93577Z" fill="#E67628"/>
<path d="M67.6437 8.25146C67.6437 8.25146 64.9097 13.4374 65.0861 16.1411C65.2625 18.8449 66.4972 20.2189 67.6437 18.313C68.7902 16.407 67.6437 8.25146 67.6437 8.25146Z" fill="#E67628"/>
<path d="M38.4079 113.875C38.4079 113.875 36.7764 109.842 36.7764 106.783C36.7764 103.725 38.0111 101.11 38.4079 101.331C38.7607 101.553 40.9214 103.415 40.9214 103.415C40.9214 103.415 38.0111 112.412 38.4079 113.875Z" fill="#E67628"/>
<path d="M89.0744 113.875C89.0744 113.875 90.706 109.842 90.706 106.783C90.706 103.725 89.4713 101.11 89.0744 101.331C88.7217 101.553 86.561 103.415 86.561 103.415C86.561 103.415 89.4272 112.412 89.0744 113.875Z" fill="#E67628"/>
<path d="M63.3017 111.95C89.9958 111.95 111.636 90.5066 111.636 64.0551C111.636 37.6037 89.9958 16.1606 63.3017 16.1606C36.6076 16.1606 14.9678 37.6037 14.9678 64.0551C14.9678 90.5066 36.6076 111.95 63.3017 111.95Z" fill="#89301E"/>
<path d="M63.3015 105.798C86.5981 105.798 105.484 87.1094 105.484 64.0554C105.484 41.0014 86.5981 22.3125 63.3015 22.3125C40.0048 22.3125 21.1191 41.0014 21.1191 64.0554C21.1191 87.1094 40.0048 105.798 63.3015 105.798Z" fill="#E6D5CA"/>
<path d="M31.9135 51.1125C33.283 47.0281 36.8614 41.5822 36.8614 41.5822C39.4678 38.0688 40.6606 38.5519 44.7249 40.6599C46.0906 41.3991 47.8368 42.9829 49.7665 44.7333C53.4548 48.0786 57.8136 52.0321 61.4679 51.8591C61.6384 51.851 61.8123 51.8426 61.9897 51.8341C67.6044 51.5645 76.5769 51.1335 82.1869 54.582C82.259 54.6263 82.3296 54.6725 82.3987 54.7205C84.2234 53.9679 87.337 53.1874 91.1108 54.2748C97.7374 56.1633 100.211 71.2272 100.211 71.2272L95.7052 72.5448C95.7052 72.5448 93.3639 64.1125 90.6249 59.5011C88.9687 56.6861 85.9719 56.2317 83.8612 56.3123C86.2625 60.2398 85.3848 68.0427 84.7952 73.2837C84.5767 75.2256 84.3978 76.8158 84.44 77.7269C84.5725 81.5478 88.9902 87.6085 88.9902 87.6085L87.3998 89.9801C87.3998 89.9801 82.0986 83.3045 80.4199 80.7133C78.9558 78.5067 78.3753 77.8058 77.9767 77.0143C77.6296 76.3251 77.4204 75.5672 76.8857 73.6864C75.6487 76.5411 69.2873 79.791 69.2873 79.791L72.9098 87.6085L70.966 89.3213C70.966 89.3213 69.464 87.3889 68.3595 85.3686C65.7089 80.4937 65.3113 79.3958 66.239 77.7708C67.1668 76.1458 70.7893 71.227 70.7893 71.227H52.6325C52.6325 71.227 53.9137 76.8485 54.5322 78.6931C55.3273 80.9768 57.8454 88.0916 57.8454 88.0916L55.504 89.9801C55.504 89.9801 52.4117 84.1389 50.3795 79.791C48.3915 75.4431 47.1104 71.4905 47.1104 71.4905C47.1104 71.4905 41.1465 74.3452 40.6164 75.9702C40.0421 77.6391 42.6927 85.1051 42.6927 85.1051L41.014 86.9497C41.014 86.9497 39.026 83.3923 37.7449 80.4059C36.5079 77.4195 36.2871 75.8823 37.1264 73.7303C37.6796 72.3122 39.8826 70.8559 41.8391 69.5625C42.8516 68.8933 43.798 68.2677 44.4156 67.7135C46.2269 66.0446 46.1385 63.6291 44.6365 59.8083C43.1787 56.0313 40.3955 49.4875 40.3955 49.4875C40.3955 49.4875 39.5561 51.1125 37.3473 52.4739C35.1826 53.8354 30.544 55.1969 31.9135 51.1125Z" fill="#89301E"/>
</g>
</svg>
