<svg width="128" height="128" viewBox="0 0 128 128" fill="none" xmlns="http://www.w3.org/2000/svg">
<mask id="mask0_1793_2394" style="mask-type:alpha" maskUnits="userSpaceOnUse" x="0" y="0" width="128" height="128">
<rect width="128" height="128" fill="#C4C4C4"/>
</mask>
<g mask="url(#mask0_1793_2394)">
<path d="M105.552 86.4985H98.0571V93.9935H105.552V86.4985Z" fill="#00A0F9"/>
<path d="M105.552 78.9897V86.4981H98.0571V78.9897H105.525H105.552Z" fill="#00A0F9"/>
<path d="M105.525 71.4951V78.9901H98.057H98.0166V71.4951H105.525Z" fill="#00A0F9"/>
<path d="M98.0572 101.488H90.5488V108.997H98.0572V101.488Z" fill="#00A0F9"/>
<path d="M98.0572 93.9932H90.5488V101.488H98.0572V93.9932Z" fill="#00A0F9"/>
<path d="M98.0572 86.4985H90.5488V93.9935H98.0572V86.4985Z" fill="#CC0000"/>
<path d="M98.0572 78.9897V86.4981H90.5488V78.9897H98.0169H98.0572Z" fill="#CC0000"/>
<path d="M98.0169 71.4951V78.9901H90.5489H90.522V71.4951H98.0169Z" fill="#CC0000"/>
<path d="M98.0169 63.9868H90.522V71.4952H98.0169V63.9868Z" fill="#00A0F9"/>
<path d="M98.0169 56.4912H90.522V63.9862H98.0169V56.4912Z" fill="#00A0F9"/>
<path d="M90.5487 108.983H83.0537V116.478H90.5487V108.983Z" fill="#00A0F9"/>
<path d="M90.5487 101.488H83.0537V108.997H90.5487V101.488Z" fill="#CC0000"/>
<path d="M90.5487 93.9932H83.0537V101.488H90.5487V93.9932Z" fill="#CC0000"/>
<path d="M90.5487 86.4985H83.0537V93.9935H90.5487V86.4985Z" fill="#CC0000"/>
<path d="M90.5487 78.9897V86.4981H83.0537V78.9897H90.5218H90.5487Z" fill="#CC0000"/>
<path d="M90.5218 71.4951V78.9901H83.0538H83.0269V71.4951H90.5218Z" fill="#CC0000"/>
<path d="M90.5218 63.9868H83.0269V71.4952H90.5218V63.9868Z" fill="#43CEFF"/>
<path d="M90.5218 56.4912H83.0269V63.9862H90.5218V56.4912Z" fill="#43CEFF"/>
<path d="M90.5218 48.9834H83.0269V56.4918H90.5218V48.9834Z" fill="#00A0F9"/>
<path d="M90.5218 18.9902V26.4852H83.0269V18.9902H90.5084H90.5218Z" fill="#00A0F9"/>
<path d="M83.0675 108.983H75.5591V116.478H83.0675V108.983Z" fill="#00A0F9"/>
<path d="M83.0675 101.488H75.5591V108.997H83.0675V101.488Z" fill="#CC0000"/>
<path d="M83.0675 93.9932H75.5591V101.488H83.0675V93.9932Z" fill="#CC0000"/>
<path d="M83.0675 86.4985H75.5591V93.9935H83.0675V86.4985Z" fill="#FF3939"/>
<path d="M83.054 78.9897V86.4981H75.5591V78.9897H83.0271H83.054Z" fill="#FF3939"/>
<path d="M83.0265 71.4951V78.9901H75.5584H75.5181V71.4951H83.0265Z" fill="#FF3939"/>
<path d="M83.0265 63.9868H75.5181V71.4952H83.0265V63.9868Z" fill="#83D9FF"/>
<path d="M83.0265 56.4912H75.5181V63.9862H83.0265V56.4912Z" fill="#43CEFF"/>
<path d="M83.0265 48.9834H75.5181V56.4918H83.0265V48.9834Z" fill="#00A0F9"/>
<path d="M83.0265 26.4849H75.5181V33.9933H83.0265V26.4849Z" fill="#00A0F9"/>
<path d="M83.0265 18.9902V26.4852H75.5181V18.9902H83.013H83.0265Z" fill="#83D9FF"/>
<path d="M83.0133 11.4946V18.9896H75.5183H75.5049V11.4946H75.5452H83.0133Z" fill="#00A0F9"/>
<path d="M75.5594 116.492H68.0645V124H75.5594V116.492Z" fill="#00A0F9"/>
<path d="M75.5594 108.983H68.0645V116.478H75.5594V108.983Z" fill="#00A0F9"/>
<path d="M75.5594 101.488H68.0645V108.997H75.5594V101.488Z" fill="#CC0000"/>
<path d="M75.5594 93.9932H68.0645V101.488H75.5594V93.9932Z" fill="#FF3939"/>
<path d="M75.5594 86.4985H68.0645V93.9935H75.5594V86.4985Z" fill="#FF3939"/>
<path d="M75.5594 78.9897V86.4981H68.0645V78.9897H75.519H75.5594Z" fill="#FF3939"/>
<path d="M75.5452 4V11.495H75.5049H68.0503V4H75.5452Z" fill="#3F2C13"/>
<path d="M75.5184 71.4951V78.9901H68.0638H68.0369H68.0234V71.4951H75.5184Z" fill="#FF3939"/>
<path d="M75.5184 63.9868H68.0234V71.4952H75.5184V63.9868Z" fill="#83D9FF"/>
<path d="M75.5184 56.4912H68.0234V63.9862H75.5184V56.4912Z" fill="#43CEFF"/>
<path d="M75.5184 48.9834H68.0234V56.4918H75.5184V48.9834Z" fill="#00A0F9"/>
<path d="M75.5184 41.4883H68.0234V48.9832H75.5184V41.4883Z" fill="#00A0F9"/>
<path d="M75.5184 33.9932H68.0234V41.4881H75.5184V33.9932Z" fill="#00A0F9"/>
<path d="M75.5184 26.4849H68.0234V33.9933H75.5184V26.4849Z" fill="#00A0F9"/>
<path d="M75.5184 18.9902V26.4852H68.0234V18.9902H75.5049H75.5184Z" fill="#739293"/>
<path d="M75.5052 11.4946V18.9896H68.0237H68.0103V11.4946H68.0237H68.0506H75.5052Z" fill="#739293"/>
<path d="M68.0369 116.492H60.542V124H68.0369V116.492Z" fill="#00A0F9"/>
<path d="M68.0369 108.983H60.542V116.478H68.0369V108.983Z" fill="#CC0000"/>
<path d="M68.0369 101.488H60.542V108.997H68.0369V101.488Z" fill="#CC0000"/>
<path d="M68.0369 93.9932H60.542V101.488H68.0369V93.9932Z" fill="#FF3939"/>
<path d="M68.0369 86.4985H60.542V93.9935H68.0369V86.4985Z" fill="#FF3939"/>
<path d="M68.0369 78.9897V86.4981H60.542V78.9897H67.9966H68.0235H68.0369Z" fill="#FF3939"/>
<path d="M68.0238 4V11.495H68.0103H67.9834H60.5288V4H68.0238Z" fill="#634B27"/>
<path d="M68.0238 71.4946V78.9896H67.9969V71.4946V63.9862V56.4913V48.9828V41.4879V33.9929V26.4845V18.9896H67.9834V11.4946H68.0103V18.9896H68.0238V26.4845V33.9929V41.4879V48.9828V56.4913V63.9862V71.4946Z" fill="#83D9FF"/>
<path d="M67.9969 71.4951V78.9901H60.5423H60.502V71.4951H67.9969Z" fill="#FF3939"/>
<path d="M67.9969 63.9868H60.502V71.4952H67.9969V63.9868Z" fill="#83D9FF"/>
<path d="M67.9969 56.4912H60.502V63.9862H67.9969V56.4912Z" fill="#83D9FF"/>
<path d="M67.9969 48.9834H60.502V56.4918H67.9969V48.9834Z" fill="#83D9FF"/>
<path d="M67.9969 41.4883H60.502V48.9832H67.9969V41.4883Z" fill="#83D9FF"/>
<path d="M67.9969 33.9932H60.502V41.4881H67.9969V33.9932Z" fill="#83D9FF"/>
<path d="M67.9969 26.4849H60.502V33.9933H67.9969V26.4849Z" fill="#83D9FF"/>
<path d="M67.9969 18.9902V26.4852H60.502V18.9902H67.9835H67.9969Z" fill="#739293"/>
<path d="M67.9832 11.4946V18.9896H60.5017H60.4883V11.4946H60.5286H67.9832Z" fill="#739293"/>
<path d="M60.5423 116.492H53.0474V124H60.5423V116.492Z" fill="#00A0F9"/>
<path d="M60.5423 108.983H53.0474V116.478H60.5423V108.983Z" fill="#00A0F9"/>
<path d="M60.5423 101.488H53.0474V108.997H60.5423V101.488Z" fill="#CC0000"/>
<path d="M60.5423 93.9932H53.0474V101.488H60.5423V93.9932Z" fill="#FF3939"/>
<path d="M60.5423 86.4985H53.0474V93.9935H60.5423V86.4985Z" fill="#FF3939"/>
<path d="M60.5423 78.9897V86.4981H53.0474V78.9897H60.5019H60.5423Z" fill="#FF3939"/>
<path d="M60.5282 4V11.495H60.4878H53.0332V4H60.5282Z" fill="#634B27"/>
<path d="M60.5016 71.4951V78.9901H53.047H52.9932V71.4951H60.5016Z" fill="white"/>
<path d="M60.5016 63.9868H52.9932V71.4952H60.5016V63.9868Z" fill="white"/>
<path d="M60.5016 56.4912H52.9932V63.9862H60.5016V56.4912Z" fill="#83D9FF"/>
<path d="M60.5016 48.9834H52.9932V56.4918H60.5016V48.9834Z" fill="#00A0F9"/>
<path d="M60.5016 41.4883H52.9932V48.9832H60.5016V41.4883Z" fill="#00A0F9"/>
<path d="M60.5016 33.9932H52.9932V41.4881H60.5016V33.9932Z" fill="#00A0F9"/>
<path d="M60.5016 26.4849H52.9932V33.9933H60.5016V26.4849Z" fill="#00A0F9"/>
<path d="M60.5016 18.9902V26.4852H52.9932V18.9902H60.4881H60.5016Z" fill="#739293"/>
<path d="M60.4881 11.4946V18.9896H52.9932V11.4946H53.0335H60.4881Z" fill="#739293"/>
<path d="M53.047 108.983H45.5386V116.478H53.047V108.983Z" fill="#00A0F9"/>
<path d="M53.047 101.488H45.5386V108.997H53.047V101.488Z" fill="#CC0000"/>
<path d="M53.047 93.9932H45.5386V101.488H53.047V93.9932Z" fill="#FF3939"/>
<path d="M53.047 86.4985H45.5386V93.9935H53.047V86.4985Z" fill="#FF3939"/>
<path d="M53.047 78.9897V86.4981H45.5386V78.9897H52.9932H53.047Z" fill="white"/>
<path d="M52.9935 71.4951V78.9901H45.5389H45.4985V71.4951H52.9935Z" fill="white"/>
<path d="M52.9935 63.9868H45.4985V71.4952H52.9935V63.9868Z" fill="white"/>
<path d="M52.9935 56.4912H45.4985V63.9862H52.9935V56.4912Z" fill="#83D9FF"/>
<path d="M52.9935 48.9834H45.4985V56.4918H52.9935V48.9834Z" fill="#00A0F9"/>
<path d="M52.9935 26.4849H45.4985V33.9933H52.9935V26.4849Z" fill="#00A0F9"/>
<path d="M52.9935 18.9902V26.4852H45.4985V18.9902H52.9935Z" fill="#83D9FF"/>
<path d="M52.9933 11.4946V18.9896H45.4983H45.4849V11.4946H45.5252H52.9933Z" fill="white"/>
<path d="M45.5389 108.983H38.0439V116.478H45.5389V108.983Z" fill="#00A0F9"/>
<path d="M45.5389 101.488H38.0439V108.997H45.5389V101.488Z" fill="#CC0000"/>
<path d="M45.5389 93.9932H38.0439V101.488H45.5389V93.9932Z" fill="#CC0000"/>
<path d="M45.5389 86.4985H38.0439V93.9935H45.5389V86.4985Z" fill="#FF3939"/>
<path d="M45.5389 78.9897V86.4981H38.0439V78.9897H45.4985H45.5389Z" fill="white"/>
<path d="M45.4984 71.4951V78.9901H38.0438H38.0034V71.4951H45.4984Z" fill="white"/>
<path d="M45.5118 63.9868H38.0034V71.4952H45.5118V63.9868Z" fill="#83D9FF"/>
<path d="M45.5118 56.4912H38.0034V63.9862H45.5118V56.4912Z" fill="#83D9FF"/>
<path d="M45.5118 48.9834H38.0034V56.4918H45.5118V48.9834Z" fill="#00A0F9"/>
<path d="M45.4984 18.9902V26.4852H38.0034V18.9902H45.4849H45.4984Z" fill="#00A0F9"/>
<path d="M38.0441 101.488H30.5356V108.997H38.0441V101.488Z" fill="#00A0F9"/>
<path d="M38.0441 93.9932H30.5356V101.488H38.0441V93.9932Z" fill="#00A0F9"/>
<path d="M38.0441 86.4985H30.5356V93.9935H38.0441V86.4985Z" fill="#FF3939"/>
<path d="M38.0441 78.9897V86.4981H30.5356V78.9897H38.0037H38.0441Z" fill="#FF3939"/>
<path d="M38.0033 71.4951V78.9901H30.5352H30.5083V71.4951H38.0033Z" fill="#FF3939"/>
<path d="M38.0033 63.9868H30.5083V71.4952H38.0033V63.9868Z" fill="#00A0F9"/>
<path d="M38.0033 56.4912H30.5083V63.9862H38.0033V56.4912Z" fill="#00A0F9"/>
<path d="M30.535 86.4985H23.04V93.9935H30.535V86.4985Z" fill="#00A0F9"/>
<path d="M30.535 78.9897V86.4981H23.04V78.9897H30.5081H30.535Z" fill="#00A0F9"/>
<path d="M30.5084 71.4951V78.9901H23.0404H23V71.4951H30.5084Z" fill="#00A0F9"/>
</g>
</svg>
