<svg width="128" height="128" viewBox="0 0 128 128" fill="none" xmlns="http://www.w3.org/2000/svg">
<mask id="mask0" mask-type="alpha" maskUnits="userSpaceOnUse" x="0" y="0" width="128" height="128">
<rect width="128" height="128" fill="#C4C4C4"/>
</mask>
<g mask="url(#mask0)">
<path d="M111.574 108.745C108.852 108.151 106.101 109.603 105.049 112.182C103.84 115.146 101.516 118.463 97.1534 118.537C92.5354 118.614 85.6713 114.558 80.3896 110.858C80.2081 113.844 79.7408 116.923 78.8594 119.959C82.7534 124.216 88.8104 128.123 97.8968 127.997C108.291 127.851 113.243 121.764 115.564 116.719C117.09 113.401 115.141 109.524 111.574 108.745Z" fill="#AD5E2E"/>
<path d="M97.8957 123.104C89.4917 123.222 83.6798 119.887 79.7734 116.018C79.5371 117.332 79.238 118.65 78.8574 119.959C82.7523 124.216 88.8093 128.123 97.8957 127.997C108.29 127.851 113.242 121.764 115.563 116.719C116.307 115.102 116.223 113.353 115.531 111.894C113.197 116.926 108.245 122.96 97.8957 123.104Z" fill="#A05528"/>
<path d="M91.1837 92.0654C89.9323 84.1472 85.5215 76.9326 81.9664 72.1987C75.4412 75.2316 67.1841 76.6131 58.6765 76.6131C49.5928 76.6131 40.7932 75.0396 34.0848 71.5615C30.4581 76.2706 25.6914 83.7835 24.3834 92.0654C21.9443 107.497 35.1132 109.479 35.1132 109.479H35.1141C35.2672 114.144 36.0796 119.089 38.0638 123.787C39.14 126.336 41.6348 127.997 44.4014 127.997C47.7219 127.997 50.5681 125.622 51.1628 122.355L52.4894 115.066H63.0785L64.4043 122.355C64.999 125.622 67.8452 127.997 71.1657 127.997C73.9323 127.997 76.4271 126.336 77.5033 123.787C79.4875 119.089 80.2999 114.144 80.453 109.479H80.4539C80.4539 109.479 93.6228 107.498 91.1837 92.0654Z" fill="#DD8858"/>
<path d="M35.9142 98.1109C30.4529 98.3074 26.8057 95.625 24.3737 92.1389C21.9886 107.502 35.1115 109.479 35.1142 109.479C34.9788 105.348 35.3629 101.437 35.9142 98.1109Z" fill="#D97F4A"/>
<path d="M79.6543 98.1109C85.1148 98.3074 88.7628 95.625 91.1948 92.1389C93.579 107.502 80.4561 109.479 80.4543 109.479C80.5897 105.348 80.2048 101.437 79.6543 98.1109Z" fill="#D97F4A"/>
<path d="M39.1795 86.3791C38.2953 85.9817 37.2563 86.3773 36.859 87.2623C36.7572 87.4889 34.3473 92.9016 32.7773 100.429C32.1852 103.268 31.8215 105.894 31.6348 108.32C33.4172 109.173 34.8677 109.437 35.0845 109.473C35.7633 98.4648 39.9999 88.8412 40.0627 88.7005C40.4601 87.8155 40.0645 86.7765 39.1795 86.3791Z" fill="#CA6D36"/>
<path d="M82.7909 100.43C81.2209 92.9017 78.8119 87.489 78.7101 87.2625C78.3128 86.3774 77.2738 85.9827 76.3897 86.3792C75.5046 86.7766 75.109 87.8156 75.5055 88.6997C75.5684 88.8413 79.8049 98.464 80.4846 109.473C80.7005 109.438 82.1511 109.173 83.9335 108.32C83.7467 105.895 83.383 103.268 82.7909 100.43Z" fill="#CA6D36"/>
<path d="M44.5844 119.947C40.8957 119.564 37.7982 117.479 35.7246 115.64C36.1901 118.371 36.938 121.119 38.0646 123.787C39.1407 126.335 41.6356 127.997 44.4021 127.997C47.7227 127.997 50.5688 125.622 51.1636 122.355L51.6698 119.574C49.9467 119.981 47.5749 120.256 44.5844 119.947Z" fill="#D97F4A"/>
<path d="M70.9838 119.947C74.6725 119.564 77.77 117.479 79.8436 115.64C79.3781 118.371 78.6303 121.119 77.5037 123.787C76.4275 126.335 73.9327 127.997 71.1661 127.997C67.8447 127.997 64.9994 125.622 64.4047 122.355L63.8984 119.574C65.6215 119.981 67.9934 120.256 70.9838 119.947Z" fill="#D97F4A"/>
<path d="M22.9104 45.8027C22.9767 45.5443 23.0458 45.2885 23.1166 45.0336C22.4776 44.8929 21.8147 44.8159 21.1342 44.8159C16.0896 44.8159 12 48.9055 12 53.9492C12 58.9937 16.0896 63.0834 21.1342 63.0834C22.244 63.0834 23.3069 62.8851 24.2901 62.5231C21.8714 58.1185 21.1749 52.5889 22.9104 45.8027Z" fill="#FFAE8B"/>
<path d="M21.1342 56.7611C17.2012 56.7611 13.8488 54.2751 12.5629 50.7891C12.1991 51.7741 12 52.8387 12 53.9494C12 58.994 16.0896 63.0836 21.1342 63.0836C22.2431 63.0836 23.306 62.8853 24.2901 62.5234C23.3228 60.7622 22.6316 58.8205 22.2608 56.6912C21.8917 56.7363 21.5156 56.7611 21.1342 56.7611Z" fill="#FF9568"/>
<path d="M94.4452 45.8027C94.3789 45.5443 94.3098 45.2885 94.2399 45.0336C94.878 44.8929 95.5409 44.8159 96.2223 44.8159C101.266 44.8159 105.356 48.9055 105.356 53.9492C105.356 58.9937 101.267 63.0834 96.2223 63.0834C95.1125 63.0834 94.0496 62.8851 93.0664 62.5231C95.4851 58.1185 96.1807 52.5889 94.4452 45.8027Z" fill="#FFAE8B"/>
<path d="M96.2223 56.7611C100.156 56.7611 103.508 54.2751 104.795 50.7891C105.157 51.7741 105.357 52.8387 105.357 53.9494C105.357 58.994 101.267 63.0836 96.2223 63.0836C95.1134 63.0836 94.0505 62.8853 93.0664 62.5234C94.0337 60.7622 94.7249 58.8205 95.0957 56.6912C95.4648 56.7363 95.8409 56.7611 96.2223 56.7611Z" fill="#FF9568"/>
<path d="M23.1077 51.7391C22.3784 51.1001 21.2686 51.1727 20.6296 51.9028C19.9208 52.7117 18.2587 52.5754 17.7295 52.463C16.7861 52.255 15.8515 52.8489 15.6391 53.7923C15.4258 54.7384 16.0196 55.6782 16.9666 55.8915C17.0542 55.911 17.7481 56.0606 18.6782 56.0606C18.8331 56.0606 18.9941 56.057 19.1605 56.0473C20.8872 55.9482 22.3085 55.3154 23.2705 54.218C23.9095 53.4887 23.8369 52.3789 23.1077 51.7391Z" fill="#FF7D43"/>
<path d="M101.715 53.8038C101.508 52.8604 100.573 52.2621 99.6286 52.463C99.1021 52.5745 97.4374 52.7117 96.7267 51.9028C96.0877 51.1727 94.9779 51.1001 94.2487 51.7391C93.5194 52.3789 93.4469 53.4887 94.0858 54.218C95.0487 55.3154 96.4692 55.9473 98.1958 56.0473C98.3622 56.0561 98.5233 56.0606 98.6781 56.0606C99.6092 56.0606 100.303 55.911 100.391 55.8915C101.332 55.6791 101.921 54.7472 101.715 53.8038Z" fill="#FF7D43"/>
<path d="M94.4454 45.8027C92.3798 37.7261 88.1123 31.8718 83.2208 27.6397C79.5436 24.459 75.3885 22.1128 71.006 20.5977L71.0077 20.5968C64.2604 17.2178 52.2907 15.2071 48.5693 14.9434C45.7178 14.7416 44.0309 13.6539 43.0548 12.6069C42.1724 11.6617 40.606 11.8476 39.9758 12.976C37.7261 17.0036 38.2572 21.5721 38.8572 24.1642C37.2155 25.1847 35.6358 26.3422 34.1357 27.6397C29.2442 31.8718 24.9767 37.7261 22.9102 45.8027C17.2834 67.8048 37.1872 76.6133 58.6778 76.6133C80.1685 76.6133 100.072 67.8057 94.4454 45.8027Z" fill="#FFCB9D"/>
<path d="M58.6782 70.2917C40.8975 70.2917 24.2045 64.2622 22.1575 49.7197C19.7432 68.8571 38.5115 76.6133 58.6782 76.6133C78.8448 76.6133 97.6132 68.8571 95.1998 49.7197C93.1519 64.2622 76.4589 70.2917 58.6782 70.2917Z" fill="#FFBA7E"/>
<path d="M94.4448 45.8027C92.3792 37.7261 88.1117 31.8718 83.2202 27.6397C79.543 24.459 75.3879 22.1128 71.0054 20.5977L71.0071 20.5968C64.2598 17.2178 52.2901 15.2071 48.5687 14.9434C45.7172 14.7416 44.0303 13.6539 43.0542 12.6069C42.1718 11.6617 40.6054 11.8476 39.9752 12.976C37.7256 17.0036 38.2566 21.5721 38.8566 24.1642C37.2149 25.1847 35.6352 26.3422 34.1351 27.6397C29.2436 31.8718 24.9761 37.7261 22.9096 45.8027C22.2441 48.4046 21.9406 50.8198 21.9494 53.0597C24.0902 52.4305 26.9037 50.9534 29.6861 47.5718C35.3422 40.7006 34.9997 33.4621 42.8435 33.2692C48.6669 33.1249 50.0971 38.3332 58.6772 38.3332C67.2574 38.3332 68.6875 33.1249 74.5109 33.2692C82.3547 33.4621 82.0131 40.7006 87.6683 47.5718C90.4508 50.9534 93.2642 52.4305 95.405 53.0597C95.4139 50.8198 95.1103 48.4046 94.4448 45.8027Z" fill="#DD8858"/>
<path d="M41.7562 44.0034C39.7463 44.0034 38.1719 45.9602 38.1719 48.4594C38.1719 50.9587 39.7463 52.9163 41.7562 52.9163C43.766 52.9163 45.3404 50.9587 45.3404 48.4594C45.3404 45.9602 43.766 44.0034 41.7562 44.0034Z" fill="#433F43"/>
<path d="M75.0042 44.0034C72.9944 44.0034 71.4199 45.9602 71.4199 48.4594C71.4199 50.9587 72.9944 52.9163 75.0042 52.9163C77.0141 52.9163 78.5885 50.9587 78.5885 48.4594C78.5885 45.9602 77.0141 44.0034 75.0042 44.0034Z" fill="#433F43"/>
<path d="M63.7744 53.1281C63.7744 52.5166 63.539 51.0377 61.3574 50.5209C60.6415 50.351 59.7511 50.2793 58.3794 50.2793C57.0085 50.2793 56.1173 50.3519 55.4013 50.5209C53.2198 51.0377 52.9844 52.5166 52.9844 53.1281C52.9844 54.7981 54.573 56.3504 56.6226 56.939V60.8755C56.6226 61.8455 57.4094 62.6322 58.3794 62.6322C59.3493 62.6322 60.1352 61.8455 60.1352 60.8755V56.939C62.1858 56.3504 63.7744 54.7981 63.7744 53.1281Z" fill="#AD5E2E"/>
</g>
</svg>
