<svg width="129" height="129" viewBox="0 0 129 129" fill="none" xmlns="http://www.w3.org/2000/svg">
<mask id="mask0_1585_2166" style="mask-type:alpha" maskUnits="userSpaceOnUse" x="0" y="0" width="129" height="129">
<rect x="0.847656" y="0.827148" width="128" height="128" fill="#C4C4C4"/>
</mask>
<g mask="url(#mask0_1585_2166)">
<path d="M31.5512 18.6632C33.2086 20.4694 34.9724 22.1693 36.8636 23.7418C38.2023 21.0006 39.5623 18.2594 40.901 15.5394C41.241 14.8382 42.261 13.6482 42.261 13.6482L49.7834 13.5845C49.7834 13.5845 52.3546 11.7783 53.5658 10.7583C56.1158 8.63331 59.6645 8.14456 63.0219 7.74082C63.6594 7.65582 64.3394 7.59207 64.9557 7.80457C65.5294 7.99582 65.9969 8.42081 66.4431 8.8458C70.0343 12.2245 73.6043 15.5819 77.1955 18.9606C78.7042 20.3844 81.3817 27.333 81.2329 29.1392C80.8717 33.1342 80.5104 37.1079 80.1704 41.1028C82.4654 37.9154 85.2278 30.6692 85.2278 30.6692C85.2278 30.6692 85.7378 15.5607 86.1628 15.5182C87.8628 15.3482 92.389 14.902 92.8352 15.1782C93.2177 15.412 96.9789 23.5506 98.6576 27.2268C100.336 26.2068 101.824 24.9318 103.056 23.4443C105.458 25.463 108.475 28.3318 111.577 30.733C111.577 30.733 115.254 40.5291 115.636 42.994C116.104 46.0327 117.655 60.9288 112.789 68.6636C107.901 76.3985 100.634 82.4972 92.7715 87.3846C86.4603 91.3158 79.6392 94.5882 72.3505 96.267C65.0407 97.9457 57.2208 97.9669 50.1021 95.5232C41.411 92.5483 34.3986 86.2159 28.2362 79.5435C23.3063 74.2098 18.6314 68.2599 17.1014 61.29C15.9964 56.2751 16.7827 51.2814 16.6339 46.224C16.5489 43.419 15.3802 35.9179 15.4439 33.1129C15.4439 31.5192 30.8287 17.9194 31.5512 18.6632Z" fill="#E2E2E2"/>
<path d="M36.2872 87.4058C33.3972 84.9834 30.7198 82.2847 28.1698 79.5435C23.2399 74.2098 18.565 68.2599 17.035 61.29C15.93 56.2751 16.7162 51.2814 16.5675 46.224C16.4825 43.419 15.3138 35.9179 15.3775 33.1129C15.42 31.5192 30.8048 17.9407 31.5273 18.6632C33.1847 20.4694 34.9485 22.1693 36.8397 23.7418C38.1784 21.0006 39.5384 18.2594 40.8771 15.5394C41.2171 14.8382 42.2371 13.6482 42.2371 13.6482L49.7595 13.5845C49.7595 13.5845 52.3307 11.7783 53.5419 10.7583C56.0919 8.63331 59.6406 8.14456 62.998 7.74082C63.6355 7.65582 64.3155 7.59207 64.9318 7.80457C65.5055 7.99582 65.973 8.42081 66.4192 8.8458C67.9492 10.2695 69.4579 11.7145 70.9879 13.1382C68.778 16.8357 66.908 20.7456 65.5267 24.8043C63.3805 31.1155 62.403 37.8516 63.0193 44.5028C63.8905 53.7676 67.7155 62.5225 72.0291 70.8736C73.4104 73.5298 74.8341 76.2073 75.3866 79.1397C75.9391 82.0509 75.4503 85.3234 73.3679 87.4696C71.8167 89.0633 69.6067 89.8708 67.418 90.4445C57.1544 93.122 46.0195 91.762 36.2872 87.4058Z" fill="#D6D6D6"/>
<path d="M17.035 61.2689C15.93 56.254 16.7162 51.2603 16.5675 46.2029C16.4825 43.3979 15.3138 35.8968 15.3775 33.0919C15.42 31.4981 30.8048 17.9196 31.5273 18.6421C32.611 19.8321 33.7585 20.9795 34.9485 22.0633C34.906 22.382 34.8635 22.6795 34.8422 22.9983C31.7823 68.1113 54.9869 76.5899 53.4144 82.1786C52.5857 85.1323 44.6383 84.7498 41.5359 85.3023C38.8797 85.7698 36.2447 84.5373 33.886 83.2623C32.2073 82.3486 30.5498 81.3711 28.9348 80.3299C28.6798 80.0536 28.4461 79.7986 28.1911 79.5224C23.2611 74.1887 18.565 68.2601 17.035 61.2689Z" fill="#C1C1C1"/>
<path opacity="0.46" d="M22.0707 46.5429C26.1506 43.0367 31.548 41.5493 36.8179 40.4655C52.9039 37.1293 69.5424 36.4918 85.8197 38.6168C92.1096 39.4455 98.4633 40.7205 103.967 43.8867C109.449 47.0529 113.976 52.4291 114.741 58.7402C115.633 66.1776 111.043 73.4875 104.796 77.6312C98.5483 81.7749 90.9409 83.2836 83.4822 84.0061C68.7775 85.4298 53.8602 84.1761 39.4104 81.0737C29.6993 78.9912 22.3469 75.485 17.9057 66.2414C14.8245 59.7602 16.5033 51.3241 22.0707 46.5429Z" fill="#FFEFCF"/>
<path d="M29.9362 56.041C32.7837 51.7698 37.3523 48.8586 42.2185 47.1799C47.0634 45.5012 52.2271 44.9274 57.3483 44.5237C64.1907 43.9925 71.1181 43.7162 77.918 44.7574C84.7178 45.7774 91.4115 48.1574 96.7877 52.4286C99.2739 54.4048 101.463 56.806 102.78 59.6747C105.16 64.9446 104.225 71.3408 101.123 76.207C98.0201 81.0731 93.0052 84.5156 87.6078 86.5768C82.2104 88.6168 76.4092 89.3818 70.6506 89.7855C63.8082 90.2742 56.8808 90.253 50.1871 88.7868C43.4935 87.3205 37.0123 84.3031 32.2312 79.4157C26.4938 73.572 25.3038 62.9472 29.9362 56.041Z" fill="#EDBF2F"/>
<path d="M102.629 59.5266C101.312 56.6366 99.1231 54.2354 96.6369 52.2804C95.9781 51.7492 95.2981 51.2605 94.5969 50.793C94.5331 51.0905 94.5544 51.4092 94.5544 51.728C94.5544 56.0841 90.262 59.1441 86.2458 60.8016C78.5534 64.0103 70.1173 65.094 61.7662 65.0303C53.7338 64.9878 45.4677 63.819 38.5403 59.7391C36.6278 58.6128 34.8003 57.1254 33.5678 55.2766C33.2491 54.7879 32.8878 53.7042 32.4629 52.7054C31.4641 53.6617 30.5504 54.7242 29.7854 55.8929C25.153 62.8203 26.3429 73.4239 32.0591 79.2675C36.8615 84.155 43.3214 87.1724 50.0151 88.6386C56.7087 90.1049 63.6361 90.1049 70.4785 89.6374C76.2372 89.2336 82.0383 88.4686 87.4358 86.4287C92.8332 84.3887 97.8481 80.9463 100.951 76.0801C104.053 71.1927 105.009 64.7965 102.629 59.5266Z" fill="#E8B81F"/>
<path d="M19.0318 50.8136C20.328 49.7936 24.1529 47.3287 25.4492 46.3087C31.4416 55.1698 35.989 66.0072 43.1501 74.0183C44.9989 72.892 48.6963 69.0459 49.9713 67.3246C51.1613 69.3646 52.6912 71.2133 54.4762 72.7858C55.6875 72.0633 56.8987 71.3408 58.1099 70.6183C60.8086 74.2945 64.4636 77.2907 68.6073 79.3094C73.1759 74.9958 77.7234 70.6608 82.292 66.3471C84.5658 68.0896 87.052 69.5558 89.6657 70.7458C90.1969 70.9796 96.6143 68.2596 98.548 65.4334C98.548 65.4334 99.6318 57.9323 100.121 51.7699C103.648 52.2161 111.532 52.0674 111.532 52.0674C111.532 52.0674 113.444 37.4901 111.532 30.6689C120.435 48.2849 117.396 79.1607 115.845 84.5794C110.023 105.043 86.6695 131.18 46.2526 117.431C40.6639 115.54 35.6065 112.331 31.2291 108.464C25.7892 103.683 21.433 97.7967 18.1605 91.4005C13.7406 82.7944 12.4231 73.2108 11.7219 63.6484C10.5956 48.3062 15.3981 33.0914 15.3981 33.0914C15.3981 33.0914 17.4805 48.1574 19.0318 50.8136Z" fill="#EE9F74"/>
<path d="M49.1016 118.366C51.0778 118.706 53.0753 118.898 55.0727 118.876C62.5951 118.749 74.3887 116.56 80.6361 112.523C110.109 93.568 106.986 68.3871 107.347 60.6097C107.517 57.061 106.624 54.5748 105.222 52.0461C108.409 52.1099 111.533 52.0674 111.533 52.0674C111.533 52.0674 113.446 37.4901 111.533 30.6689C120.437 48.2849 117.398 79.1607 115.847 84.5794C110.152 104.554 87.776 129.947 49.1016 118.366Z" fill="#E59576"/>
<path opacity="0.19" d="M23.7668 56.5937C27.2093 60.2486 27.7193 65.6885 27.1455 70.5972C26.5718 75.5059 25.1693 80.3508 25.5093 85.2807C25.7218 88.3619 26.6143 91.4007 28.1018 94.1419C28.5268 94.9281 28.9943 95.6931 29.1218 96.5643C29.2493 97.4356 28.888 98.4343 28.0805 98.7743C27.0818 99.1993 25.9556 98.5193 25.1906 97.7543C23.9793 96.5643 23.1081 95.0981 22.3006 93.6319C18.9644 87.5545 16.7332 80.9246 15.7132 74.1247C15.2032 70.7035 14.9907 67.2185 15.097 63.7761C15.1607 61.7149 14.7995 58.2724 15.9682 56.4024C17.8169 53.47 21.7269 54.4475 23.7668 56.5937Z" fill="white"/>
<path opacity="0.39" d="M37.8379 53.0875C37.4129 54.065 37.4129 55.3188 38.1567 56.0837C38.8367 56.8062 39.9629 56.9125 40.9191 56.6575C41.8754 56.4025 42.7041 55.8287 43.5329 55.3188C47.5915 52.7688 52.1602 51.0476 56.8989 50.3038C60.4476 49.7513 66.8862 49.9213 66.8862 46.9464C66.8862 45.1402 61.4463 45.4589 58.6201 45.8414C52.904 46.5851 40.5791 46.8826 37.8379 53.0875Z" fill="white"/>
<path opacity="0.39" d="M68.9051 46.309C68.5863 46.5853 68.4376 47.074 68.6501 47.4565C68.7351 47.6265 68.8838 47.7328 69.0538 47.839C69.4151 48.0515 69.8401 48.1153 70.265 48.179C71.4763 48.349 72.6875 48.4127 73.92 48.3915C74.2175 48.3915 74.4937 48.3702 74.77 48.2852C75.0462 48.179 75.28 47.9878 75.365 47.7115C75.4712 47.3503 75.28 46.9465 74.9825 46.7128C74.685 46.479 74.3025 46.394 73.92 46.3303C72.985 46.1603 72.0288 46.0753 71.0938 46.0753C70.4138 46.054 69.4788 45.8415 68.9051 46.309Z" fill="white"/>
<path opacity="0.58" d="M31.6759 47.8812C32.4196 47.8812 33.1209 47.5624 33.7796 47.2437C35.5646 46.4149 37.307 45.5012 39.1133 44.7362C47.6769 41.1025 57.2605 41.0175 66.5678 40.5713C67.2053 40.55 67.9066 40.4863 68.3316 40.0188C67.6091 39.1688 66.3766 39.0413 65.2716 38.9988C56.2192 38.6163 47.1456 39.445 38.327 41.485C35.7983 42.0587 33.3759 42.8237 31.2084 44.2687C29.6997 45.2674 28.9984 47.9237 31.6759 47.8812Z" fill="white"/>
<path opacity="0.58" d="M81.466 40.7842C81.2535 41.1667 81.4235 41.6554 81.721 41.9529C82.0398 42.2504 82.4435 42.3991 82.8685 42.5266C87.9897 44.1416 93.6209 44.8004 97.8708 48.0516C98.7633 48.7315 99.6133 49.5603 100.697 49.8578C101.781 50.1553 103.183 49.6878 103.438 48.5828C103.629 47.7116 103.034 46.8828 102.376 46.3091C101.271 45.3528 99.9108 44.7366 98.572 44.1841C95.7033 43.0154 92.7496 41.9954 89.7322 41.3154C88.3934 40.9967 82.316 39.2967 81.466 40.7842Z" fill="white"/>
</g>
</svg>
