<svg width="129" height="129" viewBox="0 0 129 129" fill="none" xmlns="http://www.w3.org/2000/svg">
<path d="M11.8106 98.5345C13.8822 102.646 16.7366 106.314 20.2136 109.333C30.1736 118.115 45.3626 122.486 62.7066 122.486C63.2066 122.486 63.7056 122.486 64.2046 122.446C83.0666 122.147 99.4536 115.48 108.395 105.68C110.366 103.551 112.014 101.143 113.285 98.5345C113.405 98.2945 113.505 98.0546 113.605 97.8156C114.911 94.9023 115.591 91.7472 115.601 88.5546V49.5735C115.601 26.5205 97.3776 7.07955 74.3236 6.72055C70.9803 6.65902 67.642 7.00762 64.3836 7.75855C45.3056 12.1035 31.7716 29.0685 31.7706 48.6355V81.1695C31.8228 85.0514 30.8523 88.8786 28.9566 92.2665C26.3216 96.7975 20.7136 100.591 11.8116 98.5345H11.8106Z" fill="#D489E0"/>
<path d="M23.7906 109.094C33.8106 117.736 48.8996 122.187 66.2046 122.446C85.0666 122.147 101.454 115.48 110.395 105.68C112.366 103.551 114.014 101.143 115.285 98.5347C115.405 98.2947 115.505 98.0547 115.605 97.8157V45.9407C115.55 25.3357 98.8056 8.67167 78.2006 8.71667C75.6649 8.71025 73.1356 8.97102 70.6546 9.49467C53.2956 12.9877 40.8056 28.2337 40.7956 45.9407V91.4297C40.7956 91.4297 40.7956 104.085 23.7906 109.095V109.094Z" fill="#E9B9F4"/>
<path d="M93.6486 44.6436C93.6486 39.1316 96.3286 34.6636 99.6366 34.6636C102.944 34.6636 105.625 39.1316 105.625 44.6436C105.625 50.1556 102.944 54.6236 99.6366 54.6236C96.3296 54.6236 93.6486 50.1556 93.6486 44.6436Z" fill="#37474F"/>
<path d="M99.6366 42.6478C99.6366 40.4438 100.531 38.6558 101.633 38.6558C102.736 38.6558 103.629 40.4438 103.629 42.6478C103.629 44.8528 102.736 46.6398 101.633 46.6398C100.531 46.6398 99.6366 44.8528 99.6366 42.6478Z" fill="white"/>
<path d="M55.7256 44.6436C55.7256 39.1316 58.4056 34.6636 61.7136 34.6636C65.0206 34.6636 67.7006 39.1316 67.7006 44.6436C67.7006 50.1556 65.0206 54.6236 61.7136 54.6236C58.4066 54.6236 55.7256 50.1556 55.7256 44.6436Z" fill="#37474F"/>
<path d="M87.6469 54.6255C86.8129 54.6255 86.0669 55.1425 85.7769 55.9235C85.441 56.8399 84.9378 57.6859 84.2929 58.4185C83.7021 59.0958 82.9812 59.6474 82.1729 60.0405C81.3899 60.4171 80.5323 60.6126 79.6634 60.6126C78.7946 60.6126 77.9369 60.4171 77.1539 60.0405C76.3439 59.6485 75.6229 59.0965 75.0319 58.4185C74.3872 57.6864 73.8843 56.8406 73.5489 55.9245C73.4264 55.5961 73.2196 55.3058 72.9492 55.0827C72.6788 54.8597 72.3544 54.7119 72.0087 54.6541C71.6629 54.5963 71.3081 54.6306 70.9799 54.7536C70.6516 54.8765 70.3616 55.0838 70.1389 55.3545C69.6849 55.9045 69.5589 56.6545 69.8079 57.3225C70.316 58.6961 71.0733 59.964 72.0419 61.0625C72.9873 62.1426 74.1415 63.0202 75.4349 63.6425C76.7571 64.2751 78.2042 64.6035 79.6699 64.6035C81.1357 64.6035 82.5828 64.2751 83.9049 63.6425C85.1976 63.0193 86.3512 62.1418 87.2969 61.0625C88.2658 59.9643 89.0232 58.6963 89.5309 57.3225C89.6447 57.0193 89.6829 56.693 89.6424 56.3717C89.6019 56.0505 89.4838 55.7439 89.2984 55.4784C89.113 55.2129 88.8657 54.9966 88.578 54.848C88.2903 54.6994 87.9707 54.6231 87.6469 54.6255Z" fill="#2C3E50"/>
<path d="M61.7136 42.6478C61.7136 40.4438 62.6076 38.6558 63.7096 38.6558C64.8116 38.6558 65.7056 40.4438 65.7056 42.6478C65.7056 44.8528 64.8116 46.6398 63.7096 46.6398C62.6076 46.6398 61.7136 44.8528 61.7136 42.6478Z" fill="white"/>
<path d="M103.183 88.4215L110.853 82.0368C111.672 81.3703 112.351 80.548 112.85 79.6174C113.349 78.6868 113.659 77.6665 113.761 76.6154C113.863 75.5644 113.756 74.5035 113.445 73.4943C113.134 72.485 112.626 71.5475 111.951 70.7358C111.275 69.9242 110.445 69.2547 109.509 68.766C108.573 68.2773 107.549 67.9792 106.497 67.8889C105.445 67.7986 104.386 67.9179 103.38 68.2399C102.374 68.5619 101.442 69.0802 100.638 69.7648L92.9679 76.1496" fill="#A44BCD"/>
<path d="M100.115 90.9757L106.251 85.868C107.07 85.2015 107.749 84.3792 108.248 83.4486C108.747 82.518 109.057 81.4977 109.159 80.4466C109.261 79.3956 109.153 78.3347 108.843 77.3255C108.532 76.3162 108.024 75.3787 107.348 74.567C106.673 73.7554 105.843 73.0859 104.907 72.5972C103.971 72.1085 102.947 71.8104 101.895 71.7201C100.843 71.6298 99.7832 71.7491 98.7775 72.0711C97.7718 72.3931 96.84 72.9114 96.036 73.596L89.8996 78.7038C89.4931 79.0426 89.2377 79.5289 89.1896 80.0559C89.1415 80.583 89.3047 81.1075 89.6433 81.5142L97.3049 90.7187C97.6436 91.1252 98.1297 91.3805 98.6566 91.4287C99.1834 91.4769 99.7078 91.314 100.115 90.9757Z" fill="#A44BCD"/>
<path d="M89.3846 84.3259L94.4917 90.4614L106.765 80.2452C107.168 79.9098 107.501 79.4984 107.745 79.0343C107.989 78.5703 108.139 78.0627 108.187 77.5407C108.234 77.0186 108.179 76.4923 108.023 75.9917C107.868 75.4911 107.615 75.0261 107.279 74.6231C106.944 74.2202 106.533 73.8873 106.069 73.6434C105.605 73.3995 105.097 73.2494 104.575 73.2016C104.053 73.1539 103.527 73.2094 103.026 73.3651C102.525 73.5207 102.06 73.7735 101.657 74.1089L89.3846 84.3259Z" fill="#C19AC8"/>
<path d="M62.8052 74.9921L54.6444 69.2474C53.7878 68.6299 52.8171 68.1885 51.7887 67.9487C50.7603 67.7089 49.6946 67.6755 48.6532 67.8505C47.6117 68.0254 46.6154 68.4052 45.7218 68.9679C44.8282 69.5305 44.0551 70.2649 43.4472 71.1283C42.8393 71.9918 42.4088 72.9674 42.1806 73.9984C41.9523 75.0294 41.9309 76.0955 42.1174 77.1349C42.304 78.1742 42.695 79.1663 43.2676 80.0535C43.8402 80.9408 44.5831 81.7056 45.4534 82.3038L53.6142 88.0485" fill="#A44BCD"/>
<path d="M66.0684 77.29L59.5397 72.6942C58.6831 72.0767 57.7125 71.6353 56.6841 71.3956C55.6557 71.1558 54.5899 71.1224 53.5485 71.2973C52.5071 71.4723 51.5107 71.8521 50.6171 72.4147C49.7235 72.9774 48.9504 73.7117 48.3426 74.5752C47.7347 75.4387 47.3042 76.4142 47.0759 77.4452C46.8477 78.4763 46.8262 79.5423 47.0128 80.5817C47.1994 81.6211 47.5903 82.6131 48.1629 83.5004C48.7355 84.3877 49.4785 85.1525 50.3487 85.7507L56.8774 90.3465C57.3101 90.6508 57.8459 90.7708 58.3672 90.6803C58.8884 90.5897 59.3523 90.2959 59.6571 89.8635L66.5508 80.0706C66.8554 79.6378 66.9757 79.1018 66.8852 78.5804C66.7948 78.059 66.5009 77.5949 66.0684 77.29Z" fill="#A44BCD"/>
<path d="M62.4401 89.3807L67.0359 82.8521L53.9779 73.6599C53.1121 73.0504 52.0397 72.8099 50.9966 72.9911C49.9535 73.1724 49.0251 73.7605 48.4157 74.6263C47.8062 75.492 47.5657 76.5644 47.7469 77.6076C47.9281 78.6507 48.5163 79.5791 49.3821 80.1885L62.4401 89.3807Z" fill="#C19AC8"/>
</svg>
