<svg width="130" height="129" viewBox="0 0 130 129" fill="none" xmlns="http://www.w3.org/2000/svg">
<path d="M65.0237 122.876C97.0253 122.876 122.968 96.9334 122.968 64.9318C122.968 32.9302 97.0253 6.98779 65.0237 6.98779C33.0222 6.98779 7.07974 32.9302 7.07974 64.9318C7.07974 96.9334 33.0222 122.876 65.0237 122.876Z" stroke="#EE74B2" stroke-width="8" stroke-linejoin="round"/>
<path d="M104.08 80.9316C86.8083 116.193 38.3369 114.998 26.0797 80.9316L104.08 80.9316Z" fill="#EE74B2"/>
<path d="M30.8712 14.4305C30.3993 13.7038 29.5131 13.3636 28.6762 13.5879C27.8392 13.8121 27.2419 14.5498 27.1966 15.4151L26.284 32.8282L9.4411 37.3412C8.60417 37.5655 8.00683 38.3031 7.96148 39.1684C7.91614 40.0337 8.4331 40.8297 9.24201 41.1402L25.5209 47.3891L24.6083 64.8022C24.5629 65.6675 25.0799 66.4635 25.8888 66.774C26.6977 67.0846 27.6146 66.8389 28.1598 66.1655L39.1333 52.6144L55.4122 58.8633C56.2211 59.1738 57.1379 58.9281 57.6832 58.2548C58.2285 57.5814 58.2781 56.6335 57.8062 55.9068L48.3094 41.2829L59.2828 27.7318C59.8281 27.0585 59.8778 26.1106 59.4059 25.3839C58.934 24.6572 58.0478 24.3171 57.2109 24.5413L40.368 29.0544L30.8712 14.4305Z" fill="#F2A1CB" stroke="#F2A1CB" stroke-width="4" stroke-linejoin="round"/>
<path d="M95.9751 14.4305C96.447 13.7038 97.3331 13.3636 98.1701 13.5879C99.007 13.8121 99.6044 14.5498 99.6497 15.4151L100.562 32.8282L117.405 37.3412C118.242 37.5655 118.839 38.3031 118.885 39.1684C118.93 40.0337 118.413 40.8297 117.604 41.1402L101.325 47.3891L102.238 64.8022C102.283 65.6675 101.766 66.4635 100.957 66.774C100.149 67.0846 99.2317 66.8389 98.6864 66.1655L87.7129 52.6144L71.4341 58.8633C70.6252 59.1738 69.7083 58.9281 69.1631 58.2548C68.6178 57.5814 68.5681 56.6335 69.04 55.9068L78.5369 41.2829L67.5634 27.7318C67.0181 27.0585 66.9685 26.1106 67.4404 25.3839C67.9123 24.6572 68.7984 24.3171 69.6353 24.5413L86.4782 29.0544L95.9751 14.4305Z" fill="#F2A1CB" stroke="#F2A1CB" stroke-width="4" stroke-linejoin="round"/>
</svg>
