<svg width="129" height="129" viewBox="0 0 129 129" fill="none" xmlns="http://www.w3.org/2000/svg">
<path d="M26.5262 97.9038C34.5343 97.9038 41.0262 91.4119 41.0262 83.4038C41.0262 75.3957 34.5343 68.9038 26.5262 68.9038C18.518 68.9038 12.0262 75.3957 12.0262 83.4038C12.0262 91.4119 18.518 97.9038 26.5262 97.9038Z" fill="#F6C3CC"/>
<path d="M102.526 97.9038C110.534 97.9038 117.026 91.4119 117.026 83.4038C117.026 75.3957 110.534 68.9038 102.526 68.9038C94.518 68.9038 88.0262 75.3957 88.0262 83.4038C88.0262 91.4119 94.518 97.9038 102.526 97.9038Z" fill="#F6C3CC"/>
<path d="M63.9702 122.848C95.9717 122.848 121.914 96.9055 121.914 64.904C121.914 32.9024 95.9717 6.95996 63.9702 6.95996C31.9686 6.95996 6.02615 32.9024 6.02615 64.904C6.02615 96.9055 31.9686 122.848 63.9702 122.848Z" stroke="#C67B00" stroke-width="8" stroke-linejoin="round"/>
<path d="M90.0262 65.9038C94.4444 65.9038 98.0262 62.3221 98.0262 57.9038C98.0262 53.4855 94.4444 49.9038 90.0262 49.9038C85.6079 49.9038 82.0262 53.4855 82.0262 57.9038C82.0262 62.3221 85.6079 65.9038 90.0262 65.9038Z" fill="#C67B00"/>
<path d="M91.0262 72.9038C99.8627 72.9038 107.026 65.7404 107.026 56.9038C107.026 48.0673 99.8627 40.9038 91.0262 40.9038C82.1896 40.9038 75.0262 48.0673 75.0262 56.9038C75.0262 65.7404 82.1896 72.9038 91.0262 72.9038Z" stroke="#C67B00" stroke-width="8"/>
<path d="M28.0261 31.3481C28.0261 31.3481 37.5262 21.4038 53.678 21.4038" stroke="#C67B00" stroke-width="8" stroke-linecap="round"/>
<path d="M98.678 31.3481C98.678 31.3481 89.178 21.4038 73.0262 21.4038" stroke="#C67B00" stroke-width="8" stroke-linecap="round"/>
<path d="M45.0262 97.9038H82.5998" stroke="#C67B00" stroke-width="8" stroke-linecap="round"/>
<path d="M37.5262 64.9038C41.6683 64.9038 45.0262 61.5459 45.0262 57.4038C45.0262 53.2617 41.6683 49.9038 37.5262 49.9038C33.384 49.9038 30.0262 53.2617 30.0262 57.4038C30.0262 61.5459 33.384 64.9038 37.5262 64.9038Z" fill="#C67B00"/>
<path d="M37.0262 71.9038C45.3104 71.9038 52.0262 65.1881 52.0262 56.9038C52.0262 48.6195 45.3104 41.9038 37.0262 41.9038C28.7419 41.9038 22.0262 48.6195 22.0262 56.9038C22.0262 65.1881 28.7419 71.9038 37.0262 71.9038Z" stroke="#C67B00" stroke-width="8"/>
</svg>
