<svg width="128" height="128" viewBox="0 0 128 128" fill="none" xmlns="http://www.w3.org/2000/svg">
<mask id="mask0_1165_457" style="mask-type:alpha" maskUnits="userSpaceOnUse" x="0" y="0" width="128" height="128">
<rect width="128" height="128" fill="#C4C4C4"/>
</mask>
<g mask="url(#mask0_1165_457)">
<path d="M1.88552 80.2648L6.4751 77.3384L33.6614 102.258L33.9222 102.092L23.5296 66.4642L28.2235 63.4713L56.2443 87.8589L56.5572 87.6594L45.1736 52.6636L49.6589 49.8037L62.7851 91.9045L57.4654 95.2964L30.2328 71.7999L30.0242 71.933L39.8893 106.503L34.5696 109.895L1.88552 80.2648ZM63.1012 46.8079L51.7315 54.0574L49.2042 50.0936L76.3766 32.7681L78.9039 36.7318L67.5864 43.948L87.9382 75.8665L83.4529 78.7263L63.1012 46.8079ZM74.3442 34.0639L78.8295 31.2041L88.9056 47.0068L107.733 35.002L97.6572 19.1992L102.09 16.3726L124.969 52.2547L120.536 55.0814L110.261 38.9657L91.4329 50.9705L101.709 67.0862L97.2233 69.9461L74.3442 34.0639Z" fill="white"/>
</g>
</svg>
