<svg width="128" height="129" viewBox="0 0 128 129" fill="none" xmlns="http://www.w3.org/2000/svg">
<mask id="mask0_2067_14661" style="mask-type:alpha" maskUnits="userSpaceOnUse" x="0" y="0" width="128" height="129">
<rect y="0.505859" width="128" height="128" fill="#C4C4C4"/>
</mask>
<g mask="url(#mask0_2067_14661)">
<path d="M50.494 37.8923C50.4637 39.7437 50.4131 41.3826 50.3625 43.0823C50.3321 44.0131 50.3119 44.9438 50.3018 45.9353C48.329 46.0668 46.2246 45.905 44.2518 46.0365C43.5841 47.5642 42.451 48.8389 41.7934 50.3767C39.3046 50.4172 36.1683 51.1456 33.8919 52.1674C29.319 54.2111 25.2014 58.5816 20.4767 60.2408C14.1637 59.7147 7.28409 56.2243 3.49019 51.1658C3.17656 46.1579 4.27932 40.6137 6.36343 36.0408C6.36343 36.0408 6.79847 35.5754 7.54713 34.8268C10.3293 32.0446 17.4113 25.2763 22.5406 23.0708C27.5384 22.5649 35.4095 21.705 41.8743 23.698C42.2385 23.7992 42.5825 23.9206 42.9265 24.042C37.443 24.1836 31.9798 25.165 26.7796 26.9355C22.1966 28.5036 18.0385 32.601 14.5077 35.9295C12.1302 38.1958 12.4843 42.4045 12.4134 45.7937C12.4134 45.9454 12.4033 46.1073 12.4033 46.2591C15.1046 47.8272 18.2712 48.9198 21.3974 49.0311C24.7664 44.3368 28.9042 40.3507 33.5075 36.8401C36.0266 34.9381 39.2742 35.3428 42.4408 35.0797C43.3817 35.707 43.8269 36.577 44.3934 37.5483C46.3359 37.6393 48.5718 37.8113 50.494 37.8923Z" fill="url(#paint0_linear_2067_14661)"/>
<path d="M50.3625 43.0827C50.3321 44.0134 50.3119 44.9442 50.3018 45.9357C48.329 46.0672 46.2246 45.9053 44.2518 46.0368C43.5841 47.5645 42.451 48.8393 41.7934 50.3771C39.3046 50.4175 36.1683 51.146 33.8919 52.1678C29.319 54.2114 25.2014 58.582 20.4767 60.2412C14.1637 59.7151 7.28409 56.2247 3.49019 51.1662C3.17656 46.1582 4.27932 40.6141 6.36343 36.0412C6.36343 36.0412 6.79847 35.5758 7.54713 34.8271C6.55566 38.1759 5.9891 41.646 5.88793 45.1364C5.85758 46.4112 5.88793 47.7062 6.25215 48.9202C6.62648 50.1444 7.37514 51.2876 8.48801 51.8946C12.8788 54.2721 17.391 55.8807 22.1562 54.3632C28.024 52.5118 32.1619 47.1194 37.8376 44.7317C41.7529 43.0928 46.1032 42.9916 50.3625 43.0827Z" fill="#694940"/>
<path d="M42.936 24.0516C37.4526 24.1933 31.9893 25.1746 26.7892 26.9451C22.2062 28.5133 18.048 32.6107 14.5172 35.9392C12.1397 38.2054 12.4938 42.4141 12.423 45.8033C11.3809 44.8624 10.9054 43.1729 10.8245 41.8779C10.6221 38.7922 11.9171 35.7166 13.9102 33.329C15.9032 30.9616 18.5539 29.2113 21.3361 27.8152C27.6592 24.6587 34.8221 23.2423 41.8636 23.6976C42.2379 23.8088 42.5819 23.9302 42.936 24.0516Z" fill="#694940"/>
<path d="M10.9051 47.4424C9.45836 48.2214 8.97274 51.7118 8.68946 53.1079C5.16873 51.1958 8.7097 48.616 10.9051 47.4424Z" fill="#694940"/>
<path d="M14.0928 55.4651C14.4266 53.3911 15.3169 51.4081 16.6423 49.7793C15.9341 51.8735 15.7419 54.1397 15.9037 56.3453C15.6002 55.9709 14.5683 55.5258 14.0928 55.4651Z" fill="#694940"/>
<path d="M21.337 50.3662C21.2055 51.469 23.6943 53.2192 24.4126 53.7858C23.6336 54.1196 22.5207 55.0909 21.7721 54.3523C21.0436 53.634 21.2359 51.2767 21.337 50.3662Z" fill="#694940"/>
<path d="M31.8486 49.4761C30.2602 48.1406 28.8843 46.623 27.2959 45.2876C27.4375 47.3515 28.2874 49.3547 29.6633 50.8924C30.2298 50.3562 31.1201 49.7391 31.8486 49.4761Z" fill="#694940"/>
<path d="M37.1294 46.1478C35.1869 44.5392 33.5378 42.5462 32.1113 40.4722C32.425 43.133 33.5075 45.6926 35.197 47.7666C35.8041 47.0887 36.2391 46.3603 37.1294 46.1478Z" fill="#694940"/>
<path d="M8.86217 42.546C7.36485 42.8191 5.91811 43.3351 4.59277 44.0838C4.61301 43.0923 5.07839 41.767 5.58424 40.907C6.86911 40.8058 7.96175 41.6152 8.86217 42.546Z" fill="#694940"/>
<path d="M12.1304 37.5178C11.3817 36.3948 10.9973 35.029 11.058 33.6733C11.7156 34.1084 12.2316 34.4928 12.5857 35.201C12.9499 35.9092 12.8285 37.1435 12.1304 37.5178Z" fill="#694940"/>
<path d="M42.1673 36.729C42.2482 39.1874 42.7338 41.6358 43.6039 43.9425C43.5837 43.8818 40.8318 45.8748 40.7205 43.123C40.6497 41.0288 41.3883 38.6512 42.1673 36.729Z" fill="#694940"/>
<path d="M77.5156 37.8923C77.546 39.7437 77.5966 41.3826 77.6471 43.0823C77.6775 44.0131 77.6977 44.9438 77.7079 45.9353C79.6807 46.0668 81.785 45.905 83.7578 46.0365C84.4256 47.5642 85.5587 48.8389 86.2163 50.3767C88.7051 50.4172 91.8414 51.1456 94.1177 52.1674C98.6906 54.2111 102.808 58.5816 107.533 60.2408C113.836 59.7147 120.715 56.2243 124.509 51.1658C124.823 46.1579 123.72 40.6137 121.636 36.0408C121.636 36.0408 121.201 35.5754 120.452 34.8268C117.67 32.0446 110.588 25.2763 105.459 23.0708C100.461 22.5649 92.59 21.705 86.1252 23.698C85.761 23.7992 85.417 23.9206 85.0731 24.042C90.5565 24.1836 96.0197 25.165 101.22 26.9355C105.803 28.5036 109.961 32.601 113.492 35.9295C115.869 38.1958 115.515 42.4045 115.586 45.7937C115.586 45.9454 115.596 46.1073 115.596 46.2591C112.895 47.8272 109.728 48.9198 106.602 49.0311C103.233 44.3368 99.0953 40.3507 94.492 36.8401C91.9729 34.9381 88.7253 35.3428 85.5587 35.0797C84.6178 35.707 84.1726 36.577 83.6061 37.5483C81.6737 37.6393 79.4379 37.8113 77.5156 37.8923Z" fill="url(#paint1_linear_2067_14661)"/>
<path d="M77.6475 43.0827C77.6778 44.0134 77.6981 44.9442 77.7082 45.9357C79.681 46.0672 81.7853 45.9053 83.7582 46.0368C84.4259 47.5645 85.559 48.8393 86.2166 50.3771C88.7054 50.4175 91.8417 51.146 94.118 52.1678C98.6909 54.2114 102.809 58.582 107.533 60.2412C113.836 59.7151 120.716 56.2247 124.51 51.1662C124.823 46.1582 123.721 40.6141 121.636 36.0412C121.636 36.0412 121.201 35.5758 120.453 34.8271C121.444 38.1759 122.011 41.646 122.112 45.1364C122.142 46.4112 122.112 47.7062 121.748 48.9202C121.373 50.1444 120.625 51.2876 119.512 51.8946C115.121 54.2721 110.609 55.8807 105.844 54.3632C99.9758 52.5118 95.8379 47.1194 90.1623 44.7317C86.2571 43.0928 81.9067 42.9916 77.6475 43.0827Z" fill="#694940"/>
<path d="M85.0732 24.0518C90.5567 24.1934 96.0199 25.1748 101.22 26.9453C105.803 28.5134 109.961 32.6108 113.492 35.9393C115.87 38.2056 115.515 42.4143 115.586 45.8035C116.628 44.8626 117.104 43.173 117.185 41.8781C117.387 38.7923 116.092 35.7168 114.099 33.3291C112.106 30.9618 109.455 29.2115 106.673 27.8153C100.34 24.6689 93.177 23.2526 86.1355 23.7078C85.7713 23.809 85.4273 23.9304 85.0732 24.0518Z" fill="#694940"/>
<path d="M117.104 47.4424C118.551 48.2214 119.037 51.7118 119.32 53.1079C122.841 51.1958 119.3 48.616 117.104 47.4424Z" fill="#694940"/>
<path d="M113.917 55.4651C113.583 53.3911 112.693 51.4081 111.367 49.7793C112.075 51.8735 112.268 54.1397 112.106 56.3453C112.409 55.9709 113.441 55.5258 113.917 55.4651Z" fill="#694940"/>
<path d="M106.673 50.3662C106.805 51.469 104.316 53.2192 103.598 53.7858C104.377 54.1196 105.49 55.0909 106.238 54.3523C106.967 53.634 106.774 51.2767 106.673 50.3662Z" fill="#694940"/>
<path d="M96.1621 49.4761C97.7505 48.1406 99.1264 46.623 100.715 45.2876C100.573 47.3515 99.7233 49.3547 98.3474 50.8924C97.7808 50.3562 96.8905 49.7391 96.1621 49.4761Z" fill="#694940"/>
<path d="M90.8809 46.1478C92.8233 44.5392 94.4724 42.5462 95.8989 40.4722C95.5853 43.133 94.5028 45.6926 92.8132 47.7666C92.2062 47.0887 91.7712 46.3603 90.8809 46.1478Z" fill="#694940"/>
<path d="M119.147 42.546C120.645 42.8191 122.092 43.3351 123.417 44.0838C123.397 43.0923 122.931 41.767 122.425 40.907C121.141 40.8058 120.048 41.6152 119.147 42.546Z" fill="#694940"/>
<path d="M115.88 37.5178C116.629 36.3948 117.013 35.029 116.953 33.6733C116.295 34.1084 115.779 34.4928 115.425 35.201C115.061 35.9092 115.182 37.1435 115.88 37.5178Z" fill="#694940"/>
<path d="M85.8419 36.729C85.761 39.1874 85.2753 41.6358 84.4053 43.9425C84.4255 43.8818 87.1773 45.8748 87.2886 43.123C87.3595 41.0288 86.6209 38.6512 85.8419 36.729Z" fill="#694940"/>
<path d="M81.2602 62.7903C80.0259 63.6098 78.6297 64.237 77.1931 64.581C77.3752 64.7328 77.5573 64.8946 77.7293 65.0666C78.5488 65.876 79.3076 66.918 79.9146 67.9905C80.2485 68.5975 80.5419 69.2146 80.7644 69.8014C78.8321 70.1252 76.9402 70.7018 74.9977 70.7929C74.2086 72.6848 73.5004 74.6576 72.9035 76.6709C72.5089 78.0063 72.1447 79.362 71.8614 80.7177C71.5276 82.1847 71.2544 83.6517 71.0925 85.1085C71.042 85.4221 71.0015 85.7257 70.961 86.0393C71.7603 87.1825 72.5494 88.2043 73.3385 89.3476C71.74 93.1415 71.305 97.2894 70.2022 101.265C69.403 104.159 66.7928 105.434 64.0106 106.557C62.4526 105.94 60.9553 105.252 59.8019 104.28C58.8711 103.522 58.1528 102.54 57.8089 101.265C56.7061 97.2894 56.2609 93.1415 54.6827 89.3476C55.3504 88.3864 56.008 87.5063 56.6859 86.5552C56.7971 86.3833 56.9185 86.2214 57.0501 86.0393C56.4936 80.92 54.9862 75.558 53.0033 70.803C51.0608 70.7119 49.1689 70.1353 47.2365 69.8115C47.3377 69.5283 47.4591 69.245 47.6007 68.9617C48.3494 67.343 49.5331 65.6534 50.818 64.581C49.3712 64.237 47.9852 63.6199 46.7509 62.7903C45.7696 59.2999 45.0816 55.7893 44.8691 52.1674C45.81 50.5891 47.2365 48.9704 48.7035 47.7867C48.835 47.6754 48.9767 47.5641 49.0981 47.463C48.8148 45.4901 48.8148 43.3959 48.8553 41.332C48.8654 40.1382 48.8957 38.9545 48.9058 37.8012C51.8904 33.0563 58.4563 29.7176 64.0005 28.8779C69.4536 29.6974 75.9285 32.9551 78.9535 37.6191C79.0041 37.6696 79.0445 37.7304 79.085 37.8012C79.0951 40.9375 79.3278 44.3368 78.8928 47.4528C78.994 47.5338 79.085 47.6046 79.1862 47.6855C80.6936 48.8793 82.1707 50.5284 83.1217 52.1573C82.9295 55.7893 82.2415 59.2999 81.2602 62.7903Z" fill="url(#paint2_linear_2067_14661)"/>
<path d="M71.0927 85.1185C71.0421 85.4321 71.0016 85.7356 70.9612 86.0493C71.7604 87.1925 72.5495 88.2143 73.3387 89.3575C71.7402 93.1514 71.3051 97.2994 70.2024 101.275C69.4031 104.169 66.7929 105.444 64.0108 106.567C62.4527 105.95 60.9554 105.262 59.8021 104.29C61.4208 104.746 63.1609 104.715 64.7594 104.23C64.6684 103.228 64.5773 102.226 64.5065 101.215C64.1726 97.2893 63.6162 93.1717 63.9399 89.226C64.2232 85.6345 66.3984 82.5184 67.147 79.0483C67.5618 77.1463 67.7136 75.0621 67.3393 73.1703C67.0155 71.5212 67.3696 70.1453 69.0693 69.2853C70.4047 68.6176 71.983 68.6176 73.4702 68.7592C74.0368 68.7997 74.6033 68.8604 75.1699 68.911C76.1006 68.9919 77.0314 69.002 77.9521 68.83C78.6602 68.6985 79.3583 68.4152 79.935 68.0106C80.2689 68.6176 80.5622 69.2347 80.7848 69.8215C78.8525 70.1452 76.9606 70.7219 75.0181 70.813C74.229 72.7049 73.5208 74.6777 72.9239 76.691C72.3978 77.5509 72.155 78.5323 72.0235 79.6755C71.983 80.0195 71.9324 80.3837 71.8818 80.7277C71.6289 82.1744 71.295 83.6313 71.0927 85.1185ZM78.9031 47.4729C79.3381 44.3569 79.1054 40.9576 79.0953 37.8213C79.0548 37.7606 79.0143 37.6897 78.9638 37.6392C77.3754 43.6082 74.745 47.908 71.4569 51.2567C73.5815 49.2839 76.3232 48.171 79.1964 47.7056C79.0953 47.6247 79.0042 47.5539 78.9031 47.4729ZM54.4299 69.4472C52.1536 69.4775 49.857 69.3055 47.5908 68.9616C47.4491 69.2448 47.3379 69.5281 47.2266 69.8114C49.1589 70.1351 51.0508 70.7118 52.9933 70.8029C54.9762 75.568 56.4837 80.9199 57.0401 86.0391C56.9086 86.2212 56.7973 86.3831 56.6759 86.5551C57.2121 86.6158 57.7685 86.4944 58.1429 86.0897C57.4448 80.495 56.0588 74.8497 54.4299 69.4472ZM48.8554 41.342C48.8149 43.4059 48.8149 45.5001 49.0982 47.4729C48.9667 47.5741 48.8251 47.6753 48.7037 47.7967C50.6057 47.7866 52.5178 48.2621 54.1871 49.1625C55.3607 49.7897 56.423 50.6295 57.4144 51.5096C54.6525 47.999 51.8804 44.5896 48.8554 41.342Z" fill="#EAB692"/>
<path d="M53.3871 64.2572L51.4345 61.6773L51.4851 60.1598L50.0384 59.0469C48.6321 57.9644 47.8531 55.7487 48.4601 54.0895C48.8446 53.0475 49.6135 52.5618 50.4026 51.8739C51.0703 51.2871 50.8073 51.3073 51.5357 51.3782C52.5676 51.4692 53.7109 52.0155 54.7125 52.3089C55.5522 53.5129 56.5942 54.7067 57.3227 55.9612C58.1421 57.3776 58.2028 59.1784 57.9196 60.7465C57.8589 61.0804 56.7763 64.3381 56.7055 64.3381C56.6954 64.3381 53.3871 64.2572 53.3871 64.2572ZM59.4675 65.6938L56.7258 68.6581L57.7779 74.2528L58.1624 76.0132L59.6395 76.8124L60.7523 74.7991L61.1267 71.2278L61.1064 66.5537L60.3679 65.5016L59.4675 65.6938ZM76.0898 64.2572L78.0424 61.6773L77.9918 60.1598L79.4385 59.0469C80.8448 57.9644 81.6238 55.7487 81.0168 54.0895C80.6324 53.0475 79.8635 52.5618 79.0743 51.8739C78.4066 51.2871 78.6696 51.3073 77.9412 51.3782C76.9093 51.4692 75.7661 52.0155 74.7645 52.3089C73.9247 53.5129 72.8827 54.7067 72.1543 55.9612C71.3348 57.3776 71.2741 59.1784 71.5574 60.7465C71.6181 61.0804 72.7006 64.3381 72.7714 64.3381C72.7815 64.3381 76.0898 64.2572 76.0898 64.2572ZM70.0095 65.6938L69.109 65.5016L68.3705 66.5537L68.3503 71.2076L68.7246 74.7789L69.8375 76.7922L71.3145 75.9929L71.699 74.2326L72.7512 68.6378L70.0095 65.6938ZM63.4536 100.83C63.3727 99.5353 63.2917 98.2403 63.2209 96.9454C63.2007 96.652 63.1906 96.3484 63.3221 96.0854C63.4536 95.8224 63.7875 95.6403 64.0505 95.7617C64.2832 95.8831 64.354 96.1765 64.4046 96.4395C64.5665 97.4107 64.7385 98.382 64.9003 99.3633C64.9509 99.6365 65.0116 99.9299 65.2241 100.092C65.5579 100.345 66.084 100.112 66.2864 99.7377C66.4887 99.3633 66.4786 98.9182 66.4988 98.5034C66.5595 96.8442 67.1261 95.2558 67.7028 93.6978C68.2693 92.1398 68.8662 90.5615 68.9775 88.9023C69.0787 87.3443 68.5931 85.4524 67.7635 84.127C66.772 82.5488 65.649 84.0967 65.5883 85.3816C65.477 87.9513 64.9105 90.5008 63.9089 92.8682C63.0084 91.3607 62.5532 89.7015 62.4014 87.9614C62.2901 86.7474 61.9563 85.0477 60.4387 84.9364C60.034 84.9061 60.4691 92.4534 60.5702 93.1211C60.9446 95.8021 61.673 98.4326 62.1788 101.093C62.2598 101.498 62.4419 102.014 62.8567 102.024C62.9477 102.024 63.0287 102.004 63.0995 101.963C63.3929 101.802 63.4839 101.245 63.4536 100.83Z" fill="#A54223"/>
</g>
<defs>
<linearGradient id="paint0_linear_2067_14661" x1="71.0603" y1="65.088" x2="21.1089" y2="37.4833" gradientUnits="userSpaceOnUse">
<stop stop-color="#694940"/>
<stop offset="1" stop-color="#8A6558"/>
</linearGradient>
<linearGradient id="paint1_linear_2067_14661" x1="56.9495" y1="65.088" x2="106.901" y2="37.4833" gradientUnits="userSpaceOnUse">
<stop stop-color="#694940"/>
<stop offset="1" stop-color="#8A6558"/>
</linearGradient>
<linearGradient id="paint2_linear_2067_14661" x1="85.8797" y1="92.3391" x2="63.9688" y2="64.0741" gradientUnits="userSpaceOnUse">
<stop offset="0.0559" stop-color="#EAB692"/>
<stop offset="0.5953" stop-color="#F6D9B5"/>
<stop offset="1" stop-color="#FEEFCB"/>
</linearGradient>
</defs>
</svg>
