<svg width="128" height="128" viewBox="0 0 128 128" fill="none" xmlns="http://www.w3.org/2000/svg">
<mask id="mask0" mask-type="alpha" maskUnits="userSpaceOnUse" x="0" y="0" width="128" height="128">
<rect width="128" height="128" fill="#C4C4C4"/>
</mask>
<g mask="url(#mask0)">
<path d="M124.1 84.9C124.1 93.7 120.5 101.7 114.7 107.5L114.5 107.7C108.7 113.4 100.8 116.9 92.1 116.9H35C26.2 116.9 18.2 113.3 12.4 107.5C6.6 101.7 3 93.7 3 84.9C3 49.6 18.6 26.9 38.7 16.9C46.5 13 55 11 63.5 11C72 11 80.5 13 88.4 16.9C108.4 26.9 124.1 49.5 124.1 84.9ZM110.5 103.2C115.2 98.5 118.1 92 118.1 84.8C118.1 52.1 103.9 31.2 85.7 22.2C78.8 18.7 71.1 17 63.5 17C55.9 17 48.3 18.8 41.3 22.2C23.2 31.3 9 52.1 9 84.9C9 92.1 11.9 98.6 16.6 103.3C21.3 108 27.8 111 35 111H92.1C99.2 111 105.6 108.1 110.3 103.5L110.5 103.2Z" fill="#0094FF"/>
<path d="M55.1996 85.8001C53.9996 87.0001 52.0996 87.0001 50.9996 85.8001C49.8996 84.6001 49.7996 82.7001 50.9996 81.6001C54.4996 78.1001 58.9996 76.4001 63.5996 76.4001C68.1996 76.4001 72.6996 78.1001 76.1996 81.6001C77.3996 82.8001 77.3996 84.7001 76.1996 85.8001C74.9996 86.9001 73.0996 87.0001 71.9996 85.8001C69.6996 83.5001 66.5996 82.3001 63.5996 82.3001C60.4996 82.3001 57.4996 83.5001 55.1996 85.8001Z" fill="#0094FF"/>
<path d="M83 55.3003C85.5 55.3003 87.8 56.3003 89.4 58.0003L89.6 58.2003C91.1 59.8003 92.1 62.0003 92.1 64.4003C92.1 66.9003 91.1 69.2003 89.4 70.8003C87.8 72.4003 85.5 73.5003 83 73.5003C80.5 73.5003 78.3 72.5003 76.6 70.8003C75 69.1003 74 66.8003 74 64.3003C74 61.8003 75 59.6003 76.6 57.9003C78.3 56.3003 80.5 55.3003 83 55.3003ZM85.2 62.2003C84.6 61.7003 83.9 61.3003 83 61.3003C82.1 61.3003 81.4 61.6003 80.8 62.2003C80.2 62.7003 79.9 63.5003 79.9 64.4003C79.9 65.2003 80.3 66.0003 80.8 66.6003C81.3 67.2003 82.1 67.5003 83 67.5003C83.8 67.5003 84.6 67.2003 85.2 66.6003C85.8 66.1003 86.1 65.3003 86.1 64.4003C86.1 63.6003 85.8 62.9003 85.3 62.4003L85.2 62.2003Z" fill="#0094FF"/>
<path d="M44.1 55.3003C46.6 55.3003 48.9 56.3003 50.5 58.0003L50.7 58.2003C52.2 59.8003 53.2 62.0003 53.2 64.4003C53.2 66.9003 52.2 69.2003 50.5 70.8003C48.9 72.4003 46.6 73.5003 44.1 73.5003C41.6 73.5003 39.4 72.5003 37.7 70.8003C36.1 69.2003 35 66.9003 35 64.4003C35 61.9003 36 59.7003 37.7 58.0003C39.4 56.3003 41.6 55.3003 44.1 55.3003ZM46.3 62.2003C45.8 61.7003 45 61.3003 44.1 61.3003C43.3 61.3003 42.5 61.6003 41.9 62.2003C41.3 62.7003 41 63.5003 41 64.4003C41 65.2003 41.3 66.0003 41.9 66.6003C42.4 67.2003 43.2 67.5003 44.1 67.5003C44.9 67.5003 45.7 67.2003 46.3 66.6003C46.8 66.1003 47.2 65.3003 47.2 64.4003C47.2 63.6003 46.9 62.9003 46.4 62.4003L46.3 62.2003Z" fill="#0094FF"/>
<path d="M38.1997 42.7001C36.7997 41.8001 36.3997 40.0001 37.1997 38.6001C38.0997 37.2001 39.8997 36.8001 41.2997 37.6001L57.0997 47.3001C58.4997 48.2001 58.8997 50.0001 58.0997 51.4001C57.2997 52.8001 55.3997 53.2001 53.9997 52.4001L38.1997 42.7001Z" fill="#0094FF"/>
<path d="M88.5998 37.6001C89.9998 36.7001 91.7998 37.2001 92.6998 38.6001C93.5998 40.0001 93.0998 41.8001 91.6998 42.7001L75.8998 52.5001C74.4998 53.4001 72.6998 52.9001 71.7998 51.5001C70.8998 50.1001 71.3998 48.3001 72.7998 47.4001L88.5998 37.6001Z" fill="#0094FF"/>
<path d="M95.1221 10.183C95.1196 9.16123 96.4704 8.79391 96.9857 9.67632L103.398 20.658C103.578 20.9657 103.908 21.1546 104.264 21.1537L116.981 21.1221C118.003 21.1196 118.37 22.4704 117.487 22.9857L106.506 29.398C106.198 29.5777 106.009 29.9077 106.01 30.2641L106.042 42.9807C106.044 44.0025 104.693 44.3699 104.178 43.4875L97.7657 32.5058C97.586 32.198 97.2561 32.0092 96.8997 32.01L84.183 32.0416C83.1612 32.0442 82.7939 30.6933 83.6763 30.1781L94.6579 23.7658C94.9657 23.586 95.1546 23.2561 95.1537 22.8997L95.1221 10.183Z" fill="#F6C3CC"/>
<path d="M54.1001 36.1003C52.7001 35.2003 52.3001 33.4003 53.1001 32.0003C54.0001 30.6003 55.8001 30.2003 57.2001 31.0003L66.5001 36.7003C67.9001 37.6003 68.3001 39.4003 67.5001 40.8003C66.6001 42.2003 64.8001 42.6003 63.4001 41.8003L54.1001 36.1003Z" fill="#0094FF"/>
<path d="M72.5998 31.0002C73.9998 30.1002 75.7998 30.6002 76.6998 32.0002C77.5998 33.4002 77.0998 35.2002 75.6998 36.1002L66.3998 41.8002C64.9998 42.7002 63.1998 42.2002 62.2998 40.8002C61.3998 39.4002 61.8998 37.6002 63.2998 36.7002C63.3998 36.7002 72.5998 31.0002 72.5998 31.0002Z" fill="#0094FF"/>
</g>
</svg>
