<svg width="129" height="129" viewBox="0 0 129 129" fill="none" xmlns="http://www.w3.org/2000/svg">
<path d="M46.9674 60.1245C40.6119 60.1245 35.4434 65.2944 35.4434 71.6505C35.4434 78.0067 40.612 83.1755 46.9674 83.1755C53.3236 83.1755 58.4924 78.0068 58.4924 71.6505C58.4924 65.2943 53.3238 60.1245 46.9674 60.1245Z" stroke="black" stroke-width="2"/>
<path d="M82.5387 60.1245C76.1823 60.1245 71.0137 65.2943 71.0137 71.6505C71.0137 78.0068 76.1824 83.1755 82.5387 83.1755C88.895 83.1755 94.0637 78.0068 94.0637 71.6505C94.0637 65.2943 88.8951 60.1245 82.5387 60.1245Z" stroke="black" stroke-width="2"/>
<path d="M66.0013 83.0304L66.0013 83.0304L70.1621 87.1922C70.1624 87.1924 70.1627 87.1927 70.1629 87.193C70.7598 87.7888 71.0045 88.8793 70.3339 89.6598M66.0013 83.0304L69.5751 89.0084M66.0013 83.0304L65.9989 83.0279C65.3115 82.3452 64.1961 82.3425 63.5062 83.0301L63.5049 83.0315L59.268 87.2703L59.9751 87.9774M66.0013 83.0304L59.2679 87.2704M70.3339 89.6598C70.3337 89.66 70.3335 89.6602 70.3333 89.6605L69.5751 89.0084M70.3339 89.6598C70.3341 89.6596 70.3342 89.6594 70.3344 89.6592L69.5751 89.0084M70.3339 89.6598C70.325 89.6701 70.3173 89.6787 70.3118 89.6848L70.3082 89.6887M69.5751 89.0084C69.5721 89.0119 69.5691 89.0151 69.5661 89.0184C69.5631 89.0216 69.5601 89.0249 69.5571 89.0284H68.4231L66.5091 87.1144M70.3082 89.6887L70.3164 89.6792C70.3103 89.6863 70.3054 89.6917 70.3028 89.6946M70.3082 89.6887L70.3028 89.6946M70.3082 89.6887L70.0171 90.0284H69.5571H68.4231H68.0089L67.716 89.7355L65.8028 87.8222L66.5091 87.1144M70.3028 89.6946L70.3009 89.6967C70.2989 89.6989 70.3006 89.697 70.3028 89.6946ZM66.5091 87.1144C65.5421 86.1494 63.9671 86.1484 62.9981 87.1154L66.5091 87.1144ZM65.2941 83.7374L69.4561 87.9004L65.2941 83.7374ZM65.2941 83.7374C64.9961 83.4414 64.5111 83.4404 64.2121 83.7384M65.2941 83.7374L64.2121 83.7384M64.2121 83.7384L59.9751 87.9774M64.2121 83.7384L59.9501 89.0294M59.9501 89.0294C59.8311 88.8984 59.7621 88.7344 59.7531 88.5554C59.7471 88.4464 59.7641 88.3404 59.8021 88.2424C59.8401 88.1444 59.8981 88.0544 59.9751 87.9774M59.9501 89.0294H61.0791H59.9501ZM59.9751 87.9774L59.2679 87.2704M59.2679 87.2704C59.0919 87.4464 58.9576 87.6543 58.8698 87.8809C58.7801 88.1122 58.7412 88.3595 58.7545 88.608C58.7757 89.0188 58.937 89.4014 59.2099 89.7018L59.5075 90.0294H59.9501H61.0791H61.4222L61.6931 89.8187C61.7333 89.7875 61.7648 89.759 61.7831 89.7421L61.8046 89.7219L61.8096 89.7172L61.8104 89.7164L61.8106 89.7163L61.823 89.7047L61.8352 89.6925L63.7045 87.8232C63.7046 87.8231 63.7047 87.823 63.7048 87.8229C64.2833 87.2459 65.2258 87.2469 65.8024 87.8218L59.2679 87.2704Z" stroke="black" stroke-width="2"/>
<path d="M23.6445 60.9625C23.6445 38.2942 42.0852 19.8535 64.7535 19.8535C87.4218 19.8535 105.863 38.2942 105.864 60.9615V86.0215C105.864 91.5677 101.353 96.0795 95.8055 96.0795H86.9645V103.337C86.9645 105.876 84.9008 107.94 82.3615 107.94C79.8229 107.94 77.7595 105.874 77.7595 103.337C77.7595 102.639 77.1908 102.071 76.4925 102.071C75.7948 102.071 75.2265 102.639 75.2265 103.337C75.2265 105.876 73.1628 107.94 70.6235 107.94C68.0841 107.94 66.0205 105.875 66.0205 103.337C66.0205 102.639 65.4522 102.071 64.7545 102.071C64.0562 102.071 63.4875 102.639 63.4875 103.337C63.4875 105.876 61.4238 107.94 58.8845 107.94C56.3447 107.94 54.2822 105.875 54.2815 103.334M23.6445 60.9625L55.2815 103.333M23.6445 60.9625V86.0225C23.6445 91.5699 28.1564 96.0805 33.7035 96.0805H42.5435M23.6445 60.9625L42.5435 95.0805V96.0805M54.2815 103.334C54.2815 103.333 54.2815 103.333 54.2815 103.333H55.2815M54.2815 103.334C54.2815 103.334 54.2815 103.335 54.2815 103.335L55.2815 103.333M54.2815 103.334C54.2792 102.639 53.7095 102.072 53.0155 102.072C52.3172 102.072 51.7485 102.64 51.7485 103.338C51.7485 105.877 49.6848 107.941 47.1455 107.941C44.6069 107.941 42.5435 105.875 42.5435 103.338V96.0805M55.2815 103.333C55.2785 102.087 54.2615 101.072 53.0155 101.072C51.7655 101.072 50.7485 102.088 50.7485 103.338C50.7485 105.325 49.1325 106.941 47.1455 106.941C45.1595 106.941 43.5435 105.324 43.5435 103.338V96.0805H42.5435M70.3002 89.6328L70.3 89.633C70.1975 89.7527 70.0626 89.8684 69.8662 89.9865H68.1052C67.9574 89.897 67.8583 89.8183 67.7748 89.7355C67.7743 89.735 67.7738 89.7345 67.7733 89.734L65.8338 87.7936L65.8336 87.7934C65.2382 87.1979 64.2713 87.1994 63.6751 87.7927L63.6736 87.7942L61.8026 89.6642L61.8024 89.6644C61.6886 89.7782 61.5414 89.8883 61.3561 89.9885H59.6339C59.5373 89.9316 59.4776 89.8919 59.4308 89.854C59.0521 89.5445 58.822 89.0879 58.7973 88.6054C58.7734 88.1202 58.9568 87.6444 59.2996 87.3016L59.2997 87.3015L63.536 83.0643C63.536 83.0643 63.536 83.0642 63.5361 83.0642C64.2063 82.3953 65.3005 82.3954 65.9716 83.0638C65.9717 83.0638 65.9717 83.0639 65.9718 83.064L70.1323 87.2265L70.1328 87.227C70.8294 87.923 70.8542 88.9864 70.3002 89.6328ZM46.9675 83.1315C40.6378 83.1315 35.4865 77.9802 35.4865 71.6505C35.4865 65.3197 40.6379 60.1685 46.9675 60.1685C53.2982 60.1685 58.4495 65.3198 58.4495 71.6505C58.4495 77.9802 53.2983 83.1315 46.9675 83.1315ZM82.5385 83.1315C76.2088 83.1315 71.0575 77.9802 71.0575 71.6505C71.0575 65.3197 76.2089 60.1685 82.5385 60.1685C88.8693 60.1685 94.0205 65.3198 94.0205 71.6505C94.0205 77.9802 88.8693 83.1315 82.5385 83.1315Z" stroke="black" stroke-width="2"/>
<path d="M47.1455 109.896C49.7119 109.896 51.9382 108.417 53.0155 106.265C54.0928 108.417 56.3191 109.896 58.8855 109.896C61.4513 109.896 63.6772 108.417 64.7545 106.265C65.8319 108.417 68.0581 109.896 70.6245 109.896C73.1905 109.896 75.4163 108.417 76.4939 106.267C77.5711 108.417 79.7964 109.896 82.3625 109.896C85.9805 109.896 88.9225 106.956 88.9225 103.337V98.0375H95.8065C102.433 98.0375 107.822 92.6487 107.822 86.0225V60.9625V60.9623C107.817 37.2162 88.4998 17.8975 64.7525 17.8975C41.0052 17.8975 21.6875 37.2162 21.6875 60.9625V86.0225C21.6875 92.6487 27.0762 98.0375 33.7025 98.0375H40.5865V103.337C40.5865 106.956 43.5272 109.896 47.1455 109.896Z" fill="white" stroke="black" stroke-width="2"/>
<path fill-rule="evenodd" clip-rule="evenodd" d="M22.6738 62.9185C22.6738 39.7245 41.5438 20.8535 64.7388 20.8535C76.2979 20.8535 86.7829 25.5401 94.3941 33.1126C87.9078 29.0203 80.2311 26.6504 72.0113 26.6504C48.8163 26.6504 29.9463 45.5214 29.9463 68.7154V93.7754C29.9463 95.5392 30.363 97.2076 31.103 98.6871C26.2726 97.5208 22.6738 93.1622 22.6738 87.9785V62.9185ZM41.5728 104.79V105.294C41.5728 108.36 44.0658 110.853 47.1318 110.853C47.7295 110.853 48.3054 110.758 48.8453 110.583V104.79H41.5728Z" fill="#E9E9E9"/>
<mask id="path-7-outside-1" maskUnits="userSpaceOnUse" x="20.6875" y="16.8975" width="89" height="94" fill="black">
<rect fill="white" x="20.6875" y="16.8975" width="89" height="94"/>
<path d="M64.7525 18.8975C41.5575 18.8975 22.6875 37.7685 22.6875 60.9625V86.0225C22.6875 92.0965 27.6285 97.0375 33.7025 97.0375H41.5865V103.337C41.5865 106.403 44.0795 108.896 47.1455 108.896C50.2115 108.896 52.7055 106.403 52.7055 103.337C52.7055 103.166 52.8445 103.027 53.0155 103.027C53.1885 103.027 53.3245 103.165 53.3255 103.337C53.3255 106.403 55.8195 108.896 58.8855 108.896C61.9505 108.896 64.4445 106.403 64.4445 103.337C64.4445 103.166 64.5835 103.027 64.7545 103.027C64.9255 103.027 65.0645 103.166 65.0645 103.337C65.0645 106.403 67.5585 108.896 70.6245 108.896C73.6905 108.896 76.1845 106.403 76.1845 103.337C76.1845 103.166 76.3235 103.027 76.4935 103.027C76.6645 103.027 76.8035 103.166 76.8035 103.337C76.8035 106.403 79.2965 108.896 82.3625 108.896C85.4285 108.896 87.9225 106.403 87.9225 103.337V97.0375H95.8065C101.881 97.0375 106.822 92.0965 106.822 86.0225V60.9625C106.818 37.7685 87.9475 18.8975 64.7525 18.8975ZM104.862 86.0225C104.862 91.0175 100.799 95.0805 95.8035 95.0805H85.9625V103.337C85.9625 105.323 84.3465 106.94 82.3595 106.94C80.3735 106.94 78.7575 105.324 78.7575 103.337C78.7575 102.087 77.7405 101.071 76.4905 101.071C75.2415 101.071 74.2245 102.087 74.2245 103.337C74.2245 105.323 72.6085 106.94 70.6215 106.94C68.6345 106.94 67.0185 105.324 67.0185 103.337C67.0185 102.087 66.0025 101.071 64.7525 101.071C63.5025 101.071 62.4855 102.087 62.4855 103.337C62.4855 105.323 60.8695 106.94 58.8825 106.94C56.8955 106.94 55.2795 105.323 55.2795 103.333C55.2765 102.086 54.2595 101.072 53.0135 101.072C51.7635 101.072 50.7465 102.088 50.7465 103.338C50.7465 105.324 49.1305 106.941 47.1435 106.941C45.1575 106.941 43.5415 105.325 43.5415 103.338V95.0815H33.7015C28.7065 95.0815 24.6425 91.0175 24.6425 86.0235V60.9635C24.6435 38.8465 42.6365 20.8535 64.7525 20.8535C86.8685 20.8535 104.862 38.8465 104.862 60.9625V86.0225Z"/>
</mask>
<path d="M64.7525 18.8975C41.5575 18.8975 22.6875 37.7685 22.6875 60.9625V86.0225C22.6875 92.0965 27.6285 97.0375 33.7025 97.0375H41.5865V103.337C41.5865 106.403 44.0795 108.896 47.1455 108.896C50.2115 108.896 52.7055 106.403 52.7055 103.337C52.7055 103.166 52.8445 103.027 53.0155 103.027C53.1885 103.027 53.3245 103.165 53.3255 103.337C53.3255 106.403 55.8195 108.896 58.8855 108.896C61.9505 108.896 64.4445 106.403 64.4445 103.337C64.4445 103.166 64.5835 103.027 64.7545 103.027C64.9255 103.027 65.0645 103.166 65.0645 103.337C65.0645 106.403 67.5585 108.896 70.6245 108.896C73.6905 108.896 76.1845 106.403 76.1845 103.337C76.1845 103.166 76.3235 103.027 76.4935 103.027C76.6645 103.027 76.8035 103.166 76.8035 103.337C76.8035 106.403 79.2965 108.896 82.3625 108.896C85.4285 108.896 87.9225 106.403 87.9225 103.337V97.0375H95.8065C101.881 97.0375 106.822 92.0965 106.822 86.0225V60.9625C106.818 37.7685 87.9475 18.8975 64.7525 18.8975ZM104.862 86.0225C104.862 91.0175 100.799 95.0805 95.8035 95.0805H85.9625V103.337C85.9625 105.323 84.3465 106.94 82.3595 106.94C80.3735 106.94 78.7575 105.324 78.7575 103.337C78.7575 102.087 77.7405 101.071 76.4905 101.071C75.2415 101.071 74.2245 102.087 74.2245 103.337C74.2245 105.323 72.6085 106.94 70.6215 106.94C68.6345 106.94 67.0185 105.324 67.0185 103.337C67.0185 102.087 66.0025 101.071 64.7525 101.071C63.5025 101.071 62.4855 102.087 62.4855 103.337C62.4855 105.323 60.8695 106.94 58.8825 106.94C56.8955 106.94 55.2795 105.323 55.2795 103.333C55.2765 102.086 54.2595 101.072 53.0135 101.072C51.7635 101.072 50.7465 102.088 50.7465 103.338C50.7465 105.324 49.1305 106.941 47.1435 106.941C45.1575 106.941 43.5415 105.325 43.5415 103.338V95.0815H33.7015C28.7065 95.0815 24.6425 91.0175 24.6425 86.0235V60.9635C24.6435 38.8465 42.6365 20.8535 64.7525 20.8535C86.8685 20.8535 104.862 38.8465 104.862 60.9625V86.0225Z" fill="black"/>
<path d="M41.5865 97.0375H43.5865V95.0375H41.5865V97.0375ZM53.3255 103.337H55.3255L55.3255 103.326L53.3255 103.337ZM87.9225 97.0375V95.0375H85.9225V97.0375H87.9225ZM106.822 60.9625H108.822V60.9621L106.822 60.9625ZM85.9625 95.0805V93.0805H83.9625V95.0805H85.9625ZM55.2795 103.333H57.2795L57.2795 103.329L55.2795 103.333ZM43.5415 95.0815H45.5415V93.0815H43.5415V95.0815ZM24.6425 60.9635L22.6425 60.9634V60.9635H24.6425ZM64.7525 16.8975C40.4529 16.8975 20.6875 36.6639 20.6875 60.9625H24.6875C24.6875 38.873 42.6621 20.8975 64.7525 20.8975V16.8975ZM20.6875 60.9625V86.0225H24.6875V60.9625H20.6875ZM20.6875 86.0225C20.6875 93.201 26.5239 99.0375 33.7025 99.0375V95.0375C28.7331 95.0375 24.6875 90.9919 24.6875 86.0225H20.6875ZM33.7025 99.0375H41.5865V95.0375H33.7025V99.0375ZM39.5865 97.0375V103.337H43.5865V97.0375H39.5865ZM39.5865 103.337C39.5865 107.508 42.9749 110.896 47.1455 110.896V106.896C45.1841 106.896 43.5865 105.299 43.5865 103.337H39.5865ZM47.1455 110.896C51.3156 110.896 54.7055 107.508 54.7055 103.337H50.7055C50.7055 105.298 49.1074 106.896 47.1455 106.896V110.896ZM54.7055 103.337C54.7055 104.271 53.9491 105.027 53.0155 105.027V101.027C51.7399 101.027 50.7055 102.062 50.7055 103.337H54.7055ZM53.0155 105.027C52.0691 105.027 51.3308 104.258 51.3255 103.349L55.3255 103.326C55.3182 102.073 54.3079 101.027 53.0155 101.027V105.027ZM51.3255 103.337C51.3255 107.508 54.7154 110.896 58.8855 110.896V106.896C56.9236 106.896 55.3255 105.298 55.3255 103.337H51.3255ZM58.8855 110.896C63.0548 110.896 66.4445 107.508 66.4445 103.337H62.4445C62.4445 105.299 60.8462 106.896 58.8855 106.896V110.896ZM66.4445 103.337C66.4445 104.271 65.6881 105.027 64.7545 105.027V101.027C63.4789 101.027 62.4445 102.062 62.4445 103.337H66.4445ZM64.7545 105.027C63.8209 105.027 63.0645 104.271 63.0645 103.337H67.0645C67.0645 102.062 66.0301 101.027 64.7545 101.027V105.027ZM63.0645 103.337C63.0645 107.508 66.4544 110.896 70.6245 110.896V106.896C68.6626 106.896 67.0645 105.298 67.0645 103.337H63.0645ZM70.6245 110.896C74.7946 110.896 78.1845 107.508 78.1845 103.337H74.1845C74.1845 105.298 72.5864 106.896 70.6245 106.896V110.896ZM78.1845 103.337C78.1845 104.267 77.4323 105.027 76.4935 105.027V101.027C75.2147 101.027 74.1845 102.066 74.1845 103.337H78.1845ZM76.4935 105.027C75.5599 105.027 74.8035 104.271 74.8035 103.337H78.8035C78.8035 102.062 77.7691 101.027 76.4935 101.027V105.027ZM74.8035 103.337C74.8035 107.508 78.1919 110.896 82.3625 110.896V106.896C80.4011 106.896 78.8035 105.299 78.8035 103.337H74.8035ZM82.3625 110.896C86.5326 110.896 89.9225 107.508 89.9225 103.337H85.9225C85.9225 105.298 84.3244 106.896 82.3625 106.896V110.896ZM89.9225 103.337V97.0375H85.9225V103.337H89.9225ZM87.9225 99.0375H95.8065V95.0375H87.9225V99.0375ZM95.8065 99.0375C102.985 99.0375 108.822 93.201 108.822 86.0225H104.822C104.822 90.9919 100.776 95.0375 95.8065 95.0375V99.0375ZM108.822 86.0225V60.9625H104.822V86.0225H108.822ZM108.822 60.9621C108.817 36.6639 89.0522 16.8975 64.7525 16.8975V20.8975C86.8428 20.8975 104.818 38.873 104.822 60.9628L108.822 60.9621ZM102.862 86.0225C102.862 89.9129 99.6939 93.0805 95.8035 93.0805V97.0805C101.903 97.0805 106.862 92.122 106.862 86.0225H102.862ZM95.8035 93.0805H85.9625V97.0805H95.8035V93.0805ZM83.9625 95.0805V103.337H87.9625V95.0805H83.9625ZM83.9625 103.337C83.9625 104.219 83.2416 104.94 82.3595 104.94V108.94C85.4514 108.94 87.9625 106.428 87.9625 103.337H83.9625ZM82.3595 104.94C81.4784 104.94 80.7575 104.22 80.7575 103.337H76.7575C76.7575 106.429 79.2686 108.94 82.3595 108.94V104.94ZM80.7575 103.337C80.7575 100.982 78.8439 99.0715 76.4905 99.0715V103.071C76.6371 103.071 76.7575 103.193 76.7575 103.337H80.7575ZM76.4905 99.0715C74.1375 99.0715 72.2245 100.982 72.2245 103.337H76.2245C76.2245 103.193 76.3455 103.071 76.4905 103.071V99.0715ZM72.2245 103.337C72.2245 104.219 71.5036 104.94 70.6215 104.94V108.94C73.7134 108.94 76.2245 106.428 76.2245 103.337H72.2245ZM70.6215 104.94C69.7391 104.94 69.0185 104.22 69.0185 103.337H65.0185C65.0185 106.429 67.5299 108.94 70.6215 108.94V104.94ZM69.0185 103.337C69.0185 100.983 67.1071 99.0715 64.7525 99.0715V103.071C64.8979 103.071 65.0185 103.192 65.0185 103.337H69.0185ZM64.7525 99.0715C62.3991 99.0715 60.4855 100.982 60.4855 103.337H64.4855C64.4855 103.193 64.6059 103.071 64.7525 103.071V99.0715ZM60.4855 103.337C60.4855 104.219 59.7646 104.94 58.8825 104.94V108.94C61.9744 108.94 64.4855 106.428 64.4855 103.337H60.4855ZM58.8825 104.94C58.0019 104.94 57.2795 104.221 57.2795 103.333H53.2795C53.2795 106.426 55.7891 108.94 58.8825 108.94V104.94ZM57.2795 103.329C57.2738 100.979 55.3621 99.0725 53.0135 99.0725V103.072C53.1569 103.072 53.2792 103.194 53.2795 103.338L57.2795 103.329ZM53.0135 99.0725C50.6601 99.0725 48.7465 100.983 48.7465 103.338H52.7465C52.7465 103.194 52.8669 103.072 53.0135 103.072V99.0725ZM48.7465 103.338C48.7465 104.22 48.0256 104.941 47.1435 104.941V108.941C50.2354 108.941 52.7465 106.429 52.7465 103.338H48.7465ZM47.1435 104.941C46.2624 104.941 45.5415 104.221 45.5415 103.338H41.5415C41.5415 106.43 44.0526 108.941 47.1435 108.941V104.941ZM45.5415 103.338V95.0815H41.5415V103.338H45.5415ZM43.5415 93.0815H33.7015V97.0815H43.5415V93.0815ZM33.7015 93.0815C29.8109 93.0815 26.6425 89.9128 26.6425 86.0235H22.6425C22.6425 92.1222 27.6021 97.0815 33.7015 97.0815V93.0815ZM26.6425 86.0235V60.9635H22.6425V86.0235H26.6425ZM26.6425 60.9636C26.6435 39.951 43.7411 22.8535 64.7525 22.8535V18.8535C41.5319 18.8535 22.6436 37.7419 22.6425 60.9634L26.6425 60.9636ZM64.7525 22.8535C85.7639 22.8535 102.862 39.951 102.862 60.9625H106.862C106.862 37.7419 87.9731 18.8535 64.7525 18.8535V22.8535ZM102.862 60.9625V86.0225H106.862V60.9625H102.862Z" fill="black" mask="url(#path-7-outside-1)"/>
<path d="M66.8548 82.0434L66.8559 82.0444L69.8816 85.0709C69.8817 85.0709 69.8817 85.071 69.8817 85.071C70.9823 86.1717 71.1238 87.9653 70.094 89.1671L66.8548 82.0434ZM66.8548 82.0434C65.6937 80.8855 63.8069 80.8848 62.6444 82.0441L62.6433 82.0452M66.8548 82.0434L62.6433 82.0452M62.6433 82.0452L59.5623 85.1269M62.6433 82.0452L59.5623 85.1269M59.692 87.3328C59.7196 87.8898 59.985 88.4134 60.4199 88.7682M59.692 87.3328C59.6636 86.775 59.8745 86.2289 60.2694 85.834L63.3505 82.7522L60.4199 88.7682M59.692 87.3328L58.6932 87.3823C58.6932 87.3825 58.6932 87.3827 58.6932 87.3829M59.692 87.3328L58.6933 87.3835C58.6933 87.3833 58.6933 87.3831 58.6932 87.3829M60.4199 88.7682C60.4977 88.8315 60.5806 88.8839 60.6642 88.9326L60.4199 88.7682ZM59.5623 85.1269C59.5622 85.1269 59.5622 85.127 59.5622 85.127L59.5623 85.1269ZM58.6932 87.3829C58.7352 88.2244 59.1351 89.0105 59.7877 89.543L59.789 89.5441C59.925 89.6547 60.0585 89.737 60.1604 89.7964C60.1605 89.7965 60.1607 89.7965 60.1608 89.7966L60.3262 89.8931L60.5597 90.0293H60.83H62.4626H62.716L62.9389 89.9086L63.0937 89.8247C63.3614 89.6813 63.6091 89.5027 63.824 89.2879C63.824 89.2879 63.8241 89.2878 63.8242 89.2877L64.749 88.3634L65.725 89.3399L65.725 89.3399L65.7276 89.3424C65.9025 89.5162 66.0905 89.6565 66.2988 89.7825L66.2988 89.7825L66.3039 89.7856L66.4734 89.8866L66.7101 90.0278H66.9857H68.6662H68.9405L69.1764 89.8879L69.3443 89.7883L69.3446 89.7882C69.6277 89.6201 69.8792 89.418 70.0938 89.1674L58.6932 87.3829ZM61.9815 87.549L61.9816 87.5489C61.9816 87.5489 61.9815 87.549 61.9815 87.549Z" fill="black" stroke="black" stroke-width="2"/>
<path d="M46.9673 56.2104C39.533 56.2104 33.4863 62.2572 33.4863 69.6924C33.4863 77.1267 39.533 83.1735 46.9673 83.1735C54.4026 83.1735 60.4493 77.1268 60.4493 69.6924C60.4493 62.2572 54.4026 56.2104 46.9673 56.2104ZM46.9673 79.2174C41.7167 79.2174 37.4433 74.9442 37.4433 69.6924C37.4433 64.4405 41.7168 60.1665 46.9673 60.1665C52.2189 60.1665 56.4923 64.4406 56.4923 69.6924C56.4923 74.9442 52.219 79.2174 46.9673 79.2174Z" fill="black" stroke="black" stroke-width="2"/>
<path d="M82.5376 56.2104C75.1033 56.2104 69.0566 62.2572 69.0566 69.6924C69.0566 77.1267 75.1034 83.1735 82.5376 83.1735C89.9729 83.1735 96.0196 77.1268 96.0196 69.6924C96.0196 62.2572 89.9729 56.2104 82.5376 56.2104ZM82.5376 79.2174C77.2859 79.2174 73.0126 74.9442 73.0126 69.6924C73.0126 64.4406 77.2861 60.1665 82.5376 60.1665C87.7892 60.1665 92.0626 64.4406 92.0626 69.6924C92.0626 74.9442 87.7894 79.2174 82.5376 79.2174Z" fill="black" stroke="black" stroke-width="2"/>
</svg>
