<svg width="129" height="129" viewBox="0 0 129 129" fill="none" xmlns="http://www.w3.org/2000/svg">
<mask id="mask0" mask-type="alpha" maskUnits="userSpaceOnUse" x="0" y="0" width="129" height="129">
<rect x="0.331726" y="0.824219" width="128" height="128" fill="#C4C4C4"/>
</mask>
<g mask="url(#mask0)">
<path d="M60.4626 63.7232H25.5626C25.5626 68.5899 25.8959 72.0566 26.5626 74.1232C27.2293 76.1899 28.6626 77.6566 30.8626 78.5232C33.1293 79.3232 36.8959 79.7232 42.1626 79.7232C47.2959 79.7232 52.7293 79.3566 58.4626 78.6232V85.7232C56.3293 86.1232 53.5626 86.4566 50.1626 86.7232C46.7626 86.9899 43.5293 87.1232 40.4626 87.1232C33.5959 87.1232 28.5293 86.3232 25.2626 84.7232C22.0626 83.1232 19.9626 80.5566 18.9626 77.0232C17.9626 73.4899 17.4626 68.1232 17.4626 60.9232C17.4626 53.8566 17.8959 48.5566 18.7626 45.0232C19.6959 41.4899 21.7293 38.8566 24.8626 37.1232C28.0626 35.3899 33.0959 34.5232 39.9626 34.5232C46.3626 34.5232 50.9959 35.3899 53.8626 37.1232C56.7293 38.7899 58.5293 41.3566 59.2626 44.8232C60.0626 48.2232 60.4626 53.5566 60.4626 60.8232V63.7232ZM39.7626 41.9232C35.4293 41.9232 32.2959 42.3232 30.3626 43.1232C28.4959 43.8566 27.2293 45.2899 26.5626 47.4232C25.9626 49.4899 25.6293 52.8566 25.5626 57.5232H52.6626V56.7232C52.6626 52.3232 52.2626 49.0899 51.4626 47.0232C50.7293 44.9566 49.4959 43.5899 47.7626 42.9232C46.0293 42.2566 43.3626 41.9232 39.7626 41.9232ZM72.1196 86.3232V79.4232L101.82 42.7232H73.3196V35.3232H112.32V42.2232L82.7196 78.9232H112.52V86.3232H72.1196Z" fill="white"/>
</g>
</svg>
