<svg width="128" height="128" viewBox="0 0 128 128" fill="none" xmlns="http://www.w3.org/2000/svg">
<mask id="mask0_1167_265" style="mask-type:alpha" maskUnits="userSpaceOnUse" x="0" y="0" width="128" height="128">
<rect width="128" height="128" fill="#C4C4C4"/>
</mask>
<g mask="url(#mask0_1167_265)">
<path d="M125.001 60.26C125.001 91.7162 97.8633 117.52 64.0007 117.52C30.1382 117.52 3 91.7162 3 60.26C3 28.8038 30.1382 3 64.0007 3C97.8633 3 125.001 28.8038 125.001 60.26Z" stroke="black" stroke-width="6"/>
<path d="M35.5661 70.3347C30.4461 72.4062 25.6917 75.1367 21.3945 78.7146V128.806H35.5661V70.3347Z" fill="#7B82E0"/>
<path d="M35.5664 70.3349V128.806H49.738V66.3804C44.8922 67.2278 40.1379 68.546 35.5664 70.3349Z" fill="#8EBDE7"/>
<path d="M63.9099 65.2502C59.1555 65.2502 54.4012 65.6269 49.7383 66.3801V128.806H63.9099V65.2502Z" fill="#9FC54D"/>
<path d="M63.9062 65.2502V128.9H78.0778V66.3801C73.4149 65.6269 68.6606 65.2502 63.9062 65.2502Z" fill="#F9DC30"/>
<path d="M77.7148 128.9H92.3436V70.3349C87.7721 68.4518 82.5606 67.2278 77.7148 66.3804V128.9Z" fill="#DA7C2D"/>
<path d="M92.3438 128.9H106.515V78.7146C102.218 75.1367 97.3724 72.4062 92.3438 70.3347V128.9Z" fill="#B71F25"/>
<path d="M80.9901 40.313L79.9628 40.7725L80.9924 41.2269L96.9925 48.2886L97.0014 48.2925L97.0103 48.296C97.9148 48.6543 98.3643 49.7473 97.9299 50.7267C97.6459 51.3035 96.9102 51.7565 96.2801 51.7565C96.0954 51.7565 95.8037 51.6882 95.5479 51.602L74.7253 42.385C74.0842 42.0903 73.6484 41.423 73.6484 40.6753C73.6484 39.9276 74.0842 39.2603 74.7253 38.9656L95.5587 29.7438C96.5002 29.3755 97.4829 29.7391 97.9202 30.6964C98.2858 31.6956 97.9076 32.718 96.9847 33.1596L80.9901 40.313Z" fill="black" stroke="black"/>
<path d="M30.0022 30.5874C30.3442 29.6715 31.3874 29.2702 32.3581 29.6498L53.1915 38.8716C53.8326 39.1663 54.2684 39.8336 54.2684 40.5813C54.2684 41.329 53.8326 41.9963 53.1915 42.2911L32.3486 51.517L32.3062 51.5358L32.268 51.562C32.0852 51.6875 31.8204 51.7567 31.6367 51.7567C30.9359 51.7567 30.2908 51.3246 29.9978 50.6576C29.6304 49.6577 30.0079 48.634 30.931 48.1916L46.9245 41.1329L47.954 40.6785L46.9267 40.219L30.9265 33.0631L30.9166 33.0587L30.9065 33.0547C29.9998 32.6956 29.5503 31.5981 29.9901 30.6169L29.9966 30.6023L30.0022 30.5874Z" fill="black" stroke="black"/>
<path d="M22.4452 80.1195L22.443 80.1213C21.6696 80.773 20.6182 80.6488 19.9566 79.8161C19.3002 78.99 19.4614 77.8079 20.2305 77.2318L20.239 77.2255L20.2472 77.2188C31.203 68.2674 46.261 63.3965 63.9085 63.3965C81.5583 63.3965 96.7039 68.1744 107.656 77.3089C108.437 77.9677 108.532 79.0743 107.944 79.9192C107.59 80.3495 107.102 80.5686 106.515 80.5686C106.183 80.5686 105.745 80.427 105.37 80.1178C92.2555 69.2759 75.5672 67.0101 63.9085 67.0101C52.2508 67.0101 35.4691 69.2755 22.4452 80.1195Z" fill="black" stroke="black"/>
</g>
</svg>
