<svg width="128" height="128" viewBox="0 0 128 128" fill="none" xmlns="http://www.w3.org/2000/svg">
<path d="M64.5 121.047C96.2823 121.047 122.047 95.2823 122.047 63.5C122.047 31.7177 96.2823 5.95312 64.5 5.95312C32.7177 5.95312 6.95312 31.7177 6.95312 63.5C6.95312 95.2823 32.7177 121.047 64.5 121.047Z" stroke="#FFC700" stroke-width="7.9375" stroke-linejoin="round"/>
<path d="M91.2891 52.5859C94.0289 52.5859 96.25 50.3649 96.25 47.625C96.25 44.8851 94.0289 42.6641 91.2891 42.6641C88.5492 42.6641 86.3281 44.8851 86.3281 47.625C86.3281 50.3649 88.5492 52.5859 91.2891 52.5859Z" fill="#FFC700"/>
<path d="M39.6953 52.5859C42.4352 52.5859 44.6562 50.3649 44.6562 47.625C44.6562 44.8851 42.4352 42.6641 39.6953 42.6641C36.9555 42.6641 34.7344 44.8851 34.7344 47.625C34.7344 50.3649 36.9555 52.5859 39.6953 52.5859Z" fill="#FFC700"/>
<path d="M90.793 66.4766C100.93 66.4766 109.148 58.2585 109.148 48.1211C109.148 37.9836 100.93 29.7656 90.793 29.7656C80.6555 29.7656 72.4375 37.9836 72.4375 48.1211C72.4375 58.2585 80.6555 66.4766 90.793 66.4766Z" stroke="#FFC700" stroke-width="7.9375"/>
<rect x="28.7812" y="75.4062" width="72.4297" height="22.8203" rx="11.4102" stroke="#FFC700" stroke-width="7.9375" stroke-linejoin="round"/>
<path d="M28.7812 86.3203H101.211" stroke="#FFC700" stroke-width="3.96875"/>
<path d="M65.4922 98.2266L65.4922 75.4063" stroke="#FFC700" stroke-width="3.96875"/>
<path d="M49.6172 98.2266L49.6172 75.4063" stroke="#FFC700" stroke-width="3.96875"/>
<path d="M81.3672 98.2266L81.3672 75.4063" stroke="#FFC700" stroke-width="3.96875"/>
<path d="M40.1914 66.4766C50.3289 66.4766 58.5469 58.2585 58.5469 48.1211C58.5469 37.9836 50.3289 29.7656 40.1914 29.7656C30.054 29.7656 21.8359 37.9836 21.8359 48.1211C21.8359 58.2585 30.054 66.4766 40.1914 66.4766Z" stroke="#FFC700" stroke-width="7.9375"/>
</svg>
