<svg width="129" height="129" viewBox="0 0 129 129" fill="none" xmlns="http://www.w3.org/2000/svg">
<path d="M64.3164 122.827C96.3489 122.827 122.316 96.8597 122.316 64.8271C122.316 32.7946 96.3489 6.82715 64.3164 6.82715C32.2839 6.82715 6.31641 32.7946 6.31641 64.8271C6.31641 96.8597 32.2839 122.827 64.3164 122.827Z" stroke="#FFC700" stroke-width="8" stroke-linejoin="round"/>
<path d="M38.3164 88.8271H90.3164" stroke="#FFC700" stroke-width="8" stroke-linecap="round"/>
<path d="M40.8164 60.8271C43.854 60.8271 46.3164 58.3647 46.3164 55.3271C46.3164 52.2896 43.854 49.8271 40.8164 49.8271C37.7788 49.8271 35.3164 52.2896 35.3164 55.3271C35.3164 58.3647 37.7788 60.8271 40.8164 60.8271Z" fill="#FFC700"/>
<path d="M58.3164 55.3271C58.3164 64.9921 50.4814 72.8271 40.8164 72.8271C31.1514 72.8271 23.3164 64.9921 23.3164 55.3271C23.3164 45.6622 31.1514 37.8271 40.8164 37.8271C50.4814 37.8271 58.3164 45.6622 58.3164 55.3271Z" stroke="#FFC700" stroke-width="8"/>
<path d="M88.8164 60.8271C91.854 60.8271 94.3164 58.3647 94.3164 55.3271C94.3164 52.2896 91.854 49.8271 88.8164 49.8271C85.7788 49.8271 83.3164 52.2896 83.3164 55.3271C83.3164 58.3647 85.7788 60.8271 88.8164 60.8271Z" fill="#FFC700"/>
<path d="M106.316 55.3271C106.316 64.9921 98.4814 72.8271 88.8164 72.8271C79.1514 72.8271 71.3164 64.9921 71.3164 55.3271C71.3164 45.6622 79.1514 37.8271 88.8164 37.8271C98.4814 37.8271 106.316 45.6622 106.316 55.3271Z" stroke="#FFC700" stroke-width="8"/>
</svg>
