<svg width="128" height="128" viewBox="0 0 128 128" fill="none" xmlns="http://www.w3.org/2000/svg">
<mask id="mask0_2067_14536" style="mask-type:alpha" maskUnits="userSpaceOnUse" x="0" y="0" width="128" height="128">
<rect width="128" height="128" fill="#C4C4C4"/>
</mask>
<g mask="url(#mask0_2067_14536)">
<path d="M32.4291 68.487L25.4304 57.5107L3.72879 46.3995L7.56841 43.9513L24.8947 52.8038L25.1869 52.6176L24.3876 33.2271L28.1437 30.8321L29.0196 55.2222L36.0183 66.1985L32.4291 68.487ZM48.0118 58.5512L29.7036 29.8375L48.3591 17.9425L50.3283 21.0309L35.262 30.6374L41.3559 40.1947L54.4606 31.8389L56.4564 34.969L43.3517 43.3248L49.6318 53.1742L64.6981 43.5677L66.6673 46.6561L48.0118 58.5512ZM70.0286 44.5129L51.7204 15.7993L70.3759 3.90421L72.3451 6.99259L57.2788 16.5991L63.3726 26.1564L76.4774 17.8006L78.4732 20.9307L65.3685 29.2865L71.6486 39.136L86.7149 29.5294L88.6841 32.6178L70.0286 44.5129ZM33.4098 117.673L15.1015 88.9593L18.6907 86.6708L26.7538 99.3165L41.7784 89.7365L33.7153 77.0909L37.3045 74.8023L55.6128 103.516L52.0236 105.804L43.8008 92.9084L28.7762 102.488L36.999 115.384L33.4098 117.673ZM57.8016 102.12L50.3444 66.4879L54.8517 63.6139L83.9694 85.4353L80.255 87.8037L72.2889 81.8469L59.3928 90.0697L61.4325 99.8052L57.8016 102.12ZM58.4821 86.2476L69.208 79.4087L54.9815 68.697L54.7729 68.83L58.4821 86.2476ZM89.3016 82.0354L63.1889 58.298L66.8616 55.9562L88.5749 75.9241L88.8253 75.7644L80.5089 47.2545L84.2651 44.8595L106.646 64.4016L106.897 64.2419L97.7872 36.2376L101.376 33.949L111.88 67.6389L107.623 70.3532L85.873 51.5242L85.7061 51.6307L93.6003 79.2944L89.3016 82.0354ZM116.834 52.9159C116.015 51.755 115.179 50.5663 114.325 49.3497C113.471 48.1332 112.612 46.9394 111.748 45.7684C110.894 44.5518 110.085 43.4048 109.319 42.3273C108.564 41.2043 107.889 40.2065 107.293 39.3339C106.698 38.4613 106.205 37.719 105.815 37.1068L103.1 32.8499L107.065 30.3218L109.779 34.5788C110.17 35.1909 110.635 35.951 111.175 36.8591C111.714 37.7672 112.32 38.8093 112.992 39.9856C113.674 41.1163 114.372 42.3342 115.087 43.6395C115.812 44.8992 116.546 46.1728 117.288 47.4603C118.031 48.7479 118.756 50.0076 119.463 51.2395L116.834 52.9159ZM121.409 61.5635L118.801 57.4735L122.765 54.9454L125.373 59.0355L121.409 61.5635Z" fill="white"/>
</g>
</svg>
