<svg width="128" height="128" viewBox="0 0 128 128" fill="none" xmlns="http://www.w3.org/2000/svg">
<path d="M50.4568 46.6048L43.1968 23.7845C42.5799 21.8456 40.4782 20.7778 38.5028 21.3997L24.4122 25.8352C22.626 26.444 20.6626 25.7152 19.7429 24.1022C19.2412 23.1374 19.1985 22.0012 19.6256 20.9955C20.053 19.9897 20.907 19.2168 21.9607 18.882L39.8459 13.252C43.7959 12.0211 47.9901 14.152 49.2339 18.0217L57.6109 44.3528L50.4568 46.6048Z" fill="#F29C1F"/>
<path d="M51.4313 38.0003H73.3108C73.9748 37.992 74.5915 38.3395 74.9231 38.9092L85.6284 56.5497V39.855C85.6319 38.8314 86.4694 38.0026 87.5032 38.0001H94.009C94.4803 37.9958 94.9355 38.1681 95.284 38.4823C111.461 53.0568 114.711 77.0384 102.989 95.321C91.266 113.604 67.965 120.892 47.7633 112.595C27.5615 104.298 16.3098 82.8198 21.0961 61.6882C23.7843 49.8195 29.3376 42.5786 35.0265 38.0003L51.4313 38.0003Z" fill="#7F5B53"/>
<path d="M57.4263 80.4258C58.6748 78.9501 58.3068 76.6127 56.6042 75.205C54.9017 73.7973 52.5093 73.8524 51.2607 75.3281C50.0122 76.8037 50.3802 79.1412 52.0828 80.5488C53.7853 81.9565 56.1777 81.9014 57.4263 80.4258Z" fill="#59474E"/>
<path d="M55.0302 99.8106C56.9922 97.4917 56.685 94.0428 54.3439 92.1072C52.0029 90.1716 48.5146 90.4824 46.5526 92.8013C44.5905 95.1202 44.8978 98.5691 47.2388 100.505C49.5798 102.44 53.0681 102.129 55.0302 99.8106Z" fill="#59474E"/>
<path d="M43.0302 84.8106C44.9922 82.4917 44.685 79.0428 42.3439 77.1072C40.0029 75.1716 36.5146 75.4824 34.5526 77.8013C32.5905 80.1202 32.8978 83.5691 35.2388 85.5046C37.5798 87.4402 41.0681 87.1295 43.0302 84.8106Z" fill="#59474E"/>
</svg>
