<svg width="129" height="129" viewBox="0 0 129 129" fill="none" xmlns="http://www.w3.org/2000/svg">
<path d="M64.2194 122.892C96.221 122.892 122.163 96.9495 122.163 64.9479C122.163 32.9463 96.221 7.00391 64.2194 7.00391C32.2178 7.00391 6.27539 32.9463 6.27539 64.9479C6.27539 96.9495 32.2178 122.892 64.2194 122.892Z" stroke="#FF69B4" stroke-width="8" stroke-linejoin="round"/>
<path d="M42.6606 58.5076C47.9399 58.5076 52.2196 54.2279 52.2196 48.9486C52.2196 43.6694 47.9399 39.3896 42.6606 39.3896C37.3813 39.3896 33.1016 43.6694 33.1016 48.9486C33.1016 54.2279 37.3813 58.5076 42.6606 58.5076Z" fill="#FF69B4"/>
<path d="M64.2182 103.929C70.4311 103.929 75.4676 96.8347 75.4676 88.0829C75.4676 79.3311 70.4311 72.2363 64.2182 72.2363C58.0053 72.2363 52.9688 79.3311 52.9688 88.0829C52.9688 96.8347 58.0053 103.929 64.2182 103.929Z" fill="#FF69B4"/>
<path d="M85.7777 58.5076C91.057 58.5076 95.3367 54.2279 95.3367 48.9486C95.3367 43.6694 91.057 39.3896 85.7777 39.3896C80.4985 39.3896 76.2188 43.6694 76.2188 48.9486C76.2188 54.2279 80.4985 58.5076 85.7777 58.5076Z" fill="#FF69B4"/>
</svg>
