<svg width="129" height="129" viewBox="0 0 129 129" fill="none" xmlns="http://www.w3.org/2000/svg">
<path d="M64.5944 122.846C96.596 122.846 122.538 96.9036 122.538 64.902C122.538 32.9004 96.596 6.95801 64.5944 6.95801C32.5928 6.95801 6.65039 32.9004 6.65039 64.902C6.65039 96.9036 32.5928 122.846 64.5944 122.846Z" stroke="#7BDEDE" stroke-width="8" stroke-linejoin="round"/>
<path d="M40.7697 62.8373C43.9217 62.8373 46.4769 60.2821 46.4769 57.1301C46.4769 53.9781 43.9217 51.4229 40.7697 51.4229C37.6177 51.4229 35.0625 53.9781 35.0625 57.1301C35.0625 60.2821 37.6177 62.8373 40.7697 62.8373Z" fill="#7BDEDE"/>
<path d="M88.4191 62.8373C91.5711 62.8373 94.1263 60.2821 94.1263 57.1301C94.1263 53.9781 91.5711 51.4229 88.4191 51.4229C85.2671 51.4229 82.7119 53.9781 82.7119 57.1301C82.7119 60.2821 85.2671 62.8373 88.4191 62.8373Z" fill="#7BDEDE"/>
<path d="M58.2559 57.1297C58.2559 66.787 50.4271 74.6157 40.7698 74.6157C31.1125 74.6157 23.2837 66.787 23.2837 57.1297C23.2837 47.4723 31.1125 39.6436 40.7698 39.6436C50.4271 39.6436 58.2559 47.4723 58.2559 57.1297Z" stroke="#7BDEDE" stroke-width="8"/>
<path d="M105.905 57.1297C105.905 66.787 98.0765 74.6157 88.4192 74.6157C78.7619 74.6157 70.9331 66.787 70.9331 57.1297C70.9331 47.4723 78.7619 39.6436 88.4192 39.6436C98.0765 39.6436 105.905 47.4723 105.905 57.1297Z" stroke="#7BDEDE" stroke-width="8"/>
<path d="M90.2461 90.918C90.2461 90.918 82.917 98.3623 64.5942 98.3623C46.2715 98.3623 38.9424 90.918 38.9424 90.918" stroke="#7BDEDE" stroke-width="8" stroke-linecap="round"/>
<path d="M125.955 40.693C125.955 49.095 119.143 55.908 110.74 55.908C102.337 55.908 95.5239 49.095 95.5239 40.692C95.5239 32.289 110.74 6.95801 110.74 6.95801C110.74 6.95801 125.955 32.288 125.955 40.692V40.693Z" fill="#7BDEDE"/>
</svg>
