<svg width="128" height="128" viewBox="0 0 128 128" fill="none" xmlns="http://www.w3.org/2000/svg">
<mask id="mask0" mask-type="alpha" maskUnits="userSpaceOnUse" x="0" y="0" width="128" height="128">
<rect width="128" height="128" fill="#F0F0F0"/>
</mask>
<g mask="url(#mask0)">
<path d="M20.3671 30.7243C10.2139 46.8808 20.1183 92.9733 26.3396 114H83.3269L100 37.4562L83.3269 30.7243C84.5711 23.9093 80.3904 9.23341 58.6904 10.0313C36.9904 10.8291 26.8373 21.7484 23.851 26.4857V30.7243H20.3671Z" fill="#706877"/>
<path d="M100.619 37.0584C107.964 53.9343 96.4529 96.0414 91.1819 113H36.3461C19.2067 58.0044 27.1643 33.8321 33.2855 30.6058H36.3461L33.2855 25.8905C42.4673 14.5737 55.1348 11.2482 60.3209 11L64.6567 21.6715L67.4623 11C77.8683 12.1912 91.8621 24.5669 97.5583 30.6058L95.7729 38.7956L100.619 37.0584Z" fill="#C2BAC8"/>
<path d="M41 55.7664H44.9467V47.9124H45.5192C46.8448 47.9124 47.4775 48.6131 47.839 51.0657C48.1403 53.2263 48.5922 55.2117 48.8332 55.7664H52.9607C52.5992 55.0365 52.0569 52.6131 51.6652 50.4234C51.2736 48.3212 50.5806 47.0657 49.1947 46.5401V46.4818C51.2736 45.5474 52.328 43.6496 52.328 41.5474C52.328 39.854 51.9665 38.5401 50.7313 37.4599C49.4056 36.292 47.4775 36 45.3083 36C43.8019 36 42.2352 36.146 41 36.3796V55.7664ZM44.9467 39.0949C45.1576 39.0073 45.5493 38.9781 45.8807 38.9781C47.6582 39.0365 48.3512 40.2336 48.3512 41.8978C48.3512 43.6204 47.3569 44.9635 45.6397 44.9635H44.9467V39.0949Z" fill="#706877"/>
<path d="M57.1402 56C58.5261 56 59.4601 55.0073 59.4601 53.4599C59.4601 51.8832 58.4357 50.9197 57.1703 50.9197C55.9652 50.9197 54.8505 52 54.8505 53.4599C54.8505 55.0073 55.905 56 57.1402 56Z" fill="#706877"/>
<path d="M62.1835 36.0876V55.7664H66.1303V36.0876H62.1835Z" fill="#706877"/>
<path d="M71.6451 56C73.0309 56 73.9649 55.0073 73.9649 53.4599C73.9649 51.8832 72.9406 50.9197 71.6752 50.9197C70.4701 50.9197 69.3554 52 69.3554 53.4599C69.3554 55.0073 70.4098 56 71.6451 56Z" fill="#706877"/>
<path d="M76.6884 55.7664H80.6351V48.438C80.8761 48.438 81.1473 48.438 81.4184 48.438C83.0453 48.438 85.094 47.854 86.3594 46.5693C87.4139 45.4599 88.0767 43.9708 88.0767 41.8394C88.0767 40.1752 87.5344 38.5401 86.3293 37.5182C85.0036 36.3212 83.1659 36 80.8159 36C79.3095 36 77.8031 36.146 76.6884 36.3796V55.7664ZM80.6351 39.2409C80.8761 39.1533 81.2377 39.0949 81.5992 39.0949C83.437 39.0949 84.1601 40.438 84.1601 42.1606C84.1601 44 83.2562 45.3723 81.2678 45.3723C81.0268 45.3723 80.8159 45.3723 80.6351 45.3139V39.2409Z" fill="#706877"/>
<path d="M88.6802 56C90.066 56 91 55.0073 91 53.4599C91 51.8832 89.9757 50.9197 88.7103 50.9197C87.5052 50.9197 86.3905 52 86.3905 53.4599C86.3905 55.0073 87.4449 56 88.6802 56Z" fill="#706877"/>
<path d="M64.9785 118.912C60.8879 108.458 56.54 93.2414 68.6206 76.6309" stroke="#519D3E" stroke-width="2"/>
<path d="M69.7075 57.0873C72.5154 58.0398 71.6574 66.017 70.8775 69.8865C70.4127 72.9822 69.5138 72.1686 69.1225 71.3748C66.4901 67.2076 66.1976 55.8967 69.7075 57.0873Z" fill="white"/>
<path d="M72.0024 88.5473C69.0633 88.1557 68.3628 80.1632 68.3799 76.2158C68.2373 73.0887 69.2765 73.7132 69.814 74.4163C73.2024 77.9959 75.6762 89.0369 72.0024 88.5473Z" fill="white"/>
<path d="M58.0634 64.3232C61.015 62.0019 67.0588 67.8423 69.7117 71.0526C71.9561 73.4558 70.5839 73.8832 69.6173 73.7965C64.0996 73.9408 54.3738 67.2249 58.0634 64.3232Z" fill="white"/>
<path d="M58.0634 82.5713C61.015 84.8926 67.0588 79.0522 69.7117 75.8419C71.9561 73.4387 70.5839 73.0114 69.6173 73.0981C64.0996 72.9537 54.3738 79.6696 58.0634 82.5713Z" fill="white"/>
<path d="M80.7306 64.2707C77.8365 61.9395 73.0114 67.1354 70.9606 70.0248C69.1931 72.1749 70.4709 72.6453 71.3307 72.6117C76.3048 73.0218 84.3482 67.1848 80.7306 64.2707Z" fill="white"/>
<path d="M81.3231 80.5634C82.8631 77.1812 76.6321 73.7968 73.3242 72.5273C70.8027 71.3488 70.6641 72.7033 70.91 73.5278C71.7474 78.4481 79.3981 84.7911 81.3231 80.5634Z" fill="white"/>
<ellipse cx="70.1305" cy="73.6102" rx="3.0201" ry="4.53015" fill="#F2E67B"/>
<path d="M120 115H9L15.236 113.753C15.4355 109.963 19.809 110.346 21.9708 111.011C24.1658 107.819 27.0427 109.681 28.2067 111.011C30.8009 106.423 34.4427 108.268 35.9393 109.764C38.1344 106.173 41.8427 108.268 43.4225 109.764C45.2184 105.575 50.1573 106.855 52.4022 108.018C54.7969 102.433 59.3865 105.193 61.382 107.27C62.3798 101.087 69.9461 100.871 73.6045 101.535C78.5933 95.9501 84.8292 98.2109 87.3236 100.039C94.1083 96.2495 98.4652 101.619 99.7955 104.777C100.544 103.78 102.889 102.084 106.281 103.281C109.673 104.478 110.355 108.102 110.272 109.764C114.462 107.171 115.51 110.844 115.51 113.005C118.503 112.207 119.751 114.003 120 115Z" fill="#986A24"/>
</g>
</svg>
