<svg xmlns="http://www.w3.org/2000/svg" width="128" height="128"><path d="M61.88 27.07s1.701-10.804 8.355-15.053c6.654-4.249 11.297-4.613 11.297-4.613l7.427 6.192s-19.188 4.613-20.426 18.573c-1.083 14.083-6.654-5.098-6.654-5.098z" fill="#68aa00" stroke-width=".334"/><path d="M114.848 51.539c4.533 15.977 1.715 35.066-7.597 49.771-3.553 5.798-7.841 10.322-12.375 13.292-4.533 3.11-9.312 4.666-14.09 4.666-2.45 0-5.024-.424-7.474-1.414l-.858-.283-.735.566c-4.41 3.393-10.415 3.252-14.825-.283l-.736-.566-.857.283c-2.696 1.131-5.391 1.697-8.21 1.697-9.556 0-19.236-6.646-26.465-18.1-9.189-14.704-12.13-33.793-7.596-49.77 5.759-19.514 18.624-23.756 28.426-23.756 7.719 0 13.845 2.546 13.967 2.546l.858.282.735-.565c4.411-3.535 10.415-3.677 14.826-.283l.735.566.735-.283c1.96-.707 6.984-2.263 13.11-2.263 9.924 0 22.79 4.242 28.426 23.897z" fill="#f27503" stroke-width=".321"/><path d="M114.848 51.539c4.533 15.977 1.715 35.066-7.597 49.771-3.553 5.798-7.841 10.322-12.375 13.292-4.533 3.11-9.312 4.666-14.09 4.666-2.45 0-5.024-.424-7.474-1.414l-.858-.283-.735.566c-4.41 3.393-10.415 3.252-14.825-.283l-.736-.566-.857.283c9.001-26.88 18.794-69.53.122-87.383l.858.282.735-.565c4.411-3.535 10.415-3.677 14.826-.283l.735.566.735-.283c1.96-.707 6.984-2.263 13.11-2.263 9.924 0 22.79 4.242 28.426 23.897z" fill="#ef8318" stroke-width=".321"/><path d="M71.842 118.278l.735-.566c-.368.283-.613.425-.98.707.122 0 .245-.141.245-.141zm.735-.566l.857.283c2.45.849 4.901 1.414 7.474 1.414 4.779 0 9.68-1.697 14.09-4.666 4.534-3.11 8.7-7.635 12.376-13.291 9.189-14.706 12.13-33.794 7.596-49.772-5.759-19.796-18.624-24.038-28.426-24.038-6.126 0-11.272 1.556-13.11 2.263l-.857.283s18.35 6.717 25.456 19.301c8.332 14.705 9.218 51.821-25.456 68.223z" fill="#d35c02"/><path d="M80.958 43.812l-12.91 22.45c2.69 1.628 4.254 4.448 4.414 7.396h25.074c.278-11.828-5.658-23.461-16.578-29.846zm-34.657.417A33.466 33.466 0 0 0 34.86 55.997c-3.212 5.564-4.55 11.678-4.393 17.661h23.632a9.13 9.13 0 0 1 1.215-4.129 9.135 9.135 0 0 1 3.585-3.484L46.3 44.229zm16.996 23.85a6.026 6.026 0 0 0-5.253 3.03 6.027 6.027 0 0 0 2.216 8.262 6.02 6.02 0 0 0 8.258-2.212 6.026 6.026 0 0 0-2.212-8.263 6.04 6.04 0 0 0-3.01-.819zm4.767 13.917c-2.725 1.647-6.228 1.832-9.192.21l-11.494 19.806c4.976 2.835 10.314 4.253 15.67 4.392 5.84.152 11.61-1.315 16.748-4.06z" fill="#231f20" stroke-width="1.137"/><path d="M46.301 44.229A33.466 33.466 0 0 0 34.86 55.997c-3.212 5.564-4.55 11.679-4.393 17.661h4.84c2.397-16.574 9.957-23.3 13.264-25.497l-2.27-3.932zm34.656-.417h.001zm0 0l-12.909 22.45a9.12 9.12 0 0 1 3.179 3.246L86.12 47.533a33.497 33.497 0 0 0-5.163-3.72z" stroke-width="1.137"/><path d="M63.296 68.078a6.026 6.026 0 0 0-5.253 3.03 6.026 6.026 0 0 0 1.784 7.988c-.995-4.737.91-8.813 3.995-10.991a6.013 6.013 0 0 0-.526-.028zm-4.424 14.129l-11.494 19.805a33.803 33.803 0 0 0 5.967 2.676l9.05-21.399a9.137 9.137 0 0 1-3.523-1.082z" stroke-width=".362"/></svg>