<svg width="30" height="38" viewBox="0 0 30 38" fill="none" xmlns="http://www.w3.org/2000/svg">
<path d="M10.3057 36.9256C1.3317 34.0388 0.400326 28.0544 0.247166 23.1488C0.155603 20.6584 2.17033 16.9837 2.53615 15.0198C2.95895 12.7501 4.88059 7.99811 6.29865 6.07779C10.0981 1.89599 9.51194 1.43468 13.2535 1.17843C16.996 0.923325 19.0189 1.46254 21.5831 3.2916C27.5159 7.3946 26.7766 9.77678 26.8357 15.6599C26.8848 18.793 28.1631 23.2668 27.1165 26.2894C26.0699 29.3109 25.8436 30.8563 24.1004 32.6466C22.3582 34.437 20.378 36.0748 18.4524 36.7422C14.0139 37.6481 11.6151 37.1256 10.3057 36.9256Z" fill="#A7970A"/>
<path d="M12.4824 35.9244C3.50846 33.0376 2.57708 27.0532 2.42392 22.1476C2.33236 19.6572 4.34709 15.9825 4.7129 14.0186C5.13571 11.7489 7.05735 6.99689 8.4754 5.07657C12.2749 0.894767 11.6887 0.43346 15.4303 0.177214C19.1727 -0.0778957 21.1956 0.461316 23.7599 2.29037C29.6927 6.39338 28.9534 8.77556 29.0124 14.6586C29.0615 17.7917 30.3398 22.2656 29.2932 25.2882C28.2467 28.3097 28.0203 29.8551 26.2772 31.6454C24.5349 33.4357 22.5547 35.0736 20.6291 35.741C16.1907 36.6469 13.7919 36.1244 12.4824 35.9244Z" fill="url(#paint0_radial)"/>
<path d="M12.4824 35.9244C3.50846 33.0376 2.57708 27.0532 2.42392 22.1476C2.33236 19.6572 4.34709 15.9825 4.7129 14.0186C5.13571 11.7489 7.05735 6.99689 8.4754 5.07657C12.2749 0.894767 11.6887 0.43346 15.4303 0.177214C19.1727 -0.0778957 21.1956 0.461316 23.7599 2.29037C29.6927 6.39338 28.9534 8.77556 29.0124 14.6586C29.0615 17.7917 30.3398 22.2656 29.2932 25.2882C28.2467 28.3097 28.0203 29.8551 26.2772 31.6454C24.5349 33.4357 22.5547 35.0736 20.6291 35.741C16.1907 36.6469 13.7919 36.1244 12.4824 35.9244Z" fill="url(#paint1_linear)" fill-opacity="0.9"/>
<path d="M18.738 31.2827C18.738 32.6737 17.3188 33.8014 15.9627 33.8014C14.6065 33.8014 13.827 32.6737 13.827 31.2827C13.827 29.8916 15.1548 29.0452 16.511 29.0452C17.8671 29.0452 18.738 29.8916 18.738 31.2827Z" fill="#988A0C"/>
<path d="M26.8656 26.0929C25.406 27.3195 22.4313 27.1633 20.7194 26.064C19.0075 24.9646 19.2067 23.3383 20.6663 22.1117C22.1259 20.8851 24.6902 21.2152 26.4021 22.3145C28.1139 23.4139 28.3252 24.8663 26.8656 26.0929L26.8656 26.0929Z" fill="#988A0C"/>
<path d="M20.5634 5.90247C23.1417 6.22896 24.1724 8.55409 23.1601 10.523C22.1478 12.4919 19.4758 13.359 16.8975 13.0325C14.3192 12.706 13.7415 10.5795 14.7539 8.61063C15.7662 6.64174 17.9852 5.57599 20.5634 5.90247Z" fill="#988A0C"/>
<path d="M8.26793 28.6804C7.59296 28.8578 6.84805 28.3383 6.6591 27.7043C6.47015 27.0704 6.90871 26.5621 7.58368 26.3847C8.25865 26.2072 8.85438 26.7199 9.04333 27.3539C9.23228 27.9878 8.94291 28.5029 8.26793 28.6804Z" fill="#988A0C"/>
<path d="M6.8719 19.4704C6.23703 18.4394 6.56691 16.7451 7.37393 15.9248C8.18094 15.1045 9.15948 15.4688 9.79435 16.4998C10.4292 17.5309 10.0254 18.9614 9.21836 19.7817C8.41135 20.6021 7.50677 20.5015 6.8719 19.4704Z" fill="#988A0C"/>
<defs>
<radialGradient id="paint0_radial" cx="0" cy="0" r="1" gradientUnits="userSpaceOnUse" gradientTransform="translate(10.0962 13.0569) rotate(75.578) scale(23.9545 18.0844)">
<stop stop-color="#ECF013"/>
<stop offset="1" stop-color="#AEB110"/>
</radialGradient>
<linearGradient id="paint1_linear" x1="3.25532" y1="7.84473" x2="16.0624" y2="36.2565" gradientUnits="userSpaceOnUse">
<stop stop-color="#F1F29E" stop-opacity="0.9"/>
<stop offset="0.09375" stop-color="#E4E84B" stop-opacity="0.939326"/>
<stop offset="0.135417" stop-color="#F4F4D1" stop-opacity="0.929213"/>
<stop offset="0.463542" stop-color="#CED200"/>
<stop offset="0.578125" stop-color="#EFEFA5"/>
<stop offset="0.6875" stop-color="#C4BD3B"/>
<stop offset="0.986024" stop-color="#CBB814"/>
</linearGradient>
</defs>
</svg>
