<svg width="37" height="29" viewBox="0 0 37 29" fill="none" xmlns="http://www.w3.org/2000/svg">
<g opacity="0.85">
<path d="M34.6221 24.5195L21.5666 22.6615L16.6878 18.5632H22.4559C23.5494 18.5632 24.4368 17.6817 24.4368 16.5824C24.4368 15.487 23.5494 14.6016 22.4559 14.6016H6.60938V22.5248H9.75096L17.0939 27.8869C17.4643 28.2613 17.9654 28.4673 18.4943 28.4673H34.3409C35.3749 28.4673 36.2425 27.6631 36.3157 26.6251C36.4029 25.6129 35.6482 24.6721 34.6221 24.5195Z" fill="white"/>
<path d="M4.62961 14.6016H0.667969V26.4865H4.62961V14.6016Z" fill="white"/>
<path d="M28.2837 7.99495L28.2837 0.789381L32.7581 0.781709L32.7581 7.99459L35.6494 7.99459C36.246 7.99459 36.5442 8.70628 36.1313 9.1268L30.9989 14.4046C30.9366 14.4682 30.8622 14.5187 30.7801 14.5532C30.698 14.5877 30.6099 14.6055 30.5209 14.6055C30.4318 14.6055 30.3437 14.5877 30.2616 14.5532C30.1795 14.5187 30.1051 14.4682 30.0428 14.4046L24.9108 9.1268C24.5052 8.70628 24.8034 7.99495 25.3923 7.99495L28.2837 7.99495Z" fill="white"/>
</g>
</svg>
