<svg width="12" height="15" viewBox="0 0 12 15" fill="none" xmlns="http://www.w3.org/2000/svg">
<path fill-rule="evenodd" clip-rule="evenodd" d="M0.942418 8.91579C0.999826 10.7545 1.34892 12.9976 4.71255 14.0796C4.75037 14.0854 4.79061 14.0919 4.83343 14.0988C5.34644 14.1816 6.23066 14.3243 7.76611 14.0109C8.48786 13.7607 9.23009 13.1468 9.88313 12.4758C10.4112 11.9334 10.5679 11.451 10.8157 10.6879C10.8745 10.5069 10.9384 10.3101 11.0136 10.093C11.2761 9.33491 11.1484 8.33333 11.0297 7.40171C10.971 6.94099 10.9144 6.49737 10.9083 6.10878C10.9059 5.86874 10.9071 5.64424 10.9081 5.43278C10.9169 3.70164 10.9213 2.84338 8.93959 1.4729C7.97845 0.787327 7.22021 0.585219 5.81747 0.68084C4.71902 0.756068 4.61573 0.87845 3.93824 1.68114L3.93823 1.68115C3.75076 1.90327 3.51931 2.17749 3.21064 2.51722C2.67912 3.237 1.95885 5.01814 1.80038 5.86889C1.74874 6.14608 1.60947 6.5142 1.45771 6.91532C1.20647 7.57937 0.921022 8.33385 0.942418 8.91579ZM6.0171 13.2841C6.5254 13.2841 7.05734 12.8614 7.05734 12.34C7.05734 11.8186 6.73091 11.5013 6.22261 11.5013C5.71431 11.5013 5.21662 11.8186 5.21662 12.34C5.21662 12.8614 5.5088 13.2841 6.0171 13.2841ZM10.1037 10.3948C9.55659 10.8545 8.4416 10.796 7.79995 10.3839C7.1583 9.97186 7.23297 9.36229 7.78005 8.90253C8.32713 8.44278 9.28828 8.56649 9.92993 8.97856C10.5716 9.39062 10.6508 9.93502 10.1037 10.3948L10.1037 10.3948ZM8.71467 4.55844C9.09411 3.82045 8.70779 2.94894 7.7414 2.82657C6.77501 2.7042 5.94328 3.10366 5.56384 3.84164C5.18441 4.57963 5.40094 5.37667 6.36733 5.49904C7.33372 5.62141 8.33524 5.29642 8.71467 4.55844ZM3.13299 11.3645C2.88 11.431 2.60079 11.2363 2.52996 10.9987C2.45914 10.761 2.62352 10.5705 2.87652 10.504C3.12951 10.4375 3.3528 10.6297 3.42362 10.8673C3.49445 11.1049 3.38598 11.298 3.13299 11.3645ZM2.79781 6.58345C2.49532 6.89092 2.37167 7.52597 2.60964 7.91243C2.8476 8.29888 3.18666 8.33659 3.48914 8.02912C3.79163 7.72165 3.943 7.18544 3.70503 6.79898C3.46707 6.41253 3.10029 6.27598 2.79781 6.58345Z" fill="white"/>
</svg>
