<svg xmlns="http://www.w3.org/2000/svg" width="128" height="128" viewBox="0 0 33.867 33.867"><g fill="#fff"><path d="M16.92 2.384a12.7 12.7 0 0 0-12.7 12.7 12.7 12.7 0 0 0 1.198 5.351 5.82 5.81 0 0 1 2.506-.572 5.82 5.81 0 0 1 5.82 5.81 5.82 5.81 0 0 1-.237 1.63 12.7 12.7 0 0 0 3.413.481 12.7 12.7 0 0 0 3.412-.48 5.82 5.81 0 0 1-.237-1.631 5.82 5.81 0 0 1 5.82-5.81 5.82 5.81 0 0 1 2.506.574 12.7 12.7 0 0 0 1.199-5.353 12.7 12.7 0 0 0-12.7-12.7z"/><path d="M11.655 26.73a4.763 4.754 0 0 1-4.762 4.753 4.763 4.754 0 0 1-4.763-4.754 4.763 4.754 0 0 1 4.763-4.753 4.763 4.754 0 0 1 4.762 4.753zm20.082 0a4.763 4.754 0 0 1-4.763 4.753 4.763 4.754 0 0 1-4.762-4.754 4.763 4.754 0 0 1 4.762-4.753 4.763 4.754 0 0 1 4.763 4.753z"/></g></svg>