<svg width="51" height="52" viewBox="0 0 51 52" fill="none" xmlns="http://www.w3.org/2000/svg">
<g clip-path="url(#clip0)">
<path d="M42.5902 2.56338L40.782 3.43796C40.6176 3.51747 40.3737 3.43259 40.212 3.30796C39.5255 2.72724 38.2501 3.44549 38.2501 3.44549L37.9531 4.29911C37.8258 4.66495 37.5765 4.98835 37.1655 5.18711L10.2066 18.2263C10.0422 18.3058 9.87783 18.3853 9.67369 18.3826L6.6487 18.6287C5.87191 18.7001 5.209 19.4264 5.28045 20.2032L5.31752 20.4895L4.57779 20.8473C4.00245 21.1256 3.70806 21.7751 3.82196 22.4299C4.24851 24.1506 4.90015 27.3851 4.39358 28.6443C3.71725 30.3913 4.52574 31.0144 5.99714 30.9113C7.42879 30.7259 9.82847 28.3483 10.3711 33.6639C10.8025 38.1205 12.124 46.3048 12.8525 49.9078C13.0432 50.9312 14.0983 51.4351 15.0024 50.9978L24.5367 46.3864C25.523 45.9094 25.7035 44.605 24.8155 43.8175L24.5743 43.5285C24.2111 43.197 23.9726 42.7039 24.0204 42.1737C24.0736 41.2352 23.8114 39.435 23.5149 37.1444C23.1839 34.3633 22.9218 32.5631 22.7284 31.7439L30.5366 27.9673C32.0982 27.2119 32.976 25.6718 32.8755 23.9962L32.4603 18.3148L44.6247 12.4313C45.3644 12.0735 45.7436 11.1801 45.3461 10.3582L44.551 8.71435C44.4318 8.46777 44.5167 8.22388 44.7632 8.10462L45.1742 7.90586C45.4208 7.7866 45.5056 7.5427 45.3864 7.29613L43.2397 2.85776C43.0807 2.529 42.8368 2.44412 42.5902 2.56338ZM30.5876 24.0887C30.6193 24.7833 30.2427 25.4725 29.5852 25.7905L22.4345 29.2491L21.9263 24.4239C21.8124 23.7691 22.2287 23.162 22.804 22.8838L22.9684 22.8042C24.2169 24.1274 26.0327 25.7846 27.2575 25.8007C29.1479 24.8864 25.7227 24.5147 25.2698 21.6911L30.2013 19.3059L30.5876 24.0887Z" fill="white"/>
</g>
<defs>
<clipPath id="clip0">
<path d="M0.125977 0.63269H50.8598V51.3665H0.125977V0.63269Z" fill="white"/>
</clipPath>
</defs>
</svg>
