<svg width="61" height="63" viewBox="0 0 61 63" fill="none" xmlns="http://www.w3.org/2000/svg">
<path d="M20.7983 49.3182L10.6187 31.6873L20.798 14.0563L41.1566 14.0566L51.3362 31.6875L41.1569 49.3185L20.7983 49.3182Z" fill="#191919"/>
<path fill-rule="evenodd" clip-rule="evenodd" d="M18.9802 52.4662L6.98241 31.6863L18.9799 10.906L42.9748 10.9064L54.9726 31.6864L42.9751 52.4667L18.9802 52.4662ZM10.6188 31.6862L20.7984 49.3171L41.157 49.3175L51.3362 31.6864L41.1566 14.0556L20.798 14.0552L10.6188 31.6862Z" fill="#191919"/>
<path d="M20.7983 49.3182L10.6187 31.6873L20.798 14.0563L41.1566 14.0566L51.3362 31.6875L41.1569 49.3185L20.7983 49.3182Z" fill="#8E2A9E"/>
<path fill-rule="evenodd" clip-rule="evenodd" d="M21.7074 47.7436L40.2478 47.7439L49.518 31.6875L40.2475 15.6312L21.707 15.6309L12.4369 31.6873L21.7074 47.7436ZM10.6187 31.6873L20.7983 49.3182L41.1569 49.3185L51.3362 31.6875L41.1566 14.0566L20.798 14.0563L10.6187 31.6873Z" fill="#191919"/>
<path d="M33.2398 44.7754H28.677V27.3919H33.2398V44.7754ZM28.4681 22.8934C28.4681 22.1865 28.6931 21.6081 29.1429 21.1583C29.5928 20.7084 30.1926 20.4835 30.9423 20.4835C31.6921 20.4835 32.2919 20.7084 32.7417 21.1583C33.1916 21.6081 33.4165 22.1865 33.4165 22.8934C33.4165 23.5896 33.1916 24.168 32.7417 24.6285C32.3026 25.0891 31.7028 25.3194 30.9423 25.3194C30.1818 25.3194 29.5767 25.0891 29.1268 24.6285C28.6877 24.168 28.4681 23.5896 28.4681 22.8934Z" fill="#EE84FF"/>
</svg>
