<svg width="239" height="239" viewBox="0 0 239 239" fill="none" xmlns="http://www.w3.org/2000/svg">
<path d="M232.342 6.64648H7.06641V231.922H232.342V6.64648Z" fill="#2FC9CB"/>
<path fill-rule="evenodd" clip-rule="evenodd" d="M0.964844 0.544922H238.445V238.025H0.964844V0.544922ZM13.1688 12.7488V225.821H226.241V12.7488H13.1688Z" fill="#191919"/>
<path d="M195.062 43.9258H44.3438V194.645H195.062V43.9258Z" fill="#049395"/>
<path fill-rule="evenodd" clip-rule="evenodd" d="M38.1133 37.6934H201.298V200.878H38.1133V37.6934ZM50.5795 50.1596V188.412H188.832V50.1596H50.5795Z" fill="#191919"/>
<path d="M75.0849 43.9819L194.842 163.937L195.074 194.639L163.078 194.515L44.7048 75.5488L44.3555 43.9199L75.0849 43.9819Z" fill="#74FBFD"/>
<path fill-rule="evenodd" clip-rule="evenodd" d="M38.0547 37.6738L77.6766 37.7538L201.058 161.338L201.356 200.896L160.479 200.738L38.5018 78.1498L38.0547 37.6738ZM50.6596 50.1655L50.9113 72.9474L165.68 188.292L188.795 188.381L188.631 166.535L72.4965 50.2096L50.6596 50.1655Z" fill="#191919"/>
<path d="M44.4019 163.904L164.357 44.1459L195.058 43.9141L194.935 75.9105L75.9688 194.283L44.3398 194.633L44.4019 163.904Z" fill="#74FBFD"/>
<path fill-rule="evenodd" clip-rule="evenodd" d="M201.316 37.6348L201.158 78.5126L78.5698 200.489L38.0938 200.937L38.1737 161.315L161.758 37.9335L201.316 37.6348ZM166.955 50.3609L50.6295 166.495L50.5854 188.332L73.3673 188.08L188.712 73.3108L188.801 50.1959L166.955 50.3609Z" fill="#191919"/>
<path d="M97.5972 155.537L97.2012 155.933C97.1517 155.785 97.1847 155.686 97.3002 155.636C97.3992 155.57 97.4982 155.537 97.5972 155.537ZM96.929 156.305L96.6815 156.552L96.533 156.404L96.7805 156.156L96.929 156.305ZM88.4154 164.769L88.4896 164.942L88.0442 165.14L87.9204 165.016L88.4154 164.769ZM87.1285 166.105L86.782 166.452L86.6335 166.303L86.98 165.957L87.1285 166.105ZM101.928 153.137C102.077 153.285 102.134 153.475 102.101 153.706C102.085 153.921 102.027 154.143 101.928 154.374C101.846 154.622 101.73 154.853 101.582 155.067C101.45 155.265 101.334 155.414 101.235 155.513C101.169 155.579 101.029 155.686 100.815 155.834C100.6 155.983 100.377 156.14 100.146 156.305C99.9153 156.47 99.6926 156.626 99.4781 156.775C99.2636 156.923 99.1233 157.031 99.0573 157.097C98.9419 157.212 98.7851 157.435 98.5871 157.765C98.3891 158.095 98.2324 158.318 98.1169 158.433C98.0674 158.483 97.9684 158.549 97.8199 158.631C97.6879 158.697 97.5477 158.771 97.3992 158.854C97.2507 158.936 97.1022 159.019 96.9537 159.101C96.8217 159.167 96.731 159.225 96.6815 159.275C96.566 159.39 96.467 159.588 96.3845 159.869C96.3185 160.132 96.2195 160.33 96.0875 160.462C95.972 160.578 95.7658 160.652 95.4688 160.685C95.1883 160.702 94.9821 160.776 94.8501 160.908C94.7346 161.023 94.6768 161.18 94.6768 161.378C94.6933 161.56 94.6521 161.7 94.5531 161.799C94.4706 161.881 94.3551 161.931 94.2066 161.947C94.0746 161.947 93.9426 161.931 93.8106 161.898C93.6786 161.865 93.5549 161.824 93.4394 161.774C93.3239 161.725 93.2496 161.683 93.2166 161.65C93.0022 161.436 92.9279 161.164 92.9939 160.834C93.0599 160.471 93.1506 160.116 93.2661 159.77C93.3816 159.423 93.4806 159.11 93.5631 158.829C93.6621 158.532 93.6374 158.326 93.4889 158.21C93.4724 158.128 93.4146 158.054 93.3156 157.988C93.2166 157.889 93.1094 157.798 92.9939 157.715C92.9609 157.649 92.9362 157.575 92.9197 157.493C92.9032 157.41 92.8289 157.303 92.6969 157.171L88.8609 153.335C88.6464 153.12 88.3824 153.038 88.0689 153.087C87.8049 153.318 87.4667 153.574 87.0542 153.855C86.6417 154.135 86.3695 154.341 86.2375 154.473C86.122 154.589 86.0148 154.729 85.9158 154.894C85.8333 155.043 85.7425 155.166 85.6435 155.265C85.3135 155.595 84.9011 155.81 84.4061 155.909C83.9111 156.008 83.5316 155.925 83.2677 155.661C83.0697 155.463 82.9542 155.249 82.9212 155.018C82.8882 154.787 82.9047 154.556 82.9707 154.325C83.0202 154.077 83.1109 153.855 83.2429 153.657C83.3584 153.442 83.4821 153.269 83.6141 153.137C83.6801 153.071 83.8039 152.964 83.9854 152.815C84.1504 152.65 84.3401 152.477 84.5546 152.295C84.7691 152.114 84.9671 151.949 85.1486 151.8C85.3135 151.635 85.429 151.52 85.495 151.454C85.8415 151.107 85.924 150.777 85.7425 150.464C85.5775 150.134 85.396 149.87 85.1981 149.672C85.1486 149.623 84.9588 149.466 84.6288 149.202C84.2988 148.905 83.9194 148.575 83.4904 148.212C83.0779 147.832 82.6407 147.445 82.1787 147.049C81.7332 146.636 81.3455 146.265 81.0155 145.935C80.933 145.918 80.8175 145.918 80.669 145.935C80.537 145.935 80.4298 145.943 80.3473 145.96C80.0833 146.158 79.8606 146.347 79.6791 146.529C79.4811 146.694 79.2914 146.818 79.1099 146.9C78.9284 146.983 78.7386 147.007 78.5406 146.974C78.3592 146.925 78.1364 146.768 77.8724 146.504C77.6414 146.273 77.5012 145.951 77.4517 145.539C77.4187 145.11 77.5259 144.772 77.7734 144.524C77.9054 144.392 78.0704 144.293 78.2684 144.227C78.4664 144.161 78.6314 144.062 78.7634 143.93C78.8789 143.815 79.0521 143.609 79.2831 143.312C79.5306 142.998 79.7203 142.775 79.8523 142.643C79.9183 142.577 80.0338 142.495 80.1988 142.396C80.3803 142.28 80.5618 142.165 80.7433 142.049C80.9248 141.934 81.098 141.827 81.263 141.728C81.4445 141.612 81.5682 141.521 81.6342 141.455C81.7497 141.34 81.8405 141.183 81.9065 140.985C81.989 140.771 82.1127 140.581 82.2777 140.416C82.3932 140.301 82.5417 140.218 82.7232 140.169C82.9212 140.103 83.0862 140.004 83.2182 139.872C83.2842 139.806 83.3749 139.698 83.4904 139.55C83.6224 139.385 83.7626 139.212 83.9111 139.03C84.0431 138.832 84.1669 138.659 84.2824 138.51C84.3978 138.329 84.4886 138.205 84.5546 138.139C84.8351 137.859 85.1651 137.694 85.5445 137.644C85.924 137.562 86.254 137.661 86.5345 137.941C86.716 138.123 86.7902 138.345 86.7572 138.609C86.7077 138.857 86.65 139.014 86.584 139.08C86.452 139.212 86.3117 139.286 86.1633 139.302C86.0313 139.302 85.9158 139.352 85.8168 139.451C85.8333 139.797 85.8745 140.152 85.9405 140.515C85.99 140.861 86.1138 141.167 86.3117 141.431C86.6252 141.843 87.0377 142.289 87.5492 142.767C88.0442 143.229 88.4979 143.699 88.9104 144.178C89.0094 144.277 89.0836 144.434 89.1331 144.648C89.1826 144.863 89.2568 145.019 89.3558 145.118C89.4878 145.25 89.5868 145.283 89.6528 145.217C89.7023 145.135 89.7931 145.16 89.9251 145.291L93.2166 148.583C93.5136 148.88 93.8436 149.21 94.2066 149.573C94.5696 149.936 94.9573 150.307 95.3698 150.687C95.7658 151.05 96.1782 151.413 96.6072 151.776C97.0197 152.122 97.4157 152.419 97.7952 152.667C97.8447 152.683 97.8777 152.766 97.8942 152.914C97.9107 153.03 97.9849 153.153 98.1169 153.285C98.3479 153.516 98.6284 153.599 98.9584 153.533C99.3048 153.45 99.6596 153.343 100.023 153.211C100.386 153.079 100.732 152.98 101.062 152.914C101.408 152.832 101.697 152.906 101.928 153.137ZM92.3504 162.764C92.3834 162.896 92.3834 163.061 92.3504 163.259C92.3174 163.424 92.2762 163.564 92.2267 163.68C92.0452 163.993 91.839 164.332 91.608 164.695C91.3935 165.074 91.2202 165.33 91.0883 165.462C90.9728 165.577 90.8408 165.643 90.6923 165.66C90.5438 165.676 90.4118 165.742 90.2963 165.858C90.1808 165.973 90.1148 166.105 90.0983 166.254C90.0818 166.402 90.0158 166.534 89.9003 166.65C89.7848 166.765 89.6528 166.831 89.5043 166.848C89.3888 166.864 89.2816 166.922 89.1826 167.021C88.8361 167.367 88.4236 167.78 87.9452 168.258C87.4832 168.72 87.0212 169.166 86.5592 169.595C86.1138 170.04 85.726 170.428 85.396 170.758C85.0661 171.088 84.8681 171.286 84.8021 171.352C84.6866 171.467 84.5051 171.5 84.2576 171.451C84.0101 171.368 83.8286 171.269 83.7131 171.154C83.4491 170.89 83.3172 170.593 83.3172 170.263C83.3172 170.164 83.3419 170.024 83.3914 169.842C83.4409 169.661 83.4904 169.479 83.5399 169.298C83.5894 169.083 83.6389 168.885 83.6884 168.704C83.7214 168.506 83.7131 168.333 83.6636 168.184C83.5316 167.755 83.3419 167.334 83.0944 166.922C82.8469 166.509 82.5747 166.155 82.2777 165.858C81.8652 165.445 81.4527 165.049 81.0403 164.67C80.6278 164.257 80.2236 163.853 79.8276 163.457C79.8936 163.424 79.9678 163.366 80.0503 163.284C80.1328 163.168 80.2236 163.061 80.3226 162.962L79.7781 162.269C79.5636 162.319 79.3409 162.393 79.1099 162.492C78.8789 162.558 78.6726 162.5 78.4911 162.319C78.2767 162.104 78.0127 161.84 77.6992 161.527C77.3857 161.213 77.0805 160.924 76.7835 160.66C76.4865 160.363 76.2308 160.108 76.0163 159.893C75.7853 159.662 75.6368 159.514 75.5708 159.448L71.9575 155.834C71.7595 155.801 71.5368 155.793 71.2893 155.81C71.0418 155.793 70.8273 155.81 70.6458 155.859C70.5303 155.909 70.3818 155.991 70.2003 156.107C70.0353 156.206 69.8703 156.272 69.7053 156.305C69.6228 156.321 69.4909 156.321 69.3094 156.305C69.1444 156.272 68.9794 156.239 68.8144 156.206C68.6494 156.14 68.4927 156.065 68.3442 155.983C68.1792 155.884 68.0719 155.777 68.0224 155.661C68.0389 155.579 68.0472 155.488 68.0472 155.389C68.0637 155.273 68.0802 155.174 68.0967 155.092C68.2122 154.878 68.3607 154.647 68.5422 154.399C68.7236 154.119 68.8969 153.863 69.0619 153.632C69.2269 153.401 69.3754 153.203 69.5074 153.038C69.6558 152.856 69.7548 152.741 69.8043 152.691C69.8703 152.625 70.0271 152.502 70.2746 152.32C70.5221 152.106 70.786 151.891 71.0665 151.677C71.3305 151.446 71.578 151.231 71.809 151.033C72.0565 150.819 72.2132 150.678 72.2792 150.612C72.3287 150.563 72.469 150.423 72.6999 150.192C72.9144 149.944 73.1454 149.68 73.3929 149.4C73.6569 149.103 73.9044 148.839 74.1354 148.608C74.3499 148.36 74.4901 148.204 74.5561 148.138C74.6716 148.022 74.8118 147.882 74.9768 147.717C75.1418 147.552 75.3233 147.42 75.5213 147.321C75.7193 147.189 75.9338 147.123 76.1648 147.123C76.3958 147.123 76.6185 147.23 76.833 147.445C77.031 147.643 77.1217 147.865 77.1052 148.113C77.0887 148.327 77.031 148.567 76.932 148.831C76.8495 149.078 76.767 149.342 76.6845 149.623C76.6185 149.887 76.635 150.167 76.734 150.464C76.767 150.596 76.866 150.728 77.031 150.86C77.1795 150.975 77.2785 151.091 77.328 151.206C77.5589 151.602 77.8312 151.974 78.1447 152.32C78.4746 152.65 78.8294 152.972 79.2089 153.285C79.3739 153.384 79.5058 153.582 79.6048 153.879C79.7203 154.16 79.8441 154.366 79.9761 154.498C80.2731 154.795 80.5948 155.1 80.9413 155.414C81.2878 155.727 81.5682 156.074 81.7827 156.453C81.8322 156.536 81.8322 156.651 81.7827 156.8C81.7332 156.915 81.6837 157.047 81.6342 157.196C81.8982 157.229 82.187 157.286 82.5004 157.369C82.7974 157.435 83.0449 157.567 83.2429 157.765C83.3749 157.897 83.5151 158.087 83.6636 158.334C83.8121 158.549 83.9689 158.722 84.1339 158.854C84.3483 159.035 84.6123 159.283 84.9258 159.596C85.2393 159.91 85.5775 160.231 85.9405 160.561C86.287 160.875 86.6335 161.188 86.98 161.502C87.3099 161.799 87.6069 162.03 87.8709 162.195C88.0524 162.31 88.2834 162.459 88.5639 162.64C88.8444 162.789 89.2073 162.805 89.6528 162.69C90.1313 162.574 90.5933 162.475 91.0388 162.393C91.4842 162.31 91.9215 162.434 92.3504 162.764ZM83.5399 142.52C83.4904 142.569 83.4161 142.61 83.3172 142.643C83.2347 142.66 83.0944 142.767 82.8964 142.965C82.9459 143.015 82.9624 143.081 82.9459 143.163C82.9294 143.213 82.9872 143.303 83.1192 143.435C83.2347 143.551 83.3254 143.609 83.3914 143.609C83.4244 143.609 83.4574 143.592 83.4904 143.559L83.8369 143.213C83.7874 143.064 83.7379 142.932 83.6884 142.817C83.6389 142.668 83.5894 142.569 83.5399 142.52ZM86.6335 144.574C86.452 144.392 86.221 144.211 85.9405 144.029C85.6765 143.831 85.33 143.798 84.9011 143.93C84.8681 143.963 84.8103 144.087 84.7278 144.302C84.6453 144.483 84.5298 144.615 84.3813 144.698L83.7874 144.104C83.7379 144.054 83.7049 144.005 83.6884 143.955C83.6884 143.889 83.6719 143.84 83.6389 143.807C83.6059 143.774 83.5316 143.749 83.4161 143.732C83.3007 143.716 83.1027 143.716 82.8222 143.732C82.8222 143.468 82.7314 143.328 82.5499 143.312C82.4179 143.444 82.319 143.576 82.253 143.708C82.22 143.774 82.2035 143.823 82.2035 143.856L82.253 144.104C82.6324 144.417 82.9789 144.681 83.2924 144.896C83.6059 145.077 83.8616 145.267 84.0596 145.465C84.1586 145.564 84.2824 145.671 84.4308 145.786C84.5793 145.902 84.7196 145.993 84.8516 146.059C84.9176 146.191 84.9918 146.331 85.0743 146.479C85.1568 146.628 85.2558 146.743 85.3713 146.826C85.4538 146.677 85.495 146.554 85.495 146.455C85.5115 146.339 85.5775 146.224 85.693 146.108C85.825 145.976 85.957 145.927 86.089 145.96C86.221 145.96 86.353 145.943 86.485 145.91C86.485 145.844 86.4767 145.803 86.4602 145.786C86.4437 145.737 86.4272 145.687 86.4107 145.638L86.3612 145.489C86.2787 145.572 86.122 145.613 85.891 145.613V145.316C86.2705 145.168 86.5427 145.176 86.7077 145.341C86.8727 145.473 87.046 145.597 87.2275 145.712C87.2439 145.696 87.2687 145.638 87.3017 145.539C87.3017 145.506 87.3099 145.465 87.3264 145.415C87.2769 145.201 87.1945 145.069 87.079 145.019C86.9635 144.97 86.7655 144.97 86.485 145.019L86.6335 144.574ZM88.0689 146.851L87.1285 145.91L86.3612 146.43C86.3447 146.644 86.287 146.834 86.188 146.999C86.089 147.164 85.9818 147.288 85.8663 147.37C86.0643 147.469 86.254 147.593 86.4355 147.742C86.617 147.89 86.782 148.039 86.9305 148.187C86.98 148.138 86.9965 148.072 86.98 147.989C86.947 147.89 86.9965 147.775 87.1285 147.643C87.2604 147.511 87.4089 147.461 87.5739 147.494C87.7389 147.494 87.8709 147.445 87.9699 147.346C87.9204 147.296 87.9122 147.222 87.9452 147.123C87.9782 146.991 88.0194 146.9 88.0689 146.851ZM89.7023 148.187L89.3558 147.841L89.1826 148.014L89.5291 148.36L89.7023 148.187ZM88.7866 148.261L88.6134 148.336L88.7371 148.707L88.9104 148.633L88.7866 148.261ZM89.0836 149.004C89.0341 148.954 88.9269 148.946 88.7619 148.979C88.5969 149.012 88.4896 149.053 88.4401 149.103C88.5226 149.185 88.6299 149.26 88.7619 149.326C88.8279 149.359 88.8856 149.383 88.9351 149.4C88.9846 149.35 89.0259 149.276 89.0589 149.177C89.0754 149.128 89.0836 149.07 89.0836 149.004ZM90.9645 149.895L90.618 149.548C90.42 149.548 90.2138 149.59 89.9993 149.672C89.7683 149.738 89.5538 149.771 89.3558 149.771C89.4053 149.92 89.4631 150.093 89.5291 150.291C89.5951 150.456 89.6528 150.612 89.7023 150.761C89.7353 150.629 89.8096 150.505 89.9251 150.39C90.0241 150.258 90.0901 150.126 90.1231 149.994C90.2715 150.043 90.4283 150.068 90.5933 150.068C90.7583 150.068 90.882 150.01 90.9645 149.895ZM91.4347 149.722L91.2862 149.87L91.509 150.291L91.6822 150.216L91.4347 149.722ZM90.9645 150.241L90.7913 150.315L90.915 150.687L91.0883 150.612L90.9645 150.241ZM92.5237 151.107C92.3752 150.959 92.2102 150.843 92.0287 150.761C91.8472 150.678 91.6822 150.612 91.5337 150.563C91.6327 150.662 91.74 150.819 91.8555 151.033C91.9875 151.231 92.0947 151.371 92.1772 151.454L92.5237 151.107ZM91.6575 151.182C91.608 151.132 91.509 151.083 91.3605 151.033C91.212 150.951 91.0635 150.934 90.915 150.984C90.9645 151.132 91.0553 151.256 91.1872 151.355C91.3357 151.437 91.4347 151.503 91.4842 151.553C91.5337 151.503 91.575 151.429 91.608 151.33L91.6575 151.182ZM92.1277 151.701C92.0782 151.652 92.0122 151.602 91.9297 151.553C91.8472 151.503 91.7812 151.503 91.7317 151.553C91.6822 151.602 91.7235 151.66 91.8555 151.726C91.9875 151.759 92.0782 151.751 92.1277 151.701ZM93.1671 152.048L92.8207 151.701L92.6474 151.875L92.9939 152.221L93.1671 152.048ZM74.9521 151.949L74.7788 151.776L74.4324 152.122L74.6056 152.295L74.9521 151.949ZM92.7217 152.246L92.3999 151.924C92.2019 152.023 91.9792 152.064 91.7317 152.048C91.5007 152.015 91.2615 152.023 91.014 152.073C91.113 152.271 91.2615 152.502 91.4595 152.766C91.641 153.013 91.8225 153.178 92.004 153.261C92.0205 153.244 92.0452 153.186 92.0782 153.087C92.0782 153.054 92.0865 153.013 92.103 152.964L92.4989 153.013C92.5319 153.046 92.5484 153.046 92.5484 153.013C92.5319 152.964 92.4577 153.005 92.3257 153.137C92.1937 153.269 92.1524 153.376 92.2019 153.459C92.2679 153.525 92.3257 153.582 92.3752 153.632C92.4247 153.582 92.4907 153.5 92.5732 153.384C92.6557 153.269 92.7299 153.145 92.7959 153.013C92.8619 152.881 92.8949 152.749 92.8949 152.617C92.8784 152.469 92.8207 152.345 92.7217 152.246ZM93.8106 151.85C93.8601 151.899 93.9261 151.932 94.0086 151.949C94.0746 151.949 94.0416 152.015 93.9096 152.147C93.7776 152.279 93.6704 152.337 93.5879 152.32C93.5054 152.271 93.4394 152.271 93.3899 152.32C93.5054 152.403 93.5796 152.493 93.6126 152.592C93.6621 152.675 93.7116 152.757 93.7611 152.84C93.7941 152.906 93.8436 152.972 93.9096 153.038C93.9756 153.104 94.0911 153.153 94.2561 153.186C94.2066 153.038 94.1901 152.906 94.2066 152.79C94.2066 152.658 94.1983 152.551 94.1818 152.469C94.1653 152.353 94.1323 152.254 94.0829 152.172C94.0499 152.073 93.9591 151.965 93.8106 151.85ZM75.6698 152.815C75.3893 152.832 75.1088 152.799 74.8283 152.716C74.5313 152.617 74.2591 152.592 74.0116 152.642C73.9456 152.774 73.9126 152.939 73.9126 153.137C73.8961 153.318 73.9374 153.459 74.0364 153.558C74.3334 153.459 74.6303 153.343 74.9273 153.211C75.2408 153.063 75.4883 152.931 75.6698 152.815ZM73.5909 152.716C73.3929 152.815 73.2197 152.955 73.0712 153.137C72.9062 153.302 72.7494 153.409 72.6009 153.459C72.7659 153.822 72.9969 154.053 73.2939 154.152L73.7394 153.706C73.6899 153.558 73.6651 153.401 73.6651 153.236C73.6651 153.038 73.6404 152.865 73.5909 152.716ZM76.1648 153.112C76.1153 153.162 76.0905 153.186 76.0905 153.186C76.0905 153.153 76.0245 153.203 75.8925 153.335C75.7605 153.467 75.5213 153.541 75.1748 153.558C74.8283 153.574 74.5891 153.648 74.4571 153.78C74.3251 153.912 74.2344 154.053 74.1849 154.201C74.1354 154.317 74.0694 154.416 73.9869 154.498C74.0859 154.564 74.2674 154.68 74.5313 154.845C74.7788 154.993 74.9603 155.158 75.0758 155.339C75.0098 155.405 74.9438 155.438 74.8778 155.438C74.8283 155.455 74.7953 155.455 74.7788 155.438L75.2491 155.909C75.3481 155.81 75.4141 155.645 75.4471 155.414C75.4636 155.166 75.5213 155.01 75.6203 154.944C75.4388 154.861 75.2821 154.737 75.1501 154.572C75.0181 154.407 74.9026 154.275 74.8036 154.176C75.0346 154.044 75.2656 153.978 75.4965 153.978C75.744 153.962 75.9255 153.896 76.041 153.78C76.173 153.648 76.239 153.549 76.239 153.483C76.239 153.384 76.2143 153.261 76.1648 153.112ZM76.5855 153.83C76.635 153.978 76.668 154.127 76.6845 154.275C76.7175 154.407 76.767 154.49 76.833 154.523C76.8825 154.473 76.9485 154.44 77.031 154.424C77.1135 154.407 77.1795 154.424 77.229 154.473L76.5855 153.83ZM75.9668 154.102L75.4965 154.572L76.1648 155.24C76.1648 155.043 76.1483 154.845 76.1153 154.647C76.0658 154.432 76.0163 154.251 75.9668 154.102ZM95.1965 154.572C95.147 154.523 95.0646 154.49 94.9491 154.473C94.8501 154.44 94.7346 154.49 94.6026 154.622C94.4706 154.754 94.4376 154.902 94.5036 155.067C94.5696 155.199 94.6273 155.29 94.6768 155.339C94.6768 155.24 94.7346 155.117 94.8501 154.968C94.9821 154.803 95.0975 154.671 95.1965 154.572ZM95.2708 153.607C95.1718 153.706 95.114 153.83 95.0975 153.978C95.081 154.094 95.0563 154.168 95.0233 154.201C94.9243 154.201 94.8583 154.152 94.8253 154.053C94.7923 153.921 94.7181 153.912 94.6026 154.028C94.4706 154.16 94.3881 154.275 94.3551 154.374C94.3221 154.473 94.2396 154.589 94.1076 154.721C94.0416 154.787 93.9756 154.803 93.9096 154.77C93.8436 154.737 93.7776 154.688 93.7116 154.622C93.6291 154.539 93.5384 154.465 93.4394 154.399C93.3569 154.317 93.2826 154.259 93.2166 154.226C93.6126 154.721 94.0251 155.265 94.4541 155.859C94.8831 156.453 95.3203 156.973 95.7658 157.418C95.7658 157.319 95.6998 157.204 95.5678 157.072C95.4358 156.94 95.345 156.8 95.2955 156.651C95.411 156.503 95.5183 156.362 95.6173 156.23C95.7163 156.065 95.807 155.942 95.8895 155.859C95.7905 155.76 95.675 155.744 95.543 155.81C95.3945 155.859 95.246 155.859 95.0975 155.81C95.0975 155.612 95.147 155.463 95.246 155.364C95.345 155.265 95.4605 155.15 95.5925 155.018C95.7245 154.886 95.8813 154.861 96.0627 154.944C96.2442 154.993 96.3845 154.968 96.4835 154.869C96.3845 154.77 96.2607 154.68 96.1122 154.597C95.9638 154.515 95.8648 154.449 95.8153 154.399C95.7658 154.449 95.7245 154.506 95.6915 154.572C95.6585 154.605 95.5925 154.622 95.4935 154.622C95.543 154.374 95.5183 154.168 95.4193 154.003C95.3203 153.805 95.2708 153.673 95.2708 153.607ZM76.041 156.503L75.7688 156.23L75.5955 156.404L75.8678 156.676L76.041 156.503ZM77.427 155.76C77.295 155.628 77.0805 155.562 76.7835 155.562C76.4865 155.562 76.2143 155.587 75.9668 155.636C76.0658 155.735 76.1648 155.867 76.2638 156.032C76.3463 156.181 76.404 156.272 76.437 156.305C76.5195 156.156 76.5937 156.082 76.6597 156.082C76.7422 156.065 76.8247 156.082 76.9072 156.131C76.9897 156.148 77.0722 156.197 77.1547 156.28C77.2372 156.329 77.3362 156.362 77.4517 156.379C77.4022 156.527 77.3445 156.651 77.2785 156.75C77.196 156.833 77.1465 156.899 77.13 156.948C77.196 157.146 77.2372 157.369 77.2537 157.616C77.2867 157.847 77.3692 157.996 77.5012 158.062C77.5342 157.831 77.5424 157.641 77.5259 157.493C77.5094 157.311 77.5507 157.121 77.6497 156.923C77.7982 156.973 77.9054 157.047 77.9714 157.146C78.0374 157.212 78.0869 157.278 78.1199 157.344C77.9714 157.097 77.8477 156.808 77.7487 156.478C77.6497 156.115 77.5424 155.876 77.427 155.76ZM96.3845 156.305C96.236 156.354 96.0792 156.428 95.9143 156.527C95.7658 156.61 95.6915 156.701 95.6915 156.8C95.7905 156.8 95.906 156.767 96.038 156.701C96.17 156.635 96.2855 156.503 96.3845 156.305ZM76.6597 156.577L76.1895 156.602C76.206 156.75 76.272 156.899 76.3875 157.047C76.5195 157.179 76.6432 157.303 76.7587 157.418C76.8082 157.27 76.8165 157.113 76.7835 156.948C76.7505 156.75 76.7092 156.626 76.6597 156.577ZM78.3922 157.567C78.3427 157.616 78.3262 157.699 78.3427 157.814C78.3757 157.913 78.3922 158.012 78.3922 158.111C78.4416 158.062 78.4664 157.971 78.4664 157.839C78.4664 157.707 78.4416 157.616 78.3922 157.567ZM78.5901 158.557C78.5901 158.458 78.5406 158.375 78.4416 158.309C78.3592 158.227 78.2684 158.186 78.1694 158.186C78.1694 158.252 78.1612 158.309 78.1447 158.359C78.1282 158.375 78.1117 158.408 78.0952 158.458C78.0787 158.507 78.0622 158.54 78.0457 158.557C78.0952 158.606 78.1859 158.631 78.3179 158.631C78.4499 158.631 78.5406 158.606 78.5901 158.557ZM80.1988 159.275L79.9266 159.002L79.7533 159.176L80.0256 159.448L80.1988 159.275ZM82.5252 160.512L82.2777 160.264L81.9312 160.611L82.1787 160.858L82.5252 160.512ZM83.0697 160.759L82.7232 160.413L82.5499 160.586L82.8964 160.933L83.0697 160.759ZM84.1339 161.279C84.0349 161.279 83.9111 161.254 83.7626 161.205C83.5976 161.139 83.4904 161.081 83.4409 161.032C83.4409 161.131 83.4491 161.254 83.4656 161.403C83.4821 161.518 83.5151 161.601 83.5646 161.65C83.6141 161.601 83.7049 161.543 83.8369 161.477C83.9854 161.395 84.0844 161.329 84.1339 161.279ZM83.0944 161.23C82.9954 161.23 82.8964 161.263 82.7974 161.329C82.6984 161.362 82.5994 161.378 82.5004 161.378L83.0944 162.17C83.1439 162.022 83.1769 161.857 83.1934 161.675C83.2264 161.477 83.1934 161.329 83.0944 161.23ZM85.396 162.789L84.9258 162.319C84.8763 162.368 84.8598 162.434 84.8763 162.517C84.8928 162.566 84.9011 162.64 84.9011 162.739C84.7031 162.64 84.5876 162.508 84.5546 162.343C84.5051 162.162 84.4061 161.997 84.2576 161.848L83.9111 162.195C83.9936 162.277 84.0926 162.36 84.2081 162.442C84.3236 162.492 84.3813 162.566 84.3813 162.665C84.3318 162.715 84.2411 162.772 84.1091 162.838C83.9771 162.904 83.8369 163.012 83.6884 163.16C83.7379 163.21 83.7874 163.292 83.8369 163.408C83.8864 163.49 83.8864 163.556 83.8369 163.606C83.7379 163.606 83.6801 163.597 83.6636 163.581C83.6306 163.548 83.5894 163.507 83.5399 163.457C83.5894 163.309 83.6389 163.177 83.6884 163.061C83.7379 162.913 83.7874 162.814 83.8369 162.764L83.3171 162.541C83.3171 162.739 83.3007 162.987 83.2677 163.284C83.2182 163.564 83.2512 163.762 83.3666 163.878C83.4986 164.01 83.6719 164.117 83.8864 164.2C84.1174 164.266 84.2741 164.34 84.3566 164.422C84.4556 164.323 84.5298 164.183 84.5793 164.002C84.6288 163.82 84.7031 163.68 84.8021 163.581C84.7031 163.482 84.6041 163.449 84.5051 163.482C84.3896 163.498 84.2659 163.49 84.1339 163.457C84.2824 163.177 84.4391 163.053 84.6041 163.086C84.7691 163.086 84.9176 163.102 85.0496 163.135L85.396 162.789ZM87.4997 164.249C87.3512 164.2 87.1615 164.142 86.9305 164.076C86.6995 164.01 86.5097 164.002 86.3612 164.051C86.4602 164.15 86.5757 164.299 86.7077 164.497C86.8397 164.695 86.947 164.835 87.0295 164.917C87.178 164.769 87.2769 164.637 87.3264 164.521C87.3924 164.389 87.4502 164.299 87.4997 164.249ZM84.9506 164.818L84.6041 164.472L84.4308 164.645L84.7773 164.991L84.9506 164.818ZM86.287 164.472L85.9158 164.101C85.8663 164.249 85.792 164.422 85.693 164.62C85.6105 164.802 85.5198 164.991 85.4208 165.189C85.1238 165.09 84.9093 165.107 84.7773 165.239L84.8268 165.932C84.8763 165.882 84.9258 165.833 84.9753 165.783C85.0083 165.717 85.0743 165.684 85.1733 165.684C85.1238 165.8 85.1403 165.932 85.2228 166.08C85.2888 166.212 85.3548 166.295 85.4208 166.328C85.5693 166.278 85.7425 166.254 85.9405 166.254C86.122 166.237 86.2458 166.179 86.3117 166.08C86.1303 165.536 86.122 165 86.287 164.472ZM86.683 166.65C86.584 166.551 86.4685 166.501 86.3365 166.501C86.188 166.485 86.089 166.452 86.0395 166.402L85.693 166.749C85.825 166.881 85.957 166.98 86.089 167.046C86.2045 167.095 86.287 167.145 86.3365 167.194C86.386 167.145 86.4437 167.054 86.5097 166.922C86.5757 166.79 86.6335 166.699 86.683 166.65ZM110.696 141.894L110.127 142.463C110.077 142.447 110.036 142.406 110.003 142.34C109.904 142.241 109.912 142.133 110.028 142.018L110.424 141.622L110.696 141.894ZM104.088 120.239C104.253 120.404 104.36 120.61 104.41 120.858C104.459 121.072 104.492 121.32 104.509 121.6C104.525 121.848 104.534 122.103 104.534 122.367C104.517 122.615 104.534 122.846 104.583 123.06C104.699 123.572 104.839 124.158 105.004 124.818C105.169 125.444 105.35 126.005 105.548 126.5C105.334 126.55 105.177 126.575 105.078 126.575C104.996 126.558 104.921 126.55 104.855 126.55C104.789 126.517 104.732 126.492 104.682 126.476C104.616 126.443 104.534 126.426 104.435 126.426C104.369 126.558 104.319 126.707 104.286 126.872C104.253 127.037 104.303 127.185 104.435 127.317C104.567 127.449 104.773 127.49 105.053 127.441C105.334 127.391 105.54 127.433 105.672 127.565C105.722 127.614 105.788 127.746 105.87 127.961C105.969 128.159 106.06 128.398 106.142 128.678C106.225 128.959 106.307 129.256 106.39 129.569C106.456 129.866 106.497 130.139 106.513 130.386C106.513 130.452 106.48 130.551 106.414 130.683C106.348 130.815 106.249 130.947 106.118 131.079C105.887 131.31 105.656 131.442 105.425 131.475C105.21 131.491 104.996 131.458 104.781 131.376C104.567 131.293 104.377 131.186 104.212 131.054C104.047 130.889 103.907 130.749 103.791 130.633C103.56 130.402 103.346 130.056 103.148 129.594C102.95 129.099 102.776 128.596 102.628 128.084C102.479 127.573 102.364 127.094 102.281 126.649C102.199 126.17 102.141 125.832 102.108 125.634C102.075 125.304 101.918 124.95 101.638 124.57C101.357 124.158 101.176 123.795 101.094 123.481C101.061 123.382 101.052 123.242 101.069 123.06C101.069 122.862 101.077 122.656 101.094 122.442C101.127 122.211 101.151 121.988 101.168 121.773C101.184 121.559 101.184 121.361 101.168 121.179C101.333 121.146 101.514 121.031 101.712 120.833C101.91 120.602 102.133 120.396 102.38 120.214C102.628 120 102.9 119.876 103.197 119.843C103.478 119.794 103.775 119.926 104.088 120.239ZM115.72 138.207C115.951 138.438 116.091 138.677 116.141 138.924C116.19 139.172 116.182 139.411 116.116 139.642C116.05 139.873 115.943 140.096 115.794 140.31C115.646 140.525 115.489 140.714 115.324 140.879C115.258 140.945 115.044 141.127 114.681 141.424C114.334 141.704 113.955 142.018 113.542 142.364C113.146 142.694 112.775 143 112.428 143.28C112.082 143.561 111.876 143.734 111.81 143.8C111.744 143.866 111.57 144.072 111.29 144.419C111.026 144.749 110.729 145.111 110.399 145.507C110.069 145.903 109.764 146.275 109.483 146.621C109.219 146.951 109.054 147.149 108.988 147.215C108.658 147.545 108.279 147.743 107.85 147.809C107.404 147.859 107.025 147.727 106.711 147.413C106.596 147.298 106.489 147.174 106.39 147.042C106.291 146.91 106.225 146.778 106.192 146.646L106.711 146.126C106.827 146.011 106.926 145.763 107.008 145.384C107.074 144.988 107.091 144.608 107.058 144.245C107.058 144.08 107 143.907 106.885 143.726C106.769 143.511 106.662 143.321 106.563 143.156C106.497 143.057 106.381 142.958 106.216 142.859C106.052 142.727 105.895 142.587 105.746 142.439C105.548 142.241 105.359 142.001 105.177 141.721C105.012 141.424 104.864 141.209 104.732 141.077C104.682 141.028 104.583 140.945 104.435 140.83C104.286 140.681 104.113 140.525 103.915 140.36C103.717 140.162 103.511 139.972 103.296 139.791C103.065 139.593 102.842 139.403 102.628 139.221C102.413 139.04 102.075 138.933 101.613 138.9C101.168 138.85 100.714 138.776 100.252 138.677C100.186 138.677 100.095 138.636 99.9798 138.553C99.8478 138.454 99.7158 138.388 99.5838 138.355C99.4353 138.306 99.2044 138.306 98.8909 138.355C98.5774 138.372 98.3052 138.347 98.0742 138.281C97.7112 138.182 97.3235 138.042 96.911 137.86C96.4985 137.646 96.1025 137.514 95.723 137.464C95.1786 137.382 94.5846 137.316 93.9411 137.266C93.2977 137.217 92.6624 137.126 92.0355 136.994C91.1445 136.829 90.4433 136.738 89.9318 136.722C89.4039 136.689 88.9419 136.804 88.5459 137.068C88.3479 137.002 88.1334 136.936 87.9024 136.87C87.6714 136.804 87.49 136.705 87.358 136.573C87.127 136.342 87.061 136.128 87.16 135.93C87.259 135.732 87.3415 135.6 87.4075 135.534C87.5395 135.402 87.7044 135.352 87.9024 135.385C88.1004 135.418 88.2737 135.459 88.4222 135.509C88.4882 135.377 88.4634 135.22 88.3479 135.039C88.2324 134.824 88.2242 134.635 88.3232 134.47C88.5212 134.14 88.7686 133.76 89.0656 133.331C89.3461 132.886 89.6266 132.457 89.9071 132.044C90.1876 131.632 90.4433 131.277 90.6743 130.98C90.9053 130.683 91.0538 130.501 91.1198 130.435C91.2353 130.32 91.4333 130.188 91.7137 130.04C91.9942 129.858 92.3407 129.743 92.7532 129.693C92.9347 129.677 93.1739 129.734 93.4709 129.866C93.7679 129.965 94.0566 130.023 94.3371 130.04C94.5846 130.056 94.8651 130.073 95.1786 130.089C95.492 130.073 95.7808 130.081 96.0448 130.114C96.2098 130.114 96.3748 130.18 96.5397 130.312C96.7212 130.427 96.878 130.501 97.01 130.534C97.241 130.6 97.5462 130.625 97.9257 130.609C98.3052 130.592 98.6434 130.65 98.9404 130.782C99.7488 131.161 100.582 131.45 101.44 131.648C102.298 131.846 103.148 132.052 103.989 132.267C104.253 132.333 104.649 132.498 105.177 132.762C105.705 132.993 106.167 133.224 106.563 133.455C106.909 133.669 107.198 133.892 107.429 134.123C107.677 134.338 107.916 134.56 108.147 134.791C108.378 135.022 108.609 135.253 108.84 135.484C109.087 135.699 109.376 135.905 109.706 136.103C109.888 136.449 110.127 136.738 110.424 136.969C110.704 137.184 111.01 137.406 111.339 137.637C111.686 137.885 112.065 138.116 112.478 138.33C112.874 138.528 113.295 138.636 113.74 138.652C113.806 138.619 113.831 138.611 113.814 138.627C113.798 138.644 113.856 138.586 113.988 138.454C114.12 138.322 114.161 138.248 114.111 138.231C114.062 138.215 114.103 138.141 114.235 138.009C114.384 137.86 114.532 137.778 114.681 137.761C114.829 137.745 114.978 137.761 115.126 137.811C115.258 137.844 115.374 137.91 115.473 138.009C115.588 138.091 115.671 138.157 115.72 138.207ZM106.192 136.796C106.142 137.043 106.093 137.291 106.043 137.538C105.977 137.769 105.936 137.976 105.92 138.157L105.573 138.504C105.524 138.355 105.515 138.231 105.548 138.132C105.598 138.017 105.623 137.91 105.623 137.811C105.491 137.877 105.342 137.91 105.177 137.91C105.029 137.893 104.905 137.835 104.806 137.736C105.004 137.637 105.235 137.505 105.499 137.34C105.763 137.175 105.994 136.994 106.192 136.796ZM96.5892 132.638L96.2428 132.292L96.0695 132.465L96.416 132.811L96.5892 132.638ZM92.4315 132.688L91.9117 132.96L92.0355 133.084L92.4809 132.886L92.4315 132.688ZM97.208 132.762C96.9605 132.811 96.7295 132.861 96.515 132.91C96.317 132.943 96.152 132.894 96.02 132.762C95.8055 132.547 95.8138 132.44 96.0448 132.44C96.0118 132.407 95.9705 132.415 95.921 132.465C95.855 132.498 95.7808 132.523 95.6983 132.539C95.6158 132.589 95.525 132.63 95.426 132.663C95.4755 132.811 95.558 132.976 95.6735 133.158C95.789 133.339 95.855 133.537 95.8715 133.752C96.1355 133.554 96.35 133.422 96.515 133.356C96.6635 133.273 96.8697 133.199 97.1337 133.133C97.1337 133.067 97.1502 132.985 97.1832 132.886C97.1997 132.836 97.208 132.795 97.208 132.762ZM95.1291 132.465C94.9806 132.514 94.8321 132.531 94.6836 132.514C94.5186 132.481 94.3784 132.457 94.2629 132.44C94.2134 132.49 94.2051 132.547 94.2381 132.613C94.2546 132.663 94.2629 132.737 94.2629 132.836L93.7184 132.836C93.6194 132.737 93.5204 132.589 93.4214 132.391C93.3224 132.193 93.2069 132.077 93.0749 132.044C93.0254 132.358 92.9924 132.671 92.9759 132.985C92.9594 133.298 92.8934 133.546 92.7779 133.727C92.6789 133.727 92.5882 133.686 92.5057 133.603C92.4232 133.521 92.3572 133.455 92.3077 133.405C92.2252 133.587 92.1097 133.818 91.9612 134.098C91.8292 134.362 91.8457 134.61 92.0107 134.841C92.2582 134.791 92.5387 134.775 92.8522 134.791C93.1657 134.775 93.4049 134.816 93.5699 134.915C93.4214 134.767 93.2647 134.626 93.0997 134.494C92.9182 134.346 92.7862 134.181 92.7037 133.999C92.7202 133.983 92.7614 133.975 92.8274 133.975C92.8439 133.991 92.8604 133.991 92.8769 133.975C93.1904 133.958 93.4626 133.884 93.6936 133.752C93.9246 133.587 94.1391 133.471 94.3371 133.405C94.4691 133.438 94.6588 133.463 94.9063 133.48C95.1538 133.496 95.3353 133.48 95.4508 133.43C95.4013 133.282 95.3353 133.117 95.2528 132.935C95.1703 132.721 95.1291 132.564 95.1291 132.465ZM100.277 133.603H99.9798L99.9798 133.801H100.277L100.277 133.603ZM98.7176 133.084C98.5196 132.985 98.2722 132.919 97.9752 132.886C97.6782 132.853 97.4554 132.811 97.307 132.762C97.4554 132.91 97.6204 133.059 97.8019 133.207C97.9834 133.323 98.1154 133.471 98.1979 133.653C98.1319 133.653 98.0907 133.661 98.0742 133.678C98.0577 133.694 98.0247 133.711 97.9752 133.727C97.9422 133.76 97.9092 133.777 97.8762 133.777C97.9752 133.876 98.0824 133.983 98.1979 134.098C98.2969 134.197 98.3794 134.313 98.4454 134.445C98.4619 134.527 98.4701 134.635 98.4701 134.767C98.4701 134.899 98.4949 134.989 98.5444 135.039H98.9899C99.0394 134.89 99.0229 134.742 98.9404 134.593C98.8744 134.428 98.8661 134.305 98.9156 134.222C98.8661 134.206 98.8166 134.173 98.7671 134.123C98.7011 134.057 98.6351 134.008 98.5691 133.975C98.5031 133.777 98.5114 133.603 98.5939 133.455C98.6764 133.273 98.7176 133.15 98.7176 133.084ZM100.5 134.272C100.401 134.272 100.277 134.214 100.128 134.098C99.9798 133.95 99.8808 133.851 99.8313 133.801L99.4601 134.173L99.8313 134.544C99.9798 134.494 100.12 134.453 100.252 134.42C100.368 134.371 100.45 134.321 100.5 134.272ZM91.7385 134.717L91.392 134.371L91.2188 134.544L91.5652 134.89L91.7385 134.717ZM97.2822 134.717L96.9357 134.371L96.7625 134.544L97.109 134.89L97.2822 134.717ZM102.776 134.965C102.743 134.932 102.719 134.923 102.702 134.94C102.686 134.923 102.661 134.899 102.628 134.866L102.554 134.791C102.389 134.692 102.215 134.585 102.034 134.47C101.869 134.338 101.704 134.206 101.539 134.074C101.506 134.206 101.514 134.362 101.564 134.544C101.597 134.709 101.679 134.857 101.811 134.989C101.943 135.121 102.05 135.162 102.133 135.113C102.232 135.047 102.306 135.039 102.356 135.088C102.356 135.187 102.339 135.253 102.306 135.286L102.281 135.311C102.083 135.311 101.927 135.319 101.811 135.336C101.696 135.352 101.613 135.319 101.564 135.237L102.356 136.029C102.438 135.847 102.504 135.649 102.554 135.435C102.603 135.22 102.677 135.064 102.776 134.965ZM96.6882 135.311L96.416 135.039L96.2428 135.212L96.515 135.484L96.6882 135.311ZM103.222 135.311L102.95 135.039L102.776 135.212L103.049 135.484L103.222 135.311ZM103.37 135.459L103.222 135.608L103.42 136.053L103.618 135.954L103.37 135.459ZM98.6186 136.004C98.5196 135.905 98.3711 135.839 98.1732 135.806C97.9752 135.773 97.8019 135.732 97.6534 135.682C97.8019 135.732 97.9587 135.806 98.1237 135.905C98.2887 135.971 98.4536 136.004 98.6186 136.004ZM103.024 135.806C102.925 135.905 102.793 136.004 102.628 136.103C102.479 136.185 102.389 136.243 102.356 136.276C102.735 136.557 103.007 136.763 103.172 136.895C103.337 136.994 103.461 137.101 103.544 137.217C103.395 136.969 103.296 136.722 103.247 136.474C103.197 136.227 103.123 136.004 103.024 135.806ZM105.647 136.449L105.152 136.4C105.086 136.499 104.996 136.557 104.88 136.573C104.765 136.557 104.641 136.532 104.509 136.499C104.393 136.449 104.286 136.392 104.187 136.326C104.088 136.26 104.014 136.218 103.964 136.202C103.915 136.317 103.907 136.474 103.94 136.672C103.956 136.854 104.006 136.969 104.088 137.019C104.138 136.969 104.212 136.961 104.311 136.994C104.426 137.01 104.534 137.019 104.633 137.019C104.633 137.118 104.649 137.217 104.682 137.316C104.715 137.415 104.773 137.472 104.855 137.489C104.938 137.406 104.954 137.324 104.905 137.241C104.855 137.126 104.831 137.019 104.831 136.92C105.045 137.002 105.194 136.969 105.276 136.821C105.342 136.656 105.466 136.532 105.647 136.449ZM106.86 136.276C106.728 136.144 106.563 136.111 106.365 136.177C106.167 136.21 106.019 136.227 105.92 136.227L106.761 137.316C106.86 137.316 106.951 137.291 107.033 137.241C107.116 137.192 107.182 137.142 107.231 137.093C107.231 136.994 107.206 136.87 107.157 136.722C107.091 136.557 106.992 136.408 106.86 136.276ZM107.256 137.563L107.058 137.662L107.182 138.033L107.38 137.934L107.256 137.563ZM111.735 140.756C111.504 140.723 111.265 140.714 111.018 140.731C110.77 140.714 110.539 140.681 110.325 140.632C110.209 140.681 110.119 140.756 110.053 140.855C109.97 140.937 109.879 140.978 109.78 140.978C109.83 140.83 109.896 140.714 109.978 140.632C110.077 140.533 110.143 140.417 110.176 140.285C110.275 140.285 110.35 140.31 110.399 140.36C110.432 140.393 110.473 140.434 110.523 140.483L110.894 140.112L110.572 139.791C110.176 139.593 109.83 139.461 109.533 139.395C109.351 139.18 109.145 138.99 108.914 138.825C108.7 138.644 108.551 138.462 108.469 138.281C108.37 138.38 108.32 138.495 108.32 138.627C108.304 138.743 108.271 138.825 108.221 138.875C108.122 138.875 108.056 138.858 108.023 138.825C107.99 138.792 107.949 138.751 107.899 138.702C107.85 138.553 107.825 138.413 107.825 138.281C107.825 138.116 107.809 138.017 107.776 137.984C107.528 138.033 107.239 138.042 106.909 138.009C106.579 137.943 106.348 137.976 106.216 138.108L105.796 138.528C105.928 138.759 106.093 139.023 106.291 139.32C106.472 139.601 106.662 139.89 106.86 140.186C107.058 140.45 107.239 140.698 107.404 140.929C107.569 141.127 107.685 141.259 107.751 141.325C107.883 141.457 108.015 141.572 108.147 141.671C108.279 141.77 108.411 141.836 108.543 141.869L108.914 141.498C108.799 141.416 108.7 141.333 108.617 141.251C108.535 141.135 108.502 141.036 108.518 140.954C108.551 140.921 108.576 140.912 108.592 140.929C108.609 140.912 108.625 140.896 108.642 140.879L108.691 140.879C108.691 140.978 108.724 141.061 108.79 141.127C108.84 141.176 108.889 141.226 108.939 141.275L109.434 140.78L109.483 140.83C109.368 141.011 109.335 141.193 109.384 141.374C109.434 141.556 109.442 141.713 109.409 141.845C109.31 141.845 109.236 141.836 109.186 141.82C109.12 141.787 109.021 141.836 108.889 141.968C108.807 142.051 108.84 142.232 108.988 142.513C109.137 142.793 109.269 143.024 109.384 143.206C109.632 142.529 109.805 141.977 109.904 141.548L110.35 141.102C110.647 141.3 110.894 141.35 111.092 141.251C111.29 141.152 111.504 140.987 111.735 140.756ZM109.632 139.741L109.434 139.84L109.558 140.211L109.756 140.112L109.632 139.741ZM107.875 137.39L107.701 137.563L107.429 137.291L107.602 137.118L107.875 137.39ZM106.959 138.504C106.876 138.652 106.868 138.809 106.934 138.974C106.984 139.122 106.992 139.296 106.959 139.494C106.86 139.164 106.86 138.834 106.959 138.504ZM107.924 139.32C107.875 139.469 107.784 139.609 107.652 139.741C107.52 139.873 107.404 139.989 107.305 140.087C107.437 139.956 107.487 139.791 107.454 139.593C107.421 139.362 107.454 139.147 107.553 138.949L107.924 139.32ZM108.865 139.073C108.865 139.139 108.906 139.246 108.988 139.395C109.071 139.543 109.153 139.692 109.236 139.84C109.186 139.89 109.096 139.881 108.964 139.815C108.848 139.733 108.724 139.758 108.592 139.89C108.46 140.022 108.403 140.112 108.419 140.162C108.419 140.195 108.394 140.236 108.345 140.285C108.246 140.153 108.221 140.013 108.271 139.865C108.337 139.7 108.279 139.477 108.097 139.197C108.196 139.197 108.32 139.205 108.469 139.221C108.634 139.221 108.766 139.172 108.865 139.073ZM123.377 127.876L122.981 128.272L122.957 127.753C122.99 127.786 123.031 127.81 123.08 127.827C123.179 127.86 123.278 127.876 123.377 127.876ZM122.932 128.965L122.536 128.569C122.684 128.52 122.8 128.536 122.882 128.619C122.965 128.701 122.981 128.817 122.932 128.965ZM123.798 129.04L123.625 129.213L123.278 128.866L123.452 128.693L123.798 129.04ZM130.381 108.152C130.513 108.284 130.563 108.383 130.53 108.449C130.513 108.498 130.513 108.564 130.53 108.647C130.678 108.861 130.885 109.067 131.149 109.265C131.429 109.447 131.652 109.653 131.817 109.884C131.998 110.098 132.188 110.354 132.386 110.651C132.6 110.932 132.749 111.212 132.831 111.493C132.98 112.037 133.17 112.606 133.401 113.2C133.632 113.761 133.83 114.339 133.995 114.933C134.143 115.51 134.234 116.096 134.267 116.69C134.283 117.267 134.16 117.853 133.896 118.447C133.83 118.612 133.772 118.802 133.722 119.016C133.673 119.198 133.632 119.355 133.599 119.486L132.98 119.907C133.244 120.204 133.401 120.509 133.45 120.823C133.483 121.12 133.458 121.409 133.376 121.689C133.277 121.953 133.145 122.201 132.98 122.432C132.798 122.646 132.642 122.819 132.51 122.951C132.394 123.067 132.262 123.133 132.114 123.149C131.965 123.166 131.833 123.232 131.718 123.347C131.635 123.43 131.594 123.554 131.594 123.719C131.594 123.884 131.594 124.065 131.594 124.263C131.594 124.461 131.569 124.667 131.52 124.882C131.487 125.08 131.388 125.261 131.223 125.426C131.107 125.542 130.975 125.575 130.827 125.525C130.678 125.476 130.546 125.509 130.431 125.624C130.299 125.756 130.249 125.872 130.282 125.971C130.315 126.07 130.266 126.185 130.134 126.317C130.084 126.367 129.985 126.449 129.837 126.565C129.705 126.664 129.54 126.763 129.342 126.862C129.177 126.961 128.995 127.043 128.797 127.109C128.599 127.175 128.418 127.192 128.253 127.159C128.137 127.142 128.014 127.084 127.882 126.985C127.75 126.886 127.626 126.779 127.51 126.664C127.312 126.466 127.18 126.185 127.114 125.822C127.065 125.443 127.147 125.146 127.362 124.931C127.477 124.816 127.593 124.733 127.708 124.684C127.84 124.618 127.972 124.519 128.104 124.387C128.434 124.057 128.674 123.719 128.822 123.372C128.971 122.993 129.061 122.588 129.094 122.159C129.144 121.714 129.152 121.227 129.119 120.699C129.086 120.171 129.061 119.585 129.045 118.942C129.045 118.876 129.004 118.785 128.921 118.67C128.822 118.538 128.748 118.414 128.698 118.299C128.55 117.82 128.401 117.441 128.253 117.16C128.104 116.847 127.956 116.599 127.807 116.418C127.642 116.22 127.486 116.046 127.337 115.898C127.189 115.749 127.048 115.56 126.916 115.329C126.867 115.213 126.809 115.023 126.743 114.759C126.694 114.479 126.62 114.289 126.521 114.19C126.389 114.058 126.281 114.001 126.199 114.017C126.116 114.001 126.034 113.984 125.951 113.968C125.753 113.704 125.522 113.456 125.258 113.225C124.978 112.978 124.697 112.747 124.417 112.532C124.12 112.334 123.798 112.161 123.452 112.012C123.122 111.847 122.833 111.641 122.585 111.394C122.519 111.328 122.478 111.22 122.462 111.072C122.445 110.923 122.412 110.775 122.363 110.626C121.967 110.626 121.513 110.585 121.002 110.503C120.474 110.404 119.946 110.321 119.418 110.255C118.873 110.173 118.353 110.148 117.858 110.181C117.38 110.197 116.976 110.321 116.646 110.552C116.497 110.668 116.341 110.808 116.176 110.973C116.011 111.138 115.829 111.303 115.631 111.468C115.45 111.616 115.243 111.757 115.012 111.889C114.765 112.004 114.493 112.078 114.196 112.111C114.031 112.111 113.758 112.054 113.379 111.938C112.999 111.823 112.744 111.699 112.612 111.567C112.381 111.336 112.331 111.022 112.463 110.626C112.579 110.214 112.752 109.892 112.983 109.661C113.197 109.447 113.445 109.199 113.725 108.919C114.006 108.638 114.27 108.374 114.517 108.127C114.765 107.846 114.988 107.607 115.186 107.409C115.384 107.211 115.516 107.079 115.582 107.013C115.697 106.898 115.978 106.7 116.423 106.419C116.852 106.122 117.24 105.883 117.586 105.701C117.784 105.602 118.032 105.553 118.329 105.553C118.626 105.553 118.923 105.553 119.22 105.553C119.253 105.52 119.261 105.413 119.244 105.231C119.228 105.05 119.277 104.901 119.393 104.786C119.442 104.736 119.599 104.678 119.863 104.613C120.127 104.514 120.441 104.431 120.804 104.365C121.167 104.266 121.521 104.192 121.868 104.142C122.231 104.076 122.528 104.027 122.759 103.994C122.808 104.01 122.899 104.068 123.031 104.167C123.163 104.266 123.303 104.324 123.452 104.34C124.145 104.406 124.722 104.522 125.184 104.687C125.646 104.819 126.042 104.984 126.372 105.182C126.686 105.363 126.958 105.586 127.189 105.85C127.436 106.097 127.684 106.361 127.931 106.642C128.063 106.807 128.261 106.972 128.525 107.137C128.773 107.285 129.02 107.434 129.268 107.582C129.515 107.698 129.746 107.813 129.961 107.929C130.175 108.011 130.315 108.086 130.381 108.152ZM123.551 124.09C123.666 124.205 123.732 124.321 123.749 124.436C123.782 124.535 123.823 124.642 123.872 124.758C124.07 125.055 124.268 125.302 124.466 125.5C124.681 125.682 124.887 125.855 125.085 126.02C125.283 126.152 125.473 126.309 125.654 126.49C125.819 126.655 125.96 126.878 126.075 127.159C126.141 127.357 126.29 127.555 126.521 127.753C126.752 127.951 126.908 128.173 126.991 128.421C127.007 128.503 127.024 128.635 127.04 128.817C127.04 128.982 127.032 129.106 127.015 129.188C126.933 129.402 126.818 129.617 126.669 129.831C126.537 130.062 126.405 130.244 126.273 130.376C126.158 130.491 125.96 130.59 125.679 130.673C125.415 130.772 125.209 130.896 125.06 131.044C124.829 131.275 124.565 131.539 124.268 131.836C123.971 132.133 123.674 132.414 123.377 132.678C123.097 132.958 122.849 133.206 122.635 133.42C122.42 133.635 122.28 133.775 122.214 133.841C122.099 133.956 122.033 134.088 122.016 134.237C122 134.385 121.934 134.517 121.818 134.633C121.686 134.765 121.546 134.839 121.398 134.855C121.249 134.872 121.109 134.864 120.977 134.831C120.845 134.765 120.729 134.699 120.63 134.633C120.531 134.534 120.449 134.451 120.383 134.385C120.152 134.154 119.97 133.874 119.838 133.544C119.723 133.197 119.756 132.933 119.937 132.752C120.069 132.62 120.16 132.562 120.21 132.579C120.259 132.595 120.35 132.537 120.482 132.405C120.828 132.059 121.002 131.803 121.002 131.638C121.002 131.44 120.927 131.25 120.779 131.069C120.647 130.871 120.482 130.64 120.284 130.376C120.086 130.079 119.954 129.666 119.888 129.139C119.739 129.089 119.558 129.089 119.343 129.139C119.129 129.155 118.956 129.114 118.824 129.015C118.593 128.85 118.329 128.652 118.032 128.421C117.751 128.173 117.545 127.984 117.413 127.852V127.604C116.836 127.093 116.291 126.581 115.78 126.07C115.252 125.542 114.649 124.906 113.973 124.164C113.857 124.016 113.791 123.785 113.775 123.471C113.742 123.141 113.668 122.918 113.552 122.803C113.437 122.687 113.255 122.621 113.008 122.605C112.76 122.555 112.554 122.481 112.389 122.382C111.96 122.118 111.498 121.772 111.003 121.343C110.508 120.914 110.071 120.493 109.691 120.08C109.675 119.998 109.65 119.907 109.617 119.808C109.584 119.676 109.543 119.585 109.493 119.536C109.213 119.42 108.957 119.231 108.726 118.967C108.495 118.703 108.297 118.505 108.132 118.373C108 118.406 107.918 118.472 107.885 118.571C107.852 118.67 107.777 118.777 107.662 118.893C107.612 118.942 107.513 119.008 107.365 119.091C107.217 119.14 107.052 119.206 106.87 119.289C106.689 119.371 106.499 119.462 106.301 119.561C106.119 119.643 105.979 119.734 105.88 119.833C105.583 119.833 105.303 119.701 105.039 119.437C104.709 119.107 104.544 118.794 104.544 118.497C104.544 118.2 104.742 117.853 105.138 117.457C105.187 117.408 105.303 117.309 105.484 117.16C105.666 116.979 105.872 116.789 106.103 116.591C106.35 116.376 106.598 116.162 106.845 115.947C107.109 115.716 107.348 115.51 107.563 115.329C107.728 115.164 108.041 115.081 108.503 115.081C108.553 114.834 108.611 114.594 108.677 114.364C108.759 114.116 108.866 113.926 108.998 113.794C109.048 113.745 109.139 113.654 109.271 113.522C109.403 113.39 109.559 113.266 109.741 113.151C109.906 113.019 110.087 112.903 110.285 112.804C110.467 112.689 110.657 112.631 110.855 112.631C111.086 112.631 111.325 112.689 111.572 112.804C111.82 112.887 112.059 112.994 112.29 113.126C112.504 113.242 112.694 113.365 112.859 113.497C113.024 113.596 113.14 113.679 113.206 113.745C113.321 113.86 113.412 114.034 113.478 114.265C113.544 114.495 113.643 114.693 113.775 114.858C113.89 115.007 114.08 115.213 114.344 115.477C114.625 115.725 114.922 116.005 115.235 116.319C115.532 116.616 115.821 116.921 116.101 117.234C116.398 117.531 116.621 117.804 116.77 118.051C116.885 118.266 117.083 118.431 117.363 118.546C117.644 118.629 117.908 118.777 118.155 118.992C118.683 119.453 119.244 119.998 119.838 120.625C120.416 121.235 120.96 121.829 121.472 122.407C121.554 122.522 121.604 122.687 121.62 122.902C121.653 123.1 121.736 123.265 121.868 123.397C121.934 123.463 122.049 123.529 122.214 123.595C122.363 123.644 122.528 123.694 122.709 123.743C122.891 123.793 123.064 123.851 123.229 123.917C123.377 123.966 123.485 124.024 123.551 124.09ZM125.036 106.766C124.986 106.815 124.945 106.873 124.912 106.939C124.895 106.988 124.821 107.079 124.689 107.211C124.59 107.31 124.442 107.36 124.244 107.36C124.029 107.343 123.823 107.318 123.625 107.285C123.773 107.335 123.938 107.384 124.12 107.434C124.301 107.45 124.466 107.483 124.615 107.533C124.532 107.714 124.557 107.855 124.689 107.954C124.821 108.053 124.953 108.135 125.085 108.201C125.069 107.921 125.044 107.648 125.011 107.384C124.978 107.12 124.986 106.914 125.036 106.766ZM119.789 107.607L119.492 107.607L119.492 107.805H119.789L119.789 107.607ZM126.224 108.201L125.753 107.731C125.704 107.879 125.704 108.044 125.753 108.226C125.786 108.391 125.828 108.498 125.877 108.548L126.224 108.201ZM124.664 108.374C124.466 108.374 124.268 108.308 124.07 108.176C123.889 108.028 123.707 107.896 123.526 107.78C123.443 107.863 123.402 107.954 123.402 108.053C123.419 108.135 123.427 108.226 123.427 108.325L123.872 108.77C123.971 108.671 124.046 108.63 124.095 108.647C124.145 108.63 124.194 108.63 124.244 108.647C124.293 108.63 124.343 108.614 124.392 108.597C124.458 108.564 124.549 108.49 124.664 108.374ZM123.947 108.795L123.798 108.944L124.021 109.364L124.194 109.29L123.947 108.795ZM124.986 108.944L124.64 109.29L125.11 109.76C125.209 109.562 125.225 109.397 125.159 109.265C125.093 109.1 125.036 108.993 124.986 108.944ZM128.327 109.463C128.228 109.364 128.162 109.331 128.129 109.364C128.08 109.381 127.989 109.455 127.857 109.587C127.725 109.719 127.601 109.744 127.486 109.661C127.37 109.579 127.238 109.562 127.09 109.612C126.991 109.414 126.883 109.208 126.768 108.993C126.653 108.746 126.521 108.548 126.372 108.399C126.422 108.449 126.471 108.515 126.521 108.597C126.587 108.663 126.62 108.746 126.62 108.845C126.389 108.845 126.224 108.894 126.125 108.993C126.174 109.043 126.248 109.117 126.347 109.216C126.446 109.315 126.504 109.422 126.521 109.538C126.273 109.62 126.083 109.595 125.951 109.463C125.951 109.199 125.869 109.034 125.704 108.968C125.621 109.051 125.605 109.15 125.654 109.265C125.72 109.364 125.778 109.439 125.828 109.488C125.679 109.636 125.572 109.777 125.506 109.909C125.44 110.041 125.382 110.131 125.333 110.181L125.679 110.527C125.729 110.478 125.77 110.404 125.803 110.305C125.852 110.189 125.943 110.148 126.075 110.181C126.059 110.362 126.009 110.511 125.927 110.626C125.844 110.742 125.803 110.833 125.803 110.899C125.852 110.948 125.968 110.998 126.149 111.047C126.314 111.08 126.446 111.097 126.545 111.097C126.496 111.047 126.479 110.981 126.496 110.899C126.512 110.783 126.545 110.701 126.595 110.651C126.908 110.767 127.114 110.742 127.213 110.577C127.164 110.527 127.114 110.461 127.065 110.379C127.032 110.28 127.04 110.206 127.09 110.156C127.222 110.222 127.329 110.313 127.411 110.428C127.494 110.511 127.552 110.585 127.585 110.651C127.618 110.552 127.692 110.494 127.807 110.478C127.923 110.428 128.047 110.404 128.179 110.404C128.327 110.387 128.467 110.379 128.599 110.379C128.748 110.362 128.855 110.338 128.921 110.305C128.872 110.255 128.83 110.181 128.797 110.082C128.781 110.032 128.773 109.975 128.773 109.909C128.723 109.958 128.674 110.008 128.624 110.057C128.575 110.107 128.5 110.131 128.401 110.131C128.401 110.032 128.377 109.942 128.327 109.859C128.278 109.744 128.278 109.612 128.327 109.463ZM130.827 112.359C130.794 112.194 130.711 112.029 130.579 111.864C130.447 111.699 130.291 111.542 130.109 111.394C129.928 111.245 129.746 111.113 129.565 110.998C129.367 110.866 129.202 110.783 129.07 110.75C129.169 110.849 129.301 110.948 129.466 111.047C129.631 111.146 129.738 111.27 129.787 111.418C129.507 111.336 129.301 111.361 129.169 111.493C129.466 111.592 129.746 111.74 130.01 111.938C130.274 112.103 130.546 112.243 130.827 112.359ZM131.124 112.408L130.926 112.408L130.926 112.903L131.124 112.903L131.124 112.408ZM131 112.978C131 113.176 130.992 113.398 130.975 113.646C130.975 113.877 131.017 114.067 131.099 114.215C131.215 114.034 131.239 113.844 131.173 113.646C131.124 113.431 131.066 113.209 131 112.978ZM131.495 114.611C131.396 114.611 131.272 114.652 131.124 114.735C130.959 114.801 130.802 114.858 130.654 114.908L130.802 115.304L131.495 114.611ZM112.414 116.368L112.265 116.22L111.919 116.764L112.067 116.913L112.414 116.368ZM112.983 117.135C112.933 117.086 112.843 117.045 112.711 117.012C112.579 116.979 112.463 116.962 112.364 116.962L112.389 117.482L112.983 117.135ZM113.701 117.556L113.453 117.309L113.28 117.482L113.527 117.729L113.701 117.556ZM113.032 117.729C112.966 117.729 112.909 117.738 112.859 117.754C112.81 117.738 112.752 117.729 112.686 117.729L112.537 117.779C112.636 117.878 112.744 117.919 112.859 117.903C112.958 117.87 113.016 117.812 113.032 117.729ZM112.018 118.051L111.473 117.507L111.3 117.68L111.845 118.224L112.018 118.051ZM114.196 118.2C114.245 118.249 114.229 118.315 114.146 118.398L114.022 118.521C114.088 118.587 114.171 118.62 114.27 118.62C114.319 118.637 114.377 118.645 114.443 118.645C114.443 118.546 114.41 118.464 114.344 118.398C114.295 118.315 114.245 118.249 114.196 118.2ZM113.626 118.868C113.725 118.67 113.725 118.521 113.626 118.422C113.527 118.323 113.404 118.348 113.255 118.497L113.626 118.868ZM111.671 118.497L111.523 118.645L111.746 119.066L111.919 118.992L111.671 118.497ZM115.161 119.462L114.369 118.917C114.319 118.967 114.319 119.049 114.369 119.165C114.435 119.264 114.493 119.338 114.542 119.387L114.047 119.882L114.418 120.254C114.501 120.072 114.641 119.932 114.839 119.833C115.021 119.717 115.128 119.594 115.161 119.462ZM115.829 120.179L115.483 119.833C115.433 119.882 115.408 120.006 115.408 120.204C115.408 120.369 115.433 120.476 115.483 120.526L115.829 120.179ZM115.012 120.105C114.913 120.105 114.823 120.146 114.74 120.229C114.658 120.278 114.592 120.328 114.542 120.377L114.889 120.724C114.938 120.674 114.988 120.575 115.037 120.427C115.07 120.262 115.062 120.155 115.012 120.105ZM117.091 121.095L116.745 120.749L116.572 120.922L116.918 121.268L117.091 121.095ZM115.73 121.169L115.582 121.318L115.928 121.862L116.077 121.714L115.73 121.169ZM117.413 122.11C117.264 122.06 117.116 122.011 116.968 121.961C116.803 121.895 116.646 121.887 116.497 121.937L117.264 122.704C117.363 122.605 117.413 122.506 117.413 122.407C117.413 122.308 117.413 122.209 117.413 122.11ZM118.131 123.026C118.015 123.009 117.858 123.017 117.66 123.05C117.462 123.05 117.306 123.042 117.19 123.026C117.289 123.125 117.446 123.182 117.66 123.199C117.875 123.182 118.032 123.125 118.131 123.026ZM118.65 123.743C118.139 123.694 117.718 123.719 117.388 123.818L118.081 124.51C118.048 124.444 118.015 124.395 117.982 124.362C117.933 124.312 117.974 124.222 118.106 124.09C118.238 123.958 118.353 123.892 118.452 123.892C118.568 123.875 118.634 123.826 118.65 123.743ZM119.442 125.278L118.997 124.832L118.824 125.005L119.269 125.451L119.442 125.278ZM121.101 126.837C120.804 126.639 120.556 126.457 120.358 126.292C120.16 126.127 120.012 126.045 119.913 126.045C119.863 126.094 119.814 126.21 119.764 126.391C119.715 126.54 119.69 126.664 119.69 126.763C119.838 126.812 120.053 126.845 120.333 126.862C120.63 126.862 120.886 126.853 121.101 126.837ZM123.278 126.985C122.981 126.985 122.676 126.977 122.363 126.961C122.049 126.911 121.744 126.886 121.447 126.886L121.818 127.258C122 127.274 122.156 127.266 122.288 127.233C122.437 127.183 122.569 127.183 122.684 127.233C122.734 127.249 122.8 127.315 122.882 127.431C122.965 127.513 123.056 127.555 123.155 127.555C123.155 127.456 123.163 127.348 123.179 127.233C123.196 127.117 123.229 127.035 123.278 126.985ZM149.769 103.316C149.752 103.399 149.719 103.514 149.67 103.663C149.62 103.778 149.521 103.91 149.373 104.059L148.903 103.589C148.952 103.539 149.068 103.49 149.249 103.44C149.414 103.374 149.587 103.333 149.769 103.316ZM154.768 100.198C154.95 100.379 155.024 100.586 154.991 100.817C154.974 101.031 154.908 101.246 154.793 101.46C154.677 101.675 154.545 101.856 154.397 102.005C154.265 102.17 154.174 102.277 154.125 102.326C154.026 102.425 153.852 102.533 153.605 102.648C153.357 102.764 153.168 102.887 153.036 103.019C152.97 103.085 152.813 103.275 152.565 103.589C152.318 103.902 152.046 104.24 151.749 104.603C151.468 104.95 151.204 105.28 150.957 105.593C150.726 105.89 150.577 106.072 150.511 106.138C150.412 106.237 150.206 106.327 149.893 106.41C149.596 106.509 149.332 106.542 149.101 106.509C148.919 106.492 148.713 106.385 148.482 106.187C148.234 105.973 148.012 105.832 147.814 105.766C147.616 105.7 147.352 105.667 147.022 105.667C146.675 105.651 146.337 105.626 146.007 105.593C145.545 105.527 145.133 105.362 144.77 105.098C144.39 104.818 143.986 104.611 143.557 104.479C143.375 104.43 143.153 104.405 142.889 104.405C142.608 104.389 142.328 104.372 142.047 104.356C141.783 104.323 141.528 104.281 141.28 104.232C141.049 104.166 140.876 104.042 140.76 103.861C140.48 103.448 140.282 103.184 140.166 103.069C140.034 102.937 139.944 102.879 139.894 102.896C139.861 102.896 139.836 102.92 139.82 102.97C139.787 103.003 139.721 102.97 139.622 102.871C139.308 102.557 139.011 102.244 138.731 101.93C138.434 101.6 138.285 101.105 138.285 100.445C138.285 100.181 138.36 99.8762 138.508 99.5297C138.673 99.1668 138.739 98.8368 138.706 98.5398C138.69 98.3583 138.64 98.1768 138.558 97.9953C138.475 97.7808 138.376 97.5828 138.261 97.4013C138.162 97.2034 138.063 97.0384 137.964 96.9064C137.848 96.7579 137.757 96.6506 137.691 96.5846C137.114 96.0072 136.504 95.4627 135.86 94.9512C135.217 94.4067 134.623 94.0933 134.078 94.0108C133.847 93.9778 133.591 93.986 133.311 94.0355C133.047 94.0685 132.783 94.118 132.519 94.184C132.239 94.2335 131.983 94.2912 131.752 94.3572C131.537 94.4067 131.381 94.4315 131.282 94.4315C131.216 94.3985 131.141 94.3902 131.059 94.4067C130.993 94.4067 130.894 94.3407 130.762 94.2088C130.646 94.0933 130.523 93.887 130.391 93.59C130.259 93.293 130.242 93.0621 130.341 92.8971C130.49 92.6166 130.696 92.3114 130.96 91.9814C131.224 91.6514 131.504 91.3379 131.801 91.0409C132.082 90.7274 132.329 90.4634 132.544 90.249C132.775 90.018 132.923 89.8695 132.989 89.8035C133.039 89.754 133.146 89.6632 133.311 89.5312C133.492 89.3827 133.699 89.226 133.93 89.061C134.177 88.8795 134.425 88.7145 134.672 88.566C134.936 88.401 135.184 88.2856 135.415 88.2196C135.596 88.1701 135.86 88.1536 136.207 88.1701C136.553 88.1866 136.916 88.2361 137.295 88.3186C137.691 88.3845 138.079 88.4753 138.459 88.5908C138.822 88.6898 139.094 88.797 139.275 88.9125C139.44 89.0115 139.638 89.1435 139.869 89.3085C140.1 89.4735 140.307 89.6137 140.488 89.7292C140.505 89.8447 140.513 90.0345 140.513 90.2985C140.777 90.3315 141.024 90.3974 141.255 90.4964C141.486 90.5624 141.668 90.6614 141.8 90.7934C142.113 91.1069 142.328 91.6184 142.443 92.3278C142.559 93.0373 142.625 93.7633 142.641 94.5057C142.658 95.2482 142.658 95.9082 142.641 96.4856C142.625 97.0631 142.641 97.3766 142.691 97.4261C142.74 97.4756 142.872 97.5581 143.087 97.6736C143.301 97.7561 143.54 97.8468 143.804 97.9458C144.085 98.0283 144.374 98.1191 144.671 98.218C144.968 98.284 145.223 98.3253 145.438 98.3418C146.263 98.4408 147.063 98.647 147.838 98.9605C148.597 99.2575 149.282 99.4802 149.893 99.6287C150.19 99.6947 150.577 99.736 151.056 99.7525C151.534 99.736 152.013 99.736 152.491 99.7525C152.986 99.7525 153.448 99.7855 153.877 99.8515C154.29 99.901 154.587 100.016 154.768 100.198ZM146.601 108.464C146.783 108.646 146.832 108.893 146.75 109.206C146.667 109.487 146.535 109.767 146.354 110.048C146.172 110.328 145.982 110.584 145.784 110.815C145.603 111.03 145.496 111.153 145.463 111.186C145.347 111.302 145.108 111.475 144.745 111.706C144.398 111.921 144.085 112.119 143.804 112.3C143.524 112.482 143.243 112.729 142.963 113.043C142.682 113.356 142.476 113.579 142.344 113.711C142.229 113.826 142.122 114.032 142.023 114.329C141.924 114.626 141.783 114.866 141.602 115.047C141.338 115.311 141.066 115.484 140.785 115.567C140.521 115.633 140.331 115.724 140.216 115.839C140.084 115.971 140.01 116.078 139.993 116.161C139.977 116.243 139.902 116.351 139.77 116.483C139.556 116.697 139.259 116.846 138.879 116.928C138.516 116.994 138.203 116.895 137.939 116.631C137.807 116.499 137.733 116.392 137.716 116.309C137.7 116.194 137.675 116.103 137.642 116.037C137.642 115.971 137.7 115.798 137.815 115.517C137.914 115.22 138.005 114.899 138.087 114.552C138.186 114.189 138.236 113.843 138.236 113.513C138.252 113.166 138.178 112.911 138.013 112.746L129.722 104.455C129.59 104.323 129.491 104.257 129.425 104.257C129.343 104.24 129.26 104.224 129.178 104.207C128.864 103.927 128.6 103.646 128.386 103.366C128.155 103.069 127.907 102.788 127.643 102.524C127.396 102.244 127.083 101.98 126.703 101.732C126.34 101.468 125.853 101.229 125.243 101.015C124.995 100.932 124.698 101.015 124.352 101.262C124.005 101.477 123.7 101.683 123.436 101.881C123.387 101.831 123.312 101.807 123.213 101.807C123.131 101.79 123.024 101.716 122.892 101.584C122.875 101.567 122.842 101.518 122.793 101.435C122.727 101.336 122.669 101.229 122.619 101.114C122.57 100.965 122.545 100.825 122.545 100.693C122.562 100.544 122.619 100.421 122.718 100.322C122.916 100.124 123.131 99.8927 123.362 99.6287C123.593 99.3647 123.807 99.1173 124.005 98.8863C124.22 98.6388 124.41 98.4325 124.575 98.2675C124.74 98.0696 124.855 97.9376 124.921 97.8716C124.987 97.8056 125.103 97.7396 125.268 97.6736C125.433 97.5746 125.606 97.4838 125.787 97.4013C125.969 97.3188 126.142 97.2446 126.307 97.1786C126.472 97.0796 126.588 96.9971 126.654 96.9311C126.769 96.8156 126.876 96.5764 126.975 96.2134C127.091 95.8339 127.231 95.5617 127.396 95.3967C127.544 95.2482 127.8 95.108 128.163 94.976C128.526 94.811 128.798 94.7697 128.98 94.8522C129.244 94.9842 129.574 95.1822 129.97 95.4462C130.349 95.6937 130.688 95.9659 130.985 96.2629C131.034 96.3124 131.084 96.3949 131.133 96.5104C131.183 96.6259 131.24 96.7496 131.306 96.8816C131.356 96.9971 131.414 97.1209 131.48 97.2528C131.546 97.3518 131.62 97.4261 131.702 97.4756C132.098 97.7066 132.527 97.9706 132.989 98.2675C133.451 98.5645 133.748 98.779 133.88 98.911C134.062 99.0925 134.227 99.3895 134.375 99.802C134.524 100.214 134.755 100.561 135.068 100.841C135.217 100.957 135.332 101.138 135.415 101.386C135.481 101.617 135.58 101.798 135.712 101.93C135.761 101.98 135.868 102.054 136.033 102.153C136.182 102.236 136.347 102.335 136.528 102.45C136.726 102.549 136.924 102.665 137.122 102.797C137.304 102.912 137.452 103.028 137.568 103.143C137.7 103.275 137.848 103.44 138.013 103.638C138.178 103.836 138.351 103.993 138.533 104.108C138.681 104.191 138.83 104.24 138.978 104.257C139.143 104.257 139.292 104.323 139.424 104.455C139.556 104.587 139.688 104.851 139.82 105.247C139.952 105.643 140.084 105.907 140.216 106.039C140.265 106.088 140.414 106.22 140.661 106.435C140.925 106.633 141.231 106.872 141.577 107.152C141.907 107.416 142.253 107.697 142.616 107.994C142.979 108.291 143.301 108.547 143.582 108.761C143.664 108.844 143.78 108.86 143.928 108.811C144.06 108.745 144.209 108.662 144.374 108.563C144.539 108.431 144.704 108.316 144.869 108.217C145.034 108.085 145.19 108.01 145.339 107.994C145.504 107.994 145.718 108.043 145.982 108.142C146.263 108.225 146.469 108.332 146.601 108.464ZM139.077 107.87C139.16 108.019 139.234 108.175 139.3 108.34C139.35 108.489 139.308 108.629 139.176 108.761C139.061 108.877 138.97 108.934 138.904 108.934C138.822 108.918 138.731 108.91 138.632 108.91C138.533 108.877 138.417 108.893 138.285 108.959C138.137 109.008 137.939 109.157 137.691 109.404L137.221 108.934C137.733 108.621 138.153 108.2 138.483 107.672C138.5 107.722 138.525 107.763 138.558 107.796C138.574 107.845 138.591 107.878 138.607 107.895C138.624 107.911 138.632 107.953 138.632 108.019C138.83 108.019 138.978 107.969 139.077 107.87ZM138.83 93.9118L138.533 93.9118V94.1098L138.805 94.085L138.83 93.9118ZM140.117 94.0603C140.051 93.9943 139.935 93.9613 139.77 93.9613C139.605 93.9613 139.449 93.986 139.3 94.0355C139.135 94.0685 139.02 94.1345 138.954 94.2335C138.871 94.316 138.879 94.4067 138.978 94.5057C139.11 94.6377 139.374 94.7697 139.77 94.9017C140.166 95.0007 140.488 95.075 140.736 95.1245C140.637 94.9265 140.546 94.7367 140.463 94.5552C140.364 94.3572 140.249 94.1923 140.117 94.0603ZM139.919 95.1492L139.77 95.2977L139.993 95.7679L140.191 95.6689L139.919 95.1492ZM129.153 97.9458C129.104 97.8963 129.029 97.8551 128.93 97.8221C128.848 97.7726 128.782 97.7726 128.732 97.8221C128.683 97.8716 128.732 97.9211 128.881 97.9706C129.013 98.0036 129.104 97.9953 129.153 97.9458ZM128.708 98.2923C128.658 98.3418 128.559 98.3748 128.411 98.3913C128.262 98.3748 128.122 98.4325 127.99 98.5645C127.874 98.68 127.817 98.8038 127.817 98.9358C127.833 99.0513 127.825 99.1255 127.792 99.1585C127.643 99.109 127.487 99.1173 127.322 99.1832C127.173 99.2327 127.074 99.2822 127.025 99.3317C127.173 99.3812 127.338 99.4307 127.52 99.4802C127.718 99.5132 127.841 99.5545 127.891 99.604C127.99 99.505 128.089 99.373 128.188 99.208C128.303 99.0265 128.427 98.9193 128.559 98.8863C128.559 99.0843 128.584 99.2245 128.633 99.307C128.683 99.3895 128.65 99.4885 128.534 99.604C128.402 99.736 128.303 99.8185 128.237 99.8515C128.171 99.8845 128.138 99.9505 128.138 100.049L128.683 100.594C128.798 100.181 128.831 99.769 128.782 99.3565C128.732 98.944 128.708 98.5893 128.708 98.2923ZM130.044 99.4307L129.673 99.0595C129.623 99.208 129.574 99.373 129.524 99.5545C129.491 99.7195 129.5 99.8267 129.549 99.8762C129.648 99.8762 129.739 99.8185 129.821 99.703C129.92 99.571 129.995 99.4802 130.044 99.4307ZM142.097 99.901C142.047 99.9505 142.047 100.016 142.097 100.099C142.146 100.148 142.196 100.198 142.245 100.247C142.196 100.198 142.171 100.124 142.171 100.025C142.171 99.8927 142.146 99.8515 142.097 99.901ZM143.087 100.396L142.913 100.322C142.798 100.371 142.839 100.495 143.037 100.693C143.087 100.643 143.111 100.586 143.111 100.52C143.111 100.487 143.103 100.445 143.087 100.396ZM131.727 100.322C131.397 100.19 131.018 100.14 130.589 100.173C130.176 100.19 129.813 100.272 129.5 100.421L129.871 100.792C130.102 100.66 130.292 100.602 130.44 100.619C130.589 100.602 130.721 100.635 130.836 100.718C130.952 100.767 131.075 100.841 131.207 100.94C131.339 101.039 131.496 101.13 131.678 101.213C131.397 100.833 131.414 100.536 131.727 100.322ZM129.574 100.742C129.425 100.594 129.277 100.561 129.128 100.643C128.98 100.693 128.873 100.718 128.807 100.718C128.955 100.767 129.12 100.8 129.302 100.817C129.483 100.833 129.574 100.808 129.574 100.742ZM146.378 100.916L145.933 100.47C145.834 100.47 145.685 100.487 145.487 100.52C145.306 100.536 145.19 100.569 145.141 100.619C145.19 100.668 145.19 100.718 145.141 100.767C145.091 100.784 145.133 100.858 145.265 100.99C145.397 101.122 145.595 101.171 145.859 101.138C146.106 101.089 146.279 101.015 146.378 100.916ZM132.519 101.114C132.469 101.064 132.395 101.023 132.296 100.99C132.197 100.924 132.098 100.891 131.999 100.891C131.999 101.023 131.991 101.114 131.975 101.163C131.958 101.213 131.95 101.254 131.95 101.287C132.082 101.32 132.197 101.32 132.296 101.287C132.395 101.221 132.469 101.163 132.519 101.114ZM142.666 101.361L142.493 101.188L142.22 101.46L142.394 101.633L142.666 101.361ZM131.628 101.312L131.43 101.411L131.554 101.782L131.777 101.708L131.628 101.312ZM130.91 101.732C130.861 101.683 130.77 101.625 130.638 101.559C130.506 101.46 130.415 101.386 130.366 101.336L129.995 101.708C130.143 101.757 130.308 101.774 130.49 101.757C130.671 101.741 130.811 101.732 130.91 101.732ZM132.643 101.782L132.445 101.782V102.227L132.643 102.277L132.643 101.782ZM145.982 101.906C145.933 101.856 145.85 101.823 145.735 101.807C145.619 101.757 145.537 101.708 145.487 101.658C145.487 101.757 145.52 101.906 145.586 102.104C145.652 102.302 145.685 102.45 145.685 102.549C145.735 102.5 145.784 102.401 145.834 102.252C145.883 102.071 145.933 101.955 145.982 101.906ZM146.75 102.227L146.453 102.227L146.453 102.425L146.725 102.401L146.75 102.227ZM148.16 102.203L147.962 102.302L148.086 102.673L148.309 102.599L148.16 102.203ZM131.282 102.747L130.712 102.178L130.539 102.351L131.108 102.92L131.282 102.747ZM133.063 102.945L132.593 102.475L132.42 102.648L132.89 103.118L133.063 102.945ZM145.933 102.846L145.76 102.673L145.487 102.945L145.661 103.118L145.933 102.846ZM147.64 103.217C147.64 102.986 147.517 102.863 147.269 102.846C147.22 102.896 147.195 103.019 147.195 103.217C147.211 103.399 147.244 103.514 147.294 103.564L147.64 103.217ZM133.558 103.242L133.286 102.97L133.113 103.143L133.385 103.415L133.558 103.242ZM134.103 104.281C134.053 104.232 133.979 104.224 133.88 104.257C133.781 104.257 133.682 104.257 133.583 104.257C133.633 104.306 133.715 104.339 133.831 104.356C133.963 104.356 134.053 104.331 134.103 104.281ZM132.989 104.158H132.494C132.494 104.224 132.478 104.306 132.445 104.405C132.428 104.455 132.412 104.488 132.395 104.504C132.445 104.554 132.519 104.595 132.618 104.628C132.667 104.644 132.709 104.653 132.742 104.653C132.791 104.603 132.832 104.529 132.865 104.43C132.898 104.298 132.94 104.207 132.989 104.158ZM134.251 105.321L133.484 104.752L133.311 104.925L134.078 105.494L134.251 105.321ZM135.786 105.37L134.821 104.603C134.771 104.653 134.722 104.735 134.672 104.851C134.639 104.95 134.598 105.024 134.548 105.073L135.316 105.841L135.786 105.37ZM137.84 106.039C137.592 105.89 137.361 105.725 137.147 105.544C136.916 105.346 136.702 105.197 136.504 105.098C136.471 105.131 136.446 105.172 136.429 105.222C136.429 105.255 136.421 105.296 136.405 105.346L136.355 105.494C136.454 105.593 136.586 105.659 136.751 105.692C136.9 105.709 136.999 105.742 137.048 105.791C137.048 105.956 137.015 106.105 136.949 106.237C136.867 106.352 136.792 106.426 136.726 106.459C136.875 106.509 137.04 106.558 137.221 106.608C137.419 106.641 137.576 106.6 137.691 106.484C137.823 106.352 137.881 106.278 137.865 106.261C137.848 106.212 137.84 106.138 137.84 106.039ZM136.85 106.831C136.652 106.732 136.421 106.649 136.157 106.583C135.91 106.501 135.687 106.41 135.489 106.311C135.538 106.459 135.588 106.674 135.637 106.954C135.703 107.218 135.794 107.441 135.91 107.623C136.058 107.474 136.231 107.35 136.429 107.251C136.627 107.152 136.768 107.012 136.85 106.831ZM138.31 107.598L138.038 107.326L137.865 107.499L138.137 107.771L138.31 107.598ZM137.271 107.845C137.238 107.812 137.205 107.796 137.172 107.796C137.122 107.779 137.073 107.763 137.023 107.746L136.875 107.697L136.9 108.217L137.271 107.845ZM139.696 108.984L139.424 108.712L139.251 108.885L139.523 109.157L139.696 108.984ZM138.78 109.355C138.731 109.404 138.698 109.487 138.681 109.602C138.665 109.685 138.706 109.776 138.805 109.875C138.805 109.776 138.813 109.685 138.83 109.602C138.846 109.487 138.83 109.404 138.78 109.355ZM140.983 109.677L140.562 109.503L140.463 109.701L140.835 109.825L140.983 109.677ZM138.459 109.825C138.409 109.776 138.335 109.734 138.236 109.701C138.153 109.652 138.087 109.652 138.038 109.701C137.988 109.751 138.038 109.8 138.186 109.85C138.318 109.883 138.409 109.875 138.459 109.825ZM142.616 110.617L142.171 110.172L141.701 110.196L141.701 110.642L142.146 111.087L142.616 110.617ZM173.232 82.3771C173.133 82.6741 172.985 83.0041 172.787 83.3671C172.605 83.7465 172.449 84.0023 172.317 84.1343L171.079 85.3717C170.898 85.5532 170.716 85.6687 170.535 85.7182C170.386 85.7677 170.155 85.8172 169.842 85.8667L169.867 85.8419L169.842 85.8667C169.825 85.8832 169.809 85.8997 169.792 85.9162C169.759 85.9162 169.726 85.9327 169.693 85.9657C169.627 86.0317 169.462 86.2462 169.198 86.6092C168.951 86.9556 168.679 87.3434 168.382 87.7723C168.085 88.2013 167.804 88.5973 167.54 88.9603C167.293 89.3068 167.136 89.513 167.07 89.579C166.954 89.6945 166.806 89.777 166.624 89.8265C166.443 89.876 166.295 89.9585 166.179 90.074C166.047 90.206 166.014 90.305 166.08 90.371C166.146 90.437 166.113 90.536 165.981 90.6679C165.767 90.8824 165.428 91.0062 164.966 91.0392C164.521 91.0557 164.216 90.9814 164.051 90.8164C163.886 90.6514 163.803 90.4535 163.803 90.2225C163.787 89.975 163.803 89.7275 163.853 89.48C163.919 89.216 163.985 88.952 164.051 88.688C164.117 88.4241 164.158 88.1848 164.174 87.9703C164.042 87.8383 163.844 87.6733 163.58 87.4754C163.316 87.2444 163.044 87.0381 162.764 86.8566C162.483 86.6751 162.211 86.5514 161.947 86.4854C161.699 86.4029 161.51 86.4277 161.378 86.5597C161.279 86.6586 161.238 86.7659 161.254 86.8814C161.271 86.9969 161.213 87.1206 161.081 87.2526C160.949 87.3846 160.743 87.4919 160.462 87.5744C160.182 87.6568 159.975 87.7641 159.843 87.8961C159.711 88.0281 159.637 88.2013 159.621 88.4158C159.604 88.6303 159.53 88.8035 159.398 88.9355C159.348 88.985 159.233 89.051 159.051 89.1335C158.886 89.1995 158.697 89.2573 158.482 89.3068C158.284 89.3398 158.086 89.3563 157.888 89.3563C157.707 89.3398 157.566 89.282 157.467 89.183C157.368 89.084 157.302 88.919 157.269 88.688C157.22 88.4406 157.195 88.1848 157.195 87.9208C157.195 87.6568 157.212 87.4094 157.245 87.1784C157.294 86.9309 157.344 86.7494 157.393 86.6339C157.492 86.4689 157.599 86.2957 157.715 86.1142C157.83 85.9327 157.962 85.7677 158.111 85.6192C158.144 85.2892 158.094 85.0582 157.962 84.9262C157.83 84.7942 157.715 84.6787 157.616 84.5798C157.418 84.3818 157.195 84.2415 156.948 84.159C156.7 84.0765 156.445 84.0023 156.181 83.9363C155.9 83.8538 155.628 83.7465 155.364 83.6146C155.1 83.4826 154.877 83.2763 154.696 82.9958C154.646 82.8803 154.597 82.7483 154.547 82.5999C154.498 82.4514 154.407 82.3441 154.275 82.2781C153.994 82.2616 153.714 82.2781 153.433 82.3276C153.153 82.3441 152.864 82.3194 152.567 82.2534C152.353 82.2039 152.08 82.0636 151.751 81.8326C151.404 81.5852 151.124 81.4037 150.909 81.2882C150.711 81.1892 150.422 81.1149 150.043 81.0654C149.647 80.9994 149.383 80.9004 149.251 80.7684C149.185 80.7025 149.036 80.4715 148.805 80.0755C148.574 79.6795 148.343 79.2505 148.112 78.7886C147.881 78.2936 147.675 77.8398 147.494 77.4274C147.312 76.9819 147.238 76.6932 147.271 76.5612C147.403 76.1652 147.502 75.8682 147.568 75.6702C147.634 75.4722 147.692 75.3155 147.741 75.2C147.791 75.0845 147.848 74.9937 147.914 74.9277C147.964 74.8453 148.063 74.7298 148.211 74.5813C148.393 74.3998 148.574 74.2183 148.756 74.0368C148.937 73.8553 149.243 73.8306 149.672 73.9625C150.051 74.045 150.464 74.243 150.909 74.5565C151.355 74.837 151.792 75.0432 152.221 75.1752C153.211 75.4392 154.052 75.7032 154.745 75.9672C155.438 76.1982 156.065 76.4292 156.626 76.6602C157.17 76.8746 157.674 77.0974 158.136 77.3284C158.614 77.5429 159.126 77.7739 159.67 78.0213C160 78.1533 160.413 78.3678 160.908 78.6648C161.403 78.9618 161.84 79.2175 162.219 79.432C162.45 79.564 162.764 79.663 163.16 79.729C163.556 79.762 163.91 79.8527 164.224 80.0012C164.9 80.2487 165.569 80.5045 166.229 80.7684C166.888 81.0324 167.4 81.3789 167.763 81.8079C168.159 81.9399 168.629 82.0471 169.174 82.1296C169.718 82.2121 170.279 82.2451 170.857 82.2286C171.055 82.1956 171.31 82.1214 171.624 82.0059C171.937 81.8574 172.201 81.8079 172.416 81.8574C172.531 81.8739 172.671 81.9481 172.836 82.0801C173.001 82.1791 173.133 82.2781 173.232 82.3771ZM153.26 83.9858C153.376 84.1013 153.45 84.2745 153.483 84.5055C153.499 84.72 153.549 84.918 153.631 85.0995C153.945 85.7759 154.333 86.5597 154.795 87.4506C155.24 88.3251 155.677 89.1748 156.106 89.9997C156.535 90.8247 156.915 91.5342 157.245 92.1281C157.558 92.7056 157.748 93.0273 157.814 93.0933C158.144 93.4233 158.482 93.5965 158.829 93.613C159.159 93.613 159.48 93.5718 159.794 93.4893C160.091 93.3903 160.371 93.3078 160.635 93.2418C160.899 93.1758 161.13 93.2418 161.328 93.4398C161.51 93.6213 161.609 93.8688 161.625 94.1823C161.642 94.4628 161.592 94.6607 161.477 94.7762C161.427 94.8257 161.254 94.999 160.957 95.296C160.677 95.5764 160.338 95.9147 159.942 96.3107C159.546 96.7066 159.134 97.1191 158.705 97.5481C158.276 97.9771 157.913 98.3566 157.616 98.6865C157.599 98.769 157.583 98.8515 157.566 98.934C157.566 99.033 157.5 99.1485 157.368 99.2805C157.319 99.33 157.212 99.3877 157.047 99.4537C156.882 99.5197 156.7 99.5692 156.502 99.6022C156.304 99.6352 156.115 99.6435 155.933 99.627C155.735 99.627 155.587 99.5775 155.488 99.4785C155.339 99.33 155.273 99.099 155.29 98.7855C155.306 98.472 155.347 98.1338 155.413 97.7708C155.463 97.3914 155.512 97.0284 155.562 96.6819C155.611 96.3354 155.603 96.0467 155.537 95.8157C155.438 95.5517 155.265 95.2465 155.017 94.9C154.77 94.5205 154.531 94.1163 154.3 93.6873C154.168 93.4233 153.978 93.0026 153.73 92.4251C153.483 91.8476 153.219 91.2042 152.938 90.4947C152.674 89.7687 152.402 89.018 152.122 88.2426C151.841 87.4671 151.594 86.7576 151.379 86.1142C151.346 86.0152 151.239 85.8584 151.058 85.644C150.86 85.413 150.678 85.1655 150.513 84.9015C150.348 84.6045 150.241 84.3158 150.191 84.0353C150.125 83.7383 150.208 83.4743 150.439 83.2433C150.604 83.0783 150.827 83.0206 151.107 83.0701C151.404 83.1031 151.701 83.1856 151.998 83.3176C152.295 83.4166 152.567 83.5403 152.815 83.6888C153.062 83.8373 153.211 83.9363 153.26 83.9858ZM153.755 78.1451C153.557 78.0131 153.334 77.9718 153.087 78.0213C152.823 78.0543 152.658 78.0873 152.592 78.1203C152.691 78.1863 152.773 78.2853 152.839 78.4173C152.889 78.5328 152.889 78.6153 152.839 78.6648L152.32 78.2936L152.32 77.5016C152.122 77.5016 151.94 77.5181 151.775 77.5511C151.61 77.5841 151.454 77.6254 151.305 77.6749C151.305 77.5759 151.28 77.4851 151.231 77.4026C151.165 77.3036 151.132 77.2046 151.132 77.1056C151.049 77.0891 150.967 77.0726 150.884 77.0561C150.785 77.0231 150.686 76.9901 150.587 76.9571C150.472 76.9406 150.365 76.9159 150.266 76.8829L149.696 77.4521C149.845 77.5016 150.018 77.5429 150.216 77.5759C150.398 77.5924 150.563 77.6254 150.711 77.6749C150.662 77.7904 150.67 77.8976 150.736 77.9966C150.802 78.0956 150.835 78.1946 150.835 78.2936C150.769 78.2936 150.728 78.3018 150.711 78.3183C150.695 78.3348 150.662 78.3513 150.612 78.3678C150.579 78.4008 150.546 78.4173 150.513 78.4173L150.983 78.8875C151.099 78.7061 151.223 78.5988 151.355 78.5658C151.47 78.5163 151.594 78.5246 151.726 78.5906C151.858 78.6236 151.99 78.6896 152.122 78.7885C152.27 78.871 152.419 78.9535 152.567 79.036C152.749 78.9535 152.93 78.937 153.112 78.9865C153.31 79.0195 153.499 79.0443 153.681 79.0608C153.681 79.2918 153.763 79.4403 153.928 79.5063C153.961 79.3743 153.961 79.2093 153.928 79.0113C153.912 78.7968 153.854 78.6401 153.755 78.5411C153.623 78.6731 153.508 78.6896 153.409 78.5906C153.409 78.4916 153.466 78.4173 153.582 78.3678C153.681 78.3018 153.739 78.2276 153.755 78.1451ZM151.924 79.333C151.874 79.2835 151.792 79.2175 151.676 79.135C151.561 79.0525 151.478 79.036 151.429 79.0855C151.379 79.135 151.421 79.1928 151.553 79.2588C151.701 79.3083 151.825 79.333 151.924 79.333ZM156.799 79.2093C156.75 79.1598 156.643 79.1185 156.478 79.0855C156.313 79.0195 156.181 78.9865 156.082 78.9865C156.082 79.0855 156.082 79.2175 156.082 79.3825C156.065 79.531 156.082 79.63 156.131 79.6795C156.23 79.5805 156.354 79.4898 156.502 79.4073C156.651 79.3248 156.75 79.2588 156.799 79.2093ZM155.191 79.3825C155.042 79.333 154.877 79.3 154.696 79.2835C154.514 79.267 154.374 79.3083 154.275 79.4073C154.324 79.5558 154.407 79.6878 154.522 79.8032C154.621 79.9022 154.696 79.9765 154.745 80.026C154.696 79.9765 154.646 79.96 154.597 79.9765C154.531 79.9765 154.564 79.9105 154.696 79.7785C154.762 79.7125 154.811 79.696 154.844 79.729C154.861 79.7455 154.885 79.7702 154.918 79.8032C154.935 79.8197 154.951 79.8362 154.968 79.8527C154.984 79.8692 155.026 79.8445 155.092 79.7785C155.207 79.663 155.257 79.564 155.24 79.4815C155.24 79.4485 155.224 79.4155 155.191 79.3825ZM157.888 79.6053L156.799 79.4073L156.75 79.6053L157.814 79.828L157.888 79.6053ZM153.904 79.927L153.235 79.2588C153.202 79.2918 153.128 79.3 153.013 79.2835C152.897 79.234 152.815 79.1845 152.765 79.135L152.394 79.5063C152.394 79.6053 152.394 79.6713 152.394 79.7043C152.377 79.7208 152.435 79.795 152.567 79.927C152.699 80.059 152.905 80.1002 153.186 80.0507C153.466 79.9682 153.706 79.927 153.904 79.927ZM159.324 80.1497C159.175 80.1002 159.035 80.1085 158.903 80.1745C158.771 80.2075 158.631 80.1992 158.482 80.1497L158.136 80.4962L158.358 80.9664C158.622 80.8674 158.754 80.7025 158.754 80.4715C158.919 80.4715 159.076 80.4467 159.225 80.3972C159.357 80.3312 159.39 80.2487 159.324 80.1497ZM156.626 80.026L156.156 80.4962L156.428 80.9664L156.873 80.521C156.873 80.422 156.849 80.3312 156.799 80.2487C156.733 80.1497 156.675 80.0755 156.626 80.026ZM156.057 80.9417L155.389 80.2735L155.215 80.4467L155.884 81.1149L156.057 80.9417ZM162.145 82.1791L161.403 81.4367C161.304 81.4367 161.188 81.4532 161.056 81.4862C160.941 81.5027 160.858 81.5357 160.809 81.5852C160.858 81.6347 160.949 81.6594 161.081 81.6594C161.213 81.6594 161.328 81.6594 161.427 81.6594C161.427 81.7584 161.411 81.8739 161.378 82.0059C161.345 82.1379 161.328 82.2534 161.328 82.3524C161.559 82.3524 161.831 82.2946 162.145 82.1791ZM160.734 81.7584C160.586 81.6099 160.429 81.4862 160.264 81.3872C160.099 81.2882 159.802 81.2387 159.373 81.2387C159.324 81.2882 159.299 81.3459 159.299 81.4119C159.299 81.4779 159.233 81.5769 159.101 81.7089C158.985 81.8244 158.87 81.8574 158.754 81.8079C158.639 81.7584 158.515 81.7007 158.383 81.6347C158.268 81.5522 158.136 81.5027 157.987 81.4862C157.855 81.4532 157.707 81.5192 157.542 81.6842L158.507 82.6494C158.754 82.4349 158.952 82.3029 159.101 82.2534C159.266 82.1874 159.414 82.1544 159.546 82.1544C159.645 82.3524 159.72 82.5586 159.769 82.7731C159.802 82.9711 159.827 83.1938 159.843 83.4413C160.074 83.4413 160.19 83.3423 160.19 83.1443C160.338 83.2928 160.437 83.4248 160.487 83.5403C160.52 83.6393 160.553 83.7053 160.586 83.7383L160.932 83.3918C160.883 83.1443 160.883 82.9628 160.932 82.8473C160.982 82.6989 161.031 82.5834 161.081 82.5009C161.114 82.4019 161.114 82.3029 161.081 82.2039C161.048 82.1049 160.932 81.9564 160.734 81.7584ZM163.382 83.1196L163.011 82.7483L162.838 82.9216L163.209 83.2928L163.382 83.1196ZM170.139 83.6393L169.817 83.3176C169.619 83.3176 169.388 83.3011 169.124 83.2681C168.86 83.2021 168.629 83.2021 168.431 83.2681L169.05 83.8868C169.165 84.0353 169.339 84.126 169.57 84.159C169.801 84.192 169.99 84.1838 170.139 84.1343L170.139 83.6393ZM166.08 83.1443C165.899 82.9628 165.725 82.8721 165.56 82.8721C165.395 82.8391 165.239 82.8638 165.09 82.9463C164.942 82.9958 164.793 83.0948 164.645 83.2433C164.496 83.3588 164.339 83.4661 164.174 83.5651C164.471 83.6641 164.686 83.697 164.818 83.6641C164.966 83.6146 165.123 83.5898 165.288 83.5898C165.404 83.6063 165.486 83.6393 165.536 83.6888C165.602 83.7218 165.668 83.7548 165.734 83.7878C165.783 83.8043 165.857 83.8125 165.956 83.8125C166.039 83.796 166.179 83.7548 166.377 83.6888C166.328 83.6393 166.295 83.5733 166.278 83.4908C166.278 83.3918 166.212 83.2763 166.08 83.1443ZM163.679 83.9115C163.58 83.9115 163.481 83.9775 163.382 84.1095C163.3 84.225 163.234 84.3075 163.184 84.357L163.778 84.7035C163.778 84.6045 163.77 84.4643 163.754 84.2828C163.754 84.0848 163.729 83.961 163.679 83.9115ZM164.199 84.1838L164.026 84.258L164.15 84.6293L164.348 84.5798L164.199 84.1838ZM166.427 83.8868C166.377 83.9363 166.278 84.0023 166.13 84.0848C165.998 84.1508 165.907 84.2085 165.857 84.258C165.907 84.4065 165.989 84.489 166.105 84.5055C166.22 84.522 166.303 84.6045 166.352 84.753C166.319 84.786 166.286 84.852 166.253 84.951C166.237 85.0005 166.22 85.0335 166.204 85.05C166.336 85.083 166.46 85.0417 166.575 84.9262C166.674 84.7942 166.748 84.7035 166.798 84.654C166.699 84.555 166.624 84.4478 166.575 84.3323C166.525 84.1838 166.476 84.0353 166.427 83.8868ZM166.303 85.347C166.204 85.248 166.088 85.1655 165.956 85.0995C165.808 85.017 165.709 85.0005 165.659 85.05C165.659 85.149 165.692 85.281 165.758 85.446C165.824 85.578 165.882 85.6687 165.932 85.7182L166.303 85.347ZM165.189 85.3717L165.016 85.446L165.239 86.1142L165.437 86.0647L165.189 85.3717ZM166.352 85.5945C166.22 85.6934 166.08 85.7842 165.932 85.8667C165.783 85.9492 165.676 86.0234 165.61 86.0894C165.841 86.2544 165.998 86.4442 166.08 86.6586C166.146 86.8566 166.245 86.9886 166.377 87.0546C166.41 86.8236 166.427 86.5927 166.427 86.3617C166.427 86.0977 166.402 85.8419 166.352 85.5945Z" fill="black"/>
</svg>
