<svg width="61" height="63" viewBox="0 0 61 63" fill="none" xmlns="http://www.w3.org/2000/svg">
<path d="M19.9711 49.3182L9.79154 31.6873L19.9708 14.0563L40.3294 14.0566L50.509 31.6875L40.3297 49.3185L19.9711 49.3182Z" fill="#191919"/>
<path fill-rule="evenodd" clip-rule="evenodd" d="M18.1531 52.4662L6.15526 31.6863L18.1528 10.906L42.1476 10.9064L54.1454 31.6864L42.148 52.4667L18.1531 52.4662ZM9.79162 31.6862L19.9712 49.3171L40.3298 49.3175L50.5091 31.6864L40.3295 14.0556L19.9709 14.0552L9.79162 31.6862Z" fill="#191919"/>
<path d="M19.9711 49.3182L9.79154 31.6873L19.9708 14.0563L40.3294 14.0566L50.509 31.6875L40.3297 49.3185L19.9711 49.3182Z" fill="#2A5133"/>
<path fill-rule="evenodd" clip-rule="evenodd" d="M20.8802 47.7436L39.4207 47.7439L48.6908 31.6875L39.4203 15.6312L20.8799 15.6309L11.6097 31.6873L20.8802 47.7436ZM9.79154 31.6873L19.9711 49.3182L40.3297 49.3185L50.509 31.6875L40.3294 14.0566L19.9708 14.0563L9.79154 31.6873Z" fill="#191919"/>
<path d="M32.5152 44.7754H27.9525V27.3919H32.5152V44.7754ZM27.7436 22.8934C27.7436 22.1865 27.9685 21.6081 28.4184 21.1583C28.8682 20.7084 29.468 20.4835 30.2178 20.4835C30.9675 20.4835 31.5673 20.7084 32.0172 21.1583C32.467 21.6081 32.692 22.1865 32.692 22.8934C32.692 23.5896 32.467 24.168 32.0172 24.6285C31.5781 25.0891 30.9783 25.3194 30.2178 25.3194C29.4573 25.3194 28.8522 25.0891 28.4023 24.6285C27.9632 24.168 27.7436 23.5896 27.7436 22.8934Z" fill="#98A789"/>
</svg>
