<svg width="53" height="53" viewBox="0 0 53 53" fill="none" xmlns="http://www.w3.org/2000/svg">
<circle cx="26.3442" cy="26.7934" r="21.8911" fill="#FFB118" stroke="#191919" stroke-width="8"/>
<path d="M28.5592 37.9375H24.1217V21.0312H28.5592V37.9375ZM23.9186 16.6562C23.9186 15.9688 24.1373 15.4062 24.5748 14.9688C25.0123 14.5312 25.5957 14.3125 26.3248 14.3125C27.054 14.3125 27.6373 14.5312 28.0748 14.9688C28.5123 15.4062 28.7311 15.9688 28.7311 16.6562C28.7311 17.3333 28.5123 17.8958 28.0748 18.3438C27.6477 18.7917 27.0644 19.0156 26.3248 19.0156C25.5852 19.0156 24.9967 18.7917 24.5592 18.3438C24.1321 17.8958 23.9186 17.3333 23.9186 16.6562Z" fill="black"/>
<path d="M28.5592 37.9375V38.1375H28.7592V37.9375H28.5592ZM24.1217 37.9375H23.9217V38.1375H24.1217V37.9375ZM24.1217 21.0312V20.8313H23.9217V21.0312H24.1217ZM28.5592 21.0312H28.7592V20.8313H28.5592V21.0312ZM28.0748 18.3438L27.9317 18.204L27.9301 18.2057L28.0748 18.3438ZM24.5592 18.3438L24.4144 18.4818L24.4161 18.4835L24.5592 18.3438ZM28.5592 37.7375H24.1217V38.1375H28.5592V37.7375ZM24.3217 37.9375V21.0312H23.9217V37.9375H24.3217ZM24.1217 21.2312H28.5592V20.8313H24.1217V21.2312ZM28.3592 21.0312V37.9375H28.7592V21.0312H28.3592ZM24.1186 16.6562C24.1186 16.0153 24.3206 15.5058 24.7162 15.1102L24.4334 14.8273C23.9541 15.3067 23.7186 15.9222 23.7186 16.6562H24.1186ZM24.7162 15.1102C25.1096 14.7168 25.6385 14.5125 26.3248 14.5125V14.1125C25.5528 14.1125 24.9151 14.3457 24.4334 14.8273L24.7162 15.1102ZM26.3248 14.5125C27.0111 14.5125 27.5401 14.7168 27.9334 15.1102L28.2162 14.8273C27.7346 14.3457 27.0968 14.1125 26.3248 14.1125V14.5125ZM27.9334 15.1102C28.3291 15.5058 28.5311 16.0153 28.5311 16.6562H28.9311C28.9311 15.9222 28.6956 15.3067 28.2162 14.8273L27.9334 15.1102ZM28.5311 16.6562C28.5311 17.2858 28.3296 17.7967 27.9317 18.204L28.2179 18.4835C28.695 17.995 28.9311 17.3809 28.9311 16.6562H28.5311ZM27.9301 18.2057C27.548 18.6064 27.0212 18.8156 26.3248 18.8156V19.2156C27.1076 19.2156 27.7475 18.9769 28.2196 18.4818L27.9301 18.2057ZM26.3248 18.8156C25.6286 18.8156 25.0954 18.6065 24.7023 18.204L24.4161 18.4835C24.898 18.9769 25.5419 19.2156 26.3248 19.2156V18.8156ZM24.7039 18.2057C24.3158 17.7987 24.1186 17.2872 24.1186 16.6562H23.7186C23.7186 17.3795 23.9484 17.993 24.4145 18.4818L24.7039 18.2057Z" fill="black"/>
</svg>
