<svg width="73" height="73" viewBox="0 0 73 73" fill="none" xmlns="http://www.w3.org/2000/svg">
<path fill-rule="evenodd" clip-rule="evenodd" d="M36.8258 12.5682C23.3672 12.5682 12.4569 23.4785 12.4569 36.9371C12.4569 50.3957 23.3672 61.306 36.8258 61.306C50.2843 61.306 61.1947 50.3957 61.1947 36.9371C61.1947 23.4785 50.2843 12.5682 36.8258 12.5682ZM0.814453 36.9371C0.814453 17.0486 16.9373 0.925781 36.8258 0.925781C56.7143 0.925781 72.8371 17.0486 72.8371 36.9371C72.8371 56.8256 56.7143 72.9484 36.8258 72.9484C16.9373 72.9484 0.814453 56.8256 0.814453 36.9371Z" fill="white" fill-opacity="0.3"/>
<path fill-rule="evenodd" clip-rule="evenodd" d="M55.0392 53.1265C58.8685 48.8219 61.1949 43.1506 61.1949 36.9359C61.1949 30.7204 58.8679 25.0483 55.0376 20.7435L63.7386 13.0078C69.3987 19.3693 72.8373 27.751 72.8373 36.9359C72.8373 46.1199 69.3993 54.5009 63.7402 60.8622L55.0392 53.1265Z" fill="white"/>
</svg>
