<svg width="129" height="129" viewBox="0 0 129 129" fill="none" xmlns="http://www.w3.org/2000/svg">
<path d="M64.5164 128.64L19.2616 109.895L0.516432 64.6397L19.2616 19.3848L64.5164 0.639681L109.771 19.3849L128.516 64.6397L109.771 109.895L64.5164 128.64Z" fill="white"/>
<path d="M89.3796 33.9038C88.9476 33.9339 88.5297 34.0698 88.1628 34.2996C87.7958 34.5294 87.4911 34.8459 87.2754 35.2214L59.9798 83.6567L40.8639 65.938C39.7819 64.9508 38.16 64.9027 37.1248 65.938L35.009 68.0517C34.7627 68.2969 34.5673 68.5883 34.434 68.9092C34.3006 69.2301 34.232 69.5742 34.232 69.9216C34.232 70.2691 34.3006 70.6132 34.434 70.9341C34.5673 71.255 34.7627 71.5464 35.009 71.7915L59.3746 94.7174C59.4605 94.8039 59.5539 94.8602 59.6522 94.9042C60.7211 95.5568 62.7332 95.4977 63.4043 94.334L94.4445 39.3603C94.6189 39.0599 94.7322 38.7279 94.7779 38.3836C94.8237 38.0392 94.801 37.6892 94.7111 37.3537C94.6212 37.0181 94.466 36.7037 94.2542 36.4283C94.0425 36.1529 93.7784 35.922 93.4773 35.749L90.8867 34.2528C90.4308 33.9884 89.906 33.8668 89.3802 33.9038H89.3796Z" fill="black"/>
</svg>
