<svg width="129" height="129" viewBox="0 0 129 129" fill="none" xmlns="http://www.w3.org/2000/svg">
<path d="M64.8834 128.64L19.6286 109.895L0.883436 64.6397L19.6286 19.3848L64.8834 0.639681L110.138 19.3849L128.883 64.6397L110.138 109.895L64.8834 128.64Z" fill="white"/>
<path d="M82.3422 92.4565H47.9086V84.43L63.7208 64.3237C65.7274 61.5412 67.1989 59.1065 68.1353 57.0196C69.0985 54.9059 69.5801 52.8859 69.5801 50.9596C69.5801 48.3643 69.1253 46.331 68.2156 44.8594C67.3327 43.3879 66.0484 42.6521 64.3629 42.6521C62.5168 42.6521 61.0453 43.5083 59.9483 45.2206C58.8781 46.9329 58.343 49.3409 58.343 52.4445H46.9454C46.9454 48.8593 47.6812 45.5818 49.1527 42.612C50.651 39.6422 52.7378 37.3413 55.4133 35.7092C58.1156 34.0504 61.1657 33.221 64.5635 33.221C69.7808 33.221 73.8208 34.6658 76.6835 37.5553C79.5731 40.4181 81.0178 44.4982 81.0178 49.7957C81.0178 53.0866 80.2152 56.431 78.6099 59.8288C77.0313 63.2 74.1552 67.3604 69.9814 72.31L62.4766 83.0254H82.3422V92.4565Z" fill="black"/>
</svg>
