<svg width="18" height="17" viewBox="0 0 18 17" fill="none" xmlns="http://www.w3.org/2000/svg">
<path fill-rule="evenodd" clip-rule="evenodd" d="M9.02462 16.4002C13.4911 16.4002 17.112 12.7793 17.112 8.31282C17.112 3.8463 13.4911 0.225464 9.02462 0.225464C4.55809 0.225464 0.937256 3.8463 0.937256 8.31282C0.937256 12.7793 4.55809 16.4002 9.02462 16.4002ZM7.54027 5.55574C7.54027 6.26633 6.96423 6.84238 6.25364 6.84238C5.54305 6.84238 4.96701 6.26633 4.96701 5.55574C4.96701 4.84516 5.54305 4.26911 6.25364 4.26911C6.96423 4.26911 7.54027 4.84516 7.54027 5.55574ZM12.1354 6.84238C12.846 6.84238 13.422 6.26633 13.422 5.55574C13.422 4.84516 12.846 4.26911 12.1354 4.26911C11.4248 4.26911 10.8488 4.84516 10.8488 5.55574C10.8488 6.26633 11.4248 6.84238 12.1354 6.84238ZM4.96703 9.04811H13.0544C13.2566 9.04811 13.422 9.21353 13.422 9.41572C13.422 11.8493 11.4443 13.827 9.01073 13.827C6.57716 13.827 4.59942 11.8493 4.59942 9.41572C4.59942 9.21353 4.76485 9.04811 4.96703 9.04811Z" fill="white"/>
</svg>
