<svg width="33" height="26" viewBox="0 0 33 26" fill="none" xmlns="http://www.w3.org/2000/svg">
<path d="M28.7507 15.3127H28.6536C28.4594 15.3127 28.2653 15.3127 28.0711 15.4098C28.0711 15.4098 28.0711 15.5068 28.0711 15.6039L28.4594 16.1864C28.6536 16.5747 29.2361 16.2835 29.0419 15.8952L28.7507 15.3127ZM18.3631 15.0214L20.5959 19.0988L18.3631 18.5163C20.1105 20.7491 21.7609 23.0791 23.5083 25.3119L13.5091 17.0601C14.577 17.0601 15.0624 17.0601 16.3244 17.0601L14.6741 15.4098C10.7909 15.5068 7.10185 15.0214 5.64565 14.1477C1.27705 15.0214 -1.05286 11.7207 2.92741 9.48788C2.83033 6.76965 5.54857 4.92513 7.97556 5.89593C9.33468 3.37185 12.2471 1.91565 15.1595 2.59521C19.1397 -0.705502 25.0616 -0.123023 28.3623 3.95433C34.8667 4.73097 35.4492 15.8952 21.0813 14.2448C20.2076 14.536 19.3339 14.8273 18.3631 15.0214ZM4.86901 21.2345C5.16025 21.6229 5.74273 21.3316 5.54857 20.9433L5.16025 20.3608C4.96609 19.9725 4.38361 20.2637 4.57777 20.6521L4.86901 21.2345ZM3.02449 17.6426C3.21865 18.0309 3.80113 17.7397 3.60697 17.3514L3.21865 16.7689C3.02449 16.3806 2.44201 16.6718 2.63617 17.0601L3.02449 17.6426ZM10.7909 21.2345C10.985 21.6229 11.5675 21.3316 11.3734 20.9433L11.0821 20.3608C10.7909 19.9725 10.2084 20.2637 10.4026 20.6521L10.7909 21.2345ZM8.84928 17.6426C9.04344 18.0309 9.62592 17.7397 9.43176 17.3514L9.14052 16.7689C8.84928 16.3806 8.2668 16.6718 8.55804 17.0601L8.84928 17.6426ZM16.6157 21.2345C16.8098 21.6229 17.3923 21.3316 17.1982 20.9433L16.9069 20.3608C16.7128 19.9725 16.0332 20.2637 16.3244 20.6521L16.6157 21.2345ZM22.4405 21.2345C22.6346 21.6229 23.3142 21.3316 23.0229 20.9433L22.7317 20.3608C22.5375 19.9725 21.9551 20.2637 22.1492 20.6521L22.4405 21.2345ZM20.4989 17.6426C20.7901 18.0309 21.3726 17.7397 21.0813 17.3514L20.7901 16.7689C20.5959 16.3806 20.0135 16.6718 20.2076 17.0601L20.4989 17.6426ZM28.3623 21.2345C28.5565 21.6229 29.139 21.3316 28.9448 20.9433L28.5565 20.3608C28.3623 19.9725 27.7799 20.2637 27.974 20.6521L28.3623 21.2345ZM26.4207 17.6426C26.6149 18.0309 27.1974 17.7397 27.0032 17.3514L26.6149 16.7689C26.4207 16.3806 25.8383 16.6718 26.0324 17.0601L26.4207 17.6426ZM7.00477 19.7783C7.19893 20.1667 7.7814 19.8754 7.58725 19.4871L7.29601 18.9046C7.10185 18.5163 6.42229 18.8076 6.71353 19.1959L7.00477 19.7783ZM5.06317 16.2835C5.25733 16.5747 5.83981 16.3806 5.64565 15.9922C5.35441 15.8952 5.06317 15.7981 4.77193 15.701L5.06317 16.2835ZM13.5091 20.9433C13.7033 21.3316 14.2858 21.0404 14.0916 20.6521L13.8004 20.0696C13.5091 19.6813 12.9266 19.9725 13.1208 20.3608L13.5091 20.9433ZM11.5675 17.4484C11.7617 17.8368 12.3442 17.4484 12.15 17.0601L11.9558 16.6718C11.6646 16.6718 11.4704 16.6718 11.1792 16.6718C11.1792 16.7689 11.1792 16.7689 11.2763 16.866L11.5675 17.4484ZM24.4791 19.6813C24.6733 20.0696 25.3529 19.7783 25.0616 19.39L24.7704 18.8076C24.5762 18.4192 23.9937 18.7105 24.1879 19.0988L24.4791 19.6813ZM22.5375 16.1864C22.8288 16.5747 23.4113 16.2835 23.12 15.8952L23.0229 15.5068C22.7317 15.5068 22.4405 15.5068 22.2463 15.4098C22.2463 15.5068 22.2463 15.5068 22.2463 15.6039L22.5375 16.1864ZM30.401 19.7783C30.5952 20.1667 31.1776 19.7783 30.9835 19.39L30.5952 18.8076C30.401 18.4192 29.8185 18.8076 30.0127 19.1959L30.401 19.7783Z" fill="white"/>
</svg>
