<svg width="31" height="31" viewBox="0 0 31 31" fill="none" xmlns="http://www.w3.org/2000/svg">
<path d="M6.99362 0.706055C5.4009 0.706055 3.87342 1.3498 2.7472 2.49568C1.62098 3.64156 0.988281 5.19571 0.988281 6.81623C0.990602 7.70611 1.18394 8.58474 1.55477 9.39068C1.92463 9.21038 2.3295 9.11636 2.73976 9.11549C3.46965 9.11549 4.16964 9.40999 4.68575 9.9342C5.20186 10.4584 5.49181 11.1694 5.49181 11.9108C5.49131 12.1763 5.45358 12.4403 5.37974 12.695C5.90487 12.8464 6.44782 12.9242 6.99362 12.9264C7.53923 12.9244 8.08203 12.8467 8.60702 12.6955C8.53314 12.4406 8.49541 12.1764 8.49495 11.9108C8.49495 11.1694 8.7849 10.4584 9.30101 9.9342C9.81712 9.40999 10.5171 9.11549 11.247 9.11549C11.6573 9.11666 12.0622 9.21101 12.432 9.39165C12.8031 8.58545 12.9966 7.70648 12.999 6.81623C12.999 5.19571 12.3663 3.64156 11.24 2.49568C10.1138 1.3498 8.58633 0.706055 6.99362 0.706055Z" fill="white"/>
<path d="M4.504 12.4191C4.50388 13.0255 4.2666 13.6071 3.84434 14.0359C3.42208 14.4647 2.8494 14.7057 2.25224 14.7058C1.95647 14.7058 1.6636 14.6466 1.39034 14.5317C1.11709 14.4168 0.868805 14.2483 0.659665 14.0359C0.237289 13.607 0 13.0252 0 12.4186C0.000125631 11.8121 0.23747 11.2304 0.659833 10.8016C1.0822 10.3727 1.65499 10.1318 2.25224 10.1318C2.8494 10.132 3.42208 10.3729 3.84434 10.8017C4.2666 11.2306 4.50388 11.8121 4.504 12.4186V12.4191ZM14 12.4191C13.9999 13.0256 13.7625 13.6072 13.3402 14.0361C12.9178 14.4649 12.345 14.7058 11.7478 14.7058C11.1505 14.7057 10.5778 14.4646 10.1555 14.0357C9.73322 13.6068 9.496 13.0251 9.496 12.4186C9.49612 11.8121 9.7334 11.2306 10.1557 10.8017C10.5779 10.3729 11.1506 10.132 11.7478 10.1318C12.345 10.1318 12.9178 10.3727 13.3402 10.8016C13.7625 11.2304 13.9999 11.8121 14 12.4186V12.4191Z" fill="white"/>
<path d="M6.99362 17.7061C5.4009 17.7061 3.87342 18.3038 2.7472 19.3679C1.62098 20.4319 0.988281 21.875 0.988281 23.3798C0.990602 24.2061 1.18394 25.022 1.55477 25.7704C1.92463 25.6029 2.3295 25.5156 2.73976 25.5148C3.46965 25.5148 4.16964 25.7883 4.68575 26.2751C5.20186 26.7618 5.49181 27.422 5.49181 28.1104C5.49131 28.357 5.45358 28.6022 5.37974 28.8386C5.90487 28.9792 6.44782 29.0515 6.99362 29.0535C7.53923 29.0516 8.08203 28.9795 8.60702 28.8391C8.53314 28.6025 8.49541 28.3571 8.49495 28.1104C8.49495 27.422 8.7849 26.7618 9.30101 26.2751C9.81712 25.7883 10.5171 25.5148 11.247 25.5148C11.6573 25.5159 12.0622 25.6035 12.432 25.7712C12.8031 25.0226 12.9966 24.2064 12.999 23.3798C12.999 21.875 12.3663 20.4319 11.24 19.3679C10.1138 18.3038 8.58633 17.7061 6.99362 17.7061Z" fill="white"/>
<path d="M4.504 28.5828C4.50388 29.146 4.2666 29.686 3.84434 30.0842C3.42208 30.4824 2.8494 30.7061 2.25224 30.7062C1.95647 30.7062 1.6636 30.6513 1.39034 30.5446C1.11709 30.4378 0.868805 30.2814 0.659665 30.0842C0.237289 29.6859 0 29.1457 0 28.5824C0.000125631 28.0192 0.23747 27.4791 0.659833 27.0809C1.0822 26.6827 1.65499 26.459 2.25224 26.459C2.8494 26.4591 3.42208 26.6829 3.84434 27.081C4.2666 27.4792 4.50388 28.0193 4.504 28.5824V28.5828ZM14 28.5828C13.9999 29.146 13.7625 29.6861 13.3402 30.0843C12.9178 30.4825 12.345 30.7062 11.7478 30.7062C11.1505 30.7061 10.5778 30.4823 10.1555 30.084C9.73322 29.6857 9.496 29.1456 9.496 28.5824C9.49612 28.0193 9.7334 27.4792 10.1557 27.081C10.5779 26.6829 11.1506 26.4591 11.7478 26.459C12.345 26.459 12.9178 26.6827 13.3402 27.0809C13.7625 27.4791 13.9999 28.0192 14 28.5824V28.5828Z" fill="white"/>
<path d="M23.9936 0.706055C22.4009 0.706055 20.8734 1.3498 19.7472 2.49568C18.621 3.64156 17.9883 5.19571 17.9883 6.81623C17.9906 7.70611 18.1839 8.58474 18.5548 9.39068C18.9246 9.21038 19.3295 9.11636 19.7398 9.11549C20.4696 9.11549 21.1696 9.40999 21.6858 9.9342C22.2019 10.4584 22.4918 11.1694 22.4918 11.9108C22.4913 12.1763 22.4536 12.4403 22.3797 12.695C22.9049 12.8464 23.4478 12.9242 23.9936 12.9264C24.5392 12.9244 25.082 12.8467 25.607 12.6955C25.5331 12.4406 25.4954 12.1764 25.495 11.9108C25.495 11.1694 25.7849 10.4584 26.301 9.9342C26.8171 9.40999 27.5171 9.11549 28.247 9.11549C28.6573 9.11666 29.0622 9.21101 29.432 9.39165C29.8031 8.58545 29.9966 7.70648 29.999 6.81623C29.999 5.19571 29.3663 3.64156 28.24 2.49568C27.1138 1.3498 25.5863 0.706055 23.9936 0.706055Z" fill="white"/>
<path d="M21.504 12.4191C21.5039 13.0255 21.2666 13.6071 20.8443 14.0359C20.4221 14.4647 19.8494 14.7057 19.2522 14.7058C18.9565 14.7058 18.6636 14.6466 18.3903 14.5317C18.1171 14.4168 17.8688 14.2483 17.6597 14.0359C17.2373 13.607 17 13.0252 17 12.4186C17.0001 11.8121 17.2375 11.2304 17.6598 10.8016C18.0822 10.3727 18.655 10.1318 19.2522 10.1318C19.8494 10.132 20.4221 10.3729 20.8443 10.8017C21.2666 11.2306 21.5039 11.8121 21.504 12.4186V12.4191ZM31 12.4191C30.9999 13.0256 30.7625 13.6072 30.3402 14.0361C29.9178 14.4649 29.345 14.7058 28.7478 14.7058C28.1505 14.7057 27.5778 14.4646 27.1555 14.0357C26.7332 13.6068 26.496 13.0251 26.496 12.4186C26.4961 11.8121 26.7334 11.2306 27.1557 10.8017C27.5779 10.3729 28.1506 10.132 28.7478 10.1318C29.345 10.1318 29.9178 10.3727 30.3402 10.8016C30.7625 11.2304 30.9999 11.8121 31 12.4186V12.4191Z" fill="white"/>
<path d="M23.9936 17.7061C22.4009 17.7061 20.8734 18.3038 19.7472 19.3679C18.621 20.4319 17.9883 21.875 17.9883 23.3798C17.9906 24.2061 18.1839 25.022 18.5548 25.7704C18.9246 25.6029 19.3295 25.5156 19.7398 25.5148C20.4696 25.5148 21.1696 25.7883 21.6858 26.2751C22.2019 26.7618 22.4918 27.422 22.4918 28.1104C22.4913 28.357 22.4536 28.6022 22.3797 28.8386C22.9049 28.9792 23.4478 29.0515 23.9936 29.0535C24.5392 29.0516 25.082 28.9795 25.607 28.8391C25.5331 28.6025 25.4954 28.3571 25.495 28.1104C25.495 27.422 25.7849 26.7618 26.301 26.2751C26.8171 25.7883 27.5171 25.5148 28.247 25.5148C28.6573 25.5159 29.0622 25.6035 29.432 25.7712C29.8031 25.0226 29.9966 24.2064 29.999 23.3798C29.999 21.875 29.3663 20.4319 28.24 19.3679C27.1138 18.3038 25.5863 17.7061 23.9936 17.7061Z" fill="white"/>
<path d="M21.504 28.5828C21.5039 29.146 21.2666 29.686 20.8443 30.0842C20.4221 30.4824 19.8494 30.7061 19.2522 30.7062C18.9565 30.7062 18.6636 30.6513 18.3903 30.5446C18.1171 30.4378 17.8688 30.2814 17.6597 30.0842C17.2373 29.6859 17 29.1457 17 28.5824C17.0001 28.0192 17.2375 27.4791 17.6598 27.0809C18.0822 26.6827 18.655 26.459 19.2522 26.459C19.8494 26.4591 20.4221 26.6829 20.8443 27.081C21.2666 27.4792 21.5039 28.0193 21.504 28.5824V28.5828ZM31 28.5828C30.9999 29.146 30.7625 29.6861 30.3402 30.0843C29.9178 30.4825 29.345 30.7062 28.7478 30.7062C28.1505 30.7061 27.5778 30.4823 27.1555 30.084C26.7332 29.6857 26.496 29.1456 26.496 28.5824C26.4961 28.0193 26.7334 27.4792 27.1557 27.081C27.5779 26.6829 28.1506 26.4591 28.7478 26.459C29.345 26.459 29.9178 26.6827 30.3402 27.0809C30.7625 27.4791 30.9999 28.0192 31 28.5824V28.5828Z" fill="white"/>
</svg>
