<svg width="128" height="128" viewBox="0 0 128 128" fill="none" xmlns="http://www.w3.org/2000/svg">
<ellipse cx="44.3971" cy="54.3301" rx="11.431" ry="6.37496" transform="rotate(30 44.3971 54.3301)" fill="#A97856"/>
<ellipse rx="11.431" ry="6.37496" transform="matrix(-0.866025 0.5 0.5 0.866025 83.9657 54.3301)" fill="#A97856"/>
<ellipse cx="46.577" cy="55.7544" rx="7.95885" ry="4.91822" transform="rotate(30 46.577 55.7544)" fill="#845534"/>
<ellipse rx="7.95885" ry="4.91822" transform="matrix(-0.866025 0.5 0.5 0.866025 81.7858 55.7544)" fill="#845534"/>
<path d="M64.0643 51.8885C77.5404 51.8885 88.465 75.2476 88.465 93.2158C88.465 111.184 77.5404 116.957 64.0643 116.957C50.5881 116.957 39.6636 111.184 39.6636 93.2158C39.6636 75.2476 50.5881 51.8885 64.0643 51.8885Z" fill="#A97856"/>
<path d="M64.0642 90.1359C76.8119 90.1359 87.1459 94.8035 87.1459 102.452C87.1459 110.101 76.8119 117.834 64.0642 117.834C51.3165 117.834 40.9824 110.101 40.9824 102.452C40.9824 94.8035 51.3165 90.1359 64.0642 90.1359Z" fill="#F0BA95"/>
<ellipse cx="63.8441" cy="96.514" rx="11.431" ry="7.25427" fill="#FF3737"/>
<ellipse cx="63.936" cy="93.2466" rx="7.89789" ry="3.26809" fill="#FFABAB"/>
<ellipse cx="57.6891" cy="84.2017" rx="3.51722" ry="3.29739" fill="#353535"/>
<ellipse cx="70.4396" cy="84.2017" rx="3.51722" ry="3.29739" fill="#353535"/>
<path d="M68.2918 54.2666L73.7959 44.4331C66.7726 40.9139 66.8287 31.8066 67.562 29.9172C68.2952 28.0278 74.6785 27.001 73.2967 31.6813C72.1913 35.4255 75.3596 38.0748 77.082 38.9314C78.0956 33.7492 85.8756 26.4869 85.0396 26.1368C84.2035 25.7868 82.9959 22.0445 81.3902 20.9098C79.7844 19.7751 82.6178 12.8694 87.8332 13.6657C93.0486 14.462 87.3355 16.9253 86.7715 20.6196C86.2074 24.3138 92.4579 24.1563 94.9478 23.8693C97.4378 23.5824 103.969 20.132 107.011 20.5965C110.053 21.061 108.922 25.5582 107.887 26.512C107.059 27.275 101.648 27.5609 99.0468 27.6084C97.7822 27.6377 94.4176 27.9245 91.0761 28.8375C86.8991 29.9787 85.9817 31.6177 86.5525 33.7052C87.1233 35.7927 93.9924 35.953 98.2871 35.4969C102.582 35.0407 102.718 37.0629 101.016 39.4715C99.6543 41.3984 91.0882 39.4384 86.9754 38.2175C86.078 37.784 84.0827 37.0643 83.2812 37.6535C82.4796 38.2427 80.523 42.1246 79.6449 43.9919L73.5585 56.1826C73.1582 56.8628 71.8861 58.1066 70.0004 57.6407C68.1146 57.1749 68.0756 55.1972 68.2918 54.2666Z" fill="#5A3922"/>
<path d="M60.695 54.2666L55.1909 44.4331C62.2142 40.9139 62.1581 31.8066 61.4248 29.9172C60.6916 28.0278 54.3083 27.001 55.6901 31.6813C56.7955 35.4255 53.6272 38.0748 51.9048 38.9314C50.8912 33.7492 43.1112 26.4869 43.9473 26.1368C44.7833 25.7868 45.9909 22.0445 47.5966 20.9098C49.2024 19.7751 46.369 12.8694 41.1536 13.6657C35.9382 14.462 41.6513 16.9253 42.2154 20.6196C42.7794 24.3138 36.5289 24.1563 34.039 23.8693C31.549 23.5824 25.0181 20.132 21.9758 20.5965C18.9335 21.061 20.0649 25.5582 21.1 26.512C21.9281 27.275 27.3384 27.5609 29.94 27.6084C31.2046 27.6377 34.5692 27.9245 37.9108 28.8375C42.0877 29.9787 43.0051 31.6177 42.4343 33.7052C41.8635 35.7927 34.9944 35.953 30.6997 35.4969C26.4049 35.0407 26.2689 37.0629 27.9709 39.4715C29.3325 41.3984 37.8986 39.4384 42.0114 38.2175C42.9088 37.784 44.9041 37.0643 45.7056 37.6535C46.5072 38.2427 48.4638 42.1246 49.3419 43.9919L55.4283 56.1826C55.8286 56.8628 57.1007 58.1066 58.9864 57.6407C60.8722 57.1749 60.9112 55.1972 60.695 54.2666Z" fill="#5A3922"/>
</svg>
