<svg width="129" height="128" viewBox="0 0 129 128" fill="none" xmlns="http://www.w3.org/2000/svg">
<mask id="mask0" mask-type="alpha" maskUnits="userSpaceOnUse" x="0" y="0" width="129" height="128">
<rect x="0.865234" width="128" height="128" fill="#C4C4C4"/>
</mask>
<g mask="url(#mask0)">
<path d="M49.1157 90.0444L49.6436 89.3405C56.3307 91.9802 63.7217 91.9802 70.2328 89.3405L70.7608 90.0444C75.3362 96.3796 73.9283 105.178 67.5932 109.754L75.8641 121.192C88.5344 112.041 91.174 94.4438 82.1992 81.9495L81.6713 81.2456C85.8947 76.1423 88.1824 69.8072 88.0064 63.2961C88.0064 62.7681 88.0064 62.0642 88.0064 61.5363L88.8863 61.1844C96.2773 58.8967 104.196 62.9441 106.484 70.3351L119.858 65.9357C115.107 51.1537 99.0929 43.0588 84.3109 47.8102L83.783 47.9861C79.9115 42.003 73.9283 37.6036 67.0653 35.8438V34.9639C67.0653 27.221 73.4004 20.8858 81.1434 20.8858V6.80774C65.6575 6.80774 52.9872 19.478 52.9872 34.9639V35.8438C46.1241 37.6036 40.1409 42.003 36.2695 47.9861L35.3896 47.6342C27.9986 45.1705 23.9511 37.2516 26.4148 29.8606L13.0406 25.4612C8.11329 40.4192 16.2082 56.257 30.9902 61.1844L31.8701 61.5363C31.8701 62.0642 31.8701 62.7681 31.8701 63.2961C31.8701 69.8072 34.1577 76.1423 38.3812 81.2456L37.8532 81.9495C33.2779 88.2847 24.4791 89.6925 18.1439 85.1171L9.87305 96.3796C22.3673 105.354 39.965 102.539 49.1157 90.0444ZM60.0262 49.042C67.7692 49.042 74.1043 55.3771 74.1043 63.1201C74.1043 70.863 67.7692 77.1982 60.0262 77.1982C52.2833 77.1982 45.9481 70.863 45.9481 63.1201C45.9481 55.3771 52.1073 49.042 60.0262 49.042Z" fill="white"/>
</g>
</svg>
