<svg width="129" height="128" viewBox="0 0 129 128" fill="none" xmlns="http://www.w3.org/2000/svg">
<mask id="mask0_2067_14784" style="mask-type:alpha" maskUnits="userSpaceOnUse" x="0" y="0" width="129" height="128">
<rect x="0.826172" width="128" height="128" fill="#C4C4C4"/>
</mask>
<g mask="url(#mask0_2067_14784)">
<path d="M115.203 60.6048C111.742 52.582 105.575 46.966 98.7008 41.7905C96.7501 40.3118 94.4219 38.7072 91.9207 38.487C93.1949 30.6844 91.26 22.4571 87.2329 15.677C85.9901 13.5848 83.2215 14.9534 83.1113 17.0142C82.9698 19.7042 84.4013 27.2865 84.4957 29.9608C82.9226 26.7517 78.1246 18.8232 75.0728 17.5175C70.3535 15.4882 71.5805 22.8346 73.3738 25.7921C77.4167 32.4777 81.5854 39.1005 85.7699 45.6918C76.929 52.1101 69.1422 55.6338 57.863 58.3553C51.5392 59.8812 46.2221 61.5172 41.2668 65.6545C27.5179 62.8701 13.0139 82.6912 13.4858 94.7254C13.5173 95.7165 14.9803 95.8108 15.2005 94.867C16.3489 89.9117 18.331 85.098 21.1783 80.8664C21.4143 80.5203 21.6345 80.127 21.8705 79.7967C22.893 78.3966 23.9941 77.0437 25.2212 75.8167C26.3538 74.6683 27.5651 73.8031 28.7764 72.9694C31.2304 71.4278 33.8418 70.6097 36.6104 70.4052C28.5561 80.7091 27.2819 94.9771 26.0392 107.625C25.174 116.418 29.9247 117.111 32.2687 111.463C36.5318 101.128 38.2936 89.9117 41.141 79.1045C55.4562 81.5113 69.0321 77.673 80.1382 68.2658C82.7181 81.1023 90.9296 94.0018 96.4984 105.501C97.3322 107.232 100.447 107.09 101.123 105.297C104.144 97.4626 100.132 90.9342 96.3568 83.9654C93.2264 78.1764 89.5453 75.9111 88.2554 69.4299C86.8553 62.4453 89.2622 54.9574 90.3791 47.8941C95.6332 52.2988 106.094 61.6116 111.254 63.9083C113.268 64.8207 116.241 63.0117 115.203 60.6048Z" fill="white"/>
</g>
</svg>
