<svg width="128" height="128" viewBox="0 0 128 128" fill="none" xmlns="http://www.w3.org/2000/svg">
<path d="M94.5929 67.279C97.476 67.279 100.599 69.6815 101.801 70.8827C94.9533 56.829 108.258 55.4163 115.766 56.4666C103.512 50.7006 112.162 38.7482 118.018 33.4927C101.08 45.3851 97.1457 37.8473 97.2958 32.5918C92.2504 45.2049 85.5833 43.8535 82.8804 41.6012C84.322 48.0879 81.3788 51.5115 79.7271 52.4124C82.9705 53.1332 85.283 56.9171 86.0338 58.719C91.4396 55.8351 98.7974 48.2077 101.801 44.7544C99.9987 52.3223 90.5386 59.6206 86.0338 62.3238C91.4396 61.9634 93.9923 65.4771 94.5929 67.279Z" fill="#4E9B33"/>
<path fill-rule="evenodd" clip-rule="evenodd" d="M85.0051 43.5847C85.259 47.4433 84.0465 50.1776 82.6515 51.8251C83.6909 52.4585 84.573 53.3123 85.284 54.1667C86.0176 55.0482 86.6164 55.9867 87.0624 56.8164C89.3415 55.3589 91.9343 53.1377 94.3698 50.8035C97.1946 48.0963 99.7269 45.3162 101.187 43.5934L103.339 44.7288C102.366 48.9241 99.3774 52.9055 96.2061 56.1142C94.187 58.1572 92.0338 59.9464 90.1413 61.3448C93.2065 62.2096 95.0294 64.3817 95.8471 66.0779C97.1437 66.2449 98.3926 66.7661 99.4581 67.3627C98.9675 65.4515 98.8802 63.7572 99.1598 62.2623C99.6377 59.707 101.148 57.9379 103.083 56.7851C104.984 55.6528 107.311 55.0975 109.581 54.8808C110.203 54.8213 110.828 54.7867 111.447 54.7735C110.424 53.7631 109.685 52.6468 109.207 51.4424C108.253 49.0411 108.417 46.4873 109.147 44.0859C109.75 42.1032 110.759 40.1546 111.946 38.3584C110.616 39.0304 109.389 39.5442 108.257 39.9175C105.38 40.8671 103.037 40.9334 101.177 40.2801C99.0764 39.5421 97.8269 38.0016 97.1398 36.2876C94.9653 40.3996 92.5304 42.6124 90.0979 43.5193C88.2151 44.2213 86.4555 44.0963 85.0051 43.5847ZM89.2472 41.1154C91.3759 40.3218 94.08 37.855 96.5141 31.6094L98.9162 32.1208C98.8476 34.587 99.7198 37.0648 101.984 37.8604C103.173 38.278 104.936 38.3272 107.495 37.4827C110.053 36.6385 113.323 34.9277 117.452 31.9524L119 33.9508C116.176 36.5523 112.777 40.7334 111.526 44.8479C110.908 46.8789 110.844 48.7899 111.514 50.4771C112.179 52.1507 113.644 53.8015 116.47 55.1665L115.767 57.59C113.99 57.3349 111.873 57.2305 109.812 57.4274C107.737 57.6255 105.805 58.1206 104.334 58.9971C102.897 59.8532 101.924 61.0513 101.607 62.7445C101.28 64.4925 101.616 66.9641 103.247 70.3996L101.246 71.8639C100.722 71.326 99.7368 70.4809 98.5596 69.7785C97.3647 69.0654 96.1053 68.5797 94.9973 68.5797H94.0994L93.8154 67.7053C93.3592 66.3007 91.2747 63.2272 86.6141 63.5461L85.8901 61.1736C88.0439 59.8471 91.4164 57.3691 94.4569 54.2928C94.7713 53.9747 95.0806 53.6517 95.3834 53.3245C92.6851 55.8563 89.7189 58.3141 87.1176 59.7385L85.9083 60.4007L85.3812 59.1021C85.054 58.2961 84.3614 56.9958 83.3894 55.8278C82.4053 54.6454 81.2501 53.7357 80.0227 53.4558L76.7817 52.7166L79.6964 51.0848C80.8037 50.4649 83.5113 47.584 82.1959 41.5086L81.4034 37.8486L84.2097 40.2488C85.2831 41.1669 87.1438 41.8996 89.2472 41.1154Z" fill="#024A05"/>
<path d="M46.0647 56.4231C52.2642 54.281 61.1076 60.5885 64.7543 64.0099C65.4837 52.9421 59.5881 41.5471 56.5491 37.2331C63.478 40.8034 66.7297 50.6216 67.4894 55.0844C68.5834 51.5142 73.4154 50.3241 75.6946 50.1753L80.7089 45.2662C74.5094 46.3373 70.5284 45.7125 69.3128 45.2662C72.2302 40.2678 73.2634 32.1753 73.4154 28.7538C63.9338 35.8943 55.4855 25.7786 52.4465 19.8281C56.0933 36.9654 47.2803 39.167 42.418 38.1257C52.6289 43.4811 49.1037 52.5554 46.0647 56.4231Z" fill="#4E9B33"/>
<path fill-rule="evenodd" clip-rule="evenodd" d="M51.6988 19.6765L54.0634 18.8457C55.5103 21.7452 58.2253 25.6009 61.6124 27.8448C63.29 28.9561 65.0782 29.6368 66.9275 29.6692C68.7583 29.7013 70.7669 29.1006 72.9144 27.4454L75.0619 25.7902L74.9439 28.51C74.8659 30.3071 74.5649 33.289 73.9158 36.4718C73.3845 39.0768 72.6064 41.8856 71.4889 44.3047C73.244 44.5628 76.3644 44.6868 80.6802 43.9236L84.6361 43.2242L76.4931 51.3833L76.021 51.4148C75.0211 51.4816 73.4233 51.79 71.9809 52.4806C70.5288 53.1759 69.4242 54.1611 69.028 55.4844L66.5733 55.3275C66.2161 53.1804 65.26 49.6892 63.5679 46.3128C63.1073 45.3936 62.5979 44.4946 62.0385 43.6397C62.5926 44.8768 63.1348 46.2039 63.6386 47.5998C65.4179 52.5293 66.7489 58.3994 66.3729 64.2381L66.198 66.9548L64.2409 65.0756C62.5046 63.4084 59.5124 61.0243 56.2372 59.3327C52.9009 57.6097 49.5912 56.77 47.0391 57.6725L43.0101 59.0973L45.6212 55.6962C47.0135 53.8826 48.4832 50.8749 48.4697 47.7795C48.4569 44.8136 47.0879 41.573 42.418 39.0663L43.281 36.7029C45.4181 37.1713 48.27 36.8735 50.1939 34.7312C52.1216 32.5848 53.4711 28.2004 51.6988 19.6765ZM54.9918 24.9942C55.3316 30.4706 54.1374 34.1312 52.0677 36.4358C50.6173 38.0507 48.8365 38.8912 47.0848 39.2372C49.8976 41.7902 50.9826 44.8078 50.9955 47.7684C51.0067 50.3479 50.2056 52.7966 49.1885 54.7633C51.9594 54.7284 54.8506 55.7594 57.3903 57.0711C59.8327 58.3325 62.1088 59.9357 63.8999 61.399C63.7791 56.9029 62.6903 52.4176 61.2646 48.4677C59.557 43.7368 57.3966 39.8576 55.956 37.7647L57.5803 35.9151C61.3424 37.8991 64.0135 41.5573 65.823 45.168C66.9876 47.4917 67.8282 49.861 68.3857 51.8876C69.1411 51.1581 70.025 50.6021 70.8958 50.1851C72.4624 49.4351 74.1354 49.0588 75.3698 48.9218L77.3661 46.9215C73.1777 47.2743 70.3489 46.805 69.1813 46.3662L67.7866 45.8422L68.5277 44.5428C69.8728 42.1841 70.817 39.0232 71.4416 35.9606C71.815 34.13 72.067 32.371 72.2244 30.8967C70.4241 31.8338 68.6324 32.2415 66.8835 32.2109C64.433 32.168 62.1845 31.267 60.2238 29.9681C58.2103 28.6343 56.4438 26.8443 54.9918 24.9942Z" fill="#024A05"/>
<path d="M39.9382 57.1367C43.2379 62.8787 60.2562 66.1085 68.3528 67.0057C47.4542 73.4654 38.5633 85.8464 36.7302 91.2295C43.6963 82.2577 60.7145 74.9308 68.3528 72.3888C70.5526 84.5904 65.9086 95.7154 63.3116 99.7527C54.5122 90.0632 44.674 101.996 40.8549 109.173C40.8549 94.1005 21.6062 99.3041 11.9819 103.79C30.6806 89.0763 24.0505 77.3232 18.3981 73.2859C23.7302 73.9818 37.6468 73.2859 41.7714 72.3888C38.105 68.4412 39.0216 60.5759 39.9382 57.1367Z" fill="#4E9B33"/>
<path fill-rule="evenodd" clip-rule="evenodd" d="M38.7913 53.209L40.3204 55.9695C40.9496 57.1054 42.3362 58.264 44.415 59.3733C46.4587 60.4637 49.0113 61.4233 51.7553 62.2441C57.2403 63.8848 63.3263 64.9232 67.2468 65.374L67.485 67.8532C54.9467 71.8741 46.9631 78.1597 42.3178 83.5521C44.95 81.5677 47.8501 79.7501 50.7345 78.1402C56.7714 74.7707 62.8882 72.2298 66.6983 70.9143L68.0897 70.4339L68.3443 71.899C70.5706 84.7113 65.8898 96.3547 63.2241 100.654L62.3306 102.095L61.2159 100.822C59.2277 98.5503 57.2981 97.6673 55.5228 97.5579C53.7149 97.4466 51.855 98.1243 50.0137 99.3874C46.3009 101.934 43.0696 106.586 41.2392 110.154L38.8636 109.568C38.8636 106.011 37.7821 103.871 36.2259 102.581C34.6219 101.252 32.2993 100.645 29.4929 100.634C23.8673 100.613 16.9859 102.987 12.3329 105.237L11 103.097C20.0039 95.7458 22.6639 89.3409 22.6402 84.4906C22.6164 79.6101 19.8764 75.9379 17.3426 74.0603L18.2531 71.7707C20.7482 72.1085 25.3714 72.1148 29.9431 71.9121C33.3491 71.7612 36.6148 71.4993 38.8472 71.1982C37.7004 69.0872 37.2675 66.5522 37.178 64.211C37.0601 61.1259 37.5289 58.1233 38.0046 56.2718L38.7913 53.209ZM39.9546 59.4164C39.7546 60.8201 39.63 62.4581 39.6932 64.1125C39.8016 66.9493 40.4527 69.5873 41.9542 71.2646L43.4058 72.8862L41.2954 73.3624C39.151 73.8464 34.6235 74.2541 30.0532 74.4566C27.0963 74.5877 24.0372 74.6367 21.5041 74.5549C23.5126 76.9756 25.1371 80.3552 25.1573 84.478C25.1799 89.1282 23.1621 94.4994 17.7396 100.298C21.5245 99.0254 25.7205 98.0728 29.5025 98.0875C32.5985 98.0994 35.5882 98.7603 37.8208 100.611C39.3025 101.839 40.3616 103.515 40.9218 105.668C42.8862 102.617 45.5491 99.373 48.6013 97.2793C50.7212 95.8251 53.1279 94.8588 55.6757 95.0157C57.8146 95.1475 59.9087 96.0617 61.8892 97.8862C64.2451 93.3438 67.4317 84.0562 66.0926 73.8332C62.3949 75.2033 57.1397 77.4738 51.9503 80.3703C46.0247 83.6777 40.332 87.7212 37.078 92.0692L34.8803 90.899C36.6663 85.4577 44.4652 74.1514 61.8781 67.1689C58.5165 66.594 54.6614 65.7692 51.0418 64.6865C48.2131 63.8404 45.4873 62.8248 43.2409 61.6261C42.0199 60.9746 40.8891 60.2424 39.9546 59.4164Z" fill="#024A05"/>
<path d="M83.6548 61.0635C83.6548 65.4015 79.9184 68.9181 75.3093 68.9181C70.7003 68.9181 66.9639 65.4015 66.9639 61.0635C66.9639 56.7256 70.7003 53.209 75.3093 53.209C79.9184 53.209 83.6548 56.7256 83.6548 61.0635Z" fill="#DA3535"/>
<path fill-rule="evenodd" clip-rule="evenodd" d="M75.3093 66.4635C78.4781 66.4635 81.0468 64.0459 81.0468 61.0635C81.0468 58.0812 78.4781 55.6635 75.3093 55.6635C72.1406 55.6635 69.5718 58.0812 69.5718 61.0635C69.5718 64.0459 72.1406 66.4635 75.3093 66.4635ZM75.3093 68.9181C79.9184 68.9181 83.6548 65.4015 83.6548 61.0635C83.6548 56.7256 79.9184 53.209 75.3093 53.209C70.7003 53.209 66.9639 56.7256 66.9639 61.0635C66.9639 65.4015 70.7003 68.9181 75.3093 68.9181Z" fill="#7C0000"/>
<path d="M95.4361 70.8819C95.4361 75.2198 91.9195 78.7364 87.5816 78.7364C83.2437 78.7364 79.7271 75.2198 79.7271 70.8819C79.7271 66.5439 83.2437 63.0273 87.5816 63.0273C91.9195 63.0273 95.4361 66.5439 95.4361 70.8819Z" fill="#DA3535"/>
<path fill-rule="evenodd" clip-rule="evenodd" d="M87.5816 76.2027C90.5202 76.2027 92.9024 73.8205 92.9024 70.8819C92.9024 67.9433 90.5202 65.5611 87.5816 65.5611C84.643 65.5611 82.2608 67.9433 82.2608 70.8819C82.2608 73.8205 84.643 76.2027 87.5816 76.2027ZM87.5816 78.7364C91.9195 78.7364 95.4361 75.2198 95.4361 70.8819C95.4361 66.5439 91.9195 63.0273 87.5816 63.0273C83.2437 63.0273 79.7271 66.5439 79.7271 70.8819C79.7271 75.2198 83.2437 78.7364 87.5816 78.7364Z" fill="#7C0000"/>
<path d="M84.6365 77.7557C84.6365 83.1781 80.4605 87.5739 75.3092 87.5739C70.1579 87.5739 65.9819 83.1781 65.9819 77.7557C65.9819 72.3333 70.1579 67.9375 75.3092 67.9375C80.4605 67.9375 84.6365 72.3333 84.6365 77.7557Z" fill="#DA3535"/>
<path fill-rule="evenodd" clip-rule="evenodd" d="M75.3092 85.0564C79.1397 85.0564 82.2449 81.7877 82.2449 77.7557C82.2449 73.7236 79.1397 70.455 75.3092 70.455C71.4787 70.455 68.3735 73.7236 68.3735 77.7557C68.3735 81.7877 71.4787 85.0564 75.3092 85.0564ZM75.3092 87.5739C80.4605 87.5739 84.6365 83.1781 84.6365 77.7557C84.6365 72.3333 80.4605 67.9375 75.3092 67.9375C70.1579 67.9375 65.9819 72.3333 65.9819 77.7557C65.9819 83.1781 70.1579 87.5739 75.3092 87.5739Z" fill="#7C0000"/>
</svg>
