<svg width="128" height="128" viewBox="0 0 128 128" fill="none" xmlns="http://www.w3.org/2000/svg">
<path d="M48.2575 72.7475C50.1534 66.6223 58.5491 43.4655 62.985 31.373L92.5447 40.4357C87.805 51.3128 80.6804 70.9865 90.1598 74.7783C102.009 79.518 106.775 84.9615 102.4 95.717C98.8998 104.321 84.6746 101.845 78.1544 99.7276C73.4754 98.2084 62.1486 94.368 54.2733 91.1596C44.4292 87.1491 45.8876 80.404 48.2575 72.7475Z" fill="#DB1F1F"/>
<rect x="60.8848" y="15" width="44.0509" height="24.4084" rx="5" transform="rotate(17.018 60.8848 15)" fill="#DADADA"/>
<path d="M26.7414 83.1792C28.6373 77.054 37.033 53.8971 41.4689 41.8047L71.0286 50.8673C66.2889 61.7444 59.1642 81.4181 68.6437 85.2099C80.4931 89.9497 85.259 95.3931 80.8838 106.149C77.3837 114.753 63.1584 112.276 56.6383 110.159C51.9593 108.64 40.6325 104.8 32.7572 101.591C22.9131 97.5807 24.3715 90.8357 26.7414 83.1792Z" fill="#FD3A3A"/>
<rect x="39.3687" y="25.4316" width="44.0509" height="24.4084" rx="5" transform="rotate(17.018 39.3687 25.4316)" fill="white"/>
</svg>
