<svg width="128" height="128" viewBox="0 0 128 128" fill="none" xmlns="http://www.w3.org/2000/svg">
<mask id="mask0_1768_1001" style="mask-type:alpha" maskUnits="userSpaceOnUse" x="0" y="0" width="128" height="128">
<rect width="128" height="128" fill="#C4C4C4"/>
</mask>
<g mask="url(#mask0_1768_1001)">
<path fill-rule="evenodd" clip-rule="evenodd" d="M91.4872 90.6195C90.4067 90.1254 89.2821 89.7211 88.0913 89.519C87.6503 89.4516 87.2754 89.4067 86.9226 89.3618C84.504 89.0985 73.7845 88.0008 66.1274 84.1706C63.2922 82.7524 61.0201 80.3424 59.7611 77.3919C57.374 71.7976 58.1562 67.1403 59.5016 64.2512C60.1979 62.7558 61.4972 62.0662 63.1219 62.0358C64.3278 62.0133 65.8053 61.5445 66.7634 60.7982C67.4003 60.3022 67.9524 59.9024 68.353 59.626C68.9483 59.1993 69.5217 58.7501 70.0509 58.2336C74.1525 54.3257 90.0956 38.2451 90.5587 23.8488C90.9115 12.5744 78.8494 6.51051 71.1535 3.79297C67.4489 2.49035 63.3914 2.80478 59.9073 4.64641L37.0842 16.7743C32.5857 19.1549 29.697 23.8039 29.4765 28.9695L27.999 62.5457C27.999 69.3683 31.2408 75.595 34.903 81.3078C43.4511 94.6423 54.6523 107.048 69.1051 112.876C94.2436 123.005 99.999 105.397 99.999 103.803C99.977 99.1314 97.7277 94.9316 94.2436 92.259L91.4872 90.6195ZM52.1452 25.5782C49.6755 27.0156 48.0657 29.6208 47.8893 32.5405L47.1175 46.1282C46.6765 53.6519 55.2765 58.0314 60.9437 53.2027C70.4037 45.14 80.3709 34.2474 77.4602 25.96C73.5791 14.8428 59.2237 21.4682 52.1452 25.5782Z" fill="white"/>
</g>
</svg>
