<svg width="128" height="128" viewBox="0 0 128 128" fill="none" xmlns="http://www.w3.org/2000/svg">
<mask id="mask0_1154_10035" style="mask-type:alpha" maskUnits="userSpaceOnUse" x="0" y="0" width="128" height="128">
<rect width="128" height="128" fill="#C4C4C4"/>
</mask>
<g mask="url(#mask0_1154_10035)">
<path d="M63.5 9C33.4371 9 9 33.4371 9 63.5C9 93.5629 33.4371 118 63.5 118C93.5629 118 118 93.5629 118 63.5C118 33.4371 93.5629 9 63.5 9ZM105.166 49.6113C93.2113 41.1726 76.8613 42.579 66.4887 52.9516L63.5 56.1161L60.6871 53.3032C52.9516 45.7435 52.9516 33.4371 60.5113 25.7016C63.3242 22.8887 66.8403 20.9548 70.7081 20.2516C86.7065 22.7129 100.068 34.1403 105.166 49.6113ZM50.1387 21.6581C41.3484 33.6129 42.7548 50.1387 53.3032 60.6871L56.1161 63.5L52.9516 66.4887C45.2161 74.2242 32.9097 74.0484 25.1742 66.4887C23.0645 64.379 21.3065 61.5661 20.4274 58.5774C20.2516 58.05 20.0758 57.6984 20.0758 57.171C22.5371 40.6452 34.1403 26.7565 50.1387 21.6581ZM21.8339 77.3887C33.7887 85.8274 50.1387 84.421 60.5113 74.0484L63.5 71.0597L66.6645 74.2242C74.4 81.9597 74.2242 94.2661 66.6645 102.002C64.379 104.287 61.7419 105.869 58.7532 106.748L57.5226 107.1C40.9968 104.815 27.1081 93.2113 21.8339 77.3887ZM77.7403 104.99C86.0032 93.0355 84.421 76.8613 74.2242 66.6645L70.8839 63.5L74.0484 60.5113C81.7839 52.7758 94.0903 52.9516 101.826 60.5113C103.935 62.621 105.342 64.9065 106.397 67.7194C106.748 68.4226 106.924 69.3016 107.1 70.1806C104.463 86.179 93.2113 99.7161 77.7403 104.99Z" fill="white"/>
</g>
</svg>
