<svg width="129" height="128" viewBox="0 0 129 128" fill="none" xmlns="http://www.w3.org/2000/svg">
<mask id="mask0_2067_14793" style="mask-type:alpha" maskUnits="userSpaceOnUse" x="0" y="0" width="129" height="128">
<rect x="0.433594" width="128" height="128" fill="#C4C4C4"/>
</mask>
<g mask="url(#mask0_2067_14793)">
<path fill-rule="evenodd" clip-rule="evenodd" d="M95.8948 67.5608C88.7685 73.8768 78.2582 78.1445 67.0476 79.2725C66.0924 79.3651 65.1372 79.3651 64.1768 79.4157C62.848 72.8413 57.0488 67.8943 50.0832 67.8943C45.0682 67.8943 40.6608 70.4717 38.0903 74.3657C30.3075 70.3565 25.0847 64.3565 24.4001 57.5289C23.5655 49.217 29.4571 42.6425 33.0334 39.4679C40.1596 33.1519 50.6752 28.8842 61.8806 27.7614C63.8939 27.5536 65.9248 27.4558 67.9207 27.4558C87.2074 27.4558 103.29 37.1368 104.528 49.4981C105.363 57.8118 99.478 64.3862 95.8948 67.5608ZM115.976 48.3491C114.095 29.5565 93.2388 15.9536 67.9224 15.9536C65.5581 15.9536 63.1658 16.0689 60.7386 16.3098C32.2877 19.1631 10.895 38.1338 12.9556 58.6796C14.1692 70.7755 23.2704 80.6992 36.3337 86.2556C36.4542 86.6764 36.5642 87.1008 36.7248 87.5041L20.1359 104.093C17.8921 106.342 17.8921 109.978 20.1359 112.227C21.264 113.35 22.729 113.912 24.2028 113.912C25.6766 113.912 27.1487 113.348 28.2697 112.227L44.8586 95.6379C46.4808 96.277 48.241 96.656 50.0867 96.656C54.7054 96.656 58.7671 94.4418 61.4021 91.0594C63.639 91.0472 65.9056 90.9511 68.2001 90.7189C96.6439 87.8673 118.037 68.8966 115.976 48.3491Z" fill="white"/>
</g>
</svg>
