<svg width="129" height="128" viewBox="0 0 129 128" fill="none" xmlns="http://www.w3.org/2000/svg">
<mask id="mask0_2067_14775" style="mask-type:alpha" maskUnits="userSpaceOnUse" x="0" y="0" width="129" height="128">
<rect x="0.21875" width="128" height="128" fill="#C4C4C4"/>
</mask>
<g mask="url(#mask0_2067_14775)">
<path fill-rule="evenodd" clip-rule="evenodd" d="M54.8492 23.4525C54.6773 23.5702 54.5021 23.6908 54.3238 23.8135C52.6479 24.9672 50.6988 26.3089 48.6573 27.1606C46.279 28.1608 43.6317 28.6238 41.3031 29.0202C36.8966 29.8266 33.8833 30.4823 31.8136 32.5004C29.7827 34.5832 29.0812 37.6768 28.277 42.0196L28.275 42.0305L28.2729 42.0414C28.2457 42.1834 28.2184 42.327 28.1907 42.4719C27.7775 44.642 27.3045 47.1262 26.3717 49.344C25.52 51.3855 24.1783 53.3346 23.0247 55.0106C22.8977 55.1951 22.773 55.3762 22.6515 55.5538L22.6365 55.5758L22.6211 55.5975C20.0417 59.2517 18.2867 61.9363 18.2867 65.031C18.2867 68.1196 20.0408 70.8115 22.6064 74.3927L22.6293 74.4247L22.6515 74.4571C22.7249 74.5644 22.7991 74.6728 22.8742 74.7822C24.0808 76.5427 25.4781 78.5813 26.3601 80.6393L26.3646 80.65L26.3691 80.6606C27.3036 82.88 27.7771 85.3669 28.1907 87.539C28.2183 87.684 28.2457 87.8275 28.2729 87.9696L28.2757 87.9843L28.2784 87.9991C29.0941 92.4584 29.7499 95.4818 31.7914 97.4888C33.8601 99.5224 36.9192 100.178 41.307 100.991C43.6351 101.388 46.2813 101.851 48.6585 102.851C50.6995 103.703 52.6482 105.044 54.3238 106.197C54.5083 106.324 54.6894 106.449 54.867 106.571L54.8787 106.579L54.8902 106.587C57.9836 108.739 60.8428 109.864 64.2932 109.864C67.7639 109.864 70.7399 108.723 73.8397 106.66C74.0114 106.543 74.1864 106.422 74.3645 106.299C76.0407 105.146 77.9901 103.804 80.0319 102.952C82.4099 101.952 85.0569 101.489 87.3853 101.093C91.7917 100.286 94.8051 99.6307 96.8747 97.6126C98.9056 95.5298 99.6072 92.4362 100.411 88.0933L100.413 88.0825L100.415 88.0716C100.443 87.9296 100.47 87.786 100.498 87.641C100.911 85.4712 101.384 82.9873 102.316 80.7697C103.168 78.7279 104.51 76.7785 105.664 75.1024C105.791 74.9179 105.915 74.7368 106.037 74.5591L106.052 74.5372L106.067 74.5155C108.647 70.8613 110.402 68.1767 110.402 65.082C110.402 62.0354 108.651 59.3635 106.053 55.6281L106.045 55.6165L106.037 55.6049C105.915 55.4272 105.791 55.2461 105.664 55.0616C104.51 53.3855 103.168 51.4362 102.316 49.3946C101.384 47.177 100.911 44.693 100.498 42.5231C100.47 42.378 100.443 42.2344 100.415 42.0924L100.413 42.0776L100.41 42.0628C99.5942 37.6036 98.9385 34.5801 96.8969 32.5732C94.8283 30.5396 91.7691 29.8835 87.3812 29.0706C85.0537 28.6743 82.4082 28.2113 80.0314 27.2117C77.9898 26.36 76.0406 25.0183 74.3646 23.8645C74.1814 23.7384 74.0014 23.6145 73.825 23.4938C70.0553 20.9261 67.4492 19.1776 64.3442 19.1776C61.2609 19.1776 58.6877 20.8933 54.9562 23.3812L54.8492 23.4525ZM51.4849 16.9512C54.67 14.8069 58.9812 11.9045 64.3442 11.9045C69.7831 11.9045 74.1249 14.8817 77.3436 17.0888C77.5406 17.2239 77.7335 17.3561 77.9221 17.4845L77.9283 17.4888C78.0778 17.5911 78.2239 17.6912 78.3668 17.7892C80.2161 19.0565 81.5305 19.9572 82.8347 20.5006L82.8472 20.5058C84.3374 21.1333 86.168 21.4864 88.6279 21.9051L88.6539 21.9095L88.6799 21.9143C88.8385 21.9437 88.9999 21.9734 89.1639 22.0035C92.993 22.7068 98.2101 23.6651 101.996 27.3866C105.82 31.1458 106.777 36.4166 107.48 40.2905C107.508 40.4424 107.535 40.5922 107.562 40.7397L107.576 40.8127C108.051 43.2934 108.394 45.0865 109.022 46.5789L109.028 46.5914C109.571 47.8957 110.472 49.21 111.739 51.0593C111.834 51.1984 111.932 51.3404 112.031 51.4857C112.118 51.6106 112.206 51.7374 112.296 51.8659C114.578 55.1374 117.675 59.5757 117.675 65.082C117.675 70.6961 114.52 75.1579 112.215 78.4189C112.151 78.5096 112.087 78.5993 112.024 78.6881C111.927 78.83 111.832 78.9687 111.739 79.1046C110.472 80.9539 109.571 82.2683 109.028 83.5725L109.022 83.5851C108.394 85.0775 108.051 86.8706 107.576 89.3513L107.563 89.4177C107.562 89.4211 107.562 89.4246 107.561 89.428C107.543 89.5231 107.526 89.619 107.508 89.7159C106.791 93.5993 105.813 98.8952 102.04 102.733L102.018 102.756L101.996 102.777C98.1881 106.52 92.9873 107.466 89.0937 108.174C88.9513 108.2 88.8108 108.226 88.6721 108.251L88.65 108.255L88.6279 108.259C86.1679 108.678 84.3374 109.031 82.8472 109.658L82.8347 109.663C81.5305 110.207 80.2162 111.107 78.3669 112.375C78.224 112.473 78.0779 112.573 77.9283 112.675L77.9102 112.688L77.892 112.7C73.9574 115.323 69.5913 117.137 64.2932 117.137C58.9736 117.137 54.6933 115.307 50.7493 112.566C50.6036 112.466 50.4612 112.368 50.3218 112.273C48.4723 111.006 47.1579 110.105 45.8536 109.561L45.8411 109.556C44.351 108.929 42.5204 108.576 40.0605 108.157L40.0344 108.152L40.0085 108.148C39.8499 108.118 39.6884 108.089 39.5245 108.058C35.6954 107.355 30.4783 106.397 26.6927 102.675C22.8687 98.9162 21.9118 93.6454 21.2085 89.7715C21.1809 89.6196 21.1537 89.4699 21.1268 89.3225L21.1128 89.2496C20.6389 86.7747 20.2961 84.9841 19.6705 83.4938C19.0792 82.1186 18.0559 80.6204 16.6713 78.5967C16.6326 78.5427 16.5936 78.4883 16.5543 78.4336C14.2304 75.1921 11.0137 70.7053 11.0137 65.031C11.0137 59.4169 14.1682 54.955 16.4737 51.6941C16.5379 51.6034 16.6013 51.5136 16.6641 51.4248C16.7611 51.283 16.8562 51.1442 16.9493 51.0084C18.2166 49.1591 19.1173 47.8447 19.6608 46.5404L19.666 46.5279C20.2944 45.0354 20.6378 43.2422 21.1128 40.7613L21.1275 40.6844C21.1451 40.5895 21.1628 40.4937 21.1806 40.3971C21.8977 36.5136 22.8756 31.2178 26.6488 27.3795L26.6706 27.3574L26.6927 27.3356C30.5003 23.5925 35.7011 22.6468 39.5947 21.9387C39.737 21.9128 39.8776 21.8873 40.0163 21.8619L40.0384 21.8578L40.0605 21.8541C42.5204 21.4354 44.351 21.0823 45.8411 20.4548L45.8536 20.4496C47.1579 19.9061 48.4723 19.0054 50.3217 17.7381C50.4645 17.6402 50.6106 17.5401 50.7601 17.4378L50.7781 17.4254L50.7964 17.4133C51.0197 17.2644 51.2492 17.1098 51.4849 16.9512Z" fill="white"/>
<path fill-rule="evenodd" clip-rule="evenodd" d="M64.3415 26.5203C60.1466 26.5203 56.7855 28.8542 54.5471 30.4085C54.4344 30.4867 54.3246 30.563 54.2176 30.6369L54.2084 30.6432L54.1993 30.6496C52.7504 31.6639 51.8634 32.2794 51.0216 32.6277L51.0057 32.6344C50.0722 33.0259 48.9633 33.2301 47.1522 33.5638L47.1501 33.5641L46.9337 33.6006C44.251 34.0522 40.199 34.7344 37.2436 37.6898C34.3105 40.6229 33.5717 44.6427 33.0782 47.3284L33.0354 47.5609L32.9785 47.8622C32.6664 49.5155 32.4717 50.547 32.116 51.3679L32.104 51.3955L32.0925 51.4234C31.7449 52.2634 31.1312 53.1483 30.1208 54.5918L29.9607 54.8172C28.3496 57.0839 25.9405 60.4732 25.9405 64.7432C25.9405 69.0133 28.3496 72.4026 29.9607 74.6693L30.1208 74.8946C31.0986 76.2917 31.7516 77.2685 32.1102 78.1052L32.116 78.1186C32.4717 78.9394 32.6664 79.9709 32.9785 81.6243L33.0369 81.9335L33.0404 81.9521L33.0441 81.9707C33.0771 82.1353 33.1106 82.3066 33.1452 82.4839C33.6538 85.0837 34.4133 88.9665 37.2436 91.7967L37.2574 91.8105L37.2713 91.8242C40.1554 94.6469 44.0988 95.3657 46.7355 95.8464L46.8531 95.8679C46.9451 95.8847 47.0358 95.9012 47.124 95.9175L47.2597 95.9425C49.0444 96.2711 50.1227 96.4697 50.9662 96.8352L50.9796 96.841C51.8163 97.1996 52.7931 97.8527 54.1903 98.8306C56.87 100.73 60.1152 102.521 64.297 102.521C68.4563 102.521 71.7824 100.751 74.4925 98.8307C75.9362 97.8201 76.8213 97.2064 77.6614 96.8587L77.6773 96.8521C78.6108 96.4606 79.7197 96.2563 81.5308 95.9227L81.5328 95.9224L81.7493 95.8858C84.432 95.4342 88.484 94.7521 91.4395 91.7967C94.3725 88.8636 95.1113 84.8437 95.6048 82.1581L95.6476 81.9256L95.7045 81.6243C96.0166 79.9709 96.2113 78.9394 96.567 78.1186L96.579 78.0909L96.5905 78.0631C96.9389 77.2213 97.5544 76.3344 98.5686 74.8855L98.575 74.8763L98.5814 74.8672C98.6553 74.7602 98.7316 74.6503 98.8098 74.5376C100.364 72.2993 102.698 68.9382 102.698 64.7432C102.698 60.4206 100.28 57.0134 98.6453 54.709L98.5622 54.5919C97.5844 53.1948 96.9314 52.218 96.5728 51.3813L96.567 51.3679C96.2113 50.547 96.0166 49.5155 95.7045 47.8622L95.6461 47.553L95.6426 47.5344L95.6389 47.5158C95.606 47.3512 95.5724 47.1799 95.5378 47.0026C95.0292 44.4028 94.2697 40.52 91.4395 37.6898L91.4256 37.676L91.4117 37.6623C88.5276 34.8396 84.5842 34.1207 81.9476 33.6401C81.8151 33.6159 81.6846 33.5921 81.5591 33.569L81.4233 33.544C79.6386 33.2153 78.5603 33.0168 77.7169 32.6512L77.7034 32.6455C76.865 32.2861 75.8857 31.631 74.4837 30.6496L74.4746 30.6432L74.4654 30.6369C74.3585 30.563 74.2486 30.4867 74.1359 30.4085C71.8976 28.8542 68.5364 26.5203 64.3415 26.5203ZM58.1114 36.7895C56.9276 37.6208 55.4271 38.6745 53.8105 39.3449C52.1279 40.0491 50.2936 40.3837 48.799 40.6563L48.4416 40.7217L48.4156 40.7265L48.3895 40.7309C45.2789 41.2573 43.5248 41.6942 42.3864 42.8326C41.2242 43.9948 40.7594 45.7839 40.1861 48.8892L40.1832 48.905C40.1552 49.0532 40.1265 49.2079 40.0968 49.3683C39.8356 50.7779 39.4941 52.6215 38.8014 54.232C38.1307 55.8411 37.0821 57.3342 36.2542 58.5131L36.0727 58.7718L36.0664 58.7809L36.06 58.7899C34.1936 61.4219 33.2136 63.0202 33.2136 64.7432C33.2136 66.4662 34.1937 68.0646 36.06 70.6966L36.0664 70.7056L36.094 70.7451C36.9776 72.0073 38.0889 73.5949 38.7924 75.2335C39.4911 76.8489 39.8345 78.7024 40.0968 80.1181C40.1253 80.2719 40.1528 80.4206 40.1797 80.5631C40.8166 83.7464 41.2244 85.4812 42.3725 86.6399C43.5279 87.7603 45.2934 88.1836 48.4416 88.7648C48.5771 88.7898 48.7173 88.8152 48.8615 88.8413C50.3281 89.1073 52.2076 89.4481 53.8506 90.1585C55.4895 90.862 57.0773 91.9735 58.3397 92.8572L58.3792 92.8848L58.3882 92.8912C60.6031 94.4618 62.3408 95.248 64.297 95.248C66.2756 95.248 68.1102 94.4403 70.2948 92.8912L70.3039 92.8848L70.3129 92.8785L70.5716 92.697C71.7556 91.8655 73.2565 90.8116 74.8735 90.1412C76.5558 89.4372 78.3897 89.1027 79.8841 88.8302L80.2415 88.7648L80.2674 88.76L80.2935 88.7556C83.4041 88.2292 85.1582 87.7922 86.2966 86.6538C87.4589 85.4916 87.9236 83.7025 88.4969 80.5973L88.4998 80.5815C88.5279 80.4333 88.5565 80.2785 88.5862 80.1181C88.8474 78.7085 89.189 76.8649 89.8816 75.2544C90.5524 73.6454 91.6009 72.1523 92.4288 70.9734L92.6042 70.7234C94.4411 68.0643 95.4249 66.4778 95.4249 64.7432C95.4249 63.0026 94.4603 61.3809 92.623 58.7899L92.6167 58.7809L92.589 58.7413C91.7053 57.479 90.5938 55.8912 89.8904 54.2523C89.1918 52.6371 88.8485 50.7839 88.5862 49.3683C88.5578 49.2145 88.5302 49.0659 88.5033 48.9233C87.8664 45.74 87.4586 44.0052 86.3104 42.8465C85.155 41.7261 83.3895 41.3029 80.2415 40.7217C78.7747 40.4557 76.4749 40.0383 74.8318 39.3276C73.1931 38.6242 71.6056 37.5129 70.3434 36.6293L70.3221 36.6144C67.6627 34.7773 66.0762 33.7933 64.3415 33.7933C62.6069 33.7933 60.7706 34.9524 58.1114 36.7895Z" fill="white"/>
</g>
</svg>
