<svg width="128" height="128" viewBox="0 0 128 128" fill="none" xmlns="http://www.w3.org/2000/svg">
<mask id="mask0_1585_2489" style="mask-type:alpha" maskUnits="userSpaceOnUse" x="0" y="0" width="128" height="128">
<rect width="128" height="128" fill="#C4C4C4"/>
</mask>
<g mask="url(#mask0_1585_2489)">
<path d="M10.4723 88.1575C22.5539 73.4489 63.7069 32.3403 67.1049 31.9632C75.0335 37.2432 102.972 66.2832 118.452 89.2889C121.095 93.4375 115.054 100.98 109.013 95.7003C97.6865 84.7632 73.9008 55.3461 67.1049 47.4261C49.7376 64.0203 38.411 74.9575 21.7988 94.1918C15.3804 101.735 2.92123 97.2089 10.4723 88.1575C24.0641 70.8089 7.07429 92.306 10.4723 88.1575Z" fill="white"/>
<path d="M76.1649 84.0089C84.4711 84.0089 84.4711 96.8318 76.1649 96.8318C68.2364 96.8318 68.2364 84.0089 76.1649 84.0089Z" fill="white"/>
<path d="M67.1063 67.7918C75.4125 67.7918 75.4125 80.6146 67.1063 80.6146C58.8002 80.6146 59.1778 67.7918 67.1063 67.7918Z" fill="white"/>
<path d="M57.6649 84.0089C65.9711 84.0089 65.9711 96.8318 57.6649 96.8318C49.3588 96.8318 49.3588 84.0089 57.6649 84.0089Z" fill="white"/>
</g>
</svg>
