<svg width="129" height="128" viewBox="0 0 129 128" fill="none" xmlns="http://www.w3.org/2000/svg">
<mask id="mask0_1585_2448" style="mask-type:alpha" maskUnits="userSpaceOnUse" x="0" y="0" width="129" height="128">
<rect x="0.441406" width="128" height="128" fill="#C4C4C4"/>
</mask>
<g mask="url(#mask0_1585_2448)">
<path fill-rule="evenodd" clip-rule="evenodd" d="M67.5937 40.5157C65.1228 40.9001 62.6296 41.6086 60.2358 42.6149C60.3991 42.0828 60.4147 41.5049 60.2621 40.9454C59.6513 38.7058 58.5283 36.6141 57.6086 34.9011C57.6086 34.9011 57.3837 31.9334 57.4906 30.7326C57.8534 29.4817 58.3617 28.3362 58.9661 26.988L58.9768 26.9641C59.2851 26.2763 59.6214 25.5262 59.9351 24.7419C60.5476 23.2106 61.0526 21.3159 61.062 19.3415C64.5936 18.7295 68.1153 18.5078 72.0041 18.9643C73.4571 19.2015 75.0864 19.7807 77.0586 20.4951L77.3093 20.586C79.6156 21.4228 82.5373 22.4828 85.2892 22.4828C87.6528 22.4828 89.8697 21.8581 91.2438 19.7805C91.824 18.9031 92.1147 17.9556 92.2949 17.1525C92.4682 16.3801 92.5815 15.5297 92.684 14.7604L92.6937 14.6875C92.7937 13.9374 92.8942 13.1875 93.0403 12.384C93.3064 10.9203 92.4596 9.48264 91.0505 9.00569C76.6338 4.12621 60.266 1.09454 44.3911 5.23582L44.3867 5.23698C25.8869 10.0932 10.4525 25.5275 5.59632 44.0273L5.59403 44.0361C0.740932 62.7552 6.72644 83.7307 20.612 96.9219L20.6313 96.9401C27.5131 103.363 35.697 107.883 43.836 111.843C43.8489 111.849 43.862 111.856 43.8751 111.862C50.8307 115.122 58.6531 118.606 67.0518 119.542C80.3467 121.17 94.3289 116.75 104.156 107.391C113.922 98.0903 119.537 84.5906 118.608 71.0042C118.37 66.5536 117.2 61.4077 114.414 57.3237C110.565 51.2122 103.829 48.1022 98.1597 45.9208C88.7374 42.1965 78.2651 38.8557 67.5937 40.5157ZM40.6135 48.9108C37.0838 47.6431 33.8936 45.4133 31.4637 42.9834C30.7995 42.3192 30.182 41.6277 29.622 41.0006L29.5973 40.9729C29.2953 40.6347 29.0067 40.3122 28.7227 40.0034C26.3068 44.0223 24.5621 48.4156 23.6582 53.0043C22.359 59.6005 22.7826 66.462 24.7455 72.8473C25.8962 72.0536 27.1324 71.2306 28.4429 70.5158C28.4577 70.5077 28.4725 70.4998 28.4875 70.492C30.9511 69.2015 33.6509 68.7569 35.8137 68.4007L35.9922 68.3713C38.5049 67.9566 40.3394 67.6193 41.8518 66.7447C42.1705 66.5232 42.4904 66.3036 42.8115 66.0857C43.1706 65.8421 43.5643 65.6865 43.9664 65.6146C43.8852 64.2124 43.9399 62.795 44.1419 61.381L44.1474 61.3441C44.6766 57.9425 46.0089 54.8795 47.8972 52.2089C46.8383 51.0792 45.2103 50.4711 42.7555 49.6573L42.724 49.6468C42.0564 49.4256 41.3235 49.1826 40.6135 48.9108ZM51.954 47.7393C53.3153 46.5486 54.7983 45.4863 56.3622 44.5612C56.2483 44.5207 56.1361 44.473 56.0262 44.418C54.28 43.5449 53.2901 42.0175 52.7288 40.7077C52.1607 39.3821 51.8952 37.9721 51.7683 36.8303L51.7648 36.7975L51.7524 36.6732C50.4773 34.2667 48.9995 31.2121 49.1323 27.707C49.1428 26.0147 49.5551 24.4395 49.8651 23.2551L49.897 23.1328C50.0033 22.7262 50.097 22.3599 50.1761 22.024C49.5748 22.1921 48.9638 22.3625 48.3446 22.5332C43.7325 24.6037 39.4775 27.5237 35.8198 31.0753C36.3396 32.0615 36.7962 33.042 37.2162 33.9441L37.255 34.0273C38.7213 37.1759 39.7919 39.3059 41.6248 40.5809L41.6553 40.6024C42.3066 41.0677 43.12 41.4539 44.2182 41.9616L44.2706 41.9858C44.9185 42.2853 45.687 42.6405 46.4021 43.0479C48.5947 44.2698 50.454 46.0748 51.954 47.7393ZM45.2019 71.7312C45.1694 71.7513 45.1369 71.7713 45.1044 71.7911C39.7944 75.496 34.8533 79.7106 30.4319 84.4308C31.8986 86.4954 33.5657 88.4181 35.4212 90.16L35.4341 90.1722C39.4718 94.008 44.387 96.8972 49.4525 99.2189L49.457 99.221C52.9053 100.808 56.5582 102.132 60.2842 103.093C58.9152 97.343 60.0606 91.7019 61.0838 86.781C61.1107 86.6352 61.1404 86.4894 61.1729 86.3436C58.9955 85.8078 56.8917 84.9593 54.949 83.7937C50.4039 81.0666 46.9503 76.7079 45.2019 71.7312ZM67.1218 87.034C67.1143 87.19 67.0945 87.3474 67.0617 87.505L66.9738 87.9271C66.5411 90.3883 67.5472 93.311 69.3151 96.2575C70.0261 97.4425 70.84 98.6124 71.7196 99.8743L71.7908 99.9764C72.8137 101.444 73.939 103.058 74.8778 104.771C80.4241 104.539 85.6844 103.194 90.2926 100.463C98.8181 95.3027 104.541 85.5643 104.541 75.7673C104.541 65.9552 98.8125 56.2767 90.1792 51.5677C81.6027 46.8896 70.2155 47.6821 62.4375 53.5156C62.4257 53.5244 62.4139 53.5331 62.402 53.5418C59.3015 55.7967 56.7948 59.2085 55.6045 62.8029C54.4192 66.382 54.6115 69.8567 56.3933 72.6104C56.4036 72.6262 56.4136 72.6421 56.4236 72.6581C57.8706 74.9895 60.3156 76.5266 63.3413 77.2372C66.3821 77.9513 69.8171 77.7729 72.8321 76.8307L72.8446 76.8267C75.2582 76.0841 77.0711 74.9151 78.0838 73.2204C78.7184 71.9759 78.6286 70.4794 78.036 69.2649C78.0321 69.537 77.991 69.8125 77.9093 70.0846C77.2271 72.3589 75.3696 73.7326 73.5527 74.2776C71.7358 74.8227 69.5312 74.685 67.6997 73.464C64.2366 71.1553 63.7048 66.5122 65.4324 63.4025C67.0501 60.4905 70.0995 58.7732 72.9204 58.209C72.9796 58.1972 73.0391 58.1872 73.0988 58.1789C77.4599 57.5774 81.5109 59.6153 84.127 62.5712C86.7502 65.5351 88.2876 69.8254 87.0904 74.1653L87.083 74.1917C85.949 78.1608 82.9459 81.3096 79.6986 83.3175C75.9767 85.7456 71.5579 86.9957 67.1218 87.034Z" fill="white"/>
</g>
</svg>
