<svg width="128" height="128" viewBox="0 0 128 128" fill="none" xmlns="http://www.w3.org/2000/svg">
<mask id="mask0" mask-type="alpha" maskUnits="userSpaceOnUse" x="0" y="0" width="128" height="128">
<rect width="128" height="128" fill="#C4C4C4"/>
</mask>
<g mask="url(#mask0)">
<path d="M63.7497 10.7061C45.2702 10.672 27.2886 20.2472 17.383 37.4044C2.63976 62.9404 11.3872 95.5759 36.9231 110.319C62.4596 125.062 95.0953 116.315 109.838 90.779C124.582 65.2428 115.834 32.6073 90.2984 17.8638C81.9192 13.0262 72.774 10.7228 63.7493 10.7061H63.7497ZM63.7211 21.0697C70.9952 21.0824 78.3649 22.9432 85.1164 26.8414C103.987 37.7368 111.478 60.7652 103.427 80.38L47.3226 24.2755C52.5123 22.1578 58.0864 21.0599 63.7211 21.0697ZM37.0799 30.2181L97.4772 90.6154C95.305 93.3966 92.8411 95.8561 90.1485 97.9653L29.7377 37.5532C31.9113 34.7727 34.3858 32.3253 37.0801 30.2176L37.0799 30.2181ZM23.7946 47.7962L79.9062 103.908C68.013 108.769 54.0781 108.277 42.091 101.356C23.2148 90.4576 15.733 67.4159 23.7946 47.7962Z" fill="white"/>
</g>
</svg>
