<svg width="128" height="128" viewBox="0 0 128 128" fill="none" xmlns="http://www.w3.org/2000/svg">
<mask id="mask0_1768_965" style="mask-type:alpha" maskUnits="userSpaceOnUse" x="0" y="0" width="128" height="128">
<rect width="128" height="128" fill="#C4C4C4"/>
</mask>
<g mask="url(#mask0_1768_965)">
<path d="M72.5928 77.2045C73.136 78.4794 74.1956 79.5916 75.5535 79.8628C78.0084 80.3375 79.5602 78.4844 80.8489 76.5534C83.8905 71.7249 84.8142 66.2454 85.819 60.7658C86.8104 51.9805 89.7571 33.5505 93.613 30.1129C98.4741 25.7456 106.92 28.6481 110.287 34.2633C113.655 39.8513 113.302 46.9042 112.324 53.3603C109.541 71.3491 101.157 90.5265 83.2117 97.7934C75.3361 100.994 66.4828 102.052 57.9012 101.998C49.8898 101.944 41.6066 100.94 34.7359 96.8169C27.7837 92.6123 22.9502 85.5051 20.153 77.8826C15.7807 65.947 12.7928 49.0743 17.0836 36.7861C17.9527 34.2904 19.3378 31.7948 21.6734 30.5741C23.0855 29.8417 24.688 29.6247 26.2631 29.5975C28.9245 29.5704 31.8035 30.1129 33.5959 32.0932C35.1167 33.7479 35.6052 36.0808 35.8768 38.3051C37.4791 51.2716 35.714 67.0592 43.1008 78.4794C44.1599 80.1341 45.9787 81.8702 47.8254 81.1649C49.0746 80.7038 49.6722 79.3203 50.0524 78.0725C53.9738 60.7473 52.5157 50.4153 53.3115 42.4555C54.0057 35.5109 54.9679 30.1943 61.6485 28.9194C63.2181 28.6897 62.9883 28.6897 64.2288 28.621C66.9717 28.5396 69.9313 29.5433 71.4249 31.8219C72.7285 33.8021 72.7288 36.3249 72.7016 38.712C72.5387 50.4307 67.8132 66.0555 72.5928 77.2045Z" fill="white"/>
</g>
</svg>
