<svg width="128" height="128" viewBox="0 0 128 128" fill="none" xmlns="http://www.w3.org/2000/svg">
<mask id="mask0_1768_989" style="mask-type:alpha" maskUnits="userSpaceOnUse" x="0" y="0" width="128" height="128">
<rect width="128" height="128" fill="#C4C4C4"/>
</mask>
<g mask="url(#mask0_1768_989)">
<path d="M40.644 14C31.8203 23.2586 25.2693 33.8897 21.1783 45.109C14.0391 64.6067 14.1995 85.9342 22.1676 105.236C23.5848 108.656 25.403 116.259 30.5101 114.821C34.307 113.754 38.8258 102.447 40.2697 99.4845C45.2698 89.2891 47.9972 78.3748 48.7993 67.4387C49.6817 55.7619 48.425 44.0634 45.8581 32.5391C44.8235 27.8581 42.3324 17.5969 40.644 14Z" fill="white"/>
<path d="M61.7612 100.508C65.2639 111.771 69.5154 102.643 72.5368 95.4325C79.6927 72.8196 83.8316 54.4656 72.5903 33.8461C67.1423 42.5015 57.3493 67.9515 61.7612 100.508Z" fill="white"/>
<path d="M108.558 54.9996C107.542 51.405 106.258 47.8541 104.895 44.3467C102.473 48.0175 100.088 51.7467 98.1565 55.6096C92.7774 65.9065 89.2964 80.6875 94.0655 91.5984C98.1832 100.988 103.344 90.3785 106.338 85.4986C112.333 74.1364 109.345 60.3357 108.558 54.9996Z" fill="white"/>
</g>
</svg>
