<svg width="129" height="129" viewBox="0 0 129 129" fill="none" xmlns="http://www.w3.org/2000/svg">
<path d="M92.5937 106.854C94.1877 105.548 94.8991 103.37 94.4159 101.33C94.2078 100.458 94.5149 99.5466 95.2095 98.9794C95.9025 98.4123 96.8589 98.2898 97.6727 98.664C99.6073 99.56 101.82 99.2831 103.445 97.9509C105.705 96.1002 106.062 92.5095 104.203 90.2343C102.285 87.8953 99.3709 87.1261 97.0336 89.0439C96.4766 89.502 96.0202 90.0607 95.6796 90.7C95.3155 91.3912 94.6242 91.8543 93.8473 91.9282C93.0671 92.0087 92.3037 91.6899 91.8054 91.0859L79.8186 76.4766C79.7682 76.5336 79.1589 77.0076 79.1052 77.0663C78.6723 77.5344 78.216 77.9908 77.7109 78.4036L77.4307 78.6351C76.9257 79.0496 76.3921 79.4036 75.8485 79.7375C75.7813 79.7794 75.1005 80.2598 75.0334 80.2984L86.7601 94.5923C87.2081 95.1393 87.3893 95.8658 87.2416 96.5571C87.0957 97.2517 86.6443 97.8423 86.0101 98.1611C85.6309 98.3524 85.3037 98.5621 85.0117 98.8038C82.7567 100.656 83.008 103.822 84.8771 106.092C86.795 108.429 90.2531 108.773 92.5937 106.854Z" fill="#8ED478"/>
<path d="M70.3114 34.4289L70.2815 34.3367C70.2457 34.2655 70.2156 34.1906 70.1837 34.1118C69.3435 31.8141 68.174 29.7283 66.717 27.9161C59.1603 18.5601 43.8902 18.4031 34.536 25.9599C29.4349 30.0769 24.2007 38.1657 24.1492 44.7323C24.1098 49.7529 25.8317 54.6744 28.9944 58.5919C31.1648 61.2793 35.5658 65.1499 37.9415 66.7475C40.3172 68.345 58.1127 77.4901 58.7396 77.9184C58.9587 78.0657 60.7133 78.8593 62.1095 80.4758L67.2718 86.8706C69.5295 89.6679 72.9444 90.9935 76.2836 90.7247C78.2793 90.5373 82.5153 87.8275 84.1887 86.4767L84.6762 86.1223C85.2391 85.6688 85.7374 85.1459 86.1863 84.5843C86.283 84.4606 86.355 84.3232 86.4479 84.1975C87.6971 82.4698 89.9572 79.0496 89.9747 76.8142C89.9938 74.3757 89.1919 72.0821 87.6571 70.1812L82.5043 63.7846C80.7247 61.5752 78.7116 57.64 76.3537 51.7423L76.3443 51.7096C73.9394 45.7004 71.8139 39.2337 70.6663 35.5868C70.5489 35.1702 70.4388 34.7977 70.3114 34.4289Z" fill="#8ED478"/>
</svg>
