<svg width="129" height="129" viewBox="0 0 129 129" fill="none" xmlns="http://www.w3.org/2000/svg">
<path d="M78.5405 61.9046C78.5405 69.4322 78.5405 85.6207 64.9105 97.3425C51.2805 84.5303 51.2805 69.4322 51.2805 61.9046C51.2805 54.377 52.6435 40.6418 64.9105 28.6475C77.1775 39.5514 78.5405 54.377 78.5405 61.9046Z" fill="white"/>
<path d="M35.4698 50.1824C40.9218 51.0002 46.3738 55.7253 48.5546 58.3604C48.5546 52.6358 49.9175 46.6386 52.0983 41.4592C46.6464 38.1881 42.5574 37.0977 38.741 37.0977C37.378 39.2785 34.652 43.9126 35.4698 50.1824Z" fill="white"/>
<path d="M94.0786 50.1824C88.6266 51.0002 83.1746 55.7253 80.9938 58.3604C80.9938 52.6358 79.6309 46.6386 77.4501 41.4592C82.902 38.1881 86.991 37.0977 90.8074 37.0977C92.1704 39.2785 94.8964 43.9126 94.0786 50.1824Z" fill="white"/>
<path d="M48.0093 61.9041C46.6463 83.1668 56.6417 94.4342 62.4571 100.341C26.9102 98.814 14.6614 66.5383 13.6618 50.1824C26.0197 48.1833 41.1944 53.4536 48.0093 61.9041Z" fill="white"/>
<path d="M81.539 61.9041C82.902 83.1668 72.9067 94.4342 67.0913 100.341C102.638 98.814 114.887 66.5383 115.887 50.1824C103.529 48.1833 88.354 53.4536 81.539 61.9041Z" fill="white"/>
<path d="M31.1082 91.0721C34.9246 97.0696 42.83 99.7045 46.6463 101.158C20.2587 101.158 8.20985 94.4342 5.48386 91.0721C12.6623 89.164 21.2946 88.0737 31.1082 91.0721Z" fill="white"/>
<path d="M98.4402 91.0721C94.6238 97.0696 86.7184 99.7045 82.9021 101.158C109.29 101.158 121.339 94.4342 124.065 91.0721C116.886 89.164 108.254 88.0737 98.4402 91.0721Z" fill="white"/>
</svg>
