<svg width="129" height="129" viewBox="0 0 129 129" fill="none" xmlns="http://www.w3.org/2000/svg">
<mask id="mask0" mask-type="alpha" maskUnits="userSpaceOnUse" x="0" y="0" width="129" height="129">
<rect x="0.226562" y="0.493652" width="128" height="128" fill="#C4C4C4"/>
</mask>
<g mask="url(#mask0)">
<rect x="94.0684" y="7.55075" width="38.3237" height="122.734" rx="19.1619" transform="rotate(45 94.0684 7.55075)" fill="#FF8484" stroke="#8E0000" stroke-width="6"/>
<rect x="7.28366" y="34.6499" width="38.3237" height="122.734" rx="19.1619" transform="rotate(-45 7.28366 34.6499)" fill="#FF8484" stroke="#C93000" stroke-width="6"/>
<rect x="37.125" y="68.7344" width="44.3238" height="33.8316" transform="rotate(-45 37.125 68.7344)" fill="#FFD5C7"/>
<rect x="7.28366" y="34.6499" width="38.3237" height="122.734" rx="19.1619" transform="rotate(-45 7.28366 34.6499)" stroke="#8E0000" stroke-width="6"/>
<circle cx="54.4488" cy="70.5176" r="2.66658" transform="rotate(-45 54.4488 70.5176)" fill="#AF2A00"/>
<circle cx="59.2653" cy="75.3325" r="2.66658" transform="rotate(-45 59.2653 75.3325)" fill="#AF2A00"/>
<circle cx="64.0797" cy="80.1475" r="2.66658" transform="rotate(-45 64.0797 80.1475)" fill="#AF2A00"/>
<circle cx="54.7965" cy="60.54" r="2.66658" transform="rotate(-45 54.7965 60.54)" fill="#AF2A00"/>
<circle cx="59.6129" cy="65.355" r="2.66658" transform="rotate(-45 59.6129 65.355)" fill="#AF2A00"/>
<circle cx="64.4274" cy="70.1694" r="2.66658" transform="rotate(-45 64.4274 70.1694)" fill="#AF2A00"/>
<circle cx="69.2418" cy="74.9849" r="2.66658" transform="rotate(-45 69.2418 74.9849)" fill="#AF2A00"/>
<circle cx="59.9606" cy="55.377" r="2.66658" transform="rotate(-45 59.9606 55.377)" fill="#AF2A00"/>
<circle cx="64.775" cy="60.1919" r="2.66658" transform="rotate(-45 64.775 60.1919)" fill="#AF2A00"/>
<circle cx="69.5895" cy="65.0068" r="2.66658" transform="rotate(-45 69.5895 65.0068)" fill="#AF2A00"/>
<circle cx="74.4059" cy="69.8218" r="2.66658" transform="rotate(-45 74.4059 69.8218)" fill="#AF2A00"/>
<circle cx="65.1227" cy="50.2144" r="2.66658" transform="rotate(-45 65.1227 50.2144)" fill="#AF2A00"/>
<circle cx="69.9391" cy="55.0288" r="2.66658" transform="rotate(-45 69.9391 55.0288)" fill="#AF2A00"/>
<circle cx="74.7535" cy="59.8438" r="2.66658" transform="rotate(-45 74.7535 59.8438)" fill="#AF2A00"/>
<circle cx="79.568" cy="64.6592" r="2.66658" transform="rotate(-45 79.568 64.6592)" fill="#AF2A00"/>
<circle cx="49.6344" cy="65.7021" r="2.66658" transform="rotate(-45 49.6344 65.7021)" fill="#AF2A00"/>
</g>
</svg>
