<svg width="129" height="129" viewBox="0 0 129 129" fill="none" xmlns="http://www.w3.org/2000/svg">
<rect width="13.0202" height="23.467" rx="2.904" transform="matrix(-0.714914 -0.699213 -0.699213 0.714914 67.5798 52.5337)" fill="#FFDFDF"/>
<rect x="67.5798" y="52.5337" width="42.9473" height="23.467" rx="2.904" transform="rotate(44.3639 67.5798 52.5337)" fill="#F04F4F"/>
<path fill-rule="evenodd" clip-rule="evenodd" d="M102.67 107.29L98.5079 111.546C97.3865 112.692 97.4069 114.531 98.5535 115.652C99.7001 116.774 101.539 116.753 102.66 115.607L115.008 102.982C116.129 101.835 116.109 99.9969 114.962 98.8754C113.815 97.754 111.977 97.7744 110.855 98.921L106.694 103.176L94.4288 90.9108L100.569 84.8578L106.709 78.7179C107.25 78.1725 107.553 77.4344 107.55 76.6658C107.547 75.8973 107.24 75.1613 106.694 74.6198C106.149 74.0783 105.411 73.7755 104.642 73.7783C103.874 73.781 103.138 74.0889 102.596 74.6343L98.5124 78.7179L63.7583 43.9637C62.1292 42.3366 59.9208 41.4227 57.6184 41.4227C55.3159 41.4227 53.1076 42.3366 51.4785 43.9637L49.5091 45.8752L17.2884 14.2507C17.0184 13.9806 16.6978 13.7664 16.345 13.6203C15.9922 13.4741 15.614 13.3989 15.2322 13.3989C14.8503 13.3989 14.4721 13.4741 14.1193 13.6203C13.7665 13.7664 13.4459 13.9806 13.1759 14.2507C12.6305 14.796 12.3241 15.5357 12.3241 16.307C12.3241 17.0782 12.6305 17.8179 13.1759 18.3632L45.2807 50.1036L43.2244 52.1599C41.5973 53.789 40.6834 55.9973 40.6834 58.2998C40.6834 60.6023 41.5973 62.8106 43.2244 64.4397L77.9786 99.1938L73.8949 103.277C73.6234 103.547 73.408 103.867 73.2609 104.22C73.1139 104.573 73.0382 104.951 73.0382 105.334C73.0382 105.716 73.1139 106.095 73.2609 106.448C73.408 106.8 73.6234 107.121 73.8949 107.39C74.4343 107.925 75.1624 108.227 75.9222 108.23C76.3034 108.232 76.6813 108.159 77.0341 108.015C77.387 107.871 77.7079 107.658 77.9786 107.39L84.2633 101.163L90.4032 95.0233L102.67 107.29ZM75.9802 88.8545L82.1201 95.0233L94.3709 82.8015L59.6167 48.0473C59.3461 47.7789 59.0252 47.5665 58.6723 47.4224C58.3194 47.2783 57.9416 47.2052 57.5605 47.2074C56.8108 47.1638 56.0736 47.413 55.5042 47.9025L47.308 56.0987C47.0366 56.3679 46.8211 56.6883 46.6741 57.0412C46.527 57.3941 46.4513 57.7727 46.4513 58.155C46.4513 58.5373 46.527 58.9159 46.6741 59.2688C46.8211 59.6217 47.0366 59.942 47.308 60.2113L51.4206 64.2949L55.4462 60.1534C55.7144 59.8833 56.0331 59.6687 56.3841 59.5219C56.7352 59.375 57.1117 59.2987 57.4923 59.2974C57.8728 59.296 58.2499 59.3697 58.602 59.514C58.9541 59.6584 59.2743 59.8707 59.5443 60.1389C59.8144 60.407 60.0289 60.7257 60.1758 61.0768C60.3227 61.4278 60.399 61.8044 60.4003 62.1849C60.4017 62.5655 60.328 62.9426 60.1837 63.2946C60.0393 63.6467 59.8269 63.9669 59.5588 64.237L55.4462 68.3206L61.5861 74.4894L67.8129 68.3206C68.3555 67.7812 69.0896 67.4784 69.8547 67.4784C70.6198 67.4784 71.3539 67.7812 71.8965 68.3206C72.1768 68.5907 72.3998 68.9146 72.5521 69.2729C72.7043 69.6312 72.7828 70.0165 72.7828 70.4058C72.7828 70.7951 72.7043 71.1804 72.5521 71.5387C72.3998 71.897 72.1768 72.2209 71.8965 72.4911L65.7566 78.7179L71.8965 84.8578L75.9802 80.7742C76.2494 80.5027 76.5697 80.2873 76.9227 80.1402C77.2756 79.9932 77.6541 79.9175 78.0365 79.9175C78.4188 79.9175 78.7974 79.9932 79.1503 80.1402C79.5032 80.2873 79.8235 80.5027 80.0928 80.7742C80.6322 81.3168 80.935 82.0509 80.935 82.816C80.935 83.5811 80.6322 84.3151 80.0928 84.8578L75.9802 88.8545Z" fill="#570000"/>
</svg>
