<svg width="129" height="129" viewBox="0 0 129 129" fill="none" xmlns="http://www.w3.org/2000/svg">
<mask id="mask0" mask-type="alpha" maskUnits="userSpaceOnUse" x="0" y="0" width="129" height="129">
<rect x="0.457733" y="0.995117" width="128" height="128" fill="#C4C4C4"/>
</mask>
<g mask="url(#mask0)">
<circle cx="64.4375" cy="65.0156" r="29.4766" transform="rotate(-45 64.4375 65.0156)" fill="white"/>
<path fill-rule="evenodd" clip-rule="evenodd" d="M33.4675 78.482L15.5264 79.2621C13.8183 79.3625 10.4323 80.3171 10.5528 83.3314C10.6708 86.2805 12.9402 86.7992 15.364 87.3533C16.8109 87.684 18.3129 88.0273 19.445 88.9078C20.7285 89.9061 20.865 91.3091 21.0037 92.7339C21.1581 94.3208 21.3151 95.9347 23.0622 97.0465C24.5538 97.9956 25.9233 98.3958 27.1983 98.7684C28.7577 99.2241 30.1756 99.6384 31.5022 100.965C32.5404 102.003 32.4333 102.734 32.3113 103.567C32.1499 104.668 31.9625 105.947 34.3658 108.35C36.2156 110.2 37.3701 109.938 38.4652 109.69C39.4531 109.466 40.3927 109.253 41.7509 110.611C42.7213 111.581 43.0948 113.333 43.4675 115.081C44.0496 117.811 44.6299 120.532 47.4781 120.257C51.913 119.827 52.0024 117.769 52.1289 114.854C52.1357 114.698 52.1426 114.539 52.1502 114.379C52.2428 112.436 52.1637 103.327 52.0765 96.0166C47.7404 94.5534 43.6664 92.0942 40.2113 88.639C37.2137 85.6415 34.9658 82.1782 33.4675 78.482Z" fill="white"/>
<path fill-rule="evenodd" clip-rule="evenodd" d="M77.8141 34.1361L78.5942 16.1945C78.6947 14.4864 79.6492 11.1003 82.6635 11.2209C85.6126 11.3389 86.1314 13.6083 86.6854 16.032C87.0161 17.479 87.3595 18.981 88.24 20.1131C89.2382 21.3965 90.6412 21.5331 92.0661 21.6717C93.6529 21.8261 95.2668 21.9832 96.3786 23.7303C97.3278 25.2218 97.728 26.5914 98.1005 27.8664C98.5562 29.4257 98.9705 30.8436 100.297 32.1703C101.335 33.2084 102.066 33.1013 102.899 32.9794C104 32.818 105.279 32.6306 107.682 35.0339C109.532 36.8836 109.27 38.0381 109.022 39.1332C108.798 40.1212 108.585 41.0608 109.943 42.4189C110.913 43.3893 112.665 43.7628 114.413 44.1356C117.143 44.7177 119.864 45.2979 119.589 48.1461C119.16 52.5811 117.101 52.6705 114.186 52.797C114.03 52.8038 113.872 52.8106 113.711 52.8183C111.768 52.9108 102.659 52.8318 95.3484 52.7446C93.8852 48.4087 91.426 44.3348 87.971 40.8798C84.9735 37.8823 81.5102 35.6344 77.8141 34.1361Z" fill="white"/>
</g>
</svg>
