<svg width="129" height="129" viewBox="0 0 129 129" fill="none" xmlns="http://www.w3.org/2000/svg">
<mask id="mask0" mask-type="alpha" maskUnits="userSpaceOnUse" x="0" y="0" width="129" height="129">
<rect x="0.594238" y="0.855469" width="128" height="128" fill="#C4C4C4"/>
</mask>
<g mask="url(#mask0)">
<path d="M25.5942 90.9876C25.5942 110.423 47.138 116.991 57.4482 117.855C46.5995 115.027 45.2144 101.829 50.0617 96.4083C53.9396 92.0718 52.9086 85.1741 51.9084 82.2674C56.8942 83.9643 57.679 89.8878 57.4482 92.6374C69.0819 83.3986 67.3737 71.8188 65.0654 67.1837C72.6826 71.6616 73.8368 79.9105 71.7594 87.9238C70.0974 94.3343 72.9135 99.2365 74.5293 100.886C71.7594 92.4017 75.6834 87.7666 77.9917 86.5097C75.6834 95.2299 82.3774 96.4083 83.5315 105.129C84.4548 112.105 80.8386 115.577 78.915 116.441C98.5352 108.9 107.537 93.1088 97.3811 71.6616C89.256 54.5039 92.4568 42.3584 95.0728 38.4304C80.3 45.5951 79.0689 56.9707 80.3 61.763C57.5867 41.0229 62.0647 19.1829 67.1429 10.8555C49.1384 18.3973 45.6761 36.3092 50.0617 53.7497C53.5703 67.7022 49.5232 74.0185 47.061 75.4326C52.0469 61.103 42.0598 50.7644 36.4431 47.3863C40.3671 79.4392 25.5943 69.3048 25.5942 90.9876Z" fill="#8ED478"/>
</g>
</svg>
