<svg width="128" height="129" viewBox="0 0 128 129" fill="none" xmlns="http://www.w3.org/2000/svg">
<path d="M44.2173 17.8892L68.3204 28.1931L92.3279 63.0953L88.9523 63.4346L66.3857 30.228L41.3762 19.5503L44.2173 17.8892Z" fill="#535353" stroke="#323232" stroke-width="1.845" stroke-miterlimit="5"/>
<path d="M23.2356 28.5467L41.7408 17.9863L60.1924 24.3512L30.5746 41.4776L23.2356 28.5467Z" fill="#AAAAAA" stroke="#323232" stroke-width="1.982" stroke-miterlimit="5"/>
<path d="M29.4599 55.4131L68.9066 123.605C81.6534 121.123 95.3196 113.253 105.03 102.721L65.4251 34.2386C55.4902 38.5508 38.1463 48.4604 29.4599 55.4131V55.4131Z" fill="#D33030" stroke="#323232" stroke-width="2.762"/>
<path d="M30.4287 41.2124L33.7825 47.1614L58.2896 32.9836L54.9473 27.0545L30.4287 41.2124Z" fill="#AAAAAA" stroke="#323232" stroke-width="1.982" stroke-miterlimit="5"/>
<path d="M65.921 33.4106C55.1472 37.8699 37.7611 47.8582 28.1685 55.1274C28.1685 55.1274 29.5496 57.8795 30.4914 58.5528C39.7871 51.3154 57.017 41.0524 67.629 36.869C67.6255 36.177 65.921 33.4106 65.921 33.4106ZM68.151 124.371C79.3748 121.611 98.445 110.502 105.931 102.296C105.047 100.814 104.913 100.842 104.079 100.548C95.502 110.658 80.7253 119.314 67.3216 121.51C67.4021 122.636 67.2398 122.821 68.151 124.371Z" fill="#323232" stroke="#323232" stroke-width="2.5"/>
<path d="M70.684 43.5321C60.719 47.5222 43.4868 57.6872 34.8973 64.4557L36.7715 67.586C45.2856 60.8228 62.5978 50.6925 72.3847 46.6159L70.6849 43.5316L70.684 43.5321Z" fill="white" stroke="#323232" stroke-width="2.5"/>
<path d="M53.7903 5.4834C51.7907 5.52991 49.8349 6.0782 48.1025 7.0779C46.7449 7.86158 45.5549 8.90502 44.6006 10.1486C43.6463 11.3923 42.9463 12.8117 42.5407 14.3259C42.135 15.8401 42.0316 17.4193 42.2364 18.9735C42.4412 20.5276 42.9501 22.0262 43.7341 23.3836C45.3168 26.1249 47.9236 28.1252 50.9811 28.9445C54.0386 29.7637 57.2964 29.3348 60.0376 27.7522C61.3953 26.9685 62.5852 25.925 63.5395 24.6814C64.4938 23.4378 65.1938 22.0183 65.5995 20.5042C66.0051 18.99 66.1085 17.4107 65.9037 15.8566C65.699 14.3024 65.19 12.8038 64.406 11.4464C63.3346 9.59092 61.7833 8.05808 59.9152 7.00879C58.0471 5.95951 55.9309 5.43248 53.7889 5.48303L53.7903 5.4834ZM53.8318 9.79532C55.215 9.76268 56.5814 10.1031 57.7876 10.7808C58.9938 11.4585 59.9953 12.4484 60.6869 13.6468C61.1931 14.523 61.5218 15.4905 61.6541 16.4938C61.7864 17.4971 61.7197 18.5167 61.4579 19.4942C61.1961 20.4718 60.7443 21.3882 60.1283 22.1911C59.5123 22.994 58.7441 23.6677 57.8677 24.1737C56.9913 24.6798 56.0239 25.0083 55.0205 25.1405C54.0172 25.2727 52.9976 25.2059 52.0201 24.9439C51.0426 24.682 50.1263 24.2301 49.3234 23.614C48.5206 22.9978 47.847 22.2296 47.3411 21.3531C46.835 20.4768 46.5065 19.5093 46.3743 18.506C46.2421 17.5026 46.3089 16.4831 46.5709 15.5056C46.8328 14.528 47.2847 13.6117 47.9008 12.8088C48.517 12.006 49.2852 11.3324 50.1617 10.8265C51.2796 10.1805 52.5419 9.82572 53.8327 9.79482L53.8318 9.79532Z" fill="#535353" stroke="#353535" stroke-width="2.32"/>
<path fill-rule="evenodd" clip-rule="evenodd" d="M63.2815 86.8481C64.9393 88.6175 66.623 89.6449 68.3875 89.0805C62.4291 86.1588 67.4611 78.3459 64.5258 74.6785C73.0321 75.4021 73.482 79.9592 74.2353 82.5234C75.1384 85.8191 79.1551 84.5906 75.9049 80.378C79.7572 81.6983 81.6462 84.9701 81.739 88.2791C81.8383 95.2198 73.5906 99.9816 67.7946 96.2391C64.9359 94.436 63.1727 90.9098 63.2815 86.8481Z" fill="#FAE600"/>
<rect x="54.3906" y="84.5896" width="4.75835" height="34.7372" transform="rotate(-75 54.3906 84.5896)" fill="white"/>
<circle cx="71.7822" cy="86.7865" r="17.1913" transform="rotate(-30 71.7822 86.7865)" stroke="white" stroke-width="4"/>
</svg>
