<svg width="129" height="129" viewBox="0 0 129 129" fill="none" xmlns="http://www.w3.org/2000/svg">
<path d="M65.1464 38.3487C69.5771 38.4522 73.9108 39.6674 77.7494 41.8827C80.7579 43.6194 83.3949 45.9318 85.5097 48.6878C87.6245 51.4438 89.1757 54.5893 90.0748 57.9448C90.9739 61.3003 91.2032 64.8 90.7496 68.2442C90.2961 71.6883 89.1685 75.0093 87.4314 78.0177C83.924 84.0931 78.1468 88.5263 71.3708 90.3422C64.5947 92.1581 57.3748 91.2079 51.2994 87.7007C48.2907 85.9639 45.6536 83.6515 43.5387 80.8954C41.4238 78.1394 39.8725 74.9937 38.9735 71.6381C38.0744 68.2825 37.8451 64.7826 38.2988 61.3384C38.7524 57.8942 39.8801 54.573 41.6174 51.5647C43.992 47.4525 47.4299 44.0555 51.5701 41.73C55.7103 39.4046 60.4001 38.2367 65.1474 38.3487H65.1464ZM65.0524 47.9057C61.9869 47.8334 58.9584 48.5878 56.2851 50.0898C53.6118 51.5918 51.3922 53.7859 49.8594 56.4417C47.595 60.3639 46.9813 65.0249 48.1534 69.3995C49.3255 73.7741 52.1873 77.504 56.1094 79.7687C60.0315 82.0328 64.6923 82.6462 69.0667 81.4742C73.441 80.3021 77.1707 77.4404 79.4354 73.5187C80.5571 71.5765 81.2853 69.4324 81.5783 67.2089C81.8713 64.9853 81.7235 62.7258 81.1432 60.5593C80.5629 58.3929 79.5616 56.362 78.1963 54.5826C76.8311 52.8031 75.1287 51.3101 73.1864 50.1887C70.709 48.7584 67.9121 47.9734 65.0524 47.9057Z" fill="#FF4B6C" stroke="#202020" stroke-width="4"/>
</svg>
