<svg width="129" height="129" viewBox="0 0 129 129" fill="none" xmlns="http://www.w3.org/2000/svg">
<mask id="path-1-outside-1" maskUnits="userSpaceOnUse" x="23.7656" y="23.1951" width="82" height="82" fill="black">
<rect fill="white" x="23.7656" y="23.1951" width="82" height="82"/>
<path fill-rule="evenodd" clip-rule="evenodd" d="M52.5879 29.6388L57.9757 28.1951L59.1854 31.6123C61.0125 31.3022 62.8903 31.1407 64.8058 31.1407C66.7326 31.1407 68.6211 31.3041 70.4585 31.6178L71.5611 28.5097L76.9489 29.9534L76.3503 33.1933C79.3427 34.2976 82.1331 35.819 84.6512 37.6868L89.0451 34.1996L95.0928 40.2473L91.6054 44.6416C93.4587 47.1404 94.9707 49.9075 96.0727 52.8739L99.311 52.2815L100.788 57.7921L97.6841 58.8993C97.9904 60.7154 98.1499 62.5815 98.1499 64.4847C98.1499 66.3845 97.991 68.2472 97.6858 70.0602L100.854 71.1901L99.3772 76.7007L96.0726 76.0959C94.968 79.0693 93.4513 81.8424 91.592 84.3459L95.0828 88.7387L89.0693 94.7522L84.6781 91.2627C82.16 93.1344 79.3689 94.6594 76.3753 95.767L77.0359 99.3285L71.6481 100.772L70.4385 97.355C68.6075 97.6666 66.7256 97.8288 64.8058 97.8288C62.8811 97.8288 60.9945 97.6657 59.159 97.3526L58.057 100.459L52.6692 99.0152L53.2672 95.7784C50.2735 94.6741 47.4818 93.1526 44.9627 91.2843L40.5689 94.7712L34.5212 88.7236L38.0079 84.3301C36.1528 81.8292 34.6394 79.0596 33.5369 76.0903L30.263 76.6891L28.7864 71.1785L31.9256 70.0586C31.6205 68.2461 31.4618 66.384 31.4618 64.4847C31.4618 62.5843 31.6207 60.7211 31.9261 58.9075L28.7656 57.7803L30.2422 52.2698L33.5392 52.8732C34.6456 49.8951 36.1653 47.118 38.0285 44.6116L34.5454 40.2283L40.5589 34.2148L44.9437 37.6992C47.4624 35.8285 50.2541 34.3046 53.2481 33.1982L52.5879 29.6388Z"/>
</mask>
<path fill-rule="evenodd" clip-rule="evenodd" d="M52.5879 29.6388L57.9757 28.1951L59.1854 31.6123C61.0125 31.3022 62.8903 31.1407 64.8058 31.1407C66.7326 31.1407 68.6211 31.3041 70.4585 31.6178L71.5611 28.5097L76.9489 29.9534L76.3503 33.1933C79.3427 34.2976 82.1331 35.819 84.6512 37.6868L89.0451 34.1996L95.0928 40.2473L91.6054 44.6416C93.4587 47.1404 94.9707 49.9075 96.0727 52.8739L99.311 52.2815L100.788 57.7921L97.6841 58.8993C97.9904 60.7154 98.1499 62.5815 98.1499 64.4847C98.1499 66.3845 97.991 68.2472 97.6858 70.0602L100.854 71.1901L99.3772 76.7007L96.0726 76.0959C94.968 79.0693 93.4513 81.8424 91.592 84.3459L95.0828 88.7387L89.0693 94.7522L84.6781 91.2627C82.16 93.1344 79.3689 94.6594 76.3753 95.767L77.0359 99.3285L71.6481 100.772L70.4385 97.355C68.6075 97.6666 66.7256 97.8288 64.8058 97.8288C62.8811 97.8288 60.9945 97.6657 59.159 97.3526L58.057 100.459L52.6692 99.0152L53.2672 95.7784C50.2735 94.6741 47.4818 93.1526 44.9627 91.2843L40.5689 94.7712L34.5212 88.7236L38.0079 84.3301C36.1528 81.8292 34.6394 79.0596 33.5369 76.0903L30.263 76.6891L28.7864 71.1785L31.9256 70.0586C31.6205 68.2461 31.4618 66.384 31.4618 64.4847C31.4618 62.5843 31.6207 60.7211 31.9261 58.9075L28.7656 57.7803L30.2422 52.2698L33.5392 52.8732C34.6456 49.8951 36.1653 47.118 38.0285 44.6116L34.5454 40.2283L40.5589 34.2148L44.9437 37.6992C47.4624 35.8285 50.2541 34.3046 53.2481 33.1982L52.5879 29.6388Z" fill="#B7912F"/>
<path d="M57.9757 28.1951L61.2017 27.0532L60.146 24.0708L57.09 24.8896L57.9757 28.1951ZM52.5879 29.6388L51.7022 26.3333L48.6463 27.1521L49.2232 30.2628L52.5879 29.6388ZM59.1854 31.6123L55.9594 32.7543L56.92 35.468L59.7581 34.9862L59.1854 31.6123ZM70.4585 31.6178L69.8824 34.9911L72.7209 35.4758L73.6836 32.762L70.4585 31.6178ZM71.5611 28.5097L72.4468 25.2042L69.393 24.3859L68.3359 27.3655L71.5611 28.5097ZM76.9489 29.9534L80.3141 30.5751L80.8884 27.4661L77.8346 26.6479L76.9489 29.9534ZM76.3503 33.1933L72.9852 32.5716L72.4615 35.4058L75.1655 36.4037L76.3503 33.1933ZM84.6512 37.6868L82.6124 40.4353L84.7215 41.9998L86.7785 40.3673L84.6512 37.6868ZM89.0451 34.1996L91.465 31.7798L89.3076 29.6225L86.9178 31.5191L89.0451 34.1996ZM95.0928 40.2473L97.7734 42.3746L99.6699 39.9848L97.5126 37.8275L95.0928 40.2473ZM91.6054 44.6416L88.9249 42.5143L87.2926 44.5711L88.8568 46.6802L91.6054 44.6416ZM96.0727 52.8739L92.8648 54.0656L93.8645 56.7567L96.6884 56.2401L96.0727 52.8739ZM99.311 52.2815L102.616 51.3958L101.8 48.3474L98.6952 48.9153L99.311 52.2815ZM100.788 57.7921L101.937 61.0153L104.91 59.9548L104.093 56.9064L100.788 57.7921ZM97.6841 58.8993L96.5342 55.6761L93.8326 56.64L94.3097 59.4684L97.6841 58.8993ZM97.6858 70.0602L94.3112 69.4922L93.8351 72.3201L96.5362 73.2835L97.6858 70.0602ZM100.854 71.1901L104.159 72.0758L104.976 69.0271L102.003 67.9668L100.854 71.1901ZM99.3772 76.7007L98.7611 80.0669L101.866 80.6351L102.683 77.5864L99.3772 76.7007ZM96.0726 76.0959L96.6887 72.7297L93.8645 72.2128L92.8647 74.9041L96.0726 76.0959ZM91.592 84.3459L88.8447 82.3055L87.277 84.4164L88.9128 86.4749L91.592 84.3459ZM95.0828 88.7387L97.5026 91.1585L99.6613 88.9998L97.762 86.6097L95.0828 88.7387ZM89.0693 94.7522L86.9402 97.4314L89.3303 99.3307L91.4891 97.172L89.0693 94.7522ZM84.6781 91.2627L86.8071 88.5835L84.7477 86.947L82.6365 88.5162L84.6781 91.2627ZM76.3753 95.767L75.1879 92.5574L72.485 93.5574L73.0106 96.391L76.3753 95.767ZM77.0359 99.3285L77.9216 102.634L80.9775 101.815L80.4006 98.7044L77.0359 99.3285ZM71.6481 100.772L68.4221 101.914L69.4778 104.896L72.5338 104.078L71.6481 100.772ZM70.4385 97.355L73.6645 96.2131L72.7035 93.4984L69.8645 93.9814L70.4385 97.355ZM59.159 97.3526L59.7344 93.9792L56.8964 93.4951L55.9338 96.2085L59.159 97.3526ZM58.057 100.459L57.1713 103.764L60.2251 104.583L61.2822 101.603L58.057 100.459ZM52.6692 99.0152L49.304 98.3935L48.7297 101.502L51.7835 102.321L52.6692 99.0152ZM53.2672 95.7784L56.6324 96.4001L57.1561 93.5653L54.4514 92.5677L53.2672 95.7784ZM44.9627 91.2843L47.0012 88.5356L44.8921 86.9714L42.8353 88.6037L44.9627 91.2843ZM40.5689 94.7712L38.1491 97.191L40.3064 99.3484L42.6962 97.4518L40.5689 94.7712ZM34.5212 88.7236L31.8407 86.5962L29.9441 88.986L32.1014 91.1434L34.5212 88.7236ZM38.0079 84.3301L40.6885 86.4575L42.3209 84.4005L40.7564 82.2914L38.0079 84.3301ZM33.5369 76.0903L36.7451 74.8991L35.7456 72.2074L32.9212 72.724L33.5369 76.0903ZM30.263 76.6891L26.9575 77.5748L27.7743 80.6232L30.8787 80.0554L30.263 76.6891ZM28.7864 71.1785L27.6365 67.9554L24.6641 69.0158L25.4809 72.0642L28.7864 71.1785ZM31.9256 70.0586L33.0754 73.2818L35.7761 72.3183L35.3002 69.4907L31.9256 70.0586ZM31.9261 58.9075L35.3007 59.4758L35.777 56.6477L33.0757 55.6843L31.9261 58.9075ZM28.7656 57.7803L25.4601 56.8946L24.6432 59.9434L27.6161 61.0036L28.7656 57.7803ZM30.2422 52.2698L30.8583 48.9036L27.7536 48.3353L26.9367 51.384L30.2422 52.2698ZM33.5392 52.8732L32.9231 56.2394L35.7472 56.7562L36.7471 54.065L33.5392 52.8732ZM38.0285 44.6116L40.7749 46.6532L42.3443 44.542L40.7077 42.4825L38.0285 44.6116ZM34.5454 40.2283L32.1256 37.8085L29.9668 39.9672L31.8662 42.3574L34.5454 40.2283ZM40.5589 34.2148L42.6879 31.5356L40.2978 29.6363L38.1391 31.795L40.5589 34.2148ZM44.9437 37.6992L42.8147 40.3784L44.8733 42.0143L46.9842 40.4465L44.9437 37.6992ZM53.2481 33.1982L54.4343 36.4081L57.1386 35.4088L56.6128 32.5741L53.2481 33.1982ZM57.09 24.8896L51.7022 26.3333L53.4736 32.9443L58.8615 31.5006L57.09 24.8896ZM62.4113 30.4704L61.2017 27.0532L54.7498 29.3371L55.9594 32.7543L62.4113 30.4704ZM64.8058 27.7185C62.6976 27.7185 60.6283 27.8963 58.6127 28.2385L59.7581 34.9862C61.3968 34.708 63.083 34.5628 64.8058 34.5628V27.7185ZM71.0345 28.2445C69.0077 27.8984 66.9264 27.7185 64.8058 27.7185V34.5628C66.5387 34.5628 68.2346 34.7097 69.8824 34.9911L71.0345 28.2445ZM68.3359 27.3655L67.2333 30.4737L73.6836 32.762L74.7863 29.6539L68.3359 27.3655ZM77.8346 26.6479L72.4468 25.2042L70.6754 31.8152L76.0632 33.2589L77.8346 26.6479ZM79.7155 33.815L80.3141 30.5751L73.5837 29.3317L72.9852 32.5716L79.7155 33.815ZM86.6899 34.9383C83.9145 32.8795 80.8371 31.2014 77.5352 29.9828L75.1655 36.4037C77.8482 37.3938 80.3518 38.7584 82.6124 40.4353L86.6899 34.9383ZM86.9178 31.5191L82.5238 35.0062L86.7785 40.3673L91.1725 36.8802L86.9178 31.5191ZM97.5126 37.8275L91.465 31.7798L86.6253 36.6194L92.673 42.6671L97.5126 37.8275ZM94.286 46.769L97.7734 42.3746L92.4123 38.12L88.9249 42.5143L94.286 46.769ZM99.2806 51.6821C98.0646 48.4089 96.3968 45.3574 94.3541 42.6031L88.8568 46.6802C90.5205 48.9235 91.8768 51.4061 92.8648 54.0656L99.2806 51.6821ZM96.6884 56.2401L99.9267 55.6478L98.6952 48.9153L95.457 49.5076L96.6884 56.2401ZM96.0054 53.1672L97.482 58.6778L104.093 56.9064L102.616 51.3958L96.0054 53.1672ZM99.6376 54.569L96.5342 55.6761L98.834 62.1224L101.937 61.0153L99.6376 54.569ZM101.572 64.4847C101.572 62.39 101.396 60.3336 101.059 58.3302L94.3097 59.4684C94.5844 61.0973 94.7278 62.7729 94.7278 64.4847H101.572ZM101.06 70.6283C101.397 68.6284 101.572 66.5757 101.572 64.4847H94.7278C94.7278 66.1934 94.5849 67.8661 94.3112 69.4922L101.06 70.6283ZM102.003 67.9668L98.8354 66.837L96.5362 73.2835L99.7042 74.4133L102.003 67.9668ZM102.683 77.5864L104.159 72.0758L97.5482 70.3044L96.0717 75.8149L102.683 77.5864ZM95.4565 79.4621L98.7611 80.0669L99.9932 73.3344L96.6887 72.7297L95.4565 79.4621ZM94.3393 86.3863C96.3887 83.6269 98.0616 80.5686 99.2805 77.2876L92.8647 74.9041C91.8743 77.5699 90.5139 80.0579 88.8447 82.3055L94.3393 86.3863ZM97.762 86.6097L94.2712 82.2169L88.9128 86.4749L92.4036 90.8677L97.762 86.6097ZM91.4891 97.172L97.5026 91.1585L92.663 86.3189L86.6495 92.3324L91.4891 97.172ZM82.549 93.9419L86.9402 97.4314L91.1983 92.073L86.8071 88.5835L82.549 93.9419ZM77.5628 98.9765C80.866 97.7543 83.9441 96.0722 86.7196 94.0092L82.6365 88.5162C80.3759 90.1966 77.8717 91.5645 75.1879 92.5574L77.5628 98.9765ZM80.4006 98.7044L79.7401 95.1429L73.0106 96.391L73.6711 99.9525L80.4006 98.7044ZM72.5338 104.078L77.9216 102.634L76.1502 96.023L70.7624 97.4666L72.5338 104.078ZM67.2125 98.497L68.4221 101.914L74.874 99.6302L73.6645 96.2131L67.2125 98.497ZM64.8058 101.251C66.9187 101.251 68.9926 101.072 71.0125 100.729L69.8645 93.9814C68.2223 94.2608 66.5324 94.4067 64.8058 94.4067V101.251ZM58.5835 100.726C60.6083 101.071 62.6874 101.251 64.8058 101.251V94.4067C63.0747 94.4067 61.3806 94.26 59.7344 93.9792L58.5835 100.726ZM61.2822 101.603L62.3841 98.4968L55.9338 96.2085L54.8318 99.3147L61.2822 101.603ZM51.7835 102.321L57.1713 103.764L58.9427 97.1533L53.5549 95.7097L51.7835 102.321ZM49.902 95.1567L49.304 98.3935L56.0344 99.6369L56.6324 96.4001L49.902 95.1567ZM42.9241 94.033C45.7007 96.0923 48.7795 97.7706 52.083 98.989L54.4514 92.5677C51.7674 91.5777 49.2628 90.2129 47.0012 88.5356L42.9241 94.033ZM42.6962 97.4518L47.09 93.9649L42.8353 88.6037L38.4416 92.0907L42.6962 97.4518ZM32.1014 91.1434L38.1491 97.191L42.9887 92.3514L36.941 86.3038L32.1014 91.1434ZM35.3274 82.2028L31.8407 86.5962L37.2018 90.8509L40.6885 86.4575L35.3274 82.2028ZM30.3288 77.2814C31.5454 80.5579 33.2146 83.6123 35.2594 86.3689L40.7564 82.2914C39.0909 80.0461 37.7335 77.5612 36.7451 74.8991L30.3288 77.2814ZM32.9212 72.724L29.6472 73.3228L30.8787 80.0554L34.1527 79.4565L32.9212 72.724ZM33.5685 75.8034L32.0919 70.2928L25.4809 72.0642L26.9575 77.5748L33.5685 75.8034ZM29.9363 74.4017L33.0754 73.2818L30.7757 66.8355L27.6365 67.9554L29.9363 74.4017ZM28.0396 64.4847C28.0396 66.575 28.2144 68.6271 28.5509 70.6265L35.3002 69.4907C35.0267 67.8651 34.8839 66.1929 34.8839 64.4847H28.0396ZM28.5515 58.3393C28.2146 60.3398 28.0396 62.3932 28.0396 64.4847H34.8839C34.8839 62.7755 35.0268 61.1023 35.3007 59.4758L28.5515 58.3393ZM27.6161 61.0036L30.7766 62.1308L33.0757 55.6843L29.9152 54.5571L27.6161 61.0036ZM26.9367 51.384L25.4601 56.8946L32.0711 58.6661L33.5477 53.1555L26.9367 51.384ZM34.1553 49.507L30.8583 48.9036L29.6261 55.636L32.9231 56.2394L34.1553 49.507ZM35.2821 42.5699C33.2284 45.3326 31.5521 48.3953 30.3313 51.6814L36.7471 54.065C37.739 51.395 39.1021 48.9034 40.7749 46.6532L35.2821 42.5699ZM31.8662 42.3574L35.3494 46.7406L40.7077 42.4825L37.2245 38.0993L31.8662 42.3574ZM38.1391 31.795L32.1256 37.8085L36.9652 42.6481L42.9787 36.6346L38.1391 31.795ZM47.0728 35.02L42.6879 31.5356L38.4298 36.894L42.8147 40.3784L47.0728 35.02ZM52.0619 29.9882C48.7581 31.2091 45.6794 32.89 42.9032 34.952L46.9842 40.4465C49.2454 38.767 51.7501 37.4001 54.4343 36.4081L52.0619 29.9882ZM49.2232 30.2628L49.8834 33.8222L56.6128 32.5741L55.9527 29.0147L49.2232 30.2628Z" fill="#323232" mask="url(#path-1-outside-1)"/>
<path d="M33.3078 39.018L32.2284 40.0974L33.1781 41.2924L57.3208 71.6736L57.4426 71.8269L57.5959 71.9487L87.9771 96.0914L89.1721 97.0411L90.2515 95.9617L96.265 89.9482L97.3444 88.8689L96.3947 87.6738L72.252 57.2926L72.1302 57.1393L71.9769 57.0175L41.5957 32.8748L40.4007 31.9251L39.3213 33.0045L33.3078 39.018Z" fill="#323232" stroke="#323232" stroke-width="3.42212"/>
<path d="M90.2336 32.9894L89.1549 31.9107L87.96 32.859L57.5611 56.984L57.4069 57.1064L57.2845 57.2606L33.1595 87.6595L32.2112 88.8544L33.2899 89.9331L39.3375 95.9808L40.4162 97.0594L41.6111 96.1111L72.01 71.9861L72.1642 71.8638L72.2866 71.7095L96.4116 41.3106L97.3599 40.1157L96.2813 39.037L90.2336 32.9894Z" fill="#323232" stroke="#323232" stroke-width="3.42212"/>
<circle cx="64.7836" cy="64.4828" r="25.108" fill="#735813" stroke="#323232" stroke-width="5.70353"/>
<path d="M65.2233 49.0217L64.7868 48.8409L64.3503 49.0217L54.1623 53.2417L53.7258 53.4225L53.545 53.859L49.325 64.0469L49.1442 64.4834L49.325 64.92L53.545 75.1079L53.7258 75.5444L54.1623 75.7252L64.3503 79.9452L64.7868 80.126L65.2233 79.9452L75.4112 75.7252L75.8478 75.5444L76.0286 75.1079L80.2485 64.92L80.4294 64.4834L80.2485 64.0469L76.0286 53.859L75.8478 53.4225L75.4112 53.2417L65.2233 49.0217Z" fill="#FF4D35" stroke="#323232" stroke-width="2.28141"/>
<rect x="63.6484" y="49.3159" width="2.28141" height="29.9533" fill="#323232"/>
<rect x="49.8164" y="65.4327" width="2.28141" height="29.9533" transform="rotate(-90 49.8164 65.4327)" fill="#323232"/>
<rect x="53.3906" y="54.5092" width="2.28141" height="29.9533" transform="rotate(-45 53.3906 54.5092)" fill="#323232"/>
<rect width="2.28141" height="29.9533" transform="matrix(-0.707107 -0.707107 -0.707107 0.707107 76.1836 54.5092)" fill="#323232"/>
<circle cx="64.7852" cy="64.4826" r="8.90623" fill="#921F1D" stroke="#323232" stroke-width="2.28141"/>
</svg>
