<svg width="91" height="126" viewBox="0 0 91 126" fill="none" xmlns="http://www.w3.org/2000/svg">
<mask id="path-1-outside-1" maskUnits="userSpaceOnUse" x="0.253906" y="0.696838" width="90" height="125" fill="black">
<rect fill="white" x="0.253906" y="0.696838" width="90" height="125"/>
<path fill-rule="evenodd" clip-rule="evenodd" d="M48.7602 22.7251L48.7752 17.462C50.5914 17.4152 52.0538 15.9333 52.057 14.101C52.0642 12.2351 50.5586 10.7254 48.6941 10.7195L41.9453 10.6968C40.0817 10.693 38.5655 12.1955 38.5617 14.0605C38.5571 15.893 40.0082 17.3815 41.8245 17.4411L41.8096 22.663C24.1113 26.51 10.2532 60.0099 10.2539 81.3065C10.256 103.933 25.8732 115.197 45.144 115.2C64.4098 115.2 80.0255 103.932 80.0291 81.3086C80.0311 60.1246 66.32 26.8741 48.7602 22.7251Z"/>
</mask>
<path d="M48.7752 17.462L48.518 7.46528L38.8031 7.71527L38.7753 17.4334L48.7752 17.462ZM48.7602 22.7251L38.7602 22.6965L38.7375 30.6324L46.4608 32.4572L48.7602 22.7251ZM52.057 14.101L42.057 14.062L42.057 14.0728L42.057 14.0836L52.057 14.101ZM48.6941 10.7195L48.6606 20.7194L48.6622 20.7194L48.6941 10.7195ZM41.9453 10.6968L41.9788 0.696895L41.9662 0.696868L41.9453 10.6968ZM38.5617 14.0605L48.5616 14.0857L48.5617 14.0809L38.5617 14.0605ZM41.8245 17.4411L51.8245 17.4697L51.8522 7.76456L42.1523 7.44645L41.8245 17.4411ZM41.8096 22.663L43.9337 32.4348L51.7865 30.7278L51.8095 22.6916L41.8096 22.663ZM10.2539 81.3065L0.253906 81.3068V81.3074L10.2539 81.3065ZM45.144 115.2L45.1429 125.2H45.144V115.2ZM80.0291 81.3086L90.0291 81.3101V81.3095L80.0291 81.3086ZM38.7753 17.4334L38.7602 22.6965L58.7601 22.7538L58.7752 17.4906L38.7753 17.4334ZM42.057 14.0836C42.0633 10.4687 44.9515 7.55706 48.518 7.46528L49.0325 27.4587C56.2314 27.2734 62.0443 21.3979 62.0569 14.1184L42.057 14.0836ZM48.6622 20.7194C45.0243 20.7078 42.0427 17.7448 42.057 14.062L62.0569 14.14C62.0858 6.72532 56.0929 0.743101 48.7261 0.719536L48.6622 20.7194ZM41.9117 20.6968L48.6606 20.7194L48.7277 0.719541L41.9788 0.696902L41.9117 20.6968ZM48.5617 14.0809C48.5542 17.7648 45.558 20.7044 41.9244 20.6968L41.9662 0.696868C34.6054 0.68148 28.5768 6.62633 28.5617 14.0402L48.5617 14.0809ZM42.1523 7.44645C45.711 7.56316 48.5707 10.4861 48.5616 14.0857L28.5617 14.0354C28.5435 21.2999 34.3053 27.1999 41.4967 27.4357L42.1523 7.44645ZM51.8095 22.6916L51.8245 17.4697L31.8245 17.4125L31.8096 22.6344L51.8095 22.6916ZM20.2539 81.3061C20.2536 72.4543 23.2386 60.262 28.3644 49.862C30.8969 44.7235 33.7635 40.4139 36.6856 37.3172C39.6613 34.1637 42.1607 32.8202 43.9337 32.4348L39.6855 12.8912C32.6093 14.4293 26.7396 18.7159 22.1393 23.5911C17.4853 28.5232 13.569 34.6409 10.4249 41.0203C4.19721 53.6561 0.253507 68.8621 0.253906 81.3068L20.2539 81.3061ZM45.1451 105.2C37.3821 105.199 31.2244 102.936 27.1384 99.2823C23.2209 95.7798 20.2547 90.1628 20.2539 81.3055L0.253906 81.3074C0.255197 95.0768 5.09864 106.405 13.808 114.192C22.3488 121.828 33.635 125.198 45.1429 125.2L45.1451 105.2ZM70.0291 81.307C70.0277 90.1631 67.0615 95.7807 63.1441 99.2836C59.0587 102.937 52.9029 105.2 45.144 105.2V125.2C56.6509 125.2 67.9358 121.829 76.4756 114.192C85.1835 106.406 90.0269 95.0779 90.0291 81.3101L70.0291 81.307ZM46.4608 32.4572C48.2613 32.8826 50.7728 34.2833 53.7364 37.4654C56.6455 40.5891 59.4907 44.9048 61.9997 50.0274C67.0785 60.3966 70.0299 72.5056 70.0291 81.3076L90.0291 81.3095C90.0303 68.9276 86.1272 53.8193 79.961 41.23C76.8475 34.8733 72.9726 28.7745 68.3722 23.8349C63.8263 18.9536 58.039 14.6421 51.0596 12.9931L46.4608 32.4572Z" fill="black" mask="url(#path-1-outside-1)"/>
<path fill-rule="evenodd" clip-rule="evenodd" d="M48.7752 17.4619L48.7602 22.7251C66.32 26.8741 80.0311 60.1246 80.0291 81.3086C80.0255 103.932 64.4098 115.2 45.144 115.2C25.8732 115.197 10.256 103.933 10.2539 81.3065C10.2532 60.0099 24.1113 26.51 41.8096 22.663L41.8245 17.441C40.0082 17.3814 38.5571 15.8929 38.5617 14.0605C38.5655 12.1955 40.0817 10.6929 41.9453 10.6968L48.6941 10.7194C50.5586 10.7254 52.0642 12.235 52.057 14.1009C52.0538 15.9333 50.5914 17.4152 48.7752 17.4619ZM36.1095 100.324C37.2607 100.218 38.2789 101.064 38.3864 102.215C38.4932 103.367 37.6461 104.387 36.4949 104.494C31.8577 104.923 27.1901 103.02 23.6737 99.2657C19.5774 94.8865 17.7142 88.6209 18.6935 82.5051C18.8752 81.3631 19.9486 80.5853 21.0906 80.7684C21.5431 80.8406 21.9384 81.0534 22.2389 81.3539C22.6979 81.8129 22.9376 82.4768 22.8265 83.1663C22.0516 88.0142 23.5117 92.9632 26.7312 96.4047C29.3362 99.2048 32.7685 100.632 36.1095 100.324Z" fill="#3BE300"/>
<rect x="41.8125" y="18.4492" width="6.95684" height="3.4534" fill="#258E00"/>
</svg>
