<svg width="70" height="70" viewBox="0 0 70 70" fill="none" xmlns="http://www.w3.org/2000/svg">
<path d="M34.6775 0.340088C15.6574 0.340088 0.208618 15.7883 0.208618 34.8089C0.208618 53.8296 15.6568 69.2778 34.6769 69.2778C53.6982 69.2778 69.1463 53.8296 69.1463 34.8089C69.1463 15.7883 53.6982 0.340088 34.6775 0.340088V0.340088ZM34.6775 3.0587C52.2285 3.0587 66.4277 17.2579 66.4277 34.8089C66.4277 52.36 52.2285 66.5592 34.6775 66.5592C17.1264 66.5592 2.92723 52.36 2.92723 34.8089C2.92723 17.2573 17.1264 3.0587 34.6775 3.0587V3.0587ZM49.3999 9.79721L38.2825 29.13C40.5982 30.5317 41.9458 32.9605 42.0841 35.4999H63.6766C63.916 25.3133 58.8041 15.2952 49.3999 9.79721ZM19.5552 10.1562C15.4804 12.6642 12.0941 16.1472 9.70182 20.291C6.9357 25.0818 5.78415 30.3477 5.91945 35.4999H26.2703C26.3304 34.2852 26.669 33.0657 27.3166 31.9442C28.0465 30.6765 29.1154 29.6373 30.4032 28.9436L19.5552 10.1562V10.1562ZM34.1916 30.694C34.0653 30.694 33.939 30.6989 33.8134 30.7079C32.9621 30.7664 32.1384 31.0339 31.4152 31.4867C30.692 31.9395 30.0916 32.5636 29.6672 33.3038C29.3228 33.8957 29.0989 34.55 29.0085 35.2288C28.9181 35.9076 28.9629 36.5977 29.1403 37.2591C29.3178 37.9205 29.6244 38.5403 30.0425 39.0827C30.4606 39.6251 30.9819 40.0794 31.5764 40.4194C32.1677 40.7642 32.8214 40.9885 33.4998 41.0793C34.1782 41.1702 34.8679 41.1258 35.529 40.9486C36.1902 40.7715 36.8097 40.4652 37.3519 40.0474C37.894 39.6296 38.348 39.1086 38.6877 38.5143C39.0323 37.9227 39.2564 37.2687 39.3471 36.5901C39.4377 35.9114 39.3932 35.2215 39.2161 34.5602C39.039 33.8988 38.7327 33.279 38.315 32.7366C37.8972 32.1941 37.3763 31.7396 36.7821 31.3994C35.9948 30.9416 35.1011 30.6986 34.1904 30.6946L34.1916 30.694ZM38.2969 42.6792C35.9505 44.0983 32.933 44.257 30.381 42.8614L20.4831 59.9163C24.7682 62.3583 29.3647 63.5796 33.9769 63.6987C39.0071 63.8298 43.9758 62.5664 48.3998 60.2025L38.2969 42.6792Z" fill="white" fill-opacity="0.15"/>
</svg>
