<svg width="129" height="129" viewBox="0 0 129 129" fill="none" xmlns="http://www.w3.org/2000/svg">
<path d="M97.5205 96.3762C97.5205 78.4321 82.9739 63.886 65.0298 63.8866C47.0856 63.8872 32.5391 78.4343 32.5391 96.3784C32.5391 114.323 47.0856 128.869 65.0298 128.868C82.9739 128.867 97.5205 114.32 97.5205 96.3762Z" fill="#D03215"/>
<path d="M64.8659 108.492C89.8081 108.492 110.027 88.2722 110.026 63.33C110.025 38.3877 89.805 18.168 64.8627 18.168C39.9204 18.168 19.7014 38.3877 19.7023 63.33C19.7031 88.2722 39.9236 108.492 64.8659 108.492Z" fill="#BB2B10"/>
<path d="M92.3688 89.139C91.2822 110.056 69.7312 121.85 59.0915 125.133C59.0915 104.08 42.4529 112.909 40.0759 89.139C37.699 65.3696 53.6585 55.1827 66.2224 55.5222C78.7862 55.8618 93.727 62.9926 92.3688 89.139Z" fill="url(#paint0_linear)"/>
<path d="M110.205 53.7526C120.074 72.2271 107.707 93.4546 100.29 101.759C89.4203 83.7293 79.7293 99.8808 65.4213 80.7518C51.1133 61.6228 59.5215 44.6587 70.4565 38.4627C81.3915 32.2666 97.8686 30.6594 110.205 53.7526Z" fill="url(#paint1_linear)"/>
<path d="M23.1731 45.654C11.0634 62.7438 20.6684 85.3556 26.9846 94.5252C40.0313 78.0022 47.6187 95.2423 64.2143 78.0602C80.8099 60.8781 74.5972 42.9929 64.5263 35.4735C54.4553 27.9541 38.3102 24.2917 23.1731 45.654Z" fill="url(#paint2_linear)"/>
<path d="M38.4664 62.8212C39.5744 83.8379 61.5491 95.6882 72.398 98.9863C72.398 77.8332 89.3638 86.7038 91.7875 62.8212C94.2111 38.9386 77.9378 28.7032 65.1269 29.0444C52.316 29.3856 37.0814 36.5504 38.4664 62.8212Z" fill="url(#paint3_linear)"/>
<path d="M85.1726 44.1065C84.3451 59.818 67.9336 68.677 59.8313 71.1426C59.8313 55.329 47.1606 61.9605 45.3505 44.1065C43.5404 26.2526 55.6939 18.6008 65.2615 18.8559C74.8292 19.111 86.2069 24.4672 85.1726 44.1065Z" fill="url(#paint4_linear)"/>
<path d="M109.525 45.6433C115.26 59.1194 106.099 72.7245 100.801 77.8426C94.3805 64.5927 87.2226 74.9223 78.5666 60.6447C69.9105 46.3671 76.2521 35.3775 83.7937 31.987C91.3352 28.5965 102.355 28.7982 109.525 45.6433Z" fill="url(#paint5_linear)"/>
<path d="M20.4065 42.4085C12.8943 54.98 19.8404 69.494 24.2524 75.1796C32.3974 62.9142 37.8674 73.9584 48.3328 60.9534C58.7982 47.9484 54.2163 36.3537 47.3754 32.096C40.5344 27.8382 29.7967 26.694 20.4065 42.4085Z" fill="url(#paint6_linear)"/>
<path d="M27.4474 82.8112C25.7599 97.3587 38.053 107.74 44.4106 111.113C46.8009 96.5848 56.3234 104.409 60.5257 88.2536C64.728 72.0983 55.7893 63.4075 47.8034 62.3343C39.8174 61.261 29.5569 64.6269 27.4474 82.8112Z" fill="url(#paint7_linear)"/>
<path d="M100.303 75.917C105.119 89.7475 95.3829 102.558 89.9127 107.234C84.415 93.5757 76.8256 103.286 69.205 88.4343C61.5844 73.5824 68.4153 63.1532 75.9757 60.3661C83.536 57.579 94.2834 58.6289 100.303 75.917Z" fill="url(#paint8_linear)"/>
<path d="M118.447 23.9971C117.606 36.4734 105.023 46.0402 96.7837 47.998C96.7837 35.4408 79.7939 38.1747 77.9533 23.9971C76.1126 9.81953 88.4712 3.74341 98.2003 3.94595C107.929 4.14849 119.499 8.40178 118.447 23.9971Z" fill="#FF0000"/>
<path d="M118.447 23.9971C117.606 36.4734 105.023 46.0402 96.7837 47.998C96.7837 35.4408 79.7939 38.1747 77.9533 23.9971C76.1126 9.81953 88.4712 3.74341 98.2003 3.94595C107.929 4.14849 119.499 8.40178 118.447 23.9971Z" fill="url(#paint9_linear)"/>
<path fill-rule="evenodd" clip-rule="evenodd" d="M93.0143 52.7676L93.0143 47.9978C93.0143 45.8626 92.3495 44.5883 91.3493 43.5205C90.1661 42.2574 88.4984 41.2495 86.1343 39.8459L86.0303 39.7841C81.5942 37.1509 75.3813 33.4629 74.2153 24.4821C73.1206 16.0502 76.3089 9.70176 81.3811 5.6374C86.2704 1.7195 92.7034 0.0612907 98.2786 0.177353C103.547 0.287037 109.786 1.48498 114.655 5.20374C119.761 9.10467 122.808 15.3568 122.208 24.2505C121.706 31.6967 117.732 38.0228 113.028 42.6335C108.344 47.2245 102.55 50.5017 97.6549 51.6648L93.0143 52.7676ZM107.751 37.25C111.609 33.4687 114.347 28.7733 114.687 23.7432C115.139 17.0416 112.926 13.3694 110.078 11.1942C106.992 8.83687 102.582 7.80689 98.1217 7.71404C93.9678 7.62756 89.357 8.90615 86.0949 11.5201C83.0156 13.9875 80.945 17.766 81.6909 23.5116C82.3565 28.638 85.4701 30.6847 89.9828 33.364C90.0811 33.4223 90.1807 33.4814 90.2815 33.5411C92.3456 34.7643 94.8869 36.2703 96.8509 38.367C98.0685 39.6669 99.0551 41.1726 99.7026 42.9405C102.323 41.6857 105.197 39.7532 107.751 37.25Z" fill="#BB2B10"/>
<mask id="mask0" mask-type="alpha" maskUnits="userSpaceOnUse" x="6" y="0" width="52" height="52">
<rect x="6.07373" y="51.7852" width="51.6137" height="51.6137" transform="rotate(-90 6.07373 51.7852)" fill="#C4C4C4"/>
</mask>
<g mask="url(#mask0)">
<path d="M11.5751 23.9971C12.4166 36.4734 24.9998 46.0402 33.2388 47.998C33.2388 35.4408 50.2285 38.1747 52.0692 23.9971C53.9098 9.81952 41.5512 3.74341 31.8221 3.94595C22.093 4.14849 10.5233 8.40178 11.5751 23.9971Z" fill="#FF0000"/>
<path d="M11.5751 23.9971C12.4166 36.4734 24.9998 46.0402 33.2388 47.998C33.2388 35.4408 50.2285 38.1747 52.0692 23.9971C53.9098 9.81952 41.5512 3.74341 31.8221 3.94595C22.093 4.14849 10.5233 8.40178 11.5751 23.9971Z" fill="url(#paint10_linear)"/>
<path fill-rule="evenodd" clip-rule="evenodd" d="M37.0076 51.7852L37.0076 47.1044C37.0076 45.0091 37.6725 43.7586 38.6727 42.7108C39.8559 41.4712 41.5235 40.4822 43.8876 39.1048L43.9917 39.0442C48.4278 36.4601 54.6407 32.841 55.8066 24.0279C56.9013 15.7534 53.713 9.52355 48.6409 5.5351C43.7515 1.69036 37.3186 0.0631204 31.7434 0.177013C26.4746 0.284649 20.2356 1.46022 15.3674 5.10953C10.2608 8.93762 7.21434 15.073 7.81416 23.8006C8.31636 31.1078 12.2902 37.3157 16.9941 41.8403C21.678 46.3456 27.4722 49.5616 32.3671 50.703L37.0076 51.7852ZM22.2709 36.5573C18.4131 32.8467 15.6746 28.2389 15.3354 23.3028C14.8834 16.7264 17.096 13.1227 19.9435 10.9882C23.0295 8.67482 27.4399 7.66408 31.9003 7.57296C36.0541 7.4881 40.665 8.7428 43.927 11.3079C47.0063 13.7293 49.077 17.4372 48.331 23.0755C47.6655 28.1061 44.5518 30.1147 40.0392 32.7439C39.9408 32.8012 39.8412 32.8591 39.7405 32.9177C37.6763 34.1181 35.1351 35.5959 33.1711 37.6535C31.9535 38.9291 30.9669 40.4067 30.3194 42.1416C27.6991 40.9102 24.8247 39.0138 22.2709 36.5573Z" fill="#BB2B10"/>
</g>
<defs>
<linearGradient id="paint0_linear" x1="66.1468" y1="125.133" x2="66.1468" y2="55.514" gradientUnits="userSpaceOnUse">
<stop offset="0.135417" stop-color="#FFA31A"/>
<stop offset="1" stop-color="#FF831A" stop-opacity="0"/>
</linearGradient>
<linearGradient id="paint1_linear" x1="106.332" y1="98.1164" x2="70.3876" y2="38.4946" gradientUnits="userSpaceOnUse">
<stop offset="0.135417" stop-color="#FFA31A"/>
<stop offset="1" stop-color="#FF831A" stop-opacity="0"/>
</linearGradient>
<linearGradient id="paint2_linear" x1="21.4474" y1="90.153" x2="64.5906" y2="35.5139" gradientUnits="userSpaceOnUse">
<stop offset="0.135417" stop-color="#FFA31A"/>
<stop offset="1" stop-color="#FF831A" stop-opacity="0"/>
</linearGradient>
<linearGradient id="paint3_linear" x1="65.204" y1="98.9863" x2="65.204" y2="29.0362" gradientUnits="userSpaceOnUse">
<stop offset="0.135417" stop-color="#FFCD1A"/>
<stop offset="1" stop-color="#FF831A" stop-opacity="0"/>
</linearGradient>
<linearGradient id="paint4_linear" x1="65.204" y1="71.1426" x2="65.204" y2="18.8497" gradientUnits="userSpaceOnUse">
<stop offset="0.135417" stop-color="#FFCD1A"/>
<stop offset="1" stop-color="#FF831A" stop-opacity="0"/>
</linearGradient>
<linearGradient id="paint5_linear" x1="104.978" y1="75.8186" x2="83.7464" y2="32.0035" gradientUnits="userSpaceOnUse">
<stop offset="0.135417" stop-color="#FFCD1A"/>
<stop offset="1" stop-color="#FF831A" stop-opacity="0"/>
</linearGradient>
<linearGradient id="paint6_linear" x1="20.4846" y1="72.6775" x2="47.4189" y2="32.118" gradientUnits="userSpaceOnUse">
<stop offset="0.135417" stop-color="#FFCD1A"/>
<stop offset="1" stop-color="#FF831A" stop-opacity="0"/>
</linearGradient>
<linearGradient id="paint7_linear" x1="39.9477" y1="110.379" x2="47.8521" y2="62.3365" gradientUnits="userSpaceOnUse">
<stop offset="0.135417" stop-color="#FFCD1A"/>
<stop offset="1" stop-color="#FF831A" stop-opacity="0"/>
</linearGradient>
<linearGradient id="paint8_linear" x1="94.1085" y1="105.545" x2="75.9286" y2="60.3788" gradientUnits="userSpaceOnUse">
<stop offset="0.135417" stop-color="#FFCD1A"/>
<stop offset="1" stop-color="#FF831A" stop-opacity="0"/>
</linearGradient>
<linearGradient id="paint9_linear" x1="98.1418" y1="45.466" x2="98.1418" y2="3.94109" gradientUnits="userSpaceOnUse">
<stop offset="0.135417" stop-color="#FFCD1A"/>
<stop offset="1" stop-color="#FF831A" stop-opacity="0"/>
</linearGradient>
<linearGradient id="paint10_linear" x1="31.8806" y1="45.466" x2="31.8806" y2="3.94109" gradientUnits="userSpaceOnUse">
<stop offset="0.135417" stop-color="#FFCD1A"/>
<stop offset="1" stop-color="#FF831A" stop-opacity="0"/>
</linearGradient>
</defs>
</svg>
