<svg width="193" height="118" viewBox="0 0 193 118" fill="none" xmlns="http://www.w3.org/2000/svg">
<path d="M31.9453 4.69922H158.309V69.082L133.709 54.6381L99.0889 45.346L65.2015 66.6396L31.9453 41.7871V4.69922Z" fill="#00FF35"/>
<g filter="url(#filter0_d)">
<path d="M66.4537 68.5586L79.3838 44.7822H95.7242L75.6421 78.9785L96.2452 113.743H79.7154L66.4537 89.5879L53.1919 113.743H36.6622L57.2652 78.9785L37.1832 44.7822H53.5235L66.4537 68.5586ZM115.713 89.4458V113.743H101.504V44.7822H128.407C133.585 44.7822 138.132 45.7295 142.047 47.624C145.994 49.5186 149.026 52.2183 151.141 55.7231C153.257 59.1965 154.314 63.1592 154.314 67.6113C154.314 74.3685 151.994 79.7048 147.352 83.6201C142.742 87.5039 136.348 89.4458 128.17 89.4458H115.713ZM115.713 77.9365H128.407C132.164 77.9365 135.022 77.0524 136.979 75.2842C138.969 73.516 139.963 70.9899 139.963 67.7061C139.963 64.3275 138.969 61.5962 136.979 59.5122C134.99 57.4282 132.243 56.3547 128.738 56.2915H115.713V77.9365Z" fill="#141414"/>
<path d="M66.4537 68.5586L63.8182 69.9918L66.4537 74.8381L69.0892 69.9918L66.4537 68.5586ZM79.3838 44.7822V41.7822H77.6004L76.7484 43.349L79.3838 44.7822ZM95.7242 44.7822L98.3111 46.3014L100.965 41.7822H95.7242V44.7822ZM75.6421 78.9785L73.0552 77.4593L72.159 78.9855L73.0613 80.508L75.6421 78.9785ZM96.2452 113.743V116.743H101.51L98.826 112.214L96.2452 113.743ZM79.7154 113.743L77.0856 115.187L77.94 116.743H79.7154V113.743ZM66.4537 89.5879L69.0834 88.1441L66.4537 83.3542L63.8239 88.1441L66.4537 89.5879ZM53.1919 113.743V116.743H54.9673L55.8217 115.187L53.1919 113.743ZM36.6622 113.743L34.0813 112.214L31.397 116.743H36.6622V113.743ZM57.2652 78.9785L59.846 80.508L60.7483 78.9855L59.8521 77.4593L57.2652 78.9785ZM37.1832 44.7822V41.7822H31.9423L34.5963 46.3014L37.1832 44.7822ZM53.5235 44.7822L56.159 43.349L55.3069 41.7822H53.5235V44.7822ZM69.0892 69.9918L82.0193 46.2155L76.7484 43.349L63.8182 67.1253L69.0892 69.9918ZM79.3838 47.7822H95.7242V41.7822H79.3838V47.7822ZM93.1373 43.263L73.0552 77.4593L78.229 80.4977L98.3111 46.3014L93.1373 43.263ZM73.0613 80.508L93.6644 115.273L98.826 112.214L78.223 77.449L73.0613 80.508ZM96.2452 110.743H79.7154V116.743H96.2452V110.743ZM82.3451 112.299L69.0834 88.1441L63.8239 91.0317L77.0856 115.187L82.3451 112.299ZM63.8239 88.1441L50.5622 112.299L55.8217 115.187L69.0834 91.0317L63.8239 88.1441ZM53.1919 110.743H36.6622V116.743H53.1919V110.743ZM39.243 115.273L59.846 80.508L54.6844 77.449L34.0813 112.214L39.243 115.273ZM59.8521 77.4593L39.7701 43.263L34.5963 46.3014L54.6783 80.4977L59.8521 77.4593ZM37.1832 47.7822H53.5235V41.7822H37.1832V47.7822ZM50.888 46.2155L63.8182 69.9918L69.0892 67.1253L56.159 43.349L50.888 46.2155ZM115.713 89.4458V86.4458H112.713V89.4458H115.713ZM115.713 113.743V116.743H118.713V113.743H115.713ZM101.504 113.743H98.5044V116.743H101.504V113.743ZM101.504 44.7822V41.7822H98.5044V44.7822H101.504ZM142.047 47.624L140.741 50.3245L140.749 50.3286L142.047 47.624ZM151.141 55.7231L148.573 57.2734L148.579 57.2837L151.141 55.7231ZM147.352 83.6201L149.285 85.9144L149.286 85.9132L147.352 83.6201ZM115.713 77.9365H112.713V80.9365H115.713V77.9365ZM136.979 75.2842L134.986 73.042L134.977 73.0499L134.969 73.0579L136.979 75.2842ZM128.738 56.2915L128.792 53.292L128.765 53.2915H128.738V56.2915ZM115.713 56.2915V53.2915H112.713V56.2915H115.713ZM112.713 89.4458V113.743H118.713V89.4458H112.713ZM115.713 110.743H101.504V116.743H115.713V110.743ZM104.504 113.743V44.7822H98.5044V113.743H104.504ZM101.504 47.7822H128.407V41.7822H101.504V47.7822ZM128.407 47.7822C133.218 47.7822 137.303 48.6612 140.741 50.3245L143.354 44.9235C138.961 42.7978 133.952 41.7822 128.407 41.7822V47.7822ZM140.749 50.3286C144.208 51.9887 146.78 54.304 148.573 57.2734L153.71 54.1729C151.271 50.1325 147.781 47.0484 143.346 44.9195L140.749 50.3286ZM148.579 57.2837C150.381 60.2429 151.314 63.6558 151.314 67.6113H157.314C157.314 62.6626 156.132 58.15 153.703 54.1626L148.579 57.2837ZM151.314 67.6113C151.314 73.5967 149.302 78.0503 145.418 81.327L149.286 85.9132C154.685 81.3592 157.314 75.1403 157.314 67.6113H151.314ZM145.419 81.3258C141.516 84.6139 135.893 86.4458 128.17 86.4458V92.4458C136.803 92.4458 143.968 90.3939 149.285 85.9144L145.419 81.3258ZM128.17 86.4458H115.713V92.4458H128.17V86.4458ZM115.713 80.9365H128.407V74.9365H115.713V80.9365ZM128.407 80.9365C132.594 80.9365 136.286 79.9529 138.99 77.5105L134.969 73.0579C133.757 74.1519 131.734 74.9365 128.407 74.9365V80.9365ZM138.973 77.5264C141.748 75.0593 142.963 71.6302 142.963 67.7061H136.963C136.963 70.3496 136.189 71.9726 134.986 73.042L138.973 77.5264ZM142.963 67.7061C142.963 63.6986 141.762 60.1781 139.15 57.4408L134.809 61.5836C136.175 63.0143 136.963 64.9564 136.963 67.7061H142.963ZM139.15 57.4408C136.491 54.6558 132.913 53.3662 128.792 53.292L128.684 59.291C131.573 59.3431 133.489 60.2007 134.809 61.5836L139.15 57.4408ZM128.738 53.2915H115.713V59.2915H128.738V53.2915ZM112.713 56.2915V77.9365H118.713V56.2915H112.713Z" fill="#00FF35"/>
</g>
<g filter="url(#filter1_d)">
<path d="M52.3664 21.7715H57.8937V26.9082H52.3664V34.8574H47.132V26.9082H41.507V21.7715H47.132V14.1543H52.3664V21.7715ZM80.9226 37.709H75.3758V15.9902L69.9656 18.0801V13.4707L80.3367 9.23242H80.9226V37.709ZM104.712 25.9512C104.712 29.8835 103.996 32.8913 102.564 34.9746C101.145 37.0579 99.1135 38.0996 96.4703 38.0996C93.8531 38.0996 91.8284 37.0905 90.3961 35.0723C88.9768 33.041 88.2411 30.1374 88.189 26.3613V20.9902C88.189 17.071 88.8987 14.0762 90.318 12.0059C91.7372 9.92253 93.775 8.88086 96.4312 8.88086C99.0875 8.88086 101.125 9.90951 102.545 11.9668C103.964 14.0241 104.686 16.9603 104.712 20.7754V25.9512ZM99.1656 20.1895C99.1656 17.9499 98.9443 16.2702 98.5015 15.1504C98.0588 14.0306 97.3687 13.4707 96.4312 13.4707C94.6734 13.4707 93.762 15.5215 93.6969 19.623V26.7129C93.6969 29.0046 93.9182 30.7103 94.3609 31.8301C94.8167 32.9499 95.5198 33.5098 96.4703 33.5098C97.3687 33.5098 98.0328 32.9889 98.4625 31.9473C98.9052 30.8926 99.1396 29.2845 99.1656 27.123V20.1895ZM124.147 25.9512C124.147 29.8835 123.431 32.8913 121.998 34.9746C120.579 37.0579 118.548 38.0996 115.905 38.0996C113.287 38.0996 111.263 37.0905 109.83 35.0723C108.411 33.041 107.676 30.1374 107.623 26.3613V20.9902C107.623 17.071 108.333 14.0762 109.752 12.0059C111.172 9.92253 113.209 8.88086 115.866 8.88086C118.522 8.88086 120.56 9.90951 121.979 11.9668C123.398 14.0241 124.121 16.9603 124.147 20.7754V25.9512ZM118.6 20.1895C118.6 17.9499 118.379 16.2702 117.936 15.1504C117.493 14.0306 116.803 13.4707 115.866 13.4707C114.108 13.4707 113.196 15.5215 113.131 19.623V26.7129C113.131 29.0046 113.353 30.7103 113.795 31.8301C114.251 32.9499 114.954 33.5098 115.905 33.5098C116.803 33.5098 117.467 32.9889 117.897 31.9473C118.34 30.8926 118.574 29.2845 118.6 27.123V20.1895ZM127.097 14.7402C127.097 13.0085 127.572 11.5957 128.523 10.502C129.486 9.4082 130.782 8.86133 132.409 8.86133C134.037 8.86133 135.333 9.40169 136.296 10.4824C137.273 11.5501 137.761 12.9954 137.761 14.8184V16.2441C137.761 18.002 137.279 19.4147 136.316 20.4824C135.352 21.5501 134.063 22.084 132.448 22.084C130.847 22.084 129.551 21.5501 128.562 20.4824C127.585 19.4147 127.097 17.9629 127.097 16.127V14.7402ZM130.691 16.2441C130.691 17.0254 130.853 17.6504 131.179 18.1191C131.517 18.5749 131.941 18.8027 132.448 18.8027C132.969 18.8027 133.379 18.5618 133.679 18.0801C133.991 17.5983 134.148 16.9668 134.148 16.1855V14.7402C134.148 13.985 133.991 13.3665 133.679 12.8848C133.366 12.39 132.943 12.1426 132.409 12.1426C131.889 12.1426 131.472 12.39 131.159 12.8848C130.847 13.3665 130.691 14.0046 130.691 14.7988V16.2441ZM138.308 30.7363C138.308 28.9785 138.796 27.5658 139.773 26.498C140.749 25.4173 142.038 24.877 143.64 24.877C145.254 24.877 146.55 25.4108 147.527 26.4785C148.503 27.5332 148.991 28.985 148.991 30.834V32.2598C148.991 34.0046 148.516 35.4173 147.566 36.498C146.615 37.5658 145.32 38.0996 143.679 38.0996C142.025 38.0996 140.717 37.5592 139.753 36.4785C138.79 35.3978 138.308 33.9655 138.308 32.1816V30.7363ZM141.921 32.2598C141.921 32.9889 142.09 33.6009 142.429 34.0957C142.78 34.5905 143.197 34.8379 143.679 34.8379C144.76 34.8379 145.326 34.0632 145.378 32.5137V30.7363C145.378 29.9681 145.215 29.3496 144.89 28.8809C144.577 28.3991 144.161 28.1582 143.64 28.1582C142.494 28.1582 141.921 29.1543 141.921 31.1465V32.2598ZM133.445 35.5801L130.827 34.0957L142.487 11.8691L145.124 13.3535L133.445 35.5801Z" fill="#141414"/>
</g>
<defs>
<filter id="filter0_d" x="31.3965" y="41.7822" width="126.917" height="75.9609" filterUnits="userSpaceOnUse" color-interpolation-filters="sRGB">
<feFlood flood-opacity="0" result="BackgroundImageFix"/>
<feColorMatrix in="SourceAlpha" type="matrix" values="0 0 0 0 0 0 0 0 0 0 0 0 0 0 0 0 0 0 127 0"/>
<feOffset dx="1" dy="1"/>
<feColorMatrix type="matrix" values="0 0 0 0 0 0 0 0 0 0 0 0 0 0 0 0 0 0 1 0"/>
<feBlend mode="normal" in2="BackgroundImageFix" result="effect1_dropShadow"/>
<feBlend mode="normal" in="SourceGraphic" in2="effect1_dropShadow" result="shape"/>
</filter>
<filter id="filter1_d" x="41.5068" y="8.86133" width="108.484" height="30.2383" filterUnits="userSpaceOnUse" color-interpolation-filters="sRGB">
<feFlood flood-opacity="0" result="BackgroundImageFix"/>
<feColorMatrix in="SourceAlpha" type="matrix" values="0 0 0 0 0 0 0 0 0 0 0 0 0 0 0 0 0 0 127 0"/>
<feOffset dx="1" dy="1"/>
<feColorMatrix type="matrix" values="0 0 0 0 0 0 0 0 0 0 0 0 0 0 0 0 0 0 1 0"/>
<feBlend mode="normal" in2="BackgroundImageFix" result="effect1_dropShadow"/>
<feBlend mode="normal" in="SourceGraphic" in2="effect1_dropShadow" result="shape"/>
</filter>
</defs>
</svg>
