<svg width="129" height="129" viewBox="0 0 129 129" fill="none" xmlns="http://www.w3.org/2000/svg">
<path d="M54.0048 64.3035C54.0048 53.5293 45.2851 44.7933 34.5288 44.7912C23.7725 44.789 15.0527 53.5215 15.0527 64.2957C15.0527 75.07 23.7725 83.8059 34.5288 83.8081C45.2851 83.8102 54.0048 75.0777 54.0048 64.3035Z" fill="#A9476A"/>
<path fill-rule="evenodd" clip-rule="evenodd" d="M34.5273 83.8084V44.7915C34.5275 44.7915 34.5277 44.7915 34.5278 44.7915C45.2389 44.7936 53.9304 53.4562 54.0034 64.1678V64.4399C53.9304 75.1515 45.2389 83.8106 34.5278 83.8084C34.5277 83.8084 34.5275 83.8084 34.5273 83.8084Z" fill="#7D1E40"/>
<path fill-rule="evenodd" clip-rule="evenodd" d="M18.6014 64.2859C18.6014 73.1052 25.7508 80.256 34.57 80.2577C43.3892 80.2595 50.5386 73.1115 50.5386 64.2923C50.5386 55.4731 43.3892 48.3223 34.57 48.3205C25.7508 48.3187 18.6014 55.4667 18.6014 64.2859ZM34.57 87.3591C21.8288 87.3566 11.5 77.0257 11.5 64.2845C11.5 51.5433 21.8288 41.2166 34.57 41.2191C47.3112 41.2217 57.64 51.5525 57.64 64.2937C57.64 77.0349 47.3112 87.3616 34.57 87.3591Z" fill="black"/>
<path d="M116.14 64.3035C116.14 53.5293 107.42 44.7933 96.6636 44.7912C85.9072 44.789 77.1875 53.5215 77.1875 64.2957C77.1875 75.07 85.9072 83.8059 96.6636 83.8081C107.42 83.8102 116.14 75.0777 116.14 64.3035Z" fill="#A9476A"/>
<path fill-rule="evenodd" clip-rule="evenodd" d="M96.6641 83.8079V44.791C96.6642 44.791 96.6643 44.791 96.6644 44.791C107.386 44.7932 116.084 53.4726 116.14 64.1987V64.4081C116.084 75.1341 107.386 83.8101 96.6644 83.8079C96.6643 83.8079 96.6642 83.8079 96.6641 83.8079Z" fill="#7D1E40"/>
<path fill-rule="evenodd" clip-rule="evenodd" d="M80.7381 64.2854C80.7381 73.1047 87.8875 80.2555 96.7067 80.2573C105.526 80.259 112.675 73.1111 112.675 64.2918C112.675 55.4726 105.526 48.3218 96.7067 48.32C87.8875 48.3182 80.7381 55.4662 80.7381 64.2854ZM96.7067 87.3586C83.9655 87.3561 73.6367 77.0252 73.6367 64.284C73.6367 51.5428 83.9655 41.2161 96.7067 41.2186C109.448 41.2212 119.777 51.552 119.777 64.2932C119.777 77.0344 109.448 87.3612 96.7067 87.3586Z" fill="black"/>
</svg>
