<svg width="129" height="129" viewBox="0 0 129 129" fill="none" xmlns="http://www.w3.org/2000/svg">
<path d="M32.1025 47.1389C32.1025 64.5359 46.2056 78.6384 63.6025 78.6378C80.9995 78.6372 95.1025 64.5337 95.1025 47.1367C95.1025 29.7397 80.9995 15.6372 63.6025 15.6378C46.2056 15.6384 32.1025 29.7419 32.1025 47.1389Z" fill="#415501"/>
<path fill-rule="evenodd" clip-rule="evenodd" d="M64.1025 12.6379C82.8802 12.6373 98.1025 27.859 98.1025 46.6367C98.1025 65.4144 82.8802 80.6373 64.1025 80.6379C45.3249 80.6386 30.1025 65.4168 30.1025 46.6391C30.1025 27.8614 45.3249 12.6386 64.1025 12.6379ZM92.9123 46.6369C92.9123 30.7257 80.0137 17.8276 64.1025 17.8282C48.1914 17.8287 35.2928 30.7277 35.2928 46.6389C35.2928 62.5501 48.1914 75.4482 64.1025 75.4476C80.0137 75.4471 92.9123 62.5481 92.9123 46.6369Z" fill="black"/>
<mask id="mask0_2024_5008" style="mask-type:alpha" maskUnits="userSpaceOnUse" x="22" y="29" width="83" height="83">
<path d="M22.1025 70.6368C22.1025 47.9931 40.4709 29.6367 63.1027 29.6367C85.7344 29.6367 104.103 47.9931 104.103 70.6368C104.103 93.2806 85.7344 111.637 63.1027 111.637C40.4709 111.637 22.1025 93.2806 22.1025 70.6368Z" fill="#EDEB7F"/>
</mask>
<g mask="url(#mask0_2024_5008)">
<path d="M17.4893 70.3421L23.3749 72.3253L23.3109 68.0391L17.4893 70.3421Z" fill="#567000"/>
<path d="M26.6377 40.2109L29.0687 47.2481L31.6916 44.4972L26.6377 40.2109Z" fill="#567000"/>
<path d="M17.5527 54.9884L24.5259 59.9144L25.4855 53.8369L17.5527 54.9884Z" fill="#567000"/>
<path d="M25.0381 105.72L30.8597 103.737L29.1324 100.026L25.0381 105.72Z" fill="#567000"/>
<path d="M17.7451 89.7904L25.6779 89.9823L24.3344 84.0967L17.7451 89.7904Z" fill="#567000"/>
<path d="M64.1331 112.68C88.0271 112.68 107.397 93.9068 107.397 70.7495C107.397 47.5921 88.0271 28.8193 64.1331 28.8193C40.2391 28.8193 20.8691 47.5921 20.8691 70.7494C20.8691 93.9068 40.2391 112.68 64.1331 112.68Z" fill="#567000"/>
<path d="M28.6211 65.8636L34.5067 68.0387L34.4427 63.4326L28.6211 65.8636Z" fill="#799E00"/>
<path d="M28.749 49.5505L35.7222 54.7963L36.6818 48.335L28.749 49.5505Z" fill="#799E00"/>
<path d="M35.5303 104.504L41.4159 102.393L39.6886 98.4902L35.5303 104.504Z" fill="#799E00"/>
<path d="M28.876 86.5917L36.8727 86.8476L35.4653 80.5781L28.876 86.5917Z" fill="#799E00"/>
<path d="M49.2202 108.599C58.4771 108.599 65.9813 91.6712 65.9813 70.7901C65.9813 49.9089 58.4771 32.9814 49.2202 32.9814C39.9632 32.9814 32.459 49.9089 32.459 70.7901C32.459 91.6712 39.9632 108.599 49.2202 108.599Z" fill="#799E00"/>
<path d="M99.6321 40.2109L97.2011 47.2481L94.5781 44.4972L99.6321 40.2109Z" fill="#567000"/>
<path d="M108.716 54.9884L101.743 59.9144L100.783 53.8369L108.716 54.9884Z" fill="#567000"/>
<path d="M101.231 105.72L95.3457 103.737L97.137 100.026L101.231 105.72Z" fill="#567000"/>
<path d="M108.524 89.7904L100.527 89.9823L101.935 84.0967L108.524 89.7904Z" fill="#567000"/>
<path d="M97.1371 65.8636L91.3154 68.0387L91.3794 63.4326L97.1371 65.8636Z" fill="#799E00"/>
<path d="M88.6282 32.917L86.1971 40.4019L83.5742 37.4591L88.6282 32.917Z" fill="#799E00"/>
<path d="M97.0724 49.5505L90.0993 54.7963L89.1396 48.335L97.0724 49.5505Z" fill="#799E00"/>
<path d="M90.2919 104.504L84.4062 102.393L86.1335 98.4902L90.2919 104.504Z" fill="#799E00"/>
<path d="M96.881 86.5917L88.9482 86.8476L90.2917 80.5781L96.881 86.5917Z" fill="#799E00"/>
<path d="M76.8569 108.599C86.1138 108.599 93.6181 91.6712 93.6181 70.7901C93.6181 49.9089 86.1138 32.9814 76.8569 32.9814C67.5999 32.9814 60.0957 49.9089 60.0957 70.7901C60.0957 91.6712 67.5999 108.599 76.8569 108.599Z" fill="#799E00"/>
<path d="M42.0557 53.3893L47.4295 57.0358L48.0692 52.5576L42.0557 53.3893Z" fill="#88B200"/>
<path d="M55.1699 23.3213L56.5134 31.318L59.4562 29.1429L55.1699 23.3213Z" fill="#88B200"/>
<path d="M44.5498 37.332L50.5634 44.3692L52.4826 38.3556L44.5498 37.332Z" fill="#88B200"/>
<path d="M43.1426 93.0529L49.1561 92.6051L48.0686 88.2549L43.1426 93.0529Z" fill="#88B200"/>
<path d="M39.2402 73.7325L47.0451 76.0996L46.5972 69.5742L39.2402 73.7325Z" fill="#88B200"/>
<path d="M83.9584 53.3893L78.5206 57.0358L77.8809 52.5576L83.9584 53.3893Z" fill="#88B200"/>
<path d="M70.7794 23.3213L69.4999 31.318L66.4932 29.1429L70.7794 23.3213Z" fill="#88B200"/>
<path d="M81.463 37.3311L75.3855 44.3682L73.5303 38.3546L81.463 37.3311Z" fill="#88B200"/>
<path d="M82.8705 93.0529L76.793 92.6051L77.9445 88.2549L82.8705 93.0529Z" fill="#88B200"/>
<path d="M86.7086 73.7325L78.9678 76.0996L79.3516 69.5742L86.7086 73.7325Z" fill="#88B200"/>
<path d="M63.0385 114.292C72.2955 114.292 79.7997 94.6719 79.7997 70.4696C79.7997 46.2673 72.2955 26.6475 63.0385 26.6475C53.7816 26.6475 46.2773 46.2673 46.2773 70.4696C46.2773 94.6719 53.7816 114.292 63.0385 114.292Z" fill="#88B200"/>
<path d="M63.0385 114.293C64.6638 114.293 65.9813 94.6729 65.9813 70.4706C65.9813 46.2683 64.6638 26.6484 63.0385 26.6484C61.4132 26.6484 60.0957 46.2683 60.0957 70.4706C60.0957 94.6729 61.4132 114.293 63.0385 114.293Z" fill="#A1C42D"/>
<path d="M67.4634 67.0468L67.0313 71.6702C67.0313 71.8904 66.8152 71.8904 66.8152 71.8904L63.358 69.0282C63.1419 68.8081 62.9259 69.0282 63.1419 69.2484L65.9509 72.771C65.9509 72.9912 65.9509 72.9912 65.7348 72.9912L61.1973 73.4315C60.9812 73.4315 60.9812 73.8718 61.1973 73.8718L65.7348 74.3122C65.9509 74.3122 65.9509 74.5323 65.9509 74.5323L63.1419 78.0549C62.9259 78.2751 63.1419 78.4952 63.358 78.2751L66.8152 75.413C67.0313 75.413 67.0313 75.413 67.0313 75.6331L67.4634 80.2565C67.4634 80.4767 67.8956 80.4767 67.8956 80.2565L68.3277 75.6331C68.3277 75.413 68.5438 75.413 68.5438 75.413L72.001 78.2751C72.217 78.4952 72.4331 78.2751 72.217 78.0549L69.4081 74.5323C69.4081 74.3122 69.4081 74.3122 69.6241 74.3122L73.7295 73.4315C73.9456 73.4315 73.9456 72.9912 73.7295 72.9912L69.192 72.5508C68.9759 72.5508 68.9759 72.3307 68.9759 72.3307L71.7849 68.8081C72.001 68.5879 71.7849 68.3677 71.5688 68.5879L68.1116 71.45C67.8956 71.45 67.8956 71.45 67.8956 71.2299L67.4634 66.6064C67.8956 66.8266 67.4634 66.8266 67.4634 67.0468Z" fill="#648200"/>
<path d="M49.8706 43.0243L49.4385 47.6477C49.4385 47.8679 49.2224 47.8679 49.2224 47.8679L45.7652 45.0058C45.5492 44.7856 45.3331 45.0058 45.5492 45.2259L48.3581 48.7485C48.3581 48.9687 48.3581 48.9687 48.142 48.9687L43.6045 49.409C43.3884 49.409 43.3884 49.8494 43.6045 49.8494L48.142 50.2897C48.3581 50.2897 48.3581 50.5099 48.3581 50.5099L45.5492 54.0325C45.3331 54.2526 45.5492 54.4728 45.7652 54.2526L49.2224 51.3905C49.4385 51.3905 49.4385 51.3905 49.4385 51.6107L49.8706 56.2341C49.8706 56.4543 50.3028 56.4543 50.3028 56.2341L50.7349 51.6107C50.7349 51.3905 50.951 51.3905 50.951 51.3905L54.4082 54.2526C54.6243 54.4728 54.8403 54.2526 54.6243 54.0325L51.8153 50.5099C51.8153 50.2897 51.8153 50.2897 52.0314 50.2897L56.1368 49.409C56.3528 49.409 56.3528 48.9687 56.1368 48.9687L51.5992 48.5284C51.3832 48.5284 51.3832 48.3082 51.3832 48.3082L54.1921 44.7856C54.4082 44.5655 54.1921 44.3453 53.976 44.5655L50.5189 47.4276C50.3028 47.4276 50.3028 47.4276 50.3028 47.2074L49.8706 42.584C50.3028 42.8041 49.8706 42.8041 49.8706 43.0243Z" fill="#648200"/>
<path d="M34.3091 69.5673L33.877 74.1907C33.877 74.4109 33.6609 74.4109 33.6609 74.4109L30.2037 71.5487C29.9876 71.3286 29.7716 71.5487 29.9876 71.7689L32.7966 75.2915C32.7966 75.5117 32.7966 75.5117 32.5805 75.5117L28.043 75.952C27.8269 75.952 27.8269 76.3923 28.043 76.3923L32.5805 76.8327C32.7966 76.8327 32.7966 77.0528 32.7966 77.0528L29.9876 80.5754C29.7716 80.7956 29.9876 81.0158 30.2037 80.7956L33.6609 77.9335C33.877 77.9335 33.877 77.9335 33.877 78.1536L34.3091 82.7771C34.3091 82.9972 34.7413 82.9972 34.7413 82.7771L35.1734 78.1536C35.1734 77.9335 35.3895 77.9335 35.3895 77.9335L38.8467 80.7956C39.0627 81.0158 39.2788 80.7956 39.0627 80.5754L36.2538 77.0528C36.2538 76.8327 36.2538 76.8327 36.4699 76.8327L40.5752 75.952C40.7913 75.952 40.7913 75.5117 40.5752 75.5117L36.0377 75.0714C35.8216 75.0714 35.8216 74.8512 35.8216 74.8512L38.6306 71.3286C38.8467 71.1084 38.6306 70.8883 38.4145 71.1084L34.9573 73.9705C34.7413 73.9705 34.7413 73.9705 34.7413 73.7504L34.3091 69.127C34.7413 69.3471 34.3091 69.3471 34.3091 69.5673Z" fill="#648200"/>
<path d="M56.9829 92.1278L56.5508 96.7512C56.5508 96.9714 56.3347 96.9714 56.3347 96.9714L52.8775 94.1093C52.6615 93.8891 52.4454 94.1093 52.6615 94.3295L55.4704 97.8521C55.4704 98.0722 55.4704 98.0722 55.2544 98.0722L50.7168 98.5126C50.5007 98.5126 50.5007 98.9529 50.7168 98.9529L55.2544 99.3932C55.4704 99.3932 55.4704 99.6134 55.4704 99.6134L52.6615 103.136C52.4454 103.356 52.6615 103.576 52.8775 103.356L56.3347 100.494C56.5508 100.494 56.5508 100.494 56.5508 100.714L56.9829 105.338C56.9829 105.558 57.4151 105.558 57.4151 105.338L57.8472 100.714C57.8472 100.494 58.0633 100.494 58.0633 100.494L61.5205 103.356C61.7366 103.576 61.9526 103.356 61.7366 103.136L58.9276 99.6134C58.9276 99.3932 58.9276 99.3932 59.1437 99.3932L63.2491 98.5126C63.4652 98.5126 63.4652 98.0722 63.2491 98.0722L58.7115 97.6319C58.4955 97.6319 58.4955 97.4117 58.4955 97.4117L61.3044 93.8891C61.5205 93.669 61.3044 93.4488 61.0883 93.669L57.6312 96.5311C57.4151 96.5311 57.4151 96.5311 57.4151 96.3109L56.9829 91.6875C57.4151 91.9077 56.9829 91.9077 56.9829 92.1278Z" fill="#648200"/>
<path d="M89.7447 69.5673L89.3125 74.1907C89.3125 74.4109 89.0964 74.4109 89.0964 74.4109L85.6393 71.5487C85.4232 71.3286 85.2071 71.5487 85.4232 71.7689L88.2321 75.2915C88.2321 75.5117 88.2321 75.5117 88.0161 75.5117L83.4785 75.952C83.2625 75.952 83.2625 76.3923 83.4785 76.3923L88.0161 76.8327C88.2321 76.8327 88.2321 77.0528 88.2321 77.0528L85.4232 80.5754C85.2071 80.7956 85.4232 81.0158 85.6393 80.7956L89.0964 77.9335C89.3125 77.9335 89.3125 77.9335 89.3125 78.1536L89.7447 82.7771C89.7447 82.9972 90.1768 82.9972 90.1768 82.7771L90.609 78.1536C90.609 77.9335 90.825 77.9335 90.825 77.9335L94.2822 80.7956C94.4983 81.0158 94.7144 80.7956 94.4983 80.5754L91.6893 77.0528C91.6893 76.8327 91.6893 76.8327 91.9054 76.8327L96.0108 75.952C96.2269 75.952 96.2269 75.5117 96.0108 75.5117L91.4733 75.0714C91.2572 75.0714 91.2572 74.8512 91.2572 74.8512L94.0661 71.3286C94.2822 71.1084 94.0661 70.8883 93.8501 71.1084L90.3929 73.9705C90.1768 73.9705 90.1768 73.9705 90.1768 73.7504L89.7447 69.127C90.1768 69.3471 89.7447 69.3471 89.7447 69.5673Z" fill="#648200"/>
<path d="M82.0757 44.1317L81.6436 48.7552C81.6436 48.9753 81.4275 48.9753 81.4275 48.9753L77.9703 46.1132C77.7542 45.893 77.5382 46.1132 77.7542 46.3334L80.5632 49.856C80.5632 50.0761 80.5632 50.0761 80.3471 50.0761L75.8096 50.5165C75.5935 50.5165 75.5935 50.9568 75.8096 50.9568L80.3471 51.3971C80.5632 51.3971 80.5632 51.6173 80.5632 51.6173L77.7542 55.1399C77.5382 55.36 77.7542 55.5802 77.9703 55.36L81.4275 52.4979C81.6436 52.4979 81.6436 52.4979 81.6436 52.7181L82.0757 57.3415C82.0757 57.5617 82.5079 57.5617 82.5079 57.3415L82.94 52.7181C82.94 52.4979 83.1561 52.4979 83.1561 52.4979L86.6133 55.36C86.8293 55.5802 87.0454 55.36 86.8293 55.1399L84.0204 51.6173C84.0204 51.3971 84.0204 51.3971 84.2365 51.3971L88.3419 50.5165C88.5579 50.5165 88.5579 50.0761 88.3419 50.0761L83.8043 49.6358C83.5882 49.6358 83.5882 49.4156 83.5882 49.4156L86.3972 45.893C86.6133 45.6729 86.3972 45.4527 86.1811 45.6729L82.7239 48.535C82.5079 48.535 82.5079 48.535 82.5079 48.3148L82.0757 43.6914C82.5079 43.9116 82.0757 43.9116 82.0757 44.1317Z" fill="#648200"/>
<path d="M48.2589 81.7684C48.2589 84.4159 44.8549 87.9144 44.8549 87.9144C44.8549 87.9144 41.3564 84.4159 41.3564 81.7684C41.3564 79.1209 42.8693 77.4189 44.8549 77.4189C46.746 77.4189 48.2589 79.1209 48.2589 81.7684Z" fill="#D46CA6"/>
<path d="M44.2879 81.0125C45.6117 83.2818 44.3825 88.0095 44.3825 88.0095C44.3825 88.0095 39.6548 86.6857 38.331 84.4164C37.1018 82.1471 37.5746 79.8778 39.182 78.9323C40.7894 77.9868 42.9642 78.7432 44.2879 81.0125Z" fill="#FFB3DE"/>
<path d="M40.5053 82.2412C42.7746 83.565 44.0983 88.2927 44.0983 88.2927C44.0983 88.2927 39.3707 89.5219 37.1014 88.1981C34.8321 86.8744 34.0756 84.6996 35.0212 82.9976C35.9667 81.3902 38.236 80.9175 40.5053 82.2412Z" fill="#FF8CCC"/>
<path d="M37.8583 85.1729C40.5058 85.1729 44.0043 88.5768 44.0043 88.5768C44.0043 88.5768 40.5058 91.9807 37.8583 91.9807C35.2108 91.9807 33.5088 90.4679 33.5088 88.5768C33.5088 86.7803 35.2108 85.1729 37.8583 85.1729Z" fill="#FFB3DE"/>
<path d="M37.1014 89.1442C39.3707 87.8204 44.0983 89.0496 44.0983 89.0496C44.0983 89.0496 42.7746 93.7773 40.5053 95.1011C38.236 96.3303 35.9667 95.952 35.0212 94.2501C34.0756 92.6427 34.8321 90.4679 37.1014 89.1442Z" fill="#FF8CCC"/>
<path d="M38.3311 92.9261C39.6548 90.6568 44.3825 89.333 44.3825 89.333C44.3825 89.333 45.6117 94.0607 44.288 96.33C42.9642 98.5993 40.7895 99.3557 39.1821 98.4102C37.4801 97.4646 37.0073 95.1953 38.3311 92.9261Z" fill="#FFB3DE"/>
<path d="M41.2617 95.5728C41.2617 92.9253 44.6657 89.4268 44.6657 89.4268C44.6657 89.4268 48.0696 92.9253 48.0696 95.5728C48.0696 98.2203 46.5567 99.9222 44.6657 99.9222C42.8691 99.9222 41.2617 98.2203 41.2617 95.5728Z" fill="#ED7EBC"/>
<path d="M45.233 96.4237C43.9093 94.1545 45.1385 89.4268 45.1385 89.4268C45.1385 89.4268 49.8662 90.7505 51.1899 93.0198C52.5137 95.2891 52.0409 97.5584 50.4335 98.5039C48.7315 99.3549 46.5568 98.693 45.233 96.4237Z" fill="#FFB3DE"/>
<path d="M49.0159 95.1011C46.7466 93.7773 45.4229 89.0496 45.4229 89.0496C45.4229 89.0496 50.1505 87.8204 52.4198 89.1442C54.6891 90.4679 55.4456 92.6427 54.5 94.2501C53.5545 95.952 51.2852 96.4248 49.0159 95.1011Z" fill="#FF8CCC"/>
<path d="M51.6636 92.1692C49.0161 92.1692 45.5176 88.7653 45.5176 88.7653C45.5176 88.7653 49.0161 85.3613 51.6636 85.3613C54.3111 85.3613 56.0131 86.8742 56.0131 88.7653C56.0131 90.6563 54.3111 92.1692 51.6636 92.1692Z" fill="#FFB3DE"/>
<path d="M52.5146 88.1981C50.2453 89.5219 45.5176 88.2927 45.5176 88.2927C45.5176 88.2927 46.8413 83.565 49.1106 82.2412C51.3799 80.9175 53.6492 81.3902 54.5948 82.9977C55.4457 84.6996 54.7839 86.8744 52.5146 88.1981Z" fill="#FF8CCC"/>
<path d="M51.1899 84.4164C49.8662 86.6857 45.1385 88.0095 45.1385 88.0095C45.1385 88.0095 43.9093 83.2818 45.233 81.0125C46.5568 78.7432 48.7315 77.9868 50.3389 78.9323C52.0409 79.8778 52.5137 82.1471 51.1899 84.4164Z" fill="#FFB3DE"/>
<path d="M42.8696 82.1467C44.477 83.8487 44.2879 88.1982 44.2879 88.1982C44.2879 88.1982 39.9384 88.009 38.4255 86.3071C36.8181 84.6051 36.8181 82.5249 38.0473 81.3903C39.2765 80.1611 41.3567 80.4447 42.8696 82.1467Z" fill="#ED7EBC"/>
<path d="M39.8438 83.9435C42.0185 84.6054 44.0987 88.4821 44.0987 88.4821C44.0987 88.4821 40.3166 90.3732 38.0473 89.7113C35.8725 89.0494 34.7379 87.2529 35.3052 85.6455C35.778 84.0381 37.6691 83.2816 39.8438 83.9435Z" fill="#D46CA6"/>
<path d="M38.2365 90.5619C39.9385 88.9545 44.288 89.1436 44.288 89.1436C44.288 89.1436 44.0989 93.4931 42.3969 95.0059C40.6949 96.6133 38.6148 96.6133 37.4801 95.3841C36.2509 94.1549 36.5346 92.1693 38.2365 90.5619Z" fill="#D46CA6"/>
<path d="M40.033 93.5879C40.6948 91.4132 44.5716 89.333 44.5716 89.333C44.5716 89.333 46.5572 93.2097 45.8953 95.3845C45.2334 97.5592 43.4369 98.6938 41.8295 98.1265C40.1275 97.6537 39.3711 95.8572 40.033 93.5879Z" fill="#FF8CCC"/>
<path d="M46.6517 95.195C45.0443 93.493 45.2334 89.1436 45.2334 89.1436C45.2334 89.1436 49.5829 89.3327 51.0958 91.0346C52.7032 92.7366 52.7032 94.8168 51.474 95.9514C50.2448 97.1806 48.2591 96.9915 46.6517 95.195Z" fill="#ED7EBC"/>
<path d="M49.6778 93.3988C47.503 92.7369 45.4229 88.8602 45.4229 88.8602C45.4229 88.8602 49.2996 86.8746 51.4743 87.5364C53.649 88.1983 54.7837 89.9948 54.2164 91.6023C53.7436 93.3042 51.9471 94.1552 49.6778 93.3988Z" fill="#D46CA6"/>
<path d="M51.3797 90.3728C49.1105 90.8456 45.4229 88.5763 45.4229 88.5763C45.4229 88.5763 47.7867 84.9832 50.056 84.4159C52.3253 83.9431 54.1218 84.8887 54.5 86.4961C54.8782 88.1981 53.649 89.8055 51.3797 90.3728Z" fill="#ED7EBC"/>
<path d="M46.4626 82.0522C46.9354 84.3215 44.6661 88.0091 44.6661 88.0091C44.6661 88.0091 40.9785 85.6453 40.5057 83.376C40.033 81.1067 40.9785 79.3102 42.5859 78.932C44.2879 78.5537 45.8953 79.7829 46.4626 82.0522Z" fill="#FF8CCC"/>
<path d="M51.3796 86.7797C49.6776 88.3872 45.3281 88.198 45.3281 88.198C45.3281 88.198 45.5172 83.8486 47.2192 82.3357C48.9212 80.7283 51.0014 80.7283 52.136 81.9575C53.2707 83.1867 53.0815 85.2669 51.3796 86.7797Z" fill="#D46CA6"/>
<path d="M43.1527 95.2899C42.6799 93.0206 44.9492 89.333 44.9492 89.333C44.9492 89.333 48.5423 91.6969 49.1096 93.9661C49.5824 96.2354 48.6368 98.032 47.0294 98.4102C45.3274 98.7884 43.6255 97.5592 43.1527 95.2899Z" fill="#D46CA6"/>
<path d="M49.4886 83.754C48.8268 85.9287 44.95 88.0089 44.95 88.0089C44.95 88.0089 42.9644 84.1322 43.6263 81.9574C44.2882 79.7827 46.0847 78.648 47.6921 79.2154C49.3941 79.6881 50.2451 81.5792 49.4886 83.754Z" fill="#ED7EBC"/>
<path d="M38.1421 87.0638C40.4114 86.5911 44.099 88.8603 44.099 88.8603C44.099 88.8603 41.7351 92.4534 39.4658 93.0207C37.1965 93.4935 35.4 92.4534 35.0218 90.846C34.6436 89.2386 35.8728 87.5366 38.1421 87.0638Z" fill="#ED7EBC"/>
<path d="M44.5717 90.5624C45.6162 90.5624 46.4628 89.7158 46.4628 88.6714C46.4628 87.6269 45.6162 86.7803 44.5717 86.7803C43.5273 86.7803 42.6807 87.6269 42.6807 88.6714C42.6807 89.7158 43.5273 90.5624 44.5717 90.5624Z" fill="#FFB735"/>
<g style="mix-blend-mode:multiply">
<path d="M48.2589 81.7684C48.2589 84.4159 44.8549 87.9144 44.8549 87.9144C44.8549 87.9144 41.3564 84.4159 41.3564 81.7684C41.3564 79.1209 42.8693 77.4189 44.8549 77.4189C46.746 77.4189 48.2589 79.1209 48.2589 81.7684Z" fill="#D46CA6"/>
<path d="M44.2879 81.0125C45.6117 83.2818 44.3825 88.0095 44.3825 88.0095C44.3825 88.0095 39.6548 86.6857 38.331 84.4164C37.1018 82.1471 37.5746 79.8778 39.182 78.9323C40.7894 77.9868 42.9642 78.7432 44.2879 81.0125Z" fill="#FFB3DE"/>
<path d="M40.5053 82.2412C42.7746 83.565 44.0983 88.2927 44.0983 88.2927C44.0983 88.2927 39.3707 89.5219 37.1014 88.1981C34.8321 86.8744 34.0756 84.6996 35.0212 82.9976C35.9667 81.3902 38.236 80.9175 40.5053 82.2412Z" fill="#FF8CCC"/>
<path d="M37.8583 85.1729C40.5058 85.1729 44.0043 88.5768 44.0043 88.5768C44.0043 88.5768 40.5058 91.9807 37.8583 91.9807C35.2108 91.9807 33.5088 90.4679 33.5088 88.5768C33.5088 86.7803 35.2108 85.1729 37.8583 85.1729Z" fill="#FFB3DE"/>
<path d="M37.1014 89.1442C39.3707 87.8204 44.0983 89.0496 44.0983 89.0496C44.0983 89.0496 42.7746 93.7773 40.5053 95.1011C38.236 96.3303 35.9667 95.952 35.0212 94.2501C34.0756 92.6427 34.8321 90.4679 37.1014 89.1442Z" fill="#FF8CCC"/>
<path d="M38.3311 92.9261C39.6548 90.6568 44.3825 89.333 44.3825 89.333C44.3825 89.333 45.6117 94.0607 44.288 96.33C42.9642 98.5993 40.7895 99.3557 39.1821 98.4102C37.4801 97.4646 37.0073 95.1953 38.3311 92.9261Z" fill="#FFB3DE"/>
<path d="M41.2617 95.5728C41.2617 92.9253 44.6657 89.4268 44.6657 89.4268C44.6657 89.4268 48.0696 92.9253 48.0696 95.5728C48.0696 98.2203 46.5567 99.9222 44.6657 99.9222C42.8691 99.9222 41.2617 98.2203 41.2617 95.5728Z" fill="#ED7EBC"/>
<path d="M45.233 96.4237C43.9093 94.1545 45.1385 89.4268 45.1385 89.4268C45.1385 89.4268 49.8662 90.7505 51.1899 93.0198C52.5137 95.2891 52.0409 97.5584 50.4335 98.5039C48.7315 99.3549 46.5568 98.693 45.233 96.4237Z" fill="#FFB3DE"/>
<path d="M49.0159 95.1011C46.7466 93.7773 45.4229 89.0496 45.4229 89.0496C45.4229 89.0496 50.1505 87.8204 52.4198 89.1442C54.6891 90.4679 55.4456 92.6427 54.5 94.2501C53.5545 95.952 51.2852 96.4248 49.0159 95.1011Z" fill="#FF8CCC"/>
<path d="M51.6636 92.1692C49.0161 92.1692 45.5176 88.7653 45.5176 88.7653C45.5176 88.7653 49.0161 85.3613 51.6636 85.3613C54.3111 85.3613 56.0131 86.8742 56.0131 88.7653C56.0131 90.6563 54.3111 92.1692 51.6636 92.1692Z" fill="#FFB3DE"/>
<path d="M52.5146 88.1981C50.2453 89.5219 45.5176 88.2927 45.5176 88.2927C45.5176 88.2927 46.8413 83.565 49.1106 82.2412C51.3799 80.9175 53.6492 81.3902 54.5948 82.9977C55.4457 84.6996 54.7839 86.8744 52.5146 88.1981Z" fill="#FF8CCC"/>
<path d="M51.1899 84.4164C49.8662 86.6857 45.1385 88.0095 45.1385 88.0095C45.1385 88.0095 43.9093 83.2818 45.233 81.0125C46.5568 78.7432 48.7315 77.9868 50.3389 78.9323C52.0409 79.8778 52.5137 82.1471 51.1899 84.4164Z" fill="#FFB3DE"/>
<path d="M42.8696 82.1467C44.477 83.8487 44.2879 88.1982 44.2879 88.1982C44.2879 88.1982 39.9384 88.009 38.4255 86.3071C36.8181 84.6051 36.8181 82.5249 38.0473 81.3903C39.2765 80.1611 41.3567 80.4447 42.8696 82.1467Z" fill="#ED7EBC"/>
<path d="M39.8438 83.9435C42.0185 84.6054 44.0987 88.4821 44.0987 88.4821C44.0987 88.4821 40.3166 90.3732 38.0473 89.7113C35.8725 89.0494 34.7379 87.2529 35.3052 85.6455C35.778 84.0381 37.6691 83.2816 39.8438 83.9435Z" fill="#D46CA6"/>
<path d="M38.2365 90.5619C39.9385 88.9545 44.288 89.1436 44.288 89.1436C44.288 89.1436 44.0989 93.4931 42.3969 95.0059C40.6949 96.6133 38.6148 96.6133 37.4801 95.3841C36.2509 94.1549 36.5346 92.1693 38.2365 90.5619Z" fill="#D46CA6"/>
<path d="M40.033 93.5879C40.6948 91.4132 44.5716 89.333 44.5716 89.333C44.5716 89.333 46.5572 93.2097 45.8953 95.3845C45.2334 97.5592 43.4369 98.6938 41.8295 98.1265C40.1275 97.6537 39.3711 95.8572 40.033 93.5879Z" fill="#FF8CCC"/>
<path d="M46.6517 95.195C45.0443 93.493 45.2334 89.1436 45.2334 89.1436C45.2334 89.1436 49.5829 89.3327 51.0958 91.0346C52.7032 92.7366 52.7032 94.8168 51.474 95.9514C50.2448 97.1806 48.2591 96.9915 46.6517 95.195Z" fill="#ED7EBC"/>
<path d="M49.6778 93.3988C47.503 92.7369 45.4229 88.8602 45.4229 88.8602C45.4229 88.8602 49.2996 86.8746 51.4743 87.5364C53.649 88.1983 54.7837 89.9948 54.2164 91.6023C53.7436 93.3042 51.9471 94.1552 49.6778 93.3988Z" fill="#D46CA6"/>
<path d="M51.3797 90.3728C49.1105 90.8456 45.4229 88.5763 45.4229 88.5763C45.4229 88.5763 47.7867 84.9832 50.056 84.4159C52.3253 83.9431 54.1218 84.8887 54.5 86.4961C54.8782 88.1981 53.649 89.8055 51.3797 90.3728Z" fill="#ED7EBC"/>
<path d="M46.4626 82.0522C46.9354 84.3215 44.6661 88.0091 44.6661 88.0091C44.6661 88.0091 40.9785 85.6453 40.5057 83.376C40.033 81.1067 40.9785 79.3102 42.5859 78.932C44.2879 78.5537 45.8953 79.7829 46.4626 82.0522Z" fill="#FF8CCC"/>
<path d="M51.3796 86.7797C49.6776 88.3872 45.3281 88.198 45.3281 88.198C45.3281 88.198 45.5172 83.8486 47.2192 82.3357C48.9212 80.7283 51.0014 80.7283 52.136 81.9575C53.2707 83.1867 53.0815 85.2669 51.3796 86.7797Z" fill="#D46CA6"/>
<path d="M43.1527 95.2899C42.6799 93.0206 44.9492 89.333 44.9492 89.333C44.9492 89.333 48.5423 91.6969 49.1096 93.9661C49.5824 96.2354 48.6368 98.032 47.0294 98.4102C45.3274 98.7884 43.6255 97.5592 43.1527 95.2899Z" fill="#D46CA6"/>
<path d="M49.4886 83.754C48.8268 85.9287 44.95 88.0089 44.95 88.0089C44.95 88.0089 42.9644 84.1322 43.6263 81.9574C44.2882 79.7827 46.0847 78.648 47.6921 79.2154C49.3941 79.6881 50.2451 81.5792 49.4886 83.754Z" fill="#ED7EBC"/>
<path d="M38.1421 87.0638C40.4114 86.5911 44.099 88.8603 44.099 88.8603C44.099 88.8603 41.7351 92.4534 39.4658 93.0207C37.1965 93.4935 35.4 92.4534 35.0218 90.846C34.6436 89.2386 35.8728 87.5366 38.1421 87.0638Z" fill="#ED7EBC"/>
<path d="M44.5717 90.5624C45.6162 90.5624 46.4628 89.7158 46.4628 88.6714C46.4628 87.6269 45.6162 86.7803 44.5717 86.7803C43.5273 86.7803 42.6807 87.6269 42.6807 88.6714C42.6807 89.7158 43.5273 90.5624 44.5717 90.5624Z" fill="#FFB735"/>
</g>
<path d="M93.9797 58.7873C92.765 60.5081 88.9183 61.3179 88.9183 61.3179C88.9183 61.3179 88.2098 57.4713 89.4245 55.7504C90.6392 54.0296 92.3601 53.5235 93.676 54.4345C94.8907 55.2443 95.1944 57.0664 93.9797 58.7873Z" fill="#FFE863"/>
<path d="M85.4763 56.0545C87.1971 57.2693 88.0069 61.0147 88.0069 61.0147C88.0069 61.0147 84.1603 61.7232 82.4394 60.6098C80.7186 59.395 80.2125 57.6742 81.0223 56.3582C81.8321 55.1435 83.7554 54.8398 85.4763 56.0545Z" fill="#FFE863"/>
<path d="M83.249 64.4558C84.565 62.8362 88.4116 62.3301 88.4116 62.3301C88.4116 62.3301 88.8165 66.1767 87.5005 67.8976C86.1846 69.5172 84.3625 69.8209 83.1478 68.9098C81.9331 67.9988 81.9331 66.1767 83.249 64.4558Z" fill="#FFFAB3"/>
<path d="M91.7524 56.4592C91.6512 58.585 88.7156 61.1156 88.7156 61.1156C88.7156 61.1156 86.1849 58.1801 86.2862 56.0543C86.3874 54.0297 87.7033 52.7138 89.2217 52.815C90.7401 52.9163 91.8536 54.4347 91.7524 56.4592Z" fill="#FFFAB3"/>
<path d="M83.2492 58.6859C85.375 58.7871 87.9057 61.7227 87.9057 61.7227C87.9057 61.7227 84.9701 64.2534 82.8443 64.1522C80.8198 63.9497 79.5038 62.6338 79.6051 61.1153C79.7063 59.5969 81.2247 58.4834 83.2492 58.6859Z" fill="#FFFAB3"/>
<path d="M85.3746 66.8859C85.4758 64.7602 88.4114 62.2295 88.4114 62.2295C88.4114 62.2295 90.942 65.1651 90.8408 67.2908C90.7396 69.4166 89.3224 70.7326 87.9052 70.6313C86.3868 70.4289 85.2733 68.9105 85.3746 66.8859Z" fill="#FFDD87"/>
<path d="M88.4121 67.6954C87.501 65.7721 88.7157 62.1279 88.7157 62.1279C88.7157 62.1279 92.3599 63.4439 93.271 65.3672C94.182 67.2905 93.6759 69.0114 92.3599 69.7199C91.044 70.3273 89.3231 69.6187 88.4121 67.6954Z" fill="#FFFAB3"/>
<path d="M94.7892 61.9252C92.8658 62.8363 89.2217 61.6216 89.2217 61.6216C89.2217 61.6216 90.5376 57.9774 92.4609 57.0663C94.3843 56.1553 96.1051 56.6614 96.8137 57.9774C97.3198 59.2933 96.6112 60.913 94.7892 61.9252Z" fill="#FFFAB3"/>
<path d="M91.5502 66.8853C89.8293 65.7718 89.0195 61.9252 89.0195 61.9252C89.0195 61.9252 92.8662 61.2166 94.587 62.4313C96.3079 63.646 96.814 65.3669 95.903 66.6828C95.0931 67.8976 93.2711 68.1 91.5502 66.8853Z" fill="#FFE863"/>
<path d="M82.6423 61.5205C84.5656 60.6094 88.2098 61.8241 88.2098 61.8241C88.2098 61.8241 86.8938 65.4683 84.9705 66.3793C83.0472 67.2904 81.3263 66.7843 80.6178 65.4683C80.0104 64.1524 80.719 62.4315 82.6423 61.5205Z" fill="#FFE863"/>
<path d="M93.8781 64.9624C91.7524 64.8611 89.2217 61.9256 89.2217 61.9256C89.2217 61.9256 92.1573 59.3949 94.283 59.4961C96.4088 59.5973 97.7247 61.0145 97.6235 62.4317C97.4211 63.9501 96.0039 65.0636 93.8781 64.9624Z" fill="#FFDD87"/>
<path d="M88.7159 55.6493C89.627 57.5726 88.4122 61.2168 88.4122 61.2168C88.4122 61.2168 84.6668 59.9008 83.7558 58.0788C82.8448 56.1554 83.3509 54.3334 84.6668 53.726C86.084 53.0174 87.7036 53.726 88.7159 55.6493Z" fill="#FFDD87"/>
<path d="M88.8971 62.998C89.8221 62.78 90.3952 61.8534 90.1772 60.9283C89.9592 60.0033 89.0326 59.4302 88.1075 59.6482C87.1825 59.8662 86.6094 60.7929 86.8274 61.7179C87.0454 62.6429 87.972 63.216 88.8971 62.998Z" fill="#FFB3DE"/>
<g style="mix-blend-mode:multiply">
<path d="M93.9797 58.7873C92.765 60.5081 88.9183 61.3179 88.9183 61.3179C88.9183 61.3179 88.2098 57.4713 89.4245 55.7504C90.6392 54.0296 92.3601 53.5235 93.676 54.4345C94.8907 55.2443 95.1944 57.0664 93.9797 58.7873Z" fill="#FFE863"/>
<path d="M85.4763 56.0545C87.1971 57.2693 88.0069 61.0147 88.0069 61.0147C88.0069 61.0147 84.1603 61.7232 82.4394 60.6098C80.7186 59.395 80.2125 57.6742 81.0223 56.3582C81.8321 55.1435 83.7554 54.8398 85.4763 56.0545Z" fill="#FFE863"/>
<path d="M83.249 64.4558C84.565 62.8362 88.4116 62.3301 88.4116 62.3301C88.4116 62.3301 88.8165 66.1767 87.5005 67.8976C86.1846 69.5172 84.3625 69.8209 83.1478 68.9098C81.9331 67.9988 81.9331 66.1767 83.249 64.4558Z" fill="#FFFAB3"/>
<path d="M91.7524 56.4592C91.6512 58.585 88.7156 61.1156 88.7156 61.1156C88.7156 61.1156 86.1849 58.1801 86.2862 56.0543C86.3874 54.0297 87.7033 52.7138 89.2217 52.815C90.7401 52.9163 91.8536 54.4347 91.7524 56.4592Z" fill="#FFFAB3"/>
<path d="M83.2492 58.6859C85.375 58.7871 87.9057 61.7227 87.9057 61.7227C87.9057 61.7227 84.9701 64.2534 82.8443 64.1522C80.8198 63.9497 79.5038 62.6338 79.6051 61.1153C79.7063 59.5969 81.2247 58.4834 83.2492 58.6859Z" fill="#FFFAB3"/>
<path d="M85.3746 66.8859C85.4758 64.7602 88.4114 62.2295 88.4114 62.2295C88.4114 62.2295 90.942 65.1651 90.8408 67.2908C90.7396 69.4166 89.3224 70.7326 87.9052 70.6313C86.3868 70.4289 85.2733 68.9105 85.3746 66.8859Z" fill="#FFDD87"/>
<path d="M88.4121 67.6954C87.501 65.7721 88.7157 62.1279 88.7157 62.1279C88.7157 62.1279 92.3599 63.4439 93.271 65.3672C94.182 67.2905 93.6759 69.0114 92.3599 69.7199C91.044 70.3273 89.3231 69.6187 88.4121 67.6954Z" fill="#FFFAB3"/>
<path d="M94.7892 61.9252C92.8658 62.8363 89.2217 61.6216 89.2217 61.6216C89.2217 61.6216 90.5376 57.9774 92.4609 57.0663C94.3843 56.1553 96.1051 56.6614 96.8137 57.9774C97.3198 59.2933 96.6112 60.913 94.7892 61.9252Z" fill="#FFFAB3"/>
<path d="M91.5502 66.8853C89.8293 65.7718 89.0195 61.9252 89.0195 61.9252C89.0195 61.9252 92.8662 61.2166 94.587 62.4313C96.3079 63.646 96.814 65.3669 95.903 66.6828C95.0931 67.8976 93.2711 68.1 91.5502 66.8853Z" fill="#FFE863"/>
<path d="M82.6423 61.5205C84.5656 60.6094 88.2098 61.8241 88.2098 61.8241C88.2098 61.8241 86.8938 65.4683 84.9705 66.3793C83.0472 67.2904 81.3263 66.7843 80.6178 65.4683C80.0104 64.1524 80.719 62.4315 82.6423 61.5205Z" fill="#FFE863"/>
<path d="M93.8781 64.9624C91.7524 64.8611 89.2217 61.9256 89.2217 61.9256C89.2217 61.9256 92.1573 59.3949 94.283 59.4961C96.4088 59.5973 97.7247 61.0145 97.6235 62.4317C97.4211 63.9501 96.0039 65.0636 93.8781 64.9624Z" fill="#FFDD87"/>
<path d="M88.7159 55.6493C89.627 57.5726 88.4122 61.2168 88.4122 61.2168C88.4122 61.2168 84.6668 59.9008 83.7558 58.0788C82.8448 56.1554 83.3509 54.3334 84.6668 53.726C86.084 53.0174 87.7036 53.726 88.7159 55.6493Z" fill="#FFDD87"/>
<path d="M88.8971 62.998C89.8221 62.78 90.3952 61.8534 90.1772 60.9283C89.9592 60.0033 89.0326 59.4302 88.1075 59.6482C87.1825 59.8662 86.6094 60.7929 86.8274 61.7179C87.0454 62.6429 87.972 63.216 88.8971 62.998Z" fill="#FFB3DE"/>
</g>
</g>
<path d="M22.1025 103.132C22.1025 110.035 27.699 115.633 34.6025 115.634C41.5061 115.636 47.1025 110.04 47.1025 103.137C47.1025 96.2332 41.5061 90.6356 34.6025 90.6342C27.699 90.6328 22.1025 96.2282 22.1025 103.132Z" fill="#EDEB7F"/>
<path d="M30.5916 114.81C36.9784 116.797 44.0379 113.307 46.3595 107.015C48.6811 100.722 45.3857 94.0094 38.9989 92.0219C32.6121 90.0344 25.5526 93.5243 23.231 99.817C20.9094 106.11 24.2048 112.822 30.5916 114.81Z" fill="#88B200"/>
<path d="M32.3352 103.968C29.5205 97.6692 28.1959 92.1581 29.4101 91.5957C26.5401 92.9454 26.4849 99.1314 29.2997 105.374C32.1145 111.672 36.7506 115.665 39.6205 114.315C38.4063 114.877 35.15 110.266 32.3352 103.968Z" fill="#A1C42D"/>
<path d="M29.4092 91.54C30.6234 90.9776 33.8797 95.6452 36.6393 101.944C39.4541 108.242 40.7787 113.753 39.5644 114.316C42.4344 112.966 42.4896 106.78 39.6748 100.538C36.9152 94.2393 32.2791 90.2466 29.4092 91.54Z" fill="#A1C42D"/>
<path d="M26.6498 106.611C23.8351 100.312 25.0493 93.6202 29.4094 91.5957C23.6143 94.2388 21.1859 101.55 24.0006 107.848C26.8154 114.146 33.8247 117.071 39.6199 114.371C35.2597 116.34 29.4646 112.909 26.6498 106.611Z" fill="#799E00"/>
<path d="M29.4092 91.5395C33.7693 89.5713 39.5644 93.0017 42.3792 99.3001C45.194 105.599 43.9798 112.291 39.6196 114.315C45.4148 111.616 47.8432 104.361 45.0284 98.0629C42.2136 91.7645 35.2043 88.8402 29.4092 91.5395Z" fill="#799E00"/>
<path d="M24.1664 101.438L24.2768 102.619C24.2768 102.675 24.332 102.675 24.332 102.675L25.215 101.888C25.2702 101.831 25.3254 101.888 25.2702 101.944L24.5527 102.844C24.5527 102.9 24.5527 102.9 24.6079 102.9L25.767 103.012C25.8221 103.012 25.8221 103.125 25.767 103.125L24.6079 103.237C24.5527 103.237 24.5527 103.293 24.5527 103.293L25.2702 104.193C25.3254 104.249 25.2702 104.306 25.215 104.249L24.332 103.518C24.2768 103.518 24.2768 103.518 24.2768 103.575L24.1664 104.756C24.1664 104.812 24.056 104.812 24.056 104.756L23.9456 103.575C23.9456 103.518 23.8904 103.518 23.8904 103.518L23.0074 104.249C22.9522 104.306 22.897 104.249 22.9522 104.193L23.6697 103.293C23.6697 103.237 23.6697 103.237 23.6145 103.237L22.4555 103.125C22.4003 103.125 22.4003 103.012 22.4555 103.012L23.6145 102.9C23.6697 102.9 23.6697 102.844 23.6697 102.844L23.0074 101.944C22.9522 101.888 23.0074 101.831 23.0626 101.888L23.9456 102.619C24.0008 102.619 24.0008 102.619 24.0008 102.562L24.1112 101.438C24.1112 101.381 24.1664 101.381 24.1664 101.438Z" fill="#648200"/>
<path d="M29.4652 95.0822L29.5756 96.2632C29.5756 96.3194 29.6308 96.3194 29.6308 96.3194L30.5139 95.5883C30.5691 95.5321 30.6242 95.5883 30.5691 95.6446L29.8516 96.5443C29.8516 96.6006 29.8516 96.6006 29.9068 96.6006L31.0658 96.713C31.121 96.713 31.121 96.8255 31.0658 96.8255L29.9068 96.938C29.8516 96.938 29.8516 96.9942 29.8516 96.9942L30.5691 97.894C30.6242 97.9502 30.5691 98.0065 30.5139 97.9502L29.6308 97.1067C29.5756 97.1067 29.5756 97.1067 29.5756 97.1629L29.4652 98.3439C29.4652 98.4001 29.3548 98.4001 29.3548 98.3439L29.2445 97.1629C29.2445 97.1067 29.1893 97.1067 29.1893 97.1067L28.3062 97.8378C28.251 97.894 28.1958 97.8378 28.251 97.7815L28.9685 96.8818C28.9685 96.8255 28.9685 96.8255 28.9133 96.8255L27.7543 96.713C27.6991 96.713 27.6991 96.6006 27.7543 96.6006L28.9133 96.4881C28.9685 96.4881 28.9685 96.4319 28.9685 96.4319L28.251 95.5321C28.1958 95.4759 28.251 95.4196 28.3062 95.4759L29.1893 96.2069C29.2445 96.2069 29.2445 96.2069 29.2445 96.1507L29.3548 94.9697C29.3548 95.026 29.4652 95.026 29.4652 95.0822Z" fill="#648200"/>
<path d="M36.9154 89.965L37.0258 91.146C37.0258 91.2022 37.081 91.2022 37.081 91.2022L37.964 90.4712C38.0192 90.4149 38.0744 90.4712 38.0192 90.5274L37.3017 91.4272C37.3017 91.4834 37.3017 91.4834 37.3569 91.4834L38.4608 91.5396C38.5159 91.5396 38.5159 91.6521 38.4608 91.6521L37.3017 91.7646C37.2465 91.7646 37.2465 91.8208 37.2465 91.8208L37.964 92.7206C38.0192 92.7768 37.964 92.8331 37.9088 92.7768L37.0258 92.0458C36.9706 92.0458 36.9706 92.0458 36.9706 92.102L36.8602 93.283C36.8602 93.3392 36.7498 93.3392 36.7498 93.283L36.6394 92.102C36.6394 92.0458 36.5842 92.0458 36.5842 92.0458L35.8116 92.7206C35.7564 92.7768 35.7012 92.7206 35.7012 92.6644L36.4187 91.7646C36.4187 91.7084 36.4187 91.7084 36.3635 91.7084L35.3148 91.5959C35.2596 91.5959 35.2596 91.4834 35.3148 91.4834L36.4739 91.3709C36.529 91.3709 36.529 91.3147 36.529 91.3147L35.7012 90.4712C35.646 90.4149 35.7012 90.3587 35.7564 90.4149L36.6394 91.146C36.6946 91.146 36.6946 91.146 36.6946 91.0898L36.805 89.965C36.805 89.9088 36.9154 89.9088 36.9154 89.965Z" fill="#648200"/>
<path d="M43.7045 97.6135L43.8149 98.7944C43.8149 98.8507 43.8701 98.8507 43.8701 98.8507L44.7531 98.1196C44.8083 98.0634 44.8635 98.1196 44.8083 98.1758L44.0908 99.0756C44.0908 99.1318 44.0908 99.1318 44.146 99.1318L45.305 99.2443C45.3602 99.2443 45.3602 99.3568 45.305 99.3568L44.146 99.4693C44.0908 99.4693 44.0908 99.5255 44.0908 99.5255L44.8083 100.425C44.8635 100.482 44.8083 100.538 44.7531 100.482L43.8701 99.7504C43.8149 99.7504 43.8149 99.7504 43.8149 99.8067L43.7045 100.988C43.7045 101.044 43.5941 101.044 43.5941 100.988L43.4837 99.8067C43.4837 99.7504 43.4285 99.7504 43.4285 99.7504L42.5455 100.482C42.4903 100.538 42.4351 100.482 42.4903 100.425L43.2078 99.5255C43.2078 99.4693 43.2078 99.4693 43.1526 99.4693L41.9935 99.3568C41.9384 99.3568 41.9384 99.2443 41.9935 99.2443L43.1526 99.1318C43.2078 99.1318 43.2078 99.0756 43.2078 99.0756L42.4903 98.1758C42.4351 98.1196 42.4903 98.0634 42.5455 98.1196L43.4285 98.8507C43.4837 98.8507 43.4837 98.8507 43.4837 98.7944L43.5941 97.6135C43.6493 97.5572 43.7045 97.5572 43.7045 97.6135Z" fill="#648200"/>
<path d="M37.8539 98.2316L37.9642 99.4126C37.9642 99.4688 38.0194 99.4688 38.0194 99.4688L38.9025 98.7377C38.9577 98.6815 39.0129 98.7377 38.9577 98.794L38.2402 99.6938C38.2402 99.75 38.2402 99.75 38.2954 99.75L39.4544 99.8625C39.5096 99.8625 39.5096 99.9749 39.4544 99.9749L38.2954 100.087C38.2402 100.087 38.2402 100.144 38.2402 100.144L38.9577 101.043C39.0129 101.1 38.9577 101.156 38.9025 101.1L38.0194 100.369C37.9642 100.369 37.9642 100.369 37.9642 100.425L37.8539 101.606C37.8539 101.662 37.7435 101.662 37.7435 101.606L37.6331 100.425C37.6331 100.369 37.5779 100.369 37.5779 100.369L36.6948 101.1C36.6396 101.156 36.5845 101.1 36.6396 101.043L37.3571 100.144C37.3571 100.087 37.3571 100.087 37.3019 100.087L36.2533 99.8625C36.1981 99.8625 36.1981 99.75 36.2533 99.75L37.4123 99.6375C37.4675 99.6375 37.4675 99.5813 37.4675 99.5813L36.75 98.6815C36.6948 98.6253 36.75 98.569 36.8052 98.6253L37.6883 99.3563C37.7435 99.3563 37.7435 99.3563 37.7435 99.3001L37.8539 98.1191C37.7435 98.1754 37.8539 98.1754 37.8539 98.2316Z" fill="#648200"/>
<path d="M31.5462 102.822L31.6566 104.003C31.6566 104.059 31.7118 104.059 31.7118 104.059L32.5949 103.328C32.6501 103.272 32.7053 103.328 32.6501 103.384L31.9326 104.284C31.9326 104.34 31.9326 104.34 31.9878 104.34L33.1468 104.453C33.202 104.453 33.202 104.565 33.1468 104.565H31.9326C31.8774 104.565 31.8774 104.621 31.8774 104.621L32.5949 105.521C32.6501 105.577 32.5949 105.634 32.5397 105.577L31.6566 104.846C31.6014 104.846 31.6014 104.846 31.6014 104.903L31.4911 106.084C31.4911 106.14 31.3807 106.14 31.3807 106.084L31.2703 104.903C31.2703 104.846 31.2151 104.846 31.2151 104.846L30.332 105.577C30.2768 105.634 30.2216 105.577 30.2768 105.521L30.9943 104.621C30.9943 104.565 30.9943 104.565 30.9391 104.565L29.9457 104.509C29.8905 104.509 29.8905 104.396 29.9457 104.396L31.1047 104.284C31.1599 104.284 31.1599 104.228 31.1599 104.228L30.4424 103.328C30.3872 103.272 30.4424 103.216 30.4976 103.272L31.3807 104.003C31.4359 104.003 31.4359 104.003 31.4359 103.947L31.5462 102.766C31.4911 102.766 31.5462 102.766 31.5462 102.822Z" fill="#648200"/>
<path d="M40.5941 106.7L40.7045 107.881C40.7045 107.937 40.7597 107.937 40.7597 107.937L41.6427 107.206C41.6979 107.15 41.7531 107.206 41.6979 107.262L40.9804 108.162C40.9804 108.218 40.9804 108.218 41.0356 108.218L42.1947 108.331C42.2498 108.331 42.2498 108.443 42.1947 108.443H40.9804C40.9252 108.443 40.9252 108.499 40.9252 108.499L41.6427 109.399C41.6979 109.455 41.6427 109.512 41.5875 109.455L40.7045 108.724C40.6493 108.724 40.6493 108.724 40.6493 108.781L40.5389 109.961C40.5389 110.018 40.4285 110.018 40.4285 109.961L40.3181 108.781C40.3181 108.724 40.2629 108.724 40.2629 108.724L39.3799 109.455C39.3247 109.512 39.2695 109.455 39.3247 109.399L40.0422 108.499C40.0422 108.443 40.0422 108.443 39.987 108.443L38.9935 108.387C38.9384 108.387 38.9384 108.274 38.9935 108.274L40.1526 108.162C40.2078 108.162 40.2078 108.106 40.2078 108.106L39.4903 107.206C39.4351 107.15 39.4903 107.093 39.5455 107.15L40.4285 107.881C40.4837 107.881 40.4837 107.881 40.4837 107.825L40.5941 106.644C40.5389 106.644 40.5941 106.644 40.5941 106.7Z" fill="#648200"/>
<path d="M33.9642 111.343L34.0746 112.524C34.0746 112.581 34.1298 112.581 34.1298 112.581L35.0129 111.849C35.068 111.793 35.1232 111.849 35.068 111.906L34.3506 112.805C34.3506 112.862 34.3506 112.862 34.4058 112.862L35.5648 112.974C35.62 112.974 35.62 113.087 35.5648 113.087H34.3506C34.2954 113.087 34.2954 113.143 34.2954 113.143L35.0129 114.043C35.068 114.099 35.0129 114.155 34.9577 114.099L34.0746 113.368C34.0194 113.368 34.0194 113.368 34.0194 113.424L33.909 114.605C33.909 114.661 33.7986 114.661 33.7986 114.605L33.6883 113.424C33.6883 113.368 33.6331 113.368 33.6331 113.368L32.75 114.099C32.6948 114.155 32.6396 114.099 32.6948 114.043L33.4123 113.143C33.4123 113.087 33.4123 113.087 33.3571 113.087L32.3637 113.03C32.3085 113.03 32.3085 112.918 32.3637 112.918L33.5227 112.805C33.5779 112.805 33.5779 112.749 33.5779 112.749L32.8604 111.849C32.8052 111.793 32.8604 111.737 32.9156 111.793L33.7986 112.524C33.8538 112.524 33.8538 112.524 33.8538 112.468L33.9642 111.287C33.909 111.287 33.9642 111.287 33.9642 111.343Z" fill="#648200"/>
<path d="M26.4843 108.411L26.5946 109.592C26.5946 109.648 26.6498 109.648 26.6498 109.648L27.5329 108.917C27.5881 108.86 27.6433 108.917 27.5881 108.973L26.8706 109.76C26.8706 109.816 26.8706 109.816 26.9258 109.816L28.0848 109.929C28.14 109.929 28.14 110.041 28.0848 110.041L26.8706 110.154C26.8154 110.154 26.8154 110.21 26.8154 110.21L27.5329 111.11C27.5881 111.166 27.5329 111.222 27.4777 111.166L26.5946 110.435C26.5394 110.435 26.5394 110.435 26.5394 110.491L26.4291 111.672C26.4291 111.728 26.3187 111.728 26.3187 111.672V110.435C26.3187 110.379 26.2635 110.379 26.2635 110.379L25.3804 111.11C25.3252 111.166 25.27 111.11 25.3252 111.054L26.0427 110.154C26.0427 110.098 26.0427 110.098 25.9875 110.098L24.8285 109.985C24.7733 109.985 24.7733 109.873 24.8285 109.873L25.9875 109.76C26.0427 109.76 26.0427 109.704 26.0427 109.704L25.3252 108.804C25.27 108.748 25.3252 108.692 25.3804 108.748L26.2083 109.592C26.2635 109.592 26.2635 109.592 26.2635 109.535L26.3739 108.354C26.3739 108.298 26.4843 108.298 26.4843 108.411Z" fill="#648200"/>
<path fill-rule="evenodd" clip-rule="evenodd" d="M34.6025 88.6338C42.6107 88.6354 49.1025 95.1286 49.1025 103.137C49.1025 111.145 42.6107 117.635 34.6025 117.634C26.5944 117.632 20.1025 111.139 20.1025 103.131C20.1025 95.1227 26.5944 88.6321 34.6025 88.6338ZM44.672 103.136C44.672 97.5746 40.1637 93.0654 34.6025 93.0643C29.0413 93.0632 24.5331 97.5705 24.5331 103.132C24.5331 108.693 29.0413 113.202 34.6025 113.203C40.1637 113.204 44.672 108.697 44.672 103.136Z" fill="black"/>
<path d="M80.1025 103.132C80.1025 110.035 85.699 115.633 92.6025 115.634C99.5061 115.636 105.103 110.04 105.103 103.137C105.103 96.2332 99.5061 90.6356 92.6025 90.6342C85.699 90.6328 80.1025 96.2282 80.1025 103.132Z" fill="#EDEB7F"/>
<path d="M96.925 114.81C90.5382 116.797 83.4787 113.307 81.1571 107.015C78.8355 100.722 82.1309 94.0094 88.5177 92.0219C94.9045 90.0344 101.964 93.5243 104.286 99.817C106.607 106.11 103.312 112.822 96.925 114.81Z" fill="#88B200"/>
<path d="M95.1814 103.968C97.9961 97.6692 99.3207 92.1581 98.1065 91.5957C100.976 92.9454 101.032 99.1314 98.2169 105.374C95.4021 111.672 90.766 115.665 87.8961 114.315C89.1103 114.877 92.3666 110.266 95.1814 103.968Z" fill="#A1C42D"/>
<path d="M98.1074 91.54C96.8932 90.9776 93.6369 95.6452 90.8773 101.944C88.0625 108.242 86.7379 113.753 87.9522 114.316C85.0822 112.966 85.027 106.78 87.8418 100.538C90.6014 94.2393 95.2375 90.2466 98.1074 91.54Z" fill="#A1C42D"/>
<path d="M100.867 106.611C103.682 100.312 102.467 93.6202 98.1072 91.5957C103.902 94.2388 106.331 101.55 103.516 107.848C100.701 114.146 93.6919 117.071 87.8967 114.371C92.2569 116.34 98.052 112.909 100.867 106.611Z" fill="#799E00"/>
<path d="M98.1074 91.5395C93.7473 89.5713 87.9522 93.0017 85.1374 99.3001C82.3226 105.599 83.5368 112.291 87.897 114.315C82.1018 111.616 79.6734 104.361 82.4882 98.0629C85.303 91.7645 92.3123 88.8402 98.1074 91.5395Z" fill="#799E00"/>
<path d="M103.35 101.438L103.24 102.619C103.24 102.675 103.185 102.675 103.185 102.675L102.302 101.888C102.246 101.831 102.191 101.888 102.246 101.944L102.964 102.844C102.964 102.9 102.964 102.9 102.909 102.9L101.75 103.012C101.694 103.012 101.694 103.125 101.75 103.125L102.909 103.237C102.964 103.237 102.964 103.293 102.964 103.293L102.246 104.193C102.191 104.249 102.246 104.306 102.302 104.249L103.185 103.518C103.24 103.518 103.24 103.518 103.24 103.575L103.35 104.756C103.35 104.812 103.461 104.812 103.461 104.756L103.571 103.575C103.571 103.518 103.626 103.518 103.626 103.518L104.509 104.249C104.564 104.306 104.62 104.249 104.564 104.193L103.847 103.293C103.847 103.237 103.847 103.237 103.902 103.237L105.061 103.125C105.116 103.125 105.116 103.012 105.061 103.012L103.902 102.9C103.847 102.9 103.847 102.844 103.847 102.844L104.509 101.944C104.564 101.888 104.509 101.831 104.454 101.888L103.571 102.619C103.516 102.619 103.516 102.619 103.516 102.562L103.405 101.438C103.405 101.381 103.35 101.381 103.35 101.438Z" fill="#648200"/>
<path d="M98.0514 95.0822L97.941 96.2632C97.941 96.3194 97.8858 96.3194 97.8858 96.3194L97.0027 95.5883C96.9475 95.5321 96.8924 95.5883 96.9475 95.6446L97.665 96.5443C97.665 96.6006 97.665 96.6006 97.6098 96.6006L96.4508 96.713C96.3956 96.713 96.3956 96.8255 96.4508 96.8255L97.6098 96.938C97.665 96.938 97.665 96.9942 97.665 96.9942L96.9475 97.894C96.8924 97.9502 96.9475 98.0065 97.0027 97.9502L97.8858 97.1067C97.941 97.1067 97.941 97.1067 97.941 97.1629L98.0514 98.3439C98.0514 98.4001 98.1618 98.4001 98.1618 98.3439L98.2721 97.1629C98.2721 97.1067 98.3273 97.1067 98.3273 97.1067L99.2104 97.8378C99.2656 97.894 99.3208 97.8378 99.2656 97.7815L98.5481 96.8818C98.5481 96.8255 98.5481 96.8255 98.6033 96.8255L99.7623 96.713C99.8175 96.713 99.8175 96.6006 99.7623 96.6006L98.6033 96.4881C98.5481 96.4881 98.5481 96.4319 98.5481 96.4319L99.2656 95.5321C99.3208 95.4759 99.2656 95.4196 99.2104 95.4759L98.3273 96.2069C98.2721 96.2069 98.2721 96.2069 98.2721 96.1507L98.1618 94.9697C98.1618 95.026 98.0514 95.026 98.0514 95.0822Z" fill="#648200"/>
<path d="M90.6012 89.965L90.4908 91.146C90.4908 91.2022 90.4356 91.2022 90.4356 91.2022L89.5526 90.4712C89.4974 90.4149 89.4422 90.4712 89.4974 90.5274L90.2149 91.4272C90.2149 91.4834 90.2149 91.4834 90.1597 91.4834L89.0558 91.5396C89.0007 91.5396 89.0007 91.6521 89.0558 91.6521L90.2149 91.7646C90.2701 91.7646 90.2701 91.8208 90.2701 91.8208L89.5526 92.7206C89.4974 92.7768 89.5526 92.8331 89.6078 92.7768L90.4908 92.0458C90.546 92.0458 90.546 92.0458 90.546 92.102L90.6564 93.283C90.6564 93.3392 90.7668 93.3392 90.7668 93.283L90.8772 92.102C90.8772 92.0458 90.9324 92.0458 90.9324 92.0458L91.705 92.7206C91.7602 92.7768 91.8154 92.7206 91.8154 92.6644L91.0979 91.7646C91.0979 91.7084 91.0979 91.7084 91.1531 91.7084L92.2018 91.5959C92.257 91.5959 92.257 91.4834 92.2018 91.4834L91.0427 91.3709C90.9876 91.3709 90.9876 91.3147 90.9876 91.3147L91.8154 90.4712C91.8706 90.4149 91.8154 90.3587 91.7602 90.4149L90.8772 91.146C90.822 91.146 90.822 91.146 90.822 91.0898L90.7116 89.965C90.7116 89.9088 90.6012 89.9088 90.6012 89.965Z" fill="#648200"/>
<path d="M83.8121 97.6135L83.7017 98.7944C83.7017 98.8507 83.6465 98.8507 83.6465 98.8507L82.7635 98.1196C82.7083 98.0634 82.6531 98.1196 82.7083 98.1758L83.4258 99.0756C83.4258 99.1318 83.4258 99.1318 83.3706 99.1318L82.2116 99.2443C82.1564 99.2443 82.1564 99.3568 82.2116 99.3568L83.3706 99.4693C83.4258 99.4693 83.4258 99.5255 83.4258 99.5255L82.7083 100.425C82.6531 100.482 82.7083 100.538 82.7635 100.482L83.6465 99.7504C83.7017 99.7504 83.7017 99.7504 83.7017 99.8067L83.8121 100.988C83.8121 101.044 83.9225 101.044 83.9225 100.988L84.0329 99.8067C84.0329 99.7504 84.0881 99.7504 84.0881 99.7504L84.9711 100.482C85.0263 100.538 85.0815 100.482 85.0263 100.425L84.3088 99.5255C84.3088 99.4693 84.3088 99.4693 84.364 99.4693L85.5231 99.3568C85.5783 99.3568 85.5783 99.2443 85.5231 99.2443L84.364 99.1318C84.3088 99.1318 84.3088 99.0756 84.3088 99.0756L85.0263 98.1758C85.0815 98.1196 85.0263 98.0634 84.9711 98.1196L84.0881 98.8507C84.0329 98.8507 84.0329 98.8507 84.0329 98.7944L83.9225 97.6135C83.8673 97.5572 83.8121 97.5572 83.8121 97.6135Z" fill="#648200"/>
<path d="M89.6627 98.2316L89.5524 99.4126C89.5524 99.4688 89.4972 99.4688 89.4972 99.4688L88.6141 98.7377C88.5589 98.6815 88.5037 98.7377 88.5589 98.794L89.2764 99.6938C89.2764 99.75 89.2764 99.75 89.2212 99.75L88.0622 99.8625C88.007 99.8625 88.007 99.9749 88.0622 99.9749L89.2212 100.087C89.2764 100.087 89.2764 100.144 89.2764 100.144L88.5589 101.043C88.5037 101.1 88.5589 101.156 88.6141 101.1L89.4972 100.369C89.5524 100.369 89.5524 100.369 89.5524 100.425L89.6627 101.606C89.6627 101.662 89.7731 101.662 89.7731 101.606L89.8835 100.425C89.8835 100.369 89.9387 100.369 89.9387 100.369L90.8218 101.1C90.877 101.156 90.9321 101.1 90.877 101.043L90.1595 100.144C90.1595 100.087 90.1595 100.087 90.2147 100.087L91.2633 99.8625C91.3185 99.8625 91.3185 99.75 91.2633 99.75L90.1043 99.6375C90.0491 99.6375 90.0491 99.5813 90.0491 99.5813L90.7666 98.6815C90.8218 98.6253 90.7666 98.569 90.7114 98.6253L89.8283 99.3563C89.7731 99.3563 89.7731 99.3563 89.7731 99.3001L89.6627 98.1191C89.7731 98.1754 89.6627 98.1754 89.6627 98.2316Z" fill="#648200"/>
<path d="M95.9704 102.822L95.86 104.003C95.86 104.059 95.8048 104.059 95.8048 104.059L94.9217 103.328C94.8665 103.272 94.8113 103.328 94.8665 103.384L95.584 104.284C95.584 104.34 95.584 104.34 95.5288 104.34L94.3698 104.453C94.3146 104.453 94.3146 104.565 94.3698 104.565H95.584C95.6392 104.565 95.6392 104.621 95.6392 104.621L94.9217 105.521C94.8665 105.577 94.9217 105.634 94.9769 105.577L95.86 104.846C95.9152 104.846 95.9152 104.846 95.9152 104.903L96.0255 106.084C96.0255 106.14 96.1359 106.14 96.1359 106.084L96.2463 104.903C96.2463 104.846 96.3015 104.846 96.3015 104.846L97.1846 105.577C97.2398 105.634 97.295 105.577 97.2398 105.521L96.5223 104.621C96.5223 104.565 96.5223 104.565 96.5775 104.565L97.5709 104.509C97.6261 104.509 97.6261 104.396 97.5709 104.396L96.4119 104.284C96.3567 104.284 96.3567 104.228 96.3567 104.228L97.0742 103.328C97.1294 103.272 97.0742 103.216 97.019 103.272L96.1359 104.003C96.0807 104.003 96.0807 104.003 96.0807 103.947L95.9704 102.766C96.0255 102.766 95.9704 102.766 95.9704 102.822Z" fill="#648200"/>
<path d="M86.9225 106.7L86.8121 107.881C86.8121 107.937 86.7569 107.937 86.7569 107.937L85.8739 107.206C85.8187 107.15 85.7635 107.206 85.8187 107.262L86.5362 108.162C86.5362 108.218 86.5362 108.218 86.481 108.218L85.3219 108.331C85.2668 108.331 85.2668 108.443 85.3219 108.443H86.5362C86.5914 108.443 86.5914 108.499 86.5914 108.499L85.8739 109.399C85.8187 109.455 85.8739 109.512 85.9291 109.455L86.8121 108.724C86.8673 108.724 86.8673 108.724 86.8673 108.781L86.9777 109.961C86.9777 110.018 87.0881 110.018 87.0881 109.961L87.1985 108.781C87.1985 108.724 87.2537 108.724 87.2537 108.724L88.1367 109.455C88.1919 109.512 88.2471 109.455 88.1919 109.399L87.4744 108.499C87.4744 108.443 87.4744 108.443 87.5296 108.443L88.5231 108.387C88.5783 108.387 88.5783 108.274 88.5231 108.274L87.364 108.162C87.3088 108.162 87.3088 108.106 87.3088 108.106L88.0263 107.206C88.0815 107.15 88.0263 107.093 87.9711 107.15L87.0881 107.881C87.0329 107.881 87.0329 107.881 87.0329 107.825L86.9225 106.644C86.9777 106.644 86.9225 106.644 86.9225 106.7Z" fill="#648200"/>
<path d="M93.5524 111.343L93.442 112.524C93.442 112.581 93.3868 112.581 93.3868 112.581L92.5037 111.849C92.4486 111.793 92.3934 111.849 92.4486 111.906L93.166 112.805C93.166 112.862 93.166 112.862 93.1109 112.862L91.9518 112.974C91.8966 112.974 91.8966 113.087 91.9518 113.087H93.166C93.2212 113.087 93.2212 113.143 93.2212 113.143L92.5037 114.043C92.4486 114.099 92.5037 114.155 92.5589 114.099L93.442 113.368C93.4972 113.368 93.4972 113.368 93.4972 113.424L93.6076 114.605C93.6076 114.661 93.718 114.661 93.718 114.605L93.8283 113.424C93.8283 113.368 93.8835 113.368 93.8835 113.368L94.7666 114.099C94.8218 114.155 94.877 114.099 94.8218 114.043L94.1043 113.143C94.1043 113.087 94.1043 113.087 94.1595 113.087L95.1529 113.03C95.2081 113.03 95.2081 112.918 95.1529 112.918L93.9939 112.805C93.9387 112.805 93.9387 112.749 93.9387 112.749L94.6562 111.849C94.7114 111.793 94.6562 111.737 94.601 111.793L93.718 112.524C93.6628 112.524 93.6628 112.524 93.6628 112.468L93.5524 111.287C93.6076 111.287 93.5524 111.287 93.5524 111.343Z" fill="#648200"/>
<path d="M101.032 108.411L100.922 109.592C100.922 109.648 100.867 109.648 100.867 109.648L99.9837 108.917C99.9285 108.86 99.8733 108.917 99.9285 108.973L100.646 109.76C100.646 109.816 100.646 109.816 100.591 109.816L99.4318 109.929C99.3766 109.929 99.3766 110.041 99.4318 110.041L100.646 110.154C100.701 110.154 100.701 110.21 100.701 110.21L99.9837 111.11C99.9285 111.166 99.9837 111.222 100.039 111.166L100.922 110.435C100.977 110.435 100.977 110.435 100.977 110.491L101.088 111.672C101.088 111.728 101.198 111.728 101.198 111.672V110.435C101.198 110.379 101.253 110.379 101.253 110.379L102.136 111.11C102.191 111.166 102.247 111.11 102.191 111.054L101.474 110.154C101.474 110.098 101.474 110.098 101.529 110.098L102.688 109.985C102.743 109.985 102.743 109.873 102.688 109.873L101.529 109.76C101.474 109.76 101.474 109.704 101.474 109.704L102.191 108.804C102.247 108.748 102.191 108.692 102.136 108.748L101.308 109.592C101.253 109.592 101.253 109.592 101.253 109.535L101.143 108.354C101.143 108.298 101.032 108.298 101.032 108.411Z" fill="#648200"/>
<path fill-rule="evenodd" clip-rule="evenodd" d="M92.6025 88.6338C100.611 88.6354 107.103 95.1286 107.103 103.137C107.103 111.145 100.611 117.635 92.6025 117.634C84.5944 117.632 78.1025 111.139 78.1025 103.131C78.1025 95.1227 84.5944 88.6321 92.6025 88.6338ZM102.672 103.136C102.672 97.5746 98.1637 93.0654 92.6025 93.0643C87.0413 93.0632 82.5331 97.5705 82.5331 103.132C82.5331 108.693 87.0413 113.202 92.6025 113.203C98.1637 113.204 102.672 108.697 102.672 103.136Z" fill="black"/>
</svg>
