<svg width="256" height="256" viewBox="0 0 256 256" fill="none" xmlns="http://www.w3.org/2000/svg">
<path d="M129.501 33.5254C129.56 34.307 129.585 35.147 129.566 36.0285C130.575 54.9597 143.139 57.1703 151.631 58.1137C129.501 60.5726 130.976 71.8832 129.501 82.2103C129.501 62.0479 116.715 58.1137 106.88 58.1137C124.781 58.1137 129.378 44.9455 129.566 36.0285C129.523 35.2247 129.501 34.3907 129.501 33.5254Z" fill="white"/>
<circle cx="130.484" cy="59.0995" r="20.6542" fill="url(#paint0_radial)"/>
<path d="M70.3957 52.0996C70.4547 52.8812 70.4792 53.7212 70.4606 54.6027C71.47 73.5339 84.0339 75.7445 92.5252 76.688C70.3957 79.1468 71.871 90.4574 70.3957 100.785C70.3957 80.6221 57.6097 76.688 47.7744 76.688C65.6754 76.688 70.2725 63.5198 70.4606 54.6027C70.4177 53.7989 70.3957 52.9649 70.3957 52.0996Z" fill="white"/>
<circle cx="71.3788" cy="77.6718" r="20.6542" fill="url(#paint1_radial)"/>
<path d="M132.155 89.252C132.243 90.417 132.279 91.669 132.252 92.983C133.756 121.201 152.484 124.496 165.141 125.902C132.155 129.568 134.354 146.427 132.155 161.82C132.155 131.767 113.097 125.902 98.4365 125.902C125.119 125.902 131.971 106.274 132.252 92.983C132.188 91.7848 132.155 90.5417 132.155 89.252Z" fill="white"/>
<circle cx="133.621" cy="127.367" r="30.7865" fill="url(#paint2_radial)"/>
<path d="M87.2834 119.648C87.3424 120.43 87.3669 121.27 87.3483 122.152C88.3577 141.083 100.922 143.293 109.413 144.237C87.2834 146.696 88.7587 158.006 87.2834 168.333C87.2834 148.171 74.4974 144.237 64.6621 144.237C82.5631 144.237 87.1602 131.069 87.3483 122.152C87.3054 121.348 87.2834 120.514 87.2834 119.648Z" fill="white"/>
<circle cx="88.2665" cy="145.221" r="20.6542" fill="url(#paint3_radial)"/>
<path d="M164.964 48.7227C165.023 49.5043 165.048 50.3442 165.029 51.2258C166.038 70.157 178.602 72.3675 187.094 73.311C164.964 75.7698 166.439 87.0805 164.964 97.4076C164.964 77.2451 152.178 73.311 142.343 73.311C160.244 73.311 164.841 60.1428 165.029 51.2258C164.986 50.4219 164.964 49.588 164.964 48.7227Z" fill="white"/>
<circle cx="165.947" cy="74.2948" r="20.6542" fill="url(#paint4_radial)"/>
<path d="M39.1469 131.471C39.1772 131.873 39.1898 132.305 39.1803 132.758C39.6995 142.496 46.1622 143.633 50.5301 144.119C39.1469 145.383 39.9058 151.202 39.1469 156.514C39.1469 146.142 32.5699 144.119 27.5107 144.119C36.7188 144.119 39.0835 137.345 39.1803 132.758C39.1582 132.345 39.1469 131.916 39.1469 131.471Z" fill="white"/>
<circle cx="39.6526" cy="144.624" r="10.6243" fill="url(#paint5_radial)"/>
<path d="M62.7885 107.828C62.8188 108.23 62.8314 108.662 62.8219 109.116C63.3411 118.854 69.8038 119.991 74.1717 120.476C62.7885 121.741 63.5474 127.559 62.7885 132.871C62.7885 122.5 56.2115 120.476 51.1523 120.476C60.3604 120.476 62.7251 113.703 62.8219 109.116C62.7998 108.702 62.7885 108.273 62.7885 107.828Z" fill="white"/>
<circle cx="63.2932" cy="120.982" r="10.6243" fill="url(#paint6_radial)"/>
<path d="M39.1469 75.7422C39.1772 76.1442 39.1898 76.5763 39.1803 77.0297C39.6995 86.7678 46.1622 87.9049 50.5301 88.3902C39.1469 89.655 39.9058 95.473 39.1469 100.785C39.1469 90.4138 32.5699 88.3902 27.5107 88.3902C36.7188 88.3902 39.0835 81.6166 39.1803 77.0297C39.1582 76.6163 39.1469 76.1873 39.1469 75.7422Z" fill="white"/>
<circle cx="39.6526" cy="88.8958" r="10.6243" fill="url(#paint7_radial)"/>
<path d="M89.809 26.7695C89.8393 27.1716 89.8519 27.6036 89.8424 28.0571C90.3616 37.7951 96.8244 38.9322 101.192 39.4175C89.809 40.6823 90.5679 46.5004 89.809 51.8125C89.809 41.4412 83.232 39.4175 78.1729 39.4175C87.3809 39.4175 89.7456 32.6439 89.8424 28.0571C89.8203 27.6436 89.809 27.2146 89.809 26.7695Z" fill="white"/>
<circle cx="90.3147" cy="39.9231" r="10.6243" fill="url(#paint8_radial)"/>
<path d="M177.621 35.2129C177.651 35.6149 177.663 36.047 177.654 36.5004C178.173 46.2385 184.636 47.3756 189.004 47.8609C177.621 49.1257 178.379 54.9437 177.621 60.2559C177.621 49.8845 171.044 47.8609 165.984 47.8609C175.192 47.8609 177.557 41.0873 177.654 36.5004C177.632 36.087 177.621 35.658 177.621 35.2129Z" fill="white"/>
<circle cx="178.126" cy="48.3684" r="10.6243" fill="url(#paint9_radial)"/>
<path d="M196.197 72.3652C196.227 72.7673 196.24 73.1993 196.23 73.6528C196.749 83.3908 203.212 84.5279 207.58 85.0132C196.197 86.278 196.956 92.0961 196.197 97.4082C196.197 87.0369 189.62 85.0132 184.561 85.0132C193.769 85.0132 196.133 78.2396 196.23 73.6528C196.208 73.2393 196.197 72.8103 196.197 72.3652Z" fill="white"/>
<circle cx="196.702" cy="85.5188" r="10.6243" fill="url(#paint10_radial)"/>
<path d="M175.932 124.715C175.962 125.117 175.975 125.549 175.965 126.002C176.485 135.74 182.947 136.878 187.315 137.363C175.932 138.628 176.691 144.446 175.932 149.758C175.932 139.386 169.355 137.363 164.296 137.363C173.504 137.363 175.869 130.589 175.965 126.002C175.943 125.589 175.932 125.16 175.932 124.715Z" fill="white"/>
<circle cx="176.438" cy="137.868" r="10.6243" fill="url(#paint11_radial)"/>
<path d="M164.112 92.6309C164.142 93.0329 164.155 93.465 164.145 93.9184C164.664 103.656 171.127 104.794 175.495 105.279C164.112 106.544 164.871 112.362 164.112 117.674C164.112 107.303 157.535 105.279 152.476 105.279C161.684 105.279 164.048 98.5052 164.145 93.9184C164.123 93.5049 164.112 93.076 164.112 92.6309Z" fill="white"/>
<circle cx="164.617" cy="105.784" r="10.6243" fill="url(#paint12_radial)"/>
<path d="M147.224 144.979C147.254 145.381 147.267 145.813 147.257 146.266C147.777 156.004 154.239 157.141 158.607 157.626C147.224 158.891 147.983 164.709 147.224 170.022C147.224 159.65 140.647 157.626 135.588 157.626C144.796 157.626 147.161 150.853 147.257 146.266C147.235 145.853 147.224 145.424 147.224 144.979Z" fill="white"/>
<circle cx="147.73" cy="158.134" r="10.6243" fill="url(#paint13_radial)"/>
<path d="M162.423 193.951C162.454 194.353 162.466 194.785 162.457 195.239C162.976 204.977 169.439 206.114 173.806 206.599C162.423 207.864 163.182 213.682 162.423 218.994C162.423 208.623 155.846 206.599 150.787 206.599C159.995 206.599 162.36 199.826 162.457 195.239C162.435 194.825 162.423 194.396 162.423 193.951Z" fill="white"/>
<circle cx="162.928" cy="207.105" r="10.6243" fill="url(#paint14_radial)"/>
<path d="M69.5434 180.441C69.5737 180.843 69.5863 181.276 69.5767 181.729C70.096 191.467 76.5587 192.604 80.9265 193.089C69.5434 194.354 70.3022 200.172 69.5434 205.484C69.5434 195.113 62.9664 193.089 57.9072 193.089C67.1153 193.089 69.48 186.316 69.5767 181.729C69.5547 181.315 69.5434 180.887 69.5434 180.441Z" fill="white"/>
<circle cx="70.0491" cy="193.597" r="10.6243" fill="url(#paint15_radial)"/>
<path d="M99.9398 155.111C99.9702 155.513 99.9828 155.945 99.9732 156.399C100.492 166.137 106.955 167.274 111.323 167.759C99.9398 169.024 100.699 174.842 99.9398 180.154C99.9398 169.783 93.3629 167.759 88.3037 167.759C97.5118 167.759 99.8765 160.986 99.9732 156.399C99.9512 155.985 99.9398 155.556 99.9398 155.111Z" fill="white"/>
<circle cx="100.446" cy="168.265" r="10.6243" fill="url(#paint16_radial)"/>
<path d="M101.628 85.875C101.659 86.277 101.671 86.7091 101.662 87.1626C102.181 96.9006 108.644 98.0377 113.012 98.523C101.628 99.7878 102.387 105.606 101.628 110.918C101.628 100.547 95.0514 98.523 89.9922 98.523C99.2003 98.523 101.565 91.7494 101.662 87.1626C101.64 86.7491 101.628 86.3201 101.628 85.875Z" fill="white"/>
<circle cx="102.134" cy="99.0286" r="10.6243" fill="url(#paint17_radial)"/>
<path d="M121.058 175.377C121.117 176.159 121.141 176.999 121.123 177.88C122.132 196.811 134.696 199.022 143.187 199.965C121.058 202.424 122.533 213.735 121.058 224.062C121.058 203.899 108.272 199.965 98.4365 199.965C116.338 199.965 120.935 186.797 121.123 177.88C121.08 177.076 121.058 176.242 121.058 175.377Z" fill="white"/>
<circle cx="122.041" cy="200.949" r="20.6542" fill="url(#paint18_radial)"/>
<path d="M181.851 153.424C181.91 154.205 181.934 155.045 181.916 155.927C182.925 174.858 195.489 177.069 203.98 178.012C181.851 180.471 183.326 191.782 181.851 202.109C181.851 181.946 169.065 178.012 159.229 178.012C177.13 178.012 181.728 164.844 181.916 155.927C181.873 155.123 181.851 154.289 181.851 153.424Z" fill="white"/>
<circle cx="182.834" cy="178.996" r="20.6542" fill="url(#paint19_radial)"/>
<path d="M208.871 109.516C208.93 110.297 208.955 111.137 208.936 112.019C209.946 130.95 222.51 133.16 231.001 134.104C208.871 136.563 210.347 147.873 208.871 158.201C208.871 138.038 196.085 134.104 186.25 134.104C204.151 134.104 208.748 120.936 208.936 112.019C208.893 111.215 208.871 110.381 208.871 109.516Z" fill="white"/>
<circle cx="209.854" cy="135.088" r="20.6542" fill="url(#paint20_radial)"/>
<defs>
<radialGradient id="paint0_radial" cx="0" cy="0" r="1" gradientUnits="userSpaceOnUse" gradientTransform="translate(130.484 59.0995) rotate(90) scale(20.6542)">
<stop stop-color="white" stop-opacity="0.68"/>
<stop offset="1" stop-color="white" stop-opacity="0"/>
</radialGradient>
<radialGradient id="paint1_radial" cx="0" cy="0" r="1" gradientUnits="userSpaceOnUse" gradientTransform="translate(71.3788 77.6718) rotate(90) scale(20.6542)">
<stop stop-color="white" stop-opacity="0.68"/>
<stop offset="1" stop-color="white" stop-opacity="0"/>
</radialGradient>
<radialGradient id="paint2_radial" cx="0" cy="0" r="1" gradientUnits="userSpaceOnUse" gradientTransform="translate(133.621 127.367) rotate(90) scale(30.7865)">
<stop stop-color="white" stop-opacity="0.68"/>
<stop offset="1" stop-color="white" stop-opacity="0"/>
</radialGradient>
<radialGradient id="paint3_radial" cx="0" cy="0" r="1" gradientUnits="userSpaceOnUse" gradientTransform="translate(88.2665 145.221) rotate(90) scale(20.6542)">
<stop stop-color="white" stop-opacity="0.68"/>
<stop offset="1" stop-color="white" stop-opacity="0"/>
</radialGradient>
<radialGradient id="paint4_radial" cx="0" cy="0" r="1" gradientUnits="userSpaceOnUse" gradientTransform="translate(165.947 74.2948) rotate(90) scale(20.6542)">
<stop stop-color="white" stop-opacity="0.68"/>
<stop offset="1" stop-color="white" stop-opacity="0"/>
</radialGradient>
<radialGradient id="paint5_radial" cx="0" cy="0" r="1" gradientUnits="userSpaceOnUse" gradientTransform="translate(39.6526 144.624) rotate(90) scale(10.6243)">
<stop stop-color="white" stop-opacity="0.68"/>
<stop offset="1" stop-color="white" stop-opacity="0"/>
</radialGradient>
<radialGradient id="paint6_radial" cx="0" cy="0" r="1" gradientUnits="userSpaceOnUse" gradientTransform="translate(63.2932 120.982) rotate(90) scale(10.6243)">
<stop stop-color="white" stop-opacity="0.68"/>
<stop offset="1" stop-color="white" stop-opacity="0"/>
</radialGradient>
<radialGradient id="paint7_radial" cx="0" cy="0" r="1" gradientUnits="userSpaceOnUse" gradientTransform="translate(39.6526 88.8958) rotate(90) scale(10.6243)">
<stop stop-color="white" stop-opacity="0.68"/>
<stop offset="1" stop-color="white" stop-opacity="0"/>
</radialGradient>
<radialGradient id="paint8_radial" cx="0" cy="0" r="1" gradientUnits="userSpaceOnUse" gradientTransform="translate(90.3147 39.9231) rotate(90) scale(10.6243)">
<stop stop-color="white" stop-opacity="0.68"/>
<stop offset="1" stop-color="white" stop-opacity="0"/>
</radialGradient>
<radialGradient id="paint9_radial" cx="0" cy="0" r="1" gradientUnits="userSpaceOnUse" gradientTransform="translate(178.126 48.3684) rotate(90) scale(10.6243)">
<stop stop-color="white" stop-opacity="0.68"/>
<stop offset="1" stop-color="white" stop-opacity="0"/>
</radialGradient>
<radialGradient id="paint10_radial" cx="0" cy="0" r="1" gradientUnits="userSpaceOnUse" gradientTransform="translate(196.702 85.5188) rotate(90) scale(10.6243)">
<stop stop-color="white" stop-opacity="0.68"/>
<stop offset="1" stop-color="white" stop-opacity="0"/>
</radialGradient>
<radialGradient id="paint11_radial" cx="0" cy="0" r="1" gradientUnits="userSpaceOnUse" gradientTransform="translate(176.438 137.868) rotate(90) scale(10.6243)">
<stop stop-color="white" stop-opacity="0.68"/>
<stop offset="1" stop-color="white" stop-opacity="0"/>
</radialGradient>
<radialGradient id="paint12_radial" cx="0" cy="0" r="1" gradientUnits="userSpaceOnUse" gradientTransform="translate(164.617 105.784) rotate(90) scale(10.6243)">
<stop stop-color="white" stop-opacity="0.68"/>
<stop offset="1" stop-color="white" stop-opacity="0"/>
</radialGradient>
<radialGradient id="paint13_radial" cx="0" cy="0" r="1" gradientUnits="userSpaceOnUse" gradientTransform="translate(147.73 158.134) rotate(90) scale(10.6243)">
<stop stop-color="white" stop-opacity="0.68"/>
<stop offset="1" stop-color="white" stop-opacity="0"/>
</radialGradient>
<radialGradient id="paint14_radial" cx="0" cy="0" r="1" gradientUnits="userSpaceOnUse" gradientTransform="translate(162.928 207.105) rotate(90) scale(10.6243)">
<stop stop-color="white" stop-opacity="0.68"/>
<stop offset="1" stop-color="white" stop-opacity="0"/>
</radialGradient>
<radialGradient id="paint15_radial" cx="0" cy="0" r="1" gradientUnits="userSpaceOnUse" gradientTransform="translate(70.0491 193.597) rotate(90) scale(10.6243)">
<stop stop-color="white" stop-opacity="0.68"/>
<stop offset="1" stop-color="white" stop-opacity="0"/>
</radialGradient>
<radialGradient id="paint16_radial" cx="0" cy="0" r="1" gradientUnits="userSpaceOnUse" gradientTransform="translate(100.446 168.265) rotate(90) scale(10.6243)">
<stop stop-color="white" stop-opacity="0.68"/>
<stop offset="1" stop-color="white" stop-opacity="0"/>
</radialGradient>
<radialGradient id="paint17_radial" cx="0" cy="0" r="1" gradientUnits="userSpaceOnUse" gradientTransform="translate(102.134 99.0286) rotate(90) scale(10.6243)">
<stop stop-color="white" stop-opacity="0.68"/>
<stop offset="1" stop-color="white" stop-opacity="0"/>
</radialGradient>
<radialGradient id="paint18_radial" cx="0" cy="0" r="1" gradientUnits="userSpaceOnUse" gradientTransform="translate(122.041 200.949) rotate(90) scale(20.6542)">
<stop stop-color="white" stop-opacity="0.68"/>
<stop offset="1" stop-color="white" stop-opacity="0"/>
</radialGradient>
<radialGradient id="paint19_radial" cx="0" cy="0" r="1" gradientUnits="userSpaceOnUse" gradientTransform="translate(182.834 178.996) rotate(90) scale(20.6542)">
<stop stop-color="white" stop-opacity="0.68"/>
<stop offset="1" stop-color="white" stop-opacity="0"/>
</radialGradient>
<radialGradient id="paint20_radial" cx="0" cy="0" r="1" gradientUnits="userSpaceOnUse" gradientTransform="translate(209.854 135.088) rotate(90) scale(20.6542)">
<stop stop-color="white" stop-opacity="0.68"/>
<stop offset="1" stop-color="white" stop-opacity="0"/>
</radialGradient>
</defs>
</svg>
