<svg width="129" height="129" viewBox="0 0 129 129" fill="none" xmlns="http://www.w3.org/2000/svg">
<path d="M63.9041 15.0889C46.5071 15.0889 32.4046 29.1919 32.4052 46.5889C32.4058 63.9858 46.5093 78.0889 63.9063 78.0889C81.3032 78.0889 95.4058 63.9858 95.4052 46.5889C95.4045 29.1919 81.301 15.0889 63.9041 15.0889Z" fill="url(#paint0_linear_1546_382)"/>
<path fill-rule="evenodd" clip-rule="evenodd" d="M64.4062 12.0891C83.1839 12.0884 98.4062 27.3102 98.4062 46.0879C98.4062 64.8656 83.1839 80.0884 64.4062 80.0891C45.6286 80.0897 30.4062 64.8679 30.4062 46.0903C30.4062 27.3126 45.6286 12.0897 64.4062 12.0891ZM93.216 46.0881C93.216 30.1769 80.3174 17.2788 64.4062 17.2793C48.4951 17.2799 35.5965 30.1789 35.5965 46.0901C35.5965 62.0013 48.4951 74.8994 64.4062 74.8988C80.3174 74.8983 93.216 61.9993 93.216 46.0881Z" fill="black"/>
<path d="M22.4062 70.0879C22.4062 47.4442 40.7746 29.0879 63.4062 29.0879C86.0379 29.0879 104.406 47.4442 104.406 70.0879C104.406 92.7316 86.0379 111.088 63.4062 111.088C40.7746 111.088 22.4062 92.7316 22.4062 70.0879Z" fill="url(#paint1_linear_1546_382)"/>
<path d="M69.5163 36.6593L69.9415 34.9584C71.6424 35.8088 73.3433 36.6593 74.619 37.935L73.7685 39.2107C72.4929 37.935 70.7919 37.0845 69.5163 36.6593Z" fill="#4B251D"/>
<path d="M70.7933 50.6862L71.6438 49.4105C73.3447 50.2609 73.7699 51.9618 74.1951 53.6628L72.9195 54.088C72.4942 52.8123 72.069 51.5366 70.7933 50.6862Z" fill="#4B251D"/>
<path d="M63.5627 57.9122L63.9879 56.6365C66.1141 57.0618 66.9645 58.7627 68.2402 60.4636L66.9645 61.314C66.1141 59.6131 65.2636 58.3374 63.5627 57.9122Z" fill="#4B251D"/>
<path d="M65.2657 73.2263L65.6909 71.9506C66.1162 72.3759 66.9666 72.3759 67.3918 72.8011C68.2423 73.2263 69.0927 73.6515 69.9432 74.0768L69.518 74.9272C68.2423 74.502 67.3918 74.0768 66.5414 73.6515C66.5414 73.6515 66.1162 73.2263 65.2657 73.2263Z" fill="#4B251D"/>
<path d="M66.1138 87.2626L66.539 85.9869C66.9642 85.9869 67.3895 86.4121 68.2399 86.4121C69.5156 86.8374 70.3661 87.2626 71.6417 87.2626L71.6417 88.9635C70.3661 88.9635 69.0904 88.5383 67.8147 88.1131C66.9642 87.2626 66.539 87.2626 66.1138 87.2626Z" fill="#4B251D"/>
<path d="M73.1319 101.124L68.0496 100.669L67.8981 102.363L72.9804 102.818L73.1319 101.124Z" fill="#4B251D"/>
<path d="M78.0218 91.9312L78.8723 90.6556C80.5732 91.506 82.2741 92.7817 83.975 93.2069L83.5498 94.4826C81.4237 94.0574 79.7228 93.2069 78.0218 91.9312Z" fill="#4B251D"/>
<path d="M82.6982 83.4256L83.5486 82.1499C84.8243 83.4256 86.1 84.2761 87.3757 84.7013L86.5252 85.977C85.2495 85.5517 83.9739 84.7013 82.6982 83.4256Z" fill="#4B251D"/>
<path d="M89.0783 76.6314L89.9288 75.3558C91.2045 76.6314 92.4802 77.9071 93.3306 79.608L92.0549 80.4585C91.6297 78.7576 90.354 77.4819 89.0783 76.6314Z" fill="#4B251D"/>
<path d="M95.4564 65.5656L96.7321 65.1404C97.1573 65.9909 97.1573 66.8413 97.1573 67.2665C97.1573 68.117 97.5825 68.5422 97.5825 69.3927L96.3069 69.8179C95.8816 68.9674 95.8816 68.117 95.8816 67.6918C95.8816 66.8413 95.4564 65.9909 95.4564 65.5656Z" fill="#4B251D"/>
<path d="M95.213 54.3953L91.0134 49.5943L89.7332 50.7142L93.9327 55.5152L95.213 54.3953Z" fill="#4B251D"/>
<path d="M83.5511 39.1982C83.9763 38.773 85.252 38.773 86.1025 39.1982C87.8034 40.0486 89.0791 41.3243 89.9295 42.6L88.6538 43.4505C87.8034 42.1748 86.5277 41.3243 85.252 40.4739L84.8268 40.4739L83.5511 39.1982Z" fill="#4B251D"/>
<path d="M89.9197 59.7251L87.0141 56.6205L85.7723 57.7827L88.6779 60.8873L89.9197 59.7251Z" fill="#4B251D"/>
<path d="M96.731 82.5773L97.1562 81.3017C97.5814 81.3017 98.0067 81.3017 98.4319 81.7269C98.8571 81.7269 99.7076 81.7269 100.133 82.1521L99.7076 83.4278C99.2824 83.4278 98.8571 83.4278 98.4319 83.0026C98.0067 83.0026 97.5814 83.0026 96.731 82.5773Z" fill="#4B251D"/>
<path d="M78.4454 63.4429L79.7211 62.1672C80.5716 63.0176 81.422 63.4429 82.2725 63.8681L81.8472 65.1438C80.1463 65.1438 79.2959 64.2933 78.4454 63.4429Z" fill="#4B251D"/>
<path d="M79.6919 74.2095L75.8774 71.5027L74.893 72.8898L78.7075 75.5966L79.6919 74.2095Z" fill="#4B251D"/>
<path d="M42.7285 47.7118C42.7285 46.8613 42.7285 45.5856 42.7285 44.31L44.4294 44.31C44.0041 46.8613 44.4294 48.9874 44.4294 51.5388L42.7285 51.5388C43.1537 50.2631 42.7285 48.9874 42.7285 47.7118Z" fill="#4B251D"/>
<path d="M49.9395 62.0132L49.0929 56.1208L47.4094 56.3626L48.2559 62.2551L49.9395 62.0132Z" fill="#4B251D"/>
<path d="M54.5055 38.222L53.9307 33.5801L52.2427 33.7891L52.8175 38.4311L54.5055 38.222Z" fill="#4B251D"/>
<path d="M53.7829 44.3045C53.7829 42.6036 54.2081 41.3279 56.7595 39.627L57.6099 40.9027C55.4838 42.1784 55.4838 42.6036 55.4838 43.8793L55.4838 44.3045L53.7829 44.3045Z" fill="#4B251D"/>
<path d="M59.7352 48.565C60.1604 48.1397 60.5856 48.1397 61.0109 48.1397C61.4361 48.1397 61.8613 47.7145 62.2865 47.7145L63.137 48.9902C62.7118 49.4154 62.2865 49.4154 61.8613 49.4154C61.0108 49.4154 60.5856 49.4154 60.1604 49.8407L59.7352 48.565Z" fill="#4B251D"/>
<path d="M31.5577 76.5214C31.218 76.2656 26.8053 70.8148 26.6374 69.6239L28.084 69.1162C28.252 70.3071 31.9012 74.651 32.3249 75.5022L31.5577 76.5214Z" fill="#4B251D"/>
<path d="M34.3193 89.09L33.2963 90.4489C31.5137 88.5747 30.0709 86.9563 28.8837 84.9981L29.9067 83.6392C31.0938 85.5974 32.281 87.5556 34.3193 89.09Z" fill="#4B251D"/>
<path d="M36.1567 98.2952L40.8915 102.569L42.0311 101.306L37.2963 97.0326L36.1567 98.2952Z" fill="#4B251D"/>
<path d="M49.1034 101.27L47.6567 101.778C47.233 100.926 46.8093 100.075 47.065 99.7354C46.7253 99.4797 46.0458 98.9682 45.0267 98.201L46.0496 96.8421C47.4085 97.865 48.088 98.3765 48.088 98.3765C48.088 98.3765 48.7674 98.888 48.5117 99.2277C48.256 99.5675 48.5957 99.8232 49.1034 101.27Z" fill="#4B251D"/>
<path d="M51.6693 89.9112L50.881 91.4185L55.4028 93.7833L56.191 92.276L51.6693 89.9112Z" fill="#4B251D"/>
<path d="M62.7293 88.1171L57.3777 84.6207C56.0188 83.5977 54.0644 82.6587 51.7703 81.464L52.4536 79.8493C55.0874 81.2998 57.0418 82.2388 58.0609 83.006L62.7293 88.1171Z" fill="#4B251D"/>
<path d="M42.923 83.3211L41.9 84.68C40.8809 83.9128 39.522 82.8898 37.4836 81.3553L38.5066 79.9964C40.461 80.9354 41.5641 82.2981 42.923 83.3211Z" fill="#4B251D"/>
<path d="M44.4834 68.5171L43.4604 69.876L43.1207 69.6203C41.4221 68.3415 40.9984 67.4903 37.6813 67.6545L37.7691 66.1238C41.6816 65.8757 42.7008 66.6429 44.4834 68.5171Z" fill="#4B251D"/>
<path d="M45.0883 59.9369L44.0653 61.2958L43.3859 60.7843C42.2827 59.4216 40.9238 58.3986 39.3092 57.7153L39.7367 56.4404C41.691 57.3794 42.7102 58.1466 44.1531 59.7651L45.0883 59.9369Z" fill="#4B251D"/>
<path d="M37.1065 52.8644C35.8315 52.4369 35.1521 51.9254 34.4726 51.414C34.1329 51.1582 33.7932 50.9025 33.4535 50.6467L34.4764 49.2878C34.8162 49.5436 35.1559 49.7993 35.4956 50.0551C36.1751 50.5665 36.8545 51.078 37.7897 51.2498L37.1065 52.8644Z" fill="#4B251D"/>
<path d="M32.4995 63.2278C30.6291 62.8843 29.0144 62.201 27.0601 61.262L27.7433 59.6474C29.358 60.3306 30.9726 61.0139 32.5872 61.6971L32.4995 63.2278Z" fill="#4B251D"/>
<path d="M63.0658 105.663C62.7743 105.856 62.1913 106.242 61.5137 105.852C60.5446 105.655 59.5755 105.458 57.8303 105.356L58.1259 103.902C59.7725 104.489 61.0331 104.493 61.5177 104.592C62.0022 104.69 62.2938 104.497 62.2938 104.497L63.4559 104.986C63.4559 104.986 63.3574 105.47 63.0658 105.663Z" fill="#4B251D"/>
<path d="M71.6284 97.0599C71.0453 97.4459 70.7538 97.639 70.4623 97.832C69.2961 98.604 69.0046 98.7971 65.9988 98.6905L66.0028 97.4299C68.8156 97.2449 69.0086 97.5364 69.8832 96.9574C70.1748 96.7644 70.4663 96.5713 71.0493 96.1853L71.6284 97.0599Z" fill="#4B251D"/>
<path d="M50.9204 94.2482L50.0929 95.3756L54.6025 98.6858L55.43 97.5584L50.9204 94.2482Z" fill="#4B251D"/>
<path d="M58.0606 71.5672C56.9209 69.2453 54.8444 66.7602 54.0709 65.6603L55.0487 64.4794C56.3517 65.8646 58.4281 68.3497 59.5679 70.6716L58.0606 71.5672Z" fill="#4B251D"/>
<path d="M62.6567 66.1935L61.3127 66.1523C61.5979 65.6229 61.4759 65.2156 60.9465 64.9304C59.7656 63.9525 58.1774 63.0967 57.1186 62.5262L57.445 60.6527C58.5038 61.2233 60.6214 62.3643 61.3949 63.4642C62.4537 64.0348 62.6979 64.8494 62.6567 66.1935Z" fill="#4B251D"/>
<path d="M34.9052 115.085C41.8087 115.085 47.4063 109.489 47.4077 102.585C47.409 95.6814 41.8137 90.085 34.9102 90.085C28.0066 90.085 22.409 95.6814 22.4077 102.585C22.4063 109.489 28.0016 115.085 34.9052 115.085Z" fill="url(#paint2_linear_1546_382)"/>
<path fill-rule="evenodd" clip-rule="evenodd" d="M34.9062 88.0849C42.9144 88.0866 49.4062 94.5798 49.4062 102.588C49.4062 110.596 42.9144 117.087 34.9062 117.085C26.8981 117.083 20.4062 110.59 20.4062 102.582C20.4062 94.5738 26.8981 88.0833 34.9062 88.0849ZM44.9757 102.587C44.9757 97.0258 40.4675 92.5166 34.9062 92.5155C29.345 92.5143 24.8368 97.0217 24.8368 102.583C24.8368 108.144 29.345 112.653 34.9062 112.654C40.4675 112.656 44.9757 108.148 44.9757 102.587Z" fill="black"/>
<path d="M92.9052 115.085C99.8087 115.085 105.406 109.489 105.408 102.585C105.409 95.6814 99.8137 90.085 92.9102 90.085C86.0066 90.085 80.409 95.6814 80.4077 102.585C80.4063 109.489 86.0016 115.085 92.9052 115.085Z" fill="url(#paint3_linear_1546_382)"/>
<path fill-rule="evenodd" clip-rule="evenodd" d="M92.9062 88.0849C100.914 88.0866 107.406 94.5798 107.406 102.588C107.406 110.596 100.914 117.087 92.9062 117.085C84.8981 117.083 78.4062 110.59 78.4062 102.582C78.4062 94.5738 84.8981 88.0833 92.9062 88.0849ZM102.976 102.587C102.976 97.0258 98.4675 92.5166 92.9062 92.5155C87.345 92.5143 82.8368 97.0217 82.8368 102.583C82.8368 108.144 87.345 112.653 92.9062 112.654C98.4675 112.656 102.976 108.148 102.976 102.587Z" fill="black"/>
<defs>
<linearGradient id="paint0_linear_1546_382" x1="63.9062" y1="78.0889" x2="63.9063" y2="15.0889" gradientUnits="userSpaceOnUse">
<stop stop-color="#5E452E"/>
<stop offset="1" stop-color="#3D2819"/>
</linearGradient>
<linearGradient id="paint1_linear_1546_382" x1="63.4062" y1="29.0879" x2="63.4062" y2="111.088" gradientUnits="userSpaceOnUse">
<stop stop-color="#803319"/>
<stop offset="0.244792" stop-color="#934222"/>
<stop offset="0.682292" stop-color="#A75530"/>
<stop offset="1" stop-color="#B5643C"/>
</linearGradient>
<linearGradient id="paint2_linear_1546_382" x1="34.9102" y1="90.085" x2="34.9102" y2="115.085" gradientUnits="userSpaceOnUse">
<stop stop-color="#803319"/>
<stop offset="0.244792" stop-color="#934222"/>
<stop offset="0.682292" stop-color="#A75530"/>
<stop offset="1" stop-color="#B5643C"/>
</linearGradient>
<linearGradient id="paint3_linear_1546_382" x1="92.9102" y1="90.085" x2="92.9102" y2="115.085" gradientUnits="userSpaceOnUse">
<stop stop-color="#803319"/>
<stop offset="0.244792" stop-color="#934222"/>
<stop offset="0.682292" stop-color="#A75530"/>
<stop offset="1" stop-color="#B5643C"/>
</linearGradient>
</defs>
</svg>
