<svg width="129" height="129" viewBox="0 0 129 129" fill="none" xmlns="http://www.w3.org/2000/svg">
<path d="M117.154 65.577C117.154 55.4208 108.92 47.186 98.7643 47.184C88.6082 47.1819 80.375 55.4135 80.375 65.5696C80.375 75.7258 88.6082 83.9606 98.7643 83.9627C108.92 83.9647 117.154 75.7331 117.154 65.577Z" fill="#676767"/>
<path d="M117.15 65.577C117.15 55.4208 108.917 47.186 98.7604 47.184C88.6043 47.1819 80.3711 55.4135 80.3711 65.5696C80.3711 75.7258 88.6043 83.9606 98.7604 83.9627C108.917 83.9647 117.15 75.7331 117.15 65.577Z" fill="#676767"/>
<path d="M80.3711 65.7673C80.3711 55.7163 88.5244 47.5684 98.5701 47.5684C108.616 47.5684 116.769 55.7163 116.769 65.7673C116.769 75.8184 108.616 83.9663 98.5701 83.9663C88.5244 83.9663 80.3711 75.8184 80.3711 65.7673Z" fill="#D1BFB3"/>
<path fill-rule="evenodd" clip-rule="evenodd" d="M81.5704 59.258C80.7956 61.2792 80.3711 63.4736 80.3711 65.7672C80.3711 65.8496 80.3716 65.9318 80.3727 66.014L116.767 66.014C116.769 65.9318 116.769 65.8496 116.769 65.7672C116.769 63.1189 116.203 60.6027 115.185 58.3329L115.185 63.1195L113.85 63.1195L113.85 55.8789C113.295 55.0244 112.671 54.2192 111.986 53.4715L111.986 63.0885L110.65 63.0885L110.65 52.1568C110.061 51.6341 109.439 51.1489 108.786 50.7051L108.786 63.0885L107.45 63.0885L107.45 49.879C106.849 49.5422 106.226 49.2386 105.586 48.9705L105.586 63.0885L104.25 63.0885L104.25 48.4726C103.642 48.273 103.02 48.1045 102.386 47.9691L102.386 63.0885L101.05 63.0885L101.05 47.7359C100.717 47.6905 100.381 47.6541 100.043 47.627L99.1857 47.627L99.1857 63.0885L97.8498 63.0885L97.8498 47.627L97.0975 47.627C96.7236 47.6569 96.3529 47.6982 95.9857 47.7504L95.9857 63.0885L94.6498 63.0885L94.6498 47.9918C94.0154 48.1312 93.3935 48.3037 92.7857 48.5074L92.7857 63.0885L91.4498 63.0885L91.4498 49.0147C90.8088 49.2876 90.1866 49.5963 89.5858 49.9381L89.5858 63.0885L88.2499 63.0885L88.2499 50.7768C87.5964 51.2277 86.9737 51.7202 86.3858 52.2505L86.3858 63.0885L85.0499 63.0885L85.0499 53.5867C84.3622 54.3495 83.738 55.1708 83.1859 56.0422L83.1859 63.0885L81.5704 63.0885L81.5704 59.258ZM116.55 68.5966L110.96 78.3987L104.809 67.597L104.685 67.597L98.5333 78.3987L92.3819 67.597L92.2576 67.597L86.1062 78.3987L80.6045 68.6888C82.0031 77.3508 89.5184 83.9661 98.5701 83.9661C107.654 83.9661 115.19 77.3039 116.55 68.5966Z" fill="#89301E"/>
<path fill-rule="evenodd" clip-rule="evenodd" d="M82.6289 67.6055L86.1623 73.8999L89.6957 67.6055L82.6289 67.6055ZM95.1364 67.6055L98.6385 73.8999L102.172 67.6055L95.1364 67.6055ZM111.146 73.8999L107.613 67.6055L114.648 67.6055L111.146 73.8999Z" fill="#FF8B3B"/>
<path fill-rule="evenodd" clip-rule="evenodd" d="M80.6268 68.8247C80.4692 67.8932 80.3823 66.9377 80.3721 65.9639L116.768 65.9639C116.758 66.8922 116.679 67.8039 116.535 68.6939L111.001 78.5526L104.829 67.573L104.705 67.573L98.5326 78.5526L92.3918 67.573L92.2671 67.573L86.0951 78.5526L80.6268 68.8247ZM82.5727 67.573L86.0951 73.82L89.6175 67.573L86.0951 67.573L82.5727 67.573ZM95.0102 67.573L98.5326 73.82L102.055 67.573L98.5326 67.573L95.0102 67.573ZM107.479 67.573L111.001 73.82L114.524 67.573L111.001 67.573L107.479 67.573Z" fill="white"/>
<path fill-rule="evenodd" clip-rule="evenodd" d="M81.1287 65.5715C81.1288 75.3238 89.0308 83.2196 98.7646 83.221C108.499 83.2224 116.401 75.329 116.401 65.5767C116.401 55.8244 108.499 47.9285 98.7646 47.9271C89.0308 47.9257 81.1287 55.8192 81.1287 65.5715ZM98.7646 91.0741C84.6752 91.072 73.2646 79.6474 73.2646 65.5703C73.2646 51.4932 84.6752 40.072 98.7646 40.0741C112.854 40.0761 124.265 51.5007 124.265 65.5778C124.265 79.6549 112.854 91.0761 98.7646 91.0741Z" fill="black"/>
<path d="M11.3737 65.577C11.3737 55.4208 19.6068 47.186 29.763 47.184C39.9192 47.1819 48.1523 55.4135 48.1523 65.5696C48.1523 75.7258 39.9192 83.9606 29.763 83.9627C19.6068 83.9647 11.3737 75.7331 11.3737 65.577Z" fill="#676767"/>
<path d="M11.3072 65.577C11.3072 55.4208 19.5404 47.186 29.6966 47.184C39.8527 47.1819 48.0859 55.4135 48.0859 65.5696C48.0859 75.7258 39.8527 83.9606 29.6966 83.9627C19.5404 83.9647 11.3072 75.7331 11.3072 65.577Z" fill="#676767"/>
<path d="M48.1537 66.0233C48.1537 55.8671 39.9205 47.6323 29.7643 47.6303C19.6082 47.6282 11.375 55.8598 11.375 66.0159C11.375 76.1721 19.6082 84.4069 29.7643 84.4089C39.9205 84.411 48.1537 76.1794 48.1537 66.0233Z" fill="#676767"/>
<path d="M48.1498 66.0233C48.1498 55.8671 39.9166 47.6323 29.7604 47.6303C19.6043 47.6282 11.3711 55.8598 11.3711 66.0159C11.3711 76.1721 19.6043 84.4069 29.7604 84.4089C39.9166 84.411 48.1498 76.1794 48.1498 66.0233Z" fill="#676767"/>
<path d="M11.3711 66.2136C11.3711 56.1626 19.5244 48.0146 29.5701 48.0146C39.6158 48.0146 47.7691 56.1626 47.7691 66.2136C47.7691 76.2647 39.6158 84.4126 29.5701 84.4126C19.5244 84.4126 11.3711 76.2647 11.3711 66.2136Z" fill="#D1BFB3"/>
<path fill-rule="evenodd" clip-rule="evenodd" d="M12.5704 59.7043C11.7956 61.7254 11.3711 63.9199 11.3711 66.2135C11.3711 66.2959 11.3716 66.3781 11.3727 66.4603L47.7674 66.4603C47.7685 66.3781 47.7691 66.2959 47.7691 66.2135C47.7691 63.5652 47.203 61.049 46.1855 58.7792L46.1855 63.5658L44.8496 63.5658L44.8496 56.3252C44.2953 55.4707 43.6712 54.6655 42.9855 53.9178L42.9855 63.5348L41.6496 63.5348L41.6496 52.603C41.0611 52.0803 40.4385 51.5952 39.7856 51.1514L39.7856 63.5348L38.4496 63.5348L38.4496 50.3253C37.8485 49.9885 37.2263 49.6849 36.5856 49.4168L36.5856 63.5348L35.2497 63.5348L35.2497 48.9189C34.6418 48.7193 34.0198 48.5508 33.3856 48.4154L33.3856 63.5348L32.0497 63.5348L32.0497 48.1821C31.7168 48.1367 31.381 48.1004 31.0427 48.0732L30.1857 48.0732L30.1857 63.5348L28.8498 63.5348L28.8498 48.0732L28.0975 48.0732C27.7236 48.1032 27.3529 48.1445 26.9857 48.1967L26.9857 63.5348L25.6498 63.5348L25.6498 48.4381C25.0154 48.5775 24.3935 48.75 23.7858 48.9537L23.7858 63.5348L22.4498 63.5348L22.4498 49.461C21.8088 49.7339 21.1866 50.0426 20.5858 50.3844L20.5858 63.5348L19.2499 63.5348L19.2499 51.2231C18.5964 51.674 17.9737 52.1665 17.3858 52.6968L17.3858 63.5348L16.0499 63.5348L16.0499 54.033C15.3622 54.7958 14.738 55.6171 14.1859 56.4885L14.1859 63.5348L12.5704 63.5348L12.5704 59.7043ZM47.5503 69.0429L41.9603 78.845L35.8089 68.0433L35.6846 68.0433L29.5333 78.845L23.3819 68.0433L23.2576 68.0433L17.1062 78.845L11.6045 69.135C13.0031 77.7971 20.5184 84.4124 29.5701 84.4124C38.6539 84.4124 46.1903 77.7502 47.5503 69.0429Z" fill="#89301E"/>
<path fill-rule="evenodd" clip-rule="evenodd" d="M13.6289 68.0518L17.1623 74.3461L20.6957 68.0518L13.6289 68.0518ZM26.1364 68.0518L29.6385 74.3461L33.1719 68.0518L26.1364 68.0518ZM42.1461 74.3461L38.6127 68.0518L45.6482 68.0518L42.1461 74.3461Z" fill="#FF8B3B"/>
<path fill-rule="evenodd" clip-rule="evenodd" d="M11.6268 69.271C11.4692 68.3395 11.3823 67.384 11.3721 66.4102L47.768 66.4102C47.7582 67.3385 47.6788 68.2502 47.5349 69.1402L42.0013 78.9989L35.8293 68.0192L35.7046 68.0192L29.5326 78.9989L23.3918 68.0192L23.2671 68.0192L17.0951 78.9989L11.6268 69.271ZM13.5727 68.0192L17.0951 74.2663L20.6175 68.0192L17.0951 68.0192L13.5727 68.0192ZM26.0102 68.0192L29.5326 74.2663L33.055 68.0192L29.5326 68.0192L26.0102 68.0192ZM38.4789 68.0192L42.0013 74.2663L45.5237 68.0192L42.0013 68.0192L38.4789 68.0192Z" fill="white"/>
<path fill-rule="evenodd" clip-rule="evenodd" d="M47.4005 65.5715C47.4005 75.3238 39.4985 83.2196 29.7646 83.221C20.0308 83.2224 12.1288 75.329 12.1288 65.5767C12.1288 55.8244 20.0308 47.9285 29.7647 47.9271C39.4985 47.9257 47.4005 55.8192 47.4005 65.5715ZM29.7646 91.0741C43.8541 91.072 55.2646 79.6474 55.2646 65.5703C55.2647 51.4932 43.8541 40.072 29.7647 40.0741C15.6752 40.0761 4.26465 51.5007 4.26465 65.5778C4.26465 79.6549 15.6752 91.0761 29.7646 91.0741Z" fill="black"/>
</svg>
