<svg width="128" height="128" viewBox="0 0 128 128" fill="none" xmlns="http://www.w3.org/2000/svg">
<path d="M32.6577 46.501C32.6577 63.5769 46.501 77.4192 63.5775 77.4186C80.654 77.418 94.4973 63.5748 94.4973 46.4988C94.4973 29.4229 80.654 15.5806 63.5775 15.5812C46.501 15.5818 32.6577 29.425 32.6577 46.501Z" fill="#5B7EDA"/>
<path fill-rule="evenodd" clip-rule="evenodd" d="M90.917 46.499C90.917 31.4003 78.6767 19.1607 63.5774 19.1612C48.4781 19.1617 36.2378 31.402 36.2378 46.5008C36.2378 61.5995 48.4781 73.839 63.5774 73.8386C78.6766 73.8381 90.917 61.5978 90.917 46.499ZM63.5774 12.0011C82.6312 12.0005 98.0774 27.4456 98.0774 46.4988C98.0774 65.552 82.6312 80.9981 63.5774 80.9987C44.5236 80.9993 29.0774 65.5541 29.0774 46.501C29.0774 27.4478 44.5236 12.0017 63.5774 12.0011Z" fill="black"/>
<path d="M25.2448 71.945C25.2448 93.1642 42.4464 110.365 63.6656 110.364C84.8848 110.364 102.086 93.1615 102.086 71.9423C102.086 50.7231 84.8848 33.5221 63.6656 33.5228C42.4464 33.5236 25.2448 50.7258 25.2448 71.945Z" fill="#EDEDED"/>
<path d="M31.0361 65.9129L43.7465 77.6456L43.7465 80.8949L31.0361 80.8949L31.0361 65.9129Z" fill="#666666" stroke="black" stroke-width="2.31129"/>
<path d="M96.8997 65.9129L84.1893 77.6456L84.1893 80.8949L96.8997 80.8949L96.8997 65.9129Z" fill="#666666" stroke="black" stroke-width="2.31129"/>
<mask id="path-6-inside-1" fill="white">
<path d="M15.2185 46.3643L59.3933 88.4059L68.9026 88.4059L113.077 46.3643L64.4368 71.651L15.2185 46.3643Z"/>
</mask>
<path d="M15.2185 46.3643L59.3933 88.4059L68.9026 88.4059L113.077 46.3643L64.4368 71.651L15.2185 46.3643Z" fill="#EEE064"/>
<path d="M15.2185 46.3643L16.2747 44.3084L13.6251 48.0385L15.2185 46.3643ZM59.3933 88.4059L57.7999 90.0802L58.4692 90.7172L59.3933 90.7172L59.3933 88.4059ZM68.9026 88.4059L68.9026 90.7172L69.8267 90.7172L70.496 90.0802L68.9026 88.4059ZM113.077 46.3643L114.671 48.0385L112.011 44.3135L113.077 46.3643ZM64.4368 71.651L63.3806 73.7068L64.4431 74.2527L65.5029 73.7017L64.4368 71.651ZM68.9026 86.0946L59.3933 86.0946L59.3933 90.7172L68.9026 90.7172L68.9026 86.0946ZM60.9867 86.7317L16.8119 44.69L13.6251 48.0385L57.7999 90.0802L60.9867 86.7317ZM111.484 44.69L67.3092 86.7317L70.496 90.0802L114.671 48.0385L111.484 44.69ZM14.1623 48.4201L63.3806 73.7068L65.493 69.5951L16.2747 44.3084L14.1623 48.4201ZM65.5029 73.7017L114.144 48.415L112.011 44.3135L63.3707 69.6003L65.5029 73.7017Z" fill="black" mask="url(#path-6-inside-1)"/>
<path d="M70.6829 28.8969L76.6786 36.2416L76.6786 69.9452L68.1798 76.8504L59.7563 76.8504L51.2576 69.9452L51.2576 36.2416L57.2533 28.8969L70.6829 28.8969Z" fill="#EDEDED" stroke="black" stroke-width="2.31129"/>
<path d="M70.6829 46.2289L76.6786 53.5736L76.6786 69.9445L68.1798 76.8497L59.7563 76.8497L51.2576 69.9445L51.2576 53.5736L57.2533 46.2289L70.6829 46.2289Z" fill="#EDEDED" stroke="black" stroke-width="2.31129"/>
<path d="M71.4789 66.2544L71.4789 68.2322L67.1576 67.0677L67.0099 67.0279L66.857 67.0279L61.0794 67.0279L60.9264 67.0279L60.7787 67.0677L56.4575 68.2322L56.4575 66.2544L60.124 61.1105L63.9682 60.1319L67.8124 61.1105L71.4789 66.2544Z" fill="#86E1E7" stroke="black" stroke-width="2.31129"/>
<path d="M66.2026 92.4506L68.59 98.6164L68.59 102.646L65.4232 105.739L62.5129 105.739L59.3461 102.646L59.3461 98.6164L61.7335 92.4506L66.2026 92.4506Z" fill="#ED5555" stroke="black" stroke-width="2.31129"/>
<mask id="mask0" mask-type="alpha" maskUnits="userSpaceOnUse" x="78" y="88" width="30" height="29">
<rect x="107.077" y="88" width="29" height="29" transform="rotate(90 107.077 88)" fill="#8C2929"/>
</mask>
<g mask="url(#mask0)">
<path d="M80.9532 102.498C80.9532 108.922 86.1523 114.131 92.5656 114.132C98.9789 114.133 104.178 108.927 104.178 102.503C104.178 96.0788 98.9789 90.8701 92.5656 90.8688C86.1523 90.8675 80.9532 96.0741 80.9532 102.498Z" fill="#4F4F4F" stroke="black" stroke-width="5.12934" stroke-miterlimit="10"/>
<path d="M95.3491 103.129L103.205 98.2341L100.976 94.4577L95.3491 91.2734L85.6915 92.9452L81.95 98.2341L89.9393 103.129L95.3491 103.129Z" fill="#5B7EDA"/>
<path fill-rule="evenodd" clip-rule="evenodd" d="M104.241 98.4875L95.5674 103.891L89.7241 103.891L80.856 98.4586L85.2505 92.2466L95.4876 90.4746L101.529 93.8937L104.241 98.4875ZM100.422 95.021L95.2105 92.0716L86.1323 93.643L83.0438 98.0089L90.1545 102.365L95.1308 102.365L102.169 97.98L100.422 95.021Z" fill="black"/>
<path fill-rule="evenodd" clip-rule="evenodd" d="M102.061 102.503C102.061 97.2447 97.8068 92.9873 92.566 92.9862C87.3252 92.9852 83.0707 97.2409 83.0707 102.499C83.0707 107.757 87.3252 112.014 92.566 112.016C97.8068 112.017 102.061 107.761 102.061 102.503ZM92.566 88.7521C100.152 88.7537 106.295 94.9137 106.295 102.504C106.295 110.094 100.152 116.251 92.566 116.25C84.9801 116.248 78.8366 110.088 78.8366 102.498C78.8366 94.9082 84.9801 88.7506 92.566 88.7521Z" fill="black"/>
<path d="M94.9258 105.698L94.9258 110.475L90.229 110.475L90.229 105.698L94.9258 105.698Z" fill="#86E1E7"/>
<path fill-rule="evenodd" clip-rule="evenodd" d="M93.781 109.33L93.781 106.843L91.3738 106.843L91.3738 109.33L93.781 109.33ZM94.9258 105.698L90.229 105.698L90.229 110.475L94.9258 110.475L94.9258 105.698Z" fill="black"/>
</g>
<path d="M23.3133 102.497C23.3133 109.271 28.8041 114.763 35.5774 114.765C42.3507 114.766 47.8416 109.276 47.8416 102.502C47.8416 95.7277 42.3507 90.2352 35.5774 90.2339C28.8041 90.2325 23.3133 95.7228 23.3133 102.497Z" fill="#4F4F4F"/>
<path d="M38.5169 103.162L46.8135 98.001L44.4594 94.0189L38.5169 90.6611L28.3171 92.4239L24.3656 98.001L32.8034 103.162L38.5169 103.162Z" fill="#5B7EDA"/>
<path fill-rule="evenodd" clip-rule="evenodd" d="M47.9077 98.2677L38.7476 103.966L32.5763 103.966L23.2105 98.2373L27.8517 91.6869L38.6633 89.8184L45.0441 93.4237L47.9077 98.2677ZM43.875 94.6124L38.3707 91.5023L28.7829 93.1594L25.5211 97.7631L33.0309 102.357L38.2865 102.357L45.7196 97.7327L43.875 94.6124Z" fill="black"/>
<path fill-rule="evenodd" clip-rule="evenodd" d="M45.6056 102.502C45.6056 96.9574 41.1123 92.4682 35.5774 92.4674C30.0424 92.4665 25.5491 96.9542 25.5491 102.499C25.5491 108.043 30.0424 112.532 35.5774 112.533C41.1123 112.534 45.6056 108.046 45.6056 102.502ZM35.5774 88.0026C43.589 88.0039 50.0774 94.4992 50.0774 102.503C50.0774 110.506 43.589 116.999 35.5774 116.998C27.5658 116.997 21.0774 110.501 21.0774 102.498C21.0774 94.4947 27.5658 88.0014 35.5774 88.0026Z" fill="black"/>
<path d="M38.0696 105.471L38.0696 110.507L33.1092 110.507L33.1092 105.471L38.0696 105.471Z" fill="#86E1E7"/>
<path fill-rule="evenodd" clip-rule="evenodd" d="M36.8606 109.3L36.8606 106.678L34.3182 106.678L34.3182 109.3L36.8606 109.3ZM38.0696 105.471L33.1092 105.471L33.1092 110.507L38.0696 110.507L38.0696 105.471Z" fill="black"/>
</svg>
