<svg width="128" height="128" viewBox="0 0 128 128" fill="none" xmlns="http://www.w3.org/2000/svg">
<path d="M32 46.5022C32 63.8992 46.103 78.0017 63.5 78.0011C80.897 78.0005 95 63.897 95 46.5C95 29.103 80.897 15.0005 63.5 15.0011C46.103 15.0017 32 29.1052 32 46.5022Z" fill="#020058"/>
<path fill-rule="evenodd" clip-rule="evenodd" d="M64 12.0012C82.7777 12.0005 98 27.2223 98 46C98 64.7777 82.7777 80.0005 64 80.0012C45.2223 80.0018 30 64.7801 30 46.0024C30 27.2247 45.2223 12.0018 64 12.0012ZM92.8097 46.0002C92.8097 30.089 79.9112 17.1909 64 17.1915C48.0888 17.192 35.1903 30.091 35.1903 46.0022C35.1903 61.9134 48.0888 74.8115 64 74.8109C79.9112 74.8104 92.8097 61.9114 92.8097 46.0002Z" fill="black"/>
<path d="M22 70C22 47.3563 40.3683 29 63 29C85.6317 29 104 47.3563 104 70C104 92.6437 85.6317 111 63 111C40.3683 111 22 92.6437 22 70Z" fill="url(#paint0_radial_1151_563)"/>
<path d="M99.6421 88.4129C95.9572 95.7282 90.1461 101.789 83.0222 105.785C82.7973 105.251 82.6726 104.667 82.6384 104.058C82.5479 102.446 83.0905 100.835 84.0853 99.2234C85.3513 97.2538 86.2556 95.1947 86.7078 93.0461C87.1599 90.8975 87.2503 88.7489 86.8886 86.7793C86.7982 86.2422 86.7078 85.7946 86.5269 85.3469C86.4817 85.2126 86.4591 85.1007 86.4365 84.9888C86.4139 84.8769 86.3912 84.765 86.346 84.6307C86.3008 84.4964 86.2556 84.3845 86.2104 84.2726C86.1652 84.1607 86.1199 84.0488 86.0747 83.9145L85.5321 82.5716C85.4019 82.2493 85.2247 81.9733 85.0345 81.6769C84.9605 81.5618 84.8846 81.4435 84.8087 81.3183C83.814 79.7068 82.5479 78.3639 81.101 77.2001C79.9254 76.2153 79.1115 75.2305 78.8402 74.4248C78.569 73.5296 78.7498 72.7238 79.5637 72.0076C79.9254 71.6495 80.3776 71.3809 80.9202 71.1124C81.1713 71.0709 81.4224 70.9911 81.6825 70.9085C81.9844 70.8126 82.2983 70.7128 82.6384 70.6647C84.1757 70.2171 85.9843 70.1276 87.5216 70.7543C87.8382 70.8886 88.1321 71.0229 88.426 71.1571C88.7199 71.2914 89.0138 71.4257 89.3303 71.56C89.8728 71.8286 90.5059 72.1867 91.0484 72.5448C92.1336 73.261 93.2188 74.1562 94.1231 75.141C96.0222 77.1106 97.6499 79.7068 98.5542 82.6612C99.1519 84.4362 99.5211 86.3729 99.6421 88.4129Z" fill="url(#paint1_linear_1151_563)"/>
<path d="M65.7315 110.911C64.8292 110.97 63.9188 111 63.0015 111C55.5106 111 48.4868 108.99 42.4414 105.478C42.8059 104.945 43.2928 104.492 43.8607 104.105C44.4804 103.653 45.2772 103.382 46.074 103.201C46.8708 103.02 47.7562 102.93 48.7301 103.02C51.0319 103.201 53.3338 102.84 55.3701 102.207C56.4325 101.845 57.4064 101.393 58.2917 100.941L59.6197 100.127C59.8411 99.9916 60.0403 99.8334 60.2395 99.6752C60.4387 99.5169 60.6379 99.3587 60.8592 99.2231C61.656 98.5902 62.2757 97.8669 62.8955 97.0532C63.0283 96.8724 63.1832 96.669 63.3381 96.4655C63.4931 96.2621 63.648 96.0587 63.7808 95.8779C63.8551 95.7514 63.9295 95.6319 64.0019 95.5156C64.1881 95.2163 64.3616 94.9376 64.4891 94.6121C65.3744 92.8943 65.9056 91.086 66.1712 89.2778C66.2598 88.4641 66.4368 87.8312 66.7024 87.2887C66.7467 87.1531 66.8131 87.0175 66.8795 86.8818C66.9459 86.7462 67.0123 86.6106 67.0566 86.475C67.1451 86.3846 67.2336 86.2942 67.2336 86.1133C67.3222 86.0229 67.4107 85.9325 67.4107 85.8421C68.0304 85.2092 68.8272 84.938 69.8011 85.2092C69.9339 85.2544 70.0446 85.2996 70.1553 85.3448C70.2659 85.39 70.3766 85.4352 70.5094 85.4805C70.6422 85.5257 70.7529 85.5935 70.8635 85.6613C70.9742 85.7291 71.0849 85.7969 71.2177 85.8421L72.5457 87.1983C73.6081 88.2832 74.5819 89.8202 74.8475 91.5381C74.9361 92.171 75.0246 92.8038 75.0246 93.4367V95.4258C74.9943 95.6427 74.9743 95.8702 74.9541 96.1011C74.9153 96.5439 74.8754 96.9989 74.759 97.4149C74.6705 98.1382 74.4934 98.771 74.3163 99.4039C73.5195 102.116 72.103 104.738 70.0667 107.089C68.8586 108.484 67.4013 109.783 65.7315 110.911Z" fill="url(#paint2_linear_1151_563)"/>
<path d="M29.5427 93.701C24.8647 87.1112 22.0842 79.0801 22 70.4043C22.4474 70.497 22.8884 70.6536 23.3136 70.8649C24.0328 71.2222 24.662 71.7581 25.2014 72.294C25.4711 72.5619 25.7407 72.9192 26.0104 73.2765C26.1453 73.4551 26.2576 73.6561 26.37 73.857C26.4823 74.058 26.5947 74.259 26.7296 74.4376C27.7184 76.4919 29.1566 78.3676 30.7747 79.7967C32.3928 81.2258 34.2805 82.3869 36.1683 83.0122C37.1571 83.3694 38.056 83.6374 39.0448 83.7267C40.0336 83.9053 41.0225 83.9053 41.9214 83.9053C42.8203 83.9053 43.8091 83.7267 44.708 83.5481C45.607 83.3694 46.5059 83.1015 47.3149 82.7442C48.0341 82.4763 48.7532 82.2976 49.2926 82.2083C49.4274 82.2083 49.5847 82.186 49.742 82.1636C49.8993 82.1413 50.0567 82.119 50.1915 82.119C50.4612 82.119 50.7308 82.119 50.9106 82.2083C51.8096 82.3869 52.4388 82.9228 52.7085 83.9947C52.8883 85.1558 52.8883 86.3169 52.5287 87.5674C52.1691 89.0858 51.3601 90.6935 49.9218 91.676C47.8543 93.1944 45.5171 94.4449 42.8203 95.0701C40.1235 95.6953 37.1571 95.7846 34.1007 95.1594C32.5925 94.8509 31.0623 94.3683 29.5427 93.701Z" fill="url(#paint3_linear_1151_563)"/>
<path d="M25.7969 52.742C29.3516 45.094 35.1955 38.7249 42.4464 34.5146C42.6074 34.9787 42.6994 35.475 42.728 35.9894C42.8189 37.6192 42.2739 39.249 41.2749 40.8788C40.0034 42.8708 39.0951 44.9534 38.641 47.1264C38.1869 49.2995 38.1869 51.4726 38.4594 53.4646C38.5502 54.0079 38.641 54.4606 38.8227 54.9134C38.8681 55.0492 38.8908 55.1624 38.9135 55.2755C38.9362 55.3887 38.9589 55.5019 39.0043 55.6377C39.0497 55.7735 39.0951 55.8867 39.1405 55.9999C39.1859 56.1131 39.2314 56.2263 39.2768 56.3621L39.8217 57.7203C39.9525 58.0463 40.1304 58.3254 40.3215 58.6251C40.3958 58.7416 40.472 58.8612 40.5483 58.9879C41.5473 60.6177 42.8189 61.9759 44.272 63.153C45.4527 64.149 46.2701 65.145 46.5426 65.9599C46.8151 66.8653 46.6334 67.6802 45.816 68.4046C45.4527 68.7668 44.9986 69.0384 44.4537 69.3101C43.9996 69.5817 43.4546 69.7628 42.8189 69.9439C41.2749 70.3966 39.4584 70.4872 37.9144 69.8533C37.5965 69.7175 37.3014 69.5817 37.0062 69.4459C36.711 69.3101 36.4158 69.1742 36.098 69.0384C35.553 68.7668 34.9173 68.4046 34.3723 68.0424C33.2825 67.3181 32.1926 66.4126 31.2844 65.4166C29.3771 63.4246 27.7423 60.7988 26.834 57.8108C26.3068 56.234 25.9566 54.531 25.7969 52.742Z" fill="url(#paint4_linear_1151_563)"/>
<path d="M50.536 48.5489C50.8009 50.2667 51.7722 51.8037 52.8318 52.8887C52.909 52.9546 52.9845 53.0187 53.0583 53.0813C53.4904 53.4482 53.8675 53.7683 54.2445 54.1545C54.377 54.1997 54.4874 54.2675 54.5977 54.3353C54.7081 54.4031 54.8185 54.4709 54.9509 54.5161C55.0834 54.5613 55.1937 54.6065 55.3041 54.6517C55.4145 54.6969 55.5249 54.7421 55.6573 54.7873C56.6286 55.0586 57.4233 54.7873 58.0414 54.1545C58.0414 54.064 58.1297 53.9736 58.218 53.8832C58.218 53.7024 58.3063 53.612 58.3946 53.5216C58.4387 53.3859 58.505 53.2503 58.5712 53.1147C58.6374 52.9791 58.7036 52.8435 58.7478 52.7079C59.0127 52.1654 59.1893 51.5325 59.2776 50.7188C59.5425 48.9105 60.0723 47.1023 60.9553 45.3845C61.0824 45.0589 61.2554 44.7803 61.4412 44.4809C61.5134 44.3646 61.5875 44.2452 61.6617 44.1187C61.7941 43.9379 61.9486 43.7345 62.1032 43.531C62.2577 43.3276 62.4122 43.1242 62.5446 42.9433C63.1627 42.1296 63.7808 41.4063 64.5755 40.7735C64.7963 40.6378 64.995 40.4796 65.1936 40.3214C65.3923 40.1632 65.591 40.005 65.8117 39.8693L67.1362 39.0556C68.0192 38.6036 68.9905 38.1515 70.0501 37.7899C72.0809 37.157 74.3767 36.7953 76.6725 36.9761C77.6438 37.0666 78.5268 36.9761 79.3215 36.7953C80.1162 36.6145 80.9109 36.3433 81.5289 35.8912C82.1848 35.4435 82.7324 34.9072 83.1074 34.2602C77.165 30.9085 70.3041 28.9961 62.9991 28.9961C61.8887 28.9961 60.7887 29.0403 59.7005 29.127C58.0048 30.2665 56.5265 31.5831 55.3041 32.998C53.2732 35.3487 51.8605 37.9707 51.0658 40.683C50.8892 41.3159 50.7126 41.9488 50.6243 42.6721C50.5082 43.0881 50.4684 43.5431 50.4297 43.9859C50.4095 44.2168 50.3896 44.4443 50.3594 44.6612L50.3594 46.6502C50.3594 47.2831 50.4477 47.916 50.536 48.5489Z" fill="url(#paint5_linear_1151_563)"/>
<path d="M96.7495 46.7097C101.267 53.2424 103.937 61.1503 104.002 69.6778C103.347 69.63 102.697 69.4384 102.079 69.1313C101.361 68.774 100.732 68.2381 100.194 67.7022C99.9242 67.4343 99.6548 67.077 99.3854 66.7197C99.2507 66.5411 99.1384 66.3401 99.0262 66.1391C98.9139 65.9382 98.8017 65.7372 98.667 65.5586C97.6792 63.5043 96.2424 61.6286 94.6261 60.1995C93.0097 58.7704 91.1239 57.6093 89.2382 56.9841C88.2504 56.6268 87.3524 56.3588 86.3646 56.2695C85.3768 56.0909 84.389 56.0909 83.4911 56.0909C82.5931 56.0909 81.6053 56.2695 80.7073 56.4482C79.8093 56.6268 78.9113 56.8947 78.1031 57.252C77.3848 57.52 76.6664 57.6986 76.1276 57.7879C75.9929 57.7879 75.8357 57.8103 75.6786 57.8326C75.5214 57.8549 75.3643 57.8772 75.2296 57.8772C74.9602 57.8772 74.6908 57.8772 74.5112 57.7879C73.6132 57.6093 72.9846 57.0734 72.7152 56.0016C72.4458 54.9297 72.5356 53.6793 72.8948 52.4288C73.254 50.9104 74.0622 49.3027 75.499 48.3202C77.5644 46.8018 79.8991 45.5513 82.5931 44.9261C85.287 44.3009 88.2504 44.2116 91.3035 44.8368C93.106 45.2059 94.9398 45.8241 96.7495 46.7097Z" fill="url(#paint6_linear_1151_563)"/>
<path d="M22 102.495C22 109.399 27.5964 114.996 34.5 114.998C41.4036 114.999 47 109.404 47 102.5C47 95.5964 41.4036 89.9989 34.5 89.9975C27.5964 89.9961 22 95.5914 22 102.495Z" fill="#020058"/>
<path fill-rule="evenodd" clip-rule="evenodd" d="M34.5 87.997C42.5081 87.9987 49 94.4919 49 102.5C49 110.508 42.5081 116.999 34.5 116.997C26.4919 116.995 20 110.502 20 102.494C20 94.4859 26.4919 87.9954 34.5 87.997ZM44.5694 102.499C44.5694 96.9379 40.0612 92.4287 34.5 92.4276C28.9388 92.4265 24.4306 96.9338 24.4306 102.495C24.4306 108.056 28.9388 112.565 34.5 112.566C40.0612 112.568 44.5694 108.06 44.5694 102.499Z" fill="black"/>
<path d="M80 102.495C80 109.399 85.5964 114.996 92.5 114.998C99.4036 114.999 105 109.404 105 102.5C105 95.5964 99.4036 89.9989 92.5 89.9975C85.5964 89.9961 80 95.5914 80 102.495Z" fill="#020058"/>
<path fill-rule="evenodd" clip-rule="evenodd" d="M92.5 87.997C100.508 87.9987 107 94.4919 107 102.5C107 110.508 100.508 116.999 92.5 116.997C84.4919 116.995 78 110.502 78 102.494C78 94.4859 84.4919 87.9954 92.5 87.997ZM102.569 102.499C102.569 96.9379 98.0612 92.4287 92.5 92.4276C86.9388 92.4265 82.4306 96.9338 82.4306 102.495C82.4306 108.056 86.9388 112.565 92.5 112.566C98.0612 112.568 102.569 108.06 102.569 102.499Z" fill="black"/>
<defs>
<radialGradient id="paint0_radial_1151_563" cx="0" cy="0" r="1" gradientUnits="userSpaceOnUse" gradientTransform="translate(63 70) rotate(90) scale(41)">
<stop stop-color="#231DD0"/>
<stop offset="1" stop-color="#06043A"/>
</radialGradient>
<linearGradient id="paint1_linear_1151_563" x1="78.7816" y1="89.4592" x2="99.7499" y2="89.4592" gradientUnits="userSpaceOnUse">
<stop stop-color="#4CD9DF"/>
<stop offset="1" stop-color="#00C9D2"/>
</linearGradient>
<linearGradient id="paint2_linear_1151_563" x1="41.6902" y1="100.278" x2="75.0271" y2="100.278" gradientUnits="userSpaceOnUse">
<stop stop-color="#1E18CF"/>
<stop offset="1" stop-color="#625DDD"/>
</linearGradient>
<linearGradient id="paint3_linear_1151_563" x1="15.8521" y1="82.9706" x2="52.8347" y2="82.9706" gradientUnits="userSpaceOnUse">
<stop stop-color="#4CD9DF"/>
<stop offset="1" stop-color="#00C9D2"/>
</linearGradient>
<linearGradient id="paint4_linear_1151_563" x1="25.5989" y1="50.8943" x2="46.6581" y2="50.8943" gradientUnits="userSpaceOnUse">
<stop stop-color="#1E18CF"/>
<stop offset="1" stop-color="#625DDD"/>
</linearGradient>
<linearGradient id="paint5_linear_1151_563" x1="50.4099" y1="39.7683" x2="83.6583" y2="39.7683" gradientUnits="userSpaceOnUse">
<stop stop-color="#4CD9DF"/>
<stop offset="1" stop-color="#00C9D2"/>
</linearGradient>
<linearGradient id="paint6_linear_1151_563" x1="72.5516" y1="57.0746" x2="109.496" y2="57.0746" gradientUnits="userSpaceOnUse">
<stop stop-color="#1E18CF"/>
<stop offset="1" stop-color="#625DDD"/>
</linearGradient>
</defs>
</svg>
