<svg width="257" height="257" viewBox="0 0 257 257" fill="none" xmlns="http://www.w3.org/2000/svg">
<path d="M139.861 94.7698L149.414 83.1945C149.414 83.1945 160.119 77.6665 166.006 76.218C165.888 79.6049 165.77 82.996 165.647 86.3828C165.626 84.4909 165.039 80.6269 165.039 80.6269L163.261 91.6321C163.261 91.6321 153.51 105.695 152.873 105.386C148.569 104.964 144.274 104.47 139.963 104.174C139.063 104.111 137.699 104.318 137.547 104.386C137.518 104.664 139.861 94.7698 139.861 94.7698Z" fill="#A9EFFE"/>
<path d="M184.119 121.426C184.022 122.908 186.286 125.834 182.058 124.791C173.882 122.815 165.711 120.839 157.535 118.862C157.544 118.727 157.544 118.596 157.544 118.461C162.126 113.824 166.767 109.238 171.268 104.525C173.836 101.835 176.18 98.9337 178.625 96.1254C178.638 95.9692 178.65 95.8171 178.667 95.6609C178.785 95.6609 178.908 95.6609 179.026 95.6609C180.724 104.246 182.421 112.836 184.119 121.426Z" fill="#68C4D8"/>
<path d="M157.539 118.862C165.715 120.838 173.886 122.815 182.062 124.791C168.544 124.048 155.022 123.309 141.504 122.566C146.305 121.349 151.103 120.133 155.9 118.913C156.445 118.896 156.99 118.879 157.539 118.862Z" fill="#3BA0B1"/>
<path d="M182.45 92.3327C183.007 100.183 184.122 119.575 184.122 121.425C182.424 112.836 180.727 104.246 179.033 95.6605C179.781 90.6013 180.532 85.5421 181.28 80.4829C181.668 84.4314 182.057 88.38 182.45 92.3327Z" fill="#3D9FB2"/>
<path d="M155.902 118.913C151.105 120.129 146.303 121.345 141.502 122.566C140.417 122.806 139.876 122.515 139.686 121.273C138.93 116.252 137.287 105.686 137.317 105.407C139.644 115.234 145.341 120.42 155.902 118.913Z" fill="#62C6E4"/>
<path d="M178.672 95.6608C178.659 95.8171 178.647 95.9691 178.63 96.1254C174.267 94.5544 169.909 92.9877 165.547 91.4209C165.581 89.7401 165.614 88.0636 165.648 86.3828C165.766 82.996 165.885 79.6049 166.003 76.218C166.569 76.3616 167.135 76.5052 167.701 76.6488C167.958 77.126 168.106 77.8819 168.495 78.0381C176.463 81.2899 177.097 88.7393 178.672 95.6608Z" fill="#78CFEB"/>
<path d="M178.675 95.6605C177.099 88.739 176.466 81.2895 168.497 78.0378C168.109 77.8773 167.961 77.1256 167.703 76.6484C169.65 77.0876 171.601 77.5268 173.548 77.9702C176.124 78.8064 178.7 79.6426 181.276 80.4787C180.528 85.5379 179.781 90.5971 179.029 95.6563C178.911 95.6563 178.793 95.6563 178.675 95.6605Z" fill="#60C5E4"/>
<path d="M165.547 91.4209C169.909 92.9876 174.271 94.5544 178.63 96.1211C176.184 98.9294 173.841 101.831 171.273 104.521C166.771 109.234 162.13 113.82 157.548 118.457C155.99 114.099 154.427 109.74 152.869 105.382C154.166 104.056 162.033 95.2301 165.547 91.4209Z" fill="#A2E6F5"/>
<path d="M152.87 105.387C154.428 109.745 155.991 114.103 157.549 118.461C157.549 118.596 157.545 118.727 157.54 118.862C156.996 118.879 156.447 118.896 155.902 118.913C145.34 120.421 139.643 115.235 137.316 105.408C137.346 103.224 139.061 104.115 139.96 104.175C144.272 104.47 148.567 104.964 152.87 105.387Z" fill="#79CFEA"/>
<path d="M165.547 91.4209L166.003 76.218L162.548 91.4209L152.869 105.386L165.547 91.4209Z" fill="white"/>
<path d="M68.4004 69.8363L86.751 71.1798C86.751 71.1798 99.8716 77.9652 105.495 82.825C102.024 85.1088 98.5493 87.3956 95.0754 89.6751C96.9524 88.3122 100.4 84.9847 100.4 84.9847L88.1338 91.0118C88.1338 91.0118 67.1549 91.2339 67.011 90.3775C64.3814 85.7746 61.8295 81.1292 59.0672 76.6076C58.4926 75.6631 57.3183 74.4458 57.1429 74.3417C56.8432 74.5098 68.4004 69.8363 68.4004 69.8363Z" fill="#FEA9CD"/>
<path d="M73.1329 133.004C71.5816 133.958 70.2603 138.297 68.3054 133.33C64.4835 123.752 60.6645 114.178 56.8426 104.6C56.9837 104.513 57.1146 104.42 57.2498 104.324C65.1365 105.618 73.0144 107.007 80.9203 108.166C85.4314 108.826 89.995 109.112 94.5376 109.566C94.7028 109.468 94.8638 109.373 95.0321 109.279C95.1159 109.397 95.2028 109.519 95.2867 109.638C87.9049 117.424 80.5189 125.214 73.1329 133.004Z" fill="#D86890"/>
<path d="M56.8468 104.605C60.6687 114.183 64.4876 123.757 68.3096 133.334C59.4657 119.289 50.6147 105.242 41.7709 91.1962C46.3925 95.1354 51.0111 99.0704 55.634 103.002C56.0373 103.535 56.4405 104.068 56.8468 104.605Z" fill="#B13B65"/>
<path d="M101.042 110.699C93.5868 116.824 74.9845 131.692 73.1347 133.004C80.5207 125.215 87.9067 117.425 95.2915 109.643C100.881 106.802 106.474 103.966 112.063 101.125C108.39 104.314 104.717 107.503 101.042 110.699Z" fill="#B23D59"/>
<path d="M55.6336 103.002C51.015 99.0673 46.3933 95.1281 41.7675 91.1918C40.757 90.2772 40.665 89.53 41.7719 88.4594C46.2572 84.1423 55.6586 75.0059 55.9583 74.8378C47.7811 84.1342 46.6353 93.5093 55.6336 103.002Z" fill="#E46291"/>
<path d="M95.0368 109.283C94.8715 109.381 94.7105 109.476 94.5423 109.57C93.0194 104.094 91.4954 98.624 89.9683 93.1503C91.6731 91.9921 93.3737 90.8368 95.0785 89.6786C98.5494 87.3948 102.024 85.108 105.495 82.8243C105.753 83.492 106.011 84.1598 106.269 84.8275C105.974 85.4236 105.323 86.1075 105.442 86.6068C107.842 96.8822 100.841 102.799 95.0368 109.283Z" fill="#EB78A1"/>
<path d="M95.0358 109.283C100.84 102.799 107.841 96.8821 105.441 86.6067C105.326 86.1044 105.973 85.4234 106.268 84.8274C107.209 87.0858 108.154 89.3484 109.091 91.6098C110.082 94.7789 111.072 97.9481 112.063 101.117C106.474 103.958 100.884 106.798 95.2916 109.635C95.2077 109.516 95.1239 109.398 95.0358 109.283Z" fill="#E46090"/>
<path d="M89.9667 93.1495C91.4937 98.6233 93.0208 104.097 94.5449 109.567C90.0023 109.113 85.4387 108.827 80.9276 108.167C73.0217 107.007 65.1438 105.619 57.2571 104.325C60.5103 99.6757 63.7605 95.0223 67.0136 90.373C69.2592 90.7291 83.6655 92.3373 89.9667 93.1495Z" fill="#F5A2B6"/>
<path d="M67.0101 90.3762C63.7569 95.0255 60.5067 99.6789 57.2535 104.328C57.1184 104.424 56.9844 104.513 56.8463 104.604C56.443 104.071 56.0368 103.534 55.6335 103.002C46.6353 93.5086 47.7811 84.1336 55.9582 74.8371C58.1626 73.3182 58.4875 75.6648 59.0663 76.6063C61.8286 81.1278 64.3804 85.7733 67.0101 90.3762Z" fill="#EA7994"/>
<path d="M89.9672 93.1494L105.494 82.8234L87.8407 90.1509L67.01 90.3759L89.9672 93.1494Z" fill="white"/>
<path d="M191.197 198.099L176.141 204.325C176.141 204.325 163.061 204.166 156.68 202.554C158.52 199.368 160.362 196.178 162.206 192.994C161.262 194.818 159.855 198.821 159.855 198.821L167.169 189.179C167.169 189.179 183.684 180.67 184.138 181.29C188.047 183.889 191.912 186.552 195.894 189.033C196.724 189.552 198.137 190.049 198.317 190.062C198.487 189.81 191.197 198.099 191.197 198.099Z" fill="#A9FECB"/>
<path d="M162.359 149.988C163.208 148.616 162.53 144.658 166.05 147.812C172.88 153.874 179.705 159.934 186.534 165.996C186.457 166.121 186.39 166.247 186.321 166.376C179.566 168.485 172.779 170.515 166.062 172.738C162.23 174.007 158.504 175.594 154.729 177.039C154.637 177.182 154.548 177.322 154.452 177.463C154.338 177.402 154.221 177.34 154.108 177.28C156.857 168.185 159.608 159.086 162.359 149.988Z" fill="#68D88E"/>
<path d="M186.531 165.993C179.702 159.931 172.877 153.871 166.047 147.809C178.626 155.412 191.21 163.014 203.788 170.617C198.566 169.335 193.348 168.055 188.127 166.78C187.596 166.518 187.066 166.257 186.531 165.993Z" fill="#3BB18E"/>
<path d="M149.133 178.725C152.6 170.916 161.417 151.76 162.36 149.987C159.608 159.086 156.857 168.185 154.104 177.277C150.809 181.746 147.509 186.212 144.214 190.68C145.854 186.697 147.494 182.714 149.133 178.725Z" fill="#3DB27A"/>
<path d="M188.128 166.781C193.346 168.061 198.569 169.342 203.793 170.62C204.956 170.943 205.326 171.497 204.875 172.784C203.04 177.983 199.229 188.948 199.058 189.2C201.837 178.594 199.02 170.72 188.128 166.781Z" fill="#62E48E"/>
<path d="M154.447 177.46C154.539 177.317 154.629 177.178 154.725 177.037C158.105 180.766 161.484 184.489 164.867 188.215C163.978 189.809 163.091 191.398 162.202 192.992C160.362 196.178 158.52 199.369 156.68 202.555C156.211 202.129 155.742 201.702 155.272 201.276C155.269 200.688 155.512 199.888 155.22 199.54C149.239 192.361 152.429 184.898 154.447 177.46Z" fill="#78EB98"/>
<path d="M154.447 177.46C152.428 184.897 149.238 192.361 155.219 199.54C155.509 199.892 155.268 200.687 155.271 201.276C153.629 199.863 151.983 198.447 150.343 197.03C148.3 194.915 146.257 192.801 144.214 190.686C147.51 186.218 150.805 181.75 154.104 177.283C154.218 177.344 154.331 177.404 154.447 177.46Z" fill="#60E4A5"/>
<path d="M164.87 188.216C161.487 184.49 158.104 180.765 154.726 177.041C158.501 175.596 162.226 174.01 166.059 172.74C172.776 170.518 179.562 168.487 186.318 166.379C185.59 171.35 184.866 176.324 184.138 181.296C182.22 181.906 170.179 186.356 164.87 188.216Z" fill="#A2F5C3"/>
<path d="M184.141 181.291C184.869 176.32 185.593 171.346 186.321 166.374C186.39 166.245 186.46 166.121 186.533 165.994C187.064 166.255 187.599 166.519 188.13 166.781C199.022 170.719 201.839 178.594 199.06 189.199C197.919 191.277 196.73 189.549 195.897 189.034C191.915 186.553 188.051 183.89 184.141 181.291Z" fill="#79EAA6"/>
<path d="M164.871 188.216L156.685 202.555L167.745 189.744L184.142 181.292L164.871 188.216Z" fill="white"/>
<path d="M172.872 59.1147L167.451 65.8736C167.451 65.8736 161.315 69.1508 157.928 70.0342C157.969 68.078 158.01 66.1194 158.054 64.1632C158.081 65.2553 158.451 67.4812 158.451 67.4812L159.389 61.1138C159.389 61.1138 164.905 52.9172 165.276 53.0901C167.764 53.2994 170.247 53.5502 172.739 53.6862C173.258 53.7156 174.044 53.5852 174.131 53.545C174.146 53.3838 172.872 59.1147 172.872 59.1147Z" fill="#A9FECB"/>
<path d="M147.105 44.0814C147.149 43.2249 145.819 41.5536 148.268 42.1219C153.003 43.1972 157.736 44.2726 162.472 45.348C162.468 45.4261 162.469 45.5016 162.47 45.5797C159.862 48.2933 157.22 50.9781 154.659 53.7349C153.198 55.3085 151.869 57.0021 150.479 58.6429C150.473 58.7332 150.467 58.8211 150.459 58.9115C150.391 58.9124 150.32 58.9134 150.252 58.9143C149.203 53.9717 148.154 49.0265 147.105 44.0814Z" fill="#68D88E"/>
<path d="M162.47 45.3481C157.734 44.2727 153.001 43.1973 148.265 42.122C156.075 42.4426 163.887 42.7608 171.697 43.0814C168.935 43.8221 166.175 44.5627 163.415 45.3057C163.101 45.3198 162.787 45.334 162.47 45.3481Z" fill="#3BB18E"/>
<path d="M148.304 60.8631C147.919 56.3355 147.12 45.1495 147.105 44.0817C148.154 49.0268 149.203 53.9719 150.249 58.9146C149.858 61.8412 149.465 64.7679 149.074 67.6945C148.818 65.4182 148.562 63.1418 148.304 60.8631Z" fill="#3DB27A"/>
<path d="M163.416 45.306C166.176 44.5654 168.938 43.8247 171.7 43.0817C172.325 42.934 172.639 43.0979 172.759 43.8131C173.235 46.7057 174.269 52.7922 174.254 52.9534C172.832 47.299 169.501 44.3509 163.416 45.306Z" fill="#62E48E"/>
<path d="M150.456 58.9116C150.462 58.8213 150.469 58.7334 150.477 58.6431C153.008 59.515 155.537 60.3845 158.068 61.254C158.061 62.2246 158.055 63.1927 158.049 64.1632C158.008 66.1194 157.967 68.078 157.926 70.0342C157.598 69.9558 157.27 69.8775 156.943 69.7991C156.79 69.5257 156.699 69.0905 156.473 69.0034C151.847 67.1901 151.421 62.8947 150.456 58.9116Z" fill="#78EB98"/>
<path d="M150.457 58.9118C151.422 62.8949 151.847 67.1903 156.474 69.0036C156.699 69.0931 156.791 69.5259 156.943 69.7993C155.816 69.5614 154.686 69.3235 153.559 69.0831C152.065 68.6211 150.571 68.159 149.077 67.697C149.468 64.7704 149.859 61.8437 150.252 58.9171C150.321 58.9161 150.389 58.9152 150.457 58.9118Z" fill="#60E4A5"/>
<path d="M158.068 61.254C155.537 60.3846 153.006 59.5151 150.478 58.6456C151.867 57.0047 153.196 55.3111 154.657 53.7375C157.218 50.9807 159.861 48.2959 162.469 45.5823C163.403 48.0857 164.34 50.5891 165.275 53.0926C164.537 53.8685 160.066 59.0268 158.068 61.254Z" fill="#A2F5C3"/>
<path d="M165.275 53.09C164.341 50.5865 163.404 48.0831 162.469 45.5797C162.468 45.5017 162.469 45.4261 162.471 45.348C162.785 45.3339 163.102 45.3197 163.416 45.3056C169.501 44.3506 172.832 47.2986 174.254 52.953C174.254 54.2137 173.257 53.713 172.738 53.6861C170.246 53.55 167.763 53.2992 165.275 53.09Z" fill="#79EAA6"/>
<path d="M158.069 61.2539L157.928 70.0341L159.8 61.2298L165.276 53.09L158.069 61.2539Z" fill="white"/>
<path d="M60.88 197.23L53.5348 188.466C53.5348 188.466 50.8802 179.678 50.6126 175.067C53.1335 175.626 55.6576 176.185 58.1779 176.747C56.7576 176.5 53.7813 176.403 53.7813 176.403L61.7791 179.264C61.7791 179.264 70.9602 188.522 70.6407 188.957C69.7267 192.122 68.76 195.271 67.9398 198.46C67.7674 199.125 67.733 200.176 67.7625 200.299C67.9672 200.36 60.88 197.23 60.88 197.23Z" fill="#E3A9FE"/>
<path d="M86.997 167.773C88.094 168.052 90.6009 166.762 89.2323 169.784C86.6162 175.635 84.0007 181.482 81.3846 187.333C81.2846 187.308 81.1865 187.29 81.0852 187.271C78.2478 183.194 75.4565 179.08 72.5509 175.053C70.8922 172.756 69.0442 170.597 67.2799 168.375C67.1646 168.344 67.0525 168.314 66.9378 168.279C66.9542 168.191 66.9712 168.099 66.9876 168.01C73.6553 167.931 80.3262 167.852 86.997 167.773Z" fill="#AD68D8"/>
<path d="M81.3861 187.329C84.0022 181.479 86.6177 175.632 89.2338 169.781C86.7996 179.805 84.368 189.833 81.9338 199.857C81.6895 196.091 81.4446 192.328 81.1965 188.564C81.2595 188.154 81.3225 187.743 81.3861 187.329Z" fill="#7D3BB1"/>
<path d="M64.9701 164.985C70.929 165.658 85.6118 167.516 86.9975 167.772C80.3267 167.851 73.6558 167.93 66.9887 168.007C63.3023 166.744 59.6166 165.478 55.9302 164.216C58.9423 164.473 61.9543 164.73 64.9701 164.985Z" fill="#783DB2"/>
<path d="M81.196 188.564C81.4409 192.327 81.6852 196.093 81.9327 199.86C81.9623 200.706 81.6689 201.071 80.7124 201.041C76.8457 200.91 68.7018 200.673 68.4971 200.612C76.1824 200.234 80.8586 196.686 81.196 188.564Z" fill="#A362E4"/>
<path d="M66.9376 168.276C67.0529 168.307 67.165 168.338 67.2798 168.372C65.497 171.422 63.718 174.469 61.9384 177.52C60.6839 177.261 59.4326 177.003 58.1781 176.744C55.6572 176.185 53.1331 175.626 50.6122 175.067C50.7983 174.663 50.9845 174.259 51.1706 173.855C51.5639 173.728 52.1508 173.722 52.3218 173.453C55.8646 167.935 61.5334 168.495 66.9376 168.276Z" fill="#BF78EB"/>
<path d="M66.9379 168.276C61.5337 168.495 55.8649 167.935 52.322 173.453C52.1479 173.722 51.5642 173.728 51.1709 173.855C51.7703 172.457 52.3703 171.057 52.9729 169.66C53.9571 167.846 54.9412 166.032 55.9254 164.219C59.6118 165.481 63.2982 166.744 66.984 168.01C66.9675 168.098 66.9511 168.187 66.9379 168.276Z" fill="#9A60E4"/>
<path d="M61.9394 177.521C63.719 174.47 65.4986 171.42 67.2776 168.372C69.0419 170.594 70.8899 172.753 72.5486 175.05C75.4542 179.077 78.2455 183.191 81.0829 187.268C77.6015 187.83 74.1195 188.395 70.6381 188.957C69.8247 187.802 64.3051 180.682 61.9394 177.521Z" fill="#CCA2F5"/>
<path d="M70.6414 188.958C74.1228 188.396 77.6048 187.83 81.0862 187.268C81.1874 187.287 81.2849 187.308 81.3856 187.33C81.3226 187.741 81.259 188.154 81.196 188.565C80.8586 196.687 76.1823 200.234 68.4971 200.613C66.8655 200.287 67.7712 199.127 67.9404 198.461C68.7607 195.272 69.7273 192.123 70.6414 188.958Z" fill="#B879EA"/>
<path d="M61.9383 177.521L50.6121 175.067L61.5219 179.767L70.6402 188.958L61.9383 177.521Z" fill="white"/>
<path d="M107.805 117.098L119.169 118.368C119.169 118.368 127.156 122.893 130.533 126.045C128.324 127.381 126.111 128.718 123.9 130.052C125.098 129.25 127.318 127.265 127.318 127.265L119.557 130.717C119.557 130.717 106.523 130.356 106.454 129.821C104.931 126.9 103.456 123.955 101.848 121.081C101.514 120.481 100.813 119.697 100.707 119.628C100.517 119.725 107.805 117.098 107.805 117.098Z" fill="#E3A9FE"/>
<path d="M109.244 156.439C108.258 156.994 107.335 159.658 106.239 156.526C104.093 150.488 101.948 144.451 99.8024 138.413C99.8922 138.362 99.9757 138.307 100.062 138.251C104.929 139.241 109.788 140.291 114.671 141.199C117.456 141.716 120.284 142.002 123.094 142.392C123.199 142.335 123.301 142.279 123.408 142.225C123.457 142.3 123.508 142.379 123.557 142.454C118.788 147.114 114.016 151.776 109.244 156.439Z" fill="#AD68D8"/>
<path d="M99.8045 138.416C101.951 144.455 104.095 150.491 106.241 156.53C101.082 147.597 95.9191 138.663 90.7605 129.73C93.5371 132.287 96.3119 134.84 99.0894 137.392C99.3272 137.732 99.565 138.073 99.8045 138.416Z" fill="#7D3BB1"/>
<path d="M127.106 143.25C122.33 146.877 110.425 155.668 109.245 156.439C114.017 151.777 118.788 147.115 123.559 142.457C127.098 140.826 130.639 139.197 134.177 137.566C131.82 139.459 129.464 141.352 127.106 143.25Z" fill="#783DB2"/>
<path d="M99.0885 137.391C96.3137 134.838 93.5371 132.282 90.7578 129.727C90.152 129.135 90.1127 128.669 90.8255 128.031C93.7135 125.456 99.769 120.005 99.9591 119.908C94.6601 125.487 93.7258 131.282 99.0885 137.391Z" fill="#A362E4"/>
<path d="M123.41 142.228C123.305 142.285 123.203 142.34 123.096 142.394C122.281 138.957 121.464 135.524 120.646 132.088C121.732 131.41 122.816 130.733 123.902 130.054C126.112 128.718 128.324 127.38 130.534 126.045C130.678 126.465 130.822 126.886 130.966 127.307C130.769 127.67 130.349 128.079 130.411 128.392C131.657 134.831 127.169 138.339 123.41 142.228Z" fill="#BF78EB"/>
<path d="M123.41 142.228C127.169 138.339 131.657 134.831 130.41 128.393C130.351 128.078 130.769 127.67 130.966 127.307C131.497 128.732 132.03 130.16 132.558 131.586C133.098 133.578 133.638 135.57 134.178 137.561C130.639 139.193 127.101 140.824 123.56 142.452C123.511 142.377 123.462 142.301 123.41 142.228Z" fill="#9A60E4"/>
<path d="M120.646 132.088C121.464 135.524 122.282 138.959 123.099 142.392C120.289 142.003 117.461 141.717 114.676 141.2C109.793 140.292 104.934 139.242 100.067 138.251C102.198 135.441 104.327 132.629 106.457 129.819C107.843 130.093 116.752 131.434 120.646 132.088Z" fill="#CCA2F5"/>
<path d="M106.453 129.82C104.322 132.631 102.193 135.443 100.062 138.253C99.9762 138.31 99.891 138.361 99.803 138.415C99.5652 138.075 99.3257 137.731 99.0879 137.391C93.7253 131.282 94.6596 125.487 99.9586 119.908C101.364 119.017 101.51 120.482 101.847 121.08C103.455 123.954 104.929 126.899 106.453 129.82Z" fill="#B879EA"/>
<path d="M120.646 132.088L130.534 126.044L119.397 130.175L106.455 129.82L120.646 132.088Z" fill="white"/>
<path d="M105.576 180.725L109.604 175.845C109.604 175.845 114.117 173.514 116.599 172.904C116.549 174.331 116.499 175.761 116.447 177.189C116.438 176.391 116.191 174.762 116.191 174.762L115.441 179.402C115.441 179.402 111.33 185.331 111.062 185.201C109.247 185.023 107.437 184.814 105.619 184.69C105.24 184.663 104.665 184.75 104.601 184.779C104.588 184.896 105.576 180.725 105.576 180.725Z" fill="#A9EFFE"/>
<path d="M124.236 191.962C124.195 192.587 125.149 193.821 123.367 193.381C119.92 192.548 116.475 191.715 113.028 190.882C113.032 190.825 113.032 190.77 113.032 190.713C114.964 188.758 116.92 186.824 118.818 184.837C119.901 183.703 120.889 182.48 121.919 181.296C121.925 181.23 121.93 181.166 121.937 181.1C121.987 181.1 122.039 181.1 122.089 181.1C122.804 184.72 123.52 188.341 124.236 191.962Z" fill="#68C4D8"/>
<path d="M113.03 190.882C116.476 191.715 119.921 192.548 123.368 193.381C117.669 193.068 111.968 192.756 106.27 192.443C108.294 191.93 110.316 191.417 112.339 190.903C112.568 190.896 112.798 190.889 113.03 190.882Z" fill="#3BA0B1"/>
<path d="M123.531 179.698C123.766 183.007 124.236 191.183 124.236 191.963C123.52 188.341 122.805 184.72 122.091 181.101C122.406 178.968 122.723 176.835 123.038 174.702C123.202 176.367 123.366 178.031 123.531 179.698Z" fill="#3D9FB2"/>
<path d="M112.339 190.903C110.317 191.416 108.293 191.929 106.268 192.443C105.811 192.545 105.583 192.422 105.503 191.898C105.184 189.781 104.492 185.327 104.504 185.209C105.485 189.352 107.887 191.539 112.339 190.903Z" fill="#62C6E4"/>
<path d="M121.94 181.1C121.934 181.166 121.929 181.23 121.922 181.296C120.083 180.634 118.245 179.973 116.406 179.313C116.42 178.604 116.435 177.897 116.449 177.189C116.499 175.761 116.549 174.331 116.599 172.904C116.837 172.964 117.076 173.025 117.314 173.085C117.423 173.286 117.485 173.605 117.649 173.671C121.008 175.042 121.276 178.182 121.94 181.1Z" fill="#78CFEB"/>
<path d="M121.94 181.1C121.276 178.182 121.009 175.042 117.649 173.671C117.485 173.603 117.423 173.286 117.314 173.085C118.135 173.27 118.958 173.455 119.778 173.642C120.865 173.995 121.951 174.347 123.037 174.7C122.721 176.833 122.406 178.966 122.089 181.098C122.04 181.098 121.99 181.098 121.94 181.1Z" fill="#60C5E4"/>
<path d="M116.405 179.313C118.244 179.974 120.083 180.634 121.921 181.295C120.89 182.478 119.902 183.702 118.819 184.836C116.922 186.823 114.965 188.756 113.033 190.711C112.376 188.874 111.718 187.036 111.061 185.199C111.607 184.64 114.924 180.919 116.405 179.313Z" fill="#A2E6F5"/>
<path d="M111.061 185.2C111.718 187.038 112.377 188.875 113.034 190.712C113.034 190.769 113.032 190.825 113.03 190.882C112.8 190.889 112.569 190.896 112.339 190.903C107.887 191.539 105.485 189.352 104.504 185.209C104.516 184.289 105.239 184.665 105.618 184.69C107.436 184.814 109.247 185.022 111.061 185.2Z" fill="#79CFEA"/>
<path d="M116.405 179.313L116.597 172.904L115.141 179.313L111.061 185.201L116.405 179.313Z" fill="white"/>
<path d="M212.265 183.488L216.292 178.608C216.292 178.608 220.805 176.277 223.287 175.667C223.237 177.094 223.187 178.524 223.136 179.952C223.127 179.154 222.879 177.525 222.879 177.525L222.13 182.165C222.13 182.165 218.019 188.093 217.75 187.963C215.936 187.785 214.125 187.577 212.308 187.453C211.928 187.426 211.353 187.513 211.289 187.542C211.277 187.659 212.265 183.488 212.265 183.488Z" fill="#FEA9CD"/>
<path d="M230.924 194.726C230.883 195.35 231.838 196.584 230.055 196.144C226.609 195.311 223.164 194.478 219.717 193.645C219.72 193.588 219.72 193.533 219.72 193.476C221.652 191.521 223.609 189.587 225.507 187.601C226.589 186.466 227.577 185.243 228.608 184.059C228.613 183.993 228.619 183.929 228.626 183.864C228.676 183.864 228.727 183.864 228.777 183.864C229.493 187.483 230.208 191.104 230.924 194.726Z" fill="#D86890"/>
<path d="M219.721 193.645C223.168 194.478 226.613 195.311 230.06 196.144C224.361 195.831 218.66 195.519 212.961 195.206C214.985 194.693 217.008 194.181 219.03 193.666C219.26 193.659 219.49 193.652 219.721 193.645Z" fill="#B13B65"/>
<path d="M230.22 182.461C230.455 185.77 230.925 193.946 230.925 194.725C230.209 191.104 229.493 187.483 228.779 183.863C229.094 181.731 229.411 179.598 229.726 177.465C229.89 179.129 230.054 180.794 230.22 182.461Z" fill="#B23D59"/>
<path d="M219.029 193.666C217.006 194.179 214.982 194.692 212.958 195.206C212.5 195.308 212.272 195.185 212.192 194.661C211.874 192.545 211.181 188.09 211.194 187.973C212.175 192.116 214.576 194.302 219.029 193.666Z" fill="#E46291"/>
<path d="M228.629 183.863C228.624 183.929 228.618 183.993 228.611 184.059C226.772 183.397 224.935 182.736 223.096 182.076C223.11 181.367 223.124 180.66 223.138 179.952C223.188 178.524 223.238 177.094 223.288 175.667C223.527 175.727 223.765 175.788 224.004 175.848C224.112 176.049 224.175 176.368 224.338 176.434C227.698 177.805 227.965 180.945 228.629 183.863Z" fill="#EB78A1"/>
<path d="M228.627 183.864C227.963 180.946 227.696 177.805 224.337 176.434C224.173 176.366 224.111 176.05 224.002 175.848C224.823 176.034 225.645 176.219 226.466 176.406C227.552 176.758 228.638 177.111 229.724 177.463C229.409 179.596 229.094 181.729 228.777 183.862C228.727 183.862 228.677 183.862 228.627 183.864Z" fill="#E46090"/>
<path d="M223.095 182.076C224.934 182.736 226.773 183.397 228.61 184.057C227.579 185.241 226.591 186.465 225.509 187.599C223.611 189.586 221.654 191.519 219.723 193.474C219.066 191.636 218.407 189.799 217.75 187.962C218.297 187.403 221.613 183.682 223.095 182.076Z" fill="#F5A2B6"/>
<path d="M217.75 187.964C218.407 189.801 219.066 191.638 219.723 193.476C219.723 193.533 219.721 193.588 219.72 193.645C219.49 193.652 219.258 193.659 219.029 193.666C214.576 194.302 212.174 192.115 211.193 187.973C211.206 187.052 211.929 187.428 212.308 187.453C214.126 187.577 215.936 187.786 217.75 187.964Z" fill="#EA7994"/>
<path d="M223.095 182.076L223.287 175.667L221.831 182.076L217.75 187.963L223.095 182.076Z" fill="white"/>
<path d="M108.149 62.7264L112.176 57.8464C112.176 57.8464 116.689 55.5159 119.171 54.9053C119.121 56.3331 119.071 57.7628 119.02 59.1906C119.011 58.393 118.763 56.764 118.763 56.764L118.014 61.4036C118.014 61.4036 113.903 67.3322 113.634 67.2023C111.82 67.0242 110.009 66.8159 108.191 66.6913C107.812 66.6646 107.237 66.7518 107.173 66.7803C107.161 66.8978 108.149 62.7264 108.149 62.7264Z" fill="#FEA9CD"/>
<path d="M126.808 73.9643C126.767 74.5892 127.721 75.823 125.939 75.3832C122.492 74.55 119.047 73.7168 115.601 72.8836C115.604 72.8266 115.604 72.7715 115.604 72.7145C117.536 70.7596 119.492 68.8262 121.39 66.8393C122.473 65.7052 123.461 64.4821 124.492 63.2981C124.497 63.2323 124.502 63.1682 124.51 63.1023C124.559 63.1023 124.611 63.1023 124.661 63.1023C125.377 66.7218 126.092 70.343 126.808 73.9643Z" fill="#D86890"/>
<path d="M115.603 72.8835C119.05 73.7168 122.495 74.55 125.941 75.3832C120.242 75.0698 114.542 74.7583 108.843 74.4449C110.867 73.9322 112.89 73.4194 114.912 72.9049C115.142 72.8978 115.371 72.8907 115.603 72.8835Z" fill="#B13B65"/>
<path d="M126.103 61.6993C126.338 65.009 126.808 73.1844 126.808 73.9642C126.093 70.343 125.377 66.7217 124.663 63.1022C124.978 60.9694 125.295 58.8365 125.61 56.7036C125.774 58.3683 125.938 60.0329 126.103 61.6993Z" fill="#B23D59"/>
<path d="M114.912 72.905C112.889 73.4178 110.865 73.9305 108.841 74.445C108.383 74.5465 108.155 74.4237 108.075 73.9003C107.756 71.7834 107.064 67.3289 107.076 67.2114C108.057 71.3543 110.459 73.5406 114.912 72.905Z" fill="#E46291"/>
<path d="M124.512 63.1021C124.507 63.1679 124.501 63.232 124.494 63.2979C122.655 62.6356 120.818 61.9751 118.979 61.3146C118.993 60.606 119.007 59.8992 119.021 59.1906C119.071 57.7628 119.121 56.3331 119.171 54.9053C119.409 54.9658 119.648 55.0263 119.887 55.0869C119.995 55.2881 120.057 55.6067 120.221 55.6726C123.581 57.0435 123.848 60.1841 124.512 63.1021Z" fill="#EB78A1"/>
<path d="M124.512 63.1024C123.848 60.1843 123.581 57.0438 120.221 55.6729C120.058 55.6052 119.995 55.2883 119.887 55.0872C120.707 55.2723 121.53 55.4575 122.351 55.6444C123.437 55.9969 124.523 56.3494 125.609 56.7019C125.294 58.8348 124.979 60.9677 124.662 63.1006C124.612 63.1006 124.562 63.1006 124.512 63.1024Z" fill="#E46090"/>
<path d="M118.977 61.3147C120.817 61.9752 122.656 62.6357 124.493 63.2962C123.462 64.4802 122.474 65.7033 121.392 66.8374C119.494 68.8243 117.537 70.7578 115.605 72.7126C114.949 70.8753 114.29 69.0379 113.633 67.2006C114.179 66.6415 117.496 62.9206 118.977 61.3147Z" fill="#F5A2B6"/>
<path d="M113.633 67.2024C114.29 69.0398 114.949 70.8771 115.606 72.7144C115.606 72.7714 115.604 72.8266 115.602 72.8836C115.373 72.8907 115.141 72.8978 114.912 72.9049C110.459 73.5405 108.057 71.3542 107.076 67.2113C107.089 66.2909 107.811 66.6665 108.191 66.6915C110.008 66.8161 111.819 67.0244 113.633 67.2024Z" fill="#EA7994"/>
<path d="M118.977 61.3146L119.17 54.9053L117.713 61.3146L113.633 67.2023L118.977 61.3146Z" fill="white"/>
<path d="M27.8019 128.342L31.8291 123.462C31.8291 123.462 36.3423 121.131 38.8242 120.521C38.7743 121.948 38.7245 123.378 38.6728 124.806C38.6639 124.008 38.4165 122.379 38.4165 122.379L37.6669 127.019C37.6669 127.019 33.5561 132.947 33.2872 132.817C31.473 132.639 29.6624 132.431 27.8447 132.307C27.4654 132.28 26.8904 132.367 26.8263 132.396C26.8138 132.513 27.8019 128.342 27.8019 128.342Z" fill="#A9FECB"/>
<path d="M46.4613 139.58C46.4204 140.204 47.3746 141.438 45.5925 140.998C42.1457 140.165 38.7007 139.332 35.2539 138.499C35.2575 138.442 35.2575 138.387 35.2575 138.33C37.1892 136.375 39.1458 134.441 41.0437 132.455C42.1261 131.32 43.1142 130.097 44.145 128.913C44.1504 128.847 44.1557 128.783 44.1628 128.718C44.2127 128.718 44.2643 128.718 44.3142 128.718C45.0299 132.337 45.7456 135.958 46.4613 139.58Z" fill="#68D88E"/>
<path d="M35.2552 138.499C38.7019 139.332 42.147 140.165 45.5937 140.998C39.8948 140.685 34.1941 140.374 28.4951 140.06C30.5194 139.547 32.5419 139.035 34.5644 138.52C34.794 138.513 35.0237 138.506 35.2552 138.499Z" fill="#3BB18E"/>
<path d="M45.7567 127.315C45.9917 130.624 46.4617 138.8 46.4617 139.579C45.746 135.958 45.0303 132.337 44.3164 128.717C44.6315 126.585 44.9484 124.452 45.2636 122.319C45.4274 123.983 45.5911 125.648 45.7567 127.315Z" fill="#3DB27A"/>
<path d="M34.565 138.52C32.5425 139.033 30.5183 139.546 28.494 140.06C28.0364 140.162 27.8086 140.039 27.7284 139.515C27.4098 137.399 26.7172 132.944 26.7297 132.827C27.7106 136.97 30.1124 139.156 34.565 138.52Z" fill="#62E48E"/>
<path d="M44.1652 128.717C44.1599 128.783 44.1545 128.847 44.1474 128.913C42.3083 128.251 40.471 127.59 38.6318 126.93C38.6461 126.221 38.6603 125.514 38.6746 124.806C38.7244 123.378 38.7743 121.948 38.8241 120.521C39.0627 120.581 39.3013 120.642 39.5398 120.702C39.6484 120.903 39.7107 121.222 39.8745 121.288C43.2341 122.659 43.5011 125.799 44.1652 128.717Z" fill="#78EB98"/>
<path d="M44.1654 128.717C43.5014 125.799 43.2343 122.659 39.8747 121.288C39.711 121.22 39.6486 120.903 39.54 120.702C40.3608 120.887 41.1833 121.072 42.0041 121.259C43.0901 121.612 44.1761 121.964 45.2621 122.317C44.947 124.45 44.6319 126.582 44.315 128.715C44.2651 128.715 44.2153 128.715 44.1654 128.717Z" fill="#60E4A5"/>
<path d="M38.6308 126.93C40.4699 127.59 42.309 128.251 44.1464 128.911C43.1155 130.095 42.1274 131.319 41.045 132.453C39.1471 134.44 37.1905 136.373 35.2588 138.328C34.6018 136.49 33.9431 134.653 33.2861 132.816C33.8327 132.257 37.1495 128.536 38.6308 126.93Z" fill="#A2F5C3"/>
<path d="M33.2866 132.818C33.9435 134.655 34.6023 136.492 35.2592 138.33C35.2592 138.387 35.2574 138.442 35.2557 138.499C35.026 138.506 34.7945 138.513 34.5649 138.52C30.1122 139.156 27.7105 136.969 26.7295 132.827C26.742 131.906 27.4648 132.282 27.844 132.307C29.6618 132.431 31.4724 132.64 33.2866 132.818Z" fill="#79EAA6"/>
<path d="M38.6308 126.93L38.8231 120.521L37.3667 126.93L33.2861 132.817L38.6308 126.93Z" fill="white"/>
<path d="M202.29 108.358L206.317 103.478C206.317 103.478 210.831 101.147 213.312 100.536C213.263 101.964 213.213 103.394 213.161 104.822C213.152 104.024 212.905 102.395 212.905 102.395L212.155 107.035C212.155 107.035 208.044 112.963 207.776 112.833C205.961 112.655 204.151 112.447 202.333 112.322C201.954 112.296 201.379 112.383 201.315 112.411C201.302 112.529 202.29 108.358 202.29 108.358Z" fill="#E3A9FE"/>
<path d="M220.952 119.595C220.911 120.22 221.865 121.454 220.083 121.014C216.636 120.181 213.191 119.348 209.744 118.514C209.748 118.458 209.748 118.402 209.748 118.345C211.679 116.391 213.636 114.457 215.534 112.47C216.616 111.336 217.604 110.113 218.635 108.929C218.641 108.863 218.646 108.799 218.653 108.733C218.703 108.733 218.755 108.733 218.804 108.733C219.52 112.353 220.236 115.974 220.952 119.595Z" fill="#AD68D8"/>
<path d="M209.746 118.514C213.193 119.348 216.638 120.181 220.085 121.014C214.386 120.701 208.685 120.389 202.986 120.076C205.011 119.563 207.033 119.05 209.056 118.536C209.285 118.529 209.515 118.522 209.746 118.514Z" fill="#7D3BB1"/>
<path d="M220.245 107.33C220.48 110.64 220.95 118.816 220.95 119.595C220.234 115.974 219.519 112.353 218.805 108.733C219.12 106.6 219.437 104.468 219.752 102.335C219.916 103.999 220.079 105.664 220.245 107.33Z" fill="#783DB2"/>
<path d="M209.054 118.536C207.032 119.049 205.008 119.561 202.983 120.076C202.526 120.177 202.298 120.055 202.218 119.531C201.899 117.414 201.206 112.96 201.219 112.842C202.2 116.985 204.602 119.171 209.054 118.536Z" fill="#A362E4"/>
<path d="M218.654 108.733C218.649 108.799 218.644 108.863 218.637 108.929C216.798 108.267 214.96 107.606 213.121 106.946C213.135 106.237 213.15 105.53 213.164 104.822C213.214 103.394 213.264 101.964 213.313 100.536C213.552 100.597 213.791 100.657 214.029 100.718C214.138 100.919 214.2 101.238 214.364 101.304C217.723 102.675 217.99 105.815 218.654 108.733Z" fill="#BF78EB"/>
<path d="M218.653 108.733C217.989 105.815 217.722 102.675 214.362 101.304C214.198 101.236 214.136 100.919 214.027 100.718C214.848 100.903 215.671 101.088 216.491 101.275C217.577 101.628 218.663 101.98 219.749 102.333C219.434 104.466 219.119 106.599 218.802 108.731C218.752 108.731 218.703 108.731 218.653 108.733Z" fill="#9A60E4"/>
<path d="M213.12 106.946C214.959 107.606 216.798 108.267 218.636 108.927C217.605 110.111 216.617 111.334 215.534 112.468C213.636 114.455 211.68 116.389 209.748 118.344C209.091 116.506 208.432 114.669 207.775 112.832C208.322 112.273 211.639 108.552 213.12 106.946Z" fill="#CCA2F5"/>
<path d="M207.776 112.833C208.433 114.671 209.092 116.508 209.748 118.345C209.748 118.402 209.747 118.457 209.745 118.514C209.515 118.522 209.284 118.529 209.054 118.536C204.601 119.171 202.2 116.985 201.219 112.842C201.231 111.922 201.954 112.297 202.333 112.322C204.151 112.447 205.962 112.655 207.776 112.833Z" fill="#B879EA"/>
<path d="M213.12 106.946L213.312 100.536L211.856 106.946L207.775 112.833L213.12 106.946Z" fill="white"/>
</svg>
