<svg width="129" height="129" viewBox="0 0 129 129" fill="none" xmlns="http://www.w3.org/2000/svg">
<path d="M33.0356 46.9678C33.0356 64.0437 46.8789 77.886 63.9554 77.8854C81.032 77.8848 94.8752 64.0416 94.8752 46.9656C94.8752 29.8897 81.032 16.0474 63.9554 16.048C46.8789 16.0485 33.0356 29.8918 33.0356 46.9678Z" fill="#FFFE55"/>
<path fill-rule="evenodd" clip-rule="evenodd" d="M91.2949 46.9658C91.2949 31.8671 79.0546 19.6275 63.9553 19.628C48.8561 19.6285 36.6157 31.8688 36.6157 46.9676C36.6157 62.0663 48.8561 74.3058 63.9553 74.3054C79.0546 74.3049 91.2949 62.0645 91.2949 46.9658ZM63.9553 12.4679C83.0091 12.4673 98.4553 27.9124 98.4553 46.9656C98.4553 66.0187 83.0091 81.4649 63.9553 81.4655C44.9015 81.4661 29.4553 66.0209 29.4553 46.9678C29.4553 27.9146 44.9015 12.4685 63.9553 12.4679Z" fill="black"/>
<path d="M25.4553 71.9695C25.4553 93.2324 42.6924 110.469 63.9553 110.468C85.2183 110.467 102.455 93.2298 102.455 71.9668C102.455 50.7038 85.2183 33.4674 63.9553 33.4681C42.6924 33.4689 25.4553 50.7065 25.4553 71.9695Z" fill="#74FCFD"/>
<path d="M23.6704 102.964C23.6704 109.747 29.1704 115.247 35.9551 115.249C42.7397 115.25 48.2398 109.752 48.2398 102.969C48.2398 96.1855 42.7397 90.6854 35.9551 90.6841C29.1704 90.6827 23.6704 96.1806 23.6704 102.964Z" fill="#75FA4C"/>
<path fill-rule="evenodd" clip-rule="evenodd" d="M35.9553 88.4697C43.9635 88.4713 50.4553 94.9632 50.4553 102.97C50.4553 110.976 43.9635 117.466 35.9553 117.464C27.9472 117.462 21.4553 110.97 21.4553 102.964C21.4553 94.9573 27.9472 88.4681 35.9553 88.4697ZM46.0248 102.969C46.0248 97.4088 41.5165 92.9005 35.9553 92.8994C30.3941 92.8982 25.8859 97.4047 25.8859 102.965C25.8859 108.525 30.3941 113.033 35.9553 113.034C41.5165 113.035 46.0248 108.529 46.0248 102.969Z" fill="black"/>
<path d="M80.6704 102.964C80.6704 109.747 86.1704 115.247 92.9551 115.249C99.7397 115.25 105.24 109.752 105.24 102.969C105.24 96.1855 99.7397 90.6854 92.9551 90.6841C86.1704 90.6827 80.6704 96.1806 80.6704 102.964Z" fill="#75FA4C"/>
<path fill-rule="evenodd" clip-rule="evenodd" d="M92.9553 88.4697C100.963 88.4713 107.455 94.9632 107.455 102.97C107.455 110.976 100.963 117.466 92.9553 117.464C84.9472 117.462 78.4553 110.97 78.4553 102.964C78.4553 94.9573 84.9472 88.4681 92.9553 88.4697ZM103.025 102.969C103.025 97.4088 98.5165 92.9005 92.9553 92.8994C87.3941 92.8982 82.8859 97.4047 82.8859 102.965C82.8859 108.525 87.3941 113.033 92.9553 113.034C98.5165 113.035 103.025 108.529 103.025 102.969Z" fill="black"/>
</svg>
