<svg width="129" height="128" viewBox="0 0 129 128" fill="none" xmlns="http://www.w3.org/2000/svg">
<path d="M63.8752 78.001C81.2722 78.001 95.3748 63.8979 95.3741 46.501C95.3735 29.104 81.27 15.001 63.873 15.001C46.4761 15.001 32.3735 29.104 32.3741 46.501C32.3748 63.8979 46.4783 78.001 63.8752 78.001Z" fill="url(#paint0_linear)"/>
<path fill-rule="evenodd" clip-rule="evenodd" d="M64.373 12.0012C83.1507 12.0005 98.373 27.2223 98.373 46C98.373 64.7777 83.1507 80.0005 64.373 80.0012C45.5954 80.0018 30.373 64.7801 30.373 46.0024C30.373 27.2247 45.5954 12.0018 64.373 12.0012ZM93.1828 46.0002C93.1828 30.089 80.2842 17.1909 64.373 17.1915C48.4619 17.192 35.5633 30.091 35.5633 46.0022C35.5633 61.9134 48.4619 74.8115 64.373 74.8109C80.2842 74.8104 93.1828 61.9114 93.1828 46.0002Z" fill="black"/>
<path d="M22.373 70C22.373 47.3563 40.7414 29 63.373 29C86.0047 29 104.373 47.3563 104.373 70C104.373 92.6437 86.0047 111 63.373 111C40.7414 111 22.373 92.6437 22.373 70Z" fill="url(#paint1_linear)"/>
<path fill-rule="evenodd" clip-rule="evenodd" d="M67.2911 68.8152H81.815L53.7187 99.0823L59.4597 70.7069H44.9297L73.026 40.917L67.2911 68.8152Z" fill="url(#paint2_linear)"/>
<path d="M34.87 114.998C41.7736 114.998 47.3711 109.402 47.3725 102.498C47.3739 95.5945 41.7786 89.998 34.875 89.998C27.9714 89.998 22.3739 95.5945 22.3725 102.498C22.3711 109.402 27.9664 114.998 34.87 114.998Z" fill="url(#paint3_linear)"/>
<path fill-rule="evenodd" clip-rule="evenodd" d="M34.873 87.997C42.8812 87.9987 49.373 94.4919 49.373 102.5C49.373 110.508 42.8812 116.999 34.873 116.997C26.8649 116.995 20.373 110.502 20.373 102.494C20.373 94.4859 26.8649 87.9954 34.873 87.997ZM44.9425 102.499C44.9425 96.9379 40.4342 92.4287 34.873 92.4276C29.3118 92.4265 24.8036 96.9338 24.8036 102.495C24.8036 108.056 29.3118 112.565 34.873 112.566C40.4342 112.568 44.9425 108.06 44.9425 102.499Z" fill="black"/>
<path d="M92.87 114.998C99.7736 114.998 105.371 109.402 105.373 102.498C105.374 95.5945 99.7786 89.998 92.875 89.998C85.9714 89.998 80.3739 95.5945 80.3725 102.498C80.3711 109.402 85.9664 114.998 92.87 114.998Z" fill="url(#paint4_linear)"/>
<path fill-rule="evenodd" clip-rule="evenodd" d="M92.873 87.997C100.881 87.9987 107.373 94.4919 107.373 102.5C107.373 110.508 100.881 116.999 92.873 116.997C84.8649 116.995 78.373 110.502 78.373 102.494C78.373 94.4859 84.8649 87.9954 92.873 87.997ZM102.942 102.499C102.942 96.9379 98.4342 92.4287 92.873 92.4276C87.3118 92.4265 82.8036 96.9338 82.8036 102.495C82.8036 108.056 87.3118 112.565 92.873 112.566C98.4342 112.568 102.942 108.06 102.942 102.499Z" fill="black"/>
<defs>
<linearGradient id="paint0_linear" x1="63.873" y1="15.001" x2="63.873" y2="78.001" gradientUnits="userSpaceOnUse">
<stop stop-color="#A61E00"/>
<stop offset="1"/>
</linearGradient>
<linearGradient id="paint1_linear" x1="63.373" y1="29" x2="63.373" y2="111" gradientUnits="userSpaceOnUse">
<stop/>
<stop offset="1" stop-color="#3A0068"/>
</linearGradient>
<linearGradient id="paint2_linear" x1="63.3724" y1="40.917" x2="63.3724" y2="99.0823" gradientUnits="userSpaceOnUse">
<stop stop-color="#00FFFF"/>
<stop offset="0.557292" stop-color="#7000C8"/>
<stop offset="1" stop-color="#FF007A"/>
</linearGradient>
<linearGradient id="paint3_linear" x1="34.875" y1="89.998" x2="34.875" y2="114.998" gradientUnits="userSpaceOnUse">
<stop/>
<stop offset="1" stop-color="#3A0068"/>
</linearGradient>
<linearGradient id="paint4_linear" x1="92.875" y1="89.998" x2="92.875" y2="114.998" gradientUnits="userSpaceOnUse">
<stop/>
<stop offset="1" stop-color="#3A0068"/>
</linearGradient>
</defs>
</svg>
