<svg width="129" height="129" viewBox="0 0 129 129" fill="none" xmlns="http://www.w3.org/2000/svg">
<path d="M32.9219 47.1233C32.9219 64.5203 47.0249 78.6228 64.4219 78.6222C81.8188 78.6216 95.9219 64.5181 95.9219 47.1211C95.9219 29.7241 81.8188 15.6216 64.4219 15.6222C47.0249 15.6228 32.9219 29.7263 32.9219 47.1233Z" fill="url(#paint0_linear)"/>
<path fill-rule="evenodd" clip-rule="evenodd" d="M64.9219 12.6223C83.6996 12.6216 98.9219 27.8434 98.9219 46.6211C98.9219 65.3988 83.6996 80.6216 64.9219 80.6223C46.1442 80.6229 30.9219 65.4011 30.9219 46.6235C30.9219 27.8458 46.1442 12.6229 64.9219 12.6223ZM93.7316 46.6213C93.7316 30.7101 80.8331 17.812 64.9219 17.8125C49.0107 17.8131 36.1121 30.7121 36.1121 46.6233C36.1121 62.5345 49.0107 75.4326 64.9219 75.432C80.833 75.4315 93.7316 62.5325 93.7316 46.6213Z" fill="black"/>
<path d="M22.9219 70.3711C22.9219 47.8655 41.1782 29.6211 63.6719 29.6211C86.1656 29.6211 104.422 47.8655 104.422 70.3711C104.422 92.8767 86.1656 111.121 63.6719 111.121C41.1782 111.121 22.9219 92.8767 22.9219 70.3711Z" fill="#DEEBFF"/>
<path d="M80.2567 107.602C76.4294 109.31 72.291 110.446 67.9505 110.899C66.2448 108.294 65.1711 105.366 65.1711 102.167C65.1711 98.235 66.7937 94.7325 69.2424 91.7558C70.4341 90.3072 70.6317 89.3545 70.6317 88.8017C70.6317 88.2352 70.423 87.2326 69.1936 85.6976C66.7826 82.6876 65.1711 79.1752 65.1711 75.2566C65.1711 71.3243 66.7937 67.8218 69.2424 64.8451C70.4341 63.3965 70.6317 62.4438 70.6317 61.8909C70.6317 61.3244 70.423 60.3218 69.1936 58.7869C66.7826 55.7769 65.1711 52.2645 65.1711 48.3459C65.1711 44.4136 66.7937 40.911 69.2424 37.9344C70.4341 36.4857 70.6317 35.533 70.6317 34.9802C70.6317 34.4137 70.423 33.4111 69.1936 31.8762C68.6639 31.2149 68.1727 30.5293 67.7288 29.8205C73.0641 30.3483 78.098 31.9059 82.6285 34.292C82.6395 34.52 82.6451 34.7494 82.6451 34.9802C82.6451 38.9125 81.0226 42.415 78.5738 45.3917C77.3821 46.8403 77.1845 47.793 77.1845 48.3459C77.1845 48.9124 77.3932 49.915 78.6227 51.4499C81.0336 54.4599 82.6451 57.9723 82.6451 61.8909C82.6451 65.8232 81.0226 69.3257 78.5738 72.3024C77.3821 73.7511 77.1845 74.7038 77.1845 75.2566C77.1845 75.8231 77.3932 76.8257 78.6227 78.3606C81.0336 81.3706 82.6451 84.8831 82.6451 88.8017C82.6451 92.734 81.0226 96.2365 78.5738 99.2132C77.3821 100.662 77.1845 101.615 77.1845 102.167C77.1845 102.734 77.3932 103.736 78.6227 105.271C79.2206 106.018 79.7694 106.795 80.2567 107.602Z" fill="#0071BC"/>
<path d="M101.211 86.2491C97.9149 94.0292 92.2704 100.573 85.1682 104.993C85.3883 101.414 86.9468 98.2097 89.2127 95.4553C90.4044 94.0066 90.602 93.054 90.602 92.5011C90.602 91.9346 90.3933 90.932 89.1639 89.3971C86.7529 86.3871 85.1414 82.8747 85.1414 78.9561C85.1414 75.0238 86.764 71.5212 89.2127 68.5446C90.4044 67.0959 90.602 66.1432 90.602 65.5904C90.602 65.0239 90.3933 64.0213 89.1639 62.4864C86.7529 59.4764 85.1414 55.9639 85.1414 52.0453C85.1414 48.113 86.764 44.6105 89.2127 41.6338C89.8862 40.8151 90.2422 40.1548 90.4245 39.6355C93.5709 42.3766 96.2928 45.5927 98.4782 49.1721C97.3451 50.5754 97.1548 51.5028 97.1548 52.0453C97.1548 52.6118 97.3635 53.6144 98.593 55.1493C101.004 58.1593 102.615 61.6718 102.615 65.5904C102.615 69.5227 100.993 73.0252 98.5442 76.0019C97.3524 77.4505 97.1548 78.4032 97.1548 78.9561C97.1548 79.5226 97.3635 80.5252 98.593 82.0601C99.6379 83.3646 100.533 84.7636 101.211 86.2491Z" fill="#0071BC"/>
<path d="M47.4358 32.9861C51.285 31.3114 55.4427 30.2138 59.7993 29.8027C61.5607 32.444 62.6748 35.4214 62.6748 38.6797C62.6748 42.6119 61.0522 46.1145 58.6035 49.0911C57.4118 50.5398 57.2142 51.4925 57.2142 52.0453C57.2142 52.6118 57.4229 53.6144 58.6523 55.1493C61.0633 58.1593 62.6748 61.6718 62.6748 65.5904C62.6748 69.5227 61.0522 73.0252 58.6035 76.0019C57.4118 77.4505 57.2142 78.4032 57.2142 78.9561C57.2142 79.5226 57.4229 80.5252 58.6523 82.0601C61.0633 85.0701 62.6748 88.5825 62.6748 92.5011C62.6748 96.4334 61.0522 99.9359 58.6035 102.913C57.4118 104.361 57.2142 105.314 57.2142 105.867C57.2142 106.433 57.4229 107.436 58.6523 108.971C59.1666 109.613 59.6445 110.278 60.0781 110.964C54.7712 110.5 49.7549 109.018 45.226 106.714C45.2093 106.434 45.2008 106.151 45.2008 105.867C45.2008 101.934 46.8233 98.432 49.2721 95.4553C50.4638 94.0066 50.6614 93.054 50.6614 92.5011C50.6614 91.9346 50.4527 90.932 49.2232 89.3971C46.8123 86.3871 45.2008 82.8747 45.2008 78.9561C45.2008 75.0238 46.8233 71.5212 49.2721 68.5446C50.4638 67.0959 50.6614 66.1432 50.6614 65.5904C50.6614 65.0239 50.4527 64.0213 49.2232 62.4864C46.8123 59.4764 45.2008 55.9639 45.2008 52.0453C45.2008 48.113 46.8233 44.6105 49.2721 41.6338C50.4638 40.1852 50.6614 39.2325 50.6614 38.6797C50.6614 38.1132 50.4527 37.1105 49.2232 35.5756C48.5616 34.7496 47.9602 33.8858 47.4358 32.9861Z" fill="#0071BC"/>
<path d="M26.3611 53.9651C29.7691 46.2287 35.5129 39.7526 42.6974 35.4295C42.5792 39.1797 40.9883 42.5289 38.6332 45.3917C37.4415 46.8403 37.2439 47.793 37.2439 48.3459C37.2439 48.9124 37.4526 49.915 38.682 51.4499C41.093 54.4599 42.7045 57.9723 42.7045 61.8909C42.7045 65.8232 41.0819 69.3257 38.6332 72.3024C37.4415 73.7511 37.2439 74.7038 37.2439 75.2566C37.2439 75.8231 37.4526 76.8257 38.682 78.3606C41.093 81.3706 42.7045 84.8831 42.7045 88.8017C42.7045 92.734 41.0819 96.2365 38.6332 99.2132C37.843 100.174 37.4898 100.916 37.3416 101.469C34.1383 98.7538 31.3597 95.5528 29.1198 91.9798C29.18 91.9049 29.2406 91.8302 29.3017 91.7558C30.4935 90.3072 30.6911 89.3545 30.6911 88.8017C30.6911 88.2352 30.4824 87.2326 29.2529 85.6976C26.842 82.6876 25.2305 79.1752 25.2305 75.2566C25.2305 71.3243 26.853 67.8218 29.3017 64.8451C30.4935 63.3965 30.6911 62.4438 30.6911 61.8909C30.6911 61.3244 30.4824 60.3218 29.2529 58.7869C28.0608 57.2986 27.0641 55.6874 26.3611 53.9651Z" fill="#0071BC"/>
<path d="M22.9219 103.116C22.9219 110.02 28.5183 115.617 35.4219 115.619C42.3254 115.62 47.9219 110.025 47.9219 103.121C47.9219 96.2175 42.3254 90.62 35.4219 90.6186C28.5183 90.6172 22.9219 96.2125 22.9219 103.116Z" fill="url(#paint1_linear)"/>
<path fill-rule="evenodd" clip-rule="evenodd" d="M35.4219 88.6181C43.43 88.6198 49.9219 95.113 49.9219 103.121C49.9219 111.129 43.43 117.62 35.4219 117.618C27.4137 117.616 20.9219 111.123 20.9219 103.115C20.9219 95.107 27.4137 88.6165 35.4219 88.6181ZM45.4913 103.12C45.4913 97.559 40.9831 93.0498 35.4219 93.0487C29.8607 93.0476 25.3524 97.5549 25.3524 103.116C25.3524 108.677 29.8607 113.186 35.4219 113.188C40.9831 113.189 45.4913 108.681 45.4913 103.12Z" fill="black"/>
<path d="M80.9219 103.116C80.9219 110.02 86.5183 115.617 93.4219 115.619C100.325 115.62 105.922 110.025 105.922 103.121C105.922 96.2175 100.325 90.62 93.4219 90.6186C86.5183 90.6172 80.9219 96.2125 80.9219 103.116Z" fill="url(#paint2_linear)"/>
<path fill-rule="evenodd" clip-rule="evenodd" d="M93.4219 88.6181C101.43 88.6198 107.922 95.113 107.922 103.121C107.922 111.129 101.43 117.62 93.4219 117.618C85.4137 117.616 78.9219 111.123 78.9219 103.115C78.9219 95.107 85.4137 88.6165 93.4219 88.6181ZM103.491 103.12C103.491 97.559 98.9831 93.0498 93.4219 93.0487C87.8607 93.0476 83.3524 97.5549 83.3524 103.116C83.3524 108.677 87.8607 113.186 93.4219 113.188C98.9831 113.189 103.491 108.681 103.491 103.12Z" fill="black"/>
<defs>
<linearGradient id="paint0_linear" x1="50.7862" y1="73.6381" x2="72.6593" y2="15.6018" gradientUnits="userSpaceOnUse">
<stop stop-color="#005D9B"/>
<stop offset="1" stop-color="#001CB0"/>
</linearGradient>
<linearGradient id="paint1_linear" x1="30.0109" y1="113.64" x2="38.6947" y2="90.6128" gradientUnits="userSpaceOnUse">
<stop stop-color="#88A9FF"/>
<stop offset="1" stop-color="#1154FF"/>
</linearGradient>
<linearGradient id="paint2_linear" x1="88.0109" y1="113.64" x2="96.6947" y2="90.6128" gradientUnits="userSpaceOnUse">
<stop stop-color="#88A9FF"/>
<stop offset="1" stop-color="#1154FF"/>
</linearGradient>
</defs>
</svg>
