<svg width="128" height="128" viewBox="0 0 128 128" fill="none" xmlns="http://www.w3.org/2000/svg">
<path d="M97.999 83.3939C108.155 83.3939 116.39 75.1607 116.392 65.0046C116.394 54.8484 108.162 46.6152 98.0063 46.6152C87.8501 46.6152 79.6153 54.8484 79.6133 65.0046C79.6113 75.1607 87.8428 83.3939 97.999 83.3939Z" fill="url(#paint0_linear_1161_805)"/>
<path fill-rule="evenodd" clip-rule="evenodd" d="M80.8641 65.5012C80.8641 75.2535 88.7661 83.1493 98.5 83.1507C108.234 83.1521 116.136 75.2586 116.136 65.5063C116.136 55.754 108.234 47.8582 98.5 47.8568C88.7661 47.8554 80.8641 55.7489 80.8641 65.5012ZM98.5 91.0037C84.4106 91.0017 73 79.5771 73 65.5C73 51.4229 84.4106 40.0017 98.5 40.0037C112.589 40.0058 124 51.4304 124 65.5075C124 79.5846 112.589 91.0058 98.5 91.0037Z" fill="black"/>
<path d="M98.1197 83.5958C98.2342 84.7013 98.3291 85.8625 98.5077 87.6797C102.706 83.3838 106.355 79.5847 110.059 75.8051C108.9 73.2063 107.669 70.4568 106.51 67.858C104.941 70.1916 103.466 72.62 101.897 74.9536C100.774 77.4435 99.6523 79.9335 98.5301 82.4234C98.3179 82.8505 98.237 83.2609 98.1197 83.5958Z" fill="#5F0664"/>
<path d="M102.102 75.0883C103.671 72.7547 104.886 70.3591 106.455 68.0254C107.574 64.4692 108.75 60.9324 109.869 57.3761C106.53 61.7224 102.789 66.6805 99.4502 71.0267C100.101 72.5704 102.102 75.0883 102.102 75.0883Z" fill="#FF95E7"/>
<path d="M109.866 57.3769C108.747 60.9332 107.572 64.4699 106.452 68.0262C107.611 70.6251 108.825 73.2435 109.983 75.8423C110.718 69.2685 111.452 62.6946 112.429 53.6364C110.536 56.3581 110.229 56.8773 109.866 57.3769Z" fill="#E105B0"/>
<path d="M102.101 75.0877C102.101 75.0877 100.119 72.5139 99.4492 71.0261C96.2558 74.4204 97.0267 77.949 97.8446 82.058C98.0483 82.192 98.324 82.4765 98.5278 82.6105C99.65 80.1206 100.979 77.5776 102.101 75.0877Z" fill="#E105B0"/>
<path d="M98.527 82.6106C98.3233 82.4766 98.0475 82.1921 97.8438 82.0581C97.9107 82.5829 98.0692 83.2024 98.1362 83.7272C98.3288 83.3559 98.3903 83.0014 98.527 82.6106Z" fill="#FF00C1"/>
<path d="M94.1594 74.5387C93.9542 75.3897 93.7632 76.2815 93.435 77.6796C89.7112 74.7666 86.4808 72.185 83.1943 69.623C84.5429 67.5469 85.9759 65.3499 87.3245 63.2738C88.6542 64.9166 89.8852 66.6394 91.2149 68.2822C92.0964 70.0819 92.9779 71.8816 93.8593 73.6813C94.0297 73.9883 94.0737 74.2937 94.1594 74.5387Z" fill="#6E32BB"/>
<path d="M91.0018 68.4019C89.6721 66.7591 88.6919 65.0391 87.3622 63.3963C86.574 60.7848 85.7297 58.193 84.9414 55.5815C87.8237 58.6058 91.0466 62.0616 93.9289 65.0858C93.1645 66.3158 91.0018 68.4019 91.0018 68.4019Z" fill="#BF87EB"/>
<path d="M84.9403 55.5819C85.7286 58.1933 86.5729 60.7852 87.3612 63.3966C86.0125 65.4728 84.6079 67.5685 83.2593 69.6446C83.1022 64.704 82.9451 59.7634 82.7623 52.9527C84.3744 54.8634 84.6294 55.2324 84.9403 55.5819Z" fill="#9B05E1"/>
<path d="M91.004 68.4011C91.004 68.4011 93.1524 66.2743 93.931 65.0851C96.7527 67.3973 95.7025 70.1481 94.5573 73.3446C94.3475 73.4639 94.0549 73.7038 93.8451 73.8231C92.9636 72.0234 91.8855 70.2008 91.004 68.4011Z" fill="#9B05E1"/>
<path d="M93.8424 73.8237C94.0522 73.7044 94.3449 73.4645 94.5547 73.3452C94.4449 73.7503 94.238 74.2352 94.1282 74.6403C93.9722 74.3741 93.9424 74.1095 93.8424 73.8237Z" fill="#710256"/>
<path d="M95.4761 83.6259C96.0299 84.8027 96.5837 86.0488 97.4836 87.987C100.46 81.6184 103.022 76.0112 105.652 70.404C103.368 67.9812 100.944 65.4204 98.6594 62.9976C97.8288 66.1819 97.1375 69.4349 96.3068 72.6192C96.0299 75.8035 95.753 78.9879 95.4761 82.1722C95.4069 82.726 95.4761 83.2106 95.4761 83.6259Z" fill="#8A0292"/>
<path d="M96.5816 72.6888C97.4123 69.5045 97.8286 66.3883 98.6593 63.204C98.5208 58.8429 98.4516 54.4817 98.3132 50.1206C96.3057 56.2124 94.0895 63.1359 92.082 69.2276C93.3973 70.6813 96.5816 72.6888 96.5816 72.6888Z" fill="#A687EB"/>
<path d="M98.3125 50.1216C98.4509 54.4828 98.5202 58.8439 98.6586 63.205C100.943 65.6279 103.297 68.0508 105.581 70.4736C103.85 62.9281 102.12 55.3827 99.697 44.999C98.6586 48.7371 98.5202 49.4294 98.3125 50.1216Z" fill="#E105B0"/>
<path d="M96.582 72.6888C96.582 72.6888 93.3977 70.612 92.0825 69.2275C89.8673 74.2117 92.0832 77.8114 94.5753 82.0341C94.8522 82.1033 95.2667 82.311 95.5436 82.3802C95.8205 79.1959 96.3051 75.8731 96.582 72.6888Z" fill="#E105B0"/>
<path d="M95.5465 82.3803C95.2696 82.3111 94.855 82.1034 94.5781 82.0342C94.855 82.588 95.2696 83.211 95.5465 83.7648C95.6157 83.2802 95.5465 82.8649 95.5465 82.3803Z" fill="#710256"/>
<path d="M93.6967 82.3797C97.504 83.4181 102.35 82.7259 105.465 81.6875L97.504 89.3022L93.6967 82.3797Z" fill="black"/>
<path d="M29.0024 82.3944C18.8462 82.3944 10.6114 74.1612 10.6094 64.0051C10.6073 53.8489 18.8389 45.6157 28.995 45.6157C39.1512 45.6157 47.386 53.8489 47.3881 64.0051C47.3901 74.1612 39.1585 82.3944 29.0024 82.3944Z" fill="url(#paint1_linear_1161_805)"/>
<path fill-rule="evenodd" clip-rule="evenodd" d="M47.1359 64.5012C47.1359 74.2535 39.2339 82.1493 29.5 82.1507C19.7661 82.1521 11.8641 74.2586 11.8641 64.5063C11.8641 54.754 19.7661 46.8582 29.5 46.8568C39.2339 46.8554 47.1359 54.7489 47.1359 64.5012ZM29.5 90.0037C43.5894 90.0017 55 78.5771 55 64.5C55 50.4229 43.5894 39.0017 29.5 39.0037C15.4106 39.0058 4 50.4304 4 64.5075C4 78.5846 15.4106 90.0058 29.5 90.0037Z" fill="black"/>
<path d="M30.056 82.5958C29.9416 83.7013 29.8467 84.8625 29.6681 86.6797C25.4697 82.3838 21.8212 78.5847 18.1169 74.8051C19.2753 72.2063 20.5072 69.4568 21.6657 66.858C23.2345 69.1916 24.7103 71.62 26.2791 73.9536C27.4013 76.4435 28.5235 78.9335 29.6457 81.4234C29.8578 81.8505 29.9388 82.2609 30.056 82.5958Z" fill="#5F0664"/>
<path d="M26.0738 74.0883C24.505 71.7547 23.2896 69.3591 21.7208 67.0254C20.6014 63.4692 19.4261 59.9324 18.3067 56.3761C21.6453 60.7224 25.387 65.6805 28.7256 70.0267C28.0752 71.5704 26.0738 74.0883 26.0738 74.0883Z" fill="#FF95E7"/>
<path d="M18.3093 56.3769C19.4287 59.9332 20.604 63.4699 21.7234 67.0262C20.565 69.6251 19.3508 72.2435 18.1923 74.8423C17.4581 68.2685 16.7238 61.6946 15.7467 52.6364C17.6393 55.3581 17.9464 55.8773 18.3093 56.3769Z" fill="#E105B0"/>
<path d="M26.0748 74.0877C26.0748 74.0877 28.0566 71.5139 28.7266 70.0261C31.92 73.4204 31.149 76.949 30.3312 81.058C30.1274 81.192 29.8517 81.4765 29.648 81.6105C28.5258 79.1206 27.197 76.5776 26.0748 74.0877Z" fill="#E105B0"/>
<path d="M29.6487 81.6106C29.8525 81.4766 30.1283 81.1921 30.332 81.0581C30.265 81.5829 30.1065 82.2024 30.0396 82.7272C29.8469 82.3559 29.7855 82.0014 29.6487 81.6106Z" fill="#FF00C1"/>
<path d="M34.0163 73.5387C34.2216 74.3897 34.4126 75.2815 34.7407 76.6796C38.4645 73.7666 41.695 71.185 44.9815 68.623C43.6329 66.5469 42.1999 64.3499 40.8513 62.2738C39.5216 63.9166 38.2906 65.6394 36.9609 67.2822C36.0794 69.0819 35.1979 70.8816 34.3165 72.6813C34.1461 72.9883 34.1021 73.2937 34.0163 73.5387Z" fill="#6E32BB"/>
<path d="M37.174 67.4019C38.5036 65.7591 39.4839 64.0391 40.8135 62.3963C41.6018 59.7848 42.4461 57.193 43.2344 54.5815C40.3521 57.6058 37.1292 61.0616 34.2469 64.0858C35.0113 65.3158 37.174 67.4019 37.174 67.4019Z" fill="#BF87EB"/>
<path d="M43.2354 54.5819C42.4472 57.1933 41.6029 59.7852 40.8146 62.3966C42.1632 64.4728 43.5679 66.5685 44.9165 68.6446C45.0736 63.704 45.2307 58.7634 45.4135 51.9527C43.8014 53.8634 43.5464 54.2324 43.2354 54.5819Z" fill="#9B05E1"/>
<path d="M37.1718 67.4011C37.1718 67.4011 35.0234 65.2743 34.2448 64.0851C31.4231 66.3973 32.4733 69.1481 33.6184 72.3446C33.8283 72.4639 34.1209 72.7038 34.3307 72.8231C35.2122 71.0234 36.2903 69.2008 37.1718 67.4011Z" fill="#9B05E1"/>
<path d="M34.3334 72.8237C34.1236 72.7044 33.8309 72.4645 33.6211 72.3452C33.7309 72.7503 33.9378 73.2352 34.0476 73.6403C34.2036 73.3741 34.2333 73.1095 34.3334 72.8237Z" fill="#710256"/>
<path d="M32.6997 82.6259C32.1459 83.8027 31.5921 85.0488 30.6922 86.987C27.7155 80.6184 25.1542 75.0112 22.5237 69.404C24.8081 66.9812 27.2319 64.4204 29.5163 61.9976C30.347 65.1819 31.0383 68.4349 31.869 71.6192C32.1459 74.8035 32.4228 77.9879 32.6997 81.1722C32.7689 81.726 32.6997 82.2106 32.6997 82.6259Z" fill="#8A0292"/>
<path d="M31.5942 71.6888C30.7635 68.5045 30.3472 65.3883 29.5165 62.204C29.6549 57.8429 29.7242 53.4817 29.8626 49.1206C31.8701 55.2124 34.0862 62.1359 36.0937 68.2276C34.7785 69.6813 31.5942 71.6888 31.5942 71.6888Z" fill="#A687EB"/>
<path d="M29.8633 49.1216C29.7248 53.4828 29.6556 57.8439 29.5172 62.205C27.2328 64.6279 24.8791 67.0508 22.5947 69.4736C24.3253 61.9281 26.0559 54.3827 28.4788 43.999C29.5172 47.7371 29.6556 48.4294 29.8633 49.1216Z" fill="#E105B0"/>
<path d="M31.5938 71.6888C31.5938 71.6888 34.778 69.612 36.0933 68.2275C38.3085 73.2117 36.0926 76.8114 33.6005 81.0341C33.3236 81.1033 32.9091 81.311 32.6322 81.3802C32.3553 78.1959 31.8707 74.8731 31.5938 71.6888Z" fill="#E105B0"/>
<path d="M32.6293 81.3803C32.9062 81.3111 33.3208 81.1034 33.5977 81.0342C33.3208 81.588 32.9062 82.211 32.6293 82.7648C32.56 82.2802 32.6293 81.8649 32.6293 81.3803Z" fill="#710256"/>
<path d="M34.4791 81.3797C30.6717 82.4181 25.826 81.7259 22.7109 80.6875L30.6717 88.3022L34.4791 81.3797Z" fill="black"/>
<defs>
<linearGradient id="paint0_linear_1161_805" x1="98.0104" y1="46.6152" x2="98.0104" y2="83.3939" gradientUnits="userSpaceOnUse">
<stop stop-color="#3F00C6"/>
<stop offset="1"/>
</linearGradient>
<linearGradient id="paint1_linear_1161_805" x1="28.9935" y1="45.6157" x2="28.9935" y2="82.3944" gradientUnits="userSpaceOnUse">
<stop stop-color="#3F00C6"/>
<stop offset="1"/>
</linearGradient>
</defs>
</svg>
