<svg width="128" height="129" viewBox="0 0 128 129" fill="none" xmlns="http://www.w3.org/2000/svg">
<rect x="103.037" y="46.6172" width="6.18082" height="21.5163" rx="3.09041" transform="rotate(45 103.037 46.6172)" fill="#70E5FF"/>
<rect x="87.8218" y="50.9883" width="6.18082" height="21.5163" rx="3.09041" transform="rotate(-45 87.8218 50.9883)" fill="#70E5FF"/>
<rect x="84.4937" y="60.8809" width="26.1496" height="19.9688" fill="#2B5AD2"/>
<rect x="82.1167" y="55.1758" width="30.9041" height="7.60716" fill="#0636B1"/>
<rect x="94.4785" y="55.1758" width="6.18082" height="25.6742" fill="#28C7EA"/>
<path fill-rule="evenodd" clip-rule="evenodd" d="M100.794 49.301C101.41 48.6823 102.231 48.3965 103.036 48.4443C103.726 48.4853 104.404 48.7709 104.932 49.301C106.073 50.4492 106.074 52.311 104.932 53.4601L104.932 53.4608L103.036 55.3659H112.314V62.6057H110.063V79.8016H85.3116V62.6057H83.0616V55.3659H92.4254L90.5311 53.4612C89.3886 52.3121 89.3882 50.4501 90.5306 49.301C91.0576 48.7712 91.7356 48.4858 92.4254 48.4449C93.2307 48.397 94.052 48.6824 94.6674 49.301L97.7309 52.3811L100.794 49.301ZM110.366 43.8363C106.944 40.3945 101.765 39.7954 97.7306 42.0389L110.366 43.8363ZM110.367 43.8371C111.476 44.9519 112.287 46.2518 112.803 47.6376H120V70.334H117.749V87.5299H77.6256V70.334H75.3755V47.6376H82.6595C83.1748 46.2517 83.9866 44.9518 85.095 43.8371L85.0958 43.8363C88.5185 40.3948 93.697 39.7965 97.7306 42.0389" fill="black"/>
<rect x="36.6602" y="46.6172" width="6.18082" height="21.5163" rx="3.09041" transform="rotate(45 36.6602 46.6172)" fill="#70E5FF"/>
<rect x="21.4453" y="50.9883" width="6.18082" height="21.5163" rx="3.09041" transform="rotate(-45 21.4453 50.9883)" fill="#70E5FF"/>
<rect x="18.1177" y="60.8809" width="26.1496" height="19.9688" fill="#2B5AD2"/>
<rect x="15.7402" y="55.1758" width="30.9041" height="7.60716" fill="#0636B1"/>
<rect x="28.1016" y="55.1758" width="6.18082" height="25.6742" fill="#28C7EA"/>
<path fill-rule="evenodd" clip-rule="evenodd" d="M34.4185 49.301C35.0338 48.6823 35.8553 48.3965 36.6605 48.4443C37.3503 48.4853 38.0285 48.7709 38.5556 49.301C39.6975 50.4492 39.6977 52.311 38.5562 53.4601L38.5556 53.4608L36.6605 55.3659H45.9377V62.6057H43.6873V79.8016H18.9357V62.6057H16.6856V55.3659H26.0494L24.1551 53.4612C23.0126 52.3121 23.0122 50.4501 24.1547 49.301C24.6816 48.7712 25.3596 48.4858 26.0494 48.4449C26.8547 48.397 27.676 48.6824 28.2914 49.301L31.3549 52.3811L34.4185 49.301ZM43.9904 43.8363C40.5678 40.3945 35.3888 39.7954 31.3546 42.0389L43.9904 43.8363ZM43.9912 43.8371C45.0997 44.9519 45.9115 46.2518 46.4267 47.6376H53.6238V70.334H51.3734V87.5299H11.2496V70.334H8.99951V47.6376H16.2835C16.7988 46.2517 17.6107 44.9518 18.719 43.8371L18.7198 43.8363C22.1425 40.3948 27.321 39.7965 31.3546 42.0389" fill="black"/>
</svg>
