<svg width="256" height="256" viewBox="0 0 256 256" fill="none" xmlns="http://www.w3.org/2000/svg">
<path d="M186.76 219.4L184.757 221.167L178.447 226.754L176.976 228.063C175.163 229.669 172.302 229.143 171.212 226.997C169.672 223.961 169.958 221.775 166.32 217.753C161.359 212.274 159.029 214.339 154.069 208.86C149.109 203.381 151.453 201.303 146.493 195.824C141.532 190.345 139.202 192.41 134.242 186.931C130.1 182.342 131.053 180.143 128.587 176.337C127.606 174.826 127.878 172.828 129.227 171.627L131.231 169.86L137.54 164.246L139.011 162.937C140.824 161.331 143.685 161.857 144.776 164.003C146.315 167.039 146.029 169.225 149.668 173.247C154.628 178.726 156.958 176.661 161.918 182.14C166.878 187.619 164.534 189.697 169.495 195.176C174.455 200.655 176.785 198.59 181.745 204.069C185.888 208.658 184.934 210.857 187.414 214.663C188.395 216.201 188.123 218.199 186.76 219.4Z" fill="#C70024"/>
<path d="M185 221.369L178.637 227C173.634 221.478 175.998 219.383 170.995 213.861C165.992 208.339 163.642 210.42 158.639 204.898C153.636 199.376 156 197.282 150.997 191.76C145.995 186.238 143.644 188.319 138.642 182.797C133.639 177.275 136.003 175.18 131 169.658L137.363 164C142.366 169.522 140.002 171.617 145.005 177.139C150.008 182.661 152.358 180.58 157.361 186.102C162.364 191.624 160 193.718 165.003 199.24C170.005 204.762 172.356 202.681 177.358 208.203C182.347 213.753 179.997 215.847 185 221.369Z" fill="#FF9478"/>
<path d="M54.8825 93.3042L56.6501 93.7711L62.2232 95.2532L63.5249 95.6024C65.1262 96.0288 66.7091 94.8244 66.7115 93.1727C66.7132 90.8362 65.8637 89.5837 66.8412 85.9966C68.175 81.1084 70.2337 81.6566 71.5674 76.7684C72.9012 71.8802 70.83 71.3279 72.1637 66.4398C73.4975 61.5516 75.5562 62.0998 76.8899 57.2116C78 53.1215 76.739 52.0665 77.0685 48.9728C77.2002 47.7437 76.4174 46.6028 75.2237 46.282L73.4562 45.8151L67.8748 44.3164L66.573 43.9672C64.9718 43.5408 63.3889 44.7452 63.3864 46.3969C63.3847 48.7334 64.2342 49.9859 63.2567 53.573C61.923 58.4612 59.8642 57.913 58.5305 62.8012C57.1968 67.6894 59.2679 68.2417 57.9342 73.1298C56.6005 78.018 54.5418 77.4698 53.208 82.358C52.098 86.4481 53.3589 87.5031 53.0212 90.601C52.8977 91.8467 53.6806 92.9875 54.8825 93.3042Z" fill="#C70024"/>
<path d="M56.5831 93.6576L62.2031 95.1244C63.5679 90.2123 61.4792 89.6658 62.844 84.7537C64.2087 79.8417 66.2847 80.3842 67.6495 75.4722C69.0142 70.5601 66.9256 70.0136 68.2903 65.1015C69.655 60.1895 71.7311 60.732 73.0958 55.82C74.4605 50.9079 72.3719 50.3614 73.7366 45.4493L68.1083 43.966C66.7435 48.878 68.8322 49.4246 67.4674 54.3366C66.1027 59.2487 64.0267 58.7062 62.6619 63.6182C61.2972 68.5302 63.3858 69.0768 62.0211 73.9888C60.6564 78.9009 58.5803 78.3584 57.2156 83.2704C55.8676 88.1948 57.9478 88.7456 56.5831 93.6576Z" fill="#FF9478"/>
<path d="M242.133 49.3877L242.717 51.7785L244.569 59.3171L245.005 61.0781C245.538 63.2441 243.879 65.3323 241.658 65.2817C238.516 65.2078 236.853 64.0253 232.005 65.2221C225.398 66.8553 226.084 69.6401 219.477 71.2733C212.87 72.9065 212.18 70.1048 205.573 71.738C198.967 73.3712 199.652 76.156 193.045 77.7892C187.518 79.1478 186.131 77.4187 181.963 77.7606C180.306 77.8976 178.792 76.8083 178.391 75.1935L177.808 72.8027L175.934 65.2523L175.497 63.4913C174.964 61.3254 176.624 59.2372 178.845 59.2878C181.986 59.3616 183.649 60.5442 188.497 59.3474C195.104 57.7142 194.419 54.9293 201.025 53.2961C207.632 51.6629 208.322 54.4646 214.929 52.8314C221.535 51.1982 220.85 48.4134 227.457 46.7802C232.985 45.4216 234.371 47.1507 238.546 46.7978C240.224 46.6725 241.738 47.7619 242.133 49.3877Z" fill="#C70024"/>
<path d="M242.589 51.5424L244.458 59.0794C237.842 60.6998 237.146 57.8987 230.53 59.519C223.915 61.1394 224.606 63.9237 217.991 65.544C211.376 67.1644 210.679 64.3633 204.064 65.9837C197.449 67.6041 198.14 70.3883 191.525 72.0087C184.909 73.6291 184.213 70.828 177.598 72.4483L175.707 64.8995C182.322 63.2792 183.019 66.0803 189.634 64.4599C196.249 62.8395 195.558 60.0553 202.173 58.4349C208.789 56.8145 209.485 59.6156 216.1 57.9952C222.716 56.3749 222.024 53.5906 228.64 51.9703C235.271 50.3727 235.973 53.1628 242.589 51.5424Z" fill="#FF9478"/>
<path d="M116.435 112.111L116.688 113.153L117.493 116.441L117.682 117.209C117.914 118.153 117.19 119.065 116.222 119.043C114.853 119.012 114.129 118.497 112.017 119.021C109.138 119.736 109.435 120.95 106.556 121.665C103.677 122.38 103.378 121.158 100.499 121.873C97.6197 122.588 97.9172 123.802 95.0382 124.517C92.6294 125.111 92.0259 124.358 90.2097 124.508C89.4881 124.569 88.8288 124.094 88.6546 123.39L88.4014 122.347L87.5876 119.055L87.3979 118.287C87.1666 117.342 87.8904 116.431 88.858 116.452C90.2268 116.483 90.9507 116.998 93.0634 116.475C95.9424 115.76 95.6449 114.545 98.5238 113.831C101.403 113.116 101.703 114.338 104.581 113.623C107.46 112.908 107.163 111.694 110.042 110.979C112.451 110.384 113.054 111.138 114.873 110.983C115.604 110.927 116.263 111.402 116.435 112.111Z" fill="#C70024"/>
<path d="M115.939 113.151L116.751 116.387C113.905 117.075 113.602 115.873 110.756 116.561C107.91 117.25 108.21 118.445 105.364 119.134C102.518 119.822 102.215 118.62 99.3688 119.308C96.5226 119.997 96.823 121.192 93.9768 121.881C91.1306 122.569 90.828 121.367 87.9818 122.055L87.1601 118.814C90.0063 118.126 90.3089 119.328 93.1551 118.64C96.0013 117.951 95.7009 116.756 98.5471 116.067C101.393 115.379 101.696 116.581 104.542 115.893C107.388 115.204 107.088 114.009 109.934 113.32C112.787 112.641 113.092 113.839 115.939 113.151Z" fill="#FF9478"/>
<path d="M120.594 71.7394C115.232 67.8678 111.513 60.3585 114.097 54.072C116.182 48.9991 112.635 44.4674 116.169 39.5574C120.529 33.5 127.226 34.0335 133.937 33.5695C138.884 33.224 140.918 28.4426 148.049 33.5921C155.418 38.9142 152.159 45.9813 152.711 50.7167C153.352 56.2749 160.412 58.5427 154.272 67.0737C148.814 74.6584 143.672 72.8474 137.224 73.5129C132.025 74.0504 128.986 77.8002 120.594 71.7394Z" fill="#EFEFEF"/>
<path d="M126.189 63.3405C122.157 60.4292 121.245 54.8027 124.15 50.7667C127.055 46.7306 132.672 45.8196 136.704 48.7309C140.735 51.6422 141.647 57.2687 138.743 61.3048C135.843 65.3335 130.22 66.2518 126.189 63.3405Z" fill="#FCCF3F"/>
<path d="M136.259 55.1741C136.289 53.0122 135.355 51.0899 133.702 49.8961C133.392 49.6726 132.935 49.7665 132.693 50.1031C132.45 50.4398 132.506 50.9043 132.815 51.1278C134.114 52.0654 134.847 53.5808 134.823 55.2726C134.816 55.6799 135.136 55.9853 135.532 55.9599C135.929 55.9346 136.252 55.5814 136.259 55.1741Z" fill="#FFDD88"/>
<path d="M102 188.94C102 197.523 96.9246 207.134 88.3465 209.178C81.4244 210.828 79.3514 218 71.5 218C61.8139 218 57.2865 210.541 51.6988 203.823C47.5766 198.874 41 200.356 41 188.94C41 177.142 50.9125 175.218 55.4756 171.046C60.8369 166.157 57.8584 157 71.5 157C83.6285 157 85.6301 163.79 91.2297 170.077C95.7451 175.146 102 175.504 102 188.94Z" fill="#EFEFEF"/>
<path d="M89 189C89 195.63 83.6303 201 77 201C70.3697 201 65 195.63 65 189C65 182.37 70.3697 177 77 177C83.6182 177 89 182.37 89 189Z" fill="#FCCF3F"/>
<path d="M72.4775 184.191C70.2646 185.842 69 188.35 69 191.069C69 191.578 69.43 192 69.9484 192C70.4669 192 70.8968 191.578 70.8968 191.069C70.8968 188.934 71.8958 186.96 73.6283 185.668C74.0456 185.358 74.1215 184.775 73.8053 184.365C73.4892 183.955 72.8948 183.881 72.4775 184.191Z" fill="#FFDD88"/>
<path d="M175.889 101.697C181.337 102.348 187.055 106.299 187.704 111.9C188.228 116.419 192.624 118.28 192.03 123.264C191.298 129.413 186.221 131.722 181.533 134.76C178.08 137.001 178.524 141.289 171.277 140.423C163.787 139.528 163.314 133.089 161.011 129.876C158.313 126.101 152.275 127.297 153.306 118.637C154.223 110.937 158.685 110.181 163.099 107.103C166.658 104.621 167.359 100.677 175.889 101.697Z" fill="#EFEFEF"/>
<path d="M175.221 109.995C179.335 110.487 182.271 114.217 181.781 118.332C181.291 122.447 177.562 125.382 173.447 124.89C169.332 124.398 166.397 120.667 166.887 116.553C167.376 112.445 171.106 109.503 175.221 109.995Z" fill="#FCCF3F"/>
<path d="M170.365 119.942C171.233 121.383 172.7 122.323 174.387 122.524C174.703 122.562 174.995 122.337 175.032 122.028C175.069 121.719 174.837 121.432 174.521 121.394C173.196 121.236 172.042 120.494 171.364 119.366C171.201 119.095 170.844 119.006 170.567 119.164C170.291 119.322 170.202 119.671 170.365 119.942Z" fill="#FFDD88"/>
<path d="M51.8721 148.046C48.6244 149.397 44.1591 148.911 41.9853 145.856C40.2311 143.39 37.1787 143.703 35.897 140.612C34.3157 136.798 36.3991 133.841 38.029 130.583C39.2287 128.181 37.5942 125.825 41.9139 124.028C46.3783 122.171 48.7248 125.771 51.0483 126.911C53.7736 128.252 56.7521 125.638 58.9791 131.009C60.9591 135.784 58.7166 137.641 57.2515 140.836C56.0708 143.411 56.9562 145.93 51.8721 148.046Z" fill="#EFEFEF"/>
<path d="M49.2137 143.158C46.663 144.219 43.7403 143.012 42.6822 140.46C41.6241 137.908 42.8329 134.982 45.3836 133.921C47.9343 132.859 50.8569 134.067 51.915 136.619C52.9712 139.166 51.7643 142.097 49.2137 143.158Z" fill="#FCCF3F"/>
<path d="M48.4666 135.312C47.5559 134.733 46.4939 134.627 45.5525 135.018C45.3763 135.092 45.296 135.311 45.3754 135.503C45.4549 135.694 45.6669 135.792 45.8431 135.719C46.5824 135.412 47.4189 135.496 48.1314 135.95C48.3028 136.06 48.5164 136.004 48.6098 135.828C48.7033 135.652 48.638 135.422 48.4666 135.312Z" fill="#FFDD88"/>
<path d="M208.872 171.046C205.624 172.397 201.159 171.911 198.985 168.856C197.231 166.39 194.179 166.703 192.897 163.612C191.316 159.798 193.399 156.841 195.029 153.583C196.229 151.181 194.594 148.825 198.914 147.028C203.378 145.171 205.725 148.771 208.048 149.911C210.774 151.252 213.752 148.638 215.979 154.009C217.959 158.784 215.717 160.641 214.252 163.836C213.071 166.411 213.956 168.93 208.872 171.046Z" fill="#EFEFEF"/>
<path d="M206.214 166.158C203.663 167.219 200.74 166.012 199.682 163.46C198.624 160.908 199.833 157.982 202.384 156.921C204.934 155.859 207.857 157.067 208.915 159.619C209.971 162.166 208.764 165.097 206.214 166.158Z" fill="#FCCF3F"/>
<path d="M205.467 158.312C204.556 157.733 203.494 157.627 202.553 158.018C202.376 158.092 202.296 158.311 202.375 158.503C202.455 158.694 202.667 158.792 202.843 158.719C203.582 158.412 204.419 158.496 205.131 158.95C205.303 159.06 205.516 159.004 205.61 158.828C205.703 158.652 205.638 158.422 205.467 158.312Z" fill="#FFDD88"/>
</svg>
