<svg width="128" height="128" viewBox="0 0 128 128" fill="none" xmlns="http://www.w3.org/2000/svg">
<path d="M32.5803 46.501C32.5803 63.5769 46.4236 77.4192 63.5001 77.4186C80.5766 77.418 94.4199 63.5748 94.4199 46.4988C94.4199 29.4229 80.5767 15.5806 63.5001 15.5812C46.4236 15.5818 32.5803 29.425 32.5803 46.501Z" fill="#B72323"/>
<path fill-rule="evenodd" clip-rule="evenodd" d="M90.8396 46.499C90.8396 31.4003 78.5993 19.1607 63.5 19.1612C48.4007 19.1617 36.1604 31.402 36.1604 46.5008C36.1604 61.5995 48.4007 73.839 63.5 73.8386C78.5993 73.8381 90.8396 61.5978 90.8396 46.499ZM63.5 12.0011C82.5538 12.0005 98 27.4456 98 46.4988C98 65.552 82.5538 80.9981 63.5 80.9987C44.4462 80.9993 29 65.5541 29 46.501C29 27.4478 44.4462 12.0017 63.5 12.0011Z" fill="black"/>
<path d="M25 71.5027C25 92.7657 42.237 110.002 63.5 110.001C84.763 110.001 102 92.763 102 71.5C102 50.237 84.763 33.0006 63.5 33.0013C42.237 33.0021 25 50.2397 25 71.5027Z" fill="#2AA34C"/>
<path fill-rule="evenodd" clip-rule="evenodd" d="M98.9989 66.2389C98.9614 68.9573 97.9998 71.7625 96.468 73.2945C94.2972 75.4657 93.3427 79.6221 95.0082 82.7155C96.1681 84.8698 96.1826 87.4141 94.7862 89.5721C93.4032 91.7095 90.7581 93.2903 86.9328 93.8788C83.6974 94.3765 81.7051 95.9697 79.8572 97.9826C79.3027 98.5867 78.8137 99.1663 78.3054 99.7688C77.9053 100.243 77.4933 100.731 77.0281 101.257C76.0318 102.382 74.9252 103.513 73.5753 104.488C70.8566 106.451 68.4362 106.92 66.1755 106.417C64.0187 105.938 62.1628 104.597 60.5205 103.365C59.0895 102.292 57.0379 101.644 54.7823 101.448C52.5376 101.252 50.2043 101.516 48.2892 102.154C48.2376 102.171 48.186 102.189 48.1342 102.206C47.1682 102.528 46.1673 102.862 45.2148 103.04C44.1955 103.23 43.1126 103.267 42.0523 102.867C39.9011 102.054 38.4571 99.7035 37.3389 95.5105C36.465 92.2332 36.1301 89.087 35.8547 86.4997C35.7719 85.7215 35.6944 84.9939 35.6093 84.3285C35.4194 82.8437 35.1999 81.7226 34.8586 80.9249C34.5355 80.1699 34.1633 79.8359 33.6959 79.6921C31.4243 78.9932 29.9395 77.3476 29.087 75.3686C28.2449 73.4137 27.9972 71.0983 28.158 68.8699C28.3191 66.6362 28.8969 64.401 29.7931 62.5751C30.6697 60.7891 31.9517 59.1977 33.6395 58.5839C35.0491 58.0713 35.7883 57.5284 36.1998 57.0238C36.5971 56.5366 36.7805 55.9738 36.8535 55.2139C36.9068 54.66 36.8981 54.1035 36.8877 53.443C36.8825 53.1116 36.8769 52.754 36.8785 52.3575C36.883 51.235 36.955 49.9542 37.3422 48.5604C38.1379 45.6958 40.1836 43.614 42.2384 42.269C44.262 40.9445 46.4981 40.2032 47.9149 40.2032C50.213 40.2032 53.181 40.1437 55.0025 37.6392C56.4556 35.6411 59.3154 34.9306 61.8718 34.9671C64.464 35.0042 67.3145 35.8097 69.0032 37.4984C70.2774 38.7726 71.3544 39.4107 72.6108 39.7613C73.9262 40.1284 75.5078 40.2032 77.8756 40.2032C80.4361 40.2032 82.7973 40.8817 84.6142 42.3352C86.4476 43.8019 87.6215 45.9749 87.9294 48.7465C88.1903 51.0944 88.7605 52.6741 89.8428 54.0871C90.96 55.5456 92.6846 56.9106 95.4435 58.7039C98.1282 60.449 99.0367 63.4899 98.9989 66.2389ZM96.6315 66.2063C96.6629 63.9203 95.9071 61.8291 94.1532 60.689C91.3638 58.8759 89.3431 57.3281 87.9633 55.5269C86.5487 53.6802 85.8702 51.6535 85.5763 49.0079C85.3294 46.7861 84.4227 45.214 83.1352 44.184C81.8311 43.1408 80.0312 42.5709 77.8756 42.5709C75.5274 42.5709 73.6413 42.507 71.9744 42.0418C70.2487 41.5602 68.8289 40.6725 67.329 39.1726C66.2436 38.0871 64.1006 37.3669 61.838 37.3345C59.5397 37.3017 57.6834 37.9783 56.9173 39.0318C54.3414 42.5736 50.1888 42.5718 48.0177 42.5709C47.9829 42.5709 47.9486 42.5709 47.9149 42.5709C47.1124 42.5709 45.3259 43.0779 43.5351 44.25C41.7754 45.4018 40.2148 47.065 39.6234 49.194C39.3171 50.297 39.2503 51.3396 39.2461 52.3671C39.245 52.648 39.2494 52.9439 39.2539 53.2463C39.2649 53.9804 39.2765 54.7524 39.2103 55.4405C39.11 56.4838 38.8251 57.5508 38.0347 58.5201C37.2586 59.4718 36.0905 60.212 34.4486 60.809C33.6053 61.1157 32.6861 62.0546 31.9185 63.6183C31.1706 65.1421 30.6612 67.076 30.5195 69.0403C30.3773 71.01 30.6109 72.9216 31.2615 74.432C31.9018 75.9183 32.921 76.9765 34.3922 77.4292C35.7279 77.8402 36.5348 78.8239 37.0353 79.9934C37.5175 81.1204 37.7663 82.5306 37.9578 84.0281C38.053 84.7719 38.1363 85.5529 38.2232 86.3668C38.4967 88.9301 38.805 91.8193 39.6266 94.9004C40.7278 99.0298 41.9192 100.286 42.889 100.652C43.389 100.841 43.988 100.861 44.7805 100.713C45.5681 100.566 46.4279 100.279 47.4584 99.9355L47.5405 99.9081C49.7866 99.1594 52.4468 98.868 54.9875 99.0889C57.5173 99.3089 60.043 100.048 61.941 101.471C63.6277 102.736 65.1007 103.753 66.6891 104.106C68.1734 104.436 69.9142 104.211 72.189 102.568C73.3358 101.74 74.3098 100.755 75.2554 99.6873C75.6274 99.2671 76.0233 98.7994 76.4278 98.3215C76.9865 97.6616 77.5616 96.9822 78.1131 96.3815C80.149 94.1638 82.5953 92.1506 86.5728 91.5387C89.9606 91.0175 91.8928 89.6855 92.7984 88.2859C93.6908 86.9069 93.7053 85.29 92.9235 83.8379C90.7056 79.7185 91.972 74.4428 94.7937 71.6205C95.7581 70.6559 96.5995 68.523 96.6315 66.2063Z" fill="#10752C"/>
<path fill-rule="evenodd" clip-rule="evenodd" d="M73.5326 46.8057C75.2593 47.8345 76.7324 49.503 77.1642 51.1162C77.7012 53.1225 79.8293 55.0926 82.1882 55.162C84.058 55.2169 85.7616 56.1837 86.6618 57.9448C87.5508 59.6839 87.5635 62.0028 86.5322 64.6536C85.717 66.7488 85.9729 68.4768 86.5493 70.313C86.726 70.876 86.9053 71.3728 87.094 71.8956C87.2447 72.3132 87.4014 72.7473 87.5675 73.2449C87.9129 74.2796 88.2269 75.4012 88.3518 76.6269C88.604 79.1014 88.0074 80.8764 86.8068 82.1857C85.6782 83.4166 84.1104 84.1142 82.7608 84.6913C81.654 85.1645 80.5574 86.1577 79.6467 87.46C78.7422 88.7534 78.0868 90.2592 77.8054 91.6329C77.7971 91.6734 77.7888 91.714 77.7805 91.7548C77.6352 92.4657 77.479 93.2299 77.2393 93.9092C76.9804 94.6427 76.5872 95.3929 75.8918 95.9625C74.4757 97.1223 72.343 97.131 69.323 96.3185C66.9419 95.6779 64.8302 94.7411 63.1194 93.9822C62.6103 93.7563 62.1367 93.5462 61.702 93.3643C60.7116 92.9499 59.9725 92.7007 59.4038 92.6327C58.8811 92.5702 58.6492 92.6745 58.485 92.8271C57.1475 94.0704 55.4858 94.4193 53.8729 94.2304C52.286 94.0445 50.706 93.3403 49.3471 92.4192C47.9837 91.4951 46.7687 90.3028 45.9285 89.0495C45.1129 87.8331 44.5297 86.3732 44.7766 84.9777C44.9584 83.9499 44.8801 83.3607 44.7429 82.9991C44.6137 82.6587 44.3838 82.3903 43.97 82.0952C43.6595 81.8738 43.3347 81.6931 42.9318 81.469C42.7214 81.3519 42.4897 81.223 42.2276 81.0703C41.5192 80.6575 40.7195 80.1351 39.9616 79.363C38.39 77.7618 37.8133 75.6515 37.7125 73.8397C37.6136 72.0649 37.9593 70.3354 38.5117 69.3787C39.349 67.9284 40.2747 66.206 39.4484 64.346C38.661 62.5734 39.3134 60.4133 40.2735 58.8038C41.252 57.1635 42.8378 55.5981 44.6113 55.1221C45.8188 54.7981 46.5485 54.381 47.1695 53.7724C47.8341 53.1212 48.4292 52.201 49.2817 50.7244C50.2305 49.0811 51.5539 47.794 53.1973 47.1513C54.8604 46.5008 56.7266 46.5601 58.6332 47.3953C60.1491 48.0593 61.2747 48.2535 62.4666 48.0971C63.7153 47.9333 65.1415 47.3732 67.2445 46.3019C69.4344 45.1863 71.7796 45.7611 73.5326 46.8057ZM72.3207 48.8396C70.966 48.0323 69.5198 47.7999 68.3192 48.4115C66.1839 49.4993 64.4514 50.2247 62.7745 50.4447C61.0407 50.6721 59.4736 50.3482 57.6833 49.564C56.2837 48.9509 55.0718 48.9604 54.0597 49.3563C53.0278 49.7598 52.0787 50.6152 51.3322 51.9082C50.4894 53.3679 49.7517 54.557 48.8265 55.4635C47.8577 56.4129 46.7406 57.0021 45.2249 57.4089C44.2752 57.6637 43.1167 58.6592 42.3068 60.0167C41.4787 61.4051 41.2988 62.6794 41.6121 63.3848C42.9595 66.4176 41.3871 69.1362 40.6096 70.4804C40.5934 70.5084 40.5776 70.5357 40.5621 70.5625C40.3167 70.9876 39.9931 72.211 40.0764 73.708C40.1577 75.168 40.6148 76.6484 41.6514 77.7045C42.1976 78.2611 42.7935 78.6597 43.4197 79.0246C43.5816 79.119 43.7594 79.2181 43.9444 79.3213C44.4114 79.5817 44.9244 79.8678 45.3448 80.1676C45.9906 80.6282 46.6064 81.2368 46.9564 82.159C47.2984 83.06 47.3328 84.1192 47.108 85.39C47.0176 85.901 47.2175 86.7206 47.895 87.7311C48.5478 88.7047 49.5359 89.6869 50.6755 90.4594C51.8196 91.2349 53.0425 91.7493 54.1483 91.8788C55.228 92.0053 56.1486 91.7664 56.873 91.093C57.7023 90.3222 58.714 90.1657 59.6848 90.2818C60.6095 90.3923 61.6137 90.7608 62.6159 91.1802C63.1236 91.3926 63.6464 91.6243 64.1885 91.8646C65.8777 92.6131 67.7532 93.4444 69.9381 94.0322C72.8939 94.8274 73.9523 94.4906 74.3916 94.1308C74.6239 93.9405 74.8245 93.6374 75.0066 93.1213C75.1905 92.6001 75.3172 91.9814 75.4767 91.2027L75.4859 91.1578C75.8374 89.4424 76.6318 87.6398 77.7064 86.1032C78.7748 84.5754 80.1866 83.2169 81.83 82.5143C83.2304 81.9155 84.3264 81.3875 85.0618 80.5855C85.7253 79.8619 86.193 78.797 85.9964 76.8669C85.8969 75.8905 85.6428 74.9568 85.3217 73.9946C85.2001 73.6303 85.0532 73.2205 84.9016 72.7973C84.6884 72.2023 84.4657 71.5808 84.2903 71.0221C83.6307 68.9205 83.2384 66.5895 84.3257 63.7951C85.1967 61.5563 85.0426 59.979 84.5537 59.0225C84.076 58.0881 83.1907 57.5601 82.1186 57.5286C78.594 57.425 75.6521 54.6241 74.877 51.7284C74.6528 50.8905 73.7018 49.6626 72.3207 48.8396Z" fill="#10752C"/>
<path fill-rule="evenodd" clip-rule="evenodd" d="M69.2689 57.1456C70.2962 57.7577 71.2238 58.7744 71.5079 59.836C71.7497 60.7392 72.7368 61.6356 73.7717 61.666C74.9795 61.7016 76.1005 62.332 76.6907 63.4865C77.2695 64.6189 77.2447 66.0611 76.6415 67.6115C76.2544 68.6063 76.3645 69.421 76.6627 70.371C76.7603 70.6819 76.8505 70.9311 76.9488 71.2024C77.0306 71.4282 77.1179 71.6693 77.2197 71.9742C77.415 72.5595 77.6013 73.2185 77.6757 73.9488C77.8268 75.432 77.4697 76.568 76.6887 77.4198C75.9795 78.1931 75.0112 78.615 74.2804 78.9275C73.7926 79.1361 73.2604 79.6001 72.7951 80.2655C72.3359 80.922 72.0068 81.6833 71.8678 82.3619C71.8627 82.3868 71.8576 82.412 71.8524 82.4376C71.7743 82.8199 71.6816 83.2743 71.537 83.684C71.3774 84.1363 71.1178 84.6495 70.6311 85.0481C69.6325 85.8659 68.218 85.7969 66.5427 85.3462C65.1885 84.9818 63.9729 84.4423 63.0297 84.0236C62.7576 83.9029 62.5081 83.7921 62.2845 83.6986C61.7425 83.4718 61.3958 83.3616 61.1631 83.3338C61.1105 83.3275 61.0765 83.3266 61.0562 83.3273C60.1876 84.1183 59.1191 84.3292 58.1228 84.2125C57.1419 84.0976 56.1926 83.6677 55.397 83.1284C54.5969 82.586 53.8777 81.8831 53.3734 81.131C52.8938 80.4157 52.4869 79.4687 52.6578 78.5022C52.7481 77.9918 52.6952 77.7735 52.6658 77.696C52.6444 77.6397 52.6049 77.5687 52.4295 77.4437C52.2822 77.3386 52.1407 77.2601 51.9406 77.149C51.8227 77.0835 51.6844 77.0068 51.5125 76.9066C51.1044 76.6688 50.6187 76.3537 50.1544 75.8806C49.1697 74.8774 48.8256 73.5752 48.7658 72.4996C48.7079 71.4611 48.903 70.3961 49.2758 69.7503C49.7541 68.922 50.0963 68.2102 49.7655 67.4655C49.2257 66.2505 49.6909 64.8633 50.2485 63.9284C50.8246 62.9627 51.7928 61.9736 52.9535 61.6621C53.5481 61.5026 53.8622 61.3119 54.1255 61.0539C54.4324 60.7532 54.7275 60.3077 55.1986 59.4919C55.7658 58.5094 56.5778 57.7044 57.6192 57.2971C58.6803 56.8821 59.8538 56.9302 61.0164 57.4395C61.7882 57.7776 62.3078 57.8552 62.8413 57.7852C63.4317 57.7078 64.1471 57.4369 65.2963 56.8515C66.7232 56.1246 68.2152 56.5177 69.2689 57.1456ZM61.0309 83.3305C61.0305 83.3302 61.0336 83.3292 61.0413 83.3283C61.0351 83.3304 61.0313 83.3308 61.0309 83.3305ZM68.0569 59.1795C67.4016 58.789 66.8087 58.7382 66.371 58.9611C65.1895 59.563 64.1678 59.9991 63.1493 60.1327C62.0739 60.2738 61.1127 60.0665 60.0664 59.6082C59.4109 59.321 58.8917 59.3417 58.4816 59.5021C58.0517 59.6702 57.614 60.0435 57.249 60.6757C56.7878 61.4746 56.35 62.189 55.7826 62.745C55.1715 63.3438 54.47 63.7066 53.5671 63.9489C53.2302 64.0393 52.6893 64.4584 52.2819 65.1414C51.8561 65.855 51.8636 66.3565 51.9292 66.5043C52.7823 68.4247 51.7896 70.1355 51.3645 70.8681C51.3512 70.8911 51.3384 70.9131 51.3263 70.9342C51.3263 70.9341 51.3246 70.9371 51.3213 70.9437C51.3181 70.9503 51.3137 70.9596 51.3084 70.9718C51.2978 70.9966 51.2848 71.0303 51.2706 71.0733C51.242 71.1601 51.2125 71.2729 51.1874 71.4086C51.1369 71.6813 51.1101 72.0148 51.1297 72.368C51.17 73.0916 51.3944 73.764 51.8441 74.2221C52.0969 74.4797 52.3787 74.6711 52.7046 74.861C52.7752 74.9021 52.8602 74.9496 52.9535 75.0016C53.2172 75.1486 53.5469 75.3325 53.8043 75.5161C54.2117 75.8066 54.6372 76.2178 54.8794 76.8559C55.1135 77.4728 55.1225 78.161 54.9893 78.9146C54.9748 78.9966 54.9984 79.3031 55.3399 79.8125C55.6567 80.285 56.1491 80.7779 56.7254 81.1685C57.3062 81.5622 57.8984 81.8024 58.3982 81.861C58.872 81.9165 59.2114 81.8098 59.4719 81.5677C60.0775 81.0047 60.8094 80.907 61.4441 80.9829C62.0327 81.0532 62.6446 81.2827 63.1984 81.5144C63.4951 81.6386 63.7938 81.7709 64.0988 81.906C65.0204 82.3143 65.9999 82.7483 67.1579 83.0598C68.7688 83.4932 69.1092 83.2342 69.1309 83.2164C69.1545 83.1971 69.2214 83.131 69.3043 82.8961C69.3925 82.6461 69.4557 82.339 69.5484 81.8867C69.7574 80.8665 70.2256 79.8084 70.8548 78.9086C71.4778 78.0177 72.3251 77.1885 73.3496 76.7505C74.1312 76.4163 74.6277 76.1641 74.9436 75.8196C75.1877 75.5535 75.4159 75.1276 75.3202 74.1887C75.2712 73.7079 75.145 73.2367 74.9738 72.7238C74.9166 72.5522 74.8392 72.3359 74.7568 72.1052C74.6341 71.7619 74.5 71.3869 74.4037 71.0801C74.0222 69.8646 73.7758 68.4471 74.435 66.753C74.8779 65.6146 74.7614 64.914 74.5825 64.5641C74.4149 64.2363 74.1122 64.0447 73.7022 64.0327C71.5016 63.968 69.7006 62.2408 69.2208 60.4482C69.1442 60.1618 68.7387 59.5857 68.0569 59.1795Z" fill="#10752C"/>
<path d="M74.5885 84.3662C74.5885 86.4996 76.318 88.2291 78.4515 88.229C80.5849 88.2289 82.3145 86.4994 82.3145 84.3659C82.3145 82.2324 80.5849 80.503 78.4515 80.5031C76.318 80.5031 74.5885 82.2327 74.5885 84.3662Z" fill="#EEC637"/>
<path d="M77.9596 85.9905C77.9596 86.8983 78.6955 87.6342 79.6033 87.6342C80.5111 87.6342 81.2471 86.8982 81.2471 85.9904C81.2471 85.0826 80.5111 84.3467 79.6033 84.3467C78.6955 84.3468 77.9596 85.0827 77.9596 85.9905Z" fill="#FFE68F"/>
<path d="M45.1823 80.4824C45.1823 82.6158 46.9118 84.3453 49.0452 84.3452C51.1787 84.3452 52.9082 82.6156 52.9082 80.4821C52.9082 78.3487 51.1787 76.6192 49.0452 76.6193C46.9118 76.6193 45.1823 78.3489 45.1823 80.4824Z" fill="#DF2626"/>
<path d="M48.5533 82.1058C48.5533 83.0136 49.2893 83.7495 50.1971 83.7495C51.1049 83.7494 51.8408 83.0135 51.8408 82.1057C51.8408 81.1978 51.1049 80.4619 50.1971 80.462C49.2893 80.462 48.5533 81.198 48.5533 82.1058Z" fill="#FF7878"/>
<path d="M48.5104 57.1787C48.5104 59.3121 50.2399 61.0416 52.3734 61.0415C54.5068 61.0414 56.2363 59.3119 56.2363 57.1784C56.2363 55.0449 54.5068 53.3155 52.3734 53.3156C50.2399 53.3156 48.5104 55.0452 48.5104 57.1787Z" fill="#EEC637"/>
<path d="M51.8815 58.8011C51.8815 59.7089 52.6174 60.4448 53.5252 60.4448C54.433 60.4447 55.1689 59.7088 55.1689 58.801C55.1689 57.8932 54.433 57.1573 53.5252 57.1573C52.6174 57.1573 51.8815 57.8933 51.8815 58.8011Z" fill="#FFE68F"/>
<path d="M57.943 99.9004C57.943 102.034 59.6725 103.763 61.806 103.763C63.9394 103.763 65.6689 102.034 65.6689 99.9001C65.6689 97.7666 63.9394 96.0372 61.806 96.0372C59.6725 96.0373 57.943 97.7669 57.943 99.9004Z" fill="#DF2626"/>
<path d="M61.3131 101.526C61.3131 102.434 62.049 103.169 62.9568 103.169C63.8647 103.169 64.6006 102.433 64.6006 101.526C64.6006 100.618 63.8647 99.8819 62.9568 99.8819C62.049 99.8819 61.3131 100.618 61.3131 101.526Z" fill="#FF7878"/>
<path d="M76.2526 64.3916C76.2526 66.525 77.9821 68.2545 80.1155 68.2544C82.249 68.2543 83.9785 66.5248 83.9785 64.3913C83.9785 62.2578 82.249 60.5284 80.1155 60.5285C77.9821 60.5285 76.2526 62.2581 76.2526 64.3916Z" fill="#DF2626"/>
<path d="M79.6227 66.0149C79.6227 66.9228 80.3586 67.6587 81.2664 67.6586C82.1742 67.6586 82.9102 66.9226 82.9102 66.0148C82.9102 65.107 82.1742 64.3711 81.2664 64.3712C80.3586 64.3712 79.6227 65.1071 79.6227 66.0149Z" fill="#FF7878"/>
<path d="M76.2526 48.3027C76.2526 50.4362 77.9821 52.1656 80.1155 52.1655C82.249 52.1655 83.9785 50.4359 83.9785 48.3024C83.9785 46.169 82.249 44.4395 80.1155 44.4396C77.9821 44.4397 76.2526 46.1692 76.2526 48.3027Z" fill="#EEC637"/>
<path d="M79.6227 49.9261C79.6227 50.8339 80.3586 51.5698 81.2664 51.5698C82.1742 51.5697 82.9102 50.8338 82.9102 49.926C82.9102 49.0182 82.1742 48.2823 81.2664 48.2823C80.3586 48.2823 79.6227 49.0183 79.6227 49.9261Z" fill="#FFE68F"/>
<path d="M32.4215 74.9336C32.4215 77.067 34.151 78.7965 36.2845 78.7964C38.4179 78.7963 40.1475 77.0667 40.1475 74.9333C40.1475 72.7998 38.4179 71.0704 36.2845 71.0704C34.151 71.0705 32.4215 72.8001 32.4215 74.9336Z" fill="#EEC637"/>
<path d="M35.7906 76.556C35.7906 77.4638 36.5266 78.1997 37.4344 78.1996C38.3422 78.1996 39.0781 77.4637 39.0781 76.5558C39.0781 75.648 38.3422 74.9121 37.4344 74.9122C36.5266 74.9122 35.7906 75.6482 35.7906 76.556Z" fill="#FFE68F"/>
<path d="M61.2731 41.6435C61.2731 43.777 63.0026 45.5064 65.136 45.5064C67.2695 45.5063 68.999 43.7767 68.999 41.6432C68.999 39.5098 67.2695 37.7803 65.136 37.7804C63.0026 37.7805 61.2731 39.5101 61.2731 41.6435Z" fill="#DF2626"/>
<path d="M64.6442 43.2669C64.6442 44.1747 65.3801 44.9106 66.2879 44.9106C67.1957 44.9106 67.9316 44.1746 67.9316 43.2668C67.9316 42.359 67.1957 41.6231 66.2879 41.6231C65.3801 41.6231 64.6442 42.3591 64.6442 43.2669Z" fill="#FF7878"/>
<path d="M88.4586 66.6113C88.4586 68.7448 90.1881 70.4742 92.3216 70.4741C94.4551 70.4741 96.1846 68.7445 96.1846 66.611C96.1846 64.4776 94.4551 62.7481 92.3216 62.7482C90.1881 62.7483 88.4586 64.4778 88.4586 66.6113Z" fill="#27D1C7"/>
<path d="M91.8297 68.2357C91.8297 69.1435 92.5656 69.8794 93.4734 69.8793C94.3813 69.8793 95.1172 69.1434 95.1172 68.2355C95.1172 67.3277 94.3813 66.5918 93.4734 66.5919C92.5656 66.5919 91.8297 67.3278 91.8297 68.2357Z" fill="#75F2EB"/>
<path d="M36.861 53.2949C36.861 55.4283 38.5905 57.1578 40.7239 57.1577C42.8574 57.1577 44.5869 55.4281 44.5869 53.2946C44.5869 51.1612 42.8574 49.4317 40.7239 49.4318C38.5905 49.4318 36.861 51.1614 36.861 53.2949Z" fill="#27D1C7"/>
<path d="M40.2301 54.9192C40.2301 55.8271 40.966 56.563 41.8738 56.5629C42.7817 56.5629 43.5176 55.8269 43.5176 54.9191C43.5176 54.0113 42.7817 53.2754 41.8738 53.2754C40.966 53.2755 40.2301 54.0114 40.2301 54.9192Z" fill="#75F2EB"/>
<path d="M71.7725 68.8506L71.7725 72.7344L55.6824 72.7344L55.6824 68.8506L71.7725 68.8506Z" fill="#F5D946"/>
<path d="M66.7803 68.8506L66.7803 72.7344L64.0061 72.7344L64.0061 68.8506L66.7803 68.8506Z" fill="#FFF3B6"/>
<path d="M64.0059 68.8506L64.0059 72.7344L61.2317 72.7344L61.2317 68.8506L64.0059 68.8506Z" fill="#F5A546"/>
<path d="M23.2147 102.497C23.2147 109.28 28.7148 114.78 35.4995 114.782C42.2841 114.783 47.7842 109.285 47.7842 102.502C47.7842 95.7187 42.2841 90.2186 35.4995 90.2173C28.7148 90.2159 23.2147 95.7138 23.2147 102.497Z" fill="#EEC637"/>
<path fill-rule="evenodd" clip-rule="evenodd" d="M35.5 88.0029C43.5081 88.0045 50 94.4964 50 102.503C50 110.509 43.5081 116.999 35.5 116.997C27.4919 116.995 21 110.504 21 102.497C21 94.4905 27.4919 88.0013 35.5 88.0029ZM45.5694 102.502C45.5694 96.942 41.0612 92.4337 35.5 92.4326C29.9388 92.4314 25.4306 96.9379 25.4306 102.498C25.4306 108.058 29.9388 112.566 35.5 112.567C41.0612 112.569 45.5694 108.062 45.5694 102.502Z" fill="black"/>
<path d="M80.2147 102.497C80.2147 109.28 85.7148 114.78 92.4995 114.782C99.2841 114.783 104.784 109.285 104.784 102.502C104.784 95.7187 99.2841 90.2186 92.4995 90.2173C85.7148 90.2159 80.2147 95.7138 80.2147 102.497Z" fill="#EEC637"/>
<path fill-rule="evenodd" clip-rule="evenodd" d="M92.5 88.0029C100.508 88.0045 107 94.4964 107 102.503C107 110.509 100.508 116.999 92.5 116.997C84.4919 116.995 78 110.504 78 102.497C78 94.4905 84.4919 88.0013 92.5 88.0029ZM102.569 102.502C102.569 96.942 98.0612 92.4337 92.5 92.4326C86.9388 92.4314 82.4306 96.9379 82.4306 102.498C82.4306 108.058 86.9388 112.566 92.5 112.567C98.0612 112.569 102.569 108.062 102.569 102.502Z" fill="black"/>
</svg>
