<svg width="128" height="129" viewBox="0 0 128 129" fill="none" xmlns="http://www.w3.org/2000/svg">
<path d="M116.892 65.7772C116.892 55.621 108.659 47.3862 98.5026 47.3842C88.3465 47.3821 80.1133 55.6137 80.1133 65.7698C80.1133 75.926 88.3465 84.1608 98.5026 84.1628C108.659 84.1649 116.892 75.9333 116.892 65.7772Z" fill="#676767"/>
<path d="M116.888 65.7772C116.888 55.621 108.655 47.3862 98.4987 47.3842C88.3426 47.3821 80.1094 55.6137 80.1094 65.7698C80.1094 75.926 88.3426 84.1608 98.4987 84.1628C108.655 84.1649 116.888 75.9333 116.888 65.7772Z" fill="#E47E99"/>
<path d="M91.7659 84.4568C93.1116 85.7815 97.2154 84.348 98.5406 85.6276L118.193 65.9754C116.891 64.6283 118.261 60.6107 116.949 59.2741L91.7659 84.4568Z" fill="#951B70"/>
<path d="M80.7965 79.4743C82.1155 80.8038 83.4507 82.139 84.7929 83.4671L116.041 52.2188C114.722 50.8893 113.387 49.5541 112.061 48.2316L80.7965 79.4743Z" fill="#951B70"/>
<path d="M78.6321 65.7405C79.9335 67.0876 78.4943 71.1752 79.819 72.5209L105.016 47.3242C103.67 45.9995 99.6524 47.3687 98.3088 46.0637L78.6321 65.7405Z" fill="#951B70"/>
<path d="M91.7639 84.4555C93.1096 85.7801 97.2135 84.3467 98.5386 85.6262L118.191 65.974C116.889 64.627 118.259 60.6093 116.947 59.2728L91.7639 84.4555Z" fill="#951B70"/>
<path fill-rule="evenodd" clip-rule="evenodd" d="M80.8641 65.7717C80.8641 75.524 88.7661 83.4198 98.5 83.4212C108.234 83.4226 116.136 75.5291 116.136 65.7768C116.136 56.0245 108.234 48.1287 98.5 48.1273C88.7661 48.1259 80.8641 56.0194 80.8641 65.7717ZM98.5 91.2743C84.4106 91.2722 73 79.8476 73 65.7705C73 51.6934 84.4106 40.2722 98.5 40.2743C112.589 40.2763 124 51.7009 124 65.778C124 79.8551 112.589 91.2763 98.5 91.2743Z" fill="black"/>
<path d="M11.108 65.7772C11.108 55.621 19.3412 47.3862 29.4974 47.3842C39.6535 47.3821 47.8867 55.6137 47.8867 65.7698C47.8867 75.926 39.6535 84.1608 29.4974 84.1628C19.3412 84.1649 11.108 75.9333 11.108 65.7772Z" fill="#676767"/>
<path d="M11.0416 65.7772C11.0416 55.621 19.2748 47.3862 29.431 47.3842C39.5871 47.3821 47.8203 55.6137 47.8203 65.7698C47.8203 75.926 39.5871 84.1608 29.431 84.1628C19.2748 84.1649 11.0416 75.9333 11.0416 65.7772Z" fill="#25A558"/>
<path d="M35.6662 84.0271C34.3205 85.3518 30.2167 83.9184 28.8915 85.1979L9.23933 65.5457C10.5407 64.1986 9.17161 60.181 10.4836 58.8445L35.6662 84.0271Z" fill="#00E5B9"/>
<path d="M46.6356 79.0446C45.3166 80.3741 43.9814 81.7093 42.6392 83.0374L11.3909 51.7891C12.7099 50.4596 14.045 49.1244 15.371 47.802L46.6356 79.0446Z" fill="#00E5B9"/>
<path d="M48.8001 65.3108C47.4987 66.6579 48.9378 70.7455 47.6131 72.0912L22.4164 46.8945C23.7621 45.5698 27.7798 46.939 29.1233 45.634L48.8001 65.3108Z" fill="#00E5B9"/>
<path d="M35.6682 84.0258C34.3225 85.3504 30.2187 83.917 28.8935 85.1965L9.24128 65.5443C10.5427 64.1973 9.17356 60.1797 10.4855 58.8431L35.6682 84.0258Z" fill="#00E5B9"/>
<path fill-rule="evenodd" clip-rule="evenodd" d="M47.1359 65.7717C47.1359 75.524 39.2339 83.4198 29.5 83.4212C19.7661 83.4226 11.8641 75.5291 11.8641 65.7768C11.8641 56.0245 19.7661 48.1287 29.5 48.1273C39.2339 48.1259 47.1359 56.0194 47.1359 65.7717ZM29.5 91.2743C43.5894 91.2722 55 79.8476 55 65.7705C55 51.6934 43.5894 40.2722 29.5 40.2743C15.4106 40.2763 4 51.7009 4 65.778C4 79.8551 15.4106 91.2763 29.5 91.2743Z" fill="black"/>
</svg>
