<svg width="129" height="129" viewBox="0 0 129 129" fill="none" xmlns="http://www.w3.org/2000/svg">
<mask id="mask0" mask-type="alpha" maskUnits="userSpaceOnUse" x="0" y="0" width="129" height="129">
<rect x="0.201172" y="0.360352" width="128" height="128" fill="#C4C4C4"/>
</mask>
<g mask="url(#mask0)">
<path d="M39.8785 47.2011L39.8785 40.9724L37.6557 40.9724C36.9522 40.9724 36.2469 41.139 35.6163 41.4533C34.5255 41.9996 33.7116 42.9352 33.328 44.0915L32.6582 46.0972C32.7405 46.1739 32.8285 46.2431 32.9071 46.3236L36.0953 49.5118C37.3264 48.683 38.5875 47.9121 39.8785 47.2011Z" fill="white"/>
<path fill-rule="evenodd" clip-rule="evenodd" d="M31.5858 57.9616C40.7127 49.0816 52.764 44.3835 65.517 44.7333C90.5851 45.42 110.978 66.849 110.978 92.5028C110.978 92.9761 110.592 93.3616 110.119 93.3616L18.2846 93.3616C17.8112 93.3616 17.4258 92.9761 17.4258 92.5028L17.4258 91.4905C17.4258 78.7525 22.4551 66.8453 31.5858 57.9616ZM58.7627 79.3161C60.4231 79.3161 61.7691 77.9701 61.7691 76.3097C61.7691 74.6494 60.4231 73.3034 58.7627 73.3034C57.1024 73.3034 55.7564 74.6494 55.7564 76.3097C55.7564 77.9701 57.1024 79.3161 58.7627 79.3161ZM68.5579 86.2346C68.5579 87.895 67.2119 89.241 65.5515 89.241C63.8912 89.241 62.5452 87.895 62.5452 86.2346C62.5452 84.5743 63.8912 83.2283 65.5515 83.2283C67.2119 83.2283 68.5579 84.5743 68.5579 86.2346ZM53.2739 89.2407C54.9343 89.2407 56.2803 87.8947 56.2803 86.2344C56.2803 84.574 54.9343 83.228 53.2739 83.228C51.6136 83.228 50.2676 84.574 50.2676 86.2344C50.2676 87.8947 51.6136 89.2407 53.2739 89.2407ZM74.0512 76.3097C74.0512 77.9701 72.7052 79.3161 71.0448 79.3161C69.3845 79.3161 68.0385 77.9701 68.0385 76.3097C68.0385 74.6494 69.3845 73.3034 71.0448 73.3034C72.7052 73.3034 74.0512 74.6494 74.0512 76.3097ZM77.8336 89.241C79.494 89.241 80.84 87.895 80.84 86.2346C80.84 84.5743 79.494 83.2283 77.8336 83.2283C76.1733 83.2283 74.8273 84.5743 74.8273 86.2346C74.8273 87.895 76.1733 89.241 77.8336 89.241Z" fill="white"/>
<path d="M11.659 72.6418L9.94141 75.2182L9.94141 77.9518L11.8124 81.6938L11.8124 84.5284L14.0727 85.2825C14.5254 81.5498 15.3786 77.9125 16.6247 74.4249C14.8678 74.1274 13.1933 73.5249 11.659 72.6418Z" fill="white"/>
<path d="M17.9728 62.8768L20.6185 60.2312L22.8506 62.4615C23.9134 60.9553 25.0659 59.5034 26.3008 58.1057L21.7149 53.5198L24.3605 50.8741L28.8716 55.3852C28.9072 55.3497 28.9408 55.3122 28.9764 55.2786C30.273 54.0175 31.6277 52.8387 33.0272 51.7367L30.2618 48.9713C28.7219 47.4333 26.6769 46.5857 24.5027 46.5857C22.7515 46.5857 21.0189 47.1639 19.6212 48.2135C17.0729 50.1239 15.5536 53.1643 15.5536 56.3451L15.5536 58.813L11.7404 61.3557C9.71408 62.7066 9.40349 65.8555 11.1248 67.575C13.0108 69.4629 15.4451 70.6061 18.0683 70.8568C18.8634 69.0793 19.7615 67.3467 20.7625 65.6684L17.9728 62.8768Z" fill="white"/>
<path d="M95.1797 51.9385C96.6185 53.0892 97.99 54.3241 99.2997 55.6226L104.047 50.8758L106.692 53.5214L101.867 58.3468C102.791 59.4058 103.667 60.5097 104.505 61.6417L107.787 58.3599L110.432 61.0056L106.69 64.7476L106.55 64.6073C107.828 66.6074 108.975 68.6993 109.976 70.8734C112.736 70.6957 115.308 69.5487 117.282 67.5766C119.004 65.8553 118.693 62.7063 116.667 61.3573L112.855 58.8127L112.855 56.3448C112.855 53.1622 111.336 50.1218 108.79 48.2133C107.39 47.1636 105.656 46.5855 103.906 46.5855C101.732 46.5855 99.687 47.4331 98.149 48.9711L95.1797 51.9385Z" fill="white"/>
<path d="M43.6191 40.1416L43.6191 45.3244C50.4335 42.2821 57.9064 40.7815 65.6188 40.993C72.4144 41.1801 78.8919 42.7761 84.7819 45.4984L84.7819 40.1416C78.4204 37.0226 71.3367 35.3593 64.2005 35.3593C57.0663 35.3593 49.9825 37.0226 43.6191 40.1416Z" fill="white"/>
<path d="M92.1271 49.6917L95.4949 46.3238C95.5754 46.2433 95.6633 46.1741 95.7456 46.0974L95.0777 44.0916C94.6922 42.9353 93.8783 41.998 92.7875 41.4535C92.1551 41.1391 91.4497 40.9726 90.7462 40.9726L88.5234 40.9726L88.5234 47.4333C89.7583 48.1349 90.9577 48.8908 92.1271 49.6917Z" fill="white"/>
<path d="M114.172 84.9962L114.722 84.7212L114.722 80.9791L118.464 79.1081L118.464 75.4259L116.056 73.0178C114.619 73.7457 113.072 74.2321 111.461 74.4698C112.715 77.8358 113.639 81.3552 114.172 84.9962Z" fill="white"/>
</g>
</svg>
