<svg width="128" height="128" viewBox="0 0 128 128" fill="none" xmlns="http://www.w3.org/2000/svg">
<path d="M32 46.5022C32 63.8992 46.103 78.0017 63.5 78.0011C80.897 78.0005 95 63.897 95 46.5C95 29.103 80.897 15.0005 63.5 15.0011C46.103 15.0017 32 29.1052 32 46.5022Z" fill="#C0C0C0"/>
<path fill-rule="evenodd" clip-rule="evenodd" d="M64 12.0012C82.7777 12.0005 98 27.2223 98 46C98 64.7777 82.7777 80.0005 64 80.0012C45.2223 80.0018 30 64.7801 30 46.0024C30 27.2247 45.2223 12.0018 64 12.0012ZM92.8097 46.0002C92.8097 30.089 79.9112 17.1909 64 17.1915C48.0888 17.192 35.1903 30.091 35.1903 46.0022C35.1903 61.9134 48.0888 74.8115 64 74.8109C79.9112 74.8104 92.8097 61.9114 92.8097 46.0002Z" fill="black"/>
<circle cx="63" cy="70" r="41" transform="rotate(90 63 70)" fill="black"/>
<path d="M91.0813 58C85.104 58 79.9943 62.1222 78.5482 67.7166C78.5482 68.2073 78.6446 68.6981 78.6446 69.1888C78.6446 77.8258 71.7996 84.8924 63.3157 85.0887C63.7013 86.0702 64.087 86.9535 64.3762 88.0331C65.6295 92.646 64.9546 97.5534 62.6408 101.676C60.4234 105.602 56.9527 108.35 53 109.724C56.1815 110.509 59.5558 111 63.0265 111C85.4896 111.098 104 93 104 69.6795C103.229 63.1037 97.7335 58 91.0813 58Z" fill="#DF922F"/>
<path d="M40.0636 102.319C46.1159 105.788 53.8441 103.725 57.2893 97.6309C58.9653 94.7243 59.4308 91.2552 58.5928 87.9736C58.1273 86.0047 57.103 84.317 55.8926 82.9106C50.399 80.6604 46.5814 75.2223 46.5814 68.8466C46.5814 66.0338 47.3263 63.5023 48.6299 61.2521C47.6057 61.1583 46.5814 60.9708 45.6503 60.6895C41.2741 59.4707 37.5496 56.6579 35.2218 52.6262C33.6389 49.9072 32.894 47.0006 32.894 44.0003C32.894 42.969 32.9872 41.9376 33.1734 41C26.2831 48.2195 22 57.9705 22 68.7529C22 82.6293 28.9834 94.8181 39.6912 101.944C39.6912 102.131 39.8774 102.225 40.0636 102.319Z" fill="#D93354"/>
<path d="M39.7404 50.3953C41.4619 53.2791 44.2353 55.4186 47.5826 56.2558C49.6866 56.8139 51.8863 56.8139 53.9903 56.3488C56.4768 54.5814 59.5372 53.5581 62.8845 53.5581C68.6227 53.5581 73.5002 56.5349 76.2737 61C79.4297 56.4419 84.7854 53.4651 90.8105 53.4651C95.0185 53.4651 98.9396 54.9535 102 57.3721C96.9312 41 81.3424 29 62.8845 29C55.8074 29 49.1128 30.7674 43.3746 33.8372C38.0189 37.5581 36.3931 44.7209 39.7404 50.3953Z" fill="#65AFCD"/>
<path d="M22 102.495C22 109.399 27.5964 114.996 34.5 114.998C41.4036 114.999 47 109.404 47 102.5C47 95.5964 41.4036 89.9989 34.5 89.9975C27.5964 89.9961 22 95.5914 22 102.495Z" fill="#AA6C23"/>
<path fill-rule="evenodd" clip-rule="evenodd" d="M34.5 87.997C42.5081 87.9987 49 94.4919 49 102.5C49 110.508 42.5081 116.999 34.5 116.997C26.4919 116.995 20 110.502 20 102.494C20 94.4859 26.4919 87.9954 34.5 87.997ZM44.5694 102.499C44.5694 96.9379 40.0612 92.4287 34.5 92.4276C28.9388 92.4265 24.4306 96.9338 24.4306 102.495C24.4306 108.056 28.9388 112.565 34.5 112.566C40.0612 112.568 44.5694 108.06 44.5694 102.499Z" fill="black"/>
<path d="M80 102.495C80 109.399 85.5964 114.996 92.5 114.998C99.4036 114.999 105 109.404 105 102.5C105 95.5964 99.4036 89.9989 92.5 89.9975C85.5964 89.9961 80 95.5914 80 102.495Z" fill="#AA6C23"/>
<path fill-rule="evenodd" clip-rule="evenodd" d="M92.5 87.997C100.508 87.9987 107 94.4919 107 102.5C107 110.508 100.508 116.999 92.5 116.997C84.4919 116.995 78 110.502 78 102.494C78 94.4859 84.4919 87.9954 92.5 87.997ZM102.569 102.499C102.569 96.9379 98.0612 92.4287 92.5 92.4276C86.9388 92.4265 82.4306 96.9338 82.4306 102.495C82.4306 108.056 86.9388 112.565 92.5 112.566C98.0612 112.568 102.569 108.06 102.569 102.499Z" fill="black"/>
</svg>
