<svg width="129" height="129" viewBox="0 0 129 129" fill="none" xmlns="http://www.w3.org/2000/svg">
<path d="M32.6914 47.1233C32.6914 64.5203 46.7944 78.6228 64.1914 78.6222C81.5884 78.6216 95.6914 64.5181 95.6914 47.1211C95.6914 29.7241 81.5884 15.6216 64.1914 15.6222C46.7944 15.6228 32.6914 29.7263 32.6914 47.1233Z" fill="#011919"/>
<path fill-rule="evenodd" clip-rule="evenodd" d="M64.6914 12.6223C83.4691 12.6216 98.6914 27.8434 98.6914 46.6211C98.6914 65.3988 83.4691 80.6216 64.6914 80.6223C45.9137 80.6229 30.6914 65.4011 30.6914 46.6235C30.6914 27.8458 45.9137 12.6229 64.6914 12.6223ZM93.5011 46.6213C93.5011 30.7101 80.6026 17.812 64.6914 17.8125C48.7802 17.8131 35.8817 30.7121 35.8817 46.6233C35.8817 62.5345 48.7802 75.4326 64.6914 75.432C80.6026 75.4315 93.5011 62.5325 93.5011 46.6213Z" fill="black"/>
<path d="M32.7167 40.5668C34.63 31.9307 43.182 26.4809 51.8181 28.3942C52.9332 28.6413 53.9951 28.9986 54.9948 29.4525C57.5485 28.9538 60.1869 28.6925 62.8859 28.6925C64.8694 28.6925 66.8201 28.8336 68.7285 29.1064C65.2343 24.3337 60.051 20.7541 53.8168 19.3729C40.1983 16.3557 26.7125 24.9497 23.6953 38.5681C22.5166 43.8885 23.1123 49.1903 25.0834 53.8517C26.8762 49.5706 29.3751 45.6585 32.4341 42.2608C32.4976 41.6978 32.5914 41.1325 32.7167 40.5668Z" fill="#170404"/>
<path d="M40.2285 21.916L42.8365 27.2269L40.5474 28.3509L37.9395 23.0401L40.2285 21.916Z" fill="url(#paint0_linear)"/>
<path fill-rule="evenodd" clip-rule="evenodd" d="M41.3535 18.6201L46.1337 28.3545L39.4211 31.6507L34.641 21.9164L41.3535 18.6201ZM40.2279 21.918L37.9388 23.042L40.5468 28.3529L42.8358 27.2288L40.2279 21.918Z" fill="url(#paint1_linear)"/>
<path d="M32.0918 27.4629L35.9475 31.9507L35.0182 32.7491L31.1625 28.2613L32.0918 27.4629Z" fill="url(#paint2_linear)"/>
<path fill-rule="evenodd" clip-rule="evenodd" d="M32.3555 23.9873L39.4226 32.2131L34.7554 36.2229L27.6883 27.9971L32.3555 23.9873ZM35.9479 31.9498L32.0922 27.462L31.163 28.2604L35.0187 32.7482L35.9479 31.9498Z" fill="url(#paint3_linear)"/>
<path d="M21.9238 69.6598C21.9238 47.0357 40.2762 28.6953 62.8883 28.6953C85.5004 28.6953 103.853 47.0357 103.853 69.6598C103.853 92.2839 85.5004 110.624 62.8883 110.624C40.2762 110.624 21.9238 92.2839 21.9238 69.6598Z" fill="#320202"/>
<path d="M26.2344 68.4265C26.2344 49.2045 41.965 33.6221 61.3468 33.6221C80.7286 33.6221 96.4592 49.2045 96.4592 68.4265C96.4592 87.6485 80.7286 103.231 61.3468 103.231C41.965 103.231 26.2344 87.6484 26.2344 68.4265Z" fill="#750F0F"/>
<path d="M33.0117 66.8866C33.0117 51.9172 45.0167 39.7822 59.808 39.7822C74.5994 39.7822 86.6044 51.9173 86.6044 66.8866C86.6044 81.8559 74.5994 93.9909 59.808 93.9909C45.0167 93.9909 33.0117 81.8559 33.0117 66.8866Z" fill="#8C3022"/>
<path d="M35.79 60.9921C37.842 51.3417 46.9011 46.9804 49.063 47.4401C51.2248 47.8998 45.675 53.0073 43.623 62.6577C41.571 72.3081 44.4986 79.533 42.3367 79.0733C40.1748 78.6136 33.738 70.6425 35.79 60.9921Z" fill="#B95B5A"/>
<circle cx="63.1959" cy="69.3492" r="16.0162" fill="#051E1D"/>
<circle cx="63.0836" cy="69.3121" r="13.8981" fill="#023C3D"/>
<path d="M72.3594 76.928C68.5748 81.5175 62.5527 82.8021 60.5149 81.1217C58.4771 79.4413 63.5834 77.4016 67.3679 72.812C71.1525 68.2225 72.1822 62.8212 74.22 64.5016C76.2578 66.182 76.1439 72.3385 72.3594 76.928Z" fill="#03464C"/>
<path d="M55.5208 62.8497C59.209 58.4273 64.3467 56.7703 65.3563 57.6123C66.3659 58.4542 61.6819 60.4896 57.9937 64.912C54.3055 69.3344 53.0098 74.4692 52.0002 73.6273C50.9907 72.7853 51.8326 67.2721 55.5208 62.8497Z" fill="#366C6E"/>
<path d="M53.0915 61.2134C54.9987 58.9266 57.5586 57.9182 58.2579 58.5014C58.9572 59.0846 56.7116 60.3551 54.8044 62.642C52.8973 64.9288 52.0507 67.366 51.3513 66.7828C50.652 66.1996 51.1844 63.5003 53.0915 61.2134Z" fill="#6E9B9E"/>
<path d="M63.1954 48.0965C62.6855 48.0965 62.1796 48.1145 61.6784 48.1498C51.1496 48.8929 42.7396 57.3029 41.9965 67.8317C41.9612 68.3329 41.9432 68.8388 41.9432 69.3488C41.9432 69.8587 41.9612 70.3646 41.9965 70.8658C42.7396 81.3946 51.1496 89.8046 61.6784 90.5477C62.1796 90.583 62.6855 90.601 63.1954 90.601C63.7054 90.601 64.2113 90.583 64.7125 90.5477C75.2412 89.8046 83.6513 81.3946 84.3943 70.8658C84.4297 70.3646 84.4477 69.8587 84.4477 69.3488C84.4477 68.8388 84.4297 68.3329 84.3943 67.8317C83.6513 57.3029 75.2412 48.8929 64.7125 48.1498C64.2113 48.1145 63.7054 48.0965 63.1954 48.0965ZM60.8194 66.9727L46.8649 66.9727C47.9046 59.7621 53.6087 54.0579 60.8194 53.0183L60.8194 66.9727ZM65.5715 66.9727L65.5715 53.0183C72.7821 54.0579 78.4863 59.7621 79.5259 66.9727L65.5715 66.9727ZM60.8194 85.6793C53.6087 84.6396 47.9046 78.9355 46.8649 71.7248L60.8194 71.7248L60.8194 85.6793ZM79.5259 71.7248C78.4863 78.9355 72.7821 84.6396 65.5715 85.6793L65.5715 71.7248L79.5259 71.7248Z" fill="url(#paint4_linear)" stroke="url(#paint5_linear)" stroke-width="1.84802"/>
<path d="M26.2344 60.7266L26.2344 79.2068L23.1543 79.2068L23.1543 60.7266L26.2344 60.7266Z" fill="url(#paint6_linear)"/>
<path fill-rule="evenodd" clip-rule="evenodd" d="M28.6992 58.2627L28.6992 81.671L20.6911 81.671L20.6911 58.2627L28.6992 58.2627ZM26.2352 60.7267L23.1552 60.7267L23.1552 79.2069L26.2352 79.2069L26.2352 60.7267Z" fill="url(#paint7_linear)"/>
<path d="M103.127 60.7266L103.127 79.2068L99.4309 79.2068L99.4309 60.7266L103.127 60.7266Z" fill="url(#paint8_linear)"/>
<path fill-rule="evenodd" clip-rule="evenodd" d="M105.592 58.2627L105.592 81.671L96.9677 81.671L96.9677 58.2627L105.592 58.2627ZM103.128 60.7267L99.4317 60.7267L99.4317 79.2069L103.128 79.2069L103.128 60.7267Z" fill="url(#paint9_linear)"/>
<path d="M33.7341 98.3541C28.5754 97.9207 27.1984 102.697 27.5079 107.516C27.8174 112.335 31.1067 116.046 34.8548 115.805C38.3727 115.579 41.0443 111.952 41.1035 107.523C42.1385 107.514 43.2901 107.226 43.6794 106.742C44.6438 105.545 42.8582 103.475 42.0087 102.881C41.7068 102.669 41.5164 102.345 41.2907 101.96C40.8815 101.263 40.3562 100.367 38.8393 99.5896C38.6165 99.4753 38.2259 99.5359 37.8092 99.7465C36.6265 98.7817 35.2162 98.2589 33.7341 98.3541Z" fill="#FFB52E"/>
<path d="M41.0921 98.0288C41.0921 99.3985 39.9818 100.509 38.6121 100.509H30.6187C29.249 100.509 28.1387 99.3985 28.1387 98.0288V92.2339H38.6121C39.9818 92.2339 41.0921 93.3442 41.0921 94.7139V98.0288Z" fill="#D89531"/>
<path d="M40.9754 97.2998H28.1621L28.1622 91.9265H38.4954C39.8651 91.9265 40.9754 93.0368 40.9754 94.4065V97.2998Z" fill="#B7781A"/>
<path fill-rule="evenodd" clip-rule="evenodd" d="M45.317 98.3919C45.317 98.9906 45.2329 99.5712 45.0754 100.122C45.6269 100.576 46.2978 101.211 46.854 101.99C47.2842 102.592 47.8569 103.57 48.036 104.844C48.2391 106.287 47.8867 107.822 46.8614 109.105C46.257 109.861 45.5449 110.35 44.8473 110.664C43.6828 115.174 40.4123 119.26 35.1399 119.601C31.6664 119.825 28.704 118.174 26.7159 115.914C24.732 113.658 23.5284 110.634 23.3224 107.401C23.1753 105.093 23.5472 102.809 24.3943 100.78C24.0905 100.041 23.9239 99.234 23.9239 98.3919V94.9168C23.9239 91.4955 26.6921 88.6211 30.2309 88.6211H39.0099C42.5488 88.6211 45.317 91.4955 45.317 94.9168V98.3919ZM40.7724 99.0562C40.5949 99.5342 40.2314 99.9206 39.7708 100.126C40.3454 100.658 40.675 101.247 40.9305 101.772C40.9802 101.874 41.027 101.974 41.0724 102.071L41.0726 102.071C41.1609 102.259 41.2434 102.435 41.3294 102.591C41.4599 102.829 41.5983 103.022 41.7773 103.148C41.9056 103.239 42.0562 103.351 42.2152 103.481C42.2898 103.541 42.3662 103.606 42.4431 103.673C43.2531 104.387 44.1159 105.467 43.3964 106.367C43.3733 106.396 43.3485 106.424 43.3221 106.449C42.8108 106.951 41.7068 106.89 40.8948 106.544C40.9576 108.135 40.6775 109.638 40.1362 110.932C39.1181 113.365 37.176 115.059 34.8525 115.21C31.2238 115.444 28.039 111.824 27.7394 107.123C27.6758 106.126 27.7471 105.161 27.9335 104.256C28.257 102.686 28.9272 101.298 29.841 100.247C29.2136 100.113 28.7014 99.665 28.4751 99.0736C28.3941 98.862 28.3497 98.6322 28.3497 98.3919V94.9168C28.3497 93.87 29.1921 93.0213 30.2309 93.0213H39.0099C40.0488 93.0213 40.8912 93.87 40.8912 94.9168V98.3919C40.8912 98.6256 40.8492 98.8495 40.7724 99.0562Z" fill="black"/>
<path d="M95.6487 97.3541C100.807 96.9207 102.184 101.697 101.875 106.516C101.565 111.335 98.2761 115.046 94.528 114.805C91.0102 114.579 88.3385 110.952 88.2793 106.523C87.2443 106.514 86.0927 106.226 85.7034 105.742C84.739 104.545 86.5246 102.475 87.3741 101.881C87.676 101.669 87.8664 101.345 88.0921 100.96C88.5013 100.263 89.0266 99.3674 90.5435 98.5896C90.7663 98.4753 91.1569 98.5359 91.5736 98.7465C92.7563 97.7817 94.1667 97.2589 95.6487 97.3541Z" fill="#FFB52E"/>
<path d="M88.2907 97.0288C88.2907 98.3985 89.401 99.5088 90.7707 99.5088H98.7641C100.134 99.5088 101.244 98.3985 101.244 97.0288V91.2339H90.7707C89.401 91.2339 88.2907 92.3442 88.2907 93.7139V97.0288Z" fill="#D89531"/>
<path d="M88.4074 96.2998H101.221L101.221 90.9265H90.8874C89.5177 90.9265 88.4074 92.0368 88.4074 93.4065V96.2998Z" fill="#B7781A"/>
<path fill-rule="evenodd" clip-rule="evenodd" d="M84.0659 97.3919C84.0659 97.9906 84.1499 98.5712 84.3074 99.1218C83.7559 99.5763 83.085 100.211 82.5288 100.99C82.0986 101.592 81.5259 102.57 81.3468 103.844C81.1437 105.287 81.4961 106.822 82.5214 108.105C83.1258 108.861 83.8379 109.35 84.5355 109.664C85.7 114.174 88.9706 118.26 94.2429 118.601C97.7164 118.825 100.679 117.174 102.667 114.914C104.651 112.658 105.854 109.634 106.06 106.401C106.207 104.093 105.836 101.809 104.989 99.7801C105.292 99.0412 105.459 98.234 105.459 97.3919V93.9168C105.459 90.4955 102.691 87.6211 99.1519 87.6211H90.3729C86.8341 87.6211 84.0659 90.4955 84.0659 93.9168V97.3919ZM88.6104 98.0562C88.7879 98.5342 89.1514 98.9206 89.612 99.1261C89.0374 99.6578 88.7078 100.247 88.4523 100.772C88.4026 100.874 88.3558 100.974 88.3104 101.071L88.3102 101.071C88.2219 101.259 88.1394 101.435 88.0534 101.591C87.923 101.829 87.7845 102.022 87.6056 102.148C87.4772 102.239 87.3266 102.351 87.1676 102.481C87.093 102.541 87.0166 102.606 86.9397 102.673C86.1297 103.387 85.2669 104.467 85.9864 105.367C86.0095 105.396 86.0343 105.424 86.0607 105.449C86.572 105.951 87.676 105.89 88.488 105.544C88.4252 107.135 88.7053 108.638 89.2466 109.932C90.2647 112.365 92.2068 114.059 94.5303 114.21C98.1591 114.444 101.344 110.824 101.643 106.123C101.707 105.126 101.636 104.161 101.449 103.256C101.126 101.686 100.456 100.298 99.5418 99.2467C100.169 99.1133 100.681 98.665 100.908 98.0736C100.989 97.862 101.033 97.6322 101.033 97.3919V93.9168C101.033 92.87 100.191 92.0213 99.1519 92.0213H90.3729C89.334 92.0213 88.4917 92.87 88.4917 93.9168V97.3919C88.4917 97.6256 88.5336 97.8495 88.6104 98.0562Z" fill="black"/>
<defs>
<linearGradient id="paint0_linear" x1="42.3004" y1="26.5485" x2="39.184" y2="27.0293" gradientUnits="userSpaceOnUse">
<stop stop-color="#FAA70E"/>
<stop offset="0.447917" stop-color="#FFD17B"/>
<stop offset="1" stop-color="#FCB93D"/>
</linearGradient>
<linearGradient id="paint1_linear" x1="40.1831" y1="22.705" x2="37.9742" y2="25.4892" gradientUnits="userSpaceOnUse">
<stop stop-color="#AE7100"/>
<stop offset="0.536458" stop-color="#E09100"/>
<stop offset="1" stop-color="#AE7100"/>
</linearGradient>
<linearGradient id="paint2_linear" x1="35.3303" y1="31.3666" x2="34.0008" y2="32.2011" gradientUnits="userSpaceOnUse">
<stop stop-color="#FAA70E"/>
<stop offset="0.447917" stop-color="#FFD17B"/>
<stop offset="1" stop-color="#FCB93D"/>
</linearGradient>
<linearGradient id="paint3_linear" x1="32.3987" y1="28.1041" x2="31.3032" y2="29.5861" gradientUnits="userSpaceOnUse">
<stop stop-color="#AE7100"/>
<stop offset="0.536458" stop-color="#E09100"/>
<stop offset="1" stop-color="#AE7100"/>
</linearGradient>
<linearGradient id="paint4_linear" x1="77.7156" y1="51.9245" x2="52.6683" y2="86.41" gradientUnits="userSpaceOnUse">
<stop stop-color="#FAA70E"/>
<stop offset="0.447917" stop-color="#FFD17B"/>
<stop offset="1" stop-color="#FCB93D"/>
</linearGradient>
<linearGradient id="paint5_linear" x1="47.5862" y1="55.1916" x2="78.8046" y2="83.5059" gradientUnits="userSpaceOnUse">
<stop stop-color="#AE7100"/>
<stop offset="0.536458" stop-color="#E09100"/>
<stop offset="1" stop-color="#AE7100"/>
</linearGradient>
<linearGradient id="paint6_linear" x1="26.0144" y1="76.5668" x2="22.0813" y2="76.0906" gradientUnits="userSpaceOnUse">
<stop stop-color="#FAA70E"/>
<stop offset="0.447917" stop-color="#FFD17B"/>
<stop offset="1" stop-color="#FCB93D"/>
</linearGradient>
<linearGradient id="paint7_linear" x1="25.7677" y1="62.8718" x2="21.1703" y2="63.7166" gradientUnits="userSpaceOnUse">
<stop stop-color="#AE7100"/>
<stop offset="0.536458" stop-color="#E09100"/>
<stop offset="1" stop-color="#AE7100"/>
</linearGradient>
<linearGradient id="paint8_linear" x1="102.863" y1="76.5668" x2="98.173" y2="75.8855" gradientUnits="userSpaceOnUse">
<stop stop-color="#FAA70E"/>
<stop offset="0.447917" stop-color="#FFD17B"/>
<stop offset="1" stop-color="#FCB93D"/>
</linearGradient>
<linearGradient id="paint9_linear" x1="102.567" y1="62.8718" x2="97.1281" y2="64.0711" gradientUnits="userSpaceOnUse">
<stop stop-color="#AE7100"/>
<stop offset="0.536458" stop-color="#E09100"/>
<stop offset="1" stop-color="#AE7100"/>
</linearGradient>
</defs>
</svg>
