<svg width="129" height="129" viewBox="0 0 129 129" fill="none" xmlns="http://www.w3.org/2000/svg">
<path d="M32.6309 47.1233C32.6309 64.5203 46.7339 78.6228 64.1309 78.6222C81.5278 78.6216 95.6309 64.5181 95.6309 47.1211C95.6309 29.7241 81.5278 15.6216 64.1309 15.6222C46.7339 15.6228 32.6309 29.7263 32.6309 47.1233Z" fill="url(#paint0_linear)"/>
<path fill-rule="evenodd" clip-rule="evenodd" d="M64.6309 12.6223C83.4085 12.6216 98.6309 27.8434 98.6309 46.6211C98.6309 65.3988 83.4085 80.6216 64.6309 80.6223C45.8532 80.6229 30.6309 65.4011 30.6309 46.6235C30.6309 27.8458 45.8532 12.6229 64.6309 12.6223ZM93.4406 46.6213C93.4406 30.7101 80.542 17.812 64.6309 17.8125C48.7197 17.8131 35.8211 30.7121 35.8211 46.6233C35.8211 62.5345 48.7197 75.4326 64.6309 75.432C80.542 75.4315 93.4406 62.5325 93.4406 46.6213Z" fill="black"/>
<path d="M63.6309 29.6211C86.2745 29.6211 104.631 47.9894 104.631 70.6211C104.631 93.2528 86.2745 111.621 63.6309 111.621C40.9872 111.621 22.6309 93.2528 22.6309 70.6211C22.6309 47.9894 40.9872 29.6211 63.6309 29.6211Z" fill="url(#paint1_linear)"/>
<path d="M22.6309 103.116C22.6309 110.02 28.2273 115.617 35.1309 115.619C42.0344 115.62 47.6309 110.025 47.6309 103.121C47.6309 96.2175 42.0344 90.62 35.1309 90.6186C28.2273 90.6172 22.6309 96.2125 22.6309 103.116Z" fill="url(#paint2_linear)"/>
<path fill-rule="evenodd" clip-rule="evenodd" d="M35.1309 88.6181C43.139 88.6198 49.6309 95.113 49.6309 103.121C49.6309 111.129 43.139 117.62 35.1309 117.618C27.1227 117.616 20.6309 111.123 20.6309 103.115C20.6309 95.107 27.1227 88.6165 35.1309 88.6181ZM45.2003 103.12C45.2003 97.559 40.6921 93.0498 35.1309 93.0487C29.5697 93.0476 25.0614 97.5549 25.0614 103.116C25.0614 108.677 29.5697 113.186 35.1309 113.188C40.6921 113.189 45.2003 108.681 45.2003 103.12Z" fill="black"/>
<path d="M80.6309 103.116C80.6309 110.02 86.2273 115.617 93.1309 115.619C100.034 115.62 105.631 110.025 105.631 103.121C105.631 96.2175 100.034 90.62 93.1309 90.6186C86.2273 90.6172 80.6309 96.2125 80.6309 103.116Z" fill="url(#paint3_linear)"/>
<path fill-rule="evenodd" clip-rule="evenodd" d="M93.1309 88.6181C101.139 88.6198 107.631 95.113 107.631 103.121C107.631 111.129 101.139 117.62 93.1309 117.618C85.1227 117.616 78.6309 111.123 78.6309 103.115C78.6309 95.107 85.1227 88.6165 93.1309 88.6181ZM103.2 103.12C103.2 97.559 98.6921 93.0498 93.1309 93.0487C87.5697 93.0476 83.0614 97.5549 83.0614 103.116C83.0614 108.677 87.5697 113.186 93.1309 113.188C98.6921 113.189 103.2 108.681 103.2 103.12Z" fill="black"/>
<defs>
<linearGradient id="paint0_linear" x1="50.4952" y1="73.6381" x2="72.3682" y2="15.6018" gradientUnits="userSpaceOnUse">
<stop stop-color="#8A9BF6"/>
<stop offset="1" stop-color="#7C11FF"/>
</linearGradient>
<linearGradient id="paint1_linear" x1="94.1497" y1="97.1324" x2="30.9542" y2="49.0421" gradientUnits="userSpaceOnUse">
<stop stop-color="#05FBED"/>
<stop offset="1" stop-color="#CE87FE"/>
</linearGradient>
<linearGradient id="paint2_linear" x1="29.7199" y1="113.64" x2="38.4037" y2="90.6128" gradientUnits="userSpaceOnUse">
<stop stop-color="#8A9BF6"/>
<stop offset="1" stop-color="#7C11FF"/>
</linearGradient>
<linearGradient id="paint3_linear" x1="87.7199" y1="113.64" x2="96.4037" y2="90.6128" gradientUnits="userSpaceOnUse">
<stop stop-color="#8A9BF6"/>
<stop offset="1" stop-color="#7C11FF"/>
</linearGradient>
</defs>
</svg>
