<svg width="128" height="128" viewBox="0 0 128 128" fill="none" xmlns="http://www.w3.org/2000/svg">
<path d="M6 64.0097C6 51.3071 16.2975 41.0076 29 41.0051C41.7026 41.0025 52 51.2979 52 64.0005C52 76.703 41.7025 87.0025 29 87.0051C16.2975 87.0076 6 76.7122 6 64.0097Z" fill="url(#paint0_linear)"/>
<path fill-rule="evenodd" clip-rule="evenodd" d="M48.9134 64.5019C48.9134 75.2223 40.2224 83.9158 29.5 83.9179C18.7776 83.9201 10.0866 75.23 10.0866 64.5096C10.0866 53.7893 18.7776 45.0958 29.5 45.0936C40.2224 45.0915 48.9134 53.7815 48.9134 64.5019ZM29.5 91.0058C44.1349 91.0029 56 79.1367 56 64.5005C56 49.8643 44.1349 38.0029 29.5 38.0058C14.8651 38.0087 3 49.8748 3 64.5111C3 79.1473 14.8651 91.0087 29.5 91.0058Z" fill="black"/>
<path d="M121 64.0097C121 51.3071 110.703 41.0076 98 41.0051C85.2974 41.0025 75 51.2979 75 64.0005C75 76.703 85.2975 87.0025 98 87.0051C110.703 87.0076 121 76.7122 121 64.0097Z" fill="url(#paint1_linear)"/>
<path fill-rule="evenodd" clip-rule="evenodd" d="M116.913 64.5019C116.913 75.2223 108.222 83.9158 97.5 83.9179C86.7776 83.9201 78.0866 75.23 78.0866 64.5096C78.0866 53.7893 86.7776 45.0958 97.5 45.0936C108.222 45.0915 116.913 53.7815 116.913 64.5019ZM97.5 91.0058C112.135 91.0029 124 79.1367 124 64.5005C124 49.8643 112.135 38.0029 97.5 38.0058C82.8651 38.0087 71 49.8748 71 64.5111C71 79.1473 82.8651 91.0087 97.5 91.0058Z" fill="black"/>
<defs>
<linearGradient id="paint0_linear" x1="49.2883" y1="55.2026" x2="11.4571" y2="73.6996" gradientUnits="userSpaceOnUse">
<stop stop-color="#F2D254"/>
<stop offset="0.526042" stop-color="#C2368C"/>
<stop offset="1" stop-color="#693E8E"/>
</linearGradient>
<linearGradient id="paint1_linear" x1="77.7117" y1="55.2026" x2="115.543" y2="73.6996" gradientUnits="userSpaceOnUse">
<stop stop-color="#F2D254"/>
<stop offset="0.526042" stop-color="#C2368C"/>
<stop offset="1" stop-color="#693E8E"/>
</linearGradient>
</defs>
</svg>
