<svg width="128" height="128" viewBox="0 0 128 128" fill="none" xmlns="http://www.w3.org/2000/svg">
<path d="M32.561 46.5013C32.561 63.5877 46.4122 77.4384 63.4986 77.4378C80.585 77.4372 94.4362 63.5855 94.4362 46.4991C94.4362 29.4128 80.585 15.562 63.4986 15.5626C46.4122 15.5632 32.561 29.4149 32.561 46.5013Z" fill="#FE0F16"/>
<path fill-rule="evenodd" clip-rule="evenodd" d="M90.8752 46.499C90.8752 31.3795 78.6183 19.123 63.4988 19.1236C48.3792 19.1241 36.1223 31.3814 36.1223 46.501C36.1223 61.6205 48.3792 73.877 63.4988 73.8764C78.6183 73.8759 90.8752 61.6186 90.8752 46.499ZM63.4988 12.0012C82.5519 12.0005 97.9976 27.4456 97.9976 46.4988C97.9976 65.552 82.5519 80.9981 63.4988 80.9988C44.4456 80.9995 29 65.5544 29 46.5012C29 27.448 44.4456 12.0019 63.4988 12.0012Z" fill="black"/>
<path d="M25 71.5013C25 92.7636 42.2364 109.999 63.4987 109.999C84.7609 109.998 101.997 92.7609 101.997 71.4987C101.997 50.2364 84.7609 33.0006 63.4987 33.0013C42.2364 33.0021 25 50.2391 25 71.5013Z" fill="url(#paint0_radial)"/>
<path fill-rule="evenodd" clip-rule="evenodd" d="M69.6255 33.4884C67.6343 33.1705 65.5921 33.0051 63.5113 33.0049L63.5113 33.0053C61.4306 33.0056 59.3885 33.1709 57.3974 33.4889C51.7728 47.3365 42.3807 48.7539 31.7121 50.3639L31.606 50.3799C31.4963 50.3965 31.3834 50.4267 31.2681 50.4694C29.8718 52.6065 28.6823 54.8909 27.728 57.2943L27.7282 57.2949C30.4948 57.1884 34.0832 56.4072 38.3378 55.4811C45.2358 53.9795 53.8847 52.0968 63.6203 52.0904C73.2672 52.1244 81.8386 53.9903 88.6851 55.4806C92.9396 56.4068 96.5281 57.1879 99.2946 57.2944L99.2949 57.2938C98.3406 54.8905 97.1511 52.6061 95.7547 50.4689C95.6395 50.4262 95.5265 50.396 95.4169 50.3795L95.3107 50.3634C84.6421 48.7534 75.25 47.3361 69.6255 33.4884Z" fill="#0066FF"/>
<path d="M80.2317 102.499C80.2317 109.273 85.7244 114.766 92.5 114.767C99.2756 114.769 104.768 109.278 104.768 102.503C104.768 95.729 99.2756 90.2362 92.5 90.2349C85.7244 90.2335 80.2317 95.7241 80.2317 102.499Z" fill="#F4B4FF"/>
<path fill-rule="evenodd" clip-rule="evenodd" d="M102.537 102.502C102.537 96.9594 98.0431 92.4659 92.5 92.4649C86.9569 92.4639 82.4634 96.9559 82.4634 102.498C82.4634 108.04 86.9569 112.534 92.5 112.535C98.0431 112.536 102.537 108.044 102.537 102.502ZM92.5 88.0023C100.508 88.0037 107 94.4956 107 102.502C107 110.509 100.508 116.999 92.5 116.997C84.4919 116.996 78 110.504 78 102.497C78 94.4905 84.4919 88.0009 92.5 88.0023Z" fill="black"/>
<path d="M23.2317 102.498C23.2317 109.272 28.7244 114.765 35.5 114.767C42.2756 114.768 47.7683 109.277 47.7683 102.503C47.7683 95.7282 42.2756 90.2352 35.5 90.2339C28.7244 90.2325 23.2317 95.7233 23.2317 102.498Z" fill="#F4B4FF"/>
<path fill-rule="evenodd" clip-rule="evenodd" d="M45.5366 102.502C45.5366 96.9597 41.0431 92.4661 35.5 92.4652C29.9569 92.4644 25.4634 96.9565 25.4634 102.499C25.4634 108.041 29.9569 112.534 35.5 112.535C41.0431 112.536 45.5366 108.044 45.5366 102.502ZM35.5 88.0026C43.5081 88.0039 50 94.4957 50 102.503C50 110.509 43.5081 116.999 35.5 116.998C27.4919 116.997 21 110.505 21 102.498C21 94.4911 27.4919 88.0013 35.5 88.0026Z" fill="black"/>
<defs>
<radialGradient id="paint0_radial" cx="0" cy="0" r="1" gradientUnits="userSpaceOnUse" gradientTransform="translate(63.4987 71.5) rotate(179.998) scale(38.4987)">
<stop stop-color="#FF0000"/>
<stop offset="0.885417" stop-color="#F4B4FF"/>
</radialGradient>
</defs>
</svg>
