<svg width="129" height="129" viewBox="0 0 129 129" fill="none" xmlns="http://www.w3.org/2000/svg">
<mask id="mask0" mask-type="alpha" maskUnits="userSpaceOnUse" x="7" y="35" width="47" height="47">
<path d="M7.9213 58.7097C7.9213 45.986 18.2187 35.6694 30.9213 35.6668C43.6238 35.6643 53.9213 45.9768 53.9213 58.7005C53.9213 71.4242 43.6238 81.7408 30.9213 81.7434C18.2187 81.7459 7.9213 71.4334 7.9213 58.7097Z" fill="#A9476A"/>
</mask>
<g mask="url(#mask0)">
<path d="M62.4921 42.7141L56.1925 39.7617L31.8342 89.8878L38.1339 92.8403L62.4921 42.7141Z" fill="#FB0000"/>
<path d="M56.2048 39.7732L49.9041 36.8243L25.5357 86.9271L31.8363 89.876L56.2048 39.7732Z" fill="#F8A400"/>
<path d="M49.9067 36.8264L43.6061 33.8775L19.2376 83.9803L25.5383 86.9292L49.9067 36.8264Z" fill="#EAFF00"/>
<path d="M43.6245 33.887L37.3238 30.938L12.9554 81.0408L19.256 83.9897L43.6245 33.887Z" fill="#59DE2A"/>
<path d="M37.3513 30.9534L31.0506 28.0044L6.68215 78.1072L12.9828 81.0561L37.3513 30.9534Z" fill="#2D60E3"/>
<path d="M31.0518 28.0491L23.7454 24.5446L-0.623091 74.6474L6.68331 78.1518L31.0518 28.0491Z" fill="#8318C4"/>
</g>
<path fill-rule="evenodd" clip-rule="evenodd" d="M50.3713 58.7424C50.3713 69.4844 41.6632 78.1942 30.9213 78.1963C20.1793 78.1985 11.4713 69.4921 11.4713 58.7502C11.4713 48.0083 20.1793 39.2985 30.9213 39.2963C41.6632 39.2942 50.3713 48.0005 50.3713 58.7424ZM30.9213 85.2963C45.5844 85.2934 57.4713 73.4042 57.4713 58.741C57.4713 44.0779 45.5844 32.1934 30.9213 32.1963C16.2581 32.1993 4.37129 44.0885 4.37129 58.7516C4.37129 73.4148 16.2581 85.2993 30.9213 85.2963Z" fill="black"/>
<mask id="mask1" mask-type="alpha" maskUnits="userSpaceOnUse" x="76" y="35" width="47" height="47">
<path d="M76.0213 58.7097C76.0213 45.986 86.3188 35.6694 99.0213 35.6668C111.724 35.6643 122.021 45.9768 122.021 58.7005C122.021 71.4242 111.724 81.7408 99.0213 81.7434C86.3188 81.7459 76.0213 71.4334 76.0213 58.7097Z" fill="#A9476A"/>
</mask>
<g mask="url(#mask1)">
<path d="M130.592 42.7141L124.292 39.7617L99.9342 89.8878L106.234 92.8403L130.592 42.7141Z" fill="#FB0000"/>
<path d="M124.305 39.7732L118.004 36.8243L93.6357 86.9271L99.9363 89.876L124.305 39.7732Z" fill="#F8A400"/>
<path d="M118.007 36.8264L111.706 33.8775L87.3376 83.9803L93.6383 86.9292L118.007 36.8264Z" fill="#EAFF00"/>
<path d="M111.724 33.887L105.424 30.938L81.0554 81.0408L87.356 83.9897L111.724 33.887Z" fill="#59DE2A"/>
<path d="M105.451 30.9534L99.1506 28.0044L74.7822 78.1072L81.0828 81.0561L105.451 30.9534Z" fill="#2D60E3"/>
<path d="M99.1518 28.0491L91.8454 24.5446L67.4769 74.6474L74.7833 78.1518L99.1518 28.0491Z" fill="#8318C4"/>
</g>
<path fill-rule="evenodd" clip-rule="evenodd" d="M118.471 58.7424C118.471 69.4844 109.763 78.1942 99.0213 78.1963C88.2794 78.1985 79.5713 69.4921 79.5713 58.7502C79.5713 48.0083 88.2794 39.2985 99.0213 39.2963C109.763 39.2942 118.471 48.0005 118.471 58.7424ZM99.0213 85.2963C113.684 85.2934 125.571 73.4042 125.571 58.741C125.571 44.0779 113.684 32.1934 99.0213 32.1963C84.3581 32.1993 72.4713 44.0885 72.4713 58.7516C72.4713 73.4148 84.3581 85.2993 99.0213 85.2963Z" fill="black"/>
</svg>
