<svg width="129" height="129" viewBox="0 0 129 129" fill="none" xmlns="http://www.w3.org/2000/svg">
<path d="M64.0022 78.0322C81.3992 78.0322 95.5017 63.9292 95.5011 46.5322C95.5005 29.1353 81.397 15.0322 64 15.0322C46.603 15.0322 32.5005 29.1353 32.5011 46.5322C32.5017 63.9292 46.6052 78.0322 64.0022 78.0322Z" fill="url(#paint0_linear_1546_331)"/>
<path fill-rule="evenodd" clip-rule="evenodd" d="M64.5 12.0324C83.2777 12.0318 98.5 27.2536 98.5 46.0312C98.5 64.8089 83.2777 80.0318 64.5 80.0324C45.7223 80.0331 30.5 64.8113 30.5 46.0336C30.5 27.2559 45.7223 12.0331 64.5 12.0324ZM93.3097 46.0314C93.3097 30.1203 80.4112 17.2221 64.5 17.2227C48.5888 17.2233 35.6903 30.1223 35.6903 46.0334C35.6903 61.9446 48.5888 74.8427 64.5 74.8422C80.4112 74.8416 93.3097 61.9426 93.3097 46.0314Z" fill="black"/>
<path d="M63.5 29.0312C86.1437 29.0312 104.5 47.3996 104.5 70.0312C104.5 92.6629 86.1437 111.031 63.5 111.031C40.8563 111.031 22.5 92.6629 22.5 70.0312C22.5 47.3996 40.8563 29.0312 63.5 29.0312Z" fill="url(#paint1_radial_1546_331)"/>
<path d="M35.0011 90.0283C28.0975 90.0283 22.5 95.6248 22.4986 102.528C22.4972 109.432 28.0925 115.028 34.9961 115.028C41.8997 115.028 47.4972 109.432 47.4986 102.528C47.5 95.6248 41.9047 90.0283 35.0011 90.0283Z" fill="url(#paint2_linear_1546_331)"/>
<path fill-rule="evenodd" clip-rule="evenodd" d="M35 88.0283C43.0081 88.0299 49.5 94.5231 49.5 102.531C49.5 110.539 43.0081 117.03 35 117.028C26.9919 117.027 20.5 110.533 20.5 102.525C20.5 94.5172 26.9919 88.0267 35 88.0283ZM45.0694 102.53C45.0694 96.9691 40.5612 92.46 35 92.4588C29.4388 92.4577 24.9306 96.965 24.9306 102.526C24.9306 108.087 29.4388 112.597 35 112.598C40.5612 112.599 45.0694 108.092 45.0694 102.53Z" fill="black"/>
<path d="M93.0011 90.0283C86.0975 90.0283 80.5 95.6248 80.4986 102.528C80.4972 109.432 86.0925 115.028 92.9961 115.028C99.8997 115.028 105.497 109.432 105.499 102.528C105.5 95.6248 99.9047 90.0283 93.0011 90.0283Z" fill="url(#paint3_linear_1546_331)"/>
<path fill-rule="evenodd" clip-rule="evenodd" d="M93 88.0283C101.008 88.0299 107.5 94.5231 107.5 102.531C107.5 110.539 101.008 117.03 93 117.028C84.9919 117.027 78.5 110.533 78.5 102.525C78.5 94.5172 84.9919 88.0267 93 88.0283ZM103.069 102.53C103.069 96.9691 98.5612 92.46 93 92.4588C87.4388 92.4577 82.9306 96.965 82.9306 102.526C82.9306 108.087 87.4388 112.597 93 112.598C98.5612 112.599 103.069 108.092 103.069 102.53Z" fill="black"/>
<defs>
<linearGradient id="paint0_linear_1546_331" x1="64" y1="15.0322" x2="64" y2="78.0322" gradientUnits="userSpaceOnUse">
<stop stop-color="#453322"/>
<stop offset="0.401042" stop-color="#694837"/>
<stop offset="0.723958" stop-color="#8C6049"/>
</linearGradient>
<radialGradient id="paint1_radial_1546_331" cx="0" cy="0" r="1" gradientUnits="userSpaceOnUse" gradientTransform="translate(63.5 70.0312) rotate(-180) scale(41)">
<stop stop-color="#FFE34D"/>
<stop offset="0.703125" stop-color="#FFAF08"/>
<stop offset="1" stop-color="#FF9A08"/>
</radialGradient>
<linearGradient id="paint2_linear_1546_331" x1="34.9961" y1="115.028" x2="34.9961" y2="90.0283" gradientUnits="userSpaceOnUse">
<stop stop-color="#5D6376"/>
<stop offset="0.234375" stop-color="#72788B"/>
<stop offset="0.5" stop-color="#858B9C"/>
<stop offset="0.84375" stop-color="#C7AE6A"/>
</linearGradient>
<linearGradient id="paint3_linear_1546_331" x1="92.9961" y1="115.028" x2="92.9961" y2="90.0283" gradientUnits="userSpaceOnUse">
<stop stop-color="#5D6376"/>
<stop offset="0.234375" stop-color="#72788B"/>
<stop offset="0.5" stop-color="#858B9C"/>
<stop offset="0.84375" stop-color="#C7AE6A"/>
</linearGradient>
</defs>
</svg>
