<svg width="129" height="129" viewBox="0 0 129 129" fill="none" xmlns="http://www.w3.org/2000/svg">
<circle r="19.4024" transform="matrix(-1 0 0 1 98.121 66.2989)" fill="#B80C31"/>
<path d="M81.7852 74.3849C81.6678 74.7008 81.1715 75.0617 80.991 75.3325C80.9278 75.2152 80.8647 75.0888 80.8015 74.9715C81.0361 74.8091 81.4603 74.4391 81.6949 74.2856C81.713 74.2947 81.7761 74.3669 81.7852 74.3849Z" fill="#FCFAC6"/>
<path d="M114.23 74.9983C113.878 74.5922 113.499 74.4659 112.975 74.502C111.703 74.5832 110.43 74.6283 109.149 74.6554C108.833 74.6644 108.635 74.7547 108.454 75.0254C107.434 76.5956 106.369 78.1478 105.359 79.7271C105.115 80.1152 104.953 80.052 104.664 79.8173C103.518 78.8698 102.354 77.9493 101.208 77.0017C100.946 76.7852 100.783 76.74 100.513 77.0198C99.8268 77.7147 99.0958 78.3644 98.3829 79.0232C98.2836 79.1225 98.2024 79.2849 97.9858 79.2398C98.058 79.0412 98.1934 78.9149 98.3197 78.7886C99.0236 78.0666 99.7275 77.3537 100.431 76.6317C100.892 76.1625 100.883 76.1715 101.406 76.5776C102.173 77.1732 102.877 77.85 103.698 78.3734V78.3644C103.725 78.3915 103.761 78.4276 103.788 78.4547C103.807 78.4727 103.825 78.4908 103.843 78.4998C103.861 78.5088 103.879 78.4998 103.888 78.5088L103.906 78.5178C103.915 78.5449 103.915 78.4998 103.942 78.5178C103.96 78.5359 104.032 78.5178 104.05 78.5269C104.059 78.5359 104.077 78.5449 104.086 78.5539C104.113 78.572 104.131 78.6171 104.158 78.6352C104.168 78.6442 104.149 78.7525 104.158 78.7615C104.402 78.96 104.646 79.1676 104.898 79.3661C104.944 79.4203 104.98 79.4473 105.007 79.4564C105.025 79.4654 105.043 79.4654 105.052 79.4654C105.124 79.4564 105.178 79.3661 105.232 79.2849C106.306 77.5522 107.38 75.8105 108.463 74.0869C108.635 73.8161 108.418 73.7439 108.283 73.6266C107.272 72.7783 106.261 71.921 105.241 71.0908C104.98 70.8832 104.835 70.6305 104.745 70.3147C104.411 69.0964 104.059 67.8961 103.716 66.6778C103.653 66.4613 103.563 66.2627 103.428 66.0732C102.444 64.7466 101.46 63.42 100.477 62.0935C100.422 62.0213 100.386 61.94 100.278 61.922C100.251 61.7505 100.17 61.6332 100.007 61.561C99.9892 61.3896 99.89 61.2722 99.7365 61.2H99.7456C99.6734 60.83 99.3936 60.9474 99.177 60.9654C97.7331 61.1279 96.2892 61.2993 94.8363 61.4618C94.6558 61.4798 94.5024 61.4798 94.5114 61.2271C94.5205 60.794 94.5114 60.3698 94.5114 59.8013C94.6648 60.2074 94.7822 60.4961 94.8724 60.794C94.9446 61.0557 95.0709 61.1549 95.3597 61.1008C96.7044 60.8752 98.058 60.6857 99.4026 60.433C99.7546 60.3698 99.917 60.4691 100.098 60.7308C100.946 61.931 101.839 63.1042 102.669 64.3225C103.265 65.1978 104.023 65.9739 104.402 66.9937C104.808 68.1127 105.241 69.2137 105.657 70.3237C105.747 70.5583 105.873 70.7388 106.063 70.9013C107.164 71.8488 108.265 72.8054 109.357 73.771C109.555 73.9515 109.745 73.9966 110.006 73.9695C111.216 73.8522 112.425 73.762 113.643 73.6537C113.851 73.6356 114.013 73.6627 114.148 73.8613C114.491 74.3937 114.843 74.9352 115.195 75.4676C115.141 75.5759 115.078 75.6842 115.015 75.7834C114.744 75.5488 114.473 75.2871 114.23 74.9983Z" fill="#FCFAC6"/>
<path d="M82.1044 73.5818C82.2218 73.4826 82.4113 73.4374 82.4203 73.2299C82.4564 73.2118 82.4835 73.1848 82.5196 73.1667C82.7271 73.1306 82.8264 72.896 83.043 72.8779C82.7181 73.5999 82.2849 74.2587 81.8337 74.8994C81.7344 75.0438 81.6442 75.1882 81.5539 75.3326C81.4547 75.504 81.3554 75.6845 81.2742 75.856C81.1749 75.6845 81.0847 75.504 80.9854 75.3326C81.1659 75.0618 81.4186 74.8362 81.5359 74.5294C81.59 74.4933 81.6352 74.4482 81.6893 74.4121H81.6983C81.7074 74.4031 81.7074 74.394 81.7164 74.385C81.7074 74.394 81.6983 74.403 81.6983 74.403C81.6532 74.394 81.6081 74.4031 81.572 74.4211C81.5539 74.4301 81.5269 74.4572 81.5178 74.4843C81.2832 74.6467 81.0486 74.8091 80.8139 74.9626C80.7779 74.8813 80.7327 74.8001 80.6966 74.7189C81.1659 74.3489 81.6352 73.9699 82.1044 73.5818Z" fill="#FCEA17"/>
<path d="M84.8977 52.4375C84.9157 52.4646 84.9338 52.4827 84.9518 52.5097C84.9879 52.5549 85.024 52.609 85.0691 52.6541C85.1052 52.6992 85.1503 52.7444 85.1864 52.7895C85.2225 52.8346 85.2677 52.8797 85.3038 52.9249C85.3669 52.9971 85.4211 53.0602 85.4752 53.1324C86.0799 53.9536 86.7025 54.7568 87.3342 55.551C87.7764 56.1014 87.7133 56.7692 87.8125 57.3919C88.1735 59.6029 88.4894 61.8229 88.8233 64.0339C88.8503 64.2053 88.9135 64.3497 89.085 64.4219C90.5018 65.0356 91.9186 65.6492 93.3355 66.2629C93.3896 66.2809 93.4528 66.2719 93.5159 66.2719C93.8769 66.4524 94.2289 66.6329 94.5898 66.8134C94.5808 66.8405 94.5808 66.8675 94.5718 66.8946C94.1025 66.8314 93.6242 66.7773 93.155 66.7141C93.1369 66.678 93.1098 66.669 93.0828 66.678C93.0737 66.678 93.0647 66.687 93.0557 66.6961C92.5774 66.6419 92.0901 66.5878 91.6118 66.5336C91.6028 66.5246 91.5938 66.5246 91.5847 66.5246C91.5757 66.5246 91.5667 66.5246 91.5486 66.5246L91.5396 66.5156C91.332 66.2087 90.9891 66.3441 90.7184 66.29C89.7257 66.0914 88.715 65.9561 87.7042 65.8207C87.4425 65.7846 87.3974 65.6222 87.3794 65.4236C87.2259 63.8353 87.0816 62.238 86.9191 60.6497C86.7747 59.2239 86.6213 57.798 86.4679 56.3722C86.4499 56.2458 86.3957 56.1105 86.3325 55.9931C85.7189 54.838 85.0962 53.6829 84.4735 52.5278C84.5728 52.4285 84.672 52.3292 84.7803 52.23C84.7984 52.2571 84.8074 52.2932 84.8255 52.3202C84.8525 52.3563 84.8706 52.3924 84.8977 52.4375ZM85.3669 53.5836C85.385 53.6197 85.412 53.6558 85.4301 53.6919C85.5835 53.9988 85.7008 54.3236 85.8723 54.6124C85.8994 54.6575 85.9264 54.6936 85.9535 54.7297C86.6484 55.7314 86.8018 56.8775 86.9191 58.0507C87.1267 60.0361 87.4516 62.0124 87.5869 63.9978C87.6501 64.9092 87.993 65.2341 88.8323 65.4146C90.0957 65.6853 91.323 66.0824 92.5684 66.4163C92.6677 66.4434 92.7759 66.4434 92.8933 66.3983C91.5938 65.8387 90.3033 65.2792 89.0038 64.7378C88.5886 64.5663 88.3901 64.3678 88.3269 63.8805C88.0111 61.3988 87.632 58.917 87.2711 56.4444C87.2259 56.1105 87.1357 55.8127 86.9191 55.5419C86.4318 54.9102 85.9716 54.2605 85.5023 53.6197C85.4933 53.6107 85.4933 53.6017 85.4842 53.5927C85.4662 53.5656 85.4481 53.5385 85.4211 53.5114C85.394 53.4753 85.385 53.4032 85.3399 53.4212C85.3308 53.4212 85.3218 53.4302 85.3128 53.4302C85.2857 53.4753 85.3218 53.5385 85.3669 53.5836Z" fill="#FCEA17"/>
<path d="M113.929 75.1971C113.749 75.0076 113.559 74.9354 113.297 74.9444C112.034 74.9896 110.78 75.0347 109.516 75.0347C109.083 75.0347 108.83 75.17 108.614 75.531C107.603 77.2276 106.556 78.9152 105.536 80.6118C105.383 80.8735 105.257 80.9096 105.013 80.72C103.912 79.8447 102.775 79.0054 101.701 78.0939C101.376 77.8142 101.187 77.8683 100.907 78.0849C99.3186 79.2852 97.7122 80.4764 96.124 81.6766C95.8713 81.8661 95.6637 81.9113 95.3569 81.7488C93.3264 80.702 91.2869 79.6732 89.2474 78.6354C89.1301 78.5722 89.0127 78.5181 88.9225 78.4008C88.2367 77.5254 87.5688 76.641 86.8469 75.8018C86.4137 75.3054 86.1971 74.782 86.2874 74.1232C86.3054 74.0059 86.2513 73.8886 86.2513 73.7713C86.2513 73.1937 86.2513 72.6161 86.2513 72.0386C86.3325 72.0296 86.3596 72.0837 86.3867 72.1379C87.0725 73.284 87.7584 74.43 88.4262 75.5852C88.9135 76.4244 89.3557 77.2998 90.3484 77.6879C90.7184 77.8322 91.0523 78.0939 91.4042 78.2835C92.7308 79.0235 94.0484 79.7725 95.411 80.4493C95.8262 80.6569 96.124 80.6569 96.4669 80.2688C97.8115 78.7618 99.1201 77.2096 100.392 75.6393C100.726 75.2242 100.799 75.1971 101.142 75.5852C101.891 76.4515 102.73 77.2276 103.524 78.0488C103.614 78.1391 103.732 78.2203 103.713 78.3827V78.3918C102.892 77.8683 102.188 77.1915 101.421 76.5959C100.898 76.1898 100.907 76.1718 100.447 76.65C99.7427 77.372 99.0388 78.0849 98.3349 78.8069C98.2086 78.9332 98.0732 79.0505 98.001 79.2581C98.2086 79.3122 98.2898 79.1408 98.3981 79.0415C99.1201 78.3827 99.842 77.733 100.528 77.0381C100.799 76.7674 100.961 76.8125 101.223 77.02C102.369 77.9676 103.533 78.8881 104.679 79.8357C104.968 80.0793 105.13 80.1335 105.374 79.7454C106.385 78.1661 107.441 76.6139 108.469 75.0437C108.65 74.773 108.839 74.6737 109.164 74.6737C110.437 74.6466 111.718 74.6015 112.991 74.5203C113.514 74.4842 113.893 74.6105 114.245 75.0166C114.498 75.3054 114.759 75.5671 115.039 75.8379C114.985 75.9371 114.922 76.0364 114.868 76.1357C114.534 75.8108 114.227 75.504 113.929 75.1971Z" fill="#FCEA17"/>
<path d="M113.647 73.69C112.438 73.7983 111.219 73.8885 110.01 74.0058C109.749 74.0329 109.559 73.9788 109.36 73.8073C108.269 72.8417 107.168 71.8851 106.067 70.9375C105.877 70.7751 105.742 70.5946 105.66 70.36C105.245 69.25 104.812 68.149 104.406 67.03C104.036 66.0012 103.278 65.2341 102.673 64.3588C101.843 63.1405 100.95 61.9673 100.101 60.7671C99.921 60.5054 99.7585 60.4061 99.4066 60.4693C98.0619 60.7219 96.7083 60.9115 95.3636 61.1371C95.0839 61.1822 94.9575 61.0919 94.8763 60.8302C94.7951 60.5324 94.6688 60.2527 94.5153 59.8376C94.5153 60.4061 94.5244 60.8302 94.5153 61.2634C94.5063 61.5161 94.6597 61.5161 94.8402 61.498C96.2841 61.3356 97.728 61.1641 99.181 61.0017C99.4066 60.9746 99.6773 60.8573 99.7495 61.2363C99.2712 61.2273 98.8019 61.2815 98.3236 61.3446C98.0439 61.3807 97.7551 61.4168 97.4753 61.4439C96.5097 61.5251 95.5441 61.6334 94.5785 61.7597C94.2807 61.7958 94.1814 61.7688 94.1183 61.4349C94.1002 61.3175 94.1002 61.2002 94.1002 61.0829C94.1002 61.0378 94.1002 60.9836 94.1002 60.9385C94.1002 60.7219 94.0732 60.5144 93.9107 60.3339C93.9017 60.1895 93.9017 60.0361 93.8927 59.8917C93.8836 59.8917 93.8385 59.8466 93.8295 59.7924C93.8205 59.7293 93.7934 59.7112 93.8024 59.6751C93.8114 59.5939 93.8295 59.6119 93.8566 59.5127C93.7483 58.3215 93.6761 57.1302 93.5588 55.939C93.5227 55.5419 93.4775 55.1449 93.4234 54.7478C93.3873 54.4139 93.3602 54.08 93.3241 53.7551C93.2971 53.3941 93.27 53.0332 93.2429 52.6722L93.0534 52.2932C93.0895 52.2932 93.279 52.248 93.3151 52.248C93.3602 52.3473 93.4324 52.8798 93.4595 52.979C93.4866 53.0873 93.5046 53.1956 93.5136 53.3039C93.3693 53.4302 93.4866 53.5476 93.5136 53.6739C94.001 55.8758 94.4883 58.0868 94.9575 60.2978C95.0207 60.5866 95.12 60.6136 95.3907 60.5505C96.8166 60.2076 98.2514 59.8917 99.6773 59.5668C99.8758 59.5217 100.047 59.4856 100.192 59.7022C101.473 61.6063 102.782 63.4924 104.027 65.4236C104.704 66.4705 105.101 67.6707 105.606 68.7988C105.949 69.5658 106.283 70.3419 106.987 70.8653C107.438 71.1992 107.799 71.6234 108.205 72.0024C108.593 72.3814 108.99 72.7424 109.351 73.1485C109.803 73.6539 110.263 73.8253 110.94 73.5185C111.761 73.1485 112.645 72.9771 113.539 72.8146C114.134 72.7063 114.252 72.7785 114.531 73.3019C114.838 73.8795 115.154 74.448 115.461 75.0166C115.38 75.188 115.289 75.3505 115.199 75.5219C114.847 74.9895 114.495 74.457 114.152 73.9156C114.026 73.699 113.855 73.6719 113.647 73.69Z" fill="#FCEA17"/>
<path d="M100.006 52.7985C100.15 52.8977 100.232 53.0782 100.349 53.2136C101.937 54.9914 103.526 56.7692 105.132 58.5289C105.421 58.8448 105.448 59.1155 105.367 59.5036C105.321 59.7111 105.276 59.9097 105.24 60.1172C105.123 60.7309 105.024 61.3536 104.906 61.9672C104.915 62.3914 104.762 62.7794 104.617 63.2126C104.482 62.978 104.545 62.7794 104.5 62.5989C104.455 61.4077 104.302 60.2165 104.202 59.0253C104.175 58.6914 104.022 58.4387 103.796 58.2041C103.092 57.4821 102.388 56.7692 101.703 56.0292C100.448 54.6936 99.1577 53.3941 97.8763 52.0855C97.795 52.0043 97.7319 51.896 97.6507 51.8058C97.4882 51.6433 97.5063 51.4899 97.5875 51.2824C98.0297 50.1994 98.4177 49.0985 98.878 48.0246C99.0314 47.6636 99.1668 47.3026 99.3021 46.9326C99.3924 46.9416 99.4916 46.9416 99.5819 46.9507C99.4104 47.4741 99.2841 48.0246 99.1036 48.548C98.7787 49.5316 98.499 50.5243 98.1921 51.517C98.138 51.6885 98.0658 51.8509 98.2282 52.0133C99.2029 53.0511 100.132 54.1341 101.152 55.1358C101.188 55.1448 101.224 55.1629 101.251 55.1719C101.242 55.1358 101.224 55.0997 101.215 55.0636C100.475 54.098 99.7443 53.1324 98.9863 52.1758C98.8148 51.9592 98.7877 51.7787 98.8599 51.526C99.2931 50.019 99.7082 48.5029 100.123 46.9958C100.268 47.0138 100.403 47.0229 100.547 47.0409C100.177 48.2682 99.8887 49.5226 99.4826 50.7409C99.1848 51.5982 99.2299 52.257 100.006 52.7985ZM101.351 55.3704C101.378 55.3975 101.414 55.4336 101.441 55.4607C101.459 55.5148 101.504 55.5509 101.567 55.5329C101.576 55.5329 101.585 55.5148 101.603 55.5058C101.567 55.4787 101.522 55.4516 101.486 55.4246C101.459 55.3885 101.432 55.3524 101.414 55.3163C101.387 55.2982 101.351 55.2892 101.324 55.2711C101.324 55.3163 101.342 55.3433 101.351 55.3704Z" fill="#FCEA17"/>
<path d="M104.959 79.3212C105.897 77.6607 106.836 76.0092 107.775 74.3487C107.874 74.1773 107.784 74.0961 107.684 74.0058C106.962 73.3831 106.213 72.7695 105.509 72.1287C105.103 71.7587 104.589 71.497 104.454 70.8473C104.165 69.5297 103.786 68.2392 103.47 66.9307C103.38 66.5787 103.271 66.2448 103.046 65.947C102.351 65.0085 101.638 64.079 100.988 63.1134C100.844 62.9058 100.654 62.7163 100.51 62.5087C100.474 62.4636 100.447 62.4095 100.42 62.3644C100.402 62.3373 100.393 62.3102 100.384 62.2831C100.365 62.247 100.356 62.22 100.347 62.1839C100.338 62.1478 100.329 62.1117 100.32 62.0756C100.32 62.0666 100.32 62.0666 100.32 62.0575C100.311 62.0214 100.302 61.9853 100.302 61.9402C100.086 61.9402 100.023 61.8229 100.032 61.6514C100.032 61.6244 100.032 61.6063 100.032 61.5792C99.8511 61.5792 99.7789 61.489 99.7609 61.3627C99.7518 61.3175 99.7518 61.2724 99.7609 61.2183C99.9233 61.2905 100.014 61.4078 100.032 61.5792C100.194 61.6514 100.284 61.7687 100.302 61.9402C100.402 61.9583 100.447 62.0395 100.501 62.1117C101.485 63.4383 102.468 64.7648 103.452 66.0914C103.587 66.2719 103.677 66.4705 103.741 66.6961C104.084 67.9053 104.435 69.1146 104.769 70.3329C104.86 70.6487 105.004 70.8924 105.266 71.109C106.295 71.9392 107.296 72.7965 108.307 73.6448C108.442 73.7622 108.65 73.8343 108.487 74.1051C107.405 75.8378 106.331 77.5704 105.257 79.3031C105.203 79.3843 105.148 79.4746 105.076 79.4836C105.058 79.4836 105.049 79.4836 105.031 79.4746C104.995 79.4656 104.959 79.4295 104.923 79.3843C104.932 79.3753 104.932 79.3753 104.941 79.3663C104.932 79.3482 104.95 79.3392 104.959 79.3212Z" fill="#FCEA17"/>
<path d="M85.2626 53.4572C85.2897 53.4301 85.3438 53.403 85.3709 53.376C85.8402 54.0167 86.4448 54.9101 86.9321 55.5418C87.1487 55.8126 87.2389 56.1194 87.2841 56.4443C87.636 58.926 88.015 61.3987 88.3399 63.8804C88.4031 64.3677 88.6106 64.5752 89.0167 64.7377C90.3163 65.2701 91.6067 65.8386 92.9062 66.3982C92.7889 66.4433 92.6806 66.4433 92.5814 66.4162C91.336 66.0733 90.1087 65.6762 88.8453 65.4145C88.015 65.234 87.6631 64.9091 87.5999 63.9977C87.4645 62.0123 87.1397 60.036 86.9321 58.0506C86.8148 56.8774 86.6614 55.7313 85.9665 54.7296C85.9394 54.6935 85.9124 54.6484 85.8853 54.6123C85.7138 54.3235 85.5875 53.9987 85.4431 53.6918L85.2626 53.4572Z" fill="#FCFAC6"/>
<path d="M107.857 53.4847C107.568 54.342 106.873 54.703 106.016 54.4322C105.457 54.2608 104.996 53.9269 104.581 53.5298C103.246 52.2303 102.442 50.651 102.1 48.8371C102 48.3227 101.973 47.8083 102.072 47.2939C103.859 47.6639 105.556 48.2776 107.126 49.0988C107.622 50.0825 107.911 51.1474 108.02 52.2754C107.992 52.7808 107.974 53.1417 107.857 53.4847Z" fill="#FCFBFA"/>
<path d="M109.756 59.1787C108.817 59.1877 108.068 58.5019 108.059 57.6265C108.05 56.7782 108.79 56.0653 109.693 56.0472C110.622 56.0292 111.38 56.715 111.398 57.5904C111.407 58.4838 110.703 59.1697 109.756 59.1787Z" fill="#FCFBFA"/>
<path d="M91.6183 66.6333C92.0605 67.9689 92.5478 69.2865 93.2066 70.5408C93.4232 70.956 93.6668 71.3621 93.9195 71.7411C94.0459 71.9306 94.1812 72.1201 94.3166 72.3096C95.0025 73.2391 95.7966 74.0784 96.672 74.8545C96.9427 75.1884 97.2586 75.4682 97.6376 75.6757C97.6827 75.7299 97.7188 75.784 97.7639 75.8382C97.791 75.8652 97.8181 75.8923 97.8451 75.9194C98.0256 76.1089 98.2242 76.2804 98.4678 76.3977C98.531 76.4518 98.5942 76.515 98.6664 76.5691C98.7025 76.6323 98.7295 76.6864 98.7656 76.7496C98.54 77.0204 98.3234 77.2911 98.0888 77.5528C97.8542 77.8145 97.6015 78.0582 97.3307 78.2838C96.6088 77.8235 95.959 77.273 95.3364 76.6865C93.1254 74.6379 91.492 72.1833 90.3639 69.3947C90.2195 69.0247 90.0661 68.6548 89.9308 68.2848C89.7051 67.6621 89.5066 67.0304 89.3803 66.3716C89.7864 66.3896 90.1834 66.4438 90.5895 66.4799C90.7339 66.4979 90.8783 66.5069 91.0227 66.516C91.2032 66.525 91.3837 66.534 91.5732 66.525L91.5822 66.534C91.5822 66.5701 91.6003 66.6062 91.6183 66.6333Z" fill="#FC641C"/>
<path d="M101.281 77.5527C101.552 77.9047 101.823 78.2566 102.184 78.4281C102.22 78.5454 102.283 78.5725 102.364 78.5544C102.364 78.7259 102.427 78.7981 102.545 78.8071C102.581 78.9154 102.653 78.9335 102.725 78.9335C102.752 78.9786 102.779 79.0147 102.815 79.0598C102.861 79.1049 102.906 79.15 102.951 79.1861C103.555 79.7457 104.088 80.3954 104.593 81.1174C104.665 81.2166 104.738 81.3249 104.801 81.4332C104.467 81.361 104.232 81.6588 103.898 81.5866C103.772 81.5415 103.492 81.6318 103.366 81.5866C103.05 81.4603 102.788 81.3971 102.472 81.2618C102.319 81.1896 102.093 81.1805 101.94 81.1083C101.787 81.0361 101.588 81.1264 101.435 81.0452C101.353 81.0091 101.101 80.9459 101.029 80.9008C100.496 80.612 99.4493 80.3232 98.953 79.9171C99.4042 79.2764 100.794 78.1122 101.281 77.5527Z" fill="#FC641C"/>
<path d="M116.674 63.0048C116.809 63.6275 116.971 64.2592 116.98 64.9089C116.033 66.5333 114.652 67.6072 112.829 68.0584C110.943 68.5187 109.111 68.2299 107.333 67.517C107.207 67.4628 107.081 67.4267 106.954 67.3726C106.341 67.0387 105.727 66.7048 105.113 66.3709C104.662 65.4233 104.238 64.4667 103.688 63.5733C103.606 63.447 103.525 63.3206 103.444 63.1943C102.46 61.7414 101.558 60.2433 100.628 58.7543C100.484 58.5287 100.358 58.4023 100.015 58.4836C99.3919 58.637 98.7512 58.6911 98.1195 58.7904C98.0293 58.6189 97.93 58.4475 97.8307 58.276C97.5329 57.7616 97.208 57.2743 96.8651 56.787C96.838 56.7328 96.802 56.6787 96.7749 56.6245C96.7027 56.4711 96.6305 56.3177 96.5583 56.1643C96.5493 56.1462 96.5402 56.1192 96.5312 56.1011C96.459 55.9477 96.3868 55.8033 96.3146 55.6499C96.2424 55.4965 96.1612 55.3431 96.089 55.1806C96.08 55.1626 96.071 55.1355 96.0529 55.1175C95.9807 54.964 95.9085 54.8106 95.8363 54.6572C95.7912 54.567 95.7461 54.4677 95.71 54.3775C95.6017 54.1248 95.4934 53.8631 95.3941 53.6104C94.8707 52.1936 94.5188 50.7406 94.5368 49.2245C94.5459 48.5206 94.6361 47.8438 94.8076 47.1941C95.8905 47.0045 97.0095 46.9053 98.1466 46.9053C98.2459 46.9053 98.3451 46.9053 98.4444 46.9053C97.8307 48.4214 97.2261 49.9375 96.6034 51.4445C96.4951 51.7062 96.5493 51.8416 96.7207 52.0311C97.578 52.9336 98.4173 53.854 99.2746 54.7565C100.565 56.1192 101.856 57.4728 103.155 58.8265C103.327 59.007 103.462 59.1875 103.525 59.4311C103.742 60.2253 103.94 61.0194 104.184 61.8135C104.265 62.0843 104.247 62.4092 104.509 62.6077C104.554 62.7882 104.491 62.9957 104.626 63.2214C104.77 62.7792 104.933 62.4001 104.915 61.976C104.933 61.967 104.951 61.9579 104.969 61.9399C104.987 61.9309 105.005 61.9218 105.023 61.9128C105.032 61.9038 105.041 61.8948 105.05 61.8857C105.05 61.8767 105.059 61.8767 105.059 61.8677C105.366 60.8389 105.673 59.8011 105.971 58.7723C106.016 58.6189 105.962 58.4836 105.853 58.3572C104.707 57.0938 103.561 55.8214 102.415 54.5579C101.567 53.6284 100.728 52.6899 99.8793 51.7604C99.7619 51.625 99.7619 51.5077 99.8161 51.3543C99.9876 50.8941 100.15 50.4248 100.294 49.9555C100.583 49.017 100.917 48.0875 101.242 47.167C101.522 47.2121 101.801 47.2662 102.081 47.3204C101.982 47.8348 102.009 48.3492 102.108 48.8636C102.46 50.6775 103.254 52.2658 104.59 53.5562C105.005 53.9533 105.465 54.2872 106.025 54.4587C106.882 54.7294 107.586 54.3684 107.866 53.5111C107.983 53.1682 108.001 52.8072 108.028 52.3019C107.92 51.1738 107.631 50.1089 107.135 49.1253C110.032 50.6233 112.495 52.8614 114.3 55.5777C114.463 55.9477 114.625 56.3177 114.779 56.6877C115.618 58.7362 116.222 60.8479 116.674 63.0048ZM109.689 56.0379C108.786 56.056 108.046 56.7689 108.055 57.6172C108.064 58.4926 108.804 59.1784 109.752 59.1694C110.699 59.1604 111.412 58.4745 111.394 57.5811C111.385 56.7058 110.618 56.0199 109.689 56.0379Z" fill="#FC641C"/>
<path d="M90.3135 64.4578C89.6006 64.1509 89.2035 63.7268 89.1403 62.8334C89.014 60.9924 88.6981 59.1695 88.4635 57.3375C88.5357 57.2924 88.5447 57.2202 88.5537 57.139C88.6981 55.6229 88.9147 54.1158 89.2847 52.6358C89.3208 52.4824 89.3569 52.329 89.393 52.1756C89.5464 51.5078 89.6818 50.8309 90.0157 50.2173C89.9796 50.6685 89.9345 51.1107 89.8984 51.5619C89.7449 51.8236 89.8442 52.1124 89.8171 52.3831C89.754 52.5005 89.7359 52.6178 89.7359 52.7441C89.7359 52.7892 89.7359 52.8253 89.7359 52.8705C89.754 54.3956 89.6637 55.9207 89.8081 57.4548C89.9164 58.628 90.0608 59.8012 90.2503 60.9653C90.3045 61.2902 90.3676 61.6061 90.4308 61.9219C90.6293 62.8785 90.873 63.817 91.0625 64.7736C90.7557 64.7917 90.5571 64.557 90.3135 64.4578Z" fill="#FC641C"/>
<path d="M97.5795 51.2823C97.4983 51.4899 97.4802 51.6433 97.6427 51.8057C97.7239 51.887 97.7871 51.9953 97.8683 52.0855C99.1407 53.4031 100.44 54.6935 101.695 56.0292C102.38 56.7601 103.084 57.4821 103.788 58.204C104.014 58.4387 104.167 58.6914 104.194 59.0253C104.294 60.2165 104.447 61.3987 104.492 62.5989C104.221 62.4004 104.249 62.0755 104.167 61.8048C103.933 61.0196 103.725 60.2165 103.509 59.4223C103.445 59.1877 103.31 58.9982 103.139 58.8177C101.839 57.464 100.549 56.1104 99.258 54.7477C98.4007 53.8453 97.5615 52.9248 96.7041 52.0223C96.5237 51.8418 96.4785 51.6975 96.5868 51.4357C97.2185 49.9287 97.8141 48.4126 98.4368 46.8965C98.7256 46.8965 99.0144 46.9145 99.3032 46.9326C99.1678 47.2936 99.0234 47.6636 98.879 48.0245C98.4098 49.0984 98.0217 50.1994 97.5795 51.2823Z" fill="#FC9A1D"/>
<path d="M116.675 63.0052C116.224 60.8484 115.619 58.7276 114.78 56.6881C114.627 56.3181 114.464 55.9391 114.302 55.5781C116.341 58.6464 117.523 62.3284 117.523 66.281C117.523 67.021 117.478 67.743 117.397 68.4559C117.343 67.2647 117.271 66.0735 116.982 64.9093C116.973 64.2596 116.811 63.6369 116.675 63.0052Z" fill="#FC9A1D"/>
<path d="M99.8099 51.3364C99.7557 51.4988 99.7557 51.6161 99.8731 51.7425C100.721 52.672 101.561 53.6105 102.409 54.54C103.555 55.8034 104.701 57.0759 105.847 58.3393C105.955 58.4656 106.01 58.601 105.965 58.7544C105.667 59.7922 105.36 60.821 105.053 61.8498C105.053 61.8588 105.053 61.8588 105.044 61.8678C105.035 61.8768 105.026 61.8859 105.017 61.8949C104.999 61.9039 104.981 61.9129 104.963 61.922C104.945 61.931 104.927 61.94 104.909 61.9581C105.017 61.3444 105.116 60.7217 105.234 60.1081C105.27 59.9005 105.315 59.702 105.36 59.4944C105.441 59.1064 105.414 58.8356 105.125 58.5198C103.519 56.76 101.931 54.9822 100.342 53.2044C100.225 53.069 100.135 52.8886 99.9994 52.7893C99.2233 52.2478 99.1782 51.5891 99.467 50.7317C99.8731 49.5134 100.162 48.2591 100.532 47.0317C100.766 47.0588 100.992 47.0949 101.227 47.131C100.893 48.0515 100.568 48.981 100.279 49.9195C100.135 50.4069 99.9723 50.8761 99.8099 51.3364Z" fill="#FC9A1D"/>
<path d="M105.012 61.8947C105.021 61.8857 105.03 61.8767 105.039 61.8677C105.03 61.8857 105.021 61.8857 105.012 61.8947Z" fill="#FC9A1D"/>
<path d="M104.961 61.9309C104.98 61.9219 104.998 61.9128 105.016 61.9038C104.998 61.9038 104.98 61.9219 104.961 61.9309Z" fill="#FC9A1D"/>
<path d="M94.8793 57.6169C95.0147 58.0771 95.1591 58.5373 95.2854 58.9976C95.3395 59.1961 95.4388 59.2683 95.6464 59.2232C96.4766 59.0698 97.2978 58.9344 98.1281 58.79C98.7598 58.6908 99.4095 58.6366 100.023 58.4832C100.357 58.402 100.492 58.5283 100.637 58.7539C101.575 60.2339 102.478 61.741 103.452 63.1939C103.534 63.3203 103.615 63.4466 103.696 63.573C104.247 64.4664 104.671 65.4229 105.122 66.3705C105.474 67.1647 105.817 67.9588 106.178 68.7529C106.223 68.8432 106.268 68.9334 106.322 69.0147C106.358 69.0688 106.403 69.1229 106.44 69.1681C106.458 69.1951 106.485 69.2132 106.503 69.2403C106.719 69.4749 106.99 69.6734 107.243 69.881C107.387 70.0073 107.541 70.1427 107.685 70.269C107.73 70.3322 107.784 70.3954 107.838 70.4495C107.892 70.5037 107.947 70.5578 108.01 70.612C108.055 70.6481 108.1 70.6751 108.145 70.7022C108.253 70.8015 108.371 70.9007 108.479 70.991C108.614 71.1354 108.75 71.2798 108.894 71.4242C109.03 71.5505 109.165 71.6678 109.318 71.7671C109.372 71.8122 109.427 71.8573 109.481 71.8934C109.553 72.0198 109.643 72.0288 109.788 72.0107C110.04 71.9656 110.293 71.9295 110.546 71.8934C110.798 71.8573 111.051 71.8212 111.304 71.7851C112.269 71.6588 113.235 71.5686 114.201 71.4061C114.543 71.352 114.634 71.4783 114.733 71.749C115.076 72.6334 115.419 73.5178 115.762 74.4022C115.671 74.6007 115.572 74.7993 115.473 74.9978C115.166 74.4293 114.85 73.8607 114.543 73.2832C114.264 72.7598 114.137 72.6876 113.551 72.7959C112.666 72.9583 111.773 73.1298 110.952 73.4998C110.275 73.8066 109.815 73.6351 109.363 73.1298C109.002 72.7237 108.605 72.3627 108.217 71.9837C107.82 71.5956 107.45 71.1805 106.999 70.8466C106.295 70.3232 105.97 69.5561 105.618 68.78C105.113 67.6429 104.707 66.4517 104.039 65.4049C102.794 63.4737 101.485 61.5876 100.204 59.6834C100.059 59.4759 99.8878 59.503 99.6893 59.5481C98.2634 59.873 96.8286 60.1888 95.4027 60.5317C95.132 60.5949 95.0327 60.5678 94.9695 60.2791C94.5003 58.0681 94.0039 55.8661 93.5256 53.6552C93.4986 53.5288 93.3813 53.4025 93.5256 53.2852C93.7874 53.7274 93.7783 54.2688 94.0039 54.7291C94.2837 55.6947 94.5815 56.6513 94.8793 57.6169Z" fill="#FC9A1D"/>
<path d="M113.741 75.6025C113.516 75.44 113.308 75.3769 113.037 75.4039C111.891 75.5213 110.745 75.6296 109.599 75.7469C109.446 75.7649 109.31 75.7739 109.22 75.9274C108.02 77.8225 106.811 79.7176 105.601 81.6127C105.529 81.6578 105.502 81.7481 105.43 81.7842C105.403 81.7932 105.376 81.8022 105.34 81.8022C105.285 81.6939 105.186 81.6308 105.078 81.5947C105.015 81.4954 104.906 81.4683 104.807 81.4322C104.735 81.36 104.663 81.2788 104.6 81.2066C104.103 80.6922 103.562 80.223 102.957 79.8169C102.912 79.7898 102.867 79.7537 102.822 79.7266C102.795 79.6995 102.768 79.6725 102.732 79.6364C102.695 79.5642 102.632 79.5281 102.551 79.5461C102.551 79.501 102.542 79.4649 102.524 79.4378C102.497 79.3927 102.434 79.3747 102.371 79.3656C102.371 79.3566 102.362 79.3476 102.362 79.3386C102.325 79.2754 102.271 79.2483 102.19 79.2754C102.163 79.2303 102.136 79.1942 102.109 79.1491C102.073 79.0859 102.028 79.0227 101.983 78.9686C101.937 78.9144 101.892 78.8603 101.838 78.8152C101.703 78.6888 101.531 78.6166 101.279 78.6527C100.791 79.0498 100.187 79.2844 99.7445 79.7356C99.6633 79.7356 99.6001 79.7717 99.5369 79.8169C99.5008 79.8439 99.4647 79.871 99.4286 79.8981C98.2735 80.6832 97.1094 81.4593 95.9633 82.2444C95.7557 82.3888 95.5933 82.3978 95.3586 82.2805C93.2559 81.2427 91.1533 80.2139 89.0506 79.1942C88.852 79.1039 88.6986 78.9776 88.5723 78.8061C87.7511 77.7142 86.9208 76.6313 86.0906 75.5483C85.9462 75.3588 85.883 75.1693 85.874 74.9256C85.856 74.0413 85.874 73.1569 85.7928 72.2725C85.7567 71.8664 85.7838 71.4603 85.7838 70.9549C87.0652 72.7778 88.2835 74.5015 89.5018 76.2342C89.6011 76.3696 89.6913 76.4959 89.8447 76.5771C91.8301 77.5788 93.8064 78.5805 95.7918 79.5913C95.9362 79.6634 96.0535 79.7086 96.1889 79.5552C96.5679 79.131 96.992 78.752 97.3259 78.2827C97.6057 78.0661 97.8494 77.8135 98.084 77.5517C98.3186 77.29 98.5442 77.0193 98.7608 76.7486C98.8059 76.7035 98.8511 76.6493 98.8962 76.6042C99.1669 76.4327 99.3745 76.1891 99.564 75.9364C99.9069 75.5844 100.268 75.2415 100.593 74.8715C100.791 74.6459 100.927 74.6639 101.134 74.8625C102.208 75.9183 103.3 76.9381 104.365 78.003C104.636 78.2737 104.726 78.2015 104.897 77.9308C105.619 76.7486 106.35 75.5754 107.099 74.4203C107.28 74.1405 107.19 74.0052 106.973 73.8337C106.116 73.1749 105.285 72.4891 104.419 71.8393C104.139 71.6317 104.013 71.3791 103.932 71.0632C103.571 69.6825 103.21 68.3108 102.858 66.93C102.822 66.7857 102.777 66.6503 102.686 66.5149C101.64 65.0259 100.602 63.5369 99.573 62.0388C99.4106 61.8042 99.2481 61.732 98.9774 61.7591C97.5786 61.9035 96.1708 62.0388 94.772 62.1742C94.6547 62.1832 94.5284 62.1922 94.4111 62.2103C94.1042 62.2644 93.9689 62.1652 93.9869 61.8313C93.9959 61.7049 93.9869 61.5786 93.9779 61.4522C93.9689 61.3891 93.9689 61.3259 93.9598 61.2627C93.9237 60.9469 93.8696 60.631 93.9328 60.3062C94.0952 60.4866 94.1223 60.6942 94.1223 60.9108C94.1223 60.9559 94.1223 61.0101 94.1223 61.0552C94.1223 61.1725 94.1223 61.2898 94.1403 61.4071C94.2035 61.741 94.3028 61.7771 94.6006 61.732C95.5662 61.6057 96.5228 61.4883 97.4974 61.4162C97.7862 61.3891 98.0659 61.353 98.3457 61.3169C98.815 61.2537 99.2933 61.1996 99.7716 61.2086H99.7625C99.7535 61.2627 99.7535 61.3079 99.7625 61.353C99.7806 61.4793 99.8528 61.5696 100.033 61.5696C100.033 61.5966 100.033 61.6237 100.033 61.6418C100.033 61.8042 100.096 61.9305 100.304 61.9305C100.304 61.9666 100.313 62.0118 100.322 62.0479C100.322 62.0569 100.322 62.0569 100.322 62.0659C100.331 62.102 100.34 62.1381 100.349 62.1742C100.358 62.2103 100.376 62.2374 100.385 62.2735C100.394 62.3005 100.412 62.3276 100.421 62.3547C100.448 62.4088 100.475 62.454 100.512 62.4991C100.656 62.7066 100.845 62.8961 100.99 63.1037C101.649 64.0693 102.362 64.9988 103.047 65.9374C103.264 66.2352 103.381 66.56 103.472 66.921C103.787 68.2296 104.175 69.52 104.455 70.8376C104.591 71.4874 105.105 71.7491 105.511 72.1191C106.224 72.7598 106.964 73.3735 107.686 73.9961C107.785 74.0864 107.875 74.1676 107.776 74.3391C106.829 75.9905 105.899 77.651 104.961 79.3115C104.952 79.3295 104.933 79.3386 104.906 79.3566C104.897 79.3566 104.897 79.3656 104.888 79.3747C104.645 79.1761 104.401 78.9686 104.148 78.77C104.139 78.7339 104.13 78.7069 104.112 78.6798C104.076 78.6076 104.013 78.5715 103.932 78.5534C103.914 78.5534 103.896 78.5535 103.878 78.5444C103.86 78.5354 103.851 78.5174 103.833 78.5083C103.814 78.4903 103.796 78.4722 103.778 78.4632C103.751 78.4361 103.715 78.4 103.688 78.373C103.706 78.2195 103.589 78.1383 103.499 78.0391C102.704 77.2178 101.865 76.4417 101.116 75.5754C100.773 75.1783 100.701 75.2144 100.367 75.6295C99.0947 77.2088 97.7952 78.752 96.4416 80.2591C96.0986 80.6381 95.7918 80.6381 95.3857 80.4395C94.023 79.7717 92.7055 79.0137 91.3789 78.2737C91.0269 78.0752 90.693 77.8225 90.323 77.6781C89.3303 77.29 88.8881 76.4237 88.4008 75.5754C87.733 74.4203 87.0381 73.2742 86.3613 72.1281C86.3342 72.083 86.3072 72.0198 86.226 72.0288C86.226 72.6064 86.226 73.1839 86.226 73.7615C86.226 73.8788 86.2801 74.0052 86.2621 74.1135C86.1808 74.7632 86.3884 75.2866 86.8216 75.792C87.5435 76.6313 88.2113 77.5156 88.8972 78.391C88.9874 78.5083 89.1047 78.5625 89.222 78.6256C91.2616 79.6635 93.3011 80.6832 95.3316 81.7391C95.6384 81.9015 95.8459 81.8564 96.0986 81.6669C97.6869 80.4666 99.2933 79.2754 100.882 78.0752C101.161 77.8676 101.351 77.8044 101.676 78.0842C102.75 78.9866 103.887 79.8349 104.988 80.7103C105.222 80.8998 105.349 80.8637 105.511 80.602C106.531 78.9054 107.569 77.2178 108.588 75.5213C108.805 75.1513 109.067 75.0249 109.491 75.0249C110.754 75.0249 112.009 74.9798 113.272 74.9347C113.534 74.9256 113.723 74.9978 113.904 75.1874C114.202 75.5032 114.508 75.801 114.824 76.1078C114.779 76.1891 114.734 76.2703 114.68 76.3425C114.635 76.3064 114.59 76.2793 114.544 76.2432C114.292 76.0356 114.03 75.801 113.741 75.6025Z" fill="#FC9A1D"/>
<path d="M84.4769 52.5278C85.0996 53.683 85.7222 54.8381 86.3359 55.9932C86.3991 56.1105 86.4532 56.2459 86.4713 56.3722C86.6247 57.7981 86.7781 59.2239 86.9225 60.6498C87.0849 62.2381 87.2293 63.8354 87.3827 65.4237C87.4008 65.6312 87.4459 65.7846 87.7076 65.8207C88.7183 65.9561 89.72 66.1005 90.7217 66.29C90.9925 66.3442 91.3354 66.2088 91.543 66.5156C91.3625 66.5246 91.173 66.5156 90.9925 66.5066C90.8481 66.4976 90.7037 66.4885 90.5593 66.4705C90.1532 66.4344 89.7561 66.3803 89.35 66.3622C88.61 66.272 87.87 66.1637 87.121 66.0915C86.8593 66.0644 86.76 65.9742 86.742 65.7125C86.7239 65.2973 86.6698 64.8732 86.6337 64.4581C86.5886 64.0339 86.5435 63.6098 86.4983 63.1856C86.4893 63.0683 86.4803 62.951 86.4622 62.8337C86.4622 62.59 86.4983 62.3373 86.39 62.1027C86.363 61.7598 86.3269 61.4259 86.2998 61.0829C86.2727 60.8212 86.2547 60.5595 86.2276 60.2978C86.2186 60.1625 86.2005 60.0271 86.1915 59.8917C86.1644 59.5578 86.1374 59.2239 86.1013 58.89C86.0742 58.529 86.0471 58.1771 86.02 57.8161C86.002 57.6086 85.993 57.41 85.9749 57.2025C85.9298 56.4805 85.7313 55.8217 85.4244 55.181C85.2349 54.7839 85.0544 54.3869 84.892 53.9898C84.7657 53.6739 84.6122 53.3671 84.4679 53.0512C84.4047 52.9249 84.3505 52.7895 84.2964 52.6542C84.3776 52.6361 84.4318 52.582 84.4769 52.5278Z" fill="#FC9A1D"/>
<path d="M91 66.5156C90.8556 66.5066 90.7112 66.4975 90.5668 66.4795C90.7112 66.4975 90.8556 66.5066 91 66.5156Z" fill="#FC9A1D"/>
<path d="M81.9641 73.428C81.9731 73.419 81.9911 73.419 82.0002 73.41C82.0633 73.3829 82.1355 73.3468 82.1987 73.3197C82.2709 73.2927 82.3341 73.2656 82.4062 73.2385L82.325 73.2295L82.4062 73.2385C82.3972 73.4461 82.2077 73.4912 82.0904 73.5905C81.6211 73.9785 81.1428 74.3575 80.6736 74.7366C80.6014 74.5832 80.5292 74.4297 80.457 74.2673C80.818 74.0688 81.1699 73.8522 81.5309 73.6536C81.6753 73.5724 81.8197 73.4912 81.9641 73.428Z" fill="#FC9A1D"/>
<path d="M88.3576 56.1738C88.3937 56.5618 88.4298 56.9499 88.4749 57.3379C88.7095 59.1699 89.0254 60.9928 89.1517 62.8338C89.2149 63.7272 89.612 64.1513 90.3249 64.4582C90.5686 64.5574 90.7581 64.7921 91.0559 64.765C91.0649 64.783 91.0739 64.8101 91.0829 64.8191C91.0829 64.8282 91.092 64.8282 91.092 64.8372C91.101 64.8462 91.11 64.8552 91.119 64.8733C91.1281 64.8823 91.1281 64.8823 91.1371 64.8913C91.1461 64.9004 91.1551 64.9094 91.1642 64.9184C91.1732 64.9274 91.1732 64.9274 91.1822 64.9365C91.1912 64.9455 91.2003 64.9545 91.2093 64.9545C91.2183 64.9545 91.2183 64.9635 91.2273 64.9635C91.2364 64.9726 91.2454 64.9726 91.2634 64.9816C91.2725 64.9816 91.2725 64.9906 91.2815 64.9906C91.2905 64.9996 91.3086 64.9996 91.3176 65.0087C91.3266 65.0087 91.3266 65.0177 91.3356 65.0177C91.3537 65.0267 91.3717 65.0357 91.3898 65.0448C91.4078 65.0538 91.4259 65.0628 91.4439 65.0718C91.462 65.0808 91.489 65.0899 91.5071 65.1079C92.1659 65.514 92.8968 65.8028 93.5195 66.2811C93.4564 66.2811 93.3932 66.2901 93.339 66.2721C91.9222 65.6584 90.5054 65.0448 89.0886 64.4311C88.9171 64.3589 88.8539 64.2145 88.8269 64.043C88.493 61.8321 88.1771 59.6121 87.8161 57.4011C87.7169 56.7784 87.78 56.1106 87.3378 55.5601C86.6971 54.766 86.0744 53.9628 85.4788 53.1416C85.4247 53.0694 85.3705 52.9972 85.3073 52.934C85.2712 52.8889 85.2261 52.8438 85.19 52.7987C85.1539 52.7535 85.1088 52.7084 85.0727 52.6633C85.0366 52.6182 84.9915 52.5731 84.9554 52.5189C84.9373 52.4918 84.9193 52.4738 84.9012 52.4467C84.8742 52.4106 84.8471 52.3745 84.8291 52.3294C84.811 52.3023 84.802 52.2662 84.7839 52.2392C84.82 52.2031 84.8651 52.167 84.9012 52.1309C85.9932 53.3492 87.0851 54.5674 88.1771 55.7857C88.2854 55.894 88.3395 56.0204 88.3576 56.1738Z" fill="#FC9A1D"/>
<path d="M84.783 52.23C84.8011 52.2571 84.8101 52.2932 84.8281 52.3202C84.8101 52.2932 84.8011 52.2571 84.783 52.23Z" fill="#FC9A1D"/>
<path d="M98.9858 52.1846C99.7439 53.1412 100.475 54.1068 101.215 55.0724C101.197 55.0995 101.17 55.1175 101.152 55.1446C100.132 54.1429 99.2024 53.06 98.2278 52.0222C98.0744 51.8507 98.1375 51.6973 98.1917 51.5258C98.4985 50.5331 98.7783 49.5404 99.1031 48.5568C99.2746 48.0334 99.41 47.4919 99.5814 46.9595C99.7619 46.9685 99.9424 46.9865 100.123 47.0046C99.7078 48.5207 99.2836 50.0278 98.8595 51.5348C98.7783 51.7875 98.8144 51.968 98.9858 52.1846Z" fill="#FCFAC6"/>
<path d="M101.44 55.4604C101.449 55.4514 101.467 55.4424 101.476 55.4243C101.513 55.4514 101.558 55.4785 101.594 55.5055C101.585 55.5146 101.576 55.5236 101.558 55.5326C101.504 55.5507 101.467 55.5236 101.44 55.4604Z" fill="#FCFAC6"/>
<path d="M101.348 55.3703C101.366 55.3523 101.384 55.3342 101.393 55.3252C101.42 55.3613 101.447 55.3974 101.465 55.4335C101.456 55.4425 101.438 55.4515 101.429 55.4696C101.411 55.4335 101.384 55.4064 101.348 55.3703Z" fill="#FCFAC6"/>
<path d="M101.316 55.2803C101.343 55.2983 101.379 55.3073 101.406 55.3254C101.388 55.3434 101.37 55.3615 101.361 55.3705C101.343 55.3434 101.325 55.3164 101.316 55.2803Z" fill="#FCFAC6"/>
<path d="M105.971 81.6316C105.845 81.6225 105.719 81.6135 105.601 81.6045C106.811 79.7094 108.02 77.8142 109.22 75.9191C109.319 75.7657 109.455 75.7567 109.599 75.7386C110.745 75.6303 111.891 75.5221 113.038 75.3957C113.308 75.3686 113.516 75.4318 113.741 75.5942C114.021 75.8018 114.292 76.0274 114.572 76.244C114.617 76.2801 114.662 76.3162 114.707 76.3433C113.507 78.3196 111.964 80.0613 110.159 81.4872C109.41 81.6135 108.643 81.6947 107.858 81.7038C107.226 81.7128 106.594 81.7218 105.971 81.6316Z" fill="#FC0134"/>
<path d="M93.9358 61.2726C93.9449 61.3358 93.9539 61.3989 93.9539 61.4621C93.9629 61.5885 93.9719 61.7148 93.9629 61.8411C93.9449 62.166 94.0802 62.2743 94.3871 62.2202C94.5044 62.2021 94.6217 62.1931 94.748 62.1841C96.1468 62.0487 97.5546 61.9133 98.9534 61.7689C99.2241 61.7419 99.3956 61.8141 99.549 62.0487C100.578 63.5468 101.625 65.0358 102.662 66.5248C102.753 66.6511 102.798 66.7865 102.834 66.9399C103.186 68.3207 103.556 69.7014 103.908 71.0731C103.989 71.3799 104.115 71.6416 104.395 71.8492C105.261 72.4989 106.101 73.1848 106.949 73.8436C107.166 74.015 107.265 74.1414 107.075 74.4302C106.326 75.5943 105.595 76.7675 104.873 77.9406C104.702 78.2114 104.612 78.2926 104.341 78.0128C103.276 76.948 102.184 75.9192 101.11 74.8723C100.903 74.6648 100.767 74.6467 100.569 74.8814C100.244 75.2514 99.8829 75.5943 99.54 75.9462C99.3505 76.1989 99.1429 76.4426 98.8722 76.6141C98.8271 76.6592 98.7819 76.7133 98.7368 76.7584C98.7007 76.6953 98.6736 76.6411 98.6375 76.578C98.7007 76.578 98.7639 76.578 98.8271 76.5689C98.7639 76.5689 98.7007 76.5689 98.6375 76.578C98.5744 76.5238 98.5112 76.4606 98.439 76.4065C98.1953 76.2892 98.0058 76.1177 97.8163 75.9282C97.7893 75.9011 97.7622 75.8741 97.7351 75.847C97.69 75.7928 97.6539 75.7387 97.6088 75.6845C97.2297 75.477 96.9139 75.1972 96.6432 74.8633C95.7678 74.0872 94.9736 73.2389 94.2878 72.3184C94.1524 72.1289 94.0171 71.9394 93.8907 71.7499C93.638 71.3619 93.3944 70.9648 93.1778 70.5497C92.519 69.2953 92.0407 67.9777 91.5895 66.6421C91.5985 66.615 91.5985 66.588 91.5895 66.5519C92.0678 66.606 92.5551 66.6602 93.0334 66.7143C93.0695 66.7143 93.0966 66.7233 93.1327 66.7233C93.6019 66.7865 94.0802 66.8407 94.5495 66.9038C94.5585 66.8767 94.5585 66.8497 94.5675 66.8226C94.2066 66.6421 93.8546 66.4616 93.4936 66.2811C92.871 65.8028 92.14 65.5141 91.4812 65.108C91.4632 65.0989 91.4361 65.0809 91.418 65.0719C91.4 65.0628 91.3819 65.0538 91.3639 65.0448C91.3458 65.0358 91.3278 65.0268 91.3097 65.0177C91.3007 65.0177 91.3007 65.0087 91.2917 65.0087C91.2827 64.9997 91.2646 64.9997 91.2556 64.9907C91.2466 64.9907 91.2466 64.9816 91.2376 64.9816C91.2285 64.9726 91.2195 64.9726 91.2015 64.9636C91.1924 64.9636 91.1924 64.9546 91.1834 64.9546C91.1744 64.9455 91.1654 64.9365 91.1563 64.9365C91.1473 64.9275 91.1473 64.9275 91.1383 64.9185C91.1293 64.9094 91.1202 64.9004 91.1112 64.8914C91.1022 64.8824 91.1022 64.8824 91.0932 64.8733C91.0841 64.8643 91.0751 64.8553 91.0661 64.8372C91.0661 64.8282 91.0571 64.8282 91.0571 64.8192C91.048 64.8011 91.039 64.7831 91.03 64.765C90.8405 63.8085 90.5968 62.8699 90.3983 61.9133C90.3351 61.5975 90.2719 61.2726 90.2178 60.9568C90.0283 59.7926 89.8839 58.6285 89.7756 57.4463C89.6312 55.9211 89.7215 54.396 89.7034 52.8619C89.7034 52.8168 89.7034 52.7807 89.7034 52.7355C89.7034 52.6092 89.7215 52.4919 89.7846 52.3746C89.8117 52.1038 89.7215 51.8151 89.8658 51.5533C89.9019 51.1021 89.9471 50.6599 89.9832 50.2087C90.1095 49.5951 90.299 49.0085 90.5066 48.4309C91.8873 47.8714 93.3132 47.4382 94.8022 47.1855C94.6307 47.8353 94.5405 48.5121 94.5314 49.216C94.5134 50.7321 94.8654 52.1851 95.3888 53.6019C95.488 53.8636 95.5873 54.1163 95.7046 54.369C95.7497 54.4682 95.7858 54.5585 95.831 54.6487C95.9032 54.8021 95.9753 54.9555 96.0475 55.109C96.0566 55.127 96.0656 55.1541 96.0836 55.1721C96.1558 55.3255 96.2371 55.479 96.3093 55.6414C96.3814 55.7948 96.4536 55.9392 96.5258 56.0926C96.5349 56.1107 96.5439 56.1377 96.5529 56.1558C96.6251 56.3092 96.6973 56.4626 96.7695 56.616C96.6973 56.5799 96.6251 56.5709 96.5529 56.5619C96.6251 56.5619 96.6973 56.5799 96.7695 56.616C96.7966 56.6702 96.8327 56.7243 96.8597 56.7785C97.2027 57.2658 97.5275 57.7531 97.8253 58.2675C97.9246 58.439 98.0239 58.6104 98.1141 58.7819C97.2839 58.9263 96.4627 59.0707 95.6324 59.215C95.4249 59.2511 95.3256 59.179 95.2714 58.9894C95.1451 58.5292 95.0007 58.069 94.8654 57.6087C94.5675 56.6431 94.2697 55.6865 93.9719 54.7209C93.7463 54.2607 93.7554 53.7282 93.4936 53.277C93.4846 53.1687 93.4666 53.0604 93.4395 52.9521C93.4124 52.8438 93.3763 52.7446 93.3312 52.6453C93.3402 52.5731 93.3132 52.519 93.2771 52.4648C93.259 52.4287 93.2319 52.4016 93.2049 52.3655C93.1958 52.3746 93.1778 52.3926 93.1688 52.4016C93.1507 52.4287 93.1417 52.4468 93.1417 52.4738C93.1417 52.5009 93.1417 52.519 93.1507 52.546C93.1597 52.5821 93.1868 52.6092 93.2229 52.6453C93.25 53.0063 93.2771 53.3672 93.3041 53.7282C93.3402 54.0621 93.3673 54.396 93.4034 54.7209C93.4575 55.118 93.5027 55.5151 93.5388 55.9121C93.6561 57.1033 93.7283 58.2946 93.8366 59.4858C93.7914 59.585 93.7734 59.6843 93.8095 59.7746C93.8185 59.7926 93.8275 59.8016 93.8366 59.8197C93.8456 59.8377 93.8636 59.8468 93.8727 59.8648C93.8817 60.0092 93.8817 60.1626 93.8907 60.307C93.8546 60.6319 93.8997 60.9477 93.9358 61.2726Z" fill="#FC0134"/>
<path d="M96.5198 56.1016C96.5288 56.1196 96.5379 56.1467 96.5469 56.1647C96.5469 56.1467 96.5379 56.1196 96.5198 56.1016Z" fill="#FC0134"/>
<path d="M95.8303 54.6572C95.9025 54.8106 95.9747 54.9641 96.0469 55.1175C95.9747 54.9641 95.9025 54.8106 95.8303 54.6572Z" fill="#FC0134"/>
<path d="M96.0791 55.1895C96.1513 55.3429 96.2325 55.4963 96.3047 55.6587C96.2325 55.4963 96.1513 55.3429 96.0791 55.1895Z" fill="#FC0134"/>
<path d="M91.2773 64.9895C91.2688 64.9895 91.2688 64.981 91.2602 64.981C91.2688 64.981 91.2688 64.9895 91.2773 64.9895Z" fill="#FC0134"/>
<path d="M91.1797 64.9263C91.1711 64.9178 91.1711 64.9178 91.1625 64.9092C91.1625 64.9178 91.1711 64.9178 91.1797 64.9263Z" fill="#FC0134"/>
<path d="M91.1196 64.873C91.1281 64.8816 91.1281 64.8816 91.1367 64.8902C91.1281 64.8816 91.1281 64.873 91.1196 64.873Z" fill="#FC0134"/>
<path d="M91.0938 64.836C91.0938 64.8274 91.0852 64.8274 91.0852 64.8188C91.0852 64.8274 91.0938 64.8274 91.0938 64.836Z" fill="#FC0134"/>
<path d="M91.2266 64.9627C91.218 64.9627 91.218 64.9541 91.2094 64.9541C91.218 64.9541 91.218 64.9541 91.2266 64.9627Z" fill="#FC0134"/>
<path d="M91.3359 65.0169C91.3274 65.0169 91.3274 65.0083 91.3188 65.0083C91.3274 65.0083 91.3274 65.0169 91.3359 65.0169Z" fill="#FC0134"/>
<path d="M114.182 71.3979C113.225 71.5604 112.251 71.6597 111.285 71.777C111.032 71.8131 110.78 71.8492 110.527 71.8853C110.274 71.9214 110.022 71.9575 109.769 72.0026C109.634 72.0297 109.534 72.0116 109.462 71.8853C109.408 71.8401 109.354 71.795 109.3 71.7589C109.146 71.6597 109.011 71.5333 108.876 71.416C108.731 71.2806 108.596 71.1362 108.46 70.9828C108.352 70.8836 108.235 70.7843 108.126 70.694C108.081 70.667 108.036 70.6399 107.991 70.6038C107.928 70.5587 107.874 70.5045 107.82 70.4414C107.766 70.3872 107.711 70.324 107.666 70.2609C107.666 70.2067 107.675 70.1436 107.675 70.0894C107.675 70.1436 107.666 70.2067 107.666 70.2609C107.522 70.1345 107.368 69.9992 107.224 69.8728C106.971 69.6653 106.71 69.4667 106.484 69.2321C106.466 69.205 106.439 69.187 106.421 69.1599C106.376 69.1148 106.34 69.0606 106.304 69.0065C106.249 68.9253 106.195 68.844 106.159 68.7448C105.798 67.9506 105.455 67.1565 105.112 66.3623C105.726 66.6962 106.34 67.0301 106.953 67.364C107.08 67.4092 107.206 67.4543 107.332 67.5084C109.11 68.2304 110.951 68.5101 112.828 68.0499C114.651 67.6077 116.032 66.5248 116.979 64.9004C117.268 66.0645 117.34 67.2648 117.395 68.456C117.16 70.5587 116.591 72.5531 115.743 74.394C115.4 73.5097 115.057 72.6253 114.714 71.7409C114.615 71.4701 114.525 71.3438 114.182 71.3979ZM111.294 71.6416C111.303 71.6055 111.312 71.5694 111.321 71.5423C111.312 71.5694 111.303 71.6055 111.294 71.6416Z" fill="#FC0134"/>
<path d="M84.9202 54.0165C85.0826 54.4226 85.2631 54.8197 85.4526 55.2078C85.7594 55.8485 85.958 56.5073 86.0031 57.2292C86.0121 57.4368 86.0302 57.6353 86.0482 57.8429C86.0753 58.2039 86.1024 58.5558 86.1294 58.9168C86.1565 59.2507 86.1836 59.5846 86.2197 59.9185C86.2287 60.0539 86.2468 60.1892 86.2558 60.3246C86.2829 60.5863 86.3009 60.848 86.328 61.1097C86.355 61.4526 86.3911 61.7865 86.4182 62.1295C86.355 62.1565 86.2919 62.1836 86.2287 62.2017C86.2919 62.1836 86.355 62.1565 86.4182 62.1295C86.5265 62.3641 86.4904 62.6168 86.4904 62.8604C86.4994 62.9778 86.5085 63.0951 86.5265 63.2124C86.5716 63.6365 86.6168 64.0607 86.6619 64.4848C86.698 64.8999 86.7521 65.3151 86.7702 65.7392C86.7792 66.0009 86.8875 66.0912 87.1492 66.1182C87.8982 66.1904 88.6382 66.2897 89.3782 66.389C89.5046 67.0477 89.7031 67.6795 89.9287 68.3021C90.0641 68.6721 90.2175 69.0421 90.3619 69.4121C91.4899 72.2007 93.1143 74.6553 95.3343 76.7038C95.957 77.2814 96.6158 77.8319 97.3287 78.3012C97.0038 78.7704 96.5797 79.1494 96.1916 79.5736C96.0563 79.727 95.948 79.6819 95.7946 79.6097C93.8182 78.599 91.8328 77.5973 89.8475 76.5955C89.6941 76.5143 89.5948 76.388 89.5046 76.2526C88.2863 74.5199 87.068 72.7963 85.7865 70.9734C85.7865 71.4787 85.7594 71.8848 85.7955 72.2909C85.8768 73.1753 85.8587 74.0597 85.8768 74.9441C85.8858 75.1787 85.949 75.3773 86.0933 75.5668C86.9236 76.6497 87.7538 77.7326 88.575 78.8246C88.7104 78.996 88.8548 79.1224 89.0533 79.2126C91.156 80.2324 93.2677 81.2611 95.3614 82.299C95.596 82.4163 95.7585 82.4072 95.966 82.2629C97.1121 81.4687 98.2763 80.6926 99.4314 79.9165C99.4675 79.8894 99.5036 79.8624 99.5397 79.8353C99.6028 79.7902 99.666 79.7541 99.7472 79.7541C100.253 80.0519 100.767 80.2955 101.308 80.5031C101.381 80.5302 101.462 80.5663 101.534 80.5933C101.687 80.6475 101.841 80.7016 101.994 80.7558C102.148 80.8099 102.31 80.8641 102.464 80.9092C102.779 81.0085 103.095 81.0987 103.411 81.198C103.537 81.2341 103.673 81.2702 103.799 81.2972C103.709 81.4777 103.709 81.4777 103.799 81.2972C104.133 81.3514 104.467 81.4055 104.801 81.4507C104.909 81.4777 105.008 81.5138 105.072 81.6131C105.18 81.6492 105.279 81.7124 105.333 81.8207C105.369 81.8207 105.396 81.8116 105.424 81.8026C105.496 81.7665 105.532 81.6672 105.595 81.6311C105.721 81.6402 105.848 81.6492 105.965 81.6582C106.588 81.7485 107.219 81.7394 107.851 81.7394C108.636 81.7304 109.394 81.6582 110.152 81.5229C108.97 82.4614 107.68 83.2555 106.299 83.8963C106.227 83.797 106.082 83.7699 105.83 83.788C105.712 83.815 105.613 83.788 105.568 83.6887C105.622 83.788 105.712 83.815 105.83 83.788C106.082 83.7699 106.227 83.797 106.299 83.8963C103.817 85.0514 101.056 85.6921 98.1409 85.6921C90.9124 85.6921 84.6133 81.7394 81.2833 75.8736C81.3736 75.6931 81.4638 75.5216 81.5631 75.3502C81.6533 75.2058 81.7436 75.0614 81.8429 74.917C82.2941 74.2763 82.7272 73.6175 83.0521 72.8955H83.0611L83.0521 72.8865L83.0611 72.8955C83.0702 72.8865 83.0792 72.8865 83.0882 72.8775C83.0792 72.8775 83.0612 72.8865 83.0521 72.8865V72.8955C82.8355 72.9136 82.7363 73.1573 82.5287 73.1843C82.4926 73.1753 82.4565 73.1843 82.4475 73.2204C82.4385 73.2295 82.4385 73.2385 82.4385 73.2565C82.3663 73.2836 82.2941 73.3107 82.2309 73.3377C82.1677 73.3648 82.0955 73.4009 82.0324 73.428C82.0233 73.437 82.0053 73.437 81.9963 73.446C81.8519 73.5182 81.7075 73.5904 81.5631 73.6716C81.2021 73.8702 80.8502 74.0868 80.4892 74.2853C79.3882 71.8487 78.7746 69.1504 78.7746 66.3078C78.7746 61.0104 80.9043 56.2095 84.3426 52.708C84.3968 52.8434 84.4509 52.9697 84.5141 53.1051C84.6404 53.3939 84.7938 53.7007 84.9202 54.0165Z" fill="#B80C31"/>
<path d="M86.2109 59.9187C86.1839 59.5848 86.1568 59.2509 86.1207 58.917C86.1478 59.2509 86.1839 59.5848 86.2109 59.9187Z" fill="#B80C31"/>
<path d="M86.3203 61.101C86.2932 60.8393 86.2752 60.5776 86.2481 60.3159C86.2662 60.5866 86.2932 60.8484 86.3203 61.101Z" fill="#B80C31"/>
<path d="M82.0117 73.4102C82.0029 73.419 81.9852 73.419 81.9764 73.4278C81.9852 73.419 81.9941 73.4102 82.0117 73.4102Z" fill="#B80C31"/>
<path d="M82.4219 73.2295C82.3497 73.2566 82.2775 73.2836 82.2143 73.3107C82.2865 73.2836 82.3497 73.2566 82.4219 73.2295Z" fill="#B80C31"/>
<path d="M90.0169 50.2175C89.683 50.8311 89.5476 51.508 89.3942 52.1758C89.3581 52.3292 89.322 52.4826 89.2859 52.636C88.9159 54.116 88.7083 55.6231 88.5549 57.1392C88.5459 57.2114 88.5369 57.2836 88.4647 57.3377C88.4286 56.9497 88.3834 56.5616 88.3474 56.1736C88.3293 56.0202 88.2752 55.8848 88.1669 55.7675C87.0749 54.5492 85.983 53.3309 84.891 52.1126C86.5334 50.5785 88.4376 49.3241 90.5312 48.4307C90.3327 49.0172 90.1432 49.6129 90.0169 50.2175Z" fill="#B80C31"/>
<path fill-rule="evenodd" clip-rule="evenodd" d="M81.4969 65.3356C81.4969 75.0879 89.3989 82.9837 99.1328 82.9852C108.867 82.9866 116.769 75.0931 116.769 65.3408C116.769 55.5885 108.867 47.6927 99.1328 47.6913C89.3989 47.6898 81.4969 55.5833 81.4969 65.3356ZM99.1328 90.8382C85.0434 90.8361 73.6328 79.4116 73.6328 65.3345C73.6328 51.2574 85.0434 39.8361 99.1328 39.8382C113.222 39.8403 124.633 51.2649 124.633 65.342C124.633 79.4191 113.222 90.8403 99.1328 90.8382Z" fill="black"/>
<circle cx="30.336" cy="65.2989" r="19.4024" fill="#B80C31"/>
<path d="M46.6719 73.3849C46.7892 73.7008 47.2855 74.0617 47.466 74.3325C47.5292 74.2152 47.5924 74.0888 47.6555 73.9715C47.4209 73.8091 46.9968 73.4391 46.7621 73.2856C46.7441 73.2947 46.6809 73.3669 46.6719 73.3849Z" fill="#FCFAC6"/>
<path d="M14.2273 73.9983C14.5793 73.5922 14.9583 73.4659 15.4817 73.502C16.7542 73.5832 18.0266 73.6283 19.3081 73.6554C19.6239 73.6644 19.8224 73.7547 20.0029 74.0254C21.0227 75.5956 22.0876 77.1478 23.0983 78.7271C23.342 79.1152 23.5044 79.052 23.7932 78.8173C24.9393 77.8698 26.1034 76.9493 27.2495 76.0017C27.5112 75.7852 27.6737 75.74 27.9444 76.0198C28.6302 76.7147 29.3612 77.3644 30.0741 78.0232C30.1734 78.1225 30.2546 78.2849 30.4712 78.2398C30.399 78.0412 30.2637 77.9149 30.1373 77.7886C29.4334 77.0666 28.7295 76.3537 28.0256 75.6317C27.5654 75.1625 27.5744 75.1715 27.051 75.5776C26.2839 76.1732 25.58 76.85 24.7588 77.3734V77.3644C24.7317 77.3915 24.6956 77.4276 24.6685 77.4547C24.6505 77.4727 24.6324 77.4908 24.6144 77.4998C24.5963 77.5088 24.5783 77.4998 24.5693 77.5088L24.5512 77.5178C24.5422 77.5449 24.5422 77.4998 24.5151 77.5178C24.4971 77.5359 24.4249 77.5178 24.4068 77.5269C24.3978 77.5359 24.3798 77.5449 24.3707 77.5539C24.3437 77.572 24.3256 77.6171 24.2985 77.6352C24.2895 77.6442 24.3076 77.7525 24.2985 77.7615C24.0549 77.96 23.8112 78.1676 23.5585 78.3661C23.5134 78.4203 23.4773 78.4473 23.4502 78.4564C23.4322 78.4654 23.4141 78.4654 23.4051 78.4654C23.3329 78.4564 23.2788 78.3661 23.2246 78.2849C22.1507 76.5522 21.0768 74.8105 19.9939 73.0869C19.8224 72.8161 20.039 72.7439 20.1744 72.6266C21.1851 71.7783 22.1959 70.921 23.2156 70.0908C23.4773 69.8832 23.6217 69.6305 23.712 69.3147C24.0459 68.0964 24.3978 66.8961 24.7407 65.6778C24.8039 65.4613 24.8941 65.2627 25.0295 65.0732C26.0132 63.7466 26.9968 62.42 27.9805 61.0935C28.0346 61.0213 28.0707 60.94 28.179 60.922C28.2061 60.7505 28.2873 60.6332 28.4498 60.561C28.4678 60.3896 28.5671 60.2722 28.7205 60.2H28.7115C28.7837 59.83 29.0634 59.9474 29.28 59.9654C30.7239 60.1279 32.1678 60.2993 33.6207 60.4618C33.8012 60.4798 33.9546 60.4798 33.9456 60.2271C33.9366 59.794 33.9456 59.3698 33.9456 58.8013C33.7922 59.2074 33.6749 59.4961 33.5846 59.794C33.5124 60.0557 33.3861 60.1549 33.0973 60.1008C31.7527 59.8752 30.399 59.6857 29.0544 59.433C28.7024 59.3698 28.54 59.4691 28.3595 59.7308C27.5112 60.931 26.6178 62.1042 25.7876 63.3225C25.192 64.1978 24.4339 64.9739 24.0549 65.9937C23.6488 67.1127 23.2156 68.2137 22.8005 69.3237C22.7102 69.5583 22.5839 69.7388 22.3944 69.9013C21.2934 70.8488 20.1924 71.8054 19.1005 72.771C18.902 72.9515 18.7124 72.9966 18.4507 72.9695C17.2415 72.8522 16.0322 72.762 14.8139 72.6537C14.6064 72.6356 14.4439 72.6627 14.3085 72.8613C13.9656 73.3937 13.6137 73.9352 13.2617 74.4676C13.3159 74.5759 13.379 74.6842 13.4422 74.7834C13.7129 74.5488 13.9837 74.2871 14.2273 73.9983Z" fill="#FCFAC6"/>
<path d="M46.3526 72.5818C46.2353 72.4826 46.0458 72.4374 46.0367 72.2299C46.0006 72.2118 45.9736 72.1848 45.9375 72.1667C45.7299 72.1306 45.6306 71.896 45.4141 71.8779C45.7389 72.5999 46.1721 73.2587 46.6233 73.8994C46.7226 74.0438 46.8128 74.1882 46.9031 74.3326C47.0024 74.504 47.1016 74.6845 47.1828 74.856C47.2821 74.6845 47.3724 74.504 47.4716 74.3326C47.2911 74.0618 47.0384 73.8362 46.9211 73.5294C46.867 73.4933 46.8219 73.4482 46.7677 73.4121H46.7587C46.7497 73.4031 46.7497 73.394 46.7406 73.385C46.7497 73.394 46.7587 73.403 46.7587 73.403C46.8038 73.394 46.8489 73.4031 46.885 73.4211C46.9031 73.4301 46.9302 73.4572 46.9392 73.4843C47.1738 73.6467 47.4084 73.8091 47.6431 73.9626C47.6792 73.8813 47.7243 73.8001 47.7604 73.7189C47.2911 73.3489 46.8219 72.9699 46.3526 72.5818Z" fill="#FCEA17"/>
<path d="M43.5594 51.4375C43.5413 51.4646 43.5233 51.4827 43.5052 51.5097C43.4691 51.5549 43.433 51.609 43.3879 51.6541C43.3518 51.6992 43.3067 51.7444 43.2706 51.7895C43.2345 51.8346 43.1894 51.8797 43.1533 51.9249C43.0901 51.9971 43.036 52.0602 42.9818 52.1324C42.3772 52.9536 41.7545 53.7568 41.1228 54.551C40.6806 55.1014 40.7438 55.7692 40.6445 56.3919C40.2835 58.6029 39.9677 60.8229 39.6338 63.0339C39.6067 63.2053 39.5435 63.3497 39.3721 63.4219C37.9552 64.0356 36.5384 64.6492 35.1216 65.2629C35.0674 65.2809 35.0043 65.2719 34.9411 65.2719C34.5801 65.4524 34.2282 65.6329 33.8672 65.8134C33.8762 65.8405 33.8762 65.8675 33.8852 65.8946C34.3545 65.8314 34.8328 65.7773 35.3021 65.7141C35.3201 65.678 35.3472 65.669 35.3743 65.678C35.3833 65.678 35.3923 65.687 35.4013 65.6961C35.8796 65.6419 36.3669 65.5878 36.8452 65.5336C36.8543 65.5246 36.8633 65.5246 36.8723 65.5246C36.8813 65.5246 36.8904 65.5246 36.9084 65.5246L36.9174 65.5156C37.125 65.2087 37.4679 65.3441 37.7386 65.29C38.7313 65.0914 39.7421 64.9561 40.7528 64.8207C41.0145 64.7846 41.0596 64.6222 41.0777 64.4236C41.2311 62.8353 41.3755 61.238 41.5379 59.6497C41.6823 58.2239 41.8357 56.798 41.9891 55.3722C42.0072 55.2458 42.0613 55.1105 42.1245 54.9931C42.7382 53.838 43.3608 52.6829 43.9835 51.5278C43.8843 51.4285 43.785 51.3292 43.6767 51.23C43.6586 51.2571 43.6496 51.2932 43.6316 51.3202C43.6045 51.3563 43.5864 51.3924 43.5594 51.4375ZM43.0901 52.5836C43.0721 52.6197 43.045 52.6558 43.0269 52.6919C42.8735 52.9988 42.7562 53.3236 42.5847 53.6124C42.5577 53.6575 42.5306 53.6936 42.5035 53.7297C41.8086 54.7314 41.6552 55.8775 41.5379 57.0507C41.3304 59.0361 41.0055 61.0124 40.8701 62.9978C40.8069 63.9092 40.464 64.2341 39.6247 64.4146C38.3613 64.6853 37.134 65.0824 35.8886 65.4163C35.7894 65.4434 35.6811 65.4434 35.5638 65.3983C36.8633 64.8387 38.1538 64.2792 39.4533 63.7378C39.8684 63.5663 40.0669 63.3678 40.1301 62.8805C40.446 60.3988 40.825 57.917 41.186 55.4444C41.2311 55.1105 41.3213 54.8127 41.5379 54.5419C42.0252 53.9102 42.4855 53.2605 42.9547 52.6197C42.9638 52.6107 42.9638 52.6017 42.9728 52.5927C42.9908 52.5656 43.0089 52.5385 43.036 52.5114C43.063 52.4753 43.0721 52.4032 43.1172 52.4212C43.1262 52.4212 43.1352 52.4302 43.1443 52.4302C43.1713 52.4753 43.1352 52.5385 43.0901 52.5836Z" fill="#FCEA17"/>
<path d="M14.528 74.1971C14.7085 74.0076 14.898 73.9354 15.1597 73.9444C16.4231 73.9896 17.6775 74.0347 18.9409 74.0347C19.3741 74.0347 19.6267 74.17 19.8433 74.531C20.8541 76.2276 21.9009 77.9152 22.9206 79.6118C23.0741 79.8735 23.2004 79.9096 23.4441 79.72C24.545 78.8447 25.6821 78.0054 26.756 77.0939C27.0809 76.8142 27.2704 76.8683 27.5501 77.0849C29.1384 78.2852 30.7448 79.4764 32.3331 80.6766C32.5858 80.8661 32.7933 80.9113 33.1001 80.7488C35.1306 79.702 37.1701 78.6732 39.2096 77.6354C39.327 77.5722 39.4443 77.5181 39.5345 77.4008C40.2204 76.5254 40.8882 75.641 41.6101 74.8018C42.0433 74.3054 42.2599 73.782 42.1696 73.1232C42.1516 73.0059 42.2057 72.8886 42.2057 72.7713C42.2057 72.1937 42.2057 71.6161 42.2057 71.0386C42.1245 71.0296 42.0975 71.0837 42.0704 71.1379C41.3845 72.284 40.6987 73.43 40.0309 74.5852C39.5436 75.4244 39.1014 76.2998 38.1087 76.6879C37.7387 76.8322 37.4048 77.0939 37.0528 77.2835C35.7262 78.0235 34.4087 78.7725 33.046 79.4493C32.6309 79.6569 32.3331 79.6569 31.9901 79.2688C30.6455 77.7618 29.337 76.2096 28.0645 74.6393C27.7306 74.2242 27.6584 74.1971 27.3155 74.5852C26.5665 75.4515 25.7272 76.2276 24.9331 77.0488C24.8428 77.1391 24.7255 77.2203 24.7436 77.3827V77.3918C25.5648 76.8683 26.2687 76.1915 27.0358 75.5959C27.5592 75.1898 27.5501 75.1718 28.0104 75.65C28.7143 76.372 29.4182 77.0849 30.1221 77.8069C30.2484 77.9332 30.3838 78.0505 30.456 78.2581C30.2484 78.3122 30.1672 78.1408 30.0589 78.0415C29.337 77.3827 28.615 76.733 27.9292 76.0381C27.6584 75.7674 27.496 75.8125 27.2343 76.02C26.0882 76.9676 24.9241 77.8881 23.778 78.8357C23.4892 79.0793 23.3267 79.1335 23.0831 78.7454C22.0724 77.1661 21.0165 75.6139 19.9877 74.0437C19.8072 73.773 19.6177 73.6737 19.2928 73.6737C18.0204 73.6466 16.7389 73.6015 15.4665 73.5203C14.9431 73.4842 14.5641 73.6105 14.2121 74.0166C13.9594 74.3054 13.6977 74.5671 13.418 74.8379C13.4721 74.9371 13.5353 75.0364 13.5894 75.1357C13.9233 74.8108 14.2302 74.504 14.528 74.1971Z" fill="#FCEA17"/>
<path d="M14.81 72.69C16.0193 72.7983 17.2376 72.8885 18.4468 73.0058C18.7085 73.0329 18.898 72.9788 19.0966 72.8073C20.1885 71.8417 21.2895 70.8851 22.3905 69.9375C22.58 69.7751 22.7154 69.5946 22.7966 69.36C23.2117 68.25 23.6449 67.149 24.051 66.03C24.421 65.0012 25.179 64.2341 25.7836 63.3588C26.6139 62.1405 27.5073 60.9673 28.3556 59.7671C28.5361 59.5054 28.6985 59.4061 29.0505 59.4693C30.3951 59.7219 31.7488 59.9115 33.0934 60.1371C33.3731 60.1822 33.4995 60.0919 33.5807 59.8302C33.6619 59.5324 33.7883 59.2527 33.9417 58.8376C33.9417 59.4061 33.9327 59.8302 33.9417 60.2634C33.9507 60.5161 33.7973 60.5161 33.6168 60.498C32.1729 60.3356 30.729 60.1641 29.2761 60.0017C29.0505 59.9746 28.7797 59.8573 28.7075 60.2363C29.1858 60.2273 29.6551 60.2815 30.1334 60.3446C30.4131 60.3807 30.7019 60.4168 30.9817 60.4439C31.9473 60.5251 32.9129 60.6334 33.8785 60.7597C34.1763 60.7958 34.2756 60.7688 34.3388 60.4349C34.3568 60.3175 34.3568 60.2002 34.3568 60.0829C34.3568 60.0378 34.3568 59.9836 34.3568 59.9385C34.3568 59.7219 34.3839 59.5144 34.5463 59.3339C34.5553 59.1895 34.5553 59.0361 34.5644 58.8917C34.5734 58.8917 34.6185 58.8466 34.6275 58.7924C34.6366 58.7293 34.6636 58.7112 34.6546 58.6751C34.6456 58.5939 34.6275 58.6119 34.6005 58.5127C34.7088 57.3215 34.781 56.1302 34.8983 54.939C34.9344 54.5419 34.9795 54.1449 35.0336 53.7478C35.0697 53.4139 35.0968 53.08 35.1329 52.7551C35.16 52.3941 35.187 52.0332 35.2141 51.6722L35.4036 51.2932C35.3675 51.2932 35.178 51.248 35.1419 51.248C35.0968 51.3473 35.0246 51.8798 34.9975 51.979C34.9705 52.0873 34.9524 52.1956 34.9434 52.3039C35.0878 52.4302 34.9705 52.5476 34.9434 52.6739C34.4561 54.8758 33.9688 57.0868 33.4995 59.2978C33.4363 59.5866 33.337 59.6136 33.0663 59.5505C31.6405 59.2076 30.2056 58.8917 28.7797 58.5668C28.5812 58.5217 28.4097 58.4856 28.2653 58.7022C26.9839 60.6063 25.6753 62.4924 24.43 64.4236C23.7532 65.4705 23.3561 66.6707 22.8507 67.7988C22.5078 68.5658 22.1739 69.3419 21.47 69.8653C21.0188 70.1992 20.6578 70.6234 20.2517 71.0024C19.8636 71.3814 19.4666 71.7424 19.1056 72.1485C18.6544 72.6539 18.1941 72.8253 17.5173 72.5185C16.6961 72.1485 15.8117 71.9771 14.9183 71.8146C14.3227 71.7063 14.2054 71.7785 13.9256 72.3019C13.6188 72.8795 13.3029 73.448 12.9961 74.0166C13.0773 74.188 13.1676 74.3505 13.2578 74.5219C13.6098 73.9895 13.9617 73.457 14.3046 72.9156C14.431 72.699 14.6024 72.6719 14.81 72.69Z" fill="#FCEA17"/>
<path d="M28.451 51.7985C28.3066 51.8977 28.2254 52.0782 28.1081 52.2136C26.5198 53.9914 24.9315 55.7692 23.3252 57.5289C23.0364 57.8448 23.0093 58.1155 23.0905 58.5036C23.1356 58.7111 23.1808 58.9097 23.2169 59.1172C23.3342 59.7309 23.4335 60.3536 23.5508 60.9672C23.5417 61.3914 23.6952 61.7794 23.8396 62.2126C23.9749 61.978 23.9117 61.7794 23.9569 61.5989C24.002 60.4077 24.1554 59.2165 24.2547 58.0253C24.2817 57.6914 24.4352 57.4387 24.6608 57.2041C25.3647 56.4821 26.0686 55.7692 26.7544 55.0292C28.0088 53.6936 29.2993 52.3941 30.5808 51.0855C30.662 51.0043 30.7252 50.896 30.8064 50.8058C30.9688 50.6433 30.9508 50.4899 30.8695 50.2824C30.4273 49.1994 30.0393 48.0985 29.5791 47.0246C29.4256 46.6636 29.2903 46.3026 29.1549 45.9326C29.0647 45.9416 28.9654 45.9416 28.8752 45.9507C29.0466 46.4741 29.173 47.0246 29.3534 47.548C29.6783 48.5316 29.9581 49.5243 30.2649 50.517C30.3191 50.6885 30.3913 50.8509 30.2288 51.0133C29.2542 52.0511 28.3247 53.1341 27.3049 54.1358C27.2688 54.1448 27.2327 54.1629 27.2056 54.1719C27.2147 54.1358 27.2327 54.0997 27.2417 54.0636C27.9817 53.098 28.7127 52.1324 29.4708 51.1758C29.6422 50.9592 29.6693 50.7787 29.5971 50.526C29.1639 49.019 28.7488 47.5029 28.3337 45.9958C28.1893 46.0138 28.0539 46.0229 27.9095 46.0409C28.2795 47.2682 28.5683 48.5226 28.9744 49.7409C29.2722 50.5982 29.2271 51.257 28.451 51.7985ZM27.1064 54.3704C27.0793 54.3975 27.0432 54.4336 27.0161 54.4607C26.9981 54.5148 26.953 54.5509 26.8898 54.5329C26.8808 54.5329 26.8717 54.5148 26.8537 54.5058C26.8898 54.4787 26.9349 54.4516 26.971 54.4246C26.9981 54.3885 27.0252 54.3524 27.0432 54.3163C27.0703 54.2982 27.1064 54.2892 27.1334 54.2711C27.1334 54.3163 27.1154 54.3433 27.1064 54.3704Z" fill="#FCEA17"/>
<path d="M23.4981 78.3212C22.5596 76.6607 21.6211 75.0092 20.6825 73.3487C20.5833 73.1773 20.6735 73.0961 20.7728 73.0058C21.4947 72.3831 22.2437 71.7695 22.9476 71.1287C23.3537 70.7587 23.8681 70.497 24.0035 69.8473C24.2923 68.5297 24.6713 67.2392 24.9872 65.9307C25.0774 65.5787 25.1857 65.2448 25.4113 64.947C26.1062 64.0085 26.8191 63.079 27.4689 62.1134C27.6132 61.9058 27.8028 61.7163 27.9471 61.5087C27.9832 61.4636 28.0103 61.4095 28.0374 61.3644C28.0554 61.3373 28.0645 61.3102 28.0735 61.2831C28.0915 61.247 28.1006 61.22 28.1096 61.1839C28.1186 61.1478 28.1276 61.1117 28.1367 61.0756C28.1367 61.0666 28.1367 61.0666 28.1367 61.0575C28.1457 61.0214 28.1547 60.9853 28.1547 60.9402C28.3713 60.9402 28.4345 60.8229 28.4254 60.6514C28.4254 60.6244 28.4254 60.6063 28.4254 60.5792C28.6059 60.5792 28.6781 60.489 28.6962 60.3627C28.7052 60.3175 28.7052 60.2724 28.6962 60.2183C28.5337 60.2905 28.4435 60.4078 28.4254 60.5792C28.263 60.6514 28.1728 60.7687 28.1547 60.9402C28.0554 60.9583 28.0103 61.0395 27.9562 61.1117C26.9725 62.4383 25.9889 63.7648 25.0052 65.0914C24.8698 65.2719 24.7796 65.4705 24.7164 65.6961C24.3735 66.9053 24.0215 68.1146 23.6876 69.3329C23.5974 69.6487 23.453 69.8924 23.1913 70.109C22.1625 70.9392 21.1608 71.7965 20.1501 72.6448C20.0147 72.7622 19.8072 72.8343 19.9696 73.1051C21.0525 74.8378 22.1264 76.5704 23.2003 78.3031C23.2545 78.3843 23.3086 78.4746 23.3808 78.4836C23.3989 78.4836 23.4079 78.4836 23.4259 78.4746C23.462 78.4656 23.4981 78.4295 23.5342 78.3843C23.5252 78.3753 23.5252 78.3753 23.5162 78.3663C23.5252 78.3482 23.5072 78.3392 23.4981 78.3212Z" fill="#FCEA17"/>
<path d="M43.1944 52.4572C43.1674 52.4301 43.1132 52.403 43.0861 52.376C42.6169 53.0167 42.0122 53.9101 41.5249 54.5418C41.3083 54.8126 41.2181 55.1194 41.173 55.4443C40.821 57.926 40.442 60.3987 40.1171 62.8804C40.0539 63.3677 39.8464 63.5752 39.4403 63.7377C38.1408 64.2701 36.8503 64.8386 35.5508 65.3982C35.6681 65.4433 35.7764 65.4433 35.8757 65.4162C37.121 65.0733 38.3483 64.6762 39.6118 64.4145C40.442 64.234 40.7939 63.9091 40.8571 62.9977C40.9925 61.0123 41.3174 59.036 41.5249 57.0506C41.6422 55.8774 41.7957 54.7313 42.4905 53.7296C42.5176 53.6935 42.5447 53.6484 42.5718 53.6123C42.7432 53.3235 42.8696 52.9987 43.0139 52.6918L43.1944 52.4572Z" fill="#FCFAC6"/>
<path d="M20.5999 52.4847C20.8887 53.342 21.5836 53.703 22.4409 53.4322C23.0004 53.2608 23.4607 52.9269 23.8758 52.5298C25.2114 51.2303 26.0146 49.651 26.3575 47.8371C26.4568 47.3227 26.4838 46.8083 26.3846 46.2939C24.5977 46.6639 22.9012 47.2776 21.3309 48.0988C20.8346 49.0825 20.5458 50.1474 20.4375 51.2754C20.4646 51.7808 20.4826 52.1417 20.5999 52.4847Z" fill="#FCFBFA"/>
<path d="M18.7011 58.1787C19.6397 58.1877 20.3887 57.5019 20.3977 56.6265C20.4067 55.7782 19.6667 55.0653 18.7643 55.0472C17.8348 55.0292 17.0767 55.715 17.0587 56.5904C17.0497 57.4838 17.7536 58.1697 18.7011 58.1787Z" fill="#FCFBFA"/>
<path d="M36.8387 65.6333C36.3965 66.9689 35.9092 68.2865 35.2504 69.5408C35.0338 69.956 34.7902 70.3621 34.5375 70.7411C34.4112 70.9306 34.2758 71.1201 34.1404 71.3096C33.4546 72.2391 32.6604 73.0784 31.7851 73.8545C31.5143 74.1884 31.1985 74.4682 30.8195 74.6757C30.7743 74.7299 30.7382 74.784 30.6931 74.8382C30.666 74.8652 30.639 74.8923 30.6119 74.9194C30.4314 75.1089 30.2329 75.2804 29.9892 75.3977C29.926 75.4518 29.8629 75.515 29.7907 75.5691C29.7546 75.6323 29.7275 75.6864 29.6914 75.7496C29.917 76.0204 30.1336 76.2911 30.3682 76.5528C30.6029 76.8145 30.8556 77.0582 31.1263 77.2838C31.8482 76.8235 32.498 76.273 33.1207 75.6865C35.3316 73.6379 36.9651 71.1833 38.0931 68.3947C38.2375 68.0247 38.3909 67.6548 38.5263 67.2848C38.7519 66.6621 38.9504 66.0304 39.0768 65.3716C38.6707 65.3896 38.2736 65.4438 37.8675 65.4799C37.7231 65.4979 37.5787 65.5069 37.4343 65.516C37.2538 65.525 37.0734 65.534 36.8838 65.525L36.8748 65.534C36.8748 65.5701 36.8568 65.6062 36.8387 65.6333Z" fill="#FC641C"/>
<path d="M27.1758 76.5527C26.905 76.9047 26.6343 77.2566 26.2733 77.4281C26.2372 77.5454 26.1741 77.5725 26.0928 77.5544C26.0928 77.7259 26.0297 77.7981 25.9123 77.8071C25.8762 77.9154 25.8041 77.9335 25.7319 77.9335C25.7048 77.9786 25.6777 78.0147 25.6416 78.0598C25.5965 78.1049 25.5514 78.15 25.5062 78.1861C24.9016 78.7457 24.3692 79.3954 23.8638 80.1174C23.7916 80.2166 23.7194 80.3249 23.6562 80.4332C23.9902 80.361 24.2248 80.6588 24.5587 80.5866C24.685 80.5415 24.9648 80.6318 25.0911 80.5866C25.407 80.4603 25.6687 80.3971 25.9845 80.2618C26.138 80.1896 26.3636 80.1805 26.517 80.1083C26.6704 80.0361 26.8689 80.1264 27.0223 80.0452C27.1036 80.0091 27.3562 79.9459 27.4284 79.9008C27.9609 79.612 29.0077 79.3232 29.504 78.9171C29.0528 78.2764 27.6631 77.1122 27.1758 76.5527Z" fill="#FC641C"/>
<path d="M11.7834 62.0048C11.648 62.6275 11.4856 63.2592 11.4766 63.9089C12.4241 65.5333 13.8049 66.6072 15.6278 67.0584C17.5139 67.5187 19.3458 67.2299 21.1236 66.517C21.25 66.4628 21.3763 66.4267 21.5027 66.3726C22.1163 66.0387 22.73 65.7048 23.3436 65.3709C23.7948 64.4233 24.219 63.4667 24.7695 62.5733C24.8507 62.447 24.9319 62.3206 25.0131 62.1943C25.9968 60.7414 26.8992 59.2433 27.8287 57.7543C27.9731 57.5287 28.0995 57.4023 28.4424 57.4836C29.0651 57.637 29.7058 57.6911 30.3375 57.7904C30.4278 57.6189 30.527 57.4475 30.6263 57.276C30.9241 56.7616 31.249 56.2743 31.5919 55.787C31.619 55.7328 31.6551 55.6787 31.6822 55.6245C31.7543 55.4711 31.8265 55.3177 31.8987 55.1643C31.9078 55.1462 31.9168 55.1192 31.9258 55.1011C31.998 54.9477 32.0702 54.8033 32.1424 54.6499C32.2146 54.4965 32.2958 54.3431 32.368 54.1806C32.377 54.1626 32.3861 54.1355 32.4041 54.1175C32.4763 53.964 32.5485 53.8106 32.6207 53.6572C32.6658 53.567 32.7109 53.4677 32.747 53.3775C32.8553 53.1248 32.9636 52.8631 33.0629 52.6104C33.5863 51.1936 33.9382 49.7406 33.9202 48.2245C33.9112 47.5206 33.8209 46.8438 33.6495 46.1941C32.5665 46.0045 31.4475 45.9053 30.3104 45.9053C30.2112 45.9053 30.1119 45.9053 30.0126 45.9053C30.6263 47.4214 31.2309 48.9375 31.8536 50.4445C31.9619 50.7062 31.9078 50.8416 31.7363 51.0311C30.879 51.9336 30.0397 52.854 29.1824 53.7565C27.8919 55.1192 26.6014 56.4728 25.3019 57.8265C25.1305 58.007 24.9951 58.1875 24.9319 58.4311C24.7153 59.2253 24.5168 60.0194 24.2731 60.8135C24.1919 61.0843 24.21 61.4092 23.9483 61.6077C23.9031 61.7882 23.9663 61.9957 23.8309 62.2214C23.6866 61.7792 23.5241 61.4001 23.5422 60.976C23.5241 60.967 23.5061 60.9579 23.488 60.9399C23.47 60.9309 23.4519 60.9218 23.4339 60.9128C23.4248 60.9038 23.4158 60.8948 23.4068 60.8857C23.4068 60.8767 23.3978 60.8767 23.3978 60.8677C23.0909 59.8389 22.7841 58.8011 22.4863 57.7723C22.4412 57.6189 22.4953 57.4836 22.6036 57.3572C23.7497 56.0938 24.8958 54.8214 26.0419 53.5579C26.8902 52.6284 27.7295 51.6899 28.5778 50.7604C28.6951 50.625 28.6951 50.5077 28.6409 50.3543C28.4695 49.8941 28.307 49.4248 28.1626 48.9555C27.8739 48.017 27.54 47.0875 27.2151 46.167C26.9353 46.2121 26.6556 46.2662 26.3758 46.3204C26.4751 46.8348 26.448 47.3492 26.3487 47.8636C25.9968 49.6775 25.2026 51.2658 23.867 52.5562C23.4519 52.9533 22.9917 53.2872 22.4322 53.4587C21.5748 53.7294 20.8709 53.3684 20.5912 52.5111C20.4739 52.1682 20.4558 51.8072 20.4287 51.3019C20.537 50.1738 20.8258 49.1089 21.3222 48.1253C18.4253 49.6233 15.9617 51.8614 14.1568 54.5777C13.9944 54.9477 13.8319 55.3177 13.6785 55.6877C12.8392 57.7362 12.2346 59.8479 11.7834 62.0048ZM18.7683 55.0379C19.6707 55.056 20.4107 55.7689 20.4017 56.6172C20.3927 57.4926 19.6527 58.1784 18.7051 58.1694C17.7575 58.1604 17.0446 57.4745 17.0627 56.5811C17.0717 55.7058 17.8388 55.0199 18.7683 55.0379Z" fill="#FC641C"/>
<path d="M38.1436 63.4578C38.8565 63.1509 39.2536 62.7268 39.3167 61.8334C39.4431 59.9924 39.7589 58.1695 39.9936 56.3375C39.9214 56.2924 39.9123 56.2202 39.9033 56.139C39.7589 54.6229 39.5423 53.1158 39.1723 51.6358C39.1362 51.4824 39.1001 51.329 39.064 51.1756C38.9106 50.5078 38.7753 49.8309 38.4414 49.2173C38.4775 49.6685 38.5226 50.1107 38.5587 50.5619C38.7121 50.8236 38.6128 51.1124 38.6399 51.3831C38.7031 51.5005 38.7211 51.6178 38.7211 51.7441C38.7211 51.7892 38.7211 51.8253 38.7211 51.8705C38.7031 53.3956 38.7933 54.9207 38.6489 56.4548C38.5406 57.628 38.3962 58.8012 38.2067 59.9653C38.1526 60.2902 38.0894 60.6061 38.0262 60.9219C37.8277 61.8785 37.584 62.817 37.3945 63.7736C37.7014 63.7917 37.8999 63.557 38.1436 63.4578Z" fill="#FC641C"/>
<path d="M30.8775 50.2823C30.9587 50.4899 30.9768 50.6433 30.8144 50.8057C30.7331 50.887 30.67 50.9953 30.5887 51.0855C29.3163 52.4031 28.0168 53.6935 26.7624 55.0292C26.0765 55.7601 25.3726 56.4821 24.6687 57.204C24.4431 57.4387 24.2897 57.6914 24.2626 58.0253C24.1634 59.2165 24.01 60.3987 23.9648 61.5989C24.2356 61.4004 24.2085 61.0755 24.2897 60.8048C24.5244 60.0196 24.7319 59.2165 24.9485 58.4223C25.0117 58.1877 25.147 57.9982 25.3185 57.8177C26.618 56.464 27.9085 55.1104 29.199 53.7477C30.0563 52.8453 30.8956 51.9248 31.7529 51.0223C31.9334 50.8418 31.9785 50.6975 31.8702 50.4357C31.2385 48.9287 30.6429 47.4126 30.0202 45.8965C29.7314 45.8965 29.4426 45.9145 29.1539 45.9326C29.2892 46.2936 29.4336 46.6636 29.578 47.0245C30.0473 48.0984 30.4353 49.1994 30.8775 50.2823Z" fill="#FC9A1D"/>
<path d="M11.7819 62.0052C12.2331 59.8484 12.8377 57.7276 13.677 55.6881C13.8304 55.3181 13.9929 54.9391 14.1553 54.5781C12.1158 57.6464 10.9336 61.3284 10.9336 65.281C10.9336 66.021 10.9787 66.743 11.0599 67.4559C11.1141 66.2647 11.1863 65.0735 11.4751 63.9093C11.4841 63.2596 11.6465 62.6369 11.7819 62.0052Z" fill="#FC9A1D"/>
<path d="M28.6471 50.3364C28.7013 50.4988 28.7013 50.6161 28.584 50.7425C27.7357 51.672 26.8964 52.6105 26.0481 53.54C24.902 54.8034 23.7559 56.0759 22.6098 57.3393C22.5015 57.4656 22.4474 57.601 22.4925 57.7544C22.7903 58.7922 23.0972 59.821 23.404 60.8498C23.404 60.8588 23.404 60.8588 23.413 60.8678C23.422 60.8768 23.4311 60.8859 23.4401 60.8949C23.4581 60.9039 23.4762 60.9129 23.4942 60.922C23.5123 60.931 23.5303 60.94 23.5484 60.9581C23.4401 60.3444 23.3408 59.7217 23.2235 59.1081C23.1874 58.9005 23.1423 58.702 23.0972 58.4944C23.0159 58.1064 23.043 57.8356 23.3318 57.5198C24.9381 55.76 26.5264 53.9822 28.1147 52.2044C28.232 52.069 28.3223 51.8886 28.4576 51.7893C29.2337 51.2478 29.2789 50.5891 28.9901 49.7317C28.584 48.5134 28.2952 47.2591 27.9252 46.0317C27.6906 46.0588 27.465 46.0949 27.2303 46.131C27.5642 47.0515 27.8891 47.981 28.1779 48.9195C28.3223 49.4069 28.4847 49.8761 28.6471 50.3364Z" fill="#FC9A1D"/>
<path d="M23.445 60.8947C23.436 60.8857 23.427 60.8767 23.418 60.8677C23.427 60.8857 23.436 60.8857 23.445 60.8947Z" fill="#FC9A1D"/>
<path d="M23.4956 60.9309C23.4775 60.9219 23.4595 60.9128 23.4414 60.9038C23.4595 60.9038 23.4775 60.9219 23.4956 60.9309Z" fill="#FC9A1D"/>
<path d="M33.5777 56.6169C33.4424 57.0771 33.298 57.5373 33.1716 57.9976C33.1175 58.1961 33.0182 58.2683 32.8107 58.2232C31.9804 58.0698 31.1592 57.9344 30.329 57.79C29.6972 57.6908 29.0475 57.6366 28.4338 57.4832C28.0999 57.402 27.9646 57.5283 27.8202 57.7539C26.8816 59.2339 25.9792 60.741 25.0046 62.1939C24.9233 62.3203 24.8421 62.4466 24.7609 62.573C24.2104 63.4664 23.7863 64.4229 23.3351 65.3705C22.9831 66.1647 22.6402 66.9588 22.2792 67.7529C22.2341 67.8432 22.189 67.9334 22.1348 68.0147C22.0987 68.0688 22.0536 68.1229 22.0175 68.1681C21.9994 68.1951 21.9724 68.2132 21.9543 68.2403C21.7377 68.4749 21.467 68.6734 21.2143 68.881C21.0699 69.0073 20.9165 69.1427 20.7721 69.269C20.727 69.3322 20.6729 69.3954 20.6187 69.4495C20.5646 69.5037 20.5104 69.5578 20.4473 69.612C20.4021 69.6481 20.357 69.6751 20.3119 69.7022C20.2036 69.8015 20.0863 69.9007 19.978 69.991C19.8426 70.1354 19.7073 70.2798 19.5629 70.4242C19.4275 70.5505 19.2921 70.6678 19.1387 70.7671C19.0846 70.8122 19.0304 70.8573 18.9763 70.8934C18.9041 71.0198 18.8138 71.0288 18.6695 71.0107C18.4168 70.9656 18.1641 70.9295 17.9114 70.8934C17.6587 70.8573 17.406 70.8212 17.1534 70.7851C16.1877 70.6588 15.2221 70.5686 14.2565 70.4061C13.9136 70.352 13.8234 70.4783 13.7241 70.749C13.3812 71.6334 13.0382 72.5178 12.6953 73.4022C12.7856 73.6007 12.8848 73.7993 12.9841 73.9978C13.2909 73.4293 13.6068 72.8607 13.9136 72.2832C14.1934 71.7598 14.3197 71.6876 14.9063 71.7959C15.7907 71.9583 16.6841 72.1298 17.5053 72.4998C18.1821 72.8066 18.6424 72.6351 19.0936 72.1298C19.4546 71.7237 19.8516 71.3627 20.2397 70.9837C20.6368 70.5956 21.0068 70.1805 21.458 69.8466C22.1619 69.3232 22.4868 68.5561 22.8387 67.78C23.3441 66.6429 23.7502 65.4517 24.418 64.4049C25.6633 62.4737 26.9719 60.5876 28.2533 58.6834C28.3977 58.4759 28.5692 58.503 28.7677 58.5481C30.1936 58.873 31.6285 59.1888 33.0543 59.5317C33.325 59.5949 33.4243 59.5678 33.4875 59.2791C33.9568 57.0681 34.4531 54.8661 34.9314 52.6552C34.9585 52.5288 35.0758 52.4025 34.9314 52.2852C34.6697 52.7274 34.6787 53.2688 34.4531 53.7291C34.1733 54.6947 33.8755 55.6513 33.5777 56.6169Z" fill="#FC9A1D"/>
<path d="M14.7157 74.6025C14.9413 74.44 15.1489 74.3769 15.4196 74.4039C16.5657 74.5213 17.7118 74.6296 18.8579 74.7469C19.0113 74.7649 19.1467 74.7739 19.237 74.9274C20.4372 76.8225 21.6465 78.7176 22.8557 80.6127C22.9279 80.6578 22.955 80.7481 23.0272 80.7842C23.0543 80.7932 23.0813 80.8022 23.1174 80.8022C23.1716 80.6939 23.2709 80.6308 23.3791 80.5947C23.4423 80.4954 23.5506 80.4683 23.6499 80.4322C23.7221 80.36 23.7943 80.2788 23.8574 80.2066C24.3538 79.6922 24.8952 79.223 25.4999 78.8169C25.545 78.7898 25.5901 78.7537 25.6352 78.7266C25.6623 78.6995 25.6894 78.6725 25.7255 78.6364C25.7616 78.5642 25.8248 78.5281 25.906 78.5461C25.906 78.501 25.915 78.4649 25.933 78.4378C25.9601 78.3927 26.0233 78.3747 26.0865 78.3656C26.0865 78.3566 26.0955 78.3476 26.0955 78.3386C26.1316 78.2754 26.1857 78.2483 26.2669 78.2754C26.294 78.2303 26.3211 78.1942 26.3482 78.1491C26.3843 78.0859 26.4294 78.0227 26.4745 77.9686C26.5196 77.9144 26.5648 77.8603 26.6189 77.8152C26.7543 77.6888 26.9257 77.6166 27.1784 77.6527C27.6657 78.0498 28.2704 78.2844 28.7126 78.7356C28.7938 78.7356 28.8569 78.7717 28.9201 78.8169C28.9562 78.8439 28.9923 78.871 29.0284 78.8981C30.1835 79.6832 31.3477 80.4593 32.4938 81.2444C32.7013 81.3888 32.8638 81.3978 33.0984 81.2805C35.2011 80.2427 37.3038 79.2139 39.4064 78.1942C39.605 78.1039 39.7584 77.9776 39.8847 77.8061C40.706 76.7142 41.5362 75.6313 42.3664 74.5483C42.5108 74.3588 42.574 74.1693 42.583 73.9256C42.6011 73.0413 42.583 72.1569 42.6642 71.2725C42.7003 70.8664 42.6733 70.4603 42.6733 69.9549C41.3918 71.7778 40.1735 73.5015 38.9552 75.2342C38.856 75.3696 38.7657 75.4959 38.6123 75.5771C36.6269 76.5788 34.6506 77.5805 32.6652 78.5913C32.5208 78.6634 32.4035 78.7086 32.2682 78.5552C31.8891 78.131 31.465 77.752 31.1311 77.2827C30.8513 77.0661 30.6077 76.8135 30.373 76.5517C30.1384 76.29 29.9128 76.0193 29.6962 75.7486C29.6511 75.7035 29.606 75.6493 29.5608 75.6042C29.2901 75.4327 29.0826 75.1891 28.893 74.9364C28.5501 74.5844 28.1891 74.2415 27.8643 73.8715C27.6657 73.6459 27.5304 73.6639 27.3228 73.8625C26.2489 74.9183 25.1569 75.9381 24.0921 77.003C23.8213 77.2737 23.7311 77.2015 23.5596 76.9308C22.8377 75.7486 22.1067 74.5754 21.3577 73.4203C21.1772 73.1405 21.2674 73.0052 21.484 72.8337C22.3413 72.1749 23.1716 71.4891 24.0379 70.8393C24.3177 70.6317 24.444 70.3791 24.5252 70.0632C24.8862 68.6825 25.2472 67.3108 25.5991 65.93C25.6352 65.7857 25.6804 65.6503 25.7706 65.5149C26.8174 64.0259 27.8552 62.5369 28.884 61.0388C29.0465 60.8042 29.2089 60.732 29.4796 60.7591C30.8784 60.9035 32.2862 61.0388 33.685 61.1742C33.8023 61.1832 33.9286 61.1922 34.046 61.2103C34.3528 61.2644 34.4882 61.1652 34.4701 60.8313C34.4611 60.7049 34.4701 60.5786 34.4791 60.4522C34.4882 60.3891 34.4882 60.3259 34.4972 60.2627C34.5333 59.9469 34.5874 59.631 34.5243 59.3062C34.3618 59.4866 34.3347 59.6942 34.3347 59.9108C34.3347 59.9559 34.3347 60.0101 34.3347 60.0552C34.3347 60.1725 34.3347 60.2898 34.3167 60.4071C34.2535 60.741 34.1543 60.7771 33.8565 60.732C32.8908 60.6057 31.9343 60.4883 30.9596 60.4162C30.6708 60.3891 30.3911 60.353 30.1113 60.3169C29.6421 60.2537 29.1638 60.1996 28.6855 60.2086H28.6945C28.7035 60.2627 28.7035 60.3079 28.6945 60.353C28.6765 60.4793 28.6043 60.5696 28.4238 60.5696C28.4238 60.5966 28.4238 60.6237 28.4238 60.6418C28.4238 60.8042 28.3606 60.9305 28.153 60.9305C28.153 60.9666 28.144 61.0118 28.135 61.0479C28.135 61.0569 28.135 61.0569 28.135 61.0659C28.126 61.102 28.1169 61.1381 28.1079 61.1742C28.0989 61.2103 28.0808 61.2374 28.0718 61.2735C28.0628 61.3005 28.0448 61.3276 28.0357 61.3547C28.0087 61.4088 27.9816 61.454 27.9455 61.4991C27.8011 61.7066 27.6116 61.8961 27.4672 62.1037C26.8084 63.0693 26.0955 63.9988 25.4096 64.9374C25.193 65.2352 25.0757 65.56 24.9855 65.921C24.6696 67.2296 24.2816 68.52 24.0018 69.8376C23.8665 70.4874 23.3521 70.7491 22.946 71.1191C22.233 71.7598 21.493 72.3735 20.7711 72.9961C20.6718 73.0864 20.5816 73.1676 20.6809 73.3391C21.6284 74.9905 22.5579 76.651 23.4965 78.3115C23.5055 78.3295 23.5235 78.3386 23.5506 78.3566C23.5596 78.3566 23.5596 78.3656 23.5687 78.3747C23.8123 78.1761 24.056 77.9686 24.3087 77.77C24.3177 77.7339 24.3267 77.7069 24.3448 77.6798C24.3809 77.6076 24.444 77.5715 24.5252 77.5534C24.5433 77.5534 24.5613 77.5535 24.5794 77.5444C24.5974 77.5354 24.6065 77.5174 24.6245 77.5083C24.6426 77.4903 24.6606 77.4722 24.6787 77.4632C24.7057 77.4361 24.7418 77.4 24.7689 77.373C24.7509 77.2195 24.8682 77.1383 24.9584 77.0391C25.7526 76.2178 26.5918 75.4417 27.3408 74.5754C27.6838 74.1783 27.756 74.2144 28.0899 74.6295C29.3623 76.2088 30.6618 77.752 32.0155 79.2591C32.3584 79.6381 32.6652 79.6381 33.0713 79.4395C34.434 78.7717 35.7516 78.0137 37.0782 77.2737C37.4301 77.0752 37.764 76.8225 38.134 76.6781C39.1267 76.29 39.5689 75.4237 40.0562 74.5754C40.724 73.4203 41.4189 72.2742 42.0957 71.1281C42.1228 71.083 42.1499 71.0198 42.2311 71.0288C42.2311 71.6064 42.2311 72.1839 42.2311 72.7615C42.2311 72.8788 42.1769 73.0052 42.195 73.1135C42.2762 73.7632 42.0686 74.2866 41.6355 74.792C40.9135 75.6313 40.2457 76.5156 39.5599 77.391C39.4696 77.5083 39.3523 77.5625 39.235 77.6256C37.1955 78.6635 35.156 79.6832 33.1255 80.7391C32.8186 80.9015 32.6111 80.8564 32.3584 80.6669C30.7701 79.4666 29.1638 78.2754 27.5755 77.0752C27.2957 76.8676 27.1062 76.8044 26.7813 77.0842C25.7074 77.9866 24.5704 78.8349 23.4694 79.7103C23.2348 79.8998 23.1084 79.8637 22.946 79.602C21.9262 77.9054 20.8884 76.2178 19.8687 74.5213C19.6521 74.1513 19.3904 74.0249 18.9662 74.0249C17.7028 74.0249 16.4484 73.9798 15.185 73.9347C14.9233 73.9256 14.7338 73.9978 14.5533 74.1874C14.2555 74.5032 13.9487 74.801 13.6328 75.1078C13.6779 75.1891 13.7231 75.2703 13.7772 75.3425C13.8223 75.3064 13.8674 75.2793 13.9126 75.2432C14.1653 75.0356 14.427 74.801 14.7157 74.6025Z" fill="#FC9A1D"/>
<path d="M43.9802 51.5278C43.3575 52.683 42.7348 53.8381 42.1211 54.9932C42.058 55.1105 42.0038 55.2459 41.9858 55.3722C41.8324 56.7981 41.6789 58.2239 41.5345 59.6498C41.3721 61.2381 41.2277 62.8354 41.0743 64.4237C41.0563 64.6312 41.0111 64.7846 40.7494 64.8207C39.7387 64.9561 38.737 65.1005 37.7353 65.29C37.4646 65.3442 37.1216 65.2088 36.9141 65.5156C37.0946 65.5246 37.2841 65.5156 37.4646 65.5066C37.6089 65.4976 37.7533 65.4885 37.8977 65.4705C38.3038 65.4344 38.7009 65.3803 39.107 65.3622C39.847 65.272 40.587 65.1637 41.336 65.0915C41.5977 65.0644 41.697 64.9742 41.715 64.7125C41.7331 64.2973 41.7872 63.8732 41.8233 63.4581C41.8684 63.0339 41.9136 62.6098 41.9587 62.1856C41.9677 62.0683 41.9767 61.951 41.9948 61.8337C41.9948 61.59 41.9587 61.3373 42.067 61.1027C42.0941 60.7598 42.1302 60.4259 42.1572 60.0829C42.1843 59.8212 42.2023 59.5595 42.2294 59.2978C42.2384 59.1625 42.2565 59.0271 42.2655 58.8917C42.2926 58.5578 42.3197 58.2239 42.3558 57.89C42.3828 57.529 42.4099 57.1771 42.437 56.8161C42.455 56.6086 42.4641 56.41 42.4821 56.2025C42.5272 55.4805 42.7258 54.8217 43.0326 54.181C43.2221 53.7839 43.4026 53.3869 43.565 52.9898C43.6914 52.6739 43.8448 52.3671 43.9892 52.0512C44.0523 51.9249 44.1065 51.7895 44.1606 51.6542C44.0794 51.6361 44.0253 51.582 43.9802 51.5278Z" fill="#FC9A1D"/>
<path d="M37.457 65.5156C37.6014 65.5066 37.7458 65.4975 37.8902 65.4795C37.7458 65.4975 37.6014 65.5066 37.457 65.5156Z" fill="#FC9A1D"/>
<path d="M46.493 72.428C46.484 72.419 46.4659 72.419 46.4569 72.41C46.3937 72.3829 46.3215 72.3468 46.2583 72.3197C46.1861 72.2927 46.123 72.2656 46.0508 72.2385L46.132 72.2295L46.0508 72.2385C46.0598 72.4461 46.2493 72.4912 46.3666 72.5905C46.8359 72.9785 47.3142 73.3575 47.7835 73.7366C47.8557 73.5832 47.9279 73.4297 48 73.2673C47.6391 73.0688 47.2871 72.8522 46.9261 72.6536C46.7818 72.5724 46.6374 72.4912 46.493 72.428Z" fill="#FC9A1D"/>
<path d="M40.0994 55.1738C40.0633 55.5618 40.0273 55.9499 39.9821 56.3379C39.7475 58.1699 39.4316 59.9928 39.3053 61.8338C39.2421 62.7272 38.8451 63.1513 38.1321 63.4582C37.8885 63.5574 37.699 63.7921 37.4012 63.765C37.3921 63.783 37.3831 63.8101 37.3741 63.8191C37.3741 63.8282 37.3651 63.8282 37.3651 63.8372C37.356 63.8462 37.347 63.8552 37.338 63.8733C37.329 63.8823 37.329 63.8823 37.3199 63.8913C37.3109 63.9004 37.3019 63.9094 37.2929 63.9184C37.2838 63.9274 37.2838 63.9274 37.2748 63.9365C37.2658 63.9455 37.2568 63.9545 37.2477 63.9545C37.2387 63.9545 37.2387 63.9635 37.2297 63.9635C37.2207 63.9726 37.2116 63.9726 37.1936 63.9816C37.1846 63.9816 37.1846 63.9906 37.1755 63.9906C37.1665 63.9996 37.1485 63.9996 37.1394 64.0087C37.1304 64.0087 37.1304 64.0177 37.1214 64.0177C37.1034 64.0267 37.0853 64.0357 37.0673 64.0448C37.0492 64.0538 37.0312 64.0628 37.0131 64.0718C36.9951 64.0808 36.968 64.0899 36.9499 64.1079C36.2912 64.514 35.5602 64.8028 34.9375 65.2811C35.0007 65.2811 35.0638 65.2901 35.118 65.2721C36.5348 64.6584 37.9516 64.0448 39.3685 63.4311C39.5399 63.3589 39.6031 63.2145 39.6302 63.043C39.9641 60.8321 40.2799 58.6121 40.6409 56.4011C40.7402 55.7784 40.677 55.1106 41.1192 54.5601C41.7599 53.766 42.3826 52.9628 42.9782 52.1416C43.0324 52.0694 43.0865 51.9972 43.1497 51.934C43.1858 51.8889 43.2309 51.8438 43.267 51.7987C43.3031 51.7535 43.3482 51.7084 43.3843 51.6633C43.4204 51.6182 43.4655 51.5731 43.5016 51.5189C43.5197 51.4918 43.5377 51.4738 43.5558 51.4467C43.5829 51.4106 43.6099 51.3745 43.628 51.3294C43.646 51.3023 43.6551 51.2662 43.6731 51.2392C43.637 51.2031 43.5919 51.167 43.5558 51.1309C42.4638 52.3492 41.3719 53.5674 40.2799 54.7857C40.1716 54.894 40.1175 55.0204 40.0994 55.1738Z" fill="#FC9A1D"/>
<path d="M43.674 51.23C43.656 51.2571 43.647 51.2932 43.6289 51.3202C43.647 51.2932 43.656 51.2571 43.674 51.23Z" fill="#FC9A1D"/>
<path d="M29.4712 51.1846C28.7132 52.1412 27.9822 53.1068 27.2422 54.0724C27.2602 54.0995 27.2873 54.1175 27.3054 54.1446C28.3251 53.1429 29.2546 52.06 30.2293 51.0222C30.3827 50.8507 30.3195 50.6973 30.2654 50.5258C29.9585 49.5331 29.6788 48.5404 29.3539 47.5568C29.1824 47.0334 29.0471 46.4919 28.8756 45.9595C28.6951 45.9685 28.5146 45.9865 28.3341 46.0046C28.7493 47.5207 29.1734 49.0278 29.5976 50.5348C29.6788 50.7875 29.6427 50.968 29.4712 51.1846Z" fill="#FCFAC6"/>
<path d="M27.0167 54.4604C27.0077 54.4514 26.9896 54.4424 26.9806 54.4243C26.9445 54.4514 26.8994 54.4785 26.8633 54.5055C26.8723 54.5146 26.8813 54.5236 26.8994 54.5326C26.9535 54.5507 26.9896 54.5236 27.0167 54.4604Z" fill="#FCFAC6"/>
<path d="M27.1095 54.3703C27.0915 54.3523 27.0734 54.3342 27.0644 54.3252C27.0373 54.3613 27.0102 54.3974 26.9922 54.4335C27.0012 54.4425 27.0193 54.4515 27.0283 54.4696C27.0463 54.4335 27.0734 54.4064 27.1095 54.3703Z" fill="#FCFAC6"/>
<path d="M27.141 54.2803C27.114 54.2983 27.0779 54.3073 27.0508 54.3254C27.0688 54.3434 27.0869 54.3615 27.0959 54.3705C27.114 54.3434 27.132 54.3164 27.141 54.2803Z" fill="#FCFAC6"/>
<path d="M22.4856 80.6316C22.6119 80.6225 22.7383 80.6135 22.8556 80.6045C21.6463 78.7094 20.4371 76.8142 19.2368 74.9191C19.1376 74.7657 19.0022 74.7567 18.8578 74.7386C17.7117 74.6303 16.5656 74.5221 15.4195 74.3957C15.1488 74.3686 14.9412 74.4318 14.7156 74.5942C14.4359 74.8018 14.1651 75.0274 13.8854 75.244C13.8402 75.2801 13.7951 75.3162 13.75 75.3433C14.9502 77.3196 16.4934 79.0613 18.2983 80.4872C19.0473 80.6135 19.8144 80.6947 20.5995 80.7038C21.2312 80.7128 21.8629 80.7218 22.4856 80.6316Z" fill="#FC0134"/>
<path d="M34.5212 60.2726C34.5122 60.3358 34.5031 60.3989 34.5031 60.4621C34.4941 60.5885 34.4851 60.7148 34.4941 60.8411C34.5122 61.166 34.3768 61.2743 34.07 61.2202C33.9527 61.2021 33.8353 61.1931 33.709 61.1841C32.3102 61.0487 30.9024 60.9133 29.5036 60.7689C29.2329 60.7419 29.0614 60.8141 28.908 61.0487C27.8792 62.5468 26.8324 64.0358 25.7946 65.5248C25.7044 65.6511 25.6592 65.7865 25.6232 65.9399C25.2712 67.3207 24.9012 68.7014 24.5493 70.0731C24.468 70.3799 24.3417 70.6416 24.0619 70.8492C23.1956 71.4989 22.3563 72.1848 21.508 72.8436C21.2914 73.015 21.1922 73.1414 21.3817 73.4302C22.1307 74.5943 22.8617 75.7675 23.5836 76.9406C23.7551 77.2114 23.8453 77.2926 24.1161 77.0128C25.181 75.948 26.2729 74.9192 27.3468 73.8723C27.5544 73.6648 27.6897 73.6467 27.8883 73.8814C28.2131 74.2514 28.5741 74.5943 28.9171 74.9462C29.1066 75.1989 29.3141 75.4426 29.5849 75.6141C29.63 75.6592 29.6751 75.7133 29.7202 75.7584C29.7563 75.6953 29.7834 75.6411 29.8195 75.578C29.7563 75.578 29.6931 75.578 29.63 75.5689C29.6931 75.5689 29.7563 75.5689 29.8195 75.578C29.8827 75.5238 29.9458 75.4606 30.018 75.4065C30.2617 75.2892 30.4512 75.1177 30.6407 74.9282C30.6678 74.9011 30.6949 74.8741 30.7219 74.847C30.767 74.7928 30.8031 74.7387 30.8483 74.6845C31.2273 74.477 31.5431 74.1972 31.8139 73.8633C32.6892 73.0872 33.4834 72.2389 34.1692 71.3184C34.3046 71.1289 34.44 70.9394 34.5663 70.7499C34.819 70.3619 35.0627 69.9648 35.2792 69.5497C35.938 68.2953 36.4163 66.9777 36.8675 65.6421C36.8585 65.615 36.8585 65.588 36.8675 65.5519C36.3892 65.606 35.9019 65.6602 35.4236 65.7143C35.3875 65.7143 35.3605 65.7233 35.3244 65.7233C34.8551 65.7865 34.3768 65.8407 33.9075 65.9038C33.8985 65.8767 33.8985 65.8497 33.8895 65.8226C34.2505 65.6421 34.6024 65.4616 34.9634 65.2811C35.5861 64.8028 36.317 64.5141 36.9758 64.108C36.9939 64.0989 37.0209 64.0809 37.039 64.0719C37.057 64.0628 37.0751 64.0538 37.0931 64.0448C37.1112 64.0358 37.1292 64.0268 37.1473 64.0177C37.1563 64.0177 37.1563 64.0087 37.1653 64.0087C37.1744 63.9997 37.1924 63.9997 37.2014 63.9907C37.2105 63.9907 37.2105 63.9816 37.2195 63.9816C37.2285 63.9726 37.2375 63.9726 37.2556 63.9636C37.2646 63.9636 37.2646 63.9546 37.2736 63.9546C37.2827 63.9455 37.2917 63.9365 37.3007 63.9365C37.3097 63.9275 37.3097 63.9275 37.3187 63.9185C37.3278 63.9094 37.3368 63.9004 37.3458 63.8914C37.3548 63.8824 37.3548 63.8824 37.3639 63.8733C37.3729 63.8643 37.3819 63.8553 37.3909 63.8372C37.3909 63.8282 37.4 63.8282 37.4 63.8192C37.409 63.8011 37.418 63.7831 37.427 63.765C37.6166 62.8085 37.8602 61.8699 38.0588 60.9133C38.1219 60.5975 38.1851 60.2726 38.2392 59.9568C38.4287 58.7926 38.5731 57.6285 38.6814 56.4463C38.8258 54.9211 38.7356 53.396 38.7536 51.8619C38.7536 51.8168 38.7536 51.7807 38.7536 51.7355C38.7536 51.6092 38.7356 51.4919 38.6724 51.3746C38.6453 51.1038 38.7356 50.8151 38.5912 50.5533C38.5551 50.1021 38.51 49.6599 38.4739 49.2087C38.3475 48.5951 38.158 48.0085 37.9505 47.4309C36.5697 46.8714 35.1439 46.4382 33.6549 46.1855C33.8263 46.8353 33.9166 47.5121 33.9256 48.216C33.9436 49.7321 33.5917 51.1851 33.0683 52.6019C32.969 52.8636 32.8697 53.1163 32.7524 53.369C32.7073 53.4682 32.6712 53.5585 32.6261 53.6487C32.5539 53.8021 32.4817 53.9555 32.4095 54.109C32.4005 54.127 32.3914 54.1541 32.3734 54.1721C32.3012 54.3255 32.22 54.479 32.1478 54.6414C32.0756 54.7948 32.0034 54.9392 31.9312 55.0926C31.9222 55.1107 31.9131 55.1377 31.9041 55.1558C31.8319 55.3092 31.7597 55.4626 31.6875 55.616C31.7597 55.5799 31.8319 55.5709 31.9041 55.5619C31.8319 55.5619 31.7597 55.5799 31.6875 55.616C31.6605 55.6702 31.6244 55.7243 31.5973 55.7785C31.2544 56.2658 30.9295 56.7531 30.6317 57.2675C30.5324 57.439 30.4331 57.6104 30.3429 57.7819C31.1731 57.9263 31.9944 58.0707 32.8246 58.215C33.0322 58.2511 33.1314 58.179 33.1856 57.9894C33.3119 57.5292 33.4563 57.069 33.5917 56.6087C33.8895 55.6431 34.1873 54.6865 34.4851 53.7209C34.7107 53.2607 34.7017 52.7282 34.9634 52.277C34.9724 52.1687 34.9905 52.0604 35.0175 51.9521C35.0446 51.8438 35.0807 51.7446 35.1258 51.6453C35.1168 51.5731 35.1439 51.519 35.18 51.4648C35.198 51.4287 35.2251 51.4016 35.2522 51.3655C35.2612 51.3746 35.2792 51.3926 35.2883 51.4016C35.3063 51.4287 35.3153 51.4468 35.3153 51.4738C35.3153 51.5009 35.3153 51.519 35.3063 51.546C35.2973 51.5821 35.2702 51.6092 35.2341 51.6453C35.207 52.0063 35.18 52.3672 35.1529 52.7282C35.1168 53.0621 35.0897 53.396 35.0536 53.7209C34.9995 54.118 34.9544 54.5151 34.9183 54.9121C34.8009 56.1033 34.7288 57.2946 34.6205 58.4858C34.6656 58.585 34.6836 58.6843 34.6475 58.7746C34.6385 58.7926 34.6295 58.8016 34.6205 58.8197C34.6114 58.8377 34.5934 58.8468 34.5844 58.8648C34.5753 59.0092 34.5753 59.1626 34.5663 59.307C34.6024 59.6319 34.5573 59.9477 34.5212 60.2726Z" fill="#FC0134"/>
<path d="M31.9372 55.1016C31.9282 55.1196 31.9192 55.1467 31.9102 55.1647C31.9102 55.1467 31.9192 55.1196 31.9372 55.1016Z" fill="#FC0134"/>
<path d="M32.6267 53.6572C32.5545 53.8106 32.4824 53.9641 32.4102 54.1175C32.4824 53.9641 32.5545 53.8106 32.6267 53.6572Z" fill="#FC0134"/>
<path d="M32.378 54.1895C32.3058 54.3429 32.2245 54.4963 32.1523 54.6587C32.2245 54.4963 32.3058 54.3429 32.378 54.1895Z" fill="#FC0134"/>
<path d="M37.1797 63.9895C37.1883 63.9895 37.1883 63.981 37.1968 63.981C37.1883 63.981 37.1883 63.9895 37.1797 63.9895Z" fill="#FC0134"/>
<path d="M37.2773 63.9263C37.2859 63.9178 37.2859 63.9178 37.2945 63.9092C37.2945 63.9178 37.2859 63.9178 37.2773 63.9263Z" fill="#FC0134"/>
<path d="M37.3375 63.873C37.3289 63.8816 37.3289 63.8816 37.3203 63.8902C37.3289 63.8816 37.3289 63.873 37.3375 63.873Z" fill="#FC0134"/>
<path d="M37.3633 63.836C37.3633 63.8274 37.3719 63.8274 37.3719 63.8188C37.3719 63.8274 37.3633 63.8274 37.3633 63.836Z" fill="#FC0134"/>
<path d="M37.2305 63.9627C37.239 63.9627 37.239 63.9541 37.2476 63.9541C37.239 63.9541 37.239 63.9541 37.2305 63.9627Z" fill="#FC0134"/>
<path d="M37.1211 64.0169C37.1297 64.0169 37.1297 64.0083 37.1382 64.0083C37.1297 64.0083 37.1297 64.0169 37.1211 64.0169Z" fill="#FC0134"/>
<path d="M14.2752 70.3979C15.2318 70.5604 16.2064 70.6597 17.172 70.777C17.4247 70.8131 17.6774 70.8492 17.9301 70.8853C18.1827 70.9214 18.4354 70.9575 18.6881 71.0026C18.8235 71.0297 18.9227 71.0116 18.9949 70.8853C19.0491 70.8401 19.1032 70.795 19.1574 70.7589C19.3108 70.6597 19.4462 70.5333 19.5815 70.416C19.7259 70.2806 19.8613 70.1362 19.9966 69.9828C20.1049 69.8836 20.2222 69.7843 20.3305 69.694C20.3757 69.667 20.4208 69.6399 20.4659 69.6038C20.5291 69.5587 20.5832 69.5045 20.6374 69.4414C20.6915 69.3872 20.7457 69.324 20.7908 69.2609C20.7908 69.2067 20.7818 69.1436 20.7818 69.0894C20.7818 69.1436 20.7908 69.2067 20.7908 69.2609C20.9352 69.1345 21.0886 68.9992 21.233 68.8728C21.4857 68.6653 21.7474 68.4667 21.973 68.2321C21.991 68.205 22.0181 68.187 22.0361 68.1599C22.0813 68.1148 22.1174 68.0606 22.1535 68.0065C22.2076 67.9253 22.2618 67.844 22.2979 67.7448C22.6588 66.9506 23.0018 66.1565 23.3447 65.3623C22.731 65.6962 22.1174 66.0301 21.5037 66.364C21.3774 66.4092 21.251 66.4543 21.1247 66.5084C19.3469 67.2304 17.5059 67.5101 15.6288 67.0499C13.8059 66.6077 12.4252 65.5248 11.4776 63.9004C11.1888 65.0645 11.1166 66.2648 11.0625 67.456C11.2971 69.5587 11.8657 71.5531 12.714 73.394C13.0569 72.5097 13.3998 71.6253 13.7427 70.7409C13.842 70.4701 13.9323 70.3438 14.2752 70.3979ZM17.163 70.6416C17.154 70.6055 17.1449 70.5694 17.1359 70.5423C17.1449 70.5694 17.154 70.6055 17.163 70.6416Z" fill="#FC0134"/>
<path d="M43.5369 53.0165C43.3744 53.4226 43.1939 53.8197 43.0044 54.2078C42.6976 54.8485 42.4991 55.5073 42.4539 56.2292C42.4449 56.4368 42.4269 56.6353 42.4088 56.8429C42.3817 57.2039 42.3547 57.5558 42.3276 57.9168C42.3005 58.2507 42.2734 58.5846 42.2373 58.9185C42.2283 59.0539 42.2103 59.1892 42.2012 59.3246C42.1742 59.5863 42.1561 59.848 42.1291 60.1097C42.102 60.4526 42.0659 60.7865 42.0388 61.1295C42.102 61.1565 42.1651 61.1836 42.2283 61.2017C42.1651 61.1836 42.102 61.1565 42.0388 61.1295C41.9305 61.3641 41.9666 61.6168 41.9666 61.8604C41.9576 61.9778 41.9486 62.0951 41.9305 62.2124C41.8854 62.6365 41.8403 63.0607 41.7952 63.4848C41.7591 63.8999 41.7049 64.3151 41.6869 64.7392C41.6778 65.0009 41.5695 65.0912 41.3078 65.1182C40.5588 65.1904 39.8188 65.2897 39.0788 65.389C38.9525 66.0477 38.7539 66.6795 38.5283 67.3021C38.393 67.6721 38.2395 68.0421 38.0952 68.4121C36.9671 71.2007 35.3427 73.6553 33.1227 75.7038C32.5 76.2814 31.8413 76.8319 31.1283 77.3012C31.4532 77.7704 31.8774 78.1494 32.2654 78.5736C32.4008 78.727 32.5091 78.6819 32.6625 78.6097C34.6388 77.599 36.6242 76.5973 38.6095 75.5955C38.763 75.5143 38.8622 75.388 38.9525 75.2526C40.1708 73.5199 41.3891 71.7963 42.6705 69.9734C42.6705 70.4787 42.6976 70.8848 42.6615 71.2909C42.5803 72.1753 42.5983 73.0597 42.5803 73.9441C42.5712 74.1787 42.5081 74.3773 42.3637 74.5668C41.5334 75.6497 40.7032 76.7326 39.882 77.8246C39.7466 77.996 39.6022 78.1224 39.4037 78.2126C37.301 79.2324 35.1893 80.2611 33.0956 81.299C32.861 81.4163 32.6986 81.4072 32.491 81.2629C31.3449 80.4687 30.1808 79.6926 29.0257 78.9165C28.9896 78.8894 28.9535 78.8624 28.9174 78.8353C28.8542 78.7902 28.791 78.7541 28.7098 78.7541C28.2044 79.0519 27.69 79.2955 27.1486 79.5031C27.0764 79.5302 26.9952 79.5663 26.923 79.5933C26.7696 79.6475 26.6161 79.7016 26.4627 79.7558C26.3093 79.8099 26.1469 79.8641 25.9935 79.9092C25.6776 80.0085 25.3618 80.0987 25.0459 80.198C24.9196 80.2341 24.7842 80.2702 24.6579 80.2972C24.7481 80.4777 24.7481 80.4777 24.6579 80.2972C24.324 80.3514 23.99 80.4055 23.6561 80.4507C23.5479 80.4777 23.4486 80.5138 23.3854 80.6131C23.2771 80.6492 23.1779 80.7124 23.1237 80.8207C23.0876 80.8207 23.0605 80.8116 23.0335 80.8026C22.9613 80.7665 22.9252 80.6672 22.862 80.6311C22.7357 80.6402 22.6093 80.6492 22.492 80.6582C21.8693 80.7485 21.2376 80.7394 20.6059 80.7394C19.8208 80.7304 19.0627 80.6582 18.3047 80.5229C19.4869 81.4614 20.7774 82.2555 22.1581 82.8963C22.2303 82.797 22.3747 82.7699 22.6274 82.788C22.7447 82.815 22.844 82.788 22.8891 82.6887C22.8349 82.788 22.7447 82.815 22.6274 82.788C22.3747 82.7699 22.2303 82.797 22.1581 82.8963C24.6398 84.0514 27.4013 84.6921 30.3161 84.6921C37.5447 84.6921 43.8437 80.7394 47.1737 74.8736C47.0834 74.6931 46.9932 74.5216 46.8939 74.3502C46.8037 74.2058 46.7134 74.0614 46.6142 73.917C46.163 73.2763 45.7298 72.6175 45.4049 71.8955H45.3959L45.4049 71.8865L45.3959 71.8955C45.3869 71.8865 45.3778 71.8865 45.3688 71.8775C45.3778 71.8775 45.3959 71.8865 45.4049 71.8865V71.8955C45.6215 71.9136 45.7208 72.1573 45.9283 72.1843C45.9644 72.1753 46.0005 72.1843 46.0095 72.2204C46.0186 72.2295 46.0186 72.2385 46.0186 72.2565C46.0908 72.2836 46.163 72.3107 46.2261 72.3377C46.2893 72.3648 46.3615 72.4009 46.4247 72.428C46.4337 72.437 46.4517 72.437 46.4608 72.446C46.6051 72.5182 46.7495 72.5904 46.8939 72.6716C47.2549 72.8702 47.6069 73.0868 47.9678 73.2853C49.0688 70.8487 49.6825 68.1504 49.6825 65.3078C49.6825 60.0104 47.5527 55.2095 44.1144 51.708C44.0603 51.8434 44.0061 51.9697 43.943 52.1051C43.8166 52.3939 43.6632 52.7007 43.5369 53.0165Z" fill="#B80C31"/>
<path d="M42.2461 58.9187C42.2732 58.5848 42.3002 58.2509 42.3363 57.917C42.3093 58.2509 42.2732 58.5848 42.2461 58.9187Z" fill="#B80C31"/>
<path d="M42.1367 60.101C42.1638 59.8393 42.1818 59.5776 42.2089 59.3159C42.1909 59.5866 42.1638 59.8484 42.1367 60.101Z" fill="#B80C31"/>
<path d="M46.4453 72.4102C46.4541 72.419 46.4718 72.419 46.4806 72.4278C46.4718 72.419 46.463 72.4102 46.4453 72.4102Z" fill="#B80C31"/>
<path d="M46.0352 72.2295C46.1074 72.2566 46.1795 72.2836 46.2427 72.3107C46.1705 72.2836 46.1074 72.2566 46.0352 72.2295Z" fill="#B80C31"/>
<path d="M38.4402 49.2175C38.7741 49.8311 38.9094 50.508 39.0629 51.1758C39.099 51.3292 39.135 51.4826 39.1711 51.636C39.5411 53.116 39.7487 54.6231 39.9021 56.1392C39.9111 56.2114 39.9202 56.2836 39.9924 56.3377C40.0285 55.9497 40.0736 55.5616 40.1097 55.1736C40.1277 55.0202 40.1819 54.8848 40.2902 54.7675C41.3821 53.5492 42.4741 52.3309 43.566 51.1126C41.9236 49.5785 40.0194 48.3241 37.9258 47.4307C38.1243 48.0172 38.3138 48.6129 38.4402 49.2175Z" fill="#B80C31"/>
<path fill-rule="evenodd" clip-rule="evenodd" d="M47.7687 65.3356C47.7687 75.0879 39.8667 82.9837 30.1328 82.9852C20.3989 82.9866 12.4969 75.0931 12.4969 65.3408C12.4969 55.5885 20.3989 47.6927 30.1328 47.6913C39.8667 47.6898 47.7687 55.5833 47.7687 65.3356ZM30.1328 90.8382C44.2222 90.8361 55.6328 79.4116 55.6328 65.3345C55.6328 51.2574 44.2222 39.8361 30.1328 39.8382C16.0434 39.8403 4.63281 51.2649 4.63281 65.342C4.63281 79.4191 16.0434 90.8403 30.1328 90.8382Z" fill="black"/>
</svg>
