<svg width="129" height="129" viewBox="0 0 129 129" fill="none" xmlns="http://www.w3.org/2000/svg">
<path d="M32.5803 47.501C32.5803 64.5769 46.423 78.4192 63.499 78.4186C80.5749 78.418 94.4177 64.5748 94.4177 47.4988C94.4177 30.4229 80.5749 16.5806 63.499 16.5812C46.423 16.5818 32.5803 30.425 32.5803 47.501Z" fill="url(#paint0_linear)"/>
<path fill-rule="evenodd" clip-rule="evenodd" d="M90.8377 47.499C90.8377 32.4003 78.5977 20.1608 63.499 20.1613C48.4003 20.1619 36.1603 32.4022 36.1603 47.501C36.1603 62.5997 48.4003 74.8392 63.499 74.8387C78.5977 74.8381 90.8377 62.5978 90.8377 47.499ZM63.499 13.0012C82.5522 13.0005 97.9978 28.4456 97.9978 47.4988C97.9978 66.552 82.5522 81.9981 63.499 81.9988C44.4458 81.9995 29.0002 66.5544 29.0002 47.5012C29.0002 28.448 44.4458 13.0019 63.499 13.0012Z" fill="black"/>
<path d="M26 69.5027C26 90.7657 43.237 108.002 64.5 108.001C85.763 108.001 103 90.763 103 69.5C103 48.237 85.763 31.0006 64.5 31.0013C43.237 31.0021 26 48.2397 26 69.5027Z" fill="url(#paint1_linear)" stroke="#4B4B4B" stroke-width="4.79985" stroke-miterlimit="10"/>
<path d="M23.2151 103.497C23.2151 110.28 28.7151 115.78 35.4998 115.781C42.2844 115.783 47.7844 110.285 47.7844 103.501C47.7844 96.7182 42.2844 91.2181 35.4998 91.2168C28.7151 91.2154 23.2151 96.7133 23.2151 103.497Z" fill="url(#paint2_linear)"/>
<path fill-rule="evenodd" clip-rule="evenodd" d="M35.5001 89.0029C43.5082 89.0045 50 95.4964 50 103.503C50 111.509 43.5082 117.999 35.5001 117.997C27.492 117.995 21.0001 111.503 21.0001 103.497C21.0001 95.4905 27.492 89.0013 35.5001 89.0029ZM45.5695 103.502C45.5695 97.9419 41.0612 93.4337 35.5001 93.4326C29.9389 93.4314 25.4307 97.9378 25.4307 103.498C25.4307 109.058 29.9389 113.566 35.5001 113.567C41.0612 113.568 45.5695 109.062 45.5695 103.502Z" fill="black"/>
<path d="M80.2151 103.497C80.2151 110.28 85.7151 115.78 92.4998 115.781C99.2844 115.783 104.784 110.285 104.784 103.501C104.784 96.7182 99.2844 91.2181 92.4998 91.2168C85.7151 91.2154 80.2151 96.7133 80.2151 103.497Z" fill="url(#paint3_linear)"/>
<path fill-rule="evenodd" clip-rule="evenodd" d="M92.5001 89.0029C100.508 89.0045 107 95.4964 107 103.503C107 111.509 100.508 117.999 92.5001 117.997C84.492 117.995 78.0001 111.503 78.0001 103.497C78.0001 95.4905 84.492 89.0013 92.5001 89.0029ZM102.569 103.502C102.569 97.9419 98.0612 93.4337 92.5001 93.4326C86.9389 93.4314 82.4307 97.9378 82.4307 103.498C82.4307 109.058 86.9389 113.566 92.5001 113.567C98.0612 113.568 102.569 109.062 102.569 103.502Z" fill="black"/>
<defs>
<linearGradient id="paint0_linear" x1="94.4177" y1="47.4988" x2="32.5803" y2="47.4988" gradientUnits="userSpaceOnUse">
<stop stop-color="#411541"/>
<stop offset="1" stop-color="#983198"/>
</linearGradient>
<linearGradient id="paint1_linear" x1="75.3703" y1="37.692" x2="52.3798" y2="101.765" gradientUnits="userSpaceOnUse">
<stop stop-color="#7D457D"/>
<stop offset="1" stop-color="#D173D1"/>
</linearGradient>
<linearGradient id="paint2_linear" x1="45.0669" y1="111.273" x2="27.8378" y2="95.5474" gradientUnits="userSpaceOnUse">
<stop stop-color="#5D285D"/>
<stop offset="1" stop-color="#B14CB1"/>
</linearGradient>
<linearGradient id="paint3_linear" x1="102.067" y1="111.273" x2="84.8378" y2="95.5474" gradientUnits="userSpaceOnUse">
<stop stop-color="#5D285D"/>
<stop offset="1" stop-color="#B14CB1"/>
</linearGradient>
</defs>
</svg>
