<svg width="129" height="128" viewBox="0 0 129 128" fill="none" xmlns="http://www.w3.org/2000/svg">
<path d="M89.3477 75.9629H98.6606V85.766H89.3477V75.9629Z" fill="#774B23"/>
<path fill-rule="evenodd" clip-rule="evenodd" d="M97.4703 77.1533H90.538V84.5756H97.4703V77.1533ZM89.3477 75.9629V85.766H98.6606V75.9629H89.3477Z" fill="black"/>
<path d="M77.0938 74.3435C84.5508 69.1722 91.6877 60.1974 94.324 56.3564C99.6908 64.2258 105.528 71.252 110.424 73.5004C99.1259 80.92 84.7203 77.435 77.0938 74.3435Z" fill="#48AD5E"/>
<path fill-rule="evenodd" clip-rule="evenodd" d="M94.326 55.3008L94.8162 56.0195C97.4912 59.9419 100.275 63.6413 102.992 66.6346C105.719 69.6391 108.337 71.8849 110.673 72.9579L111.65 73.4064L110.752 73.9963C99.192 81.5874 84.533 77.9996 76.8706 74.8935L75.8506 74.48L76.755 73.8528C84.125 68.7419 91.2134 59.8357 93.8337 56.018L94.326 55.3008ZM78.333 74.1882C85.9064 77.0576 98.803 79.7839 109.222 73.5508C106.939 72.265 104.528 70.0984 102.11 67.4347C99.5092 64.5688 96.8631 61.0852 94.3194 57.3996C91.47 61.3961 85.1157 69.2011 78.333 74.1882Z" fill="black"/>
<path d="M80.5244 65.2727C86.4462 61.1592 92.1137 54.0202 94.2073 50.9648C98.4691 57.2245 103.105 62.8136 106.993 64.6021C98.0205 70.5041 86.5808 67.7319 80.5244 65.2727Z" fill="#48AD5E"/>
<path fill-rule="evenodd" clip-rule="evenodd" d="M94.2096 49.9092L94.7001 50.6295C96.8226 53.747 99.0298 56.6848 101.182 59.0601C103.345 61.4466 105.41 63.218 107.242 64.0609L108.217 64.5093L107.321 65.0989C98.0871 71.1728 86.3935 68.2976 80.3013 65.8238L79.2832 65.4104L80.1857 64.7835C86.0204 60.7304 91.6395 53.66 93.7171 50.628L94.2096 49.9092ZM81.7613 65.1149C87.7463 67.347 97.6986 69.3805 105.797 64.6445C104.02 63.6012 102.159 61.911 100.3 59.8594C98.2633 57.6117 96.1936 54.8894 94.2023 52.0082C91.9148 55.1964 87.0154 61.1917 81.7613 65.1149Z" fill="black"/>
<path d="M83.9561 56.2824C88.3425 53.3442 92.5407 48.2449 94.0915 46.0625C97.2484 50.5337 100.682 54.5259 103.562 55.8034C96.9161 60.0191 88.4422 58.039 83.9561 56.2824Z" fill="#48AD5E"/>
<path fill-rule="evenodd" clip-rule="evenodd" d="M94.0929 45.0342L94.5775 45.7206C96.1473 47.9438 97.7772 50.0354 99.3643 51.7244C100.961 53.4237 102.474 54.6709 103.803 55.2607L104.82 55.7117L103.881 56.3074C100.422 58.5013 96.508 59.0702 92.9172 58.8782C89.3272 58.6863 86.0235 57.7326 83.7389 56.838L82.6787 56.4229L83.6246 55.7893C87.9237 52.9097 92.0724 47.8776 93.6062 45.7191L94.0929 45.0342ZM85.2243 56.1175C87.3308 56.849 90.0641 57.5336 92.9808 57.6896C96.09 57.8558 99.3772 57.4201 102.339 55.8304C101.085 55.0672 99.7863 53.9118 98.4968 52.5396C97.0221 50.9701 95.5259 49.0802 94.0846 47.0796C92.3776 49.3465 88.9412 53.369 85.2243 56.1175Z" fill="black"/>
<path fill-rule="evenodd" clip-rule="evenodd" d="M75.0159 56.6616L81.6374 52.2262C85.4118 49.698 89.2637 45.0692 90.6953 43.0545L94.1024 38.2598L97.495 43.0648C99.0123 45.2137 100.536 47.1596 101.967 48.6828C103.466 50.2783 104.584 51.1041 105.252 51.4002L112.368 54.5569L106.22 58.4569C107.193 59.316 108.039 59.9023 108.735 60.2221L115.558 63.3607L109.479 67.359C110.484 68.1751 111.384 68.7602 112.163 69.1182L119 72.2576L112.712 76.3869C109.541 78.4693 106.184 79.7991 102.827 80.5777V89.3375H85.1816V80.5161C81.4486 79.7576 78.1257 78.6613 75.5288 77.6087L68.3887 74.7143L74.7197 70.3238C75.7131 69.635 76.7122 68.8618 77.7039 68.0291L71.8309 65.6443L78.1481 61.2561C79.0991 60.5955 80.0583 59.8335 81.0059 59.0069L75.0159 56.6616ZM88.3624 57.61C87.4468 58.6066 86.4691 59.614 85.4503 60.5872C85.0792 60.9418 84.7026 61.2918 84.3216 61.635C83.0909 62.7438 81.814 63.7825 80.525 64.6779C80.7179 64.7562 80.9163 64.8349 81.1199 64.9135C82.3467 65.3877 83.7628 65.8628 85.3124 66.2753C85.3974 66.298 85.4829 66.3204 85.5687 66.3427C84.4734 67.4782 83.3226 68.6066 82.1359 69.686C81.7428 70.0435 81.3459 70.3956 80.9457 70.7409C79.6863 71.8272 78.395 72.8452 77.094 73.7475C78.4762 74.3078 80.0811 74.881 81.8498 75.3999C84.1207 76.0661 86.6616 76.6428 89.348 76.9875V85.1711H98.6609V77.0835C101.151 76.7823 103.646 76.1846 106.065 75.1962C107.554 74.5877 109.013 73.8311 110.425 72.9043C109.191 72.3379 107.898 71.4682 106.568 70.3582C106.238 70.0835 105.907 69.794 105.573 69.4908C104.527 68.5395 103.462 67.4527 102.388 66.2599C102.448 66.2393 102.508 66.2185 102.568 66.1973C103.858 65.7417 105.125 65.1541 106.352 64.4123C106.567 64.2821 106.781 64.1471 106.993 64.0072C105.802 63.459 104.54 62.5537 103.24 61.3815C102.924 61.0964 102.605 60.7955 102.285 60.4801C101.497 59.7037 100.698 58.8395 99.8949 57.9068C99.6674 57.6425 99.4396 57.3727 99.2116 57.0979C100.592 56.73 101.949 56.1816 103.241 55.4066C103.349 55.3422 103.456 55.2762 103.562 55.2087C103.27 55.079 102.972 54.9214 102.669 54.7381C102.554 54.6685 102.438 54.5951 102.322 54.5182C101.524 53.9913 100.696 53.2967 99.8524 52.4757C98.8144 51.4652 97.7533 50.2633 96.6977 48.9468C95.8197 47.8517 94.9455 46.6773 94.0915 45.4678C93.5149 46.2793 92.5722 47.4941 91.39 48.8511C90.3483 50.0467 89.1206 51.3528 87.7934 52.5907C87.1304 53.2091 86.4425 53.8105 85.7406 54.3726C85.6638 54.4341 85.5869 54.4951 85.5098 54.5556C84.9973 54.9579 84.478 55.3381 83.9561 55.6877C84.075 55.7343 84.1967 55.781 84.3211 55.8278C85.5763 56.2995 87.1057 56.775 88.798 57.1316C88.6545 57.2907 88.5092 57.4502 88.3624 57.61Z" fill="black"/>
<path d="M38.6523 75.9629H29.3394V85.766H38.6523V75.9629Z" fill="#774B23"/>
<path fill-rule="evenodd" clip-rule="evenodd" d="M30.5297 77.1533H37.462V84.5756H30.5297V77.1533ZM38.6523 75.9629V85.766H29.3394V75.9629H38.6523Z" fill="black"/>
<path d="M50.9062 74.3435C43.4492 69.1722 36.3123 60.1974 33.676 56.3564C28.3092 64.2258 22.4716 71.252 17.5756 73.5004C28.8741 80.92 43.2797 77.435 50.9062 74.3435Z" fill="#48AD5E"/>
<path fill-rule="evenodd" clip-rule="evenodd" d="M33.674 55.3008L33.1838 56.0195C30.5088 59.9419 27.725 63.6413 25.0081 66.6346C22.2811 69.6391 19.6632 71.8849 17.3268 72.9579L16.3501 73.4064L17.2484 73.9963C28.808 81.5874 43.467 77.9996 51.1294 74.8935L52.1494 74.48L51.245 73.8528C43.875 68.7419 36.7866 59.8357 34.1663 56.018L33.674 55.3008ZM49.667 74.1882C42.0936 77.0576 29.197 79.7839 18.7781 73.5508C21.0607 72.265 23.4718 70.0984 25.8895 67.4347C28.4908 64.5688 31.1369 61.0852 33.6806 57.3996C36.53 61.3961 42.8843 69.2011 49.667 74.1882Z" fill="black"/>
<path d="M47.4756 65.2727C41.5538 61.1592 35.8863 54.0202 33.7927 50.9648C29.5309 57.2245 24.8951 62.8136 21.0071 64.6021C29.9795 70.5041 41.4192 67.7319 47.4756 65.2727Z" fill="#48AD5E"/>
<path fill-rule="evenodd" clip-rule="evenodd" d="M33.7904 49.9092L33.2999 50.6295C31.1774 53.747 28.9702 56.6848 26.8179 59.0601C24.6554 61.4466 22.59 63.218 20.7576 64.0609L19.7829 64.5093L20.6792 65.0989C29.9129 71.1728 41.6065 68.2976 47.6987 65.8238L48.7168 65.4104L47.8143 64.7835C41.9796 60.7304 36.3605 53.66 34.2829 50.628L33.7904 49.9092ZM46.2387 65.1149C40.2537 67.347 30.3014 69.3805 22.2034 64.6445C23.9795 63.6012 25.841 61.911 27.7 59.8594C29.7367 57.6117 31.8064 54.8894 33.7977 52.0082C36.0852 55.1964 40.9846 61.1917 46.2387 65.1149Z" fill="black"/>
<path d="M44.0439 56.2824C39.6575 53.3442 35.4593 48.2449 33.9085 46.0625C30.7516 50.5337 27.3177 54.5259 24.4377 55.8034C31.0839 60.0191 39.5578 58.039 44.0439 56.2824Z" fill="#48AD5E"/>
<path fill-rule="evenodd" clip-rule="evenodd" d="M33.9071 45.0342L33.4225 45.7206C31.8527 47.9438 30.2228 50.0354 28.6357 51.7244C27.0388 53.4237 25.5262 54.6709 24.1965 55.2607L23.1799 55.7117L24.119 56.3074C27.5778 58.5013 31.492 59.0702 35.0828 58.8782C38.6728 58.6863 41.9765 57.7326 44.2611 56.838L45.3213 56.4229L44.3754 55.7893C40.0763 52.9097 35.9276 47.8776 34.3938 45.7191L33.9071 45.0342ZM42.7757 56.1175C40.6692 56.849 37.9359 57.5336 35.0192 57.6896C31.91 57.8558 28.6228 57.4201 25.6606 55.8304C26.9148 55.0672 28.2137 53.9118 29.5032 52.5396C30.9779 50.9701 32.4741 49.0802 33.9154 47.0796C35.6224 49.3465 39.0588 53.369 42.7757 56.1175Z" fill="black"/>
<path fill-rule="evenodd" clip-rule="evenodd" d="M52.9841 56.6616L46.3626 52.2262C42.5882 49.698 38.7363 45.0692 37.3047 43.0545L33.8976 38.2598L30.505 43.0648C28.9877 45.2137 27.4644 47.1596 26.033 48.6828C24.5338 50.2783 23.4159 51.1041 22.7483 51.4002L15.6318 54.5569L21.7803 58.4569C20.8066 59.316 19.9608 59.9023 19.2654 60.2221L12.4424 63.3607L18.5208 67.359C17.5159 68.1751 16.6162 68.7602 15.8367 69.1182L9.00036 72.2576L15.2884 76.3869C18.4595 78.4693 21.8161 79.7991 25.1727 80.5777V89.3375H42.8184V80.5161C46.5514 79.7576 49.8743 78.6613 52.4712 77.6087L59.6113 74.7143L53.2803 70.3238C52.2869 69.635 51.2878 68.8618 50.2961 68.0291L56.1691 65.6443L49.8519 61.2561C48.9009 60.5955 47.9417 59.8335 46.9941 59.0069L52.9841 56.6616ZM39.6376 57.61C40.5532 58.6066 41.5309 59.614 42.5497 60.5872C42.9208 60.9418 43.2974 61.2918 43.6784 61.635C44.9091 62.7438 46.186 63.7825 47.475 64.6779C47.2821 64.7562 47.0837 64.8349 46.8801 64.9135C45.6533 65.3877 44.2372 65.8628 42.6876 66.2753C42.6026 66.298 42.5171 66.3204 42.4313 66.3427C43.5266 67.4782 44.6774 68.6066 45.8641 69.686C46.2572 70.0435 46.6541 70.3956 47.0543 70.7409C48.3137 71.8272 49.605 72.8452 50.906 73.7475C49.5238 74.3078 47.9189 74.881 46.1502 75.3999C43.8793 76.0661 41.3384 76.6428 38.652 76.9875V85.1711H29.3391V77.0835C26.849 76.7823 24.3535 76.1846 21.9351 75.1962C20.4462 74.5877 18.9866 73.8311 17.5754 72.9043C18.8088 72.3379 20.102 71.4682 21.4324 70.3582C21.7617 70.0835 22.0933 69.794 22.4268 69.4908C23.473 68.5395 24.5383 67.4527 25.612 66.2599C25.5521 66.2393 25.4922 66.2185 25.4323 66.1973C24.1424 65.7417 22.8746 65.1541 21.6485 64.4123C21.4332 64.2821 21.2191 64.1471 21.0065 64.0072C22.1983 63.459 23.4603 62.5537 24.7602 61.3815C25.0764 61.0964 25.3948 60.7955 25.715 60.4801C26.5032 59.7037 27.3022 58.8395 28.1051 57.9068C28.3326 57.6425 28.5604 57.3727 28.7884 57.0979C27.4084 56.73 26.0512 56.1816 24.7585 55.4066C24.6511 55.3422 24.5442 55.2762 24.4376 55.2087C24.73 55.079 25.028 54.9214 25.3309 54.7381C25.446 54.6685 25.5617 54.5951 25.6782 54.5182C26.4759 53.9913 27.3041 53.2967 28.1476 52.4757C29.1856 51.4652 30.2467 50.2633 31.3023 48.9468C32.1803 47.8517 33.0545 46.6773 33.9085 45.4678C34.4851 46.2793 35.4278 47.4941 36.61 48.8511C37.6517 50.0467 38.8794 51.3528 40.2066 52.5907C40.8696 53.2091 41.5575 53.8105 42.2594 54.3726C42.3362 54.4341 42.4131 54.4951 42.4902 54.5556C43.0027 54.9579 43.522 55.3381 44.0439 55.6877C43.925 55.7343 43.8033 55.781 43.6789 55.8278C42.4237 56.2995 40.8943 56.775 39.202 57.1316C39.3455 57.2907 39.4908 57.4502 39.6376 57.61Z" fill="black"/>
</svg>
