<svg width="129" height="129" viewBox="0 0 129 129" fill="none" xmlns="http://www.w3.org/2000/svg">
<path d="M32.5254 47.1096C32.5254 64.5066 46.6284 78.6091 64.0254 78.6085C81.4224 78.6079 95.5254 64.5044 95.5254 47.1074C95.5254 29.7105 81.4224 15.6079 64.0254 15.6085C46.6284 15.6091 32.5254 29.7126 32.5254 47.1096Z" fill="#795E53"/>
<path fill-rule="evenodd" clip-rule="evenodd" d="M64.5254 12.6086C83.3031 12.608 98.5254 27.8297 98.5254 46.6074C98.5254 65.3851 83.3031 80.608 64.5254 80.6086C45.7477 80.6093 30.5254 65.3875 30.5254 46.6098C30.5254 27.8321 45.7477 12.6093 64.5254 12.6086ZM93.3351 46.6076C93.3351 30.6964 80.4366 17.7983 64.5254 17.7989C48.6142 17.7994 35.7157 30.6984 35.7157 46.6096C35.7157 62.5208 48.6142 75.4189 64.5254 75.4183C80.4366 75.4178 93.3351 62.5188 93.3351 46.6076Z" fill="black"/>
<path d="M64.5254 29.6074C87.1691 29.6074 105.525 47.9757 105.525 70.6074C105.525 93.2391 87.1691 111.607 64.5254 111.607C41.8817 111.607 23.5254 93.2391 23.5254 70.6074C23.5254 47.9757 41.8817 29.6074 64.5254 29.6074Z" fill="#C4765E"/>
<path d="M55.9606 21.3271L64.1652 23.2368L64.1652 37.2412L71.0259 35.9681L71.0093 36.0625C71.6218 33.8719 72.4175 31.4559 73.4306 29.1074C74.5622 30.522 75.8354 31.7244 75.8354 31.7244C75.8354 31.7244 75.1281 32.7853 74.0671 35.5438C73.0062 38.3022 73.4306 39.7168 73.4306 39.7168C73.4306 39.7168 78.8767 28.8245 81.423 25.8539C81.423 25.8539 86.3033 24.6515 89.769 25.8539C91.1129 26.2783 92.6689 27.127 93.7299 27.7636C93.0226 28.2587 92.1738 28.8952 91.3251 29.6025C90.2641 29.3196 88.4959 28.966 86.9399 29.0367C84.6058 29.1782 81.423 29.8147 81.423 29.8147C81.423 29.8147 86.7277 30.9464 89.0617 31.5829C88.4252 32.2195 87.7886 32.8561 87.152 33.5634C86.374 33.4219 85.5253 33.3512 84.6058 33.2805C81.7059 33.139 78.806 33.7048 78.806 33.7048C78.806 33.7048 82.6961 34.978 85.3131 35.9682C84.9594 36.4633 84.6058 36.9584 84.2521 37.5242C83.3461 38.8894 82.5469 40.1196 81.8447 41.2201C81.4937 43.4766 81.4937 45.658 81.4937 45.658C81.4937 45.658 83.6863 42.6167 85.9496 40.6362C88.213 38.6558 92.4567 36.3925 92.5275 36.3925C92.6689 36.3218 92.8104 36.251 93.0226 36.1803C93.6591 36.9583 95.7103 39.0802 97.9736 40.707C99.3175 41.6264 101.652 42.6874 103.703 43.5361C102.783 43.7483 101.793 43.9605 100.732 44.1727C99.1053 43.9605 96.2761 43.4654 94.6493 42.8996C91.5373 41.7679 89.6983 40.6362 89.6983 40.6362C91.1129 43.5361 94.2957 44.7385 94.2957 44.7385C94.2957 44.7385 92.1031 44.6678 90.6885 43.8898C89.4154 43.1825 86.7984 42.0508 86.7984 42.0508C86.7984 42.0508 88.1423 44.8093 91.3958 46.8604C90.4763 47.2141 89.6276 47.6384 88.9203 47.9921C85.7801 49.7865 82.7105 51.8395 80.674 53.2564C81.7947 52.8742 83.1845 52.4398 84.8884 51.9529C88.7785 50.892 92.3857 50.4676 95.2149 50.3261L95.1442 50.3969C95.1442 50.3969 98.7514 55.2065 102.288 58.2478C103.632 59.3795 105.966 61.0063 108.088 62.3501C106.178 61.855 103.773 61.2892 101.298 60.7233L100.988 60.4718C99.9032 59.5908 98.5613 58.5009 97.3368 57.4698C94.5076 55.1357 92.1735 52.0236 92.1735 52.0236C92.1735 52.0236 93.3758 56.6918 95.9928 59.5917C94.7904 59.3795 93.5881 59.1673 92.5272 58.9551C92.4918 58.849 92.4388 58.7606 92.3857 58.6722C92.3327 58.5838 92.2796 58.4954 92.2443 58.3893C90.8297 55.7016 90.2638 53.0139 90.2638 53.0139C89.698 54.9235 90.1224 57.0454 90.759 58.7429C90.6175 58.7429 90.476 58.7252 90.3346 58.7076C90.1931 58.6899 90.0517 58.6722 89.9102 58.6722L89.9054 58.6718C89.0582 58.6012 88.2112 58.5306 87.4347 58.46C86.6567 55.843 86.5152 53.4382 86.5152 53.4382C86.5152 53.4382 85.4543 56.3381 85.5957 58.3186C81.1398 58.1064 78.1692 58.1771 78.1692 58.1771L80.0401 53.7001C78.9182 54.4903 78.2402 54.9943 78.2402 54.9943L74.917 50.2571C74.9466 50.2867 75.2354 49.8584 75.7407 49.1093L75.7412 49.1085C75.9295 48.8293 76.1479 48.5055 76.394 48.1444L69.418 44.262C68.7251 47.5735 68.1968 49.831 68.1968 49.831L61.4068 49.831C61.4068 49.831 60.7891 47.5397 59.9837 44.3741L53.2442 48.1248C53.4595 48.4374 53.6543 48.7223 53.827 48.9749L53.8277 48.9759C54.3963 49.8074 54.7254 50.2886 54.7568 50.257L51.4336 54.9943C51.4336 54.9943 46.1997 51.1042 40.7535 47.9921C40.0462 47.6384 39.1975 47.2141 38.278 46.8604C41.5315 44.8093 42.8754 42.0508 42.8754 42.0508C42.8754 42.0508 40.2584 43.1825 38.9853 43.8898C37.5707 44.6678 35.3781 44.7385 35.3781 44.7385C35.3781 44.7385 38.5609 43.5361 39.9755 40.6362C39.9755 40.6362 38.1365 41.7679 35.0245 42.8996C33.3977 43.4654 30.5685 43.9605 28.9417 44.1727C27.8808 43.9605 26.8906 43.7483 25.9711 43.5361C28.0223 42.6874 30.3563 41.6264 31.7002 40.707C33.9635 39.0802 36.0147 36.9583 36.6512 36.1803C36.8634 36.251 37.0049 36.3218 37.1463 36.3925C37.2171 36.3925 41.4608 38.6558 43.7242 40.6362C45.9875 42.6167 48.1801 45.658 48.1801 45.658C48.1801 45.658 48.1801 43.4844 47.8309 41.2321C47.1306 40.1286 46.331 38.8944 45.4217 37.5242C45.068 36.9584 44.7144 36.4633 44.3607 35.9682C46.9777 34.978 50.8678 33.6341 50.8678 33.6341C50.8678 33.6341 47.9679 33.0683 44.9973 33.2805C44.0778 33.3512 43.229 33.4219 42.451 33.5634C41.8145 32.8561 41.1779 32.2195 40.5413 31.5829C42.8754 30.9464 48.1801 29.8147 48.1801 29.8147C48.1801 29.8147 44.9973 29.1782 42.6632 29.0367C41.1072 28.966 39.3389 29.3196 38.278 29.6025C37.4292 28.8952 36.5805 28.2587 35.8732 27.7636C36.9341 27.127 38.4902 26.2783 39.834 25.8539C43.2998 24.6515 48.1801 25.8539 48.1801 25.8539C50.7263 28.8245 56.1725 39.7168 56.1725 39.7168C56.1725 39.7168 56.5969 38.3022 55.5359 35.5438C54.475 32.7853 53.7677 31.7244 53.7677 31.7244C53.7677 31.7244 55.0408 30.522 56.1725 29.1074C56.4036 29.6313 56.6232 30.1586 56.8317 30.686C56.6272 29.5857 56.4715 28.6127 56.385 27.8342C56.3509 27.4824 56.3151 27.1287 56.2791 26.7743L56.279 26.7734C56.091 24.9201 55.9012 23.0489 55.9606 21.3271Z" fill="#D1BFB3"/>
<path d="M47.756 53.4382L49.7364 58.1771C49.7364 58.1771 46.8365 58.1064 42.3806 58.2478C42.522 56.2674 41.4611 53.3675 41.4611 53.3675C41.4611 53.3675 41.3196 55.7723 40.5416 58.3893C39.7636 58.46 38.9148 58.5307 38.0661 58.6015C37.9246 58.6015 37.7832 58.6191 37.6417 58.6368C37.5003 58.6545 37.3588 58.6722 37.2173 58.6722C37.8539 56.9747 38.2783 54.8528 37.7124 52.9431C37.7124 52.9431 37.1466 55.6308 35.732 58.3186C35.6967 58.4246 35.6436 58.5131 35.5906 58.6015C35.5375 58.6899 35.4845 58.7783 35.4491 58.8844C34.3882 59.0966 33.1858 59.3088 31.9834 59.5209C34.6004 56.6211 35.8028 51.9529 35.8028 51.9529C35.8028 51.9529 33.4687 55.065 30.6395 57.3991C29.4156 58.4298 28.0742 59.5192 26.9897 60.4L26.9887 60.4008L26.988 60.4014L26.6787 60.6526C24.2032 61.2184 21.7984 61.7843 19.8887 62.2794C21.9398 60.9355 24.3446 59.3088 25.6177 58.2478C29.1542 55.2065 32.7614 50.3969 32.7614 50.3969L32.6907 50.3261C35.5198 50.4676 39.127 50.892 43.0171 51.9529C44.9976 52.5187 46.5536 53.0139 47.756 53.4382Z" fill="#D1BFB3"/>
<path d="M80.2206 61.6428L84.4643 58.8137C85.6667 59.0966 87.2228 59.5917 89.2032 60.2282C93.0226 61.5014 96.2054 63.1281 98.6809 64.6135L98.6102 64.6135C98.6102 64.6135 98.8931 70.6254 100.166 75.0814C100.661 76.7789 101.722 79.3959 102.712 81.6592C102.135 81.0517 101.506 80.3659 100.836 79.6354C99.9453 78.6651 98.9823 77.6157 97.9736 76.5667C97.8392 76.1188 97.6907 75.6283 97.5347 75.1133C97.198 74.0017 96.8266 72.7756 96.4883 71.6156C95.4274 68.0792 95.2152 64.1891 95.2152 64.1891C95.2152 64.1891 93.5884 68.7158 94.1542 72.6059C93.6754 72.127 93.2157 71.6865 92.7752 71.2644C92.37 70.8761 91.9808 70.5031 91.608 70.1303C91.608 70.0243 91.6257 69.9182 91.6433 69.8121C91.661 69.7061 91.6787 69.5998 91.6787 69.4938C91.9616 66.5231 93.0226 63.9062 93.0226 63.9062C91.4665 65.1793 90.6885 67.1597 90.2641 68.9279C90.1581 68.8219 90.052 68.7335 89.9459 68.6451C89.84 68.5568 89.7335 68.4681 89.6276 68.3621C88.9203 67.7963 88.2837 67.3012 87.6471 66.8061C88.4959 64.1891 89.6276 62.1379 89.6276 62.1379C89.6276 62.1379 87.152 63.9769 86.1618 65.6744C82.6961 63.1989 80.2206 61.6428 80.2206 61.6428Z" fill="#D1BFB3"/>
<path d="M50.0195 61.6428L45.7757 58.8137C44.5733 59.0966 43.0173 59.5917 41.0368 60.2282C37.2175 61.5014 34.0347 63.1281 31.5591 64.6135L31.6299 64.6135C31.6299 64.6135 31.2762 70.6254 30.0031 75.0814C29.508 76.7789 28.447 79.3959 27.4568 81.6592C28.0341 81.0516 28.6635 80.3657 29.3339 79.6351C30.2243 78.6648 31.187 77.6158 32.1957 76.5667C32.3301 76.1188 32.4786 75.6284 32.6346 75.1134L32.6349 75.1123C32.9715 74.001 33.3428 72.7753 33.681 71.6156C34.742 68.0792 34.9541 64.1891 34.9541 64.1891C34.9541 64.1891 36.5809 68.7158 36.0151 72.6059C36.494 72.1269 36.9538 71.6864 37.3943 71.2642C37.7993 70.8761 38.1888 70.5029 38.5613 70.1303C38.5613 70.0242 38.5436 69.9181 38.526 69.8121C38.5083 69.706 38.4906 69.5999 38.4906 69.4938C38.2077 66.5231 37.1467 63.9062 37.1467 63.9062C38.7028 65.1793 39.4808 67.1597 39.9052 68.9279C40.0112 68.8219 40.1173 68.7335 40.2234 68.6451C40.3295 68.5567 40.4357 68.4682 40.5417 68.3621C41.249 67.7963 41.8856 67.3012 42.5222 66.8061C41.7441 64.2598 40.6125 62.2087 40.6125 62.2087C40.6125 62.2087 43.088 64.0476 44.0782 65.7451C47.5439 63.1989 50.0195 61.6428 50.0195 61.6428Z" fill="#D1BFB3"/>
<path d="M72.5107 24.2268L67.0645 29.6729L71.9448 30.0266C71.9831 29.6435 72.0422 29.2601 72.0996 28.8883C72.1481 28.5738 72.1954 28.2671 72.2278 27.9754C72.2615 27.4011 72.3115 26.8103 72.3621 26.2115L72.3622 26.2105C72.4176 25.556 72.4738 24.8914 72.5107 24.2268Z" fill="#D1BFB3"/>
<path d="M71.1671 34.9069C71.2378 34.4118 71.3085 33.9344 71.3793 33.4569C71.45 32.9795 71.5207 32.5021 71.5915 32.007L66.9941 33.7752L71.1671 34.9069Z" fill="#D1BFB3"/>
<path d="M46.1289 38.9382C45.9521 38.726 45.7753 38.5315 45.5985 38.337C45.4217 38.1425 45.2448 37.948 45.068 37.7358C45.7046 39.6455 46.2704 41.4137 46.2704 41.4137L46.1289 38.9382Z" fill="#D1BFB3"/>
<path d="M83.5448 38.9382C83.7217 38.726 83.8985 38.5315 84.0753 38.337C84.2521 38.1425 84.429 37.948 84.6058 37.7358C83.9692 39.6455 83.4034 41.4137 83.4034 41.4137L83.5448 38.9382Z" fill="#D1BFB3"/>
<path d="M72.3699 18.8511C71.7333 15.1732 69.6822 12.344 64.3775 12.6269C58.8606 12.9806 56.8094 15.5268 56.1729 18.9926L64.3067 20.6193L72.3699 18.8511Z" fill="#A6897E"/>
<path d="M57.2338 27.1264C57.2338 27.1264 58.4362 27.8337 60.4874 28.0459C62.5385 28.2581 63.458 28.0459 63.458 28.0459C63.458 28.0459 61.4069 26.6313 57.2338 27.1264Z" fill="#A6897E"/>
<path d="M57.2338 29.9554C57.2338 29.9554 61.7605 32.5724 63.458 31.0164C61.902 29.9554 57.2338 29.9554 57.2338 29.9554Z" fill="#A6897E"/>
<path d="M48.3217 18.9219C48.0448 18.7558 47.7245 18.633 47.4288 18.5196L47.427 18.519C47.3457 18.4878 47.2662 18.4573 47.19 18.4268C43.6535 17.1537 39.339 18.4268 37.2172 20.2658C34.8831 22.3169 32.9027 25.9241 32.9027 25.9241C32.9027 25.9241 34.1051 26.5607 35.8733 27.8338C36.9342 27.1973 38.4903 26.4192 39.8342 25.9241C43.2999 24.7217 48.1802 25.9241 48.1802 25.9241C48.1802 25.9241 50.0899 23.4486 51.0094 21.1853C50.2314 20.2658 49.3119 19.4878 48.3217 18.9219Z" fill="#A6897E"/>
<path d="M42.8053 42.121C42.8053 42.121 40.1884 43.2527 38.9152 43.96C37.5714 44.6673 35.308 44.8087 35.308 44.8087C35.308 44.8087 38.4908 43.6063 39.9054 40.7064C39.9054 40.7064 38.0665 41.8381 34.9544 42.9698C33.3276 43.5356 30.4984 44.0307 28.8717 44.2429C31.913 44.9502 35.4495 45.9404 38.1372 47.0013C41.4615 44.8794 42.8053 42.121 42.8053 42.121Z" fill="#A6897E"/>
<path d="M39.3392 32.7142C37.1466 31.2289 34.8832 30.2387 32.6906 30.2387L32.5542 30.2387C30.0412 30.2374 27.1991 30.236 24.6982 33.9874C24.6629 34.0227 24.6275 34.0758 24.5921 34.1288C24.5568 34.1819 24.5214 34.2349 24.486 34.2703C22.152 38.0189 21.7276 42.6871 21.7276 42.6871C21.7276 42.6871 23.4958 42.97 25.9714 43.5358C28.0225 42.6871 30.3566 41.6261 31.7004 40.7066C33.9162 39.1833 35.7931 37.1176 36.5346 36.3015L36.5807 36.2507C37.571 36.7458 38.1368 37.0995 38.1368 37.0995C38.1368 37.0995 39.6221 35.0483 39.3392 32.7142Z" fill="#A6897E"/>
<path d="M41.6029 35.6137C41.6029 35.6137 42.098 37.099 42.3102 38.16C42.5224 39.2916 42.8053 40.0696 42.8053 40.0696C42.8053 40.0696 43.3712 39.0087 42.8053 37.2405C42.2395 35.4722 41.6029 35.6137 41.6029 35.6137Z" fill="#A6897E"/>
<path d="M40.6124 47.0722C40.6124 47.0722 42.9465 45.9405 43.866 45.1625C44.7855 44.3845 45.5635 44.0308 45.5635 44.0308C45.5635 44.0308 45.705 45.021 43.9367 46.1527C42.1685 47.2844 40.6124 47.0722 40.6124 47.0722Z" fill="#A6897E"/>
<path d="M92.4567 20.2658C90.3348 18.4268 86.0204 17.1537 82.4839 18.4268C82.0595 18.5683 81.7059 18.7097 81.3522 18.9219C80.362 19.4878 79.3718 20.2658 78.5231 21.1145C79.5133 23.4486 81.3522 25.8534 81.3522 25.8534C81.3522 25.8534 86.2325 24.651 89.6983 25.8534C91.0421 26.2778 92.5982 27.1265 93.6591 27.7631C95.4273 26.49 96.6297 25.8534 96.6297 25.8534C96.6297 25.8534 94.8615 22.3169 92.4567 20.2658Z" fill="#A6897E"/>
<path d="M82.4842 37.3824C82.4842 37.3824 81.0696 37.0287 79.1599 37.3824C77.2502 37.736 75.6234 38.5141 75.6234 38.5141C75.6234 38.5141 76.9673 38.6555 78.8062 38.5141C80.5745 38.3726 82.4842 37.3824 82.4842 37.3824Z" fill="#A6897E"/>
<path d="M86.8697 42.121C86.8697 42.121 89.4866 43.2527 90.7598 43.96C92.1036 44.6673 94.367 44.8087 94.367 44.8087C94.367 44.8087 91.1841 43.6063 89.7696 40.7064C89.7696 40.7064 91.6085 41.8381 94.7206 42.9698C96.3474 43.5356 99.1765 44.0307 100.803 44.2429C97.762 44.9502 94.2255 45.9404 91.5378 47.0013C88.1428 44.8794 86.8697 42.121 86.8697 42.121Z" fill="#A6897E"/>
<path d="M105.188 34.2703C105.117 34.1288 105.047 34.0581 104.976 33.9874C102.475 30.236 99.6329 30.2374 97.1198 30.2387L96.9834 30.2387C94.8615 30.2387 92.5982 31.2289 90.3348 32.7142C89.9812 35.0483 91.4665 37.0287 91.4665 37.0287C91.4665 37.0287 92.0323 36.6751 93.0225 36.18C93.7298 36.958 95.6395 39.0091 97.9029 40.6359C99.2467 41.5554 101.581 42.6163 103.632 43.4651C106.107 42.8993 107.876 42.6163 107.876 42.6163C107.876 42.6163 107.593 38.0189 105.188 34.2703Z" fill="#A6897E"/>
<path d="M88.9915 47.0722C88.9915 47.0722 86.6574 45.9405 85.7379 45.1625C84.8184 44.3845 84.0404 44.0308 84.0404 44.0308C84.0404 44.0308 83.899 45.021 85.6672 46.1527C87.5061 47.2844 88.9915 47.0722 88.9915 47.0722Z" fill="#A6897E"/>
<path d="M32.7615 50.3259C32.62 50.1137 31.5591 48.6284 28.9421 47.3552C28.8899 47.3639 28.8365 47.3727 28.7823 47.3815C28.3968 47.4445 27.9703 47.5141 27.5982 47.6382C26.3251 47.9211 25.2642 48.2747 24.274 48.6991C18.9693 50.7503 16.9181 53.8623 16.1401 58.389C15.7157 60.8645 15.9986 63.2693 15.9986 63.2693C15.9986 63.2693 17.6254 62.845 19.9595 62.2791L20.2926 62.061C22.2657 60.7692 24.4875 59.3147 25.7593 58.1768C29.1543 55.2062 32.8322 50.3966 32.7615 50.3259Z" fill="#A6897E"/>
<path d="M30.6395 57.3988C29.415 58.4299 28.0731 59.5198 26.9882 60.4009L26.6786 60.6523C28.1952 60.2884 29.7637 59.9764 31.2951 59.6719L31.2992 59.6711L31.308 59.6693C31.5578 59.6196 31.8066 59.5702 32.0541 59.5207C34.6711 56.6208 35.8735 51.9526 35.8735 51.9526C35.8735 51.9526 33.4687 55.0647 30.6395 57.3988Z" fill="#A6897E"/>
<path d="M95.2152 50.3259C95.3567 50.1137 96.4176 48.6284 99.0346 47.3552C99.0868 47.3639 99.1401 47.3727 99.1943 47.3815C99.5798 47.4445 100.006 47.5141 100.378 47.6382C101.652 47.9211 102.713 48.2747 103.703 48.6991C109.078 50.7503 111.059 53.8623 111.907 58.389C112.332 60.8645 112.049 63.2693 112.049 63.2693C112.049 63.2693 110.422 62.845 108.088 62.2791L107.755 62.061C105.782 60.7692 103.56 59.3147 102.288 58.1768C98.7517 55.2062 95.1445 50.3966 95.2152 50.3259Z" fill="#A6897E"/>
<path d="M100.917 60.4002L100.918 60.4008L101.228 60.6523C99.711 60.2884 98.1425 59.9764 96.6112 59.6719L96.6093 59.6715C96.3559 59.6211 96.1031 59.5709 95.8521 59.5207C93.2352 56.6208 92.0328 51.9526 92.0328 51.9526C92.0328 51.9526 94.4376 55.0647 97.2667 57.3988C98.4909 58.4297 99.8325 59.5193 100.917 60.4002Z" fill="#A6897E"/>
<path d="M90.123 53.0136C90.123 53.0136 90.6889 55.772 92.1034 58.389C92.2449 58.6012 92.3156 58.7427 92.3864 58.9548C91.7502 58.8842 91.1847 58.8135 90.6192 58.7428L90.6181 58.7427C89.9816 57.0452 89.5572 54.8525 90.123 53.0136Z" fill="#A6897E"/>
<path d="M98.7517 64.5422L98.7825 64.5317C99.0954 64.4242 100.772 63.8484 103.561 64.1886C103.915 64.4715 104.269 64.8251 104.551 65.1788C105.4 66.0982 106.108 67.0177 106.744 67.8665C110.068 72.5346 109.998 76.2833 108.159 80.4563C107.098 82.7903 105.612 84.6293 105.612 84.6293C105.612 84.6293 104.551 83.4269 102.854 81.5879C101.864 79.3246 100.803 76.7076 100.308 75.0101C98.9639 70.6249 98.681 64.6129 98.7517 64.5422Z" fill="#A6897E"/>
<path d="M96.5592 71.6152C96.8975 72.7752 97.2689 74.0013 97.6056 75.1128C97.7616 75.6279 97.9101 76.1184 98.0445 76.5663L98.0439 76.5657C96.7711 75.2222 95.4979 73.8783 94.2251 72.6055C93.6593 68.7153 95.2861 64.1887 95.2861 64.1887C95.2861 64.1887 95.4982 68.0788 96.5592 71.6152Z" fill="#A6897E"/>
<path d="M93.023 63.9766C93.023 63.9766 91.962 66.5229 91.6791 69.5642C91.6791 69.6703 91.6614 69.7764 91.6437 69.8825C91.6261 69.9886 91.6084 70.0947 91.6084 70.2008C91.3712 69.9975 91.1502 69.7941 90.9376 69.5986C90.7066 69.386 90.4855 69.1826 90.2645 68.9984C90.6889 67.2302 91.4669 65.2497 93.023 63.9766Z" fill="#A6897E"/>
<path d="M31.4885 64.5422L31.4576 64.5317C31.1448 64.4242 29.4679 63.8484 26.6789 64.1886C26.3252 64.4715 25.9716 64.8251 25.6887 65.1788C24.8399 66.0982 24.1326 67.0177 23.4961 67.8665C20.1718 72.5346 20.2425 76.2833 22.0815 80.4563C23.1424 82.7903 24.6277 84.6293 24.6277 84.6293C24.6277 84.6293 25.6887 83.4269 27.3862 81.5879C28.3764 79.3246 29.4373 76.7076 29.9324 75.0101C31.2763 70.6249 31.5592 64.6129 31.4885 64.5422Z" fill="#A6897E"/>
<path d="M33.6807 71.6152C33.3424 72.7753 32.971 74.0013 32.6343 75.1129L32.6339 75.1142C32.4781 75.6287 32.3296 76.1188 32.1954 76.5663C33.4685 75.2224 34.7416 73.8786 36.0148 72.6055C36.5806 68.7153 34.9538 64.1887 34.9538 64.1887C34.9538 64.1887 34.7416 68.0788 33.6807 71.6152Z" fill="#A6897E"/>
<path d="M64.8013 27.1264C64.8013 27.1264 67.4183 23.7314 69.328 22.8826C71.2377 22.0339 72.1571 21.9632 72.1571 21.9632C72.1571 21.9632 69.6816 24.085 68.1963 25.0045C66.711 25.924 64.8013 27.1264 64.8013 27.1264Z" fill="#A6897E"/>
<path d="M58.0117 33.9167C58.0117 33.9167 58.2239 35.8264 57.941 37.241C57.5166 39.3628 57.0922 40.8482 57.0922 40.8482C57.0922 40.8482 58.1532 39.9287 58.3654 38.8677C58.719 37.4531 58.719 36.5337 58.719 36.5337L58.0117 33.9167Z" fill="#A6897E"/>
<path d="M47.1901 37.3824C47.1901 37.3824 48.6047 37.0287 50.5144 37.3824C52.4241 37.736 54.0509 38.5141 54.0509 38.5141C54.0509 38.5141 52.707 38.6555 50.8681 38.5141C49.0291 38.3726 47.1901 37.3824 47.1901 37.3824Z" fill="#A6897E"/>
<path d="M71.6622 33.9167C71.6622 33.9167 71.45 35.8264 71.7329 37.241C72.1573 39.3628 72.5817 40.8482 72.5817 40.8482C72.5817 40.8482 71.5207 39.9287 71.3085 38.8677C70.9549 37.4531 70.9549 36.5337 70.9549 36.5337L71.6622 33.9167Z" fill="#A6897E"/>
<path d="M88.0714 35.6137C88.0714 35.6137 87.5763 37.099 87.3641 38.16C87.1519 39.2916 86.869 40.0696 86.869 40.0696C86.869 40.0696 86.3032 39.0087 86.869 37.2405C87.4349 35.4722 88.0714 35.6137 88.0714 35.6137Z" fill="#A6897E"/>
<path d="M37.8536 53.0136C37.8536 53.0136 37.2878 55.772 35.8732 58.389C35.7317 58.6012 35.661 58.7427 35.5903 58.9548C36.2264 58.8842 36.792 58.8135 37.3575 58.7428L37.3585 58.7427C37.9243 57.0452 38.4194 54.8525 37.8536 53.0136Z" fill="#A6897E"/>
<path d="M37.2169 63.9766C37.2169 63.9766 38.2778 66.5229 38.5607 69.5642C38.5607 69.6703 38.5784 69.7764 38.5961 69.8825C38.6138 69.9886 38.6315 70.0947 38.6315 70.2008C38.8687 69.9974 39.0898 69.7941 39.3023 69.5985C39.5333 69.3859 39.7543 69.1826 39.9753 68.9984C39.551 67.2302 38.7729 65.2497 37.2169 63.9766Z" fill="#A6897E"/>
<path d="M72.5103 24.226C72.6517 22.387 72.6517 20.5481 72.3688 18.8506L64.3057 20.6188L56.1718 18.992C56.0304 19.7701 55.9596 20.5481 55.9596 21.3261L64.1642 23.2358L64.1642 37.2402L71.025 35.9671C71.0957 35.6134 71.1664 35.189 71.2372 34.8354L67.1349 33.7037L71.7323 31.9355C71.803 31.2282 71.9444 30.5916 72.0152 29.9551L67.1349 29.6014L72.5103 24.226Z" fill="#C0A799"/>
<path d="M64.1642 38.9377L64.1642 44.4546L65.2959 44.0302C65.2959 44.1009 66.0739 41.6961 64.1642 38.9377Z" fill="#C0A799"/>
<path d="M42.6625 29.0356C41.1065 28.9649 39.3383 29.3185 38.2773 29.6014C38.9846 30.1673 39.7626 30.8746 40.4699 31.5818C42.804 30.9453 48.1087 29.8136 48.1087 29.8136C48.1087 29.8136 44.9966 29.1771 42.6625 29.0356Z" fill="#C0A799"/>
<path d="M44.9966 33.2794C44.0771 33.3501 43.2284 33.4208 42.4504 33.5623C43.0869 34.2696 43.7235 35.1183 44.36 35.8963C46.977 34.9061 50.8671 33.633 50.8671 33.633C50.8671 33.633 47.9672 33.1379 44.9966 33.2794Z" fill="#C0A799"/>
<path d="M56.2426 39.7157C56.2426 39.7157 56.6669 38.3719 55.606 35.5427C54.5451 32.7842 53.8378 31.7233 53.8378 31.7233C53.8378 31.7233 55.1109 30.4502 56.2426 29.1063C54.9694 26.1357 53.2719 23.2358 51.15 21.1139C50.1598 23.448 48.3209 25.8528 48.3209 25.8528C50.7257 28.8234 56.2426 39.7157 56.2426 39.7157Z" fill="#C0A799"/>
<path d="M59.4254 37.8768C59.4254 37.8768 60.4863 42.5449 60.4863 45.0911C60.4863 47.6374 61.9009 45.8692 61.9716 45.5862C62.1131 45.3033 60.84 39.4328 59.4254 37.8768Z" fill="#C0A799"/>
<path d="M48.1794 45.657C48.1794 45.657 48.1794 43.1814 47.755 40.7767C47.2599 40.1401 46.6941 39.5035 46.1283 38.9377L46.199 41.4132C46.199 41.4132 45.7039 39.645 44.9966 37.7353C43.1576 35.8256 41.248 34.0574 39.2675 32.7135C39.6212 35.0476 38.1359 37.028 38.1359 37.028C38.1359 37.028 41.3187 38.7255 43.582 40.7059C45.8454 42.7571 48.1794 45.657 48.1794 45.657Z" fill="#C0A799"/>
<path d="M29.9313 42.5449C30.0727 42.5449 33.7507 41.6254 35.8725 40.2815C37.9944 38.9377 38.2066 38.7255 38.2066 38.7255C38.2066 38.7255 37.6408 40.423 35.7311 41.4132C33.7507 42.4034 29.9313 42.5449 29.9313 42.5449Z" fill="#C0A799"/>
<path d="M46.8356 45.657C46.8356 45.657 44.8552 47.0008 43.7235 47.5667C42.5918 48.1325 41.5309 48.6276 41.5309 48.6276L44.9259 50.3958C44.9259 50.3958 47.9672 49.83 48.5331 47.0716C47.0478 47.991 45.3503 48.3447 45.3503 48.3447C45.3503 48.3447 46.8356 47.5667 46.8356 45.657Z" fill="#C0A799"/>
<path d="M49.7355 43.2522C49.7355 43.2522 50.0184 45.657 51.6452 47.991C53.2719 50.3251 54.1207 49.9007 54.1207 49.9007C54.1207 49.9007 51.6452 45.3033 49.7355 43.2522Z" fill="#C0A799"/>
<path d="M87.0098 29.0356C88.5658 28.9649 90.334 29.3185 91.395 29.6014C90.6877 30.1673 89.9097 30.8746 89.2024 31.5818C86.8683 30.9453 81.5636 29.8136 81.5636 29.8136C81.5636 29.8136 84.6757 29.1771 87.0098 29.0356Z" fill="#C0A799"/>
<path d="M84.6757 33.2794C85.5952 33.3501 86.4439 33.4208 87.222 33.5623C86.5854 34.2696 85.9488 35.1183 85.3123 35.8963C82.6953 34.9061 78.8052 33.633 78.8052 33.633C78.8052 33.633 81.7051 33.1379 84.6757 33.2794Z" fill="#C0A799"/>
<path d="M73.4298 39.7157C73.4298 39.7157 73.0054 38.3719 74.0663 35.5427C75.1273 32.7842 75.8346 31.7233 75.8346 31.7233C75.8346 31.7233 74.5614 30.4502 73.4298 29.1063C74.7029 26.1357 76.4004 23.2358 78.5223 21.1139C79.5125 23.448 81.3514 25.8528 81.3514 25.8528C78.8759 28.8234 73.4298 39.7157 73.4298 39.7157Z" fill="#C0A799"/>
<path d="M81.4929 45.657C81.4929 45.657 81.4929 43.1814 81.9173 40.7767C82.4124 40.1401 82.9782 39.5035 83.544 38.9377L83.4733 41.4132C83.4733 41.4132 83.9684 39.645 84.6757 37.7353C86.5147 35.8256 88.4244 34.0574 90.4048 32.7135C90.0511 35.0476 91.5364 37.028 91.5364 37.028C91.5364 37.028 88.3536 38.7255 86.0903 40.7059C83.7562 42.7571 81.4929 45.657 81.4929 45.657Z" fill="#C0A799"/>
<path d="M99.741 42.5449C99.5996 42.5449 95.9217 41.6254 93.7998 40.2815C91.6779 38.9377 91.4657 38.7255 91.4657 38.7255C91.4657 38.7255 92.0315 40.423 93.9412 41.4132C95.8509 42.4034 99.741 42.5449 99.741 42.5449Z" fill="#C0A799"/>
<path d="M82.8367 45.657C82.8367 45.657 84.8172 47.0008 85.9488 47.5667C87.0805 48.1325 88.1414 48.6276 88.1414 48.6276L84.7464 50.3958C84.7464 50.3958 81.7051 49.83 81.1392 47.0716C82.6246 47.991 84.3221 48.3447 84.3221 48.3447C84.3221 48.3447 82.8367 47.5667 82.8367 45.657Z" fill="#C0A799"/>
<path d="M79.9368 43.2522C79.9368 43.2522 79.6539 45.657 78.0272 47.991C76.4004 50.3251 75.5516 49.9007 75.5516 49.9007C75.5516 49.9007 78.0272 45.3033 79.9368 43.2522Z" fill="#C0A799"/>
<path d="M41.6016 53.4372C41.6016 53.4372 41.4601 55.7713 40.6821 58.459C41.3187 58.3882 41.9552 58.3882 42.5211 58.3882C42.6625 56.3371 41.6016 53.4372 41.6016 53.4372Z" fill="#C0A799"/>
<path d="M32.7604 50.3251C35.5896 50.4666 39.1968 50.8909 43.0869 51.9519C45.0673 52.5177 46.6234 53.0128 47.8258 53.4372L47.1892 51.9519C47.1892 51.9519 37.9944 45.9399 29.0118 47.3545C31.5581 48.6276 32.619 50.1129 32.7604 50.3251Z" fill="#C0A799"/>
<path d="M86.3025 53.4372C86.3025 53.4372 86.4439 55.7713 87.222 58.459C86.5854 58.3882 85.9488 58.3882 85.383 58.3882C85.3123 56.3371 86.3025 53.4372 86.3025 53.4372Z" fill="#C0A799"/>
<path d="M95.2144 50.3251C92.3852 50.4666 88.778 50.8909 84.8879 51.9519C82.9075 52.5177 81.3514 53.0128 80.149 53.4372L80.7856 51.9519C80.7856 51.9519 89.9804 45.9399 98.963 47.3545C96.4168 48.6276 95.3558 50.1129 95.2144 50.3251Z" fill="#C0A799"/>
<path d="M98.7508 64.5417C96.2753 63.1271 93.0925 61.4296 89.2731 60.1565C87.3634 59.5199 85.7366 59.0248 84.5342 58.7419L85.8781 57.8931C85.8781 57.8931 96.8411 58.0346 103.56 64.188C100.661 63.8344 98.963 64.4709 98.7508 64.5417Z" fill="#C0A799"/>
<path d="M31.4873 64.5417C33.9628 63.1271 37.1457 61.4296 40.965 60.1565C42.8747 59.5199 44.5015 59.0248 45.7039 58.7419L44.36 57.8931C44.36 57.8931 33.397 58.0346 26.6777 64.188C29.5776 63.8344 31.2751 64.4709 31.4873 64.5417Z" fill="#C0A799"/>
<path d="M31.4844 68.5737C31.4844 50.3356 46.2789 35.5508 64.5073 35.5508C82.7356 35.5508 97.5301 50.3356 97.5301 68.5737C97.5301 86.8117 82.7356 85.5909 64.5073 85.5909C46.2789 85.5909 31.4844 86.8117 31.4844 68.5737Z" fill="#C4765E"/>
<path fill-rule="evenodd" clip-rule="evenodd" d="M33.0521 58.4911C32.0341 61.6689 31.4844 65.0562 31.4844 68.5717C31.4844 70.3406 31.6235 72.0771 31.8915 73.7707C37.2704 69.722 50.1696 61.5882 66.7821 61.5882C81.5993 61.5882 92.0159 67.9422 97.3287 72.2391C97.4618 71.035 97.5301 69.8113 97.5301 68.5717C97.5301 64.8844 96.9254 61.3382 95.8098 58.0268C89.0496 53.4826 79.0197 49.0811 65.4364 49.0811C50.0144 49.0811 39.4375 54.0327 33.0521 58.4911Z" fill="white"/>
<path fill-rule="evenodd" clip-rule="evenodd" d="M32.5105 60.373C31.8406 62.9942 31.4844 65.7409 31.4844 68.5707C31.4844 70.4395 31.6397 72.272 31.9381 74.056L43.5018 66.9482L58.708 62.283L71.8969 62.283L86.9684 66.9482L97.2025 73.239C97.4185 71.714 97.5301 70.1554 97.5301 68.5707C97.5301 66.0132 97.2392 63.5236 96.6887 61.1331L86.9684 66.9482L83.8732 51.8602L72.9144 61.3968L64.6288 49.0811L57.7131 61.4165L46.7316 51.8602L43.5018 66.9482L32.5105 60.373Z" fill="#EC0002"/>
<path fill-rule="evenodd" clip-rule="evenodd" d="M32.5486 76.9159C32.2879 75.9152 32.073 74.896 31.9063 73.8607C37.2935 69.8085 50.1847 61.6887 66.7828 61.6887C81.5902 61.6887 92.0026 68.0342 97.3187 72.331C97.1952 73.4207 97.0186 74.4943 96.7915 75.5492C91.9306 71.8081 80.1823 64.2628 65.4371 65.1629C48.7814 66.1796 35.9495 74.5007 32.5486 76.9159ZM93.7044 53.132C94.524 54.6781 95.2243 56.2971 95.7932 57.9767C89.0412 53.4507 78.9693 49.0823 65.4371 49.0823C50.0049 49.0823 39.4242 54.0405 33.0401 58.5297C33.5383 56.9681 34.1495 55.457 34.8641 54.006C41.5209 49.9512 51.688 45.8066 65.4371 45.8066C78.4108 45.8066 87.6323 49.4046 93.7044 53.132Z" fill="#3E84FF"/>
<path d="M22.5254 103.102C22.5254 110.006 28.1218 115.604 35.0254 115.605C41.9289 115.606 47.5254 110.011 47.5254 103.107C47.5254 96.2039 41.929 90.6063 35.0254 90.6049C28.1218 90.6035 22.5254 96.1989 22.5254 103.102Z" fill="#FF8B3B"/>
<path fill-rule="evenodd" clip-rule="evenodd" d="M35.0254 88.6045C43.0335 88.6061 49.5254 95.0993 49.5254 103.107C49.5254 111.116 43.0335 117.606 35.0254 117.604C27.0173 117.603 20.5254 111.11 20.5254 103.101C20.5254 95.0934 27.0173 88.6028 35.0254 88.6045ZM45.0948 103.107C45.0948 97.5453 40.5866 93.0362 35.0254 93.035C29.4642 93.0339 24.9559 97.5412 24.9559 103.102C24.9559 108.664 29.4642 113.173 35.0254 113.174C40.5866 113.175 45.0948 108.668 45.0948 103.107Z" fill="black"/>
<path d="M80.5273 103.102C80.5273 110.006 86.1238 115.604 93.0273 115.605C99.9309 115.606 105.527 110.011 105.527 103.107C105.527 96.2039 99.9309 90.6063 93.0273 90.6049C86.1238 90.6035 80.5273 96.1989 80.5273 103.102Z" fill="#FF8B3B"/>
<path fill-rule="evenodd" clip-rule="evenodd" d="M93.0273 88.6045C101.035 88.6061 107.527 95.0993 107.527 103.107C107.527 111.116 101.035 117.606 93.0273 117.604C85.0192 117.603 78.5273 111.11 78.5273 103.101C78.5273 95.0934 85.0192 88.6028 93.0273 88.6045ZM103.097 103.107C103.097 97.5453 98.5885 93.0362 93.0273 93.035C87.4661 93.0339 82.9579 97.5412 82.9579 103.102C82.9579 108.664 87.4661 113.173 93.0273 113.174C98.5885 113.175 103.097 108.668 103.097 103.107Z" fill="black"/>
</svg>
