<svg width="128" height="128" viewBox="0 0 60 30" fill="none" xmlns="http://www.w3.org/2000/svg">
<path d="M4.61274 27.697C3.57885 27.697 2.74072 26.8589 2.74072 25.825V13.0021C2.74072 12.9455 2.74329 12.889 2.74841 12.8326C2.89892 11.177 3.54248 8.71192 5.16928 6.61338C6.85732 4.43585 9.54554 2.74322 13.4848 2.74322C18.3382 2.74322 21.2523 5.00712 22.8662 7.56793C24.3991 10.0002 24.7141 12.6052 24.7141 13.5566C24.7141 14.3271 24.6532 15.9925 23.6355 17.4868C22.7808 18.7419 21.4274 19.6373 19.5156 19.9836L19.5156 25.825C19.5156 26.8589 18.6775 27.697 17.6436 27.697H4.61274Z" fill="#C74145" stroke="#333333" stroke-width="3.74403" stroke-linecap="round" stroke-linejoin="round"/>
<path d="M14.3166 12.0319C16.7564 12.0319 17.505 14.1113 17.5743 15.151L17.6465 18.2675C22.3598 18.4893 23.0502 15.359 23.05 13.5568C23.05 7.78999 18.2066 5.21043 15.8166 4.83691C15.1235 4.99864 13.2769 5.72447 11.3362 7.38798C9.3954 9.05149 8.70227 12.1186 8.70227 13.4875V17.1468C8.70227 17.5651 8.9083 17.8542 9.3954 17.8542C9.67265 17.8542 9.88059 17.4846 9.9499 17.2997C10.2734 16.5373 10.9532 14.7457 11.6827 13.5568C12.3702 12.4364 13.6928 12.055 14.3166 12.0319Z" fill="#FF504F"/>
<path d="M55.3863 27.697C56.4202 27.697 57.2583 26.8589 57.2583 25.825V13.0021C57.2583 12.9455 57.2557 12.889 57.2506 12.8326C57.1001 11.177 56.4565 8.71192 54.8297 6.61338C53.1417 4.43585 50.4535 2.74322 46.5142 2.74322C41.6609 2.74322 38.7468 5.00712 37.1328 7.56793C35.5999 10.0002 35.285 12.6052 35.285 13.5566C35.285 14.3271 35.3458 15.9925 36.3635 17.4868C37.2182 18.7419 38.5716 19.6373 40.4834 19.9836L40.4834 25.825C40.4834 26.8589 41.3216 27.697 42.3555 27.697H55.3863Z" fill="#FF504F" stroke="#333333" stroke-width="3.74403" stroke-linecap="round" stroke-linejoin="round"/>
<path d="M45.6824 12.0319C43.2426 12.0319 42.494 14.1113 42.4247 15.151L42.3525 18.2675C37.6392 18.4893 36.9488 15.359 36.949 13.5568C36.949 7.78999 41.7924 5.21043 44.1824 4.83691C44.8756 4.99864 46.7221 5.72447 48.6629 7.38798C50.6036 9.05149 51.2968 12.1186 51.2968 13.4875V17.1468C51.2968 17.5651 51.0907 17.8542 50.6036 17.8542C50.3264 17.8542 50.1184 17.4846 50.0491 17.2997C49.7257 16.5373 49.0458 14.7457 48.3163 13.5568C47.6288 12.4364 46.3062 12.055 45.6824 12.0319Z" fill="#C74145"/>
</svg>
