<svg width="129" height="128" viewBox="0 0 129 128" fill="none" xmlns="http://www.w3.org/2000/svg">
<path d="M32.9219 46.5022C32.9219 63.8992 47.0249 78.0017 64.4219 78.0011C81.8188 78.0005 95.9219 63.897 95.9219 46.5C95.9219 29.103 81.8188 15.0005 64.4219 15.0011C47.0249 15.0017 32.9219 29.1052 32.9219 46.5022Z" fill="#176089"/>
<path fill-rule="evenodd" clip-rule="evenodd" d="M64.9219 12.0012C83.6996 12.0005 98.9219 27.2223 98.9219 46C98.9219 64.7777 83.6996 80.0005 64.9219 80.0012C46.1442 80.0018 30.9219 64.7801 30.9219 46.0024C30.9219 27.2247 46.1442 12.0018 64.9219 12.0012ZM93.7316 46.0002C93.7316 30.089 80.8331 17.1909 64.9219 17.1915C49.0107 17.192 36.1121 30.091 36.1121 46.0022C36.1121 61.9134 49.0107 74.8115 64.9219 74.8109C80.833 74.8104 93.7316 61.9114 93.7316 46.0002Z" fill="black"/>
<path d="M23.4219 69.5C23.4219 46.8563 41.7902 28.5 64.4219 28.5C87.0536 28.5 105.422 46.8563 105.422 69.5C105.422 92.1437 87.0536 110.5 64.4219 110.5C41.7902 110.5 23.4219 92.1437 23.4219 69.5Z" fill="#D52525"/>
<path d="M23.4219 69.5L105.422 69.5C105.422 92.1437 87.0536 110.5 64.4219 110.5C41.7902 110.5 23.4219 92.1437 23.4219 69.5Z" fill="#2595D4"/>
<path d="M64.4219 28.5L75.4956 58.4263L105.422 69.5L75.4956 80.5737L64.4219 110.5L53.3482 80.5737L23.4219 69.5L53.3482 58.4263L64.4219 28.5Z" fill="#FDFDFD"/>
<path d="M22.9219 102.495C22.9219 109.399 28.5183 114.996 35.4219 114.998C42.3254 114.999 47.9219 109.404 47.9219 102.5C47.9219 95.5964 42.3254 89.9989 35.4219 89.9975C28.5183 89.9961 22.9219 95.5914 22.9219 102.495Z" fill="#9F1717"/>
<path fill-rule="evenodd" clip-rule="evenodd" d="M35.4219 87.997C43.43 87.9987 49.9219 94.4919 49.9219 102.5C49.9219 110.508 43.43 116.999 35.4219 116.997C27.4137 116.995 20.9219 110.502 20.9219 102.494C20.9219 94.4859 27.4137 87.9954 35.4219 87.997ZM45.4913 102.499C45.4913 96.9379 40.9831 92.4287 35.4219 92.4276C29.8607 92.4265 25.3524 96.9338 25.3524 102.495C25.3524 108.056 29.8607 112.565 35.4219 112.566C40.9831 112.568 45.4913 108.06 45.4913 102.499Z" fill="black"/>
<path d="M80.9219 102.495C80.9219 109.399 86.5183 114.996 93.4219 114.998C100.325 114.999 105.922 109.404 105.922 102.5C105.922 95.5964 100.325 89.9989 93.4219 89.9975C86.5183 89.9961 80.9219 95.5914 80.9219 102.495Z" fill="#9F1717"/>
<path fill-rule="evenodd" clip-rule="evenodd" d="M93.4219 87.997C101.43 87.9987 107.922 94.4919 107.922 102.5C107.922 110.508 101.43 116.999 93.4219 116.997C85.4137 116.995 78.9219 110.502 78.9219 102.494C78.9219 94.4859 85.4137 87.9954 93.4219 87.997ZM103.491 102.499C103.491 96.9379 98.9831 92.4287 93.4219 92.4276C87.8607 92.4265 83.3524 96.9338 83.3524 102.495C83.3524 108.056 87.8607 112.565 93.4219 112.566C98.9831 112.568 103.491 108.06 103.491 102.499Z" fill="black"/>
</svg>
