<svg width="128" height="128" viewBox="0 0 128 128" fill="none" xmlns="http://www.w3.org/2000/svg">
<path d="M32 46.5022C32 63.8992 46.103 78.0017 63.5 78.0011C80.897 78.0005 95 63.897 95 46.5C95 29.103 80.897 15.0005 63.5 15.0011C46.103 15.0017 32 29.1052 32 46.5022Z" fill="#6E6E6E"/>
<path fill-rule="evenodd" clip-rule="evenodd" d="M64 12.0012C82.7777 12.0005 98 27.2223 98 46C98 64.7777 82.7777 80.0005 64 80.0012C45.2223 80.0018 30 64.7801 30 46.0024C30 27.2247 45.2223 12.0018 64 12.0012ZM92.8097 46.0002C92.8097 30.089 79.9112 17.1909 64 17.1915C48.0888 17.192 35.1903 30.091 35.1903 46.0022C35.1903 61.9134 48.0888 74.8115 64 74.8109C79.9112 74.8104 92.8097 61.9114 92.8097 46.0002Z" fill="black"/>
<path d="M27.8571 69C27.8571 49.5923 43.602 33.8571 63 33.8571C82.398 33.8571 98.1429 49.5923 98.1429 69C98.1429 88.4077 82.398 104.143 63 104.143C43.602 104.143 27.8571 88.4077 27.8571 69Z" fill="#474747" stroke="#2B2B2B" stroke-width="11.7143" stroke-miterlimit="10"/>
<mask id="mask0" mask-type="alpha" maskUnits="userSpaceOnUse" x="22" y="28" width="82" height="82">
<path d="M22 69C22 46.3563 40.3683 28 63 28C85.6317 28 104 46.3563 104 69C104 91.6437 85.6317 110 63 110C40.3683 110 22 91.6437 22 69Z" fill="#EDEB7F"/>
</mask>
<g mask="url(#mask0)">
<g opacity="0.15">
<path opacity="0.15" d="M37.1959 75.2944C37.1959 75.2944 33.0662 66.0715 42.0826 61.8042C57.3624 54.7149 53.7833 43.496 69.0631 42.8766C78.2172 42.5324 77.7354 54.2331 85.2376 59.8082C92.671 65.3144 91.088 71.7154 89.0231 74.8815C85.3753 80.5253 78.9055 78.8046 77.5977 86.651C76.3588 94.4974 59.9778 100.348 54.5404 88.3717C52.2003 83.2096 41.4632 84.5173 37.1959 75.2944Z" fill="black"/>
<path opacity="0.15" d="M85.2377 59.8081C78.2172 54.5772 78.2172 43.8401 70.5774 42.9453C76.4966 45.1478 77.0472 54.5772 83.517 59.3951C90.9504 64.9014 89.3673 71.3023 87.3025 74.4684C83.7235 80.0435 77.1848 78.3228 75.8771 86.2379C75.0512 91.4 67.6866 95.6673 61.2168 94.6349C68.0307 96.8374 76.703 92.2948 77.5978 86.6509C78.9055 78.8046 85.3753 80.5252 89.0232 74.8814C91.088 71.7153 92.6711 65.3831 85.2377 59.8081Z" fill="black"/>
<path opacity="0.15" d="M54.3352 71.3697C54.1975 71.0256 51.3068 65.244 57.983 61.252C64.6593 57.26 71.7486 62.2156 72.0239 68.5478C72.2304 75.8435 59.2219 81.4874 54.3352 71.3697Z" fill="black"/>
<path opacity="0.15" d="M64.52 59.9453C67.4108 61.1842 69.4756 64.075 69.6133 67.3099C69.8198 73.5732 59.4956 78.5288 54.4023 71.646C59.4268 81.4196 72.2287 75.7757 71.9534 68.4799C71.8158 64.2815 68.6497 60.7024 64.52 59.9453Z" fill="black"/>
<path opacity="0.8" d="M55.4364 68.9622C55.4364 68.9622 54.4728 65.9338 56.9506 63.8001C59.4284 61.5976 61.3556 61.9418 59.3596 65.452C57.3636 68.9622 57.4324 71.44 55.4364 68.9622Z" fill="black"/>
</g>
<path d="M36.5084 74.6059C36.5084 74.6059 32.3787 65.383 41.3951 61.1157C56.6749 54.0265 53.0958 42.8075 68.3756 42.1881C77.5297 41.844 77.0479 53.5447 84.5501 59.1197C91.9835 64.6259 90.4005 71.0269 88.3356 74.193C84.6878 79.8368 78.218 78.1162 76.9102 85.9625C75.6713 93.8089 59.2903 99.6592 53.8529 87.6832C51.5128 82.5211 40.7757 83.8289 36.5084 74.6059Z" fill="#FEEED2"/>
<path d="M53.6457 70.6822C53.5081 70.3381 50.6173 64.5565 57.2936 60.5645C63.9699 56.5725 71.0591 61.5281 71.3344 67.8603C71.5409 75.156 58.5325 80.7999 53.6457 70.6822Z" fill="#FFD500"/>
<path d="M22.9248 69C22.9248 46.8673 40.8789 28.9248 63 28.9248C85.1211 28.9248 103.075 46.8673 103.075 69C103.075 91.1327 85.1211 109.075 63 109.075C40.8789 109.075 22.9248 91.1327 22.9248 69Z" stroke="#6E6E6E" stroke-width="1.84962" stroke-miterlimit="10"/>
</g>
<path d="M22 102.495C22 109.399 27.5964 114.996 34.5 114.998C41.4036 114.999 47 109.404 47 102.5C47 95.5964 41.4036 89.9989 34.5 89.9975C27.5964 89.9961 22 95.5914 22 102.495Z" fill="#EDEB7F"/>
<path d="M22.3039 102.99C22.3039 109.62 27.6789 114.996 34.3092 114.997C40.9395 114.999 46.3145 109.625 46.3145 102.995C46.3145 96.3642 40.9395 90.9882 34.3092 90.9869C27.6789 90.9855 22.3039 96.3594 22.3039 102.99Z" fill="#FFD500"/>
<path fill-rule="evenodd" clip-rule="evenodd" d="M34.5 87.997C42.5081 87.9987 49 94.4919 49 102.5C49 110.508 42.5081 116.999 34.5 116.997C26.4919 116.995 20 110.502 20 102.494C20 94.4859 26.4919 87.9954 34.5 87.997ZM44.5694 102.499C44.5694 96.9379 40.0612 92.4287 34.5 92.4276C28.9388 92.4265 24.4306 96.9338 24.4306 102.495C24.4306 108.056 28.9388 112.565 34.5 112.566C40.0612 112.568 44.5694 108.06 44.5694 102.499Z" fill="black"/>
<path d="M80 102.495C80 109.399 85.5964 114.996 92.5 114.998C99.4036 114.999 105 109.404 105 102.5C105 95.5964 99.4036 89.9989 92.5 89.9975C85.5964 89.9961 80 95.5914 80 102.495Z" fill="#EDEB7F"/>
<path d="M104.702 102.99C104.702 109.62 99.327 114.996 92.6967 114.997C86.0663 114.999 80.6914 109.625 80.6914 102.995C80.6914 96.3642 86.0663 90.9882 92.6967 90.9869C99.327 90.9855 104.702 96.3594 104.702 102.99Z" fill="#FFD500"/>
<path fill-rule="evenodd" clip-rule="evenodd" d="M92.5 87.997C100.508 87.9987 107 94.4919 107 102.5C107 110.508 100.508 116.999 92.5 116.997C84.4919 116.995 78 110.502 78 102.494C78 94.4859 84.4919 87.9954 92.5 87.997ZM102.569 102.499C102.569 96.9379 98.0612 92.4287 92.5 92.4276C86.9388 92.4265 82.4306 96.9338 82.4306 102.495C82.4306 108.056 86.9388 112.565 92.5 112.566C98.0612 112.568 102.569 108.06 102.569 102.499Z" fill="black"/>
</svg>
