<svg width="128" height="129" viewBox="0 0 128 129" fill="none" xmlns="http://www.w3.org/2000/svg">
<path d="M96.1067 47.9316C97.165 30.414 83.8222 15.3539 66.3047 14.2939C48.7871 13.2339 33.7285 26.5755 32.6701 44.0931C31.6118 61.6107 44.9547 76.6708 62.4722 77.7308C79.9897 78.7908 95.0484 65.4492 96.1067 47.9316Z" fill="#F3C70D"/>
<mask id="mask0" mask-type="alpha" maskUnits="userSpaceOnUse" x="32" y="14" width="65" height="64">
<path d="M96.104 47.9326C97.1622 30.4162 83.8204 15.3572 66.3041 14.2973C48.7878 13.2374 33.7302 26.578 32.672 44.0943C31.6137 61.6107 44.9556 76.6698 62.4719 77.7297C79.9882 78.7896 95.0458 65.449 96.104 47.9326Z" fill="#F3C70D"/>
</mask>
<g mask="url(#mask0)">
<path d="M62.9043 32.6479L31.7107 24.3486V28.069L62.9043 32.6479Z" fill="#D98200"/>
<path d="M66.8262 32.6479L98.0197 24.3486V28.069L66.8262 32.6479Z" fill="#D98200"/>
<path d="M62.9043 43.4731L31.7107 35.1738V38.8942L62.9043 43.4731Z" fill="#D98200"/>
<path d="M66.8262 43.4731L98.0197 35.1738V38.8942L66.8262 43.4731Z" fill="#D98200"/>
<path d="M62.9043 54.2993L31.7107 46V49.7204L62.9043 54.2993Z" fill="#D98200"/>
<path d="M66.8262 54.2993L98.0197 46V49.7204L66.8262 54.2993Z" fill="#D98200"/>
<path d="M62.9043 65.1245L31.7107 56.8252V60.5456L62.9043 65.1245Z" fill="#D98200"/>
<path d="M66.8262 65.1245L98.0197 56.8252V60.5456L66.8262 65.1245Z" fill="#D98200"/>
<path d="M62.5527 54.3332L31.7116 49.0918V50.68L62.5527 54.3332Z" fill="#FFD600"/>
<path d="M67.1797 54.3332L98.0209 49.0918V50.68L67.1797 54.3332Z" fill="#FFD600"/>
<path d="M62.5527 65.1925L31.7116 59.9512V61.5394L62.5527 65.1925Z" fill="#FFD600"/>
<path d="M67.1797 65.1925L98.0209 59.9512V61.5394L67.1797 65.1925Z" fill="#FFD600"/>
<path d="M62.5527 43.508L31.7116 38.2666V39.8548L62.5527 43.508Z" fill="#FFD600"/>
<path d="M67.1797 43.508L98.0209 38.2666V39.8548L67.1797 43.508Z" fill="#FFD600"/>
<path d="M62.5527 32.6818L31.7116 27.4404V29.0286L62.5527 32.6818Z" fill="#FFD600"/>
<path d="M67.1797 32.6818L98.0209 27.4404V29.0286L67.1797 32.6818Z" fill="#FFD600"/>
</g>
<path fill-rule="evenodd" clip-rule="evenodd" d="M64 12.3762C82.7777 12.3755 98 27.5973 98 46.375C98 65.1527 82.7777 80.3755 64 80.3762C45.2223 80.3768 30 65.1551 30 46.3774C30 27.5997 45.2223 12.3768 64 12.3762ZM92.8097 46.3752C92.8097 30.464 79.9112 17.5659 64 17.5665C48.0888 17.567 35.1903 30.466 35.1903 46.3772C35.1903 62.2884 48.0888 75.1865 64 75.1859C79.9112 75.1854 92.8097 62.2864 92.8097 46.3752Z" fill="black"/>
<path d="M22.5098 69.9495C22.5098 47.7183 40.5435 29.6963 62.763 29.6963C84.9825 29.6963 103.016 47.7183 103.016 69.9495C103.016 92.1808 84.9825 110.203 62.763 110.203C40.5435 110.203 22.5098 92.1808 22.5098 69.9495Z" fill="url(#paint0_linear)"/>
<path d="M36.3718 109.553C31.915 109.776 27.4413 103.61 25.7285 101.088C27.0807 92.8552 34.6152 90.6257 38.2135 90.54C39.3256 92.7041 47.831 96.7059 47.831 99.8173C47.831 99.8173 44.566 109.144 36.3718 109.553Z" fill="#58EBBE" stroke="black" stroke-width="1.81594" stroke-miterlimit="10"/>
<path opacity="0.5" d="M37.9593 91.7773C39.4587 94.296 41.8572 99.9063 39.4557 102.197C33.2946 106.211 30.6649 105.599 27.002 101.035C26.9929 92.3938 34.3031 91.2627 37.9593 91.7773Z" fill="#1E876B"/>
<path d="M49.1559 75.8335C46.1951 78.2634 41.5644 80.1286 39.6191 80.7574L38.9395 92.8802L48.8449 99.7308L63.1293 96.1815V81.9071L58.1106 76.6833C56.1687 74.3848 52.8569 72.7962 49.1559 75.8335Z" fill="url(#paint1_linear)" stroke="black" stroke-width="1.81594" stroke-miterlimit="10"/>
<path opacity="0.5" d="M44.3408 85.7499C44.5307 84.9618 43.8203 83.6472 43.4414 83.0884C44.6411 83.3293 51.4484 80.5037 53.6865 79.6788C55.4769 79.0189 56.7521 80.5815 57.1659 81.4453C55.4664 80.3226 53.639 80.9925 52.9377 81.4678C48.6011 84.2414 45.3995 85.4782 44.3408 85.7499Z" fill="#FFFFFB"/>
<path opacity="0.75" d="M49.8572 77.0458C53.1062 74.3844 55.2107 75.0237 57.0256 77.1719L61.2887 82.0484L61.6042 82.4092V94.9771L49.01 98.135L39.877 91.8561L41.0683 90.8495L49.8572 95.939L55.6474 94.2695C57.0173 90.8951 59.7276 84.8175 61.2887 82.0484L56.4744 78.1449C53.7355 74.9031 51.2213 76.3673 49.8572 77.0458Z" fill="#7E4A01"/>
<path fill-rule="evenodd" clip-rule="evenodd" d="M42.1582 91.6031L43.3522 90.0199L50.2774 93.6647L53.7035 92.4671C56.2387 91.2259 58.7555 86.4921 60.5561 83.095L61.5952 81.6572C60.2114 85.0094 55.7292 94.6938 55.7292 94.6938L50.4095 96.1785L42.1582 91.6031Z" fill="black"/>
<path d="M38.9107 80.3245C31.8982 82.8033 25.6216 79.0401 23.3599 76.8486C15.8264 89.4901 21.4396 100.674 25.1879 104.686C27.7544 97.9645 36.9638 93.558 41.2476 92.1949C45.597 85.6897 41.5019 81.5708 38.9107 80.3245Z" fill="url(#paint2_linear)" stroke="black" stroke-width="1.81594" stroke-miterlimit="10"/>
<path opacity="0.5" d="M29.8769 94.9882C27.8127 90.9444 28.7945 85.1971 29.5434 82.8289C26.7464 82.2712 24.5051 81.0003 23.734 80.4346C20.0315 89.9454 22.9376 97.6053 24.8534 100.246C25.7279 98.9126 28.5667 96.1852 29.8769 94.9882Z" fill="#FFFFFB"/>
<path opacity="0.5" d="M37.227 85.4256C37.8511 86.1643 37.7582 87.269 37.0195 87.893C36.2809 88.5171 35.1762 88.4242 34.5521 87.6856C33.9281 86.9469 34.021 85.8422 34.7596 85.2182C35.4983 84.5941 36.603 84.687 37.227 85.4256Z" fill="#FFFFFB"/>
<path d="M38.8704 88.4017C39.7584 86.8601 39.2287 84.8906 37.6871 84.0026C37.5608 83.9298 37.4314 83.8665 37.3001 83.8125C37.8873 83.8401 38.4769 84.0044 39.0211 84.3179C40.8457 85.3689 41.473 87.7002 40.422 89.5247C39.371 91.3494 37.0397 91.9764 35.2151 90.9254C34.3161 90.4076 33.7072 89.5784 33.4473 88.6529C33.7085 89.0232 34.0527 89.3441 34.4713 89.5853C36.013 90.4733 37.9824 89.9433 38.8704 88.4017Z" fill="black"/>
<path d="M89.8899 109.553C94.3467 109.776 98.8204 103.61 100.533 101.088C99.1811 92.8552 91.6465 90.6257 88.0482 90.54C86.9361 92.7041 78.4307 96.7059 78.4307 99.8173C78.4307 99.8173 81.6957 109.144 89.8899 109.553Z" fill="#58EBBE" stroke="black" stroke-width="1.81594" stroke-miterlimit="10"/>
<path opacity="0.5" d="M88.3024 91.7773C86.803 94.296 84.4045 99.9063 86.806 102.197C92.9671 106.211 95.5968 105.599 99.2598 101.035C99.2688 92.3938 91.9587 91.2627 88.3024 91.7773Z" fill="#1E876B"/>
<path d="M77.1058 75.8335C80.0666 78.2634 84.6974 80.1286 86.6427 80.7574L87.3223 92.8802L77.4168 99.7308L63.1324 96.1815V81.9071L68.1511 76.6833C70.093 74.3848 73.4048 72.7962 77.1058 75.8335Z" fill="url(#paint3_linear)" stroke="black" stroke-width="1.81594" stroke-miterlimit="10"/>
<path opacity="0.5" d="M81.9209 85.7499C81.731 84.9618 82.4414 83.6472 82.8203 83.0884C81.6206 83.3293 74.8133 80.5037 72.5753 79.6788C70.7848 79.0189 69.5096 80.5815 69.0958 81.4453C70.7953 80.3226 72.6227 80.9925 73.324 81.4678C77.6606 84.2414 80.8622 85.4782 81.9209 85.7499Z" fill="#FFFFFB"/>
<path opacity="0.75" d="M76.4045 77.0458C73.1555 74.3844 71.051 75.0237 69.2361 77.1719L64.973 82.0484L64.6576 82.4092V94.9771L77.2517 98.135L86.3848 91.8561L85.1934 90.8495L76.4045 95.939L70.6143 94.2695C69.2444 90.8951 66.5341 84.8175 64.973 82.0484L69.7873 78.1449C72.5262 74.9031 75.0404 76.3673 76.4045 77.0458Z" fill="#7E4A01"/>
<path fill-rule="evenodd" clip-rule="evenodd" d="M84.1035 91.6031L82.9095 90.0199L75.9843 93.6647L72.5582 92.4671C70.023 91.2259 67.5063 86.4921 65.7056 83.095L64.6665 81.6572C66.0503 85.0094 70.5325 94.6938 70.5325 94.6938L75.8522 96.1785L84.1035 91.6031Z" fill="black"/>
<path d="M87.351 80.3245C94.3636 82.8033 100.64 79.0401 102.902 76.8486C110.435 89.4901 104.822 100.674 101.074 104.686C98.5073 97.9645 89.298 93.558 85.0141 92.1949C80.6647 85.6897 84.7598 81.5708 87.351 80.3245Z" fill="url(#paint4_linear)" stroke="black" stroke-width="1.81594" stroke-miterlimit="10"/>
<path opacity="0.5" d="M96.3848 94.9882C98.449 90.9444 97.4672 85.1971 96.7183 82.8289C99.5153 82.2712 101.757 81.0003 102.528 80.4346C106.23 89.9454 103.324 97.6053 101.408 100.246C100.534 98.9126 97.695 96.1852 96.3848 94.9882Z" fill="#FFFFFB"/>
<path opacity="0.5" d="M89.0347 85.4256C88.4106 86.1643 88.5035 87.269 89.2422 87.893C89.9808 88.5171 91.0855 88.4242 91.7096 87.6856C92.3336 86.9469 92.2407 85.8422 91.5021 85.2182C90.7634 84.5941 89.6588 84.687 89.0347 85.4256Z" fill="#FFFFFB"/>
<path d="M87.3913 88.4017C86.5033 86.8601 87.033 84.8906 88.5746 84.0026C88.7009 83.9298 88.8303 83.8665 88.9616 83.8125C88.3744 83.8401 87.7848 84.0044 87.2406 84.3179C85.416 85.3689 84.7887 87.7002 85.8397 89.5247C86.8907 91.3494 89.222 91.9764 91.0467 90.9254C91.9456 90.4076 92.5545 89.5784 92.8145 88.6529C92.5532 89.0232 92.209 89.3441 91.7904 89.5853C90.2488 90.4733 88.2793 89.9433 87.3913 88.4017Z" fill="black"/>
<path d="M97.6446 52.5779L97.9821 51.8319L98.7578 52.0938C99.8353 52.4575 100.431 53.3272 100.744 54.1157C101.055 54.9023 101.139 55.729 101.122 56.2728L101.117 56.4373L101.054 56.5894C100.141 58.8099 98.7696 60.6074 97.1767 62.0521C98.6053 61.1668 99.8005 60.2787 100.634 59.5696L101.782 58.5922L102.103 60.0654C102.708 62.8343 102.413 65.2072 101.486 67.2053C100.564 69.1921 99.0466 70.744 97.3035 71.9378C96.6074 72.4146 95.87 72.838 95.1111 73.2122C98.8742 71.8257 101.342 69.2234 102.354 67.5449L103.683 65.3402L104.025 67.8916C104.277 69.772 103.661 71.4387 102.719 72.8139C103.09 72.5183 103.403 72.2444 103.637 72.0202L104.085 71.5928L104.645 71.8547C106.251 72.6052 107.128 73.571 107.328 74.6688C107.522 75.7371 107.017 76.626 106.542 77.1106L106.493 77.1603L106.438 77.2019C99.6026 82.3116 90.357 82.3283 82.2059 80.4163C74.0537 78.5041 66.7043 74.5959 63.5024 71.4739L64.461 69.9833C68.7464 71.6465 75.2109 71.5585 81.2277 70.7001C82.4107 70.5313 83.5693 70.3338 84.6821 70.1164C82.6115 70.0916 80.5085 69.9517 78.4932 69.7396C75.576 69.4325 72.7994 68.9694 70.5026 68.4621C68.2294 67.96 66.3579 67.3999 65.293 66.8781L65.6595 65.1621C73.5127 64.8882 81.1232 62.6805 87.0001 60.0272C89.9373 58.7012 92.4224 57.2724 94.2757 55.9345C96.1698 54.5673 97.2809 53.3818 97.6446 52.5779Z" fill="#CA0000" stroke="black" stroke-width="1.80876"/>
<path opacity="0.5" d="M94.5552 67.9727C88.6453 71.1109 76.4364 72.2024 70.8333 72.1866L70.502 75.2167C87.5474 74.9136 93.6397 70.2611 94.5552 67.9727Z" fill="#590000"/>
<path opacity="0.5" d="M103.048 68.0146C97.6397 75.422 90.4676 75.52 86.2344 74.7558C89.2091 76.0535 92.5668 76.6926 95.6095 75.5631C99.5191 74.1118 101.176 71.7589 103.048 68.0146Z" fill="#590000"/>
<path opacity="0.5" d="M104.299 72.6621C101.493 74.9193 99.3143 76.4044 96.459 76.4044C98.6077 76.9219 100.958 76.334 102.547 74.7978C103.15 74.2144 103.735 73.5576 104.299 72.6621Z" fill="#590000"/>
<path opacity="0.5" d="M101.292 60.2461C92.4834 66.9178 87.5672 66.859 83.7051 66.5956C86.3367 67.867 89.378 68.2828 92.0213 67.0357C95.3141 65.4821 98.5739 63.1066 101.292 60.2461Z" fill="#590000"/>
<path d="M29.0082 52.6303L28.6707 51.8843L27.895 52.1462C26.8206 52.5089 26.2266 53.3761 25.9153 54.1618C25.6047 54.9457 25.5216 55.7695 25.5381 56.3114L25.5431 56.4759L25.6057 56.628C26.5097 58.8255 27.8639 60.6071 29.4375 62.0412C28.0306 61.167 26.8533 60.2915 26.0306 59.5913L24.8824 58.614L24.5609 60.0872C23.9591 62.8451 24.2523 65.209 25.1761 67.1996C26.0946 69.1787 27.606 70.7247 29.3422 71.9138C30.0157 72.375 30.728 72.7861 31.4609 73.1509C27.7527 71.7644 25.3196 69.1949 24.3186 67.5341L22.9897 65.3295L22.6477 67.8808C22.3977 69.7451 23.004 71.3983 23.9343 72.7644C23.5733 72.4761 23.2691 72.2091 23.0397 71.9899L22.5925 71.5626L22.0321 71.8244C20.432 72.572 19.5576 73.5346 19.3584 74.6295C19.1647 75.6949 19.6683 76.5812 20.1418 77.0644L20.1905 77.114L20.2462 77.1557C27.0539 82.2449 36.2622 82.2613 44.3795 80.3573C52.498 78.453 59.8173 74.5609 63.0064 71.4514L62.0478 69.9607C57.7813 71.6166 51.3448 71.5291 45.3534 70.6743C44.1882 70.5081 43.0468 70.3139 41.9498 70.1001C44 70.0742 46.0812 69.9353 48.0763 69.7253C50.9813 69.4196 53.7465 68.9584 56.0337 68.4532C58.2975 67.9531 60.1615 67.3954 61.2223 66.8755L60.8559 65.1595C53.0361 64.8868 45.4581 62.6885 39.6061 60.0465C36.6815 58.7261 34.207 57.3034 32.3617 55.9713C30.4756 54.6099 29.3699 53.4299 29.0082 52.6303Z" fill="#CA0000" stroke="black" stroke-width="1.80876"/>
<path opacity="0.5" d="M32.0828 67.9609C37.9678 71.086 50.1256 72.173 55.7052 72.1573L56.0352 75.1746C39.0612 74.8728 32.9944 70.2397 32.0828 67.9609Z" fill="#590000"/>
<path opacity="0.5" d="M23.6243 68.0029C29.0097 75.3792 36.1518 75.4768 40.3672 74.7158C37.4049 76.008 34.0613 76.6445 31.0314 75.5198C27.1382 74.0745 25.4883 71.7314 23.6243 68.0029Z" fill="#590000"/>
<path opacity="0.5" d="M22.3786 72.6318C25.1722 74.8795 27.3422 76.3584 30.1855 76.3584C28.0458 76.8738 25.7053 76.2883 24.123 74.7585C23.5221 74.1776 22.9397 73.5236 22.3786 72.6318Z" fill="#590000"/>
<path opacity="0.5" d="M25.374 60.2676C34.1452 66.9114 39.0408 66.8527 42.8867 66.5904C40.2661 67.8566 37.2376 68.2706 34.6054 67.0287C31.3264 65.4817 28.0802 63.1161 25.374 60.2676Z" fill="#590000"/>
<ellipse cx="62.9491" cy="70.1948" rx="7.47414" ry="8.97082" transform="rotate(90 62.9491 70.1948)" fill="url(#paint5_linear)" stroke="black" stroke-width="1.80876" stroke-miterlimit="10"/>
<path d="M65.8912 44.0009L66.6433 44.8145L67.2933 43.9172C67.9229 43.048 68.1993 41.7059 68.2121 40.3245C68.2252 38.9059 67.9628 37.2903 67.3639 35.7658C66.1583 32.6972 63.5181 29.8854 58.9829 30.0299C57.1939 30.087 55.6187 30.5193 54.2328 31.0138C53.603 31.2385 53.0033 31.4796 52.4464 31.7034C52.3932 31.7248 52.3404 31.746 52.288 31.7671C51.6788 32.0117 51.1275 32.2296 50.6054 32.3994C49.5519 32.7419 48.7524 32.8406 48.0491 32.6257C47.3628 32.416 46.5903 31.8505 45.7303 30.4599L44.8193 28.9869L44.126 30.574C43.8164 31.2828 43.5216 32.6165 43.8522 34.0317C43.4227 33.9192 42.9757 33.8321 42.5186 33.7699C40.9063 33.5505 39.0909 33.6294 37.3086 34.0565C33.7486 34.9095 30.1916 37.1939 28.769 41.4306L27.9749 43.7957L30.1034 42.4942C30.2803 42.3861 30.4601 42.2736 30.6419 42.1598C30.7384 42.0993 30.8356 42.0385 30.9332 41.9778C30.6419 42.5579 30.3633 43.2387 30.1113 44.0339C29.5225 45.8915 28.3065 47.1987 27.0348 47.5368C25.8766 47.8447 24.2733 47.4358 22.6225 44.946L21.5947 43.396L21.0047 45.1598C20.4651 46.7727 20.4027 49.2823 21.8566 51.7094C23.3195 54.1515 26.2381 56.3826 31.4227 57.5938C33.0741 58.0174 35.6859 57.7406 38.7773 56.1809C41.8987 54.6061 45.568 51.698 49.3696 46.7375C52.0228 43.2754 55.4867 41.8671 58.6362 41.6923C61.8383 41.5146 64.6061 42.6106 65.8912 44.0009Z" fill="#AD00FF" stroke="black" stroke-width="1.81594"/>
<path d="M31.6392 56.7121C21.59 54.3684 20.9364 48.2261 21.8658 45.448C21.8962 51.6331 24.7741 52.2253 27.5448 52.9807C30.3156 53.7361 33.1539 51.2916 34.6472 45.9474C35.8419 41.6721 39.9692 40.765 41.8835 40.8459C40.9302 39.6607 39.3071 38.8479 38.6147 38.5896C39.1837 38.1949 41.073 37.6722 44.0779 38.7391C47.0827 39.8061 49.8706 38.8036 50.8889 38.1691C52.2586 36.7335 56.3342 34.2238 61.6798 35.6694C67.0255 37.115 67.1593 41.4153 66.558 43.3847C63.5221 40.1003 54.3047 38.8053 48.6489 46.1853C41.1777 55.9342 34.3752 57.4211 31.6392 56.7121Z" fill="#5A0084"/>
<path d="M22 102.87C22 109.774 27.5964 115.371 34.5 115.373C41.4036 115.374 47 109.779 47 102.875C47 95.9714 41.4036 90.3739 34.5 90.3725C27.5964 90.3711 22 95.9664 22 102.87Z" fill="#BB5334"/>
<path d="M34.9953 115.74C42.1228 115.74 47.9008 110.062 47.9008 103.057C47.9008 96.0531 42.1228 90.375 34.9953 90.375C27.8678 90.375 22.0898 96.0531 22.0898 103.057C22.0898 110.062 27.8678 115.74 34.9953 115.74Z" fill="#CA0000"/>
<path fill-rule="evenodd" clip-rule="evenodd" d="M34.5 88.372C42.5081 88.3737 49 94.8669 49 102.875C49 110.883 42.5081 117.374 34.5 117.372C26.4919 117.37 20 110.877 20 102.869C20 94.8609 26.4919 88.3704 34.5 88.372ZM44.5694 102.874C44.5694 97.3129 40.0612 92.8037 34.5 92.8026C28.9388 92.8015 24.4306 97.3088 24.4306 102.87C24.4306 108.431 28.9388 112.94 34.5 112.941C40.0612 112.943 44.5694 108.435 44.5694 102.874Z" fill="black"/>
<path d="M80 102.87C80 109.774 85.5964 115.371 92.5 115.373C99.4036 115.374 105 109.779 105 102.875C105 95.9714 99.4036 90.3739 92.5 90.3725C85.5964 90.3711 80 95.9664 80 102.87Z" fill="#BB5334"/>
<path d="M92.9949 115.74C85.8674 115.74 80.0895 110.062 80.0895 103.057C80.0895 96.0531 85.8674 90.375 92.9949 90.375C100.122 90.375 105.9 96.0531 105.9 103.057C105.9 110.062 100.122 115.74 92.9949 115.74Z" fill="#CA0000"/>
<path fill-rule="evenodd" clip-rule="evenodd" d="M92.5 88.372C100.508 88.3737 107 94.8669 107 102.875C107 110.883 100.508 117.374 92.5 117.372C84.4919 117.37 78 110.877 78 102.869C78 94.8609 84.4919 88.3704 92.5 88.372ZM102.569 102.874C102.569 97.3129 98.0612 92.8037 92.5 92.8026C86.9388 92.8015 82.4306 97.3088 82.4306 102.87C82.4306 108.431 86.9388 112.94 92.5 112.941C98.0612 112.943 102.569 108.435 102.569 102.874Z" fill="black"/>
<defs>
<linearGradient id="paint0_linear" x1="92.0495" y1="39.9293" x2="35.0958" y2="100.169" gradientUnits="userSpaceOnUse">
<stop stop-color="#CB9406"/>
<stop offset="0.276042" stop-color="#FAD410"/>
<stop offset="0.53125" stop-color="#EAB409"/>
<stop offset="0.713542" stop-color="#B17900"/>
<stop offset="1" stop-color="#E0AA09"/>
</linearGradient>
<linearGradient id="paint1_linear" x1="51.7026" y1="74.3955" x2="51.3342" y2="99.0957" gradientUnits="userSpaceOnUse">
<stop stop-color="#CB9406"/>
<stop offset="0.276042" stop-color="#FAD410"/>
<stop offset="0.53125" stop-color="#EAB409"/>
<stop offset="0.713542" stop-color="#B17900"/>
<stop offset="1" stop-color="#E0AA09"/>
</linearGradient>
<linearGradient id="paint2_linear" x1="30.3452" y1="74.8193" x2="30.7518" y2="100.338" gradientUnits="userSpaceOnUse">
<stop stop-color="#CB9406"/>
<stop offset="0.276042" stop-color="#FAD410"/>
<stop offset="0.53125" stop-color="#EAB409"/>
<stop offset="0.713542" stop-color="#B17900"/>
<stop offset="1" stop-color="#E0AA09"/>
</linearGradient>
<linearGradient id="paint3_linear" x1="74.5591" y1="74.3955" x2="74.9275" y2="99.0957" gradientUnits="userSpaceOnUse">
<stop stop-color="#CB9406"/>
<stop offset="0.276042" stop-color="#FAD410"/>
<stop offset="0.53125" stop-color="#EAB409"/>
<stop offset="0.713542" stop-color="#B17900"/>
<stop offset="1" stop-color="#E0AA09"/>
</linearGradient>
<linearGradient id="paint4_linear" x1="95.9165" y1="74.8193" x2="95.5099" y2="100.338" gradientUnits="userSpaceOnUse">
<stop stop-color="#CB9406"/>
<stop offset="0.276042" stop-color="#FAD410"/>
<stop offset="0.53125" stop-color="#EAB409"/>
<stop offset="0.713542" stop-color="#B17900"/>
<stop offset="1" stop-color="#E0AA09"/>
</linearGradient>
<linearGradient id="paint5_linear" x1="68.387" y1="63.5046" x2="55.7753" y2="74.6183" gradientUnits="userSpaceOnUse">
<stop stop-color="#CB9406"/>
<stop offset="0.276042" stop-color="#FAD410"/>
<stop offset="0.53125" stop-color="#EAB409"/>
<stop offset="0.713542" stop-color="#B17900"/>
<stop offset="1" stop-color="#E0AA09"/>
</linearGradient>
</defs>
</svg>
