<svg width="128" height="128" viewBox="0 0 128 128" fill="none" xmlns="http://www.w3.org/2000/svg">
<path d="M106.921 81.6883C97.4332 86.9066 76.3232 81.6883 80.8298 60.5783C83.9133 45.398 101.94 42.7889 110.953 51.0906C119.966 59.8667 118.78 75.047 106.921 81.6883Z" fill="url(#paint0_radial_1581_577)"/>
<path d="M96.2461 73.1492C89.8419 70.7773 84.3865 65.7963 80.8286 59.8665C80.8286 59.8665 80.8286 59.8665 80.8286 59.6293C88.8931 66.2707 100.278 70.3029 108.58 65.5591C112.138 63.6616 114.273 61.0525 115.459 58.4434C116.17 60.3409 116.645 62.4756 116.645 64.3731C112.138 71.2517 103.599 75.7583 96.2461 73.1492Z" fill="#942B04" fill-opacity="0.5"/>
<path d="M80.1177 64.6099C84.6243 70.7768 90.5541 75.7579 98.1442 77.181C104.548 78.6042 110.953 75.5207 115.934 70.7768C115.696 71.4884 115.222 72.4372 114.985 73.1488C113.324 74.3347 111.664 75.2835 110.241 76.2322C105.023 79.3157 98.3814 82.8736 92.4516 79.7901C87.4706 77.181 83.2012 72.4372 80.3549 67.219C80.1177 66.2702 80.1177 65.5586 80.1177 64.6099Z" fill="#942B04" fill-opacity="0.5"/>
<path d="M99.3247 65.3214C92.9206 64.6098 86.5164 62.0007 81.5354 57.7312C81.7726 56.7825 82.247 55.8337 82.7213 55.1221C83.1957 55.5965 83.9073 56.0709 84.3817 56.5453C90.7858 61.2891 100.748 63.8982 106.678 56.5453C108.101 54.6478 109.05 52.513 109.524 50.1411C109.998 50.6155 110.473 50.8527 110.71 51.0899C112.37 52.7502 113.793 54.6478 114.742 56.5453C112.845 62.4751 105.966 66.0329 99.3247 65.3214Z" fill="#942B04" fill-opacity="0.5"/>
<path opacity="0.25" d="M92.9324 52.988C93.1696 52.2764 93.4068 51.5648 93.644 50.8532C98.8622 48.9557 104.792 49.9045 108.824 53.4624C113.568 57.969 114.991 64.6104 112.619 70.3029C104.555 73.3864 89.6118 68.8798 92.9324 52.988Z" fill="#B65343"/>
<path fill-rule="evenodd" clip-rule="evenodd" d="M80.8641 65.0016C80.8641 74.7539 88.7661 82.6498 98.5 82.6512C108.234 82.6526 116.136 74.7591 116.136 65.0068C116.136 55.2545 108.234 47.3587 98.5 47.3573C88.7661 47.3559 80.8641 55.2493 80.8641 65.0016ZM98.5 90.5042C84.4106 90.5022 73 79.0776 73 65.0005C73 50.9234 84.4106 39.5022 98.5 39.5042C112.589 39.5063 124 50.9309 124 65.008C124 79.0851 112.589 90.5063 98.5 90.5042Z" fill="black"/>
<path d="M21.0831 81.6883C30.5707 86.9066 51.6808 81.6883 47.1741 60.5783C44.0906 45.398 26.0641 42.7889 17.0508 51.0906C8.03752 59.8667 9.22348 75.047 21.0831 81.6883Z" fill="url(#paint1_radial_1581_577)"/>
<path d="M31.7578 73.1492C38.162 70.7773 43.6174 65.7963 47.1753 59.8665C47.1753 59.8665 47.1753 59.8665 47.1753 59.6293C39.1108 66.2707 27.7256 70.3029 19.4239 65.5591C15.866 63.6616 13.7313 61.0525 12.5453 58.4434C11.8338 60.3409 11.3594 62.4756 11.3594 64.3731C15.866 71.2517 24.4049 75.7583 31.7578 73.1492Z" fill="#942B04" fill-opacity="0.5"/>
<path d="M47.8862 64.6099C43.3796 70.7768 37.4498 75.7579 29.8597 77.181C23.4555 78.6042 17.0513 75.5207 12.0703 70.7768C12.3075 71.4884 12.7819 72.4372 13.0191 73.1488C14.6794 74.3347 16.3398 75.2835 17.7629 76.2322C22.9811 79.3157 29.6225 82.8736 35.5523 79.7901C40.5333 77.181 44.8027 72.4372 47.649 67.219C47.8862 66.2702 47.8862 65.5586 47.8862 64.6099Z" fill="#942B04" fill-opacity="0.5"/>
<path d="M28.6753 65.3214C35.0794 64.6098 41.4836 62.0007 46.4646 57.7312C46.2274 56.7825 45.753 55.8337 45.2787 55.1221C44.8043 55.5965 44.0927 56.0709 43.6183 56.5453C37.2142 61.2891 27.2521 63.8982 21.3223 56.5453C19.8992 54.6478 18.9504 52.513 18.476 50.1411C18.0016 50.6155 17.5273 50.8527 17.2901 51.0899C15.6297 52.7502 14.2066 54.6478 13.2578 56.5453C15.1553 62.4751 22.0339 66.0329 28.6753 65.3214Z" fill="#942B04" fill-opacity="0.5"/>
<path opacity="0.25" d="M35.0715 52.988C34.8343 52.2764 34.5971 51.5648 34.3599 50.8532C29.1417 48.9557 23.2119 49.9045 19.1796 53.4624C14.4358 57.969 13.0127 64.6104 15.3846 70.3029C23.4491 73.3864 38.3921 68.8798 35.0715 52.988Z" fill="#B65343"/>
<path fill-rule="evenodd" clip-rule="evenodd" d="M47.1359 65.0016C47.1359 74.7539 39.2339 82.6498 29.5 82.6512C19.7661 82.6526 11.8641 74.7591 11.8641 65.0068C11.8641 55.2545 19.7661 47.3587 29.5 47.3573C39.2339 47.3559 47.1359 55.2493 47.1359 65.0016ZM29.5 90.5042C43.5894 90.5022 55 79.0776 55 65.0005C55 50.9234 43.5894 39.5022 29.5 39.5042C15.4106 39.5063 4 50.9309 4 65.008C4 79.0851 15.4106 90.5063 29.5 90.5042Z" fill="black"/>
<defs>
<radialGradient id="paint0_radial_1581_577" cx="0" cy="0" r="1" gradientUnits="userSpaceOnUse" gradientTransform="translate(98.5469 65.0041) rotate(90) scale(18.5632 18.3398)">
<stop/>
<stop offset="1" stop-color="#601018"/>
</radialGradient>
<radialGradient id="paint1_radial_1581_577" cx="0" cy="0" r="1" gradientUnits="userSpaceOnUse" gradientTransform="translate(29.457 65.0041) rotate(90) scale(18.5632 18.3398)">
<stop/>
<stop offset="1" stop-color="#601018"/>
</radialGradient>
</defs>
</svg>
