<svg width="128" height="128" viewBox="0 0 128 128" fill="none" xmlns="http://www.w3.org/2000/svg">
<path d="M32 46.5022C32 63.8992 46.103 78.0017 63.5 78.0011C80.897 78.0005 95 63.897 95 46.5C95 29.103 80.897 15.0005 63.5 15.0011C46.103 15.0017 32 29.1052 32 46.5022Z" fill="url(#paint0_radial)" stroke="black" stroke-width="11.014" stroke-miterlimit="10"/>
<path fill-rule="evenodd" clip-rule="evenodd" d="M64 12.0012C82.7777 12.0005 98 27.2223 98 46C98 64.7777 82.7777 80.0005 64 80.0012C45.2223 80.0018 30 64.7801 30 46.0024C30 27.2247 45.2223 12.0018 64 12.0012ZM92.8097 46.0002C92.8097 30.089 79.9112 17.1909 64 17.1915C48.0888 17.192 35.1903 30.091 35.1903 46.0022C35.1903 61.9134 48.0888 74.8115 64 74.8109C79.9112 74.8104 92.8097 61.9114 92.8097 46.0002Z" fill="black"/>
<mask id="mask0" mask-type="alpha" maskUnits="userSpaceOnUse" x="22" y="29" width="83" height="82">
<path d="M63.0029 111C85.6465 111 104.002 92.6437 104.001 70C104.001 47.3563 85.6437 29 63 29C40.3563 29 22.0006 47.3563 22.0014 70C22.0022 92.6437 40.3592 111 63.0029 111Z" fill="url(#paint1_radial)"/>
</mask>
<g mask="url(#mask0)">
<path d="M63.0029 111C85.6465 111 104.002 92.6437 104.001 70C104.001 47.3563 85.6437 29 63 29C40.3563 29 22.0006 47.3563 22.0014 70C22.0022 92.6437 40.3592 111 63.0029 111Z" fill="url(#paint2_radial)"/>
<mask id="mask1" mask-type="alpha" maskUnits="userSpaceOnUse" x="20" y="27" width="86" height="86">
<rect x="20" y="27" width="86" height="86" fill="#C4C4C4"/>
</mask>
<g mask="url(#mask1)">
<path d="M43.4933 71.9772C42.0666 68.7911 43.7786 67.6325 48.0588 65.0256C51.8038 62.7447 53.3643 58.9115 54.0783 57.7946C55.575 55.2539 60.2003 55.9567 62.3259 56.6257C65.9402 57.3981 73.9108 59.3484 76.8784 60.9705C80.5879 62.998 78.3051 67.0532 78.3051 67.9221C78.3051 68.7911 74.025 78.0599 73.1689 80.0875C72.3129 82.115 69.1741 86.1702 66.606 88.777C64.038 91.3839 59.4725 89.3563 56.0483 87.0391C52.6242 84.7219 49.4854 80.9564 48.0588 78.9289C46.6322 76.9013 44.92 75.1634 43.4933 71.9772Z" fill="url(#paint3_radial)"/>
<path d="M69.2846 90.3575C71.02 89.4875 74.4907 83.3975 75.9369 79.0475C79.1184 76.4375 81.1431 79.0475 85.4815 83.1075C89.82 87.1675 83.7461 97.0275 81.1431 99.3475C79.0606 101.204 73.141 101.861 70.4415 101.958C67.3002 102.108 65.6864 101.888 63.2107 100.798C60.539 98.0792 59.9995 96.5559 63.2107 93.8375C64.6569 92.9675 67.8963 91.0535 69.2846 90.3575Z" fill="url(#paint4_radial)"/>
<path d="M84.0316 64.0692C84.9411 61.724 84.0316 61.4308 83.1221 58.7924C86.0325 54.5709 88.9832 56.0562 90.0948 57.3266C90.9032 59.0855 92.5201 62.8966 92.5201 64.0692C92.5201 65.535 91.0043 68.1735 92.5201 71.9846C94.0359 75.7956 91.6106 76.382 90.0948 79.6067C88.579 82.8315 87.9727 79.6067 87.0632 78.4341C86.1537 77.2614 83.1221 75.2093 82.2126 74.623C81.3032 74.0367 81 71.6914 81 70.8119C81 69.9324 83.1221 66.4145 84.0316 64.0692Z" fill="url(#paint5_radial)"/>
<path d="M67.8022 53.8339C71.1652 54.7103 77.0571 57.5577 79.3779 57.9126C83.2134 57.4127 81.4767 54.0238 82.1856 51.9595C82.8946 49.8951 80.2542 49.5819 79.1703 48.7371L79.1703 48.7371C78.0864 47.8923 75.9187 46.2029 75.3355 41.6777C74.7523 37.1525 74.5993 38.487 72.4596 34.4933C70.3199 30.4995 66.067 35.3264 63.51 35.6596C60.9529 35.9928 59.813 39.7566 61.1468 42.5408C62.4806 45.3249 60.3962 44.2819 58.4504 46.8361C56.8938 48.8795 56.2728 50.9543 56.1569 51.7362C57.2686 52.7965 64.4393 52.9575 67.8022 53.8339Z" fill="url(#paint6_radial)"/>
<path d="M78.4245 44.1671C77.8292 42.3486 76.9362 40.2272 76.6386 37.8026C75.2098 34.6507 76.3411 32.3474 78.4245 32.0443C80.5079 31.7412 83.4251 33.0747 84.3776 33.5597C85.5682 34.1658 89.1401 35.6811 89.7354 37.8026C90.3307 39.9241 89.7354 41.7425 89.7354 42.6517C89.7354 43.5609 88.8425 44.1671 88.2471 45.3793C87.6518 46.5916 87.3542 47.8039 86.4612 48.7131C85.5682 49.6223 83.187 48.1069 81.4011 47.8039C79.6151 47.5008 79.0198 45.9855 78.4245 44.1671Z" fill="url(#paint7_radial)"/>
<path d="M95 67.3553C95 64.3195 96.7143 63.7123 98.1429 61.5873C103 57.9443 104.143 61.5873 104.143 62.498C104.143 63.4088 105 66.7481 105 68.8732C105 70.9983 104.143 72.5162 104.143 73.7305C104.143 74.9448 102.429 78.2842 101.571 77.9806C100.714 77.677 98.1429 74.6412 97 73.7305C95.8571 72.8197 95 70.3911 95 67.3553Z" fill="url(#paint8_radial)"/>
<path d="M99.0785 59.6988C101.908 58.5009 100.776 58.5009 100.776 55.8054C100.554 53.4095 96.5315 43.2268 94.8336 42.3284C93.1357 41.4299 92.0037 42.6278 92.0037 42.9273C92.0037 43.1669 89.5513 46.8207 88.325 48.6177C87.4761 50.1151 86.3444 52.6309 87.4763 54.308C88.8913 56.4044 91.1549 55.2065 92.8528 59.6988C94.5507 64.1912 94.8337 62.9932 95.6827 62.3942C96.5316 61.7953 96.2486 60.8968 99.0785 59.6988Z" fill="url(#paint9_radial)"/>
<path d="M100.732 90.3529C101.625 89.4706 102.22 83.8824 101.923 82.7059C100.435 78 97.1605 78 95.97 78C94.7795 78 94.4819 78 93.2913 79.7647C92.1007 81.5294 92.6961 84.1765 92.3984 85.6471C92.1008 87.1176 90.3152 91.8235 90.0175 93C89.7199 94.1765 93.2914 98 94.4819 98C95.6724 98 99.8392 91.2353 100.732 90.3529Z" fill="url(#paint10_radial)"/>
<path d="M92.8505 102.973C93.1855 101.536 91.1218 100.615 89.6763 98.8425C88.8342 96.7966 84.2091 102.749 82.101 103.562C79.993 104.375 76.6708 106.024 75.4715 106.282C74.512 106.488 73.2493 107.67 72.7379 108.235C73.7139 108.935 76.0249 110.286 77.4611 110.092C79.2564 109.85 81.953 109.341 84.955 108.551C87.957 107.762 92.5155 104.41 92.8505 102.973Z" fill="url(#paint11_radial)"/>
<path d="M36.7971 90.469C38.5318 92.7519 37.5194 94.2529 37.6009 96.7213C35.831 102.42 32.8432 100.377 32.3228 99.6922C31.8024 99.0073 29.2145 97.0185 28.0003 95.4205C26.786 93.8225 26.5983 92.1588 25.9044 91.2457C25.2105 90.3326 24.6617 86.7769 25.5149 86.483C26.368 86.189 30.1417 86.9051 31.5683 86.8936C32.995 86.8822 35.0624 88.1862 36.7971 90.469Z" fill="url(#paint12_radial)"/>
<path d="M39.2241 100.938C37.6704 103.571 38.568 102.881 40.1211 104.925C41.6781 106.607 50.7351 111.877 52.5992 111.524C54.4632 111.171 54.6705 109.573 54.498 109.346C54.3599 109.164 54.1992 104.899 54.1361 102.789C53.9465 101.136 53.3942 98.5392 51.5302 97.9572C49.2003 97.2296 48.0956 99.5172 44.1607 97.1452C40.2258 94.7732 40.6917 95.854 40.3636 96.8255C40.0356 97.7969 40.7777 98.3058 39.2241 100.938Z" fill="url(#paint13_radial)"/>
<path d="M20.0162 74.7034C19.842 75.95 22.751 80.7621 23.6988 81.5174C27.7259 84.3577 30.3221 82.3628 31.2661 81.6374C32.2101 80.9121 32.4461 80.7308 32.3225 78.6003C32.1989 76.4698 30.1252 74.7249 29.4715 73.3727C28.8178 72.0205 27.3865 67.1856 26.9107 66.0676C26.4349 64.9495 21.2896 64.0813 20.3456 64.8067C19.4015 65.532 20.1903 73.4569 20.0162 74.7034Z" fill="url(#paint14_radial)"/>
<path d="M20.2507 61.1389C20.8543 62.4872 23.0478 61.9626 25.2661 62.4927C27.1713 63.6083 27.2387 56.0505 28.4187 54.1186C29.5987 52.1867 31.2359 48.8492 32.0308 47.9128C32.6668 47.1636 32.9534 45.4532 33.0172 44.6917C31.8198 44.7292 29.1697 45.0618 28.1482 46.0916C26.8713 47.379 25.0405 49.4272 23.1376 51.8856C21.2346 54.3439 19.6471 59.7906 20.2507 61.1389Z" fill="url(#paint15_radial)"/>
<path d="M48.9005 60.0371C46.9346 62.0816 45.5304 63.25 43.8454 63.8341C38.7902 68.7995 37.3858 63.8341 38.2285 62.6658C39.0713 61.4975 38.79 61.2054 39.3517 59.4529C39.9133 57.7004 38.7902 56.8242 38.2285 54.4876C37.6668 52.1509 39.3519 50.3985 40.4752 49.2301C41.5986 48.0618 43.8454 46.0173 44.9687 46.3093C46.0921 46.6014 49.743 46.3093 51.1472 46.0173C52.5515 45.7252 53.6748 49.2301 53.9557 49.8143C54.2365 50.3984 53.1131 53.3192 52.5515 53.9034C51.9898 54.4876 50.8664 57.9925 48.9005 60.0371Z" fill="url(#paint16_radial)"/>
<path d="M52.4083 39.0665C51.4993 39.6177 47.6835 39.7102 45.3452 39.5828C42.4546 38.8247 42.2105 37.9104 42.5832 36.429C42.9559 34.9476 43.8167 35.2949 45.3263 34.4761C46.836 33.6573 49.6434 30.5065 51.1692 29.3883C52.6949 28.2701 58.9132 27.1071 62.064 28.4801C65.2148 29.8531 63.3807 31.2548 62.7962 31.223C62.2116 31.1911 58.7203 30.7006 59.3559 35.2403C59.9916 39.78 59.0826 40.3311 58.0931 42.3796C57.1037 44.428 54.197 43.9694 54.2935 42.1726C54.3899 40.3758 53.3173 38.5154 52.4083 39.0665Z" fill="url(#paint17_radial)"/>
<path d="M44.2294 41.9516C46.2128 42.832 48.1961 41.9516 49.3294 41.9516C53.0128 41.5855 52.1625 45.473 51.0292 45.473C49.8959 45.473 49.3294 45.7664 47.0626 45.473C44.7958 45.1795 44.7959 45.473 43.096 46.6468C41.396 47.8205 41.1127 45.7664 41.1127 44.8861C41.1127 44.0057 38.2795 44.2992 36.8629 43.7123C35.4462 43.1254 36.0129 43.4189 36.8629 41.0713C37.5429 39.1932 39.224 38.9193 39.9795 39.0171C40.735 39.7019 42.6428 41.2473 44.2294 41.9516Z" fill="url(#paint18_radial)"/>
<path d="M37.8043 54.1445C37.1971 52.0265 38.1079 50.8162 39.3223 49.3033C41.7512 45.6724 36.8935 43.2518 36.5902 46.5801C36.2869 49.9084 32.3397 53.2368 31.7325 54.4471C31.1253 55.6574 31.4289 56.5651 31.1253 59.5908C30.8216 62.6166 29 62.9192 29 65.3398C29 67.7604 30.518 68.6681 33.5541 68.9707C36.5902 69.2733 37.1971 67.1552 36.8935 66.2475C36.5899 65.3398 37.8043 62.314 38.1079 61.1037C38.4116 59.8934 38.4115 56.2625 37.8043 54.1445Z" fill="url(#paint19_radial)"/>
<path d="M33.1566 74.8086C30.0193 71.1414 34.0122 69.6134 36.2938 69.3078C38.8609 68.5394 39.4309 69.3078 39.4309 70.5302C39.4309 71.7526 40.0014 73.2806 41.7126 73.8918C43.4238 74.503 44.5647 78.1702 43.709 78.7814C42.8534 79.3926 38.8605 83.6709 37.4345 83.9765C36.0085 84.2821 34.5824 81.5317 35.1529 80.0037C35.7233 78.4758 36.2938 78.4758 33.1566 74.8086Z" fill="url(#paint20_radial)"/>
<path d="M40.1135 85.2609C40.4028 84.9565 43.0069 81.913 45.0322 81C48.2148 81 47.0577 82.5217 47.9257 83.1304C48.7937 83.7391 49.3724 85.8696 50.819 87.6957C52.2657 89.5217 51.9764 90.1304 51.9764 91.9565C51.9764 93.7826 49.083 95 47.9257 95C46.7683 95 45.0322 94.3913 44.1643 94.087C43.47 93.8435 42.7176 92.1594 42.4283 91.3478C42.0425 90.6377 41.1551 89.0348 40.6922 88.3043C40.1135 87.3913 39.8242 85.5652 40.1135 85.2609Z" fill="url(#paint21_radial)"/>
<path d="M53.8098 93.9407C54.7307 93.6466 55.0376 91.2941 56.2654 91C59.3348 91.5881 62.0975 93.9407 60.5628 95.411C59.0281 96.8813 57.8003 98.6457 57.4933 97.7635C57.1864 96.8813 55.0376 96.5872 53.8098 95.9991C52.582 95.411 52.889 94.2347 53.8098 93.9407Z" fill="url(#paint22_radial)"/>
<path d="M58.0767 110.259C58.0767 109.954 58.3673 106.3 58.0767 104.777C58.5609 104.371 59.7615 103.68 60.6912 104.168C61.8533 104.777 63.0155 105.995 64.7587 106.909C66.5018 107.822 65.6304 106.909 67.9547 108.127C70.2789 109.345 69.9884 110.259 69.9884 111.173C69.9884 112.086 67.0829 113 65.3397 113C63.5965 113 61.5634 112.695 59.5297 112.086C57.496 111.477 58.0767 110.563 58.0767 110.259Z" fill="url(#paint23_radial)"/>
</g>
</g>
<mask id="mask2" mask-type="alpha" maskUnits="userSpaceOnUse" x="21" y="89" width="27" height="27">
<path d="M48 102.5C48 95.044 41.9558 89.0002 34.5 89.0005C27.0442 89.0007 21 95.0449 21 102.5C21 109.956 27.0442 116 34.5 116C41.9558 115.999 48 109.955 48 102.5Z" fill="url(#paint24_radial)"/>
</mask>
<g mask="url(#mask2)">
<path d="M49 101.999C49 94.267 42.732 87.9992 35 87.9995C27.268 87.9998 21 94.268 21 102C21 109.732 27.268 116 35 116C42.732 115.999 49 109.731 49 101.999Z" fill="url(#paint25_radial)"/>
<path d="M29.9015 108.256C28.739 107.823 28.8844 107.102 29.3203 105.371C29.7017 103.856 29.1375 102.506 29.0392 102.048C28.783 101.037 30.1369 100.042 30.8459 99.6715C31.9599 98.9501 34.4785 97.4207 35.6409 97.0744C37.0939 96.6416 37.5299 98.2287 37.7478 98.4451C37.9658 98.6615 39.2008 102.052 39.4914 102.774C39.782 103.495 40 105.298 40 106.597C40 107.896 38.329 108.545 36.876 108.833C35.423 109.122 33.6793 108.978 32.8075 108.833C31.9357 108.689 31.0639 108.689 29.9015 108.256Z" fill="url(#paint26_radial)"/>
<path d="M41.0902 106.87C41.2947 106.218 40.6814 103.827 40 102.378C40.1363 100.929 41.2265 101.073 43.2026 101.001C45.1787 100.929 46.0645 104.914 45.9964 106.145C45.9418 107.131 44.7017 108.778 44.0884 109.478C43.3838 110.303 42.9517 110.652 42.1124 111C40.8442 110.99 40.3592 110.745 40.477 109.261C40.6133 108.681 40.9267 107.392 41.0902 106.87Z" fill="url(#paint27_radial)"/>
<path d="M37.5917 96.0224C37.2289 95.2503 36.9387 95.3907 36.068 94.9695C35.7197 93.2849 36.7936 92.9574 37.374 93.0042C38.0029 93.2381 39.3331 93.7763 39.6233 94.057C39.9861 94.408 40.2763 95.3907 41.5823 95.9522C42.8883 96.5137 42.453 97.2156 42.8883 98.3387C43.3237 99.4617 42.3804 98.83 41.8725 98.7598C41.3646 98.6896 40.1312 98.9002 39.7684 98.9704C39.4056 99.0406 38.7526 98.5492 38.5349 98.3387C38.3173 98.1281 37.9545 96.7945 37.5917 96.0224Z" fill="url(#paint28_radial)"/>
<path d="M30.7988 97.7209C31.8611 97.1265 34.0483 96.3941 34.7193 95.925C35.5585 94.8939 34.2805 94.5093 33.9457 93.8543C33.611 93.1992 32.87 93.7542 32.3879 93.8134C31.9058 93.8725 30.9417 93.9908 29.6712 93.0639C28.4006 92.137 28.6937 92.4877 27.1642 92.0566C25.6347 91.6255 25.7655 93.7751 25.2061 94.4625C24.6466 95.1499 25.2953 96.3079 26.3219 96.646C27.3485 96.9841 26.5659 97.2348 26.7117 98.2997C26.8283 99.1517 27.1877 99.7882 27.3529 100C27.8954 99.985 29.7365 98.3153 30.7988 97.7209Z" fill="url(#paint29_radial)"/>
<path d="M31.0252 92.6468C30.4585 92.3409 29.7502 92.035 29.1128 91.4997C28.0362 91.0715 27.7671 90.1997 28.192 89.588C28.6169 88.9763 29.6227 88.5633 29.9627 88.4409C30.3877 88.288 31.5918 87.7527 32.2293 88.135C32.8667 88.5174 33.15 89.1292 33.3625 89.3586C33.575 89.588 33.5042 89.9703 33.6459 90.4291C33.7875 90.888 34 91.2703 34 91.7291C34 92.188 33.0792 92.4174 32.5834 92.7997C32.0876 93.1821 31.5918 92.9527 31.0252 92.6468Z" fill="url(#paint30_radial)"/>
<path d="M41.5929 94.9208C40.8518 94.1567 41.1482 93.5455 41 92.6287C41.3705 90.413 42.5562 91.0242 42.7786 91.2534C43.0009 91.4826 44.0384 92.0939 44.5571 92.6287C45.0759 93.1635 45.2241 93.7747 45.5205 94.0803C45.8169 94.3859 46.1874 95.6848 45.891 95.8376C45.5946 95.9904 44.1866 95.914 43.6678 95.9904C43.1491 96.0668 42.3339 95.6848 41.5929 94.9208Z" fill="url(#paint31_radial)"/>
<path d="M40.7969 91.0809C41.224 90.0849 40.9393 90.3695 40.2986 89.7292C39.6732 89.216 36.2412 87.8084 35.6006 88.0219C34.96 88.2353 34.96 88.8044 35.0311 88.8755C35.0881 88.9325 35.3396 90.4169 35.4583 91.152C35.6006 91.7212 35.9139 92.6032 36.5972 92.7171C37.4514 92.8593 37.7361 92.0057 39.2309 92.646C40.7257 93.2863 40.5122 92.9306 40.5834 92.5749C40.6546 92.2191 40.3698 92.0769 40.7969 91.0809Z" fill="url(#paint32_radial)"/>
<path d="M48.5572 98.4758C48.5572 98.0484 47.3076 96.5523 46.9401 96.3386C45.3966 95.5549 44.588 96.3386 44.294 96.6236C44 96.9085 43.9265 96.9798 44.0735 97.6922C44.2205 98.4046 45.029 98.9033 45.323 99.3307C45.617 99.7582 46.3521 101.325 46.5726 101.682C46.7931 102.038 48.6307 102.109 48.9247 101.824C49.2187 101.539 48.5572 98.9033 48.5572 98.4758Z" fill="url(#paint33_radial)"/>
<path d="M48.8787 103.311C48.5763 102.835 47.7818 103.127 46.9187 103.027C46.1404 102.695 46.5394 105.514 46.2046 106.286C45.8697 107.057 45.4421 108.373 45.1961 108.757C44.9992 109.064 44.9876 109.713 45.0064 110C45.454 109.933 46.4308 109.693 46.7567 109.264C47.1641 108.729 47.7369 107.885 48.3137 106.886C48.8905 105.886 49.1811 103.787 48.8787 103.311Z" fill="url(#paint34_radial)"/>
<path d="M32.8611 113.049C33.8717 113.201 33.9927 113.916 34.6325 114.593C35.6155 116.715 34.3488 116.989 34.0456 116.943C33.7424 116.897 32.5903 117.072 31.8829 116.965C31.1754 116.858 30.7107 116.44 30.3065 116.379C29.9022 116.318 28.8717 115.465 29.0133 115.138C29.1549 114.811 30.287 113.937 30.6443 113.527C31.0015 113.116 31.8505 112.896 32.8611 113.049Z" fill="url(#paint35_radial)"/>
<path d="M35.8905 116.183C36.154 117.295 36.2069 116.872 37.0974 116.999C37.8994 117.029 41.4516 116.009 41.8278 115.418C42.204 114.827 41.8611 114.348 41.7622 114.334C41.683 114.323 40.5906 113.236 40.0542 112.694C39.5992 112.307 38.8209 111.766 38.2139 112.109C37.4551 112.538 37.7451 113.439 36.1815 113.861C34.618 114.282 35.0005 114.444 35.1587 114.789C35.3169 115.134 35.627 115.071 35.8905 116.183Z" fill="url(#paint36_radial)"/>
<path d="M25.4031 115.163C25.6722 115.542 27.6124 116.048 28.0405 115.996C29.7669 115.678 29.9193 114.452 29.9747 114.006C30.03 113.56 30.0439 113.449 29.4779 112.914C28.9118 112.378 27.952 112.467 27.448 112.281C26.944 112.095 25.3699 111.188 24.9695 111.017C24.569 110.846 23.0564 111.99 23.001 112.436C22.9456 112.881 25.1339 114.784 25.4031 115.163Z" fill="url(#paint37_radial)"/>
<path d="M22.0178 110.969C22.5652 111.148 23.0312 110.501 23.8004 110.1C24.6464 109.913 22.5426 108.09 22.33 107.348C22.1174 106.605 21.6378 105.418 21.5971 105.005C21.5645 104.674 21.1643 104.197 20.9682 104C20.644 104.294 19.9964 105.004 20 105.493C20.0045 106.105 20.0679 107.03 20.2262 108.07C20.3845 109.111 21.4703 110.791 22.0178 110.969Z" fill="url(#paint38_radial)"/>
<path d="M29 104.121C29 105.112 28.9254 105.75 28.6269 106.316C28.5522 108.794 26.9104 107.944 26.8358 107.449C26.7613 106.953 26.6119 106.953 26.3134 106.387C26.0149 105.82 25.4925 105.891 24.7463 105.466C24 105.042 24 104.192 24 103.626C24 103.059 24.0746 101.997 24.4478 101.785C24.8209 101.573 25.7164 100.581 26.0149 100.157C26.3134 99.7318 27.5075 100.298 27.7313 100.369C27.9552 100.44 28.403 101.431 28.403 101.714C28.403 101.997 29 103.13 29 104.121Z" fill="url(#paint39_radial)"/>
<path d="M23.9243 97.8806C23.8397 98.2244 22.9904 99.1526 22.429 99.6787C21.6013 100.19 21.3422 100.036 21.0975 99.6035C20.8528 99.1714 21.1263 99.0474 21.2883 98.4987C21.4502 97.95 21.3891 96.552 21.4881 95.9301C21.5871 95.3081 22.7459 93.5607 23.7697 93.1304C24.7935 92.7002 24.6874 93.4612 24.547 93.5927C24.4067 93.7242 23.5016 94.4401 24.6567 95.342C25.8119 96.244 25.7273 96.5879 25.9576 97.2981C26.1879 98.0084 25.4231 98.5928 25.0453 98.1531C24.6674 97.7134 24.0089 97.5367 23.9243 97.8806Z" fill="url(#paint40_radial)"/>
<path d="M22.2628 100.66C23.005 100.381 23.3018 99.6814 23.5987 99.4017C24.471 98.4054 25.2315 99.5416 24.9346 99.8213C24.6377 100.101 24.5635 100.311 23.8955 100.8C23.2275 101.29 23.3018 101.36 23.1534 102.059C23.0049 102.758 22.4112 102.339 22.1885 102.129C21.9659 101.919 21.298 102.688 20.7784 102.898C20.2589 103.108 20.4816 103.038 20.1105 102.269C19.8136 101.653 20.1847 101.173 20.4074 101.01C20.7784 100.987 21.6691 100.884 22.2628 100.66Z" fill="url(#paint41_radial)"/>
<path d="M24.149 105.548C23.5334 105.164 23.465 104.626 23.3966 103.935C23.1229 102.4 21.4813 103.014 22.1654 103.935C22.8495 104.857 22.7126 106.699 22.8494 107.16C22.9862 107.621 23.2598 107.774 23.8755 108.619C24.4911 109.463 24.1491 110.001 24.6963 110.615C25.2435 111.229 25.7907 111.076 26.5431 110.385C27.2956 109.694 26.9535 109.003 26.6799 108.849C26.4063 108.696 25.9959 107.621 25.7907 107.237C25.5855 106.853 24.7646 105.932 24.149 105.548Z" fill="url(#paint42_radial)"/>
<path d="M28.139 111.731C26.3644 111.66 27.0588 110.315 27.5989 109.678C28.0993 108.863 28.4475 108.9 28.7561 109.183C29.0647 109.466 29.6048 109.678 30.222 109.395C30.8393 109.112 32.0737 109.678 31.9965 110.032C31.9194 110.386 31.9194 112.368 31.6108 112.793C31.3022 113.218 30.222 112.934 29.9906 112.439C29.7591 111.943 29.9135 111.802 28.139 111.731Z" fill="url(#paint43_radial)"/>
<path d="M32.0085 112.81C32.0085 112.656 31.9323 111.194 32.2369 110.425C33.0747 109.579 33.1509 110.271 33.5317 110.194C33.9125 110.117 34.598 110.502 35.4358 110.579C36.2735 110.656 36.3497 110.887 36.8067 111.348C37.2636 111.81 36.8067 112.887 36.502 113.195C36.1974 113.503 35.5881 113.811 35.2834 113.964C35.0397 114.088 34.4203 113.862 34.141 113.734C33.8617 113.657 33.2271 113.487 32.9224 113.426C32.5416 113.349 32.0085 112.964 32.0085 112.81Z" fill="url(#paint44_radial)"/>
<path d="M38.1823 110.53C38.3145 110.277 37.8519 109.71 38.0502 109.394C38.8433 108.89 39.967 108.827 39.967 109.457C39.967 110.088 40.0991 110.719 39.8348 110.593C39.5704 110.467 39.0416 110.845 38.645 110.971C38.2484 111.097 38.0502 110.782 38.1823 110.53Z" fill="url(#paint45_radial)"/>
<path d="M42.435 113.792C42.3553 113.726 41.4783 112.876 41 112.614C41.0265 112.418 41.1753 112 41.558 111.895C42.0363 111.764 42.6741 111.764 43.3916 111.568C44.1091 111.372 43.6308 111.372 44.5875 111.11C45.5442 110.848 45.7036 111.11 45.9428 111.306C46.182 111.503 45.6239 112.353 45.1455 112.745C44.6672 113.138 44.0296 113.53 43.312 113.857C42.5945 114.184 42.5147 113.857 42.435 113.792Z" fill="url(#paint46_radial)"/>
</g>
<mask id="mask3" mask-type="alpha" maskUnits="userSpaceOnUse" x="77" y="89" width="27" height="27">
<path d="M77 102.5C77 95.044 83.0442 89.0002 90.5 89.0005C97.9558 89.0007 104 95.0449 104 102.5C104 109.956 97.9558 116 90.5 116C83.0442 115.999 77 109.955 77 102.5Z" fill="url(#paint47_radial)"/>
</mask>
<g mask="url(#mask3)">
<path d="M76 101.499C76 94.0432 82.268 87.9993 90 87.9995C97.732 87.9998 104 94.0442 104 101.5C104 108.956 97.732 115 90 115C82.268 114.999 76 108.955 76 101.499Z" fill="url(#paint48_radial)"/>
<path d="M95.0985 108.256C96.261 107.823 96.1156 107.102 95.6797 105.371C95.2983 103.856 95.8625 102.506 95.9608 102.048C96.217 101.037 94.8631 100.042 94.1541 99.6715C93.0401 98.9501 90.5215 97.4207 89.3591 97.0744C87.9061 96.6416 87.4701 98.2287 87.2522 98.4451C87.0342 98.6615 85.7992 102.052 85.5086 102.774C85.218 103.495 85 105.298 85 106.597C85 107.896 86.671 108.545 88.124 108.833C89.577 109.122 91.3207 108.978 92.1925 108.833C93.0643 108.689 93.9361 108.689 95.0985 108.256Z" fill="url(#paint49_radial)"/>
<path d="M83.9098 105.87C83.7053 105.218 84.3186 102.827 85 101.378C84.8637 99.9285 83.7735 100.073 81.7974 100.001C79.8213 99.9285 78.9355 103.914 79.0036 105.145C79.0582 106.131 80.2983 107.778 80.9116 108.478C81.6162 109.303 82.0483 109.652 82.8876 110C84.1558 109.99 84.6408 109.745 84.523 108.261C84.3867 107.681 84.0733 106.392 83.9098 105.87Z" fill="url(#paint50_radial)"/>
<path d="M87.4083 96.0224C87.7711 95.2503 88.0613 95.3907 88.932 94.9695C89.2803 93.2849 88.2064 92.9574 87.626 93.0042C86.9971 93.2381 85.6669 93.7763 85.3767 94.057C85.0139 94.408 84.7237 95.3907 83.4177 95.9522C82.1117 96.5137 82.547 97.2156 82.1117 98.3387C81.6763 99.4617 82.6196 98.83 83.1275 98.7598C83.6354 98.6896 84.8688 98.9002 85.2316 98.9704C85.5944 99.0406 86.2474 98.5492 86.4651 98.3387C86.6827 98.1281 87.0455 96.7945 87.4083 96.0224Z" fill="url(#paint51_radial)"/>
<path d="M94.2012 97.7209C93.1389 97.1265 90.9517 96.3941 90.2807 95.925C89.4415 94.8939 90.7195 94.5093 91.0543 93.8543C91.389 93.1992 92.13 93.7542 92.6121 93.8134C93.0942 93.8725 94.0583 93.9908 95.3288 93.0639C96.5994 92.137 96.3063 92.4877 97.8358 92.0566C99.3653 91.6255 99.2345 93.7751 99.7939 94.4625C100.353 95.1499 99.7047 96.3079 98.6781 96.646C97.6515 96.9841 98.4341 97.2348 98.2883 98.2997C98.1717 99.1517 97.8123 99.7882 97.6471 100C97.1046 99.985 95.2635 98.3153 94.2012 97.7209Z" fill="url(#paint52_radial)"/>
<path d="M93.9748 92.6468C94.5415 92.3409 95.2498 92.035 95.8872 91.4997C96.9638 91.0715 97.2329 90.1997 96.808 89.588C96.3831 88.9763 95.3773 88.5633 95.0373 88.4409C94.6123 88.288 93.4082 87.7527 92.7707 88.135C92.1333 88.5174 91.85 89.1292 91.6375 89.3586C91.425 89.588 91.4958 89.9703 91.3541 90.4291C91.2125 90.888 91 91.2703 91 91.7291C91 92.188 91.9208 92.4174 92.4166 92.7997C92.9124 93.1821 93.4082 92.9527 93.9748 92.6468Z" fill="url(#paint53_radial)"/>
<path d="M83.4071 94.9208C84.1482 94.1567 83.8518 93.5455 84 92.6287C83.6295 90.413 82.4438 91.0242 82.2214 91.2534C81.9991 91.4826 80.9616 92.0939 80.4429 92.6287C79.9241 93.1635 79.7759 93.7747 79.4795 94.0803C79.1831 94.3859 78.8126 95.6848 79.109 95.8376C79.4054 95.9904 80.8134 95.914 81.3322 95.9904C81.8509 96.0668 82.6661 95.6848 83.4071 94.9208Z" fill="url(#paint54_radial)"/>
<path d="M84.2031 91.0809C83.776 90.0849 84.0607 90.3695 84.7014 89.7292C85.3268 89.216 88.7588 87.8084 89.3994 88.0219C90.04 88.2353 90.04 88.8044 89.9689 88.8755C89.9119 88.9325 89.6604 90.4169 89.5417 91.152C89.3994 91.7212 89.0861 92.6032 88.4028 92.7171C87.5486 92.8593 87.2639 92.0057 85.7691 92.646C84.2743 93.2863 84.4878 92.9306 84.4166 92.5749C84.3454 92.2191 84.6302 92.0769 84.2031 91.0809Z" fill="url(#paint55_radial)"/>
<path d="M76.4428 98.4758C76.4428 98.0484 77.6924 96.5523 78.0599 96.3386C79.6034 95.5549 80.412 96.3386 80.706 96.6236C81 96.9085 81.0735 96.9798 80.9265 97.6922C80.7795 98.4046 79.971 98.9033 79.677 99.3307C79.383 99.7582 78.6479 101.325 78.4274 101.682C78.2069 102.038 76.3693 102.109 76.0753 101.824C75.7813 101.539 76.4428 98.9033 76.4428 98.4758Z" fill="url(#paint56_radial)"/>
<path d="M76.1213 103.267C76.4237 102.859 77.2182 103.109 78.0813 103.023C78.8596 102.739 78.4606 105.155 78.7954 105.816C79.1303 106.478 79.5579 107.605 79.8039 107.934C80.0008 108.197 80.0124 108.754 79.9936 109C79.546 108.943 78.5692 108.737 78.2433 108.37C77.8359 107.91 77.2631 107.187 76.6863 106.331C76.1095 105.474 75.8189 103.675 76.1213 103.267Z" fill="url(#paint57_radial)"/>
<path d="M92.1389 113.036C91.1283 113.151 91.0073 113.687 90.3675 114.195C89.3845 115.787 90.6512 115.991 90.9544 115.957C91.2576 115.923 92.4097 116.054 93.1171 115.974C93.8246 115.894 94.2893 115.58 94.6935 115.534C95.0978 115.488 96.1283 114.849 95.9867 114.604C95.8451 114.359 94.713 113.703 94.3557 113.395C93.9985 113.087 93.1495 112.922 92.1389 113.036Z" fill="url(#paint58_radial)"/>
<path d="M89.1095 115.183C88.846 116.295 88.7931 115.872 87.9026 115.999C87.1006 116.029 83.5484 115.009 83.1722 114.418C82.796 113.827 83.1389 113.348 83.2378 113.334C83.317 113.323 84.4094 112.236 84.9458 111.694C85.4008 111.307 86.1791 110.766 86.7861 111.109C87.5449 111.538 87.2549 112.439 88.8185 112.861C90.382 113.282 89.9995 113.444 89.8413 113.789C89.6831 114.134 89.373 114.071 89.1095 115.183Z" fill="url(#paint59_radial)"/>
<path d="M99.5969 113.331C99.3278 113.634 97.3876 114.039 96.9595 113.997C95.2331 113.742 95.0807 112.761 95.0253 112.405C94.97 112.048 94.9561 111.959 95.5221 111.531C96.0882 111.103 97.048 111.174 97.552 111.025C98.056 110.876 99.6301 110.151 100.031 110.014C100.431 109.877 101.944 110.792 101.999 111.148C102.054 111.505 99.8661 113.027 99.5969 113.331Z" fill="url(#paint60_radial)"/>
<path d="M102.982 109.969C102.435 110.148 101.969 109.501 101.2 109.1C100.354 108.913 102.457 107.09 102.67 106.348C102.883 105.605 103.362 104.418 103.403 104.005C103.435 103.674 103.836 103.197 104.032 103C104.356 103.294 105.004 104.004 105 104.493C104.995 105.105 104.932 106.03 104.774 107.07C104.615 108.111 103.53 109.791 102.982 109.969Z" fill="url(#paint61_radial)"/>
<path d="M96 103.121C96 104.112 96.0746 104.75 96.3731 105.316C96.4478 107.794 98.0896 106.944 98.1642 106.449C98.2387 105.953 98.3881 105.953 98.6866 105.387C98.9851 104.82 99.5075 104.891 100.254 104.466C101 104.042 101 103.192 101 102.626C101 102.059 100.925 100.997 100.552 100.785C100.179 100.573 99.2836 99.5814 98.9851 99.1566C98.6866 98.7318 97.4925 99.2982 97.2687 99.369C97.0448 99.4398 96.597 100.431 96.597 100.714C96.597 100.997 96 102.13 96 103.121Z" fill="url(#paint62_radial)"/>
<path d="M101.076 97.8806C101.16 98.2244 102.01 99.1526 102.571 99.6787C103.399 100.19 103.658 100.036 103.902 99.6035C104.147 99.1714 103.874 99.0474 103.712 98.4987C103.55 97.95 103.611 96.552 103.512 95.9301C103.413 95.3081 102.254 93.5607 101.23 93.1304C100.206 92.7002 100.313 93.4612 100.453 93.5927C100.593 93.7242 101.498 94.4401 100.343 95.342C99.1881 96.244 99.2727 96.5879 99.0424 97.2981C98.8121 98.0084 99.5769 98.5928 99.9547 98.1531C100.333 97.7134 100.991 97.5367 101.076 97.8806Z" fill="url(#paint63_radial)"/>
<path d="M102.737 100.66C101.995 100.381 101.698 99.6814 101.401 99.4017C100.529 98.4054 99.7685 99.5416 100.065 99.8213C100.362 100.101 100.436 100.311 101.104 100.8C101.772 101.29 101.698 101.36 101.847 102.059C101.995 102.758 102.589 102.339 102.811 102.129C103.034 101.919 103.702 102.688 104.222 102.898C104.741 103.108 104.518 103.038 104.89 102.269C105.186 101.653 104.815 101.173 104.593 101.01C104.222 100.987 103.331 100.884 102.737 100.66Z" fill="url(#paint64_radial)"/>
<path d="M100.851 105.229C101.467 104.893 101.535 104.423 101.603 103.818C101.877 102.475 103.519 103.012 102.835 103.818C102.151 104.624 102.287 106.237 102.151 106.64C102.014 107.043 101.74 107.178 101.125 107.917C100.509 108.656 100.851 109.126 100.304 109.663C99.7565 110.201 99.2093 110.066 98.4569 109.462C97.7044 108.857 98.0465 108.253 98.3201 108.118C98.5937 107.984 99.0041 107.043 99.2093 106.707C99.4145 106.371 100.235 105.565 100.851 105.229Z" fill="url(#paint65_radial)"/>
<path d="M96.861 110.731C98.6356 110.66 97.9412 109.315 97.4011 108.678C96.9007 107.863 96.5525 107.9 96.2439 108.183C95.9353 108.466 95.3952 108.678 94.778 108.395C94.1607 108.112 92.9263 108.678 93.0035 109.032C93.0806 109.386 93.0806 111.368 93.3892 111.793C93.6978 112.218 94.778 111.934 95.0094 111.439C95.2409 110.943 95.0865 110.802 96.861 110.731Z" fill="url(#paint66_radial)"/>
<path d="M92.9915 111.81C92.9915 111.656 93.0677 110.194 92.7631 109.425C91.9253 108.579 91.8491 109.271 91.4683 109.194C91.0875 109.117 90.402 109.502 89.5642 109.579C88.7265 109.656 88.6503 109.887 88.1933 110.348C87.7364 110.81 88.1933 111.887 88.498 112.195C88.8026 112.503 89.4119 112.811 89.7166 112.964C89.9603 113.088 90.5797 112.862 90.859 112.734C91.1383 112.657 91.7729 112.487 92.0776 112.426C92.4584 112.349 92.9915 111.964 92.9915 111.81Z" fill="url(#paint67_radial)"/>
<path d="M86.8177 110.53C86.6855 110.277 87.1481 109.71 86.9498 109.394C86.1567 108.89 85.033 108.827 85.033 109.457C85.033 110.088 84.9009 110.719 85.1652 110.593C85.4296 110.467 85.9584 110.845 86.355 110.971C86.7516 111.097 86.9498 110.782 86.8177 110.53Z" fill="url(#paint68_radial)"/>
<path d="M82.565 112.792C82.6447 112.726 83.5217 111.876 84 111.614C83.9735 111.418 83.8247 111 83.442 110.895C82.9637 110.764 82.3259 110.764 81.6084 110.568C80.8909 110.372 81.3692 110.372 80.4125 110.11C79.4558 109.848 79.2964 110.11 79.0572 110.306C78.818 110.503 79.3761 111.353 79.8545 111.745C80.3328 112.138 80.9704 112.53 81.688 112.857C82.4055 113.184 82.4853 112.857 82.565 112.792Z" fill="url(#paint69_radial)"/>
</g>
<defs>
<radialGradient id="paint0_radial" cx="0" cy="0" r="1" gradientUnits="userSpaceOnUse" gradientTransform="translate(63.5 46.5011) rotate(179.998) scale(31.5)">
<stop stop-color="#FFCD1A"/>
<stop offset="1" stop-color="#FF6C1A"/>
</radialGradient>
<radialGradient id="paint1_radial" cx="0" cy="0" r="1" gradientUnits="userSpaceOnUse" gradientTransform="translate(63.0014 70) rotate(89.998) scale(41)">
<stop stop-color="#FFCD1A"/>
<stop offset="1" stop-color="#FF6C1A"/>
</radialGradient>
<radialGradient id="paint2_radial" cx="0" cy="0" r="1" gradientUnits="userSpaceOnUse" gradientTransform="translate(63.0014 70) rotate(89.998) scale(41)">
<stop stop-color="#FFCD1A"/>
<stop offset="1" stop-color="#FF6C1A"/>
</radialGradient>
<radialGradient id="paint3_radial" cx="0" cy="0" r="1" gradientUnits="userSpaceOnUse" gradientTransform="translate(61 73) rotate(90) scale(17 18)">
<stop offset="0.432292" stop-color="#1E1E1E"/>
<stop offset="1" stop-color="#6D2A03"/>
</radialGradient>
<radialGradient id="paint4_radial" cx="0" cy="0" r="1" gradientUnits="userSpaceOnUse" gradientTransform="translate(74 90) rotate(90) scale(12 13)">
<stop offset="0.432292" stop-color="#1E1E1E"/>
<stop offset="1" stop-color="#6D2A03"/>
</radialGradient>
<radialGradient id="paint5_radial" cx="0" cy="0" r="1" gradientUnits="userSpaceOnUse" gradientTransform="translate(87 68.5) rotate(90) scale(12.5 6)">
<stop offset="0.432292" stop-color="#1E1E1E"/>
<stop offset="1" stop-color="#6D2A03"/>
</radialGradient>
<radialGradient id="paint6_radial" cx="0" cy="0" r="1" gradientUnits="userSpaceOnUse" gradientTransform="translate(68.5527 46.2134) rotate(82.6563) scale(13)">
<stop offset="0.432292" stop-color="#1E1E1E"/>
<stop offset="1" stop-color="#6D2A03"/>
</radialGradient>
<radialGradient id="paint7_radial" cx="0" cy="0" r="1" gradientUnits="userSpaceOnUse" gradientTransform="translate(83 40.5) rotate(90) scale(8.5 7)">
<stop offset="0.432292" stop-color="#1E1E1E"/>
<stop offset="1" stop-color="#6D2A03"/>
</radialGradient>
<radialGradient id="paint8_radial" cx="0" cy="0" r="1" gradientUnits="userSpaceOnUse" gradientTransform="translate(100 69) rotate(90) scale(9 5)">
<stop offset="0.432292" stop-color="#1E1E1E"/>
<stop offset="1" stop-color="#6D2A03"/>
</radialGradient>
<radialGradient id="paint9_radial" cx="0" cy="0" r="1" gradientUnits="userSpaceOnUse" gradientTransform="translate(94 52.5) rotate(90) scale(10.5 7)">
<stop offset="0.432292" stop-color="#1E1E1E"/>
<stop offset="1" stop-color="#6D2A03"/>
</radialGradient>
<radialGradient id="paint10_radial" cx="0" cy="0" r="1" gradientUnits="userSpaceOnUse" gradientTransform="translate(96 88) rotate(90) scale(10 6)">
<stop offset="0.432292" stop-color="#1E1E1E"/>
<stop offset="1" stop-color="#6D2A03"/>
</radialGradient>
<radialGradient id="paint11_radial" cx="0" cy="0" r="1" gradientUnits="userSpaceOnUse" gradientTransform="translate(82.843 104.257) rotate(91.4671) scale(6 10)">
<stop offset="0.432292" stop-color="#1E1E1E"/>
<stop offset="1" stop-color="#6D2A03"/>
</radialGradient>
<radialGradient id="paint12_radial" cx="0" cy="0" r="1" gradientUnits="userSpaceOnUse" gradientTransform="translate(31.8925 92.2787) rotate(-127.231) scale(8.5 4.99993)">
<stop offset="0.432292" stop-color="#1E1E1E"/>
<stop offset="1" stop-color="#6D2A03"/>
</radialGradient>
<radialGradient id="paint13_radial" cx="0" cy="0" r="1" gradientUnits="userSpaceOnUse" gradientTransform="translate(47.3991 103.303) rotate(-127.231) scale(10 6.9999)">
<stop offset="0.432292" stop-color="#1E1E1E"/>
<stop offset="1" stop-color="#6D2A03"/>
</radialGradient>
<radialGradient id="paint14_radial" cx="0" cy="0" r="1" gradientUnits="userSpaceOnUse" gradientTransform="translate(25.1921 73.6937) rotate(-127.231) scale(10 5.99991)">
<stop offset="0.432292" stop-color="#1E1E1E"/>
<stop offset="1" stop-color="#6D2A03"/>
</radialGradient>
<radialGradient id="paint15_radial" cx="0" cy="0" r="1" gradientUnits="userSpaceOnUse" gradientTransform="translate(27.4099 54.0174) rotate(-125.758) scale(6 9.99986)">
<stop offset="0.432292" stop-color="#1E1E1E"/>
<stop offset="1" stop-color="#6D2A03"/>
</radialGradient>
<radialGradient id="paint16_radial" cx="0" cy="0" r="1" gradientUnits="userSpaceOnUse" gradientTransform="translate(46 56) rotate(90) scale(10 8)">
<stop offset="0.432292" stop-color="#1E1E1E"/>
<stop offset="1" stop-color="#6D2A03"/>
</radialGradient>
<radialGradient id="paint17_radial" cx="0" cy="0" r="1" gradientUnits="userSpaceOnUse" gradientTransform="translate(53.0555 35.5596) rotate(93.0737) scale(8 10.5)">
<stop offset="0.432292" stop-color="#1E1E1E"/>
<stop offset="1" stop-color="#6D2A03"/>
</radialGradient>
<radialGradient id="paint18_radial" cx="0" cy="0" r="1" gradientUnits="userSpaceOnUse" gradientTransform="translate(44 43) rotate(90) scale(4 8)">
<stop offset="0.432292" stop-color="#1E1E1E"/>
<stop offset="1" stop-color="#6D2A03"/>
</radialGradient>
<radialGradient id="paint19_radial" cx="0" cy="0" r="1" gradientUnits="userSpaceOnUse" gradientTransform="translate(34.5 57) rotate(90) scale(12 5.5)">
<stop offset="0.432292" stop-color="#1E1E1E"/>
<stop offset="1" stop-color="#6D2A03"/>
</radialGradient>
<radialGradient id="paint20_radial" cx="0" cy="0" r="1" gradientUnits="userSpaceOnUse" gradientTransform="translate(38 76.5) rotate(90) scale(7.5 6)">
<stop offset="0.432292" stop-color="#1E1E1E"/>
<stop offset="1" stop-color="#6D2A03"/>
</radialGradient>
<radialGradient id="paint21_radial" cx="0" cy="0" r="1" gradientUnits="userSpaceOnUse" gradientTransform="translate(46 88) rotate(90) scale(7 6)">
<stop offset="0.432292" stop-color="#1E1E1E"/>
<stop offset="1" stop-color="#6D2A03"/>
</radialGradient>
<radialGradient id="paint22_radial" cx="0" cy="0" r="1" gradientUnits="userSpaceOnUse" gradientTransform="translate(57 94.5) rotate(90) scale(3.5 4)">
<stop offset="0.432292" stop-color="#1E1E1E"/>
<stop offset="1" stop-color="#6D2A03"/>
</radialGradient>
<radialGradient id="paint23_radial" cx="0" cy="0" r="1" gradientUnits="userSpaceOnUse" gradientTransform="translate(64 108.5) rotate(90) scale(4.5 6)">
<stop offset="0.432292" stop-color="#1E1E1E"/>
<stop offset="1" stop-color="#6D2A03"/>
</radialGradient>
<radialGradient id="paint24_radial" cx="0" cy="0" r="1" gradientUnits="userSpaceOnUse" gradientTransform="translate(34.5 102.5) scale(13.5 13.4995)">
<stop stop-color="#FFCD1A"/>
<stop offset="1" stop-color="#FF6C1A"/>
</radialGradient>
<radialGradient id="paint25_radial" cx="0" cy="0" r="1" gradientUnits="userSpaceOnUse" gradientTransform="translate(35 102) scale(14)">
<stop stop-color="#FFCD1A"/>
<stop offset="1" stop-color="#FF6C1A"/>
</radialGradient>
<radialGradient id="paint26_radial" cx="0" cy="0" r="1" gradientUnits="userSpaceOnUse" gradientTransform="translate(34.6155 104.085) rotate(44.798) scale(6.00906 6.45843)">
<stop offset="0.432292" stop-color="#1E1E1E"/>
<stop offset="1" stop-color="#6D2A03"/>
</radialGradient>
<radialGradient id="paint27_radial" cx="0" cy="0" r="1" gradientUnits="userSpaceOnUse" gradientTransform="translate(42.1169 105.599) rotate(46.7584) scale(4.11574 4.46216)">
<stop offset="0.432292" stop-color="#1E1E1E"/>
<stop offset="1" stop-color="#6D2A03"/>
</radialGradient>
<radialGradient id="paint28_radial" cx="0" cy="0" r="1" gradientUnits="userSpaceOnUse" gradientTransform="translate(39.3988 96.3952) rotate(44.0504) scale(4.30445 1.99688)">
<stop offset="0.432292" stop-color="#1E1E1E"/>
<stop offset="1" stop-color="#6D2A03"/>
</radialGradient>
<radialGradient id="paint29_radial" cx="0" cy="0" r="1" gradientUnits="userSpaceOnUse" gradientTransform="translate(29.0945 95.7466) rotate(36.1117) scale(4.48114 4.46187)">
<stop offset="0.432292" stop-color="#1E1E1E"/>
<stop offset="1" stop-color="#6D2A03"/>
</radialGradient>
<radialGradient id="paint30_radial" cx="0" cy="0" r="1" gradientUnits="userSpaceOnUse" gradientTransform="translate(31.2567 90.5459) rotate(47.193) scale(2.92336 2.44408)">
<stop offset="0.432292" stop-color="#1E1E1E"/>
<stop offset="1" stop-color="#6D2A03"/>
</radialGradient>
<radialGradient id="paint31_radial" cx="0" cy="0" r="1" gradientUnits="userSpaceOnUse" gradientTransform="translate(43.2916 93.9977) rotate(45.8742) scale(3.1555 1.86181)">
<stop offset="0.432292" stop-color="#1E1E1E"/>
<stop offset="1" stop-color="#6D2A03"/>
</radialGradient>
<radialGradient id="paint32_radial" cx="0" cy="0" r="1" gradientUnits="userSpaceOnUse" gradientTransform="translate(37.8086 90.6478) rotate(44.9834) scale(3.52831 2.48939)">
<stop offset="0.432292" stop-color="#1E1E1E"/>
<stop offset="1" stop-color="#6D2A03"/>
</radialGradient>
<radialGradient id="paint33_radial" cx="0" cy="0" r="1" gradientUnits="userSpaceOnUse" gradientTransform="translate(46.8019 99.0383) rotate(44.105) scale(3.4803 2.06256)">
<stop offset="0.432292" stop-color="#1E1E1E"/>
<stop offset="1" stop-color="#6D2A03"/>
</radialGradient>
<radialGradient id="paint34_radial" cx="0" cy="0" r="1" gradientUnits="userSpaceOnUse" gradientTransform="translate(46.5894 106.278) rotate(46.2297) scale(2.29891 3.71703)">
<stop offset="0.432292" stop-color="#1E1E1E"/>
<stop offset="1" stop-color="#6D2A03"/>
</radialGradient>
<radialGradient id="paint35_radial" cx="0" cy="0" r="1" gradientUnits="userSpaceOnUse" gradientTransform="translate(32.0775 114.962) rotate(-171.417) scale(3.02993 2.00921)">
<stop offset="0.432292" stop-color="#1E1E1E"/>
<stop offset="1" stop-color="#6D2A03"/>
</radialGradient>
<radialGradient id="paint36_radial" cx="0" cy="0" r="1" gradientUnits="userSpaceOnUse" gradientTransform="translate(38.5064 114.628) rotate(-171.883) scale(3.50409 2.63093)">
<stop offset="0.432292" stop-color="#1E1E1E"/>
<stop offset="1" stop-color="#6D2A03"/>
</radialGradient>
<radialGradient id="paint37_radial" cx="0" cy="0" r="1" gradientUnits="userSpaceOnUse" gradientTransform="translate(26.4524 113.51) rotate(-171.813) scale(3.55768 2.2634)">
<stop offset="0.432292" stop-color="#1E1E1E"/>
<stop offset="1" stop-color="#6D2A03"/>
</radialGradient>
<radialGradient id="paint38_radial" cx="0" cy="0" r="1" gradientUnits="userSpaceOnUse" gradientTransform="translate(22.0213 107.563) rotate(-172.005) scale(2.37086 3.38274)">
<stop offset="0.432292" stop-color="#1E1E1E"/>
<stop offset="1" stop-color="#6D2A03"/>
</radialGradient>
<radialGradient id="paint39_radial" cx="0" cy="0" r="1" gradientUnits="userSpaceOnUse" gradientTransform="translate(27.1985 103.874) rotate(43.4916) scale(3.52185 2.92616)">
<stop offset="0.432292" stop-color="#1E1E1E"/>
<stop offset="1" stop-color="#6D2A03"/>
</radialGradient>
<radialGradient id="paint40_radial" cx="0" cy="0" r="1" gradientUnits="userSpaceOnUse" gradientTransform="translate(23.2917 96.9126) rotate(49.3266) scale(2.57758 3.44665)">
<stop offset="0.432292" stop-color="#1E1E1E"/>
<stop offset="1" stop-color="#6D2A03"/>
</radialGradient>
<radialGradient id="paint41_radial" cx="0" cy="0" r="1" gradientUnits="userSpaceOnUse" gradientTransform="translate(22.4683 100.967) rotate(43.2945) scale(1.38996 2.87409)">
<stop offset="0.432292" stop-color="#1E1E1E"/>
<stop offset="1" stop-color="#6D2A03"/>
</radialGradient>
<radialGradient id="paint42_radial" cx="0" cy="0" r="1" gradientUnits="userSpaceOnUse" gradientTransform="translate(24.0509 107.107) rotate(48.3028) scale(4.07823 1.85046)">
<stop offset="0.432292" stop-color="#1E1E1E"/>
<stop offset="1" stop-color="#6D2A03"/>
</radialGradient>
<radialGradient id="paint43_radial" cx="0" cy="0" r="1" gradientUnits="userSpaceOnUse" gradientTransform="translate(29.8766 110.92) rotate(42.5347) scale(2.56965 2.19454)">
<stop offset="0.432292" stop-color="#1E1E1E"/>
<stop offset="1" stop-color="#6D2A03"/>
</radialGradient>
<radialGradient id="paint44_radial" cx="0" cy="0" r="1" gradientUnits="userSpaceOnUse" gradientTransform="translate(34.2444 111.937) rotate(45.2928) scale(2.49006 2.24496)">
<stop offset="0.432292" stop-color="#1E1E1E"/>
<stop offset="1" stop-color="#6D2A03"/>
</radialGradient>
<radialGradient id="paint45_radial" cx="0" cy="0" r="1" gradientUnits="userSpaceOnUse" gradientTransform="translate(38.9955 109.994) rotate(43.6631) scale(1.08745 1.18934)">
<stop offset="0.432292" stop-color="#1E1E1E"/>
<stop offset="1" stop-color="#6D2A03"/>
</radialGradient>
<radialGradient id="paint46_radial" cx="0" cy="0" r="1" gradientUnits="userSpaceOnUse" gradientTransform="translate(43.6005 112.081) rotate(39.3652) scale(1.52359 2.08853)">
<stop offset="0.432292" stop-color="#1E1E1E"/>
<stop offset="1" stop-color="#6D2A03"/>
</radialGradient>
<radialGradient id="paint47_radial" cx="0" cy="0" r="1" gradientUnits="userSpaceOnUse" gradientTransform="translate(90.5 102.5) rotate(-179.998) scale(13.5 13.4995)">
<stop stop-color="#FFCD1A"/>
<stop offset="1" stop-color="#FF6C1A"/>
</radialGradient>
<radialGradient id="paint48_radial" cx="0" cy="0" r="1" gradientUnits="userSpaceOnUse" gradientTransform="translate(90 101.5) rotate(-179.998) scale(14 13.5)">
<stop stop-color="#FFCD1A"/>
<stop offset="1" stop-color="#FF6C1A"/>
</radialGradient>
<radialGradient id="paint49_radial" cx="0" cy="0" r="1" gradientUnits="userSpaceOnUse" gradientTransform="translate(90.3845 104.085) rotate(135.202) scale(6.00906 6.45843)">
<stop offset="0.432292" stop-color="#1E1E1E"/>
<stop offset="1" stop-color="#6D2A03"/>
</radialGradient>
<radialGradient id="paint50_radial" cx="0" cy="0" r="1" gradientUnits="userSpaceOnUse" gradientTransform="translate(82.8831 104.599) rotate(133.242) scale(4.11574 4.46216)">
<stop offset="0.432292" stop-color="#1E1E1E"/>
<stop offset="1" stop-color="#6D2A03"/>
</radialGradient>
<radialGradient id="paint51_radial" cx="0" cy="0" r="1" gradientUnits="userSpaceOnUse" gradientTransform="translate(85.6012 96.3952) rotate(135.95) scale(4.30445 1.99688)">
<stop offset="0.432292" stop-color="#1E1E1E"/>
<stop offset="1" stop-color="#6D2A03"/>
</radialGradient>
<radialGradient id="paint52_radial" cx="0" cy="0" r="1" gradientUnits="userSpaceOnUse" gradientTransform="translate(95.9055 95.7466) rotate(143.888) scale(4.48114 4.46187)">
<stop offset="0.432292" stop-color="#1E1E1E"/>
<stop offset="1" stop-color="#6D2A03"/>
</radialGradient>
<radialGradient id="paint53_radial" cx="0" cy="0" r="1" gradientUnits="userSpaceOnUse" gradientTransform="translate(93.7433 90.5459) rotate(132.807) scale(2.92336 2.44408)">
<stop offset="0.432292" stop-color="#1E1E1E"/>
<stop offset="1" stop-color="#6D2A03"/>
</radialGradient>
<radialGradient id="paint54_radial" cx="0" cy="0" r="1" gradientUnits="userSpaceOnUse" gradientTransform="translate(81.7084 93.9977) rotate(134.126) scale(3.1555 1.86181)">
<stop offset="0.432292" stop-color="#1E1E1E"/>
<stop offset="1" stop-color="#6D2A03"/>
</radialGradient>
<radialGradient id="paint55_radial" cx="0" cy="0" r="1" gradientUnits="userSpaceOnUse" gradientTransform="translate(87.1914 90.6478) rotate(135.017) scale(3.52831 2.48939)">
<stop offset="0.432292" stop-color="#1E1E1E"/>
<stop offset="1" stop-color="#6D2A03"/>
</radialGradient>
<radialGradient id="paint56_radial" cx="0" cy="0" r="1" gradientUnits="userSpaceOnUse" gradientTransform="translate(78.1981 99.0383) rotate(135.895) scale(3.4803 2.06256)">
<stop offset="0.432292" stop-color="#1E1E1E"/>
<stop offset="1" stop-color="#6D2A03"/>
</radialGradient>
<radialGradient id="paint57_radial" cx="0" cy="0" r="1" gradientUnits="userSpaceOnUse" gradientTransform="translate(78.4106 105.81) rotate(138.179) scale(2.13397 3.43228)">
<stop offset="0.432292" stop-color="#1E1E1E"/>
<stop offset="1" stop-color="#6D2A03"/>
</radialGradient>
<radialGradient id="paint58_radial" cx="0" cy="0" r="1" gradientUnits="userSpaceOnUse" gradientTransform="translate(92.9225 114.471) rotate(-6.45815) scale(3.01513 1.5143)">
<stop offset="0.432292" stop-color="#1E1E1E"/>
<stop offset="1" stop-color="#6D2A03"/>
</radialGradient>
<radialGradient id="paint59_radial" cx="0" cy="0" r="1" gradientUnits="userSpaceOnUse" gradientTransform="translate(86.4936 113.628) rotate(-8.11743) scale(3.50409 2.63093)">
<stop offset="0.432292" stop-color="#1E1E1E"/>
<stop offset="1" stop-color="#6D2A03"/>
</radialGradient>
<radialGradient id="paint60_radial" cx="0" cy="0" r="1" gradientUnits="userSpaceOnUse" gradientTransform="translate(98.5476 112.008) rotate(-6.56535) scale(3.54467 1.81736)">
<stop offset="0.432292" stop-color="#1E1E1E"/>
<stop offset="1" stop-color="#6D2A03"/>
</radialGradient>
<radialGradient id="paint61_radial" cx="0" cy="0" r="1" gradientUnits="userSpaceOnUse" gradientTransform="translate(102.979 106.563) rotate(-7.99496) scale(2.37086 3.38274)">
<stop offset="0.432292" stop-color="#1E1E1E"/>
<stop offset="1" stop-color="#6D2A03"/>
</radialGradient>
<radialGradient id="paint62_radial" cx="0" cy="0" r="1" gradientUnits="userSpaceOnUse" gradientTransform="translate(97.8015 102.874) rotate(136.508) scale(3.52185 2.92616)">
<stop offset="0.432292" stop-color="#1E1E1E"/>
<stop offset="1" stop-color="#6D2A03"/>
</radialGradient>
<radialGradient id="paint63_radial" cx="0" cy="0" r="1" gradientUnits="userSpaceOnUse" gradientTransform="translate(101.708 96.9126) rotate(130.673) scale(2.57758 3.44665)">
<stop offset="0.432292" stop-color="#1E1E1E"/>
<stop offset="1" stop-color="#6D2A03"/>
</radialGradient>
<radialGradient id="paint64_radial" cx="0" cy="0" r="1" gradientUnits="userSpaceOnUse" gradientTransform="translate(102.532 100.967) rotate(136.706) scale(1.38996 2.87409)">
<stop offset="0.432292" stop-color="#1E1E1E"/>
<stop offset="1" stop-color="#6D2A03"/>
</radialGradient>
<radialGradient id="paint65_radial" cx="0" cy="0" r="1" gradientUnits="userSpaceOnUse" gradientTransform="translate(100.949 106.594) rotate(135.515) scale(3.80246 1.73658)">
<stop offset="0.432292" stop-color="#1E1E1E"/>
<stop offset="1" stop-color="#6D2A03"/>
</radialGradient>
<radialGradient id="paint66_radial" cx="0" cy="0" r="1" gradientUnits="userSpaceOnUse" gradientTransform="translate(95.1234 109.92) rotate(137.465) scale(2.56965 2.19454)">
<stop offset="0.432292" stop-color="#1E1E1E"/>
<stop offset="1" stop-color="#6D2A03"/>
</radialGradient>
<radialGradient id="paint67_radial" cx="0" cy="0" r="1" gradientUnits="userSpaceOnUse" gradientTransform="translate(90.7556 110.937) rotate(134.707) scale(2.49006 2.24496)">
<stop offset="0.432292" stop-color="#1E1E1E"/>
<stop offset="1" stop-color="#6D2A03"/>
</radialGradient>
<radialGradient id="paint68_radial" cx="0" cy="0" r="1" gradientUnits="userSpaceOnUse" gradientTransform="translate(86.0045 109.994) rotate(136.337) scale(1.08745 1.18934)">
<stop offset="0.432292" stop-color="#1E1E1E"/>
<stop offset="1" stop-color="#6D2A03"/>
</radialGradient>
<radialGradient id="paint69_radial" cx="0" cy="0" r="1" gradientUnits="userSpaceOnUse" gradientTransform="translate(81.3995 111.081) rotate(140.635) scale(1.52359 2.08853)">
<stop offset="0.432292" stop-color="#1E1E1E"/>
<stop offset="1" stop-color="#6D2A03"/>
</radialGradient>
</defs>
</svg>
