<svg width="128" height="129" viewBox="0 0 128 129" fill="none" xmlns="http://www.w3.org/2000/svg">
<path d="M28.991 86.5835C41.6936 86.5835 51.9931 76.2657 51.9956 63.5381C51.9977 53.2852 45.3171 44.5961 36.0788 41.6047C33.8489 40.8827 31.4699 58.8192 29 58.8192C26.5301 58.8192 24.1513 40.8827 21.9212 41.6047C12.6817 44.5961 5.99767 53.2852 5.99562 63.5381C5.99308 76.2657 16.2885 86.5835 28.991 86.5835Z" fill="#E6B87C"/>
<path fill-rule="evenodd" clip-rule="evenodd" d="M20.2788 43.8141C20.28 43.8159 20.2812 43.8178 20.2825 43.8197C20.2686 43.8012 20.2677 43.7975 20.2788 43.8141ZM20.8752 45.2124C21.3751 46.6289 21.9003 48.5762 22.4781 50.7232L22.4883 50.761C23.0657 52.9064 23.6957 55.2473 24.35 57.0527C24.6733 57.9449 25.0632 58.8813 25.5398 59.6434C25.777 60.0226 26.1187 60.4952 26.5948 60.9017C27.0754 61.312 27.8938 61.8193 28.9988 61.8193C30.1039 61.8193 30.9226 61.3119 31.4034 60.9014C31.8797 60.4948 32.2216 60.0219 32.4588 59.6427C32.9355 58.8804 33.3255 57.9439 33.6488 57.0517C34.3032 55.2462 34.9333 52.9051 35.5107 50.7596L35.5207 50.7222C36.0984 48.5759 36.6234 46.6292 37.1232 45.2129C44.1287 48.3343 49.0081 55.3689 49.0065 63.5388C49.0043 74.6098 40.043 83.5847 28.991 83.5847C17.939 83.5847 8.98135 74.6098 8.98356 63.5388C8.98519 55.3685 13.8679 48.3336 20.8752 45.2124ZM37.7199 43.8134C37.731 43.7968 37.7301 43.8005 37.7162 43.819C37.7175 43.817 37.7187 43.8151 37.7199 43.8134ZM28.9996 51.8635C28.7586 51.0098 28.5128 50.099 28.2603 49.1607L28.219 49.0074C27.6529 46.9034 27.0469 44.6513 26.4318 42.9623C26.1273 42.126 25.7416 41.1992 25.2456 40.4617C25.0037 40.102 24.596 39.5727 23.9733 39.1664C23.2616 38.7021 22.1881 38.3665 20.9987 38.7514C10.5571 42.1311 2.99733 51.9469 2.99502 63.5388C2.99215 77.9229 14.6304 89.5835 28.9898 89.5835C43.3492 89.5835 54.9922 77.9229 54.995 63.5388C54.9973 51.9469 47.4415 42.1311 37.0012 38.7514C35.812 38.3665 34.7382 38.7021 34.0261 39.1667C33.4031 39.5732 32.9954 40.1027 32.7534 40.4625C32.2574 41.2001 31.8717 42.127 31.5671 42.9633C30.9521 44.6523 30.3462 46.9042 29.78 49.008L29.7387 49.1617C29.4862 50.0997 29.2405 51.0101 28.9996 51.8635ZM27.3577 56.4988C27.3534 56.505 27.3511 56.5079 27.3511 56.5078C27.3511 56.5077 27.3533 56.5045 27.3577 56.4988ZM30.6413 56.4982C30.6458 56.5039 30.648 56.507 30.648 56.5072C30.6479 56.5073 30.6457 56.5045 30.6413 56.4982Z" fill="black"/>
<path d="M28.9934 88.5835C39.4868 88.5835 47.9949 81.0171 47.9968 71.6835C47.9983 64.1647 42.4794 57.7927 34.8477 55.5991C33.0056 55.0696 31.0406 68.223 29.0003 68.223C26.96 68.223 24.9946 55.0696 23.1523 55.5991C15.5197 57.7927 9.99829 64.1647 9.99679 71.6835C9.99493 81.0171 18.5 88.5835 28.9934 88.5835Z" fill="#A0683E"/>
<path fill-rule="evenodd" clip-rule="evenodd" d="M32.2157 69.3901C31.9129 69.82 30.8695 71.2273 28.9991 71.2273C27.1292 71.2273 26.0863 69.8205 25.7835 69.3908C25.3341 68.7529 24.9816 67.9924 24.7051 67.315C24.1476 65.9494 23.6165 64.1976 23.1458 62.6448L23.129 62.5892C22.7298 61.2724 22.3727 60.0989 22.0386 59.1728C16.5469 61.4798 13.0004 66.3464 12.9993 71.6885C12.9978 79.0458 19.821 85.5863 28.9934 85.5863C38.1659 85.5863 44.9916 79.0458 44.9931 71.6885C44.9941 66.3468 41.45 61.4805 35.9599 59.1733C35.626 60.0991 35.2692 61.272 34.8702 62.5881L34.8534 62.6435C34.3828 64.1963 33.8518 65.9483 33.2943 67.314C33.0178 67.9914 32.6652 68.752 32.2157 69.3901ZM31.7568 54.1887C32.058 53.7911 33.4494 52.0855 35.677 52.7257C44.3562 55.2202 50.998 62.6025 50.9962 71.6885C50.9939 82.9945 40.8049 91.5835 28.9922 91.5835C17.1796 91.5835 6.99393 82.9945 6.99619 71.6885C6.998 62.6025 13.6428 55.2202 22.3229 52.7257C24.5503 52.0856 25.9412 53.7906 26.2422 54.188C26.7194 54.8178 27.0733 55.5843 27.3336 56.2187C27.8593 57.5004 28.3713 59.1898 28.8326 60.7121C28.8466 60.7582 28.8605 60.8041 28.8744 60.8499C28.9165 60.9889 28.9583 61.1266 28.9998 61.263C29.0411 61.127 29.0828 60.9897 29.1248 60.8511C29.1387 60.8052 29.1526 60.7592 29.1666 60.713C29.6279 59.1908 30.1398 57.5015 30.6654 56.2198C30.9256 55.5854 31.2796 54.8188 31.7568 54.1887ZM27.3066 65.9393C27.2478 66.0228 27.2513 65.9978 27.3195 65.9203C27.3147 65.9275 27.3104 65.9339 27.3066 65.9393ZM30.6802 65.9196C30.7484 65.9972 30.7519 66.0222 30.693 65.9386C30.6892 65.9331 30.6849 65.9268 30.6802 65.9196Z" fill="black"/>
<path d="M96.991 86.5835C109.694 86.5835 119.993 76.2657 119.996 63.5381C119.998 53.2852 113.317 44.5961 104.079 41.6047C101.849 40.8827 99.4699 58.8192 97 58.8192C94.5301 58.8192 92.1513 40.8827 89.9212 41.6047C80.6817 44.5961 73.9977 53.2852 73.9956 63.5381C73.9931 76.2657 84.2885 86.5835 96.991 86.5835Z" fill="#E6B87C"/>
<path fill-rule="evenodd" clip-rule="evenodd" d="M88.2788 43.8141C88.28 43.8159 88.2812 43.8178 88.2825 43.8197C88.2686 43.8012 88.2677 43.7975 88.2788 43.8141ZM88.8752 45.2124C89.3751 46.6289 89.9003 48.5762 90.4781 50.7232L90.4883 50.761C91.0657 52.9064 91.6957 55.2473 92.35 57.0527C92.6733 57.9449 93.0632 58.8813 93.5398 59.6434C93.777 60.0226 94.1187 60.4952 94.5948 60.9017C95.0754 61.312 95.8938 61.8193 96.9988 61.8193C98.1039 61.8193 98.9226 61.3119 99.4034 60.9014C99.8797 60.4948 100.222 60.0219 100.459 59.6427C100.936 58.8804 101.325 57.9439 101.649 57.0517C102.303 55.2462 102.933 52.9051 103.511 50.7596L103.521 50.7222C104.098 48.5759 104.623 46.6292 105.123 45.2129C112.129 48.3343 117.008 55.3689 117.006 63.5388C117.004 74.6098 108.043 83.5847 96.991 83.5847C85.939 83.5847 76.9814 74.6098 76.9836 63.5388C76.9852 55.3685 81.8679 48.3336 88.8752 45.2124ZM105.72 43.8134C105.731 43.7968 105.73 43.8005 105.716 43.819C105.717 43.817 105.719 43.8151 105.72 43.8134ZM96.9996 51.8635C96.7586 51.0098 96.5128 50.099 96.2603 49.1607L96.219 49.0074C95.6529 46.9034 95.0469 44.6513 94.4318 42.9623C94.1273 42.126 93.7416 41.1992 93.2456 40.4617C93.0037 40.102 92.596 39.5727 91.9733 39.1664C91.2616 38.7021 90.1881 38.3665 88.9987 38.7514C78.5571 42.1311 70.9973 51.9469 70.995 63.5388C70.9922 77.9229 82.6304 89.5835 96.9898 89.5835C111.349 89.5835 122.992 77.9229 122.995 63.5388C122.997 51.9469 115.441 42.1311 105.001 38.7514C103.812 38.3665 102.738 38.7021 102.026 39.1667C101.403 39.5732 100.995 40.1027 100.753 40.4625C100.257 41.2001 99.8717 42.127 99.5671 42.9633C98.9521 44.6523 98.3462 46.9042 97.78 49.008L97.7387 49.1617C97.4862 50.0997 97.2405 51.0101 96.9996 51.8635ZM95.3577 56.4988C95.3534 56.505 95.3511 56.5079 95.3511 56.5078C95.3511 56.5077 95.3533 56.5045 95.3577 56.4988ZM98.6413 56.4982C98.6458 56.5039 98.648 56.507 98.648 56.5072C98.6479 56.5073 98.6457 56.5045 98.6413 56.4982Z" fill="black"/>
<path d="M96.9934 88.5835C107.487 88.5835 115.995 81.0171 115.997 71.6835C115.998 64.1647 110.479 57.7927 102.848 55.5991C101.006 55.0696 99.0406 68.223 97.0003 68.223C94.96 68.223 92.9946 55.0696 91.1523 55.5991C83.5197 57.7927 77.9983 64.1647 77.9968 71.6835C77.9949 81.0171 86.5 88.5835 96.9934 88.5835Z" fill="#A0683E"/>
<path fill-rule="evenodd" clip-rule="evenodd" d="M100.216 69.3901C99.9129 69.82 98.8695 71.2273 96.9991 71.2273C95.1292 71.2273 94.0863 69.8205 93.7835 69.3908C93.3341 68.7529 92.9816 67.9924 92.7051 67.315C92.1476 65.9494 91.6165 64.1976 91.1458 62.6448L91.129 62.5892C90.7298 61.2724 90.3727 60.0989 90.0386 59.1728C84.5469 61.4798 81.0004 66.3464 80.9993 71.6885C80.9978 79.0458 87.821 85.5863 96.9934 85.5863C106.166 85.5863 112.992 79.0458 112.993 71.6885C112.994 66.3468 109.45 61.4805 103.96 59.1733C103.626 60.0991 103.269 61.272 102.87 62.5881L102.853 62.6435C102.383 64.1963 101.852 65.9483 101.294 67.314C101.018 67.9914 100.665 68.752 100.216 69.3901ZM99.7568 54.1887C100.058 53.7911 101.449 52.0855 103.677 52.7257C112.356 55.2202 118.998 62.6025 118.996 71.6885C118.994 82.9945 108.805 91.5835 96.9922 91.5835C85.1796 91.5835 74.9939 82.9945 74.9962 71.6885C74.998 62.6025 81.6428 55.2202 90.3229 52.7257C92.5503 52.0856 93.9412 53.7906 94.2422 54.188C94.7194 54.8178 95.0733 55.5843 95.3336 56.2187C95.8593 57.5004 96.3713 59.1898 96.8326 60.7121C96.8466 60.7582 96.8605 60.8041 96.8744 60.8499C96.9165 60.9889 96.9583 61.1266 96.9998 61.263C97.0411 61.127 97.0828 60.9897 97.1248 60.8511C97.1387 60.8052 97.1526 60.7592 97.1666 60.713C97.6279 59.1908 98.1398 57.5015 98.6654 56.2198C98.9256 55.5854 99.2796 54.8188 99.7568 54.1887ZM95.3066 65.9393C95.2478 66.0228 95.2513 65.9978 95.3195 65.9203C95.3147 65.9275 95.3104 65.9339 95.3066 65.9393ZM98.6802 65.9196C98.7484 65.9972 98.7519 66.0222 98.693 65.9386C98.6892 65.9331 98.6849 65.9268 98.6802 65.9196Z" fill="black"/>
</svg>
