<svg width="128" height="128" viewBox="0 0 128 128" fill="none" xmlns="http://www.w3.org/2000/svg">
<path d="M32.5613 46.5053C32.5613 63.5923 46.413 77.4435 63.5 77.4429C80.5869 77.4423 94.4387 63.5901 94.4387 46.5031C94.4387 29.4162 80.5869 15.5649 63.5 15.5655C46.413 15.5661 32.5613 29.4183 32.5613 46.5053Z" fill="#7D663E"/>
<path fill-rule="evenodd" clip-rule="evenodd" d="M90.8774 46.5002C90.8774 31.3801 78.6201 19.1233 63.5 19.1238C48.3799 19.1243 36.1226 31.382 36.1226 46.5022C36.1226 61.6223 48.3799 73.8791 63.5 73.8786C78.6201 73.8781 90.8774 61.6204 90.8774 46.5002ZM63.5 12.0012C82.5538 12.0005 98 27.4462 98 46.5C98 65.5538 82.5538 81.0005 63.5 81.0012C44.4462 81.0019 29 65.5562 29 46.5024C29 27.4486 44.4462 12.0019 63.5 12.0012Z" fill="black"/>
<path d="M25 71.5027C25 92.7657 42.237 110.002 63.5 110.001C84.763 110.001 102 92.763 102 71.5C102 50.237 84.763 33.0006 63.5 33.0013C42.237 33.0021 25 50.2397 25 71.5027Z" fill="url(#paint0_linear)"/>
<path d="M80.2315 102.497C80.2315 109.272 85.7243 114.764 92.4999 114.766C99.2755 114.767 104.768 109.276 104.768 102.502C104.768 95.7279 99.2755 90.2352 92.4999 90.2339C85.7243 90.2325 80.2315 95.723 80.2315 102.497Z" fill="url(#paint1_linear)"/>
<path fill-rule="evenodd" clip-rule="evenodd" d="M102.537 102.502C102.537 96.9601 98.0431 92.4665 92.5 92.4654C86.9569 92.4643 82.4634 96.9561 82.4634 102.498C82.4634 108.04 86.9569 112.534 92.5 112.535C98.0431 112.536 102.537 108.044 102.537 102.502ZM92.5 88.003C100.508 88.0046 107 94.4964 107 102.503C107 110.509 100.508 116.999 92.5 116.997C84.4919 116.996 78 110.504 78 102.497C78 94.4906 84.4919 88.0014 92.5 88.003Z" fill="black"/>
<path d="M23.2358 102.496C23.2358 109.27 28.7266 114.762 35.4999 114.764C42.2732 114.765 47.764 109.275 47.764 102.501C47.764 95.7275 42.2732 90.2352 35.4999 90.2339C28.7266 90.2325 23.2358 95.7226 23.2358 102.496Z" fill="url(#paint2_linear)"/>
<path fill-rule="evenodd" clip-rule="evenodd" d="M45.5283 102.502C45.5283 96.9578 41.0349 92.4686 35.5 92.4675C29.9651 92.4664 25.4717 96.9538 25.4717 102.498C25.4717 108.042 29.9651 112.532 35.5 112.533C41.0349 112.534 45.5283 108.046 45.5283 102.502ZM35.5 88.003C43.5116 88.0046 50 94.4999 50 102.503C50 110.506 43.5116 116.999 35.5 116.997C27.4884 116.996 21 110.5 21 102.497C21 94.4941 27.4884 88.0014 35.5 88.003Z" fill="black"/>
<defs>
<linearGradient id="paint0_linear" x1="63.5464" y1="33.1854" x2="63.5437" y2="110.185" gradientUnits="userSpaceOnUse">
<stop offset="0.182292" stop-color="#CB3E3F"/>
<stop offset="0.635417" stop-color="#E9A23A"/>
</linearGradient>
<linearGradient id="paint1_linear" x1="92.6915" y1="99.7629" x2="92.6945" y2="114.651" gradientUnits="userSpaceOnUse">
<stop stop-color="#A2DC44"/>
<stop offset="1" stop-color="#80B825"/>
</linearGradient>
<linearGradient id="paint2_linear" x1="35.6915" y1="99.7621" x2="35.6945" y2="114.649" gradientUnits="userSpaceOnUse">
<stop stop-color="#A2DC44"/>
<stop offset="1" stop-color="#80B825"/>
</linearGradient>
</defs>
</svg>
