<svg width="128" height="128" viewBox="0 0 128 128" fill="none" xmlns="http://www.w3.org/2000/svg">
<path d="M32 46.5022C32 63.8992 46.103 78.0017 63.5 78.0011C80.897 78.0005 95 63.897 95 46.5C95 29.103 80.897 15.0005 63.5 15.0011C46.103 15.0017 32 29.1052 32 46.5022Z" fill="#8B0C12"/>
<path fill-rule="evenodd" clip-rule="evenodd" d="M64 12.0012C82.7777 12.0005 98 27.2223 98 46C98 64.7777 82.7777 80.0005 64 80.0012C45.2223 80.0018 30 64.7801 30 46.0024C30 27.2247 45.2223 12.0018 64 12.0012ZM92.8097 46.0002C92.8097 30.089 79.9112 17.1909 64 17.1915C48.0888 17.192 35.1903 30.091 35.1903 46.0022C35.1903 61.9134 48.0888 74.8115 64 74.8109C79.9112 74.8104 92.8097 61.9114 92.8097 46.0002Z" fill="black"/>
<path d="M22 70C22 47.3563 40.3683 29 63 29C85.6317 29 104 47.3563 104 70C104 92.6437 85.6317 111 63 111C40.3683 111 22 92.6437 22 70Z" fill="#183304"/>
<mask id="mask0" mask-type="alpha" maskUnits="userSpaceOnUse" x="22" y="29" width="82" height="82">
<path d="M22 70C22 47.3563 40.3683 29 63 29C85.6317 29 104 47.3563 104 70C104 92.6437 85.6317 111 63 111C40.3683 111 22 92.6437 22 70Z" fill="#EDEB7F"/>
</mask>
<g mask="url(#mask0)">
<path d="M22 70.0756C22 95.5384 40.4349 111.041 63.0787 110.997C85.718 110.953 104 95.4379 104 69.9227C104 44.5124 85.5651 28.9576 62.9257 29.0013C40.282 29.0407 22 44.6173 22 70.0756Z" fill="#73A835"/>
<path d="M22.4152 76.5479C23.6827 75.276 24.9982 74.0916 26.3531 72.999C24.8758 72.1336 23.4204 71.1372 22 69.9964C22 72.2735 22.1399 74.4587 22.4152 76.5479Z" fill="#076725"/>
<path d="M23.6116 82.5264C24.713 81.1453 25.8755 79.8341 27.0818 78.6104C25.5171 78.0509 23.9569 77.3648 22.4141 76.5475C22.685 78.6322 23.0915 80.6252 23.6116 82.5264Z" fill="#FFCD54"/>
<path d="M25.5227 87.9326C26.4449 86.4554 27.437 85.0481 28.4815 83.7107C26.8644 83.431 25.2342 83.0376 23.6084 82.5263C24.1329 84.4231 24.7753 86.2237 25.5227 87.9326Z" fill="#BA131A"/>
<path d="M28.0749 92.7754C28.8091 91.2282 29.6177 89.7335 30.4918 88.3043C28.8528 88.2869 27.1964 88.1689 25.5225 87.9372C26.2698 89.6417 27.1221 91.2544 28.0749 92.7754Z" fill="#076725"/>
<path d="M31.1958 97.0459C31.7333 95.4463 32.3496 93.8904 33.0401 92.3869C31.4187 92.6142 29.7578 92.7453 28.0752 92.7759C29.0236 94.2925 30.0682 95.7173 31.1958 97.0459Z" fill="#FFCD54"/>
<path d="M34.8151 100.747C35.1473 99.1125 35.5712 97.5129 36.0694 95.957C34.4873 96.4071 32.8615 96.7699 31.1963 97.0452C32.3239 98.3739 33.5302 99.6064 34.8151 100.747Z" fill="#BA131A"/>
<path d="M38.8572 103.876C38.9883 102.228 39.2025 100.607 39.5084 99.0159C37.9962 99.6715 36.4272 100.248 34.8145 100.742C36.095 101.883 37.4455 102.928 38.8572 103.876Z" fill="#076725"/>
<path d="M43.2591 106.44C43.1848 104.797 43.1979 103.171 43.3028 101.572C41.8867 102.411 40.4007 103.18 38.8623 103.879C40.2696 104.828 41.7425 105.68 43.2591 106.44Z" fill="#FFCD54"/>
<path d="M47.9431 108.435C47.6633 106.817 47.4754 105.209 47.3793 103.614C46.0768 104.615 44.7001 105.559 43.2578 106.442C44.7744 107.198 46.3434 107.862 47.9431 108.435Z" fill="#BA131A"/>
<path d="M52.8423 109.854C52.3659 108.285 51.9769 106.712 51.6841 105.143C50.5171 106.288 49.2672 107.39 47.9473 108.434C49.5469 109.002 51.1815 109.479 52.8423 109.854Z" fill="#076725"/>
<path d="M57.8854 110.712C57.2123 109.208 56.6354 107.688 56.1459 106.162C55.1276 107.434 54.0262 108.667 52.8418 109.855C54.5026 110.236 56.1853 110.52 57.8854 110.712Z" fill="#FFCD54"/>
<path d="M62.9954 110.996C62.1431 109.576 61.3739 108.133 60.7008 106.674C59.8486 108.05 58.9089 109.396 57.8818 110.712C59.582 110.9 61.2909 110.996 62.9954 110.996Z" fill="#BA131A"/>
<path d="M68.1086 110.712C67.0816 109.396 66.1419 108.046 65.294 106.674C64.6166 108.133 63.8517 109.576 62.9951 110.996C64.704 110.996 66.4129 110.9 68.1086 110.712Z" fill="#076725"/>
<path d="M73.1535 109.855C71.9691 108.667 70.8677 107.43 69.8537 106.162C69.3642 107.688 68.7873 109.208 68.1143 110.712C69.8057 110.52 71.4927 110.236 73.1535 109.855Z" fill="#FFCD54"/>
<path d="M78.0527 108.437C76.7328 107.392 75.4828 106.291 74.3115 105.146C74.0187 106.715 73.6297 108.292 73.1533 109.861C74.8141 109.481 76.4531 109.005 78.0527 108.437Z" fill="#BA131A"/>
<path d="M82.7379 106.442C81.2957 105.559 79.919 104.615 78.6165 103.614C78.5204 105.209 78.3324 106.822 78.0527 108.435C79.6524 107.862 81.2214 107.198 82.7379 106.442Z" fill="#076725"/>
<path d="M87.1392 103.875C85.5964 103.176 84.1148 102.407 82.6943 101.568C82.7992 103.172 82.8123 104.798 82.738 106.437C84.259 105.68 85.7275 104.828 87.1392 103.875Z" fill="#FFCD54"/>
<path d="M91.1813 100.746C89.5642 100.252 87.9995 99.6711 86.4873 99.0198C86.7889 100.611 87.0074 102.232 87.1385 103.88C88.5502 102.927 89.9051 101.883 91.1813 100.746Z" fill="#BA131A"/>
<path d="M94.8038 97.0452C93.1386 96.7743 91.5128 96.4071 89.9307 95.957C90.4289 97.5129 90.8485 99.1125 91.185 100.747C92.4656 99.6064 93.6762 98.3739 94.8038 97.0452Z" fill="#076725"/>
<path d="M97.92 92.7759C96.2374 92.7453 94.5765 92.6142 92.9551 92.3869C93.6456 93.8904 94.2619 95.4463 94.7994 97.0459C95.927 95.7173 96.9716 94.2925 97.92 92.7759Z" fill="#FFCD54"/>
<path d="M100.473 87.9333C98.8032 88.1649 97.1424 88.2873 95.5078 88.3004C96.3819 89.7296 97.1905 91.2243 97.9247 92.7715C98.8688 91.2549 99.7254 89.6422 100.473 87.9333Z" fill="#BA131A"/>
<path d="M102.384 82.5263C100.758 83.042 99.1322 83.4353 97.5107 83.7107C98.5597 85.0481 99.5474 86.4597 100.474 87.9326C101.221 86.2237 101.864 84.4231 102.384 82.5263Z" fill="#076725"/>
<path d="M103.58 76.5475C102.037 77.3648 100.477 78.0509 98.9121 78.6104C100.118 79.8385 101.281 81.1453 102.382 82.5264C102.902 80.6252 103.309 78.6322 103.58 76.5475Z" fill="#FFCD54"/>
<path d="M103.996 69.9969C102.575 71.1376 101.12 72.1341 99.6426 72.9951C100.997 74.0877 102.313 75.2765 103.58 76.5439C103.856 74.4592 103.996 72.2739 103.996 69.9969Z" fill="#BA131A"/>
<path d="M103.58 63.449C102.313 64.7209 100.993 65.9053 99.6426 66.9979C101.12 67.8589 102.575 68.8554 103.996 69.9961C103.996 67.719 103.856 65.5381 103.58 63.449Z" fill="#076725"/>
<path d="M102.382 57.4713C101.281 58.8524 100.118 60.1636 98.9121 61.3873C100.481 61.9467 102.037 62.6329 103.58 63.4502C103.309 61.3611 102.902 59.3681 102.382 57.4713Z" fill="#FFCD54"/>
<path d="M100.473 52.0585C99.5513 53.5357 98.5592 54.943 97.5146 56.2804C99.1317 56.5601 100.762 56.9491 102.388 57.4648C101.863 55.5724 101.221 53.7674 100.473 52.0585Z" fill="#BA131A"/>
<path d="M97.9208 47.2214C97.1866 48.7686 96.378 50.2633 95.5039 51.6924C97.1429 51.7099 98.7993 51.8279 100.469 52.0596C99.7258 50.3507 98.8692 48.738 97.9208 47.2214Z" fill="#076725"/>
<path d="M94.8043 42.9514C94.2668 44.551 93.6505 46.1069 92.96 47.6104C94.5814 47.3831 96.2422 47.252 97.9249 47.2214C96.9721 45.7004 95.9276 44.28 94.8043 42.9514Z" fill="#FFCD54"/>
<path d="M91.1821 39.2499C90.8499 40.8845 90.426 42.4841 89.9277 44.04C91.5099 43.5899 93.1357 43.2271 94.8009 42.9518C93.6777 41.6231 92.467 40.3863 91.1821 39.2499Z" fill="#BA131A"/>
<path d="M87.1385 36.1155C87.0074 37.7632 86.7889 39.3847 86.4873 40.9756C87.9995 40.3244 89.5685 39.7431 91.1813 39.2492C89.9051 38.1085 88.5502 37.064 87.1385 36.1155Z" fill="#076725"/>
<path d="M82.738 33.555C82.8123 35.1984 82.7992 36.8242 82.6943 38.4238C84.1148 37.5847 85.5964 36.8155 87.1392 36.1162C85.7275 35.1678 84.259 34.3155 82.738 33.555Z" fill="#FFCD54"/>
<path d="M78.0527 31.5611C78.3324 33.1782 78.5204 34.7866 78.6165 36.3818C79.9233 35.381 81.2957 34.4369 82.7379 33.5541C81.2214 32.7936 79.6524 32.1293 78.0527 31.5611Z" fill="#BA131A"/>
<path d="M73.1533 30.1367C73.6297 31.7058 74.0187 33.2791 74.3159 34.8525C75.4828 33.7075 76.7328 32.6061 78.0527 31.5615C76.4531 30.9934 74.8141 30.517 73.1533 30.1367Z" fill="#076725"/>
<path d="M68.1104 29.2843C68.7834 30.7877 69.3603 32.3087 69.8498 33.834C70.8682 32.5622 71.9695 31.3297 73.1496 30.1409C71.4932 29.7563 69.8061 29.4722 68.1104 29.2843Z" fill="#FFCD54"/>
<path d="M62.9951 28.9998C63.8517 30.4202 64.6166 31.8625 65.2896 33.3223C66.1419 31.9499 67.0816 30.5994 68.1043 29.2839C66.4129 29.0916 64.704 28.9998 62.9951 28.9998Z" fill="#BA131A"/>
<path d="M57.8867 29.2839C58.9094 30.5994 59.8491 31.9499 60.7057 33.3223C61.3831 31.8625 62.148 30.4202 63.0002 28.9998C61.2914 28.9998 59.5825 29.0916 57.8867 29.2839Z" fill="#076725"/>
<path d="M52.8418 30.137C54.0262 31.3258 55.1276 32.5626 56.1459 33.8301C56.6354 32.3048 57.2123 30.7882 57.8854 29.2803C56.1853 29.4727 54.5026 29.7567 52.8418 30.137Z" fill="#FFCD54"/>
<path d="M47.9443 31.5615C49.2686 32.6061 50.5142 33.7075 51.6811 34.8525C51.9783 33.2835 52.3629 31.7101 52.8393 30.1367C51.1829 30.517 49.5483 30.9934 47.9443 31.5615Z" fill="#BA131A"/>
<path d="M43.2578 33.5541C44.7001 34.4369 46.0768 35.381 47.3793 36.3818C47.4754 34.7866 47.6633 33.1739 47.9431 31.5611C46.3434 32.1293 44.7788 32.7936 43.2578 33.5541Z" fill="#076725"/>
<path d="M38.8574 36.1162C40.4002 36.8155 41.8818 37.5847 43.2979 38.4238C43.1974 36.8198 43.1799 35.194 43.2586 33.555C41.742 34.3155 40.2691 35.1678 38.8574 36.1162Z" fill="#FFCD54"/>
<path d="M34.8145 39.2492C36.4316 39.7431 37.9962 40.3244 39.5128 40.9756C39.2068 39.3847 38.9883 37.7632 38.8616 36.1155C37.4455 37.064 36.095 38.1085 34.8145 39.2492Z" fill="#BA131A"/>
<path d="M31.1963 42.9518C32.8615 43.2227 34.4873 43.5899 36.0694 44.04C35.5712 42.4841 35.1473 40.8845 34.8151 39.2499C33.5302 40.3863 32.3239 41.6231 31.1963 42.9518Z" fill="#076725"/>
<path d="M28.0752 47.2214C29.7578 47.252 31.4187 47.3831 33.0401 47.6104C32.3496 46.1069 31.7333 44.551 31.1958 42.9514C30.0682 44.28 29.0236 45.7004 28.0752 47.2214Z" fill="#FFCD54"/>
<path d="M25.5225 52.0596C27.192 51.8279 28.8528 51.7056 30.4918 51.6924C29.6177 50.2633 28.8091 48.7686 28.0749 47.2214C27.1221 48.738 26.2698 50.3507 25.5225 52.0596Z" fill="#BA131A"/>
<path d="M23.6123 57.4697C25.2381 56.954 26.864 56.5607 28.4854 56.2853C27.4365 54.9479 26.4488 53.5362 25.5266 52.0634C24.7749 53.7679 24.1324 55.5729 23.6123 57.4697Z" fill="#076725"/>
<path d="M22.415 63.4502C23.9578 62.6329 25.5181 61.9467 27.0828 61.3873C25.8721 60.1636 24.7139 58.8524 23.6126 57.4713C23.0925 59.3681 22.686 61.3611 22.415 63.4502Z" fill="#FFCD54"/>
<path d="M22 69.9951C23.4204 68.8544 24.8758 67.8579 26.3531 66.9969C24.9982 65.9043 23.6827 64.7155 22.4152 63.4481C22.1399 65.5372 22 67.7181 22 69.9951Z" fill="#BA131A"/>
<path d="M26.6339 70.0664C26.6732 90.2495 43.0671 106.582 63.2502 106.543C83.4333 106.504 99.7617 90.1141 99.7267 69.9309C99.6917 49.7478 83.2979 33.4151 63.1147 33.4544C42.9272 33.4894 26.5945 49.8833 26.6339 70.0664Z" fill="#BA131A"/>
<path d="M30.9854 70.0572C31.0204 87.8365 45.4606 102.224 63.24 102.189C81.0193 102.154 95.4071 87.7142 95.3721 69.9348C95.3416 52.1511 80.8969 37.7677 63.1176 37.7983C45.3382 37.8376 30.9548 52.2779 30.9854 70.0572Z" fill="#076725"/>
<path d="M34.2725 70.0529C34.3031 86.0185 47.2705 98.9378 63.2361 98.9072C79.2016 98.8766 92.1166 85.9136 92.0903 69.948C92.0641 53.9824 79.0924 41.0631 63.1312 41.0937C47.1612 41.1199 34.2419 54.0873 34.2725 70.0529Z" fill="#183304"/>
</g>
<path d="M22 102.495C22 109.399 27.5964 114.996 34.5 114.998C41.4036 114.999 47 109.404 47 102.5C47 95.5964 41.4036 89.9989 34.5 89.9975C27.5964 89.9961 22 95.5914 22 102.495Z" fill="#183304"/>
<path fill-rule="evenodd" clip-rule="evenodd" d="M34.5 87.997C42.5081 87.9987 49 94.4919 49 102.5C49 110.508 42.5081 116.999 34.5 116.997C26.4919 116.995 20 110.502 20 102.494C20 94.4859 26.4919 87.9954 34.5 87.997ZM44.5694 102.499C44.5694 96.9379 40.0612 92.4287 34.5 92.4276C28.9388 92.4265 24.4306 96.9338 24.4306 102.495C24.4306 108.056 28.9388 112.565 34.5 112.566C40.0612 112.568 44.5694 108.06 44.5694 102.499Z" fill="black"/>
<path d="M80 102.495C80 109.399 85.5964 114.996 92.5 114.998C99.4036 114.999 105 109.404 105 102.5C105 95.5964 99.4036 89.9989 92.5 89.9975C85.5964 89.9961 80 95.5914 80 102.495Z" fill="#183304"/>
<path fill-rule="evenodd" clip-rule="evenodd" d="M92.5 87.997C100.508 87.9987 107 94.4919 107 102.5C107 110.508 100.508 116.999 92.5 116.997C84.4919 116.995 78 110.502 78 102.494C78 94.4859 84.4919 87.9954 92.5 87.997ZM102.569 102.499C102.569 96.9379 98.0612 92.4287 92.5 92.4276C86.9388 92.4265 82.4306 96.9338 82.4306 102.495C82.4306 108.056 86.9388 112.565 92.5 112.566C98.0612 112.568 102.569 108.06 102.569 102.499Z" fill="black"/>
</svg>
