<svg width="129" height="128" viewBox="0 0 129 128" fill="none" xmlns="http://www.w3.org/2000/svg">
<path d="M33.5803 46.501C33.5803 63.5769 47.4236 77.4192 64.5001 77.4186C81.5766 77.418 95.4199 63.5748 95.4199 46.4988C95.4199 29.4229 81.5767 15.5806 64.5001 15.5812C47.4236 15.5818 33.5803 29.425 33.5803 46.501Z" fill="black"/>
<path fill-rule="evenodd" clip-rule="evenodd" d="M91.8396 46.499C91.8396 31.4003 79.5993 19.1607 64.5 19.1612C49.4007 19.1617 37.1604 31.402 37.1604 46.5008C37.1604 61.5995 49.4007 73.839 64.5 73.8386C79.5993 73.8381 91.8396 61.5978 91.8396 46.499ZM64.5 12.0011C83.5538 12.0005 99 27.4456 99 46.4988C99 65.552 83.5538 80.9981 64.5 80.9987C45.4462 80.9993 30 65.5541 30 46.501C30 27.4478 45.4462 12.0017 64.5 12.0011Z" fill="black"/>
<path d="M26 71.5013C26 92.7636 43.2364 109.999 64.4987 109.999C85.7609 109.998 102.997 92.7609 102.997 71.4986C102.997 50.2364 85.7609 33.0006 64.4987 33.0013C43.2364 33.0021 26 50.2391 26 71.5013Z" fill="white"/>
<mask id="mask0" mask-type="alpha" maskUnits="userSpaceOnUse" x="26" y="33" width="77" height="77">
<path d="M26 71.5013C26 92.7636 43.2364 109.999 64.4987 109.999C85.7609 109.998 102.997 92.7609 102.997 71.4986C102.997 50.2364 85.7609 33.0006 64.4987 33.0013C43.2364 33.0021 26 50.2391 26 71.5013Z" fill="#3CA3CF"/>
</mask>
<g mask="url(#mask0)">
<path d="M79.728 100.333C82.523 101.701 84.561 103.856 88.375 109.65C87.7357 113.68 84.6774 117.656 84.5901 117.161C84.3572 116.23 82.3192 112.27 81.1838 110.61C78.0976 106.127 75.7684 105.108 66.015 103.769C57.8629 102.691 50.1184 100.682 45.2854 98.4697C42.5195 97.2177 40.5979 96.5772 33.494 94.5101C27.6128 92.8214 27.4091 92.7341 27.1762 91.686C26.8851 90.3176 26.7686 85.9795 27.0598 85.9795C27.1762 85.9795 28.2825 86.5036 29.5054 87.0858C30.7864 87.7264 34.3966 89.0656 37.541 90.0555C43.8589 92.0644 46.2754 92.8797 49.5944 94.2772C52.7679 95.5873 58.3579 96.6063 64.8213 97.043C72.1873 97.5671 75.3317 98.2658 79.728 100.333Z" fill="black"/>
<path d="M107.317 32.2834C105.075 34.0302 100.329 37.2037 99.1354 37.8442C96.5151 39.1835 93.0213 39.7076 88.4212 39.4747C80.9387 39.0962 75.1159 37.6113 71.1854 35.0784C69.9044 34.2632 67.6043 33.0403 66.0321 32.3416C63.1789 31.1188 57.2977 28.877 56.861 28.877C56.4825 28.877 64.4017 34.6708 67.779 36.9126C73.3399 40.5228 79.6578 43.0558 84.8693 43.6672C86.6162 43.9001 90.0516 44.6571 92.4972 45.3558C94.9429 46.0546 97.1556 46.6077 97.4467 46.6077C97.7379 46.6077 99.6595 44.8609 101.727 42.7646C103.823 40.6684 106.065 38.6303 106.676 38.2519C108.044 37.4366 108.132 37.262 108.452 33.9138L108.685 31.2644L107.317 32.2834Z" fill="black"/>
<path d="M104.841 48.0052C103.735 48.8204 101.843 50.0432 100.62 50.6546C98.4654 51.7901 98.3198 51.7901 95.059 51.5863C93.2538 51.4407 89.8474 50.9167 87.5473 50.4508C85.2181 49.9559 82.889 49.5774 82.3067 49.5774C81.2586 49.5774 80.9384 49.3154 75.5813 44.8317C73.0192 42.6772 66.9051 39.5911 60.4999 37.2037C55.2593 35.253 54.5024 34.8454 46.7579 29.8086C39.8577 25.2958 36.6551 22.9667 33.5107 19.997C30.5119 17.1729 26.7561 15.2222 21.6902 13.8829C12.3735 11.4082 6.4632 9.10813 -2.24206 4.56625L-8.26869 1.42188L-12.0536 3.22698C-14.1498 4.21688 -16.1879 5.14854 -16.5955 5.29412C-17.1778 5.52703 -16.8867 5.73083 -15.0816 6.40047C-13.8297 6.89542 -11.5004 8.06 -9.89914 9.10813C-6.72565 11.1461 -1.51417 13.7956 1.71755 15.0475C2.82391 15.4842 7.65687 16.94 12.4317 18.2501C17.2065 19.6185 22.3016 21.278 23.6991 21.9477C25.1548 22.6173 27.8042 23.7236 29.6093 24.3642C31.4726 25.0338 34.9955 26.606 37.5285 27.887L42.0995 30.1289L40.8767 31.5264C40.1779 32.3125 39.7994 33.0403 40.0032 33.1859C40.1779 33.3606 42.4197 34.3796 44.9527 35.4859C51.2124 38.1936 54.2403 39.7367 64.0811 45.2976C71.8838 49.723 72.6989 50.2761 75.8433 53.3914C77.6484 55.2547 79.9775 57.7877 80.9965 59.0979L82.86 61.4562L78.4345 61.2232C73.9508 60.9612 71.3015 60.4371 69.0305 59.3308C68.3318 59.0105 64.8089 56.6814 61.2569 54.1193C50.863 46.7533 45.6806 44.4241 40.7311 44.8608C38.5766 45.0938 37.7614 44.9773 35.9272 44.3077C34.7044 43.8709 33.4524 43.4342 33.103 43.3178C32.6954 43.2013 32.2588 43.7545 31.4727 45.4722C30.4828 47.685 30.4828 47.8014 31.1524 48.2964C32.1132 48.9951 41.1096 51.8483 45.535 52.8382C47.573 53.3332 49.9022 54.0319 50.6883 54.3813C51.5036 54.7889 54.6478 57.0307 57.7048 59.3599C60.7619 61.6891 64.4595 64.1347 65.8861 64.8334C68.7975 66.2309 74.8825 67.5993 86.4119 69.4627C90.3714 70.1032 94.3601 70.7146 95.2627 70.8602C96.6311 71.0931 97.1843 71.4425 98.7274 73.2767C99.7755 74.4121 100.503 75.4894 100.387 75.6058C100.27 75.7223 97.7665 75.897 94.8259 76.0134C89.5853 76.2464 89.4398 76.1881 83.9954 74.878C76.5712 72.9855 72.9028 71.6171 63.2076 66.9006C58.6657 64.6879 54.9681 62.941 54.9681 63.0283C54.9681 63.3486 64.8089 70.7146 66.0608 71.3551C66.7595 71.6754 68.2735 72.1994 69.3798 72.4615C71.5634 72.9855 74.9407 74.4995 74.9407 75.0235C74.9407 75.4312 78.2598 77.0325 81.0548 77.935C83.0055 78.6046 84.3739 78.7211 92.8754 78.7793L102.483 78.8667L102.57 77.2362C102.687 75.2273 103.648 68.5019 104.434 64.3967C104.725 62.7081 104.929 61.2232 104.754 61.1068C104.638 60.9903 104.026 61.3397 103.298 61.8055C102.163 62.7372 101.93 62.7372 98.7274 62.5043C96.5438 62.3587 95.1172 62.0676 94.6514 61.6891C89.4399 57.351 84.8105 52.8091 85.2181 52.4015C85.3928 52.2268 87.2854 52.6344 89.7019 53.3914C95.4957 55.1965 98.6982 55.1965 102.25 53.4205C105.511 51.761 106.268 50.9167 106.617 48.4419L106.879 46.433L104.841 48.0052Z" fill="black"/>
<path d="M103.91 107.456C103.648 106.059 103.357 104.865 103.328 104.836C96.3694 99.3334 93.3415 97.0334 92.1478 96.4511C90.925 95.8106 79.7158 92.7244 79.7158 92.9864C79.7158 93.0738 80.6766 93.7143 81.8703 94.5004C85.4805 96.9169 87.4312 98.722 89.9642 102.158C92.6719 105.826 94.6516 107.486 100.533 111.067L104.492 113.512L104.463 111.765C104.463 110.805 104.201 108.883 103.91 107.456Z" fill="black"/>
<path d="M101.668 82.362C100.882 81.5468 95.1175 82.2747 86.5869 84.3127C77.7361 86.409 74.4171 86.9621 69.1765 87.1659C65.1878 87.3115 63.3244 87.2533 61.2281 86.7875C59.7141 86.4672 56.1331 85.8267 53.2507 85.4191C46.9329 84.4874 46.9911 84.5456 39.8289 80.9936C32.5502 77.4126 26.9602 74.8796 26.7273 75.1125C26.6109 75.229 26.6401 76.1024 26.8147 77.0632C27.0768 78.8392 27.1058 78.8683 29.4641 80.0911C35.4617 83.2064 49.2329 88.4761 54.7937 89.7862C59.5394 90.9217 64.256 91.7078 68.0992 91.9698C71.1271 92.1445 71.7676 92.0863 75.1158 91.0382C82.1033 88.8546 87.0819 88.3014 94.0112 88.8837C96.0783 89.0584 98.6986 89.0584 99.8632 88.971L101.93 88.709L101.93 85.652C101.901 83.9925 101.814 82.4785 101.668 82.362Z" fill="black"/>
<path d="M77.6197 112.495C75.9602 110.806 71.3309 108.972 66.4106 108.098C64.6637 107.807 60.5293 106.73 57.1521 105.682C41.8087 101.024 36.3643 99.335 33.0452 98.1413C31.0363 97.4717 29.4351 96.9476 29.4351 97.0349C29.4351 97.064 29.7553 98.1122 30.1629 99.2768C30.5705 100.47 30.8908 101.897 30.8908 102.45C30.8908 103.702 31.0654 103.819 36.4807 105.74C41.0517 107.4 44.2543 108.157 58.4331 110.923C69.5548 113.106 70.4575 113.339 70.4575 114.213C70.4575 115.144 68.1574 117.677 66.0903 119.016C63.8776 120.414 59.2483 121.637 55.9875 121.637C48.8253 121.637 39.3048 116.6 33.4237 109.671C31.5312 107.458 31.5021 107.429 28.5033 106.817C26.8438 106.439 24.8931 105.857 24.1653 105.449C23.4665 105.041 22.5058 104.605 22.0108 104.459C21.1374 104.197 21.1665 104.284 22.3893 105.798C26.2615 110.719 31.3857 114.97 41.1973 121.462C46.4088 124.898 48.1848 125.48 53.571 125.48C60.4712 125.509 64.1396 124.141 72.1461 118.492C74.3005 116.978 76.688 115.523 77.4741 115.29C78.2893 115.057 78.9299 114.649 78.9299 114.416C78.9299 114.183 78.3476 113.281 77.6197 112.495Z" fill="black"/>
<path d="M72.5245 79.7698C70.7194 79.1875 66.6725 77.8482 63.6154 76.7419C60.5002 75.6355 54.7064 73.976 50.6594 73.0152C46.5834 72.0835 41.8959 70.8025 40.149 70.1911C36.8882 69.0556 31.1527 66.1733 28.4159 64.2808C27.2804 63.4947 26.7855 63.3492 26.669 63.6985C26.2906 64.8922 26.0867 68.124 26.2905 69.4341C26.5234 70.8316 26.5816 70.8899 30.8032 72.957C34.5299 74.7621 36.1021 75.257 41.9832 76.5672C45.7681 77.4115 50.6594 78.6634 52.9012 79.3331C60.6165 81.6914 61.5483 81.8952 65.6534 81.8078C67.8079 81.8078 70.9523 81.5458 72.6701 81.2838L75.8144 80.7597L72.5245 79.7698Z" fill="black"/>
<path d="M67.2265 51.499C62.4517 48.0343 52.1742 43.0557 43.0322 39.824C42.0714 39.4455 40.3246 38.5721 39.1017 37.7569L36.889 36.3594L35.6954 38.0189C34.8511 39.2417 34.6472 39.7949 34.9966 39.9696C35.4333 40.2607 37.7625 40.7557 42.3626 41.4835C44.6627 41.862 46.3222 42.5317 52.3489 45.5887C56.3085 47.5976 60.3845 49.4609 61.3744 49.7812C62.3352 50.0723 64.7518 51.1496 66.7025 52.1977C68.624 53.2458 70.2544 54.0028 70.3126 53.9737C70.3709 53.8572 68.9733 52.78 67.2265 51.499Z" fill="black"/>
<path d="M52.0574 68.2409C51.6498 67.6003 50.7182 66.6396 49.903 66.0573C49.1169 65.4167 46.7295 63.437 44.5751 61.5736C42.4206 59.7103 39.9167 57.614 38.985 56.8862C36.8014 55.0811 30.1342 51.3253 29.5811 51.5582C29.1443 51.7038 27.6595 56.4495 27.9506 56.7406C28.3873 57.2355 42.1877 64.5142 46.7587 66.6978C49.7283 68.0953 52.2322 69.3472 52.4069 69.4346C52.8727 69.6384 52.8144 69.4637 52.0574 68.2409Z" fill="black"/>
</g>
<path d="M24.2151 102.497C24.2151 109.28 29.7151 114.78 36.4998 114.782C43.2844 114.783 48.7844 109.285 48.7844 102.502C48.7844 95.7187 43.2844 90.2186 36.4998 90.2173C29.7151 90.2159 24.2151 95.7138 24.2151 102.497Z" fill="white"/>
<path fill-rule="evenodd" clip-rule="evenodd" d="M36.5001 88.0029C44.5082 88.0045 51 94.4964 51 102.503C51 110.509 44.5082 116.999 36.5001 116.997C28.492 116.995 22.0001 110.503 22.0001 102.497C22.0001 94.4905 28.492 88.0013 36.5001 88.0029ZM46.5695 102.502C46.5695 96.9419 42.0612 92.4337 36.5001 92.4326C30.9389 92.4314 26.4307 96.9378 26.4307 102.498C26.4307 108.058 30.9389 112.566 36.5001 112.567C42.0612 112.568 46.5695 108.062 46.5695 102.502Z" fill="black"/>
<path d="M81.2151 102.497C81.2151 109.28 86.7151 114.78 93.4998 114.782C100.284 114.783 105.784 109.285 105.784 102.502C105.784 95.7187 100.284 90.2186 93.4998 90.2173C86.7151 90.2159 81.2151 95.7138 81.2151 102.497Z" fill="white"/>
<path fill-rule="evenodd" clip-rule="evenodd" d="M93.5001 88.0029C101.508 88.0045 108 94.4964 108 102.503C108 110.509 101.508 116.999 93.5001 116.997C85.492 116.995 79.0001 110.503 79.0001 102.497C79.0001 94.4905 85.492 88.0013 93.5001 88.0029ZM103.569 102.502C103.569 96.9419 99.0612 92.4337 93.5001 92.4326C87.9389 92.4314 83.4307 96.9378 83.4307 102.498C83.4307 108.058 87.9389 112.566 93.5001 112.567C99.0612 112.568 103.569 108.062 103.569 102.502Z" fill="black"/>
</svg>
