<svg width="129" height="129" viewBox="0 0 129 129" fill="none" xmlns="http://www.w3.org/2000/svg">
<path d="M32.5613 45.5013C32.5613 62.5877 46.4131 76.4384 63.5 76.4378C80.587 76.4372 94.4387 62.5855 94.4387 45.4991C94.4387 28.4128 80.587 14.562 63.5 14.5626C46.4131 14.5632 32.5613 28.4149 32.5613 45.5013Z" fill="#E85F0A"/>
<path fill-rule="evenodd" clip-rule="evenodd" d="M90.8774 45.499C90.8774 30.3795 78.6201 18.123 63.5 18.1236C48.3799 18.1241 36.1226 30.3814 36.1226 45.501C36.1226 60.6205 48.3799 72.877 63.5 72.8764C78.6201 72.8759 90.8774 60.6186 90.8774 45.499ZM63.5 11.0012C82.5538 11.0005 98 26.4456 98 45.4988C98 64.552 82.5538 79.9981 63.5 79.9988C44.4462 79.9995 29 64.5544 29 45.5012C29 26.448 44.4462 11.0019 63.5 11.0012Z" fill="black"/>
<path d="M25.0283 71.4889C25.0283 92.7443 42.259 109.975 63.5142 109.974C84.7693 109.973 102 92.7416 102 71.4862C102 50.2309 84.7693 33.0006 63.5142 33.0013C42.259 33.0021 25.0283 50.2336 25.0283 71.4889Z" fill="#333333"/>
<mask id="mask0" mask-type="alpha" maskUnits="userSpaceOnUse" x="25" y="33" width="77" height="77">
<path d="M25.0283 71.4879C25.0283 92.7433 42.259 109.974 63.5142 109.973C84.7693 109.972 102 92.7406 102 71.4853C102 50.2299 84.7693 32.9996 63.5142 33.0004C42.259 33.0011 25.0283 50.2326 25.0283 71.4879Z" fill="#3CA3CF"/>
</mask>
<g mask="url(#mask0)">
<path d="M25.0283 32.9992L25.0283 109.972L102 109.972L102 32.9992L25.0283 32.9992Z" fill="#848484"/>
<mask id="mask1" mask-type="alpha" maskUnits="userSpaceOnUse" x="25" y="32" width="77" height="78">
<path d="M25.0283 32.9992L25.0283 109.972L102 109.972L102 32.9992L25.0283 32.9992Z" fill="#848484"/>
</mask>
<g mask="url(#mask1)">
<path d="M47.7823 70.2028C48.1312 71.2901 48.2121 72.4603 48.6787 73.5032C49.1452 74.5462 50.1823 75.4754 51.312 75.2845C52.7444 75.0397 53.4924 73.1794 54.9343 72.9924C56.6077 72.7745 57.9899 74.9664 59.6189 74.5346C60.4382 74.3129 60.9548 73.4454 61.0069 72.6068C61.0589 71.7682 60.7389 70.9373 60.3668 70.1739C59.9948 69.4105 59.5591 68.6683 59.3567 67.8451C58.8689 65.8672 59.7789 63.8449 60.6348 61.9962C61.4907 60.1474 62.3312 58.0712 61.7105 56.1299C61.271 54.7611 60.1374 53.6237 60.0507 52.1836C59.9909 51.2043 60.4362 50.2674 60.9587 49.4327C61.4811 48.5979 62.0749 47.794 62.3717 46.859C62.6686 45.9241 62.5973 44.7905 61.8956 44.1042C61.1572 43.3813 59.8887 43.389 59.0405 43.977C58.1923 44.565 57.7393 45.6137 57.6911 46.6451C57.6467 47.4605 57.8222 48.2875 57.6737 49.0895C57.5253 49.8915 56.9026 50.7108 56.0794 50.6607C55.7151 50.6375 55.3797 50.4448 55.0172 50.412C54.0765 50.3272 53.3728 51.3315 53.2591 52.2685C53.1029 53.5485 53.6234 54.8055 54.1266 55.993C54.6297 57.1805 55.1406 58.4432 54.9613 59.7214C54.782 60.9995 53.6312 62.2275 52.3607 62.0135C51.6532 61.8901 51.0865 61.3638 50.6257 60.8106C50.165 60.2573 49.7602 59.6442 49.1741 59.2278C48.5881 58.8114 47.7495 58.6495 47.1596 59.0524C46.3036 59.65 46.5041 60.9802 46.9938 61.9056C47.2907 62.4665 47.6627 63.1528 47.3177 63.6849C47.0401 64.1129 46.427 64.1784 45.9354 64.0454C45.4439 63.9124 44.9908 63.6097 44.4954 63.4979C44.0204 63.3998 43.5266 63.4545 43.0847 63.6544C42.6428 63.8542 42.2755 64.1888 42.0355 64.6103C41.0446 66.4417 42.7392 67.9222 44.478 67.9049C46.2169 67.8875 47.1943 68.3753 47.7823 70.2028Z" fill="#232323"/>
<path d="M81.1123 62.3884C80.7634 63.4757 80.6824 64.6458 80.2159 65.6888C79.7494 66.7317 78.7122 67.6609 77.5826 67.4701C76.1502 67.2252 75.4022 65.3649 73.9603 65.1779C72.2869 64.9601 70.9047 67.152 69.2757 66.7202C68.4564 66.4985 67.9398 65.6309 67.8877 64.7923C67.8357 63.9538 68.1557 63.1229 68.5278 62.3595C68.8998 61.596 69.3355 60.8538 69.5379 60.0307C70.0256 58.0527 69.1157 56.0305 68.2598 54.1817C67.4039 52.3329 66.5633 50.2567 67.1841 48.3154C67.6236 46.9467 68.7572 45.8093 68.8439 44.3692C68.9037 43.3899 68.4584 42.453 67.9359 41.6182C67.4135 40.7835 66.8197 39.9796 66.5229 39.0446C66.226 38.1096 66.2973 36.9761 66.999 36.2898C67.7374 35.5668 69.0058 35.5745 69.8541 36.1625C70.7023 36.7505 71.1553 37.7992 71.2035 38.8306C71.2479 39.6461 71.0724 40.4731 71.2209 41.2751C71.3693 42.077 71.992 42.8963 72.8152 42.8462C73.1795 42.8231 73.5149 42.6303 73.8774 42.5975C74.8181 42.5127 75.5218 43.5171 75.6355 44.454C75.7916 45.7341 75.2711 46.991 74.768 48.1785C74.2648 49.3661 73.754 50.6288 73.9333 51.9069C74.1126 53.185 75.2634 54.413 76.5338 54.1991C77.2413 54.0757 77.8081 53.5494 78.2689 52.9961C78.7296 52.4428 79.1344 51.8298 79.7205 51.4134C80.3065 50.997 81.1451 50.835 81.735 51.238C82.5909 51.8356 82.3905 53.1658 81.9008 54.0911C81.6039 54.6521 81.2319 55.3384 81.5769 55.8705C81.8545 56.2984 82.4676 56.364 82.9592 56.231C83.4507 56.0979 83.9038 55.7953 84.3992 55.6835C84.8742 55.5853 85.368 55.6401 85.8099 55.8399C86.2518 56.0397 86.6191 56.3744 86.8591 56.7958C87.8499 58.6272 86.1554 60.1078 84.4166 60.0904C82.6777 60.0731 81.7003 60.5608 81.1123 62.3884Z" fill="#232323"/>
<path d="M50.9082 81.8665C51.2572 80.7792 51.3381 79.6091 51.8046 78.5661C52.2712 77.5232 53.3083 76.594 54.438 76.7848C55.8703 77.0296 56.6183 78.89 58.0603 79.077C59.7336 79.2948 61.1159 77.1029 62.7448 77.5347C63.5641 77.7564 64.0808 78.6239 64.1328 79.4625C64.1849 80.3011 63.8649 81.132 63.4928 81.8954C63.1207 82.6588 62.6851 83.401 62.4827 84.2242C61.9949 86.2021 62.9048 88.2244 63.7608 90.0732C64.6167 91.9219 65.4572 93.9982 64.8365 95.9395C64.3969 97.3082 63.2634 98.4456 63.1767 99.8857C63.1169 100.865 63.5622 101.802 64.0846 102.637C64.6071 103.471 65.2008 104.275 65.4977 105.21C65.7946 106.145 65.7233 107.279 65.0215 107.965C64.2832 108.688 63.0147 108.68 62.1665 108.092C61.3183 107.504 60.8652 106.456 60.817 105.424C60.7727 104.609 60.9481 103.782 60.7997 102.98C60.6513 102.178 60.0286 101.359 59.2054 101.409C58.8411 101.432 58.5056 101.625 58.1432 101.657C57.2024 101.742 56.4988 100.738 56.3851 99.8009C56.2289 98.5208 56.7494 97.2639 57.2526 96.0764C57.7557 94.8888 58.2666 93.6261 58.0873 92.348C57.908 91.0698 56.7571 89.8418 55.4867 90.0558C54.7792 90.1792 54.2125 90.7055 53.7517 91.2588C53.291 91.8121 52.8861 92.4251 52.3001 92.8415C51.714 93.2579 50.8755 93.4198 50.2856 93.0169C49.4296 92.4193 49.6301 91.0891 50.1198 90.1638C50.4166 89.6028 50.7887 88.9165 50.4436 88.3844C50.166 87.9564 49.553 87.8909 49.0614 88.0239C48.5698 88.1569 48.1168 88.4596 47.6214 88.5714C47.1464 88.6696 46.6526 88.6148 46.2107 88.415C45.7688 88.2151 45.4015 87.8805 45.1615 87.4591C44.1706 85.6277 45.8651 84.1471 47.604 84.1645C49.3429 84.1818 50.3203 83.6941 50.9082 81.8665Z" fill="#232323"/>
<path d="M82.4285 81.6136C82.0796 80.5263 81.9986 79.3561 81.5321 78.3132C81.0656 77.2702 80.0284 76.341 78.8987 76.5319C77.4664 76.7767 76.7184 78.637 75.2764 78.824C73.6031 79.0419 72.2209 76.85 70.5919 77.2818C69.7726 77.5035 69.2559 78.371 69.2039 79.2096C69.1518 80.0482 69.4719 80.8791 69.8439 81.6425C70.216 82.4059 70.6517 83.1481 70.8541 83.9713C71.3418 85.9492 70.4319 87.9715 69.576 89.8202C68.72 91.669 67.8795 93.7453 68.5003 95.6866C68.9398 97.0553 70.0733 98.1927 70.1601 99.6328C70.2198 100.612 69.7745 101.549 69.2521 102.384C68.7297 103.218 68.1359 104.022 67.839 104.957C67.5421 105.892 67.6135 107.026 68.3152 107.712C69.0535 108.435 70.322 108.427 71.1702 107.839C72.0185 107.251 72.4715 106.203 72.5197 105.171C72.564 104.356 72.3886 103.529 72.537 102.727C72.6855 101.925 73.3081 101.106 74.1313 101.156C74.4957 101.179 74.8311 101.372 75.1935 101.404C76.1343 101.489 76.8379 100.485 76.9517 99.5479C77.1078 98.2679 76.5873 97.011 76.0842 95.8234C75.581 94.6359 75.0701 93.3732 75.2494 92.0951C75.4287 90.8169 76.5796 89.5889 77.85 89.8029C78.5575 89.9263 79.1243 90.4526 79.585 91.0058C80.0458 91.5591 80.4506 92.1722 81.0366 92.5886C81.6227 93.005 82.4613 93.1669 83.0512 92.764C83.9071 92.1664 83.7066 90.8362 83.217 89.9108C82.9201 89.3499 82.548 88.6636 82.8931 88.1315C83.1707 87.7035 83.7837 87.638 84.2753 87.771C84.7669 87.904 85.2199 88.2067 85.7154 88.3185C86.1903 88.4166 86.6842 88.3619 87.1261 88.162C87.568 87.9622 87.9352 87.6276 88.1752 87.2061C89.1661 85.3747 87.4716 83.8942 85.7327 83.9115C83.9939 83.9289 83.0165 83.4411 82.4285 81.6136Z" fill="#232323"/>
<path d="M98.8678 52.9673C98.7772 51.8222 98.9989 50.6713 98.943 49.5223C98.8871 48.3734 98.461 47.1376 97.4586 46.5728C97.088 46.3646 96.6661 46.2651 96.2415 46.2859C95.8169 46.3067 95.4068 46.4468 95.0582 46.6903C94.7097 46.9337 94.4369 47.2705 94.2712 47.662C94.1056 48.0535 94.0537 48.4838 94.1216 48.9035C94.2488 49.6881 94.779 50.3551 94.9583 51.1282C95.2474 52.3735 94.5958 53.6228 93.9828 54.7467C93.3698 55.8706 92.7548 57.1506 93.1153 58.3767C93.4546 59.5334 94.5669 60.2949 95.0238 61.4034C95.7159 63.0825 94.7423 64.9274 94.2912 66.6875C94.0387 67.6726 93.9558 68.7367 94.2912 69.6949C94.6267 70.653 95.4653 71.48 96.4774 71.5957C97.4894 71.7113 98.5806 70.9479 98.6326 69.932C98.6692 69.2206 98.2471 68.5825 97.8943 67.9618C97.4972 67.2504 97.1791 66.4696 97.1791 65.6484C97.1791 64.8272 97.5511 63.9847 98.2606 63.5857C98.8485 63.2541 99.6929 63.1731 99.9262 62.5389C100.08 62.1205 99.8703 61.6598 99.6177 61.2935C99.3652 60.9272 99.0567 60.5706 98.9854 60.1368C98.9141 59.7031 99.2283 59.1613 99.6717 59.2095C99.8659 59.2558 100.048 59.3418 100.208 59.4621C100.598 59.6923 101.056 59.7805 101.504 59.7119C101.952 59.6433 102.363 59.422 102.666 59.0855C102.97 58.749 103.148 58.3179 103.17 57.8652C103.193 57.4125 103.058 56.966 102.789 56.6012C102.083 55.6373 101.177 56.1212 100.3 55.7183C99.3536 55.2865 98.9526 53.9004 98.8678 52.9673Z" fill="#BBBBBB"/>
<path d="M37.9788 65.0162C37.2154 65.0615 36.4835 65.3364 35.879 65.805C35.2746 66.2736 34.8259 66.9138 34.5917 67.6419L34.4163 68.1913C34.2717 68.6482 34.1271 69.1552 34.2948 69.5948C34.5879 70.3755 35.7253 70.5317 36.4154 70.0729C37.1056 69.614 37.4526 68.7774 37.6743 67.9716C37.8959 67.1657 38.0598 66.3156 38.5379 65.637C39.016 64.9584 39.9645 64.5073 40.7086 64.8832C41.4527 65.2591 41.6397 66.2057 41.8363 67.0038C42.033 67.8019 42.5053 68.7388 43.3362 68.7658C44.0032 68.7832 44.5391 68.1412 44.6509 67.4819C44.7627 66.8226 44.5622 66.1575 44.381 65.5136C44.1998 64.8697 44.0321 64.1873 44.2056 63.5434C44.4389 62.6817 45.2331 62.086 46.0466 61.7178C46.8602 61.3495 47.7469 61.1394 48.5103 60.671C49.2737 60.2025 49.9234 59.3948 49.8386 58.506C49.7653 57.7349 49.1639 57.0949 49.0559 56.3276C48.9422 55.5257 49.3952 54.7333 49.9967 54.1916C50.5981 53.6499 51.3461 53.2971 52.0363 52.8788C52.9038 52.3563 53.7231 51.7009 54.232 50.8257C54.7409 49.9504 54.8971 48.8227 54.4421 47.9185C53.9872 47.0144 52.8401 46.4515 51.8994 46.8274C51.1861 47.1127 50.7427 47.8125 50.2068 48.3581C49.6709 48.9036 48.786 49.322 48.1537 48.8767C47.4674 48.4005 47.6255 47.3787 47.6313 46.544C47.6609 45.899 47.4728 45.2628 47.0973 44.7377C46.7021 44.2345 46.0196 43.928 45.4008 44.0976C44.8418 44.2518 44.4466 44.7396 44.1169 45.2177C43.7873 45.6958 43.4653 46.2009 42.9602 46.4688C42.825 46.5402 42.6768 46.5837 42.5245 46.5968C42.3721 46.6098 42.2187 46.5922 42.0733 46.545C41.9279 46.4977 41.7934 46.4217 41.6779 46.3215C41.5624 46.2214 41.4681 46.0991 41.4007 45.9618C41.1558 45.4587 40.6296 44.9613 40.2729 44.5507C39.8874 44.1053 39.3225 43.7795 38.7442 43.8566C37.8902 43.9665 37.3465 44.9073 37.3581 45.7671C37.3697 46.6269 37.788 47.425 38.1755 48.1942C38.563 48.9634 38.9466 49.7904 38.8695 50.6483C38.7133 52.4913 36.6641 53.54 35.8467 55.196C35.53 55.8671 35.4188 56.6168 35.5272 57.3509C35.6356 58.085 35.9587 58.7706 36.4559 59.3215C37.1287 60.0464 38.0617 60.4666 38.8309 61.0874C39.6001 61.7081 40.2363 62.699 39.949 63.6494C39.7042 64.4552 38.8425 64.9507 38.0039 65.0182L37.9788 65.0162Z" fill="#E85F0A"/>
<path d="M53.2283 83.0807C52.4649 83.126 51.7329 83.4009 51.1285 83.8694C50.5241 84.338 50.0753 84.9783 49.8412 85.7064L49.6657 86.2558C49.5212 86.7127 49.3766 87.2197 49.5443 87.6592C49.8373 88.44 50.9747 88.5961 51.6649 88.1373C52.355 87.6785 52.702 86.8418 52.9237 86.036C53.1454 85.2302 53.3093 84.38 53.7874 83.7014C54.2654 83.0229 55.2139 82.5717 55.958 82.9477C56.7022 83.3236 56.8892 84.2701 57.0858 85.0683C57.2824 85.8664 57.7547 86.8033 58.5856 86.8303C59.2526 86.8476 59.7885 86.2057 59.9004 85.5463C60.0122 84.887 59.8117 84.2219 59.6305 83.5781C59.4493 82.9342 59.2815 82.2517 59.455 81.6078C59.6883 80.7461 60.4826 80.1504 61.2961 79.7822C62.1096 79.414 62.9964 79.2039 63.7598 78.7354C64.5232 78.267 65.1729 77.4592 65.088 76.5705C65.0148 75.7994 64.4133 75.1593 64.3053 74.3921C64.1916 73.5901 64.6446 72.7978 65.2461 72.2561C65.8476 71.7144 66.5956 71.3616 67.2857 70.9432C68.1532 70.4208 68.9725 69.7653 69.4815 68.8901C69.9904 68.0149 70.1465 66.8871 69.6916 65.983C69.2366 65.0788 68.0896 64.5159 67.1488 64.8919C66.4356 65.1772 65.9922 65.877 65.4562 66.4225C64.9203 66.9681 64.0355 67.3864 63.4031 66.9411C62.7169 66.4649 62.8749 65.4432 62.8807 64.6085C62.9104 63.9635 62.7223 63.3273 62.3467 62.8021C61.9515 62.299 61.2691 61.9924 60.6503 62.1621C60.0912 62.3163 59.696 62.804 59.3664 63.2821C59.0367 63.7602 58.7148 64.2653 58.2097 64.5333C58.0745 64.6046 57.9263 64.6481 57.7739 64.6612C57.6216 64.6743 57.4682 64.6567 57.3227 64.6094C57.1773 64.5621 57.0429 64.4862 56.9273 64.386C56.8118 64.2858 56.7175 64.1635 56.6501 64.0263C56.4053 63.5231 55.879 63.0257 55.5224 62.6151C55.1368 62.1698 54.572 61.844 53.9936 61.9211C53.1396 62.031 52.596 62.9718 52.6076 63.8316C52.6191 64.6914 53.0374 65.4895 53.4249 66.2587C53.8124 67.0279 54.196 67.8549 54.1189 68.7128C53.9628 70.5557 51.9135 71.6045 51.0962 73.2604C50.7794 73.9315 50.6682 74.6813 50.7766 75.4154C50.885 76.1495 51.2082 76.8351 51.7053 77.386C52.3781 78.1108 53.3112 78.5311 54.0804 79.1518C54.8496 79.7726 55.4857 80.7635 55.1985 81.7139C54.9537 82.5197 54.0919 83.0151 53.2534 83.0826L53.2283 83.0807Z" fill="#E85F0A"/>
<path d="M88.4727 70.9703C89.2361 71.0156 89.9681 71.2905 90.5725 71.7591C91.1769 72.2277 91.6257 72.8679 91.8598 73.596L92.0352 74.1454C92.1798 74.6023 92.3244 75.1093 92.1567 75.5489C91.8637 76.3296 90.7263 76.4858 90.0361 76.027C89.346 75.5681 88.999 74.7315 88.7773 73.9257C88.5556 73.1198 88.3917 72.2697 87.9136 71.5911C87.4355 70.9125 86.4871 70.4614 85.743 70.8373C84.9988 71.2132 84.8118 72.1598 84.6152 72.9579C84.4186 73.756 83.9463 74.6929 83.1154 74.7199C82.4484 74.7373 81.9124 74.0953 81.8006 73.436C81.6888 72.7767 81.8893 72.1116 82.0705 71.4677C82.2517 70.8238 82.4194 70.1414 82.2459 69.4975C82.0127 68.6358 81.2184 68.0401 80.4049 67.6719C79.5914 67.3036 78.7046 67.0935 77.9412 66.6251C77.1778 66.1566 76.5281 65.3489 76.613 64.4601C76.6862 63.689 77.2877 63.049 77.3956 62.2817C77.5094 61.4798 77.0563 60.6874 76.4549 60.1457C75.8534 59.604 75.1054 59.2512 74.4153 58.8329C73.5478 58.3104 72.7285 57.655 72.2195 56.7798C71.7106 55.9045 71.5545 54.7768 72.0094 53.8726C72.4644 52.9685 73.6114 52.4056 74.5522 52.7815C75.2654 53.0668 75.7088 53.7666 76.2448 54.3122C76.7807 54.8577 77.6655 55.2761 78.2978 54.8308C78.9841 54.3546 78.8261 53.3329 78.8203 52.4981C78.7906 51.8531 78.9787 51.2169 79.3543 50.6918C79.7495 50.1886 80.4319 49.8821 81.0507 50.0517C81.6098 50.206 82.005 50.6937 82.3346 51.1718C82.6643 51.6499 82.9862 52.155 83.4913 52.4229C83.6265 52.4943 83.7747 52.5378 83.9271 52.5509C84.0794 52.5639 84.2328 52.5463 84.3782 52.4991C84.5237 52.4518 84.6581 52.3758 84.7737 52.2756C84.8892 52.1755 84.9835 52.0532 85.0509 51.9159C85.2957 51.4128 85.822 50.9154 86.1786 50.5048C86.5642 50.0594 87.129 49.7336 87.7074 49.8108C88.5614 49.9206 89.105 50.8614 89.0934 51.7212C89.0819 52.581 88.6635 53.3791 88.2761 54.1483C87.8886 54.9175 87.5049 55.7445 87.5821 56.6024C87.7382 58.4454 89.7874 59.4941 90.6048 61.1501C90.9216 61.8212 91.0327 62.5709 90.9244 63.305C90.816 64.0391 90.4928 64.7247 89.9956 65.2756C89.3228 66.0005 88.3898 66.4207 87.6206 67.0415C86.8514 67.6622 86.2153 68.6531 86.5025 69.6035C86.7473 70.4093 87.609 70.9048 88.4476 70.9723L88.4727 70.9703Z" fill="#E85F0A"/>
<path d="M68.4482 61.7451C68.914 61.7731 69.3606 61.9435 69.7294 62.2338C70.0982 62.5241 70.372 62.9209 70.5149 63.372L70.6219 63.7125C70.7101 63.9956 70.7983 64.3097 70.696 64.5821C70.5172 65.0659 69.8232 65.1626 69.4021 64.8783C68.9811 64.594 68.7693 64.0756 68.6341 63.5763C68.4988 63.077 68.3988 62.5502 68.1071 62.1297C67.8154 61.7092 67.2367 61.4297 66.7827 61.6626C66.3287 61.8956 66.2146 62.4821 66.0946 62.9766C65.9746 63.4712 65.6864 64.0517 65.1795 64.0684C64.7725 64.0792 64.4455 63.6814 64.3773 63.2729C64.3091 62.8643 64.4314 62.4522 64.542 62.0532C64.6525 61.6543 64.7549 61.2314 64.649 60.8324C64.5067 60.2985 64.0221 59.9293 63.5257 59.7012C63.0293 59.473 62.4883 59.3428 62.0225 59.0526C61.5567 58.7623 61.1603 58.2618 61.212 57.7111C61.2567 57.2333 61.6237 56.8367 61.6896 56.3613C61.759 55.8643 61.4826 55.3734 61.1156 55.0377C60.7486 54.702 60.2922 54.4834 59.8711 54.2242C59.3418 53.9005 58.8419 53.4944 58.5314 52.952C58.2209 52.4097 58.1256 51.7109 58.4032 51.1507C58.6808 50.5904 59.3807 50.2416 59.9547 50.4746C60.3899 50.6513 60.6604 51.085 60.9874 51.423C61.3144 51.7611 61.8543 52.0203 62.2401 51.7443C62.6588 51.4493 62.5624 50.8162 62.5588 50.299C62.5407 49.8993 62.6555 49.5051 62.8846 49.1797C63.1258 48.8679 63.5422 48.678 63.9197 48.7831C64.2608 48.8786 64.502 49.1809 64.7031 49.4771C64.9042 49.7734 65.1007 50.0863 65.4088 50.2524C65.4914 50.2966 65.5818 50.3235 65.6747 50.3316C65.7677 50.3397 65.8613 50.3288 65.95 50.2995C66.0387 50.2702 66.1208 50.2232 66.1913 50.1611C66.2618 50.099 66.3193 50.0232 66.3604 49.9382C66.5098 49.6264 66.8309 49.3182 67.0485 49.0638C67.2837 48.7879 67.6284 48.586 67.9813 48.6338C68.5023 48.7018 68.834 49.2848 68.827 49.8176C68.8199 50.3503 68.5647 50.8449 68.3282 51.3215C68.0918 51.7981 67.8578 52.3106 67.9048 52.8421C68.0001 53.9841 69.2504 54.6339 69.7491 55.6601C69.9424 56.0759 70.0102 56.5404 69.9441 56.9953C69.8779 57.4502 69.6808 57.875 69.3774 58.2164C68.9669 58.6655 68.3976 58.9259 67.9283 59.3106C67.459 59.6952 67.0709 60.3092 67.2461 60.8981C67.3955 61.3974 67.9213 61.7044 68.4329 61.7462L68.4482 61.7451Z" fill="#E85F0A"/>
<path d="M37.1912 83.2353C37.657 83.2633 38.1036 83.4337 38.4724 83.724C38.8412 84.0144 39.115 84.4111 39.2578 84.8623L39.3649 85.2027C39.4531 85.4858 39.5413 85.8 39.439 86.0723C39.2602 86.5561 38.5662 86.6529 38.1451 86.3686C37.724 86.0843 37.5123 85.5658 37.377 85.0665C37.2418 84.5672 37.1418 84.0404 36.8501 83.6199C36.5584 83.1994 35.9797 82.9199 35.5257 83.1529C35.0716 83.3858 34.9575 83.9723 34.8376 84.4669C34.7176 84.9614 34.4294 85.5419 33.9225 85.5587C33.5155 85.5694 33.1885 85.1716 33.1203 84.7631C33.052 84.3546 33.1744 83.9425 33.2849 83.5435C33.3955 83.1445 33.4978 82.7216 33.392 82.3227C33.2497 81.7887 32.765 81.4196 32.2687 81.1914C31.7723 80.9633 31.2312 80.8331 30.7654 80.5428C30.2997 80.2525 29.9033 79.752 29.955 79.2013C29.9997 78.7235 30.3667 78.3269 30.4326 77.8515C30.502 77.3546 30.2256 76.8636 29.8586 76.5279C29.4916 76.1923 29.0352 75.9737 28.6141 75.7145C28.0848 75.3907 27.5849 74.9846 27.2744 74.4423C26.9639 73.8999 26.8686 73.2011 27.1462 72.6409C27.4238 72.0807 28.1236 71.7318 28.6976 71.9648C29.1328 72.1416 29.4034 72.5752 29.7304 72.9133C30.0574 73.2513 30.5972 73.5105 30.9831 73.2346C31.4018 72.9395 31.3053 72.3064 31.3018 71.7892C31.2837 71.3895 31.3985 70.9953 31.6276 70.6699C31.8688 70.3581 32.2851 70.1682 32.6627 70.2733C33.0038 70.3689 33.2449 70.6711 33.4461 70.9673C33.6472 71.2636 33.8436 71.5766 34.1518 71.7426C34.2343 71.7868 34.3247 71.8138 34.4177 71.8219C34.5107 71.83 34.6043 71.8191 34.693 71.7898C34.7817 71.7605 34.8638 71.7134 34.9342 71.6513C35.0047 71.5893 35.0623 71.5135 35.1034 71.4284C35.2528 71.1167 35.5739 70.8085 35.7915 70.554C36.0267 70.2781 36.3714 70.0762 36.7242 70.124C37.2453 70.1921 37.577 70.775 37.5699 71.3078C37.5629 71.8406 37.3076 72.3351 37.0712 72.8117C36.8348 73.2883 36.6007 73.8008 36.6478 74.3324C36.7431 75.4743 37.9934 76.1242 38.4921 77.1503C38.6854 77.5661 38.7532 78.0307 38.6871 78.4856C38.6209 78.9404 38.4238 79.3653 38.1204 79.7066C37.7099 80.1558 37.1406 80.4162 36.6713 80.8008C36.202 81.1855 35.8138 81.7994 35.9891 82.3884C36.1385 82.8877 36.6642 83.1947 37.1759 83.2365L37.1912 83.2353Z" fill="#E85F0A"/>
<path d="M108.79 79.568C109.554 79.6133 110.286 79.8882 110.89 80.3568C111.494 80.8253 111.943 81.4656 112.177 82.1937L112.353 82.7431C112.497 83.2 112.642 83.707 112.474 84.1465C112.181 84.9273 111.044 85.0834 110.354 84.6246C109.663 84.1658 109.316 83.3291 109.095 82.5233C108.873 81.7175 108.709 80.8673 108.231 80.1887C107.753 79.5102 106.805 79.059 106.06 79.435C105.316 79.8109 105.129 80.7574 104.933 81.5556C104.736 82.3537 104.264 83.2906 103.433 83.3176C102.766 83.3349 102.23 82.693 102.118 82.0337C102.006 81.3743 102.207 80.7093 102.388 80.0654C102.569 79.4215 102.737 78.739 102.563 78.0951C102.33 77.2334 101.536 76.6377 100.722 76.2695C99.9088 75.9013 99.0221 75.6912 98.2586 75.2227C97.4952 74.7543 96.8456 73.9465 96.9304 73.0578C97.0037 72.2867 97.6051 71.6466 97.7131 70.8794C97.8268 70.0774 97.3738 69.2851 96.7723 68.7434C96.1709 68.2017 95.4229 67.8489 94.7327 67.4305C93.8652 66.9081 93.0459 66.2526 92.537 65.3774C92.028 64.5022 91.8719 63.3744 92.3269 62.4703C92.7818 61.5662 93.9288 61.0032 94.8696 61.3792C95.5829 61.6645 96.0263 62.3643 96.5622 62.9098C97.0981 63.4554 97.983 63.8737 98.6153 63.4284C99.3016 62.9522 99.1435 61.9305 99.1377 61.0958C99.1081 60.4508 99.2962 59.8146 99.6717 59.2894C100.067 58.7863 100.749 58.4797 101.368 58.6494C101.927 58.8036 102.322 59.2913 102.652 59.7694C102.982 60.2475 103.304 60.7526 103.809 61.0206C103.944 61.0919 104.092 61.1355 104.245 61.1485C104.397 61.1616 104.55 61.144 104.696 61.0967C104.841 61.0494 104.976 60.9735 105.091 60.8733C105.207 60.7731 105.301 60.6508 105.368 60.5136C105.613 60.0104 106.139 59.513 106.496 59.1024C106.882 58.6571 107.446 58.3313 108.025 58.4084C108.879 58.5183 109.422 59.4591 109.411 60.3189C109.399 61.1787 108.981 61.9768 108.594 62.746C108.206 63.5152 107.822 64.3422 107.9 65.2001C108.056 67.043 110.105 68.0918 110.922 69.7478C111.239 70.4188 111.35 71.1686 111.242 71.9027C111.133 72.6368 110.81 73.3224 110.313 73.8733C109.64 74.5981 108.707 75.0184 107.938 75.6391C107.169 76.2599 106.533 77.2508 106.82 78.2012C107.065 79.007 107.926 79.5024 108.765 79.5699L108.79 79.568Z" fill="#232323"/>
<path d="M38.3814 85.1976C37.618 85.1524 36.8861 84.8774 36.2816 84.4089C35.6772 83.9403 35.2285 83.3 34.9943 82.572L34.8189 82.0225C34.6743 81.5657 34.5297 81.0586 34.6974 80.6191C34.9905 79.8383 36.1279 79.6822 36.818 80.141C37.5081 80.5998 37.8551 81.4365 38.0768 82.2423C38.2985 83.0481 38.4624 83.8983 38.9405 84.5769C39.4186 85.2555 40.367 85.7066 41.1112 85.3307C41.8553 84.9547 42.0423 84.0082 42.2389 83.2101C42.4356 82.412 42.9079 81.475 43.7387 81.4481C44.4058 81.4307 44.9417 82.0727 45.0535 82.732C45.1653 83.3913 44.9648 84.0564 44.7836 84.7003C44.6024 85.3441 44.4347 86.0266 44.6082 86.6705C44.8414 87.5322 45.6357 88.1279 46.4492 88.4961C47.2627 88.8643 48.1495 89.0744 48.9129 89.5429C49.6763 90.0114 50.326 90.8191 50.2412 91.7078C50.1679 92.479 49.5664 93.119 49.4585 93.8863C49.3447 94.6882 49.7978 95.4805 50.3992 96.0223C51.0007 96.564 51.7487 96.9168 52.4388 97.3351C53.3063 97.8575 54.1257 98.513 54.6346 99.3882C55.1435 100.263 55.2997 101.391 54.8447 102.295C54.3898 103.199 53.2427 103.762 52.302 103.386C51.5887 103.101 51.1453 102.401 50.6094 101.856C50.0734 101.31 49.1886 100.892 48.5563 101.337C47.87 101.813 48.0281 102.835 48.0339 103.67C48.0635 104.315 47.8754 104.951 47.4999 105.476C47.1047 105.979 46.4222 106.286 45.8034 106.116C45.2443 105.962 44.8492 105.474 44.5195 104.996C44.1898 104.518 43.8679 104.013 43.3628 103.745C43.2276 103.674 43.0794 103.63 42.9271 103.617C42.7747 103.604 42.6213 103.622 42.4759 103.669C42.3305 103.716 42.196 103.792 42.0805 103.892C41.9649 103.992 41.8707 104.115 41.8033 104.252C41.5584 104.755 41.0321 105.253 40.6755 105.663C40.2899 106.109 39.7251 106.434 39.1468 106.357C38.2928 106.247 37.7491 105.307 37.7607 104.447C37.7723 103.587 38.1906 102.789 38.5781 102.02C38.9656 101.25 39.3492 100.423 39.2721 99.5656C39.1159 97.7226 37.0667 96.6739 36.2493 95.0179C35.9326 94.3468 35.8214 93.5971 35.9298 92.863C36.0382 92.1289 36.3613 91.4432 36.8585 90.8924C37.5313 90.1675 38.4643 89.7473 39.2335 89.1265C40.0027 88.5057 40.6389 87.5149 40.3516 86.5644C40.1068 85.7586 39.2451 85.2632 38.4065 85.1957L38.3814 85.1976Z" fill="#E85F0A"/>
<path d="M89.3009 78.1654C90.0644 78.1201 90.7963 77.8452 91.4007 77.3766C92.0052 76.9081 92.4539 76.2678 92.6881 75.5397L92.8635 74.9903C93.0081 74.5334 93.1527 74.0264 92.9849 73.5869C92.6919 72.8061 91.5545 72.65 90.8644 73.1088C90.1742 73.5676 89.8272 74.4043 89.6055 75.2101C89.3838 76.0159 89.22 76.8661 88.7419 77.5447C88.2638 78.2232 87.3153 78.6743 86.5712 78.2984C85.8271 77.9225 85.6401 76.976 85.4434 76.1778C85.2468 75.3797 84.7745 74.4428 83.9436 74.4158C83.2766 74.3985 82.7407 75.0404 82.6289 75.6997C82.5171 76.3591 82.7176 77.0241 82.8988 77.668C83.08 78.3119 83.2477 78.9944 83.0742 79.6382C82.8409 80.5 82.0467 81.0957 81.2332 81.4639C80.4196 81.8321 79.5329 82.0422 78.7694 82.5107C78.006 82.9791 77.3564 83.7869 77.4412 84.6756C77.5145 85.4467 78.1159 86.0868 78.2239 86.854C78.3376 87.656 77.8846 88.4483 77.2831 88.99C76.6817 89.5317 75.9337 89.8845 75.2435 90.3029C74.376 90.8253 73.5567 91.4808 73.0478 92.356C72.5388 93.2312 72.3827 94.359 72.8377 95.2631C73.2926 96.1672 74.4396 96.7302 75.3804 96.3542C76.0937 96.0689 76.5371 95.3691 77.073 94.8236C77.6089 94.278 78.4938 93.8597 79.1261 94.305C79.8124 94.7812 79.6543 95.8029 79.6485 96.6376C79.6189 97.2826 79.807 97.9188 80.1825 98.444C80.5777 98.9471 81.2601 99.2537 81.879 99.084C82.438 98.9298 82.8332 98.4421 83.1629 97.964C83.4925 97.4859 83.8145 96.9808 84.3195 96.7128C84.4548 96.6415 84.603 96.5979 84.7553 96.5849C84.9076 96.5718 85.0611 96.5894 85.2065 96.6367C85.3519 96.684 85.4864 96.7599 85.6019 96.8601C85.7174 96.9603 85.8117 97.0826 85.8791 97.2198C86.1239 97.723 86.6502 98.2204 87.0069 98.631C87.3924 99.0763 87.9573 99.4021 88.5356 99.325C89.3896 99.2151 89.9333 98.2743 89.9217 97.4145C89.9101 96.5547 89.4918 95.7566 89.1043 94.9874C88.7168 94.2182 88.3332 93.3912 88.4103 92.5333C88.5665 90.6904 90.6157 89.6416 91.4331 87.9856C91.7498 87.3146 91.861 86.5648 91.7526 85.8307C91.6442 85.0966 91.3211 84.411 90.8239 83.8601C90.1511 83.1353 89.218 82.715 88.4489 82.0943C87.6797 81.4735 87.0435 80.4826 87.3307 79.5322C87.5756 78.7264 88.4373 78.231 89.2759 78.1635L89.3009 78.1654Z" fill="#E85F0A"/>
<path d="M29.3678 60.2411C29.4796 60.7886 29.655 61.3476 30.0367 61.7563C30.4184 62.165 31.0507 62.3848 31.5558 62.1419C32.2614 61.8045 32.3963 60.7924 33.0575 60.3818C33.9405 59.8247 35.0547 60.6324 36.0996 60.6343C36.4579 60.6338 36.8091 60.5349 37.1151 60.3485C37.421 60.162 37.6699 59.8951 37.8346 59.5769C37.9992 59.2587 38.0734 58.9014 38.0489 58.544C38.0244 58.1865 37.9023 57.8426 37.6958 57.5499C37.2158 56.8751 36.3463 56.5609 35.8432 55.9074C35.1318 54.9936 35.2938 53.6518 35.8104 52.6166C36.3271 51.5814 37.1387 50.7196 37.7228 49.7249C38.3069 48.7301 38.6481 47.4559 38.1315 46.4187C37.7131 45.5724 36.8418 45.0808 36.0707 44.5642C35.2995 44.0475 34.5149 43.3284 34.459 42.3954C34.3877 41.2387 35.448 40.0454 34.8716 39.0429C34.486 38.3798 33.4932 38.2564 32.859 38.6844C32.2247 39.1123 31.9433 39.9336 31.9934 40.697C32.0435 41.4604 32.379 42.1756 32.751 42.8407C32.907 43.074 33.0145 43.3362 33.0672 43.6118C33.0901 43.7498 33.0685 43.8915 33.0054 44.0163C32.9423 44.1411 32.841 44.2425 32.7163 44.3058C32.3655 44.4408 32.0011 44.1362 31.6271 44.1034C30.9697 44.0456 30.5341 44.8533 30.6439 45.5049C30.7538 46.1565 31.1934 46.6847 31.496 47.2631C31.7466 47.7489 31.9163 48.3947 31.6503 48.9094C31.4112 49.376 30.8309 49.4878 30.5495 49.9235C30.1215 50.5789 30.457 51.3809 30.3567 52.1134C30.1774 53.4629 29.5721 54.7854 29.3523 56.1618C29.1119 57.5114 29.1171 58.8933 29.3678 60.2411Z" fill="#232323"/>
<path d="M20.023 66.7935C19.4755 66.9053 18.9165 67.0808 18.5078 67.4625C18.0991 67.8442 17.8793 68.4765 18.1222 68.9816C18.4596 69.6872 19.4717 69.8221 19.8823 70.4834C20.4394 71.3663 19.6317 72.4806 19.6297 73.5254C19.6303 73.8837 19.7291 74.235 19.9156 74.5409C20.1021 74.8469 20.3689 75.0958 20.6871 75.2604C21.0053 75.4251 21.3626 75.4992 21.7201 75.4748C22.0775 75.4503 22.4214 75.3282 22.7142 75.1217C23.3889 74.6416 23.7032 73.7722 24.3567 73.269C25.2704 72.5577 26.6122 72.7196 27.6474 73.2363C28.6826 73.7529 29.5443 74.5645 30.5391 75.1486C31.5338 75.7328 32.8081 76.074 33.8452 75.5573C34.6915 75.139 35.1831 74.2676 35.6998 73.4965C36.2164 72.7254 36.9355 71.9408 37.8685 71.8849C39.0252 71.8135 40.2185 72.8738 41.2209 72.2974C41.8841 71.9119 42.0075 70.919 41.5795 70.2848C41.1515 69.6505 40.3303 69.3691 39.5669 69.4192C38.8035 69.4693 38.0883 69.8048 37.4232 70.1768C37.1899 70.3328 36.9277 70.4403 36.6521 70.493C36.5141 70.5159 36.3724 70.4943 36.2476 70.4312C36.1228 70.3681 36.0214 70.2668 35.9581 70.1421C35.8231 69.7913 36.1277 69.4269 36.1605 69.0529C36.2183 68.3955 35.4106 67.9599 34.759 68.0697C34.1074 68.1796 33.5792 68.6192 33.0009 68.9218C32.5151 69.1724 31.8693 69.3421 31.3545 69.0761C30.888 68.837 30.7762 68.2567 30.3405 67.9753C29.6851 67.5473 28.8831 67.8827 28.1506 67.7825C26.8011 67.6032 25.4786 66.9979 24.1022 66.7781C22.7526 66.5376 21.3707 66.5429 20.023 66.7935Z" fill="#232323"/>
<path d="M97.9126 60.2411C97.8008 60.7886 97.6253 61.3476 97.2436 61.7563C96.8619 62.165 96.2296 62.3848 95.7245 62.1419C95.019 61.8045 94.884 60.7924 94.2228 60.3818C93.3399 59.8247 92.2256 60.6324 91.1808 60.6343C90.8225 60.6338 90.4712 60.5349 90.1653 60.3485C89.8593 60.162 89.6104 59.8951 89.4458 59.5769C89.2811 59.2587 89.207 58.9014 89.2314 58.544C89.2559 58.1865 89.3781 57.8426 89.5846 57.5499C90.0646 56.8751 90.934 56.5609 91.4372 55.9074C92.1485 54.9936 91.9866 53.6518 91.4699 52.6166C90.9533 51.5814 90.1417 50.7196 89.5576 49.7249C88.9734 48.7301 88.6322 47.4559 89.1489 46.4187C89.5672 45.5724 90.4386 45.0808 91.2097 44.5642C91.9808 44.0475 92.7654 43.3284 92.8213 42.3954C92.8926 41.2387 91.8323 40.0454 92.4088 39.0429C92.7943 38.3798 93.7871 38.2564 94.4214 38.6844C95.0556 39.1123 95.3371 39.9336 95.2869 40.697C95.2368 41.4604 94.9014 42.1756 94.5293 42.8407C94.3734 43.074 94.2659 43.3362 94.2132 43.6118C94.1902 43.7498 94.2119 43.8915 94.275 44.0163C94.3381 44.1411 94.4393 44.2425 94.564 44.3058C94.9149 44.4408 95.2792 44.1362 95.6532 44.1034C96.3106 44.0456 96.7463 44.8533 96.6364 45.5049C96.5265 46.1565 96.087 46.6847 95.7843 47.2631C95.5337 47.7489 95.3641 48.3947 95.6301 48.9094C95.8691 49.376 96.4494 49.4878 96.7309 49.9235C97.1588 50.5789 96.8234 51.3809 96.9236 52.1134C97.1029 53.4629 97.7082 54.7854 97.928 56.1618C98.1685 57.5114 98.1633 58.8933 97.9126 60.2411Z" fill="#232323"/>
<path d="M29.3678 82.9406C29.4796 82.3931 29.655 81.834 30.0367 81.4253C30.4184 81.0166 31.0507 80.7969 31.5558 81.0398C32.2614 81.3771 32.3963 82.3892 33.0575 82.7998C33.9405 83.357 35.0547 82.5492 36.0996 82.5473C36.4579 82.5478 36.8091 82.6467 37.1151 82.8332C37.421 83.0196 37.6699 83.2865 37.8346 83.6047C37.9992 83.9229 38.0734 84.2802 38.0489 84.6377C38.0244 84.9951 37.9023 85.339 37.6958 85.6318C37.2158 86.3065 36.3463 86.6208 35.8432 87.2743C35.1318 88.1881 35.2938 89.5298 35.8104 90.565C36.3271 91.6003 37.1387 92.462 37.7228 93.4567C38.3069 94.4515 38.6481 95.7258 38.1315 96.7629C37.7131 97.6092 36.8418 98.1008 36.0707 98.6175C35.2995 99.1341 34.5149 99.8532 34.459 100.786C34.3877 101.943 35.448 103.136 34.8716 104.139C34.486 104.802 33.4932 104.925 32.859 104.497C32.2247 104.069 31.9433 103.248 31.9934 102.485C32.0435 101.721 32.379 101.006 32.751 100.341C32.907 100.108 33.0145 99.8454 33.0672 99.5698C33.0901 99.4319 33.0685 99.2902 33.0054 99.1654C32.9423 99.0406 32.841 98.9391 32.7163 98.8758C32.3655 98.7409 32.0011 99.0455 31.6271 99.0782C30.9697 99.1361 30.5341 98.3283 30.6439 97.6767C30.7538 97.0251 31.1934 96.4969 31.496 95.9186C31.7466 95.4327 31.9163 94.7869 31.6502 94.2722C31.4112 93.8057 30.8309 93.6939 30.5495 93.2582C30.1215 92.6027 30.457 91.8008 30.3567 91.0682C30.1774 89.7187 29.5721 88.3963 29.3523 87.0198C29.1119 85.6702 29.1171 84.2883 29.3678 82.9406Z" fill="#232323"/>
<path d="M93.7645 73.6828C93.8763 73.1353 94.0517 72.5762 94.4334 72.1675C94.8151 71.7588 95.4474 71.539 95.9525 71.7819C96.6581 72.1193 96.793 73.1314 97.4543 73.542C98.3372 74.0992 99.4514 73.2914 100.496 73.2895C100.855 73.29 101.206 73.3889 101.512 73.5753C101.818 73.7618 102.067 74.0287 102.231 74.3469C102.396 74.6651 102.47 75.0224 102.446 75.3799C102.421 75.7373 102.299 76.0812 102.093 76.374C101.612 77.0487 100.743 77.3629 100.24 78.0165C99.5286 78.9302 99.6905 80.272 100.207 81.3072C100.724 82.3425 101.535 83.2042 102.119 84.1989C102.704 85.1937 103.045 86.468 102.528 87.5051C102.11 88.3514 101.239 88.843 100.467 89.3597C99.6963 89.8763 98.9117 90.5954 98.8558 91.5284C98.7844 92.6851 99.8447 93.8784 99.2683 94.8809C98.8827 95.5441 97.8899 95.6674 97.2557 95.2395C96.6215 94.8115 96.34 93.9903 96.3901 93.2268C96.4402 92.4634 96.7757 91.7482 97.1477 91.0831C97.3037 90.8498 97.4112 90.5876 97.4639 90.312C97.4868 90.174 97.4652 90.0324 97.4021 89.9076C97.339 89.7827 97.2377 89.6813 97.113 89.618C96.7622 89.483 96.3978 89.7876 96.0238 89.8204C95.3665 89.8782 94.9308 89.0705 95.0407 88.4189C95.1506 87.7673 95.5901 87.2391 95.8928 86.6607C96.1434 86.1749 96.313 85.5291 96.047 85.0144C95.8079 84.5479 95.2277 84.4361 94.9462 84.0004C94.5182 83.3449 94.8537 82.543 94.7534 81.8104C94.5741 80.4609 93.9688 79.1384 93.7491 77.762C93.5086 76.4124 93.5138 75.0305 93.7645 73.6828Z" fill="#BBBBBB"/>
<path d="M95.5566 90.0929C95.4448 89.5454 95.2693 88.9864 94.8876 88.5777C94.5059 88.169 93.8736 87.9492 93.3685 88.1921C92.663 88.5295 92.528 89.5416 91.8668 89.9522C90.9839 90.5093 89.8696 89.7016 88.8247 89.6996C88.4665 89.7002 88.1152 89.799 87.8092 89.9855C87.5033 90.172 87.2544 90.4388 87.0898 90.757C86.9251 91.0753 86.8509 91.4326 86.8754 91.79C86.8999 92.1475 87.022 92.4913 87.2285 92.7841C87.7086 93.4589 88.578 93.7731 89.0811 94.4266C89.7925 95.3404 89.6306 96.6822 89.1139 97.7174C88.5973 98.7526 87.7857 99.6143 87.2015 100.609C86.6174 101.604 86.2762 102.878 86.7929 103.915C87.2112 104.762 88.0825 105.253 88.8537 105.77C89.6248 106.286 90.4094 107.006 90.4653 107.939C90.5366 109.095 89.4763 110.289 90.0527 111.291C90.4383 111.954 91.4311 112.078 92.0653 111.65C92.6996 111.222 92.981 110.4 92.9309 109.637C92.8808 108.874 92.5454 108.158 92.1733 107.493C92.0173 107.26 91.9098 106.998 91.8571 106.722C91.8342 106.584 91.8558 106.443 91.9189 106.318C91.982 106.193 92.0833 106.091 92.208 106.028C92.5589 105.893 92.9232 106.198 93.2972 106.231C93.9546 106.288 94.3903 105.481 94.2804 104.829C94.1705 104.177 93.731 103.649 93.4283 103.071C93.1777 102.585 93.008 101.939 93.2741 101.425C93.5131 100.958 94.0934 100.846 94.3748 100.411C94.8028 99.7551 94.4674 98.9531 94.5676 98.2205C94.7469 96.8711 95.3522 95.5486 95.572 94.1722C95.8125 92.8226 95.8072 91.4406 95.5566 90.0929Z" fill="#232323"/>
<path d="M69.5747 72.4514C69.7516 71.9213 69.8792 71.3494 69.753 70.8046C69.6267 70.2598 69.189 69.7534 68.6302 69.7112C67.8504 69.6506 67.2275 70.4596 66.4496 70.4846C65.4064 70.5256 64.8453 69.2689 63.9414 68.7448C63.6308 68.5661 63.2772 68.4761 62.919 68.4846C62.5608 68.4931 62.2118 68.5998 61.9101 68.7931C61.6084 68.9863 61.3655 69.2587 61.208 69.5805C61.0505 69.9023 60.9843 70.2611 61.0168 70.618C61.0951 71.4423 61.691 72.1492 61.7999 72.9667C61.9591 74.1137 61.148 75.1948 60.183 75.833C59.2179 76.4712 58.0842 76.8117 57.081 77.3811C56.0777 77.9505 55.1451 78.8834 55.0739 80.04C55.0131 80.9821 55.5219 81.8435 55.9314 82.6765C56.3409 83.5095 56.6608 84.5245 56.2427 85.3605C55.7262 86.3979 54.2113 86.9012 54.2092 88.0575C54.2116 88.8246 55.0097 89.4279 55.7729 89.3744C56.5362 89.3209 57.1905 88.7504 57.5288 88.0642C57.8671 87.378 57.9342 86.5909 57.9446 85.8289C57.9261 85.5489 57.9642 85.268 58.0563 85.003C58.1054 84.872 58.195 84.7602 58.3121 84.6836C58.4291 84.6071 58.5675 84.5699 58.7072 84.5774C59.0785 84.6359 59.2417 85.0819 59.5492 85.2973C60.0896 85.6761 60.8708 85.1944 61.1014 84.5751C61.3321 83.9559 61.2155 83.2787 61.2426 82.6265C61.2685 82.0804 61.4444 81.4363 61.9322 81.1236C62.3725 80.8391 62.9309 81.0324 63.3925 80.7958C64.0908 80.4421 64.2013 79.5799 64.6544 78.9956C65.4844 77.9166 66.6699 77.0739 67.5484 75.9918C68.4315 74.9433 69.1179 73.7439 69.5747 72.4514Z" fill="#232323"/>
<path d="M30.1504 33.2461C30.0285 33.5814 29.866 33.9006 29.6666 34.1965C29.6931 34.3271 29.7279 34.4558 29.7707 34.582C30.3259 36.2477 32.3096 37.1075 34.0523 36.88C35.3477 36.7103 38.0582 35.7349 38.2452 34.2216C38.2817 33.8129 38.2636 33.4012 38.1912 32.9974L30.2353 32.9974C30.2083 33.0803 30.1813 33.1632 30.1504 33.2461Z" fill="#232323"/>
<path d="M97.13 33.2461C97.2519 33.5814 97.4144 33.9006 97.6139 34.1965C97.5873 34.3271 97.5526 34.4558 97.5098 34.582C96.9546 36.2477 94.9709 37.1075 93.2282 36.88C91.9327 36.7103 89.2222 35.7349 89.0352 34.2216C88.9988 33.8129 89.0169 33.4012 89.0892 32.9974L97.0452 32.9974C97.0722 33.0803 97.0992 33.1632 97.13 33.2461Z" fill="#232323"/>
<path d="M30.1504 109.935C30.0285 109.599 29.866 109.28 29.6666 108.984C29.6931 108.854 29.7279 108.725 29.7707 108.599C30.3259 106.933 32.3096 106.073 34.0523 106.301C35.3477 106.47 38.0582 107.446 38.2452 108.959C38.2817 109.368 38.2636 109.779 38.1912 110.183L30.2353 110.183C30.2083 110.1 30.1813 110.017 30.1504 109.935Z" fill="#232323"/>
<path d="M97.1299 109.935C97.2518 109.599 97.4143 109.28 97.6138 108.984C97.5872 108.854 97.5525 108.725 97.5097 108.599C96.9545 106.933 94.9708 106.073 93.2281 106.301C91.9326 106.47 89.2221 107.446 89.0351 108.959C88.9986 109.368 89.0168 109.779 89.0891 110.183L97.0451 110.183C97.0721 110.1 97.0991 110.017 97.1299 109.935Z" fill="#232323"/>
<path d="M51.4732 33.626C51.4212 34.3702 51.8202 35.1837 52.5316 35.4112C53.2429 35.6387 54.0295 35.255 54.737 35.4767C55.805 35.8102 56.071 37.2599 57.0079 37.8711C57.8156 38.3954 59.0109 38.112 59.5892 37.3448C60.1675 36.5775 60.1868 35.4613 59.7415 34.6034C59.4196 33.9846 58.901 33.4988 58.4075 32.9976L51.6043 32.9976C51.5339 33.2006 51.4898 33.4118 51.4732 33.626Z" fill="#E85F0A"/>
<path d="M75.8066 33.626C75.8586 34.3702 75.4596 35.1837 74.7482 35.4112C74.0369 35.6387 73.2503 35.255 72.5428 35.4767C71.4748 35.8102 71.2088 37.2599 70.2719 37.8711C69.4642 38.3954 68.2689 38.112 67.6906 37.3448C67.1123 36.5775 67.093 35.4613 67.5383 34.6034C67.8602 33.9846 68.3788 33.4988 68.8723 32.9976L75.6755 32.9976C75.7459 33.2006 75.79 33.4118 75.8066 33.626Z" fill="#E85F0A"/>
<path d="M51.4732 109.556C51.4212 108.811 51.8202 107.998 52.5316 107.77C53.2429 107.543 54.0295 107.927 54.737 107.705C55.805 107.371 56.071 105.922 57.0079 105.311C57.8156 104.786 59.0109 105.07 59.5892 105.837C60.1675 106.604 60.1868 107.72 59.7415 108.578C59.4195 109.197 58.901 109.683 58.4075 110.184L51.6043 110.184C51.5339 109.981 51.4898 109.77 51.4732 109.556Z" fill="#E85F0A"/>
<path d="M75.8066 109.556C75.8586 108.811 75.4596 107.998 74.7482 107.77C74.0369 107.543 73.2503 107.927 72.5428 107.705C71.4748 107.371 71.2088 105.922 70.2719 105.311C69.4642 104.786 68.2689 105.07 67.6906 105.837C67.1123 106.604 67.093 107.72 67.5383 108.578C67.8602 109.197 68.3788 109.683 68.8723 110.184L75.6755 110.184C75.7459 109.981 75.79 109.77 75.8066 109.556Z" fill="#E85F0A"/>
<path d="M39.9644 34.6239C40.9282 35.075 42.0252 35.1039 43.0141 35.4914C44.3636 36.0197 45.4412 35.9078 46.808 35.4702C47.2448 35.3612 47.6569 35.1701 48.0225 34.9073C48.3695 34.622 48.6008 34.1574 48.4909 33.7236C48.3911 33.45 48.231 33.2022 48.0225 32.9988L38.5339 32.9988C38.7055 33.7063 39.2916 34.3058 39.9644 34.6239Z" fill="#BBBBBB"/>
<path d="M87.3154 34.6239C86.3515 35.075 85.2546 35.1039 84.2657 35.4914C82.9162 36.0197 81.8386 35.9078 80.4718 35.4702C80.035 35.3612 79.6229 35.1701 79.2573 34.9073C78.9103 34.622 78.679 34.1574 78.7888 33.7236C78.8887 33.45 79.0488 33.2022 79.2573 32.9988L88.7458 32.9988C88.5743 33.7063 87.9882 34.3058 87.3154 34.6239Z" fill="#BBBBBB"/>
<path d="M39.9644 108.56C40.9282 108.109 42.0252 108.08 43.0141 107.692C44.3636 107.164 45.4412 107.276 46.808 107.713C47.2448 107.822 47.6569 108.013 48.0225 108.276C48.3695 108.562 48.6008 109.026 48.4909 109.46C48.3911 109.734 48.231 109.981 48.0225 110.185L38.5339 110.185C38.7055 109.477 39.2916 108.878 39.9644 108.56Z" fill="#BBBBBB"/>
<path d="M87.3154 108.56C86.3515 108.109 85.2546 108.08 84.2656 107.692C82.9162 107.164 81.8385 107.276 80.4717 107.713C80.0349 107.822 79.6228 108.013 79.2572 108.276C78.9102 108.562 78.6789 109.026 78.7888 109.46C78.8886 109.734 79.0487 109.981 79.2572 110.185L88.7458 110.185C88.5742 109.477 87.9882 108.878 87.3154 108.56Z" fill="#BBBBBB"/>
<path d="M25.4173 51.4791C25.4392 51.4791 25.461 51.4842 25.4829 51.4945C26.1557 51.6352 26.948 51.3692 27.2179 50.7426C27.4106 50.3205 27.3258 49.8327 27.2487 49.3778L27.1909 49.025C26.9807 47.7044 26.8709 46.2991 27.5437 45.1694C28.043 44.3269 28.8931 43.7679 29.5254 43.0141C30.167 42.2375 30.5468 41.278 30.6108 40.2727C30.6532 39.5691 30.4585 38.7478 29.8204 38.4529C28.9914 38.0673 28.0854 38.8385 27.6208 39.6096C27.0881 40.5143 26.7739 41.5309 26.7031 42.5784C26.6781 42.964 26.6819 43.3495 26.5239 43.6946C26.3658 44.0397 25.986 44.3211 25.6217 44.217C25.2573 44.1129 25.0973 43.7216 24.972 43.3746L24.8891 43.1201L24.8891 51.267C25.0551 51.3605 25.2327 51.4318 25.4173 51.4791Z" fill="#232323"/>
<path d="M101.862 51.4791C101.841 51.4791 101.819 51.4842 101.797 51.4945C101.124 51.6352 100.332 51.3692 100.062 50.7426C99.8691 50.3205 99.954 49.8327 100.031 49.3778L100.089 49.025C100.299 47.7044 100.409 46.2991 99.7361 45.1694C99.2368 44.3269 98.3867 43.7679 97.7544 43.0141C97.1128 42.2375 96.733 41.278 96.669 40.2727C96.6266 39.5691 96.8213 38.7478 97.4594 38.4529C98.2884 38.0673 99.1944 38.8385 99.659 39.6096C100.192 40.5143 100.506 41.5309 100.577 42.5784C100.602 42.964 100.598 43.3495 100.756 43.6946C100.914 44.0397 101.294 44.3211 101.658 44.217C102.022 44.1129 102.182 43.7216 102.308 43.3746L102.391 43.1201L102.391 51.267C102.225 51.3605 102.047 51.4318 101.862 51.4791Z" fill="#232323"/>
<path d="M25.4173 91.7026C25.4392 91.7026 25.461 91.6974 25.4829 91.6872C26.1557 91.5464 26.948 91.8125 27.2179 92.439C27.4106 92.8612 27.3258 93.3489 27.2487 93.8039L27.1909 94.1567C26.9807 95.4772 26.8709 96.8826 27.5437 98.0123C28.043 98.8547 28.8931 99.4138 29.5254 100.168C30.167 100.944 30.5468 101.904 30.6108 102.909C30.6532 103.613 30.4585 104.434 29.8204 104.729C28.9914 105.114 28.0854 104.343 27.6208 103.572C27.0881 102.667 26.7739 101.651 26.7031 100.603C26.6781 100.218 26.6819 99.8321 26.5239 99.487C26.3658 99.142 25.986 98.8605 25.6217 98.9646C25.2573 99.0687 25.0973 99.4601 24.972 99.8071L24.8891 100.062L24.8891 91.9146C25.0551 91.8211 25.2327 91.7498 25.4173 91.7026Z" fill="#232323"/>
<path d="M101.862 91.7026C101.841 91.7026 101.819 91.6974 101.797 91.6872C101.124 91.5464 100.332 91.8125 100.062 92.439C99.8691 92.8612 99.9539 93.3489 100.031 93.8039L100.089 94.1567C100.299 95.4772 100.409 96.8826 99.7361 98.0123C99.2368 98.8547 98.3866 99.4138 97.7543 100.168C97.1128 100.944 96.7329 101.904 96.669 102.909C96.6265 103.613 96.8213 104.434 97.4594 104.729C98.2883 105.114 99.1944 104.343 99.659 103.572C100.192 102.667 100.506 101.651 100.577 100.603C100.602 100.218 100.598 99.8321 100.756 99.487C100.914 99.142 101.294 98.8605 101.658 98.9646C102.022 99.0687 102.182 99.4601 102.308 99.8071L102.391 100.062L102.391 91.9146C102.225 91.8211 102.047 91.7498 101.862 91.7026Z" fill="#232323"/>
<path d="M27.0868 36.06C28.1412 35.7669 29.0561 35.1064 29.6661 34.1978C29.8656 33.9019 30.0281 33.5827 30.15 33.2474C30.1789 33.1664 30.2079 33.0835 30.2329 32.9987L24.8891 32.9987L24.8891 35.9444C25.5892 36.2226 26.3613 36.2632 27.0868 36.06Z" fill="#E85F0A"/>
<path d="M100.193 36.06C99.1386 35.7669 98.2237 35.1064 97.6136 34.1978C97.4142 33.9019 97.2517 33.5827 97.1298 33.2474C97.1008 33.1664 97.0719 33.0835 97.0469 32.9987L102.391 32.9987L102.391 35.9444C101.691 36.2226 100.918 36.2632 100.193 36.06Z" fill="#E85F0A"/>
<path d="M27.0868 107.124C28.1412 107.417 29.0561 108.077 29.6661 108.986C29.8656 109.282 30.0281 109.601 30.15 109.936C30.1789 110.017 30.2079 110.1 30.2329 110.185L24.8891 110.185L24.8891 107.239C25.5892 106.961 26.3613 106.92 27.0868 107.124Z" fill="#E85F0A"/>
<path d="M100.193 107.124C99.1385 107.417 98.2236 108.077 97.6136 108.986C97.4141 109.282 97.2516 109.601 97.1297 109.936C97.1008 110.017 97.0719 110.1 97.0468 110.185L102.391 110.185L102.391 107.239C101.691 106.961 100.918 106.92 100.193 107.124Z" fill="#E85F0A"/>
<path d="M50.8169 53.9829C50.9075 55.128 50.6858 56.2789 50.7417 57.4279C50.7976 58.5768 51.2236 59.8126 52.2261 60.3774C52.5967 60.5856 53.0186 60.6851 53.4432 60.6643C53.8678 60.6435 54.2779 60.5034 54.6265 60.2599C54.975 60.0165 55.2478 59.6797 55.4134 59.2882C55.5791 58.8967 55.631 58.4664 55.5631 58.0467C55.4359 57.2621 54.9057 56.5951 54.7264 55.822C54.4373 54.5767 55.0889 53.3274 55.7019 52.2035C56.3149 51.0796 56.9299 49.7996 56.5694 48.5735C56.2301 47.4168 55.1178 46.6553 54.6609 45.5468C53.9688 43.8677 54.9423 42.0228 55.3934 40.2627C55.646 39.2776 55.7289 38.2134 55.3934 37.2553C55.058 36.2972 54.2194 35.4702 53.2073 35.3545C52.1953 35.2388 51.1041 36.0023 51.0521 37.0182C51.0154 37.7296 51.4376 38.3677 51.7904 38.9884C52.1875 39.6998 52.5056 40.4805 52.5056 41.3018C52.5056 42.123 52.1336 42.9655 51.4241 43.3645C50.8362 43.6961 49.9918 43.7771 49.7585 44.4113C49.6043 44.8297 49.8144 45.2904 50.067 45.6567C50.3195 46.023 50.628 46.3796 50.6993 46.8134C50.7706 47.2471 50.4564 47.7889 50.013 47.7407C49.8188 47.6944 49.6364 47.6084 49.4771 47.4881C49.0866 47.2579 48.6287 47.1697 48.1807 47.2383C47.7326 47.3069 47.3221 47.5282 47.0185 47.8647C46.7148 48.2012 46.5368 48.6323 46.5144 49.085C46.4921 49.5377 46.6268 49.9842 46.8958 50.349C47.6013 51.3129 48.5074 50.829 49.3845 51.2319C50.3311 51.6637 50.7321 53.0498 50.8169 53.9829Z" fill="#BBBBBB"/>
<path d="M23.0754 70.7827C23.166 71.9278 22.9443 73.0787 23.0002 74.2277C23.0562 75.3766 23.4822 76.6124 24.4846 77.1772C24.8553 77.3854 25.2771 77.4849 25.7017 77.4641C26.1263 77.4433 26.5365 77.3032 26.885 77.0597C27.2335 76.8163 27.5063 76.4795 27.672 76.088C27.8377 75.6965 27.8895 75.2662 27.8216 74.8465C27.6944 74.0619 27.1643 73.3949 26.985 72.6218C26.6958 71.3765 27.3474 70.1272 27.9604 69.0033C28.5735 67.8794 29.1884 66.5994 28.8279 65.3733C28.4886 64.2166 27.3763 63.4551 26.9194 62.3466C26.2274 60.6675 27.2009 58.8226 27.652 57.0625C27.9045 56.0774 27.9874 55.0133 27.652 54.0551C27.3166 53.097 26.478 52.27 25.4659 52.1543C24.4538 52.0387 23.3627 52.8021 23.3106 53.818C23.274 54.5294 23.6962 55.1675 24.049 55.7882C24.4461 56.4996 24.7642 57.2804 24.7642 58.1016C24.7642 58.9228 24.3921 59.7653 23.6827 60.1643C23.0947 60.4959 22.2503 60.5769 22.0171 61.2111C21.8629 61.6295 22.073 62.0902 22.3255 62.4565C22.5781 62.8228 22.8865 63.1794 22.9578 63.6132C23.0292 64.0469 22.7149 64.5887 22.2715 64.5405C22.0774 64.4942 21.8949 64.4082 21.7356 64.2879C21.3452 64.0577 20.8872 63.9695 20.4392 64.0381C19.9912 64.1067 19.5806 64.328 19.277 64.6645C18.9734 65.001 18.7953 65.4321 18.773 65.8848C18.7506 66.3375 18.8853 66.784 19.1543 67.1488C19.8599 68.1127 20.7659 67.6288 21.6431 68.0317C22.5896 68.4635 22.9906 69.8496 23.0754 70.7827Z" fill="#BBBBBB"/>
<path d="M44.9475 81.3325C44.8569 82.4776 45.0786 83.6285 45.0227 84.7775C44.9668 85.9265 44.5408 87.1622 43.5383 87.727C43.1677 87.9352 42.7458 88.0347 42.3212 88.0139C41.8966 87.9931 41.4865 87.853 41.1379 87.6095C40.7894 87.3661 40.5166 87.0293 40.351 86.6378C40.1853 86.2463 40.1334 85.816 40.2013 85.3963C40.3285 84.6117 40.8587 83.9447 41.038 83.1716C41.3271 81.9263 40.6756 80.677 40.0625 79.5531C39.4495 78.4292 38.8345 77.1492 39.195 75.9231C39.5343 74.7664 40.6466 74.0049 41.1035 72.8964C41.7956 71.2173 40.8221 69.3724 40.371 67.6123C40.1184 66.6272 40.0355 65.5631 40.371 64.6049C40.7064 63.6468 41.545 62.8198 42.5571 62.7041C43.5692 62.5885 44.6603 63.3519 44.7123 64.3678C44.749 65.0792 44.3268 65.7173 43.974 66.338C43.5769 67.0494 43.2588 67.8302 43.2588 68.6514C43.2588 69.4726 43.6308 70.3151 44.3403 70.7141C44.9282 71.0457 45.7726 71.1267 46.0059 71.7609C46.1601 72.1793 45.95 72.64 45.6974 73.0063C45.4449 73.3726 45.1364 73.7292 45.0651 74.163C44.9938 74.5967 45.308 75.1385 45.7514 75.0903C45.9456 75.044 46.128 74.958 46.2873 74.8377C46.6778 74.6075 47.1357 74.5193 47.5837 74.5879C48.0318 74.6565 48.4423 74.8778 48.7459 75.2143C49.0496 75.5508 49.2276 75.9819 49.25 76.4346C49.2723 76.8873 49.1376 77.3338 48.8686 77.6986C48.1631 78.6625 47.257 78.1786 46.3799 78.5815C45.4333 79.0133 45.0323 80.3994 44.9475 81.3325Z" fill="#BBBBBB"/>
<path d="M64.1016 85.0064C64.1922 83.8613 63.9705 82.7104 64.0264 81.5614C64.0823 80.4124 64.5084 79.1767 65.5108 78.6118C65.8815 78.4036 66.3033 78.3042 66.7279 78.325C67.1525 78.3458 67.5627 78.4859 67.9112 78.7293C68.2597 78.9728 68.5325 79.3096 68.6982 79.7011C68.8639 80.0926 68.9157 80.5229 68.8478 80.9426C68.7206 81.7272 68.1904 82.3942 68.0112 83.1672C67.722 84.4126 68.3736 85.6618 68.9866 86.7857C69.5997 87.9096 70.2146 89.1897 69.8541 90.4158C69.5148 91.5725 68.4025 92.334 67.9456 93.4424C67.2535 95.1216 68.2271 96.9665 68.6782 98.7266C68.9307 99.7117 69.0136 100.776 68.6782 101.734C68.3427 102.692 67.5042 103.519 66.4921 103.635C65.48 103.75 64.3889 102.987 64.3368 101.971C64.3002 101.26 64.7224 100.622 65.0751 100.001C65.4723 99.2895 65.7904 98.5087 65.7904 97.6875C65.7904 96.8662 65.4183 96.0238 64.7089 95.6247C64.1209 95.2931 63.2765 95.2122 63.0433 94.5779C62.889 94.1596 63.0992 93.6988 63.3517 93.3326C63.6042 92.9663 63.9127 92.6096 63.984 92.1759C64.0553 91.7421 63.7411 91.2004 63.2977 91.2486C63.1036 91.2949 62.9211 91.3809 62.7618 91.5011C62.3714 91.7313 61.9134 91.8196 61.4654 91.751C61.0174 91.6824 60.6068 91.4611 60.3032 91.1246C59.9996 90.7881 59.8215 90.357 59.7991 89.9043C59.7768 89.4516 59.9115 89.0051 60.1805 88.6403C60.8861 87.6764 61.7921 88.1603 62.6693 87.7573C63.6158 87.3255 64.0168 85.9394 64.1016 85.0064Z" fill="#E85F0A"/>
<path d="M78.9484 40.4634C79.039 39.3183 78.8173 38.1674 78.8732 37.0184C78.9291 35.8694 79.3551 34.6337 80.3576 34.0689C80.7282 33.8607 81.1501 33.7612 81.5747 33.782C81.9993 33.8028 82.4094 33.9429 82.7579 34.1864C83.1065 34.4298 83.3792 34.7666 83.5449 35.1581C83.7106 35.5496 83.7625 35.9799 83.6946 36.3996C83.5673 37.1842 83.0372 37.8512 82.8579 38.6243C82.5687 39.8696 83.2203 41.1189 83.8334 42.2428C84.4464 43.3667 85.0614 44.6467 84.7009 45.8728C84.3616 47.0295 83.2492 47.791 82.7924 48.8995C82.1003 50.5786 83.0738 52.4235 83.5249 54.1836C83.7775 55.1687 83.8603 56.2328 83.5249 57.191C83.1895 58.1491 82.3509 58.9761 81.3388 59.0918C80.3267 59.2074 79.2356 58.444 79.1835 57.4281C79.1469 56.7167 79.5691 56.0786 79.9219 55.4579C80.319 54.7465 80.6371 53.9657 80.6371 53.1445C80.6371 52.3233 80.265 51.4808 79.5556 51.0817C78.9676 50.7502 78.1233 50.6692 77.89 50.035C77.7358 49.6166 77.9459 49.1559 78.1984 48.7896C78.451 48.4233 78.7594 48.0667 78.8308 47.6329C78.9021 47.1992 78.5879 46.6574 78.1445 46.7056C77.9503 46.7519 77.7678 46.8379 77.6085 46.9582C77.2181 47.1884 76.7601 47.2766 76.3121 47.208C75.8641 47.1394 75.4536 46.9181 75.1499 46.5816C74.8463 46.2451 74.6682 45.814 74.6459 45.3613C74.6235 44.9086 74.7582 44.4621 75.0272 44.0973C75.7328 43.1334 76.6389 43.6173 77.516 43.2144C78.4625 42.7826 78.8635 41.3965 78.9484 40.4634Z" fill="#E85F0A"/>
<path d="M77.3777 67.815C77.2871 66.6698 77.5088 65.5189 77.4529 64.37C77.397 63.221 76.9709 61.9853 75.9685 61.4204C75.5979 61.2122 75.176 61.1128 74.7514 61.1336C74.3268 61.1543 73.9166 61.2945 73.5681 61.5379C73.2196 61.7814 72.9468 62.1182 72.7811 62.5097C72.6155 62.9012 72.5636 63.3315 72.6315 63.7512C72.7587 64.5358 73.2889 65.2028 73.4681 65.9758C73.7573 67.2212 73.1057 68.4704 72.4927 69.5943C71.8797 70.7182 71.2647 71.9983 71.6252 73.2244C71.9645 74.3811 73.0768 75.1425 73.5337 76.251C74.2258 77.9302 73.2522 79.7751 72.8011 81.5351C72.5486 82.5203 72.4657 83.5844 72.8011 84.5425C73.1366 85.5006 73.9752 86.3277 74.9872 86.4433C75.9993 86.559 77.0905 85.7956 77.1425 84.7796C77.1791 84.0683 76.7569 83.4302 76.4042 82.8094C76.007 82.0981 75.689 81.3173 75.689 80.4961C75.689 79.6748 76.061 78.8324 76.7704 78.4333C77.3584 78.1017 78.2028 78.0208 78.436 77.3865C78.5903 76.9682 78.3801 76.5074 78.1276 76.1412C77.8751 75.7749 77.5666 75.4182 77.4953 74.9845C77.424 74.5507 77.7382 74.009 78.1816 74.0572C78.3757 74.1035 78.5582 74.1895 78.7175 74.3097C79.1079 74.5399 79.5659 74.6282 80.0139 74.5596C80.4619 74.491 80.8725 74.2697 81.1761 73.9332C81.4797 73.5966 81.6578 73.1656 81.6802 72.7129C81.7025 72.2602 81.5678 71.8137 81.2988 71.4489C80.5932 70.485 79.6872 70.9689 78.81 70.5659C77.8635 70.1341 77.4625 68.748 77.3777 67.815Z" fill="#BBBBBB"/>
<path d="M62.3835 39.5826C61.9969 40.9787 62.0521 42.4603 62.5415 43.8237C63.0794 45.3081 64.1416 46.7501 63.837 48.3001C63.7213 48.8919 63.33 49.4915 62.7362 49.5956C62.1926 49.692 61.6509 49.3334 61.3579 48.8669C61.0649 48.4003 60.9723 47.8374 60.8836 47.2938C61.0938 46.7752 60.7776 46.3761 60.5212 45.8788C60.2648 45.3814 59.9429 44.8975 59.8677 44.3365C59.7848 43.6734 60.0836 43.0314 60.2301 42.3798C60.448 41.4159 60.3342 40.4077 60.3265 39.4168C60.3188 38.4259 60.4403 37.3752 61.0456 36.5906C61.7087 35.7308 63.1122 35.3626 63.8794 36.2243C63.9689 36.3208 64.0341 36.4373 64.0696 36.564C64.1051 36.6907 64.11 36.8241 64.0838 36.953C63.97 37.4562 63.4283 37.4812 63.1199 37.7839C62.9893 37.9343 62.9043 38.1189 62.8749 38.3159C62.8456 38.513 62.873 38.7143 62.9541 38.8963C62.9814 38.9625 63.013 39.0269 63.0486 39.089C63.0964 39.1741 63.1125 39.2734 63.0938 39.3691C63.0751 39.4649 63.0229 39.5509 62.9465 39.6117C62.8702 39.6725 62.7747 39.7041 62.6772 39.7009C62.5797 39.6977 62.4865 39.6598 62.4143 39.5941L62.3835 39.5826Z" fill="#232323"/>
<path d="M40.3599 43.4086C40.5527 44.2105 40.5739 45.0414 40.7185 45.853C40.8631 46.6646 41.1407 47.4897 41.7306 48.0642C42.3205 48.6387 43.2825 48.8912 43.9938 48.4729C45.1505 47.7924 45.0387 45.8781 46.1915 45.1956C47.3443 44.5132 48.7651 45.5156 50.0933 45.4135C50.6952 45.3448 51.2495 45.0531 51.647 44.596C52.0445 44.1389 52.2564 43.5495 52.2409 42.944C52.1869 42.0803 51.6626 41.2398 51.8553 40.3993C52.0481 39.5992 52.8308 39.1134 53.4535 38.5756C54.0761 38.0377 54.6101 37.1316 54.1822 36.4299C53.7966 35.7937 52.8134 35.7918 52.1792 36.1889C51.545 36.5861 51.144 37.255 50.6717 37.8372C50.1994 38.4194 49.5555 38.963 48.8075 38.938C48.1231 38.9148 47.5583 38.4271 46.9992 38.03C46.4402 37.6329 45.7057 37.2993 45.0927 37.6039C44.4102 37.9432 44.2618 38.8801 43.668 39.3582C43.4422 39.5209 43.1812 39.6281 42.9062 39.6709C42.6312 39.7138 42.3499 39.6912 42.0853 39.605C41.5575 39.4269 41.0719 39.1421 40.6588 38.7683C40.1132 38.3172 39.6062 37.8179 39.0201 37.4189C38.4341 37.0198 37.7459 36.7326 37.0403 36.7692C36.1959 36.8116 35.1993 37.4921 35.3304 38.4445C35.4383 39.2272 36.0359 39.1867 36.6798 39.3235C38.596 39.7457 39.9262 41.5694 40.3599 43.4086Z" fill="#BBBBBB"/>
<path d="M86.9205 43.4086C86.7277 44.2105 86.7065 45.0414 86.5619 45.853C86.4174 46.6646 86.1398 47.4897 85.5499 48.0642C84.96 48.6387 83.998 48.8912 83.2866 48.4729C82.13 47.7924 82.2418 45.8781 81.089 45.1956C79.9361 44.5132 78.5154 45.5156 77.1871 45.4135C76.5853 45.3448 76.031 45.0531 75.6335 44.596C75.236 44.1389 75.0241 43.5495 75.0396 42.944C75.0935 42.0803 75.6179 41.2398 75.4251 40.3993C75.2323 39.5992 74.4497 39.1134 73.827 38.5756C73.2043 38.0377 72.6703 37.1316 73.0983 36.4299C73.4838 35.7937 74.467 35.7918 75.1013 36.1889C75.7355 36.5861 76.1365 37.255 76.6088 37.8372C77.0811 38.4194 77.725 38.963 78.473 38.938C79.1573 38.9148 79.7222 38.4271 80.2812 38.03C80.8403 37.6329 81.5748 37.2993 82.1878 37.6039C82.8702 37.9432 83.0187 38.8801 83.6124 39.3582C83.8383 39.5209 84.0993 39.6281 84.3743 39.6709C84.6493 39.7138 84.9305 39.6912 85.1951 39.605C85.723 39.4269 86.2086 39.1421 86.6217 38.7683C87.1673 38.3172 87.6743 37.8179 88.2603 37.4189C88.8464 37.0198 89.5346 36.7326 90.2402 36.7692C91.0845 36.8116 92.0812 37.4921 91.9501 38.4445C91.8421 39.2272 91.2445 39.1867 90.6006 39.3235C88.6844 39.7457 87.3543 41.5694 86.9205 43.4086Z" fill="#BBBBBB"/>
<path d="M40.3599 99.7741C40.5527 98.9721 40.5739 98.1412 40.7185 97.3296C40.8631 96.518 41.1407 95.6929 41.7306 95.1184C42.3205 94.5439 43.2825 94.2914 43.9938 94.7097C45.1505 95.3902 45.0387 97.3045 46.1915 97.987C47.3443 98.6694 48.7651 97.667 50.0933 97.7691C50.6952 97.8379 51.2495 98.1295 51.647 98.5866C52.0445 99.0437 52.2564 99.6331 52.2409 100.239C52.1869 101.102 51.6626 101.943 51.8553 102.783C52.0481 103.583 52.8308 104.069 53.4535 104.607C54.0761 105.145 54.6101 106.051 54.1822 106.753C53.7966 107.389 52.8134 107.391 52.1792 106.994C51.545 106.597 51.144 105.928 50.6717 105.345C50.1994 104.763 49.5555 104.22 48.8075 104.245C48.1231 104.268 47.5583 104.756 46.9992 105.153C46.4402 105.55 45.7057 105.883 45.0927 105.579C44.4102 105.239 44.2618 104.302 43.668 103.824C43.4422 103.662 43.1812 103.555 42.9062 103.512C42.6312 103.469 42.3499 103.491 42.0853 103.578C41.5575 103.756 41.0719 104.041 40.6588 104.414C40.1132 104.865 39.6062 105.365 39.0201 105.764C38.4341 106.163 37.7459 106.45 37.0403 106.413C36.1959 106.371 35.1993 105.69 35.3304 104.738C35.4383 103.955 36.0359 103.996 36.6798 103.859C38.596 103.437 39.9262 101.613 40.3599 99.7741Z" fill="#BBBBBB"/>
<path d="M86.9204 99.7741C86.7277 98.9721 86.7065 98.1412 86.5619 97.3296C86.4173 96.518 86.1397 95.6929 85.5498 95.1184C84.9599 94.5439 83.9979 94.2914 83.2866 94.7097C82.1299 95.3902 82.2417 97.3045 81.0889 97.987C79.9361 98.6694 78.5153 97.667 77.1871 97.7691C76.5852 97.8379 76.0309 98.1295 75.6334 98.5866C75.2359 99.0437 75.024 99.6331 75.0395 100.239C75.0935 101.102 75.6178 101.943 75.4251 102.783C75.2323 103.583 74.4496 104.069 73.8269 104.607C73.2043 105.145 72.6703 106.051 73.0982 106.753C73.4838 107.389 74.467 107.391 75.1012 106.994C75.7354 106.597 76.1364 105.928 76.6087 105.345C77.081 104.763 77.7249 104.22 78.4729 104.245C79.1573 104.268 79.7221 104.756 80.2812 105.153C80.8402 105.55 81.5747 105.883 82.1877 105.579C82.8702 105.239 83.0186 104.302 83.6124 103.824C83.8382 103.662 84.0992 103.555 84.3742 103.512C84.6492 103.469 84.9304 103.491 85.1951 103.578C85.7229 103.756 86.2085 104.041 86.6216 104.414C87.1672 104.865 87.6742 105.365 88.2603 105.764C88.8463 106.163 89.5345 106.45 90.2401 106.413C91.0845 106.371 92.0811 105.69 91.95 104.738C91.8421 103.955 91.2445 103.996 90.6006 103.859C88.6844 103.437 87.3542 101.613 86.9204 99.7741Z" fill="#BBBBBB"/>
<path d="M43.3153 40.3236C43.4483 41.0947 43.4367 41.9198 43.7991 42.6157C44.1616 43.3117 45.1042 43.7994 45.7423 43.3425C46.2339 42.9917 46.2918 42.2649 46.1105 41.6885C45.9293 41.1121 45.5669 40.6089 45.3568 40.0421C45.1467 39.4753 45.1332 38.7621 45.5688 38.3437C45.9544 37.9717 46.5578 37.9582 47.032 37.7075C47.3932 37.5198 47.6699 37.2022 47.8063 36.8187C47.9427 36.4351 47.9288 36.0141 47.7672 35.6405C47.6057 35.2668 47.3086 34.9682 46.9357 34.8048C46.5629 34.6415 46.142 34.6254 45.7578 34.7599C45.1062 34.9855 44.6011 35.6217 43.9109 35.6332C43.269 35.6448 42.7716 35.1089 42.2357 34.7561C41.6381 34.3705 40.1653 33.8847 39.4982 34.3956C38.7156 34.9951 39.4982 35.639 40.0438 35.9667C41.6901 36.9538 42.9798 38.3649 43.3153 40.3236Z" fill="#232323"/>
<path d="M27.0866 61.0277C27.2196 61.7988 27.2081 62.6239 27.5705 63.3198C27.9329 64.0158 28.8756 64.5035 29.5137 64.0466C30.0053 63.6958 30.0631 62.969 29.8819 62.3926C29.7007 61.8162 29.3383 61.313 29.1281 60.7462C28.918 60.1794 28.9045 59.4662 29.3402 59.0478C29.7258 58.6758 30.3292 58.6623 30.8034 58.4116C31.1646 58.2239 31.4413 57.9063 31.5777 57.5228C31.7141 57.1392 31.7001 56.7182 31.5386 56.3446C31.3771 55.9709 31.08 55.6723 30.7071 55.5089C30.3342 55.3456 29.9133 55.3295 29.5291 55.464C28.8775 55.6896 28.3725 56.3258 27.6823 56.3373C27.0404 56.3489 26.543 55.813 26.0071 55.4602C25.4094 55.0746 23.9366 54.5888 23.2696 55.0997C22.4869 55.6992 23.2696 56.3431 23.8152 56.6708C25.4615 57.6579 26.7512 59.069 27.0866 61.0277Z" fill="#232323"/>
<path d="M83.9652 40.3236C83.8322 41.0947 83.8438 41.9198 83.4813 42.6157C83.1189 43.3117 82.1762 43.7994 81.5381 43.3425C81.0465 42.9917 80.9887 42.2649 81.1699 41.6885C81.3511 41.1121 81.7135 40.6089 81.9237 40.0421C82.1338 39.4753 82.1473 38.7621 81.7116 38.3437C81.3261 37.9717 80.7227 37.9582 80.2484 37.7075C79.8872 37.5198 79.6106 37.2022 79.4741 36.8187C79.3377 36.4351 79.3517 36.0141 79.5132 35.6405C79.6748 35.2668 79.9719 34.9682 80.3447 34.8048C80.7176 34.6415 81.1385 34.6254 81.5227 34.7599C82.1743 34.9855 82.6794 35.6217 83.3695 35.6332C84.0115 35.6448 84.5088 35.1089 85.0448 34.7561C85.6424 34.3705 87.1152 33.8847 87.7822 34.3956C88.5649 34.9951 87.7822 35.639 87.2367 35.9667C85.5903 36.9538 84.3006 38.3649 83.9652 40.3236Z" fill="#232323"/>
<path d="M43.3153 102.859C43.4483 102.088 43.4367 101.263 43.7991 100.567C44.1616 99.8709 45.1042 99.3832 45.7423 99.8401C46.2339 100.191 46.2918 100.918 46.1105 101.494C45.9293 102.071 45.5669 102.574 45.3568 103.14C45.1467 103.707 45.1332 104.421 45.5688 104.839C45.9544 105.211 46.5578 105.224 47.032 105.475C47.3932 105.663 47.6699 105.98 47.8063 106.364C47.9427 106.748 47.9288 107.168 47.7672 107.542C47.6057 107.916 47.3086 108.214 46.9357 108.378C46.5629 108.541 46.142 108.557 45.7578 108.423C45.1062 108.197 44.6011 107.561 43.9109 107.549C43.269 107.538 42.7716 108.074 42.2357 108.427C41.6381 108.812 40.1653 109.298 39.4982 108.787C38.7156 108.187 39.4982 107.544 40.0438 107.216C41.6901 106.229 42.9798 104.818 43.3153 102.859Z" fill="#232323"/>
<path d="M51.702 40.1022C51.8351 39.3311 51.8235 38.506 52.1859 37.81C52.5483 37.1141 53.491 36.6264 54.1291 37.0833C54.6207 37.4341 54.6785 38.1609 54.4973 38.7373C54.3161 39.3137 53.9537 39.8169 53.7436 40.3837C53.5334 40.9504 53.5199 41.6637 53.9556 42.0821C54.3412 42.4541 54.9446 42.4676 55.4188 42.7182C55.78 42.906 56.0567 43.2236 56.1931 43.6071C56.3295 43.9907 56.3155 44.4117 56.154 44.7853C55.9925 45.159 55.6954 45.4576 55.3225 45.6209C54.9497 45.7843 54.5287 45.8004 54.1445 45.6658C53.4929 45.4403 52.9879 44.8041 52.2977 44.7926C51.6558 44.781 51.1584 45.3169 50.6225 45.6697C50.0249 46.0553 48.552 46.5411 47.885 46.0302C47.1023 45.4307 47.885 44.7868 48.4306 44.459C50.0769 43.472 51.3666 42.0609 51.702 40.1022Z" fill="#232323"/>
<path d="M83.9651 102.859C83.8321 102.088 83.8437 101.263 83.4813 100.567C83.1188 99.8709 82.1762 99.3832 81.5381 99.8401C81.0465 100.191 80.9886 100.918 81.1699 101.494C81.3511 102.071 81.7135 102.574 81.9236 103.14C82.1337 103.707 82.1472 104.421 81.7116 104.839C81.326 105.211 80.7226 105.224 80.2484 105.475C79.8872 105.663 79.6105 105.98 79.4741 106.364C79.3377 106.748 79.3516 107.168 79.5132 107.542C79.6747 107.916 79.9718 108.214 80.3447 108.378C80.7175 108.541 81.1384 108.557 81.5226 108.423C82.1742 108.197 82.6793 107.561 83.3695 107.549C84.0114 107.538 84.5088 108.074 85.0447 108.427C85.6423 108.812 87.1151 109.298 87.7822 108.787C88.5648 108.187 87.7822 107.544 87.2366 107.216C85.5903 106.229 84.3006 104.818 83.9651 102.859Z" fill="#232323"/>
<path d="M43.2515 53.1449C43.026 53.5941 42.8082 54.0664 42.8043 54.5696C42.8004 55.0727 43.0684 55.6106 43.5465 55.7648C44.0805 55.9383 44.6415 55.5894 45.0482 55.2C45.455 54.8106 45.8386 54.344 46.3823 54.2014C46.9972 54.0414 47.6238 54.3402 48.2272 54.5387C48.8306 54.7373 49.6017 54.7913 49.9969 54.2939C50.5424 53.6057 49.8985 52.5165 50.2995 51.7357C50.7005 50.955 51.8418 50.9993 52.7189 50.8335C53.392 50.696 54.0118 50.3689 54.505 49.8907C54.9982 49.4125 55.3444 48.8031 55.5026 48.1346C55.7108 47.2015 55.3792 46.0236 54.4655 45.7422C53.812 45.5494 53.0948 45.8771 52.6283 46.3745C52.1618 46.8719 51.8822 47.5119 51.5603 48.1095C51.1651 48.8498 50.6774 49.5669 49.9949 50.0547C49.3125 50.5424 48.3987 50.7718 47.6103 50.4788C46.4073 50.0335 46.55 47.9418 45.4454 49.4937C44.6217 50.6528 43.8883 51.8735 43.2515 53.1449Z" fill="#BBBBBB"/>
<path d="M84.0283 53.1449C84.2538 53.5941 84.4717 54.0664 84.4755 54.5696C84.4794 55.0727 84.2114 55.6106 83.7333 55.7648C83.1994 55.9383 82.6384 55.5894 82.2316 55.2C81.8248 54.8106 81.4412 54.344 80.8976 54.2014C80.2826 54.0414 79.6561 54.3402 79.0527 54.5387C78.4493 54.7373 77.6782 54.7913 77.283 54.2939C76.7374 53.6057 77.3813 52.5165 76.9803 51.7357C76.5793 50.955 75.4381 50.9993 74.5609 50.8335C73.8878 50.696 73.2681 50.3689 72.7749 49.8907C72.2816 49.4124 71.9355 48.8031 71.7772 48.1346C71.569 47.2015 71.9006 46.0236 72.8144 45.7422C73.4679 45.5494 74.185 45.8771 74.6516 46.3745C75.1181 46.8719 75.3976 47.5119 75.7195 48.1095C76.1147 48.8498 76.6025 49.5669 77.2849 50.0547C77.9673 50.5424 78.8811 50.7718 79.6696 50.4788C80.8725 50.0335 80.7299 47.9418 81.8345 49.4937C82.6581 50.6528 83.3916 51.8735 84.0283 53.1449Z" fill="#BBBBBB"/>
<path d="M46.7094 93.1002C46.4839 92.651 46.266 92.1787 46.2622 91.6755C46.2583 91.1724 46.5263 90.6345 47.0044 90.4803C47.5384 90.3068 48.0994 90.6557 48.5061 91.0451C48.9129 91.4346 49.2965 91.9011 49.8402 92.0437C50.4551 92.2038 51.0816 91.9049 51.685 91.7064C52.2884 91.5078 53.0596 91.4538 53.4548 91.9512C54.0003 92.6394 53.3564 93.7286 53.7574 94.5094C54.1584 95.2902 55.2996 95.2458 56.1768 95.4116C56.8499 95.5491 57.4696 95.8762 57.9629 96.3545C58.4561 96.8327 58.8023 97.442 58.9605 98.1105C59.1687 99.0436 58.8371 100.221 57.9234 100.503C57.2698 100.696 56.5527 100.368 56.0862 99.8706C55.6197 99.3733 55.3401 98.7332 55.0182 98.1356C54.623 97.3953 54.1353 96.6782 53.4528 96.1904C52.7704 95.7027 51.8566 95.4733 51.0682 95.7663C49.8652 96.2117 50.0079 98.3033 48.9033 96.7514C48.0796 95.5923 47.3462 94.3716 46.7094 93.1002Z" fill="#BBBBBB"/>
<path d="M84.0283 90.0377C84.2538 89.5885 84.4717 89.1162 84.4755 88.613C84.4794 88.1099 84.2114 87.572 83.7333 87.4178C83.1994 87.2443 82.6384 87.5932 82.2316 87.9826C81.8248 88.3721 81.4412 88.8386 80.8976 88.9812C80.2826 89.1413 79.6561 88.8424 79.0527 88.6439C78.4493 88.4453 77.6782 88.3913 77.283 88.8887C76.7374 89.5769 77.3813 90.6661 76.9803 91.4469C76.5793 92.2277 75.4381 92.1833 74.5609 92.3491C73.8878 92.4866 73.2681 92.8137 72.7749 93.2919C72.2816 93.7702 71.9354 94.3795 71.7772 95.048C71.569 95.9811 71.9006 97.159 72.8144 97.4404C73.4679 97.6332 74.185 97.3055 74.6516 96.8081C75.1181 96.3108 75.3976 95.6707 75.7195 95.0731C76.1147 94.3328 76.6025 93.6157 77.2849 93.1279C77.9673 92.6402 78.8811 92.4108 79.6696 92.7038C80.8725 93.1492 80.7299 95.2408 81.8345 93.6889C82.6581 92.5298 83.3916 91.3091 84.0283 90.0377Z" fill="#BBBBBB"/>
<path d="M29.6603 86.8482C29.8859 86.399 30.1037 85.9267 30.1076 85.4236C30.1114 84.9204 29.8435 84.3826 29.3654 84.2283C28.8314 84.0548 28.2704 84.4038 27.8636 84.7932C27.4569 85.1826 27.0732 85.6491 26.5296 85.7918C25.9146 85.9518 25.2881 85.653 24.6847 85.4544C24.0813 85.2559 23.3102 85.2019 22.915 85.6993C22.3694 86.3875 23.0133 87.4767 22.6123 88.2575C22.2114 89.0382 21.0701 88.9939 20.193 89.1597C19.5199 89.2971 18.9001 89.6243 18.4069 90.1025C17.9136 90.5807 17.5675 91.19 17.4092 91.8586C17.201 92.7916 17.5326 93.9695 18.4464 94.251C19.0999 94.4438 19.817 94.116 20.2836 93.6187C20.7501 93.1213 21.0296 92.4813 21.3516 91.8837C21.7468 91.1434 22.2345 90.4262 22.9169 89.9385C23.5994 89.4508 24.5131 89.2214 25.3016 89.5144C26.5045 89.9597 26.3619 92.0514 27.4665 90.4995C28.2902 89.3404 29.0236 88.1197 29.6603 86.8482Z" fill="#BBBBBB"/>
<path d="M47.9508 58.007C47.4342 58.0436 47.3976 58.6952 47.2838 59.0981C47.0178 60.0311 45.2288 62.2076 46.4819 62.9711C46.7884 63.1638 47.1836 63.1311 47.5075 63.2872C48.2651 63.6496 48.2574 64.7022 48.2786 65.5427C48.2998 66.3833 48.4887 67.2623 49.0208 67.9197C49.3798 68.3626 49.8927 68.6538 50.457 68.7352C50.5124 68.7427 50.5656 68.7617 50.6131 68.7911C50.74 68.8631 50.855 68.9541 50.9543 69.061C51.4189 69.5911 51.7254 70.235 52.1515 70.796C52.5775 71.357 53.1404 71.8814 53.8402 71.972C54.54 72.0626 55.3381 71.5536 55.3343 70.8481C55.3343 70.397 55.0297 70.0114 54.7771 69.6374C54.5246 69.2634 54.301 68.793 54.4725 68.3747C54.6769 67.8754 55.3208 67.725 55.6581 67.3048C56.1555 66.684 55.8008 65.7336 55.2437 65.1668C54.9787 64.8724 54.6315 64.6642 54.247 64.5692C54.0545 64.5251 53.8535 64.5371 53.6676 64.6037C53.4818 64.6703 53.3189 64.7888 53.1983 64.9451C52.8243 65.5023 53.1983 66.4006 52.6836 66.8421C52.6367 66.8809 52.5819 66.9089 52.523 66.9242C52.4641 66.9394 52.4025 66.9415 52.3427 66.9302C52.2829 66.919 52.2263 66.8948 52.1769 66.8592C52.1276 66.8236 52.0866 66.7777 52.057 66.7245C52.0271 66.6694 51.9923 66.6171 51.9529 66.5683C51.6445 66.1828 51.1355 66.0363 50.7269 65.7644C49.8998 65.2131 49.5355 64.1991 49.2213 63.2583C48.8858 62.2443 48.5446 61.1917 48.668 60.1314C48.722 59.5916 49.0092 57.9337 47.9508 58.007Z" fill="#232323"/>
<path d="M90.7128 61.1339C91.2295 61.1705 91.2661 61.8221 91.3799 62.225C91.6459 63.1581 93.4349 65.3346 92.1818 66.098C91.8753 66.2908 91.4801 66.258 91.1562 66.4142C90.3986 66.7766 90.4063 67.8292 90.3851 68.6697C90.3639 69.5102 90.175 70.3893 89.6429 71.0467C89.2839 71.4896 88.771 71.7808 88.2067 71.8621C88.1513 71.8696 88.0981 71.8887 88.0506 71.918C87.9237 71.9901 87.8087 72.0811 87.7094 72.1879C87.2448 72.7181 86.9382 73.362 86.5122 73.923C86.0862 74.484 85.5233 75.0083 84.8235 75.0989C84.1237 75.1895 83.3256 74.6806 83.3294 73.975C83.3294 73.5239 83.634 73.1383 83.8866 72.7644C84.1391 72.3904 84.3627 71.92 84.1912 71.5016C83.9868 71.0023 83.3429 70.852 83.0056 70.4317C82.5082 69.811 82.8629 68.8605 83.42 68.2938C83.685 67.9994 84.0322 67.7912 84.4167 67.6962C84.6092 67.6521 84.8102 67.6641 84.9961 67.7307C85.1819 67.7973 85.3448 67.9158 85.4654 68.0721C85.8394 68.6292 85.4654 69.5276 85.9801 69.969C86.027 70.0079 86.0818 70.0359 86.1407 70.0511C86.1996 70.0663 86.2612 70.0684 86.321 70.0572C86.3808 70.046 86.4374 70.0217 86.4868 69.9862C86.5361 69.9506 86.5771 69.9046 86.6067 69.8514C86.6366 69.7963 86.6714 69.7441 86.7108 69.6953C87.0192 69.3097 87.5281 69.1632 87.9368 68.8914C88.7639 68.34 89.1282 67.326 89.4424 66.3852C89.7779 65.3712 90.1191 64.3186 89.9957 63.2583C89.9417 62.7186 89.6545 61.0607 90.7128 61.1339Z" fill="#232323"/>
<path d="M40.5043 90.5634C39.9876 90.5267 39.951 89.8751 39.8372 89.4722C39.5712 88.5392 37.7822 86.3627 39.0353 85.5993C39.3418 85.4065 39.737 85.4393 40.0609 85.2831C40.8185 84.9207 40.8108 83.8681 40.832 83.0276C40.8532 82.187 41.0421 81.308 41.5742 80.6506C41.9332 80.2077 42.4461 79.9165 43.0104 79.8351C43.0658 79.8276 43.119 79.8086 43.1665 79.7792C43.2934 79.7072 43.4084 79.6162 43.5077 79.5093C43.9723 78.9792 44.2789 78.3353 44.7049 77.7743C45.1309 77.2133 45.6939 76.6889 46.3936 76.5983C47.0934 76.5077 47.8915 77.0167 47.8877 77.7223C47.8877 78.1734 47.5831 78.5589 47.3305 78.9329C47.078 79.3069 46.8544 79.7773 47.0259 80.1956C47.2303 80.6949 47.8742 80.8453 48.2115 81.2656C48.7089 81.8863 48.3542 82.8367 47.7971 83.4035C47.5321 83.6979 47.1849 83.9061 46.8004 84.0011C46.6079 84.0452 46.4069 84.0332 46.221 83.9666C46.0352 83.9 45.8723 83.7815 45.7517 83.6252C45.3777 83.0681 45.7517 82.1697 45.237 81.7282C45.1901 81.6894 45.1353 81.6614 45.0764 81.6462C45.0175 81.6309 44.9559 81.6288 44.8961 81.6401C44.8363 81.6513 44.7797 81.6755 44.7303 81.7111C44.681 81.7467 44.64 81.7927 44.6104 81.8458C44.5805 81.9009 44.5457 81.9532 44.5063 82.002C44.1979 82.3875 43.689 82.5341 43.2803 82.8059C42.4532 83.3572 42.0889 84.3712 41.7747 85.312C41.4392 86.326 41.098 87.3786 41.2214 88.4389C41.2754 88.9787 41.5626 90.6366 40.5043 90.5634Z" fill="#232323"/>
<path d="M21.7722 89.1727C21.2556 89.1361 21.2189 88.4845 21.1052 88.0816C20.8391 87.1485 19.0502 84.972 20.3032 84.2086C20.6097 84.0159 21.0049 84.0486 21.3288 83.8925C22.0864 83.53 22.0787 82.4775 22.0999 81.6369C22.1211 80.7964 22.31 79.9173 22.8421 79.26C23.2012 78.8171 23.714 78.5259 24.2783 78.4445C24.3337 78.437 24.3869 78.418 24.4345 78.3886C24.5613 78.3166 24.6764 78.2256 24.7757 78.1187C25.2403 77.5886 25.5468 76.9447 25.9728 76.3837C26.3989 75.8227 26.9618 75.2983 27.6616 75.2077C28.3614 75.1171 29.1595 75.626 29.1556 76.3316C29.1556 76.7827 28.851 77.1683 28.5985 77.5423C28.3459 77.9163 28.1223 78.3867 28.2939 78.805C28.4982 79.3043 29.1421 79.4547 29.4795 79.8749C29.9768 80.4957 29.6221 81.4461 29.065 82.0129C28.8 82.3073 28.4529 82.5155 28.0683 82.6105C27.8759 82.6546 27.6748 82.6426 27.489 82.576C27.3031 82.5093 27.1403 82.3909 27.0196 82.2346C26.6456 81.6774 27.0196 80.7791 26.5049 80.3376C26.458 80.2988 26.4032 80.2708 26.3443 80.2555C26.2854 80.2403 26.2239 80.2382 26.1641 80.2494C26.1043 80.2607 26.0477 80.2849 25.9983 80.3205C25.9489 80.356 25.908 80.402 25.8784 80.4552C25.8485 80.5103 25.8136 80.5626 25.7743 80.6114C25.4658 80.9969 24.9569 81.1434 24.5482 81.4152C23.7212 81.9666 23.3568 82.9806 23.0426 83.9214C22.7072 84.9354 22.366 85.988 22.4893 87.0483C22.5433 87.5881 22.8306 89.246 21.7722 89.1727Z" fill="#232323"/>
<path d="M86.7755 90.5634C87.2921 90.5267 87.3287 89.8751 87.4425 89.4722C87.7085 88.5392 89.4975 86.3627 88.2444 85.5993C87.9379 85.4065 87.5427 85.4393 87.2189 85.2831C86.4612 84.9207 86.469 83.8681 86.4477 83.0276C86.4265 82.187 86.2376 81.308 85.7055 80.6506C85.3465 80.2077 84.8336 79.9165 84.2694 79.8351C84.214 79.8276 84.1608 79.8086 84.1132 79.7792C83.9863 79.7072 83.8713 79.6162 83.772 79.5093C83.3074 78.9792 83.0009 78.3353 82.5748 77.7743C82.1488 77.2133 81.5859 76.6889 80.8861 76.5983C80.1863 76.5077 79.3882 77.0167 79.3921 77.7223C79.3921 78.1734 79.6966 78.5589 79.9492 78.9329C80.2017 79.3069 80.4253 79.7773 80.2538 80.1956C80.0494 80.6949 79.4055 80.8453 79.0682 81.2656C78.5708 81.8863 78.9255 82.8367 79.4827 83.4035C79.7476 83.6979 80.0948 83.9061 80.4793 84.0011C80.6718 84.0452 80.8728 84.0332 81.0587 83.9666C81.2445 83.9 81.4074 83.7815 81.528 83.6252C81.902 83.0681 81.528 82.1697 82.0428 81.7282C82.0896 81.6894 82.1444 81.6614 82.2034 81.6462C82.2623 81.6309 82.3238 81.6288 82.3836 81.6401C82.4434 81.6513 82.5 81.6755 82.5494 81.7111C82.5988 81.7467 82.6397 81.7927 82.6693 81.8458C82.6992 81.9009 82.734 81.9532 82.7734 82.002C83.0818 82.3875 83.5908 82.5341 83.9995 82.8059C84.8265 83.3572 85.1908 84.3712 85.5051 85.312C85.8405 86.326 86.1817 87.3786 86.0583 88.4389C86.0044 88.9787 85.7171 90.6366 86.7755 90.5634Z" fill="#232323"/>
<path d="M53.5289 32.998C53.6248 33.2912 53.7917 33.5561 54.0147 33.7692C54.9786 34.7331 56.7907 34.2955 57.745 35.2651C58.1768 35.7047 58.3233 36.3389 58.5894 36.898C58.8554 37.4571 59.3316 38.0161 59.9485 37.9872C60.6251 37.9544 61.0473 37.2566 61.3153 36.6377C61.8163 35.4714 62.2111 34.2623 62.4951 33.025L62.4951 33.0038L53.5289 32.998Z" fill="#232323"/>
<path d="M73.7515 32.998C73.6556 33.2912 73.4887 33.5561 73.2657 33.7692C72.3018 34.7331 70.4897 34.2955 69.5354 35.2651C69.1036 35.7047 68.9571 36.3389 68.691 36.898C68.425 37.4571 67.9488 38.0161 67.3319 37.9872C66.6553 37.9544 66.2331 37.2566 65.9651 36.6377C65.4641 35.4714 65.0693 34.2623 64.7853 33.025L64.7853 33.0038L73.7515 32.998Z" fill="#232323"/>
<path d="M53.529 110.185C53.6249 109.891 53.7917 109.626 54.0148 109.413C54.9787 108.45 56.7908 108.887 57.7451 107.917C58.1769 107.478 58.3234 106.844 58.5894 106.285C58.8555 105.726 59.3316 105.166 59.9485 105.195C60.6252 105.228 61.0474 105.926 61.3153 106.545C61.8163 107.711 62.2112 108.92 62.4951 110.158L62.4951 110.179L53.529 110.185Z" fill="#232323"/>
<path d="M73.7515 110.185C73.6556 109.891 73.4887 109.626 73.2657 109.413C72.3018 108.45 70.4897 108.887 69.5354 107.917C69.1036 107.478 68.9571 106.844 68.691 106.285C68.425 105.726 67.9488 105.166 67.3319 105.195C66.6553 105.228 66.2331 105.926 65.9651 106.545C65.4641 107.711 65.0693 108.92 64.7853 110.158L64.7853 110.179L73.7515 110.185Z" fill="#BBBBBB"/>
<path d="M27.6427 46.8251C27.4133 47.5616 27.1588 48.4349 27.6427 49.0421C28.1613 49.7014 29.2967 49.5376 29.8384 48.8975C30.3802 48.2575 30.4553 47.3399 30.3609 46.5051C30.3069 46.027 30.2067 45.5297 30.3609 45.0728C30.5903 44.3942 31.2959 44.0202 31.9224 43.6732C32.5489 43.3262 33.2217 42.8365 33.2718 42.1309C33.3509 41.1825 32.2983 40.4518 32.279 39.4995C32.2675 38.8479 32.7398 38.2965 32.921 37.6719C33.2275 36.6078 32.5586 35.3894 31.5291 34.973C30.4997 34.5566 29.2447 34.9364 28.516 35.7692C27.9685 36.3957 27.6138 37.3828 27.7699 38.2194C27.8952 38.8922 28.3483 39.4031 28.4331 40.1029C28.7261 42.2909 28.2924 44.7412 27.6427 46.8251Z" fill="#E85F0A"/>
<path d="M99.6378 46.8251C99.8672 47.5616 100.122 48.4349 99.6378 49.0421C99.1192 49.7014 97.9837 49.5376 97.442 48.8975C96.9003 48.2575 96.8251 47.3399 96.9196 46.5051C96.9736 46.027 97.0738 45.5297 96.9196 45.0728C96.6902 44.3942 95.9846 44.0202 95.3581 43.6732C94.7315 43.3262 94.0587 42.8365 94.0086 42.1309C93.9296 41.1825 94.9822 40.4518 95.0014 39.4995C95.013 38.8479 94.5407 38.2965 94.3595 37.6719C94.053 36.6078 94.7219 35.3894 95.7513 34.973C96.7808 34.5566 98.0358 34.9364 98.7645 35.7692C99.312 36.3957 99.6667 37.3828 99.5105 38.2194C99.3852 38.8922 98.9322 39.4031 98.8474 40.1029C98.5543 42.2909 98.9881 44.7412 99.6378 46.8251Z" fill="#E85F0A"/>
<path d="M27.6427 96.3585C27.4133 95.622 27.1588 94.7487 27.6427 94.1415C28.1613 93.4822 29.2967 93.646 29.8384 94.2861C30.3802 94.9261 30.4553 95.8437 30.3609 96.6785C30.3069 97.1566 30.2067 97.6539 30.3609 98.1108C30.5903 98.7894 31.2959 99.1634 31.9224 99.5104C32.5489 99.8574 33.2217 100.347 33.2718 101.053C33.3509 102.001 32.2983 102.732 32.279 103.684C32.2675 104.336 32.7398 104.887 32.921 105.512C33.2275 106.576 32.5586 107.794 31.5291 108.211C30.4997 108.627 29.2447 108.247 28.516 107.414C27.9685 106.788 27.6138 105.801 27.7699 104.964C27.8952 104.291 28.3483 103.781 28.4331 103.081C28.7261 100.893 28.2924 98.4424 27.6427 96.3585Z" fill="#E85F0A"/>
<path d="M99.6377 96.3585C99.8671 95.622 100.122 94.7487 99.6377 94.1415C99.1191 93.4822 97.9837 93.646 97.4419 94.2861C96.9002 94.9261 96.8251 95.8437 96.9195 96.6785C96.9735 97.1566 97.0737 97.6539 96.9195 98.1108C96.6901 98.7894 95.9845 99.1634 95.358 99.5104C94.7315 99.8574 94.0587 100.347 94.0086 101.053C93.9295 102.001 94.9821 102.732 95.0014 103.684C95.0129 104.336 94.5406 104.887 94.3594 105.512C94.0529 106.576 94.7218 107.794 95.7513 108.211C96.7807 108.627 98.0357 108.247 98.7644 107.414C99.3119 106.788 99.6666 105.801 99.5105 104.964C99.3852 104.291 98.9321 103.781 98.8473 103.081C98.5543 100.893 98.988 98.4424 99.6377 96.3585Z" fill="#E85F0A"/>
</g>
</g>
<path d="M80.2317 102.497C80.2317 109.272 85.7244 114.765 92.5001 114.766C99.2757 114.767 104.768 109.277 104.768 102.502C104.768 95.7273 99.2757 90.2343 92.5001 90.2329C85.7244 90.2315 80.2317 95.7224 80.2317 102.497Z" fill="#E85F0A"/>
<path fill-rule="evenodd" clip-rule="evenodd" d="M102.537 102.502C102.537 96.9599 98.0431 92.4664 92.5 92.4656C86.9569 92.4648 82.4634 96.9571 82.4634 102.499C82.4634 108.042 86.9569 112.535 92.5 112.536C98.0431 112.537 102.537 108.045 102.537 102.502ZM92.5 88.0028C100.508 88.004 107 94.4958 107 102.503C107 110.51 100.508 117 92.5 116.999C84.4919 116.998 78 110.506 78 102.499C78 94.4918 84.4919 88.0017 92.5 88.0028Z" fill="black"/>
<path d="M23.2317 102.497C23.2317 109.271 28.7244 114.764 35.5001 114.765C42.2757 114.767 47.7684 109.276 47.7684 102.502C47.7684 95.7271 42.2757 90.2343 35.5001 90.2329C28.7244 90.2315 23.2317 95.7222 23.2317 102.497Z" fill="#E85F0A"/>
<path fill-rule="evenodd" clip-rule="evenodd" d="M45.5366 102.502C45.5366 96.9607 41.0435 92.467 35.5 92.4661C29.9565 92.4652 25.4634 96.9575 25.4634 102.499C25.4634 108.04 29.9565 112.534 35.5 112.535C41.0435 112.536 45.5366 108.044 45.5366 102.502ZM35.5 88.0026C43.5077 88.0039 50 94.4954 50 102.503C50 110.51 43.5077 117 35.5 116.999C27.4923 116.997 21 110.506 21 102.498C21 94.4909 27.4923 88.0014 35.5 88.0026Z" fill="black"/>
</svg>
