<svg width="129" height="129" viewBox="0 0 129 129" fill="none" xmlns="http://www.w3.org/2000/svg">
<path d="M33.5803 46.501C33.5803 63.5769 47.423 77.4192 64.499 77.4186C81.5749 77.418 95.4177 63.5748 95.4177 46.4988C95.4177 29.4229 81.5749 15.5806 64.499 15.5812C47.423 15.5818 33.5803 29.425 33.5803 46.501Z" fill="#917F9F"/>
<path fill-rule="evenodd" clip-rule="evenodd" d="M91.8374 46.499C91.8374 31.4003 79.5975 19.1608 64.4988 19.1613C49.4 19.1619 37.1601 31.4022 37.1601 46.501C37.1601 61.5997 49.4 73.8392 64.4988 73.8387C79.5975 73.8381 91.8374 61.5978 91.8374 46.499ZM64.4988 12.0012C83.5519 12.0005 98.9976 27.4456 98.9976 46.4988C98.9976 65.552 83.5519 80.9981 64.4988 80.9988C45.4456 80.9995 30 65.5544 30 46.5012C30 27.448 45.4456 12.0019 64.4988 12.0012Z" fill="#917F9F"/>
<path d="M26 71.5027C26 92.7657 43.237 110.002 64.5 110.001C85.763 110.001 103 92.763 103 71.5C103 50.237 85.763 33.0006 64.5 33.0013C43.237 33.0021 26 50.2397 26 71.5027Z" fill="url(#paint0_radial)"/>
<path d="M24.215 102.497C24.215 109.28 29.715 114.78 36.4996 114.782C43.2843 114.783 48.7843 109.285 48.7843 102.502C48.7843 95.7187 43.2843 90.2186 36.4996 90.2173C29.715 90.2159 24.215 95.7138 24.215 102.497Z" fill="#907B9E"/>
<path fill-rule="evenodd" clip-rule="evenodd" d="M36.5001 88.0029C44.5082 88.0045 51 94.4964 51 102.503C51 110.509 44.5082 116.999 36.5001 116.997C28.492 116.995 22.0001 110.503 22.0001 102.497C22.0001 94.4905 28.492 88.0013 36.5001 88.0029ZM46.5695 102.502C46.5695 96.9419 42.0612 92.4337 36.5001 92.4326C30.9389 92.4314 26.4307 96.9378 26.4307 102.498C26.4307 108.058 30.9389 112.566 36.5001 112.567C42.0612 112.568 46.5695 108.062 46.5695 102.502Z" fill="black"/>
<path d="M81.215 102.497C81.215 109.28 86.715 114.78 93.4996 114.782C100.284 114.783 105.784 109.285 105.784 102.502C105.784 95.7187 100.284 90.2186 93.4996 90.2173C86.715 90.2159 81.215 95.7138 81.215 102.497Z" fill="#907B9E"/>
<path fill-rule="evenodd" clip-rule="evenodd" d="M93.4998 88.0029C101.508 88.0045 108 94.4964 108 102.503C108 110.509 101.508 116.999 93.4998 116.997C85.4917 116.995 78.9999 110.503 78.9999 102.497C78.9999 94.4905 85.4917 88.0013 93.4998 88.0029ZM103.569 102.502C103.569 96.9419 99.061 92.4337 93.4998 92.4326C87.9386 92.4314 83.4304 96.9378 83.4304 102.498C83.4304 108.058 87.9386 112.566 93.4998 112.567C99.061 112.568 103.569 108.062 103.569 102.502Z" fill="black"/>
<defs>
<radialGradient id="paint0_radial" cx="0" cy="0" r="1" gradientUnits="userSpaceOnUse" gradientTransform="translate(64.5 71.5013) rotate(179.998) scale(38.5 35.1587)">
<stop stop-color="#927C9F"/>
<stop offset="1" stop-color="#41344B"/>
</radialGradient>
</defs>
</svg>
