<svg width="129" height="129" viewBox="0 0 129 129" fill="none" xmlns="http://www.w3.org/2000/svg">
<path d="M32.873 47.1389C32.873 64.5359 46.9761 78.6384 64.373 78.6378C81.77 78.6372 95.873 64.5337 95.873 47.1367C95.873 29.7397 81.77 15.6372 64.373 15.6378C46.9761 15.6384 32.8731 29.7419 32.873 47.1389Z" fill="#1C1511"/>
<path fill-rule="evenodd" clip-rule="evenodd" d="M64.873 12.6379C83.6507 12.6373 98.873 27.859 98.873 46.6367C98.873 65.4144 83.6507 80.6373 64.873 80.6379C46.0954 80.6386 30.873 65.4168 30.873 46.6391C30.873 27.8614 46.0954 12.6386 64.873 12.6379ZM93.6828 46.6369C93.6828 30.7257 80.7842 17.8276 64.873 17.8282C48.9619 17.8287 36.0633 30.7277 36.0633 46.6389C36.0633 62.5501 48.9619 75.4482 64.873 75.4476C80.7842 75.4471 93.6828 62.5481 93.6828 46.6369Z" fill="black"/>
<path d="M63.873 29.6367C86.5167 29.6367 104.873 48.005 104.873 70.6367C104.873 93.2684 86.5167 111.637 63.873 111.637C41.2294 111.637 22.873 93.2684 22.873 70.6367C22.873 48.005 41.2294 29.6367 63.873 29.6367Z" fill="#F4B492"/>
<path d="M57.2208 78.4378C57.5311 78.1478 58.012 77.9568 58.5562 77.9568C59.4394 77.9568 60.1603 78.4509 60.2354 79.0763H62.1921L62.7912 78.3262C57.7214 76.8731 54.0802 66.5259 54.0802 63.1938C54.0802 59.3956 58.4262 56.4203 63.9763 56.4203C69.5253 56.4203 73.8724 59.395 73.8724 63.1938C73.8724 66.4579 70.3792 76.4542 65.4729 78.2283L66.149 79.0763H68.197C68.2728 78.4509 68.9918 77.9568 69.8762 77.9568C70.0313 77.9568 70.1793 77.9771 70.3225 78.0051C72.1801 76.5616 73.6887 74.6109 74.5635 72.418C75.0832 71.1159 75.7462 68.9355 75.9437 67.0313C75.7676 58.6038 70.4693 51.8184 63.9775 51.8184C57.3729 51.8184 52 58.8359 52 67.4616C52 67.4777 52.0012 67.4944 52.0012 67.5111C52.4493 71.5384 54.1972 76.0019 57.2208 78.4378ZM64.2449 52.4425C64.3087 52.4485 70.7217 53.1264 73.8158 59.8467C73.8844 59.9965 73.8193 60.1737 73.6689 60.2424C73.6296 60.2609 73.586 60.2698 73.5442 60.2698C73.4321 60.2698 73.324 60.2054 73.2739 60.0962C70.3219 53.6849 64.2496 53.0423 64.1888 53.0363C64.0247 53.0214 63.9041 52.8752 63.9196 52.7111C63.9351 52.5476 64.0796 52.4246 64.2449 52.4425Z" fill="#231D1A"/>
<path d="M58.5539 78.7188C58.5157 78.7188 58.4829 78.7301 58.4453 78.7343C58.4829 78.7301 58.5157 78.7188 58.5539 78.7188Z" fill="#231D1A"/>
<path d="M72.083 63.1932C72.083 60.4924 68.3707 58.21 63.977 58.21C59.5833 58.21 55.8711 60.4918 55.8711 63.1932C55.8711 65.8928 58.9944 74.5257 62.6356 76.36C62.9047 75.9405 63.4901 75.6469 64.1704 75.6469C64.7683 75.6469 65.2916 75.8725 65.5936 76.2108C69.1143 74.0936 72.083 65.8248 72.083 63.1932ZM62.2567 73.0643C60.294 71.2974 59.2217 67.3488 58.5396 64.8861C58.2413 63.8037 58.2449 63.1312 58.4531 62.7349C59.1465 61.412 62.1105 63.1604 63.6828 63.0429C65.2075 62.9295 69.1686 58.6784 70.0231 61.7384C70.6478 63.9797 68.3063 68.2039 67.3611 70.1546C66.4081 72.1232 64.6143 75.1863 62.2567 73.0643Z" fill="#231D1A"/>
<path d="M70.0229 61.7387C69.1683 58.6781 65.2073 62.9292 63.6826 63.0431C62.1102 63.1607 59.1463 61.4129 58.4529 62.7352C58.2441 63.1315 58.2411 63.804 58.5395 64.8864C59.2215 67.3491 60.2932 71.2977 62.2565 73.0646C64.6141 75.1871 66.4079 72.1241 67.3615 70.1543C68.3061 68.2042 70.6476 63.98 70.0229 61.7387ZM62.8401 71.5346C62.7338 71.6133 62.6103 71.6509 62.4868 71.6509C62.3036 71.6509 62.1246 71.5668 62.0064 71.4087C61.8107 71.1443 61.868 70.7702 62.1324 70.5744C62.1556 70.5571 63.6463 69.4323 64.8236 67.5896L60.8762 64.3362C60.622 64.1268 60.5862 63.7509 60.7957 63.4967C61.0045 63.2424 61.3816 63.2054 61.6347 63.4155L65.4167 66.534C65.8094 65.7201 66.1053 64.8077 66.2002 63.8195C66.2306 63.4919 66.5147 63.2532 66.8507 63.2824C67.1783 63.3135 67.4194 63.6047 67.3877 63.9329C66.9587 68.4531 63.0089 71.411 62.8401 71.5346Z" fill="#3E3633"/>
<path d="M63.3894 43.4108L63.3112 43.4102L63.0767 43.4281C50.5466 44.1238 42.5212 46.6402 38.5423 51.1217C35.6171 54.4156 34.5621 58.9072 35.018 66.1401C35.9316 80.631 52.0396 92.9397 64.7869 93.4905L64.8991 93.4762C77.5575 92.2469 92.845 79.1195 92.845 64.6602C92.8444 53.101 90.6288 43.5235 63.3894 43.4108ZM45.4184 64.8965C45.845 64.6459 46.394 64.7879 46.6434 65.2134C48.3441 68.1039 49.6211 68.8856 50.2656 68.9883C50.2303 68.484 50.2095 67.9756 50.2095 67.4601C50.2095 57.8474 56.3856 50.0267 63.9772 50.0267C71.5669 50.0267 77.7413 57.8468 77.7413 67.4601C77.7413 67.975 77.7204 68.484 77.6852 68.9883C77.6977 68.9859 77.7061 68.9895 77.718 68.9895C78.372 68.8695 79.6353 68.0717 81.3121 65.2211C81.5627 64.7951 82.1117 64.6536 82.5384 64.9037C82.9638 65.1543 83.1058 65.7033 82.8552 66.1293C81.2524 68.8528 79.6586 70.4001 78.1184 70.7277C77.903 70.7731 77.7061 70.7916 77.5265 70.7916C77.5139 70.7916 77.5044 70.7892 77.4924 70.7886C77.4924 70.7886 77.4877 70.785 77.4865 70.7844C77.4805 70.8238 77.4727 70.8632 77.4668 70.9032C77.4327 71.1132 77.3981 71.3227 77.3593 71.5303C77.3456 71.5989 77.3301 71.667 77.3164 71.7356C77.2812 71.9134 77.2454 72.0906 77.2054 72.2661C77.1994 72.2917 77.1929 72.3174 77.1869 72.3437C77.1368 72.5597 77.0855 72.7751 77.0282 72.9875C77.0234 73.0072 77.0162 73.0269 77.0121 73.0472C76.9536 73.265 76.8933 73.4822 76.8277 73.6958C76.8217 73.7155 76.8151 73.7346 76.8092 73.7543C76.7441 73.9679 76.6749 74.1804 76.6039 74.3886C76.5854 74.4429 76.5645 74.4955 76.5454 74.5498C76.4034 74.9508 76.2519 75.3458 76.0872 75.7307C76.0776 75.754 76.0675 75.7754 76.0579 75.7981C75.9726 75.9926 75.8878 76.1854 75.7977 76.3757C75.7583 76.4593 75.716 76.5404 75.6754 76.6228C75.6133 76.7505 75.5519 76.8794 75.4868 77.0047C75.4027 77.1664 75.3156 77.3263 75.2267 77.4851C75.2022 77.5268 75.1801 77.5716 75.1568 77.614C75.087 77.7369 75.0136 77.8562 74.9414 77.9768C74.8961 78.0526 74.8519 78.1307 74.8048 78.2059C74.7409 78.3103 74.6729 78.4106 74.6067 78.5132C74.5494 78.6009 74.4945 78.6905 74.4366 78.777C73.3398 80.4019 72.0103 81.766 70.5161 82.7929C71.1325 82.9767 71.5687 83.4147 71.5687 83.9255C71.5687 84.6004 70.8091 85.1512 69.874 85.1512C69.001 85.1512 68.2903 84.6685 68.2002 84.0538C67.3504 84.4017 66.4649 84.644 65.5519 84.7771L65.1044 85.3374C65.5615 85.5576 65.8628 85.9323 65.8628 86.3578C65.8628 87.0333 65.1032 87.5829 64.1681 87.5829C63.2331 87.5829 62.4734 87.0339 62.4734 86.3578C62.4734 85.9323 62.7753 85.5576 63.2318 85.3374L62.8284 84.8326C61.9196 84.7371 61.0347 84.5282 60.1838 84.2197C60.0018 84.7526 59.346 85.1512 58.5523 85.1512C57.619 85.1512 56.8576 84.6016 56.8576 83.9255C56.8576 83.5042 57.1536 83.1325 57.6023 82.9117C53.9557 80.489 51.2669 76.0559 50.4601 70.782C50.4476 70.7826 50.438 70.7856 50.4261 70.7856C50.2465 70.7856 50.0483 70.7671 49.8341 70.7217C48.2934 70.3941 46.7001 68.8462 45.0967 66.1228C44.8497 65.6961 44.9923 65.1471 45.4184 64.8965ZM35.7752 64.5552C35.7752 64.1977 36.0652 63.9083 36.4221 63.9083C36.7801 63.9083 37.0689 64.1977 37.0689 64.5552C37.0689 64.9126 36.7801 65.202 36.4221 65.202C36.0658 65.202 35.7752 64.912 35.7752 64.5552ZM64.0082 92.1914L63.9252 92.1956L63.8435 92.1771C40.4536 86.8119 36.4698 67.2458 36.4322 67.0489C36.3702 66.7255 36.5838 66.4134 36.9066 66.3513C37.2283 66.2875 37.5428 66.5017 37.6048 66.8251C37.6412 67.0143 41.4931 85.7808 64.0225 90.9938C65.3055 90.8887 81.7948 89.1618 89.7689 70.4699C89.8984 70.1656 90.2516 70.0272 90.5524 70.1555C90.8555 70.285 90.9963 70.6352 90.8669 70.939C82.3074 91.0027 64.1896 92.1818 64.0082 92.1914Z" fill="#231D1A"/>
<path d="M58.5553 84.3893C58.4944 84.3893 58.4389 84.3762 58.3828 84.3643C58.4389 84.3762 58.495 84.3893 58.5553 84.3893Z" fill="#231D1A"/>
<path d="M58.5259 83.4658C58.4978 83.467 58.4722 83.4742 58.4453 83.4777C58.4722 83.4742 58.4978 83.467 58.5259 83.4658Z" fill="#231D1A"/>
<path d="M64.5863 41.035V40.9336L63.3045 41.0231L63.0085 41.0195L61.7566 41.0428L61.7602 41.1162C49.0702 41.9504 41.108 44.6369 36.7561 49.5366C32.4973 54.3325 32.283 60.6972 32.6351 66.2903C33.1 73.6563 37.098 80.9501 43.8912 86.8303C49.7666 91.9138 57.0401 95.2125 63.582 95.8014L64.7557 95.876C64.8888 95.8683 65.0923 95.8569 65.1472 95.8498C79.0641 94.488 95.2306 80.5736 95.2306 64.6595C95.2306 50.369 90.0653 41.408 64.5863 41.035ZM64.8978 93.4766L64.7856 93.4909C52.0389 92.9401 35.9308 80.6315 35.0167 66.1405C34.5608 58.9076 35.6158 54.416 38.5409 51.1221C42.5199 46.6407 50.5453 44.1243 63.0754 43.4285L63.3099 43.4106L63.388 43.4112C90.6274 43.5234 92.8431 53.1008 92.8431 64.66C92.8437 79.1199 77.5561 92.2473 64.8978 93.4766Z" fill="#040101"/>
<path d="M64.8433 95.8823L64.7568 95.877C64.7162 95.8793 64.681 95.8811 64.6602 95.8823H64.8433Z" fill="#010101"/>
<path d="M66.8498 63.2818C66.5138 63.2526 66.2298 63.4919 66.1993 63.8189C66.1051 64.8071 65.8091 65.7195 65.4158 66.5334L61.6338 63.4149C61.3808 63.2042 61.003 63.2419 60.7948 63.4961C60.5847 63.7503 60.6211 64.1268 60.8753 64.3356L64.8227 67.589C63.6453 69.4317 62.1547 70.5565 62.1314 70.5738C61.8671 70.7696 61.8098 71.1437 62.0055 71.4081C62.1231 71.5668 62.3027 71.6503 62.4859 71.6503C62.6094 71.6503 62.733 71.6127 62.8392 71.534C63.008 71.4104 66.9578 68.4525 67.3868 63.9317C67.419 63.6041 67.1774 63.3129 66.8498 63.2818Z" fill="#010101"/>
<path d="M58.5539 79.6474C58.5157 79.6474 58.4829 79.636 58.4453 79.6318C58.4829 79.636 58.5157 79.6474 58.5539 79.6474Z" fill="#894D20"/>
<path d="M52 67.5107C52.0161 74.1833 55.2468 79.8839 59.7712 82.1067L60.2128 81.5535L59.2186 80.3087C59.0145 80.372 58.7908 80.4078 58.5545 80.4078C57.6212 80.4078 56.8597 79.8576 56.8597 79.1827C56.8597 78.9011 56.997 78.6451 57.219 78.4374C54.1954 76.0016 52.4475 71.5381 52 67.5107Z" fill="#894D20"/>
<path d="M69.8752 79.6468C69.8126 79.6468 69.7565 79.6336 69.6992 79.6211C69.7565 79.633 69.812 79.6468 69.8752 79.6468Z" fill="#894D20"/>
<path d="M69.8752 78.7188C69.8126 78.7188 69.7565 78.7319 69.6992 78.7444C69.7565 78.7325 69.812 78.7188 69.8752 78.7188Z" fill="#894D20"/>
<path d="M69.5801 78.7768C69.5958 78.7704 69.6075 78.7605 69.6244 78.7559C69.6069 78.7605 69.5958 78.7704 69.5801 78.7768Z" fill="#894D20"/>
<path d="M70.3223 78.0057C71.0389 78.1489 71.5706 78.6197 71.5706 79.1836C71.5706 79.3972 71.4865 79.5965 71.3528 79.7714C74.1503 76.9053 75.9518 72.4543 75.9518 67.4615C75.9518 67.3171 75.947 67.1751 75.9434 67.0312C75.7465 68.9354 75.0835 71.1164 74.5632 72.4179C73.6878 74.6115 72.1799 76.5622 70.3223 78.0057Z" fill="#894D20"/>
<path d="M69.6244 79.6099C69.6075 79.6052 69.5958 79.5953 69.5801 79.5889C69.5958 79.5953 69.6069 79.6058 69.6244 79.6099Z" fill="#894D20"/>
<path d="M69.1412 80.2823L68.125 81.5539L68.4538 81.9651C69.4128 81.4573 70.3126 80.7955 71.1307 79.9971C70.8198 80.2477 70.3741 80.4076 69.8746 80.4076C69.6097 80.4082 69.3638 80.3605 69.1412 80.2823Z" fill="#894D20"/>
<path d="M67.5739 82.3829L66.9133 81.5541L68.284 79.8379H68.2828L66.9121 81.5541L67.5739 82.3829Z" fill="#894D20"/>
<path d="M49.838 70.7215C50.0523 70.7668 50.2504 70.7853 50.43 70.7853C50.4419 70.7853 50.4509 70.7823 50.464 70.7817C51.2708 76.0556 53.959 80.4893 57.6062 82.9114C57.1575 83.1322 56.8615 83.5039 56.8615 83.9252C56.8615 84.6013 57.6223 85.1509 58.5562 85.1509C59.3499 85.1509 60.0063 84.7523 60.1877 84.2194C61.0386 84.5285 61.923 84.7368 62.8324 84.8323L63.2358 85.3371C62.7787 85.5573 62.4773 85.932 62.4773 86.3575C62.4773 87.0336 63.2369 87.5826 64.172 87.5826C65.1071 87.5826 65.8667 87.033 65.8667 86.3575C65.8667 85.932 65.5648 85.5573 65.1083 85.3371L65.5558 84.7768C66.4682 84.6437 67.3544 84.4014 68.2041 84.0535C68.2936 84.6682 69.0049 85.1509 69.8779 85.1509C70.8124 85.1509 71.5726 84.6001 71.5726 83.9252C71.5726 83.4144 71.137 82.9758 70.52 82.7926C72.0142 81.7651 73.3437 80.401 74.4405 78.7767C74.499 78.6895 74.5533 78.6006 74.6106 78.5129C74.6768 78.4103 74.7448 78.31 74.8087 78.2056C74.8552 78.1304 74.8994 78.0522 74.9453 77.9765C75.0175 77.8559 75.0909 77.7366 75.1608 77.6136C75.184 77.5713 75.2061 77.5265 75.2306 77.4848C75.3189 77.326 75.4066 77.1667 75.4907 77.0044C75.5558 76.8785 75.6178 76.7502 75.6793 76.6225C75.7199 76.5401 75.7622 76.459 75.8016 76.3754C75.8911 76.1857 75.9765 75.9923 76.0618 75.7978C76.0713 75.7751 76.0815 75.7536 76.091 75.7304C76.2551 75.3455 76.4067 74.9505 76.5493 74.5495C76.5678 74.4952 76.5887 74.4426 76.6078 74.3883C76.6788 74.1795 76.7474 73.9677 76.8131 73.754C76.8191 73.7349 76.8256 73.7158 76.8316 73.6955C76.8966 73.4819 76.9575 73.2647 77.016 73.0469C77.0207 73.0272 77.0279 73.0075 77.0321 72.9872C77.0894 72.7748 77.1407 72.5594 77.1908 72.3434C77.1968 72.3171 77.2034 72.2914 77.2093 72.2658C77.2487 72.0903 77.2851 71.9131 77.3203 71.7353C77.334 71.6667 77.3495 71.5987 77.3633 71.53C77.4015 71.3224 77.4367 71.1129 77.4707 70.9029C77.4766 70.8629 77.4844 70.8235 77.4904 70.7841C77.4916 70.7847 77.4964 70.7883 77.4964 70.7883C77.5083 70.7889 77.5172 70.7913 77.5303 70.7913C77.7099 70.7913 77.9069 70.7728 78.1223 70.7274C79.6618 70.3998 81.2563 68.8525 82.8591 66.129C83.1098 65.703 82.9677 65.154 82.5423 64.9034C82.1156 64.6533 81.5666 64.7948 81.316 65.2208C79.6386 68.0714 78.3753 68.8692 77.7219 68.9891C77.7136 68.9903 77.7034 68.9939 77.6939 68.9951L77.6867 68.9957L77.6891 68.988C77.7243 68.4837 77.7452 67.9753 77.7452 67.4597C77.7452 57.8471 71.5702 50.0264 63.9811 50.0264C56.3889 50.0264 50.2134 57.8465 50.2134 67.4597C50.2134 67.9747 50.2343 68.4837 50.2695 68.988C49.625 68.8853 48.3474 68.1036 46.6473 65.2131C46.3979 64.7876 45.8489 64.6456 45.4223 64.8962C44.9956 65.1468 44.8536 65.6958 45.1042 66.1213C46.704 68.8459 48.2973 70.3939 49.838 70.7215ZM69.8761 84.3895C69.5217 84.3895 69.2341 84.1818 69.2341 83.9258C69.2341 83.6698 69.5217 83.4622 69.8761 83.4622C70.2306 83.4622 70.5182 83.6698 70.5182 83.9258C70.5182 84.1818 70.2306 84.3895 69.8761 84.3895ZM61.4295 81.5544L60.0588 79.8382H62.8001L64.1696 78.1215L65.5403 79.8382H68.2817H68.2829L66.9122 81.5544L67.5728 82.3833L68.2817 83.2706H65.5403L64.1696 84.9874L62.8001 83.2706H60.0588L61.4295 81.5544ZM58.4458 78.7355C58.4834 78.7307 58.5156 78.72 58.5544 78.72C58.5556 78.72 58.5556 78.72 58.5556 78.72C58.9101 78.72 59.1965 78.9276 59.1965 79.1836C59.1965 79.4396 58.9101 79.6473 58.5556 79.6473C58.5556 79.6473 58.5556 79.6473 58.5544 79.6473C58.5162 79.6473 58.4834 79.636 58.4458 79.6318C58.1451 79.5936 57.9129 79.4122 57.9129 79.1836C57.9129 78.9551 58.1457 78.7737 58.4458 78.7355ZM63.5276 76.8731C63.5276 76.6165 63.8152 76.4089 64.1696 76.4089C64.5241 76.4089 64.8117 76.6171 64.8117 76.8731C64.8117 77.1285 64.5241 77.3368 64.1696 77.3368C63.8152 77.3368 63.5276 77.1291 63.5276 76.8731ZM65.5928 76.2119C65.2909 75.8736 64.7676 75.648 64.1696 75.648C63.4888 75.648 62.904 75.9416 62.6349 76.3611C58.9936 74.5268 55.8704 65.8939 55.8704 63.1943C55.8704 60.4935 59.5826 58.2111 63.9763 58.2111C68.37 58.2111 72.0823 60.493 72.0823 63.1943C72.0823 65.8259 69.1135 74.0947 65.5928 76.2119ZM68.4553 81.9656L68.1265 81.5544L69.1428 80.2828C69.3653 80.361 69.6112 80.4087 69.8761 80.4087C70.3762 80.4087 70.8213 80.2482 71.1322 79.9982C70.3141 80.796 69.4143 81.4578 68.4553 81.9656ZM69.8761 79.6473C69.8135 79.6473 69.7574 79.6342 69.7001 79.6216C69.6756 79.6163 69.6488 79.6175 69.6267 79.6103C69.6094 79.6055 69.5975 79.5954 69.5813 79.5888C69.3785 79.5112 69.2341 79.3615 69.2341 79.183C69.2341 79.0046 69.3785 78.8548 69.5813 78.7773C69.5975 78.7707 69.6094 78.7606 69.6267 78.7558C69.6488 78.7486 69.6756 78.7498 69.7001 78.7445C69.7574 78.7319 69.8129 78.7188 69.8761 78.7188C70.2306 78.7188 70.5182 78.9264 70.5182 79.1824C70.5182 79.4384 70.2306 79.6473 69.8761 79.6473ZM59.1965 83.9258C59.1965 84.1824 58.9101 84.3895 58.5556 84.3895C58.5556 84.3895 58.5556 84.3895 58.5544 84.3895C58.4936 84.3895 58.4381 84.3764 58.382 84.3644C58.1128 84.3083 57.9136 84.1371 57.9136 83.9258C57.9136 83.6973 58.1457 83.5159 58.4464 83.4777C58.4733 83.4741 58.499 83.4669 58.527 83.4658C58.5377 83.4658 58.5455 83.4616 58.5562 83.4616C58.9101 83.4616 59.1965 83.6692 59.1965 83.9258ZM64.1696 86.8217C63.8164 86.8217 63.5287 86.6141 63.5287 86.3581C63.5287 86.1021 63.8164 85.8944 64.1696 85.8944C64.5253 85.8944 64.8117 86.1021 64.8117 86.3581C64.8117 86.6141 64.5253 86.8217 64.1696 86.8217ZM63.9775 51.8183C70.4693 51.8183 75.7676 58.6037 75.9436 67.0313C75.9472 67.1745 75.952 67.3171 75.952 67.4615C75.952 72.4543 74.1499 76.9053 71.353 79.7714C71.4873 79.5966 71.5708 79.3973 71.5708 79.1836C71.5708 78.6203 71.0392 78.1495 70.3225 78.0057C70.1793 77.9777 70.0313 77.9574 69.8761 77.9574C68.9918 77.9574 68.2721 78.4514 68.1969 79.0768H66.149L65.4729 78.2289C70.3798 76.4542 73.8724 66.4578 73.8724 63.1943C73.8724 59.3962 69.5252 56.4209 63.9763 56.4209C58.4261 56.4209 54.0802 59.3956 54.0802 63.1943C54.0802 66.5265 57.7214 76.8743 62.7912 78.3267L62.1921 79.0768H60.2354C60.1596 78.4514 59.4394 77.9574 58.5562 77.9574C58.012 77.9574 57.5304 78.1477 57.2207 78.4383C56.9994 78.646 56.8615 78.902 56.8615 79.1836C56.8615 79.8585 57.6223 80.4087 58.5562 80.4087C58.7925 80.4087 59.0163 80.3729 59.2204 80.3097L60.2145 81.5544L59.7729 82.1076C55.2486 79.8848 52.0179 74.1843 52.0018 67.5117C52.0018 67.495 52.0006 67.4782 52.0006 67.4621C52 58.8358 57.3729 51.8183 63.9775 51.8183Z" fill="#040101"/>
<path d="M90.5507 70.1552C90.2499 70.0269 89.8966 70.166 89.7671 70.4697C81.7931 89.161 65.3037 90.8885 64.0208 90.9935C41.4907 85.7805 37.6389 67.0141 37.6031 66.8249C37.541 66.5015 37.2265 66.2873 36.9049 66.3511C36.5821 66.4132 36.369 66.7252 36.4305 67.0487C36.4681 67.2456 40.4512 86.8117 63.8417 92.1769L63.9235 92.1954L64.0064 92.1912C64.1884 92.181 82.3057 91.0025 90.8663 70.9381C90.9946 70.6344 90.8538 70.2841 90.5507 70.1552Z" fill="#5E5E5E"/>
<path d="M36.4222 65.2029C36.7795 65.2029 37.0691 64.9133 37.0691 64.556C37.0691 64.1988 36.7795 63.9092 36.4222 63.9092C36.065 63.9092 35.7754 64.1988 35.7754 64.556C35.7754 64.9133 36.065 65.2029 36.4222 65.2029Z" fill="#5E5E5E"/>
<path d="M64.1884 53.0359C64.2493 53.0419 70.321 53.6846 73.2736 60.0958C73.3237 60.205 73.4323 60.2694 73.5439 60.2694C73.5857 60.2694 73.6293 60.2605 73.6687 60.242C73.819 60.1734 73.8841 59.9961 73.8154 59.8464C70.7208 53.126 64.3084 52.4481 64.2445 52.4422C64.0792 52.4243 63.9342 52.5472 63.9193 52.7107C63.9038 52.8754 64.0237 53.021 64.1884 53.0359Z" fill="#3E3633"/>
<path d="M60.0586 83.2712H62.7993L64.1688 84.988L65.5395 83.2712H68.2809L67.572 82.3839L66.9102 81.555L68.2809 79.8388H65.5395L64.1688 78.1221L62.7993 79.8388H60.0586L61.4287 81.555L60.0586 83.2712Z" fill="#FDB71E"/>
<path d="M64.1675 77.3367C64.5221 77.3367 64.8095 77.1288 64.8095 76.8724C64.8095 76.616 64.5221 76.4082 64.1675 76.4082C63.8129 76.4082 63.5254 76.616 63.5254 76.8724C63.5254 77.1288 63.8129 77.3367 64.1675 77.3367Z" fill="#FDB71E"/>
<path d="M64.1702 86.8209C64.5242 86.8209 64.8111 86.6133 64.8111 86.3572C64.8111 86.1011 64.5242 85.8936 64.1702 85.8936C63.8163 85.8936 63.5293 86.1011 63.5293 86.3572C63.5293 86.6133 63.8163 86.8209 64.1702 86.8209Z" fill="#FDB71E"/>
<path d="M69.8745 84.3892C70.2291 84.3892 70.5166 84.1816 70.5166 83.9256C70.5166 83.6695 70.2291 83.4619 69.8745 83.4619C69.5199 83.4619 69.2324 83.6695 69.2324 83.9256C69.2324 84.1816 69.5199 84.3892 69.8745 84.3892Z" fill="#FDB71E"/>
<path d="M69.8745 78.7188C69.8118 78.7188 69.7558 78.7319 69.6985 78.7444C69.674 78.7498 69.6471 78.7486 69.625 78.7558C69.6077 78.7605 69.5958 78.7707 69.5797 78.7772C69.3768 78.8548 69.2324 79.0046 69.2324 79.183C69.2324 79.3614 69.3768 79.5112 69.5797 79.5888C69.5958 79.5953 69.6077 79.6055 69.625 79.6103C69.6471 79.6174 69.674 79.6162 69.6985 79.6216C69.7558 79.6341 69.8112 79.6473 69.8745 79.6473C70.2289 79.6473 70.5166 79.4396 70.5166 79.1836C70.5166 78.9276 70.2289 78.7188 69.8745 78.7188Z" fill="#FDB71E"/>
<path d="M58.5548 83.4609C58.5441 83.4609 58.5363 83.4651 58.5256 83.4651C58.4975 83.4663 58.4718 83.4735 58.445 83.477C58.1442 83.5152 57.9121 83.6966 57.9121 83.9252C57.9121 84.1364 58.1114 84.3083 58.3806 84.3638C58.4367 84.3757 58.4927 84.3888 58.553 84.3888C58.5542 84.3888 58.5542 84.3888 58.5542 84.3888C58.9087 84.3888 59.1951 84.1812 59.1951 83.9252C59.1951 83.6692 58.9093 83.4609 58.5548 83.4609Z" fill="#FDB71E"/>
<path d="M58.445 79.6306C58.4826 79.6353 58.5148 79.6461 58.5536 79.6461C58.5548 79.6461 58.5548 79.6461 58.5548 79.6461C58.9093 79.6461 59.1957 79.4384 59.1957 79.1824C59.1957 78.9264 58.9093 78.7188 58.5548 78.7188C58.5548 78.7188 58.5548 78.7188 58.5536 78.7188C58.5154 78.7188 58.4826 78.7301 58.445 78.7343C58.1442 78.7725 57.9121 78.9539 57.9121 79.1824C57.9121 79.411 58.1448 79.5924 58.445 79.6306Z" fill="#FDB71E"/>
<path d="M22.873 103.132C22.873 110.035 28.4695 115.633 35.373 115.634C42.2766 115.636 47.873 110.04 47.873 103.137C47.873 96.2332 42.2766 90.6356 35.373 90.6342C28.4695 90.6328 22.873 96.2282 22.873 103.132Z" fill="#F4B492"/>
<path fill-rule="evenodd" clip-rule="evenodd" d="M35.373 88.6338C43.3812 88.6354 49.873 95.1286 49.873 103.137C49.873 111.145 43.3812 117.635 35.373 117.634C27.3649 117.632 20.873 111.139 20.873 103.131C20.873 95.1227 27.3649 88.6321 35.373 88.6338ZM45.4425 103.136C45.4425 97.5746 40.9342 93.0654 35.373 93.0643C29.8118 93.0632 25.3036 97.5705 25.3036 103.132C25.3036 108.693 29.8118 113.202 35.373 113.203C40.9342 113.204 45.4425 108.697 45.4425 103.136Z" fill="black"/>
<path d="M80.873 103.132C80.873 110.035 86.4695 115.633 93.373 115.634C100.277 115.636 105.873 110.04 105.873 103.137C105.873 96.2332 100.277 90.6356 93.373 90.6342C86.4695 90.6328 80.873 96.2282 80.873 103.132Z" fill="#F4B492"/>
<path fill-rule="evenodd" clip-rule="evenodd" d="M93.373 88.6338C101.381 88.6354 107.873 95.1286 107.873 103.137C107.873 111.145 101.381 117.635 93.373 117.634C85.3649 117.632 78.873 111.139 78.873 103.131C78.873 95.1227 85.3649 88.6321 93.373 88.6338ZM103.442 103.136C103.442 97.5746 98.9342 93.0654 93.373 93.0643C87.8118 93.0632 83.3036 97.5705 83.3036 103.132C83.3036 108.693 87.8118 113.202 93.373 113.203C98.9342 113.204 103.442 108.697 103.442 103.136Z" fill="black"/>
</svg>
