<svg width="256" height="256" viewBox="0 0 256 256" fill="none" xmlns="http://www.w3.org/2000/svg">
<path d="M50.6055 93.9039C50.6055 93.9039 62.0821 55.6674 89.8646 47.7133C89.8646 47.7133 108.841 42.4864 109.011 52.3153C109.011 52.3153 107.136 64.1328 84.2967 66.8031C61.4571 69.4734 50.6055 93.9039 50.6055 93.9039Z" fill="#F15A29"/>
<path d="M135.715 54.2462C135.715 54.2462 161.793 71.7452 165.827 108.789C169.804 145.832 146.908 150.718 136.681 150.491C126.454 150.263 110.262 114.3 81.6273 119.697C56.8561 124.356 46.5726 152.934 78.2753 177.762C109.978 202.59 151.737 178.898 160.6 168.785C169.463 158.672 207.472 103.391 135.715 54.2462Z" fill="#F15A29"/>
<path d="M152.533 102.88C152.533 102.88 149.465 111.516 136.284 114.3C123.103 117.027 125.659 131.514 132.761 135.492C141.681 140.434 156.68 131.003 152.533 102.88Z" fill="#F15A29"/>
<path d="M196.446 141.684C196.446 141.684 189.117 151.116 191.106 156.57C193.037 162.081 201.162 164.524 204.23 157.422C204.173 157.479 208.718 151.797 196.446 141.684Z" fill="#F15A29"/>
<path d="M164.688 69.3021C164.688 69.3021 179.175 84.3581 180.993 113.731C180.993 113.731 180.539 129.64 189.743 127.708C199.458 125.662 198.492 95.7211 164.688 69.3021Z" fill="#F15A29"/>
<path d="M113.898 51.1782C113.898 51.1782 116.682 46.633 121 46.5762C123.671 46.5194 125.943 48.7352 125.886 51.3487C125.886 52.6554 125.375 54.019 123.727 54.928C122.25 55.7234 120.489 55.7802 118.898 55.2689C117.194 54.7007 114.807 53.5076 113.898 51.1782Z" fill="#F15A29"/>
<path d="M172.586 155.32C172.586 155.32 171.279 164.978 163.893 170.887C156.45 176.796 160.598 183.841 164.688 184.864C168.779 185.943 177.528 183.273 172.586 155.32Z" fill="#F15A29"/>
<path d="M131.451 194.068C131.451 194.068 125.485 200.545 112.645 199.636C106.282 199.181 100.203 196.965 94.9188 193.443C89.0669 189.522 78.7834 183.955 74.6359 190.034C68.784 198.726 79.4084 208.612 96.4528 209.351C113.497 210.089 131.451 194.068 131.451 194.068Z" fill="#F15A29"/>
<path d="M97.703 172.137C87.7036 165.547 79.6927 156.002 75.0907 144.923C73.5567 141.287 67.5343 142.877 69.0683 146.57C74.3521 159.24 83.1016 169.921 94.5782 177.534C97.9303 179.75 101.055 174.353 97.703 172.137Z" fill="#ED8E74"/>
<path d="M95.2617 49.701C91.2279 49.701 91.2279 55.9507 95.2617 55.9507C99.2956 55.9507 99.2956 49.701 95.2617 49.701Z" fill="#ED8E74"/>
<path d="M191.618 113.277C190.482 109.47 189.346 105.72 188.209 101.914C187.073 98.0505 181.051 99.6981 182.187 103.562C183.323 107.368 184.46 111.118 185.596 114.925C186.732 118.788 192.754 117.197 191.618 113.277Z" fill="#ED8E74"/>
</svg>
