<svg width="128" height="128" viewBox="0 0 48 31" fill="none" xmlns="http://www.w3.org/2000/svg">
<path d="M18.9912 5.31556C18.5551 4.90259 17.9473 4.72393 17.3571 4.8352C16.7669 4.94648 16.266 5.33417 16.0102 5.87758L10.9545 16.6188C10.5858 17.4022 10.8024 18.3362 11.4783 18.8773L14.6387 21.4077C15.0941 21.7724 15.6936 21.9038 16.2598 21.7632C16.8261 21.6226 17.2944 21.226 17.5264 20.6907L20.6552 13.4703C20.6554 13.47 20.6555 13.4697 20.6556 13.4694C21.8711 10.6718 21.206 7.41303 18.9912 5.31556Z" fill="#FF6136" stroke="#333333" stroke-width="3.74403" stroke-linejoin="round"/>
<path d="M17.6813 19.9462C17.6813 19.3778 17.4231 18.8402 16.9793 18.4849L14.6085 16.5867L15.7777 4.32194C15.8277 3.79707 15.6541 3.27544 15.2995 2.88525C14.9449 2.49506 14.4422 2.2725 13.9149 2.27228C11.0088 2.27102 8.2473 3.54103 6.35644 5.74833C6.3563 5.7485 6.35615 5.74867 6.356 5.74884L5.71153 6.50073C5.71147 6.5008 5.71142 6.50086 5.71136 6.50093C5.71125 6.50105 5.71115 6.50117 5.71105 6.50129C0.868497 12.147 1.01754 20.5227 6.05712 25.9929C6.05728 25.993 6.05743 25.9932 6.05759 25.9934C6.0577 25.9935 6.05782 25.9936 6.05793 25.9937L7.47594 27.5346C7.83042 27.9198 8.32997 28.139 8.85344 28.139H14.5441C15.2531 28.139 15.9013 27.7384 16.2184 27.1043C17.1795 25.1827 17.6807 23.064 17.6813 20.9149V20.9143V19.9462Z" fill="#FF3F26" stroke="#333333" stroke-width="3.74403" stroke-linejoin="round"/>
<path d="M7.65276 11.5469L6.73438 11.0936C7.15437 10.2408 7.67839 9.44327 8.29462 8.71948L9.07423 9.38534C8.51329 10.0446 8.03591 10.7704 7.65276 11.5469Z" fill="#FF8D6E"/>
<path d="M9.72545 8.62986L8.94434 7.96754C9.40737 7.42257 9.9575 6.95846 10.5726 6.59326L11.0982 7.47377C10.5798 7.78056 10.1163 8.17139 9.72545 8.62986Z" fill="#FF8D6E"/>
<path d="M6.60795 14.3889H5.5835V15.4134H6.60795V14.3889Z" fill="#FF8D6E"/>
<path d="M8.65714 15.4131H7.63269V16.4375H8.65714V15.4131Z" fill="#FF8D6E"/>
<path d="M7.63249 18.4863H6.60803V19.5108H7.63249V18.4863Z" fill="#FF8D6E"/>
<path d="M6.60795 16.4375H5.5835V17.462H6.60795V16.4375Z" fill="#FF8D6E"/>
<path d="M28.517 5.31556C28.9531 4.90259 29.5609 4.72393 30.1511 4.8352C30.7413 4.94648 31.2422 5.33417 31.498 5.87758L36.5536 16.6188C36.9224 17.4022 36.7058 18.3362 36.0299 18.8773L32.8695 21.4077C32.414 21.7724 31.8146 21.9038 31.2483 21.7632C30.6821 21.6226 30.2138 21.226 29.9818 20.6907L26.8529 13.4703C26.8528 13.47 26.8527 13.4697 26.8525 13.4694C25.6371 10.6718 26.3021 7.41303 28.517 5.31556Z" fill="#FF6136" stroke="#333333" stroke-width="3.74403" stroke-linejoin="round"/>
<path d="M29.8269 19.9462C29.8269 19.3778 30.0851 18.8402 30.5288 18.4849L32.8997 16.5867L31.7305 4.32194C31.6805 3.79707 31.8541 3.27544 32.2087 2.88525C32.5633 2.49506 33.066 2.2725 33.5932 2.27228C36.4994 2.27102 39.2609 3.54103 41.1517 5.74833C41.1519 5.7485 41.152 5.74867 41.1522 5.74884L41.7966 6.50073C41.7967 6.5008 41.7968 6.50086 41.7968 6.50093C41.7969 6.50105 41.797 6.50117 41.7971 6.50129C46.6397 12.147 46.4906 20.5227 41.4511 25.9929C41.4509 25.993 41.4507 25.9932 41.4506 25.9934C41.4505 25.9935 41.4504 25.9936 41.4502 25.9937L40.0322 27.5346C39.6778 27.9198 39.1782 28.139 38.6547 28.139H32.964C32.255 28.139 31.6069 27.7384 31.2897 27.1043C30.3286 25.1827 29.8275 23.064 29.8269 20.9149V20.9143V19.9462Z" fill="#FF3F26" stroke="#333333" stroke-width="3.74403" stroke-linejoin="round"/>
<path d="M39.8554 11.5469L40.7738 11.0936C40.3538 10.2408 39.8298 9.44327 39.2136 8.71948L38.434 9.38534C38.9949 10.0446 39.4723 10.7704 39.8554 11.5469Z" fill="#FF8D6E"/>
<path d="M37.7827 8.62986L38.5638 7.96754C38.1008 7.42257 37.5507 6.95846 36.9355 6.59326L36.41 7.47377C36.9283 7.78056 37.3919 8.17139 37.7827 8.62986Z" fill="#FF8D6E"/>
<path d="M40.9002 14.3889H41.9247V15.4134H40.9002V14.3889Z" fill="#FF8D6E"/>
<path d="M38.8512 15.4131H39.8756V16.4375H38.8512V15.4131Z" fill="#FF8D6E"/>
<path d="M39.8757 18.4863H40.9001V19.5108H39.8757V18.4863Z" fill="#FF8D6E"/>
<path d="M40.9002 16.4375H41.9247V17.462H40.9002V16.4375Z" fill="#FF8D6E"/>
</svg>
