<svg width="129" height="129" viewBox="0 0 129 129" fill="none" xmlns="http://www.w3.org/2000/svg">
<path d="M34.3554 46.6152C34.3554 63.6912 48.1982 77.5335 65.2741 77.5329C82.3501 77.5323 96.1929 63.689 96.1929 46.6131C96.1929 29.5371 82.3501 15.6948 65.2741 15.6954C48.1982 15.696 34.3554 29.5393 34.3554 46.6152Z" fill="url(#paint0_linear)"/>
<path fill-rule="evenodd" clip-rule="evenodd" d="M92.6128 46.6133C92.6128 31.5146 80.3729 19.2751 65.2742 19.2756C50.1754 19.2761 37.9355 31.5165 37.9355 46.6152C37.9355 61.7139 50.1754 73.9534 65.2742 73.9529C80.3729 73.9524 92.6128 61.712 92.6128 46.6133ZM65.2742 12.1155C84.3273 12.1148 99.7729 27.5599 99.7729 46.6131C99.7729 65.6662 84.3273 81.1124 65.2742 81.1131C46.221 81.1137 30.7754 65.6686 30.7754 46.6155C30.7754 27.5623 46.221 12.1161 65.2742 12.1155Z" fill="#1D0F00"/>
<path d="M25.7754 71.6169C25.7754 92.8799 43.0124 110.116 64.2754 110.116C85.5383 110.115 102.775 92.8772 102.775 71.6143C102.775 50.3513 85.5384 33.1149 64.2754 33.1156C43.0124 33.1163 25.7754 50.354 25.7754 71.6169Z" fill="url(#paint1_linear)"/>
<mask id="mask0" mask-type="alpha" maskUnits="userSpaceOnUse" x="26" y="33" width="77" height="78">
<path d="M26 71.6169C26 92.8799 43.237 110.116 64.5 110.116C85.763 110.115 103 92.8772 103 71.6143C103 50.3513 85.763 33.1149 64.5 33.1156C43.237 33.1163 26 50.354 26 71.6169Z" fill="url(#paint2_linear)"/>
</mask>
<g mask="url(#mask0)">
<path d="M88.4961 30.8602C66.0201 17.8837 37.2801 25.5846 24.3036 48.0606C11.3271 70.5366 19.0279 99.2765 41.5039 112.253C63.9799 125.23 92.7199 117.529 105.696 95.0527C118.673 72.5767 110.972 43.8368 88.4961 30.8602ZM100.546 51.2165C108.162 64.5745 107.339 80.4275 99.8579 92.7092L75.006 76.534C76.628 73.3336 76.6966 69.4128 74.8546 66.0645L100.546 51.2165ZM65.3524 29.6535L65.3541 60.277C63.29 60.216 61.2499 60.7318 59.4629 61.7665C57.9301 62.6495 56.6307 63.8863 55.673 65.3735L29.2561 51.9487C32.7277 45.5547 37.8514 39.9308 44.6135 36.0256C50.4623 32.6483 58.6022 29.8439 65.3535 29.6541L65.3524 29.6535ZM68.7481 65.09C69.8588 65.7374 70.7802 66.665 71.4201 67.7801C73.4662 71.2959 72.2561 75.8053 68.7248 77.8244C65.2121 79.8711 60.7045 78.6625 58.687 75.1329C56.6392 71.6187 57.8462 67.1091 61.3756 65.0876C63.6543 63.7611 66.4702 63.7621 68.7481 65.09ZM65.3066 82.6373L65.2917 112.311C58.2149 112.077 49.707 109.932 43.6501 106.222C38.0958 102.82 33.3403 98.0823 29.8255 92.0724L55.5021 77.2733C57.6372 80.7807 61.437 82.7155 65.3066 82.6373Z" fill="black" fill-opacity="0.555556"/>
</g>
<path d="M23.9902 102.611C23.9902 109.395 29.4903 114.895 36.2749 114.896C43.0595 114.897 48.5596 109.399 48.5596 102.616C48.5596 95.8329 43.0595 90.3329 36.2749 90.3315C29.4903 90.3302 23.9902 95.828 23.9902 102.611Z" fill="url(#paint3_linear)"/>
<path fill-rule="evenodd" clip-rule="evenodd" d="M36.2754 88.1172C44.2835 88.1188 50.7754 94.6107 50.7754 102.617C50.7754 110.624 44.2835 117.113 36.2754 117.111C28.2674 117.11 21.7755 110.618 21.7755 102.611C21.7755 94.6047 28.2674 88.1155 36.2754 88.1172ZM46.3449 102.616C46.3449 97.0562 41.8366 92.5479 36.2754 92.5468C30.7143 92.5457 26.206 97.0521 26.206 102.612C26.206 108.172 30.7143 112.68 36.2754 112.682C41.8366 112.683 46.3449 108.176 46.3449 102.616Z" fill="black"/>
<path d="M80.9902 102.611C80.9902 109.395 86.4903 114.895 93.2749 114.896C100.06 114.897 105.56 109.399 105.56 102.616C105.56 95.8329 100.06 90.3329 93.2749 90.3315C86.4903 90.3302 80.9902 95.828 80.9902 102.611Z" fill="url(#paint4_linear)"/>
<path fill-rule="evenodd" clip-rule="evenodd" d="M93.2754 88.1172C101.284 88.1188 107.775 94.6107 107.775 102.617C107.775 110.624 101.284 117.113 93.2754 117.111C85.2674 117.11 78.7755 110.618 78.7755 102.611C78.7755 94.6047 85.2674 88.1155 93.2754 88.1172ZM103.345 102.616C103.345 97.0562 98.8366 92.5479 93.2754 92.5468C87.7143 92.5457 83.206 97.0521 83.206 102.612C83.206 108.172 87.7143 112.68 93.2754 112.682C98.8366 112.683 103.345 108.176 103.345 102.616Z" fill="black"/>
<defs>
<linearGradient id="paint0_linear" x1="96.1929" y1="46.6131" x2="34.3554" y2="46.6131" gradientUnits="userSpaceOnUse">
<stop stop-color="#121F04"/>
<stop offset="1" stop-color="#264108"/>
</linearGradient>
<linearGradient id="paint1_linear" x1="102.775" y1="71.6143" x2="25.7754" y2="71.6143" gradientUnits="userSpaceOnUse">
<stop stop-color="#194013"/>
<stop offset="1" stop-color="#2B6E21"/>
</linearGradient>
<linearGradient id="paint2_linear" x1="103" y1="71.6143" x2="26" y2="71.6143" gradientUnits="userSpaceOnUse">
<stop stop-color="#194013"/>
<stop offset="1" stop-color="#2B6E21"/>
</linearGradient>
<linearGradient id="paint3_linear" x1="42.3592" y1="112.671" x2="28.6646" y2="93.3098" gradientUnits="userSpaceOnUse">
<stop stop-color="#387512"/>
<stop offset="1" stop-color="#61CA1F"/>
</linearGradient>
<linearGradient id="paint4_linear" x1="99.3592" y1="112.671" x2="85.6646" y2="93.3098" gradientUnits="userSpaceOnUse">
<stop stop-color="#387512"/>
<stop offset="1" stop-color="#61CA1F"/>
</linearGradient>
</defs>
</svg>
