<svg width="128" height="128" viewBox="0 0 128 128" fill="none" xmlns="http://www.w3.org/2000/svg">
<path d="M7 64.509C7 52.0826 17.0736 42.007 29.5 42.0045C41.9264 42.002 52 52.0736 52 64.5C52 76.9264 41.9264 87.002 29.5 87.0045C17.0736 87.007 7 76.9354 7 64.509Z" fill="#79A434"/>
<path d="M10 61.3308C20.0636 55.9058 37.9545 54.6538 51 63" stroke="#45680B" stroke-width="3"/>
<path d="M10 55.7744C20.0636 48.541 37.9545 46.8718 51 58" stroke="#45680B" stroke-width="3"/>
<path d="M10 64.7218C20.0636 63.8176 37.9545 63.609 51 65" stroke="#45680B" stroke-width="3"/>
<path d="M10 71.1128C19.5727 74.7295 36.5909 75.5641 49 70" stroke="#45680B" stroke-width="3"/>
<path d="M10 76.391C19.5727 80.9119 36.5909 81.9551 49 75" stroke="#45680B" stroke-width="3"/>
<path fill-rule="evenodd" clip-rule="evenodd" d="M47.8275 64.5016C47.8275 74.6364 39.6156 82.8423 29.5 82.8443C19.3844 82.8463 11.1725 74.6437 11.1725 64.5089C11.1725 54.3742 19.3844 46.1683 29.5 46.1663C39.6156 46.1643 47.8275 54.3669 47.8275 64.5016ZM29.5 91.0053C44.1419 91.0024 56 79.1291 56 64.5C56 49.8709 44.142 38.0024 29.5 38.0053C14.8581 38.0082 3 49.8814 3 64.5106C3 79.1397 14.8581 91.0082 29.5 91.0053Z" fill="black"/>
<path d="M77 64.509C77 52.0826 87.0736 42.007 99.5 42.0045C111.926 42.002 122 52.0736 122 64.5C122 76.9264 111.926 87.002 99.5 87.0045C87.0736 87.007 77 76.9354 77 64.509Z" fill="#79A434"/>
<path d="M80 61.3308C90.0636 55.9058 107.955 54.6538 121 63" stroke="#45680B" stroke-width="3"/>
<path d="M80 55.7744C90.0636 48.541 107.955 46.8718 121 58" stroke="#45680B" stroke-width="3"/>
<path d="M80 64.7218C90.0636 63.8176 107.955 63.609 121 65" stroke="#45680B" stroke-width="3"/>
<path d="M80 71.1128C89.5727 74.7295 106.591 75.5641 119 70" stroke="#45680B" stroke-width="3"/>
<path d="M80 76.391C89.5727 80.9119 106.591 81.9551 119 75" stroke="#45680B" stroke-width="3"/>
<path fill-rule="evenodd" clip-rule="evenodd" d="M117.828 64.5016C117.828 74.6364 109.616 82.8423 99.5 82.8443C89.3844 82.8463 81.1725 74.6437 81.1725 64.5089C81.1725 54.3742 89.3844 46.1683 99.5 46.1663C109.616 46.1643 117.828 54.3669 117.828 64.5016ZM99.5 91.0053C114.142 91.0024 126 79.1291 126 64.5C126 49.8709 114.142 38.0024 99.5 38.0053C84.8581 38.0082 73 49.8814 73 64.5106C73 79.1397 84.8581 91.0082 99.5 91.0053Z" fill="black"/>
</svg>
