<svg width="129" height="129" viewBox="0 0 129 129" fill="none" xmlns="http://www.w3.org/2000/svg">
<mask id="mask0" mask-type="alpha" maskUnits="userSpaceOnUse" x="0" y="0" width="129" height="129">
<rect x="0.941406" y="0.717773" width="128" height="128" fill="#C4C4C4"/>
</mask>
<g mask="url(#mask0)">
<path d="M42.0547 118.218C38.5547 119.218 25.5547 118.218 18.5554 106.718C20.7221 108.218 25.9554 111.218 29.5554 111.218C24.7221 107.384 14.4554 96.5178 12.0554 83.7178C13.5554 85.3844 17.8554 89.0178 23.0554 90.2178C16.7325 82.231 5.99085 60.1906 13.518 35.8384C13.53 35.7967 13.5425 35.7565 13.5554 35.7178C13.5429 35.758 13.5304 35.7982 13.518 35.8384C12.9088 37.9507 13.4935 43.8726 20.5547 51.7178C21.888 46.8844 26.2547 36.4178 33.0547 33.2178C39.8547 30.0178 41.2214 18.2178 41.0547 12.7178C42.7214 17.2178 45.5547 27.6178 43.5547 33.2178C49.888 29.7178 63.1547 19.1178 65.5547 4.71777C65.888 9.71777 70.6547 22.4178 87.0547 33.2178C85.388 28.5511 83.0547 17.9178 87.0547 12.7178C86.888 16.2178 88.5547 25.2178 96.5547 33.2178C106.555 43.2178 108.555 48.2178 109.555 53.2178C111.555 50.7178 115.455 44.3178 115.055 38.7178C118.388 49.3844 121.255 74.6178 106.055 90.2178C108.221 90.2178 113.455 89.2178 117.055 85.2178C114.221 92.0511 106.155 106.818 96.5547 111.218C98.388 111.884 103.355 112.718 108.555 110.718C106.555 113.218 94.1547 118.218 84.5547 118.218C90.5547 114.384 106.755 103.118 99.5547 88.7178C103.388 78.3844 104.869 59.431 93.5547 48.2178C80.9414 35.7178 69.9414 38.7178 65.5547 26.7178C59.9414 40.2178 46.4414 35.7178 35.0547 49.7178C30.988 54.7178 21.5559 66.3178 29.5554 88.7178C28.389 95.2178 32.4552 110.218 42.0547 118.218Z" fill="white"/>
<path fill-rule="evenodd" clip-rule="evenodd" d="M64.1969 115.718V121.718L61.1969 121.218V115.718L58.1969 115.218V120.218L55.1969 119.218V113.218L52.6969 112.718L52.1969 117.718L49.6969 116.718V108.718H44.1969C42.1969 108.718 37.5969 107.518 35.1969 102.718C32.1969 96.7178 32.6969 93.7178 36.1969 91.7178C36.0299 88.2178 36.3958 80.8178 39.1958 79.2178C41.9958 77.6178 41.0291 72.2178 40.1958 69.7178C40.1958 72.5511 39.5958 78.1178 37.1958 77.7178C34.7958 77.3178 34.1958 84.5511 34.1958 88.2178C29.5299 72.2178 28.9978 40.2178 64.1969 40.2178C99.396 40.2178 99.5288 72.8844 95.1953 89.2178C95.362 85.0511 94.8953 76.7178 91.6953 76.7178C88.4953 76.7178 88.362 71.3844 88.6953 68.7178C87.6448 71.8844 86.4741 78.6178 90.1953 80.2178C93.9165 81.8178 93.4125 88.5511 92.6953 91.7178C95.362 92.8844 99.3953 96.7178 94.1953 102.718C88.9953 108.718 81.6953 109.218 78.6953 108.718V117.718L76.6953 119.218V114.218H74.6953V120.218L72.1953 121.218V114.218L69.6953 115.218V121.718H66.1953V115.718H64.1969ZM65.0195 92.7178C65.0195 92.7178 60.4195 101.518 60.0195 102.718C60.1295 102.456 60.4685 103.428 60.8623 104.557C61.2204 105.584 61.6238 106.741 61.9414 107.218L65.0195 105.718L67.9414 107.218C68.8633 105.718 69.9414 102.718 69.9414 102.718C69.9414 102.718 66.3529 94.7178 65.0195 92.7178ZM82.9418 83.7176L70.9418 88.2176C66.6755 89.8175 70.1638 95.051 71.9414 97.2178C72.2747 98.0511 73.9418 99.5178 81.9418 100.718C91.388 102.135 90.5727 93.7363 90.032 88.1658C90.0003 87.8392 89.9695 87.5223 89.9418 87.2176C89.5418 82.8176 85.1085 83.051 82.9418 83.7176ZM59.3238 88.2176L47.3238 83.7176C45.1571 83.051 40.7238 82.8176 40.3238 87.2176C40.2961 87.5223 40.2653 87.8392 40.2336 88.1658C39.6929 93.7363 38.8777 102.135 48.3238 100.718C56.3238 99.5178 57.9909 98.0511 58.3242 97.2178C60.1019 95.051 63.5901 89.8175 59.3238 88.2176Z" fill="white"/>
</g>
</svg>
