<svg width="256" height="256" viewBox="0 0 256 256" fill="none" xmlns="http://www.w3.org/2000/svg">
<path fill-rule="evenodd" clip-rule="evenodd" d="M48.521 221.996C45.238 224.334 41.151 225.504 36.8821 224.999C27.5584 223.895 20.8975 215.217 22.0045 205.615C22.7219 199.394 26.5249 194.311 31.6502 191.804C31.4793 190.603 31.4577 189.358 31.6036 188.092C32.4893 180.411 39.2095 174.895 46.6136 175.772C54.0177 176.648 59.302 183.586 58.4163 191.267C58.2277 192.903 57.7744 194.441 57.1061 195.839C64.2505 196.958 69.2822 203.757 68.4163 211.267C67.5307 218.948 60.8105 224.464 53.4064 223.587C51.6387 223.378 49.9919 222.823 48.521 221.996Z" fill="#C3FB3D"/>
<path fill-rule="evenodd" clip-rule="evenodd" d="M36.7444 164.018C31.2524 165.132 25.3375 164.264 20.1294 161.127C9.01222 154.429 5.32573 139.926 11.8953 128.733C16.12 121.535 23.5571 117.459 31.2843 117.247C31.7002 115.459 32.3881 113.705 33.3629 112.044C38.5339 103.232 49.8201 100.363 58.5713 105.637C67.3226 110.91 70.225 122.328 65.054 131.141C63.7957 133.285 62.1752 135.077 60.3173 136.486C60.4022 136.536 60.4869 136.586 60.5713 136.637C69.3226 141.91 72.225 153.328 67.054 162.141C61.8831 170.953 50.5968 173.821 41.8456 168.548C39.8239 167.33 38.1144 165.784 36.7444 164.018Z" fill="#C3FB3D"/>
<path fill-rule="evenodd" clip-rule="evenodd" d="M103.746 161.02C98.2534 162.135 92.3373 161.268 87.1282 158.129C76.0117 151.43 72.3248 136.926 78.8934 125.732C83.1182 118.532 90.5565 114.456 98.2847 114.246C98.7006 112.458 99.3884 110.705 100.363 109.044C105.534 100.232 116.82 97.3633 125.571 102.637C134.323 107.91 137.225 119.328 132.054 128.141C130.796 130.285 129.175 132.077 127.317 133.486C127.402 133.536 127.487 133.586 127.571 133.637C136.323 138.91 139.225 150.328 134.054 159.141C128.883 167.953 117.597 170.821 108.846 165.548C106.825 164.33 105.116 162.785 103.746 161.02Z" fill="#C3FB3D"/>
<path fill-rule="evenodd" clip-rule="evenodd" d="M123.433 96.2262C127.209 91.9677 132.526 89.0555 138.625 88.4232C151.535 87.0849 163.057 96.4681 164.36 109.381C165.196 117.661 161.628 125.381 155.558 130.208C156.226 131.828 156.673 133.572 156.858 135.406C157.884 145.572 150.478 154.667 140.315 155.72C130.152 156.774 121.082 149.387 120.055 139.222C119.831 137.001 120.009 134.831 120.531 132.785C110.69 133.391 102.055 126.125 101.055 116.222C100.029 106.056 107.436 96.9612 117.599 95.9076C119.604 95.6998 121.566 95.8204 123.433 96.2262Z" fill="#C3FB3D"/>
<path fill-rule="evenodd" clip-rule="evenodd" d="M167.696 142.337C171.603 146.549 174 152.238 174 158.5C174 171.479 163.703 182 151 182C142.903 182 135.783 177.725 131.685 171.264C130.04 171.743 128.3 172 126.5 172C116.283 172 108 163.717 108 153.5C108 143.283 116.283 135 126.5 135C128.416 135 130.265 135.291 132.003 135.832C132.001 135.722 132 135.611 132 135.5C132 125.283 140.283 117 150.5 117C160.717 117 169 125.283 169 135.5C169 137.915 168.537 140.222 167.696 142.337Z" fill="#C3FB3D"/>
<path fill-rule="evenodd" clip-rule="evenodd" d="M227.93 102.424C231.921 100.967 236.42 101.014 240.55 102.909C249.083 106.825 252.803 117.153 248.859 125.977C246.278 131.751 241.055 135.45 235.362 136.22C235.162 137.421 234.808 138.617 234.287 139.781C231.132 146.841 223.082 150.042 216.305 146.932C209.529 143.822 206.593 135.578 209.748 128.519C210.365 127.14 211.168 125.908 212.113 124.841C205.474 121.665 202.624 113.511 205.748 106.519C208.903 99.4602 216.954 96.2588 223.731 99.3688C225.364 100.118 226.774 101.166 227.93 102.424Z" fill="#B1E631"/>
<path fill-rule="evenodd" clip-rule="evenodd" d="M221.838 179.594C225.482 181.864 228.322 185.526 229.526 190.081C231.997 199.425 226.655 208.994 217.594 211.455C211.921 212.995 206.135 211.383 201.995 207.669C200.797 208.497 199.447 209.137 197.972 209.538C190.776 211.491 183.341 207.015 181.365 199.54C179.388 192.065 183.619 184.422 190.814 182.468C192.39 182.04 193.977 181.92 195.516 182.073C195.463 181.897 195.412 181.72 195.365 181.54C193.388 174.065 197.619 166.422 204.814 164.468C212.009 162.514 219.445 166.99 221.421 174.465C221.877 176.19 222.003 177.923 221.838 179.594Z" fill="#C3FB3D"/>
<path fill-rule="evenodd" clip-rule="evenodd" d="M149.723 227.871C149.832 232.65 148.228 237.48 144.851 241.334C137.754 249.434 125.51 250.16 117.504 242.957C112.355 238.323 110.213 231.537 111.229 225.129C109.897 224.502 108.632 223.671 107.478 222.632C101.114 216.906 100.529 207.045 106.171 200.607C111.812 194.168 121.544 193.591 127.908 199.317C129.287 200.557 130.394 201.992 131.226 203.544C136.876 197.165 146.565 196.61 152.908 202.317C159.271 208.043 159.857 217.904 154.215 224.342C152.907 225.836 151.378 227.014 149.723 227.871Z" fill="#B1E631"/>
<path fill-rule="evenodd" clip-rule="evenodd" d="M117.932 23.7285C118.836 19.0956 121.381 14.7703 125.421 11.7285C134.025 5.25102 146.153 7.04717 152.511 15.7403C156.567 21.2877 157.294 28.3031 155.052 34.3372C156.205 35.2147 157.254 36.273 158.157 37.5059C163.214 44.4128 161.768 54.1823 154.925 59.3269C148.083 64.4715 138.437 63.0429 133.38 56.1361C132.276 54.6283 131.482 52.984 130.986 51.2812C130.966 51.2965 130.946 51.3117 130.925 51.3269C124.083 56.4715 114.437 55.0429 109.38 48.1361C104.322 41.2292 105.769 31.4596 112.611 26.3151C114.257 25.0777 116.065 24.2206 117.932 23.7285Z" fill="#B1E631"/>
<path fill-rule="evenodd" clip-rule="evenodd" d="M195.188 41.5262C198.142 37.6376 202.542 34.8402 207.736 34.0246C218.375 32.3542 228.32 39.6302 229.947 50.276C230.969 56.956 228.473 63.3755 223.843 67.644C224.571 69.0753 225.086 70.6461 225.343 72.3219C226.637 80.784 220.83 88.7203 212.373 90.0481C203.916 91.3759 196.012 85.5924 194.718 77.1303C194.449 75.3715 194.487 73.6354 194.791 71.9766C194.653 72.0022 194.513 72.0261 194.373 72.0481C185.916 73.3759 178.012 67.5924 176.718 59.1303C175.424 50.6682 181.231 42.732 189.688 41.4042C191.571 41.1085 193.427 41.1655 195.188 41.5262Z" fill="#C3FB3D"/>
<path fill-rule="evenodd" clip-rule="evenodd" d="M41.788 71.1357C38.1711 69.9648 34.9625 67.4859 32.9206 63.902C28.5462 56.2241 31.183 46.3826 38.8101 41.9203C43.7597 39.0245 49.5946 39.1057 54.2768 41.6179C55.014 40.8861 55.8535 40.2351 56.7891 39.6877C62.7478 36.2016 70.3487 38.238 73.7662 44.2364C77.1837 50.2347 75.1237 57.9234 69.165 61.4096C67.8756 62.164 66.5092 62.6597 65.125 62.9127C68.025 68.8011 65.9019 76.0531 60.165 79.4096C54.2063 82.8957 46.6054 80.8592 43.1879 74.8609C42.5096 73.6704 42.0471 72.4133 41.788 71.1357Z" fill="#C3FB3D"/>
</svg>
