<svg width="256" height="256" viewBox="0 0 256 256" fill="none" xmlns="http://www.w3.org/2000/svg">
<path d="M224.09 40L214 34.9628L219.279 28.2466C220.237 27.0362 221.97 26.6457 223.376 27.3486L225.251 28.2857C226.658 28.9886 227.33 30.57 226.841 32.0147L224.09 40Z" fill="#7E5D55"/>
<path d="M251.979 77.1623L245.746 79.9524C243.576 80.922 241.229 81.4166 238.842 81.4166C230.538 81.4166 223.457 75.3617 222.136 67.1301C221.662 64.2015 222.017 61.2136 223.122 58.4632L225.726 52.052C229.118 43.6819 222.708 34.5797 213.714 35.015C209.552 35.2129 205.765 37.5082 203.654 41.1096L184.798 73.1653C181.721 78.3892 176.119 81.5947 170.084 81.5947C167.184 81.5947 164.324 80.8428 161.78 79.4379L159.235 78.033C156.888 76.727 154.186 79.1213 155.231 81.6145C158.801 90.321 167.263 96 176.652 96H185.153C191.701 96 197.875 92.9725 201.919 87.808C202.195 87.4518 202.53 87.1748 202.905 86.9769C203.023 81.8322 204.108 67.2092 208.408 57.5529C208.743 56.801 209.611 56.4646 210.36 56.801C211.11 57.1374 211.445 58.0081 211.11 58.76C207.027 67.9414 205.982 82.0498 205.863 86.9769C206.159 87.1352 206.455 87.3529 206.692 87.6299C211.485 92.9527 218.29 96 225.45 96H228.803C239.631 96 249.71 90.4595 255.529 81.2979C257.067 78.9234 254.562 76.0147 251.979 77.1623Z" fill="#FADA6D"/>
<path d="M210.156 57.1292C209.436 56.7962 208.603 57.1292 208.282 57.8735C204.174 67.4126 203.114 81.8877 203 87C203.89 86.5103 204.95 86.5103 205.84 87C205.953 82.1227 206.957 68.1765 210.875 59.0683C211.197 58.3436 210.875 57.4622 210.156 57.1292Z" fill="#EBAC40"/>
<g clip-path="url(#clip0)">
<path d="M80.446 209.916L85.7762 207.003L87.1232 211.399C87.364 212.195 87.004 213.08 86.2607 213.486L85.2696 214.027C84.5263 214.433 83.6201 214.245 83.1315 213.585L80.446 209.916Z" fill="#7E5D55"/>
<path d="M56.488 210.878L57.1536 207.358C57.386 206.134 57.8762 204.974 58.5913 203.946C61.0796 200.369 65.8104 199.131 69.7531 201.025C71.1568 201.697 72.3378 202.744 73.1919 204.043L75.1741 207.083C77.764 211.049 83.6068 211.011 86.1144 207.007C87.2762 205.154 87.422 202.836 86.5027 200.849L78.3412 183.134C77.0124 180.245 77.3098 176.873 79.1184 174.273C79.9872 173.024 81.1682 172.017 82.536 171.341L83.9038 170.666C85.1698 170.045 84.9479 168.165 83.5604 167.869C78.7392 166.802 73.7567 168.747 70.9434 172.792L68.396 176.454C66.4337 179.275 65.8882 182.84 66.9018 186.128C66.9725 186.353 66.9914 186.581 66.9644 186.801C69.1456 188.392 75.1212 193.235 77.9933 197.977C78.2168 198.346 78.1017 198.821 77.7322 199.043C77.3626 199.265 76.887 199.149 76.6635 198.78C73.931 194.273 68.1653 189.601 66.0778 188.076C65.9209 188.156 65.7385 188.218 65.5482 188.237C61.8185 188.709 58.4664 190.729 56.321 193.813L55.3162 195.257C52.0713 199.922 51.4384 205.922 53.6423 211.17C54.2043 212.543 56.2083 212.335 56.488 210.878Z" fill="#FADA6D"/>
<path d="M78.3041 198.865C78.6554 198.671 78.7473 198.227 78.5132 197.869C75.5074 193.281 69.4693 188.442 67.2622 186.84C67.2227 187.354 66.92 187.789 66.4515 188.005C68.5555 189.536 74.3783 194.191 77.2493 198.57C77.4748 198.922 77.9528 199.059 78.3041 198.865Z" fill="#EBAC40"/>
</g>
<g clip-path="url(#clip1)">
<path d="M60.1278 49.8587L52.7054 52.3124L52.0131 46.4484C51.8915 45.3884 52.5517 44.3522 53.5867 44.0105L54.9667 43.5549C56.0016 43.2132 57.106 43.6597 57.5725 44.6058L60.1278 49.8587Z" fill="#7E5D55"/>
<path d="M91.9255 54.5372L90.2058 59.0152C89.6064 60.5731 88.6818 61.9822 87.491 63.1641C83.348 67.2763 76.7984 67.7634 72.0378 64.313C70.3426 63.087 69.0311 61.4212 68.2118 59.5026L66.3166 55.0161C63.8391 49.1621 56.1058 47.7975 51.8352 52.4687C49.8574 54.6284 49.1115 57.6484 49.8528 60.4895L56.4158 85.8129C57.4833 89.9417 56.2856 94.3143 53.2743 97.3032C51.8277 98.7391 50.0261 99.7805 48.0567 100.34L46.0872 100.899C44.2655 101.41 44.1102 103.943 45.8739 104.668C51.9929 107.242 59.0441 105.884 63.7284 101.234L67.9698 97.0243C71.237 93.7814 72.8089 89.2143 72.2532 84.6365C72.2135 84.3222 72.2428 84.018 72.3311 83.7337C69.8269 81.1095 63.0827 73.2801 60.417 66.3354C60.2097 65.7944 60.4751 65.1968 61.0166 64.9934C61.5582 64.79 62.1592 65.0581 62.3666 65.5991C64.9039 72.1996 71.4115 79.7529 73.8073 82.2685C74.0338 82.201 74.2898 82.163 74.5459 82.1839C79.5893 82.4647 84.5026 80.6145 88.0749 77.0688L89.7478 75.4083C95.1505 70.0458 97.4188 62.2915 95.7573 54.8413C95.3419 52.8953 92.6429 52.6853 91.9255 54.5372Z" fill="#FADA6D"/>
<path d="M61.1398 64.48C60.5922 64.6952 60.3135 65.3002 60.5105 65.8388C63.0432 72.733 69.6405 80.4612 72.1093 83.0528C72.3407 82.3402 72.905 81.7801 73.6209 81.5525C71.2683 79.0773 64.9025 71.641 62.4821 65.0602C62.2949 64.5313 61.6875 64.2648 61.1398 64.48Z" fill="#EBAC40"/>
</g>
<g clip-path="url(#clip2)">
<path d="M133.331 217.873L141.034 225.135L134.596 230.372C133.429 231.314 131.783 231.28 130.71 230.267L129.278 228.916C128.205 227.903 128.012 226.216 128.82 224.936L133.331 217.873Z" fill="#7E5D55"/>
<path d="M115.87 175.806L122.552 174.697C124.878 174.313 127.251 174.432 129.534 175.04C137.48 177.154 142.696 184.807 141.84 193.098C141.539 196.048 140.43 198.845 138.665 201.221L134.523 206.753C129.121 213.978 132.911 224.405 141.629 226.274C145.662 227.142 149.876 225.888 152.823 222.946L179.12 196.772C183.409 192.507 189.594 190.836 195.369 192.373C198.143 193.111 200.686 194.566 202.759 196.571L204.832 198.576C206.741 200.436 209.943 198.81 209.585 196.135C208.411 186.813 201.777 179.171 192.794 176.781L184.66 174.617C178.395 172.95 171.708 174.303 166.509 178.264C166.153 178.538 165.761 178.72 165.352 178.816C163.914 183.757 159.11 197.611 152.509 205.847C151.995 206.488 151.078 206.592 150.447 206.076C149.817 205.56 149.72 204.634 150.234 203.993C156.505 196.16 161.139 182.794 162.521 178.063C162.278 177.835 162.051 177.549 161.896 177.221C158.681 170.858 152.955 166.181 146.104 164.358L142.896 163.504C132.535 160.747 121.464 163.535 113.538 170.906C111.454 172.809 113.102 176.258 115.87 175.806Z" fill="#FADA6D"/>
<path d="M151.166 205.928C151.776 206.435 152.666 206.327 153.169 205.691C159.595 197.53 164.347 183.815 165.774 178.905C164.788 179.149 163.763 178.876 163.029 178.174C161.664 182.858 157.103 196.076 150.97 203.869C150.473 204.487 150.557 205.421 151.166 205.928Z" fill="#EBAC40"/>
</g>
<g clip-path="url(#clip3)">
<path d="M94.6378 134.135L89.6991 132.486L89.23 136.4C89.1475 137.107 89.5857 137.8 90.2744 138.029L91.1926 138.335C91.8812 138.565 92.6172 138.268 92.9292 137.637L94.6378 134.135Z" fill="#7E5D55"/>
<path d="M116.226 131.609L115.112 128.621C114.724 127.582 114.118 126.644 113.332 125.859C110.599 123.127 106.232 122.833 103.028 125.164C101.888 125.993 101 127.114 100.438 128.401L99.1393 131.412C97.4412 135.34 92.2699 136.29 89.4556 133.186C88.1521 131.75 87.6774 129.733 88.1938 127.829L92.767 110.855C93.5109 108.088 92.745 105.168 90.7582 103.183C89.8037 102.229 88.6094 101.541 87.2993 101.176L85.9893 100.812C84.7774 100.478 84.6931 98.7851 85.8757 98.2911C89.9789 96.5398 94.6742 97.4146 97.7648 100.503L100.563 103.299C102.719 105.453 103.733 108.501 103.327 111.566C103.298 111.777 103.316 111.98 103.372 112.17C101.681 113.938 97.1205 119.208 95.2885 123.867C95.146 124.23 95.3186 124.629 95.6785 124.762C96.0383 124.896 96.4415 124.713 96.584 124.35C98.3277 119.922 102.728 114.838 104.346 113.143C104.497 113.187 104.667 113.211 104.839 113.196C108.206 112.984 111.471 114.198 113.828 116.553L114.932 117.656C118.497 121.218 119.951 126.395 118.785 131.387C118.493 132.691 116.691 132.845 116.226 131.609Z" fill="#E7C554"/>
<path d="M95.3324 124.848C94.968 124.703 94.7834 124.299 94.9152 123.94C96.6113 119.342 101.015 114.192 102.662 112.466C102.815 112.942 103.19 113.317 103.667 113.469C102.097 115.118 97.8477 120.073 96.227 124.462C96.1016 124.815 95.6968 124.992 95.3324 124.848Z" fill="#D39B3B"/>
</g>
<g clip-path="url(#clip4)">
<path d="M158.214 56.5557L155.817 63.2589L161.322 64.6349C162.317 64.8803 163.299 64.3848 163.633 63.45L164.078 62.2037C164.412 61.2689 164.006 60.1716 163.122 59.6146L158.214 56.5557Z" fill="#7E5D55"/>
<path d="M156.396 26.8048L152.121 28.0967C150.633 28.5472 149.263 29.3086 148.086 30.3317C143.99 33.8912 143.104 39.9213 145.997 44.559C147.024 46.2104 148.486 47.536 150.215 48.4229L154.259 50.4778C159.536 53.1633 160.293 60.4131 155.67 64.0533C153.532 65.7394 150.676 66.2274 148.084 65.3509L124.982 57.5792C121.216 56.3145 117.073 57.1302 114.096 59.7174C112.666 60.9603 111.579 62.5582 110.929 64.3437L110.278 66.1293C109.683 67.7813 107.319 67.7555 106.762 66.0742C104.774 60.2377 106.502 53.8017 111.133 49.7772L115.326 46.1331C118.556 43.3261 122.904 42.1771 127.122 42.9981C127.412 43.0559 127.696 43.0492 127.967 42.9864C130.24 45.4803 137.071 52.2477 143.349 55.1805C143.838 55.4086 144.411 55.203 144.636 54.7153C144.861 54.2277 144.651 53.6533 144.162 53.4252C138.195 50.6343 131.605 44.1044 129.426 41.7182C129.504 41.5131 129.556 41.2786 129.553 41.0401C129.626 36.3529 131.67 31.9288 135.201 28.8597L136.855 27.4224C142.196 22.7806 149.553 21.2004 156.367 23.2375C158.148 23.7525 158.165 26.2649 156.396 26.8048Z" fill="#E7C554"/>
<path d="M144.242 55.3351C144.049 55.7975 143.51 55.9716 143.032 55.7292C136.919 52.6168 130.083 45.7728 127.792 43.2487C128.426 43.1302 128.926 42.6955 129.131 42.0845C131.32 44.4904 137.897 51.0918 143.733 54.0651C144.202 54.2976 144.436 54.8728 144.242 55.3351Z" fill="#D39B3B"/>
</g>
<g clip-path="url(#clip5)">
<path d="M54.9107 140.417L53.8395 143.914L56.7616 144.797C57.2897 144.955 57.7907 144.719 57.9398 144.231L58.1387 143.58C58.2878 143.093 58.0447 142.498 57.5662 142.178L54.9107 140.417Z" fill="#7E5D55"/>
<path d="M54.5913 124.113L52.2838 124.846C51.481 125.102 50.7377 125.522 50.0956 126.08C47.8616 128.022 47.3252 131.25 48.8303 133.696C49.3649 134.567 50.1358 135.26 51.0547 135.716L53.2042 136.772C56.0089 138.152 56.3417 142.014 53.8236 144.004C52.6592 144.926 51.1216 145.215 49.7397 144.774L37.4211 140.859C35.4126 140.222 33.181 140.699 31.5572 142.111C30.7772 142.789 30.1777 143.652 29.8107 144.612L29.4438 145.572C29.1075 146.46 27.8393 146.47 27.557 145.578C26.5495 142.483 27.5423 139.03 30.0682 136.834L32.3552 134.847C34.117 133.316 36.4622 132.658 38.7174 133.054C38.8722 133.082 39.025 133.075 39.1705 133.039C40.3653 134.347 43.9624 137.891 47.3018 139.393C47.562 139.509 47.8715 139.394 47.9971 139.131C48.1227 138.869 48.0161 138.564 47.756 138.447C44.5822 137.018 41.112 133.599 39.9665 132.347C40.0103 132.237 40.0407 132.111 40.0418 131.984C40.1281 129.481 41.27 127.099 43.1962 125.425L44.0983 124.641C47.0115 122.109 50.9754 121.191 54.6117 122.209C55.5623 122.466 55.5458 123.807 54.5913 124.113Z" fill="#E7C554"/>
<path d="M48.2625 139.513C48.1318 139.774 47.8231 139.895 47.5691 139.787C44.3187 138.399 40.8507 135.021 39.6996 133.763C40.0586 133.667 40.3587 133.407 40.5034 133.065C41.6029 134.263 44.9392 137.522 48.0417 138.848C48.2914 138.952 48.3932 139.252 48.2625 139.513Z" fill="#D39B3B"/>
</g>
<g clip-path="url(#clip6)">
<path d="M209.671 171.772L206.608 169.768L204.946 172.327C204.648 172.79 204.736 173.336 205.163 173.615L205.733 173.988C206.16 174.267 206.799 174.199 207.24 173.829L209.671 171.772Z" fill="#7E5D55"/>
<path d="M225.428 176.01L225.366 173.591C225.344 172.749 225.147 171.919 224.789 171.147C223.545 168.461 220.592 167.046 217.822 167.809C216.836 168.079 215.956 168.626 215.262 169.38L213.649 171.149C211.542 173.456 207.737 172.698 206.526 169.727C205.964 168.352 206.114 166.796 206.923 165.593L214.113 154.861C215.284 153.111 215.446 150.836 214.542 148.884C214.107 147.946 213.444 147.13 212.623 146.51L211.803 145.89C211.043 145.32 211.387 144.1 212.322 144.078C215.578 143.974 218.62 145.89 220.027 148.926L221.301 151.675C222.282 153.793 222.261 156.227 221.253 158.281C221.183 158.422 221.147 158.571 221.141 158.721C219.552 159.502 215.145 161.967 212.773 164.753C212.588 164.97 212.613 165.3 212.83 165.493C213.048 165.687 213.37 165.67 213.555 165.453C215.812 162.805 220.063 160.428 221.585 159.677C221.679 159.75 221.791 159.814 221.913 159.851C224.294 160.632 226.266 162.392 227.339 164.707L227.841 165.792C229.464 169.294 229.243 173.354 227.253 176.56C226.741 177.401 225.457 177.011 225.428 176.01Z" fill="#E7C554"/>
<path d="M212.39 165.643C212.176 165.445 212.145 165.115 212.32 164.901C214.558 162.168 218.77 159.782 220.299 159.028C220.291 159.399 220.458 159.76 220.746 159.994C219.289 160.715 215.228 163.008 213.09 165.616C212.922 165.827 212.604 165.841 212.39 165.643Z" fill="#D39B3B"/>
</g>
<g clip-path="url(#clip7)">
<path d="M186.591 137.541L181.446 141.098L184.635 144.971C185.213 145.668 186.164 145.827 186.881 145.331L187.837 144.669C188.554 144.173 188.831 143.172 188.491 142.309L186.591 137.541Z" fill="#7E5D55"/>
<path d="M200.944 115.337L197.174 114.011C195.862 113.55 194.47 113.378 193.082 113.498C188.249 113.917 184.437 117.834 184.087 122.74C183.961 124.486 184.32 126.225 185.103 127.786L186.946 131.424C189.347 136.175 186.08 141.849 180.824 142.047C178.391 142.14 176.07 140.982 174.659 138.971L162.05 121.074C159.992 118.157 156.569 116.555 153.056 116.859C151.369 117.005 149.743 117.591 148.334 118.546L146.924 119.5C145.625 120.386 143.93 119.115 144.412 117.596C146.045 112.297 150.68 108.532 156.144 108.058L161.092 107.63C164.903 107.3 168.65 108.769 171.267 111.601C171.446 111.797 171.655 111.943 171.883 112.04C172.214 115.059 173.591 123.602 176.586 129.063C176.82 129.488 177.342 129.642 177.761 129.407C178.18 129.171 178.331 128.642 178.097 128.217C175.253 123.025 173.925 114.782 173.605 111.891C173.769 111.783 173.93 111.64 174.054 111.466C176.572 108.094 180.377 105.96 184.543 105.599L186.495 105.43C192.797 104.884 198.945 107.634 202.799 112.727C203.815 114.046 202.506 115.882 200.944 115.337Z" fill="#E7C554"/>
<path d="M177.876 129.185C177.445 129.422 176.909 129.268 176.67 128.841C173.617 123.36 172.207 114.765 171.871 111.715C172.45 111.96 173.111 111.903 173.639 111.562C173.963 114.471 175.311 122.754 178.223 127.987C178.461 128.403 178.306 128.947 177.876 129.185Z" fill="#D39B3B"/>
</g>
<defs>
<clipPath id="clip0">
<rect width="53" height="36" fill="white" transform="matrix(-0.571038 0.820923 -0.821349 -0.570425 107 184)"/>
</clipPath>
<clipPath id="clip1">
<rect width="71" height="48" fill="white" transform="matrix(0.709741 -0.704463 0.706786 0.707428 19 78)"/>
</clipPath>
<clipPath id="clip2">
<rect width="100" height="68" fill="white" transform="matrix(-0.966377 -0.257131 0.257514 -0.966275 196 248)"/>
</clipPath>
<clipPath id="clip3">
<rect width="47" height="32" fill="white" transform="matrix(0.707392 0.706821 0.707392 -0.706821 68 116)"/>
</clipPath>
<clipPath id="clip4">
<rect width="66" height="45" fill="white" transform="matrix(0.754782 -0.655975 -0.656578 -0.754258 130 93)"/>
</clipPath>
<clipPath id="clip5">
<rect width="36" height="24" fill="white" transform="matrix(0.754779 -0.655979 -0.656575 -0.754261 40 160)"/>
</clipPath>
<clipPath id="clip6">
<rect width="36" height="24" fill="white" transform="matrix(0.420402 0.907338 0.907593 -0.419851 195 152)"/>
</clipPath>
<clipPath id="clip7">
<rect width="59" height="40" fill="white" transform="matrix(0.996271 -0.0862814 -0.0864179 -0.996259 147 149)"/>
</clipPath>
</defs>
</svg>
