<svg width="139" height="137" viewBox="0 0 139 137" fill="none" xmlns="http://www.w3.org/2000/svg">
<ellipse cx="64.1995" cy="67.8096" rx="25.1155" ry="27.0169" transform="rotate(-15 64.1995 67.8096)" fill="url(#paint0_linear)"/>
<circle cx="78.93" cy="35.8929" r="9.58849" transform="rotate(-15 78.93 35.8929)" fill="url(#paint1_linear)"/>
<circle cx="94.5853" cy="57.2735" r="9.58849" transform="rotate(-15 94.5853 57.2735)" fill="url(#paint2_linear)"/>
<circle cx="90.5149" cy="83.9395" r="9.58849" transform="rotate(-15 90.5149 83.9395)" fill="url(#paint3_linear)"/>
<circle cx="101.672" cy="73.5748" r="9.58849" transform="rotate(-15 101.672 73.5748)" fill="url(#paint4_linear)"/>
<circle cx="49.1819" cy="85.265" r="9.58849" transform="rotate(-15 49.1819 85.265)" fill="url(#paint5_linear)"/>
<circle cx="32.0511" cy="58.3807" r="9.58849" transform="rotate(-15 32.0511 58.3807)" fill="url(#paint6_linear)"/>
<circle cx="43.2485" cy="45.4532" r="12.5724" transform="rotate(-15 43.2485 45.4532)" fill="url(#paint7_linear)"/>
<circle cx="36.5658" cy="74.1046" r="14.8328" transform="rotate(-15 36.5658 74.1046)" fill="url(#paint8_linear)"/>
<circle cx="64.5737" cy="37.871" r="12.5724" transform="rotate(-15 64.5737 37.871)" fill="url(#paint9_linear)"/>
<circle cx="85.5157" cy="71.7897" r="13.8709" transform="rotate(-15 85.5157 71.7897)" fill="url(#paint10_linear)"/>
<circle cx="67.5913" cy="84.007" r="12.5724" transform="rotate(-15 67.5913 84.007)" fill="url(#paint11_linear)"/>
<circle cx="76.8999" cy="93.2286" r="12.5724" transform="rotate(-15 76.8999 93.2286)" fill="url(#paint12_linear)"/>
<circle cx="58.2095" cy="98.2365" r="12.5724" transform="rotate(-15 58.2095 98.2365)" fill="url(#paint13_linear)"/>
<circle cx="82.0952" cy="51.3939" r="12.5724" transform="rotate(-15 82.0952 51.3939)" fill="url(#paint14_linear)"/>
<circle cx="53.4407" cy="42.7227" r="9.58849" transform="rotate(-15 53.4407 42.7227)" fill="url(#paint15_linear)"/>
<g filter="url(#filter0_d)">
<path d="M65.6466 96.2739C67.9474 83.4879 51.0202 83.0381 45.2259 85.903C64.7563 65.6168 38.2128 65.3331 36.5869 65.3402C36.4867 65.3406 36.4811 65.3422 36.5869 65.3402C37.007 65.3324 39.1837 65.2691 44.1592 64.861C73.483 62.4556 40.389 32.5418 56.4481 46.055C73.2594 60.2011 76.1045 49.9815 76.221 43.2605C76.3006 38.6706 75.1076 35.7124 76.221 43.2605C76.3972 44.4547 76.6311 45.9119 76.9369 47.6673C79.7512 63.8216 91.3264 63.8448 96.8382 62.7068C100.189 62.015 101.299 60.8941 96.8382 62.7068C95.4202 63.283 93.4391 64.1558 90.7881 65.4331C74.6854 73.1916 84.6686 87.2097 88.6592 91.7358C90.2231 93.5096 90.8666 93.8256 88.6592 91.7358C87.8565 90.9759 86.6768 89.8979 85.0273 88.4562C72.5601 77.5593 66.9123 92.1133 65.4491 97.334C64.8931 99.3178 64.9413 99.9539 65.4491 97.334C65.5087 97.0265 65.5746 96.6742 65.6466 96.2739Z" fill="#EE4700" fill-opacity="0.8"/>
</g>
<g filter="url(#filter1_d)">
<path d="M43.4534 78.9129C55.6768 74.5125 47.6028 59.6282 42.2246 56.0426C69.5581 62.8133 56.532 39.6841 55.7129 38.2796C55.6625 38.193 55.6584 38.189 55.7129 38.2796C55.9298 38.6395 57.0729 40.4929 59.9141 44.5978C76.6591 68.7903 86.0182 25.1732 82.345 45.8373C78.4998 67.4694 88.7728 64.8235 94.6516 61.5639C98.6663 59.3379 100.632 56.8256 94.6516 61.5639C93.7055 62.3136 92.5604 63.2447 91.1931 64.3873C78.6102 74.9017 84.3778 84.9377 88.1192 89.1421C90.3936 91.6979 91.9194 92.0987 88.1192 89.1421C86.9111 88.2022 85.1648 86.9229 82.7331 85.2657C67.9627 75.1996 60.8143 90.8543 58.8898 96.5734C58.1356 98.8146 58.1837 99.5299 58.8898 96.5734C59.1466 95.4982 59.4903 93.9376 59.9141 91.7883C63.1175 75.5429 47.6895 77.9287 42.4366 79.2719C40.4406 79.7823 39.9138 80.1421 42.4366 79.2719C42.7327 79.1698 43.0708 79.0507 43.4534 78.9129Z" fill="url(#paint16_radial)"/>
<path d="M42.2246 56.0426L42.3653 55.4743L41.8998 56.5298L42.2246 56.0426ZM43.4534 78.9129L43.6517 79.4639H43.6517L43.4534 78.9129ZM59.9141 91.7883L59.3397 91.675L59.9141 91.7883ZM82.7331 85.2657L83.0629 84.7818L82.7331 85.2657ZM91.1931 64.3873L91.5686 64.8366V64.8366L91.1931 64.3873ZM82.345 45.8373L82.9215 45.9398L82.345 45.8373ZM59.9141 44.5978L59.4327 44.9311L59.9141 44.5978ZM41.8998 56.5298C43.1601 57.3701 44.6226 58.9075 45.9184 60.8365C47.2104 62.7599 48.3091 65.0317 48.8711 67.3123C49.4338 69.5961 49.4479 71.8427 48.6354 73.7586C47.831 75.6556 46.1827 77.3081 43.2551 78.362L43.6517 79.4639C46.8359 78.3176 48.7621 76.4594 49.7135 74.2158C50.6569 71.9913 50.6083 69.4677 50.0081 67.0321C49.4072 64.5934 48.243 62.1968 46.8905 60.1835C45.5418 58.1757 43.9781 56.508 42.5494 55.5555L41.8998 56.5298ZM43.2551 78.362C42.8747 78.499 42.5391 78.6172 42.2457 78.7184L42.6275 79.8254C42.9263 79.7224 43.2669 79.6024 43.6517 79.4639L43.2551 78.362ZM42.2457 78.7184C41.6196 78.9343 41.1887 79.0719 40.9264 79.149C40.7922 79.1885 40.7131 79.2089 40.6773 79.2167C40.6414 79.2245 40.6809 79.2128 40.7422 79.2126C40.7579 79.2125 40.8182 79.2123 40.8931 79.2328C40.9269 79.2421 41.2247 79.3236 41.3055 79.6585C41.3793 79.964 41.1886 80.1672 41.1746 80.1829C41.1288 80.2343 41.0849 80.2645 41.0723 80.2731C41.0252 80.3053 40.9897 80.3174 41.0203 80.3044C41.0339 80.2987 41.0582 80.2891 41.0953 80.2755C41.1687 80.2487 41.2763 80.2121 41.4163 80.1679C41.6956 80.0796 42.0922 79.9643 42.5817 79.8392L42.2916 78.7046C41.7831 78.8346 41.3653 78.9558 41.0632 79.0513C40.9126 79.0989 40.7878 79.1411 40.6932 79.1757C40.6463 79.1928 40.6028 79.2096 40.5653 79.2254C40.545 79.234 40.4754 79.2626 40.4118 79.3061C40.3951 79.3175 40.3481 79.3502 40.3004 79.4037C40.2845 79.4215 40.0931 79.6265 40.1672 79.9334C40.2484 80.2698 40.5476 80.3524 40.5841 80.3624C40.6616 80.3836 40.7257 80.3837 40.7463 80.3836C40.8271 80.3834 40.9046 80.3657 40.926 80.361C41.0046 80.344 41.1168 80.3137 41.2569 80.2725C41.5429 80.1884 41.9922 80.0445 42.6275 79.8254L42.2457 78.7184ZM42.5817 79.8392C45.1943 79.1711 50.2269 78.2787 54.1742 79.494C56.1234 80.0941 57.7682 81.1952 58.7557 83.0638C59.7492 84.9439 60.1252 87.691 59.3397 91.675L60.4886 91.9015C61.3047 87.7628 60.9534 84.7162 59.7911 82.5166C58.6225 80.3054 56.6827 79.041 54.5187 78.3748C50.2397 77.0574 44.9318 78.0295 42.2916 78.7046L42.5817 79.8392ZM59.3397 91.675C58.917 93.8185 58.5749 95.3714 58.3203 96.4373L59.4593 96.7094C59.7183 95.6251 60.0636 94.0567 60.4886 91.9015L59.3397 91.675ZM58.3203 96.4373C58.145 97.1712 58.0122 97.6704 57.924 97.971C57.879 98.1245 57.8491 98.2143 57.8336 98.255C57.8192 98.2927 57.8305 98.2534 57.8655 98.2008C57.8751 98.1863 57.9079 98.1376 57.9651 98.088C57.9989 98.0586 58.1969 97.8913 58.4868 97.9634C58.783 98.0371 58.8779 98.285 58.8945 98.3314C58.9209 98.405 58.9252 98.4656 58.9264 98.4832C58.9308 98.5481 58.9206 98.5899 58.9266 98.5522C58.9293 98.5356 58.9348 98.5062 58.9444 98.4622C58.9633 98.375 58.9941 98.2491 59.0377 98.0869C59.1248 97.7637 59.2596 97.3103 59.4448 96.7601L58.3349 96.3866C58.1429 96.9571 58.0009 97.4335 57.907 97.7824C57.8601 97.9563 57.8243 98.1019 57.8 98.2135C57.788 98.2688 57.7778 98.3206 57.7705 98.3659C57.7666 98.3901 57.7521 98.4746 57.758 98.5618C57.7596 98.5851 57.7647 98.6499 57.7921 98.7266C57.8099 98.776 57.9062 99.0257 58.2041 99.0998C58.4959 99.1724 58.696 99.0042 58.7324 98.9727C58.7921 98.9209 58.8277 98.8687 58.8405 98.8494C58.8884 98.7775 58.9181 98.6975 58.9278 98.6722C58.9604 98.5868 59.0007 98.4609 59.0477 98.3007C59.1436 97.9739 59.2816 97.4538 59.4593 96.7094L58.3203 96.4373ZM59.4448 96.7601C60.3987 93.9252 62.6263 88.7063 66.3786 85.4418C68.2417 83.821 70.4599 82.6997 73.0768 82.5664C75.6951 82.4331 78.7871 83.2851 82.4034 85.7496L83.0629 84.7818C79.2939 82.2133 75.9535 81.2473 73.0172 81.3969C70.0794 81.5465 67.6208 82.8089 65.6099 84.5583C61.6143 88.0345 59.3054 93.5025 58.3349 96.3866L59.4448 96.7601ZM82.4034 85.7496C84.8275 87.4016 86.5635 88.6736 87.7597 89.6042L88.4788 88.68C87.2588 87.7308 85.5021 86.4442 83.0629 84.7818L82.4034 85.7496ZM87.7597 89.6042C88.7024 90.3377 89.3027 90.8537 89.6388 91.1732C89.8132 91.339 89.8942 91.431 89.9181 91.4634C89.9228 91.4697 89.9154 91.4607 89.9042 91.4397C89.9008 91.4334 89.8555 91.3536 89.8477 91.2332C89.8433 91.165 89.8488 91.0499 89.9148 90.9273C89.9865 90.7943 90.0991 90.7088 90.2105 90.6652C90.388 90.5958 90.536 90.6403 90.546 90.6429C90.6062 90.6587 90.6298 90.6785 90.5895 90.6546C90.563 90.6389 90.5211 90.6116 90.463 90.5698C90.3476 90.4866 90.1897 90.3615 89.9973 90.1942C89.6135 89.8605 89.1094 89.374 88.5566 88.7528L87.6818 89.5313C88.2663 90.1881 88.8058 90.7101 89.229 91.078C89.4401 91.2615 89.6265 91.4104 89.7784 91.5198C89.8539 91.5743 89.9264 91.6229 89.9929 91.6623C90.0454 91.6934 90.1404 91.7472 90.2484 91.7755C90.2822 91.7844 90.4481 91.8298 90.6373 91.7558C90.7545 91.7099 90.8714 91.6208 90.9458 91.4827C91.0145 91.3552 91.0212 91.2336 91.0163 91.1576C91.0075 91.0217 90.9547 90.9208 90.937 90.8878C90.9115 90.8401 90.8831 90.7988 90.8597 90.7671C90.7713 90.6476 90.6271 90.4969 90.4457 90.3244C90.0701 89.9674 89.4362 89.4248 88.4788 88.68L87.7597 89.6042ZM88.5566 88.7528C86.7275 86.6974 84.4411 83.2544 84.1183 79.0858C83.7989 74.9605 85.3935 69.9966 91.5686 64.8366L90.8177 63.938C84.4099 69.2924 82.5967 74.6037 82.9508 79.1762C83.3014 83.7052 85.7694 87.3824 87.6818 89.5313L88.5566 88.7528ZM91.5686 64.8366C92.9327 63.6967 94.0737 62.7688 95.0153 62.0228L94.288 61.1049C93.3372 61.8583 92.1882 62.7927 90.8177 63.938L91.5686 64.8366ZM95.0153 62.0228C96.5055 60.842 97.4895 60.122 98.0638 59.7391C98.3628 59.5398 98.517 59.4548 98.5666 59.4338C98.5786 59.4287 98.5536 59.441 98.5067 59.4496C98.4838 59.4538 98.427 59.4627 98.3526 59.454C98.2796 59.4455 98.1339 59.4127 98.0088 59.282C97.8741 59.1413 97.8463 58.9752 97.85 58.8674C97.8534 58.7706 97.881 58.7004 97.893 58.6726C97.9071 58.6396 97.921 58.6172 97.927 58.608C97.9337 58.5976 97.9382 58.5918 97.9385 58.5915C97.9386 58.5913 97.9321 58.5995 97.915 58.6174C97.8987 58.6345 97.8767 58.6565 97.848 58.6836C97.7906 58.738 97.7135 58.8063 97.6167 58.8874C97.4233 59.0494 97.1619 59.2532 96.8429 59.4842C96.2051 59.946 95.3493 60.5075 94.3677 61.0518L94.9356 62.076C95.9613 61.5072 96.8567 60.92 97.5297 60.4327C97.866 60.1892 98.1499 59.9684 98.3686 59.7852C98.5737 59.6134 98.7572 59.4455 98.8608 59.313C98.8861 59.2807 98.9335 59.2174 98.9688 59.135C98.9862 59.0946 99.0167 59.0137 99.0204 58.908C99.0244 58.7912 98.9943 58.6181 98.8548 58.4723C98.7248 58.3365 98.5716 58.3005 98.4884 58.2908C98.4038 58.281 98.3342 58.2906 98.2958 58.2977C98.2178 58.312 98.1508 58.3382 98.1097 58.3556C97.9467 58.4246 97.7093 58.568 97.4142 58.7647C96.8007 59.1738 95.7878 59.9166 94.288 61.1049L95.0153 62.0228ZM94.3677 61.0518C92.9256 61.8514 91.2379 62.5992 89.5859 62.9511C87.9285 63.3041 86.3807 63.244 85.1453 62.5283C83.9268 61.8224 82.8884 60.4056 82.3945 57.7711C81.8988 55.1269 81.966 51.3154 82.9215 45.9398L81.7685 45.7348C80.8015 51.1752 80.7108 55.145 81.2435 57.9869C81.7781 60.8384 82.9543 62.6124 84.5583 63.5416C86.1454 64.461 88.0278 64.4803 89.8298 64.0964C91.6373 63.7115 93.4382 62.9062 94.9356 62.076L94.3677 61.0518ZM82.9215 45.9398C83.3787 43.3677 83.6408 41.7558 83.7065 40.8876C83.723 40.6689 83.729 40.4751 83.718 40.315C83.7125 40.2349 83.7018 40.1474 83.6796 40.0616C83.6592 39.9831 83.6176 39.8589 83.5213 39.7449C83.4076 39.6103 83.2315 39.5092 83.0175 39.5092C82.8364 39.5092 82.6992 39.5825 82.6256 39.6301C82.4816 39.7234 82.3644 39.8625 82.2814 39.9699C82.1002 40.2042 81.8817 40.5585 81.6393 40.9674C81.4089 41.3559 81.0849 41.918 80.7732 42.445C80.1136 43.56 79.2924 44.8905 78.318 46.1893C76.345 48.8194 73.8495 51.1756 70.9331 51.5101C68.081 51.8372 64.5367 50.2475 60.3956 44.2646L59.4327 44.9311C63.6641 51.0444 67.569 53.0747 71.0665 52.6735C74.4997 52.2797 77.254 49.5592 79.2548 46.8921C80.2673 45.5423 81.1139 44.169 81.7811 43.0412C82.1328 42.4467 82.3869 42.0026 82.6466 41.5646C82.8942 41.147 83.0777 40.8545 83.2078 40.6862C83.2804 40.5922 83.2962 40.5911 83.262 40.6132C83.2434 40.6253 83.1554 40.6803 83.0176 40.6803C82.8471 40.6803 82.7085 40.5975 82.6266 40.5004C82.562 40.424 82.5463 40.3567 82.5459 40.3554C82.5437 40.3467 82.5471 40.3567 82.5497 40.3954C82.5551 40.4729 82.5537 40.6019 82.5388 40.7993C82.4786 41.5955 82.2296 43.1409 81.7685 45.7348L82.9215 45.9398ZM60.3956 44.2646C57.5588 40.1661 56.423 38.3235 56.2145 37.9774L55.2114 38.5818C55.4366 38.9555 56.587 40.8198 59.4327 44.9311L60.3956 44.2646ZM56.2145 37.9774C56.2014 37.9558 56.1924 37.9406 56.187 37.9314C56.1857 37.9292 56.1846 37.9274 56.1839 37.9262C56.1831 37.9248 56.1828 37.9243 56.1829 37.9244C56.1829 37.9245 56.1832 37.925 56.1836 37.9258C56.184 37.9264 56.185 37.9282 56.1864 37.9308C56.1866 37.9311 56.1916 37.94 56.1973 37.9515C56.1991 37.955 56.2022 37.9613 56.2059 37.9694C56.2082 37.9745 56.2171 37.9937 56.226 38.0193C56.2298 38.0301 56.2405 38.061 56.2484 38.1019C56.2522 38.1237 56.258 38.1787 56.2591 38.212C56.2567 38.2658 56.2257 38.4079 56.1885 38.4918C56.1059 38.608 55.8639 38.7669 55.7177 38.797C55.6165 38.7959 55.4607 38.7586 55.4065 38.7342C55.3228 38.6913 55.2701 38.6376 55.2632 38.6309C55.233 38.6012 55.2127 38.5744 55.2101 38.571C55.2031 38.562 55.1979 38.5547 55.1953 38.551C55.19 38.5435 55.186 38.5375 55.1846 38.5353C55.1813 38.5302 55.1788 38.5263 55.1783 38.5254C55.1766 38.5228 55.1757 38.5213 55.1761 38.5219C55.1765 38.5226 55.178 38.5251 55.1809 38.5299C55.1864 38.5392 55.1952 38.5541 55.2071 38.5746L56.2188 37.9846C56.2055 37.9618 56.1948 37.9438 56.1871 37.9308C56.1833 37.9244 56.1797 37.9184 56.1766 37.9134C56.1753 37.9111 56.173 37.9074 56.1704 37.9033C56.1694 37.9017 56.1666 37.8972 56.163 37.8917C56.1614 37.8893 56.1573 37.8831 56.1519 37.8755C56.1493 37.8718 56.144 37.8644 56.137 37.8554C56.1344 37.8519 56.1141 37.8251 56.0838 37.7954C56.077 37.7887 56.0242 37.7349 55.9406 37.692C55.8864 37.6677 55.7306 37.6304 55.6294 37.6293C55.4832 37.6594 55.2411 37.8183 55.1586 37.9344C55.1213 38.0184 55.0904 38.1604 55.088 38.2143C55.089 38.2476 55.0949 38.3026 55.0987 38.3244C55.1066 38.3653 55.1172 38.3962 55.121 38.407C55.13 38.4326 55.1389 38.4519 55.1412 38.4571C55.1449 38.4652 55.1481 38.4716 55.1498 38.4751C55.1558 38.4869 55.161 38.4963 55.1615 38.4972C55.1645 38.5027 55.1673 38.5075 55.1684 38.5095C55.1714 38.5147 55.175 38.5207 55.1786 38.527C55.1863 38.5398 55.1972 38.5581 55.2114 38.5818L56.2145 37.9774ZM55.2071 38.5745C55.4032 38.9108 56.3563 40.5932 57.2515 42.8183C58.1513 45.0548 58.9681 47.7804 58.9405 50.2202C58.9132 52.6321 58.072 54.6798 55.7277 55.792C53.3074 56.9403 49.1651 57.1586 42.3653 55.4743L42.0838 56.611C48.9509 58.312 53.4304 58.1781 56.2296 56.8501C59.1049 55.4859 60.081 52.9331 60.1115 50.2334C60.1417 47.5618 59.2567 44.6648 58.3379 42.3812C57.4146 40.0861 56.4322 38.3507 56.2188 37.9846L55.2071 38.5745Z" fill="#C80C00"/>
</g>
<path opacity="0.8" d="M33.7432 29.5323L62.392 66.5661L54.111 62.3734L61.0392 69.9522L43.8837 77.0454L62.392 72.7565L43.8837 107.067L64.9981 74.4061L68.2973 100.964V74.4061L94.1955 107.067L72.4212 74.4061L96.5049 81.0043L73.9058 69.9522L99.9689 55.2711L73.9058 66.5661L85.4528 20.9602L70.9366 63.8489L66.5845 41.4109V62.3734L33.7432 29.5323Z" fill="#FB0304"/>
<path opacity="0.6" d="M67.8244 16.2174L61.8953 62.662L59.0044 53.8418L58.5443 64.0998L41.398 56.9846L57.518 67.0393L20.1691 78.2135L58.1944 70.0485L41.7479 91.1607L60.5272 72.3814L55.7449 113.789L63.4433 75.2974L75.8073 96.9928L67.6424 73.1979L96.453 81.2462L70.0368 70.8035L110.45 46.7202L69.8585 66.7826L82.6473 47.8392L67.8245 62.6619L67.8244 16.2174Z" fill="#FB0304"/>
<path opacity="0.9" d="M19.0594 63.0455L65.5041 68.9746L56.6838 71.8655L66.9418 72.3255L59.8267 89.4719L69.8813 73.3519L81.0555 110.701L72.8906 72.6755L94.0028 89.122L75.2234 70.3426L116.631 75.1249L78.1395 67.4266L99.8349 55.0625L76.0399 63.2275L84.0882 34.4169L73.6456 60.8331L49.5623 20.4199L69.6247 61.0113L50.6812 48.2226L65.504 63.0454L19.0594 63.0455Z" fill="#940000"/>
<path opacity="0.7" d="M42.6631 65.7261C49.5941 67.0703 63.5443 69.809 63.8971 70.0106H48.2709L63.8971 71.7119L58.6044 79.714L65.5353 72.0899L61.8808 90.2365L67.2366 73.3501L71.0801 84.7547L69.0638 73.3501L82.1697 84.4397L71.0801 72.594L82.1697 74.3582L71.8992 71.1448L85.7612 63.0167L71.8992 69.5696L82.1697 51.423L70.7021 67.2382L73.9155 53.1873L69.0638 65.7261L64.5902 49.7217L66.6695 65.2849L60.3056 59.3622L63.8971 66.2932L42.6631 65.7261Z" fill="#FB0304"/>
<path opacity="0.7" d="M87.7132 84.6713C82.3829 80.0417 71.671 70.6947 71.4662 70.3438L84.9989 78.1569L72.3168 68.8704L80.9015 64.5867L71.0871 67.7239L83.3253 53.8358L70.2439 65.7819L72.6176 53.9835L68.6614 64.8683L62.8562 48.7116L66.5372 64.515L57.8155 57.4423L65.1033 65.3605L49.0344 65.4687L64.3156 66.7246L46.3479 77.3048L64.1868 69.3422L54.3783 79.904L64.8494 71.4709L60.7215 87.5679L66.7024 73.0502L69.2523 81.3613L69.6074 73.5631L87.7132 84.6713Z" fill="#FE4701"/>
<defs>
<filter id="filter0_d" x="0.93548" y="0.202814" width="137.298" height="136.339" filterUnits="userSpaceOnUse" color-interpolation-filters="sRGB">
<feFlood flood-opacity="0" result="BackgroundImageFix"/>
<feColorMatrix in="SourceAlpha" type="matrix" values="0 0 0 0 0 0 0 0 0 0 0 0 0 0 0 0 0 0 127 0"/>
<feOffset/>
<feGaussianBlur stdDeviation="14.0528"/>
<feColorMatrix type="matrix" values="0 0 0 0 0.529167 0 0 0 0 0.254 0 0 0 0 0 0 0 0 0.5 0"/>
<feBlend mode="normal" in2="BackgroundImageFix" result="effect1_dropShadow"/>
<feBlend mode="normal" in="SourceGraphic" in2="effect1_dropShadow" result="shape"/>
</filter>
<filter id="filter1_d" x="12.0449" y="9.52361" width="115.082" height="117.7" filterUnits="userSpaceOnUse" color-interpolation-filters="sRGB">
<feFlood flood-opacity="0" result="BackgroundImageFix"/>
<feColorMatrix in="SourceAlpha" type="matrix" values="0 0 0 0 0 0 0 0 0 0 0 0 0 0 0 0 0 0 127 0"/>
<feOffset/>
<feGaussianBlur stdDeviation="14.0528"/>
<feColorMatrix type="matrix" values="0 0 0 0 0.529167 0 0 0 0 0.254 0 0 0 0 0 0 0 0 0.5 0"/>
<feBlend mode="normal" in2="BackgroundImageFix" result="effect1_dropShadow"/>
<feBlend mode="normal" in="SourceGraphic" in2="effect1_dropShadow" result="shape"/>
</filter>
<linearGradient id="paint0_linear" x1="48.349" y1="55.7292" x2="87.2364" y2="80.6885" gradientUnits="userSpaceOnUse">
<stop stop-color="#FE4701"/>
<stop offset="1" stop-color="#EE0100"/>
</linearGradient>
<linearGradient id="paint1_linear" x1="72.8787" y1="31.6055" x2="87.0741" y2="41.4063" gradientUnits="userSpaceOnUse">
<stop stop-color="#FE4701"/>
<stop offset="1" stop-color="#EE0100"/>
</linearGradient>
<linearGradient id="paint2_linear" x1="88.5339" y1="52.9861" x2="102.729" y2="62.787" gradientUnits="userSpaceOnUse">
<stop stop-color="#FB0304"/>
<stop offset="1" stop-color="#D91314"/>
</linearGradient>
<linearGradient id="paint3_linear" x1="84.4636" y1="79.6521" x2="98.659" y2="89.453" gradientUnits="userSpaceOnUse">
<stop stop-color="#FE4701"/>
<stop offset="1" stop-color="#EC360E"/>
</linearGradient>
<linearGradient id="paint4_linear" x1="95.6208" y1="69.2874" x2="109.816" y2="79.0882" gradientUnits="userSpaceOnUse">
<stop stop-color="#C80C00"/>
<stop offset="1" stop-color="#940000"/>
</linearGradient>
<linearGradient id="paint5_linear" x1="43.1306" y1="80.9775" x2="57.326" y2="90.7784" gradientUnits="userSpaceOnUse">
<stop stop-color="#FB0304"/>
<stop offset="1" stop-color="#D91314"/>
</linearGradient>
<linearGradient id="paint6_linear" x1="25.9998" y1="54.0933" x2="40.1952" y2="63.8941" gradientUnits="userSpaceOnUse">
<stop stop-color="#D91314"/>
<stop offset="1" stop-color="#85020A"/>
</linearGradient>
<linearGradient id="paint7_linear" x1="35.3141" y1="39.8316" x2="53.927" y2="52.6825" gradientUnits="userSpaceOnUse">
<stop stop-color="#D91314"/>
<stop offset="1" stop-color="#940000"/>
</linearGradient>
<linearGradient id="paint8_linear" x1="27.2048" y1="67.4722" x2="49.1642" y2="82.6335" gradientUnits="userSpaceOnUse">
<stop stop-color="#FB0304"/>
<stop offset="1" stop-color="#940000"/>
</linearGradient>
<linearGradient id="paint9_linear" x1="56.6393" y1="32.2493" x2="75.2522" y2="45.1002" gradientUnits="userSpaceOnUse">
<stop stop-color="#FE4701"/>
<stop offset="1" stop-color="#B81716"/>
</linearGradient>
<linearGradient id="paint10_linear" x1="76.7617" y1="65.5874" x2="97.2971" y2="79.7656" gradientUnits="userSpaceOnUse">
<stop stop-color="#C80C00"/>
<stop offset="1" stop-color="#940000"/>
</linearGradient>
<linearGradient id="paint11_linear" x1="59.6569" y1="78.3853" x2="78.2698" y2="91.2362" gradientUnits="userSpaceOnUse">
<stop stop-color="#FE4701"/>
<stop offset="1" stop-color="#EE0100"/>
</linearGradient>
<linearGradient id="paint12_linear" x1="68.9655" y1="87.607" x2="87.5784" y2="100.458" gradientUnits="userSpaceOnUse">
<stop stop-color="#C80C00"/>
<stop offset="1" stop-color="#C52704"/>
</linearGradient>
<linearGradient id="paint13_linear" x1="50.275" y1="92.6148" x2="68.888" y2="105.466" gradientUnits="userSpaceOnUse">
<stop stop-color="#C80C00"/>
<stop offset="1" stop-color="#940000"/>
</linearGradient>
<linearGradient id="paint14_linear" x1="74.1608" y1="45.7723" x2="92.7737" y2="58.6231" gradientUnits="userSpaceOnUse">
<stop stop-color="#FB0304"/>
<stop offset="1" stop-color="#9C1919"/>
</linearGradient>
<linearGradient id="paint15_linear" x1="47.3894" y1="38.4353" x2="61.5848" y2="48.2362" gradientUnits="userSpaceOnUse">
<stop stop-color="#FE4701"/>
<stop offset="1" stop-color="#EE0100"/>
</linearGradient>
<radialGradient id="paint16_radial" cx="0" cy="0" r="1" gradientUnits="userSpaceOnUse" gradientTransform="translate(69.5858 68.3724) rotate(110.138) scale(22.6369 21.6538)">
<stop stop-color="#F88C0D"/>
<stop offset="1" stop-color="#940000" stop-opacity="0.71"/>
</radialGradient>
</defs>
</svg>
