<svg width="129" height="129" viewBox="0 0 129 129" fill="none" xmlns="http://www.w3.org/2000/svg">
<path d="M109.54 66.692C109.54 57.1455 101.814 49.4049 92.2836 49.403C82.7529 49.4011 75.0267 57.1386 75.0267 66.6851C75.0267 76.2317 82.7529 83.9722 92.2836 83.9742C101.814 83.9761 109.54 76.2386 109.54 66.692Z" fill="#46534E"/>
<mask id="mask0" mask-type="alpha" maskUnits="userSpaceOnUse" x="74" y="49" width="36" height="35">
<path d="M92.2802 83.9454C101.827 83.9454 109.567 76.2192 109.569 66.6885C109.571 57.1578 101.834 49.4316 92.2871 49.4316C82.7405 49.4316 75 57.1578 74.9981 66.6885C74.9962 76.2192 82.7336 83.9454 92.2802 83.9454Z" fill="black"/>
</mask>
<g mask="url(#mask0)">
<rect x="109.573" y="78.9414" width="4.55585" height="34.5781" transform="rotate(90 109.573 78.9414)" fill="#717E64"/>
<rect x="109.573" y="69.8301" width="4.55585" height="34.5781" transform="rotate(90 109.573 69.8301)" fill="#717E64"/>
<rect x="109.573" y="60.7168" width="4.55585" height="34.5781" transform="rotate(90 109.573 60.7168)" fill="#717E64"/>
<rect x="109.573" y="51.6055" width="4.55585" height="34.5781" transform="rotate(90 109.573 51.6055)" fill="#717E64"/>
</g>
<path d="M109.54 66.692C109.54 57.1455 101.814 49.4049 92.2836 49.403C82.7529 49.4011 75.0267 57.1386 75.0267 66.6851C75.0267 76.2317 82.7529 83.9722 92.2836 83.9742C101.814 83.9761 109.54 76.2386 109.54 66.692Z" stroke="black" stroke-width="6.2922" stroke-miterlimit="10"/>
<rect x="82.2358" y="44.9004" width="20.0959" height="7.60035" rx="2.26822" fill="black"/>
<path d="M54.5163 66.692C54.5163 57.1455 46.7902 49.4049 37.2595 49.403C27.7288 49.4011 20.0026 57.1386 20.0026 66.6851C20.0026 76.2317 27.7288 83.9722 37.2595 83.9742C46.7902 83.9761 54.5163 76.2386 54.5163 66.692Z" fill="#46534E"/>
<mask id="mask1" mask-type="alpha" maskUnits="userSpaceOnUse" x="19" y="49" width="36" height="35">
<path d="M37.256 83.9454C46.8026 83.9454 54.5432 76.2192 54.5451 66.6885C54.547 57.1578 46.8095 49.4316 37.2629 49.4316C27.7164 49.4316 19.9758 57.1578 19.9739 66.6885C19.972 76.2192 27.7095 83.9454 37.256 83.9454Z" fill="black"/>
</mask>
<g mask="url(#mask1)">
<rect x="54.5485" y="78.9414" width="4.55585" height="34.5781" transform="rotate(90 54.5485 78.9414)" fill="#717E64"/>
<rect x="54.5485" y="69.8301" width="4.55585" height="34.5781" transform="rotate(90 54.5485 69.8301)" fill="#717E64"/>
<rect x="54.5485" y="60.7168" width="4.55585" height="34.5781" transform="rotate(90 54.5485 60.7168)" fill="#717E64"/>
<rect x="54.5485" y="51.6055" width="4.55585" height="34.5781" transform="rotate(90 54.5485 51.6055)" fill="#717E64"/>
</g>
<path d="M54.5163 66.692C54.5163 57.1455 46.7902 49.4049 37.2595 49.403C27.7288 49.4011 20.0026 57.1386 20.0026 66.6851C20.0026 76.2317 27.7288 83.9722 37.2595 83.9742C46.7902 83.9761 54.5163 76.2386 54.5163 66.692Z" stroke="black" stroke-width="6.2922" stroke-miterlimit="10"/>
<rect x="27.2114" y="44.9004" width="20.0959" height="7.60035" rx="2.26822" fill="black"/>
</svg>
