<svg width="129" height="129" viewBox="0 0 129 129" fill="none" xmlns="http://www.w3.org/2000/svg">
<path d="M33.25 47.0359C33.25 64.4329 47.5769 78.5354 65.25 78.5348C82.9231 78.5342 97.25 64.4307 97.25 47.0337C97.25 29.6367 82.9231 15.5342 65.25 15.5348C47.5769 15.5354 33.25 29.6389 33.25 47.0359Z" fill="#232323"/>
<path fill-rule="evenodd" clip-rule="evenodd" d="M65.75 12.5349C84.8038 12.5342 100.25 27.756 100.25 46.5337C100.25 65.3114 84.8038 80.5342 65.75 80.5349C46.6962 80.5355 31.25 65.3137 31.25 46.5361C31.25 27.7584 46.6962 12.5355 65.75 12.5349ZM94.9834 46.5339C94.9834 30.6227 81.8952 17.7246 65.75 17.7251C49.6048 17.7257 36.5166 30.6247 36.5166 46.5359C36.5166 62.4471 49.6048 75.3452 65.75 75.3446C81.8952 75.3441 94.9834 62.4451 94.9834 46.5339Z" fill="black"/>
<path d="M63.7529 112.534C86.6727 112.534 105.252 93.954 105.251 71.0342C105.251 48.1144 86.6698 29.5342 63.75 29.5342C40.8302 29.5342 22.2507 48.1144 22.2515 71.0342C22.2523 93.954 40.8331 112.534 63.7529 112.534Z" fill="#3F2B16"/>
<path d="M63.6097 119.873C69.4677 120.227 74.5039 115.765 74.8584 109.907C75.2129 104.049 70.7514 99.0137 64.8934 98.6598C59.0354 98.3059 53.9992 102.768 53.6447 108.626C53.2902 114.484 57.7517 119.519 63.6097 119.873Z" fill="#E40000" stroke="black" stroke-width="2.86287" stroke-miterlimit="10"/>
<path d="M69.0583 114.682C69.8503 114.73 71.7842 112.344 71.9652 109.353C72.1462 106.362 70.5057 103.898 69.7137 103.85C68.9218 103.802 69.2782 106.188 69.0972 109.179C68.9162 112.17 68.2663 114.634 69.0583 114.682Z" fill="#EBB4B4"/>
<path d="M82.2141 68.5166C83.438 62.7983 74.8576 65.9769 70.4144 68.281C66.9036 68.1535 73.6118 54.1072 96.0312 55.7193C118.451 57.3315 117.802 78.1696 115.195 81.9336C112.587 85.6977 104.065 89.0397 106.338 79.9412C108.61 70.8427 105.726 67.9939 104.095 67.1891C102.463 66.3842 98.6026 68.1043 98.8937 74.1896C99.1849 80.2749 96.2276 82.5594 94.1881 82.3852C92.1487 82.2109 91.202 77.4065 93.4892 73.6032C95.7765 69.7999 96.8984 63.2827 92.0037 63.3637C87.109 63.4447 87.0942 69.795 87.8516 73.1394C88.609 76.4839 86.5402 80.6921 83.8162 79.5266C81.0921 78.361 80.6843 75.6643 82.2141 68.5166Z" fill="#82592D" stroke="black" stroke-width="3.43598"/>
<path d="M45.5671 68.5161C44.3433 62.7978 52.9237 65.9764 57.3668 68.2805C60.8777 68.153 54.1694 54.1067 31.75 55.7188C9.33059 57.331 9.97886 78.1691 12.5866 81.9331C15.1943 85.6972 23.7166 89.0392 21.4437 79.9407C19.1708 70.8422 22.0551 67.9934 23.6866 67.1886C25.3182 66.3837 29.1786 68.1038 28.8875 74.1891C28.5964 80.2744 31.5537 82.5589 33.5931 82.3847C35.6326 82.2104 36.5793 77.406 34.292 73.6027C32.0048 69.7994 30.8829 63.2822 35.7775 63.3632C40.6722 63.4442 40.687 69.7945 39.9297 73.1389C39.1723 76.4834 41.241 80.6916 43.9651 79.5261C46.6892 78.3605 47.097 75.6638 45.5671 68.5161Z" fill="#82592D" stroke="black" stroke-width="3.43598"/>
<path d="M93.2547 91.5342C86.6273 91.5342 81.2536 97.037 81.2523 103.825C81.2512 109.293 84.7367 113.927 89.5567 115.523C90.7201 115.908 91.9614 106.342 93.25 106.342C94.5386 106.342 95.7797 115.908 96.9433 115.523C101.764 113.927 105.251 109.293 105.252 103.825C105.254 97.037 99.8821 91.5342 93.2547 91.5342Z" fill="#454545" stroke="black" stroke-width="3.15977" stroke-miterlimit="10"/>
<path d="M93.2535 90.5342C87.7307 90.5342 83.2527 94.6613 83.2517 99.7524C83.2509 103.854 86.1556 107.329 90.1723 108.526C91.1418 108.814 92.176 101.64 93.2499 101.64C94.3237 101.64 95.3581 108.814 96.3277 108.526C100.345 107.329 103.251 103.854 103.252 99.7524C103.253 94.6613 98.7764 90.5342 93.2535 90.5342Z" fill="#82592D" stroke="black" stroke-width="3.15977" stroke-miterlimit="10"/>
<path d="M35.2547 91.5342C28.6273 91.5342 23.2536 97.037 23.2523 103.825C23.2512 109.293 26.7367 113.927 31.5567 115.523C32.7201 115.908 33.9614 106.342 35.25 106.342C36.5386 106.342 37.7797 115.908 38.9433 115.523C43.7639 113.927 47.2512 109.293 47.2523 103.825C47.2536 97.037 41.8821 91.5342 35.2547 91.5342Z" fill="#454545" stroke="black" stroke-width="3.15977" stroke-miterlimit="10"/>
<path d="M35.2535 90.5342C29.7307 90.5342 25.2527 94.6613 25.2517 99.7524C25.2509 103.854 28.1556 107.329 32.1723 108.526C33.1418 108.814 34.176 101.64 35.2499 101.64C36.3237 101.64 37.3581 108.814 38.3277 108.526C42.3449 107.329 45.2509 103.854 45.2517 99.7524C45.2527 94.6613 40.7764 90.5342 35.2535 90.5342Z" fill="#82592D" stroke="black" stroke-width="3.15977" stroke-miterlimit="10"/>
</svg>
