<svg width="129" height="129" viewBox="0 0 129 129" fill="none" xmlns="http://www.w3.org/2000/svg">
<path d="M34.3554 46.6143C34.3554 63.6902 48.1982 77.5325 65.2741 77.5319C82.3501 77.5313 96.1929 63.688 96.1929 46.6121C96.1929 29.5361 82.3501 15.6938 65.2741 15.6944C48.1982 15.695 34.3554 29.5383 34.3554 46.6143Z" fill="#D2D2D2"/>
<path fill-rule="evenodd" clip-rule="evenodd" d="M92.6128 46.6123C92.6128 31.5136 80.3729 19.2741 65.2742 19.2746C50.1754 19.2751 37.9355 31.5155 37.9355 46.6142C37.9355 61.713 50.1754 73.9525 65.2742 73.9519C80.3729 73.9514 92.6128 61.7111 92.6128 46.6123ZM65.2742 12.1145C84.3273 12.1138 99.7729 27.5589 99.7729 46.6121C99.7729 65.6652 84.3273 81.1114 65.2742 81.1121C46.221 81.1127 30.7754 65.6676 30.7754 46.6145C30.7754 27.5613 46.221 12.1151 65.2742 12.1145Z" fill="#1D0F00"/>
<path d="M25.7754 71.616C25.7754 92.8789 43.0124 110.115 64.2754 110.115C85.5383 110.114 102.775 92.8762 102.775 71.6133C102.775 50.3503 85.5384 33.1139 64.2754 33.1146C43.0124 33.1154 25.7754 50.353 25.7754 71.616Z" fill="#D19B4E"/>
<mask id="mask0" mask-type="alpha" maskUnits="userSpaceOnUse" x="25" y="33" width="78" height="78">
<path d="M25.7754 71.616C25.7754 92.8789 43.0124 110.115 64.2754 110.115C85.5383 110.114 102.775 92.8762 102.775 71.6133C102.775 50.3503 85.5384 33.1139 64.2754 33.1146C43.0124 33.1154 25.7754 50.353 25.7754 71.616Z" fill="#D19B4E"/>
</mask>
<g mask="url(#mask0)">
<path d="M119 124.511L119 -1.48633L-10.157 -1.48633L-10.157 124.511L119 124.511Z" fill="#CACACA"/>
<path d="M63.3059 74.7225C60.6771 73.5434 58.2321 72.5583 56.8693 68.9545C53.5769 60.2668 60.6414 63.0743 65.6846 64.3708C70.7073 65.6571 80.9264 72.058 75.8628 76.1416C75.1175 76.7439 66.44 78.8775 69.4108 88.0042C70.4266 91.123 59.3908 95.2678 60.7996 101.827C62.4433 109.494 51.7138 104.231 53.6024 100.423C57.3797 92.8024 55.2052 91.6743 59.0335 87.1977C65.3171 79.8474 64.5616 75.2891 63.3059 74.7225Z" fill="#8ED1FF"/>
<path d="M64.5719 65.933C61.9227 50.5687 47.4925 51.5181 44.9199 46.5617C39.1468 35.4188 81.8861 21.6113 87.6796 21.6113C90.2318 21.6113 110.241 69.848 104.315 89.6685C99.6137 105.39 77.4861 110.311 73.0707 106.569C63.1631 98.1622 87.6081 67.2039 82.8763 63.0847C78.9561 59.6698 75.8782 66.035 72.4582 69.5724C70.1051 72.0123 66.2512 75.6415 64.5719 65.933Z" fill="#D6D6D6"/>
<path d="M67.9206 48.3276C70.9424 46.7299 69.0079 43.0241 73.6325 41.5336C77.0983 40.4158 78.7011 42.6158 82.1466 46.4033C83.8719 48.297 90.5229 39.4204 88.7926 41.4775C87.7053 42.7638 94.6728 45.2037 90.8445 49.3026C88.2209 52.11 75.0464 46.5768 73.3415 57.4033C71.948 66.2441 63.6993 55.581 62.219 65.065C61.7136 68.3063 59.5494 70.8789 53.4955 73.814C46.4361 77.2339 38.3303 74.4571 42.5006 68.9852C46.0584 64.3197 52.8422 67.9949 53.3271 59.6441C54.0315 47.6334 63.245 50.8033 67.9206 48.3276Z" fill="#CEEBFF"/>
<path d="M82.2128 119.743C76.4193 119.743 68.5943 117.722 68.5943 105.175C68.5943 92.6286 76.4193 74.3037 82.2128 74.3037C88.0064 74.3037 92.7075 84.4768 92.7075 97.0235C92.7075 109.57 88.0115 119.743 82.2128 119.743Z" fill="#CEEBFF"/>
<path d="M104.764 66.1524C98.9706 66.1524 90.6964 71.9459 90.6964 59.3992C90.6964 46.8526 98.9655 20.7129 104.764 20.7129C110.563 20.7129 115.259 30.886 115.259 43.4326C115.259 55.9793 110.563 66.1524 104.764 66.1524Z" fill="#8ED1FF"/>
<path d="M81.8812 46.9495C76.3072 38.3537 67.7011 45.4846 65.1336 40.5282C59.3605 29.3852 74.2961 2.29101 80.0947 2.29102C85.8882 2.29102 90.5894 12.4641 90.5894 25.0108C90.5894 37.5625 85.0306 51.814 81.8812 46.9495Z" fill="#8ED1FF"/>
<path d="M45.8895 93.4304C48.7684 93.3487 51.8821 90.9854 54.7967 93.5018C57.497 95.8345 58.9875 99.229 56.1035 103.558C53.2297 107.876 45.8232 110.714 43.6385 104.584C43.3169 103.685 44.1693 94.783 34.5731 94.5738C31.2909 94.5023 31.0255 82.7162 24.3693 81.8791C16.5902 80.8939 33.5318 69.0772 33.2102 73.319C32.6793 80.2967 40.4942 79.3013 41.1067 85.1612C41.7294 91.0619 42.2603 93.5325 45.8895 93.4304Z" fill="#CEEBFF"/>
<path d="M34.2058 76.5352C34.2058 79.8025 35.6799 82.4512 37.4982 82.4512C39.3165 82.4512 40.7905 79.8025 40.7905 76.5352C40.7905 73.2678 39.3165 70.6191 37.4982 70.6191C35.6799 70.6191 34.2058 73.2678 34.2058 76.5352Z" fill="#D6D6D6"/>
<path d="M42.4496 54.0295C42.2811 59.823 40.0301 67.5868 27.4885 67.2193C14.947 66.8569 -3.14306 58.5009 -2.97462 52.7074C-2.80617 46.9139 7.49964 42.5139 20.0412 42.8763C32.5827 43.2439 42.618 48.236 42.4496 54.0295Z" fill="#D6D6D6"/>
</g>
<path d="M23.9902 102.61C23.9902 109.394 29.4903 114.894 36.2749 114.895C43.0595 114.896 48.5596 109.399 48.5596 102.615C48.5596 95.8319 43.0595 90.3319 36.2749 90.3306C29.4903 90.3292 23.9902 95.827 23.9902 102.61Z" fill="#E4E4E4"/>
<path fill-rule="evenodd" clip-rule="evenodd" d="M36.2754 88.1162C44.2835 88.1178 50.7754 94.6097 50.7754 102.616C50.7754 110.623 44.2835 117.112 36.2754 117.11C28.2674 117.109 21.7755 110.617 21.7755 102.61C21.7755 94.6038 28.2674 88.1146 36.2754 88.1162ZM46.3449 102.615C46.3449 97.0552 41.8366 92.547 36.2754 92.5458C30.7143 92.5447 26.206 97.0511 26.206 102.611C26.206 108.171 30.7143 112.679 36.2754 112.681C41.8366 112.682 46.3449 108.175 46.3449 102.615Z" fill="black"/>
<path d="M80.9902 102.61C80.9902 109.394 86.4903 114.894 93.2749 114.895C100.06 114.896 105.56 109.399 105.56 102.615C105.56 95.8319 100.06 90.3319 93.2749 90.3306C86.4903 90.3292 80.9902 95.827 80.9902 102.61Z" fill="#E4E4E4"/>
<path fill-rule="evenodd" clip-rule="evenodd" d="M93.2754 88.1162C101.284 88.1178 107.775 94.6097 107.775 102.616C107.775 110.623 101.284 117.112 93.2754 117.11C85.2674 117.109 78.7755 110.617 78.7755 102.61C78.7755 94.6038 85.2674 88.1146 93.2754 88.1162ZM103.345 102.615C103.345 97.0552 98.8366 92.547 93.2754 92.5458C87.7143 92.5447 83.206 97.0511 83.206 102.611C83.206 108.171 87.7143 112.679 93.2754 112.681C98.8366 112.682 103.345 108.175 103.345 102.615Z" fill="black"/>
</svg>
