<svg width="129" height="129" viewBox="0 0 129 129" fill="none" xmlns="http://www.w3.org/2000/svg">
<path fill-rule="evenodd" clip-rule="evenodd" d="M51.7065 29.2661C51.7065 26.7215 53.7176 24.4924 56.4 24.4924H73.4335C76.1158 24.4924 78.127 26.7215 78.127 29.2661V34.5503H98.69L104.082 41.7614V47.5301L108.476 52.9854V81.8123L103.957 87.3837V93.4928L97.4865 100.154H77.6637V106.472C77.6637 109.017 75.6525 111.246 72.9702 111.246H56.232C53.5497 111.246 51.5385 109.017 51.5385 106.472V100.154H32.2948L25.7613 93.2864V87.1708L21.3672 81.7153V53.0107L25.7606 47.5311V41.47L32.3608 34.5503H51.7065V29.2661ZM103.952 53.5545L103.951 53.5534L103.952 53.5545V81.2064L103.951 81.2075L103.952 81.2064V53.5545ZM58.4451 100.154V104.273H70.7571V100.154H58.4451ZM71.2204 34.5503H58.6131V31.4651H71.2204V34.5503ZM74.448 59.3288L96.8869 46.2767L95.2621 43.4835L71.353 57.3907L69.6062 56.2967L60.4176 56.2244L58.4362 57.4188L34.4788 43.4835L32.854 46.2768L55.28 59.3213L53.3262 60.499L53.2539 74.0309L55.2849 75.3028L32.8535 88.3504L34.4783 91.1437L58.3798 77.2409L60.243 78.4077L69.4316 78.48L71.4251 77.2784L95.2621 91.1437L96.8869 88.3504L74.5813 75.3759L76.523 74.2055L76.5953 60.6735L74.448 59.3288ZM60.713 58.8067H68.9882L73.9748 61.5651V72.6436L68.9882 75.8032H60.713L56.1215 72.6436V61.5651L60.713 58.8067ZM34.6533 54.1397C32.9059 58.1782 31.9374 62.6324 31.9374 67.3128C31.9374 71.9352 32.8821 76.337 34.5888 80.3357L31.4731 81.9963C29.5091 77.4995 28.4196 72.5334 28.4196 67.3128C28.4196 62.0248 29.5374 56.9979 31.5495 52.4555L34.6533 54.1397ZM98.4864 82.7041L95.4048 80.9822C97.2905 76.8134 98.3403 72.1856 98.3403 67.3126C98.3403 62.2288 97.1977 57.4118 95.1553 53.1045L98.2027 51.3218C100.545 56.1557 101.858 61.5808 101.858 67.3126C101.858 72.8088 100.651 78.0229 98.4864 82.7041ZM41.483 57.8475C40.3112 60.7736 39.6666 63.9676 39.6666 67.3123C39.6666 70.6202 40.2972 73.7809 41.4447 76.6806L37.698 78.6775C36.2464 75.1767 35.4452 71.338 35.4452 67.3123C35.4452 63.2385 36.2656 59.3564 37.7502 55.822L41.483 57.8475ZM92.3274 79.2644L88.6219 77.1938C89.902 74.1553 90.6095 70.8165 90.6095 67.3124C90.6095 63.6526 89.8377 60.1732 88.448 57.0279L92.1126 54.884C93.8575 58.6648 94.8309 62.8749 94.8309 67.3124C94.8309 71.5643 93.9372 75.6075 92.3274 79.2644ZM48.4058 61.6042C47.7949 63.3952 47.4634 65.3156 47.4634 67.3134C47.4634 69.2946 47.7894 71.1997 48.3906 72.9779L43.9975 75.3193C43.0546 72.8308 42.5385 70.1323 42.5385 67.3134C42.5385 64.4646 43.0656 61.7388 44.0276 59.2285L48.4058 61.6042ZM86.0963 75.7827L81.7522 73.3553C82.4378 71.4704 82.8118 69.4357 82.8118 67.3137C82.8118 65.0905 82.4013 62.9632 81.652 61.0033L85.949 58.4895C87.1 61.2006 87.7367 64.1828 87.7367 67.3137C87.7367 70.3085 87.1542 73.1672 86.0963 75.7827Z" fill="white"/>
</svg>
