<svg width="129" height="128" viewBox="0 0 129 128" fill="none" xmlns="http://www.w3.org/2000/svg">
<path d="M32.5 46.5022C32.5 63.8992 46.603 78.0017 64 78.0011C81.397 78.0005 95.5 63.897 95.5 46.5C95.5 29.103 81.397 15.0005 64 15.0011C46.603 15.0017 32.5 29.1052 32.5 46.5022Z" fill="#FFCFBB"/>
<path fill-rule="evenodd" clip-rule="evenodd" d="M64.5 12.0012C83.2777 12.0005 98.5 27.2223 98.5 46C98.5 64.7777 83.2777 80.0005 64.5 80.0012C45.7223 80.0018 30.5 64.7801 30.5 46.0024C30.5 27.2247 45.7223 12.0018 64.5 12.0012ZM93.3097 46.0002C93.3097 30.089 80.4112 17.1909 64.5 17.1915C48.5888 17.192 35.6903 30.091 35.6903 46.0022C35.6903 61.9134 48.5888 74.8115 64.5 74.8109C80.4112 74.8104 93.3097 61.9114 93.3097 46.0002Z" fill="black"/>
<path d="M22.5 70C22.5 47.3563 40.8683 29 63.5 29C86.1316 29 104.5 47.3563 104.5 70C104.5 92.6436 86.1316 111 63.5 111C40.8683 111 22.5 92.6436 22.5 70Z" fill="white"/>
<mask id="mask0" mask-type="alpha" maskUnits="userSpaceOnUse" x="22" y="29" width="83" height="82">
<path d="M22.5 70C22.5 47.3563 40.8683 29 63.5 29C86.1316 29 104.5 47.3563 104.5 70C104.5 92.6436 86.1316 111 63.5 111C40.8683 111 22.5 92.6436 22.5 70Z" fill="white"/>
</mask>
<g mask="url(#mask0)">
<path d="M25.891 49.9627L29.8985 51.8123L28.9737 55.5116L31.9022 55.0492M34.8308 54.5868L31.9022 55.0492M31.9022 55.0492V58.9026M62.5751 27.459L64.1165 30.2334L67.1992 32.3913M67.1992 32.3913L70.2819 34.2409L69.6654 37.0154M67.1992 32.3913L65.9661 33.4703M61.9586 35.7823L64.733 34.5492L65.9661 33.4703M65.9661 33.4703L67.8157 35.7823M104.5 61.9853L99.8758 64.1431M99.8758 64.1431L98.3345 61.0604H96.3307M99.8758 64.1431L99.2593 66.9176L101.417 70.0003L99.2593 71.6958M94.327 61.0604H96.3307M96.3307 61.0604V63.5266M97.1014 73.3913L99.2593 71.6958M99.2593 71.6958L100.801 74.9326M84.4623 105.76L84.1541 104.064M86.6202 94.6619L86.0037 99.286L83.8458 102.369L84.1541 104.064M84.1541 104.064H81.9962V100.519H79.6841M77.3721 100.519H79.6841M79.6841 100.519L80.7631 98.0529M86.0037 98.0529L83.8458 97.4363M48.0864 109.151L47.1616 104.527L50.8609 103.293M31.9022 96.8198L33.2895 93.7371L31.9022 90.9627L34.4455 90.3461M36.9887 89.7296L34.4455 90.3461M34.4455 90.3461L34.8308 87.88M22.5 75.5491L26.1992 73.6995L28.0489 77.3988M36.3722 38.2484L40.0714 39.7898M40.0714 39.7898L39.4549 43.1808H40.9962V45.0304M40.0714 39.7898L42.5376 41.3311L43.7707 40.4063L45.0037 41.6394M92.4774 39.7898L91.5525 41.3311L89.5488 41.177M86.6202 43.1808L87.545 41.0229L89.5488 41.177M89.5488 41.177L90.6277 45.0304M99.2593 49.9627L98.3345 50.8875L94.0187 50.271L92.4774 52.4289M99.8758 89.113L98.3345 87.88V84.7973L93.4022 83.5642M64.4248 111.617L64.1165 109.151L65.812 107.763M65.9661 104.527L67.5075 106.376L65.812 107.763M65.812 107.763L63.5 106.993" stroke="#FF7E7E" stroke-width="1.24"/>
</g>
<path d="M33.5977 69.9989C33.5977 53.4844 46.9941 40.0967 63.4999 40.0967C80.0057 40.0967 93.4021 53.4844 93.4021 69.9989C93.4021 86.5134 80.0057 99.9011 63.4999 99.9011C46.9941 99.9011 33.5977 86.5134 33.5977 69.9989Z" fill="#0153B4"/>
<path d="M33.5977 69.9989C33.5977 53.4844 46.9941 40.0967 63.4999 40.0967C80.0057 40.0967 93.4021 53.4844 93.4021 69.9989C93.4021 86.5134 80.0057 99.9011 63.4999 99.9011C46.9941 99.9011 33.5977 86.5134 33.5977 69.9989Z" fill="#0153B4"/>
<mask id="mask1" mask-type="alpha" maskUnits="userSpaceOnUse" x="33" y="40" width="61" height="60">
<path d="M33.5977 69.9989C33.5977 53.4844 46.9941 40.0967 63.4999 40.0967C80.0057 40.0967 93.4021 53.4844 93.4021 69.9989C93.4021 86.5134 80.0057 99.9011 63.4999 99.9011C46.9941 99.9011 33.5977 86.5134 33.5977 69.9989Z" fill="#0153B4"/>
<path d="M33.5977 69.9989C33.5977 53.4844 46.9941 40.0967 63.4999 40.0967C80.0057 40.0967 93.4021 53.4844 93.4021 69.9989C93.4021 86.5134 80.0057 99.9011 63.4999 99.9011C46.9941 99.9011 33.5977 86.5134 33.5977 69.9989Z" fill="#0153B4"/>
</mask>
<g mask="url(#mask1)">
<path d="M87.1066 80.4279C87.1066 93.204 74.6626 99.9 63.2704 99.9C51.8782 99.9 39.8926 93.204 39.8926 80.4279C39.8926 67.6517 56.853 78.7175 63.2704 78.7175C70.1462 78.7175 87.1066 67.6517 87.1066 80.4279Z" fill="#067AF4"/>
</g>
<path d="M52.3203 69.9992C52.3203 63.8242 57.3294 58.8184 63.5011 58.8184C69.6729 58.8184 74.682 63.8242 74.682 69.9992C74.682 76.1742 69.6729 81.18 63.5011 81.18C57.3294 81.18 52.3203 76.1742 52.3203 69.9992Z" fill="#00204D"/>
<path d="M61.1602 57.2587C61.1602 51.2273 66.1693 46.3379 72.341 46.3379C78.5127 46.3379 83.5218 51.2273 83.5218 57.2587C83.5218 63.2901 78.5127 68.1795 72.341 68.1795C66.1693 68.1795 61.1602 63.2901 61.1602 57.2587Z" fill="white" fill-opacity="0.75"/>
<path d="M22.5 102.495C22.5 109.399 28.0964 114.996 35 114.998C41.9036 114.999 47.5 109.404 47.5 102.5C47.5 95.5964 41.9036 89.9989 35 89.9975C28.0964 89.9961 22.5 95.5914 22.5 102.495Z" fill="#BFD4EC"/>
<path fill-rule="evenodd" clip-rule="evenodd" d="M35 87.997C43.0081 87.9987 49.5 94.4919 49.5 102.5C49.5 110.508 43.0081 116.999 35 116.997C26.9919 116.995 20.5 110.502 20.5 102.494C20.5 94.4859 26.9919 87.9954 35 87.997ZM45.0694 102.499C45.0694 96.9379 40.5612 92.4287 35 92.4276C29.4388 92.4265 24.9306 96.9338 24.9306 102.495C24.9306 108.056 29.4388 112.565 35 112.566C40.5612 112.568 45.0694 108.06 45.0694 102.499Z" fill="black"/>
<path d="M80.5 102.495C80.5 109.399 86.0964 114.996 93 114.998C99.9036 114.999 105.5 109.404 105.5 102.5C105.5 95.5964 99.9036 89.9989 93 89.9975C86.0964 89.9961 80.5 95.5914 80.5 102.495Z" fill="#BFD4EC"/>
<path fill-rule="evenodd" clip-rule="evenodd" d="M93 87.997C101.008 87.9987 107.5 94.4919 107.5 102.5C107.5 110.508 101.008 116.999 93 116.997C84.9919 116.995 78.5 110.502 78.5 102.494C78.5 94.4859 84.9919 87.9954 93 87.997ZM103.069 102.499C103.069 96.9379 98.5612 92.4287 93 92.4276C87.4388 92.4265 82.9306 96.9338 82.9306 102.495C82.9306 108.056 87.4388 112.565 93 112.566C98.5612 112.568 103.069 108.06 103.069 102.499Z" fill="black"/>
</svg>
