<svg width="129" height="129" viewBox="0 0 129 129" fill="none" xmlns="http://www.w3.org/2000/svg">
<path d="M29.6997 47.3838L18.0362 55.1063L12.3711 70.7545L19.869 77.8673L30.866 81.3221L42.0296 78.0706L46.695 72.5835V66.0804L41.5298 52.4644L29.6997 47.3838Z" fill="#686D84"/>
<path fill-rule="evenodd" clip-rule="evenodd" d="M28.8868 38.3394L47.7972 46.4607L54.6843 64.6156V75.5208L46.564 85.0712L30.7782 89.6691L15.7108 84.9355L3.07812 72.9517L11.4226 49.9026L28.8868 38.3394ZM12.3708 70.7543L18.0359 55.1061L29.6993 47.3836L41.5294 52.4642L46.6947 66.0802V72.5833L42.0293 78.0704L30.8657 81.3219L19.8687 77.8671L12.3708 70.7543Z" fill="black"/>
<path d="M46.6919 72.5833L43.0262 62.0156L39.0273 67.7059L42.0265 78.0703L46.6919 72.5833Z" fill="#777E94"/>
<path d="M25.8663 55.5124L18.8683 66.8929L18.0352 55.106L25.8663 55.5124Z" fill="#82889C"/>
<path d="M29.532 48.8062L26.8661 49.2126L18.0352 55.1061L25.8663 55.5125L35.0305 56.9351L35.3637 50.6352L29.532 48.8062Z" fill="#C3C4C8"/>
<path d="M18.8693 66.8931L19.869 77.8671L12.3711 70.7543L18.8693 66.8931Z" fill="#585E77"/>
<path d="M18.8664 66.8929L18.0333 55.106L15.8672 67.2994L18.8664 66.8929Z" fill="#777E94"/>
<path d="M18.8672 66.8927L24.8655 69.3314L25.8653 55.5122L18.8672 66.8927Z" fill="#777E94"/>
<path d="M24.8633 69.3311L30.8616 81.3213L33.1943 68.3149L24.8633 69.3311Z" fill="#6D758C"/>
<path d="M24.8655 69.3317L19.8669 77.8671L18.8672 66.8931L24.8655 69.3317Z" fill="#636880"/>
<path d="M41.5296 52.4643L35.3646 50.6353L35.0313 56.9352L25.8672 55.5126L33.1985 68.3157L43.0292 62.0158L41.5296 52.4643Z" fill="#959AAB"/>
<path d="M99.2456 47.3838L110.909 55.1063L116.574 70.7545L109.076 77.8673L98.0793 81.3221L86.9157 78.0706L82.2503 72.5835V66.0804L87.4155 52.4644L99.2456 47.3838Z" fill="#686D84"/>
<path fill-rule="evenodd" clip-rule="evenodd" d="M100.058 38.3394L81.1481 46.4607L74.261 64.6156V75.5208L82.3813 85.0712L98.1672 89.6691L113.234 84.9355L125.867 72.9517L117.523 49.9026L100.058 38.3394ZM116.575 70.7543L110.909 55.1061L99.246 47.3836L87.4159 52.4642L82.2506 66.0802V72.5833L86.916 78.0704L98.0796 81.3219L109.077 77.8671L116.575 70.7543Z" fill="black"/>
<path d="M82.2534 72.5833L85.9191 62.0156L89.918 67.7059L86.9188 78.0703L82.2534 72.5833Z" fill="#777E94"/>
<path d="M103.079 55.5124L110.077 66.8929L110.91 55.106L103.079 55.5124Z" fill="#82889C"/>
<path d="M99.4133 48.8062L102.079 49.2126L110.91 55.1061L103.079 55.5125L93.9148 56.9351L93.5816 50.6352L99.4133 48.8062Z" fill="#C3C4C8"/>
<path d="M110.076 66.8931L109.076 77.8671L116.574 70.7543L110.076 66.8931Z" fill="#585E77"/>
<path d="M110.079 66.8929L110.912 55.106L113.078 67.2994L110.079 66.8929Z" fill="#777E94"/>
<path d="M110.078 66.8927L104.08 69.3314L103.08 55.5122L110.078 66.8927Z" fill="#777E94"/>
<path d="M104.082 69.3311L98.0837 81.3213L95.751 68.3149L104.082 69.3311Z" fill="#6D758C"/>
<path d="M104.08 69.3317L109.078 77.8671L110.078 66.8931L104.08 69.3317Z" fill="#636880"/>
<path d="M87.4158 52.4643L93.5807 50.6353L93.914 56.9352L103.078 55.5126L95.7468 68.3157L85.9162 62.0158L87.4158 52.4643Z" fill="#959AAB"/>
</svg>
