<svg width="129" height="129" viewBox="0 0 129 129" fill="none" xmlns="http://www.w3.org/2000/svg">
<path d="M114.406 64.2527C114.406 53.4652 105.676 44.7185 94.906 44.7163C84.1364 44.7142 75.406 53.4574 75.406 64.2449C75.406 75.0324 84.1364 83.7791 94.906 83.7812C105.676 83.7834 114.406 75.0402 114.406 64.2527Z" fill="url(#paint0_radial)"/>
<path fill-rule="evenodd" clip-rule="evenodd" d="M78.956 64.2451C78.956 73.0776 86.1026 80.229 94.906 80.2308C103.709 80.2325 110.856 73.0839 110.856 64.2515C110.856 55.4191 103.709 48.2676 94.906 48.2659C86.1026 48.2641 78.956 55.4127 78.956 64.2451ZM94.906 87.3308C82.1702 87.3282 71.856 76.9862 71.856 64.2437C71.856 51.5012 82.1702 41.1633 94.906 41.1659C107.642 41.1684 117.956 51.5104 117.956 64.2529C117.956 76.9955 107.642 87.3333 94.906 87.3308Z" fill="black"/>
<path d="M53.3059 64.2851C53.3059 53.5156 44.59 44.7834 33.8383 44.7812C23.0867 44.7791 14.3707 53.5078 14.3707 64.2773C14.3707 75.0469 23.0867 83.7791 33.8383 83.7812C44.59 83.7834 53.3059 75.0547 53.3059 64.2851Z" fill="url(#paint1_radial)"/>
<path fill-rule="evenodd" clip-rule="evenodd" d="M17.9207 64.2776C17.9207 73.0921 25.0529 80.229 33.8383 80.2308C42.6238 80.2325 49.756 73.0985 49.7559 64.284C49.7559 55.4694 42.6238 48.3325 33.8383 48.3308C25.0529 48.329 17.9207 55.4631 17.9207 64.2776ZM33.8383 87.3308C21.1205 87.3282 10.8207 77.0008 10.8207 64.2762C10.8207 51.5516 21.1205 41.2282 33.8383 41.2308C46.5562 41.2333 56.8559 51.5608 56.8559 64.2854C56.8559 77.01 46.5562 87.3333 33.8383 87.3308Z" fill="black"/>
<defs>
<radialGradient id="paint0_radial" cx="0" cy="0" r="1" gradientUnits="userSpaceOnUse" gradientTransform="translate(93.7509 64.6097) rotate(26.0296) scale(17.8571 17.8869)">
<stop stop-color="#659461"/>
<stop offset="1" stop-color="#266767"/>
</radialGradient>
<radialGradient id="paint1_radial" cx="0" cy="0" r="1" gradientUnits="userSpaceOnUse" gradientTransform="translate(32.6852 64.6416) rotate(26.0296) scale(17.8275 17.8571)">
<stop stop-color="#659461"/>
<stop offset="1" stop-color="#266767"/>
</radialGradient>
</defs>
</svg>
