<svg width="36" height="34" viewBox="0 0 36 34" fill="none" xmlns="http://www.w3.org/2000/svg">
<path d="M16.366 0.920098L16.1047 0.658782L15.7782 0.83192C13.4346 2.07473 11.8414 4.9284 11.5039 8.16824L11.484 8.3588L11.5966 8.51383L17.3037 16.3734L17.8812 17.1687L17.2962 16.3709L11.5565 8.544L11.4466 8.39424L11.2657 8.35248C10.3698 8.14574 9.44928 8.07878 8.60951 8.07878V8.07873L8.60205 8.07884C6.32436 8.11283 4.29804 8.82715 2.94491 10.1447L2.68051 10.4021L2.8486 10.7306L4.0558 13.0902L1.69627 14.2974L1.36689 14.4659L1.43176 14.8301C1.89347 17.4228 4.0993 19.8191 7.10434 21.1359L7.27863 21.2122L7.4596 21.1534L16.6889 18.1531L18.1447 17.6798L16.6902 17.2025L14.603 16.5176L14.3263 16.4269L14.1108 16.6228C13.926 16.7907 13.6383 16.8048 13.4426 16.658L13.4427 16.6578L13.4332 16.6511C13.1905 16.4777 13.1384 16.1145 13.3075 15.8993L13.3145 15.8903L13.3212 15.881C13.4932 15.6403 13.8519 15.587 14.0677 15.7512C14.1991 15.8626 14.2931 16.0072 14.3251 16.1191L14.3979 16.3741L14.6499 16.4568L16.7371 17.1417L18.2177 17.6275L18.2083 17.6147V16.0796V13.862V13.5826L17.9704 13.4361C17.7372 13.2927 17.6295 13.0318 17.701 12.7561C17.7641 12.5433 17.9927 12.3872 18.2271 12.404L18.2449 12.4052H18.2611C18.2627 12.4054 18.2709 12.4064 18.2882 12.4107C18.3145 12.4172 18.344 12.4268 18.3934 12.4432C18.6928 12.5509 18.8497 12.8662 18.7614 13.1665L18.7585 13.1763L18.756 13.1863C18.7352 13.2695 18.6618 13.3702 18.5038 13.4604L18.2519 13.6044V13.8946V16.1122V17.6517L19.1565 16.406L24.8636 8.54645L24.976 8.39166L24.9564 8.20139C24.6188 4.92704 23.0246 2.10683 20.682 0.864532L20.358 0.692732L20.0968 0.950101L18.2327 2.78678L16.366 0.920098ZM34.7639 14.2974L32.4044 13.0902L33.6116 10.7306L33.7796 10.4023L33.5155 10.1449C32.0931 8.75799 29.931 8.04556 27.5862 8.07878C26.794 8.0791 26.0089 8.1825 25.2333 8.35109L25.0478 8.39143L24.9358 8.5448L19.196 16.4043L18.2802 17.6585L19.7557 17.1743L21.8429 16.4894L22.1257 16.3966L22.1789 16.1038C22.2048 15.9615 22.3374 15.7934 22.5603 15.7072C22.853 15.629 23.1566 15.7817 23.2655 16.0704C23.346 16.368 23.1878 16.6771 22.8903 16.7821L22.8903 16.7821L22.8858 16.7837C22.7172 16.8451 22.5286 16.8011 22.3993 16.6718L22.1819 16.4544L21.8898 16.5503L19.8027 17.2351L18.3481 17.7124L19.804 18.1857L29.0332 21.186L29.2146 21.245L29.3892 21.1682C30.2442 20.792 31.0281 20.3143 31.7411 19.7711L31.7429 19.7697C33.509 18.4112 34.7084 16.6791 35.0289 14.8278L35.0917 14.465L34.7639 14.2974ZM19.7544 18.2131L18.2894 17.7368L19.1954 18.9826L20.4999 20.7763L20.6751 21.0172L20.9704 20.9778C21.1885 20.9488 21.438 21.095 21.5373 21.3544C21.6162 21.6475 21.4635 21.9517 21.1744 22.0607C20.8838 22.1394 20.5822 21.9903 20.4704 21.7063C20.4299 21.5286 20.4427 21.3937 20.4833 21.2988L20.5953 21.0376L20.4281 20.8078L19.1237 19.0141L18.2193 17.7706V19.3082V29.0266V29.2189L18.3482 29.3617C20.539 31.7884 23.499 33.1736 26.1305 32.7824L26.4937 32.7284L26.5509 32.3658L26.9622 29.7608L29.5998 30.1729L29.9631 30.2296L30.1255 29.8998C31.2982 27.5188 30.9139 24.3043 29.2622 21.4392L29.1663 21.2728L28.9836 21.2134L19.7544 18.2131ZM17.2613 18.9874L18.2008 17.7271L16.7058 18.2131L7.47656 21.2134L7.2953 21.2723L7.19925 21.4369C5.54635 24.2705 5.16102 27.5199 6.33601 29.8699L6.49969 30.1972L6.86121 30.1401L9.46469 29.7291L9.87656 32.365L9.93351 32.7295L10.2986 32.7826C12.2561 33.0674 14.4089 32.3871 16.3125 30.9594L16.3125 30.9595L16.3194 30.9541C16.9228 30.4848 17.5396 29.9383 18.0598 29.3141L18.1757 29.175V28.994V19.3082V17.7706L17.2713 19.0141L15.9668 20.8078L15.7997 21.0376L15.9116 21.2988C16.0196 21.5508 15.9451 21.8204 15.7498 21.9702C15.5064 22.1398 15.141 22.074 14.9844 21.8548C14.8106 21.6116 14.8758 21.2424 15.0964 21.0848L15.1116 21.0739L15.1259 21.062C15.2019 20.9987 15.3195 20.9607 15.4613 20.9784L15.7502 21.0145L15.9242 20.7811L17.2613 18.9874Z" fill="white" stroke="black"/>
</svg>
