<svg width="128" height="129" viewBox="0 0 128 129" fill="none" xmlns="http://www.w3.org/2000/svg">
<rect x="103.037" y="46.6172" width="6.18082" height="21.5163" rx="3.09041" transform="rotate(45 103.037 46.6172)" fill="#FFD770"/>
<rect x="87.8223" y="50.9883" width="6.18082" height="21.5163" rx="3.09041" transform="rotate(-45 87.8223 50.9883)" fill="#FFD770"/>
<rect x="84.4941" y="60.8809" width="26.1496" height="19.9688" fill="#D22B2B"/>
<rect x="82.1172" y="55.1758" width="30.9041" height="7.60716" fill="#B61B1B"/>
<rect x="94.4795" y="55.1758" width="6.18082" height="25.6742" fill="#FFC123"/>
<path fill-rule="evenodd" clip-rule="evenodd" d="M100.795 49.301C101.41 48.6823 102.232 48.3965 103.037 48.4443C103.727 48.4853 104.405 48.7709 104.932 49.301C106.074 50.4492 106.074 52.311 104.933 53.4601L104.932 53.4608L103.037 55.3659H112.314V62.6057H110.064V79.8016H85.3121V62.6057H83.062V55.3659H92.4259L90.5316 53.4612C89.3891 52.3121 89.3887 50.4501 90.5311 49.301C91.0581 48.7712 91.7361 48.4858 92.4259 48.4449C93.2312 48.397 94.0525 48.6824 94.6678 49.301L97.7314 52.3811L100.795 49.301ZM110.367 43.8363C106.944 40.3945 101.765 39.7954 97.7311 42.0389L110.367 43.8363ZM110.368 43.8371C111.476 44.9519 112.288 46.2518 112.803 47.6376H120V70.334H117.75V87.5299H77.6261V70.334H75.376V47.6376H82.66C83.1753 46.2517 83.9871 44.9518 85.0954 43.8371L85.0963 43.8363C88.519 40.3948 93.6975 39.7965 97.7311 42.0389" fill="black"/>
<rect x="36.6611" y="46.6172" width="6.18082" height="21.5163" rx="3.09041" transform="rotate(45 36.6611 46.6172)" fill="#FFD770"/>
<rect x="21.4453" y="50.9883" width="6.18082" height="21.5163" rx="3.09041" transform="rotate(-45 21.4453 50.9883)" fill="#FFD770"/>
<rect x="18.1182" y="60.8809" width="26.1496" height="19.9688" fill="#D22B2B"/>
<rect x="15.7402" y="55.1758" width="30.9041" height="7.60716" fill="#B61B1B"/>
<rect x="28.1025" y="55.1758" width="6.18082" height="25.6742" fill="#FFC123"/>
<path fill-rule="evenodd" clip-rule="evenodd" d="M34.419 49.301C35.0343 48.6823 35.8558 48.3965 36.661 48.4443C37.3508 48.4853 38.029 48.7709 38.5561 49.301C39.698 50.4492 39.6982 52.311 38.5567 53.4601L38.5561 53.4608L36.661 55.3659H45.9382V62.6057H43.6878V79.8016H18.9362V62.6057H16.6861V55.3659H26.0499L24.1556 53.4612C23.0131 52.3121 23.0127 50.4501 24.1551 49.301C24.6821 48.7712 25.3601 48.4858 26.0499 48.4449C26.8552 48.397 27.6765 48.6824 28.2919 49.301L31.3554 52.3811L34.419 49.301ZM43.9909 43.8363C40.5683 40.3945 35.3893 39.7954 31.3551 42.0389L43.9909 43.8363ZM43.9917 43.8371C45.1002 44.9519 45.912 46.2518 46.4272 47.6376H53.6243V70.334H51.3739V87.5299H11.2501V70.334H9V47.6376H16.284C16.7993 46.2517 17.6111 44.9518 18.7195 43.8371L18.7203 43.8363C22.143 40.3948 27.3215 39.7965 31.3551 42.0389" fill="black"/>
</svg>
