<svg width="256" height="256" viewBox="0 0 256 256" fill="none" xmlns="http://www.w3.org/2000/svg">
<path d="M142.62 163.546C142.81 163.621 142.992 163.743 143.121 163.903C144.122 165.178 145.416 166.905 146.684 168.847C146.688 168.303 146.683 167.699 146.655 167.039C146.639 166.649 146.832 166.27 147.172 166.065C147.496 165.862 147.909 165.841 148.262 166.011C152.402 168.173 156.26 171 159.731 174.402C159.889 174.558 159.994 174.753 160.04 174.957C160.432 176.707 160.872 179.054 161.182 181.618C161.499 180.979 161.845 180.243 162.196 179.447C162.348 179.09 162.683 178.855 163.06 178.795C163.437 178.734 163.819 178.9 164.058 179.194C169.619 186.19 173.426 194.6 174.774 202.875L174.777 202.889C174.802 203.052 174.784 203.221 174.737 203.394C174.28 204.948 173.618 206.988 172.764 209.134C173.018 208.958 173.285 208.764 173.552 208.57C173.885 208.32 174.326 208.295 174.699 208.492C175.071 208.689 175.295 209.076 175.299 209.484C175.286 215.695 173.679 221.301 170.667 225.712C170.499 225.966 170.227 226.13 169.937 226.176C163.154 227.263 157.255 226.395 151.905 223.52C147.48 221.147 143.444 217.367 139.554 211.946C139.325 211.62 139.275 211.205 139.428 210.848C139.58 210.492 139.91 210.227 140.304 210.179C140.391 210.165 140.463 210.154 140.553 210.155C139.697 209.717 138.717 209.24 137.599 208.739C137.406 208.649 137.236 208.51 137.117 208.318C134.574 204.298 132.259 199.925 130.027 195.705C129.375 194.479 128.719 193.225 128.053 192.002C127.884 191.681 127.871 191.306 128.03 190.993C128.172 190.668 128.464 190.44 128.809 190.37C130.798 189.976 132.711 189.669 134.534 189.453C132.175 188.229 128.651 186.588 124.533 185.238C124.283 185.157 124.079 184.993 123.939 184.759C120.623 179.398 117.555 175.825 114.299 173.521C110.41 170.775 106.133 169.828 101.249 170.611C100.712 170.697 100.203 170.386 100.034 169.869C99.864 169.352 100.088 168.787 100.553 168.532C115.016 160.579 129.573 158.852 142.62 163.546Z" fill="#8C6D3D"/>
<path d="M133.927 175.373C133.689 175.941 133.943 176.6 134.504 176.846C140.215 179.369 144.884 183.407 148.761 189.209C150.485 191.794 151.954 194.556 153.282 197.371C150.561 196.294 146.083 194.96 140.751 195.187C140.143 195.207 139.675 195.735 139.699 196.354C139.723 196.973 140.247 197.453 140.855 197.434C147.816 197.133 153.335 199.762 154.684 200.462C155.481 202.282 156.234 204.108 156.968 205.906C158.237 209.003 159.498 212.056 160.901 214.874C158.816 214.046 155.946 213.159 153.35 213.156C152.74 213.16 152.253 213.662 152.248 214.285C152.257 214.906 152.754 215.406 153.367 215.416C156.978 215.428 161.489 217.531 162.62 218.083C167.028 225.624 173.115 230.701 184.609 228.9C185.206 228.807 185.62 228.226 185.524 227.618C185.427 227.011 184.852 226.584 184.255 226.678C177.242 227.776 172.073 226.216 167.982 221.784C164.863 218.4 162.593 213.607 160.386 208.363C161.498 206.731 164.702 201.566 165.684 194.715C165.694 194.592 165.707 194.483 165.688 194.365C165.612 193.891 165.253 193.506 164.764 193.431C164.166 193.327 163.592 193.751 163.512 194.371C162.775 199.484 160.666 203.657 159.345 205.853C159.245 205.595 159.127 205.325 159.027 205.068C156.695 199.418 154.213 193.383 150.627 188.006C150.868 186.707 151.47 182.998 151.319 179.331C151.312 179.287 151.319 179.24 151.312 179.196C151.225 178.647 150.74 178.222 150.177 178.249C149.569 178.269 149.101 178.798 149.125 179.417C149.216 181.574 149.017 183.793 148.802 185.436C145.44 181.087 141.157 177.323 135.4 174.792C134.81 174.551 134.164 174.804 133.927 175.373Z" fill="#553D26"/>
<path d="M148.684 124.731C148.717 124.65 148.77 124.573 148.84 124.52C149.388 124.114 150.13 123.59 150.963 123.084C150.732 123.068 150.477 123.055 150.198 123.051C150.033 123.048 149.875 122.954 149.791 122.8C149.708 122.653 149.704 122.471 149.779 122.321C150.732 120.562 151.963 118.943 153.433 117.508C153.501 117.443 153.584 117.402 153.671 117.387C154.414 117.259 155.41 117.125 156.497 117.054C156.229 116.899 155.922 116.729 155.589 116.555C155.439 116.48 155.343 116.327 155.321 116.16C155.299 115.994 155.373 115.831 155.499 115.733C158.508 113.473 162.099 112.017 165.609 111.634L165.615 111.634C165.684 111.627 165.755 111.639 165.828 111.664C166.48 111.903 167.336 112.244 168.235 112.672C168.163 112.556 168.084 112.434 168.004 112.313C167.902 112.161 167.895 111.967 167.982 111.808C168.069 111.65 168.235 111.562 168.407 111.57C171.032 111.732 173.386 112.577 175.222 114.007C175.327 114.087 175.394 114.21 175.411 114.338C175.806 117.337 175.384 119.899 174.118 122.171C173.074 124.049 171.438 125.722 169.11 127.29C168.97 127.382 168.795 127.393 168.645 127.318C168.496 127.242 168.387 127.091 168.371 126.917C168.366 126.879 168.361 126.847 168.363 126.807C168.17 127.171 167.959 127.589 167.737 128.066C167.697 128.148 167.636 128.219 167.554 128.266C165.831 129.279 163.961 130.183 162.156 131.055C161.632 131.31 161.096 131.566 160.573 131.826C160.436 131.892 160.277 131.889 160.146 131.811C160.01 131.741 159.917 131.608 159.89 131.454C159.742 130.573 159.631 129.728 159.557 128.924C159.017 129.926 158.29 131.429 157.681 133.198C157.644 133.306 157.573 133.391 157.473 133.447C155.176 134.765 153.637 136.018 152.633 137.387C151.435 139.021 150.995 140.871 151.279 143.03C151.311 143.267 151.174 143.483 150.954 143.544C150.734 143.605 150.498 143.493 150.394 143.283C147.17 136.748 146.577 130.328 148.684 124.731Z" fill="#ECECEC"/>
<path d="M153.848 128.209C154.093 128.336 154.376 128.247 154.481 128.005C155.556 125.545 157.284 123.606 159.771 122.086C160.879 121.41 162.064 120.855 163.271 120.365C162.812 121.542 162.246 123.494 162.352 125.886C162.361 126.159 162.589 126.387 162.855 126.399C163.121 126.411 163.326 126.195 163.317 125.922C163.177 122.799 164.298 120.429 164.597 119.852C165.378 119.562 166.161 119.293 166.933 119.031C168.261 118.577 169.571 118.125 170.78 117.602C170.427 118.503 170.05 119.754 170.053 120.914C170.056 121.187 170.272 121.423 170.54 121.448C170.807 121.467 171.021 121.263 171.024 120.989C171.024 119.376 171.92 117.437 172.156 116.951C175.389 115.258 177.561 112.723 176.77 107.519C176.729 107.249 176.479 107.042 176.218 107.063C175.957 107.084 175.775 107.325 175.816 107.595C176.298 110.771 175.636 113.024 173.738 114.69C172.289 115.96 170.233 116.799 167.983 117.593C167.28 117.036 165.056 115.414 162.111 114.724C162.058 114.714 162.011 114.705 161.961 114.709C161.757 114.725 161.592 114.872 161.561 115.088C161.517 115.351 161.7 115.623 161.967 115.682C164.164 116.199 165.96 117.295 166.906 117.966C166.796 118.001 166.68 118.044 166.569 118.08C164.145 118.914 161.556 119.802 159.251 121.208C158.693 121.052 157.098 120.647 155.523 120.58C155.504 120.582 155.484 120.577 155.465 120.578C155.229 120.597 155.047 120.798 155.06 121.051C155.069 121.323 155.297 121.552 155.563 121.564C156.49 121.603 157.443 121.773 158.15 121.929C156.287 123.273 154.676 125.049 153.597 127.529C153.494 127.784 153.604 128.082 153.848 128.209Z" fill="#C4C4C4"/>
<path d="M75.2215 198.997C75.1642 199.064 75.0897 199.12 75.0076 199.148C74.3592 199.362 73.4902 199.627 72.5397 199.847C72.754 199.934 72.9929 200.026 73.2576 200.117C73.414 200.171 73.5353 200.31 73.5672 200.482C73.6002 200.648 73.5486 200.821 73.4302 200.94C71.9766 202.311 70.3016 203.461 68.4554 204.363C68.3709 204.404 68.2789 204.417 68.1916 204.404C67.444 204.293 66.454 204.109 65.3971 203.837C65.6038 204.067 65.8438 204.324 66.1072 204.593C66.2259 204.712 66.2701 204.887 66.2393 205.051C66.2085 205.216 66.0877 205.348 65.937 205.401C62.3696 206.605 58.4986 206.864 55.0372 206.13L55.0311 206.129C54.9634 206.114 54.8993 206.08 54.8376 206.034C54.2906 205.604 53.5816 205.012 52.8584 204.326C52.8912 204.458 52.929 204.598 52.9668 204.739C53.0171 204.915 52.9631 205.101 52.8313 205.224C52.6995 205.347 52.5142 205.379 52.3529 205.317C49.9033 204.344 47.924 202.807 46.6201 200.877C46.5444 200.768 46.5189 200.631 46.5427 200.504C47.0975 197.537 48.2956 195.239 50.206 193.48C51.7844 192.025 53.8616 190.949 56.5648 190.19C56.7267 190.146 56.8977 190.19 57.0164 190.309C57.1351 190.427 57.1916 190.605 57.1534 190.774C57.1463 190.812 57.1404 190.844 57.1271 190.881C57.4237 190.596 57.7543 190.266 58.1141 189.883C58.1775 189.818 58.257 189.769 58.3502 189.75C60.3053 189.328 62.3669 189.054 64.3562 188.791C64.9342 188.713 65.5245 188.638 66.1037 188.554C66.2547 188.535 66.4049 188.587 66.5051 188.702C66.6127 188.811 66.6604 188.967 66.6381 189.12C66.5053 190.002 66.3488 190.839 66.1698 191.625C66.9949 190.842 68.1537 189.645 69.2835 188.157C69.3517 188.066 69.4459 188.007 69.5587 187.986C72.1554 187.454 74.0103 186.745 75.3916 185.762C77.0394 184.585 78.0333 182.969 78.4328 180.832C78.4767 180.598 78.6734 180.436 78.9019 180.447C79.1304 180.457 79.3208 180.638 79.3543 180.869C80.3952 188.074 78.9659 194.348 75.2215 198.997Z" fill="#ECECEC"/>
<path d="M71.4654 193.84C71.2718 193.643 70.9749 193.64 70.7999 193.836C69.0118 195.833 66.7644 197.132 63.924 197.797C62.6589 198.092 61.3586 198.248 60.0567 198.336C60.8591 197.363 62.0048 195.688 62.6469 193.387C62.7227 193.125 62.5766 192.838 62.3271 192.743C62.0777 192.649 61.8148 192.79 61.7389 193.051C60.9021 196.056 59.0983 197.954 58.6345 198.408C57.8015 198.439 56.9717 198.45 56.1554 198.457C54.7493 198.472 53.3618 198.492 52.0483 198.611C52.664 197.866 53.4111 196.798 53.7691 195.697C53.8512 195.437 53.7186 195.146 53.4713 195.038C53.223 194.937 52.9561 195.064 52.8678 195.322C52.3671 196.852 50.9108 198.411 50.5359 198.798C46.9308 199.394 44.0755 201.119 43.2123 206.302C43.1675 206.57 43.3418 206.845 43.5967 206.906C43.8517 206.968 44.1002 206.796 44.145 206.527C44.6716 203.365 46.0022 201.435 48.3271 200.448C50.1017 199.696 52.3199 199.543 54.7087 199.493C55.2051 200.241 56.8191 202.473 59.4093 204.048C59.4569 204.073 59.4982 204.097 59.548 204.109C59.747 204.157 59.9491 204.069 60.0463 203.875C60.1697 203.638 60.0799 203.323 59.8443 203.184C57.9122 202.007 56.5422 200.407 55.85 199.475C55.9663 199.476 56.0899 199.472 56.2062 199.473C58.7735 199.438 61.5152 199.405 64.1463 198.792C64.6297 199.114 66.0222 199.996 67.5015 200.552C67.5201 200.556 67.5377 200.568 67.5563 200.572C67.7864 200.628 68.0222 200.494 68.0886 200.25C68.1645 199.989 68.0183 199.701 67.7689 199.607C66.8983 199.28 66.0433 198.821 65.4191 198.452C67.6107 197.76 69.6962 196.579 71.4937 194.563C71.671 194.354 71.659 194.037 71.4654 193.84Z" fill="#C4C4C4"/>
<path d="M234.214 66.3122C234.091 66.4296 233.936 66.5248 233.772 66.566C232.479 66.875 230.75 67.2471 228.871 67.5237C229.27 67.7187 229.715 67.9276 230.21 68.1384C230.503 68.2636 230.712 68.5435 230.742 68.8729C230.776 69.1905 230.644 69.5104 230.393 69.7182C227.331 72.0924 223.881 74.0184 220.145 75.4496C219.974 75.5143 219.794 75.525 219.627 75.4885C218.202 75.1686 216.321 74.6753 214.326 74.0074C214.684 74.4723 215.101 74.9933 215.561 75.5399C215.769 75.781 215.823 76.1173 215.733 76.424C215.643 76.7307 215.386 76.962 215.084 77.0394C207.964 78.7881 200.43 78.7091 193.87 76.8163L193.858 76.8129C193.73 76.7749 193.612 76.7015 193.501 76.6046C192.522 75.7119 191.259 74.4916 189.986 73.0888C190.025 73.344 190.073 73.6144 190.12 73.8849C190.185 74.2246 190.047 74.5682 189.769 74.7808C189.492 74.9934 189.128 75.0265 188.827 74.8861C184.268 72.6889 180.721 69.4971 178.552 65.6625C178.426 65.4456 178.402 65.182 178.471 64.9461C180.087 59.4257 182.825 55.2631 186.842 52.2231C190.161 49.707 194.376 47.9818 199.743 46.9444C200.064 46.8857 200.387 46.9941 200.595 47.2352C200.802 47.4763 200.879 47.8195 200.774 48.1345C200.754 48.2053 200.736 48.2643 200.704 48.3316C201.33 47.8376 202.03 47.263 202.796 46.5927C202.93 46.4787 203.093 46.3987 203.277 46.3763C207.135 45.866 211.173 45.6523 215.068 45.4479C216.2 45.386 217.356 45.331 218.491 45.2573C218.787 45.2423 219.068 45.364 219.241 45.5947C219.429 45.8171 219.493 46.118 219.421 46.4045C219.003 48.0496 218.547 49.6067 218.057 51.0639C219.796 49.7076 222.257 47.6165 224.714 44.9733C224.863 44.8122 225.055 44.7155 225.278 44.6916C230.397 44.0679 234.114 43.0029 236.966 41.3483C240.368 39.3696 242.587 36.4632 243.751 32.488C243.878 32.0515 244.288 31.7756 244.728 31.8291C245.169 31.8826 245.504 32.2511 245.526 32.6936C246.22 46.4493 242.307 58.0834 234.214 66.3122Z" fill="#FFE07D"/>
<path d="M228.557 55.9629C228.223 55.5807 227.647 55.5405 227.265 55.8801C223.37 59.3303 218.729 61.4516 213.071 62.3446C210.551 62.74 207.992 62.8786 205.444 62.8916C207.208 61.203 209.787 58.2697 211.52 54.1327C211.723 53.663 211.5 53.12 211.035 52.9189C210.57 52.7178 210.03 52.9462 209.827 53.4159C207.567 58.8177 203.663 62.0843 202.666 62.8627C201.041 62.8241 199.426 62.7499 197.839 62.6708C195.104 62.5384 192.404 62.4164 189.827 62.4853C191.181 61.1922 192.858 59.3231 193.786 57.35C194 56.8839 193.804 56.3358 193.346 56.111C192.885 55.8981 192.34 56.0993 192.114 56.562C190.818 59.3046 187.66 61.9904 186.85 62.6559C179.72 63.3361 173.809 66.1681 171.038 75.5499C170.894 76.0368 171.175 76.558 171.657 76.6997C172.14 76.8414 172.659 76.5551 172.803 76.0682C174.493 70.3442 177.485 66.9643 182.21 65.4228C185.817 64.2495 190.158 64.2216 194.81 64.4007C195.616 65.825 198.281 70.0924 202.981 73.2671C203.068 73.3185 203.143 73.3664 203.237 73.394C203.614 73.5046 204.025 73.3673 204.255 73.0219C204.545 72.6036 204.437 72.017 204.008 71.7362C200.503 69.3642 198.179 66.2811 197.031 64.4983C197.257 64.513 197.498 64.5193 197.724 64.534C202.718 64.7624 208.052 65.0129 213.293 64.1908C214.164 64.8339 216.683 66.6064 219.44 67.7906C219.475 67.8009 219.507 67.8232 219.542 67.8335C219.977 67.9614 220.464 67.7429 220.644 67.3055C220.847 66.8359 220.624 66.2928 220.159 66.0917C218.536 65.3957 216.972 64.4586 215.838 63.7123C220.241 62.6959 224.542 60.7717 228.46 57.2893C228.848 56.926 228.892 56.3451 228.557 55.9629Z" fill="#E9B585"/>
<path d="M59.2356 120.424C59.2838 120.528 59.3109 120.647 59.3013 120.761C59.2156 121.656 59.0747 122.844 58.8399 124.108C59.0521 123.894 59.2833 123.653 59.5269 123.38C59.6711 123.219 59.8961 123.144 60.1135 123.195C60.3241 123.241 60.5 123.393 60.578 123.598C61.4262 126.067 61.9026 128.689 61.9997 131.39C62.0037 131.513 61.9709 131.631 61.9111 131.73C61.3939 132.576 60.6658 133.678 59.8012 134.815C60.1771 134.685 60.602 134.528 61.0527 134.349C61.2526 134.267 61.4795 134.304 61.6561 134.427C61.8327 134.55 61.9243 134.764 61.9078 134.974C61.4662 139.912 59.7641 144.728 57.1147 148.533L57.1099 148.54C57.0576 148.614 56.9848 148.674 56.8984 148.725C56.1125 149.163 55.0546 149.714 53.8778 150.232C54.0497 150.261 54.2332 150.288 54.4166 150.315C54.6484 150.346 54.8378 150.508 54.9131 150.731C54.9883 150.954 54.9297 151.195 54.774 151.358C52.3683 153.815 49.548 155.412 46.6185 155.988C46.452 156.023 46.278 155.982 46.1422 155.888C42.9634 153.677 40.8995 151.037 39.8344 147.814C38.9517 145.15 38.7713 142.08 39.2839 138.417C39.3167 138.199 39.4569 138.015 39.6567 137.933C39.8566 137.851 40.0931 137.874 40.2717 138.009C40.3124 138.037 40.3464 138.061 40.3824 138.096C40.2034 137.589 39.9891 137.018 39.7279 136.385C39.6845 136.274 39.669 136.153 39.6949 136.03C40.2142 133.447 40.9624 130.812 41.6855 128.269C41.8941 127.53 42.1121 126.777 42.3139 126.033C42.3691 125.84 42.5085 125.686 42.6941 125.624C42.8777 125.551 43.0842 125.574 43.252 125.681C44.2132 126.299 45.1097 126.922 45.9349 127.546C45.4481 126.142 44.6491 124.12 43.4962 121.982C43.4256 121.852 43.406 121.708 43.4394 121.56C44.1625 118.144 44.2958 115.533 43.8619 113.352C43.3413 110.75 41.9674 108.709 39.6785 107.118C39.4271 106.943 39.3404 106.621 39.4711 106.35C39.6018 106.08 39.9111 105.943 40.1992 106.023C49.1551 108.501 55.7432 113.484 59.2356 120.424Z" fill="#FFE07D"/>
<path d="M50.4911 122.048C50.1855 122.181 50.0395 122.54 50.168 122.855C51.4692 126.07 51.7964 129.479 51.1537 133.278C50.8661 134.97 50.4123 136.632 49.8836 138.26C49.2168 136.778 47.9561 134.512 45.7771 132.531C45.531 132.303 45.15 132.33 44.9285 132.584C44.7069 132.839 44.7335 133.232 44.9797 133.46C47.8256 136.044 49.012 139.226 49.2806 140.027C48.9147 141.056 48.529 142.07 48.146 143.066C47.4886 144.783 46.8449 146.48 46.3445 148.139C45.8343 147.002 45.0381 145.537 44.0202 144.527C43.7787 144.292 43.4003 144.301 43.1657 144.546C42.9376 144.795 42.9465 145.186 43.1834 145.428C44.5971 146.834 45.5836 149.417 45.8222 150.075C44.7388 154.767 45.2353 159.138 50.4211 162.889C50.6903 163.084 51.07 163.015 51.2587 162.737C51.4474 162.459 51.3807 162.068 51.1116 161.873C47.9475 159.584 46.4993 156.96 46.5465 153.62C46.5846 151.071 47.4819 148.295 48.5718 145.365C49.6176 145.151 52.8031 144.353 55.7453 142.026C55.7953 141.981 55.8406 141.943 55.8775 141.889C56.0247 141.672 56.0269 141.381 55.8629 141.161C55.6667 140.888 55.2832 140.832 55.0203 141.047C52.8233 142.782 50.4378 143.612 49.0997 143.968C49.1562 143.827 49.2109 143.675 49.2675 143.534C50.46 140.395 51.7374 137.045 52.3358 133.527C52.9148 133.107 54.5354 131.875 55.8442 130.366C55.858 130.346 55.8784 130.33 55.8922 130.31C56.0625 130.059 56.0306 129.703 55.7996 129.495C55.5534 129.267 55.1725 129.294 54.9509 129.548C54.1811 130.436 53.2755 131.236 52.5775 131.802C52.88 128.778 52.6026 125.627 51.2862 122.391C51.1446 122.066 50.7966 121.915 50.4911 122.048Z" fill="#E9B585"/>
<path d="M110.292 105.063C110.229 105.052 110.16 105.055 110.1 105.077C109.629 105.255 109.007 105.507 108.358 105.822C108.443 105.674 108.54 105.512 108.653 105.339C108.719 105.237 108.727 105.103 108.668 104.991C108.613 104.883 108.505 104.809 108.383 104.797C106.927 104.696 105.442 104.822 103.969 105.167C103.901 105.182 103.842 105.218 103.798 105.265C103.415 105.672 102.924 106.232 102.434 106.872C102.451 106.648 102.474 106.392 102.506 106.12C102.522 105.998 102.469 105.88 102.377 105.801C102.285 105.723 102.156 105.704 102.045 105.744C99.4407 106.712 97.0839 108.352 95.4094 110.36L95.4064 110.363C95.3739 110.403 95.352 110.452 95.3372 110.506C95.2136 111 95.0684 111.66 94.9578 112.379C94.9173 112.289 94.8763 112.193 94.8352 112.097C94.7854 111.975 94.6706 111.895 94.5392 111.887C94.4078 111.878 94.2862 111.946 94.2206 112.055C93.2393 113.731 92.7829 115.508 92.8938 117.194C92.8989 117.29 92.9458 117.379 93.0164 117.439C94.6685 118.851 96.3927 119.591 98.2873 119.699C99.8537 119.789 101.538 119.436 103.444 118.616C103.557 118.566 103.636 118.463 103.652 118.341C103.667 118.22 103.62 118.094 103.522 118.016C103.501 117.998 103.483 117.983 103.459 117.969C103.759 117.992 104.098 118.025 104.478 118.074C104.544 118.082 104.612 118.072 104.674 118.04C105.995 117.376 107.311 116.579 108.581 115.81C108.95 115.587 109.326 115.357 109.698 115.137C109.795 115.079 109.858 114.98 109.865 114.869C109.878 114.758 109.836 114.649 109.754 114.573C109.282 114.138 108.816 113.74 108.36 113.381C109.188 113.44 110.396 113.579 111.717 113.895C111.797 113.914 111.878 113.904 111.953 113.864C113.695 112.966 115.086 112.509 116.327 112.425C117.808 112.326 119.109 112.777 120.298 113.794C120.429 113.905 120.615 113.905 120.743 113.794C120.87 113.683 120.9 113.494 120.815 113.348C118.186 108.818 114.545 105.95 110.292 105.063Z" fill="#8C6D3D"/>
<path d="M110.799 109.549C110.775 109.751 110.604 109.891 110.413 109.861C108.469 109.56 106.572 109.868 104.617 110.811C103.746 111.232 102.918 111.747 102.119 112.301C103.027 112.48 104.451 112.896 105.864 113.9C106.027 114.013 106.071 114.244 105.969 114.413C105.866 114.582 105.649 114.624 105.487 114.512C103.642 113.199 101.733 112.962 101.258 112.921C100.759 113.29 100.27 113.669 99.7909 114.044C98.9647 114.688 98.1473 115.321 97.3279 115.864C98.0233 116 98.9412 116.258 99.647 116.714C99.8123 116.824 99.8666 117.05 99.771 117.226C99.6719 117.398 99.4592 117.45 99.291 117.345C98.308 116.711 96.7553 116.505 96.3619 116.46C93.9919 117.797 91.5484 118.146 88.7048 115.613C88.5572 115.481 88.5349 115.245 88.6557 115.092C88.7764 114.939 88.9989 114.921 89.1465 115.052C90.8815 116.598 92.5288 117.072 94.3295 116.552C95.7032 116.153 97.0651 115.21 98.48 114.129C98.4316 113.476 98.3638 111.462 99.1622 109.368C99.1786 109.332 99.192 109.3 99.2155 109.27C99.3098 109.15 99.4672 109.106 99.6118 109.171C99.7905 109.247 99.8805 109.467 99.8059 109.655C99.2113 111.219 99.1358 112.761 99.1531 113.609C99.2205 113.555 99.2945 113.5 99.3619 113.446C100.874 112.273 102.487 111.019 104.297 110.144C104.433 109.738 104.846 108.592 105.457 107.59C105.466 107.579 105.471 107.565 105.48 107.554C105.589 107.415 105.787 107.382 105.936 107.489C106.098 107.601 106.143 107.832 106.04 108.001C105.68 108.59 105.389 109.247 105.192 109.746C106.782 109.12 108.531 108.821 110.489 109.127C110.687 109.163 110.823 109.348 110.799 109.549Z" fill="#553D26"/>
<path d="M145.635 36.8855C145.693 37.0142 145.726 37.1622 145.715 37.3034C145.61 38.4133 145.439 39.8868 145.153 41.4538C145.411 41.1882 145.693 40.8891 145.989 40.5508C146.165 40.3511 146.439 40.2585 146.703 40.3214C146.96 40.3784 147.174 40.5674 147.269 40.8215C148.302 43.883 148.881 47.1347 149 50.4831C149.004 50.6361 148.965 50.7824 148.892 50.9052C148.262 51.9546 147.376 53.3206 146.323 54.7309C146.781 54.569 147.298 54.3746 147.847 54.1526C148.09 54.0508 148.366 54.0969 148.581 54.2491C148.796 54.4014 148.908 54.6673 148.888 54.9272C148.35 61.051 146.278 67.0226 143.053 71.7414L143.047 71.7498C142.983 71.8417 142.895 71.916 142.789 71.9786C141.833 72.5222 140.545 73.2051 139.112 73.8478C139.321 73.8839 139.545 73.9174 139.768 73.951C140.05 73.9888 140.281 74.1895 140.372 74.4663C140.464 74.743 140.393 75.0413 140.203 75.2435C137.274 78.2908 133.841 80.2705 130.275 80.9846C130.072 81.0279 129.86 80.9777 129.695 80.8605C125.825 78.12 123.312 74.8453 122.016 70.8493C120.941 67.5463 120.722 63.7397 121.346 59.1974C121.386 58.9266 121.556 58.6985 121.799 58.5967C122.043 58.4949 122.331 58.5243 122.548 58.6908C122.598 58.7259 122.639 58.7552 122.683 58.7987C122.465 58.1708 122.204 57.4627 121.886 56.6768C121.833 56.5397 121.814 56.3893 121.846 56.2372C122.478 53.0338 123.389 49.7663 124.269 46.614C124.523 45.6973 124.789 44.7638 125.034 43.8412C125.101 43.6022 125.271 43.4109 125.497 43.3342C125.721 43.2432 125.972 43.2718 126.176 43.4039C127.346 44.1703 128.438 44.9433 129.443 45.717C128.85 43.9764 127.877 41.4684 126.474 38.8171C126.388 38.6565 126.364 38.4777 126.405 38.2946C127.285 34.0583 127.447 30.8213 126.919 28.117C126.285 24.8895 124.613 22.3593 121.826 20.3858C121.52 20.1692 121.414 19.7704 121.574 19.4345C121.733 19.0986 122.109 18.9291 122.46 19.028C133.363 22.1013 141.383 28.2796 145.635 36.8855Z" fill="#ECECEC"/>
<path d="M135.22 38.0598C134.844 38.2248 134.664 38.6715 134.822 39.0637C136.424 43.0625 136.826 47.3034 136.035 52.0291C135.681 54.1332 135.123 56.2009 134.472 58.2264C133.651 56.3821 132.1 53.5636 129.418 51.1001C129.115 50.8158 128.646 50.8501 128.373 51.1661C128.101 51.482 128.134 51.971 128.437 52.2553C131.939 55.4696 133.399 59.4279 133.73 60.4238C133.28 61.7033 132.805 62.9651 132.334 64.2041C131.524 66.3399 130.732 68.4504 130.116 70.5139C129.488 69.0997 128.508 67.2772 127.256 66.0219C126.958 65.7292 126.493 65.7407 126.204 66.0448C125.923 66.3549 125.934 66.8405 126.226 67.1417C127.966 68.8913 129.18 72.1042 129.473 72.9221C128.14 78.7595 128.751 84.196 135.134 88.8622C135.465 89.1044 135.932 89.0187 136.165 88.6732C136.397 88.3276 136.315 87.8403 135.983 87.5981C132.089 84.7512 130.307 81.4874 130.365 77.3319C130.412 74.1612 131.516 70.7078 132.858 67.0632C134.145 66.7976 138.065 65.8053 141.687 62.9099C141.748 62.8543 141.804 62.8072 141.849 62.7397C142.03 62.4701 142.033 62.1076 141.831 61.8343C141.59 61.4944 141.118 61.4258 140.794 61.692C138.09 63.8502 135.154 64.8837 133.507 65.3261C133.577 65.1508 133.644 64.9611 133.714 64.7858C135.182 60.8816 136.754 56.7145 137.49 52.3386C138.203 51.8163 140.197 50.2832 141.808 48.4067C141.825 48.3814 141.85 48.3621 141.867 48.3368C142.077 48.025 142.038 47.5815 141.753 47.3233C141.45 47.039 140.981 47.0733 140.709 47.3893C139.761 48.494 138.647 49.4889 137.788 50.1932C138.16 46.4308 137.819 42.5112 136.198 38.4862C136.024 38.0822 135.596 37.8948 135.22 38.0598Z" fill="#C4C4C4"/>
<path d="M195.322 148.212C195.299 148.264 195.286 148.323 195.291 148.38C195.332 148.828 195.399 149.422 195.511 150.054C195.41 149.947 195.299 149.826 195.183 149.69C195.114 149.609 195.006 149.572 194.902 149.597C194.802 149.62 194.717 149.697 194.68 149.799C194.274 151.033 194.047 152.345 194 153.695C193.998 153.756 194.014 153.815 194.043 153.865C194.29 154.288 194.638 154.839 195.052 155.408C194.872 155.342 194.669 155.264 194.453 155.174C194.357 155.133 194.249 155.152 194.164 155.213C194.08 155.275 194.036 155.382 194.044 155.487C194.255 157.956 195.069 160.364 196.336 162.267L196.339 162.27C196.364 162.307 196.399 162.337 196.44 162.362C196.816 162.582 197.322 162.857 197.885 163.116C197.802 163.131 197.715 163.144 197.627 163.158C197.516 163.173 197.425 163.254 197.389 163.365C197.353 163.477 197.381 163.597 197.456 163.679C198.606 164.908 199.955 165.706 201.356 165.994C201.436 166.011 201.519 165.991 201.584 165.944C203.104 164.839 204.092 163.518 204.601 161.907C205.023 160.575 205.109 159.04 204.864 157.209C204.849 157.099 204.782 157.007 204.686 156.966C204.59 156.925 204.477 156.937 204.392 157.004C204.372 157.019 204.356 157.03 204.339 157.048C204.424 156.795 204.527 156.509 204.652 156.192C204.673 156.137 204.68 156.076 204.668 156.015C204.419 154.723 204.061 153.406 203.716 152.135C203.616 151.765 203.512 151.389 203.415 151.017C203.389 150.92 203.322 150.843 203.233 150.812C203.145 150.775 203.047 150.787 202.966 150.84C202.507 151.149 202.078 151.461 201.683 151.773C201.916 151.071 202.298 150.06 202.85 148.991C202.883 148.926 202.893 148.854 202.877 148.78C202.531 147.072 202.467 145.767 202.675 144.676C202.924 143.375 203.581 142.355 204.676 141.559C204.796 141.471 204.837 141.311 204.775 141.175C204.712 141.04 204.564 140.971 204.426 141.011C200.143 142.251 196.992 144.742 195.322 148.212Z" fill="#FFE07D"/>
<path d="M199.543 149.023C199.684 149.088 199.751 149.263 199.692 149.417C199.091 150.985 198.94 152.648 199.237 154.502C199.37 155.327 199.579 156.138 199.823 156.932C200.131 156.209 200.713 155.103 201.718 154.137C201.832 154.026 202.008 154.039 202.11 154.163C202.212 154.287 202.2 154.479 202.086 154.59C200.773 155.851 200.225 157.403 200.101 157.794C200.27 158.295 200.448 158.79 200.625 159.276C200.928 160.114 201.225 160.941 201.456 161.751C201.692 161.196 202.059 160.481 202.529 159.989C202.641 159.874 202.815 159.879 202.924 159.998C203.029 160.12 203.025 160.31 202.915 160.428C202.263 161.114 201.808 162.374 201.697 162.695C202.197 164.984 201.968 167.116 199.575 168.946C199.451 169.041 199.275 169.007 199.188 168.872C199.101 168.736 199.132 168.545 199.256 168.45C200.717 167.334 201.385 166.054 201.363 164.424C201.346 163.181 200.931 161.827 200.428 160.397C199.946 160.293 198.476 159.904 197.118 158.769C197.094 158.747 197.074 158.728 197.057 158.702C196.989 158.596 196.988 158.454 197.063 158.347C197.154 158.213 197.331 158.187 197.452 158.291C198.466 159.137 199.567 159.543 200.185 159.716C200.159 159.647 200.133 159.573 200.107 159.504C199.557 157.973 198.967 156.339 198.691 154.623C198.424 154.418 197.676 153.817 197.072 153.081C197.066 153.071 197.056 153.064 197.05 153.054C196.971 152.931 196.986 152.757 197.093 152.656C197.206 152.545 197.382 152.558 197.484 152.682C197.839 153.115 198.257 153.505 198.58 153.782C198.44 152.306 198.568 150.769 199.176 149.191C199.241 149.032 199.402 148.959 199.543 149.023Z" fill="#E9B585"/>
<path d="M55.4038 50.6929C55.3619 50.7843 55.3384 50.8893 55.3467 50.9895C55.4212 51.7772 55.5438 52.8229 55.7479 53.935C55.5634 53.7464 55.3623 53.5342 55.1506 53.2941C55.0252 53.1524 54.8295 53.0867 54.6404 53.1313C54.4573 53.1717 54.3043 53.3059 54.2365 53.4863C53.4989 55.6589 53.0847 57.9666 53.0003 60.3429C52.9968 60.4514 53.0253 60.5552 53.0773 60.6424C53.5271 61.3871 54.1601 62.3566 54.912 63.3574C54.5851 63.2425 54.2157 63.1045 53.8238 62.947C53.65 62.8747 53.4526 62.9075 53.299 63.0155C53.1455 63.1236 53.0658 63.3123 53.0802 63.4967C53.4642 67.8426 54.9443 72.0806 57.2481 75.4294L57.2522 75.4353C57.2978 75.5005 57.3611 75.5533 57.4361 75.5977C58.1196 75.9835 59.0395 76.4681 60.0628 76.9243C59.9133 76.9498 59.7538 76.9737 59.5942 76.9975C59.3927 77.0243 59.228 77.1668 59.1625 77.3631C59.0971 77.5595 59.1481 77.7713 59.2835 77.9147C61.3754 80.0773 63.8278 81.4823 66.3752 81.9891C66.52 82.0198 66.6713 81.9841 66.7894 81.901C69.5536 79.9561 71.3483 77.6322 72.2744 74.7963C73.042 72.4522 73.1989 69.7508 72.7531 66.5272C72.7246 66.335 72.6027 66.1731 72.4289 66.1009C72.2551 66.0286 72.0495 66.0495 71.8942 66.1676C71.8587 66.1926 71.8292 66.2134 71.7979 66.2442C71.9536 65.7987 72.1399 65.2961 72.367 64.7384C72.4047 64.6411 72.4183 64.5343 72.3957 64.4264C71.9442 62.153 71.2935 59.8341 70.6648 57.5971C70.4834 56.9465 70.2938 56.284 70.1184 55.6293C70.0704 55.4596 69.9491 55.3239 69.7877 55.2694C69.6281 55.2048 69.4485 55.2251 69.3026 55.3189C68.4668 55.8628 67.6872 56.4113 66.9696 56.9605C67.3929 55.7252 68.0877 53.9453 69.0903 52.0637C69.1516 51.9498 69.1687 51.8229 69.1396 51.693C68.5108 48.6866 68.395 46.3893 68.7723 44.4702C69.2249 42.1796 70.4196 40.384 72.41 38.9835C72.6286 38.8297 72.704 38.5467 72.5903 38.3084C72.4767 38.07 72.2077 37.9497 71.9572 38.0199C64.1695 40.2009 58.4407 44.5856 55.4038 50.6929Z" fill="#FFE07D"/>
<path d="M62.0852 52.0422C62.3672 52.1587 62.502 52.474 62.3834 52.7508C61.1822 55.5735 60.8803 58.5671 61.4735 61.9029C61.739 63.3881 62.1579 64.8477 62.6459 66.2774C63.2614 64.9756 64.4251 62.986 66.4365 61.2471C66.6637 61.0465 67.0154 61.0706 67.2199 61.2937C67.4244 61.5167 67.3998 61.8619 67.1726 62.0626C64.5456 64.3315 63.4505 67.1256 63.2025 67.8286C63.5403 68.7317 63.8963 69.6224 64.2498 70.497C64.8567 72.0046 65.4509 73.4944 65.9128 74.951C66.3837 73.9527 67.1187 72.6662 68.0583 71.7802C68.2812 71.5735 68.6305 71.5817 68.8471 71.7964C69.0576 72.0152 69.0494 72.358 68.8307 72.5706C67.5258 73.8056 66.6152 76.0735 66.3949 76.6509C67.395 80.7714 66.9367 84.609 62.1497 87.9027C61.9013 88.0737 61.5508 88.0132 61.3766 87.7693C61.2024 87.5254 61.264 87.1814 61.5124 87.0104C64.433 85.0008 65.7699 82.697 65.7263 79.7637C65.6911 77.5255 64.8628 75.0879 63.8568 72.5152C62.8914 72.3277 59.951 71.6273 57.2351 69.5835C57.189 69.5442 57.1471 69.5109 57.1131 69.4634C56.9772 69.273 56.9751 69.0171 57.1266 68.8242C57.3076 68.5843 57.6617 68.5359 57.9043 68.7238C59.9323 70.2472 62.1343 70.9767 63.3696 71.289C63.3173 71.1653 63.2669 71.0314 63.2146 70.9076C62.1139 68.1517 60.9347 65.2102 60.3823 62.1214C59.8479 61.7527 58.352 60.6705 57.1438 59.3459C57.1311 59.3281 57.1123 59.3144 57.0995 59.2966C56.9423 59.0765 56.9718 58.7634 57.185 58.5812C57.4122 58.3805 57.7639 58.4047 57.9684 58.6277C58.679 59.4075 59.515 60.1098 60.1592 60.607C59.88 57.9512 60.1361 55.1844 61.3512 52.3432C61.4819 52.0581 61.8032 51.9257 62.0852 52.0422Z" fill="#E9B585"/>
</svg>
