<svg width="128" height="128" viewBox="0 0 128 128" fill="none" xmlns="http://www.w3.org/2000/svg">
<path fill-rule="evenodd" clip-rule="evenodd" d="M80.7242 64.8558C80.7242 74.6114 88.6288 82.5103 98.366 82.5122C108.103 82.5141 116.008 74.6184 116.008 64.8628C116.008 55.1073 108.103 47.2084 98.366 47.2064C88.6288 47.2045 80.7242 55.1002 80.7242 64.8558ZM98.366 90.3679C84.2718 90.3651 72.8574 78.9361 72.8574 64.8542C72.8574 50.7724 84.2718 39.3479 98.366 39.3507C112.46 39.3536 123.875 50.7826 123.875 64.8644C123.875 78.9463 112.46 90.3707 98.366 90.3679Z" fill="black"/>
<path fill-rule="evenodd" clip-rule="evenodd" d="M118.568 68.549C118.354 68.6548 117.976 68.8409 117.451 69.1557C116.684 69.611 116.492 70.0663 116.372 70.3059C116.3 70.5455 116.252 71.1926 116.756 71.5759C116.899 71.6719 117.307 71.8875 117.739 71.7197C117.523 72.3668 117.259 72.9898 116.971 73.5889C116.756 73.6128 116.324 73.7087 115.653 73.9004C114.789 74.164 114.478 74.5475 114.358 74.7871C114.238 75.0267 114.022 75.6258 114.406 76.1289C114.502 76.2727 114.837 76.5604 115.293 76.5364C114.909 77.0875 114.502 77.6387 114.07 78.142C113.922 78.1271 113.7 78.1031 113.388 78.0926C113.196 78.0861 112.969 78.0849 112.703 78.094C111.816 78.118 111.409 78.4055 111.217 78.6212C111.049 78.8129 110.689 79.3161 110.929 79.9152C111.001 80.0829 111.241 80.4423 111.696 80.5383C111.169 80.9696 110.641 81.377 110.09 81.7603C109.898 81.6645 109.466 81.5207 108.795 81.353C107.932 81.1374 107.476 81.329 107.237 81.4728C107.021 81.5927 106.541 82.024 106.613 82.647C106.637 82.8148 106.781 83.2461 107.189 83.4378C106.589 83.7254 105.99 83.989 105.342 84.2286C105.151 84.0848 104.791 83.8452 104.167 83.5097C103.376 83.0783 102.897 83.1263 102.633 83.2221C102.393 83.2941 101.818 83.5816 101.722 84.2046C101.698 84.3724 101.746 84.8037 102.081 85.1152C101.434 85.235 100.763 85.331 100.091 85.3788C99.9475 85.2111 99.6598 84.8756 99.1562 84.3963C98.5089 83.7733 98.0293 83.7014 97.7416 83.7254C97.5018 83.7494 96.8784 83.8692 96.6146 84.4443C96.5427 84.5881 96.4468 85.0194 96.7106 85.4028C96.0392 85.3548 95.3678 85.259 94.7204 85.1392C94.6245 84.9475 94.4327 84.5401 94.0731 83.941C93.5935 83.1743 93.1379 82.9585 92.8742 82.9106C92.6344 82.8387 92.011 82.7908 91.6034 83.2941C91.5075 83.4139 91.3157 83.8212 91.4595 84.2526C90.8121 84.0368 90.1887 83.7733 89.5893 83.4857C89.5653 83.2461 89.4694 82.8148 89.2776 82.1438C89.0138 81.2811 88.6302 80.9696 88.3904 80.8498C88.1507 80.73 87.5512 80.5143 87.0477 80.8977C86.9038 80.9936 86.6161 81.329 86.6401 81.7843C86.0886 81.4009 85.5371 80.9936 85.0336 80.5622C85.0576 80.3465 85.1055 79.9152 85.0816 79.2203C85.0816 78.3096 84.7938 77.9262 84.578 77.7345C84.4102 77.5667 83.8827 77.2073 83.2833 77.4469C83.1154 77.4949 82.7558 77.7345 82.6598 78.1898C82.2282 77.6866 81.8206 77.1594 81.437 76.6082C81.5089 76.3926 81.6528 75.9613 81.8206 75.2902C82.0364 74.4276 81.8446 73.9722 81.7007 73.7326C81.5808 73.517 81.1492 73.0377 80.5259 73.1097C80.358 73.1097 79.9264 73.2773 79.7346 73.6848C79.4469 73.0617 79.2071 72.4626 78.9673 71.8155C79.1112 71.6479 79.3509 71.2644 79.6867 70.6653C80.1183 69.8746 80.0703 69.3713 79.9744 69.1077C79.8785 68.8681 79.6147 68.293 78.9913 68.1972C78.8234 68.1732 78.3918 68.1972 78.0802 68.5566C77.9603 67.9096 77.8643 67.2386 77.8164 66.5676L77.8173 66.5669C77.9854 66.4228 78.3208 66.1354 78.7995 65.633C79.4229 64.986 79.5188 64.5067 79.4948 64.2192C79.4948 63.9556 79.3749 63.3325 78.7995 63.0929C78.6316 63.0211 78.2001 62.9252 77.8164 63.1887C77.8643 62.5178 77.9603 61.8469 78.1761 61.2238L78.2577 61.1834C78.4723 61.0777 78.8501 60.8915 79.3749 60.5768C80.1422 60.0975 80.358 59.6422 80.406 59.3786C80.4779 59.139 80.5259 58.492 80.0223 58.1086C79.8785 57.9888 79.4708 57.797 79.0393 57.9408C79.255 57.2938 79.5188 56.6708 79.8065 56.0717C80.0223 56.0477 80.4539 55.9519 81.1253 55.7601C81.9884 55.4966 82.3002 55.1132 82.42 54.8735C82.5399 54.6339 82.7558 54.0348 82.3721 53.5316C82.2762 53.3877 81.9405 53.1003 81.485 53.1241C81.8686 52.573 82.2762 52.0219 82.7078 51.5187C82.9475 51.5665 83.3791 51.5905 84.0745 51.5665C84.9617 51.5665 85.3693 51.279 85.5611 51.0634C85.7289 50.8956 86.0886 50.3683 85.8488 49.7693C85.7769 49.6016 85.5371 49.2421 85.0816 49.1463C85.585 48.7149 86.1126 48.3076 86.664 47.9242C86.8559 47.996 87.2875 48.1398 87.9588 48.3076C88.822 48.5232 89.2776 48.3315 89.5174 48.1878C89.7331 48.068 90.2127 47.6365 90.1407 47.0135C90.1168 46.8458 89.9729 46.4144 89.5653 46.2227C90.1647 45.9351 90.7642 45.6955 91.4115 45.4559C91.6034 45.5997 91.963 45.8393 92.5865 46.1748C93.3777 46.6062 93.8572 46.5582 94.121 46.4624C94.3608 46.3905 94.9362 46.1029 95.0321 45.4798C95.0561 45.3122 95.0081 44.8808 94.6725 44.5693C95.3199 44.4495 95.9912 44.3536 96.6626 44.3057C96.8064 44.4735 97.0942 44.8089 97.5977 45.2882C98.2451 45.9113 98.7246 45.9831 99.0124 45.9831C99.2521 45.9831 99.8756 45.8633 100.091 45.36C100.163 45.1924 100.259 44.7609 99.9954 44.3775L100 44.3779C100.67 44.4497 101.34 44.5215 101.986 44.6411L102.026 44.7224C102.132 44.9369 102.318 45.3145 102.633 45.8393C103.113 46.6062 103.568 46.8218 103.832 46.8698C104.072 46.9416 104.695 46.9896 105.103 46.4863C105.199 46.3665 105.39 45.9591 105.246 45.5278C105.894 45.7435 106.517 46.0071 107.117 46.2946C107.141 46.5103 107.237 46.9416 107.428 47.6126C107.692 48.4753 108.076 48.7869 108.316 48.9067C108.555 49.0265 109.155 49.2421 109.658 48.8587C109.802 48.7629 110.09 48.4274 110.066 47.972C110.617 48.3554 111.169 48.7629 111.672 49.1942C111.648 49.4338 111.6 49.8652 111.624 50.5601C111.624 51.4707 111.936 51.8541 112.128 52.0458C112.296 52.2136 112.823 52.573 113.423 52.3334C113.591 52.2615 113.95 52.0219 114.046 51.5665C114.478 52.0698 114.885 52.597 115.269 53.1481C115.197 53.3399 115.053 53.7712 114.885 54.4421C114.694 55.3048 114.861 55.7601 115.005 55.9997C115.125 56.2155 115.557 56.6948 116.18 56.6228C116.348 56.5988 116.756 56.4551 116.971 56.0477C117.259 56.6708 117.499 57.2699 117.739 57.9168C117.595 58.0846 117.355 58.468 117.019 59.0671C116.588 59.8579 116.636 60.3371 116.732 60.6007C116.804 60.8404 117.091 61.4155 117.715 61.5113C117.883 61.5353 118.314 61.4874 118.626 61.1518C118.746 61.7989 118.842 62.4698 118.89 63.1409L118.889 63.1416C118.721 63.2856 118.385 63.5731 117.907 64.0754C117.283 64.7225 117.187 65.2017 117.211 65.4892C117.235 65.7289 117.355 66.3519 117.931 66.6156C118.098 66.6874 118.53 66.7832 118.914 66.5197C118.866 66.9668 118.818 67.4139 118.756 67.8539C118.724 68.0742 118.69 68.2928 118.65 68.5086L118.568 68.549ZM98.365 68.3971C100.491 68.3971 101.908 66.7071 101.908 64.8542C101.908 63.0014 100.491 61.3114 98.4369 61.3114C96.2393 61.3114 94.8221 63.0014 94.8221 64.8542C94.8221 66.7071 96.2393 68.3971 98.365 68.3971Z" fill="url(#paint0_radial)"/>
<path fill-rule="evenodd" clip-rule="evenodd" d="M98.3666 82.5687C108.15 82.5687 116.081 74.6378 116.081 64.8544C116.081 55.0711 108.15 47.1401 98.3666 47.1401C88.5833 47.1401 80.6523 55.0711 80.6523 64.8544C80.6523 74.6378 88.5833 82.5687 98.3666 82.5687ZM98.3666 68.2989C100.269 68.2989 101.811 66.7567 101.811 64.8544C101.811 62.9521 100.269 61.41 98.3666 61.41C96.4643 61.41 94.9222 62.9521 94.9222 64.8544C94.9222 66.7567 96.4643 68.2989 98.3666 68.2989Z" fill="url(#paint1_angular)"/>
<path fill-rule="evenodd" clip-rule="evenodd" d="M47.2758 64.8558C47.2758 74.6114 39.3712 82.5103 29.634 82.5122C19.8969 82.5141 11.9922 74.6184 11.9922 64.8628C11.9922 55.1073 19.8969 47.2084 29.634 47.2064C39.3712 47.2045 47.2758 55.1002 47.2758 64.8558ZM29.634 90.3679C43.7282 90.3651 55.1426 78.9361 55.1426 64.8542C55.1426 50.7724 43.7282 39.3479 29.634 39.3507C15.5399 39.3536 4.12544 50.7826 4.12544 64.8644C4.12544 78.9463 15.5399 90.3707 29.634 90.3679Z" fill="black"/>
<path fill-rule="evenodd" clip-rule="evenodd" d="M49.8378 68.549C49.6232 68.6548 49.2453 68.8409 48.7205 69.1557C47.9532 69.611 47.7614 70.0663 47.6415 70.3059C47.5696 70.5455 47.5216 71.1926 48.0251 71.5759C48.169 71.6719 48.5766 71.8875 49.0082 71.7197C48.7924 72.3668 48.5287 72.9898 48.241 73.5889C48.0251 73.6128 47.5936 73.7087 46.9222 73.9004C46.059 74.164 45.7473 74.5475 45.6274 74.7871C45.5075 75.0267 45.2917 75.6258 45.6754 76.1289C45.7713 76.2727 46.1069 76.5604 46.5625 76.5364C46.1789 77.0875 45.7713 77.6387 45.3397 78.142C45.1914 78.1271 44.9697 78.1031 44.6576 78.0926C44.4652 78.0861 44.2383 78.0849 43.973 78.094C43.0858 78.118 42.6782 78.4055 42.4864 78.6212C42.3186 78.8129 41.9589 79.3161 42.1987 79.9152C42.2706 80.0829 42.5103 80.4423 42.9659 80.5383C42.4384 80.9696 41.9109 81.377 41.3595 81.7603C41.1676 81.6645 40.736 81.5207 40.0647 81.353C39.2015 81.1374 38.7459 81.329 38.5061 81.4728C38.2904 81.5927 37.8108 82.024 37.8827 82.647C37.9067 82.8148 38.0506 83.2461 38.4582 83.4378C37.8587 83.7254 37.2593 83.989 36.6119 84.2286C36.4201 84.0848 36.0604 83.8452 35.437 83.5097C34.6458 83.0783 34.1663 83.1263 33.9025 83.2221C33.6627 83.2941 33.0873 83.5816 32.9913 84.2046C32.9674 84.3724 33.0153 84.8037 33.351 85.1152C32.7036 85.235 32.0322 85.331 31.3609 85.3788C31.217 85.2111 30.9293 84.8756 30.4258 84.3963C29.7784 83.7733 29.2988 83.7014 29.0111 83.7254C28.7714 83.7494 28.1479 83.8692 27.8841 84.4443C27.8123 84.5881 27.7163 85.0194 27.9801 85.4028C27.3087 85.3548 26.6373 85.259 25.99 85.1392C25.8941 84.9475 25.7022 84.5401 25.3426 83.941C24.863 83.1743 24.4074 82.9585 24.1437 82.9106C23.9039 82.8387 23.2805 82.7908 22.8729 83.2941C22.777 83.4139 22.5852 83.8212 22.729 84.2526C22.0816 84.0368 21.4583 83.7733 20.8588 83.4857C20.8348 83.2461 20.7389 82.8148 20.5471 82.1438C20.2833 81.2811 19.8997 80.9696 19.66 80.8498C19.4202 80.73 18.8208 80.5143 18.3172 80.8977C18.1733 80.9936 17.8856 81.329 17.9096 81.7843C17.3581 81.4009 16.8066 80.9936 16.3031 80.5622C16.3271 80.3465 16.375 79.9152 16.3511 79.2203C16.3511 78.3096 16.0634 77.9262 15.8475 77.7345C15.6797 77.5667 15.1522 77.2073 14.5528 77.4469C14.385 77.4949 14.0253 77.7345 13.9293 78.1898C13.4977 77.6866 13.0901 77.1594 12.7065 76.6082C12.7784 76.3926 12.9223 75.9613 13.0901 75.2902C13.306 74.4276 13.1141 73.9722 12.9703 73.7326C12.8504 73.517 12.4188 73.0377 11.7954 73.1097C11.6276 73.1097 11.196 73.2773 11.0041 73.6848C10.7164 73.0617 10.4766 72.4626 10.2369 71.8155C10.3807 71.6479 10.6205 71.2644 10.9562 70.6653C11.3878 69.8746 11.3398 69.3713 11.2439 69.1077C11.148 68.8681 10.8842 68.293 10.2608 68.1972C10.093 68.1732 9.66137 68.1972 9.34971 68.5566C9.22982 67.9096 9.13388 67.2386 9.08594 66.5676L9.08682 66.5669C9.25494 66.4228 9.59036 66.1354 10.069 65.633C10.6924 64.986 10.7884 64.5067 10.7644 64.2192C10.7644 63.9556 10.6445 63.3325 10.069 63.0929C9.90114 63.0211 9.4696 62.9252 9.08594 63.1887C9.13388 62.5178 9.22982 61.8469 9.4456 61.2238L9.5272 61.1834C9.7418 61.0777 10.1196 60.8915 10.6445 60.5768C11.4117 60.0975 11.6276 59.6422 11.6755 59.3786C11.7474 59.139 11.7954 58.492 11.2918 58.1086C11.148 57.9888 10.7404 57.797 10.3088 57.9408C10.5246 57.2938 10.7884 56.6708 11.0761 56.0717C11.2918 56.0477 11.7234 55.9519 12.3948 55.7601C13.258 55.4966 13.5697 55.1132 13.6896 54.8735C13.8095 54.6339 14.0253 54.0348 13.6416 53.5316C13.5457 53.3877 13.21 53.1003 12.7545 53.1241C13.1381 52.573 13.5457 52.0219 13.9773 51.5187C14.2171 51.5665 14.6487 51.5905 15.344 51.5665C16.2312 51.5665 16.6388 51.279 16.8306 51.0634C16.9985 50.8956 17.3581 50.3683 17.1183 49.7693C17.0464 49.6016 16.8066 49.2421 16.3511 49.1463C16.8546 48.7149 17.3821 48.3076 17.9336 47.9242C18.1254 47.996 18.557 48.1398 19.2284 48.3076C20.0915 48.5232 20.5471 48.3315 20.7869 48.1878C21.0027 48.068 21.4822 47.6365 21.4103 47.0135C21.3863 46.8458 21.2424 46.4144 20.8348 46.2227C21.4343 45.9351 22.0337 45.6955 22.6811 45.4559C22.8729 45.5997 23.2326 45.8393 23.856 46.1748C24.6472 46.6062 25.1268 46.5582 25.3905 46.4624C25.6303 46.3905 26.2057 46.1029 26.3017 45.4798C26.3256 45.3122 26.2777 44.8808 25.942 44.5693C26.5894 44.4495 27.2608 44.3536 27.9322 44.3057C28.076 44.4735 28.3637 44.8089 28.8672 45.2882C29.5146 45.9113 29.9942 45.9831 30.2819 45.9831C30.5217 45.9831 31.1451 45.8633 31.3609 45.36C31.4328 45.1924 31.5288 44.7609 31.265 44.3775L31.2695 44.3779C31.9394 44.4497 32.6093 44.5215 33.2551 44.6411L33.2954 44.7224C33.4012 44.9369 33.5874 45.3145 33.9025 45.8393C34.382 46.6062 34.8376 46.8218 35.1014 46.8698C35.3411 46.9416 35.9646 46.9896 36.3722 46.4863C36.468 46.3665 36.6599 45.9591 36.516 45.5278C37.1634 45.7435 37.7868 46.0071 38.3862 46.2946C38.4102 46.5103 38.5061 46.9416 38.698 47.6126C38.9617 48.4753 39.3453 48.7869 39.5851 48.9067C39.8249 49.0265 40.4243 49.2421 40.9279 48.8587C41.0717 48.7629 41.3595 48.4274 41.3355 47.972C41.887 48.3554 42.4384 48.7629 42.9419 49.1942C42.918 49.4338 42.87 49.8652 42.894 50.5601C42.894 51.4707 43.2057 51.8541 43.3975 52.0458C43.5654 52.2136 44.0929 52.573 44.6923 52.3334C44.8601 52.2615 45.2198 52.0219 45.3157 51.5665C45.7473 52.0698 46.1549 52.597 46.5385 53.1481C46.4666 53.3399 46.3228 53.7712 46.1549 54.4421C45.9631 55.3048 46.1309 55.7601 46.2748 55.9997C46.3947 56.2155 46.8262 56.6948 47.4497 56.6228C47.6175 56.5988 48.0251 56.4551 48.241 56.0477C48.5287 56.6708 48.7684 57.2699 49.0082 57.9168C48.8643 58.0846 48.6246 58.468 48.2889 59.0671C47.8573 59.8579 47.9052 60.3371 48.0012 60.6007C48.0731 60.8404 48.3608 61.4155 48.9842 61.5113C49.1521 61.5353 49.5836 61.4874 49.8954 61.1518C50.0152 61.7989 50.1112 62.4698 50.1591 63.1409L50.1583 63.1416C49.9901 63.2856 49.6547 63.5731 49.176 64.0754C48.5527 64.7225 48.4567 65.2017 48.4807 65.4892C48.5047 65.7289 48.6245 66.3519 49.2 66.6156C49.3679 66.6874 49.7995 66.7832 50.1831 66.5197C50.1352 66.9668 50.0872 67.4139 50.0251 67.8539C49.994 68.0742 49.9593 68.2928 49.9194 68.5086L49.8378 68.549ZM29.6345 68.3971C31.7602 68.3971 33.1774 66.7071 33.1774 64.8542C33.1774 63.0014 31.7602 61.3114 29.7065 61.3114C27.5088 61.3114 26.0917 63.0014 26.0917 64.8542C26.0917 66.7071 27.5088 68.3971 29.6345 68.3971Z" fill="url(#paint2_radial)"/>
<path fill-rule="evenodd" clip-rule="evenodd" d="M29.6342 82.5687C39.4175 82.5687 47.3485 74.6378 47.3485 64.8544C47.3485 55.0711 39.4175 47.1401 29.6342 47.1401C19.8509 47.1401 11.9199 55.0711 11.9199 64.8544C11.9199 74.6378 19.8509 82.5687 29.6342 82.5687ZM29.6342 68.2989C31.5365 68.2989 33.0787 66.7567 33.0787 64.8544C33.0787 62.9521 31.5365 61.41 29.6342 61.41C27.7319 61.41 26.1898 62.9521 26.1898 64.8544C26.1898 66.7567 27.7319 68.2989 29.6342 68.2989Z" fill="url(#paint3_angular)"/>
<defs>
<radialGradient id="paint0_radial" cx="0" cy="0" r="1" gradientUnits="userSpaceOnUse" gradientTransform="translate(98.3673 64.8407) scale(20.5489 20.5369)">
<stop offset="0.2527" stop-color="#2E2E2E"/>
<stop offset="0.7903" stop-color="#373737"/>
<stop offset="0.8387" stop-color="#838383"/>
<stop offset="0.9409" stop-color="#9E9E9E"/>
<stop offset="0.9731" stop-color="#DEDEDE"/>
<stop offset="1" stop-color="#787878"/>
</radialGradient>
<radialGradient id="paint1_angular" cx="0" cy="0" r="1" gradientUnits="userSpaceOnUse" gradientTransform="translate(98.3666 64.8544) rotate(90) scale(17.7143)">
<stop stop-color="#C4C4C4"/>
<stop offset="0.246705" stop-color="#525252"/>
<stop offset="0.489583" stop-color="#C4C4C4"/>
<stop offset="0.749722" stop-color="#525252"/>
<stop offset="1" stop-color="#C4C4C4"/>
</radialGradient>
<radialGradient id="paint2_radial" cx="0" cy="0" r="1" gradientUnits="userSpaceOnUse" gradientTransform="translate(29.6368 64.8407) scale(20.5489 20.5369)">
<stop offset="0.2527" stop-color="#2E2E2E"/>
<stop offset="0.7903" stop-color="#373737"/>
<stop offset="0.8387" stop-color="#838383"/>
<stop offset="0.9409" stop-color="#9E9E9E"/>
<stop offset="0.9731" stop-color="#DEDEDE"/>
<stop offset="1" stop-color="#787878"/>
</radialGradient>
<radialGradient id="paint3_angular" cx="0" cy="0" r="1" gradientUnits="userSpaceOnUse" gradientTransform="translate(29.6342 64.8544) rotate(90) scale(17.7143)">
<stop stop-color="#C4C4C4"/>
<stop offset="0.246705" stop-color="#525252"/>
<stop offset="0.489583" stop-color="#C4C4C4"/>
<stop offset="0.749722" stop-color="#525252"/>
<stop offset="1" stop-color="#C4C4C4"/>
</radialGradient>
</defs>
</svg>
