<svg width="128" height="128" viewBox="0 0 128 128" fill="none" xmlns="http://www.w3.org/2000/svg">
<path d="M32 46.5022C32 63.8992 46.103 78.0017 63.5 78.0011C80.897 78.0005 95 63.897 95 46.5C95 29.103 80.897 15.0005 63.5 15.0011C46.103 15.0017 32 29.1052 32 46.5022Z" fill="#1F4B59"/>
<path fill-rule="evenodd" clip-rule="evenodd" d="M64 12.0012C82.7777 12.0005 98 27.2223 98 46C98 64.7777 82.7777 80.0005 64 80.0012C45.2223 80.0018 30 64.7801 30 46.0024C30 27.2247 45.2223 12.0018 64 12.0012ZM92.8097 46.0002C92.8097 30.089 79.9112 17.1909 64 17.1915C48.0888 17.192 35.1903 30.091 35.1903 46.0022C35.1903 61.9134 48.0888 74.8115 64 74.8109C79.9112 74.8104 92.8097 61.9114 92.8097 46.0002Z" fill="black"/>
<path opacity="0.1" d="M73.2963 76.64C70.5179 79.4184 65.9932 79.4184 63.2149 76.64L30.9861 44.4113C28.2078 41.6329 28.2078 37.1082 30.9861 34.3299C33.7644 31.5515 38.2892 31.5515 41.0675 34.3299L73.2963 66.5586C76.0746 69.337 76.0746 73.8617 73.2963 76.64Z" fill="black"/>
<path opacity="0.1" d="M73.2993 76.6385C70.521 79.4169 65.9963 79.4169 63.2179 76.6385L35.8711 49.2917C37.2206 47.3469 38.7288 45.5211 40.4355 43.8144C42.1422 42.1077 43.968 40.5598 45.9128 39.25L73.2993 66.5571C76.0777 69.3355 76.0777 73.8602 73.2993 76.6385Z" fill="black"/>
<path d="M92.4914 98.9914C108.503 82.9799 108.503 57.0201 92.4914 41.0086C76.4799 24.9971 50.5201 24.9971 34.5086 41.0086C18.4971 57.0201 18.4971 82.9799 34.5086 98.9914C50.5201 115.003 76.4799 115.003 92.4914 98.9914Z" fill="#84CCE3"/>
<path opacity="0.1" d="M90.1072 96.6052C104.801 81.9112 104.801 58.0875 90.1072 43.3935C75.4132 28.6995 51.5895 28.6995 36.8955 43.3935C22.2015 58.0875 22.2015 81.9112 36.8955 96.6052C51.5895 111.299 75.4132 111.299 90.1072 96.6052Z" fill="black"/>
<path d="M68.5346 75.0512C65.7562 77.8295 61.2315 77.8295 58.4532 75.0512L26.2244 42.8224C23.446 40.0441 23.446 35.5193 26.2244 32.741C29.0027 29.9626 33.5275 29.9626 36.3058 32.741L68.5346 64.9698C71.3129 67.7481 71.3129 72.2728 68.5346 75.0512Z" fill="#FFFDFA"/>
<path opacity="0.1" d="M68.5376 75.0507C65.7593 77.829 61.2345 77.829 58.4562 75.0507L31.1094 47.7038C32.4589 45.759 33.9671 43.9332 35.6738 42.2265C37.3805 40.5198 39.2063 38.9719 41.1511 37.6621L68.5376 64.9692C71.316 67.7476 71.316 72.2723 68.5376 75.0507Z" fill="black"/>
<path d="M88.1703 94.6693C101.795 81.0448 101.795 58.9552 88.1703 45.3307C74.5458 31.7062 52.4562 31.7062 38.8317 45.3307C25.2072 58.9552 25.2072 81.0448 38.8317 94.6693C52.4562 108.294 74.5458 108.294 88.1703 94.6693Z" fill="#FFFDFA"/>
<path opacity="0.1" d="M84.5471 91.049C96.1721 79.424 96.1721 60.5762 84.5471 48.9512C72.9221 37.3262 54.0742 37.3262 42.4492 48.9512C30.8242 60.5762 30.8242 79.424 42.4492 91.049C54.0742 102.674 72.9221 102.674 84.5471 91.049Z" fill="black"/>
<path d="M83.7351 90.2534C75.6779 98.3106 64.0088 100.573 53.9274 97.0008C50.0378 95.6117 46.3465 93.389 43.211 90.2534C32.0182 79.0607 32.0182 60.9221 43.211 49.769C50.0378 42.9422 59.4047 40.283 68.2557 41.7912C73.9315 42.7438 79.3691 45.4031 83.7351 49.769C94.9278 60.9221 94.9278 79.0607 83.7351 90.2534Z" fill="#714110"/>
<path opacity="0.05" d="M65.2911 93.7973C78.4284 92.8082 88.2766 81.3565 87.2875 68.2191C86.2984 55.0818 74.8467 45.2337 61.7094 46.2227C48.572 47.2118 38.7239 58.6635 39.713 71.8009C40.702 84.9382 52.1538 94.7863 65.2911 93.7973Z" fill="white"/>
<path opacity="0.05" d="M83.7373 90.2519C75.6801 98.3091 64.0111 100.571 53.9297 96.9993C56.1921 95.7292 57.1843 92.554 60.1611 91.6411C62.8998 90.8076 65.9163 90.8076 68.0992 88.704C70.4807 86.4019 69.3296 83.0282 68.6549 80.2102C67.8214 76.7968 68.4565 73.6216 72.1874 72.5896C74.2513 72.0339 76.2358 72.2324 78.0616 70.9623C79.6889 69.8113 81.1574 68.0252 81.7528 66.12C83.2214 61.3969 79.808 57.3087 76.3549 54.4113C74.0925 52.5062 71.592 51.2361 70.0441 48.6165C69.0121 46.8701 68.1786 44.2108 68.258 41.75C73.9338 42.7026 79.3714 45.3618 83.7373 49.7278C94.9301 60.9206 94.9301 79.0592 83.7373 90.2519Z" fill="white"/>
<path opacity="0.05" d="M58.0591 77.1938C57.1462 81.5994 57.4637 85.2113 60.639 86.8783C65.0843 89.22 65.64 83.1871 65.6003 80.25C65.5606 76.7572 65.7987 73.4629 69.1724 71.5974C72.2286 69.8907 75.8802 69.0175 77.2296 65.3263C78.6585 61.4763 75.5229 59.0949 72.9431 56.7928C71.4745 55.483 70.1647 54.0939 69.2121 52.3475C68.3786 50.8789 68.2993 49.0135 67.4658 47.6243C65.4415 44.2903 62.1075 48.5372 61.3534 50.8392C60.123 54.5305 61.8297 58.0232 65.3225 59.3727C66.9498 60.0078 68.8549 60.4047 69.4106 62.3098C70.0456 64.4531 68.2596 66.2789 66.7513 67.549C64.2111 69.6526 58.972 72.7881 58.0591 77.1938Z" fill="white"/>
<path opacity="0.05" d="M51.5126 62.7473C46.71 64.454 49.528 72.154 54.3703 69.7726C58.7759 67.5896 56.2754 61.0406 51.5126 62.7473Z" fill="white"/>
<path opacity="0.05" d="M64.9251 49.1335C62.5833 49.967 63.9725 53.7376 66.3539 52.5866C68.4972 51.5149 67.2668 48.3 64.9251 49.1335Z" fill="white"/>
<path opacity="0.05" d="M77.1083 79.0206C72.3057 80.7273 75.1238 88.4273 80.0057 86.0459C84.4114 83.9026 81.9109 77.3536 77.1083 79.0206Z" fill="white"/>
<path opacity="0.05" d="M80.3282 75.5277C78.4628 76.2024 79.5741 79.1792 81.4396 78.2663C83.186 77.3932 82.1937 74.853 80.3282 75.5277Z" fill="white"/>
<path opacity="0.05" d="M78.4203 74.5355C77.3486 74.9324 77.9837 76.6788 79.0553 76.1232C80.0873 75.6469 79.5316 74.1386 78.4203 74.5355Z" fill="white"/>
<path opacity="0.05" d="M41.9812 78.7024C39.0044 79.7344 40.7508 84.5369 43.7673 83.0684C46.5059 81.7189 44.958 77.6308 41.9812 78.7024Z" fill="white"/>
<path opacity="0.05" d="M46.7859 60.0883C44.6426 60.8424 45.9127 64.2558 48.056 63.2238C50.0405 62.2713 48.9292 59.3342 46.7859 60.0883Z" fill="white"/>
<path d="M22 102.495C22 109.399 27.5964 114.996 34.5 114.998C41.4036 114.999 47 109.404 47 102.5C47 95.5964 41.4036 89.9989 34.5 89.9975C27.5964 89.9961 22 95.5914 22 102.495Z" fill="#356B7C"/>
<path fill-rule="evenodd" clip-rule="evenodd" d="M34.5 87.997C42.5081 87.9987 49 94.4919 49 102.5C49 110.508 42.5081 116.999 34.5 116.997C26.4919 116.995 20 110.502 20 102.494C20 94.4859 26.4919 87.9954 34.5 87.997ZM44.5694 102.499C44.5694 96.9379 40.0612 92.4287 34.5 92.4276C28.9388 92.4265 24.4306 96.9338 24.4306 102.495C24.4306 108.056 28.9388 112.565 34.5 112.566C40.0612 112.568 44.5694 108.06 44.5694 102.499Z" fill="black"/>
<path d="M80 102.495C80 109.399 85.5964 114.996 92.5 114.998C99.4036 114.999 105 109.404 105 102.5C105 95.5964 99.4036 89.9989 92.5 89.9975C85.5964 89.9961 80 95.5914 80 102.495Z" fill="#356B7C"/>
<path fill-rule="evenodd" clip-rule="evenodd" d="M92.5 87.997C100.508 87.9987 107 94.4919 107 102.5C107 110.508 100.508 116.999 92.5 116.997C84.4919 116.995 78 110.502 78 102.494C78 94.4859 84.4919 87.9954 92.5 87.997ZM102.569 102.499C102.569 96.9379 98.0612 92.4287 92.5 92.4276C86.9388 92.4265 82.4306 96.9338 82.4306 102.495C82.4306 108.056 86.9388 112.565 92.5 112.566C98.0612 112.568 102.569 108.06 102.569 102.499Z" fill="black"/>
</svg>
