<svg width="256" height="264" viewBox="0 0 256 264" fill="none" xmlns="http://www.w3.org/2000/svg">
<mask id="mask0_1141_459" style="mask-type:alpha" maskUnits="userSpaceOnUse" x="0" y="0" width="256" height="256">
<rect width="256" height="256" fill="#AEAEAE"/>
</mask>
<g mask="url(#mask0_1141_459)">
<path fill-rule="evenodd" clip-rule="evenodd" d="M230.176 134.458C229.968 132.381 228.202 130.512 227.268 128.539C227.164 128.331 227.372 127.916 227.475 127.604C227.475 127.5 228.099 127.604 228.202 127.812C228.618 128.539 228.826 129.266 229.345 129.889C229.552 130.201 230.279 130.512 230.591 130.408C230.903 130.304 231.318 129.785 231.318 129.37C231.422 126.981 231.318 124.592 231.318 122.204C231.006 122.1 230.487 121.996 230.487 121.892C230.591 119.296 229.345 117.219 228.202 115.038C227.683 114.103 227.475 112.961 227.164 111.818V110.261C226.748 110.261 226.437 110.364 226.021 110.261C225.71 110.261 225.087 110.157 225.087 110.053C225.087 106.107 223.114 103.199 220.517 100.498C220.31 100.291 220.31 99.7714 220.31 99.4599C220.829 99.5637 221.348 99.4599 221.66 99.6676C222.698 100.498 223.633 101.433 224.568 102.368C224.671 100.914 224.983 99.356 224.983 97.9021C225.087 92.1901 223.01 87.309 218.856 83.3626C216.675 81.2855 214.909 78.7931 211.482 78.5853C211.17 78.5853 210.755 77.7545 210.547 77.2353C209.405 74.5351 209.301 71.5233 207.016 69.3424C206.809 69.1347 206.912 68.6154 206.912 68.3039C207.432 68.4077 207.951 68.4077 208.263 68.7193C208.678 68.927 209.093 69.3424 209.405 69.7578C210.028 70.9002 210.651 72.1464 211.274 73.2888C211.378 71.731 211.794 70.1732 211.586 68.8231C210.859 65.0844 209.093 61.8649 206.809 58.8532C205.562 57.2954 203.797 56.153 202.343 54.8029C200.058 53.9721 198.189 52.622 196.735 50.7526C195.385 48.9871 194.45 46.7024 192.892 45.1446C192.061 44.3137 190.815 42.5482 190.296 42.6521C188.53 43.1713 186.973 41.4058 185.311 42.3405C184.584 42.7559 184.169 43.6906 183.649 44.4176C183.234 44.2099 182.611 44.0022 182.403 43.6906C179.495 37.771 173.679 35.3823 168.279 33.2014C163.294 31.1243 157.79 30.3974 152.182 30.9166C151.143 31.0205 150.105 31.5398 148.962 31.9552C147.716 32.3706 148.651 32.786 148.962 33.3053C149.378 33.9284 149.897 34.6554 150.208 35.3823C150.208 35.4862 149.585 35.9016 149.274 36.2132C148.858 37.4594 148.235 38.1864 146.781 38.2902C145.016 38.4979 143.043 37.4594 141.485 39.2249C141.277 39.4326 140.342 39.2249 140.135 38.9133C137.85 36.0055 134.215 36.4209 131.307 35.1746C130.269 34.7592 129.438 34.9669 129.542 33.4091C129.645 32.5783 129.542 31.5398 129.126 31.0205C128.503 30.3974 127.465 29.7742 126.53 29.8781C124.764 29.982 122.999 29.4627 121.026 30.3974C119.26 31.2282 116.975 31.0205 115.002 30.8128C113.029 30.6051 112.302 32.059 111.263 33.0976C110.64 33.7207 112.717 36.9401 113.86 37.044C115.21 37.1478 116.872 37.3555 117.806 36.6286C119.676 35.3823 121.441 36.317 123.31 36.0055C123.622 36.0055 123.934 36.2132 124.141 36.317C124.037 36.5247 123.83 36.8363 123.726 37.044L121.545 39.2249C119.26 41.5097 119.26 41.302 116.041 40.1596C112.717 38.9133 109.394 37.771 105.967 37.1478C104.409 36.8363 102.54 37.8748 100.774 38.2902C97.3471 39.3288 94.2315 39.2249 91.012 38.3941C89.3504 37.9787 87.6887 38.0825 86.0271 37.9787C85.7155 38.1864 85.1962 38.6018 85.1962 38.7056C85.9232 40.1596 87.3771 40.1596 88.7272 40.0557C91.4274 39.9519 94.2315 39.9519 96.3085 42.1328C97.4509 42.0289 98.4895 42.1328 99.7357 41.5097C102.644 39.848 105.759 39.5365 109.186 40.7827C100.78 46.0219 94.883 43.7273 92.9852 41.9251C90.7005 41.9251 88.5195 42.0289 86.2348 41.9251C80.8344 41.6135 76.2648 44.0022 72.2145 46.8062C68.0604 49.7141 65.6718 54.1798 65.9833 59.684C66.0872 61.4495 65.9833 63.1112 65.9833 64.8767C65.9833 65.4998 65.6718 66.1229 65.5679 66.7461C65.0487 66.0191 64.114 65.2921 64.0101 64.4613C63.8024 62.5919 63.9063 60.6187 63.9063 58.7493C63.9063 57.5031 63.1793 57.0877 62.3485 57.5031C58.2982 59.2686 54.0402 60.6187 51.2362 64.3574C48.7437 67.6807 46.355 70.9002 46.2512 75.262C46.1473 77.3391 44.6934 79.3123 45.3165 81.5971C45.5242 82.5318 46.1473 83.3626 46.5628 84.1934C47.1859 83.778 47.809 83.2588 48.4321 82.8433C48.7437 82.6356 48.9514 82.4279 49.2629 82.4279C49.5745 82.4279 49.8861 82.5318 50.1976 82.6356C50.0938 82.8433 50.0938 83.1549 49.9899 83.3626C49.1591 84.4011 48.0167 85.3358 47.3936 86.4782C45.9396 89.0745 44.7972 91.7747 45.2127 94.8903C45.3165 95.6173 45.7319 96.7597 44.3818 96.8635C42.6163 96.9674 43.3433 95.5135 43.2394 94.6826V93.6441C43.1356 92.7094 42.9279 91.6709 42.824 90.7362C41.7855 91.0478 40.4354 91.0478 39.7084 91.7747C36.8005 94.4749 33.5811 97.0713 32.3348 101.122C31.6079 103.718 31.0886 106.314 32.7502 108.807C32.958 109.118 32.6464 109.741 32.5425 110.157C32.1271 109.949 31.7117 109.741 31.504 109.43C31.1924 109.118 30.777 108.599 30.8809 108.184C31.0886 106.73 30.2578 105.795 29.2192 105.38C28.9077 105.276 27.5576 106.522 27.1422 107.457C26.7268 109.118 26.1036 110.364 25.6882 111.818C23.715 119.711 24.5458 121.892 27.8691 127.189C28.1807 127.604 28.5961 128.02 29.0115 128.435C29.3231 127.916 29.6346 127.5 29.9462 126.981C30.1539 126.462 30.3616 126.046 30.6732 125.527C30.777 126.046 30.9847 126.462 30.9847 126.981C30.9847 128.643 31.1924 128.643 32.5425 127.604C34.3081 126.254 36.489 125.319 38.8776 125.423C39.3969 125.423 39.8123 125.631 40.2277 125.839C39.9161 126.046 39.5007 126.254 39.1892 126.462C37.0082 127.916 34.4119 128.539 32.5425 130.512C29.5308 133.732 28.1807 137.574 26.6229 141.624C24.9612 146.09 25.8959 150.244 27.1422 154.191C28.8038 159.072 32.1271 163.122 36.1774 166.445C37.2159 167.38 38.8776 167.484 40.02 168.419C40.9547 169.146 44.1741 169.146 41.3701 171.638C41.7855 173.819 41.9932 176.208 42.7202 178.285C44.3818 182.958 46.7705 187.216 51.9631 188.878C53.6248 189.397 54.871 190.955 56.8442 190.851C58.1943 190.747 57.9866 189.916 57.6751 189.085C57.0519 187.32 56.4288 185.451 55.8057 183.685C55.7019 183.477 56.0134 183.062 56.1173 182.75C56.5327 182.958 56.8442 183.166 57.1558 183.373C57.4674 183.581 57.7789 183.893 57.7789 184.1C57.8828 188.566 60.9984 190.643 64.3217 192.616C64.6332 192.824 64.6332 193.343 64.7371 193.655C64.4255 193.759 64.0101 193.863 63.8024 193.759C63.1793 193.551 62.7639 192.824 62.1408 192.824C61.1022 192.72 58.9213 192.201 60.8945 194.486C60.4791 199.263 62.9716 202.586 66.0872 205.806C69.0989 209.025 73.1492 209.545 77.0957 210.375C78.8612 210.791 80.8344 210.479 82.7037 210.479C83.223 210.479 84.1577 210.375 84.1577 210.479C84.4692 212.037 86.0271 212.349 86.8579 213.283C89.6619 216.399 92.0506 217.645 96.2047 217.749L96.5162 215.88C97.1394 215.983 97.8663 215.983 98.2818 216.295C103.371 220.968 109.394 223.045 116.248 222.942H120.922C127.465 222.838 133.384 220.865 138.473 216.607C139.615 215.672 140.862 214.841 142.108 214.01C142.316 213.906 142.731 213.906 142.835 213.906C142.939 214.218 143.146 214.633 143.043 214.841C142.731 215.776 142.316 216.607 141.796 217.437C141.069 218.58 140.135 219.618 139.304 220.761C140.966 221.799 142.419 223.253 144.185 223.876C147.82 225.226 151.662 226.576 155.713 226.057C160.905 225.434 165.786 223.772 169.941 220.449C170.46 220.034 170.875 219.411 171.395 218.995C172.537 218.268 173.783 217.645 174.926 217.022C175.86 219.203 173.576 219.411 172.745 220.553C172.018 221.695 170.46 222.215 170.979 223.98H178.249C184.065 223.98 189.361 221.592 193.308 217.749C194.865 216.191 196.423 214.529 197.981 212.972C198.189 212.764 198.085 212.245 197.877 212.037C197.773 211.933 197.358 211.829 197.15 211.829C196.839 211.933 196.631 212.452 196.423 212.452C195.281 212.452 194.138 212.245 192.996 212.141C193.827 211.518 194.658 210.791 195.489 210.375C201.408 207.883 205.147 203.625 206.289 197.29C208.159 195.94 206.289 195.005 205.666 194.797C204.316 194.382 202.654 194.486 201.201 194.278C201.408 194.07 201.512 193.655 201.72 193.655C203.278 193.655 204.939 193.967 206.393 193.551C211.378 191.993 215.948 189.605 218.648 184.827C218.856 184.516 218.336 183.477 217.921 183.373C217.09 183.166 216.259 183.373 215.325 183.27C215.013 183.27 214.805 182.958 214.494 182.75C214.805 182.543 215.013 182.231 215.325 182.231C217.921 182.335 219.998 180.985 221.14 179.012C222.387 176.831 224.256 174.754 223.841 171.846V166.653V164.057C223.944 163.122 223.737 162.395 222.49 162.499C221.867 162.499 221.348 162.187 220.725 161.98C221.244 161.46 221.66 160.837 222.179 160.526C228.41 157.306 230.279 151.698 231.11 145.259C231.837 141.624 230.487 138.093 230.176 134.458Z" fill="#EAEAEA"/>
<path d="M53.4161 160.838L55.8047 145.364C55.3893 145.468 54.9739 145.468 54.7662 145.675C53.52 146.61 52.4814 146.61 51.8583 145.468C50.4044 142.871 50.4044 137.471 51.7545 132.901C51.8583 132.486 51.4429 131.967 51.339 131.551C51.1313 131.759 50.8198 131.967 50.6121 132.174C48.1196 134.771 48.7427 138.094 48.6389 141.21C48.535 143.806 49.7812 145.572 51.4429 147.337C51.8583 147.752 53.2084 147.96 52.3776 149.103C50.4044 151.595 50.7159 154.399 50.5082 157.307C50.8198 159.488 50.8198 161.669 51.4429 163.746C52.793 168.212 55.0778 171.016 58.7126 172.989C58.9203 173.093 59.3358 172.989 59.7512 172.989C59.6473 172.573 59.7512 172.054 59.5435 171.95C56.1163 168.939 54.3508 165.304 53.4161 160.838Z" fill="#FEFEFE"/>
<path d="M209.45 120.233C208.912 119.373 208.482 118.405 207.945 117.653C207.299 116.793 206.224 116.148 205.902 115.287C205.257 113.567 207.299 114.32 207.837 113.567C207.945 113.46 207.945 113.245 208.052 113.137C208.052 110.449 208.375 107.761 207.945 105.073C207.837 104.213 207.73 102.17 205.794 102.063C204.827 102.063 203.321 102.063 202.891 101.525C202.354 100.772 202.891 99.4822 202.676 98.407C202.569 97.7619 202.784 97.0093 202.784 96.2566C202.784 95.6115 202.676 94.9664 202.031 94.3213C201.708 93.9987 201.816 92.9236 202.139 92.601C202.891 91.7408 203.966 90.9882 204.934 90.2356C207.407 84.8596 205.687 80.0213 202.569 75.613C201.278 73.7852 199.021 72.495 197.838 70.6672C196.548 68.7318 194.612 68.9469 192.999 68.1942C191.387 67.4416 189.666 67.2266 188.269 68.8394C188.161 69.0544 186.978 68.5168 186.978 68.5168C187.408 65.6138 185.151 64.8612 183.215 63.6785C183 63.5709 183 62.9258 182.893 62.6033C183.215 62.6033 183.645 62.3882 183.86 62.4958C185.151 63.2484 186.333 64.216 187.624 64.9687C188.376 65.3988 189.129 65.5063 189.989 65.7213C189.236 64.001 188.054 62.3882 187.946 60.6679C187.731 58.5176 186.871 56.9048 185.688 55.507C185.258 54.9694 184.828 54.5394 184.29 54.1093C182.678 52.604 177.839 50.1311 175.474 49.5935C174.399 49.3785 173.001 49.1634 172.356 49.701C169.775 51.7439 169.56 49.9161 168.378 48.0882C167.302 46.3679 167.518 44.2176 165.582 42.7123C163.002 40.777 160.314 38.9491 157.303 37.9815C154.938 37.2288 152.035 36.2612 149.884 36.9063C147.519 37.6589 144.724 37.4439 142.681 38.8416C140.853 40.1319 139.885 39.4867 138.38 38.304C135.584 36.0461 132.466 34.8634 128.488 36.2612C125.478 37.3364 122.79 38.5191 120.747 40.992C119.779 42.1747 118.166 42.7123 117.521 41.9597C115.048 39.4867 111.715 39.5943 108.705 38.5191C105.157 37.2288 101.931 37.5514 98.9206 39.2717C97.6304 40.0243 96.5552 39.8093 95.3725 39.9168C94.2973 39.9168 93.2221 39.9168 92.1469 39.9168C90.8567 41.9597 88.5988 42.9273 86.986 44.5401C85.0507 46.4755 83.1153 48.6258 82.5777 51.3138C82.1477 53.8943 81.0725 55.7221 79.3522 57.5499C76.7717 60.4529 74.7289 63.5709 73.4386 67.4416C72.5785 70.1296 73.0086 72.6025 72.7935 75.183C72.686 76.5807 72.471 77.8709 71.2883 78.301C68.6003 79.2687 67.2026 81.6341 65.3747 83.3544C64.4071 84.2145 63.2244 85.5048 63.2244 86.6875C63.1168 90.7732 62.7943 94.9664 63.762 98.8371C64.4071 101.31 63.6544 103.138 62.9018 105.073C62.5792 106.041 61.5041 106.578 60.9665 107.546C58.8161 111.632 57.3108 115.933 57.6334 120.663C57.8484 123.566 57.7409 126.362 59.1386 129.157C61.289 133.458 63.3319 137.436 68.2777 139.157C68.3853 139.157 68.4928 139.372 68.7078 139.479C69.3529 140.124 69.783 140.662 69.2454 141.737C67.6326 145.285 68.0627 148.941 68.9229 152.489C69.998 157.22 72.471 161.413 76.4492 164.316C80.2123 167.004 83.868 170.014 89.1364 170.014C91.7168 170.014 95.0499 170.875 96.7702 173.24C97.9529 174.853 99.3507 175.498 100.856 176.358C102.361 177.218 103.974 177.971 105.049 179.261C106.339 180.766 107.737 180.874 109.35 180.659C110.963 180.444 113.328 181.949 113.973 178.831C114.081 178.293 115.156 178.401 115.801 179.476C119.994 186.357 126.875 189.368 134.187 191.303C138.38 192.378 142.788 192.378 147.196 192.486C153.97 192.701 160.099 191.088 164.83 185.927C165.905 184.852 167.195 184.53 168.055 185.282C169.668 186.68 172.033 185.175 173.001 186.25C174.614 187.863 176.657 184.53 177.624 187.11C180.527 185.39 183.86 184.96 186.548 182.594C189.881 179.584 192.247 176.143 193.107 171.842C193.43 170.23 193.752 169.047 195.472 168.939C198.805 168.724 200.418 166.144 202.676 164.316C205.149 162.381 206.224 159.8 207.084 157.005C208.375 152.919 208.267 152.919 207.192 146.575C206.869 144.855 206.654 142.92 208.375 141.199C214.073 134.856 213.105 126.792 209.45 120.233ZM91.0717 140.017C89.3514 140.769 88.4913 142.275 88.0612 141.737C86.5559 140.017 84.7281 140.769 83.1153 140.769C78.3845 140.554 76.2341 138.942 75.6965 134.211C75.589 133.028 75.374 132.168 74.5138 131.523C71.7183 129.587 70.9657 126.899 71.3958 123.674C71.5033 122.921 71.3958 122.276 71.3958 121.093C70.7507 119.158 72.471 116.578 70.5356 114.32C70.2131 113.997 70.8582 112.384 71.5033 111.739C73.0086 109.804 74.5138 107.869 76.4492 106.363C78.0619 105.073 79.8898 106.578 80.1048 108.836C80.3198 111.632 79.3522 114.427 80.6424 117.223C80.8574 117.653 80.1048 118.943 79.6747 119.051C76.6642 119.481 76.6642 121.524 76.8792 123.781C77.0943 125.824 76.2341 127.975 77.9544 129.802C78.492 130.448 78.7071 131.415 79.3522 131.845C80.5349 132.813 82.1477 132.383 83.4379 132.921C84.9431 133.458 85.4807 135.608 87.7386 135.608C89.0289 135.608 90.4266 136.899 91.6093 137.759C92.4695 138.404 93.5446 139.049 91.0717 140.017ZM146.659 125.072C147.304 124.857 148.057 124.749 148.487 124.319C149.669 122.921 151.605 123.136 152.357 123.674C153.863 124.857 155.368 124.319 156.873 124.642C159.669 125.179 159.669 125.287 159.561 122.061C159.454 121.739 158.916 120.556 158.593 119.266C158.378 118.621 158.593 117.868 159.669 118.621C160.099 118.943 160.959 119.158 161.389 118.943C161.927 118.728 162.142 117.868 162.572 117.33C162.679 118.19 162.894 119.051 162.787 119.911C162.572 121.093 162.034 122.061 161.819 123.244C161.496 124.749 161.927 131.308 162.894 132.598C164.615 134.856 164.077 137.436 163.754 139.694C163.432 142.06 161.927 144.21 160.851 146.468C160.744 146.683 160.099 146.683 159.776 146.79C159.776 146.468 159.561 146.038 159.669 145.823C160.314 143.78 161.819 141.737 161.604 139.802C161.389 136.899 160.959 133.673 159.131 131.308C156.551 127.867 153.218 125.609 148.594 125.824C147.842 125.717 147.304 125.287 146.659 125.072ZM132.251 79.5912C131.069 78.8386 129.348 78.516 127.951 78.516C126.338 78.6236 124.725 79.2687 123.22 79.9138C122.252 80.2363 121.5 80.8815 120.639 81.419C120.424 81.5266 119.994 81.419 119.887 81.204C119.779 80.8815 119.672 80.3439 119.779 80.2363C120.962 79.2687 122.037 78.1935 123.435 77.5484C128.918 75.0754 135.799 75.5055 139.025 81.7416C139.778 83.1393 140.53 83.7845 142.143 83.892C145.369 84.2145 147.412 86.795 147.627 90.1281C147.519 90.4506 147.412 90.7732 147.304 91.0957C147.089 90.8807 146.766 90.6657 146.551 90.3431C145.046 87.9777 143.541 85.6123 140.1 85.9348C139.455 86.0424 138.272 85.1822 138.165 84.5371C137.412 81.204 134.402 80.8815 132.251 79.5912ZM187.086 170.875C182.033 176.036 176.012 177.971 169.238 178.293C168.485 178.293 167.84 178.293 167.087 178.293C166.442 178.186 165.367 178.293 165.152 177.863C164.615 176.896 164.292 175.713 163.969 174.638C163.969 174.53 164.292 174.208 164.507 173.993C168.27 170.875 172.356 165.499 173.539 162.166C173.754 161.521 172.786 160.338 174.291 160.23C174.399 160.23 174.506 161.521 174.614 162.166C174.721 162.488 174.829 163.026 175.044 163.026C178.807 163.133 182.678 163.993 186.226 161.843C186.763 161.521 187.193 160.768 187.731 160.338C188.914 159.693 190.096 159.585 190.957 160.768C191.172 161.09 191.602 161.628 191.494 161.843C190.312 165.069 189.666 168.187 187.086 170.875Z" fill="#FEFEFE"/>
</g>
</svg>
