<svg width="128" height="128" viewBox="0 0 128 128" fill="none" xmlns="http://www.w3.org/2000/svg">
<path d="M29 46.5024C29 65.5562 44.4462 81.0019 63.5 81.0012C82.5538 81.0005 98 65.5538 98 46.5C98 27.4462 82.5538 12.0005 63.5 12.0012C44.4462 12.0019 29 27.4486 29 46.5024Z" fill="#D03215"/>
<path d="M63.5 33C42.237 33 25.0006 50.237 25.0013 71.5C25.0021 92.763 42.2397 110 63.5027 110C84.7656 110 102.002 92.763 102.001 71.5C102.001 50.237 84.763 33 63.5 33Z" fill="#BB2B10"/>
<path d="M41.4716 51.4023C42.3442 34.6062 59.6492 25.1357 68.1926 22.5C68.1926 39.4051 81.5531 32.3159 83.4617 51.4023C85.3704 70.4887 72.5552 78.6686 62.4667 78.3959C52.3782 78.1232 40.381 72.3973 41.4716 51.4023Z" fill="url(#paint0_linear)"/>
<path d="M27.1498 79.8168C19.2251 64.9821 29.1555 47.9369 35.1112 41.2686C43.8395 55.7461 51.6212 42.7768 63.1102 58.137C74.5993 73.4972 67.8477 87.119 59.067 92.0943C50.2864 97.0696 37.0557 98.3601 27.1498 79.8168Z" fill="url(#paint1_linear)"/>
<path d="M97.0347 86.3192C106.759 72.5964 99.0459 54.4397 93.9741 47.0766C83.4979 60.3443 77.4054 46.5008 64.0795 60.2977C50.7535 74.0945 55.7422 88.456 63.8289 94.494C71.9157 100.532 84.8799 103.473 97.0347 86.3192Z" fill="url(#paint2_linear)"/>
<path d="M84.7543 72.5349C83.8646 55.659 66.2194 46.1434 57.5079 43.4951C57.5079 60.4807 43.8847 53.3577 41.9386 72.535C39.9924 91.7122 53.0595 99.931 63.3464 99.6571C73.6333 99.3831 85.8664 93.6299 84.7543 72.5349Z" fill="url(#paint3_linear)"/>
<path d="M47.2503 87.5619C47.9147 74.9459 61.0928 67.8323 67.5988 65.8525C67.5988 78.5505 77.7731 73.2255 79.2266 87.5619C80.6801 101.898 70.921 108.042 63.2384 107.838C55.5558 107.633 46.4197 103.332 47.2503 87.5619Z" fill="url(#paint4_linear)"/>
<path d="M27.6958 86.3272C23.0901 75.5062 30.4468 64.5815 34.7008 60.4719C39.8563 71.1112 45.604 62.8168 52.5546 74.2814C59.5053 85.746 54.4131 94.5704 48.3574 97.2929C42.3016 100.015 33.4529 99.8534 27.6958 86.3272Z" fill="url(#paint5_linear)"/>
<path d="M99.2561 88.926C105.288 78.8313 99.7107 67.1769 96.1679 62.6115C89.6276 72.4603 85.2353 63.5921 76.8318 74.0348C68.4283 84.4776 72.1075 93.7879 77.6006 97.2068C83.0937 100.626 91.7159 101.544 99.2561 88.926Z" fill="url(#paint6_linear)"/>
<path d="M93.6024 56.4834C94.9575 44.8021 85.0863 36.4657 79.9813 33.7577C78.0619 45.4235 70.4155 39.1409 67.0412 52.1133C63.6668 65.0857 70.8444 72.0642 77.257 72.926C83.6695 73.7878 91.9085 71.0851 93.6024 56.4834Z" fill="url(#paint7_linear)"/>
<path d="M35.101 62.0195C31.2339 50.9139 39.0521 40.6274 43.4445 36.8724C47.859 47.8399 53.9532 40.0425 60.0724 51.9684C66.1916 63.8942 60.7065 72.2686 54.6357 74.5066C48.5649 76.7446 39.935 75.9015 35.101 62.0195Z" fill="url(#paint8_linear)"/>
<path d="M22.6104 100.583C23.1832 92.0905 31.7481 85.5787 37.3561 84.2461C37.3561 92.7934 48.9204 90.9325 50.1733 100.583C51.4261 110.233 43.0141 114.369 36.3918 114.231C29.7696 114.093 21.8945 111.198 22.6104 100.583Z" fill="#FF0000"/>
<path d="M22.6104 100.583C23.1832 92.0905 31.7481 85.5787 37.3561 84.2461C37.3561 92.7934 48.9204 90.9325 50.1733 100.583C51.4261 110.233 43.0141 114.369 36.3918 114.231C29.7696 114.093 21.8945 111.198 22.6104 100.583Z" fill="url(#paint9_linear)"/>
<path fill-rule="evenodd" clip-rule="evenodd" d="M39.9219 81L39.9219 84.2466C39.9219 85.7 40.3745 86.5674 41.0553 87.2942C41.8606 88.1539 42.9958 88.8399 44.6049 89.7953L44.6757 89.8374C47.6952 91.6297 51.9241 94.14 52.7177 100.253C53.4629 105.992 51.2927 110.313 47.8403 113.08C44.5123 115.747 40.1336 116.875 36.3387 116.796C32.7525 116.722 28.5058 115.906 25.1922 113.375C21.7163 110.72 19.6427 106.464 20.051 100.411C20.3928 95.3422 23.0977 91.0362 26.2995 87.8979C29.4876 84.773 33.4315 82.5423 36.7633 81.7506L39.9219 81ZM29.8912 91.5623C27.2653 94.136 25.4013 97.3321 25.1704 100.756C24.8628 105.317 26.3688 107.817 28.307 109.297C30.4075 110.902 33.4096 111.603 36.4455 111.666C39.2729 111.725 42.4114 110.855 44.6317 109.076C46.7277 107.396 48.1371 104.824 47.6294 100.914C47.1764 97.4242 45.057 96.031 41.9854 94.2074C41.9185 94.1676 41.8507 94.1274 41.7821 94.0868C40.3771 93.2542 38.6474 92.2291 37.3105 90.8019C36.4817 89.9172 35.8102 88.8923 35.3695 87.689C33.5859 88.5431 31.6295 89.8584 29.8912 91.5623Z" fill="#BB2B10"/>
<mask id="mask0" mask-type="alpha" maskUnits="userSpaceOnUse" x="74" y="82" width="36" height="36">
<rect x="109.132" y="82" width="35.1316" height="35.1316" transform="rotate(90 109.132 82)" fill="#C4C4C4"/>
</mask>
<g mask="url(#mask0)">
<path d="M105.387 100.915C104.815 92.4225 96.2497 85.9108 90.6417 84.5781C90.6417 93.1254 79.0774 91.2645 77.8245 100.915C76.5717 110.565 84.9837 114.701 91.606 114.563C98.2282 114.425 106.103 111.53 105.387 100.915Z" fill="#FF0000"/>
<path d="M105.387 100.915C104.815 92.4225 96.2497 85.9108 90.6417 84.5781C90.6417 93.1254 79.0774 91.2645 77.8245 100.915C76.5717 110.565 84.9837 114.701 91.606 114.563C98.2282 114.425 106.103 111.53 105.387 100.915Z" fill="url(#paint10_linear)"/>
<path fill-rule="evenodd" clip-rule="evenodd" d="M88.0761 82L88.0761 85.186C88.0761 86.6122 87.6236 87.4634 86.9428 88.1766C86.1374 89.0203 85.0023 89.6935 83.3931 90.6311L83.3223 90.6723C80.3028 92.4312 76.0739 94.8946 75.2803 100.893C74.5352 106.526 76.7054 110.766 80.1578 113.481C83.4858 116.098 87.8645 117.205 91.6593 117.128C95.2456 117.055 99.4922 116.254 102.806 113.77C106.282 111.165 108.355 106.989 107.947 101.048C107.605 96.0744 104.9 91.8488 101.699 88.7691C98.5104 85.7025 94.5665 83.5135 91.2348 82.7366L88.0761 82ZM98.1069 92.365C100.733 94.8907 102.597 98.0271 102.828 101.387C103.135 105.863 101.629 108.316 99.6911 109.769C97.5905 111.344 94.5885 112.032 91.5525 112.094C88.7251 112.151 85.5867 111.297 83.3663 109.551C81.2704 107.903 79.8609 105.379 80.3687 101.542C80.8217 98.1175 82.941 96.7503 86.0126 94.9607C86.0796 94.9217 86.1474 94.8823 86.2159 94.8424C87.6209 94.0253 89.3507 93.0194 90.6875 91.6189C91.5163 90.7507 92.1878 89.7449 92.6286 88.564C94.4121 89.4022 96.3686 90.693 98.1069 92.365Z" fill="#BB2B10"/>
</g>
<defs>
<linearGradient id="paint0_linear" x1="62.5273" y1="22.5" x2="62.5273" y2="78.4025" gradientUnits="userSpaceOnUse">
<stop offset="0.135417" stop-color="#FFA31A"/>
<stop offset="1" stop-color="#FF831A" stop-opacity="0"/>
</linearGradient>
<linearGradient id="paint1_linear" x1="30.2595" y1="44.1936" x2="59.1224" y2="92.0686" gradientUnits="userSpaceOnUse">
<stop offset="0.135417" stop-color="#FFA31A"/>
<stop offset="1" stop-color="#FF831A" stop-opacity="0"/>
</linearGradient>
<linearGradient id="paint2_linear" x1="98.4204" y1="50.5874" x2="63.7772" y2="94.4615" gradientUnits="userSpaceOnUse">
<stop offset="0.135417" stop-color="#FFA31A"/>
<stop offset="1" stop-color="#FF831A" stop-opacity="0"/>
</linearGradient>
<linearGradient id="paint3_linear" x1="63.2846" y1="43.4951" x2="63.2846" y2="99.6637" gradientUnits="userSpaceOnUse">
<stop offset="0.135417" stop-color="#FFCD1A"/>
<stop offset="1" stop-color="#FF831A" stop-opacity="0"/>
</linearGradient>
<linearGradient id="paint4_linear" x1="63.2846" y1="65.8525" x2="63.2846" y2="107.843" gradientUnits="userSpaceOnUse">
<stop offset="0.135417" stop-color="#FFCD1A"/>
<stop offset="1" stop-color="#FF831A" stop-opacity="0"/>
</linearGradient>
<linearGradient id="paint5_linear" x1="31.3469" y1="62.0971" x2="48.3953" y2="97.2797" gradientUnits="userSpaceOnUse">
<stop offset="0.135417" stop-color="#FFCD1A"/>
<stop offset="1" stop-color="#FF831A" stop-opacity="0"/>
</linearGradient>
<linearGradient id="paint6_linear" x1="99.1933" y1="64.6206" x2="77.5657" y2="97.1891" gradientUnits="userSpaceOnUse">
<stop offset="0.135417" stop-color="#FFCD1A"/>
<stop offset="1" stop-color="#FF831A" stop-opacity="0"/>
</linearGradient>
<linearGradient id="paint7_linear" x1="83.5649" y1="34.3473" x2="77.2178" y2="72.9242" gradientUnits="userSpaceOnUse">
<stop offset="0.135417" stop-color="#FFCD1A"/>
<stop offset="1" stop-color="#FF831A" stop-opacity="0"/>
</linearGradient>
<linearGradient id="paint8_linear" x1="40.0754" y1="38.2285" x2="54.6735" y2="74.4963" gradientUnits="userSpaceOnUse">
<stop offset="0.135417" stop-color="#FFCD1A"/>
<stop offset="1" stop-color="#FF831A" stop-opacity="0"/>
</linearGradient>
<linearGradient id="paint9_linear" x1="36.4317" y1="85.9695" x2="36.4317" y2="114.234" gradientUnits="userSpaceOnUse">
<stop offset="0.135417" stop-color="#FFCD1A"/>
<stop offset="1" stop-color="#FF831A" stop-opacity="0"/>
</linearGradient>
<linearGradient id="paint10_linear" x1="91.5661" y1="86.3016" x2="91.5661" y2="114.566" gradientUnits="userSpaceOnUse">
<stop offset="0.135417" stop-color="#FFCD1A"/>
<stop offset="1" stop-color="#FF831A" stop-opacity="0"/>
</linearGradient>
</defs>
</svg>
