<svg width="128" height="129" viewBox="0 0 128 129" fill="none" xmlns="http://www.w3.org/2000/svg">
<path d="M42.851 28.1232C47.2877 28.7931 50.8872 31.8079 52.394 35.8276C52.394 35.8276 52.394 35.8276 52.4777 35.8276C58.5887 36.7488 62.8579 42.4433 61.8534 48.6404L60.6814 56.5123C60.3466 58.6059 59.5095 60.4483 58.2538 61.9557C57.8353 68.8227 56.4122 76.0246 54.8217 79.8768C52.6452 85.2365 47.4551 88 42.4324 88H16.6494C11.4593 88 5.51586 84.8177 4.09277 78.202C2.33484 70.2463 2 55.3399 2 51.7389C2 47.9704 3.25566 44.3695 5.0136 41.5222V15.1429C5.0136 8.44335 10.4548 3 17.1517 3C23.8486 3 29.2898 8.44335 29.2898 15.1429V22.3448C29.5409 22.3448 29.7921 22.3448 29.9595 22.3448C33.8939 22.6798 37.2423 24.8571 39.2514 28.0394C40.5908 27.9557 41.7627 27.9557 42.851 28.1232Z" fill="#00FFF0"/>
<path fill-rule="evenodd" clip-rule="evenodd" d="M23.1416 14.903C23.1416 11.5285 20.4061 8.79297 17.0315 8.79297C13.6569 8.79297 10.9214 11.5285 10.9214 14.903L10.9214 43.2986C10.5943 43.6726 10.2958 44.0697 10.0282 44.4751C8.7319 46.4401 7.86641 49.0204 7.86641 51.5634C7.86641 55.2414 8.21133 69.4963 9.80605 76.7798C10.5084 79.9873 13.4486 81.7879 16.4364 81.7879L42.2781 81.7879C45.1322 81.7879 47.9096 80.2005 49.0529 77.4162C50.4757 73.9515 51.9777 66.1524 52.1483 59.0232C53.3794 58.2451 54.2778 56.9565 54.5105 55.403L55.6881 47.5433C56.1129 44.7076 54.1587 42.0647 51.3232 41.6401C49.3464 41.3437 47.4631 42.204 46.3598 43.7132L46.7952 40.8073C47.2894 37.5085 45.016 34.4338 41.7173 33.9395C38.3465 33.4345 35.2259 35.8171 34.8249 39.2018L34.5746 41.3141L35.0373 34.8002C35.2742 31.4642 32.7839 28.5582 29.451 28.2813C26.5733 28.0423 24.0007 29.8383 23.1416 32.4617L23.1416 14.903ZM49.0661 59.8163C48.8109 66.0706 47.4681 73.2329 46.2269 76.2556C45.612 77.7532 44.0527 78.7329 42.2781 78.7329L16.4364 78.7329C14.578 78.7329 13.1247 77.653 12.7905 76.1264C11.2716 69.1899 10.9214 55.22 10.9214 51.5634C10.9214 49.6678 11.5832 47.6658 12.5782 46.1575C13.6224 44.5753 14.7488 43.9258 15.504 43.9258C16.3166 43.9258 18.6036 44.2005 21.5331 44.6169C24.4018 45.0244 27.7403 45.545 30.5514 45.9953C31.9657 46.222 33.1131 47.0893 33.7526 48.253L33.7437 48.3288L33.7965 48.3349C34.2497 49.2016 34.4245 50.2247 34.2247 51.2665C33.7549 53.7145 31.3897 55.3181 28.9418 54.8485L24.9569 54.0838L24.9321 54.0792L24.9074 54.0753L18.7973 53.1096C17.9667 52.9785 17.1861 53.5434 17.0511 54.3738C16.9163 55.2038 17.4782 55.9868 18.3079 56.1252C19.6873 56.3552 21.7671 56.9846 23.4578 58.078C25.1497 59.172 26.1966 60.5452 26.1966 62.256V62.7428C26.1966 63.5863 26.8803 64.2703 27.7241 64.2703C28.5677 64.2703 29.2516 63.5863 29.2516 62.7428V62.256C29.2516 60.4197 28.5807 58.9129 27.6041 57.7025L28.3662 57.8489C30.4975 58.2576 32.5913 57.7294 34.2223 56.5523L35.615 57.2262C36.1396 57.4801 36.6954 57.664 37.268 57.7731C40.0725 58.3068 42.7873 56.9953 44.1849 54.7089C44.218 57.2073 46.0559 59.3855 48.6073 59.7677C48.7609 59.7909 48.9139 59.8068 49.0661 59.8163ZM36.3546 54.1901C36.7629 53.4805 37.062 52.6917 37.2249 51.842C37.4963 50.4279 37.355 49.0305 36.8856 47.7749L37.8587 39.5611C38.0569 37.8888 39.5989 36.7113 41.2646 36.9608C42.8948 37.205 44.0182 38.7243 43.774 40.3545L42.0629 51.7754C41.7607 53.7921 39.8423 55.1531 37.8392 54.7718C37.5297 54.7129 37.2294 54.6136 36.9459 54.4764L36.3546 54.1901ZM31.3891 43.0442C31.2722 43.0197 31.154 42.998 31.0348 42.9788C29.2686 42.6959 27.2897 42.3843 25.3458 42.0901L25.9006 34.1547C26.0194 32.4575 27.5026 31.185 29.198 31.3259C30.8637 31.4642 32.1084 32.9166 31.99 34.5838L31.3891 43.0442ZM20.0865 41.333C18.0467 41.0608 16.3392 40.8708 15.504 40.8708C14.9736 40.8708 14.4635 40.9619 13.9765 41.1253L13.9765 14.903C13.9765 13.2158 15.3442 11.848 17.0315 11.848C18.7188 11.848 20.0865 13.2158 20.0865 14.903L20.0865 41.333ZM47.2638 54.3172L48.4413 46.4576C48.6162 45.2905 49.7038 44.4864 50.8706 44.6612C52.0374 44.8362 52.8415 45.9238 52.6667 47.0906L51.4892 54.9505C51.3144 56.1173 50.2267 56.9213 49.0599 56.7466C47.8932 56.5718 47.089 55.4843 47.2638 54.3172Z" fill="black"/>
<path d="M87.149 28.1232C82.7123 28.7931 79.1128 31.8079 77.606 35.8276C77.606 35.8276 77.606 35.8276 77.5223 35.8276C71.4113 36.7488 67.1421 42.4433 68.1466 48.6404L69.3186 56.5123C69.6534 58.6059 70.4905 60.4483 71.7462 61.9557C72.1647 68.8227 73.5878 76.0246 75.1783 79.8768C77.3548 85.2365 82.5449 88 87.5676 88H113.351C118.541 88 124.484 84.8177 125.907 78.202C127.665 70.2463 128 55.3399 128 51.7389C128 47.9704 126.744 44.3695 124.986 41.5222V15.1429C124.986 8.44335 119.545 3 112.848 3C106.151 3 100.71 8.44335 100.71 15.1429V22.3448C100.459 22.3448 100.208 22.3448 100.041 22.3448C96.1061 22.6798 92.7577 24.8571 90.7486 28.0394C89.4092 27.9557 88.2373 27.9557 87.149 28.1232Z" fill="#00FFF0"/>
<path fill-rule="evenodd" clip-rule="evenodd" d="M106.714 14.903C106.714 11.5285 109.449 8.79297 112.824 8.79297C116.199 8.79297 118.934 11.5285 118.934 14.903L118.934 43.2986C119.261 43.6726 119.56 44.0697 119.827 44.4751C121.124 46.4401 121.989 49.0204 121.989 51.5634C121.989 55.2414 121.644 69.4963 120.049 76.7798C119.347 79.9873 116.407 81.7879 113.419 81.7879L87.5773 81.7879C84.7233 81.7879 81.9459 80.2005 80.8025 77.4162C79.3798 73.9515 77.8777 66.1524 77.7072 59.0232C76.4761 58.2451 75.5777 56.9565 75.345 55.403L74.1674 47.5433C73.7426 44.7076 75.6968 42.0647 78.5322 41.6401C80.509 41.3437 82.3924 42.204 83.4956 43.7132L83.0602 40.8073C82.566 37.5085 84.8395 34.4338 88.1381 33.9395C91.5089 33.4345 94.6296 35.8171 95.0306 39.2018L95.2808 41.3141L94.8182 34.8002C94.5812 31.4642 97.0715 28.5582 100.405 28.2813C103.282 28.0423 105.855 29.8383 106.714 32.4617L106.714 14.903ZM80.7894 59.8163C81.0446 66.0706 82.3874 73.2329 83.6286 76.2556C84.2435 77.7532 85.8027 78.7329 87.5773 78.7329L113.419 78.7329C115.277 78.7329 116.731 77.653 117.065 76.1264C118.584 69.1899 118.934 55.22 118.934 51.5634C118.934 49.6678 118.272 47.6658 117.277 46.1575C116.233 44.5753 115.107 43.9258 114.351 43.9258C113.539 43.9258 111.252 44.2005 108.322 44.6169C105.454 45.0244 102.115 45.545 99.3041 45.9953C97.8897 46.222 96.7423 47.0893 96.1028 48.253L96.1118 48.3288L96.0589 48.3349C95.6058 49.2016 95.4309 50.2247 95.6308 51.2665C96.1005 53.7145 98.4657 55.3181 100.914 54.8485L104.899 54.0838L104.923 54.0792L104.948 54.0753L111.058 53.1096C111.889 52.9785 112.669 53.5434 112.804 54.3738C112.939 55.2038 112.377 55.9868 111.548 56.1252C110.168 56.3552 108.088 56.9846 106.398 58.078C104.706 59.172 103.659 60.5452 103.659 62.256V62.7428C103.659 63.5863 102.975 64.2703 102.131 64.2703C101.288 64.2703 100.604 63.5863 100.604 62.7428V62.256C100.604 60.4197 101.275 58.9129 102.251 57.7025L101.489 57.8489C99.358 58.2576 97.2642 57.7294 95.6332 56.5523L94.2405 57.2262C93.7158 57.4801 93.1601 57.664 92.5874 57.7731C89.7829 58.3068 87.0682 56.9953 85.6705 54.7089C85.6375 57.2073 83.7996 59.3855 81.2482 59.7677C81.0945 59.7909 80.9415 59.8068 80.7894 59.8163ZM93.5008 54.1901C93.0926 53.4805 92.7935 52.6917 92.6305 51.842C92.3592 50.4279 92.5005 49.0305 92.9699 47.7749L91.9967 39.5611C91.7986 37.8888 90.2565 36.7113 88.5909 36.9608C86.9607 37.205 85.8373 38.7243 86.0815 40.3545L87.7926 51.7754C88.0948 53.7921 90.0131 55.1531 92.0163 54.7718C92.3258 54.7129 92.626 54.6136 92.9096 54.4764L93.5008 54.1901ZM98.4664 43.0442C98.5833 43.0197 98.7014 42.998 98.8207 42.9788C100.587 42.6959 102.566 42.3843 104.51 42.0901L103.955 34.1547C103.836 32.4575 102.353 31.185 100.657 31.3259C98.9917 31.4642 97.7471 32.9166 97.8655 34.5838L98.4664 43.0442ZM109.769 41.333C111.809 41.0608 113.516 40.8708 114.351 40.8708C114.882 40.8708 115.392 40.9619 115.879 41.1253L115.879 14.903C115.879 13.2158 114.511 11.848 112.824 11.848C111.137 11.848 109.769 13.2158 109.769 14.903L109.769 41.333ZM82.5917 54.3172L81.4141 46.4576C81.2393 45.2905 80.1517 44.4864 78.9849 44.6612C77.8181 44.8362 77.0139 45.9238 77.1887 47.0906L78.3663 54.9505C78.5411 56.1173 79.6287 56.9213 80.7955 56.7466C81.9623 56.5718 82.7665 55.4843 82.5917 54.3172Z" fill="black"/>
</svg>
