<svg width="108" height="147" viewBox="0 0 108 147" fill="none" xmlns="http://www.w3.org/2000/svg">
<path d="M94.0407 129.072C98.4366 122.354 96.3931 115.373 93.3041 113.351C82.4938 106.274 74.7763 119.471 74.4592 126.977C75.4937 125.397 77.4847 122.524 78.717 124.685C80.2574 127.386 76.2337 128.703 75.0962 130.216C71.6838 134.755 73.9134 140.166 75.4548 142.303C76.5046 133.96 89.3862 136.184 94.0407 129.072Z" fill="#38A5F3" fill-opacity="0.75"/>
<path d="M82.432 117.589C85.0188 113.639 89.318 113.133 91.1714 114.346C97.6576 118.592 92.3517 125.853 88.342 127.766C88.9505 126.836 90.03 125.086 88.5531 124.916C86.7069 124.704 86.97 127.2 86.4232 128.17C84.7829 131.08 81.2939 131.12 79.7545 130.777C84.0416 128.271 79.6931 121.772 82.432 117.589Z" fill="#6DF1D9"/>
<path d="M64.521 107.152C71.1335 102.6 71.8866 95.3647 69.7936 92.3232C62.4689 81.6797 50.3279 90.9705 47.1916 97.797C48.7476 96.7262 51.6786 94.8212 52.0005 97.2881C52.4028 100.372 48.1801 100.066 46.5544 101.036C41.677 103.944 41.6914 109.796 42.3082 112.358C46.4398 105.034 57.5194 111.971 64.521 107.152Z" fill="#38A5F3" fill-opacity="0.75"/>
<path d="M58.1293 92.129C62.0197 89.4523 66.1901 90.6126 67.446 92.4375C71.8408 98.8236 64.1799 103.534 59.7445 103.786C60.6598 103.156 62.3218 101.945 61.0193 101.228C59.3911 100.332 58.6891 102.742 57.8157 103.433C55.1953 105.505 51.9511 104.221 50.6565 103.32C55.5733 102.624 54.01 94.963 58.1293 92.129Z" fill="#6DF1D9"/>
<path d="M84.7948 40.2156C91.2005 45.0542 98.304 43.4858 100.53 40.54C108.318 30.2311 95.6712 21.6418 88.2038 20.8197C89.7109 21.9584 92.4434 24.1385 90.2041 25.2224C87.4049 26.5772 86.3621 22.4739 84.9292 21.2371C80.6304 17.5266 75.0822 19.3866 72.8454 20.7804C81.0989 22.39 78.0122 35.0925 84.7948 40.2156Z" fill="#38A5F3" fill-opacity="0.75"/>
<path d="M97.0321 29.4087C100.8 32.2558 101.014 36.5793 99.6791 38.3468C95.0059 44.5322 88.1185 38.749 86.4804 34.6196C87.3669 35.2894 89.0404 36.4843 89.3095 35.0222C89.6459 33.1946 87.1377 33.2888 86.2067 32.6779C83.4136 30.8453 83.6086 27.3615 84.0552 25.8487C86.2663 30.295 93.043 26.3942 97.0321 29.4087Z" fill="#6DF1D9"/>
<path d="M60.7239 52.2595C67.0866 57.1545 74.2036 55.6489 76.4552 52.7229C84.3346 42.4832 71.764 33.7826 64.3041 32.8945C65.8011 34.0464 68.5143 36.2506 66.2655 37.3146C63.4545 38.6447 62.448 34.5323 61.026 33.2829C56.7602 29.5346 51.1957 31.3455 48.9468 32.7195C57.1857 34.4019 53.9869 47.0766 60.7239 52.2595Z" fill="#38A5F3" fill-opacity="0.75"/>
<path d="M73.0589 41.5611C76.801 44.4413 76.9777 48.7666 75.6267 50.5222C70.8991 56.666 64.0631 50.8222 62.4615 46.6784C63.3421 47.356 65.005 48.5657 65.287 47.1061C65.6395 45.2815 63.1306 45.3535 62.205 44.7344C59.4282 42.8771 59.654 39.3953 60.114 37.8865C62.2857 42.3521 69.0966 38.5114 73.0589 41.5611Z" fill="#6DF1D9"/>
<path d="M50.0059 77.7341C58.033 77.841 62.8291 72.3714 62.8786 68.6797C63.0522 55.7605 47.7747 56.3261 41.2699 60.0846C43.1586 60.11 46.6515 60.2492 45.4885 62.4484C44.0348 65.1975 40.7651 62.508 38.878 62.3596C33.2168 61.9145 29.8467 66.6983 28.8693 69.1458C36.4738 65.5565 41.5067 77.6209 50.0059 77.7341Z" fill="#38A5F3" fill-opacity="0.75"/>
<path d="M53.4715 61.7792C58.1933 61.8432 60.9263 65.2002 60.8965 67.4153C60.7924 75.1668 51.818 74.5838 48.053 72.2257C49.164 72.2406 51.2201 72.2129 50.5713 70.8752C49.7604 69.2032 47.7948 70.7641 46.6828 70.823C43.3468 70.9997 41.4414 68.0767 40.9058 66.5931C45.3201 68.8672 48.472 61.7115 53.4715 61.7792Z" fill="#6DF1D9"/>
<path d="M54.7538 135.308C60.3994 131.76 61.2753 125.782 59.6438 123.185C53.9343 114.098 43.5365 121.387 40.6969 126.944C42.0253 126.109 44.5238 124.63 44.7054 126.688C44.9324 129.261 41.4386 128.862 40.0557 129.61C35.9072 131.854 35.7162 136.711 36.1392 138.859C39.822 132.924 48.7762 139.065 54.7538 135.308Z" fill="#38A5F3" fill-opacity="0.75"/>
<path d="M49.971 122.618C53.2924 120.532 56.7132 121.64 57.6921 123.198C61.1178 128.65 54.5967 132.293 50.9072 132.348C51.6886 131.857 53.1098 130.91 52.0538 130.27C50.7337 129.47 50.0675 131.446 49.3187 131.988C47.0722 133.617 44.4244 132.439 43.3813 131.646C47.4858 131.24 46.4542 124.827 49.971 122.618Z" fill="#6DF1D9"/>
<path d="M23.761 105.499C28.3338 103.825 29.8702 99.6887 29.1005 97.5856C26.407 90.2257 17.8702 93.8477 14.9956 97.3836C16.0716 96.9898 18.0814 96.3139 17.8975 97.8118C17.6676 99.684 15.2332 98.8663 14.1315 99.19C10.8266 100.161 9.95028 103.601 9.92521 105.199C13.4597 101.521 18.9193 107.272 23.761 105.499Z" fill="#38A5F3" fill-opacity="0.75"/>
<path d="M22.2767 95.7081C24.9668 94.724 27.2412 96.0362 27.703 97.2981C29.3191 101.714 24.1065 103.323 21.463 102.8C22.096 102.568 23.2553 102.108 22.5986 101.49C21.7776 100.718 21.0008 102.027 20.3833 102.301C18.5307 103.122 16.8191 101.877 16.1949 101.152C19.1883 101.487 19.4284 96.7501 22.2767 95.7081Z" fill="#6DF1D9"/>
<path d="M14.2423 73.5642C19.1004 73.2294 21.7277 69.6843 21.574 67.45C21.0362 59.6312 11.8284 60.7331 8.08302 63.3289C9.22609 63.2503 11.3446 63.1607 10.751 64.5481C10.0089 66.2823 7.89841 64.8191 6.75022 64.8233C3.30564 64.8358 1.50627 67.8955 1.03716 69.4237C5.45578 66.8755 9.09857 73.9186 14.2423 73.5642Z" fill="#38A5F3" fill-opacity="0.75"/>
<path d="M15.541 63.7468C18.3987 63.5505 20.2179 65.444 20.3101 66.7846C20.6328 71.4759 15.1784 71.5699 12.785 70.3317C13.4574 70.2854 14.699 70.1664 14.2402 69.39C13.6668 68.4195 12.5562 69.4609 11.8869 69.5519C9.8789 69.8246 8.58161 68.1523 8.18396 67.2821C10.9657 68.4373 12.5152 63.9545 15.541 63.7468Z" fill="#6DF1D9"/>
<path d="M29.0544 41.2777C33.4756 43.3184 37.4833 41.4718 38.422 39.4385C41.7073 32.323 33.1026 28.8651 28.5707 29.3419C29.6109 29.8222 31.5119 30.7616 30.3246 31.6931C28.8405 32.8574 27.6927 30.5601 26.6838 30.0121C23.6569 28.3679 20.6087 30.1867 19.4629 31.3015C24.5625 31.1899 24.373 39.117 29.0544 41.2777Z" fill="#38A5F3" fill-opacity="0.75"/>
<path d="M34.9113 33.2931C37.5118 34.4941 38.1974 37.0289 37.6341 38.2488C35.663 42.5181 30.8343 39.9798 29.3303 37.7438C29.9422 38.0263 31.0883 38.5185 31.059 37.6172C31.0224 36.4905 29.548 36.8702 28.9173 36.6283C27.0253 35.9028 26.6911 33.8128 26.7605 32.8585C28.645 35.2083 32.1579 32.0214 34.9113 33.2931Z" fill="#6DF1D9"/>
<path d="M57.9176 16.8676C62.3389 18.9083 66.3465 17.0616 67.2853 15.0283C70.5706 7.91283 61.9659 4.45495 57.4339 4.93178C58.4742 5.41207 60.3752 6.35142 59.1879 7.28291C57.7038 8.44728 56.556 6.14996 55.547 5.60191C52.5202 3.95778 49.4719 5.77649 48.3262 6.89137C53.4257 6.77974 53.2363 14.7068 57.9176 16.8676Z" fill="#38A5F3" fill-opacity="0.75"/>
<path d="M63.7746 8.88295C66.3751 10.084 67.0607 12.6187 66.4974 13.8387C64.5263 18.108 59.6976 15.5696 58.1936 13.3336C58.8055 13.6162 59.9516 14.1083 59.9223 13.207C59.8857 12.0804 58.4113 12.4601 57.7806 12.2182C55.8886 11.4926 55.5544 9.40265 55.6238 8.44838C57.5083 10.7981 61.0212 7.61128 63.7746 8.88295Z" fill="#6DF1D9"/>
</svg>
