<svg width="129" height="128" viewBox="0 0 129 128" fill="none" xmlns="http://www.w3.org/2000/svg">
<path d="M32.9902 46.5022C32.9902 63.8992 47.0933 78.0017 64.4902 78.0011C81.8872 78.0005 95.9902 63.897 95.9902 46.5C95.9902 29.103 81.8872 15.0005 64.4902 15.0011C47.0933 15.0017 32.9902 29.1052 32.9902 46.5022Z" fill="#F74289"/>
<path fill-rule="evenodd" clip-rule="evenodd" d="M64.9902 12.0012C83.7679 12.0005 98.9902 27.2223 98.9902 46C98.9902 64.7777 83.7679 80.0005 64.9902 80.0012C46.2126 80.0018 30.9902 64.7801 30.9902 46.0024C30.9902 27.2247 46.2126 12.0018 64.9902 12.0012ZM93.8 46.0002C93.8 30.089 80.9014 17.1909 64.9902 17.1915C49.0791 17.192 36.1805 30.091 36.1805 46.0022C36.1805 61.9134 49.0791 74.8115 64.9902 74.8109C80.9014 74.8104 93.8 61.9114 93.8 46.0002Z" fill="black"/>
<path d="M63.9902 29C86.6339 29 104.99 47.3683 104.99 70C104.99 92.6317 86.6339 111 63.9902 111C41.3466 111 22.9902 92.6317 22.9902 70C22.9902 47.3683 41.3466 29 63.9902 29Z" fill="#24BF0C"/>
<path d="M22.9902 102.495C22.9902 109.399 28.5867 114.996 35.4902 114.998C42.3938 114.999 47.9902 109.404 47.9902 102.5C47.9902 95.5964 42.3938 89.9989 35.4902 89.9975C28.5867 89.9961 22.9902 95.5914 22.9902 102.495Z" fill="#FFAB1E"/>
<path fill-rule="evenodd" clip-rule="evenodd" d="M35.4902 87.997C43.4984 87.9987 49.9902 94.4919 49.9902 102.5C49.9902 110.508 43.4984 116.999 35.4902 116.997C27.4821 116.995 20.9902 110.502 20.9902 102.494C20.9902 94.4859 27.4821 87.9954 35.4902 87.997ZM45.5597 102.499C45.5597 96.9379 41.0514 92.4287 35.4902 92.4276C29.929 92.4265 25.4208 96.9338 25.4208 102.495C25.4208 108.056 29.929 112.565 35.4902 112.566C41.0514 112.568 45.5597 108.06 45.5597 102.499Z" fill="black"/>
<path d="M80.9902 102.495C80.9902 109.399 86.5867 114.996 93.4902 114.998C100.394 114.999 105.99 109.404 105.99 102.5C105.99 95.5964 100.394 89.9989 93.4902 89.9975C86.5867 89.9961 80.9902 95.5914 80.9902 102.495Z" fill="#FFAB1E"/>
<path fill-rule="evenodd" clip-rule="evenodd" d="M93.4902 87.997C101.498 87.9987 107.99 94.4919 107.99 102.5C107.99 110.508 101.498 116.999 93.4902 116.997C85.4821 116.995 78.9902 110.502 78.9902 102.494C78.9902 94.4859 85.4821 87.9954 93.4902 87.997ZM103.56 102.499C103.56 96.9379 99.0514 92.4287 93.4902 92.4276C87.929 92.4265 83.4208 96.9338 83.4208 102.495C83.4208 108.056 87.929 112.565 93.4902 112.566C99.0514 112.568 103.56 108.06 103.56 102.499Z" fill="black"/>
</svg>
