<svg width="257" height="257" viewBox="0 0 257 257" fill="none" xmlns="http://www.w3.org/2000/svg">
<path d="M202.107 158.209C202.107 155.264 199.72 152.875 196.775 152.875C195.128 152.875 193.676 153.636 192.698 154.809L186.017 143.237L192.698 131.664C193.676 132.835 195.13 133.596 196.775 133.596C199.719 133.596 202.107 131.209 202.107 128.264C202.107 125.319 199.72 122.932 196.775 122.932C193.83 122.932 191.442 125.319 191.442 128.264C191.442 128.874 191.566 129.449 191.755 129.995H178.374L171.942 118.859C174.299 118.308 176.059 116.205 176.059 113.678C176.059 110.733 173.671 108.343 170.725 108.343C167.778 108.343 165.39 110.732 165.39 113.678C165.39 116.205 167.151 118.309 169.51 118.859L163.08 129.995H150.108C150.297 129.449 150.422 128.873 150.422 128.264C150.422 125.32 148.035 122.932 145.088 122.932C142.144 122.932 139.756 125.319 139.756 128.264C139.756 131.209 142.143 133.596 145.088 133.596C146.596 133.596 147.953 132.964 148.923 131.957L155.437 143.237L148.924 154.516C147.955 153.509 146.598 152.877 145.088 152.877C142.144 152.877 139.756 155.264 139.756 158.21C139.756 161.154 142.143 163.542 145.088 163.542C148.033 163.542 150.422 161.155 150.422 158.21C150.422 157.6 150.297 157.025 150.11 156.481H163.081L169.916 168.316C167.357 168.709 165.391 170.899 165.391 173.567C165.391 176.512 167.779 178.902 170.726 178.902C173.673 178.902 176.061 176.514 176.061 173.567C176.061 170.899 174.096 168.709 171.539 168.316L178.375 156.479H191.755C191.566 157.025 191.443 157.6 191.443 158.209C191.443 161.153 193.831 163.541 196.777 163.541C199.722 163.541 202.107 161.154 202.107 158.209ZM182.91 132.716C183.296 132.716 183.609 133.03 183.609 133.416C183.609 133.802 183.296 134.115 182.91 134.115H176.931L171.831 126.132C171.623 125.807 171.718 125.374 172.043 125.167C172.366 124.959 172.801 125.052 173.008 125.379L177.695 132.716H182.91ZM158.961 153.576C158.574 153.576 158.261 153.263 158.261 152.877C158.261 152.49 158.574 152.177 158.961 152.177H164.939L170.04 160.162C170.249 160.487 170.154 160.92 169.829 161.127C169.712 161.202 169.581 161.238 169.451 161.238C169.222 161.238 168.995 161.123 168.862 160.915L164.174 153.576H158.961Z" fill="#FDB71E"/>
<path d="M172.044 125.167C171.72 125.374 171.623 125.808 171.833 126.132L176.933 134.116H182.911C183.297 134.116 183.611 133.802 183.611 133.416C183.611 133.03 183.297 132.717 182.911 132.717H177.697L173.01 125.379C172.802 125.052 172.367 124.958 172.044 125.167Z" fill="white"/>
<path d="M169.452 161.238C169.582 161.238 169.712 161.203 169.83 161.128C170.154 160.919 170.251 160.487 170.041 160.162L164.94 152.177H158.961C158.575 152.177 158.262 152.491 158.262 152.877C158.262 153.263 158.575 153.576 158.961 153.576H164.176L168.864 160.915C168.996 161.123 169.223 161.238 169.452 161.238Z" fill="#B28832"/>
<path d="M127.675 209.245C126.547 207.355 124.101 206.737 122.211 207.865C121.154 208.495 120.514 209.54 120.336 210.667L111.617 205.801L111.472 195.817C112.548 196.194 113.772 196.126 114.827 195.496C116.716 194.368 117.334 191.922 116.206 190.032C115.078 188.143 112.633 187.525 110.743 188.653C108.853 189.781 108.235 192.228 109.363 194.117C109.597 194.509 109.897 194.83 110.227 195.108L101.642 200.232L93.2502 195.551C94.5517 194.294 94.8756 192.271 93.9078 190.65C92.7798 188.76 90.3322 188.142 88.4417 189.27C86.5512 190.399 85.9335 192.846 87.062 194.736C88.0298 196.358 89.9659 197.033 91.69 196.482L91.8291 206.09L83.5066 211.058C83.4188 210.635 83.2779 210.218 83.0448 209.827C81.9174 207.939 79.4712 207.32 77.5807 208.449C75.692 209.576 75.0738 212.023 76.2018 213.912C77.3297 215.802 79.7754 216.419 81.665 215.291C82.6327 214.713 83.2613 213.788 83.4975 212.77L91.9972 217.512L92.1386 227.244C91.1306 226.969 90.0177 227.083 89.0491 227.661C87.1603 228.789 86.5421 231.235 87.6707 233.125C88.7981 235.014 91.2443 235.632 93.1339 234.504C95.0235 233.376 95.6417 230.93 94.5137 229.041C94.2801 228.649 93.98 228.328 93.6512 228.051L101.974 223.083L110.892 228.058C109.4 229.291 108.978 231.449 110 233.16C111.128 235.05 113.575 235.669 115.466 234.54C117.356 233.412 117.974 230.965 116.845 229.074C115.824 227.362 113.725 226.71 111.933 227.437L111.786 217.224L120.37 212.1C120.458 212.522 120.599 212.938 120.833 213.329C121.96 215.218 124.407 215.835 126.297 214.707C128.186 213.579 128.803 211.134 127.675 209.245ZM105.594 200.241C105.842 200.093 106.163 200.174 106.311 200.422C106.459 200.67 106.378 200.991 106.13 201.139L102.294 203.429L95.9646 200.26C95.7066 200.131 95.6015 199.816 95.7304 199.559C95.8585 199.303 96.173 199.195 96.4313 199.326L102.249 202.238L105.594 200.241ZM98.2176 222.797C97.9698 222.945 97.6487 222.864 97.5008 222.616C97.3529 222.368 97.434 222.047 97.6817 221.899L101.518 219.61L107.849 222.779C108.107 222.907 108.212 223.222 108.083 223.479C108.036 223.572 107.966 223.645 107.883 223.695C107.736 223.783 107.546 223.796 107.381 223.713L101.562 220.8L98.2176 222.797Z" fill="#FDB71E"/>
<path d="M95.7318 199.559C95.6028 199.816 95.707 200.131 95.966 200.259L102.296 203.428L106.131 201.138C106.379 200.99 106.46 200.669 106.312 200.422C106.164 200.174 105.843 200.093 105.596 200.241L102.25 202.238L96.4326 199.325C96.1744 199.195 95.8593 199.301 95.7318 199.559Z" fill="white"/>
<path d="M107.883 223.695C107.967 223.645 108.037 223.573 108.083 223.479C108.212 223.221 108.108 222.907 107.849 222.779L101.518 219.609L97.6822 221.899C97.4345 222.047 97.3534 222.368 97.5013 222.616C97.6492 222.864 97.9703 222.945 98.2181 222.797L101.564 220.8L107.382 223.712C107.547 223.796 107.736 223.783 107.883 223.695Z" fill="#B28832"/>
<path d="M78.7371 108.095C79.6761 106.206 78.9066 103.913 77.0176 102.974C75.9614 102.449 74.7873 102.474 73.7862 102.914L73.1907 93.3621L81.1651 88.0699C81.419 89.1328 82.1087 90.0844 83.164 90.609C85.052 91.5475 87.3448 90.7781 88.2838 88.8891C89.2228 87.0001 88.4528 84.7082 86.5639 83.7693C84.6749 82.8303 82.3821 83.5998 81.4432 85.4887C81.2487 85.88 81.1452 86.2885 81.0924 86.6987L72.5099 82.4325L71.935 73.2398C73.6228 73.6379 75.4221 72.8503 76.2277 71.2296C77.1667 69.3407 76.3968 67.0465 74.5069 66.1071C72.617 65.1677 70.3238 65.9381 69.3844 67.8279C68.5788 69.4486 69.0377 71.3598 70.3754 72.4645L62.7008 77.5566L54.3813 73.4211C54.6764 73.1314 54.9401 72.8013 55.1341 72.411C56.0726 70.5229 55.3031 68.2301 53.4133 67.2907C51.5252 66.3522 49.2324 67.1217 48.2934 69.0106C47.3545 70.8996 48.1244 73.1915 50.0134 74.1305C50.9807 74.6113 52.0528 74.6384 52.9958 74.3014L53.5778 83.6129L45.8044 88.771C45.5037 87.8158 44.8348 86.9775 43.8666 86.4962C41.9785 85.5577 39.6857 86.3272 38.7463 88.217C37.8078 90.1051 38.5773 92.3979 40.4662 93.3368C42.3552 94.2758 44.648 93.5063 45.5869 91.6174C45.7814 91.2261 45.8849 90.8176 45.9382 90.4088L54.2577 94.5442L54.8681 104.314C53.1014 103.75 51.1425 104.528 50.2919 106.239C49.3529 108.128 50.1228 110.422 52.0127 111.362C53.9026 112.301 56.1958 111.531 57.1352 109.641C57.9859 107.93 57.4241 105.899 55.909 104.832L64.0673 99.4193L72.6488 103.685C72.3537 103.975 72.0914 104.304 71.8974 104.695C70.9588 106.583 71.7292 108.876 73.6182 109.815C75.5071 110.754 77.7981 109.984 78.7371 108.095ZM74.5516 85.6241C74.7993 85.7472 74.9004 86.0481 74.7773 86.2958C74.6542 86.5434 74.3532 86.6445 74.1056 86.5214L70.2711 84.6154L69.5454 77.8691C69.5152 77.5944 69.7145 77.3466 69.9887 77.3173C70.262 77.2875 70.5117 77.4854 70.5401 77.7614L71.2071 83.9616L74.5516 85.6241ZM52.541 91.3676C52.2933 91.2445 52.1922 90.9436 52.3153 90.6959C52.4384 90.4482 52.7394 90.3471 52.987 90.4703L56.8215 92.3763L57.5476 99.1239C57.5778 99.3986 57.3785 99.6464 57.1043 99.6758C57.0053 99.6859 56.9102 99.6677 56.8268 99.6262C56.6796 99.5531 56.5708 99.4072 56.552 99.2311L55.8846 93.0297L52.541 91.3676Z" fill="#FDB71E"/>
<path d="M69.9898 77.3179C69.7156 77.3473 69.5154 77.5947 69.5465 77.8698L70.2722 84.6161L74.1067 86.5221C74.3543 86.6452 74.6553 86.5441 74.7784 86.2965C74.9015 86.0488 74.8004 85.7479 74.5527 85.6247L71.2082 83.9623L70.5412 77.7621C70.5128 77.4861 70.2636 77.2873 69.9898 77.3179Z" fill="white"/>
<path d="M56.8265 99.6266C56.91 99.668 57.0046 99.6871 57.1041 99.6761C57.3787 99.6459 57.5785 99.3994 57.5473 99.1243L56.8212 92.3766L52.9868 90.4706C52.7391 90.3475 52.4382 90.4486 52.3151 90.6962C52.1919 90.9439 52.293 91.2448 52.5407 91.368L55.8852 93.0304L56.5527 99.2319C56.5706 99.4076 56.6794 99.5534 56.8265 99.6266Z" fill="#B28832"/>
<path d="M165.6 100.45C166.088 99.4684 165.688 98.2767 164.706 97.7887C164.157 97.5158 163.547 97.5289 163.027 97.7577L162.717 92.7931L166.862 90.0425C166.994 90.5949 167.352 91.0895 167.901 91.3622C168.882 91.85 170.074 91.45 170.562 90.4683C171.05 89.4865 170.65 88.2953 169.668 87.8073C168.686 87.3193 167.494 87.7192 167.006 88.701C166.905 88.9043 166.852 89.1167 166.824 89.3298L162.363 87.1126L162.065 82.3347C162.942 82.5416 163.877 82.1323 164.296 81.29C164.784 80.3082 164.384 79.1158 163.401 78.6276C162.419 78.1393 161.227 78.5397 160.739 79.522C160.32 80.3643 160.559 81.3576 161.254 81.9318L157.265 84.5783L152.941 82.429C153.095 82.2784 153.232 82.1068 153.333 81.904C153.82 80.9227 153.42 79.731 152.438 79.2428C151.457 78.755 150.265 79.1549 149.777 80.1367C149.289 81.1184 149.689 82.3096 150.671 82.7976C151.174 83.0476 151.731 83.0616 152.221 82.8865L152.524 87.726L148.484 90.4069C148.327 89.9104 147.98 89.4747 147.476 89.2246C146.495 88.7368 145.303 89.1367 144.815 90.119C144.327 91.1003 144.727 92.2919 145.709 92.7799C146.691 93.268 147.883 92.868 148.371 91.8863C148.472 91.6829 148.525 91.4706 148.553 91.2581L152.877 93.4075L153.194 98.4853C152.276 98.1923 151.258 98.5965 150.816 99.4859C150.328 100.468 150.728 101.66 151.71 102.148C152.692 102.637 153.884 102.236 154.373 101.254C154.815 100.364 154.523 99.309 153.735 98.7542L157.975 95.9412L162.436 98.1583C162.282 98.3089 162.146 98.4802 162.045 98.6831C161.557 99.6644 161.958 100.856 162.939 101.344C163.921 101.832 165.112 101.432 165.6 100.45ZM163.425 88.7713C163.553 88.8353 163.606 88.9917 163.542 89.1204C163.478 89.2492 163.322 89.3017 163.193 89.2377L161.2 88.2471L160.823 84.7408C160.807 84.598 160.911 84.4692 161.053 84.4539C161.195 84.4385 161.325 84.5414 161.34 84.6848L161.686 87.9073L163.425 88.7713ZM151.985 91.7565C151.856 91.6925 151.804 91.5361 151.868 91.4073C151.932 91.2786 152.088 91.2261 152.217 91.2901L154.21 92.2807L154.587 95.7877C154.603 95.9305 154.499 96.0593 154.357 96.0745C154.305 96.0798 154.256 96.0703 154.212 96.0488C154.136 96.0108 154.079 95.935 154.07 95.8434L153.723 92.6203L151.985 91.7565Z" fill="#FDB71E"/>
<path d="M161.054 84.4544C160.911 84.4696 160.807 84.5982 160.824 84.7412L161.201 88.2475L163.194 89.2382C163.322 89.3021 163.479 89.2496 163.543 89.1209C163.607 88.9922 163.554 88.8357 163.425 88.7718L161.687 87.9077L161.341 84.6853C161.326 84.5418 161.196 84.4385 161.054 84.4544Z" fill="white"/>
<path d="M154.212 96.0489C154.256 96.0705 154.305 96.0804 154.357 96.0747C154.499 96.059 154.603 95.9309 154.587 95.7879L154.21 92.2809L152.217 91.2902C152.088 91.2262 151.931 91.2788 151.867 91.4075C151.803 91.5362 151.856 91.6926 151.985 91.7566L153.723 92.6207L154.07 95.8438C154.079 95.9351 154.136 96.0109 154.212 96.0489Z" fill="#B28832"/>
<path d="M108.333 143.565L94.0447 143.012L97.9357 129.253L86.0514 137.204L81.1124 123.786L76.172 137.204L64.2891 129.253L68.1787 143.012L53.8906 143.565L65.123 152.409L53.8906 161.254L68.1787 161.807L64.2891 175.566L76.172 167.615L81.1124 181.032L86.0514 167.615L97.9357 175.566L94.0447 161.807L108.333 161.254L97.1004 152.409L108.333 143.565ZM75.7788 152.425C75.7788 149.482 78.1672 147.092 81.1124 147.092C84.0576 147.092 86.4473 149.48 86.4473 152.425C86.4473 155.371 84.059 157.76 81.1124 157.76C78.1672 157.759 75.7788 155.371 75.7788 152.425ZM81.2845 174.469C81.2271 174.484 81.1683 174.491 81.1124 174.491C80.799 174.491 80.5149 174.281 80.4352 173.965L77.8118 163.661L69.0504 170.666C68.7467 170.908 68.3088 170.859 68.0667 170.556C67.8261 170.255 67.8737 169.814 68.1759 169.572L78.6317 161.212L81.791 173.618C81.8861 173.992 81.658 174.374 81.2845 174.469ZM83.9624 144.039L80.4366 131.055C80.3358 130.683 80.5555 130.298 80.9291 130.197C81.3069 130.092 81.686 130.318 81.7868 130.69L84.7222 141.497L93.1464 134.023C93.436 133.766 93.8768 133.79 94.1342 134.081C94.3917 134.371 94.3637 134.813 94.0754 135.069L83.9624 144.039Z" fill="#5C6665"/>
<path d="M81.1119 157.759C84.0575 157.759 86.4454 155.371 86.4454 152.425C86.4454 149.48 84.0575 147.092 81.1119 147.092C78.1662 147.092 75.7783 149.48 75.7783 152.425C75.7783 155.371 78.1662 157.759 81.1119 157.759Z" fill="#010101"/>
<path d="M94.1332 134.079C93.8758 133.788 93.435 133.764 93.1454 134.02L84.7212 141.494L81.7857 130.687C81.685 130.315 81.3044 130.091 80.9281 130.195C80.5545 130.295 80.3348 130.68 80.4356 131.052L83.9614 144.036L94.0758 135.065C94.3627 134.81 94.3906 134.368 94.1332 134.079Z" fill="#B9C8C2"/>
<path d="M78.6303 161.212L68.1745 169.572C67.8723 169.812 67.8247 170.253 68.0653 170.555C68.3074 170.858 68.7453 170.907 69.0489 170.666L77.8104 163.66L80.4338 173.965C80.5149 174.281 80.799 174.491 81.111 174.491C81.1669 174.491 81.2257 174.484 81.2831 174.469C81.658 174.374 81.8847 173.993 81.7881 173.618L78.6303 161.212Z" fill="#232827"/>
<path d="M134.178 93.6918L125.692 93.3635L128.003 85.1913L120.944 89.914L118.011 81.9446L115.077 89.914L108.019 85.1913L110.329 93.3635L101.843 93.6918L108.514 98.9446L101.843 104.198L110.329 104.527L108.019 112.699L115.077 107.976L118.011 115.945L120.944 107.976L128.003 112.699L125.692 104.527L134.178 104.198L127.507 98.9446L134.178 93.6918ZM114.843 98.9546C114.843 97.2061 116.262 95.7867 118.011 95.7867C119.76 95.7867 121.18 97.2053 121.18 98.9546C121.18 100.704 119.761 102.123 118.011 102.123C116.262 102.122 114.843 100.704 114.843 98.9546ZM118.113 112.047C118.079 112.056 118.044 112.06 118.011 112.06C117.825 112.06 117.656 111.936 117.609 111.748L116.051 105.628L110.847 109.788C110.666 109.932 110.406 109.903 110.263 109.723C110.12 109.544 110.148 109.282 110.327 109.139L116.538 104.173L118.414 111.542C118.47 111.764 118.335 111.991 118.113 112.047ZM119.704 93.9735L117.61 86.2617C117.55 86.0406 117.68 85.8121 117.902 85.7523C118.126 85.69 118.352 85.8237 118.411 86.0448L120.155 92.4635L125.158 88.0243C125.33 87.8722 125.592 87.8863 125.745 88.0592C125.898 88.2312 125.881 88.4938 125.71 88.6459L119.704 93.9735Z" fill="#5C6665"/>
<path d="M118.011 102.122C119.76 102.122 121.178 100.704 121.178 98.9544C121.178 97.2049 119.76 95.7866 118.011 95.7866C116.261 95.7866 114.843 97.2049 114.843 98.9544C114.843 100.704 116.261 102.122 118.011 102.122Z" fill="#010101"/>
<path d="M125.745 88.0575C125.592 87.8847 125.33 87.8705 125.158 88.0226L120.155 92.4619L118.411 86.0431C118.351 85.8221 118.125 85.6891 117.902 85.7506C117.68 85.8105 117.549 86.039 117.609 86.26L119.703 93.9718L125.711 88.6434C125.881 88.4921 125.898 88.2295 125.745 88.0575Z" fill="#B9C8C2"/>
<path d="M116.537 104.173L110.327 109.139C110.147 109.282 110.119 109.543 110.262 109.723C110.406 109.902 110.666 109.931 110.846 109.788L116.05 105.628L117.608 111.748C117.656 111.936 117.825 112.06 118.01 112.06C118.044 112.06 118.078 112.056 118.112 112.047C118.335 111.991 118.47 111.765 118.412 111.542L116.537 104.173Z" fill="#232827"/>
<path d="M185.622 216.572L177.374 209.529L186.157 203.165L175.344 202.314L178.71 192.004L169.462 197.671L166.124 187.353L161.974 197.373L153.207 190.987L155.739 201.532L144.894 201.52L153.141 208.563L144.36 214.927L155.171 215.778L151.807 226.088L161.053 220.42L164.392 230.739L168.542 220.719L177.308 227.104L174.778 216.559L185.622 216.572ZM162.075 206.549C163.459 204.797 166.004 204.496 167.757 205.88C169.511 207.264 169.811 209.809 168.427 211.563C167.043 213.316 164.498 213.617 162.744 212.232C160.991 210.847 160.691 208.303 162.075 206.549ZM154.994 222.261C154.953 222.243 154.914 222.22 154.881 222.194C154.694 222.046 154.624 221.788 154.725 221.562L158.006 214.194L149.497 214.248C149.203 214.249 148.965 214.014 148.963 213.72C148.961 213.427 149.197 213.187 149.491 213.185L159.645 213.121L155.695 221.993C155.576 222.26 155.261 222.38 154.994 222.261ZM170.889 205.402L174.891 196.014C175.006 195.745 175.318 195.62 175.588 195.735C175.862 195.85 175.982 196.163 175.867 196.431L172.536 204.245L181.064 203.754C181.357 203.738 181.608 203.959 181.625 204.253C181.642 204.547 181.417 204.797 181.125 204.814L170.889 205.402Z" fill="#5C6665"/>
<path d="M162.744 212.231C164.497 213.615 167.041 213.316 168.426 211.562C169.81 209.808 169.51 207.264 167.757 205.88C166.003 204.495 163.459 204.795 162.075 206.549C160.69 208.303 160.99 210.847 162.744 212.231Z" fill="#010101"/>
<path d="M181.625 204.251C181.608 203.957 181.357 203.736 181.064 203.752L172.536 204.243L175.867 196.429C175.982 196.16 175.861 195.848 175.588 195.733C175.318 195.618 175.007 195.743 174.892 196.012L170.889 205.4L181.127 204.812C181.418 204.795 181.642 204.545 181.625 204.251Z" fill="#B9C8C2"/>
<path d="M159.644 213.121L149.49 213.184C149.197 213.186 148.962 213.426 148.963 213.719C148.965 214.012 149.203 214.247 149.497 214.247L158.005 214.193L154.725 221.561C154.624 221.788 154.695 222.046 154.881 222.193C154.914 222.219 154.952 222.243 154.994 222.26C155.262 222.38 155.575 222.26 155.694 221.991L159.644 213.121Z" fill="#232827"/>
</svg>
