<svg width="129" height="129" viewBox="0 0 129 129" fill="none" xmlns="http://www.w3.org/2000/svg">
<mask id="mask0" mask-type="alpha" maskUnits="userSpaceOnUse" x="0" y="0" width="129" height="129">
<rect x="0.0996094" y="0.649414" width="128" height="128" fill="#C4C4C4"/>
</mask>
<g mask="url(#mask0)">
<path d="M36.0796 23.149C50.7248 12.8654 70.6744 16.6233 80.9581 31.2685C89.3136 43.1678 88.4508 58.8067 80.1287 69.6614L100.91 99.2569C107.766 109.02 92.5106 119.733 85.6548 109.969L64.8732 80.3735C51.5327 84.7301 36.5298 80.2319 28.1743 68.3326C17.8906 53.6874 21.4344 33.4327 36.0796 23.149ZM51.2909 44.8117C51.596 44.5975 51.8102 44.9026 52.1153 44.6884C48.9925 39.5924 45.4996 32.023 47.9922 23.8951C44.9086 24.6937 42.0392 25.7975 39.2932 27.7257C38.0728 28.5826 37.1575 29.2254 36.4564 30.1732C40.3194 40.2159 45.7014 44.6367 49.8887 46.7074C49.9796 46.1881 50.6806 45.2402 51.2909 44.8117ZM54.8938 44.104C55.7183 43.9806 56.9712 44.4674 57.919 45.1685C60.4766 39.7282 65.6893 32.8791 73.8105 30.8209C70.6294 27.5881 66.7472 25.3031 62.3781 24.2711C55.8541 32.4965 54.3678 39.4623 54.8938 44.104ZM59.7239 47.09C60.3666 48.0054 60.3991 49.3492 60.5225 50.1736C66.2028 49.8293 74.6033 50.7638 80.4462 57.1386C81.4783 52.7695 81.7767 48.0045 80.6405 43.7913C70.2534 41.974 63.3852 44.5191 59.7239 47.09ZM59.5488 52.6795C59.1528 53.4131 58.5426 53.8416 57.9324 54.2701C57.6273 54.4843 57.3222 54.6986 57.0171 54.9128C60.1399 60.0088 63.6328 67.5782 61.1402 75.706C64.2238 74.9074 67.3983 73.5895 70.1443 71.6613C71.0596 71.0185 71.9749 70.3758 72.9811 69.2137C68.8129 59.3852 63.431 54.9645 59.5488 52.6795ZM54.2386 55.4972C53.4141 55.6206 52.1612 55.1337 51.2133 54.4327C48.4415 59.5678 43.7482 66.5078 35.4127 68.2609C38.8081 71.7989 42.6903 74.0838 46.7543 75.3301C53.2783 67.1047 54.7646 60.1388 54.2386 55.4972ZM49.4085 52.5111C49.0709 51.3816 48.7333 50.252 48.915 49.2133C43.2347 49.5576 34.3148 48.5322 28.6861 42.4626C27.6541 46.8316 27.6608 51.3824 28.4919 55.8098C39.1841 57.4129 45.7472 55.0821 49.4085 52.5111Z" fill="white"/>
</g>
</svg>
