<svg width="129" height="129" viewBox="0 0 129 129" fill="none" xmlns="http://www.w3.org/2000/svg">
<path d="M117.525 65.5076C117.525 55.3515 109.292 47.1167 99.1354 47.1146C88.9793 47.1126 80.7461 55.3441 80.7461 65.5003C80.7461 75.6565 88.9793 83.8913 99.1354 83.8933C109.292 83.8953 117.525 75.6638 117.525 65.5076Z" fill="#676767"/>
<path d="M117.521 65.5076C117.521 55.3515 109.288 47.1167 99.1315 47.1146C88.9754 47.1126 80.7422 55.3441 80.7422 65.5003C80.7422 75.6565 88.9754 83.8913 99.1315 83.8933C109.288 83.8953 117.521 75.6638 117.521 65.5076Z" fill="#676767"/>
<path d="M112.331 57.1625C112.331 55.176 110.721 53.5653 108.734 53.5649C106.748 53.5645 105.138 55.1746 105.138 57.1611C105.138 59.1476 106.748 60.7583 108.734 60.7587C110.721 60.7591 112.331 59.1491 112.331 57.1625Z" fill="#4D4D4D"/>
<path d="M92.0247 55.3405C92.0247 54.335 91.2096 53.5197 90.2041 53.5195C89.1986 53.5193 88.3835 54.3343 88.3835 55.3398C88.3835 56.3452 89.1986 57.1605 90.2041 57.1607C91.2096 57.1609 92.0247 56.346 92.0247 55.3405Z" fill="#4D4D4D"/>
<path d="M99.3493 78.3249C99.3493 76.922 98.212 75.7845 96.8091 75.7842C95.4062 75.784 94.2689 76.921 94.2689 78.3239C94.2689 79.7268 95.4062 80.8643 96.8091 80.8646C98.212 80.8649 99.3493 79.7278 99.3493 78.3249Z" fill="#4D4D4D"/>
<path d="M88.9576 67.4327C91.0668 67.4327 92.7766 65.7229 92.7766 63.6138C92.7766 61.5046 91.0668 59.7948 88.9576 59.7948H80.4962C78.387 59.7948 76.6772 61.5046 76.6772 63.6138C76.6772 65.7229 78.387 67.4327 80.4962 67.4327H88.9576Z" fill="#4D4D4D"/>
<path d="M111.278 73.7543C112.333 73.7543 113.188 72.8993 113.188 71.8447C113.188 70.7901 112.333 69.9352 111.278 69.9352H107.047C105.992 69.9352 105.138 70.7901 105.138 71.8447C105.138 72.8993 105.992 73.7543 107.047 73.7543H111.278Z" fill="#4D4D4D"/>
<path d="M88.9614 84.2175C90.3068 84.9649 92.1006 84.367 92.6986 83.0216L109.292 51.3304C110.039 49.985 109.441 48.1912 108.096 47.4438C106.75 46.6963 104.956 47.2943 104.359 48.6397L87.7655 80.3308C87.0181 81.8257 87.616 83.6196 88.9614 84.2175Z" fill="#8CCA00"/>
<path d="M109.295 84.2175C107.95 84.9649 106.156 84.367 105.558 83.0216L88.8152 51.3304C88.0678 49.985 88.6657 48.1912 90.0111 47.4438C91.3565 46.6963 93.1503 47.2943 93.8978 48.6397L110.491 80.4803C111.238 81.8257 110.64 83.6196 109.295 84.2175Z" fill="#699800"/>
<path fill-rule="evenodd" clip-rule="evenodd" d="M81.4969 65.5016C81.4969 75.2539 89.3989 83.1498 99.1328 83.1512C108.867 83.1526 116.769 75.2591 116.769 65.5068C116.769 55.7545 108.867 47.8587 99.1328 47.8573C89.3989 47.8559 81.4969 55.7493 81.4969 65.5016ZM99.1328 91.0042C85.0434 91.0022 73.6328 79.5776 73.6328 65.5005C73.6328 51.4234 85.0434 40.0022 99.1328 40.0042C113.222 40.0063 124.633 51.4309 124.633 65.508C124.633 79.5851 113.222 91.0063 99.1328 91.0042Z" fill="black"/>
<path d="M11.7408 65.5076C11.7408 55.3515 19.974 47.1167 30.1302 47.1146C40.2863 47.1126 48.5195 55.3441 48.5195 65.5003C48.5195 75.6565 40.2863 83.8913 30.1302 83.8933C19.974 83.8953 11.7408 75.6638 11.7408 65.5076Z" fill="#676767"/>
<path d="M11.6744 65.5076C11.6744 55.3515 19.9076 47.1167 30.0638 47.1146C40.2199 47.1126 48.4531 55.3441 48.4531 65.5003C48.4531 75.6565 40.2199 83.8913 30.0638 83.8933C19.9076 83.8953 11.6744 75.6638 11.6744 65.5076Z" fill="#676767"/>
<path d="M16.8639 57.1625C16.8639 55.176 18.4743 53.5653 20.4608 53.5649C22.4473 53.5645 24.0577 55.1746 24.0577 57.1611C24.0577 59.1476 22.4473 60.7583 20.4608 60.7587C18.4743 60.7591 16.8639 59.1491 16.8639 57.1625Z" fill="#4D4D4D"/>
<path d="M37.1706 55.3405C37.1706 54.335 37.9857 53.5197 38.9912 53.5195C39.9967 53.5193 40.8118 54.3343 40.8118 55.3398C40.8118 56.3452 39.9967 57.1605 38.9912 57.1607C37.9857 57.1609 37.1706 56.346 37.1706 55.3405Z" fill="#4D4D4D"/>
<path d="M29.846 78.3249C29.846 76.922 30.9833 75.7845 32.3862 75.7842C33.7891 75.784 34.9264 76.921 34.9264 78.3239C34.9264 79.7268 33.7891 80.8643 32.3862 80.8646C30.9833 80.8649 29.846 79.7278 29.846 78.3249Z" fill="#4D4D4D"/>
<path d="M40.2377 67.4327C38.1285 67.4327 36.4187 65.7229 36.4187 63.6138C36.4187 61.5046 38.1285 59.7948 40.2377 59.7948H48.6991C50.8083 59.7948 52.5181 61.5046 52.5181 63.6138C52.5181 65.7229 50.8083 67.4327 48.6991 67.4327H40.2377Z" fill="#4D4D4D"/>
<path d="M17.9174 73.7543C16.8627 73.7543 16.0078 72.8993 16.0078 71.8447C16.0078 70.7901 16.8627 69.9352 17.9174 69.9352H22.1482C23.2028 69.9352 24.0577 70.7901 24.0577 71.8447C24.0577 72.8993 23.2028 73.7543 22.1482 73.7543H17.9174Z" fill="#4D4D4D"/>
<path d="M40.2339 84.2175C38.8885 84.9649 37.0947 84.367 36.4968 83.0216L19.9037 51.3304C19.1563 49.985 19.7542 48.1912 21.0996 47.4438C22.445 46.6963 24.2388 47.2943 24.8368 48.6397L41.4298 80.3308C42.1773 81.8257 41.5793 83.6196 40.2339 84.2175Z" fill="#8CCA00"/>
<path d="M19.9004 84.2175C21.2458 84.9649 23.0396 84.367 23.6376 83.0216L40.3801 51.3304C41.1275 49.985 40.5296 48.1912 39.1842 47.4438C37.8388 46.6963 36.045 47.2943 35.2975 48.6397L18.7045 80.4803C17.9571 81.8257 18.555 83.6196 19.9004 84.2175Z" fill="#699800"/>
<path fill-rule="evenodd" clip-rule="evenodd" d="M47.7687 65.5016C47.7687 75.2539 39.8667 83.1498 30.1328 83.1512C20.3989 83.1526 12.4969 75.2591 12.4969 65.5068C12.4969 55.7545 20.3989 47.8587 30.1328 47.8573C39.8667 47.8559 47.7687 55.7493 47.7687 65.5016ZM30.1328 91.0042C44.2222 91.0022 55.6328 79.5776 55.6328 65.5005C55.6328 51.4234 44.2222 40.0022 30.1328 40.0042C16.0434 40.0063 4.63281 51.4309 4.63281 65.508C4.63281 79.5851 16.0434 91.0063 30.1328 91.0042Z" fill="black"/>
</svg>
