<svg width="129" height="129" viewBox="0 0 129 129" fill="none" xmlns="http://www.w3.org/2000/svg">
<path d="M6.49512 64.1913C6.49512 51.4888 16.7926 41.1893 29.4951 41.1867C42.1977 41.1842 52.4951 51.4796 52.4951 64.1821C52.4951 76.8847 42.1977 87.1842 29.4951 87.1867C16.7926 87.1892 6.49512 76.8939 6.49512 64.1913Z" fill="url(#paint0_linear)"/>
<path d="M29.9952 86.3066C42.1482 86.3066 52.0002 76.6249 52.0002 64.6819C52.0002 52.7389 42.1482 43.0571 29.9952 43.0571C17.8422 43.0571 7.99023 52.7389 7.99023 64.6819C7.99023 76.6249 17.8422 86.3066 29.9952 86.3066Z" fill="#F08300"/>
<path d="M29.9948 80.2342C38.5841 80.2342 45.5472 73.2711 45.5472 64.6818C45.5472 56.0924 38.5841 49.1294 29.9948 49.1294C21.4054 49.1294 14.4424 56.0924 14.4424 64.6818C14.4424 73.2711 21.4054 80.2342 29.9948 80.2342Z" fill="#FFFBD6"/>
<path d="M27.7823 56.0242C27.6473 55.1801 27.6135 54.2685 27.4447 53.4244C27.0733 51.7024 25.4863 52.2426 24.2708 52.7153C22.819 53.2893 18.7335 55.6866 19.8815 57.7462C20.4554 58.7929 21.7723 59.4344 22.7852 60.0422C24.0682 60.8188 25.3851 61.4941 26.6006 62.3719C26.9382 62.6421 27.2421 62.9459 27.6135 63.1823C29.8757 64.7017 28.4239 59.4344 28.255 58.6579C28.0862 57.8137 27.9174 56.9021 27.7823 56.0242Z" fill="#F18B2D"/>
<path d="M27.4792 63.993C27.5467 63.7567 27.4117 63.4866 26.9052 63.1827C25.791 62.4736 24.6092 61.7646 23.495 61.0555C22.4483 60.414 21.3341 59.84 20.2874 59.1985C19.7809 58.8946 18.9368 58.1856 18.3291 58.5232C17.2148 59.1647 17.046 61.7646 16.9447 62.8788C16.8434 63.993 16.5733 66.9981 18.3291 66.9305C18.3628 66.9305 18.3628 66.9305 18.3628 66.9305C18.9368 66.728 19.5108 66.5254 20.0848 66.3228C21.3003 65.9176 22.5496 65.58 23.7989 65.2423C24.4067 65.1073 27.2091 64.7696 27.4792 63.993Z" fill="#F18B2D"/>
<path d="M28.3573 65.0395C28.256 65.0057 28.0871 64.9044 27.9183 64.9719C25.0821 65.681 22.1446 66.3563 19.3759 67.3354C18.9032 67.5043 18.4305 67.6731 17.9578 67.8081C17.8565 67.977 17.7215 68.112 17.6202 68.2808C17.3838 68.686 17.5526 69.26 17.6877 69.6652C17.8903 70.2054 18.1266 70.6781 18.4305 71.1508C18.8357 71.7586 19.2071 72.4339 19.646 73.0079C20.22 73.7844 21.1992 75.1013 22.2797 75.0337C23.5965 74.9324 24.2042 72.9403 24.7782 72.0287C25.5886 70.7456 26.3314 69.4288 27.1755 68.1796C27.5469 67.6731 29.539 65.4446 28.3573 65.0395Z" fill="#F18B2D"/>
<path d="M32.0369 76.6883C32.0369 76.6207 32.0369 76.587 32.0706 76.5532C32.0369 76.4857 32.0369 76.4519 32.0031 76.3844C31.9693 76.3168 32.0031 76.2831 32.0369 76.2493C31.2603 72.9404 30.5175 69.6315 29.8084 66.2888C29.7747 66.2551 29.7409 66.2551 29.7071 66.1875C29.5721 65.8499 29.302 65.9174 29.0656 66.12C27.7488 68.1796 26.4995 70.3068 25.1827 72.3664C24.7438 73.0417 24.3048 73.7508 23.8659 74.4598C23.8659 74.4936 23.8659 74.5273 23.8321 74.5611C23.7984 74.6286 23.7308 74.6962 23.6971 74.7299C23.5282 75.3714 23.3594 76.0805 24.1022 76.5194C24.4736 76.722 24.845 76.8908 25.2502 77.0259C25.9255 77.2623 26.6008 77.4986 27.3099 77.6337C28.7617 77.9375 30.4162 78.1401 31.8343 77.5661C32.0369 77.3298 32.1382 77.0597 32.0369 76.6883Z" fill="#F18B2D"/>
<path d="M41.6936 61.3931C42.2001 61.0893 42.3689 60.549 42.3351 60.0088C41.6598 58.2868 40.6807 56.7674 39.3976 55.4506C38.5873 54.7416 37.6419 54.2688 36.3588 54.4039C36.3251 54.4039 36.3251 54.4377 36.2913 54.4377C34.6368 57.3076 32.8473 60.1101 31.024 62.9125C30.5513 63.6891 31.5643 63.6216 32.037 63.5203C34.8732 62.9125 37.7094 62.3048 40.5118 61.7308C40.8833 61.6633 41.2547 61.562 41.6261 61.4944C41.6261 61.4269 41.6598 61.3931 41.6936 61.3931Z" fill="#F18B2D"/>
<path d="M35.5491 54.3701C35.7517 53.5935 35.5828 52.8507 34.5024 52.2767C33.0843 51.7365 31.5649 51.4326 29.9779 51.4326C29.7078 51.4326 29.4715 51.4326 29.2351 51.4664C28.1547 51.5339 27.8846 52.817 27.9521 53.6611C28.0871 55.1805 28.4585 56.6999 28.6949 58.2193C28.965 59.6711 29.2351 61.123 29.539 62.5749C29.8091 63.993 31.1935 61.697 31.4298 61.3256C32.409 59.7049 33.4219 58.118 34.4011 56.531C34.84 55.8558 35.3803 55.0792 35.5491 54.3701Z" fill="#F18B2D"/>
<path d="M42.2344 69.8004C42.5383 69.0575 42.7747 68.3147 42.9435 67.5044C43.2474 65.6136 43.1798 63.4527 42.6396 62.3384C42.4033 62.1021 42.0656 61.9333 41.6267 61.8995C41.5929 61.8995 41.5591 61.8995 41.5591 61.8657C41.2553 61.9333 40.9514 62.0008 40.6475 62.0683C37.8113 62.6761 34.9751 63.2501 32.1726 63.8578C32.1051 63.8578 32.0376 63.8916 31.9701 63.8916C31.9363 63.8916 31.9363 63.9254 31.9025 63.9254C31.835 63.9254 31.7675 63.9591 31.6999 63.9591C31.4298 63.9929 30.8221 64.2292 30.7545 64.5331C30.6532 65.0058 31.3961 65.2759 31.6999 65.4785C34.1647 66.8629 36.5958 68.3147 38.9593 69.8679C39.4658 70.2055 39.9722 70.5094 40.4787 70.8471C41.1877 71.0834 41.7955 70.6107 42.2344 69.8004Z" fill="#F18B2D"/>
<path d="M33.32 77.1945C34.2654 77.262 35.2108 76.8569 36.0887 76.3504C36.19 76.2829 36.2913 76.2153 36.3926 76.1478C36.4264 76.114 36.4601 76.114 36.4601 76.114C36.8653 75.8777 37.2367 75.6076 37.6081 75.3375C38.7223 74.5609 39.634 73.5142 40.5456 72.5012C40.5456 72.0961 40.3768 71.6909 39.9716 71.3195C39.9379 71.2857 39.9379 71.2857 39.9379 71.252C39.3301 70.8806 38.7223 70.4754 38.1146 70.0702C35.8524 68.5508 33.4889 67.2678 31.1253 65.9172C31.024 65.8497 30.889 65.7821 30.7877 65.7146C30.4163 65.6133 30.2812 66.1535 30.3488 66.4912C30.3488 66.5249 30.3488 66.5587 30.3488 66.5587C31.0578 69.9014 31.8344 73.2441 32.611 76.5867C32.7798 76.9244 33.0161 77.127 33.32 77.1945C33.2863 77.1945 33.2863 77.1945 33.32 77.1945Z" fill="#F18B2D"/>
<path fill-rule="evenodd" clip-rule="evenodd" d="M49.4085 64.6835C49.4085 75.4039 40.7175 84.0974 29.9951 84.0996C19.2727 84.1017 10.5817 75.4117 10.5817 64.6913C10.5817 53.9709 19.2727 45.2774 29.9951 45.2753C40.7175 45.2731 49.4085 53.9632 49.4085 64.6835ZM29.9951 91.1874C44.63 91.1845 56.4951 79.3183 56.4951 64.6821C56.4951 50.0459 44.63 38.1845 29.9951 38.1874C15.3602 38.1903 3.49512 50.0565 3.49512 64.6927C3.49512 79.3289 15.3602 91.1903 29.9951 91.1874Z" fill="black"/>
<path d="M121.495 64.1913C121.495 51.4888 111.198 41.1893 98.4951 41.1867C85.7926 41.1842 75.4951 51.4796 75.4951 64.1821C75.4951 76.8847 85.7926 87.1842 98.4951 87.1867C111.198 87.1892 121.495 76.8939 121.495 64.1913Z" fill="url(#paint1_linear)"/>
<path d="M97.995 86.3066C85.842 86.3066 75.9901 76.6249 75.9901 64.6819C75.9901 52.7389 85.842 43.0571 97.995 43.0571C110.148 43.0571 120 52.7389 120 64.6819C120 76.6249 110.148 86.3066 97.995 86.3066Z" fill="#F08300"/>
<path d="M97.9955 80.2342C89.4061 80.2342 82.4431 73.2711 82.4431 64.6818C82.4431 56.0924 89.4061 49.1294 97.9955 49.1294C106.585 49.1294 113.548 56.0924 113.548 64.6818C113.548 73.2711 106.585 80.2342 97.9955 80.2342Z" fill="#FFFBD6"/>
<path d="M100.208 56.0242C100.343 55.1801 100.377 54.2685 100.546 53.4244C100.917 51.7024 102.504 52.2426 103.719 52.7153C105.171 53.2893 109.257 55.6866 108.109 57.7462C107.535 58.7929 106.218 59.4344 105.205 60.0422C103.922 60.8188 102.605 61.4941 101.39 62.3719C101.052 62.6421 100.748 62.9459 100.377 63.1823C98.1145 64.7017 99.5664 59.4344 99.7352 58.6579C99.904 57.8137 100.073 56.9021 100.208 56.0242Z" fill="#F18B2D"/>
<path d="M100.511 63.993C100.443 63.7567 100.579 63.4866 101.085 63.1827C102.199 62.4736 103.381 61.7646 104.495 61.0555C105.542 60.414 106.656 59.84 107.703 59.1985C108.209 58.8946 109.053 58.1856 109.661 58.5232C110.775 59.1647 110.944 61.7646 111.046 62.8788C111.147 63.993 111.417 66.9981 109.661 66.9305C109.627 66.9305 109.627 66.9305 109.627 66.9305C109.053 66.728 108.479 66.5254 107.905 66.3228C106.69 65.9176 105.441 65.58 104.191 65.2423C103.584 65.1073 100.781 64.7696 100.511 63.993Z" fill="#F18B2D"/>
<path d="M99.633 65.0395C99.7343 65.0057 99.9031 64.9044 100.072 64.9719C102.908 65.681 105.846 66.3563 108.614 67.3354C109.087 67.5043 109.56 67.6731 110.032 67.8081C110.134 67.977 110.269 68.112 110.37 68.2808C110.606 68.686 110.438 69.26 110.303 69.6652C110.1 70.2054 109.864 70.6781 109.56 71.1508C109.155 71.7586 108.783 72.4339 108.344 73.0079C107.77 73.7844 106.791 75.1013 105.711 75.0337C104.394 74.9324 103.786 72.9403 103.212 72.0287C102.402 70.7456 101.659 69.4288 100.815 68.1796C100.443 67.6731 98.4512 65.4446 99.633 65.0395Z" fill="#F18B2D"/>
<path d="M95.9534 76.6883C95.9534 76.6207 95.9534 76.587 95.9196 76.5532C95.9534 76.4857 95.9534 76.4519 95.9871 76.3844C96.0209 76.3168 95.9871 76.2831 95.9534 76.2493C96.7299 72.9404 97.4728 69.6315 98.1818 66.2888C98.2156 66.2551 98.2493 66.2551 98.2831 66.1875C98.4182 65.8499 98.6883 65.9174 98.9246 66.12C100.241 68.1796 101.491 70.3068 102.808 72.3664C103.246 73.0417 103.685 73.7508 104.124 74.4598C104.124 74.4936 104.124 74.5273 104.158 74.5611C104.192 74.6286 104.259 74.6962 104.293 74.7299C104.462 75.3714 104.631 76.0805 103.888 76.5194C103.517 76.722 103.145 76.8908 102.74 77.0259C102.065 77.2623 101.389 77.4986 100.68 77.6337C99.2285 77.9375 97.5741 78.1401 96.156 77.5661C95.9534 77.3298 95.8521 77.0597 95.9534 76.6883Z" fill="#F18B2D"/>
<path d="M86.2966 61.3931C85.7902 61.0893 85.6213 60.549 85.6551 60.0088C86.3304 58.2868 87.3096 56.7674 88.5926 55.4506C89.403 54.7416 90.3484 54.2688 91.6314 54.4039C91.6652 54.4039 91.6652 54.4377 91.6989 54.4377C93.3534 57.3076 95.1429 60.1101 96.9662 62.9125C97.4389 63.6891 96.426 63.6216 95.9533 63.5203C93.117 62.9125 90.2808 62.3048 87.4784 61.7308C87.107 61.6633 86.7356 61.562 86.3642 61.4944C86.3642 61.4269 86.3304 61.3931 86.2966 61.3931Z" fill="#F18B2D"/>
<path d="M92.4412 54.3701C92.2386 53.5935 92.4074 52.8507 93.4879 52.2767C94.906 51.7365 96.4254 51.4326 98.0123 51.4326C98.2824 51.4326 98.5188 51.4326 98.7551 51.4664C99.8356 51.5339 100.106 52.817 100.038 53.6611C99.9031 55.1805 99.5317 56.6999 99.2953 58.2193C99.0252 59.6711 98.7551 61.123 98.4512 62.5749C98.1811 63.993 96.7968 61.697 96.5604 61.3256C95.5812 59.7049 94.5683 58.118 93.5891 56.531C93.1502 55.8558 92.61 55.0792 92.4412 54.3701Z" fill="#F18B2D"/>
<path d="M85.7558 69.8004C85.4519 69.0575 85.2156 68.3147 85.0467 67.5044C84.7429 65.6136 84.8104 63.4527 85.3506 62.3384C85.587 62.1021 85.9246 61.9333 86.3636 61.8995C86.3973 61.8995 86.4311 61.8995 86.4311 61.8657C86.735 61.9333 87.0388 62.0008 87.3427 62.0683C90.1789 62.6761 93.0151 63.2501 95.8176 63.8578C95.8851 63.8578 95.9527 63.8916 96.0202 63.8916C96.0539 63.8916 96.0539 63.9254 96.0877 63.9254C96.1552 63.9254 96.2228 63.9591 96.2903 63.9591C96.5604 63.9929 97.1682 64.2292 97.2357 64.5331C97.337 65.0058 96.5942 65.2759 96.2903 65.4785C93.8255 66.8629 91.3945 68.3147 89.0309 69.8679C88.5245 70.2055 88.018 70.5094 87.5115 70.8471C86.8025 71.0834 86.1947 70.6107 85.7558 69.8004Z" fill="#F18B2D"/>
<path d="M94.6702 77.1945C93.7248 77.262 92.7794 76.8569 91.9015 76.3504C91.8002 76.2829 91.6989 76.2153 91.5976 76.1478C91.5639 76.114 91.5301 76.114 91.5301 76.114C91.1249 75.8777 90.7535 75.6076 90.3821 75.3375C89.2679 74.5609 88.3563 73.5142 87.4446 72.5012C87.4446 72.0961 87.6134 71.6909 88.0186 71.3195C88.0524 71.2857 88.0524 71.2857 88.0524 71.252C88.6601 70.8806 89.2679 70.4754 89.8757 70.0702C92.1379 68.5508 94.5014 67.2678 96.8649 65.9172C96.9662 65.8497 97.1012 65.7821 97.2025 65.7146C97.5739 65.6133 97.709 66.1535 97.6415 66.4912C97.6415 66.5249 97.6415 66.5587 97.6415 66.5587C96.9324 69.9014 96.1558 73.2441 95.3793 76.5867C95.2104 76.9244 94.9741 77.127 94.6702 77.1945C94.704 77.1945 94.704 77.1945 94.6702 77.1945Z" fill="#F18B2D"/>
<path fill-rule="evenodd" clip-rule="evenodd" d="M117.408 64.6835C117.408 75.4039 108.717 84.0974 97.9951 84.0996C87.2727 84.1017 78.5817 75.4117 78.5817 64.6913C78.5817 53.9709 87.2727 45.2774 97.9951 45.2753C108.717 45.2731 117.408 53.9632 117.408 64.6835ZM97.9951 91.1874C112.63 91.1845 124.495 79.3183 124.495 64.6821C124.495 50.0459 112.63 38.1845 97.9951 38.1874C83.3602 38.1903 71.4951 50.0565 71.4951 64.6927C71.4951 79.3289 83.3602 91.1903 97.9951 91.1874Z" fill="black"/>
<defs>
<linearGradient id="paint0_linear" x1="49.7834" y1="55.3842" x2="11.9522" y2="73.8813" gradientUnits="userSpaceOnUse">
<stop stop-color="#F2D254"/>
<stop offset="0.526042" stop-color="#C2368C"/>
<stop offset="1" stop-color="#693E8E"/>
</linearGradient>
<linearGradient id="paint1_linear" x1="78.2068" y1="55.3842" x2="116.038" y2="73.8813" gradientUnits="userSpaceOnUse">
<stop stop-color="#F2D254"/>
<stop offset="0.526042" stop-color="#C2368C"/>
<stop offset="1" stop-color="#693E8E"/>
</linearGradient>
</defs>
</svg>
