<svg width="129" height="129" viewBox="0 0 129 129" fill="none" xmlns="http://www.w3.org/2000/svg">
<path d="M33.5802 47.501C33.5802 64.5769 47.423 78.4192 64.4989 78.4186C81.5749 78.418 95.4177 64.5748 95.4177 47.4988C95.4177 30.4229 81.5749 16.5806 64.4989 16.5812C47.423 16.5818 33.5802 30.425 33.5802 47.501Z" fill="#E3E3E3"/>
<path fill-rule="evenodd" clip-rule="evenodd" d="M91.8375 47.499C91.8375 32.4003 79.5976 20.1608 64.4988 20.1613C49.4001 20.1619 37.1602 32.4022 37.1602 47.501C37.1602 62.5997 49.4001 74.8392 64.4988 74.8387C79.5976 74.8381 91.8375 62.5978 91.8375 47.499ZM64.4988 13.0012C83.552 13.0005 98.9976 28.4456 98.9976 47.4988C98.9976 66.552 83.552 81.9981 64.4988 81.9988C45.4457 81.9995 30 66.5544 30 47.5012C30 28.448 45.4457 13.0019 64.4988 13.0012Z" fill="black"/>
<path d="M26 72.5027C26 93.7657 43.237 111.002 64.5 111.001C85.763 111.001 103 93.763 103 72.5C103 51.237 85.763 34.0006 64.5 34.0013C43.237 34.0021 26 51.2397 26 72.5027Z" fill="#E3E3E3"/>
<path d="M24.215 103.497C24.215 110.28 29.7151 115.78 36.4997 115.782C43.2843 115.783 48.7844 110.285 48.7844 103.502C48.7844 96.7187 43.2843 91.2186 36.4997 91.2173C29.7151 91.2159 24.215 96.7138 24.215 103.497Z" fill="#EEEEEE"/>
<path fill-rule="evenodd" clip-rule="evenodd" d="M36.4999 89.0029C44.508 89.0045 50.9999 95.4964 50.9999 103.503C50.9999 111.509 44.508 117.999 36.4999 117.997C28.4918 117.995 22 111.503 22 103.497C22 95.4905 28.4918 89.0013 36.4999 89.0029ZM46.5693 103.502C46.5693 97.9419 42.0611 93.4337 36.4999 93.4326C30.9388 93.4314 26.4305 97.9378 26.4305 103.498C26.4305 109.058 30.9388 113.566 36.4999 113.567C42.0611 113.568 46.5693 109.062 46.5693 103.502Z" fill="black"/>
<path d="M81.215 103.497C81.215 110.28 86.7151 115.78 93.4997 115.782C100.284 115.783 105.784 110.285 105.784 103.502C105.784 96.7187 100.284 91.2186 93.4997 91.2173C86.7151 91.2159 81.215 96.7138 81.215 103.497Z" fill="#EEEEEE"/>
<path fill-rule="evenodd" clip-rule="evenodd" d="M93.4999 89.0029C101.508 89.0045 108 95.4964 108 103.503C108 111.509 101.508 117.999 93.4999 117.997C85.4918 117.995 79 111.503 79 103.497C79 95.4905 85.4918 89.0013 93.4999 89.0029ZM103.569 103.502C103.569 97.9419 99.0611 93.4337 93.4999 93.4326C87.9388 93.4314 83.4305 97.9378 83.4305 103.498C83.4305 109.058 87.9388 113.566 93.4999 113.567C99.0611 113.568 103.569 109.062 103.569 103.502Z" fill="black"/>
</svg>
