<svg width="257" height="257" viewBox="0 0 257 257" fill="none" xmlns="http://www.w3.org/2000/svg">
<mask id="mask0_2067_11424" style="mask-type:alpha" maskUnits="userSpaceOnUse" x="0" y="0" width="257" height="257">
<rect x="0.166016" y="0.313477" width="256" height="256" fill="#BBBBBB"/>
</mask>
<g mask="url(#mask0_2067_11424)">
<path d="M158.592 13.4901L159.382 241.09L159.395 243.29C167.575 243.304 175.877 238.822 182.217 233.292C188.483 227.851 192.195 223.805 197.888 217.506C203.521 211.254 209.827 205.798 216.563 204.858C219.628 204.423 222.801 204.981 225.294 207.365C229.782 211.635 230.545 220.134 231.382 228.062L239.167 227.258V65.9855L230.068 65.393C228.958 71.1002 226.595 77.9856 223.605 81.9016C220.581 85.8449 216.256 87.9766 212.204 86.4579C207.375 84.6531 203.848 78.1899 201.832 71.4203C199.809 64.6302 198.924 57.2817 197.044 50.3554C194.163 39.7446 188.844 30.2644 182.074 23.6718C175.203 17.018 166.86 13.3607 158.592 13.4901Z" fill="url(#paint0_linear_2067_11424)"/>
<path d="M166.393 225.712C175.416 222.545 182.568 213.412 189.8 205.049C190.829 203.85 191.864 202.679 192.919 201.542C197.523 196.475 202.284 192.15 207.644 190.202C212.69 188.377 218.963 187.614 223.751 188.84L223.846 184.304L223.928 180.422L224.221 166.12L224.275 163.716L224.595 148.045L224.677 144.19L224.888 133.471L224.942 131.169L225.222 117.411L225.303 113.543L225.46 105.568C219.092 105.418 212.547 108.149 206.881 103.273C204.347 101.08 202.168 98.1853 200.254 94.8822C199.498 93.6087 198.797 92.2466 198.136 90.8708C196.87 88.2556 195.725 85.4565 194.67 82.6506C194.05 80.982 193.451 79.3066 192.858 77.6108C192.545 76.7186 192.232 75.8128 191.918 74.9002C190.652 71.2294 189.378 67.5517 187.948 63.9762C187.417 62.6754 186.872 61.395 186.279 60.1282C185.993 59.454 185.673 58.7798 185.346 58.1191C181.546 50.3824 176.084 43.497 169.512 41.6445L169.233 58.521L169.185 61.1566L169.021 70.5619L168.96 74.4439L168.708 89.2159L168.66 91.7494L168.436 104.553L168.408 107.046L168.082 125.959L168.02 129.977L167.721 147.446L167.673 149.904L167.523 158.404L167.462 162.463L167.135 181.199L167.108 183.637L166.822 200.234L166.774 202.781L166.393 225.712Z" fill="#7D2A00"/>
<path d="M167.674 221.258C172.366 219.658 176.527 216.396 180.457 212.48C183.76 209.217 186.907 205.472 190.067 201.889C191.047 200.759 192.049 199.649 193.057 198.607C196.067 195.338 199.152 192.409 202.448 190.305C203.981 189.324 205.547 188.507 207.175 187.948C212.017 186.225 218.031 185.53 222.628 186.681L222.723 182.418L222.805 178.747L223.084 165.276L223.139 163.008L223.445 148.27L223.513 144.627L223.724 134.527L223.779 132.361L224.044 119.407L224.126 115.771L224.276 108.259C218.167 108.129 211.881 110.71 206.439 106.127C206.262 105.963 206.078 105.82 205.901 105.636C203.708 103.655 201.794 101.135 200.085 98.2471C199.356 97.0552 198.696 95.7817 198.069 94.4877C196.843 92.0155 195.76 89.3866 194.746 86.7509C194.153 85.1845 193.567 83.6181 193.002 82.0313C192.702 81.1868 192.403 80.3355 192.11 79.491C190.898 76.0312 189.672 72.5851 188.316 69.2275C187.799 67.9948 187.281 66.7962 186.709 65.618C186.437 64.9642 186.137 64.3376 185.817 63.7246C183.842 59.7882 181.411 56.1105 178.598 53.2705C176.214 50.8664 173.565 49.0889 170.67 48.3057L170.405 64.1673L170.357 66.6327L170.207 75.4728L170.146 79.1232L169.908 93.0098L169.86 95.4003L169.635 107.448L169.608 109.798L169.295 127.566L169.233 131.326L168.954 147.753L168.907 150.061L168.77 158.03L168.709 161.857L168.396 179.469L168.368 181.757L168.103 197.36L168.055 199.737L167.674 221.258Z" fill="#C26E29"/>
<path d="M178.584 53.2705L180.464 212.486C183.767 209.224 186.913 205.478 190.073 201.896C191.054 200.766 192.055 199.655 193.063 198.613C196.073 195.344 199.159 192.416 202.455 190.311L205.894 105.643C203.701 103.661 201.787 101.142 200.078 98.2539C199.349 97.062 198.689 95.7885 198.062 94.4945C196.836 92.0223 195.753 89.3934 194.739 86.7577C194.146 85.1913 193.56 83.6249 192.995 82.0381C192.695 81.1936 192.396 80.3423 192.103 79.4977C190.891 76.038 189.665 72.5919 188.309 69.2343C187.792 68.0016 187.274 66.803 186.702 65.6248C186.43 64.971 186.13 64.3444 185.81 63.7314C183.821 59.7813 181.39 56.1037 178.584 53.2705Z" fill="#A65F25"/>
<path d="M169.181 61.164L187.943 63.9835C187.412 62.6827 186.867 61.4023 186.275 60.1356L169.228 58.5283L169.181 61.164ZM168.963 74.4581L192.854 77.6182C192.541 76.726 192.227 75.8202 191.914 74.9076L169.024 70.5693L168.963 74.4581ZM168.663 91.7636L200.25 94.8828C199.494 93.6092 198.793 92.2471 198.132 90.8714L168.711 89.2233L168.663 91.7636ZM168.411 107.067L225.217 117.426L225.299 113.557L168.445 104.574L168.411 107.067ZM168.023 129.991L224.884 133.485L224.938 131.183L168.084 125.98L168.023 129.991ZM167.682 149.918L224.591 148.059L224.672 144.204L167.73 147.46L167.682 149.918ZM167.471 162.477L224.216 166.127L224.271 163.723L167.532 158.411L167.471 162.477ZM167.11 183.651L223.842 184.312L223.923 180.43L167.144 181.213L167.11 183.651ZM166.783 202.795L189.803 205.043C190.831 203.844 191.866 202.673 192.922 201.535L166.831 200.248L166.783 202.795Z" fill="#7D2A00"/>
<path d="M159.455 13.497L161.001 243.236L156.69 243.283L155.873 13.4834L159.455 13.497Z" fill="#7D2A00"/>
<path d="M159.381 241.083L159.394 243.283C167.574 243.297 175.876 238.815 182.216 233.285C188.482 227.844 192.194 223.798 197.887 217.499C203.52 211.247 209.826 205.791 216.562 204.851C219.627 204.416 222.8 204.974 225.293 207.358C229.781 211.628 230.544 220.127 231.382 228.055L239.166 227.251V224.384C236.966 224.704 234.753 224.983 232.519 225.263C232.165 216.906 230.455 208.189 225.729 203.823C222.541 200.874 218.421 200.431 214.539 201.453C204.562 204.021 196.301 214.992 187.352 223.444C178.92 231.406 169.406 237.419 159.381 241.083Z" fill="#7D2A00"/>
<path d="M163.016 196.128C163.016 196.128 162.519 182.5 162.832 165.664C163.145 148.842 164.153 135.242 164.153 135.242C164.153 135.242 164.651 148.87 164.33 165.671C164.024 182.479 163.016 196.128 163.016 196.128Z" fill="#7A250B"/>
<path d="M212.939 195.903C212.939 195.903 211.617 196.414 209.533 197.415C207.429 198.402 204.596 199.989 201.538 202.08C198.473 204.205 195.769 206.452 193.849 208.25C191.921 210.048 190.736 211.267 190.736 211.267C190.736 211.267 191.676 209.687 193.44 207.453C195.184 205.226 197.799 202.461 200.993 200.268C204.153 198.096 207.211 196.958 209.397 196.448C211.583 195.916 212.939 195.903 212.939 195.903Z" fill="#7A250B"/>
<path d="M203.864 89.9857C203.864 89.9857 203.264 89.1412 202.236 87.5271C201.235 85.8722 199.859 83.3591 198.415 79.9607C196.965 76.5759 195.487 72.3465 193.886 67.6473C192.286 62.9344 190.535 57.7516 188.172 52.7936C185.816 47.7879 182.928 43.6811 179.87 40.6913C176.805 37.6606 173.7 35.6447 170.983 34.4257C168.252 33.1589 165.936 32.6685 164.349 32.437C163.539 32.3008 162.919 32.2803 162.497 32.2463C162.074 32.2054 161.85 32.2054 161.85 32.2054C161.85 32.2054 162.074 32.185 162.497 32.1578C162.919 32.1373 163.552 32.0692 164.363 32.1237C165.963 32.1509 168.326 32.3893 171.16 33.4449C173.979 34.4529 177.269 36.2781 180.524 39.2884C183.773 42.2373 186.912 46.5279 189.35 51.7175C191.789 56.8867 193.478 62.2193 194.962 67.0003C196.447 71.7676 197.741 76.0446 199.015 79.4976C200.274 82.9437 201.487 85.5793 202.379 87.3501C203.339 89.0391 203.864 89.9857 203.864 89.9857Z" fill="#7A250B"/>
<path d="M97.7441 13.4901L96.9541 241.09L96.9405 243.29C88.7611 243.304 80.4591 238.822 74.1185 233.292C67.8528 227.851 64.1411 223.805 58.4475 217.506C52.8152 211.254 46.5087 205.798 39.7731 204.858C36.7084 204.423 33.5347 204.981 31.0421 207.365C26.5539 211.635 25.7912 220.134 24.9535 228.062L17.1691 227.258V65.9855L26.2679 65.393C27.378 71.1002 29.7412 77.9856 32.7311 81.9016C35.7549 85.8449 40.0796 87.9766 44.1319 86.4579C48.9605 84.6531 52.4883 78.1899 54.5043 71.4203C56.527 64.6302 57.4123 57.2817 59.292 50.3554C62.1729 39.7446 67.4919 30.2644 74.2615 23.6718C81.1333 17.018 89.4762 13.3607 97.7441 13.4901Z" fill="url(#paint1_linear_2067_11424)"/>
<path d="M89.9434 225.712C80.9194 222.545 73.7684 213.412 66.5357 205.049C65.5073 203.85 64.4721 202.679 63.4165 201.542C58.8126 196.475 54.052 192.15 48.6922 190.202C43.6456 188.377 37.3731 187.614 32.5853 188.84L32.49 184.304L32.4082 180.422L32.1154 166.12L32.0609 163.716L31.7408 148.045L31.6591 144.19L31.448 133.471L31.3935 131.169L31.1142 117.411L31.0325 113.543L30.8759 105.568C37.2437 105.418 43.7886 108.149 49.4549 103.273C51.9885 101.08 54.1678 98.1853 56.0816 94.8822C56.8375 93.6087 57.539 92.2466 58.1996 90.8708C59.4664 88.2556 60.6105 85.4565 61.6662 82.6506C62.2859 80.982 62.8852 79.3066 63.4778 77.6108C63.791 76.7186 64.1043 75.8128 64.4176 74.9002C65.6844 71.2294 66.9579 67.5517 68.3881 63.9762C68.9194 62.6754 69.4642 61.395 70.0567 60.1282C70.3428 59.454 70.6629 58.7798 70.9898 58.1191C74.79 50.3824 80.252 43.497 86.8242 41.6445L87.1034 58.521L87.1511 61.1566L87.3145 70.5619L87.3758 74.4439L87.6278 89.2159L87.6755 91.7494L87.9002 104.553L87.9275 107.046L88.2544 125.959L88.3157 129.977L88.6153 147.446L88.663 149.904L88.8128 158.404L88.8741 162.463L89.201 181.199L89.2283 183.637L89.5143 200.234L89.562 202.781L89.9434 225.712Z" fill="#7D2A00"/>
<path d="M88.6621 221.258C83.9697 219.658 79.8085 216.396 75.8788 212.48C72.5757 209.217 69.4293 205.472 66.2692 201.889C65.2885 200.759 64.2873 199.649 63.2794 198.607C60.2692 195.338 57.184 192.409 53.8877 190.305C52.3553 189.324 50.7889 188.507 49.1612 187.948C44.3189 186.225 38.3053 185.53 33.7082 186.681L33.6129 182.418L33.5311 178.747L33.2519 165.276L33.1974 163.008L32.8909 148.27L32.8228 144.627L32.6117 134.527L32.5572 132.361L32.2916 119.407L32.2099 115.771L32.06 108.259C38.1691 108.129 44.4552 110.71 49.8967 106.127C50.0738 105.963 50.2577 105.82 50.4348 105.636C52.6278 103.655 54.5415 101.135 56.2509 98.2471C56.9797 97.0552 57.6403 95.7817 58.2669 94.4877C59.4928 92.0155 60.5756 89.3866 61.5904 86.7509C62.1829 85.1845 62.7686 83.6181 63.3339 82.0313C63.6336 81.1868 63.9332 80.3355 64.2261 79.491C65.4383 76.0312 66.6642 72.5851 68.0195 69.2275C68.5371 67.9948 69.0547 66.7962 69.6268 65.618C69.8992 64.9642 70.1989 64.3376 70.519 63.7246C72.494 59.7882 74.9253 56.1105 77.7381 53.2705C80.1218 50.8664 82.771 49.0889 85.6655 48.3057L85.9311 64.1673L85.9788 66.6327L86.1286 75.4728L86.1899 79.1232L86.4283 93.0098L86.476 95.4003L86.7007 107.448L86.7279 109.798L87.0412 127.566L87.1025 131.326L87.3818 147.753L87.4294 150.061L87.5656 158.03L87.6269 161.857L87.9402 179.469L87.9675 181.757L88.2331 197.36L88.2807 199.737L88.6621 221.258Z" fill="#C26E29"/>
<path d="M77.752 53.2705L75.8722 212.486C72.5692 209.224 69.4227 205.478 66.2626 201.896C65.2819 200.766 64.2808 199.655 63.2728 198.613C60.2626 195.344 57.1774 192.416 53.8811 190.311L50.4418 105.643C52.6348 103.661 54.5486 101.142 56.258 98.2539C56.9867 97.062 57.6473 95.7885 58.2739 94.4945C59.4998 92.0223 60.5827 89.3934 61.5974 86.7577C62.1899 85.1913 62.7756 83.6249 63.3409 82.0381C63.6406 81.1936 63.9402 80.3423 64.2331 79.4977C65.4453 76.038 66.6712 72.5919 68.0265 69.2343C68.5441 68.0016 69.0618 66.803 69.6338 65.6248C69.9063 64.971 70.2059 64.3444 70.526 63.7314C72.5147 59.7813 74.946 56.1037 77.752 53.2705Z" fill="#A65F25"/>
<path d="M87.1554 61.164L68.3925 63.9835C68.9237 62.6827 69.4685 61.4023 70.061 60.1356L87.1077 58.5283L87.1554 61.164ZM87.3734 74.4581L63.4821 77.6182C63.7954 76.726 64.1087 75.8202 64.422 74.9076L87.3121 70.5693L87.3734 74.4581ZM87.673 91.7636L56.0859 94.8828C56.8419 93.6092 57.5434 92.2471 58.204 90.8714L87.6254 89.2233L87.673 91.7636ZM87.925 107.067L31.1186 117.426L31.0369 113.557L87.891 104.574L87.925 107.067ZM88.3132 129.991L31.4523 133.485L31.3978 131.183L88.2519 125.98L88.3132 129.991ZM88.6537 149.918L31.7452 148.059L31.6635 144.204L88.6061 147.46L88.6537 149.918ZM88.8649 162.477L32.1198 166.127L32.0653 163.723L88.8036 158.411L88.8649 162.477ZM89.2258 183.651L32.4943 184.312L32.4126 180.43L89.1918 181.213L89.2258 183.651ZM89.5527 202.795L66.5332 205.043C65.5048 203.844 64.4696 202.673 63.414 201.535L89.5051 200.248L89.5527 202.795Z" fill="#7D2A00"/>
<path d="M96.8806 13.497L95.3346 243.236L99.6456 243.283L100.463 13.4834L96.8806 13.497Z" fill="#7D2A00"/>
<path d="M96.9551 241.083L96.9414 243.283C88.762 243.297 80.46 238.815 74.1194 233.285C67.8538 227.844 64.142 223.798 58.4485 217.499C52.8162 211.247 46.5097 205.791 39.7741 204.851C36.7094 204.416 33.5357 204.974 31.043 207.358C26.5549 211.628 25.7921 220.127 24.9544 228.055L17.17 227.251V224.384C19.3698 224.704 21.5832 224.983 23.8171 225.263C24.1712 216.906 25.8806 208.189 30.6071 203.823C33.7944 200.874 37.9148 200.431 41.7968 201.453C51.7742 204.021 60.0353 214.992 68.9843 223.444C77.4157 231.406 86.93 237.419 96.9551 241.083Z" fill="#7D2A00"/>
<path d="M93.3199 196.128C93.3199 196.128 93.8171 182.5 93.5038 165.664C93.1905 148.842 92.1826 135.242 92.1826 135.242C92.1826 135.242 91.6854 148.87 92.0055 165.671C92.312 182.479 93.3199 196.128 93.3199 196.128Z" fill="#7A250B"/>
<path d="M43.3974 195.903C43.3974 195.903 44.7186 196.414 46.8026 197.415C48.9071 198.402 51.7402 199.989 54.7982 202.08C57.8629 204.205 60.5666 206.452 62.4872 208.25C64.4146 210.048 65.5996 211.267 65.5996 211.267C65.5996 211.267 64.6598 209.687 62.8959 207.453C61.1524 205.226 58.5371 202.461 55.343 200.268C52.1829 198.096 49.125 196.958 46.9389 196.448C44.7527 195.916 43.3974 195.903 43.3974 195.903Z" fill="#7A250B"/>
<path d="M52.4723 89.9857C52.4723 89.9857 53.0716 89.1412 54.1 87.5271C55.1012 85.8722 56.4769 83.3591 57.9207 79.9607C59.3714 76.5759 60.8492 72.3465 62.4497 67.6473C64.0502 62.9344 65.8005 57.7516 68.1637 52.7936C70.5202 47.7879 73.4078 43.6811 76.4657 40.6913C79.5304 37.6606 82.636 35.6447 85.3534 34.4257C88.0844 33.1589 90.4 32.6685 91.9868 32.437C92.7973 32.3008 93.4171 32.2803 93.8393 32.2463C94.2616 32.2054 94.4863 32.2054 94.4863 32.2054C94.4863 32.2054 94.2616 32.185 93.8393 32.1578C93.4171 32.1373 92.7837 32.0692 91.9733 32.1237C90.3728 32.1509 88.0095 32.3893 85.1763 33.4449C82.3568 34.4529 79.0673 36.2781 75.8119 39.2884C72.5633 42.2373 69.4237 46.5279 66.9855 51.7175C64.5474 56.8867 62.8584 62.2193 61.3737 67.0003C59.889 71.7676 58.595 76.0446 57.3214 79.4976C56.0615 82.9437 54.8492 85.5793 53.957 87.3501C52.9967 89.0391 52.4723 89.9857 52.4723 89.9857Z" fill="#7A250B"/>
</g>
<defs>
<linearGradient id="paint0_linear_2067_11424" x1="218.069" y1="291.562" x2="194.801" y2="121.963" gradientUnits="userSpaceOnUse">
<stop stop-color="#7D2A00"/>
<stop offset="1" stop-color="#A14B1B"/>
</linearGradient>
<linearGradient id="paint1_linear_2067_11424" x1="38.2671" y1="291.562" x2="61.535" y2="121.963" gradientUnits="userSpaceOnUse">
<stop stop-color="#7D2A00"/>
<stop offset="1" stop-color="#A14B1B"/>
</linearGradient>
</defs>
</svg>
