<svg width="129" height="129" viewBox="0 0 129 129" fill="none" xmlns="http://www.w3.org/2000/svg">
<path d="M33.5803 47.501C33.5803 64.5769 47.423 78.4192 64.499 78.4186C81.5749 78.418 95.4177 64.5748 95.4177 47.4988C95.4177 30.4229 81.5749 16.5806 64.499 16.5812C47.423 16.5818 33.5803 30.425 33.5803 47.501Z" fill="#628AC9"/>
<path fill-rule="evenodd" clip-rule="evenodd" d="M91.8374 47.499C91.8374 32.4003 79.5975 20.1608 64.4988 20.1613C49.4 20.1619 37.1601 32.4022 37.1601 47.501C37.1601 62.5997 49.4 74.8392 64.4988 74.8387C79.5975 74.8381 91.8374 62.5978 91.8374 47.499ZM64.4988 13.0012C83.5519 13.0005 98.9976 28.4456 98.9976 47.4988C98.9976 66.552 83.5519 81.9981 64.4988 81.9988C45.4456 81.9995 30 66.5544 30 47.5012C30 28.448 45.4456 13.0019 64.4988 13.0012Z" fill="#628AC9"/>
<path d="M26 72.5027C26 93.7657 43.237 111.002 64.5 111.001C85.763 111.001 103 93.763 103 72.5C103 51.237 85.763 34.0006 64.5 34.0013C43.237 34.0021 26 51.2397 26 72.5027Z" fill="url(#paint0_linear)"/>
<path d="M24.215 103.497C24.215 110.28 29.715 115.78 36.4996 115.782C43.2843 115.783 48.7843 110.285 48.7843 103.502C48.7843 96.7187 43.2843 91.2186 36.4996 91.2173C29.715 91.2159 24.215 96.7138 24.215 103.497Z" fill="#BE89AB"/>
<path fill-rule="evenodd" clip-rule="evenodd" d="M36.5001 89.0029C44.5082 89.0045 51 95.4964 51 103.503C51 111.509 44.5082 117.999 36.5001 117.997C28.492 117.995 22.0001 111.503 22.0001 103.497C22.0001 95.4905 28.492 89.0013 36.5001 89.0029ZM46.5695 103.502C46.5695 97.9419 42.0612 93.4337 36.5001 93.4326C30.9389 93.4314 26.4307 97.9378 26.4307 103.498C26.4307 109.058 30.9389 113.566 36.5001 113.567C42.0612 113.568 46.5695 109.062 46.5695 103.502Z" fill="black"/>
<path d="M81.215 103.497C81.215 110.28 86.715 115.78 93.4996 115.782C100.284 115.783 105.784 110.285 105.784 103.502C105.784 96.7187 100.284 91.2186 93.4996 91.2173C86.715 91.2159 81.215 96.7138 81.215 103.497Z" fill="#BE89AB"/>
<path fill-rule="evenodd" clip-rule="evenodd" d="M93.4998 89.0029C101.508 89.0045 108 95.4964 108 103.503C108 111.509 101.508 117.999 93.4998 117.997C85.4917 117.995 78.9999 111.503 78.9999 103.497C78.9999 95.4905 85.4917 89.0013 93.4998 89.0029ZM103.569 103.502C103.569 97.9419 99.061 93.4337 93.4998 93.4326C87.9386 93.4314 83.4304 97.9378 83.4304 103.498C83.4304 109.058 87.9386 113.566 93.4998 113.567C99.061 113.568 103.569 109.062 103.569 103.502Z" fill="black"/>
<defs>
<linearGradient id="paint0_linear" x1="93.0517" y1="63.2597" x2="31.7006" y2="48.6173" gradientUnits="userSpaceOnUse">
<stop stop-color="#E8BC7C"/>
<stop offset="0.637528" stop-color="#9E63CD"/>
<stop offset="1" stop-color="#4899C7"/>
</linearGradient>
</defs>
</svg>
