<svg width="256" height="256" viewBox="0 0 256 256" fill="none" xmlns="http://www.w3.org/2000/svg">
<path d="M132.867 188.967C126.152 209.038 132.292 223.717 136.869 230.192L161.908 227.19C152.361 221.11 149.298 198.097 157.09 187.003L132.867 188.967Z" fill="#C0FFBE"/>
<path d="M134.441 190.972C128.92 207.689 135.105 222.668 138.888 228.067L157.745 225.807C149.861 220.731 146.879 197.947 153.297 188.712L134.441 190.972Z" fill="#78C476"/>
<ellipse cx="144.598" cy="221.425" rx="3.42475" ry="4.98145" transform="rotate(-96.8366 144.598 221.425)" fill="#C0FFBE"/>
<ellipse cx="141.707" cy="197.315" rx="3.42475" ry="4.98145" transform="rotate(-96.8366 141.707 197.315)" fill="#C0FFBE"/>
<path d="M144.136 208.321C143.727 208.37 143.417 208.524 143.205 208.783C142.988 209.038 142.81 209.451 142.671 210.021C142.532 210.592 142.387 211.087 142.235 211.507C142.078 211.927 141.887 212.296 141.662 212.613C141.432 212.925 141.149 213.183 140.814 213.385C140.479 213.583 140.067 213.711 139.579 213.77C138.737 213.871 138.014 213.683 137.411 213.206C136.807 212.73 136.407 212.048 136.21 211.162L134.61 211.354L134.466 210.151L136.088 209.957C136.107 209.055 136.392 208.316 136.945 207.742C137.493 207.168 138.253 206.822 139.225 206.706L139.485 208.878C138.887 208.95 138.456 209.129 138.192 209.415C137.923 209.696 137.813 210.045 137.863 210.461C137.912 210.872 138.067 211.176 138.328 211.373C138.585 211.571 138.917 211.646 139.326 211.597C139.705 211.551 139.996 211.405 140.198 211.157C140.401 210.909 140.587 210.472 140.754 209.847C140.921 209.217 141.089 208.696 141.257 208.285C141.42 207.874 141.62 207.519 141.858 207.221C142.09 206.924 142.37 206.685 142.697 206.503C143.019 206.322 143.407 206.205 143.86 206.15C144.708 206.049 145.427 206.232 146.019 206.7C146.611 207.167 147.01 207.862 147.217 208.782L148.705 208.604L148.848 209.799L147.368 209.977C147.381 211.017 147.115 211.857 146.57 212.497C146.019 213.132 145.233 213.511 144.211 213.634L143.951 211.461C144.544 211.39 144.983 211.195 145.269 210.877C145.548 210.553 145.656 210.126 145.593 209.595C145.54 209.154 145.384 208.819 145.124 208.591C144.859 208.364 144.529 208.274 144.136 208.321Z" fill="#F9FFED"/>
<path d="M119.993 199.227C134.359 183.685 134.789 167.78 133.275 159.996L109.212 152.45C115.42 161.914 108.762 184.155 97.1011 191.07L119.993 199.227Z" fill="#C0FFBE"/>
<path d="M119.382 196.752C131.282 183.778 131.793 167.58 130.561 161.103L112.44 155.421C117.544 163.286 110.906 185.285 101.261 191.07L119.382 196.752Z" fill="#78C476"/>
<ellipse cx="122.628" cy="164.814" rx="3.42475" ry="4.98145" transform="rotate(107.411 122.628 164.814)" fill="#C0FFBE"/>
<ellipse cx="115.362" cy="187.986" rx="3.42475" ry="4.98145" transform="rotate(107.411 115.362 187.986)" fill="#C0FFBE"/>
<path d="M117.667 176.954C118.06 177.077 118.406 177.064 118.705 176.914C119.008 176.771 119.34 176.468 119.701 176.005C120.062 175.541 120.398 175.149 120.709 174.829C121.024 174.51 121.35 174.253 121.685 174.056C122.023 173.866 122.387 173.747 122.775 173.7C123.162 173.657 123.59 173.71 124.06 173.857C124.869 174.111 125.451 174.579 125.805 175.261C126.159 175.943 126.244 176.729 126.06 177.618L127.598 178.1L127.235 179.256L125.676 178.767C125.289 179.582 124.726 180.138 123.985 180.435C123.25 180.733 122.415 180.736 121.481 180.443L122.136 178.355C122.711 178.535 123.177 178.549 123.535 178.397C123.897 178.251 124.14 177.979 124.265 177.579C124.389 177.184 124.373 176.843 124.215 176.556C124.063 176.27 123.79 176.065 123.398 175.942C123.034 175.828 122.708 175.842 122.421 175.985C122.135 176.128 121.786 176.45 121.377 176.951C120.966 177.457 120.599 177.863 120.277 178.169C119.959 178.477 119.631 178.717 119.293 178.892C118.959 179.067 118.605 179.171 118.233 179.202C117.865 179.235 117.463 179.183 117.027 179.046C116.212 178.791 115.631 178.328 115.284 177.658C114.936 176.989 114.857 176.192 115.047 175.267L113.617 174.819L113.978 173.67L115.4 174.116C115.815 173.162 116.403 172.505 117.162 172.146C117.925 171.793 118.798 171.77 119.78 172.078L119.125 174.166C118.555 173.987 118.075 173.985 117.684 174.158C117.296 174.338 117.022 174.683 116.862 175.194C116.729 175.617 116.734 175.987 116.877 176.301C117.025 176.618 117.289 176.835 117.667 176.954Z" fill="#F9FFED"/>
<path d="M155.903 111.882C134.817 110.059 121.987 119.47 116.765 125.438L125.554 149.075C129.226 138.368 150.879 129.995 163.491 134.969L155.903 111.882Z" fill="#C0FFBE"/>
<path d="M154.322 113.882C136.776 112.433 123.665 121.959 119.303 126.902L125.922 144.703C129.007 135.849 150.457 127.608 160.94 131.682L154.322 113.882Z" fill="#78C476"/>
<ellipse cx="127.099" cy="130.895" rx="3.42475" ry="4.98145" transform="rotate(-20.3964 127.099 130.895)" fill="#C0FFBE"/>
<ellipse cx="149.861" cy="122.431" rx="3.42475" ry="4.98145" transform="rotate(-20.3964 149.861 122.431)" fill="#C0FFBE"/>
<path d="M139.731 127.373C139.588 126.988 139.365 126.722 139.064 126.577C138.765 126.426 138.322 126.35 137.735 126.348C137.148 126.347 136.632 126.322 136.188 126.273C135.743 126.219 135.34 126.12 134.979 125.975C134.622 125.824 134.305 125.61 134.029 125.332C133.758 125.053 133.537 124.682 133.366 124.221C133.07 123.426 133.083 122.679 133.405 121.981C133.727 121.283 134.296 120.734 135.111 120.335L134.55 118.824L135.685 118.402L136.254 119.934C137.135 119.74 137.92 119.845 138.608 120.247C139.295 120.646 139.809 121.303 140.15 122.221L138.099 122.983C137.889 122.419 137.614 122.042 137.275 121.852C136.938 121.656 136.573 121.631 136.18 121.777C135.793 121.921 135.533 122.143 135.403 122.444C135.27 122.739 135.276 123.08 135.419 123.466C135.552 123.823 135.763 124.072 136.052 124.211C136.34 124.35 136.808 124.428 137.455 124.444C138.107 124.459 138.652 124.5 139.092 124.567C139.529 124.629 139.921 124.74 140.266 124.901C140.609 125.057 140.908 125.273 141.161 125.548C141.412 125.819 141.618 126.169 141.777 126.597C142.074 127.397 142.065 128.139 141.749 128.824C141.433 129.51 140.852 130.06 140.005 130.477L140.527 131.881L139.399 132.301L138.879 130.904C137.871 131.161 136.992 131.099 136.242 130.719C135.496 130.333 134.943 129.657 134.584 128.693L136.635 127.93C136.843 128.49 137.136 128.871 137.513 129.074C137.892 129.27 138.333 129.275 138.835 129.089C139.251 128.934 139.539 128.703 139.7 128.397C139.859 128.086 139.87 127.745 139.731 127.373Z" fill="#F9FFED"/>
<path d="M175.125 205.417C190.077 220.396 205.953 221.465 213.791 220.265L222.298 196.525C212.592 202.347 190.637 194.801 184.196 182.871L175.125 205.417Z" fill="#C0FFBE"/>
<path d="M177.623 204.907C190.109 217.319 206.273 218.481 212.794 217.511L219.201 199.633C211.137 204.416 189.423 196.899 184.03 187.029L177.623 204.907Z" fill="#78C476"/>
<ellipse cx="209.405" cy="209.433" rx="3.42475" ry="4.98145" transform="rotate(-160.285 209.405 209.433)" fill="#C0FFBE"/>
<ellipse cx="186.543" cy="201.241" rx="3.42475" ry="4.98145" transform="rotate(-160.285 186.543 201.241)" fill="#C0FFBE"/>
<path d="M197.474 203.988C197.335 204.375 197.334 204.722 197.471 205.027C197.602 205.335 197.892 205.679 198.34 206.058C198.789 206.437 199.167 206.789 199.474 207.112C199.78 207.441 200.024 207.776 200.207 208.119C200.384 208.465 200.488 208.833 200.519 209.223C200.546 209.611 200.477 210.037 200.311 210.5C200.025 211.298 199.534 211.861 198.838 212.187C198.142 212.514 197.353 212.567 196.472 212.347L195.929 213.864L194.788 213.456L195.34 211.918C194.541 211.498 194.008 210.913 193.741 210.161C193.473 209.414 193.504 208.58 193.834 207.659L195.894 208.397C195.69 208.964 195.658 209.429 195.795 209.793C195.926 210.16 196.189 210.414 196.584 210.556C196.973 210.695 197.315 210.692 197.608 210.547C197.9 210.406 198.115 210.142 198.254 209.754C198.383 209.395 198.381 209.07 198.25 208.777C198.119 208.485 197.811 208.124 197.327 207.695C196.838 207.264 196.448 206.881 196.155 206.547C195.86 206.217 195.632 205.879 195.472 205.534C195.31 205.193 195.221 204.836 195.205 204.462C195.187 204.093 195.255 203.694 195.409 203.264C195.697 202.46 196.182 201.899 196.865 201.578C197.549 201.258 198.348 201.211 199.264 201.438L199.769 200.027L200.903 200.433L200.4 201.837C201.336 202.29 201.969 202.903 202.298 203.677C202.62 204.453 202.607 205.326 202.26 206.295L200.2 205.557C200.402 204.995 200.424 204.514 200.266 204.117C200.102 203.722 199.768 203.434 199.265 203.254C198.846 203.104 198.477 203.094 198.157 203.225C197.835 203.36 197.607 203.614 197.474 203.988Z" fill="#F9FFED"/>
<path d="M73.5125 116.252C94.6663 115.574 106.968 125.665 111.859 131.907L101.804 155.033C98.7165 144.144 77.5485 134.611 64.6862 138.895L73.5125 116.252Z" fill="#C0FFBE"/>
<path d="M74.9841 118.334C92.5821 117.837 105.158 128.058 109.247 133.231L101.674 150.647C99.0722 141.64 78.1001 132.249 67.4116 135.75L74.9841 118.334Z" fill="#78C476"/>
<ellipse rx="3.42475" ry="4.98145" transform="matrix(-0.917067 -0.398734 -0.398734 0.917067 101.245 136.797)" fill="#C0FFBE"/>
<ellipse rx="3.42475" ry="4.98145" transform="matrix(-0.917067 -0.398734 -0.398734 0.917067 78.9746 127.115)" fill="#C0FFBE"/>
<path d="M91.0925 127.375C90.9284 127.752 90.9047 128.098 91.0216 128.411C91.1318 128.727 91.3981 129.09 91.8205 129.498C92.243 129.906 92.597 130.281 92.8826 130.624C93.1662 130.972 93.3878 131.323 93.5476 131.677C93.7007 132.034 93.7802 132.408 93.7862 132.799C93.7876 133.188 93.6902 133.609 93.4941 134.06C93.1558 134.838 92.6286 135.367 91.9126 135.646C91.1965 135.926 90.4062 135.928 89.5417 135.65L88.8992 137.128L87.7884 136.645L88.4399 135.146C87.6707 134.675 87.1777 134.056 86.9611 133.288C86.7424 132.525 86.8283 131.695 87.2186 130.797L89.225 131.67C88.9848 132.222 88.9214 132.685 89.0347 133.057C89.1414 133.432 89.3869 133.703 89.771 133.87C90.1506 134.035 90.4915 134.054 90.7939 133.928C91.0942 133.807 91.3265 133.558 91.4906 133.18C91.6427 132.831 91.663 132.505 91.5514 132.205C91.4398 131.905 91.1567 131.524 90.702 131.064C90.2426 130.602 89.8778 130.194 89.6075 129.841C89.3351 129.493 89.1304 129.141 88.9931 128.786C88.8539 128.435 88.7886 128.073 88.7971 127.699C88.8036 127.329 88.8979 126.935 89.0801 126.516C89.4203 125.734 89.9419 125.205 90.6446 124.93C91.3474 124.656 92.1483 124.662 93.0472 124.949L93.6447 123.574L94.7486 124.054L94.1541 125.422C95.0589 125.935 95.6497 126.589 95.9266 127.383C96.1968 128.179 96.1267 129.049 95.7164 129.993L93.7099 129.12C93.9481 128.573 94.0017 128.095 93.8706 127.688C93.7328 127.283 93.4187 126.974 92.928 126.761C92.5207 126.583 92.153 126.55 91.8249 126.659C91.4948 126.772 91.2506 127.011 91.0925 127.375Z" fill="#F9FFED"/>
<path d="M76.4949 72.1645C97.6487 71.4858 109.951 81.5771 114.842 87.8187L104.786 110.946C101.699 100.056 80.5309 90.5232 67.6686 94.807L76.4949 72.1645Z" fill="#C0FFBE"/>
<path d="M77.9665 74.2459C95.5645 73.7495 108.141 83.9705 112.229 89.143L104.656 106.559C102.055 97.5517 81.0825 88.1616 70.394 91.6622L77.9665 74.2459Z" fill="#78C476"/>
<ellipse rx="3.42475" ry="4.98145" transform="matrix(-0.917067 -0.398734 -0.398734 0.917067 104.227 92.7086)" fill="#C0FFBE"/>
<ellipse rx="3.42475" ry="4.98145" transform="matrix(-0.917067 -0.398734 -0.398734 0.917067 81.957 83.027)" fill="#C0FFBE"/>
<path d="M94.0749 83.2869C93.9108 83.6644 93.8872 84.0099 94.004 84.3234C94.1142 84.6396 94.3805 85.0017 94.803 85.4098C95.2254 85.8179 95.5794 86.1935 95.865 86.5366C96.1486 86.8843 96.3702 87.2352 96.53 87.5893C96.6831 87.946 96.7627 88.32 96.7687 88.7112C96.77 89.1005 96.6726 89.5207 96.4765 89.9718C96.1382 90.7498 95.6111 91.2787 94.895 91.5586C94.179 91.8384 93.3887 91.8397 92.5241 91.5623L91.8816 93.04L90.7708 92.5571L91.4223 91.0586C90.6531 90.5873 90.1602 89.9679 89.9435 89.2004C89.7249 88.4376 89.8107 87.6073 90.201 86.7096L92.2074 87.582C91.9673 88.1344 91.9038 88.5967 92.0172 88.969C92.1239 89.3438 92.3693 89.6147 92.7535 89.7818C93.133 89.9468 93.4739 89.9664 93.7763 89.8406C94.0767 89.7194 94.3089 89.47 94.473 89.0925C94.6251 88.7427 94.6454 88.4176 94.5338 88.1173C94.4223 87.8169 94.1391 87.4366 93.6844 86.9761C93.2251 86.5137 92.8602 86.106 92.5899 85.7531C92.3176 85.4047 92.1128 85.053 91.9756 84.6977C91.8363 84.3471 91.771 83.9848 91.7795 83.6108C91.786 83.2414 91.8803 82.8472 92.0625 82.4283C92.4027 81.6457 92.9243 81.1171 93.6271 80.8424C94.3299 80.5677 95.1307 80.5738 96.0296 80.8607L96.6271 79.4865L97.731 79.9665L97.1365 81.3337C98.0413 81.8476 98.6322 82.5013 98.909 83.2949C99.1792 84.0912 99.1091 84.9612 98.6988 85.9049L96.6923 85.0325C96.9305 84.4847 96.9841 84.0071 96.853 83.5998C96.7153 83.195 96.4011 82.886 95.9105 82.6727C95.5032 82.4956 95.1354 82.4616 94.8073 82.5707C94.4772 82.6845 94.2331 82.9232 94.0749 83.2869Z" fill="#F9FFED"/>
<path d="M62.4119 29.9165C83.5657 29.2377 95.8677 39.3291 100.759 45.5707L90.7033 68.6975C87.6159 57.808 66.4479 48.2751 53.5856 52.559L62.4119 29.9165Z" fill="#C0FFBE"/>
<path d="M63.8835 31.9979C81.4815 31.5015 94.0576 41.7224 98.1459 46.8949L90.5735 64.3112C87.9716 55.3036 66.9995 45.9135 56.311 49.4142L63.8835 31.9979Z" fill="#78C476"/>
<ellipse rx="3.42475" ry="4.98145" transform="matrix(-0.917067 -0.398734 -0.398734 0.917067 90.1445 50.4606)" fill="#C0FFBE"/>
<ellipse rx="3.42475" ry="4.98145" transform="matrix(-0.917067 -0.398734 -0.398734 0.917067 67.874 40.7789)" fill="#C0FFBE"/>
<path d="M79.9919 41.0388C79.8278 41.4163 79.8041 41.7618 79.921 42.0754C80.0312 42.3915 80.2975 42.7536 80.7199 43.1617C81.1424 43.5698 81.4964 43.9454 81.782 44.2886C82.0656 44.6363 82.2872 44.9872 82.447 45.3413C82.6001 45.698 82.6797 46.0719 82.6856 46.4632C82.687 46.8524 82.5896 47.2726 82.3935 47.7238C82.0552 48.5018 81.528 49.0307 80.812 49.3105C80.0959 49.5904 79.3057 49.5916 78.4411 49.3143L77.7986 50.792L76.6878 50.309L77.3393 48.8106C76.5701 48.3393 76.0772 47.7199 75.8605 46.9524C75.6419 46.1895 75.7277 45.3592 76.118 44.4615L78.1244 45.3339C77.8843 45.8864 77.8208 46.3487 77.9342 46.7209C78.0409 47.0957 78.2863 47.3667 78.6705 47.5337C79.05 47.6987 79.3909 47.7183 79.6933 47.5925C79.9936 47.4713 80.2259 47.222 80.39 46.8445C80.5421 46.4946 80.5624 46.1695 80.4508 45.8692C80.3393 45.5689 80.0561 45.1885 79.6014 44.7281C79.142 44.2656 78.7772 43.8579 78.5069 43.505C78.2346 43.1567 78.0298 42.8049 77.8926 42.4497C77.7533 42.099 77.688 41.7367 77.6965 41.3627C77.703 40.9933 77.7973 40.5992 77.9795 40.1802C78.3197 39.3976 78.8413 38.869 79.5441 38.5943C80.2468 38.3197 81.0477 38.3258 81.9466 38.6126L82.5441 37.2385L83.648 37.7184L83.0535 39.0857C83.9583 39.5995 84.5492 40.2532 84.826 41.0469C85.0962 41.8431 85.0261 42.7131 84.6158 43.6568L82.6093 42.7844C82.8475 42.2366 82.9011 41.759 82.77 41.3517C82.6322 40.947 82.3181 40.638 81.8275 40.4246C81.4201 40.2476 81.0524 40.2136 80.7243 40.3227C80.3942 40.4364 80.1501 40.6751 79.9919 41.0388Z" fill="#F9FFED"/>
<path d="M172.275 52.3827C186.032 68.4663 185.849 84.3767 184.037 92.0964L159.701 98.7106C166.269 89.4921 160.471 67.012 149.086 59.6532L172.275 52.3827Z" fill="#C0FFBE"/>
<path d="M171.569 54.8338C182.961 68.2566 182.848 84.462 181.368 90.8868L163.042 95.8678C168.444 88.2048 162.658 65.9669 153.243 59.8148L171.569 54.8338Z" fill="#78C476"/>
<ellipse rx="3.42475" ry="4.98145" transform="matrix(-0.262278 -0.964992 -0.964992 0.262278 173.583 86.8728)" fill="#C0FFBE"/>
<ellipse rx="3.42475" ry="4.98145" transform="matrix(-0.262278 -0.964992 -0.964992 0.262278 167.214 63.4372)" fill="#C0FFBE"/>
<path d="M174.588 73.0579C174.191 73.1658 173.907 73.3634 173.735 73.6507C173.557 73.9343 173.441 74.3686 173.387 74.9535C173.332 75.5383 173.261 76.0494 173.171 76.4869C173.077 76.9256 172.942 77.318 172.766 77.6641C172.583 78.0066 172.341 78.3025 172.039 78.5519C171.737 78.7963 171.348 78.9831 170.873 79.1121C170.054 79.3346 169.312 79.254 168.646 78.8701C167.98 78.4863 167.485 77.8704 167.16 77.0223L165.606 77.4449L165.288 76.276L166.865 75.8475C166.751 74.9525 166.927 74.1805 167.39 73.5315C167.849 72.8839 168.55 72.4317 169.495 72.1749L170.069 74.2863C169.487 74.4442 169.087 74.6838 168.867 75.005C168.641 75.3227 168.584 75.6836 168.693 76.0879C168.802 76.4872 169 76.7656 169.287 76.9229C169.569 77.0815 169.909 77.1068 170.306 76.9988C170.675 76.8988 170.941 76.7113 171.106 76.4364C171.27 76.1616 171.39 75.7028 171.465 75.06C171.539 74.4123 171.629 73.8727 171.735 73.4411C171.837 73.0108 171.983 72.631 172.174 72.3018C172.361 71.9738 172.603 71.6963 172.9 71.4691C173.192 71.2432 173.559 71.0703 174 70.9505C174.823 70.7267 175.562 70.8031 176.216 71.1798C176.87 71.5565 177.366 72.1853 177.704 73.0662L179.15 72.6732L179.466 73.8348L178.027 74.2258C178.192 75.2532 178.051 76.123 177.605 76.8353C177.152 77.5441 176.429 78.0334 175.436 78.3033L174.863 76.192C175.439 76.0353 175.845 75.7785 176.081 75.4215C176.311 75.0609 176.356 74.6225 176.215 74.1062C176.099 73.6776 175.895 73.3694 175.605 73.1816C175.31 72.9951 174.971 72.9539 174.588 73.0579Z" fill="#F9FFED"/>
<circle cx="148.956" cy="171.274" r="6.22682" transform="rotate(-135 148.956 171.274)" fill="#FFD130"/>
<path d="M149.279 169.546C149.094 169.731 149 169.931 148.997 170.144C148.99 170.358 149.064 170.635 149.221 170.977C149.378 171.319 149.502 171.625 149.592 171.896C149.681 172.169 149.731 172.43 149.744 172.678C149.753 172.925 149.714 173.166 149.627 173.399C149.538 173.63 149.383 173.856 149.162 174.077C148.78 174.458 148.344 174.647 147.854 174.644C147.363 174.64 146.893 174.454 146.443 174.085L145.718 174.809L145.169 174.26L145.904 173.526C145.555 173.065 145.405 172.581 145.454 172.075C145.5 171.571 145.743 171.099 146.183 170.659L147.175 171.651C146.904 171.921 146.76 172.181 146.741 172.428C146.718 172.675 146.801 172.894 146.991 173.084C147.178 173.272 147.377 173.364 147.586 173.361C147.792 173.36 147.988 173.267 148.173 173.082C148.345 172.911 148.432 172.723 148.435 172.518C148.438 172.314 148.358 172.021 148.194 171.641C148.027 171.258 147.905 170.93 147.826 170.657C147.744 170.386 147.704 170.129 147.704 169.886C147.703 169.645 147.747 169.415 147.839 169.195C147.928 168.978 148.076 168.767 148.281 168.561C148.664 168.178 149.097 167.988 149.578 167.991C150.06 167.995 150.535 168.188 151.003 168.57L151.677 167.897L152.222 168.443L151.552 169.113C151.972 169.631 152.172 170.159 152.153 170.694C152.13 171.23 151.887 171.73 151.424 172.192L150.433 171.2C150.701 170.932 150.843 170.661 150.86 170.389C150.871 170.116 150.756 169.859 150.513 169.616C150.312 169.415 150.101 169.308 149.881 169.295C149.658 169.284 149.458 169.368 149.279 169.546Z" fill="#BC991E"/>
<circle cx="191.806" cy="55.8053" r="6.22682" transform="rotate(-135 191.806 55.8053)" fill="#FFD130"/>
<path d="M192.129 54.0757C191.944 54.2606 191.85 54.4598 191.847 54.6734C191.839 54.8868 191.914 55.1645 192.071 55.5063C192.228 55.8482 192.352 56.1545 192.442 56.4255C192.53 56.6987 192.581 56.9592 192.594 57.2068C192.603 57.4545 192.563 57.695 192.477 57.9284C192.387 58.1594 192.232 58.3855 192.011 58.6065C191.63 58.9877 191.194 59.1766 190.703 59.1731C190.213 59.1697 189.742 58.9835 189.292 58.6146L188.568 59.3386L188.019 58.7896L188.753 58.0554C188.405 57.5941 188.255 57.1103 188.303 56.6041C188.35 56.1001 188.593 55.6282 189.033 55.1884L190.025 56.1801C189.754 56.4508 189.609 56.7099 189.59 56.9573C189.567 57.2048 189.651 57.4234 189.84 57.6133C190.028 57.8009 190.226 57.8931 190.435 57.8901C190.642 57.8893 190.838 57.7964 191.023 57.6114C191.194 57.44 191.281 57.2521 191.285 57.0477C191.288 56.8433 191.207 56.5508 191.043 56.1703C190.877 55.7875 190.754 55.4595 190.675 55.1864C190.594 54.9155 190.553 54.6585 190.554 54.4155C190.552 54.1747 190.597 53.9444 190.689 53.7247C190.778 53.5073 190.925 53.296 191.131 53.0907C191.514 52.7073 191.946 52.5172 192.428 52.5206C192.91 52.524 193.385 52.7171 193.853 53.0997L194.526 52.4264L195.072 52.9721L194.402 53.642C194.821 54.1606 195.022 54.6878 195.003 55.2238C194.979 55.7597 194.736 56.2589 194.274 56.7213L193.282 55.7295C193.551 55.4611 193.693 55.1907 193.709 54.9182C193.721 54.6457 193.605 54.3882 193.363 54.1457C193.162 53.9444 192.951 53.8373 192.73 53.8244C192.508 53.8137 192.307 53.8975 192.129 54.0757Z" fill="#BC991E"/>
<circle cx="185.644" cy="109.503" r="6.22682" transform="rotate(-135 185.644 109.503)" fill="#FFD130"/>
<path d="M185.967 107.773C185.782 107.958 185.688 108.157 185.685 108.371C185.677 108.584 185.752 108.862 185.909 109.204C186.066 109.545 186.189 109.852 186.28 110.123C186.368 110.396 186.419 110.656 186.432 110.904C186.441 111.152 186.401 111.392 186.314 111.626C186.225 111.857 186.07 112.083 185.849 112.304C185.468 112.685 185.032 112.874 184.541 112.87C184.051 112.867 183.58 112.681 183.13 112.312L182.406 113.036L181.857 112.487L182.591 111.753C182.243 111.291 182.093 110.808 182.141 110.301C182.188 109.797 182.431 109.326 182.871 108.886L183.862 109.877C183.592 110.148 183.447 110.407 183.428 110.655C183.405 110.902 183.488 111.121 183.678 111.311C183.866 111.498 184.064 111.59 184.273 111.587C184.48 111.587 184.676 111.494 184.861 111.309C185.032 111.137 185.119 110.949 185.122 110.745C185.126 110.541 185.045 110.248 184.881 109.868C184.715 109.485 184.592 109.157 184.513 108.884C184.432 108.613 184.391 108.356 184.392 108.113C184.39 107.872 184.435 107.642 184.527 107.422C184.616 107.205 184.763 106.993 184.968 106.788C185.352 106.405 185.784 106.215 186.266 106.218C186.748 106.221 187.223 106.414 187.691 106.797L188.364 106.124L188.91 106.669L188.24 107.339C188.659 107.858 188.859 108.385 188.841 108.921C188.817 109.457 188.574 109.956 188.112 110.419L187.12 109.427C187.388 109.158 187.531 108.888 187.547 108.615C187.559 108.343 187.443 108.085 187.201 107.843C187 107.642 186.789 107.535 186.568 107.522C186.346 107.511 186.145 107.595 185.967 107.773Z" fill="#BC991E"/>
<circle cx="78.625" cy="173.141" r="6.22682" transform="rotate(-135 78.625 173.141)" fill="#FFD130"/>
<path d="M78.9483 171.412C78.7634 171.597 78.6694 171.796 78.6664 172.009C78.6588 172.223 78.7334 172.5 78.8903 172.842C79.0472 173.184 79.1709 173.49 79.2614 173.761C79.3496 174.035 79.4003 174.295 79.4134 174.543C79.422 174.79 79.3828 175.031 79.2959 175.264C79.2066 175.495 79.0515 175.721 78.8305 175.942C78.4493 176.324 78.0133 176.513 77.5226 176.509C77.032 176.506 76.5616 176.319 76.1115 175.951L75.3874 176.675L74.8384 176.126L75.5726 175.391C75.2241 174.93 75.0741 174.446 75.1228 173.94C75.1692 173.436 75.4123 172.964 75.8522 172.524L76.8439 173.516C76.5732 173.787 76.4285 174.046 76.4098 174.293C76.3866 174.541 76.4699 174.759 76.6598 174.949C76.8474 175.137 77.0457 175.229 77.2546 175.226C77.4613 175.225 77.6572 175.132 77.8421 174.947C78.0135 174.776 78.1008 174.588 78.1039 174.384C78.107 174.179 78.0266 173.887 77.8626 173.506C77.6963 173.123 77.5736 172.795 77.4945 172.522C77.413 172.251 77.3726 171.994 77.3732 171.751C77.3715 171.511 77.4164 171.28 77.508 171.061C77.5973 170.843 77.7446 170.632 77.9499 170.427C78.3333 170.043 78.7658 169.853 79.2474 169.857C79.729 169.86 80.204 170.053 80.6724 170.436L81.3456 169.762L81.8913 170.308L81.2214 170.978C81.6407 171.497 81.8409 172.024 81.822 172.56C81.7985 173.096 81.5556 173.595 81.0932 174.057L80.1015 173.065C80.3699 172.797 80.5122 172.527 80.5285 172.254C80.5402 171.982 80.4248 171.724 80.1823 171.482C79.981 171.28 79.7701 171.173 79.5497 171.16C79.327 171.15 79.1265 171.233 78.9483 171.412Z" fill="#BC991E"/>
<circle cx="117.868" cy="149.991" r="6.22682" transform="rotate(-135 117.868 149.991)" fill="#FFD130"/>
<path d="M118.192 148.263C118.007 148.448 117.913 148.647 117.91 148.861C117.902 149.074 117.977 149.352 118.133 149.694C118.29 150.036 118.414 150.342 118.505 150.613C118.593 150.886 118.643 151.147 118.657 151.394C118.665 151.642 118.626 151.883 118.539 152.116C118.45 152.347 118.295 152.573 118.074 152.794C117.692 153.175 117.256 153.364 116.766 153.361C116.275 153.357 115.805 153.171 115.355 152.802L114.631 153.526L114.082 152.977L114.816 152.243C114.467 151.782 114.317 151.298 114.366 150.792C114.412 150.288 114.655 149.816 115.095 149.376L116.087 150.368C115.816 150.638 115.672 150.897 115.653 151.145C115.63 151.392 115.713 151.611 115.903 151.801C116.091 151.988 116.289 152.081 116.498 152.078C116.704 152.077 116.9 151.984 117.085 151.799C117.257 151.628 117.344 151.44 117.347 151.235C117.35 151.031 117.27 150.738 117.106 150.358C116.94 149.975 116.817 149.647 116.738 149.374C116.656 149.103 116.616 148.846 116.616 148.603C116.615 148.362 116.66 148.132 116.751 147.912C116.84 147.695 116.988 147.483 117.193 147.278C117.576 146.895 118.009 146.705 118.491 146.708C118.972 146.712 119.447 146.905 119.916 147.287L120.589 146.614L121.134 147.16L120.465 147.829C120.884 148.348 121.084 148.875 121.065 149.411C121.042 149.947 120.799 150.446 120.336 150.909L119.345 149.917C119.613 149.649 119.755 149.378 119.772 149.106C119.783 148.833 119.668 148.576 119.425 148.333C119.224 148.132 119.013 148.025 118.793 148.012C118.57 148.001 118.37 148.085 118.192 148.263Z" fill="#BC991E"/>
<circle cx="45.6914" cy="118.305" r="6.22682" transform="rotate(-135 45.6914 118.305)" fill="#FFD130"/>
<path d="M46.0148 116.578C45.8298 116.763 45.7358 116.962 45.7328 117.175C45.7252 117.389 45.7998 117.666 45.9567 118.008C46.1136 118.35 46.2373 118.657 46.3278 118.927C46.416 119.201 46.4667 119.461 46.4798 119.709C46.4884 119.956 46.4492 120.197 46.3623 120.43C46.273 120.661 46.1179 120.887 45.8969 121.108C45.5157 121.49 45.0797 121.679 44.5891 121.675C44.0984 121.672 43.628 121.485 43.1779 121.117L42.4538 121.841L41.9048 121.292L42.639 120.557C42.2905 120.096 42.1405 119.612 42.1892 119.106C42.2356 118.602 42.4787 118.13 42.9186 117.69L43.9103 118.682C43.6396 118.953 43.4949 119.212 43.4762 119.459C43.453 119.707 43.5363 119.925 43.7262 120.115C43.9138 120.303 44.1121 120.395 44.321 120.392C44.5277 120.391 44.7236 120.298 44.9085 120.113C45.0799 119.942 45.1672 119.754 45.1703 119.55C45.1734 119.345 45.093 119.053 44.929 118.672C44.7627 118.289 44.64 117.961 44.5609 117.688C44.4795 117.417 44.439 117.16 44.4396 116.917C44.4379 116.677 44.4828 116.446 44.5744 116.227C44.6637 116.009 44.811 115.798 45.0163 115.593C45.3997 115.209 45.8322 115.019 46.3138 115.023C46.7954 115.026 47.2704 115.219 47.7388 115.602L48.4121 114.928L48.9577 115.474L48.2878 116.144C48.7071 116.663 48.9073 117.19 48.8884 117.726C48.8649 118.262 48.622 118.761 48.1596 119.223L47.1679 118.231C47.4363 117.963 47.5786 117.693 47.5949 117.42C47.6066 117.148 47.4912 116.89 47.2487 116.648C47.0474 116.446 46.8365 116.339 46.6161 116.326C46.3934 116.316 46.1929 116.399 46.0148 116.578Z" fill="#BC991E"/>
<circle cx="196.88" cy="181.854" r="6.22682" transform="rotate(-135 196.88 181.854)" fill="#FFD130"/>
<path d="M197.204 180.124C197.019 180.309 196.925 180.509 196.922 180.722C196.915 180.936 196.989 181.213 197.146 181.555C197.303 181.897 197.427 182.203 197.517 182.474C197.605 182.748 197.656 183.008 197.669 183.256C197.678 183.503 197.639 183.744 197.552 183.977C197.462 184.208 197.307 184.434 197.086 184.655C196.705 185.037 196.269 185.225 195.779 185.222C195.288 185.218 194.817 185.032 194.367 184.663L193.643 185.387L193.094 184.838L193.828 184.104C193.48 183.643 193.33 183.159 193.379 182.653C193.425 182.149 193.668 181.677 194.108 181.237L195.1 182.229C194.829 182.5 194.684 182.759 194.666 183.006C194.642 183.254 194.726 183.472 194.916 183.662C195.103 183.85 195.302 183.942 195.51 183.939C195.717 183.938 195.913 183.845 196.098 183.66C196.269 183.489 196.357 183.301 196.36 183.096C196.363 182.892 196.282 182.6 196.118 182.219C195.952 181.836 195.829 181.508 195.75 181.235C195.669 180.964 195.628 180.707 195.629 180.464C195.627 180.224 195.672 179.993 195.764 179.774C195.853 179.556 196 179.345 196.206 179.14C196.589 178.756 197.022 178.566 197.503 178.569C197.985 178.573 198.46 178.766 198.928 179.149L199.602 178.475L200.147 179.021L199.477 179.691C199.897 180.209 200.097 180.737 200.078 181.273C200.054 181.809 199.811 182.308 199.349 182.77L198.357 181.778C198.626 181.51 198.768 181.24 198.784 180.967C198.796 180.695 198.681 180.437 198.438 180.195C198.237 179.993 198.026 179.886 197.806 179.873C197.583 179.863 197.382 179.946 197.204 180.124Z" fill="#BC991E"/>
<path d="M133.188 75.2569C144.87 57.6081 142.738 41.8401 139.993 34.4008L115.03 30.8199C122.678 39.1638 119.681 62.185 109.283 70.8841L133.188 75.2569Z" fill="#C0FFBE"/>
<path d="M132.188 72.9121C141.848 58.194 139.75 42.1247 137.493 35.9298L118.694 33.2331C124.995 40.1759 121.979 62.9554 113.389 70.2154L132.188 72.9121Z" fill="#78C476"/>
<ellipse cx="130.259" cy="40.8682" rx="3.42475" ry="4.98145" transform="rotate(98.1634 130.259 40.8682)" fill="#C0FFBE"/>
<ellipse cx="126.81" cy="64.9073" rx="3.42475" ry="4.98145" transform="rotate(98.1634 126.81 64.9073)" fill="#C0FFBE"/>
<path d="M127.313 53.647C127.721 53.7055 128.06 53.6369 128.332 53.4413C128.608 53.2514 128.886 52.8988 129.168 52.3835C129.45 51.8682 129.719 51.4274 129.974 51.0612C130.234 50.6958 130.514 50.3892 130.813 50.1415C131.117 49.8995 131.457 49.7239 131.832 49.6146C132.207 49.5104 132.638 49.4932 133.125 49.563C133.965 49.6835 134.615 50.052 135.074 50.6685C135.533 51.2851 135.743 52.0469 135.704 52.954L137.299 53.1828L137.127 54.3818L135.51 54.1498C135.259 55.0163 134.792 55.6554 134.109 56.0674C133.431 56.48 132.608 56.6168 131.639 56.4778L131.95 54.3121C132.546 54.3976 133.008 54.3365 133.337 54.1288C133.671 53.9267 133.867 53.6184 133.927 53.2037C133.985 52.7941 133.914 52.4601 133.713 52.2018C133.516 51.9442 133.215 51.7861 132.807 51.7277C132.429 51.6735 132.111 51.7399 131.851 51.927C131.59 52.114 131.298 52.4877 130.975 53.048C130.65 53.6133 130.353 54.0729 130.085 54.427C129.821 54.7817 129.536 55.0722 129.229 55.2985C128.928 55.5255 128.596 55.6844 128.233 55.7751C127.875 55.8665 127.47 55.8798 127.018 55.8149C126.173 55.6937 125.525 55.3306 125.075 54.7255C124.624 54.1203 124.418 53.3464 124.457 52.4036L122.973 52.1908L123.144 50.9993L124.62 51.211C124.876 50.2025 125.351 49.4598 126.043 48.983C126.739 48.5118 127.597 48.3493 128.615 48.4954L128.305 50.6612C127.713 50.5763 127.239 50.651 126.881 50.8852C126.527 51.125 126.312 51.5097 126.236 52.0393C126.173 52.4789 126.237 52.8426 126.429 53.1301C126.626 53.4184 126.921 53.5907 127.313 53.647Z" fill="#F9FFED"/>
<path d="M192.324 97.9621C212.22 105.18 227.048 99.4108 233.636 94.9979L231.265 69.8915C224.947 79.2825 201.864 81.7662 190.97 73.6979L192.324 97.9621Z" fill="#C0FFBE"/>
<path d="M194.369 96.4393C210.942 102.379 226.071 96.5719 231.564 92.9257L229.778 74.0186C224.506 81.7719 201.654 84.1807 192.583 77.5322L194.369 96.4393Z" fill="#78C476"/>
<ellipse cx="225.067" cy="87.0522" rx="3.42475" ry="4.98145" transform="rotate(174.604 225.067 87.0522)" fill="#C0FFBE"/>
<ellipse cx="200.891" cy="89.3354" rx="3.42475" ry="4.98145" transform="rotate(174.604 200.891 89.3354)" fill="#C0FFBE"/>
<path d="M211.954 87.1845C211.993 87.5943 212.139 87.9082 212.393 88.1263C212.642 88.3498 213.051 88.5382 213.618 88.6913C214.185 88.8445 214.676 89.0023 215.092 89.1647C215.508 89.3321 215.872 89.5322 216.183 89.765C216.489 90.0033 216.74 90.2923 216.934 90.6319C217.123 90.972 217.241 91.387 217.287 91.8768C217.367 92.7214 217.161 93.4392 216.669 94.0302C216.178 94.6212 215.486 95.0041 214.595 95.179L214.747 96.7833L213.541 96.8972L213.387 95.2705C212.486 95.2295 211.755 94.9255 211.195 94.3582C210.635 93.796 210.309 93.0276 210.217 92.053L212.395 91.8473C212.452 92.447 212.619 92.8824 212.898 93.1535C213.173 93.4301 213.519 93.5487 213.936 93.5094C214.348 93.4704 214.656 93.3228 214.86 93.0666C215.064 92.8154 215.147 92.4848 215.108 92.075C215.072 91.6952 214.933 91.4008 214.69 91.1918C214.447 90.9828 214.016 90.7866 213.395 90.6032C212.77 90.4202 212.253 90.2396 211.846 90.0613C211.439 89.8879 211.09 89.6789 210.798 89.4342C210.507 89.1944 210.275 88.9088 210.101 88.5773C209.928 88.2507 209.821 87.86 209.778 87.4053C209.697 86.5557 209.899 85.8408 210.381 85.2608C210.864 84.6807 211.568 84.2991 212.493 84.1158L212.352 82.624L213.551 82.5108L213.691 83.9951C214.732 84.0078 215.565 84.2946 216.191 84.8557C216.812 85.4222 217.171 86.2178 217.268 87.2423L215.089 87.448C215.033 86.8533 214.849 86.4093 214.538 86.1161C214.222 85.8283 213.797 85.7095 213.265 85.7598C212.822 85.8016 212.484 85.9496 212.25 86.2036C212.015 86.4627 211.917 86.7897 211.954 87.1845Z" fill="#F9FFED"/>
<path d="M21.2838 102.071C41.1796 109.29 56.0082 103.52 62.5964 99.1072L60.2248 74.0008C53.9067 83.3919 30.8244 85.8756 19.9299 77.8072L21.2838 102.071Z" fill="#C0FFBE"/>
<path d="M23.3298 100.549C39.9025 106.489 55.0319 100.681 60.5251 97.0351L58.739 78.128C53.4671 85.8812 30.6154 88.2901 21.5437 81.6416L23.3298 100.549Z" fill="#78C476"/>
<ellipse cx="54.0282" cy="91.1596" rx="3.42475" ry="4.98145" transform="rotate(174.604 54.0282 91.1596)" fill="#C0FFBE"/>
<ellipse cx="29.8514" cy="93.4428" rx="3.42475" ry="4.98145" transform="rotate(174.604 29.8514 93.4428)" fill="#C0FFBE"/>
<path d="M40.9144 91.2939C40.9531 91.7037 41.0993 92.0176 41.3531 92.2357C41.6024 92.4592 42.0105 92.6475 42.5776 92.8007C43.1446 92.9539 43.636 93.1117 44.0519 93.2741C44.4682 93.4415 44.8318 93.6416 45.1428 93.8744C45.4492 94.1127 45.6995 94.4017 45.8938 94.7413C46.0831 95.0814 46.2009 95.4964 46.2472 95.9861C46.327 96.8307 46.121 97.5485 45.6293 98.1395C45.1376 98.7305 44.4463 99.1135 43.5554 99.2884L43.707 100.893L42.501 101.007L42.3474 99.3798C41.4462 99.3389 40.7153 99.0348 40.1548 98.4676C39.5947 97.9053 39.2687 97.137 39.1766 96.1624L41.3548 95.9567C41.4115 96.5564 41.5793 96.9918 41.8584 97.2629C42.133 97.5395 42.4788 97.6581 42.8958 97.6187C43.3078 97.5798 43.6158 97.4322 43.8197 97.176C44.0241 96.9247 44.107 96.5942 44.0683 96.1844C44.0324 95.8046 43.893 95.5102 43.6502 95.3012C43.4074 95.0922 42.9757 94.8959 42.3551 94.7125C41.7295 94.5296 41.2131 94.349 40.8059 94.1706C40.3992 93.9973 40.0499 93.7882 39.7581 93.5435C39.4668 93.3038 39.2345 93.0182 39.0612 92.6866C38.8884 92.3601 38.7805 91.9694 38.7376 91.5146C38.6573 90.665 38.8585 89.9502 39.341 89.3702C39.8236 88.7901 40.5277 88.4084 41.4533 88.2252L41.3124 86.7334L42.5108 86.6202L42.651 88.1045C43.6915 88.1171 44.5246 88.404 45.1505 88.9651C45.7718 89.5316 46.1308 90.3271 46.2276 91.3517L44.0494 91.5574C43.9932 90.9627 43.8093 90.5187 43.4977 90.2254C43.1816 89.9377 42.7572 89.8189 42.2246 89.8692C41.7824 89.911 41.4441 90.0589 41.2095 90.313C40.9755 90.5721 40.8771 90.8991 40.9144 91.2939Z" fill="#F9FFED"/>
<path d="M72.4291 157.732C61.8634 139.393 46.8055 134.252 38.9237 133.382L24.562 154.111C35.4445 151 54.6978 163.972 57.8316 177.162L72.4291 157.732Z" fill="#C0FFBE"/>
<path d="M69.8842 157.578C61.0365 142.358 45.7241 137.052 39.1738 136.302L28.3583 151.912C37.3855 149.379 56.4143 162.26 59.0687 173.189L69.8842 157.578Z" fill="#78C476"/>
<ellipse cx="40.3581" cy="144.979" rx="3.42475" ry="4.98145" transform="rotate(34.7153 40.3581 144.979)" fill="#C0FFBE"/>
<ellipse cx="60.32" cy="158.809" rx="3.42475" ry="4.98145" transform="rotate(34.7153 60.32 158.809)" fill="#C0FFBE"/>
<path d="M50.4715 153.327C50.706 152.988 50.7964 152.654 50.7427 152.324C50.6961 151.992 50.5053 151.585 50.1703 151.103C49.8354 150.62 49.5612 150.183 49.3478 149.791C49.1372 149.394 48.9881 149.007 48.9003 148.629C48.8194 148.249 48.8142 147.867 48.8844 147.482C48.9587 147.1 49.136 146.706 49.4162 146.302C49.8993 145.605 50.5193 145.188 51.2761 145.053C52.0329 144.918 52.8083 145.071 53.6024 145.511L54.5201 144.186L55.5157 144.876L54.5852 146.219C55.248 146.831 55.6111 147.535 55.6743 148.329C55.7404 149.12 55.4947 149.918 54.9372 150.723L53.1388 149.477C53.4819 148.982 53.634 148.54 53.5952 148.153C53.5635 147.765 53.3754 147.451 53.0311 147.213C52.6909 146.977 52.3603 146.891 52.0392 146.956C51.721 147.017 51.4447 147.216 51.2103 147.554C50.993 147.868 50.9099 148.183 50.961 148.499C51.012 148.815 51.2158 149.244 51.5722 149.784C51.9328 150.327 52.2114 150.798 52.4079 151.196C52.6073 151.591 52.7397 151.976 52.8052 152.351C52.8736 152.722 52.8672 153.09 52.7861 153.455C52.7079 153.816 52.5387 154.185 52.2786 154.56C51.7926 155.262 51.1782 155.679 50.4354 155.811C49.6926 155.944 48.9082 155.782 48.0822 155.326L47.2289 156.558L46.2394 155.872L47.0885 154.647C46.3009 153.967 45.8485 153.211 45.7314 152.378C45.6212 151.545 45.8592 150.705 46.4452 149.859L48.2437 151.105C47.9035 151.596 47.7581 152.054 47.8074 152.479C47.8638 152.903 48.1118 153.267 48.5516 153.572C48.9167 153.825 49.2708 153.93 49.6139 153.886C49.9598 153.839 50.2457 153.652 50.4715 153.327Z" fill="#F9FFED"/>
<path d="M209.757 168.211C189.149 163.391 179.878 150.46 176.769 143.165L192.467 123.429C192.631 134.746 210.61 149.433 224.143 148.624L209.757 168.211Z" fill="#C0FFBE"/>
<path d="M208.875 165.819C191.748 161.744 182.246 148.617 179.636 142.562L191.458 127.699C191.64 137.073 209.467 151.571 220.697 150.956L208.875 165.819Z" fill="#78C476"/>
<ellipse rx="3.42475" ry="4.98145" transform="matrix(0.782619 0.622501 0.622501 -0.782619 188.286 141.188)" fill="#C0FFBE"/>
<ellipse rx="3.42475" ry="4.98145" transform="matrix(0.782619 0.622501 0.622501 -0.782619 207.292 156.306)" fill="#C0FFBE"/>
<path d="M195.654 152.919C195.91 152.597 196.023 152.269 195.991 151.936C195.966 151.602 195.803 151.184 195.5 150.68C195.198 150.177 194.953 149.722 194.766 149.317C194.582 148.908 194.459 148.511 194.396 148.128C194.341 147.744 194.361 147.362 194.456 146.982C194.556 146.606 194.758 146.225 195.065 145.84C195.593 145.177 196.239 144.802 197.003 144.717C197.767 144.632 198.531 144.835 199.294 145.327L200.297 144.066L201.245 144.82L200.228 146.099C200.849 146.753 201.165 147.479 201.175 148.276C201.189 149.07 200.891 149.85 200.282 150.616L198.57 149.254C198.945 148.782 199.126 148.352 199.112 147.963C199.106 147.574 198.939 147.248 198.612 146.988C198.288 146.73 197.963 146.623 197.639 146.666C197.317 146.705 197.029 146.886 196.772 147.208C196.535 147.507 196.431 147.816 196.461 148.135C196.491 148.454 196.666 148.894 196.986 149.457C197.31 150.022 197.557 150.511 197.727 150.921C197.9 151.328 198.007 151.721 198.047 152.1C198.091 152.475 198.06 152.841 197.955 153.2C197.853 153.556 197.66 153.912 197.376 154.269C196.845 154.937 196.204 155.313 195.454 155.396C194.704 155.48 193.932 155.267 193.138 154.757L192.205 155.93L191.263 155.18L192.191 154.013C191.45 153.283 191.049 152.499 190.987 151.66C190.932 150.821 191.225 149.999 191.865 149.194L193.578 150.556C193.206 151.023 193.031 151.471 193.052 151.898C193.08 152.325 193.304 152.704 193.722 153.037C194.07 153.314 194.416 153.442 194.761 153.421C195.11 153.397 195.407 153.23 195.654 152.919Z" fill="#F9FFED"/>
<path d="M56.7904 210.07C63.9121 190.14 77.8101 182.393 85.41 180.13L103.242 197.962C91.9787 196.843 75.3507 213.044 74.6222 226.581L56.7904 210.07Z" fill="#C0FFBE"/>
<path d="M59.2678 209.464C65.2559 192.909 79.3749 184.954 85.6859 183.046L99.1148 196.475C89.7804 195.595 73.3571 211.666 72.6966 222.893L59.2678 209.464Z" fill="#78C476"/>
<ellipse rx="3.42475" ry="4.98145" transform="matrix(-0.707107 0.707107 0.707107 0.707107 86.0705 191.796)" fill="#C0FFBE"/>
<ellipse rx="3.42475" ry="4.98145" transform="matrix(-0.707107 0.707107 0.707107 0.707107 68.8986 208.968)" fill="#C0FFBE"/>
<path d="M73.5822 197.79C73.8733 198.081 74.1861 198.229 74.5206 198.236C74.8551 198.249 75.2897 198.134 75.8242 197.89C76.3587 197.647 76.838 197.455 77.2619 197.315C77.6893 197.179 78.0971 197.101 78.4851 197.082C78.8731 197.071 79.2502 197.134 79.6164 197.272C79.979 197.413 80.3343 197.658 80.6822 198.005C81.282 198.605 81.5809 199.29 81.5789 200.058C81.5768 200.827 81.2883 201.563 80.7134 202.266L81.8528 203.405L80.9963 204.262L79.8409 203.106C79.1204 203.649 78.3635 203.881 77.57 203.801C76.7801 203.725 76.039 203.341 75.3469 202.649L76.8939 201.101C77.3199 201.527 77.7268 201.756 78.1147 201.787C78.5025 201.825 78.8445 201.696 79.1408 201.4C79.4334 201.107 79.5766 200.797 79.5704 200.47C79.5677 200.146 79.4208 199.838 79.1297 199.547C78.86 199.277 78.5649 199.139 78.2446 199.133C77.9243 199.127 77.4666 199.251 76.8716 199.505C76.2729 199.763 75.7599 199.953 75.3325 200.075C74.9086 200.201 74.5062 200.263 74.1254 200.26C73.7481 200.261 73.3871 200.189 73.0422 200.044C72.7009 199.903 72.3688 199.67 72.0458 199.347C71.4423 198.744 71.1416 198.065 71.1437 197.31C71.1457 196.556 71.4449 195.813 72.0413 195.082L70.9817 194.022L71.8329 193.171L72.8871 194.225C73.6968 193.572 74.5216 193.262 75.3615 193.295C76.2013 193.335 76.9851 193.719 77.7127 194.447L76.1657 195.994C75.7433 195.572 75.3185 195.347 74.8915 195.32C74.4645 195.299 74.0618 195.478 73.6835 195.857C73.3695 196.171 73.2031 196.5 73.1843 196.846C73.1692 197.195 73.3018 197.509 73.5822 197.79Z" fill="#F9FFED"/>
<circle cx="164.657" cy="129.162" r="6.22682" transform="rotate(60 164.657 129.162)" fill="#FFD130"/>
<path d="M163.898 130.749C164.124 130.618 164.266 130.45 164.325 130.244C164.387 130.04 164.387 129.752 164.324 129.382C164.261 129.011 164.221 128.683 164.203 128.398C164.189 128.111 164.207 127.846 164.259 127.604C164.315 127.362 164.415 127.14 164.559 126.937C164.705 126.737 164.913 126.559 165.184 126.403C165.651 126.133 166.121 126.063 166.594 126.194C167.067 126.324 167.473 126.626 167.813 127.099L168.699 126.587L169.088 127.259L168.188 127.778C168.406 128.314 168.425 128.82 168.247 129.296C168.072 129.771 167.715 130.164 167.176 130.475L166.475 129.26C166.807 129.069 167.013 128.856 167.095 128.622C167.182 128.389 167.158 128.156 167.024 127.924C166.891 127.694 166.724 127.554 166.521 127.502C166.321 127.45 166.108 127.489 165.881 127.62C165.671 127.741 165.538 127.9 165.482 128.096C165.427 128.293 165.429 128.596 165.488 129.006C165.55 129.419 165.584 129.768 165.589 130.052C165.598 130.335 165.571 130.593 165.507 130.828C165.446 131.061 165.343 131.272 165.198 131.46C165.056 131.647 164.859 131.813 164.607 131.958C164.138 132.23 163.671 132.301 163.206 132.173C162.742 132.045 162.333 131.736 161.98 131.245L161.155 131.721L160.769 131.053L161.59 130.579C161.319 129.97 161.262 129.409 161.419 128.896C161.58 128.384 161.944 127.965 162.511 127.638L163.212 128.853C162.883 129.042 162.676 129.267 162.589 129.526C162.508 129.786 162.552 130.065 162.724 130.362C162.866 130.608 163.042 130.766 163.252 130.836C163.464 130.904 163.679 130.875 163.898 130.749Z" fill="#BC991E"/>
<circle cx="116.688" cy="221.869" r="6.22682" transform="rotate(60 116.688 221.869)" fill="#FFD130"/>
<path d="M115.928 223.454C116.154 223.323 116.297 223.155 116.355 222.949C116.418 222.745 116.417 222.458 116.354 222.087C116.291 221.716 116.251 221.388 116.234 221.103C116.219 220.816 116.238 220.551 116.289 220.309C116.345 220.067 116.445 219.845 116.589 219.642C116.735 219.442 116.944 219.264 117.214 219.108C117.681 218.838 118.151 218.769 118.624 218.899C119.097 219.029 119.504 219.331 119.843 219.804L120.73 219.292L121.118 219.964L120.219 220.483C120.436 221.019 120.456 221.525 120.277 222.001C120.102 222.476 119.745 222.869 119.207 223.18L118.505 221.966C118.837 221.774 119.044 221.561 119.126 221.327C119.212 221.094 119.188 220.861 119.054 220.629C118.921 220.399 118.754 220.259 118.551 220.208C118.351 220.155 118.138 220.194 117.912 220.325C117.702 220.446 117.569 220.605 117.513 220.801C117.457 220.998 117.459 221.301 117.519 221.711C117.58 222.124 117.614 222.473 117.62 222.757C117.628 223.04 117.601 223.298 117.537 223.533C117.477 223.766 117.374 223.977 117.228 224.165C117.086 224.352 116.889 224.518 116.637 224.663C116.168 224.935 115.701 225.006 115.237 224.878C114.772 224.75 114.363 224.441 114.01 223.95L113.185 224.426L112.8 223.758L113.62 223.284C113.349 222.675 113.292 222.114 113.449 221.601C113.611 221.089 113.975 220.67 114.541 220.343L115.242 221.558C114.913 221.747 114.706 221.972 114.62 222.231C114.538 222.491 114.583 222.77 114.754 223.067C114.896 223.313 115.072 223.471 115.282 223.541C115.494 223.609 115.71 223.58 115.928 223.454Z" fill="#BC991E"/>
<circle cx="117.984" cy="67.6876" r="6.22682" transform="rotate(60 117.984 67.6876)" fill="#FFD130"/>
<path d="M117.225 69.2739C117.451 69.1432 117.594 68.975 117.652 68.7696C117.714 68.5654 117.714 68.2779 117.651 67.9071C117.588 67.5363 117.548 67.2083 117.531 66.9232C117.516 66.6364 117.534 66.3717 117.586 66.1291C117.642 65.8876 117.742 65.6655 117.886 65.4626C118.032 65.2625 118.241 65.0843 118.511 64.928C118.978 64.6584 119.448 64.5888 119.921 64.7192C120.394 64.8495 120.8 65.1511 121.14 65.6239L122.026 65.112L122.415 65.7844L121.516 66.3035C121.733 66.8394 121.752 67.3454 121.574 67.8218C121.399 68.2966 121.042 68.6895 120.503 69.0005L119.802 67.7859C120.134 67.5945 120.34 67.3817 120.423 67.1475C120.509 66.9145 120.485 66.6817 120.351 66.4492C120.218 66.2194 120.051 66.079 119.848 66.0279C119.648 65.9751 119.435 66.0142 119.208 66.145C118.998 66.2662 118.866 66.4251 118.81 66.6218C118.754 66.8184 118.756 67.1217 118.816 67.5317C118.877 67.9445 118.911 68.293 118.917 68.5774C118.925 68.8601 118.898 69.1188 118.834 69.3534C118.774 69.5864 118.671 69.7972 118.525 69.9857C118.383 70.1726 118.186 70.3386 117.934 70.4838C117.465 70.7549 116.998 70.8265 116.533 70.6986C116.069 70.5706 115.66 70.2613 115.307 69.7704L114.482 70.2465L114.096 69.5783L114.917 69.1046C114.646 68.4951 114.589 67.934 114.746 67.4212C114.908 66.9096 115.271 66.4903 115.838 66.1634L116.539 67.378C116.21 67.5678 116.003 67.7922 115.917 68.0511C115.835 68.3113 115.88 68.5899 116.051 68.8869C116.193 69.1335 116.369 69.2915 116.579 69.361C116.791 69.429 117.007 69.3999 117.225 69.2739Z" fill="#BC991E"/>
<circle cx="233.072" cy="145.563" r="6.22682" transform="rotate(60 233.072 145.563)" fill="#FFD130"/>
<path d="M232.313 147.149C232.539 147.018 232.682 146.85 232.74 146.645C232.802 146.44 232.802 146.153 232.739 145.782C232.676 145.411 232.636 145.083 232.618 144.798C232.604 144.511 232.622 144.247 232.674 144.004C232.73 143.763 232.83 143.54 232.974 143.338C233.12 143.137 233.328 142.959 233.599 142.803C234.066 142.533 234.536 142.464 235.009 142.594C235.482 142.725 235.888 143.026 236.228 143.499L237.114 142.987L237.503 143.659L236.603 144.179C236.821 144.714 236.84 145.22 236.662 145.697C236.487 146.172 236.13 146.564 235.591 146.875L234.89 145.661C235.222 145.469 235.428 145.257 235.51 145.022C235.597 144.789 235.573 144.557 235.439 144.324C235.306 144.094 235.139 143.954 234.936 143.903C234.736 143.85 234.523 143.889 234.296 144.02C234.086 144.141 233.953 144.3 233.898 144.497C233.842 144.693 233.844 144.997 233.904 145.407C233.965 145.819 233.999 146.168 234.004 146.452C234.013 146.735 233.986 146.994 233.922 147.228C233.861 147.461 233.758 147.672 233.613 147.861C233.471 148.048 233.274 148.214 233.022 148.359C232.553 148.63 232.086 148.702 231.621 148.574C231.157 148.446 230.748 148.136 230.395 147.645L229.57 148.122L229.184 147.453L230.005 146.98C229.734 146.37 229.677 145.809 229.834 145.296C229.995 144.785 230.359 144.365 230.926 144.038L231.627 145.253C231.298 145.443 231.091 145.667 231.004 145.926C230.923 146.186 230.967 146.465 231.139 146.762C231.281 147.008 231.457 147.167 231.667 147.236C231.879 147.304 232.094 147.275 232.313 147.149Z" fill="#BC991E"/>
<circle cx="78.3761" cy="97.6681" r="6.22682" transform="rotate(60 78.3761 97.6681)" fill="#FFD130"/>
<path d="M77.6173 99.2525C77.8439 99.1217 77.9862 98.9536 78.0444 98.7481C78.107 98.5439 78.1067 98.2564 78.0437 97.8856C77.9806 97.5148 77.9404 97.1868 77.9231 96.9017C77.9086 96.6149 77.9271 96.3502 77.9785 96.1076C78.0343 95.8662 78.1344 95.644 78.2788 95.4411C78.4248 95.241 78.6332 95.0628 78.9039 94.9065C79.3708 94.6369 79.8407 94.5673 80.3138 94.6977C80.7868 94.828 81.193 95.1296 81.5323 95.6024L82.4191 95.0905L82.8073 95.7629L81.9081 96.2821C82.1254 96.8179 82.145 97.3239 81.967 97.8003C81.7917 98.2751 81.4347 98.668 80.896 98.979L80.1948 97.7644C80.5263 97.573 80.7331 97.3602 80.8152 97.126C80.9017 96.893 80.8778 96.6602 80.7435 96.4277C80.6109 96.1979 80.4432 96.0575 80.2406 96.0064C80.0407 95.9537 79.8275 95.9927 79.601 96.1235C79.391 96.2447 79.2581 96.4036 79.2022 96.6003C79.1463 96.7969 79.1483 97.1002 79.2082 97.5102C79.2697 97.923 79.3034 98.2716 79.3092 98.5559C79.3177 98.8386 79.2902 99.0973 79.2268 99.3319C79.1661 99.5649 79.0631 99.7757 78.9178 99.9642C78.7752 100.151 78.5783 100.317 78.3269 100.462C77.8573 100.733 77.3903 100.805 76.926 100.677C76.4617 100.549 76.0529 100.24 75.6995 99.7489L74.8749 100.225L74.4891 99.5568L75.3095 99.0831C75.0387 98.4736 74.9818 97.9125 75.1388 97.3997C75.3001 96.8881 75.664 96.4688 76.2303 96.1419L76.9316 97.3565C76.6028 97.5463 76.3953 97.7707 76.3091 98.0297C76.2273 98.2898 76.2721 98.5684 76.4436 98.8654C76.5859 99.112 76.7619 99.27 76.9715 99.3396C77.1838 99.4075 77.3991 99.3785 77.6173 99.2525Z" fill="#BC991E"/>
<circle cx="170.379" cy="196.344" r="6.22682" transform="rotate(60 170.379 196.344)" fill="#FFD130"/>
<path d="M169.62 197.93C169.847 197.799 169.989 197.631 170.047 197.426C170.11 197.222 170.11 196.934 170.047 196.563C169.984 196.193 169.943 195.865 169.926 195.579C169.912 195.293 169.93 195.028 169.981 194.785C170.037 194.544 170.137 194.322 170.282 194.119C170.428 193.919 170.636 193.741 170.907 193.584C171.374 193.315 171.844 193.245 172.317 193.375C172.79 193.506 173.196 193.807 173.535 194.28L174.422 193.768L174.81 194.441L173.911 194.96C174.128 195.496 174.148 196.002 173.97 196.478C173.795 196.953 173.438 197.346 172.899 197.657L172.198 196.442C172.529 196.251 172.736 196.038 172.818 195.804C172.905 195.571 172.881 195.338 172.746 195.105C172.614 194.876 172.446 194.735 172.244 194.684C172.044 194.631 171.83 194.67 171.604 194.801C171.394 194.922 171.261 195.081 171.205 195.278C171.149 195.475 171.151 195.778 171.211 196.188C171.273 196.601 171.306 196.949 171.312 197.234C171.321 197.516 171.293 197.775 171.23 198.01C171.169 198.243 171.066 198.453 170.921 198.642C170.778 198.829 170.581 198.995 170.33 199.14C169.86 199.411 169.393 199.483 168.929 199.355C168.465 199.227 168.056 198.918 167.702 198.427L166.878 198.903L166.492 198.235L167.312 197.761C167.042 197.151 166.985 196.59 167.142 196.077C167.303 195.566 167.667 195.147 168.233 194.82L168.934 196.034C168.606 196.224 168.398 196.448 168.312 196.707C168.23 196.968 168.275 197.246 168.447 197.543C168.589 197.79 168.765 197.948 168.974 198.017C169.187 198.085 169.402 198.056 169.62 197.93Z" fill="#BC991E"/>
<circle cx="121.103" cy="106.539" r="6.22682" transform="rotate(60 121.103 106.539)" fill="#FFD130"/>
<path d="M120.344 108.124C120.57 107.993 120.713 107.825 120.771 107.619C120.834 107.415 120.833 107.127 120.77 106.757C120.707 106.386 120.667 106.058 120.65 105.773C120.635 105.486 120.654 105.221 120.705 104.979C120.761 104.737 120.861 104.515 121.005 104.312C121.151 104.112 121.36 103.934 121.63 103.778C122.097 103.508 122.567 103.438 123.04 103.569C123.513 103.699 123.92 104.001 124.259 104.474L125.146 103.962L125.534 104.634L124.635 105.153C124.852 105.689 124.872 106.195 124.694 106.671C124.518 107.146 124.161 107.539 123.623 107.85L122.921 106.635C123.253 106.444 123.46 106.231 123.542 105.997C123.628 105.764 123.604 105.531 123.47 105.299C123.337 105.069 123.17 104.929 122.967 104.877C122.767 104.825 122.554 104.864 122.328 104.995C122.118 105.116 121.985 105.275 121.929 105.471C121.873 105.668 121.875 105.971 121.935 106.381C121.996 106.794 122.03 107.143 122.036 107.427C122.044 107.71 122.017 107.968 121.953 108.203C121.893 108.436 121.79 108.647 121.644 108.835C121.502 109.022 121.305 109.188 121.053 109.333C120.584 109.605 120.117 109.676 119.653 109.548C119.188 109.42 118.779 109.111 118.426 108.62L117.601 109.096L117.216 108.428L118.036 107.954C117.765 107.345 117.708 106.784 117.865 106.271C118.027 105.759 118.391 105.34 118.957 105.013L119.658 106.228C119.329 106.417 119.122 106.642 119.036 106.901C118.954 107.161 118.999 107.44 119.17 107.737C119.312 107.983 119.488 108.141 119.698 108.211C119.91 108.279 120.126 108.25 120.344 108.124Z" fill="#BC991E"/>
</svg>
