<svg width="128" height="128" viewBox="0 0 128 128" fill="none" xmlns="http://www.w3.org/2000/svg">
<path d="M32.5803 46.501C32.5803 63.5769 46.423 77.4192 63.499 77.4186C80.5749 77.418 94.4177 63.5748 94.4177 46.4988C94.4177 29.4229 80.5749 15.5806 63.499 15.5812C46.423 15.5818 32.5803 29.425 32.5803 46.501Z" fill="#63A73C"/>
<path fill-rule="evenodd" clip-rule="evenodd" d="M90.8374 46.499C90.8374 31.4003 78.5975 19.1608 63.4988 19.1613C48.4 19.1619 36.1601 31.4022 36.1601 46.501C36.1601 61.5997 48.4 73.8392 63.4988 73.8387C78.5975 73.8381 90.8374 61.5978 90.8374 46.499ZM63.4988 12.0012C82.5519 12.0005 97.9976 27.4456 97.9976 46.4988C97.9976 65.552 82.5519 80.9981 63.4988 80.9988C44.4456 80.9995 29 65.5544 29 46.5012C29 27.448 44.4456 12.0019 63.4988 12.0012Z" fill="#63A73C"/>
<mask id="mask0" mask-type="alpha" maskUnits="userSpaceOnUse" x="25" y="33" width="77" height="77">
<path d="M25 71.5013C25 92.7636 42.2364 109.999 63.4987 109.999C84.7609 109.998 101.997 92.7609 101.997 71.4986C101.997 50.2364 84.7609 33.0006 63.4987 33.0013C42.2364 33.0021 25 50.2391 25 71.5013Z" fill="#3CA3CF"/>
</mask>
<g mask="url(#mask0)">
<path d="M107.581 116.415L107.581 31.1938L19.5072 31.1938L19.5072 116.415L107.581 116.415Z" fill="#23344B"/>
<path d="M65.0519 111.108C65.3198 110.196 65.945 109.606 66.7876 109.231C67.2803 109.011 67.7909 108.833 68.2941 108.636C68.3373 109.467 68.038 110.258 68.0261 111.082L65.0519 111.108Z" fill="#56ABBD"/>
<path d="M90.6111 79.8159L90.6111 82.4C90.6111 83.8495 90.9966 85.1029 92.2486 86.0118C92.9765 86.5405 93.0926 87.035 92.6535 87.8132C92.0967 88.8023 92.0908 89.6964 92.719 90.6498C93.2608 91.4711 93.1551 92.3354 92.6847 93.1745C92.0759 92.6978 91.3033 92.8047 90.5768 93.4581C90.1585 93.8339 89.7894 94.266 89.2058 94.4294C88.8322 94.5334 88.6907 94.4398 88.6982 94.07C88.687 93.8974 88.687 93.7243 88.6982 93.5517C88.8471 92.5745 88.3409 92.0235 87.479 91.725C87.2885 91.6597 87.1217 91.6374 87.0324 91.4057C86.6052 90.2518 86.108 89.1201 86.1541 87.8414C86.1661 87.4716 86.2511 87.1077 86.4042 86.7707C86.8508 85.7816 87.0458 85.7445 87.7633 86.5256C88.0372 86.8227 88.2099 86.7647 88.3588 86.4276C88.7346 85.5723 89.0476 84.6908 89.2951 83.7901C89.6375 82.5856 89.9859 81.3827 90.3193 80.1753C90.361 79.9971 90.3893 79.8382 90.6111 79.8159Z" fill="#56ABBD"/>
<path d="M48.484 104.318C48.6552 104.293 48.8293 104.293 49.0005 104.318C50.4489 104.777 51.4478 104.094 52.3559 103.08C52.8449 102.521 53.3935 102.017 53.9919 101.577C54.3803 101.293 54.8594 101.161 55.3385 101.206C55.8176 101.251 56.2637 101.47 56.5925 101.82C57.3026 102.563 57.7283 103.414 57.7402 104.453C57.1984 104.792 56.594 105.047 56.2442 105.634C55.4999 105.773 54.8538 106.036 54.5695 106.822C53.4322 107.314 52.5286 108.159 51.5103 108.831C50.833 109.277 50.2242 109.823 49.4694 110.153C48.3128 110.657 46.5368 110.204 45.8327 109.216C45.9515 109.244 46.0688 109.278 46.184 109.318C47.564 109.877 48.219 109.479 48.5167 108.043C48.7713 106.782 48.5465 105.557 48.484 104.318Z" fill="#56ABBD"/>
<path d="M37.2309 103.734C36.3884 103.902 35.5935 103.929 34.8849 103.289C34.3833 102.831 34.3356 102.277 34.3714 101.676C34.4071 101.075 34.0811 100.694 33.5497 100.637C32.9914 100.58 32.2829 100.353 32.0045 101.183C31.3555 101.385 31.2841 101.933 31.2483 102.479C31.1158 104.496 31.4508 106.409 32.5017 108.172C32.9676 108.953 33.0599 109.713 32.3677 110.484C32.137 110.741 31.9658 110.849 31.6532 110.848C30.2644 110.84 28.8755 110.848 27.4852 110.848C26.5563 110.848 26.1931 110.355 26.3807 109.421C26.4923 108.862 26.9166 108.625 27.3244 108.348C28.4245 107.606 28.5912 107.143 28.2801 105.848C28.1616 105.393 27.9389 104.973 27.6296 104.619C26.7365 103.528 26.3554 102.306 26.7767 100.907C27.9258 100.552 28.4409 99.6356 28.6895 98.5827C29.0214 97.1778 28.4974 96.0477 27.3736 95.1552C27.0759 94.9146 26.7022 94.7438 26.4804 94.3859C26.2254 94.0005 26.1232 93.5342 26.1936 93.0778C26.2641 92.6213 26.5021 92.2073 26.8615 91.9162C27.4569 91.4009 28.621 91.3965 29.2566 92.041C29.8312 92.6231 30.1111 92.3826 30.4162 91.842C30.6961 91.346 30.9774 90.8455 31.0742 90.2797C31.2647 89.1823 30.8658 88.3491 29.992 87.6408C27.2411 85.4132 26.08 82.1461 26.8258 78.7304C26.9746 78.0829 27.2396 77.48 28.0479 77.4503C28.7386 77.4236 29.2388 77.8884 29.4531 78.7319C29.5409 78.9631 29.5912 79.2067 29.602 79.4537C29.4635 81.2149 30.4847 82.3599 31.6741 83.4247C31.8423 83.5732 32.012 83.744 32.2591 83.6385C32.5062 83.5331 32.4213 83.3074 32.4422 83.1203C32.5717 81.9976 32.6565 80.86 33.3085 79.8813C33.7938 79.1537 34.3892 78.5893 35.3538 78.6428C35.1945 79.4136 35.4268 79.9957 36.174 80.3284C36.1874 80.6254 36.9317 80.4472 36.5357 81.0932C35.7364 82.4015 36.5149 83.5272 38.1032 83.539C38.5185 83.539 38.8386 83.4173 39.0425 83.0713C39.2613 82.6985 39.1035 82.3555 38.8936 82.0317C38.2982 81.163 38.4887 80.612 39.4697 80.2259C39.8285 80.0848 40.2587 80.0848 40.5311 79.7477C41.2962 80.4353 41.7725 80.4204 42.8681 79.6749C43.864 80.9046 43.8163 82.051 42.9306 83.4202C42.1432 84.6335 41.0833 85.5602 39.9208 86.3176C39.0752 86.8685 38.0734 87.2086 37.2026 87.764C36.9213 87.9437 36.5551 88.0358 36.4583 88.4308C36.0609 88.4724 35.8793 88.7739 35.6992 89.0694C35.0375 90.1237 34.8178 91.3953 35.0874 92.6098C35.3925 94.0844 35.8584 95.4893 36.7099 96.7471C36.628 97.0293 36.5953 97.3412 36.4524 97.5877C35.6262 99.0252 35.7423 100.344 36.8766 101.571C37.0165 101.742 37.1345 101.93 37.2279 102.13C37.5167 102.662 37.5792 103.203 37.2309 103.734Z" fill="#56ABBD"/>
<path d="M65.1661 55.1715C65.7228 54.6161 66.5222 54.3695 67.0089 53.722C67.1265 53.5646 67.2977 53.4473 67.4123 53.2884C67.9482 52.5459 67.7979 52.0202 66.9494 51.6771C65.8657 51.2405 64.7999 51.4232 63.7876 51.8732C63.2074 52.1378 62.602 52.3438 61.9805 52.488C61.2824 52.6439 60.7703 52.9662 60.6944 53.7844C60.6423 54.3591 59.0882 55.3942 58.5196 55.3007C58.0209 55.2175 57.7753 54.9621 57.7217 54.4096C57.5747 52.701 56.7611 51.1182 55.4561 50.002C55.1958 49.7904 54.8751 49.6662 54.5399 49.6473C54.2047 49.6283 53.872 49.7156 53.5894 49.8965C53.3885 50.0287 53.2545 50.2737 52.9687 50.2633C52.9776 50.002 53.125 49.8015 53.2664 49.5966C53.7636 48.8332 54.2831 48.0848 54.755 47.3036C54.8928 47.0945 54.9634 46.8483 54.9573 46.5981C54.9512 46.3478 54.8686 46.1054 54.7207 45.9032C54.5765 45.7154 54.3844 45.5697 54.1645 45.4812C53.9445 45.3926 53.7048 45.3645 53.4703 45.3998C52.6903 45.48 51.9892 45.777 51.5426 46.4839C51.3938 46.7111 51.2747 46.9635 50.9621 47.0066L47.1677 45.9255C47.0888 45.2364 47.4089 44.9884 48.0787 45.0612C48.4489 45.0879 48.8205 45.0879 49.1907 45.0612C50.5959 45.0077 51.3744 44.2607 51.495 42.8752C51.5292 42.4846 51.5799 42.094 51.6439 41.7079C51.8002 40.8481 52.5102 40.4219 53.384 40.563C54.2236 40.6996 54.95 41.157 55.7747 41.3188C56.7437 41.5119 57.2632 41.1703 57.5044 40.211C57.606 39.8043 57.6096 39.3793 57.5148 38.971C57.3883 38.3948 57.2528 37.8171 57.2841 37.2201C57.8795 37.0627 58.0179 37.3686 58.0164 37.8943C58.009 40.2437 58.0164 42.593 58.0164 44.9424C57.9962 45.4126 58.052 45.8829 58.1817 46.3354C58.5895 47.5784 59.709 47.865 60.6736 46.968C61.2809 46.4052 61.5801 45.6819 61.7498 44.8889C62.0594 43.4573 61.8049 42.0346 61.6754 40.6105C61.5741 39.4997 61.5101 38.3933 61.9582 37.33C62.2071 37.3241 62.4531 37.384 62.6712 37.5037C64.9383 38.5953 67.1072 37.1518 67.7205 35.0727C68.167 33.5609 67.9318 32.0298 67.9958 30.5061L68.0092 30.5136C71.1035 30.5136 74.1972 30.5111 77.2905 30.5061C77.5748 30.5061 77.8859 30.6146 78.1286 30.3413C78.2238 30.3413 78.3191 30.3413 78.4144 30.3413C77.9916 31.6779 77.5316 32.9981 77.6284 34.4297C77.0062 34.6985 76.2798 34.8098 75.9806 35.5553C75.8317 35.9266 75.8064 36.2845 76.0922 36.5949C76.2157 36.7368 76.3839 36.8326 76.5692 36.8666C76.7545 36.9006 76.9458 36.8708 77.1119 36.782C77.3813 36.6602 77.6418 36.5206 77.9083 36.3899C78.3221 37.0953 78.5454 37.875 78.788 38.6457C78.98 39.2561 78.8327 39.8338 78.4039 40.211C77.5674 40.9535 76.5551 41.4911 75.8198 42.3643C75.7915 42.3985 75.6799 42.3643 75.6054 42.3643C75.528 41.6812 75.1261 41.1867 74.6215 40.7783C74.0261 40.2986 73.1046 40.4531 72.9558 41.0753C72.8067 41.6675 72.7629 42.2812 72.8263 42.8886C72.9513 44.0766 73.1478 45.2854 72.5911 46.4334C72.0864 45.97 71.8974 45.376 71.8468 44.7137C71.7917 43.94 71.945 43.1915 72.0894 42.4386C72.2011 41.8535 72.2383 41.2609 71.9242 40.7085C71.6548 40.2466 71.2722 39.966 70.7199 39.9868C70.1364 40.015 69.8506 40.4219 69.6779 40.9105C69.5451 41.3356 69.4838 41.7796 69.4963 42.2247C69.4963 43.7499 69.8446 45.2082 70.3091 46.6472C69.3594 46.8329 68.8116 47.5234 68.2876 48.2452C67.6639 49.1035 67.9586 50.0391 68.9575 50.4133C69.5042 50.6393 70.0946 50.7408 70.6857 50.7104C70.6925 50.8092 70.6925 50.9085 70.6857 51.0074C70.455 52.6528 70.7571 54.0814 72.3053 55.017C72.3797 55.0616 72.4154 55.1655 72.4675 55.2517C72.4482 55.4447 72.4764 55.66 72.4005 55.8279C71.9941 56.7293 72.2189 57.4792 72.9037 58.1371C72.3559 59.2836 72.2606 60.4984 72.3082 61.7473C72.3335 62.5002 71.9257 62.9175 71.3317 62.8685C70.5532 62.8047 69.8268 62.1022 69.7911 61.3122C69.7533 60.7705 69.7787 60.2263 69.867 59.6905C70.0397 58.7891 69.9831 57.9084 69.2433 57.2253C68.5526 56.5808 67.8113 56.6832 67.3498 57.5045C67.1191 57.9129 66.9524 58.3628 66.6859 58.7445C66.2393 59.392 65.3685 59.3385 64.983 58.6435C64.6674 58.0747 64.4873 57.4807 64.7284 56.808C64.9234 56.2749 65.0246 55.7194 65.1661 55.1715Z" fill="#56ABBD"/>
<path d="M28.4062 53.5679C28.7754 53.5263 29.1386 53.4817 29.4646 53.2708C30.2536 52.7703 30.4501 52.0382 29.7862 51.4397C28.5283 50.3066 28.567 49.509 29.5673 47.7002C29.673 47.8487 29.7698 47.7952 29.8502 47.6779C30 47.4236 30.1666 47.1795 30.3488 46.9472C30.8237 46.426 31.2718 45.7903 32.1352 46.0443C32.9584 46.2878 33.5732 47.1522 33.6357 48.0536C33.6938 48.9046 33.4437 49.7066 33.2799 50.5234C33.1311 51.2243 33.0343 51.9521 33.3395 52.6248C33.7042 53.4238 34.3309 53.8961 35.2643 53.8485C36.1158 55.7792 36.4031 57.6786 35.0231 59.5157C34.3905 60.3578 34.5244 61.3424 34.5244 62.3018C34.5244 63.3414 34.1523 63.9131 33.3931 64.026C32.5416 64.1522 31.7884 63.5493 31.5159 62.6077C31.2182 61.6038 31.571 60.7053 31.9074 59.8083C32.223 58.9707 32.5118 58.1405 32.4374 57.2257C32.3749 56.4564 31.8092 55.7317 31.0976 55.5341C30.4843 55.3633 29.9633 55.5921 29.8115 56.195C29.6626 56.7608 29.4989 57.346 29.676 57.9445C29.694 57.993 29.7089 58.0426 29.7207 58.093C29.7772 58.4687 29.7206 58.9944 29.4363 59.0553C29.0954 59.1281 29.1207 58.592 29.0225 58.3128C28.4851 56.7712 28.3318 55.1836 28.4062 53.5679Z" fill="#56ABBD"/>
<path d="M105.525 58.4427C105.114 59.6308 104.72 60.8322 104.285 62.0158C104.127 62.4435 104.109 62.644 104.669 62.6099C104.906 62.5829 105.146 62.6284 105.357 62.7402C105.568 62.8521 105.741 63.0252 105.851 63.2366C106.149 63.7891 105.894 64.3742 105.273 64.5925C104.916 64.7173 104.38 64.7128 104.498 65.2786C104.624 65.8727 105.136 65.9959 105.669 65.9246C106.312 65.837 106.944 65.7954 107.57 66.0019L107.57 67.19C106.959 67.4535 106.309 67.6156 105.646 67.6697C105.23 67.732 104.837 67.9028 104.708 68.3008C104.566 68.7345 104.349 68.6929 103.999 68.6261C102.793 68.3944 101.736 68.9067 101.128 69.9775C100.956 70.2745 100.806 70.5923 100.607 70.8686C100.15 71.5116 99.4737 71.6958 98.777 71.3973C98.4453 71.2549 98.1735 71.002 98.0082 70.6818C97.8428 70.3616 97.7941 69.994 97.8704 69.6419C97.9731 69.1028 98.2887 68.7018 98.6862 68.3513C99.7387 67.4231 100.356 66.2142 100.813 64.9356C101.284 63.6138 100.764 62.7643 99.3858 62.5148C98.6817 62.3871 97.9642 62.3337 97.2526 62.2475C97.0755 62.1599 96.8909 62.0856 96.7227 61.9847C95.8474 61.4604 95.7819 60.6481 96.547 59.9916C96.9311 59.6757 97.3944 59.4703 97.8868 59.3976C98.4212 59.3011 98.9661 59.2669 99.5049 59.1941C100.373 59.0783 101.043 58.6862 101.395 57.8427C101.493 57.616 101.616 57.4012 101.763 57.2026C102.296 56.4764 103.698 56.2462 104.864 56.6947C105.735 57.0184 105.593 57.7491 105.525 58.4427Z" fill="#56ABBD"/>
<path d="M44.3164 57.2452C43.6034 56.4002 42.6789 56.8769 41.8423 56.8799C41.3124 56.8799 40.7928 57.0715 40.245 56.9675C39.5722 56.8398 39.2863 56.4403 39.2774 55.7794C39.2844 55.3616 39.269 54.9437 39.2313 54.5275C39.2001 54.2228 39.0927 53.9308 38.919 53.6783C38.7452 53.4259 38.5107 53.221 38.2369 53.0825C38.3381 52.729 38.42 52.3667 38.548 52.0221C38.7564 51.4607 38.6269 50.9499 38.3306 50.4746C37.9228 49.8182 37.3392 49.7989 36.8212 50.3751C36.6967 50.4942 36.598 50.6375 36.5312 50.7961C36.4644 50.9547 36.4308 51.1253 36.4326 51.2974C36.2615 51.2825 36.2079 51.1489 36.1215 51.0286C35.9727 50.8088 35.7628 50.5489 35.4829 50.6439C35.331 50.6985 35.1994 50.7983 35.106 50.9297C35.0126 51.0611 34.9618 51.2179 34.9604 51.3791C34.9053 52.2226 35.1748 53.0231 35.2581 53.8473C34.3247 53.8948 33.698 53.4226 33.3333 52.6236C33.0282 51.9508 33.1309 51.2231 33.2738 50.5221C33.4375 49.7053 33.6876 48.9034 33.6296 48.0524C33.567 47.151 32.9522 46.2866 32.129 46.0431C31.2701 45.7891 30.822 46.4247 30.3427 46.946C30.1604 47.1783 29.9938 47.4224 29.844 47.6767C29.7636 47.794 29.6668 47.843 29.5611 47.699C30.2474 45.9064 29.9154 45.1149 28.141 44.3307C27.7808 44.1718 27.4071 44.0337 27.0483 43.8852C26.4961 43.6633 26.0091 43.3057 25.6327 42.8456C25.0982 42.155 25.1667 41.4556 25.8396 40.8986C26.3061 40.5366 26.8206 40.2407 27.3684 40.0195C27.4998 40.2297 27.6887 40.3981 27.9129 40.5047C28.1372 40.6113 28.3873 40.6516 28.6337 40.6209C29.0282 40.5927 29.4257 40.6209 29.8246 40.612C30.9337 40.5808 31.5142 39.8205 31.2522 38.7512C30.8503 37.0789 31.474 35.2552 32.9106 34.3493C33.4599 34.0033 33.1964 33.8681 32.9403 33.6335C32.5677 33.3078 32.2762 32.9001 32.0889 32.4425C31.9016 31.985 31.8236 31.4902 31.8611 30.9974C31.8894 30.5519 31.7271 30.5177 31.3773 30.5207C29.9914 30.5311 28.604 30.5742 27.221 30.5044C26.5065 30.4687 26.0614 30.7464 25.6788 31.2677C25.5371 31.4986 25.3648 31.7094 25.1667 31.8944C24.7782 32.1914 25.0789 32.2999 25.2873 32.4439C24.4924 32.4291 23.7228 32.6206 22.9397 32.7172C22.9308 32.1231 22.9531 31.5291 22.901 30.944C22.8564 30.4212 23.0291 30.2861 23.5516 30.2861C26.767 30.3113 29.9824 30.2861 33.1979 30.3054C34.6299 30.3143 36.0635 30.2088 37.4925 30.3722L37.4925 30.4346L37.4925 30.4969C37.6801 30.9573 38.0984 31.1845 38.4706 31.4534C41.0236 33.2964 40.5249 33.9379 39.8356 35.7394C38.6358 38.8789 41.3898 42.0288 44.041 41.9768C43.8058 42.8471 43.5393 43.71 43.3414 44.5891C43.0987 45.6673 42.4482 46.3713 41.4582 46.7901C41.0077 46.9881 40.5611 47.1925 40.1185 47.4034C39.4307 47.7391 38.8144 48.74 39.0377 49.2628C39.3355 49.9623 39.9652 50.1108 40.6871 50.1286C41.5922 50.1524 42.4839 50.1019 43.2833 49.6831C43.9279 49.343 44.5144 48.9019 45.3034 49.0519L45.412 49.144C45.4344 49.3133 45.5475 49.3638 45.6993 49.3638C45.7291 49.7217 45.9822 49.6697 46.2189 49.6474L46.4571 49.7499C46.5627 50.1479 46.7979 50.335 47.2222 50.2103L47.2356 50.2177C47.1865 50.4717 47.2773 50.5726 47.5333 50.4865L47.5527 50.5162C47.3651 51.0538 47.7358 51.5558 47.6375 52.0949C47.6412 52.1151 47.6389 52.1359 47.631 52.1549C47.6231 52.1739 47.6098 52.1901 47.5929 52.2018C47.1463 52.2018 46.9409 52.3919 47.1031 52.8538L47.0823 52.8731C46.7146 52.7944 46.5642 52.9265 46.664 53.3023L46.6387 53.3156C46.533 53.2993 46.4898 53.3468 46.4898 53.4508L46.4556 53.4107L46.4838 53.4552C46.3796 53.4478 46.335 53.4953 46.3424 53.6037C46.1697 53.5948 46.1415 53.7107 46.134 53.8443C45.7261 53.874 45.6621 54.1414 45.7008 54.474C45.415 55.4809 45.1232 56.4893 44.3164 57.2452Z" fill="#832368"/>
<path d="M100.445 54.7218C99.1422 52.3146 97.8114 49.9192 96.9942 47.2891C96.6637 46.2229 96.9049 45.317 97.7578 44.5462C98.3101 44.0458 98.977 43.5854 98.9621 42.6914C98.9457 41.7603 98.3042 41.0281 97.5539 41.1172C96.8037 41.2063 96.3333 41.9058 96.5119 42.8369C96.5759 43.1711 96.4628 43.3567 96.1919 43.3641C95.8569 43.3745 95.4759 43.324 95.3955 42.8741C95.3062 42.3706 95.4714 41.8954 95.595 41.4187C95.7706 40.743 95.7438 40.0955 95.3389 39.5045C94.9683 38.9669 94.4845 39.007 94.2121 39.604C94.0066 40.0495 93.831 40.5158 93.8935 41.0311C93.9069 41.2036 93.9069 41.3769 93.8935 41.5494C93.8593 42.6557 93.2653 43.3849 92.4913 43.2735C91.6651 43.1532 90.9417 42.0112 91.1337 41.1157C91.2677 40.4891 91.4121 39.8653 91.5594 39.2416C91.8571 37.9823 91.5177 37.0467 90.6142 36.6249C89.6704 36.1868 88.3903 36.5373 87.6891 37.4283C87.4748 37.7001 87.2664 37.9734 87.0565 38.2466C86.7841 38.1382 86.7097 37.7075 86.3122 37.8011C86.5355 37.5041 86.8124 37.2368 86.8957 36.867C87.2426 35.3017 88.1119 34.5429 89.7984 34.8043C90.4832 34.9097 90.897 34.4701 90.9551 33.7513C90.9878 33.3385 90.9878 32.9078 91.3004 32.5737C91.5505 32.6851 91.7753 32.8039 91.8527 33.1128C92.0194 33.7766 92.4481 34.2607 92.9468 34.7181C93.3517 35.0938 93.7744 35.575 94.3312 35.3448C94.8402 35.1354 94.5887 34.5176 94.6289 34.0706C95.199 33.3623 95.7483 32.6376 96.3452 31.9529C96.7441 31.4941 97.7028 31.4436 98.3563 31.7005C99.0097 31.9574 98.8668 32.443 98.8028 32.9242C98.785 33.0959 98.782 33.2688 98.7939 33.441C98.8371 34.4567 99.7466 35.3508 100.665 35.2572C101.488 35.1725 102.096 34.4746 101.841 33.2004C101.665 32.3094 101.317 31.454 101.32 30.5273C103.106 30.5273 104.884 30.5273 106.665 30.5184C106.926 30.5184 107.216 30.6105 107.432 30.3699C107.707 31.0768 107.501 31.8148 107.559 32.5381C107.578 32.7816 107.356 32.7965 107.204 32.8351C106.569 33.0326 106.223 33.4603 106.118 34.1078C105.969 35.0166 105.381 35.4636 104.504 35.5928C104.087 35.6537 103.669 35.7057 103.257 35.7888C102.142 36.0146 101.564 36.6012 101.47 37.5709C101.372 38.5926 101.784 39.2208 102.855 39.6752C103.242 39.8386 103.644 39.9723 104.014 40.1712C104.915 40.642 105.205 41.3355 105.003 42.3335C104.872 42.9483 104.556 43.4844 104.3 44.0428C104.044 44.6012 103.819 45.1269 103.883 45.7476C103.988 46.7768 104.684 47.2876 105.69 47.0664C107.565 46.6669 107.565 46.6669 107.565 48.5514L107.565 65.9919C106.938 65.7855 106.307 65.8271 105.664 65.9147C105.131 65.986 104.622 65.8627 104.492 65.2687C104.373 64.7029 104.91 64.7074 105.268 64.5826C105.888 64.3643 106.141 63.7792 105.845 63.2268C105.735 63.0153 105.563 62.8423 105.352 62.7304C105.141 62.6185 104.901 62.5731 104.663 62.6001C104.104 62.6357 104.121 62.4352 104.279 62.006C104.714 60.818 105.108 59.6299 105.519 58.433C105.874 58.9127 105.92 59.4725 105.948 60.0428C106.018 61.4863 106.518 62.7976 107.213 64.0524C107.283 60.4319 107.283 56.8069 107.283 53.1833C107.283 52.8952 107.103 52.8106 106.881 52.7378C105.9 52.4022 105.542 51.6225 105.324 50.6854C105.119 49.8152 105.062 48.9153 104.525 48.1089C103.843 47.0857 102.823 47.0337 102.091 47.4035C101.433 47.7361 101.301 48.8885 101.773 49.8137C102.109 50.4716 102.517 51.0983 102.678 51.8289C102.865 52.6591 102.14 53.657 101.351 53.4462C100.458 53.2071 100.607 53.7061 100.586 54.1768C100.585 54.3669 100.625 54.5748 100.445 54.7218Z" fill="#832368"/>
<path d="M80.1909 88.8613C80.6881 89.5311 81.3312 89.5475 82.0383 89.2683C83.7725 88.5836 84.9307 89.3752 84.9619 91.2717C84.9708 91.8405 84.9619 92.4093 84.9619 92.9781C84.9619 93.7592 85.2328 94.4201 85.8655 94.9087C86.7111 95.5681 86.9373 96.4339 86.7587 97.4631C86.5994 98.3542 85.9653 98.7358 85.1927 98.9363C84.5272 99.1101 84.1104 98.6883 84.0717 97.873C84.03 97.0101 84.1759 96.1384 84.0003 95.2859C83.7412 94.0355 82.5771 93.4771 81.3431 93.8528C79.7056 94.3503 79.3215 96.3775 79.841 97.7839C80.5422 99.6804 81.9534 100.87 83.573 101.923C84.3531 102.429 85.0289 103.087 84.9545 104.131C84.8652 105.377 84.0032 106.09 83.0193 106.656C81.9102 107.293 80.767 107.865 80.2028 109.127C79.7726 110.091 80.2028 110.836 81.2344 110.838C82.3494 110.838 83.4673 110.838 84.5808 110.838C84.8428 110.838 85.1406 110.767 85.3013 111.082C83.0103 111.104 80.7193 111.156 78.4298 111.059C78.4298 111.036 78.4402 111.003 78.4298 110.986C77.4518 109.678 77.3268 108.313 77.7733 106.717C78.1008 105.55 77.7421 104.271 77.6691 103.044C77.5322 100.715 77.818 98.4893 78.9464 96.3923C79.4421 95.4745 79.448 94.4498 79.3781 93.382C79.2932 92.084 78.9895 90.7222 79.6758 89.4643C79.7865 89.2185 79.9652 89.0094 80.1909 88.8613Z" fill="#832368"/>
<path d="M27.375 40.0237C26.8271 40.2449 26.3126 40.5408 25.8462 40.9029C25.1733 41.4598 25.1018 42.1593 25.6392 42.8499C26.0157 43.31 26.5027 43.6676 27.0549 43.8894C27.4137 44.0498 27.7873 44.1865 28.1476 44.335C29.922 45.1191 30.254 45.9107 29.5677 47.7032C28.5674 49.5061 28.5257 50.3096 29.7865 51.4427C30.4505 52.0368 30.254 52.7793 29.465 53.2738C29.139 53.4803 28.7758 53.5248 28.4066 53.5709C27.2336 53.4016 26.6024 52.5744 26.0724 51.6402C25.8104 51.1739 25.5797 50.6883 25.3281 50.213C25.0771 49.4924 24.7215 48.8124 24.2727 48.1948C23.9303 47.6913 23.57 47.1819 22.9136 47.0304L22.9344 32.7229C23.7174 32.6264 24.487 32.4348 25.282 32.4496C26.3676 32.3238 27.4057 31.9342 28.3054 31.315C28.8889 30.9304 28.9797 31.2556 29.0006 31.7219C29.0273 32.2997 28.6701 32.7392 28.4125 33.2071C28.3592 33.2302 28.3132 33.2673 28.2791 33.3143C28.2451 33.3613 28.2243 33.4166 28.219 33.4744L28.2399 33.4566L28.0776 33.6259L28.0776 33.6051L27.5357 34.0951L27.5209 34.1085C26.1811 35.2417 25.9772 36.4342 27.4003 37.5064C27.6585 37.7349 27.8984 37.9832 28.1178 38.249C28.5004 39.097 27.9853 39.5797 27.375 40.0237Z" fill="#832368"/>
<path d="M100.882 111.085C98.8976 111.095 96.9128 111.106 94.928 111.118C94.9235 111.086 94.9235 111.054 94.928 111.022C94.9429 110.725 95.2257 110.589 95.3537 110.355C95.8003 109.534 96.3958 108.764 96.1293 107.734C96.36 106.728 96.2916 105.654 97.21 104.854C98.2104 103.976 98.0541 103.448 96.8185 102.858C95.7497 102.347 95.6991 102.144 96.3958 101.166C97.8948 101.814 99.5219 100.817 99.5383 99.2358C99.5457 98.6952 99.5115 98.1517 99.6871 97.6274C101.347 98.0893 101.85 98.6774 102.078 100.382C102.252 101.694 102.355 103.027 103.133 104.172C103.156 105.022 103.117 105.852 102.444 106.499C102.216 106.719 101.944 106.878 101.75 107.153C101.121 108.044 101.006 109.058 101.018 110.107C100.417 110.35 100.997 110.766 100.882 111.085Z" fill="#832368"/>
<path d="M101.031 110.105C101.015 109.056 101.134 108.048 101.764 107.151C101.957 106.876 102.23 106.717 102.457 106.497C103.13 105.85 103.169 105.02 103.147 104.17C104.385 104.648 105.019 103.916 104.921 102.777C104.85 101.944 104.726 101.117 104.748 100.272C104.769 99.4743 105.179 99.0095 105.825 98.6575C106.471 98.3055 106.826 98.7585 107.294 99.1818L107.294 82.6421L107.531 82.6421C107.541 82.8634 107.56 83.0876 107.56 83.3074C107.562 92.3389 107.569 101.368 107.581 110.394C107.581 110.969 107.452 111.15 106.849 111.137C104.967 111.085 103.083 111.103 101.192 111.094C101.07 110.779 101.015 110.442 101.031 110.105Z" fill="#832368"/>
<path d="M96.4019 101.166C95.7052 102.143 95.7558 102.347 96.8247 102.858C98.0602 103.452 98.2165 103.976 97.2162 104.853C96.2977 105.66 96.3662 106.728 96.1369 107.733C95.9942 107.99 95.7896 108.208 95.5415 108.367C94.425 109.071 94.1853 109.824 94.6483 111.121C91.9479 111.121 89.2471 111.125 86.5457 111.133C86.2975 111.156 86.0481 111.104 85.8297 110.984C85.6064 110.363 85.0124 109.796 85.5573 109.067C85.657 108.972 85.7567 108.875 85.855 108.78C86.4753 108.485 87.1797 108.417 87.8453 108.587C88.3633 108.709 88.8873 108.791 89.4158 108.884C89.517 108.893 89.6197 108.902 89.7135 108.909C90.2777 108.988 90.7957 108.899 91.2215 108.483C91.7604 108.208 92.0343 107.72 92.2293 107.185C92.5121 106.414 92.4392 105.658 92.1444 104.895C91.9435 104.377 91.7157 103.804 92.393 103.41C92.7265 103.397 93.1225 103.432 93.2594 103.057C93.3964 102.681 93.0957 102.442 92.8515 102.209C92.5136 101.695 92.5166 101.184 92.92 100.714C93.1919 100.378 93.5371 100.107 93.9295 99.9236C94.3218 99.7399 94.7509 99.6477 95.1842 99.6541C96.1191 99.6764 96.5508 100.232 96.4019 101.166Z" fill="#832368"/>
<path d="M93.7369 31.3551C94.0465 31.0744 94.4812 30.8799 94.4812 30.3705L94.63 30.3616C94.8191 30.5918 95.0766 30.5205 95.3223 30.5205C97.2813 30.5205 99.2393 30.5205 101.196 30.5205C101.238 30.5205 101.28 30.5309 101.323 30.5353C101.323 31.4576 101.668 32.3175 101.844 33.2085C102.098 34.4827 101.491 35.1808 100.668 35.2654C99.7494 35.359 98.8399 34.4649 98.7967 33.4491C98.7848 33.2769 98.7878 33.104 98.8056 32.9323C98.8697 32.4452 99.0111 31.9655 98.3591 31.7086C97.707 31.4516 96.7469 31.5021 96.3479 31.961C95.7525 32.6457 95.2017 33.3704 94.6315 34.0788C94.3442 33.161 94.2251 32.1957 93.7369 31.3551Z" fill="#832368"/>
<path d="M81.1086 32.0919L81.1473 32.132C80.933 32.2583 80.9523 32.4603 80.9687 32.6622C80.3881 33.9493 79.2746 34.5434 77.6282 34.4444C77.5315 33.0142 77.9915 31.6895 78.4142 30.3573L78.5631 30.3573C78.8438 30.4926 79.1519 30.5619 79.4636 30.5598C79.7753 30.5578 80.0825 30.4844 80.3613 30.3455C80.5102 30.3455 80.6501 30.3455 80.7945 30.3455C81.0218 30.8989 81.1289 31.4942 81.1086 32.0919Z" fill="#832368"/>
<path d="M22.9196 47.0227C23.576 47.1712 23.9363 47.6836 24.2787 48.187C24.7275 48.8047 25.0831 49.4847 25.3341 50.2053C24.8399 50.8587 24.6985 51.7275 23.9943 52.2681C23.6579 52.525 23.3557 52.6943 22.9389 52.6453L22.9196 47.0227Z" fill="#832368"/>
<path d="M94.6572 111.12C94.1898 109.824 94.4294 109.071 95.5504 108.367C95.7985 108.208 96.0031 107.99 96.1458 107.733C96.4182 108.764 95.8094 109.533 95.3687 110.354C95.2437 110.589 94.9579 110.719 94.943 111.021L94.7941 111.122C94.7486 111.117 94.7028 111.117 94.6572 111.12Z" fill="#832368"/>
<path d="M85.5661 109.065C85.0212 109.795 85.6152 110.362 85.8385 110.983C85.7045 111.055 85.575 111.151 85.4068 111.085C85.5825 110.754 85.2341 110.554 85.2029 110.273C85.1537 109.818 84.8337 109.291 85.5661 109.065Z" fill="#832368"/>
<path d="M65.1662 55.1714C65.0248 55.7194 64.9236 56.2793 64.733 56.805C64.4919 57.4777 64.672 58.0717 64.9876 58.6405C65.3731 59.334 66.2395 59.383 66.6905 58.7415C66.957 58.3598 67.1237 57.9098 67.3544 57.5015C67.8159 56.6802 68.5572 56.5777 69.2479 57.2223C69.9922 57.9113 70.0443 58.786 69.8716 59.6875C69.7833 60.2233 69.7579 60.7675 69.7957 61.3091C69.8314 62.0992 70.5578 62.7942 71.3363 62.8655C71.9318 62.9145 72.3382 62.4972 72.3129 61.7443C72.2697 60.4953 72.365 59.2805 72.9083 58.1341C73.6436 58.2915 74.2897 58.7415 75.0608 58.7801L75.0771 58.8276C75.0695 58.8457 75.0659 58.8653 75.0667 58.885C75.0675 58.9046 75.0726 58.9238 75.0817 58.9413C75.0908 58.9587 75.1037 58.974 75.1193 58.9859C75.135 58.9978 75.1531 59.0061 75.1724 59.0103C75.4016 59.4647 75.3064 59.928 75.1724 60.378C75.0116 60.9215 74.7913 61.4472 74.6365 61.9923C74.4519 62.6457 74.3254 63.3288 74.9342 63.8486C75.5639 64.3936 76.2739 64.2599 76.9557 63.957C77.3012 63.8152 77.5995 63.5789 77.8161 63.2754C78.8581 61.7472 79.9969 60.2904 81.4423 59.1053C81.4983 59.0548 81.5482 58.998 81.5911 58.936C82.4843 57.7554 82.4232 56.7441 81.3589 55.7253C80.7216 55.1383 80.177 54.4583 79.7438 53.7086C80.0281 53.0166 80.6801 52.6364 81.1282 52.0854C81.5271 51.5954 82.1553 51.2063 82.2535 50.5737C82.4286 49.5476 82.3582 48.4948 82.0481 47.5011C81.5807 46.0932 82.005 44.9765 82.9026 43.9726C83.3849 43.438 83.8597 42.8053 84.6799 42.7043C84.3346 43.7038 83.9356 44.6884 83.6543 45.7071C83.108 47.7387 83.2985 49.8089 83.4265 51.8775C83.5486 53.8482 83.6275 55.8248 82.9353 57.7302C82.6145 58.6616 82.4022 59.6268 82.3027 60.6067C82.1538 61.8645 82.6153 62.9353 83.4206 63.8738C83.888 64.4144 84.4001 64.9134 84.8987 65.4257C85.5582 66.0984 85.9407 66.9375 86.2012 67.8018C86.4271 68.5867 86.8877 69.2841 87.5216 69.8007C87.733 69.9759 87.6347 70.0041 87.4606 70.0487C86.362 69.7725 85.3855 69.2334 84.4834 68.58C82.8594 67.4053 81.2726 66.1801 79.6575 64.9936C79.071 64.5614 78.4339 64.8837 78.3624 65.6262C78.3498 65.8117 78.3741 65.9979 78.4339 66.174C78.4937 66.3501 78.5878 66.5127 78.7107 66.6524L79.4788 67.6414C78.9638 67.6578 78.4651 67.6221 77.956 67.8553C76.6446 68.4493 76.1772 69.6373 75.7381 70.8566C75.3317 71.9808 74.5472 72.6609 73.404 73.0129C71.8931 73.4777 70.3554 73.2134 68.8311 73.2757C67.737 73.3203 66.9763 73.8698 66.695 74.8855C66.6116 75.1825 66.7888 75.539 66.5178 75.8033C65.0412 74.8707 64.8998 72.8584 66.2067 71.4357C67.2279 70.3205 68.5765 69.774 69.9445 69.2527C70.25 69.155 70.546 69.0297 70.8287 68.8785C71.3855 68.5414 71.9303 68.1701 71.8707 67.3934C71.8112 66.6167 71.2962 66.1816 70.6888 65.895C68.9189 65.0604 67.1415 65.1792 65.5294 66.241C63.9173 67.3028 63.304 68.8844 63.4023 70.7749C63.4112 70.9531 63.6151 71.1848 63.3606 71.3036C63.2461 71.3533 63.1213 71.3749 62.9968 71.3666C62.8722 71.3584 62.7514 71.3205 62.6446 71.256C62.0099 70.9036 61.5316 70.3257 61.3049 69.6373C61.0747 68.9595 60.7215 68.3298 60.2629 67.7795C59.7701 67.2048 59.0794 67.037 58.5555 67.3815C58.091 67.6889 57.9958 68.4211 58.3798 69.0507C58.6775 69.5304 58.9529 70.0101 59.4144 70.3873C59.6538 70.5856 59.8517 70.8291 59.9968 71.1038C60.1419 71.3785 60.2313 71.679 60.2599 71.9882C60.3477 72.7886 60.0366 73.1302 59.2179 73.1421C58.9708 73.1421 58.7222 73.1421 58.4736 73.1421C58.682 72.0015 58.0091 71.1655 57.4643 70.2908C56.6084 68.9156 56.6441 68.13 57.6876 66.8751C58.2696 66.1727 58.8576 65.4718 59.4828 64.8079C60.4817 63.7476 60.4355 62.5982 59.8416 61.3923C59.6257 60.9468 59.3742 60.531 59.2774 60.0409C59.1137 59.2078 59.3131 58.5365 59.9339 57.8965C61.3897 56.3877 63.2132 55.6704 65.1662 55.1714Z" fill="#832368"/>
<path d="M62.5965 83.1884C62.6426 83.2686 62.7453 83.3577 62.7275 83.4275C62.4119 85.2927 63.0148 86.9678 63.7784 88.6163C64.1818 89.4895 64.5942 90.3612 64.9335 91.2597C65.2733 92.1116 65.4074 93.0314 65.325 93.9446C65.2015 95.1208 65.7225 95.8425 66.7913 96.3059C67.6621 96.6846 68.4183 97.2474 68.7651 98.1993C68.694 98.5098 68.5456 98.7973 68.3335 99.0354C68.1215 99.2734 67.8526 99.4542 67.5519 99.5611C66.8449 99.0696 66.4191 98.3374 65.9354 97.6573C65.2372 96.6786 64.4632 95.8039 63.2366 95.4728C61.943 95.1238 60.7685 95.8203 60.5944 97.1063C60.5178 97.7191 60.5283 98.3395 60.6256 98.9493C60.7864 100.005 60.7953 101.057 60.3949 102.068C59.6848 101.771 59.3053 101.202 59.0552 100.504C58.4865 98.8973 57.3954 97.7969 55.694 97.534C54.1176 97.2934 52.6766 97.5801 51.6138 99.0087C50.5822 100.397 49.6786 100.714 48.5205 100.255C47.9439 100.031 47.3998 99.7309 46.9025 99.3636C46.109 98.78 45.4347 98.0375 44.5416 97.5815C44.8393 96.4618 45.1787 95.345 45.2323 94.1808C45.3171 92.3393 45.5657 90.5647 46.6152 88.9652C46.8343 88.6459 46.9684 88.2762 47.0049 87.891C47.0413 87.5057 46.9789 87.1175 46.8236 86.7629C46.5482 86.1169 46.3547 86.0961 45.9304 86.6367C45.5717 87.0926 45.0611 87.2856 44.5044 87.3287C44.1591 87.354 43.8121 87.336 43.4713 87.2752C41.9738 87.0079 40.8737 87.5515 40.0803 88.8256C39.6784 89.4716 39.3063 90.1488 38.7049 90.6478C37.6123 90.2409 36.6417 89.7107 36.4482 88.4054C36.539 88.0103 36.9052 87.9183 37.1925 87.7386C38.0633 87.1832 39.0651 86.8476 39.9106 86.2921C41.0732 85.5348 42.1331 84.6081 42.9205 83.3948C43.8062 82.0315 43.8539 80.8791 42.858 79.6495L43.4237 78.607C44.3659 78.1392 44.7634 77.3016 44.9361 76.3304C45.0656 75.576 45.1206 74.7978 45.5598 74.1444C45.9334 73.589 46.5154 73.2845 47.1644 73.4761C47.7465 73.6469 47.9087 74.1874 47.9266 74.7859C47.9445 75.3844 47.7941 75.974 48.0755 76.5413C48.0677 76.8112 48.0138 77.0779 47.9162 77.3298C47.3207 79.2842 47.1168 81.2311 48.0993 83.1438C48.2603 83.4636 48.4852 83.7471 48.7602 83.977C49.0351 84.2068 49.3542 84.3781 49.698 84.4804C50.7981 84.8368 51.1077 85.4367 50.807 86.552C50.5629 87.4535 50.3947 88.3757 50.1446 89.2741C49.8558 90.3137 50.1029 91.2701 50.5658 92.1834C50.9975 93.0343 51.7954 93.3462 52.6915 93.4694C53.5876 93.5927 54.1414 93.0343 54.4659 92.3809C54.8232 91.6636 54.8306 90.8364 54.6922 90.0048C54.4763 88.6979 54.5522 87.4431 55.7104 86.5045C56.1033 86.1867 56.5023 85.9194 57.0203 85.8808C57.5056 85.7313 57.9903 85.5828 58.4746 85.4353L58.6235 85.56C58.3972 85.8199 58.1129 86.0486 57.9566 86.3456C57.5711 87.0718 57.9164 87.6539 58.7009 87.6896C58.9883 87.6882 59.2701 87.7683 59.5136 87.9205C59.7571 88.0727 59.9523 88.2908 60.0763 88.5494C60.3443 89.084 60.1656 89.5608 59.8337 89.9988C59.3335 90.6597 58.6428 91.1156 58.0042 91.6176C57.3656 92.1195 56.7434 92.6645 56.4144 93.4457C56.0244 94.3694 56.3162 95.3287 57.1141 95.7683C57.8435 96.1693 58.6175 95.9376 59.14 94.9768C59.7861 93.7887 60.7328 92.9853 61.8954 92.369C62.2218 92.1917 62.5299 91.9828 62.8153 91.7453C63.6727 91.0443 63.8692 90.2469 63.4107 89.2355C63.1651 88.6979 62.8495 88.196 62.5623 87.6718C61.7093 86.1689 61.6423 84.6734 62.5965 83.1884Z" fill="#832368"/>
<path d="M45.9535 60.0498C46.4626 59.4439 46.6799 58.7132 46.8466 57.9618C47.1146 56.8093 47.6356 55.9242 48.8607 55.5336C49.6274 55.2886 49.8194 54.7911 49.6467 54.0114C49.5976 53.7946 49.5247 53.5837 49.4696 53.3683C49.148 52.1387 49.5113 51.558 50.7617 51.31C51.5492 51.1615 52.2578 50.8644 52.5257 50.0313C52.8026 49.1714 52.3769 48.4957 51.8395 47.8838C51.5641 47.5734 51.244 47.3017 50.9463 47.0121C51.2589 46.969 51.3825 46.715 51.5269 46.4893C51.9735 45.7824 52.6746 45.4854 53.4546 45.4052C53.6892 45.3699 53.9289 45.398 54.1488 45.4865C54.3687 45.5751 54.5608 45.7208 54.7051 45.9086C54.853 46.1108 54.9355 46.3533 54.9416 46.6035C54.9478 46.8538 54.8772 47.0999 54.7393 47.3091C54.2734 48.0902 53.7539 48.8387 53.2507 49.6021C53.1152 49.807 52.9679 50.0075 52.953 50.2689C52.7193 50.2927 52.6061 50.3714 52.8041 50.5956C51.8499 51.3233 51.6742 52.4995 51.1875 53.4827C50.2437 55.3925 49.7807 57.4657 49.4488 59.5553C49.1882 61.1889 49.4279 62.8433 49.3862 64.4888C49.3594 65.5893 48.6687 65.9918 47.6981 65.4645C47.4468 65.3312 47.2273 65.1452 47.0546 64.9194C46.882 64.6936 46.7603 64.4332 46.6978 64.1562C46.4 63.023 46.3777 61.8661 46.4105 60.7062C46.4358 60.3587 46.4298 60.0394 45.9535 60.0498Z" fill="#832368"/>
<path d="M60.871 82.9248C61.1925 83.6094 60.8516 84.101 60.3693 84.5243C59.8513 84.9787 59.2112 85.2431 58.6083 85.5638L58.4594 85.4391C58.6351 85.1243 59.0325 84.9683 59.0876 84.5673C59.7769 84.1321 60.3811 83.5755 60.871 82.9248Z" fill="#832368"/>
<path d="M55.6504 79.5259C56.1757 79.5505 56.6869 79.7035 57.139 79.9714C57.0631 80.457 56.7535 81.011 56.3947 81.0199C55.9243 81.0288 55.8454 80.3872 55.7323 79.9491C55.6876 79.8125 55.6742 79.6684 55.6504 79.5259Z" fill="#832368"/>
<path d="M59.0923 84.5659C59.0372 84.9669 58.6457 85.1228 58.4641 85.4377C57.9788 85.5862 57.494 85.7347 57.0097 85.8832C57.5262 85.1674 58.3718 84.9639 59.0923 84.5659Z" fill="#832368"/>
<path d="M52.8194 50.5927C52.6245 50.3685 52.7376 50.2958 52.9682 50.2661C52.9749 50.3288 52.9646 50.3922 52.9385 50.4496C52.9123 50.5071 52.8712 50.5565 52.8194 50.5927Z" fill="#832368"/>
<path d="M45.7921 60.203L45.9684 60.0435L45.7921 60.203Z" fill="#832368"/>
<path d="M107.292 82.6418L107.292 99.1814C106.825 98.7582 106.453 98.3156 105.823 98.6572C105.193 98.9988 104.768 99.474 104.747 100.272C104.724 101.117 104.848 101.944 104.919 102.777C105.018 103.916 104.383 104.648 103.145 104.17C102.371 103.025 102.264 101.691 102.089 100.381C101.862 98.675 101.359 98.0869 99.6913 97.6251C99.3221 96.7414 98.9247 95.8667 98.7624 94.9132C98.4364 92.9559 98.6493 91.5643 100.774 90.8574C101.015 90.794 101.229 90.6536 101.383 90.4576C101.537 90.2616 101.622 90.0208 101.627 89.7718C101.667 89.1555 101.696 88.5302 101.396 87.9585C101.228 87.6392 101.231 87.2991 101.178 86.959C101.041 86.0679 101.368 85.3536 101.938 84.7105C102.673 84.611 103.218 84.9096 103.656 85.4858C103.909 85.8184 104.212 86.2001 104.687 85.9759C104.9 85.8735 105.078 85.7093 105.196 85.5047C105.313 85.3001 105.367 85.0647 105.348 84.8294C105.356 84.7563 105.356 84.6826 105.348 84.6096C105.041 83.3561 105.854 82.4354 107.292 82.6418Z" fill="#832368"/>
<path d="M101.934 84.7107C101.364 85.3537 101.041 86.0636 101.175 86.9591C101.227 87.2992 101.224 87.6393 101.393 87.9586C101.69 88.5304 101.664 89.1556 101.623 89.7719C101.619 90.0205 101.534 90.2611 101.381 90.457C101.227 90.6529 101.014 90.7936 100.773 90.8575C98.6491 91.5645 98.4362 92.956 98.7696 94.9134C98.9319 95.8668 99.3294 96.7415 99.6985 97.6252C99.5169 98.1494 99.5497 98.693 99.5497 99.2336C99.5288 100.818 97.9122 101.815 96.4072 101.164C96.556 100.233 96.1243 99.6791 95.2059 99.6628C94.7725 99.6564 94.3434 99.7485 93.9511 99.9323C93.5588 100.116 93.2136 100.386 92.9417 100.723C92.5382 101.192 92.5353 101.703 92.8732 102.217C92.6246 102.581 92.4147 102.96 92.4147 103.419C91.7374 103.812 91.9681 104.385 92.1661 104.904C92.4638 105.667 92.5338 106.423 92.2509 107.194C92.0559 107.728 91.782 108.217 91.2431 108.492C92.0678 107.67 91.4917 106.817 91.3101 105.967C90.6965 103.178 90.7255 100.287 91.395 97.5108C91.6034 96.6495 91.7671 95.7376 92.2614 94.9579C92.6573 96.0183 93.092 96.2663 94.1847 95.9856C95.0051 95.7961 95.7823 95.454 96.4757 94.9772C97.8005 94.0149 97.8273 92.6827 96.5516 91.6758C96.4161 91.5689 96.2747 91.4679 96.1377 91.3625C95.0957 90.5531 94.929 90.0779 95.2862 88.8096C95.3532 88.5734 95.4351 88.3433 95.5185 88.1116C96.5962 88.4086 97.2676 87.923 97.3272 86.775C97.3867 85.627 97.2512 84.4716 97.0979 83.3236C96.9863 82.4964 96.9193 81.6528 97.1664 80.8345C97.5043 79.7207 98.1876 79.4979 99.1105 80.2227C100.034 80.9345 100.768 81.8623 101.247 82.9241C101.498 83.5077 101.705 84.1137 101.934 84.7107Z" fill="#832368"/>
<path d="M96.872 63.1917C96.872 62.8263 96.8021 62.4283 97.2531 62.2412C97.9647 62.3273 98.6822 62.3808 99.3863 62.5085C100.765 62.758 101.284 63.6075 100.814 64.9293C100.357 66.2154 99.7391 67.4242 98.6867 68.345C98.2892 68.6955 97.9736 69.0965 97.8709 69.6356C97.794 69.9884 97.8428 70.357 98.0087 70.6779C98.1747 70.9988 98.4476 71.252 98.7804 71.3939C99.4771 71.691 100.153 71.5083 100.61 70.8652C100.809 70.5846 100.96 70.2712 101.131 69.9742C101.74 68.9034 102.797 68.3911 104.003 68.6227C104.352 68.6896 104.57 68.7311 104.711 68.2975C104.841 67.8995 105.234 67.7287 105.649 67.6663C106.046 68.3242 105.746 68.9123 105.32 69.3489C103.98 70.7286 103.872 72.2093 104.671 73.8949C105.036 74.6627 105.403 75.4572 105.371 76.3646C105.335 77.3255 104.653 78.2715 103.702 78.4438C102.568 78.6442 101.43 78.524 100.547 77.7354C98.6122 76.0052 96.9212 74.0419 95.6722 71.7548C94.779 70.1212 95.0767 69.0816 96.5803 67.9856C97.9632 66.9698 98.0689 66.649 97.4973 64.9901C97.2933 64.3887 97.0804 63.7902 96.872 63.1917Z" fill="#832368"/>
<path d="M93.0657 78.1747C93.7073 77.3847 93.5852 76.5857 93.0791 75.7986C92.762 75.2981 92.3973 74.8377 92.0995 74.3253C91.6917 73.6333 91.4803 72.8981 91.8197 72.0977C91.8882 73.4001 92.9213 74.0684 93.6775 74.9194C94.0496 75.3382 94.4814 75.7094 94.4992 76.3421C94.5275 77.2941 94.0348 77.9431 93.0657 78.1747Z" fill="#832368"/>
<path d="M94.928 86.0617C94.1271 85.337 93.3619 84.5959 93.5882 83.3647C94.6436 83.8533 95.2748 85.1231 94.928 86.0617Z" fill="#832368"/>
<path d="M90.7598 70.2595C89.8234 70.2387 88.8781 70.4436 87.9507 70.1555C88.9362 69.4917 89.95 69.5244 90.7598 70.2595Z" fill="#832368"/>
<path d="M70.5152 79.5186C71.2297 78.987 71.9681 78.6632 72.827 79.2216C73.4627 79.633 73.5713 80.3696 73.0593 80.9206C72.7932 81.2123 72.5034 81.4815 72.1929 81.7255C71.3711 82.3478 71.2059 82.8898 71.6212 83.7453C71.8922 84.3066 72.8121 84.6363 73.5565 84.4878C74.2606 84.3393 74.859 84.0631 75.2386 83.4022C75.3681 83.178 75.5616 82.9567 75.8757 82.9463C75.6956 83.6383 75.7447 84.366 75.5125 85.0551C75.1552 86.117 74.6699 86.4779 73.5609 86.515C71.9621 86.5699 70.5256 86.1972 69.3198 85.0923C68.5949 84.4269 68.2912 83.6071 68.3031 82.6418L68.8985 81.3305C69.622 80.8849 70.3068 80.4142 70.5152 79.5186Z" fill="#832368"/>
<path d="M79.8342 76.9821C79.8724 76.9219 79.9285 76.8752 79.9947 76.8486C80.0608 76.822 80.1337 76.8168 80.203 76.8337C80.1242 76.988 79.9755 76.9776 79.8342 76.9821Z" fill="#832368"/>
<path d="M70.3668 103.721C70.4382 103.609 70.471 103.424 70.6733 103.553C70.6213 103.692 70.5022 103.716 70.3668 103.721Z" fill="#832368"/>
<path d="M59.54 78.6566L59.3801 78.6566C59.4378 78.5044 59.4897 78.5709 59.54 78.6566Z" fill="#832368"/>
<path d="M62.7224 82.9238L62.8073 82.793C62.9102 82.9208 62.7746 82.8985 62.7224 82.9238Z" fill="#832368"/>
<path d="M75.8164 42.5632C75.0155 42.884 74.889 43.1691 75.2016 43.9696C75.2731 44.1523 75.3683 44.326 75.4472 44.5072C75.8849 45.5171 75.7033 46.3027 74.9083 46.8359C74.173 47.3289 73.3646 47.1908 72.5906 46.4423C73.1473 45.2943 72.9508 44.078 72.8258 42.8974C72.7624 42.29 72.8062 41.6763 72.9553 41.084C73.1041 40.4618 74.0271 40.3073 74.621 40.787C75.1257 41.1954 75.5276 41.69 75.605 42.3731C75.6154 42.5038 75.7241 42.529 75.8164 42.5632Z" fill="#832368"/>
<path d="M75.8167 42.5631C75.7199 42.5289 75.6157 42.5037 75.6053 42.373C75.6797 42.373 75.7914 42.4116 75.8196 42.373C76.555 41.4997 77.5673 40.9621 78.4039 40.2196C78.8326 39.8394 78.98 39.2647 78.788 38.6543C78.5453 37.882 78.322 37.1038 77.9082 36.3984C78.166 36.0473 78.4908 35.7506 78.8639 35.5251C78.9175 36.5825 79.44 37.2167 80.5192 37.3474C80.3183 38.1701 79.958 39.0122 80.8051 39.7087C80.2945 41.2131 79.6484 42.5972 77.9082 43.0383C77.7974 43.0601 77.6974 43.1192 77.6251 43.2057C77.5527 43.2922 77.5123 43.4009 77.5107 43.5135C76.9927 43.1081 76.4836 42.6967 75.8167 42.5631Z" fill="#832368"/>
<path d="M70.3203 46.6558C70.9045 47.9283 71.0373 49.3612 70.697 50.719C70.1059 50.7495 69.5155 50.648 68.9687 50.422C67.9698 50.0477 67.675 49.1121 68.2988 48.2537C68.8228 47.532 69.3706 46.8414 70.3203 46.6558Z" fill="#832368"/>
<path d="M72.4762 55.2539C72.5962 55.321 72.6979 55.4162 72.7726 55.5314C72.8473 55.6466 72.8928 55.7782 72.905 55.9148C72.9809 56.8459 73.5451 57.4311 74.2656 57.9301C74.5871 58.1528 74.9101 58.3964 75.0635 58.7855C74.2939 58.7469 73.6478 58.2969 72.9124 58.1395C72.2276 57.4816 72.0029 56.7316 72.4093 55.8301C72.4852 55.6623 72.4495 55.447 72.4762 55.2539Z" fill="#832368"/>
<path d="M28.4184 33.2045C28.6759 32.7322 29.0332 32.2926 29.0064 31.7194C28.9855 31.253 28.8947 30.9278 28.3112 31.3124C27.4116 31.9316 26.3734 32.3212 25.2878 32.4471C25.0794 32.2985 24.7787 32.202 25.1672 31.8976C25.3656 31.7111 25.5379 31.4988 25.6793 31.2664C26.0619 30.7451 26.507 30.4674 27.2215 30.5031C28.6044 30.5729 29.9918 30.5298 31.3778 30.5194C31.7276 30.5194 31.8898 30.5491 31.8616 30.9961C31.824 31.4889 31.902 31.9837 32.0894 32.4412C32.2767 32.8987 32.5682 33.3065 32.9408 33.6322C33.1969 33.8668 33.4603 34.002 32.911 34.348C31.4745 35.2539 30.8508 37.0776 31.2527 38.7499C31.5102 39.8206 30.9341 40.581 29.8281 40.6166C29.4321 40.63 29.0347 40.5973 28.6372 40.6256C28.3907 40.6562 28.1406 40.6159 27.9164 40.5093C27.6922 40.4028 27.5032 40.2344 27.3719 40.0241C27.9822 39.5786 28.4973 39.0974 28.1162 38.242C28.3692 37.6984 28.2531 37.1459 28.1787 36.5861C28.0641 35.7292 27.5029 34.9955 27.5192 34.1074L27.5341 34.094C27.8542 34.0837 28.1207 34.0139 28.076 33.604L28.076 33.6248L28.2397 33.454L28.2204 33.4718C28.3678 33.4391 28.405 33.3307 28.4184 33.2045Z" fill="#832368"/>
<path d="M89.4203 108.887C88.8963 108.789 88.3678 108.707 87.8498 108.59C87.1842 108.42 86.4798 108.488 85.8595 108.783C85.8699 108.635 85.8416 108.476 85.995 108.387C86.5368 108.072 88.9127 108.425 89.4203 108.887Z" fill="#832368"/>
<path d="M91.2407 108.486C90.815 108.902 90.2969 108.991 89.7327 108.912C90.2329 108.761 90.7063 108.517 91.2407 108.486Z" fill="#832368"/>
<path d="M93.7371 31.3555C94.2313 32.196 94.3504 33.1614 94.6436 34.0688C94.599 34.5143 94.8506 35.1336 94.3459 35.343C93.7892 35.5732 93.3664 35.092 92.9615 34.7163C92.4688 34.2589 92.0341 33.7747 91.8674 33.1109C91.7899 32.802 91.5696 32.6832 91.3151 32.5718C91.9373 31.8159 92.9094 31.7357 93.7371 31.3555Z" fill="#832368"/>
<path d="M26.0345 99.2639C26.0949 99.8755 26.3567 100.45 26.7789 100.898C26.3576 102.297 26.7372 103.519 27.6318 104.61C27.9411 104.964 28.1638 105.384 28.2824 105.838C28.5935 107.133 28.4312 107.595 27.3267 108.339C26.9188 108.616 26.4945 108.853 26.3829 109.412C26.1953 110.346 26.5585 110.837 27.4874 110.839C28.8763 110.839 30.2652 110.839 31.6556 110.839C31.9682 110.839 32.1394 110.732 32.3701 110.475C33.0623 109.704 32.9656 108.944 32.5041 108.163C31.4531 106.4 31.1182 104.487 31.2507 102.47C31.2864 101.924 31.3579 101.376 32.0069 101.174C32.8525 101.362 33.4285 102.106 33.4807 103.124C33.5223 103.96 33.6414 104.789 33.6459 105.631C33.6459 106.314 33.887 106.937 34.609 107.252C35.331 107.567 35.9488 107.438 36.5442 106.97C37.028 106.587 37.5178 106.213 37.9912 105.818C39.3429 104.692 40.5963 104.554 41.9867 105.521C43.0763 106.28 43.8251 107.389 44.7242 108.38C44.4503 108.503 44.3402 108.339 44.2017 108.249C43.0108 107.459 41.7336 106.934 40.2539 106.957C37.8349 106.994 36.44 108.755 37.0429 111.082C32.4892 111.082 27.9355 111.082 23.3818 111.114C22.8697 111.114 22.9099 110.848 22.9099 110.52C22.9099 107.927 22.9099 105.334 22.9099 102.742C22.9099 102.472 22.895 102.2 22.8861 101.93L22.9322 100.593C22.9799 100.606 23.0454 100.606 23.0707 100.638C24.0353 101.879 24.534 101.826 25.3855 100.489C25.6371 100.093 25.445 99.4689 26.0345 99.2639Z" fill="#832368"/>
<path d="M26.0355 99.2646C25.44 99.4696 25.638 100.093 25.3849 100.493C24.5334 101.829 24.0347 101.887 23.0701 100.641C23.0448 100.61 22.9793 100.61 22.9317 100.597L22.884 99.4087L22.884 97.3295L22.9123 84.0452C22.9123 83.625 22.9242 83.2047 22.9317 82.7844C23.5986 82.7591 23.9603 83.2507 24.3131 83.6754C25.504 85.0922 26.4136 86.6204 26.5103 88.5555C26.5669 89.6887 26.095 90.4862 25.2182 91.0371C24.0526 91.7797 24.0496 92.791 24.6391 93.8588C25.1884 94.8524 25.7288 95.8593 26.025 96.933C26.2245 97.6548 26.0444 98.4835 26.0355 99.2646Z" fill="#832368"/>
<path d="M27.5298 34.1057C27.5134 34.9968 28.0746 35.7275 28.1893 36.5844C28.2637 37.1442 28.3798 37.6967 28.1267 38.2403C27.9074 37.9744 27.6675 37.7261 27.4092 37.4977C25.9861 36.4314 26.1856 35.2389 27.5298 34.1057Z" fill="#832368"/>
<path d="M28.0913 33.6021C28.1359 34.0118 27.8696 34.0815 27.5497 34.0919L28.0913 33.6021Z" fill="#832368"/>
<path d="M28.4185 33.2041C28.4051 33.3302 28.3679 33.4385 28.2266 33.4711C28.2313 33.4134 28.2516 33.3581 28.2854 33.3111C28.3192 33.264 28.3652 33.2271 28.4185 33.2041Z" fill="#832368"/>
<path d="M28.2401 33.4539L28.0787 33.6223L28.2401 33.4539Z" fill="#832368"/>
<path d="M80.5192 37.3522C79.44 37.2215 78.9175 36.5873 78.8639 35.5299C79.3417 35.1512 79.8464 34.924 80.3957 35.3725C80.872 35.7631 80.9033 36.47 80.5192 37.3522Z" fill="#832368"/>
<path d="M92.4093 103.42C92.4093 102.962 92.6192 102.583 92.8678 102.219C93.1119 102.452 93.4096 102.703 93.2757 103.067C93.1417 103.431 92.7427 103.407 92.4093 103.42Z" fill="#832368"/>
<path d="M75.082 58.8325L75.1768 59.0143C75.1576 59.0101 75.1396 59.0019 75.124 58.99C75.1084 58.9781 75.0956 58.963 75.0865 58.9456C75.0775 58.9283 75.0724 58.9091 75.0716 58.8896C75.0708 58.87 75.0743 58.8505 75.082 58.8325Z" fill="#832368"/>
<path d="M40.5179 79.7462C40.2455 80.0833 39.8153 80.0833 39.4566 80.2244C38.4755 80.6105 38.291 81.1615 38.8805 82.0303C39.0963 82.3496 39.2541 82.6926 39.0293 83.0698C38.8254 83.4159 38.5053 83.5421 38.09 83.5377C36.5016 83.5258 35.7231 82.4001 36.5225 81.0917C36.9184 80.4457 36.1741 80.6194 36.1607 80.3269C37.1804 80.3595 37.5481 80.1249 37.8831 79.1982C38.0662 78.6917 38.1808 78.1512 38.608 77.7695C39.1841 77.2556 39.7989 77.3938 40.0535 78.1229C40.2455 78.6502 40.3676 79.2026 40.5179 79.7462Z" fill="#832368"/>
<path d="M75.7939 79.4117C76.0038 78.7598 75.8073 78.1271 75.5468 77.5672C74.5047 75.3173 75.5765 74.4143 77.482 73.4178C78.2189 73.0317 79.0153 72.7614 79.6911 72.255C79.9218 72.0812 80.0901 71.8956 80.1154 71.603C80.7465 72.0486 80.9788 72.653 80.8373 73.397C80.6885 74.1841 80.1704 74.6505 79.4217 74.8391C78.9468 74.9579 78.4481 74.9876 77.9628 75.0648C77.6456 75.1031 77.332 75.1667 77.025 75.2549C75.9398 75.6113 75.6093 76.2633 75.9264 77.3623C76.1244 78.0618 76.4816 78.7687 75.7939 79.4117Z" fill="#832368"/>
<path d="M75.205 80.0185C75.1217 79.664 75.367 79.6758 75.5975 79.6714C75.5592 79.7528 75.5046 79.8256 75.4371 79.8853C75.3696 79.945 75.2906 79.9903 75.205 80.0185Z" fill="#832368"/>
<path d="M79.3619 70.8799C79.2012 70.8472 79.1759 70.7315 79.1715 70.583C79.2264 70.6116 79.2729 70.6541 79.3063 70.7062C79.3397 70.7583 79.3589 70.8181 79.3619 70.8799Z" fill="#832368"/>
<path d="M79.7345 71.2096C79.6155 71.1873 79.51 71.1488 79.4906 71.0063C79.5724 71.0731 79.6542 71.1413 79.7345 71.2096Z" fill="#832368"/>
<path d="M79.959 71.4649C79.8103 71.4516 79.7746 71.3462 79.7523 71.2261L79.959 71.4649Z" fill="#832368"/>
<path d="M75.5975 79.6701C75.6065 79.5396 75.6317 79.4209 75.7938 79.4016C75.7906 79.4605 75.7703 79.5172 75.7355 79.5648C75.7006 79.6124 75.6527 79.649 75.5975 79.6701Z" fill="#832368"/>
<path d="M80.1031 71.6129C80.0608 71.6119 80.0204 71.5948 79.9902 71.5652C79.9599 71.5356 79.9421 71.4956 79.9402 71.4534L80.1031 71.6129Z" fill="#832368"/>
<path d="M74.8765 80.3034L75.0424 80.1409L74.8765 80.3034Z" fill="#832368"/>
<path d="M79.5079 71.0231C79.4531 70.9685 79.3969 70.9153 79.3406 70.8606C79.3969 70.9138 79.4472 70.9758 79.5079 71.0231Z" fill="#832368"/>
<path d="M74.7165 80.4719L74.8845 80.2761L74.7165 80.4719Z" fill="#832368"/>
<path d="M75.0298 80.1567C75.032 80.1139 75.0503 80.0736 75.0811 80.0437C75.1119 80.0138 75.1528 79.9967 75.1957 79.9956C75.1409 80.0503 75.0861 80.1035 75.0298 80.1567Z" fill="#832368"/>
<path d="M45.8275 109.21L45.6382 109.157L45.6737 109.099L45.829 109.209L45.8275 109.21Z" fill="#832368"/>
<path d="M22.9331 65.117L22.9331 52.6425C23.3499 52.6915 23.6521 52.5222 23.9885 52.2653C24.6971 51.7247 24.8385 50.856 25.3282 50.2025C25.5739 50.6777 25.8046 51.1634 26.0725 51.6297C26.6025 52.5682 27.2336 53.3954 28.4066 53.5602C28.3322 55.176 28.4855 56.7635 29.0169 58.3005C29.1152 58.5827 29.0899 59.1188 29.4308 59.0431C29.7151 58.9822 29.7716 58.4491 29.7151 58.0808C29.7034 58.0304 29.6884 57.9808 29.6704 57.9323C29.4933 57.3382 29.663 56.7442 29.8059 56.1829C29.9547 55.5799 30.4787 55.3512 31.092 55.522C31.805 55.7195 32.3707 56.4442 32.4317 57.2135C32.5062 58.1283 32.2174 58.9584 31.9018 59.796C31.5654 60.687 31.217 61.5914 31.5103 62.5953C31.7827 63.5369 32.5359 64.1398 33.3874 64.0136C34.1466 63.9007 34.5187 63.3364 34.5187 62.2894C34.5187 61.3301 34.3847 60.3455 35.0174 59.5034C36.3973 57.6664 36.11 55.7641 35.2585 53.8365C35.1752 53.0123 34.9057 52.2118 34.9608 51.3683C34.9622 51.2072 35.013 51.0504 35.1064 50.919C35.1998 50.7875 35.3314 50.6878 35.4833 50.6332C35.7632 50.5382 35.976 50.798 36.1219 51.0178C36.2082 51.1455 36.2618 51.2718 36.433 51.2866C36.494 52.4227 37.0478 52.9692 38.2372 53.0687C38.511 53.2072 38.7455 53.4121 38.9192 53.6645C39.093 53.917 39.2004 54.209 39.2315 54.5137C39.2692 54.9298 39.2847 55.3477 39.2777 55.7656C39.2866 56.4205 39.5754 56.8199 40.2452 56.9536C40.793 57.0576 41.3126 56.8675 41.8425 56.866C42.6791 56.866 43.6035 56.3863 44.3165 57.2313C44.0188 57.763 43.5931 58.2263 43.5365 58.8723C43.4889 59.4084 43.5365 59.9118 43.9965 60.2697C44.4564 60.6276 44.9566 60.5667 45.4553 60.3366C45.5654 60.2861 45.6785 60.24 45.7902 60.1881L45.9688 60.0277L45.9524 60.0277C46.4288 60.0173 46.4347 60.3366 46.4243 60.6811C46.3916 61.8409 46.4243 62.9978 46.7116 64.1309C46.7741 64.408 46.8958 64.6683 47.0685 64.8941C47.2411 65.1199 47.4606 65.3059 47.7119 65.4392C48.6825 65.9664 49.3732 65.564 49.4 64.4635C49.4417 62.8181 49.202 61.1637 49.4625 59.5302C49.7945 57.4407 50.2574 55.372 51.2012 53.4578C51.6879 52.4747 51.8636 51.2985 52.8177 50.5708C52.8695 50.5346 52.9107 50.4852 52.9368 50.4277C52.963 50.3703 52.9733 50.3069 52.9666 50.2441C53.2524 50.2545 53.3864 50.0095 53.5873 49.8773C53.8699 49.6963 54.2026 49.6091 54.5378 49.628C54.8731 49.647 55.1937 49.7711 55.454 49.9827C56.759 51.099 57.5726 52.6817 57.7196 54.3904C57.7747 54.9369 58.0173 55.1923 58.5175 55.2814C59.0861 55.375 60.6402 54.3399 60.6923 53.7652C60.7682 52.9469 61.2877 52.6247 61.9784 52.4687C62.5999 52.3245 63.2053 52.1185 63.7856 51.8539C64.7978 51.4084 65.8696 51.2213 66.9473 51.6579C67.7958 52.0009 67.9461 52.5192 67.4102 53.2692C67.2956 53.4281 67.1244 53.5454 67.0068 53.7028C66.5201 54.3503 65.7207 54.5938 65.164 55.1522C63.211 55.6512 61.3875 56.3685 59.9376 57.8654C59.3169 58.5055 59.1174 59.1767 59.2811 60.0098C59.3779 60.4999 59.6295 60.9217 59.8453 61.3612C60.4407 62.5701 60.4854 63.7195 59.4866 64.7769C58.8614 65.4407 58.2734 66.1416 57.6913 66.8441C56.6493 68.1049 56.6121 68.8905 57.468 70.2597C58.0129 71.1344 58.6857 71.9705 58.4773 73.111C58.5086 73.8194 58.132 74.3288 57.6318 74.7446C56.1432 75.9905 55.4778 77.5662 55.6475 79.4968C55.6713 79.6453 55.6847 79.7834 55.7205 79.923C55.8336 80.3611 55.9125 81.0026 56.3829 80.9937C56.7461 80.9937 57.0557 80.4309 57.1272 79.9453C57.4442 79.9066 57.5053 79.5977 57.6839 79.4151C58.1602 78.9324 58.6038 78.3845 59.4106 78.6488C59.3466 78.8864 59.1129 78.9636 58.9641 79.124C58.1766 79.9779 57.8878 81.2209 59.4851 81.5803C59.8165 81.6467 60.1223 81.8056 60.3668 82.0385C60.6114 82.2714 60.7846 82.5688 60.8665 82.8961C60.3778 83.5458 59.7751 84.1018 59.0876 84.537C58.3671 84.935 57.5216 85.1385 57.0036 85.8573C56.4856 85.8959 56.0866 86.1632 55.6937 86.481C54.5356 87.4195 54.4596 88.6744 54.6755 89.9813C54.8139 90.8084 54.8065 91.6356 54.4492 92.3574C54.1247 93.0108 53.565 93.5692 52.6748 93.4459C51.7847 93.3226 50.9808 93.0108 50.5492 92.1598C50.0862 91.2465 49.8391 90.2931 50.1279 89.2506C50.378 88.3522 50.5462 87.4299 50.7903 86.5285C51.088 85.4132 50.7814 84.8133 49.6813 84.4569C49.3376 84.3546 49.0184 84.1833 48.7435 83.9534C48.4685 83.7236 48.2436 83.4401 48.0826 83.1203C47.1001 81.2075 47.31 79.2592 47.8995 77.3063C47.9971 77.0544 48.051 76.7877 48.0588 76.5177C48.3639 76.5059 48.3446 76.2341 48.4339 76.0499C48.8656 75.1663 48.812 74.2159 48.806 73.2729C49.6724 73.2536 50.2946 72.8051 50.7963 72.1442C51.1866 71.6001 51.4696 70.9867 51.6299 70.3369C51.9939 69.0169 52.7582 67.8415 53.8181 66.9718C54.4224 66.4594 55.0089 65.9233 55.4406 65.2476C55.7041 64.8318 56.0792 64.2779 55.7666 63.9037C55.454 63.5294 54.8333 63.822 54.3867 64.0165C53.4474 64.4294 52.6957 65.1274 51.8695 65.7154C50.7843 66.4892 49.8049 67.4203 48.5545 67.943C46.7339 68.7123 45.6383 68.1524 45.2215 66.2411C45.0995 65.6857 45.0012 65.1244 44.6857 64.6328C44.0902 63.7017 43.3459 63.574 42.4602 64.2437C41.9631 63.8784 41.4689 63.5012 40.9717 63.1463C40.2527 62.6235 39.1928 62.8166 38.8251 63.5339C36.7694 63.2057 35.4744 64.2333 35.4744 66.2397C35.4744 66.7966 35.6232 67.352 35.7111 67.9089C34.8477 68.3544 34.0051 68.2059 33.1328 67.891C32.3886 67.6282 31.6443 67.3772 30.8211 67.4544C30.053 67.5257 29.7329 67.7975 29.7642 68.5667C29.8076 69.3929 29.6417 70.2167 29.2819 70.9621C29.1762 71.1866 29.1384 71.4369 29.1732 71.6824C28.685 71.9438 28.2369 72.2437 28.094 72.8289C27.122 73.1645 26.1857 73.5714 25.0945 73.4526C24.0778 73.3442 23.5434 73.0308 23.1936 72.0284C23.1789 71.9692 23.1476 71.9154 23.1033 71.8733C23.059 71.8312 23.0036 71.8026 22.9435 71.7908L22.8944 68.5237L22.9376 68.0782C23.1981 68.0306 23.2204 67.8316 23.2026 67.6326C23.1594 67.1559 23.2949 66.6971 23.4125 66.256C23.5643 65.7065 23.4199 65.3605 22.9331 65.117Z" fill="#63A73C"/>
<path d="M80.1911 88.861C79.816 87.8527 79.3411 86.8829 79.2979 85.7677C79.2503 84.5796 79.8249 83.8371 80.8654 83.4539C81.3432 83.2757 81.5904 83.0084 81.7005 82.5392C81.7359 82.3436 81.8204 82.1601 81.9461 82.006C82.5416 81.3882 82.3823 80.6903 82.1248 80.0309C81.8062 79.2201 81.8032 78.3899 81.8464 77.5553C81.8762 77.0088 81.7109 76.7771 81.1438 76.8395C80.8229 76.8571 80.5012 76.8546 80.1807 76.8321C80.2372 76.6658 80.3995 76.645 80.5305 76.5915C81.5204 76.1846 82.4314 76.5187 83.3156 76.9256C84.4633 77.4499 85.5127 77.4914 86.5815 76.6687C87.4419 76.0079 88.3902 76.094 89.261 76.7578C90.2658 77.5271 90.6349 78.5874 90.6111 79.8156C90.3923 79.8378 90.364 79.9967 90.3134 80.1749C89.98 81.3823 89.6316 82.5852 89.2893 83.7896C89.0409 84.6882 88.7275 85.5677 88.3515 86.4211C88.2026 86.7582 88.0344 86.8176 87.756 86.5191C87.0385 85.738 86.8406 85.7766 86.397 86.7641C86.2438 87.1012 86.1588 87.465 86.1469 87.8349C86.1007 89.1076 86.5934 90.2392 87.0251 91.399C87.1115 91.6307 87.2782 91.6529 87.4717 91.7183C88.3336 92.0153 88.8337 92.5677 88.6908 93.5449C88.6797 93.7175 88.6797 93.8906 88.6908 94.0632C88.6908 94.433 88.8248 94.5265 89.1985 94.4226C89.782 94.2592 90.1511 93.8286 90.5694 93.4513C91.2959 92.7979 92.0684 92.691 92.6772 93.1677C92.4599 93.7469 92.2456 94.3275 92.2575 94.9602C91.7633 95.7398 91.5995 96.6516 91.3911 97.513C90.7216 100.289 90.6926 103.18 91.3063 105.969C91.4879 106.818 92.064 107.672 91.2393 108.493C90.7049 108.525 90.2315 108.768 89.7314 108.92C89.6301 108.912 89.5274 108.903 89.4336 108.894C88.9186 108.433 86.5428 108.079 86.0099 108.39C85.8611 108.479 85.8849 108.642 85.8745 108.786C85.7732 108.881 85.6735 108.978 85.5767 109.073C84.8444 109.294 85.1644 109.826 85.2135 110.28C85.2448 110.561 85.5931 110.761 85.4175 111.092C85.4111 111.1 85.4029 111.107 85.3936 111.111C85.3844 111.116 85.3742 111.118 85.3639 111.118C85.3536 111.118 85.3434 111.116 85.3341 111.111C85.3249 111.107 85.3167 111.1 85.3103 111.092C85.1495 110.778 84.8518 110.85 84.5898 110.849C83.4749 110.849 82.357 110.849 81.2435 110.849C80.2119 110.849 79.7817 110.106 80.2119 109.138C80.7761 107.876 81.9193 107.304 83.0283 106.667C84.0182 106.1 84.8801 105.387 84.9635 104.142C85.0379 103.103 84.368 102.44 83.5821 101.934C81.9625 100.881 80.5513 99.6916 79.8502 97.7951C79.3307 96.3947 79.7103 94.3617 81.3522 93.8642C82.5862 93.4885 83.7503 94.0469 84.0093 95.2973C84.1849 96.1497 84.0391 97.0214 84.0807 97.8842C84.1194 98.6995 84.5362 99.1213 85.2016 98.9475C85.9742 98.7471 86.6083 98.3699 86.7676 97.4744C86.9492 96.4452 86.723 95.5794 85.8745 94.9201C85.2418 94.427 84.9813 93.7662 84.9709 92.9895C84.9709 92.4207 84.9709 91.8519 84.9709 91.2832C84.9396 89.3867 83.78 88.5952 82.0473 89.2798C81.3358 89.5471 80.6927 89.5308 80.1911 88.861Z" fill="#63A73C"/>
<path d="M105.525 58.4426C105.594 57.749 105.735 57.0213 104.866 56.6857C103.702 56.2402 102.298 56.4674 101.765 57.1936C101.618 57.3922 101.495 57.607 101.397 57.8337C101.044 58.6772 100.374 59.0693 99.5066 59.1851C98.9677 59.2579 98.4229 59.2921 97.8884 59.3886C97.396 59.4613 96.9328 59.6667 96.5487 59.9826C95.7835 60.6465 95.849 61.4514 96.7243 61.9757C96.8925 62.0766 97.0771 62.1509 97.2543 62.2385C96.8077 62.4256 96.8777 62.8237 96.8732 63.189C95.1702 62.892 94.417 63.4667 94.1937 65.2117C94.1251 65.7736 94.0257 66.3314 93.8959 66.8825C93.5982 68.1225 92.5458 68.6928 91.4129 68.1611C89.9168 67.4822 88.6611 66.3682 87.8104 64.9652C87.2046 63.9598 87.4487 62.4405 88.1409 61.4871C88.9001 60.4475 89.902 59.6277 90.6954 58.6149C91.5633 57.5055 92.1111 56.261 92.2183 54.9021C92.3269 53.5135 92.516 52.1249 92.312 50.7007C92.1571 49.4993 92.2877 48.2783 92.6931 47.1365C93.0698 46.0419 93.6593 45.6053 94.6284 45.6721C95.4218 45.7271 96.0798 46.4533 96.2867 47.4186C96.4207 48.0364 96.3432 48.6275 96.306 49.2453C96.1661 51.5502 96.3909 53.8284 97.1426 56.0278C97.339 56.6414 97.7067 57.1865 98.2025 57.599C98.4657 57.8276 98.7902 57.9743 99.1359 58.0211C99.4817 58.0678 99.8336 58.0124 100.148 57.8619C100.806 57.5649 100.959 56.9055 100.805 55.9966C100.73 55.5511 100.559 55.1486 100.44 54.7239C100.62 54.5754 100.577 54.3689 100.589 54.1759C100.617 53.7051 100.456 53.2061 101.354 53.4452C102.143 53.6561 102.868 52.6581 102.68 51.8279C102.514 51.0972 102.112 50.4705 101.775 49.8126C101.303 48.8904 101.436 47.7335 102.094 47.4023C102.826 47.0325 103.846 47.0845 104.528 48.1077C105.065 48.9141 105.123 49.8141 105.327 50.6844C105.549 51.6215 105.903 52.4012 106.884 52.7368C107.106 52.8125 107.286 52.8972 107.286 53.1823C107.286 56.806 107.286 60.4297 107.215 64.0637C106.519 62.8044 106.024 61.493 105.949 60.0539C105.926 59.4822 105.879 58.9223 105.525 58.4426Z" fill="#63A73C"/>
<path d="M84.6811 42.7046C83.8609 42.8056 83.386 43.4383 82.9037 43.9729C82.0105 44.9694 81.5818 46.0936 82.0492 47.5015C82.3593 48.4953 82.4297 49.5481 82.2547 50.5742C82.1564 51.2069 81.5282 51.596 81.1293 52.086C80.6827 52.637 80.0292 53.0172 79.7448 53.7093C79.4769 53.2637 79.2253 52.8182 78.938 52.392C77.8037 50.7064 77.5089 49.0119 78.612 47.1495C79.1896 46.1723 78.9678 45.1476 78.1952 44.2818C77.9659 44.0254 77.7357 43.7694 77.5045 43.514C77.5074 43.4013 77.549 43.293 77.6225 43.2072C77.6959 43.1215 77.7967 43.0636 77.9079 43.0432C79.6481 42.5977 80.2897 41.218 80.8047 39.7136C82.0448 40.2126 82.5405 40.0878 83.2059 38.9859C83.5885 38.3518 84.1586 38.1646 84.8166 38.1305C85.3327 38.1151 85.8413 38.0027 86.3156 37.7993C86.7086 37.7087 86.7831 38.1394 87.0599 38.2448C86.3826 39.7908 85.6785 41.3279 84.6811 42.7046Z" fill="#63A73C"/>
<path d="M74.7161 80.4727C74.5278 80.7285 74.3582 80.9975 74.2085 81.2776C73.9539 81.8434 74.14 82.2919 74.6938 82.5503C75.1002 82.7404 75.4173 82.681 75.4575 82.136C75.5226 81.4541 75.7636 80.8008 76.1571 80.2395C76.3744 80.3642 76.2643 80.5291 76.2137 80.685C75.9781 81.412 75.8634 82.1725 75.8743 82.9365C75.5602 82.9469 75.3666 83.1681 75.2371 83.3924C74.8575 84.0533 74.2591 84.3265 73.555 84.478C72.8107 84.6354 71.8967 84.3028 71.6198 83.7354C71.2044 82.88 71.3697 82.338 72.1914 81.7157C72.502 81.4717 72.7918 81.2025 73.0578 80.9108C73.5729 80.3598 73.4612 79.6232 72.8256 79.2118C71.9666 78.6579 71.2283 78.9816 70.5137 79.5088C69.7545 79.8722 69.1693 80.5194 68.8852 81.3103L68.2897 82.6216C67.9369 82.8964 67.9801 83.3345 67.8595 83.6983C67.5737 84.576 67.0408 85.2547 66.1759 85.5443C65.6191 85.7314 64.985 85.6854 64.5637 85.1196C64.1424 84.5537 64.1543 83.4577 64.6069 82.8117C65.0594 82.1657 65.5105 81.5211 65.9734 80.8811C66.4501 80.2429 66.6919 79.4604 66.6582 78.6653C66.6284 77.7044 66.6731 76.7421 66.5019 75.7886C66.7728 75.5243 66.5957 75.1738 66.679 74.8708C66.9604 73.858 67.7211 73.3055 68.8152 73.261C70.3396 73.1986 71.8773 73.4629 73.3883 72.9981C74.5345 72.6461 75.316 71.966 75.7224 70.8417C76.172 69.6403 76.6439 68.4522 77.9583 67.8581C78.4675 67.625 78.9661 67.6606 79.4812 67.6443C79.8876 68.1537 80.1124 68.5532 79.3323 69.0299C78.7875 69.3626 78.987 70.0427 79.1835 70.5952C79.1835 70.7303 79.2133 70.8521 79.374 70.8922L79.3517 70.8729C79.4083 70.9279 79.4648 70.9813 79.5199 71.0363L79.502 71.0185C79.5214 71.167 79.6271 71.1996 79.7462 71.2219L79.764 71.2383C79.7864 71.3585 79.8251 71.464 79.971 71.4774L79.9516 71.4655C79.9535 71.5079 79.9714 71.5481 80.0018 71.5779C80.0322 71.6076 80.0728 71.6248 80.1154 71.6259L80.1228 71.6155C80.0975 71.9125 79.9293 72.0937 79.6985 72.2674C79.0227 72.7739 78.2263 73.0441 77.4894 73.4303C75.5885 74.4268 74.5122 75.3297 75.5542 77.5797C75.8147 78.1396 76.0112 78.7678 75.8013 79.4242L75.8013 79.4138C75.6391 79.4331 75.6138 79.5519 75.6048 79.6826C75.3741 79.6826 75.1285 79.6752 75.2118 80.0301L75.2029 80.0063C75.1598 80.0074 75.1186 80.0247 75.0877 80.0547C75.0568 80.0847 75.0384 80.1252 75.0362 80.1682L75.0496 80.1519L74.8828 80.3152L74.8918 80.287L74.7161 80.4727Z" fill="#63A73C"/>
<path d="M70.6505 103.548C70.6698 103.114 71.0435 102.9 71.2608 102.593C71.8786 101.714 71.9411 100.785 71.3814 100.295C70.7859 99.768 69.6963 99.924 68.9653 100.656C68.4354 101.188 68.1317 101.88 67.7119 102.49C67.2921 103.101 66.7681 103.632 65.9762 103.782C65.744 103.827 65.5668 103.825 65.6189 103.516C65.7067 102.986 65.348 102.643 65.0979 102.254C65.9345 101.994 66.3692 101.262 66.8932 100.664C67.1626 100.358 67.6241 100.098 67.5512 99.5616C67.8519 99.4547 68.1207 99.2739 68.3327 99.0358C68.5448 98.7978 68.6933 98.5102 68.7644 98.1997C69.269 98.2695 69.5727 97.8686 69.9478 97.6636C70.841 97.175 71.7908 97.181 72.6795 97.4706C74.1815 97.9577 74.637 99.5705 73.7751 101.075C73.0739 102.3 71.9054 102.989 70.6505 103.548Z" fill="#63A73C"/>
<path d="M47.156 45.9315C46.574 45.835 45.9934 45.7043 45.4069 45.6494C44.5137 45.5632 44.2443 45.8588 44.353 46.7573C44.4715 47.5894 44.797 48.3788 45.2997 49.0532C44.5108 48.9047 43.9242 49.3503 43.2797 49.6844C42.4803 50.1077 41.5886 50.1582 40.6835 50.1299C39.9615 50.1121 39.3333 49.9636 39.0341 49.2641C38.8108 48.7354 39.4271 47.7404 40.1148 47.4048C40.5555 47.1899 41.0021 46.9855 41.4546 46.7914C42.449 46.3652 43.0921 45.6687 43.3377 44.5905C43.5357 43.7113 43.8022 42.8485 44.0374 41.9782C45.069 41.1658 46.2941 41.0203 47.5475 40.8792C49.121 40.7025 49.8772 39.9881 49.9681 38.7837C50.3283 38.5713 50.6811 38.3382 51.0503 38.1525C51.2731 38.0327 51.5178 37.9586 51.7699 37.9347C52.022 37.9108 52.2762 37.9376 52.5177 38.0135C52.7592 38.0894 52.983 38.2128 53.1759 38.3765C53.3687 38.5401 53.5267 38.7407 53.6405 38.9664C53.8519 39.3837 53.9814 39.8857 54.5843 39.8574C55.1872 39.8292 55.5608 39.4535 55.8288 38.9411C56.1191 38.3827 56.2664 37.7219 56.8708 37.3743C57.0023 37.3123 57.1394 37.2625 57.2802 37.2258C57.2489 37.8199 57.3844 38.4006 57.5109 38.9768C57.6057 39.3851 57.6021 39.8101 57.5005 40.2168C57.2608 41.1747 56.7398 41.5178 55.7707 41.3247C54.946 41.1599 54.2196 40.7054 53.38 40.5688C52.5062 40.4203 51.7961 40.8539 51.6398 41.7138C51.5698 42.1 51.5192 42.4905 51.4909 42.8811C51.3703 44.2667 50.5977 45.0137 49.1865 45.0672C48.8163 45.0939 48.4447 45.0939 48.0745 45.0672C47.3972 44.9885 47.0771 45.2424 47.156 45.9315Z" fill="#63A73C"/>
<path d="M64.9436 30.5401C65.9598 30.5341 66.9775 30.5272 67.9967 30.5193C67.9327 32.043 68.1679 33.5742 67.7214 35.086C67.108 37.1652 64.9391 38.6087 62.6719 37.5171C62.4538 37.3974 62.2078 37.3375 61.9589 37.3434C62.078 36.5399 62.5454 35.9399 63.1498 35.4573C63.8673 34.8825 64.2246 34.1608 64.3407 33.2593C64.4568 32.3579 64.5357 31.4014 64.9436 30.5401Z" fill="#63A73C"/>
<path d="M43.4107 99.3655C43.9436 98.8769 44.2756 98.2621 44.5435 97.6057C45.4367 98.0512 46.1111 98.7937 46.9045 99.3878C47.4019 99.7551 47.946 100.055 48.5226 100.279C49.6882 100.738 50.5844 100.427 51.616 99.0328C52.6789 97.6042 54.1199 97.3175 55.6963 97.5581C57.3978 97.8195 58.489 98.92 59.0576 100.528C59.3047 101.226 59.6843 101.795 60.3974 102.092C60.4391 102.38 60.6802 102.459 60.8961 102.557C61.3278 102.755 61.764 102.942 62.1971 103.133C61.7506 103.92 61.5823 104.788 61.4528 105.67C61.368 106.279 61.2846 106.897 60.9095 107.416C60.445 108.059 59.8034 108.095 59.3062 107.492C58.9951 107.115 58.7316 106.698 58.4473 106.304L57.7298 104.473C57.7179 103.433 57.2921 102.582 56.582 101.84C56.2563 101.489 55.8135 101.269 55.3367 101.22C54.8599 101.172 54.3817 101.299 53.9918 101.577C53.3928 102.017 52.8438 102.522 52.3544 103.081C51.4463 104.096 50.4474 104.779 48.999 104.32C48.8277 104.295 48.6537 104.295 48.4824 104.32C46.8182 103.778 45.7746 102.492 44.7966 101.168C44.347 100.557 43.8469 99.9863 43.4107 99.3655Z" fill="#63A73C"/>
<path d="M107.572 67.184L107.565 82.2796C107.565 82.4014 107.541 82.5247 107.529 82.6464L107.292 82.6464C105.854 82.4356 105.042 83.3563 105.348 84.6097C105.356 84.6827 105.356 84.7564 105.348 84.8295C105.367 85.0651 105.313 85.3007 105.194 85.5054C105.076 85.71 104.898 85.8741 104.684 85.9759C104.209 86.2002 103.906 85.8185 103.653 85.4859C103.215 84.9097 102.67 84.6112 101.935 84.7107C101.706 84.1166 101.499 83.5078 101.241 82.9286C100.762 81.8668 100.029 80.939 99.1051 80.2273C98.1822 79.4966 97.499 79.7253 97.1611 80.8391C96.914 81.6574 96.9809 82.5009 97.0926 83.3281C97.2414 84.476 97.3829 85.621 97.3218 86.7793C97.2608 87.9377 96.5909 88.4129 95.5132 88.1159C95.674 87.3288 95.4477 86.6531 94.9178 86.0635C95.2706 85.125 94.6394 83.8553 93.5781 83.3667C94.2256 82.3613 93.6629 81.7212 92.9975 80.9728C92.085 79.9466 92.1788 79.158 93.0645 78.1764C94.0321 77.9447 94.5263 77.2958 94.498 76.3468C94.4801 75.7142 94.0514 75.3429 93.6763 74.9241C92.9201 74.0747 91.89 73.4064 91.8186 72.1025C91.829 70.7185 91.7769 70.6279 90.7557 70.2581C89.9489 69.523 88.9352 69.4859 87.9468 70.1541C87.7756 70.166 87.5999 70.1883 87.4615 70.0457C87.6357 70.0012 87.7339 69.973 87.5225 69.7977C86.8887 69.2811 86.428 68.5837 86.2022 67.7988C85.9402 66.9286 85.5591 66.0895 84.8997 65.4227C84.401 64.9119 83.8889 64.4114 83.4215 63.8709C82.6162 62.9397 82.1518 61.869 82.3036 60.6037C82.4031 59.6238 82.6154 58.6586 82.9362 57.7272C83.6284 55.8218 83.5495 53.8452 83.4275 51.8746C83.2995 49.8059 83.1089 47.7357 83.6552 45.7042C83.9291 44.6854 84.3355 43.7008 84.6809 42.7014C85.6782 41.3247 86.3823 39.7936 87.0626 38.2462C87.2725 37.9729 87.4809 37.6997 87.6952 37.4279C88.3963 36.5369 89.6765 36.1864 90.6203 36.6245C91.5238 37.0463 91.8602 37.9819 91.5655 39.2412C91.4167 39.8649 91.2678 40.4886 91.1398 41.1153C90.9478 42.0064 91.6712 43.1528 92.4974 43.2731C93.2714 43.3845 93.8654 42.6553 93.8996 41.549C93.913 41.3765 93.913 41.2032 93.8996 41.0307C93.8371 40.5154 94.0127 40.0535 94.2182 39.6035C94.4906 39.0095 94.9743 38.9664 95.345 39.504C95.7544 40.0981 95.7767 40.7426 95.601 41.4183C95.4775 41.895 95.3123 42.3702 95.4016 42.8736C95.4819 43.3192 95.863 43.3741 96.198 43.3637C96.4689 43.3637 96.582 43.1706 96.518 42.8365C96.3409 41.9054 96.7889 41.2029 97.56 41.1168C98.3311 41.0307 98.9473 41.7613 98.9622 42.6925C98.9771 43.5835 98.3102 44.0468 97.758 44.5473C96.905 45.318 96.6639 46.2239 96.9943 47.2902C97.8116 49.9202 99.1424 52.3156 100.445 54.7229C100.564 55.1476 100.735 55.5516 100.81 55.9956C100.958 56.9045 100.81 57.5683 100.153 57.8608C99.838 58.0123 99.4852 58.0682 99.1385 58.0214C98.7919 57.9747 98.4666 57.8275 98.2031 57.598C97.7057 57.184 97.3375 56.6368 97.1417 56.0208C96.39 53.8215 96.1652 51.5434 96.3051 49.2386C96.3423 48.6208 96.4197 48.0298 96.2858 47.412C96.0789 46.4467 95.4209 45.7205 94.6275 45.6655C93.654 45.5987 93.0645 46.0353 92.6924 47.1298C92.2869 48.2716 92.1564 49.4925 92.3113 50.6939C92.5122 52.1181 92.3262 53.5066 92.2175 54.8952C92.1103 56.2555 91.5625 57.5 90.6947 58.6078C89.9013 59.6206 88.8995 60.4344 88.1403 61.4799C87.4481 62.4333 87.204 63.9525 87.8098 64.9579C88.6605 66.3609 89.9161 67.4749 91.4122 68.1538C92.545 68.6854 93.59 68.1151 93.8951 66.8751C94.0249 66.3241 94.1243 65.7663 94.1928 65.2044C94.4191 63.4595 95.1723 62.8848 96.8723 63.1818C97.0807 63.7758 97.2935 64.3787 97.4975 64.9787C98.0542 66.6524 97.9634 66.9672 96.5805 67.983C95.0771 69.0834 94.7793 70.1155 95.6725 71.7521C96.9214 74.039 98.6094 76.0023 100.548 77.7324C101.43 78.5209 102.568 78.6412 103.702 78.4407C104.653 78.2729 105.339 77.327 105.371 76.3617C105.403 75.4543 105.036 74.6598 104.671 73.892C103.872 72.2065 103.98 70.7259 105.32 69.3463C105.746 68.9097 106.046 68.3216 105.649 67.6637C106.312 67.6094 106.962 67.4474 107.572 67.184Z" fill="#D98C41"/>
<path d="M59.4182 78.6782C58.6114 78.4138 58.1678 78.9618 57.6914 79.4445C57.5128 79.6271 57.4518 79.936 57.1347 79.9746C56.6826 79.7068 56.1714 79.5538 55.6461 79.5291C55.4764 77.5986 56.1493 76.0274 57.6304 74.7769C58.1306 74.3552 58.5072 73.8458 58.4759 73.1434C58.723 73.1434 58.9716 73.1434 59.2202 73.1434C60.0344 73.1315 60.3456 72.7899 60.2622 71.9895C60.2342 71.6792 60.1449 71.3774 59.9996 71.1017C59.8542 70.8259 59.6556 70.5816 59.4152 70.3827C58.9537 70.0069 58.6709 69.5273 58.3806 69.0461C57.9966 68.415 58.0919 67.6843 58.5563 67.3769C59.0803 67.0294 59.771 67.2002 60.2637 67.7749C60.7223 68.3251 61.0755 68.9549 61.3057 69.6327C61.5324 70.3211 62.0108 70.899 62.6454 71.2514C62.7523 71.3158 62.873 71.3537 62.9976 71.362C63.1222 71.3703 63.2469 71.3487 63.3614 71.2989C63.6159 71.1801 63.412 70.9485 63.4031 70.7703C63.3048 68.8798 63.9405 67.2848 65.5303 66.2364C67.1201 65.1879 68.9197 65.0483 70.6897 65.8904C71.297 66.177 71.8105 66.6329 71.8716 67.3888C71.9326 68.1447 71.3878 68.5353 70.8296 68.8738C70.5468 69.0251 70.2509 69.1503 69.9454 69.2481C68.5774 69.7693 67.2287 70.3158 66.2076 71.4311C64.9006 72.8538 65.042 74.8661 66.5187 75.7987C66.6899 76.7521 66.6452 77.7144 66.675 78.6752C66.7087 79.4703 66.4669 80.2528 65.9902 80.8909C65.5273 81.528 65.0762 82.174 64.6237 82.8215C64.1712 83.469 64.1548 84.5605 64.5805 85.1293C65.0063 85.6981 65.6359 85.7411 66.1927 85.554C67.0575 85.257 67.5904 84.5857 67.8762 83.7081C67.9968 83.3442 67.9537 82.9062 68.3064 82.6314C68.2945 83.5937 68.6042 84.4135 69.3231 85.0818C70.5289 86.1866 71.9654 86.5594 73.5641 86.5044C74.6731 86.4673 75.1583 86.1064 75.5156 85.0446C75.7478 84.3556 75.6987 83.6279 75.8788 82.9358C75.8675 82.1736 75.9811 81.4146 76.2152 80.689C76.2658 80.5286 76.376 80.3637 76.1587 80.2434C77.1613 78.9305 78.41 77.8245 79.8354 76.9867C79.9843 76.9867 80.1332 76.9867 80.2046 76.8382L80.1853 76.8382C80.5058 76.8607 80.8275 76.8632 81.1484 76.8456C81.7155 76.7833 81.8807 77.0149 81.851 77.5614C81.8078 78.396 81.8108 79.2262 82.1293 80.037C82.3869 80.6964 82.5476 81.3944 81.9507 82.0121C81.825 82.1663 81.7404 82.3497 81.7051 82.5453C81.5949 83.0131 81.3478 83.2878 80.87 83.4601C79.828 83.8492 79.2549 84.5857 79.3025 85.7738C79.3472 86.8891 79.822 87.8529 80.1957 88.8672C79.9682 89.0174 79.7888 89.2298 79.6791 89.479C78.987 90.7369 79.2906 92.0986 79.3814 93.3966C79.4514 94.4643 79.4454 95.489 78.9497 96.4068C77.8169 98.5037 77.5356 100.73 77.6725 103.058C77.7455 104.285 78.1042 105.564 77.7767 106.731C77.3302 108.321 77.4552 109.692 78.4332 111C78.4451 111.017 78.4332 111.049 78.4332 111.073C76.894 111.1 75.3558 111.126 73.8186 111.152L72.0323 111.152C71.3377 111.152 70.643 111.152 69.9483 111.152L68.037 111.085C68.0489 110.261 68.3481 109.469 68.305 108.639C69.3276 108.082 69.5539 107.119 69.6447 106.07C69.7191 105.241 69.7265 104.38 70.377 103.725C70.508 103.725 70.6271 103.697 70.6837 103.557L70.6569 103.557C71.9118 102.999 73.0803 102.31 73.7829 101.085C74.6448 99.5804 74.1893 97.9661 72.6873 97.4805C71.7942 97.1909 70.8489 97.1835 69.9558 97.6735C69.5807 97.8785 69.277 98.2795 68.7724 98.2097C68.4255 97.2577 67.6693 96.6949 66.7985 96.3162C65.7297 95.8529 65.2087 95.1282 65.3323 93.955C65.4146 93.0417 65.2805 92.122 64.9408 91.27C64.6014 90.3715 64.1891 89.4998 63.7856 88.6266C63.022 86.9782 62.4191 85.303 62.7347 83.4378C62.7466 83.368 62.6499 83.2789 62.6037 83.1987L62.7302 82.9344C62.7868 82.9091 62.9178 82.9344 62.8151 82.8037C62.9788 82.4473 63.1456 82.0908 63.3063 81.733C63.9762 80.2479 63.3063 78.8193 61.7597 78.3441C60.9574 78.099 60.2562 78.3663 59.5477 78.6678C59.4971 78.5817 59.445 78.5193 59.3869 78.6678L59.4182 78.6782Z" fill="#D98C41"/>
<path d="M28.0907 72.8288C28.3542 74.4164 29.3858 75.1144 30.9622 74.7906C31.9328 74.5916 32.7322 74.0481 33.5777 73.5818C34.0824 73.307 34.5989 73.0546 35.2003 73.1823C36.1962 73.3946 36.8468 74.4565 36.6756 75.5154C36.4895 76.6693 35.6871 77.5559 35.3358 78.6341C34.3712 78.5806 33.7757 79.145 33.2904 79.8727C32.6384 80.8514 32.5536 81.989 32.4241 83.1117C32.4032 83.2988 32.4747 83.532 32.241 83.63C32.0072 83.728 31.8241 83.5676 31.6559 83.4162C30.465 82.3513 29.4453 81.2063 29.5838 79.445C29.573 79.198 29.5227 78.9544 29.4349 78.7232C29.2146 77.8797 28.7204 77.4148 28.0296 77.4416C27.2213 77.4713 26.9489 78.0742 26.8075 78.7217C26.0632 82.1375 27.2228 85.4047 29.9738 87.6324C30.8476 88.3393 31.2465 89.1739 31.056 90.2714C30.9592 90.8373 30.6779 91.3377 30.398 91.8338C30.1003 92.3743 29.813 92.6149 29.2384 92.0328C28.6028 91.3882 27.4372 91.3927 26.8432 91.908C26.4844 92.2 26.2472 92.6147 26.1779 93.0714C26.1085 93.5282 26.212 93.9944 26.4681 94.3792C26.6854 94.7371 27.0531 94.9079 27.3612 95.1485C28.4852 96.0396 29.0092 97.1712 28.6772 98.5762C28.4286 99.6291 27.9135 100.545 26.7643 100.9C26.3421 100.453 26.0804 99.8783 26.02 99.2667C26.0289 98.4856 26.2091 97.6569 26.0096 96.9321C25.7119 95.8584 25.173 94.853 24.6237 93.858C24.0282 92.7917 24.0371 91.7788 25.2027 91.0363C26.0795 90.4793 26.5514 89.6878 26.4949 88.5546C26.3981 86.624 25.4811 85.0914 24.2977 83.6746C23.9449 83.2528 23.5831 82.7612 22.9162 82.7835L22.9311 71.7937C22.9911 71.8055 23.0465 71.8341 23.0908 71.8762C23.1351 71.9183 23.1665 71.9721 23.1812 72.0313C23.531 73.0338 24.0654 73.3471 25.0822 73.4555C26.1882 73.5699 27.1246 73.1645 28.0907 72.8288Z" fill="#D98C41"/>
<path d="M35.7139 67.9383C36.1605 69.2511 35.6767 70.4392 34.4054 71.2055C33.2785 71.8798 32.0474 71.8605 30.8014 71.7758C30.2596 71.7387 29.7177 71.7164 29.1759 71.6882C29.1411 71.4427 29.1788 71.1924 29.2845 70.9679C29.6398 70.231 29.8055 69.4175 29.7669 68.6007C29.7356 67.8314 30.0556 67.5611 30.8238 67.4883C31.6425 67.4111 32.3973 67.6621 33.1356 67.9249C34.0079 68.2309 34.8505 68.3823 35.7139 67.9383Z" fill="#D98C41"/>
<path d="M43.4234 78.6073C43.5514 77.4356 43.3236 76.249 43.5841 75.0802C44.062 72.9476 45.7635 72.0847 47.7597 72.9802C48.0948 73.1362 48.4509 73.2428 48.8167 73.2966C48.8167 74.2396 48.8762 75.1901 48.4445 76.0737C48.3552 76.2579 48.3745 76.5296 48.0694 76.5415C47.794 75.9757 47.9369 75.3727 47.9205 74.7861C47.9041 74.1995 47.7404 73.65 47.1598 73.4763C46.5108 73.2847 45.9287 73.5891 45.5551 74.1446C45.1159 74.798 45.0609 75.5762 44.9314 76.3306C44.7631 77.3019 44.3612 78.1395 43.4234 78.6073Z" fill="#D98C41"/>
<path d="M42.4661 64.273C42.1892 64.68 41.9495 65.1225 41.6235 65.4849C41.3258 65.8101 40.9477 66.0893 40.446 65.9304C39.986 65.7819 39.9146 65.3765 39.8892 64.977C39.8446 64.2656 39.3444 63.9136 38.8279 63.5646C39.1955 62.8473 40.2554 62.6543 40.9745 63.177C41.4746 63.5379 41.9689 63.9077 42.4661 64.273Z" fill="#D98C41"/>
<path d="M36.4267 51.3031C36.4249 51.1311 36.4584 50.9605 36.5253 50.8018C36.5921 50.6432 36.6908 50.4999 36.8153 50.3808C37.3333 49.8046 37.9169 49.8239 38.3247 50.4804C38.6225 50.9556 38.7505 51.4665 38.5421 52.0278C38.4141 52.3724 38.3322 52.7347 38.231 53.0882C37.049 52.9857 36.4952 52.4392 36.4267 51.3031Z" fill="#D98C41"/>
<path d="M49.9729 38.7881C49.8821 39.9896 49.1259 40.7069 47.5524 40.8836C46.299 41.0321 45.0738 41.1702 44.0422 41.9826C41.391 42.0346 38.637 38.8846 39.8368 35.7451C40.5261 33.9437 41.0277 33.3021 38.4718 31.4591C38.0996 31.1903 37.6813 30.9631 37.4937 30.5027C42.1581 30.5027 46.8175 30.5062 51.4719 30.5131C50.9986 31.2645 51.0983 31.9106 51.6863 32.5922C52.6896 33.761 52.1895 35.2506 50.7038 35.6605C50.3704 35.7525 50.025 35.8001 49.6826 35.8595C48.59 36.0525 47.9766 36.6956 48.0794 37.548C48.1717 38.3738 48.8639 38.8252 49.9729 38.7881Z" fill="#D98C41"/>
<path d="M37.0397 111.093C36.4368 108.765 37.8317 107.004 40.2507 106.967C41.7304 106.945 43.0002 107.469 44.1985 108.259C44.337 108.35 44.4471 108.513 44.7211 108.39C43.8279 107.399 43.0731 106.29 41.9835 105.531C40.5931 104.561 39.3397 104.699 37.988 105.828C37.5146 106.223 37.0249 106.597 36.5411 106.98C35.9456 107.448 35.3204 107.574 34.6058 107.263C33.8913 106.951 33.6472 106.324 33.6427 105.641C33.6427 104.799 33.5191 103.97 33.4775 103.134C33.4254 102.117 32.8493 101.373 32.0037 101.184C32.2821 100.354 32.9907 100.581 33.5489 100.637C34.0804 100.691 34.4064 101.083 34.3706 101.677C34.3349 102.271 34.3825 102.832 34.8842 103.29C35.5898 103.936 36.3877 103.909 37.2303 103.735C37.208 103.856 37.1946 103.979 37.1603 104.098C37.071 104.407 36.9251 104.756 37.2318 104.989C37.5384 105.222 37.8525 105.033 38.1398 104.891C38.518 104.7 38.854 104.436 39.1279 104.114C39.4018 103.791 39.6079 103.417 39.7342 103.014C40.3519 101.197 41.3404 99.8073 43.3396 99.384C43.3634 99.384 43.3872 99.3722 43.4111 99.3662C43.8472 99.987 44.3474 100.554 44.7999 101.168C45.778 102.491 46.8215 103.777 48.4858 104.319C48.5468 105.558 48.7716 106.783 48.5126 108.032C48.2149 109.468 47.5599 109.866 46.1799 109.308C46.0647 109.267 45.9474 109.233 45.8286 109.205L45.6723 109.095L45.6366 109.153L45.8271 109.207C46.5312 110.194 48.3071 110.647 49.4638 110.144C50.2185 109.814 50.8274 109.267 51.5047 108.822C52.5229 108.151 53.4265 107.304 54.5638 106.813C54.4403 108.204 53.8002 109.311 52.7165 110.185C52.3756 110.458 52.0778 110.787 51.7622 111.09C50.1307 111.106 48.5002 111.123 46.8706 111.14L37.6411 111.14L37.0397 111.093Z" fill="#D98C41"/>
<path d="M62.1939 103.12C61.7607 102.928 61.3246 102.741 60.8929 102.543C60.677 102.445 60.4359 102.367 60.3942 102.079C60.7946 101.061 60.7857 100.01 60.6249 98.9598C60.5276 98.35 60.5171 97.7295 60.5937 97.1168C60.7678 95.8262 61.9423 95.1297 63.236 95.4831C64.4626 95.8143 65.2367 96.6891 65.9348 97.6677C66.4186 98.3479 66.8444 99.0801 67.5515 99.5716C67.6244 100.108 67.163 100.368 66.8935 100.674C66.3695 101.268 65.9348 102.01 65.0982 102.264C63.8165 101.718 63.2211 101.902 62.1939 103.12Z" fill="#D98C41"/>
<path d="M38.7076 90.6715C38.4023 90.997 38.0016 91.2179 37.5629 91.3026C36.1353 91.668 35.8718 92.5189 36.2797 93.9877C36.4286 94.5313 36.631 95.0615 36.8022 95.6005C36.8656 95.7879 36.8901 95.9862 36.8743 96.1833C36.8584 96.3804 36.8025 96.5722 36.7099 96.747C35.8584 95.4892 35.3925 94.0843 35.0873 92.6095C34.8151 91.3955 35.0322 90.1234 35.6917 89.0676C35.8718 88.7705 36.0534 88.4735 36.4509 88.429C36.6444 89.7344 37.618 90.2646 38.7076 90.6715Z" fill="#D98C41"/>
<path d="M70.5154 79.5186C70.2995 80.4096 69.6133 80.8849 68.8868 81.32C69.171 80.5292 69.7561 79.8819 70.5154 79.5186Z" fill="#D98C41"/>
<path d="M56.2382 105.634C56.5881 105.05 57.1924 104.791 57.7343 104.453L58.4578 106.284C57.7283 106.024 57.0332 105.656 56.2382 105.634Z" fill="#D98C41"/>
<path d="M61.9586 37.3433C61.512 38.4066 61.5746 39.513 61.6758 40.6239C61.8053 42.0481 62.0598 43.4708 61.7502 44.9025C61.5805 45.6896 61.2813 46.4128 60.6739 46.9816C59.7093 47.8727 58.5899 47.592 58.182 46.349C58.0496 45.8949 57.9918 45.4225 58.0108 44.95C58.0108 42.6006 57.9974 40.2511 58.0108 37.9017C58.0108 37.3804 57.8768 37.07 57.2784 37.2274C57.1376 37.2641 57.0005 37.3139 56.869 37.3759C56.2646 37.7235 56.1172 38.3843 55.827 38.9427C55.559 39.4551 55.1809 39.8234 54.5825 39.859C53.984 39.8947 53.8501 39.3912 53.6387 38.968C53.5246 38.7426 53.3665 38.5423 53.1735 38.3789C52.9805 38.2155 52.7567 38.0924 52.5152 38.0168C52.2738 37.9412 52.0195 37.9147 51.7676 37.9388C51.5157 37.9629 51.2712 38.0371 51.0485 38.1571C50.6793 38.3502 50.3265 38.5759 49.9662 38.7883C48.8632 38.8254 48.171 38.3739 48.0727 37.5527C47.97 36.7002 48.5833 36.0572 49.676 35.8641C50.0183 35.8047 50.3637 35.7572 50.6972 35.6651C52.1858 35.2552 52.683 33.7656 51.6797 32.5969C51.0842 31.9107 50.9919 31.2603 51.4653 30.5177L51.6216 30.3781L64.9537 30.3647L64.9433 30.54C64.5354 31.4014 64.4595 32.3399 64.3404 33.2592C64.2213 34.1785 63.867 34.8824 63.1495 35.4572C62.5451 35.9398 62.0777 36.5398 61.9586 37.3433Z" fill="#CEB949"/>
<path d="M91.3046 32.5715C90.992 32.9057 90.992 33.3364 90.9593 33.7492C90.9012 34.468 90.4874 34.9076 89.8026 34.8022C88.116 34.5408 87.2466 35.2997 86.8998 36.865C86.8164 37.2348 86.5395 37.5051 86.3162 37.7991C85.8419 38.0026 85.3333 38.1149 84.8172 38.1303C84.1592 38.1645 83.5891 38.3516 83.2065 38.9857C82.5411 40.0877 82.0454 40.2124 80.8054 39.7134C79.9583 39.0169 80.3186 38.1749 80.5195 37.3521C80.9036 36.4699 80.8723 35.763 80.396 35.3725C79.8467 34.9269 79.342 35.1512 78.8642 35.5299C78.4911 35.7553 78.1663 36.0521 77.9085 36.4031C77.642 36.5338 77.3815 36.6734 77.1121 36.7952C76.946 36.884 76.7547 36.9138 76.5694 36.8798C76.3841 36.8458 76.2159 36.75 76.0924 36.6081C75.8065 36.3006 75.8319 35.9427 75.9807 35.5685C76.2784 34.8259 77.0064 34.7116 77.6286 34.4413C79.278 34.5403 80.3915 33.9463 80.9691 32.6592C81.0956 32.5124 81.1597 32.3222 81.1477 32.129L81.109 32.0889C81.1715 32.047 81.2194 31.9867 81.2461 31.9165C81.2727 31.8463 81.2769 31.7695 81.2579 31.6968C81.0138 30.6988 81.6241 30.6795 82.3535 30.6439C83.4209 30.5904 84.5046 30.6676 85.5526 30.3706C88.5298 30.3706 91.5106 30.3706 94.4948 30.3706C94.4814 30.88 94.0467 31.0745 93.737 31.3552C92.9094 31.7354 91.9373 31.8156 91.3046 32.5715Z" fill="#CEB949"/>
<path d="M43.4232 78.6072L42.859 79.6735C41.7634 80.4161 41.2871 80.4339 40.5219 79.7463C40.373 79.2028 40.2495 78.6503 40.0634 78.1127C39.8088 77.3835 39.194 77.2454 38.6179 77.7592C38.1907 78.1409 38.0761 78.6815 37.893 79.1879C37.558 80.1146 37.1904 80.3493 36.1706 80.3151C35.4263 79.9839 35.1911 79.4018 35.3504 78.631C35.6973 77.5498 36.4996 76.6632 36.6902 75.5123C36.8614 74.4534 36.2108 73.3915 35.215 73.1792C34.6195 73.0514 34.097 73.3039 33.5923 73.5786C32.7468 74.039 31.9549 74.5885 30.9768 74.7875C29.4004 75.1113 28.3688 74.4133 28.1053 72.8257C28.2541 72.2406 28.7007 71.9346 29.1845 71.6792C29.7264 71.7074 30.2683 71.7297 30.8101 71.7668C32.0561 71.8515 33.2872 71.8708 34.4141 71.1965C35.6854 70.4362 36.1677 69.2481 35.7226 67.9293C35.6392 67.3724 35.4859 66.817 35.4859 66.26C35.4859 64.2537 36.781 63.226 38.8368 63.5542C39.3533 63.9032 39.8535 64.2551 39.8982 64.9665C39.9235 65.366 39.9949 65.7714 40.4549 65.9199C40.9566 66.0803 41.3377 65.8011 41.6324 65.4744C41.9584 65.112 42.1981 64.6695 42.475 64.2626C43.3682 63.5928 44.1006 63.7205 44.7005 64.6517C45.0161 65.1432 45.1143 65.7046 45.2364 66.26C45.6532 68.1714 46.7488 68.7313 48.5694 67.962C49.8199 67.4333 50.8024 66.5021 51.8846 65.7343C52.7108 65.1403 53.4625 64.4482 54.4018 64.0353C54.8484 63.8408 55.4558 63.5319 55.7818 63.9225C56.1078 64.3131 55.7193 64.8507 55.4558 65.2665C55.0256 65.9422 54.4376 66.4783 53.8332 66.9907C52.7733 67.8604 52.009 69.0359 51.6449 70.356C51.4846 71.0058 51.2017 71.6192 50.8113 72.1633C50.3111 72.8242 49.6874 73.2727 48.821 73.292C48.4552 73.2382 48.0991 73.1317 47.7641 72.9757C45.7678 72.0846 44.0663 72.943 43.5885 75.0756C43.319 76.2489 43.5468 77.4355 43.4232 78.6072Z" fill="#CEB949"/>
<path d="M62.5963 83.1883C61.6421 84.6734 61.7032 86.1689 62.5457 87.6748C62.833 88.1931 63.1486 88.701 63.3942 89.2387C63.8557 90.25 63.6592 91.0475 62.7988 91.7485C62.5134 91.9861 62.2053 92.195 61.8788 92.3722C60.7162 92.9886 59.7694 93.792 59.1234 94.9801C58.6009 95.941 57.8268 96.1682 57.0973 95.7717C56.2994 95.3261 56.0077 94.3727 56.3977 93.4489C56.7267 92.6678 57.34 92.1272 57.9875 91.6208C58.6351 91.1144 59.3169 90.6629 59.8171 90.002C60.149 89.5639 60.3277 89.0872 60.0597 88.5525C59.9356 88.2939 59.7405 88.0758 59.497 87.9236C59.2534 87.7714 58.9716 87.6913 58.6842 87.6927C57.8982 87.657 57.5529 87.0749 57.9399 86.3486C58.0962 86.0516 58.3865 85.8229 58.6068 85.563C59.2097 85.2437 59.8498 84.9794 60.3679 84.5234C60.8502 84.1002 61.1911 83.6086 60.8695 82.924C60.7877 82.5967 60.6144 82.2993 60.3699 82.0664C60.1253 81.8335 59.8196 81.6746 59.4881 81.6082C57.8908 81.2488 58.1796 80.0057 58.9671 79.1518C59.1159 78.9914 59.3526 78.9142 59.4136 78.6766L59.3749 78.6513L59.5357 78.6513C60.2443 78.3543 60.9454 78.0825 61.7478 78.3276C63.3004 78.8028 63.9644 80.2315 63.2945 81.7166C63.1337 82.0745 62.967 82.4309 62.8032 82.7873L62.7184 82.918L62.5963 83.1883Z" fill="#CEB949"/>
<path d="M45.409 49.1462L45.3003 49.0541C44.7975 48.3796 44.4721 47.5903 44.3535 46.7581C44.2449 45.8671 44.5158 45.57 45.4075 45.6502C45.994 45.7052 46.5746 45.8359 47.1566 45.9324L50.9511 47.0136C51.2489 47.3106 51.5704 47.5749 51.8443 47.8853C52.3847 48.4972 52.8074 49.1729 52.5306 50.0328C52.2626 50.8704 51.554 51.1555 50.7665 51.3115C49.5161 51.5595 49.1529 52.1402 49.4744 53.3698C49.5295 53.5852 49.6024 53.7961 49.6516 54.0129C49.8242 54.7955 49.6322 55.2901 48.8656 55.5351C47.6404 55.9257 47.1194 56.8108 46.8515 57.9633C46.6788 58.7058 46.4614 59.4484 45.9583 60.0513L45.9732 60.0513L45.796 60.2117C45.6844 60.2607 45.5712 60.3068 45.4611 60.3602C44.9624 60.5904 44.4652 60.6573 44.0022 60.2934C43.5393 59.9296 43.4946 59.432 43.5422 58.8959C43.5988 58.2499 44.029 57.7865 44.3223 57.2549C45.1276 56.499 45.4194 55.4906 45.7037 54.4777L46.1369 53.848L46.3409 53.6015L46.4823 53.453L46.454 53.4084L46.4882 53.4485C46.5359 53.4025 46.585 53.3579 46.6371 53.3134L46.6624 53.3L47.0807 52.8708L47.1015 52.8515C47.3322 52.6939 47.5044 52.4647 47.5913 52.1996C47.6083 52.1879 47.6215 52.1716 47.6294 52.1527C47.6373 52.1337 47.6396 52.1129 47.636 52.0926C47.9873 51.5461 48.0111 51.0174 47.5511 50.514L47.5318 50.4857C47.5054 50.4214 47.4651 50.3638 47.4136 50.317C47.362 50.2702 47.3007 50.2355 47.234 50.2155L47.2191 50.208C47.0241 49.957 46.7398 49.8516 46.4555 49.7476L46.2173 49.6452L45.6978 49.3615C45.601 49.2947 45.5072 49.219 45.409 49.1462Z" fill="#CEB949"/>
<path d="M79.4774 67.6399L78.7019 66.6509C78.5789 66.5111 78.4848 66.3486 78.425 66.1724C78.3652 65.9963 78.3409 65.8102 78.3535 65.6246C78.425 64.8821 79.0621 64.5598 79.6486 64.992C81.2638 66.1801 82.8507 67.4038 84.4747 68.5785C85.3798 69.232 86.3564 69.7666 87.452 70.0473C87.5904 70.1958 87.7661 70.1676 87.9373 70.1557C88.8647 70.4438 89.81 70.2389 90.7463 70.2597C91.7675 70.6295 91.8196 70.7201 91.8092 72.1027C91.4698 72.8987 91.6812 73.6338 92.0891 74.3304C92.3868 74.8368 92.7515 75.3031 93.0686 75.7991C93.5747 76.5907 93.6968 77.3897 93.0552 78.1753C92.1694 79.157 92.0757 79.9456 92.9882 80.9718C93.6536 81.7143 94.2163 82.3603 93.5688 83.3658C93.3455 84.5969 94.1106 85.338 94.9085 86.0627C95.434 86.6568 95.6603 87.328 95.504 88.1151C95.4266 88.3468 95.3387 88.577 95.2717 88.8131C94.9145 90.0814 95.0752 90.5567 96.1232 91.366C96.2602 91.4715 96.4016 91.5725 96.5371 91.6794C97.8128 92.6863 97.786 94.0184 96.4612 94.9808C95.7719 95.4561 94.9993 95.7981 94.1836 95.9892C93.0909 96.2699 92.6562 96.0219 92.2603 94.9615C92.2483 94.3288 92.4627 93.7482 92.68 93.169C93.1505 92.3358 93.2561 91.4715 92.7143 90.6443C92.0861 89.6908 92.092 88.7968 92.6488 87.8077C93.0954 87.0295 92.9718 86.535 92.2439 86.0063C90.9934 85.0974 90.6064 83.844 90.6064 82.3945L90.6064 79.8104C90.6302 78.5822 90.261 77.5219 89.2562 76.7526C88.3913 76.0887 87.4431 76.0026 86.5767 76.6635C85.5078 77.4862 84.4584 77.4446 83.3106 76.9204C82.4264 76.5135 81.5154 76.1778 80.5254 76.5862C80.3944 76.6397 80.2277 76.6605 80.1756 76.8268L80.1949 76.8268C80.1256 76.8099 80.0526 76.8151 79.9864 76.8417C79.9201 76.8684 79.864 76.9151 79.8258 76.9753C78.4003 77.8131 77.1515 78.9192 76.1489 80.2322C75.7554 80.7934 75.5143 81.4468 75.4492 82.1287C75.409 82.6737 75.0919 82.7331 74.6855 82.543C74.1318 82.2846 73.9412 81.8361 74.2002 81.2703C74.3499 80.9902 74.5196 80.7212 74.7079 80.4653L74.8761 80.2693L74.8672 80.2975L75.0339 80.1342L75.0205 80.1505C75.077 80.097 75.1321 80.0436 75.1872 79.9886L75.1961 80.0124C75.2819 79.9842 75.361 79.9388 75.4285 79.879C75.4961 79.8193 75.5508 79.7464 75.5891 79.6649C75.6444 79.6438 75.6923 79.6071 75.7272 79.5594C75.7621 79.5117 75.7824 79.455 75.7856 79.3961L75.7856 79.4065C76.4734 78.7634 76.1161 78.0565 75.9137 77.357C75.5966 76.258 75.9271 75.6061 77.0123 75.2496C77.3193 75.1614 77.6329 75.0978 77.9501 75.0595C78.4354 74.9793 78.9341 74.9526 79.409 74.8338C80.1533 74.6452 80.6743 74.1789 80.8246 73.3918C80.9661 72.6492 80.7338 72.0388 80.1041 71.5978L80.0952 71.6081L79.9315 71.4478L79.9508 71.4596L79.7439 71.2265L79.726 71.2101L79.4819 71.0052L79.4998 71.0245L79.333 70.8611L79.3539 70.8804C79.3508 70.8187 79.3316 70.7588 79.2982 70.7067C79.2648 70.6546 79.2183 70.6121 79.1633 70.5834C78.9728 70.031 78.7733 69.3508 79.3122 69.0181C80.1086 68.5488 79.8838 68.1553 79.4774 67.6399Z" fill="#CEB949"/>
<path d="M63.6913 111.149C60.0591 111.142 56.4273 111.134 52.7961 111.126C52.4507 111.126 52.1068 111.106 51.754 111.094C52.0696 110.797 52.3673 110.463 52.7082 110.189C53.792 109.315 54.4321 108.208 54.5556 106.817C54.84 106.035 55.492 105.777 56.2303 105.628C57.0253 105.651 57.719 106.012 58.4439 106.279C58.7282 106.678 58.9917 107.096 59.3029 107.467C59.8001 108.07 60.4417 108.034 60.9061 107.391C61.2812 106.872 61.3646 106.254 61.4495 105.645C61.5715 104.763 61.7382 103.895 62.1938 103.108C63.2165 101.89 63.8223 101.709 65.0981 102.242C65.3482 102.632 65.7069 102.975 65.6191 103.505C65.567 103.814 65.7441 103.815 65.9764 103.771C66.7683 103.622 67.2804 103.107 67.7121 102.479C68.1438 101.85 68.4356 101.176 68.9655 100.644C69.6964 99.9123 70.7802 99.7534 71.3816 100.284C71.9413 100.774 71.8788 101.702 71.261 102.581C71.0436 102.888 70.6655 103.102 70.6506 103.536L70.6774 103.536C70.475 103.41 70.4422 103.592 70.3708 103.704C69.7203 104.359 69.7128 105.22 69.6384 106.049C69.5431 107.097 69.3168 108.061 68.2986 108.618C67.7955 108.816 67.2849 108.994 66.7921 109.212C65.9511 109.588 65.3243 110.177 65.0564 111.089L64.58 111.129C64.2808 111.147 63.9861 111.149 63.6913 111.149Z" fill="#CEB949"/>
<path d="M77.5107 43.5135C77.7409 43.769 77.9712 44.0249 78.2014 44.2813C78.974 45.1471 79.1958 46.1719 78.6182 47.1491C77.5152 49.0114 77.8099 50.7133 78.9442 52.3915C79.2315 52.8192 79.4831 53.2692 79.7511 53.7088C80.1812 54.4595 80.7228 55.141 81.3573 55.73C82.4217 56.7488 82.4901 57.7602 81.5895 58.9408C81.5466 59.0028 81.4966 59.0596 81.4407 59.1101C79.9952 60.2982 78.8624 61.7521 77.8144 63.2803C77.5977 63.5839 77.2994 63.8202 76.9539 63.962C76.2662 64.259 75.5621 64.3986 74.9324 63.8536C74.3295 63.3323 74.456 62.6506 74.6347 61.9972C74.7835 61.4522 75.0098 60.9264 75.1706 60.3829C75.3045 59.9373 75.3998 59.4695 75.1706 59.0151L75.0753 58.8324L75.0574 58.7849C74.9086 58.3958 74.5811 58.1522 74.2595 57.9295C73.539 57.4305 72.9748 56.8453 72.8989 55.9142C72.8867 55.7776 72.8413 55.646 72.7666 55.5308C72.6919 55.4156 72.5901 55.3204 72.4702 55.2533C72.4181 55.1731 72.3824 55.0632 72.3079 55.0187C70.7598 54.0875 70.4576 52.6588 70.6883 51.0089C70.6952 50.91 70.6952 50.8107 70.6883 50.7118C71.0287 49.354 70.8958 47.9211 70.3117 46.6486C69.8472 45.2095 69.5004 43.7511 69.4989 42.2259C69.4864 41.7808 69.5477 41.3367 69.6805 40.9116C69.8487 40.423 70.1346 40.0205 70.7226 39.9879C71.2748 39.9626 71.6574 40.2478 71.9269 40.7096C72.2469 41.2621 72.2037 41.8547 72.0921 42.4398C71.9432 43.1927 71.7944 43.9412 71.8494 44.715C71.8941 45.3773 72.0832 45.9714 72.5938 46.4347C73.3678 47.1773 74.1762 47.3258 74.9116 46.8283C75.7065 46.2951 75.8881 45.5095 75.4504 44.4996C75.3715 44.3185 75.2763 44.1447 75.2048 43.962C74.8922 43.1616 75.0187 42.8764 75.8196 42.5556C76.4835 42.6967 76.9927 43.1081 77.5107 43.5135Z" fill="#CEB949"/>
<path d="M37.2304 103.734C37.5787 103.2 37.5162 102.662 37.2304 102.131C37.1352 101.929 37.0152 101.741 36.8731 101.569C35.7388 100.343 35.6227 99.0237 36.4488 97.5861C36.5977 97.3381 36.6245 97.0277 36.7064 96.7456C36.7989 96.5707 36.8549 96.3789 36.8707 96.1818C36.8866 95.9847 36.8621 95.7864 36.7987 95.5991C36.6275 95.06 36.4265 94.5298 36.2762 93.9862C35.8683 92.5175 36.1273 91.6665 37.5594 91.3012C37.9981 91.2164 38.3988 90.9955 38.7041 90.67C39.2996 90.171 39.6777 89.4938 40.0796 88.8478C40.873 87.5735 41.9731 87.03 43.4707 87.2973C43.8115 87.3581 44.1585 87.3761 44.5038 87.3508C45.0606 87.3077 45.5711 87.1146 45.9299 86.6587C46.3542 86.1181 46.5477 86.1389 46.8231 86.7849C46.9785 87.1396 47.0409 87.5278 47.0044 87.913C46.9679 88.2983 46.8338 88.668 46.6147 88.9874C45.5726 90.5868 45.3166 92.3615 45.2317 94.2031C45.1782 95.3674 44.8417 96.4842 44.541 97.604C44.2731 98.2604 43.9456 98.8752 43.4082 99.3638C43.3844 99.3638 43.3605 99.3772 43.3367 99.3816C41.3375 99.8049 40.349 101.195 39.7313 103.011C39.6051 103.415 39.3989 103.789 39.125 104.111C38.8512 104.434 38.5152 104.698 38.1369 104.888C37.8496 105.037 37.5162 105.206 37.2289 104.986C36.9416 104.767 37.0681 104.404 37.1574 104.095C37.1946 103.978 37.208 103.855 37.2304 103.734Z" fill="#CEB949"/>
</g>
<path d="M23.215 102.497C23.215 109.28 28.715 114.78 35.4996 114.781C42.2843 114.783 47.7843 109.285 47.7843 102.501C47.7843 95.7182 42.2843 90.2181 35.4996 90.2168C28.715 90.2154 23.215 95.7133 23.215 102.497Z" fill="#63A73C"/>
<path fill-rule="evenodd" clip-rule="evenodd" d="M35.5001 88.0029C43.5082 88.0045 50 94.4964 50 102.503C50 110.509 43.5082 116.999 35.5001 116.997C27.492 116.995 21.0001 110.503 21.0001 102.497C21.0001 94.4905 27.492 88.0013 35.5001 88.0029ZM45.5695 102.502C45.5695 96.9419 41.0612 92.4337 35.5001 92.4326C29.9389 92.4314 25.4307 96.9378 25.4307 102.498C25.4307 108.058 29.9389 112.566 35.5001 112.567C41.0612 112.568 45.5695 108.062 45.5695 102.502Z" fill="black"/>
<path d="M80.215 102.497C80.215 109.28 85.715 114.78 92.4996 114.781C99.2843 114.783 104.784 109.285 104.784 102.501C104.784 95.7182 99.2843 90.2181 92.4996 90.2168C85.715 90.2154 80.215 95.7133 80.215 102.497Z" fill="#63A73C"/>
<path fill-rule="evenodd" clip-rule="evenodd" d="M92.4998 88.0029C100.508 88.0045 107 94.4964 107 102.503C107 110.509 100.508 116.999 92.4998 116.997C84.4917 116.995 77.9999 110.503 77.9999 102.497C77.9999 94.4905 84.4917 88.0013 92.4998 88.0029ZM102.569 102.502C102.569 96.9419 98.061 92.4337 92.4998 92.4326C86.9386 92.4314 82.4304 96.9378 82.4304 102.498C82.4304 108.058 86.9386 112.566 92.4998 112.567C98.061 112.568 102.569 108.062 102.569 102.502Z" fill="black"/>
</svg>
