<svg width="128" height="128" viewBox="0 0 128 128" fill="none" xmlns="http://www.w3.org/2000/svg">
<path d="M32.5803 46.501C32.5803 63.5769 46.4236 77.4192 63.5001 77.4186C80.5766 77.418 94.4199 63.5748 94.4199 46.4988C94.4199 29.4229 80.5767 15.5806 63.5001 15.5812C46.4236 15.5818 32.5803 29.425 32.5803 46.501Z" fill="#AAAAAA"/>
<path fill-rule="evenodd" clip-rule="evenodd" d="M90.8396 46.499C90.8396 31.4003 78.5993 19.1607 63.5 19.1612C48.4007 19.1617 36.1604 31.402 36.1604 46.5008C36.1604 61.5995 48.4007 73.839 63.5 73.8386C78.5993 73.8381 90.8396 61.5978 90.8396 46.499ZM63.5 12.0011C82.5538 12.0005 98 27.4456 98 46.4988C98 65.552 82.5538 80.9981 63.5 80.9987C44.4462 80.9993 29 65.5541 29 46.501C29 27.4478 44.4462 12.0017 63.5 12.0011Z" fill="black"/>
<path d="M25 71.5027C25 92.7657 42.237 110.002 63.5 110.001C84.763 110.001 102 92.763 102 71.5C102 50.237 84.763 33.0006 63.5 33.0013C42.237 33.0021 25 50.2397 25 71.5027Z" fill="#425AD7"/>
<path d="M38.0803 61.5344C40.7166 56.3519 46.1356 52.3668 49.6141 51.2871L38.0801 76.3361C36.2493 73.3849 35.4439 66.717 38.0803 61.5344Z" fill="white"/>
<path fill-rule="evenodd" clip-rule="evenodd" d="M51.5427 49.6963L38.2314 78.605L37.0884 76.7626C36.0707 75.1221 35.393 72.567 35.2893 69.8009C35.185 67.0199 35.6561 63.9167 37.0525 61.1717C38.435 58.4538 40.5374 56.0657 42.7389 54.2174C44.927 52.3805 47.2835 51.0183 49.2244 50.4158L51.5427 49.6963ZM44.3245 55.5267C42.2879 57.2365 40.3625 59.4321 39.1087 61.8968C37.8688 64.3343 37.4243 67.1564 37.5213 69.7429C37.5754 71.1858 37.7966 72.522 38.1216 73.6496L47.4931 53.297C46.4824 53.8757 45.3977 54.6257 44.3245 55.5267Z" fill="black"/>
<path d="M90.1394 61.5344C87.5031 56.3519 82.0841 52.3668 78.6056 51.2871L90.1397 76.3361C91.9705 73.3849 92.7758 66.717 90.1394 61.5344Z" fill="white"/>
<path fill-rule="evenodd" clip-rule="evenodd" d="M76.6761 49.6963L89.9874 78.605L91.1304 76.7626C92.1481 75.1221 92.8257 72.567 92.9294 69.8009C93.0337 67.0199 92.5627 63.9167 91.1663 61.1717C89.7837 58.4538 87.6814 56.0657 85.4798 54.2174C83.2918 52.3805 80.9352 51.0183 78.9943 50.4158L76.6761 49.6963ZM83.8943 55.5267C85.9309 57.2365 87.8562 59.4321 89.11 61.8968C90.35 64.3343 90.7944 67.1564 90.6974 69.7429C90.6433 71.1858 90.4222 72.522 90.0972 73.6496L80.7257 53.297C81.7363 53.8757 82.8211 54.6257 83.8943 55.5267Z" fill="black"/>
<path d="M57.8195 89.3155L38.6752 77.9296L45.2386 61.9894L54.1034 66.8452L51.1208 76.7216L57.8195 89.3155Z" fill="#425AD7"/>
<path fill-rule="evenodd" clip-rule="evenodd" d="M44.6492 60.5535L55.3794 66.4312L52.2972 76.6376L60.4943 92.0487L37.3489 78.2831L44.6492 60.5535ZM40.001 77.5754L55.1442 86.5818L49.944 76.8051L52.827 67.2586L45.8277 63.4246L40.001 77.5754Z" fill="black"/>
<path d="M70.1278 89.3156L89.2721 77.9296L82.7086 61.9894L73.8439 66.8452L76.8265 76.7216L70.1278 89.3156Z" fill="#425AD7"/>
<path fill-rule="evenodd" clip-rule="evenodd" d="M83.2971 60.5535L72.5668 66.4312L75.6491 76.6376L67.4519 92.0487L90.5973 78.2831L83.2971 60.5535ZM87.9453 77.5754L72.8021 86.5818L78.0023 76.8051L75.1193 67.2586L82.1186 63.4246L87.9453 77.5754Z" fill="black"/>
<path d="M71.5941 92.2188L78.0586 75.2932L66.4226 69.9604L61.251 69.9604L49.615 75.2932L56.0794 92.2188L59.7734 95.4648L67.9002 95.4648L71.5941 92.2188Z" fill="#AAAAAA"/>
<path fill-rule="evenodd" clip-rule="evenodd" d="M69.1279 91.0069L66.6996 93.1407L60.9739 93.1407L58.5457 91.0069L52.9701 76.4085L61.9685 72.2846L65.7051 72.2846L74.7035 76.4085L69.1279 91.0069ZM78.0586 75.2932L71.5941 92.2188L67.9002 95.4648L59.7734 95.4648L56.0794 92.2188L49.615 75.2932L61.251 69.9604L66.4226 69.9604L78.0586 75.2932Z" fill="black"/>
<path d="M68.2118 82.2568C68.2118 84.269 66.2527 85.9003 63.8359 85.9003C61.4191 85.9003 59.46 84.269 59.46 82.2568C59.46 80.2445 61.4191 78.6133 63.8359 78.6133C66.2527 78.6133 68.2118 80.2445 68.2118 82.2568Z" fill="#FF5050"/>
<path fill-rule="evenodd" clip-rule="evenodd" d="M63.8359 85.4354C65.9443 85.4354 67.6536 84.0123 67.6536 82.2568C67.6536 80.5012 65.9443 79.0781 63.8359 79.0781C61.7275 79.0781 60.0182 80.5012 60.0182 82.2568C60.0182 84.0123 61.7275 85.4354 63.8359 85.4354ZM63.8359 85.9003C66.2527 85.9003 68.2118 84.269 68.2118 82.2568C68.2118 80.2445 66.2527 78.6133 63.8359 78.6133C61.4191 78.6133 59.46 80.2445 59.46 82.2568C59.46 84.269 61.4191 85.9003 63.8359 85.9003Z" fill="black"/>
<path d="M79.1514 50.3761L87.9033 72.2371L68.2116 82.2567L59.4597 82.2567L39.768 72.2371L49.0668 50.3761L56.9592 44L70.7121 44L79.1514 50.3761Z" fill="#425AD7"/>
<path fill-rule="evenodd" clip-rule="evenodd" d="M76.7344 51.6884L69.6344 46.3241L58.0908 46.3241L51.4798 51.6651L43.1548 71.2366L60.2451 79.9325L67.4262 79.9325L84.553 71.218L76.7344 51.6884ZM87.9033 72.2371L79.1514 50.3761L70.7121 44L56.9592 44L49.0668 50.3761L39.768 72.2371L59.4597 82.2567L68.2116 82.2567L87.9033 72.2371Z" fill="black"/>
<path d="M71.4945 71.3262C71.4945 74.093 68.066 76.336 63.8366 76.336C59.6073 76.336 56.1787 74.093 56.1787 71.3262C56.1787 68.5594 59.6073 66.3164 63.8366 66.3164C68.066 66.3164 71.4945 68.5594 71.4945 71.3262Z" fill="white"/>
<path fill-rule="evenodd" clip-rule="evenodd" d="M63.8366 75.4063C67.7151 75.4063 70.378 73.3832 70.378 71.3262C70.378 69.2692 67.7151 67.2461 63.8366 67.2461C59.9581 67.2461 57.2953 69.2692 57.2953 71.3262C57.2953 73.3832 59.9581 75.4063 63.8366 75.4063ZM63.8366 76.336C68.066 76.336 71.4945 74.093 71.4945 71.3262C71.4945 68.5594 68.066 66.3164 63.8366 66.3164C59.6073 66.3164 56.1787 68.5594 56.1787 71.3262C56.1787 74.093 59.6073 76.336 63.8366 76.336Z" fill="black"/>
<path d="M73.682 55.3864C73.682 57.9017 69.2738 59.9408 63.8361 59.9408C58.3984 59.9408 53.9902 57.9017 53.9902 55.3864C53.9902 52.8711 58.3984 50.832 63.8361 50.832C69.2738 50.832 73.682 52.8711 73.682 55.3864Z" fill="#69EDFF"/>
<path fill-rule="evenodd" clip-rule="evenodd" d="M70.2559 57.7941C71.8804 57.0427 72.5654 56.1531 72.5654 55.3864C72.5654 54.6197 71.8804 53.7301 70.2559 52.9786C68.6693 52.2447 66.4017 51.7617 63.8361 51.7617C61.2705 51.7617 59.0029 52.2447 57.4163 52.9786C55.7918 53.7301 55.1068 54.6197 55.1068 55.3864C55.1068 56.1531 55.7918 57.0427 57.4163 57.7941C59.0029 58.5281 61.2705 59.0111 63.8361 59.0111C66.4017 59.0111 68.6693 58.5281 70.2559 57.7941ZM63.8361 59.9408C69.2738 59.9408 73.682 57.9017 73.682 55.3864C73.682 52.8711 69.2738 50.832 63.8361 50.832C58.3984 50.832 53.9902 52.8711 53.9902 55.3864C53.9902 57.9017 58.3984 59.9408 63.8361 59.9408Z" fill="black"/>
<path d="M58.8672 98.0985L59.9949 88.1758L67.6066 88.1758L69.0162 98.0985L65.957 99.7949L62.292 99.7949L58.8672 98.0985Z" fill="#AAAAAA"/>
<path fill-rule="evenodd" clip-rule="evenodd" d="M61.2534 97.4104L63.0749 98.3126L65.1025 98.3126L66.6159 97.4734L65.5057 89.6582L62.1344 89.6582L61.2534 97.4104ZM59.9949 88.1758L58.8672 98.0985L62.292 99.7949L65.957 99.7949L69.0162 98.0985L67.6066 88.1758L59.9949 88.1758Z" fill="black"/>
<path d="M23.2147 102.497C23.2147 109.28 28.7148 114.78 35.4995 114.782C42.2841 114.783 47.7842 109.285 47.7842 102.502C47.7842 95.7187 42.2841 90.2186 35.4995 90.2173C28.7148 90.2159 23.2147 95.7138 23.2147 102.497Z" fill="#2E2E2E"/>
<path fill-rule="evenodd" clip-rule="evenodd" d="M35.5 88.0029C43.5081 88.0045 50 94.4964 50 102.503C50 110.509 43.5081 116.999 35.5 116.997C27.4919 116.995 21 110.504 21 102.497C21 94.4905 27.4919 88.0013 35.5 88.0029ZM45.5694 102.502C45.5694 96.942 41.0612 92.4337 35.5 92.4326C29.9388 92.4314 25.4306 96.9379 25.4306 102.498C25.4306 108.058 29.9388 112.566 35.5 112.567C41.0612 112.569 45.5694 108.062 45.5694 102.502Z" fill="black"/>
<path d="M80.2147 102.497C80.2147 109.28 85.7148 114.78 92.4995 114.782C99.2841 114.783 104.784 109.285 104.784 102.502C104.784 95.7187 99.2841 90.2186 92.4995 90.2173C85.7148 90.2159 80.2147 95.7138 80.2147 102.497Z" fill="#2E2E2E"/>
<path fill-rule="evenodd" clip-rule="evenodd" d="M92.5 88.0029C100.508 88.0045 107 94.4964 107 102.503C107 110.509 100.508 116.999 92.5 116.997C84.4919 116.995 78 110.504 78 102.497C78 94.4905 84.4919 88.0013 92.5 88.0029ZM102.569 102.502C102.569 96.942 98.0612 92.4337 92.5 92.4326C86.9388 92.4314 82.4306 96.9379 82.4306 102.498C82.4306 108.058 86.9388 112.566 92.5 112.567C98.0612 112.569 102.569 108.062 102.569 102.502Z" fill="black"/>
</svg>
