<svg width="129" height="129" viewBox="0 0 129 129" fill="none" xmlns="http://www.w3.org/2000/svg">
<mask id="mask0" mask-type="alpha" maskUnits="userSpaceOnUse" x="0" y="0" width="129" height="129">
<rect x="0.449219" y="0.458984" width="128" height="128" fill="#C4C4C4"/>
</mask>
<g mask="url(#mask0)">
<path fill-rule="evenodd" clip-rule="evenodd" d="M120.879 7.59971L99.0299 14.8827C97.3722 15.435 96.8757 17.5393 98.1111 18.7748L102.07 22.7336L94.0566 30.7469C91.2579 29.339 88.1388 28.4816 84.8363 28.1744C84.1931 28.0457 83.4214 28.0457 82.6496 28.0457C78.1476 28.0457 73.7743 29.2034 70.0441 31.2614C68.3719 32.1618 66.8284 33.1908 65.5421 34.4771C64.1272 33.1908 62.7123 32.1618 61.0402 31.2614C57.3099 29.2034 52.9366 28.0457 48.4346 28.0457C48.1277 28.0457 47.7915 28.075 47.44 28.1057C47.0549 28.1393 46.6514 28.1744 46.248 28.1744C40.717 28.6888 35.7005 30.7469 31.8417 34.3485C27.3397 38.336 24.6385 43.8669 23.7381 50.6842C22.8378 58.016 24.3813 65.4763 28.626 72.8081C30.0833 75.3146 31.8312 77.7947 33.8696 80.2365L54.5135 59.5927C57.7683 56.3378 63.0454 56.3378 66.3002 59.5927C69.5551 62.8475 69.5551 68.1247 66.3002 71.3795L45.9687 91.7111C53.661 97.7177 60.8106 101.496 62.7335 102.512L62.7348 102.512L62.7374 102.514C63.0156 102.661 63.1835 102.75 63.2268 102.778C64.1272 103.164 64.899 103.421 65.7994 103.421C66.6998 103.421 67.6002 103.164 67.8574 102.778C67.9007 102.75 68.0685 102.661 68.3464 102.514L68.3466 102.514L68.3494 102.512C70.5559 101.347 79.6625 96.5349 88.5665 88.8866C94.612 83.7415 99.2426 78.3391 102.458 72.8081C106.703 65.4763 108.375 58.1446 107.346 50.6842C106.608 45.0933 104.572 40.3676 101.451 36.6489L108.718 29.3816L112.677 33.3404C113.912 34.5759 116.016 34.0791 116.569 32.4214L123.852 10.5725C124.464 8.73558 122.717 6.98741 120.879 7.59971ZM59.7494 61.5564C60.9528 61.5564 62.1557 62.0153 63.0735 62.9331C64.9093 64.7689 64.9093 67.7458 63.0735 69.5815L40.2539 92.4014L40.2786 101.754C40.285 104.256 39.2943 106.657 37.525 108.427L24.4463 121.505C23.9674 121.984 23.3786 122.198 22.801 122.198C21.5946 122.198 20.4373 121.264 20.4335 119.849L20.3964 105.611L6.15752 105.573C4.06648 105.568 3.02316 103.039 4.50161 101.561L17.5803 88.482C19.3437 86.7183 21.7353 85.7278 24.2368 85.7281H24.2539L33.6053 85.7531L56.4252 62.9331C57.3431 62.0153 58.5459 61.5564 59.7494 61.5564Z" fill="white"/>
</g>
</svg>
