<svg width="129" height="129" viewBox="0 0 129 129" fill="none" xmlns="http://www.w3.org/2000/svg">
<path fill-rule="evenodd" clip-rule="evenodd" d="M110.613 12.9682C100.621 5.9407 87.3715 18.8082 75.6775 31.5992C68.1588 29.0019 60.5829 29.002 53.0641 31.5997C41.3694 18.8104 28.1176 5.94008 18.1277 12.9683C18.1179 12.9751 18.1083 12.9821 18.0988 12.9891C17.9131 13.1213 17.7334 13.2709 17.5606 13.4377C13.0634 17.7865 13.9773 33.0551 19.8683 52.4544C14.9913 58.5135 12.0252 65.6968 10.9023 74.2228C26.1284 77.3494 37.4477 83.0504 44.2849 89.5833C45.7007 90.9361 46.9275 92.3277 47.9574 93.743C48.1016 93.9413 48.1655 94.1735 48.155 94.4008C48.2223 94.4532 48.2895 94.5057 48.3564 94.5585C48.3065 96.6268 48.2026 98.5426 48.1133 100.191L48.1133 100.191V100.191L48.113 100.196C48.035 101.637 47.9695 102.861 47.9602 103.792C47.9261 107.194 49.6023 110.106 52.5587 111.779C53.109 112.09 53.6866 112.346 54.2797 112.546C57.7096 115.818 61.1686 117.454 64.5644 117.454C67.9619 117.454 71.2961 115.816 74.4733 112.542C75.0622 112.342 75.6356 112.087 76.1822 111.778C79.1379 110.105 80.8141 107.194 80.7801 103.791C80.7708 102.86 80.7052 101.634 80.6272 100.191C80.5379 98.5428 80.434 96.6265 80.3842 94.5575C80.4505 94.5052 80.517 94.4531 80.5838 94.4012C80.5732 94.1738 80.637 93.9414 80.7814 93.743C81.8113 92.3277 83.0381 90.9361 84.4539 89.5833C91.2912 83.0503 102.611 77.3491 117.838 74.2226C116.715 65.6964 113.749 58.5125 108.871 52.4533C114.762 33.0547 115.676 17.7868 111.178 13.4386C111.018 13.2836 110.852 13.1434 110.68 13.0183C110.658 13.0011 110.636 12.9844 110.613 12.9682ZM64.3686 108.549C62.0545 108.149 60.4377 107.402 59.4774 106.282C61.1263 105.775 62.7648 105.517 64.363 105.51C65.9693 105.517 67.6102 105.775 69.2598 106.282C68.2995 107.402 66.6827 108.149 64.3686 108.549ZM53.9179 63.6796C53.9179 66.7867 51.399 69.3056 48.2919 69.3056C45.1848 69.3056 42.666 66.7867 42.666 63.6796C42.666 60.5725 45.1848 58.0537 48.2919 58.0537C51.399 58.0537 53.9179 60.5725 53.9179 63.6796ZM80.8325 69.3056C83.9396 69.3056 86.4584 66.7867 86.4584 63.6796C86.4584 60.5725 83.9396 58.0537 80.8325 58.0537C77.7254 58.0537 75.2066 60.5725 75.2066 63.6796C75.2066 66.7867 77.7254 69.3056 80.8325 69.3056Z" fill="white"/>
</svg>
