<svg width="129" height="129" viewBox="0 0 129 129" fill="none" xmlns="http://www.w3.org/2000/svg">
<path d="M32.1914 47.1389C32.1914 64.5359 46.2944 78.6384 63.6914 78.6378C81.0884 78.6372 95.1914 64.5337 95.1914 47.1367C95.1914 29.7397 81.0884 15.6372 63.6914 15.6378C46.2944 15.6384 32.1914 29.7419 32.1914 47.1389Z" fill="#634B32"/>
<path fill-rule="evenodd" clip-rule="evenodd" d="M64.1914 12.6379C82.9691 12.6373 98.1914 27.859 98.1914 46.6367C98.1914 65.4144 82.9691 80.6373 64.1914 80.6379C45.4137 80.6386 30.1914 65.4168 30.1914 46.6391C30.1914 27.8614 45.4137 12.6386 64.1914 12.6379ZM93.0011 46.6369C93.0011 30.7257 80.1026 17.8276 64.1914 17.8282C48.2802 17.8287 35.3817 30.7277 35.3817 46.6389C35.3817 62.5501 48.2802 75.4482 64.1914 75.4476C80.1026 75.4471 93.0011 62.5481 93.0011 46.6369Z" fill="black"/>
<path d="M63.1914 29.6367C85.8351 29.6367 104.191 48.005 104.191 70.6367C104.191 93.2684 85.8351 111.637 63.1914 111.637C40.5477 111.637 22.1914 93.2684 22.1914 70.6367C22.1914 48.005 40.5477 29.6367 63.1914 29.6367Z" fill="#DFC3AA"/>
<path d="M77.3158 91.9853C77.125 91.6928 76.9245 91.4275 76.7186 91.1816L74.958 92.3971L74.9453 93.2299L72.8293 92.9682L68.0303 94.7839C68.0303 94.7839 67.3623 96.3276 67.249 96.3252C67.1352 96.324 66.4326 95.2902 66.3357 95.1745C66.2388 95.0601 65.8058 96.6044 65.8058 96.6044L65.2135 95.7244L64.2409 97.3748L63.1308 95.8431L62.4773 96.4003L61.9637 95.3702L61.0771 96.3779L60.1917 94.9256L55.4054 93.563L53.3148 94.1353L53.3287 93.2268L51.0431 92.276C50.5265 92.7448 49.9657 93.4818 49.489 94.6488C49.4557 94.7306 49.4109 94.8063 49.3564 94.8747C49.2771 94.9729 48.8822 95.4537 48.3184 95.9461C48.6987 95.983 49.1184 95.9715 49.5569 95.8813C49.592 95.8613 49.6259 95.845 49.6604 95.8244C49.8203 95.7269 49.9972 95.696 50.1722 95.6996C50.3672 95.6239 50.564 95.5319 50.7615 95.4156C51.1424 95.1915 51.6293 95.2745 51.9146 95.6106C52.1998 95.9467 52.2028 96.4409 51.92 96.7801C51.9085 96.7934 50.8971 98.0488 50.6682 99.8094C51.2508 99.5175 51.986 99.2189 52.8351 99.0227C53.2591 98.9282 53.6994 99.145 53.8732 99.5478C54.047 99.9511 53.9083 100.42 53.5431 100.664C53.514 100.686 52.6534 101.361 53.256 103.145C53.7145 102.687 54.3056 102.219 54.9772 101.971C55.5314 101.252 57.4185 98.9815 59.5782 98.4104C59.5782 98.4104 57.7613 101.174 56.7771 103.294L56.5621 103.174C56.4198 103.589 56.077 104.851 56.7414 105.929C56.8601 105.576 57.0351 105.189 57.2647 104.792C57.5427 102.5 58.935 100.909 58.935 100.909C58.8157 102.856 59.0501 104.513 59.1536 105.123C59.6242 105.903 60.3273 106.853 61.0722 107.523C60.8282 106.43 60.3031 103.298 61.8493 101.629C61.8493 101.629 61.7354 103.408 62.4549 103.9C62.4549 103.9 63.4772 102.045 64.6127 101.629C64.6127 101.629 66.0051 102.878 66.2552 103.975C66.2552 103.975 67.868 102.726 67.9061 100.909C67.9061 100.909 69.2094 102.825 68.817 106.182C69.2888 105.409 69.6752 104.529 69.9077 103.839C69.9023 103.307 69.8435 101.559 69.3397 99.5714C69.3397 99.5714 71.3552 101.145 71.8821 103.757C72.0559 103.989 72.2127 104.217 72.3363 104.435C72.5525 103.857 72.5222 103.286 72.4144 102.804C72.3726 102.728 72.3417 102.678 72.3333 102.665C72.223 102.491 72.1764 102.288 72.1825 102.087C72.1576 102.03 72.134 101.977 72.1104 101.929L72.0801 101.942C72.0535 101.865 72.0238 101.786 71.9953 101.707C71.9596 101.644 71.9323 101.599 71.9251 101.589C71.8354 101.45 71.787 101.293 71.7803 101.134C70.9748 99.0802 69.7884 96.8012 69.7884 96.8012C71.5248 97.4547 72.9571 99.2589 73.6669 100.294C74.2422 100.45 74.7836 100.741 75.23 101.042C75.3287 100.316 75.2403 99.8015 75.0931 99.4369C75.0701 99.4224 75.0525 99.4127 75.0471 99.4097C74.763 99.2686 74.5765 98.9918 74.5159 98.6854C74.4851 98.666 74.4651 98.6551 74.4584 98.652C74.0714 98.4643 73.857 98.0264 73.9612 97.6091C74.0654 97.1919 74.4451 96.8909 74.8642 96.9151C75.7357 96.9478 76.5151 97.1016 77.1425 97.2791C76.586 95.5803 75.3517 94.5532 75.336 94.5404C74.9944 94.2606 74.9029 93.7755 75.1204 93.391C75.3378 93.0058 75.8011 92.8344 76.2159 92.9816C76.3237 93.0197 76.4303 93.0506 76.5351 93.0791C76.6665 93.0682 76.7998 93.0773 76.9294 93.1251C76.993 93.1487 77.0559 93.1651 77.1189 93.1851C77.7076 93.248 78.249 93.1741 78.7123 93.0385C78.0661 92.6618 77.5871 92.2651 77.4908 92.184C77.4223 92.1246 77.3642 92.0586 77.3158 91.9853Z" fill="#7D8286"/>
<path d="M67.9056 100.907C67.8674 102.724 66.2546 103.974 66.2546 103.974C66.0045 102.876 64.6122 101.627 64.6122 101.627C63.4766 102.043 62.4543 103.898 62.4543 103.898C61.7348 103.405 61.8487 101.627 61.8487 101.627C60.3025 103.296 60.827 106.429 61.0717 107.521C61.1946 107.631 61.3175 107.734 61.4417 107.827C61.5404 107.262 61.7348 106.61 62.1097 106.011C62.269 105.757 62.5427 105.598 62.8419 105.585C63.1465 105.575 63.4275 105.708 63.6074 105.948L64.7587 107.483L65.5987 105.757C65.7301 105.488 65.9857 105.3 66.2819 105.256C66.5792 105.21 66.8772 105.318 67.0813 105.537C67.5616 106.054 67.8765 106.658 68.08 107.192C68.3416 106.904 68.5881 106.553 68.8158 106.18C69.2095 102.823 67.9056 100.907 67.9056 100.907Z" fill="#B4B9BC"/>
<path d="M58.934 100.907C58.934 100.907 57.5417 102.498 57.2637 104.79C57.2897 104.745 57.3073 104.701 57.3351 104.656C57.5047 104.379 57.8208 104.216 58.1358 104.222C58.461 104.231 58.7565 104.413 58.911 104.7C58.9818 104.832 59.0636 104.973 59.152 105.121C59.0491 104.511 58.8147 102.854 58.934 100.907Z" fill="#B4B9BC"/>
<path d="M59.5795 98.4092C57.4204 98.9803 55.5327 101.251 54.9785 101.97C55.2014 101.887 55.4321 101.83 55.6707 101.804C55.9923 101.776 56.3012 101.907 56.4926 102.163C56.684 102.418 56.7276 102.756 56.6064 103.053C56.5967 103.076 56.581 103.119 56.5628 103.172L56.7778 103.292C57.7626 101.173 59.5795 98.4092 59.5795 98.4092Z" fill="#B4B9BC"/>
<path d="M69.3379 99.5693C69.8418 101.557 69.9011 103.305 69.906 103.837C69.9284 103.773 69.9532 103.703 69.972 103.643C70.0695 103.332 70.3251 103.097 70.6424 103.026C70.9628 102.955 71.2916 103.061 71.5109 103.301C71.6496 103.453 71.7658 103.605 71.8797 103.755C71.3534 101.143 69.3379 99.5693 69.3379 99.5693Z" fill="#B4B9BC"/>
<path d="M72.1086 101.927C72.065 101.836 72.0256 101.762 71.9941 101.706C72.0226 101.784 72.0523 101.864 72.0789 101.94L72.1086 101.927Z" fill="#B4B9BC"/>
<path d="M69.7891 96.7998C69.7891 96.7998 70.9755 99.0794 71.781 101.132C71.7737 100.983 71.8016 100.831 71.8694 100.692C72.0087 100.404 72.2897 100.212 72.6083 100.185C72.965 100.153 73.3223 100.197 73.6675 100.292C72.9577 99.2574 71.5254 97.4533 69.7891 96.7998Z" fill="#B4B9BC"/>
<path d="M53.3153 94.1335L55.4059 93.5612L60.1922 94.9238L61.0776 96.3761L61.9642 95.3684L62.4778 96.3985L63.1313 95.8414L64.2414 97.373L65.214 95.7227L65.8063 96.6026C65.8063 96.6026 66.2393 95.0577 66.3362 95.1728C66.4331 95.2884 67.1357 96.3222 67.2495 96.3234C67.3634 96.3259 68.0308 94.7821 68.0308 94.7821L72.8298 92.9665L74.9458 93.2281L74.9586 92.3953L76.7191 91.1799C76.5241 90.9461 76.323 90.7341 76.1165 90.5439C69.7556 92.2421 64.7865 92.7757 61.0661 92.7757C56.1672 92.7757 53.4316 91.8575 52.5056 91.4766C52.2585 91.522 51.6861 91.6892 51.043 92.273L53.3286 93.2238L53.3153 94.1335Z" fill="#5E5E5E"/>
<path d="M81.8001 92.5368C81.6651 92.1832 81.3187 91.9258 80.9462 91.953C80.3321 91.9421 79.351 91.3474 78.7605 90.8732C78.2857 90.1658 77.7612 89.5687 77.2022 89.0805C77.003 88.7274 76.5857 88.5373 76.1745 88.6511C60.0394 93.0704 53.0692 89.7461 52.9796 89.7013C52.7143 89.5656 52.4151 89.5759 52.168 89.6977C51.2905 89.8691 49.2235 90.6097 47.8626 93.8299C47.4484 94.3168 46.5527 95.1865 45.9222 95.3039C45.5498 95.373 45.2591 95.6661 45.1937 96.0386C45.1276 96.4116 45.2996 96.7859 45.6255 96.9791C45.7157 97.033 47.3115 97.9523 49.3295 97.7525C48.9401 98.7699 48.6609 100.085 48.8874 101.559C48.937 101.881 49.1557 102.152 49.4609 102.269C49.7667 102.386 50.1101 102.33 50.3621 102.122C50.3681 102.117 50.6867 101.862 51.233 101.564C51.1433 102.499 51.3595 103.726 52.2522 105.28C52.4097 105.554 52.698 105.726 53.0141 105.735C53.3345 105.758 53.6276 105.589 53.8008 105.325C53.951 105.094 54.2193 104.752 54.5379 104.433C54.5397 105.84 55.0787 107.463 56.9089 108.495C57.1996 108.659 57.5557 108.651 57.8379 108.474C58.1201 108.296 58.2824 107.98 58.2619 107.647C58.2619 107.643 58.2534 107.445 58.3073 107.128C59.1745 108.318 60.5251 109.788 62.0803 110.108C62.3619 110.168 62.6551 110.087 62.8695 109.895C63.0839 109.703 63.1947 109.421 63.1686 109.135C63.168 109.129 63.145 108.831 63.1898 108.419L64.1982 109.763C64.2043 109.771 64.2115 109.776 64.2182 109.784C64.2473 109.821 64.2806 109.854 64.3157 109.886C64.3302 109.9 64.3442 109.915 64.3599 109.927C64.4017 109.961 64.4489 109.99 64.4986 110.016C64.5701 110.055 64.6439 110.085 64.7221 110.103C64.7887 110.118 64.8571 110.126 64.9244 110.126L64.925 110.126L64.9256 110.126C64.9286 110.126 64.931 110.125 64.934 110.125C65.0213 110.124 65.1067 110.11 65.189 110.084C65.2175 110.076 65.2435 110.06 65.2714 110.049C65.3289 110.024 65.3846 109.998 65.4355 109.963C65.447 109.955 65.4597 109.952 65.4706 109.944C65.5106 109.914 65.5457 109.88 65.5802 109.844C65.5857 109.838 65.593 109.833 65.5984 109.827C65.6517 109.768 65.6941 109.703 65.7298 109.634C65.7335 109.627 65.7389 109.622 65.7426 109.616L66.4778 108.105C66.6007 108.502 66.6353 108.8 66.6359 108.804C66.6643 109.09 66.826 109.347 67.0737 109.494C67.3202 109.642 67.6218 109.663 67.8889 109.553C69.3539 108.944 70.4016 107.247 71.0279 105.914C71.1417 106.216 71.1726 106.413 71.1726 106.414C71.215 106.744 71.4354 107.024 71.7455 107.144C72.0562 107.263 72.4075 107.205 72.6618 106.988C74.2625 105.628 74.4842 103.935 74.2201 102.553C74.592 102.805 74.9202 103.09 75.1122 103.285C75.332 103.513 75.6542 103.609 75.9625 103.54C76.2708 103.471 76.5215 103.247 76.6238 102.948C77.2046 101.254 77.1853 100.008 76.9194 99.1067C77.5141 99.2968 77.8751 99.487 77.8805 99.49C78.1682 99.6457 78.5164 99.6354 78.7932 99.4634C79.0706 99.2914 79.2347 98.9831 79.222 98.6567C79.1651 97.1669 78.6406 95.9283 78.0658 95.0036C80.0892 94.8152 81.4779 93.6106 81.5561 93.5416C81.8377 93.2909 81.9352 92.8899 81.8001 92.5368ZM77.118 93.1824C76.9279 93.1625 76.7329 93.1291 76.5336 93.0765C76.4282 93.048 76.3216 93.0165 76.2144 92.979C75.7996 92.8318 75.3369 93.0032 75.1189 93.3884C74.902 93.7735 74.9929 94.2586 75.3345 94.5378C75.3502 94.5505 76.5845 95.5783 77.1411 97.2765C76.5136 97.099 75.7348 96.9452 74.8627 96.9125C74.4436 96.8883 74.0639 97.1887 73.9597 97.6065C73.8555 98.0232 74.0705 98.4617 74.4569 98.6494C74.4636 98.6525 74.4836 98.6628 74.5144 98.6827C74.6344 98.7584 74.9081 98.9777 75.0916 99.4343C75.2382 99.7995 75.3272 100.314 75.2285 101.04C74.7821 100.739 74.2407 100.447 73.6654 100.291C73.3202 100.197 72.9628 100.153 72.6061 100.184C72.2882 100.211 72.0072 100.404 71.8673 100.692C71.7994 100.83 71.7716 100.982 71.7788 101.132C71.7861 101.291 71.8339 101.448 71.9236 101.587C71.9308 101.598 71.9587 101.643 71.9938 101.705C72.0259 101.761 72.0647 101.836 72.1083 101.926C72.1319 101.974 72.1555 102.027 72.1804 102.084C72.2664 102.28 72.3493 102.525 72.4123 102.802C72.5201 103.284 72.551 103.855 72.3342 104.433C72.2106 104.215 72.0538 103.987 71.88 103.755C71.7661 103.605 71.6498 103.453 71.5111 103.301C71.2925 103.061 70.9637 102.955 70.6427 103.026C70.3253 103.097 70.0698 103.332 69.9722 103.643C69.9535 103.704 69.9286 103.773 69.9062 103.837C69.6737 104.527 69.2879 105.407 68.8155 106.18C68.5878 106.553 68.3413 106.904 68.0797 107.192C67.8756 106.657 67.5613 106.054 67.081 105.537C66.8769 105.318 66.5789 105.21 66.2816 105.256C65.9854 105.3 65.7298 105.488 65.5984 105.757L64.7584 107.483L63.6071 105.948C63.4272 105.708 63.1462 105.575 62.8416 105.585C62.5424 105.598 62.2687 105.757 62.1094 106.011C61.7351 106.61 61.5407 107.262 61.4414 107.826C61.3172 107.734 61.1943 107.631 61.0714 107.521C60.327 106.851 59.6233 105.901 59.1527 105.121C59.0643 104.974 58.9826 104.832 58.9117 104.701C58.7573 104.414 58.4617 104.231 58.1365 104.222C57.821 104.217 57.5054 104.379 57.3359 104.657C57.308 104.702 57.2904 104.745 57.2644 104.79C57.0349 105.188 56.8598 105.575 56.7411 105.927C56.0768 104.849 56.4195 103.588 56.5619 103.172C56.58 103.119 56.5964 103.075 56.6055 103.052C56.726 102.756 56.683 102.418 56.4916 102.163C56.3002 101.907 55.9914 101.776 55.6698 101.804C55.4312 101.83 55.201 101.888 54.9775 101.969C54.3065 102.217 53.7148 102.686 53.2564 103.143C52.6538 101.36 53.5144 100.685 53.5434 100.663C53.9086 100.42 54.0473 99.9497 53.8735 99.5464C53.6997 99.1436 53.2594 98.9268 52.8354 99.0213C51.9864 99.2175 51.2511 99.5155 50.6685 99.808C50.8974 98.0474 51.9094 96.7926 51.9203 96.7786C52.2032 96.4395 52.2007 95.9459 51.9149 95.6092C51.629 95.2725 51.1427 95.1901 50.7618 95.4142C50.565 95.5298 50.3681 95.6225 50.1725 95.6982C49.9648 95.7788 49.7589 95.8375 49.5572 95.8799C49.1187 95.9701 48.699 95.9816 48.3187 95.9447C48.8825 95.4523 49.2774 94.9721 49.3567 94.8733C49.4112 94.8049 49.4561 94.7292 49.4894 94.6474C49.966 93.4804 50.5274 92.7434 51.0434 92.2746C51.6872 91.6902 52.2589 91.5236 52.506 91.4782C53.4314 91.8591 56.1676 92.7773 61.0665 92.7773C64.7869 92.7773 69.756 92.2437 76.1169 90.5455C76.3235 90.7351 76.5245 90.9477 76.7195 91.1815C76.9255 91.4273 77.1259 91.6926 77.3167 91.9851C77.3645 92.0584 77.4233 92.1244 77.4899 92.1813C77.5856 92.2625 78.0646 92.6592 78.7114 93.0359C78.2487 93.1721 77.7067 93.246 77.118 93.1824Z" fill="#464646"/>
<path d="M63.1949 55.6104C61.4925 55.6104 59.8719 56.3214 58.7478 57.5605C56.3544 60.1998 55.5677 64.3931 56.7432 68.2425C57.4742 70.6366 59.7635 75.1648 63.1937 75.166C64.5407 75.166 66.5192 73.7386 67.5809 72.4147C68.9896 70.6596 69.9077 67.8888 70.0349 65.0073C70.1742 61.838 69.3481 59.0721 67.7668 57.42C66.6192 56.219 65.0803 55.6104 63.1949 55.6104Z" fill="#EFC59F"/>
<path d="M63.2403 58.124C61.9758 58.124 60.7712 58.6521 59.936 59.5727C58.1573 61.5337 57.5735 64.6496 58.4468 67.51C58.99 69.2894 60.6912 72.653 63.2397 72.653C64.2402 72.653 65.7107 71.5932 66.4998 70.6102C67.5469 69.3057 68.2283 67.2472 68.3233 65.1063C68.4269 62.751 67.8128 60.6955 66.6379 59.4679C65.7846 58.5758 64.6417 58.124 63.2403 58.124Z" fill="#B89A7B"/>
<path d="M63.1292 51.7744C55.9428 51.7744 50.7266 56.9907 50.7266 64.177C50.7266 71.3561 56.5666 80.4654 63.1292 80.4654C69.8086 80.4654 75.5318 71.8425 75.5318 64.7827C75.5318 58.4938 72.2735 51.7744 63.1292 51.7744ZM69.4719 73.9313C68.4575 75.1958 65.84 77.5886 63.1958 77.5886C58.3575 77.5874 55.4081 72.158 54.4275 68.95C53.0074 64.3018 53.9994 59.1921 56.9548 55.9326C58.5367 54.1884 60.8121 53.1879 63.1964 53.1879C65.7328 53.1879 67.9185 54.0722 69.5192 55.7455C71.5547 57.8731 72.6254 61.2876 72.457 65.1139C72.3075 68.4927 71.1913 71.7879 69.4719 73.9313Z" fill="#EFC59F"/>
<path d="M76.6209 72.163L76.7323 71.2285C76.6027 71.5798 76.4622 71.9286 76.3145 72.2756C76.3938 72.246 76.4737 72.2175 76.5603 72.186C76.5815 72.1775 76.6003 72.1703 76.6209 72.163Z" fill="#B89A7B"/>
<path d="M78.0884 59.7966C77.5725 59.3339 77.2 58.8918 76.9238 58.4775C77.3405 59.6361 77.636 60.8873 77.8002 62.2233L78.0884 59.7966Z" fill="#B89A7B"/>
<path d="M82.8925 56.3047C83.082 56.5615 83.2219 56.7716 83.2952 56.8867C83.5653 57.3088 83.4418 57.8702 83.0196 58.1403C82.5981 58.4098 82.0361 58.2881 81.7648 57.8654C81.5377 57.5111 81.2252 57.1023 80.8812 56.7213C80.8757 56.7159 80.8685 56.7135 80.8636 56.7086C80.8582 56.7026 80.857 56.6953 80.8515 56.6892C80.2144 55.9922 79.4713 55.3993 78.9371 55.432C78.5471 55.4598 78.2297 55.9455 78.0214 56.3804C78.0178 56.5215 78.0384 57.439 79.6178 58.7126L80.0091 59.0282L78.36 72.9261C78.36 72.9285 78.3581 72.9297 78.3581 72.9321C78.3272 73.1926 78.2364 73.3579 78.068 73.4881C78.0608 73.4954 78.0541 73.5008 78.0462 73.5081C77.9966 73.545 77.939 73.5777 77.8767 73.611C77.8312 73.6359 77.7882 73.6595 77.738 73.6758C77.5854 73.7431 77.4037 73.8109 77.1826 73.8921C76.7647 74.0447 75.8175 74.3899 75.5511 74.5098C75.0829 74.8919 74.5978 75.5805 74.559 76.1268C74.5445 76.3351 74.5954 76.4829 74.7286 76.6192C75.4293 77.3363 76.5382 77.1194 77.2831 76.644C77.1287 76.4357 77.0143 76.2667 76.9488 76.1674C76.6739 75.7489 76.7902 75.1869 77.2099 74.9113C77.6265 74.637 78.1916 74.7514 78.4671 75.1705C79.1321 76.1795 80.5051 77.6215 81.3239 77.5706C81.7133 77.5373 82.0252 77.048 82.2281 76.6089C82.2299 76.4684 82.1978 75.5515 80.6026 74.2978C80.2574 74.0259 79.9309 73.5232 80.1217 73.1447C80.1217 73.1447 81.8514 60.2394 81.8562 60.2049C81.9289 59.6968 82.1802 59.5853 82.9276 59.2541C83.2831 59.0966 84.0062 58.7756 84.1976 58.6745C84.6766 58.3026 85.1854 57.6068 85.2314 57.0526C85.2483 56.8431 85.1993 56.6953 85.0673 56.5566C84.4859 55.9467 83.6053 55.997 82.8925 56.3047Z" fill="#C6C2A9"/>
<path d="M63.1886 42.1592L63.1213 42.1592C45.3735 42.1592 31.4707 52.4906 31.4707 65.6793C31.4707 82.1923 52.5199 89.9661 63.8124 91.8066C74.0808 90.341 94.9101 82.0421 94.9101 65.3886C94.9101 52.3882 80.977 42.1852 63.1886 42.1592ZM85.2522 60.1536C85.1092 60.2614 84.8942 60.3679 83.6636 60.9142C83.6382 60.9251 83.6139 60.936 83.5897 60.9469C83.3063 63.0606 82.1937 71.3552 81.9642 73.0691C84.466 75.1676 84.0282 76.9512 83.967 77.1535L83.9289 77.2564C83.2045 78.9031 82.1937 79.3204 81.473 79.3798C81.4058 79.3858 81.3374 79.3883 81.2702 79.3883C80.2363 79.3883 79.2613 78.7414 78.4934 78.0183C77.7496 78.5622 76.8127 78.8971 75.8825 78.8971C74.9959 78.8971 74.1189 78.5955 73.4291 77.8905C73.3152 77.7749 73.219 77.6495 73.1336 77.5181C70.4997 80.6952 66.9901 82.8882 63.1268 82.8882C55.4426 82.8882 48.8213 73.3604 48.3332 65.1366C46.7507 64.6879 43.6486 63.5111 42.2188 60.9118C41.896 60.3256 42.1097 59.5891 42.696 59.2669C43.2822 58.9435 44.0199 59.1579 44.3409 59.7442C45.1942 61.2958 47.0783 62.1721 48.3756 62.6124C49.1096 54.9506 55.2052 49.3516 63.1274 49.3516C69.2624 49.3516 73.916 52.1641 76.2616 56.9189C76.1538 56.3102 76.2598 55.9045 76.2883 55.8148L76.3276 55.7125C77.072 54.0755 78.087 53.6703 78.8083 53.6195C79.8657 53.5444 80.8589 54.1688 81.6475 54.8985C83.0979 54.0428 85.0862 53.9453 86.381 55.3001C86.874 55.8167 87.1023 56.4738 87.0418 57.2023C86.9418 58.3912 86.0716 59.5413 85.2522 60.1536Z" fill="#B89A7B"/>
<path d="M65.5213 61.7914C64.9841 61.7423 64.5129 62.133 64.4627 62.6665C64.413 63.1843 64.2864 63.6725 64.1162 64.1315L61.5405 62.0088C61.1269 61.6678 60.5158 61.7266 60.1736 62.1408C59.8314 62.5551 59.8908 63.1668 60.305 63.5077L63.1775 65.8763C62.326 67.0749 61.3697 67.8034 61.3467 67.821C60.9161 68.139 60.8253 68.7458 61.1426 69.1776C61.3328 69.4356 61.6271 69.5725 61.9257 69.5725C62.125 69.5725 62.3272 69.5107 62.5004 69.3829C62.5985 69.3108 64.1865 68.1172 65.3136 66.1428C65.3172 66.1368 65.3208 66.1319 65.3239 66.1265C65.8526 65.1956 66.2789 64.0934 66.397 62.85C66.4467 62.3165 66.0555 61.8423 65.5213 61.7914Z" fill="#010101"/>
<path d="M69.5178 55.7451C67.9165 54.0717 65.7308 53.1875 63.195 53.1875C60.8107 53.1875 58.5359 54.188 56.9534 55.9322C53.998 59.1917 53.006 64.3007 54.4262 68.9495C55.4061 72.1575 58.3555 77.587 63.1944 77.5882C65.8386 77.5882 68.4561 75.1954 69.4705 73.9308C71.1905 71.7875 72.3067 68.4923 72.4557 65.1135C72.624 61.2878 71.5533 57.8726 69.5178 55.7451ZM70.035 65.0069C69.9078 67.8885 68.9897 70.6592 67.581 72.4143C66.5193 73.7382 64.5401 75.1657 63.1938 75.1657C59.7635 75.1645 57.4743 70.6362 56.7433 68.2422C55.5678 64.3928 56.3539 60.1994 58.7479 57.5601C59.8714 56.321 61.4926 55.61 63.195 55.61C65.0803 55.61 66.6186 56.2187 67.7675 57.419C69.3482 59.0718 70.1749 61.8377 70.035 65.0069Z" fill="#010101"/>
<path d="M75.5465 65.8115C75.5465 65.8115 71.6117 77.657 63.1857 79.0996C54.759 77.6564 50.8242 65.8115 50.8242 65.8115C51.2155 79.5859 62.8647 81.5469 63.1778 81.5978L63.1778 81.6002C63.1778 81.6002 63.1844 81.599 63.1857 81.599C63.1863 81.599 63.1929 81.6002 63.1929 81.6002L63.1929 81.5978C63.506 81.5469 75.1547 79.5859 75.5465 65.8115Z" fill="#B89A7B"/>
<path d="M81.6483 54.8995C80.8597 54.1697 79.8671 53.5453 78.8091 53.6204C78.0884 53.6713 77.0727 54.0764 76.3284 55.7134L76.2891 55.8158C76.2606 55.9054 76.1546 56.3112 76.2624 56.9198C73.9174 52.1645 69.2632 49.3525 63.1282 49.3525C55.206 49.3525 49.1104 54.9516 48.3776 62.6133C47.0797 62.1724 45.1962 61.2961 44.3429 59.7451C44.0219 59.1588 43.2842 58.9445 42.698 59.2679C42.1117 59.59 41.898 60.3265 42.2208 60.9127C43.65 63.5121 46.7521 64.6888 48.3352 65.1376C48.8233 73.3608 55.4446 82.8891 63.1288 82.8891C66.9927 82.8891 70.5023 80.6961 73.1356 77.519C73.2216 77.6504 73.3179 77.7758 73.4311 77.8915C74.1209 78.5964 74.9979 78.898 75.8845 78.898C76.8141 78.898 77.7517 78.5631 78.4954 78.0193C79.2633 78.7418 80.2384 79.3892 81.2722 79.3892C81.3394 79.3892 81.4078 79.3868 81.475 79.3807C82.1951 79.3214 83.2059 78.9041 83.9309 77.2574L83.969 77.1544C84.0308 76.9522 84.4681 75.1686 81.9662 73.0701C82.1957 71.3562 83.3083 63.0615 83.5917 60.9479C83.6159 60.937 83.6402 60.9261 83.6656 60.9152C84.8962 60.3695 85.1112 60.2623 85.2542 60.1545C86.0736 59.5422 86.9439 58.3927 87.0432 57.2033C87.1043 56.4753 86.876 55.8176 86.3824 55.301C85.087 53.9462 83.0981 54.0437 81.6483 54.8995ZM78.089 59.7972L77.8007 62.2239C77.6366 60.8885 77.3404 59.6373 76.9244 58.4781C77.2005 58.8924 77.573 59.3345 78.089 59.7972ZM63.1288 80.466C56.5656 80.466 50.7262 71.3568 50.7262 64.1777C50.7262 56.9913 55.9424 51.775 63.1288 51.775C72.2738 51.775 75.5314 58.4951 75.5314 64.7833C75.5314 71.8431 69.8083 80.466 63.1288 80.466ZM76.733 71.229L76.6216 72.1635C76.601 72.1707 76.5822 72.1774 76.5604 72.1859C76.4732 72.218 76.3938 72.2464 76.3145 72.2755C76.4623 71.9297 76.6034 71.5802 76.733 71.229ZM84.1985 58.6737C84.0078 58.7749 83.284 59.0959 82.9285 59.2533C82.1818 59.5846 81.9305 59.696 81.8572 60.2042C81.8524 60.2387 80.1227 73.144 80.1227 73.144C79.9319 73.5225 80.2583 74.0252 80.6035 74.2971C82.1988 75.5507 82.2309 76.4677 82.229 76.6082C82.0262 77.0472 81.7137 77.5366 81.3249 77.5699C80.506 77.6208 79.1331 76.1788 78.4681 75.1698C78.1925 74.7513 77.6275 74.6362 77.2108 74.9106C76.7917 75.1861 76.6748 75.7482 76.9498 76.1667C77.0146 76.266 77.1297 76.4349 77.2841 76.6433C76.5398 77.1187 75.4303 77.3355 74.7296 76.6185C74.5957 76.4822 74.5449 76.3344 74.56 76.1261C74.5982 75.5798 75.0833 74.8912 75.552 74.5091C75.8185 74.3897 76.7657 74.0439 77.1836 73.8913C77.4046 73.8096 77.5863 73.7423 77.7389 73.6751C77.7886 73.6588 77.8316 73.6351 77.8776 73.6103C77.9406 73.577 77.9975 73.5443 78.0472 73.5073C78.0551 73.5001 78.0617 73.4946 78.069 73.4874C78.2368 73.3572 78.3282 73.1918 78.3591 72.9314C78.3591 72.929 78.3609 72.9278 78.3609 72.9253L80.01 59.0274L79.6188 58.7119C78.0399 57.4383 78.0187 56.5213 78.0224 56.3796C78.2307 55.9442 78.5481 55.4585 78.9381 55.4312C79.4722 55.3985 80.2153 55.9914 80.8525 56.6885C80.8579 56.6946 80.8591 56.7018 80.8646 56.7079C80.87 56.7133 80.8773 56.7157 80.8821 56.7206C81.2261 57.1015 81.5386 57.5103 81.7657 57.8646C82.0371 58.2873 82.5991 58.4091 83.0206 58.1396C83.4427 57.8695 83.5663 57.3081 83.2962 56.8859C83.2229 56.7709 83.083 56.5607 82.8934 56.3039C83.6068 55.9963 84.4874 55.946 85.0682 56.5547C85.2009 56.6933 85.2499 56.8417 85.2324 57.0507C85.1863 57.6066 84.6776 58.3019 84.1985 58.6737Z" fill="#886D50"/>
<path d="M35.9898 75.6564C36.1557 75.6564 36.2902 75.522 36.2902 75.3561C36.2902 75.1902 36.1557 75.0557 35.9898 75.0557C35.8239 75.0557 35.6895 75.1902 35.6895 75.3561C35.6895 75.522 35.8239 75.6564 35.9898 75.6564Z" fill="#EFC59F"/>
<path d="M79.4684 73.1193C79.6343 73.1193 79.7687 72.9848 79.7687 72.8189C79.7687 72.653 79.6343 72.5186 79.4684 72.5186C79.3025 72.5186 79.168 72.653 79.168 72.8189C79.168 72.9848 79.3025 73.1193 79.4684 73.1193Z" fill="white"/>
<path d="M81.1871 77.1828C81.353 77.1828 81.4875 77.0483 81.4875 76.8824C81.4875 76.7165 81.353 76.582 81.1871 76.582C81.0212 76.582 80.8867 76.7165 80.8867 76.8824C80.8867 77.0483 81.0212 77.1828 81.1871 77.1828Z" fill="white"/>
<path d="M79.0426 56.465C79.2085 56.465 79.343 56.3305 79.343 56.1646C79.343 55.9987 79.2085 55.8643 79.0426 55.8643C78.8767 55.8643 78.7422 55.9987 78.7422 56.1646C78.7422 56.3305 78.8767 56.465 79.0426 56.465Z" fill="white"/>
<path d="M90.424 76.0333C90.2913 75.9339 90.1018 75.9588 90 76.0926C89.9158 76.204 82.0263 87.2162 63.8242 90.2879C45.6221 87.2162 37.127 76.2034 37.0428 76.0926C36.9417 75.9588 36.7515 75.9339 36.6189 76.0333C36.4851 76.1338 36.4584 76.3234 36.5589 76.4566C36.6443 76.5705 45.286 87.7921 63.774 90.8947C63.7903 90.8972 63.8067 90.8984 63.8224 90.8984C63.823 90.8984 63.823 90.8984 63.8236 90.8984L63.8242 90.8984L63.8248 90.8984C63.8255 90.8984 63.8255 90.8984 63.8261 90.8984C63.8418 90.8984 63.8582 90.8972 63.8745 90.8947C82.3619 87.7921 90.3985 76.5705 90.4839 76.4566C90.5845 76.3228 90.5578 76.1338 90.424 76.0333Z" fill="#EFC59F"/>
<path d="M81.1873 60.1523L79.6484 71.7519" stroke="white" stroke-miterlimit="10" stroke-linecap="round" stroke-linejoin="round"/>
<path d="M52.2843 91.2873C55.9756 92.6372 59.8249 93.6268 63.6101 94.2276L63.7869 94.256L63.9644 94.2312C67.97 93.6837 72.448 92.4379 76.791 90.5442L78.5091 89.755C88.505 84.95 97.3338 76.6523 97.3338 65.3882C97.3338 51.0319 82.3373 39.7648 63.1934 39.7363L63.1226 39.7363C53.9752 39.7363 45.4583 42.3151 39.141 46.9978C32.6329 51.8222 29.0488 58.4568 29.0488 65.6795C29.0488 77.2422 38.5989 85.7222 50.2294 90.4903L52.2843 91.2873ZM63.8136 91.8069C52.5205 89.9664 31.4713 82.1926 31.4713 65.6795C31.4713 52.4902 45.3741 42.1594 63.122 42.1594L63.1892 42.1594C80.9771 42.1855 94.9107 52.3891 94.9107 65.3889C94.9107 82.0424 74.082 90.3413 63.8136 91.8069Z" fill="#886D50"/>
<path d="M22.1914 103.132C22.1914 110.035 27.7878 115.633 34.6914 115.634C41.595 115.636 47.1914 110.04 47.1914 103.137C47.1914 96.2332 41.595 90.6356 34.6914 90.6342C27.7878 90.6328 22.1914 96.2282 22.1914 103.132Z" fill="#886D50"/>
<path fill-rule="evenodd" clip-rule="evenodd" d="M34.6914 88.6338C42.6995 88.6354 49.1914 95.1286 49.1914 103.137C49.1914 111.145 42.6995 117.635 34.6914 117.634C26.6833 117.632 20.1914 111.139 20.1914 103.131C20.1914 95.1227 26.6833 88.6321 34.6914 88.6338ZM44.7608 103.136C44.7609 97.5746 40.2526 93.0654 34.6914 93.0643C29.1302 93.0632 24.622 97.5705 24.622 103.132C24.622 108.693 29.1302 113.202 34.6914 113.203C40.2526 113.204 44.7608 108.697 44.7608 103.136Z" fill="black"/>
<path d="M80.1914 103.132C80.1914 110.035 85.7878 115.633 92.6914 115.634C99.595 115.636 105.191 110.04 105.191 103.137C105.191 96.2332 99.595 90.6356 92.6914 90.6342C85.7878 90.6328 80.1914 96.2282 80.1914 103.132Z" fill="#886D50"/>
<path fill-rule="evenodd" clip-rule="evenodd" d="M92.6914 88.6338C100.7 88.6354 107.191 95.1286 107.191 103.137C107.191 111.145 100.7 117.635 92.6914 117.634C84.6833 117.632 78.1914 111.139 78.1914 103.131C78.1914 95.1227 84.6833 88.6321 92.6914 88.6338ZM102.761 103.136C102.761 97.5746 98.2526 93.0654 92.6914 93.0643C87.1302 93.0632 82.622 97.5705 82.622 103.132C82.622 108.693 87.1302 113.202 92.6914 113.203C98.2526 113.204 102.761 108.697 102.761 103.136Z" fill="black"/>
</svg>
