<svg width="129" height="129" viewBox="0 0 129 129" fill="none" xmlns="http://www.w3.org/2000/svg">
<mask id="mask0" mask-type="alpha" maskUnits="userSpaceOnUse" x="0" y="0" width="129" height="129">
<rect x="0.636719" y="0.51416" width="128" height="128" fill="#C4C4C4"/>
</mask>
<g mask="url(#mask0)">
<path d="M70.0856 13.3741C67.7055 13.4295 65.3776 14.0822 63.3156 15.2721C61.6995 16.2049 60.283 17.447 59.147 18.9274C58.011 20.4078 57.1778 22.0975 56.6949 23.8999C56.212 25.7024 56.0889 27.5823 56.3327 29.4323C56.5765 31.2823 57.1823 33.0662 58.1156 34.6821C59.9996 37.9451 63.1026 40.3262 66.7421 41.3014C70.3817 42.2765 74.2595 41.766 77.5226 39.8821C79.1387 38.9492 80.5552 37.7071 81.6912 36.2267C82.8272 34.7464 83.6604 33.0567 84.1433 31.2542C84.6262 29.4518 84.7493 27.5719 84.5055 25.7218C84.2617 23.8718 83.6559 22.0879 82.7226 20.4721C81.4471 18.2635 79.6006 16.439 77.3769 15.1901C75.1532 13.9412 72.6343 13.3139 70.0846 13.3741H70.0856ZM70.1356 18.5071C71.7821 18.4683 73.4086 18.8736 74.8445 19.6803C76.2803 20.4871 77.4724 21.6656 78.2956 23.0921C78.898 24.1352 79.2891 25.2867 79.4464 26.4809C79.6038 27.6751 79.5244 28.8886 79.2128 30.0522C78.9011 31.2157 78.3634 32.3064 77.6302 33.2621C76.897 34.2178 75.9827 35.0197 74.9396 35.6221C73.8965 36.2245 72.7449 36.6155 71.5506 36.7728C70.3564 36.93 69.1428 36.8506 67.9793 36.5388C66.8157 36.2271 65.725 35.6892 64.7693 34.9559C63.8137 34.2226 63.0119 33.3083 62.4096 32.2651C61.8071 31.2219 61.4159 30.0702 61.2585 28.8759C61.1012 27.6815 61.1806 26.4678 61.4924 25.3042C61.8041 24.1405 62.342 23.0497 63.0754 22.094C63.8088 21.1382 64.7232 20.3363 65.7666 19.7341C67.0974 18.9654 68.6001 18.5435 70.1366 18.5071H70.1356Z" fill="#FCFCFC" stroke="#353535" stroke-width="2.762"/>
<path d="M67.3137 25.2056L85.8397 38.9396L103.448 61.0066L100.072 61.3446L83.9047 40.9746L64.4727 26.8676L67.3137 25.2056Z" fill="#FCFCFC" stroke="#353535" stroke-width="1.845" stroke-miterlimit="5"/>
<mask id="mask1" mask-type="alpha" maskUnits="userSpaceOnUse" x="5" y="27" width="115" height="111">
<path d="M80.004 27.6537L6.38788 70.1559L25.2797 100.413L98.8958 57.9112L80.004 27.6537Z" fill="#C4C4C4"/>
<path d="M24.836 103.573L44.7949 136.679L118.411 94.1765L98.4521 61.0709L24.836 103.573Z" fill="#C4C4C4"/>
</mask>
<g mask="url(#mask1)">
<mask id="mask2" mask-type="alpha" maskUnits="userSpaceOnUse" x="11" y="30" width="100" height="99">
<rect x="11.9199" y="66.6162" width="72" height="72" transform="rotate(-30 11.9199 66.6162)" fill="#C4C4C4"/>
</mask>
<g mask="url(#mask2)">
<path d="M72.3875 104.385C72.4086 104.384 72.4242 104.384 72.4353 104.384L72.5248 104.389L72.6615 104.373C73.3839 104.287 74.1702 104.147 74.9676 103.687C75.3457 103.468 75.7093 103.188 76.0012 102.876C76.1739 102.691 76.462 102.349 76.6128 101.891C76.6426 101.843 76.678 101.787 76.7202 101.72C76.8598 101.498 77.0569 101.183 77.2991 100.786C77.7834 99.9926 78.4465 98.873 79.1996 97.4927C80.7033 94.7367 82.5743 90.9269 84.0979 86.5864C85.9541 81.3726 86.8842 76.448 86.8979 71.8984L86.8979 71.8957C86.9052 65.8576 85.3185 60.6331 81.9412 56.2857C78.9035 52.3316 75.0651 49.82 70.7568 48.8739C66.9195 47.9884 62.9539 48.5341 59.2822 50.2069C58.7432 50.4011 58.2109 50.7088 57.8173 50.9364C57.7986 50.9472 57.7802 50.9578 57.7621 50.9683C54.8936 52.6244 52.5294 54.971 50.9015 57.6655C50.4155 58.453 49.9691 59.2844 49.6162 60.1655C48.7069 60.0354 47.8017 59.9811 46.8422 60.0092C43.6947 60.0717 40.4804 60.9459 37.6119 62.602C37.372 62.7405 37.1333 62.9077 36.9496 63.0364C36.9356 63.0462 36.9219 63.0557 36.9086 63.0651C36.6976 63.2126 36.5312 63.327 36.3679 63.4212L36.3076 63.4561L36.2508 63.4963C32.9401 65.8417 30.4639 69.0146 29.304 72.7981C27.882 77.0721 28.231 81.6169 30.1289 86.2041L30.1288 86.2042L30.1342 86.2168C32.2347 91.1655 35.9158 95.2743 41.1676 98.2981L41.17 98.2994C45.117 100.562 49.8469 102.219 55.2903 103.219C59.811 104.069 64.0459 104.354 67.1845 104.43C68.7564 104.468 70.0576 104.453 70.9869 104.43C71.4516 104.419 71.8227 104.406 72.085 104.396L72.1609 104.393C72.2565 104.39 72.3305 104.387 72.3875 104.385Z" fill="#FCFCFC" stroke="#353535" stroke-width="3"/>
</g>
</g>
<path d="M28.7717 28.4667C27.0403 28.0165 26.7257 25.6936 28.2749 24.799L43.2978 16.1246C43.9012 15.7762 44.6425 15.7669 45.2544 16.1002L60.0773 24.1724C61.4473 24.9185 61.4737 26.876 60.1244 27.6588L53.4784 31.5144L40.4149 39.0569C39.4583 39.6091 38.2351 39.2814 37.6828 38.3249L32.978 30.1765C32.7102 29.7127 32.2676 29.3756 31.7492 29.2409L28.7717 28.4667Z" fill="#FCFCFC" stroke="#353535" stroke-width="2.762" stroke-miterlimit="5"/>
<path d="M41.6484 44.0416L46.2264 51.9716C48.6522 48.6693 51.7322 45.9022 55.2744 43.8426C58.8234 41.7996 62.7551 40.5092 66.8244 40.0516L62.2584 32.1416L41.6484 44.0416Z" fill="#FCFCFC" stroke="#353535" stroke-width="2.762" stroke-miterlimit="5"/>
<line x1="34.4043" y1="93.4085" x2="85.4998" y2="63.9085" stroke="#353535" stroke-width="3"/>
<line x1="86.9316" y1="69.4524" x2="38.4342" y2="97.4524" stroke="#353535" stroke-width="3"/>
</g>
</svg>
