<svg width="128" height="128" viewBox="0 0 128 128" fill="none" xmlns="http://www.w3.org/2000/svg">
<path d="M32 46.5022C32 63.8992 46.103 78.0017 63.5 78.0011C80.897 78.0005 95 63.897 95 46.5C95 29.103 80.897 15.0005 63.5 15.0011C46.103 15.0017 32 29.1052 32 46.5022Z" fill="black"/>
<path fill-rule="evenodd" clip-rule="evenodd" d="M64 12.0012C82.7777 12.0005 98 27.2223 98 46C98 64.7777 82.7777 80.0005 64 80.0012C45.2223 80.0018 30 64.7801 30 46.0024C30 27.2247 45.2223 12.0018 64 12.0012ZM92.8097 46.0002C92.8097 30.089 79.9112 17.1909 64 17.1915C48.0888 17.192 35.1903 30.091 35.1903 46.0022C35.1903 61.9134 48.0888 74.8115 64 74.8109C79.9112 74.8104 92.8097 61.9114 92.8097 46.0002Z" fill="black"/>
<path d="M22 71.0029C22 94.1989 40.804 113.002 64 113.001C87.196 113.001 106 94.196 106 71C106 47.804 87.196 29.0007 64 29.0015C40.804 29.0023 22 47.807 22 71.0029Z" fill="#EA8611"/>
<mask id="mask0" mask-type="alpha" maskUnits="userSpaceOnUse" x="22" y="29" width="84" height="85">
<path d="M22 71.0029C22 94.1989 40.804 113.002 64 113.001C87.196 113.001 106 94.196 106 71C106 47.804 87.196 29.0007 64 29.0015C40.804 29.0023 22 47.807 22 71.0029Z" fill="#3CA3CF"/>
</mask>
<g mask="url(#mask0)">
<path d="M38.3915 104.806C38.3991 108.499 37.1743 111.797 33.0083 118.888C28.3868 120.312 22.5569 119.13 23.0376 118.779C23.9066 118.044 27.0513 113.803 28.2221 111.726C31.3755 106.095 31.2401 103.081 27.5591 91.9869C24.4375 82.7366 22.5203 73.4339 22.3439 67.1275C22.2276 63.5259 21.903 61.1435 20.383 52.4931C19.1005 45.3435 19.0868 45.0808 20.0797 44.285C21.3827 43.2598 25.9359 40.8695 26.0883 41.1797C26.1492 41.3038 26.171 42.7566 26.1917 44.3639C26.181 46.0637 26.6464 50.6108 27.2395 54.4788C28.4099 62.2611 28.8078 65.2622 29.0587 69.5293C29.3264 73.5957 31.1687 80.0852 34.0876 87.2013C37.386 95.3248 38.2888 99.0408 38.3915 104.806Z" fill="black"/>
<path d="M124.994 98.9573C121.955 97.4627 116.079 94.025 114.768 93.078C111.962 90.9643 109.563 87.4872 107.384 82.4274C103.841 74.1973 102.349 67.1711 102.969 61.6293C103.16 59.8284 103.247 56.7208 103.16 54.6682C102.955 50.9668 102.237 43.4829 102.007 43.0141C101.807 42.6078 99.8243 54.134 99.2221 58.93C98.3167 66.7846 98.9558 74.8894 101.054 80.8033C101.728 82.8002 102.735 86.8834 103.282 89.8736C103.829 92.8638 104.408 95.528 104.561 95.8406C104.715 96.1531 107.585 97.3039 110.904 98.4286C114.238 99.5845 117.587 100.927 118.312 101.386C119.9 102.429 120.132 102.432 123.86 101.027L126.799 99.8942L124.994 98.9573Z" fill="black"/>
<path d="M107.511 105.043C106.058 104.282 103.756 102.891 102.459 101.899C100.112 100.181 100.036 100.024 98.5334 96.4172C97.7367 94.4033 96.4991 90.4721 95.7829 87.7591C95.0824 84.9997 94.2577 82.3012 93.9506 81.6761C93.3979 80.551 93.5085 80.0701 95.4643 71.9715C96.4105 68.093 96.477 59.9136 95.6449 51.7876C94.9613 45.1405 94.9967 44.1146 96.2834 33.1635C97.4566 23.3933 98.2513 18.7357 99.7597 13.8052C101.19 9.1072 101.289 4.05397 100.046 -2.08546C97.7712 -13.3825 97.107 -20.9315 97.3593 -32.6547L97.534 -40.7706L93.6133 -43.8883C91.4523 -45.6202 89.3841 -47.32 89.0139 -47.6814C88.4585 -48.1845 88.3947 -47.7653 88.6326 -45.4769C88.765 -43.8738 88.7516 -40.7636 88.4784 -38.4958C87.9788 -34.0219 87.902 -27.0402 88.2713 -22.9155C88.389 -21.4991 89.3855 -15.5488 90.5064 -9.73717C91.5653 -3.89503 92.4826 2.44342 92.5055 4.29425C92.5592 6.20759 92.7766 9.63095 93.0456 11.9041C93.3141 14.255 93.4955 18.86 93.4653 22.2499L93.4854 28.3307L91.3504 27.7498C90.1437 27.4114 89.168 27.3863 89.1202 27.6813C89.0261 27.9603 89.1217 30.9004 89.2778 34.1988C89.6916 42.3362 89.643 46.3947 88.903 59.8704C88.2989 70.5638 88.1389 71.7285 86.4753 76.7352C85.4404 79.6487 83.9677 83.4753 83.1081 85.2553L81.5762 88.4906L79.4908 83.618C77.4057 78.6678 76.5674 75.5494 76.5495 72.5322C76.5226 71.6144 77.1483 66.613 78.0071 61.4584C80.3803 46.4436 80.1309 39.6608 77.0552 34.5764C75.6706 32.3856 75.3649 31.4496 75.1117 29.1299C74.9325 27.5886 74.738 26.0159 74.6779 25.5799C74.5871 25.0814 73.767 24.9024 71.5209 24.9581C68.6394 25.0542 68.5153 25.1151 68.3406 26.0932C68.1022 27.4904 69.804 38.6418 71.0822 43.9107C71.6292 46.3577 72.1125 49.2239 72.1545 50.2507C72.1497 51.3393 71.4174 55.8885 70.5459 60.3898C69.6745 64.8911 69.0166 70.141 69.0239 72.0384C69.0691 75.8955 70.8188 83.1441 74.912 96.4962C76.317 101.082 77.7685 105.684 78.0892 106.729C78.5625 108.32 78.4817 109.097 77.3396 111.714C76.6816 113.433 75.9168 114.779 75.7312 114.715C75.5456 114.651 74.0389 112.054 72.364 108.959C69.3521 103.455 69.3374 103.269 67.8633 96.738C65.9661 87.7774 65.4907 83.1229 65.4072 70.2456C65.3715 64.2114 65.2842 59.3273 65.1911 59.3731C64.8496 59.5408 62.1848 73.9618 62.162 75.6411C62.189 76.5589 62.4286 78.4585 62.7326 79.7833C63.3253 82.4018 63.492 86.82 62.9332 87.0944C62.4986 87.3079 62.5414 91.7093 63.0529 95.1823C63.3676 97.6269 63.965 99.1569 68.3862 108.313L73.3597 118.673L75.1442 117.913C77.3477 116.986 85.0256 114.495 89.8175 113.189C91.7716 112.617 93.4624 112.059 93.4944 111.81C93.5572 111.624 92.8623 111.151 91.9817 110.613C90.3895 109.882 90.2667 109.632 88.8262 106.073C87.8299 103.652 87.388 101.968 87.5459 101.27C89.4233 93.4041 91.825 86.0563 92.4746 86.2804C92.753 86.3764 93.3164 88.6214 93.7836 91.6119C94.9142 98.7766 96.603 102.214 100.37 105.097C103.859 107.729 105.158 108.099 107.981 107.178L110.262 106.407L107.511 105.043Z" fill="black"/>
<path d="M43.0918 136.066C44.4785 135.032 45.6271 134.075 45.6434 134.027C47.9398 123.513 48.8359 118.988 48.8348 117.378C48.8817 115.706 46.269 101.868 45.9828 102.008C45.8874 102.055 45.7006 103.443 45.4791 105.162C44.7666 110.382 43.8361 113.471 41.4354 118.067C38.8734 122.978 38.1174 126.02 37.3451 134.333L36.7873 139.948L38.68 138.979C39.7295 138.464 41.6888 137.148 43.0918 136.066Z" fill="black"/>
<path d="M68.8475 119.278C69.2966 118.011 65.4868 112.203 58.8312 104.108C51.945 95.7006 49.6095 92.4265 46.631 86.9085C44.3742 82.7036 43.4535 80.6736 42.8419 78.1816C42.383 76.3903 41.1737 72.214 40.086 68.9087C37.7424 61.6439 37.7114 61.7366 37.6982 52.2025C37.6544 42.5282 37.3906 35.2115 37.0211 35.0827C36.8364 35.0183 35.9266 35.504 35.001 36.1913C33.2579 37.3965 33.2424 37.4428 33.1903 40.6097C33.0522 48.6669 34.7299 66.1872 36.2736 72.8366C37.5726 78.5202 39.2263 83.9909 40.9747 88.2515C42.3858 91.5919 42.7852 92.249 45.6604 95.2969C51.6568 101.66 54.8672 106.715 57.9032 114.454C58.8078 116.763 60.1892 119.575 60.8956 120.78L62.2628 122.862L65.5009 121.271C67.2434 120.377 68.8009 119.495 68.8475 119.278Z" fill="black"/>
<path d="M24.1379 109.67C25.0713 106.994 24.5903 101.043 22.9249 95.2858C22.3133 93.2517 21.2821 88.2331 20.6201 84.0449C17.5017 65.0718 16.4335 58.3207 15.9584 54.1185C15.6142 51.6029 15.3294 49.6028 15.2357 49.6488C15.2045 49.6642 14.2498 50.5611 13.2163 51.6134C12.1516 52.681 10.791 53.7773 10.1977 54.0687C8.85503 54.7282 8.82246 54.9775 9.62552 61.82C10.2631 67.6155 11.1449 71.4623 15.6771 88.1846C19.217 101.309 19.4446 102.403 18.5078 102.864C17.5086 103.354 13.5756 102.212 11.046 100.692C8.37703 99.0461 4.61736 94.7062 2.89285 91.1954C-0.894913 83.4844 -0.527918 70.5811 3.79339 60.5992C5.16567 57.3961 5.18151 57.3495 4.25131 53.7988C3.77958 51.8127 3.37248 49.4058 3.42469 48.4075C3.49231 47.4405 3.45259 46.176 3.34696 45.5665C3.16607 44.4881 3.08776 44.5654 2.11074 46.6794C-1.11846 53.4402 -2.96738 61.1963 -4.74166 75.1798C-5.6701 82.6004 -5.35535 84.8192 -2.50683 90.6182C1.11113 98.0625 4.51876 101.291 14.8107 106.936C17.5738 108.458 20.3977 110.262 21.0633 110.985C21.7442 111.74 22.5201 112.215 22.7699 112.093C23.0197 111.97 23.6797 110.868 24.1379 109.67Z" fill="black"/>
<path d="M55.7563 87.0544C55.4379 84.8188 54.7605 79.7888 54.351 75.9389C53.9109 72.027 52.6629 64.9624 51.5772 60.1329C50.4448 55.2878 49.3687 49.6048 49.1123 47.416C48.6272 43.3332 48.7291 35.6828 49.3355 31.7584C49.5881 30.1297 49.4856 29.5242 49.0476 29.585C47.5614 29.8134 43.968 31.3081 42.6615 32.2199C41.2759 33.2091 41.2437 33.3021 41.2274 38.9042C41.2343 43.8392 41.5248 45.7798 43.1955 52.7525C44.2694 57.2406 45.4838 63.1257 45.937 65.8738C47.4388 75.36 47.7075 76.4627 49.9545 80.799C51.0843 83.099 53.0159 86.317 54.1994 88.012L56.4136 91.0911L55.7563 87.0544Z" fill="black"/>
<path d="M83.7057 66.3735C84.921 59.4795 84.8846 45.9433 83.5715 34.5316C83.475 33.3119 83.4979 30.9968 83.7321 29.2692L84.0726 26.1837L81.6739 25.7877C79.9248 25.5333 79.2264 25.6074 79.2219 26.0704C79.1382 26.6874 79.8243 29.4223 81.4462 34.6924C82.2416 37.3351 82.3911 39.4502 82.2653 47.4601C82.1822 52.7229 82.3156 58.0329 82.4896 59.253C82.6795 60.4268 82.788 63.5606 82.6845 66.184C82.5658 68.7765 82.6067 70.9066 82.6682 70.9531C82.8233 70.9538 83.2466 68.9028 83.7057 66.3735Z" fill="black"/>
<path d="M58.3618 58.8302C58.8166 58.0573 59.3279 56.5501 59.5041 55.3645C59.7569 54.1804 60.5611 50.5668 61.3673 47.2661C62.1734 43.9654 63.0376 40.1651 63.3045 38.778C64.034 35.4757 64.4187 26.2978 63.8791 25.817C63.4933 25.4177 57.7202 26.2513 57.5699 26.7176C57.2835 27.4471 57.0072 46.1888 57.1542 52.2794C57.2719 56.2254 57.2938 59.5903 57.2953 59.8251C57.33 60.4361 57.4822 60.2828 58.3618 58.8302Z" fill="black"/>
</g>
<path d="M22 102.495C22 109.399 27.5964 114.996 34.5 114.998C41.4036 114.999 47 109.404 47 102.5C47 95.5964 41.4036 89.9989 34.5 89.9975C27.5964 89.9961 22 95.5914 22 102.495Z" fill="#EA8611"/>
<path fill-rule="evenodd" clip-rule="evenodd" d="M34.5 87.997C42.5081 87.9987 49 94.4919 49 102.5C49 110.508 42.5081 116.999 34.5 116.997C26.4919 116.995 20 110.502 20 102.494C20 94.4859 26.4919 87.9954 34.5 87.997ZM44.5694 102.499C44.5694 96.9379 40.0612 92.4287 34.5 92.4276C28.9388 92.4265 24.4306 96.9338 24.4306 102.495C24.4306 108.056 28.9388 112.565 34.5 112.566C40.0612 112.568 44.5694 108.06 44.5694 102.499Z" fill="black"/>
<path d="M80 102.495C80 109.399 85.5964 114.996 92.5 114.998C99.4036 114.999 105 109.404 105 102.5C105 95.5964 99.4036 89.9989 92.5 89.9975C85.5964 89.9961 80 95.5914 80 102.495Z" fill="#EA8611"/>
<path fill-rule="evenodd" clip-rule="evenodd" d="M92.5 87.997C100.508 87.9987 107 94.4919 107 102.5C107 110.508 100.508 116.999 92.5 116.997C84.4919 116.995 78 110.502 78 102.494C78 94.4859 84.4919 87.9954 92.5 87.997ZM102.569 102.499C102.569 96.9379 98.0612 92.4287 92.5 92.4276C86.9388 92.4265 82.4306 96.9338 82.4306 102.495C82.4306 108.056 86.9388 112.565 92.5 112.566C98.0612 112.568 102.569 108.06 102.569 102.499Z" fill="black"/>
</svg>
