<svg width="130" height="128" viewBox="0 0 130 128" fill="none" xmlns="http://www.w3.org/2000/svg">
<path fill-rule="evenodd" clip-rule="evenodd" d="M50.3112 49.4239L55.2857 49.424V82.5913L50.3112 82.5889V87.5766H45.3336V92.5512H12.1786L12.1736 87.5766H7.18933V82.5809L2.21191 82.5663V49.4184L7.18933 49.4208V44.4476H12.1736L12.1786 39.4746H45.3336V44.4476H50.3112V49.4239Z" fill="black"/>
<path d="M38.6998 46.1094V51.0824H43.6774V56.0587L48.6519 56.0587V75.9543L43.6774 75.9519V80.9428H38.6998V85.9174H18.8067L18.8016 80.9428H13.8241V75.9665L8.84668 75.9519V56.0563L13.8241 56.0587V51.0824H18.8016L18.8067 46.1094H38.6998Z" fill="#560614"/>
<path d="M13.8223 75.9661H18.7998V80.94H38.7002V75.9661H43.6753V56.0584H38.7002V51.082L18.7998 51.0845V56.0584H13.8247L13.8223 75.9661Z" fill="#9B1535"/>
<path d="M18.8066 61.0303H23.7745V70.995H18.8066V61.0303Z" fill="#E11B43"/>
<path d="M23.7745 70.995L28.7473 70.9951V75.9666H23.7746L23.7745 70.995Z" fill="#E11B43"/>
<path fill-rule="evenodd" clip-rule="evenodd" d="M78.6908 49.4239L73.7162 49.424V82.5913L78.6908 82.5889V87.5766H83.6683V92.5512H116.823L116.828 87.5766H121.813V82.5809L126.79 82.5663V49.4184L121.813 49.4208V44.4476H116.828L116.823 39.4746H83.6683V44.4476H78.6908V49.4239Z" fill="black"/>
<path d="M90.3021 46.1094V51.0824H85.3246V56.0587L80.35 56.0587V75.9543L85.3246 75.9519V80.9428H90.3021V85.9174H110.195L110.2 80.9428H115.178V75.9665L120.155 75.9519V56.0563L115.178 56.0587V51.0824H110.2L110.195 46.1094H90.3021Z" fill="#560614"/>
<path d="M115.18 75.9661H110.202V80.94H90.3017V75.9661H85.3266V56.0584H90.3017V51.082L110.202 51.0845V56.0584H115.177L115.18 75.9661Z" fill="#9B1535"/>
<path d="M110.195 61.0303H105.227V70.995H110.195V61.0303Z" fill="#E11B43"/>
<path d="M105.227 70.995L100.255 70.9951V75.9666H105.227L105.227 70.995Z" fill="#E11B43"/>
</svg>
