<svg width="256" height="257" viewBox="0 0 256 257" fill="none" xmlns="http://www.w3.org/2000/svg">
<path d="M147.962 214.338C147.748 213.853 147.63 213.266 147.61 212.676C147.496 209.331 150.554 206.567 154.024 207.237C155.907 207.567 157.433 208.993 157.988 210.845C158.32 211.917 158.258 213.003 157.993 213.898C157.637 214.994 157.48 216.181 157.32 217.27L168.929 216.875L168.534 205.266C169.721 205.423 171.01 205.675 172.204 206.028C173.198 206.29 174.185 206.354 175.258 206.023C177.11 205.467 178.536 203.941 178.866 202.059C179.532 198.49 176.87 195.527 173.427 195.644C172.837 195.664 172.25 195.783 171.765 195.996C170.598 196.43 169.427 196.765 168.155 197.006L167.757 185.298L156.148 185.693C156.304 184.506 156.559 183.315 156.913 182.121C157.174 181.127 157.239 180.14 156.907 179.068C156.352 177.216 154.826 175.79 152.943 175.46C149.375 174.794 146.412 177.455 146.529 180.899C146.549 181.489 146.668 182.076 146.881 182.561C147.315 183.728 147.65 184.899 147.89 186.171L136.281 186.566L137.352 218.048L148.863 217.656C148.629 216.581 148.392 215.407 147.962 214.338Z" fill="#56D363"/>
<path d="M76.2414 82.8843C75.1026 81.7464 73.9333 80.7903 72.764 79.8342C71.6625 78.9789 70.7786 77.9686 70.2523 76.5395C69.3234 74.085 69.7924 71.2906 71.5492 69.3827C74.8452 65.7219 80.2328 66.1473 82.9458 69.9546C83.4109 70.6073 83.7672 71.3375 83.9373 72.0365C84.3228 73.4278 84.9601 74.7797 85.5555 76.0429C85.6048 76.1476 85.6539 76.2517 85.7025 76.3552L85.8361 76.26C85.7945 76.2188 85.753 76.1775 85.7117 76.136L98.4383 67.0674L73.5015 32.0719L38.5834 56.9535L47.7072 69.7576C48.8575 68.6098 49.8216 67.4308 50.7856 66.2518C51.6409 65.1503 52.6512 64.2664 54.0804 63.7401C56.5348 62.8112 59.3292 63.2802 61.2371 65.037C64.8979 68.333 64.4726 73.7207 60.6652 76.4337C60.0125 76.8988 59.2823 77.2551 58.5834 77.4251C57.192 77.8107 55.84 78.4479 54.5767 79.0434C54.4721 79.0927 54.3681 79.1418 54.2647 79.1903L63.4114 92.0266L76.2414 82.8843Z" fill="#EEC459"/>
<path d="M236.407 57.6266C235.526 55.8966 233.687 54.8396 231.722 54.8523C230.582 54.8494 229.546 55.2328 228.755 55.7571C227.701 56.4561 226.621 57.0586 225.514 57.5646L222.438 46.1727L191.352 54.5684L199.747 85.6546L211.139 82.578C210.633 81.4716 210.057 80.4879 209.48 79.5042C208.93 78.617 208.573 77.6776 208.575 76.5374C208.563 74.5728 209.62 72.7336 211.35 71.852C214.617 70.1411 218.287 71.8428 219.2 75.2218C219.356 75.801 219.416 76.4063 219.354 76.9412C219.254 78.1074 219.374 79.3181 219.468 80.4322L230.86 77.3555L227.731 65.7706C228.941 65.6508 230.275 65.6014 231.537 65.6747C232.072 65.7374 232.678 65.6775 233.257 65.5211C236.417 64.5641 238.215 60.8674 236.407 57.6266Z" fill="#D74D5D"/>
<path d="M142.151 36.8108C142.351 37.3108 142.451 37.9108 142.451 38.5108C142.451 41.9108 139.251 44.6108 135.751 43.8108C133.851 43.4108 132.351 41.9108 131.851 40.0108C131.551 38.9108 131.651 37.8108 131.951 36.9108C132.351 35.8108 132.551 34.6108 132.751 33.5108H120.951V45.3108C119.751 45.1108 118.451 44.8108 117.251 44.4108C116.251 44.1108 115.251 44.0108 114.151 44.3108C112.251 44.8108 110.751 46.3108 110.351 48.2108C109.551 51.8108 112.151 54.9108 115.651 54.9108C116.251 54.9108 116.851 54.8108 117.351 54.6108C118.551 54.2108 119.751 53.9108 121.051 53.7108V65.6108H132.851C132.651 66.8108 132.351 68.0108 131.951 69.2108C131.651 70.2108 131.551 71.2108 131.851 72.3108C132.351 74.2108 133.851 75.7108 135.751 76.1108C139.351 76.9108 142.451 74.3108 142.451 70.8108C142.451 70.2108 142.351 69.6108 142.151 69.1108C141.751 67.9108 141.451 66.7108 141.251 65.4108H153.051V33.4108H141.351C141.551 34.5108 141.751 35.7108 142.151 36.8108Z" fill="#56D363"/>
<path d="M84.9138 130.133C83.4683 131.429 82.9193 133.478 83.4363 135.374C83.7265 136.476 84.3631 137.379 85.0729 138.009C86.0193 138.848 86.8791 139.737 87.6523 140.676L77.4332 146.576L93.5332 174.462L121.419 158.362L115.519 148.143C114.58 148.916 113.777 149.726 112.975 150.536C112.259 151.296 111.443 151.882 110.34 152.173C108.445 152.69 106.396 152.14 105.099 150.695C102.606 147.977 103.308 143.993 106.339 142.243C106.859 141.943 107.428 141.729 107.961 141.652C109.114 141.449 110.253 141.022 111.306 140.645L105.406 130.426L95.0135 136.426C94.5867 135.287 94.1965 134.011 93.9429 132.772C93.8661 132.239 93.6527 131.669 93.3527 131.15C91.6161 128.342 87.5815 127.554 84.9138 130.133Z" fill="#D74D5D"/>
<path d="M167.299 106.814C167.763 107.376 168.249 107.857 168.734 108.338C169.194 108.771 169.548 109.265 169.724 109.931C170.036 111.077 169.704 112.316 168.83 113.099C167.188 114.606 164.779 114.182 163.721 112.35C163.54 112.036 163.411 111.691 163.364 111.369C163.251 110.726 163.022 110.089 162.808 109.494C162.79 109.445 162.773 109.396 162.755 109.347L162.691 109.384C162.708 109.405 162.725 109.425 162.742 109.446L156.617 112.982L166.341 129.823L183.145 120.121L179.587 113.959C179.02 114.427 178.534 114.916 178.049 115.406C177.616 115.865 177.123 116.22 176.456 116.395C175.311 116.708 174.072 116.376 173.288 115.502C171.781 113.859 172.206 111.45 174.038 110.393C174.352 110.211 174.696 110.082 175.019 110.036C175.662 109.922 176.299 109.693 176.893 109.48C176.943 109.462 176.992 109.444 177.04 109.427L173.474 103.25L167.299 106.814Z" fill="#EEC459"/>
<path d="M34.6047 134.483L29.8491 137.229L32.5947 141.985C32.0646 142.183 31.4708 142.365 30.8941 142.483C30.6461 142.518 30.381 142.618 30.1392 142.757C28.7689 143.548 28.4254 145.466 29.5622 146.691C30.1655 147.363 31.119 147.619 32.0011 147.378C32.5142 147.243 32.9343 146.947 33.2272 146.617C33.6178 146.176 34.0316 145.776 34.509 145.393L37.3012 150.229L42.0971 147.46C42.2957 147.991 42.4773 148.584 42.5953 149.161C42.7071 149.634 42.8995 150.06 43.2763 150.434C43.9199 151.083 44.8735 151.339 45.7323 151.058C47.3693 150.542 48.0137 148.773 47.1993 147.363C47.0597 147.121 46.8798 146.902 46.6828 146.747C46.2424 146.357 45.8423 145.943 45.4592 145.466L50.2954 142.673L47.5498 137.918C48.0799 137.719 48.6334 137.561 49.2101 137.443C49.6829 137.331 50.1092 137.139 50.4827 136.762C51.1321 136.118 51.3876 135.165 51.1067 134.306C50.5914 132.669 48.8223 132.024 47.4117 132.839C47.1699 132.978 46.9514 133.158 46.7964 133.355C46.4058 133.796 45.992 134.196 45.5146 134.579L42.7457 129.783L37.9901 132.529C38.3499 132.966 38.7267 133.339 39.1036 133.713C39.3005 133.868 39.4805 134.086 39.6201 134.328C40.4112 135.698 39.7498 137.531 38.1531 138.023C37.2942 138.304 36.3407 138.048 35.6971 137.399C35.3202 137.026 35.1046 136.559 35.0161 136.126C34.9383 135.526 34.8033 135.013 34.6047 134.483Z" fill="#5C61DD"/>
<path d="M200.953 169.102L207.517 173.726L212.141 167.163C212.73 167.745 213.336 168.421 213.846 169.114C214.046 169.421 214.341 169.712 214.674 169.947C216.565 171.28 219.321 170.558 220.248 168.298C220.77 167.084 220.524 165.662 219.663 164.639C219.169 164.041 218.518 163.666 217.9 163.48C217.076 163.232 216.291 162.929 215.489 162.53L220.192 155.856L213.573 151.192C214.155 150.603 214.831 149.998 215.524 149.487C216.083 149.048 216.531 148.531 216.795 147.802C217.261 146.549 217.015 145.127 216.115 144.16C214.426 142.304 211.683 142.535 210.311 144.482C210.076 144.816 209.897 145.188 209.812 145.545C209.564 146.369 209.261 147.154 208.862 147.956L202.188 143.252L197.563 149.816C196.974 149.234 196.424 148.597 195.914 147.904C195.475 147.345 194.958 146.898 194.229 146.633C192.976 146.167 191.554 146.413 190.587 147.313C188.731 149.002 188.962 151.745 190.908 153.117C191.242 153.352 191.615 153.532 191.972 153.616C192.796 153.864 193.581 154.168 194.382 154.566L189.718 161.185L196.281 165.809C196.64 165.064 196.905 164.334 197.169 163.605C197.254 163.248 197.433 162.875 197.668 162.542C199.001 160.651 201.839 160.403 203.472 162.22C204.372 163.187 204.619 164.609 204.152 165.862C203.888 166.591 203.401 167.164 202.881 167.547C202.133 168.018 201.535 168.513 200.953 169.102Z" fill="#5C61DD"/>
</svg>
