<svg width="129" height="131" viewBox="0 0 129 131" fill="none" xmlns="http://www.w3.org/2000/svg">
<path d="M63.6155 80.7363C81.0125 80.7363 95.115 66.6333 95.1144 49.2363C95.1138 31.8394 81.0103 17.7363 63.6133 17.7363C46.2163 17.7363 32.1138 31.8394 32.1144 49.2363C32.115 66.6333 46.2185 80.7363 63.6155 80.7363Z" fill="#FF0000"/>
<path d="M63.6155 80.7363C81.0125 80.7363 95.115 66.6333 95.1144 49.2363C95.1138 31.8394 81.0103 17.7363 63.6133 17.7363C46.2163 17.7363 32.1138 31.8394 32.1144 49.2363C32.115 66.6333 46.2185 80.7363 63.6155 80.7363Z" fill="url(#paint0_linear_1546_943)"/>
<path fill-rule="evenodd" clip-rule="evenodd" d="M64.1133 14.7365C82.891 14.7359 98.1133 29.9577 98.1133 48.7354C98.1133 67.513 82.891 82.7359 64.1133 82.7365C45.3356 82.7372 30.1133 67.5154 30.1133 48.7377C30.1133 29.96 45.3356 14.7372 64.1133 14.7365ZM92.923 48.7355C92.923 32.8244 80.0245 19.9263 64.1133 19.9268C48.2021 19.9274 35.3035 32.8264 35.3035 48.7375C35.3035 64.6487 48.2021 77.5468 64.1133 77.5463C80.0245 77.5457 92.923 64.6467 92.923 48.7355Z" fill="black"/>
<path d="M63.1133 31.7344C85.757 31.7344 104.113 50.1027 104.113 72.7344C104.113 95.3661 85.757 113.734 63.1133 113.734C40.4696 113.734 22.1133 95.3661 22.1133 72.7344C22.1133 50.1027 40.4696 31.7344 63.1133 31.7344Z" fill="#573C26"/>
<path d="M22.1133 105.229C22.1133 112.133 27.7097 117.73 34.6133 117.732C41.5168 117.733 47.1133 112.138 47.1133 105.234C47.1133 98.3308 41.5168 92.7333 34.6133 92.7319C27.7097 92.7305 22.1133 98.3258 22.1133 105.229Z" fill="url(#paint1_radial_1546_943)"/>
<path fill-rule="evenodd" clip-rule="evenodd" d="M34.6133 90.7314C42.6214 90.733 49.1133 97.2262 49.1133 105.234C49.1133 113.243 42.6214 119.733 34.6133 119.731C26.6052 119.73 20.1133 113.237 20.1133 105.228C20.1133 97.2203 26.6052 90.7298 34.6133 90.7314ZM44.6827 105.233C44.6827 99.6723 40.1745 95.1631 34.6133 95.162C29.0521 95.1608 24.5438 99.6682 24.5438 105.229C24.5438 110.791 29.0521 115.3 34.6133 115.301C40.1745 115.302 44.6827 110.795 44.6827 105.233Z" fill="black"/>
<path d="M80.1133 105.229C80.1133 112.133 85.7097 117.73 92.6133 117.732C99.5168 117.733 105.113 112.138 105.113 105.234C105.113 98.3308 99.5168 92.7333 92.6133 92.7319C85.7097 92.7305 80.1133 98.3258 80.1133 105.229Z" fill="url(#paint2_radial_1546_943)"/>
<path fill-rule="evenodd" clip-rule="evenodd" d="M92.6133 90.7314C100.621 90.733 107.113 97.2262 107.113 105.234C107.113 113.243 100.621 119.733 92.6133 119.731C84.6052 119.73 78.1133 113.237 78.1133 105.228C78.1133 97.2203 84.6052 90.7298 92.6133 90.7314ZM102.683 105.233C102.683 99.6723 98.1745 95.1631 92.6133 95.162C87.0521 95.1608 82.5438 99.6682 82.5438 105.229C82.5438 110.791 87.0521 115.3 92.6133 115.301C98.1745 115.302 102.683 110.795 102.683 105.233Z" fill="black"/>
<path d="M42.6411 27.2094C42.7355 26.4656 42.3849 25.3882 42.758 24.5819C43.095 23.2056 42.8928 22.2394 42.9692 21.2107C43.3468 18.2356 43.7423 15.5456 43.9895 12.7444C47.6161 18.7228 53.9573 22.936 55.5571 30.3808C56.0784 29.6858 56.7121 28.532 56.5458 28.1357C55.0179 21.8309 52.4293 16.6312 49.1352 11.4452C48.6544 10.5415 48.1555 9.35281 48.214 8.03906C55.2966 12.8084 61.3546 19.2529 64.6981 27.4626C64.024 21.2552 61.3996 15.4854 58.6627 10.1744C67.5834 14.9649 74.2706 22.4243 80.0094 30.5301C81.5411 26.14 80.6212 22.0832 78.7157 18.7534C79.0384 18.9411 79.3611 19.1288 79.6837 19.3165C81.8939 20.7571 83.8452 22.5737 85.2366 24.9205C85.3939 25.1743 85.7157 24.8998 85.642 24.6273C85.1535 22.9304 84.6061 20.9722 84.7809 19.0399C84.7976 19.0795 84.8272 19.1017 84.8439 19.1414C85.7301 20.6478 87.0329 21.815 88.2409 23.0469C89.3581 24.1836 90.2763 25.5239 91.0178 26.9761C92.0626 28.9816 92.6446 31.2644 92.894 33.6507C93.7065 32.1967 94.9177 31.0145 96.2902 29.9261C95.83 30.6941 95.5199 31.6019 95.412 32.5799C95.1698 34.7875 95.6834 36.8834 96.3962 38.7755C96.8393 39.9767 97.392 41.1244 97.9709 42.2374C99.1636 46.363 101.497 49.9869 103.29 53.7755C105.23 57.8637 106.55 62.2208 106.824 67.015C107.045 70.7373 106.597 74.6097 105.549 78.3854C102.434 89.4893 93.0502 102.217 83.4242 107.975C72.3278 114.613 59.7866 115.144 48.7927 110.862C20.9407 100.044 20.2947 69.6386 30.6565 46.6479C32.0573 43.5444 33.8977 40.6891 35.5767 37.74C37.5258 35.265 39.4471 32.7962 41.5742 30.4547C42.2276 29.6144 42.4344 28.4119 42.6411 27.2094Z" fill="url(#paint3_linear_1546_943)"/>
<path opacity="0.5" d="M42.6411 27.2109C42.7355 26.4672 42.3849 25.3897 42.758 24.5834C42.9377 23.8494 42.9557 23.2384 42.9625 22.6733C43.2047 22.2576 43.4024 21.8086 43.5575 21.3547C44.1039 24.6427 44.2082 28.0876 43.4954 31.5714C43.0639 33.6915 42.3763 35.7822 41.4159 37.8042C40.8676 38.9677 40.26 40.0868 39.4929 41.1405C38.8039 42.0899 38.1001 43.0282 37.4853 44.0332C37.3828 44.2007 37.4246 44.6393 37.6979 44.4913C38.9526 43.7762 40.0204 42.7851 40.8213 41.5938C39.8762 45.202 37.1945 48.1593 34.8063 51.0653C33.5201 52.6256 32.2932 54.2305 31.3314 56.007C30.6995 57.1893 30.2699 58.4418 29.8978 59.7104C29.0637 62.6144 28.452 65.6853 28.5238 68.6173C28.5894 71.0015 29.0927 73.6055 31.1551 74.7179C31.3016 74.8007 31.4337 74.6554 31.4805 74.5004C31.8733 73.1116 32.2571 71.5804 33.0525 70.3035C33.155 70.136 33.2593 69.997 33.3617 69.8295C32.408 73.0783 32.7051 76.6679 33.1778 79.6833C33.8829 84.3664 35.5394 88.677 38.3432 92.1376C38.5117 92.3455 38.7054 92.0563 38.7225 91.8791C38.9027 90.0322 38.6745 88.2047 38.9104 86.3453C39.0426 85.3041 39.2844 84.2093 39.8601 83.2564C40.052 82.9388 40.2681 82.5579 40.5638 82.3181C41.1962 81.8149 41.3764 82.656 41.4757 83.1106C41.5125 83.2469 41.5867 83.3025 41.6703 83.2837C42.8284 87.0848 44.4826 90.6877 46.7004 93.8174C49.1978 97.3468 52.3665 100.321 56.1258 102.353C59.8258 104.341 64.0803 105.713 68.5537 105.403C70.7913 105.262 73.0519 104.813 75.2648 104.056C77.5595 103.252 79.6766 102.098 81.7979 100.784C84.3132 99.222 86.8124 97.404 88.7148 95.084C88.7575 95.0888 88.8132 95.0763 88.8653 95.0068C91.6584 92.0245 94.3832 88.8552 96.331 85.2388C97.9507 82.2452 98.9412 79.1326 99.375 75.9282C99.7381 78.1012 99.8778 80.541 99.3142 82.8063C98.8217 83.9573 98.2864 85.1035 97.7363 86.2385C97.6244 86.4804 97.8725 86.8294 98.0662 86.5402C98.8724 85.4344 99.3893 84.2201 99.7057 82.9641C100.986 79.96 102.022 76.9094 102.345 73.73C102.814 69.3036 102.222 64.8409 101.161 60.7869C100.083 56.6933 98.3438 53.0806 96.4203 49.4657C95.442 47.6187 94.4452 45.7035 94.0003 43.5778C93.5334 41.327 93.9096 39.0026 94.2691 36.6386C94.288 36.4899 94.2125 36.1889 93.995 36.3244C91.9277 37.5976 91.0949 39.851 90.0676 41.9313C90.5202 36.7862 91.175 30.8153 87.4463 27.4755C87.4018 27.4421 87.3425 27.3976 87.2737 27.4275C87.1942 27.2864 87.1146 27.1453 87.0351 27.0041C86.8796 26.7789 86.6877 27.0966 86.6558 27.2627C86.525 28.5493 86.5888 30.009 85.8288 31.1767C85.3291 30.4218 84.8554 29.6321 84.3836 28.8709C83.3288 27.1566 82.1738 25.4214 80.6391 24.1617C80.361 22.2154 79.6666 20.3913 78.7157 18.7549C79.0384 18.9426 79.3611 19.1303 79.6837 19.318C81.8939 20.7586 83.8452 22.5752 85.2366 24.9221C85.3939 25.1758 85.7156 24.9013 85.6419 24.6288C85.1535 22.932 84.6061 20.9738 84.7809 19.0414C84.7976 19.081 84.8272 19.1033 84.8438 19.1429C85.7301 20.6493 87.0329 21.8166 88.2409 23.0484C89.3581 24.1851 90.2762 25.5254 91.0178 26.9776C92.0626 28.9831 92.6446 31.2659 92.894 33.6523C93.7065 32.1982 94.9177 31.016 96.2902 29.9276C95.83 30.6957 95.5199 31.6034 95.412 32.5814C95.1698 34.7891 95.6834 36.8849 96.3962 38.7771C96.8393 39.9783 97.392 41.126 97.9709 42.2389C99.1636 46.3645 101.497 49.9884 103.29 53.777C105.23 57.8652 106.55 62.2223 106.824 67.0165C107.045 70.7389 106.597 74.6112 105.549 78.3869C102.434 89.4909 93.0502 102.218 83.4242 107.977C72.3278 114.614 59.7866 115.145 48.7927 110.863C20.9407 100.046 20.2947 69.6401 30.6565 46.6494C32.0573 43.5459 33.8977 40.6907 35.5767 37.7415C37.5258 35.2665 39.4471 32.7978 41.5742 30.4562C42.2276 29.6159 42.4344 28.4134 42.6411 27.2109Z" fill="url(#paint4_linear_1546_943)"/>
<path d="M88.923 41.7522C88.923 41.7522 85.5889 37.0521 79.3633 36.238C75.1253 35.8016 73.7717 35.8452 71.5314 35.4953C69.2911 35.1454 64.3579 36.0066 60.7186 36.1007C57.0811 36.2232 54.2067 35.452 48.8411 38.867C47.9266 39.3757 47.0224 39.3763 46.2035 39.3866C45.6094 39.3754 45.0728 39.3802 44.5897 39.5609C43.4599 40.0167 43.0469 41.3089 43.5583 42.6971C44.0697 44.0852 41.9525 46.1355 41.2618 46.1605C40.5989 46.1791 38.6709 46.525 38.4858 48.0696C38.3024 49.6426 35.4248 51.2854 33.2658 58.273C32.1953 60.5654 31.0016 60.4575 30.7351 62.7284C30.4686 64.9992 29.296 68.1382 29.6475 69.6779C29.9989 71.2176 29.3832 75.3444 28.9117 77.0543C28.4403 78.7642 29.0981 89.1951 32.7527 92.4792C34.6002 95.114 36.2472 95.9149 36.8036 98.0156C37.3599 100.116 38.6556 99.3776 38.51 100.653C38.3644 101.929 38.7162 102.355 40.8343 102.559C41.881 102.801 46.0977 108.055 56.8476 109.14C67.2078 110.096 69.1794 109.321 70.4939 108.434C71.0089 108.087 71.4916 108.123 71.9612 108.177C72.6722 108.248 73.3256 108.304 73.9022 106.917C76.947 106.133 87.9994 100.141 91.5556 92.6811C93.6494 92.0523 95.5617 89.441 93.2198 88.8248C95.2993 87.072 98.5261 83.5733 99.8411 73.509C100.439 70.6723 100.852 69.3802 101.037 68.9486C101.222 68.5169 100.175 68.2749 100.729 66.98C101.283 65.685 102.519 60.8556 101.1 59.1941C99.6813 57.5326 99.6179 55.856 100.402 54.8419C101.185 53.8279 100.528 53.7152 99.5834 53.7394C98.6382 53.7636 96.8717 47.0354 92.1606 43.8004C91.5907 42.83 92.2469 40.6884 91.584 40.7071C90.9193 40.6973 89.7908 42.2945 88.923 41.7522Z" fill="#BE8D4C"/>
<path opacity="0.6" d="M41.28 46.1703C41.9429 46.1516 44.0749 44.1125 43.5765 42.7069C43.0651 41.3187 43.4781 40.0265 44.6079 39.5707C45.0762 39.3789 45.6276 39.3852 46.2218 39.3965C47.0276 39.4035 47.9318 39.4029 48.8594 38.8769C54.2249 35.4618 57.0845 36.222 60.7368 36.1105C64.3743 35.988 69.3093 35.1552 71.5496 35.5052C73.7899 35.8551 75.1435 35.8115 79.3815 36.2479C85.5923 37.0509 88.9412 41.7621 88.9412 41.7621C89.809 42.3044 90.9375 40.7072 91.6152 40.6996C92.2781 40.6809 91.635 42.8051 92.1918 43.7929C96.9178 47.039 98.6843 53.7672 99.6146 53.7319C100.56 53.7077 101.217 53.8204 100.433 54.8344C99.6492 55.8485 99.7143 57.5536 101.131 59.1866C102.55 60.8481 101.315 65.6775 100.76 66.9724C100.206 68.2673 101.253 68.5094 101.068 68.941C100.884 69.3727 100.456 70.6537 99.8724 73.5015C98.5573 83.5658 95.3305 87.0645 93.2511 88.8173C95.552 89.4571 93.6528 92.051 91.559 92.6798C88.0028 100.14 76.9634 106.114 73.9205 106.927C73.3439 108.314 72.6904 108.258 71.9794 108.186C71.5246 108.144 71.0271 108.097 70.5121 108.443C69.1976 109.331 67.226 110.106 56.8658 109.15C46.1159 108.065 41.8992 102.811 40.8525 102.569C38.7196 102.354 38.3826 101.938 38.5282 100.663C38.6738 99.3874 37.3782 100.126 36.8218 98.0255C36.2655 95.9248 34.6184 95.1238 32.7709 92.4891C29.1311 89.216 28.4585 78.774 28.9299 77.0641C29.4014 75.3542 30.0171 71.2274 29.6657 69.6877C29.3143 68.148 30.4868 65.0091 30.7533 62.7382C31.0198 60.4673 32.2135 60.5752 33.284 58.2829C35.443 51.2953 38.3206 49.6524 38.504 48.0794C38.6892 46.5349 40.6171 46.189 41.28 46.1703ZM38.1678 53.5019C37.6253 54.5341 37.3408 55.6239 36.8856 56.6944C36.4042 57.7995 35.8488 58.849 35.2802 59.916C34.2439 61.8538 32.9541 64.2531 33.1167 66.3844C33.1981 67.45 33.5544 68.3961 33.7324 69.4255C33.927 70.4946 33.7966 71.5644 33.6699 72.6911C33.4771 74.3385 33.2649 76.3515 34.2761 77.5987C34.7057 78.1381 35.4661 78.5456 35.7358 79.2366C36.1254 80.2619 35.2302 81.301 34.5601 82.1016C32.4699 84.5794 34.9825 87.9031 36.3531 89.4742C37.3737 90.647 38.4874 91.7266 39.6253 92.743C40.5241 93.5529 41.3649 94.5637 42.4705 95.0671C44.9876 96.2221 48.4925 94.6697 50.6888 96.5613C51.4357 97.203 52.0002 98.088 52.1372 99.1411C52.2415 99.8981 52.2118 100.772 52.5502 101.433C53.1807 102.693 54.724 102.52 56.0183 102.432C57.6505 102.326 59.2958 102.203 60.8166 101.225C61.7258 100.631 63.1909 99.6667 64.131 100.236C64.6892 100.573 64.9031 101.277 65.4092 101.683C65.8114 102.012 66.3583 102.395 66.9641 102.144C67.5272 101.887 67.9461 101.36 68.3537 100.878C69.1038 100.002 69.9455 98.7869 70.9715 98.2532C71.847 97.7966 72.6487 97.9635 73.5183 97.6383C75.0104 97.1012 74.4787 95.6164 74.7336 94.5043C74.9434 93.5756 76.5056 92.358 77.359 92.6723C78.0381 92.9101 78.2237 93.8367 78.4749 94.4596C78.8793 95.496 79.5359 96.7216 80.8887 96.2157C82.7802 95.5167 84.5307 93.9245 85.8264 92.2897C86.8726 90.9567 87.8132 89.5172 88.5368 87.9964C88.8743 87.2993 89.792 85.2725 88.8869 84.8108C87.9094 84.322 86.8843 86.2139 85.7397 85.7627C84.8121 85.3927 85.3892 83.7892 85.6934 83.0128C86.6026 80.6266 88.0075 78.2593 89.5139 76.1582C90.6181 74.6242 91.961 73.5136 93.6296 72.8646C94.1128 72.6839 94.5846 72.5492 95.0826 72.3796C95.2349 72.331 95.3446 72.2775 95.4488 72.1385C95.9886 71.5115 96.3616 70.7053 96.5953 69.9303C97.1823 68.0355 97.7454 65.9871 97.9926 64.0818C98.2456 62.0452 97.9257 60.5562 96.9487 58.9545C96.3029 57.9 96.0135 56.8955 95.9438 55.5672C95.9083 54.7803 95.8746 54.0219 95.6589 53.2899C95.0617 51.2129 93.4402 49.698 92.5828 47.7516C91.3734 44.4823 86.4079 44.8306 83.4175 44.4611C81.9511 44.2844 80.4757 43.9651 79.2407 43.2017C78.7104 42.8583 78.1132 42.5732 77.7002 42.0734C77.2872 41.5735 77.1564 41.0682 77.0706 40.3793C76.9645 39.5938 76.7555 39.1927 76.0693 38.8409C75.3237 38.4446 74.4905 38.2269 73.6348 38.101C71.9792 37.8366 70.2544 37.819 68.552 37.7096C66.3949 37.5578 64.2692 37.4567 62.0612 37.6198C59.8254 37.7891 57.3204 37.9466 55.0998 38.8061C53.1135 39.5698 51.558 41.1183 49.7011 42.1419C48.24 42.9466 46.5583 42.717 45.4411 44.2684C44.1301 46.1088 44.0209 48.6334 42.1945 50.1416C40.8593 51.1493 39.0288 51.9213 38.1678 53.5019Z" fill="#A5773A"/>
<path d="M41.2787 46.1696C41.8431 46.1586 43.4727 44.6657 43.6314 43.3728C43.6597 43.1497 43.6453 42.9217 43.5622 42.7236C43.3739 42.2022 43.3154 41.724 43.3572 41.2666C43.4498 40.4943 43.8763 39.8639 44.5936 39.5874L44.6214 39.5811C44.9243 39.4554 45.2753 39.42 45.6281 39.413C45.7841 39.4214 45.9382 39.4013 46.0942 39.4096L46.109 39.4208L46.1795 39.4194C46.3634 39.4215 46.575 39.4173 46.7867 39.4132C47.4217 39.4008 48.1219 39.3015 48.8041 38.9172L48.8171 38.8998L48.858 38.8762C52.3625 36.6446 54.7939 36.2147 57.0926 36.1469C57.6849 36.1296 58.279 36.1408 58.8731 36.152C59.4673 36.1632 60.0614 36.1744 60.6816 36.1508C63.0508 36.0816 65.9648 35.6879 68.3287 35.5332C68.7503 35.4964 69.1588 35.477 69.5543 35.475L69.5691 35.4861C70.3304 35.4598 70.9672 35.4759 71.4813 35.5628L71.4962 35.574C73.7365 35.9239 75.0901 35.8803 79.328 36.3167C85.5388 37.1197 88.8878 41.8309 88.8878 41.8309C89.0195 41.9025 89.1493 41.9456 89.2905 41.9428C89.7695 41.922 90.281 41.5183 90.7403 41.184C91.0508 40.9553 91.3222 40.7788 91.5618 40.7684C92.2247 40.7497 91.5815 42.8739 92.1383 43.8617C96.8643 47.1078 98.6309 53.836 99.5611 53.8007C100.239 53.7931 100.764 53.8342 100.719 54.2346C100.7 54.3833 100.601 54.6078 100.365 54.8921C100.104 55.2396 99.9323 55.6539 99.8757 56.1001C99.7642 57.0211 100.104 58.1445 101.063 59.2443C101.748 60.0298 101.805 61.5924 101.632 63.1196C101.453 64.7496 100.976 66.374 100.692 67.0301C100.606 67.2372 100.561 67.4207 100.543 67.5695C100.45 68.3418 101.06 68.6094 101.009 68.9243L101 68.9987C100.815 69.4303 100.387 70.7114 99.8041 73.5591C98.489 83.6234 95.2622 87.1222 93.1828 88.875C94.016 89.0926 94.3157 89.589 94.2515 90.1381C94.1306 91.1335 92.8655 92.3567 91.5334 92.7423C87.9772 100.202 76.9378 106.177 73.8949 106.99L73.8688 107.024C73.4378 108.032 72.9713 108.252 72.4774 108.262C72.3084 108.271 72.1377 108.251 71.9669 108.232L71.9372 108.209C71.7665 108.19 71.6105 108.181 71.4415 108.19C71.1593 108.196 70.8528 108.265 70.5535 108.448L70.5405 108.465C69.741 109.006 68.6983 109.5 65.7088 109.592C63.7759 109.636 61.0431 109.541 57.0222 109.186L57.0074 109.175L56.922 109.165C46.1721 108.08 41.9554 102.827 40.9087 102.585C38.7758 102.369 38.4388 101.954 38.5844 100.678C38.73 99.4027 37.4344 100.141 36.878 98.0408C36.3217 95.9401 34.6746 95.1391 32.8271 92.5044C29.4116 89.4267 28.6234 80.0656 28.9277 77.4972C28.9448 77.3199 28.9785 77.1823 29.001 77.0905C29.2293 76.23 29.5052 74.7808 29.6828 73.3391C29.8603 71.8975 29.9133 70.4983 29.7367 69.7142C29.6558 69.3277 29.6531 68.8369 29.7174 68.2878C29.9102 66.6404 30.6203 64.4579 30.8095 62.7535C31.076 60.4826 32.2697 60.5905 33.3402 58.2982C35.4992 51.3106 38.3768 49.6677 38.5602 48.0947C38.6878 46.5342 40.6158 46.1883 41.2787 46.1696ZM45.3553 42.9282C45.7867 44.3921 43.1086 48.3024 41.6975 48.3301C40.2733 48.3751 37.3094 53.1299 34.1132 59.8011C30.9169 66.4723 33.168 67.8893 31.7329 74.9312C30.2979 81.9732 32.5413 85.285 33.8527 89.4996C35.177 93.6968 38.1301 95.9389 41.3024 99.866C44.4748 103.793 54.684 107.731 64.3705 107.638C64.5265 107.647 64.6806 107.627 64.8217 107.624C74.2562 107.342 80.761 100.709 86.0546 96.1539C91.4152 91.5405 91.9744 85.172 94.318 84.0247C96.6766 82.8885 98.2064 73.0939 99.0307 71.3771C99.8401 69.6492 101.027 61.1454 99.5934 59.6896C98.1464 58.2513 96.9109 56.8087 97.2022 54.2577C97.4934 51.7067 90.8193 45.1259 90.8193 45.1259C89.2729 44.1289 88.0478 43.9703 85.2961 44.0241C83.4432 43.9919 79.483 43.9268 78.7541 41.7781C78.8934 41.7468 79.0475 41.7267 79.2313 41.7288C79.5693 41.7108 79.9962 41.7595 80.5382 41.8402C83.0774 42.2242 84.9069 42.7819 85.7388 42.7542C86.3868 42.7244 86.4061 42.3588 85.6583 41.2549C83.9331 38.7662 76.5897 37.9283 74.4052 37.5658C72.2354 37.2145 68.7947 37.3218 65.3671 37.4117C61.9264 37.519 56.6225 38.1022 54.606 38.1645C52.66 38.2254 49.7047 40.6516 48.6054 40.6959L48.4774 40.6813C48.3771 40.6604 48.2639 40.657 48.1228 40.6597C46.9548 40.7339 44.9625 41.629 45.3553 42.9282Z" fill="#836A31"/>
<path opacity="0.3" d="M85.1661 45.9897C85.1661 45.9897 94.1156 46.7562 94.0602 57.3037C94.0048 67.8513 95.9786 67.7841 90.5178 74.1687C85.057 80.5532 82.7285 88.6627 64.6748 90.0547C46.6342 91.4293 36.8645 85.9477 35.8921 72.3214C34.9346 58.7062 38.2647 55.5022 43.3381 50.5919C47.6934 46.392 51.1188 42.9065 54.44 41.352C57.7611 39.7975 67.3273 38.6914 72.3858 39.146C77.4313 39.618 72.5642 42.6466 75.2553 43.1989C77.9594 43.7338 79.3166 45.5392 85.1661 45.9897Z" fill="#F0BD79"/>
<path d="M92.5255 73.5307C93.9349 72.5786 93.8827 74.4401 93.8661 75.2965C93.8602 75.4278 93.7488 75.4528 93.7268 75.3277C93.6904 74.9746 93.765 73.9173 93.232 73.9791C92.8531 74.0208 92.3507 74.5671 92.0698 74.818C90.8124 75.9383 89.718 77.181 88.6866 78.5252C87.7743 79.7416 87.1047 81.2214 86.6004 82.6351C86.5406 82.8075 86.4791 82.9514 86.4193 83.1238C86.3123 83.668 86.2481 84.2172 86.2544 84.7649C86.2512 85.387 86.5559 85.2897 87.0579 84.9603C88.1585 84.2654 89.2452 83.1255 90.1144 82.1212C90.1926 82.017 90.2757 82.2151 90.2236 82.2846C89.309 83.6893 88.5333 85.2796 87.0777 86.1698C86.3712 86.6174 85.8332 86.3768 85.5915 85.6796C85.4513 85.2486 85.4764 84.7516 85.5722 84.2532C85.6953 82.1735 86.5928 80.05 87.7775 78.2234C89.0179 76.3843 90.7369 74.7413 92.5255 73.5307Z" fill="#684825"/>
<path d="M60.2664 68.5579C61.7305 68.923 63.0397 69.742 63.8486 70.919C64.3321 71.4174 64.6593 72.1244 64.8251 72.7375C65.1864 73.986 65.1352 75.4137 63.804 76.2616C62.5956 77.0385 61.1831 76.8208 60.0326 76.5009C58.7095 76.133 57.6175 75.3953 56.9627 74.1983C56.3061 72.9727 56.0666 71.1911 56.881 69.7656C57.645 68.438 59.1195 68.295 60.2664 68.5579ZM63.3587 71.6648C62.7628 70.7291 61.6905 70.3049 60.7688 69.8036C59.9491 69.3517 58.831 68.6488 57.8157 69.3535C56.4212 70.3167 56.7794 72.1873 57.36 73.3287C57.6063 73.6492 57.8786 73.9349 58.2345 74.2019C58.8722 74.6802 59.6852 74.8013 60.4739 74.9856C61.6932 75.2756 63.7411 75.2641 64.0171 73.8148C63.9537 73.0342 63.7825 72.3356 63.3587 71.6648Z" fill="#684825"/>
<path d="M44.2211 54.2971C44.6691 54.9047 44.3361 56.1211 44.2417 56.8648C44.0035 58.9126 43.6817 61.8751 42.0166 63.4771C41.0306 64.4209 39.6352 64.9219 39.0995 63.5969C38.6321 62.459 39.3777 60.1673 40.4711 59.3584C40.7408 59.1533 40.7767 59.7233 40.6594 59.8797C39.9705 60.8291 39.2627 61.9273 39.3067 63.0736C39.3903 64.8468 41.2315 63.3498 41.7641 62.6089C42.6337 61.3877 42.955 59.538 43.2215 58.1631C43.3492 57.4986 43.4472 56.8119 43.5321 56.1425C43.5699 55.845 43.6206 55.5301 43.6584 55.2326C43.7469 54.6202 43.1007 54.6785 42.7232 54.9656C42.6153 55.0476 42.6009 54.8196 42.6531 54.7501C43.0665 54.1371 43.7878 53.7006 44.2211 54.2971Z" fill="#684825"/>
<path d="M55.2552 49.8113C55.4632 49.7501 55.4718 50.1095 55.4102 50.2534C55.274 50.5585 55.0862 50.7163 54.8741 50.9373C54.5019 51.3098 55.2574 51.4149 55.4857 51.4504C56.3301 51.6222 57.2155 51.7703 58.1031 51.7301C58.779 51.6941 59.4459 51.5155 60.0962 51.2974C60.3155 51.1903 60.52 51.0722 60.7523 50.9478C61.7042 50.3585 62.6727 49.8088 63.5913 49.1402C63.7531 49.0172 64.6254 48.2868 64.6348 48.2124C64.589 47.9336 63.456 48.1156 63.2888 48.1531C62.4624 48.2663 61.6615 48.5616 60.8386 48.7318C60.7551 48.7506 60.7146 48.5573 60.7964 48.5101C61.8224 47.9764 63.0021 47.6394 64.0645 47.4588C65.0285 47.2859 65.6491 47.9414 64.9656 48.9763C64.1777 50.1503 62.6403 51.0878 61.4673 51.7556C61.0305 51.9982 60.4935 52.2198 59.9362 52.3449L59.9232 52.3622C58.8005 52.9321 57.5862 52.9444 56.4726 52.7608C55.5446 52.6077 54.5145 52.4053 54.1842 51.4245C53.9887 50.7891 54.6849 49.9537 55.2552 49.8113Z" fill="#684825"/>
<path d="M82.9175 60.7588C83.0645 60.6246 83.2559 60.5239 83.4694 60.5482C84.3754 60.5762 84.8725 61.7364 85.1736 62.4781C85.4711 63.1628 85.7142 64.1054 85.1259 64.8588C84.6419 65.4732 83.8927 65.0199 83.5202 64.7133C82.9696 64.2733 82.5103 63.7115 82.2686 63.0143C82.0452 62.3852 82.1778 61.1271 82.9175 60.7588Z" fill="#684825"/>
<path d="M53.0561 47.6462C53.3905 47.5712 53.4359 48.0668 53.3797 48.2962C53.2354 48.921 52.8089 49.5514 52.2144 49.7571C52.0656 49.8627 51.902 49.9573 51.6922 49.9899C51.4971 50.0337 51.4382 49.7723 51.4423 49.6124C51.5295 48.7547 52.1924 47.84 53.0561 47.6462Z" fill="#684825"/>
<path d="M82.2512 47.4977C83.2992 47.9851 86.3929 50.4414 84.9786 51.9871C84.4371 52.5855 83.5297 52.3122 82.7693 51.9048C81.4373 51.3944 80.099 50.3363 80.0522 48.6993C80.024 47.1304 81.2607 47.0263 82.2512 47.4977Z" fill="#684825"/>
<g opacity="0.7">
<path d="M64.1164 69.6017C65.4417 70.6772 66.3823 72.8218 65.7859 74.7909C65.741 74.9744 65.5814 74.9091 65.5855 74.7492C65.6934 72.8752 64.6323 71.5092 63.822 70.0869C63.7259 69.9061 63.8791 69.4238 64.1164 69.6017Z" fill="#BE8D4C"/>
<path d="M66.453 47.733C66.5051 47.6635 66.555 47.7824 66.5307 47.8457C65.9735 48.8667 65.4512 49.9955 64.5529 50.7607C64.4189 50.8774 64.3565 50.5591 64.4495 50.4659C65.2441 49.6229 65.8067 48.6873 66.453 47.733Z" fill="#BE8D4C"/>
<path d="M44.9294 54.3688C44.729 55.2231 44.8571 56.1337 44.7995 57.0137C44.7496 57.7908 44.6719 58.5742 44.5236 59.359C44.4692 59.6168 44.2652 59.5181 44.2804 59.3124C44.338 58.4324 44.4661 57.551 44.5366 56.6536C44.5996 55.8591 44.5659 55.1007 44.8423 54.3306C44.8796 54.25 44.9407 54.323 44.9294 54.3688Z" fill="#BE8D4C"/>
<path d="M91.9362 60.194C91.7748 62.7881 92.8561 65.1468 92.1748 67.7853C91.5757 70.1597 89.8054 72.3345 87.8159 73.7203C87.0442 74.2547 86.9656 72.7839 87.1355 72.3411C88.0218 70.2635 89.6464 68.4683 90.4176 66.3587C91.1776 64.2951 90.7866 62.1284 91.4446 60.0153C91.6275 59.5552 91.9591 59.8854 91.9362 60.194Z" fill="#BE8D4C"/>
</g>
<path d="M30.3329 7.0352C32.7826 8.46536 35.2287 9.83853 37.3675 11.7142C39.788 13.8013 41.7954 16.2844 43.496 19.0533C43.6384 19.2959 43.8951 19.1083 43.9067 18.8455C43.9764 16.5899 43.4911 14.2709 42.5577 12.2404C45.2914 15.4855 47.7254 19.1303 48.5702 23.5652C49.1782 26.7093 48.9077 30.036 47.9428 33.3307C46.9405 36.706 45.4521 39.9881 44.4499 43.3634C44.3937 43.5928 44.6363 43.8563 44.817 43.5845C47.2007 40.1593 48.8442 36.4234 50.1278 32.5803C49.5071 36.4047 48.2496 40.213 47.1463 44.0012C46.2654 47.0603 45.4996 50.1513 44.8192 53.2521C44.1423 56.4099 43.5414 59.6518 43.5144 62.8083C43.4964 65.2112 43.7283 67.9917 45.45 69.5274C45.5556 69.6338 45.7228 69.5963 45.7956 69.4065C47.3465 65.5468 48.0679 61.5264 48.9339 57.5602C48.1703 64.0469 47.8134 70.4856 49.4106 76.5437C49.5045 76.9128 49.8838 76.6543 49.8344 76.3185C48.7226 69.8914 51.6043 62.7127 53.5727 56.2881C54.7448 52.47 55.8037 48.6485 56.7771 44.8172C57.0719 48.5951 57.2274 52.4043 57.3253 56.1975C57.47 60.7317 57.5513 65.3813 58.6824 69.6508C59.4082 72.4216 60.6858 75.8779 63.3346 77.1044C66.245 78.4457 68.2727 74.7535 69.1082 72.0948C70.3792 68.0523 70.2484 63.9629 70.7266 59.8959C71.301 62.2816 71.4758 64.8292 71.842 67.276C72.2213 69.7055 72.6666 72.5103 74.3155 74.2358C74.4359 74.3533 74.5865 74.2761 74.6611 74.1149C74.9743 73.481 75.2579 72.8248 75.4709 72.1701C76.1113 74.9311 76.1976 78.0911 78.1449 80.0676C78.1911 80.1294 78.2635 80.1565 78.3601 80.1204C78.6203 79.9898 78.8657 79.848 79.1093 79.6777C81.6494 77.836 82.7819 74.287 83.5082 71.4649C84.3598 68.1667 84.7846 64.8199 85.07 61.5042C85.7648 53.2555 84.0837 45.641 81.6053 38.3789C84.8643 43.4571 87.8182 48.8495 89.4172 54.936C90.329 58.4166 90.7393 62.0096 90.7222 65.7709C90.7073 69.3437 90.4529 72.927 90.3823 76.5123C90.3801 76.7007 90.6191 76.9072 90.7589 76.659C95.1731 69.1365 95.4797 60.1078 93.3918 52.5412C96.8539 60.8399 98.1077 70.4145 95.6404 80.1304C95.5972 80.3424 95.8417 80.6344 96.0075 80.3515C100.437 72.6232 101.627 63.035 98.7011 55.6275C101.604 58.8637 103.09 63.8339 102.319 68.6314C102.27 68.9748 102.659 69.1041 102.734 68.726C104.294 60.7457 101.397 54.0111 98.4023 47.5295C97.0123 44.532 95.4646 41.4976 94.8143 38.1318C94.311 35.5279 94.3375 32.5883 95.8723 30.2641C96.0062 30.1473 96.155 30.0417 96.3019 29.9075C95.8417 30.6756 95.5316 31.5833 95.4238 32.5613C95.1815 34.769 95.6952 36.8648 96.4079 38.757C96.851 39.9582 97.4038 41.1059 97.9826 42.2188C99.1753 46.3444 101.509 49.9683 103.302 53.7569C105.241 57.8451 106.562 62.2022 106.836 66.9964C107.056 70.7187 106.608 74.5911 105.561 78.3668C102.446 89.4708 93.0619 102.198 83.4359 107.957C72.3395 114.594 59.7983 115.125 48.8044 110.843C20.9524 100.025 20.3064 69.62 30.6682 46.6293C32.4646 42.6278 35.0343 39.0164 37.0198 35.1025C37.2585 34.6298 37.4971 34.1572 37.6931 33.6797C37.7232 33.485 37.7385 33.2793 37.7537 33.0735C38.2144 32.0886 38.6045 31.1051 38.9074 30.0833C39.5245 27.9939 39.6643 25.9538 39.427 23.9838C39.8602 24.5803 40.0961 25.4089 40.2359 26.0568C40.4619 27.1766 40.506 28.3228 40.368 29.4955C40.5765 28.3215 40.657 27.1328 40.5963 25.947C40.3901 21.5567 37.5216 17.966 34.6862 15.3507C31.8343 12.6957 28.3959 10.8226 26.0055 7.64493C24.478 5.60319 23.3541 3.23967 22.6148 0.703121C24.5401 3.45045 27.4567 5.33944 30.3329 7.0352Z" fill="#DB5910" fill-opacity="0.75"/>
<path opacity="0.5" d="M36.7452 40.1634C34.6441 45.1582 32.1009 50.31 31.9413 55.6206C31.9467 55.7061 32.0523 55.8125 32.1156 55.6971C33.9628 52.2767 34.9789 48.4503 37.3658 45.299C35.7132 51.5804 32.1426 57.9166 32.9241 64.2588C32.9294 64.3443 33.0445 64.3763 33.0818 64.2957C35.23 60.721 35.5882 56.3197 38.4227 53.0968C36.2762 60.284 31.6401 68.3188 34.1841 75.2772C34.2174 75.3564 34.3288 75.3314 34.3661 75.2508C35.1998 73.4596 35.167 71.3715 36.2604 69.6665C36.6186 71.5371 36.6869 73.5161 36.7943 75.4429C36.9434 77.8084 37.0648 80.1801 37.409 82.5019C37.9473 86.1095 39.0106 90.8712 42.8989 91.5883C42.9416 91.5932 42.9955 91.5522 43.0067 91.5063C44.4678 87.1176 43.2891 82.5409 45.164 78.2182C46.0502 80.6207 45.9199 83.4824 47.2856 85.6471C47.3337 85.7375 47.4398 85.627 47.464 85.5638C48.0177 83.5897 47.9198 81.5885 48.3899 79.6332C50.2953 85.651 50.6588 92.9831 55.2414 97.3163C55.2711 97.3385 55.3286 97.3545 55.3547 97.3198C56.8584 95.6239 56.9492 93.0312 57.0647 91.0543C57.1942 88.6263 57.0158 86.0217 57.6949 83.5716C59.239 87.4449 58.0489 92.77 60.9444 95.8921C60.9907 95.954 61.0725 95.9067 61.0968 95.8434C61.61 94.5722 61.6725 93.0985 62.4325 91.9309C63.4926 93.7306 63.9541 95.896 64.7558 97.8549C65.4744 99.6157 66.4456 101.349 68.2918 101.946C68.3493 101.962 68.3884 101.91 68.3996 101.864C71.3078 95.3297 69.5547 88.3673 72.0917 81.7718C71.7465 86.1558 70.9214 90.9943 72.5918 94.8538C72.625 94.933 72.7235 94.9254 72.7738 94.8274C73.5769 92.5517 74.265 90.244 75.3854 88.0706C75.317 91.4676 75.1817 94.9229 75.9066 98.1275C75.9268 98.2241 75.9992 98.2512 76.0643 98.1643C79.5536 93.4506 80.923 87.6084 82.5032 82.1958C82.6829 87.7337 80.9724 93.3201 79.0691 98.7618C79.0205 98.8883 79.1576 99.0454 79.2452 98.8668C79.661 98.0654 80.2843 97.4197 80.7445 96.6517C80.7584 98.8886 79.9813 101.129 79.3584 103.35C79.336 103.442 79.4137 103.555 79.5085 103.49C82.9812 100.529 85.8165 96.872 87.8322 92.7635C89.7862 88.7989 91.0203 84.6201 92.0985 80.4329C92.8126 83.4664 92.1596 86.7778 92.2049 89.9614C92.2103 90.0469 92.3159 90.1533 92.3793 90.0379C93.0912 88.7799 93.7159 87.4836 94.1105 86.1233C94.3531 88.1788 93.866 90.3113 93.3491 92.4216C93.3266 92.5133 93.4062 92.6544 93.4992 92.5613C98.4225 87.5113 102.719 79.6829 101.589 72.9708C102.419 74.7066 102.136 76.9378 102.373 78.9078C102.378 78.9933 102.493 79.0253 102.531 78.9447C105.405 74.5568 105.531 69.167 105.112 64.5354C104.765 60.827 104.004 57.2693 103.228 53.7005C103.244 53.7401 103.261 53.7798 103.29 53.802C105.23 57.8902 106.55 62.2473 106.824 67.0415C107.045 70.7639 106.597 74.6362 105.549 78.4119C102.434 89.5159 93.0502 102.243 83.4242 108.002C72.3278 114.639 59.7866 115.17 48.7927 110.888C20.9407 100.071 20.2947 69.6651 30.6565 46.6744C32.4528 42.6729 35.0226 39.0614 37.0081 35.1476C37.2468 34.6749 37.4854 34.2023 37.6814 33.7248C37.7115 33.5301 37.7267 33.3244 37.742 33.1186C38.2027 32.1337 38.5928 31.1502 38.8957 30.1284C39.3276 28.6875 39.5199 27.257 39.5155 25.8418C40.5419 30.4672 38.6988 35.5197 36.7452 40.1634Z" fill="url(#paint5_radial_1546_943)"/>
<path d="M114.671 69.3731C114.653 69.0881 114.622 68.8204 114.637 68.6147C114.622 67.0284 114.924 65.7613 115.822 64.317C116.767 66.7639 116.66 69.1001 115.038 71.603C114.818 71.9269 114.585 72.2682 114.338 72.5983C114.859 71.9033 114.738 70.4275 114.671 69.3731Z" fill="url(#paint6_linear_1546_943)"/>
<path d="M70.6323 19.2087C67.0334 17.704 63.4944 16.0269 60.4452 13.604C60.4007 13.5707 60.3562 13.5373 60.3117 13.5039C59.7737 12.3674 59.2097 11.2655 58.6606 10.1748C63.1506 12.5923 67.1045 15.6937 70.6323 19.2087Z" fill="url(#paint7_linear_1546_943)"/>
<path d="M64.7141 21.2594C65.6583 22.565 66.4555 24.0046 67.0483 25.5625C67.4361 26.5593 67.6437 27.611 67.8087 28.6579C67.7952 28.8921 67.7668 29.1152 67.7534 29.3495C67.6985 29.8242 67.7057 30.8342 67.4815 31.5349C67.4648 31.4953 67.4482 31.4556 67.4167 31.4049C66.6429 29.4397 65.6663 27.6212 64.5037 25.9889C64.084 23.3662 63.3447 20.8297 62.4122 18.3654C63.205 19.2858 63.9865 20.2521 64.7141 21.2594Z" fill="url(#paint8_linear_1546_943)"/>
<path d="M51.6798 22.4793C51.6726 23.2613 51.6376 24.0496 51.532 24.8392C51.4812 25.1541 51.4583 25.4627 51.4075 25.7776C50.9733 27.4068 50.3405 29.0229 49.5168 30.5228C49.8336 29.0499 49.7774 27.4873 49.5002 26.0032C49.4768 22.9447 48.6679 19.9758 47.1876 17.5622C47.1377 18.3393 46.9058 19.1428 46.5588 19.9144C46.4842 20.0756 46.3764 20.1576 46.2631 20.1541C45.8497 18.0792 44.9473 16.3163 43.7865 14.7125C43.8584 14.0605 43.9285 13.38 43.9856 12.7169C46.1023 16.2594 49.1821 19.1668 51.6798 22.4793Z" fill="url(#paint9_linear_1546_943)"/>
<path d="M48.2118 8.03906C54.4231 12.2091 59.8258 17.6734 63.3208 24.4762C62.5263 23.5273 61.6647 22.6367 60.7381 21.8331C61.7807 24.027 62.1352 26.7365 62.1078 29.2139C62.1168 29.3564 62.0552 29.5003 61.9919 29.6157C61.5627 27.9633 61.1187 26.2999 60.2545 24.9186C59.5143 23.7118 58.5472 22.7149 57.5558 21.7812C56.8354 20.8879 56.0332 20.0418 55.1937 19.2764C54.3394 18.4999 53.4217 17.8387 52.4519 17.247C51.4385 15.2922 50.3433 13.3847 49.1218 11.4911C48.6522 10.5415 48.1534 9.35281 48.2118 8.03906Z" fill="url(#paint10_linear_1546_943)"/>
<path d="M41.7414 30.2293C40.9545 32.7614 40.381 35.318 39.3788 37.7973C38.2292 40.6276 36.4931 43.3439 35.0096 46.0323C32.1302 51.2307 29.8408 56.6001 27.5551 62.0265C27.445 62.2968 27.2544 61.9639 27.3012 61.8089C28.0328 59.0723 28.9222 56.3726 29.9546 53.6987C30.9963 50.9504 32.4668 48.2793 33.8721 45.695C35.2905 43.0935 36.987 40.6462 38.4333 38.0384C39.8291 35.5285 40.5739 32.7746 41.5653 30.1243C41.6363 29.906 41.803 30.0854 41.7414 30.2293Z" fill="url(#paint11_linear_1546_943)"/>
<path d="M76.4214 107.639C84.8042 103.229 91.8726 95.2268 96.0423 86.5163C96.1169 86.355 96.2149 86.5643 96.1794 86.6734C92.3045 95.5779 85.3219 104.269 76.4744 108.032C76.3369 108.092 76.2708 107.717 76.4214 107.639Z" fill="url(#paint12_linear_1546_943)"/>
<path d="M33.1725 94.4234C35.0231 97.3319 37.1174 100.07 39.6228 102.384C42.1134 104.686 45.0395 106.501 48.1782 107.878C51.0274 109.146 54.2007 109.951 57.3578 110.5C60.5575 111.054 63.8976 111.143 67.2591 110.677C67.3297 110.676 67.3535 110.83 67.2699 110.848C60.6798 112.096 53.9845 111.228 48.1984 108.87C41.5701 106.152 36.2756 101.285 32.7797 94.9161C32.591 94.6117 32.9208 94.0174 33.1725 94.4234Z" fill="url(#paint13_linear_1546_943)"/>
<path d="M38.7441 20.1342C38.7262 19.8492 38.6951 19.5816 38.7104 19.3758C38.6952 17.7896 38.9967 16.5224 39.8947 15.0781C40.8402 17.525 40.7332 19.8613 39.1108 22.3641C38.8911 22.688 38.6583 23.0293 38.4106 23.3594C38.9171 22.6533 38.8106 21.1887 38.7441 20.1342Z" fill="url(#paint14_linear_1546_943)"/>
<path d="M52.2009 21.3487C53.6704 25.3833 54.5086 29.4874 53.7283 34.1424C52.918 38.9921 50.5815 43.8373 48.4813 48.3984C44.6038 56.8121 39.9307 65.6067 39.7374 74.6389C39.7154 75.4098 39.7491 76.1681 39.7828 76.9265C39.8043 77.2685 39.483 77.3262 39.4205 77.0078C38.7874 72.5687 39.1591 67.9331 40.1824 63.3247C40.5779 61.5307 41.1033 59.7798 41.7271 58.0212C40.8116 59.8597 39.9406 61.7315 39.1995 63.6464C37.6108 67.8036 36.7983 71.9457 36.4032 76.2108C35.974 80.8304 37.0898 85.3057 39.3085 88.8976C39.3881 89.0387 39.2424 89.4182 39.0887 89.2215C36.5056 85.8992 35.5061 81.7013 34.9601 77.3005C34.4308 72.9394 35.4375 68.2913 36.984 63.9123C38.6985 59.0621 41.1923 54.4705 43.7899 49.9569C45.7746 46.4767 47.9614 43.0668 49.8422 39.5088C50.262 38.5475 50.6669 37.5751 51.0718 36.6027C52.0143 34.2958 52.6597 31.9832 52.8206 29.606C52.9869 27.3143 52.6611 25.0607 52.2013 22.9238C52.1169 22.4804 52.0045 22.0431 51.9052 21.5885C51.8796 21.4064 52.0993 21.0825 52.2009 21.3487Z" fill="url(#paint15_linear_1546_943)"/>
<path d="M66.2749 22.0487C67.5206 23.8791 69.3376 25.1333 71.0988 26.4C72.9045 27.7001 74.6042 29.1107 76.2387 30.6082C79.8078 33.8826 83.0179 37.5122 85.6272 41.6957C88.1106 45.6762 89.98 50.228 90.7274 55.1328C91.361 59.355 90.7947 63.8175 89.8554 68.1903C89.5367 69.6347 89.1624 71.0916 88.7732 72.5374C88.6572 72.9391 88.3013 72.6722 88.3669 72.3684C89.2118 67.8434 90.1013 63.3517 89.6798 58.9085C89.2403 54.1803 87.4022 49.6793 85.331 45.7363C83.0637 41.3749 79.9822 37.5431 76.7757 33.9705C75.1789 32.1755 73.5004 30.4278 71.7697 28.7495C70.1744 27.1999 68.4599 25.7782 67.1157 23.9555C66.7306 23.4494 66.3994 22.9023 66.109 22.3316C66.0034 22.2252 66.136 21.8631 66.2749 22.0487Z" fill="url(#paint16_linear_1546_943)"/>
<path d="M61.7616 22.8451C63.3578 26.6489 66.0754 29.6375 68.1849 33.0661C70.0279 36.0775 71.6421 39.2704 72.9013 42.6585C75.3497 49.2193 76.6587 57.2062 73.782 64.6873C73.4665 65.5096 72.8849 64.8019 73.0458 64.2166C75.1689 56.659 74.1219 49.4659 71.616 42.8891C70.3806 39.6546 68.8311 36.5918 67.1607 33.6283C65.2035 30.1511 62.5529 27.1041 61.5737 23.0028C61.5387 22.8951 61.6802 22.6754 61.7616 22.8451Z" fill="url(#paint17_linear_1546_943)"/>
<path d="M57.6055 27.7384C60.4722 35.7805 58.2633 45.3372 54.3821 53.694C54.0351 54.4655 53.4801 53.5062 53.6334 53.0238C54.9268 48.8895 56.4337 44.7795 57.4562 40.6048C58.5087 36.2355 58.6405 31.8272 57.4289 27.8503C57.392 27.714 57.552 27.5625 57.6055 27.7384Z" fill="url(#paint18_linear_1546_943)"/>
<path d="M102.778 25.0732C102.077 26.7192 103.643 28.0297 104.275 29.3185C104.436 29.6292 104.571 29.9747 104.678 30.3264C105.055 31.3691 105.214 32.5474 105.144 33.6901C105.083 34.73 104.895 35.7838 104.548 36.7721C104.051 37.8662 103 40.0098 102.142 40.0722C102.421 39.5759 102.629 39.0525 102.75 38.5194C103.123 36.8171 102.62 35.3261 101.696 34.1171C100.479 32.5259 99.0252 30.7566 100.115 28.3156C100.71 26.997 101.69 25.9677 102.778 25.0732Z" fill="url(#paint19_linear_1546_943)"/>
<path d="M24.2229 48.6111C24.5833 47.6053 25.1145 46.619 25.3747 45.5924C25.4534 45.2713 25.5042 44.9564 25.5123 44.6366C25.5603 44.727 25.5936 44.8063 25.6269 44.8855C26.1347 46.2167 26.4749 47.8023 26.3881 49.3392C26.2843 51.0533 25.5311 52.5518 24.5311 53.9468C24.0426 52.25 23.5766 50.4614 24.2229 48.6111Z" fill="url(#paint20_linear_1546_943)"/>
<path d="M96.7885 62.5028C98.463 66.2024 98.6081 70.5197 98.1164 74.821C97.5546 79.8027 96.2149 84.7712 93.8379 89.4232C91.4106 94.1733 88.2395 98.5555 84.2829 102.131C80.4732 105.573 76.0672 108.296 71.4333 109.87C71.1434 109.979 71.0742 109.329 71.3196 109.188C79.8036 104.365 86.8037 97.0713 91.7958 88.4074C94.1903 84.2572 95.783 79.9401 96.7116 75.3963C97.6005 71.1215 97.8365 66.5742 96.5058 62.7252C96.4672 62.5604 96.6888 62.265 96.7885 62.5028Z" fill="url(#paint21_linear_1546_943)"/>
<path d="M44.594 96.7438C50.2439 102.095 57.5827 105.997 66.1354 104.729C70.7266 104.045 75.1852 101.932 79.1535 98.9894C81.2586 97.4188 83.3214 95.6264 85.2247 93.7686C87.3418 91.7183 89.1624 89.4456 90.4212 86.7786C90.5089 86.6 90.6365 86.8315 90.5749 86.9753C88.4236 92.0681 84.2454 95.9393 80.1126 99.4101C76.2346 102.665 71.9018 104.981 67.2616 106.008C58.7336 107.892 51.0915 104.332 45.704 98.6624C45.2501 98.1862 44.8092 97.6926 44.3814 97.1817C44.2295 97.0134 44.3697 96.5484 44.594 96.7438Z" fill="url(#paint22_linear_1546_943)"/>
<path d="M28.2896 73.2193C29.2661 77.7258 30.2853 82.2372 31.9216 86.4511C33.6796 91.028 36.6129 94.7486 40.0764 97.9167C43.5845 101.118 47.71 103.805 52.0581 105.763C54.2543 106.759 56.5625 107.513 58.9192 108.14C61.1757 108.746 63.46 109.347 65.9223 109.184C66.0765 109.164 66.1129 109.517 65.9439 109.526C63.6595 109.822 61.5046 109.482 59.3461 109.085C56.9445 108.641 54.6192 108.064 52.3484 107.23C47.764 105.556 43.5993 102.921 39.9146 99.8317C36.3189 96.8088 33.2909 93.1529 31.3414 88.6768C29.4584 84.3592 28.5902 79.5538 27.85 74.7631C27.7952 74.3418 27.7125 73.9268 27.6577 73.5056C27.5696 73.0051 28.157 72.6854 28.2896 73.2193Z" fill="url(#paint23_linear_1546_943)"/>
<path d="M42.9292 47.4914C38.6844 53.8921 35.8095 61.4017 34.5578 68.6626C33.3138 75.8207 33.4373 83.38 37.4383 88.7975C37.6698 89.1069 37.9161 89.4273 38.1754 89.7304C38.3291 89.9272 38.1812 90.4951 37.9107 90.2378C33.1519 85.7996 31.9601 78.5523 32.7898 71.545C33.659 64.2687 36.5744 56.9524 40.5594 50.4655C41.2506 49.3277 42.0011 48.2344 42.7813 47.1633C42.9117 46.9896 43.0334 47.3524 42.9292 47.4914Z" fill="url(#paint24_linear_1546_943)"/>
<path d="M102.227 53.9837C102.738 55.8057 103.399 57.5505 103.882 59.3787C104.394 61.2291 104.641 63.1247 104.711 65.1322C104.843 69.25 104.257 73.3991 103.233 77.5452C101.377 85.0862 97.347 92.8695 91.1554 97.9728C90.9676 98.1306 90.8534 97.6649 91.0004 97.5307C96.6949 92.1632 100.283 84.5369 102.268 77.2559C103.361 73.2967 103.982 69.2555 104.042 65.2822C104.088 61.2979 102.907 57.8055 102.107 54.0831C102.085 53.958 102.191 53.8475 102.227 53.9837Z" fill="url(#paint25_linear_1546_943)"/>
<path d="M26.3125 55.0925C23.7414 62.0426 22.8699 69.5072 23.2954 76.4785C23.7376 83.4894 25.3257 90.301 28.1372 96.3467C28.2518 96.5956 27.9871 97.103 27.7947 96.7415C24.5487 90.7499 22.2622 84.0662 21.7629 76.8224C21.2565 69.4646 22.5514 61.9917 26.1049 54.9368C26.2186 54.7234 26.3611 54.966 26.3125 55.0925Z" fill="url(#paint26_linear_1546_943)"/>
<path d="M102.919 44.5646C105.948 50.4748 108.878 56.6095 110.143 63.4503C110.747 66.7542 110.879 70.1929 110.492 73.6761C110.098 77.2906 109.092 81.288 107.123 84.5624C106.842 85.0302 106.551 84.4594 106.645 84.1494C107.705 80.5732 108.828 77.0985 109.248 73.4493C109.647 70.1371 109.466 66.8249 108.999 63.6781C108.011 56.9632 105.35 50.8404 102.525 45.0289C102.379 44.7293 102.71 44.1635 102.919 44.5646Z" fill="url(#paint27_linear_1546_943)"/>
<path d="M20.2962 74.8532C20.4166 76.7626 20.5222 78.661 20.9622 80.4843C21.0947 81.0182 20.5478 81.5311 20.3244 80.902C19.6841 79.0369 19.8036 76.9002 19.9713 74.8538C19.9811 74.5626 20.267 74.614 20.2962 74.8532Z" fill="url(#paint28_linear_1546_943)"/>
<path d="M84.4474 110.345C90.1468 107.072 94.987 102.72 99.5054 97.7466C101.897 95.1145 104.073 92.4296 105.975 89.4305C107.89 86.414 109.484 83.2382 111.035 80.0576C111.16 79.7984 111.338 80.1487 111.25 80.3274C109.806 83.6428 108.318 86.9249 106.512 90.1048C104.693 93.3021 102.454 96.1023 100.014 98.8609C95.6103 103.866 90.6241 108.815 84.5404 111.148C84.2375 111.274 84.1611 110.511 84.4474 110.345Z" fill="url(#paint29_linear_1546_943)"/>
<path d="M104.466 88.1361C104.686 87.8122 104.884 88.2591 104.757 88.4899C104.049 89.805 103.227 91.3334 102.177 92.3926C101.859 92.7241 101.664 92.0888 101.816 91.8232C102.567 90.5131 103.641 89.3906 104.466 88.1361Z" fill="url(#paint30_linear_1546_943)"/>
<defs>
<linearGradient id="paint0_linear_1546_943" x1="63.6134" y1="21.357" x2="63.6134" y2="80.7363" gradientUnits="userSpaceOnUse">
<stop offset="0.135417" stop-color="#FFCD1A"/>
<stop offset="1" stop-color="#FF831A" stop-opacity="0"/>
</linearGradient>
<radialGradient id="paint1_radial_1546_943" cx="0" cy="0" r="1" gradientUnits="userSpaceOnUse" gradientTransform="translate(34.6133 105.232) rotate(-179.989) scale(12.5)">
<stop stop-color="#FFCD1A"/>
<stop offset="1" stop-color="#FF6C1A"/>
</radialGradient>
<radialGradient id="paint2_radial_1546_943" cx="0" cy="0" r="1" gradientUnits="userSpaceOnUse" gradientTransform="translate(92.6133 105.232) rotate(-179.989) scale(12.5)">
<stop stop-color="#FFCD1A"/>
<stop offset="1" stop-color="#FF6C1A"/>
</radialGradient>
<linearGradient id="paint3_linear_1546_943" x1="40.2191" y1="24.534" x2="98.6223" y2="84.5221" gradientUnits="userSpaceOnUse">
<stop stop-color="#EA9300"/>
<stop offset="1" stop-color="#D90011"/>
</linearGradient>
<linearGradient id="paint4_linear_1546_943" x1="33.267" y1="30.1226" x2="95.2505" y2="88.3587" gradientUnits="userSpaceOnUse">
<stop stop-color="#D90011"/>
<stop offset="1" stop-color="#F2C888"/>
</linearGradient>
<radialGradient id="paint5_radial_1546_943" cx="0" cy="0" r="1" gradientUnits="userSpaceOnUse" gradientTransform="translate(14.8114 32.387) rotate(90) scale(97.2666 117.024)">
<stop stop-color="#E28F81"/>
<stop offset="1" stop-color="#EA9300"/>
</radialGradient>
<linearGradient id="paint6_linear_1546_943" x1="-292.112" y1="-856.775" x2="605.617" y2="-274.258" gradientUnits="userSpaceOnUse">
<stop stop-color="#D90011"/>
<stop offset="0.9987" stop-color="#CB8906"/>
</linearGradient>
<linearGradient id="paint7_linear_1546_943" x1="-89.998" y1="32.2118" x2="-76.7352" y2="125.549" gradientUnits="userSpaceOnUse">
<stop stop-color="#D90011"/>
<stop offset="1" stop-color="#F2C888"/>
</linearGradient>
<linearGradient id="paint8_linear_1546_943" x1="36.4932" y1="-0.918481" x2="75.3763" y2="149.498" gradientUnits="userSpaceOnUse">
<stop stop-color="#D90011"/>
<stop offset="1" stop-color="#EA9300"/>
</linearGradient>
<linearGradient id="paint9_linear_1546_943" x1="45.5363" y1="-4.17418" x2="90.6799" y2="147.175" gradientUnits="userSpaceOnUse">
<stop stop-color="#D90011"/>
<stop offset="1" stop-color="#EA9300"/>
</linearGradient>
<linearGradient id="paint10_linear_1546_943" x1="23.2313" y1="2.65131" x2="45.874" y2="147.783" gradientUnits="userSpaceOnUse">
<stop stop-color="#D90011"/>
<stop offset="1" stop-color="#EA9300"/>
</linearGradient>
<linearGradient id="paint11_linear_1546_943" x1="-59.5264" y1="-685.97" x2="402.089" y2="-541.435" gradientUnits="userSpaceOnUse">
<stop stop-color="#D90011"/>
<stop offset="1" stop-color="#EA9300"/>
</linearGradient>
<linearGradient id="paint12_linear_1546_943" x1="136.424" y1="492.814" x2="-54.3091" y2="461.742" gradientUnits="userSpaceOnUse">
<stop stop-color="#D90011"/>
<stop offset="1" stop-color="#F2C888"/>
</linearGradient>
<linearGradient id="paint13_linear_1546_943" x1="235.87" y1="104.987" x2="197.581" y2="-30.6178" gradientUnits="userSpaceOnUse">
<stop stop-color="#D90011"/>
<stop offset="1" stop-color="#F2C888"/>
</linearGradient>
<linearGradient id="paint14_linear_1546_943" x1="-166.563" y1="-605.486" x2="440.407" y2="-259.611" gradientUnits="userSpaceOnUse">
<stop stop-color="#D90011"/>
<stop offset="0.9987" stop-color="#CB8906"/>
</linearGradient>
<linearGradient id="paint15_linear_1546_943" x1="75.4743" y1="86.7782" x2="6.15883" y2="53.7265" gradientUnits="userSpaceOnUse">
<stop stop-color="#D90011"/>
<stop offset="1" stop-color="#EA9300"/>
</linearGradient>
<linearGradient id="paint16_linear_1546_943" x1="97.4115" y1="72.0449" x2="48.6202" y2="-12.2782" gradientUnits="userSpaceOnUse">
<stop stop-color="#D90011"/>
<stop offset="1" stop-color="#EA9300"/>
</linearGradient>
<linearGradient id="paint17_linear_1546_943" x1="88.0734" y1="71.6906" x2="11.986" y2="-24.2924" gradientUnits="userSpaceOnUse">
<stop stop-color="#D90011"/>
<stop offset="1" stop-color="#EA9300"/>
</linearGradient>
<linearGradient id="paint18_linear_1546_943" x1="78.4882" y1="85.0828" x2="-96.6262" y2="-11.3298" gradientUnits="userSpaceOnUse">
<stop stop-color="#D90011"/>
<stop offset="1" stop-color="#EA9300"/>
</linearGradient>
<linearGradient id="paint19_linear_1546_943" x1="-153.256" y1="-258.931" x2="433.791" y2="382.05" gradientUnits="userSpaceOnUse">
<stop stop-color="#D90011"/>
<stop offset="0.9987" stop-color="#CB8906"/>
</linearGradient>
<linearGradient id="paint20_linear_1546_943" x1="-32.075" y1="-111.418" x2="725.023" y2="554.672" gradientUnits="userSpaceOnUse">
<stop stop-color="#D90011"/>
<stop offset="0.9987" stop-color="#CB8906"/>
</linearGradient>
<linearGradient id="paint21_linear_1546_943" x1="41.9528" y1="-5.49399" x2="300.827" y2="104.416" gradientUnits="userSpaceOnUse">
<stop stop-color="#D90011"/>
<stop offset="1" stop-color="#EA9300"/>
</linearGradient>
<linearGradient id="paint22_linear_1546_943" x1="32.4213" y1="25.432" x2="192.727" y2="237.643" gradientUnits="userSpaceOnUse">
<stop stop-color="#D90011"/>
<stop offset="1" stop-color="#EA9300"/>
</linearGradient>
<linearGradient id="paint23_linear_1546_943" x1="-26.5459" y1="32.1514" x2="8.52238" y2="227.364" gradientUnits="userSpaceOnUse">
<stop stop-color="#D90011"/>
<stop offset="1" stop-color="#EA9300"/>
</linearGradient>
<linearGradient id="paint24_linear_1546_943" x1="-17.1307" y1="-81.6321" x2="220.416" y2="134.299" gradientUnits="userSpaceOnUse">
<stop stop-color="#D90011"/>
<stop offset="1" stop-color="#EA9300"/>
</linearGradient>
<linearGradient id="paint25_linear_1546_943" x1="78.8557" y1="95.9033" x2="-21.0408" y2="43.7075" gradientUnits="userSpaceOnUse">
<stop stop-color="#D90011"/>
<stop offset="1" stop-color="#F2C888"/>
</linearGradient>
<linearGradient id="paint26_linear_1546_943" x1="175.326" y1="187.777" x2="-70.6975" y2="-28.7787" gradientUnits="userSpaceOnUse">
<stop stop-color="#D90011"/>
<stop offset="1" stop-color="#F2C888"/>
</linearGradient>
<linearGradient id="paint27_linear_1546_943" x1="217.603" y1="166.894" x2="38.8867" y2="-81.0763" gradientUnits="userSpaceOnUse">
<stop stop-color="#D90011"/>
<stop offset="1" stop-color="#F2C888"/>
</linearGradient>
<linearGradient id="paint28_linear_1546_943" x1="908.587" y1="625.109" x2="-206.653" y2="-868.67" gradientUnits="userSpaceOnUse">
<stop stop-color="#D90011"/>
<stop offset="1" stop-color="#F2C888"/>
</linearGradient>
<linearGradient id="paint29_linear_1546_943" x1="86.3069" y1="191.541" x2="6.6907" y2="171.234" gradientUnits="userSpaceOnUse">
<stop stop-color="#D90011"/>
<stop offset="1" stop-color="#F2C888"/>
</linearGradient>
<linearGradient id="paint30_linear_1546_943" x1="1260.1" y1="4602.37" x2="-1591.02" y2="3947.22" gradientUnits="userSpaceOnUse">
<stop stop-color="#D90011"/>
<stop offset="1" stop-color="#F2C888"/>
</linearGradient>
</defs>
</svg>
