<svg width="129" height="129" viewBox="0 0 129 129" fill="none" xmlns="http://www.w3.org/2000/svg">
<path d="M33.5803 46.501C33.5803 63.5769 47.4236 77.4192 64.5001 77.4186C81.5766 77.418 95.4199 63.5748 95.4199 46.4988C95.4199 29.4229 81.5767 15.5806 64.5001 15.5812C47.4236 15.5818 33.5803 29.425 33.5803 46.501Z" fill="#BE7800"/>
<path fill-rule="evenodd" clip-rule="evenodd" d="M91.8396 46.499C91.8396 31.4003 79.5993 19.1607 64.5 19.1612C49.4007 19.1617 37.1604 31.402 37.1604 46.5008C37.1604 61.5995 49.4007 73.839 64.5 73.8386C79.5993 73.8381 91.8396 61.5978 91.8396 46.499ZM64.5 12.0011C83.5538 12.0005 99 27.4456 99 46.4988C99 65.552 83.5538 80.9981 64.5 80.9987C45.4462 80.9993 30 65.5541 30 46.501C30 27.4478 45.4462 12.0017 64.5 12.0011Z" fill="black"/>
<path d="M26 71.5027C26 92.7657 43.237 110.002 64.5 110.001C85.763 110.001 103 92.763 103 71.5C103 50.237 85.763 33.0006 64.5 33.0013C43.237 33.0021 26 50.2397 26 71.5027Z" fill="#F8C574"/>
<path d="M24.215 102.497C24.215 109.28 29.7151 114.78 36.4997 114.782C43.2843 114.783 48.7844 109.285 48.7844 102.502C48.7844 95.7187 43.2843 90.2186 36.4997 90.2173C29.7151 90.2159 24.215 95.7138 24.215 102.497Z" fill="#BE7800"/>
<path fill-rule="evenodd" clip-rule="evenodd" d="M36.4999 88.0029C44.508 88.0045 50.9999 94.4964 50.9999 102.503C50.9999 110.509 44.508 116.999 36.4999 116.997C28.4918 116.995 22 110.503 22 102.497C22 94.4905 28.4918 88.0013 36.4999 88.0029ZM46.5693 102.502C46.5693 96.9419 42.0611 92.4337 36.4999 92.4326C30.9388 92.4314 26.4305 96.9378 26.4305 102.498C26.4305 108.058 30.9388 112.566 36.4999 112.567C42.0611 112.568 46.5693 108.062 46.5693 102.502Z" fill="black"/>
<path d="M81.215 102.497C81.215 109.28 86.715 114.78 93.4996 114.782C100.284 114.783 105.784 109.285 105.784 102.502C105.784 95.7187 100.284 90.2186 93.4996 90.2173C86.715 90.2159 81.215 95.7138 81.215 102.497Z" fill="#BE7800"/>
<path fill-rule="evenodd" clip-rule="evenodd" d="M93.4999 88.0029C101.508 88.0045 108 94.4964 108 102.503C108 110.509 101.508 116.999 93.4999 116.997C85.4918 116.995 78.9999 110.503 78.9999 102.497C78.9999 94.4905 85.4918 88.0013 93.4999 88.0029ZM103.569 102.502C103.569 96.9419 99.0611 92.4337 93.4999 92.4326C87.9387 92.4314 83.4305 96.9378 83.4305 102.498C83.4305 108.058 87.9387 112.566 93.4999 112.567C99.0611 112.568 103.569 108.062 103.569 102.502Z" fill="black"/>
</svg>
