<svg width="128" height="128" viewBox="0 0 128 128" fill="none" xmlns="http://www.w3.org/2000/svg">
<path d="M33.5803 46.501C33.5803 63.5769 47.423 77.4192 64.499 77.4186C81.5749 77.418 95.4177 63.5748 95.4177 46.4988C95.4177 29.4229 81.5749 15.5806 64.499 15.5812C47.423 15.5818 33.5803 29.425 33.5803 46.501Z" fill="#E7AE53"/>
<path fill-rule="evenodd" clip-rule="evenodd" d="M91.8377 46.499C91.8377 31.4003 79.5977 19.1608 64.499 19.1613C49.4003 19.1619 37.1603 31.4022 37.1603 46.501C37.1603 61.5997 49.4003 73.8392 64.499 73.8387C79.5977 73.8381 91.8377 61.5978 91.8377 46.499ZM64.499 12.0012C83.5522 12.0005 98.9978 27.4456 98.9978 46.4988C98.9978 65.552 83.5522 80.9981 64.499 80.9988C45.4458 80.9995 30.0002 65.5544 30.0002 46.5012C30.0002 27.448 45.4459 12.0019 64.499 12.0012Z" fill="#E7AE53"/>
<path d="M25 71.5027C25 92.7657 42.237 110.002 63.5 110.001C84.763 110.001 102 92.763 102 71.5C102 50.237 84.763 33.0006 63.5 33.0013C42.237 33.0021 25 50.2397 25 71.5027Z" fill="#BE7800"/>
<path d="M23.2151 102.497C23.2151 109.28 28.7151 114.78 35.4998 114.782C42.2844 114.783 47.7844 109.285 47.7844 102.502C47.7844 95.7187 42.2844 90.2186 35.4998 90.2173C28.7151 90.2159 23.2151 95.7138 23.2151 102.497Z" fill="#F8C574"/>
<path fill-rule="evenodd" clip-rule="evenodd" d="M35.5001 88.0029C43.5082 88.0045 50 94.4964 50 102.503C50 110.509 43.5082 116.999 35.5001 116.997C27.492 116.995 21.0001 110.503 21.0001 102.497C21.0001 94.4905 27.492 88.0013 35.5001 88.0029ZM45.5695 102.502C45.5695 96.9419 41.0612 92.4337 35.5001 92.4326C29.9389 92.4314 25.4307 96.9378 25.4307 102.498C25.4307 108.058 29.9389 112.566 35.5001 112.567C41.0612 112.568 45.5695 108.062 45.5695 102.502Z" fill="#333333"/>
<path d="M80.2151 102.497C80.2151 109.28 85.7151 114.78 92.4998 114.782C99.2844 114.783 104.784 109.285 104.784 102.502C104.784 95.7187 99.2844 90.2186 92.4998 90.2173C85.7151 90.2159 80.2151 95.7138 80.2151 102.497Z" fill="#F8C574"/>
<path fill-rule="evenodd" clip-rule="evenodd" d="M92.5001 88.0029C100.508 88.0045 107 94.4964 107 102.503C107 110.509 100.508 116.999 92.5001 116.997C84.492 116.995 78.0001 110.503 78.0001 102.497C78.0001 94.4905 84.492 88.0013 92.5001 88.0029ZM102.569 102.502C102.569 96.9419 98.0612 92.4337 92.5001 92.4326C86.9389 92.4314 82.4307 96.9378 82.4307 102.498C82.4307 108.058 86.9389 112.566 92.5001 112.567C98.0612 112.568 102.569 108.062 102.569 102.502Z" fill="#333333"/>
</svg>
