<svg width="128" height="128" viewBox="0 0 128 128" fill="none" xmlns="http://www.w3.org/2000/svg">
<path d="M32 46.5022C32 63.8992 46.103 78.0017 63.5 78.0011C80.897 78.0005 95 63.897 95 46.5C95 29.103 80.897 15.0005 63.5 15.0011C46.103 15.0017 32 29.1052 32 46.5022Z" fill="#E2CDAA"/>
<path fill-rule="evenodd" clip-rule="evenodd" d="M64 12.0012C82.7777 12.0005 98 27.2223 98 46C98 64.7777 82.7777 80.0005 64 80.0012C45.2223 80.0018 30 64.7801 30 46.0024C30 27.2247 45.2223 12.0018 64 12.0012ZM92.8097 46.0002C92.8097 30.089 79.9112 17.1909 64 17.1915C48.0888 17.192 35.1903 30.091 35.1903 46.0022C35.1903 61.9134 48.0888 74.8115 64 74.8109C79.9112 74.8104 92.8097 61.9114 92.8097 46.0002Z" fill="black"/>
<path d="M62.5 111C39.5802 111 21 92.4077 21 69.5C21 46.5923 39.5802 28 62.5 28C85.4198 28 104 46.5923 104 69.5C104 92.4077 85.4198 111 62.5 111Z" fill="#212124"/>
<mask id="mask0" mask-type="alpha" maskUnits="userSpaceOnUse" x="21" y="28" width="83" height="83">
<path d="M62.5 111C39.5802 111 21 92.4077 21 69.5C21 46.5923 39.5802 28 62.5 28C85.4198 28 104 46.5923 104 69.5C104 92.4077 85.4198 111 62.5 111Z" fill="#2A292E"/>
</mask>
<g mask="url(#mask0)">
<path d="M41.6074 57.7146L62.2417 46.8799L82.4618 58.4737L82.141 81.348L61.2476 92.2489L41.1934 80.1431L41.6074 57.7146Z" fill="#69B71D"/>
<path d="M83.2215 17.8959L99.7151 27.4193L99.37 45.4312L82.5314 54.2645L66.0378 44.7411L66.3828 26.7292L83.2215 17.8959ZM83.2905 13.6172L62.7253 24.4519L62.2422 46.8804L82.3933 58.4742L103.028 47.6395L103.442 25.211L83.2905 13.6172Z" fill="#E2CDAA"/>
<path d="M21.3855 50.3317L37.8791 59.8552L37.5341 77.867L20.6954 86.7004L4.13283 77.2459L4.5469 59.1651L21.3855 50.3317ZM21.4545 46.1221L0.820315 56.9568L0.40625 79.3853L20.5574 90.9791L41.1916 80.1444L41.6057 57.7159L21.4545 46.1221Z" fill="#E2CDAA"/>
<path d="M10.7559 62.6146L21.2455 57.0938L31.5281 63.0287L31.3211 74.4845L20.8314 79.9363L10.5488 74.0704L10.7559 62.6146Z" fill="#148262"/>
<path d="M21.1765 62.0625L27.1804 65.5131L27.0424 71.7931L20.9004 75.0366L14.8965 71.586L15.0345 65.306L21.1765 62.0625ZM21.2455 57.0938L10.7559 62.6146L10.5488 74.0704L20.8314 80.0053L31.3211 74.4845L31.5281 63.0287L21.2455 57.0938Z" fill="#69B71D"/>
<path d="M73.9707 30.9395L83.0801 26.1777L91.9825 31.2845L91.7755 41.2221L82.6661 45.9838L73.7637 40.877L73.9707 30.9395Z" fill="#69B71D"/>
<path d="M49.3366 62.1325L62.1036 55.4385L74.5945 62.6156L74.3185 76.4868L61.5515 83.2498L49.0605 76.0037L49.3366 62.1325Z" fill="#148262"/>
<path d="M91.362 62.9597L104.129 56.2656L116.62 63.4427L116.344 77.3139L103.577 84.008L91.0859 76.8308L91.362 62.9597Z" fill="#148262"/>
<path d="M29.5983 28.1081L42.3653 21.4141L54.8563 28.5912L54.5802 42.4624L41.8132 49.1564L29.3223 41.9793L29.5983 28.1081Z" fill="#148262"/>
<path d="M36.2214 31.9053L42.2253 28.7998L48.0222 32.1813L47.8842 38.6683L41.9493 41.7738L36.1523 38.3923L36.2214 31.9053Z" fill="#E2CDAA"/>
<path d="M81.909 85.4567L98.4026 94.9802L98.0575 112.992L81.2189 121.825L64.7253 112.302L65.0703 94.2901L81.909 85.4567ZM81.978 81.2471L61.3438 92.0818L60.9297 114.51L81.0808 126.104L101.715 115.269L102.129 92.8409L81.978 81.2471Z" fill="#E2CDAA"/>
<path d="M72.4551 108.439L81.3575 113.545L90.4669 108.784L90.6739 98.9151L81.7715 93.7393L72.6621 98.57L72.4551 108.439Z" fill="#69B71D"/>
<path d="M28.0117 109.544L40.5027 116.79L53.2697 110.096L53.5457 96.1556L41.0548 88.9785L28.2878 95.6726L28.0117 109.544Z" fill="#148262"/>
<path d="M34.8438 106.021L40.6407 109.334L46.5756 106.228L46.7136 99.7412L40.9167 96.4287L34.9128 99.5342L34.8438 106.021Z" fill="#E2CDAA"/>
</g>
<path d="M22 102.495C22 109.399 27.5964 114.996 34.5 114.998C41.4036 114.999 47 109.404 47 102.5C47 95.5964 41.4036 89.9989 34.5 89.9975C27.5964 89.9961 22 95.5914 22 102.495Z" fill="#148262"/>
<path fill-rule="evenodd" clip-rule="evenodd" d="M34.5 87.997C42.5081 87.9987 49 94.4919 49 102.5C49 110.508 42.5081 116.999 34.5 116.997C26.4919 116.995 20 110.502 20 102.494C20 94.4859 26.4919 87.9954 34.5 87.997ZM44.5694 102.499C44.5694 96.9379 40.0612 92.4287 34.5 92.4276C28.9388 92.4265 24.4306 96.9338 24.4306 102.495C24.4306 108.056 28.9388 112.565 34.5 112.566C40.0612 112.568 44.5694 108.06 44.5694 102.499Z" fill="black"/>
<path d="M80 102.495C80 109.399 85.5964 114.996 92.5 114.998C99.4036 114.999 105 109.404 105 102.5C105 95.5964 99.4036 89.9989 92.5 89.9975C85.5964 89.9961 80 95.5914 80 102.495Z" fill="#148262"/>
<path fill-rule="evenodd" clip-rule="evenodd" d="M92.5 87.997C100.508 87.9987 107 94.4919 107 102.5C107 110.508 100.508 116.999 92.5 116.997C84.4919 116.995 78 110.502 78 102.494C78 94.4859 84.4919 87.9954 92.5 87.997ZM102.569 102.499C102.569 96.9379 98.0612 92.4287 92.5 92.4276C86.9388 92.4265 82.4306 96.9338 82.4306 102.495C82.4306 108.056 86.9388 112.565 92.5 112.566C98.0612 112.568 102.569 108.06 102.569 102.499Z" fill="black"/>
</svg>
