<svg width="256" height="256" viewBox="0 0 256 256" fill="none" xmlns="http://www.w3.org/2000/svg">
<path d="M80.3722 147.944C80.6649 152.231 78.5048 155.883 76.6807 159.589C75.0346 162.92 73.4426 166.29 75.1703 169.794C75.8172 171.108 75.6886 172.26 75.1326 173.126C77.9522 174.942 82.3119 172.471 80.476 168.759C78.7482 165.254 80.3425 161.898 81.9864 158.554C83.8105 154.847 85.9706 151.195 85.6834 146.901C85.4026 142.646 82.0782 138.491 78.1639 136.987C75.2669 135.878 72.1043 136.467 69.1882 137.446C70.4383 137.423 71.6741 137.565 72.8659 138.028C76.7726 139.527 80.0836 143.684 80.3722 147.944Z" fill="black"/>
<path d="M59.6831 118.071C61.3529 125.503 53.6789 131.144 51.5256 137.172C51.179 138.155 51.0915 138.162 51.0865 139.192C51.0853 139.567 51.1314 139.811 51.3008 140.145C51.4724 140.493 51.8846 141.108 52.5283 141.679C52.6636 141.801 52.864 141.946 53.0679 142.07C52.9039 141.939 53.3576 142.091 53.2612 142.127C54.2729 142.19 55.3852 141.902 56.4307 141.496C56.9828 141.285 57.5174 141.049 58.0596 140.819C57.9748 140.757 57.89 140.696 57.8339 140.644C57.1903 140.072 56.7781 139.457 56.6065 139.11C56.4371 138.776 56.3854 138.539 56.3921 138.156C56.4049 137.132 56.4791 137.127 56.8257 136.145C58.979 130.116 66.653 124.475 64.9832 117.043C63.6883 111.268 58.1171 108.271 52.6248 107.974C47.2143 107.677 41.9531 109.414 36.5629 109.414C36.42 109.627 36.2926 109.852 36.1519 110.079C39.8625 109.593 43.5528 108.81 47.3212 109.023C52.8093 109.293 58.3805 112.29 59.6831 118.071Z" fill="black"/>
<path d="M58.6787 148.42C58.7738 148.419 58.8655 148.438 58.9663 148.429C62.9612 148.312 66.5085 146.298 70.0805 144.948C69.7669 144.862 69.452 144.811 69.2582 144.835C65.6535 145.175 62.279 147.161 58.6787 148.42Z" fill="black"/>
<path d="M46.7311 116.041C48.2052 116.097 49.6316 116.366 50.6489 116.973C51.8701 117.703 52.646 119.098 52.779 119.97C52.7214 119.611 52.6545 120.807 52.6455 120.836C52.5166 121.307 52.0598 122.409 52.0173 122.484C51.161 124.154 50.0722 125.692 49.0121 127.239C46.8215 130.445 44.7736 133.65 43.9816 137.504C42.8275 143.093 47.8586 149.645 53.6646 149.477C55.4148 149.427 57.0688 148.992 58.6827 148.433C62.283 147.173 65.6575 145.187 69.2622 144.847C69.4637 144.829 69.7709 144.875 70.0845 144.961C70.3981 145.047 70.7126 145.18 70.9242 145.31C71.6515 145.765 72.2763 146.898 72.7965 147.932C73.0152 148.361 73.0193 149.151 72.8718 149.76C72.509 151.236 71.827 152.633 71.1518 153.989C68.2392 159.914 64.5357 166.56 68.5989 172.94C70.3028 175.617 73.8497 175.13 75.1249 173.14C75.681 172.273 75.8151 171.114 75.1626 169.808C73.4272 166.298 75.0214 162.942 76.673 159.603C78.4972 155.897 80.6573 152.245 80.3645 147.958C80.076 143.698 76.7726 139.546 72.8449 138.044C71.6475 137.589 70.4173 137.439 69.1673 137.462C66.458 137.522 63.709 138.481 61.2896 139.456C60.2008 139.889 59.1317 140.361 58.0471 140.821C57.5048 141.051 56.9625 141.281 56.4181 141.498C55.3726 141.904 54.2603 142.192 53.2486 142.129C53.3373 142.088 52.8914 141.941 53.0554 142.072C52.8648 141.946 52.6588 141.808 52.5157 141.681C51.8721 141.11 51.4599 140.495 51.2883 140.148C51.1266 139.819 51.0749 139.582 51.0739 139.194C51.0867 138.17 51.1609 138.165 51.513 137.175C53.6664 131.146 61.3347 125.513 59.6705 118.073C58.3757 112.298 52.8045 109.301 47.3121 109.004C43.5514 108.797 39.8534 109.574 36.1428 110.061C34.2016 113.1 36.651 116.72 40.241 116.374C42.6522 116.142 44.9982 115.976 46.7311 116.041Z" fill="#DF56AA"/>
<path d="M184.196 154.218C185.384 156.879 184.863 159.709 184.568 162.496C184.299 165.001 184.073 167.519 185.993 169.346C186.712 170.031 186.899 170.794 186.748 171.476C188.968 171.973 191.165 169.38 189.129 167.446C187.209 165.619 187.439 163.109 187.704 160.596C187.999 157.809 188.52 154.979 187.333 152.312C186.16 149.669 183.072 147.801 180.228 147.758C178.124 147.73 176.248 148.844 174.621 150.15C175.411 149.842 176.231 149.644 177.098 149.66C179.936 149.701 183.016 151.573 184.196 154.218Z" fill="black"/>
<path d="M164.04 140.036C166.841 144.377 163.274 149.763 163.312 154.105C163.321 154.811 163.268 154.836 163.505 155.493C163.592 155.732 163.679 155.877 163.865 156.05C164.055 156.231 164.461 156.526 165.005 156.739C165.119 156.785 165.281 156.831 165.439 156.862C165.305 156.817 165.629 156.808 165.576 156.853C166.235 156.657 166.876 156.213 167.446 155.71C167.748 155.447 168.034 155.172 168.325 154.898C168.257 154.879 168.188 154.86 168.14 154.84C167.597 154.626 167.191 154.331 167 154.15C166.814 153.977 166.726 153.838 166.641 153.593C166.41 152.938 166.456 152.917 166.447 152.211C166.408 147.869 169.975 142.484 167.174 138.142C164.999 134.768 160.752 134.163 157.185 135.258C153.671 136.334 150.728 138.67 147.296 139.93C147.255 140.099 147.226 140.272 147.19 140.45C149.438 139.272 151.605 137.911 154.054 137.166C157.611 136.055 161.859 136.66 164.04 140.036Z" fill="black"/>
<path d="M170.497 159.593C170.557 159.57 170.62 159.561 170.682 159.531C173.198 158.523 174.986 156.411 176.944 154.717C176.725 154.735 176.512 154.776 176.394 154.837C174.179 155.896 172.495 157.95 170.497 159.593Z" fill="black"/>
<path d="M155.319 141.772C156.271 141.463 157.242 141.301 158.032 141.449C158.98 141.629 159.8 142.335 160.088 142.859C159.968 142.644 160.205 143.422 160.206 143.442C160.234 143.772 160.201 144.58 160.191 144.638C160.037 145.902 159.703 147.135 159.39 148.368C158.745 150.922 158.19 153.441 158.587 156.08C159.159 159.908 163.894 162.903 167.551 161.438C168.654 160.998 169.605 160.333 170.502 159.6C172.5 157.957 174.184 155.903 176.4 154.844C176.523 154.785 176.73 154.742 176.95 154.724C177.169 154.705 177.401 154.717 177.566 154.75C178.135 154.87 178.798 155.445 179.371 155.982C179.611 156.203 179.798 156.705 179.846 157.128C179.961 158.152 179.853 159.201 179.74 160.222C179.271 164.676 178.467 169.773 182.546 172.885C184.257 174.191 186.401 173.051 186.747 171.486C186.899 170.805 186.713 170.035 185.993 169.356C184.067 167.527 184.297 165.017 184.568 162.506C184.863 159.719 185.384 156.889 184.195 154.228C183.016 151.584 179.942 149.713 177.09 149.675C176.221 149.665 175.403 149.857 174.612 150.164C172.902 150.836 171.376 152.089 170.063 153.275C169.471 153.806 168.901 154.356 168.318 154.903C168.026 155.176 167.735 155.449 167.439 155.715C166.868 156.218 166.227 156.661 165.569 156.858C165.616 156.811 165.297 156.822 165.432 156.866C165.281 156.83 165.118 156.791 164.997 156.744C164.454 156.531 164.048 156.235 163.857 156.054C163.678 155.883 163.589 155.744 163.498 155.497C163.266 154.842 163.312 154.822 163.305 154.109C163.267 149.767 166.832 144.388 164.033 140.04C161.858 136.666 157.61 136.061 154.044 137.156C151.601 137.903 149.428 139.263 147.18 140.44C146.655 142.829 149.06 144.561 151.265 143.502C152.746 142.79 154.201 142.136 155.319 141.772Z" fill="#DF56AA"/>
<path d="M134.5 86.8632C130.667 92.0953 124.022 90.4416 118.704 92.4065C118.915 92.3233 123.516 94.7717 126.034 96.1974C130.659 95.3888 135.667 95.7066 138.79 91.43C142.328 86.5895 140.614 79.4927 136.375 75.6927C135.829 75.2041 135.254 74.7724 134.664 74.3521C136.843 78.2129 137.186 83.1884 134.5 86.8632Z" fill="black"/>
<path d="M130.039 53.7003C126.979 58.1439 122.351 59.1092 117.916 61.6358C116.619 62.3696 117.902 62.8641 119.64 63.9013C120.753 64.5673 121.897 65.1631 123.041 65.7589C127.206 63.5592 131.449 62.438 134.321 58.2727C135.119 57.1108 135.531 55.8767 135.646 54.6203C135.867 52.1989 133.734 50.3797 131.352 49.8928C131.256 51.204 130.863 52.4961 130.039 53.7003Z" fill="black"/>
<path d="M113.154 71.2739C114.065 72.797 115.249 74.1441 116.485 75.1576C118.762 77.031 123.208 78.5049 126.584 80.4749C126.602 80.4503 126.614 80.418 126.605 80.3892C125.381 75.9734 117.295 73.9512 113.154 71.2739Z" fill="black"/>
<path d="M114.8 119.9C114.348 121.353 114.927 123.201 116.686 123.797C128.256 127.758 143.274 121.765 137.485 107.626C136.574 105.406 134.801 103.721 132.866 102.366C132.981 102.589 133.103 102.82 133.203 103.054C138.595 116.228 125.912 122.326 114.8 119.9Z" fill="black"/>
<path d="M120.885 104.26C118.692 103.2 116.31 102.171 114.236 100.788C116.394 104.96 121.096 106.85 125.156 108.817C125.415 107.47 124.298 105.908 120.885 104.26Z" fill="black"/>
<path d="M125.237 49.0478C121.737 48.733 118.274 50.0171 115.138 51.6025C111.813 53.2841 109.243 55.2544 107.795 58.7468C106.005 63.0676 109.002 67.9518 112.186 70.5821C112.472 70.8113 112.797 71.0468 113.146 71.2653C117.287 73.9426 125.38 75.9591 126.602 80.3883C126.611 80.417 126.593 80.4416 126.582 80.474C125.886 81.6436 104.743 83.3093 109.5 95.3386C110.445 97.7352 112.19 99.4297 114.234 100.788C116.302 102.164 118.697 103.194 120.882 104.261C124.288 105.914 125.404 107.476 125.146 108.823C124.588 111.737 117.601 113.666 113.327 113.416C109.853 113.208 109.27 118.161 112.383 119.236C113.169 119.502 113.974 119.73 114.787 119.905C125.897 122.345 138.574 116.24 133.182 103.065C133.082 102.831 132.961 102.6 132.845 102.377C131.632 100.034 129.456 98.2997 127.262 96.9451C126.981 96.7714 126.535 96.5172 126.008 96.216C123.496 94.798 118.895 92.3497 118.678 92.4252C123.996 90.4603 130.641 92.114 134.474 86.8819C137.168 83.2014 136.811 78.2239 134.63 74.3763C133.945 73.1619 133.078 72.0558 132.059 71.1446C129.727 69.0507 126.837 67.7309 124.06 66.34C123.705 66.1615 123.375 65.9528 123.02 65.7743C121.876 65.1785 120.74 64.5771 119.619 63.9167C117.881 62.8795 116.59 62.3907 117.895 61.6512C122.317 59.1225 126.95 58.165 130.018 53.7157C130.849 52.5058 131.243 51.2138 131.338 49.9026C129.265 49.4809 127.258 49.2296 125.237 49.0478Z" fill="#A4FDDB"/>
<path d="M156.102 193.581C156.836 189.772 160.852 188.967 163.225 186.545C163.132 186.644 160.018 186.497 158.292 186.37C155.999 187.989 153.21 189.098 152.615 192.209C151.94 195.731 154.681 199.129 157.945 200.1C158.365 200.225 158.786 200.311 159.213 200.387C157.047 198.857 155.589 196.255 156.102 193.581Z" fill="black"/>
<path d="M166.993 210.371C167.511 207.186 169.767 205.481 171.518 202.981C172.032 202.252 171.212 202.313 170.007 202.197C169.235 202.121 168.464 202.091 167.693 202.062C166.004 204.316 163.997 206.007 163.509 208.994C163.374 209.826 163.467 210.598 163.727 211.307C164.226 212.673 165.844 213.111 167.257 212.765C166.973 212.031 166.856 211.232 166.993 210.371Z" fill="black"/>
<path d="M171.627 196.552C170.746 195.962 169.761 195.536 168.834 195.304C167.123 194.874 164.343 195.214 162.014 195.012C162.011 195.03 162.012 195.05 162.025 195.063C163.816 197.138 168.704 196.164 171.627 196.552Z" fill="black"/>
<path d="M158.305 170.683C158.178 169.781 157.393 168.93 156.289 169.058C149.021 169.874 142.434 176.955 149.178 183.119C150.239 184.086 151.629 184.544 153.021 184.782C152.902 184.691 152.777 184.597 152.663 184.496C146.379 178.752 151.677 172.212 158.305 170.683Z" fill="black"/>
<path d="M159.016 180.694C160.472 180.706 162.023 180.653 163.498 180.871C161.265 179.167 158.24 179.348 155.541 179.322C155.746 180.117 156.749 180.676 159.016 180.694Z" fill="black"/>
<path d="M170.779 211.658C172.752 210.933 174.295 209.354 175.586 207.695C176.953 205.935 177.839 204.213 177.729 201.954C177.592 199.161 174.723 197.286 172.329 196.678C172.116 196.628 171.88 196.584 171.635 196.554C168.712 196.166 163.821 197.145 162.027 195.063C162.015 195.049 162.018 195.032 162.016 195.011C162.093 194.201 173.099 187.894 167.451 182.607C166.327 181.553 164.95 181.083 163.498 180.871C162.028 180.656 160.47 180.711 159.016 180.693C156.752 180.67 155.749 180.111 155.544 179.317C155.1 177.599 158.385 174.769 160.76 173.812C162.691 173.036 161.74 170.209 159.782 170.424C159.289 170.481 158.795 170.563 158.311 170.676C151.68 172.198 146.387 178.741 152.671 184.485C152.785 184.586 152.91 184.68 153.029 184.771C154.284 185.727 155.904 186.109 157.437 186.28C157.633 186.302 157.939 186.325 158.301 186.353C160.022 186.478 163.136 186.625 163.234 186.529C160.861 188.951 156.845 189.756 156.111 193.565C155.595 196.243 157.061 198.843 159.224 200.366C159.905 200.847 160.656 201.224 161.441 201.456C163.237 201.992 165.137 201.966 166.994 202.008C167.231 202.014 167.463 202.042 167.7 202.048C168.471 202.078 169.24 202.112 170.014 202.183C171.219 202.299 172.042 202.233 171.526 202.967C169.782 205.465 167.521 207.167 167.001 210.357C166.86 211.224 166.978 212.023 167.262 212.756C168.49 212.454 169.64 212.077 170.779 211.658Z" fill="#A4FDDB"/>
<path d="M119.311 217.224C117.525 217.131 115.782 216.754 114.32 216.157C113.369 215.773 112.384 216.452 112.135 217.272C114.422 217.764 116.995 217.791 119.311 217.224Z" fill="black"/>
<path d="M127.459 148.73C127.114 154.739 121.636 157.302 116.999 159.767C115.935 160.333 114.845 160.915 113.928 161.697C113.553 162.017 113.186 162.541 113.132 162.909C112.988 163.816 112.87 164.836 113.122 165.466C113.265 165.833 113.701 166.38 113.976 166.535C117.564 168.643 122.471 168.275 126.186 170.797C130.012 173.391 130.209 179.96 126.862 183.029C124.558 185.143 121.747 186.252 118.846 187.312C117.451 187.819 116.025 188.303 114.698 188.977C114.639 189.003 113.828 189.503 113.529 189.75C113.508 189.771 112.907 190.499 113.04 190.245C112.719 190.871 112.575 192.126 113.024 193.166C113.4 194.034 114.189 194.871 115.113 195.587C117.554 197.489 120.423 198.724 123.067 200.314C125.716 201.91 128.563 203.84 129.723 206.856C131.052 210.307 130.89 214.612 128.333 217.475C126.468 219.574 123.991 220.898 121.31 221.523C125.62 221.722 129.993 220.333 132.888 217.08C135.439 214.211 135.606 209.912 134.277 206.46C133.118 203.444 130.271 201.514 127.622 199.918C124.989 198.329 122.109 197.093 119.673 195.196C118.743 194.475 117.955 193.638 117.584 192.776C117.135 191.735 117.284 190.475 117.6 189.854C117.467 190.109 118.073 189.375 118.089 189.359C118.393 189.118 119.204 188.618 119.258 188.587C120.585 187.913 122.011 187.428 123.405 186.921C126.307 185.872 129.124 184.758 131.427 182.645C134.774 179.575 134.577 173.006 130.751 170.412C127.037 167.89 122.124 168.253 118.542 166.15C118.266 165.985 117.836 165.442 117.692 165.076C117.441 164.446 117.564 163.421 117.702 162.519C117.762 162.145 118.124 161.627 118.498 161.306C119.415 160.524 120.511 159.938 121.569 159.377C126.206 156.912 131.68 154.343 132.03 148.34C132.218 145.063 127.91 143.788 126.631 146.394C127.168 146.959 127.513 147.752 127.459 148.73Z" fill="black"/>
<path d="M128.33 217.481C130.881 214.612 131.048 210.313 129.719 206.861C128.56 203.845 125.713 201.915 123.064 200.32C120.425 198.724 117.551 197.494 115.11 195.592C114.18 194.871 113.391 194.034 113.02 193.171C112.572 192.131 112.721 190.871 113.036 190.25C112.904 190.505 113.51 189.771 113.526 189.755C113.83 189.514 114.641 189.014 114.695 188.982C116.022 188.309 117.443 187.818 118.842 187.317C121.744 186.268 124.561 185.153 126.859 183.035C130.205 179.965 130.003 173.402 126.183 170.802C122.468 168.28 117.561 168.648 113.973 166.54C113.698 166.375 113.268 165.833 113.118 165.472C112.867 164.842 112.991 163.816 113.129 162.914C113.188 162.541 113.55 162.022 113.924 161.702C114.842 160.92 115.937 160.333 116.995 159.773C121.632 157.308 127.106 154.739 127.456 148.735C127.51 147.757 127.164 146.965 126.617 146.389C125.15 144.839 122.222 144.936 121.759 147.7C121.248 150.763 118.651 152.191 116.043 153.577C113.139 155.124 110.051 156.469 108.243 159.366C106.451 162.248 106.654 166.462 108.481 169.253C110.245 171.947 113.653 172.988 116.594 173.71C117.953 174.049 119.33 174.307 120.683 174.661C121.551 174.884 122.397 175.213 123.02 175.727C122.94 175.709 123.165 176.018 123.119 175.851C123.186 176.018 123.253 176.207 123.288 176.352C123.437 177.018 123.417 177.606 123.364 177.91C123.316 178.198 123.238 178.379 123.063 178.622C122.581 179.278 122.528 179.245 121.846 179.715C117.657 182.6 110.085 182.673 107.703 188.241C105.855 192.566 108.054 197.092 111.455 199.845C114.829 202.57 119.067 203.892 122.551 206.438C125.359 208.48 126.583 212.727 123.298 215.349C122.175 216.245 120.801 216.848 119.313 217.214C116.997 217.781 114.424 217.755 112.142 217.268C111.305 217.088 110.501 216.845 109.762 216.549C108.247 215.93 106.623 218.038 108.115 219.079C108.623 219.43 109.158 219.744 109.71 220.031C112.249 220.817 114.823 221.443 117.421 221.94C118.737 221.951 120.05 221.818 121.323 221.523C123.987 220.903 126.465 219.569 128.33 217.481Z" fill="#FDF193"/>
<path d="M220.316 129.277C220.244 130.369 219.999 131.433 219.621 132.323C219.377 132.902 219.785 133.51 220.285 133.67C220.606 132.274 220.644 130.699 220.316 129.277Z" fill="black"/>
<path d="M178.457 123.707C182.132 123.969 183.655 127.345 185.125 130.204C185.462 130.86 185.809 131.532 186.28 132.101C186.472 132.333 186.79 132.562 187.015 132.598C187.569 132.694 188.192 132.775 188.58 132.626C188.806 132.541 189.145 132.279 189.241 132.112C190.563 129.934 190.379 126.927 191.955 124.674C193.575 122.354 197.598 122.29 199.448 124.364C200.722 125.793 201.377 127.523 202.001 129.308C202.3 130.166 202.584 131.043 202.985 131.861C203.001 131.898 203.3 132.398 203.448 132.583C203.461 132.596 203.902 132.97 203.747 132.887C204.128 133.089 204.895 133.187 205.535 132.922C206.07 132.699 206.589 132.223 207.035 131.663C208.22 130.185 209.001 128.439 209.996 126.835C210.996 125.227 212.201 123.5 214.057 122.816C216.181 122.032 218.815 122.168 220.546 123.757C221.815 124.916 222.604 126.444 222.964 128.091C223.123 125.454 222.31 122.766 220.343 120.966C218.608 119.38 215.978 119.241 213.854 120.025C211.998 120.709 210.792 122.435 209.793 124.043C208.797 125.641 208.017 127.394 206.835 128.868C206.385 129.432 205.866 129.907 205.335 130.127C204.695 130.393 203.924 130.291 203.547 130.092C203.702 130.176 203.258 129.798 203.248 129.788C203.103 129.6 202.804 129.1 202.785 129.067C202.384 128.248 202.099 127.371 201.801 126.513C201.184 124.729 200.525 122.995 199.251 121.567C197.401 119.492 193.378 119.556 191.758 121.876C190.182 124.129 190.362 127.139 189.045 129.314C188.941 129.481 188.606 129.74 188.38 129.825C187.992 129.974 187.366 129.889 186.815 129.797C186.587 129.757 186.272 129.531 186.08 129.299C185.609 128.731 185.259 128.055 184.925 127.403C183.455 124.544 181.929 121.171 178.257 120.906C176.253 120.763 175.436 123.389 177.02 124.194C177.371 123.871 177.859 123.666 178.457 123.707Z" fill="black"/>
<path d="M220.55 123.758C218.816 122.172 216.186 122.033 214.061 122.817C212.206 123.501 211 125.227 210.001 126.835C209.002 128.437 208.224 130.186 207.039 131.664C206.589 132.227 206.07 132.703 205.539 132.923C204.899 133.188 204.129 133.086 203.751 132.888C203.906 132.971 203.462 132.594 203.452 132.584C203.307 132.396 203.008 131.895 202.989 131.862C202.588 131.044 202.3 130.17 202.005 129.309C201.388 127.524 200.73 125.79 199.452 124.365C197.602 122.291 193.582 122.358 191.959 124.675C190.383 126.927 190.567 129.935 189.246 132.113C189.142 132.28 188.807 132.539 188.584 132.627C188.196 132.776 187.57 132.691 187.019 132.599C186.791 132.559 186.477 132.333 186.284 132.101C185.813 131.533 185.463 130.857 185.129 130.205C183.659 127.346 182.133 123.973 178.461 123.708C177.863 123.667 177.375 123.871 177.018 124.201C176.057 125.086 176.091 126.88 177.779 127.187C179.65 127.525 180.502 129.127 181.328 130.735C182.25 132.526 183.048 134.428 184.806 135.559C186.554 136.681 189.136 136.592 190.86 135.498C192.524 134.441 193.19 132.364 193.657 130.569C193.876 129.74 194.045 128.9 194.274 128.075C194.418 127.545 194.626 127.03 194.946 126.653C194.935 126.702 195.126 126.567 195.023 126.593C195.126 126.554 195.242 126.515 195.331 126.495C195.74 126.409 196.1 126.426 196.285 126.461C196.461 126.493 196.571 126.542 196.719 126.651C197.116 126.952 197.095 126.984 197.377 127.405C199.108 129.994 199.088 134.63 202.476 136.136C205.108 137.304 207.897 135.996 209.611 133.938C211.308 131.895 212.153 129.313 213.741 127.201C215.015 125.5 217.626 124.787 219.202 126.82C219.741 127.515 220.099 128.361 220.311 129.275C220.638 130.698 220.6 132.273 220.282 133.665C220.165 134.176 220.009 134.666 219.822 135.116C219.43 136.038 220.707 137.05 221.357 136.146C221.576 135.838 221.772 135.513 221.953 135.178C222.456 133.63 222.86 132.06 223.187 130.474C223.205 129.668 223.135 128.863 222.965 128.081C222.608 126.445 221.813 124.917 220.55 123.758Z" fill="#FDF193"/>
<path d="M147.861 118.649C148.726 120 150.275 120.835 151.866 120.623C152.022 120.602 152.169 120.581 152.301 120.561L152.313 120.561C152.086 120.519 151.401 120.387 152.187 120.522C149.669 120.091 148.291 117.297 150.306 115.315C153.693 111.99 159.578 111.936 163.705 110.265C164.281 110.026 164.862 109.792 165.412 109.506C165.535 109.438 166.446 108.87 166.43 108.936C166.499 108.863 166.586 108.772 166.655 108.687C166.661 108.681 166.655 108.676 166.66 108.669C166.648 108.646 166.642 108.64 166.635 108.623C166.618 108.617 166.564 108.589 166.437 108.503C165.708 108.005 164.944 107.579 164.198 107.123C161.936 105.767 159.925 103.99 159.185 101.376C158.543 99.0972 158.82 96.0849 159.584 93.861C161.023 89.6644 164.361 87.0104 168.566 85.8648C170.033 85.4676 171.527 85.2356 173.029 85.0805C173.987 84.9861 174.945 84.9035 175.904 84.8209C176.264 84.7944 176.625 84.756 176.986 84.7294C177.092 84.715 177.146 84.7196 177.211 84.7121C177.258 84.7109 177.282 84.7103 177.347 84.7028C178.802 84.5608 180.274 84.4123 181.694 84.0399C181.942 83.9746 182.183 83.9035 182.43 83.8264C182.553 83.7819 182.683 83.7313 182.729 83.7065C182.987 83.5816 183.245 83.4568 183.49 83.3086C183.514 83.2843 183.525 83.2721 183.56 83.2357C183.67 83.1323 183.746 83.0771 183.804 83.0282C183.815 83.0043 183.815 83.0043 183.832 82.9742C183.895 82.8719 184.008 82.6439 184.058 82.53C184.119 82.3566 184.186 82.189 184.23 82.0219C184.188 82.017 184.153 81.7867 184.263 81.9144C184.262 81.9026 184.274 81.8905 184.274 81.8786C184.274 81.8786 184.279 81.8725 184.273 81.8668C184.243 81.8379 184.225 81.8205 184.188 81.774C183.53 81.043 183.5 81.0141 182.8 80.4976C179.546 78.0928 175.58 76.144 173.401 72.5867C171.308 69.1815 171.519 62.7383 175.549 60.7315C175.854 60.5818 176.154 60.4856 176.459 60.3833C174.538 60.1039 172.627 60.02 170.747 60.949C166.711 62.9501 166.506 69.399 168.598 72.8043C170.783 76.3555 174.749 78.3043 178.003 80.7091C178.709 81.2314 178.733 81.2545 179.398 81.9912C179.434 82.0378 179.458 82.049 179.483 82.084L179.483 82.0722C179.489 82.0779 179.477 82.0782 179.483 82.084C179.489 82.0898 179.489 82.1016 179.496 82.1193C179.496 82.1311 179.496 82.1548 179.497 82.1667C179.491 82.1609 179.484 82.1433 179.478 82.1375C179.478 82.1256 179.483 82.1077 179.477 82.1019C179.478 82.1138 179.472 82.1198 179.466 82.1378C179.357 82.01 179.392 82.2522 179.433 82.2453C179.396 82.4181 179.323 82.5799 179.262 82.7533C179.2 82.8675 179.093 83.1013 179.03 83.2036C179.019 83.2276 179.013 83.2336 179.002 83.2576C178.949 83.3004 178.874 83.3674 178.763 83.4591C178.729 83.4955 178.723 83.5015 178.694 83.5319C178.455 83.6859 178.191 83.805 177.933 83.9298C177.874 83.9549 177.745 84.0055 177.634 84.0497C177.386 84.1268 177.145 84.1979 176.898 84.2632C175.478 84.6356 174.006 84.7841 172.551 84.9262C172.486 84.9337 172.462 84.9342 172.415 84.9354C172.355 84.9368 172.302 84.9441 172.196 84.9585C171.835 84.9851 171.474 85.0235 171.113 85.05C170.155 85.1326 169.196 85.2152 168.238 85.3096C166.736 85.4647 165.236 85.6909 163.776 86.0939C159.571 87.2395 156.233 89.8935 154.793 94.0901C154.029 96.314 153.753 99.3263 154.395 101.605C155.135 104.231 157.152 106.002 159.402 107.358C160.154 107.808 160.923 108.24 161.641 108.738C161.767 108.824 161.815 108.847 161.839 108.858C161.845 108.864 161.852 108.881 161.864 108.905C161.858 108.911 161.859 108.923 161.859 108.923C161.784 109.013 161.703 109.098 161.634 109.171C161.667 109.099 160.739 109.673 160.616 109.741C160.066 110.027 159.484 110.261 158.903 110.494C156.08 111.642 152.426 112.034 149.319 113.236C147.114 114.088 146.587 116.658 147.861 118.649ZM179.484 81.8883C179.486 81.9594 179.486 81.9831 179.487 82.0305L179.481 82.0248C179.486 81.9831 179.491 81.9534 179.484 81.8883ZM179.534 82.2369C179.54 82.2308 179.54 82.2308 179.539 82.219C179.558 82.26 179.571 82.2834 179.596 82.3421C179.577 82.2892 179.552 82.2661 179.534 82.2369Z" fill="black"/>
<path d="M192.157 58.8748C193.443 58.144 194.955 57.1765 195.269 55.6809C195.391 55.1029 194.636 53.8052 193.635 53.1181C191.736 51.8186 189.538 51.1369 187.298 50.6697C185.427 50.2765 185.378 48.0072 186.47 46.8602C185.362 46.6264 184.285 46.4806 183.312 46.4213C180.788 46.2633 179.921 50.3452 182.495 50.8873C184.73 51.3606 186.934 52.0361 188.833 53.3357C189.834 54.0227 190.589 55.3204 190.466 55.8984C190.147 57.3882 188.641 58.3615 187.355 59.0923C186.278 59.6994 185.153 60.2366 184.006 60.6024C184.714 60.7097 185.428 60.7991 186.14 60.8173C188.198 60.8799 190.251 59.9526 192.157 58.8748Z" fill="black"/>
<path d="M173.41 72.5936C175.595 76.1448 179.561 78.0936 182.808 80.5045C183.515 81.0268 183.539 81.0499 184.197 81.7809C184.234 81.8274 184.258 81.8387 184.282 81.8737L184.282 81.8618C184.288 81.8676 184.282 81.8618 184.282 81.8737C184.288 81.8794 184.289 81.8913 184.295 81.8971C184.295 81.9089 184.296 81.9326 184.296 81.9445C184.29 81.9387 184.283 81.9211 184.277 81.9153C184.277 81.9034 184.277 81.8797 184.282 81.8737C184.283 81.8855 184.277 81.8916 184.271 81.9095C184.162 81.7818 184.197 82.0121 184.238 82.017C184.195 82.1959 184.128 82.3635 184.067 82.5251C184.005 82.6392 183.898 82.873 183.841 82.9693C183.829 82.9932 183.824 82.9993 183.812 83.0233C183.76 83.0661 183.685 83.1331 183.568 83.2308C183.534 83.2672 183.522 83.2793 183.499 83.3036C183.254 83.4519 182.996 83.5767 182.738 83.7015C182.679 83.7267 182.55 83.7772 182.439 83.8214C182.191 83.8986 181.95 83.9697 181.703 84.035C180.283 84.4074 178.805 84.5619 177.356 84.6979C177.291 84.7054 177.267 84.706 177.22 84.7071C177.16 84.7086 177.107 84.7158 176.995 84.7245C176.634 84.751 176.273 84.7894 175.912 84.816C174.954 84.8986 173.995 84.9812 173.037 85.0756C171.529 85.2249 170.035 85.4568 168.575 85.8599C164.37 87.0055 161.032 89.6595 159.592 93.8561C158.828 96.0799 158.552 99.0922 159.194 101.371C159.934 103.997 161.951 105.768 164.207 107.118C164.959 107.568 165.722 107.994 166.446 108.498C166.572 108.584 166.62 108.606 166.644 108.618C166.65 108.624 166.657 108.641 166.669 108.665C166.663 108.671 166.669 108.676 166.663 108.682C166.589 108.773 166.508 108.858 166.438 108.931C166.454 108.865 165.543 109.433 165.421 109.501C164.87 109.787 164.289 110.021 163.714 110.26C159.593 111.937 153.702 111.985 150.315 115.31C148.3 117.292 149.672 120.092 152.196 120.517C151.41 120.382 152.101 120.508 152.321 120.556C152.339 120.561 152.369 120.566 152.381 120.566C153.299 120.769 153.69 120.748 154.624 120.654C155.458 120.568 156.291 120.459 157.118 120.332C159.315 120.006 161.458 119.385 163.577 118.752C167.584 117.546 172.324 115.961 174.187 111.867C176.162 107.533 173.571 103.351 169.935 101.08C169.291 100.675 168.624 100.306 167.985 99.9062C167.745 99.758 167.521 99.5915 167.298 99.425C167.382 99.4704 167.255 99.349 167.109 99.2102C167.102 99.1808 167.102 99.1571 167.101 99.1215C167.101 99.1097 167.101 99.1097 167.095 99.1039C167.065 98.8793 167.03 98.6253 167.028 98.5542C167.035 98.1094 167.077 97.6638 167.126 97.2239C167.131 97.1704 167.136 97.1407 167.141 97.099C167.2 96.8545 167.265 96.6158 167.342 96.3768C167.364 96.3051 167.51 95.9696 167.572 95.8081C167.691 95.6095 167.805 95.4052 167.942 95.2122C167.954 95.1882 167.96 95.1821 167.977 95.1639C168.012 95.1275 168.035 95.1151 168.087 95.0605C168.243 94.8966 168.418 94.7619 168.598 94.6212C168.442 94.7969 169.545 94.0883 169.827 93.9629C169.886 93.9378 169.909 93.9254 169.95 93.9066C169.985 93.8939 170.003 93.8875 170.062 93.8742C170.485 93.7335 170.921 93.6281 171.358 93.5226C174.245 92.824 177.249 92.7569 180.187 92.4068C183.279 92.0412 186.217 91.205 188.713 89.277C191.331 87.257 192.933 82.9023 191.866 79.733C189.993 74.1645 183.437 72.6878 180.02 68.9353C179.685 68.57 179.869 68.8263 179.544 68.1347C179.663 68.3986 179.701 68.2731 179.701 68.0182C179.701 67.7989 179.676 67.4972 179.658 67.2368C181.277 67.2626 182.904 67.5965 184.527 67.8001C185.11 67.869 185.692 67.9259 186.273 67.9237C192.622 67.9294 200.562 63.1538 201.324 56.4246C202.12 49.4159 193.513 46.5307 188.116 46.2054C187.427 46.1629 186.877 46.4371 186.472 46.8619C185.385 48.0028 185.429 50.2782 187.3 50.6714C189.54 51.1386 191.738 51.8202 193.637 53.1198C194.638 53.8068 195.393 55.1045 195.271 55.6825C194.957 57.1781 193.445 58.1456 192.159 58.8764C190.253 59.9543 188.212 60.8813 186.148 60.8247C185.436 60.8065 184.722 60.7171 184.014 60.6098C181.474 60.227 178.95 59.571 176.474 60.396C176.169 60.4983 175.863 60.5887 175.564 60.7442C171.528 62.7452 171.311 69.1944 173.41 72.5936ZM184.295 81.6659C184.297 81.737 184.297 81.7607 184.299 81.8081L184.292 81.8023C184.292 81.7667 184.291 81.7312 184.295 81.6659ZM184.339 82.0086C184.345 82.0026 184.345 82.0026 184.344 81.9907C184.363 82.0318 184.376 82.0552 184.407 82.1196C184.376 82.067 184.364 82.0436 184.339 82.0086Z" fill="#8CCCFF"/>
<path d="M87.4668 89.283C86.6927 89.0705 85.8377 89.2791 85.3176 89.8906C85.2663 89.9509 85.2188 90.0077 85.1766 90.0594L85.1723 90.0634C85.2704 90.0032 85.569 89.8227 85.2317 90.0357C86.3118 89.3525 87.7597 89.9293 87.6746 91.3404C87.5295 93.7104 85.3607 95.7016 84.3868 97.7048C84.2533 97.9864 84.1155 98.2678 84.0068 98.5584C83.984 98.6249 83.8355 99.1409 83.8196 99.1111C83.8182 99.1614 83.8164 99.2242 83.8191 99.2788C83.819 99.283 83.8232 99.2831 83.8231 99.2873C83.8356 99.2919 83.8397 99.292 83.848 99.2964C83.8565 99.2924 83.8861 99.2849 83.9619 99.2744C84.3997 99.2151 84.826 99.1179 85.2561 99.0374C86.5507 98.7837 87.8933 98.7705 89.0435 99.4943C90.0453 100.126 90.9514 101.338 91.4123 102.42C92.283 104.462 91.9313 106.566 90.7524 108.4C90.3406 109.039 89.863 109.625 89.3568 110.186C89.0324 110.542 88.7039 110.893 88.3755 111.245C88.2502 111.376 88.129 111.511 88.0038 111.642C87.9691 111.683 87.9477 111.699 87.926 111.723C87.9088 111.74 87.9002 111.748 87.8786 111.773C87.3855 112.313 86.888 112.861 86.4852 113.475C86.4152 113.582 86.3493 113.689 86.2833 113.801C86.2523 113.858 86.2213 113.92 86.2122 113.945C86.1582 114.078 86.1042 114.211 86.0627 114.348C86.0622 114.365 86.062 114.373 86.0613 114.398C86.055 114.474 86.0453 114.52 86.0401 114.557C86.044 114.57 86.044 114.57 86.0477 114.587C86.0586 114.646 86.093 114.768 86.1123 114.828C86.1478 114.912 86.179 114.997 86.2188 115.074C86.2359 115.062 86.3262 115.135 86.2426 115.125C86.2466 115.129 86.2464 115.137 86.2505 115.142C86.2505 115.142 86.2504 115.146 86.2546 115.146C86.2755 115.147 86.2881 115.147 86.3173 115.152C86.8066 115.203 86.8276 115.204 87.2608 115.161C89.2753 114.965 91.4017 114.361 93.4028 114.953C95.3209 115.518 97.4004 117.983 96.575 120.078C96.5119 120.236 96.4327 120.372 96.3533 120.512C97.1609 119.973 97.8991 119.364 98.2868 118.389C99.1163 116.294 97.0326 113.829 95.1146 113.264C93.1133 112.676 90.9869 113.28 88.9724 113.476C88.535 113.519 88.5183 113.518 88.0248 113.467C87.9955 113.462 87.9828 113.466 87.962 113.461L87.9661 113.465C87.9619 113.465 87.9662 113.461 87.962 113.461C87.9578 113.461 87.9537 113.457 87.9455 113.452C87.9414 113.448 87.9332 113.439 87.9292 113.435C87.9334 113.435 87.9416 113.439 87.9458 113.44C87.9499 113.444 87.9539 113.452 87.958 113.452C87.954 113.448 87.9541 113.444 87.9501 113.435C88.0337 113.446 87.9394 113.368 87.9264 113.384C87.8823 113.308 87.8553 113.223 87.8199 113.138C87.8049 113.075 87.7663 112.952 87.7554 112.893C87.7515 112.881 87.7516 112.876 87.7478 112.864C87.7529 112.83 87.7585 112.78 87.7688 112.709C87.7695 112.684 87.7696 112.68 87.7702 112.659C87.8076 112.521 87.8658 112.389 87.9197 112.256C87.9331 112.227 87.9642 112.165 87.9908 112.111C88.0568 112 88.1227 111.892 88.1928 111.785C88.5956 111.172 89.0931 110.623 89.5861 110.083C89.6078 110.059 89.6164 110.05 89.6336 110.034C89.6551 110.014 89.6725 109.993 89.7072 109.952C89.8324 109.822 89.9536 109.686 90.0788 109.556C90.4073 109.204 90.7358 108.852 91.0602 108.496C91.5664 107.936 92.0481 107.349 92.4558 106.71C93.6347 104.876 93.9863 102.772 93.1157 100.731C92.6548 99.6484 91.7487 98.4364 90.7469 97.8048C89.5926 97.0767 88.2499 97.0942 86.9596 97.3438C86.5294 97.4284 86.0989 97.5256 85.6654 97.5807C85.5896 97.5912 85.5642 97.5989 85.5515 97.6027C85.5473 97.6026 85.539 97.5982 85.5266 97.5937C85.5267 97.5895 85.5226 97.5852 85.5226 97.5852C85.52 97.5264 85.5217 97.4677 85.5231 97.4174C85.5346 97.4555 85.6875 96.9312 85.7103 96.8647C85.8189 96.5741 85.9567 96.2927 86.0945 96.0113C86.7589 94.6392 87.9858 93.2699 88.738 91.7827C89.2718 90.7274 88.6072 89.596 87.4668 89.283ZM88.0271 113.534C88.0026 113.508 87.9945 113.5 87.9782 113.482L87.9824 113.482C87.9945 113.5 88.0025 113.512 88.0271 113.534ZM87.8918 113.421C87.8917 113.425 87.8917 113.425 87.8958 113.43C87.875 113.421 87.8626 113.416 87.8336 113.403C87.8584 113.416 87.8751 113.417 87.8918 113.421Z" fill="black"/>
<path d="M91.0265 126.33C90.7932 127.033 90.5554 127.898 90.9399 128.559C91.088 128.815 91.8031 129.044 92.4051 128.964C93.546 128.811 94.5911 128.329 95.5801 127.752C96.4071 127.271 97.1854 128.098 97.1635 128.89C97.6537 128.606 98.1026 128.3 98.4843 127.996C99.4748 127.209 98.43 125.402 97.2919 126.063C96.303 126.635 95.2577 127.122 94.1168 127.275C93.5148 127.355 92.7998 127.126 92.6516 126.87C92.2714 126.209 92.505 125.343 92.7383 124.641C92.9348 124.055 93.173 123.479 93.4767 122.958C93.1777 123.156 92.8826 123.361 92.612 123.593C91.826 124.259 91.374 125.291 91.0265 126.33Z" fill="black"/>
<path d="M93.3967 114.953C91.3954 114.366 89.269 114.97 87.2546 115.161C86.8172 115.204 86.8004 115.203 86.3111 115.152C86.2819 115.147 86.2692 115.151 86.2484 115.146L86.2524 115.151C86.2483 115.15 86.2524 115.151 86.2484 115.146C86.2442 115.146 86.2401 115.142 86.2359 115.142C86.2318 115.137 86.2237 115.129 86.2196 115.125C86.2238 115.125 86.2321 115.129 86.2363 115.129C86.2403 115.133 86.2485 115.142 86.2484 115.146C86.2443 115.142 86.2444 115.138 86.2404 115.129C86.324 115.14 86.2338 115.066 86.2167 115.078C86.1728 114.997 86.1416 114.913 86.1102 114.832C86.0952 114.769 86.0566 114.646 86.0456 114.591C86.0417 114.579 86.0418 114.574 86.038 114.562C86.0431 114.528 86.0487 114.478 86.0592 114.403C86.0599 114.378 86.0601 114.369 86.0605 114.353C86.1021 114.215 86.1561 114.083 86.2101 113.95C86.2235 113.921 86.2545 113.859 86.2812 113.805C86.3472 113.694 86.413 113.586 86.4831 113.479C86.8859 112.865 87.3835 112.313 87.8764 111.777C87.8981 111.752 87.9067 111.744 87.9239 111.728C87.9455 111.708 87.9628 111.687 88.0017 111.646C88.1269 111.515 88.2481 111.38 88.3733 111.25C88.7018 110.898 89.0303 110.546 89.3547 110.19C89.8651 109.63 90.3426 109.043 90.7503 108.404C91.9292 106.57 92.2808 104.466 91.4102 102.425C90.9493 101.342 90.0432 100.13 89.0414 99.4987C87.8871 98.7706 86.5444 98.7881 85.2539 99.0419C84.8238 99.1265 84.3975 99.2238 83.9597 99.2789C83.884 99.2894 83.8586 99.297 83.8459 99.3009C83.8417 99.3008 83.8334 99.2964 83.821 99.2918C83.8211 99.2876 83.8169 99.2875 83.817 99.2833C83.8144 99.2245 83.8161 99.1658 83.8175 99.1156C83.8334 99.1454 83.9819 98.6294 84.0047 98.5629C84.1133 98.2723 84.2511 97.9908 84.3847 97.7093C85.3544 95.706 87.5274 93.7149 87.6725 91.3449C87.7576 89.9338 86.3098 89.3528 85.2296 90.0402C85.5669 89.8272 85.2682 90.0119 85.1701 90.0679C85.1616 90.0719 85.1488 90.0799 85.1445 90.084C84.7355 90.316 84.5974 90.4548 84.2817 90.8026C84.0004 91.1136 83.7274 91.4332 83.4626 91.7573C82.7553 92.6144 82.1671 93.5629 81.5915 94.5075C80.5062 96.2979 79.2759 98.4744 79.9549 100.62C80.6724 102.892 83.0359 103.578 85.1475 103.204C85.5226 103.139 85.8941 103.053 86.265 102.987C86.4041 102.962 86.5429 102.949 86.6817 102.936C86.6352 102.947 86.7232 102.95 86.8238 102.952C86.8362 102.961 86.8443 102.97 86.8565 102.983C86.8606 102.987 86.8606 102.987 86.8648 102.987C86.9509 103.061 87.0492 103.143 87.0737 103.169C87.2201 103.337 87.3535 103.516 87.4828 103.696C87.499 103.718 87.507 103.73 87.5191 103.748C87.579 103.858 87.6346 103.969 87.686 104.084C87.7018 104.118 87.76 104.291 87.7913 104.372C87.8133 104.485 87.8395 104.599 87.8531 104.717C87.8569 104.73 87.8568 104.734 87.8565 104.747C87.8558 104.772 87.8512 104.784 87.8502 104.822C87.8471 104.935 87.8273 105.044 87.8074 105.156C87.8065 105.039 87.6338 105.672 87.5712 105.813C87.5578 105.842 87.5533 105.854 87.5443 105.875C87.5355 105.891 87.5311 105.9 87.5136 105.924C87.4034 106.118 87.2766 106.304 87.1499 106.489C86.3107 107.716 85.2169 108.747 84.2425 109.861C83.2161 111.032 82.4044 112.327 82.1225 113.879C81.826 115.507 82.6893 117.661 84.1473 118.482C86.708 119.924 89.6391 118.277 92.1656 118.527C92.4124 118.55 92.2582 118.517 92.6106 118.665C92.478 118.606 92.5057 118.666 92.5912 118.761C92.6644 118.842 92.7748 118.946 92.8688 119.037C92.2585 119.569 91.5422 119.99 90.8708 120.458C90.6313 120.628 90.3958 120.801 90.1807 120.997C87.8194 123.121 86.4681 127.555 88.4389 130.311C90.4905 133.182 94.6551 131.371 96.7694 129.685C97.0396 129.47 97.1523 129.184 97.1604 128.89C97.1821 128.102 96.4039 127.271 95.577 127.752C94.588 128.328 93.5429 128.811 92.402 128.964C91.8 129.044 91.0849 128.815 90.9368 128.559C90.5523 127.898 90.7901 127.032 91.0234 126.33C91.3708 125.291 91.8186 124.263 92.6047 123.593C92.8753 123.361 93.1704 123.155 93.4694 122.958C94.5418 122.25 95.6992 121.648 96.3429 120.512C96.4223 120.372 96.5057 120.236 96.5646 120.078C97.3942 117.983 95.3148 115.514 93.3967 114.953ZM86.3132 115.228C86.2888 115.202 86.2806 115.193 86.2643 115.176L86.2685 115.176C86.2807 115.189 86.293 115.202 86.3132 115.228ZM86.1821 115.115C86.182 115.119 86.182 115.119 86.1861 115.124C86.1654 115.115 86.1529 115.11 86.1197 115.097C86.1488 115.106 86.1613 115.11 86.1821 115.115Z" fill="#8CCCFF"/>
</svg>
