<svg width="128" height="128" viewBox="0 0 128 128" fill="none" xmlns="http://www.w3.org/2000/svg">
<path fill-rule="evenodd" clip-rule="evenodd" d="M27.7008 49.1499C29.1082 47.8609 30.8939 47.0653 32.8566 47.0038C35.3632 46.9254 37.6572 48.0601 39.2884 49.9335C39.6224 49.8167 39.9683 49.7224 40.3248 49.6524C44.6537 48.8032 48.9067 51.8748 49.8242 56.513C50.2993 58.9146 49.787 61.2653 48.5814 63.0919C49.4364 65.1916 49.9073 67.4873 49.9073 69.8925C49.9073 79.893 41.7666 88 31.7245 88C21.6946 88 13.5614 79.9127 13.5417 69.9289C10.8992 68.1581 9.46522 64.7496 10.1851 61.2469C10.8252 58.1326 13.0016 55.7531 15.6753 54.8458C16.0122 53.3292 16.8033 51.846 18.0353 50.6192C20.804 47.8619 24.8725 47.3224 27.7008 49.1499Z" fill="url(#paint0_radial)"/>
<path fill-rule="evenodd" clip-rule="evenodd" d="M33.0024 50.6071C34.2471 50.5681 35.5014 51.1197 36.4897 52.2554L38.1896 54.2087L40.6379 53.3521C40.8038 53.294 40.9768 53.2467 41.1569 53.2114C43.2042 52.8096 45.691 54.258 46.2613 57.1421C46.5477 58.5906 46.2293 59.95 45.5623 60.9609L44.462 62.6288L45.2148 64.4784C45.8961 66.1521 46.2732 67.9853 46.2732 69.9156C46.2732 77.9123 39.7664 84.395 31.74 84.395C23.7233 84.395 17.2226 77.928 17.2068 69.9448L17.2028 67.9251L15.5209 66.7975C14.2003 65.9122 13.3101 64.0511 13.7419 61.9492C14.1239 60.0899 15.3937 58.792 16.7744 58.3232L18.8062 57.6335L19.2699 55.5454C19.4518 54.7263 19.8911 53.8754 20.6238 53.1454C22.3382 51.4373 24.4779 51.4364 25.602 52.163L28.0847 53.7679L30.263 51.7719C31.0697 51.0328 32.0157 50.638 33.0024 50.6071ZM40.5221 45.6159C38.3914 43.9296 35.7078 42.9135 32.7626 43.0058C30.7438 43.069 28.8708 43.6474 27.2399 44.595C23.1196 43.2841 18.424 44.5819 15.2263 47.7678C13.9882 49.0013 13.0473 50.4325 12.4258 51.9568C9.33741 53.6556 7.02531 56.7168 6.26366 60.4242C5.38948 64.6794 6.73204 68.9714 9.65367 71.8068C10.6166 83.1185 20.1372 92 31.74 92C43.9822 92 53.9065 82.1125 53.9065 69.9156C53.9065 67.6381 53.5592 65.4357 52.9129 63.3613C53.947 61.0354 54.2817 58.3581 53.7507 55.6722C52.523 49.4632 46.876 44.8396 40.5221 45.6159Z" fill="black"/>
<path fill-rule="evenodd" clip-rule="evenodd" d="M14.0963 65.576L12.4675 65.9583L11.708 63.1519L9.06267 66L0 58.7001L11.5048 56L12.5131 59.7261L14.6404 57.4357L16 58.5309L13.0494 61.7077L14.0963 65.576Z" fill="black"/>
<path fill-rule="evenodd" clip-rule="evenodd" d="M18.9352 54.8413L18.5012 54.622L19.8764 51.7397L16.012 52.4993L13.2765 40.5958L23.3131 45.6653L21.2845 49.9172L25.7081 49.0477L26.0479 50.5265L20.4707 51.6229L18.9352 54.8413Z" fill="black"/>
<path fill-rule="evenodd" clip-rule="evenodd" d="M36.6921 52.6338L37.6491 51.2614L35.3215 49.5197L38.9457 48.1128L35.5094 36.9967L28.7497 46.6909L31.8401 49.0033L28.9256 50.1346L29.4412 51.8023L33.4837 50.2331L36.6921 52.6338Z" fill="black"/>
<path fill-rule="evenodd" clip-rule="evenodd" d="M45.8615 57.9688L47.4845 57.5622L46.8727 54.7202L50.53 56.0392L55.2381 45.3995L43.774 48.2714L44.5862 52.0447L41.6452 50.984L40.9389 52.5802L45.0182 54.0514L45.8615 57.9688Z" fill="black"/>
<path fill-rule="evenodd" clip-rule="evenodd" d="M100.299 49.1499C98.8918 47.8609 97.1061 47.0653 95.1434 47.0038C92.6368 46.9254 90.3428 48.0601 88.7116 49.9335C88.3776 49.8167 88.0317 49.7224 87.6752 49.6524C83.3463 48.8032 79.0933 51.8748 78.1758 56.513C77.7007 58.9146 78.213 61.2653 79.4186 63.0919C78.5636 65.1916 78.0927 67.4873 78.0927 69.8925C78.0927 79.893 86.2334 88 96.2755 88C106.305 88 114.439 79.9127 114.458 69.9289C117.101 68.1581 118.535 64.7496 117.815 61.2469C117.175 58.1326 114.998 55.7531 112.325 54.8458C111.988 53.3292 111.197 51.846 109.965 50.6192C107.196 47.8619 103.127 47.3224 100.299 49.1499Z" fill="url(#paint1_radial)"/>
<path fill-rule="evenodd" clip-rule="evenodd" d="M94.9976 50.6071C93.7529 50.5681 92.4986 51.1197 91.5103 52.2554L89.8104 54.2087L87.3621 53.3521C87.1962 53.294 87.0232 53.2467 86.8431 53.2114C84.7958 52.8096 82.309 54.258 81.7387 57.1421C81.4523 58.5906 81.7707 59.95 82.4377 60.9609L83.538 62.6288L82.7852 64.4784C82.1039 66.1521 81.7268 67.9853 81.7268 69.9156C81.7268 77.9123 88.2336 84.395 96.26 84.395C104.277 84.395 110.777 77.928 110.793 69.9448L110.797 67.9251L112.479 66.7975C113.8 65.9122 114.69 64.0511 114.258 61.9492C113.876 60.0899 112.606 58.792 111.226 58.3232L109.194 57.6335L108.73 55.5454C108.548 54.7263 108.109 53.8754 107.376 53.1454C105.662 51.4373 103.522 51.4364 102.398 52.163L99.9153 53.7679L97.737 51.7719C96.9303 51.0328 95.9843 50.638 94.9976 50.6071ZM87.4779 45.6159C89.6086 43.9296 92.2922 42.9135 95.2374 43.0058C97.2562 43.069 99.1292 43.6474 100.76 44.595C104.88 43.2841 109.576 44.5819 112.774 47.7678C114.012 49.0013 114.953 50.4325 115.574 51.9568C118.663 53.6556 120.975 56.7168 121.736 60.4242C122.611 64.6794 121.268 68.9714 118.346 71.8068C117.383 83.1185 107.863 92 96.26 92C84.0178 92 74.0935 82.1125 74.0935 69.9156C74.0935 67.6381 74.4408 65.4357 75.0871 63.3613C74.053 61.0354 73.7183 58.3581 74.2493 55.6722C75.477 49.4632 81.124 44.8396 87.4779 45.6159Z" fill="black"/>
<path fill-rule="evenodd" clip-rule="evenodd" d="M113.904 65.576L115.533 65.9583L116.292 63.1519L118.937 66L128 58.7001L116.495 56L115.487 59.7261L113.36 57.4357L112 58.5309L114.951 61.7077L113.904 65.576Z" fill="black"/>
<path fill-rule="evenodd" clip-rule="evenodd" d="M107.803 54.7348L109.225 53.8536L107.778 51.3327L111.663 51.4761L112.91 39.9088L102.863 46.1331L104.785 49.4801L101.661 49.3648L101.474 51.1001L105.807 51.26L107.803 54.7348Z" fill="black"/>
<path fill-rule="evenodd" clip-rule="evenodd" d="M91.3079 52.6338L90.3509 51.2614L92.6785 49.5197L89.0543 48.1128L92.4906 36.9967L99.2503 46.6909L96.1599 49.0033L99.0744 50.1346L98.5588 51.8023L94.5163 50.2331L91.3079 52.6338Z" fill="black"/>
<path fill-rule="evenodd" clip-rule="evenodd" d="M82.1385 57.9688L80.5155 57.5622L81.1273 54.7202L77.47 56.0392L72.7619 45.3995L84.226 48.2714L83.4138 52.0447L86.3548 50.984L87.0611 52.5802L82.9818 54.0514L82.1385 57.9688Z" fill="black"/>
<defs>
<radialGradient id="paint0_radial" cx="0" cy="0" r="1" gradientUnits="userSpaceOnUse" gradientTransform="translate(26.9464 60.6004) rotate(41.5155) scale(22.969 35.1143)">
<stop stop-color="#5C522F"/>
<stop offset="0.421021" stop-color="#483F20"/>
<stop offset="1" stop-color="#483F20"/>
</radialGradient>
<radialGradient id="paint1_radial" cx="0" cy="0" r="1" gradientUnits="userSpaceOnUse" gradientTransform="translate(91.8374 61.9849) rotate(57.063) scale(21.3253 32.6732)">
<stop stop-color="#5C522F"/>
<stop offset="0.414021" stop-color="#483F20"/>
<stop offset="1" stop-color="#483F20"/>
</radialGradient>
</defs>
</svg>
