<svg width="129" height="129" viewBox="0 0 129 129" fill="none" xmlns="http://www.w3.org/2000/svg">
<path d="M32.5803 47.501C32.5803 64.5769 46.423 78.4192 63.499 78.4186C80.5749 78.418 94.4177 64.5748 94.4177 47.4988C94.4177 30.4229 80.5749 16.5806 63.499 16.5812C46.423 16.5818 32.5803 30.425 32.5803 47.501Z" fill="url(#paint0_linear)" stroke="black" stroke-width="3.98239"/>
<path fill-rule="evenodd" clip-rule="evenodd" d="M90.8377 47.499C90.8377 32.4003 78.5977 20.1608 63.499 20.1613C48.4003 20.1619 36.1603 32.4022 36.1603 47.501C36.1603 62.5997 48.4003 74.8392 63.499 74.8387C78.5977 74.8381 90.8377 62.5978 90.8377 47.499ZM63.499 13.0012C82.5522 13.0005 97.9978 28.4456 97.9978 47.4988C97.9978 66.552 82.5522 81.9981 63.499 81.9988C44.4458 81.9995 29.0002 66.5544 29.0002 47.5012C29.0002 28.448 44.4458 13.0019 63.499 13.0012Z" fill="black"/>
<path d="M25.0001 70.8945C25.0001 91.8211 42.2371 108.785 63.5 108.784C84.763 108.783 102 91.8178 102 70.8911C102 49.9644 84.763 33.0008 63.5 33.0017C42.2371 33.0026 25.0001 49.9678 25.0001 70.8945Z" fill="#866958"/>
<mask id="mask0" mask-type="alpha" maskUnits="userSpaceOnUse" x="25" y="33" width="77" height="76">
<path d="M25.0001 70.8947C25.0001 91.8214 42.2371 108.785 63.5 108.784C84.763 108.783 102 91.818 102 70.8913C102 49.9647 84.763 33.001 63.5 33.0019C42.2371 33.0029 25.0001 49.968 25.0001 70.8947Z" fill="url(#paint1_linear)"/>
<path d="M25.0001 70.8947C25.0001 91.8214 42.2371 108.785 63.5 108.784C84.763 108.783 102 91.818 102 70.8913C102 49.9647 84.763 33.001 63.5 33.0019C42.2371 33.0029 25.0001 49.968 25.0001 70.8947Z" fill="#866958"/>
</mask>
<g mask="url(#mask0)">
<path d="M32.8257 76.7668C32.8257 97.6935 50.0628 114.657 71.3257 114.657C92.5887 114.656 109.826 97.6908 109.826 76.7641C109.826 55.8375 92.5887 38.8736 71.3257 38.8744C50.0628 38.8751 32.8257 55.8401 32.8257 76.7668Z" fill="url(#paint2_linear)"/>
</g>
<path opacity="0.8" d="M62.2329 109.039C23.6063 53.3825 81.5463 36.0981 86.6389 42.4934C84.1805 37.8267 87.6918 35.7526 79.6156 37.3082C48.1861 43.3621 28.873 67.3835 54.8583 107.657C58.1946 109.039 63.803 111.302 62.2329 109.039Z" fill="#866958"/>
<path d="M25.0001 70.8945C25.0001 91.8211 42.2371 108.785 63.5 108.784C84.763 108.783 102 91.8178 102 70.8911C102 49.9644 84.763 33.0008 63.5 33.0017C42.2371 33.0026 25.0001 49.9678 25.0001 70.8945Z" stroke="black" stroke-width="5.02528" stroke-miterlimit="10"/>
<path d="M24.5456 104.456C24.5456 110.534 29.4645 115.462 35.5322 115.463C41.5999 115.464 46.5188 110.538 46.5188 104.46C46.5188 98.3824 41.5999 93.4543 35.5322 93.4531C29.4645 93.4519 24.5456 98.378 24.5456 104.456Z" fill="url(#paint3_linear)"/>
<path fill-rule="evenodd" clip-rule="evenodd" d="M35.5322 114.478C29.4645 114.476 24.5456 109.548 24.5456 103.47C24.5456 102.53 24.6634 101.617 24.8851 100.745C26.0958 105.505 30.4036 109.026 35.5322 109.027C40.6608 109.028 44.9686 105.509 46.1793 100.749C46.401 101.621 46.5188 102.534 46.5188 103.475C46.5188 109.553 41.5999 114.479 35.5322 114.478Z" fill="#866958"/>
<path fill-rule="evenodd" clip-rule="evenodd" d="M35.5001 89.0029C43.5082 89.0045 50 95.4964 50 103.503C50 111.509 43.5082 117.999 35.5001 117.997C27.492 117.995 21.0001 111.503 21.0001 103.497C21.0001 95.4905 27.492 89.0013 35.5001 89.0029ZM45.5695 103.502C45.5695 97.9419 41.0612 93.4337 35.5001 93.4326C29.9389 93.4314 25.4307 97.9378 25.4307 103.498C25.4307 109.058 29.9389 113.566 35.5001 113.567C41.0612 113.568 45.5695 109.062 45.5695 103.502Z" fill="black"/>
<path d="M81.5456 104.456C81.5456 110.534 86.4645 115.462 92.5322 115.463C98.5999 115.464 103.519 110.538 103.519 104.46C103.519 98.3824 98.5999 93.4543 92.5322 93.4531C86.4645 93.4519 81.5456 98.378 81.5456 104.456Z" fill="url(#paint4_linear)"/>
<path fill-rule="evenodd" clip-rule="evenodd" d="M92.5322 114.478C86.4645 114.476 81.5456 109.548 81.5456 103.47C81.5456 102.53 81.6634 101.617 81.8851 100.745C83.0958 105.505 87.4036 109.026 92.5322 109.027C97.6608 109.028 101.969 105.509 103.179 100.749C103.401 101.621 103.519 102.534 103.519 103.475C103.519 109.553 98.5999 114.479 92.5322 114.478Z" fill="#866958"/>
<path fill-rule="evenodd" clip-rule="evenodd" d="M92.5001 89.0029C100.508 89.0045 107 95.4964 107 103.503C107 111.509 100.508 117.999 92.5001 117.997C84.492 117.995 78.0001 111.503 78.0001 103.497C78.0001 95.4905 84.492 89.0013 92.5001 89.0029ZM102.569 103.502C102.569 97.9419 98.0612 93.4337 92.5001 93.4326C86.9389 93.4314 82.4307 97.9378 82.4307 103.498C82.4307 109.058 86.9389 113.566 92.5001 113.567C98.0612 113.568 102.569 109.062 102.569 103.502Z" fill="black"/>
<defs>
<linearGradient id="paint0_linear" x1="37.4713" y1="22.9869" x2="89.5135" y2="32.8456" gradientUnits="userSpaceOnUse">
<stop stop-color="#583B2B"/>
<stop offset="0.630208" stop-color="#AF8C77"/>
<stop offset="0.9375" stop-color="#E4DDC3"/>
</linearGradient>
<linearGradient id="paint1_linear" x1="37.3837" y1="45.9226" x2="87.782" y2="97.7884" gradientUnits="userSpaceOnUse">
<stop stop-color="white"/>
<stop offset="1" stop-color="#5F5F5F"/>
</linearGradient>
<linearGradient id="paint2_linear" x1="96.9101" y1="84.5764" x2="38.7312" y2="56.4594" gradientUnits="userSpaceOnUse">
<stop stop-color="white"/>
<stop offset="0.962281" stop-color="#E4DDC3"/>
</linearGradient>
<linearGradient id="paint3_linear" x1="41.8317" y1="108.054" x2="27.131" y2="97.9579" gradientUnits="userSpaceOnUse">
<stop offset="0.0520511" stop-color="white"/>
<stop offset="1" stop-color="#E3DCC1"/>
</linearGradient>
<linearGradient id="paint4_linear" x1="98.8317" y1="108.054" x2="84.131" y2="97.9579" gradientUnits="userSpaceOnUse">
<stop offset="0.0520511" stop-color="white"/>
<stop offset="1" stop-color="#E3DCC1"/>
</linearGradient>
</defs>
</svg>
