<svg width="129" height="129" viewBox="0 0 129 129" fill="none" xmlns="http://www.w3.org/2000/svg">
<path d="M32.1133 47.2375C32.1133 64.6345 46.2163 78.7371 63.6133 78.7364C81.0102 78.7358 95.1133 64.6323 95.1133 47.2353C95.1133 29.8384 81.0103 15.7358 63.6133 15.7365C46.2163 15.7371 32.1133 29.8406 32.1133 47.2375Z" fill="#0A5551"/>
<path fill-rule="evenodd" clip-rule="evenodd" d="M64.1133 12.7365C82.891 12.7359 98.1133 27.9577 98.1133 46.7354C98.1133 65.513 82.891 80.7359 64.1133 80.7365C45.3356 80.7372 30.1133 65.5154 30.1133 46.7377C30.1133 27.96 45.3356 12.7372 64.1133 12.7365ZM92.923 46.7355C92.923 30.8244 80.0245 17.9263 64.1133 17.9268C48.2021 17.9274 35.3035 30.8264 35.3035 46.7375C35.3035 62.6487 48.2021 75.5468 64.1133 75.5463C80.0245 75.5457 92.923 62.6467 92.923 46.7355Z" fill="black"/>
<path d="M22.0352 71.363C22.0352 48.699 40.3871 30.3262 62.9986 30.3262C85.61 30.3262 103.962 48.699 103.962 71.363C103.962 94.0271 85.61 112.4 62.9986 112.4C40.3871 112.4 22.0352 94.0271 22.0352 71.363Z" fill="#03674F"/>
<path d="M65.5227 31.544C65.8942 31.9162 66.34 32.2139 66.7859 32.4372C66.2657 32.6606 65.7456 33.0328 65.2998 33.405C69.0151 33.1072 72.8047 33.2561 76.52 33.7027C78.229 33.926 79.8638 34.2238 81.5728 34.5215C81.7957 34.3727 81.87 34.2238 81.9443 34.0005C79.7895 32.8839 77.5603 31.9906 75.1825 31.3207C71.9873 31.2462 68.7921 31.2462 65.5227 31.544Z" fill="#008A69"/>
<path d="M33.9425 46.6552C38.9211 41.9655 44.7912 38.5413 51.4045 36.2337C51.4788 36.1592 51.6274 36.1592 51.7017 36.1592C51.3302 36.0103 50.9587 35.9359 50.7357 36.0103C50.067 36.2337 49.4725 36.457 48.8038 36.6803C50.6614 35.787 52.4448 34.8193 54.2281 33.8516C54.3767 33.7772 54.5254 33.6283 54.5254 33.5538C48.3579 35.2659 42.4878 37.9458 37.2863 41.8911C35.5773 43.1565 34.0168 44.6453 32.4564 46.1341C32.7536 46.4319 33.4224 46.7296 33.9425 46.6552Z" fill="#008A69"/>
<path d="M28.5925 52.5359C28.2953 52.387 27.8494 52.387 27.6265 52.4615C27.4036 52.5359 27.1807 52.6103 26.9578 52.6848C26.9578 52.6103 26.8835 52.6103 26.8835 52.5359C26.8835 52.4615 26.9578 52.3126 27.0321 52.2381C27.3293 51.8659 27.6265 51.5682 27.9237 51.2704C28.0724 51.1215 27.998 50.9727 27.9237 50.8238C27.255 51.6426 26.5862 52.387 25.9918 53.2059C24.7286 55.8857 23.7626 58.7144 23.0195 61.6919C23.0938 61.4686 23.2424 61.1709 23.3911 60.8731C23.4654 60.7987 23.4654 60.6498 23.5397 60.5754C24.8772 57.7467 26.6605 55.0668 28.5925 52.5359Z" fill="#008A69"/>
<path d="M65.3002 31.3193C65.3746 31.3937 65.4489 31.4682 65.5232 31.5426C68.7183 31.2449 71.9878 31.1704 75.1087 31.3193C72.2107 30.426 69.0899 29.905 65.969 29.6816C65.5975 29.7561 65.2259 29.905 64.8544 30.0538C64.1113 30.3516 64.7801 31.0216 65.3002 31.3193Z" fill="#00764B"/>
<path d="M32.234 45.4628C32.234 45.6117 32.3826 45.835 32.4569 45.9839C34.0173 44.4951 35.6521 43.0807 37.2868 41.7408C42.4139 37.7955 48.3584 35.1157 54.5258 33.4036C54.8974 32.7337 53.4113 31.9148 52.7425 32.1381C50.3647 32.8825 48.0612 33.7014 45.832 34.5946C48.9529 33.0314 52.2224 31.6171 55.3432 30.2027C45.3862 32.3615 36.7667 37.87 30.7479 45.5372C31.1937 45.7606 31.7882 45.7606 32.234 45.4628Z" fill="#00764B"/>
<path d="M27.627 50.6736C27.7756 50.3014 27.8499 50.0036 27.9242 49.6314L27.9242 49.557C27.1812 50.748 26.5124 51.939 25.918 53.2045C26.5867 52.3857 27.1812 51.5668 27.8499 50.8224C27.8499 50.8224 27.7756 50.748 27.627 50.6736Z" fill="#00764B"/>
<path d="M63.2167 36.8311C62.5479 37.0545 63.2167 37.7244 63.6625 37.9477C64.257 38.0966 64.7771 38.171 65.3716 38.171C65.223 38.841 66.1146 39.5854 66.7834 39.8087C66.8577 39.8087 66.932 39.8832 67.0063 39.8832C65.6688 40.1809 64.3313 40.5531 62.9938 40.8509C61.8049 41.0742 62.9938 42.1908 63.5882 42.2652L63.6625 42.2652C63.5139 42.563 63.5882 42.8607 63.7368 43.1585C62.8452 43.3818 61.8792 43.6796 60.9875 43.9773C60.0215 44.2751 61.359 45.3172 61.8049 45.3172C62.325 45.3917 62.9195 45.3917 63.4396 45.3917C63.0681 45.4661 62.6965 45.615 62.325 45.7639C61.0618 46.2849 62.6222 47.5504 63.3653 47.6249C63.2167 47.7737 63.2167 47.9971 63.2167 48.2204C63.1424 48.5181 63.2167 48.8159 63.5882 49.0392C62.8452 49.2625 62.2507 49.7092 61.8792 50.6024C61.7306 51.0491 62.0278 51.4213 62.325 51.719C63.5139 52.5379 64.9257 52.6123 66.2632 52.9845C65.8917 53.2078 65.5202 53.5056 65.223 53.8778C63.9598 53.7289 62.6965 53.5056 61.582 53.2078C60.9875 53.0589 60.9132 53.6545 61.4333 53.9522C61.7306 54.1011 62.1021 54.25 62.4736 54.3988C62.325 54.3988 62.1764 54.4733 62.1021 54.4733C60.6903 54.9199 62.1021 56.4832 62.7709 56.7809C62.7709 56.7809 62.7709 56.7809 62.8452 56.7809C62.5479 57.0042 62.2507 57.2275 61.9535 57.5997C61.582 58.1208 62.3993 58.7163 62.7709 58.9397C63.4396 59.3119 64.1084 59.3863 64.7771 59.6096C64.7028 59.6841 64.6285 59.7585 64.5542 59.8329C64.257 60.2051 64.4799 60.5029 64.8514 60.6518C63.5882 60.6518 62.3993 60.7262 61.1361 60.9495C60.3931 61.0984 61.2104 61.8428 61.6563 61.8428C61.8792 61.8428 62.1764 61.8428 62.4736 61.8428C62.0278 62.3639 62.5479 63.2571 62.9938 63.5549L63.0681 63.6293C62.9195 63.7782 62.6965 63.8527 62.5479 64.0015C62.325 64.1504 62.2507 64.5226 62.325 64.7459C62.4736 65.0437 62.6222 65.3414 62.8452 65.5648C62.325 65.4903 61.8049 65.4159 61.2847 65.3414C60.6903 65.1926 60.6903 65.7881 61.1361 66.0114C61.7306 66.3092 62.325 66.5325 62.9195 66.7558C62.6965 66.8302 62.4736 66.9791 62.2507 67.128C61.5076 67.5746 61.7306 68.4679 62.3993 68.8401C62.6965 68.989 62.9195 69.1379 63.2167 69.2123C62.7709 69.8078 62.2507 70.4778 62.4736 71.2966C62.7709 72.2643 63.5139 72.6365 64.3313 72.9343C64.0341 73.3809 63.7368 73.7531 63.5139 74.2742C63.4396 74.4975 63.5882 74.7208 63.7368 74.8697C64.4799 75.3163 65.0743 75.763 65.223 76.6563C65.223 76.7307 65.2973 76.8796 65.3716 76.8796C65.1487 76.8796 65 76.8796 64.7771 76.8796C64.6285 76.8051 64.257 76.8796 64.257 77.1029C64.257 77.3262 64.4056 77.4751 64.6285 77.5495C64.7028 77.624 64.7771 77.624 64.8514 77.624C64.7028 77.6984 64.6285 77.7728 64.4799 77.7728C64.257 77.8473 64.1827 78.145 64.3313 78.3684C64.5542 78.6661 64.8514 78.9639 65.223 79.1872C65.2973 79.2616 65.4459 79.2616 65.5945 79.2616C65.3716 79.9316 65.5202 80.7504 66.0403 81.2715C66.2632 81.4204 66.7834 81.7181 66.932 81.3459C67.0063 81.1226 67.0063 80.6015 67.1549 80.4527C67.4521 80.3038 67.6751 79.9316 67.8237 79.6338C68.0466 79.1872 67.5265 78.6661 67.1549 78.5172C66.8577 78.3684 66.5605 78.2939 66.1889 78.2195C66.2632 78.145 66.2632 78.145 66.3376 78.0706C66.5605 77.9217 66.4862 77.7728 66.3376 77.624C66.4119 77.624 66.4119 77.624 66.4862 77.5495C66.7091 77.4751 66.6348 77.1773 66.5605 77.0284C66.4862 76.954 66.3376 76.8796 66.2632 76.8051C66.3376 76.6562 66.4862 76.5074 66.5605 76.3585C66.6348 76.2096 66.5605 76.0607 66.4862 75.9119C66.1146 75.2419 65.5945 74.8697 65 74.5719C65.5945 74.1253 66.1889 73.7531 66.7091 73.1576C67.2292 72.5621 66.4119 71.9666 65.8917 71.8177C64.7771 71.4455 65 71.4455 65.966 70.85C66.4119 70.6267 66.7834 70.3289 67.2292 70.0311C67.8237 69.5845 67.2292 68.6912 66.7834 68.3935C66.6348 68.2446 66.4119 68.1702 66.1889 68.0957C66.7091 67.8724 67.2292 67.7235 67.6751 67.5002C69.1612 66.9047 66.932 65.4903 66.1889 65.5648C66.0403 65.5648 65.8917 65.5648 65.7431 65.5648C65.7431 65.5648 65.7431 65.4903 65.6688 65.4903C66.1146 65.3415 66.5605 65.1181 67.0063 64.8948C67.6008 64.5226 67.6008 63.9271 67.3035 63.406C67.7494 63.3316 68.1952 63.1827 68.5667 62.9594C69.9786 62.215 68.1952 60.6518 67.2292 60.6518C66.932 60.6518 66.7091 60.6518 66.4119 60.6518C66.7834 60.5029 67.0063 60.2051 67.1549 59.7585C67.3035 59.2374 66.932 58.7908 66.4862 58.5675C66.4119 58.493 66.3376 58.493 66.2632 58.493C66.8577 58.4186 67.5265 58.4186 68.0466 58.2697C68.864 58.0464 68.641 56.9298 68.1952 56.4832C68.1952 56.4832 68.1209 56.4832 68.1209 56.4087C68.4924 56.4087 68.864 56.4087 69.1612 56.3343C69.9043 56.3343 70.2015 55.5154 69.8299 54.9199C69.5327 54.3988 69.0126 54.1011 68.4924 53.9522C68.7154 53.8778 68.864 53.8033 69.0869 53.7289C69.9042 53.3567 69.1612 52.4634 68.7153 52.2401C67.6751 51.6446 66.1146 51.6446 64.9257 51.2724C66.5605 50.7513 68.9383 51.5701 70.4244 50.6769C71.0931 50.3047 71.0188 49.6347 70.6473 49.1136C70.9445 49.0392 71.3161 48.9648 71.6133 48.8159C72.5793 48.4437 71.6876 47.4015 71.1675 47.1038C71.0931 47.1038 71.0188 47.0293 70.9445 47.0293C71.4647 47.0293 71.9105 46.9549 72.4307 46.8805C72.7279 46.8805 72.8765 46.7316 72.9508 46.6571C73.0251 46.6571 73.0994 46.6571 73.1737 46.6571C73.7682 46.6571 74.2883 46.2105 74.1397 45.6894C74.5112 45.3917 73.9911 44.8706 73.6196 44.6473C73.5452 44.3495 73.3966 44.1262 73.1737 43.9029C73.8425 43.9029 74.5112 43.8284 75.1057 43.6051C75.7001 43.3818 75.1057 42.8607 74.7341 42.7119C75.4772 42.4141 74.7342 41.6697 74.2883 41.4464C74.3626 41.4464 74.5112 41.3719 74.5855 41.3719C75.4772 41.0742 75.3286 40.4042 74.8085 39.8087C75.5515 39.6598 76.2946 39.5854 77.112 39.511C78.0036 39.4365 77.2606 38.3944 76.7404 38.2455C76.6661 38.2455 76.5918 38.2455 76.5175 38.2455C76.889 38.2455 77.3349 38.171 77.7064 38.0966C72.8765 37.0545 68.0466 36.5334 63.2167 36.8311Z" fill="#31B164"/>
<path d="M84.9884 40.1065C84.9141 40.2554 85.0627 40.4787 85.2856 40.5531C85.7315 40.702 86.1773 40.8509 86.6231 40.9997C86.0287 40.9997 85.5085 41.0742 84.9141 41.2231C83.428 41.5208 84.3196 42.9352 85.137 43.3818C85.5828 43.6051 86.0287 43.8284 86.4002 43.9773C85.4342 43.9773 84.5426 44.0518 83.5766 44.2006C82.0162 44.424 83.5766 45.9128 84.3939 46.0616C84.9884 46.1361 85.5828 46.285 86.1773 46.3594C85.137 46.285 84.0224 46.285 82.9821 46.4338C82.3877 46.5083 82.9821 47.1038 83.2794 47.1038C83.8738 47.1782 84.3939 47.1782 84.9884 47.3271C84.4683 47.3271 83.9481 47.2527 83.428 47.2527C81.9418 47.2527 82.0161 48.2948 82.6106 49.0392C82.1648 49.0392 81.7932 49.0392 81.3474 49.1137C80.3814 49.2625 80.9759 50.2302 81.496 50.528C81.9418 50.7513 82.462 50.9002 82.9821 51.1235C82.462 51.0491 82.0162 51.0491 81.5703 51.198C81.1245 51.3468 81.5703 51.719 81.7932 51.7935C81.9418 51.7935 82.0905 51.8679 82.1648 51.8679C81.6446 52.0168 81.5703 52.5379 81.9418 52.9845C81.5703 53.1334 81.496 53.4311 81.496 53.8033C81.4217 53.8033 81.3474 53.7289 81.2731 53.7289C80.9759 53.58 80.6786 53.8778 80.9759 54.1011C81.2731 54.3244 81.6446 54.5477 82.0162 54.6966C82.0905 54.771 82.2391 54.8455 82.3877 54.9199C82.462 54.9199 82.5363 54.9944 82.6106 54.9944C82.8335 55.0688 82.9821 55.1432 83.205 55.2921C82.5363 55.1432 81.8675 54.9944 81.1988 54.9199C79.787 54.6966 79.787 56.2598 80.6786 56.8554C81.1988 57.2276 81.7189 57.5253 82.2391 57.8231C80.6043 57.8231 79.1182 58.1208 78.4495 59.6096C78.4495 59.6841 78.4495 59.7585 78.3751 59.7585C77.4835 60.1307 78.5981 61.4706 79.2668 61.6195C79.8613 61.7684 80.53 61.9172 81.1245 62.0661C80.9016 62.0661 80.6786 62.0661 80.53 62.0661C79.7127 62.0661 78.9696 62.1406 78.2265 62.5872C77.7064 62.8849 77.9293 63.5549 78.3751 63.8527C79.1925 64.3737 80.0099 64.5971 80.8273 65.0437C81.5703 65.4159 79.4154 65.7881 79.1182 65.8625C79.1182 65.8625 79.0439 65.8625 79.0439 65.937C79.0439 65.937 78.9696 65.937 78.9696 65.8625C78.5981 65.6392 78.0036 65.937 78.3751 66.3836C77.7807 66.6069 77.9293 67.2769 78.3008 67.6491C78.4495 67.7235 78.5238 67.8724 78.6724 67.9468C78.5238 68.0957 78.3751 68.2446 78.2265 68.3935C78.0036 68.7657 77.9293 69.2123 78.3008 69.5101C78.7467 69.8078 79.3411 69.7334 79.8613 69.5845C80.4557 69.4356 80.9016 69.2123 81.4217 68.8401C81.7189 68.6168 81.7189 68.3935 81.5703 68.0957C81.7932 68.0957 82.0161 67.9468 82.0905 67.7235C82.2391 67.3513 82.0162 67.0536 81.7932 66.7558C82.3134 66.6814 82.8335 66.458 83.0564 66.0114C83.5023 65.267 82.9078 64.6715 82.1648 64.2249C83.428 64.2993 84.6912 64.2993 85.6572 63.4805C86.103 63.1083 85.8058 62.5128 85.4342 62.1406C85.8801 62.1406 86.2516 62.1406 86.6974 62.1406C86.8461 61.6195 87.069 61.0984 87.2176 60.5773C87.1433 60.5773 87.1433 60.5029 87.069 60.5029C87.1433 60.5029 87.1433 60.5029 87.2176 60.5029C87.6634 59.163 88.1836 57.8231 88.8523 56.5576C88.778 56.4832 88.7037 56.4832 88.6294 56.4087C87.9606 56.1854 87.2919 55.9621 86.6974 55.7388C86.6974 55.6643 86.6974 55.5899 86.6974 55.5154C87.1433 55.441 87.3662 55.1432 87.3662 54.8455C87.3662 54.6222 87.2919 54.3988 87.1433 54.25C87.3662 54.25 87.5148 54.3244 87.7377 54.3244C88.1093 54.3989 88.2579 54.3244 88.4065 54.1755C88.5551 53.9522 88.4065 53.58 88.1836 53.2823C87.1433 53.9522 86.2516 54.6966 85.3599 55.5899C86.0287 54.3244 86.8461 53.2078 87.812 52.1657C87.812 52.0912 87.812 52.0912 87.7377 52.0168C87.5891 51.7935 87.3662 51.6446 87.1433 51.4213C87.5148 51.4957 87.9606 51.4957 88.3322 51.5702C89.9669 49.9325 91.8246 48.5926 93.7565 47.3271C93.2364 47.0293 92.7906 46.806 92.2704 46.5827C93.2364 46.5827 94.2024 46.5827 95.1683 46.4338C95.2427 46.3594 95.2427 46.3594 95.317 46.285C95.5399 45.9872 94.9454 45.615 94.5739 45.615C92.1961 45.9872 89.8926 46.5083 87.5148 47.1782C89.5211 45.0939 92.5676 44.945 95.5399 45.0939C94.7968 44.1262 93.9794 43.2329 93.0878 42.3397C91.3044 41.8186 89.4468 41.4464 87.6634 40.8509C86.9204 40.5531 85.9544 40.3298 84.9884 40.1065Z" fill="#31B164"/>
<path d="M36.4665 51.6446C37.2095 51.198 38.0269 50.7513 38.77 50.2302C38.77 50.6769 39.3644 51.1235 39.9589 51.3468C39.1415 51.9423 38.4727 52.6123 37.8783 53.5056C37.2095 54.4733 39.2158 55.3666 39.8846 55.2177C42.1137 54.771 44.7145 53.0589 47.2409 51.9423C45.7547 52.8356 43.9714 53.4311 42.5596 54.3244C41.2221 55.1432 43.3026 56.4832 44.2686 56.1854C44.3429 56.1854 44.4172 56.111 44.5658 56.111C43.5256 56.9298 45.3089 58.1208 46.2006 57.9719C46.3492 57.9719 46.5721 57.8975 46.7207 57.8975C45.9777 58.3441 45.2346 58.7908 44.4915 59.3119C43.4513 59.9818 45.5318 61.2473 46.2006 61.0984C47.3895 60.8751 48.4298 60.2796 49.4701 59.8329C51.3277 59.0141 49.1728 59.9818 48.6527 60.354C48.5784 60.4284 48.5041 60.5029 48.4298 60.5773C48.3555 60.5773 48.2812 60.5773 48.2812 60.5773C47.6124 60.6518 48.2812 61.3962 48.6527 61.3962C48.727 61.3962 48.727 61.3962 48.8013 61.3962C48.8756 61.4706 49.0242 61.6195 49.1728 61.6939C48.4298 62.2894 47.761 62.8849 47.3152 63.7038C47.0179 64.1504 47.6124 64.7459 48.0582 64.8948C48.6527 65.1181 49.1728 65.267 49.7673 65.267C49.3214 65.5648 48.8756 65.7881 48.5041 66.1603C47.9096 66.7558 48.9499 67.4258 49.4701 67.5002C50.2131 67.5746 51.0305 67.2769 51.7735 67.2024C51.9222 67.3513 52.1451 67.4258 52.2937 67.4258C52.0708 67.5746 51.8478 67.7235 51.6249 67.9468C51.4763 68.0957 51.5506 68.2446 51.6249 68.319C51.2534 68.6168 50.9562 68.989 50.5846 69.2867C50.2131 69.6589 50.5846 70.18 50.8819 70.4778C51.3277 70.85 51.8478 71.0733 52.4423 71.1477C52.2194 71.7432 52.368 72.3388 53.0367 73.0087C53.1854 73.1576 54.077 73.4553 53.9284 72.8598C53.7798 72.4876 53.4083 72.1899 53.2597 71.8177C53.1854 71.2966 54.3743 71.2966 54.6715 71.2966C55.6375 71.2222 55.043 70.18 54.5229 69.8823C54.1513 69.7334 53.7798 69.5845 53.4083 69.5845C53.7055 69.2123 54.0027 68.8401 54.1513 68.3935C54.3743 67.7979 53.7798 67.4258 53.1854 67.3513C53.2597 67.2769 53.334 67.2024 53.4826 67.128C53.9284 66.7558 53.334 66.2347 53.0367 66.0858C52.8881 66.0114 52.7395 66.0114 52.6652 65.937C53.334 65.5648 53.9284 65.1926 54.3 64.5226C54.7458 63.7782 53.4826 63.1827 52.9624 63.1083C52.2194 62.9594 51.3277 63.2571 50.5103 63.406C51.4763 62.5872 52.6652 61.9917 52.9624 60.8006C53.0367 60.5029 52.8881 60.2051 52.6652 59.9818C53.1111 59.2374 53.1111 58.4186 51.9965 57.5253C51.9222 57.4509 51.7735 57.3764 51.6992 57.302C51.9222 57.1531 52.0708 56.9298 52.2937 56.7809C52.9624 56.111 52.0708 55.3666 51.3277 55.0688C51.8478 54.6966 52.2937 54.25 52.7395 53.7289C53.334 52.9845 52.4423 52.0912 51.6992 52.0168C51.6249 52.0168 51.6249 52.0168 51.5506 52.0168C51.9222 51.6446 52.2937 51.198 52.5909 50.6769C53.0367 49.9325 51.9222 49.1137 51.3277 49.0392C51.1791 49.0392 51.1048 49.0392 50.9562 48.9648C52.368 48.1459 53.4826 47.1782 53.9284 45.7639C54.3 44.7217 52.8138 43.9029 51.9222 44.0518L51.8478 44.0518C51.9222 43.9773 51.9222 43.8284 51.9965 43.754C52.2937 42.8607 51.1791 42.1163 50.436 42.1163C50.436 42.1163 50.436 42.1163 50.3617 42.1163C51.402 41.5208 52.2937 40.7764 52.9624 39.8832C53.2597 39.511 53.1854 39.1388 52.9624 38.841C45.7547 41.2975 39.513 45.3917 34.2373 50.6769C34.5345 51.4213 35.7977 52.0168 36.4665 51.6446Z" fill="#31B164"/>
<path d="M27.4754 67.798C29.0358 66.8302 30.5963 65.8625 32.231 65.1926C33.4942 64.5971 34.8317 64.2249 36.1692 63.8527C36.3179 63.7782 36.4665 63.7782 36.6151 63.7038C36.5408 63.406 36.4665 63.1083 36.3179 62.885C36.0949 62.4383 35.4262 62.2894 35.0546 62.5128C34.7574 62.7361 34.4602 62.9594 34.163 63.2571C34.163 63.1827 34.2373 63.1827 34.2373 63.1083C34.3859 62.5872 33.7914 62.0661 33.2713 61.9172C33.5685 61.2473 33.7914 60.5773 33.7171 59.8329C33.7171 59.3119 33.1227 58.8652 32.5282 58.7163L32.6025 58.6419C32.8998 58.2697 32.1567 57.8231 31.8595 58.1208C30.9678 58.8652 30.1504 59.6841 29.4074 60.5029C29.3331 60.4284 29.1845 60.354 29.0358 60.2796C29.7046 59.2374 30.2247 58.1208 30.8935 57.1531C31.0421 56.9298 30.9678 56.7809 30.8192 56.632C31.1164 56.1854 31.4136 55.7388 31.6366 55.2921C31.8595 54.8455 30.9678 54.4733 30.7449 54.8455C30.522 55.2921 30.1504 55.7388 29.7789 56.1854C29.6303 56.1854 29.556 56.2598 29.4817 56.2598C27.1782 59.3863 25.0233 62.9594 23.3143 66.6814C23.3143 66.7558 23.24 66.8302 23.3143 66.8302C23.3886 67.2769 24.1316 67.6491 24.4289 67.2769C25.8407 65.7136 27.4754 64.5226 29.2588 63.5549C28.2928 64.6715 27.4754 65.7881 26.5837 67.0536C26.3608 67.5002 27.1782 67.9468 27.4754 67.798Z" fill="#31B164"/>
<path d="M47.9096 79.485C48.0582 79.1128 47.5381 78.815 47.2409 78.7406L47.1666 78.7406C47.2409 78.3684 47.3895 77.9962 47.5381 77.6984C47.6867 77.3262 47.3895 77.0285 47.1666 76.8051C46.6464 76.4329 45.9777 76.2841 45.3832 76.3585C45.3832 76.2096 45.2346 76.0607 45.1603 75.9119C45.1603 75.8374 45.1603 75.8374 45.086 75.763C45.0117 75.6885 44.9374 75.6141 44.9374 75.5397C44.9374 75.5397 45.0117 75.4652 45.0117 75.3908C45.086 75.2419 45.1603 75.1675 45.2346 75.0186C45.6061 74.3486 44.4915 73.6787 43.9714 73.6787C43.5256 73.6787 43.0797 73.7531 42.5596 73.8275C42.7082 73.6042 42.8568 73.4554 43.0797 73.232C43.8228 72.4876 42.3367 71.8177 41.7422 71.8177C41.6679 71.8177 41.5936 71.8177 41.5193 71.8177C41.5193 71.8177 41.5193 71.8177 41.5936 71.8177C41.7422 71.7432 41.8908 71.5944 41.8908 71.371C41.8908 71.2222 41.8908 71.0733 41.8908 70.9244C41.8908 70.4033 41.3707 70.0311 40.9248 69.9567C40.1818 69.8078 39.5873 69.8078 38.9929 69.7334C39.4387 68.3935 40.479 66.8302 39.1415 65.8625C37.9526 65.0437 37.1352 65.3415 36.3179 65.8625C36.5408 65.267 36.6894 64.5971 36.6894 64.0015C36.6151 64.076 36.5408 64.076 36.3922 64.1504C34.0144 65.4903 31.7852 66.9047 29.556 68.4679L29.6303 68.4679C29.2588 68.7657 28.8872 68.989 28.5157 69.2123C28.4414 69.4356 28.7386 69.7334 28.9615 69.7334C29.4074 69.8078 29.7789 69.9567 30.1504 70.0311C33.6428 70.85 36.6151 72.4132 39.3644 74.3486C39.5873 74.3486 39.8102 74.3486 40.0332 74.3486C40.1075 74.6464 40.3304 74.9441 40.7019 75.1675C40.7019 75.2419 40.7762 75.2419 40.7762 75.3163C41.2964 75.6885 41.8165 76.1352 42.3367 76.5074C42.4853 76.5074 42.6339 76.5818 42.8568 76.5818C43.0797 76.7307 43.4513 76.8796 43.5999 76.8796C43.8228 76.8796 44.0457 76.8051 44.2686 76.8051C44.2686 76.8796 44.2686 76.8796 44.2686 76.954C44.2686 77.4751 44.9374 77.9217 45.4575 77.7728C45.4575 77.7728 45.4575 77.7728 45.5318 77.7728C45.4575 78.2195 45.5318 78.6661 45.6804 79.1128C46.052 79.4105 46.4235 79.6338 46.795 79.9316C47.1666 80.0805 47.6867 79.9316 47.9096 79.485ZM31.5623 67.798C31.4136 68.0213 31.265 68.319 31.1164 68.5423C31.1907 68.3935 31.0421 68.1702 30.8935 68.0957C31.0421 68.0213 31.265 67.8724 31.4136 67.798C31.4136 67.798 31.488 67.798 31.5623 67.798Z" fill="#31B164"/>
<path d="M36.6932 63.7012C36.6932 63.85 36.6932 63.9245 36.6932 63.9989C37.8078 63.4778 37.8078 63.4034 36.6932 63.7012Z" fill="#69BC71"/>
<path d="M46.7245 106.206C47.1704 106.355 47.5419 106.429 47.9877 106.578C55.9385 108.886 63.6663 110.151 71.84 107.993C80.0137 105.834 86.8499 100.325 91.6055 93.4025C94.2062 89.6061 96.1381 85.5119 98.3673 81.5666C99.4819 79.5568 100.596 77.6213 102.306 76.0581C103.123 75.2393 104.015 74.4949 104.832 73.7505C104.906 72.8572 104.906 72.0384 104.906 71.1451C104.906 69.7308 104.832 68.3909 104.683 66.9765C104.386 66.9021 104.089 66.6043 104.015 66.381C103.94 66.2321 103.94 66.0832 103.94 65.8599C103.94 65.7855 103.94 65.711 103.94 65.6366C103.94 65.5622 104.015 65.4877 104.015 65.4133C104.089 65.3388 104.163 65.19 104.238 65.1155C104.238 65.0411 104.238 65.0411 104.238 64.9666C104.238 64.8922 104.238 64.8922 104.238 64.8922C104.238 64.8178 104.312 64.8178 104.386 64.8178C104.015 62.5101 103.494 60.3514 102.751 58.1926L102.751 58.2671C102.751 58.3415 102.751 58.3415 102.677 58.416C102.603 58.5648 102.454 58.6393 102.306 58.7137C102.38 58.8626 102.454 59.0115 102.38 59.1604C102.38 59.2348 102.306 59.2348 102.306 59.3092C102.157 59.4581 101.934 59.6814 101.785 59.8303C101.562 60.0536 101.488 60.2769 101.191 60.3514C100.968 60.4258 100.596 60.3514 100.374 60.2025C100.299 60.2769 100.225 60.3514 100.225 60.4258C100.225 60.2769 100.225 60.2025 100.225 60.0536C100.076 59.9048 99.9277 59.7559 100.002 59.607C100.002 59.5326 100.076 59.4581 100.076 59.3837L100.076 59.3092C100.151 59.2348 100.225 59.0859 100.299 59.0115C100.299 58.937 100.299 58.7882 100.299 58.7137C100.225 58.6393 100.225 58.4904 100.225 58.416C100.225 58.3415 100.299 58.2671 100.374 58.1926C100.448 57.5971 100.522 56.9272 100.745 56.3317C100.819 55.9595 100.225 55.7361 100.002 56.0339C98.3673 58.1926 96.8812 60.6491 95.8409 63.2545C96.2867 58.7882 97.2527 54.0985 98.9618 49.9299C98.2187 48.6644 97.4013 47.4734 96.584 46.3568C96.5097 46.4312 96.361 46.4312 96.2124 46.5056C95.9152 46.5801 95.5437 46.5801 95.2464 46.6545C94.8006 46.9523 94.3548 47.25 93.9089 47.5478C93.9089 47.5478 93.9832 47.5478 93.9832 47.6222C94.3548 47.8456 94.7263 48.2922 94.7263 48.6644C94.7263 48.6644 94.7263 48.7388 94.652 48.7388L94.652 48.8133C94.5777 48.8877 94.5777 48.8877 94.5034 48.9621C94.8749 49.4088 95.0235 49.9299 94.8006 50.3021C94.652 50.5254 94.3548 50.6743 93.8346 50.6743C93.5374 50.6743 93.2402 50.6743 92.943 50.6743C93.0916 50.8976 93.1659 51.1209 93.0916 51.2698L93.0916 51.4186C93.0173 51.642 92.72 51.7908 92.2742 51.8653C91.011 52.0142 89.8221 51.9397 88.5589 51.7908C88.4103 51.9397 88.1874 52.163 88.0387 52.3864C88.2617 52.6841 88.2617 52.9074 88.2617 53.0563C88.2617 53.1308 88.1874 53.1308 88.1874 53.2052C88.2617 53.2796 88.336 53.3541 88.4103 53.4285C89.1533 52.9819 89.8964 52.5352 90.7881 52.2375C91.0853 52.0886 91.6798 52.3864 91.6055 52.7586C91.6055 52.833 91.6054 52.833 91.5311 52.9074C90.6395 54.0985 89.8964 55.3639 89.2276 56.7039C89.7478 57.0016 90.3422 57.6716 90.2679 58.1182C90.1936 58.3415 90.045 58.4904 89.5249 58.5648C89.2276 58.5648 88.9304 58.6393 88.7075 58.6393C89.0047 58.937 89.3019 59.3837 89.3019 59.6814C89.3019 60.0536 89.079 60.3514 88.4846 60.5003C88.1874 60.5747 87.8901 60.5747 87.5929 60.5747L87.5929 60.6491C87.9644 60.9469 88.2617 61.468 88.1874 61.8402C88.1131 62.0635 87.9644 62.2124 87.5929 62.2124C87.4443 62.2124 87.2957 62.2124 87.0728 62.2124C86.2554 64.9666 85.5123 67.7209 84.6207 70.4752C86.9985 68.0931 89.4506 66.0088 92.4228 64.3711C92.7943 64.1478 93.686 64.7433 93.2402 65.1155C86.5526 71.7406 85.0665 82.1621 76.8928 87.3729C70.4282 91.4671 62.3288 93.4025 55.2697 89.6805C55.0468 89.5317 54.7496 89.085 55.1954 89.0106C58.7621 88.4151 61.883 88.0429 65.0781 87.0007C63.9635 87.0007 62.9233 86.8518 61.8087 86.6285C58.0934 86.3308 54.5267 85.0653 51.1086 82.981C49.6225 82.0877 48.2106 81.0456 46.8731 80.0034C46.4273 79.929 45.9815 79.6312 45.8328 79.3335C45.7585 79.259 45.7585 79.1846 45.7585 79.1101C44.6439 78.2169 43.5293 77.398 42.4148 76.5048C41.8203 76.3559 41.3745 76.1326 41.0029 75.537C40.9286 75.4626 40.9286 75.3882 40.9286 75.3137C40.4828 74.9415 40.037 74.6438 39.5168 74.346C39.2939 74.346 38.9967 74.1227 38.8481 73.8994C38.6994 74.0482 38.6251 74.1227 38.4765 74.2716C38.6251 74.2716 38.7738 74.2716 38.8481 74.2716C39.1453 74.346 39.4425 74.7182 39.4425 75.016C39.4425 75.0904 39.3682 75.1648 39.1453 75.2393C38.4022 75.3137 37.8078 75.0904 37.2876 74.5693C37.2133 74.5693 37.139 74.6438 36.9904 74.6438C36.5446 74.7182 35.7272 74.346 35.7272 73.8249C35.7272 73.7505 35.7272 73.676 35.8015 73.6016C35.8758 73.3783 35.9501 73.2294 36.0987 73.0061C35.6529 72.9317 35.2071 72.6339 35.2814 72.1873C35.2814 72.1873 35.2814 72.1873 35.2814 72.1128C35.1327 72.2617 34.9841 72.4106 34.9098 72.5595C34.3897 73.0805 33.2008 72.6339 32.8293 71.9639C32.2348 71.8895 31.5661 71.3684 31.6404 70.7729C31.1202 70.8474 30.4515 70.4752 30.3772 69.9541C29.6341 70.9218 28.5938 71.6662 27.5535 70.624C27.182 70.624 27.1077 70.5496 27.0334 70.4007C27.0334 70.3263 27.0334 70.2518 27.0334 70.1774C27.0334 70.103 27.0334 70.0285 27.1077 70.0285C27.2563 69.6563 27.7764 69.5819 28.148 69.433C28.2966 69.3586 28.4452 69.2841 28.5195 69.2097C28.5195 69.2097 28.5195 69.2097 28.5195 69.1352C28.5195 69.1352 28.5195 69.1352 28.5195 69.0608C28.8167 68.8375 29.1883 68.6142 29.4855 68.3908C29.1139 68.3164 28.6681 68.1675 28.3709 67.8698C27.4792 68.763 26.1417 69.5819 24.9528 69.433C24.6556 69.3586 24.2097 69.1352 24.2097 68.8375C24.2097 68.763 24.2097 68.763 24.2097 68.6886C24.284 68.5397 24.3584 68.3909 24.4327 68.242C23.9125 68.1675 23.3181 67.8698 23.0208 67.4231C22.6493 68.0187 22.3521 68.6142 21.9063 69.1352C21.9063 69.8796 21.9063 70.5496 21.9063 71.1451C21.9063 71.7406 21.9063 72.4106 21.9806 73.0061C24.6556 73.0061 27.3306 73.155 29.9313 73.8249C27.2563 73.6016 24.6556 73.6016 22.0549 74.0482C22.1292 74.6438 22.1292 75.2393 22.2035 75.8348C27.6278 75.9837 32.9036 77.1003 37.5849 79.6312C37.5849 79.5568 37.5849 79.4079 37.5849 79.3335C37.7335 78.8124 38.9967 79.0357 39.2196 79.5568C39.3682 79.7801 39.4425 80.0778 39.3682 80.3756C39.3682 80.45 39.2939 80.45 39.2196 80.5245C40.2599 81.1944 41.3002 81.9388 42.2661 82.8321C44.7182 84.9909 46.5759 87.5218 48.3592 90.1272C43.5293 86.5541 37.9564 83.7254 32.2348 82.5343C32.1605 82.5343 32.1605 82.6088 32.0862 82.6088C30.8973 82.6832 29.7084 82.4599 28.5195 82.6088C28.148 82.6832 27.6278 82.2366 27.7021 81.9388C26.5875 81.8644 25.4729 81.8644 24.4327 81.9388C24.0611 82.0133 23.7639 82.0877 23.4667 82.1621C23.6896 82.981 23.9125 83.7998 24.2097 84.6187C24.4327 84.6187 24.5813 84.6187 24.8042 84.6931C27.3306 85.0653 29.7084 86.033 32.0119 87.2985C29.9313 86.9263 27.4049 86.4796 24.8785 86.4052C25.25 87.4474 25.6959 88.4151 26.216 89.3828C26.8105 89.4572 27.3306 89.5317 27.8507 89.6805C27.3306 89.6061 26.8105 89.6061 26.2903 89.5317C28.3709 93.7747 31.1945 97.6456 34.5383 100.921C36.4703 101.219 38.2536 101.591 39.9627 102.037C40.3342 102.112 40.6314 102.633 40.6314 102.856C40.6314 103.005 40.4828 103.154 40.1113 103.08C39.071 102.931 37.9564 102.856 36.7675 102.931C38.105 104.047 39.5168 105.09 40.9286 106.057C42.8606 105.983 44.7926 106.057 46.7245 106.206ZM97.7729 62.2124C97.9215 61.9891 97.9958 61.7657 98.1444 61.6169C98.2187 61.468 98.3673 61.3935 98.4416 61.2447C98.4416 61.1702 98.4416 61.1702 98.4416 61.0958C98.4416 61.0213 98.4416 61.0213 98.4416 60.9469C98.5902 60.6491 99.259 60.9469 99.3333 61.1702C99.4819 61.468 99.5562 61.7657 99.5562 62.0635C99.4819 62.5101 99.1104 62.7334 98.7388 62.9568C98.4416 63.1056 97.4756 62.659 97.7729 62.2124ZM48.7308 83.2787C48.7308 83.2043 48.7308 83.1299 48.7308 83.1299C48.8051 82.981 48.9537 82.9065 49.1766 82.9065C49.2509 82.9065 49.3252 82.9065 49.3995 82.9065C49.7711 82.9065 50.5141 83.3532 50.2912 83.7998C50.0683 84.2465 49.2509 84.0231 49.028 83.7254C48.9537 83.6509 48.9537 83.5765 48.8794 83.5765C48.7308 83.5021 48.7308 83.4276 48.7308 83.2787C48.6565 83.3532 48.7308 83.3532 48.7308 83.2787Z" fill="#69BC71"/>
<path d="M103.346 80.7478C103.272 80.9711 103.42 81.1944 103.643 81.2689C103.94 80.0778 104.237 78.8124 104.386 77.5469C104.015 78.5891 103.717 79.6312 103.346 80.7478Z" fill="#69BC71"/>
<path d="M102.231 57.4482C102.38 57.5227 102.528 57.5971 102.603 57.746C102.528 57.5971 102.528 57.5227 102.454 57.3738C102.38 57.3738 102.38 57.3738 102.306 57.3738C102.306 57.4482 102.306 57.4482 102.231 57.4482Z" fill="#69BC71"/>
<path d="M80.6081 34.7442C80.4595 34.7442 80.3852 34.7442 80.2366 34.7442C80.3852 35.042 80.3852 35.3397 80.2366 35.563C80.088 35.7864 79.7908 35.9352 79.2706 36.0097C78.8248 36.0097 78.3046 36.0841 77.8588 36.1586C77.9331 36.233 78.0074 36.233 78.0817 36.3074C78.4532 36.5308 78.6762 36.9774 78.7505 37.3496L78.7505 37.424C78.7505 37.4985 78.7505 37.5729 78.7505 37.6474C78.6762 37.9451 78.4533 38.094 78.0074 38.1684C77.9331 38.1684 77.7845 38.1684 77.7102 38.2429C79.8651 38.6895 81.9456 39.285 84.1005 39.955C84.472 40.0294 84.7693 40.1039 85.1408 40.2527C85.1408 40.1783 85.2894 40.1039 85.438 40.1783C87.8158 40.7738 90.2679 41.5182 92.7943 41.8904C92.6457 41.7415 92.4228 41.5182 92.1999 41.3693C90.3422 40.9971 88.4846 40.8482 86.7012 40.4761C85.9582 40.3272 84.9922 39.285 85.2151 38.6151C85.2894 38.3173 85.5123 38.094 86.0325 38.094C86.7012 38.0195 87.4443 37.9451 88.1131 37.9451C88.0387 37.8707 87.9644 37.8707 87.8901 37.7962C87.5186 37.7218 87.1471 37.5729 86.8499 37.424C86.5526 37.3496 86.404 37.0518 86.404 36.903C86.2554 36.8285 86.0325 36.7541 85.8839 36.6796C85.5866 36.5308 85.2894 36.233 85.0665 35.8608C84.695 35.6375 84.2491 35.4142 83.8776 35.1908C83.1345 35.042 82.3915 34.8931 81.6484 34.7442C81.3512 34.7442 81.054 34.8187 80.6081 34.7442Z" fill="#69BC71"/>
<path d="M34.3897 50.6743C34.3897 50.5998 34.3897 50.5998 34.3897 50.5254C34.3897 50.5254 34.3897 50.5254 34.3897 50.4509C34.3897 50.3765 34.3897 50.3765 34.3897 50.3021C34.3897 50.2276 34.464 50.0787 34.5383 50.0043C35.2814 49.111 36.0987 48.2922 36.9904 47.5478C36.2473 47.5478 35.2814 47.0267 35.3557 46.4312C35.3557 46.2823 35.43 46.1334 35.5786 45.9846C35.6529 45.9101 35.8015 45.7613 35.8758 45.6868C35.2814 45.9846 34.7612 46.3568 34.1668 46.6545C34.0925 46.729 34.0182 46.6545 33.8695 46.729C32.6806 47.8456 31.4917 49.0366 30.3772 50.3021C29.7084 51.0465 29.1139 51.7908 28.5195 52.6097C28.9653 52.7586 29.2626 53.0563 29.1883 53.503L29.1883 53.5774C29.4855 53.8007 29.6341 54.024 29.4855 54.3218C28.9653 55.0662 28.4452 55.885 27.9251 56.7783C28.148 56.8527 28.3709 57.076 28.5195 57.2249C28.8167 56.8527 29.1139 56.555 29.4855 56.2572C29.5598 56.1828 29.6341 56.2572 29.6341 56.1828C31.1202 54.1729 32.6806 52.3864 34.3897 50.6743Z" fill="#69BC71"/>
<path d="M97.1041 95.2635C97.327 94.9657 97.5499 94.5935 97.7729 94.2958C97.5499 94.5935 97.327 94.8913 97.1041 95.2635Z" fill="#69BC71"/>
<path d="M63.2205 36.8285C64.4837 36.4563 65.8212 36.1586 67.1587 35.8608C66.3413 35.7119 64.6323 34.6698 65.0038 33.7765C65.0781 33.6276 65.1524 33.5532 65.3011 33.4043C60.6941 33.7021 56.0871 34.5953 51.703 36.1586C52.2232 36.3819 52.669 36.7541 52.7433 37.1263L52.7433 37.2007C52.7433 37.2751 52.7433 37.2751 52.7433 37.3496C52.669 37.4985 52.5947 37.6473 52.3718 37.7218C52.0746 37.8707 51.7773 38.0195 51.4801 38.1684L51.5544 38.1684C52.0746 38.094 52.8176 38.3917 53.1148 38.8384C53.3378 38.7639 53.5607 38.6895 53.7093 38.6151C56.9045 37.5729 60.0253 37.0518 63.2205 36.8285Z" fill="#69BC71"/>
<path d="M27.7764 89.6801C27.2562 89.5312 26.6618 89.4567 26.1416 89.3823C26.1416 89.4567 26.2159 89.4567 26.2159 89.5312C26.7361 89.6056 27.2562 89.6056 27.7764 89.6801Z" fill="#00AE70"/>
<path d="M28.2222 78.5141C31.1944 79.1097 35.7271 80.0029 38.0306 82.5339C37.8077 82.4594 37.5848 82.385 37.3618 82.3106C37.7334 82.5339 38.1049 82.7572 38.4764 83.055C38.6994 83.2038 38.4764 83.3527 38.2535 83.2038C37.3618 82.6083 36.3959 82.1617 35.5042 81.715C33.6465 81.1195 31.7889 80.524 29.8569 80.1518C28.8166 79.9285 27.6277 79.7052 26.4388 79.5563C26.5875 79.7796 26.6618 79.9285 26.5875 80.1518C26.5875 80.2263 26.5131 80.3007 26.4388 80.3751C28.668 80.1518 30.4514 80.3007 30.3771 81.4917C30.3771 81.5662 30.3771 81.6406 30.3028 81.6406C30.0798 81.9384 29.3368 81.6406 29.2625 81.4173C29.1139 81.1195 26.7361 81.5662 24.284 82.0872C25.3986 82.0128 26.5131 82.0128 27.5534 82.0872C27.5534 82.0128 27.6277 81.9384 27.8507 81.9384C29.0396 81.7895 30.3771 81.8639 31.566 82.0128C31.7889 82.0128 32.2347 82.4594 32.0861 82.6083L32.0118 82.6828C37.7334 83.9482 43.3063 86.7025 48.1362 90.2756C46.3529 87.6702 44.4952 85.1393 42.0431 82.9805C41.0772 82.0872 40.0369 81.3428 38.9966 80.6729C38.7737 80.9706 38.3278 80.9707 37.9563 80.8962C37.5848 80.8218 37.2132 80.524 37.2132 80.1518C37.2132 80.0774 37.2132 80.0029 37.2875 79.9285C37.3618 79.8541 37.3618 79.7796 37.4362 79.7796C32.7549 77.1742 27.4048 76.0576 22.0548 75.9832C22.1291 76.6532 22.2034 77.3231 22.352 77.9931C24.3583 77.9186 26.2902 78.1419 28.2222 78.5141Z" fill="#00AE70"/>
<path d="M38.1049 82.5339C35.8014 80.0029 31.2687 79.1097 28.2965 78.5141C26.3645 78.1419 24.4326 77.9186 22.5006 77.7698L22.5006 77.8442C27.702 78.2908 32.9778 79.333 37.4362 82.2361C37.6591 82.385 37.882 82.4594 38.1049 82.5339Z" fill="#00AE70"/>
<path d="M26.5131 79.5563C27.702 79.7052 28.8909 79.9285 29.9312 80.1518C31.8632 80.5985 33.7208 81.1195 35.5785 81.715C32.6806 80.3751 29.5597 79.7052 26.3645 79.333C26.3645 79.4074 26.4388 79.4819 26.5131 79.5563Z" fill="#00AE70"/>
<path d="M101.414 57.7455C101.488 57.7455 101.562 57.7455 101.637 57.6711C101.637 57.5967 101.637 57.5967 101.637 57.5967C101.637 57.5222 101.785 57.4478 101.934 57.4478C102.008 57.4478 102.157 57.4478 102.305 57.5222L102.38 57.4478L102.305 57.4478C102.008 57.4478 101.562 57.15 101.637 56.7778C101.637 56.7034 101.637 56.7034 101.711 56.6289C101.637 56.5545 101.637 56.4056 101.637 56.3312C101.637 56.2568 101.785 56.1079 101.934 56.0334C101.934 56.0334 102.008 56.0334 102.008 55.959C101.191 53.8002 100.151 51.7159 98.9617 49.7805C97.1783 53.9491 96.2124 58.6388 95.7665 63.1052C96.8068 60.4998 98.2929 58.0433 99.9277 55.8846C100.151 55.5868 100.819 55.8101 100.671 56.1823C100.522 56.7778 100.448 57.4478 100.299 58.0433C100.373 57.9689 100.448 57.9689 100.522 57.9689C100.819 57.8944 101.117 57.82 101.414 57.7455Z" fill="#00AE70"/>
<path d="M81.574 34.5204C82.3171 34.6693 83.0602 34.8182 83.8032 34.9671C83.2088 34.5949 82.54 34.2971 81.9456 33.9994C81.8713 34.2227 81.797 34.446 81.574 34.5204Z" fill="#00AE70"/>
<path d="M31.9375 87.298C29.7083 86.0325 27.3305 85.0648 24.7298 84.6926C24.5812 84.6926 24.3583 84.6926 24.1353 84.6182C24.3583 85.2137 24.5812 85.8092 24.8041 86.4047C27.3305 86.5536 29.8569 87.0002 31.9375 87.298Z" fill="#00AE70"/>
<path d="M32.4576 46.0585C30.8972 47.6218 29.3368 49.185 27.925 50.8971C28.0736 51.046 28.0736 51.1949 27.925 51.3437C27.6277 51.6415 27.3305 52.0137 27.0333 52.3115C26.959 52.3859 26.959 52.5348 26.8847 52.6092C26.959 52.6837 26.959 52.6837 26.959 52.7581C27.1819 52.6837 27.3305 52.6092 27.6277 52.5348C27.8507 52.4603 28.2222 52.5348 28.5937 52.6092C29.1882 51.7904 29.8569 51.046 30.4514 50.3016C31.566 49.0361 32.6806 47.8451 33.9438 46.7285C33.4236 46.7285 32.7549 46.4307 32.4576 46.0585Z" fill="#00AE70"/>
<path d="M27.6277 50.6738C27.702 50.7482 27.7764 50.7482 27.8507 50.8227C29.2625 49.1106 30.8229 47.5473 32.3833 45.9841C32.2347 45.8352 32.1604 45.6119 32.2347 45.3886C32.2347 45.3886 32.1604 45.3886 32.1604 45.463C31.7889 45.7608 31.1944 45.7608 30.6743 45.5375C29.7083 46.8029 28.7423 48.1428 27.925 49.5572L27.925 49.6316C27.925 50.0038 27.7764 50.376 27.6277 50.6738Z" fill="#00AE70"/>
<path d="M100.151 60.3509C100.225 60.2765 100.299 60.202 100.299 60.1276C100.225 60.1276 100.225 60.0532 100.151 60.0532C100.151 60.1276 100.151 60.202 100.151 60.3509Z" fill="#00AE70"/>
<path d="M100.373 58.7132C100.299 58.6388 100.299 58.6388 100.299 58.5644C100.299 58.6388 100.299 58.7877 100.299 58.8621C100.299 58.7877 100.299 58.7877 100.373 58.7132Z" fill="#00AE70"/>
<path d="M100.448 89.3823C100.448 89.3079 100.448 89.159 100.522 89.0845L100.522 89.0101C100.745 88.5635 101.042 88.1168 101.414 87.7446C101.562 87.4469 101.637 87.2236 101.785 86.9258C100.819 88.2657 99.7791 89.6056 98.6645 90.9455C97.104 92.7321 94.6519 95.4863 93.0172 98.3895C92.7943 99.1339 92.6457 99.9527 92.497 100.772C92.8686 100.399 93.1658 100.102 93.5373 99.7294C93.9089 99.0594 94.3547 98.3895 94.8748 97.8684C94.9491 97.794 95.0978 97.794 95.2464 97.8684C95.9151 97.0496 96.5839 96.1563 97.2526 95.263C97.4756 94.8908 97.6985 94.5931 97.9214 94.2953C98.8874 92.8065 99.779 91.2433 100.596 89.6801C100.448 89.5312 100.448 89.4567 100.448 89.3823ZM96.6582 95.4863C96.6582 95.5608 96.6582 95.5608 96.6582 95.6352C96.4353 96.1563 96.138 96.6029 95.6922 96.9751C95.3207 97.3473 94.3547 96.9007 94.429 96.3796C94.429 96.3052 94.5033 96.2307 94.5033 96.1563C94.8005 95.7841 95.0978 95.4863 95.395 95.0397C95.6922 94.5931 96.5839 94.8908 96.6582 95.4119C96.6582 95.4119 96.6582 95.4119 96.6582 95.4863Z" fill="#00AE70"/>
<path d="M92.4227 100.772C92.497 99.9527 92.72 99.1339 92.9429 98.3895C92.3484 99.4316 91.8283 100.548 91.5311 101.59C91.8283 101.367 92.1255 101.069 92.4227 100.772Z" fill="#00AE70"/>
<path d="M29.9312 73.8245C27.3305 73.1545 24.6555 73.0056 21.9805 73.0056C21.9805 73.3778 22.0548 73.6756 22.0548 74.0478C24.5812 73.6011 27.2562 73.6011 29.9312 73.8245Z" fill="#00AE70"/>
<path d="M103.346 80.7473C103.717 79.7052 104.089 78.5886 104.386 77.5464C104.609 76.281 104.683 75.0155 104.758 73.75C103.94 74.4944 103.049 75.3133 102.231 76.0576C100.596 77.6209 99.4075 79.6307 98.2929 81.5662C96.0637 85.5859 94.1318 89.6801 91.5311 93.402C86.7755 100.325 79.9393 105.759 71.7656 107.992C63.5919 110.151 55.8641 108.885 47.9133 106.578C47.4675 106.429 47.096 106.355 46.6501 106.206C44.7182 105.982 42.7862 105.982 40.8542 105.982C47.3189 110.151 55.0467 112.607 63.369 112.607C72.3601 112.607 80.608 109.779 87.4442 104.94C87.7414 103.005 88.4102 101.144 89.4505 99.2828C91.2338 96.2307 93.3887 93.5509 95.2464 90.5733C96.5839 88.4146 97.9214 86.107 99.5561 84.1715C99.6304 83.8738 99.6304 83.576 99.7047 83.3527C100.225 81.4173 101.414 80.3751 102.677 78.8863C102.751 78.7375 103.049 78.9608 102.974 79.1097C101.934 80.4496 101.042 81.5662 100.448 83.1294L100.522 83.055C100.299 83.576 100.151 84.1715 100.076 84.7671C100.076 85.0648 100.448 85.3626 100.671 85.2137C101.265 84.9159 101.86 84.6182 102.454 84.3204C102.528 84.246 102.603 84.1715 102.677 84.0971C102.974 83.2038 103.271 82.2361 103.494 81.2684C103.42 81.194 103.271 80.9706 103.346 80.7473Z" fill="#00AE70"/>
<path d="M99.036 88.2657C98.9617 86.9258 99.1846 85.5115 99.5561 84.1715C97.8471 86.107 96.5839 88.4146 95.2464 90.5733C93.463 93.5509 91.2338 96.3052 89.4505 99.2828C88.4102 101.144 87.6671 103.005 87.4442 104.94C88.6331 104.121 89.7477 103.228 90.788 102.26C91.3081 99.3572 92.6457 96.6029 94.5776 94.1464C95.9894 92.3599 97.4756 90.2756 99.036 88.2657Z" fill="#00AE70"/>
<path d="M99.7047 87.4469C100.596 86.3303 101.562 85.2881 102.528 84.246C101.934 84.5438 101.339 84.8415 100.745 85.1393C100.448 85.2881 100.076 84.9904 100.151 84.6926C100.225 84.0971 100.373 83.5016 100.596 82.9805L100.522 83.055C100.373 83.3527 100.299 83.6505 100.225 84.0227C99.9277 85.2137 99.8533 86.3303 99.7047 87.4469Z" fill="#00AE70"/>
<path d="M54.2294 33.8505C52.446 34.8182 50.6627 35.7859 48.805 36.6792C49.4738 36.4559 50.0682 36.2325 50.737 36.0092C51.0342 35.9348 51.4057 36.0092 51.7029 36.1581C56.087 34.6693 60.694 33.7016 65.301 33.4038C65.7468 33.0316 66.267 32.7339 66.7871 32.4361C66.3413 32.2872 65.8211 31.915 65.5239 31.5428C61.8086 31.915 58.0933 32.5106 54.5266 33.4783C54.4523 33.6272 54.378 33.7016 54.2294 33.8505Z" fill="#00AE70"/>
<path d="M52.7432 32.2872C53.4863 32.0639 54.8981 32.8828 54.5266 33.5527C58.0933 32.585 61.8086 31.915 65.5239 31.6173C65.4496 31.5428 65.3753 31.4684 65.301 31.394C64.7065 31.0962 64.1121 30.3518 64.8551 30.1285C65.2267 29.9796 65.5982 29.9052 65.9697 29.7563C65.1524 29.6819 64.2607 29.6074 63.369 29.6074C60.6197 29.6074 57.9447 29.9052 55.3439 30.3518C52.2231 31.7662 48.9536 33.1061 45.8328 34.7437C48.0619 33.8505 50.3654 32.9572 52.7432 32.2872Z" fill="#00AE70"/>
<path d="M22.9497 78.8093C23.6928 78.7348 24.5102 78.7348 25.3275 78.8093C25.5505 78.8093 25.9963 79.0326 26.3678 79.3304C29.563 79.7026 32.6839 80.3725 35.5818 81.7124C36.5478 82.1591 37.4394 82.6057 38.3311 83.2012C38.4797 83.2757 38.7027 83.2012 38.554 83.0523C38.1825 82.7546 37.811 82.6057 37.4394 82.3079C32.9811 79.4048 27.7053 78.3627 22.5039 77.916C22.5039 78.0649 22.5782 78.2882 22.5782 78.4371C22.7268 78.586 22.8754 78.6604 22.9497 78.8093Z" fill="#045B17"/>
<path d="M99.708 87.4443C99.7823 86.3277 99.8566 85.2111 100.154 84.0945C100.228 83.7223 100.377 83.4245 100.451 83.1268C101.046 81.638 101.863 80.447 102.977 79.107C103.126 78.9582 102.829 78.8093 102.68 78.8837C101.417 80.2981 100.228 81.4147 99.708 83.3501C99.6337 83.6479 99.5594 83.8712 99.5594 84.1689C99.2622 85.5088 99.0393 86.9232 99.0393 88.2631C97.4788 90.273 95.9184 92.2828 94.5066 94.2183C92.6489 96.6748 91.3114 99.3546 90.717 102.332C90.9399 102.109 91.2371 101.886 91.46 101.662C91.7573 100.546 92.2774 99.5035 92.8719 98.4613C94.5066 95.5582 96.9587 92.8039 98.5191 91.0174C99.6337 89.6774 100.674 88.412 101.64 86.9976C102.012 86.0299 102.383 85.0622 102.68 84.0945C102.606 84.1689 102.532 84.2434 102.457 84.3178C101.566 85.2855 100.674 86.3277 99.708 87.4443Z" fill="#045B17"/>
<path d="M95.2464 46.4302C94.2804 46.5046 93.3144 46.579 92.3484 46.579C92.8686 46.8024 93.3887 47.0257 93.8346 47.3234C94.2804 47.0257 94.7262 46.7279 95.2464 46.4302Z" fill="#259F73"/>
<path d="M90.5651 52.0131C89.6734 52.3109 88.9304 52.7575 88.1873 53.2042C88.4102 53.5019 88.5588 53.8741 88.4102 54.0974C88.3359 54.2463 88.113 54.3208 87.7415 54.2463C87.5185 54.2463 87.3699 54.1719 87.147 54.1719C87.2956 54.3952 87.3699 54.6185 87.3699 54.7674C87.3699 55.1396 87.2213 55.3629 86.7012 55.4373C86.7012 55.5118 86.7012 55.5862 86.7012 55.6607C87.3699 55.884 88.0387 56.1073 88.6331 56.3306C88.7074 56.3306 88.7817 56.4051 88.856 56.4795C89.5248 55.1396 90.2679 53.8741 91.1595 52.6831C91.2338 52.6087 91.2338 52.6087 91.2338 52.5342C91.4568 52.162 90.8623 51.8643 90.5651 52.0131Z" fill="#259F73"/>
<path d="M87.4442 54.7674C87.4442 55.1396 87.2956 55.3629 86.7755 55.4373C87.2213 55.4373 87.4442 55.1396 87.4442 54.7674Z" fill="#259F73"/>
<path d="M87.2213 60.3503C87.2956 60.3503 87.2956 60.4248 87.3699 60.4248L87.3699 60.3503C87.3699 60.3503 87.2956 60.3503 87.2213 60.3503Z" fill="#259F73"/>
<path d="M87.3699 60.3503C87.2956 60.3503 87.2956 60.3503 87.2213 60.3503C87.2956 60.3503 87.3699 60.3503 87.3699 60.3503Z" fill="#259F73"/>
<path d="M87.3699 60.4998L87.3699 60.4248C87.3699 60.4248 87.3699 60.4248 87.3699 60.4998Z" fill="#259F73"/>
<path d="M87.8158 52.0131C87.8901 52.0876 87.8158 52.0876 87.8901 52.162C88.0387 51.9387 88.2616 51.7898 88.4102 51.5665C88.0387 51.4921 87.5928 51.4921 87.2213 51.4176C87.4442 51.5665 87.6671 51.7898 87.8158 52.0131Z" fill="#259F73"/>
<path d="M30.8229 68.0176C30.9715 68.1665 31.1201 68.3154 31.0458 68.4642C31.1944 68.2409 31.343 68.0176 31.4917 67.7199C31.4174 67.7199 31.4174 67.7199 31.343 67.7199C31.1944 67.8687 31.0458 67.9432 30.8229 68.0176Z" fill="#259F73"/>
<path d="M31.343 67.7199C31.1944 67.7943 30.9715 67.9432 30.8229 68.0176C31.0458 67.9432 31.1944 67.8687 31.343 67.7199C31.4174 67.7199 31.4174 67.7199 31.4917 67.7199C31.4917 67.7943 31.4174 67.7943 31.343 67.7199Z" fill="#259F73"/>
<path d="M40.0369 74.345C39.814 74.345 39.591 74.345 39.3681 74.345C39.814 74.6427 40.3341 74.9405 40.7799 75.3127C40.7799 75.2382 40.7056 75.2382 40.7056 75.1638C40.2598 74.9405 40.1112 74.6427 40.0369 74.345Z" fill="#259F73"/>
<path d="M29.634 68.4642L29.5597 68.4642C29.2625 68.6876 28.8909 68.9109 28.5937 69.1342C28.5937 69.1342 28.5937 69.1342 28.5937 69.2086C28.5937 69.2086 28.5937 69.2086 28.5937 69.2831C28.8909 68.9853 29.2625 68.762 29.634 68.4642Z" fill="#259F73"/>
<path d="M29.5597 68.4642C29.2625 68.6876 28.8909 68.9109 28.5937 69.1342C28.5937 69.1342 28.5937 69.1342 28.5937 69.2086C28.5937 69.2086 28.5937 69.2086 28.5937 69.1342C28.8909 68.8364 29.1882 68.6876 29.5597 68.4642Z" fill="#259F73"/>
<path d="M45.4612 77.7692C44.9411 77.8436 44.2723 77.4714 44.2723 76.9503C44.2723 76.8759 44.2723 76.8759 44.2723 76.8015C44.0494 76.8759 43.8265 76.8759 43.6036 76.8759C43.455 76.8759 43.0834 76.727 42.8605 76.5781C42.7119 76.5781 42.489 76.5037 42.3404 76.5037C43.455 77.3225 44.5695 78.2158 45.6841 79.1091C45.3869 78.6625 45.3869 78.2158 45.4612 77.7692Z" fill="#259F73"/>
<path d="M43.5293 76.8759C43.7522 76.8759 43.9751 76.8015 44.198 76.8015C44.198 76.8759 44.198 76.8759 44.198 76.9503C44.198 77.4714 44.8668 77.9181 45.3869 77.7692C45.3869 77.7692 45.3869 77.7692 45.4612 77.7692C45.3869 78.2158 45.4612 78.6625 45.6098 79.1091C45.3869 78.6625 45.3869 78.2158 45.4612 77.7692C45.4612 77.7692 45.4612 77.7692 45.3869 77.7692C44.8668 77.8436 44.198 77.4714 44.198 76.9503C44.198 76.8759 44.198 76.8759 44.198 76.8015C43.9751 76.8759 43.7522 76.8759 43.5293 76.8759Z" fill="#259F73"/>
<path d="M40.0369 103.079C40.3341 103.153 40.4827 103.004 40.557 102.855C40.6313 102.558 40.2598 102.111 39.8883 102.036C38.1792 101.59 36.3959 101.218 34.4639 100.92C35.207 101.59 35.8757 102.26 36.6931 102.93C37.882 102.93 38.9966 102.93 40.0369 103.079Z" fill="#259F73"/>
<path d="M65.301 33.4033C65.1524 33.5521 65.0037 33.6266 65.0037 33.7755C64.5579 34.6687 66.3413 35.7109 67.1586 35.8598C65.8211 36.1575 64.5579 36.4553 63.2204 36.8275C68.0503 36.5297 72.8802 37.0508 77.6358 38.1674C77.7101 38.1674 77.8587 38.1674 77.933 38.0929C78.3789 38.0185 78.6018 37.7952 78.6761 37.5719C78.6761 37.4974 78.6761 37.423 78.6761 37.3486L78.6761 37.2741C78.6761 36.9019 78.3789 36.4553 78.0073 36.232C77.933 36.1575 77.8587 36.1575 77.7844 36.0831C78.2303 36.0086 78.7504 36.0086 79.1962 35.9342C79.7164 35.9342 80.0136 35.7853 80.1622 35.4876C80.3108 35.2643 80.3108 34.9665 80.1622 34.6687C80.3108 34.6687 80.3851 34.6687 80.5337 34.6687C80.9796 34.6687 81.3511 34.5943 81.574 34.4454C79.865 34.1477 78.2303 33.8499 76.5212 33.6266C72.8059 33.1799 69.0906 33.1055 65.301 33.4033Z" fill="#259F73"/>
<path d="M76.5212 33.701C78.2303 33.9243 79.865 34.2221 81.574 34.5199C79.9393 34.2221 78.2303 33.9243 76.5212 33.701C72.8059 33.1799 69.0163 33.1055 65.301 33.4033C69.0906 33.1055 72.8059 33.1799 76.5212 33.701Z" fill="#259F73"/>
<path d="M67.1586 35.8598C65.8211 36.1575 64.5579 36.4553 63.2204 36.8275C64.4836 36.4553 65.8211 36.1575 67.1586 35.8598Z" fill="#259F73"/>
<path d="M65.301 33.4033C65.1524 33.5521 65.0037 33.6266 65.0037 33.7755C65.0781 33.6266 65.1524 33.4777 65.301 33.4033Z" fill="#259F73"/>
<path d="M87.3699 60.4998C87.2213 61.0209 86.9984 61.5414 86.8498 62.0625C86.9984 62.0625 87.147 62.0625 87.3699 62.0625C87.7414 62.0625 87.9644 61.8391 87.9644 61.6903C88.0387 61.3181 87.7414 60.7231 87.3699 60.4998Z" fill="#259F73"/>
<path d="M87.9644 61.6903C88.0387 61.3181 87.7414 60.7975 87.3699 60.4998C87.7414 60.7231 88.0387 61.3181 87.9644 61.6903Z" fill="#259F73"/>
<path d="M89.0047 56.4051C88.3359 57.6705 87.8158 59.0104 87.3699 60.3503C87.6671 60.3503 87.9644 60.2759 88.2616 60.2759C88.856 60.127 89.079 59.8293 89.079 59.4571C89.079 59.0849 88.7817 58.7127 88.4845 58.4149C88.7817 58.4149 89.0046 58.4149 89.3019 58.3405C89.7477 58.266 89.9706 58.1172 90.0449 57.8938C90.1192 57.4472 89.5248 56.7028 89.0047 56.4051Z" fill="#259F73"/>
<path d="M89.0047 56.4051C88.3359 57.6705 87.8158 59.0104 87.3699 60.3503C87.8901 59.0104 88.4102 57.745 89.0047 56.4051Z" fill="#259F73"/>
<path d="M89.079 59.4571C89.079 59.0849 88.7817 58.7127 88.4845 58.4149C88.856 58.7127 89.079 59.0849 89.079 59.4571Z" fill="#259F73"/>
<path d="M90.0449 57.8938C90.1192 57.4472 89.5248 56.7773 89.0047 56.4795C89.5248 56.7028 90.1192 57.4472 90.0449 57.8938Z" fill="#259F73"/>
<path d="M93.9089 47.3234C93.9089 47.3234 93.8346 47.3234 93.8346 47.249C91.9026 48.5145 89.9706 49.8544 88.4102 51.492C89.5991 51.6409 90.8623 51.7154 92.1255 51.5665C92.6457 51.492 92.8686 51.3432 92.9429 51.1198L92.9429 50.971C92.9429 50.7477 92.8686 50.5988 92.7943 50.3755C93.0915 50.3755 93.3887 50.3755 93.6859 50.3755C94.2061 50.3755 94.5033 50.2266 94.6519 50.0033C94.9492 49.6311 94.7262 49.11 94.3547 48.6633C94.429 48.5889 94.5033 48.5889 94.5033 48.5145L94.5033 48.44C94.5033 48.44 94.5033 48.3656 94.5776 48.3656C94.7262 47.9934 94.3547 47.5468 93.9089 47.3234Z" fill="#259F73"/>
<path d="M93.8346 47.249C91.9026 48.5145 89.9706 49.8544 88.4102 51.492C90.0449 49.9288 91.9026 48.5145 93.8346 47.249Z" fill="#259F73"/>
<path d="M93.9089 47.3234C94.2804 47.5468 94.6519 47.9934 94.6519 48.3656C94.7262 47.9934 94.3547 47.5468 93.9089 47.3234C93.9089 47.3234 93.8346 47.3234 93.8346 47.249C93.9089 47.3234 93.9089 47.3234 93.9089 47.3234Z" fill="#259F73"/>
<path d="M94.7262 50.0033C95.0235 49.6311 94.8005 49.11 94.429 48.6634C94.8005 49.11 94.9491 49.6311 94.7262 50.0033Z" fill="#259F73"/>
<path d="M92.9429 50.971C92.9429 50.7477 92.8686 50.5988 92.7943 50.3755C92.9429 50.5988 93.0172 50.8221 92.9429 50.971Z" fill="#259F73"/>
<path d="M92.9429 51.1198L92.9429 51.1949C92.9429 51.1199 92.9429 51.1198 92.9429 51.1198Z" fill="#259F73"/>
<path d="M85.8095 36.5297C85.9581 36.6042 86.181 36.6786 86.3296 36.753C86.3296 36.9764 86.4782 37.1997 86.7755 37.2741C87.147 37.423 87.5185 37.4974 87.8158 37.6463C86.9241 36.9764 85.9581 36.3064 84.9921 35.7853C85.215 36.0831 85.5123 36.3808 85.8095 36.5297Z" fill="#259F73"/>
<path d="M85.1407 38.4651C84.9921 39.1351 85.8838 40.1773 86.6269 40.3261C88.4102 40.6239 90.2679 40.8472 92.1255 41.2194C90.8623 39.9539 89.4505 38.8373 88.0387 37.7952C87.3699 37.7952 86.6269 37.8696 85.9581 37.9441C85.438 38.0185 85.215 38.1674 85.1407 38.4651Z" fill="#259F73"/>
<path d="M92.6457 41.7405C90.1936 41.3683 87.6671 40.6239 85.2893 40.0284C85.0664 39.9539 84.9921 40.0284 84.9921 40.1028C85.9581 40.3261 86.8498 40.5495 87.8158 40.8472C89.5991 41.3683 91.3824 41.8149 93.2401 42.336C93.0172 42.1127 92.8686 41.9638 92.6457 41.7405Z" fill="#259F73"/>
<path d="M85.9581 37.9441C85.438 38.0185 85.215 38.2418 85.1407 38.4651C85.215 38.1674 85.438 38.0185 85.9581 37.9441C86.6269 37.8696 87.3699 37.7952 88.0387 37.7952C87.3699 37.7952 86.6269 37.7952 85.9581 37.9441Z" fill="#259F73"/>
<path d="M87.8901 52.0876C86.9241 53.1297 86.1067 54.2463 85.438 55.5118C86.3296 54.6185 87.2213 53.8741 88.2616 53.2042C88.1873 53.1297 88.113 53.0553 88.0387 52.9808C88.113 52.9064 88.113 52.9064 88.113 52.832C88.113 52.6086 88.0387 52.3853 87.8901 52.0876Z" fill="#259F73"/>
<path d="M88.113 52.832C88.1873 52.6831 88.113 52.4598 87.8901 52.162C88.0387 52.3853 88.113 52.6086 88.113 52.832Z" fill="#259F73"/>
<path d="M88.1873 53.2042C88.113 53.1297 88.0387 53.0553 87.9644 52.9808C88.113 53.0553 88.113 53.1297 88.1873 53.2042Z" fill="#259F73"/>
<path d="M95.2464 46.4302C95.5436 46.4302 95.8408 46.3557 96.2124 46.3557C96.361 46.3557 96.4353 46.2813 96.5839 46.2068C96.2867 45.8347 95.9894 45.4625 95.6922 45.0903C92.72 44.9414 89.5991 45.0903 87.6672 47.1746C89.9706 46.579 92.3484 45.9835 94.7262 45.6113C95.0235 45.5369 95.6179 45.9835 95.4693 46.2813C95.3207 46.3557 95.3207 46.3557 95.2464 46.4302Z" fill="#259F73"/>
<path d="M95.6179 45.0903C92.6457 44.9414 89.5248 45.0903 87.5928 47.1746C89.5991 45.0158 92.6457 44.9414 95.6179 45.0903Z" fill="#259F73"/>
<path d="M79.4192 70.623C79.0476 70.2508 78.5275 70.0275 78.0816 70.1764C78.0073 70.1764 78.0073 70.2508 77.933 70.2508C77.8587 70.3997 77.933 70.5486 78.0073 70.6974L78.0816 70.7719C78.0073 70.9208 78.0816 71.0696 78.2303 71.2185C78.0073 71.1441 77.7844 71.0696 77.7101 71.2185C77.7101 71.293 77.6358 71.293 77.6358 71.3674C77.6358 71.4418 77.6358 71.5163 77.5615 71.5907C77.4872 71.814 77.3386 71.9629 77.19 72.1862C76.8927 72.7073 77.933 73.0795 78.2303 72.7817C78.3789 72.7073 78.4532 72.5584 78.5275 72.484C78.5275 72.4095 78.6018 72.4095 78.6018 72.3351C78.6761 72.0373 78.6761 71.7396 78.4532 71.3674C78.6761 71.4418 78.899 71.5163 79.0476 71.3674C79.1962 71.293 79.3448 71.1441 79.4192 70.9952C79.4935 70.9208 79.4935 70.9208 79.4935 70.8463C79.5678 70.9208 79.4935 70.6974 79.4192 70.623Z" fill="#259F73"/>
<path d="M78.1559 71.2929C77.933 71.2185 77.7101 71.1441 77.6358 71.2929C77.7101 71.1441 78.0073 71.2185 78.1559 71.2929Z" fill="#259F73"/>
<path d="M77.19 72.2607C77.3386 72.0373 77.4872 71.8885 77.5615 71.6651C77.4872 71.8885 77.3386 72.1118 77.19 72.2607Z" fill="#259F73"/>
<path d="M79.4192 70.623C79.0476 70.2508 78.5275 70.0275 78.0816 70.1764C78.0073 70.1764 78.0073 70.2508 77.933 70.2508C77.933 70.1764 78.0073 70.1764 78.0816 70.1764C78.5275 70.0275 79.0476 70.1764 79.4192 70.623C79.5678 70.7719 79.6421 70.9207 79.5678 71.0696C79.5678 70.9207 79.4935 70.6974 79.4192 70.623Z" fill="#259F73"/>
<path d="M77.7101 75.0894C77.7844 74.6427 76.8927 73.8239 76.3726 74.345C76.2983 74.4194 76.2983 74.4938 76.224 74.5683L76.224 74.6427C76.224 74.7172 76.1497 74.7172 76.1497 74.7916C76.0754 74.866 76.0754 74.9405 76.0754 74.9405C76.0754 75.0894 76.224 75.3127 76.3726 75.4616C76.5955 75.6104 76.8184 75.6849 77.1157 75.6104C77.2643 75.536 77.4129 75.3871 77.4872 75.3871C77.5615 75.3871 77.6358 75.3127 77.7101 75.2382C77.7101 75.1638 77.7101 75.1638 77.7101 75.0894Z" fill="#259F73"/>
<path d="M76.1497 74.7916C76.1497 74.7916 76.1497 74.7172 76.224 74.6427C76.224 74.7172 76.224 74.7916 76.1497 74.7916Z" fill="#259F73"/>
<path d="M76.3726 74.345C76.2983 74.4194 76.2983 74.4938 76.224 74.5683C76.224 74.4938 76.2983 74.4194 76.3726 74.345Z" fill="#259F73"/>
<path d="M76.1497 74.7916C76.0754 74.866 76.0754 74.9405 76.0754 74.9405C76.0754 74.866 76.1497 74.866 76.1497 74.7916Z" fill="#259F73"/>
<path d="M101.86 56.0329C101.711 56.1073 101.562 56.1817 101.562 56.3306C101.562 56.4051 101.562 56.5539 101.637 56.6284C101.637 56.7028 101.562 56.7028 101.562 56.7773C101.488 57.075 101.934 57.4472 102.231 57.4472L102.305 57.4472C102.38 57.4472 102.38 57.4472 102.454 57.4472C102.305 57.0006 102.083 56.4795 101.934 56.0329C101.934 55.9584 101.86 55.9584 101.86 56.0329Z" fill="#259F73"/>
<path d="M101.562 56.2562C101.562 56.1817 101.711 56.0329 101.86 55.9584C101.86 55.9584 101.934 55.9584 101.934 55.884C101.934 55.884 101.86 55.884 101.86 55.9584C101.711 56.1073 101.562 56.1817 101.562 56.2562Z" fill="#259F73"/>
<path d="M101.637 56.6284C101.637 56.7028 101.562 56.7028 101.562 56.7773C101.562 56.7028 101.562 56.6284 101.637 56.6284Z" fill="#259F73"/>
<path d="M102.603 57.745C102.528 57.5961 102.38 57.5217 102.231 57.4472C102.083 57.3728 102.008 57.3728 101.86 57.3728C101.711 57.3728 101.562 57.4472 101.562 57.5216L101.562 57.5961C101.488 57.5961 101.414 57.6705 101.339 57.6705C101.042 57.745 100.745 57.8194 100.448 57.8938C100.374 57.8938 100.299 57.9683 100.225 57.9683C100.151 58.0427 100.076 58.1172 100.076 58.1916C100.076 58.266 100.076 58.4149 100.151 58.4894C100.151 58.5638 100.225 58.5638 100.225 58.6382C100.151 58.7127 100.151 58.7127 100.076 58.7871C100.002 58.8616 99.9277 59.0104 99.8534 59.0849L99.8534 59.1593C99.8534 59.2338 99.7791 59.3082 99.7791 59.3826C99.7791 59.6059 99.8534 59.7548 100.002 59.8293C100.076 59.9037 100.076 59.9037 100.151 59.9037C100.448 60.0526 100.745 60.127 100.968 60.0526C101.265 59.9781 101.414 59.7548 101.562 59.5315C101.711 59.3082 101.934 59.1593 102.083 59.0104C102.157 58.936 102.157 58.936 102.157 58.8616C102.231 58.7127 102.157 58.5638 102.083 58.4149C102.231 58.3405 102.38 58.266 102.454 58.1172C102.454 58.0427 102.528 58.0427 102.528 57.9683L102.528 57.8938C102.677 57.9683 102.677 57.8938 102.603 57.745Z" fill="#259F73"/>
<path d="M102.38 59.0104C102.454 58.8616 102.38 58.7127 102.305 58.5638C102.454 58.7127 102.454 58.8616 102.38 59.0104Z" fill="#259F73"/>
<path d="M102.603 57.745C102.528 57.5961 102.38 57.5217 102.231 57.4472C102.38 57.5217 102.528 57.6705 102.603 57.745Z" fill="#259F73"/>
<path d="M102.751 58.192C102.751 58.117 102.751 58.117 102.751 58.192V58.192Z" fill="#259F73"/>
<path d="M99.9277 59.5315C99.9277 59.4571 100.002 59.3826 100.002 59.3082C100.002 59.3082 99.9277 59.4571 99.9277 59.5315Z" fill="#259F73"/>
<path d="M101.934 57.4472C101.785 57.4472 101.637 57.5217 101.637 57.5961C101.637 57.4472 101.785 57.3728 101.934 57.4472Z" fill="#259F73"/>
<path d="M100.596 57.9683C100.894 57.8938 101.191 57.8194 101.488 57.745C101.562 57.745 101.637 57.745 101.711 57.6705C101.637 57.6705 101.562 57.745 101.488 57.745C101.117 57.8194 100.819 57.8938 100.596 57.9683C100.522 57.9683 100.448 58.0427 100.373 58.0427C100.373 58.0427 100.448 57.9683 100.596 57.9683Z" fill="#259F73"/>
<path d="M98.7388 62.9557C99.1103 62.8069 99.4818 62.5091 99.5561 62.0625C99.5561 61.7647 99.4818 61.3925 99.3332 61.1692C99.1846 60.9459 98.5902 60.7225 98.4415 60.9459C98.4415 61.0203 98.4415 61.0203 98.4415 61.0947C98.4415 61.1692 98.4415 61.2436 98.4415 61.2436C98.3672 61.3925 98.2186 61.4669 98.1443 61.6158C97.9957 61.8391 97.9214 62.0625 97.7728 62.2113C97.4756 62.658 98.4416 63.1046 98.7388 62.9557Z" fill="#259F73"/>
<path d="M98.4415 61.2436C98.3672 61.3925 98.2186 61.4669 98.1443 61.6158C97.9957 61.8391 97.9214 62.0625 97.7728 62.2113C97.9214 61.988 97.9957 61.7647 98.1443 61.6158C98.2929 61.4669 98.3672 61.3925 98.4415 61.2436Z" fill="#259F73"/>
<path d="M100.522 89.084C100.448 89.2329 100.448 89.3073 100.448 89.3817C100.448 89.4562 100.448 89.5306 100.522 89.6051C100.819 89.0095 101.117 88.3396 101.414 87.7441C101.042 88.1907 100.745 88.6373 100.522 89.084Z" fill="#259F73"/>
<path d="M100.522 89.1584C100.819 88.6373 101.117 88.1907 101.414 87.8185C101.042 88.1907 100.745 88.6373 100.522 89.1584Z" fill="#259F73"/>
<path d="M94.7262 97.8678C94.2061 98.3889 93.7603 99.0589 93.3887 99.7288C93.9832 99.1333 94.5033 98.4633 95.0978 97.8678C94.9492 97.7934 94.8005 97.7934 94.7262 97.8678Z" fill="#259F73"/>
<path d="M94.7262 97.8678C94.2061 98.3889 93.7603 99.0589 93.3887 99.7288C93.8346 99.0589 94.2061 98.4633 94.7262 97.8678Z" fill="#259F73"/>
<path d="M29.3368 81.3423C29.4854 81.64 30.2285 81.9378 30.3771 81.5656C30.3771 81.4912 30.4514 81.4912 30.4514 81.4167C30.5257 80.2257 28.7423 80.0768 26.5131 80.3001C26.5875 80.2257 26.6618 80.1512 26.6618 80.0768C26.7361 79.8535 26.6618 79.7046 26.5131 79.4813C26.4388 79.4813 26.3645 79.4069 26.2902 79.3324C25.993 79.0347 25.5472 78.8113 25.2499 78.8113C24.4326 78.7369 23.6895 78.8113 22.8721 78.8113C22.7978 78.6625 22.6492 78.5136 22.5006 78.4391C22.7235 79.7046 23.0208 80.9701 23.318 82.1611C23.6152 82.0867 23.9867 82.0122 24.284 81.9378C26.8104 81.4167 29.1882 80.9701 29.3368 81.3423Z" fill="#259F73"/>
<path d="M26.5131 79.5557C26.6618 79.779 26.7361 79.9279 26.6618 80.1513C26.7361 79.9279 26.6618 79.7046 26.5131 79.5557Z" fill="#259F73"/>
<path d="M30.4514 81.4167C30.4514 81.4912 30.4514 81.5656 30.3771 81.5656C30.4514 81.4912 30.4514 81.4912 30.4514 81.4167Z" fill="#259F73"/>
<path d="M25.2499 78.8113C24.4326 78.7369 23.6895 78.8113 22.8721 78.8113C22.7978 78.6625 22.6492 78.5136 22.5006 78.4391C22.6492 78.588 22.7978 78.6625 22.8721 78.8113C23.6152 78.7369 24.4326 78.7369 25.2499 78.8113Z" fill="#259F73"/>
<path d="M28.5194 82.6822C29.7083 82.5333 30.8972 82.7566 32.0861 82.6822C32.1604 82.6822 32.1604 82.6077 32.2347 82.6077L32.309 82.5333C32.3833 82.31 32.0118 81.9378 31.7889 81.9378C30.6 81.7889 29.2625 81.7145 28.0736 81.8633C27.925 81.8633 27.7763 81.9378 27.7763 82.0122C27.6277 82.31 28.1479 82.7566 28.5194 82.6822Z" fill="#259F73"/>
<path d="M27.9993 81.8633C29.1882 81.7145 30.5257 81.7889 31.7146 81.9378C31.9375 81.9378 32.3833 82.3844 32.2347 82.5333C32.309 82.31 31.9375 81.9378 31.7146 81.9378C30.5257 81.7145 29.1882 81.64 27.9993 81.8633C27.8507 81.8633 27.702 81.9378 27.702 82.0122C27.702 81.9378 27.7763 81.8633 27.9993 81.8633Z" fill="#259F73"/>
<path d="M53.1148 38.8373C52.7432 38.3907 52.0745 38.0929 51.5543 38.1674L51.48 38.1674C51.7773 38.0185 52.0745 37.8696 52.3717 37.7208C52.5946 37.5719 52.7432 37.4974 52.7432 37.3486C52.7432 37.2741 52.7432 37.2741 52.7432 37.1997L52.7432 37.1252C52.6689 36.753 52.2231 36.3808 51.7029 36.1575C51.6286 36.1575 51.48 36.232 51.4057 36.232C44.7925 38.5396 38.9223 41.9638 33.9438 46.6535C34.0181 46.6535 34.1667 46.6535 34.241 46.579C34.8354 46.2068 35.3556 45.9091 35.95 45.6113C35.8757 45.6858 35.7271 45.8347 35.6528 45.9091C35.5042 46.058 35.4299 46.2068 35.4299 46.3557C35.3556 47.0257 36.3216 47.5468 37.0646 47.4723C36.173 48.2167 35.3556 49.11 34.6125 49.9288C34.5382 50.0033 34.4639 50.1521 34.4639 50.2266C34.4639 50.301 34.4639 50.301 34.4639 50.3755C34.4639 50.3755 34.4639 50.3755 34.4639 50.4499C34.4639 50.5243 34.4639 50.5243 34.4639 50.5988C39.591 45.388 45.9071 41.2194 53.1148 38.8373Z" fill="#259F73"/>
<path d="M36.9903 47.4723C36.0986 48.2167 35.2813 49.11 34.5382 49.9288C35.2813 49.11 36.173 48.2912 36.9903 47.4723Z" fill="#259F73"/>
<path d="M52.7432 37.1252C52.7432 37.1997 52.7432 37.1997 52.7432 37.2741C52.7432 37.2741 52.7432 37.1997 52.7432 37.1252Z" fill="#259F73"/>
<path d="M51.5543 38.1674C52.0745 38.0929 52.8175 38.3907 53.1148 38.8373C52.7432 38.3163 52.0745 38.0185 51.5543 38.1674L51.48 38.1674C51.48 38.1674 51.48 38.1674 51.5543 38.1674Z" fill="#259F73"/>
<path d="M56.8301 76.3548C56.8301 76.2059 56.8301 76.0571 56.9787 75.9082C56.9787 75.8338 56.9787 75.8338 57.053 75.7593C57.2016 75.2382 56.5328 74.7916 55.9384 74.6427C56.0127 74.4938 56.087 74.345 56.1613 74.1961C56.3099 73.8239 55.5669 73.3773 55.2696 73.675C54.7495 74.345 54.0807 74.7916 53.2634 75.0894C53.1148 75.1638 52.9661 75.2382 52.9661 75.3871L52.9661 75.4616C52.9661 75.9082 53.7835 76.5037 54.3037 76.3548C54.4523 76.3548 54.6009 76.2804 54.6752 76.2804C54.7495 76.5037 54.8238 76.6526 54.9724 76.8759C55.2696 77.3225 55.5669 77.5459 55.4926 78.1414C55.4183 78.7369 56.3099 79.1091 56.7558 79.0346C57.2016 78.9602 57.4988 78.7369 57.6474 78.4391C57.7217 78.2903 57.7217 78.1414 57.7217 77.9925C57.7217 77.8436 57.6474 77.6203 57.4988 77.4714C57.2016 77.0248 56.8301 76.8015 56.8301 76.3548Z" fill="#259F73"/>
<path d="M57.7217 78.0669C57.7217 78.2158 57.7217 78.3647 57.6474 78.5136C57.6474 78.3647 57.7217 78.2158 57.7217 78.0669Z" fill="#259F73"/>
<path d="M57.4988 77.4714C57.2016 77.0248 56.8301 76.727 56.8301 76.3548C56.8301 76.8015 57.2016 77.0248 57.4988 77.4714Z" fill="#259F73"/>
<path d="M53.2634 75.1638C54.0807 74.866 54.7495 74.4194 55.2696 73.7494C55.4926 73.4517 56.3099 73.8983 56.1613 74.2705C56.087 74.4194 56.0127 74.5683 55.9384 74.7172C56.5328 74.866 57.1273 75.3127 57.053 75.8337C57.2016 75.3127 56.5328 74.866 55.9384 74.7172C56.0127 74.5683 56.087 74.4194 56.1613 74.2705C56.3099 73.8983 55.5669 73.4517 55.2696 73.7494C54.7495 74.4194 54.0807 74.7916 53.2634 75.1638C53.1148 75.2382 52.9661 75.3127 52.9661 75.4616C52.9661 75.3127 53.1148 75.1638 53.2634 75.1638Z" fill="#259F73"/>
<path d="M38.6251 73.8983C38.7737 74.1216 39.0709 74.345 39.2938 74.345C36.5445 72.484 33.6465 70.9208 30.0798 70.0275C30.1541 70.4741 30.8229 70.9208 31.343 70.8463C31.2687 71.4418 31.8632 71.8885 32.5319 72.0373C32.9035 72.7073 34.0924 73.1539 34.6125 72.6329C34.7611 72.484 34.9097 72.3351 34.9841 72.1862C34.9841 72.1862 34.9841 72.1862 34.9841 72.2607C34.9841 72.7073 35.4299 73.0051 35.8014 73.0795C35.6528 73.2284 35.5785 73.4517 35.5042 73.675C35.5042 73.7495 35.4299 73.8239 35.4299 73.8983C35.4299 74.4194 36.2473 74.7916 36.6931 74.7172C36.7674 74.7172 36.8417 74.6427 36.9903 74.6427C37.5105 75.0894 38.1792 75.3871 38.848 75.3127C39.0709 75.3127 39.1452 75.2382 39.1452 75.0894C39.2195 74.866 38.848 74.4194 38.5507 74.345C38.4764 74.345 38.3278 74.345 38.1792 74.345C38.4021 74.1961 38.5507 74.0472 38.6251 73.8983Z" fill="#259F73"/>
<path d="M39.3681 74.345C36.6188 72.484 33.7208 70.9208 30.1542 70.0275C33.6465 70.9208 36.6188 72.484 39.3681 74.345Z" fill="#259F73"/>
<path d="M35.5785 73.675C35.5785 73.7495 35.5042 73.8239 35.5042 73.8983C35.5042 73.8239 35.5042 73.7495 35.5785 73.675Z" fill="#259F73"/>
<path d="M38.6994 74.345C38.9966 74.4194 39.2938 74.7916 39.2938 75.0894C39.2938 74.7916 38.9223 74.4194 38.6994 74.345C38.6251 74.345 38.4764 74.345 38.3278 74.345C38.4764 74.2705 38.6251 74.2705 38.6994 74.345Z" fill="#259F73"/>
<path d="M27.0333 70.1764C27.0333 70.2508 27.0333 70.3252 27.0333 70.3997C27.1076 70.5486 27.1819 70.623 27.2562 70.7719C28.2965 71.7396 29.3368 71.0696 30.0798 70.1019C29.7083 70.0275 29.3368 69.8786 28.8909 69.8042C28.7423 69.8042 28.3708 69.5064 28.4451 69.2831C28.2965 69.3575 28.1479 69.432 28.0736 69.5064C27.7764 69.6553 27.2562 69.7297 27.0333 70.1019C27.1076 70.0275 27.0333 70.1019 27.0333 70.1764Z" fill="#259F73"/>
<path d="M45.6841 79.258C45.9071 79.5557 46.2786 79.779 46.7244 79.9279C46.3529 79.6302 45.9814 79.4068 45.6098 79.1091C45.6098 79.1835 45.6098 79.258 45.6841 79.258Z" fill="#259F73"/>
<path d="M24.5069 68.3154C24.4326 68.4642 24.3583 68.6131 24.284 68.762C24.284 68.8364 24.284 68.8364 24.284 68.9109C24.284 69.2831 24.7298 69.5064 25.027 69.5064C26.2159 69.6553 27.5534 68.762 28.4451 67.9432C28.7423 68.2409 29.1882 68.3898 29.5597 68.4642C31.7889 66.901 34.0181 65.4867 36.3959 64.1468C36.5445 64.0723 36.6188 64.0723 36.6931 63.9979C36.6931 63.9234 36.6931 63.7746 36.6931 63.7001C36.5445 63.7001 36.3959 63.7746 36.2473 63.849C34.9097 64.1468 33.5722 64.5934 32.309 65.1889C30.6 65.8589 29.0396 66.901 27.5534 67.7943C27.2562 68.0176 26.4388 67.571 26.6618 67.1243C27.4791 65.8589 28.3708 64.7423 29.3368 63.6257C27.5534 64.6678 25.9187 65.7844 24.5069 67.3477C24.2097 67.6454 23.3923 67.2732 23.3923 66.901C23.3923 66.8266 23.3923 66.7521 23.3923 66.7521C25.1756 62.9557 27.3305 59.4571 29.7826 56.1817C29.7083 56.1817 29.634 56.1817 29.634 56.2562C29.2625 56.5539 28.9653 56.9261 28.668 57.2239C28.5194 57.0006 28.2965 56.8517 28.0736 56.7773C28.5937 55.9584 29.1139 55.1396 29.634 54.3208C29.7826 54.0974 29.634 53.7997 29.3368 53.5764L29.3368 53.5019C29.4111 53.0553 29.0396 52.7575 28.668 52.6086C26.7361 55.1396 24.9527 57.8194 23.6152 60.6481C23.4666 60.6481 23.3923 60.797 23.3923 60.8714C23.2437 61.1692 23.1694 61.3925 23.0208 61.6903C22.4263 64.1468 22.1291 66.6777 21.9805 69.2831C22.352 68.6876 22.7235 68.1665 23.0951 67.571C23.318 67.9432 23.9124 68.2409 24.5069 68.3154Z" fill="#259F73"/>
<path d="M36.173 63.7746C34.8354 64.0723 33.4979 64.519 32.2347 65.1145C30.5257 65.7844 28.9653 66.8266 27.4791 67.7199C27.1819 67.9432 26.3645 67.4965 26.5875 67.0499C26.3645 67.4221 27.1819 67.8687 27.4791 67.7199C29.0396 66.7521 30.6 65.7844 32.2347 65.1145C33.5722 64.5934 34.8354 64.1468 36.173 63.7746C36.3216 63.7001 36.4702 63.7001 36.6188 63.6257C36.5445 63.7001 36.3959 63.7746 36.173 63.7746Z" fill="#259F73"/>
<path d="M24.3583 67.3477C24.061 67.6454 23.2437 67.2732 23.2437 66.901C23.318 67.3477 24.1353 67.7199 24.3583 67.3477C25.7701 65.7844 27.4048 64.5934 29.1882 63.6257C27.4791 64.5934 25.7701 65.7844 24.3583 67.3477Z" fill="#259F73"/>
<path d="M36.6931 63.7001C36.6931 63.849 36.6931 63.9234 36.6931 63.9979C36.6931 63.9234 36.6931 63.7746 36.6931 63.7001Z" fill="#259F73"/>
<path d="M29.2625 53.5019L29.2625 53.4275C29.3368 52.9808 28.9652 52.6831 28.5937 52.5342C29.0396 52.6831 29.3368 52.9808 29.2625 53.4275L29.2625 53.5019C29.5597 53.7252 29.7083 53.9486 29.5597 54.2463C29.7083 53.9486 29.4854 53.7252 29.2625 53.5019Z" fill="#259F73"/>
<path d="M29.4854 56.1817C29.1139 56.4795 28.8166 56.8517 28.5194 57.1495C28.3708 56.9261 28.1479 56.7773 27.925 56.7028C28.1479 56.7773 28.3708 57.0006 28.5194 57.1495C28.8166 56.7773 29.1139 56.4795 29.4854 56.1817C29.5597 56.1073 29.634 56.1817 29.634 56.1073C29.634 56.1073 29.5597 56.1073 29.4854 56.1817Z" fill="#259F73"/>
<path d="M40.8542 75.536C41.2258 76.0571 41.7459 76.3548 42.2661 76.5037C41.7459 76.1315 41.2258 75.6849 40.7056 75.3127C40.7799 75.3871 40.7799 75.4616 40.8542 75.536Z" fill="#259F73"/>
<path d="M48.9536 83.7988C49.1765 84.0965 49.9939 84.3943 50.2168 83.8732C50.4397 83.4266 49.6967 82.9799 49.3252 82.9799C49.2508 82.9799 49.1765 82.9799 49.1022 82.9799C48.8793 82.9799 48.7307 83.0544 48.6564 83.2033C48.6564 83.2777 48.6564 83.2777 48.6564 83.3521C48.6564 83.3521 48.6564 83.3521 48.6564 83.4266C48.6564 83.501 48.7307 83.5755 48.805 83.6499C48.8793 83.6499 48.9536 83.7243 48.9536 83.7988Z" fill="#259F73"/>
<path d="M49.1022 82.9055C48.8793 82.9055 48.7307 82.9799 48.6564 83.1288C48.805 82.9799 48.9536 82.9055 49.1022 82.9055Z" fill="#259F73"/>
<path d="M37.5848 79.6302C37.5105 79.7046 37.5105 79.7046 37.4362 79.779C37.4362 79.8535 37.3619 79.9279 37.3619 80.0024C37.3619 80.3746 37.7334 80.6723 38.1049 80.7468C38.4764 80.8212 38.9223 80.8212 39.1452 80.5234C39.2195 80.449 39.2195 80.449 39.2938 80.3746C39.4424 80.0768 39.2938 79.779 39.1452 79.5557C38.9223 79.0346 37.7334 78.8113 37.5105 79.3324C37.5848 79.4069 37.5848 79.5557 37.5848 79.6302Z" fill="#259F73"/>
<path d="M39.2195 79.6302C39.3681 79.8535 39.4424 80.1513 39.3681 80.449C39.4424 80.1513 39.2938 79.8535 39.2195 79.6302C38.9966 79.1091 37.8077 78.8858 37.5848 79.4069C37.7334 78.8113 38.9966 79.1091 39.2195 79.6302Z" fill="#259F73"/>
<path d="M37.5848 79.6302C37.5105 79.7046 37.5105 79.7046 37.4362 79.779C37.5105 79.779 37.5105 79.7046 37.5848 79.6302Z" fill="#259F73"/>
<path d="M104.609 67.0499C104.535 66.3055 104.46 65.4867 104.312 64.7423C104.237 64.7423 104.237 64.8167 104.163 64.8167L104.163 64.8912C104.163 64.9656 104.163 64.9656 104.163 65.04C104.089 65.1145 104.015 65.1889 103.94 65.3378C103.94 65.4122 103.866 65.4867 103.866 65.5611C103.866 65.6356 103.866 65.71 103.866 65.7844C103.866 66.0077 103.866 66.1566 103.94 66.3055C104.015 66.6777 104.312 66.901 104.609 67.0499Z" fill="#259F73"/>
<path d="M22.1133 103.23C22.1133 110.134 27.7097 115.731 34.6133 115.733C41.5168 115.734 47.1133 110.139 47.1133 103.235C47.1133 96.3318 41.5168 90.7342 34.6133 90.7329C27.7097 90.7315 22.1133 96.3268 22.1133 103.23Z" fill="#12827A"/>
<path fill-rule="evenodd" clip-rule="evenodd" d="M34.6133 88.7324C42.6214 88.734 49.1133 95.2272 49.1133 103.235C49.1133 111.243 42.6214 117.734 34.6133 117.732C26.6052 117.731 20.1133 111.238 20.1133 103.229C20.1133 95.2213 26.6052 88.7308 34.6133 88.7324ZM44.6827 103.234C44.6827 97.6732 40.1745 93.1641 34.6133 93.1629C29.0521 93.1618 24.5438 97.6691 24.5438 103.23C24.5438 108.792 29.0521 113.301 34.6133 113.302C40.1745 113.303 44.6827 108.796 44.6827 103.234Z" fill="black"/>
<path d="M34.0197 115.584C34.083 115.74 34.3064 115.745 34.3767 115.592L37.2517 109.316C37.4074 108.95 37.0871 108.572 36.6258 108.578L32.1466 108.636C31.6854 108.642 31.3603 109.029 31.5116 109.391L34.0197 115.584Z" fill="#FFF7E7"/>
<path d="M45.678 111.469C45.7466 111.52 45.8435 111.464 45.8309 111.38C45.3997 108.518 45.013 106.97 43.5262 105.01C43.3097 104.625 42.7681 104.598 42.468 104.958L39.5746 107.162C39.2745 107.522 39.3962 108.051 39.8124 108.197C42.1143 108.069 43.3852 109.753 45.678 111.469Z" fill="#FFF7E7"/>
<path d="M22.9861 111.469C22.9174 111.52 22.8205 111.464 22.8331 111.38C23.2643 108.518 23.6511 106.97 25.1379 105.01C25.3543 104.625 25.8959 104.598 26.196 104.958L29.0894 107.162C29.3895 107.522 29.2678 108.051 28.8516 108.197C26.5497 108.069 25.2788 109.753 22.9861 111.469Z" fill="#FFF7E7"/>
<path d="M80.1133 103.23C80.1133 110.134 85.7097 115.731 92.6133 115.733C99.5168 115.734 105.113 110.139 105.113 103.235C105.113 96.3318 99.5168 90.7342 92.6133 90.7329C85.7097 90.7315 80.1133 96.3268 80.1133 103.23Z" fill="#12827A"/>
<path fill-rule="evenodd" clip-rule="evenodd" d="M92.6133 88.7324C100.621 88.734 107.113 95.2272 107.113 103.235C107.113 111.243 100.621 117.734 92.6133 117.732C84.6052 117.731 78.1133 111.238 78.1133 103.229C78.1133 95.2213 84.6052 88.7308 92.6133 88.7324ZM102.683 103.234C102.683 97.6732 98.1745 93.1641 92.6133 93.1629C87.0521 93.1618 82.5438 97.6691 82.5438 103.23C82.5438 108.792 87.0521 113.301 92.6133 113.302C98.1745 113.303 102.683 108.796 102.683 103.234Z" fill="black"/>
<path d="M92.0197 115.584C92.083 115.74 92.3064 115.745 92.3767 115.592L95.2517 109.316C95.4074 108.95 95.0871 108.572 94.6258 108.578L90.1466 108.636C89.6854 108.642 89.3603 109.029 89.5116 109.391L92.0197 115.584Z" fill="#FFF7E7"/>
<path d="M103.678 111.469C103.747 111.52 103.844 111.464 103.831 111.38C103.4 108.518 103.013 106.97 101.526 105.01C101.31 104.625 100.768 104.598 100.468 104.958L97.5746 107.162C97.2745 107.522 97.3962 108.051 97.8124 108.197C100.114 108.069 101.385 109.753 103.678 111.469Z" fill="#FFF7E7"/>
<path d="M80.9861 111.469C80.9174 111.52 80.8205 111.464 80.8331 111.38C81.2643 108.518 81.6511 106.97 83.1379 105.01C83.3543 104.625 83.8959 104.598 84.196 104.958L87.0894 107.162C87.3895 107.522 87.2678 108.051 86.8516 108.197C84.5497 108.069 83.2788 109.753 80.9861 111.469Z" fill="#FFF7E7"/>
<path d="M46.7322 58.7458C46.712 55.9324 45.8821 53.4226 43.6962 51.5604C42.0364 50.1436 40.2148 49.3745 38.3122 49.1113C33.9807 54.637 31.4102 61.5795 31.4102 69.1292C31.4102 75.3431 33.1508 81.1521 36.1869 86.0705C36.3893 85.5038 36.5917 84.9776 36.7334 84.5525C36.1464 81.8605 35.4785 79.4519 35.0939 77.023C34.507 73.2583 35.3571 69.7364 37.5633 66.5991C38.798 64.8382 40.4374 63.5023 42.2388 62.3689C42.9877 61.9033 43.8581 61.6807 44.6677 61.3366C44.4653 61.4783 44.2629 61.62 44.0605 61.7617C44.6677 61.5593 45.2749 61.3973 45.8619 61.1747C46.1453 61.0735 46.4489 60.9318 46.6715 60.7294C47.0561 60.3853 47.1168 59.7983 47.0763 59.1911C46.9954 59.3328 46.9144 59.4542 46.8334 59.5757C46.8132 59.3328 46.7525 59.0494 46.7322 58.7458Z" fill="#31B164"/>
<path d="M42.259 62.389C40.4576 63.5022 38.8181 64.8583 37.5834 66.6193C35.3772 69.7565 34.5271 73.2581 35.1141 77.0431C35.4987 79.472 36.1464 81.8604 36.7536 84.5726L36.2071 86.0906C36.2678 86.1716 36.3285 86.2728 36.369 86.3538C36.5512 86.6371 36.7333 86.9408 36.9358 87.2241C37.7454 86.1716 38.555 85.0989 39.1622 83.9047C38.3728 81.7389 37.3001 79.6744 36.9358 77.3467C36.4702 74.2095 36.8953 71.2543 38.1907 68.3599C39.3646 65.7084 41.2065 63.7249 43.5746 62.1461C43.7568 62.0246 43.9187 61.9234 44.0807 61.802C44.2831 61.6603 44.4855 61.5186 44.6879 61.377C43.8783 61.7008 43.0079 61.9437 42.259 62.389Z" fill="#00AE70"/>
<path d="M81.0807 58.4637C81.0807 58.7471 81.0199 59.0304 80.939 59.3138C80.858 59.1923 80.7771 59.0507 80.6961 58.909C80.6556 59.5162 80.6961 60.1032 81.0807 60.4473C81.3033 60.6497 81.6069 60.7914 81.8903 60.8926C82.4773 61.1152 83.1047 61.2771 83.6917 61.4795C83.4893 61.3378 83.2869 61.1962 83.0845 61.0545C83.8941 61.3986 84.7644 61.6415 85.5133 62.107C87.3147 63.2405 88.934 64.5966 90.1687 66.3575C92.3546 69.515 93.1845 73.0166 92.5773 76.7814C92.1725 79.2102 91.5045 81.5986 90.8973 84.2906C91.0592 84.7764 91.2819 85.3634 91.5045 85.9908C94.5204 81.0724 96.2611 75.2836 96.2611 69.09C96.2611 61.4593 93.6298 54.4358 89.2174 48.9102C87.4362 49.1935 85.736 49.9424 84.1775 51.2783C81.951 53.1404 81.1211 55.6503 81.0807 58.4637Z" fill="#31B164"/>
<path fill-rule="evenodd" clip-rule="evenodd" d="M81.951 51.1352C80.5747 52.9973 79.5019 56.6204 80.6961 58.9278C80.6965 58.9219 80.6969 58.916 80.6973 58.9101C80.7158 58.9425 80.7333 58.9738 80.7504 59.0046C80.8076 59.1074 80.8613 59.2039 80.9388 59.3123C80.9995 59.0289 81.0602 58.7456 81.0804 58.4622C81.1209 55.6488 81.971 53.139 84.157 51.2971C85.7358 49.9814 87.436 49.2325 89.1969 48.9289C89.1767 48.9087 89.1615 48.8884 89.1463 48.8682C89.1311 48.848 89.1159 48.8277 89.0957 48.8075C89.091 48.8081 89.0863 48.8088 89.0816 48.8095C88.7215 48.3506 88.3417 47.9111 87.9422 47.4717C85.6146 47.9979 83.4084 49.1719 81.951 51.1352ZM82.5378 52.6928C81.6901 53.8764 81.1323 55.2422 80.9639 56.6635C81.1353 55.243 81.693 53.8773 82.5378 52.6928Z" fill="#259F73"/>
<path fill-rule="evenodd" clip-rule="evenodd" d="M38.4137 49.0099C38.3935 49.0301 38.3783 49.0504 38.3631 49.0706C38.3479 49.0908 38.3327 49.1111 38.3125 49.1313C40.2151 49.3945 42.0368 50.1636 43.6965 51.5804C45.8825 53.4426 46.7123 55.9524 46.7326 58.7658C46.7326 59.0492 46.7933 59.3326 46.854 59.6159C46.8945 59.5552 46.935 59.4894 46.9755 59.4236C47.0159 59.3579 47.0564 59.2921 47.0969 59.2314C48.3113 56.9442 47.2588 53.3212 45.9027 51.4388C44.3847 49.354 42.0368 48.1598 39.5674 47.6336C39.1626 48.0788 38.778 48.5444 38.4137 49.0099ZM39.6476 49.2121C39.2535 49.1333 38.8402 49.0545 38.4451 49.0131C38.8402 49.0535 39.2535 49.1137 39.6476 49.2121Z" fill="#259F73"/>
<path d="M90.1701 66.3763C88.9354 64.6153 87.3162 63.2592 85.5148 62.1257C84.7861 61.6602 83.8956 61.4173 83.0859 61.0732C83.2883 61.2149 83.4907 61.3566 83.6932 61.4983C83.8551 61.6197 84.0372 61.7412 84.1992 61.8424C86.5471 63.4414 88.3687 65.4452 89.5427 68.0967C90.8178 71.0113 91.2429 73.9665 90.7369 77.1038C90.3725 79.4314 89.2795 81.4959 88.4699 83.6617C89.0974 84.9166 89.9272 86.0298 90.7773 87.1228C90.9595 86.8395 91.1417 86.5561 91.3238 86.2727C91.3846 86.1917 91.425 86.1108 91.4858 86.0298C91.2631 85.4024 91.0607 84.8154 90.8785 84.3296C91.4858 81.6376 92.1537 79.2492 92.5585 76.8204C93.2062 73.0354 92.3763 69.5338 90.1701 66.3763Z" fill="#00AE70"/>
<path d="M82.7976 76.8818C81.5427 76.2138 80.2473 76.3757 78.9519 76.5782C78.5471 76.6591 78.2233 76.902 77.9399 77.1854C76.9279 78.2581 75.6527 78.8856 74.2561 79.3106C74.1751 79.3309 74.0739 79.3511 73.993 79.3713C73.7906 79.4523 73.5882 79.4928 73.3858 79.513C73.0619 79.5333 72.7988 79.6952 72.4952 79.7762C72.3535 79.8166 72.2118 79.8166 72.0701 79.8369C70.9974 79.8774 70.3497 80.4036 69.8437 81.0918C69.6817 80.9906 69.7222 81.0311 69.5603 80.9299C70.9771 77.2663 72.1916 73.5218 73.6489 69.8785C73.8715 69.3523 73.9525 68.7653 74.0335 68.1986C73.993 67.8342 73.993 67.4699 73.993 67.0853C73.9727 64.9398 73.7501 62.8551 72.4952 60.9929C71.6451 59.7178 70.4914 59.0094 68.9531 59.0498C68.4673 59.0701 68.0423 58.9891 67.5767 58.807C66.5849 58.4021 66.0385 58.6855 65.7753 59.7178C65.6741 60.0821 65.5932 60.4464 65.2693 60.6691C64.6014 61.1144 64.2168 61.8026 63.7715 62.43C63.4274 61.924 63.0833 61.4382 62.5773 61.0739C62.2535 60.8513 62.1725 60.4869 62.0713 60.1226C61.8082 59.1106 61.2617 58.807 60.2699 59.2118C59.8246 59.3939 59.3793 59.4749 58.8935 59.4547C57.3553 59.4142 56.2015 60.1024 55.3312 61.3775C54.0763 63.2194 53.8334 65.3042 53.7929 67.4497C53.7929 67.814 53.7727 68.1783 53.7322 68.5629C53.7929 69.1296 53.8941 69.7166 54.0965 70.2429C55.4729 73.7445 56.6266 77.3271 57.9422 80.8489C57.7196 80.9906 57.7601 80.9704 57.5374 81.112C57.0719 80.606 56.4849 80.2417 55.6146 80.2012C55.4729 80.181 55.3312 80.1607 55.1895 80.1405C54.8859 80.0595 54.6228 79.8976 54.2989 79.8571C54.0965 79.8369 53.8739 79.7964 53.6917 79.7154C53.6108 79.6952 53.5298 79.675 53.4286 79.6547C52.0522 79.2094 50.7771 78.582 49.7651 77.5092C49.4817 77.2056 49.1578 76.983 48.753 76.902C47.4374 76.6996 46.1622 76.5174 44.9073 77.1854C42.5594 78.3998 41.5069 81.0108 42.4582 83.5409C43.7941 87.1437 44.7252 90.868 45.9194 94.5518C45.6765 94.8149 45.2514 94.572 44.9681 94.8756C44.7454 95.3411 45.1097 95.584 45.4741 95.7459C46.0206 95.9888 46.2634 96.4341 46.3849 96.9806C47.4172 101.838 48.2875 106.696 48.5709 111.655C48.6721 113.315 48.8947 114.954 48.9757 116.614C49.0162 116.776 49.0364 116.918 49.1174 117.201C49.5222 118.921 52.6797 121.391 54.0358 122.382C56.1003 123.88 58.4483 124.447 60.9783 124.649C64.2978 124.892 67.6982 124.326 70.7545 123.03C73.1226 122.018 77.6565 119.67 78.3245 116.897C78.3852 116.614 78.4257 116.472 78.4661 116.31C78.5471 114.651 78.79 113.011 78.8912 111.351C79.215 106.392 80.1259 101.535 81.1784 96.677C81.2998 96.1103 81.5427 95.6852 82.0892 95.4423C82.4535 95.2804 82.8381 95.0578 82.5952 94.572C82.3321 94.2684 81.907 94.5113 81.6641 94.2481C82.8786 90.5644 83.8299 86.8401 85.2062 83.2575C86.1778 80.7072 85.1455 78.1164 82.7976 76.8818Z" fill="#69BC71"/>
<path d="M42.3796 91.9601L34.8906 89.3693L39.2221 83.54L42.3796 91.9601Z" fill="#F7F7F7"/>
<path d="M42.3796 91.961L34.8906 89.3702L40.6389 87.3057L42.3796 91.961Z" fill="#E5E5E5"/>
<path d="M85.207 91.6967L92.7163 89.1464L88.4253 83.2969L85.207 91.6967Z" fill="#F7F7F7"/>
<path d="M85.207 91.6973L92.7163 89.147L86.9882 87.042L85.207 91.6973Z" fill="#E5E5E5"/>
<path d="M81.6641 99.6324L88.7482 98.256L85.8336 91.7588L81.6641 99.6324Z" fill="#F7F7F7"/>
<path d="M81.6641 99.6321L88.7482 98.2557L83.6881 95.8066L81.6641 99.6321Z" fill="#E5E5E5"/>
<path d="M46.1232 99.8335L39.0391 98.4572L41.9739 91.96L46.1232 99.8335Z" fill="#F7F7F7"/>
<path d="M46.1232 99.8342L39.0391 98.4579L44.0992 96.0088L46.1232 99.8342Z" fill="#E5E5E5"/>
<path d="M88.7068 83.8241C89.1116 82.8525 89.4962 81.881 89.901 80.9297C91.581 76.9625 91.7631 72.9751 90.2046 68.9473C88.8485 65.4052 86.622 62.6727 83.1002 61.0939C82.4525 60.8308 81.825 60.5677 81.1166 60.2843C81.0559 60.0212 80.9952 59.7378 80.9344 59.4545C80.8535 58.1388 80.4487 56.8637 80.5904 55.5278C80.9952 51.9047 83.0192 49.5366 86.622 48.1198C87.0066 47.9578 87.4721 47.9376 87.6948 47.5125C87.7758 47.4923 87.877 47.4721 87.9579 47.4518C82.0072 40.8534 73.405 36.7041 63.8312 36.7041C54.1765 36.7041 45.5135 40.9141 39.5628 47.6138C39.7854 47.6542 39.9878 47.715 40.1902 47.7757C40.4129 48.1805 40.8784 48.221 41.263 48.3829C44.8456 49.82 46.8696 52.1881 47.234 55.8314C47.3756 57.147 46.9506 58.4424 46.8696 59.7378C46.8089 60.0212 46.7279 60.2843 46.6672 60.5677C45.9588 60.8511 45.3111 61.1142 44.6634 61.3773C41.1213 62.9156 38.8746 65.6481 37.4983 69.1699C35.9195 73.1978 36.0814 77.1852 37.7209 81.1726C38.1257 82.1441 38.49 83.1157 38.8949 84.0872C38.9151 84.1277 47.0518 107.546 47.1125 107.809C47.74 110.744 48.3269 113.699 48.9342 116.634C48.9544 116.027 49.0556 115.399 48.9949 114.792C48.6306 110.845 48.3067 106.898 47.8209 102.992C47.5376 100.705 47.3756 99.5105 46.3231 95.0576C45.8374 93.3978 45.3516 91.8191 44.8861 90.2403C44.6634 89.4712 44.4812 88.6818 44.2181 87.9329C43.7323 86.4958 43.2668 85.0587 42.7203 83.6621C41.6273 80.8082 42.9632 77.8734 45.8778 77.1245C46.8089 76.8816 47.8614 77.1447 48.8734 77.1852C48.9949 76.578 48.5293 76.1934 48.246 75.7683C46.3434 72.7323 46.7279 68.9878 49.1973 66.397C49.6021 65.9719 50.0271 65.6076 50.6141 65.4861C51.5249 64.8992 51.8083 63.8467 51.4642 62.6929C52.031 64.211 52.3751 65.81 53.0632 67.2673C53.1644 67.4697 53.6502 68.8663 53.9943 68.2186C54.055 68.1174 54.055 67.996 54.055 67.8745C54.0753 67.1459 54.0348 66.4172 54.1157 65.6885C54.2574 64.4336 54.561 63.1787 55.1682 62.0655C55.9171 60.6891 57.4149 59.5961 59.0342 59.5961C61.4428 59.5961 62.3334 61.7619 64.0741 62.9763C64.0336 62.7739 66.4625 59.1913 68.7294 59.2116C70.3486 59.2318 71.8262 60.3248 72.5751 61.7012C73.1823 62.8144 73.4859 64.0693 73.6074 65.3242C73.6883 66.0529 73.6479 66.7815 73.6479 67.5102C73.6479 67.6316 73.6479 67.7531 73.7086 67.8543C74.0527 68.502 74.5587 67.1054 74.6396 66.903C75.3481 65.4457 75.6922 63.8467 76.2791 62.3489C75.9148 63.5026 76.1982 64.5348 77.109 65.1421C77.696 65.2635 78.121 65.6278 78.5258 66.0529C80.9749 68.6639 81.319 72.3882 79.4164 75.4242C79.133 75.8493 78.6675 76.2339 78.789 76.8411C79.7807 76.8208 80.8535 76.5577 81.7845 76.8006C84.6992 77.5697 86.0351 80.5046 84.9016 83.3585C84.3551 84.7551 83.8693 86.1922 83.3633 87.6293C83.1002 88.3984 82.918 89.1676 82.6751 89.9367C82.1894 91.5155 81.7036 93.0942 81.1976 94.7337C80.1248 99.1866 79.9427 100.381 79.6391 102.668C79.1128 106.595 78.7687 110.521 78.3841 114.468C78.3234 115.075 78.4246 115.703 78.4449 116.31C79.0723 113.375 79.6795 110.44 80.3272 107.505C80.388 107.222 88.7068 83.8646 88.7068 83.8241Z" fill="#03674F"/>
<path d="M53.9334 79.9779C51.9093 78.8647 49.8448 77.3264 48.6911 75.2214C46.8087 71.8007 47.4564 67.9146 50.4115 65.3643C49.9662 65.6071 49.4602 65.7893 49.1161 66.1334C46.242 69.0278 46.0193 73.1366 48.5089 76.5775C48.6506 76.7597 48.772 76.9621 48.8935 77.1645C49.4602 77.63 49.9662 78.1563 50.5734 78.5408C51.4235 79.0469 53.7714 80.0184 53.9334 79.9779Z" fill="#00AE70"/>
<path d="M53.8543 68.3799C52.9435 66.1535 52.0529 63.9068 51.2028 61.8018C51.2433 62.6114 51.2837 63.6032 51.3445 64.6962C51.0611 64.8986 50.7373 65.1414 50.4134 65.3843C48.7942 66.2344 48.0048 67.6918 47.6 69.3717C47.2356 70.8898 47.3166 72.4888 47.8226 73.9663C48.3084 75.4236 49.199 76.7393 50.3122 77.7715C51.5266 78.905 53.0447 79.6944 54.6234 80.2004C55.0485 80.3421 55.4735 80.4635 55.8986 80.5647C56.1212 80.6052 56.3236 80.6659 56.5463 80.7064C56.7082 80.7267 56.9511 80.7064 57.0523 80.8481C57.7405 81.8804 58.4489 82.9329 59.1371 83.9854C59.1776 83.9651 59.2383 83.9449 59.2788 83.9247C57.4774 78.7431 55.6759 73.5615 53.8543 68.3799Z" fill="#002E0D"/>
<path d="M51.2004 67.9766C49.2168 70.5471 51.6659 76.5585 54.4996 77.3682C54.8234 76.6395 52.0707 68.7659 51.2004 67.9766Z" fill="#F7F7F7"/>
<path d="M73.7266 79.6364C75.7709 78.5434 77.8354 77.0051 79.0093 74.9204C80.912 71.4997 80.2845 67.6135 77.3496 65.043C77.7747 65.3061 78.3009 65.468 78.645 65.8121C81.4989 68.7267 81.6811 72.8356 79.1915 76.2562C79.0498 76.4384 78.9284 76.6408 78.7867 76.8432C78.22 77.3087 77.7139 77.835 77.0865 78.1993C76.2566 78.7053 73.8885 79.6769 73.7266 79.6364Z" fill="#00AE70"/>
<path d="M73.8904 68.0384C74.8012 65.8119 75.7323 63.5855 76.5824 61.4805C76.5419 62.2901 76.4812 63.2819 76.4204 64.3546C76.7038 64.5773 77.0276 64.7999 77.3313 65.0428C78.9303 65.9131 79.7196 67.3705 80.1042 69.0504C80.4483 70.5685 80.3673 72.1675 79.8411 73.645C79.3351 75.1023 78.4445 76.3977 77.3313 77.4503C76.0966 78.5837 74.5785 79.3529 72.9998 79.8589C72.5747 80.0006 72.1497 80.122 71.7246 80.203C71.502 80.2434 71.2996 80.3042 71.0769 80.3244C70.915 80.3446 70.6721 80.3244 70.5709 80.4661C69.8827 81.4984 69.1743 82.5509 68.4659 83.6034C68.4254 83.5831 68.3647 83.5629 68.3242 83.5427C70.1863 78.3813 72.0485 73.1997 73.8904 68.0384Z" fill="#002E0D"/>
<path d="M76.5409 67.6553C78.5042 70.2258 76.0146 76.2373 73.1607 77.0266C72.8774 76.2777 75.6705 68.4447 76.5409 67.6553Z" fill="#F7F7F7"/>
<path d="M63.7925 89.0264C61.7887 92.2244 60.1087 95.2807 58.8133 99.3693C57.4168 103.741 56.5666 107.607 56.1821 112.769C56.1011 113.781 56.5059 114.752 57.2548 115.42C58.4895 116.533 60.716 118.051 63.7925 118.051L63.7925 89.0264Z" fill="#E5E5E5"/>
<path d="M63.793 89.0264C65.7968 92.2244 67.3553 95.2807 68.6709 99.3693C70.0675 103.782 70.9379 107.648 71.3022 112.87C71.3629 113.841 71.0188 114.772 70.3104 115.44C69.177 116.533 67.0922 117.97 63.793 118.051L63.793 89.0264Z" fill="#F7F7F7"/>
<path d="M53.7336 112.99C52.1548 115.035 54.0979 119.852 56.3851 120.499C56.628 119.912 54.442 113.618 53.7336 112.99Z" fill="#002E0D"/>
<path d="M74.0151 112.728C75.5939 114.792 73.5901 119.589 71.3231 120.217C71.0802 119.63 73.3067 113.355 74.0151 112.728Z" fill="#002E0D"/>
</svg>
