<svg width="128" height="129" viewBox="0 0 128 129" fill="none" xmlns="http://www.w3.org/2000/svg">
<path d="M94.9986 49.0185C96.0266 32.0016 83.0652 17.3719 66.0483 16.3422C49.0315 15.3125 34.4032 28.2728 33.3751 45.2897C32.3471 62.3066 45.3085 76.9363 62.3254 77.966C79.3422 78.9957 93.9705 66.0354 94.9986 49.0185Z" fill="#D91C1C"/>
<path d="M57.6992 70.6569C58.2796 69.4052 57.7355 67.9199 56.4839 67.3394C55.2323 66.7589 53.7472 67.303 53.1668 68.5546C52.5864 69.8063 53.1305 71.2916 54.3821 71.8721C55.6337 72.4526 57.1188 71.9085 57.6992 70.6569Z" fill="#F6C6C6"/>
<path d="M42.7084 64.776C43.2888 63.5243 42.7447 62.0391 41.493 61.4585C40.2414 60.878 38.7563 61.4221 38.1759 62.6738C37.5955 63.9254 38.1396 65.4107 39.3912 65.9912C40.6429 66.5717 42.128 66.0276 42.7084 64.776Z" fill="#F6C6C6"/>
<path d="M72.5246 76.4728C73.105 75.2212 72.5609 73.7359 71.3093 73.1554C70.0577 72.5749 68.5726 73.119 67.9922 74.3706C67.4118 75.6223 67.9559 77.1075 69.2075 77.6881C70.4591 78.2686 71.9442 77.7245 72.5246 76.4728Z" fill="#F6C6C6"/>
<path d="M63.1907 56.6586C63.7711 55.4069 63.227 53.9216 61.9754 53.3411C60.7238 52.7606 59.2387 53.3047 58.6583 54.5563C58.0779 55.808 58.622 57.2932 59.8736 57.8738C61.1252 58.4543 62.6103 57.9102 63.1907 56.6586Z" fill="#F6C6C6"/>
<path d="M48.1999 50.7777C48.7803 49.526 48.2362 48.0407 46.9846 47.4602C45.733 46.8797 44.2478 47.4238 43.6674 48.6754C43.087 49.9271 43.6312 51.4124 44.8828 51.9929C46.1344 52.5734 47.6195 52.0293 48.1999 50.7777Z" fill="#F6C6C6"/>
<path d="M78.0161 62.4745C78.5965 61.2229 78.0524 59.7376 76.8008 59.1571C75.5492 58.5766 74.0641 59.1206 73.4837 60.3723C72.9033 61.624 73.4474 63.1092 74.699 63.6897C75.9506 64.2703 77.4357 63.7262 78.0161 62.4745Z" fill="#F6C6C6"/>
<path d="M68.6822 42.6602C69.2626 41.4086 68.7185 39.9233 67.4669 39.3428C66.2153 38.7623 64.7302 39.3064 64.1498 40.558C63.5694 41.8097 64.1135 43.2949 65.3651 43.8755C66.6167 44.456 68.1018 43.9119 68.6822 42.6602Z" fill="#F6C6C6"/>
<path d="M53.6914 36.7794C54.2718 35.5277 53.7277 34.0424 52.4761 33.4619C51.2245 32.8814 49.7393 33.4255 49.1589 34.6771C48.5785 35.9288 49.1227 37.4141 50.3743 37.9946C51.6259 38.5751 53.111 38.031 53.6914 36.7794Z" fill="#F6C6C6"/>
<path d="M83.5077 48.4762C84.088 47.2246 83.5439 45.7393 82.2923 45.1588C81.0407 44.5783 79.5556 45.1223 78.9752 46.374C78.3948 47.6257 78.9389 49.1109 80.1905 49.6914C81.4421 50.272 82.9273 49.7279 83.5077 48.4762Z" fill="#F6C6C6"/>
<path d="M74.1737 28.6619C74.7541 27.4103 74.21 25.925 72.9584 25.3445C71.7068 24.764 70.2217 25.3081 69.6413 26.5597C69.0609 27.8114 69.605 29.2966 70.8566 29.8772C72.1082 30.4577 73.5933 29.9136 74.1737 28.6619Z" fill="#F6C6C6"/>
<path d="M59.1829 22.7811C59.7633 21.5294 59.2192 20.0441 57.9676 19.4636C56.716 18.8831 55.2308 19.4272 54.6505 20.6788C54.0701 21.9305 54.6142 23.4158 55.8658 23.9963C57.1174 24.5768 58.6025 24.0327 59.1829 22.7811Z" fill="#F6C6C6"/>
<path d="M88.9992 34.4779C89.5796 33.2263 89.0354 31.741 87.7838 31.1605C86.5322 30.58 85.0471 31.124 84.4667 32.3757C83.8863 33.6273 84.4304 35.1126 85.682 35.6931C86.9336 36.2737 88.4188 35.7296 88.9992 34.4779Z" fill="#F6C6C6"/>
<path d="M52.2681 60.3516C52.8485 59.0999 52.3044 57.6147 51.0528 57.0341C49.8012 56.4536 48.3161 56.9977 47.7357 58.2494C47.1553 59.501 47.6994 60.9863 48.951 61.5668C50.2026 62.1473 51.6877 61.6032 52.2681 60.3516Z" fill="#F6C6C6"/>
<path d="M37.2773 54.4707C37.8577 53.2191 37.3136 51.7338 36.062 51.1533C34.8104 50.5728 33.3252 51.1168 32.7448 52.3685C32.1644 53.6201 32.7086 55.1054 33.9602 55.6859C35.2118 56.2664 36.6969 55.7224 37.2773 54.4707Z" fill="#F6C6C6"/>
<path d="M67.0936 66.1676C67.6739 64.9159 67.1298 63.4306 65.8782 62.8501C64.6266 62.2696 63.1415 62.8137 62.5611 64.0653C61.9807 65.317 62.5248 66.8023 63.7764 67.3828C65.028 67.9633 66.5132 67.4192 67.0936 66.1676Z" fill="#F6C6C6"/>
<path d="M83.5141 72.6093C84.0945 71.3577 83.5504 69.8724 82.2988 69.2919C81.0472 68.7114 79.562 69.2554 78.9816 70.5071C78.4012 71.7587 78.9454 73.244 80.197 73.8245C81.4486 74.4051 82.9337 73.861 83.5141 72.6093Z" fill="#F6C6C6"/>
<path d="M57.7596 46.3533C58.34 45.1016 57.7959 43.6164 56.5443 43.0358C55.2927 42.4553 53.8076 42.9994 53.2272 44.251C52.6468 45.5027 53.1909 46.988 54.4425 47.5685C55.6941 48.149 57.1793 47.6049 57.7596 46.3533Z" fill="#F6C6C6"/>
<path d="M42.7688 40.4724C43.3492 39.2207 42.8051 37.7355 41.5535 37.155C40.3019 36.5744 38.8168 37.1185 38.2364 38.3702C37.656 39.6218 38.2001 41.1071 39.4517 41.6876C40.7033 42.2681 42.1884 41.7241 42.7688 40.4724Z" fill="#F6C6C6"/>
<path d="M72.5851 52.1693C73.1655 50.9176 72.6213 49.4323 71.3697 48.8518C70.1181 48.2713 68.633 48.8154 68.0526 50.067C67.4722 51.3187 68.0163 52.804 69.2679 53.3845C70.5195 53.965 72.0047 53.4209 72.5851 52.1693Z" fill="#F6C6C6"/>
<path d="M89.0056 58.611C89.586 57.3594 89.0419 55.8741 87.7903 55.2936C86.5387 54.7131 85.0536 55.2571 84.4732 56.5088C83.8928 57.7604 84.4369 59.2457 85.6885 59.8262C86.9401 60.4067 88.4252 59.8627 89.0056 58.611Z" fill="#F6C6C6"/>
<path d="M63.2512 32.355C63.8316 31.1033 63.2874 29.6181 62.0358 29.0375C60.7842 28.457 59.2991 29.0011 58.7187 30.2527C58.1383 31.5044 58.6824 32.9897 59.934 33.5702C61.1856 34.1507 62.6708 33.6066 63.2512 32.355Z" fill="#F6C6C6"/>
<path d="M48.2603 26.4741C48.8407 25.2224 48.2966 23.7372 47.045 23.1567C45.7934 22.5761 44.3083 23.1202 43.7279 24.3719C43.1475 25.6235 43.6916 27.1088 44.9432 27.6893C46.1948 28.2698 47.6799 27.7258 48.2603 26.4741Z" fill="#F6C6C6"/>
<path d="M78.0766 38.171C78.657 36.9193 78.1128 35.434 76.8612 34.8535C75.6096 34.273 74.1245 34.8171 73.5441 36.0687C72.9637 37.3204 73.5078 38.8057 74.7595 39.3862C76.0111 39.9667 77.4962 39.4226 78.0766 38.171Z" fill="#F6C6C6"/>
<path d="M94.4971 44.6127C95.0775 43.361 94.5334 41.8758 93.2818 41.2953C92.0302 40.7148 90.5451 41.2588 89.9647 42.5105C89.3843 43.7621 89.9284 45.2474 91.18 45.8279C92.4316 46.4084 93.9167 45.8644 94.4971 44.6127Z" fill="#F6C6C6"/>
<path d="M68.5493 18.8497C69.1297 17.598 68.5855 16.1128 67.3339 15.5322C66.0823 14.9517 64.5972 15.4958 64.0168 16.7475C63.4364 17.9991 63.9805 19.4844 65.2321 20.0649C66.4837 20.6454 67.9689 20.1013 68.5493 18.8497Z" fill="#F6C6C6"/>
<path d="M83.6971 24.7922C84.2775 23.5405 83.7334 22.0552 82.4818 21.4747C81.2302 20.8942 79.745 21.4383 79.1646 22.6899C78.5842 23.9416 79.1284 25.4268 80.38 26.0074C81.6316 26.5879 83.1167 26.0438 83.6971 24.7922Z" fill="#F6C6C6"/>
<path fill-rule="evenodd" clip-rule="evenodd" d="M64 12.6809C82.7777 12.6802 98 27.902 98 46.6797C98 65.4574 82.7777 80.6802 64 80.6809C45.2223 80.6815 30 65.4597 30 46.6821C30 27.9044 45.2223 12.6815 64 12.6809ZM92.8097 46.6799C92.8097 30.7687 79.9112 17.8706 64 17.8711C48.0888 17.8717 35.1903 30.7707 35.1903 46.6819C35.1903 62.5931 48.0888 75.4912 64 75.4906C79.9112 75.4901 92.8097 62.591 92.8097 46.6799Z" fill="black"/>
<path d="M64.1196 30.8018C86.6454 30.8018 104.906 49.0745 104.906 71.5884C104.906 94.1023 86.6454 112.375 64.1196 112.375C41.5937 112.375 23.3329 94.1023 23.3329 71.5884C23.3329 49.0745 41.5937 30.8018 64.1196 30.8018Z" fill="url(#paint0_radial)"/>
<path d="M28.9034 62.189C19.6524 57.4057 20.2799 52.8193 18.3593 47.5443C17.7759 45.9418 17.751 43.9526 19.4496 44.0159C20.5204 44.0558 22.14 44.3544 24.5333 45.0968C32.4554 47.5546 32.8087 47.6992 39.4344 33.3865C44.7351 21.9364 59.1027 20.375 63.9999 20.375C68.7533 20.375 83.2649 21.9365 88.5656 33.3867C95.1913 47.6994 95.5445 47.5547 103.467 45.097C105.86 44.3545 107.48 44.056 108.55 44.0161C110.249 43.9528 110.224 45.942 109.641 47.5444C107.72 52.8195 108.961 57.4058 99.7099 62.1892C98.4999 62.8148 97.0809 62.8179 95.7761 62.4288C91.2086 61.0668 75.9088 55.335 63.9999 55.335C52.0911 55.335 37.4047 61.0667 32.8372 62.4287C31.5324 62.8177 30.1134 62.8147 28.9034 62.189Z" fill="black"/>
<path d="M106.812 56.2225C106.838 56.111 106.864 55.9993 106.889 55.8873C107.144 54.7696 107.404 53.6275 107.815 52.4511C108.375 50.8486 108.399 48.8594 106.768 48.9227C105.74 48.9626 104.186 49.2612 101.888 50.0037L101.839 50.0194C94.2813 52.4619 93.9301 52.5754 87.583 38.2933C82.4944 26.8432 68.5632 25.2817 64 25.2817C59.2986 25.2817 45.5057 26.843 40.4171 38.2932C34.0699 52.5753 33.7187 52.4618 26.1607 50.0192L26.112 50.0035C23.8145 49.261 22.2596 48.9625 21.2316 48.9226C19.601 48.8593 19.6248 50.8485 20.1849 52.4509C20.5308 53.4404 20.7905 54.4057 21.043 55.3525C20.1792 53.7815 19.7363 52.1862 19.278 50.5353C19.0071 49.5598 18.7309 48.5649 18.3593 47.5443C17.7759 45.9418 17.751 43.9526 19.4496 44.0159C20.5205 44.0558 22.1401 44.3544 24.5333 45.0968C32.4133 46.7483 32.8228 47.6686 39.4345 33.3865C44.7351 21.9364 59.1027 20.375 64 20.375C68.7533 20.375 83.2649 21.9365 88.5656 33.3867C95.1772 47.6688 95.5867 46.7483 103.416 45.1127C105.809 44.3702 107.48 44.056 108.55 44.0161C110.249 43.9528 110.224 45.942 109.641 47.5444C109.212 48.7208 108.941 49.8629 108.676 50.9806C108.25 52.7775 107.838 54.5111 106.812 56.2225Z" fill="url(#paint1_linear)"/>
<path d="M106.812 56.2225C106.838 56.111 106.864 55.9993 106.889 55.8873C107.144 54.7696 107.404 53.6275 107.815 52.4511C108.375 50.8486 108.399 48.8594 106.768 48.9227C105.74 48.9626 104.186 49.2612 101.888 50.0037L101.839 50.0194C94.2813 52.4619 93.9301 52.5754 87.583 38.2933C82.4944 26.8432 68.5632 25.2817 64 25.2817C59.2986 25.2817 45.5057 26.843 40.4171 38.2932C34.0699 52.5753 33.7187 52.4618 26.1607 50.0192L26.112 50.0035C23.8145 49.261 22.2596 48.9625 21.2316 48.9226C19.601 48.8593 19.6248 50.8485 20.1849 52.4509C20.5308 53.4404 20.7906 54.4057 21.043 55.3525C20.1792 53.7815 19.7363 52.1862 19.278 50.5353C19.0071 49.5598 18.7309 48.5649 18.3593 47.5443C17.7759 45.9418 17.751 43.9526 19.4496 44.0159C20.5205 44.0558 22.1401 44.3544 24.5333 45.0968C32.4133 46.7483 32.8228 47.6686 39.4345 33.3865C44.7351 21.9364 59.1027 20.375 64 20.375C68.7533 20.375 83.2649 21.9365 88.5656 33.3867C95.1772 47.6688 95.5867 46.7483 103.416 45.1127C105.809 44.3702 107.48 44.056 108.55 44.0161C110.249 43.9528 110.224 45.942 109.641 47.5444C109.212 48.7208 108.941 49.8629 108.676 50.9806C108.25 52.7775 107.838 54.5111 106.812 56.2225Z" fill="#9E4C00" fill-opacity="0.45"/>
<path opacity="0.5" fill-rule="evenodd" clip-rule="evenodd" d="M85.8256 106.124C79.5402 110.083 72.0986 112.374 64.1222 112.374C54.5953 112.374 45.8313 109.106 38.889 103.63C37.0325 94.1083 34.4049 80.4822 33.4238 68.5869C33.1215 64.8106 33.075 61.2741 33.2378 58.0073C33.6331 56.9583 34.0051 55.8494 34.3307 54.7106C37.6094 43.7414 48.5616 34.4805 52.631 34.4805L74.0006 34.4805C77.7677 34.4805 87.4177 42.4227 91.4406 52.253C92.0219 56.9583 92.2544 62.4429 91.7428 68.5869C90.7041 81.203 87.829 95.8896 85.9778 105.346C85.9263 105.609 85.8755 105.869 85.8256 106.124Z" fill="url(#paint2_linear)"/>
<path d="M24.7471 61.2238C50.2618 49.4478 87.9205 56.3172 103.56 61.2238C104.296 64.1677 104.48 66.5394 104.48 67.3573C72.2981 57.3861 54.6496 57.5888 23.5205 67.3573L24.7471 61.2238Z" fill="#9E1C1C"/>
<g opacity="0.68">
<path d="M70.8017 45.1174C70.2702 43.1537 69.4224 44.0685 70.0931 41.3974C70.7511 38.7264 70.7637 36.8238 66.1575 35.2504C65.917 35.165 65.6892 35.104 65.4488 35.0431C64.9932 34.9089 64.487 34.8357 63.9429 34.8357C63.3987 34.8235 62.8926 34.8967 62.437 35.0309C62.2092 35.0918 61.9688 35.1528 61.7283 35.2382C57.122 36.7994 57.122 38.702 57.7674 41.373C58.4255 44.0563 57.5902 43.1293 57.0461 45.093C56.5526 46.8493 59.0202 47.3859 60.1718 47.4957C59.8048 48.1543 59.4125 48.9959 59.4758 49.3496C59.5897 49.9716 59.8934 50.0326 60.7286 50.0326C61.5638 50.0326 62.437 48.2031 62.437 48.2031C62.437 48.2031 62.1333 49.4471 62.07 49.8374C62.0067 50.2277 63.3861 50.5936 64.0062 50.5936C64.6389 50.5936 64.7275 50.0448 64.7275 49.4471C64.7275 48.8617 65.4235 48.3007 65.4235 48.3007C65.4235 48.3007 65.5121 49.2154 65.8664 49.8984C66.2207 50.5814 67.7772 49.8374 68.2581 49.6789C68.5745 49.5691 67.9418 48.325 67.4862 47.5079C68.5618 47.4469 71.3079 46.9712 70.8017 45.1174ZM62.6521 42.7147C62.5635 43.9343 62.1965 44.7149 60.678 44.7027C59.1468 44.7027 57.7548 43.5562 59.6656 40.69C60.3743 39.6411 62.7533 41.5072 62.6521 42.7147ZM63.9049 46.2151C62.5382 46.0443 62.8293 45.776 63.133 44.6173C63.5 43.2147 64.2972 43.8733 64.6515 44.7881C65.0059 45.7028 65.2716 46.3858 63.9049 46.2151ZM65.1957 42.7269C65.1071 41.5072 67.4862 39.6655 68.1949 40.7144C70.1057 43.5928 68.6884 44.7271 67.1698 44.7271C65.6513 44.7149 65.2843 43.9343 65.1957 42.7269Z" fill="white"/>
<path d="M77.9518 36.3479C77.3824 34.7624 76.4206 35.1039 76.3067 35.1527C76.37 35.1283 76.6231 34.9575 76.8509 34.238C77.1166 33.4086 76.4713 32.1036 75.3956 32.0304C74.32 31.9694 74.7755 33.2744 74.5984 33.8111C74.4212 34.3477 72.6242 35.4576 72.6242 35.4576L70.9538 36.4455C71.46 37.4456 71.3841 38.5677 71.1057 39.8605L73.7252 38.3116C74.1681 38.2628 75.0413 38.214 75.9651 38.3238C77.2812 38.4823 78.5593 38.0433 77.9518 36.3479Z" fill="white"/>
<path d="M52.9841 37.8114L56.9703 40.1897C56.654 38.8603 56.5148 37.6894 56.945 36.6649L54.4141 35.1526C54.7431 34.4208 55.1354 33.1036 54.1484 32.5303C52.7563 31.701 51.7313 32.2986 51.2884 33.0304C50.8455 33.7622 51.9844 35.4209 51.9844 35.4209C51.9844 35.4209 49.5547 35.2989 49.9344 37.3723C50.2128 38.9091 51.7313 39.2018 52.9841 37.8114Z" fill="white"/>
<path d="M75.4462 48.2762C74.902 48.3128 74.4591 48.1177 74.244 48.0079L74.0795 47.9103L71.789 46.5443C71.4853 47.6176 69.9414 48.0933 68.8151 48.2762L72.5103 50.4838C72.5103 50.4838 73.2063 51.3132 73.5353 52.1303C73.8643 52.9475 74.9779 53.3012 75.5348 52.1303C76.0916 50.9717 75.3576 50.2765 75.3576 50.2765C75.3576 50.2765 75.3576 50.2765 75.927 50.2155C76.4965 50.1545 77.8885 49.5203 77.4456 48.4348C77.028 47.3371 76.2308 48.2275 75.4462 48.2762Z" fill="white"/>
<path d="M56.1353 46.227L53.4399 47.8247C53.4399 47.8247 52.2883 48.4711 51.4151 48.4711C50.5419 48.4711 49.6561 48.9468 50.1243 50.1908C50.5926 51.4349 51.7188 50.7031 51.7188 50.7031C51.7188 50.7031 51.0608 52.7399 52.5161 52.618C53.984 52.496 53.9967 51.2398 54.7559 50.5445L58.7675 48.1784C57.5906 47.9223 56.2239 47.3735 56.1353 46.227Z" fill="white"/>
</g>
<path d="M49.1145 27.2555C46.7491 28.1824 45.0289 29.4376 44.7818 28.8069C44.5347 28.1762 46.1524 26.6598 48.5178 25.7329C50.8832 24.8061 53.1006 24.8197 53.3477 25.4504C53.5948 26.0811 51.4799 26.3287 49.1145 27.2555Z" fill="white"/>
<path d="M22 103.175C22 110.078 27.5964 115.676 34.5 115.677C41.4036 115.679 47 110.083 47 103.18C47 96.2761 41.4036 90.6786 34.5 90.6772C27.5964 90.6758 22 96.2711 22 103.175Z" fill="#E9BF80"/>
<path fill-rule="evenodd" clip-rule="evenodd" d="M34.5 88.6767C42.5081 88.6784 49 95.1716 49 103.18C49 111.188 42.5081 117.678 34.5 117.677C26.4919 117.675 20 111.182 20 103.174C20 95.1656 26.4919 88.6751 34.5 88.6767ZM44.5694 103.179C44.5694 97.6176 40.0612 93.1084 34.5 93.1073C28.9388 93.1061 24.4306 97.6135 24.4306 103.175C24.4306 108.736 28.9388 113.245 34.5 113.246C40.0612 113.247 44.5694 108.74 44.5694 103.179Z" fill="black"/>
<path d="M80 103.175C80 110.078 85.5964 115.676 92.5 115.677C99.4036 115.679 105 110.083 105 103.18C105 96.2761 99.4036 90.6786 92.5 90.6772C85.5964 90.6758 80 96.2711 80 103.175Z" fill="#E9BF80"/>
<path fill-rule="evenodd" clip-rule="evenodd" d="M92.5 88.6767C100.508 88.6784 107 95.1716 107 103.18C107 111.188 100.508 117.678 92.5 117.677C84.4919 117.675 78 111.182 78 103.174C78 95.1656 84.4919 88.6751 92.5 88.6767ZM102.569 103.179C102.569 97.6176 98.0612 93.1084 92.5 93.1073C86.9388 93.1061 82.4306 97.6135 82.4306 103.175C82.4306 108.736 86.9388 113.245 92.5 113.246C98.0612 113.247 102.569 108.74 102.569 103.179Z" fill="black"/>
<defs>
<radialGradient id="paint0_radial" cx="0" cy="0" r="1" gradientUnits="userSpaceOnUse" gradientTransform="translate(64.1138 70.7331) rotate(89.9917) scale(39.802 78.5067)">
<stop offset="0.0180412" stop-color="#00000F"/>
<stop offset="0.5206" stop-color="#010733"/>
<stop offset="1" stop-color="#000113"/>
</radialGradient>
<linearGradient id="paint1_linear" x1="34.4078" y1="62.7045" x2="34.4078" y2="19.729" gradientUnits="userSpaceOnUse">
<stop offset="0.0180412" stop-color="#FFC600"/>
<stop offset="0.514653" stop-color="#FFF300"/>
<stop offset="1" stop-color="#FF8300"/>
</linearGradient>
<linearGradient id="paint2_linear" x1="62.5854" y1="31.4138" x2="62.5854" y2="112.374" gradientUnits="userSpaceOnUse">
<stop stop-color="#121E69" stop-opacity="0"/>
<stop offset="0.541667" stop-color="#000849"/>
</linearGradient>
</defs>
</svg>
