<svg width="129" height="129" viewBox="0 0 129 129" fill="none" xmlns="http://www.w3.org/2000/svg">
<path d="M33.363 46.8623C33.363 63.9382 47.2058 77.7805 64.2817 77.78C81.3576 77.7794 95.2004 63.9361 95.2004 46.8601C95.2004 29.7842 81.3577 15.9419 64.2817 15.9425C47.2058 15.9431 33.363 29.7864 33.363 46.8623Z" fill="#EE8781"/>
<path fill-rule="evenodd" clip-rule="evenodd" d="M91.6201 46.8604C91.6201 31.7616 79.3802 19.5221 64.2815 19.5227C49.1828 19.5232 36.9428 31.7635 36.9428 46.8623C36.9428 61.961 49.1827 74.2005 64.2815 74.2C79.3802 74.1995 91.6201 61.9591 91.6201 46.8604ZM64.2815 12.3625C83.3346 12.3619 98.7803 27.807 98.7803 46.8601C98.7803 65.9133 83.3346 81.3595 64.2815 81.3601C45.2283 81.3608 29.7827 65.9157 29.7827 46.8625C29.7827 27.8094 45.2283 12.3632 64.2815 12.3625Z" fill="#EE8781"/>
<path d="M25.7827 71.864C25.7827 93.127 43.0197 110.363 64.2827 110.363C85.5457 110.362 102.783 93.1243 102.783 71.8613C102.783 50.5984 85.5457 33.3619 64.2827 33.3627C43.0198 33.3634 25.7827 50.6011 25.7827 71.864Z" fill="url(#paint0_linear)"/>
<path d="M23.9977 102.858C23.9977 109.642 29.4977 115.142 36.2823 115.143C43.067 115.144 48.567 109.647 48.567 102.863C48.567 96.08 43.067 90.58 36.2823 90.5786C29.4977 90.5772 23.9977 96.0751 23.9977 102.858Z" fill="#A8502A"/>
<path fill-rule="evenodd" clip-rule="evenodd" d="M36.2828 88.3642C44.2909 88.3659 50.7827 94.8577 50.7827 102.864C50.7827 110.871 44.2909 117.36 36.2828 117.358C28.2747 117.357 21.7828 110.865 21.7828 102.858C21.7828 94.8518 28.2747 88.3626 36.2828 88.3642ZM46.3522 102.863C46.3522 97.3033 41.844 92.795 36.2828 92.7939C30.7216 92.7927 26.2134 97.2992 26.2134 102.859C26.2134 108.419 30.7216 112.928 36.2828 112.929C41.844 112.93 46.3522 108.423 46.3522 102.863Z" fill="black"/>
<path d="M80.9977 102.858C80.9977 109.642 86.4977 115.142 93.2823 115.143C100.067 115.144 105.567 109.647 105.567 102.863C105.567 96.08 100.067 90.58 93.2823 90.5786C86.4977 90.5772 80.9977 96.0751 80.9977 102.858Z" fill="#A8502A"/>
<path fill-rule="evenodd" clip-rule="evenodd" d="M93.2825 88.3642C101.291 88.3659 107.782 94.8577 107.782 102.864C107.782 110.871 101.291 117.36 93.2825 117.358C85.2744 117.357 78.7826 110.865 78.7826 102.858C78.7826 94.8518 85.2744 88.3626 93.2825 88.3642ZM103.352 102.863C103.352 97.3033 98.8437 92.795 93.2825 92.7939C87.7214 92.7927 83.2131 97.2992 83.2131 102.859C83.2131 108.419 87.7214 112.928 93.2825 112.929C98.8437 112.93 103.352 108.423 103.352 102.863Z" fill="black"/>
<defs>
<linearGradient id="paint0_linear" x1="102.783" y1="71.8613" x2="35.9132" y2="45.8353" gradientUnits="userSpaceOnUse">
<stop stop-color="#DC726B"/>
<stop offset="1" stop-color="#A84F29"/>
</linearGradient>
</defs>
</svg>
