<svg width="128" height="128" viewBox="0 0 128 128" fill="none" xmlns="http://www.w3.org/2000/svg">
<path d="M51 64.0086C51 51.8583 41.3741 42.0067 29.5 42.0043C17.6259 42.0019 8 51.8497 8 64C8 76.1503 17.6259 86.0019 29.5 86.0043C41.3741 86.0067 51 76.1589 51 64.0086Z" fill="white"/>
<mask id="mask0" mask-type="alpha" maskUnits="userSpaceOnUse" x="8" y="42" width="43" height="45">
<path d="M51 64.0086C51 51.8583 41.3741 42.0067 29.5 42.0043C17.6259 42.0019 8 51.8497 8 64C8 76.1503 17.6259 86.0019 29.5 86.0043C41.3741 86.0067 51 76.1589 51 64.0086Z" fill="white"/>
</mask>
<g mask="url(#mask0)">
<path d="M29 63.5005L54.5 48.345L54.5 78.6559L29 63.5005Z" fill="#FFD84F"/>
<path d="M3 48.5005L28.5 33.345L28.5 63.6559L3 48.5005Z" fill="#F85151"/>
<path d="M29.0664 63.9029L29.2166 94.4755L3.12081 79.0561L29.0664 63.9029Z" fill="#48A7FF"/>
<path d="M35 63.5022C35 60.4647 32.5376 58.0017 29.5 58.0011C26.4624 58.0005 24 60.4624 24 63.5C24 66.5376 26.4624 69.0005 29.5 69.0011C32.5376 69.0017 35 66.5398 35 63.5022Z" fill="white"/>
</g>
<path fill-rule="evenodd" clip-rule="evenodd" d="M48.9134 64.5014C48.9134 75.2218 40.2224 83.9153 29.5 83.9174C18.7776 83.9196 10.0866 75.2295 10.0866 64.5092C10.0866 53.7888 18.7776 45.0953 29.5 45.0931C40.2224 45.091 48.9134 53.781 48.9134 64.5014ZM29.5 91.0053C44.1349 91.0024 56 79.1362 56 64.5C56 49.8638 44.1349 38.0024 29.5 38.0053C14.8651 38.0082 3 49.8744 3 64.5106C3 79.1468 14.8651 91.0082 29.5 91.0053Z" fill="black"/>
<path d="M76 64.0086C76 51.8583 85.6259 42.0067 97.5 42.0043C109.374 42.0019 119 51.8497 119 64C119 76.1503 109.374 86.0019 97.5 86.0043C85.6259 86.0067 76 76.1589 76 64.0086Z" fill="white"/>
<mask id="mask1" mask-type="alpha" maskUnits="userSpaceOnUse" x="76" y="42" width="43" height="45">
<path d="M76 64.0086C76 51.8583 85.6259 42.0067 97.5 42.0043C109.374 42.0019 119 51.8497 119 64C119 76.1503 109.374 86.0019 97.5 86.0043C85.6259 86.0067 76 76.1589 76 64.0086Z" fill="white"/>
</mask>
<g mask="url(#mask1)">
<path d="M98 63.5005L72.5 48.345L72.5 78.6559L98 63.5005Z" fill="#FFD84F"/>
<path d="M124 48.5005L98.5 33.345L98.5 63.6559L124 48.5005Z" fill="#F85151"/>
<path d="M97.9336 63.9029L97.7834 94.4755L123.879 79.0561L97.9336 63.9029Z" fill="#48A7FF"/>
<path d="M92 63.5022C92 60.4647 94.4624 58.0017 97.5 58.0011C100.538 58.0005 103 60.4624 103 63.5C103 66.5376 100.538 69.0005 97.5 69.0011C94.4624 69.0017 92 66.5398 92 63.5022Z" fill="white"/>
</g>
<path fill-rule="evenodd" clip-rule="evenodd" d="M116.913 64.5014C116.913 75.2218 108.222 83.9153 97.5 83.9174C86.7776 83.9196 78.0866 75.2295 78.0866 64.5092C78.0866 53.7888 86.7776 45.0953 97.5 45.0931C108.222 45.091 116.913 53.781 116.913 64.5014ZM97.5 91.0053C112.135 91.0024 124 79.1362 124 64.5C124 49.8638 112.135 38.0024 97.5 38.0053C82.8651 38.0082 71 49.8744 71 64.5106C71 79.1468 82.8651 91.0082 97.5 91.0053Z" fill="black"/>
</svg>
