<svg width="129" height="129" viewBox="0 0 129 129" fill="none" xmlns="http://www.w3.org/2000/svg">
<path fill-rule="evenodd" clip-rule="evenodd" d="M77.2989 30.6681H87.0784C90.1033 30.6716 93.0033 31.8747 95.1423 34.0137C97.2812 36.1526 98.4844 39.0526 98.4878 42.0775V97.4948C98.4844 100.52 97.2812 103.42 95.1423 105.559C93.0033 107.698 90.1033 108.901 87.0784 108.904V117.054H74.039V113.794H70.7792V117.054H57.7399V113.794H54.48V117.054H41.4407V108.904C38.4158 108.901 35.5157 107.698 33.3768 105.559C31.2379 103.42 30.0347 100.52 30.0312 97.4948V42.0775C30.0347 39.0526 31.2379 36.1526 33.3768 34.0137C35.5157 31.8747 38.4158 30.6716 41.4407 30.6681H51.2202V25.7784H43.0706V12.739H85.4485V25.7784H77.2989V30.6681ZM69.1493 17.6288H59.3698V20.8886H69.1493V17.6288ZM41.4407 99.1247H87.0784V95.8649H41.4407V99.1247ZM41.4407 43.7075H87.0784V40.4476H41.4407V43.7075ZM58.7593 72.487C56.2454 71.9405 54.9338 69.5359 54.1687 66.257C51.2176 71.0661 50.8897 76.5311 53.0757 80.6845C57.4477 89.2098 70.6729 89.2098 75.3728 80.7938C77.5588 76.7497 77.5588 71.5033 73.8426 67.2407C74.8263 74.5637 69.1427 73.2521 70.345 68.6616C70.4186 68.3579 70.5046 68.0388 70.5946 67.7049C71.5735 64.0724 73.0237 58.6913 64.115 52.4853C64.527 55.1863 62.753 57.7915 60.9295 60.4694C58.3994 64.185 55.7739 68.0407 58.7593 72.487Z" fill="white"/>
</svg>
