<svg width="128" height="128" viewBox="0 0 128 128" fill="none" xmlns="http://www.w3.org/2000/svg">
<path d="M32.5803 46.501C32.5803 63.5769 46.4236 77.4192 63.5001 77.4186C80.5766 77.418 94.4199 63.5748 94.4199 46.4988C94.4199 29.4229 80.5767 15.5806 63.5001 15.5812C46.4236 15.5818 32.5803 29.425 32.5803 46.501Z" fill="#565656"/>
<path fill-rule="evenodd" clip-rule="evenodd" d="M90.8396 46.499C90.8396 31.4003 78.5993 19.1607 63.5 19.1612C48.4007 19.1617 36.1604 31.402 36.1604 46.5008C36.1604 61.5995 48.4007 73.839 63.5 73.8386C78.5993 73.8381 90.8396 61.5978 90.8396 46.499ZM63.5 12.0011C82.5538 12.0005 98 27.4456 98 46.4988C98 65.552 82.5538 80.9981 63.5 80.9987C44.4462 80.9993 29 65.5541 29 46.501C29 27.4478 44.4462 12.0017 63.5 12.0011Z" fill="black"/>
<path d="M25 71.5027C25 92.7657 42.237 110.002 63.5 110.001C84.763 110.001 102 92.763 102 71.5C102 50.237 84.763 33.0006 63.5 33.0013C42.237 33.0021 25 50.2397 25 71.5027Z" fill="url(#paint0_linear)"/>
<path fill-rule="evenodd" clip-rule="evenodd" d="M101.969 40.7126C105.829 42.8461 107.23 47.7053 105.096 51.5661L102.157 56.8844C100.024 60.7452 95.1645 62.1454 91.3037 60.012L76.298 51.7198C67.898 47.5057 57.3386 48.6718 51.9198 51.0911C51.7447 51.2066 51.5637 51.3162 51.3769 51.4194L35.8275 60.012C31.9667 62.1454 27.1075 60.7452 24.9741 56.8844L22.0352 51.5661C19.9017 47.7053 21.302 42.8461 25.1627 40.7126L37.4895 33.9009C38.0277 33.4927 38.7285 33.1079 39.5202 32.7787L40.7121 32.1201C43.7489 30.442 47.4035 30.9502 49.8633 33.1224C51.5358 33.6158 53.5364 34.0413 55.1659 33.9354C55.6724 33.9025 56.3964 33.7553 57.2753 33.5767C58.9448 33.2375 61.1735 32.7845 63.5338 32.7846C65.9002 32.7846 68.3936 33.2611 70.1716 33.6009C71.1567 33.7891 71.9222 33.9354 72.3247 33.9354C73.6499 33.9354 74.9802 33.4549 76.4788 32.9135C77.1269 32.6794 77.8064 32.4339 78.5307 32.211C80.8795 30.8436 83.8674 30.71 86.4191 32.1201L89.0383 33.5674C89.0508 33.5738 89.0632 33.5803 89.0757 33.5867C89.0756 33.5871 89.0755 33.5875 89.0755 33.588L101.969 40.7126Z" fill="url(#paint1_linear)"/>
<path d="M105.096 51.5661L103.44 50.6512L105.096 51.5661ZM101.969 40.7126L102.883 39.057L102.883 39.057L101.969 40.7126ZM102.157 56.8844L103.813 57.7993L102.157 56.8844ZM91.3037 60.012L90.3888 61.6676L91.3037 60.012ZM76.298 51.7198L77.2129 50.0642L77.1799 50.0459L77.1462 50.029L76.298 51.7198ZM51.9198 51.0911L51.1486 49.3638L51.0073 49.4269L50.8781 49.5121L51.9198 51.0911ZM51.3769 51.4194L52.2918 53.075L52.2918 53.075L51.3769 51.4194ZM35.8275 60.012L36.7424 61.6676L36.7424 61.6676L35.8275 60.012ZM24.9741 56.8844L23.3184 57.7993L23.3184 57.7993L24.9741 56.8844ZM22.0352 51.5661L23.6908 50.6512L23.6908 50.6512L22.0352 51.5661ZM25.1627 40.7126L24.2478 39.057L25.1627 40.7126ZM37.4895 33.9009L38.4044 35.5566L38.5238 35.4905L38.6326 35.4081L37.4895 33.9009ZM39.5202 32.7787L40.2464 34.5254L40.3432 34.4851L40.4351 34.4344L39.5202 32.7787ZM40.7121 32.1201L41.627 33.7757L41.627 33.7757L40.7121 32.1201ZM49.8633 33.1224L48.6112 34.5403L48.9257 34.818L49.3281 34.9367L49.8633 33.1224ZM55.1659 33.9354L55.2886 35.823L55.1659 33.9354ZM57.2753 33.5767L56.8986 31.723L57.2753 33.5767ZM63.5338 32.7846L63.5338 34.6762L63.5338 32.7846ZM70.1716 33.6009L69.8165 35.4589L69.8165 35.4589L70.1716 33.6009ZM72.3247 33.9354L72.3247 32.0438L72.3247 32.0438L72.3247 33.9354ZM76.4788 32.9135L75.8361 31.1344L76.4788 32.9135ZM78.5307 32.211L79.0871 34.0189L79.2947 33.955L79.4824 33.8458L78.5307 32.211ZM86.4191 32.1201L85.5042 33.7757L86.4191 32.1201ZM89.0383 33.5674L88.1234 35.2231L88.1483 35.2369L88.1737 35.2499L89.0383 33.5674ZM89.0757 33.5867L90.9527 33.8213L91.1165 32.5102L89.942 31.9051L89.0757 33.5867ZM89.0755 33.588L87.1985 33.3534L87.0396 34.6242L88.1606 35.2436L89.0755 33.588ZM106.752 52.481C109.39 47.7058 107.659 41.6957 102.883 39.057L101.054 42.3683C104 43.9964 105.069 47.7048 103.44 50.6512L106.752 52.481ZM103.813 57.7993L106.752 52.481L103.44 50.6512L100.502 55.9695L103.813 57.7993ZM90.3888 61.6676C95.164 64.3063 101.174 62.5744 103.813 57.7993L100.502 55.9695C98.8734 58.9159 95.165 59.9845 92.2187 58.3563L90.3888 61.6676ZM75.3831 53.3755L90.3888 61.6676L92.2187 58.3563L77.2129 50.0642L75.3831 53.3755ZM77.1462 50.029C72.6092 47.7529 67.5512 46.9559 62.9619 47.0265C58.3834 47.0969 54.1293 48.033 51.1486 49.3638L52.691 52.8184C55.1291 51.7298 58.8642 50.8732 63.0201 50.8093C67.1651 50.7455 71.5868 51.4726 75.4497 53.4106L77.1462 50.029ZM50.8781 49.5121C50.7442 49.6005 50.6054 49.6845 50.462 49.7638L52.2918 53.075C52.5219 52.9479 52.7452 52.8127 52.9615 52.67L50.8781 49.5121ZM50.462 49.7638L34.9126 58.3563L36.7424 61.6676L52.2918 53.075L50.462 49.7638ZM34.9126 58.3563C31.9662 59.9845 28.2579 58.9159 26.6297 55.9695L23.3184 57.7993C25.9571 62.5744 31.9673 64.3063 36.7424 61.6676L34.9126 58.3563ZM26.6297 55.9695L23.6908 50.6512L20.3795 52.481L23.3184 57.7993L26.6297 55.9695ZM23.6908 50.6512C22.0627 47.7048 23.1313 43.9964 26.0776 42.3683L24.2478 39.057C19.4727 41.6957 17.7408 47.7058 20.3795 52.481L23.6908 50.6512ZM26.0776 42.3683L38.4044 35.5566L36.5745 32.2453L24.2478 39.057L26.0776 42.3683ZM38.6326 35.4081C39.0099 35.1219 39.5598 34.8109 40.2464 34.5254L38.794 31.0321C37.8971 31.405 37.0455 31.8635 36.3463 32.3938L38.6326 35.4081ZM40.4351 34.4344L41.627 33.7757L39.7972 30.4644L38.6053 31.1231L40.4351 34.4344ZM41.627 33.7757C43.942 32.4965 46.7319 32.8807 48.6112 34.5403L51.1154 31.7045C48.0751 29.0196 43.5558 28.3874 39.7972 30.4644L41.627 33.7757ZM49.3281 34.9367C51.0513 35.4451 53.3149 35.9513 55.2886 35.823L55.0432 32.0478C53.7579 32.1313 52.0202 31.7865 50.3986 31.3081L49.3281 34.9367ZM55.2886 35.823C55.9554 35.7797 56.8333 35.5968 57.652 35.4304L56.8986 31.723C55.9594 31.9139 55.3894 32.0253 55.0432 32.0478L55.2886 35.823ZM57.652 35.4304C59.3358 35.0883 61.3892 34.6762 63.5338 34.6762L63.5338 30.8929C60.9579 30.8929 58.5538 31.3866 56.8986 31.723L57.652 35.4304ZM63.5338 34.6762C65.6925 34.6762 68.0125 35.1141 69.8165 35.4589L70.5267 31.7429C68.7747 31.4081 66.1078 30.8929 63.5338 30.8929L63.5338 34.6762ZM69.8165 35.4589C70.3012 35.5515 70.7653 35.6403 71.1591 35.7052C71.5241 35.7653 71.9527 35.827 72.3247 35.827L72.3247 32.0438C72.3267 32.0438 72.2836 32.0432 72.1747 32.0306C72.0719 32.0187 71.9401 31.9996 71.7741 31.9723C71.4383 31.917 71.0271 31.8385 70.5267 31.7429L69.8165 35.4589ZM72.3247 35.827C74.0448 35.827 75.7038 35.2047 77.1215 34.6926L75.8361 31.1344C74.2566 31.705 73.2549 32.0438 72.3247 32.0438L72.3247 35.827ZM77.1215 34.6926C77.7747 34.4566 78.4129 34.2264 79.0871 34.0189L77.9742 30.4031C77.2 30.6414 76.4791 30.9021 75.8361 31.1344L77.1215 34.6926ZM87.334 30.4644C84.1759 28.7193 80.4791 28.8879 77.579 30.5762L79.4824 33.8458C81.2799 32.7993 83.5588 32.7007 85.5042 33.7757L87.334 30.4644ZM89.9532 31.9118L87.334 30.4644L85.5042 33.7757L88.1234 35.2231L89.9532 31.9118ZM88.1737 35.2499C88.1856 35.256 88.1975 35.2621 88.2093 35.2682L89.942 31.9051C89.929 31.8984 89.9159 31.8917 89.9029 31.885L88.1737 35.2499ZM87.1986 33.352C87.1989 33.3502 87.1991 33.3487 87.199 33.3492C87.199 33.3493 87.1989 33.3498 87.1988 33.3504C87.1988 33.3511 87.1986 33.3521 87.1985 33.3534L90.9525 33.8226C90.9523 33.8244 90.9521 33.8259 90.9521 33.8254C90.9521 33.8254 90.9522 33.8248 90.9523 33.8242C90.9524 33.8236 90.9525 33.8225 90.9527 33.8213L87.1986 33.352ZM102.883 39.057L89.9904 31.9323L88.1606 35.2436L101.054 42.3683L102.883 39.057Z" fill="black"/>
<path d="M87.0229 60.3078L93.4784 55.4887C90.6287 50.661 86.1714 51.4416 84.299 52.4354L87.0229 60.3078Z" fill="url(#paint2_linear)" stroke="black" stroke-width="2.1018"/>
<path d="M40.1665 60.3078L33.7109 55.4887C36.5606 50.661 41.0179 51.4416 42.8903 52.4354L40.1665 60.3078Z" fill="url(#paint3_linear)" stroke="black" stroke-width="2.1018"/>
<path d="M106.827 48.8804L99.3393 44.274C95.2408 48.5022 97.6998 52.4864 99.4416 53.9499L106.827 48.8804Z" fill="url(#paint4_linear)" stroke="black" stroke-width="2.1018"/>
<path d="M20.3616 48.8804L27.8495 44.274C31.948 48.5022 29.489 52.4864 27.7472 53.9499L20.3616 48.8804Z" fill="url(#paint5_linear)" stroke="black" stroke-width="2.1018"/>
<path d="M70.7133 30.066L68.9871 38.6862C74.3736 41.0656 77.2588 37.3784 78.0281 35.2373L70.7133 30.066Z" fill="url(#paint6_linear)" stroke="black" stroke-width="2.1018"/>
<path d="M56.7271 30.066L58.4533 38.6862C53.0668 41.0656 50.1816 37.3784 49.4123 35.2373L56.7271 30.066Z" fill="url(#paint7_linear)" stroke="black" stroke-width="2.1018"/>
<path d="M92.7251 32.3428L85.7077 36.2992C87.9184 41.4509 92.4388 41.2451 94.4227 40.4982L92.7251 32.3428Z" fill="url(#paint8_linear)" stroke="black" stroke-width="2.1018"/>
<path d="M34.4644 32.3428L41.4818 36.2992C39.271 41.4509 34.7506 41.2451 32.7668 40.4982L34.4644 32.3428Z" fill="url(#paint9_linear)" stroke="black" stroke-width="2.1018"/>
<path d="M63.6047 84.4348C68.7447 82.5674 80.0047 77.5387 83.9254 72.3633" stroke="black" stroke-width="0.420359"/>
<path d="M81.3863 52.3739L87.6219 70.1281C83.0318 74.7471 71.8077 84.1063 63.6322 84.5913" stroke="black" stroke-width="0.420359"/>
<path d="M38.158 69.2328L44.7797 50.3793L82.4948 50.424L89.0314 69.2328C82.8438 75.8818 63.6332 84.5916 63.6332 84.5916C52.9165 79.7358 47.4676 76.1812 38.158 69.2328Z" fill="url(#paint10_linear)"/>
<path d="M38.158 69.2328L44.7797 50.3793L82.4948 50.424L89.0314 69.2328C82.8438 75.8818 63.6332 84.5916 63.6332 84.5916C52.9165 79.7358 47.4676 76.1812 38.158 69.2328Z" fill="#C6C6C6" fill-opacity="0.5"/>
<path d="M38.158 69.2328L44.7797 50.3793L82.4948 50.424L89.0314 69.2328C82.8438 75.8818 63.6332 84.5916 63.6332 84.5916C52.9165 79.7358 47.4676 76.1812 38.158 69.2328Z" stroke="black" stroke-width="3.78324"/>
<path d="M42.2437 62.9943L47.8018 47.1689L79.4594 47.2065L84.9461 62.9943C79.7523 68.5754 63.6272 75.8862 63.6272 75.8862C54.6318 71.8104 50.058 68.8267 42.2437 62.9943Z" fill="url(#paint11_linear)" stroke="black" stroke-width="3.78324"/>
<mask id="path-18-inside-1" fill="white">
<path fill-rule="evenodd" clip-rule="evenodd" d="M85.379 52.628L63.8333 69.0046L41.0825 54.1192C43.4447 43.9611 52.554 36.3924 63.431 36.3924C73.7688 36.3924 82.5097 43.2292 85.379 52.628Z"/>
</mask>
<path fill-rule="evenodd" clip-rule="evenodd" d="M85.379 52.628L63.8333 69.0046L41.0825 54.1192C43.4447 43.9611 52.554 36.3924 63.431 36.3924C73.7688 36.3924 82.5097 43.2292 85.379 52.628Z" fill="url(#paint12_linear)"/>
<path fill-rule="evenodd" clip-rule="evenodd" d="M85.379 52.628L63.8333 69.0046L41.0825 54.1192C43.4447 43.9611 52.554 36.3924 63.431 36.3924C73.7688 36.3924 82.5097 43.2292 85.379 52.628Z" fill="#C6C6C6" fill-opacity="0.5"/>
<path d="M63.8333 69.0046L61.762 72.1705L63.9966 73.6326L66.1227 72.0166L63.8333 69.0046ZM85.379 52.628L87.6684 55.6399L89.7671 54.0447L88.9974 51.5234L85.379 52.628ZM41.0825 54.1192L37.3976 53.2623L36.7988 55.8374L39.0112 57.285L41.0825 54.1192ZM66.1227 72.0166L87.6684 55.6399L83.0897 49.6161L61.544 65.9927L66.1227 72.0166ZM39.0112 57.285L61.762 72.1705L65.9047 65.8388L43.1539 50.9534L39.0112 57.285ZM44.7675 54.9761C46.7401 46.4933 54.3524 40.1757 63.431 40.1757L63.431 32.6092C50.7557 32.6092 40.1494 41.4289 37.3976 53.2623L44.7675 54.9761ZM63.431 40.1757C72.0586 40.1757 79.3635 45.8806 81.7607 53.7326L88.9974 51.5234C85.6559 40.5779 75.479 32.6092 63.431 32.6092L63.431 40.1757Z" fill="black" mask="url(#path-18-inside-1)"/>
<path d="M63.6936 65.7376L63.6936 83.9988" stroke="black" stroke-width="3.78324"/>
<path d="M23.215 102.497C23.215 109.28 28.715 114.78 35.4996 114.781C42.2843 114.783 47.7843 109.285 47.7843 102.501C47.7843 95.7182 42.2843 90.2181 35.4996 90.2168C28.715 90.2154 23.215 95.7133 23.215 102.497Z" fill="url(#paint13_linear)"/>
<path fill-rule="evenodd" clip-rule="evenodd" d="M35.5001 88.0029C43.5082 88.0045 50 94.4964 50 102.503C50 110.509 43.5082 116.999 35.5001 116.997C27.492 116.995 21.0001 110.503 21.0001 102.497C21.0001 94.4905 27.492 88.0013 35.5001 88.0029ZM45.5695 102.502C45.5695 96.9419 41.0612 92.4337 35.5001 92.4326C29.9389 92.4314 25.4307 96.9378 25.4307 102.498C25.4307 108.058 29.9389 112.566 35.5001 112.567C41.0612 112.568 45.5695 108.062 45.5695 102.502Z" fill="black"/>
<path d="M80.215 102.497C80.215 109.28 85.715 114.78 92.4996 114.781C99.2843 114.783 104.784 109.285 104.784 102.501C104.784 95.7182 99.2843 90.2181 92.4996 90.2168C85.715 90.2154 80.215 95.7133 80.215 102.497Z" fill="url(#paint14_linear)"/>
<path fill-rule="evenodd" clip-rule="evenodd" d="M92.4998 88.0029C100.508 88.0045 107 94.4964 107 102.503C107 110.509 100.508 116.999 92.4998 116.997C84.4917 116.995 77.9999 110.503 77.9999 102.497C77.9999 94.4905 84.4917 88.0013 92.4998 88.0029ZM102.569 102.502C102.569 96.9419 98.061 92.4337 92.4998 92.4326C86.9386 92.4314 82.4304 96.9378 82.4304 102.498C82.4304 108.058 86.9386 112.566 92.4998 112.567C98.061 112.568 102.569 108.062 102.569 102.502Z" fill="black"/>
<defs>
<linearGradient id="paint0_linear" x1="63.1742" y1="165.989" x2="-9.47158" y2="132.563" gradientUnits="userSpaceOnUse">
<stop stop-color="#9D9D9D"/>
<stop offset="0.0989583" stop-color="#E3E3E3"/>
<stop offset="0.128224" stop-color="#AEAEAE"/>
<stop offset="0.279799" stop-color="#D0D0D0"/>
<stop offset="0.366549" stop-color="#9A9898"/>
<stop offset="0.572917" stop-color="#878787"/>
<stop offset="0.807292" stop-color="#575252"/>
<stop offset="0.885417" stop-color="#959595"/>
<stop offset="1" stop-color="#363636"/>
</linearGradient>
<linearGradient id="paint1_linear" x1="100.572" y1="61.0098" x2="28.113" y2="34.7213" gradientUnits="userSpaceOnUse">
<stop stop-color="#9D9D9D"/>
<stop offset="0.0989583" stop-color="#E3E3E3"/>
<stop offset="0.128224" stop-color="#AEAEAE"/>
<stop offset="0.279799" stop-color="#D0D0D0"/>
<stop offset="0.366549" stop-color="#9A9898"/>
<stop offset="0.572917" stop-color="#878787"/>
<stop offset="0.807292" stop-color="#575252"/>
<stop offset="0.885417" stop-color="#959595"/>
<stop offset="1" stop-color="#363636"/>
</linearGradient>
<linearGradient id="paint2_linear" x1="90.8136" y1="58.9633" x2="85.2029" y2="53.0067" gradientUnits="userSpaceOnUse">
<stop stop-color="#C4C4C4"/>
<stop offset="0.921527" stop-color="#686868"/>
</linearGradient>
<linearGradient id="paint3_linear" x1="36.3757" y1="58.9633" x2="41.9864" y2="53.0067" gradientUnits="userSpaceOnUse">
<stop stop-color="#C4C4C4"/>
<stop offset="0.921527" stop-color="#686868"/>
</linearGradient>
<linearGradient id="paint4_linear" x1="101.57" y1="52.9795" x2="100.636" y2="47.0201" gradientUnits="userSpaceOnUse">
<stop stop-color="#C4C4C4"/>
<stop offset="0.921527" stop-color="#686868"/>
</linearGradient>
<linearGradient id="paint5_linear" x1="25.6188" y1="52.9795" x2="26.5529" y2="47.0201" gradientUnits="userSpaceOnUse">
<stop stop-color="#C4C4C4"/>
<stop offset="0.921527" stop-color="#686868"/>
</linearGradient>
<linearGradient id="paint6_linear" x1="76.3803" y1="33.577" x2="71.1137" y2="36.5184" gradientUnits="userSpaceOnUse">
<stop stop-color="#C4C4C4"/>
<stop offset="0.921527" stop-color="#686868"/>
</linearGradient>
<linearGradient id="paint7_linear" x1="51.0602" y1="33.577" x2="56.3267" y2="36.5184" gradientUnits="userSpaceOnUse">
<stop stop-color="#C4C4C4"/>
<stop offset="0.921527" stop-color="#686868"/>
</linearGradient>
<linearGradient id="paint8_linear" x1="93.9937" y1="37.1232" x2="88.4056" y2="36.71" gradientUnits="userSpaceOnUse">
<stop stop-color="#C4C4C4"/>
<stop offset="0.921527" stop-color="#686868"/>
</linearGradient>
<linearGradient id="paint9_linear" x1="33.1957" y1="37.1232" x2="38.7839" y2="36.71" gradientUnits="userSpaceOnUse">
<stop stop-color="#C4C4C4"/>
<stop offset="0.921527" stop-color="#686868"/>
</linearGradient>
<linearGradient id="paint10_linear" x1="86.9685" y1="69.8902" x2="38.1579" y2="63.3149" gradientUnits="userSpaceOnUse">
<stop stop-color="#B5B5B5"/>
<stop offset="0.140625" stop-color="#939393"/>
<stop offset="0.2849" stop-color="#D2D2D2"/>
<stop offset="0.502144" stop-color="#B5B5B5"/>
<stop offset="0.570486" stop-color="#D2D2D2"/>
<stop offset="0.809219" stop-color="#5B5B5B"/>
<stop offset="0.972069" stop-color="#919090"/>
</linearGradient>
<linearGradient id="paint11_linear" x1="81.9805" y1="68.9831" x2="47.2903" y2="56.5128" gradientUnits="userSpaceOnUse">
<stop stop-color="#C4C4C4"/>
<stop offset="0.287698" stop-color="#D1D1D1"/>
<stop offset="0.508807" stop-color="#D2D2D2"/>
<stop offset="0.884694" stop-color="#777777"/>
<stop offset="1" stop-color="#AFAFAF"/>
</linearGradient>
<linearGradient id="paint12_linear" x1="75.1842" y1="60.8771" x2="50.3813" y2="46.5838" gradientUnits="userSpaceOnUse">
<stop stop-color="#C4C4C4"/>
<stop offset="0.166667" stop-color="#AFAFAF"/>
<stop offset="0.307292" stop-color="#D2D2D2"/>
<stop offset="0.578125" stop-color="#676767"/>
<stop offset="0.921527" stop-color="#686868"/>
</linearGradient>
<linearGradient id="paint13_linear" x1="53.6647" y1="109.11" x2="38.7209" y2="125.145" gradientUnits="userSpaceOnUse">
<stop stop-color="#9D9D9D"/>
<stop offset="0.0989583" stop-color="#E3E3E3"/>
<stop offset="0.128224" stop-color="#AEAEAE"/>
<stop offset="0.279799" stop-color="#D0D0D0"/>
<stop offset="0.366549" stop-color="#9A9898"/>
<stop offset="0.572917" stop-color="#878787"/>
<stop offset="0.807292" stop-color="#575252"/>
<stop offset="0.885417" stop-color="#959595"/>
<stop offset="1" stop-color="#363636"/>
</linearGradient>
<linearGradient id="paint14_linear" x1="115.982" y1="106.889" x2="99.008" y2="126.846" gradientUnits="userSpaceOnUse">
<stop stop-color="#9D9D9D"/>
<stop offset="0.0989583" stop-color="#E3E3E3"/>
<stop offset="0.128224" stop-color="#AEAEAE"/>
<stop offset="0.279799" stop-color="#D0D0D0"/>
<stop offset="0.366549" stop-color="#9A9898"/>
<stop offset="0.572917" stop-color="#878787"/>
<stop offset="0.807292" stop-color="#575252"/>
<stop offset="0.885417" stop-color="#959595"/>
<stop offset="1" stop-color="#363636"/>
</linearGradient>
</defs>
</svg>
