<svg width="257" height="257" viewBox="0 0 257 257" fill="none" xmlns="http://www.w3.org/2000/svg">
<path d="M200.733 92.3112L228.676 50.7974C229.316 49.847 229.058 48.5484 228.107 47.9092L217.734 40.9329C217.269 40.6226 216.716 40.5122 216.173 40.6165C215.63 40.7209 215.156 41.0371 214.846 41.5021L186.903 83.0159C186.647 83.3999 186.531 83.836 186.553 84.285C186.557 84.3826 186.562 84.4802 186.586 84.5769C186.691 85.1198 187.007 85.5937 187.472 85.9041L197.845 92.8804C198.795 93.5196 200.074 93.2625 200.733 92.3112Z" fill="#CBD0D8"/>
<path d="M233.852 54.2857L240.829 43.9126C241.139 43.4477 241.249 42.8945 241.145 42.3516C241.041 41.8087 240.724 41.3347 240.259 41.0244L219.512 27.0522C218.562 26.413 217.263 26.6711 216.624 27.6215L209.628 37.9955C209.373 38.3795 209.257 38.8156 209.278 39.2646C209.283 39.3622 209.288 39.4598 209.312 39.5565C209.416 40.0994 209.732 40.5734 210.197 40.8837L230.964 54.8549C231.914 55.4941 233.214 55.2556 233.852 54.2857Z" fill="#E6E9ED"/>
<path d="M224.66 38.0563C224.404 38.4404 224.288 38.8764 224.31 39.3254C224.341 39.9697 224.663 40.5803 225.23 40.964C226.18 41.6032 227.479 41.3451 228.118 40.3948L231.606 35.1985L228.168 32.8786L224.66 38.0563Z" fill="#CCD1D9"/>
<path d="M216.514 50.1683C217.153 49.218 216.895 47.9194 215.945 47.2802L212.487 44.9417L210.148 48.4L213.606 50.7385C214.576 51.3768 215.875 51.1187 216.514 50.1683Z" fill="#AAB2BC"/>
<path d="M213.026 55.3646C213.666 54.4143 213.408 53.1157 212.457 52.4765L209 50.1575L206.661 53.6158L210.119 55.9348C211.089 56.573 212.387 56.315 213.026 55.3646Z" fill="#AAB2BC"/>
<path d="M209.538 60.5414C210.177 59.591 209.919 58.2924 208.969 57.6532L205.51 55.3148L203.172 58.7731L206.629 61.092C207.6 61.7498 208.899 61.4918 209.538 60.5414Z" fill="#AAB2BC"/>
<path d="M206.05 65.7378C206.689 64.7874 206.431 63.4888 205.481 62.8496L202.023 60.5111L199.684 63.9695L203.141 66.2884C204.112 66.9462 205.411 66.6881 206.05 65.7378Z" fill="#AAB2BC"/>
<path d="M202.542 70.9155C203.181 69.9652 202.923 68.6666 201.973 68.0274L198.515 65.7084L196.177 69.1667L199.635 71.5052C200.604 72.1239 201.904 71.8854 202.542 70.9155Z" fill="#AAB2BC"/>
<path d="M199.054 76.1118C199.693 75.1614 199.435 73.8628 198.485 73.2236L195.027 70.8851L192.708 74.3425L196.166 76.681C197.116 77.3202 198.415 77.0621 199.054 76.1118Z" fill="#AAB2BC"/>
<path d="M195.566 81.3082C196.206 80.3579 195.948 79.0593 194.997 78.4201L191.54 76.1011L189.201 79.5594L192.659 81.8784C193.629 82.5166 194.927 82.2586 195.566 81.3082Z" fill="#AAB2BC"/>
<path d="M219.972 52.5068C219.717 52.8908 219.601 53.3269 219.622 53.7759C219.653 54.4201 219.976 55.0308 220.543 55.4145L224.001 57.7529L226.337 54.2556L222.879 51.9171C221.91 51.2984 220.63 51.536 219.972 52.5068Z" fill="#AAB2BC"/>
<path d="M216.484 57.6837C216.228 58.0677 216.112 58.5038 216.134 58.9528C216.165 59.597 216.488 60.2077 217.054 60.5914L220.512 62.9298L222.851 59.4715L219.392 57.133C218.422 56.4753 217.123 56.7333 216.484 57.6837Z" fill="#AAB2BC"/>
<path d="M212.996 62.8799C212.741 63.264 212.625 63.7 212.646 64.149C212.677 64.7933 213 65.4039 213.566 65.7876L217.025 68.1261L219.363 64.6677L215.905 62.3293C214.934 61.6715 213.634 61.91 212.996 62.8799Z" fill="#AAB2BC"/>
<path d="M209.507 68.0566C209.252 68.4407 209.136 68.8767 209.157 69.3258C209.188 69.97 209.511 70.5806 210.078 70.9643L213.536 73.3028L215.874 69.8445L212.396 67.4874C211.445 66.8482 210.147 67.1063 209.507 68.0566Z" fill="#AAB2BC"/>
<path d="M206.02 73.2532C205.764 73.6372 205.649 74.0928 205.67 74.5223C205.701 75.1665 206.024 75.7772 206.59 76.1609L210.047 78.4798L212.366 75.0224L208.908 72.684C207.958 72.0448 206.659 72.3028 206.02 73.2532Z" fill="#AAB2BC"/>
<path d="M202.513 78.4503C202.257 78.8343 202.141 79.2704 202.163 79.7194C202.194 80.3636 202.516 80.9743 203.083 81.358L206.54 83.6769L208.859 80.2195L205.401 77.8811C204.47 77.2409 203.17 77.4795 202.513 78.4503Z" fill="#AAB2BC"/>
<path d="M205.39 85.3953L201.912 83.0578C200.962 82.4186 199.663 82.6766 199.024 83.627C198.768 84.011 198.652 84.4471 198.674 84.8961C198.705 85.5403 199.028 86.151 199.594 86.5347L203.052 88.8731L205.39 85.3953Z" fill="#AAB2BC"/>
<path d="M93.0404 81.3247L64.7786 40.027C64.1314 39.082 62.8293 38.8423 61.8844 39.4895L51.5708 46.5535C51.1107 46.871 50.8038 47.3443 50.7004 47.8874C50.5969 48.4304 50.7158 48.9877 51.0333 49.4477L79.2951 90.7455C79.5577 91.1247 79.92 91.3936 80.3453 91.5393C80.4377 91.571 80.5302 91.6027 80.629 91.6159C81.172 91.7194 81.7293 91.6005 82.1893 91.283L92.5029 84.219C93.4479 83.5718 93.6812 82.2882 93.0404 81.3247Z" fill="#CBD0D8"/>
<path d="M69.9315 36.505L62.8675 26.1914C62.55 25.7314 62.0767 25.4245 61.5336 25.321C60.9906 25.2175 60.4333 25.3364 59.9733 25.654L39.3276 39.7756C38.3826 40.4228 38.1429 41.7249 38.7901 42.6698L45.8477 53.0019C46.1103 53.3812 46.4727 53.65 46.898 53.7958C46.9904 53.8275 47.0828 53.8591 47.1816 53.8723C47.7247 53.9758 48.2819 53.8569 48.742 53.5394L69.394 39.3993C70.339 38.7521 70.5972 37.4563 69.9315 36.505Z" fill="#E6E9ED"/>
<path d="M51.4546 39.0552C51.7172 39.4344 52.0796 39.7033 52.5048 39.849C53.115 40.0582 53.8017 39.9836 54.3674 39.599C55.3123 38.9518 55.552 37.6497 54.9048 36.7048L51.3636 31.5448L47.9382 33.8831L51.4546 39.0552Z" fill="#CCD1D9"/>
<path d="M59.7031 51.0969C59.056 50.152 57.7538 49.9123 56.8089 50.5595L53.3587 52.9099L55.7091 56.3601L59.1593 54.0097C60.1106 53.344 60.3503 52.0419 59.7031 51.0969Z" fill="#AAB2BC"/>
<path d="M63.2443 56.2569C62.5972 55.3119 61.2951 55.0722 60.3501 55.7194L56.9184 58.0762L59.2688 61.5264L62.7005 59.1696C63.6518 58.5039 63.8915 57.2018 63.2443 56.2569Z" fill="#AAB2BC"/>
<path d="M66.7671 61.4105C66.1199 60.4656 64.8178 60.2259 63.8728 60.8731L60.4227 63.2235L62.7731 66.6737L66.2048 64.3169C67.1746 63.6576 67.4143 62.3555 66.7671 61.4105Z" fill="#AAB2BC"/>
<path d="M70.3084 66.5705C69.6612 65.6256 68.3591 65.3859 67.4141 66.033L63.9639 68.3835L66.3144 71.8337L69.7461 69.4769C70.7159 68.8176 70.9555 67.5154 70.3084 66.5705Z" fill="#AAB2BC"/>
<path d="M73.8248 71.7426C73.1777 70.7977 71.8755 70.558 70.9306 71.2052L67.4989 73.562L69.8493 77.0121L73.2995 74.6617C74.2323 73.9897 74.4905 72.6939 73.8248 71.7426Z" fill="#AAB2BC"/>
<path d="M77.366 76.9026C76.7188 75.9576 75.4167 75.7179 74.4718 76.3651L71.0216 78.7156L73.3783 82.1473L76.8285 79.7968C77.7735 79.1497 78.0132 77.8475 77.366 76.9026Z" fill="#AAB2BC"/>
<path d="M80.9074 82.0626C80.2602 81.1177 78.9581 80.878 78.0131 81.5252L74.5814 83.8819L76.9319 87.3321L80.3636 84.9753C81.3149 84.3097 81.5546 83.0076 80.9074 82.0626Z" fill="#AAB2BC"/>
<path d="M63.1533 48.7465C63.4159 49.1257 63.7783 49.3946 64.2035 49.5403C64.8136 49.7494 65.5003 49.6749 66.066 49.2903L69.5162 46.9398L67.1288 43.477L63.6786 45.8274C62.7458 46.4994 62.494 47.7767 63.1533 48.7465Z" fill="#AAB2BC"/>
<path d="M66.6762 53.9001C66.9387 54.2794 67.3011 54.5482 67.7264 54.694C68.3365 54.9031 69.0232 54.8286 69.5889 54.4439L73.0391 52.0935L70.6886 48.6433L67.2384 50.9938C66.2687 51.6531 66.029 52.9552 66.6762 53.9001Z" fill="#AAB2BC"/>
<path d="M70.2173 59.0601C70.4799 59.4393 70.8423 59.7082 71.2675 59.8539C71.8777 60.0631 72.5644 59.9885 73.1301 59.6039L76.5803 57.2535L74.2298 53.8033L70.7796 56.1537C69.8098 56.813 69.5517 58.1088 70.2173 59.0601Z" fill="#AAB2BC"/>
<path d="M73.74 64.2137C74.0026 64.593 74.365 64.8618 74.7902 65.0075C75.4004 65.2167 76.0871 65.1421 76.6528 64.7575L80.103 62.4071L77.7525 58.9569L74.2775 61.3195C73.3325 61.9666 73.0929 63.2688 73.74 64.2137Z" fill="#AAB2BC"/>
<path d="M77.2815 69.3738C77.5441 69.753 77.9249 70.0282 78.3317 70.1676C78.9418 70.3767 79.6285 70.3022 80.1942 69.9176L83.6259 67.5608L81.2691 64.1291L77.819 66.4795C76.874 67.1267 76.6343 68.4288 77.2815 69.3738Z" fill="#AAB2BC"/>
<path d="M80.8163 74.5522C81.0788 74.9314 81.4412 75.2003 81.8665 75.346C82.4766 75.5551 83.1633 75.4806 83.729 75.096L87.1607 72.7392L84.8039 69.3075L81.3537 71.6579C80.4151 72.2866 80.1569 73.5824 80.8163 74.5522Z" fill="#AAB2BC"/>
<path d="M88.3329 74.4426L84.8764 76.8115C83.9314 77.4587 83.6918 78.7608 84.3389 79.7058C84.6015 80.085 84.9639 80.3539 85.3891 80.4996C85.9993 80.7087 86.686 80.6342 87.2517 80.2496L90.7019 77.8991L88.3329 74.4426Z" fill="#AAB2BC"/>
<path d="M119.528 170.624L95.6404 138.046C95.0934 137.301 94.0365 137.142 93.2911 137.689L85.1554 143.659C84.7926 143.927 84.5574 144.317 84.4882 144.758C84.419 145.199 84.5296 145.646 84.7978 146.008L108.686 178.586C108.908 178.885 109.207 179.092 109.554 179.199C109.629 179.222 109.705 179.245 109.785 179.253C110.226 179.322 110.672 179.212 111.035 178.944L119.171 172.973C119.916 172.426 120.071 171.384 119.528 170.624Z" fill="#CBD0D8"/>
<path d="M99.7048 135.069L93.7343 126.933C93.466 126.571 93.0761 126.335 92.6352 126.266C92.1944 126.197 91.7478 126.308 91.385 126.576L75.0985 138.512C74.3531 139.059 74.1939 140.116 74.7409 140.862L80.7068 149.012C80.9286 149.311 81.2281 149.519 81.575 149.625C81.6504 149.648 81.7259 149.671 81.8059 149.68C82.2468 149.749 82.6933 149.638 83.0561 149.37L99.3473 137.418C100.093 136.871 100.267 135.819 99.7048 135.069Z" fill="#E6E9ED"/>
<path d="M84.8651 137.612C85.0869 137.911 85.3864 138.119 85.7333 138.225C86.2311 138.378 86.7832 138.3 87.2295 137.974C87.9749 137.427 88.1341 136.371 87.5871 135.625L84.5942 131.555L81.892 133.532L84.8651 137.612Z" fill="#CCD1D9"/>
<path d="M91.8371 147.111C91.2901 146.366 90.2332 146.207 89.4878 146.754L86.7658 148.741L88.7529 151.463L91.4749 149.475C92.2249 148.913 92.3841 147.857 91.8371 147.111Z" fill="#AAB2BC"/>
<path d="M94.8299 151.181C94.2829 150.436 93.226 150.277 92.4806 150.824L89.7737 152.815L91.7608 155.537L94.4677 153.546C95.2177 152.984 95.3769 151.927 94.8299 151.181Z" fill="#AAB2BC"/>
<path d="M97.8076 155.247C97.2606 154.501 96.2037 154.342 95.4583 154.889L92.7363 156.876L94.7234 159.598L97.4303 157.607C98.1954 157.049 98.3546 155.992 97.8076 155.247Z" fill="#AAB2BC"/>
<path d="M100.8 159.317C100.253 158.572 99.1966 158.412 98.4511 158.959L95.7292 160.946L97.7163 163.668L100.423 161.677C101.188 161.119 101.347 160.062 100.8 159.317Z" fill="#AAB2BC"/>
<path d="M103.774 163.398C103.227 162.652 102.17 162.493 101.424 163.04L98.7174 165.032L100.704 167.754L103.426 165.767C104.161 165.2 104.336 164.148 103.774 163.398Z" fill="#AAB2BC"/>
<path d="M106.766 167.468C106.219 166.722 105.162 166.563 104.417 167.11L101.695 169.097L103.687 171.804L106.409 169.817C107.154 169.27 107.313 168.213 106.766 167.468Z" fill="#AAB2BC"/>
<path d="M109.759 171.538C109.212 170.793 108.155 170.633 107.41 171.18L104.703 173.172L106.69 175.894L109.397 173.902C110.147 173.34 110.306 172.283 109.759 171.538Z" fill="#AAB2BC"/>
<path d="M94.559 145.124C94.7809 145.423 95.0803 145.63 95.4272 145.737C95.925 145.89 96.4771 145.811 96.9234 145.486L99.6454 143.499L97.6281 140.768L94.9062 142.755C94.1712 143.322 94.0016 144.359 94.559 145.124Z" fill="#AAB2BC"/>
<path d="M97.5368 149.19C97.7587 149.489 98.0581 149.696 98.4051 149.802C98.9028 149.955 99.4549 149.877 99.9012 149.552L102.623 147.565L100.636 144.843L97.9141 146.83C97.149 147.387 96.9898 148.444 97.5368 149.19Z" fill="#AAB2BC"/>
<path d="M100.53 153.26C100.751 153.559 101.051 153.766 101.398 153.873C101.896 154.025 102.448 153.947 102.894 153.622L105.616 151.635L103.629 148.913L100.907 150.9C100.142 151.457 99.9675 152.51 100.53 153.26Z" fill="#AAB2BC"/>
<path d="M103.507 157.325C103.729 157.624 104.029 157.832 104.375 157.938C104.873 158.091 105.425 158.013 105.872 157.687L108.594 155.7L106.607 152.978L103.865 154.976C103.119 155.523 102.96 156.58 103.507 157.325Z" fill="#AAB2BC"/>
<path d="M106.5 161.395C106.722 161.695 107.037 161.907 107.368 162.008C107.866 162.161 108.418 162.083 108.865 161.758L111.572 159.766L109.58 157.059L106.858 159.046C106.112 159.593 105.953 160.65 106.5 161.395Z" fill="#AAB2BC"/>
<path d="M109.488 165.481C109.71 165.78 110.01 165.987 110.357 166.094C110.854 166.246 111.406 166.168 111.853 165.843L114.56 163.851L112.568 161.144L109.846 163.131C109.105 163.663 108.931 164.716 109.488 165.481Z" fill="#AAB2BC"/>
<path d="M115.55 165.195L112.824 167.197C112.078 167.744 111.919 168.801 112.466 169.546C112.688 169.845 112.987 170.053 113.334 170.159C113.832 170.312 114.384 170.234 114.83 169.908L117.552 167.921L115.55 165.195Z" fill="#AAB2BC"/>
<path d="M190.464 115.912L183.174 103.404C182.803 102.759 182.118 102.368 181.376 102.368H166.776C166.033 102.368 165.349 102.759 164.978 103.404L157.688 115.912C157.316 116.557 157.316 117.358 157.688 118.003L164.978 130.512C165.349 131.157 166.033 131.548 166.776 131.548H181.376C182.118 131.548 182.803 131.157 183.174 130.512L190.464 118.003C190.835 117.358 190.835 116.557 190.464 115.912ZM174.066 123.085C170.607 123.085 167.812 120.29 167.812 116.831C167.812 113.371 170.607 110.576 174.066 110.576C177.525 110.576 180.32 113.371 180.32 116.831C180.32 120.29 177.525 123.085 174.066 123.085Z" fill="#FECD57"/>
<path d="M174.066 125.176C169.473 125.176 165.721 121.443 165.721 116.83C165.721 112.237 169.454 108.485 174.066 108.485C178.659 108.485 182.412 112.218 182.412 116.83C182.412 121.443 178.659 125.176 174.066 125.176ZM174.066 112.667C171.76 112.667 169.903 114.544 169.903 116.83C169.903 119.137 171.78 120.993 174.066 120.993C176.353 120.993 178.229 119.117 178.229 116.83C178.229 114.544 176.373 112.667 174.066 112.667Z" fill="#F6BB42"/>
<path d="M229.557 170.323L232.401 151.86C232.552 150.912 232.183 149.965 231.438 149.362L216.796 137.51C216.051 136.907 215.048 136.744 214.152 137.089L196.686 143.716C195.79 144.061 195.14 144.865 194.989 145.813L192.146 164.276C191.994 165.224 192.363 166.171 193.108 166.774L207.75 178.626C208.495 179.229 209.498 179.392 210.394 179.047L227.86 172.42C228.756 172.075 229.406 171.271 229.557 170.323ZM207.289 164.205C203.82 161.397 203.286 156.325 206.094 152.856C208.902 149.386 213.974 148.852 217.444 151.66C220.913 154.469 221.447 159.54 218.639 163.01C215.83 166.479 210.759 167.013 207.289 164.205Z" fill="#FECD57"/>
<path d="M205.592 166.302C200.986 162.574 200.253 155.784 203.998 151.158C207.726 146.552 214.516 145.819 219.142 149.563C223.748 153.292 224.481 160.082 220.737 164.708C216.993 169.333 210.199 170.031 205.592 166.302ZM215.747 153.758C213.434 151.885 210.049 152.26 208.192 154.553C206.32 156.866 206.694 160.251 208.988 162.108C211.281 163.964 214.686 163.606 216.542 161.312C218.399 159.019 218.06 155.63 215.747 153.758Z" fill="#F6BB42"/>
<path d="M135.253 35.0051L121.589 39.7892C120.885 40.0314 120.371 40.6288 120.23 41.358L117.46 55.6926C117.319 56.4218 117.573 57.1676 118.136 57.6546L129.034 67.1859C129.597 67.6729 130.383 67.8249 131.087 67.5827L144.752 62.7986C145.455 62.5564 145.969 61.959 146.11 61.2298L148.88 46.8952C149.021 46.166 148.767 45.4202 148.205 44.9332L137.307 35.4019C136.744 34.9149 135.957 34.7629 135.253 35.0051ZM139.184 52.4662C138.528 55.8627 135.253 58.0765 131.857 57.42C128.46 56.7636 126.247 53.4891 126.903 50.0926C127.559 46.696 130.834 44.4823 134.23 45.1387C137.627 45.7952 139.841 49.0696 139.184 52.4662Z" fill="#FECD57"/>
<path d="M141.237 52.8625C140.366 57.3721 135.988 60.3481 131.46 59.4728C126.95 58.6013 123.974 54.224 124.849 49.6953C125.721 45.1857 130.098 42.2097 134.627 43.085C139.156 43.9602 142.109 48.353 141.237 52.8625ZM128.956 50.4889C128.518 52.7533 130.008 54.9323 132.253 55.3663C134.518 55.8039 136.697 54.314 137.131 52.0689C137.564 49.8237 136.078 47.6254 133.833 47.1915C131.588 46.7576 129.393 48.2246 128.956 50.4889Z" fill="#F6BB42"/>
<path d="M150.569 188.648L140.672 192.113C140.162 192.288 139.79 192.721 139.688 193.249L137.682 203.631C137.58 204.159 137.764 204.699 138.171 205.052L146.064 211.954C146.472 212.307 147.041 212.417 147.551 212.242L157.448 208.777C157.957 208.602 158.329 208.169 158.431 207.641L160.438 197.259C160.54 196.731 160.356 196.191 159.948 195.838L152.056 188.935C151.648 188.582 151.078 188.472 150.569 188.648ZM153.415 201.294C152.94 203.754 150.569 205.357 148.109 204.882C145.649 204.406 144.045 202.035 144.521 199.575C144.996 197.115 147.368 195.512 149.828 195.987C152.288 196.462 153.891 198.834 153.415 201.294Z" fill="#FECD57"/>
<path d="M154.902 201.581C154.271 204.847 151.101 207.002 147.821 206.368C144.555 205.737 142.4 202.567 143.034 199.287C143.665 196.021 146.835 193.866 150.115 194.5C153.395 195.133 155.534 198.315 154.902 201.581ZM146.008 199.862C145.691 201.502 146.77 203.08 148.396 203.394C150.036 203.711 151.614 202.632 151.928 201.006C152.243 199.38 151.166 197.788 149.54 197.474C147.914 197.159 146.325 198.222 146.008 199.862Z" fill="#F6BB42"/>
<path d="M49.7087 143.722L45.0584 135.929C44.8214 135.527 44.3901 135.287 43.9246 135.291L34.7734 135.386C34.3079 135.391 33.8817 135.64 33.6531 136.047L29.1644 143.934C28.9358 144.341 28.941 144.843 29.178 145.245L33.8282 153.038C34.0652 153.44 34.4965 153.681 34.962 153.676L44.1132 153.581C44.5787 153.577 45.0049 153.327 45.2335 152.921L49.7222 145.033C49.9508 144.626 49.9456 144.124 49.7087 143.722ZM39.4768 148.324C37.3084 148.347 35.5385 146.613 35.5162 144.444C35.4938 142.276 37.2276 140.506 39.3959 140.484C41.5643 140.462 43.3342 142.195 43.3565 144.364C43.3789 146.532 41.6451 148.302 39.4768 148.324Z" fill="#FECD57"/>
<path d="M39.4922 149.635C36.6133 149.665 34.2371 147.349 34.2072 144.458C34.1776 141.579 36.4932 139.203 39.3843 139.173C42.2632 139.143 44.6394 141.459 44.6692 144.35C44.699 147.241 42.3711 149.605 39.4922 149.635ZM39.4113 141.794C37.9658 141.809 36.8141 142.997 36.8289 144.431C36.8438 145.876 38.0318 147.028 39.4651 147.013C40.8985 146.998 42.0624 145.81 42.0476 144.377C42.0328 142.944 40.8569 141.78 39.4113 141.794Z" fill="#F6BB42"/>
</svg>
