<svg xmlns="http://www.w3.org/2000/svg" width="128" height="128"><path d="M115.17 8.931L42.137 50.735l5.188 8.052 70.639-45.522-2.792-4.334zM98.21 31.045l-27.746 17.88 3.856 2.456c10.847-7.756 19.487-14.588 23.703-19.47l.187-.866zM66.536 51.458l-23.619 15.22 4.831 2.862c8.026-5.323 15.802-10.57 22.832-15.508zm-28.03 1.48l-1.47.947c-1.555 4.713-.33 8.565 1.843 10.344l4.878-3.142-5.251-8.148zm-5.593 9.919c-1.3 1.305-3.05 3.113-5.258 5.576-4.063 4.532-8.575 10.272-10.254 14.25-4.374 10.361-3.618 23.114-4.246 34.849.569 1.67 1.276 2.34 1.934 2.627.698.305 1.626.281 2.769-.195 2.216-.922 4.646-3.678 5.251-5.963-.04-.527-.217-2.859-.291-6.05-.084-3.57-.058-7.784.62-10.92 1.215-5.62 3.16-11.604 7.14-16.289 2.404-2.829 6.4-5.302 9.888-7.276a78.049 78.049 0 0 1 2.929-1.569c-4.69-2.9-8.647-4.175-10.482-9.04zM19.29 71.772l-8.878 2.274 3.673 5.699c1.281-2.598 3.144-5.328 5.204-7.973zm29.69 2.08l-.273.126s-1.596.735-3.797 1.897c-.059 2.593-1.318 4.656-2.976 6.015-1.296 1.063-2.835 1.614-4.2 1.58-1.027-.027-1.968-.323-2.833-1.074-.425.382-.793.75-1.087 1.096a20.242 20.242 0 0 0-1.597 2.17c1.6 1.319 3.517 2.004 5.409 2.052 2.539.066 5.004-.902 7-2.54 3.01-2.469 4.948-6.646 4.353-11.321z" fill="#fff" stroke="#323232" stroke-width="3"/></svg>