<svg width="128" height="128" viewBox="0 0 128 128" fill="none" xmlns="http://www.w3.org/2000/svg">
<ellipse cx="99.3359" cy="57.8475" rx="12.7699" ry="16.4184" transform="rotate(-3.67456 99.3359 57.8475)" fill="#CA2222"/>
<path d="M81.7134 58.4814C83.0071 56.875 87.0479 57.7326 88.1632 59.2859C99.9938 67.9712 92.7718 72.9223 90.8022 71.9124C86.3825 69.6463 86.4484 65.7939 84.8534 64.6776C83.2584 63.5614 79.9026 60.73 81.7134 58.4814Z" fill="#CA2222"/>
<rect x="86.5718" y="70.1846" width="24.3236" height="13.9861" rx="6" fill="white"/>
<path fill-rule="evenodd" clip-rule="evenodd" d="M87.2911 72.6325C87.6232 71.733 88.3033 71.0056 89.1652 70.619C88.0901 69.6183 87.4733 68.5099 86.9953 67.5211C86.9023 67.3288 86.8146 67.1411 86.7298 66.9595L86.7295 66.9587C86.5641 66.6046 86.4097 66.2742 86.2489 65.9797C86.0048 65.5326 85.7458 65.1686 85.4109 64.9312C85.1707 64.7608 84.889 64.5495 84.5914 64.3059C84.452 64.1918 84.309 64.0705 84.1651 63.943C82.6495 62.6001 81.0351 60.5672 82.3814 58.873C82.4246 58.8186 82.471 58.7671 82.5203 58.7185C83.477 57.7744 85.5428 57.8893 87.062 58.5403C86.9446 55.5465 87.4686 52.7182 88.4815 50.2832C90.3864 45.7034 94.0204 42.5146 98.3678 42.2318C105.158 41.79 111.117 48.6042 111.677 57.4517C111.796 59.3276 111.663 61.1442 111.314 62.8466C110.709 65.8017 109.455 68.4126 107.745 70.3919C108.919 70.643 109.877 71.4868 110.301 72.5998C110.452 72.9979 110.535 73.4305 110.535 73.8826V80.4227C110.535 82.3928 108.959 83.9901 107.015 83.9901H90.5888C88.645 83.9901 87.0689 82.3928 87.0689 80.4227V73.8826C87.0689 73.4428 87.1474 73.0215 87.2911 72.6325ZM79.2397 70.627C78.9451 71.6633 78.7878 72.7559 78.7878 73.8826V80.4227C78.7878 86.8615 83.9674 92.2712 90.5888 92.2712H107.015C113.637 92.2712 118.816 86.8615 118.816 80.4227V73.8826C118.816 72.2979 118.505 70.7788 117.936 69.3881C119.521 65.5689 120.217 61.2723 119.942 56.9281L119.942 56.928C119.556 50.8437 117.304 45.1517 113.592 40.9069C109.872 36.6531 104.329 33.5453 97.83 33.9682C87.965 34.6099 81.8454 42.2989 79.6665 50.7862C78.3613 51.3779 77.0288 52.298 75.898 53.7211M79.2397 70.627C78.2079 69.7717 76.9525 68.577 75.9118 67.1113C75.1069 65.9776 74.0353 64.1368 73.7001 61.7405C73.3202 59.0239 73.9793 56.1359 75.8977 53.7215" fill="black"/>
<ellipse rx="12.7699" ry="16.4184" transform="matrix(-0.997944 -0.0640892 -0.0640892 0.997944 27.8628 57.8475)" fill="#CA2222"/>
<path d="M45.4853 58.4814C44.1916 56.875 40.1509 57.7326 39.0355 59.2859C27.205 67.9712 34.4269 72.9223 36.3966 71.9124C40.8162 69.6463 40.7503 65.7939 42.3453 64.6776C43.9404 63.5614 47.2961 60.73 45.4853 58.4814Z" fill="#CA2222"/>
<rect width="24.3236" height="13.9861" rx="6" transform="matrix(-1 0 0 1 40.627 70.1846)" fill="white"/>
<path fill-rule="evenodd" clip-rule="evenodd" d="M39.9081 72.6325C39.576 71.733 38.8959 71.0056 38.0341 70.619C39.1092 69.6183 39.7259 68.5099 40.2039 67.5211C40.2969 67.3288 40.3846 67.1411 40.4694 66.9595L40.4698 66.9587C40.6351 66.6046 40.7895 66.2742 40.9503 65.9797C41.1944 65.5326 41.4534 65.1686 41.7883 64.9312C42.0285 64.7608 42.3102 64.5495 42.6078 64.3059C42.7473 64.1918 42.8903 64.0705 43.0342 63.943C44.5497 62.6001 46.1641 60.5672 44.8178 58.873C44.7746 58.8186 44.7282 58.7671 44.6789 58.7185C43.7222 57.7744 41.6564 57.8893 40.1372 58.5403C40.2546 55.5465 39.7306 52.7182 38.7178 50.2832C36.8128 45.7034 33.1789 42.5146 28.8315 42.2318C22.0417 41.79 16.0826 48.6042 15.522 57.4517C15.4032 59.3276 15.5365 61.1442 15.8852 62.8466C16.4905 65.8017 17.7446 68.4126 19.4544 70.3919C18.2805 70.643 17.3221 71.4868 16.8986 72.5998C16.7471 72.9979 16.6641 73.4305 16.6641 73.8826V80.4227C16.6641 82.3928 18.2402 83.9901 20.184 83.9901H36.6104C38.5543 83.9901 40.1303 82.3928 40.1303 80.4227V73.8826C40.1303 73.4428 40.0518 73.0215 39.9081 72.6325ZM47.9595 70.627C48.2541 71.6633 48.4114 72.7559 48.4114 73.8826V80.4227C48.4114 86.8615 43.2319 92.2712 36.6104 92.2712H20.184C13.5625 92.2712 8.38298 86.8615 8.38298 80.4227V73.8826C8.38298 72.2979 8.69462 70.7788 9.26302 69.3881C7.67814 65.5689 6.98225 61.2723 7.25746 56.9281L7.25747 56.928C7.64298 50.8437 9.89502 45.1517 13.607 40.9069C17.327 36.6531 22.87 33.5453 29.3692 33.9682C39.2343 34.6099 45.3538 42.2989 47.5327 50.7862C48.838 51.3779 50.1704 52.298 51.3012 53.7211M47.9595 70.627C48.9913 69.7717 50.2467 68.577 51.2874 67.1113C52.0923 65.9776 53.1639 64.1368 53.4991 61.7405C53.879 59.0239 53.2199 56.1359 51.3015 53.7215" fill="black"/>
</svg>
