<svg width="129" height="129" viewBox="0 0 129 129" fill="none" xmlns="http://www.w3.org/2000/svg">
<path d="M34.3554 46.6143C34.3554 63.6902 48.1982 77.5325 65.2741 77.5319C82.3501 77.5313 96.1929 63.688 96.1929 46.6121C96.1929 29.5361 82.3501 15.6938 65.2741 15.6944C48.1982 15.695 34.3554 29.5383 34.3554 46.6143Z" fill="#004A95"/>
<path fill-rule="evenodd" clip-rule="evenodd" d="M92.6128 46.6123C92.6128 31.5136 80.3729 19.2741 65.2742 19.2746C50.1754 19.2751 37.9355 31.5155 37.9355 46.6142C37.9355 61.713 50.1754 73.9525 65.2742 73.9519C80.3729 73.9514 92.6128 61.7111 92.6128 46.6123ZM65.2742 12.1145C84.3273 12.1138 99.7729 27.5589 99.7729 46.6121C99.7729 65.6652 84.3273 81.1114 65.2742 81.1121C46.221 81.1127 30.7754 65.6676 30.7754 46.6145C30.7754 27.5613 46.221 12.1151 65.2742 12.1145Z" fill="black"/>
<path d="M25.7754 71.616C25.7754 92.8789 43.0124 110.115 64.2754 110.115C85.5383 110.114 102.775 92.8762 102.775 71.6133C102.775 50.3503 85.5384 33.1139 64.2754 33.1146C43.0124 33.1154 25.7754 50.353 25.7754 71.616Z" fill="#002B57"/>
<path d="M23.9902 102.61C23.9902 109.394 29.4903 114.894 36.2749 114.895C43.0595 114.896 48.5596 109.399 48.5596 102.615C48.5596 95.8319 43.0595 90.3319 36.2749 90.3306C29.4903 90.3292 23.9902 95.827 23.9902 102.61Z" fill="#295E7C"/>
<path fill-rule="evenodd" clip-rule="evenodd" d="M36.2754 88.1162C44.2835 88.1178 50.7754 94.6097 50.7754 102.616C50.7754 110.623 44.2835 117.112 36.2754 117.11C28.2674 117.109 21.7755 110.617 21.7755 102.61C21.7755 94.6038 28.2674 88.1146 36.2754 88.1162ZM46.3449 102.615C46.3449 97.0552 41.8366 92.547 36.2754 92.5458C30.7143 92.5447 26.206 97.0511 26.206 102.611C26.206 108.171 30.7143 112.679 36.2754 112.681C41.8366 112.682 46.3449 108.175 46.3449 102.615Z" fill="black"/>
<path d="M80.9902 102.61C80.9902 109.394 86.4903 114.894 93.2749 114.895C100.06 114.896 105.56 109.399 105.56 102.615C105.56 95.8319 100.06 90.3319 93.2749 90.3306C86.4903 90.3292 80.9902 95.827 80.9902 102.61Z" fill="#295E7C"/>
<path fill-rule="evenodd" clip-rule="evenodd" d="M93.2754 88.1162C101.284 88.1178 107.775 94.6097 107.775 102.616C107.775 110.623 101.284 117.112 93.2754 117.11C85.2674 117.109 78.7755 110.617 78.7755 102.61C78.7755 94.6038 85.2674 88.1146 93.2754 88.1162ZM103.345 102.615C103.345 97.0552 98.8366 92.547 93.2754 92.5458C87.7143 92.5447 83.206 97.0511 83.206 102.611C83.206 108.171 87.7143 112.679 93.2754 112.681C98.8366 112.682 103.345 108.175 103.345 102.615Z" fill="black"/>
</svg>
