<svg width="128" height="129" viewBox="0 0 128 129" fill="none" xmlns="http://www.w3.org/2000/svg">
<path d="M116.891 65.5672C116.891 55.4111 108.658 47.1762 98.5021 47.1742C88.346 47.1722 80.1128 55.4037 80.1128 65.5599C80.1128 75.716 88.346 83.9509 98.5021 83.9529C108.658 83.9549 116.891 75.7234 116.891 65.5672Z" fill="#676767"/>
<path d="M116.888 65.5672C116.888 55.4111 108.654 47.1762 98.4982 47.1742C88.3421 47.1722 80.1089 55.4037 80.1089 65.5599C80.1089 75.716 88.3421 83.9509 98.4982 83.9529C108.654 83.9549 116.888 75.7234 116.888 65.5672Z" fill="#3C2A63"/>
<path d="M87.2177 83.7983C86.8356 83.9476 86.3988 83.9075 86.0457 83.6819C85.6454 83.4234 85.4124 82.9685 85.4452 82.4953L87.2468 56.2239C87.276 55.798 87.5125 55.4122 87.8802 55.1938C88.2478 54.9754 88.6991 54.9536 89.0885 55.1319L107.753 63.7107C108.197 63.9146 108.492 64.3513 108.51 64.8427C108.528 65.3341 108.273 65.7927 107.844 66.0292L95.7055 72.8246C95.0759 73.174 94.2824 72.952 93.933 72.3223C93.5836 71.6963 93.8056 70.8992 94.4353 70.5498L104.339 65.0065L89.7182 58.2839L88.2114 80.2896L115.953 64.981L83.9274 49.7124C83.2796 49.403 83.0029 48.6241 83.3123 47.9763C83.6217 47.3284 84.4006 47.0518 85.0485 47.3611L119.36 63.7217C119.8 63.9328 120.088 64.3695 120.103 64.8573C120.117 65.345 119.859 65.7999 119.429 66.0365L87.3779 83.7255C87.3233 83.7547 87.2723 83.7765 87.2177 83.7983Z" fill="#FBCE00"/>
<path fill-rule="evenodd" clip-rule="evenodd" d="M80.8636 65.5617C80.8636 75.314 88.7656 83.2098 98.4995 83.2112C108.233 83.2127 116.135 75.3192 116.135 65.5669C116.135 55.8146 108.233 47.9188 98.4995 47.9173C88.7656 47.9159 80.8636 55.8094 80.8636 65.5617ZM98.4995 91.0643C84.4101 91.0622 72.9995 79.6377 72.9995 65.5605C72.9995 51.4834 84.4101 40.0622 98.4995 40.0643C112.589 40.0664 124 51.4909 124 65.568C124 79.6451 112.589 91.0664 98.4995 91.0643Z" fill="black"/>
<path d="M11.1075 65.5672C11.1075 55.4111 19.3407 47.1762 29.4969 47.1742C39.653 47.1722 47.8862 55.4037 47.8862 65.5599C47.8862 75.716 39.653 83.9509 29.4969 83.9529C19.3407 83.9549 11.1075 75.7234 11.1075 65.5672Z" fill="#676767"/>
<path d="M11.0411 65.5672C11.0411 55.4111 19.2743 47.1762 29.4305 47.1742C39.5866 47.1722 47.8198 55.4037 47.8198 65.5599C47.8198 75.716 39.5866 83.9509 29.4305 83.9529C19.2743 83.9549 11.0411 75.7234 11.0411 65.5672Z" fill="#3C2A63"/>
<path d="M40.691 82.7983C41.0731 82.9476 41.5099 82.9075 41.8629 82.6819C42.2633 82.4234 42.4963 81.9685 42.4635 81.4953L40.6618 55.2239C40.6327 54.798 40.3961 54.4122 40.0285 54.1938C39.6609 53.9754 39.2096 53.9536 38.8201 54.1319L20.1557 62.7107C19.7116 62.9146 19.4168 63.3513 19.3986 63.8427C19.3804 64.3341 19.6352 64.7927 20.0647 65.0292L32.2031 71.8246C32.8328 72.174 33.6263 71.952 33.9757 71.3223C34.3251 70.6963 34.1031 69.8992 33.4734 69.5498L23.5697 64.0065L38.1905 57.2839L39.6973 79.2896L11.9554 63.981L43.9813 48.7124C44.6291 48.403 44.9058 47.6241 44.5964 46.9763C44.287 46.3284 43.5081 46.0518 42.8602 46.3611L8.54864 62.7217C8.10824 62.9328 7.8207 63.3695 7.80614 63.8573C7.79158 64.345 8.05 64.7999 8.47949 65.0365L40.5308 82.7255C40.5854 82.7547 40.6364 82.7765 40.691 82.7983Z" fill="#FBCE00"/>
<path fill-rule="evenodd" clip-rule="evenodd" d="M47.1354 65.5617C47.1354 75.314 39.2334 83.2098 29.4995 83.2112C19.7656 83.2127 11.8636 75.3192 11.8636 65.5669C11.8636 55.8146 19.7656 47.9188 29.4995 47.9173C39.2334 47.9159 47.1354 55.8094 47.1354 65.5617ZM29.4995 91.0643C43.5889 91.0622 54.9995 79.6377 54.9995 65.5605C54.9995 51.4834 43.5889 40.0622 29.4995 40.0643C15.4101 40.0664 3.99951 51.4909 3.99951 65.568C3.99951 79.6451 15.4101 91.0664 29.4995 91.0643Z" fill="black"/>
</svg>
