<svg width="135" height="129" viewBox="0 0 135 129" fill="none" xmlns="http://www.w3.org/2000/svg">
<path d="M9.66338 56.8522C8.78563 59.379 8.34276 62.0182 8.34276 64.7272C8.34276 77.7442 18.8846 88.5299 31.7782 88.7675C31.8765 88.7732 31.9757 88.7764 32.074 88.7764L32.2171 88.7764C32.3146 88.7764 32.4154 88.7732 32.4497 88.7699C45.4074 88.5299 55.9492 77.7442 55.9492 64.7272C55.9492 62.023 55.5039 59.3838 54.6245 56.8522L61.3691 56.8522L57.2554 42.9335L34.8544 42.9335L34.8551 51.6083L34.86 51.7432C34.9863 54.3928 37.2766 55.3563 38.2718 55.7746L38.2742 55.7754C38.7323 56.0533 39.2679 56.8192 39.8674 58.0541C40.4502 59.2537 40.758 60.585 40.758 61.9042C40.758 66.6968 36.8984 70.6399 32.1899 70.6954C27.4167 70.6408 23.5331 66.6968 23.5331 61.9042C23.5331 60.5858 23.8417 59.2537 24.4229 58.0549C25.0256 56.8168 25.5604 56.05 26.0129 55.7762L26.0353 55.7674C27.013 55.3555 29.3025 54.3912 29.4328 51.6669L29.4368 42.9327L7.03414 42.9327L2.92037 56.8514L9.66338 56.8514L9.66338 56.8522ZM9.42915 50.2184L10.2869 47.3126L25.076 47.3126L25.076 50.2329L9.42915 50.2184ZM9.32204 51.0928L25.1607 51.1081L25.8746 51.1089C26.0121 51.2221 26.1024 51.3883 26.0928 51.581C26.0696 52.0812 25.566 52.3269 24.741 52.673C24.6659 52.7043 24.6051 52.7283 24.574 52.7452C23.0655 53.5096 22.1326 55.1138 21.4195 56.5824C20.6153 58.2388 20.1908 60.0783 20.1908 61.905C20.1908 68.5283 25.5572 73.9777 32.1532 74.054C38.7347 73.9777 44.1011 68.5275 44.1011 61.905C44.1011 60.0791 43.6766 58.2388 42.8716 56.5824C42.1585 55.1138 41.2264 53.5096 39.718 52.7436C39.6876 52.7284 39.6268 52.7043 39.5509 52.673C38.7275 52.3261 38.2231 52.0812 38.1999 51.581C38.1895 51.3891 38.2814 51.2221 38.4189 51.1089L39.152 51.1081L54.9707 51.0928L56.0331 51.092L55.8676 50.5324L56.0051 50.4914L56.8893 53.4951L49.2989 53.4951L49.3285 53.5401C51.4757 56.9044 52.6052 60.7696 52.6052 64.7288C52.6052 74.4049 45.8598 82.6204 36.8465 84.8284C37.2662 84.4791 37.5747 84.0046 37.7194 83.3759C37.7754 83.1302 37.8146 82.8693 37.8146 82.5722C37.8146 82.1587 37.8146 81.9106 37.7658 81.7098C37.6819 81.3654 37.4356 81.1679 37.0879 81.1679C36.9048 81.1679 36.7026 81.2185 36.3956 81.2931C35.7113 81.4593 34.4379 81.7701 32.1467 81.7701C30.0043 81.7701 28.7884 81.5228 28.061 81.3758C27.7348 81.3092 27.5182 81.265 27.3303 81.265C26.5517 81.265 26.5517 81.9379 26.5517 82.7191C26.5517 82.964 26.5805 83.1832 26.6228 83.3904C26.7468 84.0118 27.0401 84.4823 27.4478 84.8292C18.4337 82.622 11.6859 74.4065 11.6859 64.7288C11.6859 60.7696 12.8155 56.906 14.9547 53.553L14.9939 53.4968L7.40107 53.4968L8.28841 50.4898L8.4283 50.5316L8.26202 51.0928L9.32204 51.0928ZM39.2167 50.2321L39.2167 47.3118L54.0042 47.3118L54.8628 50.2176L39.2167 50.2321ZM27.4214 82.7183C27.4214 82.5039 27.4214 82.2871 27.4334 82.149C27.5422 82.1643 27.7012 82.1956 27.8851 82.2325C28.6437 82.3867 29.9132 82.6452 32.1444 82.6452C34.5402 82.6452 35.8792 82.3185 36.5987 82.1434C36.721 82.1137 36.8401 82.0848 36.9328 82.0647C36.94 82.1972 36.94 82.3867 36.94 82.5706C36.94 84.7947 34.5714 84.9793 32.1444 84.9793C29.7549 84.9801 27.4222 84.8059 27.4214 82.7183ZM37.0903 82.0439C37.0895 82.0439 37.0887 82.0439 37.0871 82.0439L37.0871 81.6079L37.0871 81.6071L37.0871 81.6079L37.0903 82.0439Z" fill="#010101"/>
<path d="M17.1811 52.3272L15.9236 54.1948C13.9131 57.3454 12.8467 60.9923 12.8467 64.7283C12.8467 73.4617 18.6704 80.9329 26.6205 83.3906C26.5781 83.1827 26.5493 82.9635 26.5493 82.7194C26.5493 81.9381 26.5493 81.2653 27.3279 81.2653C27.5158 81.2653 27.7324 81.3094 28.0586 81.3761C28.7861 81.5238 30.0028 81.7703 32.1444 81.7703C34.4355 81.7703 35.7089 81.4596 36.3932 81.2934C36.7002 81.2179 36.9033 81.1681 37.0855 81.1681C37.4333 81.1681 37.6787 81.3657 37.7634 81.7101C37.8122 81.9108 37.8122 82.1597 37.8122 82.5724C37.8122 82.8695 37.773 83.1305 37.7171 83.3762C45.6408 80.9032 51.4413 73.4432 51.4413 64.7283C51.4413 60.9931 50.3749 57.3462 48.3564 54.1835L47.1069 52.3272L55.332 52.3272L54.9691 51.0931L39.1504 51.1083C39.2008 51.1517 39.2455 51.1999 39.2791 51.2569C39.4422 51.3613 39.8523 51.5355 39.997 51.5941C40.1081 51.6415 40.196 51.6784 40.2392 51.7009C42.0682 52.6275 43.1634 54.5232 43.9157 56.0704C44.7982 57.8842 45.2643 59.9019 45.2643 61.9052C45.2643 69.1652 39.3822 75.1382 32.1532 75.2217C24.9105 75.1382 19.0285 69.1636 19.0285 61.9052C19.0285 59.9027 19.4937 57.885 20.3771 56.0704C21.1269 54.5224 22.2245 52.6275 24.0536 51.7009C24.0967 51.6792 24.1839 51.6407 24.295 51.5941C24.4413 51.5347 24.8506 51.3613 25.0129 51.2569C25.0488 51.1959 25.1056 51.1533 25.1615 51.1083L9.32287 51.0931L8.95914 52.3264L17.1811 52.3264L17.1811 52.3272ZM16.5967 57.0933C17.6543 57.0933 18.5153 57.9573 18.5153 59.0195C18.5153 60.0826 17.6543 60.9465 16.5967 60.9465C15.5391 60.9465 14.6789 60.0818 14.6789 59.0195C14.6789 57.9581 15.5391 57.0933 16.5967 57.0933ZM49.6131 59.0203C49.6131 60.0834 48.7521 60.9473 47.6945 60.9473C46.6361 60.9473 45.7759 60.0826 45.7759 59.0203C45.7759 57.9589 46.6361 57.0941 47.6945 57.0941C48.7521 57.0933 49.6131 57.9573 49.6131 59.0203ZM47.1125 72.5953C46.0549 72.5953 45.1955 71.7306 45.1955 70.6675C45.1947 69.6061 46.0541 68.7421 47.1125 68.7421C48.1701 68.7421 49.0311 69.6061 49.0311 70.6675C49.0311 71.7306 48.1701 72.5953 47.1125 72.5953ZM44.5288 75.6312C44.5288 76.6926 43.6679 77.5582 42.611 77.5582C41.5534 77.5582 40.6917 76.6926 40.6917 75.6312C40.6909 74.5681 41.5534 73.7034 42.611 73.7034C43.6671 73.7034 44.5288 74.5681 44.5288 75.6312ZM21.6817 77.5582C20.6225 77.5582 19.7623 76.6926 19.7623 75.6312C19.7623 74.5681 20.6225 73.7034 21.6817 73.7034C22.7393 73.7034 23.5995 74.5681 23.5995 75.6312C23.5995 76.6926 22.7393 77.5582 21.6817 77.5582ZM15.2593 70.6667C15.2593 69.6052 16.1194 68.7413 17.1771 68.7413C18.2347 68.7413 19.0956 69.6052 19.0956 70.6667C19.0956 71.7298 18.2347 72.5945 17.1771 72.5945C16.1194 72.5945 15.2593 71.7306 15.2593 70.6667ZM15.6949 63.0229C16.7526 63.0229 17.6127 63.8868 17.6127 64.9491C17.6127 66.0106 16.7526 66.8745 15.6949 66.8745C14.6373 66.8745 13.778 66.0106 13.778 64.9491C13.7772 63.8868 14.6373 63.0229 15.6949 63.0229ZM48.5954 66.8753C47.5378 66.8753 46.6768 66.0114 46.6768 64.9499C46.6768 63.8876 47.5378 63.0237 48.5954 63.0237C49.6538 63.0237 50.514 63.8876 50.514 64.9499C50.514 66.0114 49.6538 66.8753 48.5954 66.8753Z" fill="#758B94"/>
<path d="M8.2898 50.4897L7.40245 53.4967L14.9952 53.4967L14.9561 53.5529C12.8169 56.9059 11.6873 60.7695 11.6873 64.7287C11.6873 74.4064 18.4343 82.6219 27.4492 84.8291C27.0415 84.4814 26.7481 84.0117 26.6242 83.3903C18.6741 80.9325 12.8504 73.4613 12.8504 64.7279C12.8504 60.9919 13.9168 57.3451 15.9273 54.1944L17.1848 52.3268L8.9613 52.3268L9.32503 51.0935L8.26422 51.0927L8.43049 50.5315L8.2898 50.4897Z" fill="#20343C"/>
<path d="M47.1067 52.3276L48.3562 54.184C50.3747 57.3459 51.4411 60.9927 51.4411 64.7287C51.4411 73.4437 45.6406 80.9036 37.7169 83.3766C37.5722 84.0053 37.2644 84.4798 36.8439 84.8291C45.8573 82.6211 52.6027 74.4064 52.6027 64.7295C52.6027 60.7703 51.4731 56.9059 49.3259 53.5408L49.2963 53.4959L56.8867 53.4959L56.0026 50.4921L55.8651 50.5331L56.0306 51.0927L54.9681 51.0935L55.3311 52.3276L47.1067 52.3276Z" fill="#20343C"/>
<path d="M24.2944 51.5941C24.1833 51.6407 24.0961 51.6784 24.053 51.7009C22.2239 52.6274 21.1271 54.5231 20.3765 56.0704C19.4939 57.885 19.0279 59.9019 19.0279 61.9052C19.0279 69.1636 24.9099 75.1382 32.1526 75.2217C39.3816 75.1382 45.2637 69.1652 45.2637 61.9052C45.2637 59.9027 44.7976 57.8842 43.9151 56.0704C43.1636 54.5223 42.0676 52.6274 40.2386 51.7009C40.1954 51.6792 40.1075 51.6415 39.9964 51.5941C39.8509 51.5355 39.4416 51.3612 39.2785 51.2569C39.2449 51.1999 39.1994 51.1517 39.1498 51.1083L38.4167 51.1091C38.2784 51.2223 38.1873 51.3893 38.1977 51.5812C38.2209 52.0815 38.7253 52.3271 39.5487 52.6732C39.6246 52.7045 39.6854 52.7286 39.7158 52.7439C41.2251 53.5099 42.1572 55.1141 42.8694 56.5826C43.6744 58.2391 44.0989 60.0786 44.0989 61.9052C44.0989 68.5277 38.7325 73.978 32.151 74.0542C25.5551 73.9779 20.1886 68.5285 20.1886 61.9052C20.1886 60.0794 20.6131 58.2399 21.4173 56.5826C22.1312 55.1141 23.0641 53.5098 24.5718 52.7455C24.603 52.7286 24.6637 52.7045 24.7389 52.6732C25.5638 52.3263 26.0675 52.0815 26.0906 51.5812C26.1002 51.3885 26.0091 51.2223 25.8724 51.1091L25.1585 51.1083C25.1034 51.1525 25.0458 51.195 25.0099 51.2569C24.85 51.3612 24.4407 51.5339 24.2944 51.5941Z" fill="#B2CCD6"/>
<path d="M16.5965 57.968C16.0177 57.968 15.5485 58.4393 15.5485 59.0206C15.5485 59.602 16.0177 60.0732 16.5965 60.0732C17.1753 60.0732 17.6445 59.602 17.6445 59.0206C17.6445 58.4393 17.1753 57.968 16.5965 57.968Z" fill="#4E5E62"/>
<path d="M14.6793 59.0203C14.6793 60.0825 15.5394 60.9473 16.597 60.9473C17.6547 60.9473 18.5156 60.0833 18.5156 59.0203C18.5156 57.958 17.6547 57.094 16.597 57.094C15.5394 57.094 14.6793 57.958 14.6793 59.0203ZM16.597 57.9684C17.1758 57.9684 17.6451 58.4405 17.6451 59.0203C17.6451 59.6008 17.1758 60.0721 16.597 60.0721C16.0191 60.0721 15.549 59.6008 15.549 59.0203C15.549 58.4397 16.0199 57.9684 16.597 57.9684Z" fill="#010101"/>
<path d="M15.695 63.8973C15.1166 63.8973 14.6477 64.3682 14.6477 64.9492C14.6477 65.5301 15.1166 66.001 15.695 66.001C16.2733 66.001 16.7422 65.5301 16.7422 64.9492C16.7422 64.3682 16.2733 63.8973 15.695 63.8973Z" fill="#4E5E62"/>
<path d="M15.6955 66.875C16.7531 66.875 17.6133 66.0111 17.6133 64.9496C17.6133 63.8873 16.7531 63.0234 15.6955 63.0234C14.6379 63.0234 13.7777 63.8873 13.7785 64.9496C13.7785 66.0111 14.6379 66.875 15.6955 66.875ZM16.7435 64.9488C16.7435 65.5285 16.2735 66.0006 15.6955 66.0006C15.1183 66.0006 14.6483 65.5285 14.6483 64.9488C14.6483 64.3683 15.1183 63.8954 15.6955 63.8954C16.2735 63.8962 16.7435 64.3691 16.7435 64.9488Z" fill="#010101"/>
<path d="M17.1782 69.6147C16.6003 69.6147 16.1318 70.0853 16.1318 70.6658C16.1318 71.2462 16.6003 71.7168 17.1782 71.7168C17.7561 71.7168 18.2246 71.2462 18.2246 70.6658C18.2246 70.0853 17.7561 69.6147 17.1782 69.6147Z" fill="#4E5E62"/>
<path d="M19.0977 70.6669C19.0977 69.6054 18.2367 68.7415 17.1791 68.7415C16.1215 68.7415 15.2613 69.6054 15.2613 70.6669C15.2613 71.73 16.1214 72.5947 17.1791 72.5947C18.2367 72.5947 19.0977 71.7308 19.0977 70.6669ZM16.1326 70.6661C16.1326 70.0864 16.6011 69.6151 17.1791 69.6151C17.757 69.6151 18.2263 70.0864 18.2263 70.6661C18.2263 71.2466 17.757 71.7187 17.1791 71.7187C16.6027 71.7187 16.1326 71.2466 16.1326 70.6661Z" fill="#010101"/>
<path d="M21.6829 74.5782C21.1041 74.5782 20.6349 75.0487 20.6349 75.6308C20.6357 76.2113 21.1041 76.6826 21.6829 76.6826C22.2593 76.6826 22.7285 76.2113 22.7285 75.6308C22.7277 75.0487 22.2585 74.5782 21.6829 74.5782Z" fill="#4E5E62"/>
<path d="M23.5996 75.6316C23.5996 74.5685 22.7394 73.7038 21.6818 73.7038C20.6226 73.7038 19.7624 74.5685 19.7624 75.6316C19.7624 76.693 20.6226 77.5586 21.6818 77.5586C22.7394 77.5586 23.5996 76.693 23.5996 75.6316ZM22.7267 75.6308C22.7267 76.2113 22.2574 76.6826 21.681 76.6826C21.1023 76.6826 20.6338 76.2113 20.633 75.6308C20.633 75.0487 21.1023 74.5781 21.681 74.5781C22.2574 74.5789 22.7267 75.0495 22.7267 75.6308Z" fill="#010101"/>
<path d="M25.0762 50.2324L25.0762 47.313L10.2871 47.313L9.42854 50.2188L25.0762 50.2324Z" fill="#4E5E62"/>
<path d="M47.6958 57.9683C47.1178 57.9683 46.6493 58.4388 46.6493 59.0193C46.6493 59.5997 47.1178 60.0703 47.6958 60.0703C48.2737 60.0703 48.7422 59.5997 48.7422 59.0193C48.7422 58.4388 48.2737 57.9683 47.6958 57.9683Z" fill="#4E5E62"/>
<path d="M45.7761 59.0203C45.7761 60.0825 46.6363 60.9473 47.6947 60.9473C48.7523 60.9473 49.6133 60.0833 49.6133 59.0203C49.6133 57.958 48.7523 57.094 47.6947 57.094C46.6363 57.0932 45.7761 57.958 45.7761 59.0203ZM47.6955 57.9684C48.2727 57.9684 48.7419 58.4405 48.7419 59.0203C48.7419 59.6008 48.2735 60.0721 47.6955 60.0721C47.1175 60.0721 46.6491 59.6008 46.6483 59.0203C46.6483 58.4397 47.1175 57.9684 47.6955 57.9684Z" fill="#010101"/>
<path d="M48.5954 63.8973C48.017 63.8973 47.5481 64.3682 47.5481 64.9492C47.5481 65.5301 48.017 66.001 48.5954 66.001C49.1737 66.001 49.6426 65.5301 49.6426 64.9492C49.6426 64.3682 49.1737 63.8973 48.5954 63.8973Z" fill="#4E5E62"/>
<path d="M48.597 63.0224C47.5394 63.0224 46.6785 63.8863 46.6785 64.9486C46.6785 66.0101 47.5394 66.874 48.597 66.874C49.6555 66.874 50.5156 66.0101 50.5156 64.9486C50.5156 63.8863 49.6555 63.0224 48.597 63.0224ZM47.5498 64.9486C47.5498 64.3681 48.0191 63.8952 48.597 63.8952C49.175 63.8952 49.6451 64.3681 49.6451 64.9486C49.6451 65.5283 49.175 66.0004 48.597 66.0004C48.0191 66.0004 47.5498 65.5283 47.5498 64.9486Z" fill="#010101"/>
<path d="M47.1129 69.6141C46.5346 69.6141 46.0657 70.085 46.0657 70.6659C46.0657 71.2469 46.5346 71.7178 47.1129 71.7178C47.6913 71.7178 48.1602 71.2469 48.1602 70.6659C48.1602 70.085 47.6913 69.6141 47.1129 69.6141Z" fill="#4E5E62"/>
<path d="M49.0313 70.6669C49.0313 69.6054 48.1703 68.7415 47.1127 68.7415C46.0542 68.7415 45.1949 69.6054 45.1957 70.6669C45.1957 71.73 46.055 72.5947 47.1127 72.5947C48.1703 72.5947 49.0313 71.7308 49.0313 70.6669ZM46.0662 70.6661C46.0662 70.0864 46.5355 69.6151 47.1127 69.6151C47.6914 69.6151 48.1607 70.0864 48.1607 70.6661C48.1607 71.2466 47.6914 71.7187 47.1127 71.7187C46.5355 71.7187 46.0662 71.2466 46.0662 70.6661Z" fill="#010101"/>
<path d="M42.611 74.578C42.0326 74.578 41.5638 75.0489 41.5638 75.6298C41.5638 76.2107 42.0326 76.6816 42.611 76.6816C43.1893 76.6816 43.6582 76.2107 43.6582 75.6298C43.6582 75.0489 43.1893 74.578 42.611 74.578Z" fill="#4E5E62"/>
<path d="M42.6115 73.7038C41.5539 73.7038 40.6913 74.5685 40.6921 75.6316C40.6921 76.693 41.5539 77.5586 42.6115 77.5586C43.6683 77.5586 44.5293 76.693 44.5293 75.6316C44.5301 74.5685 43.6683 73.7038 42.6115 73.7038ZM42.6115 76.6826C42.0335 76.6826 41.5635 76.2113 41.5635 75.6308C41.5635 75.0487 42.0335 74.5781 42.6115 74.5781C43.1895 74.5781 43.6587 75.0495 43.6587 75.6308C43.6587 76.2113 43.1895 76.6826 42.6115 76.6826Z" fill="#010101"/>
<path d="M54.8633 50.2188L54.0047 47.313L39.2173 47.313L39.2173 50.2324L54.8633 50.2188Z" fill="#4E5E62"/>
<path d="M37.0838 82.0439L37.0879 82.0439L37.0879 81.608L37.0838 81.608L37.0838 82.0439Z" fill="#4E5E62"/>
<path d="M36.9395 82.5717C36.9395 82.3878 36.9395 82.1983 36.9323 82.0659C36.8395 82.0851 36.7204 82.1148 36.5981 82.1445C35.8786 82.3196 34.5396 82.6464 32.1438 82.6464C29.9127 82.6464 28.6432 82.3886 27.8846 82.2337C27.7007 82.1959 27.5408 82.1646 27.4329 82.1502C27.4209 82.2883 27.4209 82.5051 27.4209 82.7194C27.4217 84.807 29.7544 84.9805 32.1438 84.9805C34.5716 84.9805 36.9395 84.795 36.9395 82.5717Z" fill="#4E5E62"/>
<path d="M81.1419 56.8522C80.2641 59.379 79.8213 62.0182 79.8213 64.7272C79.8213 77.7442 90.3631 88.5299 103.257 88.7675C103.355 88.7732 103.454 88.7764 103.553 88.7764L103.696 88.7764C103.793 88.7764 103.894 88.7732 103.928 88.7699C116.886 88.5299 127.428 77.7442 127.428 64.7272C127.428 62.023 126.982 59.3838 126.103 56.8522L132.848 56.8522L128.734 42.9335L106.333 42.9335L106.334 51.6083L106.338 51.7432C106.465 54.3928 108.755 55.3563 109.75 55.7746L109.753 55.7754C110.211 56.0533 110.746 56.8192 111.346 58.0541C111.929 59.2537 112.237 60.585 112.237 61.9042C112.237 66.6968 108.377 70.6399 103.668 70.6954C98.8952 70.6408 95.0116 66.6968 95.0116 61.9042C95.0116 60.5858 95.3202 59.2537 95.9014 58.0549C96.5041 56.8168 97.0389 56.05 97.4914 55.7762L97.5138 55.7674C98.4915 55.3555 100.781 54.3912 100.911 51.6669L100.915 42.9327L78.5127 42.9327L74.3989 56.8514L81.1419 56.8514L81.1419 56.8522ZM80.9077 50.2184L81.7654 47.3126L96.5545 47.3126L96.5545 50.2329L80.9077 50.2184ZM80.8006 51.0928L96.6392 51.1081L97.3531 51.1089C97.4906 51.2221 97.5809 51.3883 97.5713 51.581C97.5482 52.0812 97.0445 52.3269 96.2196 52.673C96.1444 52.7043 96.0837 52.7283 96.0525 52.7452C94.544 53.5096 93.6111 55.1138 92.898 56.5824C92.0938 58.2388 91.6693 60.0783 91.6693 61.905C91.6693 68.5283 97.0357 73.9777 103.632 74.054C110.213 73.9777 115.58 68.5275 115.58 61.905C115.58 60.0791 115.155 58.2388 114.35 56.5824C113.637 55.1138 112.705 53.5096 111.196 52.7436C111.166 52.7284 111.105 52.7043 111.029 52.673C110.206 52.3261 109.702 52.0812 109.678 51.581C109.668 51.3891 109.76 51.2221 109.897 51.1089L110.63 51.1081L126.449 51.0928L127.512 51.092L127.346 50.5324L127.484 50.4914L128.368 53.4951L120.777 53.4951L120.807 53.5401C122.954 56.9044 124.084 60.7696 124.084 64.7288C124.084 74.4049 117.338 82.6204 108.325 84.8284C108.745 84.4791 109.053 84.0046 109.198 83.3759C109.254 83.1302 109.293 82.8693 109.293 82.5722C109.293 82.1587 109.293 81.9106 109.244 81.7098C109.16 81.3654 108.914 81.1679 108.566 81.1679C108.383 81.1679 108.181 81.2185 107.874 81.2931C107.19 81.4593 105.916 81.7701 103.625 81.7701C101.483 81.7701 100.267 81.5228 99.5395 81.3758C99.2133 81.3092 98.9967 81.265 98.8088 81.265C98.0302 81.265 98.0302 81.9379 98.0302 82.7191C98.0302 82.964 98.059 83.1832 98.1014 83.3904C98.2253 84.0118 98.5186 84.4823 98.9263 84.8292C89.9122 82.622 83.1644 74.4065 83.1644 64.7288C83.1644 60.7696 84.294 56.906 86.4332 53.553L86.4724 53.4968L78.8796 53.4968L79.7669 50.4898L79.9068 50.5316L79.7405 51.0928L80.8006 51.0928ZM110.695 50.2321L110.695 47.3118L125.483 47.3118L126.341 50.2176L110.695 50.2321ZM98.9 82.7183C98.9 82.5039 98.9 82.2871 98.912 82.149C99.0207 82.1643 99.1798 82.1956 99.3636 82.2325C100.122 82.3867 101.392 82.6452 103.623 82.6452C106.019 82.6452 107.358 82.3185 108.077 82.1434C108.199 82.1137 108.319 82.0848 108.411 82.0647C108.419 82.1972 108.419 82.3867 108.419 82.5706C108.419 84.7947 106.05 84.9793 103.623 84.9793C101.233 84.9801 98.9008 84.8059 98.9 82.7183ZM108.569 82.0439C108.568 82.0439 108.567 82.0439 108.566 82.0439L108.566 81.6079L108.566 81.6071L108.566 81.6079L108.569 82.0439Z" fill="#010101"/>
<path d="M88.6596 52.3272L87.4021 54.1948C85.3916 57.3454 84.3252 60.9923 84.3252 64.7283C84.3252 73.4617 90.1489 80.9329 98.099 83.3906C98.0566 83.1827 98.0278 82.9635 98.0278 82.7194C98.0278 81.9381 98.0278 81.2653 98.8065 81.2653C98.9943 81.2653 99.211 81.3094 99.5371 81.3761C100.265 81.5238 101.481 81.7703 103.623 81.7703C105.914 81.7703 107.187 81.4596 107.872 81.2934C108.179 81.2179 108.382 81.1681 108.564 81.1681C108.912 81.1681 109.157 81.3657 109.242 81.7101C109.291 81.9108 109.291 82.1597 109.291 82.5724C109.291 82.8695 109.252 83.1305 109.196 83.3762C117.119 80.9032 122.92 73.4432 122.92 64.7283C122.92 60.9931 121.853 57.3462 119.835 54.1835L118.585 52.3272L126.811 52.3272L126.448 51.0931L110.629 51.1083C110.679 51.1517 110.724 51.1999 110.758 51.2569C110.921 51.3613 111.331 51.5355 111.475 51.5941C111.587 51.6415 111.675 51.6784 111.718 51.7009C113.547 52.6275 114.642 54.5232 115.394 56.0704C116.277 57.8842 116.743 59.9019 116.743 61.9052C116.743 69.1652 110.861 75.1382 103.632 75.2217C96.389 75.1382 90.507 69.1636 90.507 61.9052C90.507 59.9027 90.9723 57.885 91.8556 56.0704C92.6054 54.5224 93.703 52.6275 95.5321 51.7009C95.5753 51.6792 95.6624 51.6407 95.7735 51.5941C95.9198 51.5347 96.3291 51.3613 96.4914 51.2569C96.5274 51.1959 96.5841 51.1533 96.6401 51.1083L80.8014 51.0931L80.4377 52.3264L88.6596 52.3264L88.6596 52.3272ZM88.0752 57.0933C89.1328 57.0933 89.9938 57.9573 89.9938 59.0195C89.9938 60.0826 89.1328 60.9465 88.0752 60.9465C87.0176 60.9465 86.1574 60.0818 86.1574 59.0195C86.1574 57.9581 87.0176 57.0933 88.0752 57.0933ZM121.092 59.0203C121.092 60.0834 120.231 60.9473 119.173 60.9473C118.115 60.9473 117.254 60.0826 117.254 59.0203C117.254 57.9589 118.115 57.0941 119.173 57.0941C120.231 57.0933 121.092 57.9573 121.092 59.0203ZM118.591 72.5953C117.533 72.5953 116.674 71.7306 116.674 70.6675C116.673 69.6061 117.533 68.7421 118.591 68.7421C119.649 68.7421 120.51 69.6061 120.51 70.6675C120.51 71.7306 119.649 72.5953 118.591 72.5953ZM116.007 75.6312C116.007 76.6926 115.146 77.5582 114.09 77.5582C113.032 77.5582 112.17 76.6926 112.17 75.6312C112.169 74.5681 113.032 73.7034 114.09 73.7034C115.146 73.7034 116.007 74.5681 116.007 75.6312ZM93.1602 77.5582C92.101 77.5582 91.2409 76.6926 91.2409 75.6312C91.2409 74.5681 92.101 73.7034 93.1602 73.7034C94.2179 73.7034 95.078 74.5681 95.078 75.6312C95.078 76.6926 94.2179 77.5582 93.1602 77.5582ZM86.7378 70.6667C86.7378 69.6052 87.598 68.7413 88.6556 68.7413C89.7132 68.7413 90.5741 69.6052 90.5741 70.6667C90.5741 71.7298 89.7132 72.5945 88.6556 72.5945C87.598 72.5945 86.7378 71.7306 86.7378 70.6667ZM87.1735 63.0229C88.2311 63.0229 89.0912 63.8868 89.0912 64.9491C89.0912 66.0106 88.2311 66.8745 87.1735 66.8745C86.1158 66.8745 85.2565 66.0106 85.2565 64.9491C85.2557 63.8868 86.1158 63.0229 87.1735 63.0229ZM120.074 66.8753C119.016 66.8753 118.155 66.0114 118.155 64.9499C118.155 63.8876 119.016 63.0237 120.074 63.0237C121.132 63.0237 121.993 63.8876 121.993 64.9499C121.993 66.0114 121.132 66.8753 120.074 66.8753Z" fill="#758B94"/>
<path d="M79.7664 50.4897L78.879 53.4967L86.4718 53.4967L86.4326 53.5529C84.2934 56.9059 83.1638 60.7695 83.1638 64.7287C83.1638 74.4064 89.9108 82.6219 98.9258 84.8291C98.5181 84.4814 98.2247 84.0117 98.1008 83.3903C90.1507 80.9325 84.327 73.4613 84.327 64.7279C84.327 60.9919 85.3934 57.3451 87.4039 54.1944L88.6614 52.3268L80.4379 52.3268L80.8016 51.0935L79.7408 51.0927L79.9071 50.5315L79.7664 50.4897Z" fill="#20343C"/>
<path d="M118.585 52.3276L119.835 54.184C121.853 57.3459 122.92 60.9927 122.92 64.7287C122.92 73.4437 117.119 80.9036 109.195 83.3766C109.051 84.0053 108.743 84.4798 108.322 84.8291C117.336 82.6211 124.081 74.4064 124.081 64.7295C124.081 60.7703 122.952 56.9059 120.804 53.5408L120.775 53.4959L128.365 53.4959L127.481 50.4921L127.344 50.5331L127.509 51.0927L126.447 51.0935L126.81 52.3276L118.585 52.3276Z" fill="#20343C"/>
<path d="M95.7729 51.5941C95.6618 51.6407 95.5746 51.6784 95.5315 51.7009C93.7024 52.6274 92.6056 54.5231 91.855 56.0704C90.9724 57.885 90.5064 59.9019 90.5064 61.9052C90.5064 69.1636 96.3884 75.1382 103.631 75.2217C110.86 75.1382 116.742 69.1652 116.742 61.9052C116.742 59.9027 116.276 57.8842 115.394 56.0704C114.642 54.5223 113.546 52.6274 111.717 51.7009C111.674 51.6792 111.586 51.6415 111.475 51.5941C111.329 51.5355 110.92 51.3612 110.757 51.2569C110.723 51.1999 110.678 51.1517 110.628 51.1083L109.895 51.1091C109.757 51.2223 109.666 51.3893 109.676 51.5812C109.699 52.0815 110.204 52.3271 111.027 52.6732C111.103 52.7045 111.164 52.7286 111.194 52.7439C112.704 53.5099 113.636 55.1141 114.348 56.5826C115.153 58.2391 115.577 60.0786 115.577 61.9052C115.577 68.5277 110.211 73.978 103.629 74.0542C97.0336 73.9779 91.6671 68.5285 91.6671 61.9052C91.6671 60.0794 92.0916 58.2399 92.8958 56.5826C93.6097 55.1141 94.5426 53.5098 96.0503 52.7455C96.0815 52.7286 96.1422 52.7045 96.2174 52.6732C97.0424 52.3263 97.546 52.0815 97.5692 51.5812C97.5788 51.3885 97.4876 51.2223 97.3509 51.1091L96.6371 51.1083C96.5819 51.1525 96.5243 51.195 96.4884 51.2569C96.3285 51.3612 95.9192 51.5339 95.7729 51.5941Z" fill="#B2CCD6"/>
<path d="M88.075 57.968C87.4962 57.968 87.027 58.4393 87.027 59.0206C87.027 59.602 87.4962 60.0732 88.075 60.0732C88.6538 60.0732 89.123 59.602 89.123 59.0206C89.123 58.4393 88.6538 57.968 88.075 57.968Z" fill="#4E5E62"/>
<path d="M86.1578 59.0203C86.1578 60.0825 87.0179 60.9473 88.0756 60.9473C89.1332 60.9473 89.9941 60.0833 89.9941 59.0203C89.9941 57.958 89.1332 57.094 88.0756 57.094C87.0179 57.094 86.1578 57.958 86.1578 59.0203ZM88.0756 57.9684C88.6543 57.9684 89.1236 58.4405 89.1236 59.0203C89.1236 59.6008 88.6543 60.0721 88.0756 60.0721C87.4976 60.0721 87.0275 59.6008 87.0275 59.0203C87.0275 58.4397 87.4984 57.9684 88.0756 57.9684Z" fill="#010101"/>
<path d="M87.1735 63.8973C86.5951 63.8973 86.1263 64.3682 86.1263 64.9492C86.1263 65.5301 86.5951 66.001 87.1735 66.001C87.7518 66.001 88.2207 65.5301 88.2207 64.9492C88.2207 64.3682 87.7518 63.8973 87.1735 63.8973Z" fill="#4E5E62"/>
<path d="M87.174 66.875C88.2316 66.875 89.0918 66.0111 89.0918 64.9496C89.0918 63.8873 88.2316 63.0234 87.174 63.0234C86.1164 63.0234 85.2562 63.8873 85.257 64.9496C85.257 66.0111 86.1164 66.875 87.174 66.875ZM88.222 64.9488C88.222 65.5285 87.752 66.0006 87.174 66.0006C86.5968 66.0006 86.1268 65.5285 86.1268 64.9488C86.1268 64.3683 86.5968 63.8954 87.174 63.8954C87.752 63.8962 88.222 64.3691 88.222 64.9488Z" fill="#010101"/>
<path d="M88.6567 69.6147C88.0788 69.6147 87.6103 70.0853 87.6103 70.6658C87.6103 71.2462 88.0788 71.7168 88.6567 71.7168C89.2346 71.7168 89.7031 71.2462 89.7031 70.6658C89.7031 70.0853 89.2346 69.6147 88.6567 69.6147Z" fill="#4E5E62"/>
<path d="M90.5762 70.6669C90.5762 69.6054 89.7152 68.7415 88.6576 68.7415C87.6 68.7415 86.7398 69.6054 86.7398 70.6669C86.7398 71.73 87.6 72.5947 88.6576 72.5947C89.7152 72.5947 90.5762 71.7308 90.5762 70.6669ZM87.6112 70.6661C87.6112 70.0864 88.0796 69.6151 88.6576 69.6151C89.2356 69.6151 89.7048 70.0864 89.7048 70.6661C89.7048 71.2466 89.2356 71.7187 88.6576 71.7187C88.0812 71.7187 87.6112 71.2466 87.6112 70.6661Z" fill="#010101"/>
<path d="M93.1614 74.5782C92.5826 74.5782 92.1134 75.0487 92.1134 75.6308C92.1142 76.2113 92.5826 76.6826 93.1614 76.6826C93.7378 76.6826 94.207 76.2113 94.207 75.6308C94.2062 75.0487 93.737 74.5782 93.1614 74.5782Z" fill="#4E5E62"/>
<path d="M95.0781 75.6316C95.0781 74.5685 94.218 73.7038 93.1603 73.7038C92.1011 73.7038 91.241 74.5685 91.241 75.6316C91.241 76.693 92.1011 77.5586 93.1603 77.5586C94.218 77.5586 95.0781 76.693 95.0781 75.6316ZM94.2052 75.6308C94.2052 76.2113 93.7359 76.6826 93.1595 76.6826C92.5808 76.6826 92.1123 76.2113 92.1115 75.6308C92.1115 75.0487 92.5808 74.5781 93.1595 74.5781C93.7359 74.5789 94.2052 75.0495 94.2052 75.6308Z" fill="#010101"/>
<path d="M96.5547 50.2324L96.5547 47.313L81.7656 47.313L80.9071 50.2188L96.5547 50.2324Z" fill="#4E5E62"/>
<path d="M119.174 57.9692C118.596 57.9692 118.128 58.4398 118.128 59.0203C118.128 59.6007 118.596 60.0713 119.174 60.0713C119.752 60.0713 120.221 59.6007 120.221 59.0203C120.221 58.4398 119.752 57.9692 119.174 57.9692Z" fill="#4E5E62"/>
<path d="M117.255 59.0203C117.255 60.0825 118.115 60.9473 119.173 60.9473C120.231 60.9473 121.092 60.0833 121.092 59.0203C121.092 57.958 120.231 57.094 119.173 57.094C118.115 57.0932 117.255 57.958 117.255 59.0203ZM119.174 57.9684C119.751 57.9684 120.22 58.4405 120.22 59.0203C120.22 59.6008 119.752 60.0721 119.174 60.0721C118.596 60.0721 118.128 59.6008 118.127 59.0203C118.127 58.4397 118.596 57.9684 119.174 57.9684Z" fill="#010101"/>
<path d="M120.074 63.8973C119.496 63.8973 119.027 64.3682 119.027 64.9492C119.027 65.5301 119.496 66.001 120.074 66.001C120.652 66.001 121.121 65.5301 121.121 64.9492C121.121 64.3682 120.652 63.8973 120.074 63.8973Z" fill="#4E5E62"/>
<path d="M120.076 63.0234C119.018 63.0234 118.157 63.8873 118.157 64.9496C118.157 66.0111 119.018 66.875 120.076 66.875C121.134 66.875 121.994 66.0111 121.994 64.9496C121.994 63.8873 121.134 63.0234 120.076 63.0234ZM119.028 64.9496C119.028 64.3691 119.498 63.8962 120.076 63.8962C120.654 63.8962 121.124 64.3691 121.124 64.9496C121.124 65.5293 120.654 66.0014 120.076 66.0014C119.498 66.0014 119.028 65.5293 119.028 64.9496Z" fill="#010101"/>
<path d="M118.591 69.6151C118.013 69.6151 117.544 70.086 117.544 70.6669C117.544 71.2478 118.013 71.7187 118.591 71.7187C119.17 71.7187 119.639 71.2478 119.639 70.6669C119.639 70.086 119.17 69.6151 118.591 69.6151Z" fill="#4E5E62"/>
<path d="M120.51 70.6669C120.51 69.6054 119.649 68.7415 118.591 68.7415C117.533 68.7415 116.673 69.6054 116.674 70.6669C116.674 71.73 117.534 72.5947 118.591 72.5947C119.649 72.5947 120.51 71.7308 120.51 70.6669ZM117.545 70.6661C117.545 70.0864 118.014 69.6151 118.591 69.6151C119.17 69.6151 119.639 70.0864 119.639 70.6661C119.639 71.2466 119.17 71.7187 118.591 71.7187C118.014 71.7187 117.545 71.2466 117.545 70.6661Z" fill="#010101"/>
<path d="M114.089 74.578C113.511 74.578 113.042 75.0489 113.042 75.6298C113.042 76.2107 113.511 76.6816 114.089 76.6816C114.668 76.6816 115.137 76.2107 115.137 75.6298C115.137 75.0489 114.668 74.578 114.089 74.578Z" fill="#4E5E62"/>
<path d="M114.09 73.7038C113.032 73.7038 112.17 74.5685 112.171 75.6316C112.171 76.693 113.032 77.5586 114.09 77.5586C115.147 77.5586 116.008 76.693 116.008 75.6316C116.009 74.5685 115.147 73.7038 114.09 73.7038ZM114.09 76.6826C113.512 76.6826 113.042 76.2113 113.042 75.6308C113.042 75.0487 113.512 74.5781 114.09 74.5781C114.668 74.5781 115.137 75.0495 115.137 75.6308C115.137 76.2113 114.668 76.6826 114.09 76.6826Z" fill="#010101"/>
<path d="M126.342 50.2188L125.483 47.313L110.696 47.313L110.696 50.2324L126.342 50.2188Z" fill="#4E5E62"/>
<path d="M108.562 82.0439L108.566 82.0439L108.566 81.608L108.562 81.608L108.562 82.0439Z" fill="#4E5E62"/>
<path d="M108.418 82.5717C108.418 82.3878 108.418 82.1983 108.411 82.0659C108.318 82.0851 108.199 82.1148 108.077 82.1445C107.357 82.3196 106.018 82.6464 103.622 82.6464C101.391 82.6464 100.122 82.3886 99.3631 82.2337C99.1792 82.1959 99.0193 82.1646 98.9114 82.1502C98.8994 82.2883 98.8994 82.5051 98.8994 82.7194C98.9002 84.807 101.233 84.9805 103.622 84.9805C106.05 84.9805 108.418 84.795 108.418 82.5717Z" fill="#4E5E62"/>
</svg>
