<svg width="128" height="129" viewBox="0 0 128 129" fill="none" xmlns="http://www.w3.org/2000/svg">
<path fill-rule="evenodd" clip-rule="evenodd" d="M58.4785 56.221L36.9319 37.6914L8.53275 43.5599L0.76416 74.9345L22.3091 93.4643L50.7083 87.5958L58.4785 56.221Z" fill="black"/>
<path d="M9.91455 72.1462L24.4346 84.5919L29.966 63.8491L15.446 50.7119L9.91455 72.1462Z" fill="#00E5B9"/>
<path d="M24.4346 84.5916L43.7946 80.4431L49.326 59.0088L29.966 63.8488L24.4346 84.5916Z" fill="#951B70"/>
<path d="M15.4458 50.712L29.9658 63.8492L49.3258 59.0092L34.8058 46.5635L15.4458 50.712Z" fill="#FBCE00"/>
<path fill-rule="evenodd" clip-rule="evenodd" d="M68.5171 56.221L90.0637 37.6914L118.463 43.5599L126.231 74.9345L104.687 93.4643L76.2874 87.5958L68.5171 56.221Z" fill="black"/>
<path d="M117.08 72.1462L102.56 84.5919L97.0282 63.8491L111.548 50.7119L117.08 72.1462Z" fill="#00E5B9"/>
<path d="M102.56 84.5916L83.1996 80.4431L77.6681 59.0088L97.0281 63.8488L102.56 84.5916Z" fill="#951B70"/>
<path d="M111.548 50.712L97.0279 63.8492L77.6679 59.0092L92.1879 46.5635L111.548 50.712Z" fill="#FBCE00"/>
</svg>
