<svg width="128" height="129" viewBox="0 0 128 129" fill="none" xmlns="http://www.w3.org/2000/svg">
<path d="M32 47.0022C32 64.3992 46.103 78.5017 63.5 78.5011C80.897 78.5005 95 64.397 95 47C95 29.603 80.897 15.5005 63.5 15.5011C46.103 15.5017 32 29.6052 32 47.0022Z" fill="#0F1014"/>
<path fill-rule="evenodd" clip-rule="evenodd" d="M64 12.5012C82.7777 12.5005 98 27.7223 98 46.5C98 65.2777 82.7777 80.5005 64 80.5012C45.2223 80.5018 30 65.2801 30 46.5024C30 27.7247 45.2223 12.5018 64 12.5012ZM92.8097 46.5002C92.8097 30.589 79.9112 17.6909 64 17.6915C48.0888 17.692 35.1903 30.591 35.1903 46.5022C35.1903 62.4134 48.0888 75.3115 64 75.3109C79.9112 75.3104 92.8097 62.4114 92.8097 46.5002Z" fill="black"/>
<path d="M22.5 70.5C22.5 47.8563 40.6443 29.5 63 29.5C85.3557 29.5 103.5 47.8563 103.5 70.5C103.5 93.1437 85.3557 111.5 63 111.5C40.6443 111.5 22.5 93.1437 22.5 70.5Z" fill="#1B1C24"/>
<path d="M40.6716 54.8148C40.6345 54.8064 40.5975 54.8023 40.5605 54.7939C40.7456 54.8356 40.7538 54.8356 40.6716 54.8148Z" fill="#1B1C24"/>
<path d="M45.4304 100.43C45.4551 100.434 45.4798 100.438 45.5044 100.447C45.3852 100.413 45.377 100.413 45.4304 100.43Z" fill="#1B1C24"/>
<path d="M84.7352 35.9066C82.0053 34.1457 79.0576 32.7054 75.9372 31.6397C75.0943 31.7271 74.2228 31.7313 73.417 31.6522C72.9318 31.6022 72.4138 31.5148 71.8999 31.3982C71.5628 31.3483 71.2298 31.2859 70.9009 31.2068C69.3016 30.9029 67.7517 30.4408 66.654 29.6707C65.4453 29.5583 64.2242 29.5 62.9909 29.5C60.1829 29.5 57.4448 29.7914 54.8013 30.3409C61.3628 31.9353 67.9613 33.4797 74.7449 34.7119C78.0421 35.2156 81.3722 35.6235 84.7352 35.9066Z" fill="#1B1C24"/>
<path opacity="0.3" d="M84.7352 35.9066C82.0053 34.1457 79.0576 32.7054 75.9372 31.6397C75.0943 31.7271 74.2228 31.7313 73.417 31.6522C72.9318 31.6022 72.4138 31.5148 71.8999 31.3982C71.5628 31.3483 71.2298 31.2859 70.9009 31.2068C69.3016 30.9029 67.7517 30.4408 66.654 29.6707C65.4453 29.5583 64.2242 29.5 62.9909 29.5C60.1829 29.5 57.4448 29.7914 54.8013 30.3409C61.3628 31.9353 67.9613 33.4797 74.7449 34.7119C78.0421 35.2156 81.3722 35.6235 84.7352 35.9066Z" fill="#808080"/>
<path d="M60.9195 73.6137C52.8697 71.6405 44.8199 69.659 36.4823 68.1438C31.9435 67.4486 27.3472 66.9407 22.6768 66.6826C22.5617 67.9398 22.5 69.2136 22.5 70.4999C22.5 75.2664 23.3058 79.8413 24.7817 84.0957C26.2782 84.2289 27.7624 84.3621 29.226 84.5078C39.2903 85.4903 49.2189 86.889 59.2339 88.0171C68.6117 89.0744 78.01 89.9653 87.5439 90.0694C91.5976 90.1152 95.2648 90.1068 98.5908 90.0569C99.7255 87.9422 100.679 85.715 101.44 83.4005C100.856 83.3006 100.268 83.2007 99.6803 83.0966C86.2407 80.7197 73.8288 76.7775 60.9195 73.6137ZM40.6799 70.042C40.7827 70.042 40.8649 70.1253 40.8649 70.2252C40.8649 70.3293 40.7827 70.4125 40.6799 70.4125C40.5771 70.4125 40.499 70.3293 40.499 70.2252C40.499 70.1253 40.5812 70.042 40.6799 70.042ZM45.5682 82.185C45.305 82.185 45.0954 81.9685 45.0954 81.7063C45.0954 81.4398 45.3092 81.2275 45.5682 81.2275C45.8313 81.2275 46.041 81.444 46.041 81.7063C46.041 81.9685 45.8313 82.185 45.5682 82.185ZM46.1273 75.437C46.115 76.1905 45.6709 76.8441 44.7911 77.4102C44.2032 77.789 43.4879 78.1221 42.7232 78.376C41.9873 78.6174 41.1445 78.8464 40.3017 78.9463C38.7805 79.1336 37.6253 79.2127 36.0589 79.0837C35.2284 79.0129 34.3692 78.8714 33.6127 78.6632C32.4944 78.3593 31.3351 77.9264 30.5868 77.3353C29.6083 76.561 28.93 75.6077 29.2465 74.6211C29.6659 73.3182 31.15 72.3732 33.0289 71.703C34.4103 71.2118 36.2357 71.0536 37.8103 71.2076C38.2995 71.2534 38.8134 71.345 39.3273 71.4615C39.6644 71.5115 39.9974 71.5739 40.3263 71.653C42.0859 71.9861 43.788 72.5064 44.8898 73.4222C45.1612 73.672 45.4325 73.9218 45.7038 74.1715C46.0656 74.5753 46.2054 74.9958 46.1273 75.437ZM62.1488 86.7891C61.9679 86.7891 61.8199 86.6392 61.8199 86.456C61.8199 86.2729 61.9679 86.123 62.1488 86.123C62.3297 86.123 62.4777 86.2729 62.4777 86.456C62.4777 86.6392 62.3297 86.7891 62.1488 86.7891ZM67.9251 83.6544C66.7986 85.0656 63.8796 85.2863 61.5198 85.1323C59.6574 85.0074 57.7621 84.333 56.9522 83.3131C56.3931 82.6137 56.3807 81.8728 56.5575 81.1151C56.759 80.2451 58.0581 79.5541 59.4354 79.321C61.0347 79.0504 62.6668 79.1295 64.1222 79.6082C64.6073 79.7664 65.0431 79.9495 65.4213 80.191C65.4584 80.2076 65.4953 80.2284 65.5323 80.2451C66.0298 80.4074 66.5067 80.6114 66.8891 80.857C68.217 81.573 68.7145 82.6637 67.9251 83.6544ZM76.8136 86.0481C76.682 86.0481 76.5751 85.9398 76.5751 85.8066C76.5751 85.6734 76.682 85.5652 76.8136 85.5652C76.9452 85.5652 77.052 85.6734 77.052 85.8066C77.052 85.9398 76.9452 86.0481 76.8136 86.0481ZM82.2774 85.457C82.0965 85.457 81.9485 85.3071 81.9485 85.1239C81.9485 84.9408 82.0965 84.7909 82.2774 84.7909C82.4583 84.7909 82.6063 84.9408 82.6063 85.1239C82.6063 85.3071 82.4583 85.457 82.2774 85.457ZM84.5509 88.7331C84.4482 88.7331 84.3701 88.6498 84.3701 88.5458C84.3701 88.4417 84.4523 88.3584 84.5509 88.3584C84.6537 88.3584 84.736 88.4417 84.736 88.5458C84.7318 88.6498 84.6496 88.7331 84.5509 88.7331ZM87.9304 87.0721C87.7988 87.0721 87.6919 86.9639 87.6919 86.8307C87.6919 86.6975 87.7988 86.5892 87.9304 86.5892C88.0619 86.5892 88.1688 86.6975 88.1688 86.8307C88.1688 86.9639 88.0619 87.0721 87.9304 87.0721ZM87.696 81.7063C87.4329 81.7063 87.2233 81.4898 87.2233 81.2275C87.2233 80.9611 87.437 80.7488 87.696 80.7488C87.9592 80.7488 88.1688 80.9653 88.1688 81.2275C88.1688 81.4898 87.9551 81.7063 87.696 81.7063Z" fill="#1B1C24"/>
<path opacity="0.3" d="M60.9195 73.6137C52.8697 71.6405 44.8199 69.659 36.4823 68.1438C31.9435 67.4486 27.3472 66.9407 22.6768 66.6826C22.5617 67.9398 22.5 69.2136 22.5 70.4999C22.5 75.2664 23.3058 79.8413 24.7817 84.0957C26.2782 84.2289 27.7624 84.3621 29.226 84.5078C39.2903 85.4903 49.2189 86.889 59.2339 88.0171C68.6117 89.0744 78.01 89.9653 87.5439 90.0694C91.5976 90.1152 95.2648 90.1068 98.5908 90.0569C99.7255 87.9422 100.679 85.715 101.44 83.4005C100.856 83.3006 100.268 83.2007 99.6803 83.0966C86.2407 80.7197 73.8288 76.7775 60.9195 73.6137ZM40.6799 70.042C40.7827 70.042 40.8649 70.1253 40.8649 70.2252C40.8649 70.3293 40.7827 70.4125 40.6799 70.4125C40.5771 70.4125 40.499 70.3293 40.499 70.2252C40.499 70.1253 40.5812 70.042 40.6799 70.042ZM45.5682 82.185C45.305 82.185 45.0954 81.9685 45.0954 81.7063C45.0954 81.4398 45.3092 81.2275 45.5682 81.2275C45.8313 81.2275 46.041 81.444 46.041 81.7063C46.041 81.9685 45.8313 82.185 45.5682 82.185ZM46.1273 75.437C46.115 76.1905 45.6709 76.8441 44.7911 77.4102C44.2032 77.789 43.4879 78.1221 42.7232 78.376C41.9873 78.6174 41.1445 78.8464 40.3017 78.9463C38.7805 79.1336 37.6253 79.2127 36.0589 79.0837C35.2284 79.0129 34.3692 78.8714 33.6127 78.6632C32.4944 78.3593 31.3351 77.9264 30.5868 77.3353C29.6083 76.561 28.93 75.6077 29.2465 74.6211C29.6659 73.3182 31.15 72.3732 33.0289 71.703C34.4103 71.2118 36.2357 71.0536 37.8103 71.2076C38.2995 71.2534 38.8134 71.345 39.3273 71.4615C39.6644 71.5115 39.9974 71.5739 40.3263 71.653C42.0859 71.9861 43.788 72.5064 44.8898 73.4222C45.1612 73.672 45.4325 73.9218 45.7038 74.1715C46.0656 74.5753 46.2054 74.9958 46.1273 75.437ZM62.1488 86.7891C61.9679 86.7891 61.8199 86.6392 61.8199 86.456C61.8199 86.2729 61.9679 86.123 62.1488 86.123C62.3297 86.123 62.4777 86.2729 62.4777 86.456C62.4777 86.6392 62.3297 86.7891 62.1488 86.7891ZM67.9251 83.6544C66.7986 85.0656 63.8796 85.2863 61.5198 85.1323C59.6574 85.0074 57.7621 84.333 56.9522 83.3131C56.3931 82.6137 56.3807 81.8728 56.5575 81.1151C56.759 80.2451 58.0581 79.5541 59.4354 79.321C61.0347 79.0504 62.6668 79.1295 64.1222 79.6082C64.6073 79.7664 65.0431 79.9495 65.4213 80.191C65.4584 80.2076 65.4953 80.2284 65.5323 80.2451C66.0298 80.4074 66.5067 80.6114 66.8891 80.857C68.217 81.573 68.7145 82.6637 67.9251 83.6544ZM76.8136 86.0481C76.682 86.0481 76.5751 85.9398 76.5751 85.8066C76.5751 85.6734 76.682 85.5652 76.8136 85.5652C76.9452 85.5652 77.052 85.6734 77.052 85.8066C77.052 85.9398 76.9452 86.0481 76.8136 86.0481ZM82.2774 85.457C82.0965 85.457 81.9485 85.3071 81.9485 85.1239C81.9485 84.9408 82.0965 84.7909 82.2774 84.7909C82.4583 84.7909 82.6063 84.9408 82.6063 85.1239C82.6063 85.3071 82.4583 85.457 82.2774 85.457ZM84.5509 88.7331C84.4482 88.7331 84.3701 88.6498 84.3701 88.5458C84.3701 88.4417 84.4523 88.3584 84.5509 88.3584C84.6537 88.3584 84.736 88.4417 84.736 88.5458C84.7318 88.6498 84.6496 88.7331 84.5509 88.7331ZM87.9304 87.0721C87.7988 87.0721 87.6919 86.9639 87.6919 86.8307C87.6919 86.6975 87.7988 86.5892 87.9304 86.5892C88.0619 86.5892 88.1688 86.6975 88.1688 86.8307C88.1688 86.9639 88.0619 87.0721 87.9304 87.0721ZM87.696 81.7063C87.4329 81.7063 87.2233 81.4898 87.2233 81.2275C87.2233 80.9611 87.437 80.7488 87.696 80.7488C87.9592 80.7488 88.1688 80.9653 88.1688 81.2275C88.1688 81.4898 87.9551 81.7063 87.696 81.7063Z" fill="#808080"/>
<path d="M45.0006 56.4799C45.1733 56.4799 45.3172 56.5756 45.3994 56.7171C53.182 57.5872 60.907 58.6945 68.5621 59.8434C78.7169 61.367 88.9169 62.799 99.3759 63.2861C100.539 63.2986 101.699 63.2944 102.858 63.2736C102.751 62.67 102.632 62.0705 102.5 61.4753C102.394 61.4336 102.283 61.3962 102.18 61.3545C100.893 60.7884 100.153 59.8851 100.334 58.9401C100.432 58.4322 100.852 57.9868 101.452 57.6455C101.23 56.9586 100.987 56.2842 100.733 55.614C97.8013 55.5973 94.9028 55.5557 92.0661 55.5058C70.626 55.1394 50.4316 50.4438 31.0388 45.3193C30.4386 46.0978 29.8671 46.9012 29.3244 47.7213C29.3203 47.9128 29.2093 48.0793 29.0449 48.1542C27.6347 50.3439 26.4301 52.675 25.4517 55.1269C31.894 55.3975 38.2993 55.9304 44.6594 56.6339C44.7416 56.5423 44.8649 56.4799 45.0006 56.4799ZM95.1166 62.4327C95.2194 62.4327 95.2975 62.516 95.2975 62.62C95.2975 62.7241 95.2153 62.8074 95.1166 62.8074C95.0138 62.8074 94.9316 62.7241 94.9316 62.62C94.9316 62.516 95.0138 62.4327 95.1166 62.4327ZM71.1111 57.3374C71.2591 56.8129 71.8634 56.5048 72.6076 56.2925C72.6158 56.2884 72.6199 56.2884 72.6281 56.2842C72.6857 56.2634 72.7474 56.2467 72.809 56.2259C72.8954 56.1968 72.9776 56.1635 73.0598 56.1302C73.3517 56.0136 73.6683 55.922 74.0054 55.8596C75.2182 55.6473 76.3447 55.8846 77.4917 56.1094C78.1783 56.2426 78.8032 56.6131 79.1074 57.0418C79.165 56.9877 79.2431 56.9503 79.3336 56.9503C79.5145 56.9503 79.6625 57.1001 79.6625 57.2833C79.6625 57.3499 79.6378 57.4082 79.6049 57.4581C79.6584 57.4914 79.6995 57.5455 79.6995 57.6163C79.6995 57.7204 79.6172 57.8036 79.5145 57.8036C79.4117 57.8036 79.3295 57.7204 79.3295 57.6163C79.313 57.6163 79.3007 57.608 79.2883 57.608C79.2842 57.6788 79.2719 57.7537 79.239 57.8245C79.0992 58.4739 78.2112 58.9526 77.1094 59.0858C77.0313 59.1066 76.9449 59.1274 76.8422 59.1524C76.5461 59.2232 76.2748 59.2606 75.9541 59.2939C74.6097 59.4396 73.3106 59.2107 72.2047 58.7486C71.4441 58.4406 70.9549 57.8911 71.1111 57.3374ZM71.2591 58.4406C71.3619 58.4406 71.4441 58.5238 71.4441 58.6237C71.4441 58.7278 71.3619 58.811 71.2591 58.811C71.1563 58.811 71.0741 58.7278 71.0741 58.6237C71.0782 58.5238 71.1604 58.4406 71.2591 58.4406ZM64.9689 57.9577C65.1498 57.9577 65.2978 58.1075 65.2978 58.2907C65.2978 58.4739 65.1498 58.6237 64.9689 58.6237C64.788 58.6237 64.64 58.4739 64.64 58.2907C64.64 58.1075 64.788 57.9577 64.9689 57.9577ZM59.4475 53.491C59.6284 53.491 59.7764 53.6408 59.7764 53.824C59.7764 54.0071 59.6284 54.157 59.4475 54.157C59.2666 54.157 59.1186 54.0071 59.1186 53.824C59.1186 53.6408 59.2666 53.491 59.4475 53.491ZM57.0548 53.9031C57.1575 53.9031 57.2398 53.9863 57.2398 54.0862C57.2398 54.1903 57.1575 54.2736 57.0548 54.2736C56.952 54.2736 56.8739 54.1903 56.8739 54.0862C56.8739 53.9863 56.9561 53.9031 57.0548 53.9031ZM51.225 54.0862C51.3278 54.0862 51.41 54.1695 51.41 54.2694C51.41 54.3735 51.3278 54.4567 51.225 54.4567C51.1222 54.4567 51.0441 54.3735 51.0441 54.2694C51.04 54.1695 51.1222 54.0862 51.225 54.0862ZM29.3244 48.8078C29.2217 48.8078 29.1394 48.7245 29.1394 48.6246C29.1394 48.5205 29.2217 48.4373 29.3244 48.4373C29.4272 48.4373 29.5095 48.5205 29.5095 48.6246C29.5095 48.7245 29.4272 48.8078 29.3244 48.8078ZM40.5646 54.7898C40.6016 54.7981 40.6386 54.8022 40.6756 54.8106C40.5934 54.7856 40.4125 54.7356 40.211 54.6732C38.6816 54.4276 37.1769 53.8073 36.6219 52.9123C36.3053 52.5169 36.2067 52.1006 36.3218 51.6676C36.3958 51.3346 36.6137 51.0474 36.9796 50.8059C37.2633 50.527 37.6538 50.3064 38.1554 50.1482C38.842 49.9109 39.5861 49.7777 40.3796 49.7486C41.5718 49.7611 42.7271 49.8027 43.8207 50.1274C43.9934 50.1774 44.1619 50.2315 44.3264 50.2856C44.4004 50.2981 44.4744 50.3147 44.5525 50.3272C45.1239 50.4521 45.6132 50.6436 46.0161 50.9017C46.4601 51.1057 46.7972 51.3638 47.0274 51.676C47.4509 52.2213 47.5126 52.9914 46.9863 53.5243C46.937 53.5742 46.8836 53.62 46.8301 53.67C46.8178 53.6824 46.8095 53.6991 46.7972 53.7116C46.1024 54.5067 44.5484 55.0104 43.056 55.0312C42.2502 55.0437 41.432 54.9812 40.6797 54.8064C40.7578 54.8356 40.7496 54.8356 40.5646 54.7898Z" fill="#1B1C24"/>
<path opacity="0.3" d="M45.0006 56.4799C45.1733 56.4799 45.3172 56.5756 45.3994 56.7171C53.182 57.5872 60.907 58.6945 68.5621 59.8434C78.7169 61.367 88.9169 62.799 99.3759 63.2861C100.539 63.2986 101.699 63.2944 102.858 63.2736C102.751 62.67 102.632 62.0705 102.5 61.4753C102.394 61.4336 102.283 61.3962 102.18 61.3545C100.893 60.7884 100.153 59.8851 100.334 58.9401C100.432 58.4322 100.852 57.9868 101.452 57.6455C101.23 56.9586 100.987 56.2842 100.733 55.614C97.8013 55.5973 94.9028 55.5557 92.0661 55.5058C70.626 55.1394 50.4316 50.4438 31.0388 45.3193C30.4386 46.0978 29.8671 46.9012 29.3244 47.7213C29.3203 47.9128 29.2093 48.0793 29.0449 48.1542C27.6347 50.3439 26.4301 52.675 25.4517 55.1269C31.894 55.3975 38.2993 55.9304 44.6594 56.6339C44.7416 56.5423 44.8649 56.4799 45.0006 56.4799ZM95.1166 62.4327C95.2194 62.4327 95.2975 62.516 95.2975 62.62C95.2975 62.7241 95.2153 62.8074 95.1166 62.8074C95.0138 62.8074 94.9316 62.7241 94.9316 62.62C94.9316 62.516 95.0138 62.4327 95.1166 62.4327ZM71.1111 57.3374C71.2591 56.8129 71.8634 56.5048 72.6076 56.2925C72.6158 56.2884 72.6199 56.2884 72.6281 56.2842C72.6857 56.2634 72.7474 56.2467 72.809 56.2259C72.8954 56.1968 72.9776 56.1635 73.0598 56.1302C73.3517 56.0136 73.6683 55.922 74.0054 55.8596C75.2182 55.6473 76.3447 55.8846 77.4917 56.1094C78.1783 56.2426 78.8032 56.6131 79.1074 57.0418C79.165 56.9877 79.2431 56.9503 79.3336 56.9503C79.5145 56.9503 79.6625 57.1001 79.6625 57.2833C79.6625 57.3499 79.6378 57.4082 79.6049 57.4581C79.6584 57.4914 79.6995 57.5455 79.6995 57.6163C79.6995 57.7204 79.6172 57.8036 79.5145 57.8036C79.4117 57.8036 79.3295 57.7204 79.3295 57.6163C79.313 57.6163 79.3007 57.608 79.2883 57.608C79.2842 57.6788 79.2719 57.7537 79.239 57.8245C79.0992 58.4739 78.2112 58.9526 77.1094 59.0858C77.0313 59.1066 76.9449 59.1274 76.8422 59.1524C76.5461 59.2232 76.2748 59.2606 75.9541 59.2939C74.6097 59.4396 73.3106 59.2107 72.2047 58.7486C71.4441 58.4406 70.9549 57.8911 71.1111 57.3374ZM71.2591 58.4406C71.3619 58.4406 71.4441 58.5238 71.4441 58.6237C71.4441 58.7278 71.3619 58.811 71.2591 58.811C71.1563 58.811 71.0741 58.7278 71.0741 58.6237C71.0782 58.5238 71.1604 58.4406 71.2591 58.4406ZM64.9689 57.9577C65.1498 57.9577 65.2978 58.1075 65.2978 58.2907C65.2978 58.4739 65.1498 58.6237 64.9689 58.6237C64.788 58.6237 64.64 58.4739 64.64 58.2907C64.64 58.1075 64.788 57.9577 64.9689 57.9577ZM59.4475 53.491C59.6284 53.491 59.7764 53.6408 59.7764 53.824C59.7764 54.0071 59.6284 54.157 59.4475 54.157C59.2666 54.157 59.1186 54.0071 59.1186 53.824C59.1186 53.6408 59.2666 53.491 59.4475 53.491ZM57.0548 53.9031C57.1575 53.9031 57.2398 53.9863 57.2398 54.0862C57.2398 54.1903 57.1575 54.2736 57.0548 54.2736C56.952 54.2736 56.8739 54.1903 56.8739 54.0862C56.8739 53.9863 56.9561 53.9031 57.0548 53.9031ZM51.225 54.0862C51.3278 54.0862 51.41 54.1695 51.41 54.2694C51.41 54.3735 51.3278 54.4567 51.225 54.4567C51.1222 54.4567 51.0441 54.3735 51.0441 54.2694C51.04 54.1695 51.1222 54.0862 51.225 54.0862ZM29.3244 48.8078C29.2217 48.8078 29.1394 48.7245 29.1394 48.6246C29.1394 48.5205 29.2217 48.4373 29.3244 48.4373C29.4272 48.4373 29.5095 48.5205 29.5095 48.6246C29.5095 48.7245 29.4272 48.8078 29.3244 48.8078ZM40.5646 54.7898C40.6016 54.7981 40.6386 54.8022 40.6756 54.8106C40.5934 54.7856 40.4125 54.7356 40.211 54.6732C38.6816 54.4276 37.1769 53.8073 36.6219 52.9123C36.3053 52.5169 36.2067 52.1006 36.3218 51.6676C36.3958 51.3346 36.6137 51.0474 36.9796 50.8059C37.2633 50.527 37.6538 50.3064 38.1554 50.1482C38.842 49.9109 39.5861 49.7777 40.3796 49.7486C41.5718 49.7611 42.7271 49.8027 43.8207 50.1274C43.9934 50.1774 44.1619 50.2315 44.3264 50.2856C44.4004 50.2981 44.4744 50.3147 44.5525 50.3272C45.1239 50.4521 45.6132 50.6436 46.0161 50.9017C46.4601 51.1057 46.7972 51.3638 47.0274 51.676C47.4509 52.2213 47.5126 52.9914 46.9863 53.5243C46.937 53.5742 46.8836 53.62 46.8301 53.67C46.8178 53.6824 46.8095 53.6991 46.7972 53.7116C46.1024 54.5067 44.5484 55.0104 43.056 55.0312C42.2502 55.0437 41.432 54.9812 40.6797 54.8064C40.7578 54.8356 40.7496 54.8356 40.5646 54.7898Z" fill="#808080"/>
<path d="M32.5391 97.5156C35.7212 101.191 39.5446 104.284 43.8285 106.624C55.6196 106.849 66.058 107.989 75.3823 109.538C78.9385 108.381 82.281 106.74 85.3315 104.692C79.8019 103.947 73.9927 103.027 67.8752 102.024C57.445 100.313 45.8225 98.5064 32.5391 97.5156ZM48.2193 102.69C48.1741 102.931 48.0343 103.148 47.8041 103.331C47.6232 103.543 47.3765 103.71 47.0559 103.839C46.6159 104.03 46.139 104.143 45.621 104.184C44.8399 104.201 44.0793 104.201 43.3475 103.98C43.2324 103.947 43.1173 103.91 43.0063 103.872C42.9569 103.864 42.9035 103.856 42.8542 103.847C42.4677 103.764 42.1347 103.631 41.8592 103.443C41.555 103.298 41.3207 103.106 41.1644 102.873C40.8684 102.461 40.8273 101.874 41.1932 101.458C41.2261 101.42 41.2631 101.383 41.3001 101.345C41.3083 101.333 41.3124 101.325 41.3207 101.312C41.7976 100.7 42.8542 100.305 43.8532 100.28C44.3877 100.263 44.9262 100.305 45.4196 100.43C45.3661 100.413 45.3744 100.413 45.4936 100.446C45.4689 100.438 45.4442 100.438 45.4196 100.43C45.473 100.446 45.5922 100.484 45.7238 100.525C46.7105 100.696 47.6684 101.137 48.022 101.787C48.2276 102.07 48.2892 102.374 48.2193 102.69ZM58.2754 102.507C58.1726 102.507 58.0945 102.424 58.0945 102.32C58.0945 102.215 58.1768 102.136 58.2754 102.136C58.3782 102.136 58.4604 102.22 58.4604 102.32C58.4563 102.424 58.3741 102.507 58.2754 102.507ZM62.6621 106.566C62.5593 106.566 62.4771 106.482 62.4771 106.378C62.4771 106.274 62.5593 106.195 62.6621 106.195C62.7649 106.195 62.8471 106.278 62.8471 106.378C62.843 106.482 62.7608 106.566 62.6621 106.566ZM79.5059 106.083C79.769 106.083 79.9787 106.299 79.9787 106.561C79.9787 106.828 79.7649 107.04 79.5059 107.04C79.2427 107.04 79.0331 106.824 79.0331 106.561C79.0331 106.299 79.2427 106.083 79.5059 106.083ZM69.5361 103.656C69.6389 103.656 69.7211 103.739 69.7211 103.839C69.7211 103.943 69.6389 104.026 69.5361 104.026C69.4333 104.026 69.3552 103.943 69.3552 103.839C69.3552 103.735 69.4374 103.656 69.5361 103.656Z" fill="#1B1C24"/>
<path opacity="0.3" d="M32.5391 97.5156C35.7212 101.191 39.5446 104.284 43.8285 106.624C55.6196 106.849 66.058 107.989 75.3823 109.538C78.9385 108.381 82.281 106.74 85.3315 104.692C79.8019 103.947 73.9927 103.027 67.8752 102.024C57.445 100.313 45.8225 98.5064 32.5391 97.5156ZM48.2193 102.69C48.1741 102.931 48.0343 103.148 47.8041 103.331C47.6232 103.543 47.3765 103.71 47.0559 103.839C46.6159 104.03 46.139 104.143 45.621 104.184C44.8399 104.201 44.0793 104.201 43.3475 103.98C43.2324 103.947 43.1173 103.91 43.0063 103.872C42.9569 103.864 42.9035 103.856 42.8542 103.847C42.4677 103.764 42.1347 103.631 41.8592 103.443C41.555 103.298 41.3207 103.106 41.1644 102.873C40.8684 102.461 40.8273 101.874 41.1932 101.458C41.2261 101.42 41.2631 101.383 41.3001 101.345C41.3083 101.333 41.3124 101.325 41.3207 101.312C41.7976 100.7 42.8542 100.305 43.8532 100.28C44.3877 100.263 44.9262 100.305 45.4196 100.43C45.3661 100.413 45.3744 100.413 45.4936 100.446C45.4689 100.438 45.4442 100.438 45.4196 100.43C45.473 100.446 45.5922 100.484 45.7238 100.525C46.7105 100.696 47.6684 101.137 48.022 101.787C48.2276 102.07 48.2892 102.374 48.2193 102.69ZM58.2754 102.507C58.1726 102.507 58.0945 102.424 58.0945 102.32C58.0945 102.215 58.1768 102.136 58.2754 102.136C58.3782 102.136 58.4604 102.22 58.4604 102.32C58.4563 102.424 58.3741 102.507 58.2754 102.507ZM62.6621 106.566C62.5593 106.566 62.4771 106.482 62.4771 106.378C62.4771 106.274 62.5593 106.195 62.6621 106.195C62.7649 106.195 62.8471 106.278 62.8471 106.378C62.843 106.482 62.7608 106.566 62.6621 106.566ZM79.5059 106.083C79.769 106.083 79.9787 106.299 79.9787 106.561C79.9787 106.828 79.7649 107.04 79.5059 107.04C79.2427 107.04 79.0331 106.824 79.0331 106.561C79.0331 106.299 79.2427 106.083 79.5059 106.083ZM69.5361 103.656C69.6389 103.656 69.7211 103.739 69.7211 103.839C69.7211 103.943 69.6389 104.026 69.5361 104.026C69.4333 104.026 69.3552 103.943 69.3552 103.839C69.3552 103.735 69.4374 103.656 69.5361 103.656Z" fill="#808080"/>
<path d="M76.6313 40.2324C76.5285 40.2324 76.4463 40.3157 76.4463 40.4197C76.4463 40.5238 76.5285 40.6071 76.6313 40.6071C76.7341 40.6071 76.8163 40.5238 76.8163 40.4197C76.8163 40.3157 76.7341 40.2324 76.6313 40.2324Z" fill="white"/>
<path d="M67.2433 36.5523C67.2433 36.4482 67.1611 36.3691 67.0583 36.3691C66.9556 36.3691 66.8774 36.4524 66.8774 36.5523C66.8774 36.6564 66.9597 36.7396 67.0583 36.7396C67.1611 36.7396 67.2433 36.6564 67.2433 36.5523Z" fill="white"/>
<path d="M45.5696 40.8027C45.3887 40.8027 45.2407 40.9526 45.2407 41.1358C45.2407 41.3189 45.3887 41.4688 45.5696 41.4688C45.7505 41.4688 45.8985 41.3189 45.8985 41.1358C45.8985 40.9526 45.7546 40.8027 45.5696 40.8027Z" fill="white"/>
<path d="M57.2137 38.8115C57.0328 38.8115 56.8848 38.9614 56.8848 39.1445C56.8848 39.3277 57.0328 39.4776 57.2137 39.4776C57.3946 39.4776 57.5426 39.3277 57.5426 39.1445C57.5426 38.9614 57.3946 38.8115 57.2137 38.8115Z" fill="white"/>
<path d="M80.2504 41.5801C80.1477 41.5801 80.0654 41.6633 80.0654 41.7632C80.0654 41.8673 80.1477 41.9506 80.2504 41.9506C80.3532 41.9506 80.4354 41.8673 80.4354 41.7632C80.4313 41.6633 80.3491 41.5801 80.2504 41.5801Z" fill="white"/>
<path d="M65.7098 42.0967C65.5289 42.0967 65.3809 42.2465 65.3809 42.4297C65.3809 42.6129 65.5289 42.7627 65.7098 42.7627C65.8907 42.7627 66.0387 42.6129 66.0387 42.4297C66.0387 42.2465 65.8907 42.0967 65.7098 42.0967Z" fill="white"/>
<path d="M29.3212 48.4375C29.2185 48.4375 29.1362 48.5208 29.1362 48.6248C29.1362 48.7289 29.2185 48.808 29.3212 48.808C29.424 48.808 29.5062 48.7247 29.5062 48.6248C29.5062 48.5208 29.424 48.4375 29.3212 48.4375Z" fill="white"/>
<path d="M86.9222 42.2832C86.7413 42.2832 86.5933 42.4331 86.5933 42.6162C86.5933 42.7994 86.7413 42.9493 86.9222 42.9493C87.1031 42.9493 87.2511 42.7994 87.2511 42.6162C87.2552 42.4331 87.1072 42.2832 86.9222 42.2832Z" fill="white"/>
<path d="M78.8454 46.0391C78.7138 46.0391 78.6069 46.1473 78.6069 46.2805C78.6069 46.4137 78.7138 46.5219 78.8454 46.5219C78.9769 46.5219 79.0838 46.4137 79.0838 46.2805C79.0838 46.1473 78.9769 46.0391 78.8454 46.0391Z" fill="white"/>
<path d="M23.8884 65.7705C23.7568 65.7705 23.6499 65.8787 23.6499 66.012C23.6499 66.1452 23.7568 66.2534 23.8884 66.2534C24.0199 66.2534 24.1268 66.1452 24.1268 66.012C24.1227 65.8787 24.0158 65.7705 23.8884 65.7705Z" fill="white"/>
<path d="M30.594 66.6738C30.4912 66.6738 30.4131 66.7571 30.4131 66.8612C30.4131 66.9652 30.4953 67.0485 30.594 67.0485C30.6968 67.0485 30.779 66.9652 30.779 66.8612C30.7749 66.7571 30.6968 66.6738 30.594 66.6738Z" fill="white"/>
<path d="M27.5925 85.248C27.4897 85.248 27.4116 85.3313 27.4116 85.4354C27.4116 85.5394 27.4938 85.6227 27.5925 85.6227C27.6953 85.6227 27.7775 85.5394 27.7775 85.4354C27.7775 85.3313 27.6953 85.248 27.5925 85.248Z" fill="white"/>
<path d="M40.9729 64.4385C40.8701 64.4385 40.792 64.5217 40.792 64.6216C40.792 64.7257 40.8742 64.809 40.9729 64.809C41.0757 64.809 41.1579 64.7257 41.1579 64.6216C41.1579 64.5217 41.0757 64.4385 40.9729 64.4385Z" fill="white"/>
<path d="M40.6794 70.4125C40.7822 70.4125 40.8644 70.3292 40.8644 70.2252C40.8644 70.1211 40.7822 70.042 40.6794 70.042C40.5766 70.042 40.4985 70.1252 40.4985 70.2252C40.4985 70.3292 40.5808 70.4125 40.6794 70.4125Z" fill="white"/>
<path d="M35.6369 57.4414C35.5342 57.4414 35.4561 57.5247 35.4561 57.6287C35.4561 57.7328 35.5383 57.8161 35.6369 57.8161C35.7397 57.8161 35.822 57.7328 35.822 57.6287C35.822 57.5247 35.7397 57.4414 35.6369 57.4414Z" fill="white"/>
<path d="M65.2954 80.5615C65.1926 80.5615 65.1104 80.6448 65.1104 80.7447C65.1104 80.8488 65.1926 80.932 65.2954 80.932C65.3981 80.932 65.4804 80.8488 65.4804 80.7447C65.4763 80.6406 65.394 80.5615 65.2954 80.5615Z" fill="white"/>
<path d="M102.564 65.4844C102.383 65.4844 102.235 65.6342 102.235 65.8174C102.235 66.0006 102.383 66.1504 102.564 66.1504C102.745 66.1504 102.893 66.0006 102.893 65.8174C102.897 65.6342 102.749 65.4844 102.564 65.4844Z" fill="white"/>
<path d="M70.5466 68.5635C70.4438 68.5635 70.3657 68.6467 70.3657 68.7508C70.3657 68.8549 70.4479 68.9381 70.5466 68.9381C70.6494 68.9381 70.7316 68.8549 70.7316 68.7508C70.7316 68.6467 70.6494 68.5635 70.5466 68.5635Z" fill="white"/>
<path d="M57.05 54.2728C57.1528 54.2728 57.235 54.1896 57.235 54.0855C57.235 53.9814 57.1528 53.9023 57.05 53.9023C56.9473 53.9023 56.8691 53.9856 56.8691 54.0855C56.8691 54.1896 56.9514 54.2728 57.05 54.2728Z" fill="white"/>
<path d="M84.552 70.042C84.4492 70.042 84.3711 70.1252 84.3711 70.2252C84.3711 70.3292 84.4533 70.4125 84.552 70.4125C84.6548 70.4125 84.737 70.3292 84.737 70.2252C84.7329 70.1252 84.6507 70.042 84.552 70.042Z" fill="white"/>
<path d="M65.9978 65.6582C65.895 65.6582 65.8169 65.7415 65.8169 65.8455C65.8169 65.9496 65.8991 66.0329 65.9978 66.0329C66.1006 66.0329 66.1828 65.9496 66.1828 65.8455C66.1828 65.7415 66.1006 65.6582 65.9978 65.6582Z" fill="white"/>
<path d="M48.8606 69.8916C48.6797 69.8916 48.5317 70.0415 48.5317 70.2246C48.5317 70.4078 48.6797 70.5577 48.8606 70.5577C49.0415 70.5577 49.1895 70.4078 49.1895 70.2246C49.1936 70.0415 49.0456 69.8916 48.8606 69.8916Z" fill="white"/>
<path d="M62.1482 67.8018C61.9673 67.8018 61.8193 67.9516 61.8193 68.1348C61.8193 68.3179 61.9673 68.4678 62.1482 68.4678C62.3291 68.4678 62.4771 68.3179 62.4771 68.1348C62.4771 67.9516 62.3291 67.8018 62.1482 67.8018Z" fill="white"/>
<path d="M55.5065 63.71C55.375 63.71 55.2681 63.8182 55.2681 63.9514C55.2681 64.0846 55.375 64.1928 55.5065 64.1928C55.6381 64.1928 55.745 64.0846 55.745 63.9514C55.7409 63.8182 55.634 63.71 55.5065 63.71Z" fill="white"/>
<path d="M51.2206 54.4564C51.3234 54.4564 51.4056 54.3732 51.4056 54.2691C51.4056 54.165 51.3234 54.0859 51.2206 54.0859C51.1178 54.0859 51.0397 54.1692 51.0397 54.2691C51.0356 54.3773 51.1178 54.4564 51.2206 54.4564Z" fill="white"/>
<path d="M71.2568 58.8099C71.3596 58.8099 71.4418 58.7267 71.4418 58.6226C71.4418 58.5185 71.3596 58.4395 71.2568 58.4395C71.154 58.4395 71.0718 58.5227 71.0718 58.6226C71.0759 58.7267 71.1581 58.8099 71.2568 58.8099Z" fill="white"/>
<path d="M79.3203 57.623C79.3203 57.7271 79.4025 57.8104 79.5053 57.8104C79.6081 57.8104 79.6903 57.7271 79.6903 57.623C79.6903 57.5564 79.6533 57.4981 79.5958 57.4648C79.5382 57.5564 79.4395 57.623 79.3203 57.623Z" fill="white"/>
<path d="M64.9651 58.6231C65.146 58.6231 65.294 58.4732 65.294 58.2901C65.294 58.1069 65.146 57.957 64.9651 57.957C64.7842 57.957 64.6362 58.1069 64.6362 58.2901C64.6362 58.4732 64.7842 58.6231 64.9651 58.6231Z" fill="white"/>
<path d="M59.4436 54.1602C59.6245 54.1602 59.7725 54.0103 59.7725 53.8272C59.7725 53.644 59.6245 53.4941 59.4436 53.4941C59.2628 53.4941 59.1147 53.644 59.1147 53.8272C59.1147 54.0103 59.2628 54.1602 59.4436 54.1602Z" fill="white"/>
<path d="M50.8034 57.8105C50.6718 57.8105 50.5649 57.9188 50.5649 58.052C50.5649 58.1852 50.6718 58.2934 50.8034 58.2934C50.935 58.2934 51.0418 58.1852 51.0418 58.052C51.0377 57.9146 50.935 57.8105 50.8034 57.8105Z" fill="white"/>
<path d="M65.5842 52.0869C65.4526 52.0869 65.3457 52.1951 65.3457 52.3284C65.3457 52.4616 65.4526 52.5698 65.5842 52.5698C65.7157 52.5698 65.8226 52.4616 65.8226 52.3284C65.8226 52.1951 65.7157 52.0869 65.5842 52.0869Z" fill="white"/>
<path d="M44.9959 56.4795C44.8603 56.4795 44.7369 56.5419 44.6506 56.6335C44.5725 56.7209 44.519 56.8333 44.519 56.9582C44.519 57.2246 44.7328 57.4369 44.9918 57.4369C45.255 57.4369 45.4646 57.2205 45.4646 56.9582C45.4646 56.8666 45.4317 56.7875 45.3906 56.7126C45.3125 56.5752 45.1686 56.4795 44.9959 56.4795Z" fill="white"/>
<path d="M74.4957 64.5137C74.2326 64.5137 74.0229 64.7301 74.0229 64.9924C74.0229 65.2588 74.2367 65.4711 74.4957 65.4711C74.7589 65.4711 74.9685 65.2547 74.9685 64.9924C74.9685 64.7301 74.7548 64.5137 74.4957 64.5137Z" fill="white"/>
<path d="M45.5665 81.2227C45.3034 81.2227 45.0938 81.4391 45.0938 81.7014C45.0938 81.9678 45.3075 82.1801 45.5665 82.1801C45.8297 82.1801 46.0393 81.9636 46.0393 81.7014C46.0393 81.4391 45.8297 81.2227 45.5665 81.2227Z" fill="white"/>
<path d="M78.9927 57.291C78.9927 57.4617 79.1201 57.5949 79.2805 57.6157C79.2928 57.6157 79.3051 57.6241 79.3216 57.6241C79.4367 57.6241 79.5354 57.5575 79.5929 57.4659C79.6258 57.4118 79.6505 57.3535 79.6505 57.291C79.6505 57.1079 79.5025 56.958 79.3216 56.958C79.2352 56.958 79.1571 56.9955 79.0955 57.0496C79.0338 57.1079 78.9927 57.1953 78.9927 57.291Z" fill="white"/>
<path d="M82.2806 66.4658C82.0997 66.4658 81.9517 66.6157 81.9517 66.7988C81.9517 66.982 82.0997 67.1319 82.2806 67.1319C82.4614 67.1319 82.6095 66.982 82.6095 66.7988C82.6095 66.6157 82.4614 66.4658 82.2806 66.4658Z" fill="white"/>
<path d="M95.5011 70.6582C95.3696 70.6582 95.2627 70.7664 95.2627 70.8996C95.2627 71.0329 95.3696 71.1411 95.5011 71.1411C95.6327 71.1411 95.7396 71.0329 95.7396 70.8996C95.7355 70.7664 95.6327 70.6582 95.5011 70.6582Z" fill="white"/>
<path d="M76.8156 85.5645C76.684 85.5645 76.5771 85.6727 76.5771 85.8059C76.5771 85.9391 76.684 86.0473 76.8156 86.0473C76.9472 86.0473 77.0541 85.9391 77.0541 85.8059C77.0541 85.6727 76.9472 85.5645 76.8156 85.5645Z" fill="white"/>
<path d="M95.1123 62.8024C95.215 62.8024 95.2931 62.7191 95.2931 62.6151C95.2931 62.511 95.2109 62.4277 95.1123 62.4277C95.0095 62.4277 94.9272 62.511 94.9272 62.6151C94.9272 62.7191 95.0095 62.8024 95.1123 62.8024Z" fill="white"/>
<path d="M100.205 68.2852C100.102 68.2852 100.02 68.3684 100.02 68.4725C100.02 68.5766 100.102 68.6598 100.205 68.6598C100.308 68.6598 100.386 68.5766 100.386 68.4725C100.386 68.3684 100.304 68.2852 100.205 68.2852Z" fill="white"/>
<path d="M97.7059 51.6328C97.8868 51.6328 98.0348 51.483 98.0348 51.2998C98.0348 51.1167 97.8868 50.9668 97.7059 50.9668C97.525 50.9668 97.377 51.1167 97.377 51.2998C97.3729 51.483 97.5209 51.6328 97.7059 51.6328Z" fill="white"/>
<path d="M33.5188 57.7695C33.416 57.7695 33.3379 57.8528 33.3379 57.9569C33.3379 58.0609 33.4201 58.1442 33.5188 58.1442C33.6216 58.1442 33.7038 58.0609 33.7038 57.9569C33.7038 57.8528 33.6216 57.7695 33.5188 57.7695Z" fill="white"/>
<path d="M87.695 80.7441C87.4318 80.7441 87.2222 80.9606 87.2222 81.2229C87.2222 81.4893 87.436 81.7016 87.695 81.7016C87.9581 81.7016 88.1678 81.4851 88.1678 81.2229C88.1678 80.9606 87.954 80.7441 87.695 80.7441Z" fill="white"/>
<path d="M29.3191 47.7246C29.2246 47.8661 29.13 48.0118 29.0396 48.1575C29.1999 48.0784 29.315 47.9161 29.3191 47.7246Z" fill="white"/>
<path d="M40.6833 42.9668C40.5806 42.9668 40.5024 43.0501 40.5024 43.1541C40.5024 43.2582 40.5847 43.3415 40.6833 43.3415C40.7861 43.3415 40.8683 43.2582 40.8683 43.1541C40.8683 43.0501 40.7861 42.9668 40.6833 42.9668Z" fill="white"/>
<path d="M76.8146 35.5947C76.5515 35.5947 76.3418 35.8112 76.3418 36.0735C76.3418 36.3399 76.5556 36.5522 76.8146 36.5522C77.0777 36.5522 77.2874 36.3357 77.2874 36.0735C77.2915 35.807 77.0777 35.5947 76.8146 35.5947Z" fill="white"/>
<path d="M67.2517 46.7598C67.1489 46.7598 67.0708 46.843 67.0708 46.9429C67.0708 47.047 67.153 47.1303 67.2517 47.1303C67.3545 47.1303 67.4367 47.047 67.4367 46.9429C67.4326 46.843 67.3504 46.7598 67.2517 46.7598Z" fill="white"/>
<path d="M91.3427 47.5332C91.2399 47.5332 91.1577 47.6165 91.1577 47.7205C91.1577 47.8246 91.2399 47.9079 91.3427 47.9079C91.4455 47.9079 91.5277 47.8246 91.5277 47.7205C91.5236 47.6165 91.4414 47.5332 91.3427 47.5332Z" fill="white"/>
<path d="M45.469 47.3838C45.2881 47.3838 45.1401 47.5337 45.1401 47.7168C45.1401 47.9 45.2881 48.0498 45.469 48.0498C45.6499 48.0498 45.7979 47.9 45.7979 47.7168C45.802 47.5337 45.654 47.3838 45.469 47.3838Z" fill="white"/>
<path d="M48.8684 42.8213C48.6876 42.8213 48.5396 42.9712 48.5396 43.1543C48.5396 43.3375 48.6876 43.4873 48.8684 43.4873C49.0493 43.4873 49.1974 43.3375 49.1974 43.1543C49.1974 42.9712 49.0493 42.8213 48.8684 42.8213Z" fill="white"/>
<path d="M52.0177 48.9277C51.7546 48.9277 51.5449 49.1442 51.5449 49.4065C51.5449 49.6729 51.7587 49.8852 52.0177 49.8852C52.2808 49.8852 52.4905 49.6687 52.4905 49.4065C52.4905 49.14 52.2808 48.9277 52.0177 48.9277Z" fill="white"/>
<path d="M55.7426 46.5713C55.6398 46.5713 55.5576 46.6545 55.5576 46.7545C55.5576 46.8585 55.6398 46.9418 55.7426 46.9418C55.8454 46.9418 55.9276 46.8585 55.9276 46.7545C55.9276 46.6545 55.8454 46.5713 55.7426 46.5713Z" fill="white"/>
<path d="M71.7849 49.0117C71.6821 49.0117 71.604 49.095 71.604 49.1949C71.604 49.299 71.6862 49.3822 71.7849 49.3822C71.8877 49.3822 71.9699 49.299 71.9699 49.1949C71.9699 49.095 71.8877 49.0117 71.7849 49.0117Z" fill="white"/>
<path d="M72.4177 43.8203C72.3149 43.8203 72.2368 43.9036 72.2368 44.0035C72.2368 44.1075 72.319 44.1908 72.4177 44.1908C72.5205 44.1908 72.6027 44.1075 72.6027 44.0035C72.6027 43.9036 72.5205 43.8203 72.4177 43.8203Z" fill="white"/>
<path d="M85.2257 48.7148C84.9626 48.7148 84.7529 48.9313 84.7529 49.1936C84.7529 49.46 84.9667 49.6723 85.2257 49.6723C85.4888 49.6723 85.6985 49.4558 85.6985 49.1936C85.6985 48.9313 85.4847 48.7148 85.2257 48.7148Z" fill="white"/>
<path d="M39.1969 50.0303C38.9338 50.0303 38.7241 50.2467 38.7241 50.509C38.7241 50.7754 38.9379 50.9877 39.1969 50.9877C39.46 50.9877 39.6697 50.7713 39.6697 50.509C39.6738 50.2426 39.46 50.0303 39.1969 50.0303Z" fill="white"/>
<path d="M38.8161 92.6875C38.7134 92.6875 38.6353 92.7708 38.6353 92.8748C38.6353 92.9789 38.7175 93.0622 38.8161 93.0622C38.9189 93.0622 39.0012 92.9789 39.0012 92.8748C38.997 92.7708 38.9148 92.6875 38.8161 92.6875Z" fill="white"/>
<path d="M40.6794 88.3623C40.5766 88.3623 40.4985 88.4456 40.4985 88.5496C40.4985 88.6537 40.5808 88.737 40.6794 88.737C40.7822 88.737 40.8644 88.6537 40.8644 88.5496C40.8644 88.4456 40.7822 88.3623 40.6794 88.3623Z" fill="white"/>
<path d="M48.9646 98.4453C48.7837 98.4453 48.6357 98.5952 48.6357 98.7783C48.6357 98.9615 48.7837 99.1114 48.9646 99.1114C49.1455 99.1114 49.2935 98.9615 49.2935 98.7783C49.2935 98.5952 49.1455 98.4453 48.9646 98.4453Z" fill="white"/>
<path d="M72.7096 92.6338C72.4465 92.6338 72.2368 92.8503 72.2368 93.1125C72.2368 93.3789 72.4506 93.5912 72.7096 93.5912C72.9727 93.5912 73.1824 93.3748 73.1824 93.1125C73.1865 92.8461 72.9727 92.6338 72.7096 92.6338Z" fill="white"/>
<path d="M67.2439 92.1504C67.1411 92.1504 67.063 92.2336 67.063 92.3377C67.063 92.4418 67.1452 92.525 67.2439 92.525C67.3426 92.525 67.4289 92.4418 67.4289 92.3377C67.4289 92.2336 67.3467 92.1504 67.2439 92.1504Z" fill="white"/>
<path d="M72.2366 110.275C72.1338 110.275 72.0557 110.358 72.0557 110.458C72.0557 110.462 72.0557 110.462 72.0557 110.467C72.1708 110.442 72.2859 110.413 72.401 110.383C72.3722 110.317 72.3106 110.275 72.2366 110.275Z" fill="white"/>
<path d="M62.6645 106.191C62.5617 106.191 62.4795 106.275 62.4795 106.375C62.4795 106.479 62.5617 106.562 62.6645 106.562C62.7673 106.562 62.8495 106.479 62.8495 106.375C62.8454 106.275 62.7632 106.191 62.6645 106.191Z" fill="white"/>
<path d="M58.2771 102.137C58.1743 102.137 58.0962 102.22 58.0962 102.32C58.0962 102.424 58.1784 102.507 58.2771 102.507C58.3799 102.507 58.4621 102.424 58.4621 102.32C58.458 102.22 58.3758 102.137 58.2771 102.137Z" fill="white"/>
<path d="M84.552 88.3623C84.4492 88.3623 84.3711 88.4456 84.3711 88.5496C84.3711 88.6537 84.4533 88.737 84.552 88.737C84.6548 88.737 84.737 88.6537 84.737 88.5496C84.7329 88.4456 84.6507 88.3623 84.552 88.3623Z" fill="white"/>
<path d="M65.9978 83.9746C65.895 83.9746 65.8169 84.0579 65.8169 84.1619C65.8169 84.266 65.8991 84.3493 65.9978 84.3493C66.1006 84.3493 66.1828 84.266 66.1828 84.1619C66.1828 84.0579 66.1006 83.9746 65.9978 83.9746Z" fill="white"/>
<path d="M45.4612 92.7793C45.2803 92.7793 45.1323 92.9292 45.1323 93.1123C45.1323 93.2955 45.2803 93.4454 45.4612 93.4454C45.6421 93.4454 45.7901 93.2955 45.7901 93.1123C45.7901 92.9292 45.6421 92.7793 45.4612 92.7793Z" fill="white"/>
<path d="M49.1895 88.5498C49.1895 88.3667 49.0415 88.2168 48.8606 88.2168C48.6797 88.2168 48.5317 88.3667 48.5317 88.5498C48.5317 88.733 48.6797 88.8828 48.8606 88.8828C49.0415 88.8828 49.1895 88.733 49.1895 88.5498Z" fill="white"/>
<path d="M62.1482 86.1221C61.9673 86.1221 61.8193 86.2719 61.8193 86.4551C61.8193 86.6383 61.9673 86.7881 62.1482 86.7881C62.3291 86.7881 62.4771 86.6383 62.4771 86.4551C62.4771 86.2719 62.3291 86.1221 62.1482 86.1221Z" fill="white"/>
<path d="M55.0319 109.172C55.1635 109.172 55.2704 109.064 55.2704 108.931C55.2704 108.798 55.1635 108.689 55.0319 108.689C54.9003 108.689 54.7935 108.798 54.7935 108.931C54.7976 109.064 54.9045 109.172 55.0319 109.172Z" fill="white"/>
<path d="M78.8444 98.8184C78.5813 98.8184 78.3716 99.0348 78.3716 99.2971C78.3716 99.5635 78.5854 99.7758 78.8444 99.7758C79.1075 99.7758 79.3172 99.5593 79.3172 99.2971C79.3172 99.0348 79.1075 98.8184 78.8444 98.8184Z" fill="white"/>
<path d="M69.5354 104.027C69.6382 104.027 69.7204 103.943 69.7204 103.839C69.7204 103.735 69.6382 103.656 69.5354 103.656C69.4326 103.656 69.3545 103.74 69.3545 103.839C69.3545 103.943 69.4367 104.027 69.5354 104.027Z" fill="white"/>
<path d="M82.2806 84.7861C82.0997 84.7861 81.9517 84.936 81.9517 85.1192C81.9517 85.3023 82.0997 85.4522 82.2806 85.4522C82.4614 85.4522 82.6095 85.3023 82.6095 85.1192C82.6095 84.936 82.4614 84.7861 82.2806 84.7861Z" fill="white"/>
<path d="M87.9313 86.5889C87.7998 86.5889 87.6929 86.6971 87.6929 86.8303C87.6929 86.9635 87.7998 87.0718 87.9313 87.0718C88.0629 87.0718 88.1698 86.9635 88.1698 86.8303C88.1698 86.6971 88.0629 86.5889 87.9313 86.5889Z" fill="white"/>
<path d="M90.797 93.7236C90.5339 93.7236 90.3242 93.9401 90.3242 94.2024C90.3242 94.4688 90.538 94.6811 90.797 94.6811C91.0601 94.6811 91.2698 94.4646 91.2698 94.2024C91.2698 93.9401 91.0601 93.7236 90.797 93.7236Z" fill="white"/>
<path d="M79.508 107.045C79.7711 107.045 79.9807 106.829 79.9807 106.567C79.9807 106.3 79.767 106.088 79.508 106.088C79.2448 106.088 79.0352 106.304 79.0352 106.567C79.0352 106.829 79.2448 107.045 79.508 107.045Z" fill="white"/>
<path d="M22 102.995C22 109.899 27.5964 115.496 34.5 115.498C41.4036 115.499 47 109.904 47 103C47 96.0964 41.4036 90.4989 34.5 90.4975C27.5964 90.4961 22 96.0914 22 102.995Z" fill="#393A40"/>
<path fill-rule="evenodd" clip-rule="evenodd" d="M34.5 88.497C42.5081 88.4987 49 94.9919 49 103C49 111.008 42.5081 117.499 34.5 117.497C26.4919 117.495 20 111.002 20 102.994C20 94.9859 26.4919 88.4954 34.5 88.497ZM44.5694 102.999C44.5694 97.4379 40.0612 92.9287 34.5 92.9276C28.9388 92.9265 24.4306 97.4338 24.4306 102.995C24.4306 108.556 28.9388 113.065 34.5 113.066C40.0612 113.068 44.5694 108.56 44.5694 102.999Z" fill="black"/>
<path d="M80 102.995C80 109.899 85.5964 115.496 92.5 115.498C99.4036 115.499 105 109.904 105 103C105 96.0964 99.4036 90.4989 92.5 90.4975C85.5964 90.4961 80 96.0914 80 102.995Z" fill="#393A40"/>
<path fill-rule="evenodd" clip-rule="evenodd" d="M92.5 88.497C100.508 88.4987 107 94.9919 107 103C107 111.008 100.508 117.499 92.5 117.497C84.4919 117.495 78 111.002 78 102.994C78 94.9859 84.4919 88.4954 92.5 88.497ZM102.569 102.999C102.569 97.4379 98.0612 92.9287 92.5 92.9276C86.9388 92.9265 82.4306 97.4338 82.4306 102.995C82.4306 108.556 86.9388 113.065 92.5 113.066C98.0612 113.068 102.569 108.56 102.569 102.999Z" fill="black"/>
</svg>
