<svg width="128" height="129" viewBox="0 0 128 129" fill="none" xmlns="http://www.w3.org/2000/svg">
<path d="M32 46.7366C32 64.1335 46.103 78.2361 63.5 78.2355C80.897 78.2349 95 64.1313 95 46.7344C95 29.3374 80.897 15.2349 63.5 15.2355C46.103 15.2361 32 29.3396 32 46.7366Z" fill="#CF044D"/>
<path fill-rule="evenodd" clip-rule="evenodd" d="M64 12.2356C82.7777 12.2349 98 27.4567 98 46.2344C98 65.0121 82.7777 80.2349 64 80.2356C45.2223 80.2362 30 65.0144 30 46.2368C30 27.4591 45.2223 12.2362 64 12.2356ZM92.8097 46.2346C92.8097 30.3234 79.9112 17.4253 64 17.4258C48.0888 17.4264 35.1903 30.3254 35.1903 46.2366C35.1903 62.1477 48.0888 75.0458 64 75.0453C79.9112 75.0447 92.8097 62.1457 92.8097 46.2346Z" fill="black"/>
<path d="M21.6934 70.2344C21.6934 47.5907 40.0617 29.2344 62.6934 29.2344C85.325 29.2344 103.693 47.5907 103.693 70.2344C103.693 92.8781 85.325 111.234 62.6934 111.234C40.0617 111.234 21.6934 92.8781 21.6934 70.2344Z" fill="#79002C"/>
<path d="M109.236 54.9113C109.236 54.8371 109.236 54.7778 109.236 54.7036C109.236 41.4127 99.2488 29.2344 84.2224 29.2344C72.2783 29.2344 65.3584 37.4967 63.0005 45.225C60.6425 37.4967 53.7226 29.2344 41.7785 29.2344C26.7521 29.2344 16.7654 41.4127 16.7654 54.7036C16.7654 54.7778 16.7654 54.8371 16.7654 54.9113C16.6883 57.8038 16.7654 87.2337 62.985 111.234C109.236 87.2485 109.313 57.8038 109.236 54.9113Z" fill="#EB3F7C"/>
<path d="M46.3398 101.059C51.0866 104.5 56.5886 107.926 62.9845 111.234C109.235 87.2485 109.312 57.8038 109.235 54.9113C109.235 54.8371 109.235 54.7778 109.235 54.7036C109.235 53.0274 109.081 51.3512 108.757 49.7344C94.1932 83.5401 65.2808 96.2821 46.3398 101.059Z" fill="#DE4082"/>
<path d="M19.3244 57.7301C19.3244 57.7301 19.0007 32.3943 46.3411 32.0977C46.3411 32.0977 27.7392 36.4439 19.3244 57.7301Z" fill="#FF87BD"/>
<path d="M22 102.729C22 109.633 27.5964 115.23 34.5 115.232C41.4036 115.233 47 109.638 47 102.734C47 95.8308 41.4036 90.2333 34.5 90.2319C27.5964 90.2305 22 95.8258 22 102.729Z" fill="#CF044D"/>
<path fill-rule="evenodd" clip-rule="evenodd" d="M34.5 88.2314C42.5081 88.233 49 94.7262 49 102.734C49 110.743 42.5081 117.233 34.5 117.231C26.4919 117.23 20 110.737 20 102.728C20 94.7203 26.4919 88.2298 34.5 88.2314ZM44.5694 102.733C44.5694 97.1723 40.0612 92.6631 34.5 92.662C28.9388 92.6608 24.4306 97.1682 24.4306 102.729C24.4306 108.291 28.9388 112.8 34.5 112.801C40.0612 112.802 44.5694 108.295 44.5694 102.733Z" fill="black"/>
<path d="M80 102.729C80 109.633 85.5964 115.23 92.5 115.232C99.4036 115.233 105 109.638 105 102.734C105 95.8308 99.4036 90.2333 92.5 90.2319C85.5964 90.2305 80 95.8258 80 102.729Z" fill="#CF044D"/>
<path fill-rule="evenodd" clip-rule="evenodd" d="M92.5 88.2314C100.508 88.233 107 94.7262 107 102.734C107 110.743 100.508 117.233 92.5 117.231C84.4919 117.23 78 110.737 78 102.728C78 94.7203 84.4919 88.2298 92.5 88.2314ZM102.569 102.733C102.569 97.1723 98.0612 92.6631 92.5 92.662C86.9388 92.6608 82.4306 97.1682 82.4306 102.729C82.4306 108.291 86.9388 112.8 92.5 112.801C98.0612 112.802 102.569 108.295 102.569 102.733Z" fill="black"/>
</svg>
