<svg width="129" height="129" viewBox="0 0 129 129" fill="none" xmlns="http://www.w3.org/2000/svg">
<path d="M32.3125 46.7249C32.3125 64.1218 46.4155 78.2244 63.8125 78.2238C81.2095 78.2231 95.3125 64.1196 95.3125 46.7227C95.3125 29.3257 81.2095 15.2231 63.8125 15.2238C46.4155 15.2244 32.3125 29.3279 32.3125 46.7249Z" fill="#434759"/>
<path fill-rule="evenodd" clip-rule="evenodd" d="M64.3125 12.2238C83.0902 12.2232 98.3125 27.445 98.3125 46.2227C98.3125 65.0003 83.0902 80.2232 64.3125 80.2238C45.5348 80.2245 30.3125 65.0027 30.3125 46.225C30.3125 27.4473 45.5348 12.2245 64.3125 12.2238ZM93.1222 46.2228C93.1222 30.3117 80.2237 17.4136 64.3125 17.4141C48.4013 17.4147 35.5028 30.3137 35.5028 46.2249C35.5028 62.136 48.4013 75.0341 64.3125 75.0336C80.2237 75.033 93.1222 62.134 93.1222 46.2228Z" fill="black"/>
<path d="M21.4693 66.1392C21.3681 67.3209 21.3164 68.5168 21.3164 69.7246C21.3164 92.6301 39.8948 111.221 62.8125 111.221C85.7302 111.221 104.309 92.6301 104.309 69.7246C104.309 52.7822 94.1443 38.2005 79.5779 31.7565L74.5143 29.9023C70.8031 28.813 66.876 28.2285 62.8125 28.2285C50.9159 28.2285 40.1885 33.2381 32.6222 41.2604L21.4693 66.1392Z" fill="#686D84"/>
<path d="M101.273 85.3243C101.225 85.4443 101.175 85.5641 101.126 85.6835L64.374 104.209L47.095 98.7177L41.5099 79.3018L78.5114 82.4397L101.273 85.3243Z" fill="#737A91"/>
<path d="M102.605 57.9289L98.233 59.6913L98.9376 49.2988C100.469 52.0015 101.706 54.8927 102.605 57.9289Z" fill="#777E94"/>
<path d="M101.604 84.4852L98.2355 59.6924L103.611 62.1086C104.069 64.5771 104.309 67.1221 104.309 69.7227C104.309 74.9215 103.352 79.8979 101.604 84.4852Z" fill="#777E94"/>
<path d="M101.602 84.4877C101.494 84.7689 101.384 85.0487 101.271 85.327L78.5101 82.4424L98.2327 59.6924L101.602 84.4877Z" fill="#636880"/>
<path d="M47.3139 31.2209C48.67 30.6742 50.0617 30.1971 51.4844 29.7939L48.4937 31.4499L47.3139 31.2209Z" fill="#515772"/>
<path d="M26.3827 49.8424C30.9711 41.4545 38.3721 34.8225 47.3174 31.2178L48.4918 31.4457L69.7852 39.0944L46.0483 54.3919L26.3827 49.8424Z" fill="#5C617A"/>
<path d="M21.4335 72.8849C21.3548 71.8411 21.3147 70.7866 21.3147 69.7228C21.3147 62.5238 23.1499 55.751 26.3782 49.8477L46.0469 54.3979L41.5089 79.3053L21.4335 72.8849Z" fill="#636880"/>
<path d="M93.7617 42.0857C86.1629 33.582 75.1124 28.2266 62.8119 28.2266C58.8819 28.2266 55.0794 28.7733 51.4764 29.7947L48.4903 31.448L69.7836 39.0968L86.5391 45.7649L93.7617 42.0857Z" fill="#555A71"/>
<path d="M78.5117 82.4457L72.5775 55.381L46.0481 54.4004L41.5102 79.3078L78.5117 82.4457Z" fill="#777E94"/>
<path d="M101.191 85.5254C96.7916 96.1944 88.0713 104.631 77.2097 108.652L64.3736 104.214L63.85 104.214L71.0059 93.4269L101.191 85.5254Z" fill="#7F869B"/>
<path d="M88.2877 82.5548C88.3522 82.6106 88.4608 82.6155 88.527 82.5391L90.7427 79.9792C90.7757 79.941 90.783 79.8805 90.7792 79.8326L88.3344 71.2117C88.0512 70.2092 88.2907 69.1243 88.9741 68.3347L93.7031 62.871L92.8895 59.2485L86.9699 66.0876C86.0329 67.1702 84.4689 67.465 83.1906 66.804L79.8216 65.091C79.7589 65.059 79.6872 65.0638 79.6431 65.1147L74.4153 69.4338C73.4208 70.2438 72.048 70.3699 70.904 69.7362L46.7351 56.2575C46.5343 56.1506 46.3684 56.0293 46.2007 55.8841L35.1702 46.3367C35.1057 46.2809 34.9971 46.276 34.9309 46.3524C34.8758 46.4161 34.8814 46.4878 34.9349 46.5564L41.5729 55.4429C42.4601 56.634 42.4184 58.2465 41.4594 59.3545L29.8849 72.7271C29.8298 72.7908 29.8262 72.8991 29.9037 72.9661L32.3033 75.0431C32.3549 75.0877 32.4285 75.1069 32.4855 75.0672L41.5867 70.1576C42.7287 69.5421 44.148 69.7013 45.1414 70.5611L62.4807 85.5689C63.5773 86.5181 63.8926 88.0831 63.2467 89.3508L58.9312 97.9347C58.9 97.9968 58.9185 98.0796 58.9701 98.1243L60.1313 99.1293C60.1958 99.1851 60.3044 99.19 60.3705 99.1136L78.4819 78.1887C79.6062 76.8896 81.592 76.7594 82.9079 77.8983L88.2877 82.5548Z" fill="#4A4F65"/>
<path d="M84.0726 65.8598L82.0527 64.9992L85.1771 56.9427L88.0407 55.5706L86.7598 64.236C85.4371 65.8554 84.4172 65.9932 84.0726 65.8598Z" fill="#4A4F65"/>
<path d="M22.3125 102.722C22.3125 95.8182 27.9089 90.2207 34.8125 90.2193C41.7161 90.2179 47.3125 95.8132 47.3125 102.717C47.3125 109.62 41.7161 115.218 34.8125 115.219C27.9089 115.221 22.3125 109.625 22.3125 102.722Z" fill="#5A9115"/>
<path d="M30.2056 108.485C31.814 104.681 34.0073 101.116 36.7855 97.7881C36.4931 100.641 36.4931 103.493 37.078 106.227C37.2242 106.94 37.6628 107.89 38.5402 108.009C39.2713 108.009 39.8561 107.534 40.2948 107.058C42.7805 104.444 45.2663 101.948 47.752 99.3332C46.8747 100.284 46.7285 103.968 46.1436 105.395C45.2663 107.415 44.0965 109.198 43.2192 111.218C41.9032 114.427 41.6108 114.784 37.078 114.665C35.0309 114.665 32.8376 114.546 30.9367 113.833C24.5031 111.694 24.0644 103.968 21.8711 99.3332C24.2106 102.542 26.5501 105.989 30.2056 108.485Z" fill="#80AC29"/>
<path fill-rule="evenodd" clip-rule="evenodd" d="M34.8125 117.22C42.8206 117.218 49.3125 110.725 49.3125 102.717C49.3125 94.7087 42.8206 88.2181 34.8125 88.2198C26.8044 88.2214 20.3125 94.7146 20.3125 102.723C20.3125 110.731 26.8044 117.221 34.8125 117.22ZM44.8819 102.718C44.8819 108.279 40.3737 112.788 34.8125 112.789C29.2513 112.79 24.7431 108.283 24.7431 102.722C24.7431 97.1606 29.2513 92.6514 34.8125 92.6503C40.3737 92.6492 44.8819 97.1565 44.8819 102.718Z" fill="black"/>
<path d="M80.3125 102.722C80.3125 95.8182 85.9089 90.2207 92.8125 90.2193C99.7161 90.2179 105.312 95.8132 105.312 102.717C105.312 109.62 99.7161 115.218 92.8125 115.219C85.9089 115.221 80.3125 109.625 80.3125 102.722Z" fill="#5A9115"/>
<path d="M88.2056 108.485C89.814 104.681 92.0073 101.116 94.7855 97.7881C94.4931 100.641 94.4931 103.493 95.078 106.227C95.2242 106.94 95.6628 107.89 96.5402 108.009C97.2713 108.009 97.8561 107.534 98.2948 107.058C100.781 104.444 103.266 101.948 105.752 99.3332C104.875 100.284 104.728 103.968 104.144 105.395C103.266 107.415 102.097 109.198 101.219 111.218C99.9032 114.427 99.6108 114.784 95.078 114.665C93.0309 114.665 90.8376 114.546 88.9367 113.833C82.5031 111.694 82.0644 103.968 79.8711 99.3332C82.2106 102.542 84.5501 105.989 88.2056 108.485Z" fill="#80AC29"/>
<path fill-rule="evenodd" clip-rule="evenodd" d="M92.8125 117.22C100.821 117.218 107.312 110.725 107.312 102.717C107.312 94.7087 100.821 88.2181 92.8125 88.2198C84.8044 88.2214 78.3125 94.7146 78.3125 102.723C78.3125 110.731 84.8044 117.221 92.8125 117.22ZM102.882 102.718C102.882 108.279 98.3737 112.788 92.8125 112.789C87.2513 112.79 82.7431 108.283 82.7431 102.722C82.7431 97.1606 87.2513 92.6514 92.8125 92.6503C98.3737 92.6492 102.882 97.1565 102.882 102.718Z" fill="black"/>
</svg>
