<svg width="129" height="129" viewBox="0 0 129 129" fill="none" xmlns="http://www.w3.org/2000/svg">
<path d="M33.433 38.5066C30.2646 39.7792 28.0672 42.9802 27.4995 46.3531C27.4446 49.0835 30.9839 52.718 31.2912 52.6931C35.892 52.3201 40.4469 47.1135 40.5906 45.7878C40.7164 44.6279 36.6014 37.2339 33.433 38.5066Z" stroke="black" stroke-width="6.9"/>
<path d="M51.224 45.7124C52.6992 48.4393 52.4006 51.5827 51.3417 53.8138C49.7962 55.753 42.819 56.4357 42.6662 56.2011C40.6898 53.1668 41.3316 47.6565 42.0002 46.647C42.5852 45.7638 49.7489 42.9854 51.224 45.7124Z" stroke="black" stroke-width="6.9"/>
<path d="M21.2796 40.857C20.9024 40.9331 16.7285 43.4117 15.9981 45.2626C15.3823 47.6741 17.7454 53.3024 19.1905 55.8033C22.7453 54.442 28.6949 48.0222 27.3565 45.794C25.4832 42.6757 21.6568 40.7809 21.2796 40.857Z" stroke="black" stroke-width="6.9"/>
<path d="M15.3416 64.2696C15.3416 59.8267 17.8259 54.7459 20.2425 51.1376C21.7606 48.8708 26.4672 45.4591 28.0591 45.4591C31.8448 44.2763 36.3123 44.4408 39.5937 45.4592C44.7913 47.0722 49.0699 49.893 51.1049 54.1731C53.9084 60.0699 53.5224 71.6114 48.3547 76.7791C44.2197 80.9141 39.4602 82.9377 33.6565 82.9377C32.2363 82.9377 29.7634 82.5746 29.7634 82.5746C27.8606 82.3843 21.396 78.8419 20.0737 77.5196C18.2981 75.744 17.392 74.3148 16.7021 71.9002C15.9674 69.3289 15.3416 66.8521 15.3416 64.2696Z" fill="#ADC078" stroke="black" stroke-width="6.89972" stroke-linecap="round" stroke-linejoin="round"/>
<path d="M34.7902 73.2775C36.4231 71.4566 37.574 72.0453 40.2251 71.8494C40.64 71.8664 43.3081 71.943 43.6138 72.0384C44.0509 72.1748 44.5785 72.1869 45.0467 72.2714C46.4108 72.5177 47.8999 72.3441 49.1794 72.8433C50.3824 73.3125 49.9218 74.7038 49.5867 75.385C48.4656 77.6637 45.4178 79.0966 42.6636 80.3519C39.905 81.6092 36.5914 82.2934 33.3724 81.4745C30.9291 80.8529 31.3524 78.7356 32.1507 77.3654C32.6337 76.5364 33.3501 75.8082 33.84 74.9826C34.148 74.4635 34.3688 73.7474 34.7902 73.2775Z" fill="#727A52" fill-opacity="0.2"/>
<path d="M16.7545 71.8924C15.7331 71.0041 16.2202 70.6961 16.3416 69.7228C16.3914 69.5786 16.69 68.6456 16.7801 68.5534C16.9089 68.4216 16.9659 68.2366 17.0642 68.0849C17.3504 67.6431 17.3777 67.0856 17.819 66.7167C18.2339 66.3699 19.0879 66.7696 19.4957 67.0042C20.8601 67.7888 21.4991 69.1129 22.0511 70.3027C22.6039 71.4944 22.7355 72.7855 21.9068 73.7877C21.2777 74.5484 19.9522 74.0387 19.1434 73.5228C18.6541 73.2107 18.2515 72.833 17.765 72.519C17.4592 72.3216 17.0181 72.1217 16.7545 71.8924Z" fill="#727A52" fill-opacity="0.2"/>
<path d="M32.5462 69.1058C31.5212 69.6001 31.3558 69.1102 30.5129 68.6766C30.3952 68.5874 29.6284 68.0284 29.5663 67.9256C29.4775 67.7786 29.325 67.6694 29.2116 67.5395C28.8811 67.161 29.291 66.6692 29.0608 66.1941C28.8444 65.7475 29.3947 65.2151 29.6965 64.9759C30.7062 64.1761 31.1323 64.4104 32.3209 64.3899C33.5113 64.3694 34.6955 64.7146 35.4045 65.7142C35.9427 66.473 35.1875 67.3378 34.5436 67.7944C34.154 68.0706 33.7253 68.2558 33.3347 68.5292C33.0891 68.701 32.8107 68.9782 32.5462 69.1058Z" fill="#727A52" fill-opacity="0.2"/>
<path d="M15.3416 64.2696C15.3416 59.8267 17.8259 54.7459 20.2425 51.1376C21.7606 48.8708 26.4672 45.4591 28.0591 45.4591C31.8448 44.2763 36.3123 44.4408 39.5937 45.4592C44.7913 47.0722 49.0699 49.893 51.1049 54.1731C53.9084 60.0699 53.5224 71.6114 48.3547 76.7791C44.2197 80.9141 39.4602 82.9377 33.6565 82.9377C32.2363 82.9377 29.7634 82.5746 29.7634 82.5746C27.8606 82.3843 21.396 78.8419 20.0737 77.5196C18.2981 75.744 17.392 74.3148 16.7021 71.9002C15.9674 69.3289 15.3416 66.8521 15.3416 64.2696Z" stroke="black" stroke-width="6.89972" stroke-linecap="round" stroke-linejoin="round"/>
<path d="M33.433 38.5066C30.2646 39.7792 28.0672 42.9802 27.4995 46.3531C27.4446 49.0835 30.9839 52.718 31.2913 52.6931C35.8921 52.3201 40.4469 47.1135 40.5907 45.7878C40.7164 44.6279 36.6014 37.2339 33.433 38.5066Z" fill="#F2EAD9" stroke="black" stroke-width="3.72958"/>
<path d="M51.224 45.7124C52.6992 48.4393 52.4006 51.5827 51.3417 53.8138C49.7962 55.753 42.819 56.4357 42.6662 56.2011C40.6898 53.1668 41.3316 47.6565 42.0002 46.647C42.5852 45.7638 49.7489 42.9854 51.224 45.7124Z" fill="#F2EAD9" stroke="black" stroke-width="3.72958"/>
<path d="M21.2795 40.8572C20.9023 40.9334 16.7284 43.412 15.9981 45.2629C15.3822 47.6744 17.7453 53.3026 19.1904 55.8036C22.7453 54.4423 28.6949 48.0224 27.3564 45.7943C25.4832 42.676 21.6568 40.7811 21.2795 40.8572Z" fill="#F2EAD9" stroke="black" stroke-width="3.72958"/>
<path d="M28.1875 56.0198C29.2594 57.5607 30.4962 58.955 34.8662 56.0198" stroke="#727A52" stroke-width="1.24319" stroke-linecap="round"/>
<path d="M39.3813 58.2584C39.9377 60.0511 41.2739 61.3685 46.3264 59.8904" stroke="#727A52" stroke-width="1.24319" stroke-linecap="round"/>
<path d="M27.2171 58.8914C28.6656 61.0343 31.1131 61.6121 34.8662 58.8914" stroke="#727A52" stroke-width="0.621596" stroke-linecap="round"/>
<path d="M37.5888 60.7021C38.3224 63.1825 40.481 64.4727 44.8806 63.0126" stroke="#727A52" stroke-width="0.621596" stroke-linecap="round"/>
<path d="M32.2364 46.8506C31.7402 48.0765 31.7891 49.2014 31.7891 50.5186" stroke="#CBC2AF" stroke-width="0.621596" stroke-linecap="round" stroke-linejoin="round"/>
<path d="M33.0416 46.5823C33.0644 47.8944 33.0873 49.2064 33.1102 50.5185" stroke="#CBC2AF" stroke-width="0.621596" stroke-linecap="round" stroke-linejoin="round"/>
<path d="M33.9362 45.0615C34.1875 46.5694 34.2046 48.0088 34.2046 49.5347" stroke="#CBC2AF" stroke-width="0.621596" stroke-linecap="round" stroke-linejoin="round"/>
<path d="M35.0992 44.7261C35.5433 46.0879 35.7745 47.1763 35.7745 48.6177" stroke="#CBC2AF" stroke-width="0.621596" stroke-linecap="round" stroke-linejoin="round"/>
<path d="M36.0513 43.3635C36.554 44.89 36.8942 46.4587 37.0359 48.0586" stroke="#CBC2AF" stroke-width="0.621596" stroke-linecap="round" stroke-linejoin="round"/>
<path d="M31.0734 46.7612C30.7348 47.6176 30.5366 48.433 30.5366 49.3557" stroke="#CBC2AF" stroke-width="0.621596" stroke-linecap="round" stroke-linejoin="round"/>
<path d="M30.1189 46.1797C29.9493 46.6248 29.8505 47.052 29.8505 47.5216" stroke="#CBC2AF" stroke-width="0.621596" stroke-linecap="round" stroke-linejoin="round"/>
<path d="M37.4253 44.5691C37.5734 45.2932 37.8726 46.0728 37.8726 46.8057" stroke="#CBC2AF" stroke-width="0.621596" stroke-linecap="round" stroke-linejoin="round"/>
<path d="M33.433 38.5066C30.2646 39.7792 28.0672 42.9802 27.4995 46.3531C27.4446 49.0835 30.9839 52.718 31.2913 52.6931C35.8921 52.3201 40.4469 47.1135 40.5907 45.7878C40.7164 44.6279 36.6014 37.2339 33.433 38.5066Z" stroke="black" stroke-width="3.72958"/>
<path d="M21.436 58.9595C22.4987 58.6325 24.297 57.4064 24.7058 57.0793" stroke="#727A52" stroke-width="1.24319" stroke-linecap="round"/>
<path d="M21.964 60.8055L23.6766 60.0444" stroke="#727A52" stroke-width="0.621596" stroke-linecap="round"/>
<path d="M43.1563 51.9569C43.5736 51.4552 43.9302 50.961 44.2923 50.4012C44.4507 50.1563 44.72 49.9047 44.8377 49.6393C44.9252 49.4421 45.2088 48.9805 45.3638 48.8853" stroke="#CBC2AF" stroke-width="0.621596" stroke-linecap="round" stroke-linejoin="round"/>
<path d="M45.23 51.416C44.925 51.7168 44.5964 51.9985 44.346 52.3485C44.2063 52.5438 44.1281 52.7975 43.9595 52.9722C43.7833 53.1549 43.589 53.3835 43.3569 53.4982" stroke="#CBC2AF" stroke-width="0.621596" stroke-linecap="round" stroke-linejoin="round"/>
<path d="M43.7649 54.3829C44.556 53.7911 46.122 52.9645 46.3478 51.7351" stroke="#CBC2AF" stroke-width="0.621596" stroke-linecap="round" stroke-linejoin="round"/>
<path d="M45.8319 54.2966C46.8402 53.4618 47.5787 52.5863 47.8387 51.2864" stroke="#CBC2AF" stroke-width="0.621596" stroke-linecap="round" stroke-linejoin="round"/>
<path d="M47.9725 53.6102C48.5298 52.6962 48.9106 51.7807 49.246 50.7905" stroke="#CBC2AF" stroke-width="0.621596" stroke-linecap="round" stroke-linejoin="round"/>
<path d="M51.224 45.7124C52.6992 48.4393 52.4006 51.5827 51.3417 53.8138C49.7962 55.753 42.819 56.4357 42.6662 56.2011C40.6898 53.1668 41.3316 47.6565 42.0002 46.647C42.5852 45.7638 49.7489 42.9854 51.224 45.7124Z" stroke="black" stroke-width="3.72958"/>
<path d="M24.0907 46.5916C24.5313 47.027 24.8583 47.6512 25.182 48.1751" stroke="#CBC2AF" stroke-width="0.621596" stroke-linecap="round" stroke-linejoin="round"/>
<path d="M22.2256 46.1948C22.3617 46.5521 22.6229 47.0744 22.736 47.4363C22.8491 47.7982 22.9312 47.8096 23.0745 48.0962C23.3081 48.5634 23.5919 49.0152 23.8554 49.4543" stroke="#CBC2AF" stroke-width="0.621596" stroke-linecap="round" stroke-linejoin="round"/>
<path d="M21.4317 47.9165C21.7246 48.4922 22.164 48.9705 22.4632 49.5375C22.5695 49.7388 22.6645 49.9506 22.7784 50.1474C22.868 50.3021 22.9961 50.4361 23.0527 50.6059" stroke="#CBC2AF" stroke-width="0.621596" stroke-linecap="round" stroke-linejoin="round"/>
<path d="M20.2897 49.0217C20.5175 49.3733 20.7347 49.728 20.9712 50.0737C21.1037 50.2674 21.2685 50.5622 21.3499 50.7819C21.4309 51.0006 21.5794 51.1942 21.6528 51.4143C21.6996 51.5547 21.7896 51.7322 21.8738 51.8585" stroke="#CBC2AF" stroke-width="0.621596" stroke-linecap="round" stroke-linejoin="round"/>
<path d="M19.2582 50.1272C19.5661 50.8029 19.8758 51.5029 20.2324 52.1514C20.3332 52.3347 20.4545 52.5065 20.5619 52.6856C20.6188 52.7803 20.6658 52.9494 20.7687 53.0008" stroke="#CBC2AF" stroke-width="0.621596" stroke-linecap="round" stroke-linejoin="round"/>
<path d="M21.2795 40.8572C20.9023 40.9334 16.7284 43.412 15.9981 45.2629C15.3822 47.6744 17.7453 53.3026 19.1904 55.8036C22.7453 54.4423 28.6949 48.0224 27.3564 45.7943C25.4832 42.676 21.6568 40.7811 21.2795 40.8572Z" stroke="black" stroke-width="3.72958"/>
<path d="M97.1147 38.5066C100.283 39.7792 102.48 42.9802 103.048 46.3531C103.103 49.0835 99.5638 52.718 99.2564 52.6931C94.6556 52.3201 90.1008 47.1135 89.957 45.7878C89.8313 44.6279 93.9463 37.2339 97.1147 38.5066Z" stroke="black" stroke-width="6.9"/>
<path d="M79.3236 45.7124C77.8485 48.4393 78.1471 51.5827 79.2059 53.8138C80.7515 55.753 87.7287 56.4357 87.8815 56.2011C89.8578 53.1668 89.2161 47.6565 88.5475 46.647C87.9625 45.7638 80.7988 42.9854 79.3236 45.7124Z" stroke="black" stroke-width="6.9"/>
<path d="M109.268 40.857C109.645 40.9331 113.819 43.4117 114.55 45.2626C115.166 47.6741 112.802 53.3024 111.357 55.8033C107.802 54.442 101.853 48.0222 103.191 45.794C105.065 42.6757 108.891 40.7809 109.268 40.857Z" stroke="black" stroke-width="6.9"/>
<path d="M115.206 64.2696C115.206 59.8267 112.722 54.7459 110.305 51.1376C108.787 48.8708 104.08 45.4591 102.489 45.4591C98.7029 44.2763 94.2355 44.4408 90.954 45.4592C85.7564 47.0722 81.4778 49.893 79.4429 54.1731C76.6394 60.0699 77.0253 71.6114 82.1931 76.7791C86.3281 80.9141 91.0875 82.9377 96.8912 82.9377C98.3114 82.9377 100.784 82.5746 100.784 82.5746C102.687 82.3843 109.152 78.8419 110.474 77.5196C112.25 75.744 113.156 74.3148 113.846 71.9002C114.58 69.3289 115.206 66.8521 115.206 64.2696Z" fill="#ADC078" stroke="black" stroke-width="6.89972" stroke-linecap="round" stroke-linejoin="round"/>
<path d="M86.6313 72.9343C85.01 74.2147 85.6273 74.9781 85.59 76.8519C85.629 77.1416 85.8489 79.0071 85.9555 79.2144C86.1079 79.5108 86.1485 79.8799 86.2539 80.202C86.561 81.1404 86.4804 82.1976 87.0206 83.0579C87.5283 83.8666 88.8107 83.4403 89.4325 83.1547C91.5125 82.1991 92.6906 79.9552 93.718 77.9304C94.7471 75.9024 95.2067 73.5277 94.2584 71.331C93.5387 69.6636 91.5718 70.1178 90.3279 70.7794C89.5754 71.1797 88.9305 71.7363 88.1815 72.1412C87.7106 72.3957 87.0497 72.6038 86.6313 72.9343Z" fill="#727A52" fill-opacity="0.2"/>
<path d="M103.395 70.8244C104.677 71.4308 104.889 70.8184 105.951 70.2699C106.099 70.1575 107.067 69.4533 107.145 69.3246C107.258 69.1404 107.451 69.0029 107.594 68.8399C108.012 68.3648 107.503 67.7556 107.796 67.1611C108.072 66.6022 107.387 65.9437 107.01 65.6484C105.751 64.6609 105.214 64.9571 103.723 64.9429C102.229 64.9286 100.74 65.3703 99.8412 66.6233C99.1587 67.5744 100.098 68.6454 100.902 69.2085C101.388 69.5491 101.924 69.776 102.411 70.113C102.718 70.3249 103.064 70.6679 103.395 70.8244Z" fill="#727A52" fill-opacity="0.2"/>
<path d="M115.206 64.2696C115.206 59.8267 112.722 54.7459 110.305 51.1376C108.787 48.8708 104.08 45.4591 102.489 45.4591C98.7029 44.2763 94.2355 44.4408 90.954 45.4592C85.7564 47.0722 81.4778 49.893 79.4429 54.1731C76.6394 60.0699 77.0253 71.6114 82.1931 76.7791C86.3281 80.9141 91.0875 82.9377 96.8912 82.9377C98.3114 82.9377 100.784 82.5746 100.784 82.5746C102.687 82.3843 109.152 78.8419 110.474 77.5196C112.25 75.744 113.156 74.3148 113.846 71.9002C114.58 69.3289 115.206 66.8521 115.206 64.2696Z" stroke="black" stroke-width="6.89972" stroke-linecap="round" stroke-linejoin="round"/>
<path d="M97.1147 38.5066C100.283 39.7792 102.481 42.9802 103.048 46.3531C103.103 49.0835 99.5638 52.718 99.2565 52.6931C94.6557 52.3201 90.1008 47.1135 89.9571 45.7878C89.8313 44.6279 93.9463 37.2339 97.1147 38.5066Z" fill="#F2EAD9" stroke="black" stroke-width="3.72958"/>
<path d="M79.3237 45.7124C77.8485 48.4393 78.1471 51.5827 79.206 53.8138C80.7515 55.753 87.7287 56.4357 87.8815 56.2011C89.8579 53.1668 89.2161 47.6565 88.5475 46.647C87.9625 45.7638 80.7988 42.9854 79.3237 45.7124Z" fill="#F2EAD9" stroke="black" stroke-width="3.72958"/>
<path d="M109.268 40.857C109.645 40.9331 113.819 43.4117 114.55 45.2626C115.166 47.6741 112.802 53.3024 111.357 55.8033C107.802 54.442 101.853 48.0222 103.191 45.794C105.065 42.6757 108.891 40.7809 109.268 40.857Z" fill="#F2EAD9" stroke="black" stroke-width="3.72958"/>
<path d="M102.36 56.0198C101.288 57.5607 100.052 58.955 95.6815 56.0198" stroke="#727A52" stroke-width="1.24319" stroke-linecap="round"/>
<path d="M91.1665 58.2581C90.6101 60.0508 89.2739 61.3683 84.2213 59.8902" stroke="#727A52" stroke-width="1.24319" stroke-linecap="round"/>
<path d="M103.331 58.8914C101.882 61.0343 99.4346 61.6121 95.6815 58.8914" stroke="#727A52" stroke-width="0.621596" stroke-linecap="round"/>
<path d="M92.9589 60.7021C92.2253 63.1825 90.0667 64.4727 85.6671 63.0126" stroke="#727A52" stroke-width="0.621596" stroke-linecap="round"/>
<path d="M98.3113 46.8506C98.8075 48.0765 98.7587 49.2014 98.7587 50.5186" stroke="#CBC2AF" stroke-width="0.621596" stroke-linecap="round" stroke-linejoin="round"/>
<path d="M97.5062 46.5823C97.4833 47.8944 97.4604 49.2064 97.4375 50.5185" stroke="#CBC2AF" stroke-width="0.621596" stroke-linecap="round" stroke-linejoin="round"/>
<path d="M96.6115 45.0613C96.3602 46.5692 96.3432 48.0086 96.3432 49.5344" stroke="#CBC2AF" stroke-width="0.621596" stroke-linecap="round" stroke-linejoin="round"/>
<path d="M95.4485 44.7261C95.0044 46.0879 94.7732 47.1763 94.7732 48.6177" stroke="#CBC2AF" stroke-width="0.621596" stroke-linecap="round" stroke-linejoin="round"/>
<path d="M94.4964 43.3633C93.9937 44.8897 93.6536 46.4584 93.5118 48.0583" stroke="#CBC2AF" stroke-width="0.621596" stroke-linecap="round" stroke-linejoin="round"/>
<path d="M99.4744 46.7612C99.8129 47.6176 100.011 48.433 100.011 49.3557" stroke="#CBC2AF" stroke-width="0.621596" stroke-linecap="round" stroke-linejoin="round"/>
<path d="M100.429 46.1797C100.598 46.6248 100.697 47.052 100.697 47.5216" stroke="#CBC2AF" stroke-width="0.621596" stroke-linecap="round" stroke-linejoin="round"/>
<path d="M93.1224 44.5688C92.9743 45.293 92.6751 46.0726 92.6751 46.8054" stroke="#CBC2AF" stroke-width="0.621596" stroke-linecap="round" stroke-linejoin="round"/>
<path d="M97.1147 38.5066C100.283 39.7792 102.481 42.9802 103.048 46.3531C103.103 49.0835 99.5638 52.718 99.2565 52.6931C94.6557 52.3201 90.1008 47.1135 89.9571 45.7878C89.8313 44.6279 93.9463 37.2339 97.1147 38.5066Z" stroke="black" stroke-width="3.72958"/>
<path d="M109.112 58.9595C108.049 58.6325 106.251 57.4064 105.842 57.0793" stroke="#727A52" stroke-width="1.24319" stroke-linecap="round"/>
<path d="M108.584 60.8055L106.871 60.0444" stroke="#727A52" stroke-width="0.621596" stroke-linecap="round"/>
<path d="M87.3914 51.9569C86.9741 51.4552 86.6175 50.961 86.2554 50.4012C86.097 50.1563 85.8277 49.9047 85.71 49.6393C85.6225 49.4421 85.3389 48.9805 85.184 48.8853" stroke="#CBC2AF" stroke-width="0.621596" stroke-linecap="round" stroke-linejoin="round"/>
<path d="M85.3177 51.4157C85.6227 51.7166 85.9513 51.9983 86.2017 52.3483C86.3414 52.5436 86.4196 52.7973 86.5882 52.972C86.7644 53.1547 86.9587 53.3832 87.1908 53.498" stroke="#CBC2AF" stroke-width="0.621596" stroke-linecap="round" stroke-linejoin="round"/>
<path d="M86.7828 54.3826C85.9917 53.7909 84.4257 52.9642 84.1999 51.7348" stroke="#CBC2AF" stroke-width="0.621596" stroke-linecap="round" stroke-linejoin="round"/>
<path d="M84.7158 54.2966C83.7075 53.4618 82.969 52.5863 82.709 51.2864" stroke="#CBC2AF" stroke-width="0.621596" stroke-linecap="round" stroke-linejoin="round"/>
<path d="M82.5752 53.6102C82.0179 52.6962 81.6371 51.7807 81.3017 50.7905" stroke="#CBC2AF" stroke-width="0.621596" stroke-linecap="round" stroke-linejoin="round"/>
<path d="M79.3237 45.7124C77.8485 48.4393 78.1471 51.5827 79.206 53.8138C80.7515 55.753 87.7287 56.4357 87.8815 56.2011C89.8579 53.1668 89.2161 47.6565 88.5475 46.647C87.9625 45.7638 80.7988 42.9854 79.3237 45.7124Z" stroke="black" stroke-width="3.72958"/>
<path d="M106.457 46.5916C106.016 47.027 105.689 47.6512 105.366 48.1751" stroke="#CBC2AF" stroke-width="0.621596" stroke-linecap="round" stroke-linejoin="round"/>
<path d="M108.322 46.1948C108.186 46.5521 107.925 47.0744 107.812 47.4363C107.699 47.7982 107.617 47.8096 107.473 48.0962C107.24 48.5634 106.956 49.0152 106.692 49.4543" stroke="#CBC2AF" stroke-width="0.621596" stroke-linecap="round" stroke-linejoin="round"/>
<path d="M109.116 47.9165C108.823 48.4922 108.384 48.9705 108.084 49.5375C107.978 49.7388 107.883 49.9506 107.769 50.1474C107.68 50.3021 107.552 50.4361 107.495 50.6059" stroke="#CBC2AF" stroke-width="0.621596" stroke-linecap="round" stroke-linejoin="round"/>
<path d="M110.258 49.0217C110.03 49.3733 109.813 49.728 109.577 50.0737C109.444 50.2674 109.279 50.5622 109.198 50.7819C109.117 51.0006 108.968 51.1942 108.895 51.4143C108.848 51.5547 108.758 51.7322 108.674 51.8585" stroke="#CBC2AF" stroke-width="0.621596" stroke-linecap="round" stroke-linejoin="round"/>
<path d="M111.29 50.127C110.982 50.8027 110.672 51.5027 110.315 52.1511C110.215 52.3344 110.093 52.5062 109.986 52.6853C109.929 52.7801 109.882 52.9491 109.779 53.0005" stroke="#CBC2AF" stroke-width="0.621596" stroke-linecap="round" stroke-linejoin="round"/>
<path d="M109.268 40.857C109.645 40.9331 113.819 43.4117 114.55 45.2626C115.166 47.6741 112.802 53.3024 111.357 55.8033C107.802 54.442 101.853 48.0222 103.191 45.794C105.065 42.6757 108.891 40.7809 109.268 40.857Z" stroke="black" stroke-width="3.72958"/>
</svg>
