<svg width="129" height="129" viewBox="0 0 129 129" fill="none" xmlns="http://www.w3.org/2000/svg">
<path d="M116.196 64.8178C116.196 54.0425 107.476 45.3057 96.7182 45.3035C85.9608 45.3014 77.2402 54.0347 77.2402 64.81C77.2402 75.5852 85.9608 84.3221 96.7182 84.3242C107.476 84.3264 116.196 75.593 116.196 64.8178Z" fill="url(#paint0_linear)"/>
<path fill-rule="evenodd" clip-rule="evenodd" d="M80.7895 64.8107C80.7895 73.6303 87.9258 80.7714 96.7165 80.7732C105.507 80.7749 112.643 73.6367 112.643 64.817C112.643 55.9974 105.507 48.8563 96.7165 48.8545C87.9258 48.8528 80.7895 55.991 80.7895 64.8107ZM96.7165 87.8752C83.9923 87.8727 73.6875 77.5401 73.6875 64.8092C73.6875 52.0784 83.9923 41.7499 96.7165 41.7525C109.441 41.755 119.745 52.0876 119.745 64.8184C119.745 77.5493 109.441 87.8778 96.7165 87.8752Z" fill="black"/>
<path d="M54.0951 64.8157C54.0951 54.0345 45.3552 45.2928 34.5739 45.2906C23.7927 45.2885 15.0527 54.0267 15.0527 64.8079C15.0527 75.5892 23.7927 84.3308 34.5739 84.333C45.3552 84.3352 54.0951 75.597 54.0951 64.8157Z" fill="url(#paint1_linear)"/>
<path fill-rule="evenodd" clip-rule="evenodd" d="M18.5945 64.8394C18.5945 73.6477 25.735 80.7897 34.5434 80.7914C43.3517 80.7932 50.4922 73.6541 50.4922 64.8458C50.4922 56.0375 43.3517 48.8955 34.5434 48.8938C25.735 48.892 18.5945 56.0311 18.5945 64.8394ZM34.5434 87.884C21.8179 87.8815 11.502 77.5634 11.502 64.838C11.502 52.1126 21.8179 41.7987 34.5434 41.8012C47.2688 41.8037 57.5847 52.1218 57.5848 64.8472C57.5848 77.5726 47.2688 87.8865 34.5434 87.884Z" fill="black"/>
<defs>
<linearGradient id="paint0_linear" x1="79.5367" y1="57.3469" x2="111.595" y2="72.9955" gradientUnits="userSpaceOnUse">
<stop stop-color="#617594"/>
<stop offset="1" stop-color="#264067"/>
</linearGradient>
<linearGradient id="paint1_linear" x1="17.3543" y1="57.3407" x2="49.4634" y2="73.0401" gradientUnits="userSpaceOnUse">
<stop stop-color="#617594"/>
<stop offset="1" stop-color="#264067"/>
</linearGradient>
</defs>
</svg>
