<svg width="129" height="128" viewBox="0 0 129 128" fill="none" xmlns="http://www.w3.org/2000/svg">
<path d="M6.99024 64.0092C6.99024 51.3066 17.2877 41.0071 29.9902 41.0046C42.6928 41.0021 52.9902 51.2975 52.9902 64C52.9902 76.7025 42.6928 87.0021 29.9902 87.0046C17.2877 87.0071 6.99023 76.7117 6.99024 64.0092Z" fill="url(#paint0_linear)"/>
<path d="M50.9875 64.8161C50.8188 76.1403 41.4979 85.166 30.1737 84.9973C18.8495 84.8286 9.82386 75.5077 9.99256 64.1835C10.1613 52.8593 19.4821 43.8336 30.8064 44.0023C42.1095 44.171 51.1562 53.4919 50.9875 64.8161Z" fill="url(#paint1_radial)"/>
<path d="M15.5486 57.7095C16.8982 57.098 18.3111 56.4864 19.5342 55.6429C20.1458 55.2211 20.7151 54.7783 20.9471 54.0402C21.7274 51.5518 19.3444 51.1933 17.6363 51.8682C16.1812 52.4586 14.2201 54.1457 12.3221 54.9259C11.4786 56.5075 10.846 58.1945 10.4453 59.987C12.3854 59.017 14.3888 58.2367 15.5486 57.7095Z" fill="#13479E"/>
<path d="M16.6029 63.2558C15.5274 63.6987 12.6805 64.7742 10.0234 66.187C10.15 67.5999 10.403 68.9917 10.8037 70.2992C14.3254 67.6843 20.6096 67.3469 24.3632 66.3558C30.0148 64.8585 35.582 60.0926 36.8473 54.2302C37.5432 51.0037 37.248 47.229 35.4133 44.6141C33.9372 44.2556 32.3766 44.0236 30.7951 44.0025C25.3544 43.9182 20.4198 45.9426 16.6872 49.3167C18.796 48.5786 20.8837 47.714 23.0347 47.1025C24.7006 46.6385 26.936 46.027 28.5808 46.9127C30.2889 47.8405 30.6474 49.8861 30.542 51.6785C30.1202 59.1859 22.4442 60.8729 16.6029 63.2558Z" fill="#13479E"/>
<path d="M47.3064 63.2558C45.6615 64.4578 43.3419 64.7741 42.8779 62.2436C42.3929 59.5022 44.818 56.592 45.5772 54.1036C45.8302 53.2812 46.0411 52.3533 46.1676 51.3833C44.6282 49.5487 42.7936 47.9881 40.7269 46.7861C42.4562 50.4765 43.8901 54.1036 42.2453 58.4478C40.3685 63.4245 36.3196 67.4945 31.4904 69.6665C26.113 72.0706 20.1662 72.4291 14.7255 74.6222C14.1772 74.8331 13.6289 75.0861 13.0596 75.3603C14.6623 77.933 16.8132 80.1051 19.3649 81.7499C19.7234 78.9874 21.4104 76.4569 24.4049 75.9297C28.8966 75.1494 30.9421 79.367 34.6747 80.7799C36.9944 81.6445 40.1576 81.6445 42.9201 80.7799C44.101 79.8731 45.1765 78.8398 46.1255 77.701C44.4384 77.8698 42.6881 77.7432 41.3596 77.5534C38.9134 77.1949 34.274 76.014 34.4217 72.7032C34.5904 68.2958 41.4018 68.2747 44.5228 67.9795C46.02 67.8319 48.5717 67.2836 50.8702 66.3136C50.9124 65.8285 50.9546 65.3224 50.9546 64.8163C50.9757 62.9184 50.7437 61.0627 50.3009 59.3124C49.6471 60.8307 48.7404 62.2014 47.3064 63.2558Z" fill="#081263"/>
<path d="M28.3699 80.6325C25.6706 79.6203 23.7938 81.3917 23.1611 83.6481C25.3332 84.4705 27.674 84.9556 30.1202 84.9977C31.6385 85.0188 33.1357 84.8712 34.5697 84.576C32.5453 83.3318 30.6263 81.4761 28.3699 80.6325Z" fill="#030546"/>
<path fill-rule="evenodd" clip-rule="evenodd" d="M49.9036 64.5014C49.9036 75.2218 41.2126 83.9153 30.4902 83.9174C19.7679 83.9196 11.0769 75.2295 11.0769 64.5092C11.0769 53.7888 19.7679 45.0953 30.4902 45.0931C41.2126 45.091 49.9036 53.781 49.9036 64.5014ZM30.4902 91.0053C45.1251 91.0024 56.9902 79.1362 56.9902 64.5C56.9902 49.8638 45.1251 38.0024 30.4902 38.0053C15.8554 38.0082 3.99024 49.8744 3.99024 64.5106C3.99023 79.1468 15.8554 91.0082 30.4902 91.0053Z" fill="black"/>
<path d="M121.99 64.0092C121.99 51.3066 111.693 41.0071 98.9902 41.0046C86.2877 41.0021 75.9902 51.2975 75.9902 64C75.9902 76.7025 86.2877 87.0021 98.9902 87.0046C111.693 87.0071 121.99 76.7117 121.99 64.0092Z" fill="url(#paint2_linear)"/>
<path d="M98.49 43.9902C109.817 43.9902 119 53.1726 119 64.4997C119 75.8268 109.817 85.0093 98.49 85.0093C87.1629 85.0093 77.9805 75.8268 77.9805 64.4997C77.9805 53.1726 87.1629 43.9902 98.49 43.9902Z" fill="url(#paint3_radial)"/>
<path opacity="0.4" d="M81.9896 70.4078C83.0657 71.1463 84.4161 72.2224 84.3528 73.6784C84.3106 75.0077 83.6354 76.7379 82.496 77.3076C80.5548 74.9022 79.1621 72.0747 78.4658 68.9519C79.7529 69.184 81.1245 69.817 81.9896 70.4078Z" fill="white"/>
<path opacity="0.4" d="M96.7178 80.0508C97.3086 80.8315 98.5957 82.9837 99.2287 84.9672C98.9755 84.9883 98.7223 84.9883 98.4691 84.9883C94.861 84.9883 91.4427 84.0388 88.5098 82.3929C89.2905 78.8692 93.9959 76.4637 96.7178 80.0508Z" fill="white"/>
<path opacity="0.4" d="M104.842 77.3075C105.749 75.1342 107.458 74.248 109.695 73.8893C110.982 73.6994 114.21 73.5939 116.468 74.3113C114.442 78.0039 111.341 80.979 107.564 82.8569C105.327 81.9918 103.702 80.0295 104.842 77.3075Z" fill="white"/>
<path opacity="0.4" d="M95.3889 72.8977C93.3211 72.7078 91.1477 71.8426 90.5569 69.8592C89.7973 67.3272 91.211 64.8584 93.8697 64.4153C96.4439 63.9933 99.2925 65.0272 100.158 67.707C101.191 70.9564 98.5751 73.2142 95.3889 72.8977Z" fill="white"/>
<path opacity="0.4" d="M109.779 64.0356C107.648 59.478 113.451 57.4734 117.607 57.1147C118.494 59.3936 118.979 61.8834 118.979 64.4576C118.979 65.3228 118.916 66.1668 118.81 67.0108C115.729 67.7282 110.771 66.1457 109.779 64.0356Z" fill="white"/>
<path opacity="0.4" d="M110.433 49.7928C109.885 50.9956 108.619 52.1983 107.543 50.6158C106.635 49.2653 107.817 47.6406 109.294 47.0709C109.864 47.4296 110.433 47.8094 110.982 48.2314C110.834 48.7589 110.666 49.2864 110.433 49.7928Z" fill="white"/>
<path opacity="0.4" d="M98.5956 47.577C99.2919 50.8054 98.9332 55.0676 95.8104 56.9667C92.0123 59.2666 87.0959 57.7896 85.4501 53.6328C84.8593 52.1558 84.6905 50.5944 84.9015 49.1173C88.1931 46.2055 92.4343 44.3276 97.1186 44.0111C97.8571 45.1505 98.3635 46.5009 98.5956 47.577Z" fill="white"/>
<path opacity="0.4" d="M82.2642 61.1662C81.9899 63.0864 79.7533 63.8038 78.002 63.3185C78.1286 61.1029 78.6139 58.9718 79.3735 57.0095C80.9349 58.0223 82.433 60.0057 82.2642 61.1662Z" fill="white"/>
<path opacity="0.4" d="M103.597 60.934C102.795 61.1872 101.761 61.4826 101.107 60.7019C100.431 59.9212 99.9673 58.6341 100.431 57.6424C101.064 56.2709 103.259 55.891 104.251 57.0938C105.2 58.2754 105.263 60.3643 103.597 60.934Z" fill="white"/>
<path fill-rule="evenodd" clip-rule="evenodd" d="M117.904 64.5014C117.904 75.2218 109.213 83.9153 98.4902 83.9174C87.7679 83.9196 79.0769 75.2295 79.0769 64.5092C79.0769 53.7888 87.7679 45.0953 98.4902 45.0931C109.213 45.091 117.904 53.781 117.904 64.5014ZM98.4902 91.0053C113.125 91.0024 124.99 79.1362 124.99 64.5C124.99 49.8638 113.125 38.0024 98.4902 38.0053C83.8554 38.0082 71.9902 49.8744 71.9902 64.5106C71.9902 79.1468 83.8554 91.0082 98.4902 91.0053Z" fill="black"/>
<defs>
<linearGradient id="paint0_linear" x1="50.2785" y1="55.2021" x2="12.4473" y2="73.6992" gradientUnits="userSpaceOnUse">
<stop stop-color="#F2D254"/>
<stop offset="0.526042" stop-color="#C2368C"/>
<stop offset="1" stop-color="#693E8E"/>
</linearGradient>
<radialGradient id="paint1_radial" cx="0" cy="0" r="1" gradientUnits="userSpaceOnUse" gradientTransform="translate(12.0411 44.2505) rotate(0.870916) scale(47.4066)">
<stop offset="0.5112" stop-color="#4687C9"/>
<stop offset="0.6095" stop-color="#3963B3"/>
<stop offset="0.7098" stop-color="#2F46A0"/>
<stop offset="0.8094" stop-color="#283193"/>
<stop offset="0.9069" stop-color="#23248C"/>
<stop offset="1" stop-color="#222089"/>
</radialGradient>
<linearGradient id="paint2_linear" x1="78.7019" y1="55.2021" x2="116.533" y2="73.6992" gradientUnits="userSpaceOnUse">
<stop stop-color="#F2D254"/>
<stop offset="0.526042" stop-color="#C2368C"/>
<stop offset="1" stop-color="#693E8E"/>
</linearGradient>
<radialGradient id="paint3_radial" cx="0" cy="0" r="1" gradientUnits="userSpaceOnUse" gradientTransform="translate(79.7244 84.4781) scale(47.4354)">
<stop offset="0.2326" stop-color="#C30F8F"/>
<stop offset="0.387" stop-color="#D71D86"/>
<stop offset="0.5968" stop-color="#EC2C7D"/>
<stop offset="0.8031" stop-color="#F93578"/>
<stop offset="1" stop-color="#FD3876"/>
</radialGradient>
</defs>
</svg>
