<svg width="128" height="129" viewBox="0 0 128 129" fill="none" xmlns="http://www.w3.org/2000/svg">
<path d="M116.892 65.7781C116.892 55.622 108.659 47.3872 98.5026 47.3851C88.3465 47.3831 80.1133 55.6147 80.1133 65.7708C80.1133 75.927 88.3465 84.1618 98.5026 84.1638C108.659 84.1659 116.892 75.9343 116.892 65.7781Z" fill="#676767"/>
<path d="M116.888 65.7781C116.888 55.622 108.655 47.3872 98.4987 47.3851C88.3426 47.3831 80.1094 55.6147 80.1094 65.7708C80.1094 75.927 88.3426 84.1618 98.4987 84.1638C108.655 84.1659 116.888 75.9343 116.888 65.7781Z" fill="#676767"/>
<path d="M88.8764 81.7992C79.8727 76.6009 76.7878 65.088 81.9861 56.0844C87.1843 47.0807 98.6973 43.9958 107.701 49.1941C116.705 54.3924 119.789 65.9053 114.591 74.9089C109.393 83.9125 97.88 86.9974 88.8764 81.7992Z" fill="url(#paint0_linear_1762_283)"/>
<path d="M114.57 74.8974C109.647 83.4238 99.0579 86.6375 90.3086 82.5375C94.5244 76.7989 104.923 58.8865 110.32 51.0322C117.238 56.7828 119.221 66.8407 114.57 74.8974Z" fill="#FFD100"/>
<path d="M95.3144 49.6957L116.518 63.3524L91.9494 50.7211C91.5573 50.8932 91.1669 51.0906 90.7825 51.2916L112.414 65.2201L88.3664 52.8566C88.042 53.1085 87.736 53.371 87.4326 53.643L108.311 67.0878L85.7019 55.4575C85.4165 55.7969 85.1337 56.1459 84.8727 56.4994L104.208 68.9554L83.6335 58.3781C83.3703 58.8198 83.1342 59.2852 82.9015 59.7445L100.095 70.8257L82.0671 61.5559C81.8278 62.1253 81.6034 62.7113 81.3946 63.2982L95.9877 72.6994L80.865 64.9198C80.4465 66.3208 80.0995 67.7387 79.8179 69.17C78.9515 64.8396 79.5897 60.1988 81.9701 56.0759C85.8505 49.3548 93.2461 45.94 100.486 46.7942C96.6285 48.2507 96.5194 48.4397 95.3144 49.6957Z" fill="#8B1700"/>
<path fill-rule="evenodd" clip-rule="evenodd" d="M80.8641 65.7726C80.8641 75.5249 88.7661 83.4208 98.5 83.4222C108.234 83.4236 116.136 75.5301 116.136 65.7778C116.136 56.0255 108.234 48.1297 98.5 48.1283C88.7661 48.1269 80.8641 56.0203 80.8641 65.7726ZM98.5 91.2752C84.4106 91.2732 73 79.8486 73 65.7715C73 51.6944 84.4106 40.2732 98.5 40.2752C112.589 40.2773 124 51.7019 124 65.779C124 79.8561 112.589 91.2773 98.5 91.2752Z" fill="black"/>
<path d="M11.108 65.7781C11.108 55.622 19.3412 47.3872 29.4974 47.3851C39.6535 47.3831 47.8867 55.6147 47.8867 65.7708C47.8867 75.927 39.6535 84.1618 29.4974 84.1638C19.3412 84.1659 11.108 75.9343 11.108 65.7781Z" fill="#676767"/>
<path d="M11.0416 65.7781C11.0416 55.622 19.2748 47.3872 29.431 47.3851C39.5871 47.3831 47.8203 55.6147 47.8203 65.7708C47.8203 75.927 39.5871 84.1618 29.431 84.1638C19.2748 84.1659 11.0416 75.9343 11.0416 65.7781Z" fill="#676767"/>
<path d="M39.1267 81.2289C48.1303 76.0306 51.2152 64.5177 46.0169 55.514C40.8187 46.5104 29.3058 43.4255 20.3021 48.6238C11.2985 53.822 8.21362 65.3349 13.4119 74.3386C18.6101 83.3422 30.123 86.4271 39.1267 81.2289Z" fill="url(#paint1_linear_1762_283)"/>
<path d="M13.4307 74.3271C18.3534 82.8534 28.9425 86.0671 37.6918 81.9672C33.476 76.2286 23.0773 58.3162 17.6807 50.4619C10.7626 56.2125 8.77911 66.2704 13.4307 74.3271Z" fill="#FFD100"/>
<path d="M32.6838 49.1254L11.4805 62.7821L36.0488 50.1508C36.4409 50.3229 36.8314 50.5203 37.2157 50.7213L15.5839 64.6498L39.6319 52.2863C39.9562 52.5382 40.2622 52.8006 40.5657 53.0727L19.6872 66.5174L42.2963 54.8872C42.5817 55.2266 42.8646 55.5756 43.1256 55.9291L23.7906 68.3851L44.3647 57.8077C44.6279 58.2495 44.8641 58.7149 45.0967 59.1742L27.9036 70.2553L45.9311 60.9856C46.1704 61.555 46.3949 62.141 46.6036 62.7279L32.0105 72.1291L47.1332 64.3495C47.5518 65.7505 47.8988 67.1684 48.1803 68.5997C49.0467 64.2693 48.4085 59.6285 46.0281 55.5056C42.1477 48.7845 34.7522 45.3697 27.5118 46.2239C31.3697 47.6804 31.4788 47.8694 32.6838 49.1254Z" fill="#8B1700"/>
<path fill-rule="evenodd" clip-rule="evenodd" d="M47.1359 65.7726C47.1359 75.5249 39.2339 83.4208 29.5 83.4222C19.7661 83.4236 11.8641 75.5301 11.8641 65.7778C11.8641 56.0255 19.7661 48.1297 29.5 48.1283C39.2339 48.1269 47.1359 56.0203 47.1359 65.7726ZM29.5 91.2752C43.5894 91.2732 55 79.8486 55 65.7715C55 51.6944 43.5894 40.2732 29.5 40.2752C15.4106 40.2773 4 51.7019 4 65.779C4 79.8561 15.4106 91.2773 29.5 91.2752Z" fill="black"/>
<defs>
<linearGradient id="paint0_linear_1762_283" x1="114.592" y1="74.9082" x2="81.9886" y2="56.0846" gradientUnits="userSpaceOnUse">
<stop stop-color="#E19A0B"/>
<stop offset="1" stop-color="#E30038"/>
</linearGradient>
<linearGradient id="paint1_linear_1762_283" x1="13.4118" y1="74.3379" x2="46.0153" y2="55.5142" gradientUnits="userSpaceOnUse">
<stop stop-color="#E19A0B"/>
<stop offset="1" stop-color="#E30038"/>
</linearGradient>
</defs>
</svg>
