<svg width="128" height="128" viewBox="0 0 128 128" fill="none" xmlns="http://www.w3.org/2000/svg">
<path d="M32 46.5022C32 63.8992 46.103 78.0017 63.5 78.0011C80.897 78.0005 95 63.897 95 46.5C95 29.103 80.897 15.0005 63.5 15.0011C46.103 15.0017 32 29.1052 32 46.5022Z" fill="#FFDE52"/>
<path fill-rule="evenodd" clip-rule="evenodd" d="M64 12.0012C82.7777 12.0005 98 27.2223 98 46C98 64.7777 82.7777 80.0005 64 80.0012C45.2223 80.0018 30 64.7801 30 46.0024C30 27.2247 45.2223 12.0018 64 12.0012ZM92.8097 46.0002C92.8097 30.089 79.9112 17.1909 64 17.1915C48.0888 17.192 35.1903 30.091 35.1903 46.0022C35.1903 61.9134 48.0888 74.8115 64 74.8109C79.9112 74.8104 92.8097 61.9114 92.8097 46.0002Z" fill="black"/>
<path d="M63 29C85.6437 29 104 47.3683 104 70C104 92.6317 85.6437 111 63 111C40.3563 111 22 92.6317 22 70C22 47.3683 40.3563 29 63 29Z" fill="#FF9100"/>
<path d="M100.988 61.8782L95.2228 61.8782L95.2228 50.3352L89.4576 50.3352L89.4583 44.5697L83.6828 44.5697L83.6827 38.8043L72.1518 38.7755L72.1518 38.8043L72.1425 38.7755L72.1425 38.7975L72.1418 38.8062L72.1425 38.7755L72.1518 38.7755L72.1518 33.0307L72.1418 33L72.1418 33.0323L54.8464 33.0634L54.8464 38.8285L43.3054 38.8285L43.3053 44.594L37.5402 44.594L37.5402 50.3349L31.7654 50.3675L31.7654 61.9065L26.0002 61.9065L26.0002 79.2228L31.7654 79.2228L31.7654 90.7658L37.5402 90.7662L37.5402 96.5417L43.3054 96.499L43.3054 102.297L54.8467 102.305L54.8467 108.07L72.1418 108.07L72.1418 108.038L72.1518 108.038L72.1518 102.275L83.6827 102.275L83.6827 96.499L89.4583 96.499L89.4576 90.7335L95.2228 90.7335L95.2228 79.215L100.988 79.1945L100.988 61.8782Z" fill="#FFCE00"/>
<path d="M77.9185 84.972L77.9185 79.1965L49.0817 79.2248L49.0817 85.0003L37.541 85.0003L37.541 61.9082L43.3062 61.9082L43.3062 67.6736L72.1427 67.6453L72.1427 61.8799L83.6836 61.8799L83.6836 84.972L77.9185 84.972Z" fill="#FFDE52"/>
<path d="M49.0826 56.1345L49.0825 61.908L72.1535 61.8797L72.1535 67.6448L72.1535 67.6732L43.3071 67.6731L43.3071 61.91L37.5418 61.91L37.5418 56.1345L49.0826 56.1345Z" fill="white"/>
<path d="M89.46 84.9718L83.6845 84.9718L83.6845 61.8797L77.9193 61.8794L77.9193 56.1143L89.46 56.1143L89.46 84.9718Z" fill="white"/>
<path d="M89.459 61.879L95.2241 61.879L95.2241 79.1953L89.459 79.1953L89.459 61.879Z" fill="#EF9F00"/>
<path d="M37.5423 79.2236L37.5423 61.9073L31.7667 61.9073L31.7667 79.2235L37.5423 79.2236Z" fill="#EF9F00"/>
<path d="M49.0826 56.1337L49.0826 61.9092L77.919 61.9398L77.9186 56.1114L89.459 56.1337L89.459 50.3683L72.1432 50.3359L72.1432 56.1114L54.8477 56.1337L54.8477 50.3683L37.5416 50.3359L37.5423 56.1114L49.0826 56.1337Z" fill="#EF9F00"/>
<path d="M89.4597 90.7343L89.4597 84.9691L77.919 85.0015L77.9186 79.1956L49.0826 79.1952L49.0826 84.9994L37.5416 84.9691L37.5422 90.7666L54.8477 90.7343L54.8477 84.9691L72.1432 85.0015L72.1432 90.7343L89.4597 90.7343Z" fill="#EF9F00"/>
<path d="M22 102.495C22 109.399 27.5964 114.996 34.5 114.998C41.4036 114.999 47 109.404 47 102.5C47 95.5964 41.4036 89.9989 34.5 89.9975C27.5964 89.9961 22 95.5914 22 102.495Z" fill="#FFDE52"/>
<path fill-rule="evenodd" clip-rule="evenodd" d="M34.5 87.997C42.5081 87.9987 49 94.4919 49 102.5C49 110.508 42.5081 116.999 34.5 116.997C26.4919 116.995 20 110.502 20 102.494C20 94.4859 26.4919 87.9954 34.5 87.997ZM44.5694 102.499C44.5694 96.9379 40.0612 92.4287 34.5 92.4276C28.9388 92.4265 24.4306 96.9338 24.4306 102.495C24.4306 108.056 28.9388 112.565 34.5 112.566C40.0612 112.568 44.5694 108.06 44.5694 102.499Z" fill="black"/>
<path d="M80 102.495C80 109.399 85.5964 114.996 92.5 114.998C99.4036 114.999 105 109.404 105 102.5C105 95.5964 99.4036 89.9989 92.5 89.9975C85.5964 89.9961 80 95.5914 80 102.495Z" fill="#FFDE52"/>
<path fill-rule="evenodd" clip-rule="evenodd" d="M92.5 87.997C100.508 87.9987 107 94.4919 107 102.5C107 110.508 100.508 116.999 92.5 116.997C84.4919 116.995 78 110.502 78 102.494C78 94.4859 84.4919 87.9954 92.5 87.997ZM102.569 102.499C102.569 96.9379 98.0612 92.4287 92.5 92.4276C86.9388 92.4265 82.4306 96.9338 82.4306 102.495C82.4306 108.056 86.9388 112.565 92.5 112.566C98.0612 112.568 102.569 108.06 102.569 102.499Z" fill="black"/>
</svg>
