<svg width="128" height="129" viewBox="0 0 128 129" fill="none" xmlns="http://www.w3.org/2000/svg">
<path d="M32 47.4563C32 64.8533 46.103 78.9558 63.5 78.9552C80.897 78.9546 95 64.8511 95 47.4541C95 30.0571 80.897 15.9546 63.5 15.9552C46.103 15.9558 32 30.0593 32 47.4563Z" fill="#210A45"/>
<path fill-rule="evenodd" clip-rule="evenodd" d="M64 12.9553C82.7777 12.9546 98 28.1764 98 46.9541C98 65.7318 82.7777 80.9546 64 80.9553C45.2223 80.9559 30 65.7342 30 46.9565C30 28.1788 45.2223 12.9559 64 12.9553ZM92.8097 46.9543C92.8097 31.0431 79.9112 18.145 64 18.1456C48.0888 18.1461 35.1903 31.0451 35.1903 46.9563C35.1903 62.8675 48.0888 75.7656 64 75.765C79.9112 75.7645 92.8097 62.8655 92.8097 46.9543Z" fill="black"/>
<path d="M63.25 29.9814C85.8937 29.9814 104.25 48.3498 104.25 70.9814C104.25 93.6131 85.8937 111.981 63.25 111.981C40.6063 111.981 22.25 93.6131 22.25 70.9814C22.25 48.3498 40.6063 29.9814 63.25 29.9814Z" fill="url(#paint0_radial_1753_287)"/>
<mask id="path-4-outside-1_1753_287" maskUnits="userSpaceOnUse" x="22.25" y="29.9814" width="43" height="82" fill="black">
<rect fill="white" x="22.25" y="29.9814" width="43" height="82"/>
<path fill-rule="evenodd" clip-rule="evenodd" d="M57.8287 110.981L64.2127 99.9223L64.25 99.8581L64.25 32.5518L63.3435 30.9814C63.1575 30.9815 62.9719 30.9828 62.7866 30.9854L62.9346 31.2419L62.9346 36.7752L61.799 35.1812L61.799 31.0108C61.6417 31.0168 61.4846 31.0236 61.3277 31.0313L61.3277 34.5214L60.2666 33.0345L60.2666 31.0975C60.11 31.1093 59.9536 31.122 59.7975 31.1356L59.7975 32.3727L58.9727 31.2158C58.7881 31.2357 58.6038 31.2568 58.4199 31.2791L59.7997 33.2135L59.7997 39.7024L59.7975 39.7024L58.298 38.0656L58.3044 31.2933C58.1468 31.3129 57.9894 31.3334 57.8324 31.3548L57.8266 37.5518L56.2219 35.8021L56.2219 31.6075C56.0645 31.6355 55.9073 31.6644 55.7505 31.6941L55.7505 35.2902L53.9331 33.3089L53.9331 32.083C53.7764 32.1203 53.62 32.1585 53.464 32.1977L53.464 32.797L53.0193 32.312C52.8405 32.359 52.6623 32.4072 52.4845 32.4566L53.464 33.5249L53.464 42.4934L50.7302 40.3291L50.7302 32.9876C50.5727 33.0392 50.4156 33.0918 50.2589 33.1453L50.2589 39.9555L46.8696 37.2715L46.8696 34.477C46.712 34.5474 46.5549 34.6187 46.3983 34.691L46.3983 36.8998L44.677 35.5361C44.5156 35.6201 44.3548 35.7053 44.1947 35.7914L46.3983 37.5362L46.3983 48.0247L42.222 46.0337L42.222 36.9259C42.0642 37.0227 41.907 37.1205 41.7507 37.2194L41.7507 45.8099L35.6254 42.8904L35.6254 41.9699C35.4671 42.1191 35.31 42.2694 35.1541 42.421L35.1541 42.6666L34.9853 42.5862C34.8567 42.7127 34.7291 42.84 34.6022 42.9682L35.1541 43.231L35.1541 57.9605L26.8519 56.6915L26.8519 53.9991C26.6909 54.3377 26.5345 54.679 26.3828 55.0227L26.3828 56.6195L25.7565 56.5238C25.6919 56.6881 25.6283 56.8528 25.5658 57.0181L26.3828 57.1431L26.3828 75.2688L23.25 75.7473C23.2696 75.919 23.2902 76.0904 23.312 76.2614L26.3828 75.7923L26.3828 87.3141C26.5345 87.6578 26.6909 87.999 26.8519 88.3376L26.8519 75.7184L35.1541 74.4513L35.1541 89.1808L28.9252 92.1495C29.0143 92.2942 29.1044 92.4383 29.1954 92.5818L35.1541 89.7433L35.1541 99.9157C35.31 100.067 35.4671 100.218 35.6254 100.367L35.6254 89.5214L41.7507 86.6L41.7507 98.5541L37.4347 101.972C37.5656 102.081 37.6973 102.19 37.8296 102.297L41.7507 99.1925L41.7507 105.117C41.907 105.216 42.0642 105.314 42.222 105.411L42.222 98.8207L46.3983 95.512L46.3983 106.59L45.7232 107.326C45.8779 107.401 46.0332 107.475 46.189 107.548L46.3983 107.32L46.3983 107.646C46.5549 107.718 46.712 107.789 46.8696 107.86L46.8696 106.806L50.2589 103.11L50.2589 109.191C50.4156 109.245 50.5727 109.298 50.7302 109.349L50.7302 102.597L53.464 99.6148L53.464 108.081L52.2325 109.809C52.3987 109.857 52.5653 109.903 52.7323 109.948L53.464 108.922L53.464 110.139C53.62 110.178 53.7764 110.216 53.9331 110.254L53.9331 108.26L55.7505 105.713L55.7505 110.643C55.9066 110.672 56.063 110.701 56.2197 110.729L56.2197 105.053L56.2219 105.053L57.7609 102.894L57.7521 110.144L57.3115 110.908C57.4835 110.933 57.6559 110.958 57.8287 110.981ZM61.799 103.138L61.799 97.2306L62.9346 95.6386L62.9346 101.172L61.799 103.138ZM55.7505 70.7806L53.9331 71.059L53.9331 61.3529L55.7505 61.6312L55.7505 70.7806ZM56.2219 61.7032L57.8025 61.9445L57.7937 70.4692L56.2219 70.7106L56.2219 61.7032ZM53.9331 71.5806L55.7505 71.3042L55.7505 79.3657L53.9331 80.2318L53.9331 71.5806ZM53.464 80.4556L50.7302 81.7596L50.7302 72.073L53.464 71.6545L53.464 80.4556ZM53.9331 60.8293L53.9331 52.18L55.7505 53.0461L55.7505 61.1076L53.9331 60.8293ZM53.464 60.7573L50.7302 60.3389L50.7302 50.6522L53.464 51.9543L53.464 60.7573ZM53.464 61.2808L53.464 71.131L50.7302 71.5494L50.7302 60.8644L53.464 61.2808ZM50.2589 71.6195L46.8696 72.1372L46.8696 60.2727L50.2589 60.7904L50.2589 71.6195ZM50.2589 72.143L50.2589 81.9815L46.8696 83.5969L46.8696 72.6608L50.2589 72.143ZM50.2589 82.5459L50.2589 91.8161L46.8696 94.5L46.8696 84.1613L50.2589 82.5459ZM50.7302 82.3221L53.464 81.0181L53.464 89.2781L50.7302 91.4443L50.7302 82.3221ZM53.9331 80.7962L55.7505 79.9301L55.7505 87.47L53.9331 88.9083L53.9331 80.7962ZM56.2219 79.7044L57.785 78.9609L57.7784 85.8643L56.2219 87.0963L56.2219 79.7044ZM56.2219 79.1399L56.2219 71.2322L57.7916 70.9928L57.785 78.3964L56.2219 79.1399ZM58.2629 70.9188L59.7975 70.6853L59.7975 77.4369L58.2563 78.1707L58.2629 70.9188ZM58.2651 70.3972L58.2738 62.0146L59.7975 62.2482L59.7975 70.1617L58.2651 70.3972ZM58.2717 61.493L58.2782 54.2509L59.7953 54.973L59.7953 61.7246L58.2717 61.493ZM57.8025 61.421L56.2219 61.1797L56.2219 53.2719L57.8113 54.029L57.8025 61.421ZM56.2219 52.7055L56.2219 45.3136L57.8179 46.5767L57.8113 53.4626L56.2219 52.7055ZM55.7505 52.4817L53.9331 51.6156L53.9331 43.5035L55.7505 44.9418L55.7505 52.4817ZM53.464 51.3918L50.7302 50.0897L50.7302 40.9675L53.464 43.1337L53.464 51.3918ZM50.2589 49.864L46.8696 48.2486L46.8696 37.908L50.2589 40.5919L50.2589 49.864ZM50.2589 50.4284L50.2589 60.2668L46.8696 59.7491L46.8696 48.813L50.2589 50.4284ZM46.3983 59.6771L42.222 59.0387L42.222 46.5981L46.3983 48.5892L46.3983 59.6771ZM46.3983 60.2007L46.3983 72.2092L42.222 72.8476L42.222 59.5623L46.3983 60.2007ZM46.3983 72.7328L46.3983 83.8207L42.222 85.8118L42.222 73.3712L46.3983 72.7328ZM46.3983 84.3852L46.3983 94.8737L42.222 98.1823L42.222 86.3781L46.3983 84.3852ZM46.8696 95.1403L50.2589 92.4564L50.2589 102.382L46.8696 106.078L46.8696 95.1403ZM50.7302 92.0827L53.464 89.9184L53.464 98.8869L50.7302 101.869L50.7302 92.0827ZM53.9331 89.5448L55.7505 88.1064L55.7505 96.3918L53.9331 98.3731L53.9331 89.5448ZM56.2219 87.7347L57.7762 86.5027L57.7696 94.1905L56.2219 95.8779L56.2219 87.7347ZM58.2475 86.129L59.7953 84.9029L59.7953 91.9796L58.2388 93.6767L58.2475 86.129ZM58.2475 85.4906L58.2563 78.7351L59.7975 78.0014L59.7975 84.2645L58.2475 85.4906ZM60.2666 77.7775L61.3277 77.2735L61.3277 83.0539L60.2666 83.8927L60.2666 77.7775ZM60.2666 77.2131L60.2666 70.6152L61.3277 70.4537L61.3277 76.709L60.2666 77.2131ZM60.2666 70.0897L60.2666 62.3202L61.3277 62.4817L61.3277 69.9282L60.2666 70.0897ZM60.2666 61.7966L60.2666 55.1968L61.3277 55.7028L61.3277 61.9582L60.2666 61.7966ZM60.2666 54.6343L60.2666 48.5191L61.3277 49.3579L61.3277 55.1403L60.2666 54.6343ZM59.7975 54.4105L58.2804 53.6884L58.287 46.9504L59.7975 48.1454L59.7975 54.4105ZM58.287 46.312L58.2936 38.7916L59.7953 40.4303L59.7953 47.507L58.287 46.312ZM57.8179 45.9403L56.2219 44.6752L56.2219 36.53L57.8266 38.2778L57.8179 45.9403ZM55.7505 44.3054L53.9331 42.8671L53.9331 34.0388L55.7505 36.0181L55.7505 44.3054ZM41.7507 46.3743L41.7507 58.9667L35.6254 58.0306L35.6254 43.4549L41.7507 46.3743ZM41.7507 59.4903L41.7507 72.9196L35.6254 73.8558L35.6254 58.5541L41.7507 59.4903ZM41.7507 73.4432L41.7507 86.0375L35.6254 88.957L35.6254 74.3813L41.7507 73.4432ZM53.9331 99.1029L55.7505 97.1216L55.7505 104.874L53.9331 107.421L53.9331 99.1029ZM56.2219 96.6078L57.7696 94.9204L57.763 102.052L56.2219 104.212L56.2219 96.6078ZM58.241 94.4085L59.7975 92.7113L59.7975 99.2002L58.2344 101.394L58.241 94.4085ZM60.2666 92.1975L61.3277 91.0414L61.3277 97.0516L60.2666 98.5405L60.2666 92.1975ZM60.2666 91.4677L60.2666 84.5311L61.3277 83.6923L61.3277 90.3116L60.2666 91.4677ZM61.799 83.3186L62.9346 82.4194L62.9346 88.5599L61.799 89.7978L61.799 83.3186ZM61.799 82.6802L61.799 77.0477L62.9346 76.5066L62.9346 81.781L61.799 82.6802ZM61.799 76.4833L61.799 70.3797L62.9346 70.2065L62.9346 75.9422L61.799 76.4833ZM61.799 69.8562L61.799 62.5537L62.9346 62.7269L62.9346 69.681L61.799 69.8562ZM61.799 62.0321L61.799 55.9286L62.9346 56.4696L62.9346 62.2053L61.799 62.0321ZM61.799 55.3642L61.799 49.7316L62.9346 50.6308L62.9346 55.9052L61.799 55.3642ZM61.799 49.0932L61.799 42.6141L62.9346 43.8519L62.9346 49.9924L61.799 49.0932ZM61.3277 48.7196L60.2666 47.8807L60.2666 40.9442L61.3277 42.1022L61.3277 48.7196ZM60.2666 40.2143L60.2666 33.8733L61.3277 35.3603L61.3277 41.3704L60.2666 40.2143ZM35.1541 58.4821L35.1541 73.9278L26.8519 75.1968L26.8519 57.2151L35.1541 58.4821ZM58.2322 102.233L59.7975 100.037L59.7975 106.604L58.2256 109.327L58.2322 102.233ZM60.2666 99.3773L61.3277 97.8904L61.3277 103.953L60.2666 105.79L60.2666 99.3773ZM61.799 96.3918L61.799 90.5276L62.9346 89.2898L62.9346 94.7997L61.799 96.3918ZM63.406 88.776L63.7787 88.3692L63.7787 93.6144L63.406 94.138L63.406 88.776ZM63.406 88.0461L63.406 82.0457L63.7787 81.7499L63.7787 87.6393L63.406 88.0461ZM63.406 81.4093L63.406 76.2828L63.7787 76.1057L63.7787 81.1135L63.406 81.4093ZM63.406 75.7164L63.406 70.1325L63.7787 70.0761L63.7787 75.5393L63.406 75.7164ZM63.406 69.6109L63.406 62.8009L63.7787 62.8573L63.7787 69.5545L63.406 69.6109ZM63.406 62.2773L63.406 56.6935L63.7787 56.8706L63.7787 62.3318L63.406 62.2773ZM63.406 56.1291L63.406 51.0025L63.7787 51.2984L63.7787 56.3081L63.406 56.1291ZM63.406 50.3642L63.406 44.3657L63.7787 44.7725L63.7787 50.6619L63.406 50.3642ZM63.406 43.6359L63.406 38.2739L63.7787 38.7974L63.7787 44.0426L63.406 43.6359ZM62.9346 43.122L61.799 41.8842L61.799 36.0201L62.9346 37.6141L62.9346 43.122ZM63.406 100.354L63.406 94.9768L63.7787 94.4533L63.7787 99.7082L63.406 100.354ZM63.7787 32.7036L63.7787 37.9605L63.406 37.437L63.406 32.0574L63.7787 32.7036Z"/>
</mask>
<path fill-rule="evenodd" clip-rule="evenodd" d="M57.8287 110.981L64.2127 99.9223L64.25 99.8581L64.25 32.5518L63.3435 30.9814C63.1575 30.9815 62.9719 30.9828 62.7866 30.9854L62.9346 31.2419L62.9346 36.7752L61.799 35.1812L61.799 31.0108C61.6417 31.0168 61.4846 31.0236 61.3277 31.0313L61.3277 34.5214L60.2666 33.0345L60.2666 31.0975C60.11 31.1093 59.9536 31.122 59.7975 31.1356L59.7975 32.3727L58.9727 31.2158C58.7881 31.2357 58.6038 31.2568 58.4199 31.2791L59.7997 33.2135L59.7997 39.7024L59.7975 39.7024L58.298 38.0656L58.3044 31.2933C58.1468 31.3129 57.9894 31.3334 57.8324 31.3548L57.8266 37.5518L56.2219 35.8021L56.2219 31.6075C56.0645 31.6355 55.9073 31.6644 55.7505 31.6941L55.7505 35.2902L53.9331 33.3089L53.9331 32.083C53.7764 32.1203 53.62 32.1585 53.464 32.1977L53.464 32.797L53.0193 32.312C52.8405 32.359 52.6623 32.4072 52.4845 32.4566L53.464 33.5249L53.464 42.4934L50.7302 40.3291L50.7302 32.9876C50.5727 33.0392 50.4156 33.0918 50.2589 33.1453L50.2589 39.9555L46.8696 37.2715L46.8696 34.477C46.712 34.5474 46.5549 34.6187 46.3983 34.691L46.3983 36.8998L44.677 35.5361C44.5156 35.6201 44.3548 35.7053 44.1947 35.7914L46.3983 37.5362L46.3983 48.0247L42.222 46.0337L42.222 36.9259C42.0642 37.0227 41.907 37.1205 41.7507 37.2194L41.7507 45.8099L35.6254 42.8904L35.6254 41.9699C35.4671 42.1191 35.31 42.2694 35.1541 42.421L35.1541 42.6666L34.9853 42.5862C34.8567 42.7127 34.7291 42.84 34.6022 42.9682L35.1541 43.231L35.1541 57.9605L26.8519 56.6915L26.8519 53.9991C26.6909 54.3377 26.5345 54.679 26.3828 55.0227L26.3828 56.6195L25.7565 56.5238C25.6919 56.6881 25.6283 56.8528 25.5658 57.0181L26.3828 57.1431L26.3828 75.2688L23.25 75.7473C23.2696 75.919 23.2902 76.0904 23.312 76.2614L26.3828 75.7923L26.3828 87.3141C26.5345 87.6578 26.6909 87.999 26.8519 88.3376L26.8519 75.7184L35.1541 74.4513L35.1541 89.1808L28.9252 92.1495C29.0143 92.2942 29.1044 92.4383 29.1954 92.5818L35.1541 89.7433L35.1541 99.9157C35.31 100.067 35.4671 100.218 35.6254 100.367L35.6254 89.5214L41.7507 86.6L41.7507 98.5541L37.4347 101.972C37.5656 102.081 37.6973 102.19 37.8296 102.297L41.7507 99.1925L41.7507 105.117C41.907 105.216 42.0642 105.314 42.222 105.411L42.222 98.8207L46.3983 95.512L46.3983 106.59L45.7232 107.326C45.8779 107.401 46.0332 107.475 46.189 107.548L46.3983 107.32L46.3983 107.646C46.5549 107.718 46.712 107.789 46.8696 107.86L46.8696 106.806L50.2589 103.11L50.2589 109.191C50.4156 109.245 50.5727 109.298 50.7302 109.349L50.7302 102.597L53.464 99.6148L53.464 108.081L52.2325 109.809C52.3987 109.857 52.5653 109.903 52.7323 109.948L53.464 108.922L53.464 110.139C53.62 110.178 53.7764 110.216 53.9331 110.254L53.9331 108.26L55.7505 105.713L55.7505 110.643C55.9066 110.672 56.063 110.701 56.2197 110.729L56.2197 105.053L56.2219 105.053L57.7609 102.894L57.7521 110.144L57.3115 110.908C57.4835 110.933 57.6559 110.958 57.8287 110.981ZM61.799 103.138L61.799 97.2306L62.9346 95.6386L62.9346 101.172L61.799 103.138ZM55.7505 70.7806L53.9331 71.059L53.9331 61.3529L55.7505 61.6312L55.7505 70.7806ZM56.2219 61.7032L57.8025 61.9445L57.7937 70.4692L56.2219 70.7106L56.2219 61.7032ZM53.9331 71.5806L55.7505 71.3042L55.7505 79.3657L53.9331 80.2318L53.9331 71.5806ZM53.464 80.4556L50.7302 81.7596L50.7302 72.073L53.464 71.6545L53.464 80.4556ZM53.9331 60.8293L53.9331 52.18L55.7505 53.0461L55.7505 61.1076L53.9331 60.8293ZM53.464 60.7573L50.7302 60.3389L50.7302 50.6522L53.464 51.9543L53.464 60.7573ZM53.464 61.2808L53.464 71.131L50.7302 71.5494L50.7302 60.8644L53.464 61.2808ZM50.2589 71.6195L46.8696 72.1372L46.8696 60.2727L50.2589 60.7904L50.2589 71.6195ZM50.2589 72.143L50.2589 81.9815L46.8696 83.5969L46.8696 72.6608L50.2589 72.143ZM50.2589 82.5459L50.2589 91.8161L46.8696 94.5L46.8696 84.1613L50.2589 82.5459ZM50.7302 82.3221L53.464 81.0181L53.464 89.2781L50.7302 91.4443L50.7302 82.3221ZM53.9331 80.7962L55.7505 79.9301L55.7505 87.47L53.9331 88.9083L53.9331 80.7962ZM56.2219 79.7044L57.785 78.9609L57.7784 85.8643L56.2219 87.0963L56.2219 79.7044ZM56.2219 79.1399L56.2219 71.2322L57.7916 70.9928L57.785 78.3964L56.2219 79.1399ZM58.2629 70.9188L59.7975 70.6853L59.7975 77.4369L58.2563 78.1707L58.2629 70.9188ZM58.2651 70.3972L58.2738 62.0146L59.7975 62.2482L59.7975 70.1617L58.2651 70.3972ZM58.2717 61.493L58.2782 54.2509L59.7953 54.973L59.7953 61.7246L58.2717 61.493ZM57.8025 61.421L56.2219 61.1797L56.2219 53.2719L57.8113 54.029L57.8025 61.421ZM56.2219 52.7055L56.2219 45.3136L57.8179 46.5767L57.8113 53.4626L56.2219 52.7055ZM55.7505 52.4817L53.9331 51.6156L53.9331 43.5035L55.7505 44.9418L55.7505 52.4817ZM53.464 51.3918L50.7302 50.0897L50.7302 40.9675L53.464 43.1337L53.464 51.3918ZM50.2589 49.864L46.8696 48.2486L46.8696 37.908L50.2589 40.5919L50.2589 49.864ZM50.2589 50.4284L50.2589 60.2668L46.8696 59.7491L46.8696 48.813L50.2589 50.4284ZM46.3983 59.6771L42.222 59.0387L42.222 46.5981L46.3983 48.5892L46.3983 59.6771ZM46.3983 60.2007L46.3983 72.2092L42.222 72.8476L42.222 59.5623L46.3983 60.2007ZM46.3983 72.7328L46.3983 83.8207L42.222 85.8118L42.222 73.3712L46.3983 72.7328ZM46.3983 84.3852L46.3983 94.8737L42.222 98.1823L42.222 86.3781L46.3983 84.3852ZM46.8696 95.1403L50.2589 92.4564L50.2589 102.382L46.8696 106.078L46.8696 95.1403ZM50.7302 92.0827L53.464 89.9184L53.464 98.8869L50.7302 101.869L50.7302 92.0827ZM53.9331 89.5448L55.7505 88.1064L55.7505 96.3918L53.9331 98.3731L53.9331 89.5448ZM56.2219 87.7347L57.7762 86.5027L57.7696 94.1905L56.2219 95.8779L56.2219 87.7347ZM58.2475 86.129L59.7953 84.9029L59.7953 91.9796L58.2388 93.6767L58.2475 86.129ZM58.2475 85.4906L58.2563 78.7351L59.7975 78.0014L59.7975 84.2645L58.2475 85.4906ZM60.2666 77.7775L61.3277 77.2735L61.3277 83.0539L60.2666 83.8927L60.2666 77.7775ZM60.2666 77.2131L60.2666 70.6152L61.3277 70.4537L61.3277 76.709L60.2666 77.2131ZM60.2666 70.0897L60.2666 62.3202L61.3277 62.4817L61.3277 69.9282L60.2666 70.0897ZM60.2666 61.7966L60.2666 55.1968L61.3277 55.7028L61.3277 61.9582L60.2666 61.7966ZM60.2666 54.6343L60.2666 48.5191L61.3277 49.3579L61.3277 55.1403L60.2666 54.6343ZM59.7975 54.4105L58.2804 53.6884L58.287 46.9504L59.7975 48.1454L59.7975 54.4105ZM58.287 46.312L58.2936 38.7916L59.7953 40.4303L59.7953 47.507L58.287 46.312ZM57.8179 45.9403L56.2219 44.6752L56.2219 36.53L57.8266 38.2778L57.8179 45.9403ZM55.7505 44.3054L53.9331 42.8671L53.9331 34.0388L55.7505 36.0181L55.7505 44.3054ZM41.7507 46.3743L41.7507 58.9667L35.6254 58.0306L35.6254 43.4549L41.7507 46.3743ZM41.7507 59.4903L41.7507 72.9196L35.6254 73.8558L35.6254 58.5541L41.7507 59.4903ZM41.7507 73.4432L41.7507 86.0375L35.6254 88.957L35.6254 74.3813L41.7507 73.4432ZM53.9331 99.1029L55.7505 97.1216L55.7505 104.874L53.9331 107.421L53.9331 99.1029ZM56.2219 96.6078L57.7696 94.9204L57.763 102.052L56.2219 104.212L56.2219 96.6078ZM58.241 94.4085L59.7975 92.7113L59.7975 99.2002L58.2344 101.394L58.241 94.4085ZM60.2666 92.1975L61.3277 91.0414L61.3277 97.0516L60.2666 98.5405L60.2666 92.1975ZM60.2666 91.4677L60.2666 84.5311L61.3277 83.6923L61.3277 90.3116L60.2666 91.4677ZM61.799 83.3186L62.9346 82.4194L62.9346 88.5599L61.799 89.7978L61.799 83.3186ZM61.799 82.6802L61.799 77.0477L62.9346 76.5066L62.9346 81.781L61.799 82.6802ZM61.799 76.4833L61.799 70.3797L62.9346 70.2065L62.9346 75.9422L61.799 76.4833ZM61.799 69.8562L61.799 62.5537L62.9346 62.7269L62.9346 69.681L61.799 69.8562ZM61.799 62.0321L61.799 55.9286L62.9346 56.4696L62.9346 62.2053L61.799 62.0321ZM61.799 55.3642L61.799 49.7316L62.9346 50.6308L62.9346 55.9052L61.799 55.3642ZM61.799 49.0932L61.799 42.6141L62.9346 43.8519L62.9346 49.9924L61.799 49.0932ZM61.3277 48.7196L60.2666 47.8807L60.2666 40.9442L61.3277 42.1022L61.3277 48.7196ZM60.2666 40.2143L60.2666 33.8733L61.3277 35.3603L61.3277 41.3704L60.2666 40.2143ZM35.1541 58.4821L35.1541 73.9278L26.8519 75.1968L26.8519 57.2151L35.1541 58.4821ZM58.2322 102.233L59.7975 100.037L59.7975 106.604L58.2256 109.327L58.2322 102.233ZM60.2666 99.3773L61.3277 97.8904L61.3277 103.953L60.2666 105.79L60.2666 99.3773ZM61.799 96.3918L61.799 90.5276L62.9346 89.2898L62.9346 94.7997L61.799 96.3918ZM63.406 88.776L63.7787 88.3692L63.7787 93.6144L63.406 94.138L63.406 88.776ZM63.406 88.0461L63.406 82.0457L63.7787 81.7499L63.7787 87.6393L63.406 88.0461ZM63.406 81.4093L63.406 76.2828L63.7787 76.1057L63.7787 81.1135L63.406 81.4093ZM63.406 75.7164L63.406 70.1325L63.7787 70.0761L63.7787 75.5393L63.406 75.7164ZM63.406 69.6109L63.406 62.8009L63.7787 62.8573L63.7787 69.5545L63.406 69.6109ZM63.406 62.2773L63.406 56.6935L63.7787 56.8706L63.7787 62.3318L63.406 62.2773ZM63.406 56.1291L63.406 51.0025L63.7787 51.2984L63.7787 56.3081L63.406 56.1291ZM63.406 50.3642L63.406 44.3657L63.7787 44.7725L63.7787 50.6619L63.406 50.3642ZM63.406 43.6359L63.406 38.2739L63.7787 38.7974L63.7787 44.0426L63.406 43.6359ZM62.9346 43.122L61.799 41.8842L61.799 36.0201L62.9346 37.6141L62.9346 43.122ZM63.406 100.354L63.406 94.9768L63.7787 94.4533L63.7787 99.7082L63.406 100.354ZM63.7787 32.7036L63.7787 37.9605L63.406 37.437L63.406 32.0574L63.7787 32.7036Z" fill="url(#paint1_linear_1753_287)"/>
<path fill-rule="evenodd" clip-rule="evenodd" d="M57.8287 110.981L64.2127 99.9223L64.25 99.8581L64.25 32.5518L63.3435 30.9814C63.1575 30.9815 62.9719 30.9828 62.7866 30.9854L62.9346 31.2419L62.9346 36.7752L61.799 35.1812L61.799 31.0108C61.6417 31.0168 61.4846 31.0236 61.3277 31.0313L61.3277 34.5214L60.2666 33.0345L60.2666 31.0975C60.11 31.1093 59.9536 31.122 59.7975 31.1356L59.7975 32.3727L58.9727 31.2158C58.7881 31.2357 58.6038 31.2568 58.4199 31.2791L59.7997 33.2135L59.7997 39.7024L59.7975 39.7024L58.298 38.0656L58.3044 31.2933C58.1468 31.3129 57.9894 31.3334 57.8324 31.3548L57.8266 37.5518L56.2219 35.8021L56.2219 31.6075C56.0645 31.6355 55.9073 31.6644 55.7505 31.6941L55.7505 35.2902L53.9331 33.3089L53.9331 32.083C53.7764 32.1203 53.62 32.1585 53.464 32.1977L53.464 32.797L53.0193 32.312C52.8405 32.359 52.6623 32.4072 52.4845 32.4566L53.464 33.5249L53.464 42.4934L50.7302 40.3291L50.7302 32.9876C50.5727 33.0392 50.4156 33.0918 50.2589 33.1453L50.2589 39.9555L46.8696 37.2715L46.8696 34.477C46.712 34.5474 46.5549 34.6187 46.3983 34.691L46.3983 36.8998L44.677 35.5361C44.5156 35.6201 44.3548 35.7053 44.1947 35.7914L46.3983 37.5362L46.3983 48.0247L42.222 46.0337L42.222 36.9259C42.0642 37.0227 41.907 37.1205 41.7507 37.2194L41.7507 45.8099L35.6254 42.8904L35.6254 41.9699C35.4671 42.1191 35.31 42.2694 35.1541 42.421L35.1541 42.6666L34.9853 42.5862C34.8567 42.7127 34.7291 42.84 34.6022 42.9682L35.1541 43.231L35.1541 57.9605L26.8519 56.6915L26.8519 53.9991C26.6909 54.3377 26.5345 54.679 26.3828 55.0227L26.3828 56.6195L25.7565 56.5238C25.6919 56.6881 25.6283 56.8528 25.5658 57.0181L26.3828 57.1431L26.3828 75.2688L23.25 75.7473C23.2696 75.919 23.2902 76.0904 23.312 76.2614L26.3828 75.7923L26.3828 87.3141C26.5345 87.6578 26.6909 87.999 26.8519 88.3376L26.8519 75.7184L35.1541 74.4513L35.1541 89.1808L28.9252 92.1495C29.0143 92.2942 29.1044 92.4383 29.1954 92.5818L35.1541 89.7433L35.1541 99.9157C35.31 100.067 35.4671 100.218 35.6254 100.367L35.6254 89.5214L41.7507 86.6L41.7507 98.5541L37.4347 101.972C37.5656 102.081 37.6973 102.19 37.8296 102.297L41.7507 99.1925L41.7507 105.117C41.907 105.216 42.0642 105.314 42.222 105.411L42.222 98.8207L46.3983 95.512L46.3983 106.59L45.7232 107.326C45.8779 107.401 46.0332 107.475 46.189 107.548L46.3983 107.32L46.3983 107.646C46.5549 107.718 46.712 107.789 46.8696 107.86L46.8696 106.806L50.2589 103.11L50.2589 109.191C50.4156 109.245 50.5727 109.298 50.7302 109.349L50.7302 102.597L53.464 99.6148L53.464 108.081L52.2325 109.809C52.3987 109.857 52.5653 109.903 52.7323 109.948L53.464 108.922L53.464 110.139C53.62 110.178 53.7764 110.216 53.9331 110.254L53.9331 108.26L55.7505 105.713L55.7505 110.643C55.9066 110.672 56.063 110.701 56.2197 110.729L56.2197 105.053L56.2219 105.053L57.7609 102.894L57.7521 110.144L57.3115 110.908C57.4835 110.933 57.6559 110.958 57.8287 110.981ZM61.799 103.138L61.799 97.2306L62.9346 95.6386L62.9346 101.172L61.799 103.138ZM55.7505 70.7806L53.9331 71.059L53.9331 61.3529L55.7505 61.6312L55.7505 70.7806ZM56.2219 61.7032L57.8025 61.9445L57.7937 70.4692L56.2219 70.7106L56.2219 61.7032ZM53.9331 71.5806L55.7505 71.3042L55.7505 79.3657L53.9331 80.2318L53.9331 71.5806ZM53.464 80.4556L50.7302 81.7596L50.7302 72.073L53.464 71.6545L53.464 80.4556ZM53.9331 60.8293L53.9331 52.18L55.7505 53.0461L55.7505 61.1076L53.9331 60.8293ZM53.464 60.7573L50.7302 60.3389L50.7302 50.6522L53.464 51.9543L53.464 60.7573ZM53.464 61.2808L53.464 71.131L50.7302 71.5494L50.7302 60.8644L53.464 61.2808ZM50.2589 71.6195L46.8696 72.1372L46.8696 60.2727L50.2589 60.7904L50.2589 71.6195ZM50.2589 72.143L50.2589 81.9815L46.8696 83.5969L46.8696 72.6608L50.2589 72.143ZM50.2589 82.5459L50.2589 91.8161L46.8696 94.5L46.8696 84.1613L50.2589 82.5459ZM50.7302 82.3221L53.464 81.0181L53.464 89.2781L50.7302 91.4443L50.7302 82.3221ZM53.9331 80.7962L55.7505 79.9301L55.7505 87.47L53.9331 88.9083L53.9331 80.7962ZM56.2219 79.7044L57.785 78.9609L57.7784 85.8643L56.2219 87.0963L56.2219 79.7044ZM56.2219 79.1399L56.2219 71.2322L57.7916 70.9928L57.785 78.3964L56.2219 79.1399ZM58.2629 70.9188L59.7975 70.6853L59.7975 77.4369L58.2563 78.1707L58.2629 70.9188ZM58.2651 70.3972L58.2738 62.0146L59.7975 62.2482L59.7975 70.1617L58.2651 70.3972ZM58.2717 61.493L58.2782 54.2509L59.7953 54.973L59.7953 61.7246L58.2717 61.493ZM57.8025 61.421L56.2219 61.1797L56.2219 53.2719L57.8113 54.029L57.8025 61.421ZM56.2219 52.7055L56.2219 45.3136L57.8179 46.5767L57.8113 53.4626L56.2219 52.7055ZM55.7505 52.4817L53.9331 51.6156L53.9331 43.5035L55.7505 44.9418L55.7505 52.4817ZM53.464 51.3918L50.7302 50.0897L50.7302 40.9675L53.464 43.1337L53.464 51.3918ZM50.2589 49.864L46.8696 48.2486L46.8696 37.908L50.2589 40.5919L50.2589 49.864ZM50.2589 50.4284L50.2589 60.2668L46.8696 59.7491L46.8696 48.813L50.2589 50.4284ZM46.3983 59.6771L42.222 59.0387L42.222 46.5981L46.3983 48.5892L46.3983 59.6771ZM46.3983 60.2007L46.3983 72.2092L42.222 72.8476L42.222 59.5623L46.3983 60.2007ZM46.3983 72.7328L46.3983 83.8207L42.222 85.8118L42.222 73.3712L46.3983 72.7328ZM46.3983 84.3852L46.3983 94.8737L42.222 98.1823L42.222 86.3781L46.3983 84.3852ZM46.8696 95.1403L50.2589 92.4564L50.2589 102.382L46.8696 106.078L46.8696 95.1403ZM50.7302 92.0827L53.464 89.9184L53.464 98.8869L50.7302 101.869L50.7302 92.0827ZM53.9331 89.5448L55.7505 88.1064L55.7505 96.3918L53.9331 98.3731L53.9331 89.5448ZM56.2219 87.7347L57.7762 86.5027L57.7696 94.1905L56.2219 95.8779L56.2219 87.7347ZM58.2475 86.129L59.7953 84.9029L59.7953 91.9796L58.2388 93.6767L58.2475 86.129ZM58.2475 85.4906L58.2563 78.7351L59.7975 78.0014L59.7975 84.2645L58.2475 85.4906ZM60.2666 77.7775L61.3277 77.2735L61.3277 83.0539L60.2666 83.8927L60.2666 77.7775ZM60.2666 77.2131L60.2666 70.6152L61.3277 70.4537L61.3277 76.709L60.2666 77.2131ZM60.2666 70.0897L60.2666 62.3202L61.3277 62.4817L61.3277 69.9282L60.2666 70.0897ZM60.2666 61.7966L60.2666 55.1968L61.3277 55.7028L61.3277 61.9582L60.2666 61.7966ZM60.2666 54.6343L60.2666 48.5191L61.3277 49.3579L61.3277 55.1403L60.2666 54.6343ZM59.7975 54.4105L58.2804 53.6884L58.287 46.9504L59.7975 48.1454L59.7975 54.4105ZM58.287 46.312L58.2936 38.7916L59.7953 40.4303L59.7953 47.507L58.287 46.312ZM57.8179 45.9403L56.2219 44.6752L56.2219 36.53L57.8266 38.2778L57.8179 45.9403ZM55.7505 44.3054L53.9331 42.8671L53.9331 34.0388L55.7505 36.0181L55.7505 44.3054ZM41.7507 46.3743L41.7507 58.9667L35.6254 58.0306L35.6254 43.4549L41.7507 46.3743ZM41.7507 59.4903L41.7507 72.9196L35.6254 73.8558L35.6254 58.5541L41.7507 59.4903ZM41.7507 73.4432L41.7507 86.0375L35.6254 88.957L35.6254 74.3813L41.7507 73.4432ZM53.9331 99.1029L55.7505 97.1216L55.7505 104.874L53.9331 107.421L53.9331 99.1029ZM56.2219 96.6078L57.7696 94.9204L57.763 102.052L56.2219 104.212L56.2219 96.6078ZM58.241 94.4085L59.7975 92.7113L59.7975 99.2002L58.2344 101.394L58.241 94.4085ZM60.2666 92.1975L61.3277 91.0414L61.3277 97.0516L60.2666 98.5405L60.2666 92.1975ZM60.2666 91.4677L60.2666 84.5311L61.3277 83.6923L61.3277 90.3116L60.2666 91.4677ZM61.799 83.3186L62.9346 82.4194L62.9346 88.5599L61.799 89.7978L61.799 83.3186ZM61.799 82.6802L61.799 77.0477L62.9346 76.5066L62.9346 81.781L61.799 82.6802ZM61.799 76.4833L61.799 70.3797L62.9346 70.2065L62.9346 75.9422L61.799 76.4833ZM61.799 69.8562L61.799 62.5537L62.9346 62.7269L62.9346 69.681L61.799 69.8562ZM61.799 62.0321L61.799 55.9286L62.9346 56.4696L62.9346 62.2053L61.799 62.0321ZM61.799 55.3642L61.799 49.7316L62.9346 50.6308L62.9346 55.9052L61.799 55.3642ZM61.799 49.0932L61.799 42.6141L62.9346 43.8519L62.9346 49.9924L61.799 49.0932ZM61.3277 48.7196L60.2666 47.8807L60.2666 40.9442L61.3277 42.1022L61.3277 48.7196ZM60.2666 40.2143L60.2666 33.8733L61.3277 35.3603L61.3277 41.3704L60.2666 40.2143ZM35.1541 58.4821L35.1541 73.9278L26.8519 75.1968L26.8519 57.2151L35.1541 58.4821ZM58.2322 102.233L59.7975 100.037L59.7975 106.604L58.2256 109.327L58.2322 102.233ZM60.2666 99.3773L61.3277 97.8904L61.3277 103.953L60.2666 105.79L60.2666 99.3773ZM61.799 96.3918L61.799 90.5276L62.9346 89.2898L62.9346 94.7997L61.799 96.3918ZM63.406 88.776L63.7787 88.3692L63.7787 93.6144L63.406 94.138L63.406 88.776ZM63.406 88.0461L63.406 82.0457L63.7787 81.7499L63.7787 87.6393L63.406 88.0461ZM63.406 81.4093L63.406 76.2828L63.7787 76.1057L63.7787 81.1135L63.406 81.4093ZM63.406 75.7164L63.406 70.1325L63.7787 70.0761L63.7787 75.5393L63.406 75.7164ZM63.406 69.6109L63.406 62.8009L63.7787 62.8573L63.7787 69.5545L63.406 69.6109ZM63.406 62.2773L63.406 56.6935L63.7787 56.8706L63.7787 62.3318L63.406 62.2773ZM63.406 56.1291L63.406 51.0025L63.7787 51.2984L63.7787 56.3081L63.406 56.1291ZM63.406 50.3642L63.406 44.3657L63.7787 44.7725L63.7787 50.6619L63.406 50.3642ZM63.406 43.6359L63.406 38.2739L63.7787 38.7974L63.7787 44.0426L63.406 43.6359ZM62.9346 43.122L61.799 41.8842L61.799 36.0201L62.9346 37.6141L62.9346 43.122ZM63.406 100.354L63.406 94.9768L63.7787 94.4533L63.7787 99.7082L63.406 100.354ZM63.7787 32.7036L63.7787 37.9605L63.406 37.437L63.406 32.0574L63.7787 32.7036Z" stroke="url(#paint2_linear_1753_287)" mask="url(#path-4-outside-1_1753_287)"/>
<mask id="path-5-outside-2_1753_287" maskUnits="userSpaceOnUse" x="63.25" y="29.9814" width="41" height="82" fill="black">
<rect fill="white" x="63.25" y="29.9814" width="41" height="82"/>
<path fill-rule="evenodd" clip-rule="evenodd" d="M70.218 110.981C70.3787 110.954 70.5391 110.925 70.6992 110.895L70.4034 110.352L70.3951 103.08L71.853 105.245L71.853 110.663C72.0021 110.631 72.1509 110.598 72.2995 110.564L72.2995 105.907L74.0211 108.463L74.0211 110.13C74.1703 110.089 74.3191 110.047 74.4676 110.004L74.4676 109.126L74.9605 109.859C75.1175 109.811 75.274 109.763 75.4301 109.713L74.4676 108.283L74.4676 99.7905L77.0573 102.781L77.0573 109.16C77.2065 109.105 77.3554 109.05 77.5038 108.994L77.5038 103.297L80.7144 107.004L80.7144 107.616C80.9871 107.484 81.2581 107.35 81.5273 107.213L81.1609 106.79L81.1609 95.6751L85.1171 98.994L85.1171 105.139C85.2659 105.042 85.4141 104.945 85.5615 104.846L85.5615 99.3669L89.0152 102.263C89.143 102.156 89.2701 102.048 89.3966 101.94L85.5615 98.7246L85.5615 86.7335L91.364 89.6639L91.364 100.14C91.5139 99.9932 91.6628 99.8454 91.8105 99.6965L91.8105 89.8904L97.3663 92.6928C97.4561 92.5495 97.5451 92.4055 97.6333 92.2609L91.8105 89.3223L91.8105 74.5472L99.6751 75.8201L99.6751 88.4682C99.8274 88.1449 99.9756 87.8193 100.12 87.4914L100.12 75.8924L103.188 76.3893C103.21 76.2183 103.23 76.0471 103.25 75.8755L100.12 75.3691L100.12 57.1873L100.946 57.0535C100.884 56.8881 100.821 56.7233 100.757 56.559L100.12 56.6622L100.12 55.0207C99.9756 54.6928 99.8274 54.3672 99.6751 54.0439L99.6751 56.7325L91.8105 58.0054L91.8105 43.2303L92.0828 43.0929C91.8469 42.8504 91.608 42.6109 91.366 42.3744L91.366 42.8926L85.5636 45.821L85.5636 37.6671C85.4155 37.5682 85.2666 37.4702 85.1171 37.3732L85.1171 46.0436L81.1609 48.0408L81.1609 37.5198L82.9196 36.0454C82.7666 35.9595 82.6131 35.8747 82.4589 35.7908L81.1588 36.8814L81.1588 35.1139C81.0112 35.0405 80.8631 34.9679 80.7144 34.8962L80.7144 37.2543L77.5038 39.9465L77.5038 33.5182C77.3554 33.4621 77.2065 33.4068 77.0573 33.3524L77.0573 40.3214L74.4676 42.4924L74.4676 33.4961L75.1476 32.7107C74.9809 32.6594 74.8137 32.6091 74.6461 32.5598L74.4676 32.766L74.4676 32.5079C74.3191 32.465 74.1703 32.423 74.0211 32.3819L74.0211 33.2775L72.2995 35.2649L72.2995 31.948C72.1516 31.9142 72.0035 31.8813 71.855 31.8491L71.855 35.7803L70.3349 37.5354L70.3296 31.5502C70.1815 31.5241 70.0332 31.4989 69.8846 31.4745L69.8904 38.0509L68.4699 39.6927L68.4699 33.1838L68.4679 33.1838L69.6452 31.436C69.474 31.4089 69.3024 31.383 69.1305 31.3581L68.4679 32.3423L68.4679 31.268C68.3193 31.249 68.1705 31.2309 68.0214 31.2136L68.0214 33.0042L67.0162 34.4957L67.0162 31.1097C66.8676 31.0962 66.7188 31.0836 66.5697 31.0717L66.5697 35.1575L65.494 36.7565L65.494 31.2061L65.6027 31.0066C65.4317 30.9971 65.2604 30.9887 65.0888 30.9814L64.25 32.52L64.25 100.035L64.2853 100.099L70.218 110.981ZM65.494 101.35L65.494 95.8L66.5697 97.397L66.5697 103.322L65.494 101.35ZM72.2995 61.6894L74.0211 61.4102L74.0211 71.1463L72.2995 70.8671L72.2995 61.6894ZM71.855 70.7949L70.366 70.5528L70.3577 62.0017L71.855 61.7596L71.855 70.7949ZM74.0211 80.3456L72.2995 79.4768L72.2995 71.3903L74.0211 71.6676L74.0211 80.3456ZM74.4676 71.7418L77.0573 72.1615L77.0573 81.8781L74.4676 80.5701L74.4676 71.7418ZM72.2995 61.1642L72.2995 53.0777L74.0211 52.209L74.0211 60.885L72.2995 61.1642ZM74.4676 51.9845L77.0573 50.6784L77.0573 60.395L74.4676 60.8147L74.4676 51.9845ZM77.0573 60.9182L77.0573 71.6363L74.4676 71.2166L74.4676 61.336L77.0573 60.9182ZM77.5038 60.846L80.7144 60.3266L80.7144 72.2279L77.5038 71.7086L77.5038 60.846ZM80.7144 72.7531L80.7144 83.7231L77.5038 82.1027L77.5038 72.2337L80.7144 72.7531ZM80.7144 84.2892L80.7144 94.6599L77.5038 91.9676L77.5038 82.6688L80.7144 84.2892ZM77.0573 91.5948L74.4676 89.4218L74.4676 81.1363L77.0573 82.4443L77.0573 91.5948ZM74.0211 89.0489L72.2995 87.6062L72.2995 80.043L74.0211 80.9117L74.0211 89.0489ZM71.855 87.2333L70.3806 85.9975L70.3743 79.0727L71.855 79.8185L71.855 87.2333ZM70.3722 78.5065L70.366 71.0799L71.853 71.3201L71.853 79.2523L70.3722 78.5065ZM69.9278 78.28L68.4679 77.544L68.4679 70.7715L69.9216 71.0058L69.9278 78.28ZM68.4679 70.2463L68.4679 62.3082L69.9112 62.074L69.9195 70.4825L68.4679 70.2463ZM68.4679 61.785L68.4679 55.0125L69.905 54.2882L69.9112 61.5527L68.4679 61.785ZM70.3494 54.0617L71.855 53.3023L71.855 61.2345L70.3577 61.4766L70.3494 54.0617ZM70.3494 53.4975L70.3432 46.5902L71.855 45.3232L71.855 52.738L70.3494 53.4975ZM72.2995 44.9483L74.0211 43.5056L74.0211 51.6428L72.2995 52.5116L72.2995 44.9483ZM74.4676 43.1327L77.0573 40.9598L77.0573 50.1102L74.4676 51.4163L74.4676 43.1327ZM77.5038 40.5869L80.7144 37.8947L80.7144 48.2673L77.5038 49.8877L77.5038 40.5869ZM80.7144 48.8315L80.7144 59.8015L77.5038 60.3208L77.5038 50.4519L80.7144 48.8315ZM81.1588 48.607L85.115 46.6098L85.115 59.0889L81.1588 59.7292L81.1588 48.607ZM85.1171 59.6141L85.1171 72.9405L81.1609 72.3001L81.1609 60.2544L85.1171 59.6141ZM85.1171 73.4657L85.1171 85.9448L81.1609 83.9476L81.1609 72.8253L85.1171 73.4657ZM85.1171 86.511L85.1171 98.3517L81.1609 95.0328L81.1609 84.5118L85.1171 86.511ZM80.7144 106.272L77.5038 102.565L77.5038 92.608L80.7144 95.3002L80.7144 106.272ZM77.0573 102.051L74.4676 99.0604L74.4676 90.0641L77.0573 92.2351L77.0573 102.051ZM74.0211 98.545L72.2995 96.5575L72.2995 88.2465L74.0211 89.6893L74.0211 98.545ZM71.855 96.0441L70.3889 94.3514L70.3826 86.6398L71.855 87.8756L71.855 96.0441ZM69.9424 93.836L68.4679 92.1336L68.4679 85.035L69.934 86.265L69.9424 93.836ZM68.4679 84.3927L68.4679 78.1102L69.9278 78.8462L69.9361 85.6227L68.4679 84.3927ZM68.0214 84.0198L67.0162 83.1784L67.0162 77.38L68.0214 77.8857L68.0214 84.0198ZM67.0162 76.8119L67.0162 70.5372L68.0214 70.6992L68.0214 77.3176L67.0162 76.8119ZM67.0162 70.012L67.0162 62.5445L68.0214 62.3824L68.0214 70.176L67.0162 70.012ZM67.0162 62.0193L67.0162 55.7446L68.0214 55.237L68.0214 61.8573L67.0162 62.0193ZM67.0162 55.1784L67.0162 49.3781L68.0214 48.5367L68.0214 54.6708L67.0162 55.1784ZM68.4679 48.1618L69.8987 46.9631L69.905 53.722L68.4679 54.4463L68.4679 48.1618ZM68.4679 47.5215L68.4679 40.4229L69.8904 38.7791L69.8967 46.3228L68.4679 47.5215ZM70.3349 38.2656L71.855 36.5124L71.855 44.6828L70.3432 45.9518L70.3349 38.2656ZM72.2995 35.997L74.0211 34.0115L74.0211 42.8672L72.2995 44.3099L72.2995 35.997ZM91.364 43.4568L91.364 58.0776L85.5615 59.0167L85.5615 46.3852L91.364 43.4568ZM91.364 58.6028L91.364 73.9518L85.5615 73.0127L85.5615 59.5418L91.364 58.6028ZM91.364 74.4769L91.364 89.0978L85.5615 86.1693L85.5615 73.5359L91.364 74.4769ZM74.0211 107.621L72.2995 105.066L72.2995 97.2896L74.0211 99.2771L74.0211 107.621ZM71.855 104.404L70.3951 102.237L70.3889 95.0835L71.855 96.7762L71.855 104.404ZM69.9486 101.573L68.4679 99.3727L68.4679 92.8638L69.9424 94.5662L69.9486 101.573ZM68.0214 98.7109L67.0162 97.2174L67.0162 91.1887L68.0214 92.3483L68.0214 98.7109ZM67.0162 90.4585L67.0162 83.8187L68.0214 84.6602L68.0214 91.6182L67.0162 90.4585ZM65.4961 88.7014L65.4961 82.5419L66.5718 83.4439L66.5718 89.9431L65.4961 88.7014ZM65.494 81.8996L65.494 76.6089L66.5697 77.1516L66.5697 82.8016L65.494 81.8996ZM65.494 76.0446L65.494 70.2912L66.5697 70.465L66.5697 76.5874L65.494 76.0446ZM65.494 69.766L65.494 62.7905L66.5697 62.6167L66.5697 69.9417L65.494 69.766ZM65.494 62.2653L65.494 56.5118L66.5697 55.9691L66.5697 62.0915L65.494 62.2653ZM65.494 55.9457L65.494 50.6549L66.5697 49.753L66.5697 55.4029L65.494 55.9457ZM65.494 50.0146L65.494 43.8551L66.5697 42.6134L66.5697 49.1126L65.494 50.0146ZM67.0162 42.098L68.0214 40.9364L68.0214 47.8944L67.0162 48.7358L67.0162 42.098ZM67.0162 41.3659L67.0162 35.3372L68.0214 33.8456L68.0214 40.2062L67.0162 41.3659ZM99.6751 57.2576L99.6751 75.295L91.8105 74.0221L91.8105 58.5286L99.6751 57.2576ZM69.9548 109.534L68.4658 106.803L68.4658 100.216L69.9486 102.418L69.9548 109.534ZM68.0214 105.985L67.0162 104.142L67.0162 98.0608L68.0214 99.5523L68.0214 105.985ZM65.494 94.9586L65.494 89.4316L66.5697 90.6733L66.5697 96.5556L65.494 94.9586ZM65.0496 94.2967L64.6965 93.7716L64.6965 88.5101L65.0496 88.9181L65.0496 94.2967ZM64.6965 87.778L64.6965 81.8703L65.0496 82.1671L65.0496 88.186L64.6965 87.778ZM64.6965 81.23L64.6965 76.2067L65.0496 76.3844L65.0496 81.5267L64.6965 81.23ZM64.6965 75.6405L64.6965 70.1604L65.0496 70.217L65.0496 75.8182L64.6965 75.6405ZM64.6965 69.6372L64.6965 62.9193L65.0496 62.8627L65.0496 69.6938L64.6965 69.6372ZM64.6965 62.3941L64.6965 56.916L65.0496 56.7383L65.0496 62.3395L64.6965 62.3941ZM64.6965 56.3498L64.6965 51.3246L65.0496 51.0278L65.0496 56.1702L64.6965 56.3498ZM64.6965 50.6842L64.6965 44.7785L65.0496 44.3705L65.0496 50.3875L64.6965 50.6842ZM64.6965 44.0464L64.6965 38.7849L65.0496 38.2598L65.0496 43.6384L64.6965 44.0464ZM65.494 37.5979L66.5697 35.999L66.5697 41.8813L65.494 43.1229L65.494 37.5979ZM64.6965 99.8842L64.6965 94.613L65.0496 95.1382L65.0495 100.532L64.6965 99.8842ZM65.0496 32.0221L65.0496 37.4183L64.6965 37.9435L64.6965 32.6703L65.0496 32.0221Z"/>
</mask>
<path fill-rule="evenodd" clip-rule="evenodd" d="M70.218 110.981C70.3787 110.954 70.5391 110.925 70.6992 110.895L70.4034 110.352L70.3951 103.08L71.853 105.245L71.853 110.663C72.0021 110.631 72.1509 110.598 72.2995 110.564L72.2995 105.907L74.0211 108.463L74.0211 110.13C74.1703 110.089 74.3191 110.047 74.4676 110.004L74.4676 109.126L74.9605 109.859C75.1175 109.811 75.274 109.763 75.4301 109.713L74.4676 108.283L74.4676 99.7905L77.0573 102.781L77.0573 109.16C77.2065 109.105 77.3554 109.05 77.5038 108.994L77.5038 103.297L80.7144 107.004L80.7144 107.616C80.9871 107.484 81.2581 107.35 81.5273 107.213L81.1609 106.79L81.1609 95.6751L85.1171 98.994L85.1171 105.139C85.2659 105.042 85.4141 104.945 85.5615 104.846L85.5615 99.3669L89.0152 102.263C89.143 102.156 89.2701 102.048 89.3966 101.94L85.5615 98.7246L85.5615 86.7335L91.364 89.6639L91.364 100.14C91.5139 99.9932 91.6628 99.8454 91.8105 99.6965L91.8105 89.8904L97.3663 92.6928C97.4561 92.5495 97.5451 92.4055 97.6333 92.2609L91.8105 89.3223L91.8105 74.5472L99.6751 75.8201L99.6751 88.4682C99.8274 88.1449 99.9756 87.8193 100.12 87.4914L100.12 75.8924L103.188 76.3893C103.21 76.2183 103.23 76.0471 103.25 75.8755L100.12 75.3691L100.12 57.1873L100.946 57.0535C100.884 56.8881 100.821 56.7233 100.757 56.559L100.12 56.6622L100.12 55.0207C99.9756 54.6928 99.8274 54.3672 99.6751 54.0439L99.6751 56.7325L91.8105 58.0054L91.8105 43.2303L92.0828 43.0929C91.8469 42.8504 91.608 42.6109 91.366 42.3744L91.366 42.8926L85.5636 45.821L85.5636 37.6671C85.4155 37.5682 85.2666 37.4702 85.1171 37.3732L85.1171 46.0436L81.1609 48.0408L81.1609 37.5198L82.9196 36.0454C82.7666 35.9595 82.6131 35.8747 82.4589 35.7908L81.1588 36.8814L81.1588 35.1139C81.0112 35.0405 80.8631 34.9679 80.7144 34.8962L80.7144 37.2543L77.5038 39.9465L77.5038 33.5182C77.3554 33.4621 77.2065 33.4068 77.0573 33.3524L77.0573 40.3214L74.4676 42.4924L74.4676 33.4961L75.1476 32.7107C74.9809 32.6594 74.8137 32.6091 74.6461 32.5598L74.4676 32.766L74.4676 32.5079C74.3191 32.465 74.1703 32.423 74.0211 32.3819L74.0211 33.2775L72.2995 35.2649L72.2995 31.948C72.1516 31.9142 72.0035 31.8813 71.855 31.8491L71.855 35.7803L70.3349 37.5354L70.3296 31.5502C70.1815 31.5241 70.0332 31.4989 69.8846 31.4745L69.8904 38.0509L68.4699 39.6927L68.4699 33.1838L68.4679 33.1838L69.6452 31.436C69.474 31.4089 69.3024 31.383 69.1305 31.3581L68.4679 32.3423L68.4679 31.268C68.3193 31.249 68.1705 31.2309 68.0214 31.2136L68.0214 33.0042L67.0162 34.4957L67.0162 31.1097C66.8676 31.0962 66.7188 31.0836 66.5697 31.0717L66.5697 35.1575L65.494 36.7565L65.494 31.2061L65.6027 31.0066C65.4317 30.9971 65.2604 30.9887 65.0888 30.9814L64.25 32.52L64.25 100.035L64.2853 100.099L70.218 110.981ZM65.494 101.35L65.494 95.8L66.5697 97.397L66.5697 103.322L65.494 101.35ZM72.2995 61.6894L74.0211 61.4102L74.0211 71.1463L72.2995 70.8671L72.2995 61.6894ZM71.855 70.7949L70.366 70.5528L70.3577 62.0017L71.855 61.7596L71.855 70.7949ZM74.0211 80.3456L72.2995 79.4768L72.2995 71.3903L74.0211 71.6676L74.0211 80.3456ZM74.4676 71.7418L77.0573 72.1615L77.0573 81.8781L74.4676 80.5701L74.4676 71.7418ZM72.2995 61.1642L72.2995 53.0777L74.0211 52.209L74.0211 60.885L72.2995 61.1642ZM74.4676 51.9845L77.0573 50.6784L77.0573 60.395L74.4676 60.8147L74.4676 51.9845ZM77.0573 60.9182L77.0573 71.6363L74.4676 71.2166L74.4676 61.336L77.0573 60.9182ZM77.5038 60.846L80.7144 60.3266L80.7144 72.2279L77.5038 71.7086L77.5038 60.846ZM80.7144 72.7531L80.7144 83.7231L77.5038 82.1027L77.5038 72.2337L80.7144 72.7531ZM80.7144 84.2892L80.7144 94.6599L77.5038 91.9676L77.5038 82.6688L80.7144 84.2892ZM77.0573 91.5948L74.4676 89.4218L74.4676 81.1363L77.0573 82.4443L77.0573 91.5948ZM74.0211 89.0489L72.2995 87.6062L72.2995 80.043L74.0211 80.9117L74.0211 89.0489ZM71.855 87.2333L70.3806 85.9975L70.3743 79.0727L71.855 79.8185L71.855 87.2333ZM70.3722 78.5065L70.366 71.0799L71.853 71.3201L71.853 79.2523L70.3722 78.5065ZM69.9278 78.28L68.4679 77.544L68.4679 70.7715L69.9216 71.0058L69.9278 78.28ZM68.4679 70.2463L68.4679 62.3082L69.9112 62.074L69.9195 70.4825L68.4679 70.2463ZM68.4679 61.785L68.4679 55.0125L69.905 54.2882L69.9112 61.5527L68.4679 61.785ZM70.3494 54.0617L71.855 53.3023L71.855 61.2345L70.3577 61.4766L70.3494 54.0617ZM70.3494 53.4975L70.3432 46.5902L71.855 45.3232L71.855 52.738L70.3494 53.4975ZM72.2995 44.9483L74.0211 43.5056L74.0211 51.6428L72.2995 52.5116L72.2995 44.9483ZM74.4676 43.1327L77.0573 40.9598L77.0573 50.1102L74.4676 51.4163L74.4676 43.1327ZM77.5038 40.5869L80.7144 37.8947L80.7144 48.2673L77.5038 49.8877L77.5038 40.5869ZM80.7144 48.8315L80.7144 59.8015L77.5038 60.3208L77.5038 50.4519L80.7144 48.8315ZM81.1588 48.607L85.115 46.6098L85.115 59.0889L81.1588 59.7292L81.1588 48.607ZM85.1171 59.6141L85.1171 72.9405L81.1609 72.3001L81.1609 60.2544L85.1171 59.6141ZM85.1171 73.4657L85.1171 85.9448L81.1609 83.9476L81.1609 72.8253L85.1171 73.4657ZM85.1171 86.511L85.1171 98.3517L81.1609 95.0328L81.1609 84.5118L85.1171 86.511ZM80.7144 106.272L77.5038 102.565L77.5038 92.608L80.7144 95.3002L80.7144 106.272ZM77.0573 102.051L74.4676 99.0604L74.4676 90.0641L77.0573 92.2351L77.0573 102.051ZM74.0211 98.545L72.2995 96.5575L72.2995 88.2465L74.0211 89.6893L74.0211 98.545ZM71.855 96.0441L70.3889 94.3514L70.3826 86.6398L71.855 87.8756L71.855 96.0441ZM69.9424 93.836L68.4679 92.1336L68.4679 85.035L69.934 86.265L69.9424 93.836ZM68.4679 84.3927L68.4679 78.1102L69.9278 78.8462L69.9361 85.6227L68.4679 84.3927ZM68.0214 84.0198L67.0162 83.1784L67.0162 77.38L68.0214 77.8857L68.0214 84.0198ZM67.0162 76.8119L67.0162 70.5372L68.0214 70.6992L68.0214 77.3176L67.0162 76.8119ZM67.0162 70.012L67.0162 62.5445L68.0214 62.3824L68.0214 70.176L67.0162 70.012ZM67.0162 62.0193L67.0162 55.7446L68.0214 55.237L68.0214 61.8573L67.0162 62.0193ZM67.0162 55.1784L67.0162 49.3781L68.0214 48.5367L68.0214 54.6708L67.0162 55.1784ZM68.4679 48.1618L69.8987 46.9631L69.905 53.722L68.4679 54.4463L68.4679 48.1618ZM68.4679 47.5215L68.4679 40.4229L69.8904 38.7791L69.8967 46.3228L68.4679 47.5215ZM70.3349 38.2656L71.855 36.5124L71.855 44.6828L70.3432 45.9518L70.3349 38.2656ZM72.2995 35.997L74.0211 34.0115L74.0211 42.8672L72.2995 44.3099L72.2995 35.997ZM91.364 43.4568L91.364 58.0776L85.5615 59.0167L85.5615 46.3852L91.364 43.4568ZM91.364 58.6028L91.364 73.9518L85.5615 73.0127L85.5615 59.5418L91.364 58.6028ZM91.364 74.4769L91.364 89.0978L85.5615 86.1693L85.5615 73.5359L91.364 74.4769ZM74.0211 107.621L72.2995 105.066L72.2995 97.2896L74.0211 99.2771L74.0211 107.621ZM71.855 104.404L70.3951 102.237L70.3889 95.0835L71.855 96.7762L71.855 104.404ZM69.9486 101.573L68.4679 99.3727L68.4679 92.8638L69.9424 94.5662L69.9486 101.573ZM68.0214 98.7109L67.0162 97.2174L67.0162 91.1887L68.0214 92.3483L68.0214 98.7109ZM67.0162 90.4585L67.0162 83.8187L68.0214 84.6602L68.0214 91.6182L67.0162 90.4585ZM65.4961 88.7014L65.4961 82.5419L66.5718 83.4439L66.5718 89.9431L65.4961 88.7014ZM65.494 81.8996L65.494 76.6089L66.5697 77.1516L66.5697 82.8016L65.494 81.8996ZM65.494 76.0446L65.494 70.2912L66.5697 70.465L66.5697 76.5874L65.494 76.0446ZM65.494 69.766L65.494 62.7905L66.5697 62.6167L66.5697 69.9417L65.494 69.766ZM65.494 62.2653L65.494 56.5118L66.5697 55.9691L66.5697 62.0915L65.494 62.2653ZM65.494 55.9457L65.494 50.6549L66.5697 49.753L66.5697 55.4029L65.494 55.9457ZM65.494 50.0146L65.494 43.8551L66.5697 42.6134L66.5697 49.1126L65.494 50.0146ZM67.0162 42.098L68.0214 40.9364L68.0214 47.8944L67.0162 48.7358L67.0162 42.098ZM67.0162 41.3659L67.0162 35.3372L68.0214 33.8456L68.0214 40.2062L67.0162 41.3659ZM99.6751 57.2576L99.6751 75.295L91.8105 74.0221L91.8105 58.5286L99.6751 57.2576ZM69.9548 109.534L68.4658 106.803L68.4658 100.216L69.9486 102.418L69.9548 109.534ZM68.0214 105.985L67.0162 104.142L67.0162 98.0608L68.0214 99.5523L68.0214 105.985ZM65.494 94.9586L65.494 89.4316L66.5697 90.6733L66.5697 96.5556L65.494 94.9586ZM65.0496 94.2967L64.6965 93.7716L64.6965 88.5101L65.0496 88.9181L65.0496 94.2967ZM64.6965 87.778L64.6965 81.8703L65.0496 82.1671L65.0496 88.186L64.6965 87.778ZM64.6965 81.23L64.6965 76.2067L65.0496 76.3844L65.0496 81.5267L64.6965 81.23ZM64.6965 75.6405L64.6965 70.1604L65.0496 70.217L65.0496 75.8182L64.6965 75.6405ZM64.6965 69.6372L64.6965 62.9193L65.0496 62.8627L65.0496 69.6938L64.6965 69.6372ZM64.6965 62.3941L64.6965 56.916L65.0496 56.7383L65.0496 62.3395L64.6965 62.3941ZM64.6965 56.3498L64.6965 51.3246L65.0496 51.0278L65.0496 56.1702L64.6965 56.3498ZM64.6965 50.6842L64.6965 44.7785L65.0496 44.3705L65.0496 50.3875L64.6965 50.6842ZM64.6965 44.0464L64.6965 38.7849L65.0496 38.2598L65.0496 43.6384L64.6965 44.0464ZM65.494 37.5979L66.5697 35.999L66.5697 41.8813L65.494 43.1229L65.494 37.5979ZM64.6965 99.8842L64.6965 94.613L65.0496 95.1382L65.0495 100.532L64.6965 99.8842ZM65.0496 32.0221L65.0496 37.4183L64.6965 37.9435L64.6965 32.6703L65.0496 32.0221Z" fill="url(#paint3_linear_1753_287)"/>
<path fill-rule="evenodd" clip-rule="evenodd" d="M70.218 110.981C70.3787 110.954 70.5391 110.925 70.6992 110.895L70.4034 110.352L70.3951 103.08L71.853 105.245L71.853 110.663C72.0021 110.631 72.1509 110.598 72.2995 110.564L72.2995 105.907L74.0211 108.463L74.0211 110.13C74.1703 110.089 74.3191 110.047 74.4676 110.004L74.4676 109.126L74.9605 109.859C75.1175 109.811 75.274 109.763 75.4301 109.713L74.4676 108.283L74.4676 99.7905L77.0573 102.781L77.0573 109.16C77.2065 109.105 77.3554 109.05 77.5038 108.994L77.5038 103.297L80.7144 107.004L80.7144 107.616C80.9871 107.484 81.2581 107.35 81.5273 107.213L81.1609 106.79L81.1609 95.6751L85.1171 98.994L85.1171 105.139C85.2659 105.042 85.4141 104.945 85.5615 104.846L85.5615 99.3669L89.0152 102.263C89.143 102.156 89.2701 102.048 89.3966 101.94L85.5615 98.7246L85.5615 86.7335L91.364 89.6639L91.364 100.14C91.5139 99.9932 91.6628 99.8454 91.8105 99.6965L91.8105 89.8904L97.3663 92.6928C97.4561 92.5495 97.5451 92.4055 97.6333 92.2609L91.8105 89.3223L91.8105 74.5472L99.6751 75.8201L99.6751 88.4682C99.8274 88.1449 99.9756 87.8193 100.12 87.4914L100.12 75.8924L103.188 76.3893C103.21 76.2183 103.23 76.0471 103.25 75.8755L100.12 75.3691L100.12 57.1873L100.946 57.0535C100.884 56.8881 100.821 56.7233 100.757 56.559L100.12 56.6622L100.12 55.0207C99.9756 54.6928 99.8274 54.3672 99.6751 54.0439L99.6751 56.7325L91.8105 58.0054L91.8105 43.2303L92.0828 43.0929C91.8469 42.8504 91.608 42.6109 91.366 42.3744L91.366 42.8926L85.5636 45.821L85.5636 37.6671C85.4155 37.5682 85.2666 37.4702 85.1171 37.3732L85.1171 46.0436L81.1609 48.0408L81.1609 37.5198L82.9196 36.0454C82.7666 35.9595 82.6131 35.8747 82.4589 35.7908L81.1588 36.8814L81.1588 35.1139C81.0112 35.0405 80.8631 34.9679 80.7144 34.8962L80.7144 37.2543L77.5038 39.9465L77.5038 33.5182C77.3554 33.4621 77.2065 33.4068 77.0573 33.3524L77.0573 40.3214L74.4676 42.4924L74.4676 33.4961L75.1476 32.7107C74.9809 32.6594 74.8137 32.6091 74.6461 32.5598L74.4676 32.766L74.4676 32.5079C74.3191 32.465 74.1703 32.423 74.0211 32.3819L74.0211 33.2775L72.2995 35.2649L72.2995 31.948C72.1516 31.9142 72.0035 31.8813 71.855 31.8491L71.855 35.7803L70.3349 37.5354L70.3296 31.5502C70.1815 31.5241 70.0332 31.4989 69.8846 31.4745L69.8904 38.0509L68.4699 39.6927L68.4699 33.1838L68.4679 33.1838L69.6452 31.436C69.474 31.4089 69.3024 31.383 69.1305 31.3581L68.4679 32.3423L68.4679 31.268C68.3193 31.249 68.1705 31.2309 68.0214 31.2136L68.0214 33.0042L67.0162 34.4957L67.0162 31.1097C66.8676 31.0962 66.7188 31.0836 66.5697 31.0717L66.5697 35.1575L65.494 36.7565L65.494 31.2061L65.6027 31.0066C65.4317 30.9971 65.2604 30.9887 65.0888 30.9814L64.25 32.52L64.25 100.035L64.2853 100.099L70.218 110.981ZM65.494 101.35L65.494 95.8L66.5697 97.397L66.5697 103.322L65.494 101.35ZM72.2995 61.6894L74.0211 61.4102L74.0211 71.1463L72.2995 70.8671L72.2995 61.6894ZM71.855 70.7949L70.366 70.5528L70.3577 62.0017L71.855 61.7596L71.855 70.7949ZM74.0211 80.3456L72.2995 79.4768L72.2995 71.3903L74.0211 71.6676L74.0211 80.3456ZM74.4676 71.7418L77.0573 72.1615L77.0573 81.8781L74.4676 80.5701L74.4676 71.7418ZM72.2995 61.1642L72.2995 53.0777L74.0211 52.209L74.0211 60.885L72.2995 61.1642ZM74.4676 51.9845L77.0573 50.6784L77.0573 60.395L74.4676 60.8147L74.4676 51.9845ZM77.0573 60.9182L77.0573 71.6363L74.4676 71.2166L74.4676 61.336L77.0573 60.9182ZM77.5038 60.846L80.7144 60.3266L80.7144 72.2279L77.5038 71.7086L77.5038 60.846ZM80.7144 72.7531L80.7144 83.7231L77.5038 82.1027L77.5038 72.2337L80.7144 72.7531ZM80.7144 84.2892L80.7144 94.6599L77.5038 91.9676L77.5038 82.6688L80.7144 84.2892ZM77.0573 91.5948L74.4676 89.4218L74.4676 81.1363L77.0573 82.4443L77.0573 91.5948ZM74.0211 89.0489L72.2995 87.6062L72.2995 80.043L74.0211 80.9117L74.0211 89.0489ZM71.855 87.2333L70.3806 85.9975L70.3743 79.0727L71.855 79.8185L71.855 87.2333ZM70.3722 78.5065L70.366 71.0799L71.853 71.3201L71.853 79.2523L70.3722 78.5065ZM69.9278 78.28L68.4679 77.544L68.4679 70.7715L69.9216 71.0058L69.9278 78.28ZM68.4679 70.2463L68.4679 62.3082L69.9112 62.074L69.9195 70.4825L68.4679 70.2463ZM68.4679 61.785L68.4679 55.0125L69.905 54.2882L69.9112 61.5527L68.4679 61.785ZM70.3494 54.0617L71.855 53.3023L71.855 61.2345L70.3577 61.4766L70.3494 54.0617ZM70.3494 53.4975L70.3432 46.5902L71.855 45.3232L71.855 52.738L70.3494 53.4975ZM72.2995 44.9483L74.0211 43.5056L74.0211 51.6428L72.2995 52.5116L72.2995 44.9483ZM74.4676 43.1327L77.0573 40.9598L77.0573 50.1102L74.4676 51.4163L74.4676 43.1327ZM77.5038 40.5869L80.7144 37.8947L80.7144 48.2673L77.5038 49.8877L77.5038 40.5869ZM80.7144 48.8315L80.7144 59.8015L77.5038 60.3208L77.5038 50.4519L80.7144 48.8315ZM81.1588 48.607L85.115 46.6098L85.115 59.0889L81.1588 59.7292L81.1588 48.607ZM85.1171 59.6141L85.1171 72.9405L81.1609 72.3001L81.1609 60.2544L85.1171 59.6141ZM85.1171 73.4657L85.1171 85.9448L81.1609 83.9476L81.1609 72.8253L85.1171 73.4657ZM85.1171 86.511L85.1171 98.3517L81.1609 95.0328L81.1609 84.5118L85.1171 86.511ZM80.7144 106.272L77.5038 102.565L77.5038 92.608L80.7144 95.3002L80.7144 106.272ZM77.0573 102.051L74.4676 99.0604L74.4676 90.0641L77.0573 92.2351L77.0573 102.051ZM74.0211 98.545L72.2995 96.5575L72.2995 88.2465L74.0211 89.6893L74.0211 98.545ZM71.855 96.0441L70.3889 94.3514L70.3826 86.6398L71.855 87.8756L71.855 96.0441ZM69.9424 93.836L68.4679 92.1336L68.4679 85.035L69.934 86.265L69.9424 93.836ZM68.4679 84.3927L68.4679 78.1102L69.9278 78.8462L69.9361 85.6227L68.4679 84.3927ZM68.0214 84.0198L67.0162 83.1784L67.0162 77.38L68.0214 77.8857L68.0214 84.0198ZM67.0162 76.8119L67.0162 70.5372L68.0214 70.6992L68.0214 77.3176L67.0162 76.8119ZM67.0162 70.012L67.0162 62.5445L68.0214 62.3824L68.0214 70.176L67.0162 70.012ZM67.0162 62.0193L67.0162 55.7446L68.0214 55.237L68.0214 61.8573L67.0162 62.0193ZM67.0162 55.1784L67.0162 49.3781L68.0214 48.5367L68.0214 54.6708L67.0162 55.1784ZM68.4679 48.1618L69.8987 46.9631L69.905 53.722L68.4679 54.4463L68.4679 48.1618ZM68.4679 47.5215L68.4679 40.4229L69.8904 38.7791L69.8967 46.3228L68.4679 47.5215ZM70.3349 38.2656L71.855 36.5124L71.855 44.6828L70.3432 45.9518L70.3349 38.2656ZM72.2995 35.997L74.0211 34.0115L74.0211 42.8672L72.2995 44.3099L72.2995 35.997ZM91.364 43.4568L91.364 58.0776L85.5615 59.0167L85.5615 46.3852L91.364 43.4568ZM91.364 58.6028L91.364 73.9518L85.5615 73.0127L85.5615 59.5418L91.364 58.6028ZM91.364 74.4769L91.364 89.0978L85.5615 86.1693L85.5615 73.5359L91.364 74.4769ZM74.0211 107.621L72.2995 105.066L72.2995 97.2896L74.0211 99.2771L74.0211 107.621ZM71.855 104.404L70.3951 102.237L70.3889 95.0835L71.855 96.7762L71.855 104.404ZM69.9486 101.573L68.4679 99.3727L68.4679 92.8638L69.9424 94.5662L69.9486 101.573ZM68.0214 98.7109L67.0162 97.2174L67.0162 91.1887L68.0214 92.3483L68.0214 98.7109ZM67.0162 90.4585L67.0162 83.8187L68.0214 84.6602L68.0214 91.6182L67.0162 90.4585ZM65.4961 88.7014L65.4961 82.5419L66.5718 83.4439L66.5718 89.9431L65.4961 88.7014ZM65.494 81.8996L65.494 76.6089L66.5697 77.1516L66.5697 82.8016L65.494 81.8996ZM65.494 76.0446L65.494 70.2912L66.5697 70.465L66.5697 76.5874L65.494 76.0446ZM65.494 69.766L65.494 62.7905L66.5697 62.6167L66.5697 69.9417L65.494 69.766ZM65.494 62.2653L65.494 56.5118L66.5697 55.9691L66.5697 62.0915L65.494 62.2653ZM65.494 55.9457L65.494 50.6549L66.5697 49.753L66.5697 55.4029L65.494 55.9457ZM65.494 50.0146L65.494 43.8551L66.5697 42.6134L66.5697 49.1126L65.494 50.0146ZM67.0162 42.098L68.0214 40.9364L68.0214 47.8944L67.0162 48.7358L67.0162 42.098ZM67.0162 41.3659L67.0162 35.3372L68.0214 33.8456L68.0214 40.2062L67.0162 41.3659ZM99.6751 57.2576L99.6751 75.295L91.8105 74.0221L91.8105 58.5286L99.6751 57.2576ZM69.9548 109.534L68.4658 106.803L68.4658 100.216L69.9486 102.418L69.9548 109.534ZM68.0214 105.985L67.0162 104.142L67.0162 98.0608L68.0214 99.5523L68.0214 105.985ZM65.494 94.9586L65.494 89.4316L66.5697 90.6733L66.5697 96.5556L65.494 94.9586ZM65.0496 94.2967L64.6965 93.7716L64.6965 88.5101L65.0496 88.9181L65.0496 94.2967ZM64.6965 87.778L64.6965 81.8703L65.0496 82.1671L65.0496 88.186L64.6965 87.778ZM64.6965 81.23L64.6965 76.2067L65.0496 76.3844L65.0496 81.5267L64.6965 81.23ZM64.6965 75.6405L64.6965 70.1604L65.0496 70.217L65.0496 75.8182L64.6965 75.6405ZM64.6965 69.6372L64.6965 62.9193L65.0496 62.8627L65.0496 69.6938L64.6965 69.6372ZM64.6965 62.3941L64.6965 56.916L65.0496 56.7383L65.0496 62.3395L64.6965 62.3941ZM64.6965 56.3498L64.6965 51.3246L65.0496 51.0278L65.0496 56.1702L64.6965 56.3498ZM64.6965 50.6842L64.6965 44.7785L65.0496 44.3705L65.0496 50.3875L64.6965 50.6842ZM64.6965 44.0464L64.6965 38.7849L65.0496 38.2598L65.0496 43.6384L64.6965 44.0464ZM65.494 37.5979L66.5697 35.999L66.5697 41.8813L65.494 43.1229L65.494 37.5979ZM64.6965 99.8842L64.6965 94.613L65.0496 95.1382L65.0495 100.532L64.6965 99.8842ZM65.0496 32.0221L65.0496 37.4183L64.6965 37.9435L64.6965 32.6703L65.0496 32.0221Z" stroke="url(#paint4_linear_1753_287)" mask="url(#path-5-outside-2_1753_287)"/>
<path d="M22 103.449C22 110.353 27.5964 115.95 34.5 115.952C41.4036 115.953 47 110.358 47 103.454C47 96.5505 41.4036 90.953 34.5 90.9516C27.5964 90.9502 22 96.5455 22 103.449Z" fill="#CE1C7D"/>
<path fill-rule="evenodd" clip-rule="evenodd" d="M34.5 88.9511C42.5081 88.9528 49 95.446 49 103.454C49 111.462 42.5081 117.953 34.5 117.951C26.4919 117.95 20 111.456 20 103.448C20 95.44 26.4919 88.9495 34.5 88.9511ZM44.5694 103.453C44.5694 97.892 40.0612 93.3828 34.5 93.3817C28.9388 93.3806 24.4306 97.8879 24.4306 103.449C24.4306 109.01 28.9388 113.519 34.5 113.521C40.0612 113.522 44.5694 109.014 44.5694 103.453Z" fill="black"/>
<path d="M80 103.449C80 110.353 85.5964 115.95 92.5 115.952C99.4036 115.953 105 110.358 105 103.454C105 96.5505 99.4036 90.953 92.5 90.9516C85.5964 90.9502 80 96.5455 80 103.449Z" fill="#CE1C7D"/>
<path fill-rule="evenodd" clip-rule="evenodd" d="M92.5 88.9511C100.508 88.9528 107 95.446 107 103.454C107 111.462 100.508 117.953 92.5 117.951C84.4919 117.95 78 111.456 78 103.448C78 95.44 84.4919 88.9495 92.5 88.9511ZM102.569 103.453C102.569 97.892 98.0612 93.3828 92.5 93.3817C86.9388 93.3806 82.4306 97.8879 82.4306 103.449C82.4306 109.01 86.9388 113.519 92.5 113.521C98.0612 113.522 102.569 109.014 102.569 103.453Z" fill="black"/>
<defs>
<radialGradient id="paint0_radial_1753_287" cx="0" cy="0" r="1" gradientUnits="userSpaceOnUse" gradientTransform="translate(63.2503 70.9814) rotate(90) scale(34.8648 52.193)">
<stop stop-color="#391A6A"/>
<stop offset="0.3401" stop-color="#331763"/>
<stop offset="0.824" stop-color="#230E51"/>
<stop offset="1" stop-color="#1C0A48"/>
</radialGradient>
<linearGradient id="paint1_linear_1753_287" x1="23.2493" y1="67.2413" x2="64.2493" y2="67.2413" gradientUnits="userSpaceOnUse">
<stop stop-color="#DC1D80"/>
<stop offset="0.3743" stop-color="#DA1D7F" stop-opacity="0.6257"/>
<stop offset="0.519" stop-color="#D31C7D" stop-opacity="0.481"/>
<stop offset="0.6238" stop-color="#C71C79" stop-opacity="0.3762"/>
<stop offset="0.7095" stop-color="#B61A74" stop-opacity="0.2905"/>
<stop offset="0.7835" stop-color="#9F196D" stop-opacity="0.2165"/>
<stop offset="0.8493" stop-color="#841764" stop-opacity="0.1507"/>
<stop offset="0.9092" stop-color="#63155A" stop-opacity="0.0908"/>
<stop offset="0.9627" stop-color="#3E124F" stop-opacity="0.0373"/>
<stop offset="1" stop-color="#1F1045" stop-opacity="0"/>
</linearGradient>
<linearGradient id="paint2_linear_1753_287" x1="23.2493" y1="67.2413" x2="64.2493" y2="67.2413" gradientUnits="userSpaceOnUse">
<stop stop-color="#DC1D80"/>
<stop offset="0.3743" stop-color="#DA1D7F" stop-opacity="0.6257"/>
<stop offset="0.519" stop-color="#D31C7D" stop-opacity="0.481"/>
<stop offset="0.6238" stop-color="#C71C79" stop-opacity="0.3762"/>
<stop offset="0.7095" stop-color="#B61A74" stop-opacity="0.2905"/>
<stop offset="0.7835" stop-color="#9F196D" stop-opacity="0.2165"/>
<stop offset="0.8493" stop-color="#841764" stop-opacity="0.1507"/>
<stop offset="0.9092" stop-color="#63155A" stop-opacity="0.0908"/>
<stop offset="0.9627" stop-color="#3E124F" stop-opacity="0.0373"/>
<stop offset="1" stop-color="#1F1045" stop-opacity="0"/>
</linearGradient>
<linearGradient id="paint3_linear_1753_287" x1="103.25" y1="67.2413" x2="64.25" y2="67.2413" gradientUnits="userSpaceOnUse">
<stop stop-color="#DC1D80"/>
<stop offset="0.3957" stop-color="#DA1D7F" stop-opacity="0.6043"/>
<stop offset="0.5383" stop-color="#D31C7D" stop-opacity="0.4617"/>
<stop offset="0.6399" stop-color="#C81C7A" stop-opacity="0.3601"/>
<stop offset="0.7222" stop-color="#B71A74" stop-opacity="0.2778"/>
<stop offset="0.7926" stop-color="#A1196D" stop-opacity="0.2074"/>
<stop offset="0.8549" stop-color="#851765" stop-opacity="0.1451"/>
<stop offset="0.9113" stop-color="#65155B" stop-opacity="0.0887"/>
<stop offset="0.9614" stop-color="#41124F" stop-opacity="0.0386"/>
<stop offset="1" stop-color="#1F1045" stop-opacity="0"/>
</linearGradient>
<linearGradient id="paint4_linear_1753_287" x1="103.25" y1="67.2413" x2="64.25" y2="67.2413" gradientUnits="userSpaceOnUse">
<stop stop-color="#DC1D80"/>
<stop offset="0.3957" stop-color="#DA1D7F" stop-opacity="0.6043"/>
<stop offset="0.5383" stop-color="#D31C7D" stop-opacity="0.4617"/>
<stop offset="0.6399" stop-color="#C81C7A" stop-opacity="0.3601"/>
<stop offset="0.7222" stop-color="#B71A74" stop-opacity="0.2778"/>
<stop offset="0.7926" stop-color="#A1196D" stop-opacity="0.2074"/>
<stop offset="0.8549" stop-color="#851765" stop-opacity="0.1451"/>
<stop offset="0.9113" stop-color="#65155B" stop-opacity="0.0887"/>
<stop offset="0.9614" stop-color="#41124F" stop-opacity="0.0386"/>
<stop offset="1" stop-color="#1F1045" stop-opacity="0"/>
</linearGradient>
</defs>
</svg>
