<svg width="129" height="129" viewBox="0 0 129 129" fill="none" xmlns="http://www.w3.org/2000/svg">
<path d="M33.5802 46.501C33.5802 63.5769 47.423 77.4192 64.4989 77.4186C81.5749 77.418 95.4177 63.5748 95.4177 46.4988C95.4177 29.4229 81.5749 15.5806 64.4989 15.5812C47.423 15.5818 33.5802 29.425 33.5802 46.501Z" fill="#40392C"/>
<path fill-rule="evenodd" clip-rule="evenodd" d="M91.8375 46.499C91.8375 31.4003 79.5976 19.1608 64.4988 19.1613C49.4001 19.1619 37.1602 31.4022 37.1602 46.501C37.1602 61.5997 49.4001 73.8392 64.4988 73.8387C79.5976 73.8381 91.8375 61.5978 91.8375 46.499ZM64.4988 12.0012C83.552 12.0005 98.9976 27.4456 98.9976 46.4988C98.9976 65.552 83.552 80.9981 64.4988 80.9988C45.4457 80.9995 30 65.5544 30 46.5012C30 27.448 45.4457 12.0019 64.4988 12.0012Z" fill="black"/>
<path d="M26 71.5027C26 92.7657 43.237 110.002 64.5 110.001C85.763 110.001 103 92.763 103 71.5C103 50.237 85.763 33.0006 64.5 33.0013C43.237 33.0021 26 50.2397 26 71.5027Z" fill="#857659"/>
<path d="M24.215 102.497C24.215 109.28 29.7151 114.78 36.4997 114.782C43.2843 114.783 48.7844 109.285 48.7844 102.502C48.7844 95.7187 43.2843 90.2186 36.4997 90.2173C29.7151 90.2159 24.215 95.7138 24.215 102.497Z" fill="#C3AE85"/>
<path fill-rule="evenodd" clip-rule="evenodd" d="M36.4999 88.0029C44.508 88.0045 50.9999 94.4964 50.9999 102.503C50.9999 110.509 44.508 116.999 36.4999 116.997C28.4918 116.995 22 110.503 22 102.497C22 94.4905 28.4918 88.0013 36.4999 88.0029ZM46.5693 102.502C46.5693 96.9419 42.0611 92.4337 36.4999 92.4326C30.9388 92.4314 26.4305 96.9378 26.4305 102.498C26.4305 108.058 30.9388 112.566 36.4999 112.567C42.0611 112.568 46.5693 108.062 46.5693 102.502Z" fill="black"/>
<path d="M81.215 102.497C81.215 109.28 86.715 114.78 93.4996 114.782C100.284 114.783 105.784 109.285 105.784 102.502C105.784 95.7187 100.284 90.2186 93.4996 90.2173C86.715 90.2159 81.215 95.7138 81.215 102.497Z" fill="#C3AE85"/>
<path fill-rule="evenodd" clip-rule="evenodd" d="M93.4999 88.0029C101.508 88.0045 108 94.4964 108 102.503C108 110.509 101.508 116.999 93.4999 116.997C85.4918 116.995 78.9999 110.503 78.9999 102.497C78.9999 94.4905 85.4918 88.0013 93.4999 88.0029ZM103.569 102.502C103.569 96.9419 99.0611 92.4337 93.4999 92.4326C87.9387 92.4314 83.4305 96.9378 83.4305 102.498C83.4305 108.058 87.9387 112.566 93.4999 112.567C99.0611 112.568 103.569 108.062 103.569 102.502Z" fill="black"/>
</svg>
