<svg width="129" height="129" viewBox="0 0 129 129" fill="none" xmlns="http://www.w3.org/2000/svg">
<path d="M32.3633 47.1233C32.3633 64.5203 46.4663 78.6228 63.8633 78.6222C81.2602 78.6216 95.3633 64.5181 95.3633 47.1211C95.3633 29.7241 81.2603 15.6216 63.8633 15.6222C46.4663 15.6228 32.3633 29.7263 32.3633 47.1233Z" fill="#613721"/>
<path fill-rule="evenodd" clip-rule="evenodd" d="M64.3633 12.6223C83.141 12.6216 98.3633 27.8434 98.3633 46.6211C98.3633 65.3988 83.141 80.6216 64.3633 80.6223C45.5856 80.6229 30.3633 65.4011 30.3633 46.6235C30.3633 27.8458 45.5856 12.6229 64.3633 12.6223ZM93.173 46.6213C93.173 30.7101 80.2745 17.812 64.3633 17.8125C48.4521 17.8131 35.5535 30.7121 35.5535 46.6233C35.5535 62.5345 48.4521 75.4326 64.3633 75.432C80.2745 75.4315 93.173 62.5325 93.173 46.6213Z" fill="black"/>
<path d="M22.3633 70.1211C22.3633 47.4774 40.7316 29.1211 63.3633 29.1211C85.995 29.1211 104.363 47.4774 104.363 70.1211C104.363 92.7648 85.995 111.121 63.3633 111.121C40.7316 111.121 22.3633 92.7648 22.3633 70.1211Z" fill="#8D5233"/>
<path d="M35.8425 47.9757C33.2334 50.7514 28.0521 59.097 29.4954 65.1481C30.9388 71.2176 29.7915 77.8423 30.6427 80.7475C31.5124 83.6342 32.2341 92.1464 37.5635 95.0331C42.8928 97.9199 50.7018 100.955 55.0319 103.12C59.362 105.285 70.6314 104.563 75.239 101.676C79.8652 98.7896 86.786 94.4595 89.8207 93.0161C92.8555 91.5728 97.4632 86.2249 97.0376 78.7305C96.6119 71.2176 97.2411 64.7225 97.0746 61.8357C96.908 58.949 92.2819 49.1415 88.8215 46.8284C85.3611 44.5153 78.7179 38.1682 74.5359 36.8729C70.3538 35.5776 60.9719 38.7419 56.0497 38.1682C51.1459 37.5946 40.3207 43.22 35.8425 47.9757Z" fill="#DA9157"/>
<path d="M92.0039 70.4972C92.1889 71.4594 92.3 71.848 92.3 71.848C92.6146 72.9768 92.9106 73.3469 92.8551 74.4017C92.7996 75.9561 92.1704 76.5852 91.2637 78.5837C89.8389 81.785 90.6716 82.1736 89.5243 84.7828C89.0061 85.9671 87.5998 89.2054 84.4725 90.8523C82.0669 92.1107 80.7901 91.315 78.9951 93.0174C77.9033 94.0351 77.7923 94.8864 76.4044 95.7561C75.4977 96.3297 74.6095 96.5518 73.2216 96.7738C69.7428 97.3105 68.91 96.8849 66.5785 97.1994C62.711 97.7176 62.6925 99.2165 59.8798 99.0869C58.1588 99.0129 56.919 98.4023 54.4579 97.1994C51.9412 95.9596 51.7007 95.386 49.4061 94.1647C45.3351 91.9811 44.8169 93.1099 42.6519 91.5185C40.7459 90.1307 41.5601 89.5755 37.4151 83.6355C36.0272 81.6555 35.5091 81.0819 35.102 79.731C34.5653 77.9176 34.9909 77.1219 34.5283 74.3832C34.1582 72.1626 33.7696 72.0701 33.5106 70.4787C33.0295 67.4994 33.9177 65.0568 34.5283 63.4099C35.9717 59.4499 37.193 60.116 38.8584 55.7674C39.5801 53.88 39.8022 52.5476 41.19 51.1228C42.1893 50.0865 42.5594 50.2901 44.0582 48.9762C46.2048 47.1258 46.0012 46.256 47.6667 45.0717C48.7029 44.35 48.7954 44.6461 51.8487 43.4803C55.2351 42.185 55.2906 41.7409 57.0485 41.3153C57.5667 41.1857 58.1773 41.0747 62.748 41.2413C66.5415 41.3708 68.4844 41.4818 70.1869 41.8889C70.7975 42.037 72.3149 42.6106 75.3867 43.7579C78.736 45.0162 79.7353 45.4973 80.8641 46.3486C82.2149 47.3848 83.0846 48.5876 83.4547 49.0872C84.5095 50.4936 84.3985 50.8452 85.4717 52.3996C86.656 54.139 87.0632 54.1205 88.5065 56.008C89.2652 57.0073 90.1719 58.1916 90.9676 59.9125C91.8189 61.763 92.5775 63.4284 92.411 65.5379C92.3 67.1663 91.6893 68.8503 92.0039 70.4972Z" fill="#FFD888"/>
<path d="M67.3557 70.6083C67.2446 71.367 66.782 71.9592 66.5785 72.1997C66.4674 72.3292 66.1529 72.7178 65.5792 73.1064C64.8945 73.5691 63.5437 74.4758 62.2114 74.0317C61.3972 73.7541 60.9716 73.1064 60.583 72.5328C60.2684 72.0702 59.7317 71.2745 59.8058 70.2197C59.8428 69.7016 60.0463 69.35 60.4349 68.6283C60.9901 67.592 61.3231 66.9999 61.9708 66.7408C62.5074 66.5188 63.0256 66.6113 63.9878 66.8148C64.654 66.9444 65.0611 67.0184 65.5052 67.2775C66.597 67.8511 67.5777 69.2205 67.3557 70.6083Z" fill="#DA9157"/>
<path d="M63.1378 83.6357C60.5842 83.8023 58.5487 82.5625 57.938 82.1554C56.4021 81.1376 56.6057 80.5269 54.5702 79.1761C53.3119 78.3249 52.8307 78.3064 51.9795 77.4367C51.7019 77.1591 50.7767 76.1968 50.2401 74.6425C49.7775 73.3101 49.8515 72.2553 49.981 70.4789C50.1661 67.9623 50.7767 66.1118 50.9988 65.4086C51.776 63.151 52.1831 61.9667 53.3119 60.8935C53.9595 60.2643 54.0705 60.4308 57.642 58.5804C60.1771 57.2851 60.3066 57.1 61.1023 56.952C63.0638 56.5819 64.7663 57.1555 65.4879 57.4146C67.0423 57.9512 67.0238 58.4138 69.0779 59.1725C70.5767 59.7277 70.8173 59.5611 71.465 60.0608C72.3902 60.7454 72.4087 61.3931 73.5005 63.0215C74.5552 64.6129 74.7403 64.2983 75.3324 65.3346C76.3687 67.1666 76.3132 69.054 76.2762 70.4974C76.2392 71.6632 76.2022 72.94 75.5175 74.3834C75.1474 75.1606 74.9994 75.1606 73.5005 77.0851C71.539 79.6202 71.465 80.0828 70.4287 80.8415C69.8921 81.2301 69.2074 81.5077 67.838 82.0998C65.4324 83.0621 64.2296 83.5617 63.1378 83.6357ZM62.9343 59.8202C60.9358 59.5981 59.3814 60.1718 58.8818 60.3753C58.1786 60.6714 56.7907 61.2451 55.81 62.6144C55.0883 63.6322 55.3659 63.9652 54.3851 65.5196C53.5894 66.7965 53.2378 66.815 53.0158 67.6292C52.7752 68.5174 53.1268 68.721 53.2193 70.4789C53.3119 72.2553 52.9603 72.3294 53.2193 73.1991C53.4044 73.8467 54.015 74.5129 55.2363 75.7897C56.0135 76.6039 56.6612 77.2146 57.938 78.3804C59.5109 79.8423 59.733 79.9718 60.0476 80.1198C60.6952 80.3789 61.5094 80.3789 63.1378 80.3789C63.8595 80.3789 64.7107 80.2309 65.7285 79.9348C66.6352 79.5462 66.7463 79.2131 68.4487 77.8438C70.3732 76.2894 70.7248 76.3079 71.2984 75.4196C71.539 75.0496 71.7795 74.4019 72.2607 73.1066C72.7603 71.7372 73.0194 71.0525 73.0379 70.4789C73.0564 69.9238 72.9453 69.7757 72.2607 67.7217C71.502 65.3716 71.539 65.2791 71.2059 64.6499C70.9468 64.1873 70.4102 63.2066 69.3739 62.3368C68.4302 61.5596 67.4865 61.2266 65.6175 60.5974C64.3036 60.1533 63.656 59.9127 62.9343 59.8202Z" fill="#F8C479"/>
<path d="M63.1752 93.8121C60.344 93.8306 58.253 93.368 56.4395 92.9609C51.9429 91.9431 49.5558 91.4065 48.2604 89.408C47.8348 88.7418 47.7978 88.3532 47.0021 87.1874C46.1324 85.8921 45.5588 85.4665 44.2819 84.0231C42.8016 82.3392 42.0614 81.5065 41.8023 80.8218C41.0436 78.8603 42.0799 78.2681 41.2842 75.733C40.9511 74.6782 40.692 74.5487 40.1739 72.9388C39.9889 72.3466 39.6373 71.2919 39.4892 70.1076C39.2672 68.4051 39.5077 67.1098 39.8963 65.2408C40.396 62.8167 40.655 61.4844 41.5803 59.93C42.3575 58.5977 42.6535 58.7272 44.615 56.0995C46.2619 53.8975 45.8918 54.0085 46.7246 53.1203C47.2242 52.5836 47.8533 52.01 51.6283 49.5674C53.0532 48.6421 53.7748 48.1795 53.9414 48.087C57.7904 46.0515 61.7689 46.292 63.1937 46.4401C65.2478 46.6621 64.9887 47.0137 67.8014 47.3653C70.4476 47.6984 71.1322 47.4208 72.3165 48.1425C73.5194 48.8457 73.4638 49.4934 75.2033 50.6406C76.2951 51.3623 76.5356 51.2513 77.5164 51.899C78.9782 52.8612 79.8295 54.0085 80.4771 54.8967C81.6799 56.5807 81.5504 57.0618 83.0123 59.893C84.6037 62.9833 84.9367 62.7427 85.7139 64.7042C86.6577 67.1098 86.8242 69.1638 86.8982 70.1631C87.0093 71.6065 87.1388 73.5124 86.4911 75.77C86.047 77.2874 85.2698 78.5642 83.6969 81.0624C82.1795 83.505 81.4023 84.7078 80.7177 85.485C79.7924 86.5027 79.3298 86.7433 72.3536 91.0734C70.3551 92.2947 69.6149 92.7758 68.3195 93.1829C66.3395 93.7936 64.7296 93.8121 63.1752 93.8121ZM63.1752 49.6784C59.9924 49.4934 59.5298 51.2143 55.8474 51.3068C54.1264 51.3438 53.4233 50.9922 52.4795 51.6029C51.5173 52.2135 51.6838 52.9352 50.37 54.3971C49.2227 55.6739 48.9081 55.3408 47.9644 56.5066C46.8911 57.8575 47.2057 58.3941 46.1324 59.4859C45.1702 60.4666 44.7261 60.2076 44.1154 61.0773C43.5973 61.8175 43.8193 62.1506 43.3567 64.0936C42.8941 65.9995 42.5795 66.0365 42.487 67.2208C42.3945 68.2016 42.5795 68.3681 42.7461 70.1261C42.9866 72.7537 42.598 72.7537 42.8756 74.1046C43.1902 75.585 43.6158 75.3444 44.7075 77.9536C45.5218 79.9151 45.3922 80.3037 46.1509 81.5065C46.7616 82.4872 46.9281 82.3577 47.9829 83.7825C49.4818 85.781 49.2227 86.1326 50.0739 86.8173C50.9806 87.5575 51.3692 87.2614 53.9414 88.1311C54.8111 88.4272 54.5891 88.3902 57.6978 89.667C61.1027 91.0549 61.4543 91.1289 61.9354 91.1104C63.5083 91.0549 63.6008 90.2592 65.8769 89.7596C67.8939 89.3154 68.2085 89.8521 69.7259 89.4635C71.2803 89.0749 71.4098 88.3902 74.3521 86.0956C77.5164 83.6345 78.3306 83.6715 79.4038 82.0061C80.144 80.8588 79.7739 80.8218 80.9027 78.6938C82.2166 76.1771 82.7717 76.1586 83.3083 74.5487C83.9375 72.6982 83.7524 71.0513 83.6414 70.0891C83.4379 68.2571 82.8827 66.9433 82.4386 65.8885C81.791 64.3711 81.5134 64.2601 80.3291 62.1506C78.0715 58.135 78.2936 57.1173 76.5726 55.5814C75.999 55.0633 75.962 55.1743 74.167 53.7494C72.039 52.0655 72.113 51.936 71.3728 51.5289C70.281 50.9367 69.7259 51.0107 66.9502 50.4741C63.6934 49.882 64.23 49.7339 63.1752 49.6784Z" fill="#F8C479"/>
<path d="M61.6758 35.2449C61.6758 35.2449 61.6758 39.5935 62.3605 40.4447C63.0451 41.2959 62.3605 43.6645 62.3605 43.6645C62.3605 43.6645 64.396 41.4995 64.5255 40.6482C64.655 39.797 63.4337 36.0221 64.5255 35.2634C65.6173 34.4862 61.6758 35.2449 61.6758 35.2449Z" fill="#8D5233"/>
<path d="M99.0346 71.1995L98.4609 70.9775V72.3283C98.4609 72.3283 96.0923 70.6074 94.797 70.6074C93.5017 70.6074 90.689 69.3306 90.689 69.3306C91.8362 69.4416 93.3721 69.1085 94.945 68.942C95.0561 68.9235 95.1671 68.9235 95.2781 68.9235C96.6845 67.5726 95.8333 66.5919 94.797 65.9812C92.4284 65.9997 87.4136 64.9449 85.082 66.6659C85.2486 66.5364 87.9503 64.2603 90.0413 64.4083C92.2063 64.5564 95.9443 63.3906 98.1834 61.5586L98.3499 64.4823L99.0346 71.1995Z" fill="#8D5233"/>
<path d="M85.5488 85.3184C85.5488 85.3184 87.1772 89.0748 88.9167 89.8335C90.6561 90.6107 92.044 94.2561 92.044 94.2561L94.3941 91.1103C94.3941 91.1103 92.8582 89.2413 90.7301 88.7602C88.6391 88.3161 86.8997 87.6314 85.5488 85.3184Z" fill="#8D5233"/>
<path d="M55.625 104.859C55.625 104.859 58.0306 103.601 58.3267 102.638C58.6228 101.676 58.4192 98.6969 59.1039 97.8271C59.1039 97.8271 59.0854 99.8442 59.8071 101.343C60.5472 102.842 59.8071 105.34 59.8071 105.34L55.625 104.859Z" fill="#8D5233"/>
<path d="M36.9906 96.7721C36.9906 96.7721 37.2867 95.1807 38.7301 93.8113C40.1735 92.442 42.3385 90.7026 43.4858 88.6855C43.4858 88.6855 39.8774 91.4242 38.0084 91.8684C36.1394 92.3125 34.252 94.274 34.252 94.274L36.9906 96.7721Z" fill="#8D5233"/>
<path d="M28.627 57.9509C28.627 57.9509 29.6447 58.9686 31.5137 59.0056C33.3827 59.0611 34.9371 60.264 34.9371 60.264C34.9371 60.264 34.3264 58.4875 33.4012 57.9509C32.4759 57.4142 31.7542 55.2122 32.772 54.6385C33.7898 54.0649 34.9371 56.8221 34.9371 56.8221C34.9371 56.8221 35.4737 54.7866 34.641 53.4357C33.8268 52.0849 33.4012 48.4395 33.4012 48.4395L28.627 57.9509Z" fill="#8D5233"/>
<path d="M22.3633 103.116C22.3633 110.02 27.9597 115.617 34.8633 115.619C41.7668 115.62 47.3633 110.025 47.3633 103.121C47.3633 96.2175 41.7668 90.62 34.8633 90.6186C27.9597 90.6172 22.3633 96.2125 22.3633 103.116Z" fill="#DA9157"/>
<path fill-rule="evenodd" clip-rule="evenodd" d="M34.8633 88.6181C42.8714 88.6198 49.3633 95.113 49.3633 103.121C49.3633 111.129 42.8714 117.62 34.8633 117.618C26.8552 117.616 20.3633 111.123 20.3633 103.115C20.3633 95.107 26.8552 88.6165 34.8633 88.6181ZM44.9327 103.12C44.9327 97.559 40.4245 93.0498 34.8633 93.0487C29.3021 93.0476 24.7938 97.5549 24.7938 103.116C24.7938 108.677 29.3021 113.186 34.8633 113.188C40.4245 113.189 44.9327 108.681 44.9327 103.12Z" fill="black"/>
<path d="M80.3633 103.116C80.3633 110.02 85.9597 115.617 92.8633 115.619C99.7668 115.62 105.363 110.025 105.363 103.121C105.363 96.2175 99.7668 90.62 92.8633 90.6186C85.9597 90.6172 80.3633 96.2125 80.3633 103.116Z" fill="#DA9157"/>
<path fill-rule="evenodd" clip-rule="evenodd" d="M92.8633 88.6181C100.871 88.6198 107.363 95.113 107.363 103.121C107.363 111.129 100.871 117.62 92.8633 117.618C84.8552 117.616 78.3633 111.123 78.3633 103.115C78.3633 95.107 84.8552 88.6165 92.8633 88.6181ZM102.933 103.12C102.933 97.559 98.4245 93.0498 92.8633 93.0487C87.3021 93.0476 82.7938 97.5549 82.7938 103.116C82.7938 108.677 87.3021 113.186 92.8633 113.188C98.4245 113.189 102.933 108.681 102.933 103.12Z" fill="black"/>
</svg>
