<svg width="256" height="256" viewBox="0 0 256 256" fill="none" xmlns="http://www.w3.org/2000/svg">
<path d="M60.8271 117.027C63.3279 117.861 63.328 114.026 65.4954 114.36C66.6625 115.027 66.4957 116.194 66.1623 117.194C61.3273 135.2 67.4961 150.372 78.3332 164.211C82.1679 169.212 86.6695 171.713 93.3385 170.046C98.3402 168.712 103.842 169.212 108.844 171.213C113.012 172.88 117.18 174.381 121.348 175.881C130.685 179.049 131.685 181.05 128.017 190.386C127.684 191.22 127.517 191.887 127.017 193.221C132.519 193.388 136.854 190.887 141.022 188.719C148.191 184.885 147.524 179.549 139.855 173.714C145.69 172.547 151.359 173.214 157.027 172.047C164.363 170.546 170.532 167.545 176.201 162.71C177.201 161.877 178.368 160.876 179.535 160.209C186.204 155.374 186.538 155.541 189.539 164.211C195.874 151.039 199.542 138.202 197.375 123.696C196.041 115.193 194.541 106.857 191.54 98.6877C188.705 90.8516 184.204 84.3493 176.034 81.3483C174.7 80.8481 172.866 80.1812 172.7 79.3476C171.366 72.8453 165.03 70.8446 161.696 66.5098C159.195 66.8432 159.362 63.0085 156.861 63.342C155.027 65.3427 151.859 65.8429 150.692 68.5105C147.858 74.6793 142.356 76.1798 136.354 76.3465C128.851 76.5133 121.348 76.68 114.012 76.3465C108.677 76.0131 102.508 76.3465 101.341 68.6772C101.008 66.6765 99.0071 66.6765 97.3399 67.3434C93.6719 68.6772 90.3374 70.5112 87.5031 73.3455C77.4996 83.5157 66.4958 93.019 61.3273 106.857C60.8271 106.691 60.3269 106.524 59.8267 106.357C58.6596 107.191 58.3262 108.524 58.6597 109.858C60.9938 111.359 58.6596 114.86 60.8271 117.027ZM159.195 122.363C160.862 127.698 158.695 134.867 166.531 136.368C164.197 131.366 162.863 125.864 162.363 120.362C161.862 115.527 163.03 111.025 167.698 108.191C171.866 105.523 175.701 106.857 179.535 108.858C181.369 109.692 182.87 111.359 183.037 113.36C183.537 118.861 184.704 124.697 181.703 129.699C179.369 133.7 176.201 137.201 176.034 142.203C176.034 143.37 174.867 144.204 173.7 144.204C171.866 144.204 171.533 142.703 171.533 141.203C171.699 137.535 170.032 136.034 166.531 136.368C171.366 138.702 168.365 144.37 171.866 147.205C161.196 144.037 154.693 131.366 159.195 122.363ZM136.02 159.876C135.687 161.043 134.853 162.71 133.019 161.21C121.848 168.379 110.511 164.711 105.509 152.373C104.176 148.872 105.509 146.871 109.678 146.204C117.847 145.204 124.85 147.872 131.185 152.873C130.852 149.039 128.184 147.538 124.849 146.038C121.848 144.704 118.514 144.871 114.679 143.537C126.017 142.036 129.018 143.037 133.686 149.706C136.02 152.707 137.187 156.041 136.02 159.876ZM149.858 122.863C148.524 128.031 146.19 132.866 145.857 138.368C145.69 141.036 142.189 141.203 139.188 141.203C136.52 141.536 133.853 140.036 131.352 138.368C129.184 136.868 127.684 134.867 128.184 132.033C128.684 129.032 130.852 126.698 133.686 126.531C138.521 126.364 141.855 124.03 144.69 120.362C145.523 119.362 146.69 118.361 148.191 119.195C149.525 120.029 150.192 121.529 149.858 122.863ZM108.344 107.691C108.177 99.0212 111.011 94.6863 118.681 92.1854C122.849 90.8516 126.85 89.0176 131.518 89.6845C134.686 89.0176 137.854 88.3507 141.355 89.1844C148.191 91.0183 149.858 94.1861 147.024 100.855C146.19 102.689 145.357 104.356 144.523 106.024C148.691 105.023 149.025 106.857 147.024 109.692C141.022 118.195 125.85 123.363 116.68 120.195C107.844 117.194 105.343 115.027 104.342 105.357C106.343 104.857 106.676 107.524 108.344 107.691ZM83.1682 101.689C87.0029 104.356 90.5041 105.023 94.1721 101.689C94.839 101.022 96.3395 101.189 97.1732 102.189C98.0068 103.189 97.84 104.19 97.5066 105.19C95.0057 111.692 91.0043 112.693 86.1693 107.191C84.3353 105.023 82.1679 104.523 79.1668 103.856C80.6674 102.356 82.1679 101.022 83.1682 101.689ZM74.6653 117.694C81.0008 111.025 84.5021 111.359 88.0033 119.362C91.6712 127.698 94.839 136.368 91.6712 145.871C89.6705 151.873 86.6695 153.04 82.1679 149.039C77.6663 145.037 73.1647 140.869 71.4975 134.7C69.4968 128.365 70.1637 122.696 74.6653 117.694Z" fill="#DF9410"/>
<path d="M185.706 82.6809C180.538 76.6788 180.538 76.8455 184.706 70.6766C185.206 70.0097 186.706 69.3428 185.373 68.1758C183.705 68.009 182.705 69.1761 181.705 70.0097C177.87 73.8444 174.369 73.511 170.201 70.1765C167.7 68.1758 165.032 65.8416 161.364 66.1751C179.204 77.3457 194.376 90.5169 198.21 112.858C200.878 128.864 199.711 144.202 193.542 159.208C192.042 162.876 190.374 166.71 185.039 163.543C183.038 162.375 181.038 162.876 179.704 164.209C171.701 171.545 161.531 173.213 151.694 175.713C148.526 176.547 148.193 177.214 148.193 180.215C148.026 188.385 138.69 195.887 130.353 195.554C125.185 195.387 124.018 192.553 126.018 188.218C128.686 182.382 126.519 179.882 120.683 178.048C119.016 177.547 117.349 176.881 115.681 176.38C118.516 177.714 121.017 179.215 122.517 181.215C126.018 185.55 125.018 188.218 118.016 192.386C106.178 193.386 98.6755 186.384 91.6731 178.381C90.6727 177.214 91.0062 175.713 92.0065 174.546C96.5081 172.712 103.344 172.712 109.513 174.213C103.177 172.212 96.6748 171.045 89.5057 173.213C84.8374 174.546 80.3358 171.045 77.168 167.377C67.9981 156.54 60.9957 144.369 61.8293 129.697C62.3295 122.361 57.9946 116.193 58.4948 109.19C52.9929 126.53 52.1592 143.536 62.3294 159.541C67.8314 168.211 74.167 176.214 82.1698 182.883C86.0044 186.217 89.8391 189.218 84.8373 195.054C89.0055 194.387 90.506 189.552 95.0076 192.553C109.012 201.723 124.184 201.556 139.857 197.888C143.024 197.054 146.359 196.387 149.527 195.554C150.194 195.387 149.86 194.72 149.193 194.387C148.86 194.387 148.693 194.22 148.36 194.053C143.525 192.553 145.192 189.218 146.859 187.051C153.361 178.214 161.031 170.878 173.368 172.712C179.537 173.713 178.537 178.214 177.37 183.55C188.374 175.88 193.542 165.543 197.043 154.373C205.38 128.864 204.212 104.355 185.706 82.6809Z" fill="#F9F536"/>
<path d="M61.6636 130.032C60.8299 144.703 67.6657 156.874 77.0023 167.711C80.1701 171.379 84.6716 174.881 89.3399 173.547C96.5091 171.546 103.011 172.713 109.347 174.547C111.514 175.047 113.682 175.714 115.682 176.715C117.35 177.382 119.017 177.882 120.684 178.382C126.52 180.216 128.687 182.717 126.019 188.552C124.185 192.72 125.353 195.721 130.354 195.888C138.691 196.221 148.027 188.719 148.194 180.549C148.361 177.382 148.527 176.715 151.695 176.048C161.532 173.547 171.702 171.713 179.705 164.544C181.205 163.21 183.206 162.71 185.04 163.877C190.209 167.211 191.876 163.21 193.543 159.542C199.712 144.537 200.879 129.198 198.211 113.192C194.377 90.8512 179.372 77.6799 161.365 66.5094C164.866 71.0109 171.202 73.0116 172.369 79.3472C172.536 80.1808 174.536 81.0145 175.704 81.3479C183.873 84.349 188.375 90.6845 191.209 98.6873C194.043 106.857 195.711 115.193 197.044 123.696C199.212 138.034 195.544 150.872 189.208 164.21C186.207 155.541 185.874 155.374 179.205 160.209C178.038 161.042 177.037 161.876 175.87 162.71C170.368 167.545 164.033 170.546 156.697 172.046C151.028 173.213 145.36 172.547 139.524 173.714C147.194 179.549 147.86 185.051 140.691 188.719C136.523 190.886 132.188 193.554 126.686 193.22C127.187 191.887 127.353 191.22 127.687 190.386C131.355 181.049 130.354 179.049 121.018 175.881C116.85 174.38 112.681 172.88 108.513 171.213C103.512 169.212 98.0097 168.712 93.0079 170.046C86.1722 171.713 81.8373 169.212 78.0027 164.21C67.3322 150.205 61.1634 135.033 65.8317 117.194C66.1651 116.193 66.3319 115.026 65.1648 114.359C62.9974 114.193 63.1641 117.861 60.4965 117.027C58.3291 115.026 60.6632 111.358 57.8289 109.524C57.6622 116.527 61.997 122.696 61.6636 130.032Z" fill="#F9F536"/>
<path d="M135.521 74.5115C141.523 74.5115 146.692 72.8443 149.359 67.1756C151.027 63.6744 153.694 63.341 156.695 63.0075C152.194 60.8401 147.525 59.0061 142.357 58.3392C144.358 61.507 149.026 62.8408 147.692 67.1756C146.358 71.3438 142.024 71.6772 138.356 72.6776C137.355 73.011 136.188 73.011 135.188 73.011C133.02 73.5112 130.853 74.0114 128.686 74.1781C130.853 74.5115 133.187 74.5115 135.521 74.5115Z" fill="#F6E83D"/>
<path d="M87.0057 69.8435C89.6733 67.6761 92.5077 66.0089 95.5087 64.8418C98.8432 63.6747 102.011 64.3416 103.345 67.5094C105.512 73.178 110.014 73.8449 114.849 73.6782C116.016 73.6782 117.183 73.6782 118.35 73.6782C114.849 72.8446 111.514 71.5108 108.347 69.5101C104.845 64.3416 104.845 63.3413 108.847 60.1735C110.347 59.0064 112.181 58.0061 115.182 56.1721C97.8429 58.3395 85.3385 66.509 74.3346 77.0127C70.6667 74.8453 68.8327 71.1773 64.998 69.5101C64.1644 72.8446 66.3318 74.6786 67.3321 76.6793C69.9997 82.1812 69.3329 85.8492 65.3315 89.8506C63.164 92.018 60.4964 90.184 57.6621 92.3514C62.8306 94.0187 61.9969 97.3532 60.6631 101.021C60.163 102.522 59.8295 104.189 59.4961 105.856C64.998 91.1844 74.8348 79.6803 87.0057 69.8435Z" fill="#F6E83D"/>
<path d="M60.9973 106.522C66.1658 92.5175 77.1697 83.1809 87.1732 73.0107C90.0075 70.1764 93.342 68.3424 97.01 67.0086C98.6772 66.3417 100.678 66.3417 101.011 68.3424C102.178 76.0117 108.347 75.6783 113.682 76.0117C121.185 76.5119 128.688 76.1785 136.024 76.0117C142.026 75.845 147.528 74.3445 150.362 68.1756C151.529 65.508 154.697 65.0079 156.531 63.0072C153.53 63.3406 150.695 63.6741 149.195 67.1753C146.527 72.844 141.359 74.5112 135.357 74.5112C133.023 74.5112 130.688 74.3445 128.354 74.1778C124.853 74.5112 121.519 74.3445 118.184 73.5108C117.017 73.5108 115.85 73.5108 114.683 73.5108C109.848 73.6776 105.346 73.0107 103.179 67.342C101.845 64.0075 98.6772 63.5073 95.3427 64.6744C92.1749 65.8415 89.3406 67.5087 86.8397 69.6762C74.6688 79.513 64.832 91.017 59.3301 105.856C59.997 106.189 60.4972 106.356 60.9973 106.522Z" fill="#F6E83D"/>
<path d="M148.192 194.387C149.86 185.717 149.86 185.55 158.863 184.55C161.197 184.216 163.031 183.549 164.698 181.882C167.533 178.881 171.034 176.547 173.201 173.046C166.032 176.047 159.03 179.548 152.527 183.549C148.526 186.05 145.358 189.051 148.192 194.387Z" fill="#735514"/>
<path d="M146.692 187.385C145.025 189.553 143.358 193.054 148.193 194.388C145.359 189.053 148.693 186.052 152.528 183.551C159.197 179.549 166.033 176.048 173.202 173.047C160.864 171.38 153.195 178.549 146.692 187.385Z" fill="#735514"/>
<path d="M128.351 68.5105C128.518 66.0096 124.85 66.5098 122.85 66.8433C118.015 67.6769 113.179 68.5105 108.178 69.5109C117.181 69.5109 125.851 73.5123 134.854 73.1788C132.686 72.0117 128.018 74.6793 128.351 68.5105Z" fill="#805B12"/>
<path d="M128.521 74.3451C130.689 74.1784 132.856 73.8449 135.024 73.178C125.854 73.5115 117.351 69.3434 108.348 69.5101C111.682 71.5108 115.017 73.0113 118.351 73.6782C121.686 73.6782 125.187 74.0117 128.521 74.3451Z" fill="#805B12"/>
<path d="M128.52 74.3451C125.185 74.1784 121.684 73.8449 118.35 73.6782C121.684 74.3451 125.019 74.6786 128.52 74.3451Z" fill="#805B12"/>
<path d="M171.367 141.201C171.367 142.535 171.7 144.202 173.534 144.202C174.701 144.202 175.868 143.202 175.868 142.202C175.868 137.2 179.203 133.699 181.537 129.697C184.538 124.696 183.371 118.86 182.871 113.358C182.704 111.358 181.203 109.857 179.37 108.857C175.535 107.023 171.7 105.522 167.532 108.19C162.864 111.191 161.697 115.526 162.197 120.361C162.864 125.863 164.031 131.198 166.365 136.366C170.033 136.033 171.533 137.533 171.367 141.201Z" fill="#7F5012"/>
<path d="M134.19 112.025C132.189 111.858 130.188 111.358 128.354 110.358C123.853 108.023 121.018 104.522 121.018 99.3538C121.018 92.6847 126.854 91.5177 131.522 89.517C127.02 88.8501 122.852 90.684 118.684 92.0178C110.848 94.5187 108.18 99.0203 108.347 107.523C115.516 115.359 123.519 116.693 134.19 112.025Z" fill="#7F5111"/>
<path d="M121.018 99.3539C121.018 104.522 123.852 108.024 128.353 110.358C130.187 111.358 132.188 111.692 134.189 112.025C135.523 111.358 136.856 110.691 138.357 109.858C137.19 109.858 136.19 109.691 135.022 109.691C129.187 109.024 125.352 105.523 123.852 100.021C122.518 95.019 127.02 93.0183 130.354 90.6842C130.854 90.3507 131.188 89.8505 131.521 89.5171C126.853 91.6845 121.184 92.6849 121.018 99.3539Z" fill="#7F5111"/>
<path d="M84.8367 130.031C84.8367 137.7 81.0021 140.034 74.1663 136.366C73.166 135.866 72.3324 135.199 71.332 134.532C72.8326 140.868 77.5008 144.869 82.0024 148.871C86.504 152.872 89.505 151.705 91.5057 145.703C94.6735 136.2 91.5058 127.697 87.8378 119.194C84.3366 111.191 80.6686 110.857 74.4998 117.526C80.8354 119.527 84.8367 123.028 84.8367 130.031Z" fill="#7F4F12"/>
<path d="M131.521 152.872C125.186 148.037 118.017 145.37 110.014 146.203C105.679 146.704 104.512 148.871 105.846 152.372C110.847 164.71 122.185 168.378 133.355 161.209C133.355 158.208 133.189 155.373 131.521 152.872Z" fill="#815111"/>
<path d="M144.692 120.361C141.858 124.196 138.523 126.363 133.688 126.53C130.854 126.697 128.853 129.031 128.186 132.032C127.686 134.866 129.187 136.867 131.354 138.367C133.855 140.201 136.523 141.535 139.19 141.202C142.191 141.035 145.693 141.035 145.859 138.367C146.193 132.865 148.527 128.03 149.861 122.862C150.194 121.528 149.527 120.028 148.193 119.361C146.693 118.36 145.359 119.361 144.692 120.361Z" fill="#824F0D"/>
<path d="M116.517 120.195C125.687 123.363 140.859 118.028 146.861 109.691C148.862 106.857 148.529 105.023 144.36 106.023C144.36 110.358 141.693 111.859 137.858 112.192C137.525 112.192 137.191 112.192 136.858 112.192C133.523 116.694 127.855 118.861 120.685 117.694C114.85 116.694 108.181 116.194 108.181 107.691C106.514 107.524 106.18 104.856 104.18 105.356C105.18 115.027 107.681 117.194 116.517 120.195Z" fill="#F9EE3A"/>
<path d="M137.021 112.025C137.355 112.025 137.688 112.025 138.022 112.025C141.857 111.691 144.524 110.191 144.524 105.856C142.357 107.023 141.023 109.357 138.355 109.857C137.855 110.691 137.522 111.358 137.021 112.025Z" fill="#F9EE3A"/>
<path d="M120.852 117.694C128.021 118.861 133.857 116.694 137.024 112.192C136.024 112.192 135.19 112.192 134.19 112.026C123.52 116.861 115.517 115.36 108.348 107.691C108.348 116.194 115.017 116.694 120.852 117.694Z" fill="#F9EE3A"/>
<path d="M134.189 112.025C135.19 112.191 136.023 112.191 137.024 112.191C137.524 111.524 138.024 110.691 138.358 110.024C136.857 110.691 135.523 111.358 134.189 112.025Z" fill="#F9EE3A"/>
<path d="M171.869 147.204C168.368 144.37 171.202 138.535 166.534 136.367C158.865 134.867 160.865 127.697 159.198 122.362C154.696 131.365 161.199 144.037 171.869 147.204Z" fill="#FAD432"/>
<path d="M86.1724 107.357C91.0074 112.859 95.0088 111.859 97.5097 105.356C97.8431 104.356 98.0099 103.189 97.1763 102.355C96.3426 101.355 94.8421 101.188 94.1752 101.855C90.3405 105.19 86.8393 104.523 83.1713 101.855C82.171 101.188 80.6704 102.522 79.1699 104.022C82.171 104.689 84.3384 105.19 86.1724 107.357Z" fill="#FADB35"/>
<path d="M115.016 143.535C118.85 145.036 122.185 144.702 125.186 146.036C128.354 147.37 131.188 149.037 131.521 152.872C135.856 154.873 135.523 157.874 133.189 161.208C135.023 162.542 135.69 161.041 136.19 159.874C137.357 156.206 136.19 152.705 134.022 149.704C129.354 143.035 126.353 142.035 115.016 143.535Z" fill="#FBD73F"/>
<path d="M131.52 152.873C133.354 155.374 133.52 158.208 133.187 161.209C135.354 157.874 135.688 154.873 131.52 152.873Z" fill="#FBD73F"/>
<path d="M91.8398 174.714C94.8409 174.881 97.8419 174.38 100.009 177.381C104.678 184.05 111.347 188.219 118.016 192.553C125.018 188.385 126.185 185.718 122.517 181.383C121.017 179.549 118.516 177.882 115.682 176.548C113.514 175.881 111.513 175.047 109.346 174.38C103.01 173.047 96.3414 172.88 91.8398 174.714Z" fill="#7C5310"/>
<path d="M115.515 176.548C113.515 175.715 111.514 175.048 109.18 174.381C111.347 175.048 113.348 175.881 115.515 176.548Z" fill="#7C5310"/>
</svg>
