<svg width="128" height="128" viewBox="0 0 128 128" fill="none" xmlns="http://www.w3.org/2000/svg">
<path d="M32.5803 46.501C32.5803 63.5769 46.4236 77.4192 63.5001 77.4186C80.5766 77.418 94.4199 63.5748 94.4199 46.4988C94.4199 29.4229 80.5767 15.5806 63.5001 15.5812C46.4236 15.5818 32.5803 29.425 32.5803 46.501Z" fill="#100A26"/>
<path fill-rule="evenodd" clip-rule="evenodd" d="M90.8396 46.499C90.8396 31.4003 78.5993 19.1607 63.5 19.1612C48.4007 19.1617 36.1604 31.402 36.1604 46.5008C36.1604 61.5995 48.4007 73.839 63.5 73.8386C78.5993 73.8381 90.8396 61.5978 90.8396 46.499ZM63.5 12.0011C82.5538 12.0005 98 27.4456 98 46.4988C98 65.552 82.5538 80.9981 63.5 80.9987C44.4462 80.9993 29 65.5541 29 46.501C29 27.4478 44.4462 12.0017 63.5 12.0011Z" fill="black"/>
<path d="M25 71.5027C25 92.7657 42.237 110.002 63.5 110.001C84.763 110.001 102 92.763 102 71.5C102 50.237 84.763 33.0006 63.5 33.0013C42.237 33.0021 25 50.2397 25 71.5027Z" fill="url(#paint0_linear)"/>
<path fill-rule="evenodd" clip-rule="evenodd" d="M63.8177 47.3835C50.3232 47.3835 39.384 58.323 39.3845 71.8176C39.385 85.3121 50.3249 96.2516 63.8194 96.2516C77.314 96.2516 88.2531 85.3121 88.2526 71.8176C88.2522 58.323 77.3123 47.3835 63.8177 47.3835ZM34.6377 71.8176C34.6372 55.7014 47.7014 42.6367 63.8176 42.6367C79.9337 42.6367 92.9988 55.7014 92.9994 71.8176C93 87.9337 79.9357 100.998 63.8196 100.998C47.7035 100.998 34.6383 87.9337 34.6377 71.8176Z" fill="black"/>
<path fill-rule="evenodd" clip-rule="evenodd" d="M63.8178 58.2692C56.3352 58.2692 50.2696 64.335 50.2699 71.8176C50.2701 79.3002 56.3362 85.366 63.8187 85.366C71.3013 85.366 77.3669 79.3002 77.3666 71.8176C77.3664 64.335 71.3003 58.2692 63.8178 58.2692ZM45.5231 71.8176C45.5227 61.7135 53.7135 53.5225 63.8176 53.5225C73.9217 53.5225 82.1131 61.7135 82.1134 71.8176C82.1138 81.9217 73.923 90.1128 63.8189 90.1128C53.7148 90.1128 45.5235 81.9217 45.5231 71.8176Z" fill="black"/>
<path fill-rule="evenodd" clip-rule="evenodd" d="M63.8183 67.9987C61.7094 67.9987 59.9999 69.7083 60 71.8171C60.0001 73.926 61.7097 75.6356 63.8186 75.6356C65.9274 75.6356 67.6369 73.926 67.6368 71.8171C67.6368 69.7083 65.9271 67.9987 63.8183 67.9987ZM55.2532 71.8171C55.2531 67.0867 59.0877 63.252 63.8181 63.252C68.5485 63.252 72.3834 67.0867 72.3836 71.8171C72.3838 76.5476 68.5491 80.3823 63.8187 80.3823C59.0883 80.3823 55.2534 76.5476 55.2532 71.8171Z" fill="black"/>
<path d="M23.2147 102.497C23.2147 109.28 28.7148 114.78 35.4995 114.782C42.2841 114.783 47.7842 109.285 47.7842 102.502C47.7842 95.7187 42.2841 90.2186 35.4995 90.2173C28.7148 90.2159 23.2147 95.7138 23.2147 102.497Z" fill="#3B2586"/>
<path fill-rule="evenodd" clip-rule="evenodd" d="M35.5 88.0029C43.5081 88.0045 50 94.4964 50 102.503C50 110.509 43.5081 116.999 35.5 116.997C27.4919 116.995 21 110.504 21 102.497C21 94.4905 27.4919 88.0013 35.5 88.0029ZM45.5694 102.502C45.5694 96.942 41.0612 92.4337 35.5 92.4326C29.9388 92.4314 25.4306 96.9379 25.4306 102.498C25.4306 108.058 29.9388 112.566 35.5 112.567C41.0612 112.569 45.5694 108.062 45.5694 102.502Z" fill="black"/>
<path d="M80.2147 102.497C80.2147 109.28 85.7148 114.78 92.4995 114.782C99.2841 114.783 104.784 109.285 104.784 102.502C104.784 95.7187 99.2841 90.2186 92.4995 90.2173C85.7148 90.2159 80.2147 95.7138 80.2147 102.497Z" fill="#3B2586"/>
<path fill-rule="evenodd" clip-rule="evenodd" d="M92.5 88.0029C100.508 88.0045 107 94.4964 107 102.503C107 110.509 100.508 116.999 92.5 116.997C84.4919 116.995 78 110.504 78 102.497C78 94.4905 84.4919 88.0013 92.5 88.0029ZM102.569 102.502C102.569 96.942 98.0612 92.4337 92.5 92.4326C86.9388 92.4314 82.4306 96.9379 82.4306 102.498C82.4306 108.058 86.9388 112.566 92.5 112.567C98.0612 112.569 102.569 108.062 102.569 102.502Z" fill="black"/>
<defs>
<linearGradient id="paint0_linear" x1="63.5466" y1="110.185" x2="63.5493" y2="33.1854" gradientUnits="userSpaceOnUse">
<stop stop-color="#412A96"/>
<stop offset="1" stop-color="#11053C"/>
</linearGradient>
</defs>
</svg>
