<svg width="129" height="129" viewBox="0 0 129 129" fill="none" xmlns="http://www.w3.org/2000/svg">
<path d="M33.4687 46.801C33.4687 64.198 47.7956 78.3005 65.4687 78.2999C83.1419 78.2993 97.4687 64.1958 97.4687 46.7988C97.4687 29.4019 83.1419 15.2993 65.4687 15.2999C47.7956 15.3005 33.4687 29.4041 33.4687 46.801Z" fill="#232323"/>
<path fill-rule="evenodd" clip-rule="evenodd" d="M65.9687 12.3C85.0226 12.2994 100.469 27.5211 100.469 46.2988C100.469 65.0765 85.0226 80.2994 65.9687 80.3C46.9149 80.3007 31.4687 65.0789 31.4687 46.3012C31.4687 27.5235 46.9149 12.3007 65.9687 12.3ZM95.2022 46.299C95.2022 30.3878 82.1139 17.4897 65.9687 17.4903C49.8236 17.4908 36.7353 30.3898 36.7353 46.301C36.7353 62.2122 49.8236 75.1103 65.9687 75.1097C82.1139 75.1092 95.2022 62.2102 95.2022 46.299Z" fill="black"/>
<path d="M63.9717 112.299C86.8915 112.299 105.471 93.7191 105.47 70.7993C105.469 47.8795 86.8886 29.2993 63.9688 29.2993C41.0489 29.2993 22.4694 47.8795 22.4702 70.7993C22.471 93.7191 41.0518 112.299 63.9717 112.299Z" fill="#333333"/>
<mask id="mask0_1318_365" style="mask-type:alpha" maskUnits="userSpaceOnUse" x="22" y="29" width="84" height="84">
<path d="M63.9716 112.299C86.8915 112.299 105.471 93.7191 105.47 70.7993C105.469 47.8795 86.8886 29.2993 63.9688 29.2993C41.0489 29.2993 22.4694 47.8795 22.4702 70.7993C22.471 93.7191 41.0518 112.299 63.9716 112.299Z" fill="#3CA3CF"/>
</mask>
<g mask="url(#mask0_1318_365)">
<path d="M22.4688 112.299L105.469 112.299L105.469 29.2993L22.4688 29.2993L22.4688 112.299Z" fill="#848484"/>
<mask id="mask1_1318_365" style="mask-type:alpha" maskUnits="userSpaceOnUse" x="22" y="29" width="84" height="84">
<path d="M22.4688 112.299L105.469 112.299L105.469 29.2993L22.4688 29.2993L22.4688 112.299Z" fill="#848484"/>
</mask>
<g mask="url(#mask1_1318_365)">
<path d="M63.0021 87.909C64.166 87.5398 65.4187 87.4542 66.5351 86.9606C67.6515 86.4671 68.6462 85.3698 68.4419 84.1747C68.1798 82.6593 66.1884 81.868 65.9882 80.3425C65.755 78.5722 68.1014 77.1099 67.6392 75.3865C67.4018 74.5197 66.4732 73.9732 65.5755 73.9181C64.6778 73.863 63.7884 74.2016 62.9712 74.5952C62.1539 74.9888 61.3594 75.4497 60.4782 75.6639C58.3609 76.1799 56.1961 75.2172 54.2171 74.3117C52.238 73.4062 50.0154 72.517 47.9373 73.1737C46.4721 73.6387 45.2546 74.8379 43.713 74.9297C42.6647 74.9929 41.6617 74.5218 40.7682 73.9691C39.8746 73.4164 39.014 72.7882 38.0132 72.4741C37.0123 72.16 35.7988 72.2355 35.0642 72.9779C34.2903 73.759 34.2986 75.101 34.928 75.9984C35.5574 76.8957 36.68 77.375 37.7841 77.426C38.657 77.4729 39.5423 77.2873 40.4008 77.4444C41.2593 77.6014 42.1364 78.2602 42.0827 79.131C42.0579 79.5165 41.8516 79.8714 41.8165 80.2548C41.7257 81.2501 42.8009 81.9945 43.8038 82.1148C45.1741 82.28 46.5196 81.7293 47.7908 81.197C49.062 80.6647 50.4137 80.1243 51.7819 80.3139C53.1502 80.5036 54.4647 81.7212 54.2356 83.0652C54.1036 83.8137 53.5402 84.4133 52.9479 84.9007C52.3556 85.3882 51.6994 85.8165 51.2536 86.4365C50.8079 87.0565 50.6345 87.9437 51.0658 88.5678C51.7056 89.4733 53.1295 89.2612 54.1201 88.7431C54.7206 88.4291 55.4553 88.0354 56.0248 88.4005C56.483 88.6942 56.5531 89.3428 56.4107 89.8628C56.2684 90.3829 55.9444 90.8622 55.8247 91.3863C55.7196 91.8888 55.7782 92.4112 55.9921 92.8788C56.206 93.3463 56.5643 93.7348 57.0154 93.9887C58.9759 95.037 60.5608 93.2443 60.5422 91.4047C60.5236 89.5651 61.0457 88.531 63.0021 87.909Z" fill="#232323"/>
<path d="M54.0021 51.6896C55.166 52.0588 56.4187 52.1444 57.5351 52.638C58.6515 53.1316 59.6462 54.2288 59.4419 55.4239C59.1798 56.9393 57.1884 57.7306 56.9882 59.2561C56.755 61.0264 59.1014 62.4887 58.6392 64.2121C58.4018 65.0789 57.4732 65.6255 56.5755 65.6805C55.6778 65.7356 54.7884 65.3971 53.9712 65.0034C53.1539 64.6098 52.3594 64.1489 51.4782 63.9347C49.3609 63.4187 47.1961 64.3814 45.2171 65.2869C43.238 66.1925 41.0154 67.0817 38.9373 66.425C37.4721 65.96 36.2546 64.7607 34.713 64.669C33.6647 64.6057 32.6617 65.0769 31.7682 65.6296C30.8746 66.1823 30.014 66.8104 29.0132 67.1245C28.0123 67.4386 26.7988 67.3631 26.0642 66.6208C25.2903 65.8396 25.2986 64.4976 25.928 63.6003C26.5574 62.7029 27.68 62.2236 28.7841 62.1726C29.657 62.1257 30.5423 62.3113 31.4008 62.1543C32.2593 61.9972 33.1364 61.3385 33.0827 60.4676C33.0579 60.0821 32.8516 59.7273 32.8165 59.3438C32.7257 58.3486 33.8009 57.6042 34.8038 57.4838C36.1741 57.3186 37.5196 57.8693 38.7908 58.4016C40.062 58.9339 41.4137 59.4744 42.7819 59.2847C44.1502 59.095 45.4647 57.8775 45.2356 56.5334C45.1036 55.7849 44.5402 55.1853 43.9479 54.6979C43.3556 54.2104 42.6994 53.7822 42.2536 53.1621C41.8079 52.5421 41.6345 51.655 42.0658 51.0309C42.7056 50.1253 44.1295 50.3375 45.1201 50.8555C45.7206 51.1696 46.4553 51.5632 47.0248 51.1981C47.483 50.9044 47.5531 50.2559 47.4107 49.7358C47.2684 49.2157 46.9444 48.7365 46.8247 48.2123C46.7196 47.7098 46.7782 47.1874 46.9921 46.7199C47.206 46.2524 47.5643 45.8638 48.0154 45.6099C49.9759 44.5616 51.5608 46.3543 51.5422 48.1939C51.5236 50.0336 52.0457 51.0676 54.0021 51.6896Z" fill="#232323"/>
<path d="M74.9354 84.909C73.7715 84.5398 72.5188 84.4542 71.4024 83.9606C70.286 83.4671 69.2913 82.3698 69.4956 81.1747C69.7577 79.6593 71.7491 78.868 71.9493 77.3425C72.1825 75.5722 69.8361 74.1099 70.2983 72.3865C70.5357 71.5197 71.4643 70.9732 72.362 70.9181C73.2597 70.863 74.1491 71.2016 74.9663 71.5952C75.7836 71.9888 76.5781 72.4497 77.4593 72.6639C79.5766 73.1799 81.7414 72.2172 83.7204 71.3117C85.6995 70.4062 87.9221 69.517 90.0002 70.1737C91.4654 70.6387 92.6829 71.8379 94.2245 71.9297C95.2728 71.9929 96.2758 71.5218 97.1693 70.9691C98.0629 70.4164 98.9235 69.7882 99.9243 69.4741C100.925 69.16 102.139 69.2355 102.873 69.9779C103.647 70.759 103.639 72.101 103.01 72.9984C102.38 73.8957 101.257 74.375 100.153 74.426C99.2805 74.4729 98.3952 74.2873 97.5367 74.4444C96.6782 74.6014 95.8011 75.2602 95.8548 76.131C95.8796 76.5165 96.0859 76.8714 96.121 77.2548C96.2118 78.2501 95.1366 78.9945 94.1337 79.1148C92.7634 79.28 91.4179 78.7293 90.1467 78.197C88.8755 77.6647 87.5238 77.1243 86.1556 77.3139C84.7873 77.5036 83.4728 78.7212 83.7019 80.0652C83.8339 80.8137 84.3973 81.4133 84.9896 81.9007C85.5819 82.3882 86.2381 82.8165 86.6839 83.4365C87.1296 84.0565 87.303 84.9437 86.8717 85.5678C86.2319 86.4733 84.808 86.2612 83.8174 85.7431C83.2169 85.4291 82.4822 85.0354 81.9127 85.4005C81.4545 85.6942 81.3844 86.3428 81.5268 86.8628C81.6691 87.3829 81.9931 87.8622 82.1128 88.3863C82.2179 88.8888 82.1593 89.4112 81.9454 89.8788C81.7315 90.3463 81.3732 90.7348 80.9221 90.9887C78.9616 92.037 77.3767 90.2443 77.3953 88.4047C77.4139 86.5651 76.8918 85.531 74.9354 84.909Z" fill="#232323"/>
<path d="M74.9354 50.6896C73.7715 51.0588 72.5188 51.1444 71.4024 51.638C70.286 52.1316 69.2913 53.2288 69.4956 54.4239C69.7577 55.9393 71.7491 56.7306 71.9493 58.2561C72.1825 60.0264 69.8361 61.4887 70.2983 63.2121C70.5357 64.0789 71.4643 64.6255 72.362 64.6805C73.2597 64.7356 74.1491 64.3971 74.9663 64.0034C75.7836 63.6098 76.5781 63.1489 77.4593 62.9347C79.5766 62.4187 81.7414 63.3814 83.7204 64.2869C85.6995 65.1925 87.9221 66.0817 90.0002 65.425C91.4654 64.96 92.6829 63.7607 94.2245 63.669C95.2728 63.6057 96.2758 64.0769 97.1693 64.6296C98.0629 65.1823 98.9235 65.8104 99.9243 66.1245C100.925 66.4386 102.139 66.3631 102.873 65.6208C103.647 64.8396 103.639 63.4976 103.01 62.6003C102.38 61.7029 101.257 61.2236 100.153 61.1726C99.2805 61.1257 98.3952 61.3113 97.5367 61.1543C96.6782 60.9972 95.8011 60.3385 95.8548 59.4676C95.8796 59.0821 96.0859 58.7273 96.121 58.3438C96.2118 57.3486 95.1366 56.6042 94.1337 56.4838C92.7634 56.3186 91.4179 56.8693 90.1467 57.4016C88.8755 57.9339 87.5238 58.4744 86.1556 58.2847C84.7873 58.095 83.4728 56.8775 83.7019 55.5334C83.8339 54.7849 84.3973 54.1853 84.9896 53.6979C85.5819 53.2104 86.2381 52.7822 86.6839 52.1621C87.1296 51.5421 87.303 50.655 86.8717 50.0309C86.2319 49.1253 84.808 49.3375 83.8174 49.8555C83.2169 50.1696 82.4822 50.5632 81.9127 50.1981C81.4545 49.9044 81.3844 49.2559 81.5268 48.7358C81.6691 48.2157 81.9931 47.7365 82.1128 47.2123C82.2179 46.7098 82.1593 46.1874 81.9454 45.7199C81.7315 45.2524 81.3732 44.8638 80.9221 44.6099C78.9616 43.5616 77.3767 45.3543 77.3953 47.1939C77.4139 49.0336 76.8918 50.0676 74.9354 50.6896Z" fill="#232323"/>
<path d="M43.5952 32.958C42.3743 33.0561 41.1472 32.8162 39.9222 32.8767C38.6972 32.9372 37.3797 33.3982 36.7775 34.4831C36.5555 34.8842 36.4495 35.3407 36.4716 35.8002C36.4938 36.2597 36.6432 36.7036 36.9028 37.0807C37.1623 37.4579 37.5214 37.7531 37.9388 37.9324C38.3562 38.1117 38.815 38.1678 39.2625 38.0943C40.099 37.9567 40.8102 37.3829 41.6344 37.1889C42.9621 36.876 44.294 37.5811 45.4923 38.2446C46.6906 38.908 48.0554 39.5735 49.3626 39.1834C50.5958 38.8162 51.4077 37.6124 52.5896 37.118C54.3798 36.369 56.3468 37.4226 58.2234 37.9108C59.2737 38.1841 60.4082 38.2738 61.4298 37.9108C62.4513 37.5478 63.3331 36.6402 63.4564 35.545C63.5797 34.4497 62.7658 33.2689 61.6826 33.2125C60.9241 33.1729 60.2438 33.6298 59.582 34.0116C58.8235 34.4413 57.9911 34.7856 57.1155 34.7856C56.2399 34.7856 55.3417 34.3829 54.9163 33.6152C54.5627 32.9789 54.4764 32.0651 53.8002 31.8127C53.3542 31.6458 52.8629 31.8732 52.4724 32.1465C52.0819 32.4198 51.7016 32.7536 51.2392 32.8308C50.7767 32.908 50.1992 32.5679 50.2505 32.0881C50.2999 31.8779 50.3916 31.6805 50.5198 31.5081C50.7652 31.0856 50.8593 30.59 50.7862 30.1051C50.713 29.6203 50.4771 29.176 50.1183 28.8474C49.7595 28.5188 49.2999 28.3261 48.8173 28.3019C48.3346 28.2777 47.8585 28.4235 47.4696 28.7146C46.4419 29.4782 46.9578 30.4587 46.5282 31.4079C46.0678 32.4323 44.59 32.8662 43.5952 32.958Z" fill="#BBBBBB"/>
<path d="M56.6511 98.2633C56.7007 99.083 57.0017 99.8688 57.5148 100.518C58.0279 101.167 58.729 101.648 59.5262 101.9L60.1279 102.088C60.6282 102.243 61.1833 102.399 61.6646 102.218C62.5196 101.904 62.6906 100.683 62.1882 99.9418C61.6858 99.2009 60.7696 98.8284 59.8872 98.5903C59.0048 98.3523 58.0739 98.1764 57.3308 97.6631C56.5878 97.1498 56.0938 96.1316 56.5054 95.3327C56.9171 94.5338 57.9536 94.333 58.8275 94.1219C59.7015 93.9108 60.7274 93.4037 60.7569 92.5117C60.7759 91.7956 60.073 91.2202 59.351 91.1002C58.6291 90.9802 57.9008 91.1954 57.1957 91.39C56.4907 91.5845 55.7434 91.7646 55.0383 91.5783C54.0947 91.3279 53.4424 90.4752 53.0392 89.6018C52.6361 88.7284 52.406 87.7763 51.893 86.9567C51.38 86.1371 50.4955 85.4397 49.5224 85.5307C48.678 85.6094 47.9771 86.2551 47.137 86.371C46.2588 86.4931 45.3912 86.0067 44.798 85.361C44.2049 84.7153 43.8185 83.9122 43.3605 83.1713C42.7884 82.2399 42.0707 81.3603 41.1123 80.8139C40.1539 80.2676 38.919 80.0999 37.929 80.5884C36.9389 81.0768 36.3225 82.3082 36.7342 83.3182C37.0466 84.084 37.8129 84.56 38.4103 85.1354C39.0077 85.7108 39.4657 86.6608 38.9781 87.3396C38.4567 88.0764 37.3379 87.9067 36.4238 87.9005C35.7176 87.8687 35.0209 88.0706 34.4459 88.4738C33.8949 88.8981 33.5593 89.6307 33.745 90.2951C33.9139 90.8953 34.448 91.3196 34.9715 91.6735C35.495 92.0274 36.0481 92.3731 36.3415 92.9153C36.4197 93.0605 36.4673 93.2196 36.4816 93.3831C36.4959 93.5467 36.4766 93.7114 36.4249 93.8675C36.3731 94.0237 36.2899 94.168 36.1802 94.292C36.0706 94.4161 35.9366 94.5173 35.7863 94.5897C35.2354 94.8525 34.6907 95.4175 34.2411 95.8004C33.7535 96.2144 33.3967 96.8208 33.4812 97.4417C33.6015 98.3585 34.6316 98.9422 35.5731 98.9298C36.5146 98.9173 37.3885 98.4682 38.2308 98.0522C39.0731 97.6362 39.9787 97.2244 40.9181 97.3071C42.9362 97.4748 44.0845 99.6748 45.8978 100.552C46.6327 100.892 47.4537 101.012 48.2575 100.895C49.0613 100.779 49.8121 100.432 50.4153 99.8984C51.209 99.1761 51.6692 98.1743 52.349 97.3485C53.0287 96.5227 54.1137 95.8397 55.1544 96.1481C56.0368 96.411 56.5793 97.3361 56.6532 98.2364L56.6511 98.2633Z" fill="#DFDFDF"/>
<path d="M76.6511 82.2633C76.7007 83.083 77.0017 83.8688 77.5148 84.5177C78.0279 85.1666 78.729 85.6484 79.5262 85.8997L80.1279 86.0881C80.6282 86.2433 81.1833 86.3985 81.6646 86.2185C82.5196 85.9039 82.6906 84.6828 82.1882 83.9418C81.6858 83.2009 80.7696 82.8284 79.8872 82.5903C79.0048 82.3523 78.0739 82.1764 77.3308 81.6631C76.5878 81.1498 76.0938 80.1316 76.5054 79.3327C76.9171 78.5338 77.9536 78.333 78.8275 78.1219C79.7015 77.9108 80.7274 77.4037 80.7569 76.5117C80.7759 75.7956 80.073 75.2202 79.351 75.1002C78.6291 74.9802 77.9008 75.1954 77.1957 75.39C76.4907 75.5845 75.7434 75.7646 75.0383 75.5783C74.0947 75.3279 73.4424 74.4752 73.0392 73.6018C72.6361 72.7284 72.406 71.7763 71.893 70.9567C71.38 70.1371 70.4955 69.4397 69.5224 69.5307C68.678 69.6094 67.9771 70.2551 67.137 70.371C66.2588 70.4931 65.3912 70.0067 64.798 69.361C64.2049 68.7153 63.8185 67.9122 63.3605 67.1713C62.7884 66.2399 62.0707 65.3603 61.1123 64.8139C60.1539 64.2676 58.919 64.0999 57.929 64.5884C56.9389 65.0768 56.3225 66.3082 56.7342 67.3182C57.0466 68.084 57.8129 68.56 58.4103 69.1354C59.0077 69.7108 59.4657 70.6608 58.9781 71.3396C58.4567 72.0764 57.3379 71.9067 56.4238 71.9005C55.7176 71.8687 55.0209 72.0706 54.4459 72.4738C53.8949 72.8981 53.5593 73.6307 53.745 74.2951C53.9139 74.8953 54.448 75.3196 54.9715 75.6735C55.495 76.0274 56.0481 76.3731 56.3415 76.9153C56.4197 77.0605 56.4673 77.2196 56.4816 77.3831C56.4959 77.5467 56.4766 77.7114 56.4249 77.8675C56.3731 78.0237 56.2899 78.168 56.1802 78.292C56.0706 78.4161 55.9366 78.5173 55.7863 78.5897C55.2354 78.8525 54.6907 79.4175 54.2411 79.8004C53.7535 80.2144 53.3967 80.8208 53.4812 81.4417C53.6015 82.3585 54.6316 82.9422 55.5731 82.9298C56.5146 82.9173 57.3885 82.4682 58.2308 82.0522C59.0731 81.6362 59.9787 81.2244 60.9181 81.3071C62.9362 81.4748 64.0845 83.6748 65.8978 84.5524C66.6327 84.8924 67.4537 85.0118 68.2575 84.8954C69.0613 84.7791 69.8121 84.4321 70.4153 83.8984C71.209 83.1761 71.6692 82.1743 72.349 81.3485C73.0287 80.5227 74.1137 79.8397 75.1544 80.1481C76.0368 80.411 76.5793 81.3361 76.6532 82.2364L76.6511 82.2633Z" fill="#DFDFDF"/>
<path d="M63.6511 44.3353C63.7007 43.5157 64.0017 42.7299 64.5148 42.0809C65.0279 41.432 65.729 40.9503 66.5262 40.6989L67.1279 40.5106C67.6282 40.3553 68.1833 40.2001 68.6646 40.3802C69.5196 40.6948 69.6906 41.9159 69.1882 42.6568C68.6858 43.3977 67.7696 43.7703 66.8872 44.0083C66.0048 44.2463 65.0739 44.4222 64.3308 44.9355C63.5878 45.4488 63.0938 46.4671 63.5054 47.266C63.9171 48.0648 64.9536 48.2656 65.8275 48.4767C66.7015 48.6878 67.7274 49.1949 67.7569 50.0869C67.7759 50.803 67.073 51.3784 66.351 51.4984C65.6291 51.6185 64.9008 51.4032 64.1957 51.2087C63.4907 51.0141 62.7434 50.8341 62.0383 51.0203C61.0947 51.2708 60.4424 52.1235 60.0392 52.9969C59.6361 53.8703 59.406 54.8223 58.893 55.6419C58.38 56.4615 57.4955 57.159 56.5224 57.0679C55.678 56.9893 54.9771 56.3435 54.137 56.2276C53.2588 56.1055 52.3912 56.5919 51.798 57.2376C51.2049 57.8834 50.8185 58.6864 50.3605 59.4273C49.7884 60.3587 49.0707 61.2383 48.1123 61.7847C47.1539 62.3311 45.919 62.4987 44.929 62.0103C43.9389 61.5218 43.3225 60.2904 43.7342 59.2804C44.0466 58.5146 44.8129 58.0386 45.4103 57.4632C46.0077 56.8878 46.4657 55.9379 45.9781 55.259C45.4567 54.5222 44.3379 54.6919 43.4238 54.6981C42.7176 54.73 42.0209 54.528 41.4459 54.1248C40.8949 53.7006 40.5593 52.9679 40.745 52.3035C40.9139 51.7033 41.448 51.279 41.9715 50.9251C42.495 50.5712 43.0481 50.2256 43.3415 49.6833C43.4197 49.5381 43.4673 49.3791 43.4816 49.2155C43.4959 49.0519 43.4766 48.8872 43.4249 48.7311C43.3731 48.575 43.2899 48.4306 43.1802 48.3066C43.0706 48.1826 42.9366 48.0813 42.7863 48.009C42.2354 47.7461 41.6907 47.1811 41.2411 46.7982C40.7535 46.3843 40.3967 45.7779 40.4812 45.157C40.6015 44.2401 41.6316 43.6565 42.5731 43.6689C43.5146 43.6813 44.3885 44.1304 45.2308 44.5464C46.0731 44.9624 46.9787 45.3743 47.9181 45.2915C49.9362 45.1238 51.0845 42.9238 52.8978 42.0462C53.6327 41.7062 54.4537 41.5868 55.2575 41.7032C56.0613 41.8196 56.8121 42.1665 57.4153 42.7003C58.209 43.4226 58.6692 44.4243 59.349 45.2501C60.0287 46.0759 61.1137 46.7589 62.1544 46.4505C63.0368 46.1877 63.5793 45.2625 63.6532 44.3622L63.6511 44.3353Z" fill="#DFDFDF"/>
<path d="M53.8578 65.6842C53.8886 65.1999 54.0754 64.7356 54.3939 64.3521C54.7124 63.9686 55.1475 63.684 55.6424 63.5354L56.0158 63.4241C56.3263 63.3324 56.6709 63.2407 56.9697 63.3471C57.5003 63.533 57.6064 64.2545 57.2946 64.6924C56.9828 65.1302 56.4141 65.3503 55.8664 65.491C55.3187 65.6316 54.7409 65.7356 54.2797 66.0389C53.8185 66.3422 53.5119 66.9439 53.7674 67.416C54.0229 67.888 54.6662 68.0067 55.2087 68.1314C55.7511 68.2562 56.3879 68.5558 56.4062 69.0829C56.418 69.506 55.9817 69.846 55.5336 69.917C55.0855 69.9879 54.6335 69.8607 54.1958 69.7458C53.7582 69.6308 53.2944 69.5244 52.8568 69.6345C52.2711 69.7824 51.8662 70.2863 51.616 70.8024C51.3657 71.3185 51.2229 71.8811 50.9045 72.3654C50.5861 72.8497 50.0371 73.2618 49.4331 73.208C48.909 73.1616 48.474 72.78 47.9525 72.7115C47.4074 72.6393 46.8689 72.9267 46.5007 73.3083C46.1325 73.6899 45.8928 74.1644 45.6084 74.6022C45.2534 75.1526 44.8079 75.6723 44.213 75.9952C43.6182 76.3181 42.8517 76.4171 42.2372 76.1285C41.6226 75.8399 41.2401 75.1122 41.4956 74.5154C41.6895 74.0629 42.1651 73.7816 42.5359 73.4416C42.9067 73.1016 43.191 72.5403 42.8884 72.1391C42.5647 71.7038 41.8703 71.804 41.3029 71.8077C40.8646 71.8265 40.4322 71.7072 40.0752 71.4689C39.7333 71.2182 39.5249 70.7853 39.6402 70.3927C39.7451 70.038 40.0765 69.7873 40.4015 69.5782C40.7264 69.3691 41.0697 69.1648 41.2518 68.8444C41.3003 68.7586 41.3299 68.6646 41.3388 68.568C41.3477 68.4713 41.3357 68.374 41.3036 68.2817C41.2715 68.1895 41.2198 68.1042 41.1517 68.0309C41.0837 67.9576 41.0005 67.8978 40.9072 67.855C40.5653 67.6997 40.2272 67.3658 39.9481 67.1396C39.6455 66.895 39.424 66.5366 39.4765 66.1697C39.5511 65.628 40.1905 65.2831 40.7749 65.2904C41.3593 65.2978 41.9017 65.5631 42.4245 65.809C42.9473 66.0548 43.5094 66.2982 44.0925 66.2492C45.3451 66.1502 46.0579 64.8501 47.1834 64.3316C47.6395 64.1306 48.149 64.0601 48.648 64.1289C49.1469 64.1977 49.6129 64.4026 49.9873 64.7181C50.48 65.1449 50.7656 65.7368 51.1875 66.2248C51.6094 66.7127 52.2829 67.1163 52.9288 66.9341C53.4765 66.7788 53.8132 66.2321 53.8591 65.7001L53.8578 65.6842Z" fill="#DFDFDF"/>
<path d="M76.8578 98.6842C76.8886 98.1999 77.0754 97.7356 77.3939 97.3521C77.7124 96.9686 78.1475 96.684 78.6424 96.5354L79.0158 96.4241C79.3263 96.3324 79.6709 96.2407 79.9697 96.3471C80.5003 96.533 80.6064 97.2545 80.2946 97.6924C79.9828 98.1302 79.4141 98.3503 78.8664 98.491C78.3187 98.6316 77.7409 98.7356 77.2797 99.0389C76.8185 99.3422 76.5119 99.9439 76.7674 100.416C77.0229 100.888 77.6662 101.007 78.2087 101.131C78.7511 101.256 79.3879 101.556 79.4062 102.083C79.418 102.506 78.9817 102.846 78.5336 102.917C78.0855 102.988 77.6335 102.861 77.1958 102.746C76.7582 102.631 76.2944 102.524 75.8568 102.634C75.2711 102.782 74.8662 103.286 74.616 103.802C74.3657 104.319 74.2229 104.881 73.9045 105.365C73.5861 105.85 73.0371 106.262 72.4331 106.208C71.909 106.162 71.474 105.78 70.9525 105.711C70.4074 105.639 69.8689 105.927 69.5007 106.308C69.1325 106.69 68.8928 107.164 68.6084 107.602C68.2534 108.153 67.8079 108.672 67.213 108.995C66.6182 109.318 65.8517 109.417 65.2372 109.129C64.6226 108.84 64.2401 108.112 64.4956 107.515C64.6895 107.063 65.1651 106.782 65.5359 106.442C65.9067 106.102 66.191 105.54 65.8884 105.139C65.5647 104.704 64.8703 104.804 64.3029 104.808C63.8646 104.827 63.4322 104.707 63.0752 104.469C62.7333 104.218 62.5249 103.785 62.6402 103.393C62.7451 103.038 63.0765 102.787 63.4015 102.578C63.7264 102.369 64.0697 102.165 64.2518 101.844C64.3003 101.759 64.3299 101.665 64.3388 101.568C64.3477 101.471 64.3357 101.374 64.3036 101.282C64.2715 101.189 64.2198 101.104 64.1517 101.031C64.0837 100.958 64.0005 100.898 63.9072 100.855C63.5653 100.7 63.2272 100.366 62.9481 100.14C62.6455 99.895 62.424 99.5366 62.4765 99.1697C62.5511 98.628 63.1905 98.2831 63.7749 98.2904C64.3593 98.2978 64.9017 98.5631 65.4245 98.809C65.9473 99.0548 66.5094 99.2982 67.0925 99.2492C68.3451 99.1502 69.0579 97.8501 70.1834 97.3316C70.6395 97.1306 71.149 97.0601 71.648 97.1289C72.1469 97.1977 72.6129 97.4026 72.9873 97.7181C73.48 98.1449 73.7656 98.7368 74.1875 99.2248C74.6094 99.7127 75.2829 100.116 75.9288 99.9341C76.4765 99.7788 76.8132 99.2321 76.8591 98.7001L76.8578 98.6842Z" fill="#DFDFDF"/>
<path d="M72.6511 22.3353C72.7007 21.5157 73.0017 20.7299 73.5148 20.0809C74.0279 19.432 74.729 18.9503 75.5262 18.6989L76.1279 18.5106C76.6282 18.3553 77.1833 18.2001 77.6646 18.3802C78.5196 18.6948 78.6906 19.9159 78.1882 20.6568C77.6858 21.3977 76.7696 21.7703 75.8872 22.0083C75.0048 22.2463 74.0739 22.4222 73.3308 22.9355C72.5878 23.4488 72.0938 24.4671 72.5054 25.266C72.9171 26.0648 73.9536 26.2656 74.8275 26.4767C75.7015 26.6878 76.7274 27.1949 76.7569 28.0869C76.7759 28.803 76.073 29.3784 75.351 29.4984C74.6291 29.6185 73.9008 29.4032 73.1957 29.2087C72.4907 29.0141 71.7434 28.8341 71.0383 29.0203C70.0947 29.2708 69.4424 30.1235 69.0392 30.9969C68.6361 31.8703 68.406 32.8223 67.893 33.6419C67.38 34.4615 66.4955 35.159 65.5224 35.0679C64.678 34.9893 63.9771 34.3435 63.137 34.2276C62.2588 34.1055 61.3912 34.5919 60.798 35.2376C60.2049 35.8834 59.8185 36.6864 59.3605 37.4273C58.7884 38.3587 58.0707 39.2383 57.1123 39.7847C56.1539 40.3311 54.919 40.4987 53.929 40.0103C52.9389 39.5218 52.3225 38.2904 52.7342 37.2804C53.0466 36.5146 53.8129 36.0386 54.4103 35.4632C55.0077 34.8878 55.4657 33.9379 54.9781 33.259C54.4567 32.5222 53.3379 32.6919 52.4238 32.6981C51.7176 32.73 51.0209 32.528 50.4459 32.1248C49.8949 31.7006 49.5593 30.9679 49.745 30.3035C49.9139 29.7033 50.448 29.279 50.9715 28.9251C51.495 28.5712 52.0481 28.2256 52.3415 27.6833C52.4197 27.5381 52.4673 27.3791 52.4816 27.2155C52.4959 27.0519 52.4766 26.8872 52.4249 26.7311C52.3731 26.575 52.2899 26.4306 52.1802 26.3066C52.0706 26.1826 51.9366 26.0813 51.7863 26.009C51.2354 25.7461 50.6907 25.1811 50.2411 24.7982C49.7535 24.3843 49.3967 23.7779 49.4812 23.157C49.6015 22.2401 50.6316 21.6565 51.5731 21.6689C52.5146 21.6813 53.3885 22.1304 54.2308 22.5464C55.0731 22.9624 55.9787 23.3743 56.9181 23.2915C58.9362 23.1238 60.0845 20.9238 61.8978 20.0462C62.6327 19.7062 63.4537 19.5868 64.2575 19.7032C65.0613 19.8196 65.8121 20.1665 66.4153 20.7003C67.209 21.4226 67.6692 22.4243 68.349 23.2501C69.0287 24.0759 70.1137 24.7589 71.1544 24.4505C72.0368 24.1877 72.5793 23.2625 72.6532 22.3622L72.6511 22.3353Z" fill="#232323"/>
<path d="M79.2864 98.2633C79.2368 99.083 78.9358 99.8688 78.4227 100.518C77.9096 101.167 77.2085 101.648 76.4113 101.9L75.8096 102.088C75.3093 102.243 74.7542 102.399 74.2729 102.218C73.4179 101.904 73.2469 100.683 73.7493 99.9418C74.2517 99.2009 75.1679 98.8284 76.0503 98.5903C76.9327 98.3523 77.8636 98.1764 78.6067 97.6631C79.3497 97.1498 79.8437 96.1316 79.4321 95.3327C79.0204 94.5338 77.9839 94.333 77.11 94.1219C76.236 93.9108 75.2101 93.4037 75.1806 92.5117C75.1616 91.7956 75.8645 91.2202 76.5865 91.1002C77.3084 90.9802 78.0367 91.1954 78.7418 91.39C79.4468 91.5845 80.1941 91.7646 80.8992 91.5783C81.8428 91.3279 82.4951 90.4752 82.8983 89.6018C83.3014 88.7284 83.5315 87.7763 84.0445 86.9567C84.5575 86.1371 85.442 85.4397 86.4151 85.5307C87.2595 85.6094 87.9604 86.2551 88.8005 86.371C89.6787 86.4931 90.5463 86.0067 91.1395 85.361C91.7326 84.7153 92.119 83.9122 92.577 83.1713C93.1491 82.2399 93.8668 81.3603 94.8252 80.8139C95.7836 80.2676 97.0185 80.0999 98.0085 80.5884C98.9986 81.0768 99.615 82.3082 99.2033 83.3182C98.8909 84.084 98.1246 84.56 97.5272 85.1354C96.9298 85.7108 96.4718 86.6608 96.9594 87.3396C97.4808 88.0764 98.5996 87.9067 99.5137 87.9005C100.22 87.8687 100.917 88.0706 101.492 88.4738C102.043 88.8981 102.378 89.6307 102.192 90.2951C102.024 90.8953 101.49 91.3196 100.966 91.6735C100.442 92.0274 99.8894 92.3731 99.596 92.9153C99.5178 93.0605 99.4702 93.2196 99.4559 93.3831C99.4416 93.5467 99.4609 93.7114 99.5126 93.8675C99.5644 94.0237 99.6476 94.168 99.7573 94.292C99.8669 94.4161 100.001 94.5173 100.151 94.5897C100.702 94.8525 101.247 95.4175 101.696 95.8004C102.184 96.2144 102.541 96.8208 102.456 97.4417C102.336 98.3585 101.306 98.9422 100.364 98.9298C99.4229 98.9173 98.549 98.4682 97.7067 98.0522C96.8644 97.6362 95.9588 97.2244 95.0194 97.3071C93.0013 97.4748 91.853 99.6748 90.0397 100.552C89.3048 100.892 88.4838 101.012 87.68 100.895C86.8762 100.779 86.1254 100.432 85.5222 99.8984C84.7285 99.1761 84.2683 98.1743 83.5885 97.3485C82.9088 96.5227 81.8238 95.8397 80.7831 96.1481C79.9007 96.411 79.3582 97.3361 79.2843 98.2364L79.2864 98.2633Z" fill="#DFDFDF"/>
<path d="M71.2864 43.3353C71.2368 42.5157 70.9358 41.7299 70.4227 41.0809C69.9096 40.432 69.2085 39.9503 68.4113 39.6989L67.8096 39.5106C67.3093 39.3553 66.7542 39.2001 66.2729 39.3802C65.4179 39.6948 65.2469 40.9159 65.7493 41.6568C66.2517 42.3977 67.1679 42.7703 68.0503 43.0083C68.9327 43.2463 69.8636 43.4222 70.6067 43.9355C71.3497 44.4488 71.8437 45.4671 71.4321 46.266C71.0204 47.0648 69.9839 47.2656 69.11 47.4767C68.236 47.6878 67.2101 48.1949 67.1806 49.0869C67.1616 49.803 67.8645 50.3784 68.5865 50.4984C69.3084 50.6185 70.0367 50.4032 70.7418 50.2087C71.4468 50.0141 72.1941 49.8341 72.8992 50.0203C73.8428 50.2708 74.4951 51.1235 74.8983 51.9969C75.3014 52.8703 75.5315 53.8223 76.0445 54.6419C76.5575 55.4615 77.442 56.159 78.4151 56.0679C79.2595 55.9893 79.9604 55.3435 80.8005 55.2276C81.6787 55.1055 82.5463 55.5919 83.1395 56.2376C83.7326 56.8834 84.119 57.6864 84.577 58.4273C85.1491 59.3587 85.8668 60.2383 86.8252 60.7847C87.7836 61.3311 89.0185 61.4987 90.0085 61.0103C90.9986 60.5218 91.615 59.2904 91.2033 58.2804C90.8909 57.5146 90.1246 57.0386 89.5272 56.4632C88.9298 55.8878 88.4718 54.9379 88.9594 54.259C89.4808 53.5222 90.5996 53.6919 91.5137 53.6981C92.2199 53.73 92.9166 53.528 93.4916 53.1248C94.0426 52.7006 94.3782 51.9679 94.1925 51.3035C94.0236 50.7033 93.4895 50.279 92.966 49.9251C92.4425 49.5712 91.8894 49.2256 91.596 48.6833C91.5178 48.5381 91.4702 48.3791 91.4559 48.2155C91.4416 48.0519 91.4609 47.8872 91.5126 47.7311C91.5644 47.575 91.6476 47.4306 91.7573 47.3066C91.8669 47.1826 92.0009 47.0813 92.1512 47.009C92.7021 46.7461 93.2468 46.1811 93.6964 45.7982C94.184 45.3843 94.5408 44.7779 94.4563 44.157C94.336 43.2401 93.3059 42.6565 92.3644 42.6689C91.4229 42.6813 90.549 43.1304 89.7067 43.5464C88.8644 43.9624 87.9588 44.3743 87.0194 44.2915C85.0013 44.1238 83.853 41.9238 82.0397 41.0462C81.3048 40.7062 80.4838 40.5868 79.68 40.7032C78.8762 40.8196 78.1254 41.1665 77.5222 41.7003C76.7285 42.4226 76.2683 43.4243 75.5885 44.2501C74.9088 45.0759 73.8238 45.7589 72.7831 45.4505C71.9007 45.1877 71.3582 44.2625 71.2843 43.3622L71.2864 43.3353Z" fill="#DFDFDF"/>
<path d="M52.2824 108.091C52.8803 107.969 53.4908 107.779 53.9371 107.364C54.3834 106.95 54.6234 106.263 54.3581 105.715C53.9897 104.949 52.8845 104.802 52.4361 104.084C51.8276 103.126 52.7097 101.916 52.7118 100.781C52.7113 100.392 52.6033 100.011 52.3997 99.6784C52.1961 99.3462 51.9046 99.076 51.5571 98.8971C51.2096 98.7183 50.8194 98.6378 50.4291 98.6644C50.0387 98.691 49.6632 98.8236 49.3435 99.0478C48.6066 99.5691 48.2635 100.513 47.5498 101.059C46.5519 101.832 45.0867 101.656 43.9562 101.095C42.8256 100.534 41.8846 99.6528 40.7983 99.0185C39.712 98.3843 38.3204 98.0138 37.1878 98.5748C36.2636 99.029 35.7268 99.9752 35.1626 100.812C34.5984 101.65 33.8131 102.502 32.7942 102.562C31.531 102.64 30.2279 101.489 29.1332 102.115C28.4089 102.533 28.2742 103.611 28.7416 104.3C29.2089 104.989 30.1058 105.294 30.9394 105.24C31.7731 105.185 32.5542 104.821 33.2805 104.417C33.5352 104.248 33.8216 104.131 34.1226 104.074C34.2732 104.049 34.4279 104.072 34.5642 104.141C34.7005 104.209 34.8113 104.319 34.8805 104.455C35.0278 104.836 34.6952 105.231 34.6594 105.638C34.5963 106.351 35.4783 106.824 36.1899 106.705C36.9015 106.586 37.4783 106.109 38.1099 105.78C38.6404 105.508 39.3457 105.324 39.9078 105.612C40.4172 105.872 40.5393 106.502 41.0151 106.808C41.7309 107.272 42.6067 106.908 43.4067 107.017C44.8804 107.212 46.3245 107.869 47.8277 108.108C49.3015 108.369 50.8106 108.363 52.2824 108.091V108.091Z" fill="#232323"/>
<path d="M58.6772 118.113C58.7986 118.711 58.9891 119.321 59.4036 119.768C59.818 120.214 60.5046 120.454 61.0531 120.189C61.8192 119.82 61.9658 118.715 62.6838 118.267C63.6425 117.658 64.8524 118.54 65.987 118.542C66.376 118.542 66.7574 118.434 67.0897 118.23C67.4219 118.027 67.6921 117.735 67.8709 117.388C68.0497 117.04 68.1302 116.65 68.1037 116.26C68.0771 115.869 67.9445 115.494 67.7202 115.174C67.199 114.437 66.2549 114.094 65.7086 113.38C64.9361 112.382 65.112 110.917 65.673 109.787C66.234 108.656 67.1153 107.715 67.7495 106.629C68.3838 105.543 68.7543 104.151 68.1933 103.018C67.7391 102.094 66.7929 101.557 65.9556 100.993C65.1183 100.429 64.2663 99.6437 64.2056 98.6247C64.1281 97.3616 65.2794 96.0584 64.6535 94.9637C64.2349 94.2395 63.1568 94.1048 62.4682 94.5721C61.7795 95.0395 61.4738 95.9363 61.5283 96.77C61.5827 97.6037 61.9469 98.3847 62.3509 99.111C62.5203 99.3658 62.637 99.6522 62.6942 99.9531C62.7191 100.104 62.6956 100.259 62.6271 100.395C62.5586 100.531 62.4487 100.642 62.3132 100.711C61.9323 100.858 61.5366 100.526 61.1305 100.49C60.4167 100.427 59.9436 101.309 60.063 102.02C60.1823 102.732 60.6595 103.309 60.9882 103.94C61.2603 104.471 61.4445 105.176 61.1557 105.738C60.8961 106.248 60.266 106.37 59.9604 106.846C59.4957 107.561 59.8599 108.437 59.7511 109.237C59.5564 110.711 58.8991 112.155 58.6605 113.658C58.3993 115.132 58.405 116.641 58.6772 118.113V118.113Z" fill="#232323"/>
<path d="M52.2824 33.5078C52.8803 33.6292 53.4908 33.8197 53.9371 34.2341C54.3834 34.6486 54.6234 35.3352 54.3581 35.8837C53.9897 36.6498 52.8845 36.7963 52.4361 37.5143C51.8276 38.4731 52.7097 39.683 52.7118 40.8175C52.7113 41.2066 52.6033 41.588 52.3997 41.9202C52.1961 42.2524 51.9046 42.5227 51.5571 42.7015C51.2096 42.8803 50.8194 42.9608 50.4291 42.9342C50.0387 42.9077 49.6632 42.775 49.3435 42.5508C48.6066 42.0296 48.2635 41.0855 47.5498 40.5391C46.5519 39.7667 45.0867 39.9425 43.9562 40.5036C42.8256 41.0646 41.8846 41.9458 40.7983 42.5801C39.712 43.2144 38.3204 43.5849 37.1878 43.0239C36.2636 42.5696 35.7268 41.6235 35.1626 40.7861C34.5984 39.9488 33.8131 39.0969 32.7942 39.0362C31.531 38.9587 30.2279 40.11 29.1332 39.4841C28.4089 39.0655 28.2742 37.9874 28.7416 37.2987C29.2089 36.61 30.1058 36.3044 30.9394 36.3588C31.7731 36.4133 32.5542 36.7775 33.2805 37.1815C33.5352 37.3508 33.8216 37.4676 34.1226 37.5248C34.2732 37.5497 34.4279 37.5262 34.5642 37.4577C34.7005 37.3892 34.8113 37.2792 34.8805 37.1438C35.0278 36.7628 34.6952 36.3672 34.6594 35.9611C34.5963 35.2473 35.4783 34.7742 36.1899 34.8935C36.9015 35.0128 37.4783 35.4901 38.1099 35.8188C38.6404 36.0909 39.3457 36.2751 39.9078 35.9862C40.4172 35.7267 40.5393 35.0966 41.0151 34.791C41.7309 34.3262 42.6067 34.6905 43.4067 34.5816C44.8804 34.387 46.3245 33.7297 47.8277 33.491C49.3015 33.2299 50.8106 33.2356 52.2824 33.5078V33.5078Z" fill="#232323"/>
<path d="M76.6551 108.091C76.0572 107.969 75.4467 107.779 75.0004 107.364C74.5541 106.95 74.3141 106.263 74.5794 105.715C74.9478 104.949 76.053 104.802 76.5014 104.084C77.1099 103.126 76.2278 101.916 76.2257 100.781C76.2262 100.392 76.3342 100.011 76.5378 99.6784C76.7414 99.3462 77.0329 99.076 77.3804 98.8971C77.7279 98.7183 78.1181 98.6378 78.5084 98.6644C78.8988 98.691 79.2743 98.8236 79.594 99.0478C80.3309 99.5691 80.674 100.513 81.3877 101.059C82.3856 101.832 83.8508 101.656 84.9813 101.095C86.1119 100.534 87.0529 99.6528 88.1392 99.0185C89.2255 98.3843 90.6171 98.0138 91.7497 98.5748C92.6739 99.029 93.2107 99.9752 93.7749 100.812C94.3391 101.65 95.1244 102.502 96.1433 102.562C97.4065 102.64 98.7096 101.489 99.8043 102.115C100.529 102.533 100.663 103.611 100.196 104.3C99.7286 104.989 98.8317 105.294 97.9981 105.24C97.1644 105.185 96.3833 104.821 95.657 104.417C95.4023 104.248 95.1159 104.131 94.8149 104.074C94.6643 104.049 94.5096 104.072 94.3733 104.141C94.237 104.209 94.1262 104.319 94.057 104.455C93.9097 104.836 94.2423 105.231 94.2781 105.638C94.3412 106.351 93.4592 106.824 92.7476 106.705C92.036 106.586 91.4592 106.109 90.8276 105.78C90.2971 105.508 89.5918 105.324 89.0297 105.612C88.5203 105.872 88.3982 106.502 87.9224 106.808C87.2066 107.272 86.3308 106.908 85.5308 107.017C84.0571 107.212 82.613 107.869 81.1098 108.108C79.636 108.369 78.1269 108.363 76.6551 108.091V108.091Z" fill="#232323"/>
<path d="M66.6551 38.0909C66.0572 37.9695 65.4467 37.779 65.0004 37.3645C64.5541 36.95 64.3141 36.2634 64.5794 35.715C64.9478 34.9488 66.053 34.8023 66.5014 34.0843C67.1099 33.1256 66.2278 31.9157 66.2257 30.7811C66.2262 30.392 66.3342 30.0106 66.5378 29.6784C66.7414 29.3462 67.0329 29.076 67.3804 28.8971C67.7279 28.7183 68.1181 28.6378 68.5084 28.6644C68.8988 28.691 69.2743 28.8236 69.594 29.0478C70.3309 29.5691 70.674 30.5131 71.3877 31.0595C72.3856 31.8319 73.8508 31.6561 74.9813 31.0951C76.1119 30.5341 77.0529 29.6528 78.1392 29.0185C79.2255 28.3843 80.6171 28.0138 81.7497 28.5748C82.6739 29.029 83.2107 29.9752 83.7749 30.8125C84.3391 31.6498 85.1244 32.5018 86.1433 32.5625C87.4065 32.6399 88.7096 31.4886 89.8043 32.1145C90.5286 32.5332 90.6633 33.6112 90.1959 34.2999C89.7286 34.9886 88.8317 35.2942 87.9981 35.2398C87.1644 35.1854 86.3833 34.8211 85.657 34.4171C85.4023 34.2478 85.1159 34.1311 84.8149 34.0738C84.6643 34.0489 84.5096 34.0724 84.3733 34.1409C84.237 34.2095 84.1262 34.3194 84.057 34.4548C83.9097 34.8358 84.2423 35.2314 84.2781 35.6375C84.3412 36.3513 83.4592 36.8244 82.7476 36.7051C82.036 36.5858 81.4592 36.1085 80.8276 35.7799C80.2971 35.5077 79.5918 35.3235 79.0297 35.6124C78.5203 35.872 78.3982 36.5021 77.9224 36.8077C77.2066 37.2724 76.3308 36.9082 75.5308 37.017C74.0571 37.2117 72.613 37.869 71.1098 38.1076C69.636 38.3687 68.1269 38.3631 66.6551 38.0909V38.0909Z" fill="#BBBBBB"/>
<path d="M83.6551 36.5078C83.0572 36.6292 82.4467 36.8197 82.0004 37.2341C81.5541 37.6486 81.3141 38.3352 81.5794 38.8837C81.9478 39.6498 83.053 39.7963 83.5014 40.5143C84.1099 41.4731 83.2278 42.683 83.2257 43.8175C83.2262 44.2066 83.3342 44.588 83.5378 44.9202C83.7414 45.2524 84.0329 45.5227 84.3804 45.7015C84.7279 45.8803 85.1181 45.9608 85.5084 45.9342C85.8988 45.9077 86.2743 45.775 86.594 45.5508C87.3309 45.0296 87.674 44.0855 88.3877 43.5391C89.3856 42.7667 90.8508 42.9425 91.9813 43.5036C93.1119 44.0646 94.0529 44.9458 95.1392 45.5801C96.2255 46.2144 97.6171 46.5849 98.7497 46.0239C99.6739 45.5696 100.211 44.6235 100.775 43.7861C101.339 42.9488 102.124 42.0969 103.143 42.0362C104.406 41.9587 105.71 43.11 106.804 42.4841C107.529 42.0655 107.663 40.9874 107.196 40.2987C106.729 39.61 105.832 39.3044 104.998 39.3588C104.164 39.4133 103.383 39.7775 102.657 40.1815C102.402 40.3508 102.116 40.4676 101.815 40.5248C101.664 40.5497 101.51 40.5262 101.373 40.4577C101.237 40.3892 101.126 40.2792 101.057 40.1438C100.91 39.7628 101.242 39.3672 101.278 38.9611C101.341 38.2473 100.459 37.7742 99.7476 37.8935C99.036 38.0128 98.4592 38.4901 97.8276 38.8188C97.2971 39.0909 96.5918 39.2751 96.0297 38.9862C95.5203 38.7267 95.3982 38.0966 94.9224 37.791C94.2066 37.3262 93.3308 37.6905 92.5308 37.5816C91.0571 37.387 89.613 36.7297 88.1098 36.491C86.636 36.2299 85.1269 36.2356 83.6551 36.5078V36.5078Z" fill="#232323"/>
<path d="M65.258 64.573C64.6795 64.3792 64.0555 64.2389 63.4618 64.3747C62.868 64.5105 62.3169 64.9851 62.2724 65.5927C62.2084 66.4404 63.0923 67.12 63.1216 67.966C63.1691 69.1005 61.8003 69.7072 61.2312 70.6887C61.0371 71.0259 60.9399 71.4103 60.9502 71.7998C60.9604 72.1893 61.0777 72.569 61.2892 72.8976C61.5007 73.2262 61.7984 73.4911 62.1498 73.6632C62.5011 73.8354 62.8926 73.9083 63.2816 73.874C64.1804 73.791 64.9496 73.145 65.8408 73.0287C67.0912 72.8587 68.2723 73.7436 68.9708 74.7947C69.6694 75.8458 70.0437 77.0795 70.6673 78.1719C71.291 79.2644 72.3108 80.281 73.5722 80.3615C74.5997 80.4302 75.5377 79.8792 76.445 79.4362C77.3523 78.9932 78.4583 78.648 79.3711 79.1049C80.5037 79.6694 81.0566 81.318 82.3176 81.3233C83.1541 81.3228 83.8098 80.4566 83.7494 79.6265C83.689 78.7964 83.0652 78.0833 82.316 77.7136C81.5668 77.3439 80.7082 77.2688 79.8772 77.2555C79.572 77.2748 79.2656 77.2327 78.9763 77.1318C78.8334 77.078 78.7112 76.9803 78.6274 76.8528C78.5436 76.7253 78.5026 76.5747 78.5105 76.4229C78.5733 76.0193 79.0592 75.843 79.2932 75.5092C79.7049 74.9226 79.1775 74.0718 78.5016 73.8194C77.8257 73.5669 77.0875 73.6918 76.3762 73.6606C75.7807 73.6311 75.0778 73.438 74.7355 72.9067C74.424 72.4272 74.6333 71.8205 74.3741 71.3179C73.9866 70.5576 73.046 70.4351 72.4076 69.9409C71.2287 69.0354 70.3067 67.7441 69.1242 66.7859C67.9784 65.8228 66.6687 65.0732 65.258 64.573V64.573Z" fill="#232323"/>
<path d="M22.7226 106.793C23.0649 106.92 23.3907 107.091 23.6927 107.299C23.826 107.272 23.9575 107.235 24.0863 107.19C25.7865 106.609 26.6642 104.532 26.432 102.708C26.2588 101.352 25.2631 98.5142 23.7183 98.3185C23.3012 98.2803 22.881 98.2993 22.4688 98.375L22.4688 106.704C22.5534 106.732 22.638 106.76 22.7226 106.793Z" fill="#232323"/>
<path d="M22.7226 34.8059C23.0649 34.6782 23.3907 34.5081 23.6927 34.2993C23.826 34.3271 23.9575 34.3635 24.0863 34.4083C25.7865 34.9895 26.6642 37.0662 26.432 38.8906C26.2588 40.2469 25.2631 43.0844 23.7183 43.2802C23.3012 43.3184 22.881 43.2994 22.4688 43.2237L22.4688 34.8947C22.5534 34.8664 22.638 34.8382 22.7226 34.8059Z" fill="#232323"/>
<path d="M105.215 106.793C104.873 106.92 104.547 107.091 104.245 107.299C104.111 107.272 103.98 107.235 103.851 107.19C102.151 106.609 101.273 104.532 101.506 102.708C101.679 101.352 102.674 98.5142 104.219 98.3185C104.636 98.2803 105.057 98.2993 105.469 98.375L105.469 106.704C105.384 106.732 105.3 106.76 105.215 106.793Z" fill="#232323"/>
<path d="M105.215 34.8059C104.873 34.6782 104.547 34.5081 104.245 34.2993C104.111 34.3271 103.98 34.3635 103.851 34.4083C102.151 34.9895 101.273 37.0662 101.506 38.8906C101.679 40.2469 102.674 43.0844 104.219 43.2802C104.636 43.3184 105.057 43.2994 105.469 43.2237L105.469 34.8947C105.384 34.8664 105.3 34.8382 105.215 34.8059Z" fill="#232323"/>
<path d="M23.2022 83.2946C24.0707 83.3491 25.0201 82.9307 25.2856 82.1848C25.5511 81.4389 25.1033 80.6142 25.3621 79.8723C25.7513 78.7525 27.4432 78.4735 28.1564 77.4911C28.7684 76.6442 28.4377 75.3909 27.5422 74.7845C26.6468 74.1781 25.3441 74.1579 24.3429 74.6248C23.6207 74.9624 23.0537 75.5061 22.4688 76.0236L22.4687 83.1571C22.7057 83.231 22.9522 83.2772 23.2022 83.2946V83.2946Z" fill="#DFDFDF"/>
<path d="M23.2022 57.3041C24.0707 57.2495 25.0201 57.6679 25.2856 58.4138C25.5511 59.1597 25.1033 59.9844 25.3621 60.7263C25.7513 61.8461 27.4432 62.1251 28.1564 63.1075C28.7684 63.9544 28.4377 65.2077 27.5422 65.8141C26.6468 66.4205 25.3441 66.4408 24.3429 65.9738C23.6207 65.6362 23.0537 65.0925 22.4688 64.575L22.4687 57.4415C22.7057 57.3676 22.9522 57.3214 23.2022 57.3041V57.3041Z" fill="#DFDFDF"/>
<path d="M105.735 83.2946C104.867 83.3491 103.917 82.9307 103.652 82.1848C103.386 81.4389 103.834 80.6142 103.575 79.8723C103.186 78.7525 101.494 78.4735 100.781 77.4911C100.169 76.6442 100.5 75.3909 101.395 74.7845C102.291 74.1781 103.593 74.1579 104.595 74.6248C105.317 74.9624 105.884 75.5061 106.469 76.0236L106.469 83.1571C106.232 83.231 105.985 83.2772 105.735 83.2946V83.2946Z" fill="#DFDFDF"/>
<path d="M105.735 57.3041C104.867 57.2495 103.917 57.6679 103.652 58.4138C103.386 59.1597 103.834 59.9844 103.575 60.7263C103.186 61.8461 101.494 62.1251 100.781 63.1075C100.169 63.9544 100.5 65.2077 101.395 65.8141C102.291 66.4205 103.593 66.4408 104.595 65.9738C105.317 65.6362 105.884 65.0925 106.469 64.575L106.469 57.4415C106.232 57.3676 105.985 57.3214 105.735 57.3041V57.3041Z" fill="#DFDFDF"/>
<path d="M24.1819 95.7234C24.6574 94.6615 24.6879 93.453 25.0963 92.3635C25.6531 90.8768 25.5353 89.6896 25.074 88.1838C24.959 87.7026 24.7576 87.2485 24.4806 86.8458C24.1798 86.4635 23.6901 86.2086 23.2328 86.3297C22.9443 86.4397 22.6832 86.6161 22.4688 86.8458L22.4687 97.2993C23.2146 97.1103 23.8466 96.4646 24.1819 95.7234Z" fill="#BBBBBB"/>
<path d="M24.1819 44.8752C24.6574 45.9371 24.6879 47.1456 25.0963 48.2351C25.6531 49.7218 25.5353 50.909 25.074 52.4148C24.959 52.8961 24.7576 53.3501 24.4806 53.7529C24.1798 54.1351 23.6901 54.39 23.2328 54.2689C22.9443 54.159 22.6832 53.9826 22.4688 53.7529L22.4687 43.2993C23.2146 43.4883 23.8466 44.134 24.1819 44.8752Z" fill="#BBBBBB"/>
<path d="M103.756 95.7234C103.28 94.6615 103.25 93.453 102.841 92.3635C102.284 90.8768 102.402 89.6896 102.864 88.1838C102.978 87.7026 103.18 87.2485 103.457 86.8458C103.758 86.4635 104.247 86.2086 104.705 86.3297C104.993 86.4397 105.254 86.6161 105.469 86.8458L105.469 97.2993C104.723 97.1103 104.091 96.4646 103.756 95.7234Z" fill="#BBBBBB"/>
<path d="M103.756 44.8752C103.28 45.9371 103.25 47.1456 102.841 48.2351C102.284 49.7218 102.402 50.909 102.864 52.4148C102.978 52.8961 103.18 53.3501 103.457 53.7529C103.758 54.1351 104.247 54.39 104.705 54.2689C104.993 54.159 105.254 53.9826 105.469 53.7529L105.469 43.2993C104.723 43.4883 104.091 44.134 103.756 44.8752Z" fill="#BBBBBB"/>
<path d="M42.4133 111.746C42.4133 111.723 42.4188 111.7 42.4297 111.677C42.5792 110.972 42.2966 110.142 41.6311 109.86C41.1827 109.658 40.6647 109.747 40.1814 109.827L39.8067 109.888C38.4041 110.108 36.9114 110.223 35.7115 109.518C34.8167 108.995 34.2229 108.105 33.4223 107.442C32.5974 106.77 31.5784 106.372 30.5106 106.305C29.7632 106.261 28.891 106.465 28.5777 107.133C28.1682 108.002 28.9872 108.951 29.8062 109.438C30.7672 109.996 31.8469 110.325 32.9595 110.399C33.3691 110.425 33.7786 110.421 34.1451 110.587C34.5116 110.752 34.8106 111.15 34.7 111.532C34.5894 111.914 34.1738 112.081 33.8052 112.212L33.5349 112.299L42.1881 112.299C42.2874 112.125 42.3632 111.939 42.4133 111.746V111.746Z" fill="#232323"/>
<path d="M42.4133 29.8527C42.4133 29.8756 42.4188 29.8985 42.4297 29.9214C42.5792 30.6262 42.2966 31.4563 41.6311 31.739C41.1827 31.941 40.6647 31.8521 40.1814 31.7713L39.8067 31.7107C38.4041 31.4906 36.9114 31.3755 35.7115 32.0803C34.8167 32.6034 34.2229 33.494 33.4223 34.1565C32.5974 34.8286 31.5784 35.2265 30.5106 35.2935C29.7632 35.3379 28.891 35.134 28.5777 34.4655C28.1682 33.597 28.9872 32.6478 29.8062 32.1611C30.7672 31.603 31.8469 31.2739 32.9595 31.1998C33.3691 31.1735 33.7786 31.1775 34.1451 31.0119C34.5116 30.8463 34.8106 30.4485 34.7 30.0668C34.5894 29.6851 34.1738 29.5174 33.8052 29.3862L33.5349 29.2993L42.1881 29.2993C42.2874 29.4732 42.3632 29.6593 42.4133 29.8527V29.8527Z" fill="#232323"/>
<path d="M85.5242 111.746C85.5242 111.723 85.5187 111.7 85.5078 111.677C85.3583 110.972 85.6409 110.142 86.3064 109.86C86.7548 109.658 87.2728 109.747 87.7561 109.827L88.1308 109.888C89.5334 110.108 91.0261 110.223 92.226 109.518C93.1208 108.995 93.7146 108.105 94.5152 107.442C95.3401 106.77 96.3591 106.372 97.4269 106.305C98.1743 106.261 99.0465 106.465 99.3598 107.133C99.7693 108.002 98.9503 108.951 98.1313 109.438C97.1703 109.996 96.0906 110.325 94.978 110.399C94.5684 110.425 94.1589 110.421 93.7924 110.587C93.4259 110.752 93.1269 111.15 93.2375 111.532C93.3481 111.914 93.7637 112.081 94.1323 112.212L94.4026 112.299L85.7494 112.299C85.6501 112.125 85.5743 111.939 85.5242 111.746V111.746Z" fill="#232323"/>
<path d="M85.5242 29.8527C85.5242 29.8756 85.5187 29.8985 85.5078 29.9214C85.3583 30.6262 85.6409 31.4563 86.3064 31.739C86.7548 31.941 87.2728 31.8521 87.7561 31.7713L88.1308 31.7107C89.5334 31.4906 91.0261 31.3755 92.226 32.0803C93.1208 32.6034 93.7146 33.494 94.5152 34.1565C95.3401 34.8286 96.3591 35.2265 97.4269 35.2935C98.1743 35.3379 99.0465 35.134 99.3598 34.4655C99.7693 33.597 98.9503 32.6478 98.1313 32.1611C97.1703 31.603 96.0906 31.2739 94.978 31.1998C94.5684 31.1735 94.1589 31.1775 93.7924 31.0119C93.4259 30.8463 93.1269 30.4485 93.2375 30.0668C93.3481 29.6851 93.7637 29.5174 94.1323 29.3862L94.4026 29.2993L85.7494 29.2993C85.6501 29.4732 85.5743 29.6593 85.5242 29.8527V29.8527Z" fill="#232323"/>
<path d="M25.3488 109.832C25.0731 108.648 24.4517 107.621 23.5968 106.936C23.3185 106.712 23.0182 106.529 22.7027 106.392C22.6265 106.36 22.5486 106.327 22.4688 106.299L22.4687 112.299L25.24 112.299C25.5018 111.513 25.54 110.646 25.3488 109.832V109.832Z" fill="#DFDFDF"/>
<path d="M25.3488 31.7668C25.0731 32.9508 24.4517 33.978 23.5968 34.663C23.3185 34.8869 23.0182 35.0693 22.7027 35.2062C22.6265 35.2387 22.5486 35.2712 22.4688 35.2993L22.4687 29.2993L25.24 29.2993C25.5018 30.0854 25.54 30.9523 25.3488 31.7668V31.7668Z" fill="#DFDFDF"/>
<path d="M102.589 109.832C102.864 108.648 103.486 107.621 104.341 106.936C104.619 106.712 104.919 106.529 105.235 106.392C105.311 106.36 105.389 106.327 105.469 106.299L105.469 112.299L102.697 112.299C102.436 111.513 102.397 110.646 102.589 109.832V109.832Z" fill="#DFDFDF"/>
<path d="M102.589 31.7668C102.864 32.9508 103.486 33.978 104.341 34.663C104.619 34.8869 104.919 35.0693 105.235 35.2062C105.311 35.2387 105.389 35.2712 105.469 35.2993L105.469 29.2993L102.697 29.2993C102.436 30.0854 102.397 30.9523 102.589 31.7668V31.7668Z" fill="#DFDFDF"/>
<path d="M45.3423 84.6406C46.5632 84.5426 47.7903 84.7825 49.0153 84.722C50.2403 84.6615 51.5578 84.2004 52.16 83.1156C52.382 82.7145 52.488 82.2579 52.4659 81.7984C52.4437 81.3389 52.2943 80.8951 52.0347 80.5179C51.7752 80.1407 51.4161 79.8455 50.9987 79.6662C50.5813 79.4869 50.1225 79.4308 49.675 79.5043C48.8385 79.642 48.1273 80.2157 47.3031 80.4097C45.9754 80.7227 44.6435 80.0175 43.4452 79.3541C42.2469 78.6907 40.8821 78.0251 39.5749 78.4153C38.3417 78.7824 37.5298 79.9862 36.3479 80.4806C34.5577 81.2296 32.5907 80.1761 30.7141 79.6879C29.6638 79.4146 28.5293 79.3249 27.5077 79.6879C26.4862 80.0509 25.6044 80.9584 25.4811 82.0537C25.3578 83.1489 26.1717 84.3298 27.2549 84.3861C28.0134 84.4257 28.6937 83.9688 29.3555 83.5871C30.114 83.1573 30.9464 82.8131 31.822 82.8131C32.6976 82.8131 33.5958 83.2157 34.0212 83.9834C34.3748 84.6198 34.4611 85.5335 35.1373 85.786C35.5833 85.9529 36.0746 85.7255 36.4651 85.4522C36.8556 85.1789 37.2359 84.8451 37.6983 84.7679C38.1608 84.6907 38.7383 85.0307 38.687 85.5106C38.6376 85.7207 38.5459 85.9182 38.4177 86.0905C38.1723 86.5131 38.0782 87.0087 38.1513 87.4935C38.2245 87.9784 38.4604 88.4227 38.8192 88.7513C39.178 89.0798 39.6376 89.2725 40.1202 89.2967C40.6029 89.3209 41.079 89.1751 41.4679 88.884C42.4956 88.1205 41.9797 87.1399 42.4093 86.1907C42.8697 85.1663 44.3475 84.7324 45.3423 84.6406Z" fill="#BBBBBB"/>
<path d="M63.3423 114.641C64.5632 114.543 65.7903 114.782 67.0153 114.722C68.2403 114.661 69.5578 114.2 70.16 113.116C70.382 112.714 70.488 112.258 70.4659 111.798C70.4437 111.339 70.2943 110.895 70.0347 110.518C69.7752 110.141 69.4161 109.846 68.9987 109.666C68.5813 109.487 68.1225 109.431 67.675 109.504C66.8385 109.642 66.1273 110.216 65.3031 110.41C63.9754 110.723 62.6435 110.018 61.4452 109.354C60.2469 108.691 58.8821 108.025 57.5749 108.415C56.3417 108.782 55.5298 109.986 54.3479 110.481C52.5577 111.23 50.5907 110.176 48.7141 109.688C47.6638 109.415 46.5293 109.325 45.5077 109.688C44.4862 110.051 43.6044 110.958 43.4811 112.054C43.3578 113.149 44.1717 114.33 45.2549 114.386C46.0134 114.426 46.6937 113.969 47.3555 113.587C48.114 113.157 48.9464 112.813 49.822 112.813C50.6976 112.813 51.5958 113.216 52.0212 113.983C52.3748 114.62 52.4611 115.534 53.1373 115.786C53.5833 115.953 54.0746 115.725 54.4651 115.452C54.8556 115.179 55.2359 114.845 55.6983 114.768C56.1608 114.691 56.7383 115.031 56.687 115.511C56.6376 115.721 56.5459 115.918 56.4177 116.091C56.1723 116.513 56.0782 117.009 56.1513 117.494C56.2245 117.978 56.4604 118.423 56.8192 118.751C57.178 119.08 57.6376 119.273 58.1202 119.297C58.6029 119.321 59.079 119.175 59.4679 118.884C60.4956 118.12 59.9797 117.14 60.4093 116.191C60.8697 115.166 62.3475 114.732 63.3423 114.641Z" fill="#BBBBBB"/>
<path d="M74.3423 90.958C75.5632 91.0561 76.7903 90.8162 78.0153 90.8767C79.2403 90.9372 80.5578 91.3982 81.16 92.4831C81.382 92.8842 81.488 93.3407 81.4659 93.8002C81.4437 94.2597 81.2943 94.7036 81.0347 95.0807C80.7752 95.4579 80.4161 95.7531 79.9987 95.9324C79.5813 96.1117 79.1225 96.1678 78.675 96.0943C77.8385 95.9567 77.1273 95.3829 76.3031 95.1889C74.9754 94.876 73.6435 95.5811 72.4452 96.2446C71.2469 96.908 69.8821 97.5735 68.5749 97.1834C67.3417 96.8162 66.5298 95.6124 65.3479 95.118C63.5577 94.369 61.5907 95.4226 59.7141 95.9108C58.6638 96.1841 57.5293 96.2738 56.5077 95.9108C55.4862 95.5478 54.6044 94.6402 54.4811 93.545C54.3578 92.4497 55.1717 91.2689 56.2549 91.2125C57.0134 91.1729 57.6937 91.6298 58.3555 92.0116C59.114 92.4413 59.9464 92.7856 60.822 92.7856C61.6976 92.7856 62.5958 92.3829 63.0212 91.6152C63.3748 90.9789 63.4611 90.0651 64.1373 89.8127C64.5833 89.6458 65.0746 89.8732 65.4651 90.1465C65.8556 90.4198 66.2359 90.7536 66.6983 90.8308C67.1608 90.908 67.7383 90.5679 67.687 90.0881C67.6376 89.8779 67.5459 89.6805 67.4177 89.5081C67.1723 89.0856 67.0782 88.59 67.1513 88.1051C67.2245 87.6203 67.4604 87.176 67.8192 86.8474C68.178 86.5188 68.6376 86.3261 69.1202 86.3019C69.6029 86.2777 70.079 86.4235 70.4679 86.7146C71.4956 87.4782 70.9797 88.4587 71.4093 89.4079C71.8697 90.4323 73.3475 90.8662 74.3423 90.958Z" fill="#BBBBBB"/>
<path d="M78.5952 70.6406C77.3743 70.5426 76.1472 70.7825 74.9222 70.722C73.6972 70.6615 72.3797 70.2004 71.7775 69.1156C71.5555 68.7145 71.4495 68.2579 71.4716 67.7984C71.4938 67.3389 71.6432 66.8951 71.9028 66.5179C72.1623 66.1407 72.5214 65.8455 72.9388 65.6662C73.3562 65.4869 73.815 65.4308 74.2625 65.5043C75.099 65.642 75.8102 66.2157 76.6344 66.4097C77.9621 66.7227 79.294 66.0175 80.4923 65.3541C81.6906 64.6907 83.0554 64.0251 84.3626 64.4153C85.5958 64.7824 86.4077 65.9862 87.5896 66.4806C89.3798 67.2296 91.3468 66.1761 93.2234 65.6879C94.2737 65.4146 95.4082 65.3249 96.4298 65.6879C97.4513 66.0509 98.3331 66.9584 98.4564 68.0537C98.5797 69.1489 97.7658 70.3298 96.6826 70.3861C95.9241 70.4257 95.2438 69.9688 94.582 69.5871C93.8235 69.1573 92.9911 68.8131 92.1155 68.8131C91.2399 68.8131 90.3417 69.2157 89.9163 69.9834C89.5627 70.6198 89.4764 71.5335 88.8002 71.786C88.3542 71.9529 87.8629 71.7255 87.4724 71.4522C87.0819 71.1789 86.7016 70.8451 86.2392 70.7679C85.7767 70.6907 85.1992 71.0307 85.2505 71.5106C85.2999 71.7207 85.3916 71.9182 85.5198 72.0905C85.7652 72.5131 85.8593 73.0087 85.7862 73.4935C85.713 73.9784 85.4771 74.4227 85.1183 74.7513C84.7595 75.0798 84.2999 75.2725 83.8173 75.2967C83.3346 75.3209 82.8585 75.1751 82.4696 74.884C81.4419 74.1205 81.9578 73.1399 81.5282 72.1907C81.0678 71.1663 79.59 70.7324 78.5952 70.6406Z" fill="#DFDFDF"/>
<path d="M30.5952 54.6406C29.3743 54.5426 28.1472 54.7825 26.9222 54.722C25.6972 54.6615 24.3797 54.2004 23.7775 53.1156C23.5555 52.7145 23.4495 52.2579 23.4716 51.7984C23.4938 51.3389 23.6432 50.8951 23.9028 50.5179C24.1623 50.1407 24.5214 49.8455 24.9388 49.6662C25.3562 49.4869 25.815 49.4308 26.2625 49.5043C27.099 49.642 27.8102 50.2157 28.6344 50.4097C29.9621 50.7227 31.294 50.0175 32.4923 49.3541C33.6906 48.6907 35.0554 48.0251 36.3626 48.4153C37.5958 48.7824 38.4077 49.9862 39.5896 50.4806C41.3798 51.2296 43.3468 50.1761 45.2234 49.6879C46.2737 49.4146 47.4082 49.3249 48.4298 49.6879C49.4513 50.0509 50.3331 50.9584 50.4564 52.0537C50.5797 53.1489 49.7658 54.3298 48.6826 54.3861C47.9241 54.4257 47.2438 53.9688 46.582 53.5871C45.8235 53.1573 44.9911 52.8131 44.1155 52.8131C43.2399 52.8131 42.3417 53.2157 41.9163 53.9834C41.5627 54.6198 41.4764 55.5335 40.8002 55.786C40.3542 55.9529 39.8629 55.7255 39.4724 55.4522C39.0819 55.1789 38.7016 54.8451 38.2392 54.7679C37.7767 54.6907 37.1992 55.0307 37.2505 55.5106C37.2999 55.7207 37.3916 55.9182 37.5198 56.0905C37.7652 56.5131 37.8593 57.0087 37.7862 57.4935C37.713 57.9784 37.4771 58.4227 37.1183 58.7513C36.7595 59.0798 36.2999 59.2725 35.8173 59.2967C35.3346 59.3209 34.8585 59.1751 34.4696 58.884C33.4419 58.1205 33.9578 57.1399 33.5282 56.1907C33.0678 55.1663 31.59 54.7324 30.5952 54.6406Z" fill="#DFDFDF"/>
<path d="M59.5952 55.958C58.3743 56.0561 57.1472 55.8162 55.9222 55.8767C54.6972 55.9372 53.3797 56.3982 52.7775 57.4831C52.5555 57.8842 52.4495 58.3407 52.4716 58.8002C52.4938 59.2597 52.6432 59.7036 52.9028 60.0807C53.1623 60.4579 53.5214 60.7531 53.9388 60.9324C54.3562 61.1117 54.815 61.1678 55.2625 61.0943C56.099 60.9567 56.8102 60.3829 57.6344 60.1889C58.9621 59.876 60.294 60.5811 61.4923 61.2446C62.6906 61.908 64.0554 62.5735 65.3626 62.1834C66.5958 61.8162 67.4077 60.6124 68.5896 60.118C70.3798 59.369 72.3468 60.4226 74.2234 60.9108C75.2737 61.1841 76.4082 61.2738 77.4298 60.9108C78.4513 60.5478 79.3331 59.6402 79.4564 58.545C79.5797 57.4497 78.7658 56.2689 77.6826 56.2125C76.9241 56.1729 76.2438 56.6298 75.582 57.0116C74.8235 57.4413 73.9911 57.7856 73.1155 57.7856C72.2399 57.7856 71.3417 57.3829 70.9163 56.6152C70.5627 55.9789 70.4764 55.0651 69.8002 54.8127C69.3542 54.6458 68.8629 54.8732 68.4724 55.1465C68.0819 55.4198 67.7016 55.7536 67.2392 55.8308C66.7767 55.908 66.1992 55.5679 66.2505 55.0881C66.2999 54.8779 66.3916 54.6805 66.5198 54.5081C66.7652 54.0856 66.8593 53.59 66.7862 53.1051C66.713 52.6203 66.4771 52.176 66.1183 51.8474C65.7595 51.5188 65.2999 51.3261 64.8173 51.3019C64.3346 51.2777 63.8585 51.4235 63.4696 51.7146C62.4419 52.4782 62.9578 53.4587 62.5282 54.4079C62.0678 55.4323 60.59 55.8662 59.5952 55.958Z" fill="#BBBBBB"/>
<path d="M29.6292 72.3207C31.1382 72.7758 32.7395 72.7108 34.2132 72.1346C35.8176 71.5014 37.3762 70.2508 39.0515 70.6094C39.6912 70.7456 40.3392 71.2063 40.4517 71.9053C40.5559 72.5454 40.1683 73.1831 39.6641 73.5281C39.1598 73.8731 38.5514 73.982 37.9638 74.0864C37.4033 73.839 36.972 74.2113 36.4344 74.5131C35.8968 74.815 35.3738 75.194 34.7675 75.2825C34.0507 75.3801 33.3568 75.0283 32.6526 74.8558C31.6107 74.5994 30.521 74.7333 29.45 74.7423C28.379 74.7514 27.2434 74.6084 26.3953 73.8958C25.466 73.115 25.068 71.4628 25.9994 70.5595C26.1037 70.4542 26.2296 70.3774 26.3666 70.3356C26.5035 70.2937 26.6477 70.288 26.787 70.3189C27.3309 70.4528 27.358 71.0906 27.6851 71.4537C27.8477 71.6075 28.0472 71.7075 28.2601 71.7421C28.4731 71.7767 28.6907 71.7443 28.8874 71.6489C28.9589 71.6167 29.0285 71.5795 29.0957 71.5377C29.1877 71.4813 29.295 71.4624 29.3985 71.4844C29.502 71.5065 29.595 71.5679 29.6607 71.6578C29.7264 71.7476 29.7605 71.8601 29.7571 71.9749C29.7536 72.0897 29.7127 72.1994 29.6417 72.2844L29.6292 72.3207Z" fill="#232323"/>
<path d="M33.6862 95.7326C34.5658 95.5197 35.4771 95.4963 36.3673 95.3366C37.2575 95.177 38.1625 94.8704 38.7926 94.2191C39.4227 93.5677 39.6997 92.5054 39.2409 91.7199C38.4945 90.4427 36.3948 90.5662 35.6463 89.2932C34.8978 88.0202 35.9973 86.4514 35.8852 84.9847C35.8099 84.3201 35.49 83.708 34.9886 83.2691C34.4873 82.8302 33.8408 82.5962 33.1766 82.6133C32.2293 82.6729 31.3074 83.2519 30.3855 83.039C29.508 82.8261 28.9752 81.9619 28.3852 81.2743C27.7953 80.5867 26.8015 79.9971 26.0318 80.4696C25.3341 80.8954 25.3319 81.981 25.7675 82.6814C26.2031 83.3817 26.9368 83.8245 27.5754 84.346C28.214 84.8676 28.8102 85.5786 28.7827 86.4045C28.7574 87.1602 28.2224 87.7839 27.7868 88.4013C27.3513 89.0186 26.9855 89.8296 27.3195 90.5066C27.6917 91.2601 28.7193 91.424 29.2437 92.0797C29.4221 92.329 29.5397 92.6173 29.5867 92.9209C29.6337 93.2246 29.6089 93.5352 29.5144 93.8274C29.319 94.4103 29.0066 94.9464 28.5967 95.4026C28.1019 96.005 27.5542 96.5649 27.1166 97.212C26.6789 97.8592 26.3638 98.6191 26.404 99.3982C26.4505 100.331 27.1969 101.431 28.2414 101.286C29.0999 101.167 29.0555 100.507 29.2056 99.7963C29.6687 97.6804 31.669 96.2115 33.6862 95.7326Z" fill="#BBBBBB"/>
<path d="M33.6862 45.8661C34.5658 46.0789 35.4771 46.1023 36.3673 46.262C37.2575 46.4217 38.1625 46.7282 38.7926 47.3796C39.4227 48.031 39.6997 49.0932 39.2409 49.8787C38.4945 51.1559 36.3948 51.0325 35.6463 52.3054C34.8978 53.5784 35.9973 55.1473 35.8852 56.614C35.8099 57.2785 35.49 57.8906 34.9886 58.3295C34.4873 58.7685 33.8408 59.0025 33.1766 58.9854C32.2293 58.9258 31.3074 58.3467 30.3855 58.5596C29.508 58.7725 28.9752 59.6368 28.3852 60.3243C27.7953 61.0119 26.8015 61.6016 26.0318 61.129C25.3341 60.7032 25.3319 59.6176 25.7675 58.9172C26.2031 58.2169 26.9368 57.7741 27.5754 57.2526C28.214 56.7311 28.8102 56.0201 28.7827 55.1941C28.7574 54.4384 28.2224 53.8147 27.7868 53.1974C27.3513 52.58 26.9855 51.769 27.3195 51.0921C27.6917 50.3385 28.7193 50.1746 29.2437 49.5189C29.4221 49.2696 29.5397 48.9814 29.5867 48.6777C29.6337 48.374 29.6089 48.0635 29.5144 47.7713C29.319 47.1884 29.0066 46.6522 28.5967 46.196C28.1019 45.5936 27.5542 45.0337 27.1166 44.3866C26.6789 43.7395 26.3638 42.9795 26.404 42.2004C26.4505 41.268 27.1969 40.1675 28.2414 40.3122C29.0999 40.4314 29.0555 41.0913 29.2056 41.8023C29.6687 43.9183 31.669 45.3871 33.6862 45.8661Z" fill="#BBBBBB"/>
<path d="M94.2513 95.7326C93.3717 95.5197 92.4604 95.4963 91.5702 95.3366C90.68 95.177 89.775 94.8704 89.1449 94.2191C88.5148 93.5677 88.2378 92.5054 88.6966 91.7199C89.443 90.4427 91.5427 90.5662 92.2912 89.2932C93.0397 88.0202 91.9402 86.4514 92.0523 84.9847C92.1276 84.3201 92.4475 83.708 92.9489 83.2691C93.4502 82.8302 94.0967 82.5962 94.7609 82.6133C95.7082 82.6729 96.6301 83.2519 97.552 83.039C98.4295 82.8261 98.9623 81.9619 99.5523 81.2743C100.142 80.5867 101.136 79.9971 101.906 80.4696C102.603 80.8954 102.606 81.981 102.17 82.6814C101.734 83.3817 101.001 83.8245 100.362 84.346C99.7235 84.8676 99.1273 85.5786 99.1548 86.4045C99.1801 87.1602 99.7151 87.7839 100.151 88.4013C100.586 89.0186 100.952 89.8296 100.618 90.5066C100.246 91.2601 99.2182 91.424 98.6938 92.0797C98.5154 92.329 98.3978 92.6173 98.3508 92.9209C98.3038 93.2246 98.3286 93.5352 98.4231 93.8274C98.6185 94.4103 98.9309 94.9464 99.3408 95.4026C99.8356 96.005 100.383 96.5649 100.821 97.212C101.259 97.8592 101.574 98.6191 101.534 99.3982C101.487 100.331 100.741 101.431 99.6961 101.286C98.8376 101.167 98.882 100.507 98.7319 99.7963C98.2688 97.6804 96.2685 96.2115 94.2513 95.7326Z" fill="#BBBBBB"/>
<path d="M94.2513 45.8661C93.3717 46.0789 92.4604 46.1023 91.5702 46.262C90.68 46.4217 89.775 46.7282 89.1449 47.3796C88.5148 48.031 88.2378 49.0932 88.6966 49.8787C89.443 51.1559 91.5427 51.0325 92.2912 52.3054C93.0397 53.5784 91.9402 55.1473 92.0523 56.614C92.1276 57.2785 92.4475 57.8906 92.9489 58.3295C93.4502 58.7685 94.0967 59.0025 94.7609 58.9854C95.7082 58.9258 96.6301 58.3467 97.552 58.5596C98.4295 58.7725 98.9623 59.6368 99.5523 60.3243C100.142 61.0119 101.136 61.6016 101.906 61.129C102.603 60.7032 102.606 59.6176 102.17 58.9172C101.734 58.2169 101.001 57.7741 100.362 57.2526C99.7235 56.7311 99.1273 56.0201 99.1548 55.1941C99.1801 54.4384 99.7151 53.8147 100.151 53.1974C100.586 52.58 100.952 51.769 100.618 51.0921C100.246 50.3385 99.2182 50.1746 98.6938 49.5189C98.5154 49.2696 98.3978 48.9814 98.3508 48.6777C98.3038 48.374 98.3286 48.0635 98.4231 47.7713C98.6185 47.1884 98.9309 46.6522 99.3408 46.196C99.8356 45.5936 100.383 45.0337 100.821 44.3866C101.259 43.7395 101.574 42.9795 101.534 42.2004C101.487 41.268 100.741 40.1675 99.6961 40.3122C98.8376 40.4314 98.882 41.0913 98.7319 41.8023C98.2688 43.9183 96.2685 45.3871 94.2513 45.8661Z" fill="#BBBBBB"/>
<path d="M30.0479 93.0244C30.873 92.8873 31.7559 92.8992 32.5006 92.5256C33.2453 92.1521 33.7672 91.1804 33.2783 90.5227C32.9029 90.016 32.1252 89.9564 31.5084 90.1432C30.8916 90.3299 30.3532 90.7035 29.7467 90.9201C29.1402 91.1367 28.377 91.1506 27.9293 90.7015C27.5312 90.3041 27.5168 89.6822 27.2486 89.1933C27.0477 88.821 26.7079 88.5359 26.2974 88.3953C25.887 88.2546 25.4366 88.269 25.0367 88.4355C24.6369 88.602 24.3174 88.9083 24.1426 89.2926C23.9677 89.6769 23.9506 90.1108 24.0945 90.5068C24.3359 91.1784 25.0166 91.699 25.029 92.4104C25.0414 93.072 24.4679 93.5847 24.0904 94.1371C23.6778 94.7531 23.158 96.2712 23.7046 96.9587C24.3462 97.7654 25.0352 96.9587 25.3859 96.3964C26.442 94.6994 27.952 93.3701 30.0479 93.0244Z" fill="#232323"/>
<path d="M53.0479 110.024C53.873 109.887 54.7559 109.899 55.5006 109.526C56.2453 109.152 56.7672 108.18 56.2783 107.523C55.9029 107.016 55.1252 106.956 54.5084 107.143C53.8916 107.33 53.3532 107.703 52.7467 107.92C52.1402 108.137 51.377 108.151 50.9293 107.702C50.5312 107.304 50.5168 106.682 50.2486 106.193C50.0477 105.821 49.7079 105.536 49.2974 105.395C48.887 105.255 48.4366 105.269 48.0367 105.436C47.6369 105.602 47.3174 105.908 47.1426 106.293C46.9677 106.677 46.9506 107.111 47.0945 107.507C47.3359 108.178 48.0166 108.699 48.029 109.41C48.0414 110.072 47.4679 110.585 47.0904 111.137C46.6778 111.753 46.158 113.271 46.7046 113.959C47.3462 114.765 48.0352 113.959 48.3859 113.396C49.442 111.699 50.952 110.37 53.0479 110.024Z" fill="#232323"/>
<path d="M30.0479 48.5743C30.873 48.7114 31.7559 48.6995 32.5006 49.073C33.2453 49.4466 33.7672 50.4182 33.2783 51.076C32.9029 51.5827 32.1252 51.6423 31.5084 51.4555C30.8916 51.2687 30.3532 50.8951 29.7467 50.6785C29.1402 50.462 28.377 50.4481 27.9293 50.8971C27.5312 51.2945 27.5168 51.9165 27.2486 52.4053C27.0477 52.7776 26.7079 53.0628 26.2974 53.2034C25.887 53.344 25.4366 53.3296 25.0367 53.1631C24.6369 52.9966 24.3174 52.6904 24.1426 52.306C23.9677 51.9217 23.9506 51.4879 24.0945 51.0919C24.3359 50.4202 25.0166 49.8996 25.029 49.1883C25.0414 48.5266 24.4679 48.0139 24.0904 47.4615C23.6778 46.8455 23.158 45.3274 23.7046 44.6399C24.3462 43.8332 25.0352 44.6399 25.3859 45.2023C26.442 46.8992 27.952 48.2285 30.0479 48.5743Z" fill="#232323"/>
<path d="M97.8896 93.0244C97.0645 92.8873 96.1816 92.8992 95.4369 92.5256C94.6922 92.1521 94.1703 91.1804 94.6592 90.5227C95.0346 90.016 95.8123 89.9564 96.4291 90.1432C97.0459 90.3299 97.5843 90.7035 98.1908 90.9201C98.7973 91.1367 99.5605 91.1506 100.008 90.7015C100.406 90.3041 100.421 89.6822 100.689 89.1933C100.89 88.821 101.23 88.5359 101.64 88.3953C102.05 88.2546 102.501 88.269 102.901 88.4355C103.301 88.602 103.62 88.9083 103.795 89.2926C103.97 89.6769 103.987 90.1108 103.843 90.5068C103.602 91.1784 102.921 91.699 102.909 92.4104C102.896 93.072 103.47 93.5847 103.847 94.1371C104.26 94.7531 104.78 96.2712 104.233 96.9587C103.591 97.7654 102.902 96.9587 102.552 96.3964C101.495 94.6994 99.9855 93.3701 97.8896 93.0244Z" fill="#232323"/>
<path d="M29.8896 84.0244C29.0645 83.8873 28.1816 83.8992 27.4369 83.5256C26.6922 83.1521 26.1703 82.1804 26.6592 81.5227C27.0346 81.016 27.8123 80.9564 28.4291 81.1432C29.0459 81.3299 29.5843 81.7035 30.1908 81.9201C30.7973 82.1367 31.5605 82.1506 32.0082 81.7015C32.4063 81.3041 32.4207 80.6822 32.6889 80.1933C32.8898 79.821 33.2296 79.5359 33.6401 79.3953C34.0505 79.2546 34.5009 79.269 34.9008 79.4355C35.3006 79.602 35.6201 79.9083 35.7949 80.2926C35.9698 80.6769 35.9869 81.1108 35.843 81.5068C35.6016 82.1784 34.9209 82.699 34.9085 83.4104C34.8961 84.072 35.4696 84.5847 35.8471 85.1371C36.2597 85.7531 36.7795 87.2712 36.2329 87.9587C35.5913 88.7654 34.9023 87.9587 34.5516 87.3964C33.4955 85.6994 31.9855 84.3701 29.8896 84.0244Z" fill="#232323"/>
<path d="M97.8896 48.5743C97.0645 48.7114 96.1816 48.6995 95.4369 49.073C94.6922 49.4466 94.1703 50.4182 94.6592 51.076C95.0346 51.5827 95.8123 51.6423 96.4291 51.4555C97.0459 51.2687 97.5843 50.8951 98.1908 50.6785C98.7973 50.462 99.5605 50.4481 100.008 50.8971C100.406 51.2945 100.421 51.9165 100.689 52.4053C100.89 52.7776 101.23 53.0628 101.64 53.2034C102.05 53.344 102.501 53.3296 102.901 53.1631C103.301 52.9966 103.62 52.6904 103.795 52.306C103.97 51.9217 103.987 51.4879 103.843 51.0919C103.602 50.4202 102.921 49.8996 102.909 49.1883C102.896 48.5266 103.47 48.0139 103.847 47.4615C104.26 46.8455 104.78 45.3274 104.233 44.6399C103.591 43.8332 102.902 44.6399 102.552 45.2023C101.495 46.8992 99.9855 48.2285 97.8896 48.5743Z" fill="#232323"/>
<path d="M44.5726 92.8085C45.0606 93.056 45.5738 93.295 46.1205 93.2993C46.6671 93.3035 47.2515 93.0095 47.4191 92.4848C47.6076 91.8989 47.2285 91.2833 46.8054 90.8369C46.3823 90.3906 45.8754 89.9696 45.7204 89.3731C45.5466 88.6983 45.8712 88.0108 46.087 87.3486C46.3027 86.6865 46.3613 85.8403 45.8209 85.4067C45.0732 84.808 43.8898 85.5146 43.0415 85.0746C42.1932 84.6346 42.2414 83.3822 42.0613 82.4197C41.9119 81.6811 41.5565 81.001 41.0369 80.4598C40.5173 79.9186 39.8553 79.5387 39.1289 79.3651C38.1152 79.1366 36.8354 79.5005 36.5296 80.5032C36.3202 81.2203 36.6762 82.0072 37.2166 82.5192C37.757 83.0311 38.4524 83.3378 39.1017 83.6911C39.906 84.1247 40.6852 84.6599 41.2151 85.4088C41.745 86.1577 41.9942 87.1604 41.6759 88.0256C41.192 89.3456 38.9195 89.189 40.6056 90.4012C41.8649 91.305 43.1912 92.1098 44.5726 92.8085V92.8085Z" fill="#BBBBBB"/>
<path d="M44.5726 48.7901C45.0606 48.5426 45.5738 48.3036 46.1205 48.2994C46.6671 48.2951 47.2515 48.5892 47.4191 49.1138C47.6076 49.6998 47.2285 50.3153 46.8054 50.7617C46.3823 51.208 45.8754 51.629 45.7204 52.2256C45.5466 52.9004 45.8712 53.5879 46.087 54.25C46.3027 54.9121 46.3613 55.7583 45.8209 56.192C45.0732 56.7906 43.8898 56.0841 43.0415 56.5241C42.1932 56.9641 42.2414 58.2164 42.0613 59.1789C41.9119 59.9175 41.5565 60.5976 41.0369 61.1388C40.5173 61.6801 39.8553 62.0599 39.1289 62.2336C38.1152 62.462 36.8354 62.0982 36.5296 61.0955C36.3202 60.3783 36.6762 59.5914 37.2166 59.0795C37.757 58.5676 38.4524 58.2608 39.1017 57.9075C39.906 57.4739 40.6852 56.9387 41.2151 56.1898C41.745 55.441 41.9942 54.4383 41.6759 53.5731C41.192 52.2531 38.9195 52.4096 40.6056 51.1975C41.8649 50.2936 43.1912 49.4888 44.5726 48.7901V48.7901Z" fill="#BBBBBB"/>
<path d="M87.3649 88.8085C86.8769 89.056 86.3637 89.295 85.817 89.2993C85.2704 89.3035 84.686 89.0095 84.5184 88.4848C84.3299 87.8989 84.709 87.2833 85.1321 86.8369C85.5552 86.3906 86.0621 85.9696 86.2171 85.3731C86.3909 84.6983 86.0663 84.0108 85.8505 83.3486C85.6348 82.6865 85.5762 81.8403 86.1166 81.4067C86.8643 80.808 88.0477 81.5146 88.896 81.0746C89.7443 80.6346 89.6961 79.3822 89.8762 78.4197C90.0256 77.6811 90.381 77.001 90.9006 76.4598C91.4202 75.9186 92.0822 75.5387 92.8086 75.3651C93.8223 75.1366 95.1021 75.5005 95.4079 76.5032C95.6173 77.2203 95.2613 78.0072 94.7209 78.5192C94.1805 79.0311 93.4851 79.3378 92.8358 79.6911C92.0315 80.1247 91.2523 80.6599 90.7224 81.4088C90.1925 82.1577 89.9433 83.1604 90.2616 84.0256C90.7455 85.3456 93.018 85.189 91.3319 86.4012C90.0726 87.305 88.7463 88.1098 87.3649 88.8085V88.8085Z" fill="#BBBBBB"/>
<path d="M84.3649 48.7901C83.8769 48.5426 83.3637 48.3036 82.817 48.2994C82.2704 48.2951 81.686 48.5892 81.5184 49.1138C81.3299 49.6998 81.709 50.3153 82.1321 50.7617C82.5552 51.208 83.0621 51.629 83.2171 52.2256C83.3909 52.9004 83.0663 53.5879 82.8505 54.25C82.6348 54.9121 82.5762 55.7583 83.1166 56.192C83.8643 56.7906 85.0477 56.0841 85.896 56.5241C86.7443 56.9641 86.6961 58.2164 86.8762 59.1789C87.0256 59.9175 87.381 60.5976 87.9006 61.1388C88.4202 61.6801 89.0822 62.0599 89.8086 62.2336C90.8223 62.462 92.1021 62.0982 92.4079 61.0955C92.6173 60.3783 92.2613 59.5914 91.7209 59.0795C91.1805 58.5676 90.4851 58.2608 89.8358 57.9075C89.0315 57.4739 88.2523 56.9387 87.7224 56.1898C87.1925 55.441 86.9433 54.4383 87.2616 53.5731C87.7455 52.2531 90.018 52.4096 88.3319 51.1975C87.0726 50.2936 85.7463 49.4888 84.3649 48.7901V48.7901Z" fill="#BBBBBB"/>
<path d="M80.3649 107.79C79.8769 107.543 79.3637 107.304 78.817 107.299C78.2704 107.295 77.686 107.589 77.5184 108.114C77.3299 108.7 77.709 109.315 78.1321 109.762C78.5552 110.208 79.0621 110.629 79.2171 111.226C79.3909 111.9 79.0663 112.588 78.8505 113.25C78.6348 113.912 78.5762 114.758 79.1166 115.192C79.8643 115.791 81.0477 115.084 81.896 115.524C82.7443 115.964 82.6961 117.216 82.8762 118.179C83.0256 118.918 83.381 119.598 83.9006 120.139C84.4202 120.68 85.0822 121.06 85.8086 121.234C86.8223 121.462 88.1021 121.098 88.4079 120.095C88.6173 119.378 88.2613 118.591 87.7209 118.079C87.1805 117.568 86.4851 117.261 85.8358 116.908C85.0315 116.474 84.2523 115.939 83.7224 115.19C83.1925 114.441 82.9433 113.438 83.2616 112.573C83.7455 111.253 86.018 111.41 84.3319 110.197C83.0726 109.294 81.7463 108.489 80.3649 107.79V107.79Z" fill="#BBBBBB"/>
<path d="M49.4713 87.1675C49.5106 87.7442 50.2098 87.7851 50.6422 87.912C51.6435 88.209 53.9792 90.2059 54.7984 88.8072C55.0053 88.4651 54.9701 88.0239 55.1377 87.6624C55.5266 86.8167 56.6562 86.8253 57.5581 86.8017C58.4601 86.778 59.4035 86.5671 60.109 85.9732C60.5842 85.5724 60.8967 85 60.9841 84.3701C60.9921 84.3082 61.0125 84.2488 61.044 84.1958C61.1213 84.0542 61.219 83.9257 61.3337 83.8149C61.9026 83.2963 62.5936 82.9541 63.1956 82.4786C63.7976 82.003 64.3603 81.3747 64.4575 80.5935C64.5548 79.8124 64.0086 78.9215 63.2514 78.9258C62.7673 78.9258 62.3536 79.2658 61.9522 79.5477C61.5509 79.8296 61.0461 80.0792 60.5972 79.8877C60.0614 79.6596 59.9 78.9409 59.449 78.5643C58.7829 78.0091 57.763 78.4051 57.1547 79.027C56.8388 79.3227 56.6154 79.7103 56.5134 80.1395C56.4661 80.3543 56.479 80.5787 56.5505 80.7862C56.622 80.9936 56.7491 81.1755 56.9168 81.3101C57.5147 81.7276 58.4788 81.3101 58.9525 81.8847C58.9942 81.937 59.0242 81.9982 59.0406 82.0639C59.0569 82.1297 59.0592 82.1984 59.0471 82.2651C59.0351 82.3319 59.009 82.3951 58.9709 82.4502C58.9327 82.5053 58.8834 82.551 58.8263 82.584C58.7672 82.6174 58.7111 82.6563 58.6587 82.7002C58.245 83.0445 58.0878 83.6126 57.7961 84.0688C57.2044 84.9919 56.1162 85.3987 55.1066 85.7494C54.0185 86.1238 52.8889 86.5047 51.7511 86.367C51.1718 86.3067 49.3927 85.9861 49.4713 87.1675Z" fill="#232323"/>
<path d="M52.4713 41.4311C52.5106 40.8544 53.2098 40.8136 53.6422 40.6866C54.6435 40.3896 56.9792 38.3927 57.7984 39.7914C58.0053 40.1336 57.9701 40.5747 58.1377 40.9362C58.5266 41.7819 59.6562 41.7733 60.5581 41.797C61.4601 41.8206 62.4035 42.0315 63.109 42.6254C63.5842 43.0262 63.8967 43.5987 63.9841 44.2286C63.9921 44.2904 64.0125 44.3498 64.044 44.4029C64.1213 44.5445 64.219 44.6729 64.3337 44.7838C64.9026 45.3024 65.5936 45.6445 66.1956 46.1201C66.7976 46.5956 67.3603 47.224 67.4575 48.0051C67.5548 48.7862 67.0086 49.6771 66.2514 49.6728C65.7673 49.6728 65.3536 49.3328 64.9522 49.0509C64.5509 48.769 64.0461 48.5194 63.5972 48.7109C63.0614 48.939 62.9 49.6577 62.449 50.0343C61.7829 50.5895 60.763 50.1936 60.1547 49.5717C59.8388 49.2759 59.6154 48.8884 59.5134 48.4591C59.4661 48.2443 59.479 48.0199 59.5505 47.8124C59.622 47.605 59.7491 47.4232 59.9168 47.2885C60.5147 46.8711 61.4788 47.2885 61.9525 46.714C61.9942 46.6617 62.0242 46.6005 62.0406 46.5347C62.0569 46.469 62.0592 46.4003 62.0471 46.3335C62.0351 46.2668 62.009 46.2036 61.9709 46.1485C61.9327 46.0934 61.8834 46.0477 61.8263 46.0146C61.7672 45.9812 61.7111 45.9424 61.6587 45.8984C61.245 45.5541 61.0878 44.986 60.7961 44.5298C60.2044 43.6067 59.1162 43.2 58.1066 42.8492C57.0185 42.4748 55.8889 42.0939 54.7511 42.2316C54.1718 42.2919 52.3927 42.6125 52.4713 41.4311Z" fill="#232323"/>
<path d="M84.4662 95.1675C84.4269 95.7442 83.7277 95.7851 83.2953 95.912C82.294 96.209 79.9583 98.2059 79.1391 96.8072C78.9322 96.4651 78.9674 96.0239 78.7998 95.6624C78.4109 94.8167 77.2813 94.8253 76.3794 94.8017C75.4774 94.778 74.534 94.5671 73.8285 93.9732C73.3533 93.5724 73.0408 93 72.9534 92.3701C72.9454 92.3082 72.925 92.2488 72.8935 92.1958C72.8162 92.0542 72.7185 91.9257 72.6038 91.8149C72.0349 91.2963 71.3439 90.9541 70.7419 90.4786C70.1399 90.003 69.5772 89.3747 69.48 88.5935C69.3827 87.8124 69.9289 86.9215 70.6861 86.9258C71.1702 86.9258 71.5839 87.2658 71.9853 87.5477C72.3866 87.8296 72.8914 88.0792 73.3403 87.8877C73.8761 87.6596 74.0375 86.9409 74.4885 86.5643C75.1546 86.0091 76.1745 86.4051 76.7828 87.027C77.0987 87.3227 77.3221 87.7103 77.4241 88.1395C77.4714 88.3543 77.4585 88.5787 77.387 88.7862C77.3155 88.9936 77.1884 89.1755 77.0207 89.3101C76.4228 89.7276 75.4587 89.3101 74.985 89.8847C74.9433 89.937 74.9133 89.9982 74.8969 90.0639C74.8806 90.1297 74.8783 90.1984 74.8904 90.2651C74.9024 90.3319 74.9285 90.3951 74.9666 90.4502C75.0048 90.5053 75.0541 90.551 75.1112 90.584C75.1703 90.6174 75.2264 90.6563 75.2788 90.7002C75.6925 91.0445 75.8497 91.6126 76.1414 92.0688C76.7331 92.9919 77.8213 93.3987 78.8309 93.7494C79.919 94.1238 81.0486 94.5047 82.1864 94.367C82.7657 94.3067 84.5448 93.9861 84.4662 95.1675Z" fill="#232323"/>
<path d="M82.4662 116.167C82.4269 116.744 81.7277 116.785 81.2953 116.912C80.294 117.209 77.9583 119.206 77.1391 117.807C76.9322 117.465 76.9674 117.024 76.7998 116.662C76.4109 115.817 75.2813 115.825 74.3794 115.802C73.4774 115.778 72.534 115.567 71.8285 114.973C71.3533 114.572 71.0408 114 70.9534 113.37C70.9454 113.308 70.925 113.249 70.8935 113.196C70.8162 113.054 70.7185 112.926 70.6038 112.815C70.0349 112.296 69.3439 111.954 68.7419 111.479C68.1399 111.003 67.5772 110.375 67.48 109.594C67.3827 108.812 67.9289 107.922 68.6861 107.926C69.1702 107.926 69.5839 108.266 69.9853 108.548C70.3866 108.83 70.8914 109.079 71.3403 108.888C71.8761 108.66 72.0375 107.941 72.4885 107.564C73.1546 107.009 74.1745 107.405 74.7828 108.027C75.0987 108.323 75.3221 108.71 75.4241 109.139C75.4714 109.354 75.4585 109.579 75.387 109.786C75.3155 109.994 75.1884 110.175 75.0207 110.31C74.4228 110.728 73.4587 110.31 72.985 110.885C72.9433 110.937 72.9133 110.998 72.8969 111.064C72.8806 111.13 72.8783 111.198 72.8904 111.265C72.9024 111.332 72.9285 111.395 72.9666 111.45C73.0048 111.505 73.0541 111.551 73.1112 111.584C73.1703 111.617 73.2264 111.656 73.2788 111.7C73.6925 112.045 73.8497 112.613 74.1414 113.069C74.7331 113.992 75.8213 114.399 76.8309 114.749C77.919 115.124 79.0486 115.505 80.1864 115.367C80.7657 115.307 82.5448 114.986 82.4662 116.167Z" fill="#232323"/>
<path d="M84.4662 45.4311C84.4269 44.8544 83.7277 44.8136 83.2953 44.6866C82.294 44.3896 79.9583 42.3927 79.1391 43.7914C78.9322 44.1336 78.9674 44.5747 78.7998 44.9362C78.4109 45.7819 77.2813 45.7733 76.3794 45.797C75.4774 45.8206 74.534 46.0315 73.8285 46.6254C73.3533 47.0262 73.0408 47.5987 72.9534 48.2286C72.9454 48.2904 72.925 48.3498 72.8935 48.4029C72.8162 48.5445 72.7185 48.6729 72.6038 48.7838C72.0349 49.3024 71.3439 49.6445 70.7419 50.1201C70.1399 50.5956 69.5772 51.224 69.48 52.0051C69.3827 52.7862 69.9289 53.6771 70.6861 53.6728C71.1702 53.6728 71.5839 53.3328 71.9853 53.0509C72.3866 52.769 72.8914 52.5194 73.3403 52.7109C73.8761 52.939 74.0375 53.6577 74.4885 54.0343C75.1546 54.5895 76.1745 54.1936 76.7828 53.5717C77.0987 53.2759 77.3221 52.8884 77.4241 52.4591C77.4714 52.2443 77.4585 52.0199 77.387 51.8124C77.3155 51.605 77.1884 51.4232 77.0207 51.2885C76.4228 50.8711 75.4587 51.2885 74.985 50.714C74.9433 50.6617 74.9133 50.6005 74.8969 50.5347C74.8806 50.469 74.8783 50.4003 74.8904 50.3335C74.9024 50.2668 74.9285 50.2036 74.9666 50.1485C75.0048 50.0934 75.0541 50.0477 75.1112 50.0146C75.1703 49.9812 75.2264 49.9424 75.2788 49.8984C75.6925 49.5541 75.8497 48.986 76.1414 48.5298C76.7331 47.6067 77.8213 47.2 78.8309 46.8492C79.919 46.4748 81.0486 46.0939 82.1864 46.2316C82.7657 46.2919 84.5448 46.6125 84.4662 45.4311Z" fill="#232323"/>
<path d="M22.4688 81.2993C22.7625 81.1924 23.0279 81.0063 23.2414 80.7575C24.2072 79.6825 23.7687 77.6614 24.7403 76.5971C25.1807 76.1155 25.8162 75.9521 26.3763 75.6554C26.9365 75.3587 27.4966 74.8276 27.4677 74.1396C27.4348 73.3849 26.7356 72.914 26.1156 72.6152C24.9469 72.0564 23.7355 71.616 22.4958 71.2993L22.4745 71.2993L22.4688 81.2993Z" fill="#232323"/>
<path d="M22.4688 59.2993C22.7625 59.4062 23.0279 59.5924 23.2414 59.8411C24.2072 60.9162 23.7687 62.9372 24.7403 64.0015C25.1807 64.4831 25.8162 64.6466 26.3763 64.9433C26.9365 65.24 27.4966 65.771 27.4677 66.4591C27.4348 67.2137 26.7356 67.6846 26.1156 67.9835C24.9469 68.5423 23.7355 68.9827 22.4958 69.2993L22.4745 69.2993L22.4688 59.2993Z" fill="#232323"/>
<path d="M105.469 81.2993C105.175 81.1924 104.91 81.0063 104.696 80.7575C103.73 79.6825 104.169 77.6614 103.197 76.5971C102.757 76.1155 102.121 75.9521 101.561 75.6554C101.001 75.3587 100.441 74.8276 100.47 74.1396C100.503 73.3849 101.202 72.914 101.822 72.6152C102.991 72.0564 104.202 71.616 105.442 71.2993L105.463 71.2993L105.469 81.2993Z" fill="#232323"/>
<path d="M105.469 59.2993C105.175 59.4062 104.91 59.5924 104.696 59.8411C103.73 60.9162 104.169 62.9372 103.197 64.0015C102.757 64.4831 102.121 64.6466 101.561 64.9433C101.001 65.24 100.441 65.771 100.47 66.4591C100.503 67.2137 101.202 67.6846 101.822 67.9835C102.991 68.5423 104.202 68.9827 105.442 69.2993L105.463 69.2993L105.469 59.2993Z" fill="#BBBBBB"/>
<path d="M37.589 109.02C38.3927 109.252 39.3458 109.511 40.0085 109.02C40.728 108.493 40.5492 107.34 39.8507 106.79C39.1522 106.24 38.1507 106.164 37.2398 106.259C36.718 106.314 36.1752 106.416 35.6766 106.259C34.936 106.027 34.5279 105.31 34.1492 104.674C33.7705 104.038 33.2361 103.355 32.4661 103.304C31.4309 103.223 30.6336 104.292 29.5943 104.312C28.8831 104.323 28.2814 103.844 27.5998 103.66C26.4384 103.349 25.1088 104.028 24.6543 105.073C24.1999 106.119 24.6144 107.393 25.5232 108.133C26.207 108.689 27.2842 109.049 28.1973 108.89C28.9315 108.763 29.4891 108.303 30.2528 108.217C32.6407 107.919 35.3147 108.36 37.589 109.02Z" fill="#DFDFDF"/>
<path d="M37.589 31.5791C38.3927 31.3461 39.3458 31.0877 40.0085 31.5791C40.728 32.1057 40.5492 33.2586 39.8507 33.8087C39.1522 34.3587 38.1507 34.4351 37.2398 34.3392C36.718 34.2844 36.1752 34.1826 35.6766 34.3392C34.936 34.5721 34.5279 35.2886 34.1492 35.9248C33.7705 36.5609 33.2361 37.2441 32.4661 37.295C31.4309 37.3753 30.6336 36.3065 29.5943 36.2869C28.8831 36.2752 28.2814 36.7547 27.5998 36.9387C26.4384 37.25 25.1088 36.5707 24.6543 35.5254C24.1999 34.4801 24.6144 33.2058 25.5232 32.4658C26.207 31.9099 27.2842 31.5497 28.1973 31.7083C28.9315 31.8355 29.4891 32.2955 30.2528 32.3817C32.6407 32.6792 35.3147 32.2388 37.589 31.5791Z" fill="#DFDFDF"/>
<path d="M90.3485 109.02C89.5448 109.252 88.5917 109.511 87.929 109.02C87.2095 108.493 87.3883 107.34 88.0868 106.79C88.7853 106.24 89.7868 106.164 90.6977 106.259C91.2195 106.314 91.7623 106.416 92.2609 106.259C93.0015 106.027 93.4096 105.31 93.7883 104.674C94.167 104.038 94.7014 103.355 95.4714 103.304C96.5066 103.223 97.3039 104.292 98.3432 104.312C99.0544 104.323 99.6561 103.844 100.338 103.66C101.499 103.349 102.829 104.028 103.283 105.073C103.738 106.119 103.323 107.393 102.414 108.133C101.73 108.689 100.653 109.049 99.7402 108.89C99.006 108.763 98.4484 108.303 97.6847 108.217C95.2968 107.919 92.6228 108.36 90.3485 109.02Z" fill="#DFDFDF"/>
<path d="M90.3485 31.5791C89.5448 31.3461 88.5917 31.0877 87.929 31.5791C87.2095 32.1057 87.3883 33.2586 88.0868 33.8087C88.7853 34.3587 89.7868 34.4351 90.6977 34.3392C91.2195 34.2844 91.7623 34.1826 92.2609 34.3392C93.0015 34.5721 93.4096 35.2886 93.7883 35.9248C94.167 36.5609 94.7014 37.2441 95.4714 37.295C96.5066 37.3753 97.3039 36.3065 98.3432 36.2869C99.0544 36.2752 99.6561 36.7547 100.338 36.9387C101.499 37.25 102.829 36.5707 103.283 35.5254C103.738 34.4801 103.323 33.2058 102.414 32.4658C101.73 31.9099 100.653 31.5497 99.7402 31.7083C99.006 31.8355 98.4484 32.2955 97.6847 32.3817C95.2968 32.6792 92.6228 32.2388 90.3485 31.5791Z" fill="#DFDFDF"/>
</g>
</g>
<path d="M63.8284 119.639C69.6864 119.992 74.7227 115.53 75.0771 109.673C75.4316 103.815 70.9701 98.7788 65.1121 98.4249C59.2541 98.0711 54.2179 102.533 53.8634 108.391C53.509 114.249 57.9704 119.285 63.8284 119.639Z" fill="#E40000" stroke="black" stroke-width="2.86287" stroke-miterlimit="10"/>
<path d="M69.2771 114.447C70.0691 114.495 72.003 112.109 72.1839 109.118C72.3649 106.127 70.7245 103.663 69.9325 103.615C69.1405 103.568 69.4969 105.954 69.3159 108.944C69.1349 111.935 68.4851 114.399 69.2771 114.447Z" fill="#EBB4B4"/>
<path d="M82.4329 68.2817C83.6567 62.5635 75.0763 65.7421 70.6331 68.0461C67.1223 67.9186 73.8306 53.8723 96.25 55.4845C118.669 57.0966 118.021 77.9347 115.413 81.6988C112.806 85.4628 104.283 88.8049 106.556 79.7064C108.829 70.6078 105.945 67.7591 104.313 66.9542C102.682 66.1493 98.8214 67.8695 99.1125 73.9548C99.4036 80.0401 96.4463 82.3245 94.4069 82.1503C92.3674 81.9761 91.4207 77.1716 93.708 73.3683C95.9952 69.565 97.1171 63.0478 92.2224 63.1288C87.3278 63.2098 87.313 69.5601 88.0703 72.9046C88.8277 76.249 86.759 80.4572 84.0349 79.2917C81.3108 78.1262 80.903 75.4295 82.4329 68.2817Z" fill="#82592D" stroke="black" stroke-width="3.43598"/>
<path d="M45.7859 68.2812C44.562 62.563 53.1424 65.7416 57.5856 68.0456C61.0964 67.9181 54.3882 53.8718 31.9688 55.484C9.54934 57.0961 10.1976 77.9342 12.8053 81.6983C15.4131 85.4623 23.9353 88.8044 21.6624 79.7059C19.3896 70.6074 22.2738 67.7586 23.9054 66.9537C25.5369 66.1488 29.3974 67.869 29.1063 73.9543C28.8151 80.0396 31.7724 82.324 33.8119 82.1498C35.8513 81.9756 36.798 77.1711 34.5108 73.3678C32.2235 69.5645 31.1016 63.0473 35.9963 63.1283C40.891 63.2093 40.9058 69.5596 40.1484 72.9041C39.391 76.2485 41.4598 80.4567 44.1838 79.2912C46.9079 78.1257 47.3157 75.429 45.7859 68.2812Z" fill="#82592D" stroke="black" stroke-width="3.43598"/>
<path d="M93.4734 91.2988C86.846 91.2988 81.4724 96.8016 81.471 103.59C81.47 109.058 84.9555 113.692 89.7755 115.288C90.9389 115.673 92.1801 106.106 93.4688 106.106C94.7574 106.106 95.9985 115.673 97.162 115.288C101.983 113.692 105.47 109.058 105.471 103.59C105.472 96.8016 100.101 91.2988 93.4734 91.2988Z" fill="#454545" stroke="black" stroke-width="3.15977" stroke-miterlimit="10"/>
<path d="M93.4723 90.2988C87.9494 90.2988 83.4715 94.4259 83.4705 99.517C83.4697 103.618 86.3743 107.094 90.391 108.29C91.3605 108.579 92.3947 101.405 93.4686 101.405C94.5425 101.405 95.5769 108.579 96.5465 108.29C100.564 107.094 103.47 103.618 103.47 99.517C103.471 94.4259 98.9951 90.2988 93.4723 90.2988Z" fill="#82592D" stroke="black" stroke-width="3.15977" stroke-miterlimit="10"/>
<path d="M35.4734 91.2988C28.846 91.2988 23.4724 96.8016 23.471 103.59C23.47 109.058 26.9555 113.692 31.7755 115.288C32.9389 115.673 34.1801 106.106 35.4688 106.106C36.7574 106.106 37.9985 115.673 39.162 115.288C43.9826 113.692 47.47 109.058 47.471 103.59C47.4724 96.8016 42.1009 91.2988 35.4734 91.2988Z" fill="#454545" stroke="black" stroke-width="3.15977" stroke-miterlimit="10"/>
<path d="M35.4723 90.2988C29.9494 90.2988 25.4715 94.4259 25.4705 99.517C25.4697 103.618 28.3743 107.094 32.391 108.29C33.3605 108.579 34.3947 101.405 35.4686 101.405C36.5425 101.405 37.5769 108.579 38.5465 108.29C42.5636 107.094 45.4697 103.618 45.4705 99.517C45.4715 94.4259 40.9951 90.2988 35.4723 90.2988Z" fill="#82592D" stroke="black" stroke-width="3.15977" stroke-miterlimit="10"/>
</svg>
