<svg width="129" height="129" viewBox="0 0 129 129" fill="none" xmlns="http://www.w3.org/2000/svg">
<path d="M44.6366 84.7076L44.6366 84.7076C47.6227 81.3092 48.9406 77.0373 49.4556 73.1569C49.9711 69.2729 49.6904 65.7208 49.4275 63.6956M44.6366 84.7076L20.5763 39.7613L20.5782 39.7605L20.5794 39.76L20.5941 39.754C22.2197 39.0917 23.8142 38.4422 26.0187 38.0176C26.7534 37.8752 27.512 38.0379 28.1223 38.4633C28.4479 38.6897 28.7169 38.9806 28.9158 39.3137C29.1149 38.9809 29.3835 38.6907 29.7072 38.4648L29.7077 38.4644C30.1746 38.1392 30.7276 37.9678 31.2895 37.9678C31.4645 37.9678 31.639 37.9844 31.8116 38.0174L31.8125 38.0176C34.0218 38.4427 35.6193 39.0944 37.2474 39.7585L37.257 39.7624L37.2576 39.7626L37.3251 39.7901L37.3251 39.7901C37.9009 40.0244 38.4941 40.2657 39.1501 40.5112C43.483 42.1316 46.1975 46.043 47.579 52.153L47.5792 52.1537C47.8819 53.4989 48.0879 54.8262 48.2465 55.9606C48.2633 56.0321 48.2749 56.0983 48.2835 56.1491L48.2836 56.1491L48.2854 56.161L48.8344 59.7749C49.0466 60.1673 49.123 60.6282 49.033 61.0814L49.2012 62.1895C49.2614 62.5336 49.3425 63.0323 49.4275 63.6956M44.6366 84.7076C40.9885 88.8583 35.6346 90.9135 28.8402 90.9135C21.9797 90.9135 16.5898 88.8196 12.9417 84.5934L12.9416 84.5933C9.91142 81.0817 8.61938 76.7006 8.15107 72.7288C7.68301 68.7592 8.03048 65.1388 8.3349 63.0717C8.33833 63.0446 8.34323 63.0139 8.34999 62.9813C8.41276 62.559 8.47126 62.222 8.51466 61.9878C8.53681 61.8683 8.55504 61.7755 8.56791 61.7118C8.57434 61.6799 8.57944 61.6553 8.58301 61.6382L8.58722 61.6184L8.58781 61.6156M44.6366 84.7076L8.58781 61.6156M49.4275 63.6956C49.4275 63.6958 49.4275 63.6959 49.4276 63.6961L48.7075 63.7883L49.4274 63.6949C49.4274 63.6951 49.4275 63.6954 49.4275 63.6956ZM8.58781 61.6156C8.59302 61.5902 8.59831 61.5684 8.60168 61.5547L8.60472 61.5423L9.53194 56.2986C9.53721 56.2656 9.54307 56.2372 9.54638 56.2213L9.55036 56.2022C9.71648 54.9904 9.93293 53.5689 10.2539 52.1523C11.6338 46.0428 14.35 42.1316 18.6827 40.5104L18.6835 40.5101C19.365 40.256 19.9795 40.0054 20.576 39.7614L8.58781 61.6156Z" fill="black" stroke="black" stroke-width="1.45191"/>
<path d="M35.4435 44.21C36.0726 44.467 36.7326 44.7354 37.4661 45.0096C37.7622 45.1205 38.0429 45.26 38.3187 45.4142C39.5507 48.8752 40.5101 54.3741 40.9205 56.9588C36.8477 55.7448 33.009 55.274 29.5203 55.274C24.6569 55.274 20.4723 56.1772 17.2676 57.2158C17.7424 54.7739 19.1 48.22 20.5914 44.9223C21.2319 44.6791 21.8283 44.4393 22.3904 44.2092C23.3018 43.838 24.1021 43.5124 24.9547 43.2383L26.9422 50.8667C27.1763 51.7658 27.9873 52.3924 28.9166 52.3924C29.8442 52.3924 30.6552 51.765 30.8894 50.8667L32.8784 43.2383C33.7327 43.5116 34.5322 43.838 35.4435 44.21Z" fill="#231D1A"/>
<path d="M44.1121 60.6981L44.458 62.9678C44.5184 63.3105 44.5869 63.7396 44.6587 64.2904C45.105 67.7407 45.6402 76.2853 41.024 81.5362C38.3577 84.5705 34.2579 86.1084 28.8381 86.1084C23.3677 86.1084 19.2418 84.5419 16.5764 81.4522C11.7415 75.8488 12.6863 66.4973 13.0902 63.7649C13.0934 63.7437 13.1 63.7013 13.1016 63.6801C13.1669 63.2444 13.2289 62.9107 13.2623 62.7402C13.2794 62.6766 13.2942 62.6121 13.3072 62.546L13.5128 61.3785C17.8973 59.2825 29.9175 54.8646 44.1121 60.6981Z" fill="#F7F7F7"/>
<path d="M19.6503 80.5245C21.0617 78.8454 33.273 74.19 33.4354 77.6273C33.6301 81.7371 36.5847 82.5167 38.3331 82.978C38.6583 83.0639 38.9417 83.1387 39.158 83.2218C36.5781 85.1302 33.127 86.1084 28.8355 86.1084C25.8461 86.1084 23.2719 85.6238 21.105 84.6945C19.7237 83.0766 18.8532 81.4701 19.6503 80.5245Z" fill="#463E3A"/>
<path d="M34.7601 61.5609C32.9081 64.0583 35.7718 67.8253 40.6435 67.5568C43.0532 67.4238 43.7633 69.5624 44.249 71.0251C44.4157 71.5271 44.556 71.9494 44.7294 72.1731C45.1577 68.54 44.7979 65.2177 44.5842 63.7654L44.584 63.7643C44.5807 63.7427 44.5743 63.7014 44.5727 63.6806C44.5075 63.2449 44.4455 62.9112 44.412 62.7407C44.3949 62.6771 44.3802 62.6126 44.3672 62.5465L44.1615 61.379C42.7688 60.714 40.6141 59.8158 37.8572 59.0831C36.5845 59.633 35.5075 60.5509 34.7601 61.5609Z" fill="#463E3A"/>
<path d="M23.0108 63.0949C23.0108 61.2144 20.9605 61.2505 18.2068 61.299C17.7491 61.3071 17.272 61.3155 16.7816 61.3155C15.5211 61.3155 14.3487 61.5562 13.368 61.9665L13.2146 62.9684C13.1542 63.3111 13.0857 63.7403 13.0139 64.291C12.8654 65.434 12.7128 67.1417 12.7349 69.0973C13.7645 69.9083 15.0919 70.468 16.5785 70.468C20.0199 70.468 23.0108 65.288 23.0108 63.0949Z" fill="#463E3A"/>
<path d="M42.8913 53.2105C43.1752 54.4702 43.3678 55.7584 43.5195 56.8525C43.5293 56.9292 43.5448 57.0059 43.5644 57.0793L43.6868 57.8887C42.7526 57.5387 41.8307 57.2303 40.9201 56.9586C40.5089 54.3747 39.5495 48.8749 38.3184 45.414C40.4772 46.628 41.9816 49.1858 42.8913 53.2105Z" fill="#5C524E"/>
<path d="M14.0352 58.4268L14.2342 57.3009C14.2563 57.2176 14.2742 57.1328 14.2865 57.0455C14.4439 55.8837 14.6446 54.5196 14.9416 53.2109C15.9663 48.6747 17.7417 45.9921 20.3672 45.0098C20.4455 44.9804 20.5156 44.9518 20.5915 44.9225C19.1001 48.2202 17.7425 54.7741 17.2677 57.216C16.0365 57.6142 14.9612 58.0319 14.0352 58.4268Z" fill="#5C524E"/>
<path d="M115.89 84.7086L115.891 84.7085C118.877 81.3102 120.194 77.0383 120.709 73.1579C121.225 69.2738 120.944 65.7218 120.681 63.6966M115.89 84.7086L91.8303 39.7622L91.8321 39.7615L91.8333 39.761L91.8481 39.755C93.4736 39.0927 95.0681 38.4431 97.2726 38.0186C98.0073 37.8762 98.7659 38.0389 99.3762 38.4643C99.7018 38.6907 99.9708 38.9816 100.17 39.3147C100.369 38.9819 100.637 38.6917 100.961 38.4658L100.962 38.4654C101.428 38.1402 101.981 37.9688 102.543 37.9688C102.718 37.9688 102.893 37.9854 103.065 38.0184L103.066 38.0186C105.276 38.4437 106.873 39.0954 108.501 39.7595L108.511 39.7634L108.511 39.7636L108.579 39.7911L108.579 39.7911C109.155 40.0254 109.748 40.2667 110.404 40.5122C114.737 42.1326 117.451 46.044 118.833 52.154L118.833 52.1547C119.136 53.4999 119.342 54.8272 119.5 55.9616C119.517 56.0331 119.529 56.0993 119.537 56.15L119.537 56.15L119.539 56.162L120.088 59.7758C120.301 60.1682 120.377 60.6292 120.287 61.0823L120.455 62.1905C120.515 62.5346 120.596 63.0333 120.681 63.6966M115.89 84.7086C112.242 88.8593 106.888 90.9144 100.094 90.9144C93.2336 90.9144 87.8437 88.8206 84.1956 84.5944L84.1955 84.5943C81.1653 81.0827 79.8733 76.7015 79.405 72.7298C78.9369 68.7602 79.2844 65.1398 79.5888 63.0726C79.5922 63.0456 79.5971 63.0149 79.6039 62.9823C79.6667 62.56 79.7252 62.2229 79.7686 61.9888C79.7907 61.8693 79.8089 61.7765 79.8218 61.7127C79.8282 61.6809 79.8333 61.6563 79.8369 61.6392L79.8411 61.6193L79.8417 61.6166M115.89 84.7086L79.8417 61.6166M120.681 63.6966C120.681 63.6967 120.681 63.6969 120.681 63.6971L119.961 63.7893L120.681 63.6958C120.681 63.6961 120.681 63.6963 120.681 63.6966ZM79.8417 61.6166C79.8469 61.5912 79.8522 61.5694 79.8556 61.5556L79.8586 61.5433L80.7859 56.2996C80.7911 56.2666 80.797 56.2382 80.8003 56.2223L80.8043 56.2031C80.9704 54.9913 81.1868 53.5698 81.5078 52.1533C82.8877 46.0437 85.6039 42.1326 89.9366 40.5114L89.9374 40.5111C90.6189 40.2569 91.2334 40.0064 91.8299 39.7624L79.8417 61.6166Z" fill="black" stroke="black" stroke-width="1.45191"/>
<path d="M106.697 44.211C107.326 44.468 107.987 44.7364 108.72 45.0105C109.016 45.1215 109.297 45.261 109.573 45.4152C110.805 48.8761 111.764 54.3751 112.174 56.9598C108.102 55.7458 104.263 55.275 100.774 55.275C95.9108 55.275 91.7262 56.1782 88.5215 57.2168C88.9963 54.7749 90.3539 48.221 91.8453 44.9232C92.4858 44.6801 93.0822 44.4402 93.6443 44.2102C94.5557 43.8389 95.356 43.5134 96.2086 43.2393L98.1961 50.8677C98.4302 51.7668 99.2412 52.3934 100.17 52.3934C101.098 52.3934 101.909 51.766 102.143 50.8677L104.132 43.2393C104.987 43.5126 105.786 43.839 106.697 44.211Z" fill="#231D1A"/>
<path d="M115.366 60.699L115.712 62.9688C115.772 63.3115 115.841 63.7406 115.913 64.2913C116.359 67.7416 116.894 76.2863 112.278 81.5372C109.612 84.5715 105.512 86.1094 100.092 86.1094C94.6216 86.1094 90.4957 84.5429 87.8303 81.4532C82.9954 75.8498 83.9402 66.4983 84.3441 63.7659C84.3473 63.7447 84.3539 63.7023 84.3555 63.6811C84.4208 63.2454 84.4828 62.9117 84.5162 62.7412C84.5333 62.6775 84.5481 62.6131 84.5611 62.547L84.7667 61.3795C89.1512 59.2835 101.171 54.8656 115.366 60.699Z" fill="#F7F7F7"/>
<path d="M109.276 80.5245C107.864 78.8454 95.6527 74.19 95.4904 77.6273C95.2957 81.7371 92.3411 82.5167 90.5927 82.978C90.2675 83.0639 89.984 83.1387 89.7678 83.2218C92.3476 85.1302 95.7988 86.1084 100.09 86.1084C103.08 86.1084 105.654 85.6238 107.821 84.6945C109.202 83.0766 110.073 81.4701 109.276 80.5245Z" fill="#463E3A"/>
<path d="M94.1656 61.5609C96.0177 64.0583 93.1539 67.8253 88.2823 67.5568C85.8726 67.4238 85.1625 69.5624 84.6767 71.0251C84.5101 71.5271 84.3698 71.9494 84.1964 72.1731C83.7681 68.54 84.1278 65.2177 84.3416 63.7654L84.3418 63.7643C84.3451 63.7427 84.3515 63.7014 84.3531 63.6806C84.4183 63.2449 84.4803 62.9112 84.5138 62.7407C84.5309 62.6771 84.5456 62.6126 84.5586 62.5465L84.7642 61.379C86.1569 60.714 88.3117 59.8158 91.0685 59.0831C92.3413 59.633 93.4183 60.5509 94.1656 61.5609Z" fill="#463E3A"/>
<path d="M105.915 63.0949C105.915 61.2144 107.965 61.2505 110.719 61.299C111.177 61.3071 111.654 61.3155 112.144 61.3155C113.405 61.3155 114.577 61.5562 115.558 61.9665L115.711 62.9684C115.772 63.3111 115.84 63.7403 115.912 64.291C116.06 65.434 116.213 67.1417 116.191 69.0973C115.161 69.9083 113.834 70.468 112.347 70.468C108.906 70.468 105.915 65.288 105.915 63.0949Z" fill="#463E3A"/>
<path d="M114.145 53.2114C114.429 54.4711 114.622 55.7594 114.773 56.8535C114.783 56.9302 114.799 57.0069 114.818 57.0803L114.941 57.8896C114.006 57.5396 113.085 57.2312 112.174 56.9596C111.763 54.3757 110.803 48.8759 109.572 45.415C111.731 46.629 113.236 49.1867 114.145 53.2114Z" fill="#5C524E"/>
<path d="M85.2891 58.4277L85.4882 57.3018C85.5102 57.2186 85.5281 57.1338 85.5404 57.0465C85.6979 55.8847 85.8985 54.5205 86.1955 53.2119C87.2202 48.6756 88.9956 45.993 91.6211 45.0107C91.6994 44.9814 91.7695 44.9528 91.8454 44.9234C90.354 48.2212 88.9964 54.7751 88.5216 57.217C87.2904 57.6151 86.2151 58.0329 85.2891 58.4277Z" fill="#5C524E"/>
</svg>
