<svg width="128" height="128" viewBox="0 0 128 128" fill="none" xmlns="http://www.w3.org/2000/svg">
<path d="M116.39 65.0086C116.39 54.8525 108.157 46.6176 98.0007 46.6156C87.8445 46.6136 79.6113 54.8451 79.6113 65.0013C79.6113 75.1574 87.8445 83.3923 98.0007 83.3943C108.157 83.3963 116.39 75.1648 116.39 65.0086Z" fill="url(#paint0_linear)"/>
<path fill-rule="evenodd" clip-rule="evenodd" d="M80.8641 65.5012C80.8641 75.2535 88.7661 83.1493 98.5 83.1507C108.234 83.1521 116.136 75.2586 116.136 65.5063C116.136 55.754 108.234 47.8582 98.5 47.8568C88.7661 47.8554 80.8641 55.7489 80.8641 65.5012ZM98.5 91.0037C84.4106 91.0017 73 79.5771 73 65.5C73 51.4229 84.4106 40.0017 98.5 40.0037C112.589 40.0058 124 51.4304 124 65.5075C124 79.5846 112.589 91.0058 98.5 91.0037Z" fill="black"/>
<path d="M10.6119 64.0086C10.6119 53.8525 18.8451 45.6176 29.0013 45.6156C39.1574 45.6136 47.3906 53.8451 47.3906 64.0013C47.3906 74.1574 39.1574 82.3923 29.0013 82.3943C18.8451 82.3963 10.6119 74.1648 10.6119 64.0086Z" fill="url(#paint1_linear)"/>
<path fill-rule="evenodd" clip-rule="evenodd" d="M47.1359 64.5012C47.1359 74.2535 39.2339 82.1493 29.5 82.1507C19.7661 82.1521 11.8641 74.2586 11.8641 64.5063C11.8641 54.754 19.7661 46.8582 29.5 46.8568C39.2339 46.8554 47.1359 54.7489 47.1359 64.5012ZM29.5 90.0037C43.5894 90.0017 55 78.5771 55 64.5C55 50.4229 43.5894 39.0017 29.5 39.0037C15.4106 39.0058 4 50.4304 4 64.5075C4 78.5846 15.4106 90.0058 29.5 90.0037Z" fill="black"/>
<defs>
<linearGradient id="paint0_linear" x1="84.5623" y1="50.502" x2="112.854" y2="76.3178" gradientUnits="userSpaceOnUse">
<stop stop-color="#B00000"/>
<stop offset="1" stop-color="#650000"/>
</linearGradient>
<linearGradient id="paint1_linear" x1="42.4396" y1="49.502" x2="14.1483" y2="75.3178" gradientUnits="userSpaceOnUse">
<stop stop-color="#B00000"/>
<stop offset="1" stop-color="#650000"/>
</linearGradient>
</defs>
</svg>
