<svg width="128" height="128" viewBox="0 0 128 128" fill="none" xmlns="http://www.w3.org/2000/svg">
<path d="M32.5803 46.501C32.5803 63.5769 46.4236 77.4192 63.5001 77.4186C80.5766 77.418 94.4199 63.5748 94.4199 46.4988C94.4199 29.4229 80.5767 15.5806 63.5001 15.5812C46.4236 15.5818 32.5803 29.425 32.5803 46.501Z" fill="#B72323"/>
<path fill-rule="evenodd" clip-rule="evenodd" d="M90.8396 46.499C90.8396 31.4003 78.5993 19.1607 63.5 19.1612C48.4007 19.1617 36.1604 31.402 36.1604 46.5008C36.1604 61.5995 48.4007 73.839 63.5 73.8386C78.5993 73.8381 90.8396 61.5978 90.8396 46.499ZM63.5 12.0011C82.5538 12.0005 98 27.4456 98 46.4988C98 65.552 82.5538 80.9981 63.5 80.9987C44.4462 80.9993 29 65.5541 29 46.501C29 27.4478 44.4462 12.0017 63.5 12.0011Z" fill="black"/>
<path d="M25 71.5027C25 92.7657 42.237 110.002 63.5 110.001C84.763 110.001 102 92.763 102 71.5C102 50.237 84.763 33.0006 63.5 33.0013C42.237 33.0021 25 50.2397 25 71.5027Z" fill="#617700"/>
<path d="M60.7131 43.351L62.9934 38.4932L68.6943 41.9222L74.1101 39.0647L73.825 44.2083L79.5259 42.208L79.8109 48.4946L87.7921 47.0658L87.507 52.7809L93.4929 55.6384L90.9276 63.068L97.7686 64.7826C96.7234 67.3544 94.5191 72.5551 94.063 72.7837C93.607 73.0123 97.956 77.236 99.0012 78.2838L92.6378 81.3563V87.6429L87.222 89.3574L86.937 95.644H81.2361L77.8156 101.645L73.54 98.2158L69.2643 104.502L62.4233 100.502L56.1524 103.931L54.4421 98.2158L46.1759 99.6446L47.8862 93.358L38.7648 94.501L42.1853 86.4999L33.064 84.7854L36.4845 79.356L30.7836 75.927L34.4892 71.3549L29.3584 69.3546L33.349 64.4968L30.7836 61.0678L36.1994 57.9245L34.7742 52.4951L41.9003 51.9236V45.3513L48.7413 48.4946L47.8862 42.208L56.1524 43.6367L55.8673 38.4932L60.7131 43.351Z" fill="#92B302"/>
<path d="M80.1623 57.9612L84.1886 57.3893L84.4136 62.4462L88.4914 64.7032L85.1216 66.664L88.7774 69.4596L84.9246 72.2593L89.1758 76.7443L85.445 78.9432L86.1507 83.9434L80.3798 85.405L82.1665 90.4734C80.103 90.8793 75.8919 91.6423 75.5561 91.4473C75.2203 91.2522 74.6892 93.4067 74.4656 94.5083L69.5413 94.1106L65.5689 96.7289L62.2133 93.9958L58.1214 96.4328L55.7296 92.8041L50.5027 93.1263L50.8756 88.9766L45.1094 88.8735L44.7672 82.853L39.9695 80.2897L42.8632 76.8208L38.4924 72.1543L43.1823 70.6246L38.6332 65.2948L45.124 64.1396L42.3806 57.6197L47.2463 57.5355L47.0213 52.4787L51.465 52.9331L50.5763 48.8342L55.3201 49.351L56.4106 46.2899L60.669 48.4279L63.5017 45.2594L66.8526 49.5572L71.0055 46.8198L71.8894 52.4833L75.5031 49.3207L78.0683 55.1773L81.1989 52.8536L80.1623 57.9612Z" fill="#AFD50C"/>
<path d="M75.4906 73.425L77.2393 74.9084L75.1915 76.8967L75.7669 79.4611L73.6784 78.7746L73.8686 81.3627L71.2456 80.7867L70.9465 84.2585L68.6225 83.5089L66.7786 85.6787L64.0015 83.7929L62.5336 86.4441C61.5898 85.7261 59.6913 84.2364 59.6478 84.0217C59.6043 83.8071 58.4971 84.39 57.9489 84.7082L56.2727 82.4831L53.6813 81.7888L53.5771 79.3506L51.0175 78.5379L51.6517 76.1708L49.5587 74.0877L51.4479 72.6911L49.3322 70.2215L51.7424 67.8228L51.0266 64.8402L53.5727 64.7613L53.9034 61.1712L56.3045 62.5757L56.8482 58.6621L59.7657 60.966L61.4873 57.368L63.3447 59.388L65.3925 57.3996L66.8648 59.4432L68.2602 57.5337L69.8186 59.7273L71.5175 59.0408L72.2106 61.6367L74.6072 61.6446L74.05 64.6666L76.7591 65.3926L74.7023 67.8859L77.3888 68.2252L75.8802 71.4997L78.0321 71.9495L75.4906 73.425Z" fill="#C2E42A"/>
<path d="M23.2147 102.497C23.2147 109.28 28.7148 114.78 35.4995 114.782C42.2841 114.783 47.7842 109.285 47.7842 102.502C47.7842 95.7187 42.2841 90.2186 35.4995 90.2173C28.7148 90.2159 23.2147 95.7138 23.2147 102.497Z" fill="#617700"/>
<path fill-rule="evenodd" clip-rule="evenodd" d="M35.5 88.0029C43.5081 88.0045 50 94.4964 50 102.503C50 110.509 43.5081 116.999 35.5 116.997C27.4919 116.995 21 110.504 21 102.497C21 94.4905 27.4919 88.0013 35.5 88.0029ZM45.5694 102.502C45.5694 96.942 41.0612 92.4337 35.5 92.4326C29.9388 92.4314 25.4306 96.9379 25.4306 102.498C25.4306 108.058 29.9388 112.566 35.5 112.567C41.0612 112.569 45.5694 108.062 45.5694 102.502Z" fill="black"/>
<path d="M80.2147 102.497C80.2147 109.28 85.7148 114.78 92.4995 114.782C99.2841 114.783 104.784 109.285 104.784 102.502C104.784 95.7187 99.2841 90.2186 92.4995 90.2173C85.7148 90.2159 80.2147 95.7138 80.2147 102.497Z" fill="#617700"/>
<path fill-rule="evenodd" clip-rule="evenodd" d="M92.5 88.0029C100.508 88.0045 107 94.4964 107 102.503C107 110.509 100.508 116.999 92.5 116.997C84.4919 116.995 78 110.504 78 102.497C78 94.4905 84.4919 88.0013 92.5 88.0029ZM102.569 102.502C102.569 96.942 98.0612 92.4337 92.5 92.4326C86.9388 92.4314 82.4306 96.9379 82.4306 102.498C82.4306 108.058 86.9388 112.566 92.5 112.567C98.0612 112.569 102.569 108.062 102.569 102.502Z" fill="black"/>
</svg>
