<svg width="129" height="129" viewBox="0 0 129 129" fill="none" xmlns="http://www.w3.org/2000/svg">
<path d="M32.0742 47.1389C32.0742 64.5359 46.1772 78.6384 63.5742 78.6378C80.9712 78.6372 95.0742 64.5337 95.0742 47.1367C95.0742 29.7397 80.9712 15.6372 63.5742 15.6378C46.1772 15.6384 32.0742 29.7419 32.0742 47.1389Z" fill="#231204"/>
<path fill-rule="evenodd" clip-rule="evenodd" d="M64.0742 12.6379C82.8519 12.6373 98.0742 27.859 98.0742 46.6367C98.0742 65.4144 82.8519 80.6373 64.0742 80.6379C45.2965 80.6386 30.0742 65.4168 30.0742 46.6391C30.0742 27.8614 45.2965 12.6386 64.0742 12.6379ZM92.884 46.6369C92.884 30.7257 79.9854 17.8276 64.0742 17.8282C48.163 17.8287 35.2645 30.7277 35.2645 46.6389C35.2645 62.5501 48.163 75.4482 64.0742 75.4476C79.9854 75.4471 92.8839 62.5481 92.884 46.6369Z" fill="black"/>
<path d="M63.0742 29.6367C85.7179 29.6367 104.074 48.005 104.074 70.6367C104.074 93.2684 85.7179 111.637 63.0742 111.637C40.4305 111.637 22.0742 93.2684 22.0742 70.6367C22.0742 48.005 40.4305 29.6367 63.0742 29.6367Z" fill="#D9A486"/>
<path d="M56.5916 71.3988C57.5284 72.0093 58.4953 72.4443 59.4739 72.7306C62.3785 73.5841 65.3886 73.0954 68.018 71.7185C71.0287 70.1424 73.5415 67.4081 74.8222 64.1996C75.3928 62.7702 76.1206 60.3766 76.3374 58.2863C76.1441 49.0347 70.3278 41.5859 63.2013 41.5859C55.951 41.5859 50.0527 49.2896 50.0527 58.7586C50.0527 58.7763 50.054 58.7946 50.054 58.813C50.5833 63.5819 52.7752 68.9108 56.5916 71.3988ZM63.4941 42.2705C63.5642 42.277 70.6042 43.0225 74.0007 50.3992C74.0761 50.5637 74.0047 50.7582 73.8396 50.8336C73.7964 50.8539 73.7486 50.8637 73.7027 50.8637C73.5795 50.8637 73.461 50.7929 73.406 50.6731C70.1653 43.6357 63.4993 42.9295 63.4325 42.9229C63.2524 42.9059 63.1201 42.7461 63.1371 42.5659C63.1541 42.3858 63.3225 42.2515 63.4941 42.2705ZM63.2 46.6385C69.2915 46.6385 74.0636 49.904 74.0636 54.0742C74.0636 58.0118 69.4336 70.8793 63.2 70.8793C56.9663 70.8793 52.3363 58.0111 52.3363 54.0742C52.3363 49.904 57.1072 46.6385 63.2 46.6385Z" fill="#894D20"/>
<path d="M63.1992 68.9149C67.7873 68.9149 72.0977 57.3982 72.0977 54.075C72.0977 51.1101 68.0225 48.6045 63.1992 48.6045C58.376 48.6045 54.3008 51.1095 54.3008 54.075C54.3008 57.3982 58.6111 68.9149 63.1992 68.9149ZM57.1359 53.5712C57.8971 52.1189 61.1508 54.0383 62.877 53.9093C64.5507 53.7848 68.899 49.1181 69.8371 52.4773C70.5229 54.9377 67.9524 59.575 66.9148 61.7164C65.868 63.8788 63.8989 67.2412 61.3107 64.9111C59.1561 62.9715 57.979 58.6369 57.2302 55.9334C56.9027 54.7445 56.9066 54.0062 57.1359 53.5712Z" fill="#894D20"/>
<path d="M61.3121 64.9106C63.9003 67.2407 65.8694 63.8782 66.9162 61.7158C67.9539 59.5744 70.5243 54.9371 69.8385 52.4767C68.9004 49.1168 64.5521 53.7836 62.8784 53.9087C61.1523 54.0377 57.8985 52.119 57.1373 53.5707C56.9081 54.0056 56.9048 54.7439 57.2323 55.9322C57.9804 58.6363 59.1576 62.9709 61.3121 64.9106ZM59.7969 55.3282C59.5179 55.0983 59.4786 54.6856 59.7085 54.4065C59.9378 54.1275 60.3518 54.0868 60.6295 54.3174L64.7814 57.7408C65.2124 56.8473 65.5373 55.8457 65.6415 54.7609C65.6749 54.4013 65.9867 54.1393 66.3555 54.1714C66.7151 54.2054 66.9798 54.5251 66.945 54.8854C66.474 59.8482 62.1381 63.0954 61.9528 63.231C61.8361 63.3174 61.7006 63.3587 61.565 63.3587C61.3639 63.3587 61.1673 63.2663 61.0376 63.0927C60.8228 62.8025 60.8857 62.3918 61.1759 62.177C61.2014 62.158 62.8378 60.9232 64.1302 58.9003L59.7969 55.3282Z" fill="#B28832"/>
<path d="M93.1055 52.1076C93.6557 52.0578 94.2184 52.0231 94.7929 51.9995C94.7674 51.5619 94.734 51.1283 94.6947 50.6992C94.2132 51.1755 93.6839 51.6458 93.1055 52.1076Z" fill="#583111"/>
<path d="M62.5561 32.3581L62.4702 32.3574L62.2128 32.3771C48.4577 33.1409 39.6476 35.9033 35.2796 40.8229C32.0685 44.4388 30.9103 49.3696 31.4108 57.3097C32.4137 73.2174 50.0966 86.7295 64.0902 87.3341L64.2134 87.3184C76.7187 86.1039 91.556 74.31 94.4003 60.3924C93.6004 60.6112 92.7548 60.7999 91.8481 60.9427L91.499 60.9984L90.5138 60.0505L90.3127 61.7576L90.2806 61.8414C90.1194 62.2607 84.943 67.1449 77.9967 64.484L77.6489 64.351C75.7551 72.183 69.9976 77.8978 63.2026 77.8978C55.8534 77.8978 49.716 71.2201 48.3679 62.4054C48.3541 62.4061 48.3437 62.4094 48.3306 62.4094C48.1334 62.4094 47.9159 62.3891 47.6807 62.3393C45.9893 61.9796 44.2403 60.2804 42.4801 57.2907C42.205 56.8236 42.3609 56.2209 42.8293 55.9458C43.2977 55.6707 43.9003 55.8266 44.1741 56.2936C46.0411 59.4668 47.4429 60.325 48.1504 60.4376C48.1118 59.8841 48.0888 59.326 48.0888 58.76C48.0888 48.2075 54.8688 39.6221 63.2026 39.6221C70.9429 39.6221 77.339 47.0336 78.2089 56.5471C78.9164 54.4516 79.9377 52.6875 79.9567 52.6547C82.8645 47.8544 87.0714 45.5269 92.8792 43.4235C89.7493 36.8682 81.9035 32.438 62.5561 32.3581ZM32.2427 55.5698C32.2427 55.1774 32.5611 54.8597 32.9528 54.8597C33.3458 54.8597 33.6629 55.1774 33.6629 55.5698C33.6629 55.9622 33.3458 56.2799 32.9528 56.2799C32.5611 56.2799 32.2427 55.9615 32.2427 55.5698ZM63.2524 84.5933C64.6608 84.4774 82.7623 82.5816 91.516 62.0622C91.6582 61.7281 92.046 61.5761 92.3761 61.717C92.7089 61.8591 92.8635 62.2443 92.7214 62.5771C83.3237 84.6025 63.4351 85.8975 63.2354 85.9074L63.1443 85.9126L63.0546 85.8923C37.3778 80.0026 33.0046 58.5242 32.9633 58.308C32.8952 57.9523 33.1297 57.6097 33.4841 57.5415C33.8358 57.4734 34.1824 57.7066 34.2505 58.0623C34.2911 58.2693 38.5196 78.8693 63.2524 84.5933Z" fill="#583111"/>
<path d="M64.2118 87.3175L64.0887 87.3333C50.0957 86.7286 32.4128 73.2165 31.4092 57.3088C30.9087 49.3687 32.0669 44.438 35.2781 40.822C39.6461 35.9025 48.4561 33.14 62.2113 32.3762L62.4687 32.3566L62.5545 32.3572C81.902 32.4372 89.7477 36.8674 92.877 43.422C93.0355 43.3644 93.1914 43.3067 93.3532 43.2491C93.3683 43.2432 94.1734 42.9405 95.1331 42.3647C91.4575 34.5995 82.7457 30.0245 63.8699 29.7481V29.6367L62.4628 29.735L62.1379 29.7311L60.7635 29.7566L60.7675 29.8372C46.8368 30.753 38.0962 33.7021 33.3188 39.0808C28.6435 44.3456 28.4083 51.3326 28.7948 57.4726C29.3051 65.5588 33.6941 73.5657 41.1514 80.0207C47.6012 85.6013 55.5859 89.2225 62.7674 89.869L64.0559 89.9509C64.202 89.9424 64.4254 89.93 64.4856 89.9221C78.6705 88.534 94.9759 75.2649 97.2365 59.3906C96.3744 59.7719 95.4285 60.1086 94.3987 60.3896C91.5544 74.3092 76.7164 86.1037 64.2118 87.3175Z" fill="#341B06"/>
<path d="M64.1519 89.959L64.0571 89.9531C64.0126 89.9557 63.9741 89.9577 63.9512 89.959H64.1519Z" fill="#010101"/>
<path d="M94.6953 50.6979C94.7353 51.1269 94.768 51.5606 94.7936 51.9982C95.6301 51.9628 96.4902 51.9503 97.3817 51.9589C97.2868 50.6068 97.1309 49.3065 96.9036 48.0605C96.3061 48.9396 95.5751 49.8273 94.6953 50.6979Z" fill="#010101"/>
<path d="M63.1996 70.8795C69.4332 70.8795 74.0633 58.0113 74.0633 54.0744C74.0633 49.9049 69.2911 46.6387 63.1996 46.6387C57.1068 46.6387 52.3359 49.9042 52.3359 54.0744C52.3359 58.0113 56.966 70.8795 63.1996 70.8795ZM63.1996 48.6039C68.0229 48.6039 72.0981 51.1089 72.0981 54.0744C72.0981 57.3975 67.7877 68.9143 63.1996 68.9143C58.6115 68.9143 54.3011 57.3975 54.3011 54.0744C54.3011 51.1089 58.3757 48.6039 63.1996 48.6039Z" fill="#341B06"/>
<path d="M61.1759 62.1755C60.8857 62.3903 60.8228 62.8011 61.0376 63.0913C61.1667 63.2655 61.3639 63.3572 61.565 63.3572C61.7006 63.3572 61.8362 63.316 61.9528 63.2295C62.1382 63.0939 66.4741 59.8467 66.9451 54.8839C66.9798 54.5236 66.7145 54.2039 66.3555 54.1699C65.9867 54.1378 65.6749 54.4004 65.6415 54.7594C65.538 55.8442 65.2131 56.8458 64.7814 57.7393L60.6295 54.3159C60.3518 54.0847 59.9371 54.126 59.7085 54.405C59.4779 54.6841 59.5179 55.0974 59.797 55.3267L64.1302 58.8982C62.8378 60.9217 61.2014 62.1565 61.1759 62.1755Z" fill="#341B06"/>
<path d="M82.8906 55.8203C83.8117 55.1239 84.7458 54.5475 85.7042 54.0686L85.1349 53.498C84.2931 54.3038 83.5496 55.082 82.8906 55.8203Z" fill="#894D20"/>
<path d="M84.1219 52.4854L82.7954 51.1582C82.2117 51.8362 81.6706 52.5745 81.1754 53.392C80.6664 54.2331 79.6976 56.2481 79.2266 58.1164C80.2976 56.5861 81.8802 54.6255 84.1219 52.4854Z" fill="#894D20"/>
<path d="M85.704 54.0698C86.1835 53.8307 86.6676 53.6092 87.1602 53.4186L86.794 51.9893C86.2032 52.4996 85.6516 53.004 85.1348 53.4992L85.704 54.0698Z" fill="#B28832"/>
<path d="M90.4438 49.1338C89.3 49.9428 88.2585 50.7537 87.3066 51.551L89.8234 52.6096C89.8555 52.6024 89.8863 52.5938 89.9184 52.5866C91.0045 51.9329 91.9504 51.2437 92.7725 50.5349L90.7405 48.5029C90.7575 48.744 90.654 48.9857 90.4438 49.1338Z" fill="#B28832"/>
<path d="M89.6201 47.9718C89.7596 47.8728 89.9221 47.8342 90.0806 47.846L88.8674 46.6328C86.4594 47.8244 84.4457 49.2374 82.793 51.1574L84.1195 52.4845C85.6373 51.0362 87.4525 49.5059 89.6201 47.9718Z" fill="#B28832"/>
<path d="M96.5316 45.9258C97.3223 44.4637 97.752 43.0867 97.9826 41.958C96.9312 43.0212 95.6479 43.7549 94.7812 44.1754L96.5316 45.9258Z" fill="#FFE2B3"/>
<path d="M90.6142 48.1419C90.6922 48.2526 90.7322 48.379 90.7407 48.5055L92.7727 50.5375C94.5257 49.0256 95.7218 47.4311 96.5341 45.9271L94.7838 44.1768C94.2119 44.4545 93.8202 44.5966 93.8077 44.6006C92.005 45.2406 90.3607 45.895 88.8691 46.6339L90.0823 47.8471C90.288 47.8609 90.4852 47.9604 90.6142 48.1419Z" fill="#DBB36B"/>
<path d="M79.0293 63.3371C83.7117 64.8739 87.2609 62.6028 88.5678 61.5566L87.2524 58.5957C83.0082 60.3709 80.3021 62.3034 79.0293 63.3371Z" fill="#894D20"/>
<path d="M86.6714 57.2859L85.9089 55.5703C85.1221 55.9935 84.3518 56.4887 83.5958 57.0743C82.8176 57.6757 81.1904 59.2086 80.0801 60.7827C81.6287 59.7398 83.8107 58.4782 86.6714 57.2859Z" fill="#894D20"/>
<path d="M88.5654 61.557C88.7187 61.4339 88.8445 61.3252 88.9349 61.2439L89.3403 57.7832C88.606 58.0472 87.9097 58.3197 87.25 58.5961L88.5654 61.557Z" fill="#B28832"/>
<path d="M94.2758 55.9492C94.2044 56.1785 94.0223 56.3672 93.7727 56.4307C92.4141 56.7746 91.1511 57.1565 89.9766 57.5594L91.9712 59.4781C93.248 59.2573 94.3996 58.9475 95.4411 58.5747L94.2758 55.9492Z" fill="#B28832"/>
<path d="M86.6681 57.2855C88.6051 56.4784 90.8481 55.7022 93.4225 55.0497C93.5889 55.0071 93.754 55.0301 93.8988 55.0975L93.2018 53.5293C90.5264 53.7763 88.14 54.3717 85.9062 55.5692L86.6681 57.2855Z" fill="#B28832"/>
<path d="M103.388 52.4414C102.026 53.0559 100.563 53.2792 99.6055 53.3605L100.61 55.6224C101.873 54.5416 102.768 53.4122 103.388 52.4414Z" fill="#FFE2B3"/>
<path d="M94.2886 55.5643C94.322 55.696 94.3128 55.8277 94.2755 55.9488L95.4408 58.5744C97.6209 57.7948 99.3084 56.7349 100.609 55.6233L99.6045 53.3613C98.971 53.415 98.5537 53.4065 98.54 53.4059C96.6272 53.3554 94.8592 53.3764 93.2012 53.529L93.8982 55.0973C94.0835 55.1844 94.2335 55.3488 94.2886 55.5643Z" fill="#DBB36B"/>
<path d="M104.741 49.6549C103.052 52.0145 98.6402 51.9824 98.6035 51.9817C98.1901 51.9706 97.7846 51.9634 97.3831 51.9595C96.4915 51.9503 95.6314 51.9634 94.7949 51.9988C94.2204 52.0223 93.6577 52.0571 93.1074 52.1069C93.6859 51.645 94.2152 51.174 94.6966 50.6985C95.5771 49.8279 96.3075 48.9402 96.9049 48.0618C99.9922 43.5248 99.6686 39.2465 99.6457 38.9891L99.2795 34.8877L98.2471 38.8731C97.8377 40.4486 96.3599 41.6297 95.1342 42.3653C94.1746 42.9411 93.3701 43.2438 93.3544 43.2497C93.1932 43.3073 93.0373 43.3649 92.8782 43.4226C87.071 45.526 82.8641 47.8535 79.9556 52.6538C79.9366 52.6872 78.9154 54.4507 78.2079 56.5462C78.2747 57.2721 78.3114 58.0103 78.3114 58.7591C78.3114 59.0283 78.2924 59.2917 78.2819 59.5576C78.5407 59.1364 78.8485 58.6569 79.2259 58.1164C79.6969 56.2482 80.6651 54.2332 81.1747 53.3921C81.6699 52.5746 82.211 51.8363 82.7947 51.1583C84.4474 49.2377 86.4617 47.8253 88.8691 46.6337C90.3607 45.8948 92.0049 45.2404 93.8077 44.6004C93.8208 44.5958 94.2119 44.4537 94.7838 44.1766C95.6498 43.756 96.933 43.0224 97.9851 41.9592C97.7545 43.0879 97.3248 44.4641 96.5341 45.9269C95.7218 47.431 94.5257 49.0254 92.7727 50.5373C91.9499 51.2461 91.0047 51.9352 89.9186 52.589C89.8865 52.5962 89.8557 52.6047 89.8236 52.6119L87.3068 51.5533C87.1326 51.7001 86.9629 51.8448 86.7952 51.9902L87.1614 53.4196C86.6688 53.6102 86.1853 53.8316 85.7051 54.0707C84.7468 54.5489 83.8126 55.1261 82.8916 55.8224C82.8353 55.8643 82.7776 55.903 82.7213 55.9469C82.6755 55.9836 78.9213 59.006 77.8201 61.9683L78.0173 62.3141C78.4994 61.9146 79.1839 61.3846 80.0781 60.7819C81.1884 59.2078 82.8163 57.6749 83.5939 57.0736C84.3498 56.488 85.1202 55.9934 85.9069 55.5695C88.1407 54.3721 90.5271 53.7766 93.2024 53.5297C94.8604 53.377 96.6284 53.3554 98.5412 53.4065C98.555 53.4072 98.9723 53.4157 99.6057 53.362C100.564 53.2807 102.026 53.0567 103.389 52.4429C102.768 53.4131 101.873 54.5431 100.61 55.6239C99.3103 56.7356 97.6222 57.7948 95.4421 58.575C94.4005 58.9477 93.2489 59.2576 91.9722 59.4783L89.9775 57.5597C89.7627 57.6337 89.5517 57.709 89.3414 57.7837L88.936 61.2444C88.8449 61.3256 88.7198 61.4337 88.5665 61.5575C87.2603 62.6037 83.7111 64.8741 79.028 63.338C78.464 63.7959 78.1758 64.0802 78.1647 64.0913C78.0264 64.2309 77.8423 64.2918 77.6602 64.2924C77.655 64.3114 77.6498 64.3318 77.6465 64.3514L77.9943 64.4844C84.9407 67.1453 90.117 62.2604 90.2782 61.8418L90.3103 61.758L90.5114 60.0509L91.4966 60.9988L91.8458 60.9431C92.753 60.8003 93.5987 60.6116 94.3979 60.3928C95.4277 60.1111 96.3736 59.7751 97.2357 59.3938C104.183 56.3275 105.919 50.5642 106.005 50.2674L107.136 46.3088L104.741 49.6549Z" fill="#3C2010"/>
<path d="M56.5923 71.4003C52.7759 68.9123 50.584 63.5834 50.0547 58.8145C50.0724 66.5692 54.048 73.1264 59.4752 75.2259V72.7321C58.4959 72.4451 57.5284 72.0102 56.5923 71.4003Z" fill="#B28832"/>
<path d="M68.0176 71.7193V74.732C72.89 72.2159 76.3455 66.0078 76.3455 58.7594C76.3455 58.6009 76.3402 58.445 76.3363 58.2871C76.1201 60.3774 75.3924 62.7717 74.8211 64.2004C73.5411 67.409 71.0283 70.1432 68.0176 71.7193Z" fill="#B28832"/>
<path d="M59.4727 72.7308V75.2247C60.6551 75.6819 61.9049 75.9315 63.1993 75.9315C64.8999 75.9315 66.5232 75.5031 68.0167 74.7314V71.7188C65.3873 73.0951 62.3772 73.5844 59.4727 72.7308Z" fill="#DBB36B"/>
<path d="M63.2021 39.6221C54.8676 39.6221 48.0883 48.2068 48.0883 58.7599C48.0883 59.3252 48.1112 59.884 48.1499 60.4376C47.4424 60.3249 46.0399 59.4667 44.1736 56.2936C43.8998 55.8265 43.2971 55.6706 42.8287 55.9457C42.3604 56.2209 42.2045 56.8235 42.4796 57.2906C44.2404 60.2803 45.9888 61.9796 47.6802 62.3392C47.9154 62.389 48.1328 62.4093 48.33 62.4093C48.3431 62.4093 48.353 62.406 48.3674 62.4054C49.7162 71.22 55.8535 77.8978 63.2021 77.8978C69.9971 77.8978 75.7545 72.1829 77.6483 64.3509C77.6522 64.3313 77.6575 64.311 77.6621 64.292C77.8435 64.2913 78.0282 64.2304 78.1665 64.0909C78.1783 64.0791 78.4658 63.7954 79.0298 63.3375C80.3026 62.3039 83.0087 60.3714 87.2529 58.5968C87.9132 58.3204 88.6089 58.0479 89.3433 57.7839C89.5529 57.7092 89.7645 57.6339 89.9793 57.5598C91.1539 57.1576 92.4168 56.7757 93.7755 56.4312C94.025 56.367 94.2065 56.1783 94.2786 55.9497C94.3159 55.8285 94.3244 55.6968 94.2916 55.5651C94.2366 55.3496 94.0866 55.1852 93.9012 55.0981C93.7565 55.03 93.5914 55.007 93.425 55.0503C90.8506 55.7027 88.6076 56.479 86.6706 57.286C83.8099 58.4782 81.6285 59.7399 80.0786 60.7828C79.1844 61.3854 78.4999 61.9154 78.0178 62.315L77.8206 61.9691C78.9224 59.0069 82.676 55.9837 82.7218 55.9477C82.7782 55.9038 82.8358 55.8652 82.8921 55.8232C83.5511 55.085 84.2946 54.3068 85.1364 53.501C85.6533 53.0058 86.2048 52.502 86.7957 51.9911C86.9634 51.8457 87.1337 51.7009 87.3073 51.5542C88.2591 50.7563 89.3007 49.946 90.4444 49.1369C90.6541 48.9882 90.7582 48.7465 90.7412 48.5068C90.732 48.381 90.6927 48.2539 90.6147 48.1432C90.4857 47.9624 90.2885 47.8622 90.0822 47.8478C89.9236 47.836 89.7612 47.8746 89.6217 47.9735C87.454 49.5077 85.6388 51.038 84.1217 52.487C81.8801 54.6278 80.2974 56.5884 79.2264 58.1179C78.8491 58.6584 78.5405 59.1386 78.2824 59.5591C78.2929 59.2931 78.3119 59.0298 78.3119 58.7606C78.3119 58.0118 78.2745 57.2736 78.2084 56.5477C77.3385 47.0335 70.9424 39.6221 63.2021 39.6221ZM63.2021 41.5873C70.3286 41.5873 76.1449 49.0361 76.3382 58.2876C76.3421 58.4448 76.3473 58.6014 76.3473 58.7599C76.3473 66.0076 72.8918 72.2164 68.0194 74.7325C66.5265 75.5041 64.9026 75.9326 63.2021 75.9326C61.907 75.9326 60.6571 75.683 59.4754 75.2257C54.0481 73.1262 50.0725 66.569 50.0548 58.8143C50.0548 58.796 50.0535 58.7776 50.0535 58.7599C50.0529 49.2909 55.9511 41.5873 63.2021 41.5873Z" fill="#341B06"/>
<path d="M33.4836 57.5401C33.1292 57.6083 32.8953 57.9509 32.9628 58.3066C33.004 58.5227 37.3766 80.0012 63.054 85.8909L63.1438 85.9112L63.2348 85.9059C63.4346 85.8955 83.3232 84.6011 92.7208 62.5757C92.863 62.2429 92.7077 61.8577 92.3756 61.7156C92.0455 61.5747 91.6576 61.7273 91.5155 62.0608C82.7618 82.5795 64.6603 84.4759 63.2519 84.5919C38.5191 78.8679 34.2906 58.2673 34.2513 58.0603C34.1825 57.7052 33.8353 57.472 33.4836 57.5401Z" fill="#894D20"/>
<path d="M32.9503 56.2796C33.3425 56.2796 33.6604 55.9617 33.6604 55.5695C33.6604 55.1773 33.3425 54.8594 32.9503 54.8594C32.5581 54.8594 32.2402 55.1773 32.2402 55.5695C32.2402 55.9617 32.5581 56.2796 32.9503 56.2796Z" fill="#894D20"/>
<path d="M63.4335 42.9237C63.5003 42.9302 70.1657 43.6364 73.407 50.6738C73.462 50.7937 73.5812 50.8644 73.7037 50.8644C73.7496 50.8644 73.7974 50.8546 73.8406 50.8343C74.0057 50.759 74.0771 50.5644 74.0018 50.4C70.6046 43.0233 63.5652 42.2778 63.4951 42.2712C63.3235 42.2529 63.1545 42.3865 63.1381 42.5667C63.1217 42.7468 63.2534 42.906 63.4335 42.9237Z" fill="#B28832"/>
<path d="M59.063 97.8424C59.885 97.8914 60.42 97.6218 60.469 96.7948C60.52 95.9678 59.889 95.2568 59.063 95.2078C57.3845 95.1067 54.4079 95.5915 52.3676 97.6603C52.0766 97.9554 51.7954 98.2728 51.5143 98.5898C50.4595 99.78 49.4077 100.967 47.8518 100.963C46.1257 100.959 43.8071 100.274 41.1035 97.8476C42.0887 102.607 44.5313 103.563 49.166 103.563C50.8238 103.563 52.1005 102.85 52.7906 102.352C53.1922 102.063 53.5023 101.669 53.8042 101.276C56.4944 97.7779 58.8021 97.8359 59.0491 97.8421L59.063 97.8424Z" fill="#010101"/>
<path d="M68.0855 97.8424C67.2635 97.8914 66.7285 97.6218 66.6795 96.7948C66.6285 95.9678 67.2595 95.2568 68.0855 95.2078C69.764 95.1067 72.7406 95.5915 74.7808 97.6603C75.0718 97.9554 75.3531 98.2728 75.6341 98.5898C76.689 99.78 77.7407 100.967 79.2966 100.963C81.0227 100.959 83.3414 100.274 86.0449 97.8476C85.0597 102.607 82.6172 103.563 77.9825 103.563C76.3246 103.563 75.0479 102.85 74.3578 102.352C73.9563 102.063 73.6462 101.669 73.3442 101.276C70.654 97.7779 68.3463 97.8359 68.0993 97.8421L68.0855 97.8424Z" fill="#010101"/>
<path d="M58.502 100.894H68.6449C65.5889 103.746 64.38 105.38 63.3797 108.25C62.5791 105.183 61.5058 103.597 58.502 100.894Z" fill="#010101"/>
<path d="M22.0742 103.132C22.0742 110.035 27.6707 115.633 34.5742 115.634C41.4778 115.636 47.0742 110.04 47.0742 103.137C47.0742 96.2332 41.4778 90.6356 34.5742 90.6342C27.6707 90.6328 22.0742 96.2282 22.0742 103.132Z" fill="#D9A487"/>
<path fill-rule="evenodd" clip-rule="evenodd" d="M34.5742 88.6338C42.5823 88.6354 49.0742 95.1286 49.0742 103.137C49.0742 111.145 42.5823 117.635 34.5742 117.634C26.5661 117.632 20.0742 111.139 20.0742 103.131C20.0742 95.1227 26.5661 88.6321 34.5742 88.6338ZM44.6437 103.136C44.6437 97.5746 40.1354 93.0654 34.5742 93.0643C29.013 93.0632 24.5048 97.5705 24.5048 103.132C24.5048 108.693 29.013 113.202 34.5742 113.203C40.1354 113.204 44.6437 108.697 44.6437 103.136Z" fill="black"/>
<path d="M80.0742 103.132C80.0742 110.035 85.6707 115.633 92.5742 115.634C99.4778 115.636 105.074 110.04 105.074 103.137C105.074 96.2332 99.4778 90.6356 92.5742 90.6342C85.6707 90.6328 80.0742 96.2282 80.0742 103.132Z" fill="#D9A487"/>
<path fill-rule="evenodd" clip-rule="evenodd" d="M92.5742 88.6338C100.582 88.6354 107.074 95.1286 107.074 103.137C107.074 111.145 100.582 117.635 92.5742 117.634C84.5661 117.632 78.0742 111.139 78.0742 103.131C78.0742 95.1227 84.5661 88.6321 92.5742 88.6338ZM102.644 103.136C102.644 97.5746 98.1354 93.0654 92.5742 93.0643C87.013 93.0632 82.5048 97.5705 82.5048 103.132C82.5048 108.693 87.013 113.202 92.5742 113.203C98.1354 113.204 102.644 108.697 102.644 103.136Z" fill="black"/>
</svg>
