<svg width="129" height="129" viewBox="0 0 129 129" fill="none" xmlns="http://www.w3.org/2000/svg">
<path d="M33.5613 46.5042C33.5613 63.5906 47.4125 77.4413 64.4989 77.4408C81.5853 77.4402 95.4365 63.5884 95.4365 46.5021C95.4365 29.4157 81.5853 15.5649 64.4989 15.5655C47.4125 15.5661 33.5613 29.4179 33.5613 46.5042Z" fill="#909090"/>
<path fill-rule="evenodd" clip-rule="evenodd" d="M91.8752 46.499C91.8752 31.3795 79.6183 19.123 64.4988 19.1236C49.3792 19.1241 37.1223 31.3814 37.1223 46.501C37.1223 61.6205 49.3792 73.877 64.4988 73.8764C79.6183 73.8759 91.8752 61.6186 91.8752 46.499ZM64.4988 12.0012C83.5519 12.0005 98.9976 27.4456 98.9976 46.4988C98.9976 65.552 83.5519 80.9981 64.4988 80.9988C45.4456 80.9995 30 65.5544 30 46.5012C30 27.448 45.4456 12.0019 64.4988 12.0012Z" fill="black"/>
<path d="M26 71.5027C26 92.7657 43.237 110.002 64.5 110.001C85.763 110.001 103 92.763 103 71.5C103 50.237 85.763 33.0006 64.5 33.0013C43.237 33.0021 26 50.2397 26 71.5027Z" fill="#62591E"/>
<path d="M81.2314 102.497C81.2314 109.272 86.7241 114.764 93.4997 114.766C100.275 114.767 105.768 109.276 105.768 102.502C105.768 95.7279 100.275 90.2352 93.4997 90.2339C86.7241 90.2325 81.2314 95.723 81.2314 102.497Z" fill="#80752B"/>
<path fill-rule="evenodd" clip-rule="evenodd" d="M103.537 102.5C103.537 96.9584 99.0431 92.4651 93.5 92.4643C87.9569 92.4636 83.4634 96.9556 83.4634 102.498C83.4634 108.04 87.9569 112.533 93.5 112.534C99.0431 112.534 103.537 108.042 103.537 102.5ZM93.5 88.0019C101.508 88.003 108 94.4945 108 102.501C108 110.508 101.508 116.997 93.5 116.996C85.4919 116.995 79 110.503 79 102.497C79 94.4904 85.4919 88.0008 93.5 88.0019Z" fill="black"/>
<path d="M24.2359 102.496C24.2359 109.27 29.7267 114.762 36.5 114.764C43.2733 114.765 48.7642 109.275 48.7642 102.501C48.7642 95.7275 43.2733 90.2352 36.5 90.2339C29.7267 90.2325 24.2359 95.7226 24.2359 102.496Z" fill="#80752B"/>
<path fill-rule="evenodd" clip-rule="evenodd" d="M46.5283 102.5C46.5283 96.9561 42.0349 92.4672 36.5 92.4664C30.9651 92.4657 26.4717 96.9533 26.4717 102.498C26.4717 108.042 30.9651 112.531 36.5 112.532C42.0349 112.532 46.5283 108.045 46.5283 102.5ZM36.5 88.0019C44.5116 88.003 51 94.498 51 102.501C51 110.504 44.5116 116.997 36.5 116.996C28.4884 116.995 22 110.5 22 102.497C22 94.4939 28.4884 88.0008 36.5 88.0019Z" fill="black"/>
</svg>
