<svg width="129" height="129" viewBox="0 0 129 129" fill="none" xmlns="http://www.w3.org/2000/svg">
<path d="M32.3125 47.4319C32.3125 64.8289 46.4155 78.9314 63.8125 78.9308C81.2095 78.9302 95.3125 64.8267 95.3125 47.4297C95.3125 30.0327 81.2095 15.9302 63.8125 15.9308C46.4155 15.9314 32.3125 30.0349 32.3125 47.4319Z" fill="#2E1D0A"/>
<path fill-rule="evenodd" clip-rule="evenodd" d="M64.3125 12.9309C83.0902 12.9302 98.3125 28.152 98.3125 46.9297C98.3125 65.7074 83.0902 80.9302 64.3125 80.9309C45.5348 80.9315 30.3125 65.7097 30.3125 46.9321C30.3125 28.1544 45.5348 12.9315 64.3125 12.9309ZM93.1222 46.9299C93.1222 31.0187 80.2237 18.1206 64.3125 18.1211C48.4013 18.1217 35.5028 31.0207 35.5028 46.9319C35.5028 62.8431 48.4013 75.7412 64.3125 75.7406C80.2237 75.7401 93.1222 62.841 93.1222 46.9299Z" fill="black"/>
<path d="M21.9258 70.8991C21.9258 48.2556 40.2783 29.8994 62.8906 29.8994C85.5028 29.8994 103.855 48.2556 103.855 70.8991C103.855 93.5426 85.5028 111.899 62.8906 111.899C40.2783 111.899 21.9258 93.5426 21.9258 70.8991Z" fill="#815000"/>
<path d="M103.913 70.2209C103.916 70.4468 103.918 70.6732 103.918 70.9C103.918 73.0944 103.751 75.2492 103.429 77.3519L65.1104 77.3519L58.694 70.8303C57.1663 69.2776 54.5692 69.2776 53.0415 70.8303C51.5138 72.3831 51.5138 75.0228 53.0415 76.5755L53.8054 77.3519L48.6112 77.3519L42.1949 70.8303C40.6671 69.2776 38.07 69.2776 36.5423 70.8303C35.0146 72.3831 35.0146 75.0228 36.5423 76.5755L37.3062 77.3519L32.112 77.3519L25.6957 70.8303C24.7127 69.8312 23.287 69.475 21.9883 69.7616C22.1123 65.0695 23.0003 60.5709 24.5304 56.3896L84.5122 56.3897C93.3823 56.3897 101.03 62.1251 103.913 70.2209Z" fill="#CE7F00"/>
<path d="M60.801 66.2559C60.478 66.2559 60.155 66.2559 59.8319 66.2559C59.1859 66.2559 58.3783 66.2559 57.7322 66.0851C57.4092 66.0851 57.0862 65.9144 56.9247 65.9144C56.1171 65.7437 55.471 65.7437 54.6634 65.5729L54.5019 65.5729C47.8798 64.0363 42.0652 60.4509 37.7043 55.1582L34.3125 55.1582L34.3125 66.2559L60.801 66.2559Z" fill="#815000"/>
<path d="M22.8398 62.2306C23.4142 59.5616 24.2482 56.9891 25.3141 54.541L26.3014 54.541L26.3014 65.0221C24.9679 64.3512 23.7948 63.3942 22.8398 62.2306Z" fill="#815000"/>
<path d="M26.3008 52.4378C27.4673 50.1272 28.846 47.9422 30.4111 45.9082L34.3089 45.9082L34.3089 51.233C35.1998 52.6065 36.2115 53.9143 37.389 55.1563L34.3089 55.1563L34.3089 80.4343C29.8789 80.4343 26.3008 76.9651 26.3008 72.67L26.3008 52.4378Z" fill="#E0CFA3"/>
<path d="M74.5139 99.5479C75.6502 85.0052 85.2275 73.1067 98.376 68.81L98.376 64.6786C98.376 57.7378 92.8569 53.1106 87.3378 51.458C84.2535 56.4157 79.7084 60.3819 74.3516 63.026L74.5139 99.5479Z" fill="#EA9600"/>
<path d="M33.0508 42.8095C36.6249 39.0084 40.9157 35.8901 45.7062 33.6709C45.7545 42.1551 52.4501 49.3003 60.8005 49.3003L60.8005 63.1724L57.5772 62.6806C46.4929 61.3961 36.4276 53.4023 33.0508 42.8095Z" fill="#CE7F00"/>
<path d="M82.849 35.0928C86.1532 36.9427 89.1754 39.2375 91.8344 41.8961C90.9335 45.3707 89.4607 48.6367 87.5842 51.5612C84.201 56.5705 79.6335 60.578 74.0511 63.2497C69.822 65.0865 65.0854 66.2553 60.1797 66.2553L60.1797 49.8914C65.9313 49.8914 70.837 46.8858 73.7128 42.5443L84.7085 42.5443C84.7085 39.8922 84.0499 37.3701 82.849 35.0928Z" fill="#9B5F00"/>
<path d="M48.5625 77.25L50.7009 79.3902C51.6173 80.3074 51.9228 81.3776 51.7701 82.6005C53.2975 81.6833 54.8249 80.7661 56.5051 80.1546L53.7557 77.25L48.5625 77.25Z" fill="#815000"/>
<path d="M31.789 97.582C27.3708 92.4298 24.2081 86.1675 22.7773 79.2706L28.5483 85.0465C30.0757 86.5752 32.6724 86.5752 34.1998 85.0465C35.7272 83.5178 35.7272 80.9189 34.1998 79.3902L32.0614 77.25L37.2546 77.25L45.0445 85.0465C45.5027 85.658 46.2664 85.9637 47.0301 86.1166C43.5171 89.3269 40.615 93.1487 38.6293 97.582L31.789 97.582Z" fill="#815000"/>
<path d="M36.7582 102.469C34.9684 100.983 33.307 99.3477 31.793 97.582L38.629 97.582C37.8711 99.1533 37.2475 100.782 36.7582 102.469Z" fill="#CE7F00"/>
<path d="M103.364 77.25C100.695 94.4156 87.38 108.058 70.3984 111.209L70.3984 94.6775C80.0212 94.6775 87.8111 86.881 87.8111 77.25L103.364 77.25Z" fill="#CE4A00"/>
<path d="M70.3984 77.25L70.3984 94.6775C80.0212 94.6775 87.8111 86.881 87.8111 77.25L70.3984 77.25Z" fill="#A52B00"/>
<path d="M70.3982 111.209C67.9632 111.661 65.4527 111.898 62.8875 111.898C59.4934 111.898 55.9474 111.425 52.793 110.645C52.793 101.646 61.2462 94.6768 70.3982 94.6768L70.3982 111.209Z" fill="#EA9600"/>
<path fill-rule="evenodd" clip-rule="evenodd" d="M68.1944 34.1943L68.1909 34.1943L68.1909 30.2392C66.4547 30.0144 64.6845 29.8984 62.8874 29.8984C56.6362 29.8984 50.7105 31.3013 45.4081 33.8099C45.4017 33.9374 45.3984 34.0656 45.3984 34.1943C45.3984 42.7209 52.387 49.6077 61.0395 49.6077C66.6969 49.6077 71.5247 47.0897 74.3534 42.8264L68.1909 42.8264L68.1944 34.1943ZM61.0395 49.6077C57.046 49.6077 53.8845 46.4923 53.8845 42.5569C53.8845 38.6216 57.046 35.5061 61.0395 35.5061C65.0329 35.5061 68.1909 38.8911 68.1909 42.8264C68.1909 46.7618 65.0329 49.6077 61.0395 49.6077Z" fill="#EA9600"/>
<path d="M30.4102 45.909C31.401 44.6347 32.5932 43.2552 33.7246 42.1074C36.8064 53.1241 46.1982 61.2821 57.507 62.5999L60.1807 63.0983L60.1807 66.2544L59.8098 66.2544C59.4809 66.2544 59.1108 66.2129 58.7407 66.1714C58.3706 66.1298 58.0005 66.0883 57.6715 66.0883C57.6034 66.0883 57.507 66.0598 57.3942 66.0264C57.2345 65.9792 57.0418 65.9222 56.8491 65.9222C56.4584 65.8433 56.0677 65.8019 55.6946 65.7623C55.2824 65.7186 54.8917 65.6772 54.5463 65.59L54.3818 65.59C43.8488 63.2669 35.3303 55.8894 31.5387 45.909L30.4102 45.909Z" fill="#FFC022"/>
<path d="M21.9369 69.778C21.9269 70.1503 21.9219 70.5239 21.9219 70.8986C21.9219 73.769 22.2168 76.5705 22.7779 79.2745L28.5458 85.0473C30.0732 86.576 32.6698 86.576 34.1972 85.0473C35.7246 83.5185 35.7246 80.9197 34.1972 79.391L25.6437 70.8301C24.6608 69.8465 23.2354 69.4958 21.9369 69.778Z" fill="#815000"/>
<path d="M50.6946 79.391L42.141 70.8301C40.6136 69.3014 38.017 69.3014 36.4896 70.8301C34.9621 72.3589 34.9621 74.9577 36.4896 76.4864L45.0431 85.0473C45.6541 85.6588 46.2651 85.9645 47.0288 86.1174C48.5562 84.7415 50.0836 83.5186 51.7638 82.6013C51.9165 81.3783 51.6111 80.1554 50.6946 79.391Z" fill="#815000"/>
<path d="M52.9869 70.8301C54.5144 69.3014 57.111 69.3014 58.6384 70.8301L65.3591 77.5565C62.3042 78.0151 59.2494 78.7795 56.5 80.0025L52.9869 76.4864C51.4595 74.9577 51.4595 72.3589 52.9869 70.8301Z" fill="#815000"/>
<path d="M52.894 110.67C48.045 109.453 43.538 107.37 39.5469 104.596C42.7104 91.8722 53.7098 82.0528 67.1919 80.7677L70.3994 80.4619L70.3994 94.6791C61.1223 94.679 53.6335 101.839 52.894 110.67Z" fill="#CE7F00"/>
<path d="M39.5463 104.594C38.5959 103.934 37.6747 103.234 36.7852 102.497C37.2836 100.742 37.9055 99.0462 38.6287 97.4315C40.6143 92.9982 43.5164 89.1764 47.0295 85.9661C48.4042 84.7431 50.0843 83.5201 51.7645 82.45C53.2919 81.5328 54.8194 80.7684 56.4995 80.0041C59.2489 78.7811 62.3037 78.0167 65.3586 77.5581C65.4886 77.5463 65.6177 77.5344 65.746 77.5227C67.276 77.3825 68.798 77.3535 70.3482 77.3535L70.3482 80.4362C56.9952 81.7212 42.7071 91.872 39.5463 104.594Z" fill="#EA9600"/>
<path d="M57.1016 42.8262C57.1016 45.2238 58.8812 47.1419 61.1056 47.1419C63.3301 47.1419 65.1097 45.2238 65.1097 42.8262L57.1016 42.8262Z" fill="#D13100"/>
<path d="M68.8026 42.8262L64.3258 42.8262C64.3258 44.6901 62.8932 46.1813 61.1025 46.1813C59.3118 46.1813 57.8792 44.6901 57.8792 42.8262L53.4023 42.8262C53.4023 47.2996 56.8047 50.8412 61.1025 50.8412C65.4003 50.8412 68.8026 47.1133 68.8026 42.8262Z" fill="#FFC022"/>
<path d="M68.1905 39.6437L68.1905 30.2393C70.4188 30.5278 72.5911 30.9957 74.6925 31.628C78.551 33.8774 81.1268 38.0657 81.1268 42.8259L53.4062 42.8259C53.4062 38.3524 56.8086 34.8109 61.1064 34.8109C64.3138 34.8109 67.0226 36.7834 68.1905 39.6437Z" fill="#2E1D0A"/>
<path d="M84.8237 42.8259L80.0481 42.8259C80.0481 36.2332 74.7785 30.9591 68.1914 30.9591L68.1914 30.2393C73.4419 30.9191 78.3816 32.5947 82.8149 35.0707C84.1098 37.3009 84.8237 40.0634 84.8237 42.8259Z" fill="#A52B00"/>
<path d="M22.3125 103.425C22.3125 110.328 27.9089 115.926 34.8125 115.927C41.7161 115.929 47.3125 110.333 47.3125 103.43C47.3125 96.5261 41.7161 90.9286 34.8125 90.9272C27.9089 90.9258 22.3125 96.5211 22.3125 103.425Z" fill="#815000"/>
<path fill-rule="evenodd" clip-rule="evenodd" d="M34.8125 88.9267C42.8206 88.9284 49.3125 95.4216 49.3125 103.43C49.3125 111.438 42.8206 117.928 34.8125 117.927C26.8044 117.925 20.3125 111.432 20.3125 103.424C20.3125 95.4156 26.8044 88.9251 34.8125 88.9267ZM44.8819 103.429C44.8819 97.8676 40.3737 93.3584 34.8125 93.3573C29.2513 93.3561 24.7431 97.8635 24.7431 103.425C24.7431 108.986 29.2513 113.495 34.8125 113.496C40.3737 113.497 44.8819 108.99 44.8819 103.429Z" fill="black"/>
<path d="M80.3125 103.425C80.3125 110.328 85.9089 115.926 92.8125 115.927C99.7161 115.929 105.312 110.333 105.312 103.43C105.312 96.5261 99.7161 90.9286 92.8125 90.9272C85.9089 90.9258 80.3125 96.5211 80.3125 103.425Z" fill="#815000"/>
<path fill-rule="evenodd" clip-rule="evenodd" d="M92.8125 88.9267C100.821 88.9284 107.312 95.4216 107.312 103.43C107.312 111.438 100.821 117.928 92.8125 117.927C84.8044 117.925 78.3125 111.432 78.3125 103.424C78.3125 95.4156 84.8044 88.9251 92.8125 88.9267ZM102.882 103.429C102.882 97.8676 98.3737 93.3584 92.8125 93.3573C87.2513 93.3561 82.7431 97.8635 82.7431 103.425C82.7431 108.986 87.2513 113.495 92.8125 113.496C98.3737 113.497 102.882 108.99 102.882 103.429Z" fill="black"/>
</svg>
