<svg width="128" height="128" viewBox="0 0 128 128" fill="none" xmlns="http://www.w3.org/2000/svg">
<path d="M42.9098 88.2152C40.7679 88.8389 38.314 89.0938 35.559 88.9702C27.8482 88.6086 22.7143 85.9075 20.3048 80.9356C15.7369 71.5359 22.8651 56.0381 29.7685 48.466C32.831 45.1051 35.4827 43.6303 37.6577 44.0805C45.012 45.6031 54.573 64.0685 52.6382 76.6947C51.716 82.6959 48.3367 86.6349 42.9098 88.2152Z" fill="black"/>
<path d="M35.3964 91.966C26.8639 91.5658 20.3388 88.4648 17.2737 82.141C14.5077 76.4462 15.4176 69.3579 17.576 63.118C19.7679 56.7812 23.4715 50.6629 27.2163 46.5552C28.8663 44.7445 30.5635 43.2605 32.315 42.2868C34.0784 41.3064 36.1805 40.6967 38.3968 41.1555C41.3526 41.7674 43.9237 43.8724 45.956 46.1638C48.0844 48.5635 50.0494 51.6546 51.6692 55.0261C54.878 61.7046 57.0002 70.0557 55.9198 77.1067C54.855 84.0353 50.773 89.0765 43.9246 91.0708C41.3315 91.8259 38.4676 92.1038 35.3964 91.966Z" fill="black"/>
<path d="M35.6365 87.6346C4.2 86.1705 29.6171 43.789 37.3307 45.3843C47.2737 47.4401 64.124 88.9593 35.6365 87.6346Z" fill="#3D3A2F"/>
<path d="M35.1582 87.1769C35.1582 87.1769 35.924 43.9969 36.8541 45.8011C37.7843 47.6053 37.9702 86.7258 36.7968 87.4024C35.6233 88.079 35.1582 87.1769 35.1582 87.1769Z" fill="#FF8B00"/>
<path d="M38.8379 46.1011C38.8379 46.1011 49.3439 72.3603 44.0356 86.0411C44.0356 86.0411 48.4733 84.0878 49.4353 82.1003C49.4353 80.9167 47.5348 51.6521 38.8379 46.1011Z" fill="#FF8B00"/>
<path d="M34.1603 46.7165C25.4551 53.848 23.9174 75.1372 23.6074 82.7003C25.1676 84.1963 27.1378 86.1954 29.9317 86.8986L30.3337 86.6831C22.7412 70.6191 33.6792 49.5686 35.5295 46.1011C35.0959 46.2273 34.6395 46.4325 34.1603 46.7165Z" fill="#FF8B00"/>
<path d="M88.6703 88.2153C90.8121 88.839 93.2661 89.0939 96.0211 88.9702C103.732 88.6086 108.866 85.9075 111.275 80.9356C115.843 71.5359 108.715 56.0381 101.812 48.466C98.7491 45.1051 96.0974 43.6303 93.9224 44.0805C86.568 45.6031 77.0071 64.0685 78.9419 76.6948C79.8641 82.696 83.2434 86.635 88.6703 88.2153Z" fill="black"/>
<path d="M96.1856 91.966C104.718 91.5658 111.243 88.4648 114.308 82.141C117.074 76.4462 116.164 69.358 114.006 63.118C111.814 56.7812 108.11 50.6629 104.366 46.5552C102.716 44.7445 101.018 43.2605 99.2671 42.2868C97.5036 41.3064 95.4016 40.6967 93.1852 41.1555C90.2295 41.7674 87.6583 43.8725 85.626 46.1638C83.4976 48.5635 81.5326 51.6546 79.9128 55.0261C76.7041 61.7046 74.5818 70.0557 75.6623 77.1068C76.727 84.0353 80.809 89.0766 87.6575 91.0708C90.2506 91.8259 93.1145 92.1038 96.1856 91.966Z" fill="black"/>
<path d="M95.9475 87.6346C127.384 86.1706 101.967 43.789 94.2533 45.3843C84.3102 47.4401 67.46 88.9593 95.9475 87.6346Z" fill="#3D3A2F"/>
<path d="M96.4258 87.1769C96.4258 87.1769 95.66 43.9969 94.7298 45.8011C93.7996 47.6053 93.6138 86.7258 94.7872 87.4024C95.9607 88.079 96.4258 87.1769 96.4258 87.1769Z" fill="#FF8B00"/>
<path d="M92.7422 46.1011C92.7422 46.1011 82.2361 72.3603 87.5445 86.0412C87.5445 86.0412 83.1068 84.0878 82.1448 82.1003C82.1448 80.9167 84.0453 51.6521 92.7422 46.1011Z" fill="#FF8B00"/>
<path d="M97.4236 46.7165C106.129 53.848 107.667 75.1373 107.977 82.7003C106.416 84.1963 104.446 86.1954 101.652 86.8987L101.25 86.6831C108.843 70.6192 97.9048 49.5686 96.0545 46.1011C96.4881 46.2273 96.9445 46.4325 97.4236 46.7165Z" fill="#FF8B00"/>
</svg>
