<svg width="129" height="129" viewBox="0 0 129 129" fill="none" xmlns="http://www.w3.org/2000/svg">
<path d="M7.7002 64.9034C7.7002 52.2034 17.9976 41.9059 30.7002 41.9034C43.4027 41.9009 53.7002 52.1942 53.7002 64.8942C53.7002 77.5943 43.4027 87.8917 30.7002 87.8942C17.9976 87.8968 7.7002 77.6034 7.7002 64.9034Z" fill="white"/>
<path d="M28.2409 48.7202C28.271 48.5762 28.2875 48.429 28.2875 48.2806C28.2875 47.7097 28.0557 47.1475 27.65 46.7446C27.2442 46.3389 26.6849 46.107 26.114 46.107C25.5401 46.107 24.9808 46.3389 24.5751 46.7446C24.1723 47.1475 23.9404 47.7068 23.9404 48.2806C23.9404 48.8515 24.1723 49.4138 24.5751 49.8166C24.6246 49.8661 24.6768 49.9131 24.7307 49.9574C24.5962 50.24 24.5189 50.555 24.5189 50.8886C24.5189 52.089 25.492 53.0622 26.6924 53.0622H28.1415C29.3419 53.0622 30.315 52.089 30.315 50.8886C30.315 49.7218 29.3949 48.7724 28.2409 48.7202Z" fill="black"/>
<path d="M27.5636 57.1197C26.9897 57.1197 26.4304 57.3515 26.0247 57.7573C25.6218 58.1601 25.39 58.7223 25.39 59.2932C25.39 59.8642 25.6218 60.4264 26.0247 60.8292C26.4304 61.235 26.9897 61.4668 27.5636 61.4668C28.1345 61.4668 28.6938 61.235 29.0995 60.8292C29.5053 60.4264 29.7371 59.8642 29.7371 59.2932C29.7371 58.7194 29.5053 58.1601 29.0995 57.7573C28.6938 57.3515 28.1345 57.1197 27.5636 57.1197Z" fill="black"/>
<path d="M34.2282 44.3682C33.6544 44.3682 33.0951 44.6 32.6893 45.0028C32.2865 45.4086 32.0546 45.9708 32.0546 46.5417C32.0546 47.1127 32.2865 47.6749 32.6893 48.0777C33.0951 48.4834 33.6544 48.7153 34.2282 48.7153C34.7991 48.7153 35.3585 48.4834 35.7642 48.0777C36.1699 47.6749 36.4018 47.1127 36.4018 46.5417C36.4018 45.9708 36.1699 45.4086 35.7642 45.0028C35.3585 44.6 34.7991 44.3682 34.2282 44.3682Z" fill="black"/>
<path d="M16.3472 56.482C16.7501 56.0792 16.9848 55.517 16.9848 54.946C16.9848 54.3722 16.7501 53.8129 16.3472 53.4101C15.9415 53.0043 15.3822 52.7725 14.8113 52.7725C14.2374 52.7725 13.6781 53.0043 13.2724 53.4101C12.8695 53.8129 12.6377 54.3751 12.6377 54.946C12.6377 55.517 12.8695 56.0792 13.2724 56.482C13.6781 56.8878 14.2374 57.1196 14.8113 57.1196C15.3822 57.1196 15.9415 56.8878 16.3472 56.482Z" fill="black"/>
<path d="M23.2161 64.6546C22.6423 64.6546 22.083 64.8864 21.6773 65.2921C21.2744 65.695 21.0397 66.2543 21.0397 66.8281C21.0397 67.399 21.2744 67.9613 21.6773 68.3641C22.083 68.7698 22.6423 69.0017 23.2161 69.0017C23.7871 69.0017 24.3464 68.7698 24.7521 68.3641C25.1579 67.9613 25.3897 67.399 25.3897 66.8281C25.3897 66.2543 25.1579 65.695 24.7521 65.2921C24.3464 64.8864 23.7871 64.6546 23.2161 64.6546Z" fill="black"/>
<path d="M17.5433 64.2606C16.9257 63.2312 15.5906 62.8973 14.5612 63.5152C13.5318 64.1328 13.1979 65.4679 13.8158 66.4973L14.6852 67.9464C15.0927 68.6257 15.8126 69.0019 16.551 69.0019C16.9315 69.0019 17.3173 68.9019 17.6674 68.6918C18.6968 68.0742 19.0306 66.739 18.4128 65.7096L17.5433 64.2606Z" fill="black"/>
<path d="M44.0753 50.9942C44.077 50.9589 44.0805 50.9241 44.0805 50.8881C44.0805 49.6878 43.1073 48.7146 41.9069 48.7146H40.6028C39.4024 48.7146 38.4292 49.6878 38.4292 50.8881C38.4292 52.0885 39.4024 53.0617 40.6028 53.0617H40.901C40.9364 53.5839 41.1598 54.0841 41.5285 54.4531C41.9342 54.8588 42.4935 55.0907 43.0673 55.0907C43.6383 55.0907 44.1976 54.8588 44.6033 54.4531C45.009 54.0502 45.2409 53.488 45.2409 52.9171C45.2409 52.3462 45.009 51.7839 44.6033 51.3811C44.4474 51.2252 44.2683 51.0956 44.0753 50.9942Z" fill="black"/>
<path d="M22.8142 81.2974C22.3458 81.6288 22.023 82.141 21.926 82.7066C21.8297 83.2681 21.9651 83.861 22.2948 84.3271C22.6244 84.7932 23.1384 85.1184 23.6999 85.2146C24.2654 85.3116 24.856 85.1779 25.3244 84.8466C25.7906 84.5169 26.1133 84.0046 26.2103 83.4391C26.3066 82.8776 26.1736 82.283 25.8439 81.8169C25.5126 81.3484 24.9979 81.0273 24.4364 80.931C23.8709 80.8341 23.2804 80.9678 22.8142 81.2974Z" fill="black"/>
<path d="M35.0421 69.4802C35.0379 69.4743 35.0345 69.4674 35.0303 69.4615C34.7007 68.9954 34.1867 68.6702 33.6229 68.5756C33.0573 68.4787 32.4668 68.6124 32.0007 68.942C31.5322 69.2734 31.2094 69.7856 31.1124 70.3512C31.0162 70.9127 31.1498 71.5032 31.4812 71.9717C31.8109 72.4378 32.3248 72.763 32.8863 72.8593C33.3561 72.9398 33.8424 72.8589 34.2625 72.6399C34.2667 72.6458 34.2699 72.6524 34.2743 72.6585C34.6039 73.1247 35.1179 73.4498 35.6794 73.5461C36.2449 73.643 36.8354 73.5094 37.3039 73.178C37.77 72.8483 38.0928 72.3361 38.1898 71.7705C38.2868 71.205 38.1531 70.6145 37.8234 70.1483C37.4937 69.6822 36.9798 69.3571 36.4159 69.2625C35.9465 69.182 35.4609 69.2628 35.0421 69.4802Z" fill="black"/>
<path d="M26.0514 72.4527L24.7846 73.1711C23.7394 73.762 23.3741 75.0899 23.9664 76.1341C24.5587 77.1784 25.8852 77.5447 26.9294 76.9524L28.1962 76.234C28.2602 76.1976 28.322 76.1585 28.3812 76.1166C29.2817 75.4797 29.5703 74.2511 29.0146 73.2712C28.4221 72.2267 27.0956 71.8603 26.0514 72.4527Z" fill="black"/>
<path d="M41.5186 80.527C40.4384 81.0489 39.9855 82.3493 40.5081 83.43L41.2756 85.017C41.7981 86.0975 43.0979 86.5502 44.1787 86.0275C44.289 85.9743 44.3928 85.9126 44.4898 85.844C45.3416 85.2416 45.6584 84.0946 45.1892 83.1244L44.4217 81.5374C43.899 80.4567 42.5994 80.0043 41.5186 80.527Z" fill="black"/>
<path d="M18.2882 73.8628C17.7144 73.8628 17.1551 74.0947 16.7494 74.5004C16.3465 74.9032 16.1147 75.4655 16.1147 76.0364C16.1147 76.6073 16.3465 77.1695 16.7494 77.5724C17.1551 77.9781 17.7144 78.2099 18.2882 78.2099C18.8592 78.2099 19.4185 77.9781 19.8242 77.5724C20.2299 77.1695 20.4618 76.6073 20.4618 76.0364C20.4618 75.4626 20.2299 74.9032 19.8242 74.5004C19.4185 74.0947 18.8592 73.8628 18.2882 73.8628Z" fill="black"/>
<path d="M48.2696 69.6539L47.2553 68.9294C46.2786 68.2318 44.9209 68.4582 44.2233 69.4348C43.5254 70.4118 43.7518 71.7692 44.7287 72.4668L45.743 73.1913C46.1259 73.4649 46.5673 73.5962 47.0046 73.5962C47.6827 73.5962 48.351 73.2797 48.775 72.6859C49.4729 71.709 49.2465 70.3515 48.2696 69.6539Z" fill="black"/>
<path d="M38.7534 58.6639C38.285 58.9953 37.9622 59.5076 37.8652 60.0731C37.7689 60.6346 37.9026 61.2251 38.234 61.6936C38.5636 62.1597 39.0776 62.4849 39.6391 62.5812C40.2046 62.6781 40.7952 62.5444 41.2636 62.2131C41.7298 61.8834 42.0525 61.3712 42.1495 60.8056C42.2481 60.2424 42.1128 59.6495 41.7831 59.1834C41.4518 58.7149 40.9395 58.3922 40.3756 58.2976C39.8101 58.2006 39.2196 58.3343 38.7534 58.6639Z" fill="black"/>
<path fill-rule="evenodd" clip-rule="evenodd" d="M50.15 64.8935C50.15 75.6322 41.4426 84.3407 30.7 84.3428C19.9574 84.3449 11.25 75.64 11.25 64.9013C11.25 54.1625 19.9574 45.4541 30.7 45.452C41.4426 45.4498 50.15 54.1548 50.15 64.8935ZM30.7 91.4428C45.3625 91.4399 57.25 79.5534 57.25 64.8921C57.25 50.2308 45.3625 38.349 30.7 38.352C16.0375 38.3549 4.15 50.2414 4.15 64.9027C4.15 79.564 16.0375 91.4457 30.7 91.4428Z" fill="black"/>
<path d="M121.8 64.9034C121.8 52.2034 111.502 41.9059 98.7998 41.9034C86.0973 41.9009 75.7998 52.1942 75.7998 64.8942C75.7998 77.5943 86.0973 87.8917 98.7998 87.8942C111.502 87.8968 121.8 77.6034 121.8 64.9034Z" fill="white"/>
<path d="M101.577 48.7202C101.546 48.5762 101.53 48.429 101.53 48.2806C101.53 47.7097 101.762 47.1475 102.167 46.7446C102.573 46.3389 103.132 46.107 103.703 46.107C104.277 46.107 104.837 46.3389 105.242 46.7446C105.645 47.1475 105.877 47.7068 105.877 48.2806C105.877 48.8515 105.645 49.4138 105.242 49.8166C105.193 49.8661 105.141 49.9131 105.087 49.9574C105.221 50.24 105.299 50.555 105.299 50.8886C105.299 52.089 104.325 53.0622 103.125 53.0622H101.676C100.476 53.0622 99.5023 52.089 99.5023 50.8886C99.5023 49.7218 100.422 48.7724 101.577 48.7202Z" fill="black"/>
<path d="M102.254 57.1197C102.828 57.1197 103.387 57.3515 103.793 57.7573C104.196 58.1601 104.427 58.7223 104.427 59.2932C104.427 59.8642 104.196 60.4264 103.793 60.8292C103.387 61.235 102.828 61.4668 102.254 61.4668C101.683 61.4668 101.124 61.235 100.718 60.8292C100.312 60.4264 100.08 59.8642 100.08 59.2932C100.08 58.7194 100.312 58.1601 100.718 57.7573C101.124 57.3515 101.683 57.1197 102.254 57.1197Z" fill="black"/>
<path d="M95.5892 44.3682C96.163 44.3682 96.7223 44.6 97.1281 45.0028C97.5309 45.4086 97.7627 45.9708 97.7627 46.5417C97.7627 47.1127 97.5309 47.6749 97.1281 48.0777C96.7223 48.4834 96.163 48.7153 95.5892 48.7153C95.0182 48.7153 94.4589 48.4834 94.0532 48.0777C93.6475 47.6749 93.4156 47.1127 93.4156 46.5417C93.4156 45.9708 93.6475 45.4086 94.0532 45.0028C94.4589 44.6 95.0182 44.3682 95.5892 44.3682Z" fill="black"/>
<path d="M113.47 56.482C113.067 56.0792 112.833 55.517 112.833 54.946C112.833 54.3722 113.067 53.8129 113.47 53.4101C113.876 53.0043 114.435 52.7725 115.006 52.7725C115.58 52.7725 116.139 53.0043 116.545 53.4101C116.948 53.8129 117.18 54.3751 117.18 54.946C117.18 55.517 116.948 56.0792 116.545 56.482C116.139 56.8878 115.58 57.1196 115.006 57.1196C114.435 57.1196 113.876 56.8878 113.47 56.482Z" fill="black"/>
<path d="M106.601 64.6546C107.175 64.6546 107.734 64.8864 108.14 65.2921C108.543 65.695 108.778 66.2543 108.778 66.8281C108.778 67.399 108.543 67.9613 108.14 68.3641C107.734 68.7698 107.175 69.0017 106.601 69.0017C106.03 69.0017 105.471 68.7698 105.065 68.3641C104.66 67.9613 104.428 67.399 104.428 66.8281C104.428 66.2543 104.66 65.695 105.065 65.2921C105.471 64.8864 106.03 64.6546 106.601 64.6546Z" fill="black"/>
<path d="M112.274 64.2606C112.892 63.2312 114.227 62.8973 115.256 63.5152C116.286 64.1328 116.619 65.4679 116.002 66.4973L115.132 67.9464C114.725 68.6257 114.005 69.0019 113.266 69.0019C112.886 69.0019 112.5 68.9019 112.15 68.6918C111.121 68.0742 110.787 66.739 111.405 65.7096L112.274 64.2606Z" fill="black"/>
<path d="M85.7421 50.9942C85.7404 50.9589 85.7369 50.9241 85.7369 50.8881C85.7369 49.6878 86.7101 48.7146 87.9104 48.7146H89.2146C90.415 48.7146 91.3881 49.6878 91.3881 50.8881C91.3881 52.0885 90.415 53.0617 89.2146 53.0617H88.9164C88.881 53.5839 88.6576 54.0841 88.2889 54.4531C87.8832 54.8588 87.3239 55.0907 86.7501 55.0907C86.1791 55.0907 85.6198 54.8588 85.2141 54.4531C84.8083 54.0502 84.5765 53.488 84.5765 52.9171C84.5765 52.3462 84.8083 51.7839 85.2141 51.3811C85.37 51.2252 85.5491 51.0956 85.7421 50.9942Z" fill="black"/>
<path d="M107.003 81.2974C107.472 81.6288 107.794 82.141 107.891 82.7066C107.988 83.2681 107.852 83.861 107.523 84.3271C107.193 84.7932 106.679 85.1184 106.117 85.2146C105.552 85.3116 104.961 85.1779 104.493 84.8466C104.027 84.5169 103.704 84.0046 103.607 83.4391C103.511 82.8776 103.644 82.283 103.973 81.8169C104.305 81.3484 104.819 81.0273 105.381 80.931C105.946 80.8341 106.537 80.9678 107.003 81.2974Z" fill="black"/>
<path d="M94.7753 69.4802C94.7794 69.4743 94.7829 69.4674 94.787 69.4615C95.1167 68.9954 95.6307 68.6702 96.1945 68.5756C96.7601 68.4787 97.3506 68.6124 97.8167 68.942C98.2852 69.2734 98.608 69.7856 98.7049 70.3512C98.8012 70.9127 98.6675 71.5032 98.3362 71.9717C98.0065 72.4378 97.4926 72.763 96.9311 72.8593C96.4613 72.9398 95.975 72.8589 95.5549 72.6399C95.5507 72.6458 95.5475 72.6524 95.5431 72.6585C95.2135 73.1247 94.6995 73.4498 94.138 73.5461C93.5725 73.643 92.9819 73.5094 92.5135 73.178C92.0473 72.8483 91.7246 72.3361 91.6276 71.7705C91.5306 71.205 91.6643 70.6145 91.994 70.1483C92.3237 69.6822 92.8376 69.3571 93.4015 69.2625C93.8709 69.182 94.3565 69.2628 94.7753 69.4802Z" fill="black"/>
<path d="M103.766 72.4527L105.033 73.1711C106.078 73.762 106.443 75.0899 105.851 76.1341C105.259 77.1784 103.932 77.5447 102.888 76.9524L101.621 76.234C101.557 76.1976 101.495 76.1585 101.436 76.1166C100.536 75.4797 100.247 74.2511 100.803 73.2712C101.395 72.2267 102.722 71.8603 103.766 72.4527Z" fill="black"/>
<path d="M88.2988 80.527C89.379 81.0489 89.8319 82.3493 89.3093 83.43L88.5418 85.017C88.0193 86.0975 86.7195 86.5502 85.6387 86.0275C85.5283 85.9743 85.4246 85.9126 85.3276 85.844C84.4758 85.2416 84.159 84.0946 84.6282 83.1244L85.3957 81.5374C85.9183 80.4567 87.218 80.0043 88.2988 80.527Z" fill="black"/>
<path d="M111.529 73.8628C112.103 73.8628 112.662 74.0947 113.068 74.5004C113.471 74.9032 113.703 75.4655 113.703 76.0364C113.703 76.6073 113.471 77.1695 113.068 77.5724C112.662 77.9781 112.103 78.2099 111.529 78.2099C110.958 78.2099 110.399 77.9781 109.993 77.5724C109.587 77.1695 109.356 76.6073 109.356 76.0364C109.356 75.4626 109.587 74.9032 109.993 74.5004C110.399 74.0947 110.958 73.8628 111.529 73.8628Z" fill="black"/>
<path d="M81.5478 69.6539L82.5621 68.9294C83.5388 68.2318 84.8965 68.4582 85.5941 69.4348C86.292 70.4118 86.0656 71.7692 85.0887 72.4668L84.0743 73.1913C83.6915 73.4649 83.2501 73.5962 82.8128 73.5962C82.1347 73.5962 81.4663 73.2797 81.0424 72.6859C80.3445 71.709 80.5708 70.3515 81.5478 69.6539Z" fill="black"/>
<path d="M91.0639 58.6639C91.5324 58.9953 91.8552 59.5076 91.9522 60.0731C92.0485 60.6346 91.9148 61.2251 91.5834 61.6936C91.2537 62.1597 90.7398 62.4849 90.1783 62.5812C89.6128 62.6781 89.0222 62.5444 88.5537 62.2131C88.0876 61.8834 87.7648 61.3712 87.6679 60.8056C87.5692 60.2424 87.7046 59.6495 88.0343 59.1834C88.3656 58.7149 88.8779 58.3922 89.4417 58.2976C90.0073 58.2006 90.5978 58.3343 91.0639 58.6639Z" fill="black"/>
<path fill-rule="evenodd" clip-rule="evenodd" d="M118.25 64.8935C118.25 75.6322 109.542 84.3407 98.7996 84.3428C88.057 84.3449 79.3496 75.64 79.3496 64.9013C79.3496 54.1625 88.057 45.4541 98.7996 45.452C109.542 45.4498 118.25 54.1548 118.25 64.8935ZM98.7996 91.4428C113.462 91.4399 125.35 79.5534 125.35 64.8921C125.35 50.2308 113.462 38.349 98.7996 38.352C84.1371 38.3549 72.2496 50.2414 72.2496 64.9027C72.2496 79.564 84.1371 91.4457 98.7996 91.4428Z" fill="black"/>
</svg>
