<svg width="128" height="128" viewBox="0 0 128 128" fill="none" xmlns="http://www.w3.org/2000/svg">
<path d="M32 46.5022C32 63.8992 46.103 78.0017 63.5 78.0011C80.897 78.0005 95 63.897 95 46.5C95 29.103 80.897 15.0005 63.5 15.0011C46.103 15.0017 32 29.1052 32 46.5022Z" fill="#808080"/>
<path fill-rule="evenodd" clip-rule="evenodd" d="M64 12.0012C82.7777 12.0005 98 27.2223 98 46C98 64.7777 82.7777 80.0005 64 80.0012C45.2223 80.0018 30 64.7801 30 46.0024C30 27.2247 45.2223 12.0018 64 12.0012ZM92.8097 46.0002C92.8097 30.089 79.9112 17.1909 64 17.1915C48.0888 17.192 35.1903 30.091 35.1903 46.0022C35.1903 61.9134 48.0888 74.8115 64 74.8109C79.9112 74.8104 92.8097 61.9114 92.8097 46.0002Z" fill="black"/>
<path d="M63 29C85.6437 29 104 47.3683 104 70C104 92.6317 85.6437 111 63 111C40.3563 111 22 92.6317 22 70C22 47.3683 40.3563 29 63 29Z" fill="url(#paint0_linear)"/>
<path d="M22 102.495C22 109.399 27.5964 114.996 34.5 114.998C41.4036 114.999 47 109.404 47 102.5C47 95.5964 41.4036 89.9989 34.5 89.9975C27.5964 89.9961 22 95.5914 22 102.495Z" fill="#808080"/>
<path fill-rule="evenodd" clip-rule="evenodd" d="M34.5 87.997C42.5081 87.9987 49 94.4919 49 102.5C49 110.508 42.5081 116.999 34.5 116.997C26.4919 116.995 20 110.502 20 102.494C20 94.4859 26.4919 87.9954 34.5 87.997ZM44.5694 102.499C44.5694 96.9379 40.0612 92.4287 34.5 92.4276C28.9388 92.4265 24.4306 96.9338 24.4306 102.495C24.4306 108.056 28.9388 112.565 34.5 112.566C40.0612 112.568 44.5694 108.06 44.5694 102.499Z" fill="black"/>
<path d="M80 102.495C80 109.399 85.5964 114.996 92.5 114.998C99.4036 114.999 105 109.404 105 102.5C105 95.5964 99.4036 89.9989 92.5 89.9975C85.5964 89.9961 80 95.5914 80 102.495Z" fill="#808080"/>
<path fill-rule="evenodd" clip-rule="evenodd" d="M92.5 87.997C100.508 87.9987 107 94.4919 107 102.5C107 110.508 100.508 116.999 92.5 116.997C84.4919 116.995 78 110.502 78 102.494C78 94.4859 84.4919 87.9954 92.5 87.997ZM102.569 102.499C102.569 96.9379 98.0612 92.4287 92.5 92.4276C86.9388 92.4265 82.4306 96.9338 82.4306 102.495C82.4306 108.056 86.9388 112.565 92.5 112.566C98.0612 112.568 102.569 108.06 102.569 102.499Z" fill="black"/>
<defs>
<linearGradient id="paint0_linear" x1="63.0494" y1="29.1961" x2="63.0436" y2="111.196" gradientUnits="userSpaceOnUse">
<stop stop-color="#754948"/>
<stop offset="1" stop-color="#EC918E"/>
</linearGradient>
</defs>
</svg>
