<svg width="129" height="129" viewBox="0 0 129 129" fill="none" xmlns="http://www.w3.org/2000/svg">
<path d="M32.7852 46.8733C32.7852 64.2703 46.8882 78.3728 64.2852 78.3722C81.6821 78.3716 95.7852 64.2681 95.7852 46.8711C95.7852 29.4741 81.6821 15.3716 64.2852 15.3722C46.8882 15.3728 32.7852 29.4763 32.7852 46.8733Z" fill="url(#paint0_linear)"/>
<path fill-rule="evenodd" clip-rule="evenodd" d="M64.7852 12.3723C83.5628 12.3716 98.7852 27.5934 98.7852 46.3711C98.7852 65.1488 83.5628 80.3716 64.7852 80.3723C46.0075 80.3729 30.7852 65.1511 30.7852 46.3735C30.7852 27.5958 46.0075 12.3729 64.7852 12.3723ZM93.5949 46.3713C93.5949 30.4601 80.6963 17.562 64.7852 17.5625C48.874 17.5631 35.9754 30.4621 35.9754 46.3733C35.9754 62.2845 48.874 75.1826 64.7852 75.182C80.6963 75.1815 93.5949 62.2825 93.5949 46.3713Z" fill="black"/>
<path d="M104.785 70.3711C104.785 93.0148 86.4168 111.371 63.7852 111.371C41.1535 111.371 22.7852 93.0148 22.7852 70.3711C22.7852 47.7274 41.1535 29.3711 63.7852 29.3711C86.4168 29.3711 104.785 47.7274 104.785 70.3711Z" fill="url(#paint1_linear)"/>
<path d="M22.7852 102.866C22.7852 109.77 28.3816 115.367 35.2852 115.369C42.1887 115.37 47.7852 109.775 47.7852 102.871C47.7852 95.9675 42.1887 90.37 35.2852 90.3686C28.3816 90.3672 22.7852 95.9625 22.7852 102.866Z" fill="url(#paint2_linear)"/>
<path fill-rule="evenodd" clip-rule="evenodd" d="M35.2852 88.3681C43.2933 88.3698 49.7852 94.863 49.7852 102.871C49.7852 110.879 43.2933 117.37 35.2852 117.368C27.277 117.366 20.7852 110.873 20.7852 102.865C20.7852 94.857 27.277 88.3665 35.2852 88.3681ZM45.3546 102.87C45.3546 97.309 40.8464 92.7998 35.2852 92.7987C29.724 92.7976 25.2157 97.3049 25.2157 102.866C25.2157 108.427 29.724 112.936 35.2852 112.938C40.8464 112.939 45.3546 108.431 45.3546 102.87Z" fill="black"/>
<path d="M80.7852 102.866C80.7852 109.77 86.3816 115.367 93.2852 115.369C100.189 115.37 105.785 109.775 105.785 102.871C105.785 95.9675 100.189 90.37 93.2852 90.3686C86.3816 90.3672 80.7852 95.9625 80.7852 102.866Z" fill="url(#paint3_linear)"/>
<path fill-rule="evenodd" clip-rule="evenodd" d="M93.2852 88.3681C101.293 88.3698 107.785 94.863 107.785 102.871C107.785 110.879 101.293 117.37 93.2852 117.368C85.277 117.366 78.7852 110.873 78.7852 102.865C78.7852 94.857 85.277 88.3665 93.2852 88.3681ZM103.355 102.87C103.355 97.309 98.8464 92.7998 93.2852 92.7987C87.724 92.7976 83.2157 97.3049 83.2157 102.866C83.2157 108.427 87.724 112.936 93.2852 112.938C98.8464 112.939 103.355 108.431 103.355 102.87Z" fill="black"/>
<defs>
<linearGradient id="paint0_linear" x1="95.7852" y1="46.8711" x2="32.7852" y2="46.8711" gradientUnits="userSpaceOnUse">
<stop stop-color="#FF8ED2"/>
<stop offset="1" stop-color="#FF43B4"/>
</linearGradient>
<linearGradient id="paint1_linear" x1="63.7852" y1="111.371" x2="63.7852" y2="29.3711" gradientUnits="userSpaceOnUse">
<stop stop-color="#FF8ED2"/>
<stop offset="1" stop-color="#FF43B4"/>
</linearGradient>
<linearGradient id="paint2_linear" x1="47.7852" y1="102.871" x2="22.7852" y2="102.871" gradientUnits="userSpaceOnUse">
<stop stop-color="#FF8ED2"/>
<stop offset="1" stop-color="#FF43B4"/>
</linearGradient>
<linearGradient id="paint3_linear" x1="105.785" y1="102.871" x2="80.7852" y2="102.871" gradientUnits="userSpaceOnUse">
<stop stop-color="#FF8ED2"/>
<stop offset="1" stop-color="#FF43B4"/>
</linearGradient>
</defs>
</svg>
