<svg width="129" height="143" viewBox="0 0 129 143" fill="none" xmlns="http://www.w3.org/2000/svg">
<path d="M32.1133 47.2063C32.1133 64.6033 46.2163 78.7058 63.6133 78.7052C81.0102 78.7046 95.1133 64.6011 95.1133 47.2041C95.1133 29.8071 81.0103 15.7046 63.6133 15.7052C46.2163 15.7058 32.1133 29.8093 32.1133 47.2063Z" fill="#42210C"/>
<path fill-rule="evenodd" clip-rule="evenodd" d="M64.1133 12.7053C82.891 12.7046 98.1133 27.9264 98.1133 46.7041C98.1133 65.4818 82.891 80.7046 64.1133 80.7053C45.3356 80.7059 30.1133 65.4842 30.1133 46.7065C30.1133 27.9288 45.3356 12.7059 64.1133 12.7053ZM92.923 46.7043C92.923 30.7931 80.0245 17.895 64.1133 17.8956C48.2021 17.8961 35.3035 30.7951 35.3035 46.7063C35.3035 62.6175 48.2021 75.5156 64.1133 75.515C80.0245 75.5145 92.923 62.6155 92.923 46.7043Z" fill="black"/>
<path d="M61.8226 31.0029C83.7531 31.0029 101.531 48.7927 101.531 70.7116C101.531 92.6304 83.7531 110.42 61.8226 110.42C39.8921 110.42 22.114 92.6304 22.114 70.7116C22.114 48.7927 39.8921 31.0029 61.8226 31.0029Z" fill="#663A1D"/>
<path d="M34.7337 92.4495C34.8761 92.7742 35.1608 92.4495 35.1608 92.1247C32.8832 85.9542 30.748 80.4332 30.748 73.6131C30.748 68.7417 32.5985 74.425 33.595 76.0489C35.3031 78.9717 36.869 81.8946 38.7195 84.8175C38.8618 84.9799 39.1465 84.8175 39.0042 84.6551C36.5843 79.6213 33.7373 74.5874 30.8903 69.8783C30.748 69.5536 30.3209 69.716 30.3209 70.0407C29.7515 77.6727 30.6056 86.1166 34.7337 92.4495Z" fill="#5E3114"/>
<path d="M29.7971 67.0839C29.749 67.4353 30.1613 67.3069 30.3309 67.0299C31.6095 60.5779 32.6705 54.7543 36.2307 48.9373C38.7738 44.7823 37.3853 50.5958 37.3875 52.501C37.3186 55.8857 37.1283 59.1961 37.1808 62.6551C37.2174 62.8679 37.545 62.8781 37.5084 62.6653C38.0722 57.1085 38.2718 51.3288 38.3018 45.8261C38.35 45.4748 37.901 45.3903 37.7314 45.6673C33.2616 51.8796 29.5821 59.5274 29.7971 67.0839Z" fill="#5E3114"/>
<path d="M44.8377 72.316C44.8377 72.6408 45.2648 72.6408 45.4071 72.316C46.6883 66.9574 46.5459 61.274 45.9765 55.753C47.5424 58.3511 48.6811 60.9492 49.9623 63.8721C50.1046 64.1969 50.5317 63.8721 50.3893 63.5474C50.247 63.385 50.1046 63.0602 49.9623 62.8978C50.247 62.7354 50.247 62.4107 49.9623 62.0859C49.8199 61.5988 49.6776 60.9492 49.3929 60.4621C49.1082 59.6502 48.8235 59.0007 48.3964 58.1888C47.5424 56.4025 46.5459 54.9411 45.4071 53.3173C45.1224 52.8301 44.553 53.3173 44.553 53.8044C45.5495 60.1373 45.2648 66.1455 44.8377 72.316Z" fill="#5E3114"/>
<path d="M86.5491 96.1858C86.4067 96.5106 86.122 96.1858 86.122 95.861C88.5419 89.8529 90.6772 84.1695 90.6772 77.3495C90.6772 72.478 88.8266 78.1614 87.8302 79.7852C86.122 82.7081 84.5562 85.6309 82.7057 88.5538C82.5633 88.7162 82.2786 88.5538 82.421 88.3914C84.8409 83.3576 87.6879 78.3237 90.5348 73.6147C90.6772 73.2899 91.1042 73.4523 91.1042 73.777C91.6736 81.409 90.8195 89.8529 86.5491 96.1858Z" fill="#5E3114"/>
<path d="M82.2703 83.1971C82.2703 83.3595 81.9856 83.3595 81.9856 83.1971C81.9856 80.599 82.2703 78.1633 82.2703 75.5652C82.2703 74.2661 82.4126 72.967 82.2703 71.668C82.2703 70.8561 82.555 68.7451 82.1279 71.0185C81.4162 75.2404 79.281 79.7871 77.2881 83.3595C77.1457 83.5219 76.861 83.3595 77.0034 83.1971C77.1457 82.8723 77.2881 82.5476 77.4304 82.3852C77.1457 82.2228 77.2881 81.8981 77.7151 81.4109C77.9998 80.7614 78.2845 80.1119 78.5692 79.6247C79.1386 78.488 79.5656 77.189 79.9927 75.8899C80.8468 73.6166 81.4162 71.3432 82.1279 69.0699C82.2703 68.7451 82.555 68.9075 82.555 69.0699C82.982 73.7789 83.1243 78.488 82.2703 83.1971Z" fill="#5E3114"/>
<path d="M69.2585 103.24C69.2585 103.402 68.9738 103.402 68.9738 103.24C68.9738 100.642 69.2585 98.2062 69.2585 95.6081C69.2585 94.3091 69.4009 93.01 69.2585 91.711C69.2585 90.899 69.5432 88.7881 69.1162 91.0614C68.4045 95.2834 66.2692 99.8301 64.2764 103.402C64.134 103.565 63.8493 103.402 63.9917 103.24C64.134 102.915 64.2764 102.591 64.4187 102.428C64.134 102.266 64.2764 101.941 64.7034 101.454C64.9881 100.804 65.2728 100.155 65.5575 99.6677C66.1269 98.531 66.5539 97.2319 66.981 95.9329C67.8351 93.6595 68.4045 91.3862 69.1162 89.1128C69.2585 88.7881 69.5432 88.9505 69.5432 89.1128C69.9703 93.8219 70.1126 98.531 69.2585 103.24Z" fill="#5E3114"/>
<path d="M68.4672 66.7921C68.3248 66.9545 68.6095 67.2793 68.7519 67.1169C71.0294 64.3564 72.7376 61.2711 74.0187 57.6987C74.1611 59.8097 74.0187 61.7583 73.8764 64.0316C73.8764 64.3564 74.1611 64.3564 74.1611 64.0316C74.1611 63.8692 74.1611 63.7068 74.1611 63.5445C74.3034 63.5445 74.4458 63.3821 74.4458 63.0573C74.5881 62.7326 74.5881 62.2454 74.5881 61.9206C74.5881 61.4335 74.7305 60.784 74.7305 60.2968C74.7305 58.9978 74.5881 57.6987 74.4458 56.3996C74.4458 56.0749 73.8764 56.0749 73.8764 56.3996C72.5953 60.1344 70.7447 63.3821 68.4672 66.7921Z" fill="#5E3114"/>
<path d="M87.2794 61.5578C87.2719 61.7736 87.6979 61.8449 87.7054 61.6291C87.7226 58.0504 87.0935 54.5804 85.8254 51.0033C87.2712 52.548 88.3938 54.1471 89.7219 55.9977C89.9274 56.2492 90.1478 56.0691 89.9424 55.8176C89.8396 55.6918 89.7369 55.5661 89.6341 55.4403C89.7444 55.3502 89.7519 55.1344 89.5464 54.8829C89.4512 54.5414 89.143 54.1641 88.9375 53.9126C88.6293 53.5354 88.3286 52.9423 88.0204 52.565C87.1985 51.559 86.2664 50.6431 85.3342 49.7271C85.1288 49.4756 84.6878 49.8359 84.8933 50.0874C86.2641 53.7902 86.8857 57.476 87.2794 61.5578Z" fill="#5E3114"/>
<path d="M61.0669 84.4928C61.0669 84.8175 60.6398 84.8175 60.4975 84.4928C59.2163 79.1341 59.3587 73.4508 59.9281 67.9298C58.3623 70.5279 57.2235 73.126 55.9423 76.0489C55.8 76.3736 55.3729 76.0489 55.5153 75.7241C55.6576 75.5617 55.8 75.237 55.9423 75.0746C55.6576 74.9122 55.6576 74.5874 55.9423 74.2627C56.0847 73.7755 56.227 73.126 56.5117 72.6389C56.7964 71.8269 57.0811 71.1774 57.5082 70.3655C58.3623 68.5793 59.3587 67.1179 60.4975 65.494C60.7822 65.0069 61.3516 65.494 61.3516 65.9812C60.2128 72.3141 60.4975 78.3222 61.0669 84.4928Z" fill="#5E3114"/>
<path d="M52.6648 96.8356C52.8071 96.998 53.0918 96.6732 52.9495 96.5109C49.8178 92.2889 47.3979 87.9046 45.9744 82.7084C45.1203 79.2984 45.1203 79.9479 46.8285 82.3836C47.9673 84.0074 49.2484 85.6313 50.5296 87.0927C50.6719 87.2551 50.8143 86.9303 50.6719 86.9303C48.5367 84.4946 46.6862 81.8965 45.1203 78.9736C44.978 78.8112 44.6933 78.9736 44.6933 79.136C45.8321 85.6313 48.3943 91.9642 52.6648 96.8356Z" fill="#5E3114"/>
<path d="M55.085 58.9995C54.9427 59.3242 55.3697 59.4866 55.5121 59.1618C57.932 54.2904 59.2131 48.9318 59.7825 43.4108C60.7789 46.3336 61.206 49.2565 61.7754 52.5042C61.7754 52.8289 62.3448 52.6666 62.3448 52.3418C62.3448 52.017 62.2024 51.8546 62.2024 51.5299C62.4871 51.3675 62.6295 51.0427 62.4871 50.718C62.4871 50.0684 62.3448 49.5813 62.3448 48.9318C62.2024 48.1199 62.0601 47.3079 61.9177 46.496C61.4907 44.5474 60.9213 42.7612 60.0672 40.975C59.7825 40.4879 59.2131 40.8127 59.2131 41.2998C58.6437 47.4703 56.9356 53.1537 55.085 58.9995Z" fill="#5E3114"/>
<path d="M73.928 47.3281C73.9687 47.5678 74.2745 47.5001 74.2338 47.2605C73.7867 43.5591 72.5039 40.0072 70.7523 36.6301C72.4231 37.9295 73.7678 39.4432 75.3162 41.0894C75.4384 41.2754 75.7035 40.9681 75.5813 40.7821C75.459 40.596 75.3164 40.5566 75.1942 40.3705C75.2961 40.1703 75.2555 39.9307 75.0517 39.7983C74.8073 39.4262 74.5424 39.2007 74.2979 38.8286C73.9108 38.417 73.5237 38.0055 73.1366 37.594C72.1586 36.6384 71.1602 35.8295 69.9987 35.1276C69.6523 34.9557 69.4483 35.356 69.6317 35.6351C71.6277 39.3843 72.7881 43.2829 73.928 47.3281Z" fill="#5E3114"/>
<path d="M22.1133 103.199C22.1133 110.103 27.7097 115.7 34.6133 115.702C41.5168 115.703 47.1133 110.108 47.1133 103.204C47.1133 96.3005 41.5168 90.703 34.6133 90.7016C27.7097 90.7002 22.1133 96.2955 22.1133 103.199Z" fill="#A0683E"/>
<path fill-rule="evenodd" clip-rule="evenodd" d="M34.6133 88.7011C42.6214 88.7028 49.1133 95.196 49.1133 103.204C49.1133 111.212 42.6214 117.703 34.6133 117.701C26.6052 117.7 20.1133 111.206 20.1133 103.198C20.1133 95.19 26.6052 88.6995 34.6133 88.7011ZM44.6827 103.203C44.6827 97.642 40.1745 93.1328 34.6133 93.1317C29.0521 93.1306 24.5438 97.6379 24.5438 103.199C24.5438 108.76 29.0521 113.269 34.6133 113.271C40.1745 113.272 44.6827 108.764 44.6827 103.203Z" fill="black"/>
<path d="M80.1133 103.199C80.1133 110.103 85.7097 115.7 92.6133 115.702C99.5168 115.703 105.113 110.108 105.113 103.204C105.113 96.3005 99.5168 90.703 92.6133 90.7016C85.7097 90.7002 80.1133 96.2955 80.1133 103.199Z" fill="#A0683E"/>
<path fill-rule="evenodd" clip-rule="evenodd" d="M92.6133 88.7011C100.621 88.7028 107.113 95.196 107.113 103.204C107.113 111.212 100.621 117.703 92.6133 117.701C84.6052 117.7 78.1133 111.206 78.1133 103.198C78.1133 95.19 84.6052 88.6995 92.6133 88.7011ZM102.683 103.203C102.683 97.642 98.1745 93.1328 92.6133 93.1317C87.0521 93.1306 82.5438 97.6379 82.5438 103.199C82.5438 108.76 87.0521 113.269 92.6133 113.271C98.1745 113.272 102.683 108.764 102.683 103.203Z" fill="black"/>
<path d="M72.6325 137.669C72.0138 137.543 71.568 137.516 71.0491 137.216C70.8494 137.562 70.3769 137.981 69.9311 137.954C58.7333 138.177 52.5838 122.866 51.8815 113.697C51.5963 110.996 51.5838 108.221 51.8442 105.373C51.9852 101.535 52.7716 97.3764 53.6312 93.491C56.7712 94.8427 59.9379 95.7486 63.1581 95.7629C65.8328 95.9235 68.4611 95.3654 70.6703 94.3348C71.3158 94.0157 72.0611 93.5236 72.7066 93.2044C73.0793 92.9584 73.3521 92.8853 73.7248 92.6392C73.0258 93.8499 72.2269 95.2336 71.601 96.7171C69.5771 100.622 67.6264 104.8 66.2212 108.831C63.4109 116.894 62.4104 124.619 66.0549 129.49C67.6311 131.553 70.0525 132.951 73.7649 133.711C76.2398 134.217 75.1074 138.176 72.6325 137.669Z" fill="#90542A"/>
<path d="M66.15 129.316C65.2853 128.816 64.3474 128.044 63.6823 127.199C60.4033 123.692 59.9059 118.562 59.7277 114.077C59.5567 107.983 60.8228 101.795 62.9537 96.1074C63.0536 95.9345 63.0536 95.9345 63.1534 95.7615C65.8281 95.922 68.4564 95.364 70.6656 94.3334C71.3111 94.0143 72.0565 93.5222 72.7019 93.203C72.2758 94.3406 71.8496 95.4782 71.5963 96.7157C69.5724 100.621 67.6217 104.798 66.2165 108.83C63.4062 116.893 62.4057 124.617 66.15 129.316Z" fill="#74421E"/>
<path d="M78.6722 134.008C78.5331 131.852 76.2847 130.554 74.4018 130.62C72.5188 130.686 69.9636 131.517 68.9651 133.247C68.3659 134.284 68.3855 135.449 68.8776 136.194C68.924 136.913 69.3162 137.831 70.181 138.33C71.8107 139.502 73.8203 138.817 75.3841 138.106C77.0477 137.221 78.7381 135.891 78.6722 134.008Z" fill="#804B24"/>
<path d="M72.6709 134.003C72.4248 133.63 72.0789 133.43 71.5333 133.577C70.5151 134.142 69.6895 135.971 71.0732 136.77C71.2461 136.87 71.4191 136.97 71.5189 136.797C71.7918 136.724 72.0646 136.651 72.2643 136.305C72.2643 136.305 72.2643 136.305 72.3641 136.132C73.1095 135.64 73.163 134.748 72.6709 134.003Z" fill="#5E3114"/>
<path d="M75.8007 132.581C75.8007 132.581 75.6277 132.481 75.5278 132.654C75.0821 132.628 74.8093 132.701 74.6095 133.047C74.31 133.565 74.2832 134.011 74.4294 134.557C74.3296 134.73 74.5025 134.83 74.4027 135.003C74.5489 135.548 74.9946 135.575 75.2674 135.502C75.2674 135.502 75.2674 135.502 75.4404 135.602C77.1504 135.436 77.6568 132.961 75.8007 132.581Z" fill="#5E3114"/>
<path d="M48.4384 76.9832C46.1672 76.9832 43.5932 77.3431 41.3977 78.1829C37.8395 79.5026 32.6915 81.4222 30.1174 87.4208C29.3604 89.2204 28.7547 91.3799 28.6033 93.8993C28.5276 94.6191 28.5276 95.219 28.5276 95.9388C28.1491 108.776 34.5084 116.694 39.8836 118.494C45.4859 120.413 46.4701 118.613 46.4701 118.613C46.4701 118.613 41.3977 117.654 36.2497 111.295C35.3412 110.215 34.6598 109.016 34.1299 107.696C32.9943 104.817 32.5401 101.577 32.6915 98.5782C32.9186 94.859 33.9785 91.3799 35.644 89.4603C36.0226 89.1004 36.4011 88.7405 36.7796 88.3806C40.2621 85.7412 45.4859 86.461 50.1797 86.8209C48.4384 85.3109 47.8323 81.1471 48.4384 76.9832Z" fill="#E6B87C"/>
<path d="M41.7006 83.3399C38.4452 84.7795 34.7355 86.5791 32.8429 91.378C31.1773 95.577 31.1773 101.336 32.9943 105.415C33.2971 106.135 33.6757 106.854 34.1299 107.574C32.9943 104.695 32.5401 101.456 32.6915 98.4563C32.9186 94.7372 33.9785 91.258 35.644 89.3385C36.0226 88.9786 36.4011 88.6186 36.7796 88.2587C40.2621 85.6194 45.4859 86.3392 50.1797 86.6991C48.3728 85.9833 48.2116 82.2835 48.2116 80.7694C44.8048 82.2835 44.5774 82.1402 41.7006 83.3399Z" fill="#F0CC98"/>
<path d="M78.0225 76.9862C80.2937 76.9862 82.8677 77.3461 85.0632 78.1859C88.6214 79.5056 93.7695 81.4251 96.3435 87.4237C97.1006 89.2233 97.7062 91.3828 97.8576 93.9022C97.9333 94.622 97.9333 95.2219 97.9333 95.9417C98.3119 108.779 91.9525 116.697 86.5773 118.496C80.9751 120.416 79.9909 118.616 79.9909 118.616C79.9909 118.616 85.0632 117.657 90.2113 111.298C91.1197 110.218 91.8011 109.019 92.331 107.699C93.4666 104.82 93.9209 101.58 93.7695 98.5811C93.5423 94.862 92.4825 91.3828 90.8169 89.4632C90.4384 89.1033 90.0598 88.7434 89.6813 88.3835C86.1988 85.7441 80.9751 86.4639 76.2813 86.8238C78.0225 85.3139 78.6286 81.15 78.0225 76.9862Z" fill="#E6B87C"/>
<path d="M84.7604 83.3418C88.0158 84.7815 91.7254 86.5811 93.6181 91.38C95.2836 95.579 95.2836 101.338 93.4666 105.417C93.1638 106.137 92.7853 106.856 92.331 107.576C93.4666 104.697 93.9209 101.458 93.7695 98.4583C93.5424 94.7392 92.4825 91.26 90.8169 89.3404C90.4384 88.9805 90.0598 88.6206 89.6813 88.2607C86.1988 85.6213 80.9751 86.3411 76.2813 86.701C78.0881 85.9852 78.2493 82.2854 78.2493 80.7713C81.6561 82.2854 81.8835 82.1421 84.7604 83.3418Z" fill="#F0CC98"/>
<path d="M21.5162 43.3902C22.655 46.4755 23.5091 49.5607 24.2208 52.4836C24.3632 54.1074 24.6479 55.7312 24.7902 57.3551C24.5055 56.5432 24.0785 55.8936 23.6514 55.2441C23.5091 54.9193 23.082 55.2441 23.2244 55.5689C24.7902 60.2779 25.6443 65.3118 26.7831 70.1833C27.7795 75.2171 28.9183 79.2767 30.0571 81.3876C33.7581 87.7205 39.1674 91.6177 45.0036 93.0792C56.5338 97.6259 70.6263 96.1644 81.8718 93.4039C87.5657 91.9425 93.1173 88.2077 96.5336 81.8748C97.6724 79.7638 98.6688 75.7043 99.6653 70.6704C100.804 65.7989 101.658 60.7651 103.224 56.056C103.366 55.5689 102.939 55.4065 102.797 55.7313C102.37 56.3808 102.085 57.1927 101.8 57.8422C101.943 56.2184 102.228 54.5946 102.37 52.9708C103.082 49.8855 103.936 46.9626 105.074 43.8774C105.217 43.5526 104.932 43.3902 104.79 43.715C104.078 45.014 103.509 46.3131 102.939 47.7745C103.651 40.6297 104.22 34.6216 104.22 32.0234C104.22 31.2115 103.366 30.7244 102.939 31.3739C101.658 33.4849 100.377 35.7582 99.0959 37.8692C98.8112 38.3564 97.8147 40.3049 96.8183 41.1169C96.8183 40.9545 96.8183 40.7921 96.8183 40.4673C96.5336 36.8949 96.3913 33.3225 96.2489 29.7501C96.2489 28.9382 95.3948 28.6134 95.1101 29.4253C92.9749 34.4592 90.8397 38.3564 90.555 38.6811C90.555 32.3482 88.2774 30.562 85.5728 25.3658C85.2881 24.7163 84.434 25.2034 84.5764 25.8529C85.1458 29.4253 83.2952 31.8611 82.0141 35.2711C81.8718 30.0749 81.3024 23.5796 79.0248 19.1953C78.7401 18.7081 78.1707 19.0329 78.0284 19.52C77.459 22.2805 77.0319 22.93 75.6085 25.3658C75.6085 25.2034 75.4661 25.2034 75.4661 25.041C75.3238 24.8786 75.1814 24.7163 75.0391 24.5539C74.4697 20.4943 74.0426 16.4348 73.9003 12.2128C73.9003 11.2385 72.7615 10.7514 72.3344 11.7257C71.338 13.999 70.0569 16.2724 68.9181 18.7081C66.9252 14.8109 67.3523 13.0247 64.363 9.45232C61.943 6.69182 60.9466 6.20468 59.8078 5.39276C59.5231 5.23039 59.2384 5.39276 59.2384 5.71753C58.5267 9.93947 57.5303 14.3238 57.1032 18.7081C55.9644 16.4348 54.6833 14.1614 53.6869 11.7257C53.2598 10.7514 52.121 11.2385 52.121 12.2128C51.9787 16.4348 51.694 20.4943 51.1246 24.5539C50.9822 24.7163 50.8399 24.8786 50.6976 25.041C50.6976 25.2034 50.5552 25.2034 50.5552 25.2034C49.1317 22.7677 49.1317 20.0072 47.9929 17.5714C47.7082 17.0843 47.1389 16.9219 46.9965 17.5714C45.7154 22.4429 44.4342 29.7501 44.2919 34.9463C43.0108 31.5363 40.0214 28.9382 40.1638 25.2034C40.1638 24.3915 39.3097 24.2291 39.1674 24.8786C36.8898 30.3996 35.6087 31.8611 35.751 38.194C35.4663 37.8692 34.3275 36.5701 33.6158 30.7244C33.4734 29.9125 32.6194 29.9125 32.477 30.562C31.4806 33.8096 29.7724 36.4078 29.63 39.9802C29.63 40.1426 29.63 40.3049 29.63 40.6297C28.776 39.8178 27.6372 39.493 27.3525 39.0059C26.0713 36.7325 24.7902 36.2454 23.5091 34.1344C23.082 33.4849 22.2279 33.972 22.2279 34.7839C22.3703 37.3821 22.9397 40.1426 23.6514 47.2874C23.082 45.8259 22.5126 44.5269 21.8009 43.2278C21.6586 42.903 21.5162 43.2278 21.5162 43.3902Z" fill="#663A1D"/>
<path d="M38.3158 66.7727C38.4581 67.0975 38.7428 66.7727 38.7428 66.4479C36.4652 60.2774 34.33 54.7564 34.33 47.9364C34.33 43.0649 36.1805 48.7483 37.177 50.3721C38.8852 53.295 40.451 56.2179 42.3015 59.1407C42.4439 59.3031 42.7286 59.1407 42.5862 58.9784C40.1663 53.9445 37.3193 48.9107 34.4724 44.2016C34.33 43.8768 33.903 44.0392 33.903 44.364C33.3336 51.9959 34.1877 60.4398 38.3158 66.7727Z" fill="#5E3114"/>
<path d="M36.4656 77.0046C36.6079 77.167 36.8926 76.8422 36.7503 76.6798C33.6186 72.4579 31.1987 68.0736 29.7752 62.8773C28.9211 59.4673 28.9211 60.1168 30.6293 62.5526C31.7681 64.1764 33.0492 65.8002 34.3304 67.2616C34.4727 67.424 34.615 67.0993 34.4727 67.0993C32.3375 64.6635 30.487 62.0654 28.9211 59.1425C28.7788 58.9801 28.4941 59.1425 28.4941 59.3049C29.6329 65.8002 32.1951 72.2955 36.4656 77.0046Z" fill="#5E3114"/>
<path d="M48.4237 46.6402C48.4237 46.965 48.8507 46.965 48.9931 46.6402C50.2742 41.2816 50.1319 35.5982 49.5625 30.0772C51.1283 32.6754 52.2671 35.2735 53.5482 38.1963C53.6906 38.5211 54.1176 38.1963 53.9753 37.8716C53.8329 37.7092 53.6906 37.3844 53.5482 37.222C53.8329 37.0597 53.8329 36.7349 53.5482 36.4101C53.4059 35.923 53.2635 35.2735 52.9788 34.7863C52.6941 33.9744 52.4094 33.3249 51.9824 32.513C51.1283 30.7268 50.1319 29.2653 48.9931 27.6415C48.7084 27.1544 48.139 27.6415 48.139 28.1287C49.1354 34.4616 48.8507 40.4697 48.4237 46.6402Z" fill="#5E3114"/>
<path d="M90.1311 70.509C89.9888 70.8338 89.7041 70.509 89.7041 70.1843C92.124 64.1761 94.2592 58.4928 94.2592 51.6727C94.2592 46.8012 92.4087 52.4846 91.4122 54.1084C89.7041 57.0313 88.1382 59.9542 86.2877 62.8771C86.1454 63.0395 85.8607 62.8771 86.003 62.7147C88.4229 57.6808 91.2699 52.647 94.1168 47.9379C94.2592 47.6131 94.6862 47.7755 94.6862 48.1003C95.2556 55.7323 94.4015 64.1761 90.1311 70.509Z" fill="#5E3114"/>
<path d="M88.9894 84.6374C88.8471 84.7998 88.5624 84.475 88.7048 84.3126C91.8364 80.0907 94.2563 75.7064 95.6798 70.5101C96.5339 67.1001 96.5339 67.7496 94.8257 70.1854C93.6869 71.8092 92.4058 73.433 91.1247 74.8945C90.9823 75.0568 90.84 74.7321 90.9823 74.7321C93.1175 72.2963 94.9681 69.6982 96.5339 66.7753C96.6762 66.613 96.9609 66.7753 96.9609 66.9377C95.8222 73.433 93.2599 79.7659 88.9894 84.6374Z" fill="#5E3114"/>
<path d="M70.2004 75.8669C70.058 76.0293 69.7733 75.7045 69.9157 75.5421C73.0473 71.3202 75.4673 66.9359 76.8907 61.7396C77.7448 58.3296 77.7448 58.9791 76.0367 61.4149C74.8979 63.0387 73.6167 64.6625 72.3356 66.1239C72.1933 66.2863 72.0509 65.9616 72.1933 65.9616C74.3285 63.5258 76.179 60.9277 77.7448 58.0048C77.8872 57.8425 78.1719 58.0048 78.1719 58.1672C77.0331 64.6625 74.4708 71.1578 70.2004 75.8669Z" fill="#5E3114"/>
<path d="M85.8523 57.5194C85.8523 57.6818 85.5676 57.6818 85.5676 57.5194C85.5676 54.9213 85.8523 52.4855 85.8523 49.8874C85.8523 48.5884 85.9946 47.2893 85.8523 45.9902C85.8523 45.1783 86.137 43.0674 85.7099 45.3407C84.9982 49.5627 82.863 54.1094 80.8701 57.6818C80.7278 57.8441 80.4431 57.6818 80.5854 57.5194C80.7278 57.1946 80.8701 56.8699 81.0125 56.7075C80.7278 56.5451 80.8701 56.2203 81.2972 55.7332C81.5819 55.0836 81.8665 54.4341 82.1512 53.947C82.7206 52.8103 83.1477 51.5112 83.5747 50.2122C84.4288 47.9388 84.9982 45.6655 85.7099 43.3921C85.8523 43.0674 86.137 43.2297 86.137 43.3921C86.564 48.1012 86.7064 52.8103 85.8523 57.5194Z" fill="#5E3114"/>
<path d="M73.4722 90.9711C73.3299 91.1335 73.1875 90.8088 73.3299 90.8088C74.7533 88.8602 76.1768 86.9116 77.6003 84.8006C78.312 83.8263 79.0238 82.852 79.5932 81.7154C80.0202 81.0658 81.3013 79.6044 79.8779 81.0658C77.1733 83.9887 73.0452 86.2621 69.4865 87.7235C69.2018 87.8859 69.0594 87.3987 69.3441 87.3987C69.6288 87.2363 69.9135 87.074 70.1982 87.074C70.0559 86.7492 70.3406 86.5868 70.9099 86.5868C71.4793 86.2621 72.0487 85.9373 72.4758 85.6125C73.4722 84.963 74.611 84.3135 75.6074 83.6639C77.458 82.3649 79.1661 81.0658 80.8743 79.6044C81.159 79.442 81.3013 79.7668 81.159 79.9291C78.8814 83.6639 76.6039 87.7235 73.4722 90.9711Z" fill="#5E3114"/>
<path d="M72.0492 41.1154C71.9068 41.2777 72.1915 41.6025 72.3339 41.4401C74.6115 38.6796 76.3196 35.5944 77.6008 32.0219C77.7431 34.1329 77.6008 36.0815 77.4584 38.3549C77.4584 38.6796 77.7431 38.6796 77.7431 38.3549C77.7431 38.1925 77.7431 38.0301 77.7431 37.8677C77.8855 37.8677 78.0278 37.7053 78.0278 37.3806C78.1702 37.0558 78.1702 36.5687 78.1702 36.2439C78.1702 35.7567 78.3125 35.1072 78.3125 34.6201C78.3125 33.321 78.1702 32.0219 78.0278 30.7229C78.0278 30.3981 77.4584 30.3981 77.4584 30.7229C76.1773 34.4577 74.3268 37.7053 72.0492 41.1154Z" fill="#5E3114"/>
<path d="M64.6528 58.817C64.6528 59.1417 64.2258 59.1417 64.0834 58.817C62.8023 53.4584 62.9446 47.775 63.514 42.254C61.9482 44.8521 60.8094 47.4502 59.5283 50.3731C59.3859 50.6979 58.9589 50.3731 59.1012 50.0483C59.2436 49.886 59.3859 49.5612 59.5283 49.3988C59.2436 49.2364 59.2436 48.9117 59.5283 48.5869C59.6706 48.0997 59.813 47.4502 60.0977 46.9631C60.3824 46.1512 60.6671 45.5016 61.0941 44.6897C61.9482 42.9035 62.9446 41.4421 64.0834 39.8183C64.3681 39.3311 64.9375 39.8183 64.9375 40.3054C63.7987 46.6383 64.0834 52.6465 64.6528 58.817Z" fill="#5E3114"/>
<path d="M56.2468 71.1589C56.3892 71.3213 56.6739 70.9965 56.5315 70.8341C53.3999 66.6122 50.9799 62.2278 49.5565 57.0316C48.7024 53.6216 48.7024 54.2711 50.4106 56.7069C51.5493 58.3307 52.8305 59.9545 54.1116 61.4159C54.2539 61.5783 54.3963 61.2536 54.254 61.2536C52.1187 58.8178 50.2682 56.2197 48.7024 53.2968C48.56 53.1344 48.2753 53.2968 48.2753 53.4592C49.4141 59.9545 51.9764 66.2874 56.2468 71.1589Z" fill="#5E3114"/>
<path d="M45.0046 86.422C45.0046 86.5844 45.2893 86.422 45.2893 86.2596C44.7199 83.8239 44.1506 81.3881 43.5812 78.79C43.2965 77.491 43.0118 76.3543 42.8694 75.0552C42.7271 74.2433 42.1577 72.2947 42.8694 74.4057C44.2929 78.3029 47.2822 82.3624 49.8445 85.2853C49.9868 85.4477 50.2715 85.1229 50.1292 84.9606C49.9868 84.6358 49.7021 84.4734 49.5598 84.1486C49.8445 83.9863 49.5598 83.6615 48.9904 83.3367C48.5633 82.8496 48.2787 82.2001 47.8516 81.7129C47.1399 80.5762 46.4281 79.6019 45.7164 78.4653C44.5776 76.5167 43.4388 74.4057 42.4424 72.2947C42.3 71.97 42.0153 72.1324 42.0153 72.4571C42.7271 77.1662 43.4388 81.8753 45.0046 86.422Z" fill="#5E3114"/>
<path d="M58.6671 33.3217C58.5247 33.6465 58.9518 33.8089 59.0941 33.4841C61.514 28.6126 62.7952 23.254 63.3645 17.733C64.361 20.6559 64.788 23.5788 65.3574 26.8264C65.3574 27.1512 65.9268 26.9888 65.9268 26.6641C65.9268 26.3393 65.7845 26.1769 65.7845 25.8521C66.0692 25.6898 66.2115 25.365 66.0692 25.0402C66.0692 24.3907 65.9268 23.9036 65.9268 23.254C65.7845 22.4421 65.6421 21.6302 65.4998 20.8183C65.0727 18.8697 64.5033 17.0835 63.6492 15.2973C63.3645 14.8102 62.7952 15.1349 62.7952 15.6221C62.2258 21.7926 60.5176 27.476 58.6671 33.3217Z" fill="#5E3114"/>
<path d="M40.5424 90.1638C39.5885 91.8719 41.5658 92.0664 41.7988 92.4405C45.1066 97.8814 50.921 101.905 56.0995 102.445C60.1369 104.521 64.9954 103.64 68.7258 102.374C73.6845 100.617 77.9942 97.2996 81.5135 92.454C82.3214 91.4188 81.4896 89.0465 80.2614 89.5364C79.8367 89.6321 79.2705 89.7596 78.8459 89.8553C81.6987 86.013 83.7568 81.2833 85.3488 75.8053C85.7365 74.2248 84.1882 73.2937 83.476 74.094C82.385 75.193 81.4355 76.2601 80.3901 77.5621C80.8498 72.3392 80.5559 67.0726 79.2756 61.3884C78.864 59.5613 77.0282 59.3349 76.8278 61.0865C76.3356 64.1837 75.5189 66.5007 74.5607 68.8497C74.4585 63.1133 72.2417 56.5734 69.4457 52.0838C68.7009 50.7584 67.5642 51.6544 67.5554 52.9362C67.2787 58.9712 65.2751 62.6221 63.1256 66.9458C62.3113 62.0098 60.7435 57.0303 60.025 51.8594C59.8464 50.4064 58.5267 50.4904 58.0977 51.2269C55.761 55.3795 54.1276 60.0136 52.9145 65.193C52.6815 64.8188 52.3526 64.6796 52.0238 64.5403C51.8409 63.7283 51.6123 62.7133 51.5709 61.8693C51.4425 59.9785 49.7983 59.2823 49.0361 60.5205C46.6492 65.111 45.2489 70.1192 44.7391 75.7801C44.2274 74.8288 43.7614 74.0805 43.3455 72.8944C42.9296 71.7082 41.8473 71.5253 41.2767 72.2938C37.6202 76.5303 37.6636 83.9864 40.5424 90.1638Z" fill="#A0683E"/>
<path d="M67.8888 85.0165C67.179 78.5638 67.2597 73.6395 69.8839 68.7823C69.9798 68.5474 69.7925 68.3762 69.6509 68.4081C66.9396 72.2185 65.7591 79.5236 67.8888 85.0165Z" fill="#804B24"/>
<path d="M75.8138 78.3807C78.1875 75.7129 79.1633 70.8004 78.2988 66.3023C78.2531 66.0993 78.1116 66.1312 78.1573 66.3342C78.314 70.9917 77.6758 74.7617 75.6265 78.2096C75.485 78.2415 75.6722 78.4126 75.8138 78.3807Z" fill="#804B24"/>
<path d="M62.4393 85.6597C62.5808 85.6278 62.7224 85.5959 62.5351 85.4248C60.9498 83.0088 59.1728 81.0627 58.0623 78.1132C56.7644 74.9926 56.3159 71.6807 56.1505 68.305C56.1048 68.102 55.7759 67.9627 55.8217 68.1657C55.1704 73.8585 57.7442 83.3043 62.4393 85.6597Z" fill="#804B24"/>
<path d="M60.871 93.2657C61.0126 93.2338 60.9668 93.0308 60.8253 93.0627C59.0396 92.3984 57.4869 92.1082 55.7056 90.8029C53.9243 89.4977 52.4761 87.6908 51.2197 85.4141C51.0324 85.243 50.795 85.5097 50.8407 85.7128C52.696 89.9877 57.6567 94.8429 60.871 93.2657Z" fill="#804B24"/>
<path d="M55.0298 100.34C56.6238 101.474 58.464 101.059 59.4179 99.3514C59.5137 99.1165 59.3722 99.1484 59.2306 99.1802C57.9065 99.9051 56.5869 99.989 55.0799 99.9019C54.8926 99.7307 54.8425 100.169 55.0298 100.34Z" fill="#804B24"/>
<path d="M75.9385 94.7772C76.0343 94.5423 75.8013 94.1682 75.6597 94.2001C73.2534 94.7421 71.0844 95.0173 68.6454 93.4336C70.7468 96.1599 74.0852 97.1144 75.9385 94.7772Z" fill="#804B24"/>
<path d="M71.1886 86.8887C75.263 90.4505 80.5047 88.6299 81.3477 82.4674C81.3019 82.2644 81.1147 82.0932 81.1604 82.2963C79.1023 87.026 75.6049 88.667 71.3345 86.2159C71.0057 86.0767 70.9556 86.5146 71.1886 86.8887Z" fill="#804B24"/>
<path d="M47.1178 85.5505C47.1847 85.8475 47.4954 85.7775 47.4285 85.4805C47.3441 82.6905 47.1562 79.9239 47.5529 77.3377C47.9162 74.603 48.861 72.5176 49.6019 70.0099C49.672 69.8381 49.535 69.7129 49.4315 69.7362C46.5494 72.8822 45.6363 80.4223 47.1178 85.5505Z" fill="#804B24"/>
</svg>
