<svg width="129" height="129" viewBox="0 0 129 129" fill="none" xmlns="http://www.w3.org/2000/svg">
<path d="M32.3867 47.3928C32.3867 64.7898 46.4897 78.8923 63.8867 78.8917C81.2837 78.8911 95.3867 64.7876 95.3867 47.3906C95.3867 29.9937 81.2837 15.8911 63.8867 15.8917C46.4897 15.8923 32.3867 29.9959 32.3867 47.3928Z" fill="#1B2F55"/>
<path fill-rule="evenodd" clip-rule="evenodd" d="M64.3867 12.8918C83.1644 12.8912 98.3867 28.1129 98.3867 46.8906C98.3867 65.6683 83.1644 80.8912 64.3867 80.8918C45.609 80.8925 30.3867 65.6707 30.3867 46.893C30.3867 28.1153 45.609 12.8925 64.3867 12.8918ZM93.1965 46.8908C93.1965 30.9796 80.2979 18.0815 64.3867 18.0821C48.4755 18.0826 35.577 30.9816 35.577 46.8928C35.577 62.804 48.4755 75.7021 64.3867 75.7015C80.2979 75.701 93.1964 62.802 93.1965 46.8908Z" fill="black"/>
<mask id="mask0" mask-type="alpha" maskUnits="userSpaceOnUse" x="22" y="29" width="83" height="83">
<path d="M22.3867 70.3906C22.3867 47.747 40.755 29.3906 63.3867 29.3906C86.0184 29.3906 104.387 47.747 104.387 70.3906C104.387 93.0343 86.0184 111.391 63.3867 111.391C40.755 111.391 22.3867 93.0343 22.3867 70.3906Z" fill="url(#paint0_linear)"/>
</mask>
<g mask="url(#mask0)">
<path d="M35.0808 70.2134L35.0643 70.2437L35.0521 70.2761C29.9305 83.8295 32.4414 96.4465 39.904 108.264C40.0103 108.438 40.1197 108.637 40.2414 108.857C40.3066 108.976 40.3753 109.1 40.449 109.231C40.6525 109.592 40.8847 109.983 41.143 110.317C41.3951 110.644 41.7102 110.968 42.0964 111.137C42.5227 111.324 42.9893 111.3 43.4374 111.009L43.438 111.008C43.9056 110.703 44.1594 110.291 44.1752 109.805C44.1896 109.365 44.0028 108.945 43.7936 108.598C43.5793 108.242 43.2989 107.894 43.0464 107.591C42.9986 107.533 42.9522 107.478 42.9073 107.424C42.7036 107.181 42.531 106.975 42.406 106.793C37.0414 98.9286 34.6101 90.4104 35.4015 80.9139L35.4022 80.9054L35.4026 80.8969C35.5832 77.2248 36.4192 73.8228 38.3662 70.7254C38.4079 70.659 38.4454 70.5884 38.4772 70.5142L38.5181 70.4187L38.5591 70.3232C38.9119 69.4999 38.4693 68.5529 37.6114 68.2956L37.5797 68.2861C36.922 68.0888 36.221 68.3628 35.8578 68.9322L35.8263 68.9815C35.5807 69.3666 35.3189 69.7769 35.0808 70.2134Z" fill="#026794" stroke="#026794"/>
<path d="M45.1885 60.0243C45.3528 60.1847 45.5852 60.3609 45.8473 60.4649C46.1036 60.5667 46.4913 60.6345 46.841 60.3904C50.7898 57.6342 55.1239 55.8891 59.8539 54.8504C60.2085 54.7785 60.616 54.5925 60.943 54.4016C61.1116 54.3031 61.2729 54.1952 61.4079 54.0869C61.5296 53.9894 61.6769 53.855 61.7654 53.697C61.8902 53.4741 61.8408 53.2506 61.8264 53.1853L61.8263 53.185C61.7504 52.8417 61.5929 52.5605 61.3563 52.357C61.1233 52.1567 60.8497 52.0626 60.5908 52.0271C60.0944 51.9592 59.5724 52.0954 59.2166 52.2242C55.1948 53.5648 51.2339 54.9654 47.2785 56.365C47.1308 56.4172 46.9922 56.4923 46.8677 56.5875C46.2554 57.0558 45.6404 57.527 45.0249 58.0118C44.6253 58.3265 44.6061 58.7995 44.6834 59.134C44.7613 59.4715 44.956 59.7976 45.1885 60.0243Z" fill="#026794" stroke="#026794"/>
<path d="M45.4157 60.8152C45.699 60.5954 45.8869 60.2273 45.7183 59.9108C45.4764 59.4568 45.0105 59.339 44.4638 59.3422C44.2603 59.3434 44.0662 59.4232 43.9089 59.5523C41.1635 61.8046 38.9004 64.4444 37.204 67.5986C36.9237 68.1198 37.2049 68.7574 37.7718 68.9274C38.2172 69.061 38.6927 68.8558 38.9162 68.448C40.5732 65.4248 42.7538 62.8805 45.4157 60.8152Z" fill="#1297C5"/>
<path d="M97.2306 101.128C97.1999 101.149 97.2095 101.182 97.2357 101.156C97.2676 101.124 97.2953 101.092 97.3211 101.062C97.3579 101.018 97.3622 101.025 97.3182 101.062C97.2891 101.086 97.2602 101.108 97.2306 101.128Z" fill="#178BBA"/>
<path d="M94.8434 47.5877C95.6915 48.7286 96.5379 49.8674 97.3751 51.0047C97.6748 51.484 97.9886 51.9772 98.3015 52.4689L98.3227 52.5022C98.6323 52.9888 98.9408 53.4736 99.2357 53.9446C99.2765 54.0098 99.322 54.0713 99.3712 54.1287C107.36 63.4361 108.235 78.3989 101.353 91.7385C101.282 91.8735 101.21 92.0075 101.139 92.1402C100.764 92.8436 100.408 93.5096 100.206 94.0719C100.086 94.4097 100.001 94.7607 100.021 95.0954C100.042 95.4531 100.185 95.7851 100.49 96.0345C100.814 96.2986 101.199 96.3046 101.507 96.1959C101.803 96.0913 102.056 95.8757 102.222 95.6224C106.914 88.4432 109.633 79.8647 109.633 70.6378C109.633 53.514 100.283 38.5881 86.4059 30.624C85.8265 30.2915 85.1869 30.3943 84.7692 30.7691C84.3487 31.1465 84.1823 31.7745 84.4741 32.3846C85.3513 34.2194 86.4519 35.9617 87.6376 37.6307C89.9294 40.9765 92.393 44.291 94.8434 47.5877Z" fill="#1D3767" stroke="#1D3767"/>
<path d="M17.882 65.5268L18.8686 65.6829C19.2924 63.6246 19.8976 61.5627 20.6253 59.5574C23.8762 53.3657 27.483 47.5659 32.237 42.4434C40.9956 34.1153 51.0326 30.1307 63.1163 32.6939C63.2212 32.7162 63.3218 32.7251 63.408 32.7291C63.5833 32.7371 63.732 32.7676 63.9456 32.8114C63.9861 32.8197 64.029 32.8285 64.0748 32.8377C64.5989 32.9778 65.1233 33.2834 65.6938 33.667C65.8448 33.7686 66.001 33.8771 66.1607 33.9881C66.5831 34.2816 67.031 34.5928 67.4772 34.8403C68.1049 35.1883 68.8063 35.4582 69.5808 35.4225C70.3671 35.3863 71.1533 35.0394 71.9554 34.2999C72.4289 33.8633 72.4987 33.1924 72.2763 32.6641C72.1932 32.4667 72.1095 32.2612 72.0245 32.0526C71.8642 31.6593 71.6994 31.2551 71.5259 30.8729C71.5127 30.8437 71.5009 30.8104 71.4907 30.7727C71.4518 30.6287 71.4055 30.4855 71.338 30.3425L70.8859 30.556L71.338 30.3424C71.2793 30.2184 71.2509 30.1472 71.2396 30.0857C70.9995 28.7714 70.7983 27.4967 70.6362 26.2618C70.549 25.5984 70.0328 25.0549 69.3499 24.9693C67.4684 24.7332 65.5483 24.6369 63.633 24.6369C39.9469 24.6369 20.4376 42.526 17.882 65.5268Z" fill="#1D3767" stroke="#1D3767"/>
<path d="M84.7275 107.224L84.7274 107.224L84.7152 107.229C71.2374 112.693 58.2364 108.873 50.3592 97.2388L50.3585 97.2378C47.9927 93.7621 48.1307 88.7792 50.0817 84.1814C52.0288 79.5929 55.7303 75.5213 60.2864 73.8832C60.7029 73.7356 61.2541 73.6596 61.898 73.5801C61.9376 73.5752 61.9775 73.5703 62.0177 73.5654C62.6054 73.4932 63.2529 73.4137 63.8275 73.2545C64.4385 73.0853 65.0575 72.8031 65.4494 72.2553C65.8545 71.689 65.9427 70.9467 65.7215 70.0277L65.7204 70.0234C65.52 69.2215 65.0885 68.6713 64.4932 68.3362C63.9196 68.0133 63.2376 67.9148 62.5641 67.9107C61.887 67.9066 61.1663 67.9986 60.4895 68.098C60.3406 68.1199 60.1943 68.1421 60.0509 68.1638C59.5276 68.243 59.0414 68.3166 58.599 68.3515L58.599 68.3514L58.5869 68.3526C57.648 68.4497 56.754 68.7205 55.8932 69.0264C55.5647 69.1432 55.2472 69.2625 54.9332 69.3805C54.4025 69.5799 53.8818 69.7756 53.3348 69.9487C53.3088 69.9569 53.2777 69.9638 53.2409 69.9686C51.0563 70.2557 49.3931 71.4789 48.0758 73.0849C48.0548 73.1105 48.0309 73.135 48.0061 73.1563C41.1401 79.0696 41.3764 86.6954 42.8571 94.4074C44.33 102.079 47.7923 108.649 52.0307 114.815C52.2385 115.118 52.5514 115.334 52.9109 115.419C56.3497 116.232 59.9012 116.639 63.5091 116.639C65.4887 116.639 67.4627 116.476 69.3766 116.253C69.5579 116.232 69.7595 116.115 69.8439 115.909C73.6874 115.059 76.7584 114.363 79.7749 113.666L79.8077 113.659L79.8391 113.647C82.6259 112.594 85.2264 111.296 87.7613 109.754C87.9333 109.65 88.0418 109.467 88.0532 109.268C88.1303 108.486 88.1049 107.883 87.949 107.446C87.8675 107.217 87.7439 107.016 87.5647 106.864C87.3831 106.709 87.1743 106.631 86.9657 106.603C86.5775 106.551 86.1627 106.671 85.8165 106.795C85.6337 106.86 85.4462 106.936 85.2655 107.01L85.2203 107.028C85.0524 107.097 84.8897 107.163 84.7275 107.224Z" fill="#1D3767" stroke="#1D3767"/>
<path d="M80.8358 30.4395C81.527 30.4395 81.6733 30.0156 81.7202 29.5073C81.757 29.1085 81.5099 28.732 81.1402 28.578C80.916 28.4845 80.6918 28.3911 80.4675 28.2977C80.0725 28.1331 79.6556 28.476 79.726 28.8981C79.7876 29.5146 80.4042 30.4395 80.8358 30.4395Z" fill="#076492"/>
<path d="M97.8451 71.131L97.8451 71.1414L97.8455 71.1518C98.151 78.483 96.8644 85.2108 91.2853 90.3699L91.2665 90.3873L91.2495 90.4066C87.6991 94.4384 83.2437 96.6135 78.0255 97.645L78.0244 97.6452C77.1002 97.8301 76.1645 98.0328 75.2334 98.2345C74.5337 98.386 73.8366 98.537 73.149 98.6794C72.5382 98.806 72.0693 99.3079 72.0028 99.9382C71.9142 100.778 72.5712 101.552 73.454 101.517C79.7553 101.272 85.1926 98.3865 90.4568 95.5524C90.5667 95.4933 90.6696 95.42 90.762 95.3346C97.6412 88.9734 101.254 81.2164 100.756 71.663C100.754 71.6117 100.752 71.5598 100.75 71.5074C100.731 71.0265 100.711 70.5054 100.629 70.0093C100.537 69.4515 100.361 68.8849 99.9922 68.3879C99.8204 68.1564 99.5881 68.0001 99.3189 67.9488C99.0552 67.8985 98.8017 67.9574 98.5934 68.0715C98.185 68.2954 97.8952 68.7564 97.8808 69.2837C97.8792 69.3401 97.8776 69.3965 97.8761 69.4531C97.8607 70.0069 97.8451 70.5687 97.8451 71.131Z" fill="#026794" stroke="#026794"/>
<path d="M70.9476 30.904C70.9633 30.9645 70.9839 31.0236 71.0098 31.0805C71.2724 31.6591 71.5054 32.2672 71.7546 32.8592C71.9095 33.227 71.849 33.6628 71.5556 33.9333C68.6063 36.6527 66.5897 32.9965 64.1271 32.3515C63.8188 32.2898 63.5722 32.2898 63.2639 32.2282C50.9331 29.577 40.6985 33.6462 31.8203 42.0928C27.0113 47.2718 23.3737 53.1289 20.106 59.356C19.3758 61.364 18.7657 63.4321 18.2758 65.4417C18.2628 65.4948 18.2544 65.5488 18.2503 65.6033C18.1291 67.2426 18.0098 68.9407 18.0098 70.6387C18.0098 80.1431 20.8914 88.917 25.8644 96.2029C26.5037 97.1396 27.8076 96.3744 27.4464 95.2994C25.9477 90.8391 24.9319 86.2226 24.5451 81.3665C24.2985 73.4748 25.285 65.8297 29.4158 58.8628C30.6489 57.2598 31.7586 55.5334 33.1767 54.0537C34.447 52.7257 35.0143 53.2363 34.8786 54.6738C34.8598 54.873 34.7677 55.0581 34.6339 55.2067C27.9341 62.6495 26.2263 71.6969 26.2099 81.2879C26.2097 81.3808 26.2228 81.4734 26.2478 81.563C26.3457 81.9149 26.4437 82.2978 26.5417 82.6498C26.5666 82.7393 26.5793 82.8318 26.5801 82.9247C26.5825 83.1931 26.5988 83.439 26.7102 83.6785C26.8007 83.8731 26.8941 84.0722 26.9081 84.2864C27.3941 91.7365 30.0409 98.3692 33.5236 104.703C33.5795 104.805 33.6529 104.896 33.7405 104.972C38.4843 109.092 44.0225 112.225 50.1509 114.128C51.0336 114.402 51.7302 113.409 51.2241 112.636C47.6017 107.101 44.7158 101.163 43.4113 94.3139C41.9368 86.6345 41.7479 79.2612 48.3956 73.536C48.4423 73.4957 48.4864 73.4505 48.5255 73.4027C49.7883 71.8611 51.2881 70.7322 53.3623 70.4657C53.4276 70.4573 53.4924 70.4437 53.5549 70.4232C55.2499 69.8655 56.946 68.9718 58.7015 68.8507C61.0444 68.6658 64.6203 67.4327 65.2985 70.1455C66.1616 73.4748 62.0925 72.7349 60.1812 73.4131C50.8098 76.8041 45.0759 90.1831 50.0083 97.5199C57.9616 109.358 71.2173 113.242 84.9045 107.693C86.3842 107.076 87.8639 106.09 87.5556 109.173C87.5556 109.199 87.5852 109.216 87.608 109.202C91.1532 106.995 94.3942 104.302 97.2107 101.185C97.2202 101.174 97.2158 101.157 97.2017 101.158C97.182 101.159 97.1686 101.135 97.1842 101.123C97.3018 101.033 97.4036 100.943 97.5376 100.853C97.5415 100.851 97.5452 100.847 97.5485 100.844C98.6436 99.6531 99.6651 98.3888 100.613 97.0509C101.017 96.4803 100.5 95.6012 100.538 94.9029C100.577 94.2079 101.176 93.1887 101.798 91.9094C108.751 78.3727 107.844 63.2394 99.7504 53.741C99.7179 53.7029 99.6882 53.6626 99.6617 53.6201C99.0558 52.6523 98.3935 51.628 97.7902 50.6628C94.5225 46.2237 91.1932 41.8462 87.9872 37.3455C86.3481 35.0624 84.9313 32.7237 84.0535 30.2767C83.9639 30.0271 83.7849 29.8183 83.5466 29.702C83.3927 29.6269 83.2407 29.5537 83.0894 29.4811C82.4515 29.1752 81.9909 29.7828 81.4501 30.239C81.3176 30.3507 81.1229 30.4233 80.8353 30.4402C80.4654 30.4402 79.7872 29.5154 79.6639 28.8989C79.6368 28.7633 79.6097 28.6277 79.5826 28.4869C79.5144 28.1327 79.2695 27.8355 78.9294 27.7153C77.6489 27.2623 76.3227 26.8397 74.9656 26.492C74.177 26.29 73.516 27.103 73.7956 27.8676C74.6861 30.303 75.3891 32.8399 77.3102 34.806C77.3579 34.8548 77.4016 34.9081 77.439 34.9652C78.715 36.9095 79.9909 38.8538 81.2669 40.7981C83.0226 43.0381 84.7783 45.2782 86.5924 47.5182C86.6587 47.6 86.7117 47.6918 86.7494 47.7901C88.1402 51.4142 89.5887 55.0384 90.9787 58.6625C90.9984 58.7137 91.0139 58.7668 91.0247 58.8206C92.1626 64.4669 91.5514 69.5705 86.6525 73.3639C86.5579 73.4371 86.4488 73.4921 86.3343 73.5269C83.5185 74.3823 80.7527 75.6075 77.6402 75.3311C77.5921 75.3269 77.5434 75.3256 77.4951 75.328C73.7584 75.5078 70.0221 75.3896 66.3466 75.941C60.7361 76.7425 57.0985 80.3184 54.9406 85.4357C54.5198 86.4175 54.3118 87.5766 53.3754 88.0527C52.8246 88.3327 52.3362 87.7175 52.4857 87.1179C54.7651 77.9727 61.7195 73.5389 73.6218 73.5981C74.8689 73.5981 76.1733 73.6553 77.4247 73.7146C77.5195 73.7191 77.6145 73.7101 77.7069 73.688C79.4515 73.2706 81.2516 72.9087 82.9932 72.4883C90.475 70.4032 89.7218 64.5972 89.1675 58.8927C89.1616 58.8317 89.1501 58.7715 89.1332 58.7126C87.8509 54.2673 86.3181 49.8877 83.0488 46.4059C83.012 46.3667 82.978 46.3247 82.9478 46.2802C81.9712 44.8424 80.9946 43.3525 80.018 41.9105C79.9084 41.7487 79.7485 41.6278 79.5631 41.566C79.388 41.5076 79.2354 41.3963 79.126 41.2477C77.8464 39.5089 76.5168 37.7679 75.2396 35.9734C75.1888 35.902 75.148 35.8242 75.1166 35.7424C73.9309 32.6561 71.3071 29.9285 71.3604 26.4689C71.366 26.1065 71.1136 25.777 70.7574 25.7106C70.3345 25.6318 69.9721 25.9829 70.0286 26.4093C70.1811 27.5604 70.3671 28.7449 70.5865 29.9628C70.6343 30.2287 70.806 30.4674 70.8943 30.7227C70.9144 30.7808 70.9315 30.8419 70.9476 30.904ZM90.0014 81.5351C90.8741 81.7016 91.8912 82.3635 92.4114 81.6433C92.6888 81.2591 92.9663 80.875 93.2438 80.4908C93.3536 80.3386 93.4143 80.1553 93.4451 79.9702C93.4741 79.7963 93.526 79.6231 93.6093 79.4677C93.6623 79.369 93.7125 79.2788 93.7827 79.2086C95.2007 77.7906 94.1526 73.7214 95.694 74.4613C97.6669 75.4477 95.7556 78.7154 95.2007 80.9966C94.0025 85.9094 90.3009 89.0173 86.9245 92.3572C86.736 92.5437 86.4817 92.6507 86.2168 92.6397C86.1698 92.6377 86.1228 92.6356 86.0759 92.6332C85.4829 92.604 85.0004 92.0604 85.2285 91.5122C85.4858 90.8942 85.921 90.3803 86.5692 89.8131C87.7764 88.7452 89.4382 87.957 90.0799 86.4215C90.3842 85.6933 89.5063 85.2587 88.8558 85.7057C84.5362 88.6739 79.7957 90.4183 74.3734 90.0689C74.2841 90.0631 74.1936 90.0686 74.1059 90.0864C71.3793 90.6406 68.9874 91.4233 69.605 94.5484C69.7238 95.1497 69.3504 95.8389 68.7697 95.6428C67.8727 95.3398 67.6876 94.2989 67.6413 93.3274C67.4594 90.8405 69.1273 89.6664 71.1775 88.8659C71.2447 88.8396 71.3149 88.8213 71.3863 88.8106C73.7883 88.4503 76.1911 88.09 78.6517 87.7297C78.7098 87.7212 78.7692 87.7179 78.8279 87.7193C82.7913 87.811 85.7855 85.8454 88.1722 82.9079C88.9401 81.9249 89.5397 81.447 90.0014 81.5351ZM64.4677 93.7027C64.4458 93.8576 64.4621 94.0223 64.5183 94.1683C65.8957 97.7471 68.9638 98.7909 72.3981 99.3418C72.5141 99.3604 72.6326 99.3578 72.7477 99.3346C74.5393 98.9726 76.3309 98.5564 78.1226 98.1981C83.4248 97.15 88.0489 94.8688 91.6248 90.7996C97.3586 85.4357 98.5917 78.5921 98.3451 71.1936C98.3095 70.5532 98.315 69.9127 98.3379 69.2723C98.3624 68.5838 99.1098 68.1423 99.5324 68.6864C100.175 69.5134 100.168 70.6467 100.256 71.7485C100.809 81.1382 97.207 88.7563 90.4243 95.0286C90.3621 95.0861 90.2922 95.1356 90.2174 95.1754C84.5836 98.1763 79.0033 101.158 72.3887 101.158C68.3667 100.731 64.6458 99.7622 63.2504 95.3342C63.218 95.2315 63.2041 95.1222 63.2077 95.0146C63.2631 93.3472 63.3186 91.6327 63.3741 89.9611C63.3825 89.7076 63.487 89.4667 63.6664 89.2874C64.7437 88.2104 65.8209 87.137 66.8982 86.1082C67.0215 85.9905 67.1732 85.9068 67.3383 85.8642C69.6143 85.2777 71.9416 84.64 74.216 84.0551C74.3126 84.0302 74.4123 84.0201 74.5119 84.0246C75.7566 84.0797 77.0012 84.0888 78.2459 84.3259C78.4313 84.363 78.6056 84.4614 78.7737 84.5944C79.3569 85.0554 79.1175 86.1126 78.4374 86.4127C78.392 86.4327 78.3464 86.4525 78.3006 86.472C78.1835 86.5217 78.0576 86.5456 77.9304 86.545C72.1156 86.5176 65.6556 85.3068 64.4677 93.7027ZM65.7917 81.7981C66.7061 81.6319 67.5924 81.4936 68.3563 81.8367C68.9722 82.1133 68.7104 82.9223 68.0648 83.1199C66.5584 83.5811 65.0717 84.0423 63.5531 84.5035C63.4035 84.5489 63.2666 84.6287 63.1534 84.7365C61.9593 85.8735 60.8133 86.9624 59.6177 88.101C59.5417 88.1733 59.4768 88.2578 59.4283 88.3507C56.2833 94.3684 59.3701 101.792 66.0383 104.055C76.2729 107.508 91.4398 101.527 96.6188 92.0943C100.75 86.3605 102.106 79.7019 101.983 72.8583C101.932 67.2147 101.126 61.697 97.7337 57.1694C97.1198 56.3502 96.0549 57.0032 96.383 57.9729C96.6648 58.8058 96.9524 59.6372 97.2498 60.4589C97.281 60.5453 97.3249 60.6268 97.3765 60.7029C98.0997 61.7708 98.2485 62.9244 98.1252 64.1032C98.0508 64.8145 97.2994 64.9774 96.6474 64.6834C96.1764 64.4709 95.8259 64.7156 95.7556 66.2613C95.6342 69.2969 94.3768 72.0336 92.9255 74.648C92.8807 74.7287 92.8238 74.8038 92.7581 74.8686C86.0523 81.4795 77.4649 80.4411 69.1827 80.3184C68.4619 80.3184 68.6285 78.8652 69.3176 78.6536C69.4152 78.6236 69.5139 78.6021 69.6143 78.5921C74.1767 78.2838 78.8007 78.2222 83.3631 77.8522C85.521 77.6673 87.494 76.8041 89.2203 75.3861C95.2328 70.9526 93.8869 64.4851 94.14 58.4586C94.1475 58.279 94.1084 58.1007 94.0244 57.9417C92.8914 55.7989 91.7054 53.603 90.5767 51.4643C90.1451 50.5395 88.4804 49.4297 89.6519 48.6282C91.0699 47.6417 91.3782 49.7379 92.1797 50.5395C92.6729 51.0327 93.0429 51.6492 93.4744 52.2658C93.8851 52.9697 94.6935 52.4447 95.418 52.0714C95.7647 51.8928 96.3322 52.1496 97.297 53.1906C97.8864 53.8389 98.4195 54.4873 99.0039 55.1357C99.0576 55.1952 99.1047 55.2614 99.1428 55.332C105.68 67.443 105.417 79.6758 99.2699 91.7861C92.3989 105.405 73.6853 110.845 60.5012 103.366C60.3717 103.293 60.2592 103.188 60.176 103.065C53.617 93.3258 56.1743 83.6971 65.7917 81.7981ZM30.5256 72.9816C28.8609 72.1184 30.9571 68.974 31.7586 66.9395C33.1767 63.3635 34.7797 59.8492 37.3692 56.8898C39.4325 55.0693 41.4361 53.2487 43.4975 51.4281C43.563 51.3703 43.6363 51.321 43.7146 51.2823C53.8486 46.2754 64.0432 45.0155 74.1767 51.4026C75.1386 52.0038 75.8661 53.0155 76.7021 53.8658C76.7445 53.909 76.7916 53.9477 76.841 53.9828C78.5783 55.2156 79.4234 57.0417 79.8489 59.0477C80.3421 61.144 80.2804 63.3635 78.2459 64.5349C76.3962 65.5831 74.8549 63.9801 73.8068 62.6853C72.6353 61.144 68.8128 60.5274 70.2308 58.6778C71.5256 57.0131 73.6835 60.0958 75.3481 61.2056C75.6556 61.4209 76.009 61.5747 76.3779 61.7132C76.9635 61.933 77.6654 61.5758 77.8402 60.9753C77.9819 60.4886 78.0756 60.0166 77.9376 59.6026C77.3525 57.9058 76.4897 56.3199 75.7182 54.6871C75.637 54.5153 75.5082 54.3679 75.3476 54.2664C64.2724 47.2694 53.3264 47.1369 43.5346 53.8688C38.8906 57.5351 35.2762 61.9887 33.6516 67.8297C33.6226 67.9339 33.5787 68.0343 33.5131 68.1201C33.4404 68.2153 33.3677 68.3 33.2951 68.3996C33.2562 68.4528 33.2147 68.5033 33.1705 68.5522C31.8898 69.97 32.1013 73.7694 30.5256 72.9816ZM38.5406 69.0974C38.3653 69.5064 38.19 69.9155 38.0147 70.3245C37.9954 70.3695 37.9727 70.4131 37.9472 70.4549C36.0007 73.6448 35.0868 77.1982 34.903 80.8733C34.0398 90.4913 36.5677 99.1229 41.9932 107.076C42.6714 108.124 44.6444 109.666 43.1647 110.591C41.9316 111.392 41.0068 109.049 40.3286 108.001C32.9457 96.25 30.4743 83.885 35.4876 70.5384C35.5087 70.4825 35.5349 70.4279 35.566 70.3769C35.9252 69.786 36.3364 69.195 36.691 68.6041C38.4789 64.9665 41.0068 61.9455 44.1511 59.356C45.1538 58.5892 46.1566 57.8224 47.1593 57.0017C47.2495 56.9278 47.3517 56.8699 47.4616 56.8311C51.4138 55.4326 55.3667 54.035 59.3797 52.6974C60.0579 52.4507 61.1677 52.2658 61.3526 53.3755C61.4143 53.6222 60.3662 54.2387 59.7496 54.362C54.694 55.4101 50.0083 57.3831 45.8774 60.4658C42.7947 62.747 40.3286 65.6447 38.5406 69.0974ZM74.6083 44.374C74.445 44.2924 74.4893 44.2372 74.6493 44.3249C74.7542 44.3824 74.8632 44.4399 74.9782 44.4974C75.3768 44.6682 75.7754 44.8916 76.1254 45.0704C76.1824 45.0996 76.2368 45.1336 76.2876 45.1726C77.8199 46.3499 79.4066 47.5271 80.9405 48.7044C81.0341 48.7763 81.1139 48.8644 81.1778 48.9637C82.2113 50.5712 83.5051 52.0732 84.103 53.8071C85.8293 58.6778 86.9391 63.7334 82.9932 68.0492C80.0955 71.2552 76.4579 70.3304 73.0669 68.6041C69.8609 66.8778 67.2098 63.9184 63.1406 64.1034C62.4617 64.1034 62.4577 62.7815 63.0795 62.5091C63.16 62.4738 63.2419 62.4492 63.3256 62.4387C66.285 62.0688 68.6278 63.7951 71.0323 65.1515C74.3616 67.0628 77.7526 70.4537 81.5135 66.8778C85.1511 63.4868 83.7947 58.9244 82.4383 54.7319C81.839 52.9339 81.0066 51.1941 79.3748 50.079C79.2814 50.0152 79.1971 49.9385 79.1262 49.8504C77.4082 47.7126 75.0476 46.454 72.4504 45.6688C61.8459 41.7229 51.6113 41.353 42.1165 48.6898C41.7677 48.9224 41.4189 49.1549 41.0701 49.3358C41.0281 49.3576 40.9844 49.3762 40.9386 49.3882C40.7755 49.4306 40.6066 49.4372 40.3902 49.4913C38.9722 49.738 37.9241 52.6357 36.8143 51.156C35.7835 49.7816 38.2102 49.0455 39.1537 47.8607C39.2905 47.6888 39.4513 47.5326 39.6495 47.4379C40.0777 47.2333 40.5059 47.0055 40.934 46.8112C40.9824 46.7893 41.0296 46.7636 41.0741 46.7348C51.8432 39.7508 63.1029 39.9442 74.6083 44.374ZM70.4158 38.6402C71.2173 38.9485 72.512 39.8733 72.4504 40.0583C71.8338 41.4763 70.724 40.4898 69.8609 40.3049C52.1662 35.3725 38.109 40.9831 28.1827 56.9515C25.6549 61.3906 23.1887 65.8913 22.1406 71.0086C21.9556 71.9334 22.0789 73.6598 20.9692 73.4748C19.4278 73.2282 20.2293 71.6252 20.4759 70.6387C23.4353 57.1981 30.7105 46.9019 42.9797 40.3049C51.9195 36.359 61.0443 35.0026 70.4158 38.6402Z" fill="#024F7F"/>
<path d="M97.6056 52.6693L97.6056 52.6692L97.5979 52.661C97.0244 52.0581 96.5386 51.6609 96.1151 51.4706C95.8978 51.3729 95.6669 51.316 95.4331 51.3394C95.1883 51.364 94.9842 51.4724 94.8271 51.6293C94.5441 51.9119 94.426 52.3401 94.3601 52.701C94.29 53.0856 94.2589 53.5274 94.2317 53.9323C94.2031 54.357 94.5072 54.8152 95.004 54.8571C100.275 59.6337 101.422 66.1173 101.483 72.8011C101.544 79.5145 100.201 86.0605 96.2098 91.7454L96.1936 91.7685L96.1801 91.7932C93.6626 96.4086 88.6862 100.213 83.0416 102.434C77.3968 104.655 71.1721 105.259 66.1984 103.581L66.1967 103.581C59.8658 101.471 56.8777 94.3132 59.9322 88.5817L59.491 88.3466L59.9322 88.5817C59.9537 88.5413 59.9839 88.5016 60.0215 88.4658C60.6316 87.8848 61.2258 87.3195 61.8202 86.7542C62.3952 86.2072 62.9703 85.6601 63.5601 85.0986C63.6167 85.0447 63.6853 85.0047 63.7603 84.9819C64.7001 84.6965 65.6289 84.4107 66.5568 84.1252C67.1285 83.9493 67.6998 83.7735 68.273 83.598C68.7548 83.4505 69.1138 83.0709 69.2289 82.6358C69.2876 82.4137 69.2856 82.162 69.1808 81.9243C69.0736 81.6814 68.8772 81.4947 68.6231 81.3806C67.6948 80.9637 66.6505 81.145 65.7642 81.3062L65.7642 81.3061L65.7574 81.3074C60.754 82.2891 57.5281 85.2937 56.4356 89.338C55.35 93.3569 56.3968 98.3025 59.7017 103.163C59.827 103.348 59.9952 103.504 60.1909 103.615C73.6187 111.234 92.6523 105.707 99.6549 91.8263C105.87 79.5198 106.143 67.1748 99.5214 54.9095C99.4638 54.8028 99.3934 54.7041 99.3139 54.6159C99.0388 54.3107 98.7749 54.0052 98.507 53.695L98.4693 53.6513C98.1896 53.3275 97.9051 52.9988 97.6056 52.6693Z" fill="#026794" stroke="#026794"/>
<path d="M72.4087 46.2017L72.399 46.198C62.2026 42.404 52.4557 41.9769 43.3859 48.5183C43.0175 48.784 42.5984 48.7163 42.3094 48.5668C42.0237 48.4189 41.7785 48.1559 41.6572 47.8476C41.5541 47.5858 41.4802 47.2305 41.4889 46.8916C41.4969 46.5832 41.581 46.1079 41.9929 45.8527C52.4801 39.3538 63.4723 39.6307 74.6263 43.8593C74.6654 43.8533 74.7001 43.8519 74.7269 43.8526C74.8441 43.8557 74.9432 43.8938 75.0161 43.9339L74.9791 44.0011M72.4087 46.2017L71.1553 65.2121L71.4058 64.7794C71.4056 64.7793 71.4053 64.7791 71.4051 64.779C71.115 64.611 70.8207 64.4341 70.5213 64.2541C68.482 63.028 66.2037 61.6583 63.3878 62.0031L63.3865 62.0032C63.2465 62.0207 63.1178 62.061 63.0018 62.1118C62.7063 62.2413 62.5144 62.4821 62.402 62.7206C62.2893 62.9597 62.2398 63.2284 62.2454 63.4802C62.251 63.7279 62.3112 64.0029 62.4652 64.2321C62.6304 64.478 62.9041 64.664 63.2636 64.664L63.2749 64.664L63.2863 64.6635C65.1836 64.5773 66.7643 65.2196 68.2954 66.1277C68.9678 66.5266 69.6202 66.9701 70.2876 67.4238C70.384 67.4894 70.4808 67.5552 70.578 67.6211C71.3413 68.1386 72.1267 68.6602 72.9529 69.105L72.9627 69.1103L72.9728 69.1152C74.7162 69.9557 76.5513 70.6413 78.3475 70.6905C80.1743 70.7406 81.9335 70.131 83.4839 68.4487L83.4839 68.4487L83.4879 68.4444C87.5791 63.8985 86.3637 58.5765 84.6991 53.7061L84.6987 53.7048C84.3791 52.7779 83.8787 51.9273 83.3431 51.1218C83.1076 50.7675 82.8614 50.4164 82.6189 50.0707C82.5856 50.0232 82.5524 49.9758 82.5193 49.9286C82.2434 49.5347 81.9738 49.1466 81.7213 48.7539L81.3007 49.0243L81.7213 48.7539C81.6278 48.6084 81.5093 48.477 81.3679 48.3684C80.6099 47.7866 79.8393 47.2051 79.0706 46.6249L79.0497 46.6091C78.2735 46.0233 77.4993 45.4389 76.7387 44.8548L76.4342 45.2514L76.7387 44.8548C76.6383 44.7777 76.5318 44.7165 76.425 44.6681C76.182 44.5582 75.9565 44.4396 75.7295 44.3201C75.6019 44.253 75.4738 44.1856 75.3418 44.1193C75.2356 44.056 75.1249 43.9939 75.0161 43.9339L74.9791 44.0011M72.4087 46.2017L72.4186 46.2049M72.4087 46.2017L72.4186 46.2049M74.9791 44.0011C74.9686 43.9946 74.9602 43.9902 74.9549 43.9875L74.8271 44.277L74.8271 44.277L74.7832 44.3765C74.8929 44.437 75.0003 44.4975 75.1012 44.558M74.9791 44.0011C75.01 44.0203 75.0591 44.0578 75.1021 44.1238C75.1386 44.1799 75.183 44.2848 75.1763 44.4077L75.1012 44.558M75.1012 44.558C75.1122 44.5635 75.1233 44.5691 75.1344 44.5747C75.1562 44.5277 75.1685 44.4814 75.1738 44.437L75.1012 44.558ZM72.4186 46.2049C74.9673 47.0347 77.1716 48.1956 78.8627 50.2326C78.9681 50.3597 79.091 50.4669 79.223 50.5542C80.7668 51.5749 81.5541 53.2339 82.0838 54.9408L82.0837 54.9408M72.4186 46.2049L82.0837 54.9408M82.0837 54.9408L82.0863 54.9486M82.0837 54.9408L82.0863 54.9486M82.0863 54.9486C82.7673 57.0226 83.4201 59.1285 83.4718 61.1328M82.0863 54.9486L83.4718 61.1328M83.4718 61.1328C83.5228 63.1074 82.9899 64.9637 81.2939 66.5743L83.4718 61.1328ZM63.2025 62.5697C62.5807 62.8422 62.5847 64.164 63.2636 64.164L63.4485 62.4994C63.3649 62.5098 63.2829 62.5345 63.2025 62.5697Z" fill="#026794" stroke="#026794"/>
<path d="M27.0799 82.9813C27.0787 82.846 27.0603 82.7099 27.0232 82.5768C26.9749 82.4034 26.9266 82.222 26.8773 82.0374L26.8728 82.0203C26.7087 81.4052 26.158 80.9999 25.5529 80.9673C24.715 80.9223 24.0532 81.6269 24.134 82.4546C24.7789 89.0614 26.574 95.2273 29.1447 101.159C29.2052 101.298 29.288 101.427 29.3922 101.541C29.9325 102.131 30.683 102.078 31.1742 101.714C31.6571 101.357 31.9416 100.667 31.618 99.9655C29.3547 95.0574 27.7627 89.9252 27.4042 84.3363C27.3857 84.0474 27.2783 83.7967 27.1896 83.613C27.1013 83.4301 27.0823 83.2541 27.0799 82.9813Z" fill="#026794" stroke="#026794"/>
<path d="M29.0194 58.5575L29.001 58.5814L28.9856 58.6073C24.9238 65.4579 23.8649 72.8798 24.0251 80.6024C24.0394 81.2934 24.574 81.8948 25.3024 81.918C26.0934 81.9432 26.7062 81.2952 26.7146 80.5408C26.8183 71.294 28.5942 62.6731 34.9908 55.5571C35.1979 55.3268 35.3486 55.0213 35.3675 54.6772C35.3893 54.2814 35.3706 53.916 35.2924 53.6134C35.2175 53.324 35.0605 52.9925 34.725 52.8293C34.3733 52.6583 34.0072 52.7572 33.7178 52.9196C33.4261 53.0833 33.1216 53.3574 32.8042 53.7197C31.8293 54.7837 30.9398 55.9838 30.0742 57.1516C29.72 57.6295 29.3698 58.102 29.0194 58.5575Z" fill="#1299C7" stroke="#1299C7"/>
<path d="M90.164 58.229C89.3438 58.2542 88.7386 58.958 88.8169 59.766C89.0806 62.49 89.2713 65.0653 88.5659 67.2023C87.8818 69.2747 86.3313 70.9916 82.9278 71.9422C82.037 72.1571 81.1431 72.354 80.2437 72.5521C79.5795 72.6984 78.9122 72.8454 78.241 73.0008C77.5717 73.1557 77.137 73.7684 77.1013 74.3985C77.0576 75.1691 77.6452 75.7993 78.417 75.8096C80.7761 75.841 82.9945 75.1007 85.1441 74.3835C85.5959 74.2327 86.0448 74.0829 86.4912 73.9415C86.6542 73.8899 86.8119 73.8096 86.9517 73.7014C89.3816 71.8216 90.8095 69.6144 91.4987 67.1731C92.1851 64.7419 92.1304 62.1098 91.6504 59.3833C91.5207 58.6469 90.8266 58.2085 90.164 58.229Z" fill="#1299C7" stroke="#1299C7"/>
<path d="M69.9026 58.3632L69.9026 58.3632L69.8998 58.3666C69.6852 58.6372 69.541 58.9228 69.4956 59.2255C69.4491 59.5355 69.5127 59.8211 69.6442 60.0727C69.8893 60.5415 70.3779 60.9027 70.841 61.196C71.0832 61.3494 71.3441 61.4992 71.5993 61.6451C71.6155 61.6543 71.6317 61.6635 71.6478 61.6728C71.8895 61.8109 72.1262 61.9461 72.3531 62.0857C72.8463 62.3892 73.2362 62.6805 73.4694 62.9874L73.4698 62.9879C73.9737 63.6492 74.6705 64.4396 75.5153 64.9224C76.3872 65.4206 77.4415 65.5994 78.5531 64.9695L78.5531 64.9695L78.5561 64.9678C79.7079 64.3047 80.3099 63.3306 80.5448 62.2432C80.7752 61.1767 80.6509 60.0148 80.3963 58.9327L80.3963 58.9327L80.3956 58.9295C79.9281 57.0012 79.17 55.1455 77.5152 53.8192C77.1201 53.5025 76.6063 53.4937 76.2054 53.6625L76.3994 54.1233L76.2053 53.6625C75.5548 53.9364 75.2759 54.6795 75.5645 55.3132C75.7561 55.734 75.9516 56.1462 76.1454 56.5546C76.6515 57.6218 77.1453 58.6628 77.5247 59.7624C77.608 60.0147 77.5623 60.3493 77.4209 60.835C77.3276 61.1556 76.938 61.343 76.6371 61.2211C76.293 61.0817 75.9693 60.9401 75.6643 60.7749C75.2758 60.5227 74.8542 60.1566 74.3979 59.7452C74.3302 59.6842 74.2617 59.6221 74.1926 59.5595C73.8027 59.2063 73.3931 58.8352 72.9932 58.5276C72.5308 58.1719 72.0143 57.8463 71.4857 57.7484C71.2103 57.6973 70.9217 57.7061 70.6381 57.8116C70.3549 57.9169 70.1103 58.1061 69.9026 58.3632Z" fill="#1299C7" stroke="#1299C7"/>
<path d="M41.5285 46.5049C41.1821 46.3839 40.8371 46.4531 40.5757 46.5773C40.3905 46.6653 40.2062 46.7573 40.0268 46.8471L40.0134 46.8537C39.8372 46.9418 39.6658 47.0276 39.4949 47.1092L39.7105 47.5604L39.4949 47.1092C39.2006 47.2499 38.9836 47.4706 38.8235 47.6717C38.6306 47.9139 38.3472 48.1498 38.0068 48.4041C37.9136 48.4737 37.8141 48.5461 37.7122 48.6202C37.4649 48.8002 37.2032 48.9906 36.9817 49.178C36.6706 49.4411 36.3444 49.772 36.2008 50.1867C36.0395 50.6521 36.1368 51.1272 36.4752 51.5785C36.6431 51.8023 36.8379 51.9834 37.0701 52.0914C37.3117 52.2039 37.5593 52.2211 37.7938 52.1694C38.2187 52.0759 38.5832 51.757 38.8619 51.4856C38.9884 51.3624 39.1168 51.2284 39.24 51.0998C39.2619 51.077 39.2836 51.0543 39.3051 51.0319C39.4512 50.8797 39.5919 50.7354 39.7334 50.6045C40.0257 50.3342 40.2705 50.1711 40.4869 50.117C40.4877 50.1169 40.493 50.1159 40.5056 50.1145C40.5141 50.1136 40.5239 50.1127 40.5374 50.1115C40.5399 50.1113 40.5427 50.1111 40.5457 50.1108C40.5569 50.1099 40.571 50.1087 40.5844 50.1074C40.7433 50.0924 40.8976 50.0517 41.0242 50.0184L41.0274 50.0175C41.1901 49.9747 41.3462 49.9055 41.4884 49.8111C41.655 49.7005 41.8163 49.5951 41.9756 49.498C42.3483 49.2706 42.7233 48.8448 42.7101 48.2723C42.702 47.9193 42.6333 47.5535 42.4423 47.2309C42.245 46.8978 41.9392 46.6483 41.5285 46.5049Z" fill="#1299C7" stroke="#1299C7"/>
<path d="M74.6455 35.9086C74.6939 36.0365 74.7595 36.1612 74.8445 36.2769C75.3158 36.9183 75.7914 37.5564 76.2679 38.1955C77.0971 39.3078 77.9288 40.4234 78.7435 41.5653C78.8977 41.7815 79.1167 41.9442 79.37 42.0286C79.708 42.1413 80.0823 42.1064 80.3951 41.9214L80.1406 41.491L80.3951 41.9214C80.4453 41.8917 80.4958 41.8617 80.5464 41.8315L80.2902 41.4021L80.5464 41.8315C81.2841 41.3912 81.5129 40.4175 81.0395 39.6961L77.7987 34.7577L77.3806 35.032L77.7987 34.7577C77.7383 34.6658 77.6694 34.5833 77.5965 34.5104C76.5257 33.4393 75.8463 32.1561 75.2824 30.7575C75.0174 30.1001 74.7811 29.4257 74.5396 28.7367C74.5237 28.6913 74.5077 28.6458 74.4918 28.6003C74.235 27.8681 73.9705 27.1213 73.6643 26.3888C73.4751 25.9361 73.0553 25.6158 72.5858 25.5328C71.7345 25.3821 70.8162 25.9993 70.8707 26.9769C70.967 28.7038 71.6661 30.2335 72.4454 31.6662C72.657 32.0551 72.8727 32.4344 73.0857 32.809C73.674 33.8435 74.2421 34.8424 74.6455 35.9086Z" fill="#1299C7" stroke="#1299C7"/>
<path d="M93.8457 51.8894L93.8289 51.8606L93.8085 51.8344C93.6496 51.6301 93.5011 51.4193 93.3434 51.1955C93.2956 51.1278 93.2471 51.0589 93.1971 50.9886C92.9867 50.6924 92.7581 50.3814 92.4928 50.0828L92.4928 50.0828L92.4865 50.0759C92.3503 49.9284 92.2193 49.7056 92.06 49.4106C92.0403 49.3742 92.0202 49.3367 91.9996 49.2982C91.8663 49.0492 91.7128 48.7626 91.5386 48.5202C91.3379 48.241 91.0553 47.94 90.6477 47.8199C90.2181 47.6933 89.7723 47.801 89.3262 48.0797L89.3174 48.0852L89.3089 48.0911C88.9191 48.3578 88.6849 48.7112 88.6724 49.1404C88.6612 49.5258 88.835 49.8746 89.0084 50.1453C89.1672 50.3932 89.3707 50.6416 89.5496 50.8599C89.5706 50.8855 89.5912 50.9107 89.6114 50.9354C89.8146 51.1843 89.9738 51.3882 90.0708 51.5676C91.1364 53.7571 92.3135 55.8879 93.4889 58.0041C93.6194 58.2392 93.8343 58.433 93.9643 58.5503C93.99 58.5735 94.0124 58.5937 94.0301 58.6106C94.1406 58.7159 94.2391 58.892 94.3427 59.1645C94.3914 59.2928 94.4362 59.428 94.4851 59.5753L94.4897 59.5892C94.5389 59.7377 94.5925 59.8989 94.6532 60.0547C94.7709 60.3572 94.9392 60.7072 95.2313 60.9617C95.5495 61.2389 95.9597 61.3576 96.4537 61.2935C96.9012 61.2354 97.2153 60.9475 97.3744 60.6062C97.5291 60.2745 97.5479 59.8791 97.4296 59.5221C97.388 59.3967 97.3464 59.2711 97.3047 59.1453C96.7969 57.6128 96.28 56.0526 95.7302 54.5226C95.6414 54.2754 95.4543 54.1328 95.312 54.0544C95.2208 54.0043 95.1266 53.9684 95.0432 53.9424L93.8457 51.8894Z" fill="#1299C7" stroke="#1299C7"/>
<path d="M90.6016 83.2925L90.5961 83.3001L90.5909 83.3079C90.4645 83.4975 90.3521 83.6743 90.2429 83.8457C90.1972 83.9177 90.152 83.9887 90.1066 84.0593C89.9162 84.3557 89.8454 84.6943 89.8538 85.0101C89.8829 86.0996 89.4165 86.8362 88.7192 87.4894C88.3627 87.8233 87.9544 88.1268 87.5207 88.4434C87.4889 88.4666 87.457 88.4899 87.4249 88.5133C87.0286 88.8022 86.6124 89.1056 86.2385 89.4362C85.5948 89.9943 85.0845 90.5842 84.774 91.3187C84.5781 91.7823 84.691 92.2463 84.9538 92.5777C85.2094 92.9 85.6118 93.1102 86.0499 93.1318C86.1014 93.1344 86.1533 93.1368 86.2055 93.1389C86.6106 93.1554 86.989 92.9954 87.2664 92.7298C87.5532 92.4552 87.8427 92.1809 88.1333 91.9055C91.0852 89.1085 94.1436 86.2106 95.4482 81.9781C95.6771 81.2356 95.2662 80.4877 94.5935 80.2046L94.327 80.0925C93.6857 79.823 92.9514 80.0389 92.549 80.5962L90.6016 83.2925Z" fill="#1299C7" stroke="#1299C7"/>
<path d="M71.4556 101.501C72.2257 101.592 72.9002 101.027 72.9796 100.273C73.058 99.5283 72.5398 98.8666 71.8207 98.7318C69.0368 98.2099 66.6633 97.2707 65.3589 94.8108C64.9604 94.0593 63.9133 93.7363 63.2051 94.3866C62.8283 94.7327 62.6548 95.285 62.8471 95.8035C63.5969 97.8255 64.8218 99.1538 66.3432 100.024C67.8494 100.885 69.6222 101.284 71.4556 101.501Z" fill="#1299C7" stroke="#1299C7"/>
<path d="M67.1438 93.3625L67.1443 93.3696L67.145 93.3766C67.191 93.8366 67.2585 94.3937 67.4466 94.8839C67.6394 95.3864 67.9813 95.874 68.6006 96.1006C68.8511 96.1922 69.1086 96.1928 69.3441 96.1009C69.572 96.0119 69.7435 95.8505 69.8628 95.6755C70.0956 95.3341 70.1799 94.8723 70.0966 94.4509C69.85 93.2028 70.1405 92.4635 70.6658 91.9556C71.2336 91.4066 72.1453 91.0571 73.2878 90.7787C73.7102 90.6757 74.0767 90.3849 74.2568 90.0219C74.3493 89.8355 74.403 89.607 74.3593 89.3662C74.3139 89.1165 74.1721 88.9023 73.9601 88.7468C73.5496 88.4455 73.0783 88.3774 72.6782 88.362C72.4947 88.3549 72.3088 88.3587 72.1407 88.3621C72.1246 88.3625 72.1087 88.3628 72.0929 88.3631C71.9058 88.3668 71.7409 88.3688 71.5868 88.3589C71.3644 88.3445 71.0984 88.3577 70.8359 88.4632C69.8248 88.8695 68.8495 89.3836 68.1522 90.16C67.4362 90.9573 67.0461 91.9943 67.1438 93.3625Z" fill="#1299C7" stroke="#1299C7"/>
<path d="M94.0024 81.0256C94.8579 81.3799 95.7879 80.8755 96.0697 80.0557C96.1474 79.8295 96.2326 79.5931 96.3199 79.3506C96.6244 78.505 96.9552 77.5866 97.0897 76.7759C97.1777 76.2458 97.1946 75.7014 97.0369 75.2106C96.8726 74.6993 96.5298 74.2822 95.9801 74.0139C95.7322 73.8861 95.4364 73.8042 95.1366 73.9004C94.8295 73.9989 94.6544 74.24 94.5545 74.4508C94.4546 74.6615 94.3959 74.9107 94.3547 75.1528C94.3126 75.4001 94.2833 75.6762 94.2563 75.9537C94.2499 76.0191 94.2437 76.0846 94.2374 76.1503C94.1891 76.6575 94.14 77.1726 94.0361 77.6488C93.9177 78.192 93.7435 78.602 93.491 78.8546C93.3488 78.9968 93.2138 79.1874 93.1216 79.3915C93.0562 79.5361 93.0409 79.6809 93.0335 79.751C93.0332 79.7539 93.033 79.7566 93.0327 79.7592C92.9822 80.2331 93.2226 80.6963 93.6896 80.8945C93.7927 80.9383 93.8971 80.982 94.0024 81.0256Z" fill="#026794" stroke="#026794"/>
<path d="M90.4473 85.1898L90.1417 84.794L90.4473 85.1898C90.5754 85.091 90.6876 84.9707 90.7775 84.8333C90.8666 84.697 90.9509 84.5646 91.0332 84.4353C91.0762 84.3677 91.1187 84.3009 91.161 84.235C91.3539 83.9343 91.4477 83.5601 91.3815 83.1829C91.2784 82.5949 91.1384 82.1056 90.9373 81.7464C90.7326 81.3809 90.4171 81.075 89.9578 81.0421C89.5399 81.0122 89.1516 81.2246 88.8203 81.4893C88.4768 81.7637 88.1111 82.1618 87.7217 82.6558C85.3983 85.5143 82.5398 87.3663 78.781 87.2799C78.6947 87.278 78.6054 87.2828 78.5157 87.2963C77.1171 87.5061 75.7186 87.7158 74.3086 87.9255C74.0679 87.9613 73.8563 88.0651 73.6937 88.2313C73.5348 88.3938 73.4459 88.592 73.4041 88.7851C73.3225 89.1609 73.4042 89.572 73.5712 89.9058C73.6405 90.0444 73.7477 90.2032 73.8828 90.3363C74.0067 90.4584 74.2228 90.6263 74.5107 90.642C80.5557 90.9706 85.7589 88.8089 90.4473 85.1898Z" fill="#026794" stroke="#026794"/>
<path d="M78.3279 83.7842L78.3168 83.7809L78.3055 83.7781C77.3219 83.5321 76.2529 83.5075 75.2607 83.4846C74.9906 83.4784 74.7261 83.4723 74.4706 83.4619C74.3241 83.4559 74.1755 83.4706 74.0299 83.508C72.8926 83.8005 71.7425 84.106 70.5944 84.4112L70.5347 84.4271C69.4059 84.7271 68.2793 85.0266 67.1651 85.3138C66.9053 85.3808 66.6679 85.516 66.4777 85.7061C65.4077 86.776 64.3415 87.8396 63.2762 88.8598L63.619 89.2177L63.2762 88.8598C62.993 89.131 62.8253 89.5026 62.8122 89.8966C62.786 90.6889 62.7597 91.4909 62.7334 92.2928C62.719 92.731 62.7046 93.1692 62.6903 93.6058C62.6565 94.632 63.8379 95.1432 64.5805 94.4803C64.7949 94.289 64.9262 94.0284 64.9649 93.7567C65.2545 91.7241 65.8562 90.3212 66.6475 89.3445C67.4353 88.3719 68.4409 87.7848 69.6068 87.4331C70.7817 87.0788 72.1108 86.9662 73.5283 86.9445C74.2353 86.9336 74.9563 86.9454 75.6861 86.959C75.7465 86.9602 75.8069 86.9613 75.8673 86.9625C76.5356 86.9751 77.2107 86.9879 77.8771 86.9842C78.0632 86.9831 78.2512 86.9472 78.4292 86.8716C78.4792 86.8504 78.5286 86.8289 78.5776 86.8073C79.0951 86.579 79.4084 86.0877 79.5015 85.6022C79.5951 85.1146 79.4825 84.5283 79.0058 84.1535C78.8134 84.0023 78.5883 83.8623 78.3279 83.7842Z" fill="#026794" stroke="#026794"/>
<path d="M36.978 56.4522L36.9538 56.4736L36.9325 56.4979C34.2841 59.5247 32.6558 63.106 31.2343 66.6905C31.0722 67.0892 30.8549 67.541 30.619 68.0316C30.5741 68.125 30.5285 68.2198 30.4824 68.3159C30.1993 68.9071 29.9041 69.5403 29.6865 70.1446C29.4722 70.74 29.3129 71.3603 29.3437 71.9157C29.3762 72.5045 29.6289 73.0485 30.2351 73.3628C30.5081 73.5043 30.7999 73.577 31.0957 73.5235C31.3944 73.4695 31.6218 73.3006 31.7898 73.1047C32.1011 72.7417 32.2928 72.1826 32.4471 71.6673C32.5062 71.4697 32.5612 71.2732 32.6159 71.0777C32.717 70.7165 32.8171 70.3589 32.9402 70.0055C33.1271 69.4688 33.3367 69.0417 33.5978 68.7671C33.7255 68.6383 33.8397 68.4774 33.932 68.3417C34.0263 68.2031 34.0925 68.0525 34.1346 67.901C35.7206 62.1997 39.249 57.8912 43.8344 54.2077C48.6419 50.9065 53.7129 49.2969 58.93 49.3563C64.1559 49.4157 69.5629 51.1504 75.0297 54.5935C75.3637 54.8039 75.7747 54.8189 76.1165 54.6715C76.8407 54.3591 76.985 53.4572 76.4872 52.905C76.4223 52.833 76.3568 52.7598 76.2905 52.6856C75.734 52.063 75.1238 51.3803 74.3825 50.9166C64.054 44.4068 53.7255 45.7166 43.4352 50.7705C43.3158 50.8291 43.2046 50.9037 43.1053 50.9915C42.09 51.8881 41.0889 52.7846 40.0893 53.6798L40.0397 53.7242C39.0232 54.6345 38.0079 55.5435 36.978 56.4522Z" fill="#026794" stroke="#026794"/>
<path d="M20.8247 73.8437L20.8247 73.8437L20.829 73.8444C21.2564 73.9119 21.6325 73.806 21.9117 73.5268C22.161 73.2775 22.2806 72.9401 22.3493 72.6481C22.4199 72.3479 22.4532 72.0185 22.4799 71.7323C22.4825 71.7037 22.4851 71.6756 22.4877 71.648C22.5122 71.3834 22.5326 71.1634 22.5684 70.9835C23.5979 65.9583 26.0203 61.5877 28.551 57.0818C33.4702 49.1715 39.4034 43.879 46.2543 41.1538C53.1066 38.4281 60.9292 38.2497 69.6633 40.6619C69.813 40.7049 69.9726 40.7728 70.1708 40.8571C70.2079 40.8729 70.2463 40.8893 70.2863 40.9061C70.5202 41.0049 70.8047 41.12 71.0957 41.1733C71.3949 41.2282 71.7434 41.2261 72.08 41.0467C72.4133 40.869 72.6615 40.5567 72.8441 40.1393C72.9412 39.9256 72.8585 39.7369 72.8407 39.697C72.81 39.6282 72.77 39.5738 72.7438 39.5406C72.688 39.4698 72.6163 39.3988 72.5466 39.3349C72.4023 39.2028 72.2046 39.0459 71.9873 38.889C71.5599 38.5803 70.9953 38.2273 70.5345 38.0498C61.0025 34.3499 51.7366 35.7428 42.6604 39.5971L42.637 39.607L42.6147 39.6193C30.2755 46.412 22.9164 56.8308 19.927 70.3998C19.8925 70.5368 19.8528 70.6705 19.8085 70.8195C19.7739 70.936 19.7365 71.0619 19.6967 71.2059C19.6137 71.5064 19.5322 71.8492 19.5137 72.1822C19.4954 72.5126 19.5353 72.8931 19.7561 73.2212C19.9872 73.5645 20.3578 73.7659 20.8247 73.8437Z" fill="#026794" stroke="#026794"/>
<path d="M80.3816 40.7655C79.6783 41.1704 79.5731 42.0522 79.9803 42.6572C80.3398 43.1913 80.7014 43.7338 81.0638 44.2773C81.5743 45.0431 82.0863 45.8111 82.5955 46.5608C82.6412 46.6281 82.6918 46.6906 82.7456 46.7479C85.809 50.0098 87.3208 54.043 88.5711 58.3523C88.7371 58.9243 89.2773 59.3008 89.8499 59.3008C90.7855 59.3008 91.3765 58.3634 91.0517 57.5226C90.476 56.0323 89.8948 54.5483 89.314 53.0656C88.6093 51.2663 87.9053 49.4689 87.2128 47.6644C87.1592 47.5248 87.0851 47.3939 86.9928 47.2762C85.3806 45.2192 83.7651 43.1592 82.1031 41.0987C81.6955 40.5935 80.9657 40.4292 80.3816 40.7655Z" fill="#026794" stroke="#026794"/>
<path d="M55.4009 85.5711L55.4009 85.5711L55.402 85.5684C57.51 80.5694 61.0233 77.145 66.418 76.3743L66.418 76.3743L66.4215 76.3738C68.927 75.998 71.4781 75.9377 74.0443 75.877C74.9575 75.8555 75.8727 75.8338 76.7884 75.7979C77.5249 75.769 78.0599 75.1409 78.0983 74.4686C78.1415 73.7116 77.5461 73.1549 76.8489 73.124C75.7771 73.0765 74.7214 73.0365 73.6237 73.0365C67.6173 73.0068 62.7983 74.1236 59.1785 76.4444C55.546 78.7734 53.1702 82.2836 52.0031 86.9348C51.8882 87.3923 52.0122 87.8668 52.2967 88.1848C52.6002 88.5243 53.1041 88.6886 53.6075 88.4208C54.1976 88.107 54.545 87.5885 54.7914 87.0781C54.9149 86.8223 55.0193 86.5546 55.1153 86.3015C55.1322 86.2569 55.1488 86.2129 55.1652 86.1695C55.2443 85.9599 55.3189 85.7623 55.4009 85.5711Z" fill="#026794" stroke="#026794"/>
<mask id="path-33-outside-1" maskUnits="userSpaceOnUse" x="66.7637" y="57.3867" width="33" height="25" fill="black">
<rect fill="white" x="66.7637" y="57.3867" width="33" height="25"/>
<path d="M94.8921 59.1835C94.6585 58.532 94.0489 58.7878 94.0331 59.4797C93.9034 65.1769 94.7342 71.1646 89.1577 75.2616C87.4313 76.6797 85.4584 77.6045 83.3005 77.7278C78.7381 78.0977 74.114 78.221 69.5516 78.5293C69.4471 78.5398 69.3444 78.5609 69.2428 78.5902C68.5202 78.7987 68.3756 80.1493 69.1201 80.2556C77.4022 80.3783 85.9896 81.4167 92.6955 74.8058C92.7612 74.7411 92.8181 74.6659 92.8629 74.5853C94.3142 71.9709 95.5716 69.2341 95.693 66.1985C95.7633 64.6528 96.1137 64.4081 96.5848 64.6206C97.2367 64.9146 97.9894 64.7519 98.0637 64.0406C98.1624 63.0953 98.0812 62.1693 97.6586 61.2625C97.4515 60.8181 96.9142 60.7231 96.429 60.7943C95.3995 60.9455 95.1902 60.0149 94.8921 59.1835Z"/>
</mask>
<path d="M94.8921 59.1835C94.6585 58.532 94.0489 58.7878 94.0331 59.4797C93.9034 65.1769 94.7342 71.1646 89.1577 75.2616C87.4313 76.6797 85.4584 77.6045 83.3005 77.7278C78.7381 78.0977 74.114 78.221 69.5516 78.5293C69.4471 78.5398 69.3444 78.5609 69.2428 78.5902C68.5202 78.7987 68.3756 80.1493 69.1201 80.2556C77.4022 80.3783 85.9896 81.4167 92.6955 74.8058C92.7612 74.7411 92.8181 74.6659 92.8629 74.5853C94.3142 71.9709 95.5716 69.2341 95.693 66.1985C95.7633 64.6528 96.1137 64.4081 96.5848 64.6206C97.2367 64.9146 97.9894 64.7519 98.0637 64.0406C98.1624 63.0953 98.0812 62.1693 97.6586 61.2625C97.4515 60.8181 96.9142 60.7231 96.429 60.7943C95.3995 60.9455 95.1902 60.0149 94.8921 59.1835Z" fill="#026794"/>
<path d="M89.1577 75.2616L88.5656 74.4558L88.5438 74.4718L88.5229 74.4889L89.1577 75.2616ZM83.3005 77.7278L83.2435 76.7294L83.2316 76.7301L83.2197 76.7311L83.3005 77.7278ZM69.5516 78.5293L69.4842 77.5316L69.4682 77.5327L69.4521 77.5343L69.5516 78.5293ZM95.693 66.1985L94.694 66.1531L94.6938 66.1585L95.693 66.1985ZM92.6955 74.8058L93.3975 75.518L92.6955 74.8058ZM92.8629 74.5853L91.9886 74.0999L92.8629 74.5853ZM97.6586 61.2625L98.565 60.8401L97.6586 61.2625ZM96.429 60.7943L96.2838 59.8049L96.429 60.7943ZM94.0331 59.4797L95.0329 59.5025L94.0331 59.4797ZM94.8921 59.1835L93.9508 59.521L94.8921 59.1835ZM93.0334 59.457C92.9659 62.4225 93.1408 65.1725 92.6548 67.7881C92.1856 70.3135 91.1086 72.5874 88.5656 74.4558L89.7497 76.0675C92.7833 73.8388 94.0792 71.0704 94.6211 68.1534C95.1463 65.3266 94.9707 62.2341 95.0329 59.5025L93.0334 59.457ZM88.5229 74.4889C86.9189 75.8065 85.1417 76.621 83.2435 76.7294L83.3576 78.7262C85.7751 78.588 87.9438 77.5528 89.7924 76.0344L88.5229 74.4889ZM83.2197 76.7311C78.6371 77.1026 74.1304 77.2177 69.4842 77.5316L69.6191 79.527C74.0977 79.2244 78.8392 79.0928 83.3813 78.7245L83.2197 76.7311ZM69.4521 77.5343C69.2795 77.5515 69.1169 77.5857 68.9655 77.6294L69.52 79.551C69.5718 79.536 69.6147 79.528 69.6511 79.5243L69.4521 77.5343ZM69.1053 81.2555C77.2007 81.3754 86.3245 82.4909 93.3975 75.518L91.9934 74.0937C85.6548 80.3426 77.6038 79.3812 69.1349 79.2557L69.1053 81.2555ZM93.7372 75.0706C95.2034 72.4295 96.5609 69.5202 96.6922 66.2384L94.6938 66.1585C94.5822 68.9481 93.425 71.5122 91.9886 74.0999L93.7372 75.0706ZM96.692 66.2439C96.7081 65.8889 96.7392 65.6421 96.7741 65.4768C96.8113 65.301 96.8411 65.275 96.8149 65.3135C96.7707 65.3783 96.6425 65.5085 96.4259 65.5457C96.2501 65.5759 96.1468 65.5201 96.1737 65.5322L96.9959 63.709C96.7873 63.6149 96.4635 63.51 96.0873 63.5746C95.6704 63.6462 95.3618 63.8943 95.1623 64.187C94.9808 64.4533 94.8804 64.765 94.8174 65.0631C94.7521 65.3718 94.713 65.7352 94.694 66.1531L96.692 66.2439ZM99.0583 64.1445C99.1703 63.071 99.0836 61.9528 98.565 60.8401L96.7523 61.685C97.0789 62.3858 97.1544 63.1196 97.0691 63.9368L99.0583 64.1445ZM96.2838 59.8049C96.1826 59.8197 96.1802 59.7988 96.2197 59.8173C96.2544 59.8335 96.2488 59.8468 96.2105 59.791C96.167 59.7277 96.1139 59.623 96.0466 59.4481C95.9719 59.2541 95.9253 59.1021 95.8334 58.8459L93.9508 59.521C94.0613 59.8292 94.2475 60.4658 94.5621 60.9236C94.7421 61.1856 95.0004 61.4551 95.3732 61.6293C95.7509 61.8057 96.1607 61.8444 96.5743 61.7837L96.2838 59.8049ZM96.1737 65.5322C96.6735 65.7576 97.2875 65.8458 97.8566 65.6564C98.4893 65.4459 98.9784 64.9099 99.0583 64.1445L97.0691 63.9368C97.0689 63.9389 97.0754 63.8923 97.1212 63.8368C97.1647 63.784 97.2102 63.7637 97.2251 63.7588C97.2363 63.755 97.22 63.7626 97.1718 63.7582C97.125 63.7539 97.0634 63.7395 96.9959 63.709L96.1737 65.5322ZM93.3975 75.518C93.5318 75.3856 93.6465 75.234 93.7372 75.0706L91.9886 74.0999C91.9894 74.0984 91.99 74.0976 91.9904 74.0971C91.9907 74.0966 91.9916 74.0955 91.9934 74.0937L93.3975 75.518ZM98.565 60.8401C98.3186 60.3114 97.8771 60.0178 97.4518 59.8823C97.0455 59.7527 96.6282 59.7543 96.2838 59.8049L96.5743 61.7837C96.6391 61.7742 96.6986 61.7713 96.7489 61.7738C96.7998 61.7762 96.8309 61.7835 96.8444 61.7878C96.8571 61.7918 96.8438 61.7898 96.8192 61.77C96.7915 61.7476 96.7669 61.7165 96.7523 61.685L98.565 60.8401ZM68.9655 77.6294C68.0534 77.8926 67.6885 78.7716 67.6352 79.3729C67.6058 79.7051 67.6486 80.1013 67.8478 80.4626C68.0643 80.8553 68.4522 81.1704 68.9786 81.2456L69.2615 79.2657C69.3223 79.2744 69.3966 79.3003 69.4669 79.351C69.535 79.4001 69.5766 79.4559 69.5993 79.4971C69.6388 79.5687 69.6234 79.5943 69.6274 79.5495C69.6308 79.5109 69.6447 79.4804 69.6499 79.4725C69.6531 79.4675 69.6174 79.5229 69.52 79.551L68.9655 77.6294ZM95.0329 59.5025C95.0354 59.3902 95.0719 59.6364 94.7328 59.7639C94.5363 59.8377 94.3072 59.8162 94.1288 59.7039C93.974 59.6064 93.9421 59.4968 93.9508 59.521L95.8334 58.8459C95.7253 58.5444 95.5296 58.2224 95.1944 58.0114C94.8355 57.7854 94.4091 57.7489 94.0291 57.8918C93.3228 58.1573 93.0466 58.8773 93.0334 59.457L95.0329 59.5025Z" fill="#026794" mask="url(#path-33-outside-1)"/>
</g>
<path d="M22.3867 103.386C22.3867 110.289 27.9832 115.887 34.8867 115.888C41.7903 115.89 47.3867 110.294 47.3867 103.391C47.3867 96.4871 41.7903 90.8895 34.8867 90.8881C27.9832 90.8867 22.3867 96.4821 22.3867 103.386Z" fill="url(#paint1_linear)"/>
<path d="M34.8867 113.891C40.6857 113.891 45.3867 109.19 45.3867 103.391C45.3867 97.5916 40.6857 92.8906 34.8867 92.8906C29.0877 92.8906 24.3867 97.5916 24.3867 103.391C24.3867 109.19 29.0877 113.891 34.8867 113.891Z" fill="#026794"/>
<path d="M34.8953 94.895C29.3758 94.895 26.1207 98.2384 26.4038 103.811C26.6868 108.965 29.9419 111.473 35.1783 111.891C40.4147 111.333 43.3867 108.408 43.3867 103.253C43.2452 97.9598 40.1317 94.7557 34.8953 94.895Z" fill="#0C7CAA"/>
<path d="M28.1009 105.566C29.6518 109.838 33.1546 111.419 37.3886 109.634C41.2992 107.966 42.3257 104.742 41.1778 100.571C39.2751 96.6739 36.1754 95.1953 32.1853 96.6436C28.1271 98.2406 26.5217 101.551 28.1009 105.566Z" fill="#31BED4"/>
<path d="M39.8183 105.409C41.3382 101.991 40.1644 99.055 36.6361 97.6958C33.3666 96.4516 30.9176 97.7766 29.2168 100.904C28.1199 104.3 29.1129 106.946 32.3044 108.365C35.6212 109.735 38.4626 108.69 39.8183 105.409Z" fill="#F7FCFD"/>
<path fill-rule="evenodd" clip-rule="evenodd" d="M34.8867 88.8877C42.8948 88.8893 49.3867 95.3825 49.3867 103.391C49.3867 111.399 42.8948 117.889 34.8867 117.888C26.8786 117.886 20.3867 111.393 20.3867 103.385C20.3867 95.3766 26.8786 88.886 34.8867 88.8877ZM44.9562 103.39C44.9562 97.8285 40.4479 93.3194 34.8867 93.3182C29.3255 93.3171 24.8173 97.8244 24.8173 103.386C24.8173 108.947 29.3255 113.456 34.8867 113.457C40.4479 113.458 44.9562 108.951 44.9562 103.39Z" fill="black"/>
<path d="M80.3867 103.386C80.3867 110.289 85.9832 115.887 92.8867 115.888C99.7903 115.89 105.387 110.294 105.387 103.391C105.387 96.4871 99.7903 90.8895 92.8867 90.8881C85.9832 90.8867 80.3867 96.4821 80.3867 103.386Z" fill="url(#paint2_linear)"/>
<path d="M92.8867 113.891C87.0877 113.891 82.3867 109.19 82.3867 103.391C82.3867 97.5916 87.0877 92.8906 92.8867 92.8906C98.6857 92.8906 103.387 97.5916 103.387 103.391C103.387 109.19 98.6857 113.891 92.8867 113.891Z" fill="#026794"/>
<path d="M92.8782 94.895C98.3976 94.895 101.653 98.2384 101.37 103.811C101.087 108.965 97.8316 111.473 92.5952 111.891C87.3588 111.333 84.3867 108.408 84.3867 103.253C84.5282 97.9598 87.6418 94.7557 92.8782 94.895Z" fill="#0C7CAA"/>
<path d="M99.6726 105.566C98.1217 109.838 94.6189 111.419 90.3848 109.634C86.4742 107.966 85.4478 104.742 86.5956 100.571C88.4983 96.6739 91.5981 95.1953 95.5881 96.6436C99.6463 98.2406 101.252 101.551 99.6726 105.566Z" fill="#31BED4"/>
<path d="M87.9551 105.409C86.4352 101.991 87.609 99.055 91.1373 97.6958C94.4068 96.4516 96.8559 97.7766 98.5566 100.904C99.6536 104.3 98.6606 106.946 95.469 108.365C92.1522 109.735 89.3109 108.69 87.9551 105.409Z" fill="#F7FCFD"/>
<path fill-rule="evenodd" clip-rule="evenodd" d="M92.8867 88.8877C100.895 88.8893 107.387 95.3825 107.387 103.391C107.387 111.399 100.895 117.889 92.8867 117.888C84.8786 117.886 78.3867 111.393 78.3867 103.385C78.3867 95.3766 84.8786 88.886 92.8867 88.8877ZM102.956 103.39C102.956 97.8285 98.4479 93.3194 92.8867 93.3182C87.3255 93.3171 82.8173 97.8244 82.8173 103.386C82.8173 108.947 87.3255 113.456 92.8867 113.457C98.4479 113.458 102.956 108.951 102.956 103.39Z" fill="black"/>
<defs>
<linearGradient id="paint0_linear" x1="89.898" y1="39.8718" x2="41.8078" y2="103.067" gradientUnits="userSpaceOnUse">
<stop stop-color="#05FBED"/>
<stop offset="1" stop-color="#CE87FE"/>
</linearGradient>
<linearGradient id="paint1_linear" x1="29.4757" y1="113.909" x2="38.1596" y2="90.8823" gradientUnits="userSpaceOnUse">
<stop stop-color="#8A9BF6"/>
<stop offset="1" stop-color="#7C11FF"/>
</linearGradient>
<linearGradient id="paint2_linear" x1="87.4757" y1="113.909" x2="96.1596" y2="90.8823" gradientUnits="userSpaceOnUse">
<stop stop-color="#8A9BF6"/>
<stop offset="1" stop-color="#7C11FF"/>
</linearGradient>
</defs>
</svg>
