<svg width="257" height="257" viewBox="0 0 257 257" fill="none" xmlns="http://www.w3.org/2000/svg">
<path d="M72.2752 36.5773L70.4632 36.8152L49.6561 39.5491C49.4673 39.5789 49.2915 39.6724 49.1688 39.8305L35.2737 57.9402C35.151 58.0982 35.0957 58.3044 35.1323 58.5051C35.169 58.7058 35.2838 58.8773 35.4443 58.9906L38.8362 61.2559L71.5381 83.0497L71.5475 83.0522C72.4439 83.6441 73.5685 83.6842 74.4956 83.1489C74.9592 82.8813 75.3235 82.4966 75.5641 82.0487C75.8047 81.6007 75.9241 81.0801 75.886 80.5474L74.2725 55.4087L73.2924 53.7796L73.768 47.6174L73.3629 41.3298L73.0971 37.2597C73.0817 37.0546 72.9906 36.8695 72.8326 36.7468C72.6771 36.6147 72.4803 36.5619 72.2752 36.5773Z" fill="#F9D11F"/>
<path d="M73.0966 37.2605L73.3624 41.3306C72.546 41.3027 71.6795 41.3117 70.763 41.3575C66.034 41.6075 60.0665 42.9926 53.3652 46.8537C45.3633 51.4815 41.2672 56.7941 38.8901 61.2411L38.8544 61.2617L35.4626 58.9965C35.2926 58.8806 35.1778 58.7092 35.1506 58.511C35.1139 58.3102 35.1692 58.104 35.2919 57.946L49.187 39.8363C49.3072 39.6877 49.4761 39.5822 49.6743 39.5549L70.4814 36.821L72.2934 36.5832C72.4916 36.5559 72.6979 36.6111 72.8534 36.7432C72.9901 36.8703 73.0905 37.058 73.0966 37.2605Z" fill="#FDEDA5"/>
<path d="M72.6815 32.1347C67.425 31.8414 59.0056 32.7403 48.7954 38.6352C38.5827 44.5394 33.6039 51.3839 31.2202 56.0803C30.519 57.4598 31.0321 59.1446 32.3634 59.9132C32.4077 59.9352 32.4496 59.9665 32.5033 59.9909C33.1943 60.3368 33.982 60.3972 34.718 60.1624C34.9144 60.1045 35.0996 60.0134 35.266 59.9173C35.7533 59.636 36.1439 59.2282 36.4021 58.7147C38.428 54.7161 42.7192 48.8629 51.6932 43.6818C60.6672 38.5006 67.8843 37.7016 72.3576 37.9557C72.9221 37.9864 73.4799 37.8545 73.9672 37.5732C74.823 37.0791 75.3604 36.1983 75.4123 35.2175C75.4154 35.1681 75.4211 35.1093 75.415 35.0574C75.4177 34.3347 75.1584 33.6524 74.6777 33.1217C74.1652 32.5222 73.4529 32.1806 72.6815 32.1347Z" fill="#F79E60"/>
<path d="M72.6831 32.1347C67.4266 31.8415 59.0072 32.7403 48.797 38.6352C38.5843 44.5394 33.6055 51.3839 31.2218 56.0803C30.5206 57.4598 31.0337 59.1446 32.365 59.9133C32.363 59.4706 32.4623 59.025 32.6741 58.6096C35.0603 53.9038 40.0391 47.0593 50.2493 41.1644C60.4595 35.2696 68.8789 34.3707 74.1355 34.6639C74.6012 34.6882 75.0367 34.825 75.4191 35.0481C75.4218 34.3254 75.1626 33.643 74.6818 33.1123C74.1668 32.5222 73.4545 32.1806 72.6831 32.1347Z" fill="#D77D41"/>
<path d="M51.663 54.0321C50.4819 53.7156 49.2432 53.876 48.1854 54.4868C45.9983 55.7495 45.2448 58.5618 46.5075 60.7488C47.1182 61.8067 48.1107 62.5649 49.2919 62.8814C50.473 63.1979 51.7116 63.0375 52.7695 62.4267C54.9566 61.164 55.7101 58.3517 54.4474 56.1647C53.8367 55.1068 52.8536 54.3511 51.663 54.0321Z" fill="#ED2061"/>
<path d="M61.4666 60.5978C59.2796 61.8605 58.526 64.6728 59.7887 66.8598C60.3995 67.9177 61.3919 68.6759 62.5731 68.9924C63.7543 69.3089 64.9929 69.1485 66.0508 68.5377C68.2378 67.275 68.9914 64.4627 67.7287 62.2757C67.1179 61.2178 66.1254 60.4596 64.9443 60.1431C63.7631 59.8266 62.5339 59.9895 61.4666 60.5978Z" fill="#ED2061"/>
<path d="M73.7703 47.6068L74.2535 55.4025L73.8613 55.6289C73.1957 56.0132 72.4578 56.2174 71.7182 56.2403C71.273 56.2516 70.8242 56.2017 70.3836 56.0836C69.2025 55.7671 68.21 55.0089 67.5993 53.951C66.9679 52.8575 66.8406 51.6077 67.1446 50.4734C67.4485 49.3391 68.1837 48.3203 69.2772 47.689C69.8596 47.3527 70.4844 47.1584 71.1258 47.0892C71.8686 47.0169 72.6318 47.131 73.3541 47.4351L73.7703 47.6068Z" fill="#ED2061"/>
<path d="M67.9326 70.892C67.6107 70.856 67.3017 71.0344 67.1838 71.3243C67.1593 71.3781 66.9581 71.8667 66.841 72.5286C66.6767 73.4792 66.792 74.324 67.1719 74.9683C67.5494 75.6221 68.2233 76.1443 69.1194 76.4748C69.7511 76.7043 70.2749 76.7744 70.3337 76.7801C70.4887 76.8015 70.6494 76.7642 70.7801 76.6887C70.9109 76.6132 71.0235 76.4927 71.0825 76.3477C71.1069 76.294 71.3082 75.8054 71.4253 75.1435C71.5896 74.1928 71.4743 73.3481 71.0944 72.7037C70.7169 72.05 70.043 71.5278 69.1469 71.1973C68.5152 70.9677 67.9914 70.8977 67.9326 70.892Z" fill="#68C044"/>
<path d="M64.6508 52.6608C64.5995 52.6269 64.1811 52.3139 63.5568 52.0562C62.6733 51.6788 61.8201 51.6009 61.1078 51.8219C60.3861 52.0405 59.7297 52.578 59.1936 53.3788C58.8215 53.9422 58.639 54.4359 58.6146 54.4896C58.5036 54.7914 58.6038 55.1297 58.8643 55.3201C58.9155 55.3539 59.334 55.667 59.9582 55.9247C60.8417 56.3021 61.695 56.38 62.4073 56.1589C62.6036 56.101 62.8075 56.015 62.9977 55.9052C63.4851 55.6238 63.9351 55.1818 64.319 54.6115C64.691 54.048 64.8735 53.5544 64.8979 53.5006C65.0208 53.192 64.9112 52.8511 64.6508 52.6608Z" fill="#68C044"/>
<path d="M56.2608 64.137L54.3058 64.7585C53.9225 64.8769 53.7107 65.2923 53.829 65.6757C53.9473 66.0591 54.3628 66.2709 54.7462 66.1525L56.7011 65.531C56.7555 65.5154 56.8006 65.4973 56.8481 65.4699C57.1334 65.3052 57.2782 64.9521 57.1755 64.6232C57.0503 64.2279 56.6442 64.0187 56.2608 64.137Z" fill="#FDEDA5"/>
<path d="M58.4152 48.6379L56.7172 49.8005C56.3862 50.0233 56.3031 50.4833 56.5259 50.8143C56.7418 51.1334 57.1593 51.2251 57.4921 51.033C57.504 51.0261 57.5278 51.0124 57.5397 51.0055L59.2377 49.8429C59.5687 49.6201 59.6518 49.1601 59.429 48.8291C59.2062 48.4982 58.7487 48.4057 58.4152 48.6379Z" fill="#FDEDA5"/>
<path d="M70.2239 58.4839L68.4649 57.8116C68.0906 57.6711 67.6684 57.8594 67.5279 58.2337C67.3874 58.608 67.5757 59.0302 67.95 59.1707L69.709 59.8429C69.9196 59.9195 70.1459 59.8997 70.3361 59.7899C70.4787 59.7076 70.5914 59.5871 70.6554 59.4234C70.7865 59.0465 70.5982 58.6243 70.2239 58.4839Z" fill="#FDEDA5"/>
<path d="M225.687 65.0871L224.667 63.662L212.953 47.2974C212.843 47.1511 212.684 47.0447 212.495 47.0123L190.899 43.4416C190.71 43.4092 190.51 43.4556 190.357 43.5773C190.204 43.699 190.111 43.8736 190.087 44.0606L189.704 47.9531L186.045 85.4615L186.047 85.4706C185.952 86.4962 186.426 87.4656 187.298 88.008C187.733 88.2791 188.223 88.4135 188.711 88.4146C189.199 88.4157 189.693 88.2815 190.126 88.0085L210.661 75.2853L211.596 73.7201L217.023 71.3381L222.159 68.1545L225.481 66.0907C225.648 65.985 225.763 65.8243 225.796 65.6352C225.837 65.444 225.793 65.2536 225.687 65.0871Z" fill="#F9D11F"/>
<path d="M225.483 66.0909L222.16 68.1547C221.815 67.4516 221.416 66.7227 220.963 65.9681C218.615 62.0811 214.747 57.6593 208.453 53.7355C200.923 49.058 194.578 47.9938 189.743 47.9923L189.709 47.9715L190.093 44.0789C190.114 43.8829 190.207 43.7083 190.362 43.5957C190.516 43.474 190.715 43.4275 190.904 43.4599L212.501 47.0306C212.681 47.0651 212.846 47.1604 212.959 47.3157L224.673 63.6803L225.693 65.1055C225.805 65.2608 225.852 65.4602 225.81 65.6514C225.765 65.8245 225.651 65.9943 225.483 66.0909Z" fill="#FDEDA5"/>
<path d="M229.628 63.4238C227.501 58.845 222.936 52.1296 213.337 46.1567C203.728 40.186 195.689 39.0672 190.64 39.1729C189.156 39.2031 187.963 40.3984 187.914 41.8718C187.916 41.9192 187.908 41.9687 187.912 42.0252C187.931 42.766 188.236 43.4595 188.767 43.976C188.905 44.116 189.066 44.2314 189.222 44.3288C189.68 44.6139 190.202 44.76 190.753 44.7463C195.05 44.6533 201.94 45.6383 210.377 50.8881C218.815 56.1378 222.752 61.8814 224.558 65.78C224.787 66.2713 225.15 66.6836 225.609 66.9686C226.413 67.4693 227.401 67.5259 228.254 67.1266C228.297 67.1069 228.35 67.0852 228.391 67.0565C229.003 66.7323 229.463 66.2047 229.695 65.5583C229.971 64.8539 229.938 64.0971 229.628 63.4238Z" fill="#F79E60"/>
<path d="M229.629 63.4238C227.502 58.845 222.937 52.1296 213.338 46.1567C203.729 40.186 195.69 39.0672 190.641 39.1729C189.157 39.2031 187.964 40.3984 187.915 41.8718C188.288 41.6701 188.71 41.5528 189.157 41.5442C194.216 41.4363 202.255 42.5551 211.855 48.528C221.454 54.5008 226.019 61.2163 228.146 65.7951C228.336 66.2 228.417 66.6302 228.401 67.0544C229.013 66.7302 229.473 66.2026 229.705 65.5562C229.971 64.8539 229.939 64.0971 229.629 63.4238Z" fill="#D77D41"/>
<path d="M201.61 55.5388C201.344 54.3967 200.648 53.4215 199.654 52.8026C197.598 51.5232 194.878 52.1565 193.599 54.2128C192.98 55.2074 192.787 56.3894 193.053 57.5315C193.319 58.6736 194.014 59.6488 195.009 60.2677C197.065 61.5471 199.784 60.9138 201.064 58.8575C201.683 57.8629 201.878 56.6899 201.61 55.5388Z" fill="#ED2061"/>
<path d="M200.488 66.7992C198.431 65.5198 195.712 66.1531 194.433 68.2093C193.814 69.2039 193.621 70.386 193.887 71.5281C194.153 72.6702 194.848 73.6454 195.843 74.2642C197.899 75.5436 200.618 74.9103 201.898 72.8541C202.517 71.8595 202.71 70.6774 202.444 69.5353C202.178 68.3932 201.484 67.4271 200.488 66.7992Z" fill="#ED2061"/>
<path d="M217.035 71.3355L210.659 75.2667L210.29 75.0372C209.664 74.6478 209.158 74.1159 208.805 73.5006C208.594 73.1293 208.433 72.7271 208.334 72.3011C208.068 71.159 208.261 69.9769 208.88 68.9823C209.52 67.9542 210.519 67.2818 211.616 67.0264C212.713 66.7709 213.907 66.9325 214.935 67.5722C215.483 67.9129 215.929 68.3535 216.278 68.8649C216.674 69.4605 216.923 70.1576 216.992 70.9059L217.035 71.3355Z" fill="#ED2061"/>
<path d="M194.701 76.9194C194.586 76.6308 194.295 76.45 193.997 76.4813C193.94 76.4849 193.436 76.5354 192.823 76.7355C191.945 77.0261 191.283 77.5052 190.909 78.1178C190.527 78.7324 190.39 79.5384 190.515 80.4457C190.606 81.0838 190.784 81.5585 190.805 81.6107C190.857 81.7515 190.961 81.8706 191.084 81.9471C191.207 82.0236 191.36 82.0644 191.509 82.0488C191.566 82.0452 192.07 81.9946 192.683 81.7946C193.561 81.504 194.224 81.0249 194.597 80.4123C194.979 79.7977 195.117 78.9917 194.991 78.0844C194.9 77.4463 194.723 76.9716 194.701 76.9194Z" fill="#68C044"/>
<path d="M208.639 65.9046C208.644 65.8459 208.72 65.3505 208.656 64.7061C208.576 63.7882 208.256 63.0313 207.747 62.5287C207.237 62.017 206.485 61.7046 205.566 61.613C204.921 61.5529 204.421 61.6216 204.365 61.6252C204.059 61.6676 203.818 61.9053 203.775 62.2116C203.769 62.2702 203.694 62.7656 203.758 63.4101C203.838 64.3279 204.157 65.0849 204.666 65.5875C204.804 65.7274 204.969 65.861 205.148 65.9723C205.606 66.2574 206.183 66.4383 206.839 66.5053C207.484 66.5654 207.984 66.4967 208.04 66.4931C208.357 66.4576 208.595 66.2109 208.639 65.9046Z" fill="#68C044"/>
<path d="M195.139 63.9932L193.73 62.6204C193.457 62.3496 193.01 62.3582 192.739 62.6315C192.468 62.9048 192.477 63.3519 192.75 63.6227L194.159 64.9955C194.197 65.0345 194.233 65.0644 194.277 65.0923C194.545 65.2591 194.91 65.2221 195.141 64.9866C195.419 64.7021 195.413 64.264 195.139 63.9932Z" fill="#FDEDA5"/>
<path d="M209.222 58.8118L207.471 57.9008C207.133 57.7215 206.707 57.8591 206.527 58.1971C206.355 58.5239 206.466 58.9185 206.779 59.1132C206.79 59.1201 206.813 59.134 206.824 59.141L208.574 60.052C208.912 60.2313 209.339 60.0937 209.518 59.7557C209.698 59.4177 209.569 58.989 209.222 58.8118Z" fill="#FDEDA5"/>
<path d="M206.23 73.25L206.003 71.4584C205.953 71.0783 205.603 70.8063 205.223 70.8566C204.843 70.9069 204.571 71.2569 204.621 71.637L204.847 73.4286C204.878 73.6413 204.997 73.8238 205.175 73.9351C205.31 74.0185 205.462 74.0594 205.63 74.0395C206.008 73.9801 206.28 73.6301 206.23 73.25Z" fill="#FDEDA5"/>
<path d="M88.1858 173.332L89.9318 173.18L109.981 171.431C110.163 171.411 110.335 171.328 110.459 171.182L124.529 154.414C124.654 154.267 124.715 154.072 124.688 153.878C124.662 153.684 124.559 153.515 124.41 153.4L121.255 151.088L90.8366 128.84L90.8278 128.837C89.9937 128.232 88.918 128.147 88.0074 128.621C87.552 128.858 87.1869 129.211 86.9377 129.63C86.6884 130.049 86.5522 130.543 86.5665 131.055L87.0603 155.207L87.9312 156.809L87.2176 162.692L87.3426 168.733L87.427 172.644C87.4331 172.841 87.5126 173.022 87.6589 173.146C87.8023 173.279 87.9887 173.338 88.1858 173.332Z" fill="#F9D11F"/>
<path d="M87.4261 172.644L87.3417 168.733C88.1227 168.794 88.9533 168.822 89.8333 168.816C94.3743 168.775 100.15 167.697 106.731 164.279C114.591 160.18 118.738 155.261 121.201 151.1L121.236 151.082L124.391 153.394C124.549 153.512 124.652 153.681 124.67 153.873C124.697 154.066 124.635 154.262 124.511 154.408L110.441 171.177C110.319 171.314 110.153 171.408 109.962 171.426L89.9131 173.174L88.1672 173.326C87.9762 173.344 87.7809 173.283 87.6374 173.15C87.5117 173.022 87.4234 172.838 87.4261 172.644Z" fill="#FDEDA5"/>
<path d="M87.6092 177.571C92.6331 178.072 100.737 177.563 110.766 172.343C120.797 167.113 125.853 160.764 128.334 156.365C129.063 155.072 128.642 153.437 127.399 152.645C127.357 152.622 127.318 152.59 127.268 152.564C126.62 152.204 125.868 152.113 125.153 152.307C124.963 152.355 124.782 152.434 124.618 152.519C124.139 152.768 123.748 153.143 123.479 153.624C121.371 157.37 117.015 162.798 108.201 167.386C99.3861 171.975 92.4382 172.438 88.1632 172.008C87.6236 171.955 87.0837 172.058 86.6051 172.307C85.7645 172.744 85.2127 173.566 85.122 174.503C85.1169 174.55 85.109 174.606 85.1128 174.656C85.0799 175.349 85.2997 176.013 85.7381 176.542C86.204 177.138 86.8721 177.495 87.6092 177.571Z" fill="#F79E60"/>
<path d="M87.6086 177.572C92.6324 178.073 100.736 177.564 110.765 172.343C120.796 167.114 125.853 160.765 128.333 156.365C129.063 155.073 128.641 153.437 127.398 152.645C127.382 153.069 127.268 153.492 127.047 153.881C124.564 158.29 119.508 164.639 109.479 169.859C99.4508 175.08 91.3469 175.589 86.323 175.088C85.8779 175.045 85.4663 174.896 85.1093 174.666C85.0765 175.358 85.2963 176.023 85.7347 176.551C86.2034 177.138 86.8715 177.495 87.6086 177.572Z" fill="#D77D41"/>
<path d="M108.663 157.473C109.781 157.825 110.974 157.724 112.013 157.183C114.162 156.064 115.001 153.402 113.883 151.254C113.342 150.214 112.423 149.446 111.305 149.094C110.186 148.741 108.993 148.843 107.954 149.384C105.806 150.502 104.966 153.165 106.084 155.313C106.625 156.352 107.535 157.117 108.663 157.473Z" fill="#ED2061"/>
<path d="M99.5427 150.773C101.691 149.655 102.531 146.992 101.412 144.844C100.871 143.805 99.9523 143.037 98.834 142.684C97.7156 142.331 96.5222 142.433 95.4831 142.974C93.335 144.092 92.4953 146.755 93.6136 148.903C94.1544 149.942 95.0735 150.71 96.1919 151.063C97.3103 151.416 98.4948 151.311 99.5427 150.773Z" fill="#ED2061"/>
<path d="M87.2132 162.703L87.0764 155.214L87.4617 155.014C88.1154 154.673 88.831 154.509 89.5405 154.518C89.9674 154.525 90.3953 154.592 90.8125 154.724C91.9309 155.076 92.85 155.844 93.3908 156.883C93.9499 157.957 94.0196 159.16 93.6809 160.234C93.3423 161.308 92.5953 162.253 91.5213 162.813C90.9492 163.11 90.3425 163.27 89.725 163.31C89.0104 163.348 88.284 163.207 87.6047 162.885L87.2132 162.703Z" fill="#ED2061"/>
<path d="M93.782 140.638C94.0889 140.686 94.3924 140.528 94.5175 140.255C94.5431 140.205 94.7564 139.745 94.8963 139.116C95.0935 138.212 95.0184 137.398 94.6813 136.764C94.3471 136.122 93.7233 135.594 92.8786 135.24C92.283 134.993 91.7841 134.904 91.728 134.896C91.5804 134.869 91.4249 134.898 91.2964 134.965C91.168 135.032 91.055 135.143 90.9925 135.279C90.9668 135.33 90.7536 135.789 90.6137 136.419C90.4165 137.323 90.4916 138.137 90.8286 138.77C91.1629 139.412 91.7867 139.941 92.6314 140.295C93.227 140.541 93.7259 140.63 93.782 140.638Z" fill="#68C044"/>
<path d="M96.1638 158.242C96.2114 158.277 96.5993 158.594 97.1865 158.867C98.0172 159.266 98.8314 159.376 99.5231 159.194C100.224 159.015 100.875 158.528 101.422 157.783C101.802 157.259 101.998 156.793 102.023 156.743C102.142 156.458 102.06 156.13 101.819 155.937C101.771 155.902 101.383 155.585 100.796 155.312C99.9654 154.913 99.1512 154.803 98.4596 154.985C98.269 155.032 98.07 155.106 97.8833 155.203C97.4046 155.452 96.9549 155.857 96.5633 156.387C96.1833 156.912 95.9878 157.377 95.9621 157.427C95.8314 157.718 95.9222 158.049 96.1638 158.242Z" fill="#68C044"/>
<path d="M104.681 147.598L106.58 147.084C106.952 146.987 107.172 146.597 107.075 146.225C106.978 145.853 106.589 145.633 106.216 145.73L104.317 146.244C104.265 146.256 104.221 146.272 104.174 146.296C103.894 146.442 103.74 146.774 103.825 147.093C103.928 147.477 104.309 147.695 104.681 147.598Z" fill="#FDEDA5"/>
<path d="M101.969 162.357L103.645 161.314C103.971 161.114 104.07 160.677 103.87 160.351C103.677 160.036 103.281 159.931 102.954 160.101C102.942 160.107 102.919 160.119 102.907 160.125L101.232 161.168C100.905 161.368 100.806 161.805 101.006 162.131C101.206 162.458 101.64 162.565 101.969 162.357Z" fill="#FDEDA5"/>
<path d="M91.0677 152.429L92.7248 153.147C93.0776 153.297 93.4899 153.135 93.6402 152.782C93.7904 152.429 93.6277 152.017 93.275 151.867L91.6179 151.149C91.4194 151.067 91.2017 151.076 91.0149 151.173C90.8748 151.246 90.7618 151.357 90.6937 151.511C90.5523 151.867 90.715 152.279 91.0677 152.429Z" fill="#FDEDA5"/>
<path d="M206.038 156.925C205.695 157.415 205.711 158.074 206.077 158.521C206.143 158.608 206.757 159.367 207.727 160.142C209.124 161.248 210.596 161.808 211.977 161.761C213.37 161.727 214.813 161.096 216.141 159.935C217.072 159.113 217.648 158.326 217.71 158.235C217.881 158.003 217.963 157.709 217.956 157.431C217.949 157.152 217.853 156.863 217.67 156.639C217.605 156.552 216.99 155.793 216.02 155.018C214.624 153.912 213.152 153.352 211.771 153.398C210.377 153.433 208.935 154.064 207.607 155.225C206.676 156.047 206.099 156.834 206.038 156.925Z" fill="#68C044"/>
<path d="M135.666 80.6457C135.577 80.0541 135.111 79.5881 134.537 79.5164C134.43 79.4985 133.462 79.373 132.225 79.4805C130.45 79.6419 128.998 80.2513 128.03 81.2372C127.044 82.2231 126.435 83.6751 126.274 85.4317C126.166 86.6686 126.291 87.6366 126.309 87.7441C126.345 88.0309 126.489 88.2998 126.686 88.497C126.883 88.6941 127.152 88.8375 127.439 88.8734C127.546 88.8913 128.514 89.0168 129.751 88.9093C131.526 88.7479 132.978 88.1385 133.946 87.1526C134.931 86.1667 135.541 84.7147 135.702 82.958C135.81 81.7212 135.684 80.7532 135.666 80.6457Z" fill="#68C044"/>
<path d="M39.2771 142.281C38.809 141.908 38.1504 141.884 37.6812 142.221C37.5901 142.281 36.7953 142.848 35.9619 143.768C34.771 145.094 34.1213 146.528 34.0826 147.909C34.0306 149.303 34.5717 150.781 35.6484 152.179C36.411 153.158 37.1615 153.783 37.2478 153.849C37.4692 154.035 37.7572 154.134 38.0358 154.145C38.3145 154.155 38.6091 154.077 38.8437 153.909C38.9347 153.849 39.7296 153.282 40.563 152.362C41.7539 151.036 42.4035 149.602 42.4423 148.221C42.4943 146.828 41.9532 145.349 40.8765 143.951C40.1139 142.972 39.3634 142.348 39.2771 142.281Z" fill="#68C044"/>
<path d="M181.822 203.979C182.345 203.688 182.619 203.088 182.485 202.526C182.464 202.419 182.243 201.468 181.71 200.347C180.937 198.741 179.858 197.594 178.596 197.032C177.328 196.454 175.754 196.391 174.052 196.855C172.856 197.187 171.993 197.643 171.898 197.697C171.642 197.831 171.441 198.06 171.325 198.313C171.209 198.567 171.169 198.869 171.236 199.15C171.257 199.257 171.478 200.208 172.011 201.329C172.783 202.935 173.862 204.082 175.125 204.644C176.393 205.222 177.967 205.285 179.669 204.822C180.865 204.49 181.728 204.033 181.822 203.979Z" fill="#68C044"/>
<path d="M138.862 44.8449C135.564 41.5467 130.186 41.5467 126.888 44.8449C125.292 46.4403 124.414 48.5734 124.414 50.832C124.414 53.0906 125.292 55.2237 126.888 56.819C130.186 60.1173 135.564 60.1173 138.862 56.819C140.457 55.2237 141.336 53.0906 141.336 50.832C141.336 48.5734 140.457 46.4582 138.862 44.8449Z" fill="#ED2061"/>
<path d="M180.592 113.188C177.294 109.89 171.916 109.89 168.618 113.188C167.023 114.784 166.145 116.917 166.145 119.175C166.145 121.434 167.023 123.567 168.618 125.162C171.916 128.461 177.294 128.461 180.592 125.162C182.188 123.567 183.066 121.434 183.066 119.175C183.066 116.917 182.188 114.801 180.592 113.188Z" fill="#ED2061"/>
<path d="M131.03 116.063L131.388 112.603C131.46 111.869 130.922 111.205 130.187 111.134C129.452 111.062 128.789 111.6 128.717 112.335L128.359 115.794C128.323 116.206 128.466 116.601 128.753 116.888C128.968 117.103 129.237 117.246 129.56 117.282C130.295 117.336 130.958 116.798 131.03 116.063Z" fill="#FDEDA5"/>
<path d="M146.422 186.184L146.781 182.724C146.853 181.989 146.315 181.326 145.58 181.254C144.845 181.182 144.182 181.72 144.11 182.455L143.752 185.915C143.716 186.327 143.859 186.721 144.146 187.008C144.361 187.223 144.63 187.367 144.953 187.402C145.687 187.456 146.351 186.918 146.422 186.184Z" fill="#FDEDA5"/>
<path d="M84.5474 192.343L84.9059 188.883C84.9776 188.148 84.4398 187.485 83.7049 187.413C82.97 187.342 82.3067 187.879 82.235 188.614L81.8765 192.074C81.8407 192.486 81.9841 192.881 82.2709 193.167C82.486 193.383 82.7548 193.526 83.0775 193.562C83.8124 193.616 84.4757 193.078 84.5474 192.343Z" fill="#FDEDA5"/>
<path d="M65.8951 110.656L62.7527 109.165C62.0836 108.853 61.2791 109.139 60.9666 109.808C60.6542 110.477 60.9402 111.282 61.6093 111.594L64.7518 113.085C65.1286 113.256 65.5482 113.252 65.9141 113.077C66.1886 112.946 66.4134 112.74 66.5547 112.448C66.8503 111.773 66.5642 110.969 65.8951 110.656Z" fill="#FDEDA5"/>
<path d="M213.895 109.452L217.196 108.356C217.895 108.119 218.279 107.356 218.042 106.656C217.805 105.957 217.042 105.574 216.342 105.811L213.042 106.908C212.651 107.045 212.351 107.337 212.207 107.717C212.1 108.001 212.08 108.306 212.18 108.614C212.433 109.306 213.196 109.69 213.895 109.452Z" fill="#FDEDA5"/>
<path d="M172.131 152.162C168.833 148.864 163.456 148.864 160.157 152.162C158.562 153.758 157.684 155.891 157.684 158.15C157.684 160.408 158.562 162.541 160.157 164.137C163.456 167.435 168.833 167.435 172.131 164.137C173.727 162.541 174.605 160.408 174.605 158.15C174.605 155.891 173.727 153.776 172.131 152.162Z" fill="#ED2061"/>
<path d="M41.6021 91.426C38.3039 88.1278 32.9263 88.1278 29.628 91.426C28.0326 93.0214 27.1543 95.1545 27.1543 97.4131C27.1543 99.6717 28.0326 101.805 29.628 103.4C32.9263 106.698 38.3039 106.698 41.6021 103.4C43.1975 101.805 44.0758 99.6717 44.0758 97.4131C44.0758 95.1545 43.1975 93.0393 41.6021 91.426Z" fill="#ED2061"/>
</svg>
