<svg width="128" height="128" viewBox="0 0 128 128" fill="none" xmlns="http://www.w3.org/2000/svg">
<path d="M32.5803 46.501C32.5803 63.5769 46.4236 77.4192 63.5001 77.4186C80.5766 77.418 94.4199 63.5748 94.4199 46.4988C94.4199 29.4229 80.5767 15.5806 63.5001 15.5812C46.4236 15.5818 32.5803 29.425 32.5803 46.501Z" fill="#BA2B28"/>
<path fill-rule="evenodd" clip-rule="evenodd" d="M90.8396 46.499C90.8396 31.4003 78.5993 19.1607 63.5 19.1612C48.4007 19.1617 36.1604 31.402 36.1604 46.5008C36.1604 61.5995 48.4007 73.839 63.5 73.8386C78.5993 73.8381 90.8396 61.5978 90.8396 46.499ZM63.5 12.0011C82.5538 12.0005 98 27.4456 98 46.4988C98 65.552 82.5538 80.9981 63.5 80.9987C44.4462 80.9993 29 65.5541 29 46.501C29 27.4478 44.4462 12.0017 63.5 12.0011Z" fill="black"/>
<path d="M25 71.5027C25 92.7657 42.237 110.002 63.5 110.001C84.763 110.001 102 92.763 102 71.5C102 50.237 84.763 33.0006 63.5 33.0013C42.237 33.0021 25 50.2397 25 71.5027Z" fill="#E8E8E8"/>
<mask id="mask0" mask-type="alpha" maskUnits="userSpaceOnUse" x="25" y="33" width="77" height="78">
<path d="M25 71.5027C25 92.7657 42.237 110.002 63.5 110.001C84.763 110.001 102 92.763 102 71.5C102 50.237 84.763 33.0006 63.5 33.0013C42.237 33.0021 25 50.2397 25 71.5027Z" fill="#E8E8E8"/>
</mask>
<g mask="url(#mask0)">
<path fill-rule="evenodd" clip-rule="evenodd" d="M63.6396 71.794L4.24264 12.397L0 16.6396L63.6396 80.2793L127.279 16.6396L123.037 12.397L63.6396 71.794Z" fill="#C72F2B"/>
</g>
<path d="M23.2152 102.497C23.2152 109.28 28.7153 114.78 35.4999 114.782C42.2846 114.783 47.7847 109.285 47.7847 102.502C47.7847 95.7187 42.2846 90.2186 35.4999 90.2173C28.7153 90.2159 23.2152 95.7138 23.2152 102.497Z" fill="#214724"/>
<path fill-rule="evenodd" clip-rule="evenodd" d="M35.5 88.0029C43.5081 88.0045 50 94.4964 50 102.503C50 110.509 43.5081 116.999 35.5 116.997C27.4919 116.995 21 110.504 21 102.497C21 94.4905 27.4919 88.0013 35.5 88.0029ZM45.5694 102.502C45.5694 96.942 41.0612 92.4337 35.5 92.4326C29.9388 92.4314 25.4306 96.9379 25.4306 102.498C25.4306 108.058 29.9388 112.566 35.5 112.567C41.0612 112.569 45.5694 108.062 45.5694 102.502Z" fill="black"/>
<path d="M80.2152 102.497C80.2152 109.28 85.7153 114.78 92.4999 114.782C99.2846 114.783 104.785 109.285 104.785 102.502C104.785 95.7187 99.2846 90.2186 92.4999 90.2173C85.7153 90.2159 80.2152 95.7138 80.2152 102.497Z" fill="#214724"/>
<path fill-rule="evenodd" clip-rule="evenodd" d="M92.5 88.0029C100.508 88.0045 107 94.4964 107 102.503C107 110.509 100.508 116.999 92.5 116.997C84.4919 116.995 78 110.504 78 102.497C78 94.4905 84.4919 88.0013 92.5 88.0029ZM102.569 102.502C102.569 96.942 98.0612 92.4337 92.5 92.4326C86.9388 92.4314 82.4306 96.9379 82.4306 102.498C82.4306 108.058 86.9388 112.566 92.5 112.567C98.0612 112.569 102.569 108.062 102.569 102.502Z" fill="black"/>
</svg>
