<svg width="256" height="256" viewBox="0 0 256 256" fill="none" xmlns="http://www.w3.org/2000/svg">
<path d="M82.104 68.376L74.3897 78.4748L54.0048 60.698L42.5217 50.6486L49.8382 40.7475L59.9226 49.3824L82.104 68.376Z" fill="#D6865C"/>
<path d="M74.3893 78.4748L82.1036 68.376L93.1919 63.9889L85.7536 73.6105L74.3893 78.4748Z" fill="#BB7053"/>
<path d="M93.1926 63.989L62.3564 38.407L49.8385 40.7476L82.1043 68.376L93.1926 63.989Z" fill="#F8A772"/>
<path d="M145.493 185.708L154.098 180.27L164.462 199.296L170.29 210.04L162.039 215.441L156.867 206.148L145.493 185.708Z" fill="#D6865C"/>
<path d="M154.099 180.269L145.494 185.708L135.944 185.917L144.209 180.76L154.099 180.269Z" fill="#BB7053"/>
<path d="M135.944 185.917L151.986 213.715L162.04 215.44L145.494 185.708L135.944 185.917Z" fill="#F8A772"/>
<path d="M193.78 124.339L162.079 125.698L160.964 114.906L192.838 113.877L193.78 124.339Z" fill="#D6865C"/>
<path d="M162.079 125.698L160.964 114.906L155.41 106.073L156.534 116.411L162.079 125.698Z" fill="#EC9661"/>
<path d="M155.409 106.073L185.544 105.635L192.838 113.877L160.963 114.906L155.409 106.073Z" fill="#F8A772"/>
<path d="M112.386 164.132C111.208 165.596 109.87 166.934 108.246 167.825C105.54 169.29 102.324 169.29 99.267 169.258C96.6879 169.226 94.0769 169.163 91.4977 169.067C89.4599 169.003 87.1673 168.781 85.7981 167.252C84.62 165.915 84.4926 163.941 83.4737 162.476C82.7413 161.393 81.595 160.693 80.8945 159.642C80.194 158.623 79.9711 157.349 80.0029 156.108C80.0348 155.407 80.1303 154.675 80.2577 154.006C81.4676 147.542 84.5563 142.066 90.7017 139.709C91.4022 139.423 92.1345 139.2 92.8669 138.977C93.5674 138.786 94.2679 138.595 94.9684 138.467C100.573 137.353 106.431 138.149 111.208 141.747C113.182 143.244 114.933 145.154 115.92 147.415C118.34 152.892 116.143 159.451 112.386 164.132Z" fill="#B4BCC5"/>
<path d="M113.756 162.221C113.342 162.89 112.864 163.527 112.387 164.132C112.259 164.291 112.132 164.45 112.005 164.609C110.922 165.883 109.712 167.061 108.247 167.825C105.541 169.29 102.325 169.29 99.268 169.258C96.6888 169.226 94.0778 169.163 91.4987 169.067C89.4608 169.003 87.1682 168.781 85.799 167.252C85.5125 166.934 85.2896 166.583 85.0985 166.201C85.0667 166.17 85.0667 166.106 85.0348 166.074C84.4935 164.896 84.207 163.559 83.4746 162.476C85.1941 162.317 87.0409 162.731 88.824 162.635C93.0271 162.38 96.4023 159.196 99.3317 156.203C100.86 154.675 102.42 153.051 103.121 151.013C104.14 148.179 103.28 144.868 101.497 142.448C99.5227 139.773 97.1665 139.614 95.0012 138.467C100.605 137.353 106.464 138.149 111.24 141.747C113.215 143.244 114.966 145.154 115.953 147.415C118.054 152.191 116.653 157.763 113.756 162.221Z" fill="#A3ABB9"/>
<path d="M99.2043 147.893C99.1088 148.816 98.2809 149.453 97.5167 149.962C94.5236 151.968 91.4987 153.911 88.4419 155.757C87.7414 156.203 86.9454 156.649 86.1175 156.617C85.3851 156.617 84.7164 156.235 83.9841 156.044C82.6786 155.694 81.3412 155.917 80.0039 156.108C80.0357 155.407 80.1313 154.675 80.2586 154.006C81.4686 147.542 84.5572 142.066 90.7027 139.709C91.4032 139.423 92.1355 139.2 92.8679 138.977C92.9634 139.072 93.0589 139.168 93.1544 139.263C95.1923 141.301 96.9754 143.562 98.5038 145.982C98.8859 146.555 99.268 147.224 99.2043 147.893Z" fill="#BCC5C9"/>
<path d="M85.1617 146.874C84.6204 147.638 84.0472 148.434 83.7925 149.325C83.697 149.644 83.6651 149.994 83.8243 150.281C83.9835 150.567 84.302 150.695 84.6204 150.79C85.8304 151.077 87.0722 150.631 88.1548 150.026C89.2374 149.453 90.32 148.752 91.53 148.498C92.2305 148.37 92.9947 148.37 93.5678 147.988C94.3957 147.447 94.5868 146.269 94.3002 145.313C93.7907 143.721 91.6892 141.047 89.7787 141.874C87.9 142.702 86.308 145.282 85.1617 146.874Z" fill="#C6CED4"/>
<path d="M113.756 162.221C113.342 162.89 112.865 163.527 112.387 164.132C112.26 164.291 112.132 164.45 112.005 164.609C110.922 165.883 109.712 167.061 108.248 167.825C105.541 169.29 102.325 169.29 99.2683 169.258C96.6891 169.226 94.0781 169.163 91.499 169.067C89.4611 169.003 87.1685 168.781 85.7994 167.252C85.5128 166.934 85.2899 166.583 85.0988 166.201C85.067 166.17 85.067 166.106 85.0352 166.074C85.7357 166.138 86.468 166.138 87.2004 166.17C89.4611 166.361 91.5945 167.252 93.8553 167.316C95.9886 167.38 98.0902 166.647 100.255 166.52C102.166 166.392 104.14 166.743 106.019 166.265C108.088 165.756 109.776 164.355 111.591 163.304C112.291 162.858 113.024 162.508 113.756 162.221Z" fill="#97A2B2"/>
<path d="M105.317 157.477C103.152 159.292 100.541 160.502 98.439 162.412C98.025 162.794 97.5793 163.495 97.9932 163.909C98.2161 164.132 98.5982 164.132 98.9166 164.068C99.8082 163.845 100.509 163.24 101.305 162.731C103.757 161.17 106.909 161.043 109.424 159.61C111.526 158.432 113.118 156.267 113.341 153.847C113.564 151.459 112.258 148.911 110.061 147.893C109.87 147.797 109.647 147.733 109.424 147.829C109.233 147.924 109.138 148.147 109.074 148.37C108.565 149.994 108.883 151.586 108.374 153.178C107.832 154.866 106.654 156.331 105.317 157.477Z" fill="#97A2B2"/>
<path d="M130.411 64.4349C128.42 63.6627 126.511 62.6741 124.987 61.2219C122.47 58.7943 121.364 55.3112 120.348 51.9896C119.495 49.1853 118.666 46.3355 117.883 43.5093C117.251 41.2803 116.704 38.7206 117.888 36.7121C118.932 34.9762 121.026 34.1593 122.262 32.5521C123.183 31.3866 123.547 29.9042 124.444 28.7841C125.307 27.675 126.61 26.9956 127.966 26.6031C128.735 26.3966 129.561 26.2482 130.329 26.1562C137.746 25.2438 144.74 26.7056 149.405 32.5511C149.956 33.2112 150.45 33.9278 150.943 34.6443C151.391 35.3373 151.839 36.0303 152.217 36.7452C155.352 42.4315 156.504 49.0507 154.25 55.461C153.308 58.1138 151.841 60.6675 149.732 62.5141C144.633 67.0185 136.773 66.8946 130.411 64.4349Z" fill="#B4BCC5"/>
<path d="M132.952 65.2617C132.086 65.0434 131.232 64.7451 130.412 64.4358C130.196 64.3526 129.98 64.2694 129.763 64.1862C128.012 63.4517 126.32 62.5464 124.988 61.2228C122.471 58.7952 121.365 55.3121 120.348 51.9905C119.496 49.1862 118.667 46.3364 117.883 43.5102C117.252 41.2811 116.705 38.7215 117.889 36.713C118.135 36.2931 118.438 35.9312 118.786 35.5929C118.81 35.5475 118.879 35.5256 118.902 35.4802C119.992 34.4887 121.342 33.7185 122.263 32.553C123.026 34.3605 123.213 36.503 123.93 38.4014C125.651 42.866 130.26 45.4265 134.51 47.5699C136.691 48.6996 138.986 49.831 141.434 49.8889C144.854 50.0179 148.144 47.9479 150.152 45.1845C152.37 42.1265 151.732 39.5198 152.229 36.7806C155.363 42.4669 156.516 49.0861 154.262 55.4964C153.32 58.1492 151.853 60.7029 149.744 62.5495C145.294 66.4681 138.777 66.8669 132.952 65.2617Z" fill="#A3ABB9"/>
<path d="M143.466 44.5732C142.433 44.7873 141.459 44.1096 140.644 43.4572C137.442 40.9053 134.299 38.2971 131.247 35.6215C130.523 35.0161 129.767 34.3073 129.517 33.3997C129.265 32.6065 129.449 31.7509 129.404 30.892C129.334 29.3576 128.633 27.9859 127.966 26.6032C128.736 26.3967 129.562 26.2483 130.33 26.1563C137.746 25.2439 144.74 26.7057 149.406 32.5512C149.957 33.2113 150.45 33.9279 150.943 34.6444C150.873 34.7807 150.802 34.917 150.732 35.0533C149.225 37.9612 147.39 40.6699 145.295 43.1575C144.805 43.7684 144.212 44.4122 143.466 44.5732Z" fill="#BCC5C9"/>
<path d="M139.74 29.0144C138.726 28.6909 137.667 28.3439 136.614 28.3747C136.236 28.3807 135.846 28.4667 135.59 28.7376C135.334 29.0086 135.306 29.3973 135.312 29.775C135.418 31.184 136.327 32.3757 137.355 33.3402C138.348 34.3156 139.479 35.2472 140.171 36.4701C140.55 37.185 140.813 38.0127 141.424 38.502C142.295 39.2125 143.636 39.0143 144.572 38.3754C146.121 37.2761 148.296 34.0802 146.742 32.2957C145.199 30.5457 141.858 29.7084 139.74 29.0144Z" fill="#C6CED4"/>
<path d="M132.951 65.2604C132.085 65.042 131.231 64.7438 130.411 64.4345C130.195 64.3513 129.979 64.2681 129.763 64.1849C128.011 63.4504 126.319 62.5451 124.987 61.2215C122.47 58.7939 121.364 55.3108 120.347 51.9892C119.495 49.1848 118.666 46.3351 117.883 43.5088C117.251 41.2798 116.704 38.7202 117.888 36.7117C118.135 36.2918 118.437 35.9299 118.785 35.5916C118.809 35.5462 118.878 35.5243 118.901 35.4788C119.073 36.2594 119.325 37.0526 119.543 37.8567C120.113 40.371 119.881 42.9881 120.59 45.4586C121.254 47.791 122.77 49.8153 123.653 52.1165C124.448 54.1419 124.747 56.4005 125.911 58.2709C127.174 60.3373 129.272 61.6833 131.034 63.2877C131.758 63.893 132.389 64.5658 132.951 65.2604Z" fill="#97A2B2"/>
<path d="M135.188 54.491C132.478 52.7701 130.269 50.3583 127.478 48.7393C126.921 48.4223 126.009 48.1804 125.703 48.7711C125.539 49.0892 125.67 49.503 125.848 49.826C126.396 50.7149 127.293 51.2656 128.118 51.9525C130.651 54.0714 131.873 57.4417 134.29 59.6734C136.289 61.5443 139.181 62.524 141.879 61.9332C144.542 61.3533 146.852 59.0634 147.2 56.3334C147.238 56.0937 147.23 55.8304 147.05 55.6218C146.881 55.4478 146.607 55.4209 146.343 55.4286C144.409 55.4353 142.794 56.3277 140.895 56.3234C138.881 56.3175 136.89 55.5452 135.188 54.491Z" fill="#97A2B2"/>
<path d="M229.694 71.3719C228.95 73.5191 226.776 74.8681 224.573 75.3911C222.371 75.9142 220.059 75.7215 217.801 75.749C215.269 75.7765 212.763 76.0793 210.286 76.6299C208.414 77.0428 206.459 77.621 204.587 77.2356C203.624 77.0428 202.743 76.6299 201.862 76.1894C199.494 75.0608 197.127 73.9045 194.732 72.7759C194.291 72.5556 193.851 72.3354 193.521 71.9775C193.053 71.4545 192.943 70.7938 193.025 70.1055C193.108 69.4448 193.355 68.7566 193.631 68.151C194.154 67.0223 194.759 65.9211 195.448 64.8475C196.576 63.0856 197.925 61.489 199.439 60.0299C200.816 58.7361 202.33 57.5523 203.514 56.0657C205.964 53.0651 207.615 46.7334 212.461 47.0087C212.543 47.0087 212.653 47.0362 212.763 47.0362C213.617 47.1188 214.47 47.3941 215.324 47.752C219.315 49.4863 223.142 53.8084 225.179 56.9191C226.803 59.3692 227.849 62.1772 228.868 64.9301C229.639 67.0223 230.437 69.2797 229.694 71.3719Z" fill="#B4BCC5"/>
<path d="M229.996 69.8853C229.969 70.3808 229.886 70.8763 229.721 71.3719C228.978 73.5191 226.803 74.868 224.601 75.3911C222.398 75.9141 220.086 75.7214 217.828 75.749C215.296 75.7765 212.791 76.0793 210.313 76.6299C208.441 77.0428 206.486 77.6209 204.614 77.2355C203.651 77.0428 202.77 76.6299 201.889 76.1894C200.32 75.4461 198.778 74.7029 197.237 73.9596C196.411 73.5742 195.585 73.1612 194.787 72.7758C194.346 72.5556 193.906 72.3354 193.575 71.9775C193.107 71.4544 192.997 70.7937 193.08 70.1055C197.595 70.9864 202.137 71.7573 206.707 72.3629C208.028 72.5281 209.405 72.6932 210.671 72.2803C212.13 71.8123 213.259 70.601 214.718 70.1606C217.305 69.3622 220.609 70.8763 222.563 69.0044C224.435 67.215 223.224 64.0767 221.93 61.8193C220.168 58.7911 218.434 55.7904 216.7 52.7622C216.094 51.6886 215.461 50.5874 215.296 49.3762C215.213 48.7981 215.268 48.22 215.406 47.6694C219.315 49.4863 223.141 53.8083 225.179 56.9191C226.803 59.3692 227.849 62.1772 228.868 64.9301C229.473 66.5267 230.051 68.2335 229.996 69.8853Z" fill="#A3ABB9"/>
<path d="M211.636 65.0953C210.397 66.1138 208.635 66.3891 207.149 65.8385C206.626 65.6458 206.158 65.343 205.635 65.2329C203.928 64.8475 202.386 66.2239 200.679 66.5818C199.165 66.9122 196.302 66.747 195.586 65.1778C195.559 65.0953 195.531 65.0127 195.504 64.9301C196.633 63.1682 197.982 61.5715 199.496 60.1125C200.872 58.8186 202.386 57.6349 203.57 56.1483C205.965 53.0651 207.617 46.7334 212.462 47.0087C212.489 47.1188 212.489 47.2565 212.489 47.3666C212.627 48.9082 212.765 50.4223 212.902 51.9639C213.012 53.1477 213.122 54.3865 212.82 55.5427C212.682 56.1208 212.434 56.6714 212.379 57.277C212.269 58.4883 212.985 59.617 213.178 60.8283C213.48 62.3974 212.847 64.0767 211.636 65.0953Z" fill="#BCC5C9"/>
<path d="M207.339 54.7719C207.146 55.1573 206.816 55.4326 206.486 55.7354C204.146 57.7725 202.054 60.085 200.209 62.5901C200.044 62.8103 199.879 63.0856 199.961 63.3334C200.072 63.7463 200.622 63.7738 201.035 63.6913C202.797 63.3059 204.311 62.0671 206.1 61.9845C206.706 61.9569 207.339 62.067 207.89 61.8193C208.661 61.4889 209.046 60.608 209.321 59.8097C210.065 57.6899 211.909 52.8724 210.367 50.7526C208.385 47.9997 207.78 53.8634 207.339 54.7719Z" fill="#C6CED4"/>
<path d="M229.996 69.8853C229.968 70.3808 229.886 70.8764 229.721 71.3719C228.977 73.5191 226.802 74.8681 224.6 75.3911C222.398 75.9142 220.085 75.7215 217.828 75.749C215.295 75.7765 212.79 76.0793 210.313 76.6299C208.441 77.0429 206.486 77.621 204.614 77.2356C203.651 77.0429 202.77 76.6299 201.889 76.1895C200.32 75.4462 198.778 74.7029 197.236 73.9596C198.53 74.0147 199.824 73.9596 201.09 74.2349C201.944 74.4276 202.77 74.7304 203.623 74.9231C207.395 75.749 211.221 74.0422 215.075 74.0697C216.507 74.0973 217.993 74.345 219.315 73.822C219.7 73.6843 220.058 73.4641 220.443 73.354C221.379 73.0787 222.37 73.3815 223.334 73.4641C225.922 73.7118 228.619 72.2803 229.886 70.023C229.913 69.9954 229.941 69.9404 229.996 69.8853Z" fill="#97A2B2"/>
<path d="M187.52 160.912C187.326 159.183 188.384 157.535 189.733 156.448C191.082 155.36 192.743 154.732 194.293 153.969C196.033 153.115 197.664 152.08 199.194 150.883C200.351 149.981 201.511 148.937 202.931 148.587C203.66 148.402 204.405 148.397 205.159 148.411C207.166 148.411 209.183 148.429 211.209 148.42C211.586 148.427 211.963 148.433 212.309 148.572C212.805 148.779 213.099 149.199 213.268 149.702C213.429 150.185 213.485 150.742 213.494 151.252C213.505 152.204 213.449 153.164 213.328 154.132C213.129 155.721 212.723 157.269 212.158 158.776C211.633 160.123 210.978 161.44 210.65 162.857C209.946 165.737 210.892 170.656 207.454 172.062C207.397 172.09 207.312 172.107 207.236 172.143C206.619 172.367 205.939 172.458 205.231 172.492C201.902 172.61 197.835 170.885 195.402 169.408C193.473 168.25 191.825 166.655 190.214 165.089C188.992 163.898 187.696 162.602 187.52 160.912Z" fill="#B4BCC5"/>
<path d="M187.8 162.038C187.655 161.687 187.549 161.317 187.5 160.921C187.306 159.192 188.364 157.544 189.713 156.457C191.062 155.369 192.722 154.74 194.273 153.977C196.013 153.124 197.644 152.089 199.174 150.892C200.331 149.99 201.491 148.946 202.911 148.596C203.64 148.411 204.385 148.406 205.139 148.42C206.468 148.417 207.777 148.422 209.087 148.427C209.785 148.421 210.491 148.434 211.17 148.438C211.547 148.445 211.924 148.452 212.27 148.59C212.766 148.797 213.059 149.217 213.229 149.72C209.82 150.599 206.428 151.564 203.072 152.651C202.104 152.973 201.099 153.312 200.36 154.015C199.507 154.819 199.126 156.028 198.264 156.813C196.739 158.217 193.958 158.26 193.225 160.197C192.521 162.05 194.392 163.819 196.03 164.952C198.245 166.463 200.432 167.965 202.628 169.485C203.4 170.027 204.201 170.579 204.714 171.361C204.962 171.733 205.114 172.151 205.2 172.577C201.901 172.61 197.833 170.885 195.401 169.408C193.471 168.25 191.823 166.655 190.212 165.089C189.268 164.186 188.306 163.197 187.8 162.038Z" fill="#A3ABB9"/>
<path d="M202.062 159.296C202.582 158.184 203.709 157.413 204.917 157.304C205.342 157.265 205.765 157.32 206.163 157.223C207.469 156.927 208.08 155.468 209.141 154.658C210.078 153.931 212.111 153.102 213.122 153.95C213.168 153.998 213.215 154.046 213.261 154.094C213.062 155.683 212.656 157.23 212.091 158.737C211.567 160.085 210.911 161.401 210.583 162.818C209.945 165.738 210.89 170.656 207.453 172.063C207.397 171.996 207.352 171.9 207.316 171.824C206.712 170.805 206.118 169.804 205.515 168.785C205.049 168.003 204.565 167.184 204.393 166.285C204.297 165.84 204.287 165.378 204.125 164.942C203.802 164.069 202.936 163.525 202.404 162.752C201.677 161.768 201.561 160.399 202.062 159.296Z" fill="#BCC5C9"/>
<path d="M208.433 165.012C208.439 164.682 208.576 164.383 208.705 164.065C209.65 161.887 210.333 159.6 210.782 157.261C210.823 157.055 210.846 156.81 210.708 156.666C210.496 156.417 210.106 156.58 209.848 156.773C208.758 157.62 208.12 158.974 206.911 159.621C206.502 159.84 206.028 159.972 205.73 160.325C205.306 160.807 205.33 161.543 205.403 162.185C205.588 163.894 205.902 167.83 207.665 168.786C209.942 170.035 208.428 165.785 208.433 165.012Z" fill="#C6CED4"/>
<path d="M187.801 162.038C187.657 161.687 187.551 161.317 187.502 160.92C187.307 159.192 188.365 157.544 189.714 156.456C191.063 155.369 192.724 154.74 194.274 153.977C196.015 153.124 197.646 152.089 199.176 150.892C200.333 149.99 201.492 148.946 202.913 148.596C203.642 148.411 204.386 148.406 205.14 148.42C206.469 148.416 207.779 148.422 209.089 148.427C208.177 148.816 207.301 149.28 206.336 149.507C205.683 149.655 205.012 149.718 204.359 149.866C201.482 150.539 199.401 152.979 196.73 154.23C195.732 154.683 194.623 155.002 193.883 155.799C193.662 156.021 193.487 156.291 193.257 156.494C192.701 156.992 191.917 157.11 191.224 157.37C189.355 158.052 187.963 159.93 187.832 161.907C187.822 161.935 187.821 161.982 187.801 162.038Z" fill="#97A2B2"/>
<path d="M52.3591 133.811C51.9708 134.996 51.1453 135.987 50.308 136.937C46.8323 140.853 42.8371 144.287 38.8559 147.709C37.9165 148.519 36.9362 149.341 35.7445 149.736C35.1692 149.928 34.5317 149.995 33.9421 149.889C33.3115 149.794 32.7159 149.512 32.3042 149.035C32.2397 148.965 32.1892 148.882 32.1247 148.812C31.5147 147.921 31.5115 146.733 31.6126 145.63C31.8125 143.168 31.9865 139.097 33.6904 137.144C33.7045 137.132 33.7045 137.132 33.7185 137.119C34.7959 135.922 36.6331 135.272 37.8688 134.163C38.3736 133.726 38.8257 133.259 39.3176 132.808C40.1901 131.981 41.0756 131.168 42.1534 130.593C43.8674 129.667 45.8619 129.442 47.8109 129.336C49.2184 129.261 50.7831 129.301 51.7659 130.315C52.6338 131.176 52.7474 132.626 52.3591 133.811Z" fill="#B4BCC5"/>
<path d="M52.5609 132.564C52.5565 132.982 52.4841 133.411 52.345 133.824C51.9567 135.009 51.1311 136 50.2938 136.95C46.8182 140.866 42.8229 144.3 38.8417 147.722C37.9164 148.519 36.9501 149.329 35.7983 149.738C35.7843 149.751 35.7573 149.75 35.7433 149.763C35.168 149.955 34.5304 150.022 33.9409 149.916C34.8157 149.035 35.6906 148.154 36.5654 147.273C39.3727 144.463 42.1811 141.626 44.9239 138.746C45.6734 137.954 46.424 137.135 46.7913 136.125C47.1457 135.1 46.9842 133.824 46.1212 133.166C45.3097 132.564 44.1847 132.665 43.2156 132.907C42.2466 133.149 41.2319 133.511 40.2414 133.306C39.8932 133.237 39.5497 133.061 39.2765 132.819C40.149 131.992 41.0345 131.18 42.1123 130.605C43.8263 129.679 45.8209 129.453 47.7698 129.348C49.1773 129.273 50.742 129.313 51.7248 130.327C52.3358 130.88 52.5837 131.714 52.5609 132.564Z" fill="#A3ABB9"/>
<path d="M40.4179 138.972C39.1757 140.863 37.9055 142.78 36.1309 144.176C35.4738 144.701 34.7252 145.156 34.1455 145.765C33.3246 146.649 32.8285 147.829 32.1119 148.798C31.5018 147.907 31.4986 146.719 31.5998 145.616C31.7996 143.154 31.9737 139.083 33.6776 137.131C33.7854 137.135 33.8792 137.153 33.9741 137.143C35.983 137.216 37.7331 136.075 39.8277 136.354C40.123 136.393 40.4173 136.46 40.6529 136.632C41.3319 137.174 40.8944 138.249 40.4179 138.972Z" fill="#BCC5C9"/>
<path d="M33.0222 144.88C33.4943 144.576 33.7729 144.062 34.0503 143.574C34.7328 142.455 35.5864 141.439 36.5551 140.575C37.1442 140.061 37.7861 139.575 38.1138 138.86C38.2624 138.542 38.3089 138.085 38.0076 137.869C37.7062 137.654 37.2915 137.879 36.9482 138.013C36.3026 138.269 35.5619 138.224 34.8799 138.384C33.2968 138.775 33.688 140.048 33.4193 141.279C33.285 141.894 33.0568 142.492 32.9495 143.108C32.9027 143.255 32.925 144.944 33.0222 144.88Z" fill="#C6CED4"/>
<path d="M52.561 132.564C52.5566 132.982 52.4842 133.411 52.3451 133.824C51.9568 135.009 51.1312 136 50.2939 136.95C46.8183 140.865 42.823 144.3 38.8418 147.721C37.9165 148.519 36.9502 149.328 35.7984 149.738C35.8828 149.661 35.9671 149.583 36.0385 149.492C36.6205 148.828 37.0454 148.05 37.6661 147.428C38.6276 146.416 39.975 145.852 41.0022 144.884C41.7342 144.186 42.2703 143.331 42.9378 142.563C44.7295 140.452 47.2858 139.089 48.9473 136.865C49.2341 136.472 49.4952 136.051 49.8477 135.702C50.2002 135.352 50.6313 135.06 50.9967 134.725C51.6022 134.143 52.0248 133.418 52.5001 132.723C52.5306 132.643 52.5458 132.603 52.561 132.564Z" fill="#97A2B2"/>
<path d="M47.7306 131.871C48.1902 132.174 48.3828 132.722 48.4945 133.267C48.5404 133.458 48.5593 133.648 48.5242 133.836C48.4869 134.077 48.33 134.273 48.2657 134.513C48.1885 134.739 48.2157 135.051 48.4408 135.155C48.729 135.046 48.9163 134.771 49.1025 134.522C49.3191 134.194 49.5626 133.867 49.7792 133.538C50.0087 133.224 50.2405 132.856 50.2437 132.464C50.2424 132.181 50.1191 131.905 49.9947 131.657C49.8316 131.366 49.6146 131.074 49.3109 130.912C48.9416 130.707 48.4962 130.702 48.0649 130.683C47.5656 130.675 47.0793 130.682 46.58 130.674C46.0807 130.666 44.2384 130.803 45.1003 131.488C45.7676 131.989 46.9825 131.366 47.7306 131.871Z" fill="#97A2B2"/>
<path d="M116.515 121.836C114.936 120.724 113.843 119.052 112.816 117.381C108.594 110.459 105.32 102.985 102.058 95.5386C101.284 93.7801 100.511 91.9555 100.467 90.0119C100.444 89.0732 100.633 88.0987 101.058 87.2738C101.484 86.3828 102.172 85.6287 103.064 85.2352C103.198 85.1716 103.344 85.1346 103.477 85.0709C105.072 84.5712 106.833 85.1053 108.42 85.7552C111.976 87.1677 117.925 89.2712 120.044 92.6797C120.057 92.7063 120.057 92.7063 120.069 92.733C121.352 94.8708 121.483 97.8864 122.564 100.219C122.983 101.165 123.469 102.046 123.914 102.979C124.743 104.646 125.545 106.326 125.908 108.183C126.502 111.14 125.931 114.196 125.204 117.13C124.677 119.248 123.908 121.547 121.961 122.543C120.292 123.438 118.094 122.948 116.515 121.836Z" fill="#B4BCC5"/>
<path d="M118.27 122.7C117.652 122.504 117.05 122.202 116.502 121.809C114.923 120.697 113.83 119.025 112.803 117.355C108.581 110.432 105.306 102.959 102.045 95.5118C101.283 93.7799 100.523 91.982 100.438 90.0906C100.426 90.0639 100.439 90.0245 100.427 89.9979C100.404 89.0591 100.594 88.0846 101.018 87.2597C101.926 88.9546 102.833 90.6494 103.741 92.3443C106.629 97.7756 109.557 103.221 112.579 108.588C113.411 110.057 114.283 111.54 115.613 112.542C116.969 113.531 118.932 113.871 120.298 112.891C121.557 111.963 121.919 110.251 122 108.706C122.08 107.161 122.005 105.495 122.757 104.121C123.017 103.637 123.434 103.208 123.915 102.913C124.744 104.58 125.546 106.26 125.909 108.116C126.503 111.074 125.932 114.13 125.205 117.064C124.677 119.182 123.909 121.481 121.961 122.477C120.866 123.131 119.518 123.119 118.27 122.7Z" fill="#A3ABB9"/>
<path d="M114.288 101.813C112.05 99.1163 109.787 96.366 108.525 93.1053C108.045 91.8939 107.712 90.5795 107.071 89.4445C106.136 87.8284 104.613 86.5585 103.503 85.0582C105.098 84.5585 106.86 85.0927 108.447 85.7426C112.003 87.1551 117.952 89.2585 120.07 92.667C120.015 92.8246 119.946 92.9555 119.917 93.1003C118.899 96.0423 119.794 99.151 118.432 102.126C118.239 102.546 118.007 102.951 117.646 103.222C116.535 103.982 115.141 102.846 114.288 101.813Z" fill="#BCC5C9"/>
<path d="M108.891 88.1825C109.127 89.0193 109.762 89.6652 110.359 90.2972C111.706 91.815 112.824 93.5401 113.663 95.3659C114.159 96.4718 114.587 97.6426 115.497 98.4521C115.9 98.8162 116.556 99.0924 117.012 98.7438C117.468 98.3953 117.322 97.679 117.279 97.1099C117.193 96.0379 117.596 94.9615 117.668 93.8791C117.807 91.3573 115.745 91.3596 114.044 90.4037C113.194 89.9257 112.412 89.3168 111.548 88.8782C111.352 88.7425 108.841 88.0098 108.891 88.1825Z" fill="#C6CED4"/>
<path d="M118.271 122.701C117.654 122.504 117.051 122.203 116.503 121.81C114.924 120.697 113.831 119.025 112.804 117.355C108.582 110.432 105.308 102.959 102.046 95.5121C101.285 93.7802 100.524 91.9823 100.44 90.0909C100.516 90.2508 100.592 90.4108 100.695 90.5581C101.414 91.7209 102.375 92.703 103.014 93.9041C104.076 95.7868 104.3 98.0375 105.269 99.9978C105.97 101.398 106.993 102.58 107.828 103.916C110.141 107.527 111 111.93 113.54 115.399C113.992 116.002 114.497 116.579 114.855 117.26C115.212 117.94 115.449 118.711 115.78 119.404C116.367 120.565 117.249 121.519 118.063 122.538C118.167 122.619 118.219 122.66 118.271 122.701Z" fill="#97A2B2"/>
<path d="M121.488 115.862C120.83 116.405 119.931 116.442 119.073 116.36C118.77 116.341 118.48 116.283 118.218 116.146C117.877 115.981 117.659 115.66 117.332 115.456C117.032 115.239 116.558 115.138 116.302 115.424C116.333 115.901 116.656 116.303 116.939 116.691C117.327 117.161 117.701 117.67 118.089 118.139C118.451 118.622 118.891 119.132 119.469 119.314C119.89 119.441 120.353 119.383 120.777 119.311C121.282 119.202 121.814 119.013 122.191 118.637C122.661 118.183 122.871 117.526 123.094 116.895C123.332 116.16 123.544 115.437 123.782 114.701C124.02 113.965 124.652 111.175 123.247 112.14C122.202 112.901 122.574 114.983 121.488 115.862Z" fill="#97A2B2"/>
</svg>
