<svg width="128" height="128" viewBox="0 0 128 128" fill="none" xmlns="http://www.w3.org/2000/svg">
<path d="M32.5802 46.501C32.5802 63.5769 46.423 77.4192 63.4989 77.4186C80.5749 77.418 94.4177 63.5748 94.4177 46.4988C94.4177 29.4229 80.5749 15.5806 63.4989 15.5812C46.423 15.5818 32.5802 29.425 32.5802 46.501Z" fill="#FFFE55"/>
<path fill-rule="evenodd" clip-rule="evenodd" d="M90.8375 46.499C90.8375 31.4003 78.5976 19.1608 63.4988 19.1613C48.4001 19.1619 36.1602 31.4022 36.1602 46.501C36.1602 61.5997 48.4001 73.8392 63.4988 73.8387C78.5976 73.8381 90.8375 61.5978 90.8375 46.499ZM63.4988 12.0012C82.552 12.0005 97.9976 27.4456 97.9976 46.4988C97.9976 65.552 82.552 80.9981 63.4988 80.9988C44.4457 80.9995 29 65.5544 29 46.5012C29 27.448 44.4457 12.0019 63.4988 12.0012Z" fill="black"/>
<mask id="mask0" mask-type="alpha" maskUnits="userSpaceOnUse" x="25" y="33" width="77" height="78">
<path d="M25 71.5027C25 92.7657 42.237 110.002 63.5 110.001C84.763 110.001 102 92.763 102 71.5C102 50.237 84.763 33.0006 63.5 33.0013C42.237 33.0021 25 50.2397 25 71.5027Z" fill="#8F8F8F"/>
</mask>
<g mask="url(#mask0)">
<path d="M107.559 65.5686L74.5729 32.5825L73.6246 33.5279C73.6246 33.5279 73.2483 34.7628 73.2483 35.5108C73.2483 36.249 73.3739 37.0694 73.6217 37.9499L74.0003 39.2931L75.3817 36.4921L76.2663 43.4719L76.3323 43.575C76.7121 44.1605 77.1083 44.7353 77.5203 45.2985L78.2382 46.2827L79.3313 40.829L81.408 49.9677L81.5064 50.0737C81.9938 50.5939 82.4896 51.1061 82.9937 51.6102C86.868 55.4845 91.6299 59.3328 96.0571 62.1679L98.6363 63.72L98.6508 63.7287C103.224 66.2877 106.222 66.9066 107.559 65.5686Z" fill="#DD3400"/>
<path d="M107.528 65.5979C107.982 65.144 108.213 64.4892 108.213 63.6498C108.213 60.7029 105.345 55.9266 103.637 53.3416L103.501 53.1366L98.8638 52.549L102.017 50.994L101.64 50.4793C99.2042 47.1561 96.3379 43.8017 93.5693 41.0326C93.061 40.5249 92.5446 40.0246 92.0334 39.5459L91.9269 39.4474L82.7887 37.3702L88.2419 36.2777L87.2576 35.5598C86.6943 35.1478 86.1196 34.7516 85.5341 34.3718L85.4311 34.3052L78.4519 33.4212L81.2522 32.0392L79.9091 31.6612C78.1317 31.1604 75.4894 31.6664 75.4894 31.6664L74.5411 32.6112L107.528 65.5979Z" fill="#B42A00"/>
<path d="M92.8215 56.3604L92.6536 52.2285L98.9693 58.5448C99.1744 58.7415 99.4484 58.85 99.7326 58.847C100.017 58.844 100.288 58.7298 100.489 58.5288C100.69 58.3279 100.804 58.0561 100.807 57.772C100.81 57.4878 100.701 57.2139 100.505 57.0089L94.1895 50.6937L98.3209 50.861C98.6026 50.8518 98.8698 50.7334 99.0659 50.5308C99.2619 50.3283 99.3715 50.0574 99.3715 49.7755C99.3715 49.4936 99.2619 49.2227 99.0659 49.0201C98.8698 48.8176 98.6026 48.6992 98.3209 48.69L92.0179 48.5221L87.1646 43.6687L90.9879 43.5281C91.2758 43.5281 91.5519 43.4137 91.7555 43.2101C91.9591 43.0065 92.0735 42.7304 92.0735 42.4425C92.0735 42.1546 91.9591 41.8785 91.7555 41.675C91.5519 41.4714 91.2758 41.357 90.9879 41.357L84.9935 41.4977L68.1855 24.6903C68.0851 24.5877 67.9653 24.5061 67.8332 24.4502C67.701 24.3942 67.559 24.365 67.4155 24.3643C67.272 24.3635 67.1297 24.3913 66.997 24.4459C66.8643 24.5005 66.7437 24.5808 66.6422 24.6823C66.5407 24.7839 66.4604 24.9045 66.4059 25.0372C66.3513 25.17 66.3236 25.3122 66.3244 25.4558C66.3252 25.5993 66.3545 25.7412 66.4105 25.8734C66.4665 26.0055 66.5481 26.1253 66.6507 26.2256L83.4576 43.0325L83.3169 49.0275C83.3169 49.6273 83.8032 50.1136 84.4024 50.1136C85.0022 50.1136 85.4665 49.6273 85.4885 49.0275L85.6292 45.2041L90.4825 50.0574L90.6504 56.3604C90.6504 56.6483 90.7648 56.9244 90.9684 57.128C91.1719 57.3316 91.448 57.446 91.7359 57.446C92.0238 57.446 92.2999 57.3316 92.5035 57.128C92.7071 56.9244 92.8215 56.6483 92.8215 56.3604Z" fill="#552003"/>
<path d="M92.8212 56.3606L92.6533 52.2286L98.9691 58.545C99.1726 58.7484 99.4486 58.8627 99.7364 58.8627C100.024 58.8627 100.3 58.7484 100.504 58.545L66.6505 24.6904C66.438 24.9017 66.3321 25.1802 66.3321 25.4581C66.3321 25.736 66.438 26.0139 66.6505 26.2252L83.4573 43.0326L83.3166 49.0276C83.3166 49.6274 83.803 50.1137 84.4022 50.1137C85.002 50.1137 85.4663 49.6274 85.4883 49.0276L85.629 45.2043L90.4823 50.0576L90.6502 56.3606C90.6502 56.6485 90.7645 56.9246 90.9681 57.1282C91.1717 57.3317 91.4478 57.4461 91.7357 57.4461C92.0236 57.4461 92.2997 57.3317 92.5033 57.1282C92.7068 56.9246 92.8212 56.6485 92.8212 56.3606Z" fill="#831E00"/>
<path d="M57.6347 114.06L24.648 81.0742L23.7003 82.0196C23.7003 82.0196 23.324 83.2545 23.324 84.0025C23.324 84.7407 23.4496 85.5611 23.6974 86.4416L24.076 87.7848L25.4574 84.9838L26.342 91.9636L26.408 92.0667C26.7878 92.6522 27.1839 93.227 27.596 93.7902L28.3139 94.7744L29.407 89.3207L31.4836 98.4594L31.5821 98.5654C32.0626 99.0777 32.5622 99.5947 33.0694 100.102C36.9437 103.976 41.7055 107.824 46.1328 110.66L48.712 112.212L48.7264 112.22C53.3001 114.779 56.2968 115.398 57.6347 114.06Z" fill="#D67B00"/>
<path d="M57.6034 114.09C58.0573 113.636 58.2877 112.981 58.2877 112.141C58.2877 109.195 55.4208 104.418 53.7117 101.833L53.5768 101.628L48.9395 101.041L52.0924 99.4857L51.7155 98.971C49.2799 95.6478 46.4135 92.2934 43.645 89.5249C43.1367 89.0166 42.6202 88.5163 42.109 88.0381L42.0025 87.9391L32.8644 85.8624L38.3175 84.7694L37.3333 84.0515C36.77 83.6395 36.1953 83.2433 35.6098 82.8635L35.5067 82.7975L28.5275 81.9129L31.3279 80.5315L29.9847 80.1529C28.2073 79.6521 25.565 80.1581 25.565 80.1581L24.6167 81.1029L57.6034 114.09Z" fill="#E5BC00"/>
<path d="M42.8968 104.853L42.7289 100.721L49.0447 107.037C49.2498 107.234 49.5238 107.342 49.8079 107.339C50.0921 107.336 50.3638 107.222 50.5647 107.021C50.7656 106.82 50.8797 106.548 50.8826 106.264C50.8854 105.98 50.7768 105.706 50.5801 105.501L44.2643 99.1859L48.3963 99.3538C48.6799 99.3473 48.9497 99.23 49.148 99.0271C49.3463 98.8242 49.4573 98.5517 49.4573 98.268C49.4573 97.9843 49.3463 97.7118 49.148 97.5089C48.9497 97.306 48.6799 97.1887 48.3963 97.1822L42.0933 97.0143L37.2399 92.161L41.0633 92.0203C41.3512 92.0203 41.6273 91.9059 41.8309 91.7024C42.0345 91.4988 42.1488 91.2227 42.1488 90.9348C42.1488 90.6469 42.0345 90.3708 41.8309 90.1672C41.6273 89.9636 41.3512 89.8492 41.0633 89.8492L35.0689 89.9899L18.2609 73.1831C18.161 73.0786 18.0412 72.9951 17.9086 72.9375C17.776 72.8799 17.6332 72.8494 17.4886 72.8477C17.3441 72.8461 17.2006 72.8733 17.0667 72.9278C16.9328 72.9824 16.8112 73.0631 16.7089 73.1653C16.6067 73.2675 16.5258 73.3891 16.4712 73.523C16.4166 73.6568 16.3892 73.8002 16.3908 73.9448C16.3923 74.0894 16.4227 74.2322 16.4802 74.3648C16.5377 74.4975 16.6211 74.6173 16.7255 74.7173L33.5329 91.5253L33.3923 97.5203C33.3923 98.1195 33.8786 98.6058 34.4778 98.6058C35.0776 98.6058 35.5419 98.1195 35.5639 97.5203L35.7046 93.6963L40.5579 98.5497L40.7258 104.853C40.7258 105.141 40.8402 105.417 41.0437 105.621C41.2473 105.824 41.5234 105.939 41.8113 105.939C42.0992 105.939 42.3753 105.824 42.5789 105.621C42.7825 105.417 42.8968 105.141 42.8968 104.853L42.8968 104.853Z" fill="#A73F06"/>
<path d="M42.897 104.853L42.7291 100.72L49.0449 107.037C49.2484 107.24 49.5245 107.355 49.8123 107.355C50.1001 107.355 50.3761 107.24 50.5796 107.037L16.7263 73.1816C16.5144 73.3935 16.4084 73.6714 16.4084 73.9493C16.4084 74.2272 16.5144 74.5051 16.7269 74.717L33.5337 91.5239L33.393 97.5194C33.393 98.1186 33.8793 98.605 34.4785 98.605C35.0783 98.605 35.5427 98.1186 35.5647 97.5194L35.7053 93.6955L40.5587 98.5488L40.7265 104.852C40.7265 105.14 40.8409 105.416 41.0445 105.62C41.2481 105.824 41.5242 105.938 41.8121 105.938C42.1 105.938 42.3761 105.824 42.5797 105.62C42.7832 105.416 42.8976 105.14 42.8976 104.852L42.897 104.853Z" fill="#834000"/>
<path d="M108.324 65.5039L85.1726 106.004L86.334 106.669C86.334 106.669 87.6244 106.708 88.3464 106.511C89.0585 106.317 89.8169 105.98 90.6008 105.51L91.7975 104.791L88.732 104.195L95.2335 101.506L95.3152 101.415C95.7805 100.895 96.2311 100.361 96.6664 99.8158L97.4266 98.864L91.878 99.2438L100.149 94.8369L100.225 94.7135C100.593 94.1161 100.96 93.4977 101.316 92.8754C104.035 88.1182 106.496 82.5122 108.067 77.4951L108.887 74.5986L108.891 74.5824C110.157 69.4969 109.966 66.4424 108.324 65.5039Z" fill="#D67B00"/>
<path d="M108.36 65.5264C107.802 65.2079 107.109 65.1582 106.3 65.3787C103.457 66.1534 99.6027 70.1759 97.5579 72.5044L97.3958 72.6885L98.0482 77.3172L95.7191 74.6842L95.3214 75.1832C92.7561 78.4068 90.273 82.0542 88.33 85.4537C87.9734 86.0778 87.6266 86.7077 87.2995 87.3266L87.2318 87.4552L87.6312 96.8179L85.1429 91.8447L84.7087 92.9824C84.4595 93.6342 84.2286 94.2929 84.0163 94.9577L83.9792 95.0747L84.9611 102.041L82.892 99.7022L82.8804 101.097C82.8642 102.944 84.047 105.361 84.047 105.361L85.2083 106.027L108.36 65.5264Z" fill="#E5BC00"/>
<path d="M103.315 82.1443L99.3725 83.3925L103.805 75.6381C103.938 75.3888 103.969 75.0976 103.89 74.8263C103.812 74.5549 103.631 74.3248 103.386 74.1847C103.141 74.0445 102.85 74.0054 102.577 74.0756C102.303 74.1458 102.068 74.3198 101.92 74.5606L97.488 82.3145L96.5628 78.2838C96.4802 78.014 96.2957 77.7869 96.0485 77.6507C95.8013 77.5144 95.5108 77.4798 95.2385 77.5541C94.9662 77.6284 94.7335 77.8057 94.5897 78.0486C94.4459 78.2915 94.4024 78.5808 94.4682 78.8553L95.9642 84.9805L92.5577 90.9391L91.4166 87.2871C91.3408 87.0092 91.1578 86.7729 90.9077 86.63C90.6577 86.4871 90.3611 86.4494 90.0833 86.5252C89.8054 86.6009 89.5691 86.784 89.4262 87.034C89.2833 87.2841 89.2456 87.5806 89.3214 87.8585L91.0339 93.6045L79.2378 114.241C79.1655 114.365 79.1183 114.502 79.0992 114.644C79.0801 114.786 79.0893 114.931 79.1264 115.069C79.1635 115.208 79.2277 115.338 79.3153 115.451C79.4028 115.565 79.512 115.66 79.6366 115.731C79.7612 115.803 79.8986 115.848 80.041 115.866C80.1833 115.884 80.3278 115.873 80.466 115.835C80.6042 115.796 80.7334 115.731 80.8461 115.642C80.9589 115.553 81.053 115.443 81.1229 115.318L92.9189 94.6831L98.7397 93.2421C99.0174 93.1664 99.2538 92.9835 99.3966 92.7335C99.5395 92.4836 99.5773 92.1871 99.5016 91.9094C99.3441 91.3304 98.753 91.0109 98.1688 91.1469L94.4427 92.0171L97.8493 86.058L103.887 84.2389C104.024 84.2014 104.153 84.1372 104.266 84.0499C104.378 83.9627 104.473 83.854 104.544 83.7302C104.614 83.6065 104.66 83.4699 104.678 83.3285C104.696 83.1871 104.686 83.0434 104.649 82.9059C104.611 82.7683 104.547 82.6395 104.46 82.5267C104.372 82.4139 104.264 82.3195 104.14 82.2487C104.016 82.1779 103.88 82.1322 103.738 82.1142C103.597 82.0962 103.453 82.1062 103.316 82.1437L103.315 82.1443Z" fill="#A73F06"/>
<path d="M103.316 82.1449L99.373 83.3931L103.805 75.6387C103.948 75.3888 103.986 75.0924 103.91 74.8146C103.835 74.5369 103.652 74.3006 103.402 74.1577L79.6419 115.723C79.9019 115.871 80.1977 115.901 80.4658 115.827C80.6034 115.79 80.7323 115.726 80.8451 115.639C80.9579 115.552 81.0523 115.443 81.1229 115.319L92.9189 94.6837L98.7397 93.2427C99.0174 93.167 99.2538 92.9841 99.3966 92.7341C99.5395 92.4842 99.5773 92.1877 99.5016 91.91C99.3441 91.331 98.753 91.0115 98.1688 91.1475L94.4427 92.0177L97.8481 86.0586L103.887 84.2395C104.024 84.202 104.153 84.1378 104.266 84.0505C104.378 83.9633 104.473 83.8546 104.544 83.7308C104.614 83.6071 104.66 83.4706 104.678 83.3291C104.696 83.1877 104.686 83.0441 104.649 82.9065C104.611 82.7689 104.547 82.6401 104.46 82.5273C104.372 82.4145 104.264 82.3201 104.14 82.2493C104.016 82.1785 103.88 82.1328 103.738 82.1148C103.597 82.0968 103.453 82.1068 103.316 82.1443L103.316 82.1449Z" fill="#834000"/>
<path d="M24.4443 71.8917L51.5275 33.9093L50.439 33.1306C50.439 33.1306 49.159 32.9627 48.4208 33.0866C47.6925 33.2082 46.9046 33.4681 46.0773 33.8583L44.8152 34.4529L47.8054 35.3532L41.0676 37.3783L40.9773 37.4606C40.4823 37.9121 39.9769 38.4025 39.4732 38.9172L38.6216 39.7879L44.1806 39.9645L35.5103 43.5227L35.4223 43.6379C34.9898 44.2042 34.5665 44.7774 34.1527 45.3574C30.9719 49.8193 27.9637 55.1509 25.898 59.9862L24.7934 62.786L24.7876 62.8022C23.0195 67.7354 22.9043 70.7934 24.4443 71.8917Z" fill="#DD3400"/>
<path d="M24.4108 71.8659C24.933 72.2382 25.6173 72.3574 26.4452 72.2191C29.3515 71.7322 33.5888 68.1149 35.856 66.0029L36.0355 65.835L35.849 61.1646L37.9037 64.0171L38.3489 63.5609C41.2234 60.6094 44.0591 57.2284 46.3326 54.0407C46.7495 53.4554 47.1576 52.8625 47.5449 52.2801L47.6248 52.1585L48.1632 42.8027L50.1421 48.0005L50.6875 46.9121C51.0008 46.2881 51.2965 45.6555 51.5744 45.0149L51.6225 44.9026L51.3417 37.873L53.1671 40.4071L53.3182 39.0193C53.5185 37.1841 52.5829 34.6616 52.5829 34.6616L51.4945 33.8823L24.4108 71.8659Z" fill="#B42A00"/>
<path d="M31.0912 55.8349L35.1386 54.9873L29.953 62.2589C29.7933 62.4936 29.7319 62.7816 29.7819 63.061C29.8318 63.3405 29.9893 63.5892 30.2204 63.7541C30.4515 63.9189 30.738 63.9867 31.0185 63.9429C31.299 63.8991 31.5512 63.7473 31.7211 63.5199L36.9061 56.2483L37.4237 60.3507C37.475 60.6313 37.6347 60.8805 37.8682 61.0443C38.1017 61.2082 38.3903 61.2736 38.6716 61.2265C38.9529 61.1794 39.2044 61.0234 39.3718 60.7924C39.5391 60.5613 39.6088 60.2738 39.5658 59.9918L38.6887 53.7478L42.6742 48.1592L43.4442 51.9068C43.4918 52.1908 43.6503 52.4443 43.8848 52.6115C44.1193 52.7787 44.4107 52.8459 44.6947 52.7983C44.9788 52.7507 45.2323 52.5922 45.3995 52.3577C45.5667 52.1232 45.6339 51.8319 45.5863 51.5478L44.4568 45.6593L58.2566 26.3057C58.3393 26.1896 58.3984 26.0583 58.4304 25.9194C58.4625 25.7805 58.4668 25.6366 58.4432 25.496C58.4197 25.3554 58.3686 25.2208 58.293 25.0999C58.2175 24.979 58.1188 24.8742 58.0027 24.7915C57.8866 24.7087 57.7553 24.6496 57.6164 24.6176C57.4775 24.5856 57.3336 24.5812 57.193 24.6048C57.0524 24.6284 56.9178 24.6794 56.7969 24.755C56.676 24.8306 56.5712 24.9292 56.4885 25.0453L42.6887 44.3984L36.7533 45.2494C36.6126 45.2729 36.478 45.324 36.357 45.3995C36.236 45.4751 36.1312 45.5738 36.0484 45.6899C35.9656 45.8061 35.9065 45.9374 35.8744 46.0764C35.8424 46.2154 35.8381 46.3593 35.8617 46.5C35.9607 47.0916 36.5171 47.4685 37.1123 47.3915L40.9061 46.8983L36.9212 52.4869L30.7323 53.6934C30.5916 53.717 30.457 53.768 30.336 53.8436C30.2151 53.9192 30.1103 54.0179 30.0275 54.134C29.9447 54.2501 29.8856 54.3814 29.8535 54.5204C29.8215 54.6593 29.8171 54.8033 29.8407 54.9439C29.8642 55.0846 29.9153 55.2192 29.9909 55.3401C30.0665 55.4611 30.1652 55.5659 30.2813 55.6487C30.3974 55.7315 30.5287 55.7906 30.6677 55.8226C30.8066 55.8547 30.9506 55.8591 31.0912 55.8355L31.0912 55.8349Z" fill="#552003"/>
<path d="M31.0912 55.8349L35.1386 54.9874L29.953 62.2589C29.8702 62.375 29.811 62.5063 29.7789 62.6452C29.7468 62.7842 29.7424 62.9281 29.766 63.0687C29.7895 63.2094 29.8406 63.344 29.9162 63.4649C29.9918 63.5859 30.0904 63.6907 30.2066 63.7735L58.003 24.7918C57.7587 24.6175 57.4669 24.559 57.193 24.6048C56.9192 24.6511 56.6627 24.8016 56.4885 25.0448L42.6893 44.3984L36.7533 45.2495C36.6126 45.273 36.478 45.324 36.357 45.3996C36.236 45.4751 36.1312 45.5738 36.0484 45.69C35.9656 45.8061 35.9065 45.9374 35.8744 46.0764C35.8424 46.2154 35.8381 46.3593 35.8617 46.5C35.9607 47.0917 36.5171 47.4686 37.1123 47.3916L40.9061 46.8983L36.9212 52.4869L30.7323 53.6934C30.5916 53.717 30.457 53.768 30.336 53.8436C30.2151 53.9192 30.1103 54.0179 30.0275 54.134C29.9447 54.2501 29.8856 54.3814 29.8535 54.5204C29.8215 54.6594 29.8171 54.8033 29.8407 54.9439C29.8642 55.0846 29.9153 55.2192 29.9909 55.3401C30.0665 55.4611 30.1652 55.5659 30.2813 55.6487C30.3974 55.7315 30.5287 55.7906 30.6677 55.8227C30.8066 55.8547 30.9505 55.8591 31.0912 55.8355L31.0912 55.8349Z" fill="#831E00"/>
<path d="M89.6484 34.1631L43.0067 35.0153L43.0292 36.3538C43.0292 36.3538 43.6568 37.4816 44.1952 38.0009L44.1952 38.0015C44.7267 38.5139 45.4047 38.9921 46.21 39.4246L47.4397 40.0846L46.3831 37.1464L52.0214 41.3536L52.1413 41.3773C52.799 41.5065 53.4937 41.6205 54.207 41.7189L55.4135 41.8851L52.2467 37.3131L60.2662 42.1612L60.411 42.1636C61.1132 42.1734 61.8323 42.1722 62.549 42.1595C68.0276 42.0593 74.1025 41.3027 79.2169 40.0828L82.1244 39.3036L82.1406 39.2989C87.1572 37.7821 89.6831 36.0545 89.6484 34.1637L89.6484 34.1631Z" fill="#D67B00"/>
<path d="M89.6485 34.2061C89.6369 33.5641 89.3249 32.9434 88.721 32.361C86.5998 30.3156 81.171 29.0645 78.124 28.5L77.8826 28.4549L74.241 31.3855L75.3097 28.0363L74.6775 27.9506C70.5948 27.3977 66.1901 27.1325 62.2753 27.2037C61.5574 27.2171 60.8378 27.242 60.139 27.2779L59.9942 27.2854L52.1564 32.423L55.1542 27.7387L53.9547 27.9489C53.267 28.0686 52.5828 28.2076 51.9029 28.3657L51.7842 28.3935L46.3033 32.8039L47.2522 29.8293L46.048 30.5333C44.4536 31.4654 42.9836 33.7186 42.9836 33.7186L43.0062 35.0572L89.6485 34.2061Z" fill="#E5BC00"/>
<path d="M72.7899 38.3824L69.6995 35.6353L78.6292 35.472C78.9119 35.4592 79.1784 35.3366 79.372 35.1303C79.5656 34.9239 79.6711 34.6502 79.666 34.3673C79.6608 34.0844 79.5455 33.8147 79.3445 33.6155C79.1435 33.4164 78.8728 33.3035 78.5898 33.3009L69.6602 33.4642L72.6481 30.6059C72.8382 30.3969 72.9394 30.122 72.9301 29.8395C72.9209 29.5571 72.8019 29.2894 72.5984 29.0933C72.395 28.8971 72.1231 28.788 71.8405 28.7891C71.5579 28.7901 71.2869 28.9013 71.0849 29.0989L66.5906 33.5198L59.7277 33.6448L62.2803 30.7947C62.4802 30.5874 62.5895 30.3092 62.5842 30.0213C62.5789 29.7334 62.4595 29.4594 62.2522 29.2596C62.0449 29.0598 61.7668 28.9504 61.4789 28.9557C61.191 28.961 60.917 29.0804 60.7172 29.2877L56.6581 33.701L32.8924 34.1352C32.7498 34.1378 32.6092 34.1684 32.4785 34.2254C32.3477 34.2823 32.2295 34.3644 32.1306 34.4671C32.0316 34.5697 31.9538 34.6908 31.9016 34.8235C31.8495 34.9562 31.8239 35.0979 31.8265 35.2404C31.8291 35.383 31.8597 35.5236 31.9167 35.6543C31.9736 35.785 32.0558 35.9033 32.1584 36.0022C32.261 36.1012 32.3821 36.179 32.5148 36.2312C32.6475 36.2833 32.7892 36.3088 32.9317 36.3063L56.6964 35.8726L60.9146 40.1348C61.0172 40.2339 61.1383 40.3117 61.271 40.3639C61.4037 40.4161 61.5454 40.4416 61.688 40.4391C61.8306 40.4365 61.9713 40.4058 62.102 40.3489C62.2327 40.2919 62.351 40.2097 62.4499 40.107C62.8656 39.6752 62.8378 39.0036 62.4216 38.5717L59.7665 35.8165L66.6294 35.6914L71.2829 39.9455C71.3856 40.0445 71.5067 40.1223 71.6394 40.1745C71.7721 40.2267 71.9138 40.2522 72.0564 40.2496C72.199 40.247 72.3396 40.2164 72.4704 40.1594C72.6011 40.1025 72.7193 40.0204 72.8183 39.9177C72.9173 39.8151 72.9951 39.694 73.0473 39.5613C73.0995 39.4285 73.125 39.2869 73.1224 39.1443C73.1198 39.0017 73.0892 38.8611 73.0322 38.7303C72.9753 38.5996 72.8932 38.4814 72.7905 38.3824L72.7899 38.3824Z" fill="#A73F06"/>
<path d="M72.7906 38.3829L69.699 35.6352L78.6293 35.4719C78.9171 35.4666 79.191 35.3472 79.3908 35.1399C79.5905 34.9326 79.6998 34.6545 79.6945 34.3667L31.826 35.2409C31.8318 35.5408 31.958 35.81 32.1577 36.0028C32.358 36.1956 32.6319 36.312 32.9312 36.3067L56.6964 35.8725L60.9146 40.1348C61.0172 40.2338 61.1384 40.3116 61.2711 40.3638C61.4038 40.416 61.5455 40.4416 61.6881 40.439C61.8307 40.4364 61.9713 40.4057 62.1021 40.3488C62.2328 40.2918 62.351 40.2096 62.45 40.107C62.8657 39.6751 62.8379 39.0035 62.4216 38.5716L59.7666 35.8164L66.6294 35.6913L71.283 39.9454C71.3856 40.0444 71.5068 40.1222 71.6395 40.1744C71.7722 40.2266 71.9139 40.2521 72.0564 40.2495C72.199 40.2469 72.3397 40.2163 72.4704 40.1594C72.6011 40.1024 72.7194 40.0203 72.8184 39.9176C72.9173 39.815 72.9952 39.6939 73.0473 39.5612C73.0995 39.4285 73.125 39.2868 73.1225 39.1442C73.1199 39.0016 73.0892 38.861 73.0323 38.7302C72.9753 38.5995 72.8932 38.4813 72.7906 38.3823L72.7906 38.3829Z" fill="#834000"/>
<path d="M97.4574 103.052L51.1544 108.725L51.3153 110.054C51.3153 110.054 52.0564 111.111 52.6457 111.572L52.6457 111.573C53.227 112.027 53.9507 112.433 54.7971 112.78L56.0881 113.309L54.7334 110.495L60.7765 114.097L60.898 114.108C61.5656 114.169 62.269 114.21 62.988 114.234L64.2056 114.275L60.5819 110.055L69.0612 114.047L69.2059 114.034C69.9155 113.971 70.6241 113.895 71.3312 113.809C76.7699 113.143 82.7342 111.761 87.6952 110.019L90.506 108.943L90.5222 108.937C95.3547 106.909 97.6878 104.929 97.458 103.052L97.4574 103.052Z" fill="#DD3400"/>
<path d="M97.4617 103.094C97.3835 102.457 97.0095 101.872 96.3484 101.355C94.0268 99.5402 88.4978 98.8571 85.4086 98.6116L85.1637 98.5913L81.8451 101.883L82.5613 98.442L81.9239 98.4217C77.8058 98.2943 73.3977 98.486 69.5113 98.9625C68.798 99.0493 68.0853 99.1489 67.3935 99.2571L67.2505 99.2797L59.9864 105.201L62.4834 100.231L61.3122 100.564C60.6407 100.754 59.9746 100.963 59.3148 101.191L59.199 101.231L54.2039 106.185L54.8401 103.128L53.7147 103.954C52.2262 105.045 50.9965 107.439 50.9965 107.439L51.1575 108.768L97.4617 103.094Z" fill="#B42A00"/>
<path d="M81.1263 108.991L77.7678 106.579L86.6332 105.493C86.9138 105.452 87.1671 105.302 87.3391 105.077C87.511 104.851 87.5879 104.567 87.5534 104.286C87.5188 104.004 87.3755 103.748 87.1542 103.57C86.9328 103.393 86.6509 103.31 86.3686 103.337L77.5044 104.424L80.1803 101.272C80.3489 101.044 80.4219 100.76 80.3839 100.479C80.3458 100.199 80.1996 99.9439 79.9765 99.7695C79.7534 99.5951 79.471 99.5147 79.1895 99.5455C78.908 99.5763 78.6496 99.7159 78.4695 99.9344L74.4562 104.798L67.6432 105.632L69.8872 102.533C69.975 102.42 70.0398 102.292 70.078 102.154C70.1161 102.017 70.1268 101.874 70.1095 101.732C70.0921 101.59 70.0471 101.454 69.9769 101.33C69.9067 101.206 69.8128 101.096 69.7005 101.009C69.5881 100.921 69.4596 100.856 69.3222 100.818C69.1848 100.78 69.0413 100.769 68.8998 100.786C68.7582 100.804 68.6215 100.849 68.4974 100.919C68.3733 100.989 68.2642 101.083 68.1764 101.195L64.5956 106.006L41.0029 108.897C40.8614 108.914 40.7247 108.959 40.6005 109.029C40.4764 109.099 40.3673 109.193 40.2795 109.305C40.1917 109.418 40.1269 109.546 40.0887 109.684C40.0506 109.821 40.0399 109.965 40.0572 110.106C40.0745 110.248 40.1196 110.384 40.1897 110.509C40.2599 110.633 40.3539 110.742 40.4662 110.83C40.5785 110.917 40.707 110.982 40.8444 111.02C40.9818 111.059 41.1254 111.069 41.2669 111.052L64.859 108.161L69.4958 111.964C69.6081 112.052 69.7367 112.116 69.874 112.154C70.0114 112.193 70.1549 112.203 70.2964 112.186C70.4379 112.169 70.5746 112.123 70.6987 112.053C70.8228 111.983 70.9318 111.889 71.0196 111.777C71.389 111.304 71.2917 110.64 70.8332 110.253L67.9072 107.787L74.7202 106.952L79.7895 110.702C79.9018 110.79 80.0303 110.855 80.1677 110.893C80.3051 110.931 80.4487 110.942 80.5902 110.925C80.7317 110.907 80.8684 110.862 80.9926 110.792C81.1167 110.722 81.2258 110.628 81.3136 110.516C81.4014 110.403 81.4662 110.275 81.5043 110.137C81.5425 110 81.5532 109.856 81.5359 109.715C81.5185 109.573 81.4735 109.437 81.4033 109.312C81.3331 109.188 81.2392 109.079 81.1269 108.991L81.1263 108.991Z" fill="#552003"/>
<path d="M81.1265 108.992L77.768 106.579L86.6334 105.493C86.775 105.476 86.9117 105.431 87.0358 105.361C87.16 105.29 87.269 105.196 87.3568 105.084C87.4446 104.972 87.5094 104.843 87.5475 104.706C87.5856 104.568 87.5963 104.425 87.5789 104.283L40.0571 110.106C40.0742 110.248 40.1191 110.385 40.1892 110.509C40.2594 110.633 40.3534 110.742 40.4659 110.83C40.6853 111.001 40.9695 111.089 41.2665 111.052L64.8598 108.161L69.4966 111.964C69.6089 112.052 69.7374 112.117 69.8748 112.155C70.0122 112.193 70.1557 112.204 70.2972 112.186C70.4387 112.169 70.5754 112.124 70.6995 112.054C70.8236 111.983 70.9326 111.889 71.0204 111.777C71.3897 111.305 71.2925 110.64 70.834 110.253L67.908 107.788L74.7204 106.953L79.7903 110.703C79.9026 110.79 80.0311 110.855 80.1685 110.893C80.3059 110.931 80.4495 110.942 80.591 110.925C80.7325 110.908 80.8692 110.862 80.9933 110.792C81.1175 110.722 81.2265 110.628 81.3144 110.516C81.4022 110.404 81.467 110.275 81.5051 110.138C81.5433 110 81.554 109.857 81.5366 109.715C81.5193 109.574 81.4743 109.437 81.4041 109.313C81.3339 109.189 81.24 109.08 81.1276 108.992L81.1265 108.992Z" fill="#831E00"/>
<path d="M60.0385 66.9953L106.687 66.7197L106.681 65.3812C106.681 65.3812 106.068 64.2453 105.535 63.7196L105.535 63.719C105.011 63.2003 104.339 62.7134 103.538 62.2711L102.317 61.596L103.337 64.5469L97.7517 60.2702L97.6319 60.2448C96.9484 60.1031 96.2611 59.9807 95.5708 59.8777L94.3666 59.6971L97.4767 64.3078L89.5168 59.3613L89.372 59.3567C88.6597 59.3377 87.9471 59.3304 87.2346 59.3347C81.7554 59.3671 75.6712 60.0491 70.5418 61.2047L67.625 61.948L67.6088 61.9527C62.5743 63.407 60.0269 65.1033 60.0385 66.9953Z" fill="#DD3400"/>
<path d="M60.0395 66.9522C60.0429 67.5949 60.3469 68.219 60.9438 68.8089C63.0396 70.8798 68.4527 72.1987 71.4922 72.8002L71.733 72.8482L75.4111 69.9628L74.3007 73.2981L74.9317 73.3919C79.0075 73.9951 83.4075 74.3147 87.3235 74.2916C88.0362 74.2874 88.7488 74.2716 89.461 74.2441L89.6057 74.2383L97.5066 69.198L94.4509 73.8452L95.6528 73.6501C96.342 73.5389 97.028 73.4084 97.7098 73.2587L97.8291 73.2321L103.364 68.89L102.378 71.8525L103.591 71.1635C105.197 70.2511 106.695 68.0158 106.695 68.0158L106.689 66.6772L60.0395 66.9522Z" fill="#B42A00"/>
<path d="M76.9472 62.9854L80.0041 65.7701L71.0727 65.8228C70.7908 65.8335 70.5242 65.9534 70.3293 66.1571C70.1343 66.3609 70.0262 66.6325 70.0278 66.9145C70.0295 67.1965 70.1407 67.4668 70.3381 67.6682C70.5355 67.8697 70.8035 67.9864 71.0854 67.9938L80.0162 67.9417L76.993 70.7629C76.7998 70.9696 76.6949 71.2434 76.7005 71.5262C76.7061 71.809 76.8219 72.0784 77.0231 72.2772C77.2243 72.476 77.4951 72.5885 77.7779 72.5907C78.0608 72.5929 78.3333 72.4847 78.5376 72.289L83.087 67.9238L89.951 67.8833L87.3631 70.7016C87.1607 70.9064 87.048 71.1832 87.0497 71.4712C87.0515 71.7591 87.1675 72.0346 87.3723 72.2369C87.5772 72.4393 87.854 72.552 88.1419 72.5503C88.4299 72.5486 88.7053 72.4325 88.9077 72.2277L93.0211 67.8647L116.79 67.7246C117.078 67.7229 117.354 67.6069 117.556 67.4022C117.758 67.1974 117.871 66.9206 117.87 66.6327C117.868 66.3448 117.752 66.0694 117.547 65.867C117.342 65.6646 117.066 65.5519 116.778 65.5536L93.009 65.6937L88.844 61.3794C88.7426 61.2791 88.6224 61.1999 88.4904 61.1461C88.3583 61.0923 88.217 61.0651 88.0744 61.0659C87.9318 61.0668 87.7908 61.0957 87.6594 61.1511C87.528 61.2065 87.4088 61.2872 87.3087 61.3886C86.8866 61.8153 86.9069 62.4869 87.3173 62.924L89.9382 65.7116L83.0748 65.7521L78.4733 61.4407C78.3723 61.339 78.2521 61.2584 78.1197 61.2034C77.9873 61.1484 77.8453 61.1202 77.7019 61.1204C77.5585 61.1206 77.4166 61.1492 77.2844 61.2046C77.1521 61.2599 77.0321 61.3409 76.9314 61.4429C76.8306 61.5448 76.751 61.6658 76.6972 61.7987C76.6434 61.9315 76.6165 62.0738 76.6179 62.2171C76.6194 62.3605 76.6493 62.5021 76.7058 62.6339C76.7623 62.7657 76.8444 62.8849 76.9472 62.9848L76.9472 62.9854Z" fill="#552003"/>
<path d="M76.9473 62.9848L80.0041 65.7701L71.0727 65.8228C70.9301 65.8236 70.7891 65.8525 70.6577 65.9078C70.5264 65.9632 70.4072 66.0438 70.307 66.1452C70.2067 66.2466 70.1275 66.3667 70.0737 66.4988C70.0199 66.6308 69.9927 66.7721 69.9935 66.9147L117.87 66.6327C117.869 66.4901 117.84 66.349 117.785 66.2176C117.729 66.0861 117.649 65.9669 117.547 65.8668C117.446 65.7664 117.326 65.687 117.193 65.6332C117.061 65.5795 116.92 65.5524 116.777 65.5536L93.009 65.6937L88.844 61.3794C88.7426 61.2791 88.6225 61.1999 88.4904 61.1461C88.3584 61.0923 88.217 61.0651 88.0744 61.0659C87.9319 61.0668 87.7908 61.0957 87.6595 61.1511C87.5281 61.2065 87.4089 61.2872 87.3087 61.3886C86.8866 61.8153 86.9069 62.4869 87.3174 62.924L89.9383 65.7116L83.0748 65.7521L78.4734 61.4407C78.3723 61.339 78.2521 61.2584 78.1197 61.2034C77.9873 61.1484 77.8453 61.1202 77.7019 61.1204C77.5586 61.1206 77.4166 61.1492 77.2844 61.2046C77.1521 61.2599 77.0322 61.3409 76.9314 61.4429C76.8306 61.5448 76.751 61.6658 76.6972 61.7987C76.6434 61.9315 76.6165 62.0738 76.618 62.2171C76.6194 62.3605 76.6493 62.5021 76.7058 62.6339C76.7623 62.7657 76.8444 62.8849 76.9473 62.9848Z" fill="#831E00"/>
<path d="M47.2122 55.5235L12.7052 86.9152L13.6043 87.907C13.6043 87.907 14.8201 88.3412 15.5675 88.3765L15.5681 88.3765C16.3051 88.4112 17.1301 88.3244 18.0217 88.1183L19.381 87.8039L16.6484 86.2917L23.6624 85.7376L23.7683 85.6763C24.3473 85.3399 24.9453 84.9676 25.5463 84.5716L26.5629 83.9006L21.1671 82.5517L30.3938 80.9086L30.5044 80.8148C31.0469 80.3527 31.5819 79.8818 32.1092 79.4022C36.1618 75.7149 40.2307 71.1406 43.2719 66.8518L44.9445 64.349L44.9537 64.3345C47.7251 59.8871 48.4853 56.9223 47.2116 55.5229L47.2122 55.5235Z" fill="#D67B00"/>
<path d="M47.2396 55.5555C46.8077 55.0807 46.1645 54.8202 45.3261 54.7797C42.3828 54.6407 37.4756 57.2796 34.813 58.8642L34.6017 58.9898L33.7958 63.5942L32.3919 60.3712L31.8598 60.7237C28.4255 62.999 24.9397 65.7038 22.0426 68.3392C21.5111 68.8226 20.9872 69.3153 20.4852 69.8034L20.381 69.9047L17.8753 78.9345L17.0417 73.4357L16.2775 74.3852C15.8393 74.9284 15.4165 75.4838 15.0096 76.0508L14.9389 76.1504L13.726 83.0804L12.4778 80.2175L12.0367 81.5415C11.4525 83.2928 11.8329 85.9566 11.8329 85.9566L12.7326 86.9483L47.2396 55.5555Z" fill="#E5BC00"/>
<path d="M37.3186 69.8095L33.1832 69.7823L39.7901 63.7717C39.9936 63.5755 40.1125 63.3078 40.1217 63.0254C40.131 62.7429 40.0297 62.468 39.8395 62.259C39.6494 62.05 39.3852 61.9233 39.1031 61.9059C38.8211 61.8885 38.5433 61.9817 38.3289 62.1657L31.7225 68.1758L32.0844 64.0565C32.0889 63.7744 31.9834 63.5015 31.7903 63.2958C31.5972 63.09 31.3315 62.9675 31.0497 62.9542C30.7678 62.9409 30.4918 63.0378 30.2801 63.2244C30.0684 63.4111 29.9377 63.6727 29.9156 63.9541L29.4513 70.242L24.3739 74.8609L24.4139 71.0352C24.4275 70.7475 24.3262 70.4662 24.1324 70.2532C23.9386 70.0402 23.6681 69.9129 23.3805 69.8993C23.0928 69.8857 22.8115 69.9869 22.5985 70.1807C22.3855 70.3746 22.2582 70.645 22.2446 70.9327L22.1027 76.9271L4.52009 92.9229C4.41464 93.0188 4.32912 93.1346 4.26841 93.2636C4.20771 93.3926 4.173 93.5323 4.16628 93.6747C4.15956 93.8171 4.18096 93.9594 4.22925 94.0936C4.27754 94.2277 4.35178 94.351 4.44773 94.4565C4.54367 94.5619 4.65945 94.6475 4.78845 94.7082C4.91744 94.7689 5.05714 94.8036 5.19955 94.8103C5.34196 94.817 5.4843 94.7956 5.61845 94.7473C5.75259 94.699 5.87591 94.6248 5.98136 94.5289L23.5634 78.5337L29.5451 78.9575C29.6875 78.9643 29.8299 78.9429 29.9641 78.8946C30.0983 78.8464 30.2217 78.7721 30.3272 78.6761C30.4327 78.5802 30.5182 78.4644 30.5789 78.3353C30.6396 78.2063 30.6743 78.0665 30.681 77.9241C30.7088 77.3249 30.245 76.8385 29.6476 76.7882L25.8346 76.4674L30.912 71.8486L37.2161 71.9789C37.5038 71.9925 37.7851 71.8912 37.9981 71.6974C38.2111 71.5036 38.3385 71.2331 38.352 70.9454C38.3588 70.803 38.3374 70.6606 38.2891 70.5265C38.2408 70.3923 38.1665 70.2689 38.0706 70.1635C37.8768 69.9504 37.6063 69.8231 37.3186 69.8095Z" fill="#A73F06"/>
<path d="M37.3185 69.8102L33.1831 69.7829L39.7901 63.7723C40.0029 63.5786 40.1301 63.3082 40.1436 63.0208C40.1572 62.7333 40.0561 62.4522 39.8624 62.2393L4.44763 94.4565C4.64911 94.6783 4.92237 94.7981 5.1991 94.8108C5.34149 94.8178 5.48385 94.7965 5.61799 94.7482C5.75212 94.6999 5.87538 94.6256 5.98068 94.5295L23.5633 78.5343L29.545 78.9581C29.6874 78.9649 29.8298 78.9435 29.964 78.8952C30.0982 78.847 30.2216 78.7727 30.3271 78.6767C30.4326 78.5808 30.5181 78.465 30.5788 78.3359C30.6395 78.2069 30.6742 78.0671 30.6809 77.9247C30.7087 77.3255 30.2449 76.8392 29.6475 76.7888L25.8345 76.468L30.9119 71.8492L37.2161 71.9795C37.5037 71.9931 37.785 71.8918 37.998 71.698C38.2111 71.5042 38.3384 71.2337 38.352 70.946C38.3587 70.8036 38.3373 70.6612 38.289 70.5271C38.2407 70.3929 38.1665 70.2695 38.0705 70.1641C37.8767 69.951 37.6062 69.8237 37.3185 69.8102Z" fill="#834000"/>
<path d="M55.63 106.018L98.5329 87.7003L98.009 86.4689C98.009 86.4689 97.0027 85.6584 96.308 85.3805L96.308 85.3799C95.6237 85.1049 94.8155 84.9167 93.9054 84.8183L92.5188 84.6689L94.6024 86.9946L87.7963 85.2143L87.6759 85.2375C87.0182 85.3648 86.331 85.52 85.6334 85.6972L84.4529 85.9965L89.1059 89.0429L79.852 87.5648L79.7165 87.6169C79.0623 87.8717 78.3965 88.1426 77.7371 88.424C72.698 90.5759 67.3525 93.5604 63.0712 96.612L60.6697 98.427L60.6564 98.4375C56.5777 101.728 54.8866 104.278 55.6294 106.018L55.63 106.018Z" fill="#D67B00"/>
<path d="M55.6141 105.98C55.8665 106.57 56.3887 107.027 57.1674 107.34C59.9017 108.438 65.4029 107.558 68.4389 106.935L68.6792 106.887L70.9527 102.802L71.2207 106.307L71.8385 106.149C75.8297 105.127 80.0109 103.718 83.6125 102.18C84.2678 101.901 84.9184 101.61 85.5642 101.309L85.6956 101.248L91.0283 93.5414L90.0105 99.009L91.0433 98.3635C91.6357 97.9943 92.2175 97.6085 92.7883 97.2067L92.8878 97.1355L96.3094 90.9888L96.5479 94.1024L97.399 92.9966C98.5262 91.5348 99.0421 88.8936 99.0421 88.8936L98.5181 87.6616L55.6141 105.98Z" fill="#E5BC00"/>
<path d="M69.6668 95.7744L73.5637 97.1581L65.3495 100.665C65.0902 100.782 64.887 100.996 64.7835 101.261C64.6801 101.526 64.6847 101.821 64.7964 102.082C64.9081 102.344 65.1179 102.551 65.3808 102.66C65.6437 102.768 65.9387 102.769 66.2023 102.663L74.4159 99.1555L72.7207 102.927C72.6234 103.192 72.6331 103.485 72.7478 103.743C72.8626 104.001 73.0733 104.204 73.3354 104.31C73.5974 104.415 73.8902 104.414 74.1515 104.307C74.4129 104.2 74.6223 103.995 74.7354 103.737L77.24 97.9495L83.5528 95.2545L82.2583 98.8556C82.153 99.1224 82.1576 99.4199 82.271 99.6834C82.3844 99.9468 82.5975 100.155 82.8636 100.261C83.1298 100.368 83.4274 100.365 83.6915 100.254C83.9555 100.142 84.1646 99.9299 84.273 99.6644L86.3763 94.0486L108.237 84.7154C108.502 84.6023 108.711 84.3886 108.818 84.1214C108.925 83.8543 108.922 83.5554 108.809 83.2906C108.696 83.0258 108.482 82.8168 108.215 82.7095C107.948 82.6022 107.649 82.6055 107.384 82.7186L85.5241 92.0518L80.0137 89.6874C79.8814 89.6341 79.7399 89.6075 79.5972 89.609C79.4546 89.6104 79.3137 89.64 79.1825 89.696C79.0513 89.7519 78.9324 89.8332 78.8327 89.9352C78.7329 90.0371 78.6542 90.1577 78.6011 90.2901C78.3782 90.8464 78.6567 91.4584 79.2043 91.7021L82.7 93.2577L76.3878 95.9527L70.4761 93.7591C70.209 93.6518 69.9101 93.655 69.6453 93.768C69.3805 93.881 69.1714 94.0946 69.0641 94.3618C68.9567 94.629 68.9599 94.9278 69.073 95.1926C69.186 95.4575 69.3996 95.6665 69.6668 95.7739L69.6668 95.7744Z" fill="#A73F06"/>
<path d="M69.6666 95.7741L73.5635 97.1577L65.3494 100.665C65.0847 100.778 64.8758 100.992 64.7685 101.259C64.6613 101.526 64.6645 101.824 64.7774 102.089L108.809 83.2908C108.691 83.0146 108.473 82.8126 108.215 82.709C107.957 82.6059 107.659 82.6007 107.384 82.7182L85.524 92.0514L80.0135 89.687C79.8812 89.6338 79.7397 89.6071 79.5971 89.6086C79.4545 89.6101 79.3135 89.6396 79.1823 89.6956C79.0511 89.7516 78.9323 89.8329 78.8325 89.9348C78.7327 90.0367 78.654 90.1573 78.6009 90.2897C78.378 90.8461 78.6565 91.458 79.2042 91.7017L82.6999 93.2574L76.3876 95.9524L70.476 93.7587C70.2088 93.6514 69.9099 93.6546 69.6451 93.7676C69.3803 93.8807 69.1712 94.0943 69.0639 94.3614C68.9566 94.6286 68.9598 94.9275 69.0728 95.1923C69.1858 95.4571 69.3994 95.6662 69.6666 95.7735L69.6666 95.7741Z" fill="#834000"/>
<path d="M66.7962 76.2773L46.0166 118.043L47.2139 118.641C47.2139 118.641 48.5049 118.605 49.2141 118.367C49.9141 118.133 50.6511 117.753 51.4072 117.237L52.5604 116.451L49.466 116.033L55.8014 112.974L55.8778 112.878C56.3122 112.332 56.7311 111.773 57.1341 111.204L57.8387 110.21L52.3213 110.908L60.3241 106.032L60.3936 105.905C60.7316 105.278 61.0593 104.645 61.3766 104.007C63.8175 99.1012 65.9509 93.3627 67.231 88.2633L67.8823 85.3246L67.8858 85.3078C68.8566 80.158 68.4902 77.1197 66.7962 76.2773Z" fill="#DD3400"/>
<path d="M66.8337 76.298C66.2588 76.012 65.5647 76.0016 64.7686 76.269C61.9752 77.2058 58.3585 81.4437 56.4515 83.8862L56.3004 84.0796L57.218 88.6625L54.7413 86.1684L54.3731 86.6895C51.9976 90.0555 49.7287 93.8395 47.985 97.3456C47.6648 97.9888 47.3545 98.6384 47.0638 99.2747L47.0036 99.4067L47.9415 108.731L45.1707 103.909L44.8031 105.07C44.5917 105.735 44.399 106.406 44.2253 107.082L44.1952 107.201L45.5771 114.099L43.3765 111.884L43.4448 113.278C43.5357 115.122 44.8557 117.466 44.8557 117.466L46.0536 118.064L66.8337 76.298Z" fill="#B42A00"/>
<path d="M62.7544 93.1789L58.8905 94.6524L62.8684 86.6554C62.9866 86.3988 63.0002 86.1063 62.9064 85.8399C62.8125 85.5735 62.6185 85.3541 62.3656 85.2284C62.1127 85.1026 61.8207 85.0803 61.5517 85.1662C61.2826 85.2521 61.0575 85.4395 60.9243 85.6885L56.9464 93.6838L55.7902 89.7139C55.6916 89.4501 55.4943 89.2349 55.24 89.1137C54.9857 88.9926 54.6943 88.975 54.4273 89.0646C54.1603 89.1542 53.9385 89.344 53.8088 89.5941C53.6791 89.8441 53.6515 90.1347 53.732 90.4046L55.5783 96.4332L52.5209 102.579L51.1708 98.9985C51.0772 98.7281 50.8807 98.5056 50.6239 98.3793C50.3671 98.2531 50.0708 98.2333 49.7996 98.3243C49.5283 98.4154 49.3039 98.6099 49.1753 98.8654C49.0466 99.121 49.0241 99.4171 49.1126 99.6892L51.1528 105.328L40.565 126.609C40.4368 126.866 40.4163 127.165 40.5079 127.437C40.5996 127.71 40.7959 127.936 41.0537 128.064C41.3115 128.192 41.6097 128.213 41.8826 128.121C42.1556 128.029 42.3809 127.833 42.5091 127.575L53.0969 106.295L58.825 104.522C58.9602 104.476 59.0852 104.405 59.1927 104.311C59.3003 104.218 59.3884 104.104 59.4519 103.976C59.5154 103.849 59.5532 103.71 59.5631 103.567C59.5729 103.425 59.5547 103.282 59.5094 103.147C59.3183 102.579 58.7098 102.293 58.1344 102.463L54.4644 103.546L57.5218 97.4006L63.4445 95.2371C63.7175 95.1455 63.9429 94.9492 64.0712 94.6914C64.1995 94.4336 64.2201 94.1354 64.1285 93.8624C64.0369 93.5894 63.8406 93.3639 63.5828 93.2357C63.325 93.1074 63.0268 93.0868 62.7538 93.1784L62.7544 93.1789Z" fill="#552003"/>
<path d="M62.7544 93.1788L58.8905 94.6522L62.8684 86.6552C62.9967 86.3975 63.0173 86.0993 62.9258 85.8264C62.8343 85.5534 62.6381 85.328 62.3804 85.1997L41.0531 128.064C41.3217 128.198 41.6193 128.21 41.8821 128.122C42.0174 128.077 42.1424 128.005 42.2499 127.911C42.3574 127.818 42.4453 127.704 42.5086 127.576L53.0969 106.295L58.825 104.521C58.9602 104.476 59.0852 104.405 59.1927 104.311C59.3003 104.218 59.3884 104.104 59.4519 103.976C59.5154 103.848 59.5532 103.71 59.5631 103.567C59.5729 103.425 59.5547 103.282 59.5094 103.147C59.3183 102.579 58.7098 102.293 58.1344 102.463L54.4644 103.545L57.5218 97.401L63.4445 95.2369C63.7175 95.1453 63.9429 94.949 64.0712 94.6912C64.1995 94.4334 64.2201 94.1352 64.1285 93.8622C64.0369 93.5892 63.8406 93.3638 63.5828 93.2355C63.325 93.1072 63.0268 93.0866 62.7538 93.1782L62.7544 93.1788Z" fill="#831E00"/>
<path d="M33.6398 31.8012L72.2063 58.0461L72.9607 56.9403C72.9607 56.9403 73.0997 55.6567 72.9607 54.9221L72.9607 54.9215C72.8229 54.1966 72.5462 53.4145 72.1374 52.5958L71.5151 51.3471L70.6814 54.3558L68.5086 47.6644L68.4241 47.5758C67.9418 47.0714 67.4454 46.5806 66.9356 46.1041L66.0463 45.2716L65.9913 50.833L62.2444 42.2431L62.1269 42.1574C61.5601 41.7441 60.9724 41.3295 60.3796 40.926C55.8499 37.8437 50.453 34.9524 45.5736 32.9938L42.7507 31.9506L42.7344 31.9448C37.7636 30.2855 34.7039 30.2369 33.6392 31.8012L33.6398 31.8012Z" fill="#DD3400"/>
<path d="M33.6647 31.7666C33.3034 32.2975 33.1992 32.9841 33.3561 33.8085C33.9061 36.7033 37.6154 40.8601 39.7766 43.081L39.948 43.257L44.6131 42.9681L41.8064 45.0847L42.273 45.5201C45.2859 48.3291 48.7283 51.0895 51.9658 53.293C52.5598 53.6971 53.1613 54.092 53.7524 54.4666L53.8751 54.5441L63.2408 54.877L58.0875 56.9693L59.1875 57.491C59.8183 57.7906 60.4573 58.0725 61.1039 58.3362L61.2168 58.382L68.2388 57.9472L65.7459 59.8276L67.1353 59.948C68.9752 60.1084 71.4769 59.1178 71.4769 59.1178L72.2318 58.012L33.6647 31.7666Z" fill="#B42A00"/>
<path d="M49.8375 38.0941L50.7743 42.1224L43.3904 37.0971C43.1522 36.9438 42.8636 36.8896 42.586 36.9461C42.3085 37.0026 42.0639 37.1652 41.9046 37.3994C41.7453 37.6336 41.6837 37.9208 41.7331 38.1997C41.7824 38.4786 41.9388 38.7272 42.1688 38.8924L49.5521 43.9171L45.4619 44.5244C45.1869 44.5863 44.9468 44.7525 44.7921 44.988C44.6375 45.2236 44.5805 45.51 44.6331 45.7869C44.6857 46.0637 44.8438 46.3092 45.0741 46.4717C45.3043 46.6341 45.5887 46.7006 45.8671 46.6573L52.0908 45.6441L57.7656 49.5063L54.0355 50.3585C53.7526 50.4122 53.5026 50.5762 53.3406 50.8142C53.1785 51.0523 53.1177 51.3449 53.1714 51.6278C53.2252 51.9108 53.3891 52.1607 53.6271 52.3228C53.8652 52.4848 54.1578 52.5457 54.4408 52.4919L60.3038 51.2333L79.955 64.6058C80.0728 64.6869 80.2055 64.744 80.3454 64.7736C80.4853 64.8033 80.6297 64.805 80.7703 64.7787C80.9109 64.7524 81.0449 64.6985 81.1647 64.6202C81.2844 64.5419 81.3874 64.4408 81.4679 64.3225C81.5484 64.2043 81.6047 64.0713 81.6336 63.9312C81.6626 63.7911 81.6635 63.6467 81.6364 63.5062C81.6094 63.3658 81.5548 63.232 81.4759 63.1128C81.3969 62.9935 81.2952 62.8909 81.1765 62.8111L61.5253 49.4386L60.5446 43.5229C60.518 43.3828 60.464 43.2493 60.3858 43.13C60.3076 43.0108 60.2067 42.9081 60.0887 42.8279C59.9708 42.7477 59.8383 42.6915 59.6987 42.6625C59.559 42.6336 59.4151 42.6324 59.275 42.6591C58.6856 42.7714 58.3209 43.3359 58.4112 43.9287L58.9872 47.711L53.313 43.8494L51.971 37.6888C51.9444 37.5487 51.8904 37.4153 51.8122 37.296C51.734 37.1768 51.6331 37.0741 51.5153 36.9939C51.3974 36.9137 51.2649 36.8574 51.1253 36.8284C50.9857 36.7994 50.8417 36.7981 50.7016 36.8247C50.5615 36.8513 50.4281 36.9053 50.3088 36.9835C50.1896 37.0617 50.0869 37.1626 50.0067 37.2805C49.9265 37.3983 49.8702 37.5308 49.8412 37.6704C49.8122 37.81 49.8109 37.954 49.8375 38.0941Z" fill="#552003"/>
<path d="M49.8376 38.0941L50.7744 42.1224L43.3905 37.0971C43.1525 36.9351 42.8599 36.8743 42.577 36.9281C42.2942 36.9818 42.0443 37.1457 41.8823 37.3837L81.4632 64.3192C81.5436 64.2015 81.5999 64.069 81.6289 63.9294C81.6579 63.7898 81.6591 63.6459 81.6323 63.5058C81.5802 63.2331 81.4238 62.9796 81.1766 62.8111L61.5254 49.4397L60.5447 43.5229C60.5181 43.3828 60.4641 43.2493 60.3859 43.13C60.3077 43.0108 60.2067 42.9081 60.0888 42.8279C59.9709 42.7477 59.8384 42.6915 59.6987 42.6625C59.5591 42.6336 59.4151 42.6324 59.275 42.6591C58.6857 42.7714 58.3209 43.3359 58.4113 43.9287L58.9873 47.7116L53.313 43.85L51.971 37.6888C51.9444 37.5487 51.8905 37.4153 51.8123 37.296C51.7341 37.1768 51.6332 37.0741 51.5153 36.9939C51.3975 36.9137 51.2649 36.8574 51.1253 36.8284C50.9857 36.7994 50.8418 36.7981 50.7017 36.8247C50.5616 36.8513 50.4282 36.9053 50.3089 36.9835C50.1897 37.0617 50.087 37.1626 50.0068 37.2805C49.9265 37.3983 49.8703 37.5308 49.8413 37.6704C49.8123 37.81 49.811 37.954 49.8376 38.0941Z" fill="#831E00"/>
<path d="M66.4696 29.5903L96.2159 65.5262L97.2482 64.674C97.2482 64.674 97.7386 63.4802 97.8086 62.7345L97.8092 62.7345C97.8787 62.0004 97.83 61.1713 97.6656 60.2717L97.4149 58.8996L95.7765 61.5575L95.5507 54.5262L95.4946 54.4173C95.1716 53.7986 94.8312 53.1892 94.4739 52.5896L93.8515 51.5429L92.2519 56.8692L91.0419 47.5765L90.9533 47.4613C90.5237 46.9067 90.0739 46.3451 89.6171 45.7928C86.1231 41.5722 81.7434 37.2938 77.6016 34.0552L75.1799 32.2686L75.1654 32.2587C70.8522 29.2823 67.9268 28.385 66.4696 29.5909L66.4696 29.5903Z" fill="#D67B00"/>
<path d="M66.5031 29.5649C66.0087 29.9737 65.7175 30.6047 65.6388 31.4402C65.3626 34.3737 67.7693 39.3984 69.2277 42.1322L69.3429 42.3493L73.905 43.3694L70.62 44.621L70.9466 45.1693C73.0597 48.7055 75.5984 52.3147 78.0954 55.331C78.5533 55.8845 79.0217 56.431 79.4849 56.9555L79.5816 57.0638L88.4846 59.9886L82.9533 60.5653L83.8652 61.3723C84.3875 61.8353 84.9226 62.2836 85.47 62.7166L85.5667 62.7919L92.4319 64.3278L89.514 65.4406L90.8166 65.9431C92.5384 66.6089 95.2166 66.353 95.2166 66.353L96.2494 65.5008L66.5031 29.5649Z" fill="#E5BC00"/>
<path d="M80.2785 40.1406L80.0574 44.2702L74.3623 37.39C74.1761 37.1767 73.9139 37.0445 73.6317 37.0216C73.3494 36.9988 73.0694 37.087 72.8513 37.2676C72.6332 37.4482 72.4943 37.7068 72.4641 37.9884C72.4339 38.2699 72.5148 38.5521 72.6897 38.7748L78.3848 45.6539L74.287 45.0998C74.0048 45.0811 73.7264 45.1732 73.511 45.3566C73.2957 45.5399 73.1603 45.8 73.1338 46.0816C73.1073 46.3632 73.1916 46.644 73.3689 46.8644C73.5462 47.0848 73.8025 47.2273 74.0832 47.2616L80.3428 48.0195L84.7196 53.307L80.8992 53.0882C80.6125 53.0612 80.3269 53.1492 80.1051 53.3329C79.8833 53.5165 79.7436 53.7808 79.7167 54.0674C79.6897 54.3541 79.7777 54.6398 79.9614 54.8615C80.145 55.0833 80.4093 55.223 80.6959 55.2499L86.6771 55.672L101.834 73.9824C101.925 74.0922 102.036 74.183 102.162 74.2497C102.288 74.3164 102.426 74.3576 102.568 74.371C102.71 74.3844 102.853 74.3697 102.99 74.3277C103.126 74.2858 103.252 74.2174 103.362 74.1265C103.472 74.0356 103.563 73.924 103.63 73.798C103.696 73.672 103.738 73.5341 103.751 73.3922C103.764 73.2502 103.75 73.1071 103.708 72.9708C103.666 72.8346 103.597 72.7079 103.506 72.5981L88.3496 54.2877L89.0525 48.3327C89.0795 48.0461 88.9917 47.7605 88.8082 47.5387C88.6247 47.3169 88.3606 47.177 88.0741 47.1499C87.4766 47.0937 86.9688 47.5343 86.8907 48.1283L86.3922 51.9222L82.0154 46.6352L82.4403 40.3438C82.4537 40.2018 82.439 40.0587 82.397 39.9224C82.3551 39.7861 82.2867 39.6595 82.1958 39.5496C82.1049 39.4398 81.9932 39.349 81.8672 39.2823C81.7412 39.2156 81.6033 39.1744 81.4613 39.161C81.3194 39.1476 81.1762 39.1623 81.0399 39.2043C80.9037 39.2462 80.777 39.3146 80.6672 39.4055C80.5573 39.4964 80.4665 39.6081 80.3998 39.7341C80.3331 39.8601 80.2919 39.9981 80.2785 40.14L80.2785 40.1406Z" fill="#A73F06"/>
<path d="M80.2785 40.1406L80.0574 44.2702L74.3623 37.39C74.2714 37.2802 74.1598 37.1893 74.0338 37.1227C73.9078 37.056 73.7699 37.0148 73.6279 37.0014C73.486 36.988 73.3428 37.0027 73.2066 37.0446C73.0703 37.0866 72.9437 37.155 72.8339 37.2459L103.362 74.1271C103.472 74.0364 103.563 73.9247 103.63 73.7986C103.696 73.6725 103.738 73.5345 103.751 73.3924C103.764 73.2506 103.75 73.1074 103.708 72.9712C103.666 72.835 103.598 72.7084 103.506 72.5987L88.3497 54.2883L89.0525 48.3333C89.0796 48.0467 88.9917 47.7611 88.8082 47.5393C88.6247 47.3175 88.3607 47.1776 88.0741 47.1505C87.4766 47.0943 86.9689 47.5349 86.8907 48.1289L86.3922 51.9233L82.0154 46.6358L82.4403 40.3444C82.4537 40.2024 82.439 40.0592 82.3971 39.923C82.3551 39.7867 82.2867 39.6601 82.1958 39.5502C82.1049 39.4404 81.9932 39.3495 81.8672 39.2829C81.7412 39.2162 81.6033 39.175 81.4613 39.1616C81.3194 39.1482 81.1762 39.1629 81.0399 39.2049C80.9037 39.2468 80.777 39.3152 80.6672 39.4061C80.5574 39.497 80.4665 39.6087 80.3998 39.7347C80.3331 39.8607 80.2919 39.9986 80.2785 40.1406Z" fill="#834000"/>
<path d="M87.7854 65.0819L53.8637 33.0586L52.9432 34.0312C52.9432 34.0312 52.6022 35.276 52.6236 36.024L52.6236 36.0245C52.6445 36.7621 52.7944 37.5779 53.0677 38.4509L53.4845 39.7825L54.7848 36.9439L55.8692 43.8942L55.9387 43.9955C56.335 44.5699 56.7473 45.133 57.1753 45.6843L57.921 46.6471L58.8566 41.1644L61.1955 50.2394L61.2974 50.3431C61.7995 50.8488 62.3098 51.3464 62.8281 51.8356C66.8125 55.597 71.6826 59.3063 76.1902 62.0135L78.8129 63.4904L78.8273 63.4985C83.4728 65.9243 86.4868 66.4569 87.7848 65.0813L87.7854 65.0819Z" fill="#DD3400"/>
<path d="M87.7552 65.1126C88.1958 64.6454 88.4071 63.9837 88.3834 63.1448C88.2983 60.1997 85.2953 55.5073 83.5127 52.9727L83.3714 52.7712L78.719 52.3173L81.8257 50.6731L81.4343 50.1694C78.9043 46.9175 75.943 43.647 73.0951 40.9584C72.5729 40.4651 72.0414 39.98 71.5169 39.5168L71.4081 39.4207L62.2138 37.608L67.6328 36.3586L66.6294 35.6697C66.0543 35.2739 65.4682 34.8944 64.8718 34.5315L64.767 34.4678L57.7652 33.7846L60.5244 32.3234L59.1709 31.9841C57.3808 31.5343 54.7535 32.1161 54.7535 32.1161L53.833 33.0887L87.7552 65.1126Z" fill="#B42A00"/>
<path d="M72.789 56.3021L72.5025 52.1766L78.9971 58.3076C79.208 58.4962 79.4842 58.5951 79.7669 58.5831C80.0496 58.5712 80.3165 58.4494 80.5108 58.2437C80.705 58.0379 80.8113 57.7645 80.8071 57.4816C80.8028 57.1987 80.6883 56.9286 80.4879 56.7288L73.9933 50.5978L78.1281 50.6464C78.413 50.6338 78.6815 50.5097 78.8756 50.3008C79.0698 50.092 79.174 49.8151 79.1658 49.5301C79.1576 49.2451 79.0376 48.9747 78.8317 48.7773C78.6259 48.58 78.3507 48.4715 78.0656 48.4754L71.7603 48.4898L66.7697 43.7784L70.5873 43.5271C70.8751 43.5188 71.1479 43.3965 71.3455 43.1871C71.5432 42.9777 71.6496 42.6984 71.6413 42.4106C71.633 42.1228 71.5107 41.85 71.3013 41.6524C71.0919 41.4547 70.8126 41.3483 70.5248 41.3566L64.5367 41.6704L47.2523 25.3539C47.0429 25.1562 46.7636 25.0498 46.4757 25.0581C46.1879 25.0663 45.9152 25.1886 45.7175 25.3979C45.5198 25.6073 45.4134 25.8866 45.4216 26.1744C45.4299 26.4623 45.5521 26.735 45.7615 26.9327L63.0454 43.2492L63.0772 49.2454C63.0813 49.3879 63.1135 49.5282 63.1718 49.6583C63.2302 49.7884 63.3136 49.9057 63.4173 50.0035C63.521 50.1014 63.643 50.1778 63.7763 50.2285C63.9095 50.2793 64.0515 50.3032 64.194 50.299C64.7932 50.2822 65.243 49.7826 65.2477 49.1828L65.2784 45.3571L70.2695 50.0686L70.6186 56.3647C70.6227 56.5072 70.6548 56.6475 70.7131 56.7776C70.7715 56.9077 70.8549 57.025 70.9585 57.1229C71.0622 57.2208 71.1842 57.2973 71.3174 57.348C71.4506 57.3987 71.5926 57.4227 71.7351 57.4186C71.8776 57.4145 72.0179 57.3824 72.148 57.3241C72.2781 57.2657 72.3954 57.1824 72.4933 57.0787C72.5912 56.975 72.6677 56.8531 72.7184 56.7198C72.7691 56.5866 72.7932 56.4447 72.789 56.3021Z" fill="#552003"/>
<path d="M72.789 56.3017L72.5025 52.1761L78.9971 58.3071C79.433 58.7182 80.1203 58.6991 80.5313 58.2631L45.7175 25.3975C45.5114 25.6151 45.4135 25.8959 45.4216 26.1732C45.4297 26.4511 45.5432 26.7261 45.7615 26.9317L63.0454 43.2481L63.0772 49.2449C63.0813 49.3874 63.1135 49.5277 63.1718 49.6578C63.2302 49.7879 63.3136 49.9052 63.4173 50.0031C63.521 50.1009 63.643 50.1774 63.7763 50.2281C63.9095 50.2788 64.0515 50.3027 64.194 50.2986C64.7932 50.2818 65.243 49.7821 65.2477 49.1824L65.2784 45.3567L70.2695 50.0681L70.6186 56.3642C70.6227 56.5067 70.6548 56.647 70.7131 56.7771C70.7715 56.9072 70.8549 57.0246 70.9585 57.1224C71.0622 57.2203 71.1842 57.2968 71.3174 57.3475C71.4506 57.3983 71.5926 57.4223 71.7351 57.4182C71.8776 57.4141 72.0179 57.3819 72.148 57.3236C72.2781 57.2653 72.3954 57.1819 72.4933 57.0782C72.5912 56.9745 72.6677 56.8526 72.7184 56.7194C72.7691 56.5861 72.7932 56.4442 72.789 56.3017Z" fill="#831E00"/>
<path d="M79.3486 65.1154L37.955 43.604L37.3355 44.7908C37.3355 44.7908 37.3488 46.0819 37.5746 46.7952C37.7964 47.4992 38.164 48.2431 38.6659 49.0079L39.4313 50.1745L39.9049 47.0881L42.8517 53.4762L42.9455 53.5544C43.4841 53.9986 44.0351 54.4276 44.5978 54.8408L45.5786 55.5622L44.9776 50.0332L49.7117 58.1211L49.8379 58.1923C50.4498 58.5362 51.0826 58.8784 51.7183 59.2089C56.5803 61.7355 62.28 63.9702 67.3568 65.34L70.2834 66.0423L70.3002 66.0457C75.432 67.1075 78.4761 66.7943 79.3486 65.1159L79.3486 65.1154Z" fill="#D67B00"/>
<path d="M79.3279 65.1528C79.6237 64.5831 79.6463 63.889 79.3933 63.0889C78.5052 60.2792 74.3316 56.5885 71.9232 54.6391L71.7321 54.4846L67.1335 55.3217L69.6711 52.889L69.1564 52.5121C65.8332 50.0776 62.0892 47.7427 58.6143 45.937C57.982 45.6081 57.3443 45.2896 56.7015 44.9817L56.5706 44.9198L47.2311 45.6932L52.1017 43.0081L50.9473 42.6202C50.2859 42.397 49.6183 42.1923 48.9453 42.0065L48.8272 41.9747L41.9059 43.2345L44.1597 41.0732L42.7651 41.1172C40.9199 41.1751 38.5521 42.454 38.5521 42.454L37.9332 43.6409L79.3279 65.1528Z" fill="#E5BC00"/>
<path d="M62.521 60.7773L61.1159 56.8879L69.0411 61.0066C69.2957 61.1308 69.5888 61.1507 69.8578 61.0619C70.1268 60.9732 70.3505 60.7828 70.4812 60.5315C70.6119 60.2801 70.6392 59.9876 70.5572 59.7165C70.4753 59.4453 70.2907 59.2168 70.0427 59.0798L62.1175 54.9618L66.1076 53.8757C66.3742 53.7825 66.594 53.5892 66.7204 53.3367C66.8468 53.0842 66.87 52.7924 66.7849 52.5231C66.6998 52.2539 66.5132 52.0284 66.2646 51.8944C66.0161 51.7604 65.7251 51.7284 65.4534 51.8054L59.393 53.5457L53.3024 50.38L56.9058 49.0936C57.0418 49.0506 57.1679 48.9813 57.2771 48.8896C57.3862 48.7979 57.4762 48.6856 57.542 48.5591C57.6077 48.4326 57.6479 48.2944 57.6603 48.1523C57.6726 48.0103 57.6568 47.8672 57.6139 47.7313C57.5709 47.5954 57.5016 47.4692 57.4099 47.3601C57.3182 47.2509 57.2059 47.1609 57.0794 47.0951C56.9529 47.0294 56.8147 46.9892 56.6726 46.9769C56.5306 46.9645 56.3875 46.9803 56.2516 47.0232L50.5779 48.9645L29.4869 38.0032C29.3604 37.9375 29.2221 37.8973 29.0801 37.8849C28.938 37.8726 28.7949 37.8883 28.659 37.9313C28.3844 38.018 28.1555 38.2103 28.0227 38.4658C27.8899 38.7213 27.864 39.0191 27.9508 39.2937C28.0375 39.5683 28.2298 39.7972 28.4853 39.93L49.5763 50.8906L51.2489 56.6494C51.2919 56.7853 51.3612 56.9115 51.4529 57.0207C51.5446 57.1298 51.6569 57.2198 51.7834 57.2856C51.9099 57.3513 52.0481 57.3915 52.1901 57.4039C52.3322 57.4162 52.4752 57.4004 52.6112 57.3575C53.1826 57.1768 53.4784 56.573 53.3192 55.9952L52.3009 52.3073L58.3914 55.4718L60.4507 61.4315C60.4937 61.5674 60.563 61.6936 60.6547 61.8027C60.7464 61.9119 60.8587 62.0019 60.9852 62.0677C61.1117 62.1334 61.2499 62.1736 61.3919 62.1859C61.534 62.1983 61.677 62.1825 61.813 62.1396C61.9489 62.0966 62.0751 62.0273 62.1842 61.9356C62.2934 61.8439 62.3834 61.7316 62.4491 61.6051C62.5149 61.4786 62.5551 61.3404 62.5674 61.1983C62.5797 61.0563 62.564 60.9132 62.521 60.7773Z" fill="#A73F06"/>
<path d="M62.521 60.7768L61.1158 56.8874L69.0411 61.0061C69.5731 61.2828 70.2279 61.0755 70.5046 60.5435L28.0226 38.4653C27.8837 38.7316 27.8669 39.0286 27.9509 39.2932C28.0342 39.5584 28.2189 39.7911 28.4852 39.9295L49.5757 50.8901L51.2483 56.6489C51.2912 56.7849 51.3605 56.911 51.4522 57.0202C51.5439 57.1293 51.6562 57.2193 51.7827 57.2851C51.9092 57.3509 52.0475 57.391 52.1895 57.4034C52.3315 57.4157 52.4746 57.3999 52.6105 57.357C53.182 57.1763 53.4778 56.5725 53.3186 55.9947L52.3002 52.3062L58.3907 55.4713L60.4501 61.431C60.493 61.567 60.5623 61.6931 60.654 61.8023C60.7457 61.9114 60.8581 62.0014 60.9845 62.0672C61.111 62.1329 61.2493 62.1731 61.3913 62.1854C61.5333 62.1978 61.6764 62.182 61.8123 62.1391C61.9483 62.0961 62.0744 62.0268 62.1836 61.9351C62.2927 61.8434 62.3827 61.7311 62.4485 61.6046C62.5142 61.4781 62.5544 61.3399 62.5668 61.1978C62.5791 61.0558 62.5633 60.9127 62.5204 60.7768L62.521 60.7768Z" fill="#834000"/>
<path d="M62.9322 88.7407L53.5961 43.0352L52.2837 43.3015C52.2837 43.3015 51.289 44.1236 50.8768 44.7483L50.8757 44.7483C50.4692 45.3637 50.1225 46.1175 49.844 46.9888L49.419 48.3181L52.1158 46.7433L49.0057 53.0538L49.0045 53.1766C48.9984 53.8745 49.0119 54.5724 49.045 55.2695L49.1018 56.4858L53.0195 52.5392L49.7143 61.3085L49.7386 61.4515C49.8584 62.1539 49.9897 62.8543 50.1323 63.5525C51.2288 68.9211 53.0803 74.7563 55.2108 79.5633L56.5071 82.2797L56.5146 82.2947C58.9196 86.9512 61.079 89.1194 62.9322 88.7407Z" fill="#DD3400"/>
<path d="M62.8907 88.7478C63.5194 88.6193 64.0729 88.1995 64.5354 87.4996C66.16 85.0414 66.4014 79.4754 66.4008 76.3763L66.4008 76.1308L62.8559 73.0838L66.3435 73.5249L66.3128 72.8881C66.1125 68.7729 65.5706 64.3938 64.7867 60.5571C64.6431 59.8531 64.4874 59.1502 64.3247 58.47L64.2911 58.3287L57.8116 51.5591L62.9642 53.6531L62.5387 52.512C62.2957 51.8578 62.0345 51.2105 61.7553 50.5708L61.7056 50.4585L56.37 45.8732L59.4685 46.264L58.5561 45.208C57.3501 43.8105 54.8659 42.7759 54.8659 42.7759L53.554 43.0422L62.8907 88.7478Z" fill="#B42A00"/>
<path d="M55.7128 72.9337L57.8508 69.394L59.638 78.1448C59.7018 78.4207 59.8708 78.6609 60.1091 78.814C60.3473 78.9671 60.6359 79.021 60.9134 78.9644C61.1909 78.9078 61.4353 78.745 61.5945 78.5108C61.7537 78.2766 61.8151 77.9895 61.7657 77.7106L59.9779 68.9598L63.3329 71.3775C63.5732 71.5305 63.864 71.583 64.1426 71.5236C64.4213 71.4643 64.6654 71.2978 64.8224 71.0601C64.9795 70.8224 65.0369 70.5325 64.9822 70.2529C64.9275 69.9733 64.7652 69.7264 64.5301 69.5654L59.3636 65.951L57.9898 59.226L61.2573 61.2164C61.4976 61.3752 61.791 61.432 62.0732 61.3744C62.3553 61.3168 62.603 61.1495 62.7617 60.9093C62.9205 60.669 62.9773 60.3756 62.9197 60.0935C62.8622 59.8113 62.6948 59.5636 62.4546 59.4049L57.3755 56.2183L52.6177 32.929C52.5906 32.7881 52.5357 32.6539 52.4563 32.5342C52.377 32.4146 52.2747 32.3119 52.1553 32.2321C52.036 32.1523 51.902 32.0969 51.7612 32.0692C51.6203 32.0415 51.4753 32.042 51.3347 32.0708C51.194 32.0995 51.0604 32.1558 50.9417 32.2365C50.8229 32.3172 50.7214 32.4206 50.6429 32.5408C50.5644 32.661 50.5105 32.7956 50.4844 32.9368C50.4583 33.078 50.4604 33.2229 50.4907 33.3632L55.2479 56.6514L51.8251 61.5759C51.7466 61.6949 51.6922 61.8281 51.6651 61.9681C51.638 62.1081 51.6388 62.252 51.6673 62.3916C51.6959 62.5313 51.7517 62.664 51.8315 62.7821C51.9113 62.9002 52.0136 63.0015 52.1326 63.08C52.6328 63.4106 53.2881 63.2607 53.6372 62.7732L55.8621 59.6602L57.236 66.3847L53.9012 71.7364C53.8227 71.8554 53.7683 71.9887 53.7412 72.1286C53.7141 72.2686 53.7149 72.4125 53.7434 72.5522C53.772 72.6918 53.8278 72.8245 53.9076 72.9426C53.9874 73.0607 54.0897 73.162 54.2087 73.2406C54.3276 73.3191 54.4609 73.3735 54.6008 73.4006C54.7408 73.4277 54.8847 73.4269 55.0244 73.3984C55.1641 73.3698 55.2967 73.314 55.4148 73.2342C55.533 73.1544 55.6342 73.0521 55.7128 72.9331L55.7128 72.9337Z" fill="#552003"/>
<path d="M55.7127 72.9341L57.8508 69.3938L59.638 78.1446C59.6956 78.4267 59.8629 78.6743 60.103 78.8331C60.3432 78.9918 60.6366 79.0486 60.9186 78.9911L51.3371 32.083C51.0435 32.1426 50.8015 32.3163 50.6481 32.5479C50.4953 32.7795 50.4304 33.0701 50.4906 33.3636L55.2478 56.6518L51.8251 61.5763C51.7465 61.6953 51.6922 61.8285 51.6651 61.9685C51.638 62.1085 51.6388 62.2524 51.6673 62.392C51.6958 62.5317 51.7516 62.6644 51.8315 62.7825C51.9113 62.9006 52.0136 63.0019 52.1325 63.0804C52.6327 63.411 53.2881 63.2611 53.6372 62.7736L55.8621 59.6606L57.236 66.3851L53.9012 71.7369C53.8226 71.8558 53.7683 71.9891 53.7412 72.129C53.7141 72.269 53.7149 72.4129 53.7434 72.5526C53.772 72.6922 53.8277 72.8249 53.9076 72.943C53.9874 73.0611 54.0897 73.1624 54.2086 73.241C54.3276 73.3195 54.4608 73.3739 54.6008 73.401C54.7408 73.4281 54.8847 73.4273 55.0244 73.3988C55.164 73.3702 55.2967 73.3144 55.4148 73.2346C55.5329 73.1548 55.6342 73.0525 55.7127 72.9335L55.7127 72.9341Z" fill="#831E00"/>
<path d="M37.5297 42.2559L58.7139 83.8186L59.9077 83.2118C59.9077 83.2118 60.647 82.1535 60.878 81.442L60.8786 81.442C61.1067 80.7403 61.2399 79.9211 61.2758 79.0069L61.3314 77.6128L59.1522 79.8493L60.4664 72.9384L60.4357 72.8197C60.2555 72.1454 60.0562 71.4762 59.8383 70.8131L59.4596 69.6558L56.7357 74.505L57.5832 65.1718L57.5219 65.0404C57.2237 64.4053 56.9076 63.7586 56.5823 63.12C54.0939 58.2384 50.7534 53.1077 47.4181 49.0429L45.445 46.7706L45.4335 46.7578C41.8741 42.9113 39.215 41.3968 37.5297 42.2559Z" fill="#D67B00"/>
<path d="M37.5684 42.2378C36.9958 42.529 36.5744 43.0813 36.315 43.8791C35.4049 46.6818 36.6566 52.1106 37.4833 55.0974L37.5487 55.3336L41.7774 57.3252L38.2991 57.83L38.4982 58.4362C39.7887 62.3487 41.4781 66.4245 43.2566 69.9132C43.5801 70.5482 43.914 71.1778 44.2582 71.8017L44.3282 71.9291L52.3785 76.7268L46.8542 76.0819L47.5686 77.0684C47.9771 77.6343 48.4015 78.1885 48.8411 78.7306L48.9187 78.8255L55.2836 81.8227L52.1932 82.2714L53.354 83.0461C54.8894 84.0714 57.5589 84.4066 57.5589 84.4066L58.7527 83.8004L37.5684 42.2378Z" fill="#E5BC00"/>
<path d="M48.7022 55.5657L47.5854 59.5477L43.5298 51.5901C43.395 51.3407 43.1681 51.1539 42.8974 51.0696C42.6268 50.9853 42.3339 51.0102 42.0813 51.1389C41.8287 51.2676 41.6365 51.49 41.5456 51.7585C41.4547 52.027 41.4725 52.3204 41.595 52.576L45.6511 60.5331L41.7727 59.0973C41.5007 59.0151 41.2072 59.0429 40.9554 59.1746C40.7036 59.3063 40.5134 59.5314 40.4256 59.8017C40.3379 60.0721 40.3596 60.366 40.4861 60.6205C40.6126 60.875 40.8339 61.0697 41.1023 61.163L47.0452 63.2692L50.1623 69.3846L46.4825 68.3367C46.3468 68.2927 46.2038 68.2758 46.0617 68.287C45.9195 68.2982 45.7809 68.3373 45.6539 68.402C45.3973 68.5328 45.2031 68.7601 45.1141 69.0341C45.0251 69.308 45.0486 69.606 45.1794 69.8627C45.3102 70.1193 45.5375 70.3134 45.8115 70.4024L51.5569 72.1196L62.3508 93.2975C62.4156 93.4245 62.5048 93.5376 62.6132 93.6301C62.7217 93.7227 62.8473 93.793 62.983 93.8371C63.1186 93.8811 63.2616 93.898 63.4038 93.8867C63.5459 93.8755 63.6845 93.8364 63.8115 93.7716C63.9386 93.7069 64.0516 93.6177 64.1442 93.5092C64.2368 93.4008 64.3071 93.2751 64.3511 93.1395C64.3951 93.0038 64.412 92.8609 64.4008 92.7187C64.3896 92.5765 64.3505 92.438 64.2857 92.3109L53.4912 71.1342L55.477 65.4762C55.5211 65.3406 55.538 65.1976 55.5268 65.0555C55.5157 64.9133 55.4766 64.7748 55.4119 64.6477C55.3471 64.5207 55.258 64.4076 55.1496 64.3151C55.0412 64.2225 54.9156 64.1521 54.7799 64.1081C54.2097 63.9228 53.618 64.2418 53.4119 64.8052L52.0971 68.3987L48.98 62.2833L50.7678 56.2367C50.8119 56.1011 50.8288 55.9581 50.8176 55.8159C50.8064 55.6738 50.7673 55.5352 50.7026 55.4081C50.6378 55.2811 50.5487 55.168 50.4402 55.0754C50.3318 54.9828 50.2061 54.9124 50.0705 54.8684C49.9349 54.8243 49.7919 54.8074 49.6497 54.8186C49.5075 54.8298 49.369 54.8689 49.2419 54.9337C49.1148 54.9984 49.0018 55.0876 48.9092 55.196C48.8166 55.3045 48.7462 55.4301 48.7022 55.5657Z" fill="#A73F06"/>
<path d="M48.7022 55.5659L47.5854 59.5479L43.5298 51.5903C43.2577 51.0559 42.6035 50.8434 42.0697 51.1155L63.8109 93.7718C63.9381 93.7072 64.0513 93.6181 64.1439 93.5096C64.2365 93.4011 64.3067 93.2753 64.3505 93.1396C64.3947 93.0041 64.4117 92.8612 64.4004 92.7191C64.3892 92.577 64.35 92.4386 64.2851 92.3117L53.4912 71.1338L55.477 65.4758C55.5211 65.3402 55.538 65.1972 55.5268 65.0551C55.5157 64.9129 55.4766 64.7744 55.4119 64.6473C55.3471 64.5203 55.258 64.4073 55.1496 64.3147C55.0412 64.2221 54.9156 64.1517 54.7799 64.1077C54.2097 63.9224 53.618 64.2414 53.4119 64.8048L52.0971 68.3983L48.98 62.2829L50.7678 56.2363C50.8119 56.1007 50.8288 55.9577 50.8176 55.8155C50.8064 55.6734 50.7673 55.5348 50.7026 55.4077C50.6378 55.2807 50.5487 55.1676 50.4402 55.075C50.3318 54.9824 50.2061 54.9121 50.0705 54.868C49.9349 54.8239 49.7919 54.807 49.6497 54.8182C49.5075 54.8294 49.369 54.8685 49.2419 54.9333C49.1148 54.998 49.0018 55.0872 48.9092 55.1956C48.8166 55.3041 48.7462 55.4297 48.7022 55.5653L48.7022 55.5659Z" fill="#834000"/>
<path d="M95.0579 63.2305L52.6963 82.7688L53.2556 83.9852C53.2556 83.9852 54.2838 84.7656 54.9866 85.0244C55.6785 85.2803 56.4919 85.4458 57.4037 85.5176L58.7944 85.6276L56.6453 83.3622L63.4995 84.9468L63.6187 84.9202C64.2997 84.7667 64.9761 84.5941 65.6474 84.4026L66.8186 84.0691L62.0805 81.157L71.3731 82.3699L71.5069 82.3137C72.1634 82.0366 72.8154 81.7489 73.4626 81.4505C78.438 79.1556 83.696 76.0194 87.8882 72.8462L90.2364 70.9635L90.2497 70.9519C94.2329 67.5465 95.8499 64.9482 95.0579 63.231L95.0579 63.2305Z" fill="#D67B00"/>
<path d="M95.0746 63.2701C94.8054 62.6877 94.2705 62.2448 93.4831 61.9542C90.7186 60.9352 85.2447 61.9721 82.2284 62.6813L81.9893 62.7375L79.8333 66.8851L79.4656 63.3888L78.852 63.5648C74.892 64.7001 70.7525 66.2285 67.1972 67.8687C66.5441 68.1697 65.8963 68.4818 65.2704 68.7956L65.1407 68.861L60.031 76.7167L60.8919 71.2225L59.8787 71.8964C59.2971 72.2827 58.7264 72.6852 58.1673 73.1035L58.0695 73.1771L54.8251 79.4193L54.498 76.3138L53.6782 77.4433C52.5932 78.937 52.1538 81.5921 52.1538 81.5921L52.7125 82.8078L95.0746 63.2701Z" fill="#E5BC00"/>
<path d="M81.3194 73.873L77.3849 72.6004L85.4959 68.8604C85.7575 68.7398 85.9604 68.5201 86.06 68.2498C86.1596 67.9795 86.1478 67.6807 86.0271 67.4192C85.9064 67.1576 85.6868 66.9547 85.4165 66.8551C85.1462 66.7554 84.8474 66.7673 84.5858 66.888L76.4759 70.6291L78.0622 66.8098C78.1522 66.5419 78.1342 66.2495 78.0121 65.9947C77.89 65.7399 77.6734 65.5427 77.4082 65.4449C77.1431 65.3472 76.8503 65.3567 76.592 65.4713C76.3337 65.5859 76.1303 65.7967 76.0249 66.0589L73.6877 71.915L67.4547 74.7894L68.6451 71.1537C68.6944 71.0199 68.7169 70.8777 68.7113 70.7352C68.7057 70.5928 68.6721 70.4528 68.6124 70.3233C68.4918 70.0618 68.2723 69.8589 68.0021 69.7593C67.732 69.6596 67.4333 69.6714 67.1718 69.7919C66.9103 69.9125 66.7074 70.132 66.6077 70.4022L64.6665 76.0759L43.0822 86.0309C42.9505 86.0891 42.8317 86.1729 42.7327 86.2775C42.6337 86.3821 42.5565 86.5053 42.5055 86.64C42.4546 86.7747 42.431 86.9182 42.4361 87.0621C42.4412 87.2061 42.4749 87.3475 42.5352 87.4783C42.5955 87.6091 42.6812 87.7265 42.7874 87.8239C42.8935 87.9212 43.018 87.9964 43.1535 88.0452C43.289 88.0939 43.4328 88.1152 43.5766 88.1079C43.7205 88.1005 43.8614 88.0646 43.9912 88.0022L65.5761 78.0478L71.1519 80.2535C71.2857 80.303 71.4279 80.3256 71.5704 80.32C71.7129 80.3145 71.8529 80.2809 71.9824 80.2212C72.1119 80.1615 72.2284 80.0769 72.3252 79.9722C72.422 79.8675 72.4972 79.7447 72.5466 79.6109C72.7539 79.0476 72.458 78.4443 71.9034 78.2156L68.3643 76.7613L74.5972 73.8869L80.5691 75.9103C80.8393 76.0099 81.1381 75.9982 81.3996 75.8775C81.6612 75.7569 81.8641 75.5373 81.9638 75.2671C82.0634 74.9968 82.0516 74.6981 81.931 74.4365C81.8104 74.175 81.5908 73.972 81.3205 73.8724L81.3194 73.873Z" fill="#A73F06"/>
<path d="M81.3194 73.8734L77.3849 72.6009L85.4959 68.8609C85.6254 68.8012 85.7418 68.7165 85.8385 68.6117C85.9352 68.5069 86.0104 68.3841 86.0596 68.2503C86.1089 68.1165 86.1313 67.9743 86.1255 67.8318C86.1198 67.6893 86.0861 67.5494 86.0262 67.4199L42.5508 87.4718C42.6764 87.7439 42.9004 87.9396 43.161 88.0357C43.4215 88.1318 43.7191 88.1283 43.9912 88.0027L65.5755 78.0477L71.1513 80.2535C71.2851 80.3029 71.4273 80.3255 71.5698 80.3199C71.7123 80.3144 71.8523 80.2808 71.9818 80.2211C72.1114 80.1614 72.2278 80.0768 72.3246 79.9721C72.4215 79.8674 72.4967 79.7446 72.546 79.6108C72.7533 79.0481 72.4574 78.4448 71.9028 78.2167L68.3637 76.7618L74.5967 73.8873L80.5685 75.9108C80.7023 75.9601 80.8445 75.9826 80.987 75.977C81.1295 75.9714 81.2695 75.9377 81.3991 75.878C81.5286 75.8183 81.645 75.7336 81.7418 75.6289C81.8386 75.5241 81.9138 75.4014 81.9632 75.2676C82.0125 75.1337 82.035 74.9915 82.0294 74.849C82.0238 74.7065 81.9902 74.5665 81.9304 74.437C81.8707 74.3075 81.786 74.191 81.6813 74.0942C81.5766 73.9974 81.4538 73.9222 81.32 73.8729L81.3194 73.8734Z" fill="#834000"/>
<path d="M99.2099 62.8462L78.4297 104.611L79.6276 105.21C79.6276 105.21 80.918 105.174 81.6272 104.936L81.6278 104.936C82.3272 104.702 83.0648 104.321 83.8203 103.806L84.9736 103.02L81.8791 102.601L88.2145 99.5422L88.2909 99.4467C88.7255 98.9005 89.1446 98.3421 89.5478 97.7723L90.2518 96.7789L84.7344 97.4771L92.7378 92.6012L92.8073 92.4738C93.1453 91.8464 93.473 91.2135 93.7903 90.5755C96.2306 85.6706 98.3634 79.9315 99.6441 74.8327L100.295 71.894L100.299 71.8772C101.27 66.7269 100.903 63.6886 99.2099 62.8462Z" fill="#DD3400"/>
<path d="M99.2469 62.8662C98.6726 62.5807 97.9779 62.5709 97.1824 62.8372C94.389 63.7751 90.7723 68.0124 88.8647 70.4544L88.7136 70.6478L89.6318 75.2313L87.1545 72.7372L86.7863 73.2583C84.4108 76.6243 82.1425 80.4083 80.3982 83.9144C80.078 84.5576 79.7683 85.2072 79.4771 85.8434L79.4168 85.9754L80.3547 95.2999L77.5845 90.4773L77.2168 91.6387C77.0055 92.304 76.8128 92.975 76.6391 93.6511L76.6089 93.7698L77.9903 100.668L75.7903 98.4523L75.8586 99.8458C75.9489 101.69 77.2689 104.035 77.2689 104.035L78.4668 104.633L99.2469 62.8662Z" fill="#B42A00"/>
<path d="M95.1676 79.7478L91.3037 81.2212L95.2823 73.2248C95.402 72.9681 95.4167 72.6747 95.3232 72.4073C95.2297 72.1399 95.0354 71.9196 94.7818 71.7934C94.5282 71.6672 94.2353 71.6451 93.9656 71.7318C93.6959 71.8184 93.4708 72.007 93.3382 72.2574L89.3602 80.2532L88.2046 76.2834C88.1077 76.0172 87.9107 75.7994 87.6555 75.6765C87.4003 75.5535 87.1072 75.5351 86.8386 75.6252C86.5701 75.7153 86.3473 75.9068 86.2179 76.1587C86.0885 76.4107 86.0627 76.7033 86.1459 76.974L87.9927 83.0026L84.9347 89.1482L83.5852 85.5679C83.4936 85.2949 83.2973 85.0695 83.0395 84.9412C82.7817 84.8129 82.4835 84.7923 82.2105 84.8839C81.9375 84.9755 81.7121 85.1718 81.5838 85.4296C81.4555 85.6874 81.4349 85.9856 81.5265 86.2586L83.5673 91.897L72.9789 113.178C72.9154 113.306 72.8777 113.444 72.8679 113.587C72.8581 113.729 72.8764 113.872 72.9218 114.007C72.9672 114.142 73.0387 114.267 73.1323 114.374C73.226 114.482 73.3399 114.57 73.4675 114.633C73.5952 114.697 73.7341 114.735 73.8763 114.744C74.0186 114.754 74.1613 114.736 74.2965 114.691C74.4316 114.645 74.5565 114.574 74.664 114.48C74.7715 114.386 74.8595 114.272 74.923 114.145L85.5108 92.865L91.2389 91.0917C91.3742 91.0464 91.4992 90.9749 91.6068 90.8812C91.7144 90.7876 91.8025 90.6737 91.866 90.546C91.9296 90.4183 91.9673 90.2793 91.9772 90.137C91.987 89.9947 91.9686 89.8519 91.9232 89.7167C91.7322 89.1482 91.1237 88.8633 90.5482 89.0335L86.8789 90.1162L89.9357 83.9706L95.8583 81.8071C95.9935 81.7618 96.1184 81.6903 96.226 81.5967C96.3335 81.5031 96.4216 81.3892 96.4851 81.2616C96.5487 81.134 96.5865 80.9951 96.5963 80.8529C96.6062 80.7106 96.588 80.5679 96.5426 80.4327C96.4973 80.2975 96.4258 80.1726 96.3322 80.065C96.2386 79.9575 96.1248 79.8694 95.9972 79.8059C95.8695 79.7423 95.7306 79.7045 95.5884 79.6947C95.4462 79.6848 95.3034 79.7031 95.1682 79.7484L95.1676 79.7478Z" fill="#552003"/>
<path d="M95.1676 79.7475L91.3037 81.2209L95.2823 73.2245C95.4106 72.9668 95.4312 72.6687 95.3397 72.3957C95.2481 72.1228 95.0519 71.8973 94.7942 71.769L73.4675 114.633C73.7356 114.767 74.0332 114.779 74.296 114.691C74.4314 114.646 74.5565 114.574 74.6641 114.481C74.7717 114.387 74.8597 114.273 74.923 114.145L85.5108 92.8641L91.2395 91.0908C91.3746 91.0454 91.4995 90.9738 91.607 90.8801C91.7145 90.7865 91.8024 90.6725 91.8659 90.5448C91.9293 90.4172 91.967 90.2782 91.9767 90.136C91.9865 89.9937 91.9681 89.851 91.9226 89.7158C91.7322 89.1473 91.1237 88.8625 90.5482 89.0327L86.8789 90.1153L89.9357 83.9698L95.8583 81.8063C96.1313 81.7147 96.3568 81.5185 96.4851 81.2608C96.6135 81.003 96.6342 80.7048 96.5426 80.4318C96.4511 80.1588 96.2549 79.9334 95.9972 79.805C95.7394 79.6767 95.4412 79.656 95.1682 79.7475L95.1676 79.7475Z" fill="#831E00"/>
<path d="M57.6579 95.7061L95.8522 68.9211L95.0851 67.8234C95.0851 67.8234 93.9342 67.2393 93.1972 67.1102C92.47 66.9822 91.6404 66.9643 90.7309 67.0563L89.342 67.197L91.8615 69.0421L84.8343 68.7063L84.7214 68.7532C84.1042 69.0143 83.4639 69.3078 82.8178 69.6251L81.7248 70.1624L86.9063 72.1817L77.5471 72.6472L77.4255 72.7259C76.8379 73.1098 76.2421 73.5133 75.6551 73.9244C71.1694 77.0709 66.5558 81.0952 62.9976 84.966L61.0228 87.2378L61.0112 87.2506C57.7008 91.313 56.573 94.1574 57.6591 95.7061L57.6579 95.7061Z" fill="#D67B00"/>
<path d="M57.6348 95.6713C58.0036 96.197 58.6091 96.5374 59.4353 96.6822C62.3376 97.1916 67.5383 95.1943 70.3803 93.9576L70.6055 93.8604L71.9857 89.3944L72.9723 92.7685L73.5443 92.486C77.2379 90.6623 81.0381 88.4188 84.2438 86.1708C84.8274 85.7615 85.4043 85.3427 85.9743 84.9145L86.09 84.8276L89.7154 76.1857L89.8486 81.7459L90.7263 80.9006C91.2295 80.4169 91.7191 79.9192 92.1945 79.4081L92.2773 79.3184L94.3557 72.5968L95.2316 75.594L95.8366 74.3365C96.6373 72.6732 96.5962 69.9828 96.5962 69.9828L95.8291 68.8857L57.6348 95.6713Z" fill="#E5BC00"/>
<path d="M69.2761 82.7832L73.3751 83.3326L66.0624 88.4609C65.8377 88.6305 65.6877 88.8807 65.6438 89.1587C65.6 89.4368 65.6659 89.721 65.8275 89.9514C65.9891 90.1819 66.2339 90.3406 66.5102 90.3941C66.7866 90.4476 67.0729 90.3917 67.3089 90.2383L74.621 85.1105L73.7421 89.1516C73.7014 89.4312 73.7713 89.7157 73.937 89.9446C74.1026 90.1736 74.3509 90.3289 74.6293 90.3778C74.9076 90.4266 75.194 90.365 75.4276 90.2061C75.6613 90.0472 75.8238 89.8035 75.8808 89.5268L77.1353 83.3471L82.7546 79.4062L82.2324 83.1965C82.1826 83.4801 82.2474 83.7719 82.4127 84.0077C82.578 84.2435 82.8302 84.4039 83.1138 84.4537C83.3974 84.5036 83.6892 84.4387 83.925 84.2734C84.1608 84.1081 84.3212 83.8559 84.371 83.5723L85.2684 77.6433L104.729 63.9952C104.848 63.9141 104.949 63.8104 105.027 63.6898C105.106 63.5693 105.159 63.4345 105.185 63.2931C105.211 63.1517 105.208 63.0066 105.177 62.8663C105.147 62.7259 105.088 62.5931 105.006 62.4754C104.923 62.3578 104.818 62.2577 104.697 62.1809C104.575 62.1042 104.44 62.0524 104.298 62.0284C104.156 62.0044 104.011 62.0088 103.871 62.0413C103.731 62.0739 103.599 62.1338 103.483 62.2178L84.0225 75.8653L78.1421 74.6901C78.0017 74.6653 77.8577 74.6685 77.7185 74.6995C77.5792 74.7304 77.4475 74.7885 77.3307 74.8704C77.2139 74.9522 77.1144 75.0563 77.0379 75.1767C76.9613 75.2971 76.9093 75.4313 76.8847 75.5718C76.781 76.1623 77.1799 76.7031 77.7664 76.8281L81.5081 77.6282L75.8889 81.5691L69.6513 80.6445C69.3677 80.5948 69.0759 80.6597 68.8402 80.8251C68.6045 80.9905 68.4441 81.2427 68.3944 81.5263C68.3698 81.6667 68.373 81.8106 68.404 81.9498C68.435 82.0889 68.4931 82.2206 68.575 82.3373C68.7403 82.5731 68.9925 82.7334 69.2761 82.7832Z" fill="#A73F06"/>
<path d="M69.2762 82.7832L73.3751 83.3326L66.0625 88.461C65.9457 88.5428 65.8462 88.6468 65.7697 88.7671C65.6931 88.8874 65.641 89.0216 65.6163 89.162C65.5917 89.3024 65.5949 89.4464 65.6258 89.5855C65.6568 89.7247 65.7149 89.8564 65.7967 89.9732L104.995 62.483C104.913 62.3662 104.809 62.2667 104.689 62.1902C104.569 62.1137 104.435 62.0617 104.294 62.0372C104.02 61.9886 103.728 62.0453 103.483 62.2173L84.0231 75.8654L78.1428 74.6901C78.0023 74.6654 77.8583 74.6686 77.7191 74.6995C77.5799 74.7304 77.4481 74.7885 77.3313 74.8704C77.2145 74.9523 77.115 75.0564 77.0385 75.1767C76.962 75.2971 76.9099 75.4314 76.8853 75.5719C76.7817 76.1624 77.1806 76.7031 77.767 76.8282L81.5088 77.6283L75.8895 81.5697L69.6519 80.6446C69.3683 80.5948 69.0766 80.6598 68.8409 80.8251C68.6052 80.9905 68.4448 81.2427 68.395 81.5263C68.3453 81.8099 68.4102 82.1017 68.5756 82.3374C68.741 82.5731 68.9932 82.7335 69.2768 82.7832L69.2762 82.7832Z" fill="#834000"/>
<path d="M67.2289 71.408L77.4688 116.92L78.7754 116.628C78.7754 116.628 79.7539 115.785 80.1533 115.153L80.1545 115.153C80.5482 114.53 80.8805 113.77 81.1416 112.892L81.5405 111.555L78.8756 113.183L81.8595 106.812L81.8583 106.69C81.8525 106.02 81.8242 105.316 81.7767 104.598L81.6957 103.382L77.8567 107.406L80.9876 98.5733L80.9604 98.4309C80.829 97.742 80.6825 97.0374 80.5256 96.338C79.3225 90.992 77.3559 85.1944 75.1304 80.4308L73.7814 77.7405L73.7733 77.7254C71.2763 73.1182 69.0746 70.9923 67.2289 71.408Z" fill="#DD3400"/>
<path d="M67.2704 71.3994C66.6439 71.5401 66.0991 71.9708 65.6505 72.68C64.0751 75.1695 63.9437 80.7396 64.0062 83.8381L64.0109 84.0836L67.6154 87.0594L64.1197 86.6877L64.1631 87.3245C64.4445 91.4345 65.0732 95.8015 65.933 99.6219C66.0905 100.323 66.2601 101.022 66.4361 101.7L66.4726 101.84L73.0853 108.48L67.8921 106.489L68.3397 107.622C68.5957 108.271 68.8698 108.913 69.1618 109.547L69.2139 109.658L74.6386 114.137L71.5331 113.807L72.4664 114.845C73.6996 116.219 76.2041 117.204 76.2041 117.204L77.5102 116.912L67.2704 71.3994Z" fill="#B42A00"/>
<path d="M74.7598 87.0686L72.693 90.6499L70.7326 81.9362C70.6652 81.6596 70.4919 81.4206 70.25 81.2706C70.0081 81.1205 69.7169 81.0714 69.4392 81.1339C69.1615 81.1963 68.9194 81.3653 68.765 81.6045C68.6106 81.8436 68.5563 82.1339 68.6137 82.4127L70.5746 91.1258L67.1721 88.7753C66.9289 88.6298 66.6385 88.585 66.3628 88.6507C66.0871 88.7164 65.848 88.8872 65.6965 89.1267C65.545 89.3662 65.4931 89.6555 65.5519 89.9327C65.6108 90.2099 65.7756 90.4532 66.0113 90.6106L71.2485 94.1219L72.7549 100.819L69.4491 98.893C69.2057 98.739 68.9112 98.688 68.6302 98.7511C68.3492 98.8143 68.1048 98.9866 67.9508 99.2299C67.7968 99.4733 67.7458 99.7679 67.809 100.049C67.8721 100.33 68.0444 100.574 68.2877 100.728L73.4288 103.814L78.6469 127.004C78.71 127.285 78.8822 127.529 79.1255 127.683C79.3689 127.837 79.6634 127.888 79.9443 127.825C80.2252 127.762 80.4695 127.589 80.6235 127.346C80.7774 127.103 80.8284 126.808 80.7652 126.527L75.5477 103.338L78.8715 98.347C78.9478 98.2265 78.9996 98.0922 79.024 97.9517C79.0483 97.8112 79.0448 97.6672 79.0135 97.5281C78.9822 97.3889 78.9238 97.2573 78.8416 97.1407C78.7594 97.0242 78.6551 96.9249 78.5345 96.8487C78.028 96.528 77.3755 96.6912 77.0368 97.1857L74.8733 100.342L73.3669 93.6454L76.5951 88.2294C76.749 87.986 76.7999 87.6914 76.7367 87.4105C76.6735 87.1296 76.5012 86.8853 76.2578 86.7313C76.0145 86.5774 75.7199 86.5264 75.439 86.5897C75.158 86.6529 74.9137 86.8252 74.7598 87.0686Z" fill="#552003"/>
<path d="M74.7597 87.0682L72.6928 90.6495L70.7325 81.9358C70.7013 81.7967 70.6429 81.6651 70.5608 81.5486C70.4786 81.432 70.3743 81.3328 70.2539 81.2566C70.1334 81.1804 69.9991 81.1286 69.8586 81.1043C69.7181 81.08 69.5742 81.0836 69.4351 81.1149L79.9442 127.824C80.0833 127.793 80.215 127.735 80.3315 127.653C80.448 127.571 80.5472 127.466 80.6233 127.346C80.6996 127.225 80.7514 127.091 80.7756 126.95C80.7999 126.81 80.7961 126.666 80.7645 126.527L75.5476 103.338L78.8714 98.3467C78.9477 98.2262 78.9995 98.0918 79.0239 97.9513C79.0482 97.8108 79.0447 97.6668 79.0134 97.5277C78.9821 97.3885 78.9237 97.2569 78.8415 97.1403C78.7593 97.0238 78.655 96.9246 78.5344 96.8483C78.0278 96.5276 77.3754 96.6909 77.0367 97.1853L74.8732 100.342L73.3667 93.6456L76.5949 88.229C76.7489 87.9856 76.7998 87.691 76.7366 87.4101C76.6733 87.1292 76.5011 86.8849 76.2577 86.7309C76.0143 86.577 75.7198 86.5261 75.4389 86.5893C75.1579 86.6526 74.9136 86.8248 74.7597 87.0682Z" fill="#831E00"/>
<path d="M63.4369 68.8945L18.8099 82.4818L19.1978 83.7631C19.1978 83.7631 20.1102 84.6761 20.7708 85.0281L20.7708 85.0286C21.4221 85.376 22.2048 85.6504 23.0982 85.8461L24.4616 86.1443L22.6408 83.6073L29.2153 86.1107L29.3369 86.1008C30.0326 86.0412 30.7264 85.9621 31.4176 85.8635L32.6236 85.6933L28.3261 82.1628L37.3669 84.6297L37.507 84.5927C38.1952 84.4074 38.8804 84.2109 39.5623 84.0033C44.8035 82.4072 50.4395 80.0161 55.0248 77.4438L57.6075 75.8981L57.622 75.8888C62.0318 73.0577 63.9881 70.7037 63.4369 68.8945Z" fill="#DD3400"/>
<path d="M63.4478 68.9347C63.2608 68.3211 62.7913 67.8093 62.0508 67.4144C59.4508 66.0278 53.8865 66.3104 50.8019 66.6022L50.557 66.6253L47.8568 70.4406L47.9679 66.927L47.3369 67.0173C43.2588 67.6032 38.9497 68.5538 35.2039 69.6943C34.5167 69.9039 33.8318 70.1245 33.1694 70.3503L33.0322 70.3972L26.9 77.4841L28.5014 72.1577L27.4049 72.6881C26.7761 72.9915 26.156 73.3126 25.5453 73.6509L25.4388 73.7105L21.3745 79.4531L21.473 76.332L20.5073 77.3393C19.2295 78.6709 18.4323 81.2414 18.4323 81.2414L18.8202 82.5226L63.4478 68.9347Z" fill="#B42A00"/>
<path d="M48.3775 77.5659L44.6531 75.7694L53.1972 73.1682C53.466 73.0788 53.6892 72.8879 53.8193 72.6363C53.9493 72.3846 53.9759 72.0921 53.8934 71.8211C53.8108 71.5502 53.6257 71.3222 53.3774 71.1858C53.1291 71.0494 52.8374 71.0153 52.5644 71.091L44.0209 73.6928L46.1126 70.1253C46.2392 69.872 46.2618 69.5794 46.1758 69.3096C46.0897 69.0399 45.9017 68.8145 45.6519 68.6813C45.402 68.5482 45.1101 68.5178 44.8382 68.5968C44.5663 68.6758 44.336 68.8578 44.1963 69.104L41.0833 74.5866L34.5169 76.5863L36.1918 73.1456C36.3272 72.8915 36.3562 72.594 36.2722 72.3186C36.1883 72.0431 35.9984 71.8123 35.7443 71.6769C35.4901 71.5414 35.1926 71.5125 34.9172 71.5964C34.6417 71.6804 34.4109 71.8703 34.2755 72.1244L31.5799 77.4802L8.84058 84.4044C8.70299 84.4449 8.57479 84.5123 8.46338 84.6026C8.35198 84.6929 8.25958 84.8045 8.19152 84.9307C8.12347 85.057 8.0811 85.1955 8.06688 85.3382C8.05266 85.4809 8.06686 85.625 8.10867 85.7622C8.15047 85.8994 8.21906 86.027 8.31045 86.1375C8.40184 86.248 8.51423 86.3394 8.64112 86.4062C8.76802 86.4731 8.9069 86.5141 9.04975 86.527C9.1926 86.5398 9.33658 86.5242 9.47337 86.4811L32.2115 79.5581L37.4354 82.5026C37.5612 82.5697 37.699 82.6113 37.8409 82.6251C37.9828 82.6389 38.1261 82.6247 38.2625 82.5831C38.3989 82.5416 38.5257 82.4735 38.6358 82.3829C38.7459 82.2923 38.8371 82.1809 38.9042 82.0551C39.1867 81.5259 38.9754 80.8879 38.4572 80.5863L35.1491 78.6636L41.7155 76.6645L47.3562 79.4822C47.482 79.5493 47.6198 79.591 47.7618 79.6048C47.9037 79.6186 48.047 79.6044 48.1834 79.5629C48.3198 79.5213 48.4467 79.4533 48.5568 79.3628C48.667 79.2722 48.7582 79.1608 48.8253 79.035C48.8924 78.9092 48.934 78.7714 48.9479 78.6294C48.9617 78.4875 48.9475 78.3442 48.9059 78.2078C48.8644 78.0714 48.7964 77.9445 48.7058 77.8344C48.6153 77.7242 48.5039 77.633 48.3781 77.5659L48.3775 77.5659Z" fill="#552003"/>
<path d="M48.3774 77.5659L44.653 75.7694L53.1971 73.1682C53.4725 73.0843 53.7033 72.8944 53.8386 72.6404C53.974 72.3863 54.003 72.0889 53.9191 71.8135L8.11853 85.7586C8.20538 86.0452 8.40106 86.2698 8.64595 86.4006C8.89143 86.5309 9.18611 86.5685 9.47327 86.4811L32.2114 79.5569L37.4353 82.502C37.5611 82.5691 37.6989 82.6107 37.8408 82.6245C37.9827 82.6384 38.126 82.6241 38.2624 82.5825C38.3988 82.541 38.5256 82.4729 38.6357 82.3823C38.7458 82.2917 38.837 82.1803 38.9041 82.0545C39.1866 81.5253 38.9753 80.8873 38.4571 80.5857L35.149 78.6624L41.7149 76.6633L47.3561 79.4816C47.4819 79.5487 47.6198 79.5904 47.7617 79.6042C47.9036 79.6181 48.0469 79.6038 48.1833 79.5623C48.3197 79.5207 48.4466 79.4528 48.5567 79.3622C48.6669 79.2716 48.7581 79.1602 48.8252 79.0344C48.8923 78.9086 48.9339 78.7708 48.9478 78.6288C48.9616 78.4869 48.9474 78.3437 48.9058 78.2072C48.8643 78.0708 48.7963 77.9439 48.7057 77.8338C48.6152 77.7236 48.5038 77.6324 48.378 77.5653L48.3774 77.5659Z" fill="#831E00"/>
<path d="M28.5914 98.47L60.1319 64.0979L59.1465 63.1919C59.1465 63.1919 57.8966 62.8688 57.1492 62.9006C56.4116 62.9319 55.5976 63.0934 54.7292 63.3789L53.4034 63.8142L56.2605 65.0746L49.3253 66.258L49.2251 66.3286C48.6786 66.7159 48.1164 67.1403 47.5537 67.589L46.6019 68.3485L52.0967 69.2065L43.0558 71.6734L42.954 71.7771C42.463 72.2779 41.968 72.8001 41.4834 73.3286C37.7787 77.3651 34.1383 82.2879 31.4954 86.8332L30.0556 89.4761L30.0475 89.4911C27.6877 94.1702 27.1979 97.1911 28.592 98.47L28.5914 98.47Z" fill="#D67B00"/>
<path d="M28.5612 98.441C29.0342 98.8752 29.6988 99.0766 30.5371 99.0407C33.4811 98.9145 38.13 95.845 40.6398 94.0271L40.8383 93.8823L41.2262 89.2247L42.915 92.3076L43.4129 91.9093C46.6284 89.3329 49.8572 86.3259 52.5047 83.4404C52.991 82.9113 53.4681 82.3728 53.9243 81.8425L54.0187 81.732L55.7011 72.5128L57.0269 77.9144L57.7019 76.9001C58.0893 76.3195 58.4604 75.7281 58.8147 75.1267L58.8766 75.0214L59.4608 68.0103L60.9614 70.7487L61.2815 69.3905C61.7053 67.5941 61.087 64.9749 61.087 64.9749L60.1017 64.0688L28.5612 98.441Z" fill="#E5BC00"/>
<path d="M37.1584 83.351L41.2794 83.0059L35.241 89.5868C35.0561 89.8005 34.9617 90.0778 34.9779 90.3599C34.9942 90.642 35.1197 90.9066 35.3278 91.0977C35.536 91.2888 35.8104 91.3912 36.0929 91.3832C36.3753 91.3752 36.6435 91.2575 36.8406 91.055L42.879 84.4741L42.8889 88.6096C42.9091 88.8915 43.0384 89.1544 43.2494 89.3425C43.4604 89.5306 43.7364 89.6291 44.0188 89.6169C44.3012 89.6048 44.5678 89.4831 44.7618 89.2776C44.9559 89.0721 45.0622 88.799 45.0582 88.5163L44.9551 82.2116L49.596 77.1545L49.9005 80.9686C49.9129 81.2563 50.039 81.5273 50.2511 81.7219C50.4633 81.9166 50.7441 82.019 51.0318 82.0067C51.3194 81.9943 51.5904 81.8682 51.7851 81.656C51.9798 81.4439 52.0822 81.1631 52.0698 80.8754L51.6715 74.892L67.7425 57.3788C67.8389 57.2738 67.9137 57.1508 67.9625 57.0169C68.0114 56.8829 68.0334 56.7407 68.0273 56.5983C68.0212 56.4558 67.9871 56.316 67.927 56.1867C67.8668 56.0575 67.7818 55.9413 67.6768 55.8449C67.5718 55.7485 67.4488 55.6737 67.3148 55.6249C67.1809 55.576 67.0387 55.554 66.8962 55.5601C66.7538 55.5662 66.6139 55.6003 66.4847 55.6604C66.3554 55.7206 66.2393 55.8056 66.1429 55.9106L50.0724 73.4238L44.0769 73.5407C43.9344 73.5468 43.7946 73.5809 43.6653 73.6411C43.536 73.7012 43.4199 73.7863 43.3235 73.8913C43.2271 73.9964 43.1524 74.1194 43.1035 74.2533C43.0547 74.3873 43.0327 74.5295 43.0388 74.672C43.0643 75.2706 43.5703 75.7135 44.1701 75.71L47.9958 75.6863L43.3555 80.7434L37.0652 81.1817C36.9228 81.1877 36.7829 81.2218 36.6537 81.282C36.5244 81.3421 36.4082 81.4271 36.3118 81.5321C36.2154 81.6371 36.1406 81.7601 36.0917 81.894C36.0428 82.028 36.0208 82.1702 36.0269 82.3126C36.033 82.4551 36.067 82.5949 36.1272 82.7242C36.1873 82.8535 36.2723 82.9696 36.3773 83.066C36.4824 83.1625 36.6053 83.2373 36.7393 83.2861C36.8732 83.335 37.0154 83.3571 37.1579 83.351L37.1584 83.351Z" fill="#A73F06"/>
<path d="M37.1585 83.3512L41.2795 83.0062L35.241 89.5871C34.8358 90.0288 34.8647 90.7155 35.3065 91.1207L67.6766 55.8455C67.456 55.6422 67.1729 55.5485 66.8962 55.56C66.6183 55.5716 66.345 55.6897 66.1429 55.9109L50.0725 73.424L44.0769 73.541C43.9345 73.5471 43.7946 73.5812 43.6654 73.6413C43.5361 73.7015 43.42 73.7865 43.3236 73.8916C43.2272 73.9966 43.1524 74.1197 43.1036 74.2536C43.0547 74.3875 43.0328 74.5298 43.0389 74.6722C43.0644 75.2709 43.5704 75.7138 44.1701 75.7103L47.9964 75.6866L43.3556 80.7437L37.0653 81.1819C36.9229 81.188 36.783 81.2221 36.6538 81.2822C36.5245 81.3423 36.4083 81.4274 36.3119 81.5324C36.2155 81.6374 36.1407 81.7604 36.0918 81.8943C36.0429 82.0282 36.0209 82.1705 36.027 82.3129C36.033 82.4553 36.0671 82.5952 36.1273 82.7245C36.1874 82.8537 36.2724 82.9699 36.3774 83.0663C36.4824 83.1627 36.6054 83.2375 36.7393 83.2864C36.8733 83.3353 37.0155 83.3573 37.1579 83.3512L37.1585 83.3512Z" fill="#834000"/>
<path d="M48.9276 109.514L54.5955 63.2093L53.2674 63.0449C53.2674 63.0449 52.0626 63.5092 51.4726 63.9701C50.8914 64.4246 50.3228 65.029 49.7821 65.7666L48.9565 66.892L52.0139 66.2552L47.0605 71.2515L47.0199 71.3667C46.8011 71.9995 46.5904 72.6717 46.3935 73.3641L46.0606 74.5359L51.0297 72.0383L45.11 79.3029L45.0868 79.4459C44.9791 80.1395 44.8801 80.8522 44.7933 81.5637C44.1275 87.0023 44.0291 93.1236 44.5218 98.3584L44.8877 101.346L44.89 101.363C45.6912 106.542 47.0495 109.284 48.9276 109.514Z" fill="#DD3400"/>
<path d="M48.8854 109.507C49.5222 109.585 50.1811 109.363 50.8422 108.846C53.1632 107.031 55.16 101.83 56.1442 98.8919L56.2224 98.6592L53.829 94.6436L56.9958 96.1697L57.1695 95.556C58.2869 91.5903 59.164 87.2661 59.6399 83.3796C59.7267 82.6664 59.8026 81.9508 59.8651 81.2537L59.8779 81.109L55.8848 72.6309L60.1048 76.2534L60.0643 75.0364C60.0417 74.3387 59.9997 73.6418 59.9381 72.9464L59.9265 72.8248L56.3248 66.7818L59.1385 68.1365L58.6088 66.8455C57.9088 65.1376 55.882 63.3671 55.882 63.3671L54.5539 63.2021L48.8854 109.507Z" fill="#B42A00"/>
<path d="M47.1039 92.2318L50.2557 89.5547L49.1701 98.4196C49.1428 98.7016 49.2267 98.9831 49.404 99.2042C49.5812 99.4252 49.8379 99.5682 50.1191 99.6026C50.4004 99.6371 50.6839 99.5602 50.9093 99.3885C51.1347 99.2168 51.2841 98.9639 51.3256 98.6836L52.4105 89.8187L54.8236 93.1766C55.0037 93.3952 55.262 93.5347 55.5436 93.5655C55.8251 93.5963 56.1075 93.5159 56.3306 93.3415C56.5537 93.1671 56.6999 92.9125 56.738 92.6318C56.776 92.3512 56.703 92.0668 56.5344 91.8393L52.7839 86.7706L53.6176 79.9575L56.0839 82.8829C56.2613 83.1098 56.5215 83.2569 56.8073 83.2919C57.0931 83.327 57.3812 83.247 57.608 83.0696C57.7204 82.9818 57.8143 82.8728 57.8845 82.7486C57.9546 82.6245 57.9997 82.4878 58.017 82.3463C58.052 82.0605 57.9721 81.7724 57.7947 81.5456L53.991 76.9099L56.8788 53.3167C56.8976 53.1745 56.8881 53.03 56.8507 52.8915C56.8133 52.753 56.7489 52.6234 56.6611 52.5099C56.5733 52.3965 56.4639 52.3016 56.3392 52.2307C56.2145 52.1598 56.077 52.1144 55.9347 52.0969C55.7923 52.0795 55.6479 52.0904 55.5098 52.1291C55.3717 52.1678 55.2426 52.2335 55.1301 52.3224C55.0175 52.4112 54.9236 52.5215 54.8539 52.6469C54.7842 52.7722 54.7401 52.9102 54.724 53.0527L51.8356 76.6459L47.0263 80.2273C46.5539 80.5967 46.4705 81.2793 46.8399 81.7517C47.2093 82.2241 47.8779 82.2901 48.3637 81.9381L51.4628 79.6935L50.6291 86.5066L45.7659 90.521C45.6536 90.6088 45.5597 90.7179 45.4895 90.842C45.4193 90.9661 45.3743 91.1028 45.3569 91.2444C45.3396 91.3859 45.3503 91.5294 45.3884 91.6668C45.4266 91.8042 45.4914 91.9327 45.5792 92.0451C45.667 92.1574 45.7761 92.2513 45.9002 92.3215C46.0244 92.3917 46.1611 92.4367 46.3026 92.4541C46.4441 92.4714 46.5877 92.4607 46.7251 92.4226C46.8624 92.3844 46.991 92.3196 47.1033 92.2318L47.1039 92.2318Z" fill="#552003"/>
<path d="M47.1039 92.2319L50.2557 89.5549L49.1702 98.4197C49.1528 98.5612 49.1634 98.7048 49.2015 98.8422C49.2396 98.9796 49.3044 99.1082 49.3922 99.2206C49.48 99.3329 49.5891 99.4269 49.7132 99.4971C49.8373 99.5673 49.9741 99.6124 50.1156 99.6297L55.934 52.1074C55.7924 52.0898 55.6487 52.1004 55.5112 52.1385C55.3737 52.1767 55.2451 52.2416 55.1328 52.3297C54.9139 52.5005 54.7605 52.7552 54.724 53.0534L51.8357 76.6455L47.0263 80.2274C46.5539 80.5968 46.4705 81.2794 46.8399 81.7518C47.2093 82.2242 47.878 82.2902 48.3637 81.9382L51.4628 79.6937L50.6291 86.5067L45.766 90.5211C45.6536 90.6089 45.5597 90.718 45.4895 90.8421C45.4193 90.9663 45.3743 91.103 45.357 91.2445C45.3396 91.386 45.3503 91.5296 45.3885 91.667C45.4266 91.8043 45.4914 91.9329 45.5793 92.0452C45.6671 92.1575 45.7761 92.2515 45.9003 92.3217C46.0244 92.3918 46.1611 92.4369 46.3026 92.4542C46.4442 92.4715 46.5877 92.4608 46.7251 92.4227C46.8625 92.3846 46.991 92.3197 47.1033 92.2319L47.1039 92.2319Z" fill="#831E00"/>
</g>
<path d="M23.215 102.497C23.215 109.28 28.7151 114.78 35.4997 114.782C42.2843 114.783 47.7844 109.285 47.7844 102.502C47.7844 95.7187 42.2843 90.2186 35.4997 90.2173C28.7151 90.2159 23.215 95.7138 23.215 102.497Z" fill="url(#paint0_linear)"/>
<path fill-rule="evenodd" clip-rule="evenodd" d="M35.4999 88.0029C43.508 88.0045 49.9999 94.4964 49.9999 102.503C49.9999 110.509 43.508 116.999 35.4999 116.997C27.4918 116.995 21 110.503 21 102.497C21 94.4905 27.4918 88.0013 35.4999 88.0029ZM45.5693 102.502C45.5693 96.9419 41.0611 92.4337 35.4999 92.4326C29.9388 92.4314 25.4305 96.9378 25.4305 102.498C25.4305 108.058 29.9388 112.566 35.4999 112.567C41.0611 112.568 45.5693 108.062 45.5693 102.502Z" fill="black"/>
<path d="M80.215 102.497C80.215 109.28 85.715 114.78 92.4996 114.782C99.2843 114.783 104.784 109.285 104.784 102.502C104.784 95.7187 99.2843 90.2186 92.4996 90.2173C85.715 90.2159 80.215 95.7138 80.215 102.497Z" fill="url(#paint1_linear)"/>
<path fill-rule="evenodd" clip-rule="evenodd" d="M92.4999 88.0029C100.508 88.0045 107 94.4964 107 102.503C107 110.509 100.508 116.999 92.4999 116.997C84.4918 116.995 77.9999 110.503 77.9999 102.497C77.9999 94.4905 84.4918 88.0013 92.4999 88.0029ZM102.569 102.502C102.569 96.9419 98.0611 92.4337 92.4999 92.4326C86.9387 92.4314 82.4305 96.9378 82.4305 102.498C82.4305 108.058 86.9387 112.566 92.4999 112.567C98.0611 112.568 102.569 108.062 102.569 102.502Z" fill="black"/>
<defs>
<linearGradient id="paint0_linear" x1="44.0367" y1="108.715" x2="28.0768" y2="95.4372" gradientUnits="userSpaceOnUse">
<stop stop-color="#580A00"/>
<stop offset="1" stop-color="#981100"/>
</linearGradient>
<linearGradient id="paint1_linear" x1="101.037" y1="108.715" x2="85.0768" y2="95.4372" gradientUnits="userSpaceOnUse">
<stop stop-color="#580A00"/>
<stop offset="1" stop-color="#981100"/>
</linearGradient>
</defs>
</svg>
