<svg width="128" height="128" viewBox="0 0 128 128" fill="none" xmlns="http://www.w3.org/2000/svg">
<path d="M116.39 65.0086C116.39 54.8525 108.157 46.6176 98.0007 46.6156C87.8445 46.6136 79.6113 54.8451 79.6113 65.0013C79.6113 75.1574 87.8445 83.3923 98.0007 83.3943C108.157 83.3963 116.39 75.1648 116.39 65.0086Z" fill="url(#paint0_linear)"/>
<path d="M116.991 65.5037C116.991 55.2885 108.71 47.0058 98.4944 47.0037C88.2791 47.0017 79.998 55.2811 79.998 65.4964C79.998 75.7116 88.2791 83.9943 98.4944 83.9964C108.71 83.9984 116.991 75.719 116.991 65.5037Z" fill="#D7322D"/>
<path d="M114.145 62.6585C114.145 52.4432 108.354 47.3583 98.1387 47.3563C87.9234 47.3542 79.998 53.8589 79.998 64.0741C79.998 74.2893 85.4335 81.149 95.6488 81.1511C105.864 81.1531 114.145 72.8737 114.145 62.6585Z" fill="#F04B37"/>
<path d="M95.4589 67.5135C95.4589 68.7338 96.4204 69.723 97.6065 69.723C98.7926 69.723 99.7541 68.7338 99.7541 67.5135C99.7541 66.2932 98.7926 65.304 97.6065 65.304C96.4204 65.304 95.4589 66.2932 95.4589 67.5135Z" fill="#FF8773"/>
<path d="M104.17 56.24C104.17 57.4602 105.131 58.4495 106.317 58.4495C107.503 58.4495 108.465 57.4602 108.465 56.24C108.465 55.0197 107.503 54.0304 106.317 54.0304C105.131 54.0304 104.17 55.0197 104.17 56.24Z" fill="#FF8773"/>
<path d="M104.701 64.7851C104.701 65.5478 105.302 66.166 106.043 66.166C106.784 66.166 107.385 65.5478 107.385 64.7851C107.385 64.0224 106.784 63.4041 106.043 63.4041C105.302 63.4041 104.701 64.0224 104.701 64.7851Z" fill="#FF8773"/>
<path d="M93.3113 52.6495C93.3113 53.4122 93.9123 54.0304 94.6536 54.0304C95.3949 54.0304 95.9958 53.4122 95.9958 52.6495C95.9958 51.8868 95.3949 51.2686 94.6536 51.2686C93.9123 51.2686 93.3113 51.8868 93.3113 52.6495Z" fill="#FF8773"/>
<path d="M101.365 73.9161C101.365 74.3737 101.725 74.7446 102.17 74.7446C102.615 74.7446 102.976 74.3737 102.976 73.9161C102.976 73.4585 102.615 73.0875 102.17 73.0875C101.725 73.0875 101.365 73.4585 101.365 73.9161Z" fill="#FF8773"/>
<path d="M86.8685 61.2114C86.8685 61.669 87.229 62.0399 87.6738 62.0399C88.1186 62.0399 88.4792 61.669 88.4792 61.2114C88.4792 60.7538 88.1186 60.3828 87.6738 60.3828C87.229 60.3828 86.8685 60.7538 86.8685 61.2114Z" fill="#FF8773"/>
<path d="M95.9958 61.2114C95.9958 61.669 96.3564 62.0399 96.8012 62.0399C97.246 62.0399 97.6065 61.669 97.6065 61.2114C97.6065 60.7538 97.246 60.3828 96.8012 60.3828C96.3564 60.3828 95.9958 60.7538 95.9958 61.2114Z" fill="#FF8773"/>
<path d="M90.6268 74.7446C90.6268 75.5073 91.2277 76.1256 91.9691 76.1256C92.7104 76.1256 93.3113 75.5073 93.3113 74.7446C93.3113 73.982 92.7104 73.3637 91.9691 73.3637C91.2277 73.3637 90.6268 73.982 90.6268 74.7446Z" fill="#FF8773"/>
<path fill-rule="evenodd" clip-rule="evenodd" d="M80.8641 65.5012C80.8641 75.2535 88.7661 83.1493 98.5 83.1507C108.234 83.1521 116.136 75.2586 116.136 65.5063C116.136 55.754 108.234 47.8582 98.5 47.8568C88.7661 47.8554 80.8641 55.7489 80.8641 65.5012ZM98.5 91.0037C84.4106 91.0017 73 79.5771 73 65.5C73 51.4229 84.4106 40.0017 98.5 40.0037C112.589 40.0058 124 51.4304 124 65.5075C124 79.5846 112.589 91.0058 98.5 91.0037Z" fill="black"/>
<path d="M10.0088 63.5043C10.0088 52.7372 18.7372 44.007 29.5044 44.0048C40.2715 44.0027 49 52.7294 49 63.4966C49 74.2637 40.2715 82.9939 29.5044 82.9961C18.7372 82.9982 10.0088 74.2715 10.0088 63.5043Z" fill="#8A510F"/>
<path d="M10.0088 63.5043C10.0088 52.7372 18.7372 44.007 29.5044 44.0048C40.2715 44.0027 49 52.7294 49 63.4966C49 74.2637 40.2715 82.9939 29.5044 82.9961C18.7372 82.9982 10.0088 74.2715 10.0088 63.5043Z" fill="#D7322D"/>
<path d="M13.0081 60.5052C13.0081 49.7381 19.1122 44.3784 29.8793 44.3763C40.6464 44.3741 49 51.2302 49 61.9973C49 72.7645 43.2709 79.9948 32.5037 79.9969C21.7366 79.9991 13.0081 71.2723 13.0081 60.5052Z" fill="#F04B37"/>
<path d="M45.9991 65.0933C45.9991 66.3795 44.9857 67.4222 43.7355 67.4222C42.4853 67.4222 41.4718 66.3795 41.4718 65.0933C41.4718 63.8071 42.4853 62.7644 43.7355 62.7644C44.9857 62.7644 45.9991 63.8071 45.9991 65.0933Z" fill="#FF8773"/>
<path d="M20.5331 61.3089C20.5331 62.5951 19.5197 63.6378 18.2695 63.6378C17.0193 63.6378 16.0059 62.5951 16.0059 61.3089C16.0059 60.0227 17.0193 58.98 18.2695 58.98C19.5197 58.98 20.5331 60.0227 20.5331 61.3089Z" fill="#FF8773"/>
<path d="M30.7195 61.3089C30.7195 62.1128 30.0861 62.7644 29.3048 62.7644C28.5234 62.7644 27.89 62.1128 27.89 61.3089C27.89 60.505 28.5234 59.8533 29.3048 59.8533C30.0861 59.8533 30.7195 60.505 30.7195 61.3089Z" fill="#FF8773"/>
<path d="M34.9639 49.9556C34.9639 50.7594 34.3304 51.4111 33.5491 51.4111C32.7677 51.4111 32.1343 50.7594 32.1343 49.9556C32.1343 49.1517 32.7677 48.5 33.5491 48.5C34.3304 48.5 34.9639 49.1517 34.9639 49.9556Z" fill="#FF8773"/>
<path d="M26.4752 72.3711C26.4752 72.8534 26.0952 73.2444 25.6263 73.2444C25.1575 73.2444 24.7775 72.8534 24.7775 72.3711C24.7775 71.8888 25.1575 71.4978 25.6263 71.4978C26.0952 71.4978 26.4752 71.8888 26.4752 72.3711Z" fill="#FF8773"/>
<path d="M41.7548 58.98C41.7548 59.4623 41.3747 59.8533 40.9059 59.8533C40.4371 59.8533 40.0571 59.4623 40.0571 58.98C40.0571 58.4977 40.4371 58.1067 40.9059 58.1067C41.3747 58.1067 41.7548 58.4977 41.7548 58.98Z" fill="#FF8773"/>
<path fill-rule="evenodd" clip-rule="evenodd" d="M47.1359 64.5012C47.1359 74.2535 39.2339 82.1493 29.5 82.1507C19.7661 82.1521 11.8641 74.2586 11.8641 64.5063C11.8641 54.754 19.7661 46.8582 29.5 46.8568C39.2339 46.8554 47.1359 54.7489 47.1359 64.5012ZM29.5 90.0037C43.5894 90.0017 55 78.5771 55 64.5C55 50.4229 43.5894 39.0017 29.5 39.0037C15.4106 39.0058 4 50.4304 4 64.5075C4 78.5846 15.4106 90.0058 29.5 90.0037Z" fill="black"/>
<defs>
<linearGradient id="paint0_linear" x1="84.5623" y1="50.502" x2="112.854" y2="76.3178" gradientUnits="userSpaceOnUse">
<stop stop-color="#B00000"/>
<stop offset="1" stop-color="#650000"/>
</linearGradient>
</defs>
</svg>
