<svg width="129" height="129" viewBox="0 0 129 129" fill="none" xmlns="http://www.w3.org/2000/svg">
<path d="M32.1191 47.429C32.1191 64.8259 46.2222 78.9285 63.6191 78.9279C81.0161 78.9272 95.1191 64.8237 95.1191 47.4268C95.1191 30.0298 81.0161 15.9272 63.6191 15.9279C46.2222 15.9285 32.1191 30.032 32.1191 47.429Z" fill="url(#paint0_radial)"/>
<path fill-rule="evenodd" clip-rule="evenodd" d="M64.1191 12.9279C82.8968 12.9273 98.1191 28.1491 98.1191 46.9268C98.1191 65.7044 82.8968 80.9273 64.1191 80.9279C45.3415 80.9286 30.1191 65.7068 30.1191 46.9291C30.1191 28.1514 45.3415 12.9286 64.1191 12.9279ZM92.9289 46.9269C92.9289 31.0158 80.0303 18.1177 64.1191 18.1182C48.208 18.1188 35.3094 31.0178 35.3094 46.9289C35.3094 62.8401 48.208 75.7382 64.1191 75.7377C80.0303 75.7371 92.9289 62.8381 92.9289 46.9269Z" fill="black"/>
<path d="M104.121 71.4248C104.121 48.505 85.5409 29.9255 62.6211 29.9263C39.7013 29.9271 21.1211 48.5079 21.1211 71.4277C21.1211 94.3476 39.7013 112.927 62.6211 112.926C85.5409 112.925 104.121 94.3447 104.121 71.4248Z" fill="url(#paint1_radial)"/>
<mask id="mask0" mask-type="alpha" maskUnits="userSpaceOnUse" x="21" y="29" width="84" height="84">
<path d="M104.121 71.4248C104.121 48.505 85.5409 29.9255 62.6211 29.9263C39.7013 29.9271 21.1211 48.5079 21.1211 71.4277C21.1211 94.3476 39.7013 112.927 62.6211 112.926C85.5409 112.925 104.121 94.3447 104.121 71.4248Z" fill="url(#paint2_radial)"/>
</mask>
<g mask="url(#mask0)">
<mask id="mask1" mask-type="alpha" maskUnits="userSpaceOnUse" x="19" y="27" width="88" height="88">
<rect x="19.1211" y="114.928" width="87" height="87" transform="rotate(-90 19.1211 114.928)" fill="#C4C4C4"/>
</mask>
<g mask="url(#mask1)">
<path d="M64.5683 91.4207C61.2884 92.8871 60.0957 91.1275 57.4122 86.7284C55.0641 82.8794 51.1182 81.2755 49.9685 80.5417C47.353 79.0034 48.0765 74.2496 48.7652 72.065C49.5603 68.3503 51.568 60.1583 53.2378 57.1083C55.325 53.2957 59.4994 55.6419 60.3939 55.6419C61.2884 55.6419 70.8298 60.0409 72.917 60.9208C75.0042 61.8006 79.1786 65.0265 81.8622 67.666C84.5457 70.3054 82.4585 74.9977 80.0731 78.5169C77.6878 82.0362 73.8115 85.2621 71.7243 86.7284C69.6372 88.1947 67.8481 89.9544 64.5683 91.4207Z" fill="url(#paint3_radial)"/>
<path d="M83.4786 64.6432C82.6086 62.9078 76.5186 59.437 72.1686 57.9908C69.5586 54.8093 72.1686 52.7847 76.2286 48.4462C80.2886 44.1077 90.1486 50.1816 92.4686 52.7847C94.3246 54.8671 94.982 60.7867 95.0786 63.4862C95.2295 66.6276 95.0087 68.2413 93.9186 70.717C91.2003 73.3888 89.677 73.9282 86.9586 70.717C86.0886 69.2709 84.1746 66.0315 83.4786 64.6432Z" fill="url(#paint4_radial)"/>
<path d="M56.1903 49.8961C53.8451 48.9866 53.5519 49.8961 50.9135 50.8056C46.6919 47.8953 48.1773 44.9445 49.4476 43.8329C51.2066 43.0245 55.0177 41.4076 56.1903 41.4076C57.6561 41.4076 60.2946 42.9234 64.1057 41.4076C67.9167 39.8918 68.5031 42.3171 71.7278 43.8329C74.9526 45.3487 71.7278 45.955 70.5552 46.8645C69.3825 47.774 67.3304 50.8056 66.7441 51.7151C66.1578 52.6246 63.8125 52.9277 62.933 52.9277C62.0535 52.9277 58.5356 50.8056 56.1903 49.8961Z" fill="url(#paint5_radial)"/>
<path d="M45.9155 66.6548C46.7817 63.1657 49.6115 57.0568 49.9593 54.6483C49.4476 50.6642 46.0635 52.4571 43.9966 51.7146C41.9298 50.9721 41.6246 53.7127 40.7831 54.8355L40.783 54.8355C39.9415 55.9583 38.2584 58.2038 33.7343 58.7954C29.2102 59.387 30.5454 59.55 26.5576 61.7594C22.5698 63.9687 27.4105 68.3994 27.7516 71.0555C28.0927 73.7115 31.8606 74.9067 34.6411 73.5304C37.4216 72.154 36.3848 74.3151 38.9454 76.3433C40.9938 77.9659 43.0708 78.617 43.8533 78.7397C44.9103 77.5888 45.0493 70.1438 45.9155 66.6548Z" fill="url(#paint6_radial)"/>
<path d="M36.2881 55.5032C34.4697 56.0985 32.3483 56.9915 29.9237 57.2891C26.7718 58.7179 24.4685 57.5866 24.1654 55.5032C23.8623 53.4198 25.1958 50.5026 25.6807 49.5501C26.2869 48.3595 27.8022 44.7876 29.9237 44.1923C32.0452 43.597 33.8636 44.1923 34.7728 44.1923C35.682 44.1923 36.2881 45.0853 37.5004 45.6806C38.7127 46.2759 39.925 46.5736 40.8342 47.4665C41.7434 48.3595 40.228 50.7407 39.925 52.5267C39.6219 54.3126 38.1066 54.9079 36.2881 55.5032Z" fill="url(#paint7_radial)"/>
<path d="M60.4764 37.9277C57.4406 37.9277 56.8334 36.2134 54.7084 34.7849C51.0654 29.9277 54.7084 28.7849 55.6191 28.7849C56.5299 28.7849 59.8692 27.9277 61.9943 27.9277C64.1193 27.9277 65.6372 28.7849 66.8516 28.7849C68.0659 28.7849 71.4053 30.4992 71.1017 31.3563C70.7981 32.2134 67.7623 34.7849 66.8516 35.9277C65.9408 37.0706 63.5122 37.9277 60.4764 37.9277Z" fill="url(#paint8_radial)"/>
<path d="M51.8199 33.8492C50.622 31.0194 50.622 32.1513 47.9265 32.1513C45.5306 32.3738 35.3479 36.3962 34.4494 38.0941C33.551 39.7921 34.7489 40.924 35.0484 40.924C35.288 40.924 38.9418 43.3765 40.7388 44.6027C42.2362 45.4517 44.752 46.5833 46.4291 45.4514C48.5255 44.0365 47.3276 41.7729 51.8199 40.0749C56.3123 38.377 55.1143 38.094 54.5153 37.2451C53.9164 36.3961 53.0179 36.6791 51.8199 33.8492Z" fill="url(#paint9_radial)"/>
<path d="M83.474 33.1957C82.5917 32.3028 77.0034 31.7075 75.827 32.0052C71.1211 33.4932 71.1211 36.7673 71.1211 37.9578C71.1211 39.1483 71.1211 39.4458 72.8858 40.6364C74.6505 41.827 77.2976 41.2317 78.7682 41.5293C80.2387 41.8269 84.9446 43.6126 86.1211 43.9102C87.2976 44.2078 91.1211 40.6363 91.1211 39.4458C91.1211 38.2553 84.3564 34.0885 83.474 33.1957Z" fill="url(#paint10_radial)"/>
<path d="M95.0864 40.0787C93.6492 39.7432 92.7291 41.8066 90.9573 43.2514C88.9118 44.0928 94.8658 48.7202 95.6794 50.8286C96.4931 52.937 98.1432 56.2599 98.4017 57.4593C98.6085 58.4189 99.7907 59.682 100.356 60.1937C101.056 59.218 102.406 56.9074 102.211 55.471C101.968 53.6756 101.459 50.9788 100.668 47.9764C99.877 44.9741 96.5236 40.4143 95.0864 40.0787Z" fill="url(#paint11_radial)"/>
<path d="M83.2961 98.4189C85.7003 96.5652 87.2161 97.5611 89.7614 97.4024C95.5788 99.0502 93.3837 102.186 92.6625 102.742C91.9412 103.298 89.8141 106.02 88.1312 107.318C86.4483 108.615 84.7287 108.859 83.767 109.6C82.8054 110.342 79.1259 111.014 78.8488 110.145C78.5718 109.277 79.4235 105.373 79.4548 103.906C79.4861 102.439 80.892 100.273 83.2961 98.4189Z" fill="url(#paint12_radial)"/>
<path d="M93.9175 96.0514C96.6966 97.737 95.9645 96.7702 98.0991 95.1244C99.8526 93.4714 105.315 83.8181 104.928 81.8193C104.541 79.8204 102.86 79.585 102.623 79.7679C102.434 79.9142 97.9536 80.0504 95.7374 80.1002C94.0023 80.2894 91.278 80.8589 90.682 82.8498C89.937 85.3385 92.3499 86.5405 89.8905 90.7338C87.4311 94.9271 88.5628 94.4373 89.5863 94.7967C90.6098 95.1561 91.1383 94.3658 93.9175 96.0514Z" fill="url(#paint13_radial)"/>
<path d="M67.8174 114.026C69.0552 114.199 73.8401 111.261 74.5921 110.306C77.4206 106.246 75.444 103.636 74.7252 102.687C74.0065 101.738 73.8269 101.501 71.7106 101.629C69.5942 101.757 67.8574 103.848 66.5131 104.509C65.1688 105.17 60.364 106.62 59.2526 107.101C58.1412 107.582 57.2694 112.764 57.9881 113.713C58.7068 114.662 66.5796 113.853 67.8174 114.026Z" fill="url(#paint14_radial)"/>
<path d="M54.1663 113.783C55.507 113.172 54.9907 110.966 55.5221 108.731C56.6345 106.811 49.1263 106.76 47.2096 105.576C45.2928 104.393 41.9808 102.752 41.0522 101.954C40.3093 101.315 38.6108 101.03 37.8543 100.968C37.889 102.173 38.2137 104.84 39.2346 105.866C40.5108 107.148 42.5417 108.987 44.9798 110.897C47.4179 112.807 52.8255 114.393 54.1663 113.783Z" fill="url(#paint15_radial)"/>
<path d="M53.1582 84.3459C55.2027 86.4347 56.371 87.9267 56.9552 89.717C61.9206 95.0882 56.9552 96.5804 55.7869 95.6849C54.6186 94.7895 54.3265 95.0884 52.574 94.4916C50.8215 93.8948 49.9453 95.0882 47.6087 95.6849C45.272 96.2817 43.5195 94.4914 42.3512 93.2978C41.1829 92.1042 39.1383 89.717 39.4304 88.5235C39.7225 87.3299 39.4304 83.4508 39.1383 81.9588C38.8463 80.4668 42.3512 79.2732 42.9354 78.9748C43.5195 78.6764 46.4403 79.87 47.0245 80.4668C47.6087 81.0636 51.1136 82.2572 53.1582 84.3459Z" fill="url(#paint16_radial)"/>
<path d="M31.1784 82.529C31.7303 83.4386 31.826 87.2548 31.7007 89.5932C30.9451 92.4834 30.0311 92.7267 28.5496 92.3527C27.068 91.9787 27.4145 91.1182 26.5945 89.6077C25.7745 88.0972 22.6216 85.2867 21.5021 83.7599C20.3827 82.233 19.2145 76.0131 20.5846 72.8632C21.9547 69.7133 23.3579 71.5488 23.3266 72.1334C23.2952 72.718 22.8078 76.2092 27.3465 75.5774C31.8852 74.9456 32.437 75.8552 34.4862 76.8465C36.5353 77.8378 36.0792 80.7444 34.2825 80.6463C32.4858 80.5483 30.6265 81.6194 31.1784 82.529Z" fill="url(#paint17_radial)"/>
<path d="M34.0727 90.1839C34.9531 88.0767 34.0727 85.9694 34.0727 84.7653C33.7066 80.8516 37.5941 81.7551 37.5941 82.9592C37.5941 84.1634 37.8875 84.7653 37.5941 87.1737C37.3006 89.5822 37.5941 89.5821 38.7678 91.3883C39.9416 93.1945 37.8875 93.4955 37.0072 93.4955C36.1268 93.4955 36.4203 96.5057 35.8334 98.0109C35.2465 99.5161 35.54 98.914 33.1924 98.0109C31.3143 97.2884 31.0404 95.5023 31.1382 94.6995C31.823 93.8967 33.3684 91.8698 34.0727 90.1839Z" fill="url(#paint18_radial)"/>
<path d="M46.2656 97.1234C44.1476 97.7307 42.9373 96.8198 41.4244 95.6054C37.7935 93.1766 35.3729 98.0342 38.7012 98.3375C42.0295 98.6408 45.3579 102.588 46.5682 103.195C47.7785 103.802 48.6862 103.499 51.7119 103.802C54.7377 104.106 55.0403 105.928 57.4609 105.928C59.8815 105.928 60.7892 104.41 61.0918 101.374C61.3943 98.3375 59.2763 97.7306 58.3686 98.0342C57.4609 98.3378 54.4351 97.1234 53.2248 96.8198C52.0145 96.5162 48.3836 96.5162 46.2656 97.1234Z" fill="url(#paint19_radial)"/>
<path d="M67.9297 101.675C64.2625 105.073 62.7345 100.748 62.4289 98.2761C61.6604 95.4951 62.4289 94.8775 63.6513 94.8775C64.8737 94.8775 66.4017 94.2596 67.0129 92.4058C67.6241 90.5519 71.2913 89.316 71.9025 90.2429C72.5136 91.1699 76.792 95.4955 77.0976 97.0404C77.4032 98.5852 74.6528 100.13 73.1248 99.5121C71.5969 98.8942 71.5969 98.2761 67.9297 101.675Z" fill="url(#paint20_radial)"/>
<path d="M77.382 93.8048C77.0776 93.4913 74.0341 90.6703 73.1211 88.4762C73.1211 85.0283 74.6428 86.2819 75.2515 85.3416C75.8602 84.4012 77.9907 83.7744 79.8167 82.2071C81.6428 80.6399 82.2515 80.9533 84.0776 80.9533C85.9037 80.9533 87.1211 84.0878 87.1211 85.3416C87.1211 86.5954 86.5124 88.4762 86.208 89.4164C85.9646 90.1686 84.2805 90.9836 83.4689 91.2971C82.7588 91.7151 81.1559 92.6764 80.4254 93.1779C79.5124 93.8048 77.6863 94.1182 77.382 93.8048Z" fill="url(#paint21_radial)"/>
<path d="M86.0617 80.1179C85.7677 79.1971 83.4152 78.8901 83.1211 77.6623C83.7092 74.593 86.0617 71.8302 87.5321 73.3649C89.0024 74.8997 90.7668 76.1275 89.8846 76.4344C89.0024 76.7414 88.7083 78.8901 88.1202 80.1179C87.5321 81.3457 86.3558 81.0388 86.0617 80.1179Z" fill="url(#paint22_radial)"/>
<path d="M103.38 75.8446C103.075 75.8446 99.4207 75.5299 97.8978 75.8446C97.4917 75.3201 96.8014 74.0194 97.2887 73.0122C97.8978 71.7533 99.1161 70.4943 100.03 68.6059C100.943 66.7174 100.03 67.6615 101.248 65.1435C102.466 62.6256 103.38 62.9403 104.294 62.9403C105.207 62.9403 106.121 66.0879 106.121 67.9764C106.121 69.8648 105.817 72.0674 105.207 74.2706C104.598 76.4738 103.685 75.8446 103.38 75.8446Z" fill="url(#paint23_radial)"/>
</g>
</g>
<path d="M34.6182 89.9268C27.1624 89.9268 21.1184 95.9709 21.1187 103.427C21.1189 110.883 27.1633 116.927 34.6191 116.927C42.075 116.927 48.1189 110.883 48.1187 103.427C48.1184 95.9709 42.074 89.9268 34.6182 89.9268Z" fill="url(#paint24_radial)"/>
<mask id="mask2" mask-type="alpha" maskUnits="userSpaceOnUse" x="18" y="86" width="35" height="35">
<rect width="34" height="34" transform="matrix(-4.37114e-08 1 1 4.37114e-08 18.1191 86.9268)" fill="#C4C4C4"/>
</mask>
<g mask="url(#mask2)">
<path d="M48.1192 102.925C48.1192 94.8004 41.6273 88.2146 33.6191 88.2149C25.611 88.2152 19.1191 94.8014 19.1191 102.926C19.1191 111.05 25.611 117.636 33.6191 117.635C41.6273 117.635 48.1192 111.049 48.1192 102.925Z" fill="url(#paint25_radial)"/>
<mask id="mask3" mask-type="alpha" maskUnits="userSpaceOnUse" x="19" y="88" width="30" height="30">
<path d="M48.1192 102.925C48.1192 94.8004 41.6273 88.2146 33.6191 88.2149C25.611 88.2152 19.1191 94.8014 19.1191 102.926C19.1191 111.05 25.611 117.636 33.6191 117.635C41.6273 117.635 48.1192 111.049 48.1192 102.925Z" fill="url(#paint26_radial)"/>
</mask>
<g mask="url(#mask3)">
<path d="M29.2972 109.29C28.098 108.835 28.2479 108.077 28.6976 106.258C29.091 104.666 28.5091 103.249 28.4076 102.767C28.1433 101.704 29.5401 100.659 30.2715 100.27C31.4207 99.5119 34.0189 97.9049 35.2181 97.5411C36.7171 97.0863 37.1668 98.7539 37.3916 98.9813C37.6165 99.2087 38.8906 102.771 39.1904 103.529C39.4902 104.287 39.715 106.182 39.715 107.547C39.715 108.911 37.9912 109.593 36.4922 109.897C34.9932 110.2 33.1945 110.048 32.2951 109.897C31.3957 109.745 30.4963 109.745 29.2972 109.29Z" fill="url(#paint27_radial)"/>
<path d="M40.9368 106.993C41.1659 106.308 40.4785 103.795 39.7148 102.273C39.8676 100.75 41.0895 100.902 43.3042 100.826C45.519 100.75 46.5118 104.937 46.4354 106.232C46.3743 107.267 44.9844 108.998 44.297 109.734C43.5073 110.6 43.0231 110.967 42.0823 111.332C40.661 111.322 40.1174 111.064 40.2494 109.505C40.4022 108.896 40.7535 107.541 40.9368 106.993Z" fill="url(#paint28_radial)"/>
<path d="M37.5563 96.4354C37.186 95.6242 36.8898 95.7717 36.0011 95.3292C35.6456 93.5592 36.7416 93.215 37.3341 93.2641C37.976 93.51 39.3337 94.0754 39.6299 94.3704C40.0002 94.7392 40.2965 95.7717 41.6295 96.3617C42.9626 96.9517 42.5182 97.6892 42.9626 98.8692C43.4069 100.049 42.4442 99.3855 41.9258 99.3117C41.4074 99.238 40.1484 99.4592 39.7781 99.533C39.4078 99.6067 38.7412 99.0905 38.5191 98.8692C38.2969 98.648 37.9266 97.2467 37.5563 96.4354Z" fill="url(#paint29_radial)"/>
<path d="M31.0969 97.8898C32.2131 97.234 34.5112 96.4259 35.2163 95.9084C36.098 94.7709 34.7551 94.3465 34.4034 93.6239C34.0517 92.9012 33.2731 93.5135 32.7666 93.5788C32.2601 93.644 31.247 93.7745 29.912 92.7519C28.577 91.7292 28.8849 92.1162 27.2779 91.6406C25.6708 91.165 25.8083 93.5366 25.2204 94.295C24.6326 95.0533 25.3142 96.3308 26.3929 96.7039C27.4715 97.0769 26.6492 97.3535 26.8024 98.5284C26.9249 99.4683 27.3026 100.171 27.4761 100.404C28.0462 100.388 29.9806 98.5456 31.0969 97.8898Z" fill="url(#paint30_radial)"/>
<path d="M31.1239 92.4831C30.5286 92.1745 29.7843 91.866 29.1145 91.3261C27.9833 90.8941 27.7005 90.0147 28.147 89.3977C28.5935 88.7806 29.6504 88.3641 30.0076 88.2407C30.4541 88.0864 31.7193 87.5464 32.3891 87.9321C33.0589 88.3178 33.3566 88.9349 33.5799 89.1663C33.8031 89.3977 33.7287 89.7834 33.8776 90.2462C34.0264 90.709 34.2497 91.0947 34.2497 91.5575C34.2497 92.0203 33.2822 92.2517 32.7612 92.6373C32.2403 93.023 31.7193 92.7916 31.1239 92.4831Z" fill="url(#paint31_radial)"/>
<path d="M41.1527 94.6922C40.4052 93.9215 40.7042 93.305 40.5547 92.3801C40.9284 90.1452 42.1245 90.7617 42.3487 90.9929C42.573 91.2241 43.6195 91.8407 44.1427 92.3801C44.666 92.9196 44.8155 93.5362 45.1145 93.8444C45.4135 94.1527 45.7872 95.4628 45.4882 95.617C45.1892 95.7711 43.769 95.694 43.2457 95.7711C42.7225 95.8482 41.9002 95.4628 41.1527 94.6922Z" fill="url(#paint32_radial)"/>
<path d="M40.341 91.1626C40.7897 90.0742 40.4906 90.3852 39.8174 89.6855C39.1603 89.1247 35.5542 87.5866 34.8811 87.8198C34.2079 88.053 34.2079 88.6749 34.2827 88.7527C34.3426 88.8148 34.6068 90.437 34.7315 91.2403C34.8811 91.8622 35.2103 92.8261 35.9283 92.9505C36.8258 93.106 37.1249 92.1732 38.6955 92.8728C40.2662 93.5725 40.0418 93.1838 40.1166 92.7951C40.1914 92.4064 39.8922 92.2509 40.341 91.1626Z" fill="url(#paint33_radial)"/>
<path d="M48.5148 98.8026C48.5148 98.3535 47.2544 96.7815 46.8836 96.5569C45.3267 95.7335 44.5111 96.557 44.2145 96.8564C43.918 97.1558 43.8438 97.2306 43.9921 97.9792C44.1404 98.7278 44.9559 99.2517 45.2525 99.7009C45.5491 100.15 46.2905 101.797 46.5129 102.171C46.7354 102.545 48.5889 102.62 48.8855 102.321C49.182 102.021 48.5148 99.2517 48.5148 98.8026Z" fill="url(#paint34_radial)"/>
<path d="M49.2655 104.066C48.9796 103.608 48.2282 103.889 47.4121 103.793C46.6761 103.474 47.0534 106.182 46.7368 106.923C46.4201 107.664 46.0157 108.928 45.7831 109.297C45.5969 109.592 45.5859 110.216 45.6037 110.491C46.027 110.427 46.9507 110.196 47.2589 109.785C47.6441 109.27 48.1858 108.46 48.7312 107.499C49.2767 106.539 49.5515 104.523 49.2655 104.066Z" fill="url(#paint35_radial)"/>
<path d="M32.844 114.32C33.9059 114.465 34.0331 115.141 34.7054 115.781C35.7382 117.788 34.4072 118.046 34.0887 118.003C33.7701 117.96 32.5595 118.125 31.8162 118.024C31.0729 117.923 30.5846 117.527 30.1598 117.469C29.7351 117.412 28.6523 116.606 28.801 116.297C28.9498 115.987 30.1394 115.161 30.5148 114.773C30.8901 114.384 31.7822 114.176 32.844 114.32Z" fill="url(#paint36_radial)"/>
<path d="M35.6323 116.812C35.9171 117.933 35.9743 117.507 36.9367 117.636C37.8034 117.666 41.6424 116.636 42.049 116.04C42.4556 115.444 42.0851 114.961 41.9781 114.947C41.8926 114.936 40.7119 113.839 40.1322 113.293C39.6405 112.902 38.7994 112.357 38.1433 112.703C37.3233 113.136 37.6367 114.044 35.9469 114.469C34.257 114.895 34.6705 115.058 34.8415 115.406C35.0124 115.754 35.3475 115.69 35.6323 116.812Z" fill="url(#paint37_radial)"/>
<path d="M24.5153 115.601C24.7901 115.952 26.7704 116.42 27.2074 116.372C28.9695 116.077 29.125 114.944 29.1816 114.531C29.2381 114.119 29.2522 114.016 28.6745 113.521C28.0967 113.026 27.117 113.109 26.6026 112.937C26.0881 112.765 24.4815 111.926 24.0727 111.768C23.664 111.61 22.1201 112.667 22.0636 113.079C22.007 113.491 24.2406 115.251 24.5153 115.601Z" fill="url(#paint38_radial)"/>
<path d="M21.0273 112.14C21.5449 112.333 21.9856 111.633 22.713 111.2C23.5131 110.998 21.5236 109.028 21.3225 108.225C21.1214 107.423 20.668 106.14 20.6295 105.693C20.5987 105.336 20.2202 104.821 20.0348 104.607C19.7281 104.925 19.1157 105.692 19.1192 106.221C19.1234 106.882 19.1833 107.882 19.333 109.007C19.4828 110.131 20.5096 111.947 21.0273 112.14Z" fill="url(#paint39_radial)"/>
<path d="M27.9458 104.315C27.9458 105.356 27.8705 106.026 27.5694 106.621C27.4942 109.224 25.838 108.332 25.7628 107.811C25.6876 107.29 25.5369 107.29 25.2358 106.695C24.9347 106.1 24.4079 106.174 23.6551 105.728C22.9023 105.282 22.9023 104.389 22.9023 103.794C22.9023 103.199 22.9776 102.083 23.354 101.86C23.7304 101.637 24.6337 100.595 24.9348 100.149C25.2359 99.7026 26.4403 100.298 26.6661 100.372C26.892 100.446 27.3436 101.488 27.3436 101.785C27.3436 102.083 27.9458 103.273 27.9458 104.315Z" fill="url(#paint40_radial)"/>
<path d="M23.1565 98.5344C23.0641 98.906 22.136 99.9092 21.5225 100.478C20.618 101.03 20.3349 100.864 20.0675 100.397C19.8001 99.9294 20.099 99.7954 20.276 99.2024C20.4529 98.6095 20.3861 97.0986 20.4943 96.4264C20.6025 95.7543 21.8688 93.8657 22.9876 93.4007C24.1063 92.9357 23.9903 93.7582 23.8369 93.9003C23.6836 94.0424 22.6945 94.8161 23.9568 95.7909C25.2191 96.7657 25.1267 97.1373 25.3783 97.905C25.63 98.6726 24.7943 99.3041 24.3814 98.8289C23.9686 98.3537 23.2489 98.1628 23.1565 98.5344Z" fill="url(#paint41_radial)"/>
<path d="M21.8235 100.888C22.5721 100.594 22.8716 99.8596 23.171 99.5657C24.0509 98.5188 24.818 99.7126 24.5185 100.007C24.2191 100.3 24.1442 100.521 23.4704 101.035C22.7966 101.55 22.8715 101.623 22.7218 102.358C22.5721 103.092 21.9732 102.652 21.7486 102.431C21.524 102.211 20.8503 103.019 20.3262 103.239C19.8022 103.46 20.0268 103.386 19.6525 102.578C19.353 101.931 19.7273 101.427 19.9519 101.256C20.3262 101.231 21.2246 101.123 21.8235 100.888Z" fill="url(#paint42_radial)"/>
<path d="M23.1491 105.89C22.4764 105.507 22.4016 104.97 22.3269 104.28C22.0279 102.748 20.234 103.361 20.9815 104.28C21.7291 105.2 21.5795 107.039 21.729 107.499C21.8785 107.959 22.1775 108.112 22.8502 108.955C23.5229 109.798 23.1492 110.335 23.7472 110.948C24.3451 111.561 24.9431 111.408 25.7653 110.718C26.5875 110.028 26.2137 109.339 25.9147 109.185C25.6158 109.032 25.1673 107.959 24.943 107.576C24.7188 107.193 23.8218 106.273 23.1491 105.89Z" fill="url(#paint43_radial)"/>
<path d="M27.4145 112.52C25.6245 112.446 26.325 111.032 26.8697 110.363C27.3745 109.507 27.7257 109.545 28.037 109.843C28.3483 110.14 28.8931 110.363 29.5157 110.066C30.1383 109.768 31.3834 110.363 31.3056 110.735C31.2278 111.107 31.2278 113.189 30.9165 113.636C30.6052 114.082 29.5157 113.784 29.2822 113.264C29.0487 112.743 29.2044 112.594 27.4145 112.52Z" fill="url(#paint44_radial)"/>
<path d="M31.7371 113.149C31.7371 113.003 31.6602 111.621 31.9675 110.893C32.8126 110.093 32.8894 110.748 33.2736 110.675C33.6577 110.602 34.3491 110.966 35.1942 111.039C36.0392 111.111 36.116 111.33 36.577 111.766C37.0379 112.203 36.577 113.222 36.2697 113.513C35.9624 113.804 35.3478 114.095 35.0405 114.24C34.7947 114.357 34.1698 114.143 33.8881 114.022C33.6065 113.949 32.9662 113.789 32.6589 113.731C32.2748 113.658 31.7371 113.294 31.7371 113.149Z" fill="url(#paint45_radial)"/>
<path d="M37.385 112C37.5239 111.682 37.0377 110.966 37.2461 110.568C38.0794 109.932 39.2601 109.853 39.2601 110.648C39.2601 111.443 39.399 112.239 39.1212 112.08C38.8434 111.92 38.2878 112.398 37.8711 112.557C37.4544 112.716 37.2461 112.318 37.385 112Z" fill="url(#paint46_radial)"/>
<path d="M42.3015 114.461C42.2278 114.387 41.4169 113.435 40.9746 113.141C40.9992 112.921 41.1367 112.452 41.4905 112.335C41.9328 112.188 42.5225 112.188 43.186 111.969C43.8494 111.749 43.4072 111.749 44.2917 111.455C45.1763 111.162 45.3238 111.455 45.5449 111.675C45.766 111.895 45.25 112.848 44.8077 113.288C44.3654 113.728 43.7759 114.168 43.1124 114.534C42.449 114.901 42.3752 114.534 42.3015 114.461Z" fill="url(#paint47_radial)"/>
</g>
</g>
<path d="M92.6201 89.9268C100.076 89.9268 106.12 95.9709 106.12 103.427C106.119 110.883 100.075 116.927 92.6191 116.927C85.1633 116.927 79.1194 110.883 79.1196 103.427C79.1199 95.9709 85.1643 89.9268 92.6201 89.9268Z" fill="url(#paint48_radial)"/>
<path d="M106.117 102.924C106.117 95.3606 100.073 89.2291 92.6172 89.2293C85.1613 89.2296 79.1172 95.3615 79.1172 102.925C79.1172 110.489 85.1613 116.621 92.6172 116.621C100.073 116.62 106.117 110.488 106.117 102.924Z" fill="url(#paint49_radial)"/>
<mask id="mask4" mask-type="alpha" maskUnits="userSpaceOnUse" x="79" y="89" width="28" height="28">
<path d="M106.117 102.924C106.117 95.3606 100.073 89.2291 92.6172 89.2293C85.1613 89.2296 79.1172 95.3615 79.1172 102.925C79.1172 110.489 85.1613 116.621 92.6172 116.621C100.073 116.62 106.117 110.488 106.117 102.924Z" fill="url(#paint50_radial)"/>
</mask>
<g mask="url(#mask4)">
<path d="M88.5904 108.849C87.474 108.426 87.6135 107.72 88.0322 106.027C88.3985 104.545 87.8567 103.225 87.7622 102.776C87.5162 101.787 88.8166 100.814 89.4976 100.451C90.5675 99.7456 92.9866 98.2494 94.103 97.9107C95.4986 97.4873 95.9173 99.0399 96.1267 99.2516C96.336 99.4633 97.5222 102.78 97.8014 103.486C98.0805 104.192 98.2898 105.956 98.2898 107.226C98.2898 108.497 96.6849 109.132 95.2893 109.414C93.8937 109.696 92.219 109.555 91.3816 109.414C90.5443 109.273 89.7069 109.273 88.5904 108.849Z" fill="url(#paint51_radial)"/>
<path d="M99.4267 106.71C99.64 106.072 99.0001 103.733 98.2891 102.315C98.4313 100.898 99.5689 101.04 101.631 100.969C103.693 100.898 104.617 104.796 104.546 106.001C104.489 106.965 103.195 108.577 102.555 109.262C101.82 110.069 101.369 110.41 100.493 110.75C99.17 110.741 98.6639 110.501 98.7868 109.049C98.929 108.482 99.2561 107.22 99.4267 106.71Z" fill="url(#paint52_radial)"/>
<path d="M96.2821 96.8815C95.9374 96.1262 95.6616 96.2635 94.8342 95.8515C94.5032 94.2035 95.5237 93.8831 96.0753 93.9289C96.6729 94.1578 97.937 94.6842 98.2128 94.9589C98.5575 95.3022 98.8333 96.2635 100.074 96.8128C101.316 97.3621 100.902 98.0488 101.316 99.1474C101.729 100.246 100.833 99.6281 100.35 99.5594C99.8676 99.4907 98.6954 99.6967 98.3507 99.7654C98.0059 99.834 97.3854 99.3534 97.1785 99.1474C96.9717 98.9414 96.6269 97.6368 96.2821 96.8815Z" fill="url(#paint53_radial)"/>
<path d="M90.2684 98.2357C91.3077 97.6252 93.4473 96.8728 94.1037 96.391C94.9247 95.3319 93.6744 94.9369 93.347 94.264C93.0195 93.5912 92.2946 94.1613 91.823 94.222C91.3514 94.2828 90.4083 94.4043 89.1653 93.4522C87.9224 92.5001 88.2091 92.8604 86.7128 92.4175C85.2166 91.9747 85.3446 94.1828 84.7973 94.8888C84.25 95.5949 84.8846 96.7843 85.8889 97.1316C86.8931 97.4789 86.1275 97.7364 86.2701 98.8303C86.3842 99.7054 86.7359 100.359 86.8974 100.577C87.4282 100.561 89.2292 98.8463 90.2684 98.2357Z" fill="url(#paint54_radial)"/>
<path d="M90.2934 93.2008C89.7391 92.9136 89.0462 92.6263 88.4226 92.1236C87.3694 91.7214 87.1061 90.9027 87.5218 90.3282C87.9375 89.7537 88.9215 89.3659 89.254 89.251C89.6698 89.1074 90.8477 88.6047 91.4713 88.9637C92.0949 89.3228 92.3721 89.8973 92.5799 90.1128C92.7878 90.3282 92.7185 90.6873 92.8571 91.1182C92.9957 91.5491 93.2035 91.9082 93.2035 92.3391C93.2035 92.7699 92.3028 92.9854 91.8178 93.3445C91.3327 93.7035 90.8477 93.4881 90.2934 93.2008Z" fill="url(#paint55_radial)"/>
<path d="M99.629 95.2593C98.9331 94.5417 99.2115 93.9677 99.0723 93.1067C99.4202 91.0259 100.534 91.5999 100.743 91.8151C100.951 92.0304 101.926 92.6044 102.413 93.1067C102.9 93.609 103.039 94.183 103.318 94.47C103.596 94.757 103.944 95.9768 103.666 96.1203C103.387 96.2638 102.065 96.192 101.578 96.2638C101.091 96.3355 100.325 95.9768 99.629 95.2593Z" fill="url(#paint56_radial)"/>
<path d="M98.874 91.9714C99.2918 90.9581 99.0133 91.2476 98.3866 90.5962C97.7748 90.0741 94.4174 88.642 93.7907 88.8591C93.164 89.0763 93.164 89.6553 93.2336 89.7277C93.2893 89.7856 93.5354 91.2959 93.6514 92.0438C93.7907 92.6228 94.0972 93.5202 94.7656 93.636C95.6013 93.7808 95.8797 92.9123 97.3421 93.5637C98.8044 94.2151 98.5955 93.8532 98.6651 93.4913C98.7348 93.1294 98.4562 92.9847 98.874 91.9714Z" fill="url(#paint57_radial)"/>
<path d="M106.483 99.087C106.483 98.6689 105.309 97.2053 104.964 96.9963C103.515 96.2296 102.755 96.9963 102.479 97.2751C102.203 97.5538 102.134 97.6235 102.272 98.3204C102.41 99.0174 103.17 99.5052 103.446 99.9234C103.722 100.342 104.412 101.875 104.619 102.223C104.826 102.572 106.552 102.641 106.828 102.363C107.104 102.084 106.483 99.5052 106.483 99.087Z" fill="url(#paint58_radial)"/>
<path d="M107.182 103.986C106.916 103.561 106.217 103.822 105.457 103.732C104.772 103.435 105.123 105.957 104.828 106.647C104.533 107.337 104.157 108.513 103.94 108.857C103.767 109.131 103.757 109.713 103.773 109.969C104.167 109.909 105.027 109.694 105.314 109.311C105.673 108.832 106.177 108.077 106.685 107.183C107.193 106.289 107.449 104.412 107.182 103.986Z" fill="url(#paint59_radial)"/>
<path d="M91.8924 113.532C92.881 113.666 92.9994 114.296 93.6253 114.892C94.587 116.76 93.3477 117.001 93.0512 116.961C92.7546 116.92 91.6274 117.074 90.9354 116.98C90.2434 116.886 89.7887 116.518 89.3933 116.464C88.9978 116.41 87.9897 115.66 88.1282 115.372C88.2667 115.084 89.3743 114.314 89.7238 113.953C90.0732 113.592 90.9038 113.398 91.8924 113.532Z" fill="url(#paint60_radial)"/>
<path d="M94.4898 115.852C94.7549 116.896 94.8081 116.5 95.7042 116.619C96.5111 116.647 100.085 115.689 100.464 115.134C100.842 114.579 100.497 114.129 100.398 114.116C100.318 114.105 99.219 113.085 98.6793 112.576C98.2215 112.212 97.4384 111.704 96.8276 112.026C96.0641 112.429 96.3559 113.275 94.7826 113.671C93.2094 114.067 93.5943 114.219 93.7535 114.543C93.9126 114.867 94.2246 114.808 94.4898 115.852Z" fill="url(#paint61_radial)"/>
<path d="M84.1391 114.726C84.3949 115.052 86.2387 115.487 86.6455 115.443C88.2861 115.168 88.4309 114.113 88.4836 113.729C88.5362 113.346 88.5493 113.25 88.0114 112.789C87.4735 112.328 86.5614 112.405 86.0824 112.245C85.6035 112.085 84.1076 111.304 83.7271 111.156C83.3465 111.009 81.9091 111.994 81.8565 112.377C81.8038 112.761 83.8833 114.399 84.1391 114.726Z" fill="url(#paint62_radial)"/>
<path d="M80.8918 111.503C81.3737 111.683 81.784 111.031 82.4612 110.628C83.2061 110.44 81.3539 108.606 81.1667 107.859C80.9795 107.112 80.5572 105.917 80.5214 105.501C80.4927 105.169 80.1403 104.689 79.9677 104.49C79.6822 104.786 79.1121 105.5 79.1152 105.993C79.1192 106.608 79.175 107.539 79.3144 108.586C79.4538 109.633 80.4098 111.323 80.8918 111.503Z" fill="url(#paint63_radial)"/>
<path d="M87.3343 104.217C87.3343 105.187 87.2642 105.81 86.9839 106.364C86.9138 108.788 85.3719 107.957 85.3019 107.472C85.2318 106.987 85.0916 106.988 84.8112 106.434C84.5309 105.879 84.0404 105.949 83.3395 105.533C82.6387 105.118 82.6387 104.286 82.6387 103.732C82.6387 103.178 82.7088 102.139 83.0592 101.932C83.4096 101.724 84.2506 100.754 84.5309 100.339C84.8113 99.9232 85.9326 100.477 86.1429 100.546C86.3531 100.616 86.7736 101.585 86.7736 101.862C86.7736 102.139 87.3343 103.248 87.3343 104.217Z" fill="url(#paint64_radial)"/>
<path d="M82.8736 98.8357C82.7876 99.1817 81.9235 100.116 81.3523 100.645C80.5102 101.159 80.2466 101.004 79.9977 100.569C79.7487 100.134 80.027 100.01 80.1917 99.4576C80.3565 98.9056 80.2943 97.4989 80.395 96.8731C80.4957 96.2473 81.6747 94.489 82.7163 94.056C83.758 93.6231 83.6499 94.3888 83.5071 94.5212C83.3643 94.6535 82.4435 95.3738 83.6187 96.2814C84.794 97.189 84.7079 97.5349 84.9422 98.2496C85.1765 98.9643 84.3985 99.5523 84.0141 99.1099C83.6297 98.6674 82.9597 98.4897 82.8736 98.8357Z" fill="url(#paint65_radial)"/>
<path d="M81.6329 101.027C82.3299 100.753 82.6087 100.069 82.8875 99.7953C83.7067 98.8207 84.4208 99.9322 84.142 100.206C83.8632 100.479 83.7936 100.685 83.1662 101.163C82.5389 101.642 82.6086 101.711 82.4692 102.395C82.3298 103.079 81.7722 102.668 81.5631 102.463C81.354 102.258 80.7268 103.01 80.2389 103.216C79.751 103.421 79.9601 103.352 79.6116 102.6C79.3328 101.998 79.6813 101.528 79.8904 101.369C80.2389 101.346 81.0753 101.246 81.6329 101.027Z" fill="url(#paint66_radial)"/>
<path d="M82.866 105.683C82.2397 105.326 82.1701 104.827 82.1005 104.185C81.8222 102.758 80.152 103.328 80.848 104.185C81.5439 105.041 81.4047 106.753 81.5439 107.182C81.6831 107.61 81.9614 107.752 82.5878 108.537C83.2141 109.322 82.8661 109.822 83.4229 110.393C83.9796 110.963 84.5363 110.821 85.3018 110.179C86.0674 109.536 85.7193 108.894 85.441 108.751C85.1626 108.609 84.745 107.61 84.5363 107.253C84.3275 106.896 83.4924 106.04 82.866 105.683Z" fill="url(#paint67_radial)"/>
<path d="M86.8372 111.857C85.1707 111.788 85.8228 110.472 86.33 109.849C86.8 109.052 87.127 109.087 87.4168 109.364C87.7066 109.641 88.2138 109.849 88.7935 109.572C89.3731 109.295 90.5324 109.849 90.46 110.195C90.3875 110.542 90.3875 112.48 90.0977 112.896C89.8079 113.311 88.7935 113.034 88.5761 112.55C88.3587 112.065 88.5037 111.926 86.8372 111.857Z" fill="url(#paint68_radial)"/>
<path d="M90.8634 112.443C90.8634 112.308 90.7919 111.02 91.078 110.343C91.8648 109.598 91.9363 110.207 92.294 110.14C92.6516 110.072 93.2953 110.411 94.0821 110.478C94.8689 110.546 94.9404 110.749 95.3696 111.156C95.7987 111.562 95.3696 112.511 95.0835 112.782C94.7974 113.053 94.2251 113.324 93.939 113.459C93.7102 113.568 93.1284 113.369 92.8662 113.256C92.6039 113.188 92.0078 113.039 91.7217 112.985C91.3641 112.917 90.8634 112.579 90.8634 112.443Z" fill="url(#paint69_radial)"/>
<path d="M96.1198 111.372C96.2491 111.076 95.7965 110.409 95.9905 110.039C96.7663 109.447 97.8656 109.373 97.8656 110.113C97.8656 110.854 97.9949 111.594 97.7363 111.446C97.4776 111.298 96.9604 111.742 96.5724 111.89C96.1844 112.038 95.9905 111.668 96.1198 111.372Z" fill="url(#paint70_radial)"/>
<path d="M100.7 113.664C100.632 113.596 99.8766 112.708 99.4648 112.436C99.4877 112.231 99.6158 111.794 99.9452 111.685C100.357 111.548 100.906 111.548 101.524 111.344C102.141 111.139 101.73 111.139 102.553 110.866C103.377 110.593 103.514 110.866 103.72 111.071C103.926 111.275 103.445 112.163 103.034 112.572C102.622 112.982 102.073 113.391 101.455 113.732C100.838 114.073 100.769 113.732 100.7 113.664Z" fill="url(#paint71_radial)"/>
</g>
<defs>
<radialGradient id="paint0_radial" cx="0" cy="0" r="1" gradientUnits="userSpaceOnUse" gradientTransform="translate(63.6191 47.4279) rotate(179.998) scale(31.5)">
<stop stop-color="#FF0000"/>
<stop offset="1" stop-color="#B10000"/>
</radialGradient>
<radialGradient id="paint1_radial" cx="0" cy="0" r="1" gradientUnits="userSpaceOnUse" gradientTransform="translate(62.6211 71.4263) scale(41.5)">
<stop stop-color="#FF0000"/>
<stop offset="1" stop-color="#B10000"/>
</radialGradient>
<radialGradient id="paint2_radial" cx="0" cy="0" r="1" gradientUnits="userSpaceOnUse" gradientTransform="translate(62.6211 71.4263) scale(41.5)">
<stop stop-color="#D3E21F"/>
<stop offset="1" stop-color="#568A00"/>
</radialGradient>
<radialGradient id="paint3_radial" cx="0" cy="0" r="1" gradientUnits="userSpaceOnUse" gradientTransform="translate(65.6211 73.4277) scale(17.5 18.5)">
<stop offset="0.364583" stop-color="#202020"/>
<stop offset="1" stop-color="#550000"/>
</radialGradient>
<radialGradient id="paint4_radial" cx="0" cy="0" r="1" gradientUnits="userSpaceOnUse" gradientTransform="translate(83.1211 59.9277) scale(12 13)">
<stop offset="0.364583" stop-color="#202020"/>
<stop offset="1" stop-color="#550000"/>
</radialGradient>
<radialGradient id="paint5_radial" cx="0" cy="0" r="1" gradientUnits="userSpaceOnUse" gradientTransform="translate(60.6211 46.9277) scale(12.5 6)">
<stop offset="0.364583" stop-color="#202020"/>
<stop offset="1" stop-color="#550000"/>
</radialGradient>
<radialGradient id="paint6_radial" cx="0" cy="0" r="1" gradientUnits="userSpaceOnUse" gradientTransform="translate(38.2916 65.8521) rotate(-7.45009) scale(13 13.5)">
<stop offset="0.364583" stop-color="#202020"/>
<stop offset="1" stop-color="#550000"/>
</radialGradient>
<radialGradient id="paint7_radial" cx="0" cy="0" r="1" gradientUnits="userSpaceOnUse" gradientTransform="translate(32.6211 50.9277) scale(8.5 7)">
<stop offset="0.364583" stop-color="#202020"/>
<stop offset="1" stop-color="#550000"/>
</radialGradient>
<radialGradient id="paint8_radial" cx="0" cy="0" r="1" gradientUnits="userSpaceOnUse" gradientTransform="translate(62.1211 32.9277) scale(9 5)">
<stop offset="0.364583" stop-color="#202020"/>
<stop offset="1" stop-color="#550000"/>
</radialGradient>
<radialGradient id="paint9_radial" cx="0" cy="0" r="1" gradientUnits="userSpaceOnUse" gradientTransform="translate(44.6211 38.9277) scale(10.5 7)">
<stop offset="0.364583" stop-color="#202020"/>
<stop offset="1" stop-color="#550000"/>
</radialGradient>
<radialGradient id="paint10_radial" cx="0" cy="0" r="1" gradientUnits="userSpaceOnUse" gradientTransform="translate(81.1211 37.9277) scale(10 6)">
<stop offset="0.364583" stop-color="#202020"/>
<stop offset="1" stop-color="#550000"/>
</radialGradient>
<radialGradient id="paint11_radial" cx="0" cy="0" r="1" gradientUnits="userSpaceOnUse" gradientTransform="translate(96.3742 50.0869) rotate(1.48859) scale(6 10)">
<stop offset="0.364583" stop-color="#202020"/>
<stop offset="1" stop-color="#550000"/>
</radialGradient>
<radialGradient id="paint12_radial" cx="0" cy="0" r="1" gradientUnits="userSpaceOnUse" gradientTransform="translate(85.0122 103.409) rotate(142.367) scale(9 4.99981)">
<stop offset="0.364583" stop-color="#202020"/>
<stop offset="1" stop-color="#550000"/>
</radialGradient>
<radialGradient id="paint13_radial" cx="0" cy="0" r="1" gradientUnits="userSpaceOnUse" gradientTransform="translate(96.3336 87.318) rotate(142.367) scale(10.5 7.49972)">
<stop offset="0.364583" stop-color="#202020"/>
<stop offset="1" stop-color="#550000"/>
</radialGradient>
<radialGradient id="paint14_radial" cx="0" cy="0" r="1" gradientUnits="userSpaceOnUse" gradientTransform="translate(66.824 108.817) rotate(142.367) scale(10 5.99977)">
<stop offset="0.364583" stop-color="#202020"/>
<stop offset="1" stop-color="#550000"/>
</radialGradient>
<radialGradient id="paint15_radial" cx="0" cy="0" r="1" gradientUnits="userSpaceOnUse" gradientTransform="translate(47.1069 106.592) rotate(143.846) scale(6 9.99964)">
<stop offset="0.364583" stop-color="#202020"/>
<stop offset="1" stop-color="#550000"/>
</radialGradient>
<radialGradient id="paint16_radial" cx="0" cy="0" r="1" gradientUnits="userSpaceOnUse" gradientTransform="translate(49.1211 87.4277) scale(10 8.5)">
<stop offset="0.364583" stop-color="#202020"/>
<stop offset="1" stop-color="#550000"/>
</radialGradient>
<radialGradient id="paint17_radial" cx="0" cy="0" r="1" gradientUnits="userSpaceOnUse" gradientTransform="translate(27.6712 81.8787) rotate(3.12359) scale(8 10.5)">
<stop offset="0.364583" stop-color="#202020"/>
<stop offset="1" stop-color="#550000"/>
</radialGradient>
<radialGradient id="paint18_radial" cx="0" cy="0" r="1" gradientUnits="userSpaceOnUse" gradientTransform="translate(35.1211 90.4277) scale(4 8.5)">
<stop offset="0.364583" stop-color="#202020"/>
<stop offset="1" stop-color="#550000"/>
</radialGradient>
<radialGradient id="paint19_radial" cx="0" cy="0" r="1" gradientUnits="userSpaceOnUse" gradientTransform="translate(49.1211 100.428) scale(12 5.5)">
<stop offset="0.364583" stop-color="#202020"/>
<stop offset="1" stop-color="#550000"/>
</radialGradient>
<radialGradient id="paint20_radial" cx="0" cy="0" r="1" gradientUnits="userSpaceOnUse" gradientTransform="translate(69.6211 96.4277) scale(7.5 6.5)">
<stop offset="0.364583" stop-color="#202020"/>
<stop offset="1" stop-color="#550000"/>
</radialGradient>
<radialGradient id="paint21_radial" cx="0" cy="0" r="1" gradientUnits="userSpaceOnUse" gradientTransform="translate(80.1211 87.4277) scale(7 6.5)">
<stop offset="0.364583" stop-color="#202020"/>
<stop offset="1" stop-color="#550000"/>
</radialGradient>
<radialGradient id="paint22_radial" cx="0" cy="0" r="1" gradientUnits="userSpaceOnUse" gradientTransform="translate(86.6211 76.9277) scale(3.5 4)">
<stop offset="0.364583" stop-color="#202020"/>
<stop offset="1" stop-color="#550000"/>
</radialGradient>
<radialGradient id="paint23_radial" cx="0" cy="0" r="1" gradientUnits="userSpaceOnUse" gradientTransform="translate(101.621 69.4277) scale(4.5 6.5)">
<stop offset="0.364583" stop-color="#202020"/>
<stop offset="1" stop-color="#550000"/>
</radialGradient>
<radialGradient id="paint24_radial" cx="0" cy="0" r="1" gradientUnits="userSpaceOnUse" gradientTransform="translate(34.6187 103.427) rotate(-90.002) scale(13.5)">
<stop stop-color="#FF0000"/>
<stop offset="1" stop-color="#B10000"/>
</radialGradient>
<radialGradient id="paint25_radial" cx="0" cy="0" r="1" gradientUnits="userSpaceOnUse" gradientTransform="translate(33.6191 102.925) scale(14.5 14.7102)">
<stop stop-color="#FF0000"/>
<stop offset="1" stop-color="#B10000"/>
</radialGradient>
<radialGradient id="paint26_radial" cx="0" cy="0" r="1" gradientUnits="userSpaceOnUse" gradientTransform="translate(33.6191 102.925) scale(14.5 14.7102)">
<stop stop-color="#D3E21F"/>
<stop offset="1" stop-color="#568A00"/>
</radialGradient>
<radialGradient id="paint27_radial" cx="0" cy="0" r="1" gradientUnits="userSpaceOnUse" gradientTransform="translate(34.0411 103.767) rotate(90) scale(6.30435 5.67392)">
<stop offset="0.364583" stop-color="#202020"/>
<stop offset="1" stop-color="#550000"/>
</radialGradient>
<radialGradient id="paint28_radial" cx="0" cy="0" r="1" gradientUnits="userSpaceOnUse" gradientTransform="translate(43.0772 106.079) rotate(90) scale(5.25363 3.36232)">
<stop offset="0.364583" stop-color="#202020"/>
<stop offset="1" stop-color="#550000"/>
</radialGradient>
<radialGradient id="paint29_radial" cx="0" cy="0" r="1" gradientUnits="userSpaceOnUse" gradientTransform="translate(39.5041 96.4119) rotate(90) scale(3.15218 3.57247)">
<stop offset="0.364583" stop-color="#202020"/>
<stop offset="1" stop-color="#550000"/>
</radialGradient>
<radialGradient id="paint30_radial" cx="0" cy="0" r="1" gradientUnits="userSpaceOnUse" gradientTransform="translate(30.2575 95.9912) rotate(90) scale(4.41305 5.25363)">
<stop offset="0.364583" stop-color="#202020"/>
<stop offset="1" stop-color="#550000"/>
</radialGradient>
<radialGradient id="paint31_radial" cx="0" cy="0" r="1" gradientUnits="userSpaceOnUse" gradientTransform="translate(31.0975 90.3176) rotate(90) scale(2.52174 3.15218)">
<stop offset="0.364583" stop-color="#202020"/>
<stop offset="1" stop-color="#550000"/>
</radialGradient>
<radialGradient id="paint32_radial" cx="0" cy="0" r="1" gradientUnits="userSpaceOnUse" gradientTransform="translate(43.0764 93.259) rotate(90) scale(2.52174)">
<stop offset="0.364583" stop-color="#202020"/>
<stop offset="1" stop-color="#550000"/>
</radialGradient>
<radialGradient id="paint33_radial" cx="0" cy="0" r="1" gradientUnits="userSpaceOnUse" gradientTransform="translate(37.4022 90.5278) rotate(90) scale(2.73189 3.15218)">
<stop offset="0.364583" stop-color="#202020"/>
<stop offset="1" stop-color="#550000"/>
</radialGradient>
<radialGradient id="paint34_radial" cx="0" cy="0" r="1" gradientUnits="userSpaceOnUse" gradientTransform="translate(46.4397 99.3533) rotate(90) scale(3.15218 2.52174)">
<stop offset="0.364583" stop-color="#202020"/>
<stop offset="1" stop-color="#550000"/>
</radialGradient>
<radialGradient id="paint35_radial" cx="0" cy="0" r="1" gradientUnits="userSpaceOnUse" gradientTransform="translate(47.489 107.129) rotate(90) scale(3.36232 1.89131)">
<stop offset="0.364583" stop-color="#202020"/>
<stop offset="1" stop-color="#550000"/>
</radialGradient>
<radialGradient id="paint36_radial" cx="0" cy="0" r="1" gradientUnits="userSpaceOnUse" gradientTransform="translate(31.9393 116.166) rotate(90) scale(1.89131 3.15218)">
<stop offset="0.364583" stop-color="#202020"/>
<stop offset="1" stop-color="#550000"/>
</radialGradient>
<radialGradient id="paint37_radial" cx="0" cy="0" r="1" gradientUnits="userSpaceOnUse" gradientTransform="translate(38.4525 115.115) rotate(90) scale(2.52174 3.78261)">
<stop offset="0.364583" stop-color="#202020"/>
<stop offset="1" stop-color="#550000"/>
</radialGradient>
<radialGradient id="paint38_radial" cx="0" cy="0" r="1" gradientUnits="userSpaceOnUse" gradientTransform="translate(25.635 114.064) rotate(90) scale(2.3116 3.57247)">
<stop offset="0.364583" stop-color="#202020"/>
<stop offset="1" stop-color="#550000"/>
</radialGradient>
<radialGradient id="paint39_radial" cx="0" cy="0" r="1" gradientUnits="userSpaceOnUse" gradientTransform="translate(21.0104 108.39) rotate(90) scale(3.78261 1.89131)">
<stop offset="0.364583" stop-color="#202020"/>
<stop offset="1" stop-color="#550000"/>
</radialGradient>
<radialGradient id="paint40_radial" cx="0" cy="0" r="1" gradientUnits="userSpaceOnUse" gradientTransform="translate(25.4241 104.187) rotate(90) scale(4.2029 2.52174)">
<stop offset="0.364583" stop-color="#202020"/>
<stop offset="1" stop-color="#550000"/>
</radialGradient>
<radialGradient id="paint41_radial" cx="0" cy="0" r="1" gradientUnits="userSpaceOnUse" gradientTransform="translate(22.6928 97.0424) rotate(90) scale(3.78261 2.73189)">
<stop offset="0.364583" stop-color="#202020"/>
<stop offset="1" stop-color="#550000"/>
</radialGradient>
<radialGradient id="paint42_radial" cx="0" cy="0" r="1" gradientUnits="userSpaceOnUse" gradientTransform="translate(22.0628 101.245) rotate(90) scale(2.10145 2.52174)">
<stop offset="0.364583" stop-color="#202020"/>
<stop offset="1" stop-color="#550000"/>
</radialGradient>
<radialGradient id="paint43_radial" cx="0" cy="0" r="1" gradientUnits="userSpaceOnUse" gradientTransform="translate(23.5327 107.339) rotate(90) scale(3.99276 2.73189)">
<stop offset="0.364583" stop-color="#202020"/>
<stop offset="1" stop-color="#550000"/>
</radialGradient>
<radialGradient id="paint44_radial" cx="0" cy="0" r="1" gradientUnits="userSpaceOnUse" gradientTransform="translate(28.7874 111.752) rotate(90) scale(2.10145 2.52174)">
<stop offset="0.364583" stop-color="#202020"/>
<stop offset="1" stop-color="#550000"/>
</radialGradient>
<radialGradient id="paint45_radial" cx="0" cy="0" r="1" gradientUnits="userSpaceOnUse" gradientTransform="translate(34.2503 112.383) rotate(90) scale(1.89131 2.52174)">
<stop offset="0.364583" stop-color="#202020"/>
<stop offset="1" stop-color="#550000"/>
</radialGradient>
<radialGradient id="paint46_radial" cx="0" cy="0" r="1" gradientUnits="userSpaceOnUse" gradientTransform="translate(38.2441 111.332) rotate(90) scale(1.26087 1.05073)">
<stop offset="0.364583" stop-color="#202020"/>
<stop offset="1" stop-color="#550000"/>
</radialGradient>
<radialGradient id="paint47_radial" cx="0" cy="0" r="1" gradientUnits="userSpaceOnUse" gradientTransform="translate(43.2862 113.013) rotate(90) scale(1.68116 2.3116)">
<stop offset="0.364583" stop-color="#202020"/>
<stop offset="1" stop-color="#550000"/>
</radialGradient>
<radialGradient id="paint48_radial" cx="0" cy="0" r="1" gradientUnits="userSpaceOnUse" gradientTransform="translate(92.6196 103.427) rotate(-89.998) scale(13.5)">
<stop stop-color="#FF0000"/>
<stop offset="1" stop-color="#B10000"/>
</radialGradient>
<radialGradient id="paint49_radial" cx="0" cy="0" r="1" gradientUnits="userSpaceOnUse" gradientTransform="translate(92.6172 102.925) scale(13.5 13.6956)">
<stop stop-color="#FF0000"/>
<stop offset="1" stop-color="#B10000"/>
</radialGradient>
<radialGradient id="paint50_radial" cx="0" cy="0" r="1" gradientUnits="userSpaceOnUse" gradientTransform="translate(92.6172 102.925) scale(13.5 13.6956)">
<stop stop-color="#D3E21F"/>
<stop offset="1" stop-color="#568A00"/>
</radialGradient>
<radialGradient id="paint51_radial" cx="0" cy="0" r="1" gradientUnits="userSpaceOnUse" gradientTransform="translate(93.0072 103.707) rotate(90) scale(5.86956 5.28261)">
<stop offset="0.364583" stop-color="#202020"/>
<stop offset="1" stop-color="#550000"/>
</radialGradient>
<radialGradient id="paint52_radial" cx="0" cy="0" r="1" gradientUnits="userSpaceOnUse" gradientTransform="translate(101.419 105.859) rotate(90) scale(4.8913 3.13043)">
<stop offset="0.364583" stop-color="#202020"/>
<stop offset="1" stop-color="#550000"/>
</radialGradient>
<radialGradient id="paint53_radial" cx="0" cy="0" r="1" gradientUnits="userSpaceOnUse" gradientTransform="translate(98.0956 96.8596) rotate(90) scale(2.93478 3.32609)">
<stop offset="0.364583" stop-color="#202020"/>
<stop offset="1" stop-color="#550000"/>
</radialGradient>
<radialGradient id="paint54_radial" cx="0" cy="0" r="1" gradientUnits="userSpaceOnUse" gradientTransform="translate(89.487 96.4681) rotate(90) scale(4.10869 4.8913)">
<stop offset="0.364583" stop-color="#202020"/>
<stop offset="1" stop-color="#550000"/>
</radialGradient>
<radialGradient id="paint55_radial" cx="0" cy="0" r="1" gradientUnits="userSpaceOnUse" gradientTransform="translate(90.2688 91.1847) rotate(90) scale(2.34783 2.93478)">
<stop offset="0.364583" stop-color="#202020"/>
<stop offset="1" stop-color="#550000"/>
</radialGradient>
<radialGradient id="paint56_radial" cx="0" cy="0" r="1" gradientUnits="userSpaceOnUse" gradientTransform="translate(101.42 93.925) rotate(90) scale(2.34783)">
<stop offset="0.364583" stop-color="#202020"/>
<stop offset="1" stop-color="#550000"/>
</radialGradient>
<radialGradient id="paint57_radial" cx="0" cy="0" r="1" gradientUnits="userSpaceOnUse" gradientTransform="translate(96.1379 91.3804) rotate(90) scale(2.54348 2.93478)">
<stop offset="0.364583" stop-color="#202020"/>
<stop offset="1" stop-color="#550000"/>
</radialGradient>
<radialGradient id="paint58_radial" cx="0" cy="0" r="1" gradientUnits="userSpaceOnUse" gradientTransform="translate(104.551 99.5998) rotate(90) scale(2.93478 2.34783)">
<stop offset="0.364583" stop-color="#202020"/>
<stop offset="1" stop-color="#550000"/>
</radialGradient>
<radialGradient id="paint59_radial" cx="0" cy="0" r="1" gradientUnits="userSpaceOnUse" gradientTransform="translate(105.528 106.838) rotate(90) scale(3.13043 1.76087)">
<stop offset="0.364583" stop-color="#202020"/>
<stop offset="1" stop-color="#550000"/>
</radialGradient>
<radialGradient id="paint60_radial" cx="0" cy="0" r="1" gradientUnits="userSpaceOnUse" gradientTransform="translate(91.05 115.25) rotate(90) scale(1.76087 2.93478)">
<stop offset="0.364583" stop-color="#202020"/>
<stop offset="1" stop-color="#550000"/>
</radialGradient>
<radialGradient id="paint61_radial" cx="0" cy="0" r="1" gradientUnits="userSpaceOnUse" gradientTransform="translate(97.1155 114.272) rotate(90) scale(2.34783 3.52174)">
<stop offset="0.364583" stop-color="#202020"/>
<stop offset="1" stop-color="#550000"/>
</radialGradient>
<radialGradient id="paint62_radial" cx="0" cy="0" r="1" gradientUnits="userSpaceOnUse" gradientTransform="translate(85.1816 113.294) rotate(90) scale(2.15217 3.32609)">
<stop offset="0.364583" stop-color="#202020"/>
<stop offset="1" stop-color="#550000"/>
</radialGradient>
<radialGradient id="paint63_radial" cx="0" cy="0" r="1" gradientUnits="userSpaceOnUse" gradientTransform="translate(80.8761 108.012) rotate(90) scale(3.52174 1.76087)">
<stop offset="0.364583" stop-color="#202020"/>
<stop offset="1" stop-color="#550000"/>
</radialGradient>
<radialGradient id="paint64_radial" cx="0" cy="0" r="1" gradientUnits="userSpaceOnUse" gradientTransform="translate(84.9865 104.099) rotate(90) scale(3.91304 2.34783)">
<stop offset="0.364583" stop-color="#202020"/>
<stop offset="1" stop-color="#550000"/>
</radialGradient>
<radialGradient id="paint65_radial" cx="0" cy="0" r="1" gradientUnits="userSpaceOnUse" gradientTransform="translate(82.4419 97.4465) rotate(90) scale(3.52174 2.54348)">
<stop offset="0.364583" stop-color="#202020"/>
<stop offset="1" stop-color="#550000"/>
</radialGradient>
<radialGradient id="paint66_radial" cx="0" cy="0" r="1" gradientUnits="userSpaceOnUse" gradientTransform="translate(81.8556 101.359) rotate(90) scale(1.95652 2.34783)">
<stop offset="0.364583" stop-color="#202020"/>
<stop offset="1" stop-color="#550000"/>
</radialGradient>
<radialGradient id="paint67_radial" cx="0" cy="0" r="1" gradientUnits="userSpaceOnUse" gradientTransform="translate(83.2232 107.033) rotate(90) scale(3.71739 2.54348)">
<stop offset="0.364583" stop-color="#202020"/>
<stop offset="1" stop-color="#550000"/>
</radialGradient>
<radialGradient id="paint68_radial" cx="0" cy="0" r="1" gradientUnits="userSpaceOnUse" gradientTransform="translate(88.1154 111.142) rotate(90) scale(1.95652 2.34783)">
<stop offset="0.364583" stop-color="#202020"/>
<stop offset="1" stop-color="#550000"/>
</radialGradient>
<radialGradient id="paint69_radial" cx="0" cy="0" r="1" gradientUnits="userSpaceOnUse" gradientTransform="translate(93.2033 111.73) rotate(90) scale(1.76087 2.34783)">
<stop offset="0.364583" stop-color="#202020"/>
<stop offset="1" stop-color="#550000"/>
</radialGradient>
<radialGradient id="paint70_radial" cx="0" cy="0" r="1" gradientUnits="userSpaceOnUse" gradientTransform="translate(96.9197 110.75) rotate(90) scale(1.17391 0.978261)">
<stop offset="0.364583" stop-color="#202020"/>
<stop offset="1" stop-color="#550000"/>
</radialGradient>
<radialGradient id="paint71_radial" cx="0" cy="0" r="1" gradientUnits="userSpaceOnUse" gradientTransform="translate(101.617 112.316) rotate(90) scale(1.56522 2.15217)">
<stop offset="0.364583" stop-color="#202020"/>
<stop offset="1" stop-color="#550000"/>
</radialGradient>
</defs>
</svg>
