<svg width="129" height="129" viewBox="0 0 129 129" fill="none" xmlns="http://www.w3.org/2000/svg">
<path d="M54.9686 109.11C53.4439 110.224 51.5427 110.726 49.6339 110.534C45.332 110.109 42.1633 106.265 42.6154 101.965C41.3707 102.171 40.0937 102.08 38.8641 101.643C35.1638 100.311 33.2248 96.176 34.5849 92.4701C33.4972 92.1655 32.5248 91.579 31.7681 90.7277C29.5869 88.3157 29.7799 84.6287 32.1748 82.4645C31.0909 74.644 32.2675 66.6816 35.6008 59.5383L39.4335 60.9628C37.3753 66.4773 36.7132 72.4117 37.4926 78.2308C38.7355 87.5061 47.2408 93.974 56.4896 92.7633C59.0283 92.4284 61.4687 91.5015 63.6064 90.0656C71.3664 95.2377 81.8751 93.1549 87.0623 85.393C88.4698 83.2402 89.3892 80.8149 89.7297 78.2308C90.5393 72.4117 89.8583 66.4773 87.8228 60.9628L91.6441 59.5383C94.9736 66.6816 96.1333 74.644 95.0398 82.4645C95.8892 83.2099 96.4738 84.1785 96.7803 85.2757C97.6372 88.3952 95.7947 91.6207 92.6752 92.4701C93.097 93.6505 93.1916 94.9464 92.9816 96.176C92.2495 100.086 88.519 102.657 84.6352 101.965C84.8338 103.84 84.3363 105.746 83.2012 107.3C80.6776 110.82 75.7969 111.628 72.2385 109.11C71.3002 111.437 69.4557 113.283 67.161 114.216C62.373 116.159 56.9398 113.892 54.9686 109.11Z" fill="white"/>
<path fill-rule="evenodd" clip-rule="evenodd" d="M29.3928 50.7756C27.4518 49.7749 26.576 47.4424 27.4027 45.3766C28.2748 43.1462 30.7776 42.0433 33.0098 42.9135C34.597 43.6607 36.2126 44.338 37.8281 44.9339V44.9262L38.2651 45.0325V45.0342C44.6196 46.4927 51.0723 47.3799 57.5724 47.764V47.7626L58.0075 47.792V50.1287C58.0075 50.874 58.6223 51.4529 59.3336 51.4529H69.6116C70.3588 51.4529 70.9415 50.8721 70.9415 50.1287V47.7916L71.3974 47.7608V47.764C77.8804 47.3809 84.3107 46.4955 90.6488 45.0456V45.0481L91.1341 44.93V44.9377C92.7705 44.3418 94.352 43.6626 95.9373 42.9173C98.0031 42.1076 100.33 42.9854 101.369 44.9263C102.488 47.0583 101.69 49.6784 99.5732 50.7775C77.6345 62.4137 51.3466 62.4137 29.3928 50.7756ZM71.3974 41.2424V41.2355C77.8956 40.8628 84.3446 39.9453 90.699 38.4887V38.4923L91.1341 38.4027V25.1991C91.1341 19.5408 86.5598 14.9647 80.9035 14.9647H48.0474C42.4213 14.9647 37.8281 19.5408 37.8281 25.1991V38.3994L38.2651 38.4895V38.4887L38.3001 38.4967L38.3292 38.5027V38.5033C44.6629 39.9496 51.0923 40.8641 57.5724 41.2355V41.2424H58.0075V39.1659C58.0075 38.4376 58.6242 37.8417 59.3336 37.8417H69.6116C70.3569 37.8417 70.9415 38.4357 70.9415 39.1659V41.2424H71.3974ZM61.4373 48.0458H67.5477V41.2563H61.4373V48.0458Z" fill="white"/>
</svg>
