<svg width="37" height="37" viewBox="0 0 37 37" fill="none" xmlns="http://www.w3.org/2000/svg">
<mask id="mask0" mask-type="alpha" maskUnits="userSpaceOnUse" x="0" y="0" width="37" height="37">
<rect x="0.488281" y="0.431641" width="36.0116" height="36.0116" fill="#C4C4C4"/>
</mask>
<g mask="url(#mask0)">
<path d="M6.81673 14.5566L10.5455 16.0818L10.0118 18.4036L6.85103 17.1342L2.66862 17.5448L6.81673 14.5566Z" fill="white" stroke="white" stroke-width="1.20039"/>
<path d="M30.1699 14.5566L26.4411 16.0819L26.9749 18.4037L30.1356 17.1343L34.3244 17.4741L30.1699 14.5566Z" fill="white" stroke="white" stroke-width="1.20039"/>
<path d="M6.38555 24.9913L10.1928 23.6741L11.7143 26.2763L8.50252 27.4104L5.74373 30.7753L6.38555 24.9913Z" fill="white" stroke="white" stroke-width="1.20039"/>
<path d="M29.8966 24.4736L25.9352 23.7406L24.8199 26.541L28.1652 27.1821L32.038 29.6868L29.8966 24.4736Z" fill="white" stroke="white" stroke-width="1.20039"/>
<path fill-rule="evenodd" clip-rule="evenodd" d="M18.59 12.2693C20.6266 12.2693 22.2776 10.1342 22.2776 7.50029C22.2776 6.41637 21.998 5.41692 21.527 4.61597C23.657 5.46699 25.1248 7.25987 25.1248 9.33394C25.1248 12.2306 22.2619 14.5788 18.7303 14.5788C15.1988 14.5788 12.3359 12.2306 12.3359 9.33394C12.3359 7.38274 13.6349 5.68039 15.5623 4.77699C15.1463 5.54911 14.9024 6.48786 14.9024 7.50029C14.9024 10.1342 16.5534 12.2693 18.59 12.2693Z" fill="white"/>
<path d="M21.527 4.61597L21.8239 3.87283L19.651 3.00471L20.8371 5.02164L21.527 4.61597ZM15.5623 4.77699L16.2668 5.15658L17.4156 3.02451L15.2227 4.05238L15.5623 4.77699ZM21.4773 7.50029C21.4773 9.8958 20.0054 11.4691 18.59 11.4691V13.0696C21.2478 13.0696 23.0778 10.3725 23.0778 7.50029H21.4773ZM20.8371 5.02164C21.2322 5.69349 21.4773 6.55174 21.4773 7.50029H23.0778C23.0778 6.28101 22.7637 5.14034 22.2168 4.2103L20.8371 5.02164ZM21.2301 5.35911C23.1387 6.12167 24.3245 7.66789 24.3245 9.33394H25.925C25.925 6.85185 24.1753 4.81231 21.8239 3.87283L21.2301 5.35911ZM24.3245 9.33394C24.3245 11.6476 21.9755 13.7785 18.7303 13.7785V15.3791C22.5482 15.3791 25.925 12.8136 25.925 9.33394H24.3245ZM18.7303 13.7785C15.4852 13.7785 13.1362 11.6476 13.1362 9.33394H11.5357C11.5357 12.8136 14.9125 15.3791 18.7303 15.3791V13.7785ZM13.1362 9.33394C13.1362 7.76512 14.1841 6.3068 15.902 5.5016L15.2227 4.05238C13.0858 5.05399 11.5357 7.00036 11.5357 9.33394H13.1362ZM15.7026 7.50029C15.7026 6.61468 15.9163 5.80715 16.2668 5.15658L14.8578 4.3974C14.3763 5.29107 14.1021 6.36103 14.1021 7.50029H15.7026ZM18.59 11.4691C17.1746 11.4691 15.7026 9.8958 15.7026 7.50029H14.1021C14.1021 10.3725 15.9322 13.0696 18.59 13.0696V11.4691Z" fill="white"/>
<path d="M17.7752 9.36217L17.6226 11.5201L19.7156 11.2626L19.4114 9.16086L18.5937 10.86L17.7752 9.36217Z" fill="white" stroke="white" stroke-width="0.400129"/>
<ellipse rx="8.95279" ry="8.73581" transform="matrix(-1 0 0 1 18.6839 20.3806)" fill="white" stroke="white" stroke-width="2.00064"/>
</g>
</svg>
