<svg width="128" height="128" viewBox="0 0 128 128" fill="none" xmlns="http://www.w3.org/2000/svg">
<path d="M32.5803 46.501C32.5803 63.5769 46.423 77.4192 63.499 77.4186C80.5749 77.418 94.4177 63.5748 94.4177 46.4988C94.4177 29.4229 80.5749 15.5806 63.499 15.5812C46.423 15.5818 32.5803 29.425 32.5803 46.501Z" fill="url(#paint0_linear)" stroke="black" stroke-width="4.79985" stroke-miterlimit="10"/>
<path fill-rule="evenodd" clip-rule="evenodd" d="M90.8377 46.499C90.8377 31.4003 78.5977 19.1608 63.499 19.1613C48.4003 19.1619 36.1603 31.4022 36.1603 46.501C36.1603 61.5997 48.4003 73.8392 63.499 73.8387C78.5977 73.8381 90.8377 61.5978 90.8377 46.499ZM63.499 12.0012C82.5522 12.0005 97.9978 27.4456 97.9978 46.4988C97.9978 65.552 82.5522 80.9981 63.499 80.9988C44.4458 80.9995 29.0002 65.5544 29.0002 46.5012C29.0002 27.448 44.4458 12.0019 63.499 12.0012Z" fill="black"/>
<path d="M25 68.5027C25 89.7657 42.237 107.002 63.5 107.001C84.763 107.001 102 89.763 102 68.5C102 47.237 84.763 30.0006 63.5 30.0013C42.237 30.0021 25 47.2397 25 68.5027Z" fill="url(#paint1_linear)" stroke="#4B4B4B" stroke-width="4.79985" stroke-miterlimit="10"/>
<path d="M23.2151 102.497C23.2151 109.28 28.7151 114.78 35.4998 114.781C42.2844 114.783 47.7844 109.285 47.7844 102.501C47.7844 95.7182 42.2844 90.2181 35.4998 90.2168C28.7151 90.2154 23.2151 95.7133 23.2151 102.497Z" fill="url(#paint2_linear)"/>
<path fill-rule="evenodd" clip-rule="evenodd" d="M35.5001 88.0029C43.5082 88.0045 50 94.4964 50 102.503C50 110.509 43.5082 116.999 35.5001 116.997C27.492 116.995 21.0001 110.503 21.0001 102.497C21.0001 94.4905 27.492 88.0013 35.5001 88.0029ZM45.5695 102.502C45.5695 96.9419 41.0612 92.4337 35.5001 92.4326C29.9389 92.4314 25.4307 96.9378 25.4307 102.498C25.4307 108.058 29.9389 112.566 35.5001 112.567C41.0612 112.568 45.5695 108.062 45.5695 102.502Z" fill="black"/>
<path d="M80.2151 102.497C80.2151 109.28 85.7151 114.78 92.4998 114.781C99.2844 114.783 104.784 109.285 104.784 102.501C104.784 95.7182 99.2844 90.2181 92.4998 90.2168C85.7151 90.2154 80.2151 95.7133 80.2151 102.497Z" fill="url(#paint3_linear)"/>
<path fill-rule="evenodd" clip-rule="evenodd" d="M92.5001 88.0029C100.508 88.0045 107 94.4964 107 102.503C107 110.509 100.508 116.999 92.5001 116.997C84.492 116.995 78.0001 110.503 78.0001 102.497C78.0001 94.4905 84.492 88.0013 92.5001 88.0029ZM102.569 102.502C102.569 96.9419 98.0612 92.4337 92.5001 92.4326C86.9389 92.4314 82.4307 96.9378 82.4307 102.498C82.4307 108.058 86.9389 112.566 92.5001 112.567C98.0612 112.568 102.569 108.062 102.569 102.502Z" fill="black"/>
<defs>
<linearGradient id="paint0_linear" x1="94.4177" y1="46.4988" x2="32.5803" y2="46.4988" gradientUnits="userSpaceOnUse">
<stop stop-color="#503B14"/>
<stop offset="1" stop-color="#AD7E2B"/>
</linearGradient>
<linearGradient id="paint1_linear" x1="74.3703" y1="36.692" x2="51.3798" y2="100.765" gradientUnits="userSpaceOnUse">
<stop stop-color="#856938"/>
<stop offset="1" stop-color="#DCAE5D"/>
</linearGradient>
<linearGradient id="paint2_linear" x1="45.0669" y1="110.273" x2="27.8378" y2="94.5474" gradientUnits="userSpaceOnUse">
<stop stop-color="#725627"/>
<stop offset="1" stop-color="#C59544"/>
</linearGradient>
<linearGradient id="paint3_linear" x1="102.067" y1="110.273" x2="84.8378" y2="94.5474" gradientUnits="userSpaceOnUse">
<stop stop-color="#725627"/>
<stop offset="1" stop-color="#C59544"/>
</linearGradient>
</defs>
</svg>
