<svg width="129" height="129" viewBox="0 0 129 129" fill="none" xmlns="http://www.w3.org/2000/svg">
<path d="M32.4063 47.3733C32.4063 64.7703 46.5093 78.8728 63.9062 78.8722C81.3032 78.8716 95.4062 64.7681 95.4062 47.3711C95.4062 29.9741 81.3032 15.8716 63.9063 15.8722C46.5093 15.8728 32.4063 29.9763 32.4063 47.3733Z" fill="#5E2128"/>
<path fill-rule="evenodd" clip-rule="evenodd" d="M64.4062 12.8723C83.1839 12.8716 98.4062 28.0934 98.4062 46.8711C98.4062 65.6488 83.1839 80.8716 64.4062 80.8723C45.6286 80.8729 30.4062 65.6511 30.4062 46.8735C30.4062 28.0958 45.6286 12.8729 64.4062 12.8723ZM93.216 46.8713C93.216 30.9601 80.3174 18.062 64.4062 18.0625C48.4951 18.0631 35.5965 30.9621 35.5965 46.8733C35.5965 62.7845 48.4951 75.6826 64.4062 75.682C80.3174 75.6815 93.216 62.7825 93.216 46.8713Z" fill="black"/>
<path d="M22.875 70.8711C22.875 48.2274 41.2301 29.8711 63.8454 29.8711C86.4607 29.8711 104.816 48.2274 104.816 70.8711C104.816 93.5148 86.4607 111.871 63.8454 111.871C41.2301 111.871 22.875 93.5148 22.875 70.8711Z" fill="#1F0C0D"/>
<path d="M64.0958 30.4755L59.5312 35.042L64.0945 39.6098L68.659 35.0433L64.0958 30.4755Z" fill="#FA9652"/>
<path d="M43.8865 35.9361L42.2148 42.1748L48.4491 43.8477L50.1208 37.6089L43.8865 35.9361Z" fill="#FA9652"/>
<path d="M35.2108 49.2291L28.9766 50.9014L30.6476 57.1401L36.8818 55.4679L35.2108 49.2291Z" fill="#FA9652"/>
<path d="M28.1257 66.7193L23.5625 71.2871L28.127 75.8536L32.6902 71.2858L28.1257 66.7193Z" fill="#FA9652"/>
<path d="M30.6899 85.2769L29.0195 91.5156L35.2538 93.1872L36.9242 86.9485L30.6899 85.2769Z" fill="#FA9652"/>
<path d="M48.5383 98.5179L42.3047 100.191L43.977 106.43L50.2106 104.756L48.5383 98.5179Z" fill="#FA9652"/>
<path d="M64.3419 102.719L59.7773 107.285L64.3406 111.853L68.9051 107.286L64.3419 102.719Z" fill="#FA9652"/>
<path d="M79.9998 98.482L78.3281 104.721L84.5624 106.394L86.234 100.155L79.9998 98.482Z" fill="#FA9652"/>
<path d="M97.7922 85.1784L91.5586 86.8525L93.2316 93.0906L99.4652 91.4165L97.7922 85.1784Z" fill="#FA9652"/>
<path d="M100.313 66.4693L95.75 71.0371L100.315 75.6036L104.878 71.0358L100.313 66.4693Z" fill="#FA9652"/>
<path d="M93.1899 49.146L91.5195 55.3848L97.7538 57.0564L99.4242 50.8176L93.1899 49.146Z" fill="#FA9652"/>
<path d="M84.4641 35.8899L78.2305 37.5635L79.9028 43.8016L86.1364 42.1281L84.4641 35.8899Z" fill="#FA9652"/>
<path d="M53.664 31.8404L50.4375 37.4346L56.0276 40.6634L59.2541 35.0693L53.664 31.8404Z" fill="#FADE99"/>
<path d="M41.8489 42.417H35.3945V48.876H41.8489V42.417Z" fill="#FADE99"/>
<path d="M30.5621 57.4697L24.9727 60.6992L28.1998 66.2927L33.7893 63.0632L30.5621 57.4697Z" fill="#FADE99"/>
<path d="M28.149 76.1379L24.9219 81.7314L30.5113 84.9609L33.7385 79.3675L28.149 76.1379Z" fill="#FADE99"/>
<path d="M41.9543 93.5508H35.5V100.01H41.9543V93.5508Z" fill="#FADE99"/>
<path d="M56.1285 101.614L50.5391 104.844L53.7662 110.437L59.3557 107.208L56.1285 101.614Z" fill="#FADE99"/>
<path d="M72.4186 101.67L69.1914 107.264L74.7809 110.493L78.008 104.9L72.4186 101.67Z" fill="#FADE99"/>
<path d="M93.0481 93.4443H86.5938V99.9033H93.0481V93.4443Z" fill="#FADE99"/>
<path d="M100.242 76.027L94.6523 79.2559L97.8789 84.85L103.469 81.6211L100.242 76.027Z" fill="#FADE99"/>
<path d="M97.9264 57.3674L94.6992 62.9609L100.289 66.1904L103.516 60.5969L97.9264 57.3674Z" fill="#FADE99"/>
<path d="M92.9426 42.3105H86.4883V48.7696H92.9426V42.3105Z" fill="#FADE99"/>
<path d="M74.6715 31.8861L69.082 35.1162L72.3098 40.7097L77.8993 37.4796L74.6715 31.8861Z" fill="#FADE99"/>
<path d="M100.579 71.1601C100.579 91.2907 84.3354 107.546 64.2193 107.546C44.1033 107.546 27.8599 91.2907 27.8599 71.1601C27.7523 51.0296 44.1033 34.7744 64.2193 34.7744C84.2278 34.7744 100.579 51.0296 100.579 71.1601Z" fill="#5E2128"/>
<path d="M97.4605 71.1596C97.4605 89.5678 82.5079 104.531 64.1131 104.531C45.7182 104.531 30.7656 89.5678 30.7656 71.1596C30.7656 52.7514 45.7182 37.7881 64.1131 37.7881C82.5079 37.7881 97.4605 52.7514 97.4605 71.1596Z" fill="#E02C26"/>
<path d="M95.956 71.1597C95.956 88.7067 81.7564 102.916 64.2221 102.916C46.6878 102.916 32.4883 88.7067 32.4883 71.1597C32.4883 53.6128 46.6878 39.4029 64.2221 39.4029C81.7564 39.2953 95.956 53.6128 95.956 71.1597Z" fill="#1FA3AB"/>
<path d="M92.8361 71.1593C92.8361 86.9839 80.0349 99.7943 64.2218 99.7943C48.4087 99.7943 35.5 86.9839 35.5 71.1593C35.5 55.3348 48.3011 42.5244 64.1142 42.5244C79.9274 42.5244 92.8361 55.3348 92.8361 71.1593Z" fill="#FADE99"/>
<path d="M89.6101 71.1601C89.6101 85.2622 78.2074 96.5655 64.223 96.5655C50.131 96.5655 38.8359 85.1546 38.8359 71.1601C38.8359 57.0579 50.2386 45.7547 64.223 45.7547C78.2074 45.647 89.6101 57.0579 89.6101 71.1601Z" fill="#5E2128"/>
<path d="M62.4982 63.6232H47.976L44.2109 59.8555H58.7332L62.4982 63.6232Z" fill="#E02C26"/>
<path d="M60.3498 67.3918H45.9351L42.0625 63.624H56.5848L60.3498 67.3918Z" fill="#FADE99"/>
<path d="M58.1993 71.1584H43.7846L40.0195 67.3906H54.4342L58.1993 71.1584Z" fill="#FA9652"/>
<path d="M62.4982 78.6943H47.976L44.2109 82.4621H58.7332L62.4982 78.6943Z" fill="#E02C26"/>
<path d="M60.3498 74.9268H45.9351L42.0625 78.6945H56.5848L60.3498 74.9268Z" fill="#FADE99"/>
<path d="M58.1993 71.1582H43.7846L40.0195 74.926H54.4342L58.1993 71.1582Z" fill="#FA9652"/>
<path d="M65.8359 63.6232H80.3582L84.1232 59.8555H69.601L65.8359 63.6232Z" fill="#E02C26"/>
<path d="M67.9883 67.3918H82.403L86.2756 63.624H71.7533L67.9883 67.3918Z" fill="#FADE99"/>
<path d="M70.1367 71.1584H84.5514L88.3164 67.3906H73.9018L70.1367 71.1584Z" fill="#FA9652"/>
<path d="M65.8359 78.6943H80.3582L84.1232 82.4621H69.601L65.8359 78.6943Z" fill="#E02C26"/>
<path d="M67.9883 74.9268H82.403L86.2756 78.6945H71.7533L67.9883 74.9268Z" fill="#FADE99"/>
<path d="M70.1367 71.1582H84.5514L88.3164 74.926H73.9018L70.1367 71.1582Z" fill="#FA9652"/>
<path d="M64.2217 67.3079L60.418 71.1133L64.2207 74.9198L68.0244 71.1144L64.2217 67.3079Z" fill="#5E2128"/>
<path d="M49.1587 67.2956L45.3555 71.1016L49.1587 74.9075L52.9619 71.1016L49.1587 67.2956Z" fill="#1F0C0D"/>
<path d="M79.2871 67.3204L75.4844 71.127L79.2881 74.9324L83.0908 71.1259L79.2871 67.3204Z" fill="#1F0C0D"/>
<path d="M56.5893 72.7734V87.3062L52.8242 91.074V76.5412L56.5893 72.7734Z" fill="#E02C26"/>
<path d="M60.351 74.9277V89.4605L56.5859 93.2282V78.6955L60.351 74.9277Z" fill="#FADE99"/>
<path d="M64.2281 77.0801V91.6128L60.3555 95.3806V80.8478L64.2281 77.0801Z" fill="#FA9652"/>
<path d="M71.7539 72.7734V87.3062L75.5189 91.074V76.5412L71.7539 72.7734Z" fill="#E02C26"/>
<path d="M67.9922 74.9277V89.4605L71.7572 93.2282V78.6955L67.9922 74.9277Z" fill="#FADE99"/>
<path d="M64.2266 77.0801V91.6128L67.9916 95.3806V80.8478L64.2266 77.0801Z" fill="#FA9652"/>
<path d="M56.5893 69.438V55.0129L52.8242 51.2451V65.6702L56.5893 69.438Z" fill="#E02C26"/>
<path d="M60.351 67.3924V52.8819L56.5859 49.0918V63.6024L60.351 67.3924Z" fill="#FADE99"/>
<path d="M64.2281 65.1313V50.7062L60.3555 46.9385V61.3636L64.2281 65.1313Z" fill="#FA9652"/>
<path d="M71.7539 69.438V55.0129L75.5189 51.2451V65.6702L71.7539 69.438Z" fill="#E02C26"/>
<path d="M67.9922 67.3924V52.8819L71.7572 49.0918V63.6024L67.9922 67.3924Z" fill="#FADE99"/>
<path d="M64.2266 65.1313V50.7062L67.9916 46.9385V61.3636L64.2266 65.1313Z" fill="#FA9652"/>
<path d="M64.2295 67.3088L60.4258 71.1143L64.2285 74.9208L68.0322 71.1153L64.2295 67.3088Z" fill="#1FA3AB"/>
<path d="M64.2173 82.3854L60.4141 86.1914L64.2173 89.9974L68.0205 86.1914L64.2173 82.3854Z" fill="#1F0C0D"/>
<path d="M64.2402 52.2316L60.4375 56.0381L64.2413 59.8435L68.0439 56.037L64.2402 52.2316Z" fill="#1F0C0D"/>
<path d="M22.4062 103.366C22.4062 110.27 28.0027 115.867 34.9062 115.869C41.8098 115.87 47.4062 110.275 47.4062 103.371C47.4062 96.4675 41.8098 90.87 34.9062 90.8686C28.0027 90.8672 22.4062 96.4625 22.4062 103.366Z" fill="#1FA3AB"/>
<path fill-rule="evenodd" clip-rule="evenodd" d="M34.9062 88.8681C42.9144 88.8698 49.4062 95.363 49.4062 103.371C49.4062 111.379 42.9144 117.87 34.9062 117.868C26.8981 117.866 20.4062 111.373 20.4062 103.365C20.4062 95.357 26.8981 88.8665 34.9062 88.8681ZM44.9757 103.37C44.9757 97.809 40.4675 93.2998 34.9062 93.2987C29.345 93.2976 24.8368 97.8049 24.8368 103.366C24.8368 108.927 29.345 113.436 34.9062 113.438C40.4675 113.439 44.9757 108.931 44.9757 103.37Z" fill="black"/>
<path d="M80.4062 103.366C80.4062 110.27 86.0027 115.867 92.9062 115.869C99.8098 115.87 105.406 110.275 105.406 103.371C105.406 96.4675 99.8098 90.87 92.9062 90.8686C86.0027 90.8672 80.4062 96.4625 80.4062 103.366Z" fill="#1FA3AB"/>
<path fill-rule="evenodd" clip-rule="evenodd" d="M92.9062 88.8681C100.914 88.8698 107.406 95.363 107.406 103.371C107.406 111.379 100.914 117.87 92.9062 117.868C84.8981 117.866 78.4062 111.373 78.4062 103.365C78.4062 95.357 84.8981 88.8665 92.9062 88.8681ZM102.976 103.37C102.976 97.809 98.4675 93.2998 92.9062 93.2987C87.345 93.2976 82.8368 97.8049 82.8368 103.366C82.8368 108.927 87.345 113.436 92.9062 113.438C98.4675 113.439 102.976 108.931 102.976 103.37Z" fill="black"/>
</svg>
