<svg width="129" height="129" viewBox="0 0 129 129" fill="none" xmlns="http://www.w3.org/2000/svg">
<path d="M32.3438 47.1389C32.3438 64.5359 46.4468 78.6384 63.8437 78.6378C81.2407 78.6372 95.3437 64.5337 95.3437 47.1367C95.3437 29.7397 81.2407 15.6372 63.8438 15.6378C46.4468 15.6384 32.3438 29.7419 32.3438 47.1389Z" fill="#0B4071"/>
<path fill-rule="evenodd" clip-rule="evenodd" d="M64.3438 12.6379C83.1214 12.6373 98.3437 27.859 98.3437 46.6367C98.3437 65.4144 83.1214 80.6373 64.3437 80.6379C45.5661 80.6386 30.3437 65.4168 30.3437 46.6391C30.3437 27.8614 45.5661 12.6386 64.3438 12.6379ZM93.1535 46.6369C93.1535 30.7257 80.2549 17.8276 64.3437 17.8282C48.4326 17.8287 35.534 30.7277 35.534 46.6389C35.534 62.5501 48.4326 75.4482 64.3437 75.4476C80.2549 75.4471 93.1535 62.5481 93.1535 46.6369Z" fill="black"/>
<path d="M63.3438 29.6367C85.9874 29.6367 104.344 48.005 104.344 70.6367C104.344 93.2684 85.9874 111.637 63.3437 111.637C40.7001 111.637 22.3437 93.2684 22.3437 70.6367C22.3437 48.005 40.7001 29.6367 63.3438 29.6367Z" fill="url(#paint0_radial_2081_40)"/>
<path d="M22.3437 103.132C22.3437 110.035 27.9402 115.633 34.8437 115.634C41.7473 115.636 47.3437 110.04 47.3437 103.137C47.3437 96.2332 41.7473 90.6356 34.8438 90.6342C27.9402 90.6328 22.3437 96.2282 22.3437 103.132Z" fill="#724633"/>
<path fill-rule="evenodd" clip-rule="evenodd" d="M34.8438 88.6338C42.8519 88.6354 49.3437 95.1286 49.3437 103.137C49.3437 111.145 42.8519 117.635 34.8437 117.634C26.8356 117.632 20.3437 111.139 20.3437 103.131C20.3437 95.1227 26.8356 88.6321 34.8438 88.6338ZM44.9132 103.136C44.9132 97.5746 40.405 93.0654 34.8437 93.0643C29.2825 93.0632 24.7743 97.5705 24.7743 103.132C24.7743 108.693 29.2825 113.202 34.8437 113.203C40.405 113.204 44.9132 108.697 44.9132 103.136Z" fill="black"/>
<path d="M80.3437 103.132C80.3437 110.035 85.9402 115.633 92.8437 115.634C99.7473 115.636 105.344 110.04 105.344 103.137C105.344 96.2332 99.7473 90.6356 92.8438 90.6342C85.9402 90.6328 80.3437 96.2282 80.3437 103.132Z" fill="#724633"/>
<path fill-rule="evenodd" clip-rule="evenodd" d="M92.8438 88.6338C100.852 88.6354 107.344 95.1286 107.344 103.137C107.344 111.145 100.852 117.635 92.8437 117.634C84.8356 117.632 78.3437 111.139 78.3437 103.131C78.3437 95.1227 84.8356 88.6321 92.8438 88.6338ZM102.913 103.136C102.913 97.5746 98.405 93.0654 92.8437 93.0643C87.2825 93.0632 82.7743 97.5705 82.7743 103.132C82.7743 108.693 87.2825 113.202 92.8437 113.203C98.405 113.204 102.913 108.697 102.913 103.136Z" fill="black"/>
<path d="M66.4198 16.6296C66.4198 17.7767 65.4262 18.7065 64.2006 18.7065C62.975 18.7065 61.9814 17.7767 61.9814 16.6296C61.9814 15.4826 62.975 14.5527 64.2006 14.5527C65.4262 14.5527 66.4198 15.4826 66.4198 16.6296Z" fill="#D9D9D9"/>
<path d="M101.67 38.0747C100.609 38.6482 99.2514 38.3079 98.6386 37.3145C98.0258 36.3211 98.3894 35.0509 99.4509 34.4774C100.512 33.9039 101.869 34.2442 102.482 35.2376C103.095 36.231 102.731 37.5012 101.67 38.0747Z" fill="#D9D9D9"/>
<path d="M99.4509 77.3672C98.3895 76.7936 98.0258 75.5234 98.6386 74.5301C99.2514 73.5367 100.609 73.1963 101.67 73.7699C102.731 74.3434 103.095 75.6136 102.482 76.607C101.87 77.6003 100.512 77.9407 99.4509 77.3672Z" fill="#D9D9D9"/>
<path d="M61.9815 95.2151C61.9815 94.0681 62.975 93.1382 64.2007 93.1382C65.4263 93.1382 66.4198 94.0681 66.4198 95.2151C66.4198 96.3622 65.4263 97.292 64.2007 97.292C62.975 97.292 61.9815 96.3622 61.9815 95.2151Z" fill="#D9D9D9"/>
<path d="M26.7313 73.7701C27.7927 73.1966 29.1499 73.5369 29.7627 74.5303C30.3755 75.5237 30.0119 76.7939 28.9504 77.3674C27.889 77.9409 26.5318 77.6006 25.919 76.6072C25.3062 75.6138 25.6698 74.3436 26.7313 73.7701Z" fill="#D9D9D9"/>
<path d="M28.9504 34.4776C30.0118 35.0511 30.3755 36.3214 29.7627 37.3147C29.1499 38.3081 27.7927 38.6484 26.7312 38.0749C25.6698 37.5014 25.3062 36.2312 25.919 35.2378C26.5318 34.2445 27.889 33.9041 28.9504 34.4776Z" fill="#D9D9D9"/>
<path d="M75.1002 17.9199C74.8454 19.0419 73.6669 19.7581 72.4681 19.5196C71.2693 19.2812 70.504 18.1783 70.7588 17.0563C71.0136 15.9343 72.1921 15.2181 73.3909 15.4566C74.5897 15.6951 75.355 16.798 75.1002 17.9199Z" fill="#D9D9D9"/>
<path d="M104.816 45.7555C103.651 46.11 102.399 45.5129 102.02 44.422C101.641 43.3311 102.279 42.1595 103.445 41.805C104.61 41.4505 105.862 42.0475 106.241 43.1385C106.62 44.2294 105.982 45.401 104.816 45.7555Z" fill="#D9D9D9"/>
<path d="M93.916 83.7577C93.0052 82.9902 92.9317 81.6769 93.7518 80.8245C94.5719 79.9721 95.9751 79.9033 96.8859 80.6708C97.7967 81.4383 97.8702 82.7515 97.0501 83.604C96.23 84.4564 94.8268 84.5252 93.916 83.7577Z" fill="#D9D9D9"/>
<path d="M53.3011 93.9249C53.5559 92.8029 54.7344 92.0867 55.9332 92.3251C57.132 92.5636 57.8973 93.6665 57.6425 94.7885C57.3877 95.9105 56.2092 96.6267 55.0104 96.3882C53.8116 96.1497 53.0463 95.0468 53.3011 93.9249Z" fill="#D9D9D9"/>
<path d="M23.5851 66.0893C24.7507 65.7348 26.0027 66.3318 26.3814 67.4227C26.7602 68.5136 26.1223 69.6853 24.9566 70.0398C23.791 70.3942 22.539 69.7972 22.1603 68.7063C21.7816 67.6154 22.4195 66.4437 23.5851 66.0893Z" fill="#D9D9D9"/>
<path d="M34.4853 28.0871C35.3961 28.8546 35.4696 30.1679 34.6495 31.0203C33.8294 31.8727 32.4262 31.9415 31.5154 31.174C30.6046 30.4065 30.5311 29.0932 31.3512 28.2408C32.1713 27.3884 33.5744 27.3196 34.4853 28.0871Z" fill="#D9D9D9"/>
<path d="M83.3045 20.8715C82.806 21.9194 81.4942 22.3906 80.3746 21.9241C79.2549 21.4575 78.7514 20.2299 79.2499 19.182C79.7484 18.1341 81.0602 17.6629 82.1798 18.1294C83.2995 18.5959 83.803 19.8236 83.3045 20.8715Z" fill="#D9D9D9"/>
<path d="M106.187 53.8808C104.968 54.0007 103.876 53.1731 103.748 52.0324C103.62 50.8916 104.504 49.8696 105.723 49.7497C106.942 49.6298 108.034 50.4574 108.162 51.5982C108.291 52.7389 107.406 53.7609 106.187 53.8808Z" fill="#D9D9D9"/>
<path d="M87.0835 88.932C86.3631 88.004 86.5829 86.7052 87.5744 86.0309C88.566 85.3567 89.9538 85.5624 90.6742 86.4904C91.3946 87.4184 91.1748 88.7172 90.1832 89.3914C89.1917 90.0657 87.8039 89.8599 87.0835 88.932Z" fill="#D9D9D9"/>
<path d="M45.0968 90.9733C45.5953 89.9254 46.9071 89.4541 48.0267 89.9207C49.1464 90.3872 49.6499 91.6149 49.1514 92.6628C48.6529 93.7107 47.3411 94.1819 46.2215 93.7154C45.1018 93.2488 44.5983 92.0212 45.0968 90.9733Z" fill="#D9D9D9"/>
<path d="M22.214 57.964C23.4329 57.8441 24.5248 58.6717 24.6529 59.8124C24.7811 60.9532 23.8968 61.9752 22.6779 62.0951C21.459 62.2149 20.367 61.3874 20.2389 60.2466C20.1108 59.1059 20.995 58.0839 22.214 57.964Z" fill="#D9D9D9"/>
<path d="M41.3184 22.9128C42.0388 23.8408 41.819 25.1396 40.8275 25.8138C39.8359 26.4881 38.4481 26.2823 37.7277 25.3544C37.0073 24.4264 37.2271 23.1276 38.2187 22.4533C39.2102 21.7791 40.598 21.9848 41.3184 22.9128Z" fill="#D9D9D9"/>
<path d="M90.6737 25.3548C89.9533 26.2828 88.5655 26.4885 87.574 25.8143C86.5824 25.1401 86.3626 23.8413 87.083 22.9133C87.8034 21.9853 89.1912 21.7796 90.1828 22.4538C91.1743 23.128 91.3941 24.4269 90.6737 25.3548Z" fill="#D9D9D9"/>
<path d="M105.723 62.0953C104.504 61.9754 103.62 60.9535 103.748 59.8127C103.876 58.672 104.968 57.8444 106.187 57.9643C107.406 58.0842 108.29 59.1061 108.162 60.2469C108.034 61.3877 106.942 62.2152 105.723 62.0953Z" fill="#D9D9D9"/>
<path d="M79.2501 92.6632C78.7516 91.6153 79.2551 90.3876 80.3748 89.9211C81.4945 89.4545 82.8062 89.9258 83.3047 90.9737C83.8032 92.0215 83.2997 93.2492 82.18 93.7158C81.0604 94.1823 79.7486 93.7111 79.2501 92.6632Z" fill="#D9D9D9"/>
<path d="M37.7276 86.4899C38.448 85.562 39.8358 85.3562 40.8273 86.0305C41.8189 86.7047 42.0387 88.0035 41.3183 88.9315C40.5979 89.8595 39.2101 90.0652 38.2185 89.391C37.227 88.7167 37.0072 87.4179 37.7276 86.4899Z" fill="#D9D9D9"/>
<path d="M22.6781 49.7494C23.897 49.8693 24.7813 50.8913 24.6532 52.0321C24.5251 53.1728 23.4331 54.0004 22.2142 53.8805C20.9953 53.7606 20.111 52.7386 20.2391 51.5979C20.3673 50.4571 21.4592 49.6295 22.6781 49.7494Z" fill="#D9D9D9"/>
<path d="M49.1512 19.1816C49.6497 20.2295 49.1462 21.4572 48.0265 21.9237C46.9068 22.3903 45.5951 21.919 45.0965 20.8711C44.598 19.8232 45.1016 18.5956 46.2212 18.129C47.3409 17.6625 48.6527 18.1337 49.1512 19.1816Z" fill="#D9D9D9"/>
<path d="M96.8861 31.1741C95.9753 31.9416 94.5721 31.8727 93.752 31.0203C92.9319 30.1679 93.0054 28.8547 93.9163 28.0872C94.8271 27.3196 96.2302 27.3885 97.0503 28.2409C97.8704 29.0933 97.7969 30.4065 96.8861 31.1741Z" fill="#D9D9D9"/>
<path d="M103.444 70.0396C102.279 69.6851 101.641 68.5134 102.02 67.4225C102.398 66.3316 103.65 65.7346 104.816 66.0891C105.982 66.4435 106.62 67.6152 106.241 68.7061C105.862 69.797 104.61 70.394 103.444 70.0396Z" fill="#D9D9D9"/>
<path d="M70.759 94.7882C70.5042 93.6662 71.2695 92.5634 72.4683 92.3249C73.6672 92.0864 74.8456 92.8026 75.1004 93.9246C75.3552 95.0466 74.5899 96.1494 73.3911 96.3879C72.1923 96.6264 71.0139 95.9102 70.759 94.7882Z" fill="#D9D9D9"/>
<path d="M31.5152 80.6707C32.426 79.9032 33.8292 79.972 34.6493 80.8244C35.4694 81.6769 35.3958 82.9901 34.485 83.7576C33.5742 84.5251 32.171 84.4563 31.3509 83.6039C30.5308 82.7515 30.6044 81.4382 31.5152 80.6707Z" fill="#D9D9D9"/>
<path d="M24.9568 41.8052C26.1224 42.1597 26.7603 43.3314 26.3816 44.4223C26.0029 45.5132 24.7509 46.1102 23.5853 45.7557C22.4196 45.4013 21.7817 44.2296 22.1605 43.1387C22.5392 42.0478 23.7912 41.4507 24.9568 41.8052Z" fill="#D9D9D9"/>
<path d="M57.6423 17.0566C57.8971 18.1786 57.1318 19.2814 55.933 19.5199C54.7341 19.7584 53.5557 19.0422 53.3009 17.9202C53.0461 16.7982 53.8113 15.6954 55.0102 15.4569C56.209 15.2184 57.3874 15.9346 57.6423 17.0566Z" fill="#D9D9D9"/>
<path d="M68.6929 94.9843C91.3427 92.8082 107.645 73.6676 105.105 52.2327C102.565 30.7978 82.1452 15.1855 59.4954 17.3617C36.8455 19.5378 20.5432 38.6784 23.083 60.1133C25.6228 81.5482 46.0431 97.1605 68.6929 94.9843Z" fill="#FFC462"/>
<path d="M68.5361 94.0713C90.4396 91.9669 106.205 73.4597 103.749 52.7343C101.294 32.0089 81.5465 16.9137 59.643 19.0181C37.7395 21.1226 21.974 39.6298 24.4298 60.3552C26.8856 81.0805 46.6326 96.1758 68.5361 94.0713Z" fill="#F1A425"/>
<path d="M41.5606 56.1939C41.5532 68.4381 52.0452 78.4718 64.9994 78.6117C77.9537 78.7515 88.4605 68.9308 88.4679 56.6866C88.4753 44.4424 77.9832 34.4087 65.029 34.2689C52.0822 34.1358 41.5679 43.9497 41.5606 56.1939Z" fill="#D9301C"/>
<path d="M44.4668 56.224C44.4603 66.9509 53.6522 75.7413 65.0012 75.8638C76.3502 75.9863 85.5551 67.3826 85.5616 56.6556C85.5681 45.9287 76.3761 37.1383 65.0271 37.0158C53.6846 36.8992 44.4733 45.497 44.4668 56.224Z" fill="#24994D"/>
<path d="M67.0559 73.3922C77.1037 72.4268 84.3356 63.9357 83.2089 54.4266C82.0822 44.9176 73.0235 37.9916 62.9757 38.957C52.9279 39.9224 45.696 48.4136 46.8227 57.9226C47.9494 67.4316 57.0082 74.3576 67.0559 73.3922Z" fill="#F5AA66"/>
<path d="M55.646 58.6534C58.545 66.1729 64.3873 71.0988 68.698 69.6517C73.0088 68.2045 74.1558 60.9348 71.2568 53.4097C68.3577 45.8903 62.5155 40.9643 58.2047 42.4115C53.8939 43.8586 52.7469 51.1283 55.646 58.6534Z" fill="#D47940"/>
<path d="M79.6263 55.2662C79.4498 66.9568 72.8576 71.775 64.6458 71.6842C56.4402 71.599 48.222 64.3406 48.2283 54.7839C48.2283 51.2313 49.1547 47.9454 50.7303 45.2157C48.2157 48.1497 46.7031 51.8896 46.7031 55.9813C46.6968 65.5381 54.8898 73.3696 64.9987 73.4775C75.1076 73.5853 83.3132 65.924 83.3195 56.3672C83.3258 48.3257 77.5213 41.527 69.6624 39.501C74.5782 42.3725 79.7271 48.3938 79.6263 55.2662Z" fill="#D47940"/>
<path d="M59.7813 19.7681C61.5207 19.601 63.2461 19.5457 64.9494 19.5961L64.9438 25.8646C63.472 25.8153 61.9802 25.86 60.4759 26.0046C60.1674 26.0342 59.8604 26.0679 59.5549 26.1054L58.446 19.9182C58.8884 19.8612 59.3335 19.8111 59.7813 19.7681Z" fill="#E62425"/>
<path d="M54.1903 27.2077L52.0221 21.2806C49.9122 21.9119 47.889 22.7082 45.9671 23.6523L49.1459 29.1386C50.7488 28.3683 52.4343 27.72 54.1903 27.2077Z" fill="#E62425"/>
<path d="M44.4611 31.8971L40.3956 27.0002C38.6537 28.26 37.0342 29.6565 35.5531 31.1711L40.3917 35.3328C41.6389 34.0839 42.9997 32.9336 44.4611 31.8971Z" fill="#E62425"/>
<path d="M36.9617 39.4199L31.5169 36.0846C30.3387 37.8057 29.3126 39.6246 28.4541 41.5232L34.3513 43.9386C35.0868 42.36 35.9612 40.8487 36.9617 39.4199Z" fill="#E62425"/>
<path d="M32.5746 48.8618L26.4084 47.3953C25.9164 49.3609 25.5947 51.3836 25.457 53.4472L31.7221 53.9281C31.856 52.1996 32.1441 50.5063 32.5746 48.8618Z" fill="#E62425"/>
<path d="M31.7848 59.1098L25.5925 59.5852C25.603 59.6803 25.6139 59.7754 25.6251 59.8707C25.8563 61.8217 26.2454 63.7213 26.779 65.5593L32.7378 64.1421C32.3265 62.6781 32.0243 61.1682 31.8408 59.6196C31.8206 59.4495 31.802 59.2796 31.7848 59.1098Z" fill="#E62425"/>
<path d="M34.5808 69.0101L29.0016 71.2953C29.9076 73.1413 30.9683 74.9008 32.1662 76.5604L37.2203 73.4645C36.2187 72.0601 35.334 70.5716 34.5808 69.0101Z" fill="#E62425"/>
<path d="M40.642 77.4946L36.2236 81.2949C37.6998 82.7549 39.2984 84.0988 41.0014 85.3128L44.6659 80.8989C43.2304 79.8705 41.884 78.7318 40.642 77.4946Z" fill="#E62425"/>
<path d="M49.2816 83.6699L46.4427 88.5696C48.3251 89.5019 50.2926 90.2923 52.3275 90.9273L54.2543 85.6603C52.5343 85.1253 50.8717 84.458 49.2816 83.6699Z" fill="#E62425"/>
<path d="M59.5694 86.8561L58.5852 92.3479C60.6651 92.6498 62.7917 92.7939 64.9488 92.768L64.9438 87.1923C63.1221 87.2214 61.3261 87.1059 59.5694 86.8561Z" fill="#E62425"/>
<path d="M70.3556 86.6795L71.3338 92.1943C73.4512 91.8365 75.5004 91.3184 77.4687 90.6549L75.5174 85.3497C73.8623 85.9202 72.1381 86.3677 70.3556 86.6795Z" fill="#E62425"/>
<path d="M80.4096 83.2037L83.2711 88.1621C85.1152 87.1856 86.8597 86.0706 88.4907 84.8333L84.7711 80.3684C83.4098 81.4205 81.9521 82.3702 80.4096 83.2037Z" fill="#E62425"/>
<path d="M88.6021 76.8669L93.0727 80.725C94.4588 79.2587 95.7177 77.6867 96.8357 76.0252L91.7131 72.8987C90.791 74.3001 89.7502 75.6273 88.6021 76.8669Z" fill="#E62425"/>
<path d="M94.1174 68.4724L99.7519 70.7907C100.556 69.0065 101.213 67.1522 101.708 65.2428L95.7 63.8239C95.3032 65.4225 94.7721 66.9761 94.1174 68.4724Z" fill="#E62425"/>
<path d="M96.4739 58.9483L102.693 59.4355C102.851 57.5252 102.85 55.5784 102.681 53.6083L96.4153 54.0991C96.5714 55.7377 96.588 57.3576 96.4739 58.9483Z" fill="#E62425"/>
<path d="M95.5435 49.2558L101.689 47.8044C101.194 45.8866 100.543 44.0323 99.7498 42.2529L93.8973 44.6609C94.566 46.1336 95.1188 47.6683 95.5435 49.2558Z" fill="#E62425"/>
<path d="M91.4616 40.2975L96.8628 37.001C95.7516 35.3241 94.5039 33.7406 93.1361 32.263L88.3557 36.3885C89.4934 37.6079 90.5331 38.9143 91.4616 40.2975Z" fill="#E62425"/>
<path d="M84.5633 32.9238L88.5937 28.0858C86.9657 26.812 85.2302 25.6619 83.4048 24.649L80.2662 30.0876C81.7766 30.9246 83.2137 31.8736 84.5633 32.9238Z" fill="#E62425"/>
<path d="M75.4441 27.8923L77.6076 22.0102C75.6148 21.2872 73.5496 20.7155 71.4296 20.3085L70.3356 26.4757C72.0882 26.8172 73.7957 27.293 75.4441 27.8923Z" fill="#E62425"/>
<path d="M59.5215 26.1095L58.4238 19.921C56.2245 20.2058 54.0933 20.6621 52.0438 21.2741L54.2227 27.1982C55.9263 26.7031 57.6962 26.3359 59.5215 26.1095Z" fill="#18A24F"/>
<path d="M49.1165 29.1528L45.9477 23.6619C43.9928 24.6235 42.1428 25.7381 40.4134 26.9874L44.4878 31.8782C45.9364 30.853 47.4835 29.9396 49.1165 29.1528Z" fill="#18A24F"/>
<path d="M40.3694 35.3554L35.5384 31.1863C34.0584 32.7015 32.7167 34.3346 31.5292 36.067L36.9802 39.3939C37.9871 37.9592 39.1212 36.6079 40.3694 35.3554Z" fill="#18A24F"/>
<path d="M34.3384 43.967L28.4457 41.5424C27.6004 43.415 26.9181 45.3649 26.4138 47.3747L32.5828 48.8316C33.0239 47.1542 33.6132 45.5277 34.3384 43.967Z" fill="#18A24F"/>
<path d="M31.72 53.959L25.4559 53.4683C25.3239 55.4668 25.3645 57.5036 25.5904 59.5637L31.782 59.0787C31.6089 57.3475 31.5919 55.6368 31.72 53.959Z" fill="#18A24F"/>
<path d="M32.7467 64.1722L26.7854 65.5801C27.3598 67.554 28.1009 69.4566 28.9921 71.2753L34.5673 68.9814C33.8284 67.4452 33.2168 65.8385 32.7467 64.1722Z" fill="#18A24F"/>
<path d="M37.2393 73.4905L32.1797 76.5786C33.3888 78.2515 34.7374 79.8227 36.2077 81.2787L40.6193 77.4715C39.3838 76.2383 38.2521 74.9074 37.2393 73.4905Z" fill="#18A24F"/>
<path d="M44.693 80.918L41.0207 85.3262C42.7229 86.5382 44.5293 87.6204 46.4219 88.5591L49.252 83.655C47.6538 82.8608 46.129 81.9446 44.693 80.918Z" fill="#18A24F"/>
<path d="M54.2868 85.6702L52.3506 90.9343C54.3609 91.5603 56.4369 92.0347 58.5616 92.3444L59.5361 86.8512C57.7402 86.5941 55.9856 86.1967 54.2868 85.6702Z" fill="#18A24F"/>
<path d="M64.9783 87.1916L64.9733 92.7676C66.1109 92.7533 67.257 92.6916 68.4092 92.5809C69.3892 92.4868 70.3566 92.3587 71.3101 92.1982L70.3221 86.6854C69.4638 86.8346 68.5921 86.9524 67.7081 87.0373C66.7929 87.1252 65.8825 87.1763 64.9783 87.1916Z" fill="#18A24F"/>
<path d="M75.5501 85.3384L77.4921 90.647C79.5 89.9687 81.4237 89.1389 83.2498 88.1734L80.3798 83.2199C78.8493 84.0448 77.2356 84.7554 75.5501 85.3384Z" fill="#18A24F"/>
<path d="M84.7984 80.3475L88.5104 84.8185C90.1444 83.5772 91.6644 82.2131 93.0563 80.7425L88.5792 76.8917C87.4234 78.1369 86.1592 79.2934 84.7984 80.3475Z" fill="#18A24F"/>
<path d="M91.732 72.8703L96.8495 76.0051C97.9569 74.3569 98.9256 72.6209 99.7423 70.8126L94.1041 68.5033C93.4372 70.0227 92.6428 71.4827 91.732 72.8703Z" fill="#18A24F"/>
<path d="M95.7084 63.791L101.715 65.2194C102.199 63.3475 102.529 61.4227 102.692 59.4594L96.4718 58.9819C96.3525 60.62 96.0947 62.2269 95.7084 63.791Z" fill="#18A24F"/>
<path d="M96.4123 54.0653L102.679 53.5842C102.647 53.2164 102.609 52.8477 102.565 52.4783C102.377 50.8923 102.085 49.3402 101.696 47.8276L95.5526 49.2887C95.91 50.6307 96.1759 52.0104 96.3432 53.4223C96.3686 53.6369 96.3917 53.8512 96.4123 54.0653Z" fill="#18A24F"/>
<path d="M93.8835 44.6297L99.7403 42.2308C98.9283 40.4119 97.9685 38.6713 96.8764 37.021L91.4811 40.326C92.3942 41.6894 93.1992 43.1272 93.8835 44.6297Z" fill="#18A24F"/>
<path d="M88.3324 36.3631L93.12 32.2453C91.7348 30.7507 90.2268 29.3648 88.613 28.1005L84.591 32.945C85.9289 33.9884 87.1807 35.1313 88.3324 36.3631Z" fill="#18A24F"/>
<path d="M80.2361 30.0707L83.3842 24.6373C81.5508 23.6214 79.6269 22.7439 77.6302 22.0182L75.477 27.9041C77.1276 28.5061 78.7188 29.2319 80.2361 30.0707Z" fill="#18A24F"/>
<path d="M70.3021 26.469L71.4069 20.304C69.31 19.9027 67.1596 19.6626 64.9727 19.5967L64.9783 25.8657C66.7877 25.9281 68.5669 26.1327 70.3021 26.469Z" fill="#18A24F"/>
<defs>
<radialGradient id="paint0_radial_2081_40" cx="0" cy="0" r="1" gradientUnits="userSpaceOnUse" gradientTransform="translate(63.3437 70.6367) rotate(-180) scale(41)">
<stop stop-color="#F57053"/>
<stop offset="1" stop-color="#FEAA97"/>
</radialGradient>
</defs>
</svg>
