<svg width="128" height="129" viewBox="0 0 128 129" fill="none" xmlns="http://www.w3.org/2000/svg">
<path d="M32 46.7864C32 64.1833 46.103 78.2859 63.5 78.2853C80.897 78.2847 95 64.1811 95 46.7842C95 29.3872 80.897 15.2847 63.5 15.2853C46.103 15.2859 32 29.3894 32 46.7864Z" fill="#47C3B3"/>
<path fill-rule="evenodd" clip-rule="evenodd" d="M64 12.2854C82.7777 12.2847 98 27.5065 98 46.2842C98 65.0619 82.7777 80.2847 64 80.2854C45.2223 80.286 30 65.0642 30 46.2866C30 27.5089 45.2223 12.286 64 12.2854ZM92.8097 46.2844C92.8097 30.3732 79.9112 17.4751 64 17.4756C48.0888 17.4762 35.1903 30.3752 35.1903 46.2864C35.1903 62.1976 48.0888 75.0957 64 75.0951C79.9112 75.0945 92.8097 62.1955 92.8097 46.2844Z" fill="black"/>
<path d="M22 70.2842C22 47.6405 40.3683 29.2842 63 29.2842C85.6317 29.2842 104 47.6405 104 70.2842C104 92.9279 85.6317 111.284 63 111.284C40.3683 111.284 22 92.9279 22 70.2842Z" fill="#00343F"/>
<mask id="mask0" mask-type="alpha" maskUnits="userSpaceOnUse" x="22" y="29" width="82" height="83">
<path d="M22 70.2842C22 47.6405 40.3683 29.2842 63 29.2842C85.6317 29.2842 104 47.6405 104 70.2842C104 92.9279 85.6317 111.284 63 111.284C40.3683 111.284 22 92.9279 22 70.2842Z" fill="#00343F"/>
</mask>
<g mask="url(#mask0)">
<path d="M37.608 34.073C42.2906 32.6949 42.9254 38.2211 42.9572 38.4975C42.9858 38.1442 43.2049 33.4297 48.3953 33.4629C53.5858 33.4962 54.135 37.0726 54.1667 37.3489C54.1953 36.9956 54.9636 32.8479 59.0175 33.2218C63.1477 33.6569 64.0302 37.125 64.0302 37.125C64.0302 37.125 65.1255 31.6098 69.7001 32.9037C74.062 34.152 74.4936 38.5118 74.5412 38.9263C74.7666 38.4804 78.0048 30.5492 84.2492 34.9407C90.7063 39.3778 90.6109 50.5873 90.6109 50.5873C90.6109 50.5873 105.112 49.2003 105.985 59.8085C106.858 70.4167 96.8138 70.8714 96.8138 70.8714C96.8138 70.8714 103.052 92.0615 90.1753 108.8C88.6673 110.723 86.9911 112.385 85.0863 113.864C83.8768 114.773 82.6514 115.544 81.2133 116.269C79.5181 117.164 77.8069 117.92 75.8673 118.493C68.9434 120.829 61.1434 120.956 53.9403 119.054C52.5879 118.72 51.2197 118.247 49.9276 117.835C48.8483 117.47 47.8895 116.95 46.8705 116.507C41.5309 113.971 37.0039 110.082 33.9278 104.977C22.4804 85.9952 29.106 72.6353 29.106 72.6353C29.106 72.6353 18.0362 71.3881 19.7855 60.1285C21.5666 49.1452 33.1221 50.4066 33.1221 50.4066C33.1221 50.4066 33.2523 46.1222 33.1317 43.2664C33.208 40.318 32.789 35.4669 37.608 34.073Z" fill="#EF5184"/>
<path d="M62.8937 58.8803C62.8937 58.8803 69.8493 53.8113 69.7192 49.0669C69.5891 44.3224 64.824 44.3803 62.7732 46.9957C62.7732 46.9957 59.2494 43.4113 56.17 46.7049C52.9541 50.0142 56.7668 53.7054 58.7033 55.5125C60.7159 57.3809 62.8937 58.8803 62.8937 58.8803Z" fill="#00343F"/>
<path d="M73.1582 68.5391C71.8622 68.8435 71.0578 70.156 71.3616 71.4708C71.6654 72.7855 72.9623 73.6046 74.2583 73.3002C75.5543 72.9958 76.3587 71.6832 76.0549 70.3685C75.7512 69.0537 74.4543 68.2347 73.1582 68.5391Z" fill="#47C3B3"/>
<path d="M76.7237 70.251C75.4277 70.5554 74.6233 71.8679 74.9271 73.1827C75.2308 74.4974 76.5277 75.3165 77.8238 75.0121C79.1198 74.7077 79.9242 73.3951 79.6204 72.0804C79.3166 70.7657 78.0197 69.9466 76.7237 70.251Z" fill="#47C3B3"/>
<path d="M80.6583 70.1777C79.3622 70.4821 78.5579 71.7947 78.8616 73.1094C79.1654 74.4242 80.4623 75.2432 81.7583 74.9388C83.0544 74.6344 83.8587 73.3219 83.5549 72.0072C83.2512 70.6924 81.9543 69.8734 80.6583 70.1777Z" fill="#47C3B3"/>
<path d="M84.2218 68.4048C82.9257 68.7091 82.1212 70.0216 82.4249 71.3365C82.7286 72.6513 84.0255 73.4705 85.3216 73.1662C86.6177 72.8619 87.4223 71.5493 87.1186 70.2345C86.8149 68.9196 85.518 68.1004 84.2218 68.4048Z" fill="#47C3B3"/>
<path d="M86.5845 65.2432C85.2885 65.5476 84.4841 66.8601 84.7879 68.1749C85.0917 69.4896 86.3886 70.3087 87.6846 70.0043C88.9806 69.6999 89.785 68.3873 89.4812 67.0726C89.1774 65.7578 87.8805 64.9388 86.5845 65.2432Z" fill="#47C3B3"/>
<path d="M87.421 61.2817C86.1249 61.586 85.3204 62.8986 85.6241 64.2134C85.9278 65.5283 87.2247 66.3475 88.5208 66.0432C89.8169 65.7389 90.6215 64.4263 90.3178 63.1115C90.0141 61.7966 88.7172 60.9774 87.421 61.2817Z" fill="#47C3B3"/>
<path d="M86.4669 57.3901C85.1708 57.6944 84.3663 59.007 84.67 60.3218C84.9737 61.6367 86.2706 62.4559 87.5667 62.1516C88.8628 61.8473 89.6674 60.5347 89.3637 59.2199C89.06 57.905 87.7631 57.0858 86.4669 57.3901Z" fill="#47C3B3"/>
<path d="M83.8337 54.352C82.5375 54.6563 81.733 55.9689 82.0367 57.2837C82.3404 58.5986 83.6373 59.4178 84.9334 59.1135C86.2296 58.8092 87.0341 57.4966 86.7304 56.1818C86.4267 54.8669 85.1298 54.0477 83.8337 54.352Z" fill="#47C3B3"/>
<path d="M80.2121 52.7114C78.9159 53.0157 78.1114 54.3283 78.4151 55.6431C78.7188 56.958 80.0157 57.7772 81.3118 57.4729C82.608 57.1686 83.4125 55.856 83.1088 54.5411C82.8051 53.2263 81.5082 52.4071 80.2121 52.7114Z" fill="#47C3B3"/>
<path d="M76.2823 52.9229C74.9862 53.2273 74.1819 54.5398 74.4856 55.8546C74.7894 57.1693 76.0863 57.9883 77.3823 57.684C78.6784 57.3796 79.4827 56.067 79.179 54.7523C78.8752 53.4375 77.5783 52.6185 76.2823 52.9229Z" fill="#47C3B3"/>
<path d="M72.7447 54.8145C71.4486 55.1189 70.6443 56.4314 70.948 57.7462C71.2518 59.0609 72.5487 59.8799 73.8447 59.5756C75.1408 59.2712 75.9451 57.9586 75.6414 56.6439C75.3376 55.3291 74.0407 54.5101 72.7447 54.8145Z" fill="#47C3B3"/>
<path d="M70.5207 58.0864C69.2245 58.3907 68.42 59.7033 68.7237 61.0181C69.0274 62.333 70.3243 63.1522 71.6204 62.8479C72.9166 62.5436 73.7211 61.231 73.4174 59.9161C73.1137 58.6013 71.8168 57.7821 70.5207 58.0864Z" fill="#47C3B3"/>
<path d="M69.814 62.044C68.518 62.3483 67.7136 63.6609 68.0174 64.9756C68.3212 66.2904 69.6181 67.1094 70.9141 66.8051C72.2101 66.5007 73.0145 65.1881 72.7107 63.8734C72.4069 62.5586 71.11 61.7396 69.814 62.044Z" fill="#47C3B3"/>
<path d="M70.7896 65.5996C69.4936 65.904 68.6892 67.2166 68.993 68.5313C69.2968 69.8461 70.5936 70.6651 71.8897 70.3607C73.1857 70.0563 73.9901 68.7438 73.6863 67.429C73.3825 66.1143 72.0856 65.2952 70.7896 65.5996Z" fill="#47C3B3"/>
<path d="M76.8405 53.5945C71.224 54.9131 67.7377 60.601 69.0537 66.2986C70.3697 71.9963 75.9896 75.5461 81.6062 74.2275C87.2227 72.9088 90.709 67.221 89.393 61.5233C88.077 55.8257 82.4571 52.2758 76.8405 53.5945Z" fill="#47C3B3"/>
<path d="M77.7153 57.383C74.163 58.2171 71.958 61.8145 72.7903 65.4181C73.6227 69.0218 77.1772 71.267 80.7295 70.433C84.2819 69.599 86.4869 66.0015 85.6545 62.3979C84.8222 58.7942 81.2677 56.549 77.7153 57.383Z" fill="#00343F"/>
<path d="M42.0309 69.8423C40.7348 70.1466 39.9303 71.4591 40.234 72.774C40.5377 74.0888 41.8346 74.908 43.1307 74.6037C44.4268 74.2994 45.2313 72.9868 44.9277 71.672C44.624 70.3572 43.327 69.538 42.0309 69.8423Z" fill="#47C3B3"/>
<path d="M45.5959 71.5532C44.2997 71.8575 43.4952 73.1701 43.7989 74.4849C44.1026 75.7998 45.3995 76.619 46.6956 76.3147C47.9918 76.0104 48.7963 74.6978 48.4926 73.3829C48.1889 72.0681 46.892 71.2489 45.5959 71.5532Z" fill="#47C3B3"/>
<path d="M49.5985 71.542C48.3023 71.8461 47.4976 73.1586 47.8011 74.4734C48.1046 75.7883 49.4014 76.6077 50.6976 76.3036C51.9937 75.9995 52.7984 74.687 52.4949 73.3722C52.1914 72.0573 50.8946 71.2379 49.5985 71.542Z" fill="#47C3B3"/>
<path d="M53.1406 69.6444C51.8445 69.9489 51.0402 71.2616 51.344 72.5765C51.6479 73.8913 52.945 74.7103 54.2411 74.4058C55.5372 74.1013 56.3415 72.7886 56.0377 71.4738C55.7338 70.159 54.4367 69.3399 53.1406 69.6444Z" fill="#47C3B3"/>
<path d="M55.5674 66.5244C54.2714 66.8288 53.467 68.1414 53.7708 69.4561C54.0746 70.7709 55.3715 71.5899 56.6675 71.2855C57.9635 70.9811 58.7679 69.6686 58.4641 68.3538C58.1603 67.0391 56.8635 66.22 55.5674 66.5244Z" fill="#47C3B3"/>
<path d="M56.3902 62.5674C55.0942 62.8718 54.2898 64.1844 54.5936 65.4991C54.8973 66.8138 56.1942 67.6329 57.4903 67.3285C58.7863 67.0241 59.5907 65.7115 59.2869 64.3968C58.9831 63.0821 57.6862 62.263 56.3902 62.5674Z" fill="#47C3B3"/>
<path d="M55.3294 58.7139C54.0333 59.018 53.2286 60.3305 53.5321 61.6453C53.8356 62.9602 55.1324 63.7796 56.4285 63.4755C57.7247 63.1713 58.5293 61.8589 58.2258 60.544C57.9223 59.2292 56.6256 58.4098 55.3294 58.7139Z" fill="#47C3B3"/>
<path d="M52.821 55.6528C51.5248 55.9571 50.7203 57.2697 51.024 58.5845C51.3277 59.8994 52.6246 60.7186 53.9207 60.4143C55.2169 60.11 56.0214 58.7974 55.7177 57.4825C55.414 56.1677 54.1171 55.3485 52.821 55.6528Z" fill="#47C3B3"/>
<path d="M49.1309 54.0791C47.8349 54.3835 47.0305 55.6961 47.3343 57.0108C47.6381 58.3255 48.9349 59.1446 50.231 58.8402C51.527 58.5358 52.3314 57.2233 52.0276 55.9085C51.7238 54.5938 50.4269 53.7747 49.1309 54.0791Z" fill="#47C3B3"/>
<path d="M45.154 54.2251C43.8578 54.5294 43.0533 55.8419 43.357 57.1568C43.6607 58.4716 44.9576 59.2908 46.2537 58.9865C47.5499 58.6822 48.3544 57.3697 48.0507 56.0548C47.747 54.74 46.4501 53.9208 45.154 54.2251Z" fill="#47C3B3"/>
<path d="M41.7456 56.1044C40.4495 56.4089 39.6452 57.7216 39.949 59.0364C40.2529 60.3512 41.55 61.1703 42.8461 60.8658C44.1422 60.5613 44.9465 59.2486 44.6426 57.9338C44.3388 56.6189 43.0417 55.7999 41.7456 56.1044Z" fill="#47C3B3"/>
<path d="M39.3839 59.4067C38.0878 59.711 37.2833 61.0236 37.587 62.3384C37.8907 63.6533 39.1876 64.4725 40.4837 64.1682C41.7799 63.8639 42.5844 62.5513 42.2807 61.2365C41.977 59.9216 40.6801 59.1024 39.3839 59.4067Z" fill="#47C3B3"/>
<path d="M38.689 63.3446C37.3929 63.6491 36.5885 64.9618 36.8924 66.2767C37.1963 67.5915 38.4933 68.4105 39.7894 68.106C41.0855 67.8015 41.8899 66.4888 41.586 65.174C41.2821 63.8592 39.9851 63.0401 38.689 63.3446Z" fill="#47C3B3"/>
<path d="M39.665 66.9022C38.3689 67.2067 37.5646 68.5195 37.8684 69.8343C38.1723 71.1491 39.4694 71.9681 40.7655 71.6636C42.0616 71.3591 42.866 70.0464 42.5621 68.7316C42.2582 67.4168 40.9611 66.5978 39.665 66.9022Z" fill="#47C3B3"/>
<path d="M45.6984 54.8962C40.0819 56.2149 36.5956 61.9027 37.9116 67.6004C39.2276 73.298 44.8476 76.8479 50.4641 75.5292C56.0807 74.2106 59.567 68.5227 58.251 62.8251C56.9349 57.1274 51.315 53.5776 45.6984 54.8962Z" fill="#47C3B3"/>
<path d="M46.5752 58.6936C43.0228 59.5276 40.8178 63.125 41.6502 66.7287C42.4825 70.3323 46.037 72.5775 49.5894 71.7435C53.1417 70.9095 55.3467 67.3121 54.5144 63.7084C53.682 60.1048 50.1275 57.8596 46.5752 58.6936Z" fill="#00343F"/>
<path d="M52.1052 99.3145C58.2251 94.2021 64.5863 94.8005 73.2773 100.03C79.0004 103.501 83.0538 109.893 85.2123 113.634C84.0029 114.543 82.7776 115.314 81.3397 116.039C79.6446 116.934 77.9337 117.69 75.9942 118.263C69.0712 120.598 61.2721 120.725 54.0698 118.824C52.7175 118.489 51.3495 118.017 50.0575 117.605C48.9783 117.24 48.0197 116.72 47.0008 116.277C46.9024 111.81 47.6167 102.98 52.1052 99.3145Z" fill="#F5901A"/>
<path d="M69.974 101.389C76.0337 105.381 79.6015 111.759 81.3378 116.039C79.6427 116.933 77.9317 117.69 75.9922 118.263C69.0691 120.598 61.2698 120.725 54.0674 118.823C52.7151 118.489 51.347 118.016 50.0551 117.605C50.2392 114.994 50.6012 111.524 51.2234 108.513C52.1979 103.152 60.2004 95.1638 69.974 101.389Z" fill="#47C3B3"/>
<path d="M64.1593 104.367C71.6665 106.514 74.7392 113.999 75.8533 118.28C68.9301 120.615 61.1308 120.742 53.9283 118.84C54.4616 113.25 56.3187 102.329 64.1593 104.367Z" fill="#644886"/>
<path d="M66.9442 93.4028C66.9442 93.4028 72.2868 89.9176 73.065 87.6574C73.8433 85.3971 71.4039 83.4367 69.425 85.4848C67.4302 87.3947 66.9442 93.4028 66.9442 93.4028Z" fill="#F5901A"/>
<path d="M61.5449 92.7031C61.5449 92.7031 56.9196 84.346 57.907 81.5028C58.8943 78.6597 63.18 79.8468 63.9705 83.1155C64.6244 86.3999 61.5449 92.7031 61.5449 92.7031Z" fill="#F5901A"/>
<path d="M57.1308 94.0568C57.1308 94.0568 48.8872 89.6879 48.5255 87.1411C48.1638 84.5944 51.6922 83.4193 54.0403 85.8077C56.3883 88.196 57.1308 94.0568 57.1308 94.0568Z" fill="#F5901A"/>
<path d="M91.6966 72.7467C91.6966 72.7467 91.4172 80.5461 92.7439 81.8631C94.0706 83.1801 97.4032 82.0972 96.4321 79.0599C95.4609 76.0227 91.6966 72.7467 91.6966 72.7467Z" fill="#D03844"/>
<path d="M36.9161 72.0504C36.9161 72.0504 36.5 79.8703 35.1279 81.7785C33.6955 83.7637 30.3322 82.1897 31.1643 78.5931C31.7837 74.951 36.9161 72.0504 36.9161 72.0504Z" fill="#D03844"/>
<path opacity="0.098" d="M46.9294 116.428L47.0056 116.489C48.0246 116.932 49.0436 117.374 50.0627 117.817C51.4309 118.29 52.7388 118.839 54.0753 119.036C61.2784 120.937 69.0625 120.672 76.0021 118.475C77.8656 117.841 79.5767 117.084 81.3481 116.251C82.71 115.464 84.0116 114.755 85.2212 113.846C87.1259 112.367 88.8021 110.704 90.3101 108.781C103.186 92.0433 96.9486 70.8534 96.9486 70.8534C96.9486 70.8534 106.993 70.3987 106.12 59.7905C105.247 49.1823 90.7457 50.5694 90.7457 50.5694C90.7457 50.5694 90.7807 39.4369 84.384 34.9229C78.1397 30.5314 74.9015 38.4626 74.6761 38.9084C74.6285 38.494 74.1968 34.1342 69.835 32.8859C65.2604 31.592 64.1651 37.1071 64.1651 37.1071C64.1651 37.1071 63.2826 33.6391 59.1525 33.204C55.0986 32.8301 54.27 37.0547 54.3017 37.331C54.27 37.0547 53.7208 33.4784 48.5304 33.4451C43.3399 33.4118 43.0605 38.2033 43.0923 38.4796C43.0605 38.2033 42.4257 32.6771 37.7432 34.0552C34.5305 34.9844 33.6321 37.3974 33.4161 39.7319C34.6542 38.4697 36.8479 37.0977 40.2352 37.6882C44.3367 38.4765 43.5176 41.5803 42.8732 43.1941C43.8351 41.3338 46.1843 37.7042 49.6573 37.235C54.2827 36.5633 53.6318 42.9373 53.6318 42.9373C53.6318 42.9373 55.943 34.7627 59.5017 36.2434C63.0604 37.724 63.9238 43.434 63.9238 43.434C63.9238 43.434 65.6635 36.305 70.3428 37.3069C75.0222 38.3087 75.4792 44.6953 75.4792 44.6953C75.4792 44.6953 76.8571 38.0278 82.3681 41.4538C87.8188 44.9566 87.9012 55.3057 87.9012 55.3057C87.9012 55.3057 97.3773 56.5261 97.4154 61.0711C97.3931 65.693 90.5868 67.2453 90.5868 67.2453C90.5868 67.2453 91.4214 91.3659 83.2689 102.872C76.6086 112.316 59.3547 118.639 46.9294 116.428ZM42.2255 44.1784C42.2255 44.1784 42.4509 43.7326 42.7367 43.2098C42.3906 43.8095 42.2255 44.1784 42.2255 44.1784Z" fill="#2A0A3C"/>
<path opacity="0.351" d="M35.582 96.6916C40.2291 106.445 45.9524 106.907 49.5775 103.551C53.0662 100.211 48.6412 95.4004 47.197 88.8479C45.813 82.2184 47.1051 73.6018 41.6834 72.7553C36.322 71.832 34.1793 74.2478 33.4269 81.5427C32.7348 88.7607 35.582 96.6916 35.582 96.6916Z" fill="#EBA6A6"/>
</g>
<path d="M22 102.779C22 109.683 27.5964 115.28 34.5 115.282C41.4036 115.283 47 109.688 47 102.784C47 95.8806 41.4036 90.2831 34.5 90.2817C27.5964 90.2803 22 95.8756 22 102.779Z" fill="#F5901A"/>
<path fill-rule="evenodd" clip-rule="evenodd" d="M34.5 88.2812C42.5081 88.2829 49 94.7761 49 102.784C49 110.792 42.5081 117.283 34.5 117.281C26.4919 117.28 20 110.786 20 102.778C20 94.7701 26.4919 88.2796 34.5 88.2812ZM44.5694 102.783C44.5694 97.2221 40.0612 92.7129 34.5 92.7118C28.9388 92.7106 24.4306 97.218 24.4306 102.779C24.4306 108.34 28.9388 112.85 34.5 112.851C40.0612 112.852 44.5694 108.344 44.5694 102.783Z" fill="black"/>
<path d="M80 102.779C80 109.683 85.5964 115.28 92.5 115.282C99.4036 115.283 105 109.688 105 102.784C105 95.8806 99.4036 90.2831 92.5 90.2817C85.5964 90.2803 80 95.8756 80 102.779Z" fill="#F5901A"/>
<path fill-rule="evenodd" clip-rule="evenodd" d="M92.5 88.2812C100.508 88.2829 107 94.7761 107 102.784C107 110.792 100.508 117.283 92.5 117.281C84.4919 117.28 78 110.786 78 102.778C78 94.7701 84.4919 88.2796 92.5 88.2812ZM102.569 102.783C102.569 97.2221 98.0612 92.7129 92.5 92.7118C86.9388 92.7106 82.4306 97.218 82.4306 102.779C82.4306 108.34 86.9388 112.85 92.5 112.851C98.0612 112.852 102.569 108.344 102.569 102.783Z" fill="black"/>
</svg>
