<svg width="129" height="129" viewBox="0 0 129 129" fill="none" xmlns="http://www.w3.org/2000/svg">
<mask id="mask0" mask-type="alpha" maskUnits="userSpaceOnUse" x="0" y="0" width="129" height="129">
<rect x="0.521484" y="0.790039" width="128" height="128" fill="#C4C4C4"/>
</mask>
<g mask="url(#mask0)">
<path fill-rule="evenodd" clip-rule="evenodd" d="M122.993 28.0835C124.973 32.0231 126.312 36.5029 126.994 41.4937C128.461 52.2127 126.059 63.0943 119.854 73.837C114.997 82.248 107.801 90.5885 98.4676 98.6278C82.7207 112.19 66.4868 120.15 65.8032 120.482C65.3813 120.687 64.924 120.79 64.4667 120.79C64.0093 120.79 63.552 120.687 63.1302 120.482C62.6282 120.238 53.7399 115.881 42.8168 108.212L62.2672 88.9555L54.1166 80.8851L33.5713 101.228C32.5371 100.386 31.5004 99.5189 30.4657 98.6278C21.1317 90.5889 13.9363 82.248 9.07887 73.837C2.87435 63.0947 0.472356 52.2131 1.93891 41.4942C3.26361 31.8112 7.05635 24.0514 13.2128 18.4301C18.6 13.5105 25.5154 10.5684 33.2105 9.92122C40.4785 9.31234 47.8875 10.8362 54.0728 14.2188C58.4383 16.6055 61.9872 19.828 64.4667 23.5897C66.9461 19.828 70.4951 16.6055 74.8605 14.2188C81.0459 10.8366 88.4569 9.31275 95.7228 9.92122C103.418 10.5684 110.333 13.5101 115.721 18.4297C115.76 18.4653 115.799 18.501 115.837 18.5368L106.814 27.5422L115.175 35.8882L122.993 28.0835ZM97.6367 57.4729L116.702 50.1472C117.817 49.718 118.64 48.7545 118.886 47.5858C119.134 46.4172 118.774 45.2037 117.931 44.3591L98.3315 24.7727C97.4868 23.9281 96.2696 23.5679 95.1008 23.8161C93.9302 24.0643 92.9665 24.8882 92.5373 26.0052L85.2156 45.0675C91.3305 46.5981 96.1059 51.3728 97.6367 57.4867V57.4729ZM78.7211 63.9815C75.3816 60.6408 75.3816 55.226 78.7197 51.8866C82.062 48.5542 87.4693 48.5542 90.8116 51.8866C94.1498 55.226 94.1498 60.6408 90.8102 63.9815C87.4721 67.3209 82.0592 67.3209 78.7211 63.9815ZM71.6795 57.9567L71.689 57.953L71.6745 57.9367L71.6795 57.9567ZM71.6795 57.9567C73.2961 64.3916 78.3257 69.4131 84.7657 71.0199L77.0457 91.0958C76.5952 92.2721 75.5798 93.1399 74.3465 93.4031C73.1149 93.6645 71.8325 93.2851 70.9424 92.3938L50.3057 71.7678C49.4174 70.8783 49.0378 69.5985 49.2993 68.3677C49.5609 67.1369 50.4255 66.1221 51.6008 65.6701L71.6795 57.9567Z" fill="white"/>
</g>
</svg>
