<svg width="129" height="129" viewBox="0 0 129 129" fill="none" xmlns="http://www.w3.org/2000/svg">
<path d="M32.3125 46.7249C32.3125 64.1218 46.4155 78.2244 63.8125 78.2238C81.2095 78.2231 95.3125 64.1196 95.3125 46.7227C95.3125 29.3257 81.2095 15.2231 63.8125 15.2238C46.4155 15.2244 32.3125 29.3279 32.3125 46.7249Z" fill="#D79E70"/>
<path fill-rule="evenodd" clip-rule="evenodd" d="M64.3125 12.2238C83.0902 12.2232 98.3125 27.445 98.3125 46.2227C98.3125 65.0003 83.0902 80.2232 64.3125 80.2238C45.5348 80.2245 30.3125 65.0027 30.3125 46.225C30.3125 27.4473 45.5348 12.2245 64.3125 12.2238ZM93.1222 46.2228C93.1222 30.3117 80.2237 17.4136 64.3125 17.4141C48.4013 17.4147 35.5028 30.3137 35.5028 46.2249C35.5028 62.136 48.4013 75.0341 64.3125 75.0336C80.2237 75.033 93.1222 62.134 93.1222 46.2228Z" fill="black"/>
<path d="M103.983 70.363C103.74 92.9907 85.1877 111.137 62.572 110.894C39.9563 110.652 21.7979 92.1112 22.0408 69.4836C22.2836 46.8559 40.8358 28.7096 63.4514 28.9523C86.0671 29.1951 104.226 47.7354 103.983 70.363Z" fill="#531D19"/>
<path d="M71.4575 29.8247C82.7769 32.1983 92.3646 39.2398 98.1364 48.8252C102.82 57.0618 104.294 66.3998 103.76 74.2216C102.652 84.839 97.4958 94.2337 89.8768 100.857C85.2702 104.795 80.48 107.132 76.9382 108.468C75.1398 109.119 73.2835 109.647 71.3794 110.043C70.3984 109.406 59.0241 101.95 54.764 95.6615C51.0348 90.1389 48.1436 84.5283 47.985 83.4588C46.6057 84.265 37.7726 88.8587 28.8247 80.1104C25.0774 76.4953 22.9015 72.1302 22.1076 67.4979C23.0378 51.6148 33.0016 38.2015 46.8871 32.2482C54.315 29.4942 62.9262 28.2266 71.4575 29.8247Z" fill="#FFBE82"/>
<path d="M83.0968 34.2078C88.6315 37.3276 93.3657 41.6954 96.9206 46.9253C102.853 56.2654 104.481 67.619 103.499 76.2444C103.164 78.4076 102.66 80.5143 102.001 82.5506C102.713 67.1093 95.0923 51.3348 82.961 43.2169C68.9988 33.9169 50.2809 34.7925 36.5424 44.5353C33.8935 46.3908 31.3626 48.6511 29.4379 51.389C25.2167 57.3316 24.1483 65.7302 26.7026 72.6875C28.8413 78.4966 33.4375 83.1883 38.7961 85.1969C35.7432 84.8278 32.2731 83.4449 28.7635 80.0432C25.0928 76.502 22.93 72.2411 22.0969 67.7143C22.8671 53.2748 31.1018 40.8522 42.9759 34.1804C54.4621 27.9536 68.3343 27.1782 80.8992 33.1668C81.6534 33.4942 82.3858 33.8416 83.0968 34.2078Z" fill="#D79E70"/>
<path d="M100.124 52.5464C100.65 53.6671 101.127 54.8152 101.552 55.9882C100.856 57.3687 99.8624 58.3698 98.7946 59.4463C98.6146 59.6276 98.4326 59.8111 98.2495 59.999C97.075 61.1974 95.8401 62.3279 94.4247 63.1874C91.6894 64.7645 88.5949 65.0607 85.5027 65.3566C84.8393 65.4201 84.1761 65.4836 83.5165 65.5597C78.8029 66.1146 74.0806 67.4768 69.7164 69.6502C70.1335 70.6639 71.2281 71.2139 72.268 71.1578C73.0022 71.1152 73.7387 70.8456 74.4753 70.576C74.7208 70.4861 74.9663 70.3962 75.2117 70.3147C77.6664 69.4664 80.2347 69.4267 82.8022 69.4543C84.7588 69.4416 86.6999 69.4456 88.641 69.4497C90.5821 69.4537 92.5232 69.4577 94.4798 69.445C96.8639 69.4706 99.4941 69.3643 101.226 67.499C101.365 67.3495 101.498 67.1931 101.629 67.0383C102.083 66.5035 102.521 65.9875 103.139 65.8375L103.628 65.8428C103.896 69.3443 103.86 72.7079 103.523 75.6646C103.028 76.1976 102.533 76.7305 101.978 77.1955C101.36 77.7944 100.621 78.3247 99.8238 78.518C98.9803 78.7293 98.1153 78.5072 97.2583 78.2872C96.8073 78.1714 96.3586 78.0562 95.9164 78.0051C94.8468 77.8814 93.7521 78.1201 92.6716 78.3558C91.1613 78.6852 89.6788 79.0086 88.3317 78.3274C87.9046 78.1022 87.5053 77.7888 87.1077 77.4767C86.6563 77.1225 86.2071 76.7699 85.7218 76.5501C84.3435 75.9099 82.8718 76.2905 81.3773 76.6769C80.2992 76.9557 79.2094 77.2376 78.1343 77.1414C76.8352 77.013 75.6742 76.3991 74.5328 75.7955C74.3327 75.6897 74.1331 75.5842 73.9335 75.4816C70.649 73.8989 66.9265 73.2534 63.3146 73.6856C62.886 73.7483 62.4573 73.811 62.3307 74.2133C62.0797 74.8162 62.7464 75.3616 63.2937 75.6366C64.7481 76.2746 66.1658 76.9523 67.603 77.6394C68.0299 77.8435 68.4586 78.0483 68.8904 78.2533C69.0166 78.3122 69.1429 78.3713 69.2692 78.4303C72.9795 80.1649 76.7505 81.9279 80.7037 82.686C81.0717 82.7524 81.4426 82.8123 81.8138 82.8723C83.8431 83.2004 85.8788 83.5295 87.4663 84.9116C88.0463 85.39 88.5749 86.0116 89.0995 86.6285C90.2194 87.9453 91.3207 89.2403 92.863 89.0736C93.6388 88.9966 94.3642 88.5347 95.0719 88.0841C96.0388 87.4684 96.9726 86.8738 97.9564 87.3117C98.5006 87.5583 99.0855 88.2777 99.329 88.9097C97.6528 92.109 95.5666 95.0583 93.1412 97.6886C90.3255 97.9915 86.1249 95.8623 84.441 93.3564C84.2766 93.1159 84.1215 92.8603 83.9656 92.6034C83.5506 91.9195 83.1296 91.2259 82.5122 90.7791C81.6367 90.0814 80.5779 89.9665 79.5019 89.8497C78.7897 89.7724 78.07 89.6942 77.3908 89.4458C76.09 88.9527 75.0892 87.8573 74.0806 86.7533C73.2478 85.8418 72.4096 84.9244 71.3929 84.3354C70.5103 83.8724 69.543 83.6437 68.5787 83.4156C67.6832 83.2039 66.7903 82.9927 65.9703 82.5952C65.2065 82.2196 64.5175 81.6643 63.822 81.1037C63.2436 80.6375 62.6607 80.1677 62.0263 79.7943C60.6289 78.972 58.6741 78.8164 57.6816 80.1514C58.5058 82.0597 60.2905 82.8617 62.1225 83.6848C63.3403 84.232 64.5789 84.7886 65.5703 85.6858C65.9622 86.0635 66.3144 86.4839 66.6637 86.9009C67.0694 87.3854 67.4713 87.8651 67.927 88.2677C69.001 89.1915 70.296 89.6785 71.5902 90.1653C72.7779 90.6119 73.9651 91.0584 74.9807 91.842C76.2398 92.8389 77.1329 94.2299 78.026 95.6209C78.294 96.0382 78.5619 96.4555 78.8397 96.8622C80.0436 98.6244 81.6768 100.257 83.6942 100.278C84.1452 100.283 84.5974 100.19 85.0568 100.096C85.5313 99.9986 86.0136 99.8995 86.5105 99.9049C86.9798 99.9099 88.8271 100.979 89.3512 101.308C89.1063 101.513 88.8588 101.716 88.609 101.917C88.4108 102.059 88.2134 102.201 88.0166 102.343C86.1803 103.664 84.4024 104.944 82.5835 105.893C79.7204 104.92 75.424 101.804 73.3715 99.3602C73.0233 98.9312 72.6891 98.4871 72.3561 98.0446C71.4771 96.8767 70.6062 95.7194 69.5068 94.8782C68.7019 94.2555 67.8109 93.8172 66.9056 93.3719C66.7197 93.2804 66.5332 93.1887 66.3467 93.095C62.8213 91.1733 59.9187 88.1818 57.201 85.0577C56.174 83.9029 55.0866 82.6802 53.6231 82.3281C53.0541 84.0713 54.1343 85.9667 55.405 87.1914C55.8458 87.6161 56.3237 88.0008 56.8001 88.3843C57.6975 89.1066 58.5896 89.8246 59.2181 90.7982C59.494 91.2335 59.718 91.7107 59.9436 92.1915C60.2096 92.7582 60.4778 93.3297 60.8362 93.8432C61.7603 95.1345 63.1357 95.828 64.5214 96.5268C65.7551 97.1489 66.997 97.7751 67.9359 98.8309C68.7814 99.7816 69.3497 101.052 69.9104 102.306C70.7516 104.186 71.5756 106.028 73.2928 106.693C73.5974 106.797 74.452 107.147 75.3065 107.497C76.1611 107.847 77.0156 108.197 77.3202 108.301C77.0541 108.412 76.7909 108.516 76.5319 108.614C74.8472 109.203 73.1127 109.685 71.3368 110.052C71.2081 110.074 71.1393 110.084 71.1393 110.084C71.1393 110.084 59.1558 102.302 54.7028 95.6612C50.9711 90.1715 48.0967 84.5563 47.9248 83.478C47.6789 83.6099 47.1869 83.8738 46.4497 84.2022C46.4373 84.0895 46.425 83.9768 46.4128 83.8641C46.2057 81.9574 46.0012 80.0743 44.9202 78.6015C44.1226 78.8621 43.7435 80.0018 43.8557 80.9449C43.9171 81.4615 44.0707 81.9388 44.2255 82.4199C44.3534 82.8171 44.482 83.2169 44.5604 83.6437C44.6179 83.9807 44.6136 84.3844 44.6093 84.788C43.26 85.1772 41.6066 85.4286 39.7734 85.3416C39.7771 84.9893 39.827 84.6887 39.8831 84.35C39.8913 84.3006 39.8996 84.2505 39.9079 84.1993C40.3575 82.1857 40.7466 80.1042 41.1358 78.0227C39.2436 77.7333 37.8749 79.9388 37.1204 81.8819C37.0501 82.0567 36.9798 82.2339 36.9091 82.4121C36.6006 83.1898 36.2843 83.9871 35.9286 84.6949C35.0152 84.3486 34.1018 84.0024 33.1295 83.4538C33.4449 82.5489 33.7452 81.627 34.0455 80.7051C34.3458 79.7832 34.6461 78.8613 34.9615 77.9564C33.864 77.6755 32.7536 78.6055 32.1314 79.6081C31.9074 79.969 31.708 80.3439 31.5111 80.714C31.2706 81.1662 31.0338 81.6114 30.7605 82.0154C30.0931 81.5373 29.4272 80.9246 28.7008 80.244C28.5498 80.0742 28.3986 79.9212 28.2474 79.7682C28.0962 79.6152 27.9449 79.4622 27.7939 79.2924C28.1471 78.5954 28.5974 77.9351 29.0403 77.2858C30.0855 75.7531 31.0895 74.2809 30.6789 72.528C29.2175 71.9741 27.8567 73.4397 26.9857 74.8432C26.8409 75.0435 26.7028 75.2513 26.5647 75.4592C26.2886 75.8748 26.0124 76.2905 25.6825 76.6458C24.4786 74.8836 23.52 73.0567 22.8685 71.0986C23.7073 70.2903 24.7307 69.7244 25.7631 69.1536C26.1755 68.9257 26.5892 68.6969 26.9932 68.4516C27.4858 68.1205 28.0404 67.7228 28.2914 67.12C28.4813 66.5165 28.3073 65.64 27.6974 65.4989C27.3925 65.4283 27.0854 65.5596 26.8394 65.6915C26.2998 65.9221 25.8064 66.2441 25.3136 66.5658C24.6844 66.9764 24.0562 67.3864 23.3339 67.605C22.9413 67.7238 22.4986 67.7296 22.0991 67.6747C22.1775 66.2306 22.3306 64.8067 22.5545 63.4067C22.9956 63.2934 23.4529 63.233 23.8699 63.2375C25.5212 63.188 27.6623 63.0764 27.9853 61.4651C26.9761 60.1964 25.24 60.4834 23.7258 60.7336L23.6521 60.7458C23.4622 60.7855 23.2607 60.8121 23.053 60.8257C23.4513 59.0699 23.9622 57.3573 24.5777 55.6958C25.0091 55.7357 25.436 55.8149 25.8437 55.9251C25.9627 55.9592 26.0856 55.9956 26.2116 56.0328C27.6345 56.4537 29.438 56.9871 30.1266 55.6347C30.6257 54.6981 30.0892 53.414 29.2392 52.8667C28.3891 52.3193 27.3499 52.3081 26.3718 52.2976L26.0168 52.2938C26.6531 50.9614 27.3593 49.6689 28.1305 48.421C28.8661 48.7521 29.5735 49.1688 30.2785 49.5841C30.6743 49.8172 31.0693 50.0498 31.4681 50.2666C31.8938 50.4731 32.4419 50.6808 32.8719 50.4836C33.9781 49.9572 33.2036 48.065 32.109 47.515C31.5726 47.2455 31.0059 47.0726 30.4457 46.9017C30.0789 46.7898 29.7149 46.6788 29.3641 46.542C30.1921 45.3532 31.0815 44.2104 32.0275 43.1183C32.1331 43.2159 32.2361 43.3146 32.3364 43.4134C33.6676 44.706 34.8132 46.1984 35.774 47.8235C36.7004 46.9588 36.781 45.1431 35.8734 44.2587C35.6135 43.9664 35.2267 43.7766 34.8493 43.5914C34.7005 43.5183 34.5532 43.446 34.4156 43.3684C33.8555 43.0913 33.317 42.6806 32.858 42.1883C34.0794 40.8615 35.387 39.6157 36.7719 38.4597C38.1873 40.5266 39.3461 42.7999 40.2044 45.1798C40.4417 45.8552 40.7394 46.5984 41.3478 46.8741C42.382 47.3562 43.4983 45.888 43.3279 44.6751C43.1647 43.5134 42.2691 42.6525 41.4494 41.8645C41.4133 41.8298 41.3773 41.7952 41.3416 41.7607C41.3081 41.7294 41.2746 41.698 41.241 41.6665C39.9711 40.4773 38.585 39.1793 37.8888 37.5599C39.4891 36.316 41.1836 35.1883 42.9597 34.1893C43.0743 34.3847 43.1326 34.5183 43.1902 34.7161C43.905 36.4731 44.6349 38.247 45.3648 40.021C46.0948 41.7949 46.8247 43.5688 47.5395 45.3258C48.0163 46.4747 49.164 47.7653 50.0286 46.9673C50.5852 46.3677 50.23 45.2874 49.8712 44.5435C49.3325 43.4612 48.7941 42.3621 48.2556 41.263C47.7172 40.1639 47.1787 39.0649 46.6401 37.9826C45.9224 36.4947 45.2054 34.9396 44.9782 33.3224C47.1883 32.4715 49.52 31.6891 51.9114 31.042C52.5686 32.4619 52.7347 34.0784 52.8397 35.6943C53.1107 38.9267 53.3205 42.1584 52.9191 45.3835C52.7853 46.4586 52.7701 47.8713 53.6827 48.2848C54.8989 48.9034 55.8375 46.895 55.9145 45.4157C56.198 41.7856 56.0544 38.0836 55.6036 34.5129C55.3742 33.0976 55.1456 31.6149 55.3441 30.2042C57.4881 29.8235 59.6313 29.5101 61.8342 29.3319C62.3081 30.7499 62.3512 32.4324 62.2734 33.979C62.0927 39.4268 61.2402 44.8 59.8397 49.9656C59.8214 50.0423 59.8019 50.119 59.7824 50.1957C59.6651 50.6558 59.5479 51.1159 59.7001 51.5788C59.8166 52.1183 60.4236 52.5285 60.8551 52.1968C60.9789 52.0635 61.1026 51.9303 61.1651 51.7964L61.2489 51.6585C63.0897 48.6275 64.9729 45.5269 65.7332 42.0225C65.7595 41.8861 65.7847 41.7496 65.8098 41.6135C65.9702 40.7449 66.128 39.8898 66.5589 39.1383C66.8084 38.6796 67.1368 38.3097 67.4652 37.9397C67.7115 37.6622 67.9577 37.3848 68.1707 37.0699C69.1566 35.6409 69.245 33.8684 69.3348 32.068C69.3751 31.2599 69.4157 30.4463 69.5378 29.6556C71.8478 29.8538 74.1983 30.5732 76.4384 31.2588C76.76 31.3572 77.0794 31.455 77.396 31.5504C77.4399 31.5668 77.4837 31.5834 77.5275 31.6C77.5664 33.4784 77.0601 34.6791 76.2481 36.4165C75.9774 36.9518 75.7 37.4796 75.4226 38.0074C74.8678 39.063 74.313 40.1186 73.812 41.2346C73.5459 41.8597 73.3015 42.5093 73.0558 43.1625C72.7223 44.049 72.3863 44.9421 71.99 45.7901C70.8129 48.342 69.072 50.4535 67.3325 52.5633C65.6493 54.6046 63.9675 56.6444 62.7988 59.0802C62.4241 59.8163 62.1098 60.6203 62.2234 61.4289C62.337 62.2375 62.9397 63.0513 63.674 62.9919C64.0407 62.9958 64.3486 62.7973 64.6571 62.5315C65.8417 61.5832 66.38 60.0405 66.9159 58.505C67.468 56.9229 68.0174 55.3485 69.2682 54.44C69.8534 53.9675 70.5436 53.7327 71.2393 53.4961C71.7167 53.3337 72.1966 53.1704 72.6471 52.9289C74.0251 52.1724 74.9616 50.7901 75.8997 49.4054C76.7619 48.1327 77.6256 46.858 78.8346 46.0654C79.697 45.4691 80.6938 45.1602 81.6906 44.8513C82.6874 44.5424 83.6843 44.2336 84.5466 43.6373C85.6738 42.8628 86.3069 41.8433 86.9321 40.8367C87.5108 39.905 88.0826 38.9843 89.033 38.2787C90.8505 39.7751 92.5367 41.4249 94.0718 43.2079C94.3359 43.5448 94.5939 43.8868 94.846 44.2335C94.1629 45.9926 93.3639 46.5804 92.0296 47.5618C91.8901 47.6644 91.7448 47.7713 91.5931 47.8843C88.9772 49.8427 86.3387 51.7499 83.7056 53.6533C82.058 54.8443 80.4125 56.0338 78.7759 57.2333C77.0498 58.5604 75.2632 59.8195 73.4767 61.0787L70.7041 63.0674C70.6676 63.0968 70.6298 63.1262 70.5915 63.1561C70.3704 63.3282 70.131 63.5146 70.0237 63.8001C69.6483 64.6035 70.3717 65.5532 71.165 65.6962C71.9583 65.8393 72.6962 65.4435 73.4341 65.0478L93.7332 53.5588C93.84 53.4943 93.9467 53.4306 94.0531 53.3671C94.9284 52.8447 95.7823 52.3349 96.4454 51.5022C96.7645 51.0731 96.9231 50.6287 97.073 50.2088C97.2727 49.6491 97.4569 49.133 97.985 48.7542C98.3554 49.4654 98.7694 50.1792 99.1874 50.8997C99.5032 51.4441 99.8213 51.9924 100.124 52.5464Z" fill="#712B23"/>
<path d="M100.122 52.5451C100.648 53.6658 101.125 54.814 101.549 55.9869C100.853 57.3691 99.8589 58.3712 98.7898 59.4492C98.6112 59.6293 98.4305 59.8115 98.2487 59.9979C98.0632 60.1978 97.8157 60.4642 97.5691 60.6634C96.4343 58.1619 95.0535 55.7922 93.4879 53.5552C93.5188 53.5219 93.5649 53.5055 93.6109 53.4892C93.6569 53.4729 93.703 53.4566 93.7339 53.4232C93.8406 53.3587 93.9474 53.295 94.0538 53.2315C94.929 52.7091 95.783 52.1993 96.4461 51.3667C96.7656 50.9654 96.9237 50.5364 97.0735 50.1304C97.2722 49.5913 97.4561 49.0927 97.9829 48.7529C98.3533 49.4641 98.7673 50.1779 99.1853 50.8984C99.5011 51.4428 99.8191 51.9911 100.122 52.5451Z" fill="#5E231F"/>
<path d="M89.1921 38.4108C90.7738 39.7266 92.2547 41.1591 93.6217 42.6948C94.0816 43.2512 94.5235 43.8224 94.9486 44.4071C94.3593 45.9248 93.621 46.423 92.5624 47.1373C92.2657 47.3375 91.9438 47.5547 91.5931 47.816C91.3158 48.0149 91.0231 48.2304 90.7304 48.4459C90.4376 48.6614 90.1449 48.8769 89.8677 49.0758C88.1151 47.1731 86.1776 45.4031 84.0539 43.9001C84.238 43.8348 84.4228 43.7022 84.5465 43.569C85.6743 42.7941 86.334 41.8366 86.9857 40.8909C87.6 39.9994 88.207 39.1185 89.1921 38.4108Z" fill="#5E231F"/>
<path d="M77.3939 31.5491C77.4378 31.5655 77.4816 31.5821 77.5254 31.5987C77.5647 33.4769 77.1823 34.612 76.3703 36.3495C75.9323 37.2867 75.4949 38.1567 74.9958 39.0932C72.7426 38.2617 70.4253 37.6986 68.1067 37.27C68.1376 37.2367 68.1687 37.1866 68.1998 37.1364C68.2309 37.0863 68.262 37.0362 68.2929 37.0029C69.2562 35.6068 69.3062 33.9126 69.3574 32.1746C69.3822 31.3352 69.4073 30.4855 69.5357 29.6543C71.8457 29.8526 74.1961 30.5719 76.4362 31.2575C76.7579 31.3559 77.0773 31.4537 77.3939 31.5491Z" fill="#5E231F"/>
<path d="M41.0474 35.3319C41.7219 34.9027 42.4097 34.4927 43.1101 34.1026C43.207 34.2731 43.2603 34.4005 43.3131 34.5818C43.9675 36.2708 44.3773 37.8686 45.0928 39.5582C43.7422 40.082 42.6958 40.8323 41.4048 41.4912C41.1147 41.2432 40.8334 41.0175 40.564 40.8014C39.4272 39.8895 38.5031 39.1481 38.0252 37.62C38.7352 37.1963 39.4239 36.6372 40.1237 36.0691C40.4286 35.8216 40.7356 35.5723 41.0474 35.3319Z" fill="#5E231F"/>
<path d="M30.7693 44.6392C31.0517 44.2797 31.34 43.9251 31.634 43.5755C31.8253 43.3807 31.8706 43.2554 32.2118 42.9312L32.2322 42.9118C32.2322 42.9118 32.5546 43.2667 32.7253 43.4313C33.5725 44.2477 33.9086 44.9661 34.5709 45.9152C33.8309 46.5127 33.3366 46.9889 32.6577 47.5872L32.2931 47.3814C31.7461 47.1066 31.4104 47.0959 31.0825 47.0855C30.7541 47.0751 30.4336 47.0649 29.9165 46.7901C29.7621 46.7029 29.6827 46.6941 29.6196 46.687C29.5443 46.6786 29.4921 46.6728 29.3629 46.5395C29.5656 46.2485 29.7719 45.9603 29.9819 45.6749C30.2597 45.3393 30.5223 45.0129 30.5525 44.9484C30.6316 44.8348 30.7033 44.7325 30.7693 44.6392Z" fill="#5E231F"/>
<path d="M26.1111 52.092C26.7608 50.7504 27.4815 49.4499 28.2682 48.1951C28.903 48.4858 29.521 48.8449 30.1348 49.2016C30.3576 49.3311 30.5798 49.4602 30.8021 49.5857C30.3073 50.1186 29.8729 50.7194 29.4385 51.3202C29.3144 51.487 29.2054 51.671 29.0964 51.8549C28.9874 52.0387 28.8785 52.2226 28.7544 52.3895C28.0848 52.1132 27.2901 52.1046 26.5565 52.0968L26.1111 52.092Z" fill="#5E231F"/>
<path d="M23.0801 60.6968C23.4906 58.9135 24.0174 57.1751 24.652 55.4899C25.1002 55.5281 25.5441 55.6091 25.9674 55.7236C26.1198 55.7589 26.2874 55.8111 26.455 55.8634C26.6225 55.9156 26.7902 55.9679 26.9426 56.0032C26.3773 57.41 25.9946 58.886 25.7342 60.3634C25.0617 60.3562 24.3878 60.4835 23.7751 60.6115C23.556 60.6573 23.3216 60.6857 23.0801 60.6968Z" fill="#5E231F"/>
<path d="M22.1006 67.6068C22.1795 66.1959 22.3297 64.8044 22.5475 63.4358C23.0038 63.3036 23.479 63.2323 23.9303 63.2371C24.4193 63.2424 24.9703 63.181 25.46 63.119C25.3866 64.262 25.3743 65.4056 25.4843 66.5506C25.3626 66.6218 25.2409 66.6953 25.1188 66.769C24.562 67.105 23.9978 67.4455 23.3943 67.6046C22.9649 67.7346 22.4759 67.7293 22.1098 67.6581C22.1067 67.641 22.1037 67.6239 22.1006 67.6068Z" fill="#5E231F"/>
<path d="M103.599 75.5497C103.59 75.6142 103.581 75.6787 103.572 75.743C103.08 76.2721 102.589 76.8007 102.037 77.2624C102.007 77.2621 101.991 77.2787 101.976 77.2954C101.961 77.312 101.945 77.3287 101.914 77.3283C101.703 74.2312 101.185 71.198 100.361 68.2288C100.669 68.0303 100.978 67.7645 101.225 67.498C101.364 67.3485 101.497 67.1921 101.628 67.0373C102.082 66.5024 102.52 65.9864 103.138 65.8365L103.627 65.8418C103.89 69.2732 103.861 72.5723 103.599 75.5497Z" fill="#5E231F"/>
<path d="M36.2414 83.9571C36.1781 84.1583 36.1148 84.3594 35.9904 84.5599C35.0151 84.2803 34.1025 83.8669 33.1302 83.3182L33.5099 82.1112C34.3586 82.7931 35.269 83.4084 36.2414 83.9571Z" fill="#5E231F"/>
<path d="M27.8565 79.0902C28.1686 78.488 28.6037 77.8199 29.0382 77.219C29.8206 78.3712 30.6649 79.4567 31.694 80.4097C31.4445 80.878 31.1949 81.3463 30.8842 81.8139C30.1564 81.2678 29.4904 80.6552 28.764 79.9746C28.4613 79.7022 28.1585 79.4298 27.8565 79.0902Z" fill="#5E231F"/>
<path d="M34.6091 40.37C35.3217 39.6234 35.7708 39.1738 36.7853 38.5448C37.9302 40.1046 38.4275 41.129 39.2042 42.8194C38.2196 43.4143 37.0946 43.9819 36.1704 44.6448C36.1503 44.6582 36.194 44.6194 36.1704 44.6448C35.7984 44.3879 35.8011 44.3568 35.6803 44.2209C35.4204 43.9287 35.0336 43.7388 34.6563 43.5536C34.5074 43.4806 34.36 43.4082 34.2225 43.3307C34.0659 43.2532 33.9415 43.1952 33.8407 43.1483C33.6342 43.052 33.5265 43.0019 33.4449 42.9248C33.3568 42.8416 33.2985 42.7269 33.1774 42.4885L33.1769 42.4876C33.1251 42.3855 33.0617 42.2608 32.9796 42.1063C33.4539 41.6928 34.1978 40.801 34.6091 40.37Z" fill="#5E231F"/>
<path d="M22.9296 71.0309C23.5811 72.9891 24.5397 74.8159 25.7436 76.5781C26.1773 76.0445 26.6117 75.4437 26.9238 74.8415C27.0483 74.641 27.1727 74.4405 27.3583 74.2406C27.2976 74.1032 27.2369 73.9702 27.1772 73.8393C27.0018 73.4549 26.8349 73.0891 26.7024 72.6862C26.2868 71.5379 25.9941 70.3237 25.7618 69.1775C24.778 69.7052 23.7941 70.2328 22.9296 71.0309Z" fill="#5E231F"/>
<path d="M62.2438 36.6688C62.315 35.7277 62.3863 34.7865 62.3957 33.912C62.4734 32.3654 62.3173 30.3729 61.8434 28.9549C59.6405 29.1331 57.5083 29.429 55.3644 29.8097C55.1658 31.2204 55.4964 33.0306 55.7258 34.4459C55.7392 34.5497 55.7525 34.6525 55.7658 34.7546L55.7659 34.7553C55.8648 35.5147 55.9584 36.2343 56.004 37.0056C58.025 36.6908 60.1042 36.6459 62.2438 36.6688Z" fill="#5E231F"/>
<path d="M46.763 37.8483C46.0453 36.3604 45.3283 34.8053 45.1011 33.1881C47.0999 32.0926 49.6382 31.1045 51.9692 30.3894C52.6265 31.8094 52.7972 33.8762 52.9022 35.4921C52.956 36.1645 53.0106 36.7699 53.0651 37.3752L53.0654 37.3777C51.1048 37.7603 49.2039 38.2782 47.3016 38.9306C47.2117 38.7614 47.122 38.5754 47.0323 38.3894C46.9426 38.2035 46.8529 38.0175 46.763 37.8483Z" fill="#5E231F"/>
<path d="M41.5355 74.999C43.8643 74.4857 46.1421 73.03 47.267 70.7545C48.3919 68.4791 48.1209 65.2467 46.2424 63.6791C44.3639 62.1115 41.0527 63.0179 40.4751 65.5683C41.4051 64.3673 43.2383 64.4542 44.2048 65.5411C45.1714 66.6279 45.3353 68.4463 44.7088 69.8524C44.0823 71.2586 42.7885 72.1867 41.4392 72.5759C38.986 73.2896 36.1244 72.1824 34.9896 69.6809C34.3913 68.4634 34.2849 66.9821 34.3 65.5693C34.4671 61.3998 36.2854 57.1806 39.3687 54.7243C42.452 52.268 46.7988 51.7091 50.2013 53.6968C53.6641 55.7524 55.636 60.0122 56.3241 64.2583C56.7814 67.2235 56.8086 70.386 55.9217 73.2695C54.9701 76.4888 53.0461 79.1594 50.8812 81.4909C50.2008 82.2237 49.214 83.0205 48.1654 83.8839C48.338 84.8949 50.3739 88.8863 53.1994 93.3572C54.0632 92.6264 54.8069 91.6924 55.5499 90.8258C57.1617 88.7574 58.7131 86.621 60.1429 84.4161C61.3865 82.4783 62.5085 80.472 63.3271 78.2605C66.794 68.542 65.2657 51.4364 56.8081 47.6452C54.557 46.6118 50.4131 45.3563 47.9656 45.5319C43.07 45.9503 38.2772 48.1864 34.9335 52.12C31.5898 56.0537 29.8779 61.7542 30.7997 67.012C31.2606 69.6408 32.3946 72.2097 34.3961 73.7113C36.3357 75.2796 39.0837 75.5782 41.5355 74.999Z" fill="#5E231F"/>
<path d="M52.2114 60.2426C51.5534 58.8899 50.8336 57.6039 49.8044 56.6509C48.776 55.6306 47.3765 55.0101 46.0287 55.2647C45.6 55.3274 45.17 55.5246 44.9218 55.8584C44.6126 56.1915 44.4845 56.7283 44.6636 57.1339C44.9016 57.742 45.5726 57.8838 46.1214 58.0242C49.17 58.797 51.5835 61.7833 51.8523 65.2175C51.9048 66.0254 52.017 66.9685 52.6858 67.3121C55.3633 68.4846 52.571 60.9192 52.2114 60.2426Z" fill="#A43D34"/>
<path d="M52.8856 71.4857C53.3171 71.1539 53.3258 70.3466 52.9633 69.939C52.6009 69.5315 51.9284 69.5243 51.4357 69.8554C51.0042 70.1871 50.6921 70.7893 50.6863 71.3275C50.6201 71.7977 50.7359 72.4045 51.1616 72.6109C51.4651 72.816 51.8937 72.7533 52.2016 72.5548C52.5094 72.3563 52.7568 72.0898 53.0042 71.8233L52.8856 71.4857Z" fill="#A43D34"/>
<path d="M22.3125 102.718C22.3125 109.621 27.9089 115.219 34.8125 115.22C41.7161 115.222 47.3125 109.626 47.3125 102.723C47.3125 95.8191 41.7161 90.2215 34.8125 90.2202C27.9089 90.2188 22.3125 95.8141 22.3125 102.718Z" fill="#A53E35"/>
<path fill-rule="evenodd" clip-rule="evenodd" d="M34.8125 88.2197C42.8206 88.2213 49.3125 94.7145 49.3125 102.723C49.3125 110.731 42.8206 117.221 34.8125 117.22C26.8044 117.218 20.3125 110.725 20.3125 102.717C20.3125 94.7086 26.8044 88.2181 34.8125 88.2197ZM44.8819 102.722C44.8819 97.1606 40.3737 92.6514 34.8125 92.6503C29.2513 92.6491 24.7431 97.1564 24.7431 102.718C24.7431 108.279 29.2513 112.788 34.8125 112.789C40.3737 112.79 44.8819 108.283 44.8819 102.722Z" fill="black"/>
<path d="M80.3125 102.718C80.3125 109.621 85.9089 115.219 92.8125 115.22C99.7161 115.222 105.312 109.626 105.312 102.723C105.312 95.8191 99.7161 90.2215 92.8125 90.2202C85.9089 90.2188 80.3125 95.8141 80.3125 102.718Z" fill="#A53E35"/>
<path fill-rule="evenodd" clip-rule="evenodd" d="M92.8125 88.2197C100.821 88.2213 107.312 94.7145 107.312 102.723C107.312 110.731 100.821 117.221 92.8125 117.22C84.8044 117.218 78.3125 110.725 78.3125 102.717C78.3125 94.7086 84.8044 88.2181 92.8125 88.2197ZM102.882 102.722C102.882 97.1606 98.3737 92.6514 92.8125 92.6503C87.2513 92.6491 82.7431 97.1564 82.7431 102.718C82.7431 108.279 87.2513 112.788 92.8125 112.789C98.3737 112.79 102.882 108.283 102.882 102.722Z" fill="black"/>
</svg>
