<svg width="24" height="29" viewBox="0 0 24 29" fill="none" xmlns="http://www.w3.org/2000/svg">
<path d="M18.6305 2.35522V4.14561H7.29135C6.49994 4.14561 5.74095 4.46 5.18135 5.0196C4.62174 5.57921 4.30736 6.3382 4.30736 7.12961V23.2432H2.51696C2.04212 23.2432 1.58672 23.0545 1.25096 22.7188C0.915193 22.383 0.726562 21.9276 0.726562 21.4528V2.35522C0.726562 1.88037 0.915193 1.42498 1.25096 1.08921C1.58672 0.75345 2.04212 0.564819 2.51696 0.564819H16.8401C17.315 0.564819 17.7704 0.75345 18.1061 1.08921C18.4419 1.42498 18.6305 1.88037 18.6305 2.35522Z" fill="white"/>
<path d="M21.6136 5.33923H7.2904C6.30159 5.33923 5.5 6.14082 5.5 7.12963V26.2272C5.5 27.216 6.30159 28.0176 7.2904 28.0176H21.6136C22.6024 28.0176 23.404 27.216 23.404 26.2272V7.12963C23.404 6.14082 22.6024 5.33923 21.6136 5.33923Z" fill="white"/>
</svg>
